<svg xmlns="http://www.w3.org/2000/svg" baseProfile="full" height="1122.52" preserveAspectRatio="xMinYMin meet" style="width:792px;height:931px" width="793.701" xml:space="preserve"><path d="M169.053 399.731 48.11 425.287M257.023 438.242l-2.601-.559M221.423 428.902l-54.723-11.71" style="fill:none;stroke:red;stroke-width:1.99999;stroke-linecap:round;stroke-linejoin:round;stroke-miterlimit:500;stroke-dasharray:none;stroke-opacity:1;visibility:visible"/><path d="m166.264 404.878-.034-1M246.655 419.487l.276-.067.175-.077.05-.081-.069-.076-.191-.064-.292-.048-.366-.028-.413-.006-.415.022-.388.044-.319.058-.229.074-.112.081.008.081.13.067.247.057.332.04.394.013.417-.007.405-.03.36-.054M243.153 418.763l.277-.068.173-.075.052-.08-.07-.076-.192-.064-.29-.049-.367-.028-.407-.003-.419.022-.384.038-.32.063-.23.072-.113.079.009.08.13.07.244.06.335.034.389.017.42-.008.402-.033.361-.05M247.843 421.096l-81.198-16.848M166.562 404.04l2.18-4.374" style="fill:none;stroke:red;stroke-width:.999997;stroke-linecap:round;stroke-linejoin:round;stroke-miterlimit:500;stroke-dasharray:none;stroke-opacity:1;visibility:visible"/><path d="m381.492 422.515-5.992.78M381.636 407.435l-.144 15.08M370.446 403.959l11.19 3.476M370.446 403.96l-5.968.753" style="fill:none;stroke:red;stroke-width:1.99999;stroke-linecap:round;stroke-linejoin:round;stroke-miterlimit:500;stroke-dasharray:none;stroke-opacity:1;visibility:visible"/><path d="m377.2 408-16.378 2.083M360.822 410.084l-16.532 2.104M344.29 412.188l-84.401 10.743" style="fill:none;stroke:red;stroke-width:.999997;stroke-linecap:round;stroke-linejoin:round;stroke-miterlimit:500;stroke-dasharray:none;stroke-opacity:1;visibility:visible"/><path d="m257.818 438.626 117.681-15.33" style="fill:none;stroke:red;stroke-width:1.99999;stroke-linecap:round;stroke-linejoin:round;stroke-miterlimit:500;stroke-dasharray:none;stroke-opacity:1;visibility:visible"/><path d="m257.818 438.626-.812-.394M257.814 423.251l.005 15.375" style="fill:none;stroke:red;stroke-width:.999997;stroke-linecap:round;stroke-linejoin:round;stroke-miterlimit:500;stroke-dasharray:none;stroke-opacity:1;visibility:visible"/><path d="m213.102 385.126 59.823 10.984M277.17 396.891l35.863 6.584" style="fill:none;stroke:red;stroke-width:1.99999;stroke-linecap:round;stroke-linejoin:round;stroke-miterlimit:500;stroke-dasharray:none;stroke-opacity:1;visibility:visible"/><path d="m313.303 404.48-3.143.4" style="fill:none;stroke:red;stroke-width:.999997;stroke-linecap:round;stroke-linejoin:round;stroke-miterlimit:500;stroke-dasharray:none;stroke-opacity:1;visibility:visible"/><path d="m317.615 410.908 33.867-4.466M355.194 405.952l9.252-1.22M317.434 404.5l.181 6.407" style="fill:none;stroke:red;stroke-width:1.99999;stroke-linecap:round;stroke-linejoin:round;stroke-miterlimit:500;stroke-dasharray:none;stroke-opacity:1;visibility:visible"/><path d="m310.342 411.707 3.308-.427" style="fill:none;stroke:red;stroke-width:.999997;stroke-linecap:round;stroke-linejoin:round;stroke-miterlimit:500;stroke-dasharray:none;stroke-opacity:1;visibility:visible"/><path d="m168.857 392.874 43.597-7.635M169.085 399.482l-.23-6.608" style="fill:none;stroke:red;stroke-width:1.99999;stroke-linecap:round;stroke-linejoin:round;stroke-miterlimit:500;stroke-dasharray:none;stroke-opacity:1;visibility:visible"/><path d="m166.7 417.192-.035-.998M170.946 399.842l88.547 17.333M174.7 393.996l85.723 16.516M264.423 410.715l8.611-1.099M277.037 409.104l33.122-4.224M262.645 411.5l.202 4.75" style="fill:none;stroke:red;stroke-width:.999997;stroke-linecap:round;stroke-linejoin:round;stroke-miterlimit:500;stroke-dasharray:none;stroke-opacity:1;visibility:visible"/><path d="m221.423 428.902-54.723-11.71" style="fill:none;stroke:red;stroke-width:1.99999;stroke-linecap:round;stroke-linejoin:round;stroke-miterlimit:500;stroke-dasharray:none;stroke-opacity:1;visibility:visible"/><path d="m54.213 426.507 111.85-22.633M54.213 426.508l-6.126-1.34M166.264 404.878l.4 11.316" style="fill:none;stroke:red;stroke-width:.999997;stroke-linecap:round;stroke-linejoin:round;stroke-miterlimit:500;stroke-dasharray:none;stroke-opacity:1;visibility:visible"/><path d="M165.137 417.478 54.644 436.804" style="fill:none;stroke:red;stroke-width:1.99999;stroke-linecap:round;stroke-linejoin:round;stroke-miterlimit:500;stroke-dasharray:none;stroke-opacity:1;visibility:visible"/><path d="m54.643 436.804-.431-10.296" style="fill:none;stroke:red;stroke-width:.999997;stroke-linecap:round;stroke-linejoin:round;stroke-miterlimit:500;stroke-dasharray:none;stroke-opacity:1;visibility:visible"/><path d="m166.7 417.192-1.564.286M54.643 436.804l-6.126-1.369M48.519 435.435l-.432-10.268" style="fill:none;stroke:red;stroke-width:1.99999;stroke-linecap:round;stroke-linejoin:round;stroke-miterlimit:500;stroke-dasharray:none;stroke-opacity:1;visibility:visible"/><path d="m161.752 402.766.364-.083.236-.096.085-.1-.075-.093-.23-.08-.358-.058-.462-.034-.524-.003-.532.025-.5.054-.421.072-.305.091-.162.097-.006.098.155.087.297.072.416.047.495.02.533-.012.526-.04.468-.064M165.929 403.632l.35-.08.204-.095.039-.095-.13-.088-.283-.067-.41-.043-.492-.012-.521.02-.488.046-.406.072-.282.089-.124.096.046.09.208.083.354.056.456.026.512-.004.51-.032.458-.062" style="fill:none;stroke:red;stroke-width:.666665;stroke-linecap:round;stroke-linejoin:round;stroke-miterlimit:500;stroke-dasharray:none;stroke-opacity:1;visibility:visible"/><path d="m154.21 448.348 6.74 1.474M257.654 423.112l-96.704 26.71M247.29 421.346l9.78 1.926M247.29 421.346l-.317.05" style="fill:none;stroke:red;stroke-width:.999997;stroke-linecap:round;stroke-linejoin:round;stroke-miterlimit:500;stroke-dasharray:none;stroke-opacity:1;visibility:visible"/><path d="m246.973 421.396-92.761 26.952" style="fill:none;stroke:red;stroke-width:1.99999;stroke-linecap:round;stroke-linejoin:round;stroke-miterlimit:500;stroke-dasharray:none;stroke-opacity:1;visibility:visible"/><path d="m160.95 449.822-.048 10.728" style="fill:none;stroke:red;stroke-width:.999997;stroke-linecap:round;stroke-linejoin:round;stroke-miterlimit:500;stroke-dasharray:none;stroke-opacity:1;visibility:visible"/><path d="m160.902 460.551-6.302-1.41M154.6 459.142l-.39-10.794M257.133 437.004l-96.23 23.547" style="fill:none;stroke:red;stroke-width:1.99999;stroke-linecap:round;stroke-linejoin:round;stroke-miterlimit:500;stroke-dasharray:none;stroke-opacity:1;visibility:visible"/><path d="m368.916 407.83.371-.1.201-.109v-.115l-.2-.103-.366-.08-.51-.05-.589-.016-.601.023-.558.058-.444.085-.29.105-.102.114.098.108.288.093.445.067.556.033.605-.003.584-.038.512-.072M262.562 421.396l.359-.089.199-.105.023-.104-.156-.098-.32-.074-.45-.05-.527-.016-.55.022-.514.05-.42.082-.283.1-.116.105.067.101.243.087.389.063.496.032h.55l.538-.039.472-.067" style="fill:none;stroke:red;stroke-width:.666665;stroke-linecap:round;stroke-linejoin:round;stroke-miterlimit:500;stroke-dasharray:none;stroke-opacity:1;visibility:visible"/><path d="m248.92 421.376 13.926-3.545 10.829-1.396M276.7 416.044l33.64-4.337M236.626 418.527l6.334-1.54 9.586 1.99-6.333 1.539" style="fill:none;stroke:red;stroke-width:.999997;stroke-linecap:round;stroke-linejoin:round;stroke-miterlimit:500;stroke-dasharray:none;stroke-opacity:1;visibility:visible"/><path d="m352.563 409.247-.172.017-.488.092-.341.115-.159.124.03.12.224.11.393.085.528.058.617.024.65-.012.63-.05.545-.08M276.68 419.74l.462-.117.288-.129.08-.134-.13-.129-.327-.11-.5-.079-.624-.049M274.18 419.06l-.304.03-.539.105-.379.125-.181.135.022.132.234.12.414.096.568.065.67.026.708-.012.685-.055.601-.087" style="fill:none;stroke:red;stroke-width:.666665;stroke-linecap:round;stroke-linejoin:round;stroke-miterlimit:500;stroke-dasharray:none;stroke-opacity:1;visibility:visible"/><path d="m355.02 409.851.42-.101.25-.12.068-.123-.128-.117-.31-.1-.469-.076-.579-.039M316.686 414.74l.464-.117.285-.131.082-.132-.13-.129-.327-.111-.5-.08-.625-.048M314.186 414.058l-.303.032-.541.105-.377.125-.185.134.026.132.232.121.415.096.569.065.67.026.705-.015.688-.052.6-.087" style="fill:none;stroke:red;stroke-width:.666665;stroke-linecap:round;stroke-linejoin:round;stroke-miterlimit:500;stroke-dasharray:none;stroke-opacity:1;visibility:visible"/><path d="m257.07 423.272-2.648 14.411" style="fill:none;stroke:red;stroke-width:1.99999;stroke-linecap:round;stroke-linejoin:round;stroke-miterlimit:500;stroke-dasharray:none;stroke-opacity:1;visibility:visible"/><path d="m246.973 421.396-.318-1.909M246.973 421.396l-.318-1.91M246.973 421.396l-3.82-2.633M246.973 421.396l-3.82-2.632M364.478 404.713 377.2 408M262.562 421.396l-2.673 1.535" style="fill:none;stroke:red;stroke-width:.999997;stroke-linecap:round;stroke-linejoin:round;stroke-miterlimit:500;stroke-dasharray:none;stroke-opacity:1;visibility:visible"/><path d="m277.17 396.891-4.245-.781M272.925 396.11l4.245.781" style="fill:none;stroke:red;stroke-width:1.99999;stroke-linecap:round;stroke-linejoin:round;stroke-miterlimit:500;stroke-dasharray:none;stroke-opacity:1;visibility:visible"/><path d="m317.615 410.908-4.312-6.428" style="fill:none;stroke:red;stroke-width:.999997;stroke-linecap:round;stroke-linejoin:round;stroke-miterlimit:500;stroke-dasharray:none;stroke-opacity:1;visibility:visible"/><path d="m355.194 405.952-3.712.49M351.482 406.442l3.712-.49" style="fill:none;stroke:red;stroke-width:1.99999;stroke-linecap:round;stroke-linejoin:round;stroke-miterlimit:500;stroke-dasharray:none;stroke-opacity:1;visibility:visible"/><path d="m317.615 410.908-3.965.372M247.29 421.346l12.203-4.171M247.29 421.346l13.133-10.834M262.562 421.396l1.861-10.681M277.037 409.104l-4.003.512M273.034 409.616l4.003-.512M257.814 423.251l5.033-7.001" style="fill:none;stroke:red;stroke-width:.999997;stroke-linecap:round;stroke-linejoin:round;stroke-miterlimit:500;stroke-dasharray:none;stroke-opacity:1;visibility:visible"/><path d="m166.063 403.874-4.311-1.108M168.857 392.874l-7.105 9.892" style="fill:none;stroke:red;stroke-width:.666665;stroke-linecap:round;stroke-linejoin:round;stroke-miterlimit:500;stroke-dasharray:none;stroke-opacity:1;visibility:visible"/><path d="m262.562 421.396-5.429 15.608" style="fill:none;stroke:red;stroke-width:1.99999;stroke-linecap:round;stroke-linejoin:round;stroke-miterlimit:500;stroke-dasharray:none;stroke-opacity:1;visibility:visible"/><path d="m364.478 404.713 4.438 3.117M257.654 423.112l4.908-1.716M259.889 422.931l2.673-1.535" style="fill:none;stroke:red;stroke-width:.666665;stroke-linecap:round;stroke-linejoin:round;stroke-miterlimit:500;stroke-dasharray:none;stroke-opacity:1;visibility:visible"/><path d="m246.973 421.396 1.947-.02M276.7 416.044l-3.025.391M273.675 416.435l3.025-.391M246.973 421.396l-10.347-2.869M246.973 421.396l-.76-.88" style="fill:none;stroke:red;stroke-width:.999997;stroke-linecap:round;stroke-linejoin:round;stroke-miterlimit:500;stroke-dasharray:none;stroke-opacity:1;visibility:visible"/><path d="m355.194 405.952-2.631 3.295M276.7 416.044l-2.52 3.016M310.342 411.707l3.844 2.351" style="fill:none;stroke:red;stroke-width:.666665;stroke-linecap:round;stroke-linejoin:round;stroke-miterlimit:500;stroke-dasharray:none;stroke-opacity:1;visibility:visible"/><path d="m257.542 232.786-1.655 144.524" style="fill:none;stroke:#00ff4a;stroke-width:.999997;stroke-linecap:round;stroke-linejoin:round;stroke-miterlimit:500;stroke-dasharray:none;stroke-opacity:1;visibility:visible"/><path d="m256.207 377.335 125.83-11.128" style="fill:none;stroke:#00ff4a;stroke-width:1.99999;stroke-linecap:round;stroke-linejoin:round;stroke-miterlimit:500;stroke-dasharray:none;stroke-opacity:1;visibility:visible"/><path d="m372.54 225.872.46-.084.442-.203.396-.313.326-.403.24-.475.146-.518.037-.536-.07-.523-.174-.484-.269-.416-.35-.327-.41-.222-.45-.102-.466.022-.456.144-.423.26-.361.36-.288.442-.194.5-.09.532.016.534.122.506.224.452.312.375.382.276.434.161.464.042M384.632 212.97l-126.466 3.588M263.886 229.236l.48-.088.461-.208.41-.32.336-.412.25-.486.147-.53.032-.545-.079-.535-.185-.494-.285-.425-.368-.335-.43-.225-.472-.105-.485.024-.475.146-.437.267-.375.368-.297.453-.197.51-.092.544.021.544.136.518.235.462.332.38.398.285.456.164.483.043M262.217 368.745l.478-.1.455-.213.404-.325.333-.413.248-.479.143-.524.036-.537-.079-.521-.182-.478-.283-.405-.364-.321-.427-.206-.466-.091-.483.034-.468.159-.432.272-.373.37-.291.45-.197.507-.09.533.022.533.132.503.233.445.327.364.397.267.45.149.477.027" style="fill:none;stroke:#00ff4a;stroke-width:.999997;stroke-linecap:round;stroke-linejoin:round;stroke-miterlimit:500;stroke-dasharray:none;stroke-opacity:1;visibility:visible"/><path d="m255.874 213.17 17.727-.492M278.289 212.574l35.277-.98M318.4 211.44l32.33-.907M356.315 210.476l20.352-.567M255.633 377.226l.247.084-10.946-2.812 1.56-147.05v-3.683M385.278 212.585l-2.539 120.345-.43 20.34-.27 12.88M376.826 209.884l8.453 2.7" style="fill:none;stroke:#00ff4a;stroke-width:1.99999;stroke-linecap:round;stroke-linejoin:round;stroke-miterlimit:500;stroke-dasharray:none;stroke-opacity:1;visibility:visible"/><path d="m371.163 225.226.464-.084.44-.204.395-.312.326-.405.243-.475.143-.516.038-.538-.07-.523-.174-.484M263.253 228.958l.126-.056.407-.318.336-.415.253-.484.142-.53.038-.545-.08-.537-.188-.493-.284-.426-.366-.333M261.543 368.271l.191-.09.403-.323.333-.415.248-.48.143-.522.036-.538-.079-.52-.184-.477-.283-.408" style="fill:none;stroke:#00ff4a;stroke-width:.999997;stroke-linecap:round;stroke-linejoin:round;stroke-miterlimit:500;stroke-dasharray:none;stroke-opacity:1;visibility:visible"/><path d="M275.18 214.236c.25.06.51.092.77.084.257 0 .513-.036.759-.11M276.709 214.212a1.03 1.03 0 0 0 .348-.182M275.086 204.808l2.045 9.025M276.463 203.528a2.7 2.7 0 0 0-.768-.091 2.743 2.743 0 0 0-.76.11M274.935 203.549a.901.901 0 0 0-.342.177M277.482 213.624a.208.208 0 0 0 .083-.175M274.289 213.49c0 .07.033.132.09.18M277.494 213.617l-.43.403M274.369 213.657l.453.395M277.057 214.03c0-.002.002-.005.006-.01M274.822 214.052l.005.008" style="fill:none;stroke:#00ff4a;stroke-width:.666665;stroke-linecap:round;stroke-linejoin:round;stroke-miterlimit:2;stroke-dasharray:none;stroke-opacity:1;visibility:visible"/><path d="M274.827 214.06a1.047 1.047 0 0 0 .354.176M354.972 202.217l.208 9.185M351.692 202.261l.21 9.184M354.44 201.658l.45.398M352.2 201.689l-.437.407M354.886 202.393a.213.213 0 0 0 .086-.176.228.228 0 0 0-.082-.161M351.764 202.096c-.049.044-.08.104-.073.164-.005.069.035.129.092.174M351.783 202.434a1.23 1.23 0 0 0 .495.239M352.278 202.673a4.056 4.056 0 0 0 2.128-.025M354.406 202.648c.184-.051.346-.139.48-.255M354.431 201.653a.921.921 0 0 0-.351-.17M354.08 201.482a2.79 2.79 0 0 0-.774-.092 2.733 2.733 0 0 0-.756.112M352.55 201.502a.917.917 0 0 0-.344.178M355.096 211.58a.23.23 0 0 0 .084-.178M351.902 211.445a.24.24 0 0 0 .09.179M355.108 211.57l-.432.406M351.983 211.612l.453.394M354.67 211.985c0-.005.004-.007.006-.01M352.436 212.006l.004.008M352.44 212.014a1.05 1.05 0 0 0 .355.176M352.795 212.189a2.9 2.9 0 0 0 .77.087c.256-.003.515-.038.757-.11M354.323 212.166a.977.977 0 0 0 .347-.181M352.7 202.761l2.046 9.027M317.533 203.43l.206 9.186M314.253 203.473l.21 9.184M316.998 202.872l.45.394M314.76 202.901l-.438.407M317.446 203.605a.207.207 0 0 0 .084-.175c0-.064-.03-.116-.08-.164M314.323 203.309a.207.207 0 0 0-.072.165.228.228 0 0 0 .092.176M314.343 203.648a1.257 1.257 0 0 0 .495.238M314.838 203.886c.345.092.702.134 1.064.128a4.047 4.047 0 0 0 1.064-.153M316.966 203.861a1.233 1.233 0 0 0 .48-.256M316.99 202.866a.919.919 0 0 0-.35-.172M316.64 202.696a2.787 2.787 0 0 0-.774-.091c-.255 0-.515.041-.755.11M315.111 202.714a.881.881 0 0 0-.344.179M317.655 212.792c.056-.05.09-.112.085-.176M314.463 212.657c0 .07.032.13.09.179M317.667 212.784l-.43.405M314.543 212.824l.454.396M317.23 213.197c0-.003.004-.004.007-.008M314.997 213.22c.002 0 .002.002.003.006M315 213.226a1.056 1.056 0 0 0 .355.175M315.354 213.4a3.04 3.04 0 0 0 .77.09c.259-.004.518-.04.761-.112M316.883 213.378a.95.95 0 0 0 .347-.181M315.26 203.973l2.045 9.028M277.36 204.264l.204 9.185M274.078 204.305l.21 9.185M276.823 203.705l.452.395M274.586 203.736l-.436.406M277.271 204.438a.213.213 0 0 0 .087-.174.23.23 0 0 0-.083-.164M274.149 204.142a.203.203 0 0 0-.072.163c-.004.07.036.13.093.175M274.17 204.48a1.25 1.25 0 0 0 .495.24M274.665 204.72a4.023 4.023 0 0 0 2.125-.027M276.79 204.693c.187-.05.35-.139.481-.255M276.815 203.698a.9.9 0 0 0-.353-.17" style="fill:none;stroke:#00ff4a;stroke-width:.666665;stroke-linecap:round;stroke-linejoin:round;stroke-miterlimit:2;stroke-dasharray:none;stroke-opacity:1;visibility:visible"/><path d="M249.562 226.68v4.404l-1.755 140.518 3.8.933 1.133.287 1.766-141.396v-2.413M252.474 281.374v-.888" style="fill:none;stroke:#00ff4a;stroke-width:.999997;stroke-linecap:round;stroke-linejoin:round;stroke-miterlimit:4;stroke-dasharray:none;stroke-opacity:1;visibility:visible"/><path d="M250.474 278.707a1.021 1.021 0 0 0 .112-.666M251.697 276.82h.666M250.92 274.374c.026.28.262.304.553.223M252.14 272.374c.023-.333.06-.67.114-1M250.586 270.263a3.002 3.002 0 0 0 0-.666M251.363 268.263c.255.084.514.16.778.223M251.03 264.93c.008.264.179.43.444.444M251.697 262.374c.433.039.686-.217.777-.667M250.697 261.153a.476.476 0 0 0 .333-.446M251.14 256.374c.254.426.65.688 1.114.446M251.03 253.04c-.05.345.197.406.556.335M251.92 249.264c-.099.498.066.796.553.776M251.474 246.04c.056.37-.008 1.077-.444 1.447M252.03 244.04c.12.44.444.707.89.669M250.807 241.486a2.413 2.413 0 0 0 1-.112M252.14 237.93c-.082.424-.085.928.335 1.11M250.92 234.153c.117.455-.086.847-.114 1.333M252.253 232.93c.157.42.477.71.887.778M251.474 228.374c-.097.2-.099.552-.096.764a1.067 1.067 0 0 0 .763.236M250.03 317.097c.244.43.243.972.584 1.333M251.28 315.513c-.03.424-.107 1.116.332 1.25M250.53 313.763a.856.856 0 0 1-.333.834M251.197 312.097c.042.34.256.563.583.582M250.113 310.43c-.027.092 0 .155.077.19.2-.143.367-.367.423-.608M251.197 308.68c.025.357.305.493.666.416M250.03 306.93c.344.185.572.057.667-.333M251.53 304.68c-.017.28.135.457.417.5M250.446 301.597c-.19.358-.059.743.25 1M251.113 299.263c.267.038.46-.083.584-.333M250.113 297.013c.144-.143.309-.25.5-.334M251.28 294.346c.15.17.352.224.582.167M250.03 292.43a.91.91 0 0 1 .417.25M251.113 290.263c.1.263.353.377.666.334M250.197 287.763c.088.268.301.387.583.334M250.697 284.513c-.223.197-.323.517-.334.833M252.113 285.013c.122.207.294.38.5.5M251.28 280.93c-.264.144-.33.413-.227.72a.42.42 0 0 0 .311.029M250.03 328.513c.07.412.247.93.584 1.084M251.946 322.013c-.281.374-.404 1.014-.084 1.333M250.613 320.763c-.273.307-.503 1.074-.167 1.417M250.946 325.763c-.392.162-.295.8-.167 1.083M250.197 337.097a.553.553 0 0 0 .5.333M251.946 331.513c-.137.493-.25 1.002-.084 1.5M250.113 333.013c-.248.226-.246.512 0 .75M251.363 340.346c-.153.373-.177.817.251.917M249.78 343.763c-.238.411.126.682.582.583M250.363 370.513c-.063-.573.437-.943.834-.416M249.53 367.346c-.195-.41.07-.763.417-1M250.863 359.763c-.081.494-.317 1.475.167 1.75M249.363 362.013c-.249.309-.25.713 0 1M250.946 353.763c.001.414-.112.887.167 1.167M249.863 356.263c-.402.144-.552.93.084.834M250.613 349.097c-.524.13-.896 1.545-.584 1.833" style="fill:none;stroke:#00ff4a;stroke-width:.999997;stroke-linecap:round;stroke-linejoin:round;stroke-miterlimit:4;stroke-dasharray:none;stroke-opacity:1;visibility:visible"/><path d="m250.806 235.486 6.736-2.7M252.141 229.374l6.025-12.816" style="fill:none;stroke:#00ff4a;stroke-width:.999997;stroke-linecap:round;stroke-linejoin:round;stroke-miterlimit:500;stroke-dasharray:none;stroke-opacity:1;visibility:visible"/><path d="m252.141 229.374 3.733-16.204M278.289 212.574l-4.688.104M273.601 212.678l4.688-.104M314.997 213.22l-1.431-1.626M313.566 211.594l4.834-.154M356.315 210.476l-5.585.057M350.73 210.533l5.585-.057M250.806 235.486l-4.312-11.721" style="fill:none;stroke:#00ff4a;stroke-width:1.99999;stroke-linecap:round;stroke-linejoin:round;stroke-miterlimit:500;stroke-dasharray:none;stroke-opacity:1;visibility:visible"/><path d="m274.379 213.67-10.742 11.151M251.197 370.097l11.154-5.599" style="fill:none;stroke:#00ff4a;stroke-width:.999997;stroke-linecap:round;stroke-linejoin:round;stroke-miterlimit:500;stroke-dasharray:none;stroke-opacity:1;visibility:visible"/><path d="m250.806 235.486-1.244-8.806M250.806 235.486l3.7-6.473M251.03 264.93l1.444 16.444M250.363 285.346l2.111-4.86M251.474 265.374l.223 11.446M250.697 261.153l.776 13.444M252.474 280.486l-.334-8.112M250.586 270.263l1.668 1.111M252.254 271.374l-1.668-1.111M252.474 281.374l-1.444-16.444M251.697 262.374l-.223 3M251.474 265.374l.223-3M251.473 274.597l-.776-13.444M252.14 272.374l-1.11-11.667M250.586 270.263l.444-17.223M253.14 233.708l-2.333 7.778M250.697 261.153l1.11-19.779M257.542 232.786l-6.736 2.7M250.807 241.486l2.333-7.778M258.166 216.558l-6.025 12.816M251.113 299.263l.667 13.416M250.363 285.346l1.167 19.334M251.113 299.263l.834 5.917M251.947 305.18l-.834-5.917M250.697 284.513l-.584 12.5M250.447 292.68l.833 1.666M251.28 294.346l-.833-1.666M250.113 297.013l.584-12.5M252.474 280.486l-2.111 4.86M250.197 337.097l.582-10.251M250.779 326.846l-.582 10.251M262.351 364.498l-11.154 5.599M262.217 368.745l-12.27-11.648" style="fill:none;stroke:#00ff4a;stroke-width:.999997;stroke-linecap:round;stroke-linejoin:round;stroke-miterlimit:4;stroke-dasharray:none;stroke-opacity:1;visibility:visible"/><path d="m166.063 403.874 4.883-4.032M166.063 403.874l8.637-9.878" style="fill:none;stroke:red;stroke-width:.999997;stroke-linecap:round;stroke-linejoin:round;stroke-miterlimit:500;stroke-dasharray:none;stroke-opacity:1;visibility:visible"/><path d="m252.474 281.374-1.888-3.333M252.141 229.374l-.221 19.89M250.806 235.486l.668 10.554M250.806 235.486l1.224 8.554M252.141 229.374l-.001 8.556M250.806 235.486l1.447-2.556M252.141 229.374l-.667-1M250.113 297.013l1.167 18.5M251.947 305.18l-1.417 8.583M251.947 305.18l-.75 3.5M250.363 285.346l.083 16.251M251.28 294.346l.833-9.333M250.586 270.263l2.027 15.25M250.197 337.097l.749 16.666M249.947 357.097l1.166-2.167M249.947 357.097l.082-6.167" style="fill:none;stroke:#00ff4a;stroke-width:.999997;stroke-linecap:round;stroke-linejoin:round;stroke-miterlimit:4;stroke-dasharray:none;stroke-opacity:1;visibility:visible"/></svg>