<svg xmlns="http://www.w3.org/2000/svg" baseProfile="full" height="1122.52" preserveAspectRatio="xMinYMin meet" style="width:792px;height:931px" width="793.701" xml:space="preserve"><path d="m341.58 885.549-94.146 19.894" style="fill:none;stroke:red;stroke-width:1.99999;stroke-linecap:round;stroke-linejoin:round;stroke-miterlimit:500;stroke-dasharray:none;stroke-opacity:1;visibility:visible" visibility="hidden"/><path d="m432.62 780.298.406-.084.382-.193.342-.281.28-.356.209-.415.119-.447.031-.454-.067-.446-.155-.404-.237-.342-.307-.271-.36-.168-.393-.073-.404.036-.396.14-.366.234-.313.326-.245.385-.164.433-.08.458.02.453.113.43.195.371.274.31.336.22.379.125.401.013M431.23 896.747l.4-.097.378-.196.336-.284.279-.357.21-.411.114-.442.033-.447-.064-.433-.154-.393-.236-.33-.303-.248-.356-.162-.388-.057-.404.047-.39.145-.359.245-.316.323-.24.385-.167.43-.073.445.017.445.112.418.195.36.269.295.333.203.376.109.398.007M521.025 884.925l.382-.096.368-.195.325-.277.272-.347.196-.403.119-.432.033-.44-.059-.422-.144-.384-.224-.326-.29-.246-.338-.16-.372-.057M521.292 881.14l-.385.043-.375.149-.35.233-.297.315-.237.379-.161.419-.078.437.016.44.103.403.183.361M519.712 884.32l.256.284.317.205.36.105.379.01M523.268 773.654l.387-.084.364-.185.333-.277.27-.348.204-.407.119-.437.032-.448-.06-.435-.142-.395-.227-.338-.292-.26-.343-.17-.373-.072-.39.038-.381.134-.349.234-.307.309-.238.384-.162.423-.073.446.012.444.101.416.19.37.257.304.32.214.36.119.388.021M532.22 763.373l-108.553 7.681M423.752 903.391l107.085-13.584M424.278 771.862l-1.508 130.764M422.603 902.982l-74.363-15.428" style="fill:none;stroke:red;stroke-width:.999997;stroke-linecap:round;stroke-linejoin:round;stroke-miterlimit:500;stroke-dasharray:none;stroke-opacity:1;visibility:visible" visibility="hidden"/><path d="m533.896 762.117-2.12 100.493-.356 16.981-.225 10.754M526.843 760.16l7.053 1.958" style="fill:none;stroke:red;stroke-width:1.99999;stroke-linecap:round;stroke-linejoin:round;stroke-miterlimit:500;stroke-dasharray:none;stroke-opacity:1;visibility:visible" visibility="hidden"/><path d="m414.756 769.222-1.416 130.835" style="fill:none;stroke:red;stroke-width:.999997;stroke-linecap:round;stroke-linejoin:round;stroke-miterlimit:500;stroke-dasharray:none;stroke-opacity:1;visibility:visible" visibility="hidden"/><path d="m420.902 916.077 2.528.497 99.779-12.59 2.644-.236 5.099-.662M531.075 890.26l-.123 12.826M418.235 767.738l22.49-1.578M444.639 765.894l29.43-2.064M478.103 763.526l26.97-1.901M509.73 761.382l16.98-1.194" style="fill:none;stroke:red;stroke-width:1.99999;stroke-linecap:round;stroke-linejoin:round;stroke-miterlimit:500;stroke-dasharray:none;stroke-opacity:1;visibility:visible" visibility="hidden"/><path d="m423.223 903.727.003 11.57" style="fill:none;stroke:red;stroke-width:.999997;stroke-linecap:round;stroke-linejoin:round;stroke-miterlimit:500;stroke-dasharray:none;stroke-opacity:1;visibility:visible" visibility="hidden"/><path d="m391.843 907.88-43.557-9.32" style="fill:none;stroke:red;stroke-width:1.99999;stroke-linecap:round;stroke-linejoin:round;stroke-miterlimit:500;stroke-dasharray:none;stroke-opacity:1;visibility:visible" visibility="hidden"/><path d="m252.624 906.48 95.119-19.248M252.623 906.482l-5.209-1.142M347.916 888.085l.342 9.628" style="fill:none;stroke:red;stroke-width:.999997;stroke-linecap:round;stroke-linejoin:round;stroke-miterlimit:500;stroke-dasharray:none;stroke-opacity:1;visibility:visible" visibility="hidden"/><path d="m346.955 898.8-93.965 16.438" style="fill:none;stroke:red;stroke-width:1.99999;stroke-linecap:round;stroke-linejoin:round;stroke-miterlimit:500;stroke-dasharray:none;stroke-opacity:1;visibility:visible" visibility="hidden"/><path d="m252.99 915.237-.367-8.754" style="fill:none;stroke:red;stroke-width:.999997;stroke-linecap:round;stroke-linejoin:round;stroke-miterlimit:500;stroke-dasharray:none;stroke-opacity:1;visibility:visible" visibility="hidden"/><path d="m348.286 898.558-1.33.242M252.99 915.237l-5.21-1.164M247.78 914.073l-.365-8.733" style="fill:none;stroke:red;stroke-width:1.99999;stroke-linecap:round;stroke-linejoin:round;stroke-miterlimit:500;stroke-dasharray:none;stroke-opacity:1;visibility:visible" visibility="hidden"/><path d="m343.588 884.767-.236.023-.344.06-.234.075-.107.08.039.075.177.07.295.045.385.025.435-.006.43-.027.382-.05" style="fill:none;stroke:red;stroke-width:.666665;stroke-linecap:round;stroke-linejoin:round;stroke-miterlimit:500;stroke-dasharray:none;stroke-opacity:1;visibility:visible" visibility="hidden"/><path d="m334.474 924.843 5.734 1.252M422.446 903.38l-82.238 22.716" style="fill:none;stroke:red;stroke-width:.999997;stroke-linecap:round;stroke-linejoin:round;stroke-miterlimit:500;stroke-dasharray:none;stroke-opacity:1;visibility:visible" visibility="hidden"/><path d="m413.362 901.92-78.887 22.924" style="fill:none;stroke:red;stroke-width:1.99999;stroke-linecap:round;stroke-linejoin:round;stroke-miterlimit:500;stroke-dasharray:none;stroke-opacity:1;visibility:visible" visibility="hidden"/><path d="m340.208 926.095-.04 9.125" style="fill:none;stroke:red;stroke-width:.999997;stroke-linecap:round;stroke-linejoin:round;stroke-miterlimit:500;stroke-dasharray:none;stroke-opacity:1;visibility:visible" visibility="hidden"/><path d="m340.167 935.22-5.361-1.203M334.807 934.018l-.332-9.175M422.002 915.195l-81.835 20.025" style="fill:none;stroke:red;stroke-width:1.99999;stroke-linecap:round;stroke-linejoin:round;stroke-miterlimit:500;stroke-dasharray:none;stroke-opacity:1;visibility:visible" visibility="hidden"/><path d="m522.121 773.165.384-.09.37-.185.33-.274.275-.35.196-.404.12-.437.035-.45-.061-.435-.145-.394M432.094 780.094l.105-.053.341-.279.282-.361.208-.411.12-.447.03-.459-.066-.442-.156-.406-.235-.34-.31-.271M520.245 884.113l.28-.15.248-.212.207-.266.15-.307.09-.33.025-.33-.044-.328-.108-.292-.169-.248M430.667 896.378l.16-.084.336-.284.279-.357.205-.41.12-.441.032-.448-.069-.43-.15-.398-.24-.326" style="fill:none;stroke:red;stroke-width:.999997;stroke-linecap:round;stroke-linejoin:round;stroke-miterlimit:500;stroke-dasharray:none;stroke-opacity:1;visibility:visible" visibility="hidden"/><path d="M476.632 756.293a2.29 2.29 0 0 0-.641-.048 2.285 2.285 0 0 0-.632.119M475.359 756.364a.797.797 0 0 0-.289.16M477.48 764.68c.047-.042.075-.094.07-.147M474.816 764.68a.195.195 0 0 0 .075.148M477.492 764.674l-.36.352M474.884 764.82l.377.313M477.125 765.037c0-.004.003-.007.007-.01M475.261 765.133l.004.004M475.265 765.137a.843.843 0 0 0 .295.137M475.559 765.273a2.576 2.576 0 0 0 1.276-.075M476.836 765.2a.844.844 0 0 0 .29-.163M475.481 757.409l1.707 7.461M443.862 758.992l.174 7.656M441.123 759.142l.179 7.658M443.416 758.544l.376.314M441.548 758.652l-.365.353M443.788 759.14a.19.19 0 0 0 .075-.146.179.179 0 0 0-.07-.134M441.183 759.004a.196.196 0 0 0-.06.138c0 .059.032.11.08.142M441.202 759.284a1.003 1.003 0 0 0 .41.184M441.612 759.468c.29.065.59.088.888.072.304-.02.607-.078.888-.17M443.388 759.37a1.045 1.045 0 0 0 .4-.23M443.408 758.54a.696.696 0 0 0-.292-.132M443.116 758.409a2.41 2.41 0 0 0-1.274.071M441.842 758.48a.761.761 0 0 0-.287.16M443.966 766.797c.044-.044.074-.095.072-.148M441.302 766.8a.19.19 0 0 0 .076.142M443.975 766.79l-.361.35M441.368 766.934l.379.31M443.608 767.152c0-.003.004-.004.007-.012M441.748 767.246l.004.007M441.752 767.253a.807.807 0 0 0 .295.136M442.046 767.388c.204.042.42.06.642.042.21-.01.428-.05.63-.117M443.319 767.314a.89.89 0 0 0 .29-.162M441.966 759.526l1.706 7.459M475.132 757.35c.288.066.584.088.884.068.304-.013.605-.07.888-.161M476.904 757.257a1.093 1.093 0 0 0 .403-.23" style="fill:none;stroke:red;stroke-width:.666665;stroke-linecap:round;stroke-linejoin:round;stroke-miterlimit:2;stroke-dasharray:none;stroke-opacity:1;visibility:visible" visibility="hidden"/><path d="M476.925 756.426a.736.736 0 0 0-.294-.133M506.364 755.014c.288.064.587.09.887.072a3.45 3.45 0 0 0 .889-.166M508.14 754.92a1.067 1.067 0 0 0 .4-.23M508.16 754.09a.73.73 0 0 0-.292-.132M507.868 753.958a2.476 2.476 0 0 0-.645-.05 2.37 2.37 0 0 0-.63.12M506.593 754.028a.863.863 0 0 0-.289.162M508.716 762.345a.197.197 0 0 0 .07-.15M506.052 762.346a.199.199 0 0 0 .075.147M508.727 762.338l-.362.354M506.117 762.482l.38.312M508.359 762.704c0-.007.004-.01.006-.012M506.497 762.796c.003 0 .003.004.004.006M506.501 762.8a.876.876 0 0 0 .295.138M506.796 762.937a2.453 2.453 0 0 0 1.272-.077M508.068 762.862a.881.881 0 0 0 .292-.158M506.716 755.073l1.708 7.46M477.377 756.877l.174 7.655M474.639 757.028l.177 7.652M476.932 756.432l.378.31M475.063 756.53l-.363.36M477.305 757.026a.191.191 0 0 0 .072-.148.195.195 0 0 0-.067-.136M474.701 756.888a.175.175 0 0 0 .016.28M474.719 757.169a1.003 1.003 0 0 0 .414.181M508.612 754.54l.173 7.655M505.876 754.692l.175 7.654M508.167 754.094l.376.31M506.299 754.197l-.362.357M508.539 754.69a.19.19 0 0 0 .073-.148.192.192 0 0 0-.07-.136M505.936 754.553a.17.17 0 0 0-.06.139.17.17 0 0 0 .077.142" style="fill:none;stroke:red;stroke-width:.666665;stroke-linecap:round;stroke-linejoin:round;stroke-miterlimit:2;stroke-dasharray:none;stroke-opacity:1;visibility:visible" visibility="hidden"/><path d="M505.953 754.834a.964.964 0 0 0 .412.18" style="fill:none;stroke:red;stroke-width:.666665;stroke-linecap:round;stroke-linejoin:round;stroke-miterlimit:2;stroke-dasharray:none;stroke-opacity:1;visibility:visible" visibility="hidden"/><path d="m339.44 884.88 1.726.35" style="fill:none;stroke:red;stroke-width:.999997;stroke-linecap:round;stroke-linejoin:round;stroke-miterlimit:500;stroke-dasharray:none;stroke-opacity:1;visibility:visible" visibility="hidden"/><path d="m339.436 884.88.706-133.75" style="fill:none;stroke:red;stroke-width:1.99999;stroke-linecap:round;stroke-linejoin:round;stroke-miterlimit:500;stroke-dasharray:none;stroke-opacity:1;visibility:visible" visibility="hidden"/><path d="m351.078 752.67 57.35 13.194M405.178 896.258l-52.81-10.79" style="fill:none;stroke:red;stroke-width:.999997;stroke-linecap:round;stroke-linejoin:round;stroke-miterlimit:500;stroke-dasharray:none;stroke-opacity:1;visibility:visible" visibility="hidden"/><path d="m354.711 750.222 52.615 12.028M412.782 763.529l1.07.244M418.515 764.632l10.361 2.38" style="fill:none;stroke:red;stroke-width:1.99999;stroke-linecap:round;stroke-linejoin:round;stroke-miterlimit:500;stroke-dasharray:none;stroke-opacity:1;visibility:visible" visibility="hidden"/><path d="m365.571 775.552 6.607 1.612M429.087 767.348l-14.232 1.038" style="fill:none;stroke:red;stroke-width:.999997;stroke-linecap:round;stroke-linejoin:round;stroke-miterlimit:500;stroke-dasharray:none;stroke-opacity:1;visibility:visible" visibility="hidden"/><path d="m399.446 888.042-10.654-1.765" style="fill:none;stroke:red;stroke-width:1.99999;stroke-linecap:round;stroke-linejoin:round;stroke-miterlimit:500;stroke-dasharray:none;stroke-opacity:1;visibility:visible" visibility="hidden"/><path d="m400.74 774.284-.496 47.646M399.98 836.067l-.498 51.646M388.738 886.277l.485-51.458M388.895 819.669l.48-48.42M388.759 882.85l-.008-.27" style="fill:none;stroke:red;stroke-width:.999997;stroke-linecap:round;stroke-linejoin:round;stroke-miterlimit:500;stroke-dasharray:none;stroke-opacity:1;visibility:visible" visibility="hidden"/><path d="m381.916 885.286-10.734-1.786" style="fill:none;stroke:red;stroke-width:1.99999;stroke-linecap:round;stroke-linejoin:round;stroke-miterlimit:500;stroke-dasharray:none;stroke-opacity:1;visibility:visible" visibility="hidden"/><path d="m364.555 880.76-.008-.265M382.908 769.664l-.174 17.582M382.65 802.395l-.423 50.296M382.191 866.16l-.141 19.127M370.892 883.5l.12-19.542M371.3 850.36l.377-50.739M372.122 785.849l.15-18.429" style="fill:none;stroke:red;stroke-width:.999997;stroke-linecap:round;stroke-linejoin:round;stroke-miterlimit:500;stroke-dasharray:none;stroke-opacity:1;visibility:visible" visibility="hidden"/><path d="m363.546 881.774-10.498-1.745" style="fill:none;stroke:red;stroke-width:1.99999;stroke-linecap:round;stroke-linejoin:round;stroke-miterlimit:500;stroke-dasharray:none;stroke-opacity:1;visibility:visible" visibility="hidden"/><path d="m352.928 878.138.312-49.818M353.186 814.058l.336-51.244" style="fill:none;stroke:red;stroke-width:.999997;stroke-linecap:round;stroke-linejoin:round;stroke-miterlimit:500;stroke-dasharray:none;stroke-opacity:1;visibility:visible" visibility="hidden"/><path d="m352.92 879.813.01-.823" style="fill:none;stroke:red;stroke-width:1.99999;stroke-linecap:round;stroke-linejoin:round;stroke-miterlimit:500;stroke-dasharray:none;stroke-opacity:1;visibility:visible" visibility="hidden"/><path d="m365.148 765.508-.11 50.589M364.911 830.269l-.363 50.224" style="fill:none;stroke:red;stroke-width:.999997;stroke-linecap:round;stroke-linejoin:round;stroke-miterlimit:500;stroke-dasharray:none;stroke-opacity:1;visibility:visible" visibility="hidden"/><path d="m367.222 881.52-3.678.272" style="fill:none;stroke:red;stroke-width:1.99999;stroke-linecap:round;stroke-linejoin:round;stroke-miterlimit:500;stroke-dasharray:none;stroke-opacity:1;visibility:visible" visibility="hidden"/><path d="m414.51 766.804-2.79-.65M408.608 766.424l-.444.028M407.739 767.094l16.707 4.154M353.5 782.357l-4.884-.984M406.724 792.731l-5.708-1.149M348.62 793.934l4.447.937M365.612 797.251l22.826 4.81M400.628 804.553l5.92 1.245M365.455 784.648l23.623 4.76M348.695 826.94l22.57 3.996M383.196 833.051l17.024 3.016M400.22 836.067l4.711.834M404.828 823.158l-21.194-3.564M371.7 817.587l-23.085-3.877M348.488 859.253l3.992.66M365.152 862.625l23.528 4.6M399.924 868.967l6.419 1.194" style="fill:none;stroke:red;stroke-width:.999997;stroke-linecap:round;stroke-linejoin:round;stroke-miterlimit:500;stroke-dasharray:none;stroke-opacity:1;visibility:visible" visibility="hidden"/><path d="m406.652 892.387 6.424.723" style="fill:none;stroke:red;stroke-width:1.99999;stroke-linecap:round;stroke-linejoin:round;stroke-miterlimit:500;stroke-dasharray:none;stroke-opacity:1;visibility:visible" visibility="hidden"/><path d="m348.043 869.174 4.003.777M365.607 872.58l4.69.912M383.206 875.998l5.33 1.032M400.35 879.326l5.35 1.036" style="fill:none;stroke:red;stroke-width:.999997;stroke-linecap:round;stroke-linejoin:round;stroke-miterlimit:500;stroke-dasharray:none;stroke-opacity:1;visibility:visible" visibility="hidden"/><path d="m370.874 882.129-6.307-1.049" style="fill:none;stroke:red;stroke-width:1.99999;stroke-linecap:round;stroke-linejoin:round;stroke-miterlimit:500;stroke-dasharray:none;stroke-opacity:1;visibility:visible" visibility="hidden"/><path d="m343.44 877.462 4.53.438" style="fill:none;stroke:red;stroke-width:.999997;stroke-linecap:round;stroke-linejoin:round;stroke-miterlimit:500;stroke-dasharray:none;stroke-opacity:1;visibility:visible" visibility="hidden"/><path d="m348.923 761.646 23.987 5.664M372.272 767.158l34.806 8.218" style="fill:none;stroke:red;stroke-width:.666665;stroke-linecap:round;stroke-linejoin:round;stroke-miterlimit:500;stroke-dasharray:none;stroke-opacity:1;visibility:visible" visibility="hidden"/><path d="m352.803 772.34-4.187-1.022M372.178 777.204l-5.728-1.4M388.871 781.233l-5.856-1.428M407.284 785.302l-5.822-1.418" style="fill:none;stroke:red;stroke-width:.999997;stroke-linecap:round;stroke-linejoin:round;stroke-miterlimit:500;stroke-dasharray:none;stroke-opacity:1;visibility:visible" visibility="hidden"/><path d="m339.808 885.005 8.116.913" style="fill:none;stroke:red;stroke-width:1.99999;stroke-linecap:round;stroke-linejoin:round;stroke-miterlimit:500;stroke-dasharray:none;stroke-opacity:1;visibility:visible" visibility="hidden"/><path d="m347.448 760.449-.026-.31-.107-.309-.177-.284-.238-.244-.28-.185-.306-.113-.308-.036-.29.046-.253.127-.199.193-.129.247-.053.292.024.305.106.31.178.29.238.239.28.188.306.11.306.041.291-.051.253-.121.2-.195.13-.252.054-.288M347.966 877.982l-.04 8.01M348.176 877.243l.1-49.51.096-14.656.04-16.27-.041-1.104.104-11.427.143-16.228.065-7.348M348.73 753.788l-.06 9.926" style="fill:none;stroke:red;stroke-width:.999997;stroke-linecap:round;stroke-linejoin:round;stroke-miterlimit:500;stroke-dasharray:none;stroke-opacity:1;visibility:visible" visibility="hidden"/><path d="m347.924 885.99 4.443-.505" style="fill:none;stroke:red;stroke-width:1.99999;stroke-linecap:round;stroke-linejoin:round;stroke-miterlimit:500;stroke-dasharray:none;stroke-opacity:1;visibility:visible" visibility="hidden"/><path d="m348.446 846.717 4.181.626M365.083 849.787l23.292 4.126M399.856 855.73l6.258 1.076M352.411 753.318v7.727M352.37 880.123l-.003 5.363" style="fill:none;stroke:red;stroke-width:.999997;stroke-linecap:round;stroke-linejoin:round;stroke-miterlimit:500;stroke-dasharray:none;stroke-opacity:1;visibility:visible" visibility="hidden"/><path d="m399.19 798.713-8.922-1.418M362.698 791.462l-8.304-1.79M362.731 780.985l-7.981-1.588M399.736 777.514l-8.412-2.132M381.39 772.866l-7.94-2.016M363.715 769.25l-8.763-2.23M360.275 878.26l.139-47.439M359.81 813.787l.138-49.554M357.511 878.395l.137-47.574M357.1 813.107l.136-49.226" style="fill:none;stroke:red;stroke-width:.666665;stroke-linecap:round;stroke-linejoin:round;stroke-miterlimit:500;stroke-dasharray:none;stroke-opacity:1;visibility:visible" visibility="hidden"/><path d="m343.136 885.433.042-8.094M343.786 762.537l.052-9.465" style="fill:none;stroke:red;stroke-width:.999997;stroke-linecap:round;stroke-linejoin:round;stroke-miterlimit:500;stroke-dasharray:none;stroke-opacity:1;visibility:visible" visibility="hidden"/><path d="m363.032 810.602-7.917-1.367M362.348 801.529l-7.917-1.364M399.254 815.59l-8.922-1.417M398.83 807.835l-8.923-1.417M398.763 879.187l-8.508-1.584M398.639 869.283l-8.548-1.356M398.783 860.458l-8.548-1.357M398.374 851.451l-8.202-1.236M399.031 842.243l-8.839-1.688M383.184 855.18l-.168 8.83M371.664 852.91l-.166 8.832M348.536 854.742l3.624.644M366.596 858.185l21.128 3.725M400.991 863.967s1.999.34 4.776.819M348.462 851.331l3.51.626M366.283 854.698l20.957 3.695M401.186 860.553l4.546.78M380.451 878.307l-8.047-1.597M380.732 870.86l-8.046-1.597M380.506 844.262l-8.052-1.55M380.16 834.683l-8.052-1.553M380.374 826.02l-8.054-1.555M380.506 816.851l-8.052-1.551M380.8 807.327l-8.054-1.554M397.735 824.154l-.167 8.83M389.731 823.049l-.165 8.831M364.847 818.774l-.165 8.832M356.116 817.12l-.166 8.832M404.83 831.574l-19.778-3.324M369.555 825.647l-20.915-3.516M404.532 828.169l-19.464-3.275M369.658 822.303l-21.272-3.573M362.866 875.215l-8.548-1.361M362.72 865.425l-8.55-1.36M362.866 856.598l-8.548-1.36M362.452 847.593l-8.2-1.238M363.111 838.38l-8.837-1.688M395.783 884.34l.201-47.29M396.058 820.203l.206-47.18M392.699 883.606l.199-47.268M392.972 819.926l.206-47.361M377.895 881.563l.02-14.76M377.892 850.234l.063-49.392M378.528 785.68l.12-16.635M375.13 881.15l.022-15.587M375.196 849.827l.062-49.446M375.763 785.225l.112-16.548M348.411 789.06l4.369.86M366.447 792.322l21.257 4.196M402.03 799.347l4.992.986M348.611 786.188l4.373.864M367.171 789.552l39.981 7.895" style="fill:none;stroke:red;stroke-width:.666665;stroke-linecap:round;stroke-linejoin:round;stroke-miterlimit:500;stroke-dasharray:none;stroke-opacity:1;visibility:visible" visibility="hidden"/><path d="m346.63 880.343-.027-.308-.105-.31-.179-.285-.235-.245-.28-.185-.308-.113-.306-.037-.292.046-.252.124-.2.196-.13.25-.053.288.024.309.108.31.176.287.24.24.281.187.303.113.31.036.286-.046.256-.123.199-.194.132-.252.052-.288" style="fill:none;stroke:red;stroke-width:.999997;stroke-linecap:round;stroke-linejoin:round;stroke-miterlimit:500;stroke-dasharray:none;stroke-opacity:1;visibility:visible" visibility="hidden"/><path d="M409.26 759.428a3.556 3.556 0 0 0 1.767-.095M411.028 759.332c.152-.043.29-.12.402-.215M411.048 758.549a.747.747 0 0 0-.292-.123M410.756 758.428a2.61 2.61 0 0 0-1.27.066M409.486 758.494a.773.773 0 0 0-.284.15M411.603 766.345c.047-.039.072-.09.068-.139M408.946 766.348a.181.181 0 0 0 .077.137M411.612 766.34l-.358.333M409.012 766.476l.378.297M411.25 766.68l.005-.007M409.391 766.772l.005.006M409.396 766.778a.8.8 0 0 0 .294.124M409.69 766.902a2.54 2.54 0 0 0 1.27-.068M410.959 766.834a.956.956 0 0 0 .29-.154M409.611 759.48l1.7 7.04M410.078 892.63c.057-.04.085-.1.085-.16a.183.183 0 0 0-.079-.143M407.096 892.486a.188.188 0 0 0-.069.148c-.001.064.033.116.088.156M407.115 892.79a1.215 1.215 0 0 0 .473.199M407.588 892.989c.33.066.674.09 1.018.076a4.133 4.133 0 0 0 1.012-.185M409.619 892.88c.177-.05.333-.14.459-.25M407.848 891.914a.917.917 0 0 0-.328.176M413.968 901.098c.039-.035.066-.084.062-.13M413.648 901.398c0-.003.004-.003.006-.005M413.391 901.537a.795.795 0 0 0 .257-.14M417.524 759.345l.183 7.724M414.608 759.5l.187 7.723M417.048 758.894l.402.32M415.06 759.004l-.385.356M417.447 759.498a.196.196 0 0 0 .079-.153c-.003-.053-.032-.095-.076-.13M414.675 759.36c-.043.04-.07.092-.067.14 0 .06.035.11.084.143M414.692 759.64a1.144 1.144 0 0 0 .438.19M415.13 759.829c.308.063.628.084.944.071.322-.02.646-.08.945-.171M417.019 759.729a1.153 1.153 0 0 0 .428-.23M417.043 758.89a.844.844 0 0 0-.313-.13M416.73 758.76a2.493 2.493 0 0 0-.684-.046 2.652 2.652 0 0 0-.672.118M415.374 758.83a.864.864 0 0 0-.307.163M417.635 767.22c.047-.044.079-.1.073-.151M414.795 767.222a.192.192 0 0 0 .084.146M417.644 767.212l-.384.356M414.87 767.357l.402.317M417.254 767.574c0-.002.005-.006.005-.008M415.272 767.674c.003.002.003.004.006.004M415.278 767.678a.899.899 0 0 0 .31.139M415.588 767.818a2.853 2.853 0 0 0 .686.04c.226-.01.454-.05.672-.117M416.946 767.74a.939.939 0 0 0 .308-.163M415.503 759.888l1.82 7.52M411.5 758.974l.171 7.232M408.772 759.12l.174 7.23M411.054 758.554l.376.298M409.196 758.654l-.364.336M411.428 759.117a.177.177 0 0 0 .072-.143.176.176 0 0 0-.069-.122M408.832 758.989a.155.155 0 0 0-.06.13c-.001.055.03.101.078.134" style="fill:none;stroke:red;stroke-width:.666665;stroke-linecap:round;stroke-linejoin:round;stroke-miterlimit:2;stroke-dasharray:none;stroke-opacity:1;visibility:visible" visibility="hidden"/><path d="M408.85 759.253a1.016 1.016 0 0 0 .412.175" style="fill:none;stroke:red;stroke-width:.666665;stroke-linecap:round;stroke-linejoin:round;stroke-miterlimit:2;stroke-dasharray:none;stroke-opacity:1;visibility:visible" visibility="hidden"/><path d="m345.232 750.734 1.931-.142 4.65-.338 2.572-.186" style="fill:none;stroke:red;stroke-width:1.99999;stroke-linecap:round;stroke-linejoin:round;stroke-miterlimit:500;stroke-dasharray:none;stroke-opacity:1;visibility:visible" visibility="hidden"/><path d="m348.24 763.79-4.426-1.257" style="fill:none;stroke:red;stroke-width:.999997;stroke-linecap:round;stroke-linejoin:round;stroke-miterlimit:500;stroke-dasharray:none;stroke-opacity:1;visibility:visible" visibility="hidden"/><path d="m348.612 877.614 4.075.552" style="fill:none;stroke:red;stroke-width:1.99999;stroke-linecap:round;stroke-linejoin:round;stroke-miterlimit:500;stroke-dasharray:none;stroke-opacity:1;visibility:visible" visibility="hidden"/><path d="m352.412 753.325-3.585.26" style="fill:none;stroke:red;stroke-width:.999997;stroke-linecap:round;stroke-linejoin:round;stroke-miterlimit:500;stroke-dasharray:none;stroke-opacity:1;visibility:visible" visibility="hidden"/><path d="M343.308 745.126a.977.977 0 0 0 .346-.185M343.326 744.452a.687.687 0 0 0-.25-.107M343.075 744.345a2.056 2.056 0 0 0-.552-.039 2.116 2.116 0 0 0-.541.096M341.98 744.402a.747.747 0 0 0-.248.13M343.803 751.168c.039-.035.063-.076.06-.12M341.516 751.172c0 .045.024.086.066.116M343.812 751.164l-.309.286M341.572 751.282l.326.252M343.5 751.458l.002-.008M341.9 751.534l.002.006M341.903 751.54a.784.784 0 0 0 .25.109M342.154 751.649a2.376 2.376 0 0 0 1.096-.057M343.25 751.593a.91.91 0 0 0 .25-.135M342.087 745.254l1.467 6.067M343.715 744.82l.148 6.229M341.364 744.942l.151 6.23M343.332 744.454l.323.258M341.728 744.542l-.31.29M343.654 744.94a.153.153 0 0 0 .061-.121.145.145 0 0 0-.06-.107M341.416 744.832a.135.135 0 0 0-.052.11c0 .048.024.088.067.116M341.431 745.058a.917.917 0 0 0 .353.15" style="fill:none;stroke:red;stroke-width:.666665;stroke-linecap:round;stroke-linejoin:round;stroke-miterlimit:2;stroke-dasharray:none;stroke-opacity:1;visibility:visible" visibility="hidden"/><path d="M341.784 745.208a3.039 3.039 0 0 0 1.526-.083" style="fill:none;stroke:red;stroke-width:.666665;stroke-linecap:round;stroke-linejoin:round;stroke-miterlimit:2;stroke-dasharray:none;stroke-opacity:1;visibility:visible" visibility="hidden"/><path d="M383.052 790.6v8.508M372.136 788.76v8.503" style="fill:none;stroke:red;stroke-width:.666665;stroke-linecap:round;stroke-linejoin:round;stroke-miterlimit:500;stroke-dasharray:none;stroke-opacity:1;visibility:visible" visibility="hidden"/><path d="m399.706 887.245 6.51 1.265M382.162 884.374l6.6 1.284" style="fill:none;stroke:red;stroke-width:1.99999;stroke-linecap:round;stroke-linejoin:round;stroke-miterlimit:500;stroke-dasharray:none;stroke-opacity:1;visibility:visible" visibility="hidden"/><path d="m399.078 789.154-8.648-1.858M380.92 782.12l-7.097-1.523" style="fill:none;stroke:red;stroke-width:.666665;stroke-linecap:round;stroke-linejoin:round;stroke-miterlimit:500;stroke-dasharray:none;stroke-opacity:1;visibility:visible" visibility="hidden"/><path d="m401.011 773.504 3.624-.254M389.388 770.812l3.728-.256M383.008 769.254l3.8-.26M372.518 767l4.152-.286M365.146 765.284l3.73-.258M353.523 762.75l4.295-.296M352.572 761.13l-3.39.25M340.523 751.845l8.221 1.873M352.54 761.113l54.858 12.48M407.739 767.094l-1.413 129.136" style="fill:none;stroke:red;stroke-width:.999997;stroke-linecap:round;stroke-linejoin:round;stroke-miterlimit:500;stroke-dasharray:none;stroke-opacity:1;visibility:visible" visibility="hidden"/><path d="M524.945 762.285c0 .3-.789.545-1.768.545-.976 0-1.764-.245-1.764-.545 0-.3.788-.545 1.764-.545.979 0 1.768.245 1.768.545M434.142 768.812c0 .3-.794.542-1.767.542-.977 0-1.767-.241-1.767-.542 0-.303.79-.543 1.767-.543.973 0 1.767.24 1.767.543M349.446 752.04c0 .307-.623.558-1.39.558-.766-.001-1.389-.251-1.389-.558 0-.306.623-.555 1.39-.555.765 0 1.388.25 1.388.555h.001" style="fill:none;stroke:red;stroke-width:.666665;stroke-linecap:round;stroke-linejoin:round;stroke-miterlimit:2;stroke-dasharray:none;stroke-opacity:1;visibility:visible" visibility="hidden"/><path d="m421.642 774.24-1.568 125.337-1.055-.267-3.537-.869 1.57-125.756 4.688 1.244M419.828 814.397v-.83" style="fill:none;stroke:red;stroke-width:.999997;stroke-linecap:round;stroke-linejoin:round;stroke-miterlimit:4;stroke-dasharray:none;stroke-opacity:1;visibility:visible" visibility="hidden"/><path d="M417.966 811.911a.945.945 0 0 0 .102-.62M419.103 810.153h.62M418.379 807.875c.025.258.247.282.517.205M419.518 806.011c.02-.31.052-.624.102-.93M418.068 804.045c.024-.16.024-.415 0-.622M418.792 802.182c.239.08.479.148.726.208M418.482 799.077c.008.248.168.402.414.417M419.103 796.697c.404.036.639-.202.725-.62M418.17 795.56c.195-.07.309-.216.313-.413M418.586 791.109c.236.396.602.638 1.033.413M418.482 788.005c-.046.317.185.375.518.31M419.31 784.484c-.09.464.065.742.519.725M418.896 781.484c.051.344-.008.998-.414 1.345M419.415 779.62c.11.41.412.657.827.62M418.276 777.24c.319.03.627-.004.93-.104M419.518 773.928c-.08.394-.083.86.31 1.032M417.551 847.67c.228.4.225.904.543 1.241M418.715 846.194c-.028.396-.097 1.04.31 1.165M418.016 844.566a.795.795 0 0 1-.309.776M418.639 843.011c.039.319.24.529.541.546M417.628 841.46c-.024.084 0 .144.074.176.186-.133.342-.342.393-.566M418.639 839.83c.023.333.285.46.62.388M417.551 838.2c.32.174.533.054.62-.308M418.946 836.103c-.014.263.126.427.388.467M417.939 833.233c-.176.333-.053.694.232.93M418.559 831.058c.25.035.43-.078.544-.31M417.628 828.96c.136-.13.29-.232.467-.308M418.715 826.48a.524.524 0 0 0 .543.152M417.551 824.693a.844.844 0 0 1 .388.234M418.559 822.675c.096.245.33.35.621.311M417.706 820.346c.082.25.28.36.544.31M418.17 817.32c-.203.184-.3.479-.307.778M419.492 817.785c.116.193.275.352.466.465M418.715 813.982c-.245.136-.307.385-.21.67a.388.388 0 0 0 .288.026M417.551 858.303c.064.384.23.867.543 1.011M419.335 852.249c-.261.351-.376.945-.077 1.244M418.094 851.085c-.254.285-.47 1-.155 1.32M418.404 855.742c-.364.152-.274.747-.153 1.01M417.706 866.3a.51.51 0 0 0 .464.31M419.335 861.1c-.125.457-.23.932-.077 1.396M417.628 862.497c-.23.21-.228.473 0 .696M418.792 869.327c-.142.347-.165.763.235.854M417.319 872.51c-.219.381.12.635.543.543M417.862 897.427c-.06-.532.406-.876.777-.387M417.086 894.478c-.182-.383.066-.71.388-.93M418.327 887.413c-.075.46-.296 1.374.155 1.632M416.93 889.51a.71.71 0 0 0 0 .93M418.404 881.825c.003.384-.102.824.156 1.084M417.395 884.154c-.372.135-.513.864.079.776M418.094 877.478c-.487.121-.835 1.439-.544 1.707" style="fill:none;stroke:red;stroke-width:.999997;stroke-linecap:round;stroke-linejoin:round;stroke-miterlimit:4;stroke-dasharray:none;stroke-opacity:1;visibility:visible" visibility="hidden"/><path d="m506.497 762.796 16.771 10.858M423.223 903.727l-9.883-3.67" style="fill:none;stroke:red;stroke-width:.999997;stroke-linecap:round;stroke-linejoin:round;stroke-miterlimit:500;stroke-dasharray:none;stroke-opacity:1;visibility:visible" visibility="hidden"/><path d="m422.603 902.982-1.701 13.095M478.103 763.526l-4.034.304M474.069 763.83l4.034-.304M506.497 762.796l-1.424-1.171M505.073 761.625l4.657-.243" style="fill:none;stroke:red;stroke-width:1.99999;stroke-linecap:round;stroke-linejoin:round;stroke-miterlimit:500;stroke-dasharray:none;stroke-opacity:1;visibility:visible" visibility="hidden"/><path d="m414.03 900.968 9.196 14.329" style="fill:none;stroke:red;stroke-width:.999997;stroke-linecap:round;stroke-linejoin:round;stroke-miterlimit:500;stroke-dasharray:none;stroke-opacity:1;visibility:visible" visibility="hidden"/><path d="m347.924 885.99-3.114-.853" style="fill:none;stroke:red;stroke-width:.666665;stroke-linecap:round;stroke-linejoin:round;stroke-miterlimit:500;stroke-dasharray:none;stroke-opacity:1;visibility:visible" visibility="hidden"/><path d="m413.391 901.537 8.611 13.658" style="fill:none;stroke:red;stroke-width:1.99999;stroke-linecap:round;stroke-linejoin:round;stroke-miterlimit:500;stroke-dasharray:none;stroke-opacity:1;visibility:visible" visibility="hidden"/><path d="m441.378 766.942-8.965 9.683M418.639 897.04l12.701-3.84M348.744 753.718l2.334-1.048M407.588 892.989l-2.41 3.269" style="fill:none;stroke:red;stroke-width:.999997;stroke-linecap:round;stroke-linejoin:round;stroke-miterlimit:500;stroke-dasharray:none;stroke-opacity:1;visibility:visible" visibility="hidden"/><path d="m409.26 759.428-1.934 2.822M414.51 766.804l-1.728-3.275M411.72 766.154l2.132-2.381M415.588 767.817l2.927-3.185" style="fill:none;stroke:red;stroke-width:1.99999;stroke-linecap:round;stroke-linejoin:round;stroke-miterlimit:500;stroke-dasharray:none;stroke-opacity:1;visibility:visible" visibility="hidden"/><path d="m397.735 824.154 2.509-2.224M389.566 831.88l-.343 2.939M389.731 823.049l-.836-3.38M382.191 866.16l6.568 16.69M388.738 886.277l.013-3.697M383.052 790.6l-.318-3.354M383.052 799.108l-.402 3.287M383.184 855.18l-.957-2.489M383.016 864.01l-.825 2.15M371.498 861.742l-.486 2.216M371.664 852.91l-.364-2.55M372.136 797.263l-.459 2.358M372.136 788.76l-.014-2.911M355.95 825.952l-2.71 2.368M356.116 817.12l-2.93-3.062M364.847 818.774l.191-2.677M364.682 827.606l.229 2.663" style="fill:none;stroke:red;stroke-width:.999997;stroke-linecap:round;stroke-linejoin:round;stroke-miterlimit:500;stroke-dasharray:none;stroke-opacity:1;visibility:visible" visibility="hidden"/><path d="m347.924 885.99 19.298-4.47" style="fill:none;stroke:red;stroke-width:1.99999;stroke-linecap:round;stroke-linejoin:round;stroke-miterlimit:500;stroke-dasharray:none;stroke-opacity:1;visibility:visible" visibility="hidden"/><path d="m354.75 779.397-1.25 2.96M352.984 787.052l-4.368-5.679M402.03 799.347l4.694-6.616M399.078 789.154l1.938 2.428M352.78 789.92l-4.16 4.014M354.394 789.672l-1.327 5.199M362.348 801.529l3.264-4.278M389.907 806.418l-1.469-4.357M398.83 807.835l1.798-3.282M402.03 799.347l4.518 6.451M362.731 780.985l2.724 3.663M390.43 787.296l-1.352 2.112M363.111 838.38l-14.416-11.44M372.108 833.13l-.843-2.194M380.16 834.683l3.036-1.632M418.559 831.058l-13.628 5.843M400.22 836.067l4.608-12.909M380.506 816.851l3.128 2.743M372.454 815.3l-.754 2.287M363.032 810.602l-14.417 3.108M352.16 855.386l-3.672 3.867M354.17 864.065l-1.69-4.152M362.72 865.425l2.432-2.8M390.091 867.927l-1.411-.702M398.639 869.283l1.285-.316M401.186 860.553l5.157 9.608" style="fill:none;stroke:red;stroke-width:.999997;stroke-linecap:round;stroke-linejoin:round;stroke-miterlimit:500;stroke-dasharray:none;stroke-opacity:1;visibility:visible" visibility="hidden"/><path d="m407.588 892.989 5.488.121" style="fill:none;stroke:red;stroke-width:1.99999;stroke-linecap:round;stroke-linejoin:round;stroke-miterlimit:500;stroke-dasharray:none;stroke-opacity:1;visibility:visible" visibility="hidden"/><path d="m352.687 878.166-4.644-8.992M354.318 873.854l-2.272-3.903M362.866 875.215l2.741-2.635M372.404 876.71l-2.107-3.218M380.451 878.307l2.755-2.309M390.255 877.603l-1.719-.573M398.763 879.187l1.587.139M399.706 887.245l5.994-6.883" style="fill:none;stroke:red;stroke-width:.999997;stroke-linecap:round;stroke-linejoin:round;stroke-miterlimit:500;stroke-dasharray:none;stroke-opacity:1;visibility:visible" visibility="hidden"/><path d="m371.182 883.5-.308-1.371" style="fill:none;stroke:red;stroke-width:1.99999;stroke-linecap:round;stroke-linejoin:round;stroke-miterlimit:500;stroke-dasharray:none;stroke-opacity:1;visibility:visible" visibility="hidden"/><path d="m407.739 767.094-.661 8.282" style="fill:none;stroke:red;stroke-width:.666665;stroke-linecap:round;stroke-linejoin:round;stroke-miterlimit:500;stroke-dasharray:none;stroke-opacity:1;visibility:visible" visibility="hidden"/><path d="m354.952 767.02-2.149 5.32M348.24 763.79l.376 7.528M390.43 787.296l-1.559-6.063M380.92 782.12l2.095-2.315M401.016 791.582l6.268-6.28M399.078 789.154l2.384-5.27M349.446 752.04l-1.998 8.409M351.972 851.957l-3.526-5.24M354.252 846.355l-1.625.988M362.452 847.593l2.631 2.194M390.172 850.215l-1.797 3.698M398.374 851.451l1.482 4.279M401.186 860.553l4.928-3.747" style="fill:none;stroke:red;stroke-width:.999997;stroke-linecap:round;stroke-linejoin:round;stroke-miterlimit:500;stroke-dasharray:none;stroke-opacity:1;visibility:visible" visibility="hidden"/><path d="m402.03 799.347-2.84-.634M387.704 796.518l2.564.777M366.447 792.322l-3.749-.86M352.78 789.92l1.614-.248M365.455 784.648l-2.724-3.663M353.5 782.357l1.25-2.96M401.462 783.884l-1.726-6.37M388.871 781.233l2.453-5.851M383.015 779.805l-1.625-6.939M372.91 767.31l.54 3.54M365.571 775.552l-1.856-6.302M352.803 772.34l2.149-5.32M364.547 880.495l-4.272-2.235M364.682 827.606l-4.268 3.215M356.116 817.12l3.694-3.333M352.411 761.045l7.537 3.188M352.93 878.99l4.581-.595M355.95 825.952l1.698 4.869M356.116 817.12l.984-4.013M352.411 761.045l4.825 2.836" style="fill:none;stroke:red;stroke-width:.666665;stroke-linecap:round;stroke-linejoin:round;stroke-miterlimit:500;stroke-dasharray:none;stroke-opacity:1;visibility:visible" visibility="hidden"/><path d="m343.5 751.458.338 1.614" style="fill:none;stroke:red;stroke-width:.999997;stroke-linecap:round;stroke-linejoin:round;stroke-miterlimit:500;stroke-dasharray:none;stroke-opacity:1;visibility:visible" visibility="hidden"/><path d="m372.454 815.3-9.422-4.698M362.348 801.529l-7.233 7.706M365.612 797.251l-3.264 4.278M353.067 794.871l1.364 5.294M400.628 804.553l-1.374 11.037M380.506 816.851l9.826-2.678M400.628 804.553l-1.798 3.282M388.438 802.061l1.469 4.357M400.35 879.326l-1.587-.139M388.536 877.03l1.719.573M399.924 868.967l-1.285.316M388.68 867.225l1.411.702M401.186 860.553l-2.403-.095M387.24 858.393l2.995.708M399.856 855.73l-1.482-4.279M388.375 853.913l1.797-3.698M400.22 836.067l-1.189 6.176M380.506 844.262l9.686-3.707M382.227 852.691l.957 2.489M382.191 866.16l.825-2.15M371.3 850.36l.364 2.55M371.012 863.958l.486-2.216M351.972 851.957l-3.436 2.785M354.318 855.238l-2.158.148M362.866 856.598l3.73 1.587M390.235 859.101l-2.511 2.809M398.783 860.458l2.208 3.509M401.186 860.553l4.581 4.233M352.16 855.386l-3.698-4.055M354.318 855.238l-2.346-3.281M362.866 856.598l3.417-1.9M390.235 859.101l-2.995-.708M398.783 860.458l2.403.095M399.856 855.73l5.876 5.603M383.206 875.998l-2.755 2.309M370.297 873.492l2.107 3.218M383.206 875.998l-2.474-5.138M370.297 873.492l2.389-4.229M390.192 840.555l-9.686 3.707M363.111 838.38l9.343 4.332M383.196 833.051l-3.036 1.632M371.265 830.936l.843 2.194M385.068 824.894l-4.694 1.126M369.555 825.647l2.765-1.182M383.634 819.594l-3.128-2.743M371.7 817.587l.754-2.287M389.907 806.418l-9.107.909M363.032 810.602l9.714-4.829M400.244 821.93l-2.509 2.224M399.98 836.067l-2.412-3.083M388.895 819.669l.836 3.38M389.223 834.819l.343-2.939M365.038 816.097l-.191 2.677M364.911 830.269l-.229-2.663M357.1 813.107l-.984 4.013M353.24 828.32l2.71-2.368M400.22 836.067l4.61-4.493M380.374 826.02l4.678 2.23M372.32 824.465l-2.765 1.182M363.032 810.602l-14.392 11.529M400.22 836.067l4.312-7.898M380.374 826.02l4.694-1.126M372.32 824.465l-2.662-2.162M363.032 810.602l-14.646 8.128M365.607 872.58l-2.741 2.635M352.046 869.951l2.272 3.903M365.152 862.625l-2.432 2.8M352.48 859.913l1.69 4.152M366.283 854.698l-3.417 1.9M352.16 855.386l2.158-.148M365.083 849.787l-2.631-2.194M352.627 847.343l1.625-.988M372.454 842.712l-9.343-4.332M352.627 847.343l1.647-10.651M388.751 882.58l7.032 1.76M397.568 832.984l-1.584 4.066M397.735 824.154l-1.677-3.951M408.946 766.35l-12.682 6.673M388.751 882.58l3.948 1.026M389.566 831.88l3.332 4.458M389.731 823.049l3.241-3.123M408.946 766.35l-15.768 6.215M388.751 882.58l-10.856-1.017M383.016 864.01l-5.101 2.793M371.664 852.91l6.228-2.676M383.052 799.108l-5.097 1.734M383.052 790.6l-4.524-4.92M375.763 785.225l2.885-16.18M364.547 880.495l10.583.655M371.498 861.742l3.654 3.821M371.664 852.91l3.532-3.083M372.136 797.263l3.122 3.118M372.136 788.76l3.627-3.535M378.528 785.68l-2.653-17.003M352.984 787.052l-4.573 2.008M354.394 789.672l-1.614.248M362.698 791.462l3.749.86M390.268 797.295l-2.564-.777M399.19 798.713l2.84.634M400.628 804.553l6.394-4.22M352.78 789.92l-4.169-3.732M354.394 789.672l-1.41-2.62M362.698 791.462l4.473-1.91M402.03 799.347l5.122-1.9" style="fill:none;stroke:red;stroke-width:.666665;stroke-linecap:round;stroke-linejoin:round;stroke-miterlimit:500;stroke-dasharray:none;stroke-opacity:1;visibility:visible" visibility="hidden"/><path d="m347.916 888.085-1.286-7.742" style="fill:none;stroke:red;stroke-width:.999997;stroke-linecap:round;stroke-linejoin:round;stroke-miterlimit:500;stroke-dasharray:none;stroke-opacity:1;visibility:visible" visibility="hidden"/><path d="m349.446 752.04-4.214-1.306" style="fill:none;stroke:red;stroke-width:1.99999;stroke-linecap:round;stroke-linejoin:round;stroke-miterlimit:500;stroke-dasharray:none;stroke-opacity:1;visibility:visible" visibility="hidden"/><path d="m382.734 787.246.318 3.354M382.65 802.395l.402-3.287M372.122 785.849l.014 2.911M371.677 799.621l.459-2.358" style="fill:none;stroke:red;stroke-width:.666665;stroke-linecap:round;stroke-linejoin:round;stroke-miterlimit:500;stroke-dasharray:none;stroke-opacity:1;visibility:visible" visibility="hidden"/><path d="m406.652 892.387-.436-3.877" style="fill:none;stroke:red;stroke-width:1.99999;stroke-linecap:round;stroke-linejoin:round;stroke-miterlimit:500;stroke-dasharray:none;stroke-opacity:1;visibility:visible" visibility="hidden"/><path d="m401.016 791.582-1.938-2.428M389.078 789.408l1.352-2.112M383.015 779.805l-2.095 2.315M372.178 777.204l1.645 3.393" style="fill:none;stroke:red;stroke-width:.666665;stroke-linecap:round;stroke-linejoin:round;stroke-miterlimit:500;stroke-dasharray:none;stroke-opacity:1;visibility:visible" visibility="hidden"/><path d="m408.164 766.452-3.529 6.798M401.011 773.504l-7.895-2.948M389.388 770.812l-2.58-1.818M383.008 769.254l-6.338-2.54M372.518 767l-3.642-1.974M365.146 765.284l-7.328-2.83M407.739 767.094l-.341 6.499M423.223 903.727l-16.897-7.497" style="fill:none;stroke:red;stroke-width:.999997;stroke-linecap:round;stroke-linejoin:round;stroke-miterlimit:500;stroke-dasharray:none;stroke-opacity:1;visibility:visible" visibility="hidden"/><path d="m508.785 762.195 16.16.09M533.896 762.117l-8.951.168M441.302 766.8l-7.16 2.012M441.302 766.8l-7.16 2.012M343.863 751.049l5.583.991M348.827 753.585l.619-1.545" style="fill:none;stroke:red;stroke-width:.666665;stroke-linecap:round;stroke-linejoin:round;stroke-miterlimit:2;stroke-dasharray:none;stroke-opacity:1;visibility:visible" visibility="hidden"/><path d="m417.254 767.574 4.388 6.666M415.588 767.818l6.152 6.111M418.482 799.077l1.346 15.32M417.863 818.098l1.965-4.531M419.103 830.748l-1.137-18.837M418.896 799.494l.207 10.659M418.17 795.56l.726 12.52M419.828 813.567l-.31-7.556M418.068 804.045l1.552 1.036M419.62 805.081l-1.552-1.036M402.03 799.347l17.488 3.043M419.828 814.397l-1.346-15.32M419.103 796.697l-.207 2.797M418.896 799.494l.207-2.797M418.068 804.045l1.76-7.968M418.896 808.08l-.726-12.52M419.518 806.011l-1.035-10.864M432.094 780.094l-12.475 11.428M418.068 804.045l.414-16.04M432.62 780.298 419 788.315M418.068 804.045l1.242-19.561M423.667 771.054l-3.838 14.155M417.254 767.577l1.228 15.252M417.323 767.408l2.092 12.212M423.667 771.054l-3.425 9.186M432.62 780.298l-14.344-3.058M416.946 767.74l2.26 9.396M418.251 856.752l-.7-9.082M418.559 831.058l.621 12.499M417.863 818.098l1.083 18.005M418.559 831.058l.775 5.512M419.334 836.57l-.775-5.512M417.966 811.911l1.137 18.837M418.17 817.32l-.542 11.64M417.939 824.927l.776 1.553M418.715 826.48l-.776-1.553M417.628 828.96l.542-11.64M419.828 813.567l-1.965 4.531M418.17 795.56l.623 19.118M417.551 847.67l.7 9.082M419.258 862.496l-1.552 3.804M417.706 866.3l1.552-3.804M399.924 868.967l19.103 1.214M414.03 900.968l3.832-3.541M431.34 893.2l-12.701 3.84M410.078 892.63l7.396.918M410.084 892.327l8.398-3.282M431.34 893.2l-14.41-2.76M406.326 896.23l12.078-14.405M409.619 892.88l7.776-8.726M423.752 903.391l-6.278-18.461M409.619 892.88l8.475-15.402" style="fill:none;stroke:red;stroke-width:.999997;stroke-linecap:round;stroke-linejoin:round;stroke-miterlimit:4;stroke-dasharray:none;stroke-opacity:1;visibility:visible" visibility="hidden"/><path d="m334.13 709.064-5.816-1.462M420.142 698.165l-86.014 10.899" style="fill:none;stroke:#00ff4a;stroke-width:.999997;stroke-linecap:round;stroke-linejoin:round;stroke-miterlimit:500;stroke-dasharray:none;stroke-opacity:1;visibility:visible"/><path d="m328.312 707.602-.467 9.814M328.313 707.602l82.28-11.332" style="fill:none;stroke:#00ff4a;stroke-width:1.99999;stroke-linecap:round;stroke-linejoin:round;stroke-miterlimit:500;stroke-dasharray:none;stroke-opacity:1;visibility:visible"/><path d="m334.057 719.004.073-9.94" style="fill:none;stroke:#00ff4a;stroke-width:.999997;stroke-linecap:round;stroke-linejoin:round;stroke-miterlimit:500;stroke-dasharray:none;stroke-opacity:1;visibility:visible"/><path d="m423.772 710.64-89.716 8.364M327.846 717.417l6.21 1.587" style="fill:none;stroke:#00ff4a;stroke-width:1.99999;stroke-linecap:round;stroke-linejoin:round;stroke-miterlimit:500;stroke-dasharray:none;stroke-opacity:1;visibility:visible"/><path d="m334.44 677.454-.582 12.218M334.442 677.454l-98.942 6.85M235.5 684.302l-.361 9.431" style="fill:none;stroke:#00ff4a;stroke-width:.999997;stroke-linecap:round;stroke-linejoin:round;stroke-miterlimit:500;stroke-dasharray:none;stroke-opacity:1;visibility:visible"/><path d="m229.778 682.868 98.535-7.374M235.137 693.733l98.718-4.063" style="fill:none;stroke:#00ff4a;stroke-width:1.99999;stroke-linecap:round;stroke-linejoin:round;stroke-miterlimit:500;stroke-dasharray:none;stroke-opacity:1;visibility:visible"/><path d="m235.5 684.302-5.721-1.432" style="fill:none;stroke:#00ff4a;stroke-width:.999997;stroke-linecap:round;stroke-linejoin:round;stroke-miterlimit:500;stroke-dasharray:none;stroke-opacity:1;visibility:visible"/><path d="m235.137 693.733-5.718-1.46M229.778 682.868l-.358 9.405" style="fill:none;stroke:#00ff4a;stroke-width:1.99999;stroke-linecap:round;stroke-linejoin:round;stroke-miterlimit:500;stroke-dasharray:none;stroke-opacity:1;visibility:visible"/><path d="m335.26 689.561-1.404.11" style="fill:none;stroke:#00ff4a;stroke-width:.999997;stroke-linecap:round;stroke-linejoin:round;stroke-miterlimit:500;stroke-dasharray:none;stroke-opacity:1;visibility:visible"/><path d="m531.056 707.12-5.399.182M531.056 707.121l.48-14.093" style="fill:none;stroke:#00ff4a;stroke-width:1.99999;stroke-linecap:round;stroke-linejoin:round;stroke-miterlimit:500;stroke-dasharray:none;stroke-opacity:1;visibility:visible"/><path d="m516.604 690.2-.268-.087" style="fill:none;stroke:#00ff4a;stroke-width:.999997;stroke-linecap:round;stroke-linejoin:round;stroke-miterlimit:500;stroke-dasharray:none;stroke-opacity:1;visibility:visible"/><path d="m326.455 673.514-.101 2.126M473.132 691.516l43.148-1.402M471.897 711.728l-5.574.204M471.896 711.728l.161-2.615M377.902 669.7l95.23 21.816M373.275 670.044l4.627-.346M521.987 690.037l-.267-.085M521.72 689.95l-5.384.162M531.536 693.028l-9.55-2.99M521.987 690.037l-5.383.163" style="fill:none;stroke:#00ff4a;stroke-width:1.99999;stroke-linecap:round;stroke-linejoin:round;stroke-miterlimit:500;stroke-dasharray:none;stroke-opacity:1;visibility:visible"/><path d="m326.455 673.514 1.928.458" style="fill:none;stroke:#00ff4a;stroke-width:.999997;stroke-linecap:round;stroke-linejoin:round;stroke-miterlimit:500;stroke-dasharray:none;stroke-opacity:1;visibility:visible"/><path d="m423.69 713.492 42.635-1.56M337.311 690.072l-.11 2.262M337.2 692.334l1.931.468M373.275 670.044l-46.82 3.47" style="fill:none;stroke:#00ff4a;stroke-width:1.99999;stroke-linecap:round;stroke-linejoin:round;stroke-miterlimit:500;stroke-dasharray:none;stroke-opacity:1;visibility:visible"/><path d="m423.69 713.492.154-2.752" style="fill:none;stroke:#00ff4a;stroke-width:.999997;stroke-linecap:round;stroke-linejoin:round;stroke-miterlimit:500;stroke-dasharray:none;stroke-opacity:1;visibility:visible"/><path d="m415.275 711.432 8.415 2.06M339.132 692.801l34.804 8.517" style="fill:none;stroke:#00ff4a;stroke-width:1.99999;stroke-linecap:round;stroke-linejoin:round;stroke-miterlimit:500;stroke-dasharray:none;stroke-opacity:1;visibility:visible"/><path d="m531.48 692.952-111.868 3.457M419.612 696.314l-91.226-22.342" style="fill:none;stroke:#00ff4a;stroke-width:.999997;stroke-linecap:round;stroke-linejoin:round;stroke-miterlimit:500;stroke-dasharray:none;stroke-opacity:1;visibility:visible"/><path d="m472.057 709.113 53.6-1.81M337.31 690.072l-3.175-.798" style="fill:none;stroke:#00ff4a;stroke-width:1.99999;stroke-linecap:round;stroke-linejoin:round;stroke-miterlimit:500;stroke-dasharray:none;stroke-opacity:1;visibility:visible"/><path d="m411.119 696.185 8.717 2.128M334.152 677.134l-6.404-1.566M420.302 698.381l-.212 12.155" style="fill:none;stroke:#00ff4a;stroke-width:.999997;stroke-linecap:round;stroke-linejoin:round;stroke-miterlimit:500;stroke-dasharray:none;stroke-opacity:1;visibility:visible"/><path d="M346.6 675.832c0 .3-.79.545-1.766.545s-1.768-.245-1.768-.545c0-.303.792-.542 1.768-.542s1.766.24 1.766.542M523.587 691.873c0 .303-.794.541-1.767.541-.979 0-1.768-.238-1.768-.54 0-.303.79-.546 1.768-.546.973.002 1.767.244 1.767.545M432.238 694.048c0 .3-.791.542-1.764.542-.978 0-1.768-.242-1.768-.542 0-.303.79-.546 1.768-.546.973 0 1.764.243 1.764.546" style="fill:none;stroke:#00ff4a;stroke-width:.666665;stroke-linecap:round;stroke-linejoin:round;stroke-miterlimit:2;stroke-dasharray:none;stroke-opacity:1;visibility:visible"/><path d="m326.455 673.514 8.805 16.047" style="fill:none;stroke:#00ff4a;stroke-width:.999997;stroke-linecap:round;stroke-linejoin:round;stroke-miterlimit:500;stroke-dasharray:none;stroke-opacity:1;visibility:visible"/><path d="m334.44 677.454-8.086-1.814M419.836 698.313l-4.561 13.119" style="fill:none;stroke:#00ff4a;stroke-width:1.99999;stroke-linecap:round;stroke-linejoin:round;stroke-miterlimit:500;stroke-dasharray:none;stroke-opacity:1;visibility:visible"/><path d="m423.844 710.74-3.754-.204" style="fill:none;stroke:#00ff4a;stroke-width:.999997;stroke-linecap:round;stroke-linejoin:round;stroke-miterlimit:500;stroke-dasharray:none;stroke-opacity:1;visibility:visible"/><path d="m333.858 689.672 12.742-13.84M334.44 677.454l12.16-1.622M531.056 707.121l-7.469-15.248M531.536 693.028l-7.949-1.155M420.302 698.381l11.936-4.333" style="fill:none;stroke:#00ff4a;stroke-width:.666665;stroke-linecap:round;stroke-linejoin:round;stroke-miterlimit:2;stroke-dasharray:none;stroke-opacity:1;visibility:visible"/><path d="m524.945 762.285 7.275 1.088" style="fill:none;stroke:red;stroke-width:.999997;stroke-linecap:round;stroke-linejoin:round;stroke-miterlimit:500;stroke-dasharray:none;stroke-opacity:1;visibility:visible" visibility="hidden"/><path d="m421.642 774.24-3.056 16.869M418.482 782.829l.414-1.345M419.829 785.209l-.311-11.281M399.856 855.73l18.238-6.819M417.628 828.96l1.087 17.234M419.334 836.57l-1.318 7.996M406.114 856.806l11.593-11.464M400.22 836.067l17.408 5.393M399.031 842.243l19.064-1.173M419.334 836.57l-.695 3.26M399.031 842.243l19.14-4.351M417.863 818.098l.076 15.135M418.715 826.48l.777-8.695M418.068 804.045l1.89 14.205M401.186 860.553l18.072-7.06M399.856 855.73l18.083-3.325M401.186 860.553l16.442 2.64M398.639 869.283l19.223 3.77" style="fill:none;stroke:red;stroke-width:.999997;stroke-linecap:round;stroke-linejoin:round;stroke-miterlimit:4;stroke-dasharray:none;stroke-opacity:1;visibility:visible" visibility="hidden"/></svg>