<svg xmlns="http://www.w3.org/2000/svg" baseProfile="full" height="1122.52" preserveAspectRatio="xMinYMin meet" style="width:792px;height:931px" width="793.701" xml:space="preserve"><path d="m544.741 403.895-2.169.457M538.603 405.191l1.805-.381 1.953-.38M535.555 405.834l-99.323 20.986M623.67 438.443l-2.337-.5M591.73 430.064l-49.1-10.504" style="fill:none;stroke:red;stroke-width:1.99999;stroke-linecap:round;stroke-linejoin:round;stroke-miterlimit:500;stroke-dasharray:none;stroke-opacity:1;visibility:visible"/><path d="m631.605 294.794.425-.092.404-.201.36-.295.298-.379.218-.434.128-.473.028-.482-.069-.467-.16-.428-.25-.362-.326-.282-.379-.179-.415-.079-.427.039-.416.15-.386.249-.332.337-.258.411-.175.454-.081.482.02.48.117.45.208.397.29.325.353.232.398.131.427.016M630.137 417.647l.42-.104.4-.203.357-.302.294-.378.218-.432.124-.465.032-.473-.068-.455-.162-.413-.25-.35-.321-.266-.374-.166-.409-.062-.426.048-.412.156-.382.256-.326.341-.256.405-.176.454-.082.472.024.47.116.435.207.385.287.31.35.217.394.115.421.005M724.872 405.175l.404-.101.384-.204.344-.292.285-.368.21-.424.126-.456.033-.463-.062-.447-.151-.406-.235-.344-.308-.259-.354-.168-.392-.059M725.156 401.183l-.408.045-.396.152-.367.25-.317.333-.251.4-.168.44-.081.463.014.461.108.428.198.38M723.488 404.535l.269.301.333.215.382.115.4.008M727.237 287.783l.41-.09.385-.196.348-.29.286-.367.215-.429.125-.46.036-.474-.064-.456-.153-.419-.236-.357-.307-.275-.361-.179-.399-.074-.408.036-.402.145-.372.244-.318.33-.254.399-.168.451-.08.468.013.471.11.441.194.39.275.318.337.227.383.126.405.02M734.214 275.89l-105.44 7.46M624.938 424.98l110.66-14.038M626.177 284.549l-1.613 140.874M542.241 408.51l-.029-.898M612.616 421.328l-.203.066-.103.072.008.072.118.062.218.052.3.034.353.013.373-.008.366-.027.322-.046M610.86 421l.251-.062.155-.068.046-.072-.062-.068-.174-.058" style="fill:none;stroke:red;stroke-width:.999997;stroke-linecap:round;stroke-linejoin:round;stroke-miterlimit:500;stroke-dasharray:none;stroke-opacity:1;visibility:visible"/><path d="m610.861 421-.321.042-.366.031-.372.007-.352-.014-.298-.032s-.838-.379-.164-.604M615.434 423.06l-72.853-15.114M542.505 407.76l1.956-3.927" style="fill:none;stroke:red;stroke-width:.999997;stroke-linecap:round;stroke-linejoin:round;stroke-miterlimit:500;stroke-dasharray:none;stroke-opacity:1;visibility:visible"/><path d="m738.449 275.615-2.235 106.02-.379 17.913-.237 11.348M731.009 273.55l7.44 2.064" style="fill:none;stroke:red;stroke-width:1.99999;stroke-linecap:round;stroke-linejoin:round;stroke-miterlimit:500;stroke-dasharray:none;stroke-opacity:1;visibility:visible"/><path d="m614.924 423.415 9.31 1.396-.209-.041" style="fill:none;stroke:red;stroke-width:.999997;stroke-linecap:round;stroke-linejoin:round;stroke-miterlimit:500;stroke-dasharray:none;stroke-opacity:1;visibility:visible"/><path d="m616.43 281.543 23.723-1.665M644.281 279.597l31.052-2.18M679.586 277.1l28.456-2.004M712.956 274.837l17.916-1.258M616.43 281.543l-1.507 141.812" style="fill:none;stroke:red;stroke-width:1.99999;stroke-linecap:round;stroke-linejoin:round;stroke-miterlimit:500;stroke-dasharray:none;stroke-opacity:1;visibility:visible"/><path d="m616.7 281.917 5.694.99" style="fill:none;stroke:red;stroke-width:.999997;stroke-linecap:round;stroke-linejoin:round;stroke-miterlimit:500;stroke-dasharray:none;stroke-opacity:1;visibility:visible"/><path d="m735.343 424.335-5.378.699M735.473 410.804l-.13 13.531" style="fill:none;stroke:red;stroke-width:1.99999;stroke-linecap:round;stroke-linejoin:round;stroke-miterlimit:500;stroke-dasharray:none;stroke-opacity:1;visibility:visible"/><path d="m731.493 411.311-14.695 1.87M716.798 413.18l-14.83 1.888" style="fill:none;stroke:red;stroke-width:.999997;stroke-linecap:round;stroke-linejoin:round;stroke-miterlimit:500;stroke-dasharray:none;stroke-opacity:1;visibility:visible"/><path d="m624.385 438.79 105.58-13.756" style="fill:none;stroke:red;stroke-width:1.99999;stroke-linecap:round;stroke-linejoin:round;stroke-miterlimit:500;stroke-dasharray:none;stroke-opacity:1;visibility:visible"/><path d="m624.385 438.79-.73-.354M624.381 424.995l.004 13.795" style="fill:none;stroke:red;stroke-width:.999997;stroke-linecap:round;stroke-linejoin:round;stroke-miterlimit:500;stroke-dasharray:none;stroke-opacity:1;visibility:visible"/><path d="m544.567 397.742 39.116-6.852M544.773 403.668l-.206-5.925M584.265 390.788l24.13 4.432" style="fill:none;stroke:red;stroke-width:1.99999;stroke-linecap:round;stroke-linejoin:round;stroke-miterlimit:500;stroke-dasharray:none;stroke-opacity:1;visibility:visible"/><path d="m542.63 419.56-.03-.897M546.443 403.991l62.18 12.175M549.812 398.748l58.81 11.332" style="fill:none;stroke:red;stroke-width:.999997;stroke-linecap:round;stroke-linejoin:round;stroke-miterlimit:500;stroke-dasharray:none;stroke-opacity:1;visibility:visible"/><path d="m591.73 430.064-49.1-10.504" style="fill:none;stroke:red;stroke-width:1.99999;stroke-linecap:round;stroke-linejoin:round;stroke-miterlimit:500;stroke-dasharray:none;stroke-opacity:1;visibility:visible"/><path d="M441.707 427.916 542.06 407.61M441.707 427.916l-5.497-1.202M542.241 408.51l.362 10.154" style="fill:none;stroke:red;stroke-width:.999997;stroke-linecap:round;stroke-linejoin:round;stroke-miterlimit:500;stroke-dasharray:none;stroke-opacity:1;visibility:visible"/><path d="m541.225 419.815-99.133 17.339" style="fill:none;stroke:red;stroke-width:1.99999;stroke-linecap:round;stroke-linejoin:round;stroke-miterlimit:500;stroke-dasharray:none;stroke-opacity:1;visibility:visible"/><path d="m442.094 437.154-.387-9.238" style="fill:none;stroke:red;stroke-width:.999997;stroke-linecap:round;stroke-linejoin:round;stroke-miterlimit:500;stroke-dasharray:none;stroke-opacity:1;visibility:visible"/><path d="m542.63 419.56-1.404.254M442.094 437.154l-5.496-1.227M436.599 435.927l-.389-9.213" style="fill:none;stroke:red;stroke-width:1.99999;stroke-linecap:round;stroke-linejoin:round;stroke-miterlimit:500;stroke-dasharray:none;stroke-opacity:1;visibility:visible"/><path d="m538.195 406.615.325-.075.213-.086.077-.09-.07-.082-.207-.074M536.023 406.262l-.274.08-.144.088-.004.088.139.078.264.064.376.042.445.017.476-.009.472-.037.422-.058M541.94 407.394l.312-.075.187-.084.036-.085-.119-.08-.155-.034" style="fill:none;stroke:red;stroke-width:.666665;stroke-linecap:round;stroke-linejoin:round;stroke-miterlimit:500;stroke-dasharray:none;stroke-opacity:1;visibility:visible"/><path d="m531.425 447.512 6.047 1.323M624.236 424.87l-86.763 23.965M614.937 423.286l-.287.044" style="fill:none;stroke:red;stroke-width:.999997;stroke-linecap:round;stroke-linejoin:round;stroke-miterlimit:500;stroke-dasharray:none;stroke-opacity:1;visibility:visible"/><path d="m614.652 423.33-83.225 24.182" style="fill:none;stroke:red;stroke-width:1.99999;stroke-linecap:round;stroke-linejoin:round;stroke-miterlimit:500;stroke-dasharray:none;stroke-opacity:1;visibility:visible"/><path d="m537.473 448.835-.041 9.625" style="fill:none;stroke:red;stroke-width:.999997;stroke-linecap:round;stroke-linejoin:round;stroke-miterlimit:500;stroke-dasharray:none;stroke-opacity:1;visibility:visible"/><path d="m537.43 458.46-5.653-1.265M531.776 457.195l-.35-9.683M623.768 437.335 537.43 458.46" style="fill:none;stroke:red;stroke-width:1.99999;stroke-linecap:round;stroke-linejoin:round;stroke-miterlimit:500;stroke-dasharray:none;stroke-opacity:1;visibility:visible"/><path d="m726.029 287.266.405-.09.39-.198.344-.288.289-.37.213-.425.126-.462.036-.475-.063-.457-.156-.418M631.048 294.575l.112-.055.36-.295.296-.379.22-.433.128-.474.03-.479-.07-.47-.164-.428-.249-.362-.324-.28M724.052 404.318l.292-.158.26-.222.221-.282.159-.322.096-.348.025-.352-.048-.344-.113-.309-.18-.263M629.545 417.256l.167-.085.354-.3.296-.376.218-.432.125-.467.03-.472-.066-.456-.164-.414-.248-.348" style="fill:none;stroke:red;stroke-width:.999997;stroke-linecap:round;stroke-linejoin:round;stroke-miterlimit:500;stroke-dasharray:none;stroke-opacity:1;visibility:visible"/><path d="m711.777 267.62.181 8.076M708.888 267.778l.186 8.077M711.305 267.149l.399.33M709.333 267.258l-.383.373M711.698 267.777a.204.204 0 0 0 .079-.158.203.203 0 0 0-.073-.139M708.95 267.631a.19.19 0 0 0-.062.147c-.003.062.032.115.082.15M708.97 267.929a1.041 1.041 0 0 0 .434.191M709.404 268.122a3.565 3.565 0 0 0 1.873-.102M711.277 268.018a1.125 1.125 0 0 0 .421-.241M711.298 267.142a.773.773 0 0 0-.306-.136M710.99 267.006a2.41 2.41 0 0 0-.68-.053 2.5 2.5 0 0 0-.665.126M709.645 267.08a.864.864 0 0 0-.305.17M711.885 275.853a.197.197 0 0 0 .073-.156M709.074 275.855c0 .06.03.112.08.155M711.896 275.846l-.38.372M709.146 275.998l.399.33M711.505 276.229c0-.004.007-.006.01-.01M709.545 276.329l.004.006M709.549 276.335a.86.86 0 0 0 .31.143M709.86 276.478a2.587 2.587 0 0 0 .677.047c.225-.012.453-.052.667-.125M711.204 276.4a.92.92 0 0 0 .302-.17M709.777 268.18l1.8 7.87M678.822 270.083l.183 8.077M675.934 270.242l.186 8.075M678.353 269.611l.397.332M676.382 269.72l-.382.374M678.745 270.24a.196.196 0 0 0 .077-.156c-.001-.057-.03-.101-.072-.141M676 270.095a.187.187 0 0 0-.066.148c-.001.06.034.112.082.148M676.016 270.391a1.067 1.067 0 0 0 .434.194M676.45 270.585c.306.068.62.093.94.072.316-.015.636-.077.934-.174M678.324 270.482c.161-.052.305-.135.421-.242M678.345 269.607a.747.747 0 0 0-.31-.137M678.034 269.469a2.34 2.34 0 0 0-.677-.05 2.427 2.427 0 0 0-.665.122M676.692 269.542a.855.855 0 0 0-.304.17M678.932 278.317a.196.196 0 0 0 .073-.158M676.118 278.318a.201.201 0 0 0 .082.155M678.941 278.311l-.379.371M676.193 278.463l.4.331M678.556 278.69l.006-.008M676.592 278.794l.002.006M676.594 278.8a.848.848 0 0 0 .31.14M676.905 278.94a2.67 2.67 0 0 0 1.347-.078M678.252 278.863a.893.893 0 0 0 .305-.173M676.822 270.647l1.802 7.868M643.462 272.314l.186 8.079M640.574 272.475l.188 8.076M642.993 271.842l.397.333M641.022 271.954l-.382.376M643.388 272.471a.19.19 0 0 0 .074-.157.181.181 0 0 0-.072-.139M640.638 272.329a.2.2 0 0 0-.065.146.187.187 0 0 0 .084.15M640.657 272.625a1.059 1.059 0 0 0 .435.193M641.092 272.818a3.547 3.547 0 0 0 1.872-.104M642.965 272.714a1.119 1.119 0 0 0 .423-.243M642.986 271.837a.799.799 0 0 0-.31-.137M642.676 271.7a2.446 2.446 0 0 0-.678-.05 2.519 2.519 0 0 0-.666.124M641.332 271.775a.872.872 0 0 0-.303.171M643.572 280.55c.048-.044.08-.1.076-.157M640.761 280.551a.196.196 0 0 0 .079.154M643.582 280.542l-.378.372M640.833 280.695l.399.33M643.196 280.923c0-.002.004-.005.008-.009M641.232 281.025l.004.005M641.236 281.031a.915.915 0 0 0 .31.142M641.546 281.173c.22.044.447.061.68.046.221-.012.449-.052.665-.124M642.892 281.095a.95.95 0 0 0 .305-.172M641.465 272.878l1.801 7.868" style="fill:none;stroke:red;stroke-width:.666665;stroke-linecap:round;stroke-linejoin:round;stroke-miterlimit:2;stroke-dasharray:none;stroke-opacity:1;visibility:visible"/><path d="m605.372 420.756 3.17-.77M611.053 419.375l1.287.268" style="fill:none;stroke:red;stroke-width:.999997;stroke-linecap:round;stroke-linejoin:round;stroke-miterlimit:500;stroke-dasharray:none;stroke-opacity:1;visibility:visible"/><path d="M610.578 354.889c.042-.04.07-.092.064-.142M608.065 354.89a.18.18 0 0 0 .073.136M610.588 354.882l-.34.333M610.244 355.222c0-.005.002-.005.005-.008M608.492 355.318a.756.756 0 0 0 .276.125M608.768 355.443c.196.04.398.057.606.042.2-.01.404-.046.596-.111M609.97 355.374a.877.877 0 0 0 .271-.152M612.982 355.82a2.419 2.419 0 0 0 1.199-.07" style="fill:none;stroke:red;stroke-width:.666665;stroke-linecap:round;stroke-linejoin:round;stroke-miterlimit:2;stroke-dasharray:none;stroke-opacity:1;visibility:visible"/><path d="M613.156 355.86v65.669M609.865 420.482v-64.66M542.112 406.846c0 .23-.616.417-1.376.417-.759 0-1.375-.187-1.375-.417 0-.23.616-.416 1.375-.416.76 0 1.376.186 1.376.416" style="fill:none;stroke:red;stroke-width:.666665;stroke-linecap:round;stroke-linejoin:round;stroke-miterlimit:500;stroke-dasharray:none;stroke-opacity:1;visibility:visible"/><path d="m624.086 286.802-1.682 134.554-1.13-.286-3.801-.934 1.687-135.005 5.034 1.334M622.14 329.909v-.89" style="fill:none;stroke:red;stroke-width:.999997;stroke-linecap:round;stroke-linejoin:round;stroke-miterlimit:4;stroke-dasharray:none;stroke-opacity:1;visibility:visible"/><path d="M620.14 327.242a1.03 1.03 0 0 0 .11-.667M621.361 325.353h.667M620.585 322.909c.028.278.265.301.556.221M621.806 320.909c.02-.335.058-.671.111-1M620.252 318.797a2.924 2.924 0 0 0 0-.667M621.028 316.797c.252.085.512.16.778.222M620.694 313.463c.008.267.18.432.446.447M621.361 310.909c.433.038.687-.219.779-.667M620.361 309.686c.204-.076.327-.232.333-.444M620.806 304.909c.251.425.647.686 1.111.444M620.694 301.575c-.049.343.198.405.556.335M621.585 297.797c-.097.498.068.796.556.778M621.14 294.575c.054.37-.01 1.075-.446 1.445M621.694 292.575c.12.44.443.705.89.667M620.473 290.02c.343.032.675-.006 1-.112M621.806 286.463c-.085.424-.088.928.334 1.112M619.694 365.629c.246.431.243.971.584 1.333M620.945 364.047c-.03.423-.105 1.116.333 1.25M620.194 362.295a.855.855 0 0 1-.333.835M620.861 360.629c.043.34.256.565.584.584M619.778 358.962c-.026.092 0 .156.078.19.2-.142.366-.367.422-.607M620.861 357.215c.025.358.305.495.667.416M619.694 355.463c.344.187.574.059.667-.333M621.194 353.215c-.017.282.136.458.418.5M620.112 350.13c-.19.359-.058.744.25 1M620.778 347.797c.268.038.46-.084.584-.334M619.778 345.549a1.58 1.58 0 0 1 .5-.334M620.945 342.882c.15.17.353.221.585.167M619.694 340.962a.925.925 0 0 1 .418.25M620.778 338.797c.102.263.354.377.667.333M619.861 336.295c.089.268.301.386.584.335M620.361 333.047c-.223.195-.323.516-.333.834M621.778 333.549a1.413 1.413 0 0 0 .5.5M620.945 329.463c-.264.147-.33.414-.224.719a.417.417 0 0 0 .309.032M619.694 377.047c.071.41.248.93.584 1.083M621.612 370.549c-.282.374-.404 1.014-.084 1.333M620.278 369.295c-.272.307-.502 1.075-.166 1.418M620.612 374.295c-.392.162-.295.8-.167 1.085M619.861 385.629a.55.55 0 0 0 .5.333M621.612 380.047c-.136.494-.25 1.003-.084 1.5M619.778 381.549c-.248.225-.245.51 0 .749M621.028 388.882c-.155.372-.179.817.25.916M619.445 392.295c-.235.41.13.681.585.585M620.028 419.047c-.068-.573.432-.941.832-.417M619.194 415.882c-.194-.41.071-.763.418-1M620.528 408.295c-.082.495-.318 1.476.166 1.75M619.028 410.548c-.25.31-.25.714 0 1M620.612 402.295c.001.413-.112.887.166 1.167M619.528 404.796c-.403.144-.552.93.084.834M620.278 397.628c-.524.132-.896 1.547-.584 1.834" style="fill:none;stroke:red;stroke-width:.999997;stroke-linecap:round;stroke-linejoin:round;stroke-miterlimit:4;stroke-dasharray:none;stroke-opacity:1;visibility:visible"/><path d="m538.195 406.615.408-1.424M615.434 423.06l5.899 14.883" style="fill:none;stroke:red;stroke-width:1.99999;stroke-linecap:round;stroke-linejoin:round;stroke-miterlimit:500;stroke-dasharray:none;stroke-opacity:1;visibility:visible"/><path d="m622.584 293.242 6.19-9.892M640.762 280.551l-14.585 3.998M614.65 423.33l-.282-1.712" style="fill:none;stroke:red;stroke-width:.999997;stroke-linecap:round;stroke-linejoin:round;stroke-miterlimit:500;stroke-dasharray:none;stroke-opacity:1;visibility:visible"/><path d="m640.153 279.878 4.128-.281M679.586 277.1l-4.253.317M675.333 277.417l4.253-.317M712.956 274.837l-4.914.259M708.042 275.096l4.914-.259" style="fill:none;stroke:red;stroke-width:1.99999;stroke-linecap:round;stroke-linejoin:round;stroke-miterlimit:500;stroke-dasharray:none;stroke-opacity:1;visibility:visible"/><path d="m620.473 290.02 1.921-7.113M729.965 425.034l1.528-13.723M611.053 419.375l-2.43-3.209M611.053 419.375l-2.431-9.295M640.84 280.705l-9.453 10.215M620.86 418.63l9.397-4.724M608.988 420.43l-3.616.326M608.623 416.166l2.43 3.209M614.924 423.415l-2.584-3.772" style="fill:none;stroke:red;stroke-width:.999997;stroke-linecap:round;stroke-linejoin:round;stroke-miterlimit:500;stroke-dasharray:none;stroke-opacity:1;visibility:visible"/><path d="m609.97 355.374 4.211.376" style="fill:none;stroke:red;stroke-width:.666665;stroke-linecap:round;stroke-linejoin:round;stroke-miterlimit:2;stroke-dasharray:none;stroke-opacity:1;visibility:visible"/><path d="m640.762 280.551-16.676 6.251M616.7 281.917l7.494 4.548M620.694 313.463l1.446 16.446M620.028 333.881l2.112-4.862M621.14 313.91l.221 11.443M622.14 329.019l-.334-8.11M620.252 318.797l1.665 1.112M621.917 319.909l-1.665-1.112M622.14 329.909l-1.446-16.446M621.361 310.909l-.221 3.001M621.14 313.91l.221-3.001M621.473 289.908l-1.112 19.778M620.252 318.797l.442-9.555M631.048 294.575l-9.131 10.778M620.252 318.797l.442-17.222M631.605 294.794l-10.355 7.116M628.774 283.35l-6.633 15.225M628.774 283.35l-6.19 9.892M622.394 282.907l-1.921 7.113M620.361 309.686l1.112-19.778M610.244 355.222l10.701 8.825M610.241 355.222l9.62 7.908M620.778 347.797l.667 13.416M610.244 355.222l10.617 1.993M610.244 355.222l10.95-2.007M620.778 347.797l.834 5.918M608.492 355.318l11.87-4.188M621.612 353.715l-.834-5.918M620.361 333.047l-.583 12.502M609.97 355.374l10.308-10.159M620.112 341.212l.833 1.67M608.768 355.443l10.926-14.481M620.945 342.882l-.833-1.67M619.778 345.549l.583-12.502M622.14 329.019l-2.112 4.862M610.248 355.215l10.03 14.08M619.861 385.629l.584-10.249M621.528 381.547l-1.667 4.082M619.861 385.629l1.667-4.082M630.257 413.906l-9.397 4.724M614.65 423.33l4.962-17.7" style="fill:none;stroke:red;stroke-width:.999997;stroke-linecap:round;stroke-linejoin:round;stroke-miterlimit:4;stroke-dasharray:none;stroke-opacity:1;visibility:visible"/><path d="m534.873 339.009 1.842.391" style="fill:none;stroke:#00ff4a;stroke-width:.999997;stroke-linecap:round;stroke-linejoin:round;stroke-miterlimit:500;stroke-dasharray:none;stroke-opacity:1;visibility:visible"/><path d="m605.198 346.135-56.557-6.465M534.87 339.009l.75-150.312" style="fill:none;stroke:#00ff4a;stroke-width:1.99999;stroke-linecap:round;stroke-linejoin:round;stroke-miterlimit:500;stroke-dasharray:none;stroke-opacity:1;visibility:visible"/><path d="m548.281 189.945 59.557 14.46" style="fill:none;stroke:#00ff4a;stroke-width:.999997;stroke-linecap:round;stroke-linejoin:round;stroke-miterlimit:500;stroke-dasharray:none;stroke-opacity:1;visibility:visible"/><path d="m551.092 187.664 56.077 13.529M612.98 202.629l1.14.273M619.416 204.146l10.926 2.635" style="fill:none;stroke:#00ff4a;stroke-width:1.99999;stroke-linecap:round;stroke-linejoin:round;stroke-miterlimit:500;stroke-dasharray:none;stroke-opacity:1;visibility:visible"/><path d="m630.342 206.924-15.152 1.166" style="fill:none;stroke:#00ff4a;stroke-width:.999997;stroke-linecap:round;stroke-linejoin:round;stroke-miterlimit:500;stroke-dasharray:none;stroke-opacity:1;visibility:visible"/><path d="m630.342 206.781-.925 71.941" style="fill:none;stroke:#00ff4a;stroke-width:1.99999;stroke-linecap:round;stroke-linejoin:round;stroke-miterlimit:500;stroke-dasharray:none;stroke-opacity:1;visibility:visible"/><path d="m598.827 338.037-.014-.307M562.703 216.14l7.034 1.815" style="fill:none;stroke:#00ff4a;stroke-width:.999997;stroke-linecap:round;stroke-linejoin:round;stroke-miterlimit:500;stroke-dasharray:none;stroke-opacity:1;visibility:visible"/><path d="m598.827 338.037-11.432-1.308" style="fill:none;stroke:#00ff4a;stroke-width:1.99999;stroke-linecap:round;stroke-linejoin:round;stroke-miterlimit:500;stroke-dasharray:none;stroke-opacity:1;visibility:visible"/><path d="m587.396 336.729-.007-.304" style="fill:none;stroke:#00ff4a;stroke-width:.999997;stroke-linecap:round;stroke-linejoin:round;stroke-miterlimit:500;stroke-dasharray:none;stroke-opacity:1;visibility:visible"/><path d="m588.055 211.23 6.978-.776" style="fill:none;stroke:#00ff4a;stroke-width:.666665;stroke-linecap:round;stroke-linejoin:round;stroke-miterlimit:500;stroke-dasharray:none;stroke-opacity:1;visibility:visible"/><path d="m580.039 336.375-.01-.3M600.362 337.85l-1.535.187M599.054 337.702l-.24.028M600.541 214.717l-.53 51.126M599.348 284.151l-.532 53.579M587.39 336.425l.486-53.676M587.541 263.97l.514-52.664" style="fill:none;stroke:#00ff4a;stroke-width:.999997;stroke-linecap:round;stroke-linejoin:round;stroke-miterlimit:500;stroke-dasharray:none;stroke-opacity:1;visibility:visible"/><path d="m580.039 336.375-11.204-1.282" style="fill:none;stroke:#00ff4a;stroke-width:1.99999;stroke-linecap:round;stroke-linejoin:round;stroke-miterlimit:500;stroke-dasharray:none;stroke-opacity:1;visibility:visible"/><path d="m561.621 334.377-.01-.3M582.385 335.797l-2.117.25M583.683 335.946l-3.644.43M580.267 336.047l-.24.028M581.167 209.525l-.187 19.759M581.512 246.93l-.46 55.021M580.17 318.29l-.14 17.785M568.825 334.793l.128-19.139M569.123 300.553l.414-56.721M569.679 227.716l.157-20.283M568.833 335.093l-.01-.3" style="fill:none;stroke:#00ff4a;stroke-width:.999997;stroke-linecap:round;stroke-linejoin:round;stroke-miterlimit:500;stroke-dasharray:none;stroke-opacity:1;visibility:visible"/><path d="m561.621 334.354-12.229-1.4" style="fill:none;stroke:#00ff4a;stroke-width:1.99999;stroke-linecap:round;stroke-linejoin:round;stroke-miterlimit:500;stroke-dasharray:none;stroke-opacity:1;visibility:visible"/><path d="m614.905 208.26-.117 71.734M614.342 206.125l-1.05-.26M608.534 205.882l-.472.034M607.908 206.478l6.912 1.702M549.847 224.805l-5.198-.821M604.632 233.598l-4.183-.658M545.176 238.274l4.953.828M562.723 241.173l24.333 4.076M600.98 247.576l3.697.618M563.501 227.164l24.235 3.828M544.728 273.895l24.039 4.495M581.475 280.762l18.125 3.39M599.601 284.151l5.016.939M604.51 269.642l-22.572-4.002M569.23 263.383l-24.584-4.36M545.181 310.48l3.602.74M562.256 313.998l25.059 5.168M600.119 321.807l3.601.743M564.436 333.749l-2.587.301M565.73 333.895l-4.108.483M561.85 334.05l-.239.027M562.799 205.006l-.12 56.668M561.999 277.634l-.387 56.443M549.225 332.702l.345-57.257M550.393 259.349l.363-57.752" style="fill:none;stroke:#00ff4a;stroke-width:.999997;stroke-linecap:round;stroke-linejoin:round;stroke-miterlimit:500;stroke-dasharray:none;stroke-opacity:1;visibility:visible"/><path d="m606.546 338.745-.096 8.645M606.45 347.391l7.751.92" style="fill:none;stroke:#00ff4a;stroke-width:1.99999;stroke-linecap:round;stroke-linejoin:round;stroke-miterlimit:500;stroke-dasharray:none;stroke-opacity:1;visibility:visible"/><path d="m599.183 325.549 5.162.557M580.379 323.523l7.124.768M561.94 321.535l6.983.751M544.332 319.603l4.597.717" style="fill:none;stroke:#00ff4a;stroke-width:.999997;stroke-linecap:round;stroke-linejoin:round;stroke-miterlimit:500;stroke-dasharray:none;stroke-opacity:1;visibility:visible"/><path d="m568.828 334.249-6.976-.799M587.39 336.367l-7.118-.813M605.93 338.52l-6.876-.784" style="fill:none;stroke:#00ff4a;stroke-width:1.99999;stroke-linecap:round;stroke-linejoin:round;stroke-miterlimit:500;stroke-dasharray:none;stroke-opacity:1;visibility:visible"/><path d="m539.132 330.673 4.827.492" style="fill:none;stroke:#00ff4a;stroke-width:.999997;stroke-linecap:round;stroke-linejoin:round;stroke-miterlimit:500;stroke-dasharray:none;stroke-opacity:1;visibility:visible"/><path d="m551.337 202.098 19.183 4.779M569.839 206.709l19.073 4.752M588.912 211.462l11.161 2.782" style="fill:none;stroke:#00ff4a;stroke-width:.666665;stroke-linecap:round;stroke-linejoin:round;stroke-miterlimit:500;stroke-dasharray:none;stroke-opacity:1;visibility:visible"/><path d="m544.719 199.453-.07 12.047-.153 26.62-.107 18.744M550.135 212.844l-5.486-1.414M569.739 217.997l-6.096-1.568M587.516 222.524l-6.236-1.604M604.973 226.992l-4.05-1.043M544.719 199.453l4.781-.347M545.015 200.522l5.774 1.438" style="fill:none;stroke:#00ff4a;stroke-width:.999997;stroke-linecap:round;stroke-linejoin:round;stroke-miterlimit:500;stroke-dasharray:none;stroke-opacity:1;visibility:visible"/><path d="m535.268 339.149 8.641 1.026" style="fill:none;stroke:#00ff4a;stroke-width:1.99999;stroke-linecap:round;stroke-linejoin:round;stroke-miterlimit:500;stroke-dasharray:none;stroke-opacity:1;visibility:visible"/><path d="m543.403 199.168-.028-.346-.112-.348-.193-.32-.25-.273-.3-.21-.324-.126-.328-.04-.31.053-.272.14-.209.219-.137.279-.06.328.028.345.115.345.187.323.253.272.301.21.325.125.327.042.308-.054.27-.138.213-.217.14-.283.056-.326M543.952 331.257l-.041 9M544.428 240.029l-.04 18.286-.104 16.47-.107 55.644M544.77 191.678l-.066 11.159" style="fill:none;stroke:#00ff4a;stroke-width:.999997;stroke-linecap:round;stroke-linejoin:round;stroke-miterlimit:500;stroke-dasharray:none;stroke-opacity:1;visibility:visible"/><path d="m543.91 340.257 4.732-.568" style="fill:none;stroke:#00ff4a;stroke-width:1.99999;stroke-linecap:round;stroke-linejoin:round;stroke-miterlimit:500;stroke-dasharray:none;stroke-opacity:1;visibility:visible"/><path d="m545.145 296.39 3.775.704M563.481 299.813l23.084 4.313M599.862 306.42l4.036.806M549.935 199.005l55.295 13.425M548.69 331.949l-.05 7.74M549.556 190.268l-.056 8.838" style="fill:none;stroke:#00ff4a;stroke-width:.999997;stroke-linecap:round;stroke-linejoin:round;stroke-miterlimit:500;stroke-dasharray:none;stroke-opacity:1;visibility:visible"/><path d="m598.884 247.189-9.504-1.592M560.75 240.74l-9.104-1.525M599.253 236.906l-9.973-1.586M560.313 230.62l-8.733-1.39M598.167 227.758l-8.489-1.712M579.705 224.038l-8.577-1.728M561.012 220.268l-9.41-1.895M599.087 218.349l-8.961-2.397M579.55 213.122l-8.458-2.264M561.244 208.224l-9.51-2.544M558.044 203.277l4.785-.347M554.945 202.553l4.783-.347M557.063 331.565l.147-53.31M557.263 259.038l.149-55.013M554.119 331.722l.145-53.465M554.32 258.26l.148-55.421" style="fill:none;stroke:#00ff4a;stroke-width:.666665;stroke-linecap:round;stroke-linejoin:round;stroke-miterlimit:500;stroke-dasharray:none;stroke-opacity:1;visibility:visible"/><path d="m538.808 339.629.047-9.095M539.501 201.514l.055-10.634" style="fill:none;stroke:#00ff4a;stroke-width:.999997;stroke-linecap:round;stroke-linejoin:round;stroke-miterlimit:500;stroke-dasharray:none;stroke-opacity:1;visibility:visible"/><path d="m595.395 213.014 7.775-.694M592.373 212.008l7.777-.695M600.373 214.086l4.967-.55M576.799 208.293l6.02-.539M573.7 207.208l6.019-.54M562.965 204.426l4.839-.684M581.161 209.149l6.876-.521M569.848 206.522l6.259-.454M560.76 255.402l-8.593-1.558M560.784 247.966l-8.59-1.56M598.574 261.135l-9.503-1.59M598.574 253.7l-9.503-1.594M598.07 332.482l-9.101-1.525M597.919 321.482l-9.104-1.527M598.07 311.562l-9.101-1.527M597.635 301.442l-8.735-1.39M598.335 291.091l-9.411-1.896M581.459 305.629l-.18 9.926M575.105 304.545l-.177 9.925M568.285 302.842l-.177 9.925M545.239 305.56l2.265.42M563.793 309.009l22.502 4.185M601.03 315.931l2.88.539M545.159 301.689l2.564.477M563.463 305.09l22.316 4.148M600.493 311.975l3.541.659M579.044 331.511l-8.655-1.258M578.895 322.985l-8.658-1.262M578.93 293.462l-8.576-1.725M579.241 284.94l-8.576-1.726M579.241 276.726l-8.576-1.725M578.93 269.135l-8.576-1.725M579.241 260.61l-8.576-1.727M579.241 252.398l-8.576-1.73M582.079 232.482l-.18 9.924M596.956 270.76l-.177 9.927M588.433 269.522l-.177 9.924M561.933 264.717l-.178 9.925M552.636 262.857l-.18 9.925M604.51 279.105l-21.06-3.738M566.945 272.44l-22.274-3.952M604.194 275.273l-20.727-3.676M567.055 268.685l-22.655-4.02M559.821 328.145l-9.104-1.526M559.667 317.14l-9.107-1.522M559.821 307.222l-9.104-1.525M559.383 297.102l-8.734-1.39M560.083 286.751l-9.414-1.896M574.707 231.092l-.415 9.918M566.803 230.11l-.415 9.92M594.879 336.807l.211-51.576M595.17 266.32l.217-53.02M591.593 336.007l.212-51.553M591.884 266.01l.221-53.224M576.279 335.44l.021-16.588M576.321 300.411l.069-55.217M576.503 227.528l.126-18.7M573.335 334.975l.024-17.517M573.379 299.958l.065-55.28M573.556 227.013l.117-18.597M551.33 201.313l4.782-.347M544.428 232.634l4.652.714M563.636 235.586l22.527 3.462M601.481 241.402l3.141.483M544.64 229.396l4.657.716M564.407 232.432l21.685 3.332M601.773 238.173l2.727.419" style="fill:none;stroke:#00ff4a;stroke-width:.666665;stroke-linecap:round;stroke-linejoin:round;stroke-miterlimit:500;stroke-dasharray:none;stroke-opacity:1;visibility:visible"/><path d="m542.532 333.909-.03-.347-.112-.348-.19-.319-.252-.275-.299-.21-.325-.127-.328-.038-.31.052-.271.14-.209.217-.141.28-.057.328.03.345.112.348.19.32.253.272.299.21.324.125.33.043.304-.055.27-.135.215-.217.14-.284.057-.325M605.514 212.83l-.982 124.52" style="fill:none;stroke:#00ff4a;stroke-width:.999997;stroke-linecap:round;stroke-linejoin:round;stroke-miterlimit:500;stroke-dasharray:none;stroke-opacity:1;visibility:visible"/><path d="m617.944 198.541.181 8.124M615.036 198.702l.186 8.126M617.468 198.065l.402.336M615.486 198.18l-.385.374M617.865 198.701a.213.213 0 0 0 .079-.16.204.204 0 0 0-.075-.14M615.101 198.554a.196.196 0 0 0-.065.148c-.002.062.03.114.084.151M615.118 198.853a1.073 1.073 0 0 0 .436.195M615.556 199.046a3.541 3.541 0 0 0 1.882-.104M617.438 198.942a1.15 1.15 0 0 0 .427-.241M617.461 198.06a.79.79 0 0 0-.308-.136M617.152 197.924a2.445 2.445 0 0 0-.686-.052 2.537 2.537 0 0 0-.669.125M615.798 197.997a.89.89 0 0 0-.304.172M618.053 206.824c.047-.046.077-.102.072-.16M615.222 206.829a.205.205 0 0 0 .082.153M618.062 206.816l-.384.373M615.294 206.97l.404.332M617.673 207.202c0-.004.003-.008.005-.01M615.697 207.302c0 .002 0 .004.005.006M615.702 207.309a.867.867 0 0 0 .31.144M616.012 207.452a2.703 2.703 0 0 0 1.354-.078M617.366 207.374a.975.975 0 0 0 .306-.173M615.932 199.109l1.812 7.913M611.614 197.513l.184 8.125M608.71 197.674l.185 8.127M611.14 197.038l.4.336M609.16 197.153l-.387.375M611.537 197.672a.197.197 0 0 0 .077-.159.19.19 0 0 0-.073-.139M608.773 197.528a.188.188 0 0 0-.063.146c-.004.062.031.116.08.152M608.79 197.826a1.053 1.053 0 0 0 .438.194M609.228 198.02c.306.068.625.093.942.076a3.77 3.77 0 0 0 .942-.18M611.112 197.916a1.13 1.13 0 0 0 .425-.244M611.134 197.033a.768.768 0 0 0-.309-.136M610.825 196.897a2.595 2.595 0 0 0-1.355.073M609.47 196.97a.87.87 0 0 0-.306.172M611.722 205.797c.05-.044.082-.101.076-.159M608.896 205.802a.197.197 0 0 0 .081.152M611.732 205.789l-.38.373M608.968 205.942l.402.334M611.345 206.172c0-.004.003-.004.007-.01M609.37 206.276l.003.004M609.374 206.282a.827.827 0 0 0 .311.142M609.686 206.422c.222.046.448.066.684.05a2.58 2.58 0 0 0 .671-.127M611.04 206.345a.916.916 0 0 0 .305-.173M609.602 198.082l1.812 7.914" style="fill:none;stroke:#00ff4a;stroke-width:.666665;stroke-linecap:round;stroke-linejoin:round;stroke-miterlimit:2;stroke-dasharray:none;stroke-opacity:1;visibility:visible"/><path d="m607.86 205.546-.06 7.519" style="fill:none;stroke:#00ff4a;stroke-width:1.99999;stroke-linecap:round;stroke-linejoin:round;stroke-miterlimit:500;stroke-dasharray:none;stroke-opacity:1;visibility:visible"/><path d="m605.736 212.677 1.716.421" style="fill:none;stroke:#00ff4a;stroke-width:.999997;stroke-linecap:round;stroke-linejoin:round;stroke-miterlimit:500;stroke-dasharray:none;stroke-opacity:1;visibility:visible"/><path d="m607.37 347.122-.446.433M610.101 347.72a.212.212 0 0 0 .087-.183.224.224 0 0 0-.082-.16M606.925 347.555a.204.204 0 0 0-.073.167c-.004.072.036.132.093.175M606.945 347.897a1.212 1.212 0 0 0 .503.22M607.448 348.118c.352.079.718.108 1.084.088a4.301 4.301 0 0 0 1.08-.206M609.612 348.002a1.288 1.288 0 0 0 .49-.282M607.725 346.915a.94.94 0 0 0-.348.196M608.694 348.038l1.606 7.024M615.505 347.48l.461.381M613.23 347.609l-.444.43M615.965 348.206a.23.23 0 0 0 .09-.183.23.23 0 0 0-.088-.161M612.785 348.04a.221.221 0 0 0 .025.344M612.81 348.385a1.267 1.267 0 0 0 .501.22M613.312 348.606a4.067 4.067 0 0 0 1.08.084c.372-.02.741-.089 1.082-.204M615.474 348.486a1.315 1.315 0 0 0 .49-.28M615.681 351.998c.041-.038.069-.088.063-.133M615.69 351.991l-.327.32M615.358 352.32l.004-.01M615.096 352.469a.844.844 0 0 0 .262-.149M612.905 348.413l1.61 7.024M610.481 347.533l.161 7.214" style="fill:none;stroke:#00ff4a;stroke-width:.666665;stroke-linecap:round;stroke-linejoin:round;stroke-miterlimit:2;stroke-dasharray:none;stroke-opacity:1;visibility:visible"/><path d="m607.9 347.677.166 7.213.422.42.004.008" style="fill:none;stroke:#00ff4a;stroke-width:.666665;stroke-linecap:round;stroke-linejoin:round;stroke-miterlimit:2;stroke-dasharray:none;stroke-opacity:1;visibility:visible"/><path d="m612.113 348.05.165 7.215.56.595" style="fill:none;stroke:#00ff4a;stroke-width:.666665;stroke-linecap:round;stroke-linejoin:round;stroke-miterlimit:500;stroke-dasharray:none;stroke-opacity:1;visibility:visible"/><path d="m538.559 340.055.16 7.015M536.052 340.191l.163 7.016M538.655 347.205c.042-.04.068-.09.064-.136M536.215 347.207c0 .05.025.098.068.133M538.664 347.2l-.33.32M536.276 347.331l.347.287M538.33 347.529l.002-.009M536.623 347.618l.004.005M536.625 347.623a.765.765 0 0 0 .268.122M536.895 347.745a2.283 2.283 0 0 0 1.169-.068M538.064 347.677a.793.793 0 0 0 .265-.148M536.825 340.543l1.565 6.832M615.01 347.909l.162 7.213" style="fill:none;stroke:#00ff4a;stroke-width:.666665;stroke-linecap:round;stroke-linejoin:round;stroke-miterlimit:2;stroke-dasharray:none;stroke-opacity:1;visibility:visible"/><path d="m541.044 188.252 2.053-.16 4.954-.382 2.738-.209" style="fill:none;stroke:#00ff4a;stroke-width:1.99999;stroke-linecap:round;stroke-linejoin:round;stroke-miterlimit:500;stroke-dasharray:none;stroke-opacity:1;visibility:visible"/><path d="m544.245 202.925-4.712-1.412M536.452 189.396l7.616 1.848" style="fill:none;stroke:#00ff4a;stroke-width:.999997;stroke-linecap:round;stroke-linejoin:round;stroke-miterlimit:500;stroke-dasharray:none;stroke-opacity:1;visibility:visible"/><path d="m544.643 330.843 4.337.619" style="fill:none;stroke:#00ff4a;stroke-width:1.99999;stroke-linecap:round;stroke-linejoin:round;stroke-miterlimit:500;stroke-dasharray:none;stroke-opacity:1;visibility:visible"/><path d="m548.981 190.796-4.561.35" style="fill:none;stroke:#00ff4a;stroke-width:.999997;stroke-linecap:round;stroke-linejoin:round;stroke-miterlimit:500;stroke-dasharray:none;stroke-opacity:1;visibility:visible"/><path d="M538.748 181.072a2.127 2.127 0 0 0-.59-.044 2.136 2.136 0 0 0-.578.109M537.579 181.137a.716.716 0 0 0-.262.147M539.523 188.738a.176.176 0 0 0 .064-.134M537.085 188.742a.168.168 0 0 0 .07.132M539.532 188.734l-.328.32M537.147 188.866l.346.286M539.196 189.066c0-.005.004-.006.007-.012M537.493 189.152l.004.005M537.497 189.157a.757.757 0 0 0 .268.123M537.765 189.28c.191.038.388.054.586.04a2.133 2.133 0 0 0 .581-.107M538.932 189.213a.872.872 0 0 0 .264-.147M537.695 182.094l1.56 6.816M539.428 181.602l.157 7.002M536.924 181.742l.161 7M539.017 181.194l.348.29M537.31 181.292l-.33.325M539.361 181.74a.17.17 0 0 0 .069-.138.173.173 0 0 0-.065-.118M536.98 181.617a.165.165 0 0 0-.056.125.155.155 0 0 0 .072.131M536.996 181.873a.887.887 0 0 0 .376.167M537.372 182.04a3.088 3.088 0 0 0 1.622-.09M538.995 181.95a.957.957 0 0 0 .365-.21" style="fill:none;stroke:#00ff4a;stroke-width:.666665;stroke-linecap:round;stroke-linejoin:round;stroke-miterlimit:2;stroke-dasharray:none;stroke-opacity:1;visibility:visible"/><path d="M539.012 181.189a.693.693 0 0 0-.265-.117M545.196 189.764c0 .276-.584.5-1.307.5-.721 0-1.305-.224-1.305-.5 0-.278.584-.5 1.305-.5.723 0 1.307.222 1.307.5" style="fill:none;stroke:#00ff4a;stroke-width:.666665;stroke-linecap:round;stroke-linejoin:round;stroke-miterlimit:2;stroke-dasharray:none;stroke-opacity:1;visibility:visible"/><path d="m536.895 347.745-.18-8.345" style="fill:none;stroke:#00ff4a;stroke-width:.999997;stroke-linecap:round;stroke-linejoin:round;stroke-miterlimit:500;stroke-dasharray:none;stroke-opacity:1;visibility:visible"/><path d="m606.45 347.391-1.252-1.256M537.085 188.742l-1.465-.045" style="fill:none;stroke:#00ff4a;stroke-width:1.99999;stroke-linecap:round;stroke-linejoin:round;stroke-miterlimit:500;stroke-dasharray:none;stroke-opacity:1;visibility:visible"/><path d="m544.068 191.244 4.213-1.299M607.908 206.478l-.07-2.073" style="fill:none;stroke:#00ff4a;stroke-width:.999997;stroke-linecap:round;stroke-linejoin:round;stroke-miterlimit:500;stroke-dasharray:none;stroke-opacity:1;visibility:visible"/><path d="m609.228 198.02-2.059 3.173M614.342 206.125l-1.362-3.496M613.292 205.865l.828-2.963M616.012 207.453l3.404-3.307" style="fill:none;stroke:#00ff4a;stroke-width:1.99999;stroke-linecap:round;stroke-linejoin:round;stroke-miterlimit:500;stroke-dasharray:none;stroke-opacity:1;visibility:visible"/><path d="m595.395 213.014-.362-2.56" style="fill:none;stroke:#00ff4a;stroke-width:.666665;stroke-linecap:round;stroke-linejoin:round;stroke-miterlimit:500;stroke-dasharray:none;stroke-opacity:1;visibility:visible"/><path d="m598.814 337.73 1.548.12M596.956 270.76l3.055-4.917M588.256 279.446l-.38 3.303M588.433 269.522l-.892-5.552M580.027 336.075l2.358-.278M580.268 336.047l3.415-.101M582.079 232.482l-1.099-3.198M581.899 242.406l-.387 4.524M581.459 305.629l-.407-3.678M581.279 315.555l-1.109 2.735M568.108 312.767l.845 2.887M568.285 302.842l.838-2.289M566.388 240.03l3.149 3.802M566.803 230.11l2.876-2.394M599.348 284.151l15.44-4.157M616.012 207.452l-1.67-1.327M614.82 208.18l-1.528-2.315M551.58 229.23l-1.733-4.425M549.297 230.112l-4.648-6.128M601.773 238.173l2.859-4.575M599.253 236.906l1.196-3.966M549.08 233.348l-3.904 4.926M551.646 239.215l-1.517-.113M560.75 240.74l1.973.433M589.38 245.597l-2.324-.348M598.884 247.189l2.096.387M601.481 241.402l3.196 6.792M560.313 230.62l3.188-3.456M589.28 235.32l-1.544-4.328M570.665 275.001l-1.898 3.389M579.241 276.726l2.234 4.036M588.924 289.195l15.693-4.105M599.601 284.151l4.909-14.509M578.93 269.135l3.008-3.495M570.354 267.41l-1.124-4.027M560.76 255.402l-16.114 3.621M547.504 305.98l-2.323 4.5M550.56 315.618l-1.777-4.398M559.667 317.14l2.589-3.142M588.815 319.955l-1.5-.789M597.919 321.482l2.2.325M601.03 315.931l2.69 6.619M561.611 334.077l2.825-.328M561.849 334.05l3.881-.155M561.933 264.717l.746-3.043M561.755 274.642l.244 2.992M552.456 272.782l-2.886 2.663M552.636 262.857l-2.243-3.508M597.919 321.482l1.264 4.067M601.03 315.931l3.315 10.175M578.895 322.985l1.484.538M588.815 319.955l-1.312 4.336M559.667 317.14l2.273 4.395M570.237 321.723l-1.314.563M548.783 311.22l-4.451 8.383M550.56 315.618l-1.631 4.702M552.636 262.857l-8.247-5.993M551.602 218.373l-1.467-5.529M544.245 202.925l.404 8.505M589.678 226.046l-2.162-3.522M579.705 224.038l1.575-3.118M605.736 212.677l-.763 14.315M598.167 227.758l2.756-1.809M544.245 202.925l.77-2.403M544.719 199.453l-1.316-.285M544.389 256.864l.039-16.835M547.723 302.166l-2.578-5.776M550.649 295.712l-1.729 1.382M559.383 297.102l4.098 2.711M588.9 300.052l-2.335 4.074M598.07 311.562l1.792-5.142M600.493 311.975l3.405-4.749" style="fill:none;stroke:#00ff4a;stroke-width:.999997;stroke-linecap:round;stroke-linejoin:round;stroke-miterlimit:500;stroke-dasharray:none;stroke-opacity:1;visibility:visible"/><path d="m600.98 247.576-2.096-.387M587.056 245.249l2.324.348M562.723 241.173l-1.973-.433M550.129 239.102l1.517.113M601.773 238.173l-2.52-1.267M586.092 235.764l3.188-.444M564.407 232.432l-4.094-1.812M549.297 230.112l2.283-.882M600.923 225.949l-2.756 1.809M587.516 222.524l2.162 3.522M581.28 220.92l-1.575 3.118M569.739 217.997l1.389 4.313M562.703 216.14l-1.691 4.128M550.135 212.844l1.467 5.529M600.923 225.949l-1.836-7.6M588.912 211.461l1.214 4.491M581.28 220.92l-1.73-7.798M570.52 206.877l.572 3.981M562.703 216.14l-1.459-7.916M550.789 201.96l.945 3.72M562.965 204.426l-.136-1.496M558.044 203.277l1.684-1.071M561.611 334.077l-4.548-2.512M561.755 274.642l-4.545 3.613M552.636 262.857l4.627-3.819M548.69 331.949l5.429-.227M552.456 272.782l1.808 5.475M552.636 262.857l1.684-4.597" style="fill:none;stroke:#00ff4a;stroke-width:.666665;stroke-linecap:round;stroke-linejoin:round;stroke-miterlimit:500;stroke-dasharray:none;stroke-opacity:1;visibility:visible"/><path d="m539.196 189.066.36 1.814" style="fill:none;stroke:#00ff4a;stroke-width:.999997;stroke-linecap:round;stroke-linejoin:round;stroke-miterlimit:500;stroke-dasharray:none;stroke-opacity:1;visibility:visible"/><path d="m600.373 214.086 2.797-1.766M600.373 214.086l-.223-2.773M581.161 209.149l1.658-1.395M576.107 206.068l-2.407 1.14M581.161 209.149l-1.442-2.481M569.848 206.522l-2.044-2.78M588.055 211.23l-.018-2.602M576.799 208.293l-.692-2.225M570.665 258.883l-9.905-3.481M560.784 247.966l-8.617 5.878M562.723 241.173l-1.939 6.793M550.129 239.102l2.065 7.304M589.071 252.106l9.503 9.029M579.241 260.61l9.83-1.065M600.98 247.576l-2.406 6.124M587.056 245.249l2.015 6.857M599.054 337.736l-.984-5.254M587.39 336.367l1.579-5.41M600.119 321.807l-2.2-.325M587.315 319.166l1.5.789M600.493 311.975l-2.423-.413M585.779 309.238l3.19.797M599.862 306.42l-2.227-4.978M586.565 304.126l2.335-4.074M599.601 284.151l-1.266 6.94M579.241 284.94l9.683 4.255M581.052 301.951l.407 3.678M580.17 318.29l1.109-2.735M576.321 300.411l-1.216 4.134M573.359 317.458l1.569-2.988M569.123 300.553l-.838 2.289M568.953 315.654l-.845-2.887M547.723 302.166l-2.484 3.394M550.717 305.697l-3.213.283M559.821 307.222l3.972 1.787M588.969 310.035l-2.674 3.159M604.034 312.634l-3.004 3.297M600.493 311.975l3.417 4.495M547.504 305.98l-2.345-4.291M545.239 305.56l2.484-3.394M559.821 307.222l3.642-2.132M588.969 310.035l-3.19-.797M598.07 311.562l2.423.413M601.03 315.931l3.004-3.297M580.272 335.554l-1.228-4.043M568.828 334.249l1.561-3.996M580.379 323.523l-1.484-.538M568.923 322.286l1.314-.563M588.924 289.195l-9.994 4.267M579.241 284.94l-8.887 6.797M581.475 280.762l-2.234 4.178M568.767 278.39l1.898 4.824M583.45 275.367l-4.209 1.359M568.767 278.39l1.898-3.389M581.938 265.64l-3.008 3.495M567.055 268.685l3.299-1.275M581.938 265.64l-2.697-5.03M569.23 263.383l1.435-4.5M589.071 252.106l-9.83.292M560.784 247.966l9.881 2.702M580.98 229.284l1.099 3.198M581.512 246.93l.387-4.524M595.17 266.32l1.786 4.44M599.348 284.151l-2.569-3.464M591.884 266.01l-3.451 3.512M587.876 282.749l.38-3.303M562.679 261.674l-.746 3.043M561.999 277.634l-.244-2.992M550.393 259.349l2.243 3.508M549.57 275.445l2.886-2.663M599.601 284.151l4.909-5.046M579.241 276.726l4.209-1.359M570.665 275.001l-3.72-2.561M599.601 284.151l4.593-8.878M578.93 269.135l4.537 2.462M570.354 267.41l-3.299 1.275M560.76 255.402l-16.36 9.263M561.852 333.45l-2.031-5.305M548.98 331.462l1.737-4.843M562.256 313.998l-2.589 3.142M548.783 311.22l1.777 4.398M563.463 305.09l-3.642 2.132M547.504 305.98l3.213-.283M563.481 299.813l-4.098-2.711M548.92 297.094l1.729-1.382M570.665 283.214l-10.582 3.537M548.92 297.094l1.749-12.239M576.503 227.528l-1.796 3.564M573.444 244.678l.848-3.668M569.679 227.716l-2.876 2.394M569.537 243.832l-3.149-3.802M598.813 337.73l-3.934-.923M596.779 280.687l-1.689 4.544M596.956 270.76l-1.786-4.44M587.389 336.425l4.204-.418M588.256 279.446l3.549 5.008M588.433 269.522l3.451-3.512M580.029 336.075l-3.75-.635M574.928 314.47l1.372 4.382M575.105 304.545l1.216-4.134M574.292 241.01l2.098 4.184M574.707 231.092l1.796-3.564M568.823 334.793l4.512.182M574.928 314.47l-1.569 2.988M575.105 304.545l-1.726-4.587M574.292 241.01l-.848 3.668M574.707 231.092l-1.151-4.079M576.503 227.528l-2.83-19.112M554.945 202.553l1.167-1.587M549.297 230.112l-4.869 2.522M551.58 229.23l-2.5 4.118M560.75 240.74l2.886-5.154M589.28 235.32l-3.117 3.728M604.5 238.592l-3.019 2.81M601.773 238.173l2.849 3.712M549.08 233.348l-4.44-3.952M551.58 229.23l-2.283.882M560.313 230.62l4.094 1.812M589.28 235.32l-3.188.444M599.253 236.906l2.52 1.267M601.481 241.402l3.019-2.81" style="fill:none;stroke:#00ff4a;stroke-width:.666665;stroke-linecap:round;stroke-linejoin:round;stroke-miterlimit:500;stroke-dasharray:none;stroke-opacity:1;visibility:visible"/><path d="m538.559 340.055 3.973-6.146M538.33 347.529l4.202-13.62M606.546 338.745l-2.014-1.395" style="fill:none;stroke:#00ff4a;stroke-width:.999997;stroke-linecap:round;stroke-linejoin:round;stroke-miterlimit:500;stroke-dasharray:none;stroke-opacity:1;visibility:visible"/><path d="m548.981 190.796-7.937-2.544" style="fill:none;stroke:#00ff4a;stroke-width:1.99999;stroke-linecap:round;stroke-linejoin:round;stroke-miterlimit:500;stroke-dasharray:none;stroke-opacity:1;visibility:visible"/><path d="m539.585 188.604 5.611 1.16M544.77 191.678l.426-1.914" style="fill:none;stroke:#00ff4a;stroke-width:.666665;stroke-linecap:round;stroke-linejoin:round;stroke-miterlimit:2;stroke-dasharray:none;stroke-opacity:1;visibility:visible"/><path d="m622.14 329.909-1.89-3.334M621.361 325.353l-.776-2.444M620.473 290.02l1.333-3.557M608.492 355.318l11.202 10.311M613.312 348.606l7.966 16.691M620.028 333.881l.084 16.249M610.244 355.222l11.201-16.092M604.345 326.106l15.516 10.189M620.945 342.882l.833-9.333M620.252 318.797l2.026 15.252M615.474 348.486l5.556-18.272M608.768 355.443l12.844 15.106M619.861 385.629l1.167 3.253M615.434 423.06l3.76-7.178M608.623 416.166l10.405-4.618M619.861 385.629l.751 16.666" style="fill:none;stroke:red;stroke-width:.999997;stroke-linecap:round;stroke-linejoin:round;stroke-miterlimit:4;stroke-dasharray:none;stroke-opacity:1;visibility:visible"/><path d="m626.177 284.549 3.24-5.827" style="fill:none;stroke:#00ff4a;stroke-width:1.99999;stroke-linecap:round;stroke-linejoin:round;stroke-miterlimit:500;stroke-dasharray:none;stroke-opacity:1;visibility:visible"/></svg>