<svg xmlns="http://www.w3.org/2000/svg" baseProfile="full" height="1122.52" preserveAspectRatio="xMinYMin meet" style="width:912px;height:1303px" width="793.701" xml:space="preserve"><path d="m282.23 359.647.259.066.257.057.277.03.268.01.279-.021.259-.03.266-.054.248-.08.231-.091.22-.117.192-.124.181-.146.144-.161.124-.163.096-.181.066-.184.038-.19.011-.191-.019-.191-.057-.183-.088-.181-.113-.182-.134-.163-.164-.152-.19-.145-.211-.125-.22-.105-.25-.095M284.2 356.555l-11.788-3.817M272.413 352.738l-.258-.068-.258-.056-.267-.03-.279-.008-.268.018-.268.03-.257.057-.25.076-.23.096-.22.105-.2.135-.172.14-.155.155-.121.172-.1.173-.064.182-.05.19v.193l.021.181.047.192.086.182.105.172.145.172.162.152.181.136.211.124.22.114.248.087M270.42 355.809l11.81 3.838M259.733 357.627l140.474 45.75 10.248-7.893M223.773 345.915l16.545 5.387M405.768 403.874l-.106-.048-.124-.008h-.144l-.144.038-.162.068-.173.086-.173.113-.179.144-.183.153-.172.182-.174.192-.172.21-.152.219-.142.232-.136.23-.114.226-.104.231-.086.23-.058.222-.05.2-.018.19v.183l.018.153.04.135.068.105M273.053 506.4l-.135-.038-.143-.01-.162.028-.173.047-.191.079-.192.102-.2.135-.202.155-.19.18-.202.192-.182.212-.182.22-.172.228-.152.24-.134.248-.116.238-.106.24-.076.228-.057.232-.03.204-.006.189.007.179.04.148.066.132M267.034 511.192l-.115-.056-.125-.038h-.152l-.163.018-.182.056-.18.076-.202.107-.192.133-.201.155-.201.17-.201.203-.182.211-.181.219-.172.229-.155.25-.132.237-.125.24-.095.238-.077.242-.056.22-.03.211-.009.189.01.175.036.153.067.122M411.194 399.655l-.115-.039-.125-.018-.132.018-.155.04-.161.075-.174.096-.172.115-.18.144-.182.162-.175.183-.172.2-.161.21-.154.221-.142.231-.136.227-.104.231-.096.23-.088.226-.056.215-.036.2-.022.193.011.17.019.145.048.132.066.105M411.634 399.108l-.019.104-.01.098" style="fill:none;stroke:red;stroke-width:.999997;stroke-linecap:round;stroke-linejoin:round;stroke-miterlimit:4;stroke-dasharray:none;stroke-opacity:1;visibility:visible"/><path d="m399.855 404.495.019-.124.028-.144.03-.143.048-.16.056-.154.058-.146.056-.132.058-.116M399.855 404.495l-.384 4.421.01.078.019.048.02.017" style="fill:none;stroke:red;stroke-width:.999997;stroke-linecap:round;stroke-linejoin:round;stroke-miterlimit:4;stroke-dasharray:none;stroke-opacity:1;visibility:visible"/><path d="m192.644 411.778-3.348-1.474" style="fill:none;stroke:red;stroke-width:1.99999;stroke-linecap:round;stroke-linejoin:round;stroke-miterlimit:4;stroke-dasharray:none;stroke-opacity:1;visibility:visible"/><path d="m193.237 407.167-.01-.125-.047-.124-.068-.132-.095-.124-.105-.116-.124-.116-.144-.086-.135-.074-12.927-5.667M193.237 407.167l.115 4.345M192.644 411.778l.144.048.134.03h.124l.106-.031.085-.047.067-.066.038-.096.01-.105" style="fill:none;stroke:red;stroke-width:.999997;stroke-linecap:round;stroke-linejoin:round;stroke-miterlimit:4;stroke-dasharray:none;stroke-opacity:1;visibility:visible"/><path d="m179.582 400.602-.134-.048-.134-.028h-.124l-.106.028-.086.048" style="fill:none;stroke:red;stroke-width:1.99999;stroke-linecap:round;stroke-linejoin:round;stroke-miterlimit:4;stroke-dasharray:none;stroke-opacity:1;visibility:visible"/><path d="m297.522 321.025.192-.171.161-.183.135-.191.105-.2.076-.202.049-.212.018-.216-.01-.212-.048-.212-.075-.21-.106-.199-.134-.204-.155-.182-.189-.18-.202-.161-.229-.145M297.522 321.025l-19.388 15.737M270.646 342.842l-78.137 63.428" style="fill:none;stroke:red;stroke-width:.999997;stroke-linecap:round;stroke-linejoin:round;stroke-miterlimit:4;stroke-dasharray:none;stroke-opacity:1;visibility:visible"/><path d="m191.858 393.827-.181-.113-.2-.096-.212-.076-.23-.058-.237-.04-.249-.008-.24.008-.239.04-.24.058-.22.076-.2.096-.19.113-.164.136-.144.143-.115.162-.077.162-.056.173-.02.172.009.172.05.173.064.171.107.156.132.141.154.135.182.113.203.106.219.077.229.059.24.026.247.012.24-.012.24-.026.238-.059.222-.077.2-.106.192-.113.162-.135.143-.14.115-.158.077-.169.057-.175.02-.171-.01-.172-.046-.173-.08-.162-.094-.162-.134-.143-.164-.136M205.14 393.168l-.181-.114-.202-.099-.22-.084-.23-.048-.237-.04-.241-.007-.249.007-.24.04-.227.048-.223.084-.209.099-.182.114-.172.132-.133.144-.116.152-.076.164-.057.172-.02.18.02.175.038.17.077.166.103.161.135.142.164.136.172.114.21.095.21.079.229.057.24.039.25.008.247-.008.24-.039.23-.057.218-.08.211-.094.183-.114.163-.136.144-.142.104-.162.087-.164.047-.17.02-.177-.01-.179-.049-.172-.074-.164-.108-.152-.132-.144-.153-.132M253.61 344.077l-.183-.103-.192-.097-.218-.078-.222-.049-.238-.036-.24-.009-.23.008-.237.037-.221.05-.211.076-.2.098-.173.103-.163.125-.125.135-.104.153-.076.152-.05.163-.007.162.007.17.05.166.076.151.104.145.133.144.165.123.182.104.19.096.22.077.22.047.24.04.239.01.23-.01.241-.04.216-.047.213-.077.201-.096.183-.104.152-.123.133-.143.096-.146.079-.152.047-.164.008-.17-.008-.164-.048-.162-.079-.152-.113-.153-.124-.135-.163-.125M266.489 343.446l-.182-.106-.202-.095-.21-.068-.229-.058-.23-.028-.241-.01-.236.009-.231.03-.221.057-.21.068-.199.095-.175.106-.162.127-.124.14-.107.144-.075.163-.037.16-.02.166.02.161.047.163.077.153.115.154.133.133.153.124.182.116.201.085.21.075.231.06.229.03.239.008.238-.009.231-.029.23-.06.211-.074.192-.086.18-.116.153-.124.135-.133.095-.154.077-.153.046-.163.011-.161-.019-.166-.048-.16-.077-.163-.104-.144-.135-.14-.161-.127" style="fill:none;stroke:red;stroke-width:.666665;stroke-linecap:round;stroke-linejoin:round;stroke-miterlimit:4;stroke-dasharray:none;stroke-opacity:1;visibility:visible"/><path d="m259.73 357.623 12.74-10.368M193.237 411.778l14.966-12.182M198.203 393.706l-.162-.098-.183-.088-.2-.056-.201-.048-.22-.01h-.22l-.21.03-.21.058-.192.068-.172.094-.164.104-.133.135-.106.133-.066.144-.047.154-.012.153.021.163.047.144.085.141.116.136.136.115.16.104.183.086.201.056.21.04.209.019h.221l.22-.029.201-.056.192-.068.183-.096.152-.114.133-.125.106-.133.076-.144.05-.152.007-.164-.017-.152-.059-.154-.085-.134-.106-.135-.144-.121M260.191 343.665l-.19-.115-.211-.104-.23-.077-.24-.06-.246-.035-.251-.021h-.258l-.248.031-.24.047-.23.076-.22.086-.201.104-.173.126-.154.143-.132.154-.096.16-.066.174-.039.173-.01.173.03.182.056.172.085.161.116.155.144.152.173.124.19.124.212.096.23.077.238.067.25.039.246.01h.26l.248-.029.24-.05.228-.066.221-.096.202-.104.172-.124.162-.144.124-.153.097-.163.067-.161.039-.183.01-.172-.031-.174-.056-.173-.086-.172-.113-.152-.147-.142-.172-.136" style="fill:none;stroke:red;stroke-width:.999997;stroke-linecap:round;stroke-linejoin:round;stroke-miterlimit:4;stroke-dasharray:none;stroke-opacity:1;visibility:visible"/><path d="m235.237 355.38 17.883-14.375M181.88 398.287l16.909-13.597M254.68 361.733l5.05-4.11M189.38 410.343l64.775 104.937M154.09 353.167l27.827 45.09" style="fill:none;stroke:red;stroke-width:1.99999;stroke-linecap:round;stroke-linejoin:round;stroke-miterlimit:4;stroke-dasharray:none;stroke-opacity:1;visibility:visible"/><path d="m154.013 352.642-.181-3.979M168.51 338.295l.067-.017.076-.01.087.017.096.038.096.07M154.186 347.954l.067-.028h.077l.086.017.096.04.105.057M154.032 352.966l.02.107.037.093M272.938 502.082l-.067-.078-.096-.044-.114-.041h-.143l-.145.02-.163.037M169.629 338.538l-.065-.077-.096-.066-.116-.04-.134-.009-.134.01-.152.039M254.154 515.278l.01.097.039.085M154.09 353.167l.02.107.036.085M260.679 510.868l11.531-8.89M260.68 510.868l-.25.17-.268.157-.285.133-.308.115-.316.087-.324.065-.335.039-.336.016-.335-.006-.333-.03-.337-.054-.326-.078-.305-.107-.297-.132-.276-.145-.259-.164-.24-.19-.219-.202-.184-.21-.161-.23M193.802 411.32l61.185 98.78M154.617 348.04l29.836 48.18M146.301 334.622l7.645 12.335M165.582 328.135l-.162-.097-.172-.077-.183-.056-.201-.039-.2-.02-.21.01-.211.03-.192.049-.191.065-.172.085-.154.097-.124.116-.105.123-.076.133-.039.144-.02.144.02.144.048.144.076.124.106.124.134.104.154.096.172.077.18.059.203.036.209.02.212-.01.2-.026.2-.049.182-.066.174-.089.152-.096.124-.112.104-.127.078-.142.047-.135.01-.143-.017-.142-.049-.143-.076-.125-.105-.126-.126-.104" style="fill:none;stroke:red;stroke-width:.999997;stroke-linecap:round;stroke-linejoin:round;stroke-miterlimit:4;stroke-dasharray:none;stroke-opacity:1;visibility:visible"/><path d="M168.51 338.295h.01l.01-.009.008-.008h.01l.01-.01.019-.01h.01l.008-.011h.011l.01-.007.018-.01h.01l.01-.01h.009l.021-.01h.007l.011-.008h.03l.008-.01h.029l.01-.011h.036l.01-.009h.048l.019-.011h.125l.01.011h.066l.011.009h.028l.01.011h.028l.01.009h.029l.01.009h.008l.019.01h.01l.011.01h.009l.009.01h.019l.01.006.01.014h.009l.01.007.019.011h.009l.009.008.01.01h.01l.01.009.01.011.008.006.01.013h.019l.01.01.011.009.009.01.008.008.01.01.01.01.009.011.011.007.006.01.011.01.013.01.008.008.01.021.008.01v.008l.009.011.01.01.01.008v.009l.009.012M153.832 348.662v-.105l.008-.01v-.057l.012-.011v-.048h.008v-.03l.01-.007v-.021l.008-.01v-.018l.012-.01v-.018l.009-.011v-.007l.008-.009v-.021h.01v-.01l.01-.011v-.006l.011-.012v-.009l.007-.009.01-.011v-.019h.011v-.008l.009-.009.009-.011v-.01l.011-.009.008-.009v-.01h.01l.01-.009v-.011h.01v-.009l.009-.009.011-.01h.008v-.01l.009-.008.01-.01h.01v-.01l.01-.01h.009v-.01h.01V348h.009l.011-.008.006-.009.012-.01h.008v-.01h.01l.012-.01 14.323-9.655M153.477 352.278l-.039-.093-.017-.1M166.712 326.633l-.23-.134-.24-.125-.257-.104-.277-.097-.288-.056-.296-.048-.306-.029h-.306l-.307.019-.297.038-.296.066-.288.078-.278.106-.256.114-.241.144-.22.152-.19.163-.175.182-.142.19-.105.203-.087.2-.057.211-.019.21.01.21.036.212.08.2.104.2.134.183.154.181.19.163.21.155.233.13.247.117.277.095.277.077.296.058.298.04.305.008.307-.008.306-.03.306-.049.288-.077.288-.086.257-.113.25-.135.228-.144.211-.162.182-.172.152-.182.136-.201.094-.2.067-.203.039-.22v-.209l-.028-.21-.058-.203-.086-.2-.115-.191-.155-.184-.17-.168-.192-.165" style="fill:none;stroke:red;stroke-width:.999997;stroke-linecap:round;stroke-linejoin:round;stroke-miterlimit:4;stroke-dasharray:none;stroke-opacity:1;visibility:visible"/><path d="m145.804 339.743-.038-.097-.02-.096M146.301 334.622l-.096-.056-.096-.037-.085-.02h-.078l-.056.029M145.86 339.925l-.038-.086-.018-.094" style="fill:none;stroke:red;stroke-width:1.99999;stroke-linecap:round;stroke-linejoin:round;stroke-miterlimit:4;stroke-dasharray:none;stroke-opacity:1;visibility:visible"/><path d="m154.493 347.753-.05-.126-.056-.122-.067-.136-.086-.115-.096-.116-.096-.096-.096-.085M153.421 352.086l.076.097.104.077.116.065.135.048.152.029M410.131 397.942l-.115-.066-.142-.03-.144-.01-.172.02-.174.046-.18.078-.201.098-.201.122-.202.144M408.599 398.343l-.208.173-.204.19-.21.212-.199.23-.193.237-.189.251-.174.257-.162.269-.154.277-.136.267-.114.27-.104.266-.076.26-.068.238-.038.24-.02.22v.2l.02.181.048.163.066.136.078.114.105.085M404.686 402.144l-.123-.057-.135-.039h-.154l-.162.018-.181.05-.183.065-.201.106-.2.124-.21.144M403.136 402.555l-.2.17-.212.194-.21.211-.2.228-.194.238-.189.25-.172.268-.163.258-.154.28-.132.266-.115.269-.107.268-.076.257-.068.248-.037.23-.02.22v.201l.02.183.048.162.065.134.08.116.103.086M405.624 402.784l.096.066.096.088.078.094.076.098.085.13.056.156.059.154.029.132.019.142.009.146v.144l-.02.2-.027.201-.049.2-.056.212-.059.193-.076.18-.077.19-.095.194-.096.189-.125.212-.132.209-.136.2-.15.192-.147.184-.152.17-.152.163-.164.155-.162.142-.172.135-.172.115-.182.104-.192.105-.202.077-.2.058-.2.028-.136.008-.125-.008-.132-.008-.125-.03-.134-.049-.124-.055-.114-.068M405.624 402.783l-.938-.639M402.14 407.932l-.938-.64M273.063 505.279l.104.087.096.096.087.114.076.106.087.162.057.163.048.172.028.161.01.154v.164l-.011.162-.018.22-.047.22-.058.222-.076.22-.077.198-.087.194-.095.2-.105.192-.115.19-.144.22-.153.21-.163.214-.162.2-.172.18-.173.172-.182.164-.172.154-.192.142-.19.124-.203.114-.189.097-.222.077-.219.067-.22.037-.221.01h-.133l-.135-.016-.133-.032-.154-.058-.162-.076-.143-.096M273.063 505.279l-.938-.709M269.13 510.58l-.939-.708M266.94 510.015l.104.085.096.107.086.105.076.115.087.152.057.173.05.172.026.152.011.166v.16l-.01.164-.028.22-.04.218-.065.223-.068.219-.076.2-.097.192-.095.2-.105.192-.115.2-.144.21-.152.223-.163.21-.173.191-.163.182-.172.18-.181.166-.183.142-.19.142-.193.126-.2.114-.191.096-.22.086-.22.057-.22.039-.23.008h-.125l-.133-.018-.135-.038-.163-.058-.152-.076-.144-.096M266.94 510.015l-.94-.708M262.986 515.316l-.948-.708M411.071 398.572l.093.068.098.086.085.084.068.108.085.132.066.145.049.153.03.142.016.136.011.144v.142l-.02.202-.028.2-.037.2-.057.212-.068.181-.067.193-.084.192-.088.19-.097.181-.123.221-.135.202-.134.2-.152.201-.144.183-.154.17-.153.164-.161.152-.163.144-.173.134-.172.116-.172.105-.192.095-.202.085-.2.059-.201.03-.133.007h-.124l-.136-.019-.123-.029-.135-.048-.124-.055-.116-.069M411.071 398.572l-.94-.632M407.604 403.711l-.937-.63" style="fill:none;stroke:red;stroke-width:.999997;stroke-linecap:round;stroke-linejoin:round;stroke-miterlimit:4;stroke-dasharray:none;stroke-opacity:1;visibility:visible"/><path d="m400.292 408.935 1.551-1.204M400.292 408.935h-.009l-.01.01-.008.011h-.009l-.013.009h-.008l-.01.008-.008.011h-.01v.009h-.01l-.01.009h-.009l-.011.012h-.017v.008h-.01l-.009.01h-.021v.01h-.018l-.009.008h-.02l-.01.01h-.01l-.008.01h-.03v.01h-.037l-.009.01h-.05v.008h-.084l-.01.01h-.067l-.008-.011h-.088v-.007h-.049l-.008-.01h-.03l-.009-.01h-.029l-.008-.01M411.634 399.108l.401-4.324M272.47 347.255l136.877 44.2M237 335.791l16.12 5.215M254.68 361.733l144.838 47.329M218.713 349.98l16.524 5.4" style="fill:none;stroke:red;stroke-width:1.99999;stroke-linecap:round;stroke-linejoin:round;stroke-miterlimit:4;stroke-dasharray:none;stroke-opacity:1;visibility:visible"/><path d="m411.634 399.108-.028.192v.018M406.207 404.363l1.1-.853" style="fill:none;stroke:red;stroke-width:.999997;stroke-linecap:round;stroke-linejoin:round;stroke-miterlimit:4;stroke-dasharray:none;stroke-opacity:1;visibility:visible"/><path d="m409.346 391.455.249.085.248.107.24.113.23.124.217.144.214.144.19.154.182.162.162.182.152.184.134.19.126.189.105.211.085.212.067.21.057.23.03.23.009.228-.01.232M288.48 312.575l9.012 5.265M297.493 317.84l.2.122.201.145.182.144.171.163.155.17.133.174.125.18.106.183.084.201.08.201.047.191.037.192.019.192v.2M253.12 341.006l2.361-1.9M263.2 332.9l25.268-20.322M198.787 384.689l36.451-29.31M178.998 400.602l2.882-2.316M298.9 324.623l-.008.183-.031.181-.037.183-.058.17-.067.174-.086.163-.087.163-.104.153-.115.141-.134.145-.143.144-.155.134M272.47 347.255l4.905-3.997M285.525 336.62l12.35-10.064M208.203 399.598l46.477-37.865M299.033 320.298l-.133 4.324M288.469 312.575h.01M178.998 400.602l-.066.066-.03.096-.018.104M189.296 410.304l-9.531-4.192M179.026 405.224l.02.116.048.123.067.133.096.124.105.124.124.107.135.085.144.078M178.884 400.868l.142 4.356" style="fill:none;stroke:red;stroke-width:1.99999;stroke-linecap:round;stroke-linejoin:round;stroke-miterlimit:4;stroke-dasharray:none;stroke-opacity:1;visibility:visible"/><path d="m272.125 504.57-.135-.076-.144-.048-.161-.02-.183.012-.201.037-.201.067-.22.085-.22.125-.23.144-.228.164M270.202 505.059l-.239.191-.232.21-.218.23-.22.24-.21.258-.201.267-.192.277-.172.288-.153.278-.135.288-.115.276-.095.268-.077.269-.046.247-.03.242v.207l.02.203.038.18.065.155.087.134.113.103M266 509.308l-.133-.076-.144-.048-.172-.017h-.181l-.203.037-.2.067-.22.096-.23.113-.23.144-.229.174M264.058 509.796l-.24.192-.23.21-.228.229-.219.248-.214.259-.2.269-.181.267-.173.288-.153.277-.134.287-.124.277-.096.268-.067.267-.046.249-.03.24-.01.22.017.192.051.18.065.153.087.135.105.104" style="fill:none;stroke:red;stroke-width:.999997;stroke-linecap:round;stroke-linejoin:round;stroke-miterlimit:4;stroke-dasharray:none;stroke-opacity:1;visibility:visible"/><path d="m261.159 516.466 1.644-1.283M261.16 516.466l-.223.152-.227.142-.24.135-.25.115-.248.105-.269.088-.266.075-.278.058-.277.047-.279.027-.286.02h-.288l-.287-.01-.287-.027-.277-.047-.277-.058-.279-.077-.268-.084-.257-.097-.248-.116-.24-.126-.23-.141-.219-.153-.213-.172-.19-.174-.163-.162-.144-.163-.133-.18-.115-.183M273.025 505.25l.057-2.667M208.203 399.598l64.735 102.485M188.572 368.52l10.217 16.17" style="fill:none;stroke:red;stroke-width:1.99999;stroke-linecap:round;stroke-linejoin:round;stroke-miterlimit:4;stroke-dasharray:none;stroke-opacity:1;visibility:visible"/><path d="M154.146 353.358v-.008h-.008v-.02h-.01v-.01l-.009-.01v-.009l-.011-.007v-.021h-.008v-.019h-.01v-.02h-.01v-.029h-.01v-.018l-.01-.01v-.03l-.006-.005v-.032h-.011v-.048l-.011-.01v-.085l-.019-.327M272.938 502.082l.01.01v.008l.011.01v.01h.009v.02h.006v.019h.013v.008l.008.012v.017h.01v.02h.01v.019l.01.01v.019l.01.009v.019h.008v.039h.01v.037h.01v.05l.01.008v.077l.009.01v.067M267.533 511.538l1.416-1.1" style="fill:none;stroke:red;stroke-width:.999997;stroke-linecap:round;stroke-linejoin:round;stroke-miterlimit:4;stroke-dasharray:none;stroke-opacity:1;visibility:visible"/><path d="m145.746 339.55-.21-4.313M145.533 335.237v-.154l.01-.01v-.039l.011-.01v-.026l.009-.012v-.02l.008-.007v-.029l.009-.01v-.01l.011-.01v-.02h.009v-.017l.011-.011v-.006l.009-.012v-.01l.009-.01v-.008l.01-.01v-.011h.011v-.009l.009-.008.008-.011v-.01l.011-.009.008-.008v-.01h.011v-.01l.008-.011.01-.008v-.01h.011l.009-.008v-.013h.008v-.007l.011-.011.01-.01h.009v-.009l.01-.009h.009v-.01h.011v-.011h.008l.009-.009v-.008h.011l.009-.009.009-.012h.01l.009-.009.011-.008h.009M145.86 339.925h0l-.01-.01v-.01h-.009v-.006l-.01-.013v-.019h-.008v-.017h-.01v-.021h-.01v-.019l-.008-.01v-.016h-.011v-.033h-.01v-.028l-.009-.01v-.026l-.01-.011v-.048h-.009v-.077M167.997 319.8l-22.107 14.736M153.477 352.278l-7.617-12.353" style="fill:none;stroke:red;stroke-width:1.99999;stroke-linecap:round;stroke-linejoin:round;stroke-miterlimit:4;stroke-dasharray:none;stroke-opacity:1;visibility:visible"/><path d="M154.013 352.642h-.01l-.009-.008h-.029l-.01-.01h-.026l-.012-.01h-.019l-.01-.011h-.018v-.01h-.02l-.01-.006h-.02v-.011h-.018v-.009h-.018v-.011h-.011l-.01-.009h-.008l-.011-.009h-.007l-.012-.01-.01-.011h-.006v-.009h-.011l-.01-.006h-.01v-.012h-.01v-.01h-.008v-.009h-.02v-.01h-.01v-.011h-.01v-.008h-.007v-.01h-.013v-.008h-.007v-.009h-.01v-.012h-.011v-.01h-.009v-.006h-.009v-.013l-.011-.01-.006-.008-.012-.009v-.01l-.01-.01-.01-.009-.009-.01v-.01l-.011-.008v-.011h-.008M192.07 365.494l-.085.048-.116.03h-.124l-.133-.021-.135-.058" style="fill:none;stroke:red;stroke-width:.999997;stroke-linecap:round;stroke-linejoin:round;stroke-miterlimit:4;stroke-dasharray:none;stroke-opacity:1;visibility:visible"/><path d="m203.269 393.827.57.333.571-.382M189.916 394.546l.57.333.57-.381M264.706 344.146l.57.333.572-.382M251.689 344.755l.57.335.571-.384" style="fill:none;stroke:red;stroke-width:.666665;stroke-linecap:round;stroke-linejoin:round;stroke-miterlimit:4;stroke-dasharray:none;stroke-opacity:1;visibility:visible"/><path d="m408.6 398.344 1.855-2.86M235.237 355.38l-11.464-9.465M237 335.791l3.318 15.511M254.202 515.46l9.817-.508M277.375 343.258l.759-6.496M272.47 347.255l-1.824-4.413M181.88 398.286l10.629 7.984" style="fill:none;stroke:red;stroke-width:.999997;stroke-linecap:round;stroke-linejoin:round;stroke-miterlimit:4;stroke-dasharray:none;stroke-opacity:1;visibility:visible"/><path d="m189.916 394.546 1.942-.719M251.689 344.755l1.921-.678" style="fill:none;stroke:red;stroke-width:.666665;stroke-linecap:round;stroke-linejoin:round;stroke-miterlimit:4;stroke-dasharray:none;stroke-opacity:1;visibility:visible"/><path d="m203.269 393.827-5.066-.121M264.706 344.146l-4.515-.481M189.38 410.343l-4.927-14.123M168.932 338.393l-3.35-10.258M168.932 338.393l-2.22-11.76" style="fill:none;stroke:red;stroke-width:.999997;stroke-linecap:round;stroke-linejoin:round;stroke-miterlimit:4;stroke-dasharray:none;stroke-opacity:1;visibility:visible"/><path d="M240.318 351.302 237 335.791M263.2 332.9l-7.719 6.206M255.481 339.106l7.719-6.206M278.134 336.762l-.759 6.496M277.375 343.258l8.15-6.638" style="fill:none;stroke:red;stroke-width:1.99999;stroke-linecap:round;stroke-linejoin:round;stroke-miterlimit:4;stroke-dasharray:none;stroke-opacity:1;visibility:visible"/><path d="m205.14 393.168-1.871.659M191.858 393.827l-1.942.719M178.998 400.602l12.058-6.104M266.489 343.446l-1.783.7M253.61 344.077l-1.921.678M253.12 341.006l-.29 3.7" style="fill:none;stroke:red;stroke-width:.666665;stroke-linecap:round;stroke-linejoin:round;stroke-miterlimit:4;stroke-dasharray:none;stroke-opacity:1;visibility:visible"/><path d="m238.978 153.576.143.057.152.048.173.02.181.01.173-.017.162-.041.144-.057.135-.076M235.934 151.938l3.044 1.636M240.23 159.968l.01-6.45M240.193 235.114l.03-52.266M240.154 305.025l.03-47.28M240.24 153.518l13.419-9.55" style="fill:none;stroke:#00ff4a;stroke-width:.999997;stroke-linecap:round;stroke-linejoin:round;stroke-miterlimit:4;stroke-dasharray:none;stroke-opacity:1;visibility:visible"/><path d="m235.629 151.528.018.092.04.088.055.09.088.073.104.067" style="fill:none;stroke:#00ff4a;stroke-width:1.99999;stroke-linecap:round;stroke-linejoin:round;stroke-miterlimit:4;stroke-dasharray:none;stroke-opacity:1;visibility:visible"/><path d="m172.778 213.85-.181-5.309M188.434 214.742l115.548-83.484M188.568 220.053l-.134-5.31M194.176 201.085l-.211-.093-.23-.087-.25-.068-.257-.05-.268-.017h-.267l-.27.029-.266.039-.249.067-.24.087-.209.102-.194.127-.172.133-.133.154-.115.161-.067.163-.037.173-.011.17.03.174.066.163.106.162.124.143.164.144.19.116.21.105.23.083.248.07.259.048.268.019h.277l.268-.03.26-.038.246-.069.24-.093.221-.107.193-.115.17-.142.133-.142.107-.165.076-.161.038-.174v-.172l-.03-.17-.064-.175-.096-.152-.135-.153-.161-.134-.192-.125M253.658 143.968l.095-.078.066-.085.039-.085.019-.098" style="fill:none;stroke:#00ff4a;stroke-width:.999997;stroke-linecap:round;stroke-linejoin:round;stroke-miterlimit:4;stroke-dasharray:none;stroke-opacity:1;visibility:visible"/><path d="m172.778 213.85.02.144.047.144.077.154.095.142.125.136.143.124.145.096.15.076 14.213 5.578" style="fill:none;stroke:#00ff4a;stroke-width:1.99999;stroke-linecap:round;stroke-linejoin:round;stroke-miterlimit:4;stroke-dasharray:none;stroke-opacity:1;visibility:visible"/><path d="m303.98 131.26.22-.183.2-.18.174-.192.133-.21.115-.209.085-.214.05-.218.028-.22M262.202 152.234l-.22-.104-.239-.086-.258-.067-.268-.05-.278-.017-.278-.01-.278.02-.276.038-.26.056-.247.086-.23.096-.201.116-.183.124-.152.142-.124.164-.096.163-.048.161-.03.172.021.172.049.172.074.164.115.162.143.146.183.134.201.124.22.102.239.09.258.065.268.051.278.027h.288l.276-.021.268-.038.258-.056.25-.079.229-.093.201-.126.183-.124.152-.144.124-.15.096-.166.057-.172.02-.17-.02-.174-.046-.172-.079-.164-.113-.153-.144-.152-.182-.133-.201-.126M183.314 215.362l-.02-.192-.048-.19-.076-.211-.114-.19-.124-.203-.154-.18-.172-.174-.192-.152-.19-.124-.202-.114-.21-.078-.2-.046-.192-.031-.183.012-.163.037-.142.067-.124.095-.096.125-.078.143-.038.164-.008.18.02.185.056.199.076.202.106.198.134.193.152.19.173.166.181.152.202.133.2.106.201.076.2.058.193.019.182-.01.162-.041.154-.063.114-.097.106-.116.066-.145.039-.159.01-.184M173.37 208.148l-.16-.047-.144-.017-.134.009-.116.048-.096.067-.066.094-.038.115-.02.124M173.372 208.149l14.248 5.57M188.434 214.742l-.02-.145-.046-.152-.078-.153-.105-.144-.115-.136-.144-.124-.153-.096-.153-.076M188.405 220.426l.067-.078.057-.086.03-.094.008-.115M187.792 220.444l.125.04.123.018h.116l.114-.018" style="fill:none;stroke:#00ff4a;stroke-width:.999997;stroke-linecap:round;stroke-linejoin:round;stroke-miterlimit:4;stroke-dasharray:none;stroke-opacity:1;visibility:visible"/><path d="m282.69 129.642-4.65 3.322M210.51 204.386l-18.47 13.398M232.307 188.589l-18.22 13.205M253.666 173.105l-17.979 13.032M274.603 157.92l-17.741 12.869M295.129 143.038l-17.511 12.7" style="fill:none;stroke:#00ff4a;stroke-width:1.99999;stroke-linecap:round;stroke-linejoin:round;stroke-miterlimit:4;stroke-dasharray:none;stroke-opacity:1;visibility:visible"/><path d="m293.349 122.025-10.659 7.616" style="fill:none;stroke:#00ff4a;stroke-width:.999997;stroke-linecap:round;stroke-linejoin:round;stroke-miterlimit:4;stroke-dasharray:none;stroke-opacity:1;visibility:visible"/><path d="m261.675 144.656-4.621 3.301" style="fill:none;stroke:#00ff4a;stroke-width:1.99999;stroke-linecap:round;stroke-linejoin:round;stroke-miterlimit:4;stroke-dasharray:none;stroke-opacity:1;visibility:visible"/><path d="m274.986 135.144-13.312 9.512" style="fill:none;stroke:#00ff4a;stroke-width:.999997;stroke-linecap:round;stroke-linejoin:round;stroke-miterlimit:4;stroke-dasharray:none;stroke-opacity:1;visibility:visible"/><path d="m239.786 160.288-4.139 2.952" style="fill:none;stroke:#00ff4a;stroke-width:1.99999;stroke-linecap:round;stroke-linejoin:round;stroke-miterlimit:4;stroke-dasharray:none;stroke-opacity:1;visibility:visible"/><path d="m253.83 150.264-14.044 10.024" style="fill:none;stroke:#00ff4a;stroke-width:.999997;stroke-linecap:round;stroke-linejoin:round;stroke-miterlimit:4;stroke-dasharray:none;stroke-opacity:1;visibility:visible"/><path d="m217.754 176.026-3.953 2.822" style="fill:none;stroke:#00ff4a;stroke-width:1.99999;stroke-linecap:round;stroke-linejoin:round;stroke-miterlimit:4;stroke-dasharray:none;stroke-opacity:1;visibility:visible"/><path d="m232.231 165.692-14.476 10.333" style="fill:none;stroke:#00ff4a;stroke-width:.999997;stroke-linecap:round;stroke-linejoin:round;stroke-miterlimit:4;stroke-dasharray:none;stroke-opacity:1;visibility:visible"/><path d="m195.44 191.968-3.926 2.804" style="fill:none;stroke:#00ff4a;stroke-width:1.99999;stroke-linecap:round;stroke-linejoin:round;stroke-miterlimit:4;stroke-dasharray:none;stroke-opacity:1;visibility:visible"/><path d="m187.688 197.509-14.92 10.66M210.183 181.429l-14.743 10.537" style="fill:none;stroke:#00ff4a;stroke-width:.999997;stroke-linecap:round;stroke-linejoin:round;stroke-miterlimit:4;stroke-dasharray:none;stroke-opacity:1;visibility:visible"/><path d="m295.655 123.213-2.295-1.188" style="fill:none;stroke:#00ff4a;stroke-width:1.99999;stroke-linecap:round;stroke-linejoin:round;stroke-miterlimit:4;stroke-dasharray:none;stroke-opacity:1;visibility:visible"/><path d="m231.982 159.384.098-.079.075-.095.038-.094.02-.096M213.963 167.518l3.044 1.664M218.355 175.602l-.065-6.468M219.111 250.922l-.526-52.384M219.81 320.949l-.479-47.356M218.289 169.136l13.693-9.75" style="fill:none;stroke:#00ff4a;stroke-width:.999997;stroke-linecap:round;stroke-linejoin:round;stroke-miterlimit:4;stroke-dasharray:none;stroke-opacity:1;visibility:visible"/><path d="m213.658 167.106.019.096.037.086.057.086.087.076.105.068" style="fill:none;stroke:#00ff4a;stroke-width:1.99999;stroke-linecap:round;stroke-linejoin:round;stroke-miterlimit:4;stroke-dasharray:none;stroke-opacity:1;visibility:visible"/><path d="m175.238 289.073-.162-4.918M175.812 283.81l-.143-.045-.144-.022-.135.01-.113.03-.087.067-.068.075-.037.105-.01.125M175.812 283.81l13.733 5.628M190.442 295.334l-.114-4.93M217.007 169.182l.143.068.163.046.173.021.181.01.173-.021.173-.038.142-.056.135-.076" style="fill:none;stroke:#00ff4a;stroke-width:.999997;stroke-linecap:round;stroke-linejoin:round;stroke-miterlimit:4;stroke-dasharray:none;stroke-opacity:1;visibility:visible"/><path d="m175.238 289.073.019.133.037.144.078.144.096.136.124.123.134.116.144.096.143.077 13.685 5.624" style="fill:none;stroke:#00ff4a;stroke-width:1.99999;stroke-linecap:round;stroke-linejoin:round;stroke-miterlimit:4;stroke-dasharray:none;stroke-opacity:1;visibility:visible"/><path d="m301.053 205.009.2-.164.172-.18.144-.183.105-.2.086-.202.046-.21.021-.209-.021-.21-.046-.211-.08-.212-.11-.202-.136-.188-.17-.184-.194-.172-.229-.161-.239-.144M189.545 289.438l111.509-84.428M190.328 290.403l-.02-.133-.045-.144-.078-.133-.096-.143-.115-.127-.134-.113-.154-.105-.141-.067M190.309 295.658l.057-.067.05-.077.026-.088v-.092M189.697 295.666l.123.039.125.028h.105l.106-.008" style="fill:none;stroke:#00ff4a;stroke-width:.999997;stroke-linecap:round;stroke-linejoin:round;stroke-miterlimit:4;stroke-dasharray:none;stroke-opacity:1;visibility:visible"/><path d="m281.146 204.413-4.495 3.37M211.56 279.495l-17.767 13.512M232.557 263.543l-17.55 13.34M253.14 247.889l-17.33 13.176M273.33 232.54l-17.11 13.014M293.149 217.477l-16.91 12.853" style="fill:none;stroke:#00ff4a;stroke-width:1.99999;stroke-linecap:round;stroke-linejoin:round;stroke-miterlimit:4;stroke-dasharray:none;stroke-opacity:1;visibility:visible"/><path d="m291.435 196.702-10.289 7.711" style="fill:none;stroke:#00ff4a;stroke-width:.999997;stroke-linecap:round;stroke-linejoin:round;stroke-miterlimit:4;stroke-dasharray:none;stroke-opacity:1;visibility:visible"/><path d="m260.673 219.766-4.26 3.196" style="fill:none;stroke:#00ff4a;stroke-width:1.99999;stroke-linecap:round;stroke-linejoin:round;stroke-miterlimit:4;stroke-dasharray:none;stroke-opacity:1;visibility:visible"/><path d="m273.714 209.985-13.041 9.78" style="fill:none;stroke:#00ff4a;stroke-width:.999997;stroke-linecap:round;stroke-linejoin:round;stroke-miterlimit:4;stroke-dasharray:none;stroke-opacity:1;visibility:visible"/><path d="m239.715 235.478-3.942 2.956" style="fill:none;stroke:#00ff4a;stroke-width:1.99999;stroke-linecap:round;stroke-linejoin:round;stroke-miterlimit:4;stroke-dasharray:none;stroke-opacity:1;visibility:visible"/><path d="m253.293 225.296-13.579 10.18" style="fill:none;stroke:#00ff4a;stroke-width:.999997;stroke-linecap:round;stroke-linejoin:round;stroke-miterlimit:4;stroke-dasharray:none;stroke-opacity:1;visibility:visible"/><path d="m218.669 251.252-3.942 2.953" style="fill:none;stroke:#00ff4a;stroke-width:1.99999;stroke-linecap:round;stroke-linejoin:round;stroke-miterlimit:4;stroke-dasharray:none;stroke-opacity:1;visibility:visible"/><path d="m232.48 240.902-13.812 10.35" style="fill:none;stroke:#00ff4a;stroke-width:.999997;stroke-linecap:round;stroke-linejoin:round;stroke-miterlimit:4;stroke-dasharray:none;stroke-opacity:1;visibility:visible"/><path d="m197.2 267.342-3.935 2.95" style="fill:none;stroke:#00ff4a;stroke-width:1.99999;stroke-linecap:round;stroke-linejoin:round;stroke-miterlimit:4;stroke-dasharray:none;stroke-opacity:1;visibility:visible"/><path d="m189.592 273.046-14.374 10.775M211.246 256.815l-14.045 10.527" style="fill:none;stroke:#00ff4a;stroke-width:.999997;stroke-linecap:round;stroke-linejoin:round;stroke-miterlimit:4;stroke-dasharray:none;stroke-opacity:1;visibility:visible"/><path d="m293.666 197.909-2.22-1.207" style="fill:none;stroke:#00ff4a;stroke-width:1.99999;stroke-linecap:round;stroke-linejoin:round;stroke-miterlimit:4;stroke-dasharray:none;stroke-opacity:1;visibility:visible"/><path d="m187.285 191.182.095-.086.077-.096.048-.106.019-.114M168.338 199.249l.019.095.037.086.059.088.085.075.107.067M171.697 201.402l.143.068.162.046.183.02.181.01.174-.02.172-.048.162-.057.134-.076M178.176 364.507l.046-.046.03-.067.018-.077.01-.087M173.218 207.842l-.21-6.498M175.669 283.486l-2.23-68.686M177.937 353.706l-2.057-63.732M178.28 364.231l-.143-4.45M173.008 201.344l14.277-10.164M168.645 199.661l3.052 1.743M260.5 138.272l.133.06.164.05.172.018.17.01.174-.023.162-.037.143-.057.125-.077M257.466 136.674l3.033 1.598M261.675 144.656l.068-6.44M260.873 219.622l.554-52.152M260.117 289.409l.506-47.205M261.743 138.216l13.159-9.35" style="fill:none;stroke:#00ff4a;stroke-width:.999997;stroke-linecap:round;stroke-linejoin:round;stroke-miterlimit:4;stroke-dasharray:none;stroke-opacity:1;visibility:visible"/><path d="m257.16 136.256.008.096.039.096.067.085.087.077.104.066" style="fill:none;stroke:#00ff4a;stroke-width:1.99999;stroke-linecap:round;stroke-linejoin:round;stroke-miterlimit:4;stroke-dasharray:none;stroke-opacity:1;visibility:visible"/><path d="m178.272 359.846-.144-.076-.143-.093-.125-.107-.115-.123-.096-.134-.067-.135-.046-.133-.02-.126M177.373 354.355l.143 4.565M194.836 349.522l-.183-.124-.144-.135-.124-.153-.096-.163-.057-.172-.028-.172v-.172l.038-.173.066-.172.096-.161.134-.155.154-.133.18-.127.203-.104.218-.087.232-.065.239-.05.248-.026h.258l.25.027.238.04.23.065.21.09.2.105.173.122.154.133.124.154.087.163.065.172.029.173v.17l-.038.174-.068.172-.105.161-.122.155-.155.133-.181.127-.201.104-.22.096-.23.065-.25.051-.246.017h-.249l-.25-.017-.239-.051-.229-.065-.222-.087-.19-.105M209.869 175.125l.094-.087.077-.094.04-.106.02-.097M191.237 183.01l.019.095.038.087.058.086.085.076.097.067M194.586 185.125l.154.067.16.048.175.018.171.012.182-.021.172-.04.153-.067.124-.074M191.533 183.421l3.053 1.704M196.022 191.556l-.144-6.488M197.6 267.037l-1.1-52.488M199.074 337.169l-.996-47.424M195.878 185.068l13.99-9.943M281.586 123.277l.136.06.163.047.173.018.17.012.164-.02.163-.041.142-.055.125-.066M278.25 121.3l.01.095.037.085.066.088.088.076.114.068M278.565 121.712l3.022 1.565M282.69 129.642l.133-6.409M281.147 204.416l1.073-52.018M279.714 274.09l.967-47.138M282.823 123.233l10.66-7.59M295.637 116.87v-.27l-.028-.25-.05-.228-.066-.211-.086-.181-.106-.153-.124-.134-.143-.096-.154-.067-.171-.049h-.183l-.192.019-.21.059-.209.076-.211.115-.221.144M274.9 128.87l.087-.08.066-.085.037-.085.011-.096" style="fill:none;stroke:#00ff4a;stroke-width:.999997;stroke-linecap:round;stroke-linejoin:round;stroke-miterlimit:4;stroke-dasharray:none;stroke-opacity:1;visibility:visible"/><path d="m178.272 359.846 3.77 1.621" style="fill:none;stroke:#00ff4a;stroke-width:1.99999;stroke-linecap:round;stroke-linejoin:round;stroke-miterlimit:4;stroke-dasharray:none;stroke-opacity:1;visibility:visible"/><path d="m188.95 353.522-.192-.135-.17-.154-.146-.16-.116-.184-.074-.18-.058-.192-.02-.192.02-.192.048-.19.076-.19.115-.183.144-.173.163-.154.19-.142.22-.124.23-.107.258-.095.259-.065.268-.04.277-.029.278.009.277.02.268.048.259.067.249.085.23.116.199.123.184.145.162.161.125.172.095.173.066.193.039.192v.192l-.028.2-.067.189-.096.184-.125.17-.152.166-.183.152-.2.135-.23.124-.24.093-.258.077-.268.058-.276.029-.278.01-.278-.011-.27-.036-.265-.06-.251-.074-.238-.097-.22-.124M193.246 350.145l-.268-.182-.25-.192-.209-.21-.191-.231-.162-.237-.126-.24-.104-.259-.06-.258-.036-.258.009-.268.028-.257.067-.26.106-.26.134-.235.162-.241.192-.23.22-.222.248-.2.268-.18.288-.175.316-.15.326-.127.344-.113.364-.087.362-.067.374-.048.374-.019h.374l.372.031.371.045.365.067.346.096.334.115.324.133.298.153.277.172.26.194.237.2.202.22.172.23.143.239.113.248.09.258.046.26.019.257-.019.269-.046.257-.088.259-.115.25-.143.248-.183.23-.199.22-.241.212-.256.198-.278.173-.307.165-.316.141-.344.124-.345.098-.365.076-.371.057-.373.036-.383.011-.375-.021-.372-.034-.364-.059-.362-.077-.346-.104-.324-.127-.317-.149-.287-.165M191.324 359.706l107.613-85.004M187.324 360.862l-.01.152-.038.136-.067.124-.096.096-.116.076-.132.048-.153.02h-.174l-.172-.03-.192-.058-.19-.086-.181-.105-.183-.124-.172-.136-.163-.162-.145-.163-.112-.18-.108-.173-.066-.182-.048-.17-.018-.165.009-.153.039-.144.057-.113.096-.095.113-.078.136-.048.152-.029.174.01.18.031.182.056.19.076.194.106.18.124.172.143.154.152.144.175.125.17.095.182.077.182.048.173.019.162M177.373 354.355l.01-.115.037-.095.058-.078.095-.056.104-.028h.125l.135.018.143.048M178.08 354.047l13.244 5.658M191.324 359.706l.142.074.146.097.124.105.114.123.095.135.068.134.047.135.02.124" style="fill:none;stroke:#00ff4a;stroke-width:.999997;stroke-linecap:round;stroke-linejoin:round;stroke-miterlimit:4;stroke-dasharray:none;stroke-opacity:1;visibility:visible"/><path d="m192.08 360.633.105 4.66-.019.077-.036.065-.06.059M192.422 353.234l-.105-.141-.113-.126-.126-.105-.133-.096-.125-.056-.143-.048-.135-.028-.144-.01-.133.009-.125.017-.123.04-.117.048-.103.057-.105.076-.087.079-.085.084-.078.096-.066.104-.04.116-.026.117-.011.113.019.126.047.113.068.106M199.076 337.17l13.154-10.29M177.486 354.06l13.866-10.856" style="fill:none;stroke:#00ff4a;stroke-width:.999997;stroke-linecap:round;stroke-linejoin:round;stroke-miterlimit:4;stroke-dasharray:none;stroke-opacity:1;visibility:visible"/><path d="m192.318 353.331-.162-.144-.134-.162-.124-.163-.106-.163" style="fill:none;stroke:#00ff4a;stroke-width:.999997;stroke-linecap:round;stroke-linejoin:round;stroke-miterlimit:4;stroke-dasharray:none;stroke-opacity:1;visibility:visible"/><path d="m194.893 340.44 4.183-3.27" style="fill:none;stroke:#00ff4a;stroke-width:1.99999;stroke-linecap:round;stroke-linejoin:round;stroke-miterlimit:4;stroke-dasharray:none;stroke-opacity:1;visibility:visible"/><path d="m219.811 320.949 12.899-10.095" style="fill:none;stroke:#00ff4a;stroke-width:.999997;stroke-linecap:round;stroke-linejoin:round;stroke-miterlimit:4;stroke-dasharray:none;stroke-opacity:1;visibility:visible"/><path d="m215.59 324.251 4.221-3.304" style="fill:none;stroke:#00ff4a;stroke-width:1.99999;stroke-linecap:round;stroke-linejoin:round;stroke-miterlimit:4;stroke-dasharray:none;stroke-opacity:1;visibility:visible"/><path d="m240.154 305.029 12.65-9.899" style="fill:none;stroke:#00ff4a;stroke-width:.999997;stroke-linecap:round;stroke-linejoin:round;stroke-miterlimit:4;stroke-dasharray:none;stroke-opacity:1;visibility:visible"/><path d="m235.887 308.366 4.267-3.339" style="fill:none;stroke:#00ff4a;stroke-width:1.99999;stroke-linecap:round;stroke-linejoin:round;stroke-miterlimit:4;stroke-dasharray:none;stroke-opacity:1;visibility:visible"/><path d="m260.117 289.41 12.41-9.705" style="fill:none;stroke:#00ff4a;stroke-width:.999997;stroke-linecap:round;stroke-linejoin:round;stroke-miterlimit:4;stroke-dasharray:none;stroke-opacity:1;visibility:visible"/><path d="m255.81 292.778 4.307-3.367" style="fill:none;stroke:#00ff4a;stroke-width:1.99999;stroke-linecap:round;stroke-linejoin:round;stroke-miterlimit:4;stroke-dasharray:none;stroke-opacity:1;visibility:visible"/><path d="m279.709 274.085 9.946-7.775" style="fill:none;stroke:#00ff4a;stroke-width:.999997;stroke-linecap:round;stroke-linejoin:round;stroke-miterlimit:4;stroke-dasharray:none;stroke-opacity:1;visibility:visible"/><path d="m289.655 266.309 2.155 1.214M275.369 277.477l4.34-3.392" style="fill:none;stroke:#00ff4a;stroke-width:1.99999;stroke-linecap:round;stroke-linejoin:round;stroke-miterlimit:4;stroke-dasharray:none;stroke-opacity:1;visibility:visible"/><path d="m191.294 341.015 2.019.66" style="fill:none;stroke:#00ff4a;stroke-width:.999997;stroke-linecap:round;stroke-linejoin:round;stroke-miterlimit:4;stroke-dasharray:none;stroke-opacity:1;visibility:visible"/><path d="m253.83 150.264.047-6.642M253.293 225.296l.372-52.191M252.805 295.13l.334-47.242M249.438 141.27h.008l.01-.013h.011l.009-.007.008-.009h.01l.01-.01.011-.011h.009l.006-.009h.013l.01-.011h.009l.008-.009h.01l.012-.006h.018l.01-.011h.008l.009-.013h.02l.009-.008h.02l.01-.008h.028l.01-.01h.028l.01-.011h.038l.01-.009h.078l.008-.008h.087l.009.009h.085l.011.01h.036l.01.007h.031l.009.012h.03l.008.008h.02l.008.01h.02l.01.009h.008l.011.011h.018v.01h.01l.01.009h.01l.008.008h.01M253.397 142.82l.01.01h.011l.008.007h.01l.011.011.009.01.008.01h.01l.01.008h.008v.01h.011l.01.008.009.011h.01l.01.01v.009h.008l.011.009h.009v.01l.01.012.01.009h.008v.008l.01.01h.011l.009.01v.01l.008.008h.01v.01l.01.01.01.007.009.013.01.007v.013l.01.007.008.01.01.011v.007l.01.01v.011h.01v.009l.01.01v.009l.008.009v.011l.01.009v.011h.009v.007l.011.011v.01l.009.009v.011l.01.008v.02l.01.007v.02l.008.01v.011l.01.009v.021l.01.005v.021l.009.011v.028l.01.01v.047l.01.01v.086l.008.01v.046M235.647 163.24l-.017-11.712M235.773 238.434l-.086-52.296M235.887 308.366l-.077-47.301M249.438 141.27l-13.427 9.52M253.397 142.82l-3.034-1.61M235.629 151.528v-.079l.01-.007v-.068l.007-.01v-.038l.011-.009v-.03l.01-.008v-.029h.008v-.02l.011-.008v-.022l.01-.008v-.008l.008-.012v-.019h.011v-.017l.007-.01v-.011l.012-.009v-.01l.01-.009v-.011h.008v-.009l.011-.007v-.01l.007-.013.011-.007v-.01l.009-.01.011-.01v-.007h.009v-.012l.008-.01v-.006h.012v-.011l.009-.01h.009v-.011l.011-.008.007-.01.011-.009.01-.011v-.008h.007l.012-.011v-.008h.01l.008-.01.011-.01.007-.01.012-.01h.008v-.008h.01l.012-.01h.007v-.01l.01-.01h.009" style="fill:none;stroke:#00ff4a;stroke-width:1.99999;stroke-linecap:round;stroke-linejoin:round;stroke-miterlimit:4;stroke-dasharray:none;stroke-opacity:1;visibility:visible"/><path d="m188.272 220.484.066-.02.067-.038" style="fill:none;stroke:#00ff4a;stroke-width:.999997;stroke-linecap:round;stroke-linejoin:round;stroke-miterlimit:4;stroke-dasharray:none;stroke-opacity:1;visibility:visible"/><path d="M213.658 167.106v-.04l.008-.006v-.1l.01-.007v-.039l.011-.009v-.039h.009v-.028l.009-.01v-.028h.009v-.02l.01-.009v-.019l.011-.009v-.01l.009-.01v-.01l.008-.011v-.006l.011-.012v-.008l.008-.01v-.011l.011-.007v-.012l.01-.008v-.01h.008v-.013l.01-.008v-.007h.01v-.01l.01-.012v-.008h.008v-.012l.012-.006.009-.01.007-.01v-.012h.012v-.006l.008-.01.01-.012.011-.008.009-.009.008-.01.011-.009.01-.009.01-.01.007-.01.012-.007h.01l.006-.013v-.01h.012l.01-.008.008-.011h.01l.01-.008M227.753 156.648l-13.714 9.712M213.8 178.848l-.141-11.742M214.729 254.205l-.64-52.41M215.59 324.251l-.584-47.368M231.734 158.225l.008.01h.01l.011.006h.009v.013h.008l.01.011h.01l.01.008.008.01h.009v.008h.013l.007.011h.011l.01.01v.01h.008l.011.01.008.008.011.008.01.012h.009v.01l.009.008h.01l.008.01v.01l.011.012h.01v.006l.01.01.007.009.012.013.008.008v.008l.01.01.01.01.01.01v.01l.008.01v.007h.011l.008.011v.01l.011.008v.01l.01.01v.01h.008v.008l.011.01v.012l.009.01v.015l.011.013v.008l.007.01v.008l.011.012v.01l.01.008v.021l.009.008v.028l.011.01v.019l.006.011v.036l.011.01v.041l.011.007v.115l.009.01M227.753 156.648l.01-.01v-.011h.009l.011-.009h.007l.01-.01h.01l.01-.01.01-.006.009-.01h.021l.007-.012h.011l.01-.008h.008l.011-.009h.007l.011-.012h.02l.01-.008h.019l.007-.01h.021l.01-.012h.018l.01-.009h.028l.011-.008h.037l.009-.009h.077l.01-.01h.116l.009.009h.076l.01.011h.038l.009.006h.03l.01.011h.019l.01.01h.019l.008.011h.019l.01.008h.02l.009.012h.009l.01.01h.01l.01.007h.007v.011h.011l.009.01M232.231 165.692l-.018-6.672M232.48 240.902l-.175-52.312M232.709 310.853l-.152-47.31M231.734 158.225l-3.043-1.635M303.234 127.125l-7.579-3.913M191.514 194.772l-3.828 2.736M213.8 178.848l-3.616 2.582M235.647 163.24l-3.417 2.452M257.054 147.958l-3.224 2.306M278.04 132.962l-3.054 2.182M303.234 127.125l.23.125.219.144.213.143.189.163.174.172.161.181.134.181.124.203.107.21.075.209.058.182.039.202.02.192.008.201M304.813 134.866l-.01.174-.03.18-.037.174-.059.172-.064.164-.107.21-.126.19-.142.182-.152.173-.136.132-.143.117-.152.114M192.04 217.784l-3.635 2.64M214.087 201.794l-3.577 2.592M235.686 186.138l-3.379 2.452M256.862 170.79l-3.196 2.315M277.618 155.738l-3.015 2.182M303.657 136.848l-8.528 6.19M304.813 134.866l.172-5.233" style="fill:none;stroke:#00ff4a;stroke-width:1.99999;stroke-linecap:round;stroke-linejoin:round;stroke-miterlimit:4;stroke-dasharray:none;stroke-opacity:1;visibility:visible"/><path d="m190.156 295.725.077-.028.076-.039" style="fill:none;stroke:#00ff4a;stroke-width:.999997;stroke-linecap:round;stroke-linejoin:round;stroke-miterlimit:4;stroke-dasharray:none;stroke-opacity:1;visibility:visible"/><path d="M183.018 188.34h.008l.01-.01.011-.01h.009v-.008h.01l.01-.01.009-.012h.01l.008-.006h.011l.01-.011h.009l.01-.01h.017l.01-.012h.01l.01-.006h.01l.009-.012h.019l.01-.008h.019l.01-.01h.019l.009-.01h.019l.01-.008h.03l.009-.01h.054l.011-.011h.251l.009.011h.038l.01.009h.029l.01.011h.026l.011.006h.02l.008.012h.02l.009.008h.01l.011.012h.018l.009.007h.01l.01.01h.009l.01.011h.01l.009.01h.008l.011.007 3.052 1.716M187.046 190.006h.01l.01.008h.008l.01.011h.011v.01h.009l.01.008.01.01h.008l.01.01.01.009h.01l.008.009.01.01.01.011.01.009h.009v.009l.01.008h.009l.011.012v.009h.006l.011.01v.009h.011l.009.011v.006l.01.011h.01v.009l.009.01.01.012.008.009.01.008v.012l.01.008.011.008.009.012v.009l.008.01v.008h.009v.009l.01.013v.008l.012.008v.01l.008.011.01.008v.012l.009.009v.017l.01.011v.008l.009.011v.01l.011.01v.007l.006.01v.021l.011.007v.031l.011.008v.02l.009.01v.038l.01.01v.028l.01.01v.095l.009.01v.011M168.732 198.464l14.286-10.124M187.688 197.509l-.163-6.728M189.592 273.046l-1.32-52.561M191.352 343.206l-1.196-47.48M168.338 199.249v-.067l.008-.01v-.087l.01-.007v-.05l.011-.01v-.028l.009-.011v-.017l.009-.009v-.03l.01-.01v-.012l.009-.007v-.018l.011-.011v-.019l.008-.009.01-.01v-.017l.01-.011v-.009l.011-.011.009-.008v-.011l.008-.009v-.011l.009-.009.01-.01v-.009l.01-.01v-.008h.01v-.01l.01-.011v-.007h.01l.008-.01v-.011l.01-.008.01-.012.01-.01v-.008h.009v-.01l.01-.008h.008v-.01l.011-.011h.01v-.009l.009-.009h.01v-.011l.009-.008h.009l.01-.009v-.01h.01l.009-.01.01-.008.008-.013h.01l.01-.008.01-.01M173.985 362.106l-5.645-162.857M178.176 364.507l3.864-3.04M174.376 362.794v-.01h-.02l-.007-.008-.012-.011h-.01v-.009h-.007l-.011-.011v-.009h-.01l-.009-.011-.01-.007h-.01v-.009h-.01l-.007-.01v-.012h-.013l-.007-.007-.01-.01v-.008h-.009l-.011-.012v-.008h-.008v-.01h-.011l-.009-.011v-.009h-.011v-.011l-.007-.009v-.006h-.009v-.011l-.011-.012-.01-.008v-.01h-.008v-.009l-.011-.011v-.007h-.009v-.021l-.011-.01-.008-.01v-.007l-.011-.012v-.01l-.01-.008v-.018h-.009v-.02l-.01-.01v-.008l-.007-.013v-.017l-.011-.01v-.019l-.01-.009v-.021l-.009-.01v-.035l-.009-.012v-.048l-.01-.009v-.075M178.176 364.507h-.011l-.01.01v.009h-.006l-.012.012-.01.008h-.011l-.009.01h-.008l-.011.01-.008.008h-.011l-.009.012h-.01l-.01.008h-.01v.01h-.007l-.011.008h-.009l-.011.013h-.015l-.013.005h-.01l-.018.011h-.02l-.007.009h-.021l-.01.012h-.028l-.01.01h-.04l-.007.008h-.068l-.01.01h-.132l-.011-.01h-.067l-.01-.008h-.037l-.011-.011h-.019l-.008-.011h-.03l-.01-.008h-.007l-.011-.01h-.02l-.01-.008h-.009l-.009-.011h-.018l-.011-.01h-.01l-.009-.01h-.009l-.01-.006h-.011l-.009-.013-.008-.01h-.011l-.01-.006M174.376 362.794l2.822 1.761M300.986 201.88l-7.32-3.972M193.266 270.291l-3.674 2.754M214.729 254.205l-3.483 2.61M235.773 238.434l-3.293 2.47M256.413 222.962l-3.12 2.335M276.651 207.782l-2.937 2.203M300.986 201.88l.22.134.212.136.2.151.181.163.163.173.153.17.135.193.113.192.097.2.077.201.057.19.036.194.021.197v.192M302.498 209.249l-.01.172-.028.183-.039.172-.058.172-.066.172-.087.16-.096.166-.104.152-.116.143-.124.135-.18.173-.193.161M193.792 293.009l-3.483 2.65M215.006 276.882l-3.445 2.612M235.81 261.065l-3.252 2.478M256.222 245.553l-3.081 2.335M276.24 230.33l-2.91 2.21M301.397 211.21l-8.25 6.267M302.498 209.249l.152-4.881M182.042 361.466l9.435 4.027M210.183 181.429l-.085-6.688M211.246 256.815l-.736-52.429M212.231 326.882l-.67-47.385M205.61 172.33l.01-.008h.01l.008-.01.01-.01h.012l.007-.01h.011l.01-.008.008-.01h.011l.007-.01h.012l.01-.01h.008l.009-.009h.012l.01-.01h.017l.011-.009h.007l.011-.009h.019l.01-.012h.018l.011-.008h.019l.008-.01h.031l.008-.008h.038l.01-.011h.087l.009-.008h.096l.01.008h.085l.01.01h.038l.011.01h.026l.011.01h.021l.007.006h.019l.01.013h.02l.01.008h.02l.007.01h.011l.008.011h.011l.01.009h.007l.011.008h.011l.009.011h.008M209.62 173.948l.008.01h.011l.008.01h.011l.01.008h.008v.01l.011.01h.009l.009.01h.01v.01h.011l.008.009.01.008h.009v.01h.011l.008.011.011.009h.009v.009l.008.011h.01v.01l.01.007.011.011h.009v.009l.01.012h.009v.006l.009.012.011.009v.01h.007l.011.009v.012l.01.009.01.005.01.011v.011l.007.009v.009h.011v.011l.01.008.007.011v.01l.011.008v.01h.01v.01l.01.008v.018l.01.012v.01l.008.01v.008h.01v.02l.009.012v.018l.01.009v.01l.01.01v.025l.01.012v.018l.01.01v.039l.01.01v.039l.008.006v.08l.011.008v.038M191.514 194.772l-.277-11.762M193.266 270.291l-1.224-52.507M194.893 340.44l-1.101-47.43M205.61 172.33l-13.99 9.914M209.62 173.948l-3.046-1.674M191.237 183.01v-.105l.01-.01v-.068h.01v-.038l.008-.01v-.029l.01-.008v-.02l.011-.008v-.028l.009-.01v-.02h.009v-.019l.009-.01v-.009l.01-.009v-.012l.009-.008v-.01l.011-.009v-.02h.008v-.011l.009-.005v-.011l.01-.013.01-.006v-.01l.01-.01v-.011h.008v-.01l.01-.006v-.012h.012l.009-.01v-.01l.008-.008.01-.01v-.011h.012l.007-.009v-.008l.01-.009h.011v-.012l.009-.008h.009v-.01l.01-.01h.008v-.01h.011l.008-.01v-.008h.01l.01-.009v-.01h.01l.01-.01h.01v-.011h.008l.01-.006.01-.012M294.737 114.199l.162.097.144.113.143.126.124.144.116.151.096.16.085.178.068.179.066.218.049.242.028.237.019.26v.24M295.655 123.213l.182-6.668M293.666 197.909l1.464-54.87M291.809 267.525l1.338-50.048M294.737 114.199l-3.024-1.542M289.293 113.03l.21-.141.21-.116.221-.105.22-.085.23-.07.171-.03.183-.015.17-.013.164.012.173.017.162.048.154.05.153.075M278.25 121.3v-.067l.01-.01v-.06l.008-.006v-.041l.01-.008v-.03l.01-.009v-.029h.009v-.02l.009-.007v-.021l.01-.008v-.02h.012v-.008l.007-.01v-.021h.01v-.02l.009-.008.01-.011v-.017h.008v-.009l.013-.01v-.012h.008v-.009l.009-.008v-.01h.01v-.011l.011-.01.009-.005v-.011h.008v-.014l.01-.007.01-.008v-.012h.01l.008-.01v-.006h.01v-.011l.012-.011h.007v-.009h.01v-.009l.01-.009h.01v-.01h.008l.01-.009v-.011h.01l.01-.009.01-.011h.009v-.01h.01l.008-.008.011-.008M289.293 113.03l-10.67 7.56M278.04 132.962l.21-11.662M276.651 207.782l.969-52.044M275.369 277.477l.87-47.147M274.986 135.144l.115-6.622M273.714 209.985l.89-52.067M272.527 279.706l.803-47.166M270.69 126.216l.01-.01.008-.009h.01l.01-.01.011-.008h.009l.009-.009h.011l.008-.01h.01v-.01h.01l.01-.01h.008l.01-.01h.019l.009-.01h.01l.01-.008h.018l.01-.01h.012l.009-.011h.018l.011-.009h.027l.009-.01h.03l.008-.007h.05l.008-.013h.24l.01.013h.038l.01.007h.036l.011.01h.019l.01.01h.028l.01.01h.01l.009.009h.011l.006.009h.021l.011.01h.01l.006.008h.023l.008.012M274.631 127.73h.01l.009.01.011.008h.009l.01.01h.008l.011.008.011.011h.007v.01h.01l.011.008h.01l.008.01v.01h.01l.01.012.008.007h.011v.01l.008.01h.011l.01.008v.011h.01l.008.01.01.009v.011h.011l.009.008v.011l.008.009h.009v.009l.011.01.009.008.01.01.011.01v.01l.008.01v.008h.01l.01.011v.013l.009.004v.011l.01.01v.008h.01v.011l.008.01v.01l.01.009v.009l.009.01v.009l.01.009v.02h.011v.01l.009.008v.02l.008.008v.022l.011.008v.02l.008.01v.026l.011.011v.03l.01.009v.048l.009.01v.123M257.054 147.958l.105-11.702M256.413 222.962l.449-52.172M255.81 292.778l.41-47.224M270.69 126.216l-13.157 9.321M274.631 127.73l-3.024-1.58M257.16 136.256v-.116l.008-.009v-.037l.01-.011v-.026l.01-.013v-.036l.009-.01v-.012l.011-.008v-.028h.006v-.02l.011-.009v-.009l.01-.01v-.011l.01-.007v-.01l.009-.011v-.009l.01-.009v-.01l.011-.009v-.011l.009-.008.008-.011v-.01l.01-.008.01-.01v-.01l.008-.008.01-.01v-.01h.011v-.01l.009-.008.01-.01v-.011h.01l.01-.009v-.009h.006v-.01l.012-.01.01-.009.008-.01.01-.012h.01v-.008l.011-.008h.009v-.012h.008l.011-.006v-.01h.01l.008-.011.01-.009h.01v-.008h.009l.01-.01M300.335 278.547l-.01.183-.028.181-.04.183-.055.172-.068.164-.087.169-.086.156-.104.155-.127.149-.123.135-.153.153-.172.144M192.07 365.494l107.213-85.001M291.809 267.525l7.08 4.01M272.527 279.706l2.843-2.23M252.805 295.13l3.005-2.353M232.709 310.853l3.177-2.487M212.231 326.882l3.36-2.63M191.352 343.206l3.54-2.766M298.89 271.535l.21.135.203.135.179.152.183.163.162.17.134.17.134.186.106.192.096.188.076.212.047.182.039.201.018.189v.203M300.478 274.013l-.141 4.534" style="fill:none;stroke:#00ff4a;stroke-width:1.99999;stroke-linecap:round;stroke-linejoin:round;stroke-miterlimit:4;stroke-dasharray:none;stroke-opacity:1;visibility:visible"/><path d="m232.231 165.692 7.992 17.156M232.48 240.902l7.704 16.843M187.62 213.716l6.556-12.631M187.046 190.006l7.13 11.079M260.5 138.272l1.702 13.962M253.397 142.82l8.805 9.414M188.434 214.743l-5.12.619M188.568 220.053l-5.253-4.691M210.183 181.429l8.402 17.109M211.246 256.815l8.085 16.778M172.778 213.85l.661.95M175.238 289.073l.642.901M253.83 150.264l7.597 17.206M253.293 225.296l7.33 16.908M193.246 350.145l1.59-.623M178.272 359.846l16.563-10.324M188.568 220.053l7.932-5.504M190.442 295.334l7.636-5.589M274.986 135.144l7.234 17.254M273.714 209.985l6.967 16.967M177.198 364.558l11.752-11.036M193.246 350.145l-4.296 3.377M188.95 353.522l4.296-3.377M194.836 349.522l-1.59.623M299.282 280.491l-.345-5.789M177.373 354.355l9.951 6.507M178.137 359.781l9.187 1.081M191.792 352.699l-1.359 1.226M178.08 354.049l13.214-13.034" style="fill:none;stroke:#00ff4a;stroke-width:.999997;stroke-linecap:round;stroke-linejoin:round;stroke-miterlimit:4;stroke-dasharray:none;stroke-opacity:1;visibility:visible"/><path d="m190.433 353.925-1.861 14.595" style="fill:none;stroke:red;stroke-width:1.99999;stroke-linecap:round;stroke-linejoin:round;stroke-miterlimit:4;stroke-dasharray:none;stroke-opacity:1;visibility:visible"/></svg>