<svg xmlns="http://www.w3.org/2000/svg" baseProfile="full" height="1122.52" preserveAspectRatio="xMinYMin meet" style="width:912px;height:1303px" width="793.701" xml:space="preserve"><path d="m294.428 562.899.017-.49M279.727 711.059l1.672-66.924M281.67 633.253l1.492-59.757M280.818 546.557l-.059-.008-.066.008M297.185 706.688l1.779-66.226M299.253 629.693l1.376-51.096M300.99 565.36l.107-4.01M273.026 712.74l1.624-67.195M274.911 634.62l1.541-63.765M261.881 715.535l1.559-67.644M263.685 636.893l1.6-69.844M276.462 547.959l-2.46-.393-11.325 1.673M276.56 547.959h-.097M274.003 547.565h.099M273.878 547.565l.068-.008.057.008M276.462 547.959l.097.033.107.048.092.084.072.098M262.677 549.239h-.123M265.513 549.903l-.081-.099-.091-.082-.097-.048-.107-.034" style="fill:none;stroke:red;stroke-width:.999997;stroke-linecap:round;stroke-linejoin:round;stroke-miterlimit:4;stroke-dasharray:none;stroke-opacity:1;visibility:visible"/><path d="m265.137 549.64-.097.025-.092.058-.088.082-.076.098-.064.122M255.026 717.258l1.508-67.924M242.603 720.374l1.41-68.417M244.25 640.828l1.46-70.662M238.592 652.558l.113-5.513M238.615 646.224l66.834-13.735M324.534 628.858l9.792-2.108M226.604 644.43h-.125l-.115.016-.115.057-.098.074-.08.1-.059.114-.041.13-.016.14M226.604 644.43l11.48 1.779M225.857 650.556l.008.139.033.148.056.129.075.124.099.107.106.089.115.059.124.032 11.464 1.805M225.857 650.556l.097-5.496" style="fill:none;stroke:red;stroke-width:.999997;stroke-linecap:round;stroke-linejoin:round;stroke-miterlimit:4;stroke-dasharray:none;stroke-opacity:1;visibility:visible"/><path d="m237.936 653.188.132.008.115-.024.114-.05.099-.073.08-.098.067-.124.032-.131.017-.139M238.706 647.045l-.007-.147-.032-.148-.058-.13-.083-.124-.09-.104-.115-.092-.115-.058-.121-.033M332.792 625.936l-7.56-1.468-.559.116M305.68 628.43l-79.076 16M332.792 625.936l.057-.01.058.01" style="fill:none;stroke:red;stroke-width:.999997;stroke-linecap:round;stroke-linejoin:round;stroke-miterlimit:4;stroke-dasharray:none;stroke-opacity:1;visibility:visible"/><path d="m325.232 624.47-.01-.016-.017-.008M326.805 634.638l-2.443.516M305.385 639.123l-10.128 2.116M292.543 641.806l-14.868 3.107M274.83 645.513l-15.13 3.164M256.724 649.3l-15.401 3.213M238.206 653.172l-.073.016M325.206 624.446l-.532.107M305.68 628.396l-10.136 2.05M292.823 630.996l-14.876 3.01M275.102 634.58l-15.145 3.068M256.969 638.255l-15.417 3.116M238.428 642.002l-12.015 2.436M327.102 624.815l-1.888-.37M324.664 540.07l-.664.099M327.034 540.455l.075-.016-2.444-.37M324.542 540.07l.065-.008.058.008" style="fill:none;stroke:red;stroke-width:.999997;stroke-linecap:round;stroke-linejoin:round;stroke-miterlimit:4;stroke-dasharray:none;stroke-opacity:1;visibility:visible"/><path d="m324.664 540.07.148-.016h.148l.147.016M327.543 540.44l-.139-.008h-.149l-.147.008M327.108 540.44l.05.016.047.016M237.083 727.739l-.107 5.413M237.022 727.06l66.316-16.876M224.456 725.417l-.1 5.388M224.971 731.64l11.357 2.108M224.971 731.64l-.123-.039-.114-.058-.107-.091-.099-.107-.073-.122-.059-.131-.032-.147-.009-.141M236.977 733.151l-.016.139-.041.13-.058.107-.081.097-.101.076-.114.042-.114.024-.123-.018M236.46 726.903l.123.03.122.067.107.092.099.104.073.124.057.132.034.147.008.14M225.103 724.81l11.359 2.092M224.456 725.417l.016-.139.04-.132.057-.104.082-.1.098-.074.107-.042.124-.024.123.008M232.893 729.681l-.017.181-.04.18-.067.164-.081.148-.107.131-.123.108-.132.08-.154.05-.156.033-.156-.008-.164-.024-.164-.058-.158-.09-.137-.107-.133-.13-.123-.149-.099-.172-.072-.172-.057-.19-.033-.187-.01-.19.016-.187.042-.182.057-.162.092-.15.107-.121.114-.107.138-.084.148-.057.157-.023h.164l.164.032.156.058.155.081.146.108.134.13.113.155.097.166.084.178.05.183.032.196.017.188M322.279 705.12l8.512-2.164M330.79 702.956l.173-.048.138-.05.122-.058.099-.057.067-.066.048-.057.017-.065-.008-.066-.041-.074-.066-.066-.089-.065-.115-.057-.14-.066-.156-.058-.188-.048-.198-.059-7.486-1.73-.548.14M303.557 705.13l-78.454 19.681M238.33 723.95l-.232-.065-.203-.068-.19-.072-.156-.074-.138-.082-.108-.076-.074-.082-.047-.08-.027-.082.01-.091.032-.075.065-.081.092-.081.121-.074.15-.065.172-.065.186-.068.222-.056.24-.051.253-.047.279-.041.286-.033.296-.026.311-.016.32-.017.32-.008.328.008.328.01.32.017.32.022.312.035.301.03.29.042.277.05.256.057.236.065.221.057.199.074.172.074.147.074.124.084.089.08.065.084.04.08.011.084-.025.08-.051.084-.072.073-.107.072-.13.075-.156.074-.191.064-.205.058-.22.057-.254.05-.264.042-.278.041-.294.024-.313.024-.31.018-.33.008h-.648l-.328-.016-.328-.027-.31-.024-.313-.033-.294-.039-.279-.05-.27-.05-.246-.056M234.533 724.901l-.163-.041-.148-.058-.114-.049-.1-.056-.064-.067-.043-.057-.007-.065.015-.058.041-.057.074-.059.106-.058.124-.047.148-.041.172-.042.19-.033.204-.032.221-.025.23-.008.23-.008h.483l.238.016.23.025.229.025.205.031.195.041.175.051.156.047.138.049.107.059.083.057.049.067.032.057-.008.056-.033.067-.058.057-.081.057-.115.05-.14.049-.156.04-.18.043-.196.022-.213.035-.23.016-.23.008-.237.008-.247-.008-.237-.008-.238-.016-.23-.025-.214-.032-.204-.035-.189-.048M331.151 708.878l.19-.05.165-.058.137-.064.115-.057.09-.075.074-.065.041-.074.016-.076" style="fill:none;stroke:red;stroke-width:.999997;stroke-linecap:round;stroke-linejoin:round;stroke-miterlimit:4;stroke-dasharray:none;stroke-opacity:1;visibility:visible"/><path d="m330.586 701.996-.065-.01-.068.01M322.967 700.266l-.01-.024-.007-.017h-.008M330.79 709.435l.097-.041.092-.066.064-.09.058-.108.034-.122.016-.13M224.872 724.818l11.956-2.99M239.92 721.047l15.303-3.839M258.175 716.463l15.03-3.764M276.035 711.985l14.761-3.697M293.495 707.604l10.063-2.516M322.42 700.357l.524-.133M322.943 700.224l1.877.436M236.559 733.749l.025-.007M240.586 732.709l14.373-3.705M258.815 728l14.104-3.64M276.643 723.401l13.85-3.57M294.083 718.907l9.161-2.37M322.082 711.683l1.887-.492M223.69 737.482l3.38-181.445M236.633 721.875l1.368-68.68M238.232 642.043l1.417-70.917M224.849 731.617v-.016M228.013 562.556v-.032M225.128 554.798l2.476.41M232.763 553.667l-7.636 1.13M223.69 737.482l.01.121.017.115.041.1.05.088.057.075.073.05.073.032M221.602 737.431l-.083-.032-.065-.057-.065-.066-.05-.092-.034-.106-.023-.115v-.123" style="fill:none;stroke:red;stroke-width:.999997;stroke-linecap:round;stroke-linejoin:round;stroke-miterlimit:4;stroke-dasharray:none;stroke-opacity:1;visibility:visible"/><path d="M224.233 737.537h-.147l-.14-.016-.138-.015-.118-.024M221.281 736.84l-.083-.024-.065-.024-.05-.033-.023-.024-.008-.034M227.604 555.208l-.107.033-.098.056-.092.083-.08.107-.066.122-.049.132-.035.147-.006.148M225.128 554.798l-.057-.008-.067.008M240.249 570.452l.107-5.608M227.381 568.813l.01.148.031.139.058.14.074.122.098.107.106.081.124.059.123.024 11.577 1.485M227.381 568.813l.099-5.592M239.583 571.117l.125.008.123-.035.113-.046.099-.083.081-.107.066-.122.041-.132.017-.148M240.355 564.844l-.01-.156-.03-.139-.057-.14-.075-.122-.097-.107-.118-.084-.114-.056-.131-.032M228.135 562.556h-.123l-.122.025-.107.058-.099.073-.08.107-.066.125-.042.13-.016.147M228.135 562.556l11.588 1.452M236.083 567.116l-.008-.197-.033-.199-.058-.187-.082-.181-.098-.164-.125-.155-.13-.124-.147-.106-.164-.074-.156-.049-.172-.025-.164.008-.155.041-.156.065-.14.091-.124.115-.107.148-.08.156-.066.172-.042.189-.016.188.007.196.033.197.058.188.084.182.097.164.124.148.13.13.149.107.153.073.165.05.166.024.162-.008.166-.039.146-.065.14-.092.123-.114.107-.141.088-.163.068-.173.04-.187.017-.189M329.151 556.881l-2.47.393M307.566 560.318l-10.21 1.621M294.617 562.376l-1.105.18M266.35 566.878l-4.821.77M258.52 568.124l-15.525 2.476M239.846 571.1l-.107.019M228.08 562.54l-.09.016M199.254 534.64l6.43 2.477M199.033 539.923l.083-5.265M221.339 535.494l6.937-.803M199.435 540.562l-.115-.057-.098-.091-.083-.099-.065-.121-.032-.132-.01-.139M199.033 539.923l-.04-.025-.008-.016M241.315 532.608l-.067-.09-.073-.066-.09-.05-.082-.023M205.684 537.118l.065.016.09.016.114.017.126.016M239.871 556.889l-11.595-1.427M228.128 555.463l.073-.01.075.01M240.388 563.343l.115-5.625M240.388 563.343l-.017.139-.032.132-.058.124-.082.098-.099.082-.105.057-.115.033M239.871 556.889l.124.024.123.059.106.089.099.099.08.122.057.14.035.147.008.148M307.77 552.929l-28.284 4.37M261.437 550.534l27.307-4.059M301.112 547.664l-33.76 5.084M240.651 556.766l-.78.123M437.365 550.837l-195.009-18.336-12.824 1.483 199.78 18.928 9.284-1.304" style="fill:none;stroke:red;stroke-width:.999997;stroke-linecap:round;stroke-linejoin:round;stroke-miterlimit:4;stroke-dasharray:none;stroke-opacity:1;visibility:visible"/><path d="m437.365 550.837.27.025.254.032.237.032.222.034.206.041.179.041.165.042.131.048.115.04.082.041.066.05.024.04.009.05-.027.041-.056.042-.074.04-.107.041-.13.033-.157.034-.178.024M319.548 540.71l-.215-.033-.229-.034-.245-.024-.255-.024-.27-.024-.28-.017-.278-.008-.279-.008-.278-.008-.279.008h-.27l-.263.008-.248.016-.228.016-.212.025-.191.024-.172.032-.147.034-.116.033-.097.033-.067.042-.04.04-.009.041.027.041.049.04.072.051.107.04.13.041.156.04.182.034.204.032.221.033.24.033.245.026.271.024.27.016.28.016.278.009h.287l.28.008.269-.008.27-.01.255-.007.238-.016.221-.026.204-.024.181-.024.156-.033.131-.033.107-.032.084-.042.049-.041.023-.041-.008-.04-.034-.04-.065-.043-.09-.041-.123-.042-.138-.04-.172-.041-.189-.032M438.905 558.029l.01-.213M228.219 538.078l.057-3.387M428.77 559.365v.132l.008.121.017.116.024.09.026.084.04.056.041.041.04.016M428.77 559.365l.239-5.61M242.33 532.492h.01l.015.01" style="fill:none;stroke:red;stroke-width:.999997;stroke-linecap:round;stroke-linejoin:round;stroke-miterlimit:4;stroke-dasharray:none;stroke-opacity:1;visibility:visible"/><path d="M437.413 550.83h-.025l-.023.008M228.276 534.691l.016-.099.041-.098.066-.099.081-.09.108-.074.13-.073.14-.066.155-.049.172-.033.174-.016.172-.01M429.008 553.757l.008-.147.024-.148.025-.132.04-.13.042-.108.057-.082.05-.065.058-.032M288.664 546.466l39.697 3.83M229.285 533.993l12.219-1.41M312.052 576.317l.016-.33M309.773 570.675l2.45-.344M311.667 576.374l.385-.057M304.05 571.487l5.724-.812M205.987 542.653l.081-5.388M301.474 571.847l2.576-.36M301.318 577.866l.156-6.02M294.749 577.505l.156-6.019M206.068 537.266l88.837 34.221M311.675 569.42l-91.598-34.344-13.13 1.517" style="fill:none;stroke:red;stroke-width:.999997;stroke-linecap:round;stroke-linejoin:round;stroke-miterlimit:4;stroke-dasharray:none;stroke-opacity:1;visibility:visible"/><path d="m246.513 547.302-.204-.032-.23-.033-.246-.024-.263-.024-.269-.026-.288-.017-.287-.008-.286-.008-.288-.007h-.286l-.288.007-.27.008-.255.017-.245.024-.23.016-.205.035-.188.023-.157.042-.14.034-.107.04-.08.04-.05.041-.017.04.01.05.032.04.074.05.099.041.121.05.148.041.182.032.194.04.222.035.24.032.253.025.27.024.28.017.28.016.294.008.287.007h.574l.279-.007.27-.016.246-.017.237-.024.222-.024.198-.025.172-.034.146-.04.124-.033.09-.041.067-.042.03-.049.01-.04-.025-.05-.056-.04-.084-.049-.115-.042-.139-.04-.162-.042-.191-.041M205.987 542.653l.008.115.032.124.059.105.073.107.099.09M294.749 577.505l.01.155.04.148.066.14.088.114.107.091.133.065M206.068 537.266l.019-.123.038-.124.068-.106.088-.098.107-.082.125-.066.138-.049.149-.025h.147M220.173 535.06l-.032-.01-.033.01-.032.016M311.937 569.461l-.13-.033-.133-.008M312.052 576.317l.107-.017.065-.015.05-.027.015-.024M312.224 570.33l.099-.019.073-.022.05-.018.015-.024M301.474 571.847l-.263.033-.278.024-.304.026-.311.024-.328.008-.337.017h-.706l-.353-.01-.36-.007-.352-.016-.344-.026-.337-.024-.328-.032-.319-.033-.296-.041-.279-.042-.262-.048-.238-.05-.221-.055-.19-.052-.163-.056M311.592 577.013l.107-.033.098-.056.083-.084.073-.106.05-.122.041-.14.008-.155M300.85 578.563l.107-.032.097-.057.084-.083.073-.107.058-.124.033-.138.016-.155M234.796 554.47l18.836 7.404M220.173 535.06l17.197 6.444M261.398 550.517l19.172 7.184M206.775 536.593l13.35-1.541M224.33 732.24l-.097 5.38M224.233 737.62l.01.139.03.148.057.13.075.124.09.107.106.09.123.057.125.041M236.189 740.597l.124.008.123-.017.106-.048.099-.075.08-.09.059-.115.041-.132.017-.131M236.189 740.597l-11.34-2.14M236.943 734.594l-.007-.148-.032-.139-.058-.132-.075-.13-.097-.107-.107-.081-.115-.067-.124-.041-11.357-2.108M236.943 734.594l-.104 5.403M224.971 731.64l-.123-.008-.114.016-.116.05-.09.066-.084.097-.064.115-.032.125-.017.138M330.954 715.348l.181-.05.164-.058.147-.065.115-.066.089-.065.065-.075.043-.073.016-.073M236.427 740.587l13.547-3.55M280.268 729.091l22.797-5.972M224.742 731.649l.13-.039M196.245 720.702l.081-5.119M217.55 716.873l3.88-.812M237.026 711.854l.368-.073-.368-.05M221.543 709.748l-24.55 5.099M215.172 712.813l-.197-.048-.206-.05-.23-.04-.236-.034-.255-.023-.263-.026-.261-.016-.27-.008h-.273l-.27.008-.263.008-.252.026-.239.023-.23.032-.214.033-.196.042-.178.048-.15.057-.129.059-.107.057-.084.067-.049.065-.024.067v.065l.033.064.058.065.089.067.116.064.13.057.163.058.182.05.196.05.222.04.238.042.245.023.255.027.269.024.263.006.27.01.271-.01.27-.006.257-.016.253-.019.239-.032.22-.033.204-.04.19-.048.164-.051.14-.056.112-.057.092-.058.066-.065.041-.068.008-.065-.017-.066-.048-.064-.074-.066-.098-.066-.124-.066-.147-.058-.172-.049M237.395 711.781l.04-.019h.043M202.928 725.386l-.097-.083-.075-.09-.057-.116-.032-.123-.019-.13M196.516 721.244l-.09-.083-.082-.09-.059-.114-.032-.124-.008-.13M196.992 714.847l-.083-.016-.074.008" style="fill:none;stroke:red;stroke-width:.999997;stroke-linecap:round;stroke-linejoin:round;stroke-miterlimit:4;stroke-dasharray:none;stroke-opacity:1;visibility:visible"/><path d="m196.325 715.584.01-.139.04-.13.066-.124.081-.104.1-.091.115-.076.121-.048.134-.025M196.245 720.702l-.04-.032-.01-.035" style="fill:none;stroke:red;stroke-width:.999997;stroke-linecap:round;stroke-linejoin:round;stroke-miterlimit:4;stroke-dasharray:none;stroke-opacity:1;visibility:visible"/><path d="m196.279 715.519.007.033.04.032M237.755 712.133l-.057-.099-.066-.092-.073-.07-.083-.059-.082-.032M202.648 724.844l.067.03.089.027.107.026.124.022.132.01M203.773 719.292l-.059-.099-.065-.096-.081-.076-.074-.057-.09-.033M295.815 781.36l2.099-.532M295.815 781.36l.156-5.748M300.71 780.115l2.821-.721M306.32 778.679h.027v-.03M306.469 774.275l.039-1.319M203.215 725.205l.083-5.168M305.966 772.021l-56.164-34.943M221.362 719.39l-4.51-2.812-12.883 2.713 17.198 10.956M237.124 740.408l53.181 33.867M295.43 774.67l10.536-2.648M295.43 774.67l-.221.059-.247.04-.261.041-.28.024-.287.027-.295.014h-.606l-.303-.008-.305-.025-.295-.024-.296-.033-.279-.048-.26-.05-.256-.049-.229-.067-.213-.065-.188-.075-.166-.072-.138-.084M203.215 725.205l.01.132.03.121.057.115.084.1.09.072M203.297 720.037l.016-.139.041-.132.066-.121.081-.107.101-.097.112-.075.124-.049.131-.025" style="fill:none;stroke:red;stroke-width:.999997;stroke-linecap:round;stroke-linejoin:round;stroke-miterlimit:4;stroke-dasharray:none;stroke-opacity:1;visibility:visible"/><path d="m217.214 716.66-.116-.05-.121-.031h-.124M306.36 772.11l-.123-.057-.13-.032h-.142M306.345 778.679l.097-.03.075-.043.041-.032.018-.05M306.508 772.956l.099-.033.073-.032.041-.042.018-.04M295.815 781.36l-.008.148-.041.13-.058.126-.065.09-.09.065-.1.04M306.345 778.679l-.017.141-.032.13-.058.116-.074.098-.082.066-.098.04" style="fill:none;stroke:red;stroke-width:.999997;stroke-linecap:round;stroke-linejoin:round;stroke-miterlimit:4;stroke-dasharray:none;stroke-opacity:1;visibility:visible"/><path d="m306.508 772.956-.008-.147-.024-.157-.05-.147-.065-.14-.082-.114-.099-.107-.107-.073-.106-.05M295.971 775.614l-.008-.148-.025-.157-.05-.147-.065-.139-.081-.124-.099-.097-.099-.081-.114-.051M203.167 725.138l.008.032.04.035M203.247 719.972l.017.033.032.032M203.813 719.283l.076-.008.08.017M216.698 716.57l.073-.01.08.02M217.214 716.66l4.157 2.59" style="fill:none;stroke:red;stroke-width:.999997;stroke-linecap:round;stroke-linejoin:round;stroke-miterlimit:4;stroke-dasharray:none;stroke-opacity:1;visibility:visible"/><path d="M203.255 725.491h-.008v-.017h-.008v-.015h-.008v-.017h-.007v-.016h-.009v-.018l-.007-.006v-.016l-.01-.011v-.016l-.008-.007v-.024h-.008v-.033l-.008-.008v-.041h-.007v-.108l.08-5.167" style="fill:none;stroke:red;stroke-width:.999997;stroke-linecap:round;stroke-linejoin:round;stroke-miterlimit:4;stroke-dasharray:none;stroke-opacity:1;visibility:visible"/><path d="M203.247 719.972v-.057l.008-.008v-.05l.01-.008v-.032l.009-.009v-.016l.006-.008v-.024l.008-.01v-.015l.008-.008v-.007l.01-.008v-.01l.006-.009v-.008l.01-.008v-.014l.008-.008v-.01l.008-.009v-.008l.008-.008v-.008l.008-.008.008-.007v-.009l.009-.008.01-.01v-.009h.005l.009-.005v-.01l.008-.007.008-.01.008-.008v-.008l.01-.008.009-.008.006-.009h.008v-.008l.008-.008.008-.008.01-.008h.008l.009-.008.005-.007v-.01l.01-.008h.008l.009-.008.007-.008h.009l.01-.008.006-.008h.008l.008-.008.01-.007h.007l.01-.01h.006l.008-.009.008-.008h.008l.011-.009h.007l.008-.007h.008l.008-.008h.008l.008-.008h.025l.008-.009h.008l.008-.007h.017l.008-.009h.032l.008-.01h.008l12.886-2.713M216.698 716.57h.024v-.01h.064l.008-.007h.092l.007.008h.065v.009h.035l.008.01h.032v.007h.025v.008h.016l.008.007h.016l.01.008h.015v.008h.016v.008h.018v.01h.014v.009h.01l.008.008h.009l.007.006h.009M421.758 749.207l.23-5.38M426.096 748.1l2.321-.59M236.92 717.07l3.076.45M429.409 739.399l-107.696-15.49M258.216 714.774l-2.936-.419M240.1 712.164l-1.385-.195-1.699.362M296.513 724.836l124.941 18.13 9.137-2.305M429.409 739.399l.253.041.248.05.238.049.213.057.196.066.181.065.155.065.132.076.116.063.08.076.05.073.033.074v.074l-.026.074-.048.073-.082.067-.099.057-.13.065-.157.048-.17.05M238.806 711.952h-.05l-.04.017M429.475 739.383h-.032l-.035.016M431.786 746.296l-.015.083-.041.073-.065.081-.099.067-.116.073-.137.066-.166.057-.188.059M421.758 749.207l-.016.132-.032.13-.057.107-.075.091-.09.065-.098.04M430.885 746.944l-.025.123-.042.105-.057.092-.073.081-.082.058-.09.032M421.988 743.827l-.008-.139-.024-.141-.05-.137-.066-.132-.083-.106-.089-.1-.107-.065-.106-.041" style="fill:none;stroke:red;stroke-width:.999997;stroke-linecap:round;stroke-linejoin:round;stroke-miterlimit:4;stroke-dasharray:none;stroke-opacity:1;visibility:visible"/><path d="M238.56 711.961h.075l.08.008M237.017 712.29l.952-.205M213.73 728.345l.065-.017.056.009M214.466 729.091l-.008.032-.05.041-.065.032" style="fill:none;stroke:red;stroke-width:.999997;stroke-linecap:round;stroke-linejoin:round;stroke-miterlimit:4;stroke-dasharray:none;stroke-opacity:1;visibility:visible"/><path d="m214.344 729.197-.01-.147-.031-.146-.058-.132-.073-.131-.099-.107-.106-.09-.116-.056-.122-.043M305.401 571.66l-.213-.027-.212.008-.222.035-.214.072-.212.1-.214.121-.197.158-.196.181-.181.204-.172.221-.147.246-.14.264-.123.277-.098.288-.082.303-.058.302-.032.304-.016.304.006.303.026.297.049.287.072.27.092.253.115.24.13.221.148.197.164.162.172.149.19.115.197.09.204.047" style="fill:none;stroke:red;stroke-width:.999997;stroke-linecap:round;stroke-linejoin:round;stroke-miterlimit:4;stroke-dasharray:none;stroke-opacity:1;visibility:visible"/><path d="m305.344 576.98.19-.04.18-.075.18-.106.18-.131.165-.156.146-.181.14-.195.124-.221.106-.24.09-.246.066-.254.049-.262.024-.261v-.264l-.024-.253-.04-.247-.068-.23-.081-.211-.098-.198-.124-.181-.138-.147-.148-.124-.164-.097-.172-.065-.179-.034-.19-.008-.187.023-.183.059-.188.09-.181.115-.163.148-.165.163-.147.189-.132.213-.115.23-.097.245-.075.247-.057.262-.032.263-.017.264.017.26.024.245.057.239.074.23.092.205.113.188.132.164.148.133.155.113.164.083.181.05.177.015.191-.009M311.125 570.854l-.213-.024h-.212l-.214.041-.222.066-.212.097-.206.13-.205.149-.188.181-.183.205-.162.22-.155.247-.14.263-.115.28-.1.285-.08.304-.057.296-.033.31-.016.305.008.294.022.296.05.287.074.27.091.254.113.239.124.221.148.188.164.172.172.14.19.115.196.089.205.057" style="fill:none;stroke:red;stroke-width:.999997;stroke-linecap:round;stroke-linejoin:round;stroke-miterlimit:4;stroke-dasharray:none;stroke-opacity:1;visibility:visible"/><path d="m311.068 576.151.188-.04.181-.075.18-.097.174-.132.162-.156.156-.18.14-.195.124-.222.107-.239.08-.247.067-.253.048-.263.026-.262v-.254l-.026-.254-.039-.246-.059-.23-.09-.212-.099-.198-.123-.181-.13-.148-.155-.121-.157-.1-.174-.064-.178-.035-.182-.007-.189.034-.188.048-.18.089-.181.115-.163.149-.164.164-.14.188-.13.213-.115.228-.099.24-.076.252-.056.256-.04.263-.008.261.008.264.03.246.051.237.074.221.1.215.105.179.132.165.139.139.164.106.165.083.172.048.188.027.18-.019M433.223 553.61l-.19-.017-.187.008-.19.041-.18.075-.188.097-.181.123-.172.146-.172.174-.156.197-.137.213-.132.23-.124.245-.098.263-.09.272-.066.277-.049.288-.033.287-.008.277.008.28.025.279.041.262.066.246.08.237.1.215.114.204.123.172.148.157.148.123.163.106.173.074.18.041" style="fill:none;stroke:red;stroke-width:.999997;stroke-linecap:round;stroke-linejoin:round;stroke-miterlimit:4;stroke-dasharray:none;stroke-opacity:1;visibility:visible"/><path d="m433.223 558.56.164-.04.155-.065.165-.09.148-.124.147-.14.132-.172.122-.178.114-.206.092-.222.081-.23.057-.238.042-.238.025-.245.008-.247-.019-.237-.03-.23-.05-.214-.065-.204-.09-.18-.1-.165-.115-.147-.13-.116-.141-.09-.147-.065-.156-.033-.156-.007-.164.024-.164.05-.154.081-.156.107-.147.132-.14.154-.132.182-.113.188-.11.213-.08.23-.074.23-.05.245-.032.238-.016.246v.247l.026.23.04.22.066.213.072.197.1.172.106.157.122.122.131.106.148.074.148.05.157.024.163-.009M435.83 555.963v.27l.008.27.033.256.058.253.065.231.081.22.1.205.106.19.132.164.13.138.156.124.156.09.164.074.172.042M438.167 552.912l-.18-.017-.18.009-.18.04-.181.057-.18.099-.18.116-.166.139-.162.165-.158.179-.137.205-.132.223-.124.236-.097.246-.091.262-.073.27-.058.271-.041.27-.016.28M436.897 555.987v.245l.024.239.033.221.056.214.076.196.09.181.097.156.124.139.13.106.14.082.147.057.158.033.162-.008.158-.025.162-.064.156-.083.156-.116.139-.138.14-.156.121-.18.116-.198.099-.212.083-.23.065-.236.05-.239.022-.247.019-.246-.01-.238-.032-.229-.042-.221-.064-.206-.083-.188-.097-.164-.115-.149-.124-.121-.13-.099-.15-.073-.155-.042-.154-.009-.156.017-.166.04-.156.075-.156.099-.154.124-.14.145-.131.173-.124.188-.099.215-.089.221-.083.23-.048.237-.041.245-.024.239M318.432 726.663l5.205-176.818M315.685 558.922l-.221-.007-.214.015-.204.05-.206.075-.188.106-.172.122-.164.148-.142.172-.121.188-.099.198-.074.222-.056.22-.026.231v.237l.026.239.049.228.081.23.099.214.115.204.148.188.156.173.18.148.188.123.198.107.212.074.214.048.213.023.213-.005.212-.034.207-.068.196-.08.188-.116.164-.138.156-.156.13-.18.107-.196.091-.214.065-.213.034-.23.016-.238-.016-.239-.034-.228-.065-.23-.081-.228-.116-.207-.131-.196-.147-.181-.173-.163-.18-.132-.195-.115-.206-.089-.214-.065-.213-.035M311.216 715.306l-.213-.04-.206-.065-.205-.099-.188-.125-.18-.139-.164-.164-.15-.173-.129-.196-.106-.214-.092-.212-.058-.229-.04-.22-.009-.232.01-.23.04-.22.057-.205.092-.205.106-.181.13-.172.149-.15.164-.12.18-.101.188-.08.205-.05.206-.023h.213l.213.032.212.057.206.081.197.108.19.132.171.155.155.164.14.188.115.205.098.214.074.221.049.23.025.229v.232l-.025.221-.05.21-.073.206-.098.197-.115.174-.14.154-.164.139-.172.115-.18.092-.197.064-.206.033-.212.01-.213-.018" style="fill:none;stroke:red;stroke-width:.999997;stroke-linecap:round;stroke-linejoin:round;stroke-miterlimit:4;stroke-dasharray:none;stroke-opacity:1;visibility:visible"/><path d="m312.594 714.839-.05.008h-.04l-.043.01h-.031l-.05.009h-.04M321.607 725.426l5.223-175.277M316.48 562.596l-.025-.007h-.034l-.016-.008h-.041M316.685 562.596h-.204M192.349 724.343l3.388-.72 3.355-.716M255.715 714.388l.13-.09.109-.1.08-.1.057-.095.035-.108.006-.098-.014-.106-.042-.099-.074-.108-.091-.096-.113-.099-.14-.098-.164-.099-.182-.1M155.119 741.703l.032-3.165M155.151 738.538l-.007-.204-.017-.207-.041-.205-.048-.204-.067-.197-.073-.179-.091-.18M154.323 743.107l.133-.041.122-.075.114-.09.107-.115.092-.139.08-.164.057-.173.05-.198.025-.202.016-.207M156.154 532.542l102.094-11.284M258.249 521.258l.31-.032.297-.043.269-.04.248-.049.221-.05.196-.049.172-.057.148-.05.124-.057.09-.057.064-.057.034-.066.008-.057-.016-.067-.049-.056-.075-.065-.106-.065-.131-.059-.156-.057-.18-.066-.205-.057-.231-.057-.253-.059-.279-.048-.296-.059-.32-.048-.336-.041-.36-.05-.37-.04-.385-.033-.393-.041-.41-.033-.418-.024-.427-.026-.434-.024-.435-.016-.444-.017-.443-.007-.442-.009h-.878l-.425.01-.425.006-.412.01-.41.015-.385.024-.377.026-.36.025-.354.032-.32.033-.312.04M144.885 531.024l-.181.025-.163.016-.14.034-.116.024-.081.033-.059.032-.032.033v.032l.025.034.058.033.089.032.116.033.13.026.163.032.183.016 8.987 1.065M144.885 531.024l4.116-.377 4.092-.386 4.06-.385 4.035-.384 3.994-.395 3.96-.385 3.936-.393 3.903-.394 3.863-.401 3.838-.395 3.804-.401 3.772-.403 3.74-.402 3.706-.41 3.676-.402 3.64-.41 3.609-.409 3.574-.41 3.55-.418 3.51-.41 3.48-.42 3.442-.417 3.418-.418 3.38-.419 3.347-.417 3.312-.427 3.288-.419 3.248-.426M153.865 532.525l.19.017.203.015.214.019.213.006.23.01h.442l.213-.01.207-.006.195-.019.182-.015M218.484 524.284l-.197-.033-.214-.024-.237-.026-.245-.024-.255-.016-.27-.016-.273-.017h-.277l-.272-.008h-.27l-.27.008-.263.008-.246.01-.238.015-.213.024-.205.024-.172.026-.163.024-.132.033-.107.032-.073.043-.057.032-.026.041.008.041.032.04.059.034.09.04.115.042.139.032.164.032.188.034.205.032.223.025.237.025.254.024.264.018.27.008.279.006.279.01h.541l.27-.01.253-.006.24-.018.229-.016.205-.024.188-.025.174-.025.146-.032.115-.034.09-.032.066-.041.041-.032.008-.041-.016-.042-.05-.041-.074-.032-.106-.041-.123-.042-.156-.033-.172-.032M156.635 531.075l-.195-.033-.214-.032-.238-.026-.246-.024-.263-.017-.27-.016-.286-.017-.279-.007h-.576l-.278.007-.27.009-.262.008-.247.016-.23.025-.213.024-.196.026-.164.032-.149.033-.121.04-.091.033-.067.042-.03.041-.011.041.027.04.057.042.08.041.107.041.141.04.155.034.189.032.205.033.23.033.236.024.264.024.262.018.279.008.287.016h.853l.279-.008.261-.008.255-.018.248-.016.221-.024.203-.032.181-.025.155-.032.133-.033.107-.042.072-.041.048-.041.026-.04-.009-.042-.04-.041-.075-.041-.089-.04-.124-.034-.153-.041-.175-.032" style="fill:none;stroke:red;stroke-width:.999997;stroke-linecap:round;stroke-linejoin:round;stroke-miterlimit:4;stroke-dasharray:none;stroke-opacity:1;visibility:visible"/><path d="M144.687 531.017h.099l.098.008M247.915 519.684l.132-.008.13.016M218.715 524.497l.016.041v.034l-.033.032-.066.033-.082.032-.115.024-.13.027-.165.024-.173.024-.196.017-.212.016-.223.008-.238.008h-.728l-.246-.008-.246-.017-.232-.016-.22-.016-.212-.026-.198-.022-.172-.026-.157-.033-.139-.033-.106-.032-.083-.034-.064-.032-.035-.033v-.041l.019-.034" style="fill:none;stroke:red;stroke-width:.999997;stroke-linecap:round;stroke-linejoin:round;stroke-miterlimit:4;stroke-dasharray:none;stroke-opacity:1;visibility:visible"/><path d="M216.599 524.62h-.148l-.14-.008-.139-.008-.122-.01-.115-.014-.1-.017M215.835 524.562l-.072-.024-.059-.016-.032-.016v-.025l.016-.018.05-.022M215.737 524.44l.065-.017.091-.008.107-.016.124-.01.13-.006h.139M216.393 524.382l.148.008h.139l.14.008.122.016.115.01.099.023M217.156 524.448l.073.016.058.017.033.024v.016l-.017.026-.05.014M217.254 524.562l-.065.017-.091.016-.105.008-.123.01-.133.006h-.138" style="fill:none;stroke:red;stroke-width:.999997;stroke-linecap:round;stroke-linejoin:round;stroke-miterlimit:4;stroke-dasharray:none;stroke-opacity:1;visibility:visible"/><path d="m216.393 524.382-.09.057-.082.042-.083.033-.073.007h-.083l-.073-.007-.081-.033-.091-.042M215.737 524.44l.01.056.007.041M217.189 524.58l-.017-.057-.008-.034-.007-.041M216.393 524.382l.107.057.098.042.091.033.081.007h.091l.09-.007.098-.025.107-.042M216.393 524.612v-.23M217.156 524.587v-.139M211.292 713.395l.107.05.133.058.156.048.172.041.187.043.214.032.222.024.228.024.24.017.237.008h.244l.24-.008.23-.008.229-.024.213-.026.196-.032.18-.034.156-.04.14-.049.115-.05.09-.057.066-.057.033-.057.008-.058-.016-.065-.048-.057M211.194 713.051l-.048.057-.027.059.01.057.024.056.058.056.08.059M213.54 713.404l.492-.148M212.736 713.371l.804.032M212.415 713.183l.32.19M212.9 713.028l-.484.155M213.704 713.067l-.805-.039M214.031 713.255l-.327-.19M212.9 713.38v-.353M213.704 713.354v-.288M312.602 714.732h.083M312.675 714.749l-.081-.008M312.708 714.7h-.041M312.47 714.856l-.083-.017M241.42 723.295l.097-.025.076-.032.058-.034.024-.034v-.039l-.024-.033M240.052 723.064l-.025.032v.043l.033.04.057.032.082.033.098.035.123.024.14.022.148.011.156.008h.148l.147-.008.141-.019.12-.022M241.339 723.548l-.107-.01-.106-.015-.098-.016-.106-.018-.091-.016-.065-.017-.058-.008-.033-.008-.081-.024-.083-.025" style="fill:none;stroke:red;stroke-width:.999997;stroke-linecap:round;stroke-linejoin:round;stroke-miterlimit:4;stroke-dasharray:none;stroke-opacity:1;visibility:visible"/><path d="m240.51 723.39-.016-.008v-.008h.115l.049.008h.107l.106.008h.272l.106-.008.097-.008.1-.008.09-.015.073-.016.066-.026.056-.024" style="fill:none;stroke:red;stroke-width:.999997;stroke-linecap:round;stroke-linejoin:round;stroke-miterlimit:4;stroke-dasharray:none;stroke-opacity:1;visibility:visible"/><path d="m241.724 723.285.008.025.008.015-.008.019-.016.016-.023.008-.034.014-.04.019-.05.008-.05.015-.066.008-.065.008h-.065l-.082.008h-.164l-.082-.008h-.091l-.081-.008-.156-.015-.156-.027" style="fill:none;stroke:red;stroke-width:.999997;stroke-linecap:round;stroke-linejoin:round;stroke-miterlimit:4;stroke-dasharray:none;stroke-opacity:1;visibility:visible"/><path d="M241.7 723.302h-.008v.008h-.01M242.807 547.762l.19.032.213.033.221.024.237.018.254.016.254.016.264.009h.515l.255-.01.237-.007.23-.015.214-.017.188-.026.17-.024.149-.032.124-.034.09-.032.066-.04.033-.043.008-.032-.024-.041M242.225 547.459l-.025.04v.043l.033.04.067.041.08.032.124.041.138.034.166.033M245.055 547.672l.252-.124M244.21 547.68l.845-.008M243.61 547.574l.6.107M243.866 547.45l-.256.124M244.71 547.442l-.844.008M245.307 547.548l-.597-.107M243.857 547.622l.01-.172M244.7 547.68l.01-.239M316.086 541.136l.19.032.205.025.212.026.238.016.238.017.246.016.247.007h.73l.227-.007.216-.016.195-.017.19-.016.155-.026.14-.032.115-.025.09-.032.057-.033.032-.042.009-.032-.024-.041M315.456 540.84l-.025.033.008.032.025.034.05.041.065.032.098.033.115.032.139.034.156.024M318.227 541.054l.213-.124M317.415 541.062l.81-.008M316.809 540.955l.607.107M317.022 540.84l-.213.115M317.833 540.833l-.81.008M318.44 540.93l-.607-.097M317.022 540.996v-.156M317.833 541.054v-.221M236.599 724.875l-.516.197M316.538 562.531l.19-.075.178-.106.157-.123M315.76 558.989l.107-.04M315.76 558.989l-.172.025-.173.042M315.874 558.948h0-.008M316.242 559.16l-.099 3.345M316.143 562.506l.197-.032.18-.057.182-.083.164-.099.146-.13.131-.148.116-.164.09-.18.075-.19M316.776 559.44l-.164-.113-.181-.091-.188-.075M315.708 559.112l-.195.033-.182.058-.179.081-.165.107-.154.13-.133.156-.115.174-.089.178-.065.196-.042.215-.025.213.008.214.032.213.059.213.081.206.099.188.122.181.14.163.164.14.172.114.18.099.199.064M315.708 559.112l-.088 3.336M315.866 558.948l.025.433.007.435v.444l-.007.45-.017.443-.025.451-.042.45-.041.46M315.62 562.448l.041.099M315.76 558.989l-.05.123M316.242 559.16l.033-.073M316.177 562.573l-.033-.067M312.43 714.823l.147-.083.132-.108.122-.113M311.281 711.47l-.164.03-.156.043-.155.072M311.88 711.666l-.099 3.223M311.781 714.888l.197-.017.188-.048.18-.082.166-.1.146-.121.132-.15.115-.163.081-.188.067-.188M311.98 711.698l-.05-.016-.049-.016M311.355 711.591l-.19.024-.186.041-.173.075-.164.099-.148.122-.132.139-.107.164-.09.172-.066.19-.048.205-.017.205.009.204.032.215.057.204.075.196.097.19.126.18.137.164.155.139.173.123.181.098.188.074M311.355 711.591l-.09 3.223M311.518 711.51l.017.459.01.466-.01.468-.008.484-.033.484-.033.483-.047.492M311.264 714.814l.04.09M311.396 711.485l-.04.107M311.88 711.666v-.016M311.798 714.92l-.017-.03M237.822 723.688l.556-.123.05-.01 2.174.624M237.822 723.688l-.132-.075-.115-.064-.09-.074-.058-.084-.04-.072-.009-.075M242.561 724.107l-.508-.148-.059-.019 2.322-.5" style="fill:none;stroke:red;stroke-width:.999997;stroke-linecap:round;stroke-linejoin:round;stroke-miterlimit:4;stroke-dasharray:none;stroke-opacity:1;visibility:visible"/><path d="m242.561 724.107-.253.03-.272.018-.279.024-.285.01h-.584l-.287-.01M244.324 723.383v.027l-.008.03M243.872 722.933l-.55.125M243.266 723.064l-.097-.025M243.266 723.064l.057-.007M239.14 722.516l.519.145M239.708 722.679l-.05-.017M238.608 722.916l1.1-.237M241.75 723.27l.016.032.01.043-.018.03M244.307 723.703l.01-.263M237.822 723.688v.105M242.561 724.107v.065M240.594 724.237l.008-.059M239.659 722.696v-.033M238.428 723.589v-.033M239.503 722.727l.073-.039.083-.026M243.175 723.04h.076l.072.019M242.849 724.137l-.059-.016-.04-.013h-.049l-.043-.01h-.04l-.057.01M242.258 723.966l-.099-.016-.105.008M238.05 723.867l-.039-.05-.042-.033-.032-.032-.032-.024-.043-.025-.04-.016M238.83 724.056l-.048-.116-.067-.113-.074-.092-.08-.074-.092-.054-.091-.042M242.258 723.966l.541.155M300.128 775.252l-.205-.048-.204-.01-.206.01-.213.048-.212.073-.212.1-.215.132-.197.155-.196.18-.18.207-.173.221-.164.236-.139.263-.132.269-.107.28-.089.297-.067.292-.049.296-.024.296v.287l.015.287.034.27.058.256.082.244.099.222.123.205.13.188.155.157.165.13.18.1.19.081" style="fill:none;stroke:red;stroke-width:.999997;stroke-linecap:round;stroke-linejoin:round;stroke-miterlimit:4;stroke-dasharray:none;stroke-opacity:1;visibility:visible"/><path d="m299.76 780.395.181-.059.18-.09.18-.122.174-.141.154-.17.156-.19.131-.205.124-.22.107-.239.082-.247.064-.246.043-.252.024-.256v-.246l-.017-.245-.04-.223-.066-.221-.082-.19-.099-.18-.123-.154-.13-.124-.148-.099-.164-.073-.164-.048-.18-.01-.183.018-.179.04-.188.081-.181.1-.172.132-.165.155-.156.181-.146.196-.124.212-.114.239-.098.239-.074.244-.059.256-.032.253-.007.253.007.247.032.23.05.222.074.205.09.187.114.165.124.14.139.116.157.09.164.057.179.023h.18l.181-.031M305.73 773.835l-.196-.041-.205-.018-.204.018-.215.041-.213.073-.212.098-.206.132-.205.154-.19.182-.18.205-.17.22-.159.247-.146.253-.124.27-.107.28-.088.297-.065.285-.051.295-.024.297v.295l.017.278.031.271.067.253.074.246.098.224.124.204.13.18.156.156.164.13.172.107.188.073" style="fill:none;stroke:red;stroke-width:.999997;stroke-linecap:round;stroke-linejoin:round;stroke-miterlimit:4;stroke-dasharray:none;stroke-opacity:1;visibility:visible"/><path d="m305.37 778.959.18-.057.18-.091.179-.113.173-.15.156-.164.148-.188.139-.206.116-.222.106-.234.082-.248.065-.246.05-.254.015-.254.01-.248-.026-.237-.04-.228-.058-.215-.082-.196-.106-.173-.115-.155-.132-.124-.147-.106-.156-.066-.172-.048-.172-.008-.181.016-.188.04-.181.076-.18.106-.172.132-.166.154-.154.174-.14.196-.131.221-.116.23-.09.238-.073.244-.056.256-.034.253-.016.246.009.246.03.239.058.221.068.204.097.18.107.166.123.14.138.114.158.091.164.057.172.023h.178l.183-.032M425.53 743.531l-.172-.03-.181-.009-.187.023-.181.05-.188.082-.18.097-.182.132-.172.155-.172.173-.156.196-.146.214-.134.237-.121.247-.107.254-.089.262-.067.28-.057.272-.041.277-.016.272v.27l.024.262.033.245.057.238.074.221.09.207.106.178.125.166.13.14.149.105.154.09.172.058" style="fill:none;stroke:red;stroke-width:.999997;stroke-linecap:round;stroke-linejoin:round;stroke-miterlimit:4;stroke-dasharray:none;stroke-opacity:1;visibility:visible"/><path d="m425.292 748.337.157-.056.163-.083.156-.106.148-.131.14-.148.132-.18.121-.19.107-.205.09-.221.083-.228.058-.232.04-.237.024-.238.009-.229-.016-.221-.033-.22-.05-.199-.066-.188-.09-.163-.097-.141-.116-.123-.121-.098-.142-.075-.146-.04-.147-.017-.156.017-.165.033-.156.072-.156.094-.155.12-.148.14-.132.164-.13.18-.115.205-.099.215-.081.221-.075.228-.048.239-.035.236-.014.23.009.23.015.221.049.213.057.191.074.18.098.155.107.132.115.105.132.083.146.057.148.033h.156l.155-.025M430.393 742.302l-.181-.032-.172-.008-.187.023-.181.05-.19.082-.178.106-.183.124-.17.155-.165.18-.156.19-.148.22-.13.229-.115.248-.107.253-.09.263-.074.272-.057.278-.035.271-.014.279v.261l.014.261.043.248.057.236.074.224.09.204.107.18.115.156.138.14.14.114.164.092.164.057" style="fill:none;stroke:red;stroke-width:.999997;stroke-linecap:round;stroke-linejoin:round;stroke-miterlimit:4;stroke-dasharray:none;stroke-opacity:1;visibility:visible"/><path d="M431.574 744.796v-.23l-.017-.23-.04-.204-.048-.197-.076-.182-.09-.164-.097-.138-.116-.116-.13-.09-.14-.065-.149-.03-.146-.011-.164.017-.155.048-.157.073-.156.1-.147.123-.148.148-.132.172-.123.188-.114.197-.098.222-.074.221-.066.23-.049.237-.025.238-.016.23.008.23.033.214.041.204.064.188.084.173.098.147.106.132.123.097.132.083.147.049.148.024.156-.007.156-.034.156-.058.162-.089.148-.115.15-.14.137-.154.132-.174.115-.196.106-.214.082-.222.074-.229.058-.23.04-.237.017-.229" style="fill:none;stroke:red;stroke-width:.999997;stroke-linecap:round;stroke-linejoin:round;stroke-miterlimit:4;stroke-dasharray:none;stroke-opacity:1;visibility:visible"/><path d="M280.07 547.262v-.032l.008-.01v-.066l.01-.008v-.022l.006-.019v-.015l.01-.01v-.023l.007-.01v-.007l.008-.008v-.024l.008-.01v-.006l.008-.008v-.01l.008-.008v-.008l.01-.017.008-.008v-.008l.006-.007v-.009l.01-.008.008-.01v-.006l.008-.01.008-.006v-.01l.009-.007.008-.008.008-.01v-.008l.008-.006.008-.01.008-.008.01-.009v-.007l.009-.008.005-.009.008-.007.01-.009h.007l.008-.008.01-.01.008-.006v-.008l.008-.01h.008l.008-.007.008-.008.009-.01h.007l.01-.006.007-.01h.008l.008-.006.019-.01h.006l.008-.008.008-.008h.008l.008-.008h.008l.01-.008.006-.008h.008l.018-.009h.009l.007-.008h.017l.008-.008h.016l.008-.008h.019l.006-.008h.026l.006-.01h.018l.016-.006h.024M284.22 546.032l-3.527.525M276.035 711.985l1.639-67.072M277.946 634.006l1.517-61.97M280.062 547.745l.008-.483M290.797 708.286l1.746-66.48M292.823 630.995l1.394-53.153M294.609 562.966l.008-.59M293.494 707.603l1.764-66.365M295.545 630.446l1.369-51.866M297.307 563.974l.05-2.034M276.56 547.958l-2.458-.393M273.878 547.565h.017l.008-.008h.164l.008.008h.027M276.56 547.958h.017l.009.008h.023l.008.01h.034v.008h.023v.008h.016l.01.006h.017v.01h.025v.008h.007l.009.009h.015v.008h.016v.007h.009l.01.009h.007v.008h.015v.008h.01l.006.008h.01v.01h.007l.01.007h.008v.008h.006l.008.008.01.008h.009v.01l.007.006h.009v.008h.008v.01h.008l.007.006v.01h.008v.008h.01l.008.009v.007h.008v.008h.007M258.174 716.462l1.527-67.785M259.955 637.649l1.574-70M261.914 550.436l.008-.486M273.878 547.565l-11.324 1.673M261.922 549.95v-.041l.01-.007v-.049l.007-.016v-.025l.007-.016v-.016l.01-.01v-.024l.007-.008v-.017l.008-.008v-.016l.008-.008v-.008l.01-.008v-.01l.006-.007v-.016l.01-.008.008-.008v-.01l.008-.008v-.008l.008-.006.008-.01v-.008l.01-.008.007-.009v-.008l.007-.008.009-.007.008-.009v-.01l.008-.007.008-.007.01-.01.007-.006.008-.01v-.007l.008-.01.008-.006.01-.008.008-.01.008-.008.006-.008h.01l.008-.008.008-.009.008-.008.009-.007h.008l.008-.009.008-.008.008-.008h.008l.01-.008.006-.007h.008l.01-.01.007-.008h.008l.008-.008.01-.008h.008l.014-.01h.01l.008-.006h.008l.008-.008h.009l.016-.008h.008l.008-.01h.017l.007-.008h.025l.008-.008h.024l.01-.008h.033l.008-.008h.008M239.92 721.046l1.403-68.533M256.969 638.255l1.552-70.131M334.324 632.31l.166-5.192M333.102 633.323l-6.297 1.315M295.258 641.238l-2.715.568M277.674 644.913l-2.844.6M259.7 648.677l-2.977.622M241.323 652.513l-3.117.658M334.324 632.31l-.006.105-.027.108-.032.096-.048.091-.05.084-.058.065-.075.072-.073.058-.081.057-.107.065-.124.05-.123.05-.13.042-.14.038-.148.032M332.906 625.935l.172.036.154.04.158.04.148.05.138.04.115.05.115.058.106.066.107.064.097.092.102.107.046.073.042.08.033.084.032.098.01.097.009.108M295.545 630.446l-2.722.55M277.946 634.006l-2.844.575M259.955 637.649l-2.986.606M241.551 641.371l-3.122.63M332.906 625.935l-5.804-1.12M324.542 540.07l-.615.09M324.542 540.07l.115-.017.114-.01h.107l.115.01.113.017M327.543 540.438l-2.437-.368M324.82 700.66l1.985-66.022M327.102 624.815l2.05-67.934M327.543 540.438l.147.034.148.041.065.024M332.135 703.253l-.156 5.106M330.586 701.995l.18.043.164.05.164.047.148.058.138.057.114.067.114.065.118.073.098.09.09.1.081.116.057.105.05.116.017.088.016.09v.093M236.827 721.826l3.094-.78M255.222 717.209l2.952-.747M273.206 712.698l2.83-.713M290.797 708.286l2.697-.683M324.82 700.66l5.766 1.335M236.583 733.742l4.003-1.033M254.96 729.002l3.855-1.003M272.92 724.36l3.723-.96M290.493 719.83l3.59-.924M323.969 711.19l6.82-1.756M331.98 708.36l-.017.122-.025.11-.04.103-.05.1-.066.09-.067.08-.09.084-.089.065-.09.065-.123.066-.123.057-.13.05-.14.04-.14.042M221.602 737.43l2.41.632M224.349 738.07v.008h-.05v.008h-.19l-.007-.008h-.05v-.008h-.031v-.008h-.01M221.602 737.43l-.01-.005h-.025l-.008-.011h-.016l-.009-.007h-.007l-.009-.01h-.016l-.008-.008h-.016l-.01-.007-.007-.01h-.008l-.008-.006h-.008l-.007-.01h-.01l-.007-.007-.01-.008h-.008l-.008-.011-.006-.007h-.01l-.009-.008-.008-.008h-.008l-.008-.008-.01-.008-.006-.008h-.007l-.01-.008-.008-.01-.008-.007h-.008l-.008-.008v-.008l-.008-.008-.008-.008-.01-.008-.008-.01h-.008v-.005l-.008-.01-.008-.008-.006-.008v-.01l-.01-.006-.009-.008-.008-.008v-.01l-.008-.01-.008-.006v-.01l-.008-.007v-.008l-.008-.007-.01-.01v-.007l-.007-.01v-.009l-.008-.006v-.008l-.008-.016v-.008l-.008-.008v-.008l-.01-.011v-.007l-.006-.008v-.008l-.01-.008v-.025l-.008-.008v-.016l-.008-.008v-.032l-.008-.01v-.04l-.008-.009v-.106l3.314-181.173M224.365 555.528v-.075l.008-.008v-.048l.008-.008v-.033l.006-.01v-.014l.01-.018v-.008l.008-.009v-.016l.01-.016v-.008l.007-.01v-.006l.008-.008v-.017l.008-.008.007-.008v-.008l.01-.008v-.01l.007-.008.01-.014v-.011l.007-.007.01-.008.005-.008v-.009l.008-.008.01-.008.009-.007v-.01l.008-.007.008-.01.008-.007.008-.01v-.006l.006-.008.01-.008.008-.008.01-.01.007-.008.008-.008.007-.006h.01l.008-.01.008-.008.008-.009.008-.007.01-.01h.006l.01-.007.006-.008.01-.008h.008l.008-.01.008-.007h.006l.011-.008.015-.007h.01l.007-.01h.008l.007-.007.01-.01h.016l.008-.006h.008l.008-.01h.008l.016-.008h.018l.01-.008h.004l.02-.008h.015l.008-.008h.023l.01-.009h.04M225.003 554.797l7.716-1.147M336.718 554.929l.116-3.813M335.455 555.881l-6.304 1M297.357 561.94l-2.74.436M261.529 567.649l-3.008.475M242.995 570.6l-3.149.498M336.718 554.929l-.007.099-.025.09-.026.09-.04.082-.049.074-.059.066-.057.064-.056.05-.067.05-.08.048-.076.04-.08.034-.157.058-.164.04-.188.042-.132.025M241.051 532.37l-12.004-1.132M206.003 543.145l-6.568-2.583M199.435 540.562l-.009-.009h-.015l-.01-.008h-.008l-.008-.008h-.007l-.01-.008h-.007v-.01h-.008l-.01-.006h-.008l-.008-.01h-.006l-.01-.006h-.009l-.007-.01-.009-.007-.008-.008h-.007l-.008-.008-.009-.008h-.008l-.01-.01v-.008h-.007l-.008-.006-.007-.008-.008-.01-.01-.009-.007-.007-.01-.008-.008-.009-.008-.008v-.008l-.006-.008h-.008l-.01-.01v-.007l-.006-.008-.01-.008v-.008h-.009v-.008l-.008-.008-.008-.008v-.01l-.007-.008v-.008l-.009-.008-.008-.008-.01-.009v-.007l-.007-.008v-.017l-.007-.008v-.008l-.008-.008v-.01l-.01-.007v-.015l-.009-.01v-.007l-.006-.01v-.016l-.01-.008v-.024l-.008-.008v-.026l-.006-.007v-.033l-.008-.008v-.115l.072-5.224M241.051 532.37h.035v.007h.048v.008h.032l.008.01h.016l.01.007h.023v.008h.018v.008h.025v.01h.015l.01.008h.008v.008h.016v.008h.015v.008h.016v.008h.01l.009.008h.008v.008h.008l.006.008h.008v.009h.01v.008h.01l.006.008h.01l-.001.008h.008v.01h.008l.007.007.01.007h.008v.008h.008v.01l.008.007h.007v.008h.01M206.258 543.194h0-.075v-.008h-.049v-.008h-.04v-.009h-.027v-.008h-.022l-.008-.008h-.016v-.008h-.018M227.62 556.126l.009-.14.04-.13.057-.123.081-.097.091-.084.107-.058.122-.032M227.513 561.728l.106-5.602M228.135 562.556l-.122-.032-.115-.059-.115-.083-.089-.105-.083-.124-.057-.13-.033-.149-.008-.146M239.723 564.008l-11.588-1.452M239.88 564.008l-.074.008-.083-.008M288.663 546.465l-27.265 4.052M328.362 550.296l-1.483.238M253.631 561.874l-13.75 2.134M242.33 532.492h0M237.371 541.505l51.292 4.96M328.362 550.296l100.604 9.725M242.33 532.492l195.082 18.337M439.807 557.685l.239-5.576M439.807 557.685l-.008.097-.025.108-.032.09-.042.089-.048.075-.057.073-.067.057-.065.058-.067.049-.09.05-.082.04-.081.034-.164.056-.18.05-.19.034-.171.032M429.147 560.021l9.29-1.344M429.147 560.021h0-.181M437.412 550.829l.198.017.188.023.189.025.179.026.18.022.165.034.156.032.148.026.139.04.132.034.122.041.116.041.106.04.18.099.18.14.057.073.067.082.049.084.04.105.027.099.016.113v.084M241.503 532.582l.827-.09M310.265 570.69l-.166-.025h-.162l-.164.01M304.54 571.494l-.163-.025h-.164l-.164.017M206.258 543.194l.124.082.13.066 28.283 11.128M253.631 561.874l41.562 16.344M237.371 541.505l24.027 9.012M280.57 557.701l31.368 11.76M312.289 576.234l.018-.565M312.414 571.724l.047-1.476M312.289 576.234v.056l-.008.01v.04l-.008.017v.03l-.007.01v.027l-.008.006v.008l-.01.018v.008l-.006.008v.022l-.01.01v.017l-.009.008-.008.008v.008l-.006.017v.008l-.008.01-.01.006v.016l-.008.01-.01.008v.008l-.007.008-.007.009-.008.015v.009l-.01.008-.007.008-.01.008-.007.008v.008l-.008.01-.007.007-.008.016-.008.008-.01.008-.009.008-.008.008-.008.01-.006.008-.008.008h-.01l-.01.008-.007.009-.008.008-.008.007-.008.008-.007.009-.01.008h-.007l-.01.008-.014.01-.008.007-.01.008h-.009l-.006.007-.01.01-.014.007h-.008l-.008.01-.011.008h-.008l-.016.006h-.007l-.01.008h-.006l-.017.01-.01.008h-.007l-.015.009h-.019l-.016.007h-.008l-.008.008h-.024l-.01.009h-.024l-.007.008h-.033l-.016.008M300.85 578.562l10.743-1.55M300.85 578.562l-.196.026-.215.024-.228.026-.23.015-.247.008-.221.008-.23.008h-.721l-.221-.008-.231-.008-.228-.008-.223-.015-.22-.01-.213-.024-.215-.016-.204-.026-.198-.022-.195-.027-.19-.03-.18-.037-.171-.032-.164-.032-.148-.041-.131-.033-.123-.04-.114-.05M311.938 569.46l.007.009h.008l.009.008h.008l.01.008h.006l.008.007h.016l.008.01h.01l.009.007h.008l.006.01.008.007h.008l.01.01.009.006h.008l.008.007.007.01h.008l.008.009.009.008.008.008h.01l.007.008.007.006.008.01h.01l.007.008.01.009.008.008v.008l.006.008h.008l.01.007.009.009.007.01.009.007v.008l.008.008.007.008.008.008.008.01v.006l.01.01.008.008v.008l.007.008.01.008.006.009v.008l.01.007v.009l.006.008.01.008v.007l.007.009v.01l.01.007.008.008v.008l.006.016v.007l.008.01v.009l.01.008v.014l.009.01v.017l.007.008v.017l.009.007v.025l.008.008v.016l.008.008v.042l.007.006v.076l.008.008v.066M331.93 709.72l-.156 5.102M249.974 737.037l30.295-7.946M321.883 718.183l8.71-2.286M331.774 714.822l-.008.123-.034.114-.04.107-.049.099-.057.09-.075.075-.081.08-.1.073-.098.068-.124.064-.12.058-.142.049-.137.05-.115.025M331.643 709.033l.072.08.083.116.058.106.042.126.024.08.008.089v.09M237.477 711.763l-.45-.065M202.929 725.385l-6.413-4.142M221.543 709.706l-24.709 5.132M196.516 721.243l-.008-.008-.011-.01h-.007l-.007-.007-.009-.008h-.008v-.008h-.01l-.006-.008-.01-.01-.007-.006-.008-.01h-.008v-.007h-.008v-.008l-.008-.007h-.01v-.01l-.007-.009-.007-.008-.01-.008-.007-.008-.009-.006v-.008l-.007-.01-.008-.01-.01-.007-.008-.008v-.008h-.008v-.015l-.008-.01-.008-.007v-.01l-.01-.009-.006-.006v-.016h-.008v-.01l-.008-.006v-.018h-.01v-.017l-.007-.007v-.01l-.008-.007v-.016l-.01-.007v-.018l-.007-.008v-.016l-.008-.008v-.042h-.007v-.048h-.01v-.1M196.278 715.518v-.096l.007-.008v-.027l.01-.008v-.032l.007-.01v-.015l.008-.008v-.024l.008-.01v-.007l.008-.008v-.01l.01-.006v-.018l.007-.008v-.008l.008-.006.008-.008v-.011l.008-.008v-.008l.01-.008v-.008l.006-.007.008-.008v-.01l.01-.008.008-.008v-.008l.008-.008.008-.008.008-.007v-.01l.008-.007.01-.01h.006v-.01l.01-.006.007-.008.01-.008.006-.01.007-.007.01-.008.008-.008.009-.008h.007l.011-.01.007-.007.006-.008.01-.008h.008l.008-.008.008-.008h.01l.007-.007.007-.01h.01l.007-.009h.008l.008-.008h.01l.006-.008.01-.008h.007l.008-.008h.027l.006-.008h.009l.008-.006h.016l.008-.01h.01l.007-.01h.034l.006-.007h.016M196.196 720.635l.082-5.117M237.477 711.763h.016v.007h.041l.01.01h.022l.01.009h.015l.008.008h.018l.008.008h.016v.008h.016l.01.006h.007l.008.01h.008l.008.006h.008l.01.01h.007l.008.009h.007v.008h.01l.007.01h.01v.005h.014v.009h.01v.008h.008l.008.01h.008v.006h.01v.01h.006l.01.009.006.006.01.007.007.01.008.009.01.008.006.006.01.01.007.008V712h.008v.009h.008v.007l.008.009.01.008.005.008v.007h.01v.009l.009.01v.007h.008v.008M203.255 725.49h-.065v-.007h-.04v-.01h-.033v-.006h-.024v-.01h-.026v-.007h-.017l-.007-.01h-.017v-.009h-.016v-.005h-.017l-.008-.01h-.007v-.007h-.017v-.008h-.01l-.006-.008h-.008l-.008-.008M203.486 725.745l1.444.926M214.409 732.797l6.848 4.437M221.534 737.407l68.164 44.052M249.974 737.037l56.387 35.073M306.575 778.523l.007-.204M306.689 774.522l.049-1.714M295.453 781.96l-.214.055-.228.041-.245.042-.248.033-.26.024-.24.017-.237.016h-.254l-.246.01-.254-.01-.23-.006-.23-.01-.238-.017-.23-.024-.22-.024-.221-.033-.215-.032-.204-.034-.205-.049-.188-.04-.197-.059-.19-.057-.172-.057-.164-.066-.162-.074-.132-.066-.131-.08M295.453 781.96l3.569-.912M299.76 780.86l4.878-1.246M305.37 779.424l.615-.156M306.575 778.523v.073l-.01.008v.043l-.007.007v.034l-.01.008v.023l-.006.008v.016l-.008.019v.006l-.01.01v.016l-.007.008v.017l-.01.008v.008l-.008.008v.008l-.006.008-.008.01v.006l-.01.017v.008l-.006.01-.011.006v.01l-.008.006-.008.008v.008l-.007.01-.008.01v.007l-.01.008-.007.007-.01.01-.007.006v.01l-.008.008-.007.008-.008.01-.01.005v.01h-.006l-.01.007-.009.008-.008.008-.008.01-.006.008-.01.008h-.008l-.01.006-.007.01-.007.01-.008.006h-.008l-.01.008-.007.008h-.01l-.007.01-.007.007h-.008l-.008.008-.01.008h-.009l-.008.01-.008.006h-.006l-.008.008h-.008l-.018.008h-.01l-.007.01h-.007l-.008.009h-.01l-.008.006h-.016l-.008.01h-.008l-.007.008h-.027l-.008.006h-.014M306.36 772.11h.01l.008.008.007.01h.008v.007h.008l.009.008h.007l.01.01v.006h.008l.007.008.008.008h.008v.008l.01.01h.007l.01.009v.006h.008l.006.008.008.008.01.008.008.01v.008h.009l.008.01v.006l.007.008h.009v.01l.008.007.01.008v.008h.006v.008l.01.007.007.01v.008l.007.008.008.008v.008l.008.01v.005l.01.01v.009l.009.008.008.01v.006l.008.008v.008l.006.008v.008l.01.01v.016l.006.007v.008h.01v.016l.009.01v.017l.008.008v.024l.008.008v.025l.007.008v.032l.008.01v.049l.009.006v.1M203.486 725.745h0-.008v-.008h-.01v-.008h-.015v-.008h-.008v-.01h-.007l-.008-.008-.01-.008h-.009v-.008h-.008v-.008h-.008v-.008h-.009v-.008h-.005v-.008h-.01v-.01h-.009v-.007h-.008v-.008h-.008v-.008h-.008v-.008l-.01-.008-.006-.01v-.005h-.01v-.01h-.006v-.008l-.01-.008v-.008h-.007v-.01h-.008v-.008l-.008-.006v-.008l-.008-.01v-.01h-.01v-.015M280.269 729.091l140.834 20.699M238.806 711.951l1.295.19M255.28 714.33l2.937.419M321.713 723.885l107.762 15.497M431.786 746.295l.23-5.34M421.103 749.79h0M421.388 749.771h0-.024l-.008.01h-.041v.009h-.205M421.388 749.771l3.199-.82M425.25 748.78l4.208-1.073M430.115 747.542l.4-.108M431.786 746.295l-.008.132-.032.122-.05.114-.056.108-.074.099-.074.081-.1.09-.105.082-.116.067-.147.073-.154.066-.174.057-.181.048M429.475 739.382l.205.033.204.032.19.042.189.042.179.047.172.05.164.05.165.057.147.066.14.066.122.063.123.076.116.09.105.09.1.115.088.125.059.12.041.123.024.092.008.098v.096M237.969 712.083l.59-.122M238.56 711.96h.042v-.009h.204M304.237 577.652l-.862-.164M305.4 571.658l-.86-.164M305.4 571.658l.173.042.174.057.162.073.156.09.149.106.14.118.13.12.115.14.122.156.1.172.098.18.08.189.076.215.056.228.042.229.033.23.015.247-.007.244-.016.256-.035.244-.05.247-.056.24-.08.235-.092.23-.107.223-.115.205-.13.206-.14.178-.155.18-.173.158-.172.146-.187.124-.19.107-.197.09-.205.065-.213.04-.164.017-.164.008-.164-.016-.172-.025M309.969 576.832l-.862-.172M311.125 570.854l-.86-.164M311.125 570.854l.172.042.173.056.155.074.156.083.149.105.137.116.134.123.113.141.116.154.105.172.1.181.08.188.075.213.059.222.038.23.035.228.008.248v.246l-.016.246-.033.244-.051.247-.057.247-.08.228-.091.232-.1.22-.121.204-.123.206-.15.18-.155.18-.163.156-.173.148-.187.123-.19.108-.195.09-.207.065-.204.04-.165.017-.164.008-.172-.008-.164-.025M433.222 553.609l.148.032.148.05.148.057.138.074.124.091.122.099.114.105.107.115.108.148.099.146.08.156.074.172.075.198.057.196.04.214.034.214.016.229.008.23-.016.238-.024.23-.035.229-.048.229-.065.221-.074.214-.09.205-.1.197-.114.198-.114.17-.14.172-.14.158-.155.146-.164.123-.13.092-.149.081-.14.064-.156.051-.146.04-.156.025-.156.007h-.156l-.156-.023M438.166 552.912l.149.033.148.04.147.067.132.072.132.084.12.097.116.108.106.121.108.14.09.148.089.156.075.172.065.188.057.204.05.215.024.213.017.23.008.23-.008.228-.024.238-.041.222-.051.23-.065.221-.074.213-.082.204-.106.198-.106.189-.123.18-.13.172-.142.156-.155.148-.164.123-.132.09-.138.074-.148.065-.148.057-.155.042-.148.025-.156.008-.156-.008-.156-.017M212.31 533.222l.164.05.187.049.216.041.236.048.254.034.271.041.287.032.312.032.312.035.334.024.338.017.344.016.353.016.353.008.362.008h.694l.344-.008.336-.016.32-.008.314-.025.294-.024.288-.024.262-.026.236-.033.224-.041.205-.04.172-.042.147-.041.124-.05.097-.047.075-.05.041-.049.015-.05M212.154 533.165l.072.033.084.024M220.838 532.181l-.017.917M321.606 725.426l.032-.025.025-.016.008-.026M319.382 726.597l.305-.155 1.919-1.016M318.433 726.662l.129.019.141.008h.147l.132-.008.13-.01.106-.016.1-.025.064-.033M304.975 724.713l13.458 1.949M303.44 724.491l1.535.222M303.031 724.318l.008.033.042.032.057.034.083.033.106.024.114.017M307.894 548.32l-.532 19.426M307.082 577.66l-4.05 146.658M326.895 550.156l-5.224 175.203M140.376 739.234l.032-3.148M140.408 736.086l.008-.156.017-.164.04-.157.041-.154.066-.148.066-.14.08-.13.092-.132.099-.124.115-.104.114-.107.042-.033M255.313 712.82l.156.06.262.106.254.107.246.122.23.139.221.148.213.164.207.18.137.156.132.163.123.18.108.197.05.124M151.346 743.122l-8.765-1.713M154.324 743.106l-.196.043-.206.03-.206.024-.227.026-.223.016-.23.009h-.467l-.188-.01-.181-.007-.18-.016-.182-.018-.172-.024-.164-.025-.156-.032M142.581 741.409l-.213-.042-.212-.057-.199-.065-.196-.075-.188-.083-.148-.081-.15-.099-.146-.106-.097-.091-.099-.088-.09-.108-.107-.13-.09-.149-.084-.156-.072-.164-.05-.162-.032-.175-.024-.17-.008-.174M169.028 739.906l-14.704 3.2M262.153 522.39l-.075 3.131M142.236 533.042l-.023 3.296M144.606 538.437l8.988 1.083M156.317 539.537l-.156.016-.164.008-.164.016-.188.01-.181.007h-.196l-.19.008-.196-.008h-.197l-.196-.008-.199-.009-.196-.007-.172-.017-.164-.016-.164-.017M144.606 538.437l-.164-.024-.164-.025-.156-.032-.156-.034-.145-.032-.24-.074-.237-.106-.116-.058-.123-.074-.115-.073-.106-.09-.106-.1-.1-.106-.089-.115-.083-.114-.073-.131-.065-.139-.058-.132-.041-.156-.033-.156-.023-.164v-.164M156.317 539.537l102.021-11.636M262.078 525.521l-.008.173-.033.174-.042.162-.056.164-.066.148-.082.14-.081.131-.101.115-.098.114-.105.1-.107.09-.114.081-.124.081-.13.075-.124.065-.124.058-.229.082-.23.082-.237.065-.245.059-.255.048-.27.05-.279.04-.287.042-.313.041M142.236 533.042l.009-.156.024-.148.033-.156.042-.146.057-.14.065-.14.083-.13.09-.124.09-.114.107-.107.114-.099.115-.082.115-.082.122-.066.115-.058.123-.048.156-.049.148-.05.149-.033.221-.04.228-.033.246-.025M144.688 531.016l3.33-.31 3.312-.305 3.29-.31 3.27-.313 3.248-.312 3.232-.318 3.206-.314 3.19-.318 3.166-.312 3.074-.312 3.059-.32 3.041-.31 3.019-.32 3.003-.313 2.984-.32 2.952-.32 2.943-.319 2.92-.32 2.896-.32 2.878-.328 2.853-.32 2.837-.329 2.862-.327 2.838-.336 2.812-.328 2.796-.336 2.78-.337 2.755-.336 2.732-.336 2.705-.337 2.691-.336 2.675-.335 2.646-.345 2.624-.336 2.608-.344M247.915 519.684l.255-.026.263-.033.278-.024.287-.025.296-.024.303-.024.312-.016.31-.018.336-.008.346-.016.344-.009.361-.007h1.42l.344.007.344.01.352.009.337.014.344.018.336.016.328.016.328.025.328.024.32.025.312.024.303.034.295.024.296.041.288.032.278.033.271.042.263.041.245.041.237.048.247.05.237.05.222.056.213.058.205.065.206.065.188.075.27.13.271.165.277.213.098.107.108.122.098.132.091.14.057.123.058.139.049.13.041.148.024.148.01.147.008.148M217.37 524.226l.204.016.197.026.18.024.172.025.148.024.131.033.108.024.09.034.073.032.042.033M214.278 524.414l.05-.032.073-.033.098-.025.115-.024.148-.024.156-.026.18-.024.196-.017.213-.007.222-.008.23-.009h.476l.236.01.24.007.228.007.231.017M218.715 524.497l.204.213M214.278 524.414l-.213.206M215.263 713.117l-.076-.058-.098-.058-.123-.048-.145-.05-.166-.041-.189-.041-.196-.042-.221-.024-.222-.026-.238-.016-.238-.015h-.474l-.239.008-.223.016-.22.025-.198.032-.188.034-.17.04-.149.042-.123.05-.098.056-.075.049M215.263 713.117l.394.385M211.194 713.05l-.41.37M241.651 723.097l-.049-.04-.084-.035-.097-.033-.122-.024-.14-.024-.148-.01-.156-.006h-.146l-.158.006-.138.016-.124.018-.099.033-.081.024-.058.041M241.731 723.285l.019-.016.016-.016v-.05l-.016-.017M241.651 723.097l.099.089M240.051 723.063l-.18.164M246.695 547.557l-.057-.041-.084-.04-.107-.035-.129-.04-.157-.032-.179-.033-.199-.024-.221-.034-.23-.016-.235-.017-.248-.015-.255-.01-.253-.008h-.508l-.239.008-.23.017-.22.016-.198.017-.18.024-.157.034-.138.024-.106.033-.084.04-.056.033M246.695 547.557l.252.263M242.225 547.458l-.27.255M319.794 540.956l-.05-.034-.075-.041-.107-.032-.13-.041-.147-.034-.174-.032-.196-.025-.204-.024-.23-.024-.228-.017-.248-.016-.246-.008-.246-.008-.254-.01-.237.01h-.239l-.221.016-.213.008-.196.025-.172.016-.156.024-.132.033-.106.024-.074.042-.058.033M319.794 540.956l.245.253M315.455 540.841l-.254.23M236.665 724.965v.082M237.1 724.965l-.123.05M237.165 724.983l-.032-.01-.034-.008M236.6 724.875l-.19-.016-.204-.016-.207-.008-.213-.01-.204.01-.197.008-.196.016-.18.016-.174.034-.156.032M236.665 724.965l-.066-.09M316.194 562.596l.17-.024.174-.04M315.766 562.514l.075.018.065.014.065.01.067.008h.065l.074.008M315.66 562.546l.106-.032M315.414 559.054l-.188.072-.172.108-.165.124-.147.147-.133.164-.104.188-.083.197-.065.214-.032.213-.01.23.015.22.043.222.065.223.081.205.116.195.13.181.157.164.164.14.18.121.19.092.205.072M316.194 562.596l-.017-.024M315.414 559.054l.37-.124M316.538 562.532l.368-.124M311.823 714.977l.163-.016.156-.031.147-.043.14-.065M311.414 714.846l.065.019.066.014.064.016.057.008.057.008.075.008M311.305 714.903l.109-.057M310.806 711.614l-.164.1-.156.115-.13.14-.117.164-.098.172-.074.188-.05.205-.031.205v.214l.015.212.05.213.066.205.09.198.107.188.13.172.149.164.162.14.172.122.182.099.196.073M311.823 714.977l-.025-.058M310.806 711.614l.303-.153M312.43 714.822l.303-.156M237.378 723.243v-.033l.008-.032M243.873 722.931l.132.075.114.075.091.072.064.074.033.075.018.08M243.167 723.04l-2.065-.6M239.14 722.515l.263-.026.271-.023.27-.016.287-.01.287-.009h.296l.288.01M237.386 723.178l1.221-.263M238.607 722.915l.092-.121.082-.092.081-.073.09-.048.091-.042.098-.024M243.71 722.925l.032-.01h.05l.023.01h.024l.034.006M244.325 723.382l-.008.321M237.378 723.243l-.007.322M243.167 723.04l.543-.115M298.374 780.975l-.845-.264M300.127 775.251l.156.057.156.074.148.092.139.097.133.116.115.121.113.131.099.15.09.163.083.171.074.188.057.19.05.214.033.22.024.23v.23l-.008.245-.035.238-.039.248-.058.236-.067.23-.088.23-.099.221-.106.212-.123.207-.14.196-.14.181-.155.172-.165.156-.18.14-.181.12-.195.108-.15.065-.163.06-.164.048-.156.024-.172.016h-.156l-.164-.006-.164-.026-.155-.04M303.991 779.54l-.837-.264M305.729 773.834l.164.054.148.075.148.083.138.106.13.107.118.123.114.14.097.14.092.161.081.173.075.19.057.19.05.211.032.221.016.231.009.228-.01.239-.031.237-.043.247-.057.237-.064.23-.083.23-.097.221-.115.212-.116.206-.14.197-.139.181-.154.164-.164.156-.172.14-.191.128-.187.1-.157.074-.155.058-.157.04-.164.032-.164.018-.163.008-.164-.016-.164-.024-.156-.042M425.53 743.531l.14.042.14.057.129.075.124.089.113.09.116.107.099.116.09.12.09.15.075.156.073.156.057.173.05.193.04.207.025.204.008.215v.22l-.016.23-.033.23-.04.222-.058.222-.066.212-.082.212-.09.205-.1.19-.112.19-.126.17-.121.173-.148.147-.147.147-.164.124-.164.115-.141.073-.139.067-.148.048-.154.042-.148.023-.155.008h-.15l-.154-.023-.148-.033M428.966 747.657l-.846-.23M430.392 742.302l.14.041.139.058.132.074.124.082.115.096.105.108.1.114.09.123.09.14.081.157.066.163.057.163.05.198.04.206.025.202.009.214v.222l-.017.23-.024.22-.05.232-.05.213-.074.212-.072.215-.09.204-.1.188-.115.19-.121.18-.124.164-.147.147-.15.148-.154.123-.173.114-.131.074-.147.065-.138.05-.158.042-.146.024-.156.01h-.148l-.156-.02-.148-.031M241.758 723.375l-.008.015-.027.027-.048.03-.073.035-.075.024-.089.017-.1.024M241.731 723.285l.008.009.011.008.008.008.008.008.008.007v.01M241.338 723.547l-.155.007-.165.01h-.335l-.165-.017-.156-.024-.139-.026-.122-.031-.107-.035-.073-.041-.056-.039-.027-.041v-.041l.033-.042" style="fill:none;stroke:red;stroke-width:1.99999;stroke-linecap:round;stroke-linejoin:round;stroke-miterlimit:4;stroke-dasharray:none;stroke-opacity:1;visibility:visible"/><path d="m221.69 569.356 11.303-2.179M215.875 734.326l15.405-4.583M214.547 734.745l17.417-5.292" style="fill:none;stroke:red;stroke-width:.999997;stroke-linecap:round;stroke-linejoin:round;stroke-miterlimit:4;stroke-dasharray:none;stroke-opacity:1;visibility:visible"/><path d="m237.047 706.871-.143-2.956" style="fill:none;stroke:red;stroke-width:.666665;stroke-linecap:round;stroke-linejoin:round;stroke-miterlimit:4;stroke-dasharray:none;stroke-opacity:1;visibility:visible"/><path d="m235.387 724.763-.09-16.448.09 16.448" style="fill:none;fill-opacity:1;fill-rule:nonzero;stroke:red;stroke-width:1.33333;visibility:visible"/><path d="m235.387 724.763-.09-16.448M235.387 724.81l-.09-16.45" style="fill:none;stroke:red;stroke-width:.666665;stroke-linecap:round;stroke-linejoin:round;stroke-miterlimit:4;stroke-dasharray:none;stroke-opacity:1;visibility:visible"/><path d="M233.643 703.502s1.372-1.985 3.5.406l-.136 3.362s-2.164 2.242-3.656-.018l.292-3.75" style="fill:none;fill-opacity:1;fill-rule:nonzero;stroke:red;stroke-width:1.33333;visibility:visible"/><path d="M233.643 703.502s1.372-1.985 3.5.406l-.136 3.362s-2.164 2.242-3.656-.018l.292-3.75" style="fill:none;stroke:red;stroke-width:.666665;stroke-linecap:round;stroke-linejoin:round;stroke-miterlimit:4;stroke-dasharray:none;stroke-opacity:1;visibility:visible"/><path d="m235.458 705.902.03.094.01.094M235.474 706.1l-.016.102-.032.092-.053.076-.083.056-.09.039-.113.021-.116-.004-.129-.026-.136-.048-.128-.062-.132-.086-.116-.1-.11-.102-.09-.12-.072-.122-.05-.122-.028-.12-.009-.104.022-.106.037-.088.063-.074.081-.052.101-.032.115-.013M235.62 702.974l.137.034.136.037.127.048M235.754 708.113l-.188.028-.184.023-.19.004-.182-.014M234.407 707.832l-.029-.008-.027-.014-.018-.009-.023-.01-.028-.014-.027-.016M234.262 707.938l-.008-.177M236.862 703.862l-.09.136-.118.126-.133.116-.159.111-.175.091-.192.071-.2.06-.213.039-.217.021h-.212l-.219-.015-.212-.038-.202-.052-.19-.072-.18-.087-.156-.101-.144-.12-.115-.123-.095-.135M233.56 703.941l.02-.139.04-.146.065-.136.12.011.04-.105.132-.109.145-.097.161-.083.182-.07.184-.054.197-.043" style="fill:none;stroke:red;stroke-width:.666665;stroke-linecap:round;stroke-linejoin:round;stroke-miterlimit:4;stroke-dasharray:none;stroke-opacity:1;visibility:visible"/><path d="m235.969 703.072.17.068.157.082.144.095.122.113.108.11.147.104.026-.004.044.14.016.137" style="fill:none;stroke:red;stroke-width:.666665;stroke-linecap:round;stroke-linejoin:round;stroke-miterlimit:4;stroke-dasharray:none;stroke-opacity:1;visibility:visible"/><path d="m236.887 703.78.16 3.092-.01.148-.022.145-.06.143-.085.142-.108.132-.124.118-.147.108-.164.105-.177.084-.197.068-.199.048M234.77 702.988l-.03.004M235.62 702.974l.026.006M235.729 708.118l.026-.005M235.03 708.152l-.02.004M233.529 706.977l-.034-2.96M234.262 707.938l.056.008M234.77 702.988l.164-.031.176-.012.17-.004.173.015.166.02M235.729 708.118l-.172.03-.175.016-.177.005-.175-.019M234.407 707.832l-.087.114M235.01 708.154l-.128-.02-.13-.026M234.753 708.108l-.013-.175M234.74 707.934l-.06-.009-.06-.015-.054-.018-.048-.015-.052-.019-.059-.025M234.262 707.938l-.159-.094-.146-.111-.123-.119-.096-.134-.076-.135-.045-.153-.027-.144M235.647 702.981l.148.035.143.038.133.05M234.2 703.95l1.99-.172" style="fill:none;stroke:red;stroke-width:.666665;stroke-linecap:round;stroke-linejoin:round;stroke-miterlimit:4;stroke-dasharray:none;stroke-opacity:1;visibility:visible"/><path d="m240.622 640.65 1.573-70" style="fill:none;stroke:red;stroke-width:1.99999;stroke-linecap:round;stroke-linejoin:round;stroke-miterlimit:4;stroke-dasharray:none;stroke-opacity:1;visibility:visible"/><path d="M214.302 590.248s20.744 40.145 118.85 58.693l3.659-19.646s-71.748-3.538-122.509-39.047" style="fill:none;fill-opacity:1;fill-rule:nonzero;stroke:red;stroke-width:1.33333;visibility:visible"/><path d="M214.302 590.248s20.744 40.145 118.85 58.693l3.659-19.646s-71.748-3.538-122.509-39.047" style="fill:none;stroke:red;stroke-width:1.33333;stroke-linecap:butt;stroke-linejoin:miter;stroke-miterlimit:4;stroke-dasharray:none;stroke-opacity:1;visibility:visible"/><path d="m277.946 634.006 3.453 10.13M281.399 644.135l.271-10.882M294.749 577.505l-11.587-4.01M311.355 711.591l-14.17-4.903M295.545 630.446l3.419 10.015M298.964 640.462l.289-10.769M297.357 561.94l3.633 3.42M297.307 563.974l3.79-2.623M294.749 577.505l-18.297-6.65M244.325 723.382l17.556-7.847M259.955 637.649l3.485 10.242M263.44 647.891l.245-10.998M261.914 550.436l3.371 16.613M244.325 723.382l-1.722-3.008M238.592 652.558l5.422-.601M238.705 647.045l5.545-6.217M240.249 570.452l5.461-.286M295.544 630.447l9.906 2.042M325.206 624.446l-.672 4.412M333.102 633.323l-8.74 1.831M292.543 641.806l12.842-2.683M293.495 707.604l9.843 2.58M322.944 700.224l-.665 4.896M290.493 719.83l12.751-3.292M330.79 709.434l-8.708 2.249M240.356 564.844l-4.273 2.272M240.249 570.452l-4.166-3.336M328.362 550.296l-1.68 6.978M315.415 559.056l-7.849 1.262M258.52 568.124l7.83-1.246M220.126 535.052l1.213.442M315.415 559.056l-7.645-6.127M273.878 547.565l5.608 9.735M297.357 561.94l3.755-14.276M273.878 547.565l-6.526 5.183M220.838 532.181l7.381 5.897M294.083 718.907l8.982 4.212M216.698 716.57l4.732-.509M221.534 737.407l-.367-7.16M237.477 711.763l-.557 5.307M238.806 711.951l1.19 5.57M303.44 724.491l-6.927.345M424.095 748.895l-2.64-5.93M300.85 578.562l4.494-1.582M304.049 571.486l1.295 5.494M429.147 560.021l4.076-1.461M435.831 555.963l1.066.024M438.914 557.816l-2.017-1.829M317.833 541.054l5.804 8.79M196.992 714.847l-4.643 9.496M196.992 714.847l2.1 8.06M153.865 532.525l2.77-1.45M153.864 532.524l2.771-1.449M431.786 746.295l-.212-1.499M431.786 746.295l-.212-1.499" style="fill:none;stroke:red;stroke-width:.999997;stroke-linecap:round;stroke-linejoin:round;stroke-miterlimit:4;stroke-dasharray:none;stroke-opacity:1;visibility:visible"/><path d="m280.693 546.557 3.526-.525M294.749 577.505l-15.286-5.47M294.749 577.505l2.165 1.075M294.617 562.376l2.69 1.598M218.484 524.284l10.563 6.954M312.307 575.669l.107-3.945M323.969 711.191l-2.086 6.992M196.516 721.243l8.414 5.428M221.167 730.247l-6.758 2.55M317.022 540.996l-9.128 7.324M312.46 570.248l-5.098-2.502M312.052 576.317l-4.97 1.343M154.323 743.107l14.705-3.201" style="fill:none;stroke:red;stroke-width:1.99999;stroke-linecap:round;stroke-linejoin:round;stroke-miterlimit:4;stroke-dasharray:none;stroke-opacity:1;visibility:visible"/><path d="m228.08 562.54-6.39 6.816M227.99 562.556l5.003 4.621M224.873 731.61l-8.998 2.716M224.873 731.61l-10.326 3.135" style="fill:none;stroke:red;stroke-width:.999997;stroke-linecap:round;stroke-linejoin:round;stroke-miterlimit:4;stroke-dasharray:none;stroke-opacity:1;visibility:visible"/><path d="m235.298 708.315 1.749-1.444M234.2 703.95l.19 1.155" style="fill:none;stroke:red;stroke-width:.666665;stroke-linecap:round;stroke-linejoin:round;stroke-miterlimit:4;stroke-dasharray:none;stroke-opacity:1;visibility:visible"/><path d="m238.705 647.045 1.917-6.395" style="fill:none;stroke:red;stroke-width:1.99999;stroke-linecap:round;stroke-linejoin:round;stroke-miterlimit:4;stroke-dasharray:none;stroke-opacity:1;visibility:visible"/><path d="m206.462 736.882-.016.19-.041.178-.056.164-.091.15-.1.13-.121.105-.14.082-.148.058-.155.026h-.164l-.164-.034-.165-.057-.156-.09-.148-.106-.131-.13-.115-.158-.106-.17-.074-.183-.057-.187-.033-.188-.008-.197.016-.19.034-.181.064-.163.082-.156.106-.132.124-.106.139-.08.15-.051.154-.033.164.009.163.024.165.065.156.082.14.116.137.13.116.156.098.166.084.178.057.188.033.199.007.196M210.892 747.214l.285-16.86M72.115 703.702l138.448 25.808 3.166-1.165-65.588-12.178M130.993 712.977l-2.484-.459M111.55 709.369l-2.395-.441M92.385 705.81l-2.305-.427M72.115 703.702l-.205-.04-.18-.05-.166-.049-.146-.057-.115-.057-.09-.058-.074-.065-.043-.057-.014-.066.014-.068.043-.065.057-.064.091-.057.115-.059.137-.056.164-.057.18-.05.205-.042.215-.04.228-.032.248-.026.252-.024.264-.017M210.563 729.51l.124.03.115.066.105.092.099.105.074.123.059.14.03.147.009.141M210.892 747.214l-.017.132-.034.123-.049.106-.073.1-.09.072-.098.05M129.458 569.076l-1.097 143.753M126.417 568.672 125.36 713.51M109.779 566.468l-.77 142.761M106.72 566.065l-.73 143.836M90.385 563.901l-.452 141.785M87.318 563.491l-.41 142.86" style="fill:none;stroke:#00ff4a;stroke-width:.999997;stroke-linecap:round;stroke-linejoin:round;stroke-miterlimit:4;stroke-dasharray:none;stroke-opacity:1;visibility:visible"/><path d="m73.95 561.72-.5 3.101-.484 3.106-.459 3.118-.434 3.116-.419 3.123-.387 3.125-.366 3.13-.347 3.133-.319 3.144-.296 3.14-.278 3.15-.254 3.147-.23 3.148-.204 3.158-.18 3.158-.166 3.158-.138 3.165-.115 3.165-.09 3.166-.074 3.164-.05 3.174-.023 3.173v3.172l.022 3.175.042 3.183.066 3.173.091 3.181.105 3.175.14 3.18.156 3.176.172 3.18.207 3.183.221 3.173.246 3.183.269 3.18.287 3.174.313 3.174.336 3.176.35 3.17.387 3.172.394 3.175.426 3.167.444 3.174.467 3.156.492 3.164" style="fill:none;stroke:#00ff4a;stroke-width:1.99999;stroke-linecap:round;stroke-linejoin:round;stroke-miterlimit:4;stroke-dasharray:none;stroke-opacity:1;visibility:visible"/><path d="m212.99 561.981-.296 17.516M71.842 544.186l141.146 17.795M214.065 561.966l3.213-.723M72.302 543.375l-.205-.025-.196-.032-.166-.032-.145-.042-.124-.041-.09-.041-.074-.042-.033-.04-.016-.04.016-.042.049-.04.073-.043.099-.04.124-.033.155-.04.172-.034.197-.025.213-.024.23-.025.246-.015.254-.017.27-.008.271-.008.279-.01.28.01h.278l.278.016.262.017.256.015.244.025.231.024M131.822 549.985l-.19-.017-.195-.016-.212-.016-.214-.008h-.442l-.215.008-.213.008-.196.008-.182.025-.164.016-.14.024-.121.033-.092.024-.064.034-.043.033-.006.032.016.04.04.033.082.034.099.032.123.026.148.023.172.025.188.026.197.016.213.017.214.007h.444l.213-.007.212-.01.196-.017.181-.014.164-.018.14-.025.123-.032.09-.024.066-.033.04-.032.01-.042-.017-.032-.049-.033-.076-.033-.097-.034-.132-.024-.148-.033-.163-.024M71.842 544.186l-.237-.032-.214-.033-.204-.042-.173-.04-.147-.041-.122-.05-.099-.04-.073-.05-.042-.05-.017-.047M71.827 560.85l.01.139.022.132.043.116.057.097.065.073.082.05.082.025M71.827 560.85l-.237-.033-.223-.04-.196-.042-.172-.041-.147-.05-.122-.04-.099-.049-.076-.049-.04-.057-.016-.05M216.977 578.71l-.01.133-.04.13-.049.116-.073.097-.083.09-.1.058-.105.041M212.694 579.498l.01.14.015.139.042.125.049.097.067.082.065.049.08.024M216.656 560.408l.123.024.124.057.105.09.099.108.074.122.056.139.034.148.008.147M212.99 561.981l.139.016.141.01.155.007h.148l.146-.008.132-.009.115-.016.1-.016M75.73 542.743l.04-.008h.041M202.01 726.133l1.557-.33" style="fill:none;stroke:#00ff4a;stroke-width:.999997;stroke-linecap:round;stroke-linejoin:round;stroke-miterlimit:4;stroke-dasharray:none;stroke-opacity:1;visibility:visible"/><path d="M149.428 571.724 148 716.478" style="fill:none;stroke:#00ff4a;stroke-width:1.99999;stroke-linecap:round;stroke-linejoin:round;stroke-miterlimit:4;stroke-dasharray:none;stroke-opacity:1;visibility:visible"/><path d="m146.393 571.322-1.385 145.853M131.46 550.043l-1.296-.017M132.117 550.222l-.656-.179M131.469 550.394l.648-.172M130.165 550.378l1.304.016M129.517 550.198l.648.18M130.165 550.025l-.648.173M131.46 550.394v-.352M130.156 550.378l.01-.353" style="fill:none;stroke:#00ff4a;stroke-width:.999997;stroke-linecap:round;stroke-linejoin:round;stroke-miterlimit:4;stroke-dasharray:none;stroke-opacity:1;visibility:visible"/><path d="m70.342 719.94.018-16.042M70.36 703.898l.008-.113.024-.116.033-.115.05-.097.057-.092.065-.082.08-.08.092-.074.09-.067.149-.08.153-.075.172-.066.175-.058.188-.049.205-.05.213-.04.23-.033.205-.024.204-.024.221-.018.223-.016.097-.007M90.081 705.34l2.304.438M109.156 708.885l2.393.45M128.509 712.485l2.485.46M148.141 716.125l65.71 12.212M213.85 728.337h.033l.008.008h.026l.008.006h.01l.006.01h.025l.008.009h.008l.016.007h.01l.007.009h.008l.008.01h.008l.016.006h.01l.008.008.008.01h.008l.01.007.007.007h.016l.008.008.008.008h.008l.01.01.006.009.01.008.007.008h.008l.008.006.01.008.006.008.008.008.008.01h.01l.008.009.008.008.008.007v.008l.01.009.007.007.007.009.01.01.007.006.01.01v.006l.006.01.01.007.006.01v.006l.01.008.007.01v.008l.008.016.008.009v.008l.01.007.006.008v.009l.008.01v.015l.01.008.008.007v.008l.008.008v.027l.008.006v.008l.008.008v.018l.008.009v.015l.01.017v.025l.007.016v.026l.008.016v.114M214.18 745.902l.286-16.81M214.18 745.902l-.009.008v.09l-.009.007v.035l-.007.007v.025l-.009.008v.016l-.008.01v.023l-.008.008v.018l-.008.008v.008l-.01.008v.008l-.006.009v.015l-.008.009v.008l-.01.008v.01l-.007.007-.008.008v.007h-.008v.008l-.01.01v.007l-.006.01-.01.008v.006l-.008.008v.008l-.008.008-.008.01h-.008v.009l-.009.008-.008.007v.008l-.008.009h-.008l-.008.007v.009l-.01.008-.006.01h-.01v.007l-.006.007-.01.01h-.007l-.008.007v.008h-.008l-.01.008-.008.01-.006.005h-.01l-.008.01h-.009v.009l-.007.008h-.009l-.007.009h-.009l-.008.007-.008.009h-.008l-.01.007h-.009l-.005.008h-.008l-.01.01h-.007l-.008.007h-.008l-.01.01h-.014l-.01.007h-.008M210.531 747.797l3.156-1.206M210.531 747.797l-.009.008h-.017v.009h-.023l-.01.005h-.025v.01h-.032l-.008.008h-.04v.008h-.206l-.008-.008h-.034M71.95 721.169l-.173-.032-.172-.04-.156-.051-.155-.05-.138-.057-.124-.05-.115-.064-.115-.072-.106-.084-.099-.1-.092-.114-.065-.114-.048-.115-.024-.09-.018-.1-.008-.097M187.806 743.53l22.313 4.307M71.95 721.169l98.776 19.065M126.385 713.477l1.976-.648M124.777 713.403l-9.537-1.78M125.36 713.51l-.583-.107M115.24 711.623l-3.412-.632M111.828 710.991l-.098-.022-.081-.027-.057-.03-.043-.035-.007-.032M128.509 712.722l-.01.025-.031.032-.04.027-.067.023M126.385 713.477l-.09.025-.115.024-.131.016-.148.008h-.14l-.147-.008-.13-.008-.124-.024M112.362 566.813l-.82 144.032M107.016 709.87l1.992-.641M105.473 709.805l-9.439-1.756M105.99 709.9l-.517-.095M96.034 708.049l-3.377-.631M92.657 707.418l-.09-.019-.083-.024-.056-.032-.043-.033-.007-.032M109.156 709.123l-.007.032-.027.024-.048.026-.066.024M107.016 709.87l-.09.023-.124.024-.132.017-.138.008h-.14l-.139-.008-.141-.008-.122-.025M92.878 564.229l-.5 143.049M87.925 706.318l2.01-.632M87.925 706.318l-.099.025-.114.016-.13.016-.142.01h-.138l-.148-.01-.132-.008-.114-.017M86.44 706.26l-9.334-1.738M86.908 706.35l-.468-.09M77.106 704.522l-3.334-.624M73.772 703.898l-.084-.016-.074-.023-.049-.018-.041-.023-.024-.024-.016-.027M90.081 705.58l-.008.023-.032.035-.041.024-.066.024" style="fill:none;stroke:#00ff4a;stroke-width:1.99999;stroke-linecap:round;stroke-linejoin:round;stroke-miterlimit:4;stroke-dasharray:none;stroke-opacity:1;visibility:visible"/><path d="m73.484 703.767-.378-2.442-.369-2.452-.352-2.452-.336-2.452-.328-2.452-.32-2.452-.296-2.454-.287-2.458-.278-2.452-.264-2.462-.244-2.452-.23-2.46-.222-2.46-.212-2.45-.19-2.462-.18-2.458-.172-2.46-.157-2.462-.139-2.452-.122-2.46-.116-2.46-.106-2.458-.08-2.462-.076-2.453-.065-2.459-.041-2.46-.034-2.453-.024-2.452-.008-2.46.008-2.452.024-2.452.034-2.452.05-2.45.056-2.454.075-2.452.088-2.442.108-2.452.116-2.446.123-2.442.146-2.444.155-2.436.172-2.435.183-2.445.194-2.434.215-2.428.221-2.436.244-2.426.248-2.427.271-2.428.279-2.419.293-2.418.305-2.42.336-2.494.344-2.493.362-2.492.377-2.485.387-2.484.384-2.328M70.514 543.761l-.016 16.637M72.188 561.481l-.163-.024-.157-.025-.156-.024-.139-.032-.133-.035-.17-.05-.156-.065-.124-.056-.114-.074-.115-.099-.057-.057-.058-.074-.049-.082-.043-.098-.03-.1-.019-.105-.007-.083M217.106 578.638v.048l-.008.018v.048l-.007.009v.03l-.009.01v.024l-.008.017v.007l-.01.008v.019l-.007.006v.018l-.007.008v.006l-.008.01v.008l-.01.008v.008l-.006.017v.008l-.01.01v.006l-.009.008v.008l-.008.008-.006.01v.009l-.008.008-.008.006v.008l-.01.008-.009.008-.008.01v.009l-.008.008-.007.008-.009.007v.008l-.007.009-.009.01-.008.007-.01.007-.007.008v.008l-.007.008h-.008l-.01.01-.009.007-.008.007-.008.01-.008.007h-.006l-.01.008-.006.01-.01.009h-.009l-.008.007-.007.008h-.008l-.009.008-.008.008h-.01l-.007.008-.008.009h-.007l-.01.008-.006.01h-.01l-.009.006h-.008l-.014.008h-.01l-.008.008h-.006l-.01.01h-.009l-.008.009h-.024l-.008.006h-.017l-.007.008h-.027l-.006.01-3.215.77M172.204 574.74 72.188 561.482M213.022 580.153l-24.284-3.221M217.41 561.178l-.304 17.46M213.302 580.146h0-.032v.007h-.05v.01h-.189v-.01h-.009M216.737 560.398h.026l.008.01h.034l.006.008h.024l.008.008h.018l.01.006h.022l.01.01h.007l.01.008h.015l.007.009h.008l.008.008.019.008h.008l.008.008h.006l.018.007.01.009h.006l.01.01.007.007.015.008h.01l.007.008.01.008.006.008.008.008h.008l.01.01.006.006.01.008.009.008.008.01.006.008.008.008.01.009.008.007.01.008.006.009.01.008.006.008.008.008.008.008.01.01.007.007v.008l.01.008.007.01.007.006.008.016v.01l.01.008.007.008.01.008v.016l.008.009.006.008v.008l.008.01v.014l.008.008v.01l.011.007.007.015v.01l.01.009v.025l.007.007v.016l.007.009v.016l.008.015v.026l.008.007v.043l.01.016v.098M216.737 560.398 75.812 542.734M70.514 543.761l.01-.09.016-.1.033-.09.032-.081.05-.083.049-.065.057-.066.065-.058.056-.04.075-.048.075-.043.073-.033.14-.058.139-.04.148-.041.156-.032.154-.025.174-.026.188-.024.197-.025.204-.015.223-.017.221-.008.188-.008.197-.01h.196l.198-.007h.197l.196.008h.188l.19.009.187.008.182.008.181.017.172.008.172.016.164.016.155.016M146.042 717.135l1.958-.656M144.369 717.053l-9.653-1.798M145.008 717.174l-.639-.121M134.716 715.255l-3.435-.638M131.281 714.617l-.099-.023-.09-.027-.058-.03-.04-.036-.009-.032M148.141 716.373l-.008.022-.033.035-.042.023-.058.026M146.042 717.135l-.1.03-.114.02-.13.016-.141.008h-.285l-.142-.016-.122-.02M132.133 569.437l-1.148 145.032M129.133 550.181l.024-.033.05-.034.08-.032.106-.033.141-.024.155-.024.181-.016.188-.017.206-.008.221-.01.221-.008.222.008.222.01.22.008.206.017.197.016.172.024.156.024.13.033.115.032.083.034.05.033.023.032" style="fill:none;stroke:#00ff4a;stroke-width:1.99999;stroke-linecap:round;stroke-linejoin:round;stroke-miterlimit:4;stroke-dasharray:none;stroke-opacity:1;visibility:visible"/><path d="m214.466 729.091-8.004 7.791M211.177 730.354l-4.715 6.528M213.85 728.337l-3.287 1.173M130.156 550.378l-.698 18.698M130.156 550.378l-3.739 18.294M70.498 560.398l16.82 3.093" style="fill:none;stroke:#00ff4a;stroke-width:.999997;stroke-linecap:round;stroke-linejoin:round;stroke-miterlimit:4;stroke-dasharray:none;stroke-opacity:1;visibility:visible"/><path d="m170.726 740.234 17.08 3.296M187.806 743.53l-17.08-3.296M188.738 576.932l-16.534-2.191M172.204 574.74l16.534 2.192M131.46 550.394l.673 19.043" style="fill:none;stroke:#00ff4a;stroke-width:1.99999;stroke-linecap:round;stroke-linejoin:round;stroke-miterlimit:4;stroke-dasharray:none;stroke-opacity:1;visibility:visible"/><path d="m129.458 569.076-19.679-2.608M199.092 722.907l2.918 3.226" style="fill:none;stroke:#00ff4a;stroke-width:.999997;stroke-linecap:round;stroke-linejoin:round;stroke-miterlimit:4;stroke-dasharray:none;stroke-opacity:1;visibility:visible"/><path d="m132.133 569.437 17.295 2.287" style="fill:none;stroke:#00ff4a;stroke-width:1.99999;stroke-linecap:round;stroke-linejoin:round;stroke-miterlimit:4;stroke-dasharray:none;stroke-opacity:1;visibility:visible"/><path d="m132.133 569.437 14.26 1.885" style="fill:none;stroke:#00ff4a;stroke-width:.999997;stroke-linecap:round;stroke-linejoin:round;stroke-miterlimit:4;stroke-dasharray:none;stroke-opacity:1;visibility:visible"/><path d="m129.458 569.076-17.096-2.263" style="fill:none;stroke:#00ff4a;stroke-width:1.99999;stroke-linecap:round;stroke-linejoin:round;stroke-miterlimit:4;stroke-dasharray:none;stroke-opacity:1;visibility:visible"/></svg>