<svg xmlns="http://www.w3.org/2000/svg" baseProfile="full" height="1122.52" preserveAspectRatio="xMinYMin meet" style="width:912px;height:1303px" width="793.701" xml:space="preserve"><path d="m310.761 429.642-1.096.472M292.792 431.3v.005M294.865 436.143h.007v-.004M293.434 433.133l-.447.133M293.917 433.742l-.483-.61M293.959 434.483l-.041-.741M481.172 399.6l1.3.92M309.077 430.22l.045-.156.07-.165.08-.167.1-.173.108-.166.125-.168.14-.165.143-.155" style="fill:none;stroke:red;stroke-width:.999997;stroke-linecap:round;stroke-linejoin:round;stroke-miterlimit:4;stroke-dasharray:none;stroke-opacity:1;visibility:visible"/><path d="m311.577 429.903-.15.177-.16.174-.173.166-.17.15-.187.132-.183.121-.184.104-.182.085-.174.062-.168.044-.158.021-.143-.007-.128-.022-.115-.047-.09-.07-.076-.086-.059-.101-.032-.127-.013-.139.013-.153.032-.168M362.195 441.897l8.817 5.092 125.016-58.343M484.966 388.043l-.167-.075-.18-.058-.189-.048-.193-.044-.208-.027-.202-.012-.2-.007-.202.012-.191.022-.17.036-.16.046-.143.056-.128.066-.096.076-.082.077-.054.093-.02.091v.092l.028.099.057.096.081.094.104.09.127.088.141.08.167.068.18.057.187.055.204.037.2.03.208.017h.198l.203-.012.19-.023.171-.035.163-.046.14-.051.128-.07.099-.073.081-.081.052-.092.02-.092-.005-.092-.028-.097-.052-.096-.082-.095-.101-.09-.128-.089-.148-.073M432.151 412.386l-.167-.075-.177-.068-.195-.06-.209-.037-.21-.03-.22-.015h-.21l-.208.012-.207.021-.189.04-.175.047-.158.062-.139.075-.115.08-.085.093-.065.098-.042.104-.005.102.024.11.047.102.074.104.1.098.124.098.15.079.166.083.179.061.196.059.205.045.214.03.218.017h.212l.214-.012.2-.024.19-.039.178-.052.156-.064.137-.075.115-.08.092-.092.064-.096.034-.104.008-.104-.021-.104-.05-.108-.075-.104-.099-.098-.125-.092-.151-.087" style="fill:none;stroke:red;stroke-width:.999997;stroke-linecap:round;stroke-linejoin:round;stroke-miterlimit:4;stroke-dasharray:none;stroke-opacity:1;visibility:visible"/><path d="m373.558 439.403-.172-.087-.185-.074-.2-.058-.215-.045-.223-.035-.225-.017h-.23l-.222.01-.213.03-.207.041-.196.056-.172.07-.153.08-.135.093-.101.103-.083.109-.044.11-.023.114.011.121.035.114.069.116.097.109.12.104.148.097.167.079.185.076.2.063.219.045.22.03.23.023h.222l.232-.012.208-.03.21-.046.197-.056.172-.069.153-.08.133-.093.103-.104.083-.108.044-.11.022-.12-.009-.114-.043-.115-.068-.115-.097-.109-.121-.103-.143-.093M370.421 447.92l-.127 3M370.295 450.919l.005.11.016.098.036.085.05.063.065.053M371.012 446.99l-.11.063-.11.085-.096.11-.092.122-.076.136-.057.137-.034.139-.016.139M496.266 388.629l-.079-.017-.072.005-.086.03M371.19 451.362l9.581-4.512" style="fill:none;stroke:red;stroke-width:.999997;stroke-linecap:round;stroke-linejoin:round;stroke-miterlimit:4;stroke-dasharray:none;stroke-opacity:1;visibility:visible"/><path d="M371.19 451.362h-.005l-.004.007h-.007l-.012.005h-.007l-.002.007h-.008l-.007.004h-.01l-.007.005h-.007l-.004.007h-.017l-.006.005h-.018l-.006.005h-.006l-.01.008h-.017l-.013.004h-.022l-.005.007h-.03l-.006.005h-.063l-.006.004h-.051l-.01-.004h-.06l-.005-.005h-.034l-.006-.007h-.022l-.006-.004h-.024l-.006-.008h-.018l-.005-.005h-.007l-.005-.005h-.019l-.001-.007h-.007l-.012-.005h-.005l-.005-.004h-.007l-.01-.007h-.006l-.008-.005h-.003l-.006-.007h-.015l-.005-.007h-.004l-.008-.005-.004-.004h-.007l-.01-.007h-.007l-.006-.005-.004-.005-6.821-3.967" style="fill:none;stroke:red;stroke-width:.999997;stroke-linecap:round;stroke-linejoin:round;stroke-miterlimit:4;stroke-dasharray:none;stroke-opacity:1;visibility:visible"/><path d="m421.872 427.507 17.216-8.103M474.617 402.686l17.027-8.01M361.305 438.517l2.73-1.241M405.172 418.547l17.24-7.85M458.013 394.491l17.073-7.776M493.484 403.364l2.268-7.885M496.107 392.888l.088-.03.076-.011.063.017" style="fill:none;stroke:red;stroke-width:1.99999;stroke-linecap:round;stroke-linejoin:round;stroke-miterlimit:4;stroke-dasharray:none;stroke-opacity:1;visibility:visible"/><path d="m492.133 395.255.039-.115.057-.12.07-.12.082-.109.083-.105.093-.091.1-.07.09-.05M489.242 405.405l2.89-10.15" style="fill:none;stroke:red;stroke-width:.999997;stroke-linecap:round;stroke-linejoin:round;stroke-miterlimit:4;stroke-dasharray:none;stroke-opacity:1;visibility:visible"/><path d="m489.529 405.75 3.35-1.61M489.529 405.75l-.079.03-.082.01-.058-.019-.052-.033-.029-.057-.015-.08.006-.095.022-.101M493.484 403.364l-.041.115-.052.114-.071.122-.079.108-.085.104-.09.085-.093.075-.096.052" style="fill:none;stroke:red;stroke-width:1.99999;stroke-linecap:round;stroke-linejoin:round;stroke-miterlimit:4;stroke-dasharray:none;stroke-opacity:1;visibility:visible"/><path d="m423.615 358.154.292.137" style="fill:none;stroke:red;stroke-width:.999997;stroke-linecap:round;stroke-linejoin:round;stroke-miterlimit:4;stroke-dasharray:none;stroke-opacity:1;visibility:visible"/><path d="m476.529 383.412 2.841 1.356M489.12 405.68l.185.09" style="fill:none;stroke:red;stroke-width:1.99999;stroke-linecap:round;stroke-linejoin:round;stroke-miterlimit:4;stroke-dasharray:none;stroke-opacity:1;visibility:visible"/><path d="m320.94 418.07 11.472 6.62 6.797-2.936M355.058 414.903l102.721-44.395M447.05 369.923l-.156-.07-.172-.057-.18-.045-.195-.035-.196-.029-.194-.017h-.196l-.195.006-.185.023-.178.033-.156.042-.142.05-.126.066-.104.068-.081.074-.057.086-.028.086-.006.086.023.093.045.092.07.085.097.087.117.081.138.074.153.065.167.056.185.048.19.037.193.028.202.014.199.006.192-.012.185-.018.178-.035.161-.039.143-.057.12-.059.104-.073.081-.077.057-.08.028-.092.006-.087-.023-.088-.045-.095-.067-.086-.103-.084-.113-.076-.136-.075M394.01 392.582l-.159-.075-.173-.062-.185-.052-.2-.04-.2-.022-.21-.018-.205-.007-.205.013-.198.023-.188.036-.174.043-.162.064-.138.062-.115.082-.095.08-.065.093-.045.096-.014.1.014.097.041.098.063.096.09.092.115.086.139.082.154.074.174.063.19.052.195.039.207.03.206.016h.206l.208-.01.201-.024.184-.035.177-.045.158-.056.137-.07.115-.081.097-.08.065-.09.044-.1.011-.098-.01-.097-.04-.099-.07-.097-.09-.092-.115-.084-.135-.083M335.352 417.644l-.155-.08-.178-.07-.191-.057-.207-.044-.212-.029-.217-.017h-.219l-.217.01-.215.023-.201.041-.19.051-.178.068-.152.075-.135.081-.109.099-.08.097-.056.105-.025.107v.11l.029.11.057.11.087.095.116.099.13.085.162.08.172.071.196.056.207.048.213.027.217.017h.218l.221-.01.21-.025.207-.041.192-.05.171-.069.156-.074.132-.087.107-.092.082-.097.059-.11.02-.104v-.109l-.025-.108-.066-.11-.085-.1-.11-.094-.138-.088M331.829 425.591l-.05 2.939M320.94 418.07l-.08-.039-.081-.018h-.068l-.07.018M332.41 424.69l-.11.063-.11.081-.096.104-.087.121-.072.124-.054.139-.035.14-.019.13M331.778 428.53l.007.103.021.1.035.085.05.068.071.047M458.013 370.498l-.076-.016h-.075l-.084.027" style="fill:none;stroke:red;stroke-width:.999997;stroke-linecap:round;stroke-linejoin:round;stroke-miterlimit:4;stroke-dasharray:none;stroke-opacity:1;visibility:visible"/><path d="M320.18 418.709v-.052l.007-.007v-.045l.004-.005v-.018l.008-.012v-.017l.002-.007v-.016l.008-.012v-.016l.006-.006v-.011l.004-.005v-.007l.006-.01v-.007l.007-.011v-.005l.007-.006.004-.012v-.008l.008-.009v-.008l.005-.004.007-.012v-.005l.005-.006.004-.013.007-.005v-.006l.005-.009.005-.008.007-.004v-.005l.005-.014.007-.005.005-.005.006-.006.005-.012.005-.006.004-.006v-.005l.007-.007.007-.01.008-.007.005-.004.004-.005.008-.008.004-.006.007-.005.004-.012.006-.004.006-.007.012-.005.006-.007.007-.006.004-.006.005-.005.006-.005.005-.007.007-.005.013-.007.005-.005.006-.006.004-.005h.006l.01-.007.008-.005.004-.007.008-.005.012-.004.004-.005h.008l.002-.008.012-.006.007-.006h.005l.014-.006.005-.004h.005l.011-.006.007-.006h.002l.014-.005.005-.005h.013M320.18 418.709l-.032 2.919" style="fill:none;stroke:red;stroke-width:1.99999;stroke-linecap:round;stroke-linejoin:round;stroke-miterlimit:4;stroke-dasharray:none;stroke-opacity:1;visibility:visible"/><path d="M320.519 422.278h-.012l-.004-.007-.008-.005h-.004l-.005-.003-.007-.009-.01-.003-.005-.008h-.008l-.005-.006-.007-.006-.005-.006-.004-.004h-.007l-.004-.008-.006-.006-.007-.002-.007-.008-.01-.006-.007-.005-.004-.005-.005-.007-.006-.005-.008-.006v-.006l-.004-.006-.005-.006-.008-.006-.007-.002-.006-.01-.004-.005-.006-.005-.004-.007-.006-.005-.006-.007v-.005l-.006-.007-.006-.004-.006-.005-.006-.007-.005-.004v-.012l-.007-.007-.002-.005-.007-.007v-.005l-.007-.005-.005-.007v-.01l-.008-.007-.004-.003v-.008l-.007-.007-.006-.009v-.005l-.007-.007-.004-.007v-.01l-.004-.007v-.005l-.01-.006v-.012l-.002-.005v-.007l-.008-.005v-.01l-.004-.007v-.007l-.007-.01v-.005l-.005-.008v-.016l-.005-.005v-.019l-.007-.005v-.017l-.005-.006v-.034l-.006-.007v-.03l-.004-.009v-.076" style="fill:none;stroke:red;stroke-width:.999997;stroke-linecap:round;stroke-linejoin:round;stroke-miterlimit:4;stroke-dasharray:none;stroke-opacity:1;visibility:visible"/><path d="m320.641 418.03 5.625-2.379M367.391 398.283l17.27-7.285M420.378 375.918l17.153-7.248" style="fill:none;stroke:red;stroke-width:1.99999;stroke-linecap:round;stroke-linejoin:round;stroke-miterlimit:4;stroke-dasharray:none;stroke-opacity:1;visibility:visible"/><path d="m320.519 422.278 11.443 6.655M332.647 428.972l7.607-3.316M332.647 428.972l-.012.008h-.007l-.005.003h-.004l-.005.009h-.014l-.012.004h-.005l-.007.004h-.01l-.006.007h-.017l-.007.005h-.009l-.013.007h-.016l-.007.005h-.024l-.005.005h-.034l-.013.007h-.15l-.003-.007h-.04l-.007-.005h-.024l-.004-.005h-.023l-.006-.007h-.016l-.008-.005h-.011l-.004-.007h-.019l-.005-.004h-.007l-.006-.004h-.006l-.005-.01h-.015l-.005-.002h-.008l-.007-.008h-.004l-.008-.005h-.01l-.006-.007-.005-.004h-.005l-.008-.005h-.004l-.007-.007h-.007l-.005-.005-.005-.006M383.373 406.859l17.263-7.528M436.315 383.779l17.125-7.467M458.422 305.983l-.008-.17-.023-.18-.045-.178-.063-.17-.08-.163-.098-.15-.107-.133-.123-.115-.125-.092-.133-.073-.138-.043-.133-.022-.132.012-.12.036-.115.057-.104.085-.092.107-.069.123-.055.146-.037.154-.01.166.005.178.024.18.044.17.065.175.079.16.093.15.107.133.122.113.128.097.135.07.133.044.138.018.128-.005.125-.036.115-.063.104-.08.088-.109.073-.12.052-.144.033-.16.019-.168M470.805 304.909l3.479-1.3M469.836 305.145l3.883 16.69M444.594 296.874l25.243 8.27" style="fill:none;stroke:red;stroke-width:.999997;stroke-linecap:round;stroke-linejoin:round;stroke-miterlimit:4;stroke-dasharray:none;stroke-opacity:1;visibility:visible"/><path d="m458.88 306.54-.005-.25-.023-.267-.04-.259-.063-.263-.085-.253-.099-.253-.122-.242-.134-.224-.145-.213-.167-.2-.174-.179-.183-.153-.19-.135-.195-.114-.195-.08-.204-.063-.197-.035-.198-.006-.19.024-.188.044-.175.076-.167.104-.148.121-.137.15-.123.166-.101.188-.087.201-.07.226-.044.234-.028.242-.006.253.011.257.033.266.052.258.076.259.091.253.11.24.125.236.145.219.155.205.166.191.179.167.185.144.188.126.2.096.195.072.204.05.2.017.19-.003.187-.034.18-.059.172-.087.162-.11.144-.138.132-.154.109-.179.097-.193.08-.219.058-.224.038-.243.019-.253" style="fill:none;stroke:red;stroke-width:.999997;stroke-linecap:round;stroke-linejoin:round;stroke-miterlimit:4;stroke-dasharray:none;stroke-opacity:1;visibility:visible"/><path d="m444.411 296.49-.013.075.018.076.034.08.062.078.082.075M448.318 294.811l.081-.017h.08l.082.017" style="fill:none;stroke:red;stroke-width:1.99999;stroke-linecap:round;stroke-linejoin:round;stroke-miterlimit:4;stroke-dasharray:none;stroke-opacity:1;visibility:visible"/><path d="m448.56 294.811.068-.017h.07l.062.012" style="fill:none;stroke:red;stroke-width:1.99999;stroke-linecap:round;stroke-linejoin:round;stroke-miterlimit:4;stroke-dasharray:none;stroke-opacity:1;visibility:visible"/><path d="m469.836 305.145.11-.017.117-.016.133-.028.132-.038.133-.028.124-.04.12-.033.1-.036M474.284 303.609l.073-.033.06-.03.034-.022.01-.016M473.719 321.835v.119l.019.104.033.09.047.083.062.056.068.035M440.284 310.839l15.705 5.356M440.284 310.839h0-.005l-.008-.005h-.011l-.004-.007h-.01v-.004h-.014l-.005-.005h-.006l-.005-.008h-.008l-.005-.004h-.004l-.006-.006h-.008l-.002-.006h-.008v-.006h-.014v-.006h-.005l-.005-.006h-.006v-.006h-.009v-.004h-.005l-.008-.007h-.006v-.005h-.005l-.005-.006h-.006v-.008h-.005v-.004h-.007v-.004h-.005l-.008-.006h-.005v-.007h-.006v-.005h-.005v-.007h-.005l-.006-.004v-.007h-.005l-.008-.005h-.004v-.008l-.008-.003-.005-.006-.006-.006-.005-.006M460.875 317.862l13.073 4.46M474.432 322.31l3.424-1.345M474.432 322.31h-.005l-.008.005h-.003l-.008.006h-.017l-.006.005h-.01l-.008.007h-.011l-.005.006h-.018l-.002.006h-.032v.005h-.028l-.006.004h-.07l-.006.008h-.028l-.005-.008h-.068l-.008-.004h-.033l-.006-.005h-.024l-.004-.006h-.018l-.006-.006h-.01l-.008-.007h-.015l-.008-.005M319.79 355.442l.065-.139.074-.108.097-.092.11-.058.115-.028h.126l.13.028.142.058.129.08.133.115.127.133.113.154.106.166.089.184.077.196.058.195.032.203.02.189v.183l-.024.173-.046.155-.056.138-.082.108-.099.086-.103.058-.121.035h-.127l-.129-.028-.139-.056-.132-.088-.134-.11M334.256 355.983l4.455-1.667M333.169 356.245l4.967 18.676M307.975 345.673l25.195 10.572" style="fill:none;stroke:red;stroke-width:.999997;stroke-linecap:round;stroke-linejoin:round;stroke-miterlimit:4;stroke-dasharray:none;stroke-opacity:1;visibility:visible"/><path d="m307.808 345.275-.005.08.018.08.026.081.058.08.07.076" style="fill:none;stroke:red;stroke-width:1.99999;stroke-linecap:round;stroke-linejoin:round;stroke-miterlimit:4;stroke-dasharray:none;stroke-opacity:1;visibility:visible"/><path d="m333.169 356.245.108-.012.128-.023.136-.021.15-.035.151-.04.148-.04.138-.046.128-.046M338.71 354.316l.096-.036.08-.04.059-.033.034-.026.004-.021M338.135 374.921l.015.139.036.121.058.101.075.083.09.052M315.99 365.643l5.576 2.43M325.963 369.992l12.447 5.425M339.019 375.429l4.413-1.73M339.019 375.429l-.007.005h-.005l-.007.008h-.009l-.007.004h-.009l-.008.004h-.01l-.005.008h-.018l-.006.006h-.018l-.006.005h-.024l-.005.005h-.023l-.005.007h-.047l-.005.007h-.132l-.005-.007h-.04l-.008-.007h-.03l-.005-.005h-.023l-.005-.005h-.016l-.004-.006h-.013l-.006-.008h-.017l-.005-.004h-.011l-.01-.004h-.009l-.006-.008h-.014l-.002-.005h-.007l-.004-.005h-.007l-.006-.007M343.484 373.676h0v.005h-.017v.007h-.011v.005h-.01v.007h-.014M488.448 396.497l-.09.052-.1.076-.091.084-.086.103-.086.116-.068.12-.055.116-.039.116-2.872 10.177M484.96 407.457l-.024.108v.09l.01.077.03.057.052.033M492.065 394.877l-.065-.017-.075.004-.081.037M487.99 403.319l.12-.07.12-.086.127-.105.12-.119.12-.136.109-.145.104-.15.09-.157.071-.153.058-.156.04-.142.022-.138.006-.122-.008-.102-.036-.092-.052-.071-.063-.044-.081-.024h-.099l-.101.024-.118.044-.12.063-.126.088-.126.109-.12.12-.12.13-.109.151-.107.151-.082.153-.076.158-.058.154-.041.143-.021.133-.008.126.018.102.028.092.052.063.068.047.082.029h.09l.11-.023.117-.045M395.58 352.62l1.884.915M412.773 360.947l2.11 1.023M430.492 369.52l2.336 1.133M448.742 378.36l2.585 1.252M467.565 387.467l2.844 1.381M482.48 400.48l.01-.19-.005-.197-.024-.193-.041-.197-.057-.199-.074-.196-.093-.19" style="fill:none;stroke:red;stroke-width:.999997;stroke-linecap:round;stroke-linejoin:round;stroke-miterlimit:4;stroke-dasharray:none;stroke-opacity:1;visibility:visible"/><path d="m479.79 400.248.096.21.115.187.125.184.145.168.152.148.154.127.166.11.172.091.172.064.167.035.167.016.169-.012.153-.033.143-.064.13-.08.123-.11.104-.126.086-.148.068-.168.052-.178.032-.19M371.368 451.631l-.11.063-.114.088-.107.096-.106.122-.087.124-.072.128-.059.131-.033.123M368.482 463.378l-.012.097.007.087.018.07.034.062.052.041M368.482 463.378l2.197-10.872M338.703 432.64l-6.217-3.616M320.187 421.874l-6-3.488M284.949 401.382l-5.593-3.247M439.531 419.633l-.057-.016h-.066l-.072.01-.076.035M434.854 422.253l-2.593 10.507M432.26 432.76l-.016.104v.087l.016.073.028.063.055.034M382.15 389.836l2.344 1.23M438.925 419.484l.336.179M359.44 382.577l2.117 1.11M377.201 391.918l2.345 1.235M395.523 401.56l2.597 1.367M414.445 411.52l2.864 1.505M433.99 421.806l.864.447M285.607 397.664l8.65 4.993M314.353 396.625l6.405-2.58M351.721 381.603l70.052-28.163M411.357 352.867l-.145-.059-.162-.056-.172-.048-.185-.033-.188-.024-.195-.016h-.193l-.187.004-.177.02-.175.032-.161.041-.143.047-.128.057-.101.067-.087.072-.057.073-.041.086-.006.081.014.087.038.085.063.08.085.083.11.073.128.07.149.063.161.051.174.047.182.04.191.02.195.013.19.005.187-.005.185-.024.172-.027.164-.04.143-.046.12-.063.11-.064.08-.075.06-.074.037-.079.01-.088-.016-.083-.038-.084-.066-.086-.085-.075-.11-.08-.13-.068M358.214 373.998l-.143-.063-.168-.064-.177-.046-.192-.04-.193-.028-.203-.01-.201-.008-.202.011-.196.024-.181.03-.172.046-.157.05-.144.063-.115.076-.097.079-.074.081-.046.094-.019.092.007.09.032.092.053.092.088.086.103.08.126.076.15.068.165.057.18.052.19.04.194.024.2.016h.203l.201-.005.197-.023.182-.035.17-.038.164-.059.138-.064.12-.07.092-.078.076-.087.045-.085.017-.093-.006-.091-.03-.099-.062-.085-.08-.088-.104-.084-.131-.076M422.016 353.435l-.076-.021-.08.005-.087.021M285.607 397.664l-.07-.036-.069-.017h-.068l-.056.012M357.067 383.543l7.49-3.04M400.305 366.003l17.183-6.97M285.269 401.778l8.084 4.7" style="fill:none;stroke:red;stroke-width:.999997;stroke-linecap:round;stroke-linejoin:round;stroke-miterlimit:4;stroke-dasharray:none;stroke-opacity:1;visibility:visible"/><path d="m285.344 397.623 5.588-2.195M344.347 374.421l4.89-1.917M387.355 357.51l14.828-5.83" style="fill:none;stroke:red;stroke-width:1.99999;stroke-linecap:round;stroke-linejoin:round;stroke-miterlimit:4;stroke-dasharray:none;stroke-opacity:1;visibility:visible"/><path d="m285.269 401.778-.007-.007h-.005l-.005-.005-.011-.004h-.005l-.007-.007-.005-.005-.007-.008h-.005l-.006-.004-.006-.005-.006-.007h-.006l-.004-.004-.007-.008-.005-.005-.007-.006-.005-.006h-.004l-.01-.006-.005-.005-.005-.007-.006-.005-.005-.004-.004-.005-.007-.007-.006-.005-.006-.007-.005-.005v-.006l-.007-.006-.005-.006h-.005l-.006-.006-.005-.011-.007-.007v-.005l-.006-.005-.003-.007-.008-.005v-.004l-.004-.008-.01-.004-.005-.007v-.005l-.005-.006-.004-.005v-.007l-.007-.005-.006-.012v-.005l-.006-.007-.006-.004v-.008l-.006-.003-.006-.008v-.012l-.004-.005v-.007l-.007-.005v-.004l-.005-.012v-.005l-.004-.007v-.005l-.007-.007v-.01l-.004-.007v-.006l-.008-.005v-.016l-.003-.007v-.016l-.008-.006v-.011l-.005-.015v-.009l-.008-.007v-.034l-.005-.006v-.033l-.004-.012v-.053M284.883 398.301l.024 2.856M284.883 398.301v-.076l.005-.01v-.034l.007-.007v-.016l.005-.013v-.017l.007-.004v-.018l.004-.005v-.013l.005-.006v-.01l.008-.007v-.01l.006-.007v-.006l.008-.012v-.005l.002-.012v-.005l.008-.007.004-.01v-.006l.007-.012.005-.005v-.006l.004-.012.007-.006.004-.006v-.01l.007-.004.005-.007.007-.007.005-.01v-.007l.007-.005.006-.007.006-.012.004-.005.005-.006.01-.005.003-.005.008-.014.003-.004.007-.006.006-.006.006-.006.005-.006.005-.005.006-.004.006-.012.006-.008.005-.004.007-.007.006-.005.004-.008.011-.004.005-.005.006-.006.009-.006.004-.006h.005l.012-.006.007-.004.005-.007.006-.005.012-.004.005-.008.005-.004h.007l.012-.006.005-.008.004-.005h.012l.006-.005.006-.006.011-.008h.007l.006-.004.011-.006h.005l.012-.006h.006l.005-.005.013-.007M339.514 428.794l1.875 1.087M359.57 431.974l117.04-52.533M465.714 378.842l-.161-.068-.17-.059-.185-.048-.197-.038-.202-.03-.2-.014h-.202l-.194.005-.184.021-.177.036-.161.047-.147.05-.117.065-.104.073-.08.081-.052.079-.03.09v.095l.024.092.052.098.072.086.098.092.126.08.139.075.161.07.172.057.191.052.197.042.192.02.21.018h.192l.198-.006.187-.022.18-.034.161-.042.144-.055.122-.065.102-.074.08-.082.052-.08.03-.092v-.092l-.03-.092-.046-.098-.082-.085-.098-.092-.118-.08-.145-.076M412.773 402.325l-.159-.076-.182-.063-.186-.05-.202-.047-.211-.03-.208-.01-.213-.007-.207.012-.203.023-.19.04-.17.047-.164.064-.134.068-.115.081-.095.085-.061.094-.04.097-.012.103.012.104.045.102.07.096.098.099.12.087.139.086.159.075.18.064.194.057.204.039.203.03.213.017h.214l.208-.012.198-.023.19-.035.172-.052.161-.061.139-.072.114-.079.094-.086.062-.092.039-.104.013-.098-.016-.102-.046-.104-.07-.098-.1-.097-.118-.088-.139-.084M476.846 379.428l-.076-.023-.08.006-.081.029M339.514 428.794l-.085-.041-.087-.02h-.08l-.07.02M360.61 435.89l.563-.257M402.305 417.013l17.245-7.805M455.161 393.084l17.085-7.73M339.042 433.053l3.795 2.208M339.192 428.753l1.695-.747" style="fill:none;stroke:red;stroke-width:.999997;stroke-linecap:round;stroke-linejoin:round;stroke-miterlimit:4;stroke-dasharray:none;stroke-opacity:1;visibility:visible"/><path d="m385.97 408.253 17.264-7.568M438.901 385.06l17.125-7.507" style="fill:none;stroke:red;stroke-width:1.99999;stroke-linecap:round;stroke-linejoin:round;stroke-miterlimit:4;stroke-dasharray:none;stroke-opacity:1;visibility:visible"/><path d="M339.042 433.053h-.007l-.006-.007-.006-.004-.01-.005h-.006l-.006-.007-.004-.005-.007-.007-.007-.005-.009-.007h-.008l-.005-.005-.004-.005-.004-.004-.008-.008-.006-.004-.006-.007-.006-.007h-.008l-.005-.005-.01-.004-.006-.007-.005-.008-.007-.002-.005-.007-.007-.005v-.008l-.007-.006-.002-.004-.007-.006-.007-.011-.004-.007-.005-.006-.007-.006-.005-.005-.005-.005-.008-.007v-.004l-.004-.007-.007-.012-.007-.004-.005-.006-.005-.008v-.004l-.006-.006-.006-.012-.006-.005v-.007l-.006-.005-.004-.007v-.009l-.008-.008-.003-.005v-.006l-.007-.009-.006-.008v-.004l-.007-.007v-.012l-.004-.005v-.005l-.005-.012v-.006l-.006-.006v-.011l-.005-.004v-.008l-.008-.012v-.005l-.004-.007v-.017l-.008-.004v-.014l-.005-.004v-.017l-.004-.007v-.022l-.007-.011v-.03l-.005-.01v-.105M338.73 429.432l-.061 2.947M338.73 429.432v-.017l.008-.008v-.05l.007-.012v-.036l.006-.002v-.019l.003-.01v-.018l.007-.007v-.01l.004-.006v-.018l.006-.006v-.012l.006-.005v-.013l.006-.003v-.008l.006-.012.006-.004v-.005l.006-.012v-.008l.006-.01.006-.005v-.007l.004-.01.008-.004.005-.008v-.012l.005-.004.007-.007.005-.012v-.007l.006-.004.006-.005.007-.012.003-.007v-.005l.005-.005.007-.007.005-.01.007-.007.005-.003.007-.008.005-.007.005-.009.006-.005.006-.007.006-.007.006-.005.006-.004.008-.008.004-.005.005-.006.005-.005.008-.007.004-.006.004-.006.014-.005.004-.005.006-.004.006-.007.006-.005.006-.007.01-.007.007-.006.005-.006.006-.006.006-.006.012-.004h.006l.006-.005.007-.005.01-.007.005-.007h.006l.011-.004.007-.008.006-.004h.01l.006-.008.006-.002h.012l.005-.008.007-.006h.012M376.03 449.983l-2.23 10.844M376.03 449.983l.033-.12.058-.133.076-.127.086-.127.103-.113.103-.103.114-.082.112-.063M373.89 461.183l-.045-.041-.035-.056-.023-.075v-.087l.012-.098M377.128 456.247l-.144.057-.14.034-.121.006-.108-.017-.099-.04-.073-.063-.054-.093-.034-.11-.011-.126.007-.141.033-.156.052-.162.075-.168.09-.17.112-.167.12-.161.138-.15.138-.138.15-.119.149-.104.144-.081.144-.058.135-.034.122-.006.111.018.09.038.08.07.053.086.036.111.01.13-.01.14-.031.154-.057.165-.068.168-.091.166-.112.168-.12.16-.136.157-.14.13-.15.122-.15.104-.14.08M288.85 394.428l1.876 1.08M477.747 321.012l.237.08M474.27 322.351l.27.092M474.052 323.283l14.333 61.616M492.867 404.145l25.235 108.484M517.43 514.795l.143-.092.138-.113.123-.132.101-.151.086-.168.07-.183.052-.201.027-.208.012-.217-.004-.23-.03-.236-.046-.236M474.542 322.443l-.09.047-.09.074-.085.091-.068.11-.063.12-.047.133-.029.132-.017.133M477.984 321.092l.073-.024h.07l.062.012M346.29 405.569l48.296 181.564M393.574 589.534l.172-.013.167-.034.156-.062.138-.086.124-.112.111-.137.092-.148.068-.179.059-.189.036-.212.016-.224v-.235l-.024-.256-.046-.252-.057-.262M338.566 376.537l.005-.141.035-.154.044-.141.076-.144.088-.121.096-.11.11-.086.115-.056M367.863 463.31l-5.73-21.66" style="fill:none;stroke:red;stroke-width:.999997;stroke-linecap:round;stroke-linejoin:round;stroke-miterlimit:4;stroke-dasharray:none;stroke-opacity:1;visibility:visible"/><path d="m347.053 450.96-5.73-21.321" style="fill:none;stroke:red;stroke-width:1.99999;stroke-linecap:round;stroke-linejoin:round;stroke-miterlimit:4;stroke-dasharray:none;stroke-opacity:1;visibility:visible"/><path d="m431.297 385.968-1.008 2.863M452.026 315.747l-15.547 44.544M426.849 387.904l-1.008 2.873M411.292 432.49l-9.339 26.768M453.128 315.22l-.09.039-.098.041-.112.052-.11.05-.117.06-.121.055-.12.059-.115.063-.117.058-.101.051" style="fill:none;stroke:red;stroke-width:.999997;stroke-linecap:round;stroke-linejoin:round;stroke-miterlimit:4;stroke-dasharray:none;stroke-opacity:1;visibility:visible"/><path d="m405.977 457.862-.036.068-.047.059-.056.04M405.977 457.862l.076-.05.055-.06.036-.067" style="fill:none;stroke:red;stroke-width:1.99999;stroke-linecap:round;stroke-linejoin:round;stroke-miterlimit:4;stroke-dasharray:none;stroke-opacity:1;visibility:visible"/><path d="m401.953 459.258.005.092.023.087.03.066.046.055.055.037M279.176 393.95l18.867-7.321M342.962 369.187l61.593-23.912M271.035 387.095l-.215.092-.189.097-.172.103-.148.116-.121.12-.103.121-.07.128-.047.131-.018.133.014.131.034.127.063.132.092.121.121.12.138.113.165.106 8.597 4.965M282.62 387.605l-.144-.067-.161-.065-.178-.052-.192-.04-.206-.028-.207-.017h-.207l-.212.013-.205.021-.197.035-.183.047-.172.056-.155.069-.138.076-.111.085-.085.087-.062.096-.042.097-.004.098.016.098.05.092.071.099.095.087.128.08.144.068.16.065.178.05.191.04.207.029.206.018h.212l.208-.012.206-.024.196-.033.189-.044.173-.06.154-.067.134-.077.115-.085.085-.087.064-.096.035-.099.004-.098-.016-.096-.052-.099-.07-.092-.102-.087-.12-.081M394.288 344.711l-.144-.056-.156-.053-.172-.044-.18-.036-.183-.023-.189-.017h-.192l-.19.005-.177.017-.17.03-.158.038-.142.048-.126.059-.109.061-.08.07-.064.074-.04.08-.012.08.012.082.033.081.063.08.08.08.104.075.125.061.144.064.159.053.17.044.18.035.187.024.192.012.188.005.184-.005.184-.024.168-.028.16-.033.142-.054.128-.05.102-.064.087-.071.064-.077.036-.076.015-.08-.01-.088-.041-.079-.059-.081-.085-.075-.101-.073-.127-.071M279.666 397.806l-.035-3.085-.029-.131-.04-.139-.057-.126-.07-.123-.08-.101-.086-.088-.092-.063" style="fill:none;stroke:red;stroke-width:.999997;stroke-linecap:round;stroke-linejoin:round;stroke-miterlimit:4;stroke-dasharray:none;stroke-opacity:1;visibility:visible"/><path d="m404.8 345.275-.079-.024h-.085l-.081.024" style="fill:none;stroke:red;stroke-width:1.99999;stroke-linecap:round;stroke-linejoin:round;stroke-miterlimit:4;stroke-dasharray:none;stroke-opacity:1;visibility:visible"/><path d="m279.488 398.1.064-.04.056-.064.035-.087.024-.104.01-.113M275.758 396.25l3.097 1.799M279.488 398.1l9.568-3.753M279.488 398.1h-.01l-.006.005h-.012l-.01.007h-.009l-.005.004h-.012l-.007.008h-.016l-.006.004h-.022l-.006.007h-.022l-.006.005h-.036l-.006.005h-.148l-.012-.005h-.029l-.005-.005h-.03l-.004-.007h-.018l-.004-.004h-.02l-.006-.008h-.012l-.002-.004h-.012l-.007-.007h-.01l-.009-.005h-.01l-.004-.005h-.011l-.008-.007h-.007l-.006-.005h-.003l-.008-.007h-.004l-.005-.005h-.006l-.005-.006h-.007l-.008-.005h-.004l-.006-.007h-.006l-.005-.006M343.926 372.853l3.419-1.339M387.374 355.836l12.917-5.061M310.463 412.018l3.608 2.085 20.757-8.648M366.557 392.24l72.945-30.39" style="fill:none;stroke:red;stroke-width:.999997;stroke-linecap:round;stroke-linejoin:round;stroke-miterlimit:4;stroke-dasharray:none;stroke-opacity:1;visibility:visible"/><path d="m312.537 403.801 15.453-6.296" style="fill:none;stroke:red;stroke-width:1.99999;stroke-linecap:round;stroke-linejoin:round;stroke-miterlimit:4;stroke-dasharray:none;stroke-opacity:1;visibility:visible"/><path d="m428.935 361.269-.15-.064-.165-.056-.18-.047-.185-.033-.195-.03-.196-.011-.194-.007-.188.012-.186.017-.173.03-.16.046-.143.046-.122.062-.102.068-.088.076-.057.075-.035.087-.005.086.016.086.041.085.068.087.094.086.114.074.134.076.148.062.166.058.178.045.185.035.195.024.196.017h.194l.191-.007.183-.016.173-.033.163-.041.142-.052.126-.058.104-.07.08-.074.057-.08.035-.086.005-.087-.019-.084-.036-.088-.068-.085-.093-.08-.117-.082-.131-.069M375.834 383.148l-.156-.07-.167-.063-.184-.054-.189-.04-.201-.021-.206-.017h-.206l-.203.005-.196.021-.183.036-.173.047-.163.056-.134.064-.118.075-.098.081-.067.084-.045.093-.018.098.004.097.042.09.058.094.091.092.11.087.131.074.15.075.172.057.178.054.196.038.202.03.206.012.202.004.205-.011.195-.023.186-.034.174-.046.158-.052.138-.069.121-.073.093-.083.068-.085.044-.092.019-.098-.01-.097-.037-.093-.064-.092-.082-.092-.111-.086-.132-.073M317.199 407.301l-.156-.076-.172-.068-.183-.05-.202-.047-.207-.031-.219-.015h-.218l-.212.011-.214.023-.193.04-.192.045-.17.064-.157.075-.138.081-.11.09-.085.1-.057.097-.028.104v.109l.021.104.059.103.08.097.109.09.132.087.15.076.173.07.189.057.196.04.212.028.212.019.217.005.22-.012.206-.03.202-.033.188-.052.174-.064.154-.074.139-.083.11-.09.08-.097.057-.1.03-.102.004-.111-.029-.103-.056-.101-.081-.099-.111-.092-.124-.085M313.503 414.984l-.024 2.908M439.745 361.843l-.076-.024h-.08l-.087.03M313.48 417.892l.007.105.021.095.04.088.053.063.07.052M314.07 414.104l-.108.059-.104.08-.096.097-.093.124-.07.124-.053.132-.033.137-.011.127M314.337 418.34l9.585-4.028M365.867 396.681l16.45-6.915M365.045 397.026l.821-.344M418.031 374.755l17.161-7.21M314.337 418.34h-.012l-.007.007h-.005l-.005.005h-.012l-.004.005h-.018l-.006.007h-.006l-.006.005h-.011l-.005.007h-.023l-.008.005h-.021l-.007.006h-.028l-.008.006h-.039l-.004.004h-.11l-.012-.004h-.04l-.007-.006h-.025l-.007-.006h-.017l-.015-.005h-.015l-.005-.007h-.017l-.007-.005h-.01l-.006-.007h-.007l-.004-.005h-.02l-.006-.005h-.003l-.007-.007h-.006l-.004-.003h-.007l-.007-.008h-.01l-.007-.004h-.007l-.004-.005h-.006l-.004-.007h-.006l-.005-.006-.005-.006h-.008l-.006-.005M309.49 415.864l4.18 2.43" style="fill:none;stroke:red;stroke-width:.999997;stroke-linecap:round;stroke-linejoin:round;stroke-miterlimit:4;stroke-dasharray:none;stroke-opacity:1;visibility:visible"/><path d="m359.998 384.321 6.675-2.721M402.414 367.048l17.183-6.999" style="fill:none;stroke:red;stroke-width:1.99999;stroke-linecap:round;stroke-linejoin:round;stroke-miterlimit:4;stroke-dasharray:none;stroke-opacity:1;visibility:visible"/><path d="m316.545 366.918-.15.601M310.971 389.378l-32.363 130.434M295.222 434.77l-.024-.252-.041-.259-.058-.266-.077-.263-.092-.264-.104-.259-.128-.252-.13-.241-.15-.23-.155-.218-.169-.199-.17-.177-.178-.16-.177-.133-.18-.114-.179-.085-.177-.059-.172-.034-.167-.007-.156.024-.15.053-.131.072-.126.104-.104.128-.1.15-.072.165-.057.192-.043.212-.021.223-.005.234.012.248.033.259.045.259.068.264.09.265.096.259.114.258.126.247.146.236.147.216.161.21.168.189.178.172.18.142.177.128.177.096.179.076.172.047.173.017.16-.006.148-.035.146-.063.132-.086.114-.115.103-.132.081-.161.071-.186.052-.193.032-.219.019-.229-.007-.248" style="fill:none;stroke:red;stroke-width:.999997;stroke-linecap:round;stroke-linejoin:round;stroke-miterlimit:4;stroke-dasharray:none;stroke-opacity:1;visibility:visible"/><path d="m283.5 518.054-.025.075-.04.058-.052.035M283.5 518.054l.09-.05.069-.071.052-.074.036-.08" style="fill:none;stroke:red;stroke-width:1.99999;stroke-linecap:round;stroke-linejoin:round;stroke-miterlimit:4;stroke-dasharray:none;stroke-opacity:1;visibility:visible"/><path d="m278.78 520.136-.07-.052-.051-.076-.034-.09-.017-.105M316.545 366.918l.004-.139.024-.137.044-.137.064-.132.08-.122.09-.102.1-.087M292.792 431.3l-.005.005M294.865 436.143h0" style="fill:none;stroke:red;stroke-width:.999997;stroke-linecap:round;stroke-linejoin:round;stroke-miterlimit:4;stroke-dasharray:none;stroke-opacity:1;visibility:visible"/><path d="m290.739 417.537 3.557-15.048" style="fill:none;stroke:red;stroke-width:1.99999;stroke-linecap:round;stroke-linejoin:round;stroke-miterlimit:4;stroke-dasharray:none;stroke-opacity:1;visibility:visible"/><path d="m306.68 426.995 3.83-15.148M393.166 589.765l-.017.004-.19.012-.224.005-.229-.005-.23-.025-.22-.031-.217-.043-.214-.056-.202-.07-.193-.079-.19-.099-.183-.102-.167-.122-.156-.128-.116-.112-.104-.121-.09-.133-.082-.131-.063-.145-.052-.144-.041-.143-.021-.153-.006-.095M387.844 586.563l-.127.01-.229.007-.224-.006-.228-.016-.22-.034-.22-.042-.205-.058-.208-.069-.196-.075-.187-.09-.18-.108-.165-.116-.158-.127-.114-.116-.103-.121-.095-.127-.077-.13-.064-.14-.056-.142-.035-.148-.025-.152-.012-.104M276.844 519.094l-.013-.144M281.9 518.95l-.023.116-.028.115-.046.114-.052.11-.063.101-.068.101-.09.108-.1.098-.11.097-.12.093-.15.098-.16.086-.169.079-.178.077-.152.051-.163.044-.16.041-.168.035-.173.03-.199.023-.208.01h-.2l-.2-.006-.197-.016-.196-.028-.183-.036-.185-.053-.178-.057-.166-.068-.163-.08-.153-.091-.118-.081-.101-.099-.103-.096-.086-.11-.075-.114-.07-.127-.05-.137-.033-.14-.019-.144M272.626 516.531l-.012-.15M275.25 517.985l-.148.013h-.207l-.197-.008-.196-.016-.192-.024-.185-.041-.178-.044-.178-.06-.174-.067-.158-.073-.151-.092-.115-.083-.109-.09-.097-.106-.087-.102-.081-.116-.063-.13-.052-.133-.04-.137-.017-.144M512.992 513.605v-.027M516.74 515.308l-.085.024-.183.044-.164.03-.159.022-.166.019-.167.004h-.167l-.209-.004-.197-.019-.203-.03-.196-.037-.187-.048-.185-.052-.18-.064-.172-.074-.167-.08-.158-.098-.154-.097-.13-.116-.102-.097-.098-.104-.082-.114-.073-.121-.064-.121-.047-.139-.034-.143-.019-.142v-.146M507.81 511.095v-.041M511.406 512.807l-.125.03-.162.027-.161.023-.167.019-.166.012h-.167l-.2-.008-.201-.018-.2-.028-.196-.033-.19-.047-.185-.052-.18-.062-.172-.076-.164-.079-.156-.093-.15-.098-.14-.108-.1-.1-.094-.109-.084-.107-.077-.122-.055-.12-.052-.138-.037-.138-.015-.143v-.144M399.854 458.683v-.181M404.39 458.74l-.008.057-.01.098-.026.097-.032.093-.047.092-.046.087-.055.079-.065.076-.08.084-.09.077-.096.073-.101.063-.139.076-.142.07-.148.057-.164.052-.136.041-.143.027-.152.022-.153.024-.148.012-.183.012h-.183l-.184-.012-.177-.018-.172-.023-.167-.03-.161-.038-.159-.047-.157-.058-.15-.062-.138-.069-.13-.08-.105-.076-.098-.085-.09-.086-.082-.098-.068-.103-.042-.083-.04-.085-.028-.085-.024-.092-.009-.099-.008-.097M294.872 436.143h-.007M292.792 431.3v.005M352.806 451.417v.008M355.169 456.938h.007v-.004M353.538 453.507l-.51.15M354.089 454.2l-.55-.693M354.136 455.045l-.048-.844" style="fill:none;stroke:red;stroke-width:.999997;stroke-linecap:round;stroke-linejoin:round;stroke-miterlimit:4;stroke-dasharray:none;stroke-opacity:1;visibility:visible"/><path d="m355.575 455.373-.027-.288-.048-.293-.065-.304-.088-.3-.105-.3-.118-.296-.146-.286-.15-.277-.169-.261-.176-.25-.193-.225-.194-.201-.204-.183-.202-.152-.204-.13-.204-.097-.202-.068-.197-.037-.19-.008-.177.025-.17.062-.151.082-.144.12-.117.144-.114.171-.082.188-.066.219-.048.241-.025.255-.005.268.013.282.039.295.052.293.076.302.102.302.11.294.129.297.145.281.166.27.168.245.184.237.19.218.203.194.205.163.202.147.202.109.204.085.196.054.198.02.181-.007.17-.04.165-.07.152-.1.129-.13.119-.152.09-.184.08-.21.06-.22.038-.249.02-.264-.007-.281M352.806 451.417l-.005.008M355.169 456.938h0M355.176 456.938h-.007M352.806 451.417v.008M395.587 456.614v-.195M398.687 457.93l-.104.017-.148.03-.15.016-.155.02-.178.002h-.18l-.181-.002-.18-.02-.17-.022-.167-.029-.163-.035-.155-.045-.16-.059-.144-.062-.142-.068-.132-.082-.128-.092-.12-.109-.104-.115-.084-.126-.048-.08-.035-.086-.028-.088-.021-.092-.022-.096-.002-.093" style="fill:none;stroke:red;stroke-width:.999997;stroke-linecap:round;stroke-linejoin:round;stroke-miterlimit:4;stroke-dasharray:none;stroke-opacity:1;visibility:visible"/><path d="m303.93 437.874 12.19-5.275" style="fill:none;stroke:red;stroke-width:1.99999;stroke-linecap:round;stroke-linejoin:round;stroke-miterlimit:4;stroke-dasharray:none;stroke-opacity:1;visibility:visible"/><path d="m475.393 303.64-.208.068-.219.045-.218.023-.227.008" style="fill:none;stroke:red;stroke-width:.999997;stroke-linecap:round;stroke-linejoin:round;stroke-miterlimit:4;stroke-dasharray:none;stroke-opacity:1;visibility:visible"/><path d="m380.77 446.85 41.103-19.343M439.089 419.405l35.528-16.719" style="fill:none;stroke:red;stroke-width:1.99999;stroke-linecap:round;stroke-linejoin:round;stroke-miterlimit:4;stroke-dasharray:none;stroke-opacity:1;visibility:visible"/><path d="m491.643 394.675 4.305-2.028" style="fill:none;stroke:red;stroke-width:.999997;stroke-linecap:round;stroke-linejoin:round;stroke-miterlimit:4;stroke-dasharray:none;stroke-opacity:1;visibility:visible"/><path d="M496.346 392.095v.005l-.01.012v.03l-.003.005v.017l-.006.011v.017l-.008.006v.017l-.004.007v.005l-.005.007v.016l-.005.005v.007l-.006.005v.005l-.008.007v.016l-.002.007v.005l-.008.007-.006.005v.005l-.005.007v.012l-.005.005v.004l-.004.007-.008.008v.003l-.006.008v.004l-.005.005-.008.007v.005l-.005.005-.006.007-.005.005v.006l-.005.006-.007.006v.006l-.005.006-.006.006-.008.006-.005.005v.007l-.005.004-.003.006-.008.004-.005.007v.005l-.008.006h-.004l-.006.006-.005.006-.005.004-.006.008-.008.005-.005.008-.008.004-.003.004-.006.008-.006.005h-.005l-.005.007-.008.004-.006.005h-.005l-.005.007-.006.005-.008.007h-.004l-.005.007-.005.006h-.006l-.005.004-.008.006H496l-.009.005h-.002l-.007.005-.005.007h-.006l-.005.007h-.005l-.008.005h-.006M496.346 392.095l.31-2.759M496.266 388.629l-12.145-5.752M496.266 388.629l.005.005.006.007h.013l.003.005.006.007h.011l.005.004.006.007.013.006.003.006h.01l.004.006.011.004.008.006.005.008.006.006.005.004h.013l.003.006.007.006.005.007.005.004.006.005.008.006.01.006.006.006.005.005.005.007.007.005.005.012.006.007.005.004.008.006.005.006.006.005.005.005.008.012.001.007.008.005v.007l.006.004.008.013.002.006.008.005.006.004.005.013v.006l.005.006.006.006.004.01v.008l.008.004.005.011v.007l.005.005.008.01v.009l.006.004v.012l.005.006.005.012v.004l.006.007v.01l.005.009v.009l.004.005v.018l.008.005v.019l.005.01v.019l.006.005v.028l.008.008v.038l.005.012v.086l-.005.006v.029M364.035 437.276l41.137-18.73M422.411 410.696l35.601-16.205M475.086 386.715l8.448-3.844M483.534 382.87h.008l.005-.007h.003l.008-.005h.012l.005-.005h.014l.005-.007h.003l.008-.005h.017l.005-.006h.011l.005-.004h.019l.005-.008h.018l.005-.004h.03l.007-.006h.05l.005-.007h.085l.014.007h.038l.006.006h.03l.003.004h.024l.008.008h.013l.003.004h.017l.006.006h.01l.008.005h.011l.007.007h.008l.008.005h.008l.005.005h.005l.006.007h.012l.002.005M495.753 395.48l.645-2.236M496.333 392.864l.047.041.029.056.015.082-.006.092-.02.108M404.61 349.084l1.89.897M421.797 357.287l1.817.867M439.497 365.735l2.339 1.119M457.732 374.438l2.585 1.239M495.914 392.664l.419.2M326.266 415.653l10.148-4.29M365.2 399.21l2.192-.927M384.66 390.998l35.717-15.08M437.531 368.67l8.516-3.597M446.047 365.073h.008l.005-.004h.011l.004-.007h.013l.006-.005h.013l.005-.007h.011l.007-.005h.016l.005-.007h.024l.005-.005h.028l.008-.005h.044l.006-.007h.081l.007.007h.048l.002.005h.031l.005.005h.023l.005.007h.008l.008.005h.019l.003.007h.013l.007.005h.013l.003.007h.013v.004h.01l.009.007h.004l.005.004h.01l11.42 5.414" style="fill:none;stroke:red;stroke-width:1.99999;stroke-linecap:round;stroke-linejoin:round;stroke-miterlimit:4;stroke-dasharray:none;stroke-opacity:1;visibility:visible"/><path d="m356.076 418.76 27.297-11.9M400.635 399.33l35.68-15.552M453.44 376.313l4.31-1.879" style="fill:none;stroke:red;stroke-width:.999997;stroke-linecap:round;stroke-linejoin:round;stroke-miterlimit:4;stroke-dasharray:none;stroke-opacity:1;visibility:visible"/><path d="m458.013 370.498.008.005.01.006h.003l.007.006.008.006h.01l.006.008.008.004.003.005h.005l.013.007.004.005.006.005.008.006h.005l.01.006.009.006.005.006.003.006.008.005.004.007.008.005h.002l.008.005.006.007.008.007.01.004.006.005.004.005.005.006.005.008v.005l.008.01.006.006.005.007.008.005.005.004.006.008.002.004.007.008.005.004v.012l.006.007.008.005.005.007.005.004v.01l.008.01.003.002.005.008v.004l.008.012.004.007v.005l.006.01.008.008v.004l.008.008v.012l.002.002v.007l.006.013v.004l.008.006v.012l.005.006v.006l.005.012v.005l.004.012v.012l.006.01v.013l.008.01v.023l.002.005v.048l.008.006v.114M458.151 373.877v.03l-.008.005v.03l-.003.006v.016l-.005.004v.018l-.008.012v.012l-.007.004v.007l-.002.012v.01l-.006.006v.007l-.008.013v.005l-.005.007v.003l-.005.005v.007l-.006.01v.007l-.008.005-.005.007v.004l-.003.008v.004l-.006.008-.006.005v.012l-.008.004-.002.006v.006l-.008.006-.008.005v.007l-.003.005-.008.005v.006l-.003.006-.008.006-.004.006-.008.006v.005l-.002.007-.008.005-.006.007-.005.004v.006l-.008.004-.005.007h-.006l-.002.008-.007.003-.005.005-.008.007-.003.006-.008.006h-.008v.005l-.003.007-.005.005-.008.007-.004.005h-.005l-.006.005-.008.007-.005.005h-.005l-.008.007-.006.005h-.01l-.004.006-.006.006h-.008l-.005.004-.005.006h-.006l-.008.006-.005.006h-.005l-.004.008h-.011l-.005.002h-.008l-.006.008-.005.004h-.005M458.398 371.171l-.248 2.705M444.411 296.49l-4.552 13.484M444.836 296.054l3.481-1.243M444.411 296.49v-.005l.005-.006v-.013l.006-.005v-.004l.005-.008v-.011l.005-.004v-.005l.007-.007v-.005l.005-.008v-.004l.006-.007v-.005l.005-.007v-.008l.005-.003v-.005l.008-.007v-.005l.003-.007.008-.004v-.004l.005-.006v-.006l.008-.006h.002v-.007l.008-.007v-.004l.005-.008.005-.005v-.004l.006-.008.008-.004.005-.005.005-.007.006-.005v-.007l.005-.005h.007v-.007l.005-.005.005-.006.006-.006.005-.006.008-.005.005-.005h.006v-.004l.005-.01.007-.002h.005l.005-.007v-.005l.006-.008h.008l.005-.004.005-.007h.008l.003-.005v-.006h.005l.007-.006.005-.006h.006l.005-.004h.005l.008-.006.006-.007h.005v-.005h.005l.006-.004h.006l.003-.01.008-.002h.005l.008-.008h.006l.005-.006h.005l.006-.006h.005l.007-.006h.01l.006-.005h.008l.002-.004h.014l.005-.007h.007l.005-.005M448.318 294.811h.013l.006-.005h.009l.005-.007h.019l.005-.005h.019l.005-.007h.023v-.005h.035v-.006h.061v-.005h.06l.003.005h.057l.008.006h.033v.005h.024l.008.007h.016l.006.005h.017v.007h.01L473.996 303M474.46 303.507l3.852 16.632" style="fill:none;stroke:red;stroke-width:1.99999;stroke-linecap:round;stroke-linejoin:round;stroke-miterlimit:4;stroke-dasharray:none;stroke-opacity:1;visibility:visible"/><path d="m455.99 316.195 4.885 1.667M477.857 320.966l.016-.007" style="fill:none;stroke:red;stroke-width:.999997;stroke-linecap:round;stroke-linejoin:round;stroke-miterlimit:4;stroke-dasharray:none;stroke-opacity:1;visibility:visible"/><path d="M478.313 320.139v.024l.005.01v.017l.006.012v.046l.005.01v.082l-.005.011v.053l-.006.004v.023l-.005.012v.016l-.008.013v.006l-.005.012v.012l-.006.004v.01l-.005.012v.006l-.007.01-.002.014v.005l-.008.012-.006.012v.007l-.005.008-.005.008-.008.01v.012l-.006.007-.005.01-.005.006-.004.012-.011.005-.003.011-.005.008-.008.012-.005.004-.006.007-.005.009-.005.01-.006.007-.004.007-.008.007-.005.01-.008.006-.01.006-.006.012-.005.006-.006.004-.012.008-.005.008-.005.008-.008.008-.011.004-.005.005-.006.005-.012.006-.005.013-.01.004-.009.007-.002.006-.014.006-.005.005-.012.007-.005.005h-.011l-.005.004-.014.008-.005.005-.012.004-.005.008-.011.004h-.01l-.009.006-.01.005h-.006l-.012.01-.013.002M307.808 345.275l-3.45 14.608M308.303 344.723l4.441-1.581M307.808 345.275l.005-.007v-.017l.008-.005v-.004l.006-.015v-.01l.004-.01v-.008l.005-.004v-.005l.007-.012v-.007l.004-.005v-.006l.008-.012v-.006l.005-.006v-.005l.005-.012v-.005l.008-.006.003-.004v-.006l.007-.012v-.006l.005-.006.005-.006v-.006l.006-.006.006-.005.007-.012v-.005l.005-.007.007-.005v-.006l.004-.005.008-.007.005-.004.003-.008v-.009l.008-.007.007-.005.005-.007.004-.005.007-.005v-.007l.005-.005.005-.007.006-.005.006-.006.006-.006.005-.006.007-.005.005-.004.005-.005.007-.007h.007l.004-.005.008-.007.005-.005.005-.007.006-.005.006-.006.006-.006h.005l.005-.006.008-.006.004-.006.007-.005h.004l.005-.005.006-.007.005-.005h.013l.006-.007.006-.005.007-.006h.005l.004-.006.004-.004h.015l.005-.006.007-.008h.007l.005-.004.005-.005h.011l.007-.007h.002l.008-.005h.011l.005-.007h.007l.005-.005h.01l.008-.005h.005l.007-.007M312.744 343.142h.005l.008-.004h.011v-.007h.01l.005-.005h.018l.008-.007h.018l.002-.005h.024l.007-.005h.028l.004-.006h.041l.007-.006h.127l.006.006h.044v.006h.03l.004.005h.024l.005.005h.02l.004.007h.017l.006.005h.012l.005.007h.012l.005.004h.012v.007h.012l.006.006h.01l25.219 10.471M338.984 354.16l4.92 18.603" style="fill:none;stroke:red;stroke-width:1.99999;stroke-linecap:round;stroke-linejoin:round;stroke-miterlimit:4;stroke-dasharray:none;stroke-opacity:1;visibility:visible"/><path d="M338.52 353.626h.007l.004.005h.006l.007.007.008.005h.005l.008.004h.006l.004.007h.005l.01.005.01.007h.005l.004.005h.008l.006.007.006.004h.004l.008.007.006.005.004.005h.012l.005.006.005.006h.007l.005.006.006.006.008.006.004.006h.008l.004.006.005.005.005.007.004.004h.008l.007.006.007.004.002.007v.005l.008.007.004.005h.006l.005.007.007.005.005.006.007.006.005.006.007.005v.007l.006.005.004.007.008.005.004.004.006.008v.005l.006.007.006.004.005.005v.007l.007.004.006.007.003.005v.004l.007.008.006.007.004.005v.005l.007.007.005.012v.005l.007.006.005.006v.006l.006.004v.006l.005.006.008.004v.013l.005.007v.004l.006.008v.004l.005.006v.012l.008.006v.005l.004.007v.005l.005.007v.012l.006.005v.01l.008.011v.006l.005.005v.012l.004.012v.005M321.566 368.072l4.397 1.92M343.904 372.762l.005.012v.01l.006.013v.012l.006.004v.024l.006.01v.048l.005.004v.134l-.005.012v.034l-.006.01v.017l-.006.012v.024l-.006.01v.011l-.005.012v.008l-.008.01v.012l-.004.012-.007.01v.007l-.005.01-.004.013v.012l-.007.004-.006.012-.006.01v.012l-.004.007-.006.012-.007.012-.005.005-.006.011-.006.01-.004.009-.007.009-.005.013-.007.004-.005.012-.006.008-.008.011-.005.004-.005.012-.006.004-.01.012-.004.007-.008.01-.006.006-.005.014-.012.003-.005.01-.007.009-.01.005-.006.005-.007.012-.012.007-.005.005-.012.012-.004.006-.013.005-.006.007-.012.004-.005.006-.012.012-.005.006-.01.005-.006.008-.014.003-.004.009-.012.004-.01.005-.007.006-.01.005-.013.007-.006.005h-.012l-.011.007" style="fill:none;stroke:red;stroke-width:.999997;stroke-linecap:round;stroke-linejoin:round;stroke-miterlimit:4;stroke-dasharray:none;stroke-opacity:1;visibility:visible"/><path d="m485.253 407.801 3.383-1.62" style="fill:none;stroke:red;stroke-width:1.99999;stroke-linecap:round;stroke-linejoin:round;stroke-miterlimit:4;stroke-dasharray:none;stroke-opacity:1;visibility:visible"/><path d="m485.029 407.823.047.017h.052l.062-.009.063-.03" style="fill:none;stroke:red;stroke-width:.999997;stroke-linecap:round;stroke-linejoin:round;stroke-miterlimit:4;stroke-dasharray:none;stroke-opacity:1;visibility:visible"/><path d="m488.635 406.18.088-.053.095-.074.09-.086.087-.103.08-.115.068-.117.057-.113.042-.115" style="fill:none;stroke:red;stroke-width:1.99999;stroke-linecap:round;stroke-linejoin:round;stroke-miterlimit:4;stroke-dasharray:none;stroke-opacity:1;visibility:visible"/><path d="m492.133 395.255.024-.11.004-.097-.017-.074-.03-.062-.049-.036M492.133 395.255l-2.89 10.15M400.305 366.003l2.11 1.045M418.031 374.755l2.347 1.163M436.315 383.779l2.585 1.281M455.161 393.084l2.852 1.408" style="fill:none;stroke:red;stroke-width:.999997;stroke-linecap:round;stroke-linejoin:round;stroke-miterlimit:4;stroke-dasharray:none;stroke-opacity:1;visibility:visible"/><path d="m474.617 402.686 10.412 5.137" style="fill:none;stroke:red;stroke-width:1.99999;stroke-linecap:round;stroke-linejoin:round;stroke-miterlimit:4;stroke-dasharray:none;stroke-opacity:1;visibility:visible"/><path d="m387.355 357.51-.024-.175-.01-.176v-.352M387.374 355.836l-.053.972M400.292 350.775l1.89.907M417.487 359.033l2.11 1.017M435.193 367.544l2.339 1.125M453.44 376.313l2.585 1.241M472.247 385.353l2.839 1.363M491.643 394.675l.421.201M368.581 463.735l.07.024.078.003.093-.016.103-.04" style="fill:none;stroke:red;stroke-width:.999997;stroke-linecap:round;stroke-linejoin:round;stroke-miterlimit:4;stroke-dasharray:none;stroke-opacity:1;visibility:visible"/><path d="m373.114 461.694-4.19 2.012" style="fill:none;stroke:red;stroke-width:1.99999;stroke-linecap:round;stroke-linejoin:round;stroke-miterlimit:4;stroke-dasharray:none;stroke-opacity:1;visibility:visible"/><path d="m373.114 461.694.117-.068.108-.08.11-.104.097-.115.09-.12.07-.133.06-.125.033-.122 2.231-10.844M376.03 449.983l.012-.097v-.088l-.024-.079-.033-.057-.052-.047" style="fill:none;stroke:red;stroke-width:.999997;stroke-linecap:round;stroke-linejoin:round;stroke-miterlimit:4;stroke-dasharray:none;stroke-opacity:1;visibility:visible"/><path d="m270.495 393.186-.052.08-.036.092-.024.105-.005.12" style="fill:none;stroke:red;stroke-width:1.99999;stroke-linecap:round;stroke-linejoin:round;stroke-miterlimit:4;stroke-dasharray:none;stroke-opacity:1;visibility:visible"/><path d="m368.581 463.735-.719-.425" style="fill:none;stroke:red;stroke-width:.999997;stroke-linecap:round;stroke-linejoin:round;stroke-miterlimit:4;stroke-dasharray:none;stroke-opacity:1;visibility:visible"/><path d="m347.053 450.96-40.372-23.964M290.739 417.537l-18.032-10.703M272.706 406.835l-.167-.11-.161-.12-.161-.13-.156-.144-.148-.157-.144-.167-.135-.177-.13-.186-.126-.196-.119-.193-.105-.201-.104-.207-.09-.212-.087-.213-.076-.218-.062-.214-.057-.211-.048-.215-.039-.216-.028-.206-.02-.224-.01-.216-.155-9.118" style="fill:none;stroke:red;stroke-width:1.99999;stroke-linecap:round;stroke-linejoin:round;stroke-miterlimit:4;stroke-dasharray:none;stroke-opacity:1;visibility:visible"/><path d="m375.932 449.615-.465-.264M339.53 428.603l-2.597-1.499M320.975 417.886l-2.345-1.352M285.66 397.502l-1.877-1.085" style="fill:none;stroke:red;stroke-width:.999997;stroke-linecap:round;stroke-linejoin:round;stroke-miterlimit:4;stroke-dasharray:none;stroke-opacity:1;visibility:visible"/><path d="m432.62 433.098 3.735-1.793M439.612 420.013l-2.62 10.477" style="fill:none;stroke:red;stroke-width:1.99999;stroke-linecap:round;stroke-linejoin:round;stroke-miterlimit:4;stroke-dasharray:none;stroke-opacity:1;visibility:visible"/><path d="m439.612 420.013.019-.103v-.092l-.019-.08-.033-.061-.048-.044M432.344 433.121l.055.024h.062l.076-.019.083-.029" style="fill:none;stroke:red;stroke-width:.999997;stroke-linecap:round;stroke-linejoin:round;stroke-miterlimit:4;stroke-dasharray:none;stroke-opacity:1;visibility:visible"/><path d="m436.354 431.305.096-.056.104-.081.1-.094.09-.108.086-.121.07-.119.055-.121.038-.115" style="fill:none;stroke:red;stroke-width:1.99999;stroke-linecap:round;stroke-linejoin:round;stroke-miterlimit:4;stroke-dasharray:none;stroke-opacity:1;visibility:visible"/><path d="m365.045 397.026 2.347 1.257M383.373 406.859l2.597 1.395M402.305 417.013l2.867 1.533" style="fill:none;stroke:red;stroke-width:.999997;stroke-linecap:round;stroke-linejoin:round;stroke-miterlimit:4;stroke-dasharray:none;stroke-opacity:1;visibility:visible"/><path d="m421.872 427.507 10.472 5.613" style="fill:none;stroke:red;stroke-width:1.99999;stroke-linecap:round;stroke-linejoin:round;stroke-miterlimit:4;stroke-dasharray:none;stroke-opacity:1;visibility:visible"/><path d="m347.346 371.514 1.892.99M364.558 380.503l2.115 1.097M400.635 399.33l2.599 1.356M419.55 409.208l2.861 1.488M439.089 419.405l.443.228" style="fill:none;stroke:red;stroke-width:.999997;stroke-linecap:round;stroke-linejoin:round;stroke-miterlimit:4;stroke-dasharray:none;stroke-opacity:1;visibility:visible"/><path d="m422.388 354.074-.185 2.65M422.203 356.723v.012l-.005.005v.044l-.006.008v.023l-.005.005v.012l-.005.012v.012l-.006.006v.017l-.006.004v.01l-.006.013v.006l-.005.006v.005l-.008.007v.005l-.003.012v.007l-.005.004v.006l-.008.007v.004l-.005.012-.006.005v.006l-.006.006-.006.006v.005l-.008.005-.002.007v.005l-.006.007-.005.005v.012l-.008.004-.005.008-.008.006v.006l-.003.003-.007.007-.005.005v.008l-.005.004-.008.007-.006.005-.002.007h-.008l-.008.004v.006l-.003.006-.005.006-.007.006-.005.006-.006.006-.005.005h-.005l-.008.007-.006.005-.005.004-.008.008-.001.003h-.006l-.008.006-.005.006-.008.009h-.003l-.008.003-.005.006h-.005l-.008.006-.002.005-.008.007h-.01l-.006.005h-.005l-.008.007-.003.005h-.008l-.006.005h-.006l-.01.007h-.008l-.006.005h-.002l-.008.007h-.006M422.016 353.435l.003.005h.008l.008.007.008.007h.006l.006.004.005.005h.008l.003.007.013.005h.008l.005.007.004.004.003.006h.008l.005.007.008.005.011.007.008.004.005.007.003.006h.007l.005.006.005.004.008.008.006.004.005.005.005.007.006.005.005.007.007.004.005.006.005.006v.006l.006.004.008.008.005.006.005.006.006.006.008.005v.007l.005.005.004.01.005.006.006.007v.005l.008.007.005.004v.006l.005.011.008.005.003.007v.005l.005.007v.012l.008.005.007.006v.006l.003.011v.004l.005.007v.005l.005.012v.007l.006.005v.005l.008.012v.006l.005.006v.018l.005.004v.02l.006.004v.016l.006.006v.024l.006.011v.045l.005.007v.087" style="fill:none;stroke:red;stroke-width:1.99999;stroke-linecap:round;stroke-linejoin:round;stroke-miterlimit:4;stroke-dasharray:none;stroke-opacity:1;visibility:visible"/><path d="m313.158 401.347 12.69-5.145M364.558 380.503l35.747-14.5M417.487 359.033l4.31-1.747" style="fill:none;stroke:red;stroke-width:.999997;stroke-linecap:round;stroke-linejoin:round;stroke-miterlimit:4;stroke-dasharray:none;stroke-opacity:1;visibility:visible"/><path d="m411.253 348.332 10.763 5.104M410.734 348.316h.013l.006-.008h.014l.006-.004h.008l.005-.007h.016l.008-.005h.015l.008-.005h.021l.008-.007h.025l.008-.005h.159l.008.005h.03l.003.007h.024v.005h.022l.008.005h.014v.007h.011l.008.004h.01l.009.008h.005l.004.004h.013l.006.007h.005l.008.005h.01M290.933 395.428l5.548-2.185M349.238 372.504l38.117-14.993M402.182 351.682l8.552-3.365M477.23 380.112l-.273 2.735M476.956 382.847v.012l-.008.005v.03l-.005.006v.022l-.006.008v.022l-.005.006v.018l-.007.004v.006l-.005.005v.012l-.003.012v.004l-.008.007v.006l-.005.006v.006l-.008.01v.005l-.005.007v.005l-.006.005v.007l-.005.005v.007l-.005.01-.004.007v.006l-.008.006-.006.006v.006l-.005.006-.005.006v.006l-.008.004-.006.005v.007l-.005.005-.005.005-.006.006v.006l-.006.006-.006.006-.005.004v.007l-.005.007-.006.005-.005.007-.005.005-.008.005v.006l-.006.006-.004.007h-.008l-.005.005-.005.007-.006.003-.005.006-.005.006-.008.005-.006.005-.005.007-.007.007-.005.005h-.005l-.006.004-.005.008-.005.004h-.008l-.006.008-.008.005h-.004l-.01.004-.006.008h-.005l-.005.006-.008.006h-.006l-.005.004-.005.006h-.004l-.006.005h-.008l-.013.007h-.005l-.006.005h-.005M476.846 379.428h.005l.006.005.013.007h.004l.005.005.006.007h.01l.008.005.006.004.008.008h.008l.006.006.006.005.005.007.013.004.006.006.005.006h.005l.006.008.008.004.004.005.01.007.008.008.003.002.008.006.005.006.008.006.003.005.005.005.007.007.008.007.003.005.008.004.005.012.005.008.006.004.005.005.005.006.007.005v.008l.005.01.006.006.008.005.005.008.003.004v.012l.008.004.008.007.005.008v.01l.003.005.006.008v.012l.006.004.008.008v.004l.005.01.005.006v.006l.006.012v.006l.008.01v.007l.002.007v.009l.008.005v.007l.004.013v.015l.006.007v.005l.005.012v.024l.005.012v.023l.006.004v.052l.008.012v.062l-.008.012v.023" style="fill:none;stroke:red;stroke-width:1.99999;stroke-linecap:round;stroke-linejoin:round;stroke-miterlimit:4;stroke-dasharray:none;stroke-opacity:1;visibility:visible"/><path d="m361.173 435.633 41.132-18.62M419.55 409.208l35.612-16.124M472.247 385.353l4.305-1.953" style="fill:none;stroke:red;stroke-width:.999997;stroke-linecap:round;stroke-linejoin:round;stroke-miterlimit:4;stroke-dasharray:none;stroke-opacity:1;visibility:visible"/><path d="m465.07 373.85 11.776 5.579M464.508 373.838h.005l.008-.007h.006l.005-.006h.01l.005-.006h.008l.005-.004h.016l.005-.006h.01l.008-.006h.018l.006-.006h.024l.004-.006h.024l.005-.006h.044l.008-.004h.096l.005.004h.042l.005.006h.03l.007.006h.02l.008.006h.016l.008.006h.008l.007.006h.013l.003.004h.013l.006.006h.013l.004.006h.005l.006.007h.005l.008.004h.005l.006.008M356.69 421.081l29.28-12.828M403.234 400.686l35.667-15.625M456.026 377.554l8.481-3.716M378.383 459.16l-4.153 1.993" style="fill:none;stroke:red;stroke-width:1.99999;stroke-linecap:round;stroke-linejoin:round;stroke-miterlimit:4;stroke-dasharray:none;stroke-opacity:1;visibility:visible"/><path d="m374.23 461.154-.097.041-.094.016h-.078l-.071-.028" style="fill:none;stroke:red;stroke-width:.999997;stroke-linecap:round;stroke-linejoin:round;stroke-miterlimit:4;stroke-dasharray:none;stroke-opacity:1;visibility:visible"/><path d="m379.063 458.298-.033.121-.058.132-.069.128-.093.119-.098.116-.108.101-.11.083-.111.063M381.329 447.488l-2.265 10.81" style="fill:none;stroke:red;stroke-width:1.99999;stroke-linecap:round;stroke-linejoin:round;stroke-miterlimit:4;stroke-dasharray:none;stroke-opacity:1;visibility:visible"/><path d="m381.23 447.121-.46-.272M381.23 447.121l.052.039.035.064.022.074.006.087-.016.103M364.035 437.276l-2.861-1.643M326.266 415.653l-2.344-1.341M373.89 461.183l-.184-.11M460.875 317.862l-.033.064-.019.075-.005.09.018.104" style="fill:none;stroke:red;stroke-width:.999997;stroke-linecap:round;stroke-linejoin:round;stroke-miterlimit:4;stroke-dasharray:none;stroke-opacity:1;visibility:visible"/><path d="m522.344 510.325-26.59-114.845M493.906 387.514l-15.26-65.933M505.943 509.864l-24.419-103.77M475.05 378.573l-14.213-60.377M518.273 515.077l3.156-1.915M506.305 510.32h-.008l-.003-.01h-.008l-.005-.002h-.004l-.005-.005h-.008l-.006-.007h-.008v-.005h-.005l-.003-.007h-.008l-.005-.005-.005-.004h-.007l-.005-.007-.006-.004-.005-.008h-.005l-.006-.004h-.005v-.008l-.008-.004h-.005l-.006-.007-.004-.006h-.008v-.006l-.005-.006h-.005l-.006-.006v-.004l-.008-.006h-.005l-.005-.006v-.005l-.006-.007h-.004l-.008-.005v-.007l-.005-.006h-.005v-.006l-.006-.004-.005-.006-.005-.006-.008-.005v-.005l-.006-.006-.005-.008-.004-.004v-.008l-.005-.004-.008-.005v-.007l-.006-.005-.005-.008-.005-.004v-.005l-.008-.007v-.004l-.008-.008v-.005l-.003-.003-.005-.008v-.007l-.004-.005v-.007l-.011-.002v-.014l-.003-.005v-.005l-.005-.006v-.006l-.005-.007v-.01l-.008-.007v-.011l-.006-.004v-.012h-.005v-.012l-.005-.008v-.01l-.004-.005v-.024M516.057 515.071l-9.752-4.752" style="fill:none;stroke:red;stroke-width:1.99999;stroke-linecap:round;stroke-linejoin:round;stroke-miterlimit:4;stroke-dasharray:none;stroke-opacity:1;visibility:visible"/><path d="m518.273 515.077-.13.068-.138.065-.147.051-.148.04-.148.03-.156.022-.154.007-.156-.007-.156-.013-.154-.027-.185-.041-.183-.058-.176-.06-.185-.082" style="fill:none;stroke:red;stroke-width:.999997;stroke-linecap:round;stroke-linejoin:round;stroke-miterlimit:4;stroke-dasharray:none;stroke-opacity:1;visibility:visible"/><path d="m522.344 510.325.039.207.032.212.02.208v.206l-.006.2-.014.198-.038.188-.044.184-.057.178-.072.174-.076.16-.093.149-.106.139-.116.132-.122.114-.128.103-.134.085M478.19 321.08h.005l.006.007h.008l.005.005h.017l.006.007h.005l.005.005h.008l.006.005h.005l.012.006.003.006h.008l.005.007h.005l.006.005h.008l.005.004.005.008h.006l.001.004.01.006h.006l.005.006.006.007h.005l.008.004.003.008.008.004h.004l.008.007.005.004.005.006h.006l.005.006.005.006.006.006.008.005h.005l.004.007.008.006v.004l.005.007.006.005.005.006h.005l.006.005.008.008v.004l.005.004.005.008.007.005.005.006v.005l.003.005.008.007.005.007v.005l.006.005.005.007v.005l.008.007.005.005v.006l.007.004.003.006v.008l.008.004.005.007v.005l.005.006v.005l.006.005.005.007v.012l.008.005v.006l.005.005v.007l.006.006v.006l.004.004v.013l.008.005v.011l.002.005v.007l.006.005v.018l.008.006v.011l.008.012v.012l.005.004" style="fill:none;stroke:red;stroke-width:1.99999;stroke-linecap:round;stroke-linejoin:round;stroke-miterlimit:4;stroke-dasharray:none;stroke-opacity:1;visibility:visible"/><path d="m478.19 321.08-.333-.113" style="fill:none;stroke:red;stroke-width:.999997;stroke-linecap:round;stroke-linejoin:round;stroke-miterlimit:4;stroke-dasharray:none;stroke-opacity:1;visibility:visible"/><path d="m399.849 584.2-31.987-120.89M362.132 441.65l-8.753-33.067M345.428 378.51l-1.093-4.139M382.54 583.091l-35.487-132.132M341.322 429.638l-7.832-29.156" style="fill:none;stroke:red;stroke-width:1.99999;stroke-linecap:round;stroke-linejoin:round;stroke-miterlimit:4;stroke-dasharray:none;stroke-opacity:1;visibility:visible"/><path d="m325.747 371.638-.197-.739M395.05 589.724l-.125.068-.132.057-.139.046-.137.034-.146.03-.182.013h-.186l-.182-.019-.186-.034-.181-.047-.18-.065-.183-.072-.178-.094-.171-.097-9.863-6.005M395.05 589.724l3.995-2.419" style="fill:none;stroke:red;stroke-width:.999997;stroke-linecap:round;stroke-linejoin:round;stroke-miterlimit:4;stroke-dasharray:none;stroke-opacity:1;visibility:visible"/><path d="m382.88 583.54-.007-.005h-.005l-.007-.008h-.005l-.004-.006-.007-.005-.006-.007h-.006l-.004-.004h-.008v-.004h-.004l-.008-.008-.006-.005h-.004v-.005l-.004-.008h-.008l-.004-.003-.006-.008-.006-.005h-.006v-.004l-.006-.006h-.006v-.006l-.005-.007h-.007l-.005-.005v-.007l-.005-.004h-.006v-.007l-.006-.006-.004-.006-.008-.004-.006-.005-.008-.005-.005-.008v-.006l-.003-.006h-.006v-.007l-.006-.005v-.006h-.005l-.007-.004v-.006l-.006-.004v-.007l-.006-.005-.005-.008-.007-.004v-.006l-.005-.008v-.005h-.004v-.004l-.007-.007v-.005l-.005-.005v-.007l-.005-.005-.008-.006v-.006l-.006-.006v-.004l-.005-.006v-.011l-.005-.008-.007-.005v-.011l-.005-.008v-.005l-.006-.004v-.012l-.005-.006v-.012l-.007-.005v-.013h-.006v-.01l-.007-.005v-.017l-.004-.007M399.849 584.2l.052.23.044.229.032.232.015.222.005.22-.005.219-.023.21-.035.202-.052.201-.069.188-.073.178-.091.17-.11.152-.125.146-.133.133-.115.09-.122.082" style="fill:none;stroke:red;stroke-width:.999997;stroke-linecap:round;stroke-linejoin:round;stroke-miterlimit:4;stroke-dasharray:none;stroke-opacity:1;visibility:visible"/><path d="M343.88 373.85h.005l.007.003h.004l.008.006h.01l.006.006.005.006h.007l.005.006h.007l.004.005.008.007h.005l.004.005h.012l.008.007.006.005h.004l.006.005.006.007.006.005h.006l.005.007.004.005h.007l.004.007.008.005.005.007h.008l.003.005.005.004.007.004.005.008h.008l.003.004.009.007v.005l.005.007.007.005h.004l.007.007.006.004.003.007.007.004.006.008v.006l.004.004.007.006.007.006.005.007.007.007.002.005.006.007.006.002v.006l.006.006.008.006.005.005v.007l.004.005.008.007.007.004v.012l.005.008.004.005v.004l.007.008.004.004v.005l.006.007.007.005v.006l.005.006v.006l.006.006v.011l.006.005.007.007v.005l.005.006v.006l.006.006v.006l.005.011v.004l.004.007v.01l.008.006v.013l.005.005v.006l.006.006v.018l.005.005v.012l.005.007" style="fill:none;stroke:red;stroke-width:1.99999;stroke-linecap:round;stroke-linejoin:round;stroke-miterlimit:4;stroke-dasharray:none;stroke-opacity:1;visibility:visible"/><path d="m325.549 370.9-.005-.012v-.012l-.01-.008v-.024l-.002-.008v-.023l-.007-.01v-.039l-.005-.012v-.112l.005-.01v-.04l.007-.011v-.024l.002-.011v-.024l.01-.005v-.012l.005-.012v-.01l.005-.012v-.006l.007-.011.005-.01v-.014l.007-.01v-.005l.004-.012.007-.012.004-.012v-.006l.008-.012.005-.011.004-.005.008-.011.005-.012v-.004l.006-.013.006-.012.004-.006.006-.01.006-.008.003-.01.008-.006.013-.011.006-.013.004-.006.008-.01.004-.006.006-.008.006-.01.012-.006.005-.012.007-.005.01-.007.006-.01.006-.006.006-.005.01-.012.007-.005.012-.006.005-.012.004-.006.014-.006.005-.005.01-.005.006-.006.013-.013.006-.005.01-.007.006-.004.012-.005.012-.006.006-.006.011-.006.005-.006.012-.006.011-.006h.005l.011-.006.015-.005M343.88 373.85l-.397-.173" style="fill:none;stroke:red;stroke-width:.999997;stroke-linecap:round;stroke-linejoin:round;stroke-miterlimit:4;stroke-dasharray:none;stroke-opacity:1;visibility:visible"/><path d="m392.178 451.345 3.95-11.72" style="fill:none;stroke:red;stroke-width:1.99999;stroke-linecap:round;stroke-linejoin:round;stroke-miterlimit:4;stroke-dasharray:none;stroke-opacity:1;visibility:visible"/><path d="m402.883 419.587.648-1.913M410.31 397.587l.973-2.893" style="fill:none;stroke:red;stroke-width:.999997;stroke-linecap:round;stroke-linejoin:round;stroke-miterlimit:4;stroke-dasharray:none;stroke-opacity:1;visibility:visible"/><path d="m423.615 358.154 9.74-28.895M406.143 457.685l9.62-27.297" style="fill:none;stroke:red;stroke-width:1.99999;stroke-linecap:round;stroke-linejoin:round;stroke-miterlimit:4;stroke-dasharray:none;stroke-opacity:1;visibility:visible"/><path d="m422.75 410.547 1.167-3.316" style="fill:none;stroke:red;stroke-width:.999997;stroke-linecap:round;stroke-linejoin:round;stroke-miterlimit:4;stroke-dasharray:none;stroke-opacity:1;visibility:visible"/><path d="m439.875 361.923 16.115-45.728M402.648 459.596l3.19-1.568M394.087 455.688l-.156-.08-.15-.092-.145-.103-.142-.114-.136-.122-.135-.133-.125-.137-.127-.148-.115-.158-.11-.158-.104-.168-.096-.167-.087-.179-.08-.178-.075-.176-.062-.184-.054-.184-.052-.186-.033-.184-.03-.177-.02-.184-.007-.183v-.178l.006-.174.022-.172.024-.144.034-.144.046-.136M402.112 459.596l-8.025-3.908" style="fill:none;stroke:red;stroke-width:1.99999;stroke-linecap:round;stroke-linejoin:round;stroke-miterlimit:4;stroke-dasharray:none;stroke-opacity:1;visibility:visible"/><path d="M402.648 459.596h-.005l-.006.007h-.013l-.003.006h-.009l-.005.006h-.006l-.005.005h-.01l-.009.005h-.01l-.004.007h-.011l-.008.005h-.016l-.008.004h-.02l-.008.008h-.021l-.008.004h-.067l-.008.006h-.024v-.006h-.065l-.008-.004h-.028l-.006-.008h-.018l-.006-.004h-.017l-.003-.005h-.021l-.003-.007h-.008l-.005-.005h-.01l-.007-.005h-.011l-.005-.006h-.014v-.006h-.005l-.004-.007h-.008" style="fill:none;stroke:red;stroke-width:.999997;stroke-linecap:round;stroke-linejoin:round;stroke-miterlimit:4;stroke-dasharray:none;stroke-opacity:1;visibility:visible"/><path d="M406.143 457.685v.01h-.008v.014l-.005.003v.012l-.006.006v.006l-.005.005v.007h-.004v.01l-.008.007v.004l-.005.008-.006.004v.013h-.005v.006l-.008.004-.005.008v.004l-.006.006v.006h-.005v.008l-.005.002-.007.007v.005h-.003v.006l-.008.006-.005.006v.006h-.008v.004h-.003v.007l-.005.005-.01.006h-.003v.008l-.006.004-.004.005-.008.005h-.005v.007l-.005.005-.006.007h-.008v.005h-.005l-.005.006-.006.006-.006.006h-.006v.004h-.005l-.005.008-.006.005h-.008v.007h-.005l-.005.005-.006.004h-.006l-.003.008h-.008v.005h-.005l-.006.007h-.005l-.008.004h-.005l-.006.005h-.005l-.005.006M269.248 388.803l.003-.145.021-.143.039-.144.046-.13.064-.134.078-.127.085-.114.099-.116.128-.126.141-.116.16-.114.168-.098.163-.085.166-.08.176-.07M396.15 341.177l8.65 4.097M270.786 387.06l19.216-7.305M340.662 360.504l51.36-19.512M269.248 388.803l.044 2.827" style="fill:none;stroke:red;stroke-width:1.99999;stroke-linecap:round;stroke-linejoin:round;stroke-miterlimit:4;stroke-dasharray:none;stroke-opacity:1;visibility:visible"/><path d="m270.275 393.06 5.483 3.19" style="fill:none;stroke:red;stroke-width:.999997;stroke-linecap:round;stroke-linejoin:round;stroke-miterlimit:4;stroke-dasharray:none;stroke-opacity:1;visibility:visible"/><path d="m404.8 345.275.003.005h.005l.008.007h.005l.01.005.008.007h.005l.005.005.006.006h.005l.008.005.01.007.007.004h.006l.005.008.005.005.006.004.008.005h.005l.005.007.006.005.008.007.001.005.005.006.008.006h.006l.005.006.005.005.006.007.008.005.005.005.005.007.007.004.005.008.003.004v.007l.008.005.008.007.005.005.006.004.005.007v.006l.005.012.007.006.005.005v.004l.006.008.005.005.005.007v.005l.006.012.008.006v.005l.002.007v.004l.008.005.006.012v.007l.004.004v.006l.008.012v.006l.005.006v.006l.005.005v.01l.006.009v.002l.008.012v.012l.005.007v.016l.005.007v.017l.006.005v.024l.006.004v.042l.003.005v.092M392.021 340.992l.177-.063.191-.057.197-.047.2-.038.211-.031.199-.02.206-.019.204-.012h.42l.203.012.196.019.193.02.198.03.188.029.19.04.179.048.177.044.174.058.158.056.134.06.133.056M270.275 393.06l-.173-.11-.154-.114-.145-.127-.13-.137-.117-.15-.076-.12-.06-.12-.053-.127-.04-.136-.024-.146-.01-.144" style="fill:none;stroke:red;stroke-width:1.99999;stroke-linecap:round;stroke-linejoin:round;stroke-miterlimit:4;stroke-dasharray:none;stroke-opacity:1;visibility:visible"/><path d="m289.055 394.347 7.89-3.092M347.346 371.514l40.028-15.677M400.292 350.775l4.31-1.69" style="fill:none;stroke:red;stroke-width:.999997;stroke-linecap:round;stroke-linejoin:round;stroke-miterlimit:4;stroke-dasharray:none;stroke-opacity:1;visibility:visible"/><path d="m405.164 345.895-.156 2.628M405.008 348.522v.015l-.003.008v.033l-.005.012v.03l-.008.006v.01l-.005.011v.012l-.006.004v.019l-.006.007v.005l-.006.005v.012l-.005.006v.012l-.005.006v.011l-.006.005-.008.007v.005l-.005.006v.005l-.003.012v.005l-.008.007-.004.004v.005l-.005.008-.005.006v.005l-.008.005-.006.006v.013l-.005.005-.005.004-.006.006v.006l-.008.008-.005.006-.004.002v.007l-.008.008-.005.004-.006.007-.005.005-.005.005-.008.007v.007h-.006l-.005.005-.005.004-.007.007-.005.006-.003.006-.008.004-.005.006h-.006l-.008.006-.005.008-.005.004-.004.005h-.006l-.008.005-.005.007-.005.005h-.006l-.008.007-.005.005-.005.006h-.006l-.004.005-.008.008h-.01l-.006.004h-.008l-.002.005-.008.007h-.006l-.005.005h-.004l-.013.007h-.006l-.005.005h-.005l-.006.004h-.008M440.122 362.493l-.213 2.677M439.909 365.171v.019l-.003.005v.032l-.008.012v.017l-.005.012v.012l-.005.004v.019l-.007.007v.009l-.005.012v.005l-.006.006v.013l-.005.01v.007l-.005.006v.006l-.006.006v.005l-.008.01v.009l-.005.004-.005.008v.002l-.006.007v.005l-.004.007-.008.004v.01l-.002.009-.008.005v.007l-.006.005-.005.004v.008l-.008.005-.005.007-.008.004v.005l-.003.007-.007.005-.002.006-.008.006v.006l-.006.005-.005.005-.005.007-.008.005-.006.007v.005l-.005.006-.005.006h-.004l-.008.006-.006.006-.005.006-.005.004-.008.008-.006.005h-.005l-.005.004-.004.007-.008.008-.006.004h-.005l-.005.005-.006.007h-.005l-.008.004-.005.006-.006.006h-.004l-.008.006-.005.006h-.008l-.003.005-.01.007h-.008l-.006.005h-.006l-.003.007h-.005l-.008.005-.006.004h-.01l-.008.008h-.006M439.745 361.843h.005l.014.007h.002l.007.006.003.006h.013l.008.004.005.005.006.007h.008l.002.005.012.005.006.007h.005l.005.005.008.008.006.004.005.007.01.005.006.006h.007l.005.005.005.007.008.005.003.007.005.004.008.006.008.006.003.006.007.006.005.006.008.004.003.008.005.003.008.007v.005l.005.004.006.008.008.004.005.012.004.005.005.008v.007l.006.005.005.006.005.005v.012l.006.004.008.005.005.008v.006l.008.01.005.007v.005l.004.006.006.012v.004l.005.008v.004l.005.012v.005l.006.007v.012l.008.005v.005l.005.011v.007l.008.005v.012l.005.004v.02l.004.005v.018l.006.006v.022l.005.005v.036l.005.005v.122" style="fill:none;stroke:red;stroke-width:1.99999;stroke-linecap:round;stroke-linejoin:round;stroke-miterlimit:4;stroke-dasharray:none;stroke-opacity:1;visibility:visible"/><path d="m323.923 414.31 11.935-5.016M382.316 389.767l35.716-15.012M435.193 367.544l4.31-1.81" style="fill:none;stroke:red;stroke-width:.999997;stroke-linecap:round;stroke-linejoin:round;stroke-miterlimit:4;stroke-dasharray:none;stroke-opacity:1;visibility:visible"/><path d="m428.659 356.584 11.085 5.259M428.13 356.573h.005l.006-.005h.005l.008-.007h.01l.005-.005h.013l.005-.006h.016l.008-.005h.01l.005-.004h.024l.005-.008h.028l.008-.004h.058l.005-.007h.047l.005.007h.063l.005.004h.023l.008.008h.021l.005.004h.023l.005.005h.008l.006.006h.016l.005.005h.012l.005.007h.008l.006.005h.01l.008.005h.003l.005.007h.007M366.673 381.6l35.741-14.552M419.596 360.05l8.533-3.477M268.762 510.578l21.976-93.041M294.296 402.49l4.308-18.25M283.747 517.779l22.933-90.784M310.51 411.847l5.073-20.084" style="fill:none;stroke:red;stroke-width:1.99999;stroke-linecap:round;stroke-linejoin:round;stroke-miterlimit:4;stroke-dasharray:none;stroke-opacity:1;visibility:visible"/><path d="m321.18 369.604.385-1.532" style="fill:none;stroke:red;stroke-width:.999997;stroke-linecap:round;stroke-linejoin:round;stroke-miterlimit:4;stroke-dasharray:none;stroke-opacity:1;visibility:visible"/><path d="m279.436 520.163-.007.005h-.005l-.01.007h-.007l-.006.005h-.012l-.005.007h-.005l-.006.005h-.006l-.012.006h-.01l-.006.005h-.012l-.006.005h-.018l-.006.007h-.012l-.005.005h-.03l-.005.007h-.033l-.004.005h-.15l-.007-.005h-.034l-.008-.007h-.021l-.005-.005h-.024l-.004-.007h-.011l-.008-.005h-.013l-.011-.005h-.004l-.005-.006h-.011l-.007-.005h-.008l-.004-.007h-.006l-.006-.005h-.01l-.007-.007h-.004l-.008-.005h-.005l-.006-.007h-.006l-.007-.005h-.005l-.004-.005-.006-.006h-.006l-.006-.005-7.929-4.828M279.436 520.163l3.948-1.941M270.85 515.308l-.163-.11-.158-.114-.151-.133-.15-.144-.15-.148-.136-.16-.132-.17-.128-.17-.12-.184-.115-.19-.105-.185-.095-.19-.093-.194-.087-.196-.073-.201-.07-.195-.058-.195-.05-.197-.049-.196-.026-.188-.03-.196-.017-.196-.005-.183.005-.185.01-.177.025-.172.033-.16M283.747 517.779l-.008.005v.018l-.004.004v.006l-.007.006v.01l-.006.008v.011l-.004.007v.01l-.006.006v.006l-.005.006v.006l-.008.004v.012l-.005.006v.006l-.006.006v.005h-.005v.005l-.007.007v.007l-.005.004v.006l-.007.006v.008l-.004.004-.005.005-.007.005v.006l-.004.008v.005l-.005.005h-.007v.008l-.008.003v.007l-.004.005-.005.005-.007.006-.005.006v.006l-.008.006h-.004v.006l-.007.005-.005.007-.005.004-.007.006-.007.006-.005.006-.004.007h-.005v.005l-.004.004-.008.008h-.007v.004l-.005.006h-.004l-.008.006-.007.004-.003.01h-.006l-.004.002-.01.007h-.004v.007h-.006l-.006.005-.006.005h-.006l-.005.007h-.005v.007h-.006l-.005.002h-.008l-.005.007-.006.005h-.005l-.005.006h-.012l-.006.008" style="fill:none;stroke:red;stroke-width:1.99999;stroke-linecap:round;stroke-linejoin:round;stroke-miterlimit:4;stroke-dasharray:none;stroke-opacity:1;visibility:visible"/><path d="m485.028 407.822-3.856-8.222M292.787 431.305l17.1-2.4M484.12 382.877l.846 5.166M479.37 384.768l5.596 3.275M433.99 421.806l-1.839-9.42M422.411 410.696l9.74 1.69M375.467 449.351l-1.909-9.948M364.035 437.276l9.523 2.127M371.19 451.362l-.178-4.372M364.035 437.276l-.389 10.086" style="fill:none;stroke:red;stroke-width:.999997;stroke-linecap:round;stroke-linejoin:round;stroke-miterlimit:4;stroke-dasharray:none;stroke-opacity:1;visibility:visible"/><path d="m361.173 435.633.132 2.884M484.12 382.877l-4.75 1.891" style="fill:none;stroke:red;stroke-width:1.99999;stroke-linecap:round;stroke-linejoin:round;stroke-miterlimit:4;stroke-dasharray:none;stroke-opacity:1;visibility:visible"/><path d="m339.192 428.753.017-6.999M339.21 421.754l15.848-6.851M448.742 378.36l-1.692-8.437M441.836 366.854l5.214 3.069M395.523 401.56l-1.513-8.978M384.494 391.065l9.516 1.517M336.933 427.104l-1.581-9.46M326.266 415.653l9.086 1.991M339.192 428.753l1.062-3.097M325.963 369.992l-9.973-4.349M491.643 394.675l-3.195 1.822M488.636 406.181l-.646-2.862M489.529 405.75l-1.539-2.431M402.183 351.682l-6.603.938M400.292 350.775l-2.828 2.76M419.596 360.05l-6.823.897M417.487 359.033l-2.605 2.937M437.532 368.67l-7.04.85M435.193 367.544l-2.365 3.11M456.025 377.554l-7.283.806M453.44 376.313l-2.113 3.299M475.086 386.716l-7.521.751M472.247 385.353l-1.838 3.495M484.12 382.875l-1.924 16.244M484.12 382.875l-4.33 17.373M366.673 381.6l-7.233.977M364.558 380.503l-3 3.185M384.494 391.065l-7.293.853M382.15 389.836l-2.604 3.317M403.234 400.686l-7.711.874M400.635 399.33l-2.515 3.597M422.411 410.696l-7.966.824M419.55 409.208l-2.241 3.817M325.849 396.202l-11.496.423M313.158 401.347l7.6-7.302M349.238 372.504l2.483 9.099M411.253 348.332l.104 4.535M406.5 349.981l4.857 2.886M359.44 382.577l-1.226-8.579M349.238 372.505l8.976 1.493M366.673 381.6l-9.606 1.943M285.607 397.664l7.746 8.814M361.173 435.633l-1.603-3.659M465.07 373.85l.644 4.992M460.317 375.677l5.397 3.165M414.445 411.52l-1.672-9.195M403.234 400.686l9.539 1.639M339.514 428.794l3.323 6.467M332.647 428.972l8.24-.966M374.23 461.153l2.898-4.906M378.383 459.16l-1.255-2.913M495.753 395.48l-7.368-10.581M425.841 390.777l5.456-4.809M426.849 387.904l3.44.927M430.289 388.83l-3.44-.926M431.297 385.968l-5.456 4.81M402.883 419.587l8.409 12.903M290.933 395.428l7.11-8.8M343.432 373.7l-.47-4.513M279.176 393.951l3.444-6.346M396.15 341.177l-1.862 3.534M397.464 353.535l-3.176-8.824M326.266 415.653l8.562-10.198M365.866 396.682l.691-4.442" style="fill:none;stroke:red;stroke-width:.999997;stroke-linecap:round;stroke-linejoin:round;stroke-miterlimit:4;stroke-dasharray:none;stroke-opacity:1;visibility:visible"/><path d="m320.758 394.045-8.221 9.756M314.353 396.625l13.637.88" style="fill:none;stroke:red;stroke-width:1.99999;stroke-linecap:round;stroke-linejoin:round;stroke-miterlimit:4;stroke-dasharray:none;stroke-opacity:1;visibility:visible"/><path d="m428.659 356.584.276 4.685M423.907 358.291l5.028 2.978M377.201 391.918l-1.367-8.77M366.673 381.6l9.161 1.548M310.463 412.018l6.736-4.717M320.975 417.886l-3.776-10.585M317.199 407.301l-7.709 8.563" style="fill:none;stroke:red;stroke-width:.999997;stroke-linecap:round;stroke-linejoin:round;stroke-miterlimit:4;stroke-dasharray:none;stroke-opacity:1;visibility:visible"/><path d="m364.558 380.503-4.56 3.818" style="fill:none;stroke:red;stroke-width:1.99999;stroke-linecap:round;stroke-linejoin:round;stroke-miterlimit:4;stroke-dasharray:none;stroke-opacity:1;visibility:visible"/><path d="m293.918 433.742 1.304 1.028M293.959 434.483l1.263.287M393.574 589.534l-5.73-2.971M283.747 517.779l-1.847 1.171M354.088 454.201l1.487 1.172M354.136 455.045l1.439.328" style="fill:none;stroke:red;stroke-width:.999997;stroke-linecap:round;stroke-linejoin:round;stroke-miterlimit:4;stroke-dasharray:none;stroke-opacity:1;visibility:visible"/><path d="m310.761 429.642-6.831 8.232M309.665 430.114l6.454 2.485M411.253 348.332l-4.752 1.65M447.05 369.923l-5.214-3.07M465.07 373.85l-4.753 1.827M323.923 414.31l12.491-2.946M365.866 396.682l-.666 2.528" style="fill:none;stroke:red;stroke-width:1.99999;stroke-linecap:round;stroke-linejoin:round;stroke-miterlimit:4;stroke-dasharray:none;stroke-opacity:1;visibility:visible"/><path d="m339.21 421.754 16.866-2.994" style="fill:none;stroke:red;stroke-width:.999997;stroke-linecap:round;stroke-linejoin:round;stroke-miterlimit:4;stroke-dasharray:none;stroke-opacity:1;visibility:visible"/><path d="m316.545 366.918-12.186-7.035" style="fill:none;stroke:red;stroke-width:1.99999;stroke-linecap:round;stroke-linejoin:round;stroke-miterlimit:4;stroke-dasharray:none;stroke-opacity:1;visibility:visible"/><path d="m339.514 428.794-2.581-1.69M320.94 418.07l-2.31-1.536M285.607 397.664l-1.824-1.247M320.758 394.045l-7.6 7.302M314.353 396.625l11.496-.423" style="fill:none;stroke:red;stroke-width:.999997;stroke-linecap:round;stroke-linejoin:round;stroke-miterlimit:4;stroke-dasharray:none;stroke-opacity:1;visibility:visible"/><path d="m289.055 394.347 7.426-1.104M361.173 435.633l-4.483-14.552M495.753 395.48l-1.847-7.966" style="fill:none;stroke:red;stroke-width:1.99999;stroke-linecap:round;stroke-linejoin:round;stroke-miterlimit:4;stroke-dasharray:none;stroke-opacity:1;visibility:visible"/><path d="m411.292 432.49-8.409-12.903M423.917 407.231l-13.607-9.644M425.841 390.777l-14.558 3.917" style="fill:none;stroke:red;stroke-width:.999997;stroke-linecap:round;stroke-linejoin:round;stroke-miterlimit:4;stroke-dasharray:none;stroke-opacity:1;visibility:visible"/><path d="m402.883 419.587 12.88 10.8" style="fill:none;stroke:red;stroke-width:1.99999;stroke-linecap:round;stroke-linejoin:round;stroke-miterlimit:4;stroke-dasharray:none;stroke-opacity:1;visibility:visible"/><path d="m425.841 390.777-1.924 16.454" style="fill:none;stroke:red;stroke-width:.999997;stroke-linecap:round;stroke-linejoin:round;stroke-miterlimit:4;stroke-dasharray:none;stroke-opacity:1;visibility:visible"/><path d="m289.055 394.347.947-14.592M338.71 354.316l1.952 6.188" style="fill:none;stroke:red;stroke-width:1.99999;stroke-linecap:round;stroke-linejoin:round;stroke-miterlimit:4;stroke-dasharray:none;stroke-opacity:1;visibility:visible"/><path d="m290.933 395.428 6.013-4.173M326.266 415.653l9.592-6.359M316.545 366.918l4.635 2.686" style="fill:none;stroke:red;stroke-width:.999997;stroke-linecap:round;stroke-linejoin:round;stroke-miterlimit:4;stroke-dasharray:none;stroke-opacity:1;visibility:visible"/><path d="m350.462 395.193.005-.195.028-.186.052-.16.07-.144.093-.115.108-.087.119-.056.133-.029.144.004.15.041.154.07.15.098.149.12.138.148.127.175.116.19.097.2.079.206.065.212.035.215.015.206-.004.196-.028.184-.055.16-.073.143-.091.115-.104.088-.127.056-.13.029-.146-.005-.149-.039-.155-.07-.15-.1-.144-.125-.138-.15-.132-.167-.114-.188-.096-.203-.083-.206-.059-.214-.038-.21-.011-.207M357.38 394.071l-1.884 10.28M355.794 390.968l-4.012-1.401-3.98-1.42-3.961-1.442-3.924-1.454-3.896-1.478-3.867-1.494-3.845-1.511-3.812-1.528-3.786-1.547-3.765-1.569-3.735-1.58-3.708-1.599-3.682-1.614-3.655-1.631-3.63-1.65-3.611-1.66-3.588-1.685-3.555-1.694-3.536-1.714-3.517-1.728-3.488-1.744-3.467-1.762-3.441-1.77-3.425-1.796-3.395-1.804-3.38-1.82-3.356-1.834-3.341-1.85M355.794 390.968l.185.081.183.108.185.139.172.167.164.184.158.212.137.224.125.242.106.252.085.259.064.26.039.256.018.255-.006.241-.03.224" style="fill:none;stroke:#00ff4a;stroke-width:.999997;stroke-linecap:round;stroke-linejoin:round;stroke-miterlimit:4;stroke-dasharray:none;stroke-opacity:1;visibility:visible"/><path d="m250.617 344.953.247-.11.258-.08.263-.053.276-.022.283.012.293.034.292.068.304.1.3.131.303.156M348.514 394.998l.005-.295.023-.274.053-.266.072-.24.094-.226.114-.2.134-.174.148-.142.166-.11.184-.085.19-.053.208-.023.212.017.217.047.224.075.225.108.226.138.216.168.218.19.21.217.193.243.185.265.167.275.155.292.134.301.119.308.097.317.074.316.052.315.028.305.006.298-.01.29-.042.27-.062.253-.088.233-.1.21-.127.189-.139.153-.161.127-.179.097-.189.071-.196.033h-.212l-.216-.03-.219-.062-.226-.092-.224-.126-.218-.154-.22-.18-.205-.206-.201-.231-.19-.245-.178-.271-.162-.281-.144-.299-.126-.305-.104-.311-.086-.317-.062-.31-.044-.309-.019-.304" style="fill:none;stroke:#00ff4a;stroke-width:.999997;stroke-linecap:round;stroke-linejoin:round;stroke-miterlimit:4;stroke-dasharray:none;stroke-opacity:1;visibility:visible"/><path d="m251.85 342.437 2.8-.95M357.324 406.514l2.815-1.195M363.913 392.641l-1.93 10.245M361.984 402.886l-.057.265-.075.258-.099.249-.114.248-.131.228-.135.196-.148.19-.166.177-.186.168-.188.142-.173.115-.184.104-.19.093M360.902 387.106l.225.085.218.104.213.11.207.125.197.145.197.162.192.172.184.182.172.198.167.198.168.236.156.242.141.254.135.264.113.264.099.264.085.276.075.276.059.276.044.275.029.288.01.295-.01.281-.024.28-.04.283M258.736 341.998l2.688 1.477 2.708 1.471 2.717 1.461 2.735 1.447 2.747 1.443 2.766 1.432 2.776 1.418 2.794 1.408 2.802 1.404 2.764 1.362 2.776 1.349 2.794 1.339 2.809 1.334 2.821 1.322 2.839 1.309 2.85 1.304 2.874 1.288 2.88 1.283 2.903 1.269 2.914 1.26 2.93 1.252 2.948 1.235 3 1.24 3.013 1.23 3.033 1.219 3.045 1.207 3.064 1.2 3.087 1.185 3.101 1.173 3.122 1.159 3.136 1.15 3.156 1.14 3.172 1.125 3.196 1.114 3.205 1.099M254.65 341.487l.248-.073.252-.066.257-.045.262-.028.257-.01.265-.009.259.019.303.035.313.052.297.074.306.092.293.11.292.121.243.115.24.124M357.324 406.514l-.185.076-.195.056-.195.045-.202.034-.199.018-.25.006-.246-.016-.248-.035-.241-.052-.195-.056-.19-.07-.182-.08M254.826 360.596l-.28-.139-.277-.149-.27-.16-.268-.179-.265-.196-.26-.201-.252-.219-.248-.222-.25-.25-.249-.256-.248-.272-.234-.28-.231-.288-.225-.304-.218-.31-.212-.315-.208-.328-.194-.333-.191-.346-.183-.356-.177-.356-.167-.364-.154-.366-.151-.374-.137-.362-.128-.362-.115-.374-.11-.367-.1-.373-.087-.374-.083-.374-.073-.367-.059-.37-.05-.367-.04-.367-.035-.363-.016-.361-.014-.357v-.351l.014-.35.021-.35.03-.345.046-.346.056-.332.07-.328.08-.321.093-.319.101-.302.123-.306.136-.292.145-.286.167-.278.18-.264.186-.248.21-.24.217-.218.201-.184.211-.166.225-.157.23-.144.244-.125.245-.115.252-.09M254.826 360.596l99.97 45.844" style="fill:none;stroke:#00ff4a;stroke-width:1.99999;stroke-linecap:round;stroke-linejoin:round;stroke-miterlimit:4;stroke-dasharray:none;stroke-opacity:1;visibility:visible"/><path d="m348.514 394.998 1.948.195M361.984 402.886l-6.488 1.465M251.85 342.437l-1.233 2.516M350.462 395.193l-1.948-.195" style="fill:none;stroke:#00ff4a;stroke-width:.999997;stroke-linecap:round;stroke-linejoin:round;stroke-miterlimit:4;stroke-dasharray:none;stroke-opacity:1;visibility:visible"/><path d="m487.904 293.738.016-.177.039-.162.052-.156.078-.137.091-.115.107-.1.117-.073.13-.052.133-.023h.144l.142.023.144.052.14.073.139.1.124.119.115.139.104.156.086.16.068.178.055.184.028.186.01.177-.005.183-.029.168-.047.158-.066.146-.084.126-.096.11-.115.085-.128.064-.13.033-.138.012M549.344 312.983l.021-.173.044-.154.071-.15.088-.126.104-.104.112-.086.136-.063.14-.03.144-.01.148.023.15.046.145.075.142.09.128.122.115.139.104.149.08.164.063.173.038.186.024.178v.179l-.028.165-.048.16-.061.146-.087.13-.101.104-.12.087-.136.056-.135.037-.15.006-.15-.018-.142-.053-.151-.068-.139-.097-.128-.115-.114-.139-.102-.153-.08-.163-.062-.18-.042-.176-.021-.18v-.177M556.003 308.564l-3.972-.89-3.943-.903-3.916-.93-3.898-.944-3.867-.965-3.839-.981-3.822-1.008-3.795-1.023-3.763-1.04-3.748-1.057-3.718-1.08-3.695-1.094-3.67-1.113-3.651-1.132-3.624-1.15-3.606-1.166-3.58-1.185-3.554-1.2-3.536-1.219-3.519-1.236-3.486-1.247-3.47-1.269-3.45-1.287-3.427-1.3-3.407-1.314-3.385-1.335-3.367-1.35-3.346-1.369M450.721 276.927l.263-.144.27-.115.282-.085.286-.07.295-.034.299-.016.302.012.308.039.31.065.309.085.303.114M557.346 311.112l-2.833 9.019M556.003 308.564l.185.053.176.079.172.104.167.127.152.154.135.167.122.184.11.193.081.216.061.212.048.218.018.218-.008.214-.023.212-.052.197M559.044 305.617l.13-.043.133-.016.128.016" style="fill:none;stroke:#9500ff;stroke-width:.999997;stroke-linecap:round;stroke-linejoin:round;stroke-miterlimit:4;stroke-dasharray:none;stroke-opacity:1;visibility:visible"/><path d="m453.917 274.03-1.973.668M557.518 321.28l-1.919.823M555.599 322.103l-.183.07-.184.058-.19.044-.188.036-.192.016-.194.007-.189-.007-.19-.016-.19-.03-.183-.04-.185-.051-70.56-22.548M468.51 295.022l-14.705-4.697M453.805 290.325l-.257-.085-.251-.104-.26-.118-.248-.125-.247-.139-.245-.142-.237-.162-.236-.166-.267-.212-.255-.219-.252-.235-.25-.248-.235-.257-.224-.27-.219-.282-.189-.26-.183-.27-.172-.275-.166-.283-.162-.287-.148-.3-.141-.298-.13-.304-.12-.31-.117-.31-.104-.316-.092-.323-.085-.321-.073-.328-.066-.322-.052-.326-.038-.323-.034-.33-.026-.325-.011-.324v-.321l.005-.321.024-.314.031-.317.037-.31.055-.313.067-.302.07-.306.084-.293.099-.285.11-.284.117-.276.124-.27.136-.26.153-.246.153-.246.172-.23.178-.224.19-.212.198-.21.21-.194.219-.178.227-.173.245-.16.248-.144.252-.127.257-.114.27-.098M559.221 319.375l-.076.205-.085.208-.102.195-.117.195-.133.177-.132.161-.142.156-.156.139-.161.13-.172.122-.139.081-.14.074-.148.062M559.221 319.375l2.857-9.005M559.435 305.574l.2.055.201.062.195.075.19.09.183.106.184.113.172.127.167.137.161.151.152.155.148.178.135.184.128.195.117.201.102.208.093.218.079.225.07.23.05.23.041.227.03.237.011.235-.006.236-.016.236-.036.23-.048.23-.06.225M457.646 274.197l2.7 1.097 2.707 1.082 2.732 1.073 2.733 1.064 2.753 1.05 2.766 1.042 2.781 1.035 2.792 1.017 2.804 1.012 2.765.976 2.776.97 2.792.955 2.806.948 2.817.938 2.83.918 2.853.915 2.86.908 2.873.89 2.893.88 2.904.867 2.923.862 2.93.845 2.983.844 2.995.833 3.008.823 3.03.805 3.046.799 3.057.783 3.08.773 3.092.76 3.112.747 3.119.736 3.144.722 3.158.707 3.175.7M453.917 274.03l.265-.08.262-.068.276-.052.27-.033.282-.023.276-.007.276.012.265.022.263.037.265.044.259.063.26.069.254.087.256.097" style="fill:none;stroke:#9500ff;stroke-width:1.99999;stroke-linecap:round;stroke-linejoin:round;stroke-miterlimit:4;stroke-dasharray:none;stroke-opacity:1;visibility:visible"/><path d="m559.221 319.375-4.708.756" style="fill:none;stroke:#9500ff;stroke-width:.999997;stroke-linecap:round;stroke-linejoin:round;stroke-miterlimit:4;stroke-dasharray:none;stroke-opacity:1;visibility:visible"/><path d="m468.51 295.022 14.461 4.62M482.971 299.642l-14.461-4.62" style="fill:none;stroke:#9500ff;stroke-width:1.99999;stroke-linecap:round;stroke-linejoin:round;stroke-miterlimit:4;stroke-dasharray:none;stroke-opacity:1;visibility:visible"/><path d="m326.266 415.653 6.144 9.037" style="fill:none;stroke:red;stroke-width:.999997;stroke-linecap:round;stroke-linejoin:round;stroke-miterlimit:4;stroke-dasharray:none;stroke-opacity:1;visibility:visible"/><path d="m488.636 406.181-7.112-.086M484.12 382.877l-9.07-4.304M349.238 372.504l-3.81 6.006" style="fill:none;stroke:red;stroke-width:1.99999;stroke-linecap:round;stroke-linejoin:round;stroke-miterlimit:4;stroke-dasharray:none;stroke-opacity:1;visibility:visible"/></svg>