<svg xmlns="http://www.w3.org/2000/svg" baseProfile="full" height="1122.52" preserveAspectRatio="xMinYMin meet" style="width:912px;height:1303px" width="793.701" xml:space="preserve"><path d="m351.706 824.277.153.037.163.019.162-.01.154-.028.142-.048.135-.067.105-.075.075-.096M352.796 824.009l.278-.422M351.342 825.327l-.258.04-.26.02-.268.007-.268-.019-.257-.038-.259-.047M258.933 730.04l.009.084.037.096.068.089.076.076.107.068M262.206 732.165l.143.065.164.047.162.028h.182l.172-.017.161-.039.155-.067.125-.077M259.23 730.452l2.975 1.713M263.603 738.308l-.133-6.202M265.114 810.4l-1.033-49.28M266.522 877.48l-.937-44.561M263.469 732.105l13.654-10.019M472.355 903.154l-.107-.048-.125-.01h-.143l-.143.041-.162.064-.175.088-.172.114-.178.143-.183.154-.172.18-.175.193-.17.209-.154.221-.141.23-.136.23-.115.227-.104.232-.085.23-.06.218-.048.203-.02.19v.184l.02.154.04.132.068.104.074.088.104.057M477.95 899.089l-.074-.086-.097-.068-.115-.038-.124-.02-.133.02-.154.038-.163.076-.17.095-.175.117-.18.143-.183.161-.174.183-.172.2-.161.21-.155.223-.14.229-.136.228-.104.23-.097.23-.087.228-.056.212-.037.199-.023.194.012.172.019.145.049.133.066.104M339.754 1005.735l-.115-.057-.135-.038-.142-.009-.163.027-.172.049-.19.076-.194.105-.199.135-.203.152-.191.183-.2.189-.182.213-.182.22-.172.228-.154.24-.133.248-.115.24-.105.239-.077.23-.058.23-.029.201-.01.194.011.178.039.146.067.132.077.106M333.716 1010.568l-.096-.096-.116-.057-.122-.04h-.155l-.162.021-.183.058-.182.076-.2.106-.192.132-.2.154-.201.172-.202.201-.18.21-.183.221-.17.229-.155.249-.134.239-.123.24-.098.24-.075.236-.057.223-.03.21-.008.191.009.172.038.152.067.125.076.108" style="fill:none;stroke:red;stroke-width:.999997;stroke-linecap:round;stroke-linejoin:round;stroke-miterlimit:4;stroke-dasharray:none;stroke-opacity:1;visibility:visible"/><path d="m277.123 722.088.097-.086.075-.086.04-.107.019-.104" style="fill:none;stroke:red;stroke-width:1.99999;stroke-linecap:round;stroke-linejoin:round;stroke-miterlimit:4;stroke-dasharray:none;stroke-opacity:1;visibility:visible"/><path d="m243.26 832.267-.155-4.697M243.823 827.254l-.14-.06-.147-.019h-.126l-.103.04-.094.056-.059.076-.039.095-.009.128M243.823 827.254l13.427 5.637M258.129 838.533l-.115-4.696" style="fill:none;stroke:red;stroke-width:.999997;stroke-linecap:round;stroke-linejoin:round;stroke-miterlimit:4;stroke-dasharray:none;stroke-opacity:1;visibility:visible"/><path d="m243.26 832.267.008.123.049.135.076.133.096.133.114.127.127.112.14.1.145.075 13.387 5.645" style="fill:none;stroke:red;stroke-width:1.99999;stroke-linecap:round;stroke-linejoin:round;stroke-miterlimit:4;stroke-dasharray:none;stroke-opacity:1;visibility:visible"/><path d="m366.308 748.077.192-.172.172-.172.135-.193.113-.198.078-.204.048-.21.018-.208-.009-.222-.048-.21-.076-.2-.115-.211-.134-.193-.163-.18-.189-.174-.222-.162-.242-.154M359.102 753.684l7.206-5.607M257.25 832.89l74.648-58.058M258.014 833.835l-.019-.125-.048-.144-.066-.133-.096-.134-.116-.124-.134-.115-.144-.095-.141-.075M258.005 838.84l.055-.056.039-.077.021-.074.01-.099M257.402 838.849l.115.038.125.03h.104l.105-.01" style="fill:none;stroke:red;stroke-width:.999997;stroke-linecap:round;stroke-linejoin:round;stroke-miterlimit:4;stroke-dasharray:none;stroke-opacity:1;visibility:visible"/><path d="m326.733 762.952-4.106 3.162M278.76 822.627l-17.36 13.56M299.286 806.614 282.129 820M319.42 790.89l-16.948 13.233M331.802 781.225l-9.377 7.32" style="fill:none;stroke:red;stroke-width:1.99999;stroke-linecap:round;stroke-linejoin:round;stroke-miterlimit:4;stroke-dasharray:none;stroke-opacity:1;visibility:visible"/><path d="m332.084 758.829-5.351 4.123" style="fill:none;stroke:red;stroke-width:.999997;stroke-linecap:round;stroke-linejoin:round;stroke-miterlimit:4;stroke-dasharray:none;stroke-opacity:1;visibility:visible"/><path d="m306.077 778.852-3.643 2.804" style="fill:none;stroke:red;stroke-width:1.99999;stroke-linecap:round;stroke-linejoin:round;stroke-miterlimit:4;stroke-dasharray:none;stroke-opacity:1;visibility:visible"/><path d="m319.573 768.46-13.496 10.392" style="fill:none;stroke:red;stroke-width:.999997;stroke-linecap:round;stroke-linejoin:round;stroke-miterlimit:4;stroke-dasharray:none;stroke-opacity:1;visibility:visible"/><path d="m285.49 794.707-3.64 2.804" style="fill:none;stroke:red;stroke-width:1.99999;stroke-linecap:round;stroke-linejoin:round;stroke-miterlimit:4;stroke-dasharray:none;stroke-opacity:1;visibility:visible"/><path d="m299.209 784.144-13.719 10.565" style="fill:none;stroke:red;stroke-width:.999997;stroke-linecap:round;stroke-linejoin:round;stroke-miterlimit:4;stroke-dasharray:none;stroke-opacity:1;visibility:visible"/><path d="m264.551 810.833-3.676 2.83" style="fill:none;stroke:red;stroke-width:1.99999;stroke-linecap:round;stroke-linejoin:round;stroke-miterlimit:4;stroke-dasharray:none;stroke-opacity:1;visibility:visible"/><path d="m232.167 827.414-.162-.096-.172-.077-.183-.056-.199-.036-.201-.024-.213.01-.209.03-.192.05-.189.062-.175.088-.153.095-.124.115-.105.126-.076.132-.039.145-.02.142.02.146.048.144.078.124.104.126.134.103.154.097.172.077.181.056.201.037.21.023.21-.014.203-.026.2-.05.183-.065.172-.085.152-.098.125-.114.105-.127.076-.141.048-.135.01-.141-.019-.144-.048-.144-.076-.124-.105-.127-.126-.104M257.278 816.431l-14.048 10.823M278.443 800.134l-13.892 10.699" style="fill:none;stroke:red;stroke-width:.999997;stroke-linecap:round;stroke-linejoin:round;stroke-miterlimit:4;stroke-dasharray:none;stroke-opacity:1;visibility:visible"/><path d="m212.39 839.023-.213-4.306M212.389 839.023l7.617 12.343" style="fill:none;stroke:red;stroke-width:1.99999;stroke-linecap:round;stroke-linejoin:round;stroke-miterlimit:4;stroke-dasharray:none;stroke-opacity:1;visibility:visible"/><path d="m233.297 825.913-.23-.135-.24-.123-.257-.105-.277-.096-.287-.059-.296-.048-.307-.027h-.306l-.307.02-.297.034-.296.069-.287.077-.279.106-.257.115-.24.144-.22.152-.19.162-.174.183-.143.19-.105.201-.085.202-.059.211-.018.21.01.209.037.211.078.201.105.202.133.181.154.182.192.164.21.154.229.133.249.114.277.096.277.077.299.057.296.038.305.01.306-.01.306-.029.307-.048.288-.076.287-.087.257-.114.25-.135.228-.144.21-.162.183-.173.153-.18.135-.202.094-.199.067-.203.039-.222v-.208l-.028-.21-.058-.2-.085-.203-.116-.19-.153-.183-.172-.17-.192-.164M212.886 833.902l7.645 12.336M235.594 837.442l4.048-2.727" style="fill:none;stroke:red;stroke-width:.999997;stroke-linecap:round;stroke-linejoin:round;stroke-miterlimit:4;stroke-dasharray:none;stroke-opacity:1;visibility:visible"/><path d="m212.12 834.515.02.105.038.095M212.886 833.902l-.096-.056-.096-.036-.084-.023h-.077l-.058.03" style="fill:none;stroke:red;stroke-width:1.99999;stroke-linecap:round;stroke-linejoin:round;stroke-miterlimit:4;stroke-dasharray:none;stroke-opacity:1;visibility:visible"/><path d="m305.565 700.374.142.067.154.047.162.021.172.011.172-.022.164-.04.143-.066.124-.066M302.597 698.73l2.968 1.644M306.8 706.498v-6.172M306.75 778.336l.028-49.12M306.722 845.26l.017-44.474M306.8 700.326l13.12-9.625M221.08 847.033l-.05-.126-.056-.124-.068-.133-.085-.115-.096-.115-.096-.095-.096-.087M220.006 851.366l.076.097.105.077.115.066.135.047.152.027" style="fill:none;stroke:red;stroke-width:.999997;stroke-linecap:round;stroke-linejoin:round;stroke-miterlimit:4;stroke-dasharray:none;stroke-opacity:1;visibility:visible"/><path d="m319.918 690.702.085-.077.067-.087.039-.096.018-.097M302.293 698.316l.017.096.04.086.056.088.087.075.105.07" style="fill:none;stroke:red;stroke-width:1.99999;stroke-linecap:round;stroke-linejoin:round;stroke-miterlimit:4;stroke-dasharray:none;stroke-opacity:1;visibility:visible"/><path d="m220.773 847.233.066-.028h.078l.085.018.096.038.105.057M220.618 852.247l.02.106.037.096M339.524 1001.363l-.064-.079-.098-.046-.115-.039h-.144l-.143.021-.162.04M320.74 1014.56l.01.095.039.087M220.675 852.449l.02.104.037.086M327.266 1010.147l11.53-8.888M327.266 1010.147l-.25.172-.266.153-.29.136-.305.114-.314.086-.326.068-.334.038-.336.018-.335-.01-.335-.028-.334-.056-.326-.078-.305-.105-.3-.135-.277-.144-.256-.164-.242-.19-.218-.199-.182-.213-.164-.227M260.389 910.6l61.185 98.784M221.202 847.32l19.999 32.296" style="fill:none;stroke:red;stroke-width:.999997;stroke-linecap:round;stroke-linejoin:round;stroke-miterlimit:4;stroke-dasharray:none;stroke-opacity:1;visibility:visible"/><path d="m236.217 837.815 1.693 2.683" style="fill:none;stroke:red;stroke-width:1.99999;stroke-linecap:round;stroke-linejoin:round;stroke-miterlimit:4;stroke-dasharray:none;stroke-opacity:1;visibility:visible"/><path d="M220.418 847.94v-.104l.01-.011v-.056l.009-.012v-.047h.009v-.028l.01-.01v-.017l.011-.011v-.021l.009-.009v-.02l.008-.008v-.01l.011-.009v-.02h.008v-.01l.011-.01v-.007l.01-.01v-.011l.006-.008.012-.01v-.019h.01v-.01l.009-.01.011-.009v-.01l.008-.009.01-.01v-.009h.008l.012-.011v-.01h.008v-.007l.01-.01.011-.01h.009v-.01l.009-.01.011-.009h.008v-.01l.011-.01h.007v-.008h.011v-.01h.01l.01-.01.01-.01.007-.01h.011v-.007h.01l.009-.01 14.325-9.656M220.6 851.92l-.183-3.977M236.59 746.384l.01.094.036.086.058.088.088.076.095.076M239.862 748.545l.143.068.162.047.174.029h.172l.182-.019.163-.038.152-.066.135-.078M241.346 754.7l-.2-6.211M243.68 826.907l-2.124-65.547M245.853 894.054l-1.97-60.917M241.145 748.488l13.932-10.22M236.877 746.805l2.985 1.741" style="fill:none;stroke:red;stroke-width:.999997;stroke-linecap:round;stroke-linejoin:round;stroke-miterlimit:4;stroke-dasharray:none;stroke-opacity:1;visibility:visible"/><path d="M235.095 837.577h.011l.01-.011.008-.008h.011l.007-.01.021-.009h.01l.01-.009h.007l.012-.01.018-.012h.011l.009-.008h.01l.02-.01h.009l.007-.008h.031l.01-.01h.026l.011-.009h.039l.009-.009h.046l.022-.012h.123l.01.012h.066l.011.008h.029l.007.01h.031l.01.011h.027l.011.009h.01l.017.008h.011l.007.009h.011l.012.01h.017l.01.011.01.008h.01l.008.01.019.011h.011l.01.007.008.01h.011l.007.012.011.007.01.012.009.008h.019l.01.011.01.008.01.01.01.012.007.006.01.013.011.007.01.01.009.011.008.009.012.006.009.012.007.02.011.01v.01l.01.007.01.01.01.011v.01l.007.01" style="fill:none;stroke:red;stroke-width:.999997;stroke-linecap:round;stroke-linejoin:round;stroke-miterlimit:4;stroke-dasharray:none;stroke-opacity:1;visibility:visible"/><path d="m259.23 911.058-3.35-1.473M255.077 738.268l.097-.095.076-.097.048-.106.008-.113" style="fill:none;stroke:red;stroke-width:1.99999;stroke-linecap:round;stroke-linejoin:round;stroke-miterlimit:4;stroke-dasharray:none;stroke-opacity:1;visibility:visible"/><path d="m325.869 857.265 13.187-10.73M259.823 911.058l14.967-12.183M246.167 899.88l-.133-.045-.134-.031h-.125l-.105.031-.087.045M259.823 906.447l-.009-.124-.048-.126-.067-.134-.096-.122-.105-.118-.124-.113-.143-.087-.134-.076M259.823 906.447l.115 4.346M259.23 911.058l.143.048.134.03h.124l.106-.031.085-.047.068-.068.037-.093.01-.104" style="fill:none;stroke:red;stroke-width:.999997;stroke-linecap:round;stroke-linejoin:round;stroke-miterlimit:4;stroke-dasharray:none;stroke-opacity:1;visibility:visible"/><path d="m321.266 861.011 4.603-3.748" style="fill:none;stroke:red;stroke-width:1.99999;stroke-linecap:round;stroke-linejoin:round;stroke-miterlimit:4;stroke-dasharray:none;stroke-opacity:1;visibility:visible"/><path d="m364.28 814.849.181-.16.163-.183.144-.19.104-.202.078-.211.048-.211.018-.209-.018-.213-.048-.217-.067-.213-.105-.201-.135-.192-.163-.187-.18-.175-.213-.162-.227-.153M357.036 820.711l7.244-5.861M258.953 900.074l89.395-72.33M255.029 901.107l-.01.143-.038.124-.056.113-.096.096-.106.068-.133.049-.155.02-.162-.013-.183-.036-.18-.056-.183-.078-.181-.107-.183-.123-.162-.134-.163-.154-.133-.161-.125-.172-.095-.172-.067-.172-.048-.163-.019-.165.009-.141.038-.135.068-.115.085-.086.115-.067.135-.048.142-.019.172.01.175.027.18.058.183.088.19.094.174.125.172.144.151.153.145.164.113.172.096.172.077.172.039.161.019.164M245.297 894.686l.01-.116.037-.085.058-.075.087-.05.105-.028h.123l.136.029.142.049M245.997 894.41l12.956 5.664M258.953 900.074l.142.076.135.085.124.115.116.116.095.133.065.123.041.136.019.112M259.689 900.971l.096 4.49-.039.088-.057.066M245.9 899.787l-.126-.106-.114-.115-.095-.136-.067-.121-.038-.136-.019-.115M245.297 894.686l.143 4.372M262.378 889.845l-.172-.126-.144-.132-.125-.154-.087-.164-.065-.162-.03-.181.01-.173.038-.173.059-.17.104-.163.125-.154.152-.135.172-.124.192-.107.22-.085.231-.076.228-.037.25-.03h.25l.239.021.238.046.22.068.211.085.19.107.175.123.152.134.112.152.098.165.057.171.03.172v.172l-.041.172-.064.174-.097.164-.124.152-.155.142-.172.126-.2.104-.21.086-.23.067-.238.048-.24.017-.248.013-.24-.03-.24-.036-.23-.069-.209-.096-.192-.104M256.626 893.88l-.192-.132-.163-.155-.141-.16-.108-.183-.085-.181-.047-.194-.02-.19.02-.201.037-.191.087-.183.105-.181.134-.172.162-.163.192-.132.211-.136.23-.106.246-.086.261-.064.258-.05.277-.017h.268l.268.017.267.05.249.064.24.096.22.107.21.132.175.144.151.153.135.172.094.182.059.19.037.193v.192l-.029.19-.057.191-.095.194-.125.17-.152.166-.175.151-.2.136-.22.116-.239.1-.248.079-.269.057-.268.029-.267.01-.277-.009-.27-.04-.256-.057-.25-.078-.228-.091-.212-.129" style="fill:none;stroke:red;stroke-width:.999997;stroke-linecap:round;stroke-linejoin:round;stroke-miterlimit:4;stroke-dasharray:none;stroke-opacity:1;visibility:visible"/><path d="m260.829 890.503-.259-.182-.24-.201-.219-.21-.181-.23-.164-.237-.124-.24-.096-.26-.057-.258-.039-.26.01-.266.028-.257.069-.26.093-.256.135-.25.164-.238.181-.232.221-.212.239-.199.257-.192.287-.173.307-.141.325-.134.336-.115.352-.087.355-.066.364-.05.364-.017h.373l.363.03.362.047.356.076.334.086.335.115.317.135.288.15.275.172.25.194.23.208.2.212.174.229.143.252.105.247.085.247.048.269.02.257-.02.27-.048.256-.085.258-.116.251-.143.246-.172.233-.201.23-.23.21-.248.19-.278.18-.296.168-.316.13-.325.127-.344.103-.355.077-.364.059-.364.026-.372.01-.364-.01-.373-.036-.354-.058-.354-.088-.335-.103-.316-.125-.307-.144-.285-.163M260.053 893.557l-.106-.152-.116-.135-.131-.127-.135-.093-.145-.068-.142-.047-.144-.03-.153-.008-.143.008-.135.03-.123.047-.115.056-.106.07-.105.074-.087.098-.076.094-.068.105-.046.114-.03.114v.116l.03.127.046.113.078.115.105.107M266.167 877.771l13.224-10.597M245.413 894.41l13.557-10.872" style="fill:none;stroke:red;stroke-width:.999997;stroke-linecap:round;stroke-linejoin:round;stroke-miterlimit:4;stroke-dasharray:none;stroke-opacity:1;visibility:visible"/><path d="m260.014 893.593-.164-.134-.141-.144-.135-.161-.116-.164" style="fill:none;stroke:red;stroke-width:.999997;stroke-linecap:round;stroke-linejoin:round;stroke-miterlimit:4;stroke-dasharray:none;stroke-opacity:1;visibility:visible"/><path d="m262.435 880.765 3.732-2.992" style="fill:none;stroke:red;stroke-width:1.99999;stroke-linecap:round;stroke-linejoin:round;stroke-miterlimit:4;stroke-dasharray:none;stroke-opacity:1;visibility:visible"/><path d="m286.146 861.751 13.283-10.641" style="fill:none;stroke:red;stroke-width:.999997;stroke-linecap:round;stroke-linejoin:round;stroke-miterlimit:4;stroke-dasharray:none;stroke-opacity:1;visibility:visible"/><path d="m282.675 864.534 3.472-2.783" style="fill:none;stroke:red;stroke-width:1.99999;stroke-linecap:round;stroke-linejoin:round;stroke-miterlimit:4;stroke-dasharray:none;stroke-opacity:1;visibility:visible"/><path d="m306.306 845.593 12.797-10.255" style="fill:none;stroke:red;stroke-width:.999997;stroke-linecap:round;stroke-linejoin:round;stroke-miterlimit:4;stroke-dasharray:none;stroke-opacity:1;visibility:visible"/><path d="m302.54 848.61 3.765-3.019" style="fill:none;stroke:red;stroke-width:1.99999;stroke-linecap:round;stroke-linejoin:round;stroke-miterlimit:4;stroke-dasharray:none;stroke-opacity:1;visibility:visible"/><path d="m325.889 829.902 8.317-6.667" style="fill:none;stroke:red;stroke-width:.999997;stroke-linecap:round;stroke-linejoin:round;stroke-miterlimit:4;stroke-dasharray:none;stroke-opacity:1;visibility:visible"/><path d="m322.051 832.974 3.839-3.073" style="fill:none;stroke:red;stroke-width:1.99999;stroke-linecap:round;stroke-linejoin:round;stroke-miterlimit:4;stroke-dasharray:none;stroke-opacity:1;visibility:visible"/><path d="m281.123 714.432 2.977 1.684M285.413 722.241l-.058-6.183M286.138 794.21l-.498-49.194M286.807 861.222l-.449-44.524M285.354 716.058l13.376-9.817M355.715 806.705l1.59.928" style="fill:none;stroke:red;stroke-width:.999997;stroke-linecap:round;stroke-linejoin:round;stroke-miterlimit:4;stroke-dasharray:none;stroke-opacity:1;visibility:visible"/><path d="m298.731 706.241.096-.087.067-.084.039-.097.02-.104" style="fill:none;stroke:red;stroke-width:1.99999;stroke-linecap:round;stroke-linejoin:round;stroke-miterlimit:4;stroke-dasharray:none;stroke-opacity:1;visibility:visible"/><path d="m240.906 760.44-.163-5.06M256.34 766.678l-.135-5.061M261.813 747.914l-.211-.104-.23-.086-.241-.06-.256-.046-.258-.02h-.259l-.268.019-.25.048-.246.068-.231.087-.21.104-.193.126-.162.132-.135.154-.103.162-.078.163-.037.172v.181l.028.174.066.16.096.166.126.142.162.144.182.124.21.109.22.083.248.056.25.048.267.018h.259l.268-.018.248-.048.25-.064.229-.088.21-.104.19-.126.164-.144.135-.145.105-.161.076-.172.039-.171v-.175l-.028-.172-.068-.16-.095-.164-.135-.153-.153-.133-.181-.126M284.1 716.116l.144.057.162.05.164.027h.17l.175-.02.162-.038.153-.056.124-.078M280.826 714.012l.02.094.039.096.057.086.084.078.097.066" style="fill:none;stroke:red;stroke-width:.999997;stroke-linecap:round;stroke-linejoin:round;stroke-miterlimit:4;stroke-dasharray:none;stroke-opacity:1;visibility:visible"/><path d="m240.906 760.44.019.145.05.143.075.144.096.133.124.133.133.115.144.097.154.075 13.874 5.61" style="fill:none;stroke:red;stroke-width:1.99999;stroke-linecap:round;stroke-linejoin:round;stroke-miterlimit:4;stroke-dasharray:none;stroke-opacity:1;visibility:visible"/><path d="m368.482 676.51.2-.175.181-.169.144-.194.115-.187.077-.213.048-.203.019-.209-.01-.21-.048-.209-.086-.213-.115-.202-.144-.19-.163-.182-.2-.172-.23-.164-.25-.14M361.668 681.58l6.812-5.07M255.413 760.62l77.56-57.701M251.211 762.105l-.018-.183-.058-.19-.077-.192-.096-.19-.133-.193-.144-.18-.172-.164-.183-.153-.189-.126-.202-.104-.192-.085-.201-.047-.192-.03-.17.009-.166.027-.141.068-.124.085-.098.117-.065.134-.04.152-.009.173.019.181.049.183.085.2.097.193.134.19.144.173.17.173.183.144.19.132.194.106.2.08.2.054.183.019h.181l.163-.039.144-.058.113-.086.096-.114.068-.134.048-.153.01-.172M241.49 755.014l-.145-.046-.145-.02-.133.01-.114.038-.096.068-.067.084-.039.106-.009.126M241.489 755.014l13.921 5.607M256.206 761.617l-.02-.144-.047-.144-.068-.141-.104-.148-.116-.131-.134-.113-.152-.096-.155-.08M256.186 767.025l.068-.068.048-.077.028-.095.01-.107M255.575 767.036l.125.044.125.02h.113l.105-.01" style="fill:none;stroke:red;stroke-width:.999997;stroke-linecap:round;stroke-linejoin:round;stroke-miterlimit:4;stroke-dasharray:none;stroke-opacity:1;visibility:visible"/><path d="m327.442 691.292-4.203 3.094M277.755 750.9l-18.028 13.472M299.047 734.996l-17.797 13.302M319.918 719.397l-17.57 13.13M332.829 709.758l-9.792 7.314" style="fill:none;stroke:red;stroke-width:1.99999;stroke-linecap:round;stroke-linejoin:round;stroke-miterlimit:4;stroke-dasharray:none;stroke-opacity:1;visibility:visible"/><path d="m333.343 686.945-5.902 4.347" style="fill:none;stroke:red;stroke-width:.999997;stroke-linecap:round;stroke-linejoin:round;stroke-miterlimit:4;stroke-dasharray:none;stroke-opacity:1;visibility:visible"/><path d="m306.791 706.49-4.481 3.3" style="fill:none;stroke:red;stroke-width:1.99999;stroke-linecap:round;stroke-linejoin:round;stroke-miterlimit:4;stroke-dasharray:none;stroke-opacity:1;visibility:visible"/><path d="m320.08 696.708-13.288 9.782" style="fill:none;stroke:red;stroke-width:.999997;stroke-linecap:round;stroke-linejoin:round;stroke-miterlimit:4;stroke-dasharray:none;stroke-opacity:1;visibility:visible"/><path d="m284.977 722.564-4.007 2.949" style="fill:none;stroke:red;stroke-width:1.99999;stroke-linecap:round;stroke-linejoin:round;stroke-miterlimit:4;stroke-dasharray:none;stroke-opacity:1;visibility:visible"/><path d="m298.97 712.26-13.995 10.305" style="fill:none;stroke:red;stroke-width:.999997;stroke-linecap:round;stroke-linejoin:round;stroke-miterlimit:4;stroke-dasharray:none;stroke-opacity:1;visibility:visible"/><path d="m263.237 738.58-4.037 2.972" style="fill:none;stroke:red;stroke-width:1.99999;stroke-linecap:round;stroke-linejoin:round;stroke-miterlimit:4;stroke-dasharray:none;stroke-opacity:1;visibility:visible"/><path d="m326.597 684.96.143.057.154.047.163.018h.172l.171-.008.154-.036.144-.058.124-.08M323.64 683.342l2.954 1.618M327.754 691.054l.066-6.153M326.98 762.757l.525-49.024M326.262 829.594l.478-44.418M327.822 684.9l5.668-4.156M478.219 898.389l-.02.104-.009.097M466.065 908.102l.392-4.448.03-.145.028-.144.048-.163.057-.153.06-.144.056-.135.058-.113" style="fill:none;stroke:red;stroke-width:.999997;stroke-linecap:round;stroke-linejoin:round;stroke-miterlimit:4;stroke-dasharray:none;stroke-opacity:1;visibility:visible"/><path d="m466.065 908.1-.009.096.01.078.019.046.018.02M348.816 858.926l.26.067.255.057.281.03.265.01.279-.021.26-.027.265-.059.249-.076.23-.096.22-.114.192-.127.182-.143.145-.16.123-.164.096-.182.066-.183.04-.19.007-.19-.017-.192-.058-.18-.086-.184-.115-.181-.133-.164-.163-.154-.193-.141-.21-.125-.22-.107-.248-.095M350.787 855.834l-11.79-3.817M339 852.017l-.26-.068-.258-.056-.268-.03-.276-.008-.27.019-.268.028-.257.059-.25.074-.23.096-.219.104-.201.136-.173.143-.154.155-.122.171-.098.17-.065.184-.048.192v.19l.019.183.048.189.085.184.105.171.144.172.163.155.181.135.212.122.22.115.25.085M337.007 855.087l11.808 3.839M475.732 890.945l.288.104.277.125.267.144.239.152.221.17.2.195.172.192.154.208.114.222.096.218.057.222.038.23v.23l-.028.22-.067.218-.085.215-.116.207-.142.193-.174.179-.203.174M326.32 856.907l140.474 45.75 10.246-7.891M299.42 848.142l2.643.861M279.029 841.5l3.377 1.1M255.469 744.298l-14.574 10.735M277.44 728.116l-14.204 10.464" style="fill:none;stroke:red;stroke-width:.999997;stroke-linecap:round;stroke-linejoin:round;stroke-miterlimit:4;stroke-dasharray:none;stroke-opacity:1;visibility:visible"/><path d="m323.333 682.921.01.095.038.096.066.088.086.076.106.066" style="fill:none;stroke:red;stroke-width:1.99999;stroke-linecap:round;stroke-linejoin:round;stroke-miterlimit:4;stroke-dasharray:none;stroke-opacity:1;visibility:visible"/><path d="m355.303 820.15.048-.104.019-.115M349.772 825.29l-.096-.028-.085-.03M472.208 902.063l.096.068.097.086.075.096.079.097.085.132.057.155.058.152.03.133.017.141.011.147v.143l-.021.2-.027.202-.048.202-.057.209-.059.192-.076.18-.077.192-.095.192-.096.19-.125.212-.132.209-.135.202-.153.19-.144.185-.153.17-.152.162-.164.155-.163.145-.172.132-.172.115-.181.105-.191.104-.204.079-.199.056-.2.029-.134.008-.124-.008-.135-.01-.124-.025-.135-.051-.124-.056-.114-.069M472.208 902.063l-.935-.64M468.727 907.211l-.938-.64M477.653 897.853l.097.067.097.086.085.087.068.105.085.132.066.145.048.152.03.144.018.135.01.143v.145l-.02.2-.026.2-.039.201-.057.21-.068.185-.067.19-.085.19-.086.195-.098.178-.123.222-.135.2-.133.201-.153.202-.144.182-.154.17-.153.163-.161.154-.163.143-.172.134-.173.115-.172.106-.192.095-.2.085-.203.058-.199.03-.134.01h-.124l-.136-.02-.124-.027-.134-.051-.124-.054-.115-.071M477.653 897.853l-.937-.633M474.19 902.991l-.936-.631M339.65 1004.558l.104.086.096.096.086.115.076.107.088.16.056.165.048.172.028.161.01.154v.162l-.01.164-.018.22-.048.218-.058.22-.077.221-.076.201-.085.19-.096.203-.107.191-.113.192-.144.219-.154.21-.162.212-.164.201-.17.18-.173.172-.183.164-.17.154-.192.142-.192.125-.2.115-.192.096-.22.077-.22.067-.222.037-.22.01h-.133l-.133-.017-.135-.03-.152-.06-.163-.074-.143-.096M339.65 1004.558l-.94-.706M335.716 1009.86l-.936-.709M333.525 1009.294l.105.086.095.106.085.104.077.116.087.153.059.171.046.173.031.153.008.164v.162l-.01.162-.028.219-.038.22-.068.221-.067.219-.076.203-.096.19-.095.202-.106.192-.115.2-.144.213-.152.217-.162.212-.174.192-.162.18-.173.182-.18.164-.184.142-.19.144-.192.126-.2.113-.192.097-.22.086-.22.057-.22.037-.23.01h-.122l-.137-.018-.132-.04-.164-.057-.152-.075-.144-.097M333.524 1009.294l-.937-.708M329.573 1014.595l-.947-.71" style="fill:none;stroke:red;stroke-width:.999997;stroke-linecap:round;stroke-linejoin:round;stroke-miterlimit:4;stroke-dasharray:none;stroke-opacity:1;visibility:visible"/><path d="m277.44 728.116-.087-6.412M278.443 800.134l-.688-49.234M279.391 867.174l-.631-44.545M272.962 719.312l.01-.008.006-.01h.012v-.01h.01l.008-.008.01-.011h.01l.011-.008h.009l.008-.01h.011l.008-.012h.011l.01-.007.008-.01h.021l.009-.012h.01l.008-.009h.018l.011-.008h.019l.01-.01h.02l.01-.011h.017l.011-.009h.046l.011-.009h.048l.009-.008h.201l.011.008h.047l.009.008h.048l.01.012h.019l.009.009h.021l.01.009h.018l.009.009h.019l.01.01h.008l.011.01h.019l.009.011.01.008h.01l.008.01h.01l.011.011M276.894 720.938l.01.012h.008l.01.009h.01l.011.006.009.012h.008l.01.008.01.01.01.012h.01l.008.007.011.011.011.01h.007v.006l.01.015h.01l.009.008v.008h.01l.008.008v.011h.01l.01.012v.007h.011l.009.011v.01l.009.006h.011v.013l.006.009v.009h.012l.01.011v.008l.009.009.011.01v.01l.006.009.012.01.01.011v.009l.008.008v.011l.01.008v.011l.01.007v.01l.009.012v.01l.011.01v.008l.008.01v.008l.01.012v.02l.01.008v.018h.009v.019l.009.01v.028l.01.01v.039l.012.008v.032l.007.008v.105l.011.01v.01M259.2 741.55l-.266-11.512M260.875 813.663l-1.148-49.291M262.435 880.765l-1.033-44.576M272.962 719.312l-13.665 9.981M276.894 720.938l-2.976-1.682M258.933 730.04v-.116l.009-.01v-.056l.01-.008v-.041h.008v-.036l.01-.012v-.017h.01v-.03l.01-.009v-.008l.01-.013v-.018l.008-.008v-.01l.01-.011v-.01l.01-.007v-.008l.011-.012v-.011l.009-.008v-.01h.008v-.019l.01-.007.01-.012v-.01l.008-.011.011-.007v-.008l.01-.013.009-.008.01-.011.008-.01v-.009l.01-.009.01-.01.011-.008.009-.011v-.008h.009l.011-.011v-.008h.008l.01-.01.01-.011.01-.01.008-.006h.01v-.012l.011-.01h.009v-.01h.008l.01-.008.01-.011" style="fill:none;stroke:red;stroke-width:1.99999;stroke-linecap:round;stroke-linejoin:round;stroke-miterlimit:4;stroke-dasharray:none;stroke-opacity:1;visibility:visible"/><path d="m257.853 838.907.077-.027.076-.04" style="fill:none;stroke:red;stroke-width:.999997;stroke-linecap:round;stroke-linejoin:round;stroke-miterlimit:4;stroke-dasharray:none;stroke-opacity:1;visibility:visible"/><path d="M212.12 834.515v-.152l.01-.01v-.038l.01-.012v-.026l.009-.01v-.021l.01-.008v-.028l.009-.01v-.012l.009-.009v-.017h.01v-.02l.011-.01v-.01l.008-.009v-.01l.01-.01v-.009l.009-.006v-.015h.011v-.008l.008-.009.011-.01v-.01l.009-.008.011-.01v-.009h.007v-.011l.011-.01.01-.008v-.01h.009l.008-.01v-.01h.01v-.008l.011-.009.009-.01h.01v-.01l.01-.011h.01v-.009h.008v-.009h.011l.007-.01v-.01h.011l.01-.008.01-.01h.01l.007-.011.011-.009h.01M239 816.134l-26.524 17.683M366.252 744.92l-6-3.35M260.875 813.663l-3.597 2.767M281.853 797.511l-3.408 2.623M302.434 781.654l-3.225 2.488M322.626 766.114l-3.056 2.346M366.252 744.92l.22.135.2.133.191.152.183.164.162.172.144.172.124.182.114.19.098.2.076.205.047.189.039.19.018.203v.191M367.724 752.066l-.01.174-.027.18-.04.183-.059.171-.064.176-.088.16-.096.152-.104.156-.114.15-.126.138-.162.16-.182.144M261.402 836.187l-3.397 2.651M282.129 819.998l-3.369 2.63M302.473 804.123l-3.187 2.49M322.425 788.545l-3.006 2.345M366.652 754.009l-7.496 5.855M367.724 752.066l.143-4.668" style="fill:none;stroke:red;stroke-width:1.99999;stroke-linecap:round;stroke-linejoin:round;stroke-miterlimit:4;stroke-dasharray:none;stroke-opacity:1;visibility:visible"/><path d="m239.805 839.223-1.895 1.275" style="fill:none;stroke:red;stroke-width:.999997;stroke-linecap:round;stroke-linejoin:round;stroke-miterlimit:4;stroke-dasharray:none;stroke-opacity:1;visibility:visible"/><path d="m320.08 696.708.048-6.363M319.573 768.46l.345-49.063M319.103 835.337l.317-44.447M315.783 688.012v-.01h.01l.009-.009h.01l.008-.01h.01l.01-.009.01-.009.012-.01h.007l.009-.012h.02l.01-.009h.008l.011-.008.008-.01h.02l.01-.008h.011l.007-.01h.02l.01-.013h.02l.007-.008h.03l.01-.007h.026l.011-.01h.05l.009-.012h.239l.007.012h.04l.01.008h.038l.01.009h.02l.008.01h.021l.009.009h.01l.008.011h.019l.01.01h.01l.01.009h.018l.01.008h.01l.01.01h.007l.01.01M319.667 689.57l.01.01h.011l.009.011h.009l.01.009.01.008h.009l.008.01.01.012h.011v.007h.009l.01.01h.009v.011l.011.009h.009l.008.008v.011h.01l.01.011.01.008.01.01.006.006.011.012.011.013.009.007.011.01v.008h.009l.009.011v.008l.01.011h.008v.01l.011.011v.008h.01v.01l.009.008.01.012v.008l.009.009.011.01v.009l.008.011v.009l.01.011v.006l.01.011v.01l.008.008v.011l.01.01v.019h.01v.009l.01.009v.02l.012.01v.026l.007.011v.021l.009.009v.028l.01.01v.039l.011.007v.077l.009.012v.055M302.31 709.79l-.02-11.473M302.434 781.654l-.087-49.128M302.54 848.61l-.068-44.487M315.783 688.012l-13.13 9.596M319.667 689.57l-2.957-1.617M302.293 698.316v-.046l.009-.012v-.085l.01-.008v-.04l.008-.01v-.026l.01-.011v-.021l.01-.007v-.018l.01-.012V698l.009-.007v-.021h.011v-.018l.008-.01v-.01l.01-.01v-.008l.009-.012v-.007l.009-.01v-.011h.01v-.011l.011-.008v-.01l.009-.008v-.009h.008v-.01l.011-.01v-.01h.01v-.01l.009-.01.01-.009v-.009h.008l.01-.011v-.008h.01v-.01l.01-.008.011-.01.007-.01.01-.009.01-.01.01-.011.01-.009h.008v-.01l.01-.009.01-.008h.009v-.011h.011l.008-.01.01-.01h.01" style="fill:none;stroke:red;stroke-width:1.99999;stroke-linecap:round;stroke-linejoin:round;stroke-miterlimit:4;stroke-dasharray:none;stroke-opacity:1;visibility:visible"/><path d="m338.711 1003.852-.133-.078-.144-.048-.164-.019-.182.01-.2.036-.2.069-.221.085-.22.128-.23.143-.229.161M336.787 1004.339l-.239.19-.23.211-.22.23-.22.238-.21.26-.201.267-.193.276-.171.29-.153.276-.133.287-.115.278-.096.268-.076.268-.048.248-.03.24v.208l.02.204.038.18.067.156.084.132.117.104M332.586 1008.587l-.136-.076-.143-.05-.17-.016h-.183l-.2.038-.201.067-.22.096-.23.113-.23.143-.23.174M330.645 1009.076l-.24.192-.229.21-.231.229-.219.248-.21.257-.203.271-.18.268-.173.287-.153.277-.134.287-.124.277-.095.27-.067.265-.047.251-.03.236-.008.222.017.192.048.183.067.152.085.133.107.103" style="fill:none;stroke:red;stroke-width:.999997;stroke-linecap:round;stroke-linejoin:round;stroke-miterlimit:4;stroke-dasharray:none;stroke-opacity:1;visibility:visible"/><path d="m255.882 909.585 64.907 105.155M220.733 852.64l20.69 33.521" style="fill:none;stroke:red;stroke-width:1.99999;stroke-linecap:round;stroke-linejoin:round;stroke-miterlimit:4;stroke-dasharray:none;stroke-opacity:1;visibility:visible"/><path d="m258.714 873.433 3.684 5.837M237.91 840.498l2.048 3.243" style="fill:none;stroke:red;stroke-width:.999997;stroke-linecap:round;stroke-linejoin:round;stroke-miterlimit:4;stroke-dasharray:none;stroke-opacity:1;visibility:visible"/><path d="m327.746 1015.746 1.644-1.283M327.746 1015.746l-.221.153-.228.141-.24.135-.25.115-.247.106-.269.087-.268.076-.277.059-.277.044-.28.032-.285.018h-.289l-.285-.01-.288-.027-.277-.05-.278-.056-.277-.077-.27-.088-.256-.094-.251-.116-.237-.124-.231-.144-.219-.152-.211-.172-.191-.174-.164-.16-.142-.164-.135-.182-.113-.182M339.61 1004.53l.056-2.67M274.789 898.877l64.734 102.486" style="fill:none;stroke:red;stroke-width:1.99999;stroke-linecap:round;stroke-linejoin:round;stroke-miterlimit:4;stroke-dasharray:none;stroke-opacity:1;visibility:visible"/><path d="M220.733 852.64v-.012h-.01v-.018h-.009v-.008l-.01-.01v-.009l-.009-.011v-.019h-.011v-.019h-.008v-.02h-.01v-.03h-.01v-.016l-.008-.011v-.028l-.011-.009v-.03h-.01v-.048l-.009-.008v-.087l-.02-.326M339.524 1001.363l.011.01v.011l.01.007v.008h.008v.021h.011v.02h.009v.007l.009.012v.019h.01v.018h.009v.019l.011.01v.019l.009.012v.016h.011v.04h.006v.038h.012v.049l.01.008v.076l.007.01v.067M334.118 1010.816l1.416-1.098" style="fill:none;stroke:red;stroke-width:.999997;stroke-linecap:round;stroke-linejoin:round;stroke-miterlimit:4;stroke-dasharray:none;stroke-opacity:1;visibility:visible"/><path d="m242.36 902.657 2.754 1.768" style="fill:none;stroke:red;stroke-width:1.99999;stroke-linecap:round;stroke-linejoin:round;stroke-miterlimit:4;stroke-dasharray:none;stroke-opacity:1;visibility:visible"/><path d="M245.622 904.56h-.115l-.009-.01h-.076v-.008h-.039l-.009-.01h-.03l-.008-.009h-.029v-.009h-.027v-.01h-.02l-.01-.011h-.02v-.009h-.019v-.008h-.02v-.009h-.018v-.013h-.019v-.007h-.019v-.012h-.01v-.01h-.008" style="fill:none;stroke:red;stroke-width:.999997;stroke-linecap:round;stroke-linejoin:round;stroke-miterlimit:4;stroke-dasharray:none;stroke-opacity:1;visibility:visible"/><path d="m250.895 735.436.01-.011h.009l.01-.01.008-.006h.011l.01-.012h.009v-.01h.01l.008-.008.01-.011h.01l.008-.008h.011l.011-.01h.017l.011-.008h.008l.01-.012h.011l.009-.009h.019l.009-.01h.019l.01-.011h.017l.012-.007h.019l.009-.008h.048l.01-.01h.048l.009-.014h.21l.01.013h.048l.009.011h.03l.008.008h.02l.01.007h.03l.016.012h.011l.01.008h.02l.008.009h.01l.01.013h.018l.011.008h.01v.01h.008l.01.008h.01l.009.01h.009l2.987 1.732M254.857 737.11h.009l.01.011h.008l.01.01.01.006h.011l.009.013.011.009h.007l.01.008h.011v.009l.009.012h.008l.01.009v.008h.01l.01.01.01.01.008.011h.01v.008l.01.009h.01v.01l.008.012.01.007.011.011v.01h.009l.011.007v.011l.009.01.008.009.01.01v.01h.01v.008l.008.012v.006l.011.011.01.01v.01l.009.008v.01l.008.012.012.007v.011l.01.01v.006l.006.011v.012l.012.009v.01l.01.007v.02l.008.01v.009l.01.01v.021l.01.007v.03l.01.01v.028h.009v.039l.01.008v.059l.009.01v.066M236.953 745.626l13.942-10.19M255.469 744.298l-.163-6.44M257.278 816.431l-1.235-49.34M258.971 883.537l-1.12-44.631M236.59 746.384v-.154h.01v-.057l.008-.01v-.03l.011-.007v-.032l.007-.008v-.01l.011-.007v-.031l.01-.01v-.008l.007-.011v-.01l.013-.009v-.018l.008-.01v-.01l.01-.008v-.01l.01-.012.009-.01v-.006l.009-.009v-.01l.01-.012v-.01l.008-.008.012-.01v-.008l.01-.013h.01v-.01l.007-.006v-.01h.012v-.01l.008-.01v-.01h.01l.008-.01v-.01h.011v-.007l.009-.011h.011v-.01l.008-.01h.01v-.008l.01-.008h.01v-.012h.01l.007-.008v-.01h.011l.01-.012h.01v-.008l.01-.01h.007v-.009h.011M242.36 902.657h-.02v-.011h-.008l-.011-.01h-.011v-.008h-.008l-.01-.01-.008-.008h-.01v-.01l-.01-.01-.011-.011h-.007v-.008h-.012l-.01-.01v-.008h-.006v-.011h-.011l-.011-.01v-.012h-.009v-.007h-.009v-.01l-.01-.008-.009-.012v-.01h-.011l-.008-.009v-.011h-.01v-.017h-.01v-.011l-.01-.007-.008-.009v-.011l-.01-.01-.011-.008v-.01l-.009-.01v-.009l-.009-.01v-.009l-.009-.011v-.011l-.01-.009v-.017h-.009v-.021l-.011-.008v-.012l-.008-.008v-.025h-.01v-.03l-.01-.013v-.037l-.011-.01v-.04l-.009-.005v-.088l-5.386-155.603" style="fill:none;stroke:red;stroke-width:1.99999;stroke-linecap:round;stroke-linejoin:round;stroke-miterlimit:4;stroke-dasharray:none;stroke-opacity:1;visibility:visible"/><path d="m245.469 900.149.144 4.354" style="fill:none;stroke:red;stroke-width:.999997;stroke-linecap:round;stroke-linejoin:round;stroke-miterlimit:4;stroke-dasharray:none;stroke-opacity:1;visibility:visible"/><path d="m255.882 909.585-9.53-4.191M245.613 904.503l.02.115.046.125.067.132.096.127.105.124.126.104.133.085.144.079" style="fill:none;stroke:red;stroke-width:1.99999;stroke-linecap:round;stroke-linejoin:round;stroke-miterlimit:4;stroke-dasharray:none;stroke-opacity:1;visibility:visible"/><path d="m245.585 899.88-.067.07-.03.092-.018.107M259.095 905.547l-12.928-5.666" style="fill:none;stroke:red;stroke-width:.999997;stroke-linecap:round;stroke-linejoin:round;stroke-miterlimit:4;stroke-dasharray:none;stroke-opacity:1;visibility:visible"/><path d="m365.486 823.902-.01.183-.029.181-.039.184-.057.169-.068.174-.085.161-.088.164-.103.152-.115.145-.134.145-.143.145-.153.13M339.055 846.534l25.407-20.7M274.789 898.877l46.476-37.864M365.62 819.577l-.135 4.325" style="fill:none;stroke:red;stroke-width:1.99999;stroke-linecap:round;stroke-linejoin:round;stroke-miterlimit:4;stroke-dasharray:none;stroke-opacity:1;visibility:visible"/><path d="m245.585 899.88.221-.17" style="fill:none;stroke:red;stroke-width:.999997;stroke-linecap:round;stroke-linejoin:round;stroke-miterlimit:4;stroke-dasharray:none;stroke-opacity:1;visibility:visible"/><path d="m365.572 819.023.028.163.02.19v.201" style="fill:none;stroke:red;stroke-width:1.99999;stroke-linecap:round;stroke-linejoin:round;stroke-miterlimit:4;stroke-dasharray:none;stroke-opacity:1;visibility:visible"/><path d="m259.689 905.615-.086.056-.106.022h-.124l-.134-.023-.144-.055" style="fill:none;stroke:red;stroke-width:.999997;stroke-linecap:round;stroke-linejoin:round;stroke-miterlimit:4;stroke-dasharray:none;stroke-opacity:1;visibility:visible"/><path d="m357.304 807.634 1.362.792M358.666 808.426l5.574 3.24M319.103 835.337l2.947-2.362M299.43 851.107l3.11-2.497M279.391 867.174l3.283-2.64M258.971 883.537l3.464-2.774M364.242 811.665l.201.133.2.132.183.153.172.164.152.171.145.173.115.172.113.192.088.2.076.192.048.191.039.203.018.189v.191M365.791 814.12l-.135 4.368" style="fill:none;stroke:red;stroke-width:1.99999;stroke-linecap:round;stroke-linejoin:round;stroke-miterlimit:4;stroke-dasharray:none;stroke-opacity:1;visibility:visible"/><path d="m259.689 905.615 104.945-85.205" style="fill:none;stroke:red;stroke-width:.999997;stroke-linecap:round;stroke-linejoin:round;stroke-miterlimit:4;stroke-dasharray:none;stroke-opacity:1;visibility:visible"/><path d="M280.826 714.012v-.039l.01-.01v-.088l.009-.006v-.05h.011v-.039l.008-.009v-.017l.01-.011v-.029h.01v-.017l.011-.012v-.016h.007v-.023l.01-.009v-.01l.009-.008v-.011l.011-.008v-.007l.011-.012v-.012l.009-.008.008-.01v-.017h.01v-.011l.01-.008v-.011h.008v-.011l.011-.01.011-.006v-.012l.008-.01h.008v-.008l.012-.011.01-.008v-.012h.008l.01-.008v-.008h.01v-.011h.008l.01-.01v-.009h.01v-.009l.009-.01h.011v-.01h.008l.01-.009.01-.012.009-.007.011-.01h.008l.01-.009M294.586 703.504l-13.396 9.789M280.971 725.513l-.144-11.501M281.853 797.511l-.603-49.213M282.675 864.534l-.545-44.535M298.502 705.102h.01v.008h.008l.01.011h.01l.01.01.01.009.008.01h.01l.01.01h.009v.009h.011l.006.011.011.008.013.008.007.01h.01v.011h.01l.009.01.01.01.008.007.011.012v.008h.01l.009.01v.01h.01l.008.01v.008l.01.01.01.01.01.008v.012h.01v.008l.01.01.008.01v.01h.01v.008l.008.01v.009l.011.011v.007h.01v.011l.009.012v.006l.01.01v.02h.009v.012l.011.008v.016l.008.011v.012l.01.009v.02h.01v.017l.008.011v.03l.01.006v.03l.01.01v.038l.012.01v.056l.007.011v.076M294.586 703.504v-.008h.01l.011-.012h.009l.008-.008.011-.01h.01l.009-.009.01-.01h.008l.01-.012h.01l.008-.009h.01l.012-.009h.017l.011-.01h.009l.011-.008h.016l.012-.009h.01l.008-.011h.01l.01-.009h.026l.011-.01h.041l.008-.01h.038l.01-.008h.076l.01-.012h.087l.009.012h.085l.011.008h.036l.011.01h.028l.01.01h.02l.009.01h.018l.01.009h.02l.01.01h.02l.006.008h.011l.01.01h.008l.01.01h.011l.009.008h.01l.01.011M298.97 712.26l-.02-6.391M299.209 784.144l-.163-49.147M299.43 851.107l-.144-44.494M298.502 705.102l-2.976-1.656M365.658 818.487l-.019.183-.019.17-.048.182-.049.17-.075.176-.076.162-.097.16-.104.156-.115.144-.125.143-.144.144-.153.132" style="fill:none;stroke:red;stroke-width:1.99999;stroke-linecap:round;stroke-linejoin:round;stroke-miterlimit:4;stroke-dasharray:none;stroke-opacity:1;visibility:visible"/><path d="m256.043 767.092.078-.028.065-.04" style="fill:none;stroke:red;stroke-width:.999997;stroke-linecap:round;stroke-linejoin:round;stroke-miterlimit:4;stroke-dasharray:none;stroke-opacity:1;visibility:visible"/><path d="m368.404 673.39-5.689-3.037M259.2 741.55l-3.73 2.748M280.971 725.513l-3.53 2.603M302.31 709.79l-3.34 2.47M323.24 694.388l-3.159 2.321M368.404 673.39l.228.133.212.134.2.153.192.163.164.173.152.172.134.192.124.19.096.198.084.215.051.191.037.192.02.2v.19M369.944 680.892l-.009.182-.028.172-.039.18-.057.172-.067.166-.104.21-.126.19-.144.181-.15.175-.126.122-.134.115-.134.107M259.727 764.373l-3.541 2.652M281.249 748.298l-3.494 2.602M302.347 732.528l-3.301 2.469M323.037 717.072l-3.12 2.325M368.826 682.864l-7.27 5.43M369.944 680.892l.156-5.006" style="fill:none;stroke:red;stroke-width:1.99999;stroke-linecap:round;stroke-linejoin:round;stroke-miterlimit:4;stroke-dasharray:none;stroke-opacity:1;visibility:visible"/><path d="m469.721 901.834-.2.172-.211.19-.21.214-.201.227-.192.238-.19.248-.174.27-.16.261-.155.276-.135.267-.113.27-.107.266-.077.257-.065.25-.039.232-.019.221v.2l.02.18.047.163.067.134.078.113.105.088M279.106 847.233l3.368 1.1M257.88 840.294l3.647 1.196M476.716 897.22l-.115-.065-.141-.029-.145-.008-.172.017-.174.048-.179.075-.2.099-.204.122-.199.146M475.185 897.625l-.209.17-.204.192-.21.21-.201.233-.191.239-.19.248-.173.256-.162.267-.154.279-.132.268-.119.267-.103.268-.076.26-.068.237-.038.241-.019.221v.199l.019.183.048.163.066.132.081.116.101.086" style="fill:none;stroke:red;stroke-width:.999997;stroke-linecap:round;stroke-linejoin:round;stroke-miterlimit:4;stroke-dasharray:none;stroke-opacity:1;visibility:visible"/><path d="m471.273 901.423-.125-.057-.135-.039h-.153l-.163.018-.18.05-.183.066-.201.105-.2.124-.213.145" style="fill:none;stroke:red;stroke-width:.999997;stroke-linecap:round;stroke-linejoin:round;stroke-miterlimit:4;stroke-dasharray:none;stroke-opacity:1;visibility:visible"/><path d="m321.266 861.011 144.838 47.33" style="fill:none;stroke:red;stroke-width:1.99999;stroke-linecap:round;stroke-linejoin:round;stroke-miterlimit:4;stroke-dasharray:none;stroke-opacity:1;visibility:visible"/><path d="m299.373 833.71 3.146 1.025M278.827 827.08l3.407 1.1" style="fill:none;stroke:red;stroke-width:.999997;stroke-linecap:round;stroke-linejoin:round;stroke-miterlimit:4;stroke-dasharray:none;stroke-opacity:1;visibility:visible"/><path d="m466.88 908.215 1.55-1.204M466.88 908.215h-.01l-.01.01-.008.014h-.01l-.012.007h-.007l-.01.007-.01.01h-.009v.01h-.009l-.011.011h-.008l-.011.009h-.017v.009h-.012l-.009.011h-.021v.007h-.016l-.01.01h-.02l-.01.011h-.01l-.007.009h-.031v.01h-.037l-.01.01h-.049v.008h-.085l-.011.01h-.064l-.011-.009h-.085v-.009h-.051l-.005-.01h-.034l-.007-.01h-.028l-.01-.008M478.219 898.389l.404-4.326M339.055 846.534l136.877 44.197" style="fill:none;stroke:red;stroke-width:1.99999;stroke-linecap:round;stroke-linejoin:round;stroke-miterlimit:4;stroke-dasharray:none;stroke-opacity:1;visibility:visible"/><path d="m478.219 898.389-.029.193v.018M472.795 903.64l1.098-.85" style="fill:none;stroke:red;stroke-width:.999997;stroke-linecap:round;stroke-linejoin:round;stroke-miterlimit:4;stroke-dasharray:none;stroke-opacity:1;visibility:visible"/><path d="m323.24 694.388.093-11.468M322.626 766.114l.41-49.042M322.051 832.974l.374-44.43M333.338 675.178l-9.65 7.055M323.333 682.921v-.065l.01-.014v-.064l.01-.01v-.028l.009-.009v-.03l.01-.009v-.02l.008-.008v-.03h.01v-.02l.01-.008v-.012l.01-.006v-.022h.008v-.016l.01-.01v-.013l.011-.007v-.01h.009v-.01l.008-.008v-.01l.011-.012v-.008h.01v-.01l.009-.01v-.009h.01v-.01l.009-.01.011-.008v-.01h.008v-.011l.009-.009.01-.008v-.011h.01v-.01h.009l.01-.009v-.007h.009v-.01h.011l.008-.011v-.011h.01v-.008h.01l.01-.01.01-.008.008-.01.01-.01h.01v-.01h.011l.009-.01M475.932 890.733l.25.086.246.107.242.112.23.127.22.144.21.141.19.153.183.163.161.183.153.181.134.191.125.192.107.212.085.21.068.21.055.229.032.23.006.231-.006.229" style="fill:none;stroke:red;stroke-width:1.99999;stroke-linecap:round;stroke-linejoin:round;stroke-miterlimit:4;stroke-dasharray:none;stroke-opacity:1;visibility:visible"/><path d="M327.597 694.228h-.022l-.02-.01M329.15 695.704l-.01-.154-.034-.156-.061-.16-.085-.153-.102-.147-.095-.062M327.555 694.217l-.241-.052-.248-.024h-.25l-.252.024-.241.039M324.687 695.621v.043M324.626 699.224l.01.156.032.154.062.159.084.155.104.146M325 700.087l.154.137.168.124.19.114.194.096.22.072M325 700.088l.01-.03M326.077 696.757l-.083 3.683M327.825 696.848l-.083 3.682M329.066 699.306l.084-3.558M326.126 700.681l.228.052.23.03.239.011.24-.011.232-.017M327.47 700.713l-.115.021-.061.011M327.47 700.713l.03-.012h.032M324.709 695.51h.073l-.084.101M325.271 694.645l.01.019-.011.012M328.763 694.873l-.021-.023.021-.017M329.15 695.748v-.043" style="fill:none;stroke:red;stroke-width:.666665;stroke-linecap:round;stroke-linejoin:round;stroke-miterlimit:4;stroke-dasharray:none;stroke-opacity:1;visibility:visible"/><path d="m326.323 694.204-.23.073-.206.083-.198.105-.167.125-.135.147-.116.145-.073.156-.053.167-.01.179.035.166.048.166.095.154.114.146.158.136.177.128.197.104.211.081.237.065.24.03.24.02.25-.01.24-.033.24-.05.218-.072.21-.097.177-.113.156-.135.136-.134.093-.158.063-.166.04-.164-.01-.17-.03-.168-.072-.166-.093-.158-.138-.142-.156-.126-.188-.116-.206-.092-.22-.084M327.397 700.734l.136-.032M326.26 700.722l-.133-.04M326.323 694.204l-.153.042M327.555 694.217l.146.039M324.626 699.224l.063-3.56M328.493 700.274v-.02M329.055 699.421v-.104M328.763 694.873v-.04M325.271 694.676v-.03M324.698 695.612l.01-.103M326.093 700.681l-.053-.023-.114-.03M326.093 700.681h.032M327.533 700.702l.217-.06.2-.065.197-.093.179-.094.167-.114M328.607 700.191l-.114.064M328.607 700.192l.136-.144.115-.146.092-.158.063-.156.042-.168M329.066 699.306l-.01.011M329.066 699.306v-.04M325.01 700.056l-.093-.062M326.26 700.722l.232.042.218.022h.23l.23-.022.228-.03M324.698 695.612l-.01.01M325.157 694.738l-.137.135-.113.144-.094.159-.073.166-.031.168M325.271 694.676l-.114.062" style="fill:none;stroke:red;stroke-width:.666665;stroke-linecap:round;stroke-linejoin:round;stroke-miterlimit:4;stroke-dasharray:none;stroke-opacity:1;visibility:visible"/><path d="m326.167 694.248-.25.074-.239.082-.208.116-.2.125M328.763 694.832l-.145-.128-.168-.124-.187-.114-.21-.096-.217-.072-.115-.03-.021-.012" style="fill:none;stroke:red;stroke-width:.666665;stroke-linecap:round;stroke-linejoin:round;stroke-miterlimit:4;stroke-dasharray:none;stroke-opacity:1;visibility:visible"/><path d="m349.772 825.29 1.934-1.013M256.34 766.678l7.741-5.558M258.129 838.533l7.456-5.614M468.727 907.211l1.166-.229M321.571 1009.383l15.256.209M320.79 1014.74l9.892-.4M366.652 754.009l-7.55-.325M322.627 766.114l9.271 8.718" style="fill:none;stroke:red;stroke-width:.999997;stroke-linecap:round;stroke-linejoin:round;stroke-miterlimit:4;stroke-dasharray:none;stroke-opacity:1;visibility:visible"/><path d="m319.419 790.89 12.383-9.665" style="fill:none;stroke:red;stroke-width:1.99999;stroke-linecap:round;stroke-linejoin:round;stroke-miterlimit:4;stroke-dasharray:none;stroke-opacity:1;visibility:visible"/><path d="m322.627 766.114 9.457-7.285M237.91 840.498l1.732-5.783M298.97 712.26l7.808 16.956M299.209 784.144l7.53 16.642M258.714 873.433l-17.513 6.183M240.906 760.44l.65.92M243.26 832.267l.623.87M364.634 820.41l-7.598.301M357.036 820.711l-8.688 7.033M245.297 894.686l9.732 6.421M245.469 900.149l9.56.958M256.626 893.88l5.752-4.035M258.953 900.074l3.425-10.229M260.83 890.503l-4.204 3.377M260.829 890.503l-4.203 3.377M256.626 893.88l4.203-3.377M256.626 893.88l4.204-3.377M322.051 832.974l12.155-9.739M277.44 728.116l8.2 16.9M278.443 800.134l7.915 16.564M358.666 808.426l-2.951-1.721M255.41 760.62l6.403-12.706M254.857 737.11l6.956 10.804M368.826 682.864l-7.158-1.284M325.27 694.645l7.703 8.274M256.205 761.617l-4.994.488M256.34 766.678l-5.128-4.573" style="fill:none;stroke:red;stroke-width:.999997;stroke-linecap:round;stroke-linejoin:round;stroke-miterlimit:4;stroke-dasharray:none;stroke-opacity:1;visibility:visible"/><path d="m319.917 719.397 12.912-9.639" style="fill:none;stroke:red;stroke-width:1.99999;stroke-linecap:round;stroke-linejoin:round;stroke-miterlimit:4;stroke-dasharray:none;stroke-opacity:1;visibility:visible"/><path d="m327.822 684.9 5.521 2.045M327.742 700.53l-.237 13.203M319.573 768.46l7.167 16.716M323.688 682.233l9.802-1.489M302.519 834.735l-3.099 13.407M282.474 848.333l-3.445-6.833M279.106 847.233l3.3-4.633" style="fill:none;stroke:red;stroke-width:.999997;stroke-linecap:round;stroke-linejoin:round;stroke-miterlimit:4;stroke-dasharray:none;stroke-opacity:1;visibility:visible"/><path d="m243.23 827.254-4.23-11.12M366.308 748.077l-7.152 11.787" style="fill:none;stroke:red;stroke-width:1.99999;stroke-linecap:round;stroke-linejoin:round;stroke-miterlimit:4;stroke-dasharray:none;stroke-opacity:1;visibility:visible"/><path d="m235.594 837.442 4.211 1.781" style="fill:none;stroke:red;stroke-width:.999997;stroke-linecap:round;stroke-linejoin:round;stroke-miterlimit:4;stroke-dasharray:none;stroke-opacity:1;visibility:visible"/><path d="m259.458 892.99-18.035-6.829" style="fill:none;stroke:red;stroke-width:1.99999;stroke-linecap:round;stroke-linejoin:round;stroke-miterlimit:4;stroke-dasharray:none;stroke-opacity:1;visibility:visible"/><path d="m241.201 879.616 17.513-6.183M259.458 892.99l2.94-13.72M236.217 837.815l3.741 5.926" style="fill:none;stroke:red;stroke-width:.999997;stroke-linecap:round;stroke-linejoin:round;stroke-miterlimit:4;stroke-dasharray:none;stroke-opacity:1;visibility:visible"/><path d="m368.48 676.51-6.924 11.784" style="fill:none;stroke:red;stroke-width:1.99999;stroke-linecap:round;stroke-linejoin:round;stroke-miterlimit:4;stroke-dasharray:none;stroke-opacity:1;visibility:visible"/><path d="m282.406 842.6-3.3 4.633M279.029 841.5l3.445 6.833M257.402 838.85l.478 1.444M257.402 838.849l4.125 2.641M302.063 849.003l-2.69-15.293M299.42 848.142l3.099-13.407M282.406 842.6l-3.579-15.52M279.029 841.5l3.205-13.32" style="fill:none;stroke:red;stroke-width:.999997;stroke-linecap:round;stroke-linejoin:round;stroke-miterlimit:4;stroke-dasharray:none;stroke-opacity:1;visibility:visible"/><path d="m327.822 684.9 5.516-9.722" style="fill:none;stroke:red;stroke-width:1.99999;stroke-linecap:round;stroke-linejoin:round;stroke-miterlimit:4;stroke-dasharray:none;stroke-opacity:1;visibility:visible"/><path d="m324.687 695.664 1.39 1.093M329.15 695.748l-1.325 1.1" style="fill:none;stroke:red;stroke-width:.666665;stroke-linecap:round;stroke-linejoin:round;stroke-miterlimit:4;stroke-dasharray:none;stroke-opacity:1;visibility:visible"/><path d="m359.582 657.322-.019.106-.057.106M356.796 661.313l2.708-3.777M356.796 661.313l-.085.097-.115.076-.144.068-.154.048-.17.03h-.175l-.171-.014-.172-.036M355.611 661.582l-18.795-5.395M336.816 656.187l-.152-.06-.124-.067-.106-.087-.086-.093-.048-.108-.01-.103" style="fill:none;stroke:#00ff4a;stroke-width:.999997;stroke-linecap:round;stroke-linejoin:round;stroke-miterlimit:4;stroke-dasharray:none;stroke-opacity:1;visibility:visible" visibility="hidden"/><path d="m357.15 658.425-.02.181-.055.182-.077.172-.115.164-.143.162-.173.144-.2.132-.212.128-.239.094-.26.086-.266.075-.287.05-.287.026-.298.012-.286-.01-.297-.03-.277-.048-.278-.067-13.07-3.752M340.31 656.126l-.25-.085-.238-.097-.22-.115-.203-.122-.169-.135-.157-.152-.123-.155-.095-.163-.075-.169-.04-.173-.01-.172M336.247 818.931l15.588 4.959" style="fill:none;stroke:#00ff4a;stroke-width:.666665;stroke-linecap:round;stroke-linejoin:round;stroke-miterlimit:4;stroke-dasharray:none;stroke-opacity:1;visibility:visible" visibility="hidden"/><path d="m343.208 812.631-.248-.085-.24-.115-.238-.125-.22-.153-.212-.174-.19-.179-.185-.196-.141-.199-.135-.208-.104-.21-.077-.215-.039-.209-.019-.2.01-.202.038-.181.067-.171.096-.154.124-.133.145-.115.171-.097.192-.067.201-.048.22-.02h.24l.237.03.251.055.238.077.25.106.237.123.231.136.219.163.201.173.182.192.164.201.141.2.116.209.096.221.059.209.028.203.01.2-.031.193-.057.181-.076.153-.114.153-.136.125-.162.104-.172.078-.2.055-.221.04h-.22l-.24-.01-.247-.049-.24-.064M345.994 669.236l-.259-.066-.27-.028-.246-.01-.249.018-.23.048-.21.076-.192.107-.172.133-.144.143-.124.175-.088.192-.056.21-.028.217.01.231.027.242.067.236.097.24.124.23.153.227.172.223.202.21.21.181.239.174.248.15.249.135.27.096.256.076.27.05.256.028.25-.01.24-.039.22-.057.2-.094.182-.116.163-.135.124-.163.105-.18.076-.202.05-.21.008-.231-.019-.229-.048-.24-.085-.238-.106-.24-.134-.239-.17-.22-.185-.21-.209-.201-.22-.183-.25-.161-.248-.145-.258-.115-.268-.086M351.706 824.277l3.904-162.695" style="fill:none;stroke:#00ff4a;stroke-width:.999997;stroke-linecap:round;stroke-linejoin:round;stroke-miterlimit:4;stroke-dasharray:none;stroke-opacity:1;visibility:visible" visibility="hidden"/><path d="m348.156 671.41-.2.086-.193.054-.181.04-.182.02-.19-.009-.108-.02-.094-.017M347.007 671.564l-.133-.05-.124-.066-.127-.078-.103-.085-.088-.095-.085-.105-.067-.105-.058-.108-.048-.106-.03-.104-.026-.114-.022-.106v-.209l.012-.107.028-.096.028-.096.048-.084.058-.068.068-.068.085-.057.097-.039.115-.036.115-.018M347.362 653.841l-.21-.076-.182-.088-.163-.104-.144-.115-.107-.134-.074-.134-.039-.143-.01-.143.03-.145.065-.143.096-.136.126-.112.152-.108.173-.093.201-.077.22-.05.219-.036.24-.01.228.011.231.029.22.048.21.075.182.086.164.106.142.114.108.133.075.136.039.143.008.144-.03.141-.056.145-.094.125-.127.124-.15.106-.185.096-.2.064-.21.06-.23.037-.24.01-.229-.01-.23-.027-.219-.049M345.208 811.011l-.172.07-.172.037-.153.03h-.151l-.164-.012-.173-.038M344.223 811.098l-.095-.037-.086-.041-.096-.057-.076-.056-.144-.125-.116-.152-.084-.143-.068-.142-.048-.158-.029-.16-.008-.174.019-.162.019-.084.027-.077.032-.076.035-.068" style="fill:none;stroke:#00ff4a;stroke-width:.999997;stroke-linecap:round;stroke-linejoin:round;stroke-miterlimit:4;stroke-dasharray:none;stroke-opacity:1;visibility:visible" visibility="hidden"/><path d="m346.72 671.436.182-.066.2-.048.201-.037.21-.01h.212l.21.019.201.039" style="fill:none;stroke:#00ff4a;stroke-width:.999997;stroke-linecap:round;stroke-linejoin:round;stroke-miterlimit:4;stroke-dasharray:none;stroke-opacity:1;visibility:visible" visibility="hidden"/><path d="m353.447 656.693-.067 3.185" style="fill:none;stroke:#00ff4a;stroke-width:.666665;stroke-linecap:round;stroke-linejoin:round;stroke-miterlimit:4;stroke-dasharray:none;stroke-opacity:1;visibility:visible" visibility="hidden"/><path d="m339.111 651.807 14.796 4.349.267.038.278.02h.278l.277-.021.277-.037.248-.066.25-.09.22-.092.201-.125.172-.125.153-.153.114-.153.086-.163.05-.172.008-.172-.019-.173-.057-.17-.087-.166-.115-.149-.152-.154-.182-.136-.202-.114" style="fill:none;stroke:#00ff4a;stroke-width:.999997;stroke-linecap:round;stroke-linejoin:round;stroke-miterlimit:4;stroke-dasharray:none;stroke-opacity:1;visibility:visible" visibility="hidden"/><path d="m357.208 656.27-.057 2.154M338.768 652.175l-.038 2.413M336.367 655.448l2.401-3.274M359.046 656.796l-1.838-.526" style="fill:none;stroke:#00ff4a;stroke-width:1.99999;stroke-linecap:round;stroke-linejoin:round;stroke-miterlimit:4;stroke-dasharray:none;stroke-opacity:1;visibility:visible" visibility="hidden"/><path d="m359.046 656.796.152.06.134.064.106.086.077.105.048.105.019.108M336.29 655.67l.01-.08.026-.066.041-.076" style="fill:none;stroke:#00ff4a;stroke-width:.999997;stroke-linecap:round;stroke-linejoin:round;stroke-miterlimit:4;stroke-dasharray:none;stroke-opacity:1;visibility:visible" visibility="hidden"/><path d="m337.563 821.407-.23-.087-.219-.098-.2-.115-.184-.124-.163-.14-.133-.155-.115-.162-.095-.163-.067-.173-.039-.18-.008-.175M333.907 818.247l.01.106.047.104.068.106.095.087.124.068.134.057M334.386 818.774l1.733.547M353.074 823.587l2.23-3.436" style="fill:none;stroke:#00ff4a;stroke-width:1.99999;stroke-linecap:round;stroke-linejoin:round;stroke-miterlimit:4;stroke-dasharray:none;stroke-opacity:1;visibility:visible" visibility="hidden"/><path d="m353.064 823.76-.018.192-.048.182-.088.181-.114.182-.142.161-.164.153-.19.136-.21.123-.242.105-.248.087-.258.068" style="fill:none;stroke:#00ff4a;stroke-width:.999997;stroke-linecap:round;stroke-linejoin:round;stroke-miterlimit:4;stroke-dasharray:none;stroke-opacity:1;visibility:visible" visibility="hidden"/><path d="m337.563 821.407 12.028 3.826" style="fill:none;stroke:#00ff4a;stroke-width:1.99999;stroke-linecap:round;stroke-linejoin:round;stroke-miterlimit:4;stroke-dasharray:none;stroke-opacity:1;visibility:visible" visibility="hidden"/><path d="m351.208 825.347-.21.04-.22.017h-.22l-.22-.009-.22-.025-.21-.051" style="fill:none;stroke:#00ff4a;stroke-width:.999997;stroke-linecap:round;stroke-linejoin:round;stroke-miterlimit:4;stroke-dasharray:none;stroke-opacity:1;visibility:visible" visibility="hidden"/><path d="m336.108 819.835.01-.514M342.376 649.841l-.249-.054-.267-.05-.269-.021h-.267l-.268.021-.26.036-.256.06-.24.077-.22.085M355.974 653.783l-.164-.078-.169-.073-.186-.06-13.079-3.732M357.226 655.248l-.01-.192-.046-.183-.078-.181-.116-.172-.14-.172-.175-.154-.191-.142-.22-.125M339.802 650.127l-.23.125-.2.135-.172.153-.145.153-.124.17-.076.174-.059.18-.018.194" style="fill:none;stroke:#00ff4a;stroke-width:1.99999;stroke-linecap:round;stroke-linejoin:round;stroke-miterlimit:4;stroke-dasharray:none;stroke-opacity:1;visibility:visible" visibility="hidden"/><path d="m338.778 651.41-.01.766M353.064 823.76l.01-.174" style="fill:none;stroke:#00ff4a;stroke-width:.999997;stroke-linecap:round;stroke-linejoin:round;stroke-miterlimit:4;stroke-dasharray:none;stroke-opacity:1;visibility:visible" visibility="hidden"/><path d="m359.582 657.322-4.21 162.611M336.29 655.67l-2.383 162.576M357.226 655.248l-.019 1.024" style="fill:none;stroke:#00ff4a;stroke-width:1.99999;stroke-linecap:round;stroke-linejoin:round;stroke-miterlimit:4;stroke-dasharray:none;stroke-opacity:1;visibility:visible" visibility="hidden"/><path d="m351.208 825.347.135-.02M349.907 825.32l-.135-.03" style="fill:none;stroke:#00ff4a;stroke-width:.999997;stroke-linecap:round;stroke-linejoin:round;stroke-miterlimit:4;stroke-dasharray:none;stroke-opacity:1;visibility:visible" visibility="hidden"/><path d="m340.08 649.993-.279.134" style="fill:none;stroke:#00ff4a;stroke-width:1.99999;stroke-linecap:round;stroke-linejoin:round;stroke-miterlimit:4;stroke-dasharray:none;stroke-opacity:1;visibility:visible" visibility="hidden"/><path d="m355.974 653.783.276.142M336.247 818.931l6.961-6.3M336.119 819.321l7.089-6.689M342.376 649.84l4.986 4.001M342.376 649.841l4.986 4" style="fill:none;stroke:#00ff4a;stroke-width:.999997;stroke-linecap:round;stroke-linejoin:round;stroke-miterlimit:4;stroke-dasharray:none;stroke-opacity:1;visibility:visible" visibility="hidden"/><path d="m357.207 656.272-3.76.421M355.61 661.582l-2.23-1.704" style="fill:none;stroke:#00ff4a;stroke-width:.666665;stroke-linecap:round;stroke-linejoin:round;stroke-miterlimit:4;stroke-dasharray:none;stroke-opacity:1;visibility:visible" visibility="hidden"/><path d="m356.25 653.925 6.465 16.428" style="fill:none;stroke:red;stroke-width:1.99999;stroke-linecap:round;stroke-linejoin:round;stroke-miterlimit:4;stroke-dasharray:none;stroke-opacity:1;visibility:visible"/><path d="m355.303 820.15-11.798-10.764" style="fill:none;stroke:#00ff4a;stroke-width:.999997;stroke-linecap:round;stroke-linejoin:round;stroke-miterlimit:4;stroke-dasharray:none;stroke-opacity:1;visibility:visible" visibility="hidden"/></svg>