<svg xmlns="http://www.w3.org/2000/svg" baseProfile="full" height="793.701" preserveAspectRatio="xMinYMin meet" style="width:792px;height:931px" width="559.371" xml:space="preserve"><path d="M379.383 530.126c15.344 2.421 20.883-12.644 20.883-12.644l57.762-127.533M148.09 231.73l20.062 160.946c4.508 22.703 22.237 31.569 22.237 31.569.828.378 1.677.772 2.547 1.18M202.326 430.06c4.601 2.31 30.505 16.27 35.71 19.03M238.037 449.09c3.777 2.096 7.63 4.256 11.542 6.47M249.58 455.56c23.141 13.287 60.72 35.249 79.182 46.325" style="fill:none;stroke:red;stroke-width:1.99999;stroke-linecap:round;stroke-linejoin:round;stroke-miterlimit:4;stroke-dasharray:none;stroke-opacity:1;visibility:visible" visibility="hidden"/><path d="M338.19 507.555a4031.603 4031.603 0 0 1 26.366 16.021c5.727 3.924 10.644 5.887 14.828 6.55" style="fill:none;stroke:red;stroke-width:1.99999;stroke-linecap:round;stroke-linejoin:round;stroke-miterlimit:4;stroke-dasharray:none;stroke-opacity:1;visibility:visible" visibility="hidden"/><path d="m159.754 230.485 19.127 158.149c2.177 19.75 19.437 27.68 19.437 27.68l1.532.888M205.85 419.897c7.207 3.48 36.503 18.629 43.816 22.373M249.666 442.271c1.595.856 3.19 1.71 4.779 2.57M283.51 460.907c20.647 11.664 39.025 22.561 54.13 31.687M342.644 495.627c18.39 11.175 29.92 18.539 29.92 18.539 5.604 3.137 10.02 3.692 13.102 3.421" style="fill:none;stroke:red;stroke-width:1.66666;stroke-linecap:round;stroke-linejoin:round;stroke-miterlimit:4;stroke-dasharray:none;stroke-opacity:1;visibility:visible" visibility="hidden"/><path d="m447.632 384.386-59.724 131.05c-3.421 6.69-8.085 6.066-8.085 6.066" style="fill:none;stroke:red;stroke-width:1.66666;stroke-linecap:round;stroke-linejoin:round;stroke-miterlimit:4;stroke-dasharray:none;stroke-opacity:1;visibility:visible" visibility="hidden"/><path d="M160.056 230.15c-.338-3.383-1.318-5.955-6.731-5.514-5.067.416-5.848 3.354-5.51 6.734M448.224 381.845c-1.056 1.965.686 4.953 3.89 6.67 3.2 1.715 6.652 1.511 7.706-.457" style="fill:none;stroke:red;stroke-width:1.33333;stroke-linecap:round;stroke-linejoin:round;stroke-miterlimit:4;stroke-dasharray:none;stroke-opacity:1;visibility:visible" visibility="hidden"/><path d="M147.892 230.732c.128 1.293 2.928 2.072 6.252 1.74 3.325-.33 5.916-1.65 5.785-2.94M459.82 388.058l.596-1.292c1.056-1.965-.682-4.953-3.888-6.67-3.202-1.716-6.65-1.512-7.706.458l-.598 1.291M330.003 506.816l-1.508-14.749 7.62 4.717" style="fill:none;stroke:red;stroke-width:1.33333;stroke-linecap:round;stroke-linejoin:round;stroke-miterlimit:4;stroke-dasharray:none;stroke-opacity:1;visibility:visible" visibility="hidden"/><path d="M201.354 419.83c-.517.29-.839.692-.839 1.137.001.886 1.283 1.604 2.859 1.604 1.573 0 2.852-.718 2.852-1.604 0-.444-.319-.845-.836-1.136M267.497 462.155l10.252-2.854M253.73 454.342l10.75-3.21M247.58 445.915c4.774 4.299 5.492 8.525 5.492 8.525l14.174 7.891c10.367-.156 12.335 2.559 12.335 2.559" style="fill:none;stroke:red;stroke-width:.999997;stroke-linecap:round;stroke-linejoin:round;stroke-miterlimit:4;stroke-dasharray:none;stroke-opacity:1;visibility:visible" visibility="hidden"/><path d="M254.445 444.842c3.278 1.717 6.102 3.605 10.035 6.292l12.798 7.092c1.781 1.133 4.24 1.324 6.232 2.681" style="fill:none;stroke:red;stroke-width:1.66666;stroke-linecap:round;stroke-linejoin:round;stroke-miterlimit:4;stroke-dasharray:none;stroke-opacity:1;visibility:visible" visibility="hidden"/><path d="M268.518 456.802c.041-.887-1.367-1.679-3.145-1.762-1.779-.086-3.258.566-3.299 1.455-.043.89 1.365 1.679 3.144 1.765 1.78.084 3.257-.569 3.3-1.458" style="fill:none;stroke:red;stroke-width:.999997;stroke-linecap:round;stroke-linejoin:round;stroke-miterlimit:4;stroke-dasharray:none;stroke-opacity:1;visibility:visible" visibility="hidden"/><path d="m459.82 388.058-1.792 1.891M202.326 430.06l-9.39-4.635M192.936 425.425l9.39 4.635M338.19 507.555l-9.428-5.67M336.115 496.784l2.075 10.771" style="fill:none;stroke:red;stroke-width:1.99999;stroke-linecap:round;stroke-linejoin:round;stroke-miterlimit:4;stroke-dasharray:none;stroke-opacity:1;visibility:visible" visibility="hidden"/><path d="m205.39 419.831-5.54-2.629M342.644 495.627l-5.004-3.033M337.64 492.594l5.004 3.033M448.224 381.845l-.592 2.541M379.384 530.126l.439-8.624" style="fill:none;stroke:red;stroke-width:1.66666;stroke-linecap:round;stroke-linejoin:round;stroke-miterlimit:4;stroke-dasharray:none;stroke-opacity:1;visibility:visible" visibility="hidden"/><path d="m342.644 495.627-6.529 1.157" style="fill:none;stroke:red;stroke-width:1.33333;stroke-linecap:round;stroke-linejoin:round;stroke-miterlimit:4;stroke-dasharray:none;stroke-opacity:1;visibility:visible" visibility="hidden"/><path d="m264.48 451.132 3.017 11.023M267.497 462.155l-3.017-11.023" style="fill:none;stroke:red;stroke-width:.999997;stroke-linecap:round;stroke-linejoin:round;stroke-miterlimit:4;stroke-dasharray:none;stroke-opacity:1;visibility:visible" visibility="hidden"/><path d="M356.443 412.762c5.768 5.256 6.635 12.024 6.635 12.024l14.384 87.397c.13 1.028.252 2.117.37 3.267M378.866 530.528c.724 16.734.472 37.256-1.17 50.932l-7.545 89.16c-3.619 23.979-35.424 27.739-46.869 28.119-85.957 2.83-131.65-4.382-131.65-4.382-21.513-3.796-34.866-16.174-37.354-27.869l-8.338-84.656c-3.776-25.761-.455-52.932 1.12-60.806M147.06 521.026l6.052-25.744M153.112 495.282l15.01-63.882c1.89-8.467 5.275-14.074 8.67-17.757M187.82 406.791a452.452 452.452 0 0 1 11.466-1.584M207.409 404.258c17.016-1.836 33.381-2.683 48.541-2.89M330.593 405.32c6.23.584 11.91 1.395 14.806 2.115" style="fill:none;stroke:#00ff4a;stroke-width:1.99999;stroke-linecap:round;stroke-linejoin:round;stroke-miterlimit:4;stroke-dasharray:none;stroke-opacity:1;visibility:visible"/><path d="M272.262 598.49c0-4.704-5.665-8.517-12.655-8.517-6.989-.001-12.653 3.812-12.653 8.518 0 4.699 5.664 8.512 12.653 8.512 6.99 0 12.655-3.813 12.655-8.513" style="fill:none;stroke:#00ff4a;stroke-width:.999997;stroke-linecap:round;stroke-linejoin:round;stroke-miterlimit:4;stroke-dasharray:none;stroke-opacity:1;visibility:visible"/><path d="M247.909 597.135c1.851 3.157 6.425 5.39 11.777 5.39 5.167-.001 9.615-2.087 11.577-5.074" style="fill:none;stroke:#00ff4a;stroke-width:1.99999;stroke-linecap:round;stroke-linejoin:round;stroke-miterlimit:4;stroke-dasharray:none;stroke-opacity:1;visibility:visible"/><path d="M202.343 595.456c0-4.7-5.666-8.516-12.653-8.516-6.988 0-12.654 3.816-12.654 8.516 0 4.704 5.666 8.515 12.654 8.515 6.987-.001 12.653-3.811 12.653-8.515" style="fill:none;stroke:#00ff4a;stroke-width:.999997;stroke-linecap:round;stroke-linejoin:round;stroke-miterlimit:4;stroke-dasharray:none;stroke-opacity:1;visibility:visible"/><path d="M178.186 594.413c1.964 2.992 6.41 5.081 11.584 5.081 5.16-.002 9.6-2.087 11.569-5.066" style="fill:none;stroke:#00ff4a;stroke-width:1.99999;stroke-linecap:round;stroke-linejoin:round;stroke-miterlimit:4;stroke-dasharray:none;stroke-opacity:1;visibility:visible"/><path d="M342.296 599.187c0-4.702-5.664-8.513-12.653-8.513-6.988 0-12.652 3.812-12.652 8.513 0 4.703 5.664 8.513 12.652 8.513 6.99.001 12.653-3.809 12.653-8.513" style="fill:none;stroke:#00ff4a;stroke-width:.999997;stroke-linecap:round;stroke-linejoin:round;stroke-miterlimit:4;stroke-dasharray:none;stroke-opacity:1;visibility:visible"/><path d="M318.11 598.097c1.947 3.016 6.412 5.126 11.61 5.126 5.169 0 9.616-2.084 11.58-5.073" style="fill:none;stroke:#00ff4a;stroke-width:1.99999;stroke-linecap:round;stroke-linejoin:round;stroke-miterlimit:4;stroke-dasharray:none;stroke-opacity:1;visibility:visible"/><path d="M341.572 634.641c0-4.704-5.666-8.514-12.654-8.514-6.99 0-12.653 3.81-12.653 8.513 0 4.703 5.664 8.517 12.653 8.517 6.988 0 12.654-3.814 12.654-8.516" style="fill:none;stroke:#00ff4a;stroke-width:.999997;stroke-linecap:round;stroke-linejoin:round;stroke-miterlimit:4;stroke-dasharray:none;stroke-opacity:1;visibility:visible"/><path d="M317.047 632.976c1.727 3.324 6.423 5.704 11.95 5.704 5.163-.001 9.609-2.088 11.573-5.071" style="fill:none;stroke:#00ff4a;stroke-width:1.99999;stroke-linecap:round;stroke-linejoin:round;stroke-miterlimit:4;stroke-dasharray:none;stroke-opacity:1;visibility:visible"/><path d="M339.702 668.699c0-4.703-5.662-8.515-12.652-8.515-6.987 0-12.653 3.812-12.653 8.515 0 4.701 5.666 8.513 12.653 8.513 6.99 0 12.652-3.81 12.652-8.513" style="fill:none;stroke:#00ff4a;stroke-width:.999997;stroke-linecap:round;stroke-linejoin:round;stroke-miterlimit:4;stroke-dasharray:none;stroke-opacity:1;visibility:visible"/><path d="M315.353 667.341c1.85 3.159 6.425 5.391 11.774 5.391 5.287 0 9.816-2.18 11.71-5.276" style="fill:none;stroke:#00ff4a;stroke-width:1.99999;stroke-linecap:round;stroke-linejoin:round;stroke-miterlimit:4;stroke-dasharray:none;stroke-opacity:1;visibility:visible"/><path d="M273.254 633.944c0-4.701-5.667-8.512-12.656-8.512-6.988 0-12.653 3.81-12.653 8.512 0 4.704 5.665 8.512 12.653 8.512 6.99 0 12.656-3.808 12.656-8.512" style="fill:none;stroke:#00ff4a;stroke-width:.999997;stroke-linecap:round;stroke-linejoin:round;stroke-miterlimit:4;stroke-dasharray:none;stroke-opacity:1;visibility:visible"/><path d="M248.9 632.587c1.852 3.157 6.427 5.39 11.779 5.39 5.2 0 9.669-2.112 11.614-5.133" style="fill:none;stroke:#00ff4a;stroke-width:1.99999;stroke-linecap:round;stroke-linejoin:round;stroke-miterlimit:4;stroke-dasharray:none;stroke-opacity:1;visibility:visible"/><path d="M272.786 668.232c0-4.703-5.665-8.513-12.652-8.513-6.99 0-12.655 3.81-12.655 8.513.001 4.701 5.666 8.516 12.655 8.516 6.987 0 12.652-3.815 12.652-8.516" style="fill:none;stroke:#00ff4a;stroke-width:.999997;stroke-linecap:round;stroke-linejoin:round;stroke-miterlimit:4;stroke-dasharray:none;stroke-opacity:1;visibility:visible"/><path d="M248.434 666.875c1.85 3.16 6.426 5.393 11.776 5.393 5.341 0 9.91-2.228 11.767-5.375" style="fill:none;stroke:#00ff4a;stroke-width:1.99999;stroke-linecap:round;stroke-linejoin:round;stroke-miterlimit:4;stroke-dasharray:none;stroke-opacity:1;visibility:visible"/><path d="M204.91 630.679c0-4.703-5.665-8.515-12.653-8.515s-12.655 3.812-12.655 8.516c0 4.7 5.668 8.513 12.655 8.513 6.988 0 12.653-3.813 12.653-8.513v-.001" style="fill:none;stroke:#00ff4a;stroke-width:.999997;stroke-linecap:round;stroke-linejoin:round;stroke-miterlimit:4;stroke-dasharray:none;stroke-opacity:1;visibility:visible"/><path d="M180.557 629.321c1.852 3.16 6.427 5.391 11.777 5.391 5.106 0 9.503-2.032 11.503-4.962" style="fill:none;stroke:#00ff4a;stroke-width:1.99999;stroke-linecap:round;stroke-linejoin:round;stroke-miterlimit:4;stroke-dasharray:none;stroke-opacity:1;visibility:visible"/><path d="M204.91 631.567c0-4.702-5.665-8.514-12.653-8.514s-12.655 3.812-12.655 8.514M272.786 669.121c0-4.704-5.665-8.514-12.652-8.514-6.99 0-12.655 3.81-12.655 8.513M273.254 634.833c0-4.702-5.667-8.513-12.656-8.513-6.988 0-12.653 3.81-12.653 8.513M339.702 669.587c0-4.703-5.662-8.515-12.652-8.515-6.987 0-12.653 3.812-12.653 8.515M341.572 635.53c0-4.704-5.666-8.514-12.654-8.514-6.99-.001-12.653 3.809-12.653 8.514M342.296 600.075c0-4.702-5.664-8.513-12.653-8.513-6.988 0-12.652 3.812-12.652 8.513M202.343 596.345c0-4.7-5.666-8.517-12.653-8.517-6.988 0-12.654 3.816-12.654 8.517M272.262 599.379c0-4.704-5.665-8.517-12.655-8.517-6.989 0-12.653 3.813-12.653 8.517M207.838 664.501c0-4.704-5.665-8.517-12.654-8.517-6.988 0-12.654 3.813-12.654 8.517 0 4.702 5.666 8.514 12.654 8.514 6.989 0 12.654-3.812 12.654-8.515v.001" style="fill:none;stroke:#00ff4a;stroke-width:.999997;stroke-linecap:round;stroke-linejoin:round;stroke-miterlimit:4;stroke-dasharray:none;stroke-opacity:1;visibility:visible"/><path d="M207.838 665.39c0-4.706-5.665-8.519-12.654-8.519-6.988.001-12.654 3.814-12.654 8.518" style="fill:none;stroke:#00ff4a;stroke-width:.999997;stroke-linecap:round;stroke-linejoin:round;stroke-miterlimit:4;stroke-dasharray:none;stroke-opacity:1;visibility:visible"/><path d="M183.484 663.145c1.852 3.156 6.426 5.39 11.776 5.39 5.19 0 9.65-2.103 11.602-5.111" style="fill:none;stroke:#00ff4a;stroke-width:1.99999;stroke-linecap:round;stroke-linejoin:round;stroke-miterlimit:4;stroke-dasharray:none;stroke-opacity:1;visibility:visible"/><path d="M172.97 540.098c73.072-3.299 173.545 3.109 173.545 3.109" style="fill:none;stroke:#00ff4a;stroke-width:.999997;stroke-linecap:round;stroke-linejoin:round;stroke-miterlimit:4;stroke-dasharray:none;stroke-opacity:1;visibility:visible"/><path d="M271.826 401.38c24.928.362 45.527 2.31 58.768 3.94M345.4 407.435c5.173.915 9.205 3.655 11.041 5.328M255.951 401.369c5.052-.389 15.874.01 15.874.01M378.866 530.528l-1.034-15.078M377.832 515.45l1.034 15.078M207.409 404.258l-8.123.949M199.286 405.207l8.123-.949M207.409 404.258l-19.589 2.533" style="fill:none;stroke:#00ff4a;stroke-width:1.99999;stroke-linecap:round;stroke-linejoin:round;stroke-miterlimit:4;stroke-dasharray:none;stroke-opacity:1;visibility:visible"/></svg>