<svg xmlns="http://www.w3.org/2000/svg" baseProfile="full" height="793.701" preserveAspectRatio="xMinYMin meet" style="width:912px;height:1303px" width="559.371" xml:space="preserve"><path d="m372.731 647.495 2.55-1.36s8.916-5.059 7.589-20.722L362.231 509.95M355.823 472.511l-13.308-72.861s-1.352-7.316-8.965-10.707M281.365 693.527l2.243-.535 79.77-40.772M324.226 387.295l-55.8-1.257s-9.516 0-14.336 2.168l-21.564 8.793s-8.196 2.736-3.866 8.159l16.321 14.879s2.289 1.442 3.086 13.825l6.308 249.45s.538 14.923 15.472 12.905M241.56 400.16l-6.035 2.463M252.637 395.643l-6.712 2.737" style="fill:none;stroke:red;stroke-width:1.33333;stroke-linecap:round;stroke-linejoin:round;stroke-miterlimit:4;stroke-dasharray:none;stroke-opacity:1;visibility:visible" visibility="hidden"/><path d="m233.034 400.48 16.179 14.768s4.944 3.649 5.12 18.475l6.3 249.404s.429 8.282 8.282 6.872l11.962-2.824 91.138-46.51c6.02-5.174 4.479-14.232 4.479-14.232l-22.072-123.802M348.18 466.07l-11.892-65.14c-.697-3.121-2.608-4.895-4.497-5.9M323.934 393.645l-55.47-1.175c-5.348-.164-9.31.78-10.959 1.26" style="fill:none;stroke:red;stroke-width:1.33333;stroke-linecap:round;stroke-linejoin:round;stroke-miterlimit:4;stroke-dasharray:none;stroke-opacity:1;visibility:visible" visibility="hidden"/><path d="M228.269 404.48s-.766-2.585 1.176-3.88c1.941-1.296 3.59-.12 3.59-.12" style="fill:none;stroke:red;stroke-width:.999997;stroke-linecap:round;stroke-linejoin:round;stroke-miterlimit:4;stroke-dasharray:none;stroke-opacity:1;visibility:visible" visibility="hidden"/><path d="M244.005 411.469s-.812-.583-1.416-.542c-1.056.073-1.147.604-1.147.604s0 .375.75.167 1.626-.167 1.626-.167.165.063.187-.061v-.001M252.32 394.969a2.03 2.03 0 0 1-.448.24s-.354.124-.292-1.084c.063-1.208.5-1.396.5-1.396s.383-.066.665.16M241.023 399.567a2.007 2.007 0 0 1-.483.267s-.355.125-.293-1.083c.063-1.209.5-1.396.5-1.396s.343-.058.62.128M257.042 614.152s.325-.382.65-.248c.327.136.088 2.207-.324 2.521-.413.315-1.277-.08-1.021-1.192.131-.562.695-1.08.695-1.08v-.001M301.882 387.803s-.437.522 1.021.688c0 0 1.147-.021 1.458-.666M362.702 652.821l2.917 1.13 6.575-3.144.046-3.564-1.137-.306-6.483 3.223-.012 1.16s-.065.912-1.097 1.013M364.906 650.301l.716.295" style="fill:none;stroke:red;stroke-width:.666665;stroke-linecap:round;stroke-linejoin:round;stroke-miterlimit:4;stroke-dasharray:none;stroke-opacity:1;visibility:visible" visibility="hidden"/><path d="m365.7 653.505-.015-2.837 6.314-3.092M269.727 696.937l2.82 1.32 8.066-1.877.016-3.411-1.266-.613-7.802 1.821-.028 1.123s-.22 1.027-1.03.959M271.635 694.413l.862.479" style="fill:none;stroke:red;stroke-width:.666665;stroke-linecap:round;stroke-linejoin:round;stroke-miterlimit:4;stroke-dasharray:none;stroke-opacity:1;visibility:visible" visibility="hidden"/><path d="m272.563 697.621-.016-2.73 7.843-1.826" style="fill:none;stroke:red;stroke-width:.666665;stroke-linecap:round;stroke-linejoin:round;stroke-miterlimit:4;stroke-dasharray:none;stroke-opacity:1;visibility:visible" visibility="hidden"/><path d="m280.39 693.065.975.462M252.637 395.643l-17.112 6.98M241.56 400.16l4.365-1.78" style="fill:none;stroke:red;stroke-width:1.33333;stroke-linecap:round;stroke-linejoin:round;stroke-miterlimit:4;stroke-dasharray:none;stroke-opacity:1;visibility:visible" visibility="hidden"/><path d="m241.367 397.483 2.638 13.986M233.035 400.48l10.97 10.989M362.702 652.821l2.92-2.225M269.727 696.937l2.77-2.045M281.365 693.527l-.975-.462" style="fill:none;stroke:red;stroke-width:.666665;stroke-linecap:round;stroke-linejoin:round;stroke-miterlimit:4;stroke-dasharray:none;stroke-opacity:1;visibility:visible" visibility="hidden"/><path d="M221.789 382.58c3.173-5.404-3.239-8.526-3.239-8.526l-33.14-20.834s-5.646-2.935-8.606 1.75c-1.92 3.04-1.12 7.515-1.12 7.515l.91 10.418M178.613 396.107l16.25 186.639s.641 9.11-5.753 13.904l-92.872 45.718M182.556 606.948l-80.832 39.763" style="fill:none;stroke:#00ff4a;stroke-width:1.33333;stroke-linecap:round;stroke-linejoin:round;stroke-miterlimit:4;stroke-dasharray:none;stroke-opacity:1;visibility:visible"/><path d="m215.002 379.454-33.065-20.665s-.3 1.73-.075 3.006l1.05 12.095M184.889 396.626l16.138 185.797s1.398 12.45-8.64 19.625" style="fill:none;stroke:#00ff4a;stroke-width:1.33333;stroke-linecap:round;stroke-linejoin:round;stroke-miterlimit:4;stroke-dasharray:none;stroke-opacity:1;visibility:visible"/><path d="M96.918 652.595c-.497.915-2.028 3.19-4.63 2.342-3.23-1.052-3.156-4.282-2.704-11.272l16.456-243.831s-.167-14.333 17.5-14.833l62.61 4.044s5.79.369 8.192-1.108l21.99-8.931s.933-.105 1.921.547" style="fill:none;stroke:#00ff4a;stroke-width:1.33333;stroke-linecap:round;stroke-linejoin:round;stroke-miterlimit:4;stroke-dasharray:none;stroke-opacity:1;visibility:visible"/><path d="m220.105 380.086-22.315 9.077-.078 4.36" style="fill:none;stroke:#00ff4a;stroke-width:.999997;stroke-linecap:round;stroke-linejoin:round;stroke-miterlimit:4;stroke-dasharray:none;stroke-opacity:1;visibility:visible"/><path d="m221.196 384.159.13-3.696-1.22-.377M211.578 389.577l6.039-2.481M197.712 393.523l-.016.928 1.252.313 7.835-3.218" style="fill:none;stroke:#00ff4a;stroke-width:1.33333;stroke-linecap:round;stroke-linejoin:round;stroke-miterlimit:4;stroke-dasharray:none;stroke-opacity:1;visibility:visible"/><path d="M216.186 386.402c-.195.23-.421.352-.635.307-.426-.09-.638-.806-.47-1.6.165-.792.645-1.363 1.073-1.274a.527.527 0 0 1 .33.25M205.097 390.787c-.195.231-.422.353-.635.307-.427-.09-.639-.805-.47-1.6.164-.792.644-1.363 1.072-1.273.196.039.346.214.436.469M197.893 361.48s-1.27-.19-1.145.561c.124.751 2.437.231 2.437.231s.29-.086-.105-.294c-.395-.207-1.187-.498-1.187-.498M137.914 386.995s-.082.042-.082.188.52.75 1.332.771c.813.02 1.209-.48 1.209-.584 0-.104-.333-.292-.333-.292" style="fill:none;stroke:#00ff4a;stroke-width:.666665;stroke-linecap:round;stroke-linejoin:round;stroke-miterlimit:4;stroke-dasharray:none;stroke-opacity:1;visibility:visible"/><path d="m197.2 393.703-.792.294s-2.831 1.683-10.782 1.28l-62.598-4.044s-9.434-.203-10.715 8.894L95.805 643.985s-.27 5.323.135 6.402" style="fill:none;stroke:#00ff4a;stroke-width:1.33333;stroke-linecap:round;stroke-linejoin:round;stroke-miterlimit:4;stroke-dasharray:none;stroke-opacity:1;visibility:visible"/><path d="M98.434 576.292s.312-.354.626-.23c.312.127.082 2.043-.314 2.335-.394.291-1.225-.077-.978-1.105.125-.521.666-1 .666-1M182.517 607.297l2.855 1.104 6.437-3.076.044-3.489-1.113-.296-6.344 3.152-.014 1.135s-.065.892-1.072.993M184.672 604.83l.7.285" style="fill:none;stroke:#00ff4a;stroke-width:.666665;stroke-linecap:round;stroke-linejoin:round;stroke-miterlimit:4;stroke-dasharray:none;stroke-opacity:1;visibility:visible"/><path d="m185.45 607.965-.013-2.775 6.18-3.029M95.906 653.675l2.776.49 2.668-4.492.068-3.066-1.068-.132-2.754 4.333-.023 1.044c-.088.799-.667 1.021-.667 1.021M98.617 651.008l-.901-.124" style="fill:none;stroke:#00ff4a;stroke-width:.666665;stroke-linecap:round;stroke-linejoin:round;stroke-miterlimit:4;stroke-dasharray:none;stroke-opacity:1;visibility:visible"/><path d="m101.306 646.787-2.545 4.208-.077 3.102" style="fill:none;stroke:#00ff4a;stroke-width:.666665;stroke-linecap:round;stroke-linejoin:round;stroke-miterlimit:4;stroke-dasharray:none;stroke-opacity:1;visibility:visible"/><path d="m206.783 391.546 4.795-1.969M211.578 389.577l-4.795 1.969" style="fill:none;stroke:#00ff4a;stroke-width:1.33333;stroke-linecap:round;stroke-linejoin:round;stroke-miterlimit:4;stroke-dasharray:none;stroke-opacity:1;visibility:visible"/><path d="m182.517 607.297 2.855-2.182M98.617 651.008l-2.711 2.667M95.906 653.675l2.711-2.667" style="fill:none;stroke:#00ff4a;stroke-width:.666665;stroke-linecap:round;stroke-linejoin:round;stroke-miterlimit:4;stroke-dasharray:none;stroke-opacity:1;visibility:visible"/><path d="m206.783 391.546 10.834-4.45" style="fill:none;stroke:#00ff4a;stroke-width:1.33333;stroke-linecap:round;stroke-linejoin:round;stroke-miterlimit:4;stroke-dasharray:none;stroke-opacity:1;visibility:visible"/></svg>