<svg xmlns="http://www.w3.org/2000/svg" baseProfile="full" height="793.701" preserveAspectRatio="xMinYMin meet" style="width:912px;height:1303px" width="559.371" xml:space="preserve"><path d="M196.433 290.833s-1.27-.188-1.145.563c.124.749 2.437.229 2.437.229s.29-.085-.105-.292c-.395-.208-1.187-.5-1.187-.5M136.676 315.352s-.083.04-.083.188c0 .145.52.749 1.332.77.813.02 1.21-.48 1.21-.584-.001-.104-.335-.292-.335-.292" style="fill:none;stroke:red;stroke-width:.666665;stroke-linecap:round;stroke-linejoin:round;stroke-miterlimit:4;stroke-dasharray:none;stroke-opacity:1;visibility:visible"/><path d="M221.334 309.902s1.1-3.837-4.083-6.632l-33.426-20.786s-6.285-3.627-9.075 3.436c-.4 1.378-.605 2.896-.474 5.26l2.232 25.506M177.205 324.666l16.359 186.932s.644 7.238-4.42 13.28M180.456 529.493 94.97 571.63" style="fill:none;stroke:red;stroke-width:1.33333;stroke-linecap:round;stroke-linejoin:round;stroke-miterlimit:4;stroke-dasharray:none;stroke-opacity:1;visibility:visible"/><path d="M180.708 288.178s-.302 1.127-.076 2.63L183 318.027M213.9 308.59s-33.044-20.562-33.569-20.75M178.196 537.552l-78.274 38.687M188.917 532.253l-2.047 1.013M183.565 324.568l16.305 187.119s.324 7.227-3.208 13.432" style="fill:none;stroke:red;stroke-width:1.33333;stroke-linecap:round;stroke-linejoin:round;stroke-miterlimit:4;stroke-dasharray:none;stroke-opacity:1;visibility:visible"/><path d="m215.437 308.004-.375.229-22.141 9.07c-3.216 1.348-8.147.885-8.147.885l-62.642-4.051c-16.658.385-17.3 14.599-17.3 14.599L88.258 572.548s-.193 2.199-.14 4.727c.084 3.915.68 7.027 3.888 7.104 1.374.035 2.351-.769 2.984-1.57M351.826 552.664c-.33 4.879-1.88 12.122-7.868 15.588l-2.983 1.526M332.466 574.128l-77.843 39.792s-3.076 1.464-4.696 1.787" style="fill:none;stroke:red;stroke-width:1.33333;stroke-linecap:round;stroke-linejoin:round;stroke-miterlimit:4;stroke-dasharray:none;stroke-opacity:1;visibility:visible"/><path d="m239.462 618.048-.17.037s-2.406.806-5.501.292c-4.29-.712-9.745-3.752-10.486-13.167l-6.315-249.213s-.18-9.414-2.812-13.74l-16.72-15.337s-1.722-1.8-.616-4.391c.516-1.209 1.703-2.07 2.67-2.603M196.333 322.758l-1.177.408s-3.804 1.767-10.78 1.314l-62.682-4.031s-9.377-.407-10.554 8.65L99.36 502.151M98.757 510.992l-4.232 62.17s-.235 5.137.141 6.455M341.283 488.906l8.905 49.861M221.3 310.93l1.672-.686s4.926-2.171 14.488-2.046l58.831 1.222s12.834.5 15.167 12.5l25.497 142.763" style="fill:none;stroke:red;stroke-width:1.33333;stroke-linecap:round;stroke-linejoin:round;stroke-miterlimit:4;stroke-dasharray:none;stroke-opacity:1;visibility:visible"/><path d="M201.889 322.476s-2.23-1.4-3.993.57c-1.763 1.97-.44 3.874-.44 3.874M199.512 319.926c.8-.441 1.45-.656 1.45-.656l20.338-8.34" style="fill:none;stroke:red;stroke-width:.999997;stroke-linecap:round;stroke-linejoin:round;stroke-miterlimit:4;stroke-dasharray:none;stroke-opacity:1;visibility:visible"/><path d="M345.61 550.679c-.034 3.127-.66 8.97-4.57 11.99l-91.166 46.501-11.916 2.833s-7.25 2.084-8.5-6.75l-1.624-64.802M227.693 534.766l-4.486-179.096s.084-13.75-5.249-18.5l-16.07-14.694M335.827 494.181l8.16 45.7" style="fill:none;stroke:red;stroke-width:1.33333;stroke-linecap:round;stroke-linejoin:round;stroke-miterlimit:4;stroke-dasharray:none;stroke-opacity:1;visibility:visible"/><path d="m204.389 324.686 21.066-8.638s4.468-1.598 11.9-1.528l58.603 1.234s7.25-.166 9.332 7.416l26.517 148.501" style="fill:none;stroke:red;stroke-width:1.33333;stroke-linecap:round;stroke-linejoin:round;stroke-miterlimit:4;stroke-dasharray:none;stroke-opacity:1;visibility:visible"/><path d="m196.396 323.607.125-5.23 22.334-9.103 2.645.708-.021.874M196.625 318.398l2.75.688" style="fill:none;stroke:red;stroke-width:.999997;stroke-linecap:round;stroke-linejoin:round;stroke-miterlimit:4;stroke-dasharray:none;stroke-opacity:1;visibility:visible"/><path d="M270.625 310.192s-.438.52 1.021.688c0 0 1.145-.022 1.457-.667M225.998 538.428c-.412.315-1.277-.081-1.02-1.193.13-.561.695-1.08.695-1.08s.325-.383.65-.248M212.586 333.713s-.812-.583-1.416-.543c-1.056.073-1.147.605-1.147.605s0 .375.751.167c.75-.208 1.624-.167 1.624-.167s.167.063.188-.062" style="fill:none;stroke:red;stroke-width:.666665;stroke-linecap:round;stroke-linejoin:round;stroke-miterlimit:4;stroke-dasharray:none;stroke-opacity:1;visibility:visible"/><path d="M221.595 314.262s.935.642.68 1.95c-.249 1.261-1.525 1.521-1.525 1.521l-.319-.089s-.663-.354-.158-2.102c.365-1.252 1.001-1.344 1.001-1.344l.321.064M210.233 318.8s.934.64.677 1.95c-.245 1.26-1.52 1.52-1.52 1.52l-.323-.09s-.66-.352-.156-2.1c.364-1.252 1-1.344 1-1.344l.322.064" style="fill:none;stroke:red;stroke-width:.666665;stroke-linecap:round;stroke-linejoin:round;stroke-miterlimit:2;stroke-dasharray:none;stroke-opacity:1;visibility:visible"/><path d="m331.098 574.958 2.917 1.129 6.575-3.144.046-3.564-1.136-.305-6.484 3.22-.011 1.163s-.067.911-1.097 1.013" style="fill:none;stroke:red;stroke-width:.666665;stroke-linecap:round;stroke-linejoin:round;stroke-miterlimit:4;stroke-dasharray:none;stroke-opacity:1;visibility:visible"/><path d="m334.096 575.64-.013-2.837 6.312-3.092M333.3 572.436l.717.295M177.102 538.55l2.855 1.104 6.437-3.076.044-3.49-1.113-.297-6.345 3.153-.012 1.136s-.066.891-1.074.992" style="fill:none;stroke:red;stroke-width:.666665;stroke-linecap:round;stroke-linejoin:round;stroke-miterlimit:4;stroke-dasharray:none;stroke-opacity:1;visibility:visible"/><path d="m180.036 539.217-.013-2.776 6.18-3.028M179.258 536.082l.701.287M238.466 618.943l2.821 1.32 8.064-1.879.016-3.41-1.265-.612-7.803 1.821-.028 1.121s-.218 1.028-1.029.961" style="fill:none;stroke:red;stroke-width:.666665;stroke-linecap:round;stroke-linejoin:round;stroke-miterlimit:4;stroke-dasharray:none;stroke-opacity:1;visibility:visible"/><path d="m241.301 619.628-.015-2.73 7.843-1.827M240.374 616.418l.86.479M93.978 583.735l2.776.49 2.668-4.49.068-3.068-1.068-.132-2.754 4.333-.023 1.044c-.088.799-.667 1.022-.667 1.022" style="fill:none;stroke:red;stroke-width:.666665;stroke-linecap:round;stroke-linejoin:round;stroke-miterlimit:4;stroke-dasharray:none;stroke-opacity:1;visibility:visible"/><path d="m99.38 576.845-2.545 4.208-.078 3.103M96.69 581.068l-.901-.124" style="fill:none;stroke:red;stroke-width:.666665;stroke-linecap:round;stroke-linejoin:round;stroke-miterlimit:4;stroke-dasharray:none;stroke-opacity:1;visibility:visible"/><path d="m177.205 324.666-.697-7.98M176.508 316.686l.697 7.98M186.87 533.266l-6.414-3.773M183.565 324.568l-.565-6.541M183 318.027l.565 6.541M199.512 319.926l15.925-11.922M249.129 615.07l.798.637M98.757 510.992l.603-8.841M99.36 502.151l-.603 8.841M331.807 471.671l9.476 17.235M227.693 534.766l.141 5.685M227.834 540.451l-.141-5.685M196.333 322.758l8.056 1.928M341.283 488.906l-9.476-17.235" style="fill:none;stroke:red;stroke-width:1.33333;stroke-linecap:round;stroke-linejoin:round;stroke-miterlimit:4;stroke-dasharray:none;stroke-opacity:1;visibility:visible"/><path d="m210.233 318.8-13.608-.402" style="fill:none;stroke:red;stroke-width:.999997;stroke-linecap:round;stroke-linejoin:round;stroke-miterlimit:4;stroke-dasharray:none;stroke-opacity:1;visibility:visible"/><path d="m196.625 318.398 13.608.402" style="fill:none;stroke:red;stroke-width:.666665;stroke-linecap:round;stroke-linejoin:round;stroke-miterlimit:2;stroke-dasharray:none;stroke-opacity:1;visibility:visible"/><path d="m334.017 572.73-2.919 2.228M331.098 574.958l2.92-2.227M179.96 536.369l-2.858 2.181M177.102 538.55l2.857-2.181M241.234 616.897l-2.768 2.046M249.927 615.707l-.798-.636M238.466 618.943l2.768-2.046M96.69 581.068l-2.712 2.667M93.978 583.735l2.712-2.667" style="fill:none;stroke:red;stroke-width:.666665;stroke-linecap:round;stroke-linejoin:round;stroke-miterlimit:4;stroke-dasharray:none;stroke-opacity:1;visibility:visible"/><path d="m99.142 509.84 122.372 29.376" style="fill:none;stroke:#00ff4a;stroke-width:1.33333;stroke-linecap:round;stroke-linejoin:round;stroke-miterlimit:4;stroke-dasharray:none;stroke-opacity:1;visibility:visible" visibility="hidden"/><path d="M99.342 503.423s-.652.199-1.452.65l-2.106 1.506s-.402.301-.352.751c0 .001-.1 1.154.05 1.605.151.45 1.604 1.505 3.66 1.905" style="fill:none;stroke:#00ff4a;stroke-width:.999997;stroke-linecap:round;stroke-linejoin:round;stroke-miterlimit:4;stroke-dasharray:none;stroke-opacity:1;visibility:visible" visibility="hidden"/><path d="M221.247 532.6 99.342 503.423" style="fill:none;stroke:#00ff4a;stroke-width:1.33333;stroke-linecap:round;stroke-linejoin:round;stroke-miterlimit:4;stroke-dasharray:none;stroke-opacity:1;visibility:visible" visibility="hidden"/></svg>