<svg xmlns="http://www.w3.org/2000/svg" baseProfile="full" height="793.701" preserveAspectRatio="xMinYMin meet" style="width:912px;height:1303px" width="559.371" xml:space="preserve"><path d="m104.96 202.974 4.052 3.008c3.686 2.558 6.708.663 6.708.663l64.62-35.658c4.12-2.758 2.99-7.407 2.99-7.407l-13.48-43.533-.896-2.059-2.158-3.421c-3.554-4.65-7.107-1.428-7.107-1.428l-68.147 59.32" style="fill:none;stroke:red;stroke-width:.999997;stroke-linecap:round;stroke-linejoin:round;stroke-miterlimit:4;stroke-dasharray:none;stroke-opacity:1;visibility:visible"/><path d="m174.116 505.84-15.45.258M139 506.426l-4.386.073c-14.82-1.172-15.398-13.196-15.398-13.196L104.34 278.97M104.097 268.609c.361-.837 1.096-1.617 2.57-1.696 1.324-.072 2.103.57 2.554 1.27M110.892 275.134l.046.239 64.783 47.313M185.837 330.307c2.268 2.36 7.288 8.803 6.637 19.093l-13.52 189.82s-.001 1.269.254 1.694M194 499.851c-1.48-.117-2.525-.081-2.525-.081l-8.298.138M174.78 500.048l-18.196.306" style="fill:none;stroke:red;stroke-width:1.33333;stroke-linecap:round;stroke-linejoin:round;stroke-miterlimit:500;stroke-dasharray:none;stroke-opacity:1;visibility:visible"/><path d="m140.166 500.63-5.604.093c-8.848-.653-9.45-7.943-9.45-7.943l-14.864-210.548M261.889 513.27l-24.779.148s-6.665.224-10.888-2.334l-17.47-11.312s-1.931-.688-3.226 1.32M223.223 515.976c4.557 3.222 14 3.334 14 3.334l22.665-.14M280.334 519.046l11.556-.071c11.667-.888 13.777-10.112 13.777-10.112L328.46 378.27M333.652 348.511l6.126-35.091c1.506-11.962-4.17-18.255-5.935-19.895M324.717 286.516l-62.683-47.786c-1.152-.76-2.447-1.316-3.297-1.638M246.753 233.544c-3.75-.316-10.928.53-11.775 11.374l-1.803 57.166M232.902 310.756l-4.912 155.872s-.325 5.186-1.701 9.084M218.411 484.452l-13.32 11.99s-2.521 1.945-2.018 4.464M105.717 277.833c.737 1.636 1.855 2.3 1.855 2.3l62.462 45.625M181.42 334.075c6.135 6.032 5.38 14.428 5.38 14.428l-13.675 190.328s-.555 4.123 2.212 6.436c3.861 3.228 7.992-.05 7.992-.05l13.877-8.617M209.54 500.272l11.675-10.54" style="fill:none;stroke:red;stroke-width:1.33333;stroke-linecap:round;stroke-linejoin:round;stroke-miterlimit:500;stroke-dasharray:none;stroke-opacity:1;visibility:visible"/><path d="M229.207 482.36c1.087-1.526 4.306-6.78 4.543-15.805l6.988-221.498s.05-4.745 3.522-5.699M258.15 243.172c.345.177.628.34.735.446l61.113 46.456M329.451 297.396l.876.676c1.298 1.408 4.924 6.18 3.733 14.39l-7.02 40.25M321.893 382.225l-21.894 125.527s-2.222 5.334-7.889 5.334l-14.332.088M234.213 308.809l-54.964 13.465M166.753 325.336l-52.475 12.854" style="fill:none;stroke:red;stroke-width:1.33333;stroke-linecap:round;stroke-linejoin:round;stroke-miterlimit:500;stroke-dasharray:none;stroke-opacity:1;visibility:visible"/><path d="m232.733 303.186 2.997 2.19s.395.283.45.677v1.349s-.225.958-1.97 1.408" style="fill:none;stroke:red;stroke-width:.666665;stroke-linecap:round;stroke-linejoin:round;stroke-miterlimit:500;stroke-dasharray:none;stroke-opacity:1;visibility:visible"/><path d="m114.058 332.277 46.53-11.407M171.613 318.169l61.121-14.983" style="fill:none;stroke:red;stroke-width:1.33333;stroke-linecap:round;stroke-linejoin:round;stroke-miterlimit:500;stroke-dasharray:none;stroke-opacity:1;visibility:visible"/><path d="M110.67 336.115c.175.623.027 1.208-.329 1.31-.356.102-.789-.319-.967-.943-.177-.621-.029-1.208.327-1.31.357-.099.79.321.969.944v-.001" style="fill:none;stroke:red;stroke-width:.666665;stroke-linecap:round;stroke-linejoin:round;stroke-miterlimit:500;stroke-dasharray:none;stroke-opacity:1;visibility:visible"/><path d="m320.366 288.326 6.754 4.98M334.15 291.244l-6.743 2.149.176 4.847-7.073-5.274-.228-4.806 6.664-2 7.204 5.084M104.092 203.512a.52.52 0 0 1-.09.145c-.442.483-1.849-.087-3.138-1.272-1.292-1.184-1.98-2.535-1.536-3.017a.573.573 0 0 1 .092-.079M178.845 334.72s.695.635 2.132-.134v-.187M171.626 324.809l6.755 4.98M185.412 327.725l-6.743 2.15.176 4.845-7.073-5.273-.228-4.806 6.664-2.001 7.204 5.085M334.286 291.394l-.068 2.024" style="fill:none;stroke:red;stroke-width:.666665;stroke-linecap:round;stroke-linejoin:round;stroke-miterlimit:4;stroke-dasharray:none;stroke-opacity:1;visibility:visible"/><path d="M329.24 296.826s-.587-2.52 1.921-3.634a2.436 2.436 0 0 1 2.216.093M327.585 298.24s.694.633 2.132-.136v-.186M104.304 278.205s.454.836 1.53.532M103.466 269.557l.7 3.639M111.085 272.322l-6.959 1.036.176 4.847-.692-4.01-.228-4.805 6.88-.888.823 3.82M185.546 327.875l-.068 2.025M180.5 333.307s-.583-2.52 1.925-3.634a2.436 2.436 0 0 1 2.213.093M244.857 235.32l9.133 2.717M259.483 235.45l-5.208 2.673.176 4.847-9.451-3.01-.229-4.808 4.895-2.443 9.817 2.741M111.221 272.474l.112 2.89" style="fill:none;stroke:red;stroke-width:.666665;stroke-linecap:round;stroke-linejoin:round;stroke-miterlimit:4;stroke-dasharray:none;stroke-opacity:1;visibility:visible"/><path d="M105.554 277.196s-.11-2.667 2.446-3.167c1.84-.36 2.72.723 2.72.723M259.567 235.602l-.049 1.482M256.625 242.293s-1.899-1.756-.448-4.087c.53-.852 1.303-1.108 1.883-1.165M254.451 242.969s.695.633 2.132-.136v-.185" style="fill:none;stroke:red;stroke-width:.666665;stroke-linecap:round;stroke-linejoin:round;stroke-miterlimit:4;stroke-dasharray:none;stroke-opacity:1;visibility:visible"/><path d="m183.177 499.908-9.061 5.932M174.78 500.048l-16.114 6.05M156.584 500.354 139 506.426M171.626 324.809l4.095-2.123M174.78 500.048l8.397-.14M183.177 499.908l-8.397.14M140.166 500.63l16.418-.276M156.584 500.354l-16.418.276M111.333 275.364l-1.085 6.868M277.778 513.174l-15.889.096M277.778 513.174l-17.89 5.996M261.889 513.27l18.445 5.776M320.366 288.326l4.351-1.81M232.902 310.756l.273-8.672M233.175 302.084l-.273 8.672M209.54 500.272l8.871-15.82M171.626 324.809l-1.592.949M218.411 484.452l-8.871 15.82M320.366 288.326l-.368 1.748M261.889 513.27l15.889-.096M185.412 327.725l-6.163-5.451M171.613 318.169l-4.86 7.167M171.613 318.169l-11.025 2.701M166.753 325.336l4.86-7.167" style="fill:none;stroke:red;stroke-width:1.33333;stroke-linecap:round;stroke-linejoin:round;stroke-miterlimit:500;stroke-dasharray:none;stroke-opacity:1;visibility:visible"/><path d="m319.998 290.074.368-1.748M329.451 297.396l-2.331-4.09M170.034 325.758l1.592-.949M111.085 272.322l-7.619-2.765M110.892 275.134l-6.726-1.938M259.483 235.45l-14.626-.13M258.737 237.092l-4.747.945" style="fill:none;stroke:red;stroke-width:.666665;stroke-linecap:round;stroke-linejoin:round;stroke-miterlimit:4;stroke-dasharray:none;stroke-opacity:1;visibility:visible"/><path d="M179.186 536.688s6.459-1.478 10.355-2.166M173.146 538.106s-9.658 2.33-22.396 6.314M144.97 546.28c-8.076 2.667-16.906 5.888-25.084 9.524 0 0-10.034 3.408-7.194 14.67 0 .001 1.946 5.873 6.812 9.245l57.194 31.657s7.83 5.56 8.846 18.625l-.746 24.23s.219 5.172.602 7.194c0 0 5.6 32.702 6.85 35.743 1.25 3.041.042.125.042.125s2.125 10.208 16.25 8.334c0 0 9.268-.811 22.583-3.208 18.093-3.264 43.668-9.23 63.708-17.919 0 .001 4.509-1.829 4.166-6.08-.289-3.627-1.124-4.127-1.457-6.92 0 .001-2.765-28.972-2.653-37.08.111-8.113 3-30.335 3-30.335s1.214-14.502-7.334-22.665l-18.661-13.041M266.283 564.46l-24.469-17.096s-2.463-2.318-3.768-7.778c-1.304-5.459-4.201-10.287-10.433-9.998 0 0-1.324.099-3.52.29M218.925 530.348a492.832 492.832 0 0 0-12.179 1.312" style="fill:none;stroke:#00ff4a;stroke-width:1.99999;stroke-linecap:round;stroke-linejoin:round;stroke-miterlimit:500;stroke-dasharray:none;stroke-opacity:1;visibility:visible" visibility="hidden"/><path d="M207.32 533.478a889.62 889.62 0 0 1 12.04-1.456M223.82 531.543c2.075-.203 3.708-.33 4.543-.33 4.097-.001 8.039 2.857 8.967 8.422a5.213 5.213 0 0 1 .02.129M173.037 540.108s-8.617 1.93-22.013 6.227M145.6 548.119a381.666 381.666 0 0 0-24.896 9.377s-8.596 3.73-6.228 12.134c0 0 2.71 6.349 6.702 8.424l55.622 30.635s2.718 1.594 4.91 4.721c2.192 3.122 5.736 9.674 5.498 18.984-.198 7.709-.402 9.886-.402 9.886s-.416 10.808-.38 13.317c.038 2.511.914 8.18 1.256 9.931 0 0 4.908 27.773 6.164 31.119 1.255 3.349 3.46 5.289 7.075 6.05 3.614.76 7.342.266 7.342.266s35.867-3.716 65.917-13.524A241.343 241.343 0 0 0 293.985 682s3.585-1.81 3.913-3.813c.196-1.214.037-4.738-.27-6.29" style="fill:none;stroke:#00ff4a;stroke-width:.999997;stroke-linecap:round;stroke-linejoin:round;stroke-miterlimit:500;stroke-dasharray:none;stroke-opacity:1;visibility:visible" visibility="hidden"/><path d="m206.746 531.66-17.205 2.862M189.541 534.522l-16.395 3.584M144.97 546.28l5.78-1.86M151.024 546.335l-6.054-.055M266.283 564.46l5.611 3.919M271.894 568.379l-5.611-3.919M218.925 530.348l5.168-.47M223.82 531.543l-4.895-1.195M219.36 532.022l-12.614-.362" style="fill:none;stroke:#00ff4a;stroke-width:1.99999;stroke-linecap:round;stroke-linejoin:round;stroke-miterlimit:500;stroke-dasharray:none;stroke-opacity:1;visibility:visible" visibility="hidden"/><path d="m218.925 530.348-11.605 3.13M223.82 531.543l-4.46.479M219.36 532.022l4.46-.479M189.541 534.522l-16.504 5.586M145.6 548.119l5.424-1.784M151.024 546.335l-5.424 1.784" style="fill:none;stroke:#00ff4a;stroke-width:.999997;stroke-linecap:round;stroke-linejoin:round;stroke-miterlimit:500;stroke-dasharray:none;stroke-opacity:1;visibility:visible" visibility="hidden"/><path d="m244.857 235.32 1.896-1.776M253.99 238.037l-9.73 1.321" style="fill:none;stroke:red;stroke-width:1.33333;stroke-linecap:round;stroke-linejoin:round;stroke-miterlimit:500;stroke-dasharray:none;stroke-opacity:1;visibility:visible"/><path d="m185.412 327.725-6.567 6.995" style="fill:none;stroke:red;stroke-width:.666665;stroke-linecap:round;stroke-linejoin:round;stroke-miterlimit:4;stroke-dasharray:none;stroke-opacity:1;visibility:visible"/><path d="m189.541 534.522-10.355 2.166" style="fill:none;stroke:#00ff4a;stroke-width:1.99999;stroke-linecap:round;stroke-linejoin:round;stroke-miterlimit:500;stroke-dasharray:none;stroke-opacity:1;visibility:visible" visibility="hidden"/></svg>