<svg xmlns="http://www.w3.org/2000/svg" baseProfile="full" height="793.701" preserveAspectRatio="xMinYMin meet" style="width:912px;height:1303px" width="559.371" xml:space="preserve"><path d="M58.316 324.14s15.232 147.238 15.886 152.479c.656 5.243.656 8.521 0 17.692-.654 9.172-7.206 96.312-7.206 96.312M134.481 648.936l-9.828 3.93-6.857-7.57M80.682 593.948l-8.577 2.237M72.105 596.185l-4.975-5.365" style="fill:none;stroke:red;stroke-width:1.99999;stroke-linecap:round;stroke-linejoin:round;stroke-miterlimit:4;stroke-dasharray:none;stroke-opacity:1;visibility:visible"/><path d="M81.372 450.838c.48 5.05 1.097 11.43 1.462 15.258M80.844 533.475l1.112-13.205s2.004-2.523 4.142-.132M76.662 583.03l1.063-12.594s1.58-3.381 3.845-.488M66.57 326.85s14.06 147.212 14.666 152.461c.606 5.247.576 8.524-.164 17.69-.742 9.164-8.103 96.241-8.103 96.241" style="fill:none;stroke:red;stroke-width:.999997;stroke-linecap:round;stroke-linejoin:round;stroke-miterlimit:4;stroke-dasharray:none;stroke-opacity:1;visibility:visible"/><path d="M134.48 648.28s12.837-91.752 13.758-99.588c1.312-11.14 2.622-20.968 1.967-26.208-.655-5.241-8.565-175.522-8.565-175.522M117.638 644.936c1.607-11.488 12.712-90.944 13.567-98.211 1.31-11.137 2.621-20.965 1.965-26.206-.654-5.243-8.517-174.282-8.517-174.282M75.436 325.201s7.47 79.657 11.624 123.499M89.33 472.456c.224 2.316.372 3.787.423 4.234.607 5.248.577 8.525-.163 17.69-.23 2.846-1.1 13.211-2.189 26.147M85.708 540.64l-2.518 29.822M81.317 590.079a717.238 717.238 0 0 1-.376 3.519" style="fill:none;stroke:red;stroke-width:1.99999;stroke-linecap:round;stroke-linejoin:round;stroke-miterlimit:4;stroke-dasharray:none;stroke-opacity:1;visibility:visible"/><path d="M125.962 648.28s12.838-91.752 13.759-99.588c1.31-11.14 2.621-20.968 1.967-26.208-.62-4.958-7.692-156.534-8.452-172.86" style="fill:none;stroke:red;stroke-width:.999997;stroke-linecap:round;stroke-linejoin:round;stroke-miterlimit:4;stroke-dasharray:none;stroke-opacity:1;visibility:visible"/><path d="m255.057 324.108-9.615-2.255M179.262 306.837l-6.882-1.59-8.216 1.273M67.141 322.342l-9.064 1.475" style="fill:none;stroke:red;stroke-width:1.99999;stroke-linecap:round;stroke-linejoin:round;stroke-miterlimit:4;stroke-dasharray:none;stroke-opacity:1;visibility:visible"/><path d="m149.414 496.725 87.452-32.969M238.851 464.566l8.019-3.07M57.9 324.293l7.989 2.629M124.892 346.323l7.658 2.52M133.777 348.758l6.94-1.373M140.717 347.386l.401-.08M248.17 325.788l7.073-1.4" style="fill:none;stroke:red;stroke-width:.999997;stroke-linecap:round;stroke-linejoin:round;stroke-miterlimit:4;stroke-dasharray:none;stroke-opacity:1;visibility:visible"/><path d="m82.938 467.11 48.447 32.593" style="fill:none;stroke:red;stroke-width:1.99999;stroke-linecap:round;stroke-linejoin:round;stroke-miterlimit:4;stroke-dasharray:none;stroke-opacity:1;visibility:visible"/><path d="m171.542 432.35 2.135-.68M96.368 454.27l32.426-10.267M146.545 438.383l22.116-7.001M169.548 431.49l1.38.67M173.36 431.93l.65.315M174.01 432.245l41.373 20.078M236.9 463.735l1.738.843" style="fill:none;stroke:red;stroke-width:.999997;stroke-linecap:round;stroke-linejoin:round;stroke-miterlimit:4;stroke-dasharray:none;stroke-opacity:1;visibility:visible"/><path d="m148.881 477.01 7.384-2.61M165.326 471.197l54.284-19.181M227.78 449.129l5.446-1.922" style="fill:none;stroke:red;stroke-width:1.99999;stroke-linecap:round;stroke-linejoin:round;stroke-miterlimit:4;stroke-dasharray:none;stroke-opacity:1;visibility:visible"/><path d="m148.729 481.96 89.294-31.675" style="fill:none;stroke:red;stroke-width:.999997;stroke-linecap:round;stroke-linejoin:round;stroke-miterlimit:4;stroke-dasharray:none;stroke-opacity:1;visibility:visible"/><path d="m87.058 439.478 5.967-1.795M98.344 436.085l29.332-8.825M145.544 421.883l8.304-2.498M158.802 417.894l6.296-1.892M177.96 417.229l41.223 18.48M225.786 438.669l3.564 1.597" style="fill:none;stroke:red;stroke-width:1.99999;stroke-linecap:round;stroke-linejoin:round;stroke-miterlimit:4;stroke-dasharray:none;stroke-opacity:1;visibility:visible"/><path d="m81.645 450.669 4.841-1.587M173.605 418.51l4.192-1.26M87.369 443.351l40.659-12.231M146.025 425.706l23.068-6.939" style="fill:none;stroke:red;stroke-width:.999997;stroke-linecap:round;stroke-linejoin:round;stroke-miterlimit:4;stroke-dasharray:none;stroke-opacity:1;visibility:visible"/><path d="m86.41 449.26 43.658 26.948M144.825 391.7l90.3-24.08" style="fill:none;stroke:red;stroke-width:1.99999;stroke-linecap:round;stroke-linejoin:round;stroke-miterlimit:4;stroke-dasharray:none;stroke-opacity:1;visibility:visible"/><path d="m144.517 395.066 95.852-25.559" style="fill:none;stroke:red;stroke-width:.999997;stroke-linecap:round;stroke-linejoin:round;stroke-miterlimit:4;stroke-dasharray:none;stroke-opacity:1;visibility:visible"/><path d="m79.733 363.377 44.595-9.567M142.305 349.953l22.795-4.89M145.174 401.46l94.99-25.33" style="fill:none;stroke:red;stroke-width:1.99999;stroke-linecap:round;stroke-linejoin:round;stroke-miterlimit:4;stroke-dasharray:none;stroke-opacity:1;visibility:visible"/><path d="m80.172 366.387 44.528-9.554M142.565 353l26.89-5.77" style="fill:none;stroke:red;stroke-width:.999997;stroke-linecap:round;stroke-linejoin:round;stroke-miterlimit:4;stroke-dasharray:none;stroke-opacity:1;visibility:visible"/><path d="M129.148 555.758c-20.908-9.53-36.203-27.268-42.968-35.704M80.174 372.203l44.901-9.633M142.678 358.793l26.776-5.746" style="fill:none;stroke:red;stroke-width:1.99999;stroke-linecap:round;stroke-linejoin:round;stroke-miterlimit:4;stroke-dasharray:none;stroke-opacity:1;visibility:visible"/><path d="M82.91 521c6.5 8.211 23.26 28.39 46.521 37.97" style="fill:none;stroke:red;stroke-width:.999997;stroke-linecap:round;stroke-linejoin:round;stroke-miterlimit:4;stroke-dasharray:none;stroke-opacity:1;visibility:visible"/><path d="M81.541 569.578c5.473 7.868 23.261 29.077 41.05 39.68M80.938 533.899c6.823 8.8 23.49 29.05 46.435 39.399" style="fill:none;stroke:red;stroke-width:1.99999;stroke-linecap:round;stroke-linejoin:round;stroke-miterlimit:4;stroke-dasharray:none;stroke-opacity:1;visibility:visible"/><path d="M79.634 572.527c5.474 7.868 23.26 29.077 41.047 39.681" style="fill:none;stroke:red;stroke-width:.999997;stroke-linecap:round;stroke-linejoin:round;stroke-miterlimit:4;stroke-dasharray:none;stroke-opacity:1;visibility:visible"/><path d="M163.98 306.533v37.77M163.98 354.833v31.073M163.98 396.878v18.839M77.126 583.382c5.651 8.536 24.02 31.913 42.386 44.686" style="fill:none;stroke:red;stroke-width:1.99999;stroke-linecap:round;stroke-linejoin:round;stroke-miterlimit:4;stroke-dasharray:none;stroke-opacity:1;visibility:visible"/><path d="M169.602 347.155v5.3M173.67 418.578v13.392M169.602 418.554v12.828M171.505 309.028v74.997M171.505 394.918v37.077" style="fill:none;stroke:red;stroke-width:.999997;stroke-linecap:round;stroke-linejoin:round;stroke-miterlimit:4;stroke-dasharray:none;stroke-opacity:1;visibility:visible"/><path d="m237.198 323.534-2.597 43.592M233.927 378.4l-.65 10.814M232.357 404.625l-2.59 43.265M254.972 324.654l-2.939 47.247M250.921 389.805l-4.419 71.022M179.374 307.272v74.324M179.374 392.88v24.183" style="fill:none;stroke:red;stroke-width:1.99999;stroke-linecap:round;stroke-linejoin:round;stroke-miterlimit:4;stroke-dasharray:none;stroke-opacity:1;visibility:visible"/><path d="m246.747 325.768-8.9-2.086M170.829 308.421l-7.143-1.673M178.925 307.225l-6.848 1.19M75.21 325.246l-8.46 1.47M66.75 326.716l-.634.11M241.245 369.537l-.482 6.485M247.387 326.31l-3.245 52.243M243.18 394.075l-4.344 69.985" style="fill:none;stroke:red;stroke-width:.999997;stroke-linecap:round;stroke-linejoin:round;stroke-miterlimit:4;stroke-dasharray:none;stroke-opacity:1;visibility:visible"/><path d="m67.714 322.378 7.736 2.543M133.283 343.983l8.179 2.69M124.72 345.662l8.073-1.592M237.138 323.19l8.068-1.388" style="fill:none;stroke:red;stroke-width:1.99999;stroke-linecap:round;stroke-linejoin:round;stroke-miterlimit:4;stroke-dasharray:none;stroke-opacity:1;visibility:visible"/><path d="m238.175 449.791-.852 13.722M173.752 418.542l45.967 20.89M224.864 441.77l4.266 1.937M165.509 416.317l4.005 1.82M233.057 447.08l5.108 2.323M165.518 345.102l4.063 1.308M235.64 367.695l5.181 1.67M67.288 322.238l.152.05M67.441 322.288l.272.09" style="fill:none;stroke:red;stroke-width:.999997;stroke-linecap:round;stroke-linejoin:round;stroke-miterlimit:4;stroke-dasharray:none;stroke-opacity:1;visibility:visible"/><path d="M161.555 473.927c.998.143 1.719.564 1.719 1.059 0 .616-1.113 1.116-2.488 1.116-1.372 0-2.486-.5-2.486-1.116 0-.476.665-.883 1.6-1.043M243.065 455.858l.088-.828.566-.307" style="fill:none;stroke:red;stroke-width:.666665;stroke-linecap:round;stroke-linejoin:round;stroke-miterlimit:4;stroke-dasharray:none;stroke-opacity:1;visibility:visible"/><path d="M244.727 455.631c-.353 1.375-1.384 2.299-2.3 2.063-.917-.237-1.374-1.544-1.017-2.92.353-1.374 1.383-2.296 2.3-2.059.917.235 1.372 1.542 1.017 2.916M133.096 631.447l.086-.828.568-.306" style="fill:none;stroke:red;stroke-width:.666665;stroke-linecap:round;stroke-linejoin:round;stroke-miterlimit:4;stroke-dasharray:none;stroke-opacity:1;visibility:visible"/><path d="M134.758 631.22c-.354 1.376-1.384 2.3-2.301 2.063-.917-.236-1.373-1.543-1.017-2.919.353-1.373 1.384-2.297 2.3-2.06.918.236 1.371 1.541 1.018 2.916M144.862 496.135l.088-.828.567-.307" style="fill:none;stroke:red;stroke-width:.666665;stroke-linecap:round;stroke-linejoin:round;stroke-miterlimit:4;stroke-dasharray:none;stroke-opacity:1;visibility:visible"/><path d="M146.524 495.908c-.354 1.375-1.383 2.3-2.3 2.063-.918-.237-1.374-1.543-1.018-2.92.354-1.373 1.384-2.296 2.302-2.059.917.235 1.372 1.542 1.017 2.916h-.001M157.397 419.535c.997.143 1.719.565 1.719 1.059 0 .616-1.116 1.116-2.487 1.116s-2.487-.5-2.487-1.116c0-.476.664-.884 1.599-1.044" style="fill:none;stroke:red;stroke-width:.666665;stroke-linecap:round;stroke-linejoin:round;stroke-miterlimit:4;stroke-dasharray:none;stroke-opacity:1;visibility:visible"/><path d="m81.55 450.907 49.047 30.27M89.33 472.456l-6.496-6.36M81.317 590.079l-8.348 3.163" style="fill:none;stroke:red;stroke-width:.999997;stroke-linecap:round;stroke-linejoin:round;stroke-miterlimit:4;stroke-dasharray:none;stroke-opacity:1;visibility:visible"/><path d="m82.834 466.096 6.496 6.36M80.844 533.475l4.864 7.165M81.317 590.079l1.873-19.617M76.662 583.03l4.655 7.049" style="fill:none;stroke:red;stroke-width:1.99999;stroke-linecap:round;stroke-linejoin:round;stroke-miterlimit:4;stroke-dasharray:none;stroke-opacity:1;visibility:visible"/><path d="m124.653 346.237 8.583 3.387M133.283 343.983l-.733 4.86M132.793 344.07l.984 4.688M86.486 449.082l9.882 5.188M146.545 438.383l-17.751 5.62M128.794 444.003l17.751-5.62M224.864 441.77l-9.481 10.553" style="fill:none;stroke:red;stroke-width:.999997;stroke-linecap:round;stroke-linejoin:round;stroke-miterlimit:4;stroke-dasharray:none;stroke-opacity:1;visibility:visible"/><path d="m165.326 471.197-9.061 3.203M156.265 474.4l9.061-3.203M227.78 449.129l-8.17 2.887M219.61 452.016l8.17-2.887" style="fill:none;stroke:red;stroke-width:1.99999;stroke-linecap:round;stroke-linejoin:round;stroke-miterlimit:4;stroke-dasharray:none;stroke-opacity:1;visibility:visible"/><path d="m156.265 474.4-7.536 7.56" style="fill:none;stroke:red;stroke-width:.999997;stroke-linecap:round;stroke-linejoin:round;stroke-miterlimit:4;stroke-dasharray:none;stroke-opacity:1;visibility:visible"/><path d="m86.486 449.082.572-9.604M98.344 436.085l-5.319 1.598M93.025 437.683l5.319-1.598M146.025 425.706l-18.349 1.554M127.676 427.26l17.868-5.377M158.802 417.894l-4.954 1.491M153.848 419.385l4.954-1.491M225.786 438.669l-6.603-2.96M229.13 443.707l-3.344-5.038M224.864 441.77l4.486-1.504" style="fill:none;stroke:red;stroke-width:1.99999;stroke-linecap:round;stroke-linejoin:round;stroke-miterlimit:4;stroke-dasharray:none;stroke-opacity:1;visibility:visible"/><path d="m86.486 449.082.883-5.731M146.025 425.706l-17.997 5.414M153.848 419.385l-7.823 6.321" style="fill:none;stroke:red;stroke-width:.999997;stroke-linecap:round;stroke-linejoin:round;stroke-miterlimit:4;stroke-dasharray:none;stroke-opacity:1;visibility:visible"/><path d="m124.72 345.662-.392 8.148M141.118 347.306l1.187 2.647M153.848 419.385l-8.674-17.925" style="fill:none;stroke:red;stroke-width:1.99999;stroke-linecap:round;stroke-linejoin:round;stroke-miterlimit:4;stroke-dasharray:none;stroke-opacity:1;visibility:visible"/><path d="m124.72 345.662-.02 11.171M141.118 347.306l1.447 5.694" style="fill:none;stroke:red;stroke-width:.999997;stroke-linecap:round;stroke-linejoin:round;stroke-miterlimit:4;stroke-dasharray:none;stroke-opacity:1;visibility:visible"/><path d="m133.777 348.758-8.702 13.812M140.717 347.385l1.961 11.408" style="fill:none;stroke:red;stroke-width:1.99999;stroke-linecap:round;stroke-linejoin:round;stroke-miterlimit:4;stroke-dasharray:none;stroke-opacity:1;visibility:visible"/><path d="M86.098 520.138 82.91 521M81.57 569.948l-1.936 2.579" style="fill:none;stroke:red;stroke-width:.999997;stroke-linecap:round;stroke-linejoin:round;stroke-miterlimit:4;stroke-dasharray:none;stroke-opacity:1;visibility:visible"/><path d="m169.602 347.155-5.622-2.852M169.602 352.455l-5.622 2.378M163.98 396.878v-10.972M163.98 385.906v10.972M169.602 418.554l-5.622-2.837" style="fill:none;stroke:red;stroke-width:1.99999;stroke-linecap:round;stroke-linejoin:round;stroke-miterlimit:4;stroke-dasharray:none;stroke-opacity:1;visibility:visible"/><path d="M171.505 394.918v-10.893M171.505 384.025v10.893" style="fill:none;stroke:red;stroke-width:.999997;stroke-linecap:round;stroke-linejoin:round;stroke-miterlimit:4;stroke-dasharray:none;stroke-opacity:1;visibility:visible"/><path d="m240.763 376.022-6.836 2.378M243.18 394.075l-9.903-4.861M233.277 389.214l-.92 15.411M238.175 449.791l-8.408-1.901M241.245 369.537l10.788 2.364M244.142 378.553l6.779 11.252M179.374 392.88v-11.284M179.374 381.596v11.284M173.67 418.578l5.704-1.515" style="fill:none;stroke:red;stroke-width:1.99999;stroke-linecap:round;stroke-linejoin:round;stroke-miterlimit:4;stroke-dasharray:none;stroke-opacity:1;visibility:visible"/><path d="m241.245 369.537 2.897 9.016M233.277 389.214l9.903 4.861M224.864 441.77l-5.145-2.338M229.35 440.266l-4.486 1.504M233.057 447.08l-3.927-3.373" style="fill:none;stroke:red;stroke-width:.999997;stroke-linecap:round;stroke-linejoin:round;stroke-miterlimit:4;stroke-dasharray:none;stroke-opacity:1;visibility:visible"/><path d="m238.175 449.791 4.89 6.067" style="fill:none;stroke:red;stroke-width:.666665;stroke-linecap:round;stroke-linejoin:round;stroke-miterlimit:4;stroke-dasharray:none;stroke-opacity:1;visibility:visible"/><path d="M151.808 503.706c15.245-5.278 94.12-32.596 96.665-33.67 3.993-1.693 6.3-3.669 4.717-7.686-1.233-3.138-6.428-5.313-6.428-5.313" style="fill:none;stroke:#00ff4a;stroke-width:1.99999;stroke-linecap:round;stroke-linejoin:round;stroke-miterlimit:4;stroke-dasharray:none;stroke-opacity:1;visibility:visible" visibility="hidden"/><path d="M149.272 499.454s97.751-32.97 99.885-34.208c3.177-1.843 2.843-4.57 1.133-5.596" style="fill:none;stroke:#00ff4a;stroke-width:.999997;stroke-linecap:round;stroke-linejoin:round;stroke-miterlimit:4;stroke-dasharray:none;stroke-opacity:1;visibility:visible" visibility="hidden"/><path d="m149.14 502.791 2.48.869" style="fill:none;stroke:#00ff4a;stroke-width:1.99999;stroke-linecap:round;stroke-linejoin:round;stroke-miterlimit:4;stroke-dasharray:none;stroke-opacity:1;visibility:visible" visibility="hidden"/><path d="m165.326 471.197-16.445 5.813" style="fill:none;stroke:red;stroke-width:1.99999;stroke-linecap:round;stroke-linejoin:round;stroke-miterlimit:4;stroke-dasharray:none;stroke-opacity:1;visibility:visible"/><path d="m238.638 464.578 8.124-7.541" style="fill:none;stroke:#00ff4a;stroke-width:1.99999;stroke-linecap:round;stroke-linejoin:round;stroke-miterlimit:4;stroke-dasharray:none;stroke-opacity:1;visibility:visible" visibility="hidden"/></svg>