<svg xmlns="http://www.w3.org/2000/svg" baseProfile="full" height="1122.52" preserveAspectRatio="xMinYMin meet" style="width:912px;height:1303px" width="793.701" xml:space="preserve"><path d="m361.52 356.578-.4.292-.4.27-.41.247-.41.228-.4.206-.41.182-.411.152-.41.13-.4.108-.4.086-.4.054M347.286 354.753h.096l.099.021" style="fill:none;stroke:red;stroke-width:.999997;stroke-linecap:round;stroke-linejoin:round;stroke-miterlimit:4;stroke-dasharray:none;stroke-opacity:1;visibility:visible"/><path d="m339.671 357.55-.163-.055-.15-.064-.131-.054-.096-.064-.065-.055-.043-.053-.01-.044.01-.054.043-.032.076-.033.109-.032.13-.021.15-.011.161-.01h.195l.205.01.216.01.227.022.227.032.237.033.227.043.217.043.216.054.193.055.174.053.162.064.139.055.11.053.086.066.053.054.032.054v.044l-.032.042-.065.032-.087.034-.106.032-.142.01-.161.011-.184.01-.205-.01-.206-.01-.226-.022-.227-.021-.227-.034-.237-.042-.217-.043-.215-.044-.205-.055-.195-.053" style="fill:none;stroke:red;stroke-width:.666665;stroke-linecap:round;stroke-linejoin:round;stroke-miterlimit:4;stroke-dasharray:none;stroke-opacity:1;visibility:visible"/><path d="m383.854 333.304-.152-.055-.128-.064-.11-.076-.086-.097-.053-.097-.032-.096v-.11l.032-.108.053-.106.087-.108.109-.098.128-.097.152-.087.172-.076.195-.064.194-.054.206-.043.205-.023.205-.01h.206l.184.022.182.032.162.054.152.054.118.076.098.087.065.087.043.106.022.098-.022.108-.043.108-.065.108-.098.108-.118.097-.152.097-.162.076-.172.075-.194.065-.206.044-.205.032-.205.022h-.206l-.194-.011-.195-.032-.172-.044M433.988 295.104l-.15-.053-.142-.066-.107-.076-.088-.076-.064-.096-.032-.097v-.097l.022-.098.053-.108.076-.097.097-.097.13-.087.152-.085.161-.076.183-.066.184-.053.206-.033.194-.022.205-.01h.195l.194.021.172.023.163.053.15.055.12.064.097.076.076.086.054.098.011.096v.097l-.044.11-.065.095-.086.098-.118.097-.142.087-.15.076-.174.074-.184.055-.205.043-.193.032-.206.022h-.194l-.194-.01-.184-.023-.173-.032M244.61 371.147l.01-.163-.01-.161-.032-.152-.065-.15-.076-.13-.096-.11-.11-.085-.106-.054M244.61 371.147l-.032.215M243.152 369.818l.972.324M244.578 371.362l-1.425-1.544M235.462 366.956l7.69 2.863M244.501 376.429l.076-5.067M442.768 294.38l-81.248 62.197M357.07 358.533l-112.46 12.615M244.113 377.022l.087-.021.086-.043.075-.076.055-.087.042-.108.034-.13.01-.128M235.462 366.956l-.085-.021h-.087M354.662 482.139l-113.108 71.02M241.554 553.16l-.087 5.55" style="fill:none;stroke:red;stroke-width:.999997;stroke-linecap:round;stroke-linejoin:round;stroke-miterlimit:4;stroke-dasharray:none;stroke-opacity:1;visibility:visible"/><path d="m241.273 559.153.064-.055.055-.074.044-.098.021-.097.01-.12" style="fill:none;stroke:red;stroke-width:1.99999;stroke-linecap:round;stroke-linejoin:round;stroke-miterlimit:4;stroke-dasharray:none;stroke-opacity:1;visibility:visible"/><path d="m241.554 553.17.097-5.563M241.651 547.608l-.01-.14-.022-.152-.055-.152-.065-.14-.075-.13-.097-.118-.097-.085-.098-.078M232.903 542.434l8.23 4.18" style="fill:none;stroke:red;stroke-width:.999997;stroke-linecap:round;stroke-linejoin:round;stroke-miterlimit:4;stroke-dasharray:none;stroke-opacity:1;visibility:visible"/><path d="m232.903 542.434-.097-.03-.087-.023-.087.01-.074.034" style="fill:none;stroke:red;stroke-width:1.99999;stroke-linecap:round;stroke-linejoin:round;stroke-miterlimit:4;stroke-dasharray:none;stroke-opacity:1;visibility:visible"/><path d="m300.608 370.477.54.184M305.414 371.06l-.508-.152-.517-.119-.519-.096-.53-.065-.54-.032-.54-.012-.55.021-.561.055M241.132 546.614l56.916-35.53M298.048 511.083l.487-.313.474-.335.476-.357.463-.388.465-.412.454-.431.454-.443.442-.476.444-.496.43-.518.411-.53.41-.552.4-.56.389-.584.378-.593.367-.616.357-.627.335-.636.323-.649.314-.657.291-.671.281-.67.26-.68.248-.691.227-.691.216-.692.195-.701.182-.703.163-.701.14-.702.13-.692.097-.69.086-.69.075-.693.044-.68.033-.67.01-.658M309 489.234l.108-99.48M309.107 389.755l-.01-.68-.033-.659-.042-.66-.066-.646-.085-.638-.11-.616-.118-.605-.14-.593-.163-.572-.173-.552-.193-.539-.216-.519-.238-.508-.238-.474-.27-.454-.28-.444-.292-.409-.313-.39-.325-.366-.334-.335-.357-.324-.367-.281-.377-.27-.39-.238-.41-.204-.41-.184-.42-.152M244.382 383.286l.097-6.048M244.005 383.88l.085-.032.087-.043.065-.065.066-.097.042-.108.022-.12.01-.128" style="fill:none;stroke:red;stroke-width:.999997;stroke-linecap:round;stroke-linejoin:round;stroke-miterlimit:4;stroke-dasharray:none;stroke-opacity:1;visibility:visible"/><path d="m297.357 377.454 2.419-.281" style="fill:none;stroke:red;stroke-width:1.99999;stroke-linecap:round;stroke-linejoin:round;stroke-miterlimit:4;stroke-dasharray:none;stroke-opacity:1;visibility:visible"/><path d="m302.736 377.443-.313-.097-.314-.076-.313-.064-.336-.043-.323-.033-.334-.01h-.346l-.334.01-.347.042M319.347 488.91l-.097-.021-.098-.011-.086.01-.076.043M319.347 488.91l-.313.184-.314.172M322.186 493.25l.356.119.367.098.389.064.379.043.398.012.4-.012.4-.043.411-.064.42-.098.41-.119.422-.15.423-.173.42-.194.421-.227.421-.248" style="fill:none;stroke:red;stroke-width:.999997;stroke-linecap:round;stroke-linejoin:round;stroke-miterlimit:4;stroke-dasharray:none;stroke-opacity:1;visibility:visible"/><path d="m346.735 476.307-.11-.032-.118-.021h-.117l-.131.009-.13.023-.107.032-.098.042-.076.055-.054.055-.022.064v.065l.034.053.054.055.075.043.097.042.12.022.118.012h.13l.128-.022.12-.021.108-.044.087-.043.064-.054.033-.064.011-.066-.01-.053-.045-.065-.065-.044-.096-.043" style="fill:none;stroke:red;stroke-width:.666665;stroke-linecap:round;stroke-linejoin:round;stroke-miterlimit:4;stroke-dasharray:none;stroke-opacity:1;visibility:visible"/><path d="m320.372 499.645-.432-.184-.421-.205-.411-.238-.388-.258-.39-.292-.366-.314-.357-.345-.346-.367-.334-.389-.314-.421-.301-.443-.281-.464-.26-.487-.248-.508-.238-.529-.216-.55-.194-.573-.184-.593-.162-.616-.141-.627-.117-.648-.11-.658-.085-.67-.065-.692-.043-.701-.033-.712-.01-.735M314.151 390.057l.01-.692.033-.69.044-.714.076-.712.086-.712.107-.713.13-.724.151-.723.163-.724.183-.713.205-.724.227-.712.237-.703.25-.701.28-.691.28-.681.302-.67.324-.669.336-.648.345-.628.356-.624.379-.605.388-.584.39-.574.41-.55.421-.53.42-.517.443-.487.444-.464.453-.453.454-.421.464-.39.465-.377.475-.345.474-.314.475-.292.476-.269.487-.239.474-.205.475-.183.487-.15.474-.13.466-.088.464-.064M328.439 367.194l.195.064M328.223 492.259l25.53-15.941" style="fill:none;stroke:red;stroke-width:.999997;stroke-linecap:round;stroke-linejoin:round;stroke-miterlimit:4;stroke-dasharray:none;stroke-opacity:1;visibility:visible"/><path d="m318.665 489.115.085.237.12.314.13.302.14.302.152.281.15.27.163.26.172.247.195.26.205.238.216.237.216.205.227.195.226.184.238.163.249.15.248.13.195.086.194.075M441.807 293.819l-8.337-2.99" style="fill:none;stroke:red;stroke-width:1.99999;stroke-linecap:round;stroke-linejoin:round;stroke-miterlimit:4;stroke-dasharray:none;stroke-opacity:1;visibility:visible"/><path d="m235.365 373.771 8.564 3.23" style="fill:none;stroke:red;stroke-width:.999997;stroke-linecap:round;stroke-linejoin:round;stroke-miterlimit:4;stroke-dasharray:none;stroke-opacity:1;visibility:visible"/><path d="m234.825 372.788.076-5.26M442.768 294.38l2.819 2.452M234.825 372.788l.01.152.034.161.043.152.076.14.074.13.098.108.097.086.108.055" style="fill:none;stroke:red;stroke-width:1.99999;stroke-linecap:round;stroke-linejoin:round;stroke-miterlimit:4;stroke-dasharray:none;stroke-opacity:1;visibility:visible"/><path d="m243.93 377 .097.021h.087M235.29 366.935l-.087.021-.086.043-.076.076-.054.087-.042.108-.034.13-.01.128M433.221 290.795l.032-.01h.032l.055.01.065.01.064.023" style="fill:none;stroke:red;stroke-width:.999997;stroke-linecap:round;stroke-linejoin:round;stroke-miterlimit:4;stroke-dasharray:none;stroke-opacity:1;visibility:visible"/><path d="m441.807 293.819.096.043.12.044.107.053.12.065.118.075.119.065.108.076.097.066.076.074M445.587 296.832l.064.055.044.053.032.044.01.032-.01.021M347.286 354.753l.301-.043.303-.054.313-.076.314-.087.313-.107.313-.13.323-.13.324-.161.315-.173.324-.183.313-.205.312-.218.315-.226M362.039 361.33l83.69-64.292M362.039 361.33l-.379.292-.389.259-.377.258-.388.239-.39.227-.388.216-.389.194-.4.183-.388.173-.401.152-.388.128-.39.12-.398.107-.4.087-.388.065-.39.053M302.763 370.232l23.907-2.768" style="fill:none;stroke:red;stroke-width:1.99999;stroke-linecap:round;stroke-linejoin:round;stroke-miterlimit:4;stroke-dasharray:none;stroke-opacity:1;visibility:visible"/><path d="m244.113 377.022 58.65-6.79" style="fill:none;stroke:red;stroke-width:.999997;stroke-linecap:round;stroke-linejoin:round;stroke-miterlimit:4;stroke-dasharray:none;stroke-opacity:1;visibility:visible"/><path d="m353.709 364.324 2.088-.241" style="fill:none;stroke:red;stroke-width:1.99999;stroke-linecap:round;stroke-linejoin:round;stroke-miterlimit:4;stroke-dasharray:none;stroke-opacity:1;visibility:visible"/><path d="m348.7 364.905 5.008-.581" style="fill:none;stroke:red;stroke-width:.999997;stroke-linecap:round;stroke-linejoin:round;stroke-miterlimit:4;stroke-dasharray:none;stroke-opacity:1;visibility:visible"/><path d="m235.29 366.935 111.996-12.181M351.368 352.96l81.853-62.165" style="fill:none;stroke:red;stroke-width:1.99999;stroke-linecap:round;stroke-linejoin:round;stroke-miterlimit:4;stroke-dasharray:none;stroke-opacity:1;visibility:visible"/><path d="m314.345 497.356-2.387 1.479" style="fill:none;stroke:red;stroke-width:.999997;stroke-linecap:round;stroke-linejoin:round;stroke-miterlimit:4;stroke-dasharray:none;stroke-opacity:1;visibility:visible"/><path d="m240.917 559.142-8.197-4.223M232.276 548.407l-.076 5.53M354.662 482.139l.227 5.001M232.2 553.936l.01.14.022.152.053.14.066.14.076.13.086.12.098.086.108.076M240.917 559.142l.096.043.099.01.085-.01.076-.032M354.888 487.14v.108l-.021.097-.043.096-.053.066-.078.065-113.42 71.581M232.557 542.425l-.065.064-.054.065-.044.098-.021.106-.01.12M232.276 548.418l.087-5.54" style="fill:none;stroke:red;stroke-width:1.99999;stroke-linecap:round;stroke-linejoin:round;stroke-miterlimit:4;stroke-dasharray:none;stroke-opacity:1;visibility:visible"/><path d="m232.276 548.418 9.277 4.753M235.085 373.556l-.27.032" style="fill:none;stroke:red;stroke-width:.999997;stroke-linecap:round;stroke-linejoin:round;stroke-miterlimit:4;stroke-dasharray:none;stroke-opacity:1;visibility:visible"/><path d="m314.151 387.962-.01-.808-.022-.8-.053-.788-.067-.777-.085-.768-.108-.756-.13-.735-.14-.723-.173-.713-.184-.69-.205-.67-.216-.66-.248-.637-.259-.615-.281-.595-.292-.572-.314-.55-.324-.53-.345-.497-.368-.485-.377-.454-.388-.433-.411-.399-.421-.378-.432-.356-.454-.324-.465-.292-.476-.271-.484-.237-.497-.215-.508-.173" style="fill:none;stroke:red;stroke-width:1.99999;stroke-linecap:round;stroke-linejoin:round;stroke-miterlimit:4;stroke-dasharray:none;stroke-opacity:1;visibility:visible"/><path d="m313.925 487.247.227-99.285" style="fill:none;stroke:red;stroke-width:.999997;stroke-linecap:round;stroke-linejoin:round;stroke-miterlimit:4;stroke-dasharray:none;stroke-opacity:1;visibility:visible"/><path d="m298.988 517.108.561-.367.562-.398.55-.412.563-.442.54-.465.55-.487.53-.517.54-.53.519-.55.518-.572.507-.593.497-.618.486-.625.485-.648.465-.67.464-.68.443-.703.433-.712.422-.724.409-.734.4-.756.377-.756.368-.768.346-.788.334-.788.324-.798.303-.8.29-.81.27-.81.25-.82.237-.822.216-.82.206-.822.183-.82.161-.822.142-.82.129-.81.11-.822.085-.798.074-.81.043-.788.033-.789.012-.777M243.822 383.847l-8.555-3.25M234.728 379.614l.085-6.027" style="fill:none;stroke:red;stroke-width:1.99999;stroke-linecap:round;stroke-linejoin:round;stroke-miterlimit:4;stroke-dasharray:none;stroke-opacity:1;visibility:visible"/><path d="m243.822 383.847.085.023.099.009" style="fill:none;stroke:red;stroke-width:.999997;stroke-linecap:round;stroke-linejoin:round;stroke-miterlimit:4;stroke-dasharray:none;stroke-opacity:1;visibility:visible"/><path d="m234.728 379.614.01.15.033.162.042.153.066.14.086.13.096.106.099.088.107.054M302.843 370.218l2.57.843M244.005 383.88l53.352-6.425M299.68 386.483v-.55l-.021-.542-.034-.53-.042-.529-.054-.517-.076-.519-.076-.497-.097-.496-.108-.475-.107-.476-.13-.442-.14-.443-.142-.43-.161-.413-.173-.398-.172-.39-.195-.378-.195-.367-.205-.347-.195-.29M299.808 485.605l-.13-99.122M288.782 507.626l.377-.248.379-.248.367-.281.377-.28.368-.303.367-.324.368-.336.356-.345.368-.356.345-.379.345-.376.335-.39.336-.41.323-.41.324-.433.313-.442.313-.443.303-.465.292-.464.29-.475.282-.475.27-.498.27-.507.259-.508.249-.519.237-.517.238-.53.216-.529.216-.54.194-.54.195-.54.183-.552.162-.55.162-.551.15-.55.142-.56.118-.551.119-.551.108-.552.087-.55.074-.507.066-.498.054-.497.043-.496.043-.497.021-.487.012-.485.01-.475M232.557 542.425l56.224-34.799" style="fill:none;stroke:red;stroke-width:1.99999;stroke-linecap:round;stroke-linejoin:round;stroke-miterlimit:4;stroke-dasharray:none;stroke-opacity:1;visibility:visible"/><path d="m329.098 498.198-.508.303-.508.28-.507.249-.508.237-.508.195-.496.183-.508.15-.496.12-.497.098-.487.064-.485.042-.487.012-.476-.012-.462-.042-.464-.064-.455-.098-.443-.12-.432-.15" style="fill:none;stroke:red;stroke-width:.999997;stroke-linecap:round;stroke-linejoin:round;stroke-miterlimit:4;stroke-dasharray:none;stroke-opacity:1;visibility:visible"/><path d="m307.855 372.259.367-.604.378-.584.399-.572.4-.55.421-.54M354.64 482.16l-.227-5.023" style="fill:none;stroke:red;stroke-width:1.99999;stroke-linecap:round;stroke-linejoin:round;stroke-miterlimit:4;stroke-dasharray:none;stroke-opacity:1;visibility:visible"/><path d="m353.646 364.538-.517-.14" style="fill:none;stroke:red;stroke-width:.999997;stroke-linecap:round;stroke-linejoin:round;stroke-miterlimit:4;stroke-dasharray:none;stroke-opacity:1;visibility:visible"/><path d="m353.755 476.317.13.043.12.076.106.086.097.107.087.12.064.13.033.13.022.128M353.755 476.317l-9.677-2.721M343.679 473.64l.087-.044.097-.021.108.01.107.011" style="fill:none;stroke:red;stroke-width:1.99999;stroke-linecap:round;stroke-linejoin:round;stroke-miterlimit:4;stroke-dasharray:none;stroke-opacity:1;visibility:visible"/><path d="m318.665 489.115.01-.01.314-.174" style="fill:none;stroke:red;stroke-width:.999997;stroke-linecap:round;stroke-linejoin:round;stroke-miterlimit:4;stroke-dasharray:none;stroke-opacity:1;visibility:visible"/><path d="M317.942 484.276v.432l.021.443.022.422.032.42.042.412.055.41.065.389.076.388.076.379.096.366.098.346.108.336.032.096" style="fill:none;stroke:red;stroke-width:1.99999;stroke-linecap:round;stroke-linejoin:round;stroke-miterlimit:4;stroke-dasharray:none;stroke-opacity:1;visibility:visible"/><path d="m312.607 496.686 7.765 2.959" style="fill:none;stroke:red;stroke-width:.999997;stroke-linecap:round;stroke-linejoin:round;stroke-miterlimit:4;stroke-dasharray:none;stroke-opacity:1;visibility:visible"/><path d="m317.942 484.276.313-96.173M327.23 373.653l25.887-2.928M327.23 373.653l-.248.03-.25.055-.258.066-.26.076-.27.096-.26.118-.269.119-.269.141-.27.162-.282.184-.28.194-.281.216-.28.227-.282.248-.28.26-.27.27-.27.291-.249.292-.259.303-.249.324-.248.323-.237.346-.228.346-.227.366-.215.368-.216.378-.205.389-.195.4-.182.41-.184.41-.174.41-.161.422-.152.432-.14.432-.13.43-.13.434-.108.443-.096.442-.099.443-.074.443-.066.432-.053.389-.043.388-.033.379-.021.378-.011.378-.01.366M318.99 488.931l24.69-15.292" style="fill:none;stroke:red;stroke-width:1.99999;stroke-linecap:round;stroke-linejoin:round;stroke-miterlimit:4;stroke-dasharray:none;stroke-opacity:1;visibility:visible"/><path d="m353.646 364.538-.517-.14" style="fill:none;stroke:red;stroke-width:.999997;stroke-linecap:round;stroke-linejoin:round;stroke-miterlimit:4;stroke-dasharray:none;stroke-opacity:1;visibility:visible"/><path d="M353.646 370.877v-6.339" style="fill:none;stroke:red;stroke-width:1.99999;stroke-linecap:round;stroke-linejoin:round;stroke-miterlimit:4;stroke-dasharray:none;stroke-opacity:1;visibility:visible"/><path d="m328.439 367.194-.28.032-.281.043-.27.044-.27.044-.151.021-.163.032-.173.021-.183.032M348.7 364.905l-.41.053-.433.043-.442.055-.454.054-.476.052-.485.055-.508.055-.519.065-.529.053-.55.066-.562.064-.572.065-.593.064-.606.076-.616.065-.626.076-.648.064-.659.076-.67.075-.691.087-.702.074-.713.078-.724.085-.733.076-.756.087-.756.086-.778.087-.789.085-.799.087-.81.097-.82.087-.832.097M242.776 224.426l-3.655-1.088-3.733-.856-3.732-.7-3.81-.467-3.887-.233-3.888-.077-3.967.156-4.044.388" style="fill:none;stroke:red;stroke-width:.999997;stroke-linecap:round;stroke-linejoin:round;stroke-miterlimit:4;stroke-dasharray:none;stroke-opacity:1;visibility:visible"/><path d="m260.348 233.058 2.644-4.355 2.721-4.198 2.879-4.122 2.876-3.965 3.033-3.888" style="fill:none;stroke:red;stroke-width:1.99999;stroke-linecap:round;stroke-linejoin:round;stroke-miterlimit:4;stroke-dasharray:none;stroke-opacity:1;visibility:visible"/><path d="m212.06 221.55-94.653 10.987M330.072 265.83l.265-.507 2.482-4.506 2.573-4.507 2.719-4.36 2.801-4.2 2.799-4.12 2.946-3.96 3.042-3.813 3.026-3.734 3.187-3.493 3.187-3.347 3.266-3.266 3.267-3.027 3.347-2.8 3.345-2.733 3.415-2.48 3.426-2.254 3.427-2.106 3.412-1.947 3.508-1.707 3.413-1.48 3.427-1.32 3.493-1.08 3.427-.933 3.346-.626 3.347-.467" style="fill:none;stroke:red;stroke-width:.999997;stroke-linecap:round;stroke-linejoin:round;stroke-miterlimit:4;stroke-dasharray:none;stroke-opacity:1;visibility:visible"/><path d="m328.439 367.194 11.232-9.644M347.48 354.774l-7.809 2.776" style="fill:none;stroke:red;stroke-width:.666665;stroke-linecap:round;stroke-linejoin:round;stroke-miterlimit:4;stroke-dasharray:none;stroke-opacity:1;visibility:visible"/><path d="m433.47 290.828.518 4.276" style="fill:none;stroke:red;stroke-width:.999997;stroke-linecap:round;stroke-linejoin:round;stroke-miterlimit:4;stroke-dasharray:none;stroke-opacity:1;visibility:visible"/><path d="m344.078 473.596 2.657 2.711" style="fill:none;stroke:red;stroke-width:.666665;stroke-linecap:round;stroke-linejoin:round;stroke-miterlimit:4;stroke-dasharray:none;stroke-opacity:1;visibility:visible"/><path d="m314.152 387.962-.001 2.095M318.72 489.266l-4.375 8.09M318.989 488.931l-7.03 9.904" style="fill:none;stroke:red;stroke-width:.999997;stroke-linecap:round;stroke-linejoin:round;stroke-miterlimit:4;stroke-dasharray:none;stroke-opacity:1;visibility:visible"/><path d="m298.048 511.083.94 6.025" style="fill:none;stroke:red;stroke-width:1.99999;stroke-linecap:round;stroke-linejoin:round;stroke-miterlimit:4;stroke-dasharray:none;stroke-opacity:1;visibility:visible"/><path d="m328.223 492.259.875 5.939M320.372 499.645l-7.765-2.959" style="fill:none;stroke:red;stroke-width:.999997;stroke-linecap:round;stroke-linejoin:round;stroke-miterlimit:4;stroke-dasharray:none;stroke-opacity:1;visibility:visible"/><path d="m275.66 342.44 12.27-1.123M274.095 348.985l.95-5.777M204.402 315.17l71.257 27.27" style="fill:none;stroke:#00ff4a;stroke-width:.999997;stroke-linecap:round;stroke-linejoin:round;stroke-miterlimit:4;stroke-dasharray:none;stroke-opacity:1;visibility:visible" visibility="hidden"/><path d="m274.46 349.666 12.27-1.188M288.285 341.987l-.528 3.175M202.868 321.445l.853-5.572M203.17 322.104l-.087-.043-.086-.065-.055-.087-.053-.108-.022-.108-.01-.118.01-.13M203.721 315.873l.032-.14.053-.13.076-.12.087-.107.096-.086.11-.065.118-.044.108-.01 14.537-.065" style="fill:none;stroke:#00ff4a;stroke-width:1.99999;stroke-linecap:round;stroke-linejoin:round;stroke-miterlimit:4;stroke-dasharray:none;stroke-opacity:1;visibility:visible" visibility="hidden"/><path d="M218.938 315.106h.065l.032.01.022.011.032.011.033.01M219.122 315.149l1.145.55 1.156.54 1.166.551 1.2.562 1.197.55 1.22.552 1.243.562 1.253.55 1.275.562 1.284.561 1.297.561 1.316.563 1.34.561 1.34.562 1.37.561 1.394.573 1.415.572 1.437.572 1.447.584 1.457.572 1.48.572 1.501.584 1.512.572 1.524.583 1.543.584 1.555.572 1.566.584 1.588.572 1.598.583 1.609.584 1.63.572 1.643.582 1.652.574 1.675.582 1.685.583 1.695.572 1.705.584 1.73.572 1.738.584 1.76.572 1.762.583 1.737.56 1.75.564 1.771.56 1.772.562 1.792.562M274.332 349.644l-71.161-27.54M275.66 342.44l11.07 6.038M275.044 343.208l12.713 1.954" style="fill:none;stroke:#00ff4a;stroke-width:1.99999;stroke-linecap:round;stroke-linejoin:round;stroke-miterlimit:4;stroke-dasharray:none;stroke-opacity:1;visibility:visible" visibility="hidden"/><path d="M215.32 427.382v-.021M215.32 427.36l.012-.01.01-.02.02-.023.013-.032.021-.034.021-.044.012-.042.01-.043.012-.032.009-.032.012-.033v-.032M215.471 426.983l.021-.012.023-.021.03-.032.023-.032.032-.032.022-.034.021-.042.023-.034.021-.021.01-.032v-.021l.011-.011M215.709 426.66l.021-.021.044-.022.032-.021.034-.033.042-.032.032-.023.034-.032.021-.021.01-.012.011-.022.011-.009M216 426.411l.053-.033.066-.032.065-.022.032-.021.021-.01.034-.013.021-.009.021-.012h.011M216.735 426.81l-.735-.399M216.304 426.983l-.595-.324M215.828 427.177l-.356-.193M215.353 427.372l-.033-.012M216.703 426.216l.627.345M216.325 426.259l.756.41M209.132 429.91l69.314 30.965M290.64 453.691l-12.193 7.183M278.36 466.911l.021.108.022.097.044.075.064.065.065.044M278.36 466.911l-.357-5.11M278.447 460.874l-.097.075-.087.086-.076.108-.064.12-.055.14-.042.13-.023.14v.129" style="fill:none;stroke:#9500ff;stroke-width:.999997;stroke-linecap:round;stroke-linejoin:round;stroke-miterlimit:4;stroke-dasharray:none;stroke-opacity:1;visibility:visible" visibility="hidden"/><path d="m215.223 427.426.021-.152.054-.15.064-.153.088-.14.096-.129.109-.119.119-.097.129-.075.13-.054M216.325 426.259l.064-.021.065-.022.066-.01.053-.011h.087M216.325 426.259h0M216.703 426.216h.173l.043.012.032.01M216.033 426.356l.292-.097M216.95 426.237l.508.27M216.66 426.194l.043.021M216.325 426.259h0" style="fill:none;stroke:#9500ff;stroke-width:.999997;stroke-linecap:round;stroke-linejoin:round;stroke-miterlimit:4;stroke-dasharray:none;stroke-opacity:1;visibility:visible" visibility="hidden"/><path d="m288.878 461.338-9.99 5.919M223.367 424.099l-14.235 5.81M278.576 467.3l.076.021h.076l.075-.021.086-.043M291.471 459.361l.021-.119v-.108l-.334-5.086M291.158 454.048l-.021-.108-.022-.087-.033-.065-.043-.064-.053-.043-.076-.033M209.304 436.108l-.075-.043-.065-.065-.055-.085-.032-.098-.021-.098-.432-4.956M208.625 430.763v-.13l.021-.129.034-.13.064-.119.076-.107.096-.098.109-.086.107-.054M223.367 424.099l.097-.021.087-.01h.085l.076.022.076.042M209.304 436.108l69.272 31.192M223.788 424.132l1.112.735 1.123.734 1.134.734 1.155.724 1.177.724 1.188.724 1.199.722 1.221.714 1.243.701 1.252.712 1.263.692 1.276.703 1.306.69 1.307.691 1.328.681 1.339.68 1.361.67 1.372.67 1.383.67 1.404.658 1.424.659 1.426.648 1.447.648 1.47.637 1.467.636 1.49.639 1.514.625 1.51.616 1.545.616 1.545.616 1.567.604 1.576.595 1.588.595 1.61.593 1.609.583 1.64.572 1.642.573 1.652.572 1.675.561 1.533.498 1.544.508 1.567.496 1.567.486 1.576.486 1.588.476 1.597.474 1.61.475M278.447 460.874l10.431.464" style="fill:none;stroke:#9500ff;stroke-width:1.99999;stroke-linecap:round;stroke-linejoin:round;stroke-miterlimit:4;stroke-dasharray:none;stroke-opacity:1;visibility:visible" visibility="hidden"/></svg>