<svg xmlns="http://www.w3.org/2000/svg" baseProfile="full" height="1122.52" preserveAspectRatio="xMinYMin meet" style="width:912px;height:1303px" width="793.701" xml:space="preserve"><path d="M261.178 599.032s8.49 1.935 8.675 14.723M257.765 600.188s8.521 1.919 8.74 14.741M254.351 601.344s8.551 1.9 8.806 14.757M232.586 614.5s7.53 9.028 15.23 11.405M230.043 617.295s7.53 9.028 15.23 11.405M227.866 620.055s8.15 8.469 15.999 10.293M225.894 624.023s9.023 7.526 17.023 8.48M224.803 628.27s9.64 6.716 17.692 6.973M222.786 631.799s9.905 6.311 17.964 6.237M220.997 634.785s9.906 6.312 17.963 6.236M220.066 638.367s9.965 6.193 18.008 6.029M219.137 641.945s10.022 6.082 18.057 5.83M218.206 645.527s10.08 5.965 18.107 5.623M216.775 649.105s10.14 5.85 18.155 5.42M215.294 652.548s10.193 5.734 18.197 5.217M214.363 656.128s10.25 5.618 18.248 5.012M212.595 659.708s10.31 5.502 18.295 4.81M211.666 663.29s10.367 5.387 18.341 4.606M210.737 666.87s10.42 5.271 18.386 4.402M209.806 670.45s10.481 5.154 18.437 4.197M208.877 674.028s10.533 5.041 18.481 3.996M207.946 677.61s10.595 4.922 18.53 3.79M207.855 681.341s10.655 4.809 18.58 3.587M207.077 684.918s10.708 4.694 18.625 3.384M206.21 688.486s10.765 4.58 18.673 3.182M205.28 692.068s10.822 4.46 18.72 2.974M204.351 695.648s10.88 4.344 18.766 2.772M203.42 699.228s10.939 4.23 18.812 2.57M203.706 706.566s10.747 3.204 18.13 1.024M203.549 710.181s10.99 2.208 18.145-.64M204.358 714.464s11.19.676 17.89-3.127M205.446 718.861s11.172-.952 17.25-5.687M207.946 722.261s10.068-2.255 15.025-7.325M209.965 726.324s9.73-3.44 14.054-9.066M212.007 729.809s9.32-4.441 13.033-10.49M202.489 702.761s11.348 4.245 19.461 2.44M229.825 722.532s5.917 4.856 1.072 14.977M232.937 722.534s5.917 4.854 1.072 14.976M236.326 722.868s1.124.92 1.994 2.796M257.458 721.904c1.501 1.921 4.03 6.756.232 14.689M259.863 720.745s6.222 5.103 1.127 15.744M316.175 706.784s-2.79-.439-10.162-10.238M291.39 708.117s5.464-.679 11.2 9.984M294.393 706.488s5.02-.439 10.76 10.222M297.31 704.428s5.02-.439 10.76 10.222M299.682 702.605s4.987-.73 11.337 9.581M302.326 700.47s5.001-.709 11.437 9.741M289.158 709.594s7.79.102 10.362 11.228M286.323 711.053s8.044.915 9.548 12.69M284.106 712.396s7.801 2.164 7.443 14.028M280.57 713.385s7.485 3.08 5.713 14.816M277.658 714.617s7.087 3.91 3.992 15.37M274.933 716.448s6.576 4.72 2.147 15.732M271.666 717.653s6.259 5.133 1.133 15.839M267.515 718.281s6.259 5.133 1.135 15.839M263.24 720.042s6.257 5.134 1.132 15.839M271.693 596.572s8.407 1.99 8.48 14.672M268.157 597.784s8.433 1.972 8.543 14.69" style="fill:none;stroke:red;stroke-width:.999997;stroke-linecap:round;stroke-linejoin:round;stroke-miterlimit:10;stroke-dasharray:none;stroke-opacity:1;visibility:visible"/><path d="M264.743 598.939s8.462 1.954 8.61 14.708M228.991 722.358s3.927 6.579-4.05 14.455M342.9 570.181s7.827 2.352 7.192 14.332M339.66 572.441s7.822 2.352 7.187 14.332M336.247 573.599s7.855 2.333 7.253 14.349M333.27 575.601s7.885 2.316 7.317 14.367M329.855 576.759s7.916 2.296 7.385 14.384M326.445 577.913s7.944 2.279 7.445 14.402M323.033 579.07s7.972 2.26 7.512 14.417M319.633 581.221s8 2.244 7.577 14.435M316.22 582.377s8.03 2.224 7.644 14.451M312.809 583.535s8.057 2.205 7.705 14.468M309.395 584.69s8.087 2.188 7.77 14.485M305.983 585.845s8.115 2.171 7.837 14.502M302.573 587.001s8.142 2.152 7.897 14.519M299.16 588.157s8.172 2.135 7.964 14.536M295.746 589.313s8.203 2.117 8.028 14.555M292.333 590.468s8.233 2.099 8.094 14.57M288.923 591.625s8.259 2.082 8.159 14.587M285.509 592.783s8.289 2.061 8.224 14.604M282.098 593.937s8.319 2.043 8.288 14.623M278.686 595.095s8.347 2.025 8.35 14.637M275.274 596.25s8.376 2.006 8.416 14.654M225.68 719.828s1.035 7.598-9.388 11.694" style="fill:none;stroke:red;stroke-width:.999997;stroke-linecap:round;stroke-linejoin:round;stroke-miterlimit:10;stroke-dasharray:none;stroke-opacity:1;visibility:visible"/><path d="M227.531 721.182s2.346 6.198-6.72 13.038M348.287 568.99s6.385 4.26 2.55 14.843" style="fill:none;stroke:red;stroke-width:.999997;stroke-linecap:round;stroke-linejoin:round;stroke-miterlimit:10;stroke-dasharray:none;stroke-opacity:1;visibility:visible"/><path d="M354.114 570.565s3.906 6.448-3.89 14.255M351.92 585.82c1.861-.385 3.67-.97 5.062-1.853M331.827 637.81s.524.161 1.37.374M331 641.357s.694.224 1.781.5M330.17 644.908s.595.199 1.542.456M329.34 648.455s.56.194 1.46.452M328.513 652.005s.594.215 1.542.498M327.682 655.553s.64.239 1.65.55M326.855 659.101s.708.275 1.81.623M326.026 662.652s.603.241 1.561.564M324.253 666.201s.934.389 2.326.847M323.425 669.75s.832.355 2.093.797M308.597 695.48s5.243 6.898 9.43 9.048M310.053 692.906s4.946 6.508 8.897 8.536M311.809 691.646s4.745 4.94 8.684 5.711M314 688.982s3.455 3.554 6.879 5.27M315.711 686.854s2.96 2.116 6.179 3.52M317.914 683.708s2.076 1.484 4.641 2.79M318.715 680.488s2.108 1.11 4.703 2.041M320.309 677.02s1.446.64 3.417 1.284M322.598 673.298s1.22.54 2.945 1.127M236.26 612.067s8.526 7.028 11.08 12.257M237.397 610.627s9.125.162 11.886 12.87M241.52 608.175s8.402.76 10.124 12.718M244.251 606.537s8.409.76 10.127 12.718M248.098 604.321s8.288 1.61 8.792 13.682M251.193 602.765s8.285 1.611 8.79 13.683" style="fill:none;stroke:red;stroke-width:.999997;stroke-linecap:round;stroke-linejoin:round;stroke-miterlimit:10;stroke-dasharray:none;stroke-opacity:1;visibility:visible"/><path d="M357.888 574.796s.698 6.56-6.286 8.756" style="fill:none;stroke:red;stroke-width:.999997;stroke-linecap:round;stroke-linejoin:round;stroke-miterlimit:10;stroke-dasharray:none;stroke-opacity:1;visibility:visible"/><path d="M261.574 601.86s-1.753 7.836-4.508 19.788M255.706 627.525c-5.967 25.728-15.32 65.001-22.423 89.91M231.77 722.634c-2.14 7.196-4.016 12.739-5.44 15.739M257.077 602.999s-1.767 7.89-4.535 19.91M251.41 627.801c-5.895 25.442-15.245 64.76-22.403 89.985M248.082 605.276s-5.77 25.796-12.822 55.164M233.82 666.414a2545.051 2545.051 0 0 1-4.47 18.182M228 689.974a1411.013 1411.013 0 0 1-4.747 18.296M245.134 629.135a1407.027 1407.027 0 0 0 18.823-4.816M248.178 624.633c5.073-1.29 11-2.826 17.439-4.553M342.52 581.372S330.3 636 319.693 676.765M338.022 582.51s-14.31 63.97-25.399 105.12M329.026 584.788s-26.35 117.794-35.244 136.513M324.53 585.925s-26.35 117.796-35.244 136.513M315.538 588.201s-18.001 80.473-29.27 118.961M311.042 589.34s-17.89 79.97-29.165 118.597M302.047 591.616s-26.352 117.796-35.245 136.513M297.549 592.755s-26.352 117.795-35.246 136.513M288.557 595.032s-26.354 117.794-35.247 136.513M284.06 596.17s-26.355 117.793-35.248 136.511M275.063 598.445s-26.349 117.796-35.242 136.513" style="fill:none;stroke:red;stroke-width:.999997;stroke-linecap:round;stroke-linejoin:round;stroke-miterlimit:4;stroke-dasharray:none;stroke-opacity:1;visibility:visible"/><path d="M270.567 599.584s-26.35 117.796-35.244 136.513" style="fill:none;stroke:red;stroke-width:.999997;stroke-linecap:round;stroke-linejoin:round;stroke-miterlimit:4;stroke-dasharray:none;stroke-opacity:1;visibility:visible"/><path d="m319.031 652.468 7.934-3.159v3.751l-8.215 3.265.281-3.857M325.433 626.303l7.933-3.16v3.751l-8.216 3.266.283-3.857M331.748 599.775l7.935-3.159v3.75l-8.216 3.265.281-3.856M304.809 608.316l7.974-1.873v3.749l-8.132 2.03.158-3.906M315.555 617.288l7.472-2.575v3.75l-8.361 2.84.889-4.015M287.27 625.488l7.97-1.875v3.75l-8.13 2.032.16-3.907M271.415 641.368l7.975-1.875v3.75l-8.132 2.032.157-3.907M292.086 659.425l7.973-1.874v3.749l-8.129 2.031.156-3.906M281.153 650.601l7.973-1.874v3.75l-8.13 2.03.157-3.906M265.486 665.788l7.972-1.874v3.75l-8.13 2.03.158-3.906M259.1 690.828l7.97-1.874v3.75l-8.132 2.03.162-3.906M269.133 700.622l7.972-1.872v3.75l-8.131 2.028.159-3.906M241.986 705.958l7.974-1.873v3.75l-8.133 2.029.159-3.906M232.098 696.27l7.972-1.874v3.75l-8.132 2.03.16-3.906M302.96 668.566l7.974-1.873v3.75l-8.134 2.029.16-3.906M295.862 694.272l7.972-1.874v3.75l-8.132 2.03.16-3.906M286.08 684.872l7.97-1.874v3.75l-8.13 2.03.16-3.906M276.297 675.854l7.972-1.873v3.75l-8.132 2.029.16-3.906M248.32 681.465l7.97-1.873v3.75l-8.13 2.029.16-3.906M238.653 671.993l7.972-1.873v3.75l-8.13 2.03.158-3.907M254.986 656.808l7.972-1.874v3.75l-8.13 2.03.158-3.906M243.986 647.827l7.972-1.875v3.75l-8.13 2.032.158-3.907M260.194 632.468l7.975-1.873v3.749l-8.134 2.03.159-3.906M277.537 616.583l7.97-1.874v3.751l-8.132 2.029.162-3.906" style="fill:none;fill-opacity:1;fill-rule:nonzero;stroke:red;stroke-width:1.33333;visibility:visible"/><path d="M208.511 726.05s27.071-3.978 57.307-9.982M272.306 714.758c26.683-5.484 54.484-12.406 67.506-19.468M209.54 722.125s9.41-1.42 23.326-3.84M232.866 718.284a1261.917 1261.917 0 0 0 34.661-6.508M273.425 710.56c26.61-5.58 54.305-12.595 67.271-19.694M207.933 715.338s8.761-1.286 21.884-3.502M235.311 710.894a1293.653 1293.653 0 0 0 20.771-3.762M261.7 706.054a927.112 927.112 0 0 0 20.34-4.192M289.43 700.208c20.559-4.718 39.663-10.132 49.805-15.632M208.96 711.413s8.714-1.315 21.777-3.572M236.817 706.778a1298.817 1298.817 0 0 0 20.773-3.854M263.233 701.812a926.855 926.855 0 0 0 20.397-4.298M290.303 695.992c20.568-4.8 39.683-10.295 49.813-15.839M225.749 701.072c5.65-.99 12.618-2.25 20.341-3.724M252.178 696.17a1127.22 1127.22 0 0 0 20.893-4.288M278.42 690.712a699.516 699.516 0 0 0 21.916-5.208M305.73 684.09c2.53-.68 5.01-1.367 7.417-2.06M227.106 697.028a1394.418 1394.418 0 0 0 20.05-3.75M253.553 692.014a1127.43 1127.43 0 0 0 20.65-4.328M279.102 686.596a707.829 707.829 0 0 0 21.279-5.124M306.68 679.801c2.754-.75 5.444-1.51 8.047-2.277M214.098 691.786s8.844-1.508 22.05-4.054M242.066 686.578a1295.45 1295.45 0 0 0 20.684-4.253M268.76 681.018a905.702 905.702 0 0 0 20.76-4.813M295.75 674.648c7.304-1.862 14.41-3.806 20.973-5.8M322.96 666.886l.908-.298M215.126 687.86s8.779-1.532 21.901-4.112M242.954 682.57a1299.31 1299.31 0 0 0 20.693-4.338M269.585 676.92a910.512 910.512 0 0 0 21.122-4.986M296.614 670.433c7.346-1.901 14.496-3.888 21.095-5.92M323.818 662.564c.427-.142.85-.284 1.27-.426M232.006 677.152c5.708-1.139 12.75-2.58 20.544-4.258M258.782 671.538a1110.73 1110.73 0 0 0 20.688-4.758M285.835 665.224a687.874 687.874 0 0 0 20.59-5.43M312.466 658.05c5.434-1.61 10.607-3.252 15.344-4.91M233.317 673.108a1402.18 1402.18 0 0 0 19.641-4.144M259.46 667.526a1109.237 1109.237 0 0 0 20.852-4.876M285.986 661.241a685.27 685.27 0 0 0 21.48-5.741M220.265 668.234s8.813-1.713 21.965-4.564M247.8 662.45a1292.827 1292.827 0 0 0 21.526-4.95M275.215 656.073a893.603 893.603 0 0 0 21.018-5.406M330.222 640.217c8.058-2.91 14.874-5.85 19.618-8.716M221.293 664.308s8.776-1.74 21.877-4.634M249.138 658.345a1288.322 1288.322 0 0 0 20.79-4.865M275.573 652.092a906.782 906.782 0 0 0 21.349-5.568M330.682 636.04c8.245-2.997 15.22-6.023 20.042-8.961M238.549 653.159c5.434-1.216 12.038-2.73 19.33-4.471M264.129 647.179a1122.639 1122.639 0 0 0 21.338-5.424M319.549 631.839c13.825-4.494 25.78-9.164 32.945-13.606M239.06 649.29a1380.49 1380.49 0 0 0 20.015-4.705M265.72 642.948c6.6-1.641 13.6-3.441 20.69-5.35M319.727 627.795c14.13-4.625 26.373-9.435 33.65-13.985M226.431 644.681s8.442-1.844 21.115-4.89M254.346 638.135a1278.517 1278.517 0 0 0 20.644-5.25M280.926 631.303a899.236 899.236 0 0 0 20.85-5.874M308.498 623.405c7.428-2.28 14.62-4.635 21.195-7.013M335.38 614.27c8.142-3.14 15.021-6.285 19.766-9.304M227.458 640.756s8.579-1.907 21.419-5.05M254.545 634.307a1296.02 1296.02 0 0 0 21.385-5.52M281.877 627.176a892.836 892.836 0 0 0 21.1-6.036M308.786 619.37c7.784-2.412 15.317-4.91 22.17-7.425M337.015 609.644c7.817-3.08 14.419-6.156 19.013-9.103M270.583 622.553a1117.333 1117.333 0 0 0 20.618-5.753M296.806 615.152a675.545 675.545 0 0 0 21.844-6.86M325.12 606.079c13.742-4.819 25.61-9.771 32.677-14.384M271.317 618.537a1100.999 1100.999 0 0 0 20.965-5.934M298.158 610.852a673.812 673.812 0 0 0 21.952-7.002M325.473 601.993c13.971-4.937 26.057-10.013 33.207-14.721M284.956 718.473h0M219.57 729.824h-.013M219.63 733.352h0M225.916 734.552h0" style="fill:none;stroke:red;stroke-width:.999997;stroke-linecap:round;stroke-linejoin:round;stroke-miterlimit:4;stroke-dasharray:none;stroke-opacity:1;visibility:visible"/><path d="m213.52 709.352-.047.54-.06.54-.06 1.056-.036 1.056v1.032l.047 1.02.073 1.008.108.996.155.984.17.9.19.888.228.876.253.852.276.84.312.816.335.792.361.78.347.696.373.672.395.66.408.648.432.624.456.613.47.599.49.576.493.54.516.528.527.504.54.492.553.456.563.456.588.42.6.408.66.408.672.396.685.372.708.348.707.312.733.3.732.264.743.24.84.24.852.204.864.18.876.144.888.12.901.072.91.048.913.024M355.205 575.253l-.612.42-.648.42-.672.432-.696.42-.721.432-.744.432-.767.444-.804.444-.828.444-.852.444-.876.456-.9.444-.937.468-.948.456-.983.468-1.008.468-1.044.48-1.056.48-1.092.48-1.128.48-1.141.492-1.176.492-1.199.492-1.225.504-1.259.504-1.285.516-1.308.516-1.343.516-1.368.528-1.405.516-1.415.54-1.465.528-1.475.54-1.513.54-1.523.552-1.56.54-1.573.552-1.595.552-1.632.552-1.644.552-1.668.552-1.693.564-1.715.564-1.741.552-1.763.564-1.776.576-1.812.564-1.836.576-1.848.564-1.884.576-1.896.576-1.92.576-1.945.588-1.968.576-1.99.576-2.018.588-2.039.588-2.052.588-2.09.588-2.1.588-2.134.588-2.15.588-2.171.588-2.195.588M263.38 608.625l-.984.288-.984.312-.972.336-.996.384-.984.408-.985.444-.984.468-.995.516-.984.54-.985.576-.983.6-.972.624-.948.66-.948.684-.935.72-.925.732-.901.768-.455.396-.443.408-.445.408-.433.42-.431.42-.433.432-.42.432-.419.432-.41.444-.406.456-.396.456-.384.456-.383.456-.385.468-.36.48-.372.48-.35.48-.36.48-.334.492-.336.504-.325.504-.324.504-.31.516-.313.516-.3.528-.276.516-.288.528-.264.528-.264.54-.252.528M236.045 631.893l-.804 1.776-.793 1.776-.779 1.776-.768 1.776-.756 1.776-.732 1.764-.73 1.776-.71 1.764-.648 1.644-.636 1.644-.624 1.632-.624 1.644-.6 1.632-.59 1.644-.574 1.632-.564 1.632-.517 1.5-.492 1.488-.491 1.5-.481 1.5-.468 1.488-.455 1.488-.444 1.5-.445 1.488-.419 1.464-.41 1.476-.406 1.464L219.7 677l-.383 1.464-.372 1.464-.36 1.464-.36 1.464-.372 1.572-.348 1.572-.35 1.572-.335 1.572-.323 1.572-.313 1.56-.299 1.572-.29 1.56-.31 1.752-.288 1.74-.288 1.752-.264 1.74-.253 1.74-.239 1.74-.216 1.74-.217 1.74M236.14 737.313l-.155.24-.168.216-.181.18-.19.132-.218.108-.216.06-.216.024M253.624 602.373h0M343.373 588.897l-.312 1.44-.313 1.452-.311 1.464-.313 1.452-.324 1.464-.324 1.476-.323 1.464-.336 1.476-.312 1.368-.313 1.38-.312 1.38-.312 1.38-.324 1.38-.323 1.392-.325 1.392-.323 1.38-.3 1.284-.3 1.272-.3 1.284-.312 1.284-.313 1.284-.3 1.284-.312 1.284-.311 1.284-.625 2.544-.623 2.544-.624 2.544-.636 2.556-.337 1.368-.348 1.38-.347 1.368-.348 1.392-.35 1.38-.346 1.392-.361 1.404-.36 1.404-.396 1.572-.408 1.584-.407 1.584-.42 1.596-.41 1.596-.418 1.608-.421 1.608-.419 1.62M327.22 655.94l-.203.756-.206.768-.216.78-.216.792-.227.792-.23.804-.226.804-.239.804-.216.744-.229.756-.228.744-.228.744-.228.744-.241.744-.227.732-.24.732-.216.66-.215.66-.229.648-.216.636-.217.624-.227.624-.216.612-.217.6-.215.576-.216.576-.228.588-.217.564-.227.576-.23.564-.226.552-.228.552-.252.588-.25.576-.254.564-.252.552-.252.54-.252.528-.252.528-.264.504-.276.54-.288.528-.29.516-.275.492-.287.468-.276.444-.276.432-.276.408M238.085 726.333h1.33M256.864 725.265l1.97-.24 1.942-.276 1.933-.312 1.907-.324 1.885-.36 1.86-.372 1.848-.408 1.823-.444 1.681-.42 1.656-.456 1.632-.468 1.619-.492 1.608-.516 1.584-.54 1.573-.564 1.547-.588 1.404-.564 1.38-.576 1.37-.588 1.355-.612 1.332-.624 1.307-.648 1.284-.66 1.272-.684 1.237-.684 1.212-.696 1.199-.72 1.176-.732 1.164-.744 1.141-.768 1.127-.78 1.105-.792 1.175-.876 1.14-.888 1.13-.912 1.115-.924 1.09-.936 1.069-.96 1.044-.984 1.021-.984 1.127-1.14 1.104-1.152 1.068-1.164 1.056-1.2 1.02-1.212.997-1.236.97-1.26.949-1.272" style="fill:none;stroke:red;stroke-width:.999997;stroke-linecap:round;stroke-linejoin:round;stroke-miterlimit:4;stroke-dasharray:none;stroke-opacity:1;visibility:visible"/><path d="m315.81 686-.853 1.188-.863 1.176-.888 1.164-.913 1.14-.936 1.128-.96 1.104-.984 1.092-1.008 1.08-.947.972-.972.96-.985.948-1.008.936-1.032.912-1.044.9-1.055.876-1.08.864-1.008.768-1.021.768-1.03.744-1.046.732-1.056.708-1.079.708-1.093.684-1.103.672-1.093.636-1.116.636-1.128.612-1.139.6-1.141.588-1.164.564-1.175.552-1.176.54-1.284.564-1.31.552-1.331.528-1.343.516-1.357.504-1.379.492-1.405.468-1.427.444-1.608.492-1.633.468-1.655.444-1.68.42-1.705.396-1.715.384-1.752.36-1.765.336M240.616 722.324l-1.728.084-1.62.048-1.5.048-1.476.024-1.608.012h-1.812M230.153 724.377l.659.324.673.3.636.24.636.228.599.18.612.168.602.132.611.12.672.096.683.084.768.06.781.024" style="fill:none;stroke:red;stroke-width:.999997;stroke-linecap:round;stroke-linejoin:round;stroke-miterlimit:4;stroke-dasharray:none;stroke-opacity:1;visibility:visible"/><path d="m230.873 722.54-.72-.024-.648-.036-.601-.06-.587-.084-.625-.096-.683-.144M252.64 613.436l.013-.012M348.833 568.749l-.012-.012M234.82 738.272h-.024" style="fill:none;stroke:red;stroke-width:.999997;stroke-linecap:round;stroke-linejoin:round;stroke-miterlimit:4;stroke-dasharray:none;stroke-opacity:1;visibility:visible"/><path d="m261.88 617.205-.564.168-.565.18-.563.204-.576.216-.577.24-.588.264-.575.276-.588.288-.576.312-.577.324-.575.348-.565.36-.576.372-.563.396-.564.408-.552.432-.552.432-.54.456-.541.48-.528.48-.503.48-.493.504-.492.516-.479.528-.47.54-.454.552-.443.564-.422.576-.419.576-.396.576-.384.612-.361.612-.359.612-.336.624-.313.636-.288.624M344.429 588.357l-.588.3-.912.456-.924.456-.96.468-.984.468-1.008.468-1.033.48-1.055.48-1.08.48-1.104.48-1.128.48-1.141.492-1.176.492-1.2.492-1.224.504-1.247.504-1.272.504-1.308.504-1.32.516-1.344.516-1.38.516-1.393.528-1.404.516-1.415.516-1.452.528-1.476.528-1.49.528-1.522.54-1.536.528-1.572.539-1.585.541-1.608.552-1.63.54-1.658.552-1.668.552-1.643.528-1.668.54-1.681.54-1.703.54-1.728.54-1.741.54-1.763.552-1.776.539-1.8.553-1.057.324M272.404 614.241l-.684.192-1.932.563-1.956.552-1.968.553-1.98.552-2.004.552M243.964 632.973l-.996 2.244-.972 2.232-.948 2.232-.936 2.244-.912 2.232-.888 2.244-.876 2.244-.85 2.232-.829 2.244-.805 2.244-.78 2.232-.768 2.232-.744 2.232-.708 2.232-.695 2.232-.685 2.22-.648 2.232-.623 2.22-.612 2.22-.577 2.22-.564 2.208-.54 2.208-.516 2.208-.492 2.196-.468 2.196-.444 2.184-.407 2.064-.372 2.052-.362 2.04-.335 2.04-.324 2.04-.299 2.028-.276 2.028-.253 2.016M222.46 707.145l-.072.66-.06.66-.036.66-.012.648v.636l.024.636.05.624.06.612.071.6.095.588.12.588.132.588.144.576.17.564.189.54.206.54.216.528.239.516.252.492.264.48.276.468.288.444.348.492.348.468.373.444.396.432.406.408.422.396.432.372.443.348.456.336.481.312.479.3.493.276M348.82 568.737h0M222.736 735.357l-6.576-3.492M355.373 571.785l.239.12.229.144.216.156.19.18.182.18.167.18.145.204.144.228.132.24.107.24.097.24.083.24.06.228.084.372.061.36.036.372.035.372.013.396v.804l-.025.468-.035.492-.048.504-.048.528-.073.552-.072.576-.096.6-.095.624-.11.636-.118.66-.132.684-.132.696-.144.72-.12.576-.121.576-.131.6-.133.6-.299 1.308M355.373 571.785l-6.54-3.036M234.796 738.272l-.815-.012-.828-.036-.818-.06-.815-.084-.805-.108-.802-.132-.793-.156-.792-.18-.78-.216-.768-.228-.755-.252-.745-.288-.732-.3-.612-.264-.612-.3-.588-.3M318.989 704.66l-.841.996-.863.984-.877.984-.888.96-.911.948-.925.948-.936.924-.971.912-.973.9-.995.876-1.02.876-1.021.852-1.044.852-1.128.876-1.151.864-1.164.84-1.177.828-1.21.816-1.213.792-1.248.78-1.25.756-1.282.744-1.297.72-1.308.708-1.33.696-1.345.672-1.356.648-1.368.624-1.392.612-1.404.6-1.428.576-1.44.552-1.464.54-1.476.528-1.49.504-1.51.48-1.524.468-1.536.444-1.55.42-1.582.408-1.584.384-1.61.372-1.618.36-1.644.324-1.644.312-1.668.288-1.68.276-1.705.252-1.704.24-1.727.216-.265.024M235.853 738.272h-1.033M216.16 731.865l-.696-.384-.684-.408-.672-.42-.648-.456-.65-.48-.634-.492-.612-.516-.6-.54-.588-.552-.565-.576-.539-.6-.528-.612-.516-.636-.481-.648-.479-.66-.444-.684-.432-.708-.408-.72-.397-.732-.371-.756-.336-.768-.324-.792-.3-.792-.276-.816-.252-.816-.228-.84-.204-.804-.167-.828-.157-.84-.119-.84-.11-.864-.083-.864-.06-.876-.024-.876-.012-.888.012-.888.048-.9.06-.9.096-.9M344.861 569.36l.36-.24.383-.216.42-.18.456-.156.264-.06.264-.048.288-.012h.289l.24.012.25.036.254.06.25.084.242.096M202.78 704.193l.25-2.172.278-2.172.3-2.184.323-2.184.349-2.196.36-2.208.395-2.208.422-2.208.431-2.208.468-2.22.479-2.22.505-2.22.54-2.232.55-2.232.578-2.244.6-2.244.636-2.256.648-2.244.672-2.256.684-2.244.72-2.256.744-2.256.756-2.256.79-2.256.806-2.256.828-2.256.84-2.244.876-2.256.888-2.244.912-2.256.937-2.244.947-2.244.972-2.244.995-2.244 1.009-2.244M254.37 601.544l2.088-.552 2.063-.54 2.052-.54 2.029-.552 2.016-.54 1.992-.552 1.979-.54 1.957-.54 1.93-.552 1.922-.54 1.895-.54 1.872-.54 1.86-.54 1.824-.54 1.825-.54 1.787-.528 1.776-.54 1.753-.528 1.727-.54 1.705-.528 1.68-.528 1.667-.528 1.632-.516 1.62-.528 1.597-.516 1.559-.516 1.524-.516 1.513-.504 1.476-.504 1.45-.492 1.44-.504 1.406-.492 1.392-.492 1.355-.492 1.345-.48 1.308-.492 1.295-.48 1.26-.468 1.236-.48 1.213-.468 1.188-.456 1.152-.468 1.138-.456 1.106-.456 1.09-.444 1.056-.456 1.046-.444 1.008-.432.996-.444.96-.432.934-.42.912-.432.888-.42.852-.42.842-.408.816-.408.78-.408.768-.396.732-.396.72-.396.684-.396.658-.384.638-.384.612-.372.588-.372.444-.288.444-.3.42-.288M225.269 626.085l.37-.768.374-.768.407-.756.421-.756.432-.756.456-.744.467-.732.481-.732.505-.708.515-.708.528-.708.54-.684.576-.696.588-.684.588-.672.613-.66.622-.648.637-.636.647-.624.661-.612.659-.6.685-.588.684-.576.683-.552.745-.576.755-.564.756-.54.781-.528.768-.516.792-.492.78-.48.79-.456.806-.432.792-.42.803-.408.793-.372.827-.372.828-.36.828-.324.828-.312.828-.288.817-.264.828-.252.816-.216" style="fill:none;stroke:red;stroke-width:1.99999;stroke-linecap:round;stroke-linejoin:round;stroke-miterlimit:4;stroke-dasharray:none;stroke-opacity:1;visibility:visible"/><path d="m344.437 588.383-.024.12.013.13.024.158.048.168.072.168.083.18.096.18M272.857 616.175l-.095-.216-.073-.216-.047-.216-.025-.193v-.18l.036-.156" style="fill:none;stroke:red;stroke-width:.999997;stroke-linecap:round;stroke-linejoin:round;stroke-miterlimit:4;stroke-dasharray:none;stroke-opacity:1;visibility:visible"/><path d="m344.606 588.154-.073.05-.06.07-.036.11M272.653 614.998l.06-.13.073-.097.108-.06" style="fill:none;stroke:red;stroke-width:.999997;stroke-linecap:round;stroke-linejoin:round;stroke-miterlimit:4;stroke-dasharray:none;stroke-opacity:1;visibility:visible"/><path d="m277.537 616.583-7.684-2.828M277.537 616.583l-11.032-1.654M277.537 616.583l-14.38-.482M230.043 617.295l-4.149 6.728M214.363 656.128l5.703-17.761M214.363 656.128l4.774-14.183M214.363 656.128l3.843-10.601M214.363 656.128l2.412-7.023M214.363 656.128l.931-3.58M214.363 656.128l-1.768 3.58M214.363 656.128l-2.697 7.162M214.363 656.128l-3.626 10.742M214.363 656.128l-4.557 14.322M232.006 677.152l-3.763-2.505M214.363 656.128l-5.486 17.9M232.006 677.152l-4.648.872M232.006 677.152l-5.53 4.248M232.006 677.152l-5.571 7.776M227.106 697.028l-1.404-8.726M227.106 697.028l-2.223-5.36M203.549 710.181l1.731-18.113M227.106 697.028 224 695.042M203.549 710.181l.802-14.533M225.749 701.072l-2.632-2.652M203.549 710.181l-.129-10.953M225.749 701.072l-3.517.726M207.933 715.338l-3.575-.874M207.933 715.338l-2.487 3.523M204.358 714.464l5.607 11.86M203.549 710.181l-1.06-7.42M225.749 701.072l-3.799 4.129M320.493 697.357l-4.318 9.427M302.326 700.47l-10.936 7.647M302.326 700.47l-7.933 6.018M302.326 700.47l-5.016 3.958M302.326 700.47l-2.644 2.135M310.053 692.906l-7.727 7.564M297.31 704.428l-8.152 5.166M297.31 704.428l-10.987 6.625M289.158 709.594l-5.052 2.802M286.323 711.053l5.226 15.371M289.158 709.594l-8.588 3.791M286.323 711.053l-.04 17.148M291.39 708.117l-13.732 6.5M291.39 708.117l-16.457 8.331M280.57 713.385l-3.49 18.795M277.537 616.583l2.636-5.339M277.537 616.583l-.837-4.109M277.537 616.583l-4.184-2.936M348.821 568.736l-5.921 1.445M348.821 568.736l-9.161 3.705M331.748 599.775l15.099-13.002M331.748 599.775l8.839-9.807M331.748 599.775l5.492-8.632M331.748 599.775l2.142-7.46M331.748 599.775l-1.203-6.288M331.748 599.775l-4.538-4.119M331.748 599.775l-7.884-2.947M297.549 592.755l15.26-9.22M331.748 599.775l-11.234-1.772M297.549 592.755l11.846-8.065M331.748 599.775l-14.583-.6M297.549 592.755l8.434-6.91M304.809 608.316l9.011-7.969M297.549 592.755l5.024-5.754M304.809 608.316l5.661-6.796M297.549 592.755l1.611-4.598M304.809 608.316l2.315-5.623M297.549 592.755l-1.803-3.442M304.809 608.316l-1.035-4.448M297.549 592.755l-5.216-2.287M304.809 608.316l-4.382-3.278M297.549 592.755l-8.626-1.13M304.809 608.316l-7.727-2.104M297.549 592.755l-12.04.028M304.809 608.316l-11.076-.929M297.549 592.755l-15.451 1.182M304.809 608.316l-14.423.244M297.549 592.755l-18.863 2.34M277.537 616.583l9.499-6.851M229.825 722.532l-2.294-1.35M344.861 569.36l12.121 14.607M332.781 641.857l-.954-4.047M333.197 638.184 331 641.357M332.781 641.857l-2.611 3.051M331.712 645.364l-2.372 3.091M330.8 648.907l-2.287 3.098M329.332 656.103l-2.477 2.998M328.665 659.724l-2.639 2.928M326.579 667.048l-3.154 2.702M311.809 691.646l2.191-2.664M318.715 680.488l-.801 3.22M322.555 686.498l-3.84-6.01M325.518 670.547l-2.92 2.751M230.043 617.295l6.217-5.228M257.765 600.188l-16.245 7.987M257.765 600.188l-13.514 6.349M260.194 632.468l-3.304-14.465M260.194 632.468l-.211-16.02" style="fill:none;stroke:red;stroke-width:.999997;stroke-linecap:round;stroke-linejoin:round;stroke-miterlimit:10;stroke-dasharray:none;stroke-opacity:1;visibility:visible"/><path d="m254.351 601.344 7.223.516M255.706 627.525l1.36-5.877M252.542 622.909l3.164 4.616M254.351 601.344l2.726 1.655M251.41 627.801l1.132-4.892M252.542 622.909l-1.132 4.892M231.77 722.634l-2.763-4.848M233.82 666.414l1.44-5.974M235.26 660.44l-1.44 5.974M228 689.974l1.35-5.378M229.35 684.596l-1.35 5.378M231.77 722.634l-8.517-14.364M270.583 622.553l-6.626 1.766M261.88 617.205l3.737 2.875M338.022 582.51l4.498-1.138M343.373 588.897l-5.351-6.387M323.033 579.07l5.993 5.718M280.57 713.385l13.212 7.916M323.033 579.07l1.497 6.855M280.57 713.385l8.716 9.053M323.033 579.07l-7.495 9.131M323.033 579.07l-11.991 10.27M272.653 614.998l2.41-16.553M272.653 614.998l-2.086-15.414" style="fill:none;stroke:red;stroke-width:.999997;stroke-linecap:round;stroke-linejoin:round;stroke-miterlimit:4;stroke-dasharray:none;stroke-opacity:1;visibility:visible"/><path d="m327.81 653.14-8.779-.672M329.693 616.392l-4.26 9.911M330.956 611.945l.792-12.17M327.21 595.656l4.538 4.119M302.977 621.14l1.832-12.824M303.774 603.868l1.035 4.448M318.65 608.292l-3.095 8.996M291.201 616.8l-3.931 8.688M283.69 610.904l3.58 14.584M274.99 632.885l-3.575 8.483M296.233 650.667l-4.147 8.758M285.467 641.755l-4.314 8.846M269.326 657.5l-3.84 8.288M262.75 682.325l-3.65 8.503M273.071 691.882l-3.938 8.74M246.09 697.348l-4.104 8.61M222.46 707.145l19.526-1.187M224 695.042l8.098 1.228M222.46 707.145l9.638-10.875M306.425 659.794l-3.465 8.772M302.326 700.47l-6.464-6.198M289.52 676.205l-3.44 8.667M279.47 666.78l-3.173 9.074M252.55 672.894l-4.23 8.571M242.23 663.67l-3.577 8.323M257.879 648.688l-2.893 8.12M247.546 639.791l-3.56 8.036M263.957 624.319l-3.763 8.149M256.89 618.003l3.304 14.465M272.404 614.241l5.133 2.342M276.7 612.474l.837 4.109" style="fill:none;fill-opacity:1;fill-rule:nonzero;stroke:red;stroke-width:1.33333;visibility:visible"/><path d="m272.306 714.758-6.488 1.31M267.527 711.776l4.779 2.982M272.306 714.758l-4.779-2.982M267.527 711.776l5.898-1.216M221.95 705.201l-14.017 10.137M235.311 710.894l-5.494.942M230.737 707.841l4.574 3.053M261.7 706.054l-5.618 1.078M257.59 702.924l4.11 3.13M289.43 700.208l-7.39 1.654M283.63 697.514l5.8 2.694M221.95 705.201l-12.99 6.212M235.311 710.894l-4.574-3.053M230.737 707.841l6.08-1.063M261.7 706.054l-4.11-3.13M257.59 702.924l5.643-1.112M289.43 700.208l-5.8-2.694M283.63 697.514l6.673-1.522M222.232 701.798l3.517-.726M252.178 696.17l-6.088 1.178M247.156 693.278l5.022 2.892M278.42 690.712l-5.349 1.17M274.203 687.686l4.217 3.026M305.73 684.09l-5.394 1.414M300.336 685.504l5.394-1.414M306.68 679.801l6.467 2.229M224 695.042l3.106 1.986M252.178 696.17l-5.022-2.892M247.156 693.278l6.397-1.264M279.102 686.596l-4.899 1.09M274.203 687.686l4.899-1.09M305.73 684.09l-5.349-2.618M300.381 681.472l6.299-1.671M305.73 684.09l8.997-6.566M215.126 687.86l-1.028 3.926M242.066 686.578l-5.918 1.154M237.027 683.748l5.039 2.83M268.76 681.018l-6.01 1.307M263.647 678.232l5.113 2.786M295.75 674.648l-6.23 1.557M290.707 671.934l5.043 2.714M322.96 666.886l-6.237 1.962M325.088 662.138l-2.128 4.748M224.883 691.668l-9.757-3.808M242.066 686.578l-5.039-2.83M237.027 683.748l5.927-1.178M268.76 681.018l-5.113-2.786M263.647 678.232l5.938-1.312M295.75 674.648l-5.043-2.714M290.707 671.934l5.907-1.501M322.96 666.886l-5.251-2.373M323.868 666.588l-.05-4.024M322.96 666.886l2.128-4.748M228.243 674.647l3.763 2.505M258.782 671.538l-6.232 1.356M252.958 668.964l5.824 2.574M285.835 665.224l-6.365 1.556M280.312 662.65l5.523 2.574M312.466 658.05l-6.041 1.744M307.466 655.5l5 2.55M319.031 652.468l8.779.672M228.243 674.647l5.074-1.539M258.782 671.538l-5.824-2.574M252.958 668.964l6.502-1.438M285.986 661.241l-5.674 1.409M280.312 662.65l5.674-1.409M312.466 658.05l-5-2.55M229.123 671.272l-8.858-3.038M247.8 662.45l-5.57 1.22M243.17 659.674l4.63 2.776M275.215 656.073l-5.889 1.427M269.928 653.48l5.287 2.593M292.086 659.425l4.147-8.758M327.81 653.14l2.412-12.923M220.265 668.234l1.028-3.926M247.8 662.45l-4.63-2.776M243.17 659.674l5.968-1.329M275.573 652.092l-5.645 1.388M269.928 653.48l5.645-1.388M292.086 659.425l4.836-12.901M327.81 653.14l2.872-17.1M243.17 659.674l-4.621-6.515M264.129 647.179l-6.25 1.509M259.075 644.585l5.054 2.594M281.153 650.601l4.314-8.846M329.693 616.392l-10.144 15.447M243.17 659.674l-4.11-10.384M264.129 647.179l-5.054-2.594M259.075 644.585l6.645-1.637M280.926 631.303l5.484 6.295M329.693 616.392l-9.966 11.403M220.066 638.367l6.365 6.314M254.346 638.135l-6.8 1.656M248.877 635.706l5.469 2.429M280.926 631.303l-5.936 1.582M275.93 628.787l4.996 2.516M308.498 623.405l-6.722 2.024M302.977 621.14l5.521 2.265M335.38 614.27l-5.687 2.122M330.956 611.945l4.424 2.325M220.066 638.367l7.392 2.389M254.545 634.307l-5.668 1.399M248.877 635.706l5.668-1.399M280.926 631.303l-4.996-2.516M275.93 628.787l5.947-1.611M308.498 623.405l-5.521-2.265M302.977 621.14l5.809-1.77M335.38 614.27l-4.424-2.325M330.956 611.945l6.059-2.301M265.617 620.08l4.966 2.473M296.806 615.152l-5.605 1.648M292.282 612.603l4.524 2.549M325.12 606.079l-6.47 2.213M320.11 603.85l5.01 2.229M272.404 614.241l-1.087 4.296M296.806 615.152l-4.524-2.549M292.282 612.603l5.876-1.751M325.12 606.079l-5.01-2.229M320.11 603.85l5.363-1.857M230.872 722.54l-11.302 7.284M225.68 719.828l-6.123 9.996M344.861 569.36l10.344 5.893M230.872 722.54l8.544 3.793M265.818 716.068l-8.954 9.197M265.818 716.068l-7.453 4.252M238.085 726.333l2.531-4.009M212.007 729.809l15.002-7.713M257.077 602.999l-4.437 10.437" style="fill:none;stroke:red;stroke-width:.999997;stroke-linecap:round;stroke-linejoin:round;stroke-miterlimit:4;stroke-dasharray:none;stroke-opacity:1;visibility:visible"/><path d="m344.437 588.383 11.224.058M240.616 722.324l12.636 14.892M234.796 738.272h1.057" style="fill:none;stroke:red;stroke-width:1.99999;stroke-linecap:round;stroke-linejoin:round;stroke-miterlimit:4;stroke-dasharray:none;stroke-opacity:1;visibility:visible"/><path d="m192.016 720.849-2.076 45.58" style="fill:none;stroke:#00ff4a;stroke-width:1.99999;stroke-linecap:round;stroke-linejoin:round;stroke-miterlimit:4;stroke-dasharray:none;stroke-opacity:1;visibility:visible" visibility="hidden"/><path d="m181.553 728.42-2.233 1.5-2.243 1.464-2.244 1.44-2.245 1.416-2.255 1.392-2.268 1.356-2.256 1.332-2.281 1.296-2.268 1.272-2.29 1.236-2.28 1.212-2.293 1.188-2.293 1.152-2.302 1.116-2.305 1.092-2.305 1.068-2.315 1.032-2.316.996-2.316.972-2.33.936-2.327.9-2.328.876-2.328.84-2.339.816-2.341.78-2.338.744-2.34.708-2.34.684-2.353.648-2.34.612-2.35.576-2.355.552-2.35.504-2.353.48-2.352.444-2.352.408M174.952 725.048l-2.244 1.5-2.244 1.464-2.256 1.44-2.256 1.404-2.268 1.38-2.268 1.356-2.28 1.32-2.28 1.296-2.28 1.272-2.292 1.236-2.304 1.2-2.29 1.176-2.318 1.152-2.303 1.116-2.317 1.092-2.316 1.056-2.328 1.02-2.328.996-2.328.96-2.328.924-2.34.9-2.34.876-2.341.828-2.35.804-2.34.768-2.353.732-2.352.708-2.352.672-2.365.636-2.35.6-2.366.576-2.361.528-2.366.504-2.35.468-2.366.432-2.374.396M181.636 727.557l.156.048.168.024.193.012h.179l.18-.036.17-.036.143-.06.131-.084 8.832-6.288.073-.072.059-.072.036-.072.025-.072" style="fill:none;stroke:#00ff4a;stroke-width:.999997;stroke-linecap:round;stroke-linejoin:round;stroke-miterlimit:4;stroke-dasharray:none;stroke-opacity:1;visibility:visible" visibility="hidden"/><path d="m175.913 725.337-5.713-2.172-.192 4.836M169.84 722.78l.024.096.036.084.073.072.107.072.12.06M181.553 728.42l-.913 21.168" style="fill:none;stroke:#00ff4a;stroke-width:.999997;stroke-linecap:round;stroke-linejoin:round;stroke-miterlimit:4;stroke-dasharray:none;stroke-opacity:1;visibility:visible" visibility="hidden"/><path d="m174.437 725.085.12-.048.12-.036.132.012.144.036 5.893 2.256M180.846 727.305l.107.048.108.06.085.072.083.084.073.096.06.084.059.096.048.108.036.108.024.108.024.132v.12" style="fill:none;stroke:#00ff4a;stroke-width:.999997;stroke-linecap:round;stroke-linejoin:round;stroke-miterlimit:4;stroke-dasharray:none;stroke-opacity:1;visibility:visible" visibility="hidden"/><path d="m91.288 759.777 1.643-.276 1.837-.336 1.848-.336 1.836-.372 1.836-.396 1.836-.408 1.836-.432 1.836-.456 1.836-.468 1.825-.492 1.835-.516 1.837-.528 1.823-.552 1.823-.576 1.825-.588 1.824-.612 1.824-.636 1.824-.648 1.812-.672 1.824-.696 1.812-.708 1.812-.732 1.813-.744 1.81-.768 1.813-.792 1.801-.804 1.8-.816 1.799-.852 1.8-.852 1.79-.888 1.786-.888 1.801-.924 1.775-.924 1.788-.96 1.776-.972 1.79-.984 1.762-1.008 1.776-1.02 1.762-1.032 1.826-1.092 1.813-1.116 1.81-1.128 1.813-1.14 1.798-1.164 1.802-1.188 1.8-1.2" style="fill:none;stroke:#00ff4a;stroke-width:1.99999;stroke-linecap:round;stroke-linejoin:round;stroke-miterlimit:4;stroke-dasharray:none;stroke-opacity:1;visibility:visible" visibility="hidden"/><path d="M175.913 725.384v.024" style="fill:none;stroke:#00ff4a;stroke-width:.999997;stroke-linecap:round;stroke-linejoin:round;stroke-miterlimit:4;stroke-dasharray:none;stroke-opacity:1;visibility:visible" visibility="hidden"/><path d="m185.896 718.305 5.712 2.148M185.896 718.257v.048M170.045 722.48l-.084.072-.06.072-.037.072-.023.084M170.045 722.48l8.856-6.24 1.308-.132 5.688 2.148M169.624 728.253l.216-5.472" style="fill:none;stroke:#00ff4a;stroke-width:1.99999;stroke-linecap:round;stroke-linejoin:round;stroke-miterlimit:4;stroke-dasharray:none;stroke-opacity:1;visibility:visible" visibility="hidden"/><path d="m185.896 718.305-9.983 7.08M310.226 768.31l-.324.276" style="fill:none;stroke:#00ff4a;stroke-width:.999997;stroke-linecap:round;stroke-linejoin:round;stroke-miterlimit:4;stroke-dasharray:none;stroke-opacity:1;visibility:visible" visibility="hidden"/><path d="m187.206 728.134-.096.07-.097.093-.083.117-.073.13-.06.154-.047.153-.024.144v.143l.024.123.037.108.059.073.07.05.097.003.085-.008.108-.057.096-.081.084-.104.083-.131.073-.141.047-.155.036-.144.013-.143-.013-.144-.036-.109-.047-.085-.06-.063-.083-.037-.097.009-.096.032" style="fill:none;stroke:#00ff4a;stroke-width:.666665;stroke-linecap:round;stroke-linejoin:round;stroke-miterlimit:4;stroke-dasharray:none;stroke-opacity:1;visibility:visible" visibility="hidden"/><path d="m303.458 766.594 6.444 1.992M313.021 831.754l.552-.384.54-.432.504-.443.492-.481.456-.516.444-.528.41-.564.395-.588.359-.612.324-.648.312-.66.276-.684.24-.696.216-.72.192-.743.156-.757.132-.78.096-.78.061-.803.035-.817v-.828l-.024-.828-.06-.84-.096-.85-.12-.853-.143-.853M310.226 768.31l-.324.276M318.77 814.067l.18-.121M301.057 825.227l.565.168.564.132.564.096.564.072.552.036.54.012.539-.024.53-.06.527-.084.504-.12.492-.145.48-.179.467-.204.457-.24.431-.265M196.31 792.719l22.513 6.984M236.45 805.175l.203.072M272.666 816.42l28.39 8.807" style="fill:none;stroke:#00ff4a;stroke-width:.999997;stroke-linecap:round;stroke-linejoin:round;stroke-miterlimit:4;stroke-dasharray:none;stroke-opacity:1;visibility:visible" visibility="hidden"/><path d="m303.158 765.886-.096.096-.048.097-.012.096.023.107.06.096.097.085.119.071.157.06M308.833 824.422l.312-.216.3-.227.29-.252.275-.265.263-.276.253-.3.228-.312.227-.324.216-.336.193-.336.18-.359.156-.361.156-.384.107-.323" style="fill:none;stroke:#00ff4a;stroke-width:1.99999;stroke-linecap:round;stroke-linejoin:round;stroke-miterlimit:4;stroke-dasharray:none;stroke-opacity:1;visibility:visible" visibility="hidden"/><path d="m327.961 863.399.37-.252M302.822 833.794l.888.288.888.337.888.359.888.383.875.433.877.455.876.482.864.526.852.542.839.575.841.612.828.624.804.66.803.684.781.708.768.732.755.756.732.78.721.804.696.828.683.841.66.851.636.876.612.9.588.912.565.912.55.937.518.948.492.958.456.973.443.972.409.985.384.983.347.996.325.996.3.996.263 1.008.24.996.204.996M302.822 833.794l.18-.133M195.049 800.05l19.453 6.084M195.049 800.05l.025-.01M180.481 801.203l.612-.35.625-.311.648-.287.659-.252.672-.23.697-.203.696-.168.719-.131.732-.11.732-.07.744-.05.756-.01.768.024.768.047.781.084.792.108.779.144.804.169.792.216.792.227M179.006 819.43l-1.692 39.324M176.293 882.323l-.924 21.479M185.054 807.815l-.528.336-.504.37-.492.398-.468.43-.444.458-.421.48-.406.515-.373.541-.348.552-.324.587-.3.612-.264.637-.253.647-.216.672-.18.684-.167.709-.132.732-.108.73-.072.757-.048.768M189.986 806.302l-.41.036-.491.06-.492.084-.479.096-.481.133-.454.131-.458.168-.443.18-.432.193-.42.216-.372.216M174.817 752.518l-4.296 103.992M169.549 880.031l-.912 22.175M316.081 753.886l-.144.733-.107.756-.085.756-.048.78-.024.78.012.791.048.805.073.804.107.816.143.804M324.782 782.843l-.168.084-.18.048-.17.012-.166-.024-.17-.06-.155-.108-.155-.133-.132-.167-.132-.192-.097-.228-.096-.241-.06-.263-.047-.29-.023-.286-.013-.29.023-.298.037-.288.06-.288.083-.264.109-.252.12-.228.132-.204.144-.17.156-.142.167-.096.169-.072.168-.035.18.01.168.049.156.084.156.108.144.155.132.181.12.215.096.229.072.263.06.265.035.287.013.301-.013.288-.023.299-.048.276-.072.276-.096.266-.108.239-.132.216-.133.18-.156.156-.155.132M358.934 594.91l-8.364 3.132-34.49 155.842M316.057 761.711l37.25 196.306M328.685 863.016l17.828 93.418" style="fill:none;stroke:#00ff4a;stroke-width:.999997;stroke-linecap:round;stroke-linejoin:round;stroke-miterlimit:4;stroke-dasharray:none;stroke-opacity:1;visibility:visible" visibility="hidden"/><path d="m319.183 813.212 9.503 49.804" style="fill:none;stroke:#00ff4a;stroke-width:1.99999;stroke-linecap:round;stroke-linejoin:round;stroke-miterlimit:4;stroke-dasharray:none;stroke-opacity:1;visibility:visible" visibility="hidden"/><path d="m315.65 794.698 3.532 18.515M349.346 597.119l.133.192.131.179.155.169.145.144.156.108.144.084.132.047.132.025.096-.025M349.346 597.119l-4.596-7.632" style="fill:none;stroke:#00ff4a;stroke-width:.999997;stroke-linecap:round;stroke-linejoin:round;stroke-miterlimit:4;stroke-dasharray:none;stroke-opacity:1;visibility:visible" visibility="hidden"/><path d="m358.934 594.91.083-.048.06-.072.037-.108" style="fill:none;stroke:#00ff4a;stroke-width:1.99999;stroke-linecap:round;stroke-linejoin:round;stroke-miterlimit:4;stroke-dasharray:none;stroke-opacity:1;visibility:visible" visibility="hidden"/><path d="m105.446 835.031.084-.025h.07l.086.012M95.846 838.307l-.685-.241-.672-.287-.671-.325-.66-.347-.661-.385-.647-.42-.624-.456-.625-.492-.612-.516-.599-.552-.575-.575-.565-.601-.54-.623-.528-.661-.503-.684-.481-.696-.468-.732-.444-.744-.41-.756-.394-.779-.373-.793-.336-.804-.311-.828-.288-.828-.264-.842-.228-.85-.203-.852-.169-.852-.144-.864-.12-.852-.084-.864-.048-.852-.024-.852v-.85l.037-.842.07-.828.097-.815M93.002 767.83l.107-.013.096.013.085.06.06.083.048.108.012.145v.143l-.025.169-.06.155-.06.157-.095.144-.096.12-.108.096-.108.07-.108.026h-.108l-.085-.036-.071-.073-.06-.096-.024-.132-.012-.144.024-.156.036-.155.06-.168.072-.144.097-.132.107-.108.108-.085.108-.047M81.614 761.591l5.856 2.388M213.793 882.97l.695-.301.672-.336.661-.371.648-.396.624-.444.612-.468.576-.516.564-.539.539-.565.517-.599.492-.637.468-.66.445-.684.406-.708.386-.744.359-.756.336-.792.3-.803.264-.828.241-.841.216-.864.179-.876.144-.901.108-.899.084-.924.06-.924.012-.935-.012-.938-.048-.947-.072-.948M212.426 806.854l6.659 2.208M219.085 809.063l.41-.06M224.461 861.742l-.192.083M88.838 764.219l9.479-1.237M82.093 813.167l6.745-48.948M213.53 870.85l.503.156.505.132.503.108M210.997 874.414l-.576.204-.587.168-.6.12-.6.096-.624.037-.612.011-.636-.036-.625-.072-.635-.11-.625-.154-.635-.19M204.241 874.487l-108.396-36.18M98.533 762.875l-.024.035-.036.036-.072.024-.084.012M88.838 764.219h-.29l-.18-.013-.189-.023-.193-.037-.179-.047-.181-.06-.156-.06M212.426 806.854l-.144-.06-.121-.048-.096-.06-.048-.048-.023-.047M213.53 870.85l.083-.025h.072l.072.013" style="fill:none;stroke:#00ff4a;stroke-width:.999997;stroke-linecap:round;stroke-linejoin:round;stroke-miterlimit:4;stroke-dasharray:none;stroke-opacity:1;visibility:visible" visibility="hidden"/><path d="m210.997 874.414.385-.156.383-.192.372-.19.36-.23.361-.24.347-.252.336-.276.325-.3.314-.312.322-.347.312-.385.264-.348" style="fill:none;stroke:#00ff4a;stroke-width:1.99999;stroke-linecap:round;stroke-linejoin:round;stroke-miterlimit:4;stroke-dasharray:none;stroke-opacity:1;visibility:visible" visibility="hidden"/><path d="m81.626 761.531-5.832-2.377M81.626 761.531 54.23 962.375M75.793 759.154l-.133-.06-.095-.06-.072-.047-.048-.06v-.049M205.286 883.906l.924.324.912.37.912.397.912.445.9.48.888.505.875.552.877.575.864.612.84.65.841.671.815.707.804.733.779.767.769.793.756.828.732.851.708.865.684.899.672.924.635.936.625.973.588.983.563.996.552 1.021.517 1.03.48 1.057.47 1.056.429 1.081.397 1.079.37 1.103.35 1.104.312 1.105.276 1.116.252 1.115.216 1.129.192 1.116.144 1.128.132 1.117M205.585 883.787l-.3.12M93.734 846.323l111.552 37.583M93.757 846.31l-.024.013M81.255 846.154l.779-.24.781-.216.803-.167.817-.145.815-.095.828-.06.841-.037.839.012.841.048.85.085.853.131.865.156.85.192.853.24.864.265M61.286 964.175l13.236-96.036M74.521 868.138l.132-.84.156-.828.192-.816.216-.804.24-.78.263-.755.301-.745.324-.72.348-.696.372-.672.396-.65.421-.62.443-.602.468-.563.492-.541.516-.504.528-.48.553-.456.563-.407.588-.385.612-.347.612-.325.636-.276.648-.252M89.702 853.414l-.372-.024-.516-.012-.517.012-.504.024-.552.048-.552.072-.552.108-.539.121-.53.143-.527.168M226.514 803.686l-.072-.9-.036-.901v-.888l.024-.888.072-.888.096-.863.132-.864.155-.84.193-.83.23-.814M233.63 828.443l.18-.084.18-.132.156-.156.156-.193.133-.227.119-.252.107-.264.073-.301.06-.3.036-.312.012-.311-.012-.312-.036-.3-.048-.301-.085-.276-.095-.251-.12-.228-.13-.204-.158-.17-.168-.12-.167-.095-.18-.06-.181-.012-.18.025-.19.072-.17.108-.167.132-.169.18-.144.216-.119.227-.12.265-.085.287-.07.301-.051.299-.023.313v.324l.023.3.05.299.059.289.097.263.107.253.132.203.144.193.156.143.168.109.168.072.192.035h.18l.18-.047M278.234 625.45l9.805-3.745M227.307 795.01l50.927-169.56M247.273 1025.482l-20.759-221.795M276.986 624.466l-4.13-8.292M278.234 625.45l-.12.024-.132-.012-.144-.06-.156-.085-.156-.119-.144-.157-.144-.167-.132-.205-.12-.203M312.014 770.41l-1.535 1.272-1.549 1.26-1.56 1.236-1.56 1.212-1.572 1.201-1.572 1.187-1.584 1.164-1.596 1.14-1.488 1.044-1.488 1.033-1.5 1.019-1.5.996-1.524.985-1.512.959-1.524.96-1.536.936-1.417.84-1.415.828-1.43.815-1.426.805-1.428.78-1.44.768-1.452.768-1.452.744-1.428.72-1.44.696-1.452.696-1.452.672-1.452.661-1.452.647-1.463.637-1.477.623-1.583.648-1.585.625-1.596.622-1.608.589-1.608.588-1.608.564-1.62.54-1.633.54-1.823.564-1.824.553-1.836.527-1.835.504-1.849.492-1.86.456-1.861.444-1.859.408M97.73 762.42l-.121-.085-.12-.071" style="fill:none;stroke:#00ff4a;stroke-width:.999997;stroke-linecap:round;stroke-linejoin:round;stroke-miterlimit:4;stroke-dasharray:none;stroke-opacity:1;visibility:visible" visibility="hidden"/><path d="m308.846 761.063-6.216 5.268.419.132M174.182 767.914l-.024.876v.876l.036.876.07.9.086.9.12.9.144.912.18.9.203.912.229.912.253.912.286.913.301.899.336.9.361.888.383.888.408.888.433.865.455.863.48.84.505.84.515.816.54.804.564.793.576.779.599.756.613.733.636.719.648.695.66.673.684.648.684.636.708.6.72.576.72.565.745.516.743.503.744.468.768.444.755.421.769.383.781.348.768.324.779.288.781.264" style="fill:none;stroke:#00ff4a;stroke-width:1.99999;stroke-linecap:round;stroke-linejoin:round;stroke-miterlimit:4;stroke-dasharray:none;stroke-opacity:1;visibility:visible" visibility="hidden"/><path d="m262.97 821.315 37.536 11.748" style="fill:none;stroke:#00ff4a;stroke-width:.999997;stroke-linecap:round;stroke-linejoin:round;stroke-miterlimit:4;stroke-dasharray:none;stroke-opacity:1;visibility:visible" visibility="hidden"/><path d="m300.506 833.063.756.228.756.18.755.156.758.12.742.084.745.047.732.013.73-.023.722-.06.708-.086.683-.131.685-.156.672-.192.648-.24.636-.264.612-.288.599-.336.577-.36M308.846 761.063l-5.688 4.823M190.021 767.015l.048.552.06.54.073.563.083.552.108.552.12.552.132.552.145.553.155.54.18.552.181.54.203.539.216.552.216.529.24.528.253.528.263.527.276.516.29.517.298.504.313.505.323.491.324.48.348.48.348.455.36.456.372.445.373.443.395.422.396.419.396.396.42.396.42.384.421.36.432.347.431.349.432.312.444.313.456.299.444.276.457.276.456.252.468.228.455.216.468.204.456.192.516.192.517.167M313.021 831.754l8.268-5.496M205.202 787.557l14.628 4.5M235.91 797.003l13.656 4.2M282.637 811.378l27.048 8.316M309.685 819.694l.457.132.456.11.455.095.456.071.444.05h.048" style="fill:none;stroke:#00ff4a;stroke-width:1.99999;stroke-linecap:round;stroke-linejoin:round;stroke-miterlimit:4;stroke-dasharray:none;stroke-opacity:1;visibility:visible" visibility="hidden"/><path d="m311.989 820.151.025-.073.131-.396.11-.419.083-.421.083-.42.06-.479.05-.481.035-.492v-1.019l-.025-.505-.047-.527-.073-.517-.06-.42-.07-.432M303.049 766.462l.661 3.37M309.218 797.938l3.072 15.612M183.902 899.146l-.025.048-.023.06-.06.048-.073.048M175.37 903.802l-.12.06-.143.036-.156.024-.168.023h-.181l-.167-.01-.169-.025-.144-.035M175.37 903.802l8.352-4.452M168.637 902.206l5.484 1.67M346.057 955.955l-.37.228M316.645 829.341l.876.457.865.492.863.504.852.552.852.576.83.6.827.624M172.143 817.175l.047-.876.084-.864.109-.864.13-.84.158-.816.19-.816.205-.79.241-.782.275-.756.288-.732.324-.721.337-.695.37-.672.397-.648.421-.636.432-.6.467-.577.492-.552.505-.527.539-.49.552-.483.565-.431.599-.42.612-.384" style="fill:none;stroke:#00ff4a;stroke-width:1.99999;stroke-linecap:round;stroke-linejoin:round;stroke-miterlimit:4;stroke-dasharray:none;stroke-opacity:1;visibility:visible" visibility="hidden"/><path d="m168.637 902.206.912-22.175" style="fill:none;stroke:#00ff4a;stroke-width:.999997;stroke-linecap:round;stroke-linejoin:round;stroke-miterlimit:4;stroke-dasharray:none;stroke-opacity:1;visibility:visible" visibility="hidden"/><path d="m339.445 954.274-.13-.047-.12-.06-.085-.06-.061-.073-.023-.07M339.445 954.274l6.241 1.91M180.481 801.203l7.97-4.73M189.986 806.302l-.193.324-.239.408-.216.432-.205.444-.191.457-.18.466-.17.469-.155.492-.131.492-.121.516-.108.516-.096.515-.072.529-.06.54-.048.54-.036.553-2.159 47.519M184.538 885.119l-.637 14.028M321.494 862.714l-.133-.672-.156-.684-.18-.683-.203-.672-.216-.685-.23-.684-.25-.67-.276-.673-.288-.672-.3-.66-.312-.649-.336-.635-.35-.636-.358-.625-.384-.623-.385-.612-.407-.601-.421-.599-.432-.576-.456-.577-.455-.552-.468-.552-.48-.528-.504-.527-.504-.516-.516-.492-.516-.48-.541-.468-.539-.445-.541-.432-.563-.407-.552-.408-.576-.373-.565-.372-.587-.336-.577-.336-.587-.3-.588-.287-.588-.265-.59-.252-.503-.203-.515-.18-.504-.169M321.494 862.714l17.53 91.25M195.481 807.01l17.088 5.388M254.461 825.623l48.6 15.323M195.481 807.01l-.503-.143-.505-.146-.504-.107-.49-.108-.506-.084-.492-.06-.492-.047-.48-.037-.479-.013-.481.013-.468.012-.095.012M182.726 791.123l-.396 8.976M168.637 902.206l-5.448-1.667M163.19 900.54l-.133-.036-.095-.06-.072-.06-.036-.06-.012-.06M162.842 900.263l.876-22.213M164.653 854.567l3.924-99.348" style="fill:none;stroke:#00ff4a;stroke-width:1.99999;stroke-linecap:round;stroke-linejoin:round;stroke-miterlimit:4;stroke-dasharray:none;stroke-opacity:1;visibility:visible" visibility="hidden"/><path d="m353.017 585.07-8.412 3.084" style="fill:none;stroke:#00ff4a;stroke-width:.999997;stroke-linecap:round;stroke-linejoin:round;stroke-miterlimit:4;stroke-dasharray:none;stroke-opacity:1;visibility:visible" visibility="hidden"/><path d="M361.645 952.69v.06l-.024.073-.059.06-.073.071M360.674 953.578l.815-.624M353.307 958.018l7.367-4.44M346.514 956.435l5.46 1.656M358.801 593.591l-4.572-7.584M346.514 956.435l-.132-.05-.119-.06-.084-.071-.061-.071-.036-.073M353.307 958.018l-.121.06-.144.048-.167.025-.181.023h-.18l-.191-.013-.18-.023-.17-.047M359.114 594.683l.012-.12-.012-.132-.024-.157-.05-.167-.06-.17-.082-.178-.096-.167M354.23 586.007l-.132-.192-.132-.18-.144-.168-.156-.144-.144-.11-.145-.082-.143-.06-.12-.013-.096.013M324.71 748.474l-.11.528-.094.54-.072.552-.06.552-.05.565-.023.575-.011.576.01.576.025.588.049.588.047.54.073.528.083.54.084.541M308.954 761.638l-.132-.719-.11-.721-.094-.719-.072-.721-.06-.708-.05-.719-.022-.709-.012-.708.012-.695.023-.697.049-.696.06-.683.084-.685.096-.684.12-.683.143-.661M319.002 704.664l-10.013 45.767" style="fill:none;stroke:#00ff4a;stroke-width:1.99999;stroke-linecap:round;stroke-linejoin:round;stroke-miterlimit:4;stroke-dasharray:none;stroke-opacity:1;visibility:visible" visibility="hidden"/><path d="m321.9 691.412-2.899 13.252" style="fill:none;stroke:#00ff4a;stroke-width:.999997;stroke-linecap:round;stroke-linejoin:round;stroke-miterlimit:4;stroke-dasharray:none;stroke-opacity:1;visibility:visible" visibility="hidden"/><path d="m344.437 588.383-22.536 103.028M308.954 761.638l1.488 7.812M324.66 756.263l36.984 196.426M359.114 594.683 324.71 748.475M74.929 810.586l-.12.961-.083.971-.06.985-.024.995v.997l.024.995.06 1.008.096 1.02.12 1.008.143 1.008.17 1.021.202 1.007.228 1.008.265.996.287.996.312.985.336.984.372.959.396.96.41.936.443.937.467.911.492.9.516.876.53.865.562.839.577.817.587.803.624.768.636.756.648.72.672.708.685.672.695.65.721.611.732.588.732.55.755.529.768.492.77.456.78.432.78.385.79.359.805.324.803.288" style="fill:none;stroke:#00ff4a;stroke-width:1.99999;stroke-linecap:round;stroke-linejoin:round;stroke-miterlimit:4;stroke-dasharray:none;stroke-opacity:1;visibility:visible" visibility="hidden"/><path d="m224.234 878.794.6-.252.588-.276.564-.312M92.342 760.222l5.832 2.377" style="fill:none;stroke:#00ff4a;stroke-width:.999997;stroke-linecap:round;stroke-linejoin:round;stroke-miterlimit:4;stroke-dasharray:none;stroke-opacity:1;visibility:visible" visibility="hidden"/><path d="m202.885 883.102.745.23.744.202.756.156.744.133.744.096.756.071.732.025.744-.012.731-.037.72-.083.721-.109.708-.155.696-.181.696-.216.672-.252M212.185 806.47l6.972-1.008" style="fill:none;stroke:#00ff4a;stroke-width:1.99999;stroke-linecap:round;stroke-linejoin:round;stroke-miterlimit:4;stroke-dasharray:none;stroke-opacity:1;visibility:visible" visibility="hidden"/><path d="m98.174 762.6.12.06.108.06.072.047.048.06.012.049M211.994 806.591l.012-.036.035-.037.06-.023.085-.025" style="fill:none;stroke:#00ff4a;stroke-width:.999997;stroke-linecap:round;stroke-linejoin:round;stroke-miterlimit:4;stroke-dasharray:none;stroke-opacity:1;visibility:visible" visibility="hidden"/><path d="m91.97 809.867-.072.576-.06.599-.036.601-.024.599-.012.612v.612l.025.612.035.625.05.612.07.623.072.612.096.601.12.612.12.612.144.599.156.612.17.6.178.6.204.589.204.576.228.588.24.576.252.563.264.564.276.552.288.552.313.54.311.528.324.516.336.505.336.492.36.479.372.469.372.465.384.446.396.433.408.419.408.396.42.396.432.372.42.36.445.336.443.336.445.3.455.3.47.277.455.263.467.24.468.216.468.204.504.205.516.179M224.234 878.794l-10.44 4.176M215.077 871.186l.036-.048.288-.42.277-.445.251-.455.23-.468.215-.48.191-.492.18-.493.156-.515.145-.53.119-.538.097-.552.083-.552.06-.564.048-.54.025-.552.011-.552-.01-.553-.038-.562-.048-.565-5.4-54.719M91.97 809.867l6.564-46.992M213.757 870.839l-108.072-35.82" style="fill:none;stroke:#00ff4a;stroke-width:1.99999;stroke-linecap:round;stroke-linejoin:round;stroke-miterlimit:4;stroke-dasharray:none;stroke-opacity:1;visibility:visible" visibility="hidden"/><path d="m213.757 870.839.48.143.481.133.359.072M92.342 760.175v.047" style="fill:none;stroke:#00ff4a;stroke-width:.999997;stroke-linecap:round;stroke-linejoin:round;stroke-miterlimit:4;stroke-dasharray:none;stroke-opacity:1;visibility:visible" visibility="hidden"/><path d="m81.757 836.686-1.344 9.793M85.179 757.582l-9.519 1.19M92.342 760.175l-5.808-2.364M54.23 962.375l-5.676-1.872M48.218 960.179l.012.072.035.072.073.072.096.06.12.048" style="fill:none;stroke:#00ff4a;stroke-width:1.99999;stroke-linecap:round;stroke-linejoin:round;stroke-miterlimit:4;stroke-dasharray:none;stroke-opacity:1;visibility:visible" visibility="hidden"/><path d="m75.446 758.878.012-.035.048-.036.06-.025.095-.01" style="fill:none;stroke:#00ff4a;stroke-width:.999997;stroke-linecap:round;stroke-linejoin:round;stroke-miterlimit:4;stroke-dasharray:none;stroke-opacity:1;visibility:visible" visibility="hidden"/><path d="m85.179 757.582.13-.012h.157l.18.012.178.036.194.036.192.036.166.06.158.06M75.446 758.878l-27.228 201.3M54.23 962.375l5.69 1.883M70.97 959.086l-9.684 5.088M70.97 959.086l.084-.06.072-.06.036-.06.024-.072M59.919 964.258l.155.036.181.037.18.011.19-.01.193-.014.169-.036.167-.048.132-.059M239.282 1023.55l.408-.276M218.797 880.966l.84.419.828.445.828.48.815.505.818.539.791.565.792.587.768.612.77.648.743.672M67.442 865.474l.156-.995.18-.984.203-.961.24-.948.265-.935.287-.913.325-.9.348-.876.37-.852.397-.839.432-.805.445-.78.48-.756.504-.732.516-.708.552-.672.563-.65.601-.62.612-.59.623-.552.661-.528.672-.492.683-.456.708-.42.721-.396.744-.348.756-.323.768-.289M232.755 1021.39l6.528 2.159M232.322 1021.018l.024.083.059.085.084.072.12.072.145.06M88.718 843.6l-7.464 2.555M232.322 1021.018l-9.937-104.616M222.385 916.403l-.083-.768-.097-.767-.13-.758-.146-.767-.156-.768-.192-.768-.204-.757-.216-.755-.24-.755-.263-.745-.276-.72-.289-.72-.31-.708-.325-.71-.349-.694-.36-.696-.372-.672-.396-.661-.407-.659-.421-.635-.432-.625-.456-.612-.456-.6-.479-.588-.492-.564-.504-.553-.504-.539-.528-.516-.529-.504-.539-.48-.552-.456-.564-.445-.564-.43-.576-.398-.588-.383-.589-.372-.588-.336-.599-.324-.6-.3-.601-.276-.515-.204-.504-.204-.517-.179-111.358-37.837M93.517 854.194l-.528-.168-.528-.143-.527-.133-.529-.108-.516-.095-.528-.073-.516-.047-.143-.013M89.702 853.414l-.336.312-.36.373-.361.383-.336.408-.336.42-.323.444-.312.444-.29.468-.286.48-.265.492-.264.516-.239.515-.23.529-.215.552-.204.565-.192.575-.167.576-.156.6-.145.6-.131.612-.108.612-.097.636M71.185 958.833l13.164-94.306" style="fill:none;stroke:#00ff4a;stroke-width:1.99999;stroke-linecap:round;stroke-linejoin:round;stroke-miterlimit:4;stroke-dasharray:none;stroke-opacity:1;visibility:visible" visibility="hidden"/><path d="m272.894 614.711 9.827-3.672" style="fill:none;stroke:#00ff4a;stroke-width:.999997;stroke-linecap:round;stroke-linejoin:round;stroke-miterlimit:4;stroke-dasharray:none;stroke-opacity:1;visibility:visible" visibility="hidden"/><path d="m245.87 1025.675-.24-.036M248.21 1025.003l-.937.479M245.87 1025.675l.17.012h.191l.191-.012.204-.013.192-.035.18-.048.156-.047.12-.05M256.166 1019.698l-7.956 5.305M288.062 620.255l-4.104-8.233M240.158 1023.839l5.472 1.8M256.166 1019.698l.072-.06.06-.072.036-.07v-.074M239.713 1023.455l.025.095.059.085.097.07.12.074.144.06M282.72 611.04l.121-.025.131.012.145.06.155.084.145.12.156.156.144.169.132.203.108.204M288.062 620.255l.096.215.072.216.048.205.024.203v.18l-.024.156M236.81 791.651l-.167.587-.156.601-.133.612-.12.623-.108.624-.07.636-.074.636-.047.649-.025.647-.012.648v.6l.024.601.025.599.048.601M239.433 726.337l33.22-111.338" style="fill:none;stroke:#00ff4a;stroke-width:1.99999;stroke-linecap:round;stroke-linejoin:round;stroke-miterlimit:4;stroke-dasharray:none;stroke-opacity:1;visibility:visible" visibility="hidden"/><path d="m235.938 738.047 3.495-11.71" style="fill:none;stroke:#00ff4a;stroke-width:.999997;stroke-linecap:round;stroke-linejoin:round;stroke-miterlimit:4;stroke-dasharray:none;stroke-opacity:1;visibility:visible" visibility="hidden"/><path d="m218.965 803.507-.06-.793-.048-.791-.035-.804-.013-.793.013-.791.023-.792.037-.78.071-.793.072-.767.096-.768.12-.767.133-.745.156-.768.167-.756.192-.744.216-.745 15.832-53.063M229.76 917.916l-5.132-54.42" style="fill:none;stroke:#00ff4a;stroke-width:1.99999;stroke-linecap:round;stroke-linejoin:round;stroke-miterlimit:4;stroke-dasharray:none;stroke-opacity:1;visibility:visible" visibility="hidden"/><path d="m239.713 1023.455-9.952-105.538" style="fill:none;stroke:#00ff4a;stroke-width:.999997;stroke-linecap:round;stroke-linejoin:round;stroke-miterlimit:4;stroke-dasharray:none;stroke-opacity:1;visibility:visible" visibility="hidden"/><path d="m219.485 809.004-.52-5.497" style="fill:none;stroke:#00ff4a;stroke-width:1.99999;stroke-linecap:round;stroke-linejoin:round;stroke-miterlimit:4;stroke-dasharray:none;stroke-opacity:1;visibility:visible" visibility="hidden"/><path d="m223.297 849.383-3.812-40.379" style="fill:none;stroke:#00ff4a;stroke-width:.999997;stroke-linecap:round;stroke-linejoin:round;stroke-miterlimit:4;stroke-dasharray:none;stroke-opacity:1;visibility:visible" visibility="hidden"/><path d="m256.334 1019.422-20.34-219.106M236.81 791.651l51.47-170.22" style="fill:none;stroke:#00ff4a;stroke-width:1.99999;stroke-linecap:round;stroke-linejoin:round;stroke-miterlimit:4;stroke-dasharray:none;stroke-opacity:1;visibility:visible" visibility="hidden"/><path d="m304.238 769.403.12-.072.13-.05.158-.01M311.04 769.462l.05.012h.046l.048.013.05.01.047.013.06.024M311.04 769.462l-6.396-.192" style="fill:none;stroke:#00ff4a;stroke-width:.999997;stroke-linecap:round;stroke-linejoin:round;stroke-miterlimit:4;stroke-dasharray:none;stroke-opacity:1;visibility:visible" visibility="hidden"/><path d="m236.461 805.294.637-.168 1.811-.504 1.81-.528 1.802-.54 1.801-.565 1.786-.587 1.789-.612 1.776-.624 1.763-.648 1.826-.696 1.81-.708 1.802-.732 1.799-.756 1.8-.78 1.776-.804 1.776-.83 1.776-.837 1.764-.865 1.752-.888 1.739-.912 1.74-.924 1.742-.948 1.716-.97 1.703-.986 1.703-1.007 1.706-1.033 1.679-1.044 1.68-1.068 1.68-1.092 1.656-1.104 1.656-1.128 1.644-1.14 1.644-1.165 1.632-1.187 1.62-1.201 1.61-1.224 1.606-1.247 1.596-1.26 1.584-1.27 1.584-1.31M239.066 833.399l77.124-38.976" style="fill:none;stroke:#00ff4a;stroke-width:1.99999;stroke-linecap:round;stroke-linejoin:round;stroke-miterlimit:4;stroke-dasharray:none;stroke-opacity:1;visibility:visible" visibility="hidden"/><path d="m180.66 749.567-.01.155-.05.133-.07.108-.085.095-.108.061" style="fill:none;stroke:#00ff4a;stroke-width:.999997;stroke-linecap:round;stroke-linejoin:round;stroke-miterlimit:4;stroke-dasharray:none;stroke-opacity:1;visibility:visible" visibility="hidden"/><path d="m180.338 750.119-85.188 36.96" style="fill:none;stroke:#00ff4a;stroke-width:1.99999;stroke-linecap:round;stroke-linejoin:round;stroke-miterlimit:4;stroke-dasharray:none;stroke-opacity:1;visibility:visible" visibility="hidden"/><path d="m319.202 815.339-.05-.252-.034-.228-.05-.216-.035-.216-.047-.228-.036-.253M92.342 760.222l-10.728 1.37M224.63 863.495l-.036-.312-.024-.3-.023-.276-.025-.265-.025-.287-.035-.312M224.461 861.742l-.144-1.608-.157-1.595-.143-1.573-.156-1.56-.144-1.536-.144-1.512-.144-1.5-.132-1.476M316.502 793.607l.024.18-.012.156-.036.156-.072.132-.097.108-.119.083M311.342 769.534l.084.048.084.048.072.06.07.073.12.132.098.144.084.18.035.096.025.095 4.488 23.197" style="fill:none;stroke:#00ff4a;stroke-width:.999997;stroke-linecap:round;stroke-linejoin:round;stroke-miterlimit:4;stroke-dasharray:none;stroke-opacity:1;visibility:visible" visibility="hidden"/><path d="m81.063 781.875.18-.12.18-.096.203-.048h.216l.216.024.216.06.205.107.204.133.19.168.169.204.157.216.13.24.109.252.074.276.046.264.024.276-.011.276-.036.252-.073.24-.096.216-.12.203-.144.169-.168.13-.179.11-.192.06-.216.036-.1-.005" style="fill:none;stroke:#00ff4a;stroke-width:.666665;stroke-linecap:round;stroke-linejoin:round;stroke-miterlimit:4;stroke-dasharray:none;stroke-opacity:1;visibility:visible" visibility="hidden"/><path d="m80.965 785.914.204-.012.192-.06.192-.096.167-.12.146-.156.12-.192.107-.216.072-.23.037-.25.011-.264-.01-.276-.05-.264-.072-.264-.108-.25-.132-.242-.144-.215-.18-.193-.18-.17-.204-.129-.204-.096-.216-.06-.204-.013-.203.013-.205.047-.18.096-.167.133-.156.156-.12.19-.096.206-.073.239-.047.253-.013.263.013.264.047.265.084.263.096.252.132.24.156.216.168.193.18.167.204.132.204.097.216.059.216.024M82.166 784.833l1.283-.596M81.402 782.489l1-.465" style="fill:none;stroke:#00ff4a;stroke-width:.666665;stroke-linecap:round;stroke-linejoin:round;stroke-miterlimit:4;stroke-dasharray:none;stroke-opacity:1;visibility:visible" visibility="hidden"/><path d="m80.136 783.67.437.167.208.604-.312.584M218.416 831.843l.18-.12.18-.096.203-.048h.216l.216.024.216.06.205.107.204.133.19.168.169.204.157.216.13.24.109.252.073.276.047.264.024.276-.011.276-.036.252-.073.24-.096.216-.12.203-.144.169-.168.13-.179.11-.192.06-.216.036-.1-.005" style="fill:none;stroke:#00ff4a;stroke-width:.666665;stroke-linecap:round;stroke-linejoin:round;stroke-miterlimit:4;stroke-dasharray:none;stroke-opacity:1;visibility:visible" visibility="hidden"/><path d="m218.318 835.882.204-.012.192-.06.192-.096.167-.12.146-.156.12-.192.107-.216.072-.23.037-.25.011-.264-.01-.276-.05-.264-.072-.264-.108-.25-.132-.242-.144-.215-.18-.193-.18-.17-.204-.129-.204-.096-.216-.06-.204-.013-.203.013-.205.047-.18.096-.167.133-.156.156-.12.19-.096.206-.073.239-.047.253-.013.263.013.264.047.265.084.263.096.252.132.24.156.216.168.193.18.167.204.132.204.097.216.059.216.024M219.519 834.8l1.283-.596M218.755 832.456l1-.465" style="fill:none;stroke:#00ff4a;stroke-width:.666665;stroke-linecap:round;stroke-linejoin:round;stroke-miterlimit:4;stroke-dasharray:none;stroke-opacity:1;visibility:visible" visibility="hidden"/><path d="m217.489 833.637.437.167.208.604-.312.584" style="fill:none;stroke:#00ff4a;stroke-width:.666665;stroke-linecap:round;stroke-linejoin:round;stroke-miterlimit:4;stroke-dasharray:none;stroke-opacity:1;visibility:visible" visibility="hidden"/><path d="m182.92 728.005-1.79 42.105v1.49l.037.754.07.756.108.768.12.768.156.782.194.766.216.768.24.78.262.768.29.756.322.756.35.744.358.744.396.72.42.72.432.696.468.686.48.672.492.648.528.634.53.612.552.59.574.562.576.542.6.516.602.492.622.466.624.432.636.422.648.37.648.348.65.324.658.288.662.254.658.216" style="fill:none;stroke:#00ff4a;stroke-width:.999997;stroke-linecap:round;stroke-linejoin:round;stroke-miterlimit:4;stroke-dasharray:none;stroke-opacity:1;visibility:visible" visibility="hidden"/><path d="m175.913 725.385 11.293 2.749" style="fill:none;stroke:#00ff4a;stroke-width:.666665;stroke-linecap:round;stroke-linejoin:round;stroke-miterlimit:4;stroke-dasharray:none;stroke-opacity:1;visibility:visible" visibility="hidden"/><path d="m212.426 806.854 6.397-7.151M212.426 806.854l2.076-.72M183.9 899.147l-7.607-16.824M180.64 749.588l-5.823 2.93M312.014 770.41l12.768 12.433M354.23 586.007l-9.48 3.48M98.317 762.982l-5.315 4.848M81.402 782.489l11.6-14.659M220.802 834.204l12.828-5.761M283.957 612.023l-11.1 4.151M309.902 768.586l2.112 1.824M219.494 809.003l17.256-.625" style="fill:none;stroke:#00ff4a;stroke-width:.999997;stroke-linecap:round;stroke-linejoin:round;stroke-miterlimit:4;stroke-dasharray:none;stroke-opacity:1;visibility:visible" visibility="hidden"/><path d="m189.94 766.429-15.758 1.485M313.021 831.754l8.268-5.496M212.426 806.854l7.404-14.797M236.653 805.247l-.743-8.244M236.45 805.175l13.116-3.972M316.502 793.607l-7.284 4.331M179.006 819.43l-6.863-2.255M180.481 801.203l7.97-4.73M212.426 806.854l.143 5.544M179.006 819.43l3.324-19.331M180.64 749.588l-12.063 5.631M82.093 813.167l-7.164-2.581M205.286 883.906l-2.401-.804M219.085 809.063l.072-3.601M74.522 868.14l-7.08-2.666M81.255 846.154l7.463-2.554M220.802 834.204l18.264-.805M83.449 784.237l11.701 2.842" style="fill:none;stroke:#00ff4a;stroke-width:1.99999;stroke-linecap:round;stroke-linejoin:round;stroke-miterlimit:4;stroke-dasharray:none;stroke-opacity:1;visibility:visible" visibility="hidden"/><path d="m318.77 814.066.432 1.273" style="fill:none;stroke:#00ff4a;stroke-width:.999997;stroke-linecap:round;stroke-linejoin:round;stroke-miterlimit:4;stroke-dasharray:none;stroke-opacity:1;visibility:visible" visibility="hidden"/><path d="m82.247 785.518-1.282.396M81.402 782.489l2.047 1.748M82.166 784.833l.236-2.81M219.6 835.486l-1.282.396M218.755 832.456l2.047 1.748M219.519 834.8l.236-2.81" style="fill:none;stroke:#00ff4a;stroke-width:.666665;stroke-linecap:round;stroke-linejoin:round;stroke-miterlimit:4;stroke-dasharray:none;stroke-opacity:1;visibility:visible" visibility="hidden"/><path d="m181.553 728.421 1.367-.416" style="fill:none;stroke:#00ff4a;stroke-width:.999997;stroke-linecap:round;stroke-linejoin:round;stroke-miterlimit:4;stroke-dasharray:none;stroke-opacity:1;visibility:visible" visibility="hidden"/><path d="m224.883 691.668-17.028-10.327M224.883 691.668l-17.806-6.75M224.883 691.668l-18.673-3.182M207.933 715.338l-4.227-8.772M208.96 711.413l12.734-1.872M208.96 711.413l13.288-.076M207.933 715.338l14.763-2.164M222.46 707.145l.511 7.791M222.46 707.145l1.559 10.113M253.252 737.216l4.206-15.312M261.7 706.054l-1.837 14.691M322.555 686.498l-16.542 10.048M280.57 713.385l1.08 16.602M261.7 706.054l9.966 11.599M261.7 706.054l5.815 12.227M261.7 706.054l1.54 13.988M230.872 722.54l-10.061 11.68M354.23 586.007l-.116-15.442M342.52 581.372l9.4 4.448M322.555 686.498l-13.958 8.982M306.68 679.801l16.738 2.728M306.68 679.801l17.046-1.497M306.68 679.801l18.863-5.376M256.89 618.003l-7.607 5.494M256.89 618.003l-5.246 2.89M256.89 618.003l-2.512 1.252" style="fill:none;stroke:red;stroke-width:.999997;stroke-linecap:round;stroke-linejoin:round;stroke-miterlimit:10;stroke-dasharray:none;stroke-opacity:1;visibility:visible"/><path d="m318.715 680.488-6.092 7.142M304.809 608.316l-2.762-16.7M275.063 598.445l13.494-3.413M275.063 598.445l8.997-2.275M358.934 594.91l-5.557 18.9M358.934 594.91l-3.788 10.056M358.934 594.91l-2.906 5.631M358.934 594.91l-1.137-3.215M358.934 594.91l-.254-7.638" style="fill:none;stroke:red;stroke-width:.999997;stroke-linecap:round;stroke-linejoin:round;stroke-miterlimit:4;stroke-dasharray:none;stroke-opacity:1;visibility:visible"/><path d="m351.92 585.82-1.35 12.222" style="fill:none;stroke:#00ff4a;stroke-width:.999997;stroke-linecap:round;stroke-linejoin:round;stroke-miterlimit:4;stroke-dasharray:none;stroke-opacity:1;visibility:visible" visibility="hidden"/></svg>