<svg xmlns="http://www.w3.org/2000/svg" baseProfile="full" height="1122.52" preserveAspectRatio="xMinYMin meet" style="width:729px;height:902px" width="793.701" xml:space="preserve"><path d="m197.672 756.855.176 1.128.2 1.144.232 1.16.264 1.176.288 1.192.312 1.2.336 1.2.368 1.208.384 1.2.408 1.2.432 1.2.456 1.184.472 1.168.488 1.152.504 1.136.52 1.112.536 1.088.544 1.064.56 1.024.568 1 .576.96.584.92.592.88.592.832.592.792.6.744.592.696.592.64.584.584.584.536" style="fill:none;stroke:red;stroke-width:.999997;stroke-linecap:round;stroke-linejoin:round;stroke-miterlimit:4;stroke-dasharray:none;stroke-opacity:1;visibility:visible" visibility="hidden"/><path d="m209.927 787.99-.576-.528-.592-.592-.592-.64-.592-.696-.592-.744-.6-.792-.592-.832-.584-.88-.584-.92-.576-.968-.568-.992-.56-1.032-.544-1.056-.536-1.088-.52-1.12-.512-1.136-.488-1.152-.464-1.168-.456-1.184-.432-1.2-.408-1.2-.392-1.208-.36-1.2-.336-1.208-.32-1.2-.288-1.184-.256-1.176-.232-1.168-.208-1.144-.176-1.12M299 856.239l-.432.232-.456.168-.48.112-.496.048-.52-.016-.536-.072-.552-.128-.568-.192-.576-.256-.6-.304-.6-.368-.616-.432M294.327 854.327l.648.448.632.376.624.32.608.256.592.184.576.12.56.056.536-.008M151.424 601.99h0M151.368 601.983h0M151.127 601.895l-.544-.448-.56-.504-.56-.56-.56-.608-.56-.664-.568-.72-.56-.76-.56-.808-.56-.856-.552-.896-.544-.936-.536-.976-.528-1.008-.52-1.04-.504-1.072-.488-1.096-.48-1.12-.456-1.144-.448-1.16-.424-1.176-.408-1.192-.392-1.2-.36-1.208-.344-1.208-.32-1.208-.304-1.208-.272-1.2" style="fill:none;stroke:red;stroke-width:.999997;stroke-linecap:round;stroke-linejoin:round;stroke-miterlimit:4;stroke-dasharray:none;stroke-opacity:1;visibility:visible" visibility="hidden"/><path d="m139.935 575.407.272 1.2.296 1.208.32 1.208.344 1.208.368 1.208.384 1.192.408 1.192.424 1.176.448 1.16.456 1.144.48 1.12.488 1.096.504 1.072.52 1.04.528 1.008.536.976.544.928.552.896.56.856.56.808.568.768.56.712.568.664.561.616.559.552.552.504.552.448M195.895 749.671h0M211.655 787.663h0M197.343 754.11h0M202.976 789.423l-.656-.888-.648-.944-.648-.976-.64-1.024-.632-1.056-.624-1.096-.616-1.136-.6-1.16-.592-1.184-.576-1.216-.568-1.24-.544-1.264-.536-1.28-.512-1.288-.488-1.312-.472-1.312-.448-1.32-.432-1.328-.4-1.328-.384-1.328-.352-1.32-.336-1.312-.296-1.304-.28-1.288-.248-1.272-.216-1.256-.192-1.232-.16-1.208-.128-1.176-.104-1.152-.072-1.12-.032-1.088-.016-1.048.024-1.008.056-.968.08-.92.112-.872M207.256 792.935l-.096.136-.088.128-.064.12-.056.128-.048.136-.024.08-.008.04-.008.016v.008M197.312 748.447l-.04.432-.024.456-.024.456-.016.48-.008.48v.504l.016.512.016.528.024.536.032.544.048.56.048.568.056.576.072.584.072.592.088.6M197.312 748.447l-.224.04-.24.064-.232.072-.24.096-.264.12-.28.136M211.464 787.775l-.232.088-.248.088-.24.096M211.464 787.775l.096-.04.07-.048.05-.048.024-.056v-.056l-.016-.048-.032-.056-.048-.048M209.927 787.99l.104.064.112.04.12.016.144.008.152-.024.096-.016.088-.032M195.991 757.463l-.088-.608-.072-.592-.064-.584-.056-.584-.04-.568-.04-.56-.024-.552-.016-.536-.008-.528.008-.52.016-.504.024-.496.032-.48.048-.472.056-.456.064-.448M178.295 638.447l-.392-.312-.352-.36-.304-.408-.248-.448M177.504 636.35v.008M177.504 636.359l-.096.16-.088.12-.072.096-.072.072-.08.064-.096.048M144.655 604.27l-.616-.784-.624-.832-.616-.88-.616-.928-.608-.968-.6-1.016-.6-1.048-.584-1.088-.584-1.12-.56-1.152-.56-1.184-.536-1.208-.528-1.24-.512-1.256-.496-1.272-.48-1.288-.456-1.312-.44-1.312-.416-1.328-.392-1.328-.376-1.336-.352-1.328-.328-1.336-.296-1.32-.28-1.312M139.336 574.91l-.24.072-.248.072-.248.08M139.935 575.407l-.056-.152-.072-.128-.088-.104-.104-.072-.128-.04h-.152M152.672 601.695l-.24.064-.248.08-.248.08M152.672 601.695l.096-.032.08-.04.048-.04.032-.048v-.04l-.008-.04-.024-.048-.048-.04M151.127 601.895l.064.04.072.024.088.024.104.008h.112l.12-.015.12-.017.128-.04M138.6 575.135l-.104.048-.096.08-.072.096-.064.104-.032.112-.024.112-.008.12.016.112M289.144 861.12l-.104-.288-.088-.264-.08-.248-.072-.24-.072-.264-.08-.296M293.423 854.175l-.256.08-.256.104-.24.112" style="fill:none;stroke:red;stroke-width:.999997;stroke-linecap:round;stroke-linejoin:round;stroke-miterlimit:4;stroke-dasharray:none;stroke-opacity:1;visibility:visible" visibility="hidden"/><path d="m294.327 854.327-.072-.048-.088-.04-.104-.032-.112-.032-.128-.024-.128-.008-.136.008-.136.024M292.672 854.47l-.096.072-.072.08-.04.08-.016.072v.08l.024.064.04.064.056.048M105.375 441.903l.256.064.312.048.36.032.408.016h.456l.488-.016.528-.04.544-.048.568-.072.576-.08.584-.096.576-.112.56-.12.552-.136.528-.136.488-.144.456-.152.416-.16.368-.152.312-.152.256-.152.2-.144.136-.144.072-.128.016-.12M118.175 505.46l-11.197-55.604M132.2 575.095l-11.995-59.552M195.745 706.897l2.615-17.29M189.8 746.199l4.399-29.087M213.032 798.791l-.008-.016-.016-.048-.048-.152-.104-.296-.088-.296-.088-.304-.152-.6-.136-.592-.112-.528-.104-.512-.104-.488-.104-.464-.112-.408-.12-.368-.136-.344-.16-.304-.176-.28-.208-.232-.232-.2-.12-.08-.136-.08-.168-.072-.184-.064-.208-.056-.208-.032-.432-.016-.432.048-.24.056-.24.072-.224.088-.224.112-.216.12-.192.144-.184.16-.16.176M227.23 810.424l-9.875-8.095M232.015 813.19l.144-.152.136-.128.144-.112.144-.096.168-.096.192-.096M232.015 813.19l-.104.128-.08.128-.072.128-.064.12-.056.144-.048.152M232.944 812.519l.296-.12.312-.088.296-.056.304-.032h.28l.272.032.256.048.256.08.256.112.24.144.232.2.224.232M236.168 813.07l.224.344.192.384.152.392.136.432.104.416.104.432.104.456.096.464.112.52.064.264.056.256.064.264.064.248.064.224.056.216M238.024 819.199l-.048-.144-.048-.136-.04-.128-.04-.128-.04-.136-.048-.144M238.063 819.295l-.032-.096M246.48 826.19l-4.119-3.375M251.12 829.993l-4.64-3.803M255.04 833.127l-.016.056M255.24 832.687l-.2.44M256.623 831.63l.28-.088.288-.072.296-.04.296-.008.272.008.272.04.264.056.256.088.224.104.208.128.184.144.184.176.168.2.168.248.168.296.144.32.136.384.12.408.12.424.104.456.12.528.12.552.128.568.144.584M256.623 831.63l-.336.144-.296.16-.248.184-.2.176-.168.192-.072.104-.064.096M261.776 838.71l-.144-.392-.128-.4-.112-.392-.104-.392M278.752 852.623l-11.153-9.135M288.647 859.519l-.104-.408-.096-.408-.088-.4-.096-.392-.08-.384-.088-.368-.088-.352-.088-.344-.184-.592-.104-.28-.112-.264-.12-.248-.136-.232-.136-.2-.136-.176-.256-.256-.28-.208-.312-.176-.328-.12-.352-.08-.352-.04h-.36l-.368.032-.384.08-.368.12-.344.16-.32.192-.312.248-.264.296-.112.16-.088.168-.072.176-.032.088-.008.032v.008M291.184 872.47l-.312-.296-.272-.344-.24-.376-.184-.416-.136-.44-.096-.472-.256-.208M262.367 847.343l-.032.032-.04.048-.096.08-.168.12-.176.056-.096.008-.088-.008-.168-.048-.168-.072-.16-.088-.152-.104-.144-.104-.152-.112-.336-.272-.36-.312-.192-.168-.2-.184-.216-.2-.208-.208-.432-.448-.248-.264-.24-.28-.232-.288-.232-.312M257.063 842.959l.032.064.056.112.128.232.128.208.12.208.144.208.16.224M238.711 827.791l-.008.008-.008.008-.032.04-.088.088-.16.128-.144.072-.16.016-.152-.024-.16-.064-.184-.088-.096-.064-.064-.04-.088-.064-.128-.096-.16-.128-.192-.152-.216-.184-.224-.192-.232-.216-.248-.224-.256-.248-.288-.304-.296-.312-.288-.336-.28-.352-.272-.368-.256-.376-.232-.4-.112-.2-.04-.08-.024-.048M208.88 803.143l.16.304.168.288.16.256.16.232.272.376.28.35.272.306.264.288.256.272.256.248.136.128.08.072.104.096.136.12.152.128.168.144.176.152.192.152.176.136.168.112.04.032.048.024.056.032.064.032.056.032.072.032.128.032.12.008.112-.016.112-.048.112-.088.112-.112.056-.064.024-.032.008-.016M152.951 611.023h.008M167.024 620.628l-10.213-6.972M170.567 623.047v-.008M274.647 533.439l-.256-.208-.2-.216-.152-.224-.104-.232-.04-.24M301.943 799.952l4.352 53.479M292.756 687.08l7.912 97.202M177.504 636.35l.136-.256.112-.304.096-.32.072-.352.048-.352.032-.376.016-.392.008-.416-.016-.464-.04-.48-.056-.552-.072-.56M198.36 689.607l.136-1.048.112-1.096.08-1.136.048-1.184.016-1.232-.016-1.264-.048-1.304-.08-1.336-.112-1.376-.136-1.4-.168-1.432-.208-1.456-.232-1.48-.256-1.496-.296-1.52-.32-1.528-.344-1.552-.376-1.552-.4-1.56-.432-1.56-.456-1.568-.48-1.568-.504-1.56-.52-1.552-.552-1.536-.568-1.536-.592-1.512-.608-1.496-.624-1.472-.64-1.448-.664-1.424-.672-1.4-.68-1.36-.704-1.328-.704-1.296-.72-1.256-.728-1.216-.728-1.176-.744-1.128-.736-1.08" style="fill:none;stroke:red;stroke-width:.999997;stroke-linecap:round;stroke-linejoin:round;stroke-miterlimit:4;stroke-dasharray:none;stroke-opacity:1;visibility:visible" visibility="hidden"/><path d="m176.776 627.423.096.28.104.304.096.312.104.327.096.321.096.336.168.688.088.368.072.368.072.4.072.4M175.647 622.99l.08.336.08.352.072.344.08.352.072.344.072.336.088.352.08.352.104.384.104.384.136.448.152.44.008.008M175.647 622.99h0M177 636.919h0-.008l-.008.008M290.672 664.343l.2-.312M281.145 544.48l8.736 107.373M280.591 537.663l-5.944-4.224M287.423 660.11l.312.216.304.264.288.272.288.304.264.304.256.328.256.344.24.36.264.408.248.424.272.496.256.512M290.871 664.031l.008-.008M292.12 535.599l-.016.296-.096.296-.16.296-.24.288-.304.28-.376.264-.432.256-.496.232-.536.208-.584.192-.616.16-.648.136-.672.104-.68.072-.688.04h-.672l-.672-.024-.64-.056-.616-.096-.576-.12-.536-.152-.48-.176-.432-.2-.36-.232M290.287 865.519l-.056-.384-.064-.384-.072-.368-.08-.368-.168-.688-.184-.672-.232-.728-.136-.4-.144-.4M289.888 869.671l.12-.232.112-.264.088-.272.072-.304.056-.296.04-.32.024-.337.008-.351v-.392l-.016-.416-.04-.472-.064-.496M289.944 870.127l-.056-.456M306.295 853.431l.096 1.464.064 1.416.032 1.376-.008 1.336-.048 1.288-.08 1.24-.12 1.184-.152 1.144-.192 1.08-.224 1.032-.264.976-.296.912M262.895 842.999l-.064-.376-.064-.384-.072-.352-.08-.36-.16-.664-.184-.664-.224-.704-.136-.392-.136-.384" style="fill:none;stroke:red;stroke-width:.999997;stroke-linecap:round;stroke-linejoin:round;stroke-miterlimit:4;stroke-dasharray:none;stroke-opacity:1;visibility:visible" visibility="hidden"/><path d="m262.375 847.35.168-.24.144-.288.128-.336.088-.384.072-.424.04-.472.008-.504-.016-.536-.04-.576-.072-.592M282 858.615l.088.592.112.6.152.696.184.704.216.712.232.712.256.696.28.68.288.672.152.32.16.312M282.072 855.343l-.081.368-.056.408-.031.448-.016.48.016.504.04.528.056.536M254.991 836.415l.088.576.112.592.152.68.184.688.208.696.232.696.248.68.264.664.288.648.144.312.152.304M255.024 833.19l-.072.36-.048.408-.032.44v.472l.016.496.04.52.064.528M289.688 869.919l.096-.12.104-.128M214.112 802.807l-.064-.344-.064-.352-.144-.664-.16-.624-.176-.624-.208-.664-.128-.376-.128-.368M213.744 807.159l.152-.248.128-.288.104-.344.08-.384.048-.424.024-.472v-.504l-.032-.536-.056-.56-.08-.592M233.623 823.583l-.264-.544-.24-.544-.208-.512-.2-.528-.176-.496-.168-.488-.152-.496-.136-.496-.136-.528-.12-.52-.12-.584-.096-.568M231.591 813.999l-.072.44-.048.488-.016.536.024.568.048.608.08.64M208.584 802.511l.144.312.152.312M239.151 823.39l-.056-.344-.072-.36-.144-.68-.16-.64-.176-.632-.216-.688-.128-.376-.136-.376M238.72 827.799l.16-.248.136-.288.112-.344.088-.392.064-.432.024-.472.008-.512-.024-.544-.056-.576-.08-.6M206.903 796.967l.08.472.096.488.104.464.12.472.12.44.128.44.136.432.144.432.168.464.176.456.2.504.208.48M206.864 793.727l-.072.432-.04.487-.008.529.024.568.056.6.08.624M170.567 623.047l-.056.464-.032.512-.008.544.032.584.048.608.08.632.104.648.136.664.152.68.184.68.2.68.224.68.24.664.264.648.272.632.288.608M153.584 614.895l.072.488.048.472.032.424.016.4.008.344-.016.328-.024.304-.04.28-.048.28-.064.256-.088.257-.104.215M100.983 440.295l.032.088.08.08.12.064 4.192 1.41M289.744 869.847h0M262.416 847.295h0M262.895 846.151h0M261.647 838.367h0M213.76 807.135h0M214.224 805.767h0M238.744 827.76h0M239.24 824.095h0M177.504 636.359l-.096.16-.088.12-.072.096-.072.072-.08.064-.096.048M176.767 627.415l.08.224.096.272.096.288.096.312.096.32.096.344.096.36.088.36.096.392.08.392.08.424.072.424" style="fill:none;stroke:red;stroke-width:.999997;stroke-linecap:round;stroke-linejoin:round;stroke-miterlimit:4;stroke-dasharray:none;stroke-opacity:1;visibility:visible" visibility="hidden"/><path d="m177 636.919-.104.024-.104.008-.12-.016-.128-.04-.128-.056-.144-.072-.152-.088-.16-.104-.168-.112-.168-.128-.184-.136-.192-.152-.192-.168-.2-.168-.408-.384-.224-.232-.224-.24-.216-.248-.224-.272-.232-.312-.224-.328-.208-.352-.2-.36M170.567 623.04l.08-.336.136-.32.176-.296.216-.272.232-.216.248-.2.272-.168.288-.144.272-.112.28-.08.28-.056.272-.024.272-.008.264.024.248.056.232.088.24.12.208.16.184.192.16.224.16.28.136.32.112.344.104.376M177 636.919h0M175.64 622.99h.008M176.52 627.975h0M177.384 631.623v.008M176.983 631.199l-.04-.032-.144-.104-.152-.128-.152-.128-.152-.152-.192-.2-.152-.184-.128-.176-.096-.168-.072-.152" style="fill:none;stroke:red;stroke-width:.999997;stroke-linecap:round;stroke-linejoin:round;stroke-miterlimit:4;stroke-dasharray:none;stroke-opacity:1;visibility:visible" visibility="hidden"/><path d="m176.112 630.407-.104-.184-.08-.176-.224-.272M175.703 629.775l-.112-.272-.112-.272-.112-.288-.096-.304-.096-.32-.08-.312-.064-.312-.056-.304-.04-.312-.024-.296-.008-.272.008-.24.024-.224.032-.192M174.968 625.855l.04-.024.056-.04.016-.016.064-.048.112-.072.072-.04.12-.048.144-.048M175.871 625.76h0M153.375 618.943l-.104.192-.104.144-.096.112-.104.072-.112.032h-.12l-.136-.032-.16-.064-.176-.104-.2-.128-.224-.16-.248-.192-.264-.216-.272-.248-.28-.28-.28-.304M152.623 611.287l.328-.264M149.295 606.079l.376-.088.376-.032.176.008.176.024.168.04.152.064.144.072.136.088.12.112.112.12.104.144.088.152.152.344.128.4.104.448.104.48.104.52.112.552.064.28.072.296.072.288.088.296.096.304.104.296M152.623 611.287l.224.632.184.6.16.56.144.552.128.6.064.336.056.328M150.495 617.767l-.304-.352-.288-.392-.27-.416-.234-.448" style="fill:none;stroke:red;stroke-width:.999997;stroke-linecap:round;stroke-linejoin:round;stroke-miterlimit:4;stroke-dasharray:none;stroke-opacity:1;visibility:visible" visibility="hidden"/><path d="m147.623 607.735.08-.288.128-.28.176-.248.216-.232.24-.192.264-.176.28-.136.288-.104M149.4 616.159l-.24-.496-.224-.528-.224-.552-.2-.568-.192-.576-.168-.592-.16-.592-.128-.584-.112-.576-.088-.56-.064-.544-.048-.512-.016-.488.008-.456.032-.416.048-.384M153.28 614.943l-.088-.072-.144-.112-.144-.136-.152-.136-.364-.61.092.314M152.336 613.847l-.128-.304-.136-.32-.12-.336-.12-.336-.104-.352-.096-.352-.088-.352-.064-.344-.048-.272-.04-.272-.032-.264-.016-.248M291.616 675.807l-.248.152-.272.096-.288.04-.312-.024-.328-.08-.344-.144-.352-.208-.36-.256-.36-.32-.368-.368-.368-.424-.36-.464-.352-.504-.344-.536-.32-.576-.312-.592" style="fill:none;stroke:red;stroke-width:.999997;stroke-linecap:round;stroke-linejoin:round;stroke-miterlimit:4;stroke-dasharray:none;stroke-opacity:1;visibility:visible" visibility="hidden"/><path d="m290.672 664.343.208.408.216.416.224.424.232.416.224.424.224.416.224.424.208.424.2.424.192.424.168.424.152.416.128.424.104.416.08.424.048.408.024.408-.008.4-.032.384-.056.384-.088.368-.104.36-.128.336-.136.32-.16.304-.16.288-.176.264-.176.24-.184.216-.176.184-.168.168-.16.128M286.327 671.599l-.192-.424-.168-.44-.144-.456-.112-.464-.096-.48-.08-.48-.056-.488-.048-.48-.04-.488-.032-.48-.024-.488-.024-.472-.024-.464-.024-.456-.024-.44-.04-.432-.032-.408-.048-.392-.04-.368-.048-.352-.04-.336-.04-.312-.032-.296-.024-.272-.015-.256v-.24l.023-.216.04-.2.064-.184.08-.16.12-.144.144-.12M285.351 659.91l.152-.088.16-.072.312-.072h.312l.328.056.368.136.216.104.224.136" style="fill:none;stroke:red;stroke-width:.999997;stroke-linecap:round;stroke-linejoin:round;stroke-miterlimit:4;stroke-dasharray:none;stroke-opacity:1;visibility:visible" visibility="hidden"/><path d="m292.384 670.143-.088.048-.104.032-.112.016-.112-.008-.128-.032-.136-.056-.136-.08-.144-.104-.144-.12-.144-.152-.152-.168-.136-.176-.144-.2-.136-.216-.128-.232-.12-.232M290.543 668.743l-.224-.28" style="fill:none;stroke:red;stroke-width:.999997;stroke-linecap:round;stroke-linejoin:round;stroke-miterlimit:4;stroke-dasharray:none;stroke-opacity:1;visibility:visible" visibility="hidden"/><path d="m290.32 668.463-.048-.112-.024-.08-.032-.112-.024-.128-.024-.144-.016-.168-.024-.184-.008-.2-.016-.224-.024-.464-.024-.488-.016-.248-.024-.248-.04-.456-.048-.408-.024-.176-.024-.16-.024-.264v-.168M195.88 749.815h0M195.864 750.007h0M210.192 788.103h0M210.231 788.11h0M152.6 601.687v-.008M151.295 601.967h0M152.6 601.68h.032M152.672 601.695l-.032-.008h-.016M151.815 601.95h0M151.935 601.919l-.024-.016h-.016M210.327 788.12h0M210.248 788.11h0M210.703 788.023h.016l.024.024M211.4 787.767h.032l.032.008M298.968 856.263h.008l.024-.032.056-.08.08-.128.064-.12M256.968 842.76h0M233.528 823.39h0M208.68 802.727h0M173.032 620.847v-.008M153.312 620.575h-.008M152.623 601.687l.04-.016.024-.016h.016v-.008M151.896 601.903l.152-.048.144-.048.144-.04.144-.048.144-.032M210.088 788.079h0M211.4 787.767l.032-.016.024-.008v-.008h.008M281.543 531.71l-.056.016-.056.016M275.672 528.48l-.056.008-.064.016M275.672 528.48l5.872 3.232M281.032 526.207l.072-.056.072-.016M281.032 526.207l-.392-.016-.416-.008-.448.008-.464.024-.448.032-.448.048-.448.064-.44.088-.384.08-.368.104-.336.112-.304.112-.272.128-.224.136-.192.128-.144.144-.112.144-.056.152-.016.144.032.136.072.144.12.136.152.12.176.112M275.136 527.91h0M273.8 529.807h0M281.543 531.71l.24.112.304.12.184.064.208.056.224.056.248.048.248.04.264.04.288.04.296.024.312.024.328.016h.672l.32-.008.32-.016.328-.024.32-.024.312-.04.312-.048.304-.048.296-.056.28-.064.264-.072.256-.072.232-.08.224-.08.192-.088.184-.088.16-.088.152-.104.128-.096.104-.104.08-.096.056-.104.04-.096.016-.184-.024-.096-.04-.096-.056-.088-.072-.088-.176-.144-.2-.12M291.728 532.495h0" style="fill:none;stroke:red;stroke-width:.999997;stroke-linecap:round;stroke-linejoin:round;stroke-miterlimit:4;stroke-dasharray:none;stroke-opacity:1;visibility:visible" visibility="hidden"/><path d="m284.567 526.927-.248-.096-.272-.04" style="fill:none;stroke:red;stroke-width:1.99999;stroke-linecap:round;stroke-linejoin:round;stroke-miterlimit:4;stroke-dasharray:none;stroke-opacity:1;visibility:visible" visibility="hidden"/><path d="m290.472 530.143-.248-.096-.272-.04-.28.032" style="fill:none;stroke:red;stroke-width:.999997;stroke-linecap:round;stroke-linejoin:round;stroke-miterlimit:4;stroke-dasharray:none;stroke-opacity:1;visibility:visible" visibility="hidden"/><path d="M273.647 529.407v-.016" style="fill:none;stroke:red;stroke-width:1.99999;stroke-linecap:round;stroke-linejoin:round;stroke-miterlimit:4;stroke-dasharray:none;stroke-opacity:1;visibility:visible" visibility="hidden"/><path d="m291.832 532.007.008.016M101.72 435.327l-.048.008-.056.016M105.912 437.495l-4.192-2.168M105.912 437.495l-.056.008-.056.016" style="fill:none;stroke:red;stroke-width:.999997;stroke-linecap:round;stroke-linejoin:round;stroke-miterlimit:4;stroke-dasharray:none;stroke-opacity:1;visibility:visible" visibility="hidden"/><path d="m113.295 437.071-.144.088-.176.088-.224.088-.264.088-.28.088-.32.08-.352.072-.376.064-.368.056-.384.04-.4.04-.4.024-.392.024-.392.008-.376-.008-.368-.008-.376-.024-.344-.032-.312-.04-.288-.048-.272-.056-.24-.072-.184-.064-.152-.072M113.248 436.327l.104.056.08.064.112.12.032.112-.024.12-.088.128-.072.072-.096.072M101.72 435.327l-.128-.08-.112-.096-.04-.056-.024-.056-.016-.064.008-.064.024-.064.04-.064.064-.072.072-.064.104-.072.12-.072.136-.064.16-.072.168-.064.176-.056.2-.064.208-.056.232-.048.232-.056.248-.048.264-.04.256-.04.272-.032.272-.032.272-.024.272-.016.28-.016.264-.016h.272l.28-.008.272.008.264.008.248.008.24.016.224.024.4.048.2.04.184.032.16.04.144.04.232.072.176.08M100.44 436.783h0M113.944 436.431l-.216-.088-.24-.032-.24.016M109.735 434.27l-.224-.08-.232-.04-.24.016M114.968 437.671l.008.008M100.215 436.495v-.008M115.392 439.76l-.024-.064-.048-.064M273.895 532.32l-.008-.088v-.088M292.088 535.431l.016.088.016.08M101 440.151l-.024.072.008.072" style="fill:none;stroke:red;stroke-width:.999997;stroke-linecap:round;stroke-linejoin:round;stroke-miterlimit:4;stroke-dasharray:none;stroke-opacity:1;visibility:visible" visibility="hidden"/><path d="m285.192 668.223-.032-.328-.04-.528-.032-.528-.032-.528-.024-.52-.024-.504-.024-.496-.032-.488-.04-.472-.04-.448-.048-.424-.048-.408-.048-.384-.048-.36-.04-.344-.04-.32-.024-.296-.008-.128M199.448 745.287l-.064.424-.056.464-.04.48-.032.512-.024.536-.016.552v.576l.008.592.024.648.032.672.048.688.064.704.072.72.088.736.096.744.112.76.144.856.152.872.176.888.184.888.2.912.216.912.224.912.248.92.264.968.288.976.296.976.32.984.328.976.336.968.352.968.36.96.384.968.392.96.4.952.416.944.424.928.432.912.44.888.44.88.448.848.456.824.456.816.464.784.464.76.472.736.464.704.472.68.44.616.448.592.448.568.432.528.432.496.424.464.408.424.392.392.288.264.272.24.264.216M193.08 679.807l.064-.512.056-.552.048-.576.024-.616.016-.64.008-.664-.016-.696-.024-.752-.048-.776-.064-.808-.072-.824-.096-.84-.112-.864-.128-.872-.144-.856-.152-.872-.168-.888-.192-.896-.2-.904-.208-.904-.232-.912-.24-.912-.264-.96-.28-.96-.296-.96-.304-.96-.328-.96-.328-.952-.344-.944-.352-.928-.376-.936-.376-.928-.392-.912-.4-.896-.408-.888-.416-.864-.424-.84-.424-.824-.424-.784-.432-.768-.432-.744-.44-.72-.44-.688-.432-.664-.432-.624-.432-.6-.408-.536-.4-.504-.392-.472-.384-.44-.376-.408-.368-.368-.344-.336-.328-.288-.264-.216-.24-.192-.224-.16M141.927 572.743l.184.888.192.888.208.904.224.904.232.904.248.904.256.912.264.904.28.896.32 1 .336.992.344.992.36.976.368.968.384.96.384.944.4.928.408.904.416.896.416.88.432.856.432.832.44.816.44.784.448.752.432.704.432.68.432.656.432.624.432.592.424.552.416.52.416.48.344.392.336.36.328.328.32.304.304.264.28.24.264.2.248.168" style="fill:none;stroke:red;stroke-width:1.99999;stroke-linecap:round;stroke-linejoin:round;stroke-miterlimit:4;stroke-dasharray:none;stroke-opacity:1;visibility:visible" visibility="hidden"/><path d="m296.927 854.503.352.28.336.248.328.216.296.192.28.152.248.136.224.096.192.08h.016" style="fill:none;stroke:red;stroke-width:.999997;stroke-linecap:round;stroke-linejoin:round;stroke-miterlimit:4;stroke-dasharray:none;stroke-opacity:1;visibility:visible" visibility="hidden"/><path d="m299.2 855.903.024-.056.096-.2.096-.24.096-.28.104-.328.096-.36.088-.4.08-.432.072-.464.072-.512.056-.544.04-.576.032-.6.016-.632v-.656l-.008-.68-.032-.696-.04-.72-.056-.736M141.927 572.743l-26.536-132.984M199.448 745.287l8.888-56.52M296.927 854.503l-81.808-66.088M291.184 872.47l-81.304-67.28M182.888 620.335l-26.704-17.944M273.895 532.32l10.672 128.4M285.192 668.223l14.84 178.568M151.744 620.07l-.736-.536-.736-.576-.721-.608-.711-.648-.712-.688-.696-.728-.696-.752-.696-.792-.68-.832-.68-.856-.672-.888-.592-.824-.592-.848-.592-.872-.584-.904-.576-.928-.577-.944-.567-.968-.56-.992-.56-1.016-.544-1.032-.544-1.048-.528-1.064-.528-1.088-.52-1.112-.512-1.128-.504-1.136-.496-1.16-.48-1.176-.48-1.184-.464-1.192-.448-1.2-.44-1.208-.424-1.216-.401-1.176-.391-1.192-.376-1.192-.36-1.192-.36-1.2-.336-1.208-.328-1.2-.312-1.2-.296-1.2-.288-1.2-.272-1.184-.208-.984-.2-.976M182.888 620.335l.744.52.744.568.736.6.72.64.728.68.712.72.712.752.704.784.704.824.688.848.688.888.672.904.664.936.664.968.656.992.648 1.032.648 1.056.64 1.08.624 1.112.624 1.128.608 1.152.592 1.176.552 1.104.536 1.128.528 1.144.52 1.16.512 1.184.496 1.184.488 1.2.472 1.216.464 1.216.448 1.232.432 1.224.408 1.2.392 1.2.376 1.2.368 1.208.352 1.208.336 1.216.328 1.208.304 1.208.296 1.2.272 1.2.264 1.184.264 1.304.248 1.288.224 1.28.208 1.28.184 1.256.168 1.248.144 1.232.128 1.216.104 1.192.08 1.176.056 1.128.04 1.112.016 1.088-.008 1.072-.024 1.056-.048 1.032-.064 1.008-.088.984-.112.96-.136.936M178.295 638.447l-26.552-18.376M292.12 535.599l24.64 315.351M127.767 572.823l-26.784-132.528M184.735 736.527l8.344-56.72M209.88 805.19l-.688-.584-.68-.616-.672-.656-.672-.68-.673-.712-.671-.744-.665-.776-.655-.8-.656-.832-.656-.864-.641-.888-.647-.904-.64-.952-.64-.976-.64-1.008-.632-1.032-.624-1.056-.625-1.08-.608-1.096-.599-1.12-.6-1.144-.584-1.152-.568-1.168-.528-1.104-.513-1.112-.503-1.136-.504-1.136-.488-1.16-.472-1.16-.472-1.168-.456-1.184-.44-1.184-.432-1.184-.416-1.192-.392-1.16-.384-1.176-.368-1.176-.36-1.168-.344-1.176-.336-1.176-.32-1.176-.304-1.168-.288-1.16-.273-1.16-.255-1.152-.24-1.144-.232-1.136-.216-1.136-.192-1.12-.184-1.112-.168-1.104-.144-1.096-.136-1.08-.112-1.064-.104-1.048-.08-1.032-.072-1.104-.048-1.088-.032-1.072-.01-1.056.018-1.032.032-1.008.056-.992.08-.968.104-.944.12-.92M316.76 850.95l.088 1.248.064 1.224.032 1.208.016 1.184-.016 1.168-.04 1.144-.064 1.112-.088 1.096-.12 1.064-.144 1.048-.168 1.008-.208 1.016-.232.984-.264.968-.296.936-.336.912-.368.88-.408.856-.44.824-.488.8-.528.76-.568.72-.512.568-.536.536-.568.513-.6.47-.624.433-.656.392-.584.304-.608.28-.616.233-.632.207-.64.16-.648.128-.648.096-.648.056-.656.016-.648-.016-.736-.056-.736-.096-.728-.136-.72-.167-.72-.21-.704-.247-.696-.272-.688-.304-.8-.392-.792-.432-.784-.472-.776-.504-.768-.544-.768-.576-.76-.608M273.647 529.407h0" style="fill:none;stroke:red;stroke-width:1.99999;stroke-linecap:round;stroke-linejoin:round;stroke-miterlimit:4;stroke-dasharray:none;stroke-opacity:1;visibility:visible" visibility="hidden"/><path d="m273.711 530.183.048.184.096.176.144.168.2.168.248.152M280.312 534.287l.36.168.424.16.48.144.536.12.576.096.616.08.64.056.672.024.68.008.688-.016.68-.048.672-.064.648-.088.624-.112.592-.136.544-.152.496-.168.44-.176.384-.2.312-.2.24-.216.176-.216.096-.216.016-.224M274.448 531.031l5.864 3.256M291.84 532.023v.008" style="fill:none;stroke:red;stroke-width:.999997;stroke-linecap:round;stroke-linejoin:round;stroke-miterlimit:4;stroke-dasharray:none;stroke-opacity:1;visibility:visible" visibility="hidden"/><path d="M273.647 529.39v-.248l.032-.256.064-.256.088-.24.12-.224.136-.2.184-.208.208-.192.216-.176.344-.216.376-.2.4-.168.456-.152.48-.136.512-.12.536-.096.48-.072.496-.056.504-.04.504-.024.464-.008.472.008.456.024M273.647 529.407l.064.776M291.84 532.031l.064.88M281.175 526.135l.424.032.416.04.408.056.392.072.392.088.376.104.352.12.336.136.296.144 5.904 3.216M290.472 530.143l.344.216.32.264.248.27.208.314.12.256.08.28.04.264" style="fill:none;stroke:red;stroke-width:1.99999;stroke-linecap:round;stroke-linejoin:round;stroke-miterlimit:4;stroke-dasharray:none;stroke-opacity:1;visibility:visible" visibility="hidden"/><path d="m115.127 438.783.072.096.032.096M115.32 439.431h0M100.416 437.511v-.104l.024-.104" style="fill:none;stroke:red;stroke-width:.999997;stroke-linecap:round;stroke-linejoin:round;stroke-miterlimit:4;stroke-dasharray:none;stroke-opacity:1;visibility:visible" visibility="hidden"/><path d="m115.231 438.975.088.456M100.416 437.511l.496 2.456" style="fill:none;stroke:red;stroke-width:1.99999;stroke-linecap:round;stroke-linejoin:round;stroke-miterlimit:4;stroke-dasharray:none;stroke-opacity:1;visibility:visible" visibility="hidden"/><path d="M115.151 438.575v.144l-.072.152-.136.152-.2.144-.256.144-.32.144-.368.136-.416.12-.464.12-.504.104-.536.096-.56.072-.576.072-.592.048-.592.032-.592.016h-.576l-.56-.016-.536-.032-.512-.056-.464-.064-.424-.08-.376-.088-.32-.104-.264-.12M100.752 437.535l-.16-.104-.128-.104-.08-.104-.048-.112M104.935 439.711l-4.184-2.176" style="fill:none;stroke:red;stroke-width:.999997;stroke-linecap:round;stroke-linejoin:round;stroke-miterlimit:4;stroke-dasharray:none;stroke-opacity:1;visibility:visible" visibility="hidden"/><path d="m114.976 437.68.176.896M100.215 436.495l.12.616M113.944 436.431l-4.208-2.16M113.944 436.431l.184.104.176.12.168.136.16.176.144.2.08.16.072.168.04.176M100.215 436.487l-.03-.184v-.2l.022-.184.048-.184.064-.168.088-.16.104-.16.112-.136.128-.128.176-.144.192-.128.192-.112.272-.128.297-.12.319-.104.344-.096.32-.08.352-.072.361-.064.367-.056.384-.056.392-.04.392-.032.392-.024.392-.008.376-.008h.368l.36.016.352.016.344.032.336.04.32.04.304.056.288.072.28.08.256.096.256.112" style="fill:none;stroke:red;stroke-width:1.99999;stroke-linecap:round;stroke-linejoin:round;stroke-miterlimit:4;stroke-dasharray:none;stroke-opacity:1;visibility:visible" visibility="hidden"/><path d="m273.776 530.407-.024.112v.112" style="fill:none;stroke:red;stroke-width:.999997;stroke-linecap:round;stroke-linejoin:round;stroke-miterlimit:4;stroke-dasharray:none;stroke-opacity:1;visibility:visible" visibility="hidden"/><path d="M273.864 531.96h0" style="fill:none;stroke:red;stroke-width:1.99999;stroke-linecap:round;stroke-linejoin:round;stroke-miterlimit:4;stroke-dasharray:none;stroke-opacity:1;visibility:visible" visibility="hidden"/><path d="m291.944 533.359-.024-.112-.04-.112" style="fill:none;stroke:red;stroke-width:.999997;stroke-linecap:round;stroke-linejoin:round;stroke-miterlimit:4;stroke-dasharray:none;stroke-opacity:1;visibility:visible" visibility="hidden"/><path d="m273.752 530.63.112 1.328M291.944 533.359l.144 1.888" style="fill:none;stroke:red;stroke-width:1.99999;stroke-linecap:round;stroke-linejoin:round;stroke-miterlimit:4;stroke-dasharray:none;stroke-opacity:1;visibility:visible" visibility="hidden"/><path d="m125.628 818.678.114-.3.146-.25.158-.195.182-.143.204-.084M150.495 617.767l-5.84-13.497M120.205 515.543l-2.03-10.083M100.912 439.967l6.066 9.89M118.175 505.46l2.03 10.083M194.199 717.112l1.546-10.215M195.745 706.897l-1.546 10.215M209.88 805.19l17.35 5.234M209.88 805.19l7.475-2.86M251.12 829.993l-8.759-7.178M242.361 822.815l8.759 7.178M292.568 855.031l-13.816-2.408M151.743 620.071l15.281.557M153.28 614.943l3.53-1.287M300.668 784.282l1.275 15.67M301.943 799.952l-1.275-15.67M176.112 630.407l6.592 3.776M273.895 532.32l7.25 12.16M284.568 660.719l5.313-8.866M152.6 601.687l-1.256 8.408M285.351 659.91l7.033 10.233M170.567 623.039l2.465-2.192M170.567 623.047l2.465-2.208M152.951 611.023l.361 9.552M152.959 611.023l.345 9.552" style="fill:none;stroke:red;stroke-width:.999997;stroke-linecap:round;stroke-linejoin:round;stroke-miterlimit:4;stroke-dasharray:none;stroke-opacity:1;visibility:visible" visibility="hidden"/><path d="m281.543 531.71 3.024-4.783" style="fill:none;stroke:red;stroke-width:1.99999;stroke-linecap:round;stroke-linejoin:round;stroke-miterlimit:4;stroke-dasharray:none;stroke-opacity:1;visibility:visible" visibility="hidden"/><path d="m433.504 757.311-.464.12-.488.088-.504.072-.52.04-.528.008-.528-.016-.512-.04-.496-.072-.464-.088-.432-.12-.4-.144-.344-.168-.296-.176-.24-.192-.184-.208-.12-.216-.056-.224.008-.224.072-.224.136-.224.2-.208.256-.2.312-.184.352-.168.408-.152.44-.128.472-.104.496-.08.52-.056.52-.024h.528l.512.032.504.048.48.088.448.104.416.128.376.152.32.176.272.184.216.2.152.216.088.216.024.224-.032.224-.104.224-.168.216-.224.208-.28.192-.336.176-.384.16-.424.144M405.88 739.431l-.456.112-.48.088-.496.064-.512.04-.52.008-.512-.016-.496-.04-.48-.064-.456-.088-.425-.12-.375-.136-.336-.152-.29-.176-.23-.184-.168-.2-.112-.208-.048-.216.016-.208.08-.216.136-.208.2-.208.264-.192.304-.176.36-.16.4-.144.432-.12.472-.104.488-.08.504-.048.512-.024h.512l.504.024.496.056.463.08.441.104.4.12.36.144.312.168.256.176.2.192.144.208.08.208.024.216-.048.216-.104.208-.168.208-.232.2-.28.184-.336.168-.376.16-.424.136M561.567 695.375l-.408.096-.44.08-.456.056-.48.04-.488.008-.488-.008-.48-.04-.464-.056-.448-.088-.416-.104-.392-.12-.344-.136-.296-.152-.256-.168-.2-.184-.136-.184-.088-.192-.024-.192.04-.192.096-.184.152-.184.208-.168.256-.16.312-.144.352-.128.392-.112.424-.088.448-.072.472-.048.48-.024.488.008.48.024.472.048.456.064.432.096.408.112.36.128.328.144.272.16.232.176.168.184.12.184.056.192-.008.192-.064.192-.12.184-.184.176-.232.168-.288.152-.328.144-.376.12M590.888 711.367l-.416.104-.44.08-.472.064-.488.03-.496.018-.496-.017-.488-.039-.48-.056-.464-.088-.432-.104-.392-.128-.36-.144-.312-.168-.264-.168-.208-.192-.152-.192-.096-.2-.032-.2.032-.2.088-.192.152-.192.208-.176.256-.168.312-.152.352-.128.4-.12.424-.088.456-.072.48-.048.488-.024h.496l.496.024.48.048.472.08.44.087.416.121.384.136.336.152.288.168.232.176.184.192.128.2.064.2v.2l-.056.192-.12.192-.176.192-.232.168-.288.16-.328.144-.376.128" style="fill:none;stroke:#00ff4a;stroke-width:.999997;stroke-linecap:round;stroke-linejoin:round;stroke-miterlimit:4;stroke-dasharray:none;stroke-opacity:1;visibility:visible" visibility="hidden"/><path d="m604.28 702.359-.024-.008h-.032l-.032.008-.032.008-.032.008-.04.008-1.704.496M575.024 686.727l-.024-.008h-.064l-.032.008-.032.008-.04.008-1.688.48" style="fill:none;stroke:#00ff4a;stroke-width:1.99999;stroke-linecap:round;stroke-linejoin:round;stroke-miterlimit:4;stroke-dasharray:none;stroke-opacity:1;visibility:visible" visibility="hidden"/><path d="m382.576 749.183.008-.36.04-.336.064-.296.104-.248.12-.208.152-.152.176-.088.184-.04.208.032.208.08.216.144.216.2.208.248.192.288.184.328.168.368.144.376.112.4.088.4.056.4.024.384v.368l-.04.328-.072.296-.096.256-.128.2-.152.152-.176.096-.184.032-.208-.032-.208-.08-.216-.144-.216-.2-.208-.248-.192-.288-.184-.336-.168-.36-.136-.376-.12-.4-.088-.4-.056-.4-.024-.384" style="fill:none;stroke:#00ff4a;stroke-width:.999997;stroke-linecap:round;stroke-linejoin:round;stroke-miterlimit:4;stroke-dasharray:none;stroke-opacity:1;visibility:visible" visibility="hidden"/><path d="m380.511 741.383-.192.4-.168.448-.136.496-.104.528-.072.576-.032.608-.008.632.024.648.064.68.088.68.128.696.152.688.184.696.216.68.232.664.264.64.288.624.304.592.32.552.344.512.352.472.36.432.368.368.368.328.368.264.376.208.36.144.36.088M378.576 741.927l-.12.04-.072.032-.064.032-.088.072-.064.064-.04.064-.04.088M378.576 741.927l1.936-.544" style="fill:none;stroke:#00ff4a;stroke-width:.999997;stroke-linecap:round;stroke-linejoin:round;stroke-miterlimit:4;stroke-dasharray:none;stroke-opacity:1;visibility:visible" visibility="hidden"/><path d="m378.088 742.32-.12.408-.096.464-.064.496-.024.536v.568l.032.592.072.624.096.64.128.656.16.656.184.672.216.664.24.656.264.648.288.632.304.616.32.584.336.56.352.52.36.488.36.44.376.4.368.352.368.296.368.248.352.184.352.136.336.072.32.024.296-.048.28-.096.264-.16.232-.216.216-.264.176-.32.152-.376.128-.416.088-.472.056-.504.032-.536-.008-.576-.04-.608-.072-.624-.104-.648-.136-.656-.16-.672-.192-.672-.224-.664-.248-.664M385.072 746.96l-.048-.144-.024-.12-.01-.104.042-.104.04-.048.056-.04.12-.04M387.192 745.807l-1.944.552M407.647 759.35l-.2.392-.176.44-.144.488-.112.52-.08.56-.048.592-.016.624.016.648.056.664.08.672.112.688.144.688.176.688.2.688.232.664.248.656.28.632.296.6.32.576.336.536.344.496.36.456.368.408.376.36.376.304.384.248.376.192.368.136.36.08M405.688 759.927l-.128.04-.065.024-.071.04-.088.064-.064.064-.048.072-.04.088M405.688 759.927l1.96-.576" style="fill:none;stroke:#00ff4a;stroke-width:.999997;stroke-linecap:round;stroke-linejoin:round;stroke-miterlimit:4;stroke-dasharray:none;stroke-opacity:1;visibility:visible" visibility="hidden"/><path d="m405.184 760.32-.128.416-.104.464-.072.504-.04.544v.576l.032.608.063.632.097.648.127.664.161.68.192.68.216.68.248.672.272.664.296.648.312.624.336.608.344.568.36.536.376.504.376.456.384.408.392.36.384.312.376.256.376.2.36.144.352.08.336.024.32-.032.296-.096.27-.16.258-.208.216-.272.2-.32.159-.376.137-.424.096-.472.07-.512.034-.552v-.584l-.04-.608-.064-.64-.104-.656-.136-.672-.168-.68-.192-.688-.224-.688-.256-.68" style="fill:none;stroke:#00ff4a;stroke-width:.999997;stroke-linecap:round;stroke-linejoin:round;stroke-miterlimit:4;stroke-dasharray:none;stroke-opacity:1;visibility:visible" visibility="hidden"/><path d="m602.384 702.879 1.296.688M573.144 687.223l1.312.696" style="fill:none;stroke:#00ff4a;stroke-width:1.99999;stroke-linecap:round;stroke-linejoin:round;stroke-miterlimit:4;stroke-dasharray:none;stroke-opacity:1;visibility:visible" visibility="hidden"/><path d="m376.095 740.279 2.48 1.648M387.192 745.807l-6.68-4.424M385.248 746.359l20.44 13.568M414.616 763.967l-6.968-4.616M416.8 769.359l.376 3.64M416.92 776.303h0M415.309 766.32l-2.464-1.64M417.175 772.999l.032.44.016.416.008.384-.016.368-.016.312-.032.296-.04.272-.056.256-.048.208-.056.2-.12.344-.128.296-.144.232-.152.208-.04.056-.056.064-.128.12-.144.112-.152.096-.16.08-.16.064M375.543 740.151l.088-.016h.096l.08.016.088.024.096.048.104.056M415.28 766.295l.184.136.184.184.168.2.168.24.152.24.144.264.088.192.096.224.096.28.096.312.048.192.04.192.032.208.024.2" style="fill:none;stroke:#00ff4a;stroke-width:.999997;stroke-linecap:round;stroke-linejoin:round;stroke-miterlimit:4;stroke-dasharray:none;stroke-opacity:1;visibility:visible" visibility="hidden"/><path d="m374.935 741.863-.064-.048-.032-.056M374.92 741.663h0" style="fill:none;stroke:#00ff4a;stroke-width:1.99999;stroke-linecap:round;stroke-linejoin:round;stroke-miterlimit:4;stroke-dasharray:none;stroke-opacity:1;visibility:visible" visibility="hidden"/><path d="m375.336 745.4-.064-.04-.032-.056M380.007 754.75l.024.136.032.056.04.048" style="fill:none;stroke:#00ff4a;stroke-width:.999997;stroke-linecap:round;stroke-linejoin:round;stroke-miterlimit:4;stroke-dasharray:none;stroke-opacity:1;visibility:visible" visibility="hidden"/><path d="M374.84 741.76h0" style="fill:none;stroke:#00ff4a;stroke-width:1.99999;stroke-linecap:round;stroke-linejoin:round;stroke-miterlimit:4;stroke-dasharray:none;stroke-opacity:1;visibility:visible" visibility="hidden"/><path d="M375.495 740.159h.016l.008-.008h.016M415.584 777.823h-.024l-.008.008h-.008" style="fill:none;stroke:#00ff4a;stroke-width:.999997;stroke-linecap:round;stroke-linejoin:round;stroke-miterlimit:4;stroke-dasharray:none;stroke-opacity:1;visibility:visible" visibility="hidden"/><path d="m609.88 706.895 1.712-.504M611.591 706.39l.032-.008.04-.008.04-.008h.04l.048.008.048.024M604.207 702.583l.032-.056.032-.048.016-.032.008-.032v-.032l-.016-.024M604.207 702.583l-.192.304-.176.328-.16.352M580.343 691.079l1.696-.48M582.04 690.599l.032-.016.04-.008h.08l.04.008.048.024M574.96 686.943l.032-.056.024-.04.016-.04.008-.032v-.024l-.016-.024M574.96 686.943l-.184.304-.168.328-.152.344M603.68 703.567l6.2 3.328M574.455 687.919l5.888 3.16" style="fill:none;stroke:#00ff4a;stroke-width:1.99999;stroke-linecap:round;stroke-linejoin:round;stroke-miterlimit:4;stroke-dasharray:none;stroke-opacity:1;visibility:visible" visibility="hidden"/><path d="M415.584 777.823h0M375.535 740.151h.008M375.24 745.303h0M615.511 714.32h0" style="fill:none;stroke:#00ff4a;stroke-width:.999997;stroke-linecap:round;stroke-linejoin:round;stroke-miterlimit:4;stroke-dasharray:none;stroke-opacity:1;visibility:visible" visibility="hidden"/><path d="m422.149 775.872-6.565 1.95M571.504 685.223l-107.161 30.032M448.357 719.736l-72.821 20.407M374.84 741.76l.4 3.544M374.84 741.76l-.016-.216v-.208l.008-.192.024-.192.04-.168.064-.16.056-.112.08-.104.072-.072.088-.064.12-.064.064-.024.04-.016.016-.008M380.103 754.99l33.152 22.32M380.103 754.99l-.28-.208-.28-.232-.28-.256-.28-.288-.272-.312-.272-.336-.264-.352-.256-.376-.256-.4-.248-.408-.23-.424-.226-.44-.216-.448-.208-.464-.192-.464-.176-.472-.168-.48-.16-.48-.136-.48-.12-.48-.112-.48-.096-.48-.072-.472-.064-.456M415.543 777.83h-.008l-.048.016-.112.024-.168.032-.16.008h-.248l-.24-.032-.24-.056-.24-.072-.272-.12-.272-.144-.28-.176M575.024 686.727l-2.656-1.424M571.576 685.207h.008l.072-.016.08-.016h.08l.16.008.16.032.12.04.112.048" style="fill:none;stroke:#00ff4a;stroke-width:1.99999;stroke-linecap:round;stroke-linejoin:round;stroke-miterlimit:4;stroke-dasharray:none;stroke-opacity:1;visibility:visible" visibility="hidden"/><path d="m615.511 714.32-.056.464" style="fill:none;stroke:#00ff4a;stroke-width:.999997;stroke-linecap:round;stroke-linejoin:round;stroke-miterlimit:4;stroke-dasharray:none;stroke-opacity:1;visibility:visible" visibility="hidden"/><path d="m615.511 714.32.336-3.584M614.64 707.895l-2.8-1.496M614.64 707.895l.16.096.144.12.144.145.136.159.128.184.112.192.104.224.096.224.072.24.056.232.04.232.024.24.008.28-.016.272M604.28 702.359l-22-11.752" style="fill:none;stroke:#00ff4a;stroke-width:1.99999;stroke-linecap:round;stroke-linejoin:round;stroke-miterlimit:4;stroke-dasharray:none;stroke-opacity:1;visibility:visible" visibility="hidden"/><path d="M481.701 748.555 416.8 767.662M615.664 709.117l-119.041 35.045M460.357 719.254l.001.368M461.038 719.674l.125.147.102.145.053.153.021.152M460.358 719.622l.467-.11M461.038 719.674l-.213-.164M460.152 719.081l-.333-.125-.366-.111-.408-.087-.429-.072-.448-.056-.463-.025-.465-.008-.472.024-.456.04-.441.056-.426.088-.394.097-.354.122-.322.138-.276.147-.219.164M460.357 719.254l-.205-.172M453.88 719.473l-.22.188M416.8 767.662l16.704-10.351M387.192 745.807l18.688-6.376M573.144 687.223l-11.577 8.152M571.504 685.223l-9.937 10.152M602.384 702.879l-11.496 8.488M375.24 745.304l7.336 3.879M412.845 764.68l1.771-.713" style="fill:none;stroke:#00ff4a;stroke-width:.999997;stroke-linecap:round;stroke-linejoin:round;stroke-miterlimit:4;stroke-dasharray:none;stroke-opacity:1;visibility:visible" visibility="hidden"/><path d="m416.8 767.662 5.349 8.21M460.825 719.511l3.518-4.256M460.358 719.622l-12.001.114" style="fill:none;stroke:#00ff4a;stroke-width:1.99999;stroke-linecap:round;stroke-linejoin:round;stroke-miterlimit:4;stroke-dasharray:none;stroke-opacity:1;visibility:visible" visibility="hidden"/><path d="m496.623 744.162-14.922 4.393M422.149 775.872l-5.35-8.21M611.591 706.39l4.073 2.727M481.701 748.555l14.922-4.393" style="fill:none;stroke:#00ff4a;stroke-width:.999997;stroke-linecap:round;stroke-linejoin:round;stroke-miterlimit:4;stroke-dasharray:none;stroke-opacity:1;visibility:visible" visibility="hidden"/><path d="m613.44 723.671.416-.112.448-.088.472-.056.497-.04.503-.008.504.008.496.04.497.064.463.088.45.112.406.128.368.152.328.168.272.176.224.192.16.208.104.2.04.208-.016.208-.088.208-.144.192-.2.184-.256.176-.312.16-.36.136-.4.12-.43.104-.466.072-.48.048-.504.024h-.504l-.512-.024-.496-.056-.48-.072-.456-.104-.432-.12-.392-.144-.344-.16-.304-.17-.248-.19-.192-.192-.128-.208-.072-.208-.008-.208.056-.208.112-.2.176-.184.232-.184.288-.168.336-.144.376-.128M644.96 740.863l.424-.112.448-.088.488-.064.496-.04.512-.016.52.016.512.04.504.072.48.088.456.112.424.136.384.16.336.176.296.184.232.2.176.208.112.216.048.216-.008.216-.08.216-.136.208-.2.192-.256.184-.312.16-.36.144-.4.128-.44.104-.472.08-.496.048-.512.024h-.512l-.52-.024-.512-.056-.496-.08-.472-.104-.44-.128-.408-.144-.36-.168-.312-.184-.264-.192-.2-.208-.144-.216-.08-.216-.016-.216.048-.216.112-.208.168-.2.232-.184.28-.176.336-.152.384-.136M484.616 790.407l.472-.128.504-.104.52-.072.536-.04.552-.016.544.016.536.048.52.072.488.104.464.128.416.152.376.176.328.2.264.208.208.224.144.24.072.24.008.24-.056.248-.128.24-.184.224-.256.224-.312.2-.36.184-.408.168-.456.144-.488.112-.512.088-.536.056-.544.032h-.552l-.544-.032-.528-.064-.512-.088-.48-.12-.44-.144-.4-.16-.352-.192-.288-.2-.24-.224-.168-.232-.112-.24-.04-.24.032-.248.088-.24.16-.232.224-.224.28-.208.344-.2.384-.168.432-.152M454.791 771.095l.464-.12.496-.096.512-.072.528-.04.536-.016.536.016.52.048.504.072.48.096.448.128.4.144.368.168.304.184.256.208.192.208.136.232.064.224v.24l-.064.232-.128.224-.2.224-.248.208-.312.192-.36.176-.408.16-.448.136-.48.104-.504.088-.528.056-.536.024h-.536l-.528-.032-.52-.056-.496-.088-.464-.112-.424-.136-.384-.152-.336-.184-.28-.192-.224-.216-.16-.216-.096-.232-.032-.232.032-.232.104-.232.16-.224.224-.216.288-.2.336-.184.384-.168.424-.144M435.448 784.47l.016.4.064.408.088.424.12.408.152.4.176.384.192.344.216.312.224.264.232.208.232.16.232.096.216.032.208-.024.192-.096.168-.144.144-.208.112-.256.08-.304.048-.344.008-.376-.024-.4-.056-.416-.088-.416-.128-.416-.144-.4-.176-.376-.2-.352-.208-.312-.232-.256-.232-.216-.232-.152-.232-.096-.216-.04-.208.032-.192.088-.168.152-.136.208-.112.256-.08.304-.048.344-.008.376M465.015 804.207l.024.408.056.424.096.424.12.424.16.408.176.392.208.36.224.312.232.272.24.224.248.16.24.104.232.04.216-.024.2-.088.176-.144.152-.208.12-.264.088-.304.048-.352.016-.384-.024-.408-.056-.416-.096-.432-.12-.424-.16-.408-.176-.392-.208-.36-.224-.32-.232-.272-.24-.216-.248-.16-.24-.104-.232-.04-.216.024-.2.088-.176.152-.152.208-.12.264-.08.304-.056.352-.016.376" style="fill:none;stroke:#9500ff;stroke-width:.999997;stroke-linecap:round;stroke-linejoin:round;stroke-miterlimit:4;stroke-dasharray:none;stroke-opacity:1;visibility:visible"/><path d="m438.543 791.359-.384-.072-.384-.136-.392-.192-.4-.248-.392-.312-.4-.36-.384-.416-.376-.464-.368-.512-.352-.552-.336-.584-.312-.616-.288-.648-.264-.672-.248-.688-.208-.696-.184-.712-.152-.704-.112-.704-.088-.696-.048-.688-.016-.664.016-.632.056-.608.088-.576.12-.536.152-.496.184-.448.216-.392-1.984.592" style="fill:none;stroke:#9500ff;stroke-width:.999997;stroke-linecap:round;stroke-linejoin:round;stroke-miterlimit:4;stroke-dasharray:none;stroke-opacity:1;visibility:visible"/><path d="m431.304 776.927-.128.04-.072.032-.072.032-.088.072-.064.064-.048.072-.04.088M438.384 782.367l-.056-.152-.032-.12v-.112l.032-.104.048-.056.056-.04.119-.048 1.993-.6M438.384 782.367l.256.696.232.696.2.696.168.696.128.688.104.664.064.648.032.624v.592l-.04.56-.08.52-.104.472-.144.424-.176.384-.208.32-.232.272-.264.208-.288.152-.312.096-.336.032-.352-.032-.368-.088-.376-.152-.392-.208-.392-.272-.4-.32-.4-.376-.4-.424-.392-.464-.384-.521-.376-.543-.36-.592-.344-.616-.32-.64-.304-.664-.28-.68-.248-.688-.224-.688-.192-.696-.16-.688-.136-.68-.096-.656-.056-.64-.032-.616.008-.584.048-.552.072-.512.112-.472.152-.416M468.327 811.287l-.4-.064-.408-.128-.416-.192-.415-.248-.425-.312-.408-.368-.416-.424-.392-.48-.392-.52-.368-.56-.352-.608-.336-.64-.304-.664-.288-.688-.248-.712-.224-.72-.192-.728-.159-.728-.121-.728-.088-.72-.056-.704-.016-.68.024-.656.056-.624.096-.592.136-.552.16-.504.201-.456.231-.408-2.008.624" style="fill:none;stroke:#9500ff;stroke-width:.999997;stroke-linecap:round;stroke-linejoin:round;stroke-miterlimit:4;stroke-dasharray:none;stroke-opacity:1;visibility:visible"/><path d="m460.8 796.503-.136.04-.064.032-.072.04-.096.072-.072.064-.048.072-.04.088M468.215 802.183l-.056-.152-.032-.128v-.112l.032-.112.04-.048.056-.04.128-.056 2.016-.624M468.215 802.183l.264.712.232.712.2.72.176.704.136.696.096.688.064.656.024.632-.008.608-.048.56-.088.528-.12.48-.152.432-.184.376-.224.328-.248.264-.28.216-.312.144-.328.088-.352.024-.368-.032-.384-.104-.4-.16-.408-.224-.416-.272-.416-.336-.416-.392-.416-.44-.408-.48-.4-.528-.392-.568-.368-.608-.36-.632-.328-.656-.312-.68-.288-.696-.256-.704-.232-.712-.192-.704-.16-.704-.136-.688-.088-.68-.064-.648-.016-.624.008-.6.056-.552.088-.52.12-.472.16-.424" style="fill:none;stroke:#9500ff;stroke-width:.999997;stroke-linecap:round;stroke-linejoin:round;stroke-miterlimit:4;stroke-dasharray:none;stroke-opacity:1;visibility:visible"/><path d="m663.487 733.999-.024-.008h-.032l-.032.008-.032.008-.032.008-.04.008M661.56 734.56l1.736-.536M631.84 717.087l-.024-.008h-.024l-.032.008-.032.008-.04.008-.04.008" style="fill:none;stroke:#9500ff;stroke-width:1.99999;stroke-linecap:round;stroke-linejoin:round;stroke-miterlimit:4;stroke-dasharray:none;stroke-opacity:1;visibility:visible"/><path d="m428.608 775.135 2.696 1.792" style="fill:none;stroke:#9500ff;stroke-width:.999997;stroke-linecap:round;stroke-linejoin:round;stroke-miterlimit:4;stroke-dasharray:none;stroke-opacity:1;visibility:visible"/><path d="m629.935 717.623 1.712-.512" style="fill:none;stroke:#9500ff;stroke-width:1.99999;stroke-linecap:round;stroke-linejoin:round;stroke-miterlimit:4;stroke-dasharray:none;stroke-opacity:1;visibility:visible"/><path d="m440.543 781.135-7.256-4.8M438.551 781.735l22.25 14.768M470.4 800.91l-7.592-5.032M468.384 801.535l2.864 1.904" style="fill:none;stroke:#9500ff;stroke-width:.999997;stroke-linecap:round;stroke-linejoin:round;stroke-miterlimit:4;stroke-dasharray:none;stroke-opacity:1;visibility:visible"/><path d="m661.56 734.56 1.256.68M629.935 717.623l1.272.688" style="fill:none;stroke:#9500ff;stroke-width:1.99999;stroke-linecap:round;stroke-linejoin:round;stroke-miterlimit:4;stroke-dasharray:none;stroke-opacity:1;visibility:visible"/><path d="M472.968 813.495h0M472.864 806.663l.336 3.76M473.2 810.423l.032.448.016.416-.008.392-.016.36-.024.32-.04.296-.048.272-.056.256-.12.416-.136.36-.144.288-.152.248-.16.216-.088.088-.128.128-.152.12-.16.104-.168.08-.176.064M471.248 803.439l.2.152.2.192.184.216.176.248.16.264.152.272.096.208.096.232.112.288.096.328.048.2.04.2.032.208.024.216M432.752 790.447l-.04-.048-.032-.056-.024-.144" style="fill:none;stroke:#9500ff;stroke-width:.999997;stroke-linecap:round;stroke-linejoin:round;stroke-miterlimit:4;stroke-dasharray:none;stroke-opacity:1;visibility:visible"/><path d="m427.591 780.279.032.064" style="fill:none;stroke:#9500ff;stroke-width:1.99999;stroke-linecap:round;stroke-linejoin:round;stroke-miterlimit:4;stroke-dasharray:none;stroke-opacity:1;visibility:visible"/><path d="M472.84 806.463h0" style="fill:none;stroke:#9500ff;stroke-width:.999997;stroke-linecap:round;stroke-linejoin:round;stroke-miterlimit:4;stroke-dasharray:none;stroke-opacity:1;visibility:visible"/><path d="M676 742.967h0" style="fill:none;stroke:#9500ff;stroke-width:1.99999;stroke-linecap:round;stroke-linejoin:round;stroke-miterlimit:4;stroke-dasharray:none;stroke-opacity:1;visibility:visible"/><path d="M471.472 815.295h0l-.008.008h-.016l-.024.008" style="fill:none;stroke:#9500ff;stroke-width:.999997;stroke-linecap:round;stroke-linejoin:round;stroke-miterlimit:4;stroke-dasharray:none;stroke-opacity:1;visibility:visible"/><path d="M427.224 776.623h0M671.416 738.367l.04-.008.04-.008.04-.008h.04l.04.008.056.024M671.416 738.367l-1.736.544M662.815 735.239l.176-.368.192-.336.208-.312M663.392 734.223l.048-.056.024-.048.024-.032.008-.032.008-.032-.016-.024M639.44 721.279l.032-.016.04-.008h.08l.048.008.048.016M639.44 721.279l-1.728.512M631.207 718.311l.168-.352.184-.336.2-.312M631.76 717.311l.04-.056.024-.048.024-.032.008-.032v-.032l-.016-.024M662.815 735.239l6.864 3.672M631.207 718.311l6.504 3.48" style="fill:none;stroke:#9500ff;stroke-width:1.99999;stroke-linecap:round;stroke-linejoin:round;stroke-miterlimit:4;stroke-dasharray:none;stroke-opacity:1;visibility:visible"/><path d="M471.472 815.295h0" style="fill:none;stroke:#9500ff;stroke-width:.999997;stroke-linecap:round;stroke-linejoin:round;stroke-miterlimit:4;stroke-dasharray:none;stroke-opacity:1;visibility:visible"/><path d="M675.6 746.68h0M427.591 780.279h0M471.472 815.295l200.864-63.536M427.96 774.983l200.048-59.52M671.672 738.375l3.032 1.624M674.703 739.999l.168.104.16.12.152.152.152.168.136.192.12.208.112.232.096.24.08.248.056.24.04.24.032.248.008.296-.016.28M676 742.967l-.4 3.712M675.6 746.68l-.056.48-.088.456-.104.448-.12.432-.152.408-.16.384-.184.368-.208.344-.224.32-.24.296-.256.264-.272.24-.296.216-.304.176-.328.152-.128.048-.056.024M628.088 715.447h0l.072-.016.168-.024.168.008.16.024.16.048.152.072 2.872 1.528M471.424 815.311l-.04.016-.12.032-.176.032-.168.016-.248.008-.248-.024-.256-.04-.248-.072-.272-.096-.272-.128-.28-.144-.28-.176-36.064-24.288M432.752 790.447l-.304-.224-.304-.248-.296-.28-.304-.304-.296-.328-.288-.352-.28-.376-.28-.392-.272-.416-.256-.432-.256-.448-.24-.456-.224-.472-.216-.48-.208-.488-.184-.496-.176-.496-.16-.504-.144-.504-.128-.496-.112-.504-.096-.496-.08-.496-.056-.48M427.591 780.279l-.368-3.656M427.224 776.623l-.016-.224v-.216l.016-.2.032-.192.048-.184.072-.16.072-.112.08-.104.08-.072.088-.064.112-.056.064-.024.04-.016h.008M639.687 721.279l23.8 12.72" style="fill:none;stroke:#9500ff;stroke-width:1.99999;stroke-linecap:round;stroke-linejoin:round;stroke-miterlimit:4;stroke-dasharray:none;stroke-opacity:1;visibility:visible"/><path d="m675.815 741.224-202.951 63.608M628.008 715.463l-14.568 8.208M629.935 717.623l-16.495 6.048M663.296 734.024l-18.336 6.839M661.56 734.56l-16.6 6.303M470.399 800.911l14.217-10.504M472.864 804.832l11.752-14.425M440.544 781.135l14.247-10.04M427.591 780.279l7.857 4.191M472.864 806.663l-7.849-2.456M431.304 776.927l1.983-.592M460.8 796.503l2.008-.625M669.68 738.911l6.135 2.313M470.399 800.911l2.465 3.92" style="fill:none;stroke:#9500ff;stroke-width:.999997;stroke-linecap:round;stroke-linejoin:round;stroke-miterlimit:4;stroke-dasharray:none;stroke-opacity:1;visibility:visible"/></svg>