<svg xmlns="http://www.w3.org/2000/svg" baseProfile="full" height="1122.52" preserveAspectRatio="xMinYMin meet" style="width:729px;height:902px" width="793.701" xml:space="preserve"><path d="m376.192 587.233.27-.048.298.007.304.073.312.136.319.192.312.256.313.304.304.36.295.4.281.44.255.479.24.513.208.528.185.552.15.56.129.56.088.552.048.544.025.528-.025.495-.048.473-.088.432-.12.392-.159.336-.185.296-.208.232-.232.176-.263.112M375.2 588.24l.15-.296.178-.248.2-.208.223-.152.241-.104M379.2 597.113l-.281.056-.303-.016-.312-.072-.32-.144-.32-.2-.321-.264-.32-.32-.311-.368-.296-.416-.281-.464-.255-.496-.24-.52-.208-.544-.177-.56-.151-.576-.112-.568-.081-.56-.039-.552-.008-.52.03-.504.066-.464.104-.424.136-.376" style="fill:none;stroke:red;stroke-width:.999997;stroke-linecap:round;stroke-linejoin:round;stroke-miterlimit:4;stroke-dasharray:none;stroke-opacity:1;visibility:visible" visibility="hidden"/><path d="m376.995 591.177 1.001.4.258 1.288-.515.888M311.267 516.15l.12 1.07.16 1.098.184 1.112.224 1.12.247 1.136.281 1.136.304 1.144.336 1.152.368 1.136.383 1.144.417 1.128.44 1.12.455 1.103.481 1.089.504 1.072.52 1.048.544 1.016.552.992.576.968.584.927.59.897.61.856.615.816.625.776.632.736.63.68.634.64.632.584.64.536.624.48M323.931 545.525h0M323.899 545.517h0" style="fill:none;stroke:red;stroke-width:.999997;stroke-linecap:round;stroke-linejoin:round;stroke-miterlimit:4;stroke-dasharray:none;stroke-opacity:1;visibility:visible" visibility="hidden"/><path d="m323.675 545.43-.632-.48-.632-.536-.64-.592-.63-.632-.634-.688-.624-.728-.624-.776-.616-.824-.607-.856-.601-.896-.584-.928-.568-.968-.552-.992-.544-1.024-.52-1.048-.504-1.064-.48-1.096-.464-1.104-.44-1.12-.408-1.128-.392-1.136-.36-1.144-.336-1.152-.312-1.144-.279-1.136-.249-1.136-.216-1.12-.19-1.112-.154-1.096-.128-1.072M421.14 605.845l-.521.312-.552.248-.567.176-.593.12-.616.056-.64-.016-.648-.08-.671-.144-.69-.208-.695-.272-.703-.328-.713-.4" style="fill:none;stroke:red;stroke-width:.999997;stroke-linecap:round;stroke-linejoin:round;stroke-miterlimit:4;stroke-dasharray:none;stroke-opacity:1;visibility:visible" visibility="hidden"/><path d="m415.098 604.669.664.376.656.312.65.264.64.2.623.152.616.096.591.048.585-.016.559-.072M269.123 369.02h0M269.02 368.997h0M268.874 368.94l-.599-.408-.608-.456-.6-.52-.609-.56-.6-.616-.599-.664-.592-.712-.593-.752-.583-.8-.568-.832-.568-.88-.544-.912-.544-.952-.521-.976-.503-1.008-.497-1.033-.463-1.056-.456-1.079-.432-1.104-.409-1.112-.383-1.128-.368-1.136-.336-1.144-.312-1.144-.281-1.153-.263-1.143-.232-1.144" style="fill:none;stroke:red;stroke-width:.999997;stroke-linecap:round;stroke-linejoin:round;stroke-miterlimit:4;stroke-dasharray:none;stroke-opacity:1;visibility:visible" visibility="hidden"/><path d="m257.356 344.045.232 1.144.255 1.152.289 1.144.31 1.152.337 1.136.369 1.136.383 1.128.408 1.112.433 1.104.448 1.072.47 1.063.489 1.033.512 1.008.521.976.535.944.552.912.56.88.577.84.583.792.584.76.601.704.599.664.6.616.608.56.608.512.601.464.599.408M316.603 546.917l-.688-.824-.68-.872-.672-.912-.672-.952-.648-.984-.648-1.024-.625-1.056-.615-1.088-.601-1.12-.583-1.144-.56-1.168-.544-1.184-.52-1.208-.496-1.224-.48-1.232-.456-1.248-.424-1.248-.4-1.264-.376-1.256-.344-1.264-.32-1.256-.288-1.248-.256-1.24-.232-1.232-.192-1.216-.168-1.2-.137-1.184-.095-1.152-.072-1.136M321.252 550.077l-.12.136-.088.128-.081.12-.072.12-.055.136-.032.08-.017.032-.007.024M311.459 508.037l-.08.424-.072.432-.055.448-.057.463-.04.472-.032.481-.032.496-.016.504-.008.519v.528l.016.537.015.544.025.552.04.568.047.568.057.576M311.459 508.037l-.192.032-.216.056-.2.072-.216.079-.248.113-.264.128M325.115 545.23l-.208.072-.215.08-.216.088M325.115 545.23l.087-.04.065-.048.032-.04.008-.048-.008-.048-.024-.048-.04-.048-.056-.048" style="fill:none;stroke:red;stroke-width:.999997;stroke-linecap:round;stroke-linejoin:round;stroke-miterlimit:4;stroke-dasharray:none;stroke-opacity:1;visibility:visible" visibility="hidden"/><path d="m323.675 545.43.104.056.112.032.13.016h.134l.152-.016.08-.024.09-.024M309.754 516.701l-.055-.584-.049-.568-.032-.56-.023-.56-.016-.544v-.536l.008-.536.016-.52.031-.512.033-.496.048-.488.064-.48.071-.464.081-.456.088-.448.103-.432M297.85 400.645l.008.008M297.859 400.653l-.128.15-.112.122-.096.096-.104.08-.104.063-.12.056M257.21 364.245l-.583-1.056-.576-1.08-.552-1.112-.544-1.144-.52-1.168-.504-1.184-.48-1.208-.456-1.216-.44-1.24-.408-1.248-.393-1.257-.359-1.263-.344-1.265-.305-1.263-.287-1.272-.257-1.256-.224-1.256M264.955 373.692h0M256.835 343.573l-.216.056-.224.063-.224.081M257.356 344.045l-.041-.144-.063-.128-.073-.096-.096-.072-.112-.04-.136.008M270.322 368.748l-.215.056-.216.073-.232.08M270.322 368.748l.088-.03.065-.033.04-.04.015-.033-.008-.039-.015-.041-.04-.039-.049-.032M268.874 368.94l.065.032.08.024.088.016.103.008h.104l.121-.008.112-.024.112-.032M256.171 343.773l-.096.048-.09.072-.062.088-.057.096-.039.104-.016.112-.007.112.007.112M410.29 611.053l-.096-.272-.088-.248-.079-.232-.073-.224-.072-.248-.088-.272M414.227 604.533l-.232.072-.233.096-.215.104M415.098 604.669l-.07-.04-.097-.032-.104-.032-.112-.032-.12-.016-.12-.008h-.128l-.12.024M413.547 604.804l-.08.065-.057.072-.031.072-.008.071.016.065.03.064.05.048.063.047M324.947 545.181l.008.032.016.032" style="fill:none;stroke:red;stroke-width:.999997;stroke-linecap:round;stroke-linejoin:round;stroke-miterlimit:4;stroke-dasharray:none;stroke-opacity:1;visibility:visible" visibility="hidden"/><path d="m324.94 545.253.008-.04v-.032M228.395 216.949l.28.056.328.04.376.024.425.016.455-.008.488-.024.512-.032.528-.056.544-.064.552-.08.543-.096.537-.104.52-.112.495-.12.465-.128.44-.136.392-.136.352-.144.296-.136.248-.136.193-.136.127-.136.08-.12.01-.12M243.989 308.558l-13.2-77.542M249.978 343.757l-4.64-27.267M304.435 505.877l13.696-55.008M327.515 555.397l-.008-.016-.016-.05-.048-.134-.096-.28-.095-.288-.089-.28-.16-.56-.152-.552-.128-.496-.127-.48-.128-.448-.137-.44-.136-.368-.144-.344-.16-.312-.183-.288-.209-.248-.232-.208-.247-.176-.137-.08-.144-.064-.176-.065-.199-.056-.216-.047-.217-.024h-.455l-.456.056-.249.056-.248.07-.24.098-.232.104-.224.128-.208.143-.192.161-.175.168M343.92 566.428l-12.085-8.13M348.26 568.22l.15-.15.154-.129.152-.105.15-.095.178-.096.2-.096M348.26 568.22l-.112.13-.096.126-.09.121-.07.127-.064.136-.065.153M349.244 567.557l.319-.128.32-.088.312-.064.32-.032.28-.008.288.016.281.04.263.064.272.096.257.128.255.176.24.216M352.65 567.973l.265.304.224.352.175.368.17.392.135.384.119.408.128.416.112.432.137.488.063.248.065.232.071.248.065.232.072.216.056.2M354.771 573.669l-.048-.144-.048-.128-.041-.12-.039-.12-.04-.12-.048-.144M354.812 573.748l-.04-.08M363.97 579.917l-5.61-3.773M369.639 583.729l-5.668-3.812M373.283 586.1l-.024.063M373.523 585.669l-.24.432M375.02 584.621l.287-.096.304-.072.305-.04.303-.024h.288l.28.024.28.056.272.072.232.088.224.112.208.136.192.152.192.176.193.232.183.264.169.296.167.352.153.368.135.4.136.416.136.488.145.512.15.536.153.544M375.02 584.621l-.361.144-.312.168-.264.176-.216.184-.184.184-.079.104-.073.096M380.596 591.093l-.137-.376-.127-.368-.112-.368-.112-.368M400.08 604.203l-15.479-10.413M409.795 609.557l-.112-.384-.103-.384-.104-.368-.104-.368-.105-.352-.104-.336-.104-.328-.112-.312-.224-.552-.12-.256-.127-.24-.145-.224-.152-.208-.15-.184-.154-.16-.279-.224-.305-.192-.328-.144-.352-.112-.367-.064-.369-.024-.376.008-.376.048-.4.088-.384.12-.36.16-.344.192-.336.256-.288.288-.128.16-.104.16-.087.168-.041.088-.016.032v.008M411.986 622.237l-.31-.248-.28-.288-.24-.336-.2-.376-.162-.4-.112-.432-.07-.465-.28-.183M404.299 615.405l.024.056.057.088.127.232.288.432.312.416.33.4.342.368.353.35.167.162.17.152.142.128.128.104.096.088.09.072.062.048.05.04.198.16.376.28.336.232.313.2.279.168.136.064.145.064.167.072.176.048.184.032.184.008.216-.032.2-.072.21-.128.103-.08.039-.032.032-.024M380.7 599.389l-.04.032-.048.048-.112.088-.224.128-.216.072-.12.016h-.112l-.201-.032-.2-.056-.192-.072-.175-.088-.161-.088-.175-.104-.368-.24-.385-.272-.208-.16-.207-.16-.224-.192-.216-.184-.441-.408-.248-.248-.248-.264-.239-.272-.232-.28M374.94 595.477l.03.056.058.112.128.216.128.192.128.192.136.192.16.216M354.978 581.917l-.008.008-.016.016-.039.04-.104.088-.2.136-.193.08-.199.032-.184-.008-.2-.04-.217-.08-.112-.048-.08-.04-.095-.056-.145-.08-.183-.112-.209-.136-.232-.168-.24-.176-.248-.192-.255-.208-.264-.224-.304-.28-.297-.288-.295-.312-.28-.328-.272-.344-.257-.352-.239-.376-.105-.184-.039-.08-.032-.04M349.435 578.157l-21.673-14.712M322.45 559.837l-.25-.168M322.45 559.837l.16.288.168.272.168.248.15.216.282.344.288.328.272.288.27.264.267.248.263.232.144.112.08.072.112.088.135.104.169.12.176.136.2.128.208.136.208.12.185.096.047.024.056.032.064.024.072.024.08.024.08.024.161.024h.151l.152-.032.137-.064.143-.088.144-.112.072-.072.024-.032.016-.016M323.58 562.109l-.312-.24-.272-.288-.241-.32-.2-.352-.16-.392-.12-.408-.072-.44M267.619 371.677l.36-.032.352.016.336.056.312.112.256.144.216.168.192.19.152.218.13.199.103.209.095.224.087.232.089.248.08.264.072.264.08.28.08.32.09.32.078.336.095.344.112.4.121.4.137.408.143.416M271.387 377.413h0M286.556 385.813l-10.013-5.544M290.804 388.164v-.007M293.523 385.997l.368-.032.361.008.319.04.296.08.256.112.233.144.207.168.184.2.177.24.159.272.152.344.145.368M415.387 298.045l-.29-.192-.238-.2-.192-.208-.144-.216-.088-.224-.032-.232M428.72 547.068l1.563 55.536M425.73 440.759l1.999 71.086M269.443 386.51l-.384-.248-.336-.304-.305-.344-.263-.384-.208-.432M266.65 383.045h0M297.85 400.645l.177-.257.151-.295.128-.312.104-.344.08-.344.064-.36.048-.376.032-.4.016-.448-.008-.456-.024-.528-.056-.536M317.891 430.453l-.296-1.464-.32-1.48-.352-1.48-.393-1.488-.407-1.48-.448-1.48-.465-1.48-.495-1.464-.528-1.456-.545-1.44-.575-1.432-.592-1.408-.616-1.384-.64-1.368-.656-1.336-.68-1.312-.688-1.272-.712-1.248-.73-1.208-.733-1.176-.745-1.136-.76-1.088-.776-1.056-.776-1-.784-.96-.784-.904-.792-.864-.799-.808M318.132 450.87l.232-1.016.199-1.056.168-1.105.136-1.143.096-1.176M297.627 392.085l.096.272.097.288.096.296.095.312.08.304.088.312.152.656.064.352.064.344.064.384.048.384M296.38 387.94l.104.312.104.328.088.32.096.328.087.32.089.32.088.32.088.328.112.368.112.368.136.408.144.424M296.38 387.94h0M271.771 385.957l.008.008M271.78 385.965l-.13.168-.111.136-.103.104-.096.088-.112.072-.13.056M422.053 310.12l2.937 104.381M421.82 301.829l-6.432-3.784M421.547 418.213l.336.2.327.232.312.248.305.27.28.282.264.296.263.32.257.336.264.376.255.39.273.466.264.472M432.29 300.245l-.024.264-.096.264-.168.256-.24.247-.295.241-.361.224-.415.208-.465.192-.512.168-.552.144-.583.12-.609.096-.624.064-.632.032-.64.008-.632-.025-.616-.056-.592-.079-.568-.104-.527-.136-.497-.16-.44-.184-.384-.2M411.307 615.23l-.039-.368-.048-.368-.056-.352-.073-.352-.144-.648-.168-.64-.208-.68-.127-.384-.145-.376M410.57 619.253l.16-.224.144-.264.12-.272.096-.296.08-.288.073-.312.047-.32.04-.344.016-.384.01-.392-.018-.456-.032-.472M410.611 619.692l-.04-.44M430.283 602.605l.016 1.4-.016 1.36-.056 1.327-.104 1.281-.137 1.247-.167 1.193-.216 1.16-.247 1.104-.289 1.056-.328 1.008-.36.95-.393.898-.431.84-.465.784M381.588 595.164l-.04-.36-.048-.367-.056-.336-.072-.344-.145-.632-.16-.625-.208-.664-.128-.367-.127-.368M380.707 599.389l.208-.232.192-.288.16-.336.128-.376.112-.416.072-.448.047-.488.016-.52-.008-.552-.047-.568" style="fill:none;stroke:red;stroke-width:.999997;stroke-linecap:round;stroke-linejoin:round;stroke-miterlimit:4;stroke-dasharray:none;stroke-opacity:1;visibility:visible" visibility="hidden"/><path d="m402.331 609.077.056.56.088.576.136.664.16.664.192.672.224.672.248.656.264.648.287.624.153.296.16.296M402.627 605.917l-.112.36-.096.4-.063.432-.049.456-.016.488.008.504.032.52M373.01 589.285l.056.544.096.568.128.648.16.656.192.656.216.656.239.64.258.632.279.608.152.296.152.28M373.26 586.164l-.104.353-.081.399-.064.425-.04.456-.008.479.008.497.04.512M410.331 619.51l.12-.128.12-.128M328.476 559.22l-.04-.328-.056-.336-.12-.64-.145-.59-.152-.593-.2-.632-.12-.353-.12-.35M327.762 563.445l.193-.248.168-.288.136-.336.12-.376.088-.416.055-.456.033-.48v-.52l-.025-.544-.055-.56M349.435 578.157l-.264-.512-.232-.512-.208-.48-.201-.504-.167-.457-.153-.472-.143-.463-.12-.472-.128-.504-.104-.496-.088-.56-.072-.544M347.762 569.013l-.12.432-.087.48-.048.512-.016.552.016.584.048.608M322.155 559.253l.143.296.153.288M322.202 559.669l-.047-.416M355.78 577.645l-.048-.328-.048-.344-.128-.648-.137-.608-.159-.6-.2-.648-.12-.36-.128-.361M354.978 581.925l.208-.24.177-.296.151-.336.128-.384.096-.416.065-.464.039-.488.008-.528-.023-.553-.048-.575" style="fill:none;stroke:red;stroke-width:.999997;stroke-linecap:round;stroke-linejoin:round;stroke-miterlimit:4;stroke-dasharray:none;stroke-opacity:1;visibility:visible" visibility="hidden"/><path d="m320.603 553.989.064.448.079.464.089.448.096.448.112.416.112.416.128.416.135.408.161.44.167.432.201.472.208.456M320.78 550.853l-.112.432-.08.463-.04.513-.017.543.025.585.048.6M290.804 388.164l-.096.457-.073.487-.039.528-.016.56.024.577.047.608.072.623.105.632.135.64.16.65.184.647.208.64.232.632.256.608.273.6.295.568M272.38 381.405l-.088-.648-.128-.672-.152-.672-.184-.672-.208-.672-.232-.656M264.955 373.692l-.064.297-.064.319-.048.337-.032.368-.016.351v.377l.008.392.023.408.033.384.048.392.056.392.064.408.08.4.09.408.102.4.104.399.13.433.134.424.152.416.152.4.176.439.184.425.192.4.19.384M223.314 215.485l.05.104.111.096.167.08 4.737 1.183M404.883 614.71l-.16.168-.136.16-.265.328-.023.04M381.26 598.557h0M328.299 562.46h0M355.547 580.965h0M297.859 400.653l-.128.15-.112.122-.104.096-.096.08-.112.063-.12.056M296.372 387.94l.104.312.104.328.088.312.095.327.088.313.089.32.088.328.095.328.105.368.112.368.136.416.15.424M297.627 392.085l.073.208.087.256.088.272.096.304.088.296.09.328.078.344.08.344.08.368.064.368.064.408.056.408M297.187 401.22l-.128.032-.143.017-.145-.008-.152-.032-.15-.04-.17-.064-.176-.072-.184-.096-.176-.104-.183-.112-.2-.129-.201-.136-.208-.144-.2-.159-.424-.36-.232-.208-.232-.224-.224-.241-.216-.248-.24-.287-.224-.312-.216-.328-.192-.336M290.804 388.157l.112-.32.159-.312.201-.288.239-.264.248-.216.273-.192.287-.168.296-.144.288-.104.288-.08.297-.064.287-.032.288-.008.28.016.264.04.256.08.248.104.232.144.216.176.184.2.185.256.167.295.145.321.128.344M297.187 401.22h0M296.372 387.94h.008M297.484 396.061l-.081-.008-.096-.032-.12-.048-.119-.056-.144-.088-.152-.096-.16-.112-.153-.12-.16-.144-.2-.184-.151-.168-.128-.168-.096-.16-.073-.144M295.65 394.533l-.112-.248-.112-.264-.104-.272-.095-.288-.08-.296-.073-.304-.055-.296-.041-.288-.023-.296-.008-.288.008-.256.023-.24.041-.208.055-.192" style="fill:none;stroke:red;stroke-width:.999997;stroke-linecap:round;stroke-linejoin:round;stroke-miterlimit:4;stroke-dasharray:none;stroke-opacity:1;visibility:visible" visibility="hidden"/><path d="m295.491 394.181-.008-.017-.128-.36-.12-.359-.08-.256-.065-.256M295.075 390.797l.04-.016.056-.048.016-.008.073-.048.12-.072.071-.04.13-.048.142-.048.152-.032.153-.024.151-.008h.04M267.067 371.797l.456-.112.232-.024.224-.016.224.008.216.016.208.04.2.064.193.08.175.096.161.112.151.136.136.144.119.168.121.183.103.193.097.208.088.216.16.48.153.52.071.272.072.288.08.295.08.305.08.312.088.312.096.328.104.327.112.329.12.336M267.94 384.797l-.264-.28-.232-.28-.208-.264-.192-.272-.192-.304-.201-.352M264.955 373.692l.12-.335.185-.312.231-.288.264-.264.304-.224.32-.192.344-.161.344-.119M271.372 381.541l-.008-.008-.096-.024-.112-.04-.12-.056-.13-.081-.143-.087-.151-.112-.153-.12-.152-.12-.143-.136-.136-.144M270.028 380.613l-.121-.152-.103-.144-.088-.152-.065-.128M269.715 380.173l-.065-.136M269.65 380.037l-.095-.224-.104-.24-.096-.248-.08-.248-.081-.256-.063-.264-.057-.256-.039-.256-.032-.248-.025-.248-.008-.24v-.224l.016-.2.025-.2.04-.176.047-.152" style="fill:none;stroke:red;stroke-width:.999997;stroke-linecap:round;stroke-linejoin:round;stroke-miterlimit:4;stroke-dasharray:none;stroke-opacity:1;visibility:visible" visibility="hidden"/><path d="m269.739 380.213-.12-.272-.112-.28-.112-.288-.104-.288-.072-.248-.07-.256-.058-.256-.055-.256M269.107 376.357l.025-.008.023-.008.047-.032.073-.048.096-.048.12-.056.136-.056.168-.04M269.795 376.061l.16-.032.168-.008M425.26 433.013l-.29.16-.31.103-.337.049-.344-.008-.367-.056-.377-.12-.384-.184-.392-.224-.392-.288-.391-.336-.385-.384-.384-.432-.359-.464-.353-.497-.336-.528-.311-.551" style="fill:none;stroke:red;stroke-width:.999997;stroke-linecap:round;stroke-linejoin:round;stroke-miterlimit:4;stroke-dasharray:none;stroke-opacity:1;visibility:visible" visibility="hidden"/><path d="m424.947 422.101.2.384.216.392.217.392.215.392.208.392.207.4.201.4.192.4.176.4.168.4.143.4.129.4.103.4.081.4.056.392.024.4v.384l-.024.376-.056.368-.072.368-.104.352-.13.344-.142.32-.16.312-.176.296-.184.272-.19.256-.202.232-.2.208-.201.184-.199.168-.184.128M419.547 429.253l-.192-.4-.17-.408-.142-.424-.12-.44-.096-.448-.073-.448-.063-.456-.05-.456-.03-.456-.024-.456-.016-.448-.016-.456-.008-.432-.017-.432-.008-.424-.007-.408-.016-.384-.016-.376-.008-.36-.016-.336-.008-.32v-.592l.016-.264.024-.248.039-.232.057-.216.08-.2.095-.176.129-.168.144-.136.184-.128M419.22 418.125l.168-.096.184-.072.368-.088.352-.016.359.04.417.112.239.096.241.112M424.611 423.085l-.048-.144.017-.176.07-.2.121-.224.176-.24" style="fill:none;stroke:red;stroke-width:.999997;stroke-linecap:round;stroke-linejoin:round;stroke-miterlimit:4;stroke-dasharray:none;stroke-opacity:1;visibility:visible" visibility="hidden"/><path d="m426.036 427.485-.088.112-.05.048-.04.04-.054.04M425.804 427.725l-.112.064-.121.04-.135.024h-.137l-.143-.032-.153-.04-.152-.072-.151-.088-.152-.112-.16-.136-.153-.152-.152-.168-.143-.184-.136-.2-.137-.208-.128-.224M423.538 426.237l-.024-.104-.03-.16-.033-.184-.033-.2-.023-.224-.016-.248-.016-.264-.008-.28-.009-.297-.007-.295-.008-.304-.009-.312-.008-.296-.008-.272-.008-.256-.015-.464M423.283 421.388h0M423.418 421.477h0M423.395 421.797l.048-.024.048-.025.04-.015.05-.008.046-.016.048-.008M324.947 545.181l.016-.024M323.835 545.51v-.008M310.123 508.517l.056-.024h.03l.018.008.008.016v.04M311.179 508.23l.04-.048.048-.032.032-.032.048-.032.056-.032.056-.016M269.53 368.989h0M269.66 368.957l-.017-.016h-.023M324.148 545.533h0M324.418 545.453h.025l.032.016M325.051 545.213h.03l.034.016M324.963 545.157l.12.048M327.5 558.748v-.167l-.016-.193-.024-.207-.024-.216-.048-.288-.056-.296-.064-.304-.08-.288-.08-.289-.087-.295-.104-.289-.145-.407-.136-.416-.12-.408-.08-.312-.079-.304-.081-.296-.073-.264-.07-.24-.049-.136-.04-.12-.032-.088M354.73 577.013l-.008-.184-.016-.2-.024-.216-.033-.232-.047-.296-.065-.304-.07-.32-.081-.288-.088-.288-.096-.296-.105-.288-.151-.424-.128-.416-.119-.416-.073-.28-.072-.272-.072-.256-.064-.233-.055-.167-.042-.144-.047-.128-.04-.112M293.523 386.005v-.008M271.098 386.59h0M267.611 371.677h.008M272.346 381.39h0s.624 3.01-.568 4.577l-.16.216-.16.168-.152.136-.159.088-.169.048-.184.008-.199-.024-.224-.064-.24-.103-.265-.137-.287-.168-.313-.208-.32-.24-.336-.265-.336-.295-.336-.327M269.107 376.357l-.017-.008h-.087" style="fill:none;stroke:red;stroke-width:.999997;stroke-linecap:round;stroke-linejoin:round;stroke-miterlimit:4;stroke-dasharray:none;stroke-opacity:1;visibility:visible" visibility="hidden"/><path d="m424.611 423.085-.168-.304-.176-.288-.17-.256-.12-.168-.111-.144-.119-.144-.105-.112-.079-.088-.064-.056-.03-.032-.018-.008M426.036 427.493h0l.008-.024.016-.032.023-.05.033-.094.024-.136.016-.16v-.152l-.008-.176-.032-.2-.041-.2-.055-.224-.072-.232-.09-.24-.103-.256-.12-.272-.135-.28-.144-.288-.177-.336-.175-.337-.184-.327-.208-.392M324.418 545.453l.13-.056.126-.048.13-.048.127-.04.12-.048M325.051 545.213h.016l.008-.008h.007v-.008h.008M564.01 527.309l.416-.112.447-.088.473-.056.496-.04.504-.008.504.008.496.04.496.064.464.088.448.112.408.128.368.152.328.168.273.176.224.192.159.208.104.2.04.208-.016.208-.088.208-.144.192-.201.184-.255.176-.312.16-.36.136-.4.12-.432.104-.465.072-.479.048-.504.024h-.504l-.513-.024-.495-.056-.48-.072-.456-.104-.432-.12-.392-.144-.344-.16-.304-.168-.248-.192-.192-.192-.128-.208-.072-.208-.008-.208.056-.208.112-.2.176-.184.232-.184.288-.168.336-.144.376-.128M595.53 544.5l.424-.112.448-.088.49-.064.495-.04.511-.016.52.016.513.04.504.072.48.088.456.112.423.136.384.16.336.176.297.184.232.2.176.208.112.216.048.216-.008.216-.081.216-.135.208-.201.192-.255.184-.312.16-.36.144-.401.128-.44.104-.47.08-.497.048-.512.024h-.513l-.52-.024-.51-.056-.497-.08-.473-.104-.44-.128-.408-.144-.36-.168-.312-.184-.264-.192-.2-.208-.144-.216-.08-.216-.016-.216.05-.216.111-.208.167-.2.232-.184.281-.176.336-.152.383-.136M439.707 593.893l.464.112.432.144.383.168.336.184.289.2.224.216.168.232.104.232.04.24-.024.24-.096.24-.153.232-.215.216-.272.216-.328.192-.384.168-.416.152-.465.128M383.403 580.109l-1.528.456M381.874 580.565l-.128.04-.07.032-.073.032-.089.072-.063.063-.049.073-.039.088M388.955 586.005l.024.064.024.064M381.331 581.037l.016-.04.016-.032M411.523 600.093l-.15.048M411.372 600.14l-.137.04-.063.032-.073.04-.095.072-.072.064-.048.072-.04.088M410.812 600.621l.016-.04.015-.032M418.723 605.66l-.024-.112-.007-.096.023-.096.047-.081.089-.063.104-.04 2.016-.624M614.06 537.637l-.024-.008h-.032l-.032.008-.032.008-.032.008-.041.008M612.132 538.197l1.735-.536M582.41 520.725l-.024-.008h-.023l-.033.008-.032.008-.039.008-.041.008M580.507 521.261l1.712-.513M420.97 604.549l-1.512-1M439.891 601.437l185.16-57.792M612.132 538.197l1.255.68M580.507 521.261l1.272.688M625.275 543.637l-.048-.016h-.056l-.12.024M626.57 546.605h0M378.491 578.637l.016-.008h.008l.015-.008M512.14 499.013l-.41.096-.44.08-.455.056-.479.04-.49.008-.486-.008-.481-.04-.463-.056-.45-.088-.415-.104-.392-.12-.344-.136-.296-.152-.256-.168-.2-.184-.136-.184-.088-.193-.024-.191.04-.192.096-.184.152-.184.209-.168.256-.16.31-.144.354-.128.39-.112.425-.088.448-.072.472-.048.481-.025.487.009.481.024.47.048.458.064.43.096.409.112.36.128.328.144.273.16.23.176.169.184.12.184.056.192-.008.192-.063.192-.12.184-.184.176-.232.168-.29.15-.327.146-.375.12M541.459 515.005l-.416.104-.44.08-.472.064-.488.032-.495.016-.497-.016-.488-.04-.48-.056-.464-.088-.432-.104-.392-.128-.359-.144-.313-.168-.264-.168-.207-.192-.154-.192-.095-.2-.032-.2.032-.2.088-.192.153-.192.207-.176.257-.168.311-.152.353-.128.399-.12.424-.088.456-.072.48-.048.488-.024h.496l.496.024.48.048.472.08.44.088.416.12.385.136.336.152.287.168.23.176.186.192.128.2.065.2v.2l-.057.192-.12.192-.176.192-.232.168-.288.16-.328.144-.376.128M554.85 505.997l-.024-.008h-.032l-.032.008-.032.008-.03.008-.042.008-1.704.496M525.596 490.365l-.025-.008h-.063l-.032.008-.032.008-.041.008-1.687.48M329.148 545.565l-.12.04-.073.032-.063.032-.088.072-.065.063-.039.065-.04.088M329.148 545.565l1.024-.28M328.66 545.957l-.01.032-.015.04M335.692 550.717l-.025-.064-.024-.056M335.642 550.597l-.047-.144-.025-.121-.008-.103.041-.104.039-.048.057-.04.12-.04M337.148 549.621l-1.328.376M356.26 563.565l-.128.04-.065.024-.071.04-.09.064-.062.064-.05.072-.04.088M356.26 563.565l.112-.04M355.754 563.957l-.008.032-.016.04M363.098 568.925l-.024-.064-.023-.064M363.051 568.797l-.056-.144-.025-.12v-.104l.033-.112.048-.048.047-.04.129-.048" style="fill:none;stroke:red;stroke-width:.999997;stroke-linecap:round;stroke-linejoin:round;stroke-miterlimit:4;stroke-dasharray:none;stroke-opacity:1;visibility:visible" visibility="hidden"/><path d="m365.187 567.605-1.96.576 2.624 1.752 56.29-16.504M438.563 548.613l126.432-37.072M552.955 506.517l1.297.688M523.715 490.86l1.312.696M365.187 567.605l-1.383-.913M422.244 556.845l-53.584 15.776M372.563 575.213l49.784-14.728M328.66 545.957l-1.736-1.16M365.883 570.773l-.072-.072-.057-.064-.055-.056-.057-.048-.063-.048-.064-.048-2.464-1.64M365.85 569.933l.112.08.112.096.216.223.193.249.183.288.096.168.088.168.065.144.071.16" style="fill:none;stroke:red;stroke-width:.999997;stroke-linecap:round;stroke-linejoin:round;stroke-miterlimit:4;stroke-dasharray:none;stroke-opacity:1;visibility:visible" visibility="hidden"/><path d="M365.515 570.437v-.168l.016-.088.04-.072.056-.064.073-.056.151-.056M564.995 511.541l.112-.024h.056l.047.016M326.067 543.797h.016l.008-.008h.016M335.299 550.43l-.03-.072-.025-.072-.025-.065-.024-.063-.024-.064-.023-.072M335.148 550.02l.039-.304.081-.304.128-.288.16-.28.199-.256.224-.224.249-.184.264-.152.27-.096M331.747 544.613l5.016 3.32M356.132 564.269l6.56 4.36M362.692 568.629l-.121-.304-.095-.296-.073-.281-.047-.279-.033-.256-.016-.248-.008-.232.016-.24.041-.24.07-.232.113-.24.08-.104.097-.096M362.715 565.58l.216-.112.224-.08M357.924 561.925l-.297.112-.287.168-.265.208-.239.256M357.924 561.925l5.232 3.464M367.555 564.1l.288-.096.255-.112.208-.128.177-.136.12-.144.072-.153.024-.151M367.555 564.1l-4.4 1.288M336.762 547.933l21.161 13.992M362.692 568.629l.008.016.008.016M335.299 550.43l.264-.104M335.299 550.43l.008.016.008.016M335.148 550.02l1.367-.264M362.692 568.629l.279-.112M336.804 549.389l-.041-1.456M388.57 585.82l-.032-.073-.024-.071-.03-.072-.026-.064-.024-.072-.024-.08" style="fill:none;stroke:red;stroke-width:.999997;stroke-linecap:round;stroke-linejoin:round;stroke-miterlimit:4;stroke-dasharray:none;stroke-opacity:1;visibility:visible" visibility="hidden"/><path d="m388.41 585.389.04-.312.097-.312.127-.304.168-.288.208-.272.232-.232.256-.2.273-.152.279-.112M384.635 579.597l5.456 3.608M418.322 605.485l-.103-.304-.088-.304-.072-.28-.048-.28-.033-.256-.016-.248v-.24l.016-.232.033-.248.063-.232.112-.24.081-.112.088-.096M418.356 602.413l.224-.12.232-.088M413.107 598.437l-.296.12-.296.176-.27.224-.25.263M413.107 598.437l5.704 3.768M423.202 600.845l-4.39 1.36M390.09 583.205l23.017 15.232M388.57 585.82l.296-.112M388.57 585.82l.01.024.007.016M418.523 605.573l.177-.064M440.555 595.557l-.801.248M440.771 596.23l-1 .304M441.65 596.557l-.07-.168-.113-.168-.145-.168M405.364 574.733l.464-.12.495-.096.513-.072.528-.04.535-.016.537.016.519.048.504.072.481.096.448.127.399.145.369.168.303.184.257.208.19.208.138.232.064.224v.24l-.064.232-.128.224-.2.224-.248.208-.312.192-.361.176-.407.16-.448.136-.481.104-.504.088-.528.056-.535.024h-.536l-.528-.032-.521-.056-.495-.088-.465-.112-.423-.136-.385-.152-.336-.184-.279-.192-.224-.216-.161-.216-.095-.232-.033-.233.033-.231.104-.232.16-.224.224-.216.288-.2.336-.184.384-.168.424-.144M405.067 577.287l5.44-1.633M379.813 557.91l.465-.121.495-.095.512-.073.528-.039.535-.017.537.017.52.048.503.072.482.096.448.128.398.143.369.168.303.185.258.208.19.207.137.232.064.225v.24l-.064.232-.128.224-.199.224-.249.208-.312.19-.361.177-.406.16-.448.137-.482.104-.503.087-.528.056-.536.025h-.536l-.527-.032-.521-.056-.496-.09-.465-.111-.423-.135-.384-.153-.336-.183-.28-.192-.224-.216-.16-.216-.096-.232-.032-.233.032-.232.104-.231.16-.224.224-.217.288-.199.336-.185.385-.168.423-.143M379.516 560.464l5.44-1.632M352.13 540.338l.465-.12.496-.096.511-.072.528-.04.536-.016.537.016.519.048.504.072.481.096.448.128.399.144.368.168.304.184.257.208.191.208.136.232.065.224v.24l-.065.232-.128.224-.199.224-.249.208-.312.192-.36.176-.407.16-.448.136-.481.104-.504.088-.527.056-.537.024h-.536l-.527-.032-.52-.056-.497-.088-.464-.112-.424-.136-.383-.152-.336-.184-.281-.192-.224-.216-.159-.216-.096-.232-.032-.232.032-.232.104-.232.159-.224.224-.216.29-.2.335-.184.384-.168.423-.144M351.833 542.891l5.44-1.632M354.707 577.901l-.088.36-.12.32-.144.288-.161.232-.191.192-.2.144-.224.096M352.451 570.365l.232.192.233.224.224.256M323.795 551.837l.25-.04.254.024.272.072.272.136.28.192.28.248.272.288.264.344.256.384M327.484 559.493l-.088.368-.112.32-.144.288-.161.24-.184.192-.199.136-.216.096M325.29 552.133l.224.184.216.216.216.248M224.283 210.837l-.048.008-.048.016M228.955 212.773l-4.672-1.936M228.955 212.773l-.048.008-.048.008M235.82 212.388l-.112.081-.137.08-.183.08-.216.08-.248.071-.273.073-.311.063-.336.056-.328.05-.353.047-.36.032-.375.024-.368.015-.37.01-.358-.01-.344-.007-.368-.016-.336-.033-.312-.03-.281-.05-.287-.047-.241-.065-.199-.056-.168-.063M236.97 213.541h0M237.036 213.485l.08-.064.056-.064.039-.064.024-.056.017-.064v-.072" style="fill:none;stroke:red;stroke-width:.999997;stroke-linecap:round;stroke-linejoin:round;stroke-miterlimit:4;stroke-dasharray:none;stroke-opacity:1;visibility:visible" visibility="hidden"/><path d="m235.53 211.725.112.048.104.056.137.112.071.104.016.104-.039.12-.048.064-.064.056M230.843 209.797l4.688 1.928M224.283 210.837l-.16-.072-.128-.088-.056-.048-.048-.048-.032-.056-.008-.064v-.056l.016-.056.032-.056.056-.064.065-.064.095-.064.104-.056.137-.064.135-.056.152-.056.168-.048.175-.056.201-.048.208-.04.224-.048.224-.032.24-.04.239-.032.249-.024.256-.024.248-.016.256-.016.257-.008.247-.008h.263l.266.008h.247l.24.016.232.016.224.016.4.048.2.024.183.032.162.04.151.032.247.072.193.064M222.907 212.133h0M236.043 211.78l-.16-.048-.176-.024-.177.016M231.356 209.853l-.17-.05-.175-.014-.168.008M237.244 213.093l.008.008M222.692 211.86v-.007M422.891 296.213l-.048.016-.056.016M416.476 293.365l-.05.016-.054.016M416.476 293.365l6.416 2.848M420.843 291.381l.04-.05.041-.014" style="fill:none;stroke:red;stroke-width:.999997;stroke-linecap:round;stroke-linejoin:round;stroke-miterlimit:4;stroke-dasharray:none;stroke-opacity:1;visibility:visible" visibility="hidden"/><path d="m420.843 291.381-.367-.016-.393-.008-.416.008-.432.016-.408.032-.408.04-.399.056-.385.072-.336.08-.32.087-.279.097-.257.104-.208.112-.184.112-.135.12-.097.12-.057.128-.015.136.024.12.072.119.112.129.143.119.185.105.193.096M415.771 292.797h0M414.459 294.469h0M422.891 296.213l.256.104.321.104.191.048.207.056.224.048.249.04.248.04.256.032.272.032.288.024.304.016.304.016.31.008h.32l.298-.008.296-.016.295-.016.297-.032.288-.032.272-.04.272-.04.264-.056.24-.056.232-.056.208-.064.201-.072.182-.073.161-.071.144-.08.128-.08.11-.088.09-.088.073-.088.047-.088.023-.088.009-.08-.04-.168-.048-.088-.064-.08-.081-.08-.087-.072-.207-.128-.224-.112-6.433-2.832M423.588 291.909l-.177-.072-.2-.064-.407-.12-.416-.096-.448-.072-.513-.064-.287-.024-.297-.016M432.067 297.23h0" style="fill:none;stroke:red;stroke-width:.999997;stroke-linecap:round;stroke-linejoin:round;stroke-miterlimit:4;stroke-dasharray:none;stroke-opacity:1;visibility:visible" visibility="hidden"/><path d="m424.163 291.965-.185-.056-.191-.016-.2.016M430.596 294.797l-.177-.056-.199-.016-.2.016M432.202 296.773l.008.03M236.5 213.797h0M223.107 212.813l-.01-.016M237.21 214.357l-.008-.016" style="fill:none;stroke:red;stroke-width:.999997;stroke-linecap:round;stroke-linejoin:round;stroke-miterlimit:4;stroke-dasharray:none;stroke-opacity:1;visibility:visible" visibility="hidden"/><path d="m237.58 215.061-.025-.056-.04-.056M414.403 296.773v-.081l.008-.079M432.275 300.085l.016.08v.08M223.331 215.349l-.017.072v.064M418.26 424.733l-.016-.457-.016-.455-.008-.48-.017-.472-.008-.464-.016-.44-.007-.432-.016-.408-.016-.392-.017-.368-.007-.544M420.924 605.973l.216-.128M420.683 606.029l.25-.048" style="fill:none;stroke:red;stroke-width:1.99999;stroke-linecap:round;stroke-linejoin:round;stroke-miterlimit:4;stroke-dasharray:none;stroke-opacity:1;visibility:visible" visibility="hidden"/><path d="m313.21 505.557-.103.432-.088.448-.088.48-.073.504-.055.528-.057.552-.039.568-.025.592-.015.624v.64l.015.664.033.672.039.696.057.704.063.72.088.728.105.808.119.816.145.832.152.84.176.848.184.848.2.856.216.856.248.904.255.904.281.904.288.912.303.896.321.904.336.888.343.888.37.888.375.88.392.88.408.856.416.856.424.832.432.816.44.792.448.768.455.76.457.728.464.712.471.688.473.664.48.632.472.608.456.552.463.528.456.504.45.472.447.44.439.408.424.376.417.344.296.224.279.208.281.192" style="fill:none;stroke:red;stroke-width:.999997;stroke-linecap:round;stroke-linejoin:round;stroke-miterlimit:4;stroke-dasharray:none;stroke-opacity:1;visibility:visible" visibility="hidden"/><path d="m312.611 441.276.096-.44.088-.455.088-.489.072-.51.056-.537.048-.552.039-.576.025-.592.016-.72v-.744l-.024-.76-.04-.792-.055-.801-.073-.815-.096-.832-.104-.801-.12-.815-.136-.825-.152-.832-.168-.839-.185-.84-.191-.849-.215-.839-.233-.888-.257-.888-.271-.88-.281-.889-.294-.879-.313-.873-.328-.864-.336-.856-.35-.855-.37-.848-.376-.832-.384-.824-.4-.8-.41-.792-.414-.768-.424-.744-.416-.712-.432-.696-.432-.672-.441-.648-.44-.624-.44-.592-.44-.569-.439-.528-.415-.487-.417-.448-.41-.425-.397-.399-.401-.36-.375-.336-.378-.297-.351-.263-.288-.2-.272-.168-.256-.152" style="fill:none;stroke:red;stroke-width:1.99999;stroke-linecap:round;stroke-linejoin:round;stroke-miterlimit:4;stroke-dasharray:none;stroke-opacity:1;visibility:visible" visibility="hidden"/><path d="m270.322 367.013.385.375.375.345.37.32.351.288.344.256.328.232.312.192.295.168" style="fill:none;stroke:red;stroke-width:.999997;stroke-linecap:round;stroke-linejoin:round;stroke-miterlimit:4;stroke-dasharray:none;stroke-opacity:1;visibility:visible" visibility="hidden"/><path d="m258.931 341.717.159.92.185.936.2.936.216.944.232.952.248.944.272.936.28.935.288.929.31.92.32.912.337.904.344.896.36.888.377.872.376.856.392.84.408.824.415.808.417.792.432.768.432.744.44.72.448.696.44.648.44.623.44.609.44.568.44.544.44.512.44.48.423.44" style="fill:none;stroke:red;stroke-width:1.99999;stroke-linecap:round;stroke-linejoin:round;stroke-miterlimit:4;stroke-dasharray:none;stroke-opacity:1;visibility:visible" visibility="hidden"/><path d="m416.883 604.66.408.256.384.232.376.2.36.168.335.152.313.12.288.088.264.072.247.056.224.032.193.016h.16l.136-.008.112-.016" style="fill:none;stroke:red;stroke-width:.999997;stroke-linecap:round;stroke-linejoin:round;stroke-miterlimit:4;stroke-dasharray:none;stroke-opacity:1;visibility:visible" visibility="hidden"/><path d="m421.14 605.845.112-.088.128-.112.15-.16.17-.21.175-.254.184-.32.193-.376.15-.344.146-.392.144-.432.136-.465.127-.503.112-.536.104-.568.081-.608.07-.624.058-.664.039-.68.025-.712v-.736l-.017-.76M258.931 341.717l-21.352-126.656M313.21 505.557l13.976-54.936" style="fill:none;stroke:red;stroke-width:1.99999;stroke-linecap:round;stroke-linejoin:round;stroke-miterlimit:4;stroke-dasharray:none;stroke-opacity:1;visibility:visible" visibility="hidden"/><path d="m365.45 570.489-37.43-24.868" style="fill:none;stroke:red;stroke-width:.999997;stroke-linecap:round;stroke-linejoin:round;stroke-miterlimit:4;stroke-dasharray:none;stroke-opacity:1;visibility:visible" visibility="hidden"/><path d="m376.59 577.89-11.14-7.401" style="fill:none;stroke:red;stroke-width:1.99999;stroke-linecap:round;stroke-linejoin:round;stroke-miterlimit:4;stroke-dasharray:none;stroke-opacity:1;visibility:visible" visibility="hidden"/><path d="m381.62 581.232-5.03-3.341M416.883 604.66l-35.263-23.428" style="fill:none;stroke:red;stroke-width:.999997;stroke-linecap:round;stroke-linejoin:round;stroke-miterlimit:4;stroke-dasharray:none;stroke-opacity:1;visibility:visible" visibility="hidden"/><path d="m411.986 622.237-88.406-60.128" style="fill:none;stroke:red;stroke-width:1.99999;stroke-linecap:round;stroke-linejoin:round;stroke-miterlimit:4;stroke-dasharray:none;stroke-opacity:1;visibility:visible" visibility="hidden"/><path d="m302.484 385.245-29.401-16.056" style="fill:none;stroke:red;stroke-width:.999997;stroke-linecap:round;stroke-linejoin:round;stroke-miterlimit:4;stroke-dasharray:none;stroke-opacity:1;visibility:visible" visibility="hidden"/><path d="m414.403 296.773 3.712 123.048M418.26 424.733l5.167 171.568M269.443 386.51l-.744-.44-.736-.472-.728-.504-.72-.544-.72-.568-.713-.608-.703-.632-.687-.672-.689-.696-.69-.72-.671-.752-.671-.784-.665-.816-.664-.848-.656-.872-.647-.904-.632-.93-.632-.95-.616-.976-.616-.992-.592-1.016-.592-1.04-.552-1.016-.544-1.04-.536-1.056-.528-1.08-.513-1.088-.503-1.112-.488-1.12-.472-1.128-.464-1.144-.448-1.152-.432-1.16-.4-1.12-.392-1.136-.376-1.145-.361-1.15-.35-1.16-.337-1.153-.313-1.168-.303-1.16-.288-1.16-.264-1.161-.257-1.159-.232-1.112-.208-1.12-.199-1.112M306.899 388.332l.72.633.703.664.706.688.695.72.688.752.696.784.688.824.681.848.672.872.664.911.656.93.647.958.64.976.624 1.01.616 1.023.608 1.04.568 1.032.568 1.056.552 1.064.536 1.096.53 1.104.517 1.12.505 1.136.48 1.144.472 1.152.456 1.168.44 1.168.408 1.144.401 1.144.375 1.16.368 1.16.353 1.168.327 1.168.32 1.168.296 1.168.281 1.16.255 1.168.248 1.152.224 1.152.208 1.144.185 1.136.167 1.135.152 1.13.136 1.118.112 1.112.097 1.097.07 1.088.057 1.072.032 1.056.016 1.136-.008 1.112-.024 1.096-.056 1.088-.079 1.055-.097 1.05-.127 1.023-.145 1-.176.976-.192.95-.224.93" style="fill:none;stroke:red;stroke-width:1.99999;stroke-linecap:round;stroke-linejoin:round;stroke-miterlimit:4;stroke-dasharray:none;stroke-opacity:1;visibility:visible" visibility="hidden"/><path d="m302.484 385.245.744.432.75.464.738.496.736.536.727.568.721.59" style="fill:none;stroke:red;stroke-width:.999997;stroke-linecap:round;stroke-linejoin:round;stroke-miterlimit:4;stroke-dasharray:none;stroke-opacity:1;visibility:visible" visibility="hidden"/><path d="m298.7 402.965-29.256-16.456M432.29 300.245l7.592 300.455M244.899 341.661l-21.584-126.176M299.14 496.397l13.472-55.121M323.58 562.109l-.768-.544-.76-.576-.753-.608-.751-.648-.753-.68-.743-.712-.737-.736-.727-.776-.721-.8-.711-.832-.705-.856-.679-.856-.673-.888-.663-.912-.657-.928-.647-.96-.64-.984-.633-1-.615-1.024-.61-1.048-.598-1.056-.585-1.072-.544-1.04-.535-1.056-.53-1.072-.511-1.08-.503-1.096-.49-1.104-.48-1.12-.463-1.128-.448-1.128-.432-1.136-.416-1.144-.39-1.12-.386-1.128-.368-1.128-.351-1.136-.33-1.137-.327-1.135-.304-1.136-.279-1.128-.273-1.136-.256-1.12-.239-1.12-.216-1.112-.201-1.113-.183-1.112-.168-1.095-.153-1.096-.136-1.08-.112-1.072-.096-1.064-.07-1.048-.058-1.04-.039-1.024-.024-1.064v-1.056l.024-1.04.047-1.024.064-1.008.09-.992.111-.968.128-.952.159-.928.177-.912.2-.888M439.883 600.701l.016 1.208-.008 1.184-.04 1.168-.064 1.16-.088 1.128-.12 1.112-.144 1.087-.168 1.065-.208 1.048-.224 1.016-.256.992-.288.96-.321.944-.343.919-.383.897-.409.864-.448.84-.48.8-.512.776-.544.744-.576.704-.616.664-.527.512-.545.496-.576.456-.593.432-.615.392-.632.368-.65.328-.663.296-.679.256-.696.224-.704.184-.712.144-.72.104-.72.072-.728.04h-.72l-.776-.04-.77-.081-.775-.111-.768-.152-.768-.184-.759-.216-.76-.248-.752-.288-.752-.312-.873-.4-.863-.45-.864-.486-.856-.52-.857-.56M621.986 542.005l.041-.008.04-.008.04-.008h.04l.039.008.057.024M621.986 542.005l-1.735.544M613.387 538.877l.176-.368.19-.336.21-.313M613.963 537.86l.048-.056.025-.047.023-.033.008-.032.008-.03-.016-.025M590.01 524.917l.032-.016.04-.008h.08l.047.008.05.016M590.01 524.917l-1.728.512M581.78 521.949l.168-.352.185-.336.199-.312M582.331 520.949l.04-.056.024-.048.023-.032.008-.032v-.032l-.015-.024M613.387 538.877l6.864 3.672M581.78 521.949l6.504 3.48M378.53 578.621h.008M626.171 550.317h0M438.299 613.797l184.608-58.4M378.53 578.621l43.97-13.08M438.866 560.669l139.713-41.568M622.244 542.013l3.03 1.624M625.275 543.637l.168.104.16.12.15.152.154.168.136.192.12.208.112.232.096.24.08.248.056.24.04.24.033.248.007.296-.016.28M626.57 546.605l-.4 3.712M626.171 550.317l-.056.48-.087.456-.105.448-.119.432-.154.408-.159.384-.184.368-.21.344-.223.32-.239.296-.256.264-.272.24-.296.216-.304.176-.328.152-.128.048-.056.024" style="fill:none;stroke:red;stroke-width:1.99999;stroke-linecap:round;stroke-linejoin:round;stroke-miterlimit:4;stroke-dasharray:none;stroke-opacity:1;visibility:visible" visibility="hidden"/><path d="M578.66 519.085h0l.072-.016.168-.024.168.008.16.024.16.048.15.072 2.873 1.528M378.083 578.885l.016-.016.08-.072.09-.064.111-.056.064-.024.04-.016h.008M590.26 524.917l23.8 12.72M560.451 510.533l1.712-.504M562.163 510.029l.03-.008.042-.008.04-.008h.039l.049.008.048.024M554.78 506.22l.032-.056.032-.047.016-.033.007-.03v-.033l-.015-.024M554.78 506.22l-.192.305-.176.328-.16.352M530.916 494.717l1.695-.48M532.611 494.237l.03-.017.042-.007h.079l.042.007.047.025M525.53 490.58l.032-.056.025-.04.016-.04.008-.032v-.024l-.016-.024M525.53 490.58l-.184.304-.168.328-.15.344M554.252 507.205l6.199 3.328M525.028 491.557l5.888 3.16M326.107 543.79h.008M566.083 517.957h0M522.075 488.86l-84.424 23.665M421.043 517.173l-94.936 26.608M325.883 543.877l.064-.032.064-.024.04-.017.016-.007M525.596 490.365l-2.656-1.424M522.148 488.845h.008l.072-.016.079-.016h.081l.159.008.161.032.12.04.112.048M566.083 517.957l.336-3.584M566.083 517.957l-.055.464-.073.439-.096.433-.112.416-.136.4-.143.376-.169.36-.184.336-.208.312-.215.288-.233.264-.256.23-.263.21-.289.184-.295.152-.192.072-.097.04-.047.016M565.21 511.533l-2.8-1.496M565.21 511.533l.161.096.144.12.144.144.135.16.13.184.111.192.104.224.096.224.071.24.057.232.04.232.023.24.01.28-.018.272M554.85 505.997l-22-11.752" style="fill:none;stroke:red;stroke-width:1.99999;stroke-linecap:round;stroke-linejoin:round;stroke-miterlimit:4;stroke-dasharray:none;stroke-opacity:1;visibility:visible" visibility="hidden"/><path d="m336.515 549.757.008.008v.008h.008v.008h.008v.008M336.515 549.757l.024-.112.064-.112.097-.088.104-.056M363.107 566.909l.032.088.055.096.128.176.137.16.144.16.159.176.193.208M363.107 566.909l.032-.024.04-.008M331.314 544.797l-.15.056-.145.056-.288.112-.256.112-.232.112-.208.104-.185.112-.175.112-.161.112-.15.128-.13.136-.119.152-.096.16M331.747 544.613l-.216.072-.216.112M356.275 564.053l-.03.04-.026.032-.025.032-.023.04-.016.032-.023.04M356.835 562.669l-.176.248-.152.272-.112.288-.081.288-.039.288M368.7 563.181l-.025-.144-.071-.144-.12-.136-.161-.12M339.395 543.637l-.224-.12-.264-.104-.304-.088-.336-.064-.36-.04-.376-.016-.376.016-.368.032-.361.056-.336.08M339.395 543.637l28.927 19M331.747 544.613l4.344-1.224M368.73 564.669l-.024.152-.072.152-.128.144-.168.136-.216.128-.25.112-.285.096-4.409 1.288M336.804 549.389l20.03 13.28M356.123 564.285v-.01l.01-.006M329.01 546.276l.01-.007v-.008M368.7 563.181l.03 1.488M418.739 603.78v.016h.008v.024M418.739 603.78l.04-.016.041-.016M384.187 579.797l-.15.056-.154.064-.303.112-.265.12-.256.112-.208.104-.208.112-.184.112-.168.12-.159.128-.145.136-.136.16-.104.152M384.635 579.597l-.224.08-.224.12M411.41 600.66l-.039.04-.025.04-.032.032-.024.03-.023.042-.024.04M411.995 599.22l-.184.265-.161.288-.12.287-.079.304-.04.297M392.538 578.541l-.24-.136-.288-.112-.319-.096-.352-.064-.377-.04-.392-.024-.392.016-.384.032-.368.064-.344.088M392.538 578.541l30.864 20.272M384.635 579.597l4.448-1.328M422.883 602.485l-4.064 1.263M411.235 600.901l.01-.008v-.008" style="fill:none;stroke:red;stroke-width:.999997;stroke-linecap:round;stroke-linejoin:round;stroke-miterlimit:4;stroke-dasharray:none;stroke-opacity:1;visibility:visible" visibility="hidden"/><path d="M381.739 581.309v-.008l.008-.016" style="fill:none;stroke:red;stroke-width:1.99999;stroke-linecap:round;stroke-linejoin:round;stroke-miterlimit:4;stroke-dasharray:none;stroke-opacity:1;visibility:visible" visibility="hidden"/><path d="M418.747 603.82h.008v.016l.008.008v.008l.01.008.006.016.008.016.017.032.016.024" style="fill:none;stroke:red;stroke-width:.999997;stroke-linecap:round;stroke-linejoin:round;stroke-miterlimit:4;stroke-dasharray:none;stroke-opacity:1;visibility:visible" visibility="hidden"/><path d="M431.907 297.43h0M414.395 295.037l-.03.104-.009.104M414.395 296.445h0M432.235 298.045l-.008-.104-.032-.104M432.283 299.909h0M414.356 295.245l.039 1.2M432.235 298.045l.048 1.864" style="fill:none;stroke:red;stroke-width:1.99999;stroke-linecap:round;stroke-linejoin:round;stroke-miterlimit:4;stroke-dasharray:none;stroke-opacity:1;visibility:visible" visibility="hidden"/><path d="m405.207 607.28.09-.028M405.09 607.317l.117-.036M408.098 617.197l.216-.064" style="fill:none;stroke:red;stroke-width:.999997;stroke-linecap:round;stroke-linejoin:round;stroke-miterlimit:4;stroke-dasharray:none;stroke-opacity:1;visibility:visible" visibility="hidden"/><path d="m441.53 596.22.12.121.096.128M440.771 596.23v-.504M440.555 595.557l.216.168M440.555 595.557l-.384-.152-.432-.128M441.322 596.053l.208.167M441.322 596.053l-.55.176" style="fill:none;stroke:red;stroke-width:1.99999;stroke-linecap:round;stroke-linejoin:round;stroke-miterlimit:4;stroke-dasharray:none;stroke-opacity:1;visibility:visible" visibility="hidden"/><path d="m380.34 595.653-.032.112M350.028 575.541l-.13-.464-.103-.472M350.835 570.053h.008l.016-.008M353.58 579.533l-.257.04-.264-.008-.28-.08-.287-.128-.29-.192-.286-.24-.281-.288-.279-.344-.265-.376-.248-.424-.239-.456-.217-.48-.192-.504-.167-.512M351.523 569.949l.224.048.232.08.24.128.232.16M353.947 579.405l-.081.04-.079.024M350.859 570.045h.016M353.58 579.533l.207-.064M352.747 570.59l-.296-.224M323.003 557.253l-.12-.448-.104-.464M323.739 551.853l.032-.008.024-.008M326.38 561.133l-.24.04-.256-.024-.264-.072-.272-.128-.273-.184-.271-.232-.265-.28-.263-.328-.256-.376-.24-.4-.224-.44-.208-.464-.184-.488-.16-.504M324.403 551.74l.216.04.216.08.224.12.232.152M326.771 560.997l-.088.04-.096.032M323.795 551.837l.032-.008M326.38 561.133l.208-.064M325.58 552.357l-.29-.224M237.395 213.957l-.008.136-.073.136-.135.136-.193.128-.247.128-.304.12-.352.112-.4.112-.439.088-.482.088-.503.072-.528.056-.544.048-.56.032-.552.016h-.56l-.536-.016-.528-.024-.496-.05-.472-.055-.424-.071-.392-.08-.345-.096-.287-.104" style="fill:none;stroke:red;stroke-width:.999997;stroke-linecap:round;stroke-linejoin:round;stroke-miterlimit:4;stroke-dasharray:none;stroke-opacity:1;visibility:visible" visibility="hidden"/><path d="M237.252 213.101h0M223.364 212.925l-.232-.112-.17-.121-.12-.127-.047-.128" style="fill:none;stroke:red;stroke-width:1.99999;stroke-linecap:round;stroke-linejoin:round;stroke-miterlimit:4;stroke-dasharray:none;stroke-opacity:1;visibility:visible" visibility="hidden"/><path d="m228.036 214.87-4.672-1.944" style="fill:none;stroke:red;stroke-width:.999997;stroke-linecap:round;stroke-linejoin:round;stroke-miterlimit:4;stroke-dasharray:none;stroke-opacity:1;visibility:visible" visibility="hidden"/><path d="m237.252 213.101.143.856M222.692 211.86l.103.577M236.043 211.78l-4.688-1.928M236.043 211.78l.224.096.208.128.207.144.176.176.169.208.096.176.07.192.05.192M222.692 211.853l-.017-.176v-.176l.033-.184.039-.168.073-.16.079-.144.097-.144.112-.128.119-.112.16-.13.168-.111.176-.095.321-.144.359-.121.384-.112.249-.056.263-.055.273-.048.36-.048.367-.048.385-.04.383-.024.352-.024.36-.008h.712l.344.016.328.016.328.032.313.032.303.04.296.056.281.056.263.072.201.064.2.072M414.322 294.07h0" style="fill:none;stroke:red;stroke-width:1.99999;stroke-linecap:round;stroke-linejoin:round;stroke-miterlimit:4;stroke-dasharray:none;stroke-opacity:1;visibility:visible" visibility="hidden"/><path d="m414.347 294.829.032.168.08.16.144.16.184.16.241.152.287.136M421.73 298.629l.384.152.44.135.488.129.528.104.57.088.598.064.617.048.63.032h.633l.64-.016.624-.04.608-.056.584-.08.552-.096.52-.112.464-.136.417-.144.359-.16.305-.168.239-.184.167-.184.097-.192.032-.192M415.314 295.765l6.416 2.864" style="fill:none;stroke:red;stroke-width:.999997;stroke-linecap:round;stroke-linejoin:round;stroke-miterlimit:4;stroke-dasharray:none;stroke-opacity:1;visibility:visible" visibility="hidden"/><path d="m414.322 294.07.025.76M414.322 294.07l.01-.232.04-.232.063-.224.095-.208.112-.2.13-.176.175-.184.184-.168.2-.144.303-.184.336-.152.352-.144.424-.13.448-.11.49-.096.495-.072.448-.056.463-.032.465-.024.472-.008h.448l.448.024M432.21 296.804l.017.817M420.924 291.317l.399.024.393.04.383.048.369.056.375.072.352.088.336.096.32.104.313.12 6.432 2.832M430.596 294.797l.367.184.336.216.201.16.183.184.168.207.136.233.112.248.08.28.024.264M223.067 212.23h0M237.364 214.157l.063.088.032.096M222.859 212.821v-.096l.032-.096M223.26 215.173h0M236.85 213.621h0M237.459 214.341l.064.416M222.859 212.821l.401 2.352" style="fill:none;stroke:red;stroke-width:1.99999;stroke-linecap:round;stroke-linejoin:round;stroke-miterlimit:4;stroke-dasharray:none;stroke-opacity:1;visibility:visible" visibility="hidden"/><path d="M380.115 589.629v-.008M349.739 573.117l.04-.456.064-.4.081-.336.104-.304.063-.152.072-.144.09-.168.094-.184M352.747 570.59l.081.056.063.064.064.064.056.064.064.088.065.112M354.202 579.205l-.047.048-.04.04-.041.032-.039.032-.04.024-.048.024M354.707 577.901l-.048.296-.064.256-.073.216-.079.192-.104.176-.137.168M350.874 570.045l.112-.032.112-.024.096-.016.096-.016.112-.008h.12M353.14 571.037l.016.032.015.04.016.032.016.032.017.04.015.04M354.73 577.013l.008.176v.16l-.008.144-.008.128-.008.136-.008.144M350.347 570.973l.08-.16.088-.16.073-.136.071-.144.08-.152.096-.168M349.795 574.605l-.032-.28-.016-.256-.016-.232-.008-.224v-.24l.008-.256M325.58 552.357l.08.056.063.056.056.064.056.064.056.08.056.104M327.01 560.79l-.04.048-.04.04-.04.032-.04.032-.032.032-.048.024M327.484 559.493l-.048.296-.056.256-.065.216-.08.184-.095.176-.128.168M323.827 551.829l.104-.025.096-.023.088-.016.087-.008.097-.01.104-.006M325.947 552.78l.008.024.016.024.007.024.008.024.009.016.016.032M322.715 554.885l.03-.456.066-.392.072-.328.095-.304.065-.144.064-.144.087-.168.089-.184M327.5 558.748l.008.153-.008.136v.112l-.008.112v.112l-.008.12M323.283 552.765l.073-.16.079-.152.072-.144.073-.136.07-.152.089-.168M322.78 556.341l-.032-.272-.024-.248-.016-.232v-.216l-.008-.232.008-.256M405.09 607.317l.273-.048.296.007.303.073.313.136.32.192.311.256.313.304.303.36.297.4.279.44.257.48.24.512.208.528.183.552.153.56.128.56.088.552.047.544.024.528-.024.495-.047.472-.088.433-.12.392-.161.336-.183.296-.208.232-.232.176-.265.112M404.098 608.325l.153-.296.175-.248.2-.208.224-.152.24-.104" style="fill:none;stroke:red;stroke-width:.999997;stroke-linecap:round;stroke-linejoin:round;stroke-miterlimit:4;stroke-dasharray:none;stroke-opacity:1;visibility:visible" visibility="hidden"/><path d="m408.098 617.197-.279.056-.304-.016-.313-.072-.319-.144-.32-.2-.32-.264-.32-.32-.312-.368-.297-.416-.279-.464-.256-.496-.241-.52-.207-.544-.176-.56-.152-.576-.112-.568-.08-.56-.04-.552-.009-.52.032-.504.064-.464.104-.424.136-.376M405.895 611.261l1.001.4.258 1.288-.514.888M351.63 574.073l.875.333.25 1.083-.333.667M324.838 555.49l.875.333.25 1.083-.333.667M249.27 646.328l1.57 82.006" style="fill:none;stroke:red;stroke-width:.999997;stroke-linecap:round;stroke-linejoin:round;stroke-miterlimit:4;stroke-dasharray:none;stroke-opacity:1;visibility:visible" visibility="hidden"/><path d="m284.657 642.416 4.025 211.364M223.486 639.668l1.73 90.809" style="fill:none;stroke:red;stroke-width:1.99999;stroke-linecap:round;stroke-linejoin:round;stroke-miterlimit:4;stroke-dasharray:none;stroke-opacity:1;visibility:visible" visibility="hidden"/><path d="m270.347 368.765-.025-.008h-.03M270.211 368.765h.049M270.203 368.78l.008-.018M270.347 368.765l.087-.032.064-.033.041-.04.015-.031-.008-.04-.015-.04-.041-.04-.048-.032" style="fill:none;stroke:red;stroke-width:.999997;stroke-linecap:round;stroke-linejoin:round;stroke-miterlimit:4;stroke-dasharray:none;stroke-opacity:1;visibility:visible" visibility="hidden"/><path d="m270.442 368.477-.095.032-.073.064-.048.096-.016.096M305.98 387.356l-.058-.151-.022-.114v-.101l.031-.105.049-.048.055-.032.12-.041M306.1 387.667l-.066-.157-.054-.154M299.475 383.117l-.088.022-.087.034-.089.04-.071.047-.049.057-.048.056M299.475 383.117l1.008-.224M308.714 388.164h0M281.851 371.98l-1.991.44M279.61 372.757l-.008-.08.008-.08.032-.064.056-.056.08-.04.081-.017M273.466 368.925l-.088.024-.088.031-.088.04-.064.049-.056.048-.04.056M273.466 368.925l1.216-.265M496.875 320.555l-.025-.005h-.062l-.025.005-.033.01-.04.008-1.695.367M525.435 332.685l-.031-.008h-.056l-.033.008h-.032l-.033.008-1.711.384M511.763 339.66l-.416.08-.44.066-.472.047-.488.024-.488.008-.496-.008-.488-.032-.48-.048-.456-.064-.424-.08-.392-.098-.353-.11-.302-.128-.257-.137-.201-.143-.143-.152-.088-.152-.024-.153.04-.16.095-.151.153-.144.216-.136.265-.129.31-.12.361-.103.4-.088.433-.072.455-.057.472-.04.488-.015h.496l.496.024.48.031.464.057.44.078.408.09.368.104.328.12.287.128.225.142.175.146.12.152.057.152-.008.16-.064.151-.12.153-.183.136-.241.136-.288.128-.336.112-.384.095M483.161 327.26l-.416.074-.44.063-.454.048-.482.024-.488.008-.478-.008-.483-.032-.46-.04-.441-.064-.419-.08-.375-.096-.344-.112-.288-.12-.246-.128-.194-.137-.128-.143-.08-.152-.015-.145.04-.151.105-.144.16-.136.214-.136.264-.128.312-.112.36-.096.392-.088.424-.072.449-.048.473-.04.477-.016h.481l.482.024.47.032.448.056.432.072.4.088.352.095.32.12.272.12.216.137.168.143.104.143.05.147-.008.15-.074.145-.128.142-.182.146-.243.127-.287.12-.336.105-.376.095M307.091 385.525h0l.009.015M281.851 371.733l.072-1.544M280.146 372.109l1.288-.032M281.923 370.189l20.312 11.024M311.763 383.363l.288-.048.264-.064.225-.071.183-.08.128-.097.089-.096.031-.104M311.763 383.363l-4.512.577M302.235 381.213l-.305.072-.303.12-.28.184-.256.224-.224.264M302.235 381.213l5.016 2.727M306.795 384.069l.232-.08.224-.049M306.506 386.685l-.08-.28-.063-.28-.041-.248-.023-.248-.008-.224.009-.216.014-.2.041-.192.056-.208.079-.184.128-.185.088-.081.09-.069M277.106 367.573l4.816 2.616M280.146 372.109l.056-.312.112-.304.144-.288.184-.265.216-.231.248-.192.256-.16.28-.104.28-.064M280.211 372.34l-.016-.04-.008-.04-.006-.04-.018-.03-.008-.041-.008-.04M270.293 368.757l.037-.008.02-.009M535.337 336.98l.104-.022.096.015M494.075 319.46l.104-.014.094.007M308.338 388.644v-.174l.017-.09.039-.08.056-.055.073-.05.16-.055M270.994 367.653l.088-.024M494.075 319.46l-.088-.03-.08-.025-.074-.016h-.158l-.088.016M270.89 367.549l.032.006.033.018.031.007.033.017.031.008.033.024M308.17 386.309l-.912-.496M281.851 371.98l-.328-.174M271.083 367.629l2.384 1.296M494.995 320.94l1.465.616M523.539 333.077l1.456.623M433.826 359.893l101.511-22.913" style="fill:none;stroke:red;stroke-width:.999997;stroke-linecap:round;stroke-linejoin:round;stroke-miterlimit:4;stroke-dasharray:none;stroke-opacity:1;visibility:visible" visibility="hidden"/><path d="m308.17 386.309-2.016.456 2.53 1.375 107.766-24.327M281.803 371.74h.024l.024-.006M296.615 366.209l4.84-1.089M301.095 366.727l-.472.087-.496.072-.512.056-.528.033-.527.007-.529-.007-.511-.033-.489-.056-.464-.079-.432-.097-.384-.112-.336-.128-.288-.136-.232-.159-.168-.16-.104-.168-.04-.176.024-.177.088-.176.152-.175.208-.168.272-.161.328-.144.368-.136.417-.112.455-.104.48-.079.505-.064.521-.04.526-.025h.53l.518.025.496.04.48.065.45.086.406.104.36.12.313.137.263.143.2.16.137.168.08.168.007.176-.056.185-.12.168-.176.176-.24.16-.295.152-.353.143-.392.128-.44.113M323.115 380.54l4.84-1.086M327.595 381.06l-.472.09-.496.07-.512.057-.528.032-.527.008-.529-.008-.511-.032-.489-.057-.464-.081-.432-.094-.384-.112-.336-.128-.288-.138-.232-.157-.168-.161-.104-.169-.04-.175.024-.176.088-.176.152-.176.208-.168.272-.16.328-.144.368-.136.417-.112.455-.104.48-.08.505-.064.521-.04.526-.024h.53l.518.024.496.04.48.064.45.087.406.105.36.12.313.135.263.145.2.16.137.168.08.167.007.177-.056.183-.12.169-.176.176-.24.16-.295.152-.353.143-.392.129-.44.111" style="fill:none;stroke:red;stroke-width:.999997;stroke-linecap:round;stroke-linejoin:round;stroke-miterlimit:4;stroke-dasharray:none;stroke-opacity:1;visibility:visible" visibility="hidden"/><path d="m307.123 385.525.024-.008h.033" style="fill:none;stroke:red;stroke-width:1.99999;stroke-linecap:round;stroke-linejoin:round;stroke-miterlimit:4;stroke-dasharray:none;stroke-opacity:1;visibility:visible" visibility="hidden"/><path d="m274.043 369.717.097-.248.103-.24M300.058 383.925l.096-.258.112-.246M281.851 371.733l19.016 10.344M277.106 367.573l4.44-.536M284.842 367.429l-.215-.096-.257-.088-.303-.08-.327-.065-.362-.055-.376-.032-.375-.024h-.376l-.361.016-.344.032M284.842 367.429l27.776 14.984M312.971 382.805l-.025-.096-.063-.104-.112-.096-.153-.096M300.866 382.077l-.16.256-.128.264-.096.28-.056.288M300.426 383.165l-.032.048-.024.04-.032.04-.024.04-.024.04-.024.047M277.106 367.573l-.224.047-.224.073M276.658 367.693l-.152.047-.159.049-.297.096-.255.104-.249.111-.216.105-.192.12-.183.12-.168.128-.16.144-.145.152-.135.176-.105.184" style="fill:none;stroke:red;stroke-width:.999997;stroke-linecap:round;stroke-linejoin:round;stroke-miterlimit:4;stroke-dasharray:none;stroke-opacity:1;visibility:visible" visibility="hidden"/><path d="M307.1 385.54v.01l.006.005v.01l.009.008.01.024.022.032.024.038.01.018" style="fill:none;stroke:red;stroke-width:1.99999;stroke-linecap:round;stroke-linejoin:round;stroke-miterlimit:4;stroke-dasharray:none;stroke-opacity:1;visibility:visible" visibility="hidden"/><path d="m312.971 382.805-.048.96" style="fill:none;stroke:red;stroke-width:.999997;stroke-linecap:round;stroke-linejoin:round;stroke-miterlimit:4;stroke-dasharray:none;stroke-opacity:1;visibility:visible" visibility="hidden"/><path d="m525.435 332.685-21.488-9.12M535.539 336.973l-2.744-1.16M535.539 336.973l.144.08.144.096.136.111.136.145.12.16.111.175.113.209.096.224.071.232.057.224.048.231.024.24.016.2v.209l-.008.208M536.425 343.397l.32-3.68M536.425 343.397l-.055.463-.073.465-.087.448-.105.432-.128.424-.144.398-.158.378-.186.36-.192.344-.207.311-.225.297-.24.263-.255.24-.265.217-.28.183-.224.12-.224.097-.24.088-.127.04-.065.015-.032.009h-.023l-.009.008h-.016M493.659 319.389h.008l.073-.009.08-.007h.08l.112.007.095.025.103.024.065.024M496.875 320.555l-2.6-1.102M415.618 336.245l-144.775 31.264M493.585 319.405 433.13 332.46M416.803 375.685l-101.025 23.231M532.865 348.997l-98.743 22.712M536.425 343.397h0M493.585 319.405h0M496.459 321.555l5.568 2.37M524.995 333.7l5.857 2.49M496.825 320.821l.032-.064.024-.057.019-.04.007-.04v-.031l-.034-.034M496.825 320.82l-.192.36-.173.376M503.721 323.555l.04-.005.034-.01h.064l.04.009.046.016M502.025 323.925l1.695-.37M525.37 332.94l.04-.063.033-.048.016-.04.008-.04-.008-.04-.024-.024M525.37 332.94l-.19.37-.185.39M532.572 335.805l.03-.008.043-.008h.063l.04.008.048.016M530.85 336.189l1.72-.384" style="fill:none;stroke:red;stroke-width:1.99999;stroke-linecap:round;stroke-linejoin:round;stroke-miterlimit:4;stroke-dasharray:none;stroke-opacity:1;visibility:visible" visibility="hidden"/><path d="m311.7 384.493-4.52 1.024" style="fill:none;stroke:red;stroke-width:.999997;stroke-linecap:round;stroke-linejoin:round;stroke-miterlimit:4;stroke-dasharray:none;stroke-opacity:1;visibility:visible" visibility="hidden"/><path d="m307.26 385.813.094.104.089.096.088.087.089.089.095.096.112.104" style="fill:none;stroke:red;stroke-width:1.99999;stroke-linecap:round;stroke-linejoin:round;stroke-miterlimit:4;stroke-dasharray:none;stroke-opacity:1;visibility:visible" visibility="hidden"/><path d="m281.803 371.74-.28.066" style="fill:none;stroke:red;stroke-width:.999997;stroke-linecap:round;stroke-linejoin:round;stroke-miterlimit:4;stroke-dasharray:none;stroke-opacity:1;visibility:visible" visibility="hidden"/><path d="m307.123 385.525-.025.008" style="fill:none;stroke:red;stroke-width:1.99999;stroke-linecap:round;stroke-linejoin:round;stroke-miterlimit:4;stroke-dasharray:none;stroke-opacity:1;visibility:visible" visibility="hidden"/><path d="m281.523 371.805.008.248M312.923 383.765l-.032.12-.088.12-.136.112-.176.112-.231.104-.257.087-.303.073" style="fill:none;stroke:red;stroke-width:.999997;stroke-linecap:round;stroke-linejoin:round;stroke-miterlimit:4;stroke-dasharray:none;stroke-opacity:1;visibility:visible" visibility="hidden"/><path d="m307.18 385.685.014.024.016.014.016.027.01.015.014.024.01.024M307.1 385.533v.007" style="fill:none;stroke:red;stroke-width:1.99999;stroke-linecap:round;stroke-linejoin:round;stroke-miterlimit:4;stroke-dasharray:none;stroke-opacity:1;visibility:visible" visibility="hidden"/><path d="M210.4 642.385a113.169 113.169 0 0 0-33.185 18.647M373.523 585.669l4.216 8.084M309.754 516.701l-5.943-2.92M245.338 316.49l-1.349-7.932M223.26 215.173l7.529 15.843M243.989 308.558l1.349 7.932M310.122 508.517l-5.687-2.64M352.451 570.366l-8.531-3.938M325.58 552.357l6.255 5.94M352.747 570.59l5.614 5.554M376.59 577.89l-6.951 5.839M413.53 605.309l-13.45-1.106M390.091 583.205l-5.49 10.585M281.851 371.733l4.705 14.08M269.107 376.357l7.436 3.912M418.26 424.733l7.47 16.026M297.858 400.653l2.946-5.872M432.291 300.245l-10.238 9.875M423.283 422.077l1.707-7.576M297.628 392.084l-2.538.849M296.372 387.94l-.153 2.465M272.38 381.405l-3.344-3.336M564.995 511.541l-.985 15.768M563.02 522.949l.99 4.36M613.867 537.661 595.53 544.5M612.132 538.197 595.53 544.5M523.716 490.861l-11.576 8.152M522.075 488.86l-9.935 10.153M552.954 506.517l-11.495 8.488M331.747 544.613l-1.575.672M438.563 548.613l-16.423 4.816M422.14 553.429l16.423-4.816M438.866 560.669l-16.622-3.824M365.851 569.933l2.81 2.688M365.851 569.933l6.712 5.28M438.866 560.669l-16.52-.184M328.02 545.62l-1.096-.823M363.051 568.797l3.935 2.712M418.819 603.748l4.383-2.903M410.507 575.654l-5.143-.921M405.067 577.287l.297-2.554M405.364 574.733l-.297 2.554M405.364 574.733l5.143.92M384.956 558.832l-5.143-.922M379.516 560.464l.297-2.554M379.813 557.91l-.297 2.554M379.813 557.91l5.143.922M357.273 541.259l-5.143-.921M351.833 542.891l.297-2.553M352.13 540.338l-.297 2.553M352.13 540.338l5.143.921" style="fill:none;stroke:red;stroke-width:.999997;stroke-linecap:round;stroke-linejoin:round;stroke-miterlimit:4;stroke-dasharray:none;stroke-opacity:1;visibility:visible" visibility="hidden"/><path d="m440.771 596.23-2.472 17.567M438.866 560.669l-16.367 4.872M422.347 560.485l16.519.184M421.043 517.173l16.608-4.648M437.651 512.525l-16.608 4.648M564.01 527.309l-.99-4.36" style="fill:none;stroke:red;stroke-width:1.99999;stroke-linecap:round;stroke-linejoin:round;stroke-miterlimit:4;stroke-dasharray:none;stroke-opacity:1;visibility:visible" visibility="hidden"/><path d="m419.458 603.549 3.944-4.736M418.811 602.205l4.072.28M375.2 588.241l5.108 7.524M411.995 599.22l-5.355 14.617M350.347 570.973l2.075 5.183M325.115 545.229l-.277 10.261M323.283 552.765l2.347 4.808M523.539 333.077l-11.776 6.583M503.72 323.555l8.043 16.105M493.587 319.405l-10.426 7.855M493.585 319.405l-10.424 7.855M416.45 363.813l17.376-3.92M433.826 359.893l-17.376 3.92M301.095 366.727l-4.48-.518M301.095 366.727l.36-1.607M296.615 366.209l4.48.518M301.455 365.12l-.36 1.607M327.595 381.06l-4.48-.52M327.595 381.06l.36-1.606M323.115 380.54l4.48.52M327.955 379.454l-.36 1.606" style="fill:none;stroke:red;stroke-width:.999997;stroke-linecap:round;stroke-linejoin:round;stroke-miterlimit:4;stroke-dasharray:none;stroke-opacity:1;visibility:visible" visibility="hidden"/><path d="m433.13 332.46-17.512 3.785M415.618 336.245l17.512-3.785M434.122 371.709l-17.319 3.976M308.17 386.309l7.608 12.607M416.803 375.685l17.319-3.976" style="fill:none;stroke:red;stroke-width:1.99999;stroke-linecap:round;stroke-linejoin:round;stroke-miterlimit:4;stroke-dasharray:none;stroke-opacity:1;visibility:visible" visibility="hidden"/><path d="m471.17 420.94.326-.112.307-.176.28-.24.254-.288.226-.352.19-.392.154-.448.12-.496.086-.528.048-.568.009-.592-.03-.624M473.139 416.124l-.064-.64-.105-.656-.143-.672-.177-.664-.207-.664-.24-.648-.273-.632-.303-.616-.32-.584-.344-.544-.36-.512-.384-.472-.386-.424-.398-.369-.4-.31-.4-.257-.4-.2-.395-.136-.38-.072-.37-.016-.351.056M471.17 420.94l237.127-59.447M466.739 407.092l239.127-58.671M705.865 348.42l.424-.074.431-.015.433.049.432.103.432.168.416.224.407.28.393.328.376.384.343.424.328.472.289.504.264.544.232.569.184.591.16.616.111.624.073.632.032.632-.01.625-.045.615M711.572 356.717l-.096.6-.128.576-.168.544-.2.52-.24.48-.272.44-.306.4-.328.343-.358.305-.376.24-.392.192-.408.136M466.739 407.092l-.345.12-.32.184-.286.248-.258.312-.231.368-.185.432-.161.472-.113.52-.07.568-.04.592.01.632.047.648.088.672.118.68.168.688.202.68.232.672.264.664.296.64.328.608.342.576.37.536.384.496.4.448.406.392.418.336.407.272.417.208.408.152.392.08.383.008.359-.056" style="fill:none;stroke:#00ff4a;stroke-width:1.99999;stroke-linecap:round;stroke-linejoin:round;stroke-miterlimit:4;stroke-dasharray:none;stroke-opacity:1;visibility:visible"/><path d="m470.563 410.116-.048.512-.018.536.026.544.047.56.087.568.113.56M471.435 415.363l.264.528.28.489.304.455.327.4M470.77 413.396l.17.215.143.25.127.277.105.306.072.304.04.312.008.304" style="fill:none;stroke:#00ff4a;stroke-width:.999997;stroke-linecap:round;stroke-linejoin:round;stroke-miterlimit:4;stroke-dasharray:none;stroke-opacity:1;visibility:visible"/><path d="m702.786 351.034.082-.024.07-.024.056-.04.04-.04.032-.088-.016-.04-.024-.048-.088-.072-.144-.056-.176-.048-.216-.016-.192-.008-.208.016-.184.024-.168.032-.128.04-.088.048-.04.048v.048l.056.056.104.064.152.048.184.056.112.024.12.016.112.016.12.008h.12l.112-.008.104-.008.096-.024M476.688 406.588l.096-.033.09-.03.069-.05.057-.039.064-.104v-.048l-.014-.056-.074-.088-.128-.072-.176-.048-.216-.024-.208-.008-.224.018-.207.03-.193.032-.152.048-.12.056-.072.064-.023.056.031.072.09.072.142.064.185.055.12.025.12.024.126.016.131.008h.125l.129-.008.12-.009.112-.023" style="fill:none;stroke:#00ff4a;stroke-width:.666665;stroke-linecap:round;stroke-linejoin:round;stroke-miterlimit:4;stroke-dasharray:none;stroke-opacity:1;visibility:visible"/><path d="m470.77 413.396 1.84 3.839" style="fill:none;stroke:#00ff4a;stroke-width:.999997;stroke-linecap:round;stroke-linejoin:round;stroke-miterlimit:4;stroke-dasharray:none;stroke-opacity:1;visibility:visible"/><path d="m705.866 348.421-3.08 2.613M705.865 348.42l-3.079 2.614M466.739 407.092l9.949-.504M466.739 407.092l9.949-.504" style="fill:none;stroke:#00ff4a;stroke-width:.666665;stroke-linecap:round;stroke-linejoin:round;stroke-miterlimit:4;stroke-dasharray:none;stroke-opacity:1;visibility:visible"/><path d="m352.451 570.366-.821 3.707" style="fill:none;stroke:red;stroke-width:.999997;stroke-linecap:round;stroke-linejoin:round;stroke-miterlimit:4;stroke-dasharray:none;stroke-opacity:1;visibility:visible" visibility="hidden"/></svg>