<svg xmlns="http://www.w3.org/2000/svg" baseProfile="full" height="793.701" preserveAspectRatio="xMinYMin meet" style="width:912px;height:1303px" width="559.371" xml:space="preserve"><path d="m268.702 530.67-.607.33M268.094 530.999a.173.173 0 0 0-.067.068" style="fill:none;stroke:red;stroke-width:.663998;stroke-linecap:round;stroke-linejoin:round;stroke-miterlimit:4;stroke-dasharray:none;stroke-opacity:1;visibility:visible"/><path d="m242.41 685.074 19.363-112.409M253.071 571.576l-19.687 112.23M258.326 553.559a76.88 76.88 0 0 0-5.256 18.016M266.649 555.643a71.456 71.456 0 0 0-4.876 17.021M266.65 555.643l22.95-51.487M281.595 502.234l-23.268 51.324M179.18 496.892l-45.06 92.616M200.037 494.732l-.395-.456-.77-.812-.799-.725-.824-.651-.841-.561-.866-.47-.87-.374-.88-.28-.878-.184-.837-.08M190.353 490.25l-4.424.828M192.93 500.502a8.07 8.07 0 0 0-3.376-2.494M184.254 491.592a10.576 10.576 0 0 0-5.074 5.3M249.965 554.748l-49.928-60.016M192.93 500.502l50.197 59.783" style="fill:none;stroke:red;stroke-width:1.66133;stroke-linecap:round;stroke-linejoin:round;stroke-miterlimit:4;stroke-dasharray:none;stroke-opacity:1;visibility:visible"/><path d="m254.176 563.988.616-.276" style="fill:none;stroke:red;stroke-width:.663998;stroke-linecap:round;stroke-linejoin:round;stroke-miterlimit:4;stroke-dasharray:none;stroke-opacity:1;visibility:visible"/><path d="m243.131 560.257.76.793.83.76.82.65.809.545.801.45.875.391.89.315.924.228.904.13.872.03.772-.063M254.727 556.65l-.139.068-.45.132-.49.043-.514-.043-.535-.137-.536-.228-.54-.31-.448-.334-.476-.431-.484-.508-.159-.183" style="fill:none;stroke:red;stroke-width:1.66133;stroke-linecap:round;stroke-linejoin:round;stroke-miterlimit:4;stroke-dasharray:none;stroke-opacity:1;visibility:visible"/><path d="m252.76 556.644-.048.096" style="fill:none;stroke:red;stroke-width:.663998;stroke-linecap:round;stroke-linejoin:round;stroke-miterlimit:4;stroke-dasharray:none;stroke-opacity:1;visibility:visible"/><path d="m263.554 532.995-10.807 23.648" style="fill:none;stroke:red;stroke-width:1.66133;stroke-linecap:round;stroke-linejoin:round;stroke-miterlimit:4;stroke-dasharray:none;stroke-opacity:1;visibility:visible"/><path d="m257.467 570.441-19.581 112.601M242.282 685.157l.061-.021.044-.023.022-.03.002-.037-.02-.034-.041-.043-.063-.033-.074-.036M242 685.035l-3.603.775M242 685.035l.021-.007.015-.008.01-.009v-.012l-.01-.012-.01-.013-.022-.012-.028-.014M238.137 685.776l-4.319-1.847M233.512 683.723l-.061.019-.044.022-.019.036v.031l.019.036.041.04.061.039.078.034M233.794 683.845l-.021.007-.015.004-.007.016v.008l.007.014.013.012.022.012.026.011M237.903 685.828c.244.102.514.137.772.102M238.137 685.776a.521.521 0 0 0 .258.034M237.904 685.828l-4.317-1.847M242.282 685.157l-3.607.773M233.794 683.845l3.596-.783M262.917 551.612a80.37 80.37 0 0 0-5.451 18.828M237.65 683.097a.461.461 0 0 0-.26-.034M286.058 500.225l-23.14 51.387" style="fill:none;stroke:red;stroke-width:.663998;stroke-linecap:round;stroke-linejoin:round;stroke-miterlimit:4;stroke-dasharray:none;stroke-opacity:1;visibility:visible"/><path d="m289.49 503.754-3.432-3.53M285.365 500.077l-3.643 2.024M281.722 502.102a.29.29 0 0 0-.128.134M289.597 504.158a.363.363 0 0 0-.108-.403M286.057 500.226a.61.61 0 0 0-.692-.148" style="fill:none;stroke:red;stroke-width:1.66133;stroke-linecap:round;stroke-linejoin:round;stroke-miterlimit:4;stroke-dasharray:none;stroke-opacity:1;visibility:visible"/><path d="m142.73 593.648-4.573.579M142.73 593.648l.081-.019.066-.03.048-.044.025-.059.008-.063-.016-.073-.035-.075-.057-.077M137.386 593.902a.981.981 0 0 0 .77.323M137.386 593.9l-3.353-3.899M134.148 589.563l-.08.017-.064.032-.048.047-.024.056-.008.065.017.074.035.074.056.075M134.366 589.819l-.025.004-.022.015-.016.009-.008.021-.002.024.005.023.012.027.02.024M134.366 589.819l4.576-.593M137.683 593.863l-3.353-3.899M137.682 593.863a.332.332 0 0 0 .256.11M142.512 593.393l.03-.004.017-.012.017-.015.01-.018.002-.023-.004-.024-.013-.025-.018-.022M142.512 593.393l-4.57.581M139.201 589.335l3.352 3.915M139.201 589.336a.332.332 0 0 0-.257-.11" style="fill:none;stroke:red;stroke-width:.663998;stroke-linecap:round;stroke-linejoin:round;stroke-miterlimit:4;stroke-dasharray:none;stroke-opacity:1;visibility:visible"/><path d="m142.85 593.208 44.777-93.053" style="fill:none;stroke:red;stroke-width:1.66133;stroke-linecap:round;stroke-linejoin:round;stroke-miterlimit:4;stroke-dasharray:none;stroke-opacity:1;visibility:visible"/><path d="m190.308 490.86-.859.299-.826.413-.792.524-.754.628-.706.737-.658.838-.601.928-.544 1.018" style="fill:none;stroke:red;stroke-width:.663998;stroke-linecap:round;stroke-linejoin:round;stroke-miterlimit:4;stroke-dasharray:none;stroke-opacity:1;visibility:visible"/><path d="M192 490.142a7.065 7.065 0 0 0-1.654.114" style="fill:none;stroke:red;stroke-width:1.66133;stroke-linecap:round;stroke-linejoin:round;stroke-miterlimit:4;stroke-dasharray:none;stroke-opacity:1;visibility:visible"/><path d="m191.36 496.528.365-.119.722-.114h.738l.746.108.746.22.743.326.73.434.71.534.687.634.656.72" style="fill:none;stroke:red;stroke-width:.663998;stroke-linecap:round;stroke-linejoin:round;stroke-miterlimit:4;stroke-dasharray:none;stroke-opacity:1;visibility:visible"/><path d="m187.627 500.156.444-.817.499-.735.549-.643.599-.546.64-.442.668-.336.336-.108" style="fill:none;stroke:red;stroke-width:1.66133;stroke-linecap:round;stroke-linejoin:round;stroke-miterlimit:4;stroke-dasharray:none;stroke-opacity:1;visibility:visible"/><path d="M187.445 496.907h.257l.227-.136.173-.255.099-.345.012-.399-.075-.408-.153-.366-.215-.288-.25-.178-.264-.044-.24.094-.192.218-.124.323-.04.388.046.41.134.386.197.316.244.213.164.071" style="fill:none;stroke:red;stroke-width:.663998;stroke-linecap:round;stroke-linejoin:round;stroke-miterlimit:4;stroke-dasharray:none;stroke-opacity:1;visibility:visible"/><path d="M185.929 491.078a7.223 7.223 0 0 0-1.599.49" style="fill:none;stroke:red;stroke-width:1.66133;stroke-linecap:round;stroke-linejoin:round;stroke-miterlimit:4;stroke-dasharray:none;stroke-opacity:1;visibility:visible"/><path d="m198.203 499.272 50.124 59.985M201.68 509.517l.067.075.152.137.176.13.19.117.215.098.212.074.22.053.21.03.205.007.186-.022.168-.046.142-.066.11-.088.08-.111.043-.123.012-.134-.03-.148-.062-.151-.096-.15-.125-.149-.156-.136-.176-.129-.198-.115-.209-.096-.216-.074-.219-.05-.213-.029h-.204l-.184.024-.164.047-.136.07-.11.092-.077.108-.041.128-.004.138.033.142.064.152.135.195M241.858 557.406l.064.07.143.135.169.12.188.111.2.095.21.072.211.056.21.03.198.011.188-.015.164-.04.144-.057.112-.083.086-.096.048-.113.013-.128-.019-.136-.057-.136-.09-.14-.118-.139-.15-.134-.17-.122-.185-.108-.203-.09-.213-.072-.211-.052-.21-.031-.197-.005-.186.014-.163.043-.137.063-.115.082-.075.099-.048.113-.008.127.024.136.059.14.124.18M244.206 549.873l-.175-.15-.181-.077-.185.002-.17.081-.142.155-.108.217-.063.267-.019.297.028.301.076.296.119.264.153.212.171.151.185.077.183-.002.168-.08.144-.156.108-.22.067-.266.016-.294-.03-.306-.077-.292-.117-.262-.151-.215" style="fill:none;stroke:red;stroke-width:.663998;stroke-linecap:round;stroke-linejoin:round;stroke-miterlimit:4;stroke-dasharray:none;stroke-opacity:1;visibility:visible"/><path d="m201.808 509.228.065.075.154.136.173.133.197.113.207.098.215.077.217.053.212.028.203.007.188-.02.166-.045.144-.067.112-.09M201.578 508.648a.784.784 0 0 0 .23.582" style="fill:none;stroke:red;stroke-width:.663998;stroke-linecap:round;stroke-linejoin:round;stroke-miterlimit:4;stroke-dasharray:none;stroke-opacity:1;visibility:visible"/><path d="M252.467 564.47c.6-.05 1.191-.22 1.728-.495M263.682 532.86l3.667-1.979" style="fill:none;stroke:red;stroke-width:1.66133;stroke-linecap:round;stroke-linejoin:round;stroke-miterlimit:4;stroke-dasharray:none;stroke-opacity:1;visibility:visible"/><path d="m256.588 554.56 10.76-23.679M268.05 531.035a.63.63 0 0 0-.703-.153" style="fill:none;stroke:red;stroke-width:.663998;stroke-linecap:round;stroke-linejoin:round;stroke-miterlimit:4;stroke-dasharray:none;stroke-opacity:1;visibility:visible"/><path d="M263.68 532.86a.283.283 0 0 0-.126.136" style="fill:none;stroke:red;stroke-width:1.66133;stroke-linecap:round;stroke-linejoin:round;stroke-miterlimit:4;stroke-dasharray:none;stroke-opacity:1;visibility:visible"/><path d="m268.696 530.69-.628.34M268.094 530.999a.056.056 0 0 0-.028.032M268.066 531.031c-.019.007-.028.021-.039.036M242.014 684.964l-.015.07M233.819 683.929l.017-.095M184.568 496.246l-45.213 93.236M142.568 593.271l-.056.121M137.94 593.973l1.887-3.905M134.33 589.965l.073-.15M139.632 589.838l-1.95 4.025M254.647 556.664a3.68 3.68 0 0 0 1.94-2.104M248.326 559.258a8.443 8.443 0 0 0 6.805 3.204M252.877 556.512l-.14.233M252.877 556.512a.27.27 0 0 0-.124.128" style="fill:none;stroke:red;stroke-width:.663998;stroke-linecap:round;stroke-linejoin:round;stroke-miterlimit:4;stroke-dasharray:none;stroke-opacity:1;visibility:visible"/><path d="m136.541 594.284-2.67-3.592s-.116-.657-.001-.938c.149-.327 4.575-.747 4.575-.747s.711.115.965.387c.28.253 3.431 4.005 3.431 4.005-.427.696-1.803.868-2.39.921-.568.035-3.911-.036-3.911-.036" style="fill:none;fill-opacity:1;fill-rule:nonzero;stroke:red;stroke-width:1.33333;visibility:visible"/><path d="m142.588 593.27-3.291-3.808" style="fill:none;stroke:red;stroke-width:.663998;stroke-linecap:round;stroke-linejoin:round;stroke-miterlimit:4;stroke-dasharray:none;stroke-opacity:1;visibility:visible"/><path d="m134.094 591.054 2.419 3.176M133.856 589.798c-.238.458-.104.948.272 1.306M136.761 594.23l4.44-.131M141.213 594.092c.585.06 1.13-.192 1.41-.512" style="fill:none;stroke:red;stroke-width:1.66133;stroke-linecap:round;stroke-linejoin:round;stroke-miterlimit:4;stroke-dasharray:none;stroke-opacity:1;visibility:visible"/><path d="m134.013 589.687 4.501-.497.784.273M137.648 591.648l-2.406.12M139.333 593.608l-1.685-1.961M137.648 591.648c.596-.706 1.142-1.392 1.636-2.153M141.933 592.486l.044-.015" style="fill:none;stroke:red;stroke-width:.663998;stroke-linecap:round;stroke-linejoin:round;stroke-miterlimit:4;stroke-dasharray:none;stroke-opacity:1;visibility:visible"/><path d="M134.034 589.703c.016-.056-.014.019-.021-.016M142.588 593.272c.028.001.02.019 0-.001M139.298 589.462c-.018.024-.028.04-.048.012" style="fill:none;stroke:red;stroke-width:.663998;stroke-linecap:round;stroke-linejoin:round;stroke-miterlimit:4;stroke-dasharray:none;stroke-opacity:1;visibility:visible"/><path d="m134.013 589.687-.116.063-.057.065v-.033M142.64 593.577c.009.029.054-.109.054-.109l-.064-.113-.041-.083" style="fill:none;stroke:red;stroke-width:1.66133;stroke-linecap:round;stroke-linejoin:round;stroke-miterlimit:4;stroke-dasharray:none;stroke-opacity:1;visibility:visible"/><path d="M134.12 591.067c.316.323.68.55 1.124.7M139.333 593.608c.56.29 1.203.5 1.87.502M139.284 589.495c.012.039-.004.023.014-.033" style="fill:none;stroke:red;stroke-width:.663998;stroke-linecap:round;stroke-linejoin:round;stroke-miterlimit:4;stroke-dasharray:none;stroke-opacity:1;visibility:visible"/><path d="M233.029 683.37s.233 1.23 1.828 2.007c1.63.78 2.712 1.118 2.712 1.118l4.033-.265c.683-.202 1.264-.533 1.039-1.646l-4.072-1.527c-.65-.012-5.54.314-5.54.314" style="fill:none;fill-opacity:1;fill-rule:nonzero;stroke:red;stroke-width:1.33333;visibility:visible"/><path d="m238.05 683.057-4.513.374" style="fill:none;stroke:red;stroke-width:.663998;stroke-linecap:round;stroke-linejoin:round;stroke-miterlimit:4;stroke-dasharray:none;stroke-opacity:1;visibility:visible"/><path d="m237.847 686.272 3.256-.267M241.043 686.028c.918.04 1.5-.568 1.327-1.384M234.92 685.164l2.55 1.035M233.329 683.547c.171.66.75 1.273 1.485 1.528" style="fill:none;stroke:red;stroke-width:1.66133;stroke-linecap:round;stroke-linejoin:round;stroke-miterlimit:4;stroke-dasharray:none;stroke-opacity:1;visibility:visible"/><path d="m242.27 684.559-3.46-1.369M240.453 685.972l-1.913-.795M238.043 683.11l-4.509.334M238.54 685.177l-2.557.246M238.807 683.192a1.32 1.32 0 0 0-.764-.082M238.54 685.177a15.723 15.723 0 0 0-.496-2.066M237.447 686.18c.144.064.283.12.413.077" style="fill:none;stroke:red;stroke-width:.663998;stroke-linecap:round;stroke-linejoin:round;stroke-miterlimit:4;stroke-dasharray:none;stroke-opacity:1;visibility:visible"/><path d="M238.745 683.104c-.227-.057-.468-.09-.683-.056M234.802 685.096l.118.068M242.262 684.535l.008.025M233.535 683.443v.005-.003c-.025-.001 0-.015 0-.015-.012 0 .016-.023.016-.023" style="fill:none;stroke:red;stroke-width:.663998;stroke-linecap:round;stroke-linejoin:round;stroke-miterlimit:4;stroke-dasharray:none;stroke-opacity:1;visibility:visible"/><path d="M238.05 683.057c.013-.037.012-.007.012-.007M242.27 684.559l-3.42-1.372M238.698 683.136l.07.032.079.02M241.057 686.021l.046-.016M242.378 684.616c.007-.019-.028-.059-.028-.059l-.08.003M233.535 683.443l-.14.056-.057.021-.045.053" style="fill:none;stroke:red;stroke-width:.663998;stroke-linecap:round;stroke-linejoin:round;stroke-miterlimit:4;stroke-dasharray:none;stroke-opacity:1;visibility:visible"/><path d="m238.043 683.11.004-.056.003-.026c-.004.028.005.037.005.037-.005.002-.005-.01-.005-.01M238.8 683.157a.147.147 0 0 1 .006.035M242.35 684.61l.01-.01.017.02.008.02" style="fill:none;stroke:red;stroke-width:.663998;stroke-linecap:round;stroke-linejoin:round;stroke-miterlimit:4;stroke-dasharray:none;stroke-opacity:1;visibility:visible"/><path d="m240.453 685.972.44.041.162.008M234.92 685.164c.356.112.71.196 1.062.259" style="fill:none;stroke:red;stroke-width:1.66133;stroke-linecap:round;stroke-linejoin:round;stroke-miterlimit:4;stroke-dasharray:none;stroke-opacity:1;visibility:visible"/><path d="M203.563 503.846h.257l.226-.136.176-.255.099-.345.009-.4-.072-.407-.155-.367-.213-.289-.25-.176-.266-.044-.239.093-.194.22-.123.321-.038.389.043.41.137.384.195.318.245.213.163.07" style="fill:none;stroke:red;stroke-width:.663998;stroke-linecap:round;stroke-linejoin:round;stroke-miterlimit:4;stroke-dasharray:none;stroke-opacity:1;visibility:visible"/><path d="m187.445 496.907 2.109 1.101" style="fill:none;stroke:red;stroke-width:1.66133;stroke-linecap:round;stroke-linejoin:round;stroke-miterlimit:4;stroke-dasharray:none;stroke-opacity:1;visibility:visible"/><path d="m192 490.142-4.555 6.765M189.554 498.008l-2.109-1.101M243.127 560.285l-1.269-2.879M248.326 559.258l-6.468-1.852M249.965 554.748l-5.759-4.875M252.467 564.47l2.664-2.008M192 490.142l11.563 13.704M189.554 498.008l14.009 5.837" style="fill:none;stroke:red;stroke-width:.663998;stroke-linecap:round;stroke-linejoin:round;stroke-miterlimit:4;stroke-dasharray:none;stroke-opacity:1;visibility:visible"/><path d="M69.79 547.504a1.593 1.593 0 0 0 1.515-.666M66.724 547.63l3.184-.123M63.315 542.748a1.547 1.547 0 0 0 .38 1.883M63.65 544.585l2.585 2.839M146.218 632.035a1.78 1.78 0 0 0 .918 1.882M66.236 547.415a.56.56 0 0 0 .51.208M147.037 633.861l1.759 1.28M151.992 635.637a1.699 1.699 0 0 0 2.014-.98M149.07 635.252l2.972.4M148.777 635.123a.41.41 0 0 0 .303.125" style="fill:none;stroke:#00ff4a;stroke-width:1.66133;stroke-linecap:round;stroke-linejoin:round;stroke-miterlimit:4;stroke-dasharray:none;stroke-opacity:1;visibility:visible"/><path d="m189.434 514.125-.59.73-.933 1.243M195.76 506.464l-6.325 7.661" style="fill:none;stroke:#00ff4a;stroke-width:.663998;stroke-linecap:round;stroke-linejoin:round;stroke-miterlimit:4;stroke-dasharray:none;stroke-opacity:1;visibility:visible"/><path d="m175.749 530.076-29.456 101.917M154.015 634.66l29.17-101.932" style="fill:none;stroke:#00ff4a;stroke-width:1.66133;stroke-linecap:round;stroke-linejoin:round;stroke-miterlimit:4;stroke-dasharray:none;stroke-opacity:1;visibility:visible"/><path d="m184.745 512.694-.083.105" style="fill:none;stroke:#00ff4a;stroke-width:.663998;stroke-linecap:round;stroke-linejoin:round;stroke-miterlimit:4;stroke-dasharray:none;stroke-opacity:1;visibility:visible"/><path d="M187.449 522.715a41.373 41.373 0 0 0-4.263 10.013M176.945 526.424a49.11 49.11 0 0 0-1.196 3.654M191.98 503.979l-7.235 8.716M295.56 490.102a1.176 1.176 0 0 0 .541-.59M286.207 494.771l4.272-2.063 5.08-2.606M296.094 489.53l14.79-35.585M278.514 492.185l.605-.188.578-.059.505.023.495.08.474.127.556.217.714.401.39.288.388.362M284.32 494.582a1.68 1.68 0 0 0 1.886.19M283.22 493.435l1.099 1.147M246.301 501.742l1.301-.161 1.303-.182 1.11-.17.92-.15.726-.125.54-.096.477-.088.974-.188 1.106-.224 1.214-.263 3.118-.754 2.947-.814 1.107-.332 1.109-.348 1.144-.372 1.18-.404 1.219-.432 1.152-.425.484-.184.425-.163.364-.138.31-.123.413-.163.577-.233.92-.373 1.156-.484 1.399-.6 1.636-.722 1.882-.846M212.104 500.22l2.044.339 1.795.282 1.544.234 1.294.184 1.043.138.932.116.948.112.957.107 3.086.292 3.089.215 2.62.109 2.577.05 2.347-.013.799-.014 1.005-.032 1.23-.047 1.449-.073 1.666-.116 1.88-.16 1.892-.2M310.942 449.701l-3.903-3.985M307.042 445.72l-.325-.277-.422-.25-.533-.185-.65-.1-.787.012-.919.15-1.059.307-1.202.49M310.884 453.945l.352-.964.184-.741.075-.544.017-.378-.023-.353-.08-.421-.177-.442-.292-.401M301.155 445.85l-1.024.467M299.426 446.644l-1.744.783-1.937.865-2.13.933-2.333 1-2.53 1.046-2.274.892-2.43.893-2.6.872-2.786.823-2.99.73-3.054.55M300.137 446.318l-.66.297" style="fill:none;stroke:#00ff4a;stroke-width:1.66133;stroke-linecap:round;stroke-linejoin:round;stroke-miterlimit:4;stroke-dasharray:none;stroke-opacity:1;visibility:visible"/><path d="m299.475 446.622-.036.016M212.103 500.22a1.552 1.552 0 0 0-1.576.387" style="fill:none;stroke:#00ff4a;stroke-width:.663998;stroke-linecap:round;stroke-linejoin:round;stroke-miterlimit:4;stroke-dasharray:none;stroke-opacity:1;visibility:visible"/><path d="m210.944 503.63 2.437-3.2M226.597 460.464l-25.319 30.475M209.45 503.68l.585.119M210.035 503.8a.99.99 0 0 0 .908-.17M272.622 456.031l-2.693.323-2.698.181-2.496.077-2.273.006-2.044-.039-1.81-.061-1.573-.074-1.437-.082-1.64-.104-1.865-.134-2.096-.17-2.318-.2-2.538-.235-2.756-.26M240.389 455.065l-1.532-.065-1.473.089-1.395.205-1.285.295-1.498.47-1.268.513-1.021.496-.795.446-.598.378-.628.437-.723.567-.78.706-.796.863M242.347 455.25l-.767-.073M242.385 455.26l-.04-.004M241.576 455.176l-1.188-.119M71.317 546.836l52.65-83.332M116.412 459.708l-52.968 82.965M137.466 458.254a11.999 11.999 0 0 0-7.076-4.235M127.849 453.962l-3.688.441M121.752 455.045a11.579 11.579 0 0 0-5.342 4.663M127.289 460.598a6.753 6.753 0 0 0-3.323 2.906" style="fill:none;stroke:#00ff4a;stroke-width:1.66133;stroke-linecap:round;stroke-linejoin:round;stroke-miterlimit:4;stroke-dasharray:none;stroke-opacity:1;visibility:visible"/><path d="M130.753 463.262a7.677 7.677 0 0 0-3.872-2.484M174.393 500.933l-36.927-42.679M130.753 463.262l39.281 44.972M190.823 523.018l.324-.023.704-.132.67-.214.662-.292.657-.378.651-.453.63-.53.61-.594.576-.643.097-.114M185.044 522.414l4.565.575M190.353 517.166l-.225-.035-.59-.162-.601-.252-.612-.338-.623-.425-.628-.516-.625-.603-.461-.501M181.01 520.524l.447.37.586.413.643.366.65.295.351.119M209.524 503.594l.6-.733M196.404 519.637l5.041-6.164" style="fill:none;stroke:#00ff4a;stroke-width:1.66133;stroke-linecap:round;stroke-linejoin:round;stroke-miterlimit:4;stroke-dasharray:none;stroke-opacity:1;visibility:visible"/><path d="M67.88 542.855a35.916 35.916 0 0 0-1.313 2.225M68.397 547.095l-1.83-2.015M71.212 546.533l-3.332-3.679M66.567 545.08l-2.053.084M67.193 542.512l-3.743.16M67.26 542.504a.053.053 0 0 0-.032-.013M67.87 542.808a.91.91 0 0 0-.609-.302M71.213 546.53l-.001.003M63.484 542.652a.041.041 0 0 0-.034.02M71.306 546.84l.02-.024.003-.09-.055-.115-.063-.076M69.804 547.51l.104-.001M63.65 544.585l.033.035M63.45 542.672l-.1.025-.041.047M151.565 632.817a1.715 1.715 0 0 0-.661-.227M150.233 634.56c.264-.64.49-1.3.67-1.97M150.233 634.56l-2.436-.327M150.904 632.59l-4.445-.59M151.55 635.522l-1.316-.963M153.959 634.577l-2.393-1.76M153.959 634.574v.003M147.037 633.861l.053.037.036.022M146.46 632l-.13-.008-.085.01-.038.031M154.013 634.661a.268.268 0 0 0-.013-.046l-.04-.036" style="fill:none;stroke:#00ff4a;stroke-width:.663998;stroke-linecap:round;stroke-linejoin:round;stroke-miterlimit:4;stroke-dasharray:none;stroke-opacity:1;visibility:visible"/><path d="m154.01 634.627.003.01v.023l-.006.01M208.459 498.51l-1.799-.304M206.66 498.205l-2.903-.52M210.28 503.29l-1.673-4.66M208.606 498.631a.212.212 0 0 0-.148-.121M284.628 494.458l-4.405-4.595M284.626 494.458a.536.536 0 0 0 .564.144M294.86 489.342l-4.064-4.217M294.86 489.342l.075.108.034.11-.014.105-.059.088-.064.042M290.797 485.126a.533.533 0 0 0-.582-.132M281.94 488.951l4.157-1.901 4.12-2.058M280.231 489.713l-.025.015-.015.028-.005.037.009.035.027.036M280.231 489.713l1.708-.761M291.738 484.205l4.061 4.215M305.043 448.716l.379-1.092.112-.916-.168-.697-.435-.472-.69-.222-.93.028-1.13.278-1.31.518M289.798 483.782l15.245-35.065M281.563 487.727l4.121-1.887 4.114-2.058M291.738 484.206a1.716 1.716 0 0 0-1.94-.423M245.128 499.233l2.85-.385 2.96-.494 2.894-.572 2.888-.666 2.837-.744 2.792-.826 3.37-1.118 3.456-1.29 3.258-1.334 3.294-1.443 3.385-1.536M279.113 488.826l2.45-1.099" style="fill:none;stroke:#00ff4a;stroke-width:.663998;stroke-linecap:round;stroke-linejoin:round;stroke-miterlimit:4;stroke-dasharray:none;stroke-opacity:1;visibility:visible"/><path d="m284.736 487.666.037.04.171.23.121.267.048.27-.017.241-.096.181-.15.103-.194.008-.21-.084-.205-.17-.17-.231-.122-.266-.044-.21M245.128 499.233l-2.865.293-3.006.218-2.962.124-2.982.041-2.954-.044-2.94-.13-3.58-.265-3.71-.394-3.529-.475-3.575-.561-3.642-.616M209.383 497.423l-2.58-.436M206.802 496.987l-2.935-.523M210.857 503.215l-.416-1.159M210.54 500.618l.024-.033M67.816 542.798l.023.019M71.212 546.533l.055.07.04.067.022.06.002.059-.012.045-.034.035-.05.023-.066.009" style="fill:none;stroke:#00ff4a;stroke-width:.663998;stroke-linecap:round;stroke-linejoin:round;stroke-miterlimit:4;stroke-dasharray:none;stroke-opacity:1;visibility:visible"/><path d="M124.16 454.403a9.065 9.065 0 0 0-2.347.614M130.324 454.015a8.92 8.92 0 0 0-4.81.558" style="fill:none;stroke:#00ff4a;stroke-width:1.66133;stroke-linecap:round;stroke-linejoin:round;stroke-miterlimit:4;stroke-dasharray:none;stroke-opacity:1;visibility:visible"/><path d="M130.192 460.266a5.663 5.663 0 0 0-2.97.337M134.618 462.903l37.02 42.535M141.336 471.53l.057.07.094.138.062.136.036.128v.121l-.03.103-.059.088-.09.07-.118.046-.143.027-.157.001-.179-.021-.185-.043-.193-.065-.191-.083-.187-.103-.176-.116-.161-.126-.141-.136-.118-.138-.092-.138-.061-.136-.03-.127v-.119l.033-.101.064-.084.093-.068.12-.045.143-.024h.164l.176.024.189.045.19.068.195.084.183.103.177.117.159.128.176.176" style="fill:none;stroke:#00ff4a;stroke-width:.663998;stroke-linecap:round;stroke-linejoin:round;stroke-miterlimit:4;stroke-dasharray:none;stroke-opacity:1;visibility:visible"/><path d="M188.27 522.639a5.348 5.348 0 0 0 2.476.375M196.404 519.637l-.005.004M183.76 522.102c.417.17.864.274 1.317.302" style="fill:none;stroke:#00ff4a;stroke-width:1.66133;stroke-linecap:round;stroke-linejoin:round;stroke-miterlimit:4;stroke-dasharray:none;stroke-opacity:1;visibility:visible"/><path d="M63.684 544.62c.235.24.519.426.83.546M68.397 547.095a2.784 2.784 0 0 0 1.407.415M67.226 542.491a.04.04 0 0 0-.034.021M67.89 542.839a.06.06 0 0 1-.01.016M151.569 632.798v.008l-.003.012M150.904 632.59l.002-.01.004-.01.011-.012c.007-.007.009-.007.009-.007M147.127 633.92l.3.172.37.141" style="fill:none;stroke:#00ff4a;stroke-width:.663998;stroke-linecap:round;stroke-linejoin:round;stroke-miterlimit:4;stroke-dasharray:none;stroke-opacity:1;visibility:visible"/><path d="m151.55 635.522.345.104.106.017" style="fill:none;stroke:#00ff4a;stroke-width:1.66133;stroke-linecap:round;stroke-linejoin:round;stroke-miterlimit:4;stroke-dasharray:none;stroke-opacity:1;visibility:visible"/><path d="M189.5 514.115a.064.064 0 0 0-.067.01M180.317 530.35l-29.375 102.202M184.764 512.92l.217-.264M296.073 489.518a.923.923 0 0 0-.275-1.096M184.982 512.655a.216.216 0 0 0-.237.039M183.53 522.019a49.533 49.533 0 0 0-3.214 8.332M294.833 489.795l.12-.284M289.415 485.392l-4.224 9.21M280.308 489.678l-.085.185" style="fill:none;stroke:#00ff4a;stroke-width:.663998;stroke-linecap:round;stroke-linejoin:round;stroke-miterlimit:4;stroke-dasharray:none;stroke-opacity:1;visibility:visible"/><path d="m301.15 445.88-.05.013-.229.248M300.14 446.339l-.057.013-.236.254" style="fill:none;stroke:#00ff4a;stroke-width:1.66133;stroke-linecap:round;stroke-linejoin:round;stroke-miterlimit:4;stroke-dasharray:none;stroke-opacity:1;visibility:visible"/><path d="m272.18 456.277.36-.219h.081M210.929 503.622a.596.596 0 0 0-.074-.407M210.538 500.62a1.44 1.44 0 0 0-.098 1.437M120.244 459.206 67.26 542.503M67.26 542.504l-.032.048M188.27 522.639l-.34-.12-1.488-.81-.786-.57-.776-.663-.754-.734-.746-.812s-1.128-1.058-1.666-2.19M130.753 463.262a.176.176 0 0 0 .167.046M134.617 462.903a7.501 7.501 0 0 0-4.427-2.637M125.514 454.573a11.697 11.697 0 0 0-5.27 4.634M116.56 459.63a.187.187 0 0 0-.147.079" style="fill:none;stroke:#00ff4a;stroke-width:.663998;stroke-linecap:round;stroke-linejoin:round;stroke-miterlimit:4;stroke-dasharray:none;stroke-opacity:1;visibility:visible"/><path d="M196.404 519.638a.21.21 0 0 0 .008-.208" style="fill:none;stroke:#00ff4a;stroke-width:1.66133;stroke-linecap:round;stroke-linejoin:round;stroke-miterlimit:4;stroke-dasharray:none;stroke-opacity:1;visibility:visible"/><path d="m194.512 515.426-.915.904-.801.5-.848.299-.957.097-.638-.077M188.12 516.242a5.533 5.533 0 0 0 2.446-1.862M190.567 514.38l5.95-7.212M199.111 509.83l-4.599 5.596M208.417 498.502l-1.797 2.187M175.673 530.478c0-.004.02-.031.02-.031l.037-.023.05-.013.07-.007h.076M272.535 456.556l.365-.22.071.005M140.149 467.136h.257l.227-.136.175-.256.098-.344.011-.4-.073-.406-.155-.367-.215-.29-.249-.177-.265-.042-.24.092-.192.22-.124.32-.039.391.045.409.135.385.196.316.244.213.164.072M124.03 460.198h.258l.226-.136.176-.255.098-.345.012-.399-.075-.408-.153-.365-.216-.292-.25-.175-.265-.043-.24.091-.192.22-.123.323-.04.388.046.412.134.382.198.318.242.213.164.07M194.512 515.426l1.248-8.962" style="fill:none;stroke:#00ff4a;stroke-width:.663998;stroke-linecap:round;stroke-linejoin:round;stroke-miterlimit:4;stroke-dasharray:none;stroke-opacity:1;visibility:visible"/><path d="m180.316 530.351-3.371-3.927M189.435 514.125l2.545-10.146M210.54 500.618l2.841-.188M208.417 498.502l-7.139-7.563M185.988 514.334l-11.595-13.401M185.988 514.334l-15.954-6.1M190.353 517.149l-.744 5.84M171.638 505.438l14.35 8.896M194.512 515.426l6.933-1.953" style="fill:none;stroke:#00ff4a;stroke-width:1.66133;stroke-linecap:round;stroke-linejoin:round;stroke-miterlimit:4;stroke-dasharray:none;stroke-opacity:1;visibility:visible"/><path d="m206.802 496.987-3.045.698M283.22 493.436l1.516-5.77M206.66 498.205l-2.793-1.74M185.988 514.334l-14.35-8.896M134.617 462.903l6.719 8.627M134.618 462.903l6.718 8.627M194.512 515.426l2.004-8.258M190.567 514.38l8.544-4.55M210.564 500.585l-3.944.104M116.56 459.63l7.47.568" style="fill:none;stroke:#00ff4a;stroke-width:.663998;stroke-linecap:round;stroke-linejoin:round;stroke-miterlimit:4;stroke-dasharray:none;stroke-opacity:1;visibility:visible"/><path d="m196.399 519.641 7.662-9.916" style="fill:none;stroke:red;stroke-width:.663998;stroke-linecap:round;stroke-linejoin:round;stroke-miterlimit:4;stroke-dasharray:none;stroke-opacity:1;visibility:visible"/><path d="m124.03 460.198 16.119 6.938" style="fill:none;stroke:#00ff4a;stroke-width:.663998;stroke-linecap:round;stroke-linejoin:round;stroke-miterlimit:4;stroke-dasharray:none;stroke-opacity:1;visibility:visible"/></svg>