<svg xmlns="http://www.w3.org/2000/svg" baseProfile="full" height="793.701" preserveAspectRatio="xMinYMin meet" style="width:912px;height:1303px" width="559.371" xml:space="preserve"><path d="m234.789 506.935 81.012 28.168" style="fill:none;stroke:red;stroke-width:.663998;stroke-linecap:round;stroke-linejoin:round;stroke-miterlimit:4;stroke-dasharray:none;stroke-opacity:1;visibility:visible" visibility="hidden"/><path d="M323.237 380.405a1.875 1.875 0 0 0-.73 1.582M325.794 377.631l-2.675 2.876M333.203 379.67a1.81 1.81 0 0 0-1.733-1.517M331.54 378.16l-4.981-.793M198.889 345.714a2.01 2.01 0 0 0-1.33-1.359M326.575 377.375a.77.77 0 0 0-.804.29M197.607 344.371l-2.903-1.217M190.16 344.832l-.321.141-.395.278-.301.322-.206.354-.11.378-.01.419.022.09M194.068 343.154l-3.952 1.683M194.714 343.165a.667.667 0 0 0-.664.002M427.66 339.38l-.319.056-.533.203-.401.257-.324.303-.234.342-.154.414-.004.062M430.145 338.852l-2.6.536M435.639 341.909a2.061 2.061 0 0 0-1.719-2.064M433.948 339.846l-3.457-.983M430.49 338.876l-.143-.036-.205.024M313.96 314.418a2.104 2.104 0 0 0-1.96 1.768M316.401 314.018l-2.459.401M321.465 316.306a2.056 2.056 0 0 0-1.956-1.836M319.51 314.463l-2.924-.445M316.587 314.026l-.184-.005" style="fill:none;stroke:red;stroke-width:1.66133;stroke-linecap:round;stroke-linejoin:round;stroke-miterlimit:4;stroke-dasharray:none;stroke-opacity:1;visibility:visible" visibility="hidden"/><path d="m232.226 495.572.341.135" style="fill:none;stroke:red;stroke-width:.663998;stroke-linecap:round;stroke-linejoin:round;stroke-miterlimit:4;stroke-dasharray:none;stroke-opacity:1;visibility:visible" visibility="hidden"/><path d="M234.5 472.346a17.712 17.712 0 0 0-7.158 5.172" style="fill:none;stroke:red;stroke-width:1.66133;stroke-linecap:round;stroke-linejoin:round;stroke-miterlimit:4;stroke-dasharray:none;stroke-opacity:1;visibility:visible" visibility="hidden"/><path d="M227.35 477.54a.953.953 0 0 0-.185.791M227.158 478.33l.036.408" style="fill:none;stroke:red;stroke-width:.663998;stroke-linecap:round;stroke-linejoin:round;stroke-miterlimit:4;stroke-dasharray:none;stroke-opacity:1;visibility:visible" visibility="hidden"/><path d="m300.567 449.753-66.09 22.61M418.612 469.235a1.207 1.207 0 0 0-.904-1.397" style="fill:none;stroke:red;stroke-width:1.66133;stroke-linecap:round;stroke-linejoin:round;stroke-miterlimit:4;stroke-dasharray:none;stroke-opacity:1;visibility:visible" visibility="hidden"/><path d="m417.887 467.91-.008-.004M417.76 467.86l-.065-.02M417.685 467.836l-.115-.04M368.793 457.333l.12.02.113-.035M368.668 457.302l.13.036M368.13 456.854l.05.016.07.052.08.08.083.099.104.113.14.084M359.018 454.155l9.112 2.693M367.962 468.2l-.088.225M370.43 461.613l-.2.039-.25.14-.242.228-.217.3-.175.356-.123.381-.046.281M358.665 454.343l.136.037M358.93 454.156l.03-.008.058.01M358.8 454.382a.244.244 0 0 0 .221-.022M359.026 454.365l.29-.123M350.515 450.107l-1.661.681" style="fill:none;stroke:red;stroke-width:.663998;stroke-linecap:round;stroke-linejoin:round;stroke-miterlimit:4;stroke-dasharray:none;stroke-opacity:1;visibility:visible" visibility="hidden"/><path d="m353.915 448.71-3.4 1.399" style="fill:none;stroke:red;stroke-width:1.66133;stroke-linecap:round;stroke-linejoin:round;stroke-miterlimit:4;stroke-dasharray:none;stroke-opacity:1;visibility:visible" visibility="hidden"/><path d="m348.784 451.42.128.036M348.75 450.86c-.15.068-.215.242-.15.393a.307.307 0 0 0 .187.164M348.911 451.454a.24.24 0 0 0 .223-.019M349.137 451.44l.293-.121M347.762 462.09l-.085.239M350.21 455.591h-.081l-.119.033M350.008 455.622a2.013 2.013 0 0 0-1.058 1.692M328.436 456.494l-.063.179-.02.044" style="fill:none;stroke:red;stroke-width:.663998;stroke-linecap:round;stroke-linejoin:round;stroke-miterlimit:4;stroke-dasharray:none;stroke-opacity:1;visibility:visible" visibility="hidden"/><path d="m307.72 439.352-.119.548-.268 1.04-.324 1.02-.376.99-.424.95-.469.903-.51.85-.545.788-.576.72-.598.648-.619.571-.63.488-.64.408-.64.315-.415.165M308.297 438.669a.933.933 0 0 0-.58.684M308.7 438.508l-.408.159M318.345 438.42l-.417-.101" style="fill:none;stroke:red;stroke-width:1.66133;stroke-linecap:round;stroke-linejoin:round;stroke-miterlimit:4;stroke-dasharray:none;stroke-opacity:1;visibility:visible" visibility="hidden"/><path d="m222.022 491-.008.383M226.633 479.268a.521.521 0 0 0-.593.243" style="fill:none;stroke:red;stroke-width:.663998;stroke-linecap:round;stroke-linejoin:round;stroke-miterlimit:4;stroke-dasharray:none;stroke-opacity:1;visibility:visible" visibility="hidden"/><path d="M322.576 382.128 333 507.38M340.266 470.285l-7.072-90.522" style="fill:none;stroke:red;stroke-width:1.66133;stroke-linecap:round;stroke-linejoin:round;stroke-miterlimit:4;stroke-dasharray:none;stroke-opacity:1;visibility:visible" visibility="hidden"/><path d="m330.723 528.874-8.157 29.361" style="fill:none;stroke:red;stroke-width:.663998;stroke-linecap:round;stroke-linejoin:round;stroke-miterlimit:4;stroke-dasharray:none;stroke-opacity:1;visibility:visible" visibility="hidden"/><path d="M330.722 528.875a61.544 61.544 0 0 0 2.276-21.495M332.117 559.065l8.117-28.968M340.234 530.098a72.174 72.174 0 0 0 2.742-25.099M225.287 467.016l-26.441-121.277M188.881 346.886l26.881 121.022M217.877 490.479l-.561 29.635M217.877 490.48a96.921 96.921 0 0 0-2.115-22.57M227.066 478.904a92.178 92.178 0 0 0-1.781-11.888M312.83 554.997l-3.6 15.24-14.739 62.408M315.467 623.87l17.901-63.763" style="fill:none;stroke:red;stroke-width:1.66133;stroke-linecap:round;stroke-linejoin:round;stroke-miterlimit:4;stroke-dasharray:none;stroke-opacity:1;visibility:visible" visibility="hidden"/><path d="m313.133 554.557-.19.179-.114.274M313.962 554.08l-.83.476" style="fill:none;stroke:red;stroke-width:.663998;stroke-linecap:round;stroke-linejoin:round;stroke-miterlimit:4;stroke-dasharray:none;stroke-opacity:1;visibility:visible" visibility="hidden"/><path d="M333.367 560.104a1.448 1.448 0 0 0-1.037-1.597" style="fill:none;stroke:red;stroke-width:1.66133;stroke-linecap:round;stroke-linejoin:round;stroke-miterlimit:4;stroke-dasharray:none;stroke-opacity:1;visibility:visible" visibility="hidden"/><path d="m267.732 536.813.908.328 3.528 1.27 3.592 1.297 3.65 1.31 3.71 1.334 3.765 1.354 3.822 1.367 3.866 1.385 3.915 1.402 3.993 1.424 4.428 1.59 4.875 1.782M311.782 552.658l.172.061.568.24.501.252.407.251.321.241.208.21.079.113" style="fill:none;stroke:red;stroke-width:.663998;stroke-linecap:round;stroke-linejoin:round;stroke-miterlimit:4;stroke-dasharray:none;stroke-opacity:1;visibility:visible" visibility="hidden"/><path d="m314.99 551.8-.793-.295-1.918-.708-1.757-.641-1.579-.573-1.462-.53-1.32-.476-1.367-.49-1.24-.446-.933-.333-.768-.276-.608-.216-.632-.23-.63-.225-.522-.186-.712-.258-.943-.334-1.19-.428-1.169-.418-1.204-.432-1.288-.464-1.592-.569-1.698-.61-1.874-.673-2.048-.736-2.16-.776-2.106-.76-2.248-.808-2.336-.842-2.46-.886-2.578-.929-2.274-.82" style="fill:none;stroke:red;stroke-width:1.66133;stroke-linecap:round;stroke-linejoin:round;stroke-miterlimit:4;stroke-dasharray:none;stroke-opacity:1;visibility:visible" visibility="hidden"/><path d="m314.179 553.86-.07.113-.149.107M307.942 632.894l.119-.08" style="fill:none;stroke:red;stroke-width:.663998;stroke-linecap:round;stroke-linejoin:round;stroke-miterlimit:4;stroke-dasharray:none;stroke-opacity:1;visibility:visible" visibility="hidden"/><path d="M296.195 634.837a12.859 12.859 0 0 0 11.746-1.942M308.06 632.815l3.023-2.325M311.18 630.397a12.43 12.43 0 0 0 4.288-6.522M311.083 630.484l.097-.087M252.583 619.358l1.505.62 1.242.51.978.395.744.299.731.295.752.297.768.301 4.31 1.67 3.958 1.473 4.06 1.461 5.29 1.842 5.42 1.821 2.413.793 2.229.73.755.248 1.024.329 1.293.42 1.568.505 1.841.59M293.5 633.97l2.696.864" style="fill:none;stroke:red;stroke-width:1.66133;stroke-linecap:round;stroke-linejoin:round;stroke-miterlimit:4;stroke-dasharray:none;stroke-opacity:1;visibility:visible" visibility="hidden"/><path d="m233.766 524.384.176.06 3.345 1.204 2.9 1.064 2.678.99 2.601.962 2.835 1.047 2.92 1.068 3.012 1.106 3.105 1.135 3.199 1.168 3.288 1.203 3.374 1.23.53.194" style="fill:none;stroke:red;stroke-width:.663998;stroke-linecap:round;stroke-linejoin:round;stroke-miterlimit:4;stroke-dasharray:none;stroke-opacity:1;visibility:visible" visibility="hidden"/><path d="m269.583 535.433-2.176-.788-2.376-.86-2.197-.797-2.014-.728-1.858-.675-1.682-.61-1.557-.563-1.547-.562-1.357-.493-1.237-.448-1.076-.395-1.05-.382-.873-.319-.767-.277-.876-.322-.934-.34-.81-.297-.806-.296-.526-.188-.656-.243-.673-.245-.708-.257-.83-.302-.842-.304-1.401-.51-1.502-.538-1.62-.573-1.876-.647M222.311 604.416a249.885 249.885 0 0 0 30.27 14.941M215.411 520.817l-.85 66.316" style="fill:none;stroke:red;stroke-width:1.66133;stroke-linecap:round;stroke-linejoin:round;stroke-miterlimit:4;stroke-dasharray:none;stroke-opacity:1;visibility:visible" visibility="hidden"/><path d="M233.76 524.384a11.461 11.461 0 0 0-2.91-.534M230.527 523.826l.324.024" style="fill:none;stroke:red;stroke-width:.663998;stroke-linecap:round;stroke-linejoin:round;stroke-miterlimit:4;stroke-dasharray:none;stroke-opacity:1;visibility:visible" visibility="hidden"/><path d="m233.756 522.474-2.065-.685M214.563 587.133l.021 1.565.092 1.443.143 1.308.279 1.717.309 1.406.292 1.084.283.89.301.834.312.773.659 1.376.764 1.276.437.608.577.69.486.494.574.487.679.448" style="fill:none;stroke:red;stroke-width:1.66133;stroke-linecap:round;stroke-linejoin:round;stroke-miterlimit:4;stroke-dasharray:none;stroke-opacity:1;visibility:visible" visibility="hidden"/><path d="m220.77 603.531 1.52.875" style="fill:none;stroke:red;stroke-width:.663998;stroke-linecap:round;stroke-linejoin:round;stroke-miterlimit:4;stroke-dasharray:none;stroke-opacity:1;visibility:visible" visibility="hidden"/><path d="M216.6 519.752a1.163 1.163 0 0 0-1.19 1.063" style="fill:none;stroke:red;stroke-width:1.66133;stroke-linecap:round;stroke-linejoin:round;stroke-miterlimit:4;stroke-dasharray:none;stroke-opacity:1;visibility:visible" visibility="hidden"/><path d="m217.321 519.693-.721.06" style="fill:none;stroke:red;stroke-width:.663998;stroke-linecap:round;stroke-linejoin:round;stroke-miterlimit:4;stroke-dasharray:none;stroke-opacity:1;visibility:visible" visibility="hidden"/><path d="m332.963 506.915-.272.192-.97.799-.894.861-.828.912-.867 1.064-.817 1.121-.775 1.163-.726 1.199-.68 1.22-.567 1.112-.576 1.213-.54 1.237-.51 1.266-.473 1.268-.433 1.264-.392 1.246-.299 1.036M322.349 525.087l-8.239 29.91M399.675 479.456l-56.896 22.981M425.733 341.035l-17.408 124.136M417.895 465.93l17.721-124.012M417.45 468.35c.182-.8.329-1.607.444-2.42M408.326 465.168l-.085.564-.211 1.084-.265 1.093-.322 1.091-.373 1.083-.421 1.06-.467 1.033-.508.995-.545.95-.579.9-.605.835-.626.772-.641.696-.653.619-.656.533-.654.445-.645.356-.395.179M231.68 522.323l.548-26.839M312.042 316.194l-3.147 120.138M318.053 436.372l3.384-120.058M317.605 440.658a28.533 28.533 0 0 0 .448-4.285M308.895 436.333l-.023.545-.089 1.054-.119.832M314.678 444.984l13.461 4.01M398.084 469.833l8.07 2.407M338.854 452.187l49.723 14.816M407.916 467.289l-36.783-10.848M350.152 450.255l-11.72-3.456M327.694 443.633l-11.792-3.476" style="fill:none;stroke:red;stroke-width:1.66133;stroke-linecap:round;stroke-linejoin:round;stroke-miterlimit:4;stroke-dasharray:none;stroke-opacity:1;visibility:visible" visibility="hidden"/><path d="M246.16 471.844a.683.683 0 0 0-.44.71M245.718 472.555l.028 2.059M246.054 474.94l.284.02M250.15 470.467l-3.99 1.379M245.749 474.654a.333.333 0 0 0 .304.286M245.746 474.615l.003.039M246.23 474.933l.02.021.039.086.024.136-.008.172-.046.186-.078.168-.091.118-.079.061-.029.007M246.176 478.644l.819.217M245.99 475.888a.33.33 0 0 0-.22.32M245.77 476.204l.027 1.885M245.803 478.088a.51.51 0 0 0 .37.548M250.447 470.446l-.107-.008M250.325 470.442l-.156.019-.019.008M247.148 478.921l2.121.167 4.058.392 4.094.494 4.124.6 4.155.708 4.183.811 4.212.919 4.237 1.021 4.261 1.13 4.283 1.237 4.304 1.348 4.321 1.45 4.342 1.562 4.353 1.67 4.37 1.774 4.38 1.888 4.39 1.993 4.398 2.099 4.407 2.209 4.405 2.316 2.34 1.288" style="fill:none;stroke:red;stroke-width:.663998;stroke-linecap:round;stroke-linejoin:round;stroke-miterlimit:4;stroke-dasharray:none;stroke-opacity:1;visibility:visible" visibility="hidden"/><path d="m331.901 494.164-3.137-1.577-4.47-2.144-4.461-2.036-4.452-1.932-4.437-1.819-4.43-1.71-4.413-1.603-4.395-1.495-4.377-1.387-4.357-1.28-4.335-1.172-4.313-1.064-4.287-.957-4.261-.848-4.23-.747-4.202-.638-4.17-.539-4.137-.43-3.89-.314-.592-.04" style="fill:none;stroke:red;stroke-width:1.66133;stroke-linecap:round;stroke-linejoin:round;stroke-miterlimit:4;stroke-dasharray:none;stroke-opacity:1;visibility:visible" visibility="hidden"/><path d="m249.03 471.845-.052.007-.22.018-.164-.002-.09-.006-.035-.008M249.029 471.846c.149-.016.296-.046.436-.09M251.907 470.91l-2.437.845M251.975 470.883l-.013.004-.044.019-.015.004M329.27 383.286a14.396 14.396 0 0 0-.632-3.219M329.271 383.286a1.1 1.1 0 0 0 .91-.215M325.138 379.504l3.503.564M322.889 382.255l6.384 1.028M328.64 380.067l1.636-1.776M330.18 383.07l2.976-3.245M330.183 383.075l-.003-.004M322.893 382.276l-.004-.008v-.013M333.157 379.85v-.025M322.5 381.99v.017l.016.054.036.049.052.044.07.04.085.033.062.015.066.013M323.12 380.506l.097-.096M333.157 379.825l.06-.108-.008-.05M192.922 345.449a11.387 11.387 0 0 0 .304 2.85" style="fill:none;stroke:red;stroke-width:.663998;stroke-linecap:round;stroke-linejoin:round;stroke-miterlimit:4;stroke-dasharray:none;stroke-opacity:1;visibility:visible" visibility="hidden"/><path d="M192.368 348.38a1.29 1.29 0 0 0 .858-.084M192.922 345.448l2.961-1.263M193.226 348.297l5.396-2.31M191.031 344.65l1.89.8M188.925 346.91l3.441 1.47M198.623 346.009v-.01l-.004-.013M188.936 346.93l-.005-.008-.003-.01M198.62 345.987l.155-.083.096-.086.033-.086-.01-.02M431.118 342.656c.129-.828.212-1.661.257-2.498M431.119 342.655a2.053 2.053 0 0 0 .85.071M188.833 346.814a.133.133 0 0 0 .095.096M428.536 339.35l2.843.81M425.943 341.174l5.177 1.481M431.378 340.159l1.963-.408M431.97 342.724l3.576-.752M425.94 341.195v-.01l.003-.011M435.541 341.997l.003-.01.002-.015M425.684 341.017v.017l.013.023.034.028.044.025.065.031.048.015.055.018M427.545 339.388l.041-.008.066-.013M435.546 341.972l.085-.03.014-.033M317.022 314.768l.12.105.113.17.104.234.09.28.072.327.053.35.03.371.007.371M316.8 316.969c.265.037.54.04.805.01M312.205 316.26l4.596.708M317.608 316.977l3.74-.616M321.346 316.382l.003-.01v-.011M311.994 316.186a.316.316 0 0 0 .21.076" style="fill:none;stroke:red;stroke-width:.663998;stroke-linecap:round;stroke-linejoin:round;stroke-miterlimit:4;stroke-dasharray:none;stroke-opacity:1;visibility:visible" visibility="hidden"/><path d="m316.401 314.018.03-.003.123.035" style="fill:none;stroke:red;stroke-width:1.66133;stroke-linecap:round;stroke-linejoin:round;stroke-miterlimit:4;stroke-dasharray:none;stroke-opacity:1;visibility:visible" visibility="hidden"/><path d="m321.348 316.36.095-.025.034-.031M367.822 468.749l-.036-.023-.03-.036-.01-.069.032-.15.172-.309M368.076 468.826l-.253-.079M368.702 468.394l-.305.317-.092.06-.102.044-.057.015-.059-.001-.01-.003M328.435 456.468l-.195.345-.014.078.004.073.016.035.034.026.014.003M328.294 457.028l.25.07M347.757 462.064l-.188.352-.017.079.008.078.017.036.037.027.01.005M347.624 462.64l.248.073M347.873 462.716l.047.003.06-.008.093-.039.16-.11.257-.277M232.497 494.975l-.03.52M232.466 495.494l-.01-.003M232.533 491.76l-.079 3.735M240.526 480.762a11.977 11.977 0 0 0-7.995 10.997" style="fill:none;stroke:red;stroke-width:.663998;stroke-linecap:round;stroke-linejoin:round;stroke-miterlimit:4;stroke-dasharray:none;stroke-opacity:1;visibility:visible" visibility="hidden"/><path d="m245.81 500.358-.001.09.022.075.048.054.063.021" style="fill:none;stroke:red;stroke-width:1.66133;stroke-linecap:round;stroke-linejoin:round;stroke-miterlimit:4;stroke-dasharray:none;stroke-opacity:1;visibility:visible" visibility="hidden"/><path d="M232.466 495.495a.18.18 0 0 0 .15.21.102.102 0 0 0 .034.004M418.34 469.402l-.005.01M417.734 467.845l.14.057.008.004M417.695 467.838l.036.008M417.685 467.836l.036.005M417.726 467.844l.005.001M417.721 467.843l.005.001M364.082 450.703l.039.007M371.04 456.385l-1.947.825M373.706 455.254a.821.821 0 0 0-.472-.999" style="fill:none;stroke:red;stroke-width:.663998;stroke-linecap:round;stroke-linejoin:round;stroke-miterlimit:4;stroke-dasharray:none;stroke-opacity:1;visibility:visible" visibility="hidden"/><path d="m373.705 455.254-2.665 1.132" style="fill:none;stroke:red;stroke-width:1.66133;stroke-linecap:round;stroke-linejoin:round;stroke-miterlimit:4;stroke-dasharray:none;stroke-opacity:1;visibility:visible" visibility="hidden"/><path d="M368.13 456.849h.003M358.081 453.78l-9.008-2.661M358.081 453.78l.885.261M349.073 451.118l-.332-.096M354.26 448.69l9.432 2.767M373.236 454.255l-9.544-2.797M370.647 461.822a.17.17 0 0 0-.104-.19M368.026 468.102a22.733 22.733 0 0 0 1.173-4.786M368.031 468.154a.057.057 0 0 0-.005-.05M370.47 461.609l.076.024M367.82 468.748c.014-.022.027-.04.034-.062M368.075 468.827a.256.256 0 0 0 .036-.06M353.918 448.719l.13-.044.213.016M350.42 455.795a.173.173 0 0 0-.1-.19M347.828 462.005a22 22 0 0 0 1.152-4.735M347.834 462.055a.05.05 0 0 0-.006-.05M350.004 455.65l.068-.028.176-.04M350.32 455.604l-.073-.021M328.509 456.462c.01-.017.008-.037-.004-.055M347.872 462.715a.196.196 0 0 0 .034-.064M328.577 457.037l-.25-.07M328.71 455.838l-.204.57M328.293 457.029a.223.223 0 0 0 .03-.06M328.545 457.097a.147.147 0 0 0 .03-.06" style="fill:none;stroke:red;stroke-width:.663998;stroke-linecap:round;stroke-linejoin:round;stroke-miterlimit:4;stroke-dasharray:none;stroke-opacity:1;visibility:visible" visibility="hidden"/><path d="m318.4 438.429-.007-.001M318.346 438.422a.31.31 0 0 1 .044.007M318.393 438.428h-.004" style="fill:none;stroke:red;stroke-width:1.66133;stroke-linecap:round;stroke-linejoin:round;stroke-miterlimit:4;stroke-dasharray:none;stroke-opacity:1;visibility:visible" visibility="hidden"/><path d="m222.037 491.392.008-.379M222.014 491.38h0M226.07 479.51l-.016-.007-.012-.001M329.271 383.286a1.123 1.123 0 0 0 .91-.215M222.02 491a.123.123 0 0 0 .019.014M226.07 479.51a19.552 19.552 0 0 0-4.025 11.504M322.89 382.253l.065.012M333.126 379.86l-2.947 3.212M333.126 379.86l.03-.037M336.886 531.515a65.064 65.064 0 0 0 2.448-22.627M193.226 348.297l5.339-2.287M192.366 348.375a1.264 1.264 0 0 0 .859-.078M188.963 346.925l3.404 1.45M198.678 345.954a.255.255 0 0 0 .17-.212M198.62 345.983l-.056.028M188.963 346.925l-.035-.019" style="fill:none;stroke:red;stroke-width:.663998;stroke-linecap:round;stroke-linejoin:round;stroke-miterlimit:4;stroke-dasharray:none;stroke-opacity:1;visibility:visible" visibility="hidden"/><path d="M222.013 491.367a92.442 92.442 0 0 0-2.004-21.601M296.137 634.492l1.223.324 1.217.175 1.212.038 1.196-.098 1.524-.33 1.43-.54 1.326-.741 1.183-.903 1.045-1.048.905-1.181 1.079-1.945.768-2.139M328.021 561.91l-7.153-2.792-7.211-2.759M310.245 626.1l17.776-64.192M330.28 562.11l-.39.12-.554.003-.645-.107-.33-.096-.338-.119M333.233 560.278l-2.955 1.83M258.506 615.11a191.36 191.36 0 0 0 10.995 4.14M294.496 632.644l-.01.01.054.24M312.822 555.04l.013-.041" style="fill:none;stroke:red;stroke-width:.663998;stroke-linecap:round;stroke-linejoin:round;stroke-miterlimit:4;stroke-dasharray:none;stroke-opacity:1;visibility:visible" visibility="hidden"/><path d="m232.623 522.212-.936-.308" style="fill:none;stroke:red;stroke-width:1.66133;stroke-linecap:round;stroke-linejoin:round;stroke-miterlimit:4;stroke-dasharray:none;stroke-opacity:1;visibility:visible" visibility="hidden"/><path d="m216.814 519.785-.124.016-.081.023-.03.029.03.028.045.019M216.814 519.785l.508-.041M216.655 519.9l4.197 1.347 4.343 1.449M225.194 522.695c.221.06.45.08.679.06M225.873 522.754l6.703-.499" style="fill:none;stroke:red;stroke-width:.663998;stroke-linecap:round;stroke-linejoin:round;stroke-miterlimit:4;stroke-dasharray:none;stroke-opacity:1;visibility:visible" visibility="hidden"/><path d="m232.623 522.212.02.01.01.011-.007.01-.03.008-.04.005" style="fill:none;stroke:red;stroke-width:1.66133;stroke-linecap:round;stroke-linejoin:round;stroke-miterlimit:4;stroke-dasharray:none;stroke-opacity:1;visibility:visible" visibility="hidden"/><path d="m216.533 519.915-.059-.023-.034-.024.01-.044.106-.04.188-.025M313.703 554.65l.597-.343M313.949 554.936l-.143-.064-.097-.068-.05-.068.013-.06.032-.024M332.241 558.625l.047.024.104.072.05.072-.002.06-.032.03M329.449 560.712l2.959-1.827M328.77 560.65a.992.992 0 0 0 .675.062" style="fill:none;stroke:red;stroke-width:.663998;stroke-linecap:round;stroke-linejoin:round;stroke-miterlimit:4;stroke-dasharray:none;stroke-opacity:1;visibility:visible" visibility="hidden"/><path d="m328.771 560.65-7.441-2.897-7.382-2.818M311.787 552.656l-.005-.001M314.133 553.933l.03-.076M304.555 634.704a10.21 10.21 0 0 0 3.49-1.907M294.353 633.038l-.057-.264.169-.244M293.463 633.957l-.021-.01M248.946 610.775a141.496 141.496 0 0 0 9.557 4.334M248.947 610.775l-5.12-2.623-4.87-2.554-4.643-2.467-4.503-2.405M229.81 600.725l1.399-31.512.701-15.848.685-15.905.531-13.26M293.5 633.969l-.021-.01M294.353 633.039a.19.19 0 0 0 .187-.147M222.313 604.415l-.013-.004-.028-.024M215.658 520.968l4.028 1.293 4.225 1.416" style="fill:none;stroke:red;stroke-width:.663998;stroke-linecap:round;stroke-linejoin:round;stroke-miterlimit:4;stroke-dasharray:none;stroke-opacity:1;visibility:visible" visibility="hidden"/><path d="m223.911 523.675-.083 2.268-.464 13.019-1.841 51.649-.433 12.188-.016.472M227.882 523.082l-.005.319M222.232 603.152l.608.021.601-.052M223.442 603.12l.281-.044 1.12-.179 3.686-.585M222.567 603.342l-.335-.19" style="fill:none;stroke:red;stroke-width:.663998;stroke-linecap:round;stroke-linejoin:round;stroke-miterlimit:4;stroke-dasharray:none;stroke-opacity:1;visibility:visible" visibility="hidden"/><path d="M224.791 522.612a1.075 1.075 0 0 0-.88 1.066M227.882 523.083a.395.395 0 0 0-.161-.388M228.527 602.31a1.662 1.662 0 0 0 1.283-1.584M232.902 524.181v-.019M222.231 603.152a3.263 3.263 0 0 0-1.157.12M222.328 604.421l-.05-.021-.03-.026M425.732 341.035l.01.028.035.032.051.032.076.033M431.119 342.655c.275.083.564.106.85.071M425.938 341.17l.057.019M435.51 341.978l.039-.01M435.617 341.917l-.005-.023M394.572 484.2a2.933 2.933 0 0 0-2.621-.4M404.871 481.235l.755-.363.764-.485.754-.59.747-.7.732-.797.705-.886.668-.968.631-1.038.59-1.096.533-1.149.478-1.181.416-1.212.347-1.22.281-1.223.208-1.21M226.831 492.174l.107-1.616.316-1.864.521-1.83.707-1.749.912-1.704 1.068-1.586 1.181-1.443 1.336-1.37 1.41-1.214 1.449-1.059 1.546-.954 1.544-.784 1.5-.6M242.497 472.307l-.088.03-.192.05-.219.039-.233.025-.244.017-.247.004-.244-.012-.233-.02-.215-.034-.196-.042-.166-.057-.131-.057-.099-.071-.057-.07-.015-.074.022-.076.064-.073.104-.068.14-.066.17-.054.196-.046.22-.037.234-.03.244-.015h.248l.242.012.23.022.216.032.189.047.164.052.128.065.095.067.052.07.013.074-.028.076-.068.072-.105.07-.191.078" style="fill:none;stroke:red;stroke-width:.663998;stroke-linecap:round;stroke-linejoin:round;stroke-miterlimit:4;stroke-dasharray:none;stroke-opacity:1;visibility:visible" visibility="hidden"/><path d="M242.753 472.186a3.267 3.267 0 0 0-2.7.038" style="fill:none;stroke:red;stroke-width:.663998;stroke-linecap:round;stroke-linejoin:round;stroke-miterlimit:4;stroke-dasharray:none;stroke-opacity:1;visibility:visible" visibility="hidden"/><path d="m242.445 472.047-.085.099-.156.22M316.8 316.969c.265.037.54.04.805.01M312.253 316.268l-.081-.015-.06-.013-.046-.019-.021-.017-.001-.01M321.434 316.305v.017l-.019.016-.042.016-.064.014M306.38 451.61l.763-.316.754-.427.738-.525.717-.62.69-.712.657-.801.613-.874.573-.944.519-1.004.464-1.06.405-1.098.343-1.131.277-1.155.21-1.164.138-1.17.068-1.159M315.902 440.156l-.255-.037-.272.037-.276.11-.269.175-.255.247-.232.3-.204.35-.169.387-.128.412-.084.427-.039.43.01.413.058.386.104.351.147.301.183.248.216.179.241.112M246.034 472.507c-.003.004.007.136.007.136M246.041 472.642l-.215-.017M250.15 470.467l.025-.007.042-.004M245.99 475.887l.027-.008h.041M250.888 470.82l.195-.055.236-.042.246-.031.235-.01.188.01.13.033.053.043-.034.056-.112.06-.049.019M248.45 471.662l2.439-.843M249.107 471.844l-.248.028-.235.008-.189-.01-.13-.03-.05-.044.033-.056.111-.06.052-.019M249.539 471.745l-.195.057M250.442 470.447l.079-.016h.034M329.272 383.29v-.004M331.49 378.153c-.41-.047-.825 0-1.217.14M325.137 379.505a3.464 3.464 0 0 0-1.92.905M192.37 348.382l-.001-.004M193.226 348.3v-.004M191.032 344.649a2.397 2.397 0 0 0-.888.177M431.121 342.66v-.004M431.97 342.728v-.004M427.651 339.367l.408-.04.477.021M433.927 339.84l-.148-.035-.436-.056M316.801 316.973v-.003M317.608 316.98v-.004M312.205 316.282v-.023" style="fill:none;stroke:red;stroke-width:.663998;stroke-linecap:round;stroke-linejoin:round;stroke-miterlimit:4;stroke-dasharray:none;stroke-opacity:1;visibility:visible" visibility="hidden"/><path d="m313.957 314.414.097-.013.446-.018M319.51 314.463h-.01l-.429-.03M316.587 314.018l-.032.032" style="fill:none;stroke:red;stroke-width:1.66133;stroke-linecap:round;stroke-linejoin:round;stroke-miterlimit:4;stroke-dasharray:none;stroke-opacity:1;visibility:visible" visibility="hidden"/><path d="M368.7 468.395a28.26 28.26 0 0 0 3.366-6.312M367.949 468.162l.112-.163M328.532 456.336l-.097.133M328.545 457.097a.32.32 0 0 0 .26-.084M347.86 461.914l-.104.15M348.49 462.284a28.363 28.363 0 0 0 3.357-6.223M298.991 460.246l-33.655 11.813M246.398 478.702l-5.87 2.06M309.58 455.86l-.22.184M316.538 445.538l-.087.272-.876 2.124-1.018 1.995-1.15 1.834-1.262 1.648-1.356 1.432-1.207 1.018M232.455 495.492l.013.084.036.072.06.047M232.455 495.492l-.225-.087M418.606 469.233l.005.032-.166.11-.103.027M417.608 468.28a.3.3 0 0 0-.174-.103" style="fill:none;stroke:red;stroke-width:.663998;stroke-linecap:round;stroke-linejoin:round;stroke-miterlimit:4;stroke-dasharray:none;stroke-opacity:1;visibility:visible" visibility="hidden"/><path d="m300.567 449.753.01-.004.114-.02" style="fill:none;stroke:red;stroke-width:1.66133;stroke-linecap:round;stroke-linejoin:round;stroke-miterlimit:4;stroke-dasharray:none;stroke-opacity:1;visibility:visible" visibility="hidden"/><path d="M417.694 467.838a.248.248 0 0 0-.16.112" style="fill:none;stroke:red;stroke-width:.663998;stroke-linecap:round;stroke-linejoin:round;stroke-miterlimit:4;stroke-dasharray:none;stroke-opacity:1;visibility:visible" visibility="hidden"/><path d="M417.684 467.836a.207.207 0 0 0-.142.095M358.966 454.042a.107.107 0 0 0 .052.113M369.028 457.32a.117.117 0 0 0 .066-.108" style="fill:none;stroke:red;stroke-width:.663998;stroke-linecap:round;stroke-linejoin:round;stroke-miterlimit:4;stroke-dasharray:none;stroke-opacity:1;visibility:visible" visibility="hidden"/><path d="M417.726 467.844a.179.179 0 0 0-.188.103M370.952 461.75l-.304.073M367.949 468.162l.024.007.023.001.016-.001.013-.007M367.879 468.428l-.041.147-.006.065.008.033.006.007.009.005M373.295 457.078l.41-1.824M358.67 454.335l-.088-.037-.107-.111-.09-.124-.088-.117-.099-.103-.097-.053-.02-.011M358.803 454.374l-.073-.032-.05-.093.016-.094.058-.076.093-.042h.099l.021.005M359.026 454.365a.117.117 0 0 0 .064-.11" style="fill:none;stroke:red;stroke-width:.663998;stroke-linecap:round;stroke-linejoin:round;stroke-miterlimit:4;stroke-dasharray:none;stroke-opacity:1;visibility:visible" visibility="hidden"/><path d="m358.928 454.16-.013.001-.033.031-.008.041a.333.333 0 0 0 .041.033l.076.014.099-.025M359.2 454.208l-.11.047M348.734 450.86a.133.133 0 0 0 .005.161M350.42 455.794l.308-.07M328.434 456.469c.023.017.053.01.075-.009M347.834 462.055c-.006.008-.019.016-.019.016l-.015.003-.02-.002-.026-.006M328.795 456.849l-.099.117-.06.055-.034.016-.014.003-.01-.002M328.766 456.52l-.19.519M328.325 456.967l.39-1.037M328.325 456.969a.061.061 0 0 1-.015-.01l-.005-.009-.006-.03.012-.075.027-.076.021-.046" style="fill:none;stroke:red;stroke-width:.663998;stroke-linecap:round;stroke-linejoin:round;stroke-miterlimit:4;stroke-dasharray:none;stroke-opacity:1;visibility:visible" visibility="hidden"/><path d="M308.663 438.766a.261.261 0 0 0-.23-.132M308.297 438.668l.025-.01.112-.025M308.698 438.533l-.264.1" style="fill:none;stroke:red;stroke-width:1.66133;stroke-linecap:round;stroke-linejoin:round;stroke-miterlimit:4;stroke-dasharray:none;stroke-opacity:1;visibility:visible" visibility="hidden"/><path d="m221.456 521.446.581-30.05M226.737 479.295a.516.516 0 0 0-.667.213M222.013 491.38c.004.006.014.011.024.011M339.335 508.887 329.272 383.29M328.743 560.642l8.144-29.128M220.01 469.765l-26.784-121.464M269.5 619.249l6.952 2.343 7.127 2.37 7.172 2.383 4.848 1.605M312.822 555.042a1.335 1.335 0 0 0 .836 1.318M216.744 519.759l.58-.047M333.355 560.102l-.123.179M332.27 558.519l.06-.012M269.373 535.418l.193.008.014.012M296.196 634.837l-.024-.013-.027-.036-.016-.056-.006-.072.016-.166M294.465 632.53l.064-.047M293.49 633.954l-.019.005M233.31 524.245l1.319.448M294.517 632.537l-.024-.001-.03-.007" style="fill:none;stroke:red;stroke-width:.663998;stroke-linecap:round;stroke-linejoin:round;stroke-miterlimit:4;stroke-dasharray:none;stroke-opacity:1;visibility:visible" visibility="hidden"/><path d="m233.754 522.479-.276-.039" style="fill:none;stroke:red;stroke-width:1.66133;stroke-linecap:round;stroke-linejoin:round;stroke-miterlimit:4;stroke-dasharray:none;stroke-opacity:1;visibility:visible" visibility="hidden"/><path d="m215.44 520.818-.01.039.08.054.147.058" style="fill:none;stroke:red;stroke-width:.663998;stroke-linecap:round;stroke-linejoin:round;stroke-miterlimit:4;stroke-dasharray:none;stroke-opacity:1;visibility:visible" visibility="hidden"/><path d="m214.568 587.133.021.057.218.13" style="fill:none;stroke:red;stroke-width:1.66133;stroke-linecap:round;stroke-linejoin:round;stroke-miterlimit:4;stroke-dasharray:none;stroke-opacity:1;visibility:visible" visibility="hidden"/><path d="m216.813 519.95.001-.167M227.877 523.408c.88.159 1.762.294 2.65.403M216.744 519.759l-.141.005M333 516.034a57.836 57.836 0 0 0-4.52 11.68M320.269 557.348l8.212-29.637M343.072 506.434l61.8-25.199M413.48 467.117l17.637-124.457M226.224 522.73l.607-30.555M240.429 474.4l5.29-1.827M251.67 470.514l54.713-18.904M314.31 437.45l3.301-120.468M246.16 471.844l.024-.008.043-.003M245.717 472.555a.237.237 0 0 0 .01.025l.02.016.036.016.042.015M250.385 470.468l-.17-.01M246.315 474.957l.021.02.007.01M250.34 470.438h-.036l-.09.023M332.311 499.095l-2.11-1.123-4.833-2.482-4.824-2.358-4.817-2.228-4.807-2.105-4.794-1.976-4.779-1.847-4.759-1.722-4.737-1.596-4.717-1.47-4.694-1.342-4.664-1.216-4.636-1.096-4.609-.966-4.572-.844-4.538-.722-4.5-.599-4.466-.473-4.424-.358M248.693 471.867a.313.313 0 0 0-.243-.204M249.539 471.745l-.047.001-.024.008M251.907 470.91l.023-.007h.048M251.17 471.166l-.001-.012M251.303 471.12l-.027.005-.109.03M229.88 531.218l-.393.183-.419.068-.41-.056-.371-.168-.3-.271-.207-.352-.092-.404.024-.424.144-.41.248-.358.336-.284.392-.181.419-.068.409.054.373.17.299.274.204.351.093.407-.025.422-.143.407-.249.359-.332.281" style="fill:none;stroke:red;stroke-width:.663998;stroke-linecap:round;stroke-linejoin:round;stroke-miterlimit:4;stroke-dasharray:none;stroke-opacity:1;visibility:visible" visibility="hidden"/><path d="m228.884 530.348-.365-.561.645-.392M230.648 503.017l-.159-.4-.261-.327-.341-.222-.398-.1-.417.024-.413.146-.378.266-.316.354-.224.427-.12.46-.005.463.105.433.214.364.305.279.37.161.411.037.422-.084.4-.208.345-.314.27-.395.175-.447.064-.465-.049-.452M227.806 504.716l-.135-.321" style="fill:none;stroke:red;stroke-width:.663998;stroke-linecap:round;stroke-linejoin:round;stroke-miterlimit:4;stroke-dasharray:none;stroke-opacity:1;visibility:visible" visibility="hidden"/><path d="m228.9 504.353-.313-.43.225-.813.687-.365" style="fill:none;stroke:red;stroke-width:.663998;stroke-linecap:round;stroke-linejoin:round;stroke-miterlimit:4;stroke-dasharray:none;stroke-opacity:1;visibility:visible" visibility="hidden"/><path d="m268.835 557.837.321-4.273.222-4.244.1-4.194-.052-4.12-.228-3.664M258.506 615.11l2.268-8.872 1.997-8.87 1.766-8.874 1.54-8.864 1.313-8.844.553-4.33" style="fill:none;stroke:red;stroke-width:.331999;stroke-linecap:round;stroke-linejoin:round;stroke-miterlimit:4;stroke-dasharray:none;stroke-opacity:1;visibility:visible" visibility="hidden"/><path d="m347.552 472.71 40.048 11.217M298.737 459.192l29.912 8.325M328.091 462.408l-28.132-8.045M391.596 480.568l-50.81-14.53" style="fill:none;stroke:red;stroke-width:1.66133;stroke-linecap:round;stroke-linejoin:round;stroke-miterlimit:4;stroke-dasharray:none;stroke-opacity:1;visibility:visible" visibility="hidden"/><path d="m299.96 454.363-.253-.036-.274.036-.276.11-.269.177-.253.245-.234.301-.204.35-.168.389-.129.41-.084.426-.039.43.01.413.06.388.102.349.148.303.183.246.216.18.241.112M232.567 495.707l2.222 11.228M311.782 552.658l4.019-17.555M328.021 561.908l-5.455-3.673" style="fill:none;stroke:red;stroke-width:.663998;stroke-linecap:round;stroke-linejoin:round;stroke-miterlimit:4;stroke-dasharray:none;stroke-opacity:1;visibility:visible" visibility="hidden"/><path d="m339.335 508.887 3.641-3.888M313.948 554.935l1.042-3.135M307.72 439.352l9.885 1.306M328.326 456.966l-.187-7.971M388.577 467.003l9.507 2.83M417.57 467.796l-11.417 4.444M348.787 451.417l-9.933.77M398.084 469.833l-9.507-2.83M417.57 467.796l-9.654-.507M328.14 448.995l10.292-2.196M317.928 438.319l9.766 5.314" style="fill:none;stroke:red;stroke-width:1.66133;stroke-linecap:round;stroke-linejoin:round;stroke-miterlimit:4;stroke-dasharray:none;stroke-opacity:1;visibility:visible" visibility="hidden"/><path d="m198.564 346.011-2.68-1.826" style="fill:none;stroke:red;stroke-width:.663998;stroke-linecap:round;stroke-linejoin:round;stroke-miterlimit:4;stroke-dasharray:none;stroke-opacity:1;visibility:visible" visibility="hidden"/><path d="m232.466 495.495 13.344 4.863M234.789 506.935l11.153-6.337" style="fill:none;stroke:red;stroke-width:1.66133;stroke-linecap:round;stroke-linejoin:round;stroke-miterlimit:4;stroke-dasharray:none;stroke-opacity:1;visibility:visible" visibility="hidden"/><path d="m293.49 633.954 11.065.75M399.675 479.456l-7.724 4.344M240.428 474.4l-.375-2.176M373.706 455.254l-1.64 6.829M347.828 462.005l4.019-5.944M300.567 449.756l-1.576 10.49M251.975 470.883l13.361 1.176M328.506 456.407l-11.968-10.869M367.879 468.428l5.416-11.35M223.911 523.675l-2.455-2.229M293.5 633.97l2.099-6.02M312.835 554.999l7.434 2.349M227.671 504.395l2.977-1.378M230.648 503.017l-2.977 1.378M222.013 491.38l6.887 12.973" style="fill:none;stroke:red;stroke-width:.663998;stroke-linecap:round;stroke-linejoin:round;stroke-miterlimit:4;stroke-dasharray:none;stroke-opacity:1;visibility:visible" visibility="hidden"/><path d="m267.943 566.457.892-8.62M268.835 557.837l-.892 8.62" style="fill:none;stroke:red;stroke-width:.331999;stroke-linecap:round;stroke-linejoin:round;stroke-miterlimit:4;stroke-dasharray:none;stroke-opacity:1;visibility:visible" visibility="hidden"/><path d="m347.872 462.713-.32 9.997M398.084 469.833 387.6 483.927M328.294 457.028l.355 10.49M328.294 457.028l-.203 5.38M398.084 469.833l-6.488 10.735M347.872 462.713l-7.085 3.326" style="fill:none;stroke:red;stroke-width:1.66133;stroke-linecap:round;stroke-linejoin:round;stroke-miterlimit:4;stroke-dasharray:none;stroke-opacity:1;visibility:visible" visibility="hidden"/><path d="m342.958 514.903 62.056-25.784M405.014 489.119l.51-.225.938-.494.93-.586.923-.68.908-.767.894-.852.866-.927.844-.994.812-1.066.784-1.124.748-1.177.708-1.227.667-1.27.624-1.312.58-1.335.53-1.368.478-1.387.425-1.396.37-1.402.066-.295" style="fill:none;stroke:#00ff4a;stroke-width:1.66133;stroke-linecap:round;stroke-linejoin:round;stroke-miterlimit:4;stroke-dasharray:none;stroke-opacity:1;visibility:visible"/><path d="M414.082 469.868a1.157 1.157 0 0 0-.572.75M417.71 468.232l-1.816.82-1.815.816" style="fill:none;stroke:#00ff4a;stroke-width:.663998;stroke-linecap:round;stroke-linejoin:round;stroke-miterlimit:4;stroke-dasharray:none;stroke-opacity:1;visibility:visible"/><path d="m390.602 458.834-.65-.205-1.905-.611-4.089-1.29-4.057-1.263-4.052-1.244-1.767-.538-1.736-.525-1.584-.473-.82-.246-1.105-.332-1.396-.414-1.679-.496-1.68-.492M404.145 463.255l-1.135-.375-.109-.037-.017-.005-.052-.019-.179-.057-.575-.191-.785-.263-1.061-.35-.591-.191-.428-.14-.421-.141-.422-.136-.409-.135-.408-.13-1.65-.54M302.685 520.172a645.601 645.601 0 0 0 19.255 6.386M302.686 520.172l-1.743-.617-6.852-2.432-3.361-1.192-3.315-1.178-6.512-2.296-3.188-1.116-5.256-1.825M245.941 500.598l1.332.441 5.465 1.819 2.818.937 2.869.959 5.885 1.98 3.012 1.023 5.138 1.758M232.649 495.708a295.313 295.313 0 0 0 13.291 4.892" style="fill:none;stroke:#00ff4a;stroke-width:1.66133;stroke-linecap:round;stroke-linejoin:round;stroke-miterlimit:4;stroke-dasharray:none;stroke-opacity:1;visibility:visible"/><path d="m414.83 470.995-.403 1.245-.461 1.219-.523 1.193-.573 1.148-.619 1.099-.662 1.036-.699.963-.73.881-.749.793-.765.696-.773.598-.779.484-.77.369M418.336 469.41l-3.507 1.585M414.828 470.995a1.227 1.227 0 0 0-.517-1.095" style="fill:none;stroke:#00ff4a;stroke-width:.663998;stroke-linecap:round;stroke-linejoin:round;stroke-miterlimit:4;stroke-dasharray:none;stroke-opacity:1;visibility:visible"/><path d="m404.124 463.244 1.113.37 3.159 1.058M364.12 450.71l-7.785-2.247-7.71-2.161-7.653-2.084-2.8-.743M327.449 440.69l-.14-.035-2.643-.666-3.133-.784-3.133-.775" style="fill:none;stroke:#00ff4a;stroke-width:1.66133;stroke-linecap:round;stroke-linejoin:round;stroke-miterlimit:4;stroke-dasharray:none;stroke-opacity:1;visibility:visible"/><path d="m406.322 482.72-63.175 25.888M414.312 469.9a.233.233 0 0 0-.23-.033" style="fill:none;stroke:#00ff4a;stroke-width:.663998;stroke-linecap:round;stroke-linejoin:round;stroke-miterlimit:4;stroke-dasharray:none;stroke-opacity:1;visibility:visible"/><path d="m273.255 508.41.752-2.13.701-1.56.796-1.483 1.174-1.844 1.274-1.692 1.384-1.596 1.804-1.804 1.918-1.675 1.984-1.528 2-1.377M306.762 483.04l1.783-.552 4.478-1.23 4.324-1.093 4.21-1 4.118-.954 4.804-1.106" style="fill:none;stroke:#00ff4a;stroke-width:.331999;stroke-linecap:round;stroke-linejoin:round;stroke-miterlimit:4;stroke-dasharray:none;stroke-opacity:1;visibility:visible"/><path d="m414.082 469.867 3.628-1.635" style="fill:none;stroke:#00ff4a;stroke-width:.663998;stroke-linecap:round;stroke-linejoin:round;stroke-miterlimit:4;stroke-dasharray:none;stroke-opacity:1;visibility:visible"/><path d="m395.902 460.544-5.3-1.71M390.602 458.834l5.3 1.71M395.902 460.544l12.494 4.128M327.449 440.69l10.723 2.785M338.172 443.475l-10.723-2.785" style="fill:none;stroke:#00ff4a;stroke-width:1.66133;stroke-linecap:round;stroke-linejoin:round;stroke-miterlimit:4;stroke-dasharray:none;stroke-opacity:1;visibility:visible"/><path d="m328.294 457.028 11.972 13.257" style="fill:none;stroke:red;stroke-width:1.66133;stroke-linecap:round;stroke-linejoin:round;stroke-miterlimit:4;stroke-dasharray:none;stroke-opacity:1;visibility:visible" visibility="hidden"/><path d="m227.671 504.395 1.828-1.65" style="fill:none;stroke:red;stroke-width:.663998;stroke-linecap:round;stroke-linejoin:round;stroke-miterlimit:4;stroke-dasharray:none;stroke-opacity:1;visibility:visible" visibility="hidden"/></svg>