<svg xmlns="http://www.w3.org/2000/svg" baseProfile="full" height="793.701" preserveAspectRatio="xMinYMin meet" style="width:912px;height:1303px" width="559.371" xml:space="preserve"><path d="m324.402 173.288.195-.039M325.634 163.419l.005-.329" style="fill:none;stroke:red;stroke-width:.663998;stroke-linecap:round;stroke-linejoin:round;stroke-miterlimit:4;stroke-dasharray:none;stroke-opacity:1;visibility:visible"/><path d="m423.955 146.321-5.31-23.156" style="fill:none;stroke:red;stroke-width:1.66133;stroke-linecap:round;stroke-linejoin:round;stroke-miterlimit:4;stroke-dasharray:none;stroke-opacity:1;visibility:visible"/><path d="m425.366 166.457.026-.262" style="fill:none;stroke:red;stroke-width:.663998;stroke-linecap:round;stroke-linejoin:round;stroke-miterlimit:4;stroke-dasharray:none;stroke-opacity:1;visibility:visible"/><path d="m316.589 137.516-.179 25.504M414.576 200.958l-5.302 54.414M417.666 169.24l-2.602 26.716M422.539 194.523l2.828-28.064M416.215 257.249l5.821-57.747M425.556 157.637a66.116 66.116 0 0 0-1.602-11.316" style="fill:none;stroke:red;stroke-width:1.66133;stroke-linecap:round;stroke-linejoin:round;stroke-miterlimit:4;stroke-dasharray:none;stroke-opacity:1;visibility:visible"/><path d="m324.802 163.093.188-25.661" style="fill:none;stroke:red;stroke-width:.663998;stroke-linecap:round;stroke-linejoin:round;stroke-miterlimit:4;stroke-dasharray:none;stroke-opacity:1;visibility:visible"/><path d="M314.938 182.863a142.769 142.769 0 0 0 1.472-19.843" style="fill:none;stroke:red;stroke-width:1.66133;stroke-linecap:round;stroke-linejoin:round;stroke-miterlimit:4;stroke-dasharray:none;stroke-opacity:1;visibility:visible"/><path d="M324.402 173.252c.25-3.379.383-6.77.4-10.159" style="fill:none;stroke:red;stroke-width:.663998;stroke-linecap:round;stroke-linejoin:round;stroke-miterlimit:4;stroke-dasharray:none;stroke-opacity:1;visibility:visible"/><path d="m315.729 78.356-.699 58.308M308.397 281.694l14.82-97.724M314.938 182.863l-14.51 97.846M323.218 183.97c.527-3.56.92-7.134 1.184-10.719" style="fill:none;stroke:red;stroke-width:1.66133;stroke-linecap:round;stroke-linejoin:round;stroke-miterlimit:4;stroke-dasharray:none;stroke-opacity:1;visibility:visible"/><path d="M326.322 137.41h.078" style="fill:none;stroke:red;stroke-width:.663998;stroke-linecap:round;stroke-linejoin:round;stroke-miterlimit:4;stroke-dasharray:none;stroke-opacity:1;visibility:visible"/><path d="m323.313 66.65-1.18.187-.999.366-.851.477-.696.535-.73.717-.572.708-.438.644-.414.721-.454.958-.454 1.233-.303 1.088-.248 1.223-.172 1.357-.075 1.493" style="fill:none;stroke:red;stroke-width:1.66133;stroke-linecap:round;stroke-linejoin:round;stroke-miterlimit:4;stroke-dasharray:none;stroke-opacity:1;visibility:visible"/><path d="m326.393 137.41.297-.01M326.69 137.401l1.305-.03 1.599-.055" style="fill:none;stroke:red;stroke-width:.663998;stroke-linecap:round;stroke-linejoin:round;stroke-miterlimit:4;stroke-dasharray:none;stroke-opacity:1;visibility:visible"/><path d="m476.052 171.295-52.574-14.218M426.296 165.615l28.706 8.04M466.736 176.94l5.172 1.45M479.215 190.553a16.835 16.835 0 0 0-.296-2.158M471.907 178.39l.302.096.602.251.598.336.598.415.583.492.57.571.553.636.527.703.495.76.464.818.245.502M487.71 190.17l-.056-.643-.144-1.227-.202-1.232-.258-1.228-.314-1.215-.366-1.197-.42-1.178-.467-1.145-.515-1.11-.557-1.07-.602-1.02-.637-.965-.67-.91-.702-.846-.731-.779-.755-.705-.774-.633-.792-.547-.801-.468-.81-.383-.811-.294-.274-.078M479.215 190.553l7.564 105.875M495.09 296.19l-7.38-106.02M418.67 123.16l.355-.132.303-.207.126-.15.086-.179.04-.204-.018-.207M405.982 126.308l2.901-.687M408.883 125.62l5.179-1.279 4.608-1.181M392.643 59.378l-2.185.312M396.95 59.407l-2.142-.127M407.292 68.536l-.477-1.588-.624-1.401-.739-1.23-.797-1.034-1.103-1.113-1.081-.846-.993-.61-.879-.425-.739-.287-.609-.194-1.045-.248-1.263-.153M419.563 122.079l-12.268-53.543M366.872 133.795a508.567 508.567 0 0 0 39.111-7.487M332.031 137.225a326.113 326.113 0 0 0 34.841-3.433M329.593 137.312l2.437-.087M315.03 136.663a.847.847 0 0 0 .904.852" style="fill:none;stroke:red;stroke-width:1.66133;stroke-linecap:round;stroke-linejoin:round;stroke-miterlimit:4;stroke-dasharray:none;stroke-opacity:1;visibility:visible"/><path d="m417.372 148.513-5.285-22.92" style="fill:none;stroke:red;stroke-width:.663998;stroke-linecap:round;stroke-linejoin:round;stroke-miterlimit:4;stroke-dasharray:none;stroke-opacity:1;visibility:visible"/><path d="m410.366 149.664.208.848.244.913.278.952.308.95.331.941.359.919.38.895.398.854.42.812.459.807.492.777.527.745.56.706.598.653.372.352" style="fill:none;stroke:red;stroke-width:1.66133;stroke-linecap:round;stroke-linejoin:round;stroke-miterlimit:4;stroke-dasharray:none;stroke-opacity:1;visibility:visible"/><path d="m419.83 154.041-.434-.668-.406-.706-.37-.738-.33-.756-.255-.682-.235-.735-.225-.819-.107-.424" style="fill:none;stroke:red;stroke-width:.663998;stroke-linecap:round;stroke-linejoin:round;stroke-miterlimit:4;stroke-dasharray:none;stroke-opacity:1;visibility:visible"/><path d="m330.113 163.428.19-26.141M335.176 172.236l-.566-.219-.502-.264-.514-.337-.557-.456-.524-.515-.434-.514-.389-.554-.351-.577-.296-.607-.257-.628-.23-.708-.186-.75-.135-.767-.075-.695-.039-.75-.004-.467M324.402 173.288l.068.119.563.873.604.82.632.76.656.693.673.614.575.456.6.4s.771.59 1.855.993c1.085.399 3.372 1.033 3.372 1.033M384.759 188.353l-49.597-16.117M334 180.05l45.702 15.371M379.704 195.424l.28.105.556.279.548.366.54.454.528.536.51.613.482.693.459.76.428.822.39.882.349.932.309.972.263 1.008.212 1.03.161 1.046.113 1.058.056 1.048.007.557M394.81 208.85l-.01-.694-.057-1.319-.115-1.321-.168-1.324-.222-1.31-.276-1.297-.327-1.269-.376-1.239-.423-1.203-.47-1.154-.512-1.11-.554-1.05-.59-.99-.626-.924-.656-.85-.685-.776-.712-.692-.73-.61-.751-.518-.762-.425-.772-.335-.256-.089M385.895 208.585l.273 114.43M394.92 323.42l-.112-114.57M405.008 126.533l5.36 23.13M423.5 157.063l-.408-.14-.492-.217-.416-.246-.473-.35-.452-.394-.489-.495-.48-.564-.46-.616" style="fill:none;stroke:red;stroke-width:1.66133;stroke-linecap:round;stroke-linejoin:round;stroke-miterlimit:4;stroke-dasharray:none;stroke-opacity:1;visibility:visible"/><path d="m340.324 173.464-.942.108M339.38 173.576l-.053.013M426.079 165.873a.436.436 0 0 0 .241-.476M425.996 165.913l.079-.032M426.323 165.399l-.04-.754M426.326 164.375a.492.492 0 0 0-.044.269M426.106 164.325l.018-.002.03.01M426.108 161.523l-.041-.758M426.106 161.49a.73.73 0 0 0 .393.646M426.154 164.33l1.726.48M428.906 164.795l.028-.006M428.786 162.51l-.48.11M428.176 162.57a.11.11 0 0 0 .132.05M428.244 162.619l-1.76-.487" style="fill:none;stroke:red;stroke-width:.663998;stroke-linecap:round;stroke-linejoin:round;stroke-miterlimit:4;stroke-dasharray:none;stroke-opacity:1;visibility:visible"/><path d="M358.65 173.683a180.653 180.653 0 0 0 63.085-14.07M361.22 180.703a186.048 186.048 0 0 0 64.714-14.743" style="fill:none;stroke:red;stroke-width:1.66133;stroke-linecap:round;stroke-linejoin:round;stroke-miterlimit:4;stroke-dasharray:none;stroke-opacity:1;visibility:visible"/><path d="m325.606 163.09-.004.28v.05M420.468 160.619h-.006M423 160.963l-.016.012-.048.025-.089.037-.132.04-.165.03-.16.012-.104-.004-.052-.008h-.004M342.23 173.728l-.022-.005-.012-.003" style="fill:none;stroke:red;stroke-width:.663998;stroke-linecap:round;stroke-linejoin:round;stroke-miterlimit:4;stroke-dasharray:none;stroke-opacity:1;visibility:visible"/><path d="M409.278 255.372a.157.157 0 0 0 .029.1M415.93 257.433a.284.284 0 0 0 .285-.184M409.306 255.472l1.704 2.346M411.015 257.818a.681.681 0 0 0 .587.178M411.606 257.994l4.322-.561" style="fill:none;stroke:red;stroke-width:1.66133;stroke-linecap:round;stroke-linejoin:round;stroke-miterlimit:4;stroke-dasharray:none;stroke-opacity:1;visibility:visible"/><path d="m318.658 185.007-14.701 98.042M318.657 185.007a156.538 156.538 0 0 0 1.64-21.928" style="fill:none;stroke:red;stroke-width:.663998;stroke-linecap:round;stroke-linejoin:round;stroke-miterlimit:4;stroke-dasharray:none;stroke-opacity:1;visibility:visible"/><path d="M308.249 281.836a.204.204 0 0 0 .149-.14M300.426 280.708a.213.213 0 0 0 .13.194M308.249 281.836l-3.602 1.3M303.957 283.05a.856.856 0 0 0 .691.083M303.958 283.049l-3.401-2.147" style="fill:none;stroke:red;stroke-width:1.66133;stroke-linecap:round;stroke-linejoin:round;stroke-miterlimit:4;stroke-dasharray:none;stroke-opacity:1;visibility:visible"/><path d="m329.362 67.84 1.076-.06M322.302 78.243l.145-2.006.395-1.92.635-1.76.862-1.554 1.047-1.28 1.219-.983 1.333-.628 1.422-.27M321.883 136.601l.419-58.36" style="fill:none;stroke:red;stroke-width:.663998;stroke-linecap:round;stroke-linejoin:round;stroke-miterlimit:4;stroke-dasharray:none;stroke-opacity:1;visibility:visible"/><path d="m316.138 137.523-.084.001-.04.003v.001M316.133 137.53l.457-.003" style="fill:none;stroke:red;stroke-width:1.66133;stroke-linecap:round;stroke-linejoin:round;stroke-miterlimit:4;stroke-dasharray:none;stroke-opacity:1;visibility:visible"/><path d="m316.022 137.527.053.001h.059" style="fill:none;stroke:red;stroke-width:1.66133;stroke-linecap:round;stroke-linejoin:round;stroke-miterlimit:4;stroke-dasharray:none;stroke-opacity:1;visibility:visible"/><path d="m331.167 67.735 4.573-.266 4.594-.259 4.648-.29 3.542-.252 3.616-.296 3.716-.347 3.846-.392M331.13 67.739l.033-.003M330.438 67.78l.692-.04" style="fill:none;stroke:red;stroke-width:.663998;stroke-linecap:round;stroke-linejoin:round;stroke-miterlimit:4;stroke-dasharray:none;stroke-opacity:1;visibility:visible"/><path d="M331.102 137.276h-.043M330.306 137.292l.753-.017" style="fill:none;stroke:red;stroke-width:1.66133;stroke-linecap:round;stroke-linejoin:round;stroke-miterlimit:4;stroke-dasharray:none;stroke-opacity:1;visibility:visible"/><path d="m316.053 137.523 4.426-.059M321.282 137.46l-.803.005M321.282 137.459a.763.763 0 0 0 .6-.859" style="fill:none;stroke:red;stroke-width:.663998;stroke-linecap:round;stroke-linejoin:round;stroke-miterlimit:4;stroke-dasharray:none;stroke-opacity:1;visibility:visible"/><path d="m321.282 137.459 3.972-.029 4.232-.1M316.047 137.53h-.125l-.039-.003h.044l.127-.004M316.589 137.532l-.542-.003" style="fill:none;stroke:red;stroke-width:1.66133;stroke-linecap:round;stroke-linejoin:round;stroke-miterlimit:4;stroke-dasharray:none;stroke-opacity:1;visibility:visible"/><path d="M321.167 137.459c-.2 0-.4.004-.601.004" style="fill:none;stroke:red;stroke-width:.663998;stroke-linecap:round;stroke-linejoin:round;stroke-miterlimit:4;stroke-dasharray:none;stroke-opacity:1;visibility:visible"/><path d="M325.102 66.55a612.302 612.302 0 0 0 30.333-2.492M325.08 66.55h.022M323.37 66.64l1.708-.088M326.322 137.405l-1.088.026-4.067.029M316.138 137.523l4.428-.059" style="fill:none;stroke:red;stroke-width:1.66133;stroke-linecap:round;stroke-linejoin:round;stroke-miterlimit:4;stroke-dasharray:none;stroke-opacity:1;visibility:visible"/><path d="m393.311 61.145-.025.003-.02.004M393.266 61.152l-5.7.813-5.694.827-5.666.808-4.219.569-4.18.535-4.11.488-3.997.443" style="fill:none;stroke:red;stroke-width:.663998;stroke-linecap:round;stroke-linejoin:round;stroke-miterlimit:4;stroke-dasharray:none;stroke-opacity:1;visibility:visible"/><path d="m390.435 59.692-6.036.839-5.987.799-5.916.757-5.806.706-5.687.66-5.57.605" style="fill:none;stroke:red;stroke-width:1.66133;stroke-linecap:round;stroke-linejoin:round;stroke-miterlimit:4;stroke-dasharray:none;stroke-opacity:1;visibility:visible"/><path d="m394.175 61.023-.863.122M405.852 67.02l-.888-1.69-1.156-1.48-1.394-1.244-1.572-.946-1.723-.63-1.783-.278-1.821.081M395.514 60.83l-1.339.196" style="fill:none;stroke:red;stroke-width:.663998;stroke-linecap:round;stroke-linejoin:round;stroke-miterlimit:4;stroke-dasharray:none;stroke-opacity:1;visibility:visible"/><path d="m392.668 59.372-2.201.316M390.466 59.688l-.031.004M394.807 59.303l-.764-.037-1.375.106M396.947 59.43l.055.003" style="fill:none;stroke:red;stroke-width:1.66133;stroke-linecap:round;stroke-linejoin:round;stroke-miterlimit:4;stroke-dasharray:none;stroke-opacity:1;visibility:visible"/><path d="M490.21 297.688a1.253 1.253 0 0 0 .713-.018M483.424 191.364l7.501 106.306" style="fill:none;stroke:red;stroke-width:.663998;stroke-linecap:round;stroke-linejoin:round;stroke-miterlimit:4;stroke-dasharray:none;stroke-opacity:1;visibility:visible"/><path d="m486.893 296.526 3.314 1.162M490.925 297.67l3.983-1.334" style="fill:none;stroke:red;stroke-width:1.66133;stroke-linecap:round;stroke-linejoin:round;stroke-miterlimit:4;stroke-dasharray:none;stroke-opacity:1;visibility:visible"/><path d="m471.793 172.304.83.276.83.368.823.465.816.559.804.644.785.73.763.812.733.887.7.962.666 1.022.625 1.083.58 1.137.53 1.179.481 1.221.429 1.254.367 1.276.31 1.291.248 1.3.187 1.302.124 1.292" style="fill:none;stroke:red;stroke-width:.663998;stroke-linecap:round;stroke-linejoin:round;stroke-miterlimit:4;stroke-dasharray:none;stroke-opacity:1;visibility:visible"/><path d="m486.893 296.526-.057-.025-.036-.025-.021-.032-.004-.015M495.09 296.19l-.001.02-.019.034-.035.033-.058.032-.07.027" style="fill:none;stroke:red;stroke-width:1.66133;stroke-linecap:round;stroke-linejoin:round;stroke-miterlimit:4;stroke-dasharray:none;stroke-opacity:1;visibility:visible"/><path d="m412.671 149.947.424 1.46.45 1.106.539 1.027.675 1.024.73.89 1.091 1.033 1.12.785.826.423.826.292M417.458 148.513v.004M409.603 141.003l-.08-.351-.11-.345-.132-.315-.147-.259-.146-.188-.136-.097-.12-.005-.09.093-.056.179-.014.255.023.31.06.341.095.352.126.332.14.29.144.225.146.144.126.05.108-.041.074-.137.036-.217-.003-.287-.044-.33M428.534 162.44l.008.125M428.539 162.368l-.004.032v.043M428.534 162.44l-.26.06M467.979 169.97l-.144-.052M428.743 162.52l-.076-.083-.032-.042M465.599 170.13l.295.056.358.03.4.001.4-.026.375-.055.316-.079.233-.093.127-.104.019-.1-.1-.095-.203-.077M464.716 169.89l.884.24M466.936 169.35l-.293-.054-.361-.031-.397-.002-.399.026-.376.055-.314.079-.233.092-.13.1-.021.102.102.095.201.078M467.82 169.59l-.885-.24M422.69 158.495l.268.053.329.03.373.007.387-.018.373-.044.342-.063.278-.08.2-.087.106-.097.008-.093-.092-.084-.186-.072-.268-.051-.33-.032-.371-.005-.385.02-.375.038-.339.067-.277.076-.201.091-.107.094-.01.095.092.084.185.07M419.354 157.99l52.44 14.313M428.274 162.5l.01.12M428.275 162.5v-.04l.005-.036.01-.032.013-.03.02-.021.021-.014.023-.004.027.002M428.682 162.407l-.292-.082M428.826 162.653a.273.273 0 0 0-.143-.246M428.94 164.71l-.116-2.055M428.939 164.71v.039l-.007.04-.012.032-.012.027-.018.021-.022.014-.022.005-.026-.004M428.636 164.833l.184.05" style="fill:none;stroke:red;stroke-width:.663998;stroke-linecap:round;stroke-linejoin:round;stroke-miterlimit:4;stroke-dasharray:none;stroke-opacity:1;visibility:visible"/><path d="M389.379 324.456c.243.08.503.093.752.04" style="fill:none;stroke:red;stroke-width:1.66133;stroke-linecap:round;stroke-linejoin:round;stroke-miterlimit:4;stroke-dasharray:none;stroke-opacity:1;visibility:visible"/><path d="m389.167 209.538.212 114.918" style="fill:none;stroke:red;stroke-width:.663998;stroke-linecap:round;stroke-linejoin:round;stroke-miterlimit:4;stroke-dasharray:none;stroke-opacity:1;visibility:visible"/><path d="m386.168 323.016.01.032.032.03.052.027M394.687 323.55l.083-.018.062-.027.05-.028.028-.03.01-.032M389.379 324.456l-3.117-1.351M394.687 323.55l-4.556.943" style="fill:none;stroke:red;stroke-width:1.66133;stroke-linecap:round;stroke-linejoin:round;stroke-miterlimit:4;stroke-dasharray:none;stroke-opacity:1;visibility:visible"/><path d="m379.524 189.505.796.318.787.429.777.54.763.637.74.747.716.84.683.93.648 1.017.608 1.093.564 1.171.513 1.225.465 1.286.408 1.335.352 1.37.291 1.401.228 1.418.165 1.43.103 1.425.036 1.421M376.791 186.27l.185.081.067.091-.052.087-.168.078-.275.063-.353.046-.41.021-.426-.005-.415-.032-.364-.052-.286-.073M374.295 186.575l-.835-.271M373.46 186.303l-.185-.083-.065-.09.053-.084.17-.079.273-.067.356-.04.406-.024.426.008.413.028.363.053.285.07M375.955 185.996l.837.272M336.506 173.1l.17.075.066.08-.042.078-.142.074-.238.063-.317.047-.372.03-.404.013-.407-.015-.385-.032-.33-.052-.261-.06-.166-.077-.068-.081.04-.076.146-.077.24-.062.316-.05.372-.026.402-.012.407.013.382.03.333.051.258.066M330.13 173.268l49.394 16.237M340.324 173.464l.014-.001.058.01M340.396 173.47l-.944.108M426.172 164.703l.043.756M425.906 164.764l.264-.064M425.879 164.77c.008-.003.019-.003.027-.008M425.498 161.665a.525.525 0 0 0-.188.083M426.455 162.137h.044M427.879 164.81a.243.243 0 0 0 .044 0M427.924 164.81a2.28 2.28 0 0 0 .959-.018M428.882 164.795h.024M427.81 164.721a2.453 2.453 0 0 0 1.145-.038M425.17 161.007a.79.79 0 0 0-.418-.6M424.752 160.407l-2.885-.792M421.78 159.612l.027-.004.06.007M426.086 164.243a.443.443 0 0 0-.206.526M427.81 164.721l-1.725-.478M325.657 163.417l.01.826.13 1.577.275 1.517.422 1.453.55 1.305.674 1.145.76.932.364.341.632.455.656.3M375.95 186.35l.832.269" style="fill:none;stroke:red;stroke-width:.663998;stroke-linecap:round;stroke-linejoin:round;stroke-miterlimit:4;stroke-dasharray:none;stroke-opacity:1;visibility:visible"/><path d="M375.95 186.35a5.333 5.333 0 0 0-2.483-.043M375.95 186.35l.005-.353M425.163 160.951a.705.705 0 0 0-.375-.535M425.163 160.95l.875 4.644M340.366 173.46a.168.168 0 0 0-.127.013" style="fill:none;stroke:red;stroke-width:.663998;stroke-linecap:round;stroke-linejoin:round;stroke-miterlimit:4;stroke-dasharray:none;stroke-opacity:1;visibility:visible"/><path d="M340.366 173.46c6.104.395 12.224.472 18.337.237" style="fill:none;stroke:red;stroke-width:1.66133;stroke-linecap:round;stroke-linejoin:round;stroke-miterlimit:4;stroke-dasharray:none;stroke-opacity:1;visibility:visible"/><path d="m421.734 159.612.046-.01.056.005M425.936 165.961a.317.317 0 0 0 .102-.366M423.07 160.72l.09.04.032.064-.042.072-.103.074-.157.069-.184.053-.204.037-.194.011-.16-.016-.041-.01M422.108 161.113l-1.76-.483M420.35 160.628l-.092-.044-.028-.06.04-.072.104-.072.156-.07.186-.052.204-.035.188-.01.162.012.04.008M421.308 160.233l1.763.488M320.483 137.465l-.185 25.612M417.282 200.432l-5.679 57.562M420.462 168.173l-2.686 27.267M420.408 154.767a64.884 64.884 0 0 0-1.221-7.018M413.814 124.403l5.373 23.345M325.642 163.419h-.04M325.606 163.09h.027M324.806 163.088h-.004M324.809 163.088l.181-24.876" style="fill:none;stroke:red;stroke-width:.663998;stroke-linecap:round;stroke-linejoin:round;stroke-miterlimit:4;stroke-dasharray:none;stroke-opacity:1;visibility:visible"/><path d="M423.07 160.72a.312.312 0 0 0-.167.343" style="fill:none;stroke:red;stroke-width:.663998;stroke-linecap:round;stroke-linejoin:round;stroke-miterlimit:4;stroke-dasharray:none;stroke-opacity:1;visibility:visible"/><path d="m316.047 137.53-.112-.03" style="fill:none;stroke:red;stroke-width:1.66133;stroke-linecap:round;stroke-linejoin:round;stroke-miterlimit:4;stroke-dasharray:none;stroke-opacity:1;visibility:visible"/><path d="m410.396 149.683-.022-.01-.006-.01M407.138 126.036l5.532 23.912M428.819 164.884l.073-.017M423.484 157.076h-.15M476.052 171.295a.31.31 0 0 0-.156 0" style="fill:none;stroke:red;stroke-width:.663998;stroke-linecap:round;stroke-linejoin:round;stroke-miterlimit:4;stroke-dasharray:none;stroke-opacity:1;visibility:visible"/><path d="m384.599 188.339.088-.002.073.016" style="fill:none;stroke:red;stroke-width:1.66133;stroke-linecap:round;stroke-linejoin:round;stroke-miterlimit:4;stroke-dasharray:none;stroke-opacity:1;visibility:visible"/><path d="M420.466 160.619a.173.173 0 0 0-.12.01M422.228 161.105a.179.179 0 0 0-.12.01M342.176 173.72l.044.008h.004M343.598 174.975a180.714 180.714 0 0 0 81.565-14.026M339.382 173.57h.012l.06.008M339.372 173.601l.034-.013.048-.01M426.075 165.88a.395.395 0 0 0 .14-.421M426.323 165.399l-.001.009-.014.015-.022.012-.034.013-.037.01M426.215 165.459l-.19.08M426.278 164.64v.013l-.033.028-.073.022M426.279 164.375a.437.437 0 0 0-.109.325M426.106 164.325a.4.4 0 0 0-.2.438M426.086 164.243a.103.103 0 0 0 .069.085M428.266 162.636l.024-.01.018-.006M428.266 162.636a.027.027 0 0 0-.022-.016M427.81 164.721a.107.107 0 0 0 .07.089M428.906 164.795a.036.036 0 0 0 .028-.022M325.6 163.417h.057M376.784 186.619l.008-.351M335.017 172.223l.151.017M335.856 177.15c-.24-.92-.84-1.56-1.332-1.436-.492.131-.693.981-.456 1.903.242.923.838 1.564 1.334 1.439.492-.128.697-.981.454-1.906" style="fill:none;stroke:red;stroke-width:.663998;stroke-linecap:round;stroke-linejoin:round;stroke-miterlimit:4;stroke-dasharray:none;stroke-opacity:1;visibility:visible"/><path d="m335.005 178.199.194-.504-.205-.776-.396-.272M467.466 171.701l.254.087.258.152.24.215.227.265.202.316.17.352.137.379.094.39.05.398.01.385-.039.363-.079.332-.124.289-.157.24-.192.18-.217.116-.126.037" style="fill:none;stroke:red;stroke-width:.663998;stroke-linecap:round;stroke-linejoin:round;stroke-miterlimit:4;stroke-dasharray:none;stroke-opacity:1;visibility:visible"/><path d="m467.11 171.695-82.73 15.66M390.078 191.444l78.098-15.248" style="fill:none;stroke:red;stroke-width:1.66133;stroke-linecap:round;stroke-linejoin:round;stroke-miterlimit:4;stroke-dasharray:none;stroke-opacity:1;visibility:visible"/><path d="M377.674 191.212c-.242-.922-.842-1.563-1.335-1.439-.489.132-.692.982-.455 1.907.243.92.84 1.56 1.334 1.436.496-.13.697-.982.456-1.904" style="fill:none;stroke:red;stroke-width:.663998;stroke-linecap:round;stroke-linejoin:round;stroke-miterlimit:4;stroke-dasharray:none;stroke-opacity:1;visibility:visible"/><path d="m376.82 192.257.195-.502-.204-.777-.397-.273" style="fill:none;stroke:red;stroke-width:.663998;stroke-linecap:round;stroke-linejoin:round;stroke-miterlimit:4;stroke-dasharray:none;stroke-opacity:1;visibility:visible"/><path d="m415.064 195.956-.488 5.002M425.366 166.457l-7.7 2.783M417.282 200.432l-2.218-4.476M422.036 199.502l.503-4.979M422.539 194.523l-.503 4.979M426.067 160.765l-.511-3.128M464.716 169.89l-9.714 3.765M471.794 172.303l-5.058 4.637" style="fill:none;stroke:red;stroke-width:1.66133;stroke-linecap:round;stroke-linejoin:round;stroke-miterlimit:4;stroke-dasharray:none;stroke-opacity:1;visibility:visible"/><path d="m419.563 122.079-7.476 3.514" style="fill:none;stroke:red;stroke-width:.663998;stroke-linecap:round;stroke-linejoin:round;stroke-miterlimit:4;stroke-dasharray:none;stroke-opacity:1;visibility:visible"/><path d="m358.703 173.697 2.517 7.006" style="fill:none;stroke:red;stroke-width:1.66133;stroke-linecap:round;stroke-linejoin:round;stroke-miterlimit:4;stroke-dasharray:none;stroke-opacity:1;visibility:visible"/><path d="m410.366 149.664-.763-8.661M420.408 154.767l-10.805-13.765M421.867 159.615l.823-1.12M423.07 160.72l-.38-2.226M335.176 172.236l1.33.864M335.162 172.236l1.344.864M415.064 195.956l2.218 4.476M425.366 166.457l-4.904 1.716M417.282 200.432l.494-4.992M419.563 122.079l-5.749 2.324M419.563 122.079l-12.425 3.957M342.224 173.728l1.374 1.247" style="fill:none;stroke:red;stroke-width:.663998;stroke-linecap:round;stroke-linejoin:round;stroke-miterlimit:4;stroke-dasharray:none;stroke-opacity:1;visibility:visible"/><path d="m479.49 183.576-85.925 16.514M394.546 204.87l86.009-16.794" style="fill:none;stroke:#00ff4a;stroke-width:1.66133;stroke-linecap:round;stroke-linejoin:round;stroke-miterlimit:4;stroke-dasharray:none;stroke-opacity:1;visibility:visible" visibility="hidden"/><path d="m479.49 183.576.105-.012.253.016M479.847 183.581l.256.089.256.151.241.215.227.267.201.316.17.349.139.38.093.39.051.401.007.381-.037.364-.081.332-.122.29-.156.239-.195.178-.217.117-.125.037" style="fill:none;stroke:#00ff4a;stroke-width:.663998;stroke-linecap:round;stroke-linejoin:round;stroke-miterlimit:4;stroke-dasharray:none;stroke-opacity:1;visibility:visible" visibility="hidden"/><path d="m336.506 173.1-1.908 3.547" style="fill:none;stroke:red;stroke-width:.663998;stroke-linecap:round;stroke-linejoin:round;stroke-miterlimit:4;stroke-dasharray:none;stroke-opacity:1;visibility:visible"/></svg>