<svg xmlns="http://www.w3.org/2000/svg" baseProfile="full" height="793.701" preserveAspectRatio="xMinYMin meet" style="width:912px;height:1303px" width="559.371" xml:space="preserve"><path d="M139.776 326.12a.41.41 0 0 0 .302.125M140.072 326.252l2.966.399M142.986 326.638a1.696 1.696 0 0 0 2.012-.981M138.04 324.858l1.756 1.283M137.222 323.029a1.787 1.787 0 0 0 .918 1.887M55.964 240.476a.556.556 0 0 0 .51.208M53.383 237.642l2.58 2.843M53.048 235.802a1.552 1.552 0 0 0 .381 1.888M56.452 240.69l3.18-.123M59.513 240.564c.59.08 1.17-.179 1.51-.666" style="fill:none;stroke:red;stroke-width:1.66133;stroke-linecap:round;stroke-linejoin:round;stroke-miterlimit:4;stroke-dasharray:none;stroke-opacity:1;visibility:visible"/><path d="m194.016 188.375-13.648 16.58M180.37 204.956l-.59.73-.93 1.244" style="fill:none;stroke:red;stroke-width:.663998;stroke-linecap:round;stroke-linejoin:round;stroke-miterlimit:4;stroke-dasharray:none;stroke-opacity:1;visibility:visible"/><path d="M145.008 325.657 174.13 223.58M166.706 220.93l-29.408 102.061" style="fill:none;stroke:red;stroke-width:1.66133;stroke-linecap:round;stroke-linejoin:round;stroke-miterlimit:4;stroke-dasharray:none;stroke-opacity:1;visibility:visible"/><path d="m175.688 203.52-.083.106" style="fill:none;stroke:red;stroke-width:.663998;stroke-linecap:round;stroke-linejoin:round;stroke-miterlimit:4;stroke-dasharray:none;stroke-opacity:1;visibility:visible"/><path d="m189.064 187.352-13.376 16.168M178.386 213.556a41.575 41.575 0 0 0-4.256 10.026M170.994 210.458a51.063 51.063 0 0 0-4.29 10.472M112.798 145.79a11.568 11.568 0 0 0-5.333 4.67M118.325 151.35a6.747 6.747 0 0 0-3.316 2.912M118.884 144.705l-3.684.443M128.486 149.004a11.967 11.967 0 0 0-7.066-4.239M107.466 150.461l-54.289 85.265M61.035 239.897l53.974-85.637M187.328 210.474l13.697-16.8M170.53 209.97l.594.622.664.63.616.51.59.413.638.368.65.297.352.116M181.288 208l-.228-.034-.59-.164-.598-.252-.61-.338-.622-.427-.628-.515-.627-.605-.459-.5M175.986 213.254l4.559.574M181.754 213.86l.324-.022.704-.133.67-.215.658-.292.66-.378.647-.455.628-.528.61-.596.575-.644.098-.113M121.784 154.02l48.7 55.926M176.938 205.176l-48.453-56.172" style="fill:none;stroke:red;stroke-width:1.66133;stroke-linecap:round;stroke-linejoin:round;stroke-miterlimit:4;stroke-dasharray:none;stroke-opacity:1;visibility:visible"/><path d="M121.784 154.02a7.68 7.68 0 0 0-3.866-2.49" style="fill:none;stroke:red;stroke-width:1.66133;stroke-linecap:round;stroke-linejoin:round;stroke-miterlimit:4;stroke-dasharray:none;stroke-opacity:1;visibility:visible"/><path d="m145.008 325.66-.016-.05-.04-.035M137.464 322.996l-.13-.008-.084.009-.038.032M138.04 324.858l.053.036.036.026M144.952 325.573v.001M144.952 325.574l-2.387-1.761M142.546 326.524l-1.313-.966M141.901 323.584l-4.439-.59M141.232 325.56l-2.434-.33M142.565 323.814a1.769 1.769 0 0 0-.663-.23M141.232 325.56c.261-.643.488-1.303.668-1.976M53.184 235.725l-.101.025-.04.05M53.383 237.642l.034.035M59.525 240.572l.106-.002M61.025 239.898l.02-.024.003-.089-.053-.115-.063-.077M53.217 235.705a.037.037 0 0 0-.033.021M60.933 239.589l-.002.004M56.987 235.558c-.007-.008-.022-.013-.034-.013M57.595 235.862a.903.903 0 0 0-.608-.304M56.92 235.568l-3.737.158M56.293 238.14l-2.048.082M60.932 239.593l-3.328-3.683M58.121 240.158l-1.828-2.018M57.604 235.91a37.323 37.323 0 0 0-1.31 2.228M199.51 189.437a.213.213 0 0 0-.15-.122" style="fill:none;stroke:red;stroke-width:.663998;stroke-linecap:round;stroke-linejoin:round;stroke-miterlimit:4;stroke-dasharray:none;stroke-opacity:1;visibility:visible"/><path d="m145 325.627.006.008v.026l-.006.009M60.932 239.593l.056.07.037.065.025.062.002.058-.015.046-.032.036-.05.023-.066.01M57.54 235.853l.023.019M197.708 187.792l-4.284-.765-4.307-.907" style="fill:none;stroke:red;stroke-width:.663998;stroke-linecap:round;stroke-linejoin:round;stroke-miterlimit:4;stroke-dasharray:none;stroke-opacity:1;visibility:visible"/><path d="M115.201 145.15a8.93 8.93 0 0 0-2.343.612M121.354 144.759a8.864 8.864 0 0 0-4.801.557" style="fill:none;stroke:red;stroke-width:1.66133;stroke-linecap:round;stroke-linejoin:round;stroke-miterlimit:4;stroke-dasharray:none;stroke-opacity:1;visibility:visible"/><path d="m171.317 207.182.052.064.087.131.056.124.028.12-.004.109-.034.091-.066.079-.092.057-.122.041-.141.02-.159-.005-.174-.023-.182-.046-.186-.066-.188-.08-.18-.098-.166-.11-.157-.12-.132-.127-.108-.129-.085-.131-.054-.123-.022-.118.008-.106.037-.094.067-.076.097-.056.119-.038.144-.018.162.004.174.028.186.047.186.067.186.084.179.1.167.112.15.12.168.166M132.349 162.301l.056.069.093.138.064.136.035.128.001.121-.03.103-.06.09-.09.068-.118.046-.142.028-.158.001-.178-.021-.185-.044-.192-.064-.19-.084-.188-.103-.175-.113-.16-.128-.142-.136-.117-.137-.09-.14-.063-.135-.031-.129v-.12l.035-.099.062-.086.094-.066.12-.048.142-.023h.163l.177.023.188.048.19.066.194.085.184.102.176.118.159.129.176.176M167.653 196.582l-.877 1.656M166.562 198.27a.125.125 0 0 0 .172.024.13.13 0 0 0 .04-.056M166.562 198.27l-.272-.318M166.257 197.642a.292.292 0 0 0 .03.309M166.257 197.641l.876-1.659M167.346 195.956a.124.124 0 0 0-.173-.027.156.156 0 0 0-.04.053M167.346 195.956l.274.316M167.653 196.582a.301.301 0 0 0-.03-.309M170.446 202.21l-.142-.215-.094-.269-.028-.293.039-.287.097-.246.152-.182.186-.097.2-.003.194.094.166.178.12.247.061.283-.004.292-.071.27-.128.22-.17.142-.194.05-.2-.047-.184-.138M125.642 153.66l48.682 56.106M121.221 151.02a5.581 5.581 0 0 0-2.963.336" style="fill:none;stroke:red;stroke-width:.663998;stroke-linecap:round;stroke-linejoin:round;stroke-miterlimit:4;stroke-dasharray:none;stroke-opacity:1;visibility:visible"/><path d="M174.706 212.942a4.06 4.06 0 0 0 1.316.304M187.328 210.474l-.004.003M179.206 213.481a5.299 5.299 0 0 0 2.474.373" style="fill:none;stroke:red;stroke-width:1.66133;stroke-linecap:round;stroke-linejoin:round;stroke-miterlimit:4;stroke-dasharray:none;stroke-opacity:1;visibility:visible"/><path d="M175.922 203.482a.22.22 0 0 0-.234.038M174.476 212.858a49.51 49.51 0 0 0-3.21 8.343M175.706 203.748l.215-.264M171.266 221.201 141.94 323.55M180.436 204.944a.055.055 0 0 0-.067.01M142.546 326.524l.347.101.103.02M138.129 324.92l.3.17.37.14M141.901 323.584l.003-.008.004-.011.01-.013a.05.05 0 0 1 .012-.006M142.565 323.794v.022M53.417 237.676c.234.24.516.426.828.546M58.121 240.158a2.8 2.8 0 0 0 1.404.414M56.952 235.545a.036.036 0 0 0-.032.023M57.613 235.893c-.002.008-.01.017-.01.017M191.34 201.17l.224-.28.25-.19.25-.088.245.024.203.134.16.231.1.316.034.37-.034.403-.1.404-.16.376-.204.318-.243.237-.25.141-.25.032-.225-.078-.184-.187-.131-.275-.07-.345v-.392l.068-.407.13-.394.187-.35M174.324 209.766l.746.815.75.735.777.66.783.573 1.486.813.342.12M167.144 195.97l.202-.014M166.774 198.238l-.224.016M166.236 197.85l.317.365M121.784 154.02a.179.179 0 0 0 .168.047M125.642 153.66a7.493 7.493 0 0 0-4.421-2.64M116.553 145.316a11.69 11.69 0 0 0-5.264 4.643M107.612 150.383a.188.188 0 0 0-.146.08M56.985 235.556l-.032.05M111.29 149.959l-54.305 85.598" style="fill:none;stroke:red;stroke-width:.663998;stroke-linecap:round;stroke-linejoin:round;stroke-miterlimit:4;stroke-dasharray:none;stroke-opacity:1;visibility:visible"/><path d="M187.328 210.474a.206.206 0 0 0 .008-.204" style="fill:none;stroke:red;stroke-width:1.66133;stroke-linecap:round;stroke-linejoin:round;stroke-miterlimit:4;stroke-dasharray:none;stroke-opacity:1;visibility:visible"/><path d="m199.32 189.308-13.88 16.95M181.5 205.21l13.674-16.63M179.058 207.072a5.5 5.5 0 0 0 2.443-1.862M185.44 206.258l-.914.906-.801.5-.845.298-.958.098-.634-.078" style="fill:none;stroke:red;stroke-width:.663998;stroke-linecap:round;stroke-linejoin:round;stroke-miterlimit:4;stroke-dasharray:none;stroke-opacity:1;visibility:visible"/><path d="m200.406 181.97-.842-.221" style="fill:none;stroke:red;stroke-width:.663998;stroke-linecap:round;stroke-linejoin:round;stroke-miterlimit:4;stroke-dasharray:.871998;stroke-dashoffset:0;stroke-opacity:1;visibility:visible"/><path d="M199.564 181.748a.143.143 0 0 0-.14.047" style="fill:none;stroke:red;stroke-width:.663998;stroke-linecap:round;stroke-linejoin:round;stroke-miterlimit:4;stroke-dasharray:.150666;stroke-dashoffset:0;stroke-opacity:1;visibility:visible"/><path d="m217.002 153.432-.847 1.024" style="fill:none;stroke:red;stroke-width:.663998;stroke-linecap:round;stroke-linejoin:round;stroke-miterlimit:4;stroke-dasharray:none;stroke-opacity:1;visibility:visible"/><path d="m214.483 156.487-22.598 27.398" style="fill:none;stroke:red;stroke-width:.663998;stroke-linecap:round;stroke-linejoin:round;stroke-miterlimit:4;stroke-dasharray:2.63066,2.63066;stroke-dashoffset:0;stroke-opacity:1;visibility:visible"/><path d="m203.322 182.407.843-1.028" style="fill:none;stroke:red;stroke-width:.663998;stroke-linecap:round;stroke-linejoin:round;stroke-miterlimit:4;stroke-dasharray:none;stroke-opacity:1;visibility:visible"/><path d="m205.789 179.393 15.441-18.862" style="fill:none;stroke:red;stroke-width:.663998;stroke-linecap:round;stroke-linejoin:round;stroke-miterlimit:4;stroke-dasharray:2.56666,2.56666;stroke-dashoffset:0;stroke-opacity:1;visibility:visible"/><path d="m205.725 187.985.84-1.03M222.042 159.537l.843-1.027" style="fill:none;stroke:red;stroke-width:.663998;stroke-linecap:round;stroke-linejoin:round;stroke-miterlimit:4;stroke-dasharray:none;stroke-opacity:1;visibility:visible"/><path d="m199.492 181.781.864.226" style="fill:none;stroke:red;stroke-width:.663998;stroke-linecap:round;stroke-linejoin:round;stroke-miterlimit:4;stroke-dasharray:.893331;stroke-dashoffset:0;stroke-opacity:1;visibility:visible"/><path d="m195.289 186.828.844-1.028M219.822 154.015l1.292.314M217.24 153.385l1.29.315" style="fill:none;stroke:red;stroke-width:.663998;stroke-linecap:round;stroke-linejoin:round;stroke-miterlimit:4;stroke-dasharray:none;stroke-opacity:1;visibility:visible"/><path d="m197.776 183.801 22.178-27.005" style="fill:none;stroke:red;stroke-width:.663998;stroke-linecap:round;stroke-linejoin:round;stroke-miterlimit:4;stroke-dasharray:2.58799,2.58799;stroke-dashoffset:0;stroke-opacity:1;visibility:visible"/><path d="m222.447 157.053.454 1.25M221.62 154.77l.452 1.248M220.777 155.796l.843-1.026" style="fill:none;stroke:red;stroke-width:.663998;stroke-linecap:round;stroke-linejoin:round;stroke-miterlimit:4;stroke-dasharray:none;stroke-opacity:1;visibility:visible"/><path d="M221.62 154.77a.777.777 0 0 0-.508-.44" style="fill:none;stroke:red;stroke-width:.663998;stroke-linecap:round;stroke-linejoin:round;stroke-miterlimit:4;stroke-dasharray:.686665;stroke-dashoffset:0;stroke-opacity:1;visibility:visible"/><path d="M217.24 153.385a.221.221 0 0 0-.239.047" style="fill:none;stroke:red;stroke-width:.663998;stroke-linecap:round;stroke-linejoin:round;stroke-miterlimit:4;stroke-dasharray:.251999;stroke-dashoffset:0;stroke-opacity:1;visibility:visible"/><path d="M222.885 158.51a.21.21 0 0 0 .015-.207" style="fill:none;stroke:red;stroke-width:.663998;stroke-linecap:round;stroke-linejoin:round;stroke-miterlimit:4;stroke-dasharray:.213333;stroke-dashoffset:0;stroke-opacity:1;visibility:visible"/><path d="m196.5 186.985.842-1.025" style="fill:none;stroke:red;stroke-width:.663998;stroke-linecap:round;stroke-linejoin:round;stroke-miterlimit:4;stroke-dasharray:none;stroke-opacity:1;visibility:visible"/><path d="m198.213 184.896 1.306-1.593" style="fill:none;stroke:red;stroke-width:.663998;stroke-linecap:round;stroke-linejoin:round;stroke-miterlimit:4;stroke-dasharray:1.37333,1.37333;stroke-dashoffset:0;stroke-opacity:1;visibility:visible"/><path d="m204.535 187.276-.01.012-.146.072-.133-.02-.104-.104-.06-.176-.001-.22.052-.23.1-.202M204.233 186.407l.13-.15.141-.07.136.021.103.104.06.176.003.219-.052.229-.021.044M205.7 184.46l-.47-1.243M206.571 186.75l-.471-1.241M201.606 186.568l-.841 1.028M204.711 182.77l-.84 1.026M202.083 182.081l-1.286-.336M204.711 182.77l-1.286-.338M199.956 182.772l.842-1.027" style="fill:none;stroke:red;stroke-width:.663998;stroke-linecap:round;stroke-linejoin:round;stroke-miterlimit:4;stroke-dasharray:none;stroke-opacity:1;visibility:visible"/><path d="M205.229 183.217a.824.824 0 0 0-.519-.447" style="fill:none;stroke:red;stroke-width:.663998;stroke-linecap:round;stroke-linejoin:round;stroke-miterlimit:4;stroke-dasharray:.699998;stroke-dashoffset:0;stroke-opacity:1;visibility:visible"/><path d="M200.798 181.745a.21.21 0 0 0-.238.039" style="fill:none;stroke:red;stroke-width:.663998;stroke-linecap:round;stroke-linejoin:round;stroke-miterlimit:4;stroke-dasharray:.253333;stroke-dashoffset:0;stroke-opacity:1;visibility:visible"/><path d="m204.35 186.27.17.042" style="fill:none;stroke:red;stroke-width:.663998;stroke-linecap:round;stroke-linejoin:round;stroke-miterlimit:4;stroke-dasharray:.174666;stroke-dashoffset:0;stroke-opacity:1;visibility:visible"/><path d="M206.565 186.956a.21.21 0 0 0 .005-.204" style="fill:none;stroke:red;stroke-width:.663998;stroke-linecap:round;stroke-linejoin:round;stroke-miterlimit:4;stroke-dasharray:.210666;stroke-dashoffset:0;stroke-opacity:1;visibility:visible"/><path d="M204.174 187.279a.787.787 0 0 0 .284-1.076" style="fill:none;stroke:red;stroke-width:.663998;stroke-linecap:round;stroke-linejoin:round;stroke-miterlimit:4;stroke-dasharray:1.228;stroke-dashoffset:0;stroke-opacity:1;visibility:visible"/><path d="m200.371 182.016-.015-.008" style="fill:none;stroke:red;stroke-width:.663998;stroke-linecap:round;stroke-linejoin:round;stroke-miterlimit:4;stroke-dasharray:.0173333;stroke-dashoffset:0;stroke-opacity:1;visibility:visible"/><path d="M199.492 181.781a.06.06 0 0 0-.067.012" style="fill:none;stroke:red;stroke-width:.663998;stroke-linecap:round;stroke-linejoin:round;stroke-miterlimit:4;stroke-dasharray:.0693332;stroke-dashoffset:0;stroke-opacity:1;visibility:visible"/><path d="M199.564 181.748a.084.084 0 0 0-.074.032" style="fill:none;stroke:red;stroke-width:.663998;stroke-linecap:round;stroke-linejoin:round;stroke-miterlimit:4;stroke-dasharray:.0826665;stroke-dashoffset:0;stroke-opacity:1;visibility:visible"/><path d="M200.402 181.973a.097.097 0 0 0-.046.034" style="fill:none;stroke:red;stroke-width:.663998;stroke-linecap:round;stroke-linejoin:round;stroke-miterlimit:4;stroke-dasharray:.0573332;stroke-dashoffset:0;stroke-opacity:1;visibility:visible"/><path d="M131.164 157.904h.256l.228-.135.174-.256.099-.346.012-.4-.075-.405-.153-.367-.216-.29-.25-.175-.264-.045-.241.095-.192.217-.122.323-.04.388.045.412.135.384.197.316.243.213.164.07M115.044 150.967h.256l.226-.137.176-.254.099-.347.01-.398-.072-.407-.155-.367-.214-.289-.25-.176-.264-.044-.24.092-.196.22-.122.323-.038.387.044.41.136.385.196.318.244.213.164.07M192.03 202.67l-.25-.392.174-.578.342-.19M195.289 186.828l-1.273 1.547" style="fill:none;stroke:red;stroke-width:.663998;stroke-linecap:round;stroke-linejoin:round;stroke-miterlimit:4;stroke-dasharray:none;stroke-opacity:1;visibility:visible"/><path d="m191.885 183.885-2.821 3.467M200.765 187.596l.26 6.078M181.288 207.982l-.743 5.846" style="fill:none;stroke:red;stroke-width:1.66133;stroke-linecap:round;stroke-linejoin:round;stroke-miterlimit:4;stroke-dasharray:none;stroke-opacity:1;visibility:visible"/><path d="m199.36 189.315-1.652-1.523M199.564 181.748l-10.447 4.372M170.484 209.946l.833-2.764M170.53 209.97l.788-2.788M125.642 153.66l6.707 8.641M125.642 153.66l6.707 8.64M166.562 198.27l3.884 3.94M187.328 210.484l4.012-9.314M187.328 210.474l4.012-9.304M195.289 186.828l-.115 1.752M214.483 156.487l1.672-2.031" style="fill:none;stroke:red;stroke-width:.663998;stroke-linecap:round;stroke-linejoin:round;stroke-miterlimit:4;stroke-dasharray:none;stroke-opacity:1;visibility:visible"/><path d="m216.155 154.456-1.672 2.031M189.064 187.352l2.821-3.467" style="fill:none;stroke:red;stroke-width:.663998;stroke-linecap:round;stroke-linejoin:round;stroke-miterlimit:4;stroke-dasharray:2.63066,2.63066;stroke-dashoffset:0;stroke-opacity:1;visibility:visible"/><path d="m203.871 183.796.294-2.417" style="fill:none;stroke:red;stroke-width:.663998;stroke-linecap:round;stroke-linejoin:round;stroke-miterlimit:4;stroke-dasharray:none;stroke-opacity:1;visibility:visible"/><path d="m204.165 181.379 1.624-1.986M222.042 159.537l-.812.994" style="fill:none;stroke:red;stroke-width:.663998;stroke-linecap:round;stroke-linejoin:round;stroke-miterlimit:4;stroke-dasharray:2.56666,2.56666;stroke-dashoffset:0;stroke-opacity:1;visibility:visible"/><path d="m204.535 187.276 1.19.709M221.23 160.531l.812-.994M195.174 188.58l.115-1.752M196.5 186.985l-.367-1.185M218.53 153.7l1.292.315M219.822 154.015l-1.292-.315" style="fill:none;stroke:red;stroke-width:.663998;stroke-linecap:round;stroke-linejoin:round;stroke-miterlimit:4;stroke-dasharray:none;stroke-opacity:1;visibility:visible"/><path d="m199.519 183.303-1.743.498M220.777 155.796l-.823 1" style="fill:none;stroke:red;stroke-width:.663998;stroke-linecap:round;stroke-linejoin:round;stroke-miterlimit:4;stroke-dasharray:2.58799,2.58799;stroke-dashoffset:0;stroke-opacity:1;visibility:visible"/><path d="m222.072 156.018.375 1.035M222.447 157.053l-.375-1.035M219.954 156.796l.823-1M196.133 185.8l.367 1.185M198.213 184.896l-.871 1.064" style="fill:none;stroke:red;stroke-width:.663998;stroke-linecap:round;stroke-linejoin:round;stroke-miterlimit:4;stroke-dasharray:none;stroke-opacity:1;visibility:visible"/><path d="m197.342 185.96.871-1.064" style="fill:none;stroke:red;stroke-width:.663998;stroke-linecap:round;stroke-linejoin:round;stroke-miterlimit:4;stroke-dasharray:1.37333,1.37333;stroke-dashoffset:0;stroke-opacity:1;visibility:visible"/><path d="m206.1 185.509-.4-1.049M205.7 184.46l.4 1.049M204.233 186.407l-2.627.161M199.32 189.308l1.445-1.712M204.165 181.379l-.294 2.417M203.425 182.432l-1.342-.351M107.612 150.383l7.432.584M204.174 187.279l-11.878 14.231" style="fill:none;stroke:red;stroke-width:.663998;stroke-linecap:round;stroke-linejoin:round;stroke-miterlimit:4;stroke-dasharray:none;stroke-opacity:1;visibility:visible"/><path d="m290.893 137.052-.663.297M290.182 137.379l-1.742.781-1.933.868-2.126.935-2.327 1.002-2.53 1.047-2.269.892-2.428.896-2.594.873-2.78.822-2.986.734-3.049.551M291.91 136.584l-1.024.465M301.623 144.69l.35-.967.186-.743.075-.543.015-.377-.022-.355-.08-.422-.177-.443-.29-.4M297.786 136.453l-.326-.28-.421-.246-.529-.187-.65-.1-.787.01-.918.154-1.055.305-1.202.491M301.68 140.44l-3.898-3.99M203.003 191.03l2.037.34 1.793.281 1.542.234 1.295.183 1.039.138.928.121.946.108.96.107 3.075.295 3.088.213 2.616.11 2.573.05 2.34-.013.8-.014 1.005-.029 1.23-.049 1.443-.075 1.662-.114 1.88-.16 1.888-.203M237.146 192.553l1.297-.161 1.302-.18 1.108-.17.917-.152.725-.126.54-.096.476-.088.972-.188 1.107-.224 1.21-.264 3.112-.755 2.942-.813 1.107-.333 1.106-.348 1.143-.375 1.176-.4 1.217-.435 1.151-.425.484-.185.425-.162.363-.141.31-.123.41-.164.579-.23.917-.375 1.155-.487 1.397-.6 1.633-.721 1.878-.85M274.002 184.235l1.1 1.149M275.102 185.383a1.664 1.664 0 0 0 1.883.189M269.303 182.983l.608-.188.575-.056.507.02.49.08.474.127.556.219.71.4.392.29.386.36M286.857 180.325l14.766-35.634M276.986 185.572l4.264-2.065 5.073-2.61M286.323 180.897a1.173 1.173 0 0 0 .542-.59" style="fill:none;stroke:#00ff4a;stroke-width:1.66133;stroke-linecap:round;stroke-linejoin:round;stroke-miterlimit:4;stroke-dasharray:none;stroke-opacity:1;visibility:visible"/><path d="M203.003 191.03a1.543 1.543 0 0 0-1.573.39M290.23 137.356l-.033.015" style="fill:none;stroke:#00ff4a;stroke-width:.663998;stroke-linecap:round;stroke-linejoin:round;stroke-miterlimit:4;stroke-dasharray:none;stroke-opacity:1;visibility:visible"/><path d="m232.426 145.921-1.186-.117M233.233 146.005l-.038-.002M233.197 145.996l-.767-.07M231.24 145.812l-1.528-.065-1.471.088-1.394.208-1.282.294-1.495.471-1.268.513-1.017.499-.792.447-.6.377-.627.439-.723.565-.776.707-.796.865M263.422 146.781l-2.69.32-2.694.183-2.491.079-2.27.004-2.04-.04-1.807-.059-1.572-.075-1.433-.082-1.636-.103-1.864-.136-2.092-.17-2.315-.199-2.533-.237-2.755-.259M188.313 187.27l.253.68M188.46 186.247a1.04 1.04 0 0 0-.147 1.023M200.937 194.612a.987.987 0 0 0 .905-.167M200.356 194.493l.58.119M217.471 151.219l-29.011 35.026M201.842 194.445l2.435-3.205" style="fill:none;stroke:#00ff4a;stroke-width:1.66133;stroke-linecap:round;stroke-linejoin:round;stroke-miterlimit:4;stroke-dasharray:none;stroke-opacity:1;visibility:visible"/><path d="M281.567 175.913a.527.527 0 0 0-.581-.132M285.626 180.137l-4.059-4.224M285.626 180.137l.074.106.033.112-.013.105-.06.085-.061.046M275.41 185.26a.53.53 0 0 0 .561.143M275.41 185.26l-4.401-4.603M201.18 194.102l-1.67-4.664M188.786 187.687l-.052-.147M188.94 187.325l-.097-.005-.078.023-.041.057-.008.083.018.057M197.565 189.013l-4.319-.777-4.305-.91M199.362 189.316l-1.796-.303M272.35 178.52l4.112-1.892 4.11-2.06M280.571 174.57l15.222-35.116M295.791 139.453l.379-1.093.11-.917-.167-.7-.434-.473-.689-.221-.927.028-1.129.278-1.307.521M282.509 174.992l4.053 4.221M271.018 180.508l-.024.017-.015.027-.005.036.01.035.026.036M271.018 180.508l1.707-.763" style="fill:none;stroke:#00ff4a;stroke-width:.663998;stroke-linecap:round;stroke-linejoin:round;stroke-miterlimit:4;stroke-dasharray:none;stroke-opacity:1;visibility:visible"/><path d="m272.725 179.745 4.149-1.904 4.113-2.06M201.442 191.428l.021-.035M201.757 194.03l-.417-1.164M200.285 188.228l-2.576-.436M235.973 190.041l-2.86.294-3 .215-2.96.126-2.975.041-2.95-.044-2.936-.13-3.573-.263-3.705-.4-3.523-.473-3.568-.562-3.637-.617" style="fill:none;stroke:#00ff4a;stroke-width:.663998;stroke-linecap:round;stroke-linejoin:round;stroke-miterlimit:4;stroke-dasharray:none;stroke-opacity:1;visibility:visible"/><path d="m275.515 178.459.038.04.17.229.12.27.051.266-.02.244-.095.18-.149.104-.195.01-.212-.088-.202-.167-.171-.232-.12-.267-.045-.21M269.902 179.619l2.448-1.1M235.973 190.041l2.844-.385 2.956-.496 2.89-.57 2.884-.669 2.833-.744 2.79-.826 3.363-1.123 3.446-1.29 3.255-1.338 3.287-1.445 3.381-1.538M282.509 174.992a1.713 1.713 0 0 0-1.939-.424M271.097 180.473l-.088.187M280.189 176.183l-4.219 9.22M285.6 180.59l.117-.284M286.835 180.31a.923.923 0 0 0-.274-1.094" style="fill:none;stroke:#00ff4a;stroke-width:.663998;stroke-linecap:round;stroke-linejoin:round;stroke-miterlimit:4;stroke-dasharray:none;stroke-opacity:1;visibility:visible"/><path d="m290.893 137.073-.056.012-.237.255M291.903 136.613l-.05.014-.226.248" style="fill:none;stroke:#00ff4a;stroke-width:1.66133;stroke-linecap:round;stroke-linejoin:round;stroke-miterlimit:4;stroke-dasharray:none;stroke-opacity:1;visibility:visible"/><path d="m188.733 187.54.167-.201.013-.016M189.117 186.12l-.217-.032-.175.01-.253.134-.008.017M201.83 194.436a.588.588 0 0 0-.073-.407M201.442 191.428a1.44 1.44 0 0 0-.101 1.439M262.98 147.024l.36-.22h.08M191.05 184.9l-.846 1.024M204.374 189.643l.84-1.03" style="fill:none;stroke:#00ff4a;stroke-width:.663998;stroke-linecap:round;stroke-linejoin:round;stroke-miterlimit:4;stroke-dasharray:none;stroke-opacity:1;visibility:visible"/><path d="m204.374 189.643-.097 1.597" style="fill:none;stroke:#00ff4a;stroke-width:1.66133;stroke-linecap:round;stroke-linejoin:round;stroke-miterlimit:4;stroke-dasharray:none;stroke-opacity:1;visibility:visible"/><path d="m197.565 189.013.144-1.221M274.001 184.235l1.514-5.776M188.46 186.245l2.59-1.345M188.46 186.247l1.744-.323M204.277 191.24l.097-1.597M201.842 194.445l3.372-5.832" style="fill:none;stroke:#00ff4a;stroke-width:.663998;stroke-linecap:round;stroke-linejoin:round;stroke-miterlimit:4;stroke-dasharray:none;stroke-opacity:1;visibility:visible"/><path d="m115.044 150.967 16.12 6.937M201.757 194.029l-9.727 8.641" style="fill:none;stroke:red;stroke-width:.663998;stroke-linecap:round;stroke-linejoin:round;stroke-miterlimit:4;stroke-dasharray:none;stroke-opacity:1;visibility:visible"/></svg>