<svg xmlns="http://www.w3.org/2000/svg" baseProfile="full" height="793.701" preserveAspectRatio="xMinYMin meet" style="width:912px;height:1303px" width="559.371" xml:space="preserve"><path d="m274.486 205.686.195-.04M275.72 195.77l.004-.334" style="fill:none;stroke:red;stroke-width:.663998;stroke-linecap:round;stroke-linejoin:round;stroke-miterlimit:4;stroke-dasharray:none;stroke-opacity:1;visibility:visible"/><path d="m374.451 178.59-5.331-23.268" style="fill:none;stroke:red;stroke-width:1.66133;stroke-linecap:round;stroke-linejoin:round;stroke-miterlimit:4;stroke-dasharray:none;stroke-opacity:1;visibility:visible"/><path d="m375.867 198.822.027-.264" style="fill:none;stroke:red;stroke-width:.663998;stroke-linecap:round;stroke-linejoin:round;stroke-miterlimit:4;stroke-dasharray:none;stroke-opacity:1;visibility:visible"/><path d="m266.642 169.744-.185 25.624M365.031 233.492l-5.321 54.677M368.136 201.621l-2.613 26.847-.49 5.024M375.867 198.822l-2.84 28.203-.504 5.005M366.68 290.056l5.842-58.027M376.062 189.961a66.263 66.263 0 0 0-1.612-11.371" style="fill:none;stroke:red;stroke-width:1.66133;stroke-linecap:round;stroke-linejoin:round;stroke-miterlimit:4;stroke-dasharray:none;stroke-opacity:1;visibility:visible"/><path d="m274.887 195.441.188-25.785" style="fill:none;stroke:red;stroke-width:.663998;stroke-linecap:round;stroke-linejoin:round;stroke-miterlimit:4;stroke-dasharray:none;stroke-opacity:1;visibility:visible"/><path d="M264.982 215.308a142.533 142.533 0 0 0 1.476-19.94" style="fill:none;stroke:red;stroke-width:1.66133;stroke-linecap:round;stroke-linejoin:round;stroke-miterlimit:4;stroke-dasharray:none;stroke-opacity:1;visibility:visible"/><path d="M274.475 205.78c.256-3.44.395-6.89.415-10.34" style="fill:none;stroke:red;stroke-width:.663998;stroke-linecap:round;stroke-linejoin:round;stroke-miterlimit:4;stroke-dasharray:none;stroke-opacity:1;visibility:visible"/><path d="m265.773 110.295-.7 58.59M258.413 314.62l14.884-98.2M264.982 215.308l-14.57 98.32M273.297 216.421c.52-3.536.913-7.084 1.178-10.641" style="fill:none;stroke:red;stroke-width:1.66133;stroke-linecap:round;stroke-linejoin:round;stroke-miterlimit:4;stroke-dasharray:none;stroke-opacity:1;visibility:visible"/><path d="m276.414 169.636.079-.003" style="fill:none;stroke:red;stroke-width:.663998;stroke-linecap:round;stroke-linejoin:round;stroke-miterlimit:4;stroke-dasharray:none;stroke-opacity:1;visibility:visible"/><path d="m273.39 98.532-1.181.185-1.006.37-.853.481-.7.536-.732.721-.576.708-.439.652-.417.722-.455.965-.457 1.238-.303 1.095-.249 1.226-.172 1.365-.077 1.499" style="fill:none;stroke:red;stroke-width:1.66133;stroke-linecap:round;stroke-linejoin:round;stroke-miterlimit:4;stroke-dasharray:none;stroke-opacity:1;visibility:visible"/><path d="m276.482 169.633.301-.008M276.782 169.625l1.308-.03 1.604-.058" style="fill:none;stroke:red;stroke-width:.663998;stroke-linecap:round;stroke-linejoin:round;stroke-miterlimit:4;stroke-dasharray:none;stroke-opacity:1;visibility:visible"/><path d="m426.764 203.684-52.794-14.287M376.804 197.976l45.796 12.838M429.938 223.038a16.087 16.087 0 0 0-.296-2.17M422.6 210.813l.304.097.608.251.602.337.596.42.589.493.575.573.549.641.53.705.497.764.464.822.249.506s1.199 2.772 1.496 4.452M438.47 222.65l-.053-.647-.142-1.234-.207-1.235-.261-1.232-.312-1.225-.37-1.204-.421-1.181-.471-1.15-.514-1.118-.563-1.071-.601-1.027-.639-.972-.676-.913-.708-.85-.732-.783-.757-.708-.776-.637-.793-.549-.808-.47-.812-.384-.816-.295-.275-.08M429.938 223.038l7.597 106.387M445.884 329.186l-7.412-106.536M369.148 155.316l.352-.136.307-.205.125-.152.088-.18.04-.204-.018-.21M356.404 158.48l2.912-.69M359.316 157.79l5.2-1.288 4.63-1.185M343.007 91.227l-2.192.313M347.332 91.253l-2.149-.126M357.72 100.43l-.477-1.599-.63-1.409-.739-1.23-.8-1.044-1.11-1.117-1.084-.851-1-.612-.882-.428-.739-.288-.616-.195-1.045-.249-1.27-.155M370.04 154.23l-12.32-53.8M317.131 166.001a510.932 510.932 0 0 0 39.275-7.521M282.147 169.452a327.72 327.72 0 0 0 34.984-3.45M279.695 169.537l2.455-.084M265.071 168.885a.853.853 0 0 0 .912.856" style="fill:none;stroke:red;stroke-width:1.66133;stroke-linecap:round;stroke-linejoin:round;stroke-miterlimit:4;stroke-dasharray:none;stroke-opacity:1;visibility:visible"/><path d="m367.84 180.792-5.31-23.032" style="fill:none;stroke:red;stroke-width:.663998;stroke-linecap:round;stroke-linejoin:round;stroke-miterlimit:4;stroke-dasharray:none;stroke-opacity:1;visibility:visible"/><path d="m360.807 181.95.207.85.245.919.283.958.305.955.336.943.359.925.378.897.406.863.42.812.461.81.496.779.527.753.562.709.6.657.374.354" style="fill:none;stroke:red;stroke-width:1.66133;stroke-linecap:round;stroke-linejoin:round;stroke-miterlimit:4;stroke-dasharray:none;stroke-opacity:1;visibility:visible"/><path d="m370.311 186.347-.439-.671-.408-.71-.368-.744-.329-.759-.256-.684-.24-.739-.225-.823-.107-.426" style="fill:none;stroke:red;stroke-width:.663998;stroke-linecap:round;stroke-linejoin:round;stroke-miterlimit:4;stroke-dasharray:none;stroke-opacity:1;visibility:visible"/><path d="m280.222 195.78.193-26.268M285.303 204.63l-.569-.22-.503-.269-.513-.337-.561-.454-.53-.52-.436-.517-.391-.557-.345-.583-.305-.607-.253-.629-.231-.713-.188-.752-.133-.77-.082-.705-.033-.752-.005-.465M274.486 205.686l.068.118.565.878.603.826.637.764.661.696.674.616.579.458.602.404.62.344.66.307.285.113M335.089 220.824l-49.799-16.196M280.45 211.245l49.568 16.687M330.017 227.932l.28.105.558.281.552.367.543.456.528.537.51.618.485.693.462.765.427.827.39.887.354.936.308.978.266 1.011.212 1.037.163 1.05.112 1.062.057 1.054.008.56M345.186 241.422l-.008-.696-.058-1.325-.117-1.33-.17-1.326-.223-1.319-.276-1.3-.327-1.276-.379-1.246-.422-1.208-.474-1.162-.516-1.114-.554-1.058-.596-.994-.624-.928-.659-.854-.69-.776-.713-.7-.737-.612-.752-.52-.765-.428-.774-.336-.262-.089M336.232 241.156l.278 114.983M345.296 356.542l-.112-115.122M355.426 158.705l5.382 23.243M373.994 189.385l-.41-.138-.494-.222-.418-.248-.474-.35-.454-.391-.492-.501-.482-.566-.46-.621" style="fill:none;stroke:red;stroke-width:1.66133;stroke-linecap:round;stroke-linejoin:round;stroke-miterlimit:4;stroke-dasharray:none;stroke-opacity:1;visibility:visible"/><path d="M376.612 193.832c0 .273.148.525.395.652M376.662 196.682l1.734.484M379.42 197.152l.028-.006M379.304 194.856l-.484.112M378.692 194.916a.105.105 0 0 0 .128.05M378.76 194.968l-1.77-.49M290.471 205.866l-.945.104M289.523 205.974l-.05.016M376.584 198.236a.44.44 0 0 0 .244-.479M376.503 198.276l.077-.032M376.828 197.758l-.038-.758M376.831 196.73a.497.497 0 0 0-.041.268M376.612 196.682l.02-.002.023.01" style="fill:none;stroke:red;stroke-width:.663998;stroke-linecap:round;stroke-linejoin:round;stroke-miterlimit:4;stroke-dasharray:none;stroke-opacity:1;visibility:visible"/><path d="m376.615 193.864-.044-.764s-.128-.509-.457-.629M275.695 195.439l-.005.283v.046M292.386 206.13l-.024-.006-.007-.006" style="fill:none;stroke:red;stroke-width:.663998;stroke-linecap:round;stroke-linejoin:round;stroke-miterlimit:4;stroke-dasharray:none;stroke-opacity:1;visibility:visible"/><path d="M359.711 288.169a.143.143 0 0 0 .033.1M366.394 290.24a.287.287 0 0 0 .285-.182M359.746 288.269l1.71 2.359M361.455 290.626a.684.684 0 0 0 .593.176M362.05 290.802l4.345-.562" style="fill:none;stroke:red;stroke-width:1.66133;stroke-linecap:round;stroke-linejoin:round;stroke-miterlimit:4;stroke-dasharray:none;stroke-opacity:1;visibility:visible"/><path d="m268.714 217.462-14.757 98.522M268.714 217.462a157.24 157.24 0 0 0 1.653-22.032" style="fill:none;stroke:red;stroke-width:.663998;stroke-linecap:round;stroke-linejoin:round;stroke-miterlimit:4;stroke-dasharray:none;stroke-opacity:1;visibility:visible"/><path d="M258.265 314.76a.197.197 0 0 0 .148-.14M250.41 313.629a.213.213 0 0 0 .133.195M258.265 314.76l-3.616 1.305M253.955 315.982a.865.865 0 0 0 .692.082M253.955 315.982l-3.412-2.16" style="fill:none;stroke:red;stroke-width:1.66133;stroke-linecap:round;stroke-linejoin:round;stroke-miterlimit:4;stroke-dasharray:none;stroke-opacity:1;visibility:visible"/><path d="m279.466 99.73 1.079-.063M272.378 110.18l.143-2.013.397-1.93.636-1.769.867-1.564 1.053-1.287 1.223-.985 1.34-.632 1.429-.271M271.955 168.823l.423-58.643" style="fill:none;stroke:red;stroke-width:.663998;stroke-linecap:round;stroke-linejoin:round;stroke-miterlimit:4;stroke-dasharray:none;stroke-opacity:1;visibility:visible"/><path d="m266.071 169.752.052.001h.058M266.186 169.748l-.081.001-.045.002h.003M266.18 169.755l.464-.002" style="fill:none;stroke:red;stroke-width:1.66133;stroke-linecap:round;stroke-linejoin:round;stroke-miterlimit:4;stroke-dasharray:none;stroke-opacity:1;visibility:visible"/><path d="m281.278 99.623 4.59-.27 4.618-.26 4.663-.289 3.557-.253 3.634-.298 3.729-.349 3.86-.394M281.245 99.625l.033-.002M280.546 99.668l.697-.043" style="fill:none;stroke:red;stroke-width:.663998;stroke-linecap:round;stroke-linejoin:round;stroke-miterlimit:4;stroke-dasharray:none;stroke-opacity:1;visibility:visible"/><path d="M281.213 169.499h-.043M280.413 169.517l.757-.02" style="fill:none;stroke:red;stroke-width:1.66133;stroke-linecap:round;stroke-linejoin:round;stroke-miterlimit:4;stroke-dasharray:none;stroke-opacity:1;visibility:visible"/><path d="M271.353 169.683c-.267.001-.538.005-.807.009M271.353 169.684a.765.765 0 0 0 .601-.861" style="fill:none;stroke:red;stroke-width:.663998;stroke-linecap:round;stroke-linejoin:round;stroke-miterlimit:4;stroke-dasharray:none;stroke-opacity:1;visibility:visible"/><path d="m271.353 169.684 3.989-.03 4.25-.099M266.097 169.756l-.077-.001h-.051l-.036-.002.044-.001.125-.003M266.642 169.757l-.545-.001M266.102 169.748l4.444-.058" style="fill:none;stroke:red;stroke-width:1.66133;stroke-linecap:round;stroke-linejoin:round;stroke-miterlimit:4;stroke-dasharray:none;stroke-opacity:1;visibility:visible"/><path d="M271.237 169.684c-.2 0-.403.001-.604.005" style="fill:none;stroke:red;stroke-width:.663998;stroke-linecap:round;stroke-linejoin:round;stroke-miterlimit:4;stroke-dasharray:none;stroke-opacity:1;visibility:visible"/><path d="M275.186 98.432a614.562 614.562 0 0 0 30.463-2.504M275.166 98.432h.021M273.45 98.521l1.716-.089M276.414 169.63l-1.095.022-4.082.033M266.186 169.748l4.447-.058" style="fill:none;stroke:red;stroke-width:1.66133;stroke-linecap:round;stroke-linejoin:round;stroke-miterlimit:4;stroke-dasharray:none;stroke-opacity:1;visibility:visible"/><path d="m343.682 93-.024.004-.023.003M343.635 93.007l-5.724.818-5.719.832-5.69.808-4.235.575-4.193.535-4.128.492-4.017.443" style="fill:none;stroke:red;stroke-width:.663998;stroke-linecap:round;stroke-linejoin:round;stroke-miterlimit:4;stroke-dasharray:none;stroke-opacity:1;visibility:visible"/><path d="m340.795 91.54-6.063.844-6.009.803-5.945.76-5.832.712-5.71.661-5.586.61" style="fill:none;stroke:red;stroke-width:1.66133;stroke-linecap:round;stroke-linejoin:round;stroke-miterlimit:4;stroke-dasharray:none;stroke-opacity:1;visibility:visible"/><path d="m344.548 92.876-.866.124M356.272 98.903l-.892-1.696-1.158-1.49-1.404-1.249-1.578-.95-1.729-.635-1.791-.278-1.829.08M345.891 92.685l-1.343.195" style="fill:none;stroke:red;stroke-width:.663998;stroke-linecap:round;stroke-linejoin:round;stroke-miterlimit:4;stroke-dasharray:none;stroke-opacity:1;visibility:visible"/><path d="m343.04 91.22-2.215.316M340.824 91.536l-.028.004M345.186 91.15l-.77-.037-1.378.109M347.331 91.276l.055.001" style="fill:none;stroke:red;stroke-width:1.66133;stroke-linecap:round;stroke-linejoin:round;stroke-miterlimit:4;stroke-dasharray:none;stroke-opacity:1;visibility:visible"/><path d="M440.982 330.689a1.245 1.245 0 0 0 .718-.016M434.168 223.85l7.532 106.82" style="fill:none;stroke:red;stroke-width:.663998;stroke-linecap:round;stroke-linejoin:round;stroke-miterlimit:4;stroke-dasharray:none;stroke-opacity:1;visibility:visible"/><path d="m437.654 329.52 3.328 1.166M441.7 330.673l3.998-1.343" style="fill:none;stroke:red;stroke-width:1.66133;stroke-linecap:round;stroke-linejoin:round;stroke-miterlimit:4;stroke-dasharray:none;stroke-opacity:1;visibility:visible"/><path d="m422.492 204.7.83.274.833.371.829.468.818.56.808.65.788.732.766.815.734.892.706.966.668 1.03.628 1.084.583 1.144.532 1.187.483 1.227.429 1.258.368 1.282.31 1.3.255 1.305.187 1.307.121 1.3" style="fill:none;stroke:red;stroke-width:.663998;stroke-linecap:round;stroke-linejoin:round;stroke-miterlimit:4;stroke-dasharray:none;stroke-opacity:1;visibility:visible"/><path d="m437.654 329.52-.058-.026-.041-.024-.019-.033-.002-.014M445.884 329.186l-.004.021-.017.034-.041.029-.05.035-.076.025" style="fill:none;stroke:red;stroke-width:1.66133;stroke-linecap:round;stroke-linejoin:round;stroke-miterlimit:4;stroke-dasharray:none;stroke-opacity:1;visibility:visible"/><path d="m363.122 182.235.422 1.465.456 1.11.538 1.033.678 1.032.738.893 1.092 1.037 1.124.79.83.425.831.295M367.928 180.792v.003M360.04 173.245l-.08-.353-.112-.347-.133-.315-.147-.262-.144-.188-.137-.097-.12-.006-.092.095-.055.176-.016.259.026.309.058.347.096.353.126.333.14.291.145.226.148.144.127.053.106-.044.074-.136.038-.22-.002-.286-.047-.331M379.052 194.786l.008.126M379.055 194.712l-.003.033v.041M379.052 194.786l-.26.06M418.658 202.35l-.146-.05M379.26 194.865l-.076-.083-.03-.044M416.268 202.516l.299.056.357.03.4.002.408-.027.37-.056.318-.079.234-.092.133-.105.015-.101-.1-.095-.202-.079M415.386 202.272l.882.242M417.612 201.73l-.298-.058-.358-.029h-.4l-.4.025-.376.056-.317.081-.233.09-.136.101-.012.103.096.095.208.08M418.5 201.97l-.888-.243M373.182 190.821l.266.054.332.03.375.007.387-.019.38-.043.338-.064.28-.08.202-.086.105-.1.01-.092-.09-.085-.189-.071-.27-.052-.33-.03-.372-.007-.39.019-.373.04-.343.066-.28.077-.2.09-.105.098-.01.091.09.086.187.07M369.831 190.313l52.661 14.387M378.79 194.846l.005.123M378.79 194.846v-.04l.005-.038.008-.031.013-.03.02-.019.022-.013.025-.005.024.003M379.2 194.75l-.295-.078M379.34 195.002a.28.28 0 0 0-.14-.25M379.455 197.068 379.34 195M379.455 197.068v.04l-.005.04-.008.03-.014.027-.017.025-.024.012-.023.004-.029-.004M379.154 197.193l.182.05" style="fill:none;stroke:red;stroke-width:.663998;stroke-linecap:round;stroke-linejoin:round;stroke-miterlimit:4;stroke-dasharray:none;stroke-opacity:1;visibility:visible"/><path d="M339.732 357.586c.244.081.508.092.755.039" style="fill:none;stroke:red;stroke-width:1.66133;stroke-linecap:round;stroke-linejoin:round;stroke-miterlimit:4;stroke-dasharray:none;stroke-opacity:1;visibility:visible"/><path d="m339.52 242.113.21 115.473" style="fill:none;stroke:red;stroke-width:.663998;stroke-linecap:round;stroke-linejoin:round;stroke-miterlimit:4;stroke-dasharray:none;stroke-opacity:1;visibility:visible"/><path d="m336.511 356.14.01.032.032.031.049.027M345.063 356.675l.081-.015.067-.029.045-.029.032-.03.008-.031M339.732 357.586l-3.129-1.356M345.063 356.675l-4.575.95" style="fill:none;stroke:red;stroke-width:1.66133;stroke-linecap:round;stroke-linejoin:round;stroke-miterlimit:4;stroke-dasharray:none;stroke-opacity:1;visibility:visible"/><path d="m329.833 221.984.802.316.788.431.781.544.766.643.748.748.712.842.691.937.648 1.021.611 1.1.567 1.171.516 1.236.468 1.295.409 1.338.351 1.378.296 1.404.228 1.428.167 1.434.101 1.436.037 1.426M327.09 218.73l.188.084.068.09-.052.086-.168.078-.276.066-.357.044-.41.023-.428-.007-.418-.032-.363-.052-.29-.073M324.586 219.038l-.839-.272M323.746 218.766l-.186-.085-.065-.09.055-.085.169-.078.274-.063.357-.045.41-.023.427.007.413.03.365.052.285.072M326.251 218.458l.839.272M286.64 205.497l.168.075.067.082-.04.076-.141.075-.244.065-.315.047-.373.03-.408.009-.407-.009-.386-.036-.332-.049-.26-.065-.17-.076-.068-.079.043-.078.145-.075.239-.064.316-.048.375-.03.404-.009.41.012.382.031.335.05.259.067M285.358 208.47l.207.13.185.224.159.298.116.355.07.383.018.394-.039.37-.088.322-.136.254-.17.17-.194.07-.21-.034-.202-.133-.188-.223-.159-.297-.114-.355-.07-.385-.018-.39.038-.37.09-.321.136-.256.169-.167.199-.069.201.028M280.237 205.668l49.596 16.316" style="fill:none;stroke:red;stroke-width:.663998;stroke-linecap:round;stroke-linejoin:round;stroke-miterlimit:4;stroke-dasharray:none;stroke-opacity:1;visibility:visible"/><path d="m336.81 237.55-.223-.424-.143-.512-.044-.54.056-.506.154-.414.233-.28.285-.112.304.07.291.241.247.39.17.492.075.539-.027.523-.125.45-.21.327-.276.164-.299-.012-.299-.193-.169-.203" style="fill:none;stroke:red;stroke-width:.663998;stroke-linecap:round;stroke-linejoin:round;stroke-miterlimit:4;stroke-dasharray:none;stroke-opacity:1;visibility:visible"/><path d="m280.469 211.25-.011-.005-.025-.017" style="fill:none;stroke:red;stroke-width:1.66133;stroke-linecap:round;stroke-linejoin:round;stroke-miterlimit:4;stroke-dasharray:none;stroke-opacity:1;visibility:visible"/><path d="m290.471 205.866.014-.002.062.01M290.546 205.872l-.95.106M376.68 197.061l.037.76M376.41 197.121l.27-.06M376.384 197.128c.008-.002.02-.002.027-.008M376.963 194.481l.044.001M378.395 197.166a.093.093 0 0 0 .039 0M378.435 197.166a2.28 2.28 0 0 0 .965-.016M379.398 197.152l.018.001.006-.001M378.323 197.08c.381.076.773.062 1.15-.04M375.672 193.344a.792.792 0 0 0-.42-.6M376.592 196.597a.441.441 0 0 0-.206.53M378.323 197.08l-1.732-.483M275.745 195.77l.013.827.13 1.587.27 1.524.428 1.458.552 1.312.679 1.15.762.938.366.342.635.458.658.304M285.853 211.172a5.12 5.12 0 0 0-.554-.023" style="fill:none;stroke:red;stroke-width:.663998;stroke-linecap:round;stroke-linejoin:round;stroke-miterlimit:4;stroke-dasharray:none;stroke-opacity:1;visibility:visible"/><path d="M375.666 193.289a.713.713 0 0 0-.379-.537M290.515 205.862a.17.17 0 0 0-.125.011M376.444 198.324a.32.32 0 0 0 .096-.368M270.549 169.69l-.183 25.737M367.752 232.962l-5.702 57.84M370.942 200.548l-2.696 27.397-.494 5.017M370.892 187.076a65.495 65.495 0 0 0-1.228-7.053M364.268 156.563l5.396 23.46M275.729 195.77h-.039M275.695 195.439h.036M274.89 195.436h-.003M274.893 195.436l.182-24.997" style="fill:none;stroke:red;stroke-width:.663998;stroke-linecap:round;stroke-linejoin:round;stroke-miterlimit:4;stroke-dasharray:none;stroke-opacity:1;visibility:visible"/><path d="m266.097 169.756-.115-.028" style="fill:none;stroke:red;stroke-width:1.66133;stroke-linecap:round;stroke-linejoin:round;stroke-miterlimit:4;stroke-dasharray:none;stroke-opacity:1;visibility:visible"/><path d="m360.84 181.965-.026-.008-.006-.007M357.564 158.205l5.558 24.028M379.335 197.242l.076-.017M373.978 189.399l-.15-.002M426.764 203.684a.31.31 0 0 0-.156 0" style="fill:none;stroke:red;stroke-width:.663998;stroke-linecap:round;stroke-linejoin:round;stroke-miterlimit:4;stroke-dasharray:none;stroke-opacity:1;visibility:visible"/><path d="m334.93 220.812.093-.003.065.015" style="fill:none;stroke:red;stroke-width:1.66133;stroke-linecap:round;stroke-linejoin:round;stroke-miterlimit:4;stroke-dasharray:none;stroke-opacity:1;visibility:visible"/><path d="m376.828 197.758-.002.012-.01.014-.021.013-.035.013-.04.011M376.72 197.82l-.193.08M376.782 196.997l.005.013-.036.026-.07.024M376.786 196.73a.421.421 0 0 0-.107.33M376.612 196.682a.396.396 0 0 0-.2.44M376.592 196.597a.096.096 0 0 0 .071.085M378.78 194.985l.024-.012.018-.005M378.78 194.985a.033.033 0 0 0-.02-.017M378.323 197.08a.103.103 0 0 0 .073.086M379.42 197.152a.045.045 0 0 0 .031-.02M275.685 195.77h.06M285.146 204.616l.156.018M292.333 206.118l.044.012h.005M289.526 205.97h.013l.058.006M289.515 206.002l.035-.012.047-.012M418.45 207.95l-.218-.423-.144-.509-.045-.537.057-.504.154-.415.23-.277.283-.112.303.07.293.243.243.386.169.49.077.535-.028.52-.122.45-.212.323-.271.164-.3-.012-.299-.192-.17-.2M430.452 219.342l-.222-.424-.143-.513-.045-.539.057-.505.153-.415.234-.28.284-.112.305.07.29.241.248.388.169.493.077.542-.029.521-.124.451-.211.325-.275.165-.3-.012-.298-.193-.17-.203M325.422 224.73l-.22-.423-.143-.509-.045-.537.056-.503.155-.416.23-.277.283-.112.304.07.292.243.243.386.169.49.077.535-.028.52-.122.45-.211.323-.272.164-.3-.012-.3-.192-.169-.2" style="fill:none;stroke:red;stroke-width:.663998;stroke-linecap:round;stroke-linejoin:round;stroke-miterlimit:4;stroke-dasharray:none;stroke-opacity:1;visibility:visible"/><path d="m375.867 198.822-7.731 2.799M376.612 193.832l-.55-3.871" style="fill:none;stroke:red;stroke-width:1.66133;stroke-linecap:round;stroke-linejoin:round;stroke-miterlimit:4;stroke-dasharray:none;stroke-opacity:1;visibility:visible"/><path d="m370.04 154.23-7.51 3.53" style="fill:none;stroke:red;stroke-width:.663998;stroke-linecap:round;stroke-linejoin:round;stroke-miterlimit:4;stroke-dasharray:none;stroke-opacity:1;visibility:visible"/><path d="m360.04 173.245-4.614-14.54" style="fill:none;stroke:red;stroke-width:1.66133;stroke-linecap:round;stroke-linejoin:round;stroke-miterlimit:4;stroke-dasharray:none;stroke-opacity:1;visibility:visible"/><path d="m360.807 181.95-.767-8.705M360.808 181.948l-.769-8.702M376.663 196.682l-3.481-5.861M376.114 192.471l-2.932-1.651M285.303 204.63l1.337.867M285.29 204.628l1.349.87M285.146 204.616l.212 3.852M285.146 204.616l.707 6.556M292.382 206.13l-7.083 5.019M375.867 198.822l-4.925 1.726M370.04 154.23l-5.772 2.333M370.04 154.23l-12.476 3.975" style="fill:none;stroke:red;stroke-width:.663998;stroke-linecap:round;stroke-linejoin:round;stroke-miterlimit:4;stroke-dasharray:none;stroke-opacity:1;visibility:visible"/><path d="M308.878 206.084a181.32 181.32 0 0 0 63.344-14.139M311.455 213.138a186.76 186.76 0 0 0 64.99-14.814" style="fill:none;stroke:#00ff4a;stroke-width:1.66133;stroke-linecap:round;stroke-linejoin:round;stroke-miterlimit:4;stroke-dasharray:none;stroke-opacity:1;visibility:visible" visibility="hidden"/><path d="m370.955 192.956-.013-.001M373.495 193.303c0-.003-.019.008-.019.008l-.046.027-.088.041-.138.036-.164.031-.16.014-.104-.003-.056-.01v-.003M375.252 192.743l-2.897-.797M372.268 191.945l.028-.002.06.004M375.666 193.29l.874 4.665" style="fill:none;stroke:#00ff4a;stroke-width:.663998;stroke-linecap:round;stroke-linejoin:round;stroke-miterlimit:4;stroke-dasharray:none;stroke-opacity:1;visibility:visible" visibility="hidden"/><path d="M290.515 205.862c6.13.396 12.276.474 18.415.236" style="fill:none;stroke:#00ff4a;stroke-width:1.66133;stroke-linecap:round;stroke-linejoin:round;stroke-miterlimit:4;stroke-dasharray:none;stroke-opacity:1;visibility:visible" visibility="hidden"/><path d="m372.22 191.945.05-.01.052.005M373.566 193.056l.09.044.03.06-.042.074-.104.076-.154.067-.188.055-.208.035-.189.009-.163-.012-.038-.01M372.6 193.454l-1.773-.488M370.83 192.966l-.09-.043-.034-.065.045-.07.105-.072.156-.07.186-.052.204-.037.193-.01.161.013.04.01M371.795 192.57l1.77.486" style="fill:none;stroke:#00ff4a;stroke-width:.663998;stroke-linecap:round;stroke-linejoin:round;stroke-miterlimit:4;stroke-dasharray:none;stroke-opacity:1;visibility:visible" visibility="hidden"/><path d="M373.566 193.056a.32.32 0 0 0-.172.344M370.95 192.956a.184.184 0 0 0-.12.01M372.72 193.444a.184.184 0 0 0-.12.01M293.76 207.382a181.38 181.38 0 0 0 81.905-14.092M376.58 198.244a.393.393 0 0 0 .14-.424" style="fill:none;stroke:#00ff4a;stroke-width:.663998;stroke-linecap:round;stroke-linejoin:round;stroke-miterlimit:4;stroke-dasharray:none;stroke-opacity:1;visibility:visible" visibility="hidden"/><path d="m308.93 206.098 2.525 7.04" style="fill:none;stroke:#00ff4a;stroke-width:1.66133;stroke-linecap:round;stroke-linejoin:round;stroke-miterlimit:4;stroke-dasharray:none;stroke-opacity:1;visibility:visible" visibility="hidden"/><path d="m292.382 206.13 1.378 1.252" style="fill:none;stroke:#00ff4a;stroke-width:.663998;stroke-linecap:round;stroke-linejoin:round;stroke-miterlimit:4;stroke-dasharray:none;stroke-opacity:1;visibility:visible" visibility="hidden"/></svg>