<svg xmlns="http://www.w3.org/2000/svg" baseProfile="full" height="793.701" preserveAspectRatio="xMinYMin meet" style="width:912px;height:1303px" width="559.371" xml:space="preserve"><path d="m323.4 355.083.193-.04M324.633 345.213v-.33" style="fill:none;stroke:red;stroke-width:.663998;stroke-linecap:round;stroke-linejoin:round;stroke-miterlimit:4;stroke-dasharray:none;stroke-opacity:1;visibility:visible" visibility="hidden"/><path d="m422.952 328.117-5.31-23.157" style="fill:none;stroke:red;stroke-width:1.66133;stroke-linecap:round;stroke-linejoin:round;stroke-miterlimit:4;stroke-dasharray:none;stroke-opacity:1;visibility:visible" visibility="hidden"/><path d="m424.364 348.253.024-.264" style="fill:none;stroke:red;stroke-width:.663998;stroke-linecap:round;stroke-linejoin:round;stroke-miterlimit:4;stroke-dasharray:none;stroke-opacity:1;visibility:visible" visibility="hidden"/><path d="m315.587 319.313-.182 25.504M416.663 351.035l-2.603 26.718-.488 5.001-5.297 54.413M415.212 439.045l5.822-57.747.504-4.981 2.826-28.064M424.556 339.435a65.852 65.852 0 0 0-1.604-11.317" style="fill:none;stroke:red;stroke-width:1.66133;stroke-linecap:round;stroke-linejoin:round;stroke-miterlimit:4;stroke-dasharray:none;stroke-opacity:1;visibility:visible" visibility="hidden"/><path d="m323.8 344.887.184-25.66" style="fill:none;stroke:red;stroke-width:.663998;stroke-linecap:round;stroke-linejoin:round;stroke-miterlimit:4;stroke-dasharray:none;stroke-opacity:1;visibility:visible" visibility="hidden"/><path d="M313.937 364.658a141.965 141.965 0 0 0 1.468-19.843" style="fill:none;stroke:red;stroke-width:1.66133;stroke-linecap:round;stroke-linejoin:round;stroke-miterlimit:4;stroke-dasharray:none;stroke-opacity:1;visibility:visible" visibility="hidden"/><path d="M323.4 355.046c.246-3.379.38-6.77.4-10.156" style="fill:none;stroke:red;stroke-width:.663998;stroke-linecap:round;stroke-linejoin:round;stroke-miterlimit:4;stroke-dasharray:none;stroke-opacity:1;visibility:visible" visibility="hidden"/><path d="m314.726 260.152-.7 58.306M307.394 463.488l14.823-97.725M313.937 364.658l-14.514 97.846M322.217 365.765a148.42 148.42 0 0 0 1.183-10.718" style="fill:none;stroke:red;stroke-width:1.66133;stroke-linecap:round;stroke-linejoin:round;stroke-miterlimit:4;stroke-dasharray:none;stroke-opacity:1;visibility:visible" visibility="hidden"/><path d="m325.32 319.205.077-.001" style="fill:none;stroke:red;stroke-width:.663998;stroke-linecap:round;stroke-linejoin:round;stroke-miterlimit:4;stroke-dasharray:none;stroke-opacity:1;visibility:visible" visibility="hidden"/><path d="m322.31 248.445-1.176.187-1.004.365-.849.48-.695.535-.731.716-.572.705-.438.647-.411.72-.455.958-.456 1.234-.303 1.088-.246 1.222-.172 1.358-.076 1.493" style="fill:none;stroke:red;stroke-width:1.66133;stroke-linecap:round;stroke-linejoin:round;stroke-miterlimit:4;stroke-dasharray:none;stroke-opacity:1;visibility:visible" visibility="hidden"/><path d="m325.39 319.204.296-.007M325.686 319.196l1.304-.032 1.601-.056" style="fill:none;stroke:red;stroke-width:.663998;stroke-linecap:round;stroke-linejoin:round;stroke-miterlimit:4;stroke-dasharray:none;stroke-opacity:1;visibility:visible" visibility="hidden"/><path d="m475.05 353.091-52.576-14.22M425.296 347.409l30.052 8.417M467.457 359.218l3.447.967M470.903 360.185l.304.097.602.25.602.334.592.419.585.492.572.57.552.635.528.704.493.76.464.817.244.504s1.18 2.266 1.474 4.424c.145.712.245 1.434.297 2.16M486.705 371.963l-.052-.64-.145-1.229-.203-1.23-.258-1.228-.312-1.214-.37-1.201-.417-1.176-.47-1.146-.513-1.109-.558-1.07-.6-1.02-.637-.97-.671-.905-.7-.846-.732-.779-.758-.706-.773-.633-.79-.547-.801-.467-.811-.38-.81-.297-.275-.079M478.212 372.351l7.563 105.873M494.09 477.988l-7.386-106.023M417.67 304.956l.35-.134.306-.205.128-.153.085-.178.037-.204-.016-.205M404.982 308.102l2.9-.685M407.88 307.416l5.18-1.28 4.607-1.179M391.64 241.173l-2.185.315M395.946 241.201l-2.142-.124M406.292 250.333l-.477-1.588-.628-1.401-.735-1.23-.798-1.036-1.102-1.112-1.082-.845-.994-.61-.88-.426-.736-.287-.611-.193-1.044-.248-1.261-.156M418.56 303.874l-12.268-53.542M365.868 315.589a509.91 509.91 0 0 0 39.114-7.485M331.03 319.022a326.37 326.37 0 0 0 34.838-3.432M328.59 319.109l2.437-.089M314.026 318.46a.853.853 0 0 0 .907.852" style="fill:none;stroke:red;stroke-width:1.66133;stroke-linecap:round;stroke-linejoin:round;stroke-miterlimit:4;stroke-dasharray:none;stroke-opacity:1;visibility:visible" visibility="hidden"/><path d="m416.37 330.309-5.286-22.92" style="fill:none;stroke:red;stroke-width:.663998;stroke-linecap:round;stroke-linejoin:round;stroke-miterlimit:4;stroke-dasharray:none;stroke-opacity:1;visibility:visible" visibility="hidden"/><path d="m409.364 331.458.207.85.243.91.28.955.305.95.333.94.362.919.376.894.4.857.422.81.459.805.49.781.527.745.56.707.599.652.373.35" style="fill:none;stroke:red;stroke-width:1.66133;stroke-linecap:round;stroke-linejoin:round;stroke-miterlimit:4;stroke-dasharray:none;stroke-opacity:1;visibility:visible" visibility="hidden"/><path d="m418.828 335.835-.433-.668-.408-.706-.365-.736-.332-.758-.255-.682-.236-.735-.225-.819-.107-.424" style="fill:none;stroke:red;stroke-width:.663998;stroke-linecap:round;stroke-linejoin:round;stroke-miterlimit:4;stroke-dasharray:none;stroke-opacity:1;visibility:visible" visibility="hidden"/><path d="m329.11 345.222.193-26.141M334.175 354.03l-.57-.219-.496-.264-.517-.337-.558-.453-.524-.518-.433-.514-.392-.552-.346-.58-.301-.606-.255-.627-.23-.71-.185-.748-.135-.77-.08-.693-.035-.751v-.465M323.4 355.083l.064.12.566.871.603.821.632.763.657.69.672.613.573.457.603.4s.773.59 1.853.992c1.083.403 3.372 1.033 3.372 1.033M383.754 370.147 334.16 354.03M332.995 361.843l45.707 15.377M378.7 377.22l.283.107.557.276.546.368.54.452.528.537.508.614.485.69.459.761.426.821.39.885.348.931.311.975.259 1.003.214 1.03.162 1.05.111 1.054.057 1.05.011.554M404.006 308.329l5.361 23.131M422.495 338.86l-.405-.14-.491-.22-.417-.244-.475-.35-.45-.39-.489-.501-.478-.56-.463-.617" style="fill:none;stroke:red;stroke-width:1.66133;stroke-linecap:round;stroke-linejoin:round;stroke-miterlimit:4;stroke-dasharray:none;stroke-opacity:1;visibility:visible" visibility="hidden"/><path d="m339.322 355.26-.943.106M338.375 355.369l-.05.014M425.075 347.669a.433.433 0 0 0 .244-.475M424.995 347.707l.075-.03M425.322 347.195l-.044-.755M425.322 346.17a.53.53 0 0 0-.044.268M425.102 346.12l.018-.003.03.011M425.106 343.318l-.042-.758M425.104 343.285a.723.723 0 0 0 .396.65M425.15 346.125l1.729.481M427.902 346.59l.028-.005M427.786 344.305l-.48.11M427.175 344.366c.027.044.081.068.13.05M427.243 344.414l-1.763-.487" style="fill:none;stroke:red;stroke-width:.663998;stroke-linecap:round;stroke-linejoin:round;stroke-miterlimit:4;stroke-dasharray:none;stroke-opacity:1;visibility:visible" visibility="hidden"/><path d="M357.648 355.478a180.574 180.574 0 0 0 63.083-14.07M360.215 362.498a186.085 186.085 0 0 0 64.719-14.743" style="fill:none;stroke:red;stroke-width:1.66133;stroke-linecap:round;stroke-linejoin:round;stroke-miterlimit:4;stroke-dasharray:none;stroke-opacity:1;visibility:visible" visibility="hidden"/><path d="m324.6 344.887-.001.283v.044M419.466 342.414l-.008-.001M421.999 342.757l-.019.01-.046.027-.088.037-.136.04-.163.03-.157.012-.107-.003-.053-.01h-.002M341.227 355.523l-.021-.005-.012-.003" style="fill:none;stroke:red;stroke-width:.663998;stroke-linecap:round;stroke-linejoin:round;stroke-miterlimit:4;stroke-dasharray:none;stroke-opacity:1;visibility:visible" visibility="hidden"/><path d="M408.275 437.169a.128.128 0 0 0 .03.097M414.927 439.229a.28.28 0 0 0 .285-.186M408.306 437.266l1.702 2.347M410.008 439.613a.693.693 0 0 0 .594.177M410.603 439.79l4.324-.561" style="fill:none;stroke:red;stroke-width:1.66133;stroke-linecap:round;stroke-linejoin:round;stroke-miterlimit:4;stroke-dasharray:none;stroke-opacity:1;visibility:visible" visibility="hidden"/><path d="m317.653 366.801-14.7 98.045M317.653 366.8a156.506 156.506 0 0 0 1.642-21.925" style="fill:none;stroke:red;stroke-width:.663998;stroke-linecap:round;stroke-linejoin:round;stroke-miterlimit:4;stroke-dasharray:none;stroke-opacity:1;visibility:visible" visibility="hidden"/><path d="M307.243 463.63a.2.2 0 0 0 .15-.14M299.423 462.503a.215.215 0 0 0 .134.197M307.243 463.63l-3.6 1.298M302.955 464.846a.85.85 0 0 0 .688.082M302.955 464.846l-3.4-2.147" style="fill:none;stroke:red;stroke-width:1.66133;stroke-linecap:round;stroke-linejoin:round;stroke-miterlimit:4;stroke-dasharray:none;stroke-opacity:1;visibility:visible" visibility="hidden"/><path d="m328.36 249.637 1.073-.061M321.302 260.038l.14-2.005.397-1.92.634-1.76.86-1.555 1.053-1.281 1.216-.98 1.332-.63 1.425-.271M320.882 318.396l.417-58.36" style="fill:none;stroke:red;stroke-width:.663998;stroke-linecap:round;stroke-linejoin:round;stroke-miterlimit:4;stroke-dasharray:none;stroke-opacity:1;visibility:visible" visibility="hidden"/><path d="M315.02 319.324h.108M315.135 319.317l-.082.001-.043.002.003.002M315.127 319.324h.46" style="fill:none;stroke:red;stroke-width:1.66133;stroke-linecap:round;stroke-linejoin:round;stroke-miterlimit:4;stroke-dasharray:none;stroke-opacity:1;visibility:visible" visibility="hidden"/><path d="m330.163 249.529 4.572-.267 4.595-.26 4.646-.288 3.544-.252 3.616-.297 3.718-.344 3.846-.395M330.13 249.534l.033-.004M329.434 249.574l.694-.04" style="fill:none;stroke:red;stroke-width:.663998;stroke-linecap:round;stroke-linejoin:round;stroke-miterlimit:4;stroke-dasharray:none;stroke-opacity:1;visibility:visible" visibility="hidden"/><path d="M330.098 319.069h-.041M329.302 319.088l.755-.02" style="fill:none;stroke:red;stroke-width:1.66133;stroke-linecap:round;stroke-linejoin:round;stroke-miterlimit:4;stroke-dasharray:none;stroke-opacity:1;visibility:visible" visibility="hidden"/><path d="m315.053 319.317 4.425-.057M320.28 319.253c-.268.003-.536.003-.804.007M320.28 319.253a.764.764 0 0 0 .6-.859" style="fill:none;stroke:red;stroke-width:.663998;stroke-linecap:round;stroke-linejoin:round;stroke-miterlimit:4;stroke-dasharray:none;stroke-opacity:1;visibility:visible" visibility="hidden"/><path d="m320.28 319.253 3.972-.028 4.234-.099M315.045 319.325h-.126l-.038-.001.044-.004.128-.003M315.587 319.326h-.542" style="fill:none;stroke:red;stroke-width:1.66133;stroke-linecap:round;stroke-linejoin:round;stroke-miterlimit:4;stroke-dasharray:none;stroke-opacity:1;visibility:visible" visibility="hidden"/><path d="m320.163 319.256-.598.002" style="fill:none;stroke:red;stroke-width:.663998;stroke-linecap:round;stroke-linejoin:round;stroke-miterlimit:4;stroke-dasharray:none;stroke-opacity:1;visibility:visible" visibility="hidden"/><path d="M324.1 248.345a614.394 614.394 0 0 0 30.333-2.492M324.077 248.345h.02M322.366 248.436l1.708-.091M325.32 319.2l-1.09.025-4.068.03M315.135 319.317l4.428-.057" style="fill:none;stroke:red;stroke-width:1.66133;stroke-linecap:round;stroke-linejoin:round;stroke-miterlimit:4;stroke-dasharray:none;stroke-opacity:1;visibility:visible" visibility="hidden"/><path d="m392.308 242.94-.021.002-.023.006M392.264 242.948l-5.7.812-5.693.826-5.667.807-4.22.57-4.176.536-4.11.489-3.998.441" style="fill:none;stroke:red;stroke-width:.663998;stroke-linecap:round;stroke-linejoin:round;stroke-miterlimit:4;stroke-dasharray:none;stroke-opacity:1;visibility:visible" visibility="hidden"/><path d="m389.435 241.488-6.035.838-5.99.8-5.915.756-5.808.708-5.687.66-5.568.604" style="fill:none;stroke:red;stroke-width:1.66133;stroke-linecap:round;stroke-linejoin:round;stroke-miterlimit:4;stroke-dasharray:none;stroke-opacity:1;visibility:visible" visibility="hidden"/><path d="m393.172 242.818-.864.123M404.848 248.814l-.89-1.689-1.152-1.483-1.394-1.241-1.574-.947-1.722-.629-1.785-.277-1.82.078M394.511 242.626l-1.34.195" style="fill:none;stroke:red;stroke-width:.663998;stroke-linecap:round;stroke-linejoin:round;stroke-miterlimit:4;stroke-dasharray:none;stroke-opacity:1;visibility:visible" visibility="hidden"/><path d="m391.67 241.168-2.203.316M389.466 241.482l-.031.004M393.806 241.1l-.763-.04-1.373.108M395.944 241.225l.058.003" style="fill:none;stroke:red;stroke-width:1.66133;stroke-linecap:round;stroke-linejoin:round;stroke-miterlimit:4;stroke-dasharray:none;stroke-opacity:1;visibility:visible" visibility="hidden"/><path d="M489.205 479.483a1.247 1.247 0 0 0 .716-.017M482.421 373.158l7.502 106.308" style="fill:none;stroke:red;stroke-width:.663998;stroke-linecap:round;stroke-linejoin:round;stroke-miterlimit:4;stroke-dasharray:none;stroke-opacity:1;visibility:visible" visibility="hidden"/><path d="m485.89 478.322 3.316 1.161M489.921 479.466l3.987-1.336" style="fill:none;stroke:red;stroke-width:1.66133;stroke-linecap:round;stroke-linejoin:round;stroke-miterlimit:4;stroke-dasharray:none;stroke-opacity:1;visibility:visible" visibility="hidden"/><path d="m470.793 354.098.828.277.829.368.825.467.817.557.803.644.785.731.761.812.735.888.7.96.664 1.023.627 1.082.577 1.138.536 1.18.477 1.22.428 1.253.37 1.276.308 1.292.25 1.301.185 1.3.122 1.291" style="fill:none;stroke:red;stroke-width:.663998;stroke-linecap:round;stroke-linejoin:round;stroke-miterlimit:4;stroke-dasharray:none;stroke-opacity:1;visibility:visible" visibility="hidden"/><path d="m485.89 478.322-.053-.026-.04-.025-.017-.033-.007-.014M494.09 477.988l-.007.02-.018.033-.035.031-.053.032-.073.027" style="fill:none;stroke:red;stroke-width:1.66133;stroke-linecap:round;stroke-linejoin:round;stroke-miterlimit:4;stroke-dasharray:none;stroke-opacity:1;visibility:visible" visibility="hidden"/><path d="m411.667 331.742.423 1.461.454 1.107.536 1.027.676 1.022.73.891 1.092 1.033 1.118.783.828.424.826.292M416.455 330.309v.004M408.602 322.797l-.082-.35-.112-.345-.13-.316-.148-.258-.146-.188-.137-.098-.117-.005-.092.093-.054.18-.014.255.022.31.059.339.099.353.122.334.14.289.146.22.145.148.127.05.106-.041.076-.137.036-.218-.002-.284-.044-.331M427.532 344.235l.008.125M427.538 344.163l-.003.032-.003.042M427.532 344.235l-.261.06M466.978 351.762l-.146-.05M427.74 344.315l-.073-.084-.033-.04M464.595 351.926l.295.056.36.03.398.003.403-.029.376-.053.313-.079.232-.093.13-.103.017-.101-.097-.095-.207-.076M463.714 351.685l.882.241M465.932 351.145l-.29-.056-.363-.03-.395-.003-.402.029-.374.054-.314.081-.234.088-.13.102-.016.103.096.093.204.079M466.817 351.382l-.884-.237M421.688 340.289l.267.053.332.03.372.008.385-.019.374-.044.34-.062.28-.08.2-.089.105-.095.007-.094-.091-.083-.185-.073-.267-.051-.33-.033-.371-.004-.383.021-.379.04-.337.063-.277.076-.203.092-.105.094-.012.094.093.085.185.07M418.35 339.785l52.446 14.314M427.27 344.295l.009.122M427.27 344.295v-.04l.007-.035.009-.033.017-.03.017-.02.022-.014.022-.003.027.001M427.68 344.202l-.29-.081M427.82 344.449a.272.272 0 0 0-.14-.247M427.938 346.506l-.118-2.056M427.938 346.506v.039l-.008.04-.011.03-.012.03-.019.02-.021.013-.023.005-.026-.003M427.634 346.63l.185.05" style="fill:none;stroke:red;stroke-width:.663998;stroke-linecap:round;stroke-linejoin:round;stroke-miterlimit:4;stroke-dasharray:none;stroke-opacity:1;visibility:visible" visibility="hidden"/><path d="m385.166 504.811.013.033.03.03.054.025M393.686 505.346l.078-.019.067-.027.05-.029.026-.03.009-.029M388.376 506.251l-3.114-1.351M393.686 505.346l-4.559.944M388.376 506.251c.247.08.504.092.752.04" style="fill:none;stroke:red;stroke-width:1.66133;stroke-linecap:round;stroke-linejoin:round;stroke-miterlimit:4;stroke-dasharray:none;stroke-opacity:1;visibility:visible" visibility="hidden"/><path d="m375.788 368.063.184.083.07.09-.052.085-.168.08-.275.064-.356.045-.407.02-.428-.004-.413-.033-.363-.053-.286-.071M373.294 368.37l-.836-.27M372.458 368.1l-.186-.086-.065-.084.05-.088.175-.079.272-.062.352-.047.408-.02.428.006.414.03.36.053.286.07M374.952 367.791l.836.272M335.507 354.894l.167.076.066.079-.038.078-.146.075-.236.063-.317.048-.373.03-.406.009-.406-.012-.383-.031-.334-.052-.257-.06-.169-.079-.065-.08.04-.076.145-.076.239-.064.316-.047.37-.03.404-.008.407.013.381.03.336.048.26.066M329.13 355.062l49.39 16.24M385.466 386.794l-.22-.423-.143-.51-.045-.535.057-.504.153-.413.232-.279.282-.112.304.068.292.243.24.388.169.49.077.535-.029.519-.121.449-.211.324-.272.164-.297-.012-.299-.192-.17-.2M339.364 355.255a.17.17 0 0 0-.124.012M339.322 355.26h.013l.06.006M339.395 355.266l-.945.108M425.168 346.497l.044.756M424.904 346.56l.267-.063M424.879 346.565c.008-.002.016-.002.027-.006M424.494 343.46a.627.627 0 0 0-.188.081M425.454 343.931l.044.003M426.879 346.606a.243.243 0 0 0 .044 0M426.923 346.606c.316.064.643.056.956-.016M427.879 346.59h.024M426.808 346.517c.382.078.77.062 1.142-.039M424.167 342.802a.784.784 0 0 0-.415-.599M423.75 342.202l-2.885-.792M420.778 341.406l.028-.003.06.007M425.083 346.038a.44.44 0 0 0-.205.527M426.808 346.517l-1.726-.479M324.653 345.213l.013.825.13 1.577.27 1.52.425 1.449.55 1.306.673 1.147.763.93.365.343.63.455.656.297M374.947 368.146l.83.268" style="fill:none;stroke:red;stroke-width:.663998;stroke-linecap:round;stroke-linejoin:round;stroke-miterlimit:4;stroke-dasharray:none;stroke-opacity:1;visibility:visible" visibility="hidden"/><path d="M374.947 368.146a5.363 5.363 0 0 0-2.481-.045M374.947 368.146l.005-.355M424.162 342.745a.715.715 0 0 0-.376-.535M424.162 342.745l.872 4.644" style="fill:none;stroke:red;stroke-width:.663998;stroke-linecap:round;stroke-linejoin:round;stroke-miterlimit:4;stroke-dasharray:none;stroke-opacity:1;visibility:visible" visibility="hidden"/><path d="M339.364 355.255c6.106.395 12.224.475 18.338.236" style="fill:none;stroke:red;stroke-width:1.66133;stroke-linecap:round;stroke-linejoin:round;stroke-miterlimit:4;stroke-dasharray:none;stroke-opacity:1;visibility:visible" visibility="hidden"/><path d="m420.73 341.406.049-.01.051.004M424.935 347.755a.323.323 0 0 0 .099-.365M422.066 342.515l.093.042.031.063-.042.073-.104.073-.156.068-.188.052-.2.037-.194.011-.162-.014-.04-.01M421.106 342.909l-1.758-.486M419.347 342.423l-.093-.045-.027-.061.041-.072.103-.07.159-.07.185-.055.201-.033.19-.012.161.014.041.008M420.307 342.027l1.76.487M319.48 319.26l-.187 25.613M419.459 349.969l-2.685 27.265-.495 4.993-5.676 57.563M419.407 336.562a64.97 64.97 0 0 0-1.223-7.019M412.812 306.198l5.372 23.345M324.64 345.213h-.043M324.6 344.887c.018 0 .03 0 .043-.002M323.805 344.885h-.006M323.805 344.885l.182-24.877" style="fill:none;stroke:red;stroke-width:.663998;stroke-linecap:round;stroke-linejoin:round;stroke-miterlimit:4;stroke-dasharray:none;stroke-opacity:1;visibility:visible" visibility="hidden"/><path d="M422.066 342.515a.312.312 0 0 0-.164.343" style="fill:none;stroke:red;stroke-width:.663998;stroke-linecap:round;stroke-linejoin:round;stroke-miterlimit:4;stroke-dasharray:none;stroke-opacity:1;visibility:visible" visibility="hidden"/><path d="m315.045 319.325-.112-.028" style="fill:none;stroke:red;stroke-width:1.66133;stroke-linecap:round;stroke-linejoin:round;stroke-miterlimit:4;stroke-dasharray:none;stroke-opacity:1;visibility:visible" visibility="hidden"/><path d="m409.396 331.477-.024-.008-.004-.01M406.136 307.83l5.531 23.913M427.819 346.68l.07-.019M422.482 338.874l-.152-.003M475.05 353.091a.295.295 0 0 0-.158 0" style="fill:none;stroke:red;stroke-width:.663998;stroke-linecap:round;stroke-linejoin:round;stroke-miterlimit:4;stroke-dasharray:none;stroke-opacity:1;visibility:visible" visibility="hidden"/><path d="M383.598 370.133h.085l.07.016" style="fill:none;stroke:red;stroke-width:1.66133;stroke-linecap:round;stroke-linejoin:round;stroke-miterlimit:4;stroke-dasharray:none;stroke-opacity:1;visibility:visible" visibility="hidden"/><path d="m425.322 347.195-.006.011-.01.014-.023.013-.033.012-.038.01M425.212 347.254l-.19.08M425.272 346.435l.006.012-.036.03-.072.021M425.278 346.17a.452.452 0 0 0-.11.327M425.102 346.12a.408.408 0 0 0-.198.437M425.083 346.038a.105.105 0 0 0 .067.087M427.262 344.433l.026-.01.019-.01" style="fill:none;stroke:red;stroke-width:.663998;stroke-linecap:round;stroke-linejoin:round;stroke-miterlimit:4;stroke-dasharray:none;stroke-opacity:1;visibility:visible" visibility="hidden"/><path d="M427.263 344.433c-.003-.01-.01-.016-.021-.019M426.808 346.517c.008.041.03.076.07.09M427.902 346.59a.047.047 0 0 0 .03-.02M324.597 345.213h.057M375.783 368.414l.005-.35M334.018 354.018l.15.019M419.464 342.414a.17.17 0 0 0-.117.01M421.226 342.9a.17.17 0 0 0-.12.01M341.172 355.515l.044.008h.004M342.595 356.769a180.702 180.702 0 0 0 81.567-14.026M338.38 355.367h.011l.06.006M338.37 355.398l.03-.013.051-.012M425.07 347.675a.388.388 0 0 0 .142-.422M334.855 358.946c-.244-.921-.841-1.56-1.334-1.436-.493.13-.692.979-.457 1.904.243.921.839 1.563 1.335 1.437.495-.129.697-.981.456-1.905" style="fill:none;stroke:red;stroke-width:.663998;stroke-linecap:round;stroke-linejoin:round;stroke-miterlimit:4;stroke-dasharray:none;stroke-opacity:1;visibility:visible" visibility="hidden"/><path d="m334.002 359.993.193-.503-.204-.775-.397-.272M480.352 366.462c.343 1.015.17 1.988-.387 2.175-.555.186-1.28-.483-1.622-1.499-.34-1.013-.168-1.987.386-2.172.556-.19 1.283.481 1.623 1.496M374.171 374.345l-.22-.423-.143-.51-.045-.536.057-.503.155-.415.23-.277.281-.112.305.07.292.241.243.386.17.49.075.538-.027.519-.122.449-.21.323-.274.165-.298-.012-.3-.192-.169-.201" style="fill:none;stroke:red;stroke-width:.663998;stroke-linecap:round;stroke-linejoin:round;stroke-miterlimit:4;stroke-dasharray:none;stroke-opacity:1;visibility:visible" visibility="hidden"/><path d="m393.916 505.214-.112-114.568M384.895 390.38l.27 114.43" style="fill:none;stroke:red;stroke-width:1.66133;stroke-linecap:round;stroke-linejoin:round;stroke-miterlimit:4;stroke-dasharray:none;stroke-opacity:1;visibility:visible" visibility="hidden"/><path d="m378.52 371.302.795.318.788.43.779.536.764.641.738.744.714.839.686.932.646 1.018.608 1.093.562 1.169.518 1.227.464 1.285.408 1.333.35 1.373.292 1.398.226 1.419.169 1.43.101 1.426.035 1.421M388.163 391.334l.215 114.917" style="fill:none;stroke:red;stroke-width:.663998;stroke-linecap:round;stroke-linejoin:round;stroke-miterlimit:4;stroke-dasharray:none;stroke-opacity:1;visibility:visible" visibility="hidden"/><path d="m393.806 390.647-.008-.692-.058-1.32-.117-1.324-.165-1.321-.224-1.31-.275-1.298-.327-1.269-.376-1.238-.422-1.204-.471-1.156-.515-1.108-.548-1.05-.593-.991-.625-.921-.656-.852-.686-.775-.714-.695-.728-.608-.754-.518-.76-.427-.77-.332-.26-.09M424.364 348.253l-7.701 2.782M425.064 342.56l-.508-3.125M463.714 351.685l-8.366 4.141M470.796 354.099l-3.339 5.119" style="fill:none;stroke:red;stroke-width:1.66133;stroke-linecap:round;stroke-linejoin:round;stroke-miterlimit:4;stroke-dasharray:none;stroke-opacity:1;visibility:visible" visibility="hidden"/><path d="m418.56 303.874-7.476 3.515" style="fill:none;stroke:red;stroke-width:.663998;stroke-linecap:round;stroke-linejoin:round;stroke-miterlimit:4;stroke-dasharray:none;stroke-opacity:1;visibility:visible" visibility="hidden"/><path d="m408.602 322.797-4.596-14.468M357.702 355.491l2.513 7.007" style="fill:none;stroke:red;stroke-width:1.66133;stroke-linecap:round;stroke-linejoin:round;stroke-miterlimit:4;stroke-dasharray:none;stroke-opacity:1;visibility:visible" visibility="hidden"/><path d="m409.364 331.458-.762-8.661M419.407 336.562l-10.805-13.765M420.866 341.41l.822-1.121M422.066 342.515l-.378-2.227M334.175 354.03l1.332.864M334.16 354.03l1.348.864M424.364 348.253l-4.905 1.716M418.56 303.874l-5.748 2.324M418.56 303.874l-12.424 3.956M341.22 355.523l1.375 1.246M332.995 361.843l1.007-1.85" style="fill:none;stroke:red;stroke-width:.663998;stroke-linecap:round;stroke-linejoin:round;stroke-miterlimit:4;stroke-dasharray:none;stroke-opacity:1;visibility:visible" visibility="hidden"/><path d="m466.876 354.291.256.089.253.151.243.214.23.265.197.317.172.351.136.38.093.39.055.396.005.386-.038.364-.08.33-.121.292-.157.239-.193.18-.22.115-.123.036" style="fill:none;stroke:#00ff4a;stroke-width:.663998;stroke-linecap:round;stroke-linejoin:round;stroke-miterlimit:4;stroke-dasharray:none;stroke-opacity:1;visibility:visible"/><path d="m466.519 354.285-81.489 15.661M389.487 374.035l78.099-15.249" style="fill:none;stroke:#00ff4a;stroke-width:1.66133;stroke-linecap:round;stroke-linejoin:round;stroke-miterlimit:4;stroke-dasharray:none;stroke-opacity:1;visibility:visible"/><path d="m335.507 354.894-1.913 3.549" style="fill:none;stroke:red;stroke-width:.663998;stroke-linecap:round;stroke-linejoin:round;stroke-miterlimit:4;stroke-dasharray:none;stroke-opacity:1;visibility:visible" visibility="hidden"/></svg>