<svg xmlns="http://www.w3.org/2000/svg" baseProfile="full" height="1122.667" preserveAspectRatio="xMinYMin meet" style="width:912px;height:1303px" width="793.627" xml:space="preserve"><path d="m140.12 520.913 7.13-39.052" style="fill:none;stroke:red;stroke-width:1.99999;stroke-linecap:round;stroke-linejoin:round;stroke-miterlimit:4;stroke-dasharray:none;stroke-opacity:1;visibility:visible"/><path d="m133.833 521.567-.076.548s.103 2.952 3.136 2.285c3.033-.665 3.144-3.033 3.144-3.033l.083-.453" style="fill:none;stroke:red;stroke-width:.999997;stroke-linecap:round;stroke-linejoin:round;stroke-miterlimit:4;stroke-dasharray:none;stroke-opacity:1;visibility:visible"/><path d="m140.69 471.959-6.857 49.608M151.083 564.863c.839-5.98 9.705-72.236 9.705-72.236" style="fill:none;stroke:red;stroke-width:1.99999;stroke-linecap:round;stroke-linejoin:round;stroke-miterlimit:4;stroke-dasharray:none;stroke-opacity:1;visibility:visible"/><path d="M144.445 565.001c-.027.275-.041.43-.043.459-.037.702 1.22 2.96 4.216 1.96 0 0 2.183-.815 2.406-2.146l.06-.41" style="fill:none;stroke:red;stroke-width:.999997;stroke-linecap:round;stroke-linejoin:round;stroke-miterlimit:4;stroke-dasharray:none;stroke-opacity:1;visibility:visible"/><path d="M152.503 486.708s-7.423 71.841-8.057 78.294M202.407 597.796c.53-7.627 5.803-86.822 5.803-86.822" style="fill:none;stroke:red;stroke-width:1.99999;stroke-linecap:round;stroke-linejoin:round;stroke-miterlimit:4;stroke-dasharray:none;stroke-opacity:1;visibility:visible"/><path d="m195.392 597.875-.019.47c-.037.887 1.111 3.033 3.663 2.7 2.552-.334 3.255-1.923 3.33-2.663l.04-.586" style="fill:none;stroke:red;stroke-width:.999997;stroke-linecap:round;stroke-linejoin:round;stroke-miterlimit:4;stroke-dasharray:none;stroke-opacity:1;visibility:visible"/><path d="M198.777 508.236s-3.116 82.606-3.385 89.638M276.539 606.64c-.385-7.876-4.633-87.714-4.633-87.714" style="fill:none;stroke:red;stroke-width:1.99999;stroke-linecap:round;stroke-linejoin:round;stroke-miterlimit:4;stroke-dasharray:none;stroke-opacity:1;visibility:visible"/><path d="m269.84 606.479.03.372c.075 1.073 1.295 3.07 3.7 2.812 2.405-.26 2.997-1.664 2.997-2.404 0-.033-.01-.247-.028-.619" style="fill:none;stroke:red;stroke-width:.999997;stroke-linecap:round;stroke-linejoin:round;stroke-miterlimit:4;stroke-dasharray:none;stroke-opacity:1;visibility:visible"/><path d="M261.993 519.037s7.304 81.17 7.848 87.441M341.283 583.316c-1.255-6.984-14.04-80.11-14.04-80.11" style="fill:none;stroke:red;stroke-width:1.99999;stroke-linecap:round;stroke-linejoin:round;stroke-miterlimit:4;stroke-dasharray:none;stroke-opacity:1;visibility:visible"/><path d="M334.624 584.457c.03.136.048.215.055.237.221.776 1.997 3.218 4.845 2.144 0 0 2.256-.924 1.85-3.032l-.09-.49" style="fill:none;stroke:red;stroke-width:.999997;stroke-linecap:round;stroke-linejoin:round;stroke-miterlimit:4;stroke-dasharray:none;stroke-opacity:1;visibility:visible"/><path d="M318.624 508.125s14.963 71.632 16 76.333" style="fill:none;stroke:red;stroke-width:1.99999;stroke-linecap:round;stroke-linejoin:round;stroke-miterlimit:4;stroke-dasharray:none;stroke-opacity:1;visibility:visible"/><path d="M352.01 582.176c1.55 4.155-1.832 19.861-8.381 28.945-6.55 9.086-21.48 23.806-39.016 32.89-17.538 9.085-41.2 16.831-64.581 16.691-23.383-.14-53.314-5.564-78.175-27.114-24.861-21.55-28.874-47.679-29.861-57.257-.985-9.578-.864-41.39-.864-41.39" style="fill:none;stroke:red;stroke-width:1.99999;stroke-linecap:round;stroke-linejoin:round;stroke-miterlimit:4;stroke-dasharray:none;stroke-opacity:1;visibility:visible"/><path d="M131.143 534.94c.224 4.91 1.167 10.659 3.388 17.093 7.536 21.834 36.555 44.703 72.962 53.665 36.622 9.016 73.455 7.96 102.26-2.182 28.805-10.141 40.707-25.495 42.256-21.34" style="fill:none;stroke:red;stroke-width:.999997;stroke-linecap:round;stroke-linejoin:round;stroke-miterlimit:4;stroke-dasharray:none;stroke-opacity:1;visibility:visible"/><path d="M134.177 516.256s-3.573 6.937-3.036 18.684M141.221 516.679s6.268-1.127.493 27.75" style="fill:none;stroke:red;stroke-width:1.99999;stroke-linecap:round;stroke-linejoin:round;stroke-miterlimit:4;stroke-dasharray:none;stroke-opacity:1;visibility:visible"/><path d="M140.033 534.69c.045.919.11 1.888.201 2.907 0 0 1.408 9.929 5 16.268" style="fill:none;stroke:red;stroke-width:1.99999;stroke-linecap:round;stroke-linejoin:round;stroke-miterlimit:4;stroke-dasharray:none;stroke-opacity:1;visibility:visible"/><path d="M142.84 518.51s-3.43 3.43-2.807 16.179" style="fill:none;stroke:red;stroke-width:.999997;stroke-linecap:round;stroke-linejoin:round;stroke-miterlimit:4;stroke-dasharray:none;stroke-opacity:1;visibility:visible"/><path d="M151.573 563.584s12.043 18.663 43.595 30.916M202.704 597.319s28.875 10.493 66.483 7.184M276.723 603.727s32.677-3.17 57.187-20.565M340.67 578.937s1.972-2.184 3.521-1.339c1.55.846 7.255 3.099 7.676 4.298M216.155 384.31s9.297-1.444 24.373-.632c15.075.813 35.024 3.972 51.453 8.035 16.43 4.062 43.963 12.096 55.878 23.289M352.372 418.975s7.763 7.132 8.395 16.61c0 0 1.354 6.5.902 8.846-.45 2.348-2.346 7.764-2.978 9.388 0 0-3.791 14.173-13.542 29.88-9.748 15.706-20.309 23.47-42.786 30.601-22.477 7.132-52.357 5.056-70.23 1.987-17.874-3.07-49.65-11.646-68.335-21.846-18.687-10.2-22.93-22.297-24.103-25.907 0 0-.722-2.167-.902-3.882-.18-1.716-1.806-7.402-.271-14.805 0 0-.27-9.75 9.479-21.844 9.749-12.097 32.406-32.679 45.225-37.553" style="fill:none;stroke:red;stroke-width:1.99999;stroke-linecap:round;stroke-linejoin:round;stroke-miterlimit:4;stroke-dasharray:none;stroke-opacity:1;visibility:visible"/><path d="M358.692 453.819s-7.493 19.95-18.687 33.4c-11.193 13.45-28.616 22.296-54.342 25.185-25.727 2.888-49.83.182-70.5-5.596-20.673-5.777-48.387-14.624-60.933-23.561-12.548-8.936-14.353-15.527-15.527-18.235" style="fill:none;stroke:red;stroke-width:1.99999;stroke-linecap:round;stroke-linejoin:round;stroke-miterlimit:4;stroke-dasharray:none;stroke-opacity:1;visibility:visible"/><path d="M138.521 449.847s-1.896 12.91 16.159 25.999c18.053 13.088 54.703 22.205 67.07 25.004 12.367 2.798 37.643 8.124 68.064 3.7 30.421-4.423 42.699-15.164 48.385-21.303 5.687-6.139 11.013-15.075 14.895-23.11 3.881-8.033 8.124-19.587 7.673-24.553M221.07 388.056c.047 1.297-1.247 2.641-3.89 3.721-5.285 2.16-14.05 2.475-19.478.7-2.593-.848-3.973-2.025-4.132-3.26" style="fill:none;stroke:red;stroke-width:.999997;stroke-linecap:round;stroke-linejoin:round;stroke-miterlimit:4;stroke-dasharray:none;stroke-opacity:1;visibility:visible"/><path d="M193.57 389.217c-.173-1.35 1.113-2.767 3.875-3.893 5.285-2.162 14.05-2.476 19.478-.702 2.714.888 4.099 2.136 4.147 3.434M221.308 393.58l-.19-5.244" style="fill:none;stroke:red;stroke-width:1.99999;stroke-linecap:round;stroke-linejoin:round;stroke-miterlimit:4;stroke-dasharray:none;stroke-opacity:1;visibility:visible"/><path d="m193.841 397.327.005.165c.286 1.671 1.874 3.14 4.704 4.014 5.732 1.766 14.478.449 19.432-2.931 2.175-1.483 3.272-3.124 3.338-4.65l-.012-.345" style="fill:none;stroke:red;stroke-width:.999997;stroke-linecap:round;stroke-linejoin:round;stroke-miterlimit:4;stroke-dasharray:none;stroke-opacity:1;visibility:visible"/><path d="m193.555 389.501.287 7.825" style="fill:none;stroke:red;stroke-width:1.99999;stroke-linecap:round;stroke-linejoin:round;stroke-miterlimit:4;stroke-dasharray:none;stroke-opacity:1;visibility:visible"/><path d="M352.67 420.776c.032 1.93-1.703 3.585-5.096 4.397-6.033 1.442-15.116-.306-20.181-3.888-2.53-1.788-3.6-3.708-3.284-5.362" style="fill:none;stroke:red;stroke-width:.999997;stroke-linecap:round;stroke-linejoin:round;stroke-miterlimit:4;stroke-dasharray:none;stroke-opacity:1;visibility:visible"/><path d="M324.11 415.923c.316-1.657 2.023-3.048 5.043-3.77 6.033-1.442 15.114.307 20.18 3.887 2.217 1.567 3.313 3.235 3.338 4.736M351.741 427.979l.963-6.656" style="fill:none;stroke:red;stroke-width:1.99999;stroke-linecap:round;stroke-linejoin:round;stroke-miterlimit:4;stroke-dasharray:none;stroke-opacity:1;visibility:visible"/><path d="M322.47 423.224c-.11 2.068.901 4.307 3.112 6.333 4.99 4.578 14.272 6.411 20.628 4.075 3.239-1.19 5.117-3.244 5.519-5.576l.012-.077" style="fill:none;stroke:red;stroke-width:.999997;stroke-linecap:round;stroke-linejoin:round;stroke-miterlimit:4;stroke-dasharray:none;stroke-opacity:1;visibility:visible"/><path d="m324.06 415.619-1.59 7.604" style="fill:none;stroke:red;stroke-width:1.99999;stroke-linecap:round;stroke-linejoin:round;stroke-miterlimit:4;stroke-dasharray:none;stroke-opacity:1;visibility:visible"/><path d="M328.437 416.99c.056-1.284 1.25-2.393 3.527-2.975 4.217-1.078 10.608.05 14.2 2.506 1.654 1.132 2.438 2.354 2.393 3.449M176.281 448.275c1.356 2.541 1.179 5.817-.855 9.11-3.817 6.185-12.793 10.18-19.945 8.875-3.764-.686-6.303-2.709-7.305-5.374" style="fill:none;stroke:red;stroke-width:.999997;stroke-linecap:round;stroke-linejoin:round;stroke-miterlimit:4;stroke-dasharray:none;stroke-opacity:1;visibility:visible"/><path d="M180.372 456.364c.481 2.19-.621 4.701-3.417 6.988-5.51 4.505-15.588 6.499-22.398 4.43-3.086-.937-4.992-2.554-5.64-4.46" style="fill:none;stroke:red;stroke-width:.999997;stroke-linecap:round;stroke-linejoin:round;stroke-miterlimit:4;stroke-dasharray:none;stroke-opacity:1;visibility:visible"/><path d="m148.916 463.32-.741-2.435c-.903-2.397-.563-5.314 1.246-8.244 3.819-6.185 12.794-10.18 19.946-8.876 3.345.611 5.72 2.276 6.913 4.508l4.073 8.011.019.08" style="fill:none;stroke:red;stroke-width:1.99999;stroke-linecap:round;stroke-linejoin:round;stroke-miterlimit:4;stroke-dasharray:none;stroke-opacity:1;visibility:visible"/><path d="M292.663 489.063c.315 3.584-1.599 8.28-5.833 10.47-7.108 3.677-17.834 2.351-23.832-2.945-2.058-1.816-3.303-3.872-3.764-5.938 0 0-.468-3.227.164-5.588" style="fill:none;stroke:red;stroke-width:.999997;stroke-linecap:round;stroke-linejoin:round;stroke-miterlimit:4;stroke-dasharray:none;stroke-opacity:1;visibility:visible"/><path d="m288.148 473.67-.219.07.936.669-.045-.936-.219.068" style="fill:none;stroke:red;stroke-width:.666665;stroke-linecap:round;stroke-linejoin:round;stroke-miterlimit:4;stroke-dasharray:none;stroke-opacity:1;visibility:visible"/><path d="M259.796 481.823c.393-3.619 2.568-7.003 6.372-9.192 7.227-4.159 17.705-2.492 23.284 3.704 2.51 2.79 3.62 6.039 3.42 9.15" style="fill:none;fill-opacity:1;fill-rule:nonzero;stroke:red;stroke-width:1.33333;visibility:visible"/><path d="M259.796 481.823c.393-3.619 2.568-7.003 6.372-9.192 7.227-4.159 17.705-2.492 23.284 3.704 2.51 2.79 3.62 6.039 3.42 9.15M285.65 490.048a9.88 9.88 0 0 1-2.223 1.732c-5.046 2.91-12.361 1.747-16.254-2.587a9.533 9.533 0 0 1-1.922-3.164" style="fill:none;stroke:red;stroke-width:1.99999;stroke-linecap:round;stroke-linejoin:round;stroke-miterlimit:4;stroke-dasharray:none;stroke-opacity:1;visibility:visible"/><path d="M265.25 486.03c-1.33-3.72.123-7.76 4.016-10.007 5.045-2.91 12.361-1.746 16.256 2.587 3.228 3.592 3.132 8.281.127 11.439" style="fill:none;stroke:red;stroke-width:.999997;stroke-linecap:round;stroke-linejoin:round;stroke-miterlimit:4;stroke-dasharray:none;stroke-opacity:1;visibility:visible"/><path d="M292.87 485.483c-.244 3.8-2.44 7.39-6.415 9.679-7.225 4.158-17.704 2.492-23.282-3.704-2.643-2.935-3.732-6.38-3.379-9.636" style="fill:none;stroke:red;stroke-width:.999997;stroke-linecap:round;stroke-linejoin:round;stroke-miterlimit:4;stroke-dasharray:none;stroke-opacity:1;visibility:visible"/><path d="m292.603 489.937.265-4.39M259.753 481.817l-.45 3.833M267.995 489.472c.301-1.425 1.223-2.735 2.717-3.616 3.16-1.864 7.73-1.137 10.156 1.616 1.182 1.34 1.646 2.924 1.444 4.412" style="fill:none;stroke:red;stroke-width:1.99999;stroke-linecap:round;stroke-linejoin:round;stroke-miterlimit:4;stroke-dasharray:none;stroke-opacity:1;visibility:visible"/><path d="M272.393 491.403c.112-.532.456-1.021 1.015-1.35 1.18-.698 2.888-.426 3.793.602.441.5.615 1.092.54 1.648M349.2 419.752l-.092.468c-.25 1.072-1.965 5.073-11.576 3.18-9.61-1.893-9.081-6.921-9.081-6.921l.081-.374" style="fill:none;stroke:red;stroke-width:.999997;stroke-linecap:round;stroke-linejoin:round;stroke-miterlimit:4;stroke-dasharray:none;stroke-opacity:1;visibility:visible"/><path d="m147.25 481.861 13.538 10.766M147.25 481.861l5.253 4.847M198.777 508.236l9.433 2.738M261.993 519.037l9.913-.111M145.234 553.865l6.339 9.719M269.187 604.503l7.536-.776M347.859 415.002l4.513 3.973" style="fill:none;stroke:red;stroke-width:1.99999;stroke-linecap:round;stroke-linejoin:round;stroke-miterlimit:4;stroke-dasharray:none;stroke-opacity:1;visibility:visible"/><path d="m352.671 420.776 8.096 14.808M148.916 463.32l-.74-2.434" style="fill:none;stroke:red;stroke-width:.999997;stroke-linecap:round;stroke-linejoin:round;stroke-miterlimit:4;stroke-dasharray:none;stroke-opacity:1;visibility:visible"/><path d="m259.398 485.062 8.597 4.41M292.868 485.548l-10.556 6.336" style="fill:none;stroke:red;stroke-width:1.99999;stroke-linecap:round;stroke-linejoin:round;stroke-miterlimit:4;stroke-dasharray:none;stroke-opacity:1;visibility:visible"/><path d="m259.398 485.062 12.995 6.341M292.868 485.548l-15.127 6.755" style="fill:none;stroke:red;stroke-width:.999997;stroke-linecap:round;stroke-linejoin:round;stroke-miterlimit:4;stroke-dasharray:none;stroke-opacity:1;visibility:visible"/><path d="M348.557 419.972c-.055 1.285-1.25 2.395-3.527 2.977-4.217 1.079-10.608-.05-14.201-2.506-1.655-1.132-2.439-2.355-2.392-3.451" style="fill:none;stroke:#00ff4a;stroke-width:1.99999;stroke-linecap:round;stroke-linejoin:round;stroke-miterlimit:4;stroke-dasharray:none;stroke-opacity:1;visibility:visible" visibility="hidden"/><path d="M328.452 416.479s40.52-188.996 41.341-192.389c.822-3.395 4.002-6.433 9.252-5.681 5.252.75 7.254 4.822 6.932 7.216-.322 2.394-36.618 193.525-36.869 194.597-.25 1.072-1.965 5.073-11.575 3.177-9.61-1.89-9.081-6.92-9.081-6.92" style="fill:none;fill-opacity:1;fill-rule:nonzero;stroke:#00ff4a;stroke-width:1.33333;visibility:visible" visibility="hidden"/><path d="M328.532 416.105c1.993-9.295 40.46-188.71 41.261-192.017.822-3.393 4.002-6.43 9.252-5.68 5.252.75 7.254 4.823 6.93 7.216-.311 2.332-34.742 183.645-36.775 194.128" style="fill:none;stroke:#00ff4a;stroke-width:1.99999;stroke-linecap:round;stroke-linejoin:round;stroke-miterlimit:4;stroke-dasharray:none;stroke-opacity:1;visibility:visible" visibility="hidden"/><path d="M383.596 220.87c.053.18.07.36.05.537-.149 1.256-2.191 1.907-4.563 1.454-2.372-.452-4.174-1.836-4.026-3.092a1.259 1.259 0 0 1 .291-.66" style="fill:none;fill-opacity:1;fill-rule:nonzero;stroke:#00ff4a;stroke-width:1.33333;visibility:visible" visibility="hidden"/><path d="M383.596 220.87c.053.18.07.36.05.537-.149 1.256-2.191 1.907-4.563 1.454-2.372-.452-4.174-1.836-4.026-3.092a1.259 1.259 0 0 1 .291-.66" style="fill:none;stroke:#00ff4a;stroke-width:.999997;stroke-linecap:round;stroke-linejoin:round;stroke-miterlimit:4;stroke-dasharray:none;stroke-opacity:1;visibility:visible" visibility="hidden"/><path d="M383.905 220.125c-.364.985-2.235 1.488-4.419 1.132-2.378-.387-4.229-1.644-4.133-2.808a.972.972 0 0 1 .036-.197l.503-.842c.514-.761 2.073-1.032 4.024-.713 2.228.364 3.949 1.803 4.001 2.533" style="fill:none;fill-opacity:1;fill-rule:nonzero;stroke:#00ff4a;stroke-width:1.33333;visibility:visible" visibility="hidden"/><path d="M383.905 220.125c-.364.985-2.235 1.488-4.419 1.132-2.378-.387-4.229-1.644-4.133-2.808a.972.972 0 0 1 .036-.197l.503-.842c.514-.761 2.073-1.032 4.024-.713 2.228.364 3.949 1.803 4.001 2.533l-.012.895" style="fill:none;stroke:#00ff4a;stroke-width:.999997;stroke-linecap:round;stroke-linejoin:round;stroke-miterlimit:4;stroke-dasharray:none;stroke-opacity:1;visibility:visible" visibility="hidden"/><path d="M383.752 219.048c-.45.837-2.133 1.25-4.083.93-2.226-.362-3.96-1.54-3.87-2.631M383.905 220.125l-8.106-2.778" style="fill:none;stroke:#00ff4a;stroke-width:.999997;stroke-linecap:round;stroke-linejoin:round;stroke-miterlimit:4;stroke-dasharray:none;stroke-opacity:1;visibility:visible" visibility="hidden"/><path d="M274.71 446.232s-2.213-8.337-2.283-9.315c-.069-.977 24.643-199.795 25.148-203.242.506-3.445 2.124-8.3 9.107-7.641 6.98.657 7.777 6.148 7.6 8.53-.177 2.382-21.333 204.068-21.333 204.068l-4.44 9.043s-7.138 3.629-13.799-1.443" style="fill:none;stroke:#9500ff;stroke-width:1.99999;stroke-linecap:round;stroke-linejoin:round;stroke-miterlimit:4;stroke-dasharray:none;stroke-opacity:1;visibility:visible" visibility="hidden"/><path d="M272.428 436.917s2.908 4.3 9.53 4.81c7.545.58 10.54-2.14 10.54-2.14" style="fill:none;stroke:#9500ff;stroke-width:.999997;stroke-linecap:round;stroke-linejoin:round;stroke-miterlimit:4;stroke-dasharray:none;stroke-opacity:1;visibility:visible" visibility="hidden"/><path d="M311.273 227.116c.063.177.09.356.08.535-.079 1.261-2.081 2.025-4.475 1.705-2.393-.32-4.27-1.601-4.192-2.863a1.272 1.272 0 0 1 .254-.676" style="fill:none;fill-opacity:1;fill-rule:nonzero;stroke:#9500ff;stroke-width:1.33333;visibility:visible" visibility="hidden"/><path d="M311.273 227.116c.063.177.09.356.08.535-.079 1.261-2.081 2.025-4.475 1.705-2.393-.32-4.27-1.601-4.192-2.863a1.272 1.272 0 0 1 .254-.676" style="fill:none;stroke:#9500ff;stroke-width:.999997;stroke-linecap:round;stroke-linejoin:round;stroke-miterlimit:4;stroke-dasharray:none;stroke-opacity:1;visibility:visible" visibility="hidden"/><path d="M311.54 226.355c-.308 1.004-2.148 1.61-4.35 1.377-2.395-.254-4.313-1.406-4.282-2.573a1.11 1.11 0 0 1 .025-.2l.456-.868c.472-.79 2.012-1.145 3.978-.936 2.244.239 4.044 1.58 4.136 2.307" style="fill:none;fill-opacity:1;fill-rule:nonzero;stroke:#9500ff;stroke-width:1.33333;visibility:visible" visibility="hidden"/><path d="M311.54 226.355c-.308 1.004-2.148 1.61-4.35 1.377-2.395-.254-4.313-1.406-4.282-2.573a1.11 1.11 0 0 1 .025-.2l.456-.868c.472-.79 2.012-1.145 3.978-.936 2.244.239 4.044 1.58 4.136 2.307l.037.893" style="fill:none;stroke:#9500ff;stroke-width:.999997;stroke-linecap:round;stroke-linejoin:round;stroke-miterlimit:4;stroke-dasharray:none;stroke-opacity:1;visibility:visible" visibility="hidden"/><path d="M311.327 225.287c-.403.861-2.059 1.367-4.024 1.157-2.244-.238-4.04-1.318-4.01-2.412M311.54 226.355l-8.248-2.323" style="fill:none;stroke:#9500ff;stroke-width:.999997;stroke-linecap:round;stroke-linejoin:round;stroke-miterlimit:4;stroke-dasharray:none;stroke-opacity:1;visibility:visible" visibility="hidden"/><path d="M172.236 450.217c.773 1.657.657 3.753-.535 5.917-2.461 4.467-8.614 7.602-13.676 6.966-2.896-.364-4.83-1.887-5.494-3.962" style="fill:none;stroke:#ffdf00;stroke-width:1.99999;stroke-linecap:round;stroke-linejoin:round;stroke-miterlimit:4;stroke-dasharray:none;stroke-opacity:1;visibility:visible" visibility="hidden"/><path d="M152.53 459.139c-.497-1.55-.283-3.408.77-5.319 2.46-4.466 8.614-7.601 13.674-6.965 2.61.328 4.44 1.597 5.261 3.363M160.519 462.895c.085-.341.219-.692.399-1.047 1.336-2.632 4.833-4.564 7.772-4.294a4.847 4.847 0 0 1 1.448.349" style="fill:none;stroke:#ffdf00;stroke-width:.999997;stroke-linecap:round;stroke-linejoin:round;stroke-miterlimit:4;stroke-dasharray:none;stroke-opacity:1;visibility:visible" visibility="hidden"/><path d="m172.556 449.833.119.224s2.888 6.637-5.644 11.413c-9.135 5.115-13.86-.282-13.86-.282l-.159-.312" style="fill:none;stroke:#ffdf00;stroke-width:.999997;stroke-linecap:round;stroke-linejoin:round;stroke-miterlimit:4;stroke-dasharray:none;stroke-opacity:1;visibility:visible" visibility="hidden"/><path d="M152.885 460.06c-4.041-7.899-83.224-163.486-84.325-165.73-1.13-2.302-2.216-8.386 3.388-11.559 5.605-3.17 10.69-.565 11.776 1 1.063 1.532 84.753 158.705 88.349 165.457" style="fill:none;stroke:#ffdf00;stroke-width:1.99999;stroke-linecap:round;stroke-linejoin:round;stroke-miterlimit:4;stroke-dasharray:none;stroke-opacity:1;visibility:visible" visibility="hidden"/><path d="M77.177 281.795c.147.116.265.253.35.41.602 1.113-.693 2.82-2.891 3.817-2.2.996-4.471.904-5.072-.208a1.25 1.25 0 0 1-.143-.707" style="fill:none;fill-opacity:1;fill-rule:nonzero;stroke:#ffdf00;stroke-width:1.33333;visibility:visible" visibility="hidden"/><path d="M77.177 281.795c.147.116.265.253.35.41.602 1.113-.693 2.82-2.891 3.817-2.2.996-4.471.904-5.072-.208a1.25 1.25 0 0 1-.143-.707" style="fill:none;stroke:#ffdf00;stroke-width:.999997;stroke-linecap:round;stroke-linejoin:round;stroke-miterlimit:4;stroke-dasharray:none;stroke-opacity:1;visibility:visible" visibility="hidden"/><path d="M77.001 281.007c.27 1.016-.97 2.504-2.96 3.472-2.168 1.053-4.404 1.09-4.996.084a.93.93 0 0 1-.084-.181l-.073-.978c-.019-.92 1.101-2.037 2.877-2.9 2.03-.986 4.267-.802 4.73-.236" style="fill:none;fill-opacity:1;fill-rule:nonzero;stroke:#ffdf00;stroke-width:1.33333;visibility:visible" visibility="hidden"/><path d="M77.001 281.007c.27 1.016-.97 2.504-2.96 3.472-2.168 1.053-4.404 1.09-4.996.084a.93.93 0 0 1-.084-.181l-.073-.978c-.019-.92 1.101-2.037 2.877-2.9 2.03-.986 4.267-.802 4.73-.236l.506.739" style="fill:none;stroke:#ffdf00;stroke-width:.999997;stroke-linecap:round;stroke-linejoin:round;stroke-miterlimit:4;stroke-dasharray:none;stroke-opacity:1;visibility:visible" visibility="hidden"/><path d="M76.255 280.215c.115.944-1.024 2.25-2.8 3.112-2.03.987-4.127 1.021-4.681.079M77.001 281.007l-8.227 2.399" style="fill:none;stroke:#ffdf00;stroke-width:.999997;stroke-linecap:round;stroke-linejoin:round;stroke-miterlimit:4;stroke-dasharray:none;stroke-opacity:1;visibility:visible" visibility="hidden"/><path d="M216.753 388.119c.104.921-.781 1.885-2.665 2.653-3.631 1.482-9.651 1.692-13.378.471-1.861-.61-2.812-1.468-2.845-2.359" style="fill:none;stroke:#00d4ff;stroke-width:1.99999;stroke-linecap:round;stroke-linejoin:round;stroke-miterlimit:4;stroke-dasharray:none;stroke-opacity:1;visibility:visible" visibility="hidden"/><path d="M197.865 388.884c-.032-.89.856-1.815 2.672-2.556 3.632-1.48 9.652-1.692 13.377-.47 1.794.589 2.742 1.406 2.839 2.26" style="fill:none;stroke:#00d4ff;stroke-width:.999997;stroke-linecap:round;stroke-linejoin:round;stroke-miterlimit:4;stroke-dasharray:none;stroke-opacity:1;visibility:visible" visibility="hidden"/><path d="M197.995 389.333s-5.443-184.457-5.477-187.337c-.036-2.881 2.312-6.119 6.829-6.083 4.516.035 7.683 2.312 7.93 5.834.25 3.521 9.96 186.163 9.96 186.163s.25 4.162-9.354 4.518c-9.604.356-9.888-3.095-9.888-3.095" style="fill:none;fill-opacity:1;fill-rule:nonzero;stroke:#00d4ff;stroke-width:1.33333;visibility:visible" visibility="hidden"/><path d="m217.21 387.415.027.496s.249 4.161-9.355 4.517c-9.604.356-10.395-3.094-10.395-3.094l-.016-.534" style="fill:none;stroke:#00d4ff;stroke-width:.999997;stroke-linecap:round;stroke-linejoin:round;stroke-miterlimit:4;stroke-dasharray:none;stroke-opacity:1;visibility:visible" visibility="hidden"/><path d="M197.617 388.8c-.32-10.861-5.065-184.014-5.1-186.805-.036-2.88 2.312-6.117 6.83-6.081 4.517.034 7.682 2.312 7.931 5.833.242 3.415 9.378 175.226 9.932 185.668" style="fill:none;stroke:#00d4ff;stroke-width:1.99999;stroke-linecap:round;stroke-linejoin:round;stroke-miterlimit:4;stroke-dasharray:none;stroke-opacity:1;visibility:visible" visibility="hidden"/><path d="M203.517 196.245a1.347 1.347 0 0 1 .179.51c.16 1.254-1.666 2.38-4.076 2.514-2.41.135-4.494-.773-4.654-2.027a1.257 1.257 0 0 1 .122-.71" style="fill:none;fill-opacity:1;fill-rule:nonzero;stroke:#00d4ff;stroke-width:1.33333;visibility:visible" visibility="hidden"/><path d="M203.517 196.245a1.347 1.347 0 0 1 .179.51c.16 1.254-1.666 2.38-4.076 2.514-2.41.135-4.494-.773-4.654-2.027a1.257 1.257 0 0 1 .122-.71" style="fill:none;stroke:#00d4ff;stroke-width:.999997;stroke-linecap:round;stroke-linejoin:round;stroke-miterlimit:4;stroke-dasharray:none;stroke-opacity:1;visibility:visible" visibility="hidden"/><path d="M203.637 195.448c-.115 1.044-1.808 1.984-4.013 2.167-2.403.2-4.502-.572-4.69-1.724a1.023 1.023 0 0 1-.013-.2l.285-.939c.316-.864 1.763-1.503 3.731-1.665 2.25-.187 4.27.794 4.496 1.489" style="fill:none;fill-opacity:1;fill-rule:nonzero;stroke:#00d4ff;stroke-width:1.33333;visibility:visible" visibility="hidden"/><path d="M203.637 195.448c-.115 1.044-1.808 1.984-4.013 2.167-2.403.2-4.502-.572-4.69-1.724a1.023 1.023 0 0 1-.013-.2l.285-.939c.316-.864 1.763-1.503 3.731-1.665 2.25-.187 4.27.794 4.496 1.489l.204.872" style="fill:none;stroke:#00d4ff;stroke-width:.999997;stroke-linecap:round;stroke-linejoin:round;stroke-miterlimit:4;stroke-dasharray:none;stroke-opacity:1;visibility:visible" visibility="hidden"/><path d="M203.227 194.439c-.235.921-1.767 1.728-3.736 1.89-2.25.187-4.216-.538-4.393-1.617M203.637 195.448l-8.54-.736" style="fill:none;stroke:#00d4ff;stroke-width:.999997;stroke-linecap:round;stroke-linejoin:round;stroke-miterlimit:4;stroke-dasharray:none;stroke-opacity:1;visibility:visible" visibility="hidden"/><path d="m197.995 389.333 18.16-5.023M152.885 460.06l-14.182 4.952" style="fill:none;stroke:red;stroke-width:1.99999;stroke-linecap:round;stroke-linejoin:round;stroke-miterlimit:4;stroke-dasharray:none;stroke-opacity:1;visibility:visible"/><path d="m172.073 449.228 4.208-.953" style="fill:none;stroke:red;stroke-width:.999997;stroke-linecap:round;stroke-linejoin:round;stroke-miterlimit:4;stroke-dasharray:none;stroke-opacity:1;visibility:visible"/></svg>