<svg xmlns="http://www.w3.org/2000/svg" baseProfile="full" height="1122.52" preserveAspectRatio="xMinYMin meet" style="width:912px;height:1303px" width="793.701" xml:space="preserve"><path d="M259.751 904.443a.813.813 0 0 0 .544.748M258.942 898.329l.807 6.114M588.917 1022.307a1 1 0 0 0 .488-1.09M583.701 1002.055l-232.609-88.953M587.097 1003.352l-3.396-1.297M587.665 1004.178v-.032l-.114-.37-.167-.242-.237-.162-.05-.01M589.416 1021.21l-1.75-17.031M260.582 905.707l312.203 117.928M581.212 1026.527l7.71-4.212M572.785 1023.634l7.775 2.942M580.559 1026.566a.73.73 0 0 0 .718-.076M248.462 818.105a.816.816 0 0 0 1.05.785M246.358 801.862l2.096 16.243M246.931 800.803a.907.907 0 0 0-.561 1.06M556.33 710.074a1.036 1.036 0 0 0 .52-1.124M556.856 708.949l-1.886-17.921M554.97 691.028a.89.89 0 0 0-.861-.918.772.772 0 0 0-.36.063" style="fill:none;stroke:red;stroke-width:1.99999;stroke-linecap:round;stroke-linejoin:round;stroke-miterlimit:500;stroke-dasharray:none;stroke-opacity:1;visibility:visible"/><path d="m587.359 1004.04-7.78 4.156M579.575 1008.148c-.123.046-.202.256-.175.47 0 .01 0 .021.005.03M579.439 1008.636l1.811 17.088M305.355 799.23l-3.932 1.393M299 801.485l-3.9 1.385" style="fill:none;stroke:red;stroke-width:.999997;stroke-linecap:round;stroke-linejoin:round;stroke-miterlimit:500;stroke-dasharray:none;stroke-opacity:1;visibility:visible"/><path d="M589.184 1021.807c.12-.041.2-.252.179-.463-.007-.018-.007-.03-.007-.041M589.319 1021.323l-1.75-17.041" style="fill:none;stroke:red;stroke-width:1.99999;stroke-linecap:round;stroke-linejoin:round;stroke-miterlimit:500;stroke-dasharray:none;stroke-opacity:1;visibility:visible"/><path d="m477.556 964.902-.601-.17-.645-.072-.595.031-.455.132-.243.21.008.261.247.26.459.241.601.161.648.072.592-.03.453-.13.247-.21-.005-.254-.252-.27-.459-.232" style="fill:none;stroke:red;stroke-width:.999997;stroke-linecap:round;stroke-linejoin:round;stroke-miterlimit:500;stroke-dasharray:none;stroke-opacity:1;visibility:visible"/><path d="M587.359 1004.04a.82.82 0 0 0-.494-.664" style="fill:none;stroke:red;stroke-width:1.99999;stroke-linecap:round;stroke-linejoin:round;stroke-miterlimit:500;stroke-dasharray:none;stroke-opacity:1;visibility:visible"/><path d="m547.527 712.092-1.867-18.028" style="fill:none;stroke:red;stroke-width:.999997;stroke-linecap:round;stroke-linejoin:round;stroke-miterlimit:500;stroke-dasharray:none;stroke-opacity:1;visibility:visible"/><path d="m246.606 801.92 2.094 16.244" style="fill:none;stroke:red;stroke-width:1.99999;stroke-linecap:round;stroke-linejoin:round;stroke-miterlimit:500;stroke-dasharray:none;stroke-opacity:1;visibility:visible"/><path d="M545.91 692.761c-.348.136-.501.727-.356 1.336" style="fill:none;stroke:red;stroke-width:.999997;stroke-linecap:round;stroke-linejoin:round;stroke-miterlimit:500;stroke-dasharray:none;stroke-opacity:1;visibility:visible"/><path d="M246.937 800.787 538.54 695.52M246.887 800.61c-.34.145-.493.73-.344 1.33M545.933 692.854l7.887-2.712M554.652 690.796a.683.683 0 0 0-.833-.656M556.753 709.02l-1.888-17.93M538.54 695.521l7.393-2.667" style="fill:none;stroke:red;stroke-width:1.99999;stroke-linecap:round;stroke-linejoin:round;stroke-miterlimit:500;stroke-dasharray:none;stroke-opacity:1;visibility:visible"/><path d="M547.42 712.132c.16.614.576 1.012.928.885.008 0 .012 0 .017-.005" style="fill:none;stroke:red;stroke-width:.999997;stroke-linecap:round;stroke-linejoin:round;stroke-miterlimit:500;stroke-dasharray:none;stroke-opacity:1;visibility:visible"/><path d="m556.25 710.105-7.913 2.82M556.25 710.105a.61.61 0 0 0 .362-.664M548.337 712.925l-3.25 1.157M545.087 714.082 249.543 818.878M248.64 818.183c.154.62.572 1.012.928.887a.049.049 0 0 0 .027-.011M308.538 798.362l2.152-.301 2.16-.076 2.15.155 2.128.385 2.107.61 2.068.823 2.027 1.045 1.976 1.26 1.914 1.462 1.846 1.665 1.773 1.856 1.691 2.044 1.605 2.213 1.507 2.378 1.41 2.541 1.299 2.68 1.195 2.815 1.074 2.938.96 3.052.831 3.143.707 3.235.581 3.304.448 3.365.313 3.413.182 3.439.05 3.463-.092 3.466-.22 3.455-.359 3.433-.486 3.397-.617 3.345-.748 3.281-.87 3.215-.992 3.113-1.112 3.013-1.224 2.904-.565 1.219" style="fill:none;stroke:red;stroke-width:1.99999;stroke-linecap:round;stroke-linejoin:round;stroke-miterlimit:500;stroke-dasharray:none;stroke-opacity:1;visibility:visible"/><path d="m280.773 875.294-.574-2.339-.693-3.368-.555-3.44-.41-3.506-.274-3.548-.125-3.575.019-3.595.164-3.585.304-3.568.45-3.541.588-3.482.73-3.425.862-3.344.991-3.25 1.119-3.134 1.237-3.016 1.353-2.881 1.464-2.737 1.567-2.575 1.655-2.405 1.749-2.218 1.826-2.032 1.898-1.837 1.961-1.636 2.019-1.419 2.065-1.203 2.099-.985 2.127-.755 2.149-.532" style="fill:none;stroke:red;stroke-width:.999997;stroke-linecap:round;stroke-linejoin:round;stroke-miterlimit:500;stroke-dasharray:none;stroke-opacity:1;visibility:visible"/><path d="m272.415 873.84-.455-1.75-.706-3.19M270.36 863.113l-.102-.806-.293-3.382-.146-3.406-.005-3.428.14-3.421.281-3.412.423-3.375.56-3.328.7-3.265.828-3.188.959-3.09 1.082-2.986 1.204-2.864 1.312-2.724 1.424-2.585 1.523-2.423 1.613-2.25 1.698-2.077 1.776-1.883 1.843-1.689 1.907-1.48 1.956-1.278 1.995-1.053 2.03-.839.034-.011" style="fill:none;stroke:red;stroke-width:1.99999;stroke-linecap:round;stroke-linejoin:round;stroke-miterlimit:500;stroke-dasharray:none;stroke-opacity:1;visibility:visible"/><path d="m313.426 863.753-.983.266-.986.044-.98-.18-.947-.403-.904-.619-.839-.824-.754-1.012-.66-1.175-.547-1.325-.432-1.439-.299-1.528-.165-1.593-.028-1.623.112-1.623.248-1.582.38-1.522.505-1.421.62-1.3.719-1.156.807-.98.88-.79.936-.583.968-.369.989-.146.984.084.964.301.925.522.864.733.792.923.706 1.096.596 1.253.485 1.38.358 1.481.233 1.558.093 1.597-.041 1.612-.18 1.593-.31 1.547-.437 1.467-.555 1.358-.663 1.227-.762 1.073-.839.891-.902.695-.951.492M301.423 800.631c-.257.086.094-.04-.173.055-.601.221.23-.084-.417.156-.718.265.246-.092-.483.178l-.508.19c-.747.275.23-.084-.487.173-.628.227.175-.057-.401.144l-.252.083c-.147.036-.005.005-.073.016.136-.056-.091.039.114-.046.38-.139-.166.057.274-.103.565-.192-.22.073.393-.138.699-.234-.25.086.472-.156.57-.196-.19.063.38-.13M273.667 863.714c.093-.31-.036.093.066-.203.127-.265-.05.075.089-.169.161-.221-.063.063.112-.144.192-.159-.068.043.13-.099.222-.101-.079.022.148-.065.242-.03-.082 0 .165-.015.257.039-.09-.026.172.031.26.104-.09-.047.173.081.267.179-.088-.073.175.127.173.157-.052-.064.117.107.17.198-.055-.065.112.135.208.295-.065-.106.136.2.192.342-.057-.123.127.233.157.367-.047-.127.1.245.129.401-.035-.136.081.27.085.392-.019-.124.053.259.047.4-.008-.131.027.263.008.37.005-.117.003.241-.033.355.017-.109-.027.232-.068.312.032-.093-.047.208-.106.279.042-.085-.076.183-.137.232.055-.068-.096.148-.174.185.063-.047-.12.123-.205.12.074-.031-.137.073-.235.065.08-.005-.159.036-.25-.01.086.019-.169-.01-.268-.087.093.039-.177-.064" style="fill:none;stroke:red;stroke-width:.999997;stroke-linecap:round;stroke-linejoin:round;stroke-miterlimit:500;stroke-dasharray:none;stroke-opacity:1;visibility:visible"/><path d="m312.435 864.063-.98-.18-.948-.403-.902-.619-.84-.824-.755-1.012-.66-1.175-.549-1.325-.427-1.439-.301-1.528-.167-1.593-.026-1.623.113-1.623.246-1.582.381-1.522.505-1.421.62-1.3.718-1.156.808-.98.88-.79.935-.583.97-.369" style="fill:none;stroke:red;stroke-width:.999997;stroke-linecap:round;stroke-linejoin:round;stroke-miterlimit:500;stroke-dasharray:none;stroke-opacity:1;visibility:visible"/><path d="M306.631 859.886a17.097 17.097 0 0 0 .472-15.137" style="fill:none;stroke:red;stroke-width:1.33333;stroke-linecap:round;stroke-linejoin:round;stroke-miterlimit:500;stroke-dasharray:none;stroke-opacity:1;visibility:visible"/><path d="m248.877 869.758-.487-1.624-.688-2.756-.557-2.839-.42-2.905-.276-2.953-.135-2.986.01-3.005.155-2.996.296-2.977.438-2.943.572-2.888.714-2.804.838-2.721.963-2.615 1.087-2.493 1.198-2.359 1.302-2.208 1.398-2.046 1.492-1.874 1.568-1.686 1.644-1.498 1.7-1.292 1.753-1.084 1.793-.866.423-.17" style="fill:none;stroke:red;stroke-width:.999997;stroke-linecap:round;stroke-linejoin:round;stroke-miterlimit:500;stroke-dasharray:none;stroke-opacity:1;visibility:visible"/><path d="m240.84 868.365-.61-1.94-.67-2.588-.19-.959M238.67 858.722l-.044-.303-.256-2.788-.113-2.824.025-2.827.172-2.829.313-2.804.451-2.761.588-2.7.724-2.617.85-2.529.966-2.417 1.091-2.28 1.193-2.15 1.296-1.983 1.39-1.824 1.47-1.636 1.544-1.457 1.607-1.25 1.656-1.045 1.702-.833.396-.162M280.66 814.93a16.079 16.079 0 0 0-13.99-2.12" style="fill:none;stroke:red;stroke-width:1.99999;stroke-linecap:round;stroke-linejoin:round;stroke-miterlimit:500;stroke-dasharray:none;stroke-opacity:1;visibility:visible"/><path d="M241.78 859.113c.15-.8-.098.224.121-.514.165-.296-.061.084.116-.189.208-.221-.078.06.143-.141.237-.139-.09.031.159-.086.268-.046-.089 0 .181-.021.555.139-.19-.112.371.12.276.21-.089-.084.184.148.265.284-.085-.11.175.199.237.35-.075-.129.155.241.208.404-.06-.148.137.273.161.443-.05-.153.104.3.12.472-.028-.158.076.312.088.928.013-.29.039.612-.047.413.026-.132-.036.267-.102.359.041-.105-.075.239-.152.289.06-.083-.103.182-.193.219.071-.054-.133.139-.228.137.084-.024-.153.083-.261.049.089 0-.175.029-.279-.04.092.025-.186-.04-.287-.117.095.06-.194-.083" style="fill:none;stroke:red;stroke-width:.999997;stroke-linecap:round;stroke-linejoin:round;stroke-miterlimit:500;stroke-dasharray:none;stroke-opacity:1;visibility:visible"/><path d="m270.295 862.657-.757-.159-.959-.401-.913-.612-.847-.812-.764-.998-.665-1.164-.557-1.308-.436-1.423-.304-1.517-.17-1.569-.026-1.605.112-1.602.25-1.565.383-1.497.51-1.411.624-1.287.725-1.137.818-.964.886-.781.945-.579.979-.367.929-.138" style="fill:none;stroke:red;stroke-width:1.33333;stroke-linecap:round;stroke-linejoin:round;stroke-miterlimit:500;stroke-dasharray:none;stroke-opacity:1;visibility:visible"/><path d="M265.606 858.842a16.468 16.468 0 0 0 .487-15.539" style="fill:none;stroke:red;stroke-width:1.33333;stroke-linecap:round;stroke-linejoin:round;stroke-miterlimit:500;stroke-dasharray:none;stroke-opacity:1;visibility:visible"/><path d="M578.264 1008.648 305.189 906.266" style="fill:none;stroke:red;stroke-width:.999997;stroke-linecap:round;stroke-linejoin:round;stroke-miterlimit:500;stroke-dasharray:none;stroke-opacity:1;visibility:visible"/><path d="M259.931 904.542c-.016.412.104.737.31.838M588.923 1022.315a.544.544 0 0 0 .253-.557M581.241 1026.51a.558.558 0 0 0 .224-.535" style="fill:none;stroke:red;stroke-width:1.99999;stroke-linecap:round;stroke-linejoin:round;stroke-miterlimit:500;stroke-dasharray:none;stroke-opacity:1;visibility:visible"/><path d="m295.1 802.87 10.255-3.64M301.423 800.623l-2.423.862M271.254 868.9l9.519 6.394" style="fill:none;stroke:red;stroke-width:.999997;stroke-linecap:round;stroke-linejoin:round;stroke-miterlimit:500;stroke-dasharray:none;stroke-opacity:1;visibility:visible"/><path d="m280.773 875.294-9.519-6.394" style="fill:none;stroke:red;stroke-width:1.99999;stroke-linecap:round;stroke-linejoin:round;stroke-miterlimit:500;stroke-dasharray:none;stroke-opacity:1;visibility:visible"/><path d="m301.423 800.623-1.161.43M266.67 812.81l-1.012.36" style="fill:none;stroke:red;stroke-width:.999997;stroke-linecap:round;stroke-linejoin:round;stroke-miterlimit:500;stroke-dasharray:none;stroke-opacity:1;visibility:visible"/><path d="m238.67 858.722.7 4.156M239.37 862.878l-.7-4.156M249.543 818.878l6.148-2.175M265.658 813.17l1.012-.36" style="fill:none;stroke:red;stroke-width:1.99999;stroke-linecap:round;stroke-linejoin:round;stroke-miterlimit:500;stroke-dasharray:none;stroke-opacity:1;visibility:visible"/><path d="m583.701 1002.055-5.437 6.593" style="fill:none;stroke:red;stroke-width:.999997;stroke-linecap:round;stroke-linejoin:round;stroke-miterlimit:500;stroke-dasharray:none;stroke-opacity:1;visibility:visible"/><path d="M349.404 827.143a.773.773 0 0 0 .808.732c.042-.002.08-.01.118-.013M347.103 808.307l1.05 8.59M348.822 822.375l.58 4.748M347.65 807.31a.867.867 0 0 0-.55.977M356.855 803.94l-9.21 3.36M708.32 804.725a.94.94 0 0 0 .497-1.035M698.692 789.769l-341.618 14.13M708.816 803.73l-1.124-13.475M706.878 789.43l-8.186.34M707.68 790.26a.763.763 0 0 0-.683-.826.899.899 0 0 0-.237.018M350.22 827.886l16.198-.901M379.667 826.249l316.873-17.636M696.54 808.614l3.72-.21M700.529 808.34l7.791-3.606M706.82 789.452l-8.17.336" style="fill:none;stroke:#00ff4a;stroke-width:1.99999;stroke-linecap:round;stroke-linejoin:round;stroke-miterlimit:500;stroke-dasharray:none;stroke-opacity:1;visibility:visible"/><path d="m347.784 807.277 347.48-14.219M695.264 793.058l3.736-.156M699 792.902l7.82-3.45" style="fill:none;stroke:#00ff4a;stroke-width:.999997;stroke-linecap:round;stroke-linejoin:round;stroke-miterlimit:500;stroke-dasharray:none;stroke-opacity:1;visibility:visible"/><path d="m698.649 789.788-341.653 14.13M356.996 803.92l-9.212 3.359" style="fill:none;stroke:#00ff4a;stroke-width:1.99999;stroke-linecap:round;stroke-linejoin:round;stroke-miterlimit:500;stroke-dasharray:none;stroke-opacity:1;visibility:visible"/><path d="M699.212 792.7c-.26.119-.427.716-.375 1.338a.532.532 0 0 1 .01.109M584.477 805.165l-.564.148-.453.352-.28.513-.05.59.171.581.38.476.523.309.592.09.563-.144.451-.358.28-.51.055-.592-.175-.575-.381-.487-.519-.305-.593-.088M353.804 819.54c1.147.817 2.686.676 3.538-.346.893-1.073.68-2.719-.476-3.677-1.156-.962-2.816-.87-3.71.205a2.335 2.335 0 0 0-.35.563M699.938 807.657l-1.148-13.62M402.067 817.375c1.11.636 2.497.455 3.29-.492.893-1.076.677-2.729-.476-3.688-1.158-.96-2.814-.865-3.711.212a2.293 2.293 0 0 0-.379.638" style="fill:none;stroke:#00ff4a;stroke-width:.999997;stroke-linecap:round;stroke-linejoin:round;stroke-miterlimit:500;stroke-dasharray:none;stroke-opacity:1;visibility:visible"/><path d="m348.822 822.375-.669-5.478M348.153 816.897l.669 5.478M379.667 826.249l-13.249.736M366.418 826.985l13.249-.736" style="fill:none;stroke:#00ff4a;stroke-width:1.99999;stroke-linecap:round;stroke-linejoin:round;stroke-miterlimit:500;stroke-dasharray:none;stroke-opacity:1;visibility:visible"/><path d="m439.93 927.323.22.021.286-.078" style="fill:none;stroke:#9500ff;stroke-width:.999997;stroke-linecap:round;stroke-linejoin:round;stroke-miterlimit:500;stroke-dasharray:none;stroke-opacity:1;visibility:visible"/><path d="m192.678 887.714 5.03.805M211.942 890.8l221.72 35.532M440.436 927.268l10.768-4.874M433.663 926.331l6.267 1.009" style="fill:none;stroke:#9500ff;stroke-width:1.99999;stroke-linecap:round;stroke-linejoin:round;stroke-miterlimit:500;stroke-dasharray:none;stroke-opacity:1;visibility:visible"/><path d="m449.122 904.485-2.84-.495M449.906 905.353a.953.953 0 0 0-.774-.858" style="fill:none;stroke:#9500ff;stroke-width:.999997;stroke-linecap:round;stroke-linejoin:round;stroke-miterlimit:500;stroke-dasharray:none;stroke-opacity:1;visibility:visible"/><path d="M191.968 886.753a.84.84 0 0 0 .688.8M451.199 922.383a1.064 1.064 0 0 0 .591-1.21M451.806 921.17l-1.892-15.768" style="fill:none;stroke:#9500ff;stroke-width:1.99999;stroke-linecap:round;stroke-linejoin:round;stroke-miterlimit:500;stroke-dasharray:none;stroke-opacity:1;visibility:visible"/><path d="M225.775 884.414c.523.848 1.29 1.325 1.958 1.121.887-.265 1.266-1.637.836-3.057-.427-1.416-1.495-2.35-2.389-2.088-.402.123-.698.47-.863.945" style="fill:none;stroke:#9500ff;stroke-width:.999997;stroke-linecap:round;stroke-linejoin:round;stroke-miterlimit:500;stroke-dasharray:none;stroke-opacity:1;visibility:visible"/><path d="m189.309 866.709 1.42 10.453M191.384 881.974l.676 4.995" style="fill:none;stroke:#9500ff;stroke-width:1.99999;stroke-linecap:round;stroke-linejoin:round;stroke-miterlimit:500;stroke-dasharray:none;stroke-opacity:1;visibility:visible"/><path d="m431.778 908.26 6.272 1.108M438.575 910.574l1.908 15.776M194.617 879.771c.432.375.923.542 1.37.407.889-.263 1.264-1.636.837-3.052-.427-1.423-1.496-2.36-2.387-2.09-.599.181-.965.859-1.01 1.714" style="fill:none;stroke:#9500ff;stroke-width:.999997;stroke-linecap:round;stroke-linejoin:round;stroke-miterlimit:500;stroke-dasharray:none;stroke-opacity:1;visibility:visible"/><path d="m448.838 904.507-2.866-.494" style="fill:none;stroke:#9500ff;stroke-width:1.99999;stroke-linecap:round;stroke-linejoin:round;stroke-miterlimit:500;stroke-dasharray:none;stroke-opacity:1;visibility:visible"/><path d="m189.942 865.525 241.836 42.735M438.05 909.367l10.789-4.861" style="fill:none;stroke:#9500ff;stroke-width:.999997;stroke-linecap:round;stroke-linejoin:round;stroke-miterlimit:500;stroke-dasharray:none;stroke-opacity:1;visibility:visible"/><path d="M192.009 886.829c.051.471.31.821.647.893M190.148 865.378c-.432.15-.728.748-.664 1.35M449.532 905.249a.819.819 0 0 0-.694-.743M445.972 904.011l-245.184-42.526M200.787 861.485l-10.845 4.04" style="fill:none;stroke:#9500ff;stroke-width:1.99999;stroke-linecap:round;stroke-linejoin:round;stroke-miterlimit:500;stroke-dasharray:none;stroke-opacity:1;visibility:visible"/><path d="M302.238 905.269a20.907 20.907 0 0 0 9.892 1.589M440.436 927.268a.61.61 0 0 0 .308-.656" style="fill:none;stroke:#9500ff;stroke-width:.999997;stroke-linecap:round;stroke-linejoin:round;stroke-miterlimit:500;stroke-dasharray:none;stroke-opacity:1;visibility:visible"/><path d="M451.204 922.394a.625.625 0 0 0 .308-.654M211.942 890.8l-14.234-2.281M197.708 888.519l14.234 2.281M191.384 881.974l-.655-4.812M190.729 877.162l.655 4.812" style="fill:none;stroke:#9500ff;stroke-width:1.99999;stroke-linecap:round;stroke-linejoin:round;stroke-miterlimit:500;stroke-dasharray:none;stroke-opacity:1;visibility:visible"/><path d="m449.532 905.249-10.957 5.325M191.968 886.753l1.459-10.003" style="fill:none;stroke:#9500ff;stroke-width:.999997;stroke-linecap:round;stroke-linejoin:round;stroke-miterlimit:500;stroke-dasharray:none;stroke-opacity:1;visibility:visible"/></svg>