<svg xmlns="http://www.w3.org/2000/svg" baseProfile="full" height="1122.52" preserveAspectRatio="xMinYMin meet" style="width:765px;height:943px" width="793.701" xml:space="preserve"><path d="M286.663 257.162c.02-.2.002.068.01-.135-.196-.555.136.183-.166-.37-.482-.513.203.17-.344-.339-.753-.488.3.154-.528-.32-.974-.42.367.13-.669-.273-1.22-.367.444.105-.833-.236-1.364-.28.485.076-.923-.181-1.544-.194.536.044-1.04-.12-1.595-.085.545.011-1.07-.046-1.692.018.57-.028-1.13.024-1.648.121.547-.063-1.097.09-1.651.234.537-.094-1.093.166-1.515.318.482-.122-.997.218-1.422.423.442-.156-.933.29-1.21.495.364-.178-.787.338-1.032.586.299-.206-.668.397-.765.622.208-.219-.485.42-.521.684.128-.23-.324.457-.253.683.01-.23-.13.458.012.15-.012-.05.009.101" style="fill:none;stroke:red;stroke-width:.666665;stroke-linecap:round;stroke-linejoin:round;stroke-miterlimit:500;stroke-dasharray:none;stroke-opacity:1;visibility:visible"/><path d="m199.018 411.508.059-.016.461-.104.648-.128.844-.146 1.035-.156 1.228-.162 1.41-.164 1.587-.165 1.761-.164 1.929-.16 2.087-.16 2.243-.153 2.387-.15 2.533-.144 2.672-.138 2.803-.128 2.928-.126 3.044-.114 3.157-.115 3.261-.101 3.358-.09 3.452-.09 3.53-.071 3.606-.07 3.669-.061 3.731-.049 3.779-.041 3.818-.03 3.852-.021 3.876-.017 3.888-.002 3.893.008 3.895.016 3.881.028 3.862.036 3.825.044 3.793.056 3.743.062 3.687.073 3.626.081 1.116.028M334.3 416.23a383.75 383.75 0 0 0 21.145-1.364M198.425 413.664l.359.07 1.285.214 1.508.218 1.613.204 1.732.188 1.85.184 1.976.178 2.102.174 2.215.165 2.333.159 2.45.152 2.559.151 2.663.139 2.768.136 2.857.127 2.952.117 3.036.118 3.117.104 3.193.102 3.257.094 3.323.085 3.377.077 3.433.07 3.474.06 3.513.057 3.547.043 3.576.04 3.59.031 3.608.021 3.616.011 3.618.007h3.612l3.6-.012 3.582-.018 3.561-.03 3.53-.038 3.492-.04 3.45-.052 3.404-.062 2.914-.057M311.631 398.727l-.18-.007-3.67-.086-3.729-.079-3.781-.067-3.826-.058-3.86-.046-3.891-.034-3.908-.024-3.917-.018-3.92-.002-3.912.004-3.898.016-3.873.024-3.839.034-3.802.05-3.746.061-3.689.063-3.631.08-3.549.085-3.472.095-3.381.108-3.287.114-3.184.123-3.08.132-2.963.14-2.842.15-2.721.155-2.587.163-2.454.172-2.316.177-2.176.186-2.037.192-1.89.2-1.745.205-1.004.136M355.444 414.866l.891-.094 1.63-.186 1.49-.199 1.383-.207 1.265-.226 1.192-.254 1.2-.337.732-.27.57-.257.53-.305.507-.36.492-.431.461-.525.416-.627.341-.74.224-.818.088-.947-.088-.91-.23-.832-.335-.725-.401-.618-.442-.514-.464-.424-.482-.358-.51-.31-.57-.279-.679-.275-.937-.306-1.292-.324-1.29-.266-1.373-.236-1.612-.236-1.73-.224-1.856-.218-1.998-.208-2.14-.197-2.272-.192-2.41-.184-2.542-.179-2.677-.17-2.804-.164-2.92-.158-2.554-.12" style="fill:none;stroke:red;stroke-width:1.99999;stroke-linecap:round;stroke-linejoin:round;stroke-miterlimit:500;stroke-dasharray:none;stroke-opacity:1;visibility:visible"/><path d="m333.469 409.41 1.317.06 2.837.14 2.71.153 2.576.15 2.435.161 2.287.158 2.136.175 1.979.167 1.818.173 1.648.173 1.48.176 1.293.175 1.111.169.915.156.712.148.447.108.27.08.115.03h-.008" style="fill:none;stroke:red;stroke-width:1.99999;stroke-linecap:round;stroke-linejoin:round;stroke-miterlimit:500;stroke-dasharray:none;stroke-opacity:1;visibility:visible"/><path d="m289.386 239.936.01-6.608M284.591 239.822l.04-26.92" style="fill:none;stroke:red;stroke-width:.999997;stroke-linecap:round;stroke-linejoin:round;stroke-miterlimit:500;stroke-dasharray:none;stroke-opacity:1;visibility:visible"/><path d="m284.653 198.05 40.397 300.492M325.051 498.542l.432 3.222M325.493 501.766a.616.616 0 0 0 .707.493M343.844 494.264l-36.34-297.174M344.728 501.482l-.884-7.218M344.162 502.116c.31 0 .564-.246.568-.554 0-.032 0-.056-.004-.084" style="fill:none;stroke:red;stroke-width:1.99999;stroke-linecap:round;stroke-linejoin:round;stroke-miterlimit:500;stroke-dasharray:none;stroke-opacity:1;visibility:visible"/><path d="M291.525 195.448a1.237 1.237 0 0 0-.57.054" style="fill:none;stroke:red;stroke-width:.999997;stroke-linecap:round;stroke-linejoin:round;stroke-miterlimit:500;stroke-dasharray:none;stroke-opacity:1;visibility:visible"/><path d="M285.04 197.458a.515.515 0 0 0-.383.592M307.5 197.089a.597.597 0 0 0-.638-.5M290.96 195.494l-5.92 1.96M306.863 196.582l-15.336-1.136" style="fill:none;stroke:red;stroke-width:1.99999;stroke-linecap:round;stroke-linejoin:round;stroke-miterlimit:500;stroke-dasharray:none;stroke-opacity:1;visibility:visible"/><path d="M311.045 202.966a1.555 1.555 0 0 0-.527.034" style="fill:none;stroke:red;stroke-width:.999997;stroke-linecap:round;stroke-linejoin:round;stroke-miterlimit:500;stroke-dasharray:none;stroke-opacity:1;visibility:visible"/><path d="m323.289 203.858-12.231-.896" style="fill:none;stroke:red;stroke-width:1.99999;stroke-linecap:round;stroke-linejoin:round;stroke-miterlimit:500;stroke-dasharray:none;stroke-opacity:1;visibility:visible"/><path d="m310.5 203.006-.89.284" style="fill:none;stroke:red;stroke-width:.999997;stroke-linecap:round;stroke-linejoin:round;stroke-miterlimit:500;stroke-dasharray:none;stroke-opacity:1;visibility:visible"/><path d="m252.18 398.522 17.286-136.805M239.253 500.779l10.614-83.983M380.482 503.519a.525.525 0 0 0 .536.393M379.706 500.559l.77 2.961M357.324 414.656l22.383 85.904M316.913 259.522l36.84 141.421M398.838 504.01a.517.517 0 0 0 .528-.651M399.372 503.359l-1.692-6.713M397.679 496.646l-73.768-292.358M323.903 204.288a.627.627 0 0 0-.637-.43" style="fill:none;stroke:red;stroke-width:1.99999;stroke-linecap:round;stroke-linejoin:round;stroke-miterlimit:500;stroke-dasharray:none;stroke-opacity:1;visibility:visible"/><path d="m253.34 216.642-2.705 24.783" style="fill:none;stroke:red;stroke-width:.999997;stroke-linecap:round;stroke-linejoin:round;stroke-miterlimit:500;stroke-dasharray:none;stroke-opacity:1;visibility:visible"/><path d="m243.649 198.145-6.767 2.352M256.84 199.012l-12.62-.912M244.22 198.1a1.139 1.139 0 0 0-.573.048M236.525 200.869 156.65 494.755M156.65 494.754l-1.906 7.005M154.749 501.766l-.025.152.041.197.083.135.096.094.096.058.08.033.07.01.034.008h.046l.1.007h.08M169.038 502.548l4.49-.196M174.053 501.943l.86-3.101M173.54 502.352a.52.52 0 0 0 .508-.41M174.913 498.842l82.567-299.118M221.993 503.516l-.01.056.034.186.074.129.089.088.086.05.084.035.057.012.036.006h.072l.072.004h.054M222.693 497.024l-.707 6.492M233.062 504.239l5.305-.096M238.38 504.144a.5.5 0 0 0 .496-.446M238.885 503.698l.368-2.918M231.523 416.238l-8.828 80.786M248.585 260.151l-15.179 138.865" style="fill:none;stroke:red;stroke-width:1.99999;stroke-linecap:round;stroke-linejoin:round;stroke-miterlimit:500;stroke-dasharray:none;stroke-opacity:1;visibility:visible"/><path d="M257.47 199.722a.587.587 0 0 0-.441-.701.82.82 0 0 0-.199-.01" style="fill:none;stroke:red;stroke-width:.999997;stroke-linecap:round;stroke-linejoin:round;stroke-miterlimit:500;stroke-dasharray:none;stroke-opacity:1;visibility:visible"/><path d="m324.815 256.085-3.181-10.956" style="fill:none;stroke:red;stroke-width:1.99999;stroke-linecap:round;stroke-linejoin:round;stroke-miterlimit:500;stroke-dasharray:none;stroke-opacity:1;visibility:visible"/><path d="M350.808 412.72c.69.483-.22-.132.455.306.628.236-.183-.023.405.128.424-.047-.102.062.263-.054.209-.277-.031.131.124-.204.03-.51.017.211.005-.36-.126-.77.062.29-.096-.533-.216-.921.086.329-.148-.623-.236-.909.08.29-.16-.602l-.065-.22M248.875 414.462c.7-.687-.198.248.452-.472.448-.856-.087.316.266-.584.101-.906.025.304.037-.603-.203-.85.123.268-.16-.563-.483-.778.209.232-.343-.5-.757-.625.283.15-.52-.39-.891-.308.305.038-.601-.17-.821.04.264-.072-.544.054-.723.325.223-.152-.468.238-.65.61.183-.242-.417.43-.499.864.125-.318-.314.59-.258.941.044-.322-.15.63-.023.862-.034-.275.002.569.192.761-.098-.228.148.493.424.64-.183-.176.304.41.676.433-.269-.095.473.26.831.142-.302.005.566.066.84-.114-.284.086.56-.097.834-.343-.259.16.545-.25.251-.169-.081.063.164-.11M312.694 213.914l-3.164-10.89" style="fill:none;stroke:red;stroke-width:.999997;stroke-linecap:round;stroke-linejoin:round;stroke-miterlimit:500;stroke-dasharray:none;stroke-opacity:1;visibility:visible"/><path d="M350.012 410.424c-.117.78.014-.264-.064.527.116.953-.094-.323.107.633.356.842-.152-.26.257.552.534.72-.204-.205.368.462.195.185-.07-.056.13.122M333.222 501.402l.01.128-.004.133-.016.127-.027.114-.043.094-.047.072-.053.045-.062.02M298.805 200.518c-.823.622-.882 1.93-.135 2.922.755.992 2.028 1.29 2.852.666.821-.621.878-1.928.13-2.922-.749-.99-2.024-1.29-2.846-.666h-.001M291.706 195.762l40.527 298.378M332.233 494.139l.988 7.264M304.16 242.034c-.824.622-.883 1.93-.134 2.919.751.995 2.025 1.295 2.847.67.82-.621.884-1.931.133-2.923-.752-.992-2.026-1.29-2.847-.666h.001M274.586 239.834l.052-26.808" style="fill:none;stroke:red;stroke-width:.999997;stroke-linecap:round;stroke-linejoin:round;stroke-miterlimit:500;stroke-dasharray:none;stroke-opacity:1;visibility:visible"/><path d="m337.62 502.236 6.52-.12M326.2 502.259l11.04-.02M337.055 502.242c.02.02.17.034.345.03.156-.002.274-.017.287-.036M325.566 501.69a.539.539 0 0 0 .51.566M332.598 502.138l-6.521.117M344.018 502.115l-11.036.021M333.166 502.13c-.016-.018-.167-.032-.34-.031-.158.004-.278.016-.288.039" style="fill:none;stroke:red;stroke-width:1.99999;stroke-linecap:round;stroke-linejoin:round;stroke-miterlimit:500;stroke-dasharray:none;stroke-opacity:1;visibility:visible"/><path d="m386.191 500.358.767 3.04" style="fill:none;stroke:red;stroke-width:.999997;stroke-linecap:round;stroke-linejoin:round;stroke-miterlimit:500;stroke-dasharray:none;stroke-opacity:1;visibility:visible"/><path d="M386.915 503.924c-.012-.022-.168-.037-.344-.037-.173 0-.304.015-.304.037" style="fill:none;stroke:red;stroke-width:1.99999;stroke-linecap:round;stroke-linejoin:round;stroke-miterlimit:500;stroke-dasharray:none;stroke-opacity:1;visibility:visible"/><path d="m386.959 503.398-.004.104-.013.097-.022.095-.032.078-.034.064-.046.047-.044.03-.048.014" style="fill:none;stroke:red;stroke-width:.999997;stroke-linecap:round;stroke-linejoin:round;stroke-miterlimit:500;stroke-dasharray:none;stroke-opacity:1;visibility:visible"/><path d="M380.567 503.532a.473.473 0 0 0 .44.38M381.127 503.916l11.99.08M392.918 503.996c.01.02.165.034.345.034.173 0 .305-.01.303-.031M393.479 504l5.359.01M386.352 503.924l-5.345-.012M398.72 504.01l-12.004-.084" style="fill:none;stroke:red;stroke-width:1.99999;stroke-linecap:round;stroke-linejoin:round;stroke-miterlimit:500;stroke-dasharray:none;stroke-opacity:1;visibility:visible"/><path d="m228.555 500.719-.317 2.888" style="fill:none;stroke:red;stroke-width:.999997;stroke-linecap:round;stroke-linejoin:round;stroke-miterlimit:500;stroke-dasharray:none;stroke-opacity:1;visibility:visible"/><path d="m222.631 504.082 10.08.157M232.509 504.242c.031.02.197.038.37.03.141 0 .242-.012.255-.03M233.051 504.239l5.302-.096M222.045 503.57a.49.49 0 0 0 .458.507M227.7 503.982l-5.196.096M238.227 504.14l-10.187-.16M228.24 503.982c-.03-.023-.197-.04-.37-.038-.139.004-.237.018-.25.038" style="fill:none;stroke:red;stroke-width:1.99999;stroke-linecap:round;stroke-linejoin:round;stroke-miterlimit:500;stroke-dasharray:none;stroke-opacity:1;visibility:visible"/><path d="M227.574 245.405c-.416-.15-1.097.687-1.524 1.873-.425 1.183-.433 2.266-.02 2.419.416.15 1.101-.69 1.524-1.877.428-1.186.436-2.267.02-2.415M244.4 198.558l-82.193 296.157M162.208 494.715l-1.942 6.987" style="fill:none;stroke:red;stroke-width:.999997;stroke-linecap:round;stroke-linejoin:round;stroke-miterlimit:500;stroke-dasharray:none;stroke-opacity:1;visibility:visible"/><path d="m156.709 494.732-1.909 7.018" style="fill:none;stroke:red;stroke-width:1.99999;stroke-linecap:round;stroke-linejoin:round;stroke-miterlimit:500;stroke-dasharray:none;stroke-opacity:1;visibility:visible"/><path d="M160.264 502.244a1.988 1.988 0 0 0-.42-.024c-.121.007-.201.022-.206.035M239.071 203.55c-.414-.146-1.098.688-1.524 1.878-.426 1.18-.436 2.265-.017 2.416.412.148 1.095-.694 1.523-1.876.426-1.188.434-2.268.017-2.418h.001" style="fill:none;stroke:red;stroke-width:.999997;stroke-linecap:round;stroke-linejoin:round;stroke-miterlimit:500;stroke-dasharray:none;stroke-opacity:1;visibility:visible"/><path d="m160.066 502.255.035-.01.039-.035.033-.052.032-.07.027-.081.02-.099.01-.1.004-.106" style="fill:none;stroke:red;stroke-width:.999997;stroke-linecap:round;stroke-linejoin:round;stroke-miterlimit:500;stroke-dasharray:none;stroke-opacity:1;visibility:visible"/><path d="m324.383 255.478.323.368.134.37-.051.366-.24.368-.419.362-.602.358-.785.35-.953.341-1.128.331-1.292.324-1.45.314-1.602.299-1.145.19M154.8 501.75a.548.548 0 0 0 .49.7M159.694 502.255l-4.404.195M155.45 502.459l13.198.09M168.45 502.556a1.853 1.853 0 0 0 .418.026c.122-.008.202-.022.208-.034M169.013 502.548l4.493-.196M173.34 502.346l-13.275-.091" style="fill:none;stroke:red;stroke-width:1.99999;stroke-linecap:round;stroke-linejoin:round;stroke-miterlimit:500;stroke-dasharray:none;stroke-opacity:1;visibility:visible"/><path d="m314.293 252.605 1.017.16 1.73.304 1.57.316 1.405.327 1.232.34 1.06.348.875.354.692.362.51.361" style="fill:none;stroke:red;stroke-width:.999997;stroke-linecap:round;stroke-linejoin:round;stroke-miterlimit:500;stroke-dasharray:none;stroke-opacity:1;visibility:visible"/><path d="m272.983 261.813-1.603-.038-2.746-.085-2.7-.113-2.643-.132-2.574-.15-2.498-.177-2.408-.193-2.311-.208-2.209-.237-2.085-.245-1.963-.265-1.833-.283-1.687-.294-1.545-.306-1.023-.236M287.767 261.84c1.814-.038 3.628-.088 5.443-.152" style="fill:none;stroke:red;stroke-width:1.99999;stroke-linecap:round;stroke-linejoin:round;stroke-miterlimit:500;stroke-dasharray:none;stroke-opacity:1;visibility:visible"/><path d="m242.737 253.132 1.585-.298 1.79-.292 1.941-.274 2.08-.263 2.214-.24 2.339-.22 2.45-.205 2.554-.182 2.645-.16 2.726-.134 2.793-.111 2.845-.09 2.896-.064 2.92-.039 2.942-.02 2.942.013 2.935.035 2.912.058 2.874.08.618.024" style="fill:none;stroke:red;stroke-width:.999997;stroke-linecap:round;stroke-linejoin:round;stroke-miterlimit:500;stroke-dasharray:none;stroke-opacity:1;visibility:visible"/><path d="m245.746 242.233.183-.039 1.618-.3 1.768-.284 1.916-.266 2.05-.252 2.177-.232 2.292-.21 2.4-.192 2.496-.168 2.577-.14 2.65-.124 2.71-.096 2.754-.074 2.786-.044 2.81-.026 2.814.008 2.806.028 2.789.055 2.76.081.188.004M312.993 241.962l.166.028 1.622.304 1.462.319 1.294.327 1.132.342.95.352.776.356.59.359.411.364.225.367.013.049" style="fill:none;stroke:red;stroke-width:1.99999;stroke-linecap:round;stroke-linejoin:round;stroke-miterlimit:500;stroke-dasharray:none;stroke-opacity:1;visibility:visible"/><path d="m284.342 255.249 1.161.083 1.059.108.939.115.797.14.639.152.47.155.296.17.115.164-.073.167-.255.168-.432.16-.6.147-.756.136-.902.121-.537.058M309.329 211.985l.293.09.967.335.789.346.612.354.428.354.242.365.059.359-.128.36-.308.359-.49.351-.671.346-.845.336-.448.156" style="fill:none;stroke:red;stroke-width:.999997;stroke-linecap:round;stroke-linejoin:round;stroke-miterlimit:500;stroke-dasharray:none;stroke-opacity:1;visibility:visible"/><path d="m273.334 257.14-.525-.077-.726-.143-.565-.151-.396-.161-.215-.166-.029-.17.15-.169.335-.162.507-.156.675-.145.828-.133.967-.11 1.083-.097 1.179-.075 1.253-.056 1.303-.03 1.327-.007 1.325.015 1.29.043 1.243.06" style="fill:none;stroke:red;stroke-width:.999997;stroke-linecap:round;stroke-linejoin:round;stroke-miterlimit:500;stroke-dasharray:none;stroke-opacity:1;visibility:visible"/><path d="M252.84 216.524a102.392 102.392 0 0 0 18.56 2.125" style="fill:none;stroke:red;stroke-width:1.99999;stroke-linecap:round;stroke-linejoin:round;stroke-miterlimit:500;stroke-dasharray:none;stroke-opacity:1;visibility:visible"/><path d="M254.3 211.224h.005l1.531-.284 1.674-.266 1.807-.246 1.937-.226 2.05-.202 2.146-.18 2.24-.154 2.319-.126 2.374-.104 2.427-.074 2.459-.05 2.484-.015 2.477.012 2.473.035 1.475.04" style="fill:none;stroke:red;stroke-width:.999997;stroke-linecap:round;stroke-linejoin:round;stroke-miterlimit:500;stroke-dasharray:none;stroke-opacity:1;visibility:visible"/><path d="m257.28 200.446 1.295-.244 1.614-.256 1.744-.234 1.865-.215 1.977-.19 2.071-.162 2.155-.14 2.221-.113 2.279-.084 2.314-.059 2.34-.025 2.35.004 2.342.029.906.02M309.53 203.024a2.4 2.4 0 0 0-1.448-1.207" style="fill:none;stroke:red;stroke-width:1.99999;stroke-linecap:round;stroke-linejoin:round;stroke-miterlimit:500;stroke-dasharray:none;stroke-opacity:1;visibility:visible"/><path d="m271.41 214.556-.192-.104-.216-.19-.032-.197.152-.192.335-.19.508-.177.672-.166.826-.155.964-.135 1.078-.108 1.18-.088 1.25-.062 1.299-.04 1.321-.005 1.325.018 1.287.044 1.239.075M286.68 213.108a34.381 34.381 0 0 0-2.274-.224M287.251 239.874l.029-22.284M273.043 213.257l-.056 26.605M282.711 239.797l.043-27.005M277.511 212.809l-.053 26.99M279.262 212.753l-.047 27.033" style="fill:none;stroke:red;stroke-width:.999997;stroke-linecap:round;stroke-linejoin:round;stroke-miterlimit:500;stroke-dasharray:none;stroke-opacity:1;visibility:visible"/><path d="m271.413 213.702-.059 26.204" style="fill:none;stroke:red;stroke-width:1.99999;stroke-linecap:round;stroke-linejoin:round;stroke-miterlimit:500;stroke-dasharray:none;stroke-opacity:1;visibility:visible"/><path d="m289.143 239.926.012-8.394" style="fill:none;stroke:red;stroke-width:.999997;stroke-linecap:round;stroke-linejoin:round;stroke-miterlimit:500;stroke-dasharray:none;stroke-opacity:1;visibility:visible"/><path d="M285.04 197.454a.479.479 0 0 0-.316.474M307.643 197.078c-.022-.101-.25-.176-.582-.192" style="fill:none;stroke:red;stroke-width:1.99999;stroke-linecap:round;stroke-linejoin:round;stroke-miterlimit:500;stroke-dasharray:none;stroke-opacity:1;visibility:visible"/><path d="m364.252 413.428 21.938 86.93M324.706 256.74l36.658 145.252M311.248 203.416l11.465 45.433M311.247 203.416l-.004-.099-.012-.095-.024-.082-.025-.071-.035-.052-.04-.037-.042-.018h-.007M310.503 203.006a.49.49 0 0 0-.298.606" style="fill:none;stroke:red;stroke-width:.999997;stroke-linecap:round;stroke-linejoin:round;stroke-miterlimit:500;stroke-dasharray:none;stroke-opacity:1;visibility:visible"/><path d="m323.478 204.312-.005-.102-.015-.09-.013-.084-.035-.071-.035-.052-.035-.037-.043-.018h-.012" style="fill:none;stroke:red;stroke-width:1.99999;stroke-linecap:round;stroke-linejoin:round;stroke-miterlimit:500;stroke-dasharray:none;stroke-opacity:1;visibility:visible"/><path d="m237.8 416.462-9.244 84.257M254.883 260.843l-15.14 137.968M259.617 217.702l-2.524 23.006" style="fill:none;stroke:red;stroke-width:.999997;stroke-linecap:round;stroke-linejoin:round;stroke-miterlimit:500;stroke-dasharray:none;stroke-opacity:1;visibility:visible"/><path d="M244.22 198.1h.012l.038.013.037.036.033.053.025.072.02.083.01.099.003.102M257.622 199.748c.03-.074-.216-.184-.6-.28M253.406 216.657l-2.707 24.756" style="fill:none;stroke:red;stroke-width:1.99999;stroke-linecap:round;stroke-linejoin:round;stroke-miterlimit:500;stroke-dasharray:none;stroke-opacity:1;visibility:visible"/><path d="m300.206 201.629-.58.328-.064.712.772.44.452-.44M305.591 243.24l-.58.33-.061.712.772.438.45-.438M226.946 246.97l-.33 1.078M238.469 205.274l-.334.75M247.634 412.543l-.227 1.204.828-.075" style="fill:none;stroke:red;stroke-width:.666665;stroke-linecap:round;stroke-linejoin:round;stroke-miterlimit:500;stroke-dasharray:none;stroke-opacity:1;visibility:visible"/><path d="m289.143 239.926.253-6.598M289.396 233.328l-4.805 6.494" style="fill:none;stroke:red;stroke-width:.999997;stroke-linecap:round;stroke-linejoin:round;stroke-miterlimit:500;stroke-dasharray:none;stroke-opacity:1;visibility:visible"/><path d="m247.634 412.543 4.546-14.021M286.663 257.162l-17.197 4.555M252.18 398.522l-2.313 18.274M361.364 401.992l-4.04 12.664M324.815 256.085l-7.902 3.437M351.591 410.558l2.162-9.615M233.406 399.016l-1.883 17.222M250.635 241.425l-2.05 18.726M231.523 416.238l1.883-17.222" style="fill:none;stroke:red;stroke-width:1.99999;stroke-linecap:round;stroke-linejoin:round;stroke-miterlimit:500;stroke-dasharray:none;stroke-opacity:1;visibility:visible"/><path d="m353.753 400.943-2.162 9.615M311.248 203.416l1.446 10.498M306.863 196.582l-8.058 3.936M289.396 233.328l-14.81 6.506M284.724 197.928l-10.086 15.098M244.22 198.1l-5.149 5.45" style="fill:none;stroke:red;stroke-width:.999997;stroke-linecap:round;stroke-linejoin:round;stroke-miterlimit:500;stroke-dasharray:none;stroke-opacity:1;visibility:visible"/><path d="m284.342 255.249-11.359 6.564M284.343 255.25l3.424 6.59M286.263 257.293l6.947 4.395" style="fill:none;stroke:red;stroke-width:1.99999;stroke-linecap:round;stroke-linejoin:round;stroke-miterlimit:500;stroke-dasharray:none;stroke-opacity:1;visibility:visible"/><path d="m284.342 255.249 7.396-4.499M310.5 203.006l-.671 13.09" style="fill:none;stroke:red;stroke-width:.999997;stroke-linecap:round;stroke-linejoin:round;stroke-miterlimit:500;stroke-dasharray:none;stroke-opacity:1;visibility:visible"/><path d="m284.406 212.884-13.006 5.765" style="fill:none;stroke:red;stroke-width:1.99999;stroke-linecap:round;stroke-linejoin:round;stroke-miterlimit:500;stroke-dasharray:none;stroke-opacity:1;visibility:visible"/><path d="m256.84 199.012-2.54 12.212M284.406 212.884l1.772-3.5M291.527 195.446l-4.847 17.662M289.396 233.328l-2.145 6.546M284.724 197.928l2.556 19.662M284.724 197.928l-11.681 15.329M289.396 233.328l-16.409 6.534M289.396 233.328l-6.685 6.469M284.724 197.928l-1.97 14.864M284.724 197.928l-7.213 14.881M289.396 233.328l-11.938 6.471M284.724 197.928l-5.462 14.825M289.396 233.328l-10.181 6.458" style="fill:none;stroke:red;stroke-width:.999997;stroke-linecap:round;stroke-linejoin:round;stroke-miterlimit:500;stroke-dasharray:none;stroke-opacity:1;visibility:visible"/><path d="m289.396 233.328-18.042 6.578" style="fill:none;stroke:red;stroke-width:1.99999;stroke-linecap:round;stroke-linejoin:round;stroke-miterlimit:500;stroke-dasharray:none;stroke-opacity:1;visibility:visible"/><path d="m289.386 239.936-.231-8.404M361.364 401.992l2.888 11.436M364.252 413.428l-2.888-11.436M321.634 245.129l1.079 3.72M239.743 398.811l-1.943 17.651M250.699 241.413l4.184 19.43M247.634 412.543l-7.891-13.732" style="fill:none;stroke:red;stroke-width:.999997;stroke-linecap:round;stroke-linejoin:round;stroke-miterlimit:500;stroke-dasharray:none;stroke-opacity:1;visibility:visible"/><path d="m257.622 199.748-19.153 5.526M252.18 398.522l-4.546 14.021" style="fill:none;stroke:red;stroke-width:.666665;stroke-linecap:round;stroke-linejoin:round;stroke-miterlimit:500;stroke-dasharray:none;stroke-opacity:1;visibility:visible"/><path d="M285.986 296.285c.319-.212-.081.077.2-.145.053-.067-.016.025.036-.043M273.75 294.958v.19M286.685 295.354v-.716M286.685 293.482v-.717M286.685 291.605v-.715M286.685 289.734v-.717M286.685 287.86v-.718M286.683 285.986v-.719M286.683 284.111l.002-.717M286.685 282.238v-.718M286.685 280.366v-.716M286.685 278.493v-.719M286.685 276.615v-.717M286.685 274.743v-.718M286.685 272.869l-.002-.719M286.683 270.994v-.717M286.683 269.122v-.719M286.683 267.249v-.719M286.683 265.375v-.717M286.683 263.5v-.719M286.683 261.627v-.717M286.683 259.751v-.717M286.683 257.88v-.719M273.45 258.1v.716M273.45 259.971v.72M273.45 261.846v.719M273.45 263.718v.719M273.45 265.594v.716M273.45 267.467v.718M273.45 269.342v.716M273.45 271.215v.72M273.45 273.091v.719M273.45 274.962v.72M273.45 276.837v.718M273.45 278.71v.717M273.45 280.585v.717M273.45 282.458v.719M273.45 284.33v.717M273.45 286.206v.717M273.45 288.08v.717M273.45 289.953v.717M273.45 291.826v.719M273.45 293.7v.719M285.986 293.671v-.096M285.983 263.69v-.097M286.667 259.034c.02-.12-.004.04.011-.081-.143-.543.122.177-.132-.359-.45-.536.196.17-.323-.356-.693-.478.279.153-.488-.313-.964-.446.365.133-.661-.29-1.159-.369.416.108-.795-.24-1.372-.299.494.085-.929-.192-1.484-.202.514.052-.998-.125-1.63-.105.555.015-1.095-.06-1.638.002.553-.018-1.097.01-1.695.111.562-.054-1.13.084-1.612.21.528-.087-1.068.149-1.579.313.504-.123-1.043.217-1.401.395.443-.147-.921.27-1.273.498.388-.179-.832.342-1.033.557.305-.197-.67.376-.828.635.23-.221-.526.428-.55.66.137-.224-.344.441-.304.702.03-.234-.164.471.01.248-.01-.084.01.165" style="fill:none;stroke:#00ff4a;stroke-width:.666665;stroke-linecap:round;stroke-linejoin:round;stroke-miterlimit:500;stroke-dasharray:none;stroke-opacity:1;visibility:visible" visibility="hidden"/><path d="M286.68 260.909c.005-.026 0 .01.004-.019-.094-.559.118.185-.104-.372-.4-.525.174.17-.29-.347-.669-.504.277.16-.472-.33-.903-.438.345.136-.621-.287-1.157-.39.422.117-.79-.252-1.312-.305.467.088-.889-.197-1.505-.225.524.057-1.018-.139-1.57-.119.54.021-1.054-.07-1.681-.016.57-.016-1.121-.001-1.655.095.549-.047-1.102.073-1.67.195.542-.087-1.105.142-1.55.289.495-.115-1.024.203-1.472.39.463-.15-.97.27-1.261.467.392-.175-.824.319-1.1.562.323-.204-.714.38-.841.608.233-.211-.539.413-.605.671.155-.23-.384.448-.328.682.05-.228-.183.458-.017.369-.01-.127-.003.245" style="fill:none;stroke:#00ff4a;stroke-width:.666665;stroke-linecap:round;stroke-linejoin:round;stroke-miterlimit:500;stroke-dasharray:none;stroke-opacity:1;visibility:visible" visibility="hidden"/><path d="M286.68 262.782c-.083-.492.05.163-.07-.325-.352-.547.177.173-.263-.36-.617-.497.25.153-.436-.327-.886-.463.344.14-.613-.3-1.09-.39.4.115-.748-.253-1.32-.33.476.09-.896-.21-1.441-.234.504.058-.972-.147-1.6-.14.55.023-1.075-.08-1.627-.035.548-.015-1.09-.015-1.7.077.565-.047-1.134.06-1.629.18.538-.076-1.081.128-1.608.284.517-.113-1.061.2-1.454.366.457-.139-.956.252-1.332.468.412-.175-.871.32-1.1.534.33-.192-.716.362-.904.618.256-.214-.583.418-.629.648.167-.223-.397.433-.385.699.067-.233-.224.467-.05.47-.005-.156-.024.314" style="fill:none;stroke:#00ff4a;stroke-width:.666665;stroke-linecap:round;stroke-linejoin:round;stroke-miterlimit:500;stroke-dasharray:none;stroke-opacity:1;visibility:visible" visibility="hidden"/><path d="M286.666 264.658c-.033-.416.03.136-.033-.275-.303-.536.157.171-.23-.353-.593-.517.242.164-.421-.34-.825-.46.323.141-.57-.3-1.091-.411.399.123-.747-.268-1.256-.328.454.096-.852-.21-1.459-.256.513.065-.987-.162-1.541-.152.532.03-1.035-.093-1.665-.047.563-.003-1.116-.02-1.65.058.551-.039-1.1.05-1.688.163.555-.077-1.121.115-1.576.264.51-.099-1.041.185-1.518.364.474-.137-.996.251-1.324.444.408-.164-.867.303-1.167.539.35-.195-.759.366-.917.59.266-.206-.591.4-.69.655.183-.231-.435.443-.418.672.08-.229-.248.45-.102.59.008-.198-.055.395" style="fill:none;stroke:#00ff4a;stroke-width:.666665;stroke-linecap:round;stroke-linejoin:round;stroke-miterlimit:500;stroke-dasharray:none;stroke-opacity:1;visibility:visible" visibility="hidden"/><path d="M286.663 266.53c-.002-.317.017.105-.01-.21-.258-.555.156.18-.204-.368-.536-.507.224.165-.379-.334-.809-.477.317.15-.565-.312-1.02-.41.38.121-.699-.265-1.264-.352.454.101-.86-.231-1.396-.259.492.076-.943-.163-1.569-.173.542.036-1.056-.106-1.606-.061.547.004-1.077-.031-1.7.04.567-.037-1.132.038-1.644.146.54-.068-1.092.107-1.637.251.528-.105-1.084.175-1.49.337.472-.127-.983.233-1.388.442.432-.163-.909.303-1.165.514.353-.184-.757.348-.983.597.28-.21-.633.407-.713.633.19-.222-.453.422-.457.69.108-.232-.284.464-.203.686-.018-.227-.092.456v.004" style="fill:none;stroke:#00ff4a;stroke-width:.666665;stroke-linecap:round;stroke-linejoin:round;stroke-miterlimit:500;stroke-dasharray:none;stroke-opacity:1;visibility:visible" visibility="hidden"/><path d="M286.66 268.405c.02-.238.006.078.008-.16-.206-.538.134.178-.171-.356-.507-.53.216.166-.363-.35-.748-.469.295.148-.521-.309-1.016-.43.38.13-.698-.28-1.197-.353.435.104-.817-.23-1.41-.283.501.08-.955-.181-1.508-.179.523.043-1.013-.109-1.645-.084.56.007-1.104-.047-1.644.027.555-.028-1.097.027-1.695.13.56-.064-1.129.1-1.598.228.519-.097-1.057.161-1.553.332.492-.13-1.028.231-1.369.413.43-.156-.9.281-1.23.52.375-.183-.8.35-.992.573.285-.199-.638.386-.778.647.208-.219-.494.436-.49.666.122-.228-.306.448-.247.702.002-.237-.124.468.013.107-.008-.034.01.071" style="fill:none;stroke:#00ff4a;stroke-width:.666665;stroke-linecap:round;stroke-linejoin:round;stroke-miterlimit:500;stroke-dasharray:none;stroke-opacity:1;visibility:visible" visibility="hidden"/><path d="M286.667 270.277c.02-.142-.004.046.011-.095-.164-.556.13.183-.145-.37-.451-.518.194.165-.323-.342-.728-.493.292.156-.512-.325-.95-.426.357.132-.656-.279-1.195-.372.44.11-.815-.241-1.347-.288.478.081-.912-.185-1.533-.203.532.049-1.033-.127-1.587-.098.541.016-1.063-.054-1.689.008.567-.022-1.132.015-1.649.113.547-.057-1.096.086-1.658.221.54-.093-1.1.157-1.526.308.49-.122-1.006.213-1.439.41.449-.153-.945.284-1.23.486.374-.177-.801.33-1.053.578.308-.202-.679.392-.795.619.217-.216-.506.419-.55.675.135-.235-.344.453-.279.682.024-.228-.15.455.01.224-.01-.073.01.152" style="fill:none;stroke:#00ff4a;stroke-width:.666665;stroke-linecap:round;stroke-linejoin:round;stroke-miterlimit:500;stroke-dasharray:none;stroke-opacity:1;visibility:visible" visibility="hidden"/><path d="m286.675 272.153.008-.044c-.11-.543.115.18-.113-.36-.423-.539.187.173-.305-.356-.667-.488.272.152-.467-.323-.94-.445.355.141-.65-.29-1.132-.375.413.11-.778-.24-1.353-.315.488.084-.917-.204-1.468-.209.512.057-.991-.129-1.619-.121.557.014-1.088-.073-1.635-.007.553-.012-1.09.007-1.701.098.562-.055-1.134.076-1.62.197.53-.087-1.073.14-1.59.303.509-.118-1.05.213-1.42.385.447-.145-.932.264-1.294.486.392-.179-.845.332-1.059.55.313-.195-.684.374-.86.63.235-.22-.548.423-.575.655.145-.225-.364.44-.328.697.044-.235-.183.467-.004.327-.009-.107.004.22" style="fill:none;stroke:#00ff4a;stroke-width:.666665;stroke-linecap:round;stroke-linejoin:round;stroke-miterlimit:500;stroke-dasharray:none;stroke-opacity:1;visibility:visible" visibility="hidden"/><path d="M286.68 274.026c-.096-.53.062.175-.083-.355-.357-.525.178.174-.266-.346-.645-.508.266.16-.454-.335-.877-.445.337.141-.607-.29-1.13-.397.417.117-.77-.257-1.294-.312.458.09-.88-.202-1.49-.236.522.062-1.005-.148-1.564-.128.535.026-1.049-.075-1.677-.025.567-.013-1.121-.01-1.655.081.549-.042-1.1.067-1.679.185.545-.082-1.112.132-1.563.28.5-.112-1.033.196-1.487.38.47-.145-.977.263-1.286.46.397-.168-.84.315-1.123.553.335-.199-.728.377-.869.602.245-.212-.557.405-.635.667.165-.229-.401.448-.358.676.061-.229-.21.454-.034.445-.002-.15-.01.295" style="fill:none;stroke:#00ff4a;stroke-width:.666665;stroke-linecap:round;stroke-linejoin:round;stroke-miterlimit:500;stroke-dasharray:none;stroke-opacity:1;visibility:visible" visibility="hidden"/><path d="M286.666 275.9c.019-.158-.003.05.012-.107-.172-.555.13.184-.15-.369-.458-.516.194.166-.331-.341-.734-.491.297.154-.511-.325-.959-.423.359.133-.659-.275-1.205-.372.438.111-.817-.242-1.355-.286.475.079-.92-.183-1.533-.2.533.047-1.033-.124-1.59-.096.542.01-1.067-.054-1.69.011.568-.02-1.127.02-1.649.113.544-.062-1.096.082-1.661.223.534-.091-1.101.159-1.524.314.488-.119-1.005.216-1.438.413.448-.152-.943.286-1.223.49.375-.177-.796.332-1.048.58.305-.204-.677.395-.788.617.215-.219-.502.415-.542.681.134-.235-.338.455-.275.683.021-.23-.146.457.015.208-.013-.07.012.138" style="fill:none;stroke:#00ff4a;stroke-width:.666665;stroke-linecap:round;stroke-linejoin:round;stroke-miterlimit:500;stroke-dasharray:none;stroke-opacity:1;visibility:visible" visibility="hidden"/><path d="M286.674 277.771c.013-.074-.005.026.008-.05-.119-.543.117.181-.116-.359-.428-.539.19.17-.308-.357-.673-.486.27.153-.476-.318-.943-.449.36.136-.652-.292-1.14-.374.416.11-.776-.245-1.364-.305.485.088-.925-.193-1.471-.214.513.05-.992-.132-1.622-.116.557.015-1.087-.067-1.636-.007.553-.018-1.093.007-1.699.1.561-.056-1.13.075-1.622.202.526-.085-1.076.143-1.588.307.507-.118-1.048.212-1.413.39.444-.144-.93.268-1.29.488.393-.18-.843.334-1.05.552.312-.195-.683.376-.849.627.236-.223-.541.424-.57.653.147-.227-.356.438-.324.703.037-.235-.181.47 0 .308-.01-.106.006.205" style="fill:none;stroke:#00ff4a;stroke-width:.666665;stroke-linecap:round;stroke-linejoin:round;stroke-miterlimit:500;stroke-dasharray:none;stroke-opacity:1;visibility:visible" visibility="hidden"/><path d="M286.682 279.649c-.105-.544.064.177-.087-.362-.365-.525.175.17-.273-.349-.652-.504.267.163-.456-.332-.886-.444.334.137-.612-.29-1.136-.398.416.117-.776-.258-1.299-.311.46.092-.883-.197-1.492-.234.523.058-1.005-.151-1.564-.123.533.025-1.05-.072-1.684-.023.562-.012-1.124-.007-1.654.084.547-.044-1.102.067-1.673.19.547-.083-1.11.135-1.556.284.501-.11-1.031.196-1.48.384.471-.144-.972.266-1.279.462.393-.17-.836.315-1.119.557.329-.199-.726.377-.862.604.244-.207-.552.408-.632.67.163-.228-.396.45-.356.678.059-.228-.205.454-.032.428-.007-.145-.01.287" style="fill:none;stroke:#00ff4a;stroke-width:.666665;stroke-linecap:round;stroke-linejoin:round;stroke-miterlimit:500;stroke-dasharray:none;stroke-opacity:1;visibility:visible" visibility="hidden"/><path d="M286.671 281.52c-.054-.448.04.148-.046-.299-.33-.546.169.18-.252-.359-.595-.497.244.158-.418-.33-.868-.464.335.144-.601-.304-1.075-.391.396.119-.735-.258-1.308-.33.468.097-.889-.215-1.426-.238.5.066-.962-.15-1.597-.146.547.03-1.071-.087-1.623-.04.548-.007-1.087-.018-1.7.07.567-.04-1.133.057-1.634.168.536-.078-1.087.12-1.615.277.521-.108-1.068.193-1.461.36.463-.136-.96.25-1.348.46.413-.174-.883.312-1.118.531.335-.189-.728.361-.925.614.263-.215-.594.414-.652.643.173-.222-.411.433-.41.695.072-.233-.244.465-.073.528.005-.176-.035.353" style="fill:none;stroke:#00ff4a;stroke-width:.666665;stroke-linecap:round;stroke-linejoin:round;stroke-miterlimit:500;stroke-dasharray:none;stroke-opacity:1;visibility:visible" visibility="hidden"/><path d="M286.663 283.394c-.017-.37.027.124-.018-.244-.275-.535.152.17-.215-.356-.57-.519.239.168-.404-.341-.806-.459.313.145-.56-.303-1.068-.412.397.128-.732-.269-1.239-.335.448.097-.844-.216-1.448-.263.511.07-.977-.167-1.535-.16.526.035-1.031-.096-1.661-.059.563-.001-1.116-.03-1.647.051.553-.033-1.099.047-1.687.155.555-.076-1.12.112-1.581.252.513-.101-1.047.176-1.527.355.481-.134-1.005.247-1.335.436.415-.163-.874.297-1.188.532.354-.19-.772.362-.935.586.268-.204-.602.394-.717.658.19-.225-.453.443-.436.67.092-.227-.264.45-.133.648.016-.218-.073.43" style="fill:none;stroke:#00ff4a;stroke-width:.666665;stroke-linecap:round;stroke-linejoin:round;stroke-miterlimit:500;stroke-dasharray:none;stroke-opacity:1;visibility:visible" visibility="hidden"/><path d="M286.663 285.267c.01-.272.007.091 0-.177-.237-.556.147.177-.192-.37-.511-.51.219.163-.361-.335-.79-.482.305.15-.553-.316-1.004-.414.376.124-.69-.27-1.241-.358.455.103-.845-.233-1.385-.268.488.075-.935-.172-1.561-.179.543.041-1.05-.107-1.603-.074.546.004-1.075-.04-1.697.031.568-.033-1.132.031-1.645.137.543-.063-1.092.103-1.644.244.53-.102-1.09.169-1.499.331.479-.125-.986.228-1.404.433.433-.157-.92.299-1.185.503.357-.182-.772.345-1.001.592.292-.21-.645.401-.736.631.198-.218-.466.424-.482.687.116-.233-.299.463-.222.683-.006-.231-.107.453.01.064-.006-.02.006.043" style="fill:none;stroke:#00ff4a;stroke-width:.666665;stroke-linecap:round;stroke-linejoin:round;stroke-miterlimit:500;stroke-dasharray:none;stroke-opacity:1;visibility:visible" visibility="hidden"/><path d="M286.663 287.143c.022-.193 0 .063.012-.132-.181-.538.127.18-.16-.354-.482-.532.211.168-.342-.352-.728-.479.289.148-.511-.315-.995-.433.373.135-.683-.283-1.179-.357.428.106-.805-.23-1.399-.29.496.08-.947-.187-1.496-.188.52.047-1.007-.117-1.639-.09.557.01-1.098-.053-1.648.018.55-.022-1.1.022-1.696.124.561-.06-1.128.095-1.605.22.521-.094-1.064.156-1.565.324.497-.13-1.03.225-1.385.407.434-.153-.91.277-1.25.508.376-.182-.815.347-1.005.568.296-.201-.652.381-.796.64.217-.222-.506.434-.512.66.129-.227-.318.443-.272.705.012-.237-.144.47.016.163-.008-.053.015.108" style="fill:none;stroke:#00ff4a;stroke-width:.666665;stroke-linecap:round;stroke-linejoin:round;stroke-miterlimit:500;stroke-dasharray:none;stroke-opacity:1;visibility:visible" visibility="hidden"/><path d="m286.671 289.015.01-.065c-.135-.556.129.184-.129-.37-.43-.52.185.165-.311-.346-.705-.496.289.161-.491-.327-.936-.429.349.135-.645-.28-1.18-.379.43.113-.805-.249-1.334-.293.473.084-.905-.187-1.522-.21.53.054-1.025-.133-1.581-.104.54.017-1.06-.061-1.685 0 .567-.017-1.128.012-1.65.104.547-.052-1.099.077-1.662.212.542-.09-1.103.152-1.535.3.493-.116-1.013.208-1.452.405.455-.15-.952.277-1.242.483.379-.173-.813.331-1.072.57.316-.204-.692.387-.815.614.223-.215-.523.413-.567.677.146-.23-.354.456-.303.68.032-.23-.168.453.005.283-.011-.093.01.188" style="fill:none;stroke:#00ff4a;stroke-width:.666665;stroke-linecap:round;stroke-linejoin:round;stroke-miterlimit:500;stroke-dasharray:none;stroke-opacity:1;visibility:visible" visibility="hidden"/><path d="m286.682 290.891.003-.011c-.085-.546.11.18-.096-.363-.402-.542.176.172-.29-.358-.646-.489.262.156-.456-.324-.92-.452.352.143-.633-.294-1.12-.379.408.109-.764-.248-1.343-.315.48.09-.912-.203-1.457-.22.508.056-.985-.139-1.611-.126.554.024-1.082-.071-1.63-.019.553-.015-1.09 0-1.703.086.565-.054-1.132.065-1.627.191.528-.08-1.079.137-1.597.295.51-.115-1.053.208-1.434.376.447-.145-.943.26-1.31.479.4-.177-.853.329-1.078.539.318-.199-.702.363-.874.628.246-.216-.56.423-.595.653.156-.222-.373.438-.356.7.05-.233-.204.467-.019.384-.007-.127-.003.256" style="fill:none;stroke:#00ff4a;stroke-width:.666665;stroke-linecap:round;stroke-linejoin:round;stroke-miterlimit:500;stroke-dasharray:none;stroke-opacity:1;visibility:visible" visibility="hidden"/><path d="M286.674 292.765c-.07-.486.05.158-.061-.323-.334-.53.169.173-.25-.35-.628-.509.255.164-.445-.334-.853-.451.335.137-.59-.299-1.115-.399.41.123-.763-.258-1.278-.321.458.092-.866-.204-1.481-.244.515.06-1.001-.155-1.552-.139.533.028-1.043-.08-1.672-.037.566-.01-1.118-.016-1.654.072.549-.043-1.1.057-1.68.18.548-.078-1.117.128-1.563.275.505-.106-1.038.195-1.496.372.476-.144-.983.254-1.298.454.403-.166-.849.31-1.143.547.34-.196-.743.372-.889.598.254-.208-.567.404-.66.667.17-.23-.417.448-.381.676.07-.228-.223.45-.059.506 0-.166-.029.341M274.04 294.915c-.23.242-.176.571.117.768M273.902 294.8c.005.06.061.107.137.116M273.902 294.569v.231" style="fill:none;stroke:#00ff4a;stroke-width:.666665;stroke-linecap:round;stroke-linejoin:round;stroke-miterlimit:500;stroke-dasharray:none;stroke-opacity:1;visibility:visible" visibility="hidden"/><path d="M286.666 294.638c-.028-.388.028.128-.028-.26-.295-.548.162.177-.228-.363-.57-.504.233.163-.404-.332-.84-.472.33.148-.584-.308-1.05-.4.39.123-.716-.26-1.287-.339.46.095-.876-.219-1.413-.251.496.066-.955-.158-1.581-.16.546.033-1.064-.098-1.616-.05.55 0-1.081-.023-1.701.056.568-.039-1.136.046-1.637.158.541-.072-1.085.117-1.627.263.521-.107-1.079.185-1.47.35.467-.135-.967.241-1.37.45.42-.17-.896.31-1.142.519.344-.19-.745.35-.953.608.27-.212-.61.411-.474.432.147-.144-.309.292M273.9 294.803c-.263.298-.15.7.245.892l.005.003M273.537 257.522l-.099-.299.01-.363.156-.36.294-.35.427-.33.553-.301.668-.269.763-.225.848-.187.906-.135.95-.082.977-.032.975.021.957.077.919.13.856.176.778.222.68.26.575.301.445.318.32.348.175.359.033.365M286.703 257.166c-.016.117.014-.041-.016.077-.01.03.008-.008-.004.02M273.9 294.569c-.206.584.068-.194-.136.39M273.899 294.804v-.236" style="fill:none;stroke:#00ff4a;stroke-width:.666665;stroke-linecap:round;stroke-linejoin:round;stroke-miterlimit:500;stroke-dasharray:none;stroke-opacity:1;visibility:visible" visibility="hidden"/><path d="M273.9 294.803c.004.057.062.103.137.111M286.222 296.095c.364-.442-.096.148.232-.293.173-.544-.005.183.085-.365-.094-.532.098.172-.094-.354-.192-.249.074.083-.135-.165M274.04 293.545c-.42.505.114-.175-.268.34-.285.665.038-.227-.162.445-.017.693-.057-.23.019.461.166.396-.067-.131.121.263M286.389 293.998c.145-.196-.04.067.091-.133.13-.53.019.181.057-.355-.139-.548.113.176-.128-.36-.131-.151.048.045-.089-.101M274.098 291.594c-.075.066.024-.017-.048.044-.525.647.101-.223-.313.436-.234.69.041-.23-.137.46.014.673-.083-.221.049.448.03.063-.012-.02.02.043M286.386 292.127c.179-.28-.047.096.116-.185.088-.55.028.184.027-.368-.182-.53.121.172-.155-.35-.199-.207.076.069-.136-.139M274.097 289.734c-.158.14.049-.05-.107.096-.487.669.1-.233-.289.449-.195.671.014-.226-.102.449.081.615-.062-.206.067.409M286.386 290.263c.216-.385-.056.131.13-.257.042-.535.042.179-.001-.356-.229-.543.147.17-.185-.359-.17-.164.065.054-.115-.109M274.083 287.877c-.238.226.077-.079-.152.152-.43.656.082-.227-.258.441-.163.69-.004-.232-.074.46.096.49-.057-.163.071.328M286.389 288.398c.233-.477-.047.162.14-.318-.004-.549.056.183-.027-.366-.268-.524.156.168-.212-.347-.121-.104.04.036-.081-.067M274.097 285.991c-.328.339.097-.111-.214.226-.398.68.072-.23-.233.456-.12.674-.024-.224-.051.45.108.397-.049-.133.081.263M286.39 286.525l.017-.019c.255-.536 0 .185.128-.363-.058-.533.056.175-.058-.353-.307-.539.185.167-.244-.355-.05-.04.016.015-.035-.025M273.935 284.298c-.162.184.055-.061-.105.124-.35.663.05-.227-.2.441-.077.694-.037-.229-.021.464.098.291-.04-.096.074.193M286.386 284.642c.088-.107-.026.033.059-.07.194-.528.005.179.094-.358-.092-.547.087.181-.089-.361-.295-.399.12.13-.207-.266M273.95 282.41c-.25.301.073-.1-.16.201-.312.684.04-.23-.179.46-.034.672-.053-.225.012.449.079.193-.033-.067.055.13M286.386 282.76c.13-.17-.033.057.083-.112.154-.545.018.185.07-.368-.129-.531.101.174-.117-.35-.204-.249.081.08-.142-.165M273.98 280.495c-.37.478.106-.16-.235.32-.251.668.033-.225-.143.448.003.694-.077-.23.04.46.043.087-.016-.03.03.061M286.386 280.882c.17-.252-.044.085.11-.17.099-.534.022.179.037-.356-.169-.546.125.174-.147-.361-.146-.154.052.055-.103-.104M274.106 278.478l-.099.088c-.489.65.096-.221-.294.44-.213.692.022-.23-.114.461.071.66-.062-.222.063.44M286.386 279.015c.203-.344-.053.12.127-.229.056-.548.036.184.007-.366-.205-.53.14.17-.171-.35-.094-.09.031.03-.063-.059M274.046 276.667l-.093.09c-.46.673.085-.23-.27.453-.17.672.002-.224-.09.448.097.53-.054-.176.077.353M286.36 277.209c.276-.539-.054.181.168-.359.007-.532.045.18-.022-.356-.257-.537.157.172-.207-.356-.158-.14.058.044-.109-.093M274.14 274.689c-.084.07.026-.022-.054.046-.559.666.109-.23-.336.448-.248.67.045-.225-.145.447-.006.693-.079-.23.033.46l.03.063M286.38 275.273c.174-.263-.05.085.113-.175.105-.53.022.179.041-.355-.17-.546.117.177-.144-.36-.224-.249.084.08-.156-.166M274.1 272.86c-.126.115.043-.037-.082.078-.5.647.092-.225-.299.432-.209.693.031-.228-.119.464.03.673-.097-.221.061.448.002.01-.003-.002.001.008M286.386 273.394c.197-.33-.053.112.124-.22.064-.552.036.184.012-.367-.205-.529.132.17-.167-.352-.19-.184.067.063-.13-.12M274.098 270.994c-.208.196.067-.064-.139.13-.462.676.091-.228-.276.455-.173.672.004-.225-.088.447.091.544-.055-.183.075.361M286.354 271.595c.281-.537-.059.183.172-.358.013-.534.044.18-.017-.358-.251-.538.153.175-.202-.354-.14-.125.05.041-.094-.085M274.115 267.24c-.285.276.083-.098-.188.184-.405.661.076-.222-.237.443-.143.694-.015-.23-.064.463.104.437-.055-.148.075.293M274.087 269.14c-.286.279.083-.094-.187.187-.406.659.077-.224-.239.443-.141.692-.012-.231-.062.46.103.44-.054-.147.074.295M286.394 269.665c.003-.005 0 0 .003-.002.266-.522-.01.18.136-.353-.04-.548.053.181-.046-.365-.282-.522.17.165-.225-.343l-.055-.045M286.389 267.785c.058-.068-.019.021.037-.046.227-.539.003.183.113-.365-.074-.532.072.177-.073-.353-.343-.496.144.162-.244-.331M273.947 265.549c-.221.254.067-.089-.144.17-.321.665.048-.227-.183.443-.054.695-.049-.227-.007.464.093.235-.031-.076.065.159M286.386 265.9c.113-.146-.03.046.076-.098.168-.527.007.183.077-.352-.113-.55.096.176-.108-.365-.228-.29.092.097-.157-.19M273.973 263.642c-.323.4.092-.135-.204.268-.284.687.034-.233-.163.46-.013.673-.067-.224.023.447l.044.096M286.389 264.018c.146-.208-.04.07.096-.138.125-.546.018.185.05-.367-.15-.53.111.173-.13-.353-.17-.187.065.063-.117-.125M274.165 261.558c-.19.163.06-.056-.125.108-.525.668.106-.23-.314.448-.22.67.035-.224-.127.448.022.693-.089-.228.055.461l.013.024M286.386 262.149c.192-.307-.053.101.117-.204.078-.535.032.178.024-.359-.194-.543.136.176-.164-.355-.105-.109.04.031-.07-.073M274.05 257.591c-.115.106.037-.033-.075.072-.469.649.09-.225-.28.438-.192.689.012-.231-.102.461.086.57-.055-.19.07.383M274.05 259.797c-.115.105.037-.035-.075.07-.469.651.09-.224-.28.44-.192.689.012-.233-.102.459.086.572-.055-.189.07.384M286.346 260.365c.288-.519-.065.177.173-.348.031-.548.042.185-.006-.367-.233-.525.145.168-.188-.347-.162-.15.057.05-.11-.1M286.38 258.442c.254-.537-.05.183.15-.36-.015-.532.056.179-.033-.356-.28-.536.163.172-.223-.353-.14-.118.05.036-.094-.08M286.549 256.65l-.102-.175-.314-.34-.446-.323-.566-.295-.679-.26-.77-.218-.853-.175-.909-.13-.952-.072-.965-.024-.971.032-.944.083-.903.135-.837.179-.759.23-.661.264-.548.299-.428.326-.29.348-.156.356-.01.363.07.234" style="fill:none;stroke:#00ff4a;stroke-width:.666665;stroke-linecap:round;stroke-linejoin:round;stroke-miterlimit:500;stroke-dasharray:none;stroke-opacity:1;visibility:visible" visibility="hidden"/><path d="m266.826 171.745.347.224.722.337.885.304.982.255 1.084.227 1.176.198 1.273.164.827.088M287.053 173.549l.667-.067 1.266-.158 1.173-.191 1.074-.216.966-.24.847-.275.744-.318.63-.391M294.43 171.686l4.2-3.256M262.497 168.384l4.192 3.272M306.682 166.536a1.384 1.384 0 0 0-.517-1.266M254.437 166.305v.768M306.698 167.138l.005-.773M254.443 167.056a2.008 2.008 0 0 0 1.194 1.637M305.409 168.81c.278-.137.525-.322.731-.55" style="fill:none;stroke:#00ff4a;stroke-width:.999997;stroke-linecap:round;stroke-linejoin:round;stroke-miterlimit:500;stroke-dasharray:none;stroke-opacity:1;visibility:visible" visibility="hidden"/><path d="m273.346 170.776-.003.004.071-.05.2-.1.356-.132.384-.108M287.767 170.79a2.493 2.493 0 0 0-.881-.35" style="fill:none;stroke:#00ff4a;stroke-width:1.33333;stroke-linecap:round;stroke-linejoin:round;stroke-miterlimit:500;stroke-dasharray:none;stroke-opacity:1;visibility:visible" visibility="hidden"/><path d="m357.672 155.352-.02-.632-.19-.924-.342-.89-.488-.854-.64-.84-.817-.836-1.013-.832-1.214-.824-1.394-.795-1.546-.753-1.69-.718-1.826-.684-1.96-.656-2.095-.626-2.227-.6-2.35-.576-2.48-.547-2.605-.52-2.721-.495-2.828-.468-2.936-.438-3.037-.41-3.134-.38-3.218-.348-3.298-.318-3.37-.288-3.436-.249-3.497-.219-3.542-.187-3.581-.152-3.615-.116-3.64-.083-3.652-.046-3.657-.01-3.656.019-3.647.061-3.627.093-3.597.127-3.557.167-3.519.193-3.459.232-3.398.26-3.333.3-3.25.323-3.17.357-3.078.392-2.979.416-2.872.45-2.764.47-2.65.503-2.524.53-2.407.554-2.273.575-2.143.606-2.007.63-1.872.657-1.731.685-1.598.716-1.457.756-1.319.807-1.176.865-1.016.928-.724.855-.555.863-.394.866-.244.886-.1.98.003.037M203.517 155.197l-.018 2.808M357.703 158.184l-.008-2.81M315.293 173.065l16.824-2.972M229.02 169.973l16.804 3.005M357.447 159.594c.183-.444.268-.917.248-1.396M203.52 158.078l.01.43.177.79.331.763.488.757.655.75.826.744.996.728 1.16.71 1.302.683 1.442.663 1.578.637.164.057M349.21 165.681l.354-.135 1.5-.642 1.359-.667 1.217-.687 1.076-.714.927-.748.777-.788.598-.824.381-.748.051-.132" style="fill:none;stroke:#00ff4a;stroke-width:1.99999;stroke-linecap:round;stroke-linejoin:round;stroke-miterlimit:500;stroke-dasharray:none;stroke-opacity:1;visibility:visible" visibility="hidden"/><path d="m286.154 308.462-.133-13.472" style="fill:none;stroke:#00ff4a;stroke-width:1.33333;stroke-linecap:round;stroke-linejoin:round;stroke-miterlimit:500;stroke-dasharray:none;stroke-opacity:1;visibility:visible" visibility="hidden"/><path d="m274.594 170.624-.059 28.182M286.346 197.02l.035-26.38" style="fill:none;stroke:#00ff4a;stroke-width:1.99999;stroke-linecap:round;stroke-linejoin:round;stroke-miterlimit:500;stroke-dasharray:none;stroke-opacity:1;visibility:visible" visibility="hidden"/><path d="m294.662 171.506.43-.056 1.746-.242 1.632-.272 1.509-.298 1.371-.318 1.223-.342 1.066-.361.908-.376.733-.39.005-.006M255.755 168.73l.232.144.771.391.941.376 1.101.363 1.255.338 1.396.32 1.539.292 1.655.272 1.764.244.046.003" style="fill:none;stroke:#00ff4a;stroke-width:.999997;stroke-linecap:round;stroke-linejoin:round;stroke-miterlimit:500;stroke-dasharray:none;stroke-opacity:1;visibility:visible" visibility="hidden"/><path d="m305.971 166.462-.096-.089-.55-.405-.723-.399-.905-.384-1.077-.367-1.233-.35-1.39-.328-1.533-.307-1.666-.28-1.784-.255-1.895-.22-1.985-.191-2.064-.162-2.127-.119-2.177-.089-2.208-.056-2.223-.015-2.22.016-2.198.055-2.171.093-2.113.13-2.051.16-1.97.192-1.871.225-1.76.255-1.639.28-1.503.31-1.356.33-1.206.35-1.039.368-.87.388-.69.398-.512.401-.241.287" style="fill:none;stroke:#00ff4a;stroke-width:.666665;stroke-linecap:round;stroke-linejoin:round;stroke-miterlimit:500;stroke-dasharray:none;stroke-opacity:1;visibility:visible" visibility="hidden"/><path d="M254.927 165.344a1.416 1.416 0 0 0-.49.961" style="fill:none;stroke:#00ff4a;stroke-width:.999997;stroke-linecap:round;stroke-linejoin:round;stroke-miterlimit:500;stroke-dasharray:none;stroke-opacity:1;visibility:visible" visibility="hidden"/><path d="m254.822 165.413.86-.71.692-.397.868-.388 1.039-.368 1.202-.354 1.358-.33 1.506-.315 1.638-.278 1.761-.256 1.872-.225 1.965-.195 2.051-.161 2.116-.126 2.167-.093 2.201-.055 2.223-.02 2.221.014 2.207.06 2.176.084 2.125.124 2.064.161 1.988.19 1.893.222 1.786.256 1.666.283 1.53.304 1.393.33 1.232.351 1.075.369.903.388.726.396.552.411.137.132" style="fill:none;stroke:#00ff4a;stroke-width:.999997;stroke-linecap:round;stroke-linejoin:round;stroke-miterlimit:500;stroke-dasharray:none;stroke-opacity:1;visibility:visible" visibility="hidden"/><path d="m272.974 163.356.083.104.27.088.415.064.508.033.532-.007.484-.04.372-.076.207-.09.017-.103-.177-.097-.347-.078-.47-.049-.53-.015-.513.023-.439.063-.295.082-.117.098M297.413 165.086l.074.098.263.088.408.065.504.03.53-.005.485-.041.373-.07.215-.096.025-.098-.173-.099-.343-.074-.464-.05-.525-.017-.52.025-.435.056-.3.09-.117.098M296.467 170.106l.206.062.406.062.498.032.523-.005.479-.041.371-.07.209-.09.022-.099-.171-.093-.336-.08-.457-.046-.523-.013-.51.025-.301.034M257.186 167.254l.084.098.267.086.413.063.508.03.525-.001.479-.048.363-.069.205-.09.011-.103-.178-.096-.348-.074-.468-.05-.524-.01-.51.02-.433.06-.285.083-.109.101M289.093 164.157a87.434 87.434 0 0 0-21.451.548" style="fill:none;stroke:#00ff4a;stroke-width:.999997;stroke-linecap:round;stroke-linejoin:round;stroke-miterlimit:500;stroke-dasharray:none;stroke-opacity:1;visibility:visible" visibility="hidden"/><path d="M287.102 170.452a30.923 30.923 0 0 0-12.945-.052" style="fill:none;stroke:#00ff4a;stroke-width:1.33333;stroke-linecap:round;stroke-linejoin:round;stroke-miterlimit:500;stroke-dasharray:none;stroke-opacity:1;visibility:visible" visibility="hidden"/><path d="M332.116 170.093a89.257 89.257 0 0 0 16.962-4.368M212.773 165.83a96.88 96.88 0 0 0 16.247 4.141" style="fill:none;stroke:#00ff4a;stroke-width:1.99999;stroke-linecap:round;stroke-linejoin:round;stroke-miterlimit:500;stroke-dasharray:none;stroke-opacity:1;visibility:visible" visibility="hidden"/><path d="m315.349 173.049 1.589-.29 2.057-.421 1.927-.447 1.78-.469 1.636-.484 1.481-.508 1.324-.522 1.157-.539.985-.548.813-.563.632-.573.456-.577.272-.583.084-.588-.099-.587-.29-.589-.47-.581-.66-.576-.84-.574-1.028-.56-1.201-.553-1.375-.529-1.548-.519-1.714-.499-1.87-.482-2.02-.454-2.17-.44-2.305-.406-2.437-.379-2.55-.349-2.663-.323-2.763-.291-2.853-.258-2.932-.223-3-.185-3.054-.16-3.097-.112-3.126-.08-3.148-.044-3.159-.002-3.145.028-3.132.07-3.103.102-3.056.146-3.005.18-2.939.208-2.86.252-2.777.276-2.674.312-2.565.346-2.448.368-2.319.402-2.18.426-2.041.45-1.886.472-1.73.493-1.565.513-1.4.532-1.22.542-1.046.558-.862.566-.68.576-.497.582-.306.586-.124.585" style="fill:none;stroke:#00ff4a;stroke-width:1.33333;stroke-linecap:round;stroke-linejoin:round;stroke-miterlimit:500;stroke-dasharray:none;stroke-opacity:1;visibility:visible" visibility="hidden"/><path d="m246.127 173.034 2.284.376 2.4.354 2.499.326 2.593.296 2.68.264 2.752.24 2.82.203 2.875.17 2.921.141 2.955.106M287.878 175.54l2.963-.098 2.926-.128 2.883-.164 2.827-.193 2.76-.224 2.686-.261 2.607-.282 2.512-.318 2.413-.347 2.3-.365.595-.11" style="fill:none;stroke:#00ff4a;stroke-width:1.99999;stroke-linecap:round;stroke-linejoin:round;stroke-miterlimit:500;stroke-dasharray:none;stroke-opacity:1;visibility:visible" visibility="hidden"/><path d="m229.61 165.753.065.59.25.582.432.581.613.578.79.562.97.555 1.132.543 1.301.524 1.463.512 1.62.491 1.764.475 1.907.452 2.041.43 2.17.405" style="fill:none;stroke:#00ff4a;stroke-width:1.33333;stroke-linecap:round;stroke-linejoin:round;stroke-miterlimit:500;stroke-dasharray:none;stroke-opacity:1;visibility:visible" visibility="hidden"/><path d="M266.293 170.95a.87.87 0 0 0 .396.703M267.642 164.705l-.203.04-1.302.253-1.162.283-1.009.3-.848.317-.677.335-.502.347-.321.348-.139.352M298.073 168.861l.512-.248.53-.339.356-.353.17-.351-.011-.358-.196-.354-.377-.348-.56-.344-.731-.328-.897-.313-1.06-.304-1.207-.275-1.347-.252-1.468-.224-1.585-.2-1.11-.113M261.48 167.28l.044.36.23.35.41.354.581.333.311.144M254.925 166.682l-.083.132-.14.414M305.283 168.848l.555-.4.38-.41.195-.417.006-.416-.179-.419-.269-.322M254.702 167.23a1.815 1.815 0 0 0 1.053 1.5" style="fill:none;stroke:#00ff4a;stroke-width:.999997;stroke-linecap:round;stroke-linejoin:round;stroke-miterlimit:500;stroke-dasharray:none;stroke-opacity:1;visibility:visible" visibility="hidden"/><path d="m294.43 171.686.084-.068.246-.301.07-.307-.121-.305-.306-.304-.483-.295-.667-.28-.827-.266-.984-.248-1.13-.227-1.259-.197-1.369-.171-1.467-.141-1.54-.106-1.592-.076-1.635-.04-1.637-.004-1.63.034-1.602.066-1.542.103-1.474.135-1.379.162-1.27.198-1.143.217-.999.245-.84.263-.681.275-.5.296-.323.296-.139.31" style="fill:none;stroke:#00ff4a;stroke-width:.666665;stroke-linecap:round;stroke-linejoin:round;stroke-miterlimit:500;stroke-dasharray:none;stroke-opacity:1;visibility:visible" visibility="hidden"/><path d="m286.833 173.553.092-.01" style="fill:none;stroke:#00ff4a;stroke-width:.999997;stroke-linecap:round;stroke-linejoin:round;stroke-miterlimit:500;stroke-dasharray:none;stroke-opacity:1;visibility:visible" visibility="hidden"/><path d="m286.727 172.213.476-.117.575-.203.405-.208.237-.228.042-.225-.142-.224-.322-.223-.498-.208-.4-.125M272.657 171.225l.052.23.241.225.419.214.586.196.142.036" style="fill:none;stroke:#00ff4a;stroke-width:1.33333;stroke-linecap:round;stroke-linejoin:round;stroke-miterlimit:500;stroke-dasharray:none;stroke-opacity:1;visibility:visible" visibility="hidden"/><path d="m286.386 172.294.084-.018.26-.063" style="fill:none;stroke:#00ff4a;stroke-width:.999997;stroke-linecap:round;stroke-linejoin:round;stroke-miterlimit:500;stroke-dasharray:none;stroke-opacity:1;visibility:visible" visibility="hidden"/><path d="M274.157 170.401a2.01 2.01 0 0 0-1.5.825" style="fill:none;stroke:#00ff4a;stroke-width:1.33333;stroke-linecap:round;stroke-linejoin:round;stroke-miterlimit:500;stroke-dasharray:none;stroke-opacity:1;visibility:visible" visibility="hidden"/><path d="m204.28 159.072.1.726.287.726.466.716.642.712.82.705.996.693 1.164.686 1.335.67 1.495.654 1.188.471" style="fill:none;stroke:#00ff4a;stroke-width:1.99999;stroke-linecap:round;stroke-linejoin:round;stroke-miterlimit:500;stroke-dasharray:none;stroke-opacity:1;visibility:visible" visibility="hidden"/><path d="m349.08 165.724 1.48-.616 1.394-.664 1.231-.676 1.064-.69.885-.698.714-.71.532-.716.355-.718.17-.727-.014-.725-.196-.73-.385-.728-.567-.724-.752-.72-.94-.711-1.117-.702-1.302-.692-1.477-.684-1.655-.667-1.826-.65-1.994-.636-2.156-.615-2.318-.593-2.474-.575-2.617-.547-2.76-.52-2.895-.499-3.026-.465-3.144-.438-3.257-.408-3.364-.378-3.454-.34-3.544-.305-3.621-.273-3.688-.239-3.747-.195-3.793-.17-3.833-.125-3.862-.086-3.877-.048-3.885-.011-3.883.027-3.867.065-3.844.102-3.809.142-3.764.176-3.712.218-3.648.25-3.568.288-3.49.323-3.398.353-3.292.39-3.19.421-3.064.45-2.946.479-2.807.507-2.673.53-2.524.561-2.376.58-2.212.598-2.056.627-1.888.64-1.719.659-1.54.67-1.369.688-1.185.698-1.003.706-.823.715-.634.72-.455.724-.264.725-.082.728" style="fill:none;stroke:#00ff4a;stroke-width:.999997;stroke-linecap:round;stroke-linejoin:round;stroke-miterlimit:500;stroke-dasharray:none;stroke-opacity:1;visibility:visible" visibility="hidden"/><path d="m274.165 309.135-.136-13.469" style="fill:none;stroke:#00ff4a;stroke-width:1.33333;stroke-linecap:round;stroke-linejoin:round;stroke-miterlimit:500;stroke-dasharray:none;stroke-opacity:1;visibility:visible" visibility="hidden"/><path d="M282.97 312.97c1.915-.615 3.168-2.07 3.183-3.69M274.462 309.282c.013 1.62 1.27 3.076 3.184 3.69" style="fill:none;stroke:#00ff4a;stroke-width:.999997;stroke-linecap:round;stroke-linejoin:round;stroke-miterlimit:10;stroke-dasharray:none;stroke-opacity:1;visibility:visible" visibility="hidden"/><path d="m277.677 312.982-.16-.056-.147-.059-.136-.062-.125-.065-.112-.066-.099-.07-.085-.072-.074-.072-.058-.074-.046-.075-.03-.076-.015-.075-.003-.078.014-.076.025-.077.041-.075.056-.073.07-.074.082-.072.096-.069.109-.068.122-.064.133-.063.145-.06.155-.057.167-.053.176-.051.185-.044.192-.043.202-.038.206-.035.215-.028.219-.025.222-.02.227-.018.228-.009.23-.008.232-.001.231.002.231.008.228.012.225.018.223.021.216.027.212.03.207.035.198.039.193.044.181.046.173.051.164.055.153.057.143.06.13.064.119.065.104.068.094.071.078.072.067.072.05.075.041.076.02.076.011.075-.007.078-.019.076-.033.076-.05.075-.062.074-.075.072-.09.07-.102.069-.116.067-.127.063-.14.062-.149.057-.161.056-.171.051-.181.048-.188.044-.198.04-.205.036-.21.032-.216.028-.221.023-.224.018-.229.015-.23.008-.229.004h-.233l-.23-.005-.231-.011-.226-.015-.224-.021-.218-.023-.218-.029-.208-.032-.202-.037-.195-.042-.187-.044-.178-.049-.168-.052M274.46 309.282v-.01l.01-.098.023-.093.037-.095.052-.095.065-.091.08-.093.094-.092.106-.088.119-.087.133-.085.144-.082.159-.083.168-.076.181-.075.191-.072.203-.067.212-.065.221-.062.23-.059.241-.053.244-.051.254-.045.26-.042.267-.037.27-.033.278-.03.28-.023.283-.019.285-.015.288-.01.29-.006h.286l.291.004.285.01.29.012.282.018.281.023.278.028.273.032.267.036.262.041.255.045.25.048.239.054.231.057.225.06.215.064.204.068.195.07.182.076.172.075.16.082.15.081.136.084.122.087.111.089.095.09.084.09.068.096.053.092.043.095.026.096.014.096v.033" style="fill:none;stroke:#00ff4a;stroke-width:.999997;stroke-linecap:round;stroke-linejoin:round;stroke-miterlimit:10;stroke-dasharray:none;stroke-opacity:1;visibility:visible" visibility="hidden"/><path d="m286.886 170.44-12.764 3.102M254.927 165.344l18.047-1.988M298.63 168.43l-1.217-3.344M287.102 170.452l9.365-.346M286.925 173.543l9.958-3.759M254.927 165.344l2.259 1.91" style="fill:none;stroke:#00ff4a;stroke-width:.999997;stroke-linecap:round;stroke-linejoin:round;stroke-miterlimit:500;stroke-dasharray:none;stroke-opacity:1;visibility:visible" visibility="hidden"/><path d="m287.878 175.54-14.972-.03M286.925 173.543l.953 1.997" style="fill:none;stroke:#00ff4a;stroke-width:1.99999;stroke-linecap:round;stroke-linejoin:round;stroke-miterlimit:500;stroke-dasharray:none;stroke-opacity:1;visibility:visible" visibility="hidden"/><path d="m286.886 170.44-12.789 1.686" style="fill:none;stroke:#00ff4a;stroke-width:1.33333;stroke-linecap:round;stroke-linejoin:round;stroke-miterlimit:500;stroke-dasharray:none;stroke-opacity:1;visibility:visible" visibility="hidden"/><path d="m351.591 410.558-1.579-.134M250.635 241.425l6.458-.717" style="fill:none;stroke:red;stroke-width:.999997;stroke-linecap:round;stroke-linejoin:round;stroke-miterlimit:500;stroke-dasharray:none;stroke-opacity:1;visibility:visible"/><path d="m298.805 200.518 1.401 1.111" style="fill:none;stroke:red;stroke-width:.666665;stroke-linecap:round;stroke-linejoin:round;stroke-miterlimit:500;stroke-dasharray:none;stroke-opacity:1;visibility:visible"/><path d="m274.638 213.026-.103-14.22M284.631 212.902l1.715-15.882" style="fill:none;stroke:#00ff4a;stroke-width:1.99999;stroke-linecap:round;stroke-linejoin:round;stroke-miterlimit:500;stroke-dasharray:none;stroke-opacity:1;visibility:visible" visibility="hidden"/></svg>