<svg xmlns="http://www.w3.org/2000/svg" baseProfile="full" height="1122.52" preserveAspectRatio="xMinYMin meet" style="width:765px;height:943px" width="793.701" xml:space="preserve"><path d="m234.143 882.25.62.396 2.8 1.644 2.975 1.585 3.137 1.526 3.296 1.469 3.443 1.399 3.593 1.341 3.724 1.28 3.862 1.217 3.982 1.146 4.102 1.082 4.21 1.01 4.315.941 4.407.872 4.494.799 4.57.723 4.637.65 4.697.565 4.746.495 4.782.409 4.81.342 4.838.249 4.846.172 4.841.095 4.831.009 4.823-.072 4.783-.15 4.75-.231 4.694-.309 4.644-.398 4.57-.469 4.499-.55 4.409-.625 4.231-.688M366.518 822.051l-3.954-.677-4.294-.656-4.343-.59-4.387-.528-4.429-.453-4.457-.396-4.49-.314-4.507-.252-4.511-.186-4.519-.109-4.513-.039-4.504.029-4.475.095-4.453.165-4.419.237-4.376.313-4.33.375-4.274.448-4.205.507-4.141.589-4.062.648-3.977.718-3.888.785-3.792.85-3.687.92-3.584.98-3.462 1.044-3.071 1.021M414.579 837.92a111.806 111.806 0 0 0-20.972-9.144M408.775 847.843a88.713 88.713 0 0 0-13.812-6.478M245.546 841.434l.487-.232 2.566-1.096 2.724-1.065 2.88-1.022 3.028-.976 3.172-.933 3.3-.884 3.432-.83 3.55-.775 3.655-.718 3.766-.663 3.857-.595 3.947-.539 4.025-.479 4.095-.409 4.157-.336 4.214-.279 4.256-.21 4.29-.143 4.323-.073 4.339-.003 4.354.063 4.355.132 4.35.201 4.334.268 4.31.333 4.284.402 4.244.47 4.191.527 4.137.593 4.074.657 3.997.72 1.731.341M374.624 888.158l-3.054.516-4.123.612-4.224.539-4.31.465-4.386.396-4.468.324-4.517.247-4.574.172-4.603.093-4.64.013-4.643-.057-4.657-.138-4.645-.213-4.627-.292-4.6-.368-4.563-.44-4.505-.514-4.448-.587-4.371-.656-4.296-.724-4.201-.792-4.094-.85-3.985-.916-3.861-.973-3.732-1.032-3.588-1.077-3.443-1.13-3.29-1.174-3.119-1.207-2.947-1.248-2.775-1.27-2.592-1.303-2.4-1.317-2.203-1.327-2.01-1.332-.608-.448M408.775 847.843l1.159.698 2 1.299 1.825 1.309 1.636 1.301 1.45 1.281 1.267 1.269 1.078 1.242.9 1.208.729 1.167.557 1.13.402 1.088.265 1.075.112 1.092-.057 1.164-.224 1.104-.364 1.068-.508 1.06-.743 1.185-.909 1.192-1.096 1.202-1.279 1.205-1.473 1.216-1.67 1.221-1.857 1.214-2.06 1.204-2.25 1.183-2.446 1.16-2.627 1.144-2.812 1.101-.48.172M313.42 652.752l2.7-13.11M278.827 820.622l25.834-125.362M266.007 882.84l10.36-50.293M259.609 913.887l3.958-19.213" style="fill:none;stroke:red;stroke-width:1.99999;stroke-linecap:round;stroke-linejoin:round;stroke-miterlimit:500;stroke-dasharray:none;stroke-opacity:1;visibility:visible"/><path d="m400.616 894.062 2.558-.896 3.309-1.287 3.152-1.345 3-1.425 2.825-1.487 2.662-1.565 2.481-1.634 2.292-1.702 2.104-1.774 1.89-1.836 1.671-1.893 1.449-1.94 1.218-1.97.975-1.996.75-2.002.526-2.005.3-2.003.096-1.988-.115-1.984-.31-1.961-.509-1.94-.71-1.927-.914-1.913-1.112-1.891-1.322-1.881-1.526-1.857-1.734-1.83-1.94-1.79-2.128-1.75-2.312-1.7-2.475-1.643-2.187-1.325" style="fill:none;stroke:red;stroke-width:1.99999;stroke-linecap:round;stroke-linejoin:round;stroke-miterlimit:500;stroke-dasharray:none;stroke-opacity:1;visibility:visible"/><path d="m323.12 605.693.22-1.098" style="fill:none;stroke:red;stroke-width:.999997;stroke-linecap:round;stroke-linejoin:round;stroke-miterlimit:500;stroke-dasharray:none;stroke-opacity:1;visibility:visible"/><path d="M237.586 913.36a.667.667 0 0 0 .297.687M238.782 906.838l-1.196 6.521M258.362 917.37a.653.653 0 0 0 .636-.563M259.007 916.813l.603-2.924M237.883 914.046l7.867 5.426M246.642 919.627l11.724-2.245M245.746 919.474a1.196 1.196 0 0 0 .863.161M313.26 599.45l-17.934 2.466M242.457 886.81l-3.675 20.028M251.213 839.091l-6.51 35.464M260.8 786.834l-7.23 39.396M294.611 602.516l-2.59 14.15M295.335 601.921a.728.728 0 0 0-.715.594M325.217 605.287l-3-1.499M318.8 602.007l-1.418-.739" style="fill:none;stroke:red;stroke-width:1.99999;stroke-linecap:round;stroke-linejoin:round;stroke-miterlimit:500;stroke-dasharray:none;stroke-opacity:1;visibility:visible"/><path d="M306.64 622.699a.68.68 0 0 0-.366-.832" style="fill:none;stroke:red;stroke-width:.999997;stroke-linecap:round;stroke-linejoin:round;stroke-miterlimit:500;stroke-dasharray:none;stroke-opacity:1;visibility:visible"/><path d="m203.84 990.731 102.806-368.032" style="fill:none;stroke:red;stroke-width:1.99999;stroke-linecap:round;stroke-linejoin:round;stroke-miterlimit:500;stroke-dasharray:none;stroke-opacity:1;visibility:visible"/><path d="m306.254 621.855-10.904-5.435" style="fill:none;stroke:red;stroke-width:.999997;stroke-linecap:round;stroke-linejoin:round;stroke-miterlimit:500;stroke-dasharray:none;stroke-opacity:1;visibility:visible"/><path d="m278.715 619.004-97.61 364.886" style="fill:none;stroke:red;stroke-width:1.99999;stroke-linecap:round;stroke-linejoin:round;stroke-miterlimit:500;stroke-dasharray:none;stroke-opacity:1;visibility:visible"/><path d="m295.327 616.415-.221-.08-.307-.035M279.445 618.441a.723.723 0 0 0-.719.567M294.483 616.315l-15.038 2.128" style="fill:none;stroke:red;stroke-width:.999997;stroke-linecap:round;stroke-linejoin:round;stroke-miterlimit:500;stroke-dasharray:none;stroke-opacity:1;visibility:visible"/><path d="m413.408 1013.258-41.344-385.28M178.916 992.107a.699.699 0 0 0 .276.773M181.105 983.89l-2.196 8.216M202.138 994.914a.724.724 0 0 0 .688-.56M202.826 994.354l1.015-3.624M179.192 992.884l6.868 5.06M186.013 997.907a1.139 1.139 0 0 0 1.027.195M187.052 998.114l15.093-3.188" style="fill:none;stroke:red;stroke-width:1.99999;stroke-linecap:round;stroke-linejoin:round;stroke-miterlimit:500;stroke-dasharray:none;stroke-opacity:1;visibility:visible"/><path d="M343.202 625.413a.748.748 0 0 0-.708.788v.043M371.635 627.388l-9.25-4.496M372.052 627.977a.69.69 0 0 0-.416-.59" style="fill:none;stroke:red;stroke-width:.999997;stroke-linecap:round;stroke-linejoin:round;stroke-miterlimit:500;stroke-dasharray:none;stroke-opacity:1;visibility:visible"/><path d="m342.488 626.244 47.675 388.519" style="fill:none;stroke:red;stroke-width:1.99999;stroke-linecap:round;stroke-linejoin:round;stroke-miterlimit:500;stroke-dasharray:none;stroke-opacity:1;visibility:visible"/><path d="M362.386 622.89a1.24 1.24 0 0 0-.542-.12M361.524 622.784l-18.304 2.625" style="fill:none;stroke:red;stroke-width:.999997;stroke-linecap:round;stroke-linejoin:round;stroke-miterlimit:500;stroke-dasharray:none;stroke-opacity:1;visibility:visible"/><path d="M390.655 1018.654a.628.628 0 0 0 .33.544M390.163 1014.762l.479 3.89M413.644 1022.867a.753.753 0 0 0 .688-.817v-.032M414.343 1022.012l-.935-8.754M401.382 1025.774l12.302-2.912M390.986 1019.2l9.393 6.416M400.379 1025.614a1.13 1.13 0 0 0 .992.142" style="fill:none;stroke:red;stroke-width:1.99999;stroke-linecap:round;stroke-linejoin:round;stroke-miterlimit:500;stroke-dasharray:none;stroke-opacity:1;visibility:visible"/><path d="M386.176 611.063a.633.633 0 0 0-.401-.506" style="fill:none;stroke:red;stroke-width:.999997;stroke-linecap:round;stroke-linejoin:round;stroke-miterlimit:500;stroke-dasharray:none;stroke-opacity:1;visibility:visible"/><path d="m385.775 610.557-11.161-5.261M481.59 931.403l-95.403-320.34" style="fill:none;stroke:red;stroke-width:1.99999;stroke-linecap:round;stroke-linejoin:round;stroke-miterlimit:500;stroke-dasharray:none;stroke-opacity:1;visibility:visible"/><path d="m358.447 608.125.268 1.158" style="fill:none;stroke:red;stroke-width:.999997;stroke-linecap:round;stroke-linejoin:round;stroke-miterlimit:500;stroke-dasharray:none;stroke-opacity:1;visibility:visible"/><path d="m422.452 883.054 12.136 52.133M415.308 852.377l4.047 17.388M379.756 699.654l31.804 136.612" style="fill:none;stroke:red;stroke-width:1.99999;stroke-linecap:round;stroke-linejoin:round;stroke-miterlimit:500;stroke-dasharray:none;stroke-opacity:1;visibility:visible"/><path d="M359.171 607.245a.704.704 0 0 0-.735.68.563.563 0 0 0 .016.2" style="fill:none;stroke:red;stroke-width:.999997;stroke-linecap:round;stroke-linejoin:round;stroke-miterlimit:500;stroke-dasharray:none;stroke-opacity:1;visibility:visible"/><path d="m386.644 681.304-3.492-13.322M434.587 935.187l.727 3.115M482.495 939.24a.692.692 0 0 0 .635-.737c-.005-.039-.013-.079-.015-.116M483.125 938.387l-1.533-6.984M435.636 938.742l7.547 4.828M444.106 943.71l38.389-4.464M443.19 943.57a1.075 1.075 0 0 0 .906.125M373.775 605.204l-14.607 2.033" style="fill:none;stroke:red;stroke-width:1.99999;stroke-linecap:round;stroke-linejoin:round;stroke-miterlimit:500;stroke-dasharray:none;stroke-opacity:1;visibility:visible"/><path d="m304.293 607.635-9.553-4.862M406.595 846.067c.877.807-.292-.254.585.528.84.631-.257-.164.551.399.613.363-.17-.075.385.221.37.102-.084.011.227.046.164-.172-.019.109.088-.151-.024-.516.044.247-.03-.379-.167-.849.073.339-.124-.59-.237-1.006.089.358-.161-.683-.286-1.076.102.361-.193-.721-.361-1.099.133.352-.247-.719-.485-1 .182.279-.341-.639-.595-.645.224.142-.41-.393-.613-.208.218 0-.41-.11-.611.161.187-.108-.396.141-.535.513.137-.237-.333.373-.3.841.03-.333-.17.584.075.987-.089-.344.086.667.393.962-.183-.316.286.639.638.926-.248-.29.446.607.242.266-.087-.09.161.18M277.626 831.354c.888-.737-.263.268.573-.5.594-.893-.122.323.356-.607.18-.929.016.313.087-.622-.201-.867.13.273-.164-.57-.545-.77.236.217-.385-.497-.876-.556.327.122-.606-.337-1.036-.162.358-.034-.7-.064-.961.253.308-.155-.63.202-.847.581.258-.239-.552.411-.76.876.221-.328-.495.6-.61 1.093.164-.376-.383.74-.352 1.05.068-.335-.21.689-.091.841-.017-.248-.037.544.15.637-.097-.166.122.4.423.419-.195-.095.308.255.735.165-.3-.005.516.088.952-.093-.352.068.65-.084.999-.279-.342.125.668-.202 1.018-.45-.321.182.674-.315.315-.195-.101.065.208-.13M295.88 613.975l-.775 2.362M373.26 629.697l-3.538-13.49" style="fill:none;stroke:red;stroke-width:.999997;stroke-linecap:round;stroke-linejoin:round;stroke-miterlimit:500;stroke-dasharray:none;stroke-opacity:1;visibility:visible"/><path d="M295.322 602.057a.733.733 0 0 0-.582.716" style="fill:none;stroke:red;stroke-width:1.99999;stroke-linecap:round;stroke-linejoin:round;stroke-miterlimit:500;stroke-dasharray:none;stroke-opacity:1;visibility:visible"/><path d="m247.351 916.489-.536 2.89" style="fill:none;stroke:red;stroke-width:.999997;stroke-linecap:round;stroke-linejoin:round;stroke-miterlimit:500;stroke-dasharray:none;stroke-opacity:1;visibility:visible"/><path d="M245.402 919.109c.321.257.956.4 1.483.344M313.369 599.468l-17.932 2.47" style="fill:none;stroke:red;stroke-width:1.99999;stroke-linecap:round;stroke-linejoin:round;stroke-miterlimit:500;stroke-dasharray:none;stroke-opacity:1;visibility:visible"/><path d="M291.023 624.904 189.494 989.575M189.493 989.574l-2.264 8.13M306.169 622.765l-15.146 2.139M306.169 622.765a.939.939 0 0 0-.323-.824" style="fill:none;stroke:red;stroke-width:.999997;stroke-linecap:round;stroke-linejoin:round;stroke-miterlimit:500;stroke-dasharray:none;stroke-opacity:1;visibility:visible"/><path d="m294.6 616.336-15.043 2.124" style="fill:none;stroke:red;stroke-width:1.99999;stroke-linecap:round;stroke-linejoin:round;stroke-miterlimit:500;stroke-dasharray:none;stroke-opacity:1;visibility:visible"/><path d="M282.562 626.953c-.839-.142-1.727.992-1.992 2.537-.26 1.543.2 2.907 1.033 3.05.837.145 1.727-.987 1.99-2.534.264-1.545-.2-2.911-1.031-3.053M267.786 681.09c-.833-.145-1.721.99-1.987 2.534-.265 1.546.201 2.911 1.031 3.053.839.14 1.727-.992 1.987-2.536.263-1.544-.195-2.913-1.031-3.051M279.423 618.588a.737.737 0 0 0-.573.544M289.655 624.583l-10.805-5.45M289.489 624.568c.294.187.989.361 1.554.401l.12.003M295.122 616.37c-.102-.062-.342-.09-.539-.06l-.03.002" style="fill:none;stroke:red;stroke-width:.999997;stroke-linecap:round;stroke-linejoin:round;stroke-miterlimit:500;stroke-dasharray:none;stroke-opacity:1;visibility:visible"/><path d="M179.026 992.299a.536.536 0 0 0 .166.585" style="fill:none;stroke:red;stroke-width:1.99999;stroke-linecap:round;stroke-linejoin:round;stroke-miterlimit:500;stroke-dasharray:none;stroke-opacity:1;visibility:visible"/><path d="M362.168 622.844c-.106-.064-.346-.096-.536-.068l-.032.008M343.236 625.563a.752.752 0 0 0-.596.737M352.351 630.364l-9.251-4.521M353.292 630.765l47.208 385.631M352.171 630.384c.292.072.79.356 1.361.266.06-.01.688-.027.74-.034" style="fill:none;stroke:red;stroke-width:.999997;stroke-linecap:round;stroke-linejoin:round;stroke-miterlimit:500;stroke-dasharray:none;stroke-opacity:1;visibility:visible"/><path d="m361.642 622.805-18.306 2.627M371.36 627.347l-9.25-4.495" style="fill:none;stroke:red;stroke-width:1.99999;stroke-linecap:round;stroke-linejoin:round;stroke-miterlimit:500;stroke-dasharray:none;stroke-opacity:1;visibility:visible"/><path d="M359.16 607.38a.75.75 0 0 0-.57.888M369.742 613.585l-11.15-5.315M385.732 611.457a.883.883 0 0 0-.33-.809M385.732 611.457l-14.622 2.088M369.57 613.641c.314.187 1.03.183 1.59-.014.022-.008.048-.014.068-.024M363.351 634.855c-1.303.022-2.341 1.31-2.311 2.88.03 1.569 1.11 2.815 2.415 2.794 1.305-.021 2.345-1.312 2.315-2.879-.026-1.566-1.107-2.817-2.42-2.795h.001M400.502 1016.395l1.081 8.792M369.863 691.53c-1.305.023-2.343 1.311-2.315 2.88.026 1.566 1.11 2.815 2.412 2.795 1.312-.023 2.343-1.312 2.318-2.88-.03-1.563-1.108-2.815-2.415-2.795M371.584 628.114a.803.803 0 0 0-.326-.639M371.583 628.113l-18.29 2.65" style="fill:none;stroke:red;stroke-width:.999997;stroke-linecap:round;stroke-linejoin:round;stroke-miterlimit:500;stroke-dasharray:none;stroke-opacity:1;visibility:visible"/><path d="m385.518 610.519-11.164-5.259M374.42 605.253c-.1-.063-.344-.089-.54-.063-.013.006-.03.006-.04.006M373.89 605.22l-14.612 2.039" style="fill:none;stroke:red;stroke-width:1.99999;stroke-linecap:round;stroke-linejoin:round;stroke-miterlimit:500;stroke-dasharray:none;stroke-opacity:1;visibility:visible"/><path d="m443.012 943.31-.688-3.082" style="fill:none;stroke:red;stroke-width:.999997;stroke-linecap:round;stroke-linejoin:round;stroke-miterlimit:500;stroke-dasharray:none;stroke-opacity:1;visibility:visible"/><path d="m383.306 669.285-.096-1.03-.323-1.041-.557-1.024-.78-1.024-1.004-1.01-1.227-.992-1.428-.97-1.635-.947-.658-.351M287.666 690.646l1.823.678 2.573.858 2.737.818 2.898.762 3.04.702 3.173.656 3.297.592 3.396.525 3.487.463 3.557.393 3.623.327 3.656.254 3.688.182 3.692.108 3.693.036 3.664-.036 3.625-.115 3.575-.185 3.503-.255.841-.075M378.838 691.078l1.349-.676 1.617-.938 1.403-.974 1.175-1.008.953-1.032.713-1.053.483-1.067.255-1.085.01-1.092-.152-.85" style="fill:none;stroke:red;stroke-width:1.99999;stroke-linecap:round;stroke-linejoin:round;stroke-miterlimit:500;stroke-dasharray:none;stroke-opacity:1;visibility:visible"/><path d="m377.244 676.25.271-.15 1.505-.896 1.287-.93 1.055-.961.836-.982.601-.999.37-1.022.137-1.025" style="fill:none;stroke:red;stroke-width:.999997;stroke-linecap:round;stroke-linejoin:round;stroke-miterlimit:500;stroke-dasharray:none;stroke-opacity:1;visibility:visible"/><path d="m345.814 653.345-1.57-.172-3.343-.313-3.385-.252-2.238-.12M328.375 652.27l-1.105-.019-3.404.019-3.37.08-3.326.15-3.27.215-3.19.28-3.107.344-3.005.406-2.893.467-2.766.527-1.322.281" style="fill:none;stroke:red;stroke-width:1.99999;stroke-linecap:round;stroke-linejoin:round;stroke-miterlimit:500;stroke-dasharray:none;stroke-opacity:1;visibility:visible"/><path d="m291.575 676.664 2.09.746 2.531.794 2.694.753 2.844.695 2.976.645 3.105.587 3.21.53 3.311.466 3.387.397 3.447.333 3.499.262 3.529.197 3.538.123 3.544.05 3.516-.022 3.482-.09 3.436-.16 3.364-.238.336-.026" style="fill:none;stroke:red;stroke-width:.999997;stroke-linecap:round;stroke-linejoin:round;stroke-miterlimit:500;stroke-dasharray:none;stroke-opacity:1;visibility:visible"/><path d="m337.42 670.69 1.362-.25 1.218-.306 1.044-.354.848-.404.642-.44.418-.467.194-.487-.042-.494-.276-.494-.497-.48-.719-.467-.912-.437-1.1-.4-1.266-.352-1.396-.308-1.508-.246-.592-.07M328.522 663.982l-1.233.064-1.531.15-1.423.214-1.288.276-1.133.33-.956.373-.755.423-.537.452-.323.472-.085.492.145.497.372.49.6.478.812.453 1.008.424 1.183.383 1.336.333 1.463.28 1.562.217 1.634.157 1.666.086 1.672.024 1.645-.054 1.58-.119 1.482-.187" style="fill:none;stroke:red;stroke-width:1.33333;stroke-linecap:round;stroke-linejoin:round;stroke-miterlimit:500;stroke-dasharray:none;stroke-opacity:1;visibility:visible"/><path d="m337.42 669.49 1.362-.253 1.218-.304 1.044-.355.848-.404.642-.44.418-.466M319.775 667.014l.599.476.813.455 1.007.425 1.183.382 1.336.333 1.464.279 1.562.218 1.632.158 1.667.085 1.672.023 1.647-.054 1.576-.118 1.485-.187" style="fill:none;stroke:red;stroke-width:1.33333;stroke-linecap:round;stroke-linejoin:round;stroke-miterlimit:500;stroke-dasharray:none;stroke-opacity:1;visibility:visible"/><path d="M372.583 632.816a3.647 3.647 0 0 0 .677-3.12" style="fill:none;stroke:red;stroke-width:.999997;stroke-linecap:round;stroke-linejoin:round;stroke-miterlimit:500;stroke-dasharray:none;stroke-opacity:1;visibility:visible"/><path d="m359.092 609.41-.828-.26-2.198-.6-2.336-.555-1.812-.367M348.327 606.995l-1.356-.202M343.242 606.316l-.875-.085M323.335 605.685l-.213.008-.223.014M318.851 605.981l-1.208.103M314.223 606.483l-1.693.237-2.38.401-2.241.463-2.084.512-1.916.563-1.746.605-1.546.648-1.355.688-1.145.72-.924.752-.704.777-.48.796-.243.812-.016.823.231.823.456.826.033.051M302.754 636.639l1.633.501 2.375.645 2.52.603 2.663.544 2.78.49 2.891.435 2.974.371 3.044.31 3.093.239 3.13.174 3.147.108 3.138.044 3.122-.03 3.078-.1 1.942-.096" style="fill:none;stroke:red;stroke-width:1.99999;stroke-linecap:round;stroke-linejoin:round;stroke-miterlimit:500;stroke-dasharray:none;stroke-opacity:1;visibility:visible"/><path d="m322.69 605.715.172-.856M252.109 890.903l-4.759 25.587M262.387 835.578l-8.044 43.317M289.218 691.225l-24.544 132.058M339.032 618.865l1.375-.237 1.221-.288 1.047-.335.857-.38.643-.414.42-.444.192-.46-.041-.465-.276-.472-.506-.459-.718-.442-.924-.414-.303-.107M323.775 613.364l-.345.092-.957.359-.76.394-.544.426-.32.452-.087.46.147.475.374.465.602.452.817.433 1.013.405 1.195.364 1.34.319 1.48.265 1.572.212 1.64.15 1.677.085 1.683.023 1.648-.047 1.588-.11 1.494-.174M306.606 622.521l1.317.387 2.284.597 2.43.546 2.56.494 2.677.438 2.776.377 2.855.324 2.913.256 2.952.195 2.98.122 2.982.058 2.968-.005 2.926-.074 1.29-.057M362.488 622.941l.487-.176 1.623-.648 1.414-.687 1.206-.717.976-.752.756-.781.522-.796.292-.808.058-.819-.186-.826-.405-.821-.639-.82-.866-.806-1.079-.788-1.29-.776-1.501-.743-1.688-.707-1.87-.682-1.206-.377" style="fill:none;stroke:red;stroke-width:.999997;stroke-linecap:round;stroke-linejoin:round;stroke-miterlimit:500;stroke-dasharray:none;stroke-opacity:1;visibility:visible"/><path d="m294.742 602.775-2.544 13.862" style="fill:none;stroke:red;stroke-width:1.99999;stroke-linecap:round;stroke-linejoin:round;stroke-miterlimit:500;stroke-dasharray:none;stroke-opacity:1;visibility:visible"/><path d="M322.98 604.967c.31-.058.512-.187.54-.344" style="fill:none;stroke:red;stroke-width:.999997;stroke-linecap:round;stroke-linejoin:round;stroke-miterlimit:500;stroke-dasharray:none;stroke-opacity:1;visibility:visible"/><path d="m401.583 1025.187.005.145-.013.142-.023.116-.05.097-.058.057-.064.034M258.609 917.205c.36-.042.598-.18.638-.355" style="fill:none;stroke:red;stroke-width:1.99999;stroke-linecap:round;stroke-linejoin:round;stroke-miterlimit:500;stroke-dasharray:none;stroke-opacity:1;visibility:visible"/><path d="M385.852 611.515c.342-.138.534-.315.514-.48M358.59 608.268l.248 1.052M386.699 683.75l35.347 159.243M371.111 613.545l12.336 55.576M442.324 940.228l-13.95-62.794" style="fill:none;stroke:red;stroke-width:.999997;stroke-linecap:round;stroke-linejoin:round;stroke-miterlimit:500;stroke-dasharray:none;stroke-opacity:1;visibility:visible"/><path d="m276.351 829.429-.321 1.286 1.07-.213M369.486 693.728v1.426h1.426M362.826 636.868v1.427h1.426M267.423 682.785l-.476 1.903.476.237M282.173 628.541l-.476 1.903.476.236" style="fill:none;stroke:red;stroke-width:.666665;stroke-linecap:round;stroke-linejoin:round;stroke-miterlimit:500;stroke-dasharray:none;stroke-opacity:1;visibility:visible"/><path d="m523.447 812.583 61.852-9.562 4.464.799 9.543 4.22" style="fill:none;stroke:red;stroke-width:1.99999;stroke-linecap:round;stroke-linejoin:round;stroke-miterlimit:4;stroke-dasharray:none;stroke-opacity:1;visibility:visible"/><path d="M342.366 606.23s-2.968-.313-7.182-.512M331.106 605.581a109.454 109.454 0 0 0-7.586.104M306.169 622.765l9.951 16.877M276.351 829.429l2.476-8.807M263.567 894.674l2.44-11.834M278.827 820.622l-2.46 11.925M266.007 882.84l-2.44 11.834M244.703 874.555l-2.246 12.255M253.57 826.23l-2.357 12.861M242.457 886.81l2.246-12.255M262.387 835.578l-8.817-9.348M317.382 601.268l7.835 4.019M318.8 602.007l3.417 1.781M322.217 603.788l-3.417-1.781M325.217 605.287l-7.835-4.019M419.355 869.765l3.097 13.289M422.046 842.993l-6.738 9.384M428.374 877.434l-9.019-7.669M386.644 681.304l-6.888 18.35M415.308 852.377l-3.748-16.111M383.447 669.121l-.295-1.139" style="fill:none;stroke:red;stroke-width:1.99999;stroke-linecap:round;stroke-linejoin:round;stroke-miterlimit:500;stroke-dasharray:none;stroke-opacity:1;visibility:visible"/><path d="m295.35 616.42 8.943-8.785M306.64 622.699l-10.76-8.724M358.838 609.32l10.884 6.887M294.799 616.3l-12.237 10.653M361.844 622.77l1.507 12.085M361.844 622.77l1.507 12.085M370.912 695.154l-1.049-3.624" style="fill:none;stroke:red;stroke-width:.999997;stroke-linecap:round;stroke-linejoin:round;stroke-miterlimit:500;stroke-dasharray:none;stroke-opacity:1;visibility:visible"/><path d="m369.863 691.53-18.656 5.804M334.838 664.234l10.976-10.889M328.375 652.27l6.903.218M335.278 652.488l-6.903-.218" style="fill:none;stroke:red;stroke-width:1.99999;stroke-linecap:round;stroke-linejoin:round;stroke-miterlimit:500;stroke-dasharray:none;stroke-opacity:1;visibility:visible"/><path d="m345.814 653.345-10.976 10.889" style="fill:none;stroke:red;stroke-width:1.33333;stroke-linecap:round;stroke-linejoin:round;stroke-miterlimit:500;stroke-dasharray:none;stroke-opacity:1;visibility:visible"/><path d="m348.327 606.995 3.591.633M351.918 607.628l-3.591-.633M343.242 606.316l3.729.477M322.899 605.707l-4.048.274M314.223 606.483l3.42-.399M317.643 606.084l-3.42.399" style="fill:none;stroke:red;stroke-width:1.99999;stroke-linecap:round;stroke-linejoin:round;stroke-miterlimit:500;stroke-dasharray:none;stroke-opacity:1;visibility:visible"/><path d="m254.343 878.895-2.234 12.008M264.674 823.283l-2.287 12.295M252.109 890.903l2.234-12.008M262.387 835.578l2.287-12.295M359.092 609.41l-17.073 4.538M322.98 604.967l.795 8.397M386.644 681.304l.055 2.446M415.308 852.377l6.738-9.384M419.355 869.765l9.019 7.669" style="fill:none;stroke:red;stroke-width:.999997;stroke-linecap:round;stroke-linejoin:round;stroke-miterlimit:500;stroke-dasharray:none;stroke-opacity:1;visibility:visible"/><path d="m278.827 820.622-2.476 8.807M369.863 691.53l1.049 3.624M371.584 628.114l-8.758 8.754M361.844 622.77l2.408 15.525M278.85 619.132l3.323 9.409M278.85 619.133l3.323 11.547" style="fill:none;stroke:red;stroke-width:.666665;stroke-linecap:round;stroke-linejoin:round;stroke-miterlimit:500;stroke-dasharray:none;stroke-opacity:1;visibility:visible"/><path d="m331.106 605.581 4.078.137M335.184 605.718l-4.078-.137" style="fill:none;stroke:red;stroke-width:1.99999;stroke-linecap:round;stroke-linejoin:round;stroke-miterlimit:500;stroke-dasharray:none;stroke-opacity:1;visibility:visible"/><path d="m332.82 531.732-.426.003-.805.022-.801.04-.79.063-.776.08-.76.103-.739.122-.713.14-.69.16-.657.18-.626.197-.592.218-.556.24-.519.26-.475.285-.433.315-.382.34-.285.321-.225.329-.175.335-.12.342-.07.38-.006.242M344.444 536.45l-.016-.303-.074-.359-.128-.345-.179-.335-.232-.325-.29-.318-.348-.309-.414-.299-.47-.282-.517-.265-.561-.242-.599-.22-.632-.203-.662-.18-.694-.16-.718-.143-.742-.122-.762-.099-.778-.085-.792-.059-.8-.042-.806-.02-.41-.005M321.475 544.601v42.762M344.166 587.364v-42.761" style="fill:none;stroke:#00ff4a;stroke-width:1.66666;stroke-linecap:round;stroke-linejoin:round;stroke-miterlimit:10;stroke-dasharray:none;stroke-opacity:1;visibility:visible" visibility="hidden"/><path d="M321.191 536.455v2.133M344.45 538.588v-2.133" style="fill:none;stroke:#00ff4a;stroke-width:.999997;stroke-linecap:round;stroke-linejoin:round;stroke-miterlimit:10;stroke-dasharray:none;stroke-opacity:1;visibility:visible" visibility="hidden"/><path d="m318.48 532.573-.926.272M314.327 534.09l-.68.348-.624.357-.566.37-.508.379-.449.387-.386.396-.324.402-.26.407-.196.412-.13.415-.067.417v.416l.066.417.13.414.197.412.26.408.324.401.386.396.449.388.508.379.566.369.624.356.68.348.734.336.784.317.833.304.879.29.923.272" style="fill:none;stroke:#00ff4a;stroke-width:1.66666;stroke-linecap:round;stroke-linejoin:round;stroke-miterlimit:10;stroke-dasharray:none;stroke-opacity:1;visibility:visible" visibility="hidden"/><path d="m315.946 542.092.253.07.291.049.317.031.323.004.324-.016.303-.041.273-.059.23-.08.18-.094.116-.104.051-.11-.017-.11-.085-.109-.147-.099-.208-.087M315.143 541.817l.803.275M317.35 541.061l-.252-.07-.292-.051-.316-.028M314.857 541.197l-.118.104-.049.111.016.112.084.107.148.098.205.088M318.151 541.337l-.801-.276" style="fill:none;stroke:#00ff4a;stroke-width:.666665;stroke-linecap:round;stroke-linejoin:round;stroke-miterlimit:10;stroke-dasharray:none;stroke-opacity:1;visibility:visible" visibility="hidden"/><path d="M347.16 544.601h-28.68M347.16 544.601l.924-.271.88-.29.833-.304.785-.319.732-.334.68-.347.624-.356.568-.371.508-.378.448-.388.385-.395.324-.403.26-.405.196-.413.13-.415.067-.417v-.416l-.066-.416-.13-.416-.198-.412-.259-.407-.324-.403-.385-.394-.448-.388-.508-.38-.568-.368-.624-.359-.68-.346M348.084 532.845l-.924-.272M339.718 532.573h3.722M346.562 532.573h.598M318.48 532.573h.77M322.085 532.573h3.838" style="fill:none;stroke:#00ff4a;stroke-width:1.66666;stroke-linecap:round;stroke-linejoin:round;stroke-miterlimit:10;stroke-dasharray:none;stroke-opacity:1;visibility:visible" visibility="hidden"/><path d="m318.96 534.265-.192.08-.135.091-.08.101-.013.103.046.101.108.095.164.087.212.074.253.055.282.036.295.016.299-.004.295-.028.266-.047.234-.064M319.698 534.012l-.74.253M320.994 534.961l.74-.253M346.074 534.021l-.126-.033M346.868 534.295l-.794-.275M344.683 535.041l.25.069.29.05.311.03.324.004.317-.017.301-.037.272-.061.228-.079.175-.093.116-.103.05-.11-.017-.108-.084-.109-.145-.097-.203-.087M343.89 534.77l.793.27M349.258 540.744l-.328.006-.314.03-.29.049-.256.069M349.476 541.93l.804-.276M347.27 541.175l-.206.085-.148.101-.084.107-.017.112.05.11.119.102.176.096.231.079.273.061.304.04.323.017.325-.005.315-.031.29-.049M349.223 541.999l.253-.07M348.071 540.899l-.801.276" style="fill:none;stroke:#00ff4a;stroke-width:.666665;stroke-linecap:round;stroke-linejoin:round;stroke-miterlimit:10;stroke-dasharray:none;stroke-opacity:1;visibility:visible" visibility="hidden"/><path d="m321.475 587.364.019.22.08.292.146.29.209.286.271.277.334.272.39.26.45.251.501.239.552.224.603.209.645.195.687.176.724.157.756.139.787.118.809.099.828.077.844.055.853.033.857.012M332.82 591.245l.858-.012.855-.033.842-.055.828-.077.81-.099.784-.118.758-.139.725-.159.686-.173.644-.196.604-.21.552-.222.502-.24.448-.25.391-.262.333-.27.272-.28.208-.284.147-.29.081-.292.018-.22" style="fill:none;stroke:#00ff4a;stroke-width:1.66666;stroke-linecap:round;stroke-linejoin:round;stroke-miterlimit:10;stroke-dasharray:none;stroke-opacity:1;visibility:visible" visibility="hidden"/><path d="m344.45 538.588-.032.297-.098.295-.162.293-.224.287-.288.281-.348.272-.408.263-.462.25-.516.241-.566.227-.616.209-.659.194-.7.176-.736.16-.77.139-.796.116-.819.102-.843.075-.853.055-.864.033-.87.011-.868-.01-.862-.034-.857-.055-.84-.075-.82-.1-.798-.118-.77-.14-.735-.159-.7-.176-.66-.194-.615-.21-.565-.226-.517-.24-.463-.25-.408-.265-.347-.271-.285-.28-.227-.289-.161-.292-.097-.295-.035-.297" style="fill:none;stroke:#00ff4a;stroke-width:.999997;stroke-linecap:round;stroke-linejoin:round;stroke-miterlimit:10;stroke-dasharray:none;stroke-opacity:1;visibility:visible" visibility="hidden"/><path d="M344.45 536.455v.001l-.032.299-.098.294-.162.294-.224.286-.288.281-.348.273-.408.264-.462.25-.516.24-.566.226-.616.21-.659.191-.7.179-.736.157-.77.141-.796.119-.819.096-.843.077-.853.058-.864.032-.87.01-.868-.01-.862-.033-.857-.057-.84-.076-.82-.097-.798-.12-.77-.139-.735-.158-.7-.178-.66-.193-.615-.21-.565-.224-.517-.241-.463-.25-.408-.264-.347-.274-.285-.279-.227-.287-.161-.294-.097-.294-.035-.299v-.003M324.773 535.515v-.248l.065-.247.13-.243.19-.237.256-.233.313-.222.37-.212.425-.2.476-.186.522-.17.565-.157.604-.135.637-.118.664-.095.687-.079.705-.053.716-.033.722-.012.722.012.716.033.705.053.687.08.664.093.638.119.603.136.565.155.522.17.476.188.425.199.37.212.312.222.255.232.192.238.13.243.065.247M340.868 535.265v.248" style="fill:none;stroke:#00ff4a;stroke-width:.999997;stroke-linecap:round;stroke-linejoin:round;stroke-miterlimit:10;stroke-dasharray:none;stroke-opacity:1;visibility:visible" visibility="hidden"/><path d="m340.868 535.515-.065.245-.13.243-.19.237-.256.233-.313.223-.37.212-.426.2-.475.185-.523.171-.564.156-.604.135-.637.118-.664.095-.688.077-.703.055-.717.035-.723.01" style="fill:none;stroke:#00ff4a;stroke-width:.999997;stroke-linecap:round;stroke-linejoin:round;stroke-miterlimit:10;stroke-dasharray:none;stroke-opacity:1;visibility:visible" visibility="hidden"/><path d="m340.868 535.135-.065.245-.13.243-.19.237-.256.233-.313.223-.37.212-.426.2-.475.185-.523.171-.564.156-.604.135-.637.118-.664.095-.688.077-.703.055-.717.035-.723.01M332.82 538.145l-.721-.01-.717-.035-.704-.055-.688-.077-.664-.096-.637-.117-.603-.136-.566-.155-.522-.17-.476-.187-.424-.199-.37-.212-.315-.223-.254-.232-.192-.238M324.967 536.001l-.13-.244-.063-.244" style="fill:none;stroke:#00ff4a;stroke-width:.999997;stroke-linecap:round;stroke-linejoin:round;stroke-miterlimit:10;stroke-dasharray:none;stroke-opacity:1;visibility:visible" visibility="hidden"/><path d="m332.82 537.765-.721-.01-.717-.035-.704-.053-.688-.078-.664-.096-.637-.118-.603-.136-.566-.154-.522-.172-.476-.183-.424-.2-.37-.215-.315-.222-.254-.232-.192-.237" style="fill:none;stroke:#00ff4a;stroke-width:.999997;stroke-linecap:round;stroke-linejoin:round;stroke-miterlimit:10;stroke-dasharray:none;stroke-opacity:1;visibility:visible" visibility="hidden"/><path d="m321.191 538.588.284 6.013M344.45 538.588l-.284 6.015M332.82 531.732l6.898.841M346.562 532.573h-3.122M319.25 532.573h2.835M332.82 531.73l-6.897.843" style="fill:none;stroke:#00ff4a;stroke-width:1.66666;stroke-linecap:round;stroke-linejoin:round;stroke-miterlimit:10;stroke-dasharray:none;stroke-opacity:1;visibility:visible" visibility="hidden"/><path d="m346.562 532.573 2.696 8.171" style="fill:none;stroke:#00ff4a;stroke-width:.666665;stroke-linecap:round;stroke-linejoin:round;stroke-miterlimit:10;stroke-dasharray:none;stroke-opacity:1;visibility:visible" visibility="hidden"/><path d="m328.375 652.27.147 11.712M334.838 664.234l8.114 3.034" style="fill:none;stroke:red;stroke-width:1.33333;stroke-linecap:round;stroke-linejoin:round;stroke-miterlimit:500;stroke-dasharray:none;stroke-opacity:1;visibility:visible"/><path d="m306.169 622.765-9.699-5.785M328.375 652.27l15.909-11.393" style="fill:none;stroke:red;stroke-width:1.99999;stroke-linecap:round;stroke-linejoin:round;stroke-miterlimit:500;stroke-dasharray:none;stroke-opacity:1;visibility:visible"/><path d="m386.699 683.75-17.213 9.978" style="fill:none;stroke:red;stroke-width:.666665;stroke-linecap:round;stroke-linejoin:round;stroke-miterlimit:500;stroke-dasharray:none;stroke-opacity:1;visibility:visible"/></svg>