<svg xmlns="http://www.w3.org/2000/svg" baseProfile="full" height="1122.52" preserveAspectRatio="xMinYMin meet" style="width:765px;height:943px" width="793.701" xml:space="preserve"><path d="m576.677 575.681-.221 41.352M575.844 732.85l-.367 49.924" style="fill:none;stroke:red;stroke-width:1.99999;stroke-linecap:round;stroke-linejoin:round;stroke-miterlimit:500;stroke-dasharray:none;stroke-opacity:1;visibility:visible"/><path d="m600.033 575.41.014-2.06" style="fill:none;stroke:red;stroke-width:.999997;stroke-linecap:round;stroke-linejoin:round;stroke-miterlimit:500;stroke-dasharray:none;stroke-opacity:1;visibility:visible"/><path d="M600.533 782.774v-51.76M600.242 615.916l-.098-37.521" style="fill:none;stroke:red;stroke-width:1.99999;stroke-linecap:round;stroke-linejoin:round;stroke-miterlimit:500;stroke-dasharray:none;stroke-opacity:1;visibility:visible"/><path d="m574.901 729.222.014 2.066" style="fill:none;stroke:red;stroke-width:.999997;stroke-linecap:round;stroke-linejoin:round;stroke-miterlimit:500;stroke-dasharray:none;stroke-opacity:1;visibility:visible"/><path d="m601.558 723.288.012-2.076M601.598 717.866l.014-2.078M601.64 712.424l.016-2.091M601.683 706.957l.009-2.099M601.724 701.473l.013-2.104M574.879 702.012l.005 2.098M574.888 707.488v2.092M574.888 712.952v2.09M574.892 718.392l.005 2.081M574.905 723.821l.003 2.073" style="fill:none;stroke:red;stroke-width:.666665;stroke-linecap:round;stroke-linejoin:round;stroke-miterlimit:500;stroke-dasharray:none;stroke-opacity:1;visibility:visible"/><path d="m601.527 728.692.007-2.066" style="fill:none;stroke:red;stroke-width:.999997;stroke-linecap:round;stroke-linejoin:round;stroke-miterlimit:500;stroke-dasharray:none;stroke-opacity:1;visibility:visible"/><path d="M601.093 697.67c.503.678-.156-.229.33.454.551 1.445-.045-.495.299.968-.064 1.438.114-.476-.088.956-.629 1.452.323-.479-.473.966-1.17 1.362.492-.442-.828.902-1.73 1.293.672-.416-1.198.85-2.165 1.136.792-.353-1.482.744-2.645 1.032.95-.316-1.808.679-2.908.843 1.027-.253-1.96.536-3.261.685 1.123-.183-2.19.437-3.331.459 1.122-.109-2.235.284-3.49.251 1.17-.033-2.325.14-3.351.019 1.105.032-2.232-.004-3.307-.18 1.067.096-2.18-.14-2.993-.358.937.154-1.975-.254-2.751-.536.848.214-1.798-.378-2.27-.673.68.256-1.477-.462-1.873-.839.532.304-1.205-.574-1.308-.918.35.328-.82-.622-.788-1 .161.341-.475-.667-.2-.984-.038.33-.08-.659.387-.996-.216.331.302-.664.87-.942-.446.292.655-.617.087-.052-.022.01.063-.035M576.136 705.774c-.172.102.047-.026-.116.074-1.029.924.176-.328-.6.621-.145.373-.38.485-.5.855M576.297 700.432v1.294M576.297 705.957l.01 1.25M576.307 711.449v1.221M576.31 716.905l-.007 1.205M576.315 722.358v1.18M576.315 727.793l.002 1.15M600.128 726.334l.005-.406M600.17 720.918v-.418M600.198 715.494l.006-.442M600.242 710.036l.003-.496M600.284 704.566v-.546M600.312 699.08l.01-.586" style="fill:none;stroke:red;stroke-width:.666665;stroke-linecap:round;stroke-linejoin:round;stroke-miterlimit:500;stroke-dasharray:none;stroke-opacity:1;visibility:visible"/><path d="M601.078 703.168c.35.442-.108-.154.23.292.63 1.413-.073-.486.346.95.04 1.484.095-.494-.018.992-.527 1.435.279-.474-.412.956-1.104 1.419.485-.466-.784.94-1.601 1.282.62-.414-1.11.848-2.154 1.202.797-.38-1.48.787-2.51 1.035.905-.323-1.712.68-2.931.904 1.039-.273-1.981.585-3.136.688 1.08-.197-2.112.439-3.395.512 1.162-.12-2.272.32-3.385.27 1.13-.052-2.265.156-3.458.055 1.141.027-2.293.013-3.24-.152 1.044.084-2.15-.116-3.104-.342.986.152-2.044-.241-2.718-.516.842.201-1.781-.356-2.42-.693.72.255-1.57-.477-1.892-.807.546.292-1.22-.547-1.428-.948.38.33-.892-.643-.846-.98.187.328-.523-.66-.34-1.03-.047.35-.15-.689.063-.175-.025.057.048-.117M574.943 712.806c.164-.776-.104.252.13-.513.698-.99-.396.313.537-.653.281-.188-.09.057.187-.134" style="fill:none;stroke:red;stroke-width:.666665;stroke-linecap:round;stroke-linejoin:round;stroke-miterlimit:500;stroke-dasharray:none;stroke-opacity:1;visibility:visible"/><path d="M601.065 708.634c.153.18-.05-.054.105.123.75 1.456-.086-.505.422.981.113 1.454.05-.492.036.975-.446 1.484.257-.5-.358.992-.989 1.401.428-.467-.708.924-1.565 1.357.62-.432-1.087.896-2.011 1.2.749-.377-1.389.781-2.513 1.102.923-.333-1.708.724-2.805.91.993-.273-1.898.588-3.17.759 1.104-.21-2.133.486-3.28.522 1.112-.136-2.2.33-3.475.318 1.163-.057-2.317.19-3.371.084 1.115.016-2.24.034-3.358-.133 1.094.078-2.224-.108-3.058-.309.974.139-2.011-.225-2.858-.5.877.2-1.871-.347-2.397-.653.72.247-1.564-.456-2.024-.825.577.303-1.303-.562-1.47-.92.396.325-.934-.618-.951-1.02.229.344-.591-.684-.43-1.018-.019.343-.202-.682.014-.032 0 .016.003-.024" style="fill:none;stroke:red;stroke-width:.666665;stroke-linecap:round;stroke-linejoin:round;stroke-miterlimit:500;stroke-dasharray:none;stroke-opacity:1;visibility:visible"/><path d="M601.068 714.105c.702 1.36-.178-.464.437.907.24 1.512.042-.514.096 1.008-.345 1.468.221-.486-.281.973-.927 1.47.42-.47-.67.973-1.44 1.35.567-.429-1.005.891-1.989 1.261.748-.395-1.374.827-2.367 1.098.869-.334-1.621.721-2.825.976 1.006-.295-1.907.64-3.043.763 1.054-.227-2.044.49-3.344.572 1.134-.165-2.24.365-3.37.336 1.117-.074-2.255.2-3.47.12 1.15.008-2.314.057-3.27-.099 1.077.076-2.163-.079-3.187-.301 1.008.136-2.094-.213-2.822-.476.875.18-1.852-.336-2.533-.659.766.248-1.653-.457-2.033-.79.599.282-1.318-.532-1.59-.951.438.33-1.007-.643-1.023-.992.237.341-.626-.664-.49-1.068.044.348-.27-.71.098-1.031-.127.337.112-.679.634-1.039-.366.321.497-.692.336-.25-.116.092.224-.17" style="fill:none;stroke:red;stroke-width:.666665;stroke-linecap:round;stroke-linejoin:round;stroke-miterlimit:500;stroke-dasharray:none;stroke-opacity:1;visibility:visible"/><path d="M601.024 719.55c.63 1.107-.18-.369.399.746.32 1.464.01-.5.147.984-.262 1.52.199-.508-.22 1.02-.818 1.448.369-.479-.598.958-1.387 1.42.564-.457-.977.932-1.855 1.254.713-.4-1.278.822-2.366 1.161.865-.36-1.617.76-2.69.981.949-.295-1.823.645-3.08.824 1.074-.244-2.074.527-3.223.601 1.093-.162-2.17.38-3.437.393 1.164-.084-2.292.24-3.366.15 1.119-.008-2.241.082-3.4-.072 1.105.064-2.251-.072-3.119-.266 1.003.127-2.062-.19-2.947-.472.923.182-1.932-.331-2.515-.628.765.243-1.645-.427-2.163-.813.64.286-1.397-.549-1.63-.917.452.32-1.042-.62-1.138-1.03.276.35-.701-.69-.557-1.046.077.345-.325-.696.016-1.078-.101.357.052-.718.55-1.027-.305.33.43-.68.403-.336-.143.115.276-.227" style="fill:none;stroke:red;stroke-width:.666665;stroke-linecap:round;stroke-linejoin:round;stroke-miterlimit:500;stroke-dasharray:none;stroke-opacity:1;visibility:visible"/><path d="M600.976 724.954c.536.86-.146-.273.341.574.421 1.52-.01-.522.216 1.025-.17 1.487.153-.51-.163.99-.746 1.509.36-.496-.548 1.004-1.264 1.402.518-.45-.888.923-1.827 1.336.701-.417-1.27.878-2.235 1.156.825-.36-1.527.765-2.705 1.035.975-.323-1.836.675-2.941.836 1.027-.246-1.986.541-3.271.652 1.117-.181-2.2.412-3.32.413 1.12-.092-2.22.255-3.463.193 1.149-.016-2.31.112-3.304-.048 1.085.049-2.19-.05-3.24-.252 1.037.115-2.143-.185-2.904-.43.917.177-1.91-.299-2.642-.628.815.232-1.732-.437-2.162-.764.65.281-1.397-.519-1.753-.937.487.328-1.122-.637-1.196-1 .294.343-.751-.675-.66-1.081.12.356-.385-.721-.078-1.06-.07.345 0-.707.472-1.08-.285.347.37-.71.99-.935-.385.305.69-.623" style="fill:none;stroke:red;stroke-width:.666665;stroke-linecap:round;stroke-linejoin:round;stroke-miterlimit:500;stroke-dasharray:none;stroke-opacity:1;visibility:visible"/><path d="m574.82 696.2.016 2.062M574.93 704.11c-.046.383-.004-.125-.023.255.389.993-.264-.33.328.66 1.005.992-.431-.319.72.661 1.511.888-.59-.273 1.057.58 2.051.798-.776-.236 1.408.516 2.441.626-.879-.177 1.663.408 2.877.48-1.02-.126 1.95.306 3.09.286-1.076-.068 2.077.174 3.38.11-1.154.003 2.262.055 3.377-.096-1.13.07 2.255-.087 3.477-.328-1.138.155 2.316-.236 3.27-.541-1.063.216 2.166-.374 3.167-.756-1.005.282 2.083-.524 2.792-.912-.864.333 1.836-.62 2.5-1.088-.752.388 1.625-.747 1.981-1.18-.573.421 1.281-.795 1.54-1.349-.405.466.975-.912.947-1.388-.229.475.589-.924.459-1.476.013.49.225-.984-.018-.07.001.02-.007-.05M574.927 709.582c-.003.539-.014-.169.008.36.505 1.034-.3-.346.41.688 1.06.969-.452-.313.746.638 1.636.91-.634-.274 1.136.604 2.066.762-.774-.227 1.418.492 2.568.636-.925-.186 1.75.401 2.847.456-1.003-.11 1.923.29 3.199.272-1.115-.055 2.158.169 3.297.074-1.126.001 2.204.033 3.484-.139-1.163.085 2.331-.112 3.356-.355-1.108.164 2.228-.26 3.344-.581-1.075.233 2.216-.41 3.032-.765-.968.291 1.993-.522 2.812-.977-.876.353 1.845-.668 2.355-1.09-.718.388 1.521-.739 1.976-1.256-.554.44 1.28-.846 1.394-1.336-.379.46.886-.902.9-1.45-.189.492.54-.968.25-1.308-.023.435.144-.873M574.932 715.036c.047.724-.052-.238.055.481.573 1.016-.312-.33.448.675 1.177 1.01-.492-.318.828.664 1.666.88-.643-.268 1.157.578 2.191.779-.819-.232 1.504.5 2.55.602-.91-.164 1.732.383 2.976.445-1.044-.104 2.008.284 3.15.241-1.076-.047 2.116.143 3.417.054-1.149.026 2.288.018 3.377-.164-1.13.099 2.252-.138 3.437-.4-1.128.182 2.287-.279 3.21-.615-1.044.232 2.122-.43 3.075-.825-.972.31 2.021-.565 2.68-.98-.826.358 1.75-.666 2.349-1.154-.703.406 1.524-.787 1.835-1.244-.521.441 1.179-.837 1.354-1.407-.363.478.857-.948.796-1.426-.15.492.468-.959.139-1.096-.005.367.072-.73M574.921 720.473c.129.888-.093-.292.115.583.683 1.064-.356-.343.513.712 1.234.972-.499-.322.862.645 1.789.896-.684-.276 1.248.587 2.2.736-.82-.215 1.497.478 2.68.596-.956-.168 1.82.38 2.934.41-1.028-.101 1.979.258 3.269.224-1.12-.042 2.204.133 3.32.03-1.123.03 2.22-.003 3.473-.21-1.154.112 2.314-.164 3.327-.426-1.091.188 2.202-.3 3.274-.661-1.045.254 2.157-.457 2.945-.847-.923.301 1.94-.581 2.692-1.036-.833.38 1.75-.706 2.212-1.153-.658.407 1.436-.776 1.802-1.32-.495.459 1.152-.896 1.233-1.38-.321.476.776-.932.736-1.488-.106.508.424-1.002.058-.847.018.288.028-.566M574.91 725.894c.228 1.076-.158-.364.186.714.764 1.036-.361-.336.564.69 1.348 1.012-.545-.325.955.662 1.808.874-.7-.266 1.242.562 2.328.75-.857-.212 1.59.484 2.657.566-.941-.148 1.807.362 3.049.401-1.069-.096 2.062.252 3.2.196-1.1-.031 2.148.108 3.426 0-1.161.041 2.296-.031 3.357-.23-1.113.132 2.235-.175 3.405-.474-1.105.206 2.25-.338 3.15-.678-.997.265 2.082-.472 2.97-.899-.937.336 1.952-.62 2.549-1.039-.776.381 1.666-.706 2.207-1.216-.648.435 1.42-.82 1.678-1.312-.461.451 1.072-.888 1.173-1.445-.301.503.735-.978.63-1.475-.072.5.352-.978-.008-.645.021.208-.005-.434M574.937 731.288c-.036.182.01-.055-.021.125.259 1.06-.239-.355.244.7.895 1.081-.38-.341.644.716 1.381.987-.564-.307.964.641 1.94.886-.728-.268 1.344.583 2.325.708-.852-.208 1.583.461 2.78.563-.987-.158 1.882.358 3.019.366-1.044-.09 2.033.222 3.311.172-1.134-.017 2.223.1 3.344-.037-1.125.047 2.23-.046 3.456-.284-1.14.137 2.297-.212 3.283-.506-1.06.204 2.18-.362 3.187-.734-1.021.29 2.097-.508 2.836-.909-.88.336 1.863-.616 2.56-1.111-.773.389 1.68-.758 2.057-1.207-.612.432 1.323-.814 1.642-1.385-.443.48 1.04-.937 1.059-1.435-.255.495.666-.96.561-1.535-.029.512.296-1.019-.021-.39.015.123-.019-.27" style="fill:none;stroke:red;stroke-width:.999997;stroke-linecap:round;stroke-linejoin:round;stroke-miterlimit:500;stroke-dasharray:none;stroke-opacity:1;visibility:visible"/><path d="m601.481 690.265.013-2.073M601.521 684.842l.013-2.082M601.563 679.394l.007-2.084M601.601 673.934l.016-2.096M601.639 668.45l.018-2.103M574.799 668.986l.001 2.102M574.81 674.462l.001 2.1M574.804 679.928l.008 2.088M574.817 685.37l.006 2.077M574.825 690.793l.003 2.073" style="fill:none;stroke:red;stroke-width:.666665;stroke-linecap:round;stroke-linejoin:round;stroke-miterlimit:500;stroke-dasharray:none;stroke-opacity:1;visibility:visible"/><path d="m601.448 695.668.01-2.068" style="fill:none;stroke:red;stroke-width:.999997;stroke-linecap:round;stroke-linejoin:round;stroke-miterlimit:500;stroke-dasharray:none;stroke-opacity:1;visibility:visible"/><path d="M601.01 664.645c.51.68-.148-.224.334.453.546 1.452-.047-.492.3.972-.064 1.44.116-.48-.084.958-.632 1.452.317-.479-.473.964-1.175 1.361.485-.44-.832.901-1.729 1.299.673-.412-1.198.85-2.17 1.137.793-.353-1.477.747-2.655 1.03.947-.314-1.81.676-2.91.844 1.019-.256-1.96.54-3.261.681 1.115-.186-2.193.434-3.333.458 1.126-.112-2.234.284-3.487.25 1.172-.036-2.326.14-3.353.018 1.107.032-2.232-.004-3.304-.18 1.068.096-2.184-.144-2.99-.352.94.156-1.97-.247-2.747-.543.851.211-1.799-.379-2.272-.678.684.254-1.475-.465-1.877-.839.531.301-1.207-.57-1.307-.921.345.319-.82-.624-.79-1.002.159.339-.474-.663-.2-.99-.036.325-.086-.664.389-.998-.214.336.3-.664.88-.946-.44.292.667-.618.083-.052-.027.011.059-.036M576.055 672.754c-.17.1.052-.026-.112.071-1.031.921.174-.325-.603.623-.143.372-.379.486-.5.856M576.216 667.41l.004 1.295M576.219 672.936l.005 1.248M576.23 678.428l-.004 1.218M576.225 683.884l.003 1.202M576.237 689.33l.003 1.181M576.239 694.77l-.003 1.146M600.047 693.312l.005-.407M600.088 687.894l.005-.42M600.119 682.462l.001-.437M600.164 677.01l.003-.497M600.2 671.545l.002-.552" style="fill:none;stroke:red;stroke-width:.666665;stroke-linecap:round;stroke-linejoin:round;stroke-miterlimit:500;stroke-dasharray:none;stroke-opacity:1;visibility:visible"/><path d="M600.997 670.15c.347.435-.107-.158.235.287.63 1.413-.074-.485.344.949.036 1.49.09-.494-.019.992-.524 1.435.279-.474-.412.954-1.104 1.418.483-.462-.784.942-1.606 1.29.623-.412-1.113.851-2.148 1.199.804-.38-1.475.781-2.513 1.038.907-.316-1.71.68-2.935.902 1.035-.27-1.984.59-3.136.686 1.08-.199-2.112.44-3.394.504 1.16-.128-2.28.317-3.374.27 1.137-.052-2.257.159-3.459.05 1.143.024-2.294.013-3.243-.153 1.041.083-2.15-.117-3.106-.344.986.15-2.046-.246-2.716-.514.84.202-1.776-.358-2.421-.69.716.26-1.574-.475-1.887-.801.543.297-1.22-.547-1.426-.948.382.328-.896-.642-.841-.978.193.33-.518-.656-.341-1.032-.05.348-.147-.688.061-.178-.025.06.046-.12M574.865 679.782c.167-.778-.104.248.13-.52.694-.986-.395.318.541-.645.279-.195-.092.056.184-.135" style="fill:none;stroke:red;stroke-width:.666665;stroke-linecap:round;stroke-linejoin:round;stroke-miterlimit:500;stroke-dasharray:none;stroke-opacity:1;visibility:visible"/><path d="M600.99 675.616c.146.174-.05-.063.094.117.76 1.45-.082-.505.426.977.118 1.455.047-.485.04.976-.445 1.484.26-.496-.357.99-.99 1.404.427-.459-.709.93-1.564 1.354.622-.436-1.09.894-2.007 1.198.75-.379-1.392.785-2.505 1.093.93-.339-1.706.719-2.804.912.996-.274-1.892.593-3.172.753 1.104-.219-2.134.483-3.283.525 1.11-.14-2.202.333-3.472.312 1.164-.063-2.316.187-3.37.08 1.115.013-2.242.032-3.354-.134 1.094.077-2.223-.102-3.058-.318.976.132-2.011-.229-2.857-.503.88.197-1.87-.355-2.397-.65.723.248-1.566-.45-2.023-.823.579.302-1.301-.558-1.471-.92.393.32-.94-.625-.949-1.015.237.352-.586-.679-.428-1.016-.018.336-.21-.68.021-.038.001.014.013-.029" style="fill:none;stroke:red;stroke-width:.666665;stroke-linecap:round;stroke-linejoin:round;stroke-miterlimit:500;stroke-dasharray:none;stroke-opacity:1;visibility:visible"/><path d="M600.992 681.08c.7 1.36-.178-.462.435.912.24 1.504.043-.514.091 1.006-.34 1.464.227-.488-.273.97-.931 1.47.411-.472-.677.972-1.436 1.351.575-.423-1 .891-1.99 1.266.746-.396-1.376.832-2.37 1.097.865-.338-1.619.717-2.826.973 1.004-.295-1.912.64-3.041.762 1.055-.227-2.041.492-3.35.57 1.137-.162-2.243.362-3.366.344 1.12-.073-2.252.203-3.465.12 1.146.005-2.31.055-3.275-.094 1.075.076-2.167-.08-3.188-.3 1.01.132-2.096-.215-2.823-.476.872.185-1.847-.33-2.538-.666.76.244-1.653-.461-2.039-.786.598.287-1.317-.533-1.59-.947.432.329-1.011-.641-1.024-.995.24.336-.624-.667-.49-1.063.045.356-.272-.707.099-1.028-.128.342.112-.68.637-1.038-.364.323.495-.693.338-.248-.112.093.229-.159" style="fill:none;stroke:red;stroke-width:.666665;stroke-linecap:round;stroke-linejoin:round;stroke-miterlimit:500;stroke-dasharray:none;stroke-opacity:1;visibility:visible"/><path d="M600.942 686.525c.635 1.11-.177-.375.403.743.319 1.47.007-.498.149.986-.264 1.526.198-.504-.224 1.02-.817 1.447.37-.477-.596.959-1.39 1.417.563-.453-.98.93-1.856 1.257.709-.395-1.276.826-2.371 1.161.862-.359-1.615.768-2.688.97.945-.3-1.827.635-3.077.824 1.07-.242-2.076.526-3.217.6 1.097-.16-2.163.383-3.44.393 1.163-.085-2.294.245-3.367.144 1.114-.013-2.248.072-3.392-.066 1.112.066-2.247-.065-3.123-.268 1.005.12-2.058-.195-2.947-.466.917.188-1.934-.328-2.516-.628.764.238-1.644-.432-2.17-.802.636.294-1.396-.546-1.637-.91.444.325-1.044-.618-1.137-1.032.27.354-.697-.693-.56-1.039.077.35-.331-.695.016-1.078-.099.356.055-.716.549-1.029-.306.331.431-.68.405-.336-.145.118.274-.226" style="fill:none;stroke:red;stroke-width:.666665;stroke-linecap:round;stroke-linejoin:round;stroke-miterlimit:500;stroke-dasharray:none;stroke-opacity:1;visibility:visible"/><path d="M600.899 691.932c.533.854-.149-.276.34.573.423 1.517-.009-.519.218 1.02-.171 1.497.149-.503-.16.995-.747 1.51.353-.498-.552 1.002-1.263 1.404.518-.445-.89.926-1.835 1.332.702-.418-1.266.872-2.237 1.158.825-.355-1.529.768-2.702 1.038.973-.323-1.84.674-2.94.842 1.033-.245-1.985.542-3.275.656 1.122-.178-2.198.412-3.316.424 1.119-.09-2.222.257-3.463.197 1.145-.013-2.31.112-3.304-.047 1.085.047-2.19-.055-3.24-.24 1.037.12-2.14-.182-2.905-.428.912.177-1.91-.302-2.645-.622.81.244-1.73-.434-2.167-.766.648.281-1.4-.522-1.751-.932.485.334-1.126-.637-1.189-1 .299.345-.749-.675-.656-1.08.123.364-.385-.716-.075-1.065-.067.346 0-.706.477-1.078-.282.341.375-.716.987-.932-.385.308.69-.62" style="fill:none;stroke:red;stroke-width:.666665;stroke-linecap:round;stroke-linejoin:round;stroke-miterlimit:500;stroke-dasharray:none;stroke-opacity:1;visibility:visible"/><path d="M574.85 671.088c-.043.38 0-.123-.02.254.39.994-.264-.33.327.66 1.007 1-.431-.318.716.662 1.507.888-.586-.279 1.058.58 2.057.794-.775-.235 1.413.518 2.435.628-.877-.18 1.661.404 2.88.484-1.017-.128 1.95.307 3.09.287-1.075-.065 2.081.175 3.376.106-1.161.005 2.259.054 3.377-.092-1.131.074 2.254-.084 3.478-.328-1.139.152 2.314-.24 3.276-.538-1.06.217 2.169-.374 3.167-.754-1.005.286 2.085-.52 2.79-.912-.864.336 1.83-.626 2.501-1.085-.747.392 1.63-.74 1.977-1.18-.571.42 1.283-.798 1.533-1.35-.412.465.973-.907.947-1.39-.235.47.59-.93.46-1.473.01.496.217-.983-.015-.068.001.02-.009-.05M574.852 676.561c-.005.533-.016-.177.005.352.503 1.037-.3-.341.407.69 1.066.973-.448-.311.75.639 1.632.916-.639-.276 1.132.607 2.07.756-.767-.229 1.424.491 2.563.633-.931-.183 1.746.404 2.843.453-1.003-.115 1.924.286 3.203.274-1.115-.057 2.159.164 3.3.083-1.123.01 2.205.036 3.483-.13-1.161.088 2.326-.112 3.357-.354-1.102.16 2.227-.254 3.348-.584-1.07.236 2.223-.412 3.029-.768-.971.29 1.99-.53 2.81-.972-.875.358 1.849-.664 2.354-1.09-.722.392 1.516-.736 1.98-1.252-.555.44 1.275-.852 1.4-1.33-.374.464.891-.896.904-1.45-.185.496.542-.968.253-1.305-.03.432.139-.873M574.855 682.017c.045.721-.052-.247.054.473.574 1.02-.314-.328.448.68 1.18 1.008-.492-.322.83.662 1.663.878-.647-.27 1.158.578 2.189.774-.818-.229 1.502.503 2.552.593-.914-.17 1.732.385 2.976.438-1.044-.114 2.008.276 3.153.243-1.077-.046 2.117.143 3.419.055-1.15.024 2.286.019 3.373-.164-1.127.098 2.253-.134 3.44-.402-1.126.18 2.28-.285 3.221-.607-1.034.239 2.133-.427 3.068-.824-.973.31 2.011-.566 2.685-.976-.823.354 1.753-.664 2.353-1.16-.701.406 1.525-.782 1.833-1.248-.52.436 1.177-.845 1.36-1.403-.358.481.864-.94.792-1.433-.151.484.464-.961.142-1.102-.005.364.071-.738M574.847 687.444c.125.888-.097-.284.113.59.68 1.06-.356-.344.515.707 1.232.976-.5-.316.858.645 1.79.9-.683-.276 1.247.586 2.2.74-.817-.214 1.5.482 2.673.596-.957-.169 1.821.383 2.93.407-1.03-.11 1.976.253 3.27.23-1.124-.04 2.199.135 3.323.028-1.123.03 2.221-.005 3.47-.208-1.153.114 2.318-.162 3.325-.424-1.091.188 2.204-.302 3.27-.662-1.051.256 2.158-.46 2.946-.839-.922.31 1.938-.582 2.683-1.036-.835.38 1.745-.704 2.22-1.15-.652.41 1.444-.777 1.8-1.316-.506.46 1.15-.89 1.231-1.387-.321.474.771-.928.741-1.498-.103.505.431-1.007.054-.852.016.286.026-.568M574.828 692.866c.235 1.08-.153-.356.188.72.76 1.037-.363-.338.564.686 1.347 1.009-.541-.32.953.662 1.808.872-.697-.262 1.247.568 2.327.748-.861-.22 1.589.482 2.654.565-.948-.156 1.806.361 3.049.399-1.068-.095 2.062.253 3.2.195-1.097-.032 2.15.107 3.426-.005-1.162.045 2.297-.024 3.356-.233-1.116.123 2.232-.179 3.404-.48-1.104.2 2.25-.338 3.152-.686-.993.26 2.081-.475 2.973-.896-.934.333 1.953-.619 2.544-1.04-.78.378 1.664-.706 2.206-1.214-.645.432 1.423-.828 1.673-1.306-.46.464 1.072-.886 1.171-1.442-.307.503.731-.972.635-1.473-.068.495.356-.986-.009-.643.02.218-.006-.427M574.86 698.261c-.036.185.008-.055-.021.125.258 1.058-.242-.354.245.706.893 1.078-.38-.347.645.71 1.379.986-.566-.306.956.644 1.948.886-.725-.269 1.347.58 2.33.711-.847-.208 1.585.467 2.784.557-.984-.161 1.883.357 3.016.36-1.041-.094 2.03.218 3.316.174-1.13-.018 2.222.102 3.345-.042-1.121.05 2.228-.049 3.459-.276-1.136.137 2.307-.211 3.278-.506-1.07.21 2.173-.357 3.19-.737-1.02.284 2.103-.508 2.836-.91-.886.333 1.862-.625 2.558-1.1-.775.396 1.675-.75 2.057-1.209-.615.432 1.325-.818 1.64-1.378-.442.482 1.045-.932 1.054-1.438-.264.492.663-.966.552-1.532-.036.52.295-1.016-.028-.393.017.118-.021-.268" style="fill:none;stroke:red;stroke-width:.999997;stroke-linecap:round;stroke-linejoin:round;stroke-miterlimit:500;stroke-dasharray:none;stroke-opacity:1;visibility:visible"/><path d="M600.914 659.124c.514.676-.14-.227.331.453.55 1.448-.047-.492.3.97-.054 1.439.115-.474-.081.961-.635 1.453.314-.484-.482.962-1.16 1.36.49-.437-.822.902-1.732 1.298.67-.41-1.204.85-2.156 1.136.803-.356-1.479.743-2.647 1.033.956-.313-1.797.677-2.913.843 1.024-.252-1.97.544-3.255.684 1.12-.188-2.184.435-3.33.453 1.123-.111-2.234.279-3.49.25 1.164-.03-2.328.142-3.361.02 1.101.035-2.227-.004-3.314-.177 1.063.096-2.194-.144-2.983-.352.947.156-1.964-.244-2.747-.545.849.211-1.795-.38-2.281-.68.676.251-1.476-.467-1.885-.838.524.302-1.208-.569-1.316-.923.339.319-.824-.624-.793-1.005.154.34-.468-.664-.21-.992-.048.324-.084-.664.376-.997-.224.334.296-.66.88-.947-.444.288.66-.625l.057-.032" style="fill:none;stroke:red;stroke-width:.666665;stroke-linecap:round;stroke-linejoin:round;stroke-miterlimit:500;stroke-dasharray:none;stroke-opacity:1;visibility:visible"/><path d="m574.653 657.654.008 2.063M574.755 665.564c-.036.388-.006-.12-.022.256.39.993-.265-.329.328.66 1.01.998-.43-.32.722.662 1.5.888-.603-.276 1.05.58 2.062.795-.772-.232 1.424.52 2.423.626-.893-.185 1.646.402 2.88.486-1.015-.127 1.947.308 3.093.286-1.065-.063 2.09.174 3.372.107-1.155.006 2.263.058 3.377-.099-1.131.068 2.254-.09 3.48-.324-1.147.156 2.306-.236 3.276-.54-1.06.216 2.169-.376 3.175-.757-1.005.288 2.088-.52 2.792-.914-.867.334 1.828-.622 2.5-1.088-.741.385 1.628-.743 1.984-1.184-.576.417 1.284-.801 1.533-1.344-.412.468.97-.907.952-1.388-.226.471.59-.929.46-1.474.022.498.224-.98-.01-.07 0 .018-.01-.05" style="fill:none;stroke:red;stroke-width:.999997;stroke-linecap:round;stroke-linejoin:round;stroke-miterlimit:500;stroke-dasharray:none;stroke-opacity:1;visibility:visible"/><path d="m601.31 651.721.014-2.076M601.341 646.295l.024-2.083M601.393 640.853l.013-2.085M601.425 635.39l.019-2.098M601.465 629.908l.021-2.104M574.64 641.384l.003 2.09M574.645 646.824v2.079M574.653 652.247l-.002 2.076" style="fill:none;stroke:red;stroke-width:.666665;stroke-linecap:round;stroke-linejoin:round;stroke-miterlimit:500;stroke-dasharray:none;stroke-opacity:1;visibility:visible"/><path d="m601.273 657.126.008-2.065" style="fill:none;stroke:red;stroke-width:.999997;stroke-linecap:round;stroke-linejoin:round;stroke-miterlimit:500;stroke-dasharray:none;stroke-opacity:1;visibility:visible"/><path d="M574.685 641.233c.18-.773-.09.255.136-.513.699-.987-.39.316.539-.645.273-.191-.096.057.187-.136M600.812 637.072c.156.172-.042-.063.106.115.746 1.456-.096-.507.422.98.115 1.461.05-.487.026.973-.433 1.49.266-.495-.349.99-.99 1.405.433-.458-.705.936-1.563 1.35.62-.437-1.094.894-2.01 1.193.755-.383-1.38.78-2.51 1.097.912-.335-1.708.723-2.813.906.99-.276-1.899.59-3.181.757 1.097-.216-2.141.487-3.281.519 1.113-.143-2.193.327-3.47.313 1.163-.058-2.32.189-3.366.079 1.107.016-2.234.032-3.363-.13 1.084.077-2.231-.108-3.055-.309.978.141-2.013-.223-2.85-.5.888.2-1.87-.352-2.401-.653.728.25-1.559-.45-2.033-.826.58.302-1.303-.563-1.48-.919.396.325-.938-.623-.945-1.014.224.352-.586-.681-.43-1.016-.028.344-.203-.675.01-.038-.008.01.01-.03M576.05 639.881l.001 1.222M576.06 645.34v1.203M576.057 650.788v1.182M576.06 656.228v1.148M599.875 654.766l.008-.406M599.914 649.35v-.422M599.953 643.924v-.44M599.986 638.468l-.001-.498M600.025 633.004v-.552" style="fill:none;stroke:red;stroke-width:.666665;stroke-linecap:round;stroke-linejoin:round;stroke-miterlimit:500;stroke-dasharray:none;stroke-opacity:1;visibility:visible"/><path d="M600.814 642.535c.709 1.357-.179-.462.443.909.23 1.506.039-.514.094 1.006-.346 1.467.212-.486-.283.973-.928 1.472.412-.473-.668.976-1.437 1.349.563-.43-1.003.893-1.997 1.258.749-.403-1.371.825-2.384 1.1.864-.334-1.621.72-2.829.974.995-.294-1.922.638-3.043.765 1.066-.225-2.04.489-3.35.573 1.134-.159-2.246.365-3.364.342 1.126-.076-2.242.203-3.463.117 1.149.005-2.31.057-3.281-.096 1.068.074-2.174-.082-3.178-.295 1.019.132-2.096-.215-2.812-.473.885.185-1.842-.328-2.541-.661.76.248-1.661-.457-2.03-.792.601.282-1.31-.538-1.596-.948.431.334-1.014-.642-1.021-.995.245.338-.632-.667-.481-1.065.057.353-.268-.707.101-1.028-.125.342.117-.681.64-1.035-.357.323.5-.685.342-.258-.117.083.227-.17" style="fill:none;stroke:red;stroke-width:.666665;stroke-linecap:round;stroke-linejoin:round;stroke-miterlimit:500;stroke-dasharray:none;stroke-opacity:1;visibility:visible"/><path d="M600.765 647.983c.64 1.106-.167-.373.399.74.322 1.473.016-.495.161.986-.273 1.528.188-.508-.232 1.019-.81 1.45.375-.475-.593.96-1.394 1.417.568-.45-.972.93-1.859 1.256.698-.394-1.288.832-2.365 1.155.875-.363-1.615.76-2.693.975.957-.3-1.821.64-3.088.82 1.079-.245-2.08.53-3.214.599 1.096-.164-2.159.375-3.438.397 1.162-.085-2.302.244-3.364.15 1.125-.009-2.238.071-3.393-.065 1.102.07-2.254-.061-3.121-.267 1.005.119-2.061-.193-2.937-.472.92.184-1.926-.328-2.524-.634.763.237-1.647-.43-2.161-.804.636.286-1.4-.552-1.625-.91.45.324-1.034-.62-1.138-1.026.273.361-.711-.692-.56-1.037.085.351-.317-.694.008-1.075-.105.359.057-.712.538-1.03-.313.328.418-.685.405-.334-.134.117.285-.223" style="fill:none;stroke:red;stroke-width:.666665;stroke-linecap:round;stroke-linejoin:round;stroke-miterlimit:500;stroke-dasharray:none;stroke-opacity:1;visibility:visible"/><path d="M600.732 653.39c.527.85-.162-.28.333.57.427 1.517-.008-.522.216 1.022-.174 1.495.159-.505-.164.995-.74 1.51.36-.497-.544 1.003-1.273 1.4.517-.448-.893.922-1.833 1.331.697-.414-1.268.88-2.235 1.154.825-.365-1.53.76-2.702 1.042.978-.32-1.829.675-2.951.841 1.031-.24-1.988.539-3.27.66 1.12-.172-2.2.414-3.321.422 1.125-.09-2.221.26-3.467.194 1.15-.014-2.305.11-3.312-.044 1.076.052-2.199-.055-3.244-.244 1.045.123-2.143-.181-2.901-.428.915.181-1.907-.3-2.65-.628.817.236-1.722-.438-2.172-.762.635.282-1.41-.518-1.753-.935.494.328-1.121-.64-1.191-.998.296.348-.745-.672-.665-1.082.118.358-.393-.719-.076-1.065-.066.348.001-.71.483-1.077-.28.348.381-.711.979-.934-.385.306.684-.621" style="fill:none;stroke:red;stroke-width:.666665;stroke-linecap:round;stroke-linejoin:round;stroke-miterlimit:500;stroke-dasharray:none;stroke-opacity:1;visibility:visible"/><path d="M574.683 643.47c.044.723-.05-.24.052.478.573 1.017-.315-.329.442.679 1.19 1.005-.49-.32.844.663 1.656.878-.65-.27 1.146.58 2.198.77-.815-.234 1.508.5 2.54.595-.92-.167 1.732.385 2.97.434-1.042-.115 2.008.275 3.142.246-1.085-.046 2.117.14 3.408.058-1.155.027 2.278.02 3.386-.161-1.122.099 2.255-.13 3.446-.401-1.132.176 2.282-.287 3.213-.61-1.028.239 2.128-.428 3.074-.822-.965.315 2.028-.562 2.671-.976-.828.349 1.75-.664 2.348-1.162-.703.404 1.523-.787 1.824-1.247-.52.441 1.172-.84 1.354-1.407-.35.478.857-.943.796-1.429-.145.487.473-.961.144-1.104-.008.367.066-.735M574.667 648.903c.136.885-.094-.29.113.587.691 1.06-.345-.345.525.707 1.223.983-.502-.316.865.648 1.783.899-.69-.278 1.231.585 2.2.738-.813-.218 1.503.481 2.681.598-.961-.171 1.825.382 2.927.407-1.036-.106 1.979.252 3.264.23-1.132-.038 2.192.139 3.33.024-1.124.025 2.228-.005 3.465-.211-1.156.111 2.312-.162 3.32-.43-1.09.186 2.208-.302 3.267-.665-1.055.253 2.152-.463 2.942-.839-.925.312 1.937-.579 2.697-1.036-.822.378 1.755-.705 2.216-1.15-.654.408 1.44-.776 1.805-1.317-.508.46 1.15-.893 1.238-1.389-.318.478.779-.93.729-1.494-.12.507.416-1.008.053-.85.015.29.025-.565M574.652 654.321c.24 1.082-.143-.36.197.719.754 1.038-.364-.34.563.688 1.35 1.008-.552-.324.943.667 1.815.865-.695-.268 1.255.559 2.326.752-.86-.219 1.594.484 2.648.568-.948-.153 1.803.365 3.046.395-1.071-.097 2.053.247 3.201.195-1.09-.032 2.151.11 3.434-.006-1.157.04 2.297-.027 3.362-.233-1.116.123 2.239-.176 3.398-.48-1.11.203 2.253-.337 3.14-.684-1.007.264 2.079-.474 2.969-.898-.94.331 1.95-.62 2.551-1.039-.784.374 1.659-.706 2.21-1.216-.645.432 1.43-.825 1.671-1.309-.465.46 1.062-.887 1.18-1.448-.29.502.745-.972.623-1.476-.075.492.345-.987.002-.639.02.214-.006-.426M574.685 659.717c-.033.188.008-.057-.025.125.259 1.06-.232-.357.252.706.888 1.078-.385-.348.637.712 1.382.984-.557-.31.972.645 1.939.883-.73-.272 1.334.577 2.328.714-.845-.208 1.582.462 2.795.562-.984-.156 1.894.358 3.009.363-1.051-.088 2.019.222 3.328.174-1.128-.018 2.238.1 3.335-.038-1.128.052 2.231-.046 3.451-.28-1.152.136 2.296-.213 3.273-.503-1.063.21 2.165-.355 3.191-.736-1.009.286 2.113-.51 2.837-.909-.893.338 1.855-.622 2.565-1.105-.776.395 1.675-.755 2.057-1.203-.604.435 1.33-.818 1.643-1.374-.44.485 1.041-.932 1.053-1.435-.267.495.663-.959.563-1.534-.037.514.299-1.022-.027-.39.02.122-.027-.266" style="fill:none;stroke:red;stroke-width:.999997;stroke-linecap:round;stroke-linejoin:round;stroke-miterlimit:500;stroke-dasharray:none;stroke-opacity:1;visibility:visible"/><path d="m575.879 634.212-.112.07c-1.028.923.173-.326-.594.624-.152.369-.377.484-.502.849M576.055 634.392l-.006 1.248M574.63 635.921l.007 2.094" style="fill:none;stroke:red;stroke-width:.666665;stroke-linecap:round;stroke-linejoin:round;stroke-miterlimit:500;stroke-dasharray:none;stroke-opacity:1;visibility:visible"/><path d="M600.828 631.603c.35.442-.115-.151.224.292.628 1.413-.063-.49.355.948.038 1.489.085-.493-.03.994-.517 1.433.279-.474-.401.95-1.112 1.426.477-.459-.788.947-1.606 1.286.626-.414-1.112.846-2.152 1.199.798-.376-1.478.785-2.507 1.035.902-.322-1.702.678-2.946.904 1.028-.271-1.997.587-3.123.689 1.08-.197-2.1.44-3.397.507 1.153-.122-2.275.32-3.387.27 1.129-.05-2.261.158-3.466.05 1.137.024-2.304.016-3.239-.155 1.049.083-2.142-.12-3.112-.347.98.15-2.052-.245-2.715-.514.847.2-1.784-.36-2.41-.683.724.259-1.557-.473-1.896-.805.54.299-1.227-.545-1.43-.95.374.329-.897-.645-.847-.977.19.333-.513-.656-.344-1.035-.044.348-.152-.689.062-.175-.02.059.037-.119" style="fill:none;stroke:red;stroke-width:.666665;stroke-linecap:round;stroke-linejoin:round;stroke-miterlimit:500;stroke-dasharray:none;stroke-opacity:1;visibility:visible"/><path d="M574.683 638.015c-.008.535-.028-.175.005.354.495 1.042-.305-.341.399.691 1.065.97-.443-.311.749.643 1.633.913-.637-.28 1.141.597 2.07.764-.77-.225 1.424.496 2.555.63-.931-.18 1.739.401 2.845.456-1.001-.11 1.925.29 3.21.273-1.11-.06 2.17.166 3.285.08-1.135.007 2.202.034 3.475-.131-1.161.088 2.319-.107 3.364-.36-1.104.156 2.233-.26 3.339-.587-1.077.236 2.212-.409 3.03-.771-.966.289 2-.532 2.807-.974-.873.354 1.836-.664 2.359-1.091-.71.39 1.534-.74 1.966-1.249-.563.445 1.261-.845 1.411-1.334-.374.461.891-.899.911-1.451-.175.494.554-.971.247-1.303-.037.435.132-.87" style="fill:none;stroke:red;stroke-width:.999997;stroke-linecap:round;stroke-linejoin:round;stroke-miterlimit:500;stroke-dasharray:none;stroke-opacity:1;visibility:visible"/><path d="M600.836 626.103c.516.677-.139-.227.33.45.553 1.45-.048-.492.3.974-.053 1.437.116-.48-.089.956-.626 1.45.325-.48-.47.964-1.165 1.36.489-.438-.827.9-1.734 1.301.671-.413-1.203.853-2.153 1.135.8-.352-1.477.747-2.65 1.028.955-.318-1.8.673-2.912.844 1.028-.252-1.969.543-3.254.682 1.119-.188-2.186.437-3.328.456 1.123-.117-2.232.279-3.49.25 1.164-.034-2.325.145-3.364.016 1.099.026-2.232-.01-3.316-.176 1.068.098-2.192-.139-2.985-.357.948.151-1.964-.252-2.75-.544.85.214-1.797-.378-2.28-.678.68.256-1.48-.462-1.879-.843.529.296-1.199-.571-1.318-.922.34.32-.826-.625-.794-1.003.152.338-.471-.664-.208-.99-.044.325-.082-.664.376-.999-.221.333.3-.662.872-.942-.445.293.659-.622.081-.045-.034.015.055-.035M574.63 630.441l-.001 2.102" style="fill:none;stroke:red;stroke-width:.666665;stroke-linecap:round;stroke-linejoin:round;stroke-miterlimit:500;stroke-dasharray:none;stroke-opacity:1;visibility:visible"/><path d="M574.677 632.544c-.037.383-.002-.124-.021.255.393.993-.268-.331.33.66 1.012.998-.43-.319.721.661 1.5.889-.602-.275 1.048.584 2.062.791-.771-.236 1.422.515 2.427.628-.887-.179 1.648.404 2.883.484-1.017-.128 1.95.306 3.091.291-1.063-.062 2.089.181 3.371.101-1.156.002 2.261.051 3.378-.098-1.13.07 2.252-.09 3.483-.323-1.142.157 2.31-.234 3.273-.541-1.063.215 2.169-.374 3.176-.758-1.004.284 2.087-.523 2.792-.912-.867.33 1.827-.623 2.503-1.087-.74.388 1.626-.742 1.99-1.182-.57.42 1.281-.796 1.536-1.35-.404.461.976-.912.948-1.388-.226.472.587-.927.46-1.475.023.495.226-.984-.008-.068 0 .02-.008-.048" style="fill:none;stroke:red;stroke-width:.999997;stroke-linecap:round;stroke-linejoin:round;stroke-miterlimit:500;stroke-dasharray:none;stroke-opacity:1;visibility:visible"/><path d="M575.905 623.099c-.17.098.05-.029-.112.07-1.03.919.175-.329-.603.623-.145.372-.378.484-.503.853M576.073 623.277l.008 1.25M574.659 624.807l.001 2.096" style="fill:none;stroke:red;stroke-width:.666665;stroke-linecap:round;stroke-linejoin:round;stroke-miterlimit:500;stroke-dasharray:none;stroke-opacity:1;visibility:visible"/><path d="M600.852 620.49c.35.44-.11-.154.232.294.628 1.406-.076-.491.344.944.036 1.49.09-.492-.019.995-.529 1.434.279-.475-.412.953-1.104 1.421.486-.464-.784.943-1.598 1.286.62-.412-1.11.848-2.153 1.2.799-.38-1.481.783-2.508 1.035.909-.32-1.708.68-2.931.899 1.036-.27-1.986.589-3.128.688 1.08-.199-2.11.438-3.392.506 1.166-.127-2.274.32-3.384.27 1.133-.052-2.261.156-3.457.05 1.143.027-2.294.017-3.241-.154 1.043.08-2.151-.12-3.102-.347.988.147-2.042-.246-2.721-.51.837.201-1.783-.356-2.416-.688.722.255-1.57-.478-1.888-.8.542.3-1.22-.546-1.425-.948.381.33-.894-.64-.846-.977.189.33-.524-.656-.335-1.035-.041.342-.145-.69.06-.176-.027.056.047-.118" style="fill:none;stroke:red;stroke-width:.666665;stroke-linecap:round;stroke-linejoin:round;stroke-miterlimit:500;stroke-dasharray:none;stroke-opacity:1;visibility:visible"/><path d="M574.705 626.903c-.01.533-.018-.175.006.354.502 1.039-.301-.341.406.69 1.064.969-.45-.31.75.643 1.633.909-.638-.283 1.13.597 2.07.76-.767-.227 1.423.492 2.567.636-.931-.18 1.747.404 2.848.457-1-.11 1.926.289 3.2.276-1.117-.057 2.159.167 3.297.08-1.123.009 2.204.033 3.481-.133-1.163.09 2.33-.107 3.354-.36-1.106.156 2.227-.26 3.343-.585-1.076.235 2.216-.412 3.031-.768-.966.292 1.992-.526 2.812-.974-.876.352 1.846-.667 2.353-1.09-.72.39 1.52-.74 1.981-1.249-.553.447 1.275-.849 1.401-1.326-.372.466.888-.897.906-1.449-.184.497.546-.966.25-1.305-.028.435.141-.87" style="fill:none;stroke:red;stroke-width:.999997;stroke-linecap:round;stroke-linejoin:round;stroke-miterlimit:500;stroke-dasharray:none;stroke-opacity:1;visibility:visible"/><path d="M600.861 614.987c.509.68-.145-.224.336.456.547 1.447-.05-.493.297.967-.062 1.438.116-.473-.084.96-.63 1.45.318-.481-.476.967-1.171 1.36.492-.441-.824.9-1.733 1.294.67-.417-1.202.85-2.168 1.138.792-.351-1.481.745-2.648 1.032.95-.317-1.808.678-2.909.84 1.026-.255-1.96.539-3.264.683 1.12-.185-2.194.438-3.328.456 1.123-.115-2.234.28-3.484.247 1.172-.034-2.326.141-3.35.02 1.112.03-2.225-.004-3.308-.181 1.067.093-2.185-.141-2.995-.36.937.153-1.978-.253-2.746-.54.855.214-1.792-.381-2.27-.673.68.259-1.475-.462-1.878-.834.526.303-1.209-.568-1.308-.924.349.32-.82-.629-.786-1 .154.345-.477-.663-.195-.99-.034.33-.077-.66.385-.999-.218.333.298-.662.872-.945-.442.289.656-.621.092-.047-.021.013.066-.034M574.653 619.33l.003 2.1" style="fill:none;stroke:red;stroke-width:.666665;stroke-linecap:round;stroke-linejoin:round;stroke-miterlimit:500;stroke-dasharray:none;stroke-opacity:1;visibility:visible"/><path d="M574.703 621.432c-.044.38 0-.125-.02.255.387.99-.263-.331.326.66 1.006.993-.431-.322.718.66 1.506.887-.59-.277 1.057.581 2.055.792-.779-.234 1.41.517 2.436.624-.874-.181 1.663.405 2.879.479-1.018-.13 1.949.307 3.092.29-1.076-.07 2.081.175 3.378.104-1.159.005 2.258.057 3.375-.101-1.129.066 2.251-.089 3.484-.327-1.133.156 2.32-.238 3.27-.542-1.066.218 2.17-.375 3.162-.757-1.006.285 2.081-.522 2.793-.912-.863.335 1.833-.622 2.501-1.088-.75.387 1.626-.743 1.981-1.181-.57.423 1.284-.8 1.535-1.343-.408.467.972-.909.949-1.383-.227.477.589-.925.461-1.475.013.491.225-.982-.018-.07.001.02-.012-.05" style="fill:none;stroke:red;stroke-width:.999997;stroke-linecap:round;stroke-linejoin:round;stroke-miterlimit:500;stroke-dasharray:none;stroke-opacity:1;visibility:visible"/><path d="m576.633 575.348.07.552.39.85.709.808 1.032.746 1.306.659 1.55.554 1.743.435 1.894.3 1.978.153 2.01.008 1.985-.146 1.89-.287 1.756-.419 1.547-.541 1.307-.659 1.033-.737.727-.804.396-.844.078-.565" style="fill:none;stroke:red;stroke-width:1.33333;stroke-linecap:round;stroke-linejoin:round;stroke-miterlimit:500;stroke-dasharray:none;stroke-opacity:1;visibility:visible"/><path d="M575.265 573.044c-.028.203.008-.063-.025.14.259 1.193-.23-.397.247.795.882 1.204-.372-.386.63.8 1.37 1.093-.55-.344.966.716 1.904.992-.724-.306 1.307.65 2.299.8-.833-.241 1.573.516 2.732.646-.984-.174 1.852.414 2.972.425-1.028-.11 2.005.261 3.26.219-1.125-.03 2.193.125 3.279-.021-1.108.055 2.19-.041 3.404-.277-1.123.148 2.262-.207 3.225-.523-1.041.219 2.139-.373 3.145-.783-.997.303 2.076-.541 2.788-.974-.876.361 1.83-.659 2.52-1.187-.768.417 1.64-.81.908-.537-.288.19.597-.366 2.659-2.095-.675.768 1.666-1.424 1.09-1.537-.27.525.685-1.032.607-1.657-.057.552.329-1.104-.017-.553.018.187-.014-.364" style="fill:none;stroke:red;stroke-width:.999997;stroke-linecap:round;stroke-linejoin:round;stroke-miterlimit:500;stroke-dasharray:none;stroke-opacity:1;visibility:visible"/><path d="m566.857 785.392.099.874.39.86.581.735.813.681 1.172.68 1.276.539M601.694 813.88l.626-22.493M573.18 791.85l.479 21.735" style="fill:none;stroke:red;stroke-width:1.99999;stroke-linecap:round;stroke-linejoin:round;stroke-miterlimit:500;stroke-dasharray:none;stroke-opacity:1;visibility:visible"/><path d="M603.182 790.206c1.536-.406 4.022-1.661 4.98-2.926" style="fill:none;stroke:red;stroke-width:.999997;stroke-linecap:round;stroke-linejoin:round;stroke-miterlimit:500;stroke-dasharray:none;stroke-opacity:1;visibility:visible"/><path d="m608.692 785.482-.016-3.972M566.879 781.384l-.04 3.972M608.161 787.28c.39-.534.573-1.19.516-1.853" style="fill:none;stroke:red;stroke-width:1.99999;stroke-linecap:round;stroke-linejoin:round;stroke-miterlimit:500;stroke-dasharray:none;stroke-opacity:1;visibility:visible"/><path d="m572.776 792.766.434.227" style="fill:none;stroke:red;stroke-width:.999997;stroke-linecap:round;stroke-linejoin:round;stroke-miterlimit:500;stroke-dasharray:none;stroke-opacity:1;visibility:visible"/><path d="M604.312 789.665c.833-.307 3.278-1.705 3.85-2.385M608.524 780.892l-.508.658-.836.64-1.187.606-1.497.56-1.814.508-2.067.446-2.286.38-2.496.289-2.626.219-2.732.126-2.775.032-2.79-.056-2.714-.143-2.636-.23-2.476-.313-2.287-.394-2.062-.462-1.785-.514-1.494-.576-1.176-.615-.827-.643-.481-.66" style="fill:none;stroke:red;stroke-width:1.99999;stroke-linecap:round;stroke-linejoin:round;stroke-miterlimit:500;stroke-dasharray:none;stroke-opacity:1;visibility:visible"/><path d="m570.985 789.358.042.282.36.572.716.551 1.062.523 1.383.484 1.675.424 1.924.367 2.138.297 2.307.21 2.404.135 2.459.043 2.452-.046 2.396-.137 2.276-.208 2.1-.294 1.895-.367 1.622-.424 1.336-.49 1.002-.516.648-.557" style="fill:none;stroke:red;stroke-width:1.33333;stroke-linecap:round;stroke-linejoin:round;stroke-miterlimit:500;stroke-dasharray:none;stroke-opacity:1;visibility:visible"/><path d="M600.533 777.36s6.328.197 8.024 3.593M567.005 780.809s.508-2.115 7.962-3.449" style="fill:none;stroke:red;stroke-width:1.99999;stroke-linecap:round;stroke-linejoin:round;stroke-miterlimit:500;stroke-dasharray:none;stroke-opacity:1;visibility:visible"/><path d="M585.208 567.29c-6.041.366-10.576 1.91-10.576 3.754 0 2.116 5.964 3.835 13.327 3.835 7.358 0 13.321-1.719 13.321-3.836.001-1.873-4.67-3.435-10.849-3.768" style="fill:none;stroke:red;stroke-width:1.33333;stroke-linecap:round;stroke-linejoin:round;stroke-miterlimit:500;stroke-dasharray:none;stroke-opacity:1;visibility:visible"/><path d="M585.741 568.936c-4.313.23-7.525 1.119-7.525 2.177 0 1.238 4.36 2.238 9.743 2.238 5.38-.001 9.74-1.001 9.74-2.238-.001-1.073-3.308-1.973-7.713-2.188" style="fill:none;stroke:red;stroke-width:.666665;stroke-linecap:round;stroke-linejoin:round;stroke-miterlimit:500;stroke-dasharray:none;stroke-opacity:1;visibility:visible"/><path d="m574.653 619.33 1.803-2.297M574.915 731.288l.929 1.562M566.879 781.384l8.598 1.39M608.676 781.51l-8.143 1.264M601.527 728.692l-.994 2.322M601.486 627.804l-1.244-11.888M600.033 575.41l.111 2.985" style="fill:none;stroke:red;stroke-width:1.99999;stroke-linecap:round;stroke-linejoin:round;stroke-miterlimit:500;stroke-dasharray:none;stroke-opacity:1;visibility:visible"/><path d="m576.317 728.943-1.416.279" style="fill:none;stroke:red;stroke-width:.999997;stroke-linecap:round;stroke-linejoin:round;stroke-miterlimit:500;stroke-dasharray:none;stroke-opacity:1;visibility:visible"/><path d="m600.17 720.918 1.4.294M600.198 715.494l1.414.294M600.242 710.036l1.414.297M600.284 704.566l1.408.292M600.312 699.08l1.425.289M576.297 701.726l-1.418.286M576.303 718.11l-1.411.282M576.315 723.538l-1.41.283" style="fill:none;stroke:red;stroke-width:.666665;stroke-linecap:round;stroke-linejoin:round;stroke-miterlimit:500;stroke-dasharray:none;stroke-opacity:1;visibility:visible"/><path d="m600.128 726.334 1.406.292" style="fill:none;stroke:red;stroke-width:.999997;stroke-linecap:round;stroke-linejoin:round;stroke-miterlimit:500;stroke-dasharray:none;stroke-opacity:1;visibility:visible"/><path d="m574.879 702.012 1.418-.286M574.888 707.488l1.419-.281M574.893 712.952l1.414-.282M574.892 718.392l1.411-.282M574.905 723.821l1.41-.283M574.901 729.222l1.416-.279M601.534 726.626l-1.406-.292M601.558 723.288l-1.425 2.64M601.57 721.212l-1.4-.294M601.598 717.866l-1.428 2.634M601.612 715.788l-1.414-.294M601.64 712.424l-1.436 2.628M601.656 710.333l-1.414-.297M601.683 706.957l-1.438 2.583M601.692 704.858l-1.408-.292M601.724 701.473l-1.44 2.547M601.737 699.369l-1.425-.289M601.448 695.668l-1.126 2.826" style="fill:none;stroke:red;stroke-width:.666665;stroke-linecap:round;stroke-linejoin:round;stroke-miterlimit:500;stroke-dasharray:none;stroke-opacity:1;visibility:visible"/><path d="m576.236 695.916-1.416.284" style="fill:none;stroke:red;stroke-width:.999997;stroke-linecap:round;stroke-linejoin:round;stroke-miterlimit:500;stroke-dasharray:none;stroke-opacity:1;visibility:visible"/><path d="m600.088 687.894 1.406.298M600.119 682.462l1.415.298M600.164 677.01l1.406.3M600.2 671.545l1.417.293M600.2 671.545l1.457-5.198M576.22 668.705l-1.421.281M576.228 685.086l-1.411.284M576.24 690.511l-1.415.282" style="fill:none;stroke:red;stroke-width:.666665;stroke-linecap:round;stroke-linejoin:round;stroke-miterlimit:500;stroke-dasharray:none;stroke-opacity:1;visibility:visible"/><path d="m600.047 693.312 1.411.288" style="fill:none;stroke:red;stroke-width:.999997;stroke-linecap:round;stroke-linejoin:round;stroke-miterlimit:500;stroke-dasharray:none;stroke-opacity:1;visibility:visible"/><path d="m574.799 668.986 1.421-.281M574.81 674.462l1.414-.278M574.804 679.928l1.422-.282M574.817 685.37l1.411-.284M574.825 690.793l1.415-.282M574.82 696.2l1.416-.284M601.458 693.6l-1.411-.288M601.481 690.265l-1.429 2.64M601.494 688.192l-1.406-.298M601.521 684.842l-1.428 2.632M601.534 682.76l-1.415-.298M601.563 679.394l-1.443 2.631M601.57 677.31l-1.406-.3M601.601 673.934l-1.434 2.579M601.617 671.838l-1.417-.293M601.639 668.45l-1.437 2.543" style="fill:none;stroke:red;stroke-width:.666665;stroke-linecap:round;stroke-linejoin:round;stroke-miterlimit:500;stroke-dasharray:none;stroke-opacity:1;visibility:visible"/><path d="m576.06 657.376-1.407.278" style="fill:none;stroke:red;stroke-width:.999997;stroke-linecap:round;stroke-linejoin:round;stroke-miterlimit:500;stroke-dasharray:none;stroke-opacity:1;visibility:visible"/><path d="m599.914 649.35 1.41.295M599.953 643.924l1.412.288M599.986 638.468l1.42.3M600.025 633.004l1.419.288M600.025 633.004l1.461-5.2M576.06 646.543l-1.415.281M576.057 651.97l-1.404.277" style="fill:none;stroke:red;stroke-width:.666665;stroke-linecap:round;stroke-linejoin:round;stroke-miterlimit:500;stroke-dasharray:none;stroke-opacity:1;visibility:visible"/><path d="m599.875 654.766 1.406.295" style="fill:none;stroke:red;stroke-width:.999997;stroke-linecap:round;stroke-linejoin:round;stroke-miterlimit:500;stroke-dasharray:none;stroke-opacity:1;visibility:visible"/><path d="m574.64 641.384 1.411-.281M574.645 646.824l1.415-.281M574.653 652.247l1.404-.277M574.653 657.654l1.407-.278M601.281 655.061l-1.406-.295M601.31 651.721l-1.427 2.639M601.324 649.645l-1.41-.295M601.341 646.295l-1.427 2.633M601.365 644.212l-1.412-.288M601.393 640.853l-1.44 2.631M601.406 638.768l-1.42-.3M601.425 635.39l-1.44 2.58M601.444 633.292l-1.419-.288M601.465 629.908l-1.44 2.544M574.63 635.921l1.419-.281M574.66 626.903l-.03 3.538M574.659 624.807l1.422-.28M576.456 617.033l-1.803 2.297" style="fill:none;stroke:red;stroke-width:.666665;stroke-linecap:round;stroke-linejoin:round;stroke-miterlimit:500;stroke-dasharray:none;stroke-opacity:1;visibility:visible"/><path d="m600.033 575.41 1.38-4.87" style="fill:none;stroke:red;stroke-width:.999997;stroke-linecap:round;stroke-linejoin:round;stroke-miterlimit:500;stroke-dasharray:none;stroke-opacity:1;visibility:visible"/><path d="m608.692 785.482-6.372 5.905M566.839 785.356l6.341 6.494" style="fill:none;stroke:red;stroke-width:1.99999;stroke-linecap:round;stroke-linejoin:round;stroke-miterlimit:500;stroke-dasharray:none;stroke-opacity:1;visibility:visible"/><path d="m571.188 789.761 1.588 3.005" style="fill:none;stroke:red;stroke-width:.999997;stroke-linecap:round;stroke-linejoin:round;stroke-miterlimit:500;stroke-dasharray:none;stroke-opacity:1;visibility:visible"/><path d="m615.312 812.363-.694-.448-1.442-.674-1.77-.607-1.965-.51-2.165-.454-2.356-.397-2.546-.328M573.527 808.886l-2.531.317-2.344.38-2.147.434-1.937.481-1.692.547-1.486.638-1.265.782M560.11 812.48l-8.403 6.515M623.973 819.087l-8.38-6.544M535.604 822.78a2.759 2.759 0 0 0 1.03 2.53M640.093 823.243v-1.536M535.572 821.577l-.01 1.546M640.082 821.743a4.013 4.013 0 0 0-2.385-3.273M538.15 818.233a4.919 4.919 0 0 0-1.462 1.097" style="fill:none;stroke:#00ff4a;stroke-width:.999997;stroke-linecap:round;stroke-linejoin:round;stroke-miterlimit:500;stroke-dasharray:none;stroke-opacity:1;visibility:visible" visibility="hidden"/><path d="m433.62 845.149.042 1.265.38 1.85.682 1.777.979 1.704 1.281 1.685 1.63 1.672 2.029 1.661 2.425 1.648 2.792 1.592 3.088 1.507 3.38 1.433 3.652 1.372 3.927 1.307 4.183 1.256 4.452 1.197 4.708 1.155 4.958 1.093 5.21 1.039 5.442.992 5.656.935 5.87.876 6.077.82 6.267.757 6.437.698 6.593.635 6.74.575 6.875.499 6.99.441 7.083.368 7.167.308 7.229.232 7.276.167 7.307.093 7.313.021 7.312-.045 7.292-.116 7.254-.188 7.2-.255 7.113-.333 7.031-.387 6.923-.46 6.796-.524 6.661-.596 6.5-.648 6.344-.717 6.156-.783 5.959-.83 5.745-.9 5.526-.941 5.302-1.006 5.047-1.06 4.812-1.104 4.547-1.155 4.286-1.213 4.01-1.257 3.747-1.315 3.462-1.37 3.199-1.434 2.91-1.509 2.641-1.615 2.35-1.73 2.03-1.858 1.455-1.708 1.103-1.724.792-1.735.49-1.77.195-1.964-.004-.071M741.931 845.46l.036-5.619M433.563 839.482l.016 5.62M518.38 809.722l-33.645 5.945M690.926 815.907l-33.609-6.01M434.074 836.662a6.605 6.605 0 0 0-.495 2.792M741.926 839.697l-.021-.86-.355-1.58-.659-1.53-.977-1.512-1.311-1.497-1.65-1.49-1.996-1.454-2.317-1.421-2.604-1.367-2.886-1.325-3.15-1.274-.328-.114M450.547 824.49l-.708.268-2.995 1.287-2.724 1.333-2.433 1.375-2.15 1.427-1.855 1.495-1.552 1.575-1.198 1.65-.76 1.496-.098.266" style="fill:none;stroke:#00ff4a;stroke-width:1.99999;stroke-linecap:round;stroke-linejoin:round;stroke-miterlimit:500;stroke-dasharray:none;stroke-opacity:1;visibility:visible" visibility="hidden"/><path d="m559.645 812.84-.86.114-3.494.483-3.266.543-3.015.598-2.739.635-2.448.682-2.136.725-1.812.751-1.465.782-.01.007M637.458 818.394l-.464-.29-1.54-.779-1.887-.755-2.197-.723-2.51-.677-2.798-.64-3.072-.584-3.313-.544-3.525-.487-.095-.008" style="fill:none;stroke:#00ff4a;stroke-width:.999997;stroke-linecap:round;stroke-linejoin:round;stroke-miterlimit:500;stroke-dasharray:none;stroke-opacity:1;visibility:visible" visibility="hidden"/><path d="m537.025 822.926.195.184 1.097.805 1.448.798 1.807.767 2.15.738 2.471.697 2.78.656 3.068.615 3.329.557 3.567.511 3.79.443 3.971.38 4.129.322 4.251.241 4.359.18 4.41.111 4.45.029 4.436-.034 4.402-.106 4.337-.186 4.231-.26 4.097-.317 3.944-.39 3.74-.45 3.52-.507 3.276-.563 3.005-.62 2.713-.657 2.418-.7 2.073-.739 1.739-.776 1.385-.794 1.021-.804.484-.57" style="fill:none;stroke:#00ff4a;stroke-width:.666665;stroke-linecap:round;stroke-linejoin:round;stroke-miterlimit:500;stroke-dasharray:none;stroke-opacity:1;visibility:visible" visibility="hidden"/><path d="M639.114 825.165a2.823 2.823 0 0 0 .98-1.922" style="fill:none;stroke:#00ff4a;stroke-width:.999997;stroke-linecap:round;stroke-linejoin:round;stroke-miterlimit:500;stroke-dasharray:none;stroke-opacity:1;visibility:visible" visibility="hidden"/><path d="m639.322 825.025-1.718 1.418-1.386.8-1.734.771-2.078.74-2.406.708-2.714.661-3.01.627-3.276.556-3.527.514-3.739.45-3.933.388-4.104.325-4.23.25-4.331.185-4.401.107-4.448.044-4.443-.03-4.412-.119-4.355-.17-4.25-.247-4.129-.322-3.974-.381-3.787-.447-3.573-.506-3.334-.567-3.057-.61-2.781-.656-2.468-.704-2.152-.74-1.807-.775-1.448-.792-1.104-.822-.276-.263" style="fill:none;stroke:#00ff4a;stroke-width:.999997;stroke-linecap:round;stroke-linejoin:round;stroke-miterlimit:500;stroke-dasharray:none;stroke-opacity:1;visibility:visible" visibility="hidden"/><path d="m603.021 829.145-.167-.208-.54-.178-.83-.129-1.014-.064-1.069.01-.964.083-.744.149-.417.184-.03.205.354.193.692.156.937.099 1.063.03 1.026-.045.88-.125.588-.167.235-.193M554.14 825.68l-.145-.192-.527-.177-.818-.133-1.005-.06-1.062.013-.974.08-.745.14-.427.193-.052.196.348.195.683.152.927.103 1.052.027 1.042-.047.87-.115.598-.177.235-.197M556.03 815.64l-.41-.127-.813-.122-.995-.064-1.047.01-.958.083-.74.138-.417.183-.046.198.339.184.676.162.917.09 1.041.026 1.023-.049.597-.066M634.598 821.345l-.172-.195-.53-.172-.828-.125-1.016-.063-1.047.005-.959.095-.729.137-.412.183-.015.203.354.192.693.15.937.099 1.047.021 1.021-.044.864-.114.574-.172.218-.2M570.781 827.54a174.933 174.933 0 0 0 42.901-1.098" style="fill:none;stroke:#00ff4a;stroke-width:.999997;stroke-linecap:round;stroke-linejoin:round;stroke-miterlimit:500;stroke-dasharray:none;stroke-opacity:1;visibility:visible" visibility="hidden"/><path d="M484.735 815.667a178.202 178.202 0 0 0-33.921 8.738M723.42 824.194a193.845 193.845 0 0 0-32.493-8.287M574.765 814.951a61.824 61.824 0 0 0 25.89.1" style="fill:none;stroke:#00ff4a;stroke-width:1.99999;stroke-linecap:round;stroke-linejoin:round;stroke-miterlimit:500;stroke-dasharray:none;stroke-opacity:1;visibility:visible" visibility="hidden"/><path d="m518.27 809.754-3.181.583-4.116.838-3.848.895-3.562.936-3.27.972-2.966 1.013-2.644 1.047-2.314 1.076-1.973 1.099-1.625 1.124-1.266 1.146-.912 1.151-.54 1.167-.169 1.177.193 1.175.58 1.18.946 1.161 1.318 1.15 1.679 1.146 2.056 1.125 2.401 1.1 2.75 1.061 3.1 1.038 3.426 1 3.74.963 4.042.906 4.338.88 4.61.812 4.874.762 5.099.693 5.328.651 5.527.579 5.702.514 5.867.448 5.999.37 6.109.316 6.192.23 6.256.159 6.29.086 6.321.007 6.288-.06 6.267-.137 6.203-.206 6.115-.292 6.01-.358 5.875-.418 5.725-.505 5.551-.55 5.35-.621 5.129-.693 4.896-.74 4.636-.801 4.364-.852 4.078-.899 3.771-.948 3.464-.984 3.124-1.026 2.803-1.063 2.442-1.087 2.088-1.116 1.724-1.13 1.366-1.15.989-1.168.615-1.17.244-1.168" style="fill:none;stroke:#00ff4a;stroke-width:1.33333;stroke-linecap:round;stroke-linejoin:round;stroke-miterlimit:500;stroke-dasharray:none;stroke-opacity:1;visibility:visible" visibility="hidden"/><path d="m656.713 809.785-4.568-.75-4.801-.709-4.995-.656-5.188-.588-5.36-.532-5.504-.473-5.641-.41-5.75-.34-5.844-.283-5.906-.209M573.213 804.774l-5.926.196-5.855.257-5.765.328-5.651.386-5.521.448-5.375.521-5.21.561-5.024.64-4.829.69-4.597.733-1.19.219" style="fill:none;stroke:#00ff4a;stroke-width:1.99999;stroke-linecap:round;stroke-linejoin:round;stroke-miterlimit:500;stroke-dasharray:none;stroke-opacity:1;visibility:visible" visibility="hidden"/><path d="m689.745 824.347-.13-1.18-.501-1.169-.86-1.161-1.227-1.15-1.585-1.127-1.932-1.11-2.27-1.084-2.6-1.05-2.926-1.026-3.24-.98-3.526-.947-3.818-.909-4.078-.857-4.338-.812" style="fill:none;stroke:#00ff4a;stroke-width:1.33333;stroke-linecap:round;stroke-linejoin:round;stroke-miterlimit:500;stroke-dasharray:none;stroke-opacity:1;visibility:visible" visibility="hidden"/><path d="M616.385 813.954a1.752 1.752 0 0 0-.792-1.412M613.682 826.443l.408-.08 2.603-.506 2.323-.567 2.021-.599 1.693-.633 1.36-.67 1-.692.64-.698.28-.705M552.823 818.129l-1.027.494-1.061.683-.71.704-.342.704.025.716.39.707.756.693 1.119.69 1.464.655 1.793.628 2.12.607 2.41.55 2.7.501 2.93.454 3.173.4 2.217.225" style="fill:none;stroke:#00ff4a;stroke-width:.999997;stroke-linecap:round;stroke-linejoin:round;stroke-miterlimit:500;stroke-dasharray:none;stroke-opacity:1;visibility:visible" visibility="hidden"/><path d="m626.01 821.293-.093-.723-.459-.696-.817-.71-1.167-.665-.614-.288M639.118 822.486l.162-.263.28-.828M538.401 818.16l-1.109.8-.76.82-.39.83-.012.835.359.835.538.646M639.562 821.394a3.627 3.627 0 0 0-2.104-3.004" style="fill:none;stroke:#00ff4a;stroke-width:.999997;stroke-linecap:round;stroke-linejoin:round;stroke-miterlimit:500;stroke-dasharray:none;stroke-opacity:1;visibility:visible" visibility="hidden"/><path d="m560.11 812.48-.174.138-.489.602-.139.615.244.61.61.605.968.59 1.334.565 1.65.528 1.97.497 2.259.451 2.517.396 2.739.341 2.931.284 3.085.21 3.182.152 3.27.081 3.278.01 3.254-.068 3.208-.134 3.083-.207 2.948-.268 2.755-.325 2.543-.394 2.284-.434 2.001-.487 1.677-.532 1.366-.55 1-.589.64-.596.281-.617" style="fill:none;stroke:#00ff4a;stroke-width:.666665;stroke-linecap:round;stroke-linejoin:round;stroke-miterlimit:500;stroke-dasharray:none;stroke-opacity:1;visibility:visible" visibility="hidden"/><path d="m740.411 837.711-.201-1.453-.575-1.453-.932-1.432-1.286-1.423-1.642-1.41-1.989-1.386-2.328-1.372-2.666-1.339-2.995-1.313-2.375-.937M600.656 815.05a4.01 4.01 0 0 0 3-1.648M573.412 812.066l-.812.416-.47.456-.086.45.279.45.647.444.994.418.803.251" style="fill:none;stroke:#00ff4a;stroke-width:1.99999;stroke-linecap:round;stroke-linejoin:round;stroke-miterlimit:500;stroke-dasharray:none;stroke-opacity:1;visibility:visible" visibility="hidden"/><path d="m603.656 813.402-.104-.461-.484-.448-.839-.43" style="fill:none;stroke:#00ff4a;stroke-width:1.99999;stroke-linecap:round;stroke-linejoin:round;stroke-miterlimit:500;stroke-dasharray:none;stroke-opacity:1;visibility:visible" visibility="hidden"/><path d="m450.812 824.405-2.964 1.234-2.79 1.326-2.46 1.352-2.123 1.38-1.772 1.396-1.433 1.417-1.062 1.431-.708 1.437-.338 1.453.02 1.454.396 1.458.77 1.459 1.136 1.445 1.506 1.443 1.874 1.419 2.24 1.406 2.599 1.386 2.959 1.364 3.306 1.333 3.65 1.303 3.992 1.268 4.312 1.234 4.635 1.184 4.948 1.153 5.235 1.09 5.52 1.044 5.792.995 6.052.933 6.287.875 6.514.813 6.725.76 6.911.676 7.083.61 7.245.546 7.375.48 7.495.393 7.589.342 7.667.243 7.718.173 7.755.097 7.77.023 7.768-.055 7.732-.13 7.688-.204 7.62-.284 7.526-.353 7.428-.436 7.29-.501 7.142-.573 6.978-.647 6.792-.708 6.588-.779 6.376-.841 6.13-.901 5.896-.955 5.608-1.013 5.35-1.066 5.046-1.117 4.751-1.161 4.428-1.2 4.109-1.249 3.776-1.283 3.437-1.318 3.083-1.341 2.734-1.375 2.376-1.396 2.004-1.412 1.647-1.429 1.265-1.44.912-1.448.525-1.453.167-1.455M554.14 825.681l-2.433-6.686M615.593 812.542l8.38 6.545M551.707 818.995l2.433 6.686M574.765 814.951l-18.735.689M639.114 825.165l-4.516-3.82" style="fill:none;stroke:#00ff4a;stroke-width:.999997;stroke-linecap:round;stroke-linejoin:round;stroke-miterlimit:500;stroke-dasharray:none;stroke-opacity:1;visibility:visible" visibility="hidden"/><path d="m560.125 812.465 13.287-.399" style="fill:none;stroke:#00ff4a;stroke-width:1.99999;stroke-linecap:round;stroke-linejoin:round;stroke-miterlimit:500;stroke-dasharray:none;stroke-opacity:1;visibility:visible" visibility="hidden"/><path d="m600.144 578.395-.097-5.045M601.486 627.804l-.002-9.01" style="fill:none;stroke:red;stroke-width:.999997;stroke-linecap:round;stroke-linejoin:round;stroke-miterlimit:500;stroke-dasharray:none;stroke-opacity:1;visibility:visible"/><path d="m556.03 815.64-.833.646" style="fill:none;stroke:#00ff4a;stroke-width:.999997;stroke-linecap:round;stroke-linejoin:round;stroke-miterlimit:500;stroke-dasharray:none;stroke-opacity:1;visibility:visible" visibility="hidden"/><path d="m560.125 812.465 13.088-7.691" style="fill:none;stroke:#00ff4a;stroke-width:1.99999;stroke-linecap:round;stroke-linejoin:round;stroke-miterlimit:500;stroke-dasharray:none;stroke-opacity:1;visibility:visible" visibility="hidden"/></svg>