<svg xmlns="http://www.w3.org/2000/svg" baseProfile="full" height="1122.52" preserveAspectRatio="xMinYMin meet" style="width:904px;height:1119px" width="793.701" xml:space="preserve"><path d="m512.587 357.298 10.9 108.129M506.213 294.11l5.138 50.937M494.44 177.349l9.07 89.912M503.51 267.262l1.6 15.899M493.635 169.36l.805 7.99M494.372 168.609a.693.693 0 0 0-.728.648.5.5 0 0 0 .006.097M525.817 279.913 513.781 175.71M533.668 347.897l-6.223-53.878M546.688 460.632 535.06 359.945M513.101 171.64l-5.558-4.176M513.781 175.709l-.416-3.619" style="fill:none;stroke:red;stroke-width:1.99999;stroke-linecap:round;stroke-linejoin:round;stroke-miterlimit:500;stroke-dasharray:none;stroke-opacity:1;visibility:visible" visibility="hidden"/><path d="m528.063 510.779.473 4.693" style="fill:none;stroke:red;stroke-width:.999997;stroke-linecap:round;stroke-linejoin:round;stroke-miterlimit:500;stroke-dasharray:none;stroke-opacity:1;visibility:visible" visibility="hidden"/><path d="m592.095 536.932 14.383-2.692M696.798 190.326a.85.85 0 0 0-.533-.161M635.948 346.737l-35.739 123.86M646.216 311.142l-5.776 20.012M679.426 196.03l-29.8 103.277M680.438 192.522l-1.012 3.508M681.164 191.996a.75.75 0 0 0-.72.526M695.953 190.168l-14.795 1.821M702.692 194.198l-5.888-3.88M607.134 533.7l95.559-339.502M507.543 167.47a.937.937 0 0 0-.57-.179M506.724 167.294l-12.354 1.316" style="fill:none;stroke:red;stroke-width:1.99999;stroke-linecap:round;stroke-linejoin:round;stroke-miterlimit:500;stroke-dasharray:none;stroke-opacity:1;visibility:visible" visibility="hidden"/><path d="M591.155 536.692a.984.984 0 0 0 .935.23" style="fill:none;stroke:red;stroke-width:.999997;stroke-linecap:round;stroke-linejoin:round;stroke-miterlimit:500;stroke-dasharray:none;stroke-opacity:1;visibility:visible" visibility="hidden"/><path d="M584.77 558.655a.742.742 0 0 0 .682-.627M559.703 554.895l6.007 6.92M566.697 562.099l18.08-3.43M619.328 251.856a.97.97 0 0 0-.654-.208M603.216 257.68l-43.681 296.652M618.361 251.653l-13.855 1.957M603.716 254.29l-.5 3.39M604.47 253.612a.779.779 0 0 0-.753.678M585.459 558.023l40.249-292.518M626.448 257.269l-7.118-5.42M625.708 265.505l1.038-7.539M626.74 257.966a.683.683 0 0 0-.292-.69M606.473 534.225a.71.71 0 0 0 .653-.525" style="fill:none;stroke:red;stroke-width:1.99999;stroke-linecap:round;stroke-linejoin:round;stroke-miterlimit:500;stroke-dasharray:none;stroke-opacity:1;visibility:visible" visibility="hidden"/><path d="M559.543 554.327a.59.59 0 0 0 .165.566" style="fill:none;stroke:red;stroke-width:.999997;stroke-linecap:round;stroke-linejoin:round;stroke-miterlimit:500;stroke-dasharray:none;stroke-opacity:1;visibility:visible" visibility="hidden"/><path d="M528.341 548.783a.72.72 0 0 0 .616-1.064M505.765 542.983l6.76 8.254M513.513 551.527l14.834-2.739M512.528 551.235c.24.282.625.4.979.288M419.238 224.842a1.161 1.161 0 0 0-.743-.182M403.752 235.426l16.823 50.588M420.822 286.917l84.826 255.848M418.336 224.666l-16.365 2.044M401.186 227.688l2.564 7.738M401.975 226.718l-.16.02-.31.119-.183.153-.124.2-.048.252.051.268.053.096M423.79 228.989l-4.5-4.097M425.123 232.732l-1.136-3.442M529.017 547.841l-88.454-268.274M440.915 281.106l-15.792-48.374" style="fill:none;stroke:red;stroke-width:1.99999;stroke-linecap:round;stroke-linejoin:round;stroke-miterlimit:500;stroke-dasharray:none;stroke-opacity:1;visibility:visible" visibility="hidden"/><path d="m603.76 496.822 3.734-11.322" style="fill:none;stroke:red;stroke-width:.999997;stroke-linecap:round;stroke-linejoin:round;stroke-miterlimit:500;stroke-dasharray:none;stroke-opacity:1;visibility:visible" visibility="hidden"/><path d="m589.676 539.927 3.656-11.084M493.69 169.39l.802 7.965" style="fill:none;stroke:red;stroke-width:1.99999;stroke-linecap:round;stroke-linejoin:round;stroke-miterlimit:500;stroke-dasharray:none;stroke-opacity:1;visibility:visible" visibility="hidden"/><path d="M499.539 173.616c.125.118.701.166 1.291.104a3.58 3.58 0 0 0 .394-.062M512.772 172.236l-11.859 1.342M500.267 173.58l.361 3.57M499.745 173.592l-5.412-4.203" style="fill:none;stroke:red;stroke-width:.999997;stroke-linecap:round;stroke-linejoin:round;stroke-miterlimit:500;stroke-dasharray:none;stroke-opacity:1;visibility:visible" visibility="hidden"/><path d="M512.772 172.236a.987.987 0 0 0-.205-.582M494.255 168.742a.656.656 0 0 0-.567.646M512.739 171.544l-5.559-4.176M507.245 167.36c-.06-.078-.265-.12-.46-.1a.253.253 0 0 0-.062.01M506.785 167.313l-12.355 1.317" style="fill:none;stroke:red;stroke-width:1.99999;stroke-linecap:round;stroke-linejoin:round;stroke-miterlimit:500;stroke-dasharray:none;stroke-opacity:1;visibility:visible" visibility="hidden"/><path d="m702.457 195.022-14.264 1.863M687.618 196.884l-1.022 3.634" style="fill:none;stroke:red;stroke-width:.999997;stroke-linecap:round;stroke-linejoin:round;stroke-miterlimit:500;stroke-dasharray:none;stroke-opacity:1;visibility:visible" visibility="hidden"/><path d="m680.526 192.644-1.01 3.5" style="fill:none;stroke:red;stroke-width:1.99999;stroke-linecap:round;stroke-linejoin:round;stroke-miterlimit:500;stroke-dasharray:none;stroke-opacity:1;visibility:visible" visibility="hidden"/><path d="M590.908 536.217c.245.191.805.347 1.312.374M686.942 196.565l-5.844-3.921" style="fill:none;stroke:red;stroke-width:.999997;stroke-linecap:round;stroke-linejoin:round;stroke-miterlimit:500;stroke-dasharray:none;stroke-opacity:1;visibility:visible" visibility="hidden"/><path d="m702.36 194.122-5.886-3.874M696.538 190.24c-.058-.075-.268-.114-.465-.095-.03.008-.053.008-.081.012M696.044 190.192l-14.795 1.824" style="fill:none;stroke:red;stroke-width:1.99999;stroke-linecap:round;stroke-linejoin:round;stroke-miterlimit:500;stroke-dasharray:none;stroke-opacity:1;visibility:visible" visibility="hidden"/><path d="M686.742 196.549c.159.21.75.416 1.328.456.112.007.219.012.312.007" style="fill:none;stroke:red;stroke-width:.999997;stroke-linecap:round;stroke-linejoin:round;stroke-miterlimit:500;stroke-dasharray:none;stroke-opacity:1;visibility:visible" visibility="hidden"/><path d="M681.085 192.14a.696.696 0 0 0-.559.504" style="fill:none;stroke:red;stroke-width:1.99999;stroke-linecap:round;stroke-linejoin:round;stroke-miterlimit:500;stroke-dasharray:none;stroke-opacity:1;visibility:visible" visibility="hidden"/><path d="m626.118 258.357-13.222 1.902M612.25 260.331l-1.149 7.62M584.401 514.278c-.581-.864-2.008-.923-3.186-.13-1.178.798-1.663 2.138-1.082 3 .582.862 2.008.919 3.187.123 1.177-.791 1.66-2.132 1.08-2.993h.001" style="fill:none;stroke:red;stroke-width:.999997;stroke-linecap:round;stroke-linejoin:round;stroke-miterlimit:500;stroke-dasharray:none;stroke-opacity:1;visibility:visible" visibility="hidden"/><path d="m566.807 561.897 18.08-3.429" style="fill:none;stroke:red;stroke-width:1.99999;stroke-linecap:round;stroke-linejoin:round;stroke-miterlimit:500;stroke-dasharray:none;stroke-opacity:1;visibility:visible" visibility="hidden"/><path d="M611.465 259.903c.2.317.825.515 1.39.438a.613.613 0 0 0 .095-.018M578.795 553.192c-.582-.864-2.003-.92-3.186-.13-1.177.798-1.661 2.138-1.078 3.003.578.86 2.006.916 3.182.122 1.179-.792 1.663-2.134 1.082-2.995M611.102 267.951l-44.295 293.946" style="fill:none;stroke:red;stroke-width:.999997;stroke-linecap:round;stroke-linejoin:round;stroke-miterlimit:500;stroke-dasharray:none;stroke-opacity:1;visibility:visible" visibility="hidden"/><path d="m603.792 254.525-.506 3.427" style="fill:none;stroke:red;stroke-width:1.99999;stroke-linecap:round;stroke-linejoin:round;stroke-miterlimit:500;stroke-dasharray:none;stroke-opacity:1;visibility:visible" visibility="hidden"/><path d="m611.533 259.895-7.096-5.442" style="fill:none;stroke:red;stroke-width:.999997;stroke-linecap:round;stroke-linejoin:round;stroke-miterlimit:500;stroke-dasharray:none;stroke-opacity:1;visibility:visible" visibility="hidden"/><path d="M604.425 253.793a.76.76 0 0 0-.633.732M618.944 251.744c-.07-.076-.28-.116-.47-.088-.017 0-.034 0-.049.009M618.458 251.685l-13.857 1.954M603.286 257.951l-43.69 296.642M559.596 554.595l6.008 6.917" style="fill:none;stroke:red;stroke-width:1.99999;stroke-linecap:round;stroke-linejoin:round;stroke-miterlimit:500;stroke-dasharray:none;stroke-opacity:1;visibility:visible" visibility="hidden"/><path d="M491.992 496.448c-.288.13-.057 1.306.519 2.64.573 1.328 1.274 2.308 1.564 2.184.29-.13.055-1.31-.518-2.64-.576-1.328-1.273-2.308-1.565-2.184M409.426 239.588l15.24 45.586M424.666 285.174l88.949 266.014M423.323 229.802l-15.77 2.044" style="fill:none;stroke:red;stroke-width:.999997;stroke-linecap:round;stroke-linejoin:round;stroke-miterlimit:500;stroke-dasharray:none;stroke-opacity:1;visibility:visible" visibility="hidden"/><path d="m401.226 227.752 2.564 7.736" style="fill:none;stroke:red;stroke-width:1.99999;stroke-linecap:round;stroke-linejoin:round;stroke-miterlimit:500;stroke-dasharray:none;stroke-opacity:1;visibility:visible" visibility="hidden"/><path d="M406.231 231.88c.192.22.801.259 1.363.08.02-.006.042-.01.062-.02M506.007 538.516c-.29.127-.058 1.301.517 2.635.576 1.333 1.273 2.308 1.564 2.184.288-.125.057-1.306-.517-2.635-.575-1.33-1.276-2.31-1.564-2.184M406.315 231.853l-4.372-4.101" style="fill:none;stroke:red;stroke-width:.999997;stroke-linecap:round;stroke-linejoin:round;stroke-miterlimit:500;stroke-dasharray:none;stroke-opacity:1;visibility:visible" visibility="hidden"/><path d="m418.399 224.696-16.368 2.04M423.323 228.842l-4.495-4.097M418.86 224.744c-.056-.072-.264-.111-.464-.084-.009 0-.022 0-.033.002M597.703 469.022l1.005.598 1.802 1.186 1.625 1.24 1.435 1.278 1.246 1.322 1.05 1.357.844 1.385.638 1.406.428 1.422.21 1.44-.004 1.444-.217 1.439-.437 1.437-.654 1.424-.869 1.4-1.075 1.38-1.288 1.344-1.489 1.316-1.687 1.267-1.878 1.22-2.06 1.165-2.238 1.108-.341.156M573.224 461.379a115.946 115.946 0 0 0-35.464.384M512.31 551.153c.23.188.796.208 1.317.047M401.804 226.872a.692.692 0 0 0-.578.88" style="fill:none;stroke:red;stroke-width:1.99999;stroke-linecap:round;stroke-linejoin:round;stroke-miterlimit:500;stroke-dasharray:none;stroke-opacity:1;visibility:visible" visibility="hidden"/><path d="m566.912 504.243-2.397.193-3.392.188-3.414.094-3.419-.008-3.41-.1-3.385-.2-3.343-.3-3.29-.392-3.221-.484-3.132-.576-3.036-.666-2.923-.748-2.802-.83-2.663-.905-2.518-.983-2.357-1.05-2.19-1.116-2.013-1.168-1.827-1.228-1.239-.944" style="fill:none;stroke:red;stroke-width:.999997;stroke-linecap:round;stroke-linejoin:round;stroke-miterlimit:500;stroke-dasharray:none;stroke-opacity:1;visibility:visible" visibility="hidden"/><path d="m505.997 478.027.416-.797.904-1.378 1.1-1.35 1.299-1.32 1.488-1.274 1.672-1.233 1.848-1.177 2.017-1.132 2.172-1.068 2.327-1.008 2.463-.939 2.594-.87 2.718-.794 2.822-.721 2.916-.64 3.007-.563" style="fill:none;stroke:red;stroke-width:1.99999;stroke-linecap:round;stroke-linejoin:round;stroke-miterlimit:500;stroke-dasharray:none;stroke-opacity:1;visibility:visible" visibility="hidden"/><path d="m603.76 496.822-.172.474-.635 1.376-.847 1.356-1.058 1.33-1.26 1.301-1.456 1.257-1.65 1.215-1.841 1.169-2.014 1.11-.438.22" style="fill:none;stroke:red;stroke-width:.999997;stroke-linecap:round;stroke-linejoin:round;stroke-miterlimit:500;stroke-dasharray:none;stroke-opacity:1;visibility:visible" visibility="hidden"/><path d="m565.415 514.43-.211.02-3.227.217-3.253.123-3.264.028-3.256-.072-3.237-.17-3.2-.266-3.154-.362-3.083-.452-3.006-.55-2.908-.626-2.803-.72-2.677-.796-2.547-.876-2.404-.95-2.242-1.013-2.079-1.082-1.905-1.14-1.722-1.193-.664-.514" style="fill:none;stroke:red;stroke-width:1.99999;stroke-linecap:round;stroke-linejoin:round;stroke-miterlimit:500;stroke-dasharray:none;stroke-opacity:1;visibility:visible" visibility="hidden"/><path d="m593.312 528.897-.53 1.254-.747 1.237-.945 1.21-1.15 1.166-1.297 1.097M552.41 477.564l1.446-.2 1.504-.117 1.523-.021 1.517.066 1.479.156 1.41.244 1.319.328 1.202.407 1.06.468.9.535.715.58.527.615.316.647.11.66-.108.656-.313.65-.524.626-.722.586-.901.536-1.07.48-1.21.416-1.334.328-1.428.253-1.498.163-1.527.069-1.543-.021-1.513-.116-1.463-.208-1.377-.287-1.268-.375-1.139-.445-.976-.513-.801-.558-.614-.608-.409-.637-.2-.652.016-.661.225-.656.435-.635.635-.601.819-.56.99-.502 1.144-.44 1.27-.37 1.374-.285" style="fill:none;stroke:red;stroke-width:.999997;stroke-linecap:round;stroke-linejoin:round;stroke-miterlimit:500;stroke-dasharray:none;stroke-opacity:1;visibility:visible" visibility="hidden"/><path d="m590.727 519.732.4.443.933 1.188.73 1.221.528 1.244.317 1.263.105 1.269-.105 1.276-.323 1.264" style="fill:none;stroke:red;stroke-width:1.99999;stroke-linecap:round;stroke-linejoin:round;stroke-miterlimit:500;stroke-dasharray:none;stroke-opacity:1;visibility:visible" visibility="hidden"/><path d="m561.19 543.105-.27.012-2.855.106-2.858.01-2.852-.089-2.831-.19-2.787-.288-2.724-.386-2.65-.48-2.559-.565-2.452-.656-2.33-.742-2.199-.816-2.049-.888-1.888-.953-1.722-1.023-1.293-.887" style="fill:none;stroke:red;stroke-width:.999997;stroke-linecap:round;stroke-linejoin:round;stroke-miterlimit:500;stroke-dasharray:none;stroke-opacity:1;visibility:visible" visibility="hidden"/><path d="m520.6 522.315.468-.752.923-1.193 1.116-1.158 1.305-1.122 1.485-1.07 1.658-1.013 1.814-.955 1.968-.892 2.108-.822 1.968-.663" style="fill:none;stroke:red;stroke-width:1.99999;stroke-linecap:round;stroke-linejoin:round;stroke-miterlimit:500;stroke-dasharray:none;stroke-opacity:1;visibility:visible" visibility="hidden"/><path d="M564.2 522.65a20.773 20.773 0 0 0-11.637-1.037M567.439 481.042l-.107.656-.313.65-.526.623-.722.587-.901.537-1.07.48-1.21.415-1.334.329-1.427.251-1.497.165-1.53.07-1.539-.024-1.517-.115-1.461-.206-1.377-.29-1.27-.371-1.134-.447-.98-.512-.8-.56-.613-.608" style="fill:none;stroke:red;stroke-width:.999997;stroke-linecap:round;stroke-linejoin:round;stroke-miterlimit:500;stroke-dasharray:none;stroke-opacity:1;visibility:visible" visibility="hidden"/><path d="m563.105 530.093-.454.148-1.323.347-1.415.259-1.478.168-1.52.073-1.522-.025-1.5-.123-1.448-.208-1.365-.305-1.257-.387-1.126-.463-.967-.525-.798-.585-.605-.63-.407-.663-.193-.681.009-.686.225-.678.432-.654.627-.627.813-.581.979-.522 1.132-.452 1.259-.382 1.361-.299" style="fill:none;stroke:red;stroke-width:.999997;stroke-linecap:round;stroke-linejoin:round;stroke-miterlimit:500;stroke-dasharray:none;stroke-opacity:1;visibility:visible" visibility="hidden"/><path d="m563.105 529.201-.454.149-1.323.346-1.415.259-1.478.168-1.52.073-1.522-.025-1.5-.122-1.448-.209-1.365-.305-1.257-.386-1.126-.464-.967-.525-.798-.585-.605-.63-.407-.663" style="fill:none;stroke:red;stroke-width:.999997;stroke-linecap:round;stroke-linejoin:round;stroke-miterlimit:500;stroke-dasharray:none;stroke-opacity:1;visibility:visible" visibility="hidden"/><path d="m559.744 552.936-2.385.068-2.699-.013-2.687-.121-2.657-.213-2.607-.314-2.542-.407-2.458-.5-2.365-.588-2.25-.672-2.119-.753-1.98-.83-1.822-.901-1.664-.959-1.102-.745M587.447 543.563a10.128 10.128 0 0 0 2.229-3.638" style="fill:none;stroke:red;stroke-width:1.99999;stroke-linecap:round;stroke-linejoin:round;stroke-miterlimit:500;stroke-dasharray:none;stroke-opacity:1;visibility:visible" visibility="hidden"/><path d="m533.25 513.408-.12-1.208" style="fill:none;stroke:red;stroke-width:.999997;stroke-linecap:round;stroke-linejoin:round;stroke-miterlimit:500;stroke-dasharray:none;stroke-opacity:1;visibility:visible" visibility="hidden"/><path d="m528.112 510.796.47 4.65" style="fill:none;stroke:red;stroke-width:1.99999;stroke-linecap:round;stroke-linejoin:round;stroke-miterlimit:500;stroke-dasharray:none;stroke-opacity:1;visibility:visible" visibility="hidden"/><path d="m534.3 512.476.053.542M518.812 358.24l10.579 105.345M512.25 292.926l5.337 53.145M500.628 177.149l9.12 90.82M509.748 267.97l1.41 14.043" style="fill:none;stroke:red;stroke-width:.999997;stroke-linecap:round;stroke-linejoin:round;stroke-miterlimit:500;stroke-dasharray:none;stroke-opacity:1;visibility:visible" visibility="hidden"/><path d="M513.083 172.313c.297-.07.472-.156.462-.235" style="fill:none;stroke:red;stroke-width:1.99999;stroke-linecap:round;stroke-linejoin:round;stroke-miterlimit:500;stroke-dasharray:none;stroke-opacity:1;visibility:visible" visibility="hidden"/><path d="m591.044 536.217.844-2.993M602.78 498.982l-10.564 37.607M647.26 340.6l-39.374 140.197M686.596 200.518l-29.702 105.767" style="fill:none;stroke:red;stroke-width:.999997;stroke-linecap:round;stroke-linejoin:round;stroke-miterlimit:500;stroke-dasharray:none;stroke-opacity:1;visibility:visible" visibility="hidden"/><path d="M423.426 229.897c.46-.161.732-.42.65-.63M423.79 228.989a.59.59 0 0 0-.466-.145M528.465 548.461c.515-.16.825-.44.72-.668M584.905 558.496c.396-.055.672-.233.716-.456M626.174 258.422c.35-.07.59-.24.623-.45M606.606 533.9c.38.02.654-.04.711-.16" style="fill:none;stroke:red;stroke-width:1.99999;stroke-linecap:round;stroke-linejoin:round;stroke-miterlimit:500;stroke-dasharray:none;stroke-opacity:1;visibility:visible" visibility="hidden"/><path d="M621.388 304.243a.45.45 0 0 0-.215-.028.45.45 0 0 0-.363.287c-.018.045-.038.095-.05.145" style="fill:none;stroke:red;stroke-width:.866664;stroke-linecap:round;stroke-linejoin:round;stroke-miterlimit:2;stroke-dasharray:none;stroke-opacity:1;visibility:visible" visibility="hidden"/><path d="m576.287 553.988-.192 1.245 1.338-.409M582.024 515.082l-.288 1.148 1.244-.287" style="fill:none;stroke:red;stroke-width:.666665;stroke-linecap:round;stroke-linejoin:round;stroke-miterlimit:500;stroke-dasharray:none;stroke-opacity:1;visibility:visible" visibility="hidden"/><path d="M399.924 497.504c-8.598 2.764-15.32 7.032-15.32 7.032s-8.822-8.13-17.244-11.57c-5.9-2.41-12.313-.499-12.313-.499M411.06 419.234c-6.11 1.876-12.78 3.86-18.7 5.47-9.845 2.669-17.408 3.413-17.408 3.413s-4.632 1.419-7.69 2.583c-7.402 2.803-17.599 7.006-17.599 7.006l-21.788 5.113s-1.788.699-2.405 2.192c-.476 1.132-.935 5.739 1.336 11.093 1.874 4.434 6.012 9.467 10.076 12.588 7.521 5.786 19.76 7.094 23.646 7.306 14.192.778 27.274-4.716 27.274-4.716s12.568-2.676 23.788-4.687" style="fill:none;stroke:red;stroke-width:.666665;stroke-linecap:round;stroke-linejoin:round;stroke-miterlimit:2;stroke-dasharray:none;stroke-opacity:1;visibility:visible" visibility="hidden"/><path d="M403.724 468.088s-8.88 9.812-15.456 19.294c-4.312 6.222-7.308 13.53-7.308 13.53" style="fill:none;stroke:red;stroke-width:.666665;stroke-linecap:round;stroke-linejoin:round;stroke-miterlimit:2;stroke-dasharray:none;stroke-opacity:1;visibility:visible" visibility="hidden"/><path d="m517.587 346.071-5 11.227M505.11 283.161l1.103 10.949M512.587 357.298l-1.236-12.251M506.213 294.11l-1.103-10.949M527.445 294.019l-1.628-14.106M535.06 359.945l-1.392-12.048M525.817 279.913l1.628 14.106M533.668 347.897l1.392 12.048M640.44 331.154l-4.492 15.583M607.494 485.5l-7.285-14.903M656.894 306.285l-10.678 4.857M647.26 340.6l-6.82-9.446M646.216 311.142l3.41-11.835M440.915 281.106l-.352-1.539M440.563 279.567l.352 1.539" style="fill:none;stroke:red;stroke-width:1.99999;stroke-linecap:round;stroke-linejoin:round;stroke-miterlimit:500;stroke-dasharray:none;stroke-opacity:1;visibility:visible" visibility="hidden"/><path d="m607.886 480.797-.392 4.703M403.79 235.488l5.636 4.1M534.3 512.476l-1.05.932M534.353 513.018l-1.223-.818M533.25 513.408l1.05-.932M533.13 512.2l1.223.818M517.587 346.071l1.225 12.169M511.158 282.013l1.092 10.913M518.812 358.24l-1.225-12.169M512.25 292.926l-1.092-10.913M592.216 536.589l-.328-3.365M603.76 496.822l-.98 2.16M640.44 331.154l6.82 9.446M607.494 485.5l.392-4.703M646.216 311.142l10.678-4.857" style="fill:none;stroke:red;stroke-width:.999997;stroke-linecap:round;stroke-linejoin:round;stroke-miterlimit:500;stroke-dasharray:none;stroke-opacity:1;visibility:visible" visibility="hidden"/><path d="m585.459 558.023-9.172-4.035M593.312 528.9l-11.288-13.818" style="fill:none;stroke:red;stroke-width:.666665;stroke-linecap:round;stroke-linejoin:round;stroke-miterlimit:500;stroke-dasharray:none;stroke-opacity:1;visibility:visible" visibility="hidden"/><path d="m599.692 281.61-1.68-.279-4.035-.601-4.097-.536-4.152-.472-4.195-.41-4.237-.341-4.273-.278-4.3-.213-4.318-.15-4.33-.082-4.34-.021-4.335.05-4.332.11-4.313.178-4.296.24-4.264.305-4.232.377-4.19.434-4.141.501-4.085.56-4.027.625-3.955.686-3.878.746-3.802.811-3.717.869-3.618.925-3.527.991-3.416 1.043-3.31 1.104-3.194 1.16-3.075 1.223-2.95 1.281-2.816 1.336-2.685 1.395-2.544 1.46-2.393 1.518-2.248 1.587-2.08 1.65-1.908 1.716-1.726 1.775-1.53 1.835-1.317 1.877-1.108 1.911-.88 1.932-.224.66M613.502 354.19l2.468-.613 3.847-1.052 3.72-1.123 3.583-1.184 3.446-1.252 3.296-1.316 3.144-1.379 2.986-1.437 2.822-1.504 2.656-1.564 2.48-1.623 2.302-1.689 2.112-1.757 1.908-1.807 1.7-1.865 1.478-1.905 1.252-1.937 1.019-1.952.792-1.964.57-1.957.352-1.947.143-1.932-.062-1.917-.256-1.895-.451-1.866-.64-1.844-.836-1.819-1.025-1.801-1.228-1.774-1.426-1.754-1.626-1.718-1.826-1.68-1.65-1.357-1.102-.836-2.252-1.567-2.408-1.506-2.564-1.443-2.706-1.384-2.843-1.327-2.975-1.26-3.098-1.213-3.216-1.14-3.336-1.09-1.282-.381M459.484 336.958l1.768 1.504 2.228 1.677 2.42 1.623 2.61 1.568 2.787 1.51 2.953 1.444 3.114 1.389 3.268 1.316 3.423 1.256 3.562 1.188 3.698 1.13 3.828 1.052 3.95.992 4.067.915 4.173.85 4.271.768 4.367.703 4.445.623 4.527.552 4.585.47 4.641.394 4.686.321 4.725.238 4.75.157 4.764.08 4.769-.008 4.773-.079 4.752-.161 4.727-.241 4.695-.322 4.65-.397 4.6-.475 2.279-.281M590.136 346.509l-.556.074-4.304.527-4.376.463-4.44.38-4.488.313-4.53.234-4.561.163-4.578.092-4.583.005-4.572-.062-4.561-.14-4.535-.219-4.492-.286-4.443-.367-4.384-.436-4.306-.507-4.227-.573-4.13-.648-4.035-.708-3.918-.77-3.793-.832-3.664-.891-3.524-.941-3.376-.997-3.216-1.037-3.053-1.083-2.883-1.118-2.704-1.152-2.52-1.179-2.332-1.201-2.14-1.218-1.941-1.222-1.744-1.223-1.544-1.212-1.35-1.2-.384-.392" style="fill:none;stroke:#00ff4a;stroke-width:1.99999;stroke-linecap:round;stroke-linejoin:round;stroke-miterlimit:500;stroke-dasharray:none;stroke-opacity:1;visibility:visible"/><path d="m621.25 297.915 1.097.347 2.931 1.016 2.782 1.052 2.642 1.085M640.456 306.54l1.036.68 1.64 1.19.48.376.784.645 1.308 1.179 1.126 1.16.951 1.135.776 1.101.616 1.067.465 1.03.322 1.014.18 1.018.029 1.082-.157 1.182-.298 1.031-.436 1.02-.648 1.163-.822 1.167-.998 1.182-1.18 1.2-1.368 1.215-1.56 1.228-1.75 1.225-1.947 1.231-2.14 1.217-2.325 1.207-2.516 1.184-2.699 1.161-2.872 1.127-3.047 1.09-3.208 1.05-3.368 1.006-1.585.431M465.948 327.146l-.77-.784-.961-1.145-.785-1.107-.614-1.067-.454-1.038-.312-1.016-.166-1.039-.011-1.109.155-1.055.293-1.013.427-1.015.636-1.143.792-1.15.957-1.16 1.13-1.183 1.303-1.19 1.475-1.196 1.653-1.201 1.824-1.194 1.993-1.184 2.164-1.17L479 302.84l2.487-1.123 2.638-1.098 2.783-1.057 2.923-1.022 3.058-.985 3.184-.935 3.303-.895 3.417-.842 3.52-.792 3.619-.741 3.708-.684 3.791-.628 3.868-.57 2.998-.39M535.92 289.905l1.428-.116 4.123-.263 4.149-.2 4.172-.139 4.179-.076 4.189-.005 4.18.052 4.17.122 4.153.182 4.122.245 4.087.311 4.044.37 3.992.432 3.935.495 3.87.555 3.388.544M535.92 289.905l-11.623 1.173M524.297 291.078l11.623-1.173" style="fill:none;stroke:#00ff4a;stroke-width:1.99999;stroke-linecap:round;stroke-linejoin:round;stroke-miterlimit:500;stroke-dasharray:none;stroke-opacity:1;visibility:visible"/><path d="m593.312 528.9-2.585-9.168" style="fill:none;stroke:red;stroke-width:1.99999;stroke-linecap:round;stroke-linejoin:round;stroke-miterlimit:500;stroke-dasharray:none;stroke-opacity:1;visibility:visible" visibility="hidden"/><path d="m621.25 297.915.138 6.328" style="fill:none;stroke:red;stroke-width:.866664;stroke-linecap:round;stroke-linejoin:round;stroke-miterlimit:2;stroke-dasharray:none;stroke-opacity:1;visibility:visible" visibility="hidden"/><path d="m621.388 304.243 1.382-17.384M621.388 304.243l-.138-6.328" style="fill:none;stroke:#00ff4a;stroke-width:1.99999;stroke-linecap:round;stroke-linejoin:round;stroke-miterlimit:500;stroke-dasharray:none;stroke-opacity:1;visibility:visible"/></svg>