<svg xmlns="http://www.w3.org/2000/svg" baseProfile="full" height="1122.52" preserveAspectRatio="xMinYMin meet" style="width:912px;height:1303px" width="793.701" xml:space="preserve"><path d="m312.142 315.2 9.973 6.772M342.622 247.613l-12.03.707M342.98 247.625l1.027.007 1.408.226 1.352.446 1.284.656 1.204.868 1.13 1.069 1.035 1.261.94 1.454.854 1.626.742 1.8.648 1.953.526 2.104.424 2.24.078.502" style="fill:none;stroke:red;stroke-width:1.99999;stroke-linecap:round;stroke-linejoin:round;stroke-miterlimit:500;stroke-dasharray:none;stroke-opacity:1;visibility:visible" visibility="hidden"/><path d="m322.138 321.966-.89-.65-1.132-1.088-1.046-1.286-.952-1.49-.85-1.674-.749-1.852-.639-2.013-.53-2.173-.41-2.322M314.94 307.418l-.288-2.445-.177-2.566-.044-2.664.076-2.752.199-2.818.321-2.873.439-2.906.56-2.927.673-2.924.784-2.903.887-2.873.987-2.813 1.085-2.75 1.168-2.657 1.253-2.564 1.323-2.445 1.388-2.313 1.441-2.162 1.49-2.005 1.531-1.84 1.562-1.66 1.577-1.462 1.592-1.274 1.59-1.07 1.586-.858 1.563-.64 1.54-.424 1.504-.206h.43" style="fill:none;stroke:red;stroke-width:.999997;stroke-linecap:round;stroke-linejoin:round;stroke-miterlimit:500;stroke-dasharray:none;stroke-opacity:1;visibility:visible" visibility="hidden"/><path d="m341.603 314.702-1.339 1.557-1.529 1.594-1.541 1.412-1.566 1.225-1.562 1.032-1.563.825-1.546.626-1.52.409-1.49.195-1.457-.02-1.405-.24-1.345-.451-1.286-.67-.316-.229" style="fill:none;stroke:red;stroke-width:1.99999;stroke-linecap:round;stroke-linejoin:round;stroke-miterlimit:500;stroke-dasharray:none;stroke-opacity:1;visibility:visible" visibility="hidden"/><path d="m329.607 291.989-.121-1.344-.003-1.443.118-1.505.233-1.55.35-1.56.453-1.536.545-1.488.64-1.4.71-1.297.767-1.164.814-1.002.839-.83.854-.637.849-.43.83-.218.781-.006.737.216.665.423.592.63.5.817.392.991.288 1.144.172 1.279.062 1.386-.067 1.465-.175 1.524-.292 1.54-.393 1.536-.503 1.497-.584 1.438-.665 1.341-.735 1.23-.78 1.079-.826.927-.84.743-.858.545-.831.34-.812.125-.763-.093-.713-.305-.635-.512-.55-.716-.457-.902-.351-1.065-.236-1.212" style="fill:none;stroke:red;stroke-width:1.33333;stroke-linecap:round;stroke-linejoin:round;stroke-miterlimit:500;stroke-dasharray:none;stroke-opacity:1;visibility:visible" visibility="hidden"/><path d="m312.142 315.2-.35-.252-1.112-.959-1.025-1.164-.934-1.366-.301-.549M306.62 306.589l-.099-.294-.512-2.044-.4-2.188M305.61 302.063l-.277-2.322-.167-2.427-.036-2.534.091-2.607.209-2.674.33-2.719.453-2.762.564-2.756.677-2.752.786-2.731.894-2.679.984-2.622 1.084-2.545 1.153-2.443 1.245-2.34 1.3-2.204 1.36-2.07 1.415-1.91 1.45-1.742 1.485-1.569 1.499-1.38 1.513-1.185 1.517-.984 1.506-.77 1.485-.558 1.465-.344.996-.114" style="fill:none;stroke:red;stroke-width:1.99999;stroke-linecap:round;stroke-linejoin:round;stroke-miterlimit:500;stroke-dasharray:none;stroke-opacity:1;visibility:visible" visibility="hidden"/><path d="M309.535 305.045c-.21-.352.087.161-.144-.247-.35-.833.076.273-.21-.552-.072-.396.009.124-.042-.263.001-.346-.008.11.008-.226.067-.298-.032.088.053-.188.134-.23-.054.061.095-.146.19-.148-.075.037.128-.09.243-.074-.086.006.164-.043.274.016-.097-.015.19.02.302.095-.11-.051.203.069.64.394-.217-.179.43.291.315.297-.104-.116.208.207.3.35-.093-.127.199.238.27.395-.088-.134.177.267.236.421-.065-.136.153.279.186.437-.053-.142.12.289.128.421-.033-.136.083.277.065.396-.016-.117.04.259 0 .344.007-.104-.003.227-.061.284.028-.084-.045.186-.127.214.05-.064-.09.136-.156.087-.159.102-.139.096M327.194 253.337c.104.165-.021-.059.063.117.013.202.01-.072 0 .136-.071.232.043-.08-.06.15-.162.253.073-.081-.117.17-.545.522.235-.17-.387.347-.384.245.132-.082-.256.161-.423.222.14-.07-.287.148-.441.188.148-.063-.3.12-.448.15.153-.044-.296.094-.441.11.144-.023-.295.067-.419.056.135-.009-.276.035-.382.008.118.01-.245.003-.336-.052.096.02-.218-.037-.262-.1.078.042-.171-.07-.191-.141.048.055-.122-.097-.106-.181.023.069-.061-.123-.017-.218-.008.076-.006-.148.07-.244-.041.084.06-.166.165-.255-.073.093.115-.167.248-.257-.097.087.17-.17.329-.253-.113.075.223-.168.797-.451-.297.129.546-.291.448-.178-.154.052.3-.111.456-.137-.155.035.303-.091.445-.09-.144.024.293-.056.42-.048-.13.009.28-.026.72.016-.197-.046.46.028.257.086-.075-.036.164.057.193.133-.047-.044.12.088" style="fill:none;stroke:red;stroke-width:.999997;stroke-linecap:round;stroke-linejoin:round;stroke-miterlimit:500;stroke-dasharray:none;stroke-opacity:1;visibility:visible" visibility="hidden"/><path d="m309.535 305.045-1.115 5.865" style="fill:none;stroke:red;stroke-width:1.99999;stroke-linecap:round;stroke-linejoin:round;stroke-miterlimit:500;stroke-dasharray:none;stroke-opacity:1;visibility:visible" visibility="hidden"/><path d="m308.42 310.91 1.115-5.865" style="fill:none;stroke:red;stroke-width:.999997;stroke-linecap:round;stroke-linejoin:round;stroke-miterlimit:500;stroke-dasharray:none;stroke-opacity:1;visibility:visible" visibility="hidden"/><path d="M280.863 317.162a.739.739 0 0 0-.963.159M279.897 317.314l-9.214 9.58M270.689 326.902a1.083 1.083 0 0 0-.312 1.003M566.477 500.446a1.3 1.3 0 0 0 .276-.976M275.477 345.871l30.34 17.97M313.287 368.269 549.74 508.318M566.772 499.472l-.782-11.914M562.4 484.954 280.869 317.158M565.584 486.858l-3.184-1.904M565.988 487.516a.79.79 0 0 0-.404-.648M557.99 512.262l8.49-11.808M549.739 508.316l7.141 4.227M556.887 512.532a.795.795 0 0 0 1.096-.257c.002-.008.007-.013.007-.021" style="fill:none;stroke:#00ff4a;stroke-width:1.99999;stroke-linecap:round;stroke-linejoin:round;stroke-miterlimit:500;stroke-dasharray:none;stroke-opacity:1;visibility:visible" visibility="hidden"/><path d="m556.71 512.178-.827-11.864M314.413 363.7c.437.17.84.17 1.127-.041.658-.479.473-1.859-.413-3.08-.886-1.229-2.136-1.833-2.796-1.356-.55.398-.514 1.428.03 2.47" style="fill:none;stroke:#00ff4a;stroke-width:.999997;stroke-linecap:round;stroke-linejoin:round;stroke-miterlimit:500;stroke-dasharray:none;stroke-opacity:1;visibility:visible" visibility="hidden"/><path d="m270.522 328.115 2.179 13.467" style="fill:none;stroke:#00ff4a;stroke-width:1.99999;stroke-linecap:round;stroke-linejoin:round;stroke-miterlimit:500;stroke-dasharray:none;stroke-opacity:1;visibility:visible" visibility="hidden"/><path d="M556.577 498.844c-.396.308-.697.976-.666 1.483.005.039.006.07.012.101M271.08 327.731l283.908 171.196M556.507 498.874l8.536-11.847M277.153 341.482c.602.372 1.196.465 1.582.183.656-.478.472-1.855-.413-3.079-.885-1.221-2.139-1.828-2.797-1.35-.563.41-.515 1.471.068 2.536" style="fill:none;stroke:#00ff4a;stroke-width:.999997;stroke-linecap:round;stroke-linejoin:round;stroke-miterlimit:500;stroke-dasharray:none;stroke-opacity:1;visibility:visible" visibility="hidden"/><path d="M271.069 326.76c-.354.33-.612.92-.591 1.386M566.548 500.262a.803.803 0 0 0 .159-.572M566.696 499.715l-.776-11.91M280.949 317.009c-.171-.124-.424-.064-.669.166M565.608 486.819c-.15-.101-.359-.069-.568.099" style="fill:none;stroke:#00ff4a;stroke-width:1.99999;stroke-linecap:round;stroke-linejoin:round;stroke-miterlimit:500;stroke-dasharray:none;stroke-opacity:1;visibility:visible" visibility="hidden"/><path d="m259.954 414.234.24-.26" style="fill:none;stroke:#00ff4a;stroke-width:.866664;stroke-linecap:round;stroke-linejoin:round;stroke-miterlimit:2;stroke-dasharray:none;stroke-opacity:1;visibility:visible" visibility="hidden"/><path d="m313.287 368.269-7.47-4.428M305.817 363.841l7.47 4.428" style="fill:none;stroke:#00ff4a;stroke-width:1.99999;stroke-linecap:round;stroke-linejoin:round;stroke-miterlimit:500;stroke-dasharray:none;stroke-opacity:1;visibility:visible" visibility="hidden"/><path d="m549.739 508.316 5.249-9.389" style="fill:none;stroke:#00ff4a;stroke-width:.999997;stroke-linecap:round;stroke-linejoin:round;stroke-miterlimit:500;stroke-dasharray:none;stroke-opacity:1;visibility:visible" visibility="hidden"/><path d="M376.9 217.244a.72.72 0 0 0-.58.242M367.856 226.822l1.696 13.655M368.16 225.9a1.1 1.1 0 0 0-.308.9M376.32 217.482l-8.16 8.419M740.123 244.94l-8.442-.642M731.68 244.298l-354.776-27.054M740.758 245.722a.679.679 0 0 0-.57-.764c-.019-.005-.041-.005-.072-.008" style="fill:none;stroke:#9500ff;stroke-width:1.99999;stroke-linecap:round;stroke-linejoin:round;stroke-miterlimit:500;stroke-dasharray:none;stroke-opacity:1;visibility:visible" visibility="hidden"/><path d="m733.124 266.655.217-11.33M428.28 241.036c.435-.228.758-.58.894-1.024.333-1.092-.59-2.336-2.055-2.784-1.464-.448-2.927.076-3.253 1.164a1.65 1.65 0 0 0 .022 1.014M733.563 254l6.443-8.888" style="fill:none;stroke:#9500ff;stroke-width:.999997;stroke-linecap:round;stroke-linejoin:round;stroke-miterlimit:500;stroke-dasharray:none;stroke-opacity:1;visibility:visible" visibility="hidden"/><path d="m374.994 243.384 41.681 2.709M423.47 246.536l305.916 19.88M729.386 266.415l3.738.24" style="fill:none;stroke:#9500ff;stroke-width:1.99999;stroke-linecap:round;stroke-linejoin:round;stroke-miterlimit:500;stroke-dasharray:none;stroke-opacity:1;visibility:visible" visibility="hidden"/><path d="M740.326 257.609c.107-.1.19-.327.196-.509 0-.034 0-.057-.002-.086M615.014 251.577l-.594.057-.5.238-.32.393-.102.484.136.497.348.444.52.312.598.14.592-.057.497-.243.325-.39.1-.482-.133-.505-.349-.435-.519-.312-.599-.141M377.998 237.456c.432-.228.756-.576.892-1.02.331-1.09-.589-2.331-2.059-2.779-1.465-.449-2.923.071-3.255 1.159-.188.624.032 1.298.527 1.846" style="fill:none;stroke:#9500ff;stroke-width:.999997;stroke-linecap:round;stroke-linejoin:round;stroke-miterlimit:500;stroke-dasharray:none;stroke-opacity:1;visibility:visible" visibility="hidden"/><path d="m733.913 266.509 6.416-8.976" style="fill:none;stroke:#9500ff;stroke-width:1.99999;stroke-linecap:round;stroke-linejoin:round;stroke-miterlimit:500;stroke-dasharray:none;stroke-opacity:1;visibility:visible" visibility="hidden"/><path d="M733.72 253.728c-.196.245-.362.912-.38 1.492 0 .17.006.316.033.433" style="fill:none;stroke:#9500ff;stroke-width:.999997;stroke-linecap:round;stroke-linejoin:round;stroke-miterlimit:500;stroke-dasharray:none;stroke-opacity:1;visibility:visible" visibility="hidden"/><path d="M733.124 266.655a.777.777 0 0 0 .666-.224M423.47 246.536l-6.795-.443M416.675 246.093l6.795.443" style="fill:none;stroke:#9500ff;stroke-width:1.99999;stroke-linecap:round;stroke-linejoin:round;stroke-miterlimit:500;stroke-dasharray:none;stroke-opacity:1;visibility:visible" visibility="hidden"/><path d="m350.988 341.42 10.208 6.93M389.706 244.994l-12.322.719" style="fill:none;stroke:#ffdf00;stroke-width:1.99999;stroke-linecap:round;stroke-linejoin:round;stroke-miterlimit:500;stroke-dasharray:none;stroke-opacity:1;visibility:visible"/><path d="m360.691 347.975-1.115-.908-1.262-1.306-1.18-1.522-1.084-1.718-.99-1.914-.888-2.104-.776-2.272-.673-2.454-.557-2.607-.436-2.759" style="fill:none;stroke:#ffdf00;stroke-width:.999997;stroke-linecap:round;stroke-linejoin:round;stroke-miterlimit:500;stroke-dasharray:none;stroke-opacity:1;visibility:visible"/><path d="m389.464 245.033.61-.06 1.652.06 1.597.284 1.53.503 1.471.718 1.394.927 1.317 1.135 1.227 1.337 1.138 1.536 1.052 1.724.948 1.898.85 2.08.746 2.233.644 2.387.531 2.54.419 2.662.308 2.788.2 2.895.086 2.998-.029 3.079-.137 3.158-.254 3.215-.358 3.264-.478 3.303-.574 3.322-.686 3.331-.786 3.33-.88 3.32-.979 3.28-1.07 3.241-1.158 3.194-1.239 3.12-1.322 3.039-1.387 2.95-1.46 2.846-1.524 2.737-1.576 2.607-1.63 2.47-1.674 2.321-1.709 2.171-1.74 2.009-1.766 1.829-1.78 1.648-1.79 1.461-1.798 1.267-1.788 1.064-1.776.855-1.753.645-1.733.432-1.698.213-1.652-.005-1.61-.228-1.556-.45-1.489-.663-1.421-.887-.232-.192" style="fill:none;stroke:#ffdf00;stroke-width:1.99999;stroke-linecap:round;stroke-linejoin:round;stroke-miterlimit:500;stroke-dasharray:none;stroke-opacity:1;visibility:visible"/><path d="m351.73 328.41-.322-2.888-.2-3.019-.074-3.126.041-3.224.17-3.311.282-3.377.413-3.425.528-3.474.65-3.492.762-3.494.87-3.49.977-3.467 1.083-3.42 1.18-3.369 1.273-3.299 1.357-3.213 1.438-3.11 1.514-3.002 1.576-2.873 1.643-2.73 1.689-2.586 1.736-2.417 1.771-2.248 1.8-2.066 1.82-1.872 1.835-1.677 1.841-1.473 1.837-1.262 1.824-1.05 1.802-.823 1.776-.613 1.748-.38 1.094-.107" style="fill:none;stroke:#ffdf00;stroke-width:.999997;stroke-linecap:round;stroke-linejoin:round;stroke-miterlimit:500;stroke-dasharray:none;stroke-opacity:1;visibility:visible"/><path d="m350.988 341.42-1.158-.892-1.248-1.203-1.155-1.412-1.073-1.613-.976-1.798-.87-1.992M342.911 327.251l-.379-1.729-.432-2.635M342.1 322.887l-.317-2.766-.19-2.888-.073-3 .05-3.088.167-3.17.293-3.237.41-3.279.53-3.317.64-3.339.758-3.338.867-3.323.973-3.29 1.07-3.248 1.168-3.186 1.252-3.112 1.34-3.019 1.418-2.913 1.486-2.794 1.554-2.659 1.6-2.527 1.656-2.361 1.69-2.19 1.725-2.025 1.744-1.836 1.767-1.64 1.768-1.448 1.774-1.233 1.751-1.031 1.747-.81 1.716-.59 1.68-.38 1.27-.137" style="fill:none;stroke:#ffdf00;stroke-width:1.99999;stroke-linecap:round;stroke-linejoin:round;stroke-miterlimit:500;stroke-dasharray:none;stroke-opacity:1;visibility:visible"/><path d="M346.043 325.77c-.245-.45.143.332-.17-.344-.199-.699.035.219-.116-.456-.009-.585-.035.167.007-.375.178-.429-.09.102.136-.268.34-.229-.14.034.24-.133.48.003-.179-.044.331.027.573.252-.199-.128.381.192.604.486-.192-.2.4.341.551.667-.166-.248.358.459.428.746-.112-.256.27.505.252.719-.048-.232.154.476.066.617.012-.183.026.401-.11.459.067-.128-.089.29-.277.281.121-.05-.199.164M370.176 253.176c.1.138-.02-.05.066.1.037.166.001-.066.018.112-.024.186.02-.066-.022.124-.096.216.041-.07-.07.14-.153.213.059-.066-.108.141-.213.22.082-.071-.148.153-.254.204.094-.077-.174.134-.296.205.11-.068-.202.136-.324.184.112-.06-.222.12-.36.174.128-.05-.239.119-.373.151.128-.047-.25.097-.398.128.126-.035-.267.08-.391.092.133-.023-.26.06-.386.062.128-.012-.258.038-.36.02.12.003-.236.008-.334-.02.1.016-.216-.017-.28-.065.08.028-.186-.048-.23-.101.068.045-.143-.073-.156-.135.039.056-.099-.094-.094-.17.02.066-.05-.116-.02-.182-.015.064-.01-.128.051-.21-.034.075.042-.138.117-.211-.05.073.082-.14.18-.222-.072.074.127-.148.223-.212-.083.069.152-.144.277-.208-.1.07.192-.135.312-.193-.112.059.212-.128.35-.183-.127.055.237-.123.363-.15-.126.055.244-.093.392-.136-.132.033.262-.093.39-.103-.134.033.258-.062.392-.074-.128.019.262-.05.373-.038-.12.01.248-.019.344-.002-.115-.004.23-.002.299.035-.095-.017.193.027.269.07-.071-.028.175.052.142.07-.044-.028.095.047.11.09-.037-.025.065.063" style="fill:none;stroke:#ffdf00;stroke-width:.999997;stroke-linecap:round;stroke-linejoin:round;stroke-miterlimit:500;stroke-dasharray:none;stroke-opacity:1;visibility:visible"/><path d="m373.858 304.273-.102-1.35.015-1.453.125-1.525.247-1.558.357-1.577.456-1.551.548-1.505.636-1.421.7-1.319.763-1.174.797-1.023.83-.844.829-.648.831-.446.803-.226.765-.014.708.208.644.423.568.624.47.819.375.992.261 1.155.159 1.282.039 1.399-.078 1.473-.184 1.537-.304 1.559-.396 1.55-.501 1.513-.59 1.457-.654 1.356-.731 1.244-.769 1.1-.81.94-.825.76-.83.557-.815.353-.792.134-.741-.08-.687-.305-.612-.509-.521-.71-.438-.904-.329-1.077-.217-1.216" style="fill:none;stroke:#ffdf00;stroke-width:1.33333;stroke-linecap:round;stroke-linejoin:round;stroke-miterlimit:500;stroke-dasharray:none;stroke-opacity:1;visibility:visible"/><path d="m346.043 325.77-1.535 6.74M351.73 328.411l-8.819-1.16" style="fill:none;stroke:#ffdf00;stroke-width:1.99999;stroke-linecap:round;stroke-linejoin:round;stroke-miterlimit:500;stroke-dasharray:none;stroke-opacity:1;visibility:visible"/><path d="m344.508 332.51 1.535-6.74" style="fill:none;stroke:#ffdf00;stroke-width:.999997;stroke-linecap:round;stroke-linejoin:round;stroke-miterlimit:500;stroke-dasharray:none;stroke-opacity:1;visibility:visible"/></svg>