<svg xmlns="http://www.w3.org/2000/svg" baseProfile="full" height="793.701" preserveAspectRatio="xMinYMin meet" style="width:738px;height:965px" width="559.371" xml:space="preserve"><path d="m348.463 417.853 10.248 2.903M323.68 410.832l17.961 5.088M277.432 397.73l34.248 9.701M255.192 391.812l.605-.21 21.635 6.129" style="fill:none;stroke:red;stroke-width:1.99999;stroke-linecap:round;stroke-linejoin:round;stroke-miterlimit:4;stroke-dasharray:none;stroke-opacity:1;visibility:visible" visibility="hidden"/><path d="m224.31 402.491 30.883-10.679" style="fill:none;stroke:red;stroke-width:.999997;stroke-linecap:round;stroke-linejoin:round;stroke-miterlimit:4;stroke-dasharray:none;stroke-opacity:1;visibility:visible" visibility="hidden"/><path d="m216.014 405.358 8.296-2.867" style="fill:none;stroke:red;stroke-width:1.33333;stroke-linecap:round;stroke-linejoin:round;stroke-miterlimit:4;stroke-dasharray:none;stroke-opacity:1;visibility:visible" visibility="hidden"/><path d="m200.271 410.797 15.743-5.439" style="fill:none;stroke:red;stroke-width:.999997;stroke-linecap:round;stroke-linejoin:round;stroke-miterlimit:4;stroke-dasharray:none;stroke-opacity:1;visibility:visible" visibility="hidden"/><path d="m173.516 420.17 26.755-9.373M183.024 394.287l-81.234 26.11 2.518 19.79 4.682 2.159 38.82-13.424M200.391 388.765l-17.367 5.523M306.14 385.152l-19.987-5.288-21.117-5.587-10.676-2.822-48.825 15.66M341.89 394.61l-23.492-6.215M325.893 441.397l-74.053 44.85.72 22.668 7.558 3.239 129.538-87.08.719-17.63-41.99-11.116M342.348 431.431l-10.533 6.377M380.027 408.607l-33.375 20.216" style="fill:none;stroke:red;stroke-width:1.99999;stroke-linecap:round;stroke-linejoin:round;stroke-miterlimit:4;stroke-dasharray:none;stroke-opacity:1;visibility:visible" visibility="hidden"/><path d="m348.538 399.766 38.237 10.195-.542 17.337M319.31 391.971l22.288 5.943M249.986 373.491l14.445 3.852 19.912 5.307 22.566 6.016M184.093 397.317l70.266-22.624M101.79 420.396l5.039 1.8 77.265-24.88M334.209 442.36l55.448-34.557M251.84 486.247l7.916 2.517 68.01-42.388M108.989 442.345l-2.16-20.15" style="fill:none;stroke:red;stroke-width:.999997;stroke-linecap:round;stroke-linejoin:round;stroke-miterlimit:4;stroke-dasharray:none;stroke-opacity:1;visibility:visible" visibility="hidden"/><path d="m154.959 412.868 129.022 53.119" style="fill:none;stroke:red;stroke-width:1.99999;stroke-linecap:round;stroke-linejoin:round;stroke-miterlimit:4;stroke-dasharray:none;stroke-opacity:1;visibility:visible" visibility="hidden"/><path d="M137.327 424.383v-5.757l17.632-5.759" style="fill:none;stroke:red;stroke-width:.999997;stroke-linecap:round;stroke-linejoin:round;stroke-miterlimit:4;stroke-dasharray:none;stroke-opacity:1;visibility:visible" visibility="hidden"/><path d="m262.622 479.01-125.294-54.628" style="fill:none;stroke:red;stroke-width:1.99999;stroke-linecap:round;stroke-linejoin:round;stroke-miterlimit:4;stroke-dasharray:none;stroke-opacity:1;visibility:visible" visibility="hidden"/><path d="M137.327 418.625 268.56 475.18M254.807 391.46v-16.768" style="fill:none;stroke:red;stroke-width:.999997;stroke-linecap:round;stroke-linejoin:round;stroke-miterlimit:4;stroke-dasharray:none;stroke-opacity:1;visibility:visible" visibility="hidden"/><path d="M202.706 339.067a2.083 2.083 0 0 0-.844-.442M198.335 338.875a2.09 2.09 0 0 0-.77.558M202.73 339.089l.305.299M197.546 339.457l-.256.339M201.036 339.472l-2.125.15M201.386 338.507s-.746-.069-1.416-.026c-.591.037-1.114.189-1.114.189" style="fill:none;stroke:red;stroke-width:.999997;stroke-linecap:round;stroke-linejoin:round;stroke-miterlimit:2;stroke-dasharray:none;stroke-opacity:1;visibility:visible" visibility="hidden"/><path d="M343.096 432.702a.623.623 0 0 1-.012-.099c-.016-.345.222-.67.618-.913" style="fill:none;stroke:red;stroke-width:.666665;stroke-linecap:round;stroke-linejoin:round;stroke-miterlimit:4;stroke-dasharray:none;stroke-opacity:1;visibility:visible" visibility="hidden"/><path d="M347.584 432.395c.032.69-.949 1.296-2.194 1.352-1.182.056-2.17-.407-2.294-1.046" style="fill:none;stroke:red;stroke-width:.999997;stroke-linecap:round;stroke-linejoin:round;stroke-miterlimit:4;stroke-dasharray:none;stroke-opacity:1;visibility:visible" visibility="hidden"/><path d="M245.6 376.045c.12.485-.643 1.093-1.703 1.355-1.057.262-2.014.08-2.134-.406-.118-.485.642-1.09 1.7-1.353 1.06-.262 2.017-.081 2.137.404M346.886 431.54c.416.21.682.51.698.858" style="fill:none;stroke:red;stroke-width:.666665;stroke-linecap:round;stroke-linejoin:round;stroke-miterlimit:4;stroke-dasharray:none;stroke-opacity:1;visibility:visible" visibility="hidden"/><path d="m367.842 407.986 7.433 2.355M367.902 412.36c.01-.679-.416-1.24-.944-1.25a.792.792 0 0 0-.306.064M367.84 407.987a3.787 3.787 0 0 0-2.352-.16c-2.436.653-3.726 3.751-2.87 6.93a7.44 7.44 0 0 0 1.217 2.545M252.378 379.217l2.592-.76 7.944 2.807M253.512 388.263l1.367-.33 6.653 2.315" style="fill:none;stroke:red;stroke-width:.999997;stroke-linecap:round;stroke-linejoin:round;stroke-miterlimit:4;stroke-dasharray:none;stroke-opacity:1;visibility:visible" visibility="hidden"/><path d="M262.666 381.205c1.385.433 2.623 1.808 3.096 3.649.025.097.048.195.068.292 0 0 .196 1.797-.25 3.076-.423 1.205-1.487 1.899-1.487 1.899a2.925 2.925 0 0 1-.678.272 3.013 3.013 0 0 1-1.885-.143M253.511 388.265a3.003 3.003 0 0 1-1.881.141c-1.957-.504-3.011-2.983-2.35-5.537.475-1.842 1.71-3.216 3.097-3.651M260.62 385.911c0-.546-.342-.991-.765-.991a.653.653 0 0 0-.248.051" style="fill:none;stroke:red;stroke-width:.999997;stroke-linecap:round;stroke-linejoin:round;stroke-miterlimit:4;stroke-dasharray:none;stroke-opacity:1;visibility:visible" visibility="hidden"/><path d="M263.453 388.574c0-.547-.344-.992-.766-.992a.644.644 0 0 0-.246.052M263.951 385.234c0-.547-.344-.992-.768-.992a.65.65 0 0 0-.246.052M251.742 386.062c0-.547.344-.992.767-.992a.639.639 0 0 1 .246.052M251.247 382.722c0-.547.343-.992.766-.992a.653.653 0 0 1 .246.052" style="fill:none;stroke:red;stroke-width:.999997;stroke-linecap:round;stroke-linejoin:round;stroke-miterlimit:4;stroke-dasharray:none;stroke-opacity:1;visibility:visible" visibility="hidden"/><path d="M254.26 489.236c.277-.172.67-.182 1.11.004l.641.278c.884.377 1.629 1.426 1.663 2.325l.607 15.95a1.227 1.227 0 0 1-.227.794" style="fill:none;stroke:red;stroke-width:1.6;stroke-linecap:round;stroke-linejoin:round;stroke-miterlimit:4;stroke-dasharray:none;stroke-opacity:1;visibility:visible" visibility="hidden"/><path d="M102.872 423.422c.174-.15.436-.17.738-.033l.443.206c.605.282 1.159 1.118 1.228 1.852l1.383 12.858a1.143 1.143 0 0 1-.108.654M257.718 508.599c-.281.361-.792.497-1.383.305l-.422-.138c-.911-.303-1.693-1.282-1.728-2.183l-.686-16.377c-.016-.45.143-.782.422-.95" style="fill:none;stroke:red;stroke-width:.999997;stroke-linecap:round;stroke-linejoin:round;stroke-miterlimit:4;stroke-dasharray:none;stroke-opacity:1;visibility:visible" visibility="hidden"/><path d="M104.513 438.755c-.339-.35-.59-.837-.639-1.31l-1.454-13.203c-.04-.372.053-.648.228-.797" style="fill:none;stroke:red;stroke-width:1.99999;stroke-linecap:round;stroke-linejoin:round;stroke-miterlimit:4;stroke-dasharray:none;stroke-opacity:1;visibility:visible" visibility="hidden"/><path d="M106.621 438.829c-.165.304-.788.585-1.191.449l-.284-.101a1.648 1.648 0 0 1-.633-.423" style="fill:none;stroke:red;stroke-width:.999997;stroke-linecap:round;stroke-linejoin:round;stroke-miterlimit:4;stroke-dasharray:none;stroke-opacity:1;visibility:visible" visibility="hidden"/><path d="M411.315 335.595v21.32M341.641 415.92l6.822 1.933M367.842 407.986l-9.131 12.77M311.68 407.431l12 3.401M348.463 417.853l-6.822-1.933M323.68 410.832l-12-3.4M154.959 412.867l18.557 7.303M205.535 387.115l-5.144 1.65M318.398 388.395l-12.258-3.243M200.391 388.765l5.144-1.65M348.385 396.328l-6.495-1.718M306.909 388.666l11.49-.27M331.815 437.808l-5.922 3.589M341.89 394.61l6.495 1.718M346.652 428.823l-4.304 2.608M325.893 441.397l5.922-3.589M343.702 431.69l2.95-2.867" style="fill:none;stroke:red;stroke-width:1.99999;stroke-linecap:round;stroke-linejoin:round;stroke-miterlimit:4;stroke-dasharray:none;stroke-opacity:1;visibility:visible" visibility="hidden"/><path d="m341.598 397.914 6.94 1.852M306.909 388.666l12.401 3.305M348.385 396.328l-6.787 1.586M262.914 381.264l-12.928-7.773M318.398 388.395l-11.49.27M327.766 446.376l6.443-4.016M334.209 442.36l-6.443 4.016" style="fill:none;stroke:red;stroke-width:.999997;stroke-linecap:round;stroke-linejoin:round;stroke-miterlimit:4;stroke-dasharray:none;stroke-opacity:1;visibility:visible" visibility="hidden"/><path d="m346.652 428.823-2.95 2.867" style="fill:none;stroke:red;stroke-width:.666665;stroke-linecap:round;stroke-linejoin:round;stroke-miterlimit:4;stroke-dasharray:none;stroke-opacity:1;visibility:visible" visibility="hidden"/><path d="m254.807 374.692 5.813 11.219M253.511 388.265l6.096-3.294M254.807 374.692l8.646 13.882M255.193 391.812l7.248-4.178M254.807 374.692l9.144 10.542M253.511 388.265l9.426-3.971M254.807 374.692l-3.065 11.37M261.53 390.25l-8.775-5.128M254.807 374.692l-3.56 8.03M261.53 390.25l-9.271-8.468" style="fill:none;stroke:red;stroke-width:.999997;stroke-linecap:round;stroke-linejoin:round;stroke-miterlimit:4;stroke-dasharray:none;stroke-opacity:1;visibility:visible" visibility="hidden"/><path d="m196.204 419.972-.545-7.557M196.908 429.74l-.285-3.956M205.52 549.05l-7.03-97.393M215.78 405.245l.304 8.155" style="fill:none;stroke:#00ff4a;stroke-width:1.99999;stroke-linecap:round;stroke-linejoin:round;stroke-miterlimit:4;stroke-dasharray:none;stroke-opacity:1;visibility:visible"/><path d="m205.52 549.05 4.508 2.336M208.073 541.995c-.7.35-1.633-.099-2.083-1-.447-.899-.244-1.912.453-2.26" style="fill:none;stroke:#00ff4a;stroke-width:.999997;stroke-linecap:round;stroke-linejoin:round;stroke-miterlimit:4;stroke-dasharray:none;stroke-opacity:1;visibility:visible"/><path d="M206.443 538.736c.7-.349 1.635.096 2.083.998.447.898.245 1.912-.453 2.262" style="fill:none;stroke:#00ff4a;stroke-width:1.33333;stroke-linecap:round;stroke-linejoin:round;stroke-miterlimit:4;stroke-dasharray:none;stroke-opacity:1;visibility:visible"/><path d="m210.973 410.835 5.033 2.436M223.77 543.717l-4.845 2.292M218.808 460.835l5.02 82.72M215.964 413.586l1.505 25.017" style="fill:none;stroke:#00ff4a;stroke-width:1.99999;stroke-linecap:round;stroke-linejoin:round;stroke-miterlimit:4;stroke-dasharray:none;stroke-opacity:1;visibility:visible"/><path d="m210.053 415.272-6.077-2.795M215.304 413.442l-4.845 1.459M213.196 457.91l5.91 88.052M210.364 415.17l1.364 20.588M207.152 455.335l6.696 88.73M203.976 412.478l1.545 20.86" style="fill:none;stroke:#00ff4a;stroke-width:.999997;stroke-linecap:round;stroke-linejoin:round;stroke-miterlimit:4;stroke-dasharray:none;stroke-opacity:1;visibility:visible"/><path d="m214.226 544.065 4.692 1.935" style="fill:none;stroke:#00ff4a;stroke-width:1.99999;stroke-linecap:round;stroke-linejoin:round;stroke-miterlimit:4;stroke-dasharray:none;stroke-opacity:1;visibility:visible"/><path d="m204.386 412.344 6.215-1.695M203.699 454.415l6.613 96.477M200.713 411.098l1.396 20.245M260.118 512.154l-.361-23.028" style="fill:none;stroke:#00ff4a;stroke-width:.999997;stroke-linecap:round;stroke-linejoin:round;stroke-miterlimit:4;stroke-dasharray:none;stroke-opacity:1;visibility:visible"/><path d="m127.752 602.615-2.572-15.256 80.361-37.69" style="fill:none;stroke:#00ff4a;stroke-width:1.99999;stroke-linecap:round;stroke-linejoin:round;stroke-miterlimit:4;stroke-dasharray:none;stroke-opacity:1;visibility:visible"/><path d="m206.725 553.62 60.512-28.412M125.18 587.358l4.317 2.519 81.845-38.427M175.916 572.965l-14.032 7.556 120.541 75.924" style="fill:none;stroke:#00ff4a;stroke-width:.999997;stroke-linecap:round;stroke-linejoin:round;stroke-miterlimit:4;stroke-dasharray:none;stroke-opacity:1;visibility:visible"/><path d="m295.203 643.82-119.286-70.856M161.852 585.2l117.696 74.484" style="fill:none;stroke:#00ff4a;stroke-width:1.99999;stroke-linecap:round;stroke-linejoin:round;stroke-miterlimit:4;stroke-dasharray:none;stroke-opacity:1;visibility:visible"/><path d="m161.883 580.521-.03 4.68" style="fill:none;stroke:#00ff4a;stroke-width:.999997;stroke-linecap:round;stroke-linejoin:round;stroke-miterlimit:4;stroke-dasharray:none;stroke-opacity:1;visibility:visible"/><path d="m332.807 607.733-4.159-2.079 2.811-132.671M349.102 601.784l4.493-151.878" style="fill:none;stroke:#00ff4a;stroke-width:1.99999;stroke-linecap:round;stroke-linejoin:round;stroke-miterlimit:4;stroke-dasharray:none;stroke-opacity:1;visibility:visible"/><path d="m333.223 609.982 5.819 2.08 9.978-9.564" style="fill:none;stroke:#00ff4a;stroke-width:.999997;stroke-linecap:round;stroke-linejoin:round;stroke-miterlimit:4;stroke-dasharray:none;stroke-opacity:1;visibility:visible"/><path d="m336.87 468.968-3.647 141.014" style="fill:none;stroke:#00ff4a;stroke-width:1.99999;stroke-linecap:round;stroke-linejoin:round;stroke-miterlimit:4;stroke-dasharray:none;stroke-opacity:1;visibility:visible"/><path d="m342.786 456.559-3.856 155.054" style="fill:none;stroke:#00ff4a;stroke-width:.999997;stroke-linecap:round;stroke-linejoin:round;stroke-miterlimit:4;stroke-dasharray:none;stroke-opacity:1;visibility:visible"/><path d="m328.602 548.866-57.888-25.241M332.943 608.92l-72.068 68.004.128 18.505 6.644 2.8 112.56-113.609.83-12.89-29.866-13.022M370.965 572.97l-21.501 20.359" style="fill:none;stroke:#00ff4a;stroke-width:1.99999;stroke-linecap:round;stroke-linejoin:round;stroke-miterlimit:4;stroke-dasharray:none;stroke-opacity:1;visibility:visible"/><path d="m351.096 563.301 26.524 11.833-.721 12.414M266.51 525.563l62.244 27.77" style="fill:none;stroke:#00ff4a;stroke-width:.999997;stroke-linecap:round;stroke-linejoin:round;stroke-miterlimit:4;stroke-dasharray:none;stroke-opacity:1;visibility:visible"/><path d="m260.876 676.924 6.727 3.252 113.435-108.445M267.473 697.771l.13-17.595M292.593 366.686c-.768 4.455-3.724 7.774-6.126 9.805" style="fill:none;stroke:#00ff4a;stroke-width:.999997;stroke-linecap:round;stroke-linejoin:round;stroke-miterlimit:4;stroke-dasharray:none;stroke-opacity:1;visibility:visible"/><path d="M292.593 366.686h-3.324s-5.935 8.648-9.935 10.648M292.786 380.889l-.193-14.203M294.137 459.718l-1.352-57.537M295.264 503.25l-.093-13.701M289.632 462.356l-1.535-61.661" style="fill:none;stroke:#00ff4a;stroke-width:1.99999;stroke-linecap:round;stroke-linejoin:round;stroke-miterlimit:4;stroke-dasharray:none;stroke-opacity:1;visibility:visible"/><path d="m285.801 464.933-2.021-65.317" style="fill:none;stroke:#00ff4a;stroke-width:.999997;stroke-linecap:round;stroke-linejoin:round;stroke-miterlimit:4;stroke-dasharray:none;stroke-opacity:1;visibility:visible"/><path d="m282.353 464.836-2.083-65.761" style="fill:none;stroke:#00ff4a;stroke-width:1.99999;stroke-linecap:round;stroke-linejoin:round;stroke-miterlimit:4;stroke-dasharray:none;stroke-opacity:1;visibility:visible"/><path d="m276.797 462.442-2.253-60.028" style="fill:none;stroke:#00ff4a;stroke-width:.999997;stroke-linecap:round;stroke-linejoin:round;stroke-miterlimit:4;stroke-dasharray:none;stroke-opacity:1;visibility:visible"/><path d="m273.924 461.197-2.05-57.893" style="fill:none;stroke:#00ff4a;stroke-width:1.33333;stroke-linecap:round;stroke-linejoin:round;stroke-miterlimit:4;stroke-dasharray:none;stroke-opacity:1;visibility:visible"/><path d="m270.955 460.239-2.05-55.452" style="fill:none;stroke:#00ff4a;stroke-width:1.99999;stroke-linecap:round;stroke-linejoin:round;stroke-miterlimit:4;stroke-dasharray:none;stroke-opacity:1;visibility:visible"/><path d="m262.813 456.696-1.92-49.09" style="fill:none;stroke:#00ff4a;stroke-width:.999997;stroke-linecap:round;stroke-linejoin:round;stroke-miterlimit:4;stroke-dasharray:none;stroke-opacity:1;visibility:visible"/><path d="m260.037 455.642-2.112-47.145" style="fill:none;stroke:#00ff4a;stroke-width:1.33333;stroke-linecap:round;stroke-linejoin:round;stroke-miterlimit:4;stroke-dasharray:none;stroke-opacity:1;visibility:visible"/><path d="m256.11 453.918-2.041-43.345M257.505 481.48l-.15-4" style="fill:none;stroke:#00ff4a;stroke-width:1.99999;stroke-linecap:round;stroke-linejoin:round;stroke-miterlimit:4;stroke-dasharray:none;stroke-opacity:1;visibility:visible"/><path d="m244.963 413.217.12 2.23.62 11.249 1.307 23.774M250.113 516.545l-1.952-43.759" style="fill:none;stroke:#00ff4a;stroke-width:.999997;stroke-linecap:round;stroke-linejoin:round;stroke-miterlimit:4;stroke-dasharray:none;stroke-opacity:1;visibility:visible"/><path d="m243.468 448.938-1.343-24.021-.458-8.19-.122-2.197M246.89 515.336l-2.177-43.795" style="fill:none;stroke:#00ff4a;stroke-width:1.33333;stroke-linecap:round;stroke-linejoin:round;stroke-miterlimit:4;stroke-dasharray:none;stroke-opacity:1;visibility:visible"/><path d="m240.019 447.118-1.827-31.647M244.025 519.116l-2.857-48.82" style="fill:none;stroke:#00ff4a;stroke-width:1.99999;stroke-linecap:round;stroke-linejoin:round;stroke-miterlimit:4;stroke-dasharray:none;stroke-opacity:1;visibility:visible"/><path d="m229.196 442.904-1.481-25.508M234.192 524.181l-3.557-58.77" style="fill:none;stroke:#00ff4a;stroke-width:.999997;stroke-linecap:round;stroke-linejoin:round;stroke-miterlimit:4;stroke-dasharray:none;stroke-opacity:1;visibility:visible"/><path d="m222.492 440.317-1.04-16.955-.73-11.857-.457-7.436M228.355 538.706l-4.523-76.36" style="fill:none;stroke:#00ff4a;stroke-width:1.99999;stroke-linecap:round;stroke-linejoin:round;stroke-miterlimit:4;stroke-dasharray:none;stroke-opacity:1;visibility:visible"/><path d="m227.855 464.166 4.127 76.553-3.627-2.013M224.583 404.07l-2.024-.676M224.583 404.07l.39 7.239.786 14.62.852 15.826M238.433 414.926c-.995.32-11.244 2.901-12.183 3.203" style="fill:none;stroke:#00ff4a;stroke-width:.999997;stroke-linecap:round;stroke-linejoin:round;stroke-miterlimit:4;stroke-dasharray:none;stroke-opacity:1;visibility:visible"/><path d="M245.091 412.769c-2.221.725-4.489 1.46-6.658 2.156" style="fill:none;stroke:#00ff4a;stroke-width:1.33333;stroke-linecap:round;stroke-linejoin:round;stroke-miterlimit:4;stroke-dasharray:none;stroke-opacity:1;visibility:visible"/><path d="M245.091 412.769c1.931-.631 3.85-1.195 5.596-1.842 13.314-4.926 24.615-9.586 24.615-9.586a49.055 49.055 0 0 0 4.47-2.671" style="fill:none;stroke:#00ff4a;stroke-width:.999997;stroke-linecap:round;stroke-linejoin:round;stroke-miterlimit:4;stroke-dasharray:none;stroke-opacity:1;visibility:visible"/><path d="m165.714 588.266-33.645 16.75-4.17-2.165" style="fill:none;stroke:#00ff4a;stroke-width:1.99999;stroke-linecap:round;stroke-linejoin:round;stroke-miterlimit:4;stroke-dasharray:none;stroke-opacity:1;visibility:visible"/><path d="m266.992 537.72.85-.424-.605-10.879" style="fill:none;stroke:#00ff4a;stroke-width:.999997;stroke-linecap:round;stroke-linejoin:round;stroke-miterlimit:4;stroke-dasharray:none;stroke-opacity:1;visibility:visible"/><path d="m185.458 578.437 81.533-40.717" style="fill:none;stroke:#00ff4a;stroke-width:1.99999;stroke-linecap:round;stroke-linejoin:round;stroke-miterlimit:4;stroke-dasharray:none;stroke-opacity:1;visibility:visible"/><path d="m129.498 589.877 2.25 14.573" style="fill:none;stroke:#00ff4a;stroke-width:.999997;stroke-linecap:round;stroke-linejoin:round;stroke-miterlimit:4;stroke-dasharray:none;stroke-opacity:1;visibility:visible"/><path d="m328.425 564.667-60.645-27.273M362.167 579.88l-11.379-5.13" style="fill:none;stroke:#00ff4a;stroke-width:1.99999;stroke-linecap:round;stroke-linejoin:round;stroke-miterlimit:4;stroke-dasharray:none;stroke-opacity:1;visibility:visible"/><path d="M271.533 523.091a172.688 172.688 0 0 1-4.903 2.319" style="fill:none;stroke:#00ff4a;stroke-width:.999997;stroke-linecap:round;stroke-linejoin:round;stroke-miterlimit:4;stroke-dasharray:none;stroke-opacity:1;visibility:visible"/><path d="M295.491 503.147s-2.576 7.133-10.728 12.593c-3.962 2.656-9.356 5.451-13.23 7.351" style="fill:none;stroke:#00ff4a;stroke-width:1.99999;stroke-linecap:round;stroke-linejoin:round;stroke-miterlimit:4;stroke-dasharray:none;stroke-opacity:1;visibility:visible"/><path d="M295.871 487.432s-3.358 6.73-11.511 12.191c-6.897 4.62-15.713 8.864-15.713 8.864l-36.666 16.519M234.192 523.288l-2.977-.596" style="fill:none;stroke:#00ff4a;stroke-width:.666665;stroke-linecap:round;stroke-linejoin:round;stroke-miterlimit:4;stroke-dasharray:none;stroke-opacity:1;visibility:visible"/><path d="m249.986 516.435-3.164-.936-1.732.78" style="fill:none;stroke:#00ff4a;stroke-width:.666665;stroke-linecap:round;stroke-linejoin:round;stroke-miterlimit:4;stroke-dasharray:none;stroke-opacity:1;visibility:visible"/><path d="m227.8 539.262-3.567 1.81" style="fill:none;stroke:#00ff4a;stroke-width:1.99999;stroke-linecap:round;stroke-linejoin:round;stroke-miterlimit:4;stroke-dasharray:none;stroke-opacity:1;visibility:visible"/><path d="M198.842 419.618c.883-.143 1.779.822 1.999 2.164.216 1.337-.328 2.538-1.215 2.685" style="fill:none;stroke:#00ff4a;stroke-width:.999997;stroke-linecap:round;stroke-linejoin:round;stroke-miterlimit:4;stroke-dasharray:none;stroke-opacity:1;visibility:visible"/><path d="M197.71 420.8c.2-.64.604-1.098 1.133-1.183M199.493 424.515c-.69.092-1.233-.855-1.233-.855" style="fill:none;stroke:#00ff4a;stroke-width:.666665;stroke-linecap:round;stroke-linejoin:round;stroke-miterlimit:4;stroke-dasharray:none;stroke-opacity:1;visibility:visible"/><path d="M335.507 598.377c.883-.142 1.777.823 1.999 2.164.213 1.339-.328 2.54-1.216 2.686" style="fill:none;stroke:#00ff4a;stroke-width:.999997;stroke-linecap:round;stroke-linejoin:round;stroke-miterlimit:4;stroke-dasharray:none;stroke-opacity:1;visibility:visible"/><path d="M336.158 603.275c-.694.092-1.233-.856-1.233-.856M334.375 599.559c.199-.639.605-1.096 1.133-1.182" style="fill:none;stroke:#00ff4a;stroke-width:.666665;stroke-linecap:round;stroke-linejoin:round;stroke-miterlimit:4;stroke-dasharray:none;stroke-opacity:1;visibility:visible"/><path d="m199.713 421.917-11.437 4.068" style="fill:none;stroke:#00ff4a;stroke-width:.999997;stroke-linecap:round;stroke-linejoin:round;stroke-miterlimit:2;stroke-dasharray:none;stroke-opacity:1;visibility:visible"/><path d="M338.347 461.251c.81-.375 1.933.315 2.505 1.549.568 1.23.366 2.535-.449 2.912" style="fill:none;stroke:#00ff4a;stroke-width:.999997;stroke-linecap:round;stroke-linejoin:round;stroke-miterlimit:4;stroke-dasharray:none;stroke-opacity:1;visibility:visible"/><path d="M340.286 465.794c-.639.274-1.416-.494-1.416-.494M337.574 462.692c.021-.668.288-1.217.773-1.44" style="fill:none;stroke:#00ff4a;stroke-width:.666665;stroke-linecap:round;stroke-linejoin:round;stroke-miterlimit:4;stroke-dasharray:none;stroke-opacity:1;visibility:visible"/><path d="M296.85 661.608c.785.193 1.57-.56 1.748-1.681.18-1.124-.313-2.187-1.098-2.38-.787-.195-1.566.557-1.75 1.681-.177 1.117.311 2.185 1.1 2.38M288.469 483.532c.785.195 1.569-.558 1.746-1.68.18-1.125-.313-2.186-1.097-2.378-.785-.198-1.565.556-1.75 1.68-.176 1.116.312 2.186 1.101 2.378" style="fill:none;stroke:#00ff4a;stroke-width:.999997;stroke-linecap:round;stroke-linejoin:round;stroke-miterlimit:2;stroke-dasharray:none;stroke-opacity:1;visibility:visible"/><path d="m265.675 527.957 2.06-.777 6.561 2.758M266.613 535.429l1.047-.421 5.494 2.353" style="fill:none;stroke:#00ff4a;stroke-width:.999997;stroke-linecap:round;stroke-linejoin:round;stroke-miterlimit:4;stroke-dasharray:none;stroke-opacity:1;visibility:visible"/><path d="M273.154 537.362a2.493 2.493 0 0 0 1.556.117c1.615-.417 2.484-2.464 1.939-4.575-.392-1.52-1.412-2.656-2.559-3.014M266.613 535.43a2.496 2.496 0 0 1-1.556.117c-1.615-.417-2.487-2.464-1.939-4.575.39-1.52 1.412-2.656 2.557-3.014" style="fill:none;stroke:#00ff4a;stroke-width:.999997;stroke-linecap:round;stroke-linejoin:round;stroke-miterlimit:4;stroke-dasharray:none;stroke-opacity:1;visibility:visible"/><path d="M265.149 533.611c0-.452.285-.819.636-.819a.496.496 0 0 1 .201.043M264.74 530.852c0-.452.286-.818.635-.818a.501.501 0 0 1 .2.042M362.88 570.627l5.833 2.608M362.88 570.627a2.81 2.81 0 0 0-1.747-.119c-1.805.484-2.761 2.783-2.126 5.143.453 1.697 1.601 2.965 2.89 3.353" style="fill:none;stroke:#00ff4a;stroke-width:.999997;stroke-linecap:round;stroke-linejoin:round;stroke-miterlimit:4;stroke-dasharray:none;stroke-opacity:1;visibility:visible"/><path d="M362.431 576.958c.005-.508-.307-.923-.7-.928a.6.6 0 0 0-.228.048M362.926 573.87c.01-.501-.307-.917-.699-.922a.55.55 0 0 0-.225.044M272.4 533.778c0-.452-.282-.819-.632-.819a.507.507 0 0 0-.203.043M274.74 535.978c0-.452-.282-.819-.632-.819a.507.507 0 0 0-.203.043M275.153 533.218c0-.452-.284-.819-.635-.819a.503.503 0 0 0-.203.043" style="fill:none;stroke:#00ff4a;stroke-width:.999997;stroke-linecap:round;stroke-linejoin:round;stroke-miterlimit:4;stroke-dasharray:none;stroke-opacity:1;visibility:visible"/><path d="m260.846 681.309.075 11.412" style="fill:none;stroke:#00ff4a;stroke-width:1.99999;stroke-linecap:round;stroke-linejoin:round;stroke-miterlimit:4;stroke-dasharray:none;stroke-opacity:1;visibility:visible"/><path d="M262.702 680.65c.256-.144.617-.14 1.007.048l.573.275c.787.38 1.421 1.36 1.416 2.18l-.079 10.51c.001.294-.088.535-.234.71" style="fill:none;stroke:#00ff4a;stroke-width:1.6;stroke-linecap:round;stroke-linejoin:round;stroke-miterlimit:4;stroke-dasharray:none;stroke-opacity:1;visibility:visible"/><path d="M125.546 590.21c.164-.157.424-.193.735-.077l.455.182c.62.245 1.222 1.044 1.334 1.773l1.46 9.373a1.15 1.15 0 0 1-.071.662M265.08 694.37c-.27.319-.74.42-1.27.223l-.375-.141c-.817-.31-1.489-1.232-1.488-2.053l.026-10.9c0-.41.161-.704.42-.85" style="fill:none;stroke:#00ff4a;stroke-width:.999997;stroke-linecap:round;stroke-linejoin:round;stroke-miterlimit:4;stroke-dasharray:none;stroke-opacity:1;visibility:visible"/><path d="M127.408 602.037c-.36-.327-.639-.802-.715-1.267l-1.552-9.714c-.059-.37.016-.65.183-.81" style="fill:none;stroke:#00ff4a;stroke-width:1.99999;stroke-linecap:round;stroke-linejoin:round;stroke-miterlimit:4;stroke-dasharray:none;stroke-opacity:1;visibility:visible"/><path d="M129.517 601.987c-.148.312-.752.63-1.164.518l-.29-.084a1.66 1.66 0 0 1-.654-.385" style="fill:none;stroke:#00ff4a;stroke-width:.999997;stroke-linecap:round;stroke-linejoin:round;stroke-miterlimit:4;stroke-dasharray:none;stroke-opacity:1;visibility:visible"/><path d="m196.623 425.784-.419-5.812M196.908 429.74l-1.25-17.325M195.659 412.415l1.249 17.325M196.204 419.972l.419 5.812M205.521 433.338l-7.03 18.319M207.152 455.335l10.317-16.732" style="fill:none;stroke:#00ff4a;stroke-width:1.99999;stroke-linecap:round;stroke-linejoin:round;stroke-miterlimit:4;stroke-dasharray:none;stroke-opacity:1;visibility:visible"/><path d="m217.47 438.603-4.274 19.307M196.623 425.784l15.105 9.974M217.47 438.603l-10.318 16.732M196.623 425.784l8.898 7.554M196.204 419.972l4.509-8.874M196.623 425.784l5.486 5.56M267.237 526.417l-7.119-14.263M257.505 481.48l2.252 7.646M205.541 549.668l1.184 3.952M206.725 553.62l4.617-2.17" style="fill:none;stroke:#00ff4a;stroke-width:.999997;stroke-linecap:round;stroke-linejoin:round;stroke-miterlimit:4;stroke-dasharray:none;stroke-opacity:1;visibility:visible"/><path d="m337.574 462.692-6.115 10.29M337.574 462.692l-.704 6.276" style="fill:none;stroke:#00ff4a;stroke-width:1.99999;stroke-linecap:round;stroke-linejoin:round;stroke-miterlimit:4;stroke-dasharray:none;stroke-opacity:1;visibility:visible"/><path d="m337.574 462.692 5.212-6.133" style="fill:none;stroke:#00ff4a;stroke-width:.999997;stroke-linecap:round;stroke-linejoin:round;stroke-miterlimit:4;stroke-dasharray:none;stroke-opacity:1;visibility:visible"/><path d="m362.88 570.627-11.709-11.919M349.02 602.498l.444-9.17" style="fill:none;stroke:#00ff4a;stroke-width:1.99999;stroke-linecap:round;stroke-linejoin:round;stroke-miterlimit:4;stroke-dasharray:none;stroke-opacity:1;visibility:visible"/><path d="m362.88 570.627-11.784-7.326M260.846 681.309l6.627 16.462M260.92 692.721l6.682-12.545" style="fill:none;stroke:#00ff4a;stroke-width:.999997;stroke-linecap:round;stroke-linejoin:round;stroke-miterlimit:4;stroke-dasharray:none;stroke-opacity:1;visibility:visible"/><path d="m259.757 489.126-2.252-7.646" style="fill:none;stroke:#00ff4a;stroke-width:1.99999;stroke-linecap:round;stroke-linejoin:round;stroke-miterlimit:4;stroke-dasharray:none;stroke-opacity:1;visibility:visible"/><path d="m257.505 481.48-9.344-8.694" style="fill:none;stroke:#00ff4a;stroke-width:.999997;stroke-linecap:round;stroke-linejoin:round;stroke-miterlimit:4;stroke-dasharray:none;stroke-opacity:1;visibility:visible"/><path d="m257.505 481.48-12.792-9.939" style="fill:none;stroke:#00ff4a;stroke-width:1.33333;stroke-linecap:round;stroke-linejoin:round;stroke-miterlimit:4;stroke-dasharray:none;stroke-opacity:1;visibility:visible"/><path d="m257.505 481.48-16.337-11.184" style="fill:none;stroke:#00ff4a;stroke-width:1.99999;stroke-linecap:round;stroke-linejoin:round;stroke-miterlimit:4;stroke-dasharray:none;stroke-opacity:1;visibility:visible"/><path d="m216.084 413.4 11.63 3.996" style="fill:none;stroke:#00ff4a;stroke-width:.999997;stroke-linecap:round;stroke-linejoin:round;stroke-miterlimit:4;stroke-dasharray:none;stroke-opacity:1;visibility:visible"/><path d="m213.196 457.91 9.296-17.593M216.084 413.4l4.181-9.33" style="fill:none;stroke:#00ff4a;stroke-width:1.99999;stroke-linecap:round;stroke-linejoin:round;stroke-miterlimit:4;stroke-dasharray:none;stroke-opacity:1;visibility:visible"/><path d="m215.304 413.442 10.946 4.687M264.74 530.852l2.497-4.435" style="fill:none;stroke:#00ff4a;stroke-width:.999997;stroke-linecap:round;stroke-linejoin:round;stroke-miterlimit:4;stroke-dasharray:none;stroke-opacity:1;visibility:visible"/><path d="m175.916 572.965 9.542 5.472" style="fill:none;stroke:#00ff4a;stroke-width:1.99999;stroke-linecap:round;stroke-linejoin:round;stroke-miterlimit:4;stroke-dasharray:none;stroke-opacity:1;visibility:visible"/><path d="m127.752 602.615 1.746-12.738" style="fill:none;stroke:#00ff4a;stroke-width:.999997;stroke-linecap:round;stroke-linejoin:round;stroke-miterlimit:4;stroke-dasharray:none;stroke-opacity:1;visibility:visible"/><path d="m362.88 570.627-12.092 4.124" style="fill:none;stroke:#00ff4a;stroke-width:1.99999;stroke-linecap:round;stroke-linejoin:round;stroke-miterlimit:4;stroke-dasharray:none;stroke-opacity:1;visibility:visible"/><path d="m227.8 539.262 4.181-14.256" style="fill:none;stroke:#00ff4a;stroke-width:.666665;stroke-linecap:round;stroke-linejoin:round;stroke-miterlimit:4;stroke-dasharray:none;stroke-opacity:1;visibility:visible"/><path d="m223.77 543.717.463-2.644" style="fill:none;stroke:#00ff4a;stroke-width:1.99999;stroke-linecap:round;stroke-linejoin:round;stroke-miterlimit:4;stroke-dasharray:none;stroke-opacity:1;visibility:visible"/><path d="m204.386 412.344-4.673 9.573" style="fill:none;stroke:#00ff4a;stroke-width:.999997;stroke-linecap:round;stroke-linejoin:round;stroke-miterlimit:2;stroke-dasharray:none;stroke-opacity:1;visibility:visible"/><path d="m336.87 468.968.704-6.276" style="fill:none;stroke:#00ff4a;stroke-width:.666665;stroke-linecap:round;stroke-linejoin:round;stroke-miterlimit:4;stroke-dasharray:none;stroke-opacity:1;visibility:visible"/><path d="m267.237 526.417-2.088 7.194M267.78 537.394l-1.794-4.559M267.237 526.417l-2.497 4.435M266.51 525.563l-.935 4.513M350.788 574.75l17.925-1.515M267.237 526.417l5.163 7.361M266.613 535.43l4.952-2.428M267.237 526.417l7.503 9.561M266.613 535.43l7.292-.228M267.237 526.417l7.916 6.801M266.613 535.43l7.702-2.988" style="fill:none;stroke:#00ff4a;stroke-width:.999997;stroke-linecap:round;stroke-linejoin:round;stroke-miterlimit:4;stroke-dasharray:none;stroke-opacity:1;visibility:visible"/><path d="m267.473 697.771-6.627-16.462M267.602 680.176l-6.681 12.545M347.584 432.398l6.011 17.508M262.937 384.294l16.397-6.96" style="fill:none;stroke:#00ff4a;stroke-width:1.99999;stroke-linecap:round;stroke-linejoin:round;stroke-miterlimit:4;stroke-dasharray:none;stroke-opacity:1;visibility:visible"/><path d="m263.453 388.574 11.09 13.84" style="fill:none;stroke:#00ff4a;stroke-width:.999997;stroke-linecap:round;stroke-linejoin:round;stroke-miterlimit:4;stroke-dasharray:none;stroke-opacity:1;visibility:visible"/><path d="m263.453 388.574 8.422 14.73" style="fill:none;stroke:#00ff4a;stroke-width:1.33333;stroke-linecap:round;stroke-linejoin:round;stroke-miterlimit:4;stroke-dasharray:none;stroke-opacity:1;visibility:visible"/><path d="m263.453 388.574 5.453 16.213" style="fill:none;stroke:#00ff4a;stroke-width:1.99999;stroke-linecap:round;stroke-linejoin:round;stroke-miterlimit:4;stroke-dasharray:none;stroke-opacity:1;visibility:visible"/><path d="m254.807 391.46 6.086 16.147" style="fill:none;stroke:#00ff4a;stroke-width:.999997;stroke-linecap:round;stroke-linejoin:round;stroke-miterlimit:4;stroke-dasharray:none;stroke-opacity:1;visibility:visible"/><path d="m254.807 391.46 3.118 17.037" style="fill:none;stroke:#00ff4a;stroke-width:1.33333;stroke-linecap:round;stroke-linejoin:round;stroke-miterlimit:4;stroke-dasharray:none;stroke-opacity:1;visibility:visible"/><path d="m254.807 391.46-.738 19.113" style="fill:none;stroke:#00ff4a;stroke-width:1.99999;stroke-linecap:round;stroke-linejoin:round;stroke-miterlimit:4;stroke-dasharray:none;stroke-opacity:1;visibility:visible"/><path d="m227.715 417.396-5.156-14.002" style="fill:none;stroke:#00ff4a;stroke-width:.999997;stroke-linecap:round;stroke-linejoin:round;stroke-miterlimit:4;stroke-dasharray:none;stroke-opacity:1;visibility:visible"/><path d="M205.521 433.338 197.71 420.8" style="fill:none;stroke:#00ff4a;stroke-width:.666665;stroke-linecap:round;stroke-linejoin:round;stroke-miterlimit:4;stroke-dasharray:none;stroke-opacity:1;visibility:visible"/><path d="m200.27 410.797-11.994 15.188" style="fill:none;stroke:#00ff4a;stroke-width:.999997;stroke-linecap:round;stroke-linejoin:round;stroke-miterlimit:2;stroke-dasharray:none;stroke-opacity:1;visibility:visible"/><path d="m362.88 570.627-1.377 5.451M362.88 570.627l-.878 2.365" style="fill:none;stroke:#00ff4a;stroke-width:.999997;stroke-linecap:round;stroke-linejoin:round;stroke-miterlimit:4;stroke-dasharray:none;stroke-opacity:1;visibility:visible"/></svg>