<svg xmlns="http://www.w3.org/2000/svg" baseProfile="full" height="793.701" preserveAspectRatio="xMinYMin meet" style="width:602px;height:832px" width="559.371" xml:space="preserve"><path d="m368.616 200.262.487-.256.535-.37.497-.439.44-.503.385-.549.31-.595.224-.618.141-.644.05-.635-.031-.63-.118-.618-.19-.575-.212-.46M265.793 231.133l.621-.07 3.368-.469 3.359-.524 3.768-.658 3.871-.744 3.994-.832 4.133-.93 4.303-1.03 4.503-1.143 4.749-1.27 5.06-1.415 5.47-1.586 6.036-1.8 6.045-1.862 5.316-1.687 4.868-1.6 4.529-1.548 4.264-1.515 4.05-1.497 4.278-1.652 4.077-1.644 3.9-1.647 3.765-1.66 3.644-1.679.854-.407M368.692 190.17l-7.702-6.544-9.736-8.217-5.374-4.521-1.025-.87M335.042 161.697a731.034 731.034 0 0 0-1.593-1.317 94.597 94.597 0 0 1-8.53-9.467M320.765 145.076c-.776-1.246-1.326-2.232-1.326-2.232l-.536-1.168-.528-1.223-.518-1.277-.508-1.328-.752-2.065M259.645 226.092a6.57 6.57 0 0 0-1.38-1.874" style="fill:none;stroke:red;stroke-width:1.94666;stroke-linecap:round;stroke-linejoin:round;stroke-miterlimit:500;stroke-dasharray:none;stroke-opacity:1;visibility:visible" visibility="hidden"/><path d="M371.135 193.373a9.967 9.967 0 0 0-2.437-3.208" style="fill:none;stroke:red;stroke-width:1.94666;stroke-linecap:round;stroke-linejoin:round;stroke-miterlimit:500;stroke-dasharray:none;stroke-opacity:1;visibility:visible" visibility="hidden"/><path d="M235.269 202.902a124.083 124.083 0 0 0-3.55-3.288l-1.514-1.413-2.428-2.268-2.414-2.313-2.389-2.404-2.363-2.536-2.329-2.705-1.292-1.64-1.271-1.775-1.219-1.927-1.155-2.1-1.039-2.223-.943-2.39-.828-2.508c-1.414-4.159-2.137-9.719-2.137-9.719l-.092-.548-.559-3.98-.457-3.972-.38-3.968-.33-3.955-.286-3.943-.08-3.343" style="fill:none;stroke:red;stroke-width:.973331;stroke-linecap:round;stroke-linejoin:round;stroke-miterlimit:500;stroke-dasharray:none;stroke-opacity:1;visibility:visible" visibility="hidden"/><path d="m258.263 224.218-5.213-4.86-10.296-9.513-6.61-6.065c-.269-.28-.565-.576-.874-.876" style="fill:none;stroke:red;stroke-width:1.94666;stroke-linecap:round;stroke-linejoin:round;stroke-miterlimit:500;stroke-dasharray:none;stroke-opacity:1;visibility:visible" visibility="hidden"/><path d="M258.926 222.653a9.395 9.395 0 0 1 2.225 3.499l.095.374.445 1.128.349.75.394.7.476.652.543.542.601.407.655.273.688.13.708-.023M258.926 222.653l-10.333-9.592-11.21-10.297c-1.909-1.964-4.063-3.835-4.063-3.835l-3.166-2.969-4.284-4.138-1.683-1.674-1.673-1.716-1.66-1.796-1.632-1.91-1.599-2.066-1.23-1.779-1.186-1.954-1.112-2.138-.765-1.733-.71-1.839-.554-1.65c-1.246-3.99-2.183-9.43-2.183-9.43l-.146-.86-.4-2.724-.338-2.723-.297-2.7-.512-5.36-.42-5.34-.144-4.04" style="fill:none;stroke:red;stroke-width:.973331;stroke-linecap:round;stroke-linejoin:round;stroke-miterlimit:500;stroke-dasharray:none;stroke-opacity:1;visibility:visible" visibility="hidden"/><path d="m259.645 226.092.297.638.323.682.37.71.431.69.521.658.607.564.6.386" style="fill:none;stroke:red;stroke-width:1.94666;stroke-linecap:round;stroke-linejoin:round;stroke-miterlimit:500;stroke-dasharray:none;stroke-opacity:1;visibility:visible" visibility="hidden"/><path d="m201.993 80.136-.015.028-.306.604M203.609 78.572a3.205 3.205 0 0 0-1.619 1.588" style="fill:none;stroke:red;stroke-width:1.55733;stroke-linecap:round;stroke-linejoin:round;stroke-miterlimit:500;stroke-dasharray:none;stroke-opacity:1;visibility:visible" visibility="hidden"/><path d="m203.945 104.02-.046-.573-.269-3.135-.296-3.152-.343-3.167-.409-3.16-.504-3.15-.62-3.118M298.915 59.376a5.105 5.105 0 0 0-5.341-3.344M293.573 56.03l-2.507.208-3.826.348-3.534.362-3.305.37-3.127.392-2.957.406-3.098.47-3.102.517-3.167.565-3.241.623-3.322.685-3.424.744-3.538.816-3.683.89-3.859.977-4.072 1.08-3.853 1.077-3.668 1.073-3.497 1.078-3.339 1.084-3.203 1.09-3.061 1.102-2.941 1.112-2.822 1.124-2.744 1.145-2.83 1.239-2.838 1.298-1.4.667" style="fill:none;stroke:red;stroke-width:1.94666;stroke-linecap:round;stroke-linejoin:round;stroke-miterlimit:500;stroke-dasharray:none;stroke-opacity:1;visibility:visible" visibility="hidden"/><path d="m207.626 138.388-.024-.34-.677-10.725-.68-10.763-.37-5.387-.413-5.409-.481-5.436-.581-5.463-.341-2.805-.399-2.82-.479-2.799-.591-3.149-.15-.772-.068-.76.02-.736.116-.684.228-.63.336-.541.441-.437.533-.332M206.215 137.984l-.362-5.505-.599-9.814-.404-6.378-.443-6.407-.462-5.86" style="fill:none;stroke:red;stroke-width:.973331;stroke-linecap:round;stroke-linejoin:round;stroke-miterlimit:500;stroke-dasharray:none;stroke-opacity:1;visibility:visible" visibility="hidden"/><path d="M201.68 80.772a5.61 5.61 0 0 0-.224 3.793" style="fill:none;stroke:red;stroke-width:1.55733;stroke-linecap:round;stroke-linejoin:round;stroke-miterlimit:500;stroke-dasharray:none;stroke-opacity:1;visibility:visible" visibility="hidden"/><path d="m317.842 139.556-.288-.757-.221-.623c-.994-2.643-1.787-5.53-1.787-5.53l-.506-1.788-.503-1.898-.514-2.04-.533-2.236-.576-2.527-.67-3.03-.808-3.802-.799-3.897-.903-4.527-1.12-5.7-1.532-7.797-1.076-5.377-.981-4.782-.768-3.617-.7-3.188-.663-2.893-.645-2.677-.639-2.517-.592-2.258-.47-1.696-.447-1.516-.438-1.38-.436-1.287-.305-.841" style="fill:none;stroke:red;stroke-width:1.94666;stroke-linecap:round;stroke-linejoin:round;stroke-miterlimit:500;stroke-dasharray:none;stroke-opacity:1;visibility:visible" visibility="hidden"/><path d="M203.943 104.225s.667 48.195 1.903 61.755c1.232 13.563 11.897 22.917 17.155 27.393 5.033 4.287 12.269 9.532 12.269 9.532" style="fill:none;stroke:red;stroke-width:1.94666;stroke-linecap:round;stroke-linejoin:round;stroke-miterlimit:4;stroke-dasharray:none;stroke-opacity:1;visibility:visible" visibility="hidden"/><path d="m335.042 161.697 9.813 8.321M344.855 170.018l-9.813-8.321M317.842 139.556l-1.245-3.773M316.597 135.783l1.245 3.773" style="fill:none;stroke:red;stroke-width:1.94666;stroke-linecap:round;stroke-linejoin:round;stroke-miterlimit:500;stroke-dasharray:none;stroke-opacity:1;visibility:visible" visibility="hidden"/><path d="m262.365 267.842-.08-.78-.155-1.234-.187-1.286-.236-1.286-.285-1.234" style="fill:none;stroke:#00ff4a;stroke-width:.973331;stroke-linecap:round;stroke-linejoin:round;stroke-miterlimit:500;stroke-dasharray:none;stroke-opacity:1;visibility:visible"/><path d="m262.465 285.288.115-1.536.09-1.508.06-1.455.05-2.039.014-1.828-.016-1.589-.03-1.343-.041-1.18-.054-1.176-.073-1.16M262.58 270.474l-.08-1.142-.098-1.114" style="fill:none;stroke:#00ff4a;stroke-width:1.94666;stroke-linecap:round;stroke-linejoin:round;stroke-miterlimit:500;stroke-dasharray:none;stroke-opacity:1;visibility:visible"/><path d="m256.685 272.349.048 1.103.036 1.101.025 1.27.015 1.489-.015 1.7-.047 1.877-.053 1.33-.083 1.374-.105 1.392" style="fill:none;stroke:#00ff4a;stroke-width:.973331;stroke-linecap:round;stroke-linejoin:round;stroke-miterlimit:500;stroke-dasharray:none;stroke-opacity:1;visibility:visible"/><path d="m255.897 264.876.153.864.16 1.105.136 1.11.137 1.45.115 1.465.087 1.48" style="fill:none;stroke:#00ff4a;stroke-width:.973331;stroke-linecap:round;stroke-linejoin:round;stroke-miterlimit:500;stroke-dasharray:none;stroke-opacity:1;visibility:visible"/><path d="m258.285 330.914 4.149-45.058M255.649 263.741l.213.95.033.184" style="fill:none;stroke:#00ff4a;stroke-width:2.27066;stroke-linecap:round;stroke-linejoin:round;stroke-miterlimit:500;stroke-dasharray:none;stroke-opacity:1;visibility:visible"/><path d="m256.506 284.982-.027.343M256.478 285.324l-3.903 45.575" style="fill:none;stroke:#00ff4a;stroke-width:.973331;stroke-linecap:round;stroke-linejoin:round;stroke-miterlimit:500;stroke-dasharray:none;stroke-opacity:1;visibility:visible"/><path d="m262.434 285.856.03-.34" style="fill:none;stroke:#00ff4a;stroke-width:2.27066;stroke-linecap:round;stroke-linejoin:round;stroke-miterlimit:500;stroke-dasharray:none;stroke-opacity:1;visibility:visible"/><path d="m255.551 263.133.099.377" style="fill:none;stroke:#00ff4a;stroke-width:1.55733;stroke-linecap:round;stroke-linejoin:round;stroke-miterlimit:500;stroke-dasharray:none;stroke-opacity:1;visibility:visible"/><path d="m261.333 261.91-2.248-9.48M261.422 262.257l-.095-.37" style="fill:none;stroke:#00ff4a;stroke-width:.973331;stroke-linecap:round;stroke-linejoin:round;stroke-miterlimit:500;stroke-dasharray:none;stroke-opacity:1;visibility:visible"/><path d="m253.333 253.782 2.206 9.534" style="fill:none;stroke:#00ff4a;stroke-width:2.27066;stroke-linecap:round;stroke-linejoin:round;stroke-miterlimit:500;stroke-dasharray:none;stroke-opacity:1;visibility:visible"/><path d="M259.074 252.198c-.26-1.108-.216-1.228-.993-2.064" style="fill:none;stroke:#00ff4a;stroke-width:.973331;stroke-linecap:round;stroke-linejoin:round;stroke-miterlimit:500;stroke-dasharray:none;stroke-opacity:1;visibility:visible"/><path d="M253.333 253.55a1.128 1.128 0 0 0-.266-.428" style="fill:none;stroke:#00ff4a;stroke-width:1.55733;stroke-linecap:round;stroke-linejoin:round;stroke-miterlimit:500;stroke-dasharray:none;stroke-opacity:1;visibility:visible"/><path d="m253.803 245.137-12.732-14.197" style="fill:none;stroke:#00ff4a;stroke-width:.973331;stroke-linecap:round;stroke-linejoin:round;stroke-miterlimit:500;stroke-dasharray:none;stroke-opacity:1;visibility:visible"/><path d="m355.93 231.636 1.908 1.104 1.506 1.036 1.292 1.024 1.494 1.366 1.41 1.5 1.307 1.629 1.199 1.741.986 1.7.635 1.3c1.653 3.277 2.07 8.022 2.07 8.022l1.523 23.298.775 11.142 1.741 24.896M233.689 231.264l19.381 22.089" style="fill:none;stroke:#00ff4a;stroke-width:2.27066;stroke-linecap:round;stroke-linejoin:round;stroke-miterlimit:500;stroke-dasharray:none;stroke-opacity:1;visibility:visible"/><path d="m352.083 236.308 1.153.501 1.075.579.975.621.92.675 1.204 1.012 1.156 1.132 1.078 1.237.958 1.273.824 1.28.69 1.267.511 1.099.168.454c1.496 3.326 1.553 7.423 1.553 7.423L366 282.38l2.116 29.38" style="fill:none;stroke:#00ff4a;stroke-width:.973331;stroke-linecap:round;stroke-linejoin:round;stroke-miterlimit:500;stroke-dasharray:none;stroke-opacity:1;visibility:visible"/><path d="m355.93 231.636-15.815-6.284" style="fill:none;stroke:#00ff4a;stroke-width:2.27066;stroke-linecap:round;stroke-linejoin:round;stroke-miterlimit:500;stroke-dasharray:none;stroke-opacity:1;visibility:visible"/><path d="m232.59 330.738-26.15-38.7M337.436 230.645l14.734 5.741" style="fill:none;stroke:#00ff4a;stroke-width:.973331;stroke-linecap:round;stroke-linejoin:round;stroke-miterlimit:500;stroke-dasharray:none;stroke-opacity:1;visibility:visible"/><path d="M232.178 226.026a5.813 5.813 0 0 0 1.525 5.24M237.795 220.772l-1.669.698-.526.286-.437.272-.28.186-.233.176-.291.231-.399.352-.471.5-.504.663-.472.85-.347 1.042M201.833 295.149l24.22 35.548" style="fill:none;stroke:#00ff4a;stroke-width:2.27066;stroke-linecap:round;stroke-linejoin:round;stroke-miterlimit:500;stroke-dasharray:none;stroke-opacity:1;visibility:visible"/><path d="M334.512 229.03a11.959 11.959 0 0 0 2.926 1.613" style="fill:none;stroke:#00ff4a;stroke-width:.973331;stroke-linecap:round;stroke-linejoin:round;stroke-miterlimit:500;stroke-dasharray:none;stroke-opacity:1;visibility:visible"/><path d="m334.808 222.066-2.642-1.966" style="fill:none;stroke:#00ff4a;stroke-width:2.27066;stroke-linecap:round;stroke-linejoin:round;stroke-miterlimit:500;stroke-dasharray:none;stroke-opacity:1;visibility:visible"/><path d="M241.113 225.582a1363.34 1363.34 0 0 0 8.374-2.282M325.431 222.222l9.076 6.808" style="fill:none;stroke:#00ff4a;stroke-width:.973331;stroke-linecap:round;stroke-linejoin:round;stroke-miterlimit:500;stroke-dasharray:none;stroke-opacity:1;visibility:visible"/><path d="M240.4 220.017c2.166-.58 3.82-1.007 5.788-1.54" style="fill:none;stroke:#00ff4a;stroke-width:2.27066;stroke-linecap:round;stroke-linejoin:round;stroke-miterlimit:500;stroke-dasharray:none;stroke-opacity:1;visibility:visible"/><path d="m368.116 311.76.035.91-.017.71-.052.536-.103.602-.129.464-.093.24-.093.202-.1.16-.094.123-.074.067-.044.032-.032.014-.032.013-.04.01-.09.01h-.148l-.208-.023-.12-.028-.114-.028-.1-.03-.112-.034-.193-.072-.277-.12-.376-.19-.479-.29-.604-.425-.717-.59M240.969 225.837l.105-.024" style="fill:none;stroke:#00ff4a;stroke-width:.973331;stroke-linecap:round;stroke-linejoin:round;stroke-miterlimit:500;stroke-dasharray:none;stroke-opacity:1;visibility:visible"/><path d="m360 318.22.971.809.872.624.752.475.635.342.546.263.472.195.402.14.424.131.536.131.638.106.718.054.638-.012.7-.09.554-.13.553-.188.425-.186.462-.252.526-.36.58-.498.697-.804.491-.773.344-.679.24-.621.191-.592.137-.559.076-.358.086-.492.076-.632.062-.79.014-.952-.042-1.13" style="fill:none;stroke:#00ff4a;stroke-width:2.27066;stroke-linecap:round;stroke-linejoin:round;stroke-miterlimit:500;stroke-dasharray:none;stroke-opacity:1;visibility:visible"/><path d="m363.715 314.029-59.857-53.26" style="fill:none;stroke:#00ff4a;stroke-width:.973331;stroke-linecap:round;stroke-linejoin:round;stroke-miterlimit:500;stroke-dasharray:none;stroke-opacity:1;visibility:visible"/><path d="m210.222 279.292-.572.188-1.04.378-1.003.436-.957.479-.91.53-.858.572-.8.617-.735.658-.666.696-.591.73-.513.759-.434.782-.351.796-.272.81-.182.819-.106.818-.026.825.055.817.135.812.209.803.287.79.366.775.437.758.138.209M300.269 264.798l59.721 53.418" style="fill:none;stroke:#00ff4a;stroke-width:2.27066;stroke-linecap:round;stroke-linejoin:round;stroke-miterlimit:500;stroke-dasharray:none;stroke-opacity:1;visibility:visible"/><path d="M281.9 257.156 262 263.36M206.44 292.038l-.14-.217-.228-.427-.17-.424-.11-.425-.046-.436.014-.46.082-.436.143-.417.195-.407.282-.447.343-.437.412-.43.472-.419.537-.407.597-.385.66-.364.711-.342.767-.31.769-.268.105-.032" style="fill:none;stroke:#00ff4a;stroke-width:.973331;stroke-linecap:round;stroke-linejoin:round;stroke-miterlimit:500;stroke-dasharray:none;stroke-opacity:1;visibility:visible"/><path d="m255.357 265.364-45.135 13.926" style="fill:none;stroke:#00ff4a;stroke-width:2.27066;stroke-linecap:round;stroke-linejoin:round;stroke-miterlimit:500;stroke-dasharray:none;stroke-opacity:1;visibility:visible"/><path d="m211.84 284.548 44.45-13.788" style="fill:none;stroke:#00ff4a;stroke-width:.973331;stroke-linecap:round;stroke-linejoin:round;stroke-miterlimit:500;stroke-dasharray:none;stroke-opacity:1;visibility:visible"/><path d="m283.493 262.302.417-.122.844-.214.876-.176.908-.137.932-.095.951-.054.958-.012.963.032.963.072.953.114.939.16.92.2.888.236.853.275.815.303.77.332.72.36.659.382.608.402.543.416.296.253M262.793 268.376l20.697-6.302" style="fill:none;stroke:#00ff4a;stroke-width:2.27066;stroke-linecap:round;stroke-linejoin:round;stroke-miterlimit:500;stroke-dasharray:none;stroke-opacity:1;visibility:visible"/><path d="M300.98 266.416c.221.189.5.304.79.326l.468-.094M283.089 263.396l.461-.136.919-.231.941-.187.975-.145.99-.099 1.005-.053 1.014-.008 1.016.036 1.013.084 1.007.13.989.17.971.217.945.259.912.3.875.336.836.375.788.402.736.444.683.467.62.493.189.163M211.206 285.857a.937.937 0 0 0 .75-.828v-.423M211.203 285.857a13.464 13.464 0 0 0-5.069 2.757M350.852 311.09a.867.867 0 0 1-.31-.685v-.365M350.852 311.089l12.108 10.83M362.96 321.918a1.483 1.483 0 0 0 2.074-.081s.126-.29.171-.523M303.858 260.998l-.408-.352-.788-.604-.842-.566-.897-.531-.942-.487-.982-.442-1.021-.403-1.056-.353-1.083-.308-1.108-.26-1.126-.212-1.136-.164-1.154-.12-1.155-.068-1.155-.019-1.152.032-1.144.077-1.13.132-1.114.183-1.091.223-1.065.28-.409.121" style="fill:none;stroke:#00ff4a;stroke-width:.973331;stroke-linecap:round;stroke-linejoin:round;stroke-miterlimit:500;stroke-dasharray:none;stroke-opacity:1;visibility:visible"/><path d="M283.089 263.628a1.599 1.599 0 0 1-1.344-.182s-.251-.186-.391-.42" style="fill:none;stroke:#00ff4a;stroke-width:2.27066;stroke-linecap:round;stroke-linejoin:round;stroke-miterlimit:500;stroke-dasharray:none;stroke-opacity:1;visibility:visible"/><path d="M238.669 225.08c-.384-.02-.702.108-.71.264-.008.15.301.304.681.325.383.021.7-.099.705-.253.01-.156-.295-.312-.676-.336" style="fill:none;stroke:#00ff4a;stroke-width:.649332;stroke-linecap:round;stroke-linejoin:round;stroke-miterlimit:4;stroke-dasharray:none;stroke-opacity:1;visibility:visible"/><path d="M237.762 228.582a1.823 1.823 0 0 0-.048.058M238.047 228.148a1.256 1.256 0 0 0 .246.026c.281.018.564-.04.82-.16M239.114 228.013a.587.587 0 0 0 .226-.18M239.34 227.833a.167.167 0 0 0 .03-.088.153.153 0 0 0-.056-.127M237.782 228.025a.635.635 0 0 0 .265.121M237.757 227.813a.14.14 0 0 0-.03.081.159.159 0 0 0 .054.132M237.806 227.756a.252.252 0 0 0-.05.056M238.093 227.318a1.728 1.728 0 0 0 1.064-.133M239.157 227.185a.63.63 0 0 0 .225-.179M239.382 227.006a.156.156 0 0 0 .03-.086c.003-.05-.016-.102-.056-.128M237.826 227.198a.653.653 0 0 0 .265.122M237.8 226.982a.155.155 0 0 0-.032.086.153.153 0 0 0 .058.13M237.849 226.925a1.192 1.192 0 0 1-.05.057M238.134 226.49a1.684 1.684 0 0 0 1.066-.134M239.2 226.356a.596.596 0 0 0 .224-.18M239.426 226.177a.132.132 0 0 0 .032-.087.152.152 0 0 0-.058-.128M237.867 226.37a.659.659 0 0 0 .266.12M237.842 226.157a.145.145 0 0 0-.03.083.152.152 0 0 0 .056.13M237.893 226.101a.353.353 0 0 0-.05.057" style="fill:none;stroke:#00ff4a;stroke-width:.649332;stroke-linecap:round;stroke-linejoin:round;stroke-miterlimit:2;stroke-dasharray:none;stroke-opacity:1;visibility:visible"/><path d="M237.714 228.638a.137.137 0 0 0-.03.086.147.147 0 0 0 .058.13M239.294 228.662a.133.133 0 0 0 .03-.086.142.142 0 0 0-.054-.13" style="fill:none;stroke:#00ff4a;stroke-width:.649332;stroke-linecap:round;stroke-linejoin:round;stroke-miterlimit:2;stroke-dasharray:none;stroke-opacity:1;visibility:visible"/><path d="M237.74 228.853a.624.624 0 0 0 .261.121M238.002 228.973a1.736 1.736 0 0 0 1.07-.133M239.071 228.84a.619.619 0 0 0 .223-.18" style="fill:none;stroke:#00ff4a;stroke-width:.649332;stroke-linecap:round;stroke-linejoin:round;stroke-miterlimit:2;stroke-dasharray:none;stroke-opacity:1;visibility:visible"/><path d="M239.071 228.433c.266.12.436.307.432.513-.002.346-.482.624-1.073.615-.59-.008-1.065-.293-1.063-.64.006-.15.098-.29.253-.399M255.357 244.574c-.384-.017-.702.108-.708.266-.01.153.297.304.68.325.381.02.696-.099.704-.253.012-.155-.294-.314-.676-.338" style="fill:none;stroke:#00ff4a;stroke-width:.649332;stroke-linecap:round;stroke-linejoin:round;stroke-miterlimit:4;stroke-dasharray:none;stroke-opacity:1;visibility:visible"/><path d="M239.813 227.485c1.077.256 1.821.817 1.817 1.57-.005 1.036-1.433 1.862-3.199 1.839-1.764-.016-3.18-.828-3.16-1.818.011-.771.873-1.411 2.07-1.649" style="fill:none;stroke:#00ff4a;stroke-width:.649332;stroke-linecap:round;stroke-linejoin:round;stroke-miterlimit:4;stroke-dasharray:none;stroke-opacity:1;visibility:visible"/><path d="M256.114 245.676a.164.164 0 0 0-.025-.216M254.557 245.866a.613.613 0 0 0 .265.124M254.53 245.653a.16.16 0 0 0 .027.213" style="fill:none;stroke:#00ff4a;stroke-width:.649332;stroke-linecap:round;stroke-linejoin:round;stroke-miterlimit:2;stroke-dasharray:none;stroke-opacity:1;visibility:visible"/><path d="M254.582 245.598a.292.292 0 0 0-.052.055M254.54 246.425a.215.215 0 0 0-.052.059M254.822 245.988a1.707 1.707 0 0 0 .245.028 1.65 1.65 0 0 0 .823-.163M255.889 245.852a.543.543 0 0 0 .225-.178M254.4 248.136a.156.156 0 0 0 .027.213M254.449 248.08l-.049.056M254.734 247.642a1.293 1.293 0 0 0 .247.028c.282.019.565-.037.822-.161M255.803 247.509a.568.568 0 0 0 .222-.18M256.026 247.329a.127.127 0 0 0 .032-.087.15.15 0 0 0-.056-.126M254.47 247.52a.613.613 0 0 0 .264.122M254.445 247.306a.172.172 0 0 0-.032.086.144.144 0 0 0 .057.128M254.493 247.254a.887.887 0 0 0-.048.052M254.78 246.814a1.667 1.667 0 0 0 1.064-.134M255.846 246.681a.587.587 0 0 0 .224-.179M256.07 246.502a.147.147 0 0 0 .032-.085.152.152 0 0 0-.057-.13M254.514 246.694a.65.65 0 0 0 .265.122" style="fill:none;stroke:#00ff4a;stroke-width:.649332;stroke-linecap:round;stroke-linejoin:round;stroke-miterlimit:2;stroke-dasharray:none;stroke-opacity:1;visibility:visible"/><path d="M254.489 246.482a.133.133 0 0 0-.031.083.16.16 0 0 0 .056.13M254.693 248.47a1.71 1.71 0 0 0 1.066-.133M255.76 248.337a.632.632 0 0 0 .221-.179M255.982 248.158a.166.166 0 0 0 .033-.086.15.15 0 0 0-.058-.128M254.426 248.348a.653.653 0 0 0 .265.122" style="fill:none;stroke:#00ff4a;stroke-width:.649332;stroke-linecap:round;stroke-linejoin:round;stroke-miterlimit:2;stroke-dasharray:none;stroke-opacity:1;visibility:visible"/><path d="M255.76 247.929c.264.117.436.304.433.513-.003.35-.484.623-1.074.619-.592-.01-1.064-.295-1.062-.643.002-.152.096-.293.25-.4M336.7 220.334c-.382-.02-.7.106-.708.262-.008.153.298.304.68.328.382.018.698-.099.704-.255.01-.153-.293-.312-.676-.335" style="fill:none;stroke:#00ff4a;stroke-width:.649332;stroke-linecap:round;stroke-linejoin:round;stroke-miterlimit:4;stroke-dasharray:none;stroke-opacity:1;visibility:visible"/><path d="M256.5 246.978c1.08.26 1.82.822 1.819 1.572-.006 1.036-1.436 1.862-3.197 1.842-1.764-.02-3.18-.83-3.164-1.824.015-.766.875-1.402 2.075-1.644" style="fill:none;stroke:#00ff4a;stroke-width:.649332;stroke-linecap:round;stroke-linejoin:round;stroke-miterlimit:4;stroke-dasharray:none;stroke-opacity:1;visibility:visible"/><path d="M335.883 222.182c-.02.02-.039.035-.052.056M336.166 221.742a1.672 1.672 0 0 0 1.066-.132M337.232 221.61a.59.59 0 0 0 .224-.18M337.456 221.43a.122.122 0 0 0 .031-.086.153.153 0 0 0-.057-.128M335.902 221.622a.585.585 0 0 0 .264.122M335.876 221.41a.147.147 0 0 0 .026.21M335.924 221.356a.272.272 0 0 0-.048.054M337.414 222.257a.133.133 0 0 0 .032-.084.147.147 0 0 0-.059-.128M335.856 222.45a.677.677 0 0 0 .266.12" style="fill:none;stroke:#00ff4a;stroke-width:.649332;stroke-linecap:round;stroke-linejoin:round;stroke-miterlimit:2;stroke-dasharray:none;stroke-opacity:1;visibility:visible"/><path d="M335.831 222.237a.137.137 0 0 0-.028.087.163.163 0 0 0 .053.126M335.79 223.066a.144.144 0 0 0-.03.084.148.148 0 0 0 .053.127M335.838 223.01c-.016.017-.032.031-.048.054M336.122 222.572a1.73 1.73 0 0 0 1.068-.134M337.19 222.438a.621.621 0 0 0 .224-.182M336.038 224.226a1.727 1.727 0 0 0 1.065-.133M337.103 224.093a.619.619 0 0 0 .22-.181M337.324 223.913a.13.13 0 0 0 .036-.087.147.147 0 0 0-.058-.126M335.772 224.105a.643.643 0 0 0 .266.121M335.744 223.892a.181.181 0 0 0-.029.088.145.145 0 0 0 .056.125M335.794 223.836c-.015.02-.036.036-.05.056M336.076 223.4a1.686 1.686 0 0 0 1.068-.136M337.146 223.265a.53.53 0 0 0 .224-.181" style="fill:none;stroke:#00ff4a;stroke-width:.649332;stroke-linecap:round;stroke-linejoin:round;stroke-miterlimit:2;stroke-dasharray:none;stroke-opacity:1;visibility:visible"/><path d="M337.37 223.084a.11.11 0 0 0 .032-.084.148.148 0 0 0-.056-.128M335.812 223.276a.617.617 0 0 0 .266.122" style="fill:none;stroke:#00ff4a;stroke-width:.649332;stroke-linecap:round;stroke-linejoin:round;stroke-miterlimit:2;stroke-dasharray:none;stroke-opacity:1;visibility:visible"/><path d="M337.103 223.686c.265.12.433.304.433.514-.004.346-.485.622-1.074.616-.588-.008-1.064-.294-1.062-.64.003-.154.098-.294.25-.402" style="fill:none;stroke:#00ff4a;stroke-width:.649332;stroke-linecap:round;stroke-linejoin:round;stroke-miterlimit:4;stroke-dasharray:none;stroke-opacity:1;visibility:visible"/><path d="M337.844 222.737c1.08.26 1.822.819 1.82 1.57-.009 1.039-1.437 1.863-3.201 1.846-1.765-.024-3.18-.833-3.16-1.829.01-.764.871-1.402 2.071-1.642" style="fill:none;stroke:#00ff4a;stroke-width:.649332;stroke-linecap:round;stroke-linejoin:round;stroke-miterlimit:4;stroke-dasharray:none;stroke-opacity:1;visibility:visible"/><path d="m258.285 330.685-1.495 16.168" style="fill:none;stroke:#00ff4a;stroke-width:2.27066;stroke-linecap:round;stroke-linejoin:round;stroke-miterlimit:500;stroke-dasharray:none;stroke-opacity:1;visibility:visible"/><path d="m251.16 346.195-.13.9-.147.693-.145.522-.213.571-.211.433-.13.221-.131.178-.126.145-.112.102-.085.051-.925.107-.28-.075-.035.01.703.081-.835-.084-.15-.028-.196-.062-.118-.047-.103-.048-.094-.047-.104-.056-.175-.104-.252-.17-.336-.252-.421-.373-.512-.522-.603-.712M252.575 330.669l-1.417 15.526" style="fill:none;stroke:#00ff4a;stroke-width:.973331;stroke-linecap:round;stroke-linejoin:round;stroke-miterlimit:500;stroke-dasharray:none;stroke-opacity:1;visibility:visible"/><path d="m240.885 351.087.817.976.741.771.654.597.562.454.495.357.428.276.368.21.396.202.501.23.614.222.693.179.63.098.704.042 1.694-.031.575-.082.452-.106.498-.165.586-.262.656-.382.83-.67.626-.669.455-.61.35-.564.291-.549.241-.526.14-.34.168-.466.193-.608.198-.765.189-.935.16-1.118" style="fill:none;stroke:#00ff4a;stroke-width:2.27066;stroke-linecap:round;stroke-linejoin:round;stroke-miterlimit:500;stroke-dasharray:none;stroke-opacity:1;visibility:visible"/><path d="M245.297 347.633 232.59 330.51" style="fill:none;stroke:#00ff4a;stroke-width:.973331;stroke-linecap:round;stroke-linejoin:round;stroke-miterlimit:500;stroke-dasharray:none;stroke-opacity:1;visibility:visible"/><path d="M233.174 342.43a.848.848 0 0 1-.187-.728l.067-.359M233.174 342.431l9.96 12.826M243.137 355.262a1.48 1.48 0 0 0 2.056.29s.174-.259.261-.479M226.053 330.467l14.83 20.62" style="fill:none;stroke:#00ff4a;stroke-width:2.27066;stroke-linecap:round;stroke-linejoin:round;stroke-miterlimit:500;stroke-dasharray:none;stroke-opacity:1;visibility:visible"/><path d="m253.07 253.353 5.011-3.219M233.703 231.266l7.368-.326" style="fill:none;stroke:#00ff4a;stroke-width:.973331;stroke-linecap:round;stroke-linejoin:round;stroke-miterlimit:500;stroke-dasharray:none;stroke-opacity:1;visibility:visible"/><path d="m337.438 230.643 2.677-5.291M239.2 226.356l-1.405-5.584M335.902 221.62l-3.736-1.52" style="fill:none;stroke:#00ff4a;stroke-width:2.27066;stroke-linecap:round;stroke-linejoin:round;stroke-miterlimit:500;stroke-dasharray:none;stroke-opacity:1;visibility:visible"/><path d="m240.969 225.837 8.518-2.537M334.808 222.066l-9.377.156" style="fill:none;stroke:#00ff4a;stroke-width:.973331;stroke-linecap:round;stroke-linejoin:round;stroke-miterlimit:500;stroke-dasharray:none;stroke-opacity:1;visibility:visible"/><path d="m241.074 225.813-.674-5.796M241.113 225.582l5.075-7.105" style="fill:none;stroke:#00ff4a;stroke-width:2.27066;stroke-linecap:round;stroke-linejoin:round;stroke-miterlimit:500;stroke-dasharray:none;stroke-opacity:1;visibility:visible"/><path d="M255.357 265.364 262 263.36M262.793 268.376l-6.503 2.384M283.493 262.302l18.745 4.346M368.116 311.76l-17.574-1.72" style="fill:none;stroke:#00ff4a;stroke-width:.973331;stroke-linecap:round;stroke-linejoin:round;stroke-miterlimit:500;stroke-dasharray:none;stroke-opacity:1;visibility:visible"/><path d="m254.514 246.694 8.28-16.274" style="fill:none;stroke:red;stroke-width:1.94666;stroke-linecap:round;stroke-linejoin:round;stroke-miterlimit:500;stroke-dasharray:none;stroke-opacity:1;visibility:visible" visibility="hidden"/><path d="m325.431 222.222 11.269-1.888M334.808 222.066l1.892-1.732" style="fill:none;stroke:#00ff4a;stroke-width:.649332;stroke-linecap:round;stroke-linejoin:round;stroke-miterlimit:4;stroke-dasharray:none;stroke-opacity:1;visibility:visible"/></svg>