<svg xmlns="http://www.w3.org/2000/svg" baseProfile="full" height="1122.52" preserveAspectRatio="xMinYMin meet" style="width:792px;height:931px" width="793.701" xml:space="preserve"><path d="M366.108 857.085c-1.962.864-5.662 2.233-8.908 3.682 0 0-7.557 3.058-15.296 6.574-8.013 3.641-16.218 7.748-16.218 7.748a1773.348 1773.348 0 0 0-24.25 11.448c-30.142 14.537-59.521 30.24-59.521 30.24M451.756 837.54a718.958 718.958 0 0 0-5.364.75c-9.09 1.31-18.224 2.875-26.089 4.315 0 0-7.896 1.285-15.575 2.875a327.845 327.845 0 0 0-9.788 2.197M500.483 832.183a940.474 940.474 0 0 0-14.97 1.399" style="fill:none;stroke:red;stroke-width:1.99999;stroke-linecap:round;stroke-linejoin:round;stroke-miterlimit:4;stroke-dasharray:none;stroke-opacity:1;visibility:visible"/><path d="M450.434 844.495a1177.29 1177.29 0 0 0-5.346.812c-22.193 3.428-42.046 7.616-42.046 7.616s-7.727 1.879-15.327 4.287c-7.89 2.497-15.661 5.53-15.661 5.53s-3.842 1.708-10.132 4.565c0 .001-7.63 3.213-15.694 6.962-8.926 4.148-18.373 8.875-18.373 8.875a1523.203 1523.203 0 0 0-19.065 9.23c-31.464 15.519-61.176 31.746-61.176 31.746M504.46 837.22c-2.84.344-10.407 1.272-20.205 2.556" style="fill:none;stroke:red;stroke-width:.999997;stroke-linecap:round;stroke-linejoin:round;stroke-miterlimit:4;stroke-dasharray:none;stroke-opacity:1;visibility:visible"/><path d="M573.065 889.822c-6.265 1.037-33.785 5.696-58.414 11.473-17.711 4.158-35.195 8.976-44.562 11.635M247.31 932.922s46.43-21.779 86.52-38.73c3.164-1.342 15.128-6.262 15.128-6.262.73-.293 14.07-5.595 14.07-5.595a1311.77 1311.77 0 0 1 11.959-4.605M401.151 868.833s7.27-2.627 12.488-4.006c2.728-.721 5.688-1.514 8.821-2.305M482.516 849.254a4262.923 4262.923 0 0 1 21.633-4.439M444.462 857.406c1.425-.317 2.857-.633 4.291-.95M299.547 1000.555c5.936-3.53 38.753-22.984 72.128-41.367 27.532-15.16 55.621-28.52 65.092-33.323.333-.17 1.027-.507 1.99-.967" style="fill:none;stroke:red;stroke-width:1.99999;stroke-linecap:round;stroke-linejoin:round;stroke-miterlimit:4;stroke-dasharray:none;stroke-opacity:1;visibility:visible"/><path d="M579.868 895.182c-7.352 1.51-30.125 6.277-53.108 12.09-28.433 7.189-57.23 16.322-57.23 16.322s-4.634 1.354-8.11 2.691c-4.122 1.588-7.052 2.881-10.302 4.255-2.4 1.012-7.326 2.96-9.731 4.231-10.305 5.459-40 21.113-68.728 37.112-29.637 16.507-57.962 33.088-66.181 37.92" style="fill:none;stroke:red;stroke-width:.999997;stroke-linecap:round;stroke-linejoin:round;stroke-miterlimit:4;stroke-dasharray:none;stroke-opacity:1;visibility:visible"/><path d="M597.932 896.57c-.156.425-.415.956-.81 1.38-.702.76-1.97 1.12-1.97 1.12s-69.179 15.552-134.176 42.532c-20.676 8.585-42.122 19.17-61.202 28.437-53.347 25.907-94.184 49.228-94.184 49.228" style="fill:none;stroke:red;stroke-width:1.99999;stroke-linecap:round;stroke-linejoin:round;stroke-miterlimit:4;stroke-dasharray:none;stroke-opacity:1;visibility:visible"/><path d="m598.023 896.307-10.746 1.754" style="fill:none;stroke:red;stroke-width:1.33333;stroke-linecap:round;stroke-linejoin:round;stroke-miterlimit:4;stroke-dasharray:none;stroke-opacity:1;visibility:visible"/><path d="m496.419 823.05 12.885-5.677s3.219-1.247 5.612-.415c2.768.957 4.764 4.019 4.764 4.019s17.627 25.48 40.763 42.636c19.82 14.7 45.663 21.46 45.663 21.46s.6.137 1.276.261c.466.089 2.995.414 4.304 1.546 1.151.99 1.14 2.754 1.038 3.415-.15.958-.732 1.94-1.112 2.395-1.167 1.41-3.082 1.9-3.082 1.9l-10.507 1.716" style="fill:none;stroke:red;stroke-width:1.99999;stroke-linecap:round;stroke-linejoin:round;stroke-miterlimit:4;stroke-dasharray:none;stroke-opacity:1;visibility:visible"/><path d="M499.496 824.598s18.51 27.277 42.474 45.49c16.266 12.359 37.286 19.149 43.531 20.989" style="fill:none;stroke:red;stroke-width:.999997;stroke-linecap:round;stroke-linejoin:round;stroke-miterlimit:4;stroke-dasharray:none;stroke-opacity:1;visibility:visible"/><path d="M580.741 896.555c2.222.702 4.206 1.24 5.372 1.585" style="fill:none;stroke:red;stroke-width:1.33333;stroke-linecap:round;stroke-linejoin:round;stroke-miterlimit:4;stroke-dasharray:none;stroke-opacity:1;visibility:visible"/><path d="M552.672 884.135c-4.895-2.612-9.853-5.65-14.432-9.13-10.11-7.686-19.21-16.907-26.344-24.999M497.308 831.782c-.844-1.17-1.518-2.607-1.518-2.607" style="fill:none;stroke:red;stroke-width:1.99999;stroke-linecap:round;stroke-linejoin:round;stroke-miterlimit:4;stroke-dasharray:none;stroke-opacity:1;visibility:visible"/><path d="M587.136 898.05c1.307-.51 1.77-2.448 1.039-4.332-.536-1.376-1.563-2.343-2.586-2.568" style="fill:none;stroke:red;stroke-width:.999997;stroke-linecap:round;stroke-linejoin:round;stroke-miterlimit:4;stroke-dasharray:none;stroke-opacity:1;visibility:visible"/><path d="M586.113 898.14c.347.063.698.036 1.024-.088" style="fill:none;stroke:red;stroke-width:1.33333;stroke-linecap:round;stroke-linejoin:round;stroke-miterlimit:4;stroke-dasharray:none;stroke-opacity:1;visibility:visible"/><path d="M496.296 823.11c-1.401.543-1.8 2.885-.888 5.23a9.08 9.08 0 0 0 .383.836" style="fill:none;stroke:red;stroke-width:1.99999;stroke-linecap:round;stroke-linejoin:round;stroke-miterlimit:4;stroke-dasharray:none;stroke-opacity:1;visibility:visible"/><path d="M496.295 823.11c.997-.387 2.237.244 3.201 1.488M580.66 894.327l-7.308-4.497M505.376 842.28l.492-5.405-4.841-4.834" style="fill:none;stroke:red;stroke-width:.999997;stroke-linecap:round;stroke-linejoin:round;stroke-miterlimit:4;stroke-dasharray:none;stroke-opacity:1;visibility:visible"/><path d="M493.764 905.878c-2.852-1.28-11.05-5.138-19.93-10.984M446.262 869.947c-8.386-9.662-14.26-18.181-15.383-19.833" style="fill:none;stroke:red;stroke-width:1.99999;stroke-linecap:round;stroke-linejoin:round;stroke-miterlimit:4;stroke-dasharray:none;stroke-opacity:1;visibility:visible"/><path d="M421.02 851.334s10.006 15.405 23.724 29.564M472.359 902.611a182.284 182.284 0 0 0 10.606 5.942" style="fill:none;stroke:red;stroke-width:.999997;stroke-linecap:round;stroke-linejoin:round;stroke-miterlimit:4;stroke-dasharray:none;stroke-opacity:1;visibility:visible"/><path d="M420.632 858.66c3.396 4.93 12.115 17.053 23.063 28.181M471.035 908.271a200.129 200.129 0 0 0 4.39 2.64" style="fill:none;stroke:red;stroke-width:1.99999;stroke-linecap:round;stroke-linejoin:round;stroke-miterlimit:4;stroke-dasharray:none;stroke-opacity:1;visibility:visible"/><path d="m430.483 849.653-9.493 1.547-.647 7.31" style="fill:none;stroke:red;stroke-width:.999997;stroke-linecap:round;stroke-linejoin:round;stroke-miterlimit:4;stroke-dasharray:none;stroke-opacity:1;visibility:visible"/><path d="M478.433 871.647a229.637 229.637 0 0 0 13.438 3.873 172.133 172.133 0 0 0 3.821.937M432.383 851.503s5.911 3.58 15.895 8.267M504.616 878.374c26.388 5.2 54.401 6.823 60.17 7.112" style="fill:none;stroke:red;stroke-width:1.99999;stroke-linecap:round;stroke-linejoin:round;stroke-miterlimit:4;stroke-dasharray:none;stroke-opacity:1;visibility:visible"/><path d="M477.536 876.757a235.833 235.833 0 0 0 6.992 2.093M440.268 861.593c1.904.96 4.06 2.012 6.44 3.124M487.269 879.605c.891.24 1.791.475 2.699.705 1.403.361 2.823.708 4.258 1.04M503.265 883.275c29.446 5.739 60.695 7.055 60.695 7.055" style="fill:none;stroke:red;stroke-width:.999997;stroke-linecap:round;stroke-linejoin:round;stroke-miterlimit:4;stroke-dasharray:none;stroke-opacity:1;visibility:visible"/><path d="M477.08 879.582a228.8 228.8 0 0 0 12.424 3.55c1.29.331 2.593.65 3.912.956M502.673 886.07c20.208 3.947 41.292 5.81 52.552 6.593M487.69 902.179a825.607 825.607 0 0 0 5.77-17.979M495.816 876.434l.184-.615c4.989-16.848 10.132-36.105 10.132-36.105M497.6 904.87c1.03-3.76 2.932-10.761 5.04-18.743M504.67 878.347c.47-1.806.936-3.625 1.398-5.43a1184.784 1184.784 0 0 0 6.532-27.16" style="fill:none;stroke:red;stroke-width:1.99999;stroke-linecap:round;stroke-linejoin:round;stroke-miterlimit:4;stroke-dasharray:none;stroke-opacity:1;visibility:visible"/><path d="m375.456 870.995 56.308 57.252M512.47 845.36l-6.086-6.11M571.812 889.645l-6.292-3.87" style="fill:none;stroke:red;stroke-width:.999997;stroke-linecap:round;stroke-linejoin:round;stroke-miterlimit:4;stroke-dasharray:none;stroke-opacity:1;visibility:visible"/><path d="m375.116 876.66 51.835 53.574" style="fill:none;stroke:red;stroke-width:1.99999;stroke-linecap:round;stroke-linejoin:round;stroke-miterlimit:4;stroke-dasharray:none;stroke-opacity:1;visibility:visible"/><path d="m374.687 876.262.427-5.935M375.256 870.29l19-7.084M580.69 896.429l.09-1.803M306.079 1009.556l-6.222-8.809M247.117 924.146l-5.204-7.368" style="fill:none;stroke:red;stroke-width:.666665;stroke-linecap:round;stroke-linejoin:round;stroke-miterlimit:4;stroke-dasharray:none;stroke-opacity:1;visibility:visible"/><path d="m305.254 1019.58-6.254-9.14M246.413 933.168l-4.875-7.124" style="fill:none;stroke:red;stroke-width:1.99999;stroke-linecap:round;stroke-linejoin:round;stroke-miterlimit:4;stroke-dasharray:none;stroke-opacity:1;visibility:visible"/><path d="m306.297 1010.06-.467 9.37" style="fill:none;stroke:red;stroke-width:.999997;stroke-linecap:round;stroke-linejoin:round;stroke-miterlimit:4;stroke-dasharray:none;stroke-opacity:1;visibility:visible"/><path d="m299.249 1000.902-.466 9.366" style="fill:none;stroke:red;stroke-width:1.99999;stroke-linecap:round;stroke-linejoin:round;stroke-miterlimit:4;stroke-dasharray:none;stroke-opacity:1;visibility:visible"/><path d="m247.26 924.37.152 8.284" style="fill:none;stroke:red;stroke-width:.999997;stroke-linecap:round;stroke-linejoin:round;stroke-miterlimit:4;stroke-dasharray:none;stroke-opacity:1;visibility:visible"/><path d="m241.265 917.167.153 8.284" style="fill:none;stroke:red;stroke-width:1.99999;stroke-linecap:round;stroke-linejoin:round;stroke-miterlimit:4;stroke-dasharray:none;stroke-opacity:1;visibility:visible"/><path d="m444.608 933.364-5.786-5.958" style="fill:none;stroke:red;stroke-width:.999997;stroke-linecap:round;stroke-linejoin:round;stroke-miterlimit:4;stroke-dasharray:none;stroke-opacity:1;visibility:visible"/><path d="m367.087 857.286 5.088 5.14" style="fill:none;stroke:red;stroke-width:.666665;stroke-linecap:round;stroke-linejoin:round;stroke-miterlimit:4;stroke-dasharray:none;stroke-opacity:1;visibility:visible"/><path d="m370.435 726.374-1.099 39.86M368.394 800.443l-1.556 56.451M395.396 722.526l3.928 2.458" style="fill:none;stroke:red;stroke-width:1.99999;stroke-linecap:round;stroke-linejoin:round;stroke-miterlimit:4;stroke-dasharray:none;stroke-opacity:1;visibility:visible"/><path d="m374.367 767.006 1.025-37.353M371.775 861.537l1.728-63.037" style="fill:none;stroke:red;stroke-width:.999997;stroke-linecap:round;stroke-linejoin:round;stroke-miterlimit:4;stroke-dasharray:none;stroke-opacity:1;visibility:visible"/><path d="m389.839 723.237-8.577 1.267M375.59 725.341l-5.11.753M397.744 761.193l1.796-35.95M393.096 854.343l3.096-62.045" style="fill:none;stroke:red;stroke-width:1.99999;stroke-linecap:round;stroke-linejoin:round;stroke-miterlimit:4;stroke-dasharray:none;stroke-opacity:1;visibility:visible"/><path d="m398.934 725.497-23.81 3.805-4.322-2.61M370.802 726.692l-.664-.462M444.242 932.115l22.56-132.35" style="fill:none;stroke:red;stroke-width:.999997;stroke-linecap:round;stroke-linejoin:round;stroke-miterlimit:4;stroke-dasharray:none;stroke-opacity:1;visibility:visible"/><path d="M387.208 725.889c-.006.299-.677.527-1.5.51-.818-.014-1.478-.27-1.473-.569.005-.302.676-.529 1.497-.514.823.016 1.482.272 1.476.573" style="fill:none;stroke:red;stroke-width:.999997;stroke-linecap:round;stroke-linejoin:round;stroke-miterlimit:4;stroke-dasharray:none;stroke-opacity:1;visibility:visible"/><path d="m479.505 791.148-7.06 1.44M465.939 793.918l-5.396 1.102M486.276 791.726l4.739 3.054M438.494 926.901l21.933-131.215M466.739 923.4 490.987 795" style="fill:none;stroke:red;stroke-width:1.99999;stroke-linecap:round;stroke-linejoin:round;stroke-miterlimit:4;stroke-dasharray:none;stroke-opacity:1;visibility:visible"/><path d="m490.524 794.99-23.768 4.773-6.426-4.429M460.33 795.334l-.17-.117M387.046 735.71a4.385 4.385 0 0 1 2.093.25c2.021.765 3.167 2.893 2.948 5.137l-.437 7.968a5.885 5.885 0 0 1-.028.341" style="fill:none;stroke:red;stroke-width:.999997;stroke-linecap:round;stroke-linejoin:round;stroke-miterlimit:4;stroke-dasharray:none;stroke-opacity:1;visibility:visible"/><path d="M477.821 795.337c-.04.452-.789.756-1.669.68-.882-.08-1.565-.51-1.524-.964.04-.454.787-.758 1.667-.68.884.077 1.565.507 1.525.964h.001" style="fill:none;stroke:red;stroke-width:.999997;stroke-linecap:round;stroke-linejoin:round;stroke-miterlimit:4;stroke-dasharray:none;stroke-opacity:1;visibility:visible"/><path d="M385.594 754.228a4.153 4.153 0 0 1-.651-.191c-2.041-.773-3.19-2.937-2.94-5.204l.433-7.967a5.74 5.74 0 0 1 .364-1.658c.748-1.971 2.436-3.276 4.246-3.496" style="fill:none;stroke:red;stroke-width:1.33333;stroke-linecap:round;stroke-linejoin:round;stroke-miterlimit:4;stroke-dasharray:none;stroke-opacity:1;visibility:visible"/><path d="M383.09 833.314a4.368 4.368 0 0 1 2.093.25c2.021.766 3.167 2.892 2.948 5.137l-.437 7.969a5.836 5.836 0 0 1-.028.34M388.863 746.962a5.915 5.915 0 0 1-.339 1.383c-.942 2.488-3.388 3.915-5.682 3.439M389.115 736.501a5.456 5.456 0 0 1 .213 2.15l-.436 7.971a5.792 5.792 0 0 1-.029.34M391.62 749.408a5.853 5.853 0 0 1-.34 1.382c-.942 2.49-3.392 3.918-5.688 3.436" style="fill:none;stroke:red;stroke-width:.999997;stroke-linecap:round;stroke-linejoin:round;stroke-miterlimit:4;stroke-dasharray:none;stroke-opacity:1;visibility:visible"/><path d="M381.638 851.829a4.303 4.303 0 0 1-.651-.191c-2.041-.773-3.19-2.935-2.94-5.204l.433-7.967a5.76 5.76 0 0 1 .364-1.66c.748-1.967 2.436-3.273 4.246-3.494" style="fill:none;stroke:red;stroke-width:1.33333;stroke-linecap:round;stroke-linejoin:round;stroke-miterlimit:4;stroke-dasharray:none;stroke-opacity:1;visibility:visible"/><path d="M381.746 848.551v1.689M383.116 848.833v1.301M383.842 847.778v-1.613M380.56 847.814v-1.776M383.768 847.843c-.084.354-.77.63-1.604.63-.777 0-1.428-.24-1.578-.56M383.775 845.867c0 .388-.723.703-1.612.703-.888 0-1.61-.315-1.61-.703-.001-.387.721-.702 1.609-.702.891 0 1.613.314 1.613.702M384.907 844.566a5.93 5.93 0 0 1-.339 1.383l-.024.065M380.788 849.363a4.507 4.507 0 0 1-1.902.024M385.159 834.105a5.453 5.453 0 0 1 .213 2.15l-.436 7.967a5.983 5.983 0 0 1-.029.344M387.666 847.011a5.859 5.859 0 0 1-.34 1.382c-.943 2.49-3.392 3.917-5.688 3.436" style="fill:none;stroke:red;stroke-width:.999997;stroke-linecap:round;stroke-linejoin:round;stroke-miterlimit:4;stroke-dasharray:none;stroke-opacity:1;visibility:visible"/><path d="m440.53 908.615-45.842-45.033" style="fill:none;stroke:red;stroke-width:1.99999;stroke-linecap:round;stroke-linejoin:round;stroke-miterlimit:4;stroke-dasharray:none;stroke-opacity:1;visibility:visible"/><path d="m396.89 875.454-8.691-9.521" style="fill:none;stroke:red;stroke-width:.999997;stroke-linecap:round;stroke-linejoin:round;stroke-miterlimit:2;stroke-dasharray:none;stroke-opacity:1;visibility:visible"/><path d="m384.883 867.593 8.44 9.464 3.179-1.483" style="fill:none;stroke:red;stroke-width:1.99999;stroke-linecap:round;stroke-linejoin:round;stroke-miterlimit:2;stroke-dasharray:none;stroke-opacity:1;visibility:visible"/><path d="m389.108 871.923-.494-5.213" style="fill:none;stroke:red;stroke-width:.999997;stroke-linecap:round;stroke-linejoin:round;stroke-miterlimit:2;stroke-dasharray:none;stroke-opacity:1;visibility:visible"/><path d="m435.222 918.851 3-1.666 1.444 2.222" style="fill:none;stroke:red;stroke-width:.999997;stroke-linecap:round;stroke-linejoin:round;stroke-miterlimit:4;stroke-dasharray:none;stroke-opacity:1;visibility:visible"/><path d="m438.666 922.74-2.888-3.554" style="fill:none;stroke:red;stroke-width:1.99999;stroke-linecap:round;stroke-linejoin:round;stroke-miterlimit:2;stroke-dasharray:none;stroke-opacity:1;visibility:visible"/><path d="m466.986 796.643.918-7.473s.058-.164.256-.333c.2-.167.49-.439.49-.439s.22-.292 1.206-.244c.987.046 1.257.407 1.257.407s.435.589.508.673c.072.084.143.183.115.438l-.896 7.333" style="fill:none;stroke:red;stroke-width:.999997;stroke-linecap:round;stroke-linejoin:round;stroke-miterlimit:4;stroke-dasharray:none;stroke-opacity:1;visibility:visible"/><path d="M471.083 795.935a.644.644 0 0 1 .217.46c-.01.575-1.037 1.027-2.295 1.005-1.254-.021-2.265-.507-2.254-1.086a.604.604 0 0 1 .187-.404M467.97 797.122l-.18-6.216M469.556 790.247l.204 7.027M467.882 789.395s.518.775 1.95.825c1.56.054 1.904-.622 1.904-.622" style="fill:none;stroke:red;stroke-width:.666665;stroke-linecap:round;stroke-linejoin:round;stroke-miterlimit:4;stroke-dasharray:none;stroke-opacity:1;visibility:visible"/><path d="m480.563 793.823 1.196-7.433s.061-.16.268-.324c.206-.16.505-.42.505-.42s.23-.284 1.218-.198c.981.08 1.237.452 1.237.452s.413.608.483.693c.069.087.135.187.099.44l-1.169 7.296" style="fill:none;stroke:red;stroke-width:.999997;stroke-linecap:round;stroke-linejoin:round;stroke-miterlimit:4;stroke-dasharray:none;stroke-opacity:1;visibility:visible"/><path d="M484.684 793.27a.641.641 0 0 1 .2.467c-.032.576-1.074.99-2.33.92-1.254-.068-2.246-.592-2.214-1.17a.603.603 0 0 1 .203-.397M481.528 794.34l.05-6.22M483.368 787.529l-.058 7.028M481.727 786.616s.49.792 1.918.896c1.556.113 1.926-.55 1.926-.55" style="fill:none;stroke:red;stroke-width:.666665;stroke-linecap:round;stroke-linejoin:round;stroke-miterlimit:4;stroke-dasharray:none;stroke-opacity:1;visibility:visible"/><path d="m393.962 725.273-.078-6.072s-.032-.135-.174-.29c-.147-.151-.355-.393-.355-.393s-.15-.256-.945-.302c-.794-.05-1.042.216-1.042.216s-.401.434-.466.496c-.066.058-.132.13-.132.338l.073 5.958" style="fill:none;stroke:red;stroke-width:.999997;stroke-linecap:round;stroke-linejoin:round;stroke-miterlimit:4;stroke-dasharray:none;stroke-opacity:1;visibility:visible"/><path d="M390.742 724.348a.524.524 0 0 0-.216.348c-.042.464.741.917 1.75 1.008 1.007.094 1.859-.207 1.902-.672a.487.487 0 0 0-.114-.342M393.13 725.572l.693-4.97M392.466 719.921l-.783 5.613M393.883 719.388s-.483.572-1.635.488c-1.254-.092-1.47-.666-1.47-.666" style="fill:none;stroke:red;stroke-width:.666665;stroke-linecap:round;stroke-linejoin:round;stroke-miterlimit:4;stroke-dasharray:none;stroke-opacity:1;visibility:visible"/><path d="m380.06 727.328-.079-6.072s-.031-.136-.174-.29c-.147-.152-.355-.394-.355-.394s-.15-.255-.945-.302c-.793-.049-1.041.216-1.041.216s-.402.435-.467.496c-.065.059-.129.131-.129.339l.07 5.957" style="fill:none;stroke:red;stroke-width:.999997;stroke-linecap:round;stroke-linejoin:round;stroke-miterlimit:4;stroke-dasharray:none;stroke-opacity:1;visibility:visible"/><path d="M376.84 726.401a.524.524 0 0 0-.218.348c-.04.465.742.917 1.751 1.008 1.007.095 1.861-.207 1.903-.672a.487.487 0 0 0-.114-.341M379.227 727.626l.693-4.969M378.564 721.974l-.782 5.614M379.98 721.441s-.482.573-1.634.488c-1.256-.092-1.471-.665-1.471-.665" style="fill:none;stroke:red;stroke-width:.666665;stroke-linecap:round;stroke-linejoin:round;stroke-miterlimit:4;stroke-dasharray:none;stroke-opacity:1;visibility:visible"/><path d="M421.534 920.103c.082.902-.314 1.672-.884 1.727-.572.052-1.1-.63-1.18-1.53-.08-.9.313-1.67.886-1.724.57-.056 1.099.626 1.178 1.527M391.746 889.407c.081.903-.316 1.673-.886 1.727-.57.052-1.1-.63-1.18-1.53-.082-.899.315-1.669.887-1.724.57-.057 1.096.626 1.179 1.527" style="fill:none;stroke:red;stroke-width:.999997;stroke-linecap:round;stroke-linejoin:round;stroke-miterlimit:4;stroke-dasharray:none;stroke-opacity:1;visibility:visible"/><path d="m380.788 849.363 14.152-1.686M504.46 837.22l-18.947-3.638" style="fill:none;stroke:red;stroke-width:1.99999;stroke-linecap:round;stroke-linejoin:round;stroke-miterlimit:4;stroke-dasharray:none;stroke-opacity:1;visibility:visible"/><path d="m444.462 857.406 5.972-12.911M485.513 833.582l18.947 3.638M500.483 832.183l-16.228 7.593" style="fill:none;stroke:red;stroke-width:.999997;stroke-linecap:round;stroke-linejoin:round;stroke-miterlimit:4;stroke-dasharray:none;stroke-opacity:1;visibility:visible"/><path d="m375.256 870.29-.269 7.44M394.256 863.206l6.895 5.627M450.434 844.495l-5.972 12.911M435.222 918.851l3.535 6.047" style="fill:none;stroke:red;stroke-width:1.99999;stroke-linecap:round;stroke-linejoin:round;stroke-miterlimit:4;stroke-dasharray:none;stroke-opacity:1;visibility:visible"/><path d="m587.277 898.061-7.409-2.879" style="fill:none;stroke:red;stroke-width:.999997;stroke-linecap:round;stroke-linejoin:round;stroke-miterlimit:4;stroke-dasharray:none;stroke-opacity:1;visibility:visible"/><path d="m565.52 885.775-12.848-1.64M512.47 845.36l-.574 4.646M475.425 910.911l-1.591-16.017" style="fill:none;stroke:red;stroke-width:1.99999;stroke-linecap:round;stroke-linejoin:round;stroke-miterlimit:4;stroke-dasharray:none;stroke-opacity:1;visibility:visible"/><path d="m475.425 910.911-3.066-8.3M471.035 908.271l11.93.282" style="fill:none;stroke:red;stroke-width:.999997;stroke-linecap:round;stroke-linejoin:round;stroke-miterlimit:4;stroke-dasharray:none;stroke-opacity:1;visibility:visible"/><path d="m482.965 908.553-11.93-.282M472.359 902.611l3.066 8.3M484.528 878.85l-6.095-7.203M440.268 861.593l8.01-1.823" style="fill:none;stroke:red;stroke-width:1.99999;stroke-linecap:round;stroke-linejoin:round;stroke-miterlimit:4;stroke-dasharray:none;stroke-opacity:1;visibility:visible"/><path d="m494.226 881.35-16.69-4.593M487.269 879.605l-2.741-.755M448.278 859.77l-8.01 1.823M484.528 878.85l2.741.755M503.265 883.275l-9.039-1.925M494.226 881.35l9.039 1.925M564.786 885.486l-.826 4.844" style="fill:none;stroke:red;stroke-width:.999997;stroke-linecap:round;stroke-linejoin:round;stroke-miterlimit:4;stroke-dasharray:none;stroke-opacity:1;visibility:visible"/><path d="m484.528 878.85-7.448.732" style="fill:none;stroke:red;stroke-width:1.99999;stroke-linecap:round;stroke-linejoin:round;stroke-miterlimit:4;stroke-dasharray:none;stroke-opacity:1;visibility:visible"/><path d="m438.822 927.406-7.058.841M573.352 889.83l-1.54-.185" style="fill:none;stroke:red;stroke-width:.999997;stroke-linecap:round;stroke-linejoin:round;stroke-miterlimit:4;stroke-dasharray:none;stroke-opacity:1;visibility:visible"/><path d="m438.822 927.406-11.871 2.828M376.875 721.264l18.521 1.262" style="fill:none;stroke:red;stroke-width:1.99999;stroke-linecap:round;stroke-linejoin:round;stroke-miterlimit:4;stroke-dasharray:none;stroke-opacity:1;visibility:visible"/><path d="m376.94 727.278-1.548 2.375" style="fill:none;stroke:red;stroke-width:.999997;stroke-linecap:round;stroke-linejoin:round;stroke-miterlimit:4;stroke-dasharray:none;stroke-opacity:1;visibility:visible"/><path d="m387.046 735.71 2.793-12.473M375.59 725.341l5.672-.837M381.262 724.504l-5.672.837M391.62 749.408l6.124 11.785M387.666 847.011l5.43 7.332" style="fill:none;stroke:red;stroke-width:1.99999;stroke-linecap:round;stroke-linejoin:round;stroke-miterlimit:4;stroke-dasharray:none;stroke-opacity:1;visibility:visible"/><path d="m466.986 796.643-.184 3.122M390.843 725.224l-3.635.665M399.54 725.243l-12.332.646" style="fill:none;stroke:red;stroke-width:.999997;stroke-linecap:round;stroke-linejoin:round;stroke-miterlimit:4;stroke-dasharray:none;stroke-opacity:1;visibility:visible"/><path d="m460.543 795.02 18.962-3.872M465.939 793.918l6.506-1.33M472.445 792.588l-6.506 1.33" style="fill:none;stroke:red;stroke-width:1.99999;stroke-linecap:round;stroke-linejoin:round;stroke-miterlimit:4;stroke-dasharray:none;stroke-opacity:1;visibility:visible"/><path d="m480.563 793.823-2.742 1.514M385.594 754.228l-2.752-2.444M380.56 847.814l1.186.737M383.116 848.833l-1.37 1.407M383.842 847.778l-.726 1.055M381.746 848.551l1.37 1.583M383.775 845.867l-3.215.171M394.94 847.677l-14.152 1.686M381.638 851.829l-2.752-2.442" style="fill:none;stroke:red;stroke-width:.999997;stroke-linecap:round;stroke-linejoin:round;stroke-miterlimit:4;stroke-dasharray:none;stroke-opacity:1;visibility:visible"/><path d="m438.822 927.406 1.708-18.791" style="fill:none;stroke:red;stroke-width:1.99999;stroke-linecap:round;stroke-linejoin:round;stroke-miterlimit:4;stroke-dasharray:none;stroke-opacity:1;visibility:visible"/><path d="m372.175 862.426 12.708 5.167" style="fill:none;stroke:red;stroke-width:1.99999;stroke-linecap:round;stroke-linejoin:round;stroke-miterlimit:2;stroke-dasharray:none;stroke-opacity:1;visibility:visible"/><path d="m391.746 889.407-2.638-17.484" style="fill:none;stroke:red;stroke-width:.999997;stroke-linecap:round;stroke-linejoin:round;stroke-miterlimit:2;stroke-dasharray:none;stroke-opacity:1;visibility:visible"/><path d="m466.802 799.765 4.038-2.76" style="fill:none;stroke:red;stroke-width:.999997;stroke-linecap:round;stroke-linejoin:round;stroke-miterlimit:4;stroke-dasharray:none;stroke-opacity:1;visibility:visible"/><path d="m467.882 789.395 3.201 6.54M469.556 790.247l-1.586 6.875M469.76 797.274l-1.97-6.368M467.97 797.122l1.586-6.875M467.79 790.906l1.97 6.368" style="fill:none;stroke:red;stroke-width:.666665;stroke-linecap:round;stroke-linejoin:round;stroke-miterlimit:4;stroke-dasharray:none;stroke-opacity:1;visibility:visible"/><path d="m490.987 795-6.587-.671" style="fill:none;stroke:red;stroke-width:.999997;stroke-linecap:round;stroke-linejoin:round;stroke-miterlimit:4;stroke-dasharray:none;stroke-opacity:1;visibility:visible"/><path d="m467.882 789.395 16.802 3.875M477.821 795.337l3.707-.997M483.31 794.557l-1.732-6.437M481.528 794.34l1.84-6.811M477.821 795.337l5.489-.78M391.683 725.534l2.14-4.932M393.13 725.572l-.664-5.651M377.782 727.588l2.138-4.931M379.227 727.626l-.663-5.652" style="fill:none;stroke:red;stroke-width:.666665;stroke-linecap:round;stroke-linejoin:round;stroke-miterlimit:4;stroke-dasharray:none;stroke-opacity:1;visibility:visible"/><path d="m389.108 871.923 2.638 17.484" style="fill:none;stroke:red;stroke-width:.999997;stroke-linecap:round;stroke-linejoin:round;stroke-miterlimit:4;stroke-dasharray:none;stroke-opacity:1;visibility:visible"/><path d="m211.193 718.494-3.75-3.208M299.6 799.711l-6.32-5.576" style="fill:none;stroke:#00ff4a;stroke-width:.999997;stroke-linecap:round;stroke-linejoin:round;stroke-miterlimit:2;stroke-dasharray:none;stroke-opacity:1;visibility:visible" visibility="hidden"/><path d="m212.191 730.413 6.503-1.07 139.893-24.313 17.281-3.69M206.929 714.632l6.048-1.336 170.353-37.68M393.37 681.481l-9.706-5.77M501.25 745.124l-14.326-8.43" style="fill:none;stroke:#00ff4a;stroke-width:1.99999;stroke-linecap:round;stroke-linejoin:round;stroke-miterlimit:4;stroke-dasharray:none;stroke-opacity:1;visibility:visible" visibility="hidden"/><path d="m212.43 718.738 5.024-.973 174.893-36.003" style="fill:none;stroke:#00ff4a;stroke-width:.999997;stroke-linecap:round;stroke-linejoin:round;stroke-miterlimit:2;stroke-dasharray:none;stroke-opacity:1;visibility:visible" visibility="hidden"/><path d="m299.143 813.071 167.395-40.64 33.494-9.432M292.423 793.47l194.447-56.734" style="fill:none;stroke:#00ff4a;stroke-width:1.99999;stroke-linecap:round;stroke-linejoin:round;stroke-miterlimit:4;stroke-dasharray:none;stroke-opacity:1;visibility:visible" visibility="hidden"/><path d="m299.6 799.711 189.212-50.898 9.501-2.623" style="fill:none;stroke:#00ff4a;stroke-width:.999997;stroke-linecap:round;stroke-linejoin:round;stroke-miterlimit:4;stroke-dasharray:none;stroke-opacity:1;visibility:visible" visibility="hidden"/><path d="m292.095 805.697.266-12.09M500.116 763.004l1.112-17.547M298.925 813.03l-6.856-6.919" style="fill:none;stroke:#00ff4a;stroke-width:1.99999;stroke-linecap:round;stroke-linejoin:round;stroke-miterlimit:4;stroke-dasharray:none;stroke-opacity:1;visibility:visible" visibility="hidden"/><path d="m299.102 811.954.644-11.899M212.175 728.492l.062-9.35" style="fill:none;stroke:#00ff4a;stroke-width:.999997;stroke-linecap:round;stroke-linejoin:round;stroke-miterlimit:2;stroke-dasharray:none;stroke-opacity:1;visibility:visible" visibility="hidden"/><path d="m393.412 683.268.046-1.415M206.523 724.126l.063-9.349M211.88 730.058l-5.29-5.305" style="fill:none;stroke:#00ff4a;stroke-width:1.99999;stroke-linecap:round;stroke-linejoin:round;stroke-miterlimit:4;stroke-dasharray:none;stroke-opacity:1;visibility:visible" visibility="hidden"/><path d="m457.242 744.785-88.782-56.076" style="fill:none;stroke:#00ff4a;stroke-width:.999997;stroke-linecap:round;stroke-linejoin:round;stroke-miterlimit:2;stroke-dasharray:none;stroke-opacity:1;visibility:visible" visibility="hidden"/><path d="m447.788 747.249-79.726-51.473" style="fill:none;stroke:#00ff4a;stroke-width:1.99999;stroke-linecap:round;stroke-linejoin:round;stroke-miterlimit:4;stroke-dasharray:none;stroke-opacity:1;visibility:visible" visibility="hidden"/><path d="m368.264 688.901-.444 7.032" style="fill:none;stroke:#00ff4a;stroke-width:.666665;stroke-linecap:round;stroke-linejoin:round;stroke-miterlimit:2;stroke-dasharray:none;stroke-opacity:1;visibility:visible" visibility="hidden"/><path d="m368.38 688.69 24.53-5.075" style="fill:none;stroke:#00ff4a;stroke-width:.999997;stroke-linecap:round;stroke-linejoin:round;stroke-miterlimit:2;stroke-dasharray:none;stroke-opacity:1;visibility:visible" visibility="hidden"/><path d="m483.077 736.993-19.313-11.467M445.843 714.888l-52.763-31.33" style="fill:none;stroke:#00ff4a;stroke-width:1.99999;stroke-linecap:round;stroke-linejoin:round;stroke-miterlimit:4;stroke-dasharray:none;stroke-opacity:1;visibility:visible" visibility="hidden"/><path d="M381.958 707.444a.725.725 0 0 1 .32.322M382.216 707.732c-.018.384-.744.678-1.626.66-.888-.022-1.603-.35-1.595-.738M382.199 709.81c-.021.388-.759.663-1.645.615-.888-.048-1.595-.401-1.572-.79v-.006M381.416 707.273l.074-3.141M379.858 706.982v-3.689M379.02 707.725l-.089 1.612M382.298 707.868l-.096 1.772" style="fill:none;stroke:#00ff4a;stroke-width:.999997;stroke-linecap:round;stroke-linejoin:round;stroke-miterlimit:4;stroke-dasharray:none;stroke-opacity:1;visibility:visible" visibility="hidden"/><path d="M379.096 707.664a.45.45 0 0 1 .132-.195M434.04 733.934c.083.902-.313 1.672-.884 1.727-.572.052-1.1-.63-1.18-1.53-.08-.899.314-1.669.887-1.724.57-.057 1.099.626 1.177 1.527M393.343 707.556c.081.901-.316 1.672-.885 1.726-.571.052-1.1-.63-1.18-1.529-.083-.9.314-1.67.886-1.725.57-.056 1.096.626 1.179 1.528" style="fill:none;stroke:#00ff4a;stroke-width:.999997;stroke-linecap:round;stroke-linejoin:round;stroke-miterlimit:4;stroke-dasharray:none;stroke-opacity:1;visibility:visible" visibility="hidden"/><path d="m206.59 724.753 4.603-6.259M298.925 813.03l-5.645-18.895" style="fill:none;stroke:#00ff4a;stroke-width:.999997;stroke-linecap:round;stroke-linejoin:round;stroke-miterlimit:2;stroke-dasharray:none;stroke-opacity:1;visibility:visible" visibility="hidden"/><path d="m368.38 688.69 7.488 12.65" style="fill:none;stroke:#00ff4a;stroke-width:1.99999;stroke-linecap:round;stroke-linejoin:round;stroke-miterlimit:4;stroke-dasharray:none;stroke-opacity:1;visibility:visible" visibility="hidden"/><path d="m292.361 793.607 6.741 18.347M206.586 714.777l5.589 13.715" style="fill:none;stroke:#00ff4a;stroke-width:.999997;stroke-linecap:round;stroke-linejoin:round;stroke-miterlimit:2;stroke-dasharray:none;stroke-opacity:1;visibility:visible" visibility="hidden"/><path d="m486.924 736.694-3.847.299" style="fill:none;stroke:#00ff4a;stroke-width:1.99999;stroke-linecap:round;stroke-linejoin:round;stroke-miterlimit:4;stroke-dasharray:none;stroke-opacity:1;visibility:visible" visibility="hidden"/><path d="m379.858 706.982 1.632-2.85M381.416 707.273l-1.558-3.98" style="fill:none;stroke:#00ff4a;stroke-width:.999997;stroke-linecap:round;stroke-linejoin:round;stroke-miterlimit:4;stroke-dasharray:none;stroke-opacity:1;visibility:visible" visibility="hidden"/><path d="m440.268 861.593-17.808.929M440.268 861.593l8.485-5.137" style="fill:none;stroke:red;stroke-width:1.99999;stroke-linecap:round;stroke-linejoin:round;stroke-miterlimit:4;stroke-dasharray:none;stroke-opacity:1;visibility:visible"/><path d="m512.47 845.36-7.094-3.08" style="fill:none;stroke:red;stroke-width:.999997;stroke-linecap:round;stroke-linejoin:round;stroke-miterlimit:4;stroke-dasharray:none;stroke-opacity:1;visibility:visible"/><path d="m552.672 884.135 2.553 8.528" style="fill:none;stroke:red;stroke-width:1.99999;stroke-linecap:round;stroke-linejoin:round;stroke-miterlimit:4;stroke-dasharray:none;stroke-opacity:1;visibility:visible"/><path d="m435.222 918.851 4.444.556" style="fill:none;stroke:red;stroke-width:.999997;stroke-linecap:round;stroke-linejoin:round;stroke-miterlimit:4;stroke-dasharray:none;stroke-opacity:1;visibility:visible"/><path d="m381.416 707.273 9.362 11.937" style="fill:none;stroke:red;stroke-width:.666665;stroke-linecap:round;stroke-linejoin:round;stroke-miterlimit:4;stroke-dasharray:none;stroke-opacity:1;visibility:visible"/><path d="m390.778 719.21 2.565-11.654M392.466 719.921l.877-12.365" style="fill:none;stroke:#00ff4a;stroke-width:.999997;stroke-linecap:round;stroke-linejoin:round;stroke-miterlimit:4;stroke-dasharray:none;stroke-opacity:1;visibility:visible" visibility="hidden"/></svg>