<svg xmlns="http://www.w3.org/2000/svg" baseProfile="full" height="1122.52" preserveAspectRatio="xMinYMin meet" style="width:792px;height:931px" width="793.701" xml:space="preserve"><path d="m550.441 815.058 8.01-5.047M472.515 861.647l74.65-46.604M463.06 868.918l8.433-5.267M391.651 626.093l6.925-1.466M297.997 645.95l8.13-1.746" style="fill:none;stroke:red;stroke-width:1.33333;stroke-linecap:round;stroke-linejoin:round;stroke-miterlimit:4;stroke-dasharray:none;stroke-opacity:1;visibility:visible" visibility="hidden"/><path d="m472.145 834.087 73.83-42.867" style="fill:none;stroke:red;stroke-width:.866664;stroke-linecap:round;stroke-linejoin:round;stroke-miterlimit:4;stroke-dasharray:none;stroke-opacity:1;visibility:visible" visibility="hidden"/><path d="m472.108 826.567 66.292-37.589M346.554 790.495l61.626-25.98" style="fill:none;stroke:red;stroke-width:1.33333;stroke-linecap:round;stroke-linejoin:round;stroke-miterlimit:4;stroke-dasharray:none;stroke-opacity:1;visibility:visible" visibility="hidden"/><path d="m415.906 781 .788 7.289M414.408 767.117l1.058 9.799M347.228 796.32l66.17-28.402" style="fill:none;stroke:red;stroke-width:.866664;stroke-linecap:round;stroke-linejoin:round;stroke-miterlimit:4;stroke-dasharray:none;stroke-opacity:1;visibility:visible" visibility="hidden"/><path d="M297.945 646.465s6.55 35.143 12.453 73.087c3.232 20.79 7.325 45.092 9.86 64.24 2.657 20.058 3.692 34.69 4.385 43.812 6.104 80.459-.89 157.916-.89 157.916s.322 1.06.916 1.516a8.86 8.86 0 0 0 1.01.616" style="fill:none;stroke:red;stroke-width:1.33333;stroke-linecap:round;stroke-linejoin:round;stroke-miterlimit:4;stroke-dasharray:none;stroke-opacity:1;visibility:visible" visibility="hidden"/><path d="M336.75 938.098a1291.207 1291.207 0 0 1-1.103 14.41 583.817 583.817 0 0 1-1.207 12.784M338.326 912.197c-.107 2.046-.214 4.053-.322 6.016M306.905 647.761c3.513 16.243 10.565 48.844 17.593 81.365 4.892 22.654 9.702 47.464 12.712 73.75.49 4.299 1.364 19.654 1.572 22.961 1.605 25.173 1.068 51.34.141 73.397" style="fill:none;stroke:red;stroke-width:.866664;stroke-linecap:round;stroke-linejoin:round;stroke-miterlimit:4;stroke-dasharray:none;stroke-opacity:1;visibility:visible" visibility="hidden"/><path d="M343.11 938.86a742.72 742.72 0 0 1-1.744 12.885 1424.476 1424.476 0 0 1-1.256 8.383M347.108 899.569s.155-2.639.64-8.402c.155-1.83.232-3.681.338-5.541.93-16.47 1.034-34.426.904-48.301.001 0-.06-3.34-.179-7.785M315.974 645.378c.919 3.875 14.697 62.135 23.762 108.989 3.42 17.679 5.8 34.418 7.18 45.323M391.628 626.528c3.21 23.432 10.214 75.956 14.072 115.148a2416.09 2416.09 0 0 0 2.269 22.002M399.368 624.575l7.928.88c3.842 18.909 14.028 70.103 19.475 105.545a1640.043 1640.043 0 0 1 4.439 30.869M453.346 661.782s-5.634 67.11-8.704 123.85c-2.16 39.88-2.135 76.098-2.135 76.098" style="fill:none;stroke:red;stroke-width:1.33333;stroke-linecap:round;stroke-linejoin:round;stroke-miterlimit:4;stroke-dasharray:none;stroke-opacity:1;visibility:visible" visibility="hidden"/><path d="M464.07 664.19s-1.274 49.261-1.691 98.253c-.44 52.019-.019 103.943-.019 103.943" style="fill:none;stroke:red;stroke-width:.866664;stroke-linecap:round;stroke-linejoin:round;stroke-miterlimit:4;stroke-dasharray:none;stroke-opacity:1;visibility:visible" visibility="hidden"/><path d="M472.584 661.489a5185.427 5185.427 0 0 0-.834 50.455c-.593 52.649-.377 133.051-.317 151.295M546.597 635.113s-6.262 41.344-10.129 84.01c-2.51 27.723-4.085 55.991-4.91 73.195" style="fill:none;stroke:red;stroke-width:1.33333;stroke-linecap:round;stroke-linejoin:round;stroke-miterlimit:4;stroke-dasharray:none;stroke-opacity:1;visibility:visible" visibility="hidden"/><path d="M556.808 636.877s-3.498 54.007-5.112 101.645c-1.184 34.876-1.107 65.852-1.041 75.698" style="fill:none;stroke:red;stroke-width:.866664;stroke-linecap:round;stroke-linejoin:round;stroke-miterlimit:4;stroke-dasharray:none;stroke-opacity:1;visibility:visible" visibility="hidden"/><path d="M563.808 634.82c-.744 11.115-2.265 35.082-3.343 59.448-1.605 36.326-1.93 89.218-1.958 115.202" style="fill:none;stroke:red;stroke-width:1.33333;stroke-linecap:round;stroke-linejoin:round;stroke-miterlimit:4;stroke-dasharray:none;stroke-opacity:1;visibility:visible" visibility="hidden"/><path d="m408.86 764.728 5.595 2.098" style="fill:none;stroke:red;stroke-width:.866664;stroke-linecap:round;stroke-linejoin:round;stroke-miterlimit:4;stroke-dasharray:none;stroke-opacity:1;visibility:visible" visibility="hidden"/><path d="m547.577 814.646 2.864.412" style="fill:none;stroke:red;stroke-width:1.33333;stroke-linecap:round;stroke-linejoin:round;stroke-miterlimit:4;stroke-dasharray:none;stroke-opacity:1;visibility:visible" visibility="hidden"/><path d="m473.55 774.216 56.267 10.84M427.642 765.366l15.833 3.05" style="fill:none;stroke:red;stroke-width:.866664;stroke-linecap:round;stroke-linejoin:round;stroke-miterlimit:4;stroke-dasharray:none;stroke-opacity:1;visibility:visible" visibility="hidden"/><path d="m471.863 769.94 59.654 11.17M431.31 762.348l13.886 2.596M472.09 797.035l37.881 7.656M427.302 787.982l16.366 3.308" style="fill:none;stroke:red;stroke-width:1.33333;stroke-linecap:round;stroke-linejoin:round;stroke-miterlimit:4;stroke-dasharray:none;stroke-opacity:1;visibility:visible" visibility="hidden"/><path d="m342.474 803.589 99.586 29.698" style="fill:none;stroke:red;stroke-width:.866664;stroke-linecap:round;stroke-linejoin:round;stroke-miterlimit:4;stroke-dasharray:none;stroke-opacity:1;visibility:visible" visibility="hidden"/><path d="m345.622 799.702 95.294 27.472M341.896 826.358l99.89 33.468" style="fill:none;stroke:red;stroke-width:1.33333;stroke-linecap:round;stroke-linejoin:round;stroke-miterlimit:4;stroke-dasharray:none;stroke-opacity:1;visibility:visible" visibility="hidden"/><path d="m431.721 762.35-5.217 2.259.55 23.298M340.352 801.546c1.526-.652 3.292-1.384 4.98-2.119M547.41 790.257l-.138 24.405M538.413 788.569l8.67 1.561" style="fill:none;stroke:red;stroke-width:.866664;stroke-linecap:round;stroke-linejoin:round;stroke-miterlimit:4;stroke-dasharray:none;stroke-opacity:1;visibility:visible" visibility="hidden"/><path d="m442.412 862.215 20.254 6.692" style="fill:none;stroke:red;stroke-width:1.33333;stroke-linecap:round;stroke-linejoin:round;stroke-miterlimit:4;stroke-dasharray:none;stroke-opacity:1;visibility:visible" visibility="hidden"/><path d="m340.176 801.653 1.607 24.39M334.752 972.035c2.532-3.435 11.856-15.63 24.303-26.459" style="fill:none;stroke:red;stroke-width:.866664;stroke-linecap:round;stroke-linejoin:round;stroke-miterlimit:4;stroke-dasharray:none;stroke-opacity:1;visibility:visible" visibility="hidden"/><path d="M352.42 943.087c.342-.31.687-.612 1.038-.921M328.755 969.323s1.002-1.423 2.825-3.767M328.313 970.376c0-.324.097-.63.287-.906" style="fill:none;stroke:red;stroke-width:1.33333;stroke-linecap:round;stroke-linejoin:round;stroke-miterlimit:4;stroke-dasharray:none;stroke-opacity:1;visibility:visible" visibility="hidden"/><path d="M334.6 972.18c-.64.511-1.622.834-2.72.828-1.919-.013-3.46-1.012-3.455-2.237" style="fill:none;stroke:red;stroke-width:.866664;stroke-linecap:round;stroke-linejoin:round;stroke-miterlimit:4;stroke-dasharray:none;stroke-opacity:1;visibility:visible" visibility="hidden"/><path d="M331.263 1002.003c-.666.532-1.703.876-2.862.868-2.014-.012-3.641-1.063-3.634-2.352l3.546-30.143" style="fill:none;stroke:red;stroke-width:1.33333;stroke-linecap:round;stroke-linejoin:round;stroke-miterlimit:4;stroke-dasharray:none;stroke-opacity:1;visibility:visible" visibility="hidden"/><path d="m339.771 960.858-5.286 6.37-2.35-1.308" style="fill:none;stroke:red;stroke-width:.866664;stroke-linecap:round;stroke-linejoin:round;stroke-miterlimit:4;stroke-dasharray:none;stroke-opacity:1;visibility:visible" visibility="hidden"/><path d="M349.568 858.733c3.97 4.552 11.388 12.865 19.462 20.926M349.226 873.326a409.343 409.343 0 0 0 10.89 11.112M344.499 939.246a428.172 428.172 0 0 0-1.775 5.44M392.427 847.162c-5.4 7.252-14.427 19.74-21.025 30.748" style="fill:none;stroke:red;stroke-width:1.33333;stroke-linecap:round;stroke-linejoin:round;stroke-miterlimit:4;stroke-dasharray:none;stroke-opacity:1;visibility:visible" visibility="hidden"/><path d="M347.495 942.263a467.385 467.385 0 0 0-3.668 11.777M395.804 848.578c-4.442 5.985-11.826 16.192-18.18 26.228" style="fill:none;stroke:red;stroke-width:.866664;stroke-linecap:round;stroke-linejoin:round;stroke-miterlimit:4;stroke-dasharray:none;stroke-opacity:1;visibility:visible" visibility="hidden"/><path d="M352.268 941.807c-1.428 4.283-2.234 6.925-2.234 6.925M400.286 850.506c-2.992 3.932-8.716 11.584-14.191 19.597M383.89 952.672a129.002 129.002 0 0 0-12.347 7.536c-23.072 15.999-40.03 41.632-40.03 41.632" style="fill:none;stroke:red;stroke-width:1.33333;stroke-linecap:round;stroke-linejoin:round;stroke-miterlimit:4;stroke-dasharray:none;stroke-opacity:1;visibility:visible" visibility="hidden"/><path d="m400.322 627.279 6.041-1.336M306.87 647.51l8.827-1.91" style="fill:none;stroke:red;stroke-width:.866664;stroke-linecap:round;stroke-linejoin:round;stroke-miterlimit:4;stroke-dasharray:none;stroke-opacity:1;visibility:visible" visibility="hidden"/><path d="m546.718 634.405 6.61-1.91M453.286 661.377l8.102-2.336" style="fill:none;stroke:red;stroke-width:1.33333;stroke-linecap:round;stroke-linejoin:round;stroke-miterlimit:4;stroke-dasharray:none;stroke-opacity:1;visibility:visible" visibility="hidden"/><path d="m556.804 636.706 6.225-1.856M464.355 664.148l8.154-2.432" style="fill:none;stroke:red;stroke-width:.866664;stroke-linecap:round;stroke-linejoin:round;stroke-miterlimit:4;stroke-dasharray:none;stroke-opacity:1;visibility:visible" visibility="hidden"/><path d="m563.785 634.416-10.258-1.992M472.548 661.334l-11.186-2.274" style="fill:none;stroke:red;stroke-width:1.33333;stroke-linecap:round;stroke-linejoin:round;stroke-miterlimit:4;stroke-dasharray:none;stroke-opacity:1;visibility:visible" visibility="hidden"/><path d="m556.545 636.643-7.745-1.506M464.004 664.241l-8.972-1.823" style="fill:none;stroke:red;stroke-width:.866664;stroke-linecap:round;stroke-linejoin:round;stroke-miterlimit:4;stroke-dasharray:none;stroke-opacity:1;visibility:visible" visibility="hidden"/><path d="m305.934 644.208 9.87.779" style="fill:none;stroke:red;stroke-width:1.33333;stroke-linecap:round;stroke-linejoin:round;stroke-miterlimit:4;stroke-dasharray:none;stroke-opacity:1;visibility:visible" visibility="hidden"/><path d="M421.963 818.147c.37-9.109.49-18.633-.045-28.66-1.471-27.864-7.299-58.147-11.148-85.034-6.22-43.483-10.85-77.029-10.85-77.029l-7.576-.62M416.931 788.68l4.67 1.428M300.98 647.05l5.803.457M350.166 949.011l-6.903 7.163s-.647.568-1.135.62a2.933 2.933 0 0 1-.242.025" style="fill:none;stroke:red;stroke-width:.866664;stroke-linecap:round;stroke-linejoin:round;stroke-miterlimit:4;stroke-dasharray:none;stroke-opacity:1;visibility:visible" visibility="hidden"/><path d="M410.183 851.76a1296.015 1296.015 0 0 1-.15 4.58M411.076 792.69c.088 4.815.324 18.061.232 22.663M432.668 790.058c-.01 4.693-.133 9.972-.414 15.797a529.348 529.348 0 0 1-.955 14.748" style="fill:none;stroke:red;stroke-width:1.33333;stroke-linecap:round;stroke-linejoin:round;stroke-miterlimit:4;stroke-dasharray:none;stroke-opacity:1;visibility:visible" visibility="hidden"/><path d="m415.827 788.734-39.739 19.156" style="fill:none;stroke:red;stroke-width:.866664;stroke-linecap:round;stroke-linejoin:round;stroke-miterlimit:4;stroke-dasharray:none;stroke-opacity:1;visibility:visible" visibility="hidden"/><path d="m520.652 796.755-2.439-.509M520.416 793.44l-1.503-.296M518.03 796.12a.303.303 0 0 0 .184.127M518.913 793.142a.296.296 0 0 0-.221.033M518.692 793.175a1.261 1.261 0 0 0-.388.405M518.304 793.58a3.21 3.21 0 0 0-.39.968 3.227 3.227 0 0 0-.066 1.042M517.85 795.59a1.26 1.26 0 0 0 .18.53" style="fill:none;stroke:red;stroke-width:.866664;stroke-linecap:round;stroke-linejoin:round;stroke-miterlimit:2;stroke-dasharray:none;stroke-opacity:1;visibility:visible" visibility="hidden"/><path d="M523.17 796.42c.092-1.02-.127-2.153-.694-3.214-.708-1.328-1.816-2.268-2.996-2.671l-6.693-1.584c-.797-.159-1.599-.069-2.31.311-1.94 1.039-2.462 3.843-1.166 6.268.648 1.213 1.626 2.101 2.686 2.556l6.823 1.772" style="fill:none;stroke:red;stroke-width:.666665;stroke-linecap:round;stroke-linejoin:round;stroke-miterlimit:4;stroke-dasharray:none;stroke-opacity:1;visibility:visible" visibility="hidden"/><path d="M519.432 798.883s2.261-.057 2.225-3.253c-.034-3.196-2.13-3.314-2.13-3.314v-1.54" style="fill:none;stroke:red;stroke-width:.666665;stroke-linecap:round;stroke-linejoin:round;stroke-miterlimit:4;stroke-dasharray:none;stroke-opacity:1;visibility:visible" visibility="hidden"/><path d="m434.766 781.446 2.518-1.41M440.33 775.176l-.008-.86" style="fill:none;stroke:red;stroke-width:.866664;stroke-linecap:round;stroke-linejoin:round;stroke-miterlimit:2;stroke-dasharray:none;stroke-opacity:1;visibility:visible" visibility="hidden"/><path d="M444.65 775.938a5.333 5.333 0 0 0-1.791-1.286l-7.043-1.712c-.784-.147-1.572-.055-2.273.32-1.407.754-2.068 2.437-1.83 4.226M432.202 779.176c.053.117.112.234.174.349a5.947 5.947 0 0 0 .33.553" style="fill:none;stroke:red;stroke-width:.666665;stroke-linecap:round;stroke-linejoin:round;stroke-miterlimit:4;stroke-dasharray:none;stroke-opacity:1;visibility:visible" visibility="hidden"/><path d="M443.81 783.806a3.561 3.561 0 0 1-1.826.054l-6.668-1.584c-1.154-.416-2.238-1.346-2.936-2.654a4.219 4.219 0 0 1-.146-.29c-.276-.74-.547-2.01-.547-2.01l-.01-.13" style="fill:none;stroke:red;stroke-width:.666665;stroke-linecap:round;stroke-linejoin:round;stroke-miterlimit:4;stroke-dasharray:none;stroke-opacity:1;visibility:visible" visibility="hidden"/><path d="M441.267 776.273a1.31 1.31 0 0 0-.388.397M440.879 776.67a3.23 3.23 0 0 0-.39.972 3.193 3.193 0 0 0-.062 1.043M440.426 778.685a1.18 1.18 0 0 0 .182.53" style="fill:none;stroke:red;stroke-width:.533332;stroke-linecap:round;stroke-linejoin:round;stroke-miterlimit:2;stroke-dasharray:none;stroke-opacity:1;visibility:visible" visibility="hidden"/><path d="m440.79 779.342-1.862-.421M441.487 776.238l-1.861-.417M436.256 777.73l2.16.508M436.406 775.822l2.522.45M438.744 778.793a.29.29 0 0 0 .183.127M439.626 775.82a.293.293 0 0 0-.22.037M439.406 775.856a1.205 1.205 0 0 0-.388.398M439.018 776.254a3.261 3.261 0 0 0-.455 2.018M438.563 778.272a1.18 1.18 0 0 0 .181.52M441.01 779.304c.158-.096.292-.24.389-.4M441.399 778.905a3.256 3.256 0 0 0 .451-2.013" style="fill:none;stroke:red;stroke-width:.866664;stroke-linecap:round;stroke-linejoin:round;stroke-miterlimit:2;stroke-dasharray:none;stroke-opacity:1;visibility:visible" visibility="hidden"/><path d="M441.85 776.892a1.173 1.173 0 0 0-.18-.523M441.67 776.369a.288.288 0 0 0-.183-.13.316.316 0 0 0-.22.033" style="fill:none;stroke:red;stroke-width:.866664;stroke-linecap:round;stroke-linejoin:round;stroke-miterlimit:2;stroke-dasharray:none;stroke-opacity:1;visibility:visible" visibility="hidden"/><path d="M519.475 804.11c0 .53-.715.96-1.596.96-.88-.001-1.594-.431-1.594-.96 0-.528.715-.955 1.595-.955s1.595.427 1.595.955M490.379 820.614c0 .53-.715.957-1.596.957-.88 0-1.594-.428-1.594-.957.001-.528.714-.956 1.594-.956.881 0 1.596.428 1.596.956M358.36 789.345c0 .53-.713.958-1.594.958-.88 0-1.596-.429-1.596-.958.001-.528.716-.956 1.596-.956.881 0 1.594.428 1.594.956M391.8 775.014c0 .53-.714.959-1.596.959-.88 0-1.594-.43-1.594-.959 0-.528.714-.956 1.594-.956.882 0 1.596.428 1.596.956" style="fill:none;stroke:red;stroke-width:.666665;stroke-linecap:round;stroke-linejoin:round;stroke-miterlimit:4;stroke-dasharray:none;stroke-opacity:1;visibility:visible" visibility="hidden"/><path d="m404.103 786.478 11.672-5.464" style="fill:none;stroke:red;stroke-width:.999997;stroke-linecap:round;stroke-linejoin:round;stroke-miterlimit:2;stroke-dasharray:none;stroke-opacity:1;visibility:visible" visibility="hidden"/><path d="m415.182 777.356-11.548 5.24.469 3.477" style="fill:none;stroke:red;stroke-width:1.99999;stroke-linecap:round;stroke-linejoin:round;stroke-miterlimit:2;stroke-dasharray:none;stroke-opacity:1;visibility:visible" visibility="hidden"/><path d="m409.787 780.1 5.127 1.078" style="fill:none;stroke:red;stroke-width:.999997;stroke-linecap:round;stroke-linejoin:round;stroke-miterlimit:2;stroke-dasharray:none;stroke-opacity:1;visibility:visible" visibility="hidden"/><path d="M436.942 774.574c.13.192.232.456.297.768M434.678 781.842l.096-1.176s-2.215-1.86-2.314-3.981c-.137-2.945 2.848-2.612 2.848-2.612l.092-1.09M435.496 774.236l1.384-.632M440.07 774.442l-2.618 1.07" style="fill:none;stroke:red;stroke-width:.666665;stroke-linecap:round;stroke-linejoin:round;stroke-miterlimit:4;stroke-dasharray:none;stroke-opacity:1;visibility:visible" visibility="hidden"/><path d="M436.54 778.82c-.24.305-.51.469-.77.434-.646-.094-1.003-1.384-.79-2.898.038-.256.087-.5.147-.73" style="fill:none;stroke:red;stroke-width:.666665;stroke-linecap:round;stroke-linejoin:round;stroke-miterlimit:4;stroke-dasharray:none;stroke-opacity:1;visibility:visible" visibility="hidden"/><path d="m471.493 863.651 1.022-2.004M345.332 799.427l1.222-8.932" style="fill:none;stroke:red;stroke-width:1.33333;stroke-linecap:round;stroke-linejoin:round;stroke-miterlimit:4;stroke-dasharray:none;stroke-opacity:1;visibility:visible" visibility="hidden"/><path d="m345.332 799.427 1.896-3.107M338.004 918.213l-1.254 19.885M328.313 970.376l6.127-5.084M338.923 899.234l-.597 12.963M336.75 938.098l1.254-19.885M338.326 912.197l.597-12.963" style="fill:none;stroke:red;stroke-width:.866664;stroke-linecap:round;stroke-linejoin:round;stroke-miterlimit:4;stroke-dasharray:none;stroke-opacity:1;visibility:visible" visibility="hidden"/><path d="m338.326 912.197 8.782-12.628M341.783 826.043l7.028 3.497M340.176 801.653l6.74-1.963" style="fill:none;stroke:red;stroke-width:1.33333;stroke-linecap:round;stroke-linejoin:round;stroke-miterlimit:4;stroke-dasharray:none;stroke-opacity:1;visibility:visible" visibility="hidden"/><path d="m471.433 863.239-9.073 3.147" style="fill:none;stroke:red;stroke-width:.866664;stroke-linecap:round;stroke-linejoin:round;stroke-miterlimit:4;stroke-dasharray:none;stroke-opacity:1;visibility:visible" visibility="hidden"/><path d="m519.527 790.776 12.031 1.542" style="fill:none;stroke:red;stroke-width:1.33333;stroke-linecap:round;stroke-linejoin:round;stroke-miterlimit:4;stroke-dasharray:none;stroke-opacity:1;visibility:visible" visibility="hidden"/><path d="m538.413 788.569-8.596-3.513M438.928 776.272l-11.286-10.906M439.626 775.821l3.849-7.405" style="fill:none;stroke:red;stroke-width:.866664;stroke-linecap:round;stroke-linejoin:round;stroke-miterlimit:4;stroke-dasharray:none;stroke-opacity:1;visibility:visible" visibility="hidden"/><path d="m538.413 788.569-6.896-7.459M439.626 775.821l5.57-10.877M518.213 796.246l-8.242 8.445M438.928 778.921l4.74 12.369M442.412 862.215l-.626-2.389" style="fill:none;stroke:red;stroke-width:1.33333;stroke-linecap:round;stroke-linejoin:round;stroke-miterlimit:4;stroke-dasharray:none;stroke-opacity:1;visibility:visible" visibility="hidden"/><path d="m352.42 943.087 6.635 2.489" style="fill:none;stroke:red;stroke-width:.866664;stroke-linecap:round;stroke-linejoin:round;stroke-miterlimit:4;stroke-dasharray:none;stroke-opacity:1;visibility:visible" visibility="hidden"/><path d="m350.166 949.011 2.254-5.924M343.827 954.04l.672-14.794M347.495 942.263l-4.771 2.423" style="fill:none;stroke:red;stroke-width:1.33333;stroke-linecap:round;stroke-linejoin:round;stroke-miterlimit:4;stroke-dasharray:none;stroke-opacity:1;visibility:visible" visibility="hidden"/><path d="m342.724 944.686 4.771-2.423M344.499 939.246l-.672 14.794" style="fill:none;stroke:red;stroke-width:.866664;stroke-linecap:round;stroke-linejoin:round;stroke-miterlimit:4;stroke-dasharray:none;stroke-opacity:1;visibility:visible" visibility="hidden"/><path d="m342.724 944.686 9.544-2.879" style="fill:none;stroke:red;stroke-width:1.33333;stroke-linecap:round;stroke-linejoin:round;stroke-miterlimit:4;stroke-dasharray:none;stroke-opacity:1;visibility:visible" visibility="hidden"/><path d="m398.576 624.627 1.746 2.652M391.651 626.093l14.712-.15M563.785 634.416l-14.985.721M472.548 661.334l-17.516 1.084M436.256 777.73l-14.655 12.378M315.804 644.987l-14.824 2.063" style="fill:none;stroke:red;stroke-width:.866664;stroke-linecap:round;stroke-linejoin:round;stroke-miterlimit:4;stroke-dasharray:none;stroke-opacity:1;visibility:visible" visibility="hidden"/><path d="m427.054 787.907-15.978 4.783M427.054 787.907l5.614 2.151" style="fill:none;stroke:red;stroke-width:1.33333;stroke-linecap:round;stroke-linejoin:round;stroke-miterlimit:4;stroke-dasharray:none;stroke-opacity:1;visibility:visible" visibility="hidden"/><path d="m518.913 793.144 1.739 3.611M518.213 796.246l2.203-2.806" style="fill:none;stroke:red;stroke-width:.866664;stroke-linecap:round;stroke-linejoin:round;stroke-miterlimit:2;stroke-dasharray:none;stroke-opacity:1;visibility:visible" visibility="hidden"/><path d="m518.213 796.246.607 3.612M531.558 792.318l-12.031-1.542" style="fill:none;stroke:red;stroke-width:.666665;stroke-linecap:round;stroke-linejoin:round;stroke-miterlimit:4;stroke-dasharray:none;stroke-opacity:1;visibility:visible" visibility="hidden"/><path d="m441.01 779.304-3.726.732" style="fill:none;stroke:red;stroke-width:.866664;stroke-linecap:round;stroke-linejoin:round;stroke-miterlimit:2;stroke-dasharray:none;stroke-opacity:1;visibility:visible" visibility="hidden"/><path d="m438.744 778.793-6.038 1.285" style="fill:none;stroke:red;stroke-width:.666665;stroke-linecap:round;stroke-linejoin:round;stroke-miterlimit:4;stroke-dasharray:none;stroke-opacity:1;visibility:visible" visibility="hidden"/><path d="m438.927 778.92-2.671-1.19" style="fill:none;stroke:red;stroke-width:.866664;stroke-linecap:round;stroke-linejoin:round;stroke-miterlimit:2;stroke-dasharray:none;stroke-opacity:1;visibility:visible" visibility="hidden"/><path d="m531.558 792.318-12.083 11.792M519.527 790.776l-.052 13.334M440.07 774.442l-4.574-.206" style="fill:none;stroke:red;stroke-width:.666665;stroke-linecap:round;stroke-linejoin:round;stroke-miterlimit:4;stroke-dasharray:none;stroke-opacity:1;visibility:visible" visibility="hidden"/><path d="M472.499 949.218s12.81-9.043 28.534-20.57c0-.001 15.187-11.494 27.059-20.354 6.721-5.384 23.453-18.884 24.685-19.844 4.648-3.88 7.7-6.467 8.438-6.964" style="fill:none;stroke:#00ff4a;stroke-width:.866664;stroke-linecap:round;stroke-linejoin:round;stroke-miterlimit:4;stroke-dasharray:none;stroke-opacity:1;visibility:visible"/><path d="M480.756 859.02c6.116.95 15.33 2.598 21.416 3.705 30.792 5.604 57.496 13.464 57.496 13.464s2.81.864 4.092 3.171c.173.305.301 2.225.301 4.039 0 1.539-2.414 3.728-2.414 3.728l-16.675 14.34s-18.385 15.976-34.908 28.047c-19.828 14.846-37.88 27.641-37.88 27.641M348.348 891.504c20.012-11.339 52.359-29.734 66.495-37.747M340.654 910.39s-1.086-1.11-1.23-2.272c-.214-1.739.531-3.793.989-4.05 1.949-1.102 4.557-2.858 10.241-6.079M340.867 910.478s27.13 14.022 56.653 26.085c27.376 11.18 57.31 20.47 57.31 20.47s5.578 1.842 9.86 1.909c4.159.071 7.018-1.636 7.018-1.636" style="fill:none;stroke:#00ff4a;stroke-width:1.33333;stroke-linecap:round;stroke-linejoin:round;stroke-miterlimit:4;stroke-dasharray:none;stroke-opacity:1;visibility:visible"/><path d="M458.127 950.995c1.412.305 3.013.579 4.525.68M346.114 906.662c9.478 4.652 29.696 14.37 50.585 22.608 28.07 11.074 57.092 20.588 57.092 20.588M347.23 896.486l3.52 1.319" style="fill:none;stroke:#00ff4a;stroke-width:.866664;stroke-linecap:round;stroke-linejoin:round;stroke-miterlimit:4;stroke-dasharray:none;stroke-opacity:1;visibility:visible"/><path d="m350.654 897.989-2.306-6.485" style="fill:none;stroke:#00ff4a;stroke-width:1.33333;stroke-linecap:round;stroke-linejoin:round;stroke-miterlimit:4;stroke-dasharray:none;stroke-opacity:1;visibility:visible"/><path d="m336.75 938.098 6.36.762" style="fill:none;stroke:red;stroke-width:1.33333;stroke-linecap:round;stroke-linejoin:round;stroke-miterlimit:4;stroke-dasharray:none;stroke-opacity:1;visibility:visible" visibility="hidden"/><path d="m519.527 790.776 3.643 5.644M443.668 791.29l-11.466-12.114M432.706 780.078l11.104 3.728" style="fill:none;stroke:red;stroke-width:.666665;stroke-linecap:round;stroke-linejoin:round;stroke-miterlimit:4;stroke-dasharray:none;stroke-opacity:1;visibility:visible" visibility="hidden"/></svg>