<svg xmlns="http://www.w3.org/2000/svg" baseProfile="full" height="1122.52" preserveAspectRatio="xMinYMin meet" style="width:792px;height:931px" width="793.701" xml:space="preserve"><path d="m333.682 346.165 7.192 6.942 25.514-8.77" style="fill:none;stroke:red;stroke-width:1.99999;stroke-linecap:round;stroke-linejoin:round;stroke-miterlimit:4;stroke-dasharray:none;stroke-opacity:1;visibility:visible"/><path d="M340.412 353.165 358 193.622" style="fill:none;stroke:red;stroke-width:.999997;stroke-linecap:round;stroke-linejoin:round;stroke-miterlimit:4;stroke-dasharray:none;stroke-opacity:1;visibility:visible"/><path d="m373.935 181.162-9.355 2.491M358.068 185.384l-7.42 1.974M379.83 180.737l7.413 4.184M333.64 346.305l16.912-158.139M366.688 344.198l20.536-159.01" style="fill:none;stroke:red;stroke-width:1.99999;stroke-linecap:round;stroke-linejoin:round;stroke-miterlimit:4;stroke-dasharray:none;stroke-opacity:1;visibility:visible"/><path d="m386.67 185.21-28.223 7.411-8.033-4.87M350.414 187.75l-.212-.128" style="fill:none;stroke:red;stroke-width:.999997;stroke-linecap:round;stroke-linejoin:round;stroke-miterlimit:4;stroke-dasharray:none;stroke-opacity:1;visibility:visible"/><path d="M371.431 186.522c-.017.548-.896.968-1.959.936-1.066-.034-1.914-.504-1.898-1.05.016-.55.892-.966 1.954-.934 1.068.03 1.916.498 1.903 1.048M374.774 184.713l.496-7.753s.048-.171.242-.36c.196-.183.48-.479.48-.479s.21-.313 1.228-.324c1.016-.015 1.318.344 1.318.344s.482.581.562.663c.08.081.16.176.147.441l-.483 7.607" style="fill:none;stroke:red;stroke-width:.999997;stroke-linecap:round;stroke-linejoin:round;stroke-miterlimit:4;stroke-dasharray:none;stroke-opacity:1;visibility:visible"/><path d="M378.952 183.736c.155.137.243.292.25.46.025.596-1.004 1.124-2.3 1.174-1.294.055-2.364-.386-2.39-.982a.64.64 0 0 1 .17-.428M375.818 185.146l-.56-6.39M377.035 177.97l.632 7.223M375.26 177.196s.58.764 2.057.729c1.611-.036 1.923-.753 1.923-.753" style="fill:none;stroke:red;stroke-width:.666665;stroke-linecap:round;stroke-linejoin:round;stroke-miterlimit:4;stroke-dasharray:none;stroke-opacity:1;visibility:visible"/><path d="m359.048 188.742.495-7.752s.05-.173.243-.36c.196-.184.478-.48.478-.48s.21-.313 1.23-.324c1.016-.014 1.316.344 1.316.344s.484.58.564.662c.08.082.158.178.146.442l-.482 7.607" style="fill:none;stroke:red;stroke-width:.999997;stroke-linecap:round;stroke-linejoin:round;stroke-miterlimit:4;stroke-dasharray:none;stroke-opacity:1;visibility:visible"/><path d="M363.224 187.766a.653.653 0 0 1 .252.458c.024.596-1.005 1.125-2.3 1.176-1.296.054-2.366-.387-2.39-.983a.613.613 0 0 1 .169-.427M360.09 189.176l-.56-6.391M361.308 182l.635 7.222M359.532 181.225s.58.764 2.06.73c1.608-.038 1.921-.755 1.921-.755" style="fill:none;stroke:red;stroke-width:.666665;stroke-linecap:round;stroke-linejoin:round;stroke-miterlimit:4;stroke-dasharray:none;stroke-opacity:1;visibility:visible"/><path d="m346.91 351.817-.588 4.968s-.072.189-.295.384c-.223.194-.544.505-.544.505s-.256.34-1.277.256c-1.019-.08-1.27-.517-1.27-.517s-.405-.711-.471-.808c-.069-.103-.133-.222-.083-.52l.281-2.706" style="fill:none;stroke:red;stroke-width:.999997;stroke-linecap:round;stroke-linejoin:round;stroke-miterlimit:4;stroke-dasharray:none;stroke-opacity:1;visibility:visible"/><path d="m344.43 357.826-.036-5.244" style="fill:none;stroke:red;stroke-width:.666665;stroke-linecap:round;stroke-linejoin:round;stroke-miterlimit:4;stroke-dasharray:none;stroke-opacity:1;visibility:visible"/><path d="m361.595 346.422-.617 4.4s-.095.167-.296.384c-.33.354-.546.504-.546.504s-.268.431-1.276.26c-.966-.165-1.272-.52-1.272-.52s-.352-.477-.468-.809c-.042-.113-.136-.219-.086-.519l.513-3.303" style="fill:none;stroke:red;stroke-width:.999997;stroke-linecap:round;stroke-linejoin:round;stroke-miterlimit:4;stroke-dasharray:none;stroke-opacity:1;visibility:visible"/><path d="m359.106 351.771.034-5.68" style="fill:none;stroke:red;stroke-width:.666665;stroke-linecap:round;stroke-linejoin:round;stroke-miterlimit:4;stroke-dasharray:none;stroke-opacity:1;visibility:visible"/><path d="m342.663 353.379-2.251-.214M359.048 188.742l-1.048 4.88" style="fill:none;stroke:red;stroke-width:.999997;stroke-linecap:round;stroke-linejoin:round;stroke-miterlimit:4;stroke-dasharray:none;stroke-opacity:1;visibility:visible"/><path d="m358.068 185.384 6.512-1.731M364.58 183.653l-6.512 1.731M363.513 181.2l16.317-.463" style="fill:none;stroke:red;stroke-width:1.99999;stroke-linecap:round;stroke-linejoin:round;stroke-miterlimit:4;stroke-dasharray:none;stroke-opacity:1;visibility:visible"/><path d="m374.774 184.713-3.343 1.809M358 193.622l13.431-7.1M371.431 186.522l7.333-1.67" style="fill:none;stroke:red;stroke-width:.999997;stroke-linecap:round;stroke-linejoin:round;stroke-miterlimit:4;stroke-dasharray:none;stroke-opacity:1;visibility:visible"/><path d="m377.035 177.97-1.217 7.176M377.667 185.193l-2.409-6.437M375.818 185.146l1.217-7.176M375.258 178.756l2.409 6.437" style="fill:none;stroke:red;stroke-width:.666665;stroke-linecap:round;stroke-linejoin:round;stroke-miterlimit:4;stroke-dasharray:none;stroke-opacity:1;visibility:visible"/><path d="m358 193.622 5.038-4.741" style="fill:none;stroke:red;stroke-width:.999997;stroke-linecap:round;stroke-linejoin:round;stroke-miterlimit:4;stroke-dasharray:none;stroke-opacity:1;visibility:visible"/><path d="m361.308 182-1.218 7.176M361.943 189.222l-2.413-6.437M360.09 189.176l1.218-7.176M359.53 182.785l2.413 6.437M379.24 177.172l-15.727 4.028" style="fill:none;stroke:red;stroke-width:.666665;stroke-linecap:round;stroke-linejoin:round;stroke-miterlimit:4;stroke-dasharray:none;stroke-opacity:1;visibility:visible"/><path d="m340.412 353.165 6.498-1.348M340.412 353.165l2.251.214" style="fill:none;stroke:red;stroke-width:.999997;stroke-linecap:round;stroke-linejoin:round;stroke-miterlimit:4;stroke-dasharray:none;stroke-opacity:1;visibility:visible"/><path d="m359.14 346.091-14.71 11.735M359.106 351.771l-14.712.811" style="fill:none;stroke:red;stroke-width:.666665;stroke-linecap:round;stroke-linejoin:round;stroke-miterlimit:4;stroke-dasharray:none;stroke-opacity:1;visibility:visible"/><path d="m366.688 344.198-5.093 2.224M366.688 344.198l-9.141 2.621" style="fill:none;stroke:red;stroke-width:.999997;stroke-linecap:round;stroke-linejoin:round;stroke-miterlimit:4;stroke-dasharray:none;stroke-opacity:1;visibility:visible"/><path d="m344.394 352.582 14.712-.811M344.43 357.826l14.71-11.735" style="fill:none;stroke:red;stroke-width:.666665;stroke-linecap:round;stroke-linejoin:round;stroke-miterlimit:4;stroke-dasharray:none;stroke-opacity:1;visibility:visible"/><path d="m252.173 294.265.197-.075s-6.565 2.863-13.415 5.84l-1.4.63s-9.115 3.718-18.451 7.99a529.627 529.627 0 0 0-7.729 3.621l-18.114 8.736a2078.945 2078.945 0 0 0-22.957 10.96c-36.351 17.658-71.772 36.719-71.772 36.719M252.293 294.243a166.947 166.947 0 0 1 5.71-2.096 338.486 338.486 0 0 1 7.182-2.397M338.84 274.179a924.287 924.287 0 0 0-25.146 4.336s-9.53 1.58-18.8 3.525c-8.674 1.82-17.121 4.01-17.121 4.01-1.23.317-2.533.664-3.863 1.037M410.478 265.657a1266.53 1266.53 0 0 0-31.292 3.176" style="fill:none;stroke:#00ff4a;stroke-width:1.99999;stroke-linecap:round;stroke-linejoin:round;stroke-miterlimit:4;stroke-dasharray:none;stroke-opacity:1;visibility:visible"/><path d="M337.882 282.62c-24.372 4.001-44.997 8.412-44.997 8.412s-9.325 2.295-18.496 5.231c-5.626 1.797-11.199 3.819-14.819 5.174 0 .001-4.904 1.911-7.972 3.314-2.067.939-4.892 2.223-8.32 3.795 0 0-9.204 3.901-18.927 8.453l-1.193.561-17.835 8.66c-1.953.97-3.129 1.56-3.129 1.56a1798.725 1798.725 0 0 0-22.992 11.213c-37.94 18.844-73.762 38.54-73.762 38.54M415.298 271.725a2889.566 2889.566 0 0 0-37.475 4.945" style="fill:none;stroke:#00ff4a;stroke-width:.999997;stroke-linecap:round;stroke-linejoin:round;stroke-miterlimit:4;stroke-dasharray:none;stroke-opacity:1;visibility:visible"/><path d="M498.324 335.015c-7.564 1.275-40.782 6.995-70.501 14.05-31.413 7.465-62.23 16.663-62.23 16.663s-3.03 1.018-6.632 2.332M358.686 368.163c-.726.267-1.476.542-2.23.827M351.432 370.967a321.302 321.302 0 0 0-15.457 6.96M105.102 388.163s55.994-26.453 104.344-47.065c3.817-1.625 18.248-7.608 18.248-7.608.236-.096 1.579-.636 3.413-1.37 0 0 16.055-6.488 23.803-9.426 1.433-.545 2.827-1.091 4.181-1.609M289.69 309.98c9.615-3.347 22.896-6.457 26.676-7.419M376.334 288.989a4738.383 4738.383 0 0 1 38.616-8.09M168.413 469.656c7.152-4.282 46.716-27.884 86.953-50.196 33.196-18.4 67.068-34.629 78.492-40.46.4-.204 1.234-.614 2.394-1.17" style="fill:none;stroke:#00ff4a;stroke-width:1.99999;stroke-linecap:round;stroke-linejoin:round;stroke-miterlimit:4;stroke-dasharray:none;stroke-opacity:1;visibility:visible"/><path d="M506.55 341.462c-8.868 1.847-36.353 7.684-64.083 14.781-34.313 8.778-69.053 19.904-69.053 19.904s-5.59 1.65-9.786 3.279c-4.973 1.927-8.504 3.5-12.428 5.17-2.894 1.232-8.836 3.601-11.734 5.144-12.427 6.624-48.23 25.63-82.866 45.047-35.731 20.03-69.88 40.15-79.79 46.013" style="fill:none;stroke:#00ff4a;stroke-width:.999997;stroke-linecap:round;stroke-linejoin:round;stroke-miterlimit:4;stroke-dasharray:none;stroke-opacity:1;visibility:visible"/><path d="M528.368 343.077c-.187.513-.493 1.156-.975 1.673-.848.917-2.373 1.36-2.373 1.36s-83.481 19.012-161.876 51.81c-24.942 10.438-50.802 23.295-73.81 34.544-64.332 31.468-113.564 59.768-113.564 59.768" style="fill:none;stroke:#00ff4a;stroke-width:1.99999;stroke-linecap:round;stroke-linejoin:round;stroke-miterlimit:4;stroke-dasharray:none;stroke-opacity:1;visibility:visible"/><path d="m528.479 342.762-12.967 2.152" style="fill:none;stroke:#00ff4a;stroke-width:1.33333;stroke-linecap:round;stroke-linejoin:round;stroke-miterlimit:4;stroke-dasharray:none;stroke-opacity:1;visibility:visible"/><path d="m405.538 254.645 15.544-6.9s3.878-1.517 6.774-.52c3.342 1.15 5.764 4.835 5.764 4.835s21.372 30.709 49.363 51.347C506.97 321.095 538.2 329.17 538.2 329.17s.723.16 1.544.307c.561.105 3.616.492 5.201 1.852 1.395 1.193 1.387 3.321 1.263 4.121-.175 1.16-.875 2.347-1.33 2.897-1.41 1.706-3.718 2.303-3.718 2.303l-12.68 2.11" style="fill:none;stroke:#00ff4a;stroke-width:1.99999;stroke-linecap:round;stroke-linejoin:round;stroke-miterlimit:4;stroke-dasharray:none;stroke-opacity:1;visibility:visible"/><path d="M409.258 256.5s22.449 32.876 51.445 54.79c19.682 14.867 45.093 22.997 52.636 25.2" style="fill:none;stroke:#00ff4a;stroke-width:.999997;stroke-linecap:round;stroke-linejoin:round;stroke-miterlimit:4;stroke-dasharray:none;stroke-opacity:1;visibility:visible"/><path d="M507.612 343.115c2.688.845 5.081 1.488 6.492 1.9" style="fill:none;stroke:#00ff4a;stroke-width:1.33333;stroke-linecap:round;stroke-linejoin:round;stroke-miterlimit:4;stroke-dasharray:none;stroke-opacity:1;visibility:visible"/><path d="M473.68 328.215c-5.922-3.135-11.921-6.788-17.461-10.975-12.236-9.247-23.253-20.35-31.896-30.098M406.642 265.186c-1.018-1.412-1.838-3.146-1.838-3.146" style="fill:none;stroke:#00ff4a;stroke-width:1.99999;stroke-linecap:round;stroke-linejoin:round;stroke-miterlimit:4;stroke-dasharray:none;stroke-opacity:1;visibility:visible"/><path d="M515.343 344.902c1.573-.619 2.127-2.962 1.237-5.235-.655-1.661-1.893-2.824-3.13-3.09" style="fill:none;stroke:#00ff4a;stroke-width:.999997;stroke-linecap:round;stroke-linejoin:round;stroke-miterlimit:4;stroke-dasharray:none;stroke-opacity:1;visibility:visible"/><path d="M514.104 345.015c.423.076.844.04 1.239-.113" style="fill:none;stroke:#00ff4a;stroke-width:1.33333;stroke-linecap:round;stroke-linejoin:round;stroke-miterlimit:4;stroke-dasharray:none;stroke-opacity:1;visibility:visible"/><path d="M405.39 254.717c-1.691.659-2.163 3.49-1.052 6.32.141.353.294.688.466 1.002" style="fill:none;stroke:#00ff4a;stroke-width:1.99999;stroke-linecap:round;stroke-linejoin:round;stroke-miterlimit:4;stroke-dasharray:none;stroke-opacity:1;visibility:visible"/><path d="M405.39 254.717c1.207-.47 2.703.285 3.869 1.783M507.506 340.426l-8.836-5.404M416.424 277.833l.574-6.527-5.862-5.82" style="fill:none;stroke:#00ff4a;stroke-width:.999997;stroke-linecap:round;stroke-linejoin:round;stroke-miterlimit:4;stroke-dasharray:none;stroke-opacity:1;visibility:visible"/><path d="M402.614 354.671c-4.304-1.914-18.69-8.66-32.182-18.876M336.3 300.789c-5.34-6.774-8.89-11.896-9.81-13.243" style="fill:none;stroke:#00ff4a;stroke-width:1.99999;stroke-linecap:round;stroke-linejoin:round;stroke-miterlimit:4;stroke-dasharray:none;stroke-opacity:1;visibility:visible"/><path d="M314.586 289.053s7.844 12.004 19.554 25.569M369.214 346.057a220.586 220.586 0 0 0 20.372 11.88" style="fill:none;stroke:#00ff4a;stroke-width:.999997;stroke-linecap:round;stroke-linejoin:round;stroke-miterlimit:4;stroke-dasharray:none;stroke-opacity:1;visibility:visible"/><path d="M314.143 297.9c3.167 4.568 10.147 14.26 19.23 24.59M365.318 351.229a236.293 236.293 0 0 0 15.17 9.584" style="fill:none;stroke:#00ff4a;stroke-width:1.99999;stroke-linecap:round;stroke-linejoin:round;stroke-miterlimit:4;stroke-dasharray:none;stroke-opacity:1;visibility:visible"/><path d="m326.006 286.99-11.456 1.903-.752 8.83" style="fill:none;stroke:#00ff4a;stroke-width:.999997;stroke-linecap:round;stroke-linejoin:round;stroke-miterlimit:4;stroke-dasharray:none;stroke-opacity:1;visibility:visible"/><path d="M373.583 309.867a285.485 285.485 0 0 0 26.644 8.154 225.9 225.9 0 0 0 4.615 1.117M328.31 289.22s3.012 1.813 8.428 4.623M415.626 321.423c31.884 6.191 65.714 8.054 72.68 8.384" style="fill:none;stroke:#00ff4a;stroke-width:1.99999;stroke-linecap:round;stroke-linejoin:round;stroke-miterlimit:4;stroke-dasharray:none;stroke-opacity:1;visibility:visible"/><path d="M372.708 316.16a289.54 289.54 0 0 0 18.66 5.903M394.682 322.968c1.077.286 2.165.574 3.261.844 1.699.43 3.413.843 5.148 1.239M414.01 327.345c35.574 6.829 73.314 8.313 73.314 8.313" style="fill:none;stroke:#00ff4a;stroke-width:.999997;stroke-linecap:round;stroke-linejoin:round;stroke-miterlimit:4;stroke-dasharray:none;stroke-opacity:1;visibility:visible"/><path d="M372.591 319.721a284.466 284.466 0 0 0 24.803 7.497c1.56.395 3.133.776 4.726 1.141M413.305 330.718c24.417 4.703 49.885 6.88 63.483 7.788M395.266 350.226a1008.003 1008.003 0 0 0 6.909-21.732M404.995 319.11l.216-.747c5.968-20.36 12.113-43.63 12.113-43.63M407.246 353.442a2670.33 2670.33 0 0 0 6.018-22.65M415.694 321.391c.556-2.184 1.112-4.381 1.666-6.565a1435.147 1435.147 0 0 0 7.796-32.819" style="fill:none;stroke:#00ff4a;stroke-width:1.99999;stroke-linecap:round;stroke-linejoin:round;stroke-miterlimit:4;stroke-dasharray:none;stroke-opacity:1;visibility:visible"/><path d="m425 281.531-7.373-7.361M496.807 334.805c0 .002-7.614-4.655-7.614-4.655" style="fill:none;stroke:#00ff4a;stroke-width:.999997;stroke-linecap:round;stroke-linejoin:round;stroke-miterlimit:4;stroke-dasharray:none;stroke-opacity:1;visibility:visible"/><path d="m282.833 304.09 68.269 66.187" style="fill:none;stroke:#00ff4a;stroke-width:1.99999;stroke-linecap:round;stroke-linejoin:round;stroke-miterlimit:4;stroke-dasharray:none;stroke-opacity:1;visibility:visible"/><path d="m259.634 312.951 68.19 68.946" style="fill:none;stroke:#00ff4a;stroke-width:.999997;stroke-linecap:round;stroke-linejoin:round;stroke-miterlimit:4;stroke-dasharray:none;stroke-opacity:1;visibility:visible"/><path d="m259.245 319.791 62.774 64.519" style="fill:none;stroke:#00ff4a;stroke-width:1.99999;stroke-linecap:round;stroke-linejoin:round;stroke-miterlimit:4;stroke-dasharray:none;stroke-opacity:1;visibility:visible"/><path d="m258.723 319.31.497-7.169M276.426 305.691l5.884-2.21M259.392 312.097l11.436-4.298M507.549 342.965l.103-2.176M176.329 480.504l-7.544-10.617M104.84 377.567l-6.308-8.881" style="fill:none;stroke:#00ff4a;stroke-width:.999997;stroke-linecap:round;stroke-linejoin:round;stroke-miterlimit:4;stroke-dasharray:none;stroke-opacity:1;visibility:visible"/><path d="m175.364 492.61-7.58-11.015M104.018 388.463l-5.908-8.582" style="fill:none;stroke:#00ff4a;stroke-width:1.99999;stroke-linecap:round;stroke-linejoin:round;stroke-miterlimit:4;stroke-dasharray:none;stroke-opacity:1;visibility:visible"/><path d="m176.593 481.114-.53 11.314" style="fill:none;stroke:#00ff4a;stroke-width:.999997;stroke-linecap:round;stroke-linejoin:round;stroke-miterlimit:4;stroke-dasharray:none;stroke-opacity:1;visibility:visible"/><path d="m168.05 470.075-.53 11.315" style="fill:none;stroke:#00ff4a;stroke-width:1.99999;stroke-linecap:round;stroke-linejoin:round;stroke-miterlimit:4;stroke-dasharray:none;stroke-opacity:1;visibility:visible"/><path d="m105.012 377.837.213 10.002" style="fill:none;stroke:#00ff4a;stroke-width:.999997;stroke-linecap:round;stroke-linejoin:round;stroke-miterlimit:4;stroke-dasharray:none;stroke-opacity:1;visibility:visible"/><path d="m97.748 369.16.212 10.002" style="fill:none;stroke:#00ff4a;stroke-width:1.99999;stroke-linecap:round;stroke-linejoin:round;stroke-miterlimit:4;stroke-dasharray:none;stroke-opacity:1;visibility:visible"/><path d="M348.551 380.171c-.08.636-.967 1.047-1.983.923-1.014-.128-1.776-.747-1.696-1.384.08-.633.97-1.044 1.984-.917 1.015.125 1.774.744 1.695 1.377v.001M363.136 374.28c-.08.634-.969 1.046-1.984.92-1.017-.128-1.777-.745-1.696-1.38.08-.632.968-1.044 1.984-.92 1.015.128 1.775.748 1.696 1.38M262.22 296.651c-.077.636-.968 1.047-1.981.92-1.017-.128-1.778-.746-1.698-1.381.079-.631.968-1.047 1.984-.92 1.017.128 1.775.748 1.695 1.381M277.32 291.863c-.077.634-.968 1.047-1.982.92-1.018-.129-1.779-.749-1.698-1.385.079-.631.967-1.044 1.985-.917 1.015.128 1.774.746 1.695 1.382" style="fill:none;stroke:#00ff4a;stroke-width:.999997;stroke-linecap:round;stroke-linejoin:round;stroke-miterlimit:4;stroke-dasharray:none;stroke-opacity:1;visibility:visible"/><path d="m344.68 387.356-8.137-8.316M370.023 376.805l-8.939-8.623M257.406 302.055l-6.117-5.81M282.049 293.46l-6.119-5.812" style="fill:none;stroke:#00ff4a;stroke-width:.666665;stroke-linecap:round;stroke-linejoin:round;stroke-miterlimit:4;stroke-dasharray:none;stroke-opacity:1;visibility:visible"/><path d="m323.61 361.674 14.972 13.733" style="fill:none;stroke:#00ff4a;stroke-width:1.99999;stroke-linecap:round;stroke-linejoin:round;stroke-miterlimit:4;stroke-dasharray:none;stroke-opacity:1;visibility:visible"/><path d="m343.372 373.377-14.44-13.152-5.601 1.197M276.091 305.658l-.768 2.267-.892 2.305" style="fill:none;stroke:#00ff4a;stroke-width:.999997;stroke-linecap:round;stroke-linejoin:round;stroke-miterlimit:4;stroke-dasharray:none;stroke-opacity:1;visibility:visible"/><path d="m291.86 321.602-5.352 1.987-2.721-2.692-4.546-4.508-8.156-8.075" style="fill:none;stroke:#00ff4a;stroke-width:1.99999;stroke-linecap:round;stroke-linejoin:round;stroke-miterlimit:4;stroke-dasharray:none;stroke-opacity:1;visibility:visible"/><path d="m276.235 305.75 15.965 15.724" style="fill:none;stroke:#00ff4a;stroke-width:.999997;stroke-linecap:round;stroke-linejoin:round;stroke-miterlimit:4;stroke-dasharray:none;stroke-opacity:1;visibility:visible"/><path d="M280.14 335.825c.35.801.168 1.648-.401 1.897-.573.247-1.316-.199-1.662-1.001-.347-.802-.167-1.648.402-1.898.572-.245 1.315.202 1.662 1.002" style="fill:none;fill-opacity:1;fill-rule:nonzero;stroke:#00ff4a;stroke-width:1.33333;visibility:visible"/><path d="M280.14 335.825c.35.801.168 1.648-.401 1.897-.573.247-1.316-.199-1.662-1.001-.347-.802-.167-1.648.402-1.898.572-.245 1.315.202 1.662 1.002h-.001" style="fill:none;stroke:#00ff4a;stroke-width:.999997;stroke-linecap:butt;stroke-linejoin:miter;stroke-miterlimit:4;stroke-dasharray:none;stroke-opacity:1;visibility:visible"/><path d="M302.61 358.509c.348.801.167 1.649-.403 1.896-.57.249-1.314-.2-1.662-1-.347-.8-.166-1.65.405-1.898.57-.245 1.313.2 1.66 1.003" style="fill:none;fill-opacity:1;fill-rule:nonzero;stroke:#00ff4a;stroke-width:1.33333;visibility:visible"/><path d="M302.61 358.509c.348.801.167 1.649-.403 1.896-.57.249-1.314-.2-1.662-1-.347-.8-.166-1.65.405-1.898.57-.245 1.313.2 1.66 1.003v-.001" style="fill:none;stroke:#00ff4a;stroke-width:.999997;stroke-linecap:butt;stroke-linejoin:miter;stroke-miterlimit:4;stroke-dasharray:none;stroke-opacity:1;visibility:visible"/><path d="m273.91 287.087-8.725 2.663M265.185 289.75l8.725-2.663M351.432 370.967l5.024-1.977M259.392 312.097l-.301 8.988M282.31 303.481l7.38 6.499" style="fill:none;stroke:#00ff4a;stroke-width:1.99999;stroke-linecap:round;stroke-linejoin:round;stroke-miterlimit:4;stroke-dasharray:none;stroke-opacity:1;visibility:visible"/><path d="m515.512 344.914-8.962-3.452" style="fill:none;stroke:#00ff4a;stroke-width:.999997;stroke-linecap:round;stroke-linejoin:round;stroke-miterlimit:4;stroke-dasharray:none;stroke-opacity:1;visibility:visible"/><path d="m425 281.531-.677 5.611" style="fill:none;stroke:#00ff4a;stroke-width:1.99999;stroke-linecap:round;stroke-linejoin:round;stroke-miterlimit:4;stroke-dasharray:none;stroke-opacity:1;visibility:visible"/><path d="m380.488 360.813-11.274-14.756" style="fill:none;stroke:#00ff4a;stroke-width:.999997;stroke-linecap:round;stroke-linejoin:round;stroke-miterlimit:4;stroke-dasharray:none;stroke-opacity:1;visibility:visible"/><path d="m369.214 346.057 11.274 14.756" style="fill:none;stroke:#00ff4a;stroke-width:1.99999;stroke-linecap:round;stroke-linejoin:round;stroke-miterlimit:4;stroke-dasharray:none;stroke-opacity:1;visibility:visible"/><path d="m394.682 322.968-3.314-.905M391.368 322.063l3.314.905M414.01 327.345l-10.919-2.294M403.091 325.051l10.919 2.294M488.306 329.807l-.982 5.851" style="fill:none;stroke:#00ff4a;stroke-width:.999997;stroke-linecap:round;stroke-linejoin:round;stroke-miterlimit:4;stroke-dasharray:none;stroke-opacity:1;visibility:visible"/><path d="m391.368 322.063-18.777-2.342" style="fill:none;stroke:#00ff4a;stroke-width:1.99999;stroke-linecap:round;stroke-linejoin:round;stroke-miterlimit:4;stroke-dasharray:none;stroke-opacity:1;visibility:visible"/><path d="m507.549 342.965-10.742-8.16M336.543 379.04l-8.719 2.857" style="fill:none;stroke:#00ff4a;stroke-width:.999997;stroke-linecap:round;stroke-linejoin:round;stroke-miterlimit:4;stroke-dasharray:none;stroke-opacity:1;visibility:visible"/><path d="m336.543 379.04-14.524 5.27" style="fill:none;stroke:#00ff4a;stroke-width:1.99999;stroke-linecap:round;stroke-linejoin:round;stroke-miterlimit:4;stroke-dasharray:none;stroke-opacity:1;visibility:visible"/><path d="m363.136 374.28-14.585 5.891M348.551 380.171l14.585-5.891M277.32 291.863l-15.1 4.788M259.22 312.141l3-15.49M262.22 296.651l15.1-4.788M262.22 296.651l15.1-4.788" style="fill:none;stroke:#00ff4a;stroke-width:.999997;stroke-linecap:round;stroke-linejoin:round;stroke-miterlimit:4;stroke-dasharray:none;stroke-opacity:1;visibility:visible"/><path d="m338.582 375.407-2.039 3.633M351.102 370.277l9.982-2.095M259.634 312.951l-2.228-10.896M282.833 304.09l-.784-10.63" style="fill:none;stroke:#00ff4a;stroke-width:.666665;stroke-linecap:round;stroke-linejoin:round;stroke-miterlimit:4;stroke-dasharray:none;stroke-opacity:1;visibility:visible"/><path d="m336.543 379.04 2.039-3.633" style="fill:none;stroke:#00ff4a;stroke-width:1.99999;stroke-linecap:round;stroke-linejoin:round;stroke-miterlimit:4;stroke-dasharray:none;stroke-opacity:1;visibility:visible"/><path d="m336.543 379.04 6.829-5.663" style="fill:none;stroke:#00ff4a;stroke-width:.999997;stroke-linecap:round;stroke-linejoin:round;stroke-miterlimit:4;stroke-dasharray:none;stroke-opacity:1;visibility:visible"/><path d="m242.99 106.25 4.785 157.082M272.718 99.885l4.89 2.675M248.1 263.785l6.472 5.824" style="fill:none;stroke:#9500ff;stroke-width:1.99999;stroke-linecap:round;stroke-linejoin:round;stroke-miterlimit:4;stroke-dasharray:none;stroke-opacity:1;visibility:visible"/><path d="m254.03 268.566-4.855-158.723" style="fill:none;stroke:#9500ff;stroke-width:.999997;stroke-linecap:round;stroke-linejoin:round;stroke-miterlimit:4;stroke-dasharray:none;stroke-opacity:1;visibility:visible"/><path d="m265.377 101.273-9.563 1.987M249.565 104.553l-6.538 1.358M279.682 262.698l-1.799-159.84" style="fill:none;stroke:#9500ff;stroke-width:1.99999;stroke-linecap:round;stroke-linejoin:round;stroke-miterlimit:4;stroke-dasharray:none;stroke-opacity:1;visibility:visible"/><path d="m277.174 103.206-28.344 6.234-5.376-2.836M243.454 106.604l-.83-.508" style="fill:none;stroke:#9500ff;stroke-width:.999997;stroke-linecap:round;stroke-linejoin:round;stroke-miterlimit:4;stroke-dasharray:none;stroke-opacity:1;visibility:visible"/><path d="M263.113 104.497c.013.358-.779.679-1.768.718-.986.037-1.796-.226-1.812-.583-.013-.364.777-.683 1.764-.72.99-.04 1.8.223 1.816.585M263.602 116.31a5.307 5.307 0 0 1 2.533.152c2.48.781 4.007 3.258 3.9 5.97l.031 9.604c0 .136-.003.274-.01.413" style="fill:none;stroke:#9500ff;stroke-width:.999997;stroke-linecap:round;stroke-linejoin:round;stroke-miterlimit:4;stroke-dasharray:none;stroke-opacity:1;visibility:visible"/><path d="M263.147 138.658a5.147 5.147 0 0 1-.794-.184c-2.507-.784-4.036-3.304-3.898-6.048l-.033-9.6a6.92 6.92 0 0 1 .323-2.021c.761-2.42 2.698-4.105 4.857-4.498" style="fill:none;stroke:#9500ff;stroke-width:1.33333;stroke-linecap:round;stroke-linejoin:round;stroke-miterlimit:4;stroke-dasharray:none;stroke-opacity:1;visibility:visible"/><path d="M265.657 233.864a5.256 5.256 0 0 1 2.533.154c2.481.778 4.005 3.256 3.9 5.968l.03 9.604a6.07 6.07 0 0 1-.01.412M266.57 129.702a7.04 7.04 0 0 1-.31 1.684c-.96 3.056-3.799 4.942-6.588 4.53M266.142 117.116a6.565 6.565 0 0 1 .41 2.57l.029 9.602a5.328 5.328 0 0 1-.011.414M270.055 132.448a7.176 7.176 0 0 1-.312 1.685c-.961 3.059-3.802 4.943-6.596 4.525" style="fill:none;stroke:#9500ff;stroke-width:.999997;stroke-linecap:round;stroke-linejoin:round;stroke-miterlimit:4;stroke-dasharray:none;stroke-opacity:1;visibility:visible"/><path d="M265.203 256.216a5.11 5.11 0 0 1-.793-.186c-2.508-.785-4.04-3.302-3.897-6.048l-.036-9.6c.006-.665.11-1.345.323-2.02.759-2.417 2.699-4.105 4.857-4.497" style="fill:none;stroke:#9500ff;stroke-width:1.33333;stroke-linecap:round;stroke-linejoin:round;stroke-miterlimit:4;stroke-dasharray:none;stroke-opacity:1;visibility:visible"/><path d="M269.442 255.074c-1.228.926-2.741 1.366-4.239 1.14M266.615 103.127l.5-7.752s.05-.17.246-.358c.196-.182.477-.481.477-.481s.21-.313 1.228-.324c1.017-.012 1.319.345 1.319.345s.482.583.562.663c.08.08.158.18.144.44l-.486 7.61M267.663 254.162c.027.464-.82.893-1.889.955-1.065.063-1.956-.264-1.984-.73-.027-.465.82-.894 1.887-.957 1.069-.06 1.96.266 1.986.732M268.626 247.257a7.173 7.173 0 0 1-.31 1.685l-.026.08M264.011 253.309a5.323 5.323 0 0 1-2.284.163M268.2 234.672a6.585 6.585 0 0 1 .406 2.568l.032 9.604a7.027 7.027 0 0 1-.012.413" style="fill:none;stroke:#9500ff;stroke-width:.999997;stroke-linecap:round;stroke-linejoin:round;stroke-miterlimit:4;stroke-dasharray:none;stroke-opacity:1;visibility:visible"/><path d="M272.11 250.002a7.087 7.087 0 0 1-.448 2.083s-.456 1.744-2.581 3.284" style="fill:none;stroke:#9500ff;stroke-width:.999997;stroke-linecap:round;stroke-linejoin:round;stroke-miterlimit:4;stroke-dasharray:none;stroke-opacity:1;visibility:visible"/><path d="M270.794 102.155a.663.663 0 0 1 .25.458c.026.597-1.006 1.123-2.299 1.174-1.295.053-2.365-.388-2.391-.983a.625.625 0 0 1 .168-.428M267.66 103.563l-.558-6.391M268.88 96.387l.632 7.223M267.107 95.61s.579.767 2.058.734c1.609-.037 1.921-.755 1.921-.755" style="fill:none;stroke:#9500ff;stroke-width:.666665;stroke-linecap:round;stroke-linejoin:round;stroke-miterlimit:4;stroke-dasharray:none;stroke-opacity:1;visibility:visible"/><path d="m250.547 106.53.5-7.752s.05-.171.244-.359c.196-.184.479-.48.479-.48s.209-.315 1.228-.324c1.016-.012 1.317.344 1.317.344s.485.58.565.661c.08.083.157.181.143.445l-.486 7.606" style="fill:none;stroke:#9500ff;stroke-width:.999997;stroke-linecap:round;stroke-linejoin:round;stroke-miterlimit:4;stroke-dasharray:none;stroke-opacity:1;visibility:visible"/><path d="M254.725 105.556c.155.136.244.29.25.459.025.595-1.005 1.122-2.3 1.174-1.294.054-2.364-.388-2.389-.984a.625.625 0 0 1 .168-.425M251.591 106.963l-.557-6.391M252.811 99.79l.631 7.221M251.038 99.012s.58.765 2.057.732c1.61-.037 1.923-.754 1.923-.754" style="fill:none;stroke:#9500ff;stroke-width:.666665;stroke-linecap:round;stroke-linejoin:round;stroke-miterlimit:4;stroke-dasharray:none;stroke-opacity:1;visibility:visible"/><path d="M268.282 248.942s-.559 3.31-4.133 4.315" style="fill:none;stroke:#9500ff;stroke-width:.999997;stroke-linecap:round;stroke-linejoin:round;stroke-miterlimit:4;stroke-dasharray:none;stroke-opacity:1;visibility:visible"/><path d="m254.91 269.582 24.501-6.87" style="fill:none;stroke:#9500ff;stroke-width:1.99999;stroke-linecap:round;stroke-linejoin:round;stroke-miterlimit:4;stroke-dasharray:none;stroke-opacity:1;visibility:visible"/><path d="m260.337 268.506-.019 4.488s-.037.19-.212.404a20.53 20.53 0 0 0-.432.562s-.183.36-1.15.445c-.97.09-1.274-.279-1.274-.279s-.492-.601-.572-.683c-.081-.085-.16-.182-.163-.472l.012-3.165" style="fill:none;stroke:#9500ff;stroke-width:.999997;stroke-linecap:round;stroke-linejoin:round;stroke-miterlimit:4;stroke-dasharray:none;stroke-opacity:1;visibility:visible"/><path d="m258.717 274.271-.94-5.44" style="fill:none;stroke:#9500ff;stroke-width:.666665;stroke-linecap:round;stroke-linejoin:round;stroke-miterlimit:4;stroke-dasharray:none;stroke-opacity:1;visibility:visible"/><path d="m275.074 264.146.024 4.49s-.036.186-.21.406c-.173.221-.424.565-.424.565s-.181.363-1.147.458c-.968.095-1.277-.268-1.277-.268s-.498-.595-.578-.677c-.081-.083-.161-.182-.167-.471l-.018-3.163" style="fill:none;stroke:#9500ff;stroke-width:.999997;stroke-linecap:round;stroke-linejoin:round;stroke-miterlimit:4;stroke-dasharray:none;stroke-opacity:1;visibility:visible"/><path d="m273.509 269.929-.992-5.434" style="fill:none;stroke:#9500ff;stroke-width:.666665;stroke-linecap:round;stroke-linejoin:round;stroke-miterlimit:4;stroke-dasharray:none;stroke-opacity:1;visibility:visible"/><path d="m256.527 269.806-2.497-1.24M251.591 106.963l-2.416 2.88" style="fill:none;stroke:#9500ff;stroke-width:.999997;stroke-linecap:round;stroke-linejoin:round;stroke-miterlimit:4;stroke-dasharray:none;stroke-opacity:1;visibility:visible"/><path d="m263.602 116.31 1.775-15.037M255.018 98.99l.796 4.27M255.814 103.26l-6.249 1.293" style="fill:none;stroke:#9500ff;stroke-width:1.99999;stroke-linecap:round;stroke-linejoin:round;stroke-miterlimit:4;stroke-dasharray:none;stroke-opacity:1;visibility:visible"/><path d="m267.66 103.563-4.547.934M267.102 97.172l-3.989 7.325M263.147 138.658l-3.475-2.742M277.883 102.858l-7.278.412M279.682 262.698l-12.019-8.536M271.277 265.486l-3.614-11.324M265.203 256.216l-3.476-2.744" style="fill:none;stroke:#9500ff;stroke-width:.999997;stroke-linecap:round;stroke-linejoin:round;stroke-miterlimit:4;stroke-dasharray:none;stroke-opacity:1;visibility:visible"/><path d="m263.113 104.497 4.547-.934M269.512 103.61l-2.41-6.438M267.66 103.563l1.22-7.176M263.113 104.497l6.399-.887M271.086 95.589l-16.361 9.967M249.175 109.843l2.416-2.88M253.442 107.011l-2.408-6.439M251.591 106.963l1.22-7.173M249.175 109.843l4.267-2.832" style="fill:none;stroke:#9500ff;stroke-width:.666665;stroke-linecap:round;stroke-linejoin:round;stroke-miterlimit:4;stroke-dasharray:none;stroke-opacity:1;visibility:visible"/><path d="m254.03 268.566 6.307-.06M254.03 268.566l2.497 1.24" style="fill:none;stroke:#9500ff;stroke-width:.999997;stroke-linecap:round;stroke-linejoin:round;stroke-miterlimit:4;stroke-dasharray:none;stroke-opacity:1;visibility:visible"/><path d="m272.517 264.495-13.8 9.776M273.509 269.929l-15.732-1.098" style="fill:none;stroke:#9500ff;stroke-width:.666665;stroke-linecap:round;stroke-linejoin:round;stroke-miterlimit:4;stroke-dasharray:none;stroke-opacity:1;visibility:visible"/><path d="m279.682 262.698-4.608 1.448M279.682 262.698l-8.405 2.788" style="fill:none;stroke:#9500ff;stroke-width:.999997;stroke-linecap:round;stroke-linejoin:round;stroke-miterlimit:4;stroke-dasharray:none;stroke-opacity:1;visibility:visible"/><path d="m257.777 268.831 15.732 1.098M258.717 274.271l13.8-9.776" style="fill:none;stroke:#9500ff;stroke-width:.666665;stroke-linecap:round;stroke-linejoin:round;stroke-miterlimit:4;stroke-dasharray:none;stroke-opacity:1;visibility:visible"/><path d="m371.431 186.522 2.504-5.36" style="fill:none;stroke:red;stroke-width:1.99999;stroke-linecap:round;stroke-linejoin:round;stroke-miterlimit:4;stroke-dasharray:none;stroke-opacity:1;visibility:visible"/><path d="m425 281.531-8.576-3.698" style="fill:none;stroke:#00ff4a;stroke-width:.999997;stroke-linecap:round;stroke-linejoin:round;stroke-miterlimit:4;stroke-dasharray:none;stroke-opacity:1;visibility:visible"/><path d="m269.512 103.61-3.37 13.506M265.377 101.273l-10.84 5.398" style="fill:none;stroke:#9500ff;stroke-width:.999997;stroke-linecap:round;stroke-linejoin:round;stroke-miterlimit:4;stroke-dasharray:none;stroke-opacity:1;visibility:visible"/></svg>