<svg xmlns="http://www.w3.org/2000/svg" baseProfile="full" height="1122.52" preserveAspectRatio="xMinYMin meet" style="width:738px;height:965px" width="793.701" xml:space="preserve"><path d="m373.616 693.318-2.84-1.413 1.319-.24h.014l-.04-2.387-1.826-117.533 88.88 39.013.573 125.747-2.054-1.027-4.56 1.227-.186.04-.12.08-.08.08-.04.08.613 113.36-.187-.094v-.013l-70.48-39.574-2.813-1.586-4.426-2.48-1.747-113.28" style="fill:none;fill-opacity:1;fill-rule:nonzero;stroke:red;stroke-width:1.33333;visibility:visible"/><path d="m375.52 570.785 89.014 38.935-5.414 1.039-88.88-39.014 5.28-.96" style="fill:none;fill-opacity:1;fill-rule:nonzero;stroke:red;stroke-width:1.33333;visibility:visible"/><path d="m464.534 609.719-5.414 1.04.574 125.746M370.242 571.745l88.88 39.015" style="fill:none;stroke:red;stroke-width:.999997;stroke-linecap:round;stroke-linejoin:round;stroke-miterlimit:4;stroke-dasharray:none;stroke-opacity:1;visibility:visible"/><path d="m464.534 609.719.468 123.826.012 2.373M375.52 570.785l-5.28.96M375.52 570.785l89.014 38.935M372.122 692.558l-.014-.893-.04-2.387-1.826-117.533M453.282 850.358l-.014-.013-.186-.095v-.012l-70.48-39.573-2.814-1.587-4.426-2.48" style="fill:none;stroke:red;stroke-width:1.99999;stroke-linecap:round;stroke-linejoin:round;stroke-miterlimit:4;stroke-dasharray:none;stroke-opacity:1;visibility:visible"/><path d="m415.806 834.595.01.01M415.752 834.522l.008.01.02.018.007.02.018.017M415.834 834.633l-.02-.03-.008-.009v-.036M418.629 834.775l-.01.016v.01M418.866 834.564l-.008.012M418.61 834.82l.01-.019.054-.054.073-.074.046-.054.026-.019.011-.025.027-.011" style="fill:none;stroke:red;stroke-width:.999997;stroke-linecap:round;stroke-linejoin:round;stroke-miterlimit:4;stroke-dasharray:none;stroke-opacity:1;visibility:visible"/><path d="m417.479 831.259-.055 2.065" style="fill:none;stroke:red;stroke-width:.666665;stroke-linecap:round;stroke-linejoin:round;stroke-miterlimit:4;stroke-dasharray:none;stroke-opacity:1;visibility:visible"/><path d="m416.034 834.98.064.073.09.072.12.067.146.072.156.047.18.046.184.027.2.019.201.001.192-.008.192-.02.175-.025.155-.046.154-.056.12-.062.091-.063.073-.083M415.625 834.157v.019l-.001.008.01.018-.001.027.02.01.007.02M415.65 834.35v.008h.01v.01l.009.018.009.007.008.018M418.858 834.576l-.001-.012h.009l.001-.008.018-.028.028-.037.018-.046.018-.036.028-.025v-.02M418.858 834.576l-.019.008-.001.016h-.008v.01l-.008.009M418.527 835.04l.295-.423M416.034 834.98l-.228-.384-.019-.025-.026-.039-.008-.01-.066-.109M418.976 834.364l.077-2.836M415.65 834.35l.01-.09M415.625 834.157l.1-3.88" style="fill:none;stroke:red;stroke-width:.999997;stroke-linecap:round;stroke-linejoin:round;stroke-miterlimit:4;stroke-dasharray:none;stroke-opacity:1;visibility:visible"/><path d="M420.803 588.61c.04 1.826-1.453 3.344-3.333 3.385-1.878.042-3.436-1.407-3.475-3.238l-.09-3.207c-.039-1.829 1.455-3.347 3.334-3.389 1.877-.041 3.436 1.41 3.476 3.24l.088 3.209" style="fill:none;fill-opacity:1;fill-rule:nonzero;stroke:red;stroke-width:1.33333;visibility:visible"/><path d="m415.719 585.144-.05.099-.014.117.035.117.069.116.104.1.135.097.168.083.204.078.22.048.252.046.25.026.256.014.266-.024.249-.018.235-.056.217-.052M418.315 585.935l.184-.07.168-.085.128-.09.103-.102.06-.116.037-.103-.021-.117-.05-.1" style="fill:none;stroke:red;stroke-width:.666665;stroke-linecap:round;stroke-linejoin:round;stroke-miterlimit:4;stroke-dasharray:none;stroke-opacity:1;visibility:visible"/><path d="m418.979 585.11-.012-.014-.001-.024-.012-.015-.015-.013-.001-.025-.012-.012M418.93 585.215l.028.038.024.027.028.012.026.013.012.002.015-.015M415.643 590.199l.015.105.041.103.083.103.105.094.133.09.16.073.186.065.196.048.224.048.224.024.238.007.226.01.236-.018.224-.031.209-.044.21-.053M418.352 590.821l.171-.069.143-.068.129-.083.104-.093.079-.093.036-.106.012-.093M415.728 585.09h0l.015-.015-.001-.011.013-.015.01-.014.028-.027" style="fill:none;stroke:red;stroke-width:.999997;stroke-linecap:round;stroke-linejoin:round;stroke-miterlimit:4;stroke-dasharray:none;stroke-opacity:1;visibility:visible"/><path d="m418.926 585.007.012.012.016.026.012.012.013.014v.012M415.792 585.008l-.012.027-.013.014-.012.015-.013.025v.014l-.012.026" style="fill:none;stroke:red;stroke-width:.999997;stroke-linecap:round;stroke-linejoin:round;stroke-miterlimit:4;stroke-dasharray:none;stroke-opacity:1;visibility:visible"/><path d="m417.43 589.575.053-2.138" style="fill:none;stroke:red;stroke-width:.666665;stroke-linecap:round;stroke-linejoin:round;stroke-miterlimit:4;stroke-dasharray:none;stroke-opacity:1;visibility:visible"/><path d="m415.728 585.09.002.04M415.666 585.288l-.022 4.921M418.979 585.081v.027M419.063 585.293l-.035 4.937M416.099 584.517l-.37.558M418.612 584.524l.366.559M415.73 585.13l-.028.037-.012.029-.011.027-.013.025.001.025-.001.015M415.73 585.076h0l-.002.015M418.979 585.081h0M419.063 585.293l-.015-.026v-.027l-.013-.028-.012-.024-.017-.04-.026-.039M418.612 584.524l-.081-.09-.107-.081-.13-.073-.16-.064-.172-.05-.2-.034-.196-.024-.21.004-.212.004-.196.017-.197.043-.184.041-.156.058-.132.078-.104.071-.077.093" style="fill:none;stroke:red;stroke-width:.999997;stroke-linecap:round;stroke-linejoin:round;stroke-miterlimit:4;stroke-dasharray:none;stroke-opacity:1;visibility:visible"/><path d="m372.122 692.558 1.494.76" style="fill:none;fill-opacity:1;fill-rule:nonzero;stroke:red;stroke-width:1.33333;visibility:visible"/><path d="m373.616 693.318-1.494-.76" style="fill:none;stroke:red;stroke-width:1.99999;stroke-linecap:round;stroke-linejoin:round;stroke-miterlimit:4;stroke-dasharray:none;stroke-opacity:1;visibility:visible"/><path d="m415.625 834.157 1.854-2.898M418.977 834.364l-1.553-1.04" style="fill:none;stroke:red;stroke-width:.666665;stroke-linecap:round;stroke-linejoin:round;stroke-miterlimit:4;stroke-dasharray:none;stroke-opacity:1;visibility:visible"/><path d="m417.424 833.324 1.63-1.796M417.424 833.324l-1.699-3.047" style="fill:none;stroke:red;stroke-width:.999997;stroke-linecap:round;stroke-linejoin:round;stroke-miterlimit:4;stroke-dasharray:none;stroke-opacity:1;visibility:visible"/><path d="m419.028 590.23 1.775-1.62M417.483 587.437l3.32 1.173" style="fill:none;fill-opacity:1;fill-rule:nonzero;stroke:red;stroke-width:1.33333;visibility:visible"/><path d="m420.803 588.61-3.373.965M418.979 585.108l-1.496 2.329" style="fill:none;stroke:red;stroke-width:.666665;stroke-linecap:round;stroke-linejoin:round;stroke-miterlimit:4;stroke-dasharray:none;stroke-opacity:1;visibility:visible"/><path d="m375.383 808.007-.023-1.409-1.745-113.28M368.655 694.185l3.627 228.04M368.655 694.185l4.96-.867M460.974 739.998l1.028 237.346M452.655 736.985l.039.053.08.08.121.067M465.015 734.065l2.427 1.213-2.428.64-.692.187M537.28 719.678l.415-.12.36-.12.345-.133.295-.16.265-.147.201-.173.174-.16.12-.187.065-.173.013-.16M537.281 719.678l-33.653 8.96-42.653 11.36" style="fill:none;stroke:#00ff4a;stroke-width:.999997;stroke-linecap:round;stroke-linejoin:round;stroke-miterlimit:4;stroke-dasharray:none;stroke-opacity:1;visibility:visible"/><path d="m459.48 739.945.16.053.202.04.238.027.214.013.24-.013.24-.027.201-.04M459.48 739.945l-6.585-2.76M485.48 731.998l.253-.08.24-.08.16-.12.148-.093.054-.12.025-.12-.025-.12-.095-.12-.147-.107-.198-.093-.24-.107-.255-.08-.32-.053-.32-.04-.36-.027-.36-.013h-.36l-.359.04-.32.04-.32.053-.281.08-.24.08-.199.107-.161.093-.108.12-.052.12.015.12.065.12.121.12.16.107.214.093.265.08.295.067.318.053.348.04.36.027h.359l.361-.027.331-.04.323-.04.305-.08M520.36 722.745l.253-.08.227-.107.173-.093.12-.107.067-.12.015-.12-.042-.12-.093-.093-.145-.12-.202-.107-.238-.08-.255-.08-.32-.053-.319-.04-.361-.04h-.707l-.36.04-.32.04-.32.053-.28.067-.24.093-.173.107-.16.093-.107.107-.04.12.027.12.053.12.12.093.187.12.213.08.24.08.307.08.32.04.333.04.36.027h.362l.345-.027.36-.013.32-.067.28-.053M424.76 971.384l.242-.186.012-.014.346-.28.32-.306.322-.32.28-.294.252-.32.226-.306.214-.294.188-.32.132-.306.148-.294.092-.306.08-.294.066-.306.014-.28.028-.294M417.602 975.104l-.107-.04-.093-.026-.107.026M354.322 935.824l-14.147 3.014M389.002 939.198l-.64-.374-.68-.386-.72-.36-.747-.334-.8-.32-.84-.32-.853-.306-.908-.28-.919-.254-.96-.24-1-.24-1-.2-1.04-.2-1.053-.186-1.082-.16-1.078-.134-1.12-.106-1.12-.094-1.147-.08-1.133-.066-1.16-.04-1.16-.014h-1.16l-1.16.014-1.16.04-1.162.066-1.145.08-1.16.094-1.12.12-1.135.146-1.106.16-1.092.174-1.068.2-1.052.226M423.414 960.758 389 939.198" style="fill:none;stroke:#00ff4a;stroke-width:.999997;stroke-linecap:round;stroke-linejoin:round;stroke-miterlimit:4;stroke-dasharray:none;stroke-opacity:1;visibility:visible"/><path d="m427.722 966.664-.04-.48-.08-.48-.147-.48-.173-.48-.242-.466-.28-.48-.345-.454-.375-.44-.425-.466-.48-.414-.533-.44-.562-.4-.625-.426M422.122 990.584l113.96-37.546 111.638-36.773M404.602 979.318l-.107-.04-.093-.014h-.08" style="fill:none;stroke:#00ff4a;stroke-width:.999997;stroke-linecap:round;stroke-linejoin:round;stroke-miterlimit:4;stroke-dasharray:none;stroke-opacity:1;visibility:visible"/><path d="M422.682 991.904v-.226l-.067-.24-.053-.214-.107-.2-.093-.186-.12-.16-.12-.094-17.52-11.266M422.682 991.904l.093 9.534M422.495 1002.078l.107-.054.08-.106.053-.134.025-.16.015-.186M323.574 927.264l-.12-.04-.094-.026M340.175 938.838l-.013-.214-.04-.2-.067-.226-.08-.2-.093-.174-.122-.146-.118-.094-16.067-10.32M340.175 938.838l.187 9.2M340.094 948.678l.081-.054.079-.08.068-.146.038-.16v-.2" style="fill:none;stroke:#00ff4a;stroke-width:.999997;stroke-linecap:round;stroke-linejoin:round;stroke-miterlimit:4;stroke-dasharray:none;stroke-opacity:1;visibility:visible"/><path d="M377.08 918.958v-.053l-1.697-110.898" style="fill:none;stroke:#00ff4a;stroke-width:1.99999;stroke-linecap:round;stroke-linejoin:round;stroke-miterlimit:4;stroke-dasharray:none;stroke-opacity:1;visibility:visible"/><path d="m381.402 917.985-1.627-108.88M382.602 810.678l1.573 109.027M373.615 693.318l-2.84-1.413 1.319-.24M367.282 694.038l.12.067.173.053.185.04.215.027h.24l.227-.027.213-.013M362.655 691.105l.027.053.078.08M362.76 691.238l4.522 2.8" style="fill:none;stroke:#00ff4a;stroke-width:.999997;stroke-linecap:round;stroke-linejoin:round;stroke-miterlimit:4;stroke-dasharray:none;stroke-opacity:1;visibility:visible"/><path d="m504.335 723.118-39.32 10.427M539.533 718.145l-.013-.2-.079-.187-.12-.173-.188-.187-.213-.16-.265-.16-.32-.16-.362-.133-.4-.147-.412-.12-.468-.12-.478-.08-.522-.08-.532-.08-.546-.04-.56-.04-.56-.013h-.56l-.575.013-.547.04-.532.04-.548.067-.493.093-.48.08-.467.12-24.958 6.6M457.64 735.478l-4.56 1.227M538.64 881.678l32.415-6.853M323.36 927.198l43.083-9.093M404.322 979.264l12.972-4.2M417.294 975.064l.68-.24.68-.24.669-.266.637-.24.614-.28.586-.254.574-.28.546-.28.52-.306.494-.294.466-.28.44-.306.4-.294.16-.12M422.495 1002.078l225.305-74.92M340.094 948.678l14.16-3.054M389.442 949.024l-.44-.28-.468-.266-.479-.254-.521-.266-.519-.24-.56-.24-.56-.24-.6-.214-.601-.226-.614-.2-.72-.24-.72-.2-.758-.2-.76-.2-.8-.174-.8-.186-.828-.16-.812-.134-.842-.146-.878-.12-.88-.12-.908-.094-.919-.106-.921-.054-.919-.08-.933-.04-.922-.04-.946-.026-.852-.014h-.868l-.852.014-.868.026-.84.014-.852.066-.868.04-.84.08-.852.054-.827.106-.893.094-.88.106-.882.134-.865.146-.855.134-.84.16-.826.186M389.442 949.024l34.372 21.72M424.76 971.384l-.066-.04-.412-.306-.468-.294M648.093 926.544v.174l-.039.16-.081.146-.079.08-.094.054M647.721 916.265l.12.093.12.12.12.187.08.173.08.227.04.213v.2M571.055 874.825h.105l.121.04 76.44 41.4M648.281 917.478l-.188 9.066M404.322 979.264l-.107.054-.053.106-.068.134-.039.16-.015.2M422.215 1002.024l.107.04.092.014h.08M422.215 1002.024l-17.493-11.346M404.162 989.384l.013.214.04.226.08.214.079.2.106.186.122.16.12.094M404.04 979.918l.122 9.466M323.36 927.198l-.105.066-.081.08-.054.134-.026.186-.014.174M339.854 948.624l.12.054h.12M339.854 948.624l-16.04-10.4M323.282 936.984l.013.2.04.214.08.226.08.174.107.186.093.134.119.106M323.08 927.838l.2 9.146" style="fill:none;stroke:#00ff4a;stroke-width:1.99999;stroke-linecap:round;stroke-linejoin:round;stroke-miterlimit:4;stroke-dasharray:none;stroke-opacity:1;visibility:visible"/><path d="m464.322 736.105-3.562.933-1.066-.533-2.054-1.027" style="fill:none;stroke:#00ff4a;stroke-width:.999997;stroke-linecap:round;stroke-linejoin:round;stroke-miterlimit:4;stroke-dasharray:none;stroke-opacity:1;visibility:visible"/><path d="m363.215 690.798-.2.04-.133.04-.122.08-.078.067-.027.08 3.787 227v.4M363.215 690.798l8.84-1.52M377.122 921.198l-.04-2.24M452.655 736.985l.613 113.36.294 54.6.373 68.773M539.533 718.145l-.893 163.533v.107l-.387 69.293M453.08 736.705l-.186.04-.12.08-.079.08-.041.08M538.253 951.078l-.013.226-.079.2-.121.214-.159.2-.201.2-.267.186-.28.174-.32.186-.36.134-.398.16" style="fill:none;stroke:#00ff4a;stroke-width:1.99999;stroke-linecap:round;stroke-linejoin:round;stroke-miterlimit:4;stroke-dasharray:none;stroke-opacity:1;visibility:visible"/><path d="m462.002 977.344-.188.054-.212.026-.24.014-.227-.014-.215-.026-.198-.054-.16-.066" style="fill:none;stroke:#00ff4a;stroke-width:.999997;stroke-linecap:round;stroke-linejoin:round;stroke-miterlimit:4;stroke-dasharray:none;stroke-opacity:1;visibility:visible"/><path d="m454.162 973.984-.122-.08-.066-.106-.04-.08" style="fill:none;stroke:#00ff4a;stroke-width:1.99999;stroke-linecap:round;stroke-linejoin:round;stroke-miterlimit:4;stroke-dasharray:none;stroke-opacity:1;visibility:visible"/><path d="m460.562 977.278-6.4-3.294" style="fill:none;stroke:#00ff4a;stroke-width:.999997;stroke-linecap:round;stroke-linejoin:round;stroke-miterlimit:4;stroke-dasharray:none;stroke-opacity:1;visibility:visible"/><path d="m366.534 918.678-.054-.08-.038-.093M453.575 904.945h-.013l-.08.04-.107.013" style="fill:none;stroke:#00ff4a;stroke-width:1.99999;stroke-linecap:round;stroke-linejoin:round;stroke-miterlimit:4;stroke-dasharray:none;stroke-opacity:1;visibility:visible"/><path d="m453.374 904.998-69.199 14.707-2.773-1.72-4.322.92M370.96 922.064l-4.426-3.386M377.122 921.198l-4.84 1.027M372.282 922.225l-.2.039h-.44l-.227-.027-.173-.039-.16-.053-.12-.081M515.321 723.913c0 .585-1.471 1.059-3.289 1.059-1.815 0-3.288-.474-3.288-1.059s1.473-1.059 3.288-1.059c1.818 0 3.29.474 3.29 1.059h-.001M495.863 729.217c0 .585-1.473 1.059-3.29 1.059-1.813 0-3.288-.474-3.288-1.059s1.475-1.059 3.288-1.059c1.818 0 3.29.474 3.29 1.059M419.702 942.64l.24-.093.2-.107.16-.12.133-.133.067-.134.053-.133-.026-.12-.04-.133-.094-.12-.146-.107-.175-.107-.212-.093-.253-.08-.254-.053-.306-.04-.294-.04h-.32l-.333.013-.32.04-.307.04-.294.053-.28.094-.252.08-.214.12-.186.106-.147.12-.107.134-.053.133-.013.133.025.134.068.12.12.12.16.106.2.107.227.08.266.053.267.067.305.027.322.026.333-.013.307-.013.318-.04.308-.067.28-.067.267-.093M504.335 723.118l16.025-.373M504.335 723.118l16.025-.373M417.294 975.064l4.828 15.52M377.082 918.958l4.32-.973M375.383 808.007l4.392 1.098M375.383 808.007l7.219 2.671M377.082 918.958l7.093.747M368.655 694.185l3.439-2.52" style="fill:none;stroke:#00ff4a;stroke-width:.999997;stroke-linecap:round;stroke-linejoin:round;stroke-miterlimit:4;stroke-dasharray:none;stroke-opacity:1;visibility:visible"/><path d="m368.655 694.185 3.4-4.907" style="fill:none;stroke:#00ff4a;stroke-width:1.99999;stroke-linecap:round;stroke-linejoin:round;stroke-miterlimit:4;stroke-dasharray:none;stroke-opacity:1;visibility:visible"/><path d="m460.974 739.998-1.28-3.493" style="fill:none;stroke:red;stroke-width:.999997;stroke-linecap:round;stroke-linejoin:round;stroke-miterlimit:4;stroke-dasharray:none;stroke-opacity:1;visibility:visible"/><path d="m520.36 722.745-5.039 1.168" style="fill:none;stroke:#00ff4a;stroke-width:.999997;stroke-linecap:round;stroke-linejoin:round;stroke-miterlimit:4;stroke-dasharray:none;stroke-opacity:1;visibility:visible"/></svg>