<svg xmlns="http://www.w3.org/2000/svg" baseProfile="full" height="1122.52" preserveAspectRatio="xMinYMin meet" style="width:738px;height:965px" width="793.701" xml:space="preserve"><path d="m460.596 1028.446-17.873-260.634M372.582 961.46l-.616.244-.583.275-.584.341-.566.356-.535.404-.519.455-.502.485-.468.519-.455.566-.421.6-.404.632-.375.648-.355.696-.324.73-.292.76-.274.778-.244.811-.211.825-.179.859-.145.89-.13.891-.08.926-.065.938M364.255 976.088l-.633 12.96M376.21 960.91h-.648l-.487.016-.517.048-.503.081-.502.112-.486.131-.486.161M610.034 844.96l-142.092 49.55M624.036 964.246l-12.628-247.149M514.479 814.96l-51.032 16.693" style="fill:none;stroke:red;stroke-width:.999997;stroke-linecap:round;stroke-linejoin:round;stroke-miterlimit:4;stroke-dasharray:none;stroke-opacity:1;visibility:visible"/><path d="m468.696 1025.79-6.755 2.656M461.941 1028.446l-.163.05-.194.031-.211.016h-.21l-.21-.016-.179-.032-.178-.049M439.876 1020.136l-.113-.065-.082-.05-.048-.08-.032-.064M439.876 1020.136l20.72 8.31M468.988 1025.514l-.017.065-.048.08-.098.066-.129.065M370.362 986.57l-6.74 2.477M363.622 989.048l-.161.05-.195.031-.193.016h-.211l-.196-.016-.193-.032-.147-.049M342.969 981.272l-.115-.048-.064-.048-.049-.065-.016-.066M342.969 981.272l19.359 7.776M370.67 986.31l-.032.065-.05.066-.097.064-.129.064M380.212 961.784l-.519-.195-.534-.161-.534-.145-.52-.131-.518-.096-.518-.081-.501-.05-.357-.014M421.069 977.675l-40.857-15.892M438.613 1005.897l-.065-.779-.08-.76-.099-.778-.113-.794-.128-.777-.163-.795-.161-.777-.196-.792-.21-.779-.21-.777-.26-.859-.276-.844-.307-.841-.324-.843-.325-.826-.355-.81-.372-.809-.39-.795-.405-.794-.389-.68-.388-.696-.405-.664-.407-.664-.436-.65-.437-.63-.455-.634-.452-.598-.47-.583-.471-.567-.486-.55-.485-.535-.503-.517-.502-.503-.519-.47-.517-.47-.519-.439-.519-.42-.534-.389-.534-.372-.518-.341-.52-.323-.534-.308-.518-.276-.535-.259-.519-.244-.533-.21M439.601 1019.877l-.988-13.98M342.725 981.045l10.623-233.743M376.21 960.91l-.308.292-.373.388-.372.404-.34.421-.324.438-.31.47-.306.486-.275.502-.276.518-.259.552-.226.565-.227.568-.21.599-.195.633-.179.648-.163.664-.129.68-.13.696-.095.713-.099.73-.065.728-.048.745M370.67 986.31l.632-12.961M460.263 896.73l-8.917-131.622" style="fill:none;stroke:red;stroke-width:1.99999;stroke-linecap:round;stroke-linejoin:round;stroke-miterlimit:4;stroke-dasharray:none;stroke-opacity:1;visibility:visible"/><path d="m466.006 981.498-5.744-84.768" style="fill:none;stroke:red;stroke-width:.999997;stroke-linecap:round;stroke-linejoin:round;stroke-miterlimit:4;stroke-dasharray:none;stroke-opacity:1;visibility:visible"/><path d="m468.988 1025.514-2.981-44.016M459.738 888.949l152.165-52.617M621.46 923.325l-155.42 58.741M631.57 961.64l-.016.064-.033.065-.082.048-.096.05M625.302 964.246l-.145.032-.18.05-.194.015h-.194l-.211-.032-.177-.033-.164-.032-20.704-7.435M625.302 964.246l6.041-2.38M603.333 956.81l-.112-.05-.099-.065-.046-.064-.035-.065M631.57 961.64l-12.425-247.017M602.346 943.267l-.05-.73-.065-.743-.096-.73-.096-.745-.114-.745-.147-.744-.145-.763-.178-.728-.194-.747-.212-.744-.242-.794-.261-.811-.273-.792-.31-.777-.322-.795-.115-.259M603.041 956.567l-.695-13.301M514.202 806.636l4.308-61.177M516.518 805.876l-61.073 19.796" style="fill:none;stroke:red;stroke-width:1.99999;stroke-linecap:round;stroke-linejoin:round;stroke-miterlimit:4;stroke-dasharray:none;stroke-opacity:1;visibility:visible"/><path d="m611.903 836.332.341-.097.356-.05h.374l.372.05.372.08.373.146.372.178.357.212.356.257.339.308.325.34.308.357.291.406.259.42.229.454.208.455.18.484.145.487.112.485.08.501.035.488" style="fill:none;stroke:red;stroke-width:.999997;stroke-linecap:round;stroke-linejoin:round;stroke-miterlimit:4;stroke-dasharray:none;stroke-opacity:1;visibility:visible"/><path d="m621.802 922.644-.016.179-.033.178-.082.146-.096.113-.114.065" style="fill:none;stroke:red;stroke-width:1.99999;stroke-linecap:round;stroke-linejoin:round;stroke-miterlimit:4;stroke-dasharray:none;stroke-opacity:1;visibility:visible"/><path d="m516.518 805.876.324-.083.324-.032.34.016.341.05.34.08.358.146.338.162.326.228.324.242.322.292.292.323.291.341.26.388.243.388.226.423.195.453.163.454.145.453.099.47.08.47.048.47.017.469-.017.453-4.034 56.313M451.411 916.813l-.017-.39-.066-.373-.08-.388-.129-.388-.145-.373-.179-.356-.21-.325-.227-.308-.244-.275-.259-.228-.275-.192-.276-.147-.274-.098-.292-.047-.259-.017-.26.048-.243.098-.226.128-.211.18-.179.227-.145.257-.113.31-.082.324-.048.338-.017.374.017.372.048.389.098.388.113.39.161.374.179.339.195.341.226.29.26.277.259.226.26.194.275.145.29.115.276.048h.275l.26-.032.243-.096.226-.131.195-.195.179-.21.145-.275.113-.292.098-.324.048-.341.017-.371" style="fill:none;stroke:red;stroke-width:.999997;stroke-linecap:round;stroke-linejoin:round;stroke-miterlimit:4;stroke-dasharray:none;stroke-opacity:1;visibility:visible"/><path d="m448.872 915.28.627.292.292.877-.335.67M454.614 955.735l-.017-.39-.066-.373-.08-.388-.129-.388-.145-.373-.179-.356-.21-.325-.227-.308-.244-.275-.259-.228-.275-.192-.276-.147-.274-.098-.292-.047-.259-.017-.26.048-.243.098-.226.128-.211.18-.179.227-.145.257-.113.31-.082.324-.048.338-.017.374.017.372.048.389.098.388.113.39.161.374.179.339.195.341.226.29.26.277.259.226.26.194.275.145.29.115.276.048h.275l.26-.032.243-.096.226-.131.195-.195.179-.21.145-.275.113-.292.098-.324.048-.341.017-.371" style="fill:none;stroke:red;stroke-width:.999997;stroke-linecap:round;stroke-linejoin:round;stroke-miterlimit:4;stroke-dasharray:none;stroke-opacity:1;visibility:visible"/><path d="m452.075 954.203.627.292.292.877-.335.67M351.948 916.402l-.017-.39-.066-.373-.08-.388-.129-.388-.145-.373-.179-.356-.21-.325-.227-.308-.244-.275-.259-.228-.275-.192-.276-.147-.274-.098-.292-.047-.259-.017-.26.048-.243.098-.226.128-.211.18-.179.227-.145.257-.113.31-.082.324-.048.338-.017.374.017.372.048.389.098.388.113.39.161.374.179.339.195.341.226.29.26.277.259.226.26.194.275.145.29.115.276.048h.275l.26-.032.243-.096.226-.131.195-.195.179-.21.145-.275.113-.292.098-.324.048-.341.017-.371" style="fill:none;stroke:red;stroke-width:.999997;stroke-linecap:round;stroke-linejoin:round;stroke-miterlimit:4;stroke-dasharray:none;stroke-opacity:1;visibility:visible"/><path d="m349.409 914.87.627.292.292.877-.335.67M353.28 881.069l-.017-.39-.066-.373-.08-.388-.129-.388-.145-.373-.179-.356-.21-.325-.227-.308-.244-.275-.259-.228-.275-.192-.276-.147-.274-.098-.292-.047-.259-.017-.26.048-.243.098-.226.128-.211.18-.179.227-.145.257-.113.31-.082.324-.048.338-.017.374.017.372.048.389.098.388.113.39.161.374.179.339.195.341.226.29.26.277.259.226.26.194.275.145.29.115.276.048h.275l.26-.032.243-.096.226-.131.195-.195.179-.21.145-.275.113-.292.098-.324.048-.341.017-.371" style="fill:none;stroke:red;stroke-width:.999997;stroke-linecap:round;stroke-linejoin:round;stroke-miterlimit:4;stroke-dasharray:none;stroke-opacity:1;visibility:visible"/><path d="m350.742 879.536.627.292.292.877-.335.67M434.332 766.118l-.016.55-.05.534-.08.503-.129.488-.145.468-.196.422-.21.403-.243.357-.276.308-.292.275-.323.228-.324.179-.356.146M380.208 755.362l-.13-.065-.114-.114-.097-.162-.048-.178-.032-.194M379.786 754.648l-.096-.048-.083-.048-.048-.05-.016-.049M380.11 744.28l.113-.016.146.016M376.27 754.114l-.145-.065-.114-.115-.081-.161-.065-.178-.015-.194" style="fill:none;stroke:red;stroke-width:.999997;stroke-linecap:round;stroke-linejoin:round;stroke-miterlimit:4;stroke-dasharray:none;stroke-opacity:1;visibility:visible"/><path d="m431.691 770.979-.275.065-.292.047-.276.033h-.292l-.29-.033-.243-.03-.26-.051-.243-.064M376.838 754.114h-.017v.016h-.064v.015h-.114l-.016.017h-.146v-.017h-.114v-.015h-.064v-.016h-.033" style="fill:none;stroke:red;stroke-width:1.99999;stroke-linecap:round;stroke-linejoin:round;stroke-miterlimit:4;stroke-dasharray:none;stroke-opacity:1;visibility:visible"/><path d="m611.903 836.332-1.869 8.628M516.518 805.876l-2.039 9.084" style="fill:none;stroke:red;stroke-width:.999997;stroke-linecap:round;stroke-linejoin:round;stroke-miterlimit:4;stroke-dasharray:none;stroke-opacity:1;visibility:visible"/><path d="m375.441 753.201-.13-9.217M512.756 704.948l-.017 3.207M512.3 703.501l75.993-21.95M324.2 726.683l51.807 16.167 83.155-24.008" style="fill:none;stroke:#00ff4a;stroke-width:.999997;stroke-linecap:round;stroke-linejoin:round;stroke-miterlimit:4;stroke-dasharray:none;stroke-opacity:1;visibility:visible" visibility="hidden"/><path d="m459.571 719.041-.307-.13-.276-.146-.226-.145-.179-.147-.13-.161-.097-.162-.049-.145v-.163l.05-.162.08-.163.146-.161.179-.146.226-.145.259-.147.308-.129.34-.13.372-.113 43.999-12.669M504.267 703.877l.39-.112.437-.099.453-.081.47-.08.502-.048.501-.05.536-.049.535-.014.535-.016h.55l.535.016.533.03.536.034.503.065.501.064.47.064.454.099M512.756 704.948v-.697l-.017-.098v-.177l-.015-.081v-.083l-.016-.063v-.049" style="fill:none;stroke:#00ff4a;stroke-width:.999997;stroke-linecap:round;stroke-linejoin:round;stroke-miterlimit:4;stroke-dasharray:none;stroke-opacity:1;visibility:visible" visibility="hidden"/><path d="m460.851 719.948-.016-.145-.05-.13-.08-.129-.098-.097-.096-.098-.113-.065-.114-.065-.114-.066-.146-.046-.129-.034-.163-.016-.161-.016M375.31 743.984l.017-.21.048-.21.08-.196.114-.177.13-.163.146-.097.161-.082" style="fill:none;stroke:#00ff4a;stroke-width:.999997;stroke-linecap:round;stroke-linejoin:round;stroke-miterlimit:4;stroke-dasharray:none;stroke-opacity:1;visibility:visible" visibility="hidden"/><path d="m459.199 718.652.016.017.016.015.05.05.08.049.097.064.098.064.128.065.147.065.163.066.113.03" style="fill:none;stroke:#00ff4a;stroke-width:.999997;stroke-linecap:round;stroke-linejoin:round;stroke-miterlimit:4;stroke-dasharray:none;stroke-opacity:1;visibility:visible" visibility="hidden"/><path d="m536.812 667.735-105.38 29.37M427.577 698.175l-102.968 28.707M537.073 667.735l-.13-.016-.13.016M324.302 727.416v-.161l.048-.131.065-.113.082-.08.112-.048M537.073 667.735l51.856 14.015M588.928 681.75h.032l.016.016h.035l.014.015h.034v.016h.032v.017h.032v.017h.032v.015h.017v.016h.032v.017h.016v.015h.032v.016h.016v.017h.017v.016h.015l.017.016.016.018.016.016.016.014.018.016v.018h.016v.016l.014.016.018.016v.016h.017v.016l.015.017v.016h.016v.032h.017v.033h.015v.032h.017v.032l.016.016v.034l.016.016v.048h.016v.081h.016v.145M376.838 754.114l2.69-.779M328.756 739.096l-.292-.096-.29-.13-.277-.162-.276-.161-.274-.196-.259-.227-.26-.225-.259-.26-.228-.275-.225-.292-.227-.325-.212-.34-.209-.355-.179-.357-.162-.372-.162-.372-.129-.39-.113-.389-.098-.405-.081-.406-.065-.356-.048-.356-.034-.357-.014-.355M328.756 739.096l47.515 15.019M324.302 727.416l.081 4.521" style="fill:none;stroke:#00ff4a;stroke-width:1.99999;stroke-linecap:round;stroke-linejoin:round;stroke-miterlimit:4;stroke-dasharray:none;stroke-opacity:1;visibility:visible" visibility="hidden"/><path d="m512.708 703.7.03 4.455" style="fill:none;stroke:#00ff4a;stroke-width:.999997;stroke-linecap:round;stroke-linejoin:round;stroke-miterlimit:4;stroke-dasharray:none;stroke-opacity:1;visibility:visible" visibility="hidden"/><path d="m427.577 698.175 3.855-1.07M431.432 697.106l-3.855 1.069" style="fill:none;stroke:#00ff4a;stroke-width:1.99999;stroke-linecap:round;stroke-linejoin:round;stroke-miterlimit:4;stroke-dasharray:none;stroke-opacity:1;visibility:visible" visibility="hidden"/><path d="m434.284 761.112 212.235-63.747M380.37 744.28l53.915 16.83M517.032 706.729l-.048-.145-.113-.147-.146-.13-.178-.146-.243-.127-.26-.114-.308-.114-.34-.113M463.492 720.143h.016v.048l.016.017M515.867 707.247l.113-.016.146.016M592.396 682.817l.13-.016.129.016" style="fill:none;stroke:#9500ff;stroke-width:.999997;stroke-linecap:round;stroke-linejoin:round;stroke-miterlimit:4;stroke-dasharray:none;stroke-opacity:1;visibility:visible" visibility="hidden"/><path d="m592.881 682.817-.113-.016-.114.016M646.698 697.349h-.081l-.098.017M515.867 707.247l.21-.065.21-.064.195-.082.162-.064.146-.082.081-.048.08-.048.05-.032.049-.048.032-.016.016-.018M515.867 707.247l-.487.145M588.928 681.75l-.113-.017-.114.017" style="fill:none;stroke:#9500ff;stroke-width:.999997;stroke-linecap:round;stroke-linejoin:round;stroke-miterlimit:4;stroke-dasharray:none;stroke-opacity:1;visibility:visible" visibility="hidden"/><path d="m515.38 707.393.017-1.7M463.492 720.143h0M515.397 705.692v-.096l.032-.115.032-.081.065-.08.114-.147.146-.114.178-.096.21-.08M646.746 697.43v-.047l-.048-.034M431.691 770.979l211.96-64.315M380.208 755.362l49.312 15.584M379.414 745.221l.13 9.233M380.208 755.362h0l-.017-.016h-.032l-.016-.016h-.016l-.016-.017h-.018l-.016-.016h-.014l-.018-.016h-.016l-.016-.016h-.016l-.016-.016-.017-.018h-.015v-.014h-.033v-.016h-.016v-.018h-.016v-.016h-.017l-.016-.016-.015-.016-.017-.017-.016-.015-.016-.017-.016-.016v-.015h-.018v-.017h-.016v-.017l-.016-.016-.016-.015v-.016l-.016-.017-.016-.016v-.016l-.016-.018v-.016l-.017-.016v-.016l-.015-.016v-.014l-.017-.018v-.017l-.016-.015v-.033l-.017-.017v-.047h-.015v-.065l-.016-.016v-.147M379.414 745.221v-.18h.016v-.065l.016-.015v-.048l.016-.017v-.032l.017-.016v-.016l.016-.018v-.014l.016-.016v-.018l.016-.017v-.015l.018-.016v-.016h.014v-.033h.016v-.016l.018-.015.016-.017.016-.017v-.016h.016v-.015h.017v-.016l.015-.019.017-.014.016-.016h.015v-.016h.017v-.018h.016v-.016h.017l.015-.016.017-.016h.016v-.016h.016v-.016h.032v-.017h.018l.014-.016h.018l.016-.015h.016l.016-.017h.017l.015-.017h.016l.017-.015h.032l.016-.016h.032l83.382-24.139M463.492 720.143l.292.065.29.048.309.064.306.05.342.032.34.048.357.033.356.017.373.031.355.017h1.167l.373-.017.39-.016.371-.032.372-.033.358-.031.356-.05.34-.049.372-.064.341-.082.323-.063.292-.083M515.38 707.393l-43.513 12.636M516.174 704.883l76.221-22.065M592.396 682.817h.016v-.016h.08v-.015h.31v.015h.063l.016.016 53.818 14.53M646.665 701.885l-.016.388-.05.39-.047.373-.082.373-.097.356-.128.323-.13.325-.162.324-.179.29-.193.277-.212.242-.227.243-.242.21-.26.195-.259.163-.244.112-.241.113-.244.082M646.746 697.43l-.081 4.456M589.592 682.623l-.016 1.004" style="fill:none;stroke:#9500ff;stroke-width:1.99999;stroke-linecap:round;stroke-linejoin:round;stroke-miterlimit:4;stroke-dasharray:none;stroke-opacity:1;visibility:visible" visibility="hidden"/></svg>