<svg xmlns="http://www.w3.org/2000/svg" baseProfile="full" height="1122.52" preserveAspectRatio="xMinYMin meet" style="width:738px;height:965px" width="793.701" xml:space="preserve"><path d="m339.757 974.998.081-.06.079-.08.06-.14.04-.16v-.2M339.838 965.158l-.02-.22-.04-.2-.06-.219-.08-.201-.1-.18-.12-.14-.12-.099-16.06-10.321M339.838 965.158l.18 9.199M323.238 953.579l-.12-.04-.1-.02M422.158 1028.4l.099-.061.081-.1.06-.14.019-.16.021-.179M422.338 1018.218v-.22l-.06-.24-.06-.22-.1-.2-.1-.18-.12-.16-.12-.099-17.521-11.261M422.338 1018.218l.1 9.54M404.257 1005.639l-.099-.04-.1-.02h-.081M421.778 1016.9l225.6-74.32M427.378 992.977l-.04-.479-.081-.48-.139-.48-.18-.48-.241-.46-.28-.481-.34-.459-.38-.44-.419-.46-.481-.42-.54-.44-.56-.4-.62-.42M423.077 987.079l-34.419-21.56M388.658 965.52l-.64-.38-.68-.38-.72-.36-.74-.341-.801-.32-.839-.32-.86-.3-.901-.28-.919-.259-.96-.241-1-.239-1-.2-1.04-.2-1.06-.18-1.081-.161-1.079-.14-1.12-.1-1.12-.099-1.14-.081-1.14-.059-1.16-.041-1.16-.019h-1.16l-1.16.019-1.16.041-1.161.059-1.139.081-1.16.099-1.12.12-1.141.141-1.1.16-1.099.179-1.06.2-1.061.221M353.977 962.139l-14.139 3.02M417.257 1001.417l-.099-.039-.1-.021-.101.021M424.417 997.699l.241-.18.359-.3.32-.301.321-.319.28-.301.259-.32.22-.3.22-.299.181-.32.139-.3.141-.3.099-.3.081-.301.059-.299.02-.28.021-.301M460.637 766.52l1.021 237.138M368.458 729.819l3.48 218.72" style="fill:none;stroke:red;stroke-width:.999997;stroke-linecap:round;stroke-linejoin:round;stroke-miterlimit:4;stroke-dasharray:none;stroke-opacity:1;visibility:visible"/><path d="m322.738 954.158.2 9.139M322.938 963.298l.02.2.04.22.079.22.081.18.099.18.1.14.12.101M339.517 974.938l.12.06h.12M339.517 974.938l-16.04-10.4M323.017 953.52l-.1.06-.08.079-.06.14-.02.18-.02.18M403.697 1006.238l.121 9.461M403.818 1015.699l.02.219.04.221.079.219.081.201.099.179.12.161.121.1M421.878 1028.338l.099.04.1.021h.081M421.878 1028.338l-17.5-11.34M403.977 1005.579l-.099.06-.06.099-.061.141-.039.16-.021.199M647.938 943.798l-.181 9.06M570.718 901.139h.1l.12.039 76.44 41.4M647.378 942.579l.12.099.12.12.12.18.08.181.08.22.04.22v.199M647.757 952.858v.181l-.039.16-.081.139-.079.08-.101.06M424.417 997.699l-.06-.04-.419-.301-.461-.299M389.098 975.338l-.44-.28-.461-.26-.479-.26-.521-.26-.519-.24-.56-.24-.56-.24-.6-.22-.601-.22-.62-.2-.72-.24-.72-.201-.759-.199-.76-.199-.801-.18-.799-.181-.821-.16-.819-.14-.841-.14-.879-.12-.88-.12-.9-.1-.92-.1-.921-.06-.919-.079-.94-.041-.921-.04-.94-.02-.859-.019h-.861l-.859.019-.86.02-.841.021-.859.06-.861.039-.84.08-.859.06-.82.099-.9.102-.88.099-.881.14-.859.141-.861.139-.84.16-.82.18M389.098 975.338l34.379 21.72M339.757 974.998l14.16-3.06M422.158 1028.4l225.3-74.921" style="fill:none;stroke:red;stroke-width:1.99999;stroke-linecap:round;stroke-linejoin:round;stroke-miterlimit:4;stroke-dasharray:none;stroke-opacity:1;visibility:visible"/><path d="m416.958 1001.378.68-.24.681-.239.659-.261.64-.239.62-.281.581-.261.579-.279.54-.281.52-.299.5-.3.46-.281.44-.299.4-.3.16-.12M403.977 1005.579l12.98-4.2M323.017 953.52l43.081-9.101M538.297 907.998l32.42-6.86M539.197 745.618l-1.28 231.78M452.357 768.718l1.241 231.32" style="fill:none;stroke:red;stroke-width:1.99999;stroke-linecap:round;stroke-linejoin:round;stroke-miterlimit:4;stroke-dasharray:none;stroke-opacity:1;visibility:visible"/><path d="m453.577 994.998-76.8-47.72M376.738 945.278l-3.28-215M376.778 947.52l-.04-2.241" style="fill:none;stroke:red;stroke-width:.999997;stroke-linecap:round;stroke-linejoin:round;stroke-miterlimit:4;stroke-dasharray:none;stroke-opacity:1;visibility:visible"/><path d="m362.517 729.658 3.581 215.16M537.917 977.4l-.02.219-.079.2-.121.22-.159.2-.201.2-.26.18-.28.18-.32.18-.36.14-.399.16" style="fill:none;stroke:red;stroke-width:1.99999;stroke-linecap:round;stroke-linejoin:round;stroke-miterlimit:4;stroke-dasharray:none;stroke-opacity:1;visibility:visible"/><path d="m461.658 1003.658-.181.06-.22.02-.239.02-.221-.02-.22-.02-.199-.06-.16-.06" style="fill:none;stroke:red;stroke-width:.999997;stroke-linecap:round;stroke-linejoin:round;stroke-miterlimit:4;stroke-dasharray:none;stroke-opacity:1;visibility:visible"/><path d="m453.818 1000.298-.121-.08-.06-.1-.039-.079" style="fill:none;stroke:red;stroke-width:1.99999;stroke-linecap:round;stroke-linejoin:round;stroke-miterlimit:4;stroke-dasharray:none;stroke-opacity:1;visibility:visible"/><path d="m460.218 1003.599-6.4-3.301" style="fill:none;stroke:red;stroke-width:.999997;stroke-linecap:round;stroke-linejoin:round;stroke-miterlimit:4;stroke-dasharray:none;stroke-opacity:1;visibility:visible"/><path d="m366.197 944.998-.06-.081-.039-.099" style="fill:none;stroke:red;stroke-width:1.99999;stroke-linecap:round;stroke-linejoin:round;stroke-miterlimit:4;stroke-dasharray:none;stroke-opacity:1;visibility:visible"/><path d="m371.938 948.539-.2.04h-.44l-.221-.02-.179-.04-.16-.06-.12-.08M376.778 947.52l-4.84 1.02M370.618 948.378l-4.42-3.38M416.957 1001.379l4.821 15.521M453.818 1000.298l-.241-5.3" style="fill:none;stroke:red;stroke-width:.999997;stroke-linecap:round;stroke-linejoin:round;stroke-miterlimit:4;stroke-dasharray:none;stroke-opacity:1;visibility:visible"/><path d="m420.058 776.658-.1-10.16M419.958 766.498l-.02-.24-.04-.239-.079-.221-.081-.219-.12-.162-.12-.139-.14-.1M401.297 755.9l-.12-.041h-.1M401.297 755.9l18.06 9.279M419.718 777.417l.12-.06.079-.12.081-.159.04-.18.02-.24M335.158 732.558l-.2-9.78M334.958 722.778v-.22l-.06-.22-.06-.22-.08-.201-.12-.179-.099-.12-.121-.08M317.878 713.039l-.081-.04h-.1M317.878 713.039l16.539 8.5M334.838 733.298l.1-.039.08-.081.06-.099.04-.161.04-.159v-.201M419.357 765.178l232.7-61.18M385.318 723.079l-.66-.32-.701-.3-.739-.3-.78-.28-.82-.261-.861-.26-.879-.24-.921-.239-.959-.22-1-.2-1.021-.181-1.039-.179-1.06-.16-1.081-.141-1.119-.139-1.12-.101-1.16-.099-1.161-.08-1.16-.081-1.179-.039-1.201-.041h-3.579l-1.201.041-1.199.06-1.18.06-1.181.08-1.179.099-1.161.12-1.139.141-1.121.14-1.12.159-1.079.18M420.778 740.838l-35.46-17.759M425.197 745.699l-.039-.401-.081-.399-.139-.4-.181-.381-.24-.399-.299-.381-.34-.379-.401-.38-.439-.36-.5-.361-.54-.339-.581-.36-.639-.321M349.558 720.298l-14.6 2.48M419.618 750.678l.04-.02.54-.24.52-.24.48-.24.44-.239.42-.24.4-.26.38-.24.34-.26.32-.261.28-.239.26-.24.24-.26.2-.24.18-.241.16-.24.12-.219.1-.24.06-.201.06-.22.02-.199.02-.2" style="fill:none;stroke:#00ff4a;stroke-width:.999997;stroke-linecap:round;stroke-linejoin:round;stroke-miterlimit:4;stroke-dasharray:none;stroke-opacity:1;visibility:visible" visibility="hidden"/><path d="m401.077 755.858-.1.041-.08.099-.079.101-.041.16-.04.159v.2M400.857 766.699l.021.219.039.241.08.22.08.22.12.18.121.12.12.1 18.039 9.38M400.857 766.699l-.12-10.081M419.477 777.378l.121.039h.12M652.458 714.838l.2-9.62M317.697 712.998l-.08.04-.079.08-.081.12-.04.14-.02.18-.019.18M317.598 723.438l.02.22.04.241.06.199.1.2.099.179.1.121.12.08 16.521 8.58M317.598 723.438l-.22-9.7M334.658 733.259l.08.039h.1M652.058 703.998l.139.081.121.119.12.18.1.18.06.22.04.22.02.22M652.058 703.998l-78.861-33.979M652.458 714.838l-.02.22-.04.18-.079.161-.101.099-.14.06M572.998 669.998h.1l.099.021M414.477 752.378l.72-.18.7-.2.68-.22.66-.2.641-.221.62-.239.6-.219.519-.221M401.077 755.858l13.4-3.479M317.697 712.998l160.385-27.007M490.083 683.967l22.45-3.777M521.137 678.738l51.861-8.74M385.857 733.599l-.5-.26-.52-.24-.56-.22-.58-.24-.62-.221-.639-.219-.661-.2-.679-.201-.701-.199-.739-.181-.741-.18-.78-.159-.78-.161-.819-.159-.82-.14-.84-.141-.861-.12-.859-.099-.821-.1-.82-.1-.84-.081-.84-.06-.84-.06-.86-.06-.86-.039-.88-.04-.859-.04-.88-.02h-2.66l-.9.02-.88.02-.88.039-.9.041-.88.06-.88.061-.86.06-.94.099-.92.1-.92.1-.92.12-.9.12-.88.14-.88.14M385.857 733.599l33.76 17.08M334.838 733.298l14.62-2.52M538.193 745.877l113.884-30.319" style="fill:none;stroke:#00ff4a;stroke-width:1.99999;stroke-linecap:round;stroke-linejoin:round;stroke-miterlimit:4;stroke-dasharray:none;stroke-opacity:1;visibility:visible" visibility="hidden"/><path d="m460.639 766.524 77.554-20.647" style="fill:none;stroke:#00ff4a;stroke-width:.999997;stroke-linecap:round;stroke-linejoin:round;stroke-miterlimit:4;stroke-dasharray:none;stroke-opacity:1;visibility:visible" visibility="hidden"/><path d="m419.718 777.417 40.92-10.893M490.083 683.967l-12.001 2.024M478.082 685.991l12.001-2.024M521.137 678.738l-8.605 1.452M512.532 680.19l8.605-1.452" style="fill:none;stroke:#00ff4a;stroke-width:1.99999;stroke-linecap:round;stroke-linejoin:round;stroke-miterlimit:4;stroke-dasharray:none;stroke-opacity:1;visibility:visible" visibility="hidden"/></svg>