<svg xmlns="http://www.w3.org/2000/svg" baseProfile="full" height="1122.52" preserveAspectRatio="xMinYMin meet" style="width:738px;height:965px" width="793.701" xml:space="preserve"><path d="m471.41 281.951.359.234.379.22.379.195.4.17.423.155.422.133M473.772 283.058l.95.255M530.504 277.11l-.087-.04-.061-.007-.036.003M475.793 250.3l-5.426 11.53M470.367 261.83l-.397.853-.37.877-.332.86-.312.86-.275.864-.249.853-.215.85-.192.836-.145.832-.132.831-.087.804-.061.787-.031.785.006.759.041.742.076.728.098.703.131.676.166.66.198.62.235.607.255.58.285.541.325.513.355.487.377.45.41.419.43.388.454.356M421.764 491.27 554.9 269.55M422.888 491.86l-.152-.082-.164-.095-.177-.093-.19-.091-.165-.095-.15-.07-.126-.062M429.274 495.604l-.015-.022-.05-.032-.091-.064-.128-.074M357.242 461.76l-.087-.025-.052-.021-.01-.011M357.242 461.762l64.524 29.508M428.99 495.412l-6.101-3.552M413.81 488.027l-.228-.125-.242-.135-.252-.135-.265-.145-.265-.145-.266-.135-.264-.133-.24-.124-.213-.102-.2-.09-.164-.083-.125-.05-.087-.026-.05-.021-.012.014.039.032.066.054.114.074.14.096.191.104.204.128.228.124.252.147.267.133.265.146.265.145.264.133.242.124.236.112.204.103.174.081.152.07.111.041.063.017.036.008-.014-.021-.052-.044-.09-.065-.127-.084-.167-.107-.19-.116M372.696 469.22l-.216-.125-.228-.137-.252-.134-.266-.133-.252-.147-.254-.122-.252-.135-.226-.113-.214-.102-.176-.081-.15-.072-.114-.05-.086-.029-.036-.009.001.025.039.032.076.055.104.075.152.094.178.106.203.112.228.128.24.134.255.148.264.132.252.135.253.135.239.112.214.113.202.09.162.083.138.06.101.04.06.007.025-.003-.026-.021-.054-.044-.089-.064-.139-.084-.165-.095-.19-.116M382.922 473.894l-.243-.136-.252-.148-.279-.143-.278-.157-.278-.144-.29-.156-.278-.144-.264-.134-.24-.124-.226-.112-.2-.09-.164-.071-.14-.06-.098-.04-.06-.007-.024.003.026.023.053.054.101.063.128.085.178.106.19.116.228.125.243.147.265.145.278.145.278.156.291.156.279.144.262.134.266.133.226.112.215.103.188.092.15.06.11.049.089.028.038.01-.003-.024-.039-.033-.078-.066-.115-.074-.14-.096-.19-.104-.204-.126M403.471 483.303l-.24-.136-.253-.145-.279-.158-.279-.156-.29-.156-.29-.142-.29-.156-.266-.134-.25-.122-.24-.111-.2-.104-.176-.08-.138-.05-.1-.037-.073-.018h-.024l.027.025.052.041.09.078.139.084.165.104.192.117.228.125.254.146.266.146.279.156.29.155.289.155.278.145.279.144.263.135.24.112.226.112.188.08.152.07.124.05.086.029.049.008v-.012l-.028-.035-.079-.065-.114-.073-.152-.096-.179-.104-.216-.127" style="fill:none;stroke:red;stroke-width:.999997;stroke-linecap:round;stroke-linejoin:round;stroke-miterlimit:4;stroke-dasharray:none;stroke-opacity:1;visibility:visible" visibility="hidden"/><path d="m540.021 310.98 21.834-36.4M476.135 266.098l-.295.627-.27.637-.27.639-.244.648-.221.633-.223.633-.197.632-.175.63-.173.63-.139.613-.13.602-.113.6-.094.599-.082.585-.069.584-.048.57-.022.558-.013.552v.544l.023.528.036.575.064.561.08.545.096.535.117.52.14.493.164.492.173.455.194.442.219.44.057.112M476.135 266.097l5.414-11.53M474.72 283.313l31.727 8.676M506.447 291.989l.453.105.467.09.476.07.497.051.508.017.517.001.53-.02.537-.049.548-.071.548-.083.532-.107.543-.133.552-.155.552-.168.56-.194.573-.218.57-.23.566-.258.568-.264.564-.303.633-.33.62-.369.616-.378.626-.416.625-.428.612-.45.61-.465.605-.497.597-.498.592-.533.59-.546.581-.557.572-.58.564-.602.549-.603.547-.625.523-.638.51-.645.476-.62.463-.63.437-.643.439-.639.425-.65.4-.663M530.32 277.066l7.08-11.772M357.092 461.703 459.28 246.006M429.088 495.535l.099.039.063.032.025-.003M363.36 465.348l.137.084.167.095.163.081.165.095.164.081.136.062.115.061 64.68 29.63M357.092 461.703l.002.024.038.02.063.043.09.053.103.063M561.64 274.311l.103.087.077.079.043.056-.008.047M561.639 274.311l-5.619-4.196M554.9 269.55l.136.037.164.07.16.07.18.094.175.092.164.094.144.108M554.9 269.55l-17.284-4.26M537.399 265.295l.046-.028.072.006.098.016M363.36 465.348l-5.975-3.442M481.31 254.3l.09.074.08.067.05.056.017.033.002.037M481.31 254.3l-5.518-4M474.746 249.764l.121.036.138.06.165.07.162.084.165.094.154.096.141.094M474.745 249.764l-15.289-3.762M459.279 246.006l.033-.028.06.007.088.017" style="fill:none;stroke:red;stroke-width:1.99999;stroke-linecap:round;stroke-linejoin:round;stroke-miterlimit:4;stroke-dasharray:none;stroke-opacity:1;visibility:visible" visibility="hidden"/><path d="m497.297 382.206 42.724-71.226" style="fill:none;stroke:red;stroke-width:.999997;stroke-linecap:round;stroke-linejoin:round;stroke-miterlimit:4;stroke-dasharray:none;stroke-opacity:1;visibility:visible" visibility="hidden"/><path d="m429.274 495.604 68.023-113.398" style="fill:none;stroke:red;stroke-width:1.99999;stroke-linecap:round;stroke-linejoin:round;stroke-miterlimit:4;stroke-dasharray:none;stroke-opacity:1;visibility:visible" visibility="hidden"/><path d="m421.764 491.272-7.954-3.245M422.888 491.86l-9.078-3.833M363.36 465.348l9.336 3.872M363.36 465.348l9.337 3.872M372.697 469.22l10.225 4.674M372.696 469.22l10.225 4.674M413.81 488.027l-10.339-4.724M413.81 488.027l-10.339-4.724" style="fill:none;stroke:red;stroke-width:.999997;stroke-linecap:round;stroke-linejoin:round;stroke-miterlimit:4;stroke-dasharray:none;stroke-opacity:1;visibility:visible" visibility="hidden"/><path d="m503.933 386.765 118.235 78.467" style="fill:none;stroke:#00ff4a;stroke-width:.999997;stroke-linecap:round;stroke-linejoin:round;stroke-miterlimit:4;stroke-dasharray:none;stroke-opacity:1;visibility:visible" visibility="hidden"/><path d="m540.077 310.907.859.616M540.935 311.523l126.862 91.125M628.87 469.68l-.242.383-.258.36-.296.35-.294.327-.326.294-.337.27-.352.248-.343.211-.369.176-.363.14-.35.103-.358.066-.346.032-.35-.006-.318-.056-.32-.082-.288-.118-.28-.156-128.793-85M628.87 469.68l38.972-66.12M667.798 402.648l.092.076.058.116.036.118v.144l-.024.158-.047.15-.07.15" style="fill:none;stroke:#00ff4a;stroke-width:1.99999;stroke-linecap:round;stroke-linejoin:round;stroke-miterlimit:4;stroke-dasharray:none;stroke-opacity:1;visibility:visible" visibility="hidden"/><path d="m493.039 401.291 54.625 35.612" style="fill:none;stroke:#9500ff;stroke-width:.999997;stroke-linecap:round;stroke-linejoin:round;stroke-miterlimit:4;stroke-dasharray:none;stroke-opacity:1;visibility:visible"/><path d="m484.79 403.058 62.38 40.429M552.83 440.271l-.187.377-.207.368-.236.358-.244.346-.263.324-.285.303-.301.279-.304.256-.316.232-.32.196-.322.173-.338.137-.317.1-.32.064-.321.04-.301.003-.29-.035-.284-.06-.262-.109-.241-.136M557.797 429.142l-4.967 11.128" style="fill:none;stroke:#9500ff;stroke-width:1.99999;stroke-linecap:round;stroke-linejoin:round;stroke-miterlimit:4;stroke-dasharray:none;stroke-opacity:1;visibility:visible"/><path d="m547.171 443.487.493-6.584" style="fill:none;stroke:#9500ff;stroke-width:.999997;stroke-linecap:round;stroke-linejoin:round;stroke-miterlimit:4;stroke-dasharray:none;stroke-opacity:1;visibility:visible"/></svg>