<svg xmlns="http://www.w3.org/2000/svg" baseProfile="full" height="1122.52" preserveAspectRatio="xMinYMin meet" style="width:792px;height:931px" width="793.701" xml:space="preserve"><path d="m241.351 395.406-74.561-29.161-25.491-19.422 11.004-11.841 3.041-1.353 97.3 37.848 3.186 1.24M260.933 374.7l3.786 1.475 73.052 28.415M347.142 408.236l129.608 50.419 1.306 16.304-15.862 6.584-124.53-48.567M331.083 430.411l-42.312-16.503" style="fill:none;stroke:red;stroke-width:1.99999;stroke-linecap:round;stroke-linejoin:round;stroke-miterlimit:4;stroke-dasharray:none;stroke-opacity:1;visibility:visible"/><path d="m344.291 419.736 117.029 45.515 15.432-6.596M260.74 387.242l3.624 1.412 71.401 27.768M179.653 355.707l-12.864 10.538M461.319 465.251l.875 16.292M152.302 334.982l27.352 20.724 72.77 28.301 3.821 1.487M164.36 352.24c.254-.3.554-.476.877-.476.915.001 1.656 1.395 1.656 3.115 0 1.72-.741 3.115-1.656 3.115-.341 0-.659-.197-.924-.532M156.78 345.951c0 1.72-.741 3.115-1.654 3.115-.916 0-1.657-1.396-1.657-3.116 0-1.719.741-3.113 1.656-3.113.913 0 1.655 1.393 1.655 3.113v.001" style="fill:none;stroke:red;stroke-width:.999997;stroke-linecap:round;stroke-linejoin:round;stroke-miterlimit:4;stroke-dasharray:none;stroke-opacity:1;visibility:visible"/><path d="m160.036 352.165 5.846.245M159.822 357.191l6.26.263M158.945 352.915l.775-.648M158.802 356.354l.719.706M160.357 352.315a.463.463 0 0 0-.637-.045M159.52 357.06a.464.464 0 0 0 .302.132.473.473 0 0 0 .336-.121M160.16 357.071c.216-.201.385-.45.492-.728M160.65 356.343c.195-.52.306-1.066.33-1.618a5.08 5.08 0 0 0-.195-1.645M160.784 353.08a1.897 1.897 0 0 0-.427-.764M158.929 352.927a1.405 1.405 0 0 0-.355.524M158.576 353.451a3.704 3.704 0 0 0-.24 1.162 3.865 3.865 0 0 0 .144 1.177M158.48 355.79c.057.204.164.39.306.55M161.333 355.173l5.481-.676" style="fill:none;stroke:red;stroke-width:.999997;stroke-linecap:round;stroke-linejoin:round;stroke-miterlimit:2;stroke-dasharray:none;stroke-opacity:1;visibility:visible"/><path d="m260.933 374.7-5.103-1.983M255.83 372.717l5.103 1.983M347.142 408.236l-9.371-3.646M337.771 404.59l9.371 3.646M331.083 430.411l6.581 2.565M337.664 432.976l-6.581-2.565" style="fill:none;stroke:red;stroke-width:1.99999;stroke-linecap:round;stroke-linejoin:round;stroke-miterlimit:4;stroke-dasharray:none;stroke-opacity:1;visibility:visible"/><path d="m335.765 416.422 8.526 3.314M256.245 385.494l4.495 1.748M344.291 419.736l-8.526-3.314M160.16 357.071l19.493-1.364M160.158 357.071l6.631 9.174M260.74 387.242l-4.495-1.748M158.786 356.34l5.527 1.122" style="fill:none;stroke:red;stroke-width:.999997;stroke-linecap:round;stroke-linejoin:round;stroke-miterlimit:4;stroke-dasharray:none;stroke-opacity:1;visibility:visible"/><path d="m159.822 357.191 6.06-4.781M160.036 352.165l6.046 5.289" style="fill:none;stroke:red;stroke-width:.999997;stroke-linecap:round;stroke-linejoin:round;stroke-miterlimit:2;stroke-dasharray:none;stroke-opacity:1;visibility:visible"/><path d="m288.28 414.21-6.254 2.36-2.941 1.112M272.653 420.106l-1.31.494-140.625 53.047-7.253-3.557M116.525 466.684l-6.153-3.021M108.601 456.259l.533-9.924 72.46-27.372M181.594 418.963l74.559-28.167" style="fill:none;stroke:#00ff4a;stroke-width:1.99999;stroke-linecap:round;stroke-linejoin:round;stroke-miterlimit:4;stroke-dasharray:none;stroke-opacity:1;visibility:visible"/><path d="m131.593 457.482-.855 16.02M109.386 446.46l22.24 10.888 156.716-59.492-.032 16.02M118.216 463.811a5.061 5.061 0 0 1-.586-1.495c-.42-1.854.19-3.57 1.362-3.833 1.168-.265 2.456 1.025 2.874 2.877.088.391.131.776.131 1.144" style="fill:none;stroke:#00ff4a;stroke-width:.999997;stroke-linecap:round;stroke-linejoin:round;stroke-miterlimit:4;stroke-dasharray:none;stroke-opacity:1;visibility:visible"/><path d="M270.682 418.428c-.727.995-1.695 1.498-2.484 1.18-1.081-.434-1.412-2.245-.74-4.04.67-1.801 2.088-2.906 3.17-2.474.808.329 1.196 1.428 1.059 2.714M268.28 402.543c0 .817-1.439 1.479-3.21 1.479-1.772 0-3.208-.662-3.208-1.479 0-.817 1.436-1.479 3.21-1.479 1.769 0 3.206.662 3.206 1.48l.002-.001M259.693 398.156c.874.208 1.473.631 1.473 1.118 0 .692-1.219 1.254-2.724 1.254-1.504 0-2.725-.562-2.725-1.254 0-.444.497-.834 1.246-1.058M254.946 396.148c0 .818-1.437 1.48-3.208 1.48-1.773-.001-3.21-.663-3.21-1.481.001-.816 1.438-1.477 3.211-1.477 1.769 0 3.207.66 3.207 1.478" style="fill:none;stroke:#00ff4a;stroke-width:.999997;stroke-linecap:round;stroke-linejoin:round;stroke-miterlimit:4;stroke-dasharray:none;stroke-opacity:1;visibility:visible"/><path d="M156.369 441.608c0 1.982-3.305 3.632-7.675 3.984" style="fill:none;stroke:#00ff4a;stroke-width:1.99999;stroke-linecap:round;stroke-linejoin:round;stroke-miterlimit:4;stroke-dasharray:none;stroke-opacity:1;visibility:visible"/><path d="M130.073 444.362c0-2.034 3.492-3.722 8.041-4.012M138.044 440.26c1.292-1.576 4.786-2.705 8.896-2.705 5.208 0 9.429 1.815 9.429 4.055" style="fill:none;stroke:#00ff4a;stroke-width:.999997;stroke-linecap:round;stroke-linejoin:round;stroke-miterlimit:4;stroke-dasharray:none;stroke-opacity:1;visibility:visible"/><path d="M148.612 445.419c-1.082 1.727-4.752 2.997-9.107 2.997-5.208 0-9.432-1.814-9.432-4.054" style="fill:none;stroke:#00ff4a;stroke-width:1.99999;stroke-linecap:round;stroke-linejoin:round;stroke-miterlimit:4;stroke-dasharray:none;stroke-opacity:1;visibility:visible"/><path d="m138.197 440.668-.459 7.418" style="fill:none;stroke:#00ff4a;stroke-width:.999997;stroke-linecap:round;stroke-linejoin:round;stroke-miterlimit:4;stroke-dasharray:none;stroke-opacity:1;visibility:visible"/><path d="M118.156 466.202a1.455 1.455 0 0 0-.127.628M119.954 465.608a1.915 1.915 0 0 0-.708-.546M121.118 468.712a5.267 5.267 0 0 0-1.164-3.104M120.945 469.59c.125-.274.184-.574.173-.878M120.346 469.835a.475.475 0 0 0 .599-.245M119.246 465.062a.47.47 0 0 0-.36-.012.464.464 0 0 0-.25.22M119.39 469.458l.956.377M118.164 466.184l.472-.914M120.684 469.835l6.92-2.596M118.888 465.048l7.338-2.752M121.358 469.262l6.423-4.604M118.866 469.059c.135.167.31.303.508.393" style="fill:none;stroke:#00ff4a;stroke-width:.999997;stroke-linecap:round;stroke-linejoin:round;stroke-miterlimit:2;stroke-dasharray:none;stroke-opacity:1;visibility:visible"/><path d="M118.029 466.828a3.773 3.773 0 0 0 .837 2.23" style="fill:none;stroke:#00ff4a;stroke-width:.999997;stroke-linecap:round;stroke-linejoin:round;stroke-miterlimit:2;stroke-dasharray:none;stroke-opacity:1;visibility:visible"/><path d="M125.838 462.084c.867-.242 1.918.818 2.342 2.362.429 1.544.069 2.99-.803 3.232" style="fill:none;stroke:#00ff4a;stroke-width:.999997;stroke-linecap:round;stroke-linejoin:round;stroke-miterlimit:4;stroke-dasharray:none;stroke-opacity:1;visibility:visible"/><path d="M105.765 462.743c.136.17.31.303.508.393M104.93 460.518c.014.404.094.802.24 1.182a3.707 3.707 0 0 0 .594 1.044M105.054 459.89a1.457 1.457 0 0 0-.124.628M106.853 459.294a1.924 1.924 0 0 0-.708-.544M108.018 462.398a5.233 5.233 0 0 0-1.164-3.104M107.844 463.278a1.91 1.91 0 0 0 .174-.88M107.248 463.519a.47.47 0 0 0 .336 0 .44.44 0 0 0 .26-.243M106.146 458.748a.457.457 0 0 0-.36-.013.476.476 0 0 0-.249.221M106.29 463.142l.957.377M105.064 459.871l.472-.915M107.584 463.519l6.918-2.596M105.786 458.734l7.34-2.751M108.257 462.948l6.423-4.604" style="fill:none;stroke:#00ff4a;stroke-width:.999997;stroke-linecap:round;stroke-linejoin:round;stroke-miterlimit:2;stroke-dasharray:none;stroke-opacity:1;visibility:visible"/><path d="M112.737 455.772c.87-.242 1.917.815 2.343 2.36.429 1.548.069 2.992-.802 3.234M195.768 420.418c0 .592-.96 1.072-2.144 1.072-1.184 0-2.144-.48-2.144-1.072 0-.592.96-1.072 2.144-1.072 1.184 0 2.144.48 2.144 1.072" style="fill:none;stroke:#00ff4a;stroke-width:.999997;stroke-linecap:round;stroke-linejoin:round;stroke-miterlimit:4;stroke-dasharray:none;stroke-opacity:1;visibility:visible"/><path d="m272.653 420.106 6.432-2.424M279.085 417.682l-6.432 2.424M120.346 469.835l3.119.255M119.246 465.062l-2.721 1.622M107.247 463.519l3.125.144" style="fill:none;stroke:#00ff4a;stroke-width:1.99999;stroke-linecap:round;stroke-linejoin:round;stroke-miterlimit:4;stroke-dasharray:none;stroke-opacity:1;visibility:visible"/><path d="m121.997 462.504 9.596-5.022M106.146 458.748l3.24-12.288M118.029 466.828l3.968-4.324M254.946 396.148l13.334 6.395M268.28 402.543l-13.334-6.395M130.073 444.362l7.665 3.724" style="fill:none;stroke:#00ff4a;stroke-width:.999997;stroke-linecap:round;stroke-linejoin:round;stroke-miterlimit:4;stroke-dasharray:none;stroke-opacity:1;visibility:visible"/><path d="m108.257 462.948 19.524 1.71M121.358 469.262l-6.678-10.918" style="fill:none;stroke:#00ff4a;stroke-width:.999997;stroke-linecap:round;stroke-linejoin:round;stroke-miterlimit:2;stroke-dasharray:none;stroke-opacity:1;visibility:visible"/><path d="m308.809 300.038-46.446-11.285-3.082 1.292-9.711 11.458 74.864 35.098M342.695 345.16l210.208 98.552 15.417-6.606-1.355-16.312-156.54-73.561" style="fill:none;stroke:#9500ff;stroke-width:1.99999;stroke-linecap:round;stroke-linejoin:round;stroke-miterlimit:4;stroke-dasharray:none;stroke-opacity:1;visibility:visible"/><path d="m551.59 427.522 1.29 15.978M259.447 290.129 317 317.174M338.246 327.157l213.363 100.26 15.355-6.622M268.15 299.45c.693 2.387.084 4.663-1.364 5.083-1.448.42-3.183-1.174-3.879-3.56-.692-2.387-.08-4.663 1.368-5.083 1.448-.42 3.182 1.173 3.875 3.56" style="fill:none;stroke:#9500ff;stroke-width:.999997;stroke-linecap:round;stroke-linejoin:round;stroke-miterlimit:4;stroke-dasharray:none;stroke-opacity:1;visibility:visible"/><path d="M305.765 295.063a.455.455 0 0 0 .038-.337M301.723 292.526l.924-.323M305.809 294.749l-.232-.956M302.666 292.198c-.008 0-.013 0-.019.005M305.578 293.794c0-.008-.005-.013-.005-.016M305.573 293.778a1.324 1.324 0 0 0-.3-.53M305.273 293.249a3.679 3.679 0 0 0-1.998-1.09M303.275 292.158a1.363 1.363 0 0 0-.61.039M301.653 298.195l1.232-5.029" style="fill:none;stroke:#9500ff;stroke-width:.999997;stroke-linecap:round;stroke-linejoin:round;stroke-miterlimit:2;stroke-dasharray:none;stroke-opacity:1;visibility:visible"/><path d="M301.48 292.737c.056-.107.028.02.14-.015 0 0 .57-.282 2.14.545.946.5 1.808 1.643 1.808 1.643" style="fill:none;stroke:#9500ff;stroke-width:.666665;stroke-linecap:round;stroke-linejoin:round;stroke-miterlimit:2;stroke-dasharray:none;stroke-opacity:1;visibility:visible"/><path d="m298.767 297.669 2.714-4.932M304.053 298.197c.827-1.514 1.716-3.134 1.713-3.134" style="fill:none;stroke:#9500ff;stroke-width:.999997;stroke-linecap:round;stroke-linejoin:round;stroke-miterlimit:2;stroke-dasharray:none;stroke-opacity:1;visibility:visible"/><path d="m303.275 292.159 5.534 7.879M338.246 327.157l-13.812 9.444" style="fill:none;stroke:#9500ff;stroke-width:1.99999;stroke-linecap:round;stroke-linejoin:round;stroke-miterlimit:4;stroke-dasharray:none;stroke-opacity:1;visibility:visible"/><path d="m324.434 336.601 13.812-9.444" style="fill:none;stroke:#9500ff;stroke-width:.999997;stroke-linecap:round;stroke-linejoin:round;stroke-miterlimit:4;stroke-dasharray:none;stroke-opacity:1;visibility:visible"/><path d="m301.481 292.737 2.572 5.46" style="fill:none;stroke:#9500ff;stroke-width:.999997;stroke-linecap:round;stroke-linejoin:round;stroke-miterlimit:2;stroke-dasharray:none;stroke-opacity:1;visibility:visible"/><path d="M513.861 239.129c0-2.273 4.094-4.115 9.139-4.115 2.285 0 4.376.378 5.979 1.003M493.485 229.256c0-1.44 1.945-2.676 4.712-3.202" style="fill:none;stroke:#ffdf00;stroke-width:.999997;stroke-linecap:round;stroke-linejoin:round;stroke-miterlimit:4;stroke-dasharray:none;stroke-opacity:1;visibility:visible"/><path d="M508.916 229.256c0 1.918-3.459 3.474-7.716 3.474-4.26 0-7.715-1.556-7.715-3.474" style="fill:none;stroke:#ffdf00;stroke-width:1.99999;stroke-linecap:round;stroke-linejoin:round;stroke-miterlimit:4;stroke-dasharray:none;stroke-opacity:1;visibility:visible"/><path d="M503.579 225.949c3.096.451 5.338 1.761 5.338 3.305" style="fill:none;stroke:#ffdf00;stroke-width:.999997;stroke-linecap:round;stroke-linejoin:round;stroke-miterlimit:4;stroke-dasharray:none;stroke-opacity:1;visibility:visible"/><path d="M500.821 231.053v-19.499" style="fill:none;stroke:#ffdf00;stroke-width:.666665;stroke-linecap:round;stroke-linejoin:round;stroke-miterlimit:10;stroke-dasharray:none;stroke-opacity:1;visibility:visible"/><path d="m449.659 307.069-32.485 15.116-1.558.725M411.244 324.943l-2.122.988-22.092 10.28-53.873-25.306" style="fill:none;stroke:#ffdf00;stroke-width:1.99999;stroke-linecap:round;stroke-linejoin:round;stroke-miterlimit:4;stroke-dasharray:none;stroke-opacity:1;visibility:visible"/><path d="m437.47 350.562 109.723-50.81-.882-15.839-25.992-9.723-70.66 32.877" style="fill:none;stroke:#ffdf00;stroke-width:1.99999;stroke-linecap:round;stroke-linejoin:round;stroke-miterlimit:4;stroke-dasharray:none;stroke-opacity:1;visibility:visible"/><path d="m387.196 336.315 22.976 10.812 135.939-63.156" style="fill:none;stroke:#ffdf00;stroke-width:.999997;stroke-linecap:round;stroke-linejoin:round;stroke-miterlimit:4;stroke-dasharray:none;stroke-opacity:1;visibility:visible"/><path d="M423.715 337.629c0 .781-1.41 1.417-3.145 1.417-1.738 0-3.147-.635-3.147-1.417 0-.783 1.41-1.419 3.147-1.419 1.736.001 3.145.636 3.145 1.42v-.001M408.986 331.753c0 .782-1.41 1.417-3.146 1.417-1.737 0-3.146-.635-3.146-1.417 0-.783 1.409-1.418 3.146-1.418 1.736 0 3.146.635 3.146 1.418" style="fill:none;stroke:#ffdf00;stroke-width:.999997;stroke-linecap:round;stroke-linejoin:round;stroke-miterlimit:4;stroke-dasharray:none;stroke-opacity:1;visibility:visible"/><path d="M525.963 286.898c.017 1.857-2.813 3.453-6.714 3.995" style="fill:none;stroke:#ffdf00;stroke-width:1.99999;stroke-linecap:round;stroke-linejoin:round;stroke-miterlimit:4;stroke-dasharray:none;stroke-opacity:1;visibility:visible"/><path d="M500.796 289.362c.099-1.788 3.052-3.137 6.987-3.372M507.608 285.72c1.279-1.604 4.763-2.78 8.875-2.821 5.213-.054 9.456 1.738 9.48 3.999" style="fill:none;stroke:#ffdf00;stroke-width:.999997;stroke-linecap:round;stroke-linejoin:round;stroke-miterlimit:4;stroke-dasharray:none;stroke-opacity:1;visibility:visible"/><path d="M518.87 291.367c-1.144 1.596-4.801 2.618-9.061 2.384-5.097-.278-9.131-2.244-9.014-4.388" style="fill:none;stroke:#ffdf00;stroke-width:1.99999;stroke-linecap:round;stroke-linejoin:round;stroke-miterlimit:4;stroke-dasharray:none;stroke-opacity:1;visibility:visible"/><path d="m507.535 286.105-.036 7.404M414.496 333.798c.875.208 1.474.63 1.474 1.116 0 .695-1.22 1.257-2.724 1.257-1.504 0-2.726-.561-2.726-1.257 0-.443.498-.832 1.247-1.056M430.468 351.442c-.781.955-1.776 1.405-2.546 1.045-1.055-.494-1.287-2.317-.52-4.077.767-1.76 2.245-2.785 3.298-2.295.792.368 1.12 1.488.91 2.766" style="fill:none;stroke:#ffdf00;stroke-width:.999997;stroke-linecap:round;stroke-linejoin:round;stroke-miterlimit:4;stroke-dasharray:none;stroke-opacity:1;visibility:visible"/><path d="M552.639 287.689c.074-.203.1-.419.077-.636M550.172 284.242a.47.47 0 0 0-.337.028.453.453 0 0 0-.242.263M551.153 284.543l-.981-.3M552.633 287.709l-.397.948M549.835 284.269l-2.315 1.084M552.003 288.898l-4.303 2.01M549.205 284.891l-1.729 1.46M538.679 278.273a1.382 1.382 0 0 0-.536-.353M539.69 280.429a3.747 3.747 0 0 0-1.01-2.155M539.612 281.063c.075-.202.1-.418.077-.636M537.145 277.615a.47.47 0 0 0-.337.027.453.453 0 0 0-.241.264M538.128 277.917l-.981-.302M536.808 277.642l-2.405 1.125M536.18 278.266l-.759.64M551.705 284.9a1.382 1.382 0 0 0-.535-.354" style="fill:none;stroke:#ffdf00;stroke-width:.999997;stroke-linecap:round;stroke-linejoin:round;stroke-miterlimit:2;stroke-dasharray:none;stroke-opacity:1;visibility:visible"/><path d="M552.716 287.054a3.747 3.747 0 0 0-1.01-2.154" style="fill:none;stroke:#ffdf00;stroke-width:.999997;stroke-linecap:round;stroke-linejoin:round;stroke-miterlimit:2;stroke-dasharray:none;stroke-opacity:1;visibility:visible"/><path d="M463.599 307.982c0 .561-.912 1.019-2.036 1.019-1.125-.001-2.037-.458-2.037-1.019 0-.563.912-1.019 2.037-1.019 1.124 0 2.036.457 2.036 1.019M508.916 229.256l4.945 9.873" style="fill:none;stroke:#ffdf00;stroke-width:.999997;stroke-linecap:round;stroke-linejoin:round;stroke-miterlimit:4;stroke-dasharray:none;stroke-opacity:1;visibility:visible"/><path d="m493.485 229.256 7.336 1.797M493.485 229.256l7.336-17.702" style="fill:none;stroke:#ffdf00;stroke-width:.666665;stroke-linecap:round;stroke-linejoin:round;stroke-miterlimit:10;stroke-dasharray:none;stroke-opacity:1;visibility:visible"/><path d="m411.244 324.943 4.372-2.033M415.616 322.91l-4.372 2.033" style="fill:none;stroke:#ffdf00;stroke-width:1.99999;stroke-linecap:round;stroke-linejoin:round;stroke-miterlimit:4;stroke-dasharray:none;stroke-opacity:1;visibility:visible"/><path d="m547.52 285.353-1.409-1.382M408.986 331.753l14.729 5.876M408.986 331.753l14.729 5.876M423.715 337.629l-14.729-5.876M500.795 289.363l6.704 4.146" style="fill:none;stroke:#ffdf00;stroke-width:.999997;stroke-linecap:round;stroke-linejoin:round;stroke-miterlimit:4;stroke-dasharray:none;stroke-opacity:1;visibility:visible"/><path d="m549.835 284.269-2.135 6.639M546.111 283.971l-11.708-5.204M549.205 284.891l-13.784-5.985" style="fill:none;stroke:#ffdf00;stroke-width:.999997;stroke-linecap:round;stroke-linejoin:round;stroke-miterlimit:2;stroke-dasharray:none;stroke-opacity:1;visibility:visible"/><path d="m254.946 396.148-13.595-.742" style="fill:none;stroke:red;stroke-width:1.99999;stroke-linecap:round;stroke-linejoin:round;stroke-miterlimit:4;stroke-dasharray:none;stroke-opacity:1;visibility:visible"/><path d="m179.653 355.707-18.32-.534M160.16 357.071l6.654-2.574" style="fill:none;stroke:red;stroke-width:.999997;stroke-linecap:round;stroke-linejoin:round;stroke-miterlimit:2;stroke-dasharray:none;stroke-opacity:1;visibility:visible"/><path d="m114.68 458.344 3.536 5.467" style="fill:none;stroke:#00ff4a;stroke-width:.999997;stroke-linecap:round;stroke-linejoin:round;stroke-miterlimit:4;stroke-dasharray:none;stroke-opacity:1;visibility:visible"/><path d="m423.715 337.629-13.29 9.604" style="fill:none;stroke:#9500ff;stroke-width:1.99999;stroke-linecap:round;stroke-linejoin:round;stroke-miterlimit:4;stroke-dasharray:none;stroke-opacity:1;visibility:visible"/><path d="M333.157 310.905 317 317.174" style="fill:none;stroke:#9500ff;stroke-width:.999997;stroke-linecap:round;stroke-linejoin:round;stroke-miterlimit:4;stroke-dasharray:none;stroke-opacity:1;visibility:visible"/><path d="m317 317.174 16.157-6.269" style="fill:none;stroke:#ffdf00;stroke-width:1.99999;stroke-linecap:round;stroke-linejoin:round;stroke-miterlimit:4;stroke-dasharray:none;stroke-opacity:1;visibility:visible"/></svg>