<svg xmlns="http://www.w3.org/2000/svg" baseProfile="full" height="1122.52" preserveAspectRatio="xMinYMin meet" style="width:792px;height:931px" width="793.701" xml:space="preserve"><path d="M280.423 897.605a5.03 5.03 0 0 0-1.221-2.948M279.202 894.657a1.836 1.836 0 0 0-.697-.503M283.15 896.475a5.067 5.067 0 0 0-.37-1.573 5.076 5.076 0 0 0-.852-1.375M281.929 893.527a1.88 1.88 0 0 0-.699-.502M278.503 894.155a.45.45 0 0 0-.588.243M277.915 894.397a1.87 1.87 0 0 0-.138.849M279 898.197c.188.218.426.39.694.502M279.697 898.7a.472.472 0 0 0 .346 0 .46.46 0 0 0 .243-.247" style="fill:none;stroke:red;stroke-width:.999997;stroke-linecap:round;stroke-linejoin:round;stroke-miterlimit:2;stroke-dasharray:none;stroke-opacity:1;visibility:visible" visibility="hidden"/><path d="M280.286 898.454c.11-.268.159-.56.137-.85M275.142 896.735l2.493-1.033M275.377 899.587l3.706-1.536M278.16 894.155l2.722-1.13M280.043 898.7l2.724-1.132M281.229 893.025a.456.456 0 0 0-.346 0M282.767 897.569a.453.453 0 0 0 .246-.246M278.874 897.78a.925.925 0 0 0 .067-.414M278.94 897.369a2.457 2.457 0 0 0-.59-1.432M278.347 895.935a.885.885 0 0 0-.341-.242M283.013 897.323c.112-.268.157-.56.137-.85" style="fill:none;stroke:red;stroke-width:.999997;stroke-linecap:round;stroke-linejoin:round;stroke-miterlimit:2;stroke-dasharray:none;stroke-opacity:1;visibility:visible" visibility="hidden"/><path d="m239.471 728.321-4.191-1.795-.625.222M227.62 729.241l-5.57 1.973 19.56 177.587" style="fill:none;stroke:red;stroke-width:1.99999;stroke-linecap:round;stroke-linejoin:round;stroke-miterlimit:500;stroke-dasharray:none;stroke-opacity:1;visibility:visible" visibility="hidden"/><path d="m158.205 859.926-6.633-.899-22.292-.02.021 3.854 282.607 163.313 11.858-6.436-.791-18.782-146.59-84.282-20.147-181.166-9.363-4.014" style="fill:none;stroke:red;stroke-width:1.99999;stroke-linecap:round;stroke-linejoin:round;stroke-miterlimit:500;stroke-dasharray:none;stroke-opacity:1;visibility:visible" visibility="hidden"/><path d="m239.46 895.014-54.993-31.737-19.653-2.539" style="fill:none;stroke:red;stroke-width:1.99999;stroke-linecap:round;stroke-linejoin:round;stroke-miterlimit:500;stroke-dasharray:none;stroke-opacity:1;visibility:visible" visibility="hidden"/><path d="M242.967 740.158 263.51 922.13l12.665-5.333M222.051 731.214l20.919 8.944 13.269-4.652M160.969 862.438s17.667 1.279 22.667.833M410.983 1007.614l.924 18.296" style="fill:none;stroke:red;stroke-width:.999997;stroke-linecap:round;stroke-linejoin:round;stroke-miterlimit:500;stroke-dasharray:none;stroke-opacity:1;visibility:visible" visibility="hidden"/><path d="m129.78 859.069 30.77 3.354 250.477 144.927 11.947-6.394" style="fill:none;stroke:red;stroke-width:.999997;stroke-linecap:round;stroke-linejoin:round;stroke-miterlimit:500;stroke-dasharray:none;stroke-opacity:1;visibility:visible" visibility="hidden"/><path d="M267.075 899.834c-.753 1.696-2.353 2.639-3.573 2.096-1.22-.541-1.597-2.356-.844-4.055.752-1.697 2.352-2.637 3.572-2.095 1.219.538 1.596 2.354.845 4.054M239.983 734.853c-.583.245-1.393.396-2.285.396-1.785 0-3.23-.604-3.23-1.35-.001-.742 1.444-1.349 3.229-1.349a6.707 6.707 0 0 1 1.904.26M162.497 854.446a1.453 1.453 0 0 0-.58-.25M161.917 854.197a3.768 3.768 0 0 0-2.317.341M159.6 854.538a1.312 1.312 0 0 0-.48.412M162.474 861.623l-2.572-6.016M163.453 855.389a.47.47 0 0 0-.181-.303M158.546 855.803l.564-.841M163.29 855.105l-.78-.646M159.12 854.949c-.003.001-.01.005-.011.013" style="fill:none;stroke:red;stroke-width:.999997;stroke-linecap:round;stroke-linejoin:round;stroke-miterlimit:2;stroke-dasharray:none;stroke-opacity:1;visibility:visible" visibility="hidden"/><path d="M162.509 854.46c-.005-.01-.013-.012-.013-.015" style="fill:none;stroke:red;stroke-width:.999997;stroke-linecap:round;stroke-linejoin:round;stroke-miterlimit:2;stroke-dasharray:none;stroke-opacity:1;visibility:visible" visibility="hidden"/><path d="M158.476 856.126c-.02-.123.036-.003.109-.101 0 0 .292-.585 2.099-.875 1.094-.177 2.508.233 2.508.233" style="fill:none;stroke:red;stroke-width:.666665;stroke-linecap:round;stroke-linejoin:round;stroke-miterlimit:2;stroke-dasharray:none;stroke-opacity:1;visibility:visible" visibility="hidden"/><path d="M159.24 861.451s1.078.492 2.5.449c1.626-.053 2.665-.69 2.665-.69M159.3 861.867l-.823-5.742M164.276 861.094l-.823-5.705M244.723 727.705a1.443 1.443 0 0 0-.578-.275M244.865 729.594c.274-.128.515-.317.701-.554M241.57 729.969a5.356 5.356 0 0 0 1.676.08 5.3 5.3 0 0 0 1.619-.455M240.76 729.588c.236.189.512.317.81.381M240.669 728.948a.475.475 0 0 0 .09.638M245.566 729.04a.465.465 0 0 0 .097-.346.467.467 0 0 0-.152-.296M241.269 728.112l-.599.836M244.74 727.717l.77.68M240.586 729.274l.837 7.344M245.666 728.694l.887 7.788M240.978 730.068l2.907 7.35M241.78 727.701a1.404 1.404 0 0 0-.502.397" style="fill:none;stroke:red;stroke-width:.999997;stroke-linecap:round;stroke-linejoin:round;stroke-miterlimit:2;stroke-dasharray:none;stroke-opacity:1;visibility:visible" visibility="hidden"/><path d="M244.146 727.43a3.765 3.765 0 0 0-2.364.271" style="fill:none;stroke:red;stroke-width:.999997;stroke-linecap:round;stroke-linejoin:round;stroke-miterlimit:2;stroke-dasharray:none;stroke-opacity:1;visibility:visible" visibility="hidden"/><path d="M246.853 736.158c.024.902-1.259 1.662-2.86 1.698-1.604.042-2.918-.659-2.943-1.562" style="fill:none;stroke:red;stroke-width:.999997;stroke-linecap:round;stroke-linejoin:round;stroke-miterlimit:4;stroke-dasharray:none;stroke-opacity:1;visibility:visible" visibility="hidden"/><path d="M229.41 722.54a1.419 1.419 0 0 0-.505.397M231.775 722.268a3.773 3.773 0 0 0-2.364.27M232.353 722.544a1.452 1.452 0 0 0-.579-.275M232.493 724.432a1.91 1.91 0 0 0 .7-.555M229.2 724.808a5.353 5.353 0 0 0 1.674.08 5.31 5.31 0 0 0 1.621-.455M228.389 724.426c.236.19.511.318.81.382M228.298 723.788a.468.468 0 0 0 .09.638M233.194 723.877a.468.468 0 0 0-.054-.641M228.897 722.95l-.599.836M232.369 722.556l.77.68M228.215 724.113l.84 7.344M233.295 723.534l.886 7.788M228.606 724.906l2.907 7.351" style="fill:none;stroke:red;stroke-width:.999997;stroke-linecap:round;stroke-linejoin:round;stroke-miterlimit:2;stroke-dasharray:none;stroke-opacity:1;visibility:visible" visibility="hidden"/><path d="M234.48 730.996c.022.901-1.259 1.661-2.86 1.697-1.606.043-2.918-.659-2.943-1.561" style="fill:none;stroke:red;stroke-width:.999997;stroke-linecap:round;stroke-linejoin:round;stroke-miterlimit:4;stroke-dasharray:none;stroke-opacity:1;visibility:visible" visibility="hidden"/><path d="m279.083 898.051-3.941-1.316M277.635 895.702l-2.258 3.885" style="fill:none;stroke:red;stroke-width:.999997;stroke-linecap:round;stroke-linejoin:round;stroke-miterlimit:2;stroke-dasharray:none;stroke-opacity:1;visibility:visible" visibility="hidden"/><path d="m246.875 731.494-7.404-3.173M227.62 729.241l7.035-2.493M234.655 726.748l-7.035 2.493M164.814 860.738l-6.609-.812M239.471 728.321l7.404 3.173" style="fill:none;stroke:red;stroke-width:1.99999;stroke-linecap:round;stroke-linejoin:round;stroke-miterlimit:500;stroke-dasharray:none;stroke-opacity:1;visibility:visible" visibility="hidden"/><path d="m241.423 736.618 1.544 3.54M275.377 899.587l.798 17.21M239.471 728.321l-17.42 2.893M159.24 861.451l1.729.987" style="fill:none;stroke:red;stroke-width:.999997;stroke-linecap:round;stroke-linejoin:round;stroke-miterlimit:500;stroke-dasharray:none;stroke-opacity:1;visibility:visible" visibility="hidden"/><path d="m278.874 897.78-11.799 2.054M277.915 894.397l-10.84 5.437M244.865 729.594l-4.882 5.259M241.57 729.969l-1.969 2.841M162.509 854.46l-2.607 1.147M228.606 724.906l15.279 12.512M240.978 730.068l-9.465 2.189" style="fill:none;stroke:red;stroke-width:.999997;stroke-linecap:round;stroke-linejoin:round;stroke-miterlimit:2;stroke-dasharray:none;stroke-opacity:1;visibility:visible" visibility="hidden"/><path d="m308.811 894.147 7.263 3.263c55.165-17.12 116.609-45.78 116.609-45.78l.279-12.832-25.054-7.5c-12.281 6.11-27.064 12.463-41.83 18.39l-15.044 5.912c-29.977 11.526-56.184 20.255-56.184 20.255l.433 5.672M302.52 891.32l-2.274-1.022" style="fill:none;stroke:#00ff4a;stroke-width:1.99999;stroke-linecap:round;stroke-linejoin:round;stroke-miterlimit:500;stroke-dasharray:none;stroke-opacity:1;visibility:visible" visibility="hidden"/><path d="m315.13 884.967 1 12.223M294.853 875.854l20.277 9.112s81.816-26.648 117.833-46.17" style="fill:none;stroke:#00ff4a;stroke-width:.999997;stroke-linecap:round;stroke-linejoin:round;stroke-miterlimit:500;stroke-dasharray:none;stroke-opacity:1;visibility:visible" visibility="hidden"/><path d="M341.532 871.314c0 1.817-3.148 3.33-7.318 3.653" style="fill:none;stroke:#00ff4a;stroke-width:1.99999;stroke-linecap:round;stroke-linejoin:round;stroke-miterlimit:4;stroke-dasharray:none;stroke-opacity:1;visibility:visible" visibility="hidden"/><path d="M316.578 873.878c0-1.847 3.172-3.372 7.305-3.636M324.057 870.077c1.233-1.447 4.565-2.482 8.48-2.482 4.97 0 8.995 1.665 8.995 3.719" style="fill:none;stroke:#00ff4a;stroke-width:.999997;stroke-linecap:round;stroke-linejoin:round;stroke-miterlimit:4;stroke-dasharray:none;stroke-opacity:1;visibility:visible" visibility="hidden"/><path d="M333.42 874.84c-.98 1.567-4.314 2.72-8.273 2.72-4.731 0-8.569-1.65-8.569-3.68" style="fill:none;stroke:#00ff4a;stroke-width:1.99999;stroke-linecap:round;stroke-linejoin:round;stroke-miterlimit:4;stroke-dasharray:none;stroke-opacity:1;visibility:visible" visibility="hidden"/><path d="m323.629 870.88.224 6.374" style="fill:none;stroke:#00ff4a;stroke-width:.999997;stroke-linecap:round;stroke-linejoin:round;stroke-miterlimit:4;stroke-dasharray:none;stroke-opacity:1;visibility:visible" visibility="hidden"/><path d="M412.826 843.271c0 1.819-3.148 3.331-7.318 3.654" style="fill:none;stroke:#00ff4a;stroke-width:1.99999;stroke-linecap:round;stroke-linejoin:round;stroke-miterlimit:4;stroke-dasharray:none;stroke-opacity:1;visibility:visible" visibility="hidden"/><path d="M387.872 845.837c0-1.847 3.174-3.372 7.308-3.637M395.351 842.035c1.235-1.445 4.565-2.481 8.481-2.481 4.97 0 8.992 1.664 8.992 3.719" style="fill:none;stroke:#00ff4a;stroke-width:.999997;stroke-linecap:round;stroke-linejoin:round;stroke-miterlimit:4;stroke-dasharray:none;stroke-opacity:1;visibility:visible" visibility="hidden"/><path d="M404.715 846.798c-.981 1.565-4.315 2.719-8.276 2.719-4.73 0-8.567-1.648-8.567-3.68" style="fill:none;stroke:#00ff4a;stroke-width:1.99999;stroke-linecap:round;stroke-linejoin:round;stroke-miterlimit:4;stroke-dasharray:none;stroke-opacity:1;visibility:visible" visibility="hidden"/><path d="M303.514 885.123c.065-.877.415-1.55.996-1.742.975-.323 2.228.816 2.8 2.545.123.37.205.733.248 1.083M394.923 842.84l.224 6.374" style="fill:none;stroke:#00ff4a;stroke-width:.999997;stroke-linecap:round;stroke-linejoin:round;stroke-miterlimit:4;stroke-dasharray:none;stroke-opacity:1;visibility:visible" visibility="hidden"/><path d="M304.14 893.866c.144.161.326.287.528.364M303.19 891.683a3.741 3.741 0 0 0 .95 2.183M303.28 891.05a1.404 1.404 0 0 0-.09.633M305.047 890.366a1.945 1.945 0 0 0-.734-.51M306.37 893.405a5.24 5.24 0 0 0-1.323-3.04M306.243 894.293c.11-.283.155-.586.127-.888M305.658 894.566a.47.47 0 0 0 .585-.273M304.313 889.854a.467.467 0 0 0-.36.008.456.456 0 0 0-.24.235M304.682 894.238l.975.328M303.289 891.035l.424-.937M305.995 894.55l6.776-2.95M303.953 889.863l7.189-3.13M306.638 893.94l6.176-4.928" style="fill:none;stroke:#00ff4a;stroke-width:.999997;stroke-linecap:round;stroke-linejoin:round;stroke-miterlimit:2;stroke-dasharray:none;stroke-opacity:1;visibility:visible" visibility="hidden"/><path d="M310.74 886.543c.858-.283 1.96.717 2.464 2.238.506 1.519.221 2.979-.634 3.268" style="fill:none;stroke:#00ff4a;stroke-width:.999997;stroke-linecap:round;stroke-linejoin:round;stroke-miterlimit:4;stroke-dasharray:none;stroke-opacity:1;visibility:visible" visibility="hidden"/><path d="M291.886 888.243c.143.162.324.287.527.364M290.935 886.06a3.741 3.741 0 0 0 .95 2.184M291.026 885.427a1.403 1.403 0 0 0-.09.634M292.791 884.74a1.938 1.938 0 0 0-.734-.506M294.114 887.782a5.276 5.276 0 0 0-1.324-3.042M293.989 888.667a1.93 1.93 0 0 0 .126-.885M293.402 888.94a.476.476 0 0 0 .337-.014.461.461 0 0 0 .248-.259M292.057 884.233a.456.456 0 0 0-.36.007.447.447 0 0 0-.24.235M292.426 888.614l.974.328M291.034 885.41l.424-.935M293.74 888.926l6.774-2.95M291.698 884.238l7.19-3.128M294.383 888.32l6.177-4.93" style="fill:none;stroke:#00ff4a;stroke-width:.999997;stroke-linecap:round;stroke-linejoin:round;stroke-miterlimit:2;stroke-dasharray:none;stroke-opacity:1;visibility:visible" visibility="hidden"/><path d="M298.486 880.92c.856-.285 1.959.718 2.463 2.239.506 1.519.22 2.98-.635 3.267" style="fill:none;stroke:#00ff4a;stroke-width:.999997;stroke-linecap:round;stroke-linejoin:round;stroke-miterlimit:4;stroke-dasharray:none;stroke-opacity:1;visibility:visible" visibility="hidden"/><path d="M422.586 833.17a1.353 1.353 0 0 0-.527-.364M423.536 835.353a3.78 3.78 0 0 0-.95-2.183M423.446 835.986c.078-.2.109-.419.09-.633M423.439 836.003l.008-.018M422.06 832.806l-.016-.005M421.068 832.473l.976.327M417.686 833.814l3.046-1.324M420.495 834.36l1.639-1.305M440.15 840.566a1.367 1.367 0 0 0-.526-.364M441.099 842.747a3.759 3.759 0 0 0-.949-2.182M441.008 843.38c.082-.2.112-.417.09-.632M441.003 843.4a.04.04 0 0 0 .005-.017M439.623 840.2a.037.037 0 0 0-.016-.004M440.579 844.334l.424-.935M438.634 839.867l.973.328M440.336 844.571a.47.47 0 0 0 .25-.257M433.86 847.391l6.476-2.82M433.899 841.798l4.399-1.915M433.738 845.21l5.958-4.76" style="fill:none;stroke:#00ff4a;stroke-width:.999997;stroke-linecap:round;stroke-linejoin:round;stroke-miterlimit:2;stroke-dasharray:none;stroke-opacity:1;visibility:visible" visibility="hidden"/><path d="M364.996 856.389c0 .59-.96 1.071-2.144 1.071-1.184 0-2.144-.481-2.144-1.071 0-.591.96-1.072 2.144-1.072 1.184 0 2.144.481 2.144 1.072" style="fill:none;stroke:#00ff4a;stroke-width:.999997;stroke-linecap:round;stroke-linejoin:round;stroke-miterlimit:4;stroke-dasharray:none;stroke-opacity:1;visibility:visible" visibility="hidden"/><path d="m304.668 894.23 4.143-.083M290.935 886.06l4.348-4.533M304.313 889.854l-4.067.444" style="fill:none;stroke:#00ff4a;stroke-width:1.99999;stroke-linecap:round;stroke-linejoin:round;stroke-miterlimit:500;stroke-dasharray:none;stroke-opacity:1;visibility:visible" visibility="hidden"/><path d="m307.558 887.009 7.572-2.042M306.37 893.405l9.76 3.785M292.057 884.233l2.796-8.379M433.899 841.798l-.936-3.002" style="fill:none;stroke:#00ff4a;stroke-width:.999997;stroke-linecap:round;stroke-linejoin:round;stroke-miterlimit:500;stroke-dasharray:none;stroke-opacity:1;visibility:visible" visibility="hidden"/><path d="m316.578 873.88 7.275 3.374M316.578 873.88l-13.064 11.243M303.19 891.683l4.368-4.674M387.872 845.837l7.275 3.377" style="fill:none;stroke:#00ff4a;stroke-width:.999997;stroke-linecap:round;stroke-linejoin:round;stroke-miterlimit:4;stroke-dasharray:none;stroke-opacity:1;visibility:visible" visibility="hidden"/><path d="m294.383 888.32 18.431.692M306.638 893.94l-6.078-10.55M432.963 838.796l-15.277-4.982M432.963 838.796l.897 8.595M432.963 838.796l.936 3.002M422.134 833.055l11.604 12.155" style="fill:none;stroke:#00ff4a;stroke-width:.999997;stroke-linecap:round;stroke-linejoin:round;stroke-miterlimit:2;stroke-dasharray:none;stroke-opacity:1;visibility:visible" visibility="hidden"/><path d="M464.355 825.425a5.107 5.107 0 0 0-.372-1.572 5.093 5.093 0 0 0-.85-1.375M463.132 822.478a1.853 1.853 0 0 0-.697-.504M481.799 817.989a.25.25 0 0 0 .158-.015.27.27 0 0 0 .164-.19M481.67 817.954a.817.817 0 0 0 .13.036M482.112 817.267a2.707 2.707 0 0 0-.139-.406 2.977 2.977 0 0 0-.902-1.203M482.123 817.783a1.161 1.161 0 0 0-.01-.516M481.07 815.658a1.096 1.096 0 0 0-.462-.223M480.607 815.435a.267.267 0 0 0-.32.207M480.439 818.554a.27.27 0 0 0 .32-.207M480.361 818.537a1.057 1.057 0 0 0 .076.018M480.748 817.83a3.03 3.03 0 0 0-1.036-1.607M480.759 818.347a1.096 1.096 0 0 0-.01-.517M479.71 816.223a1.103 1.103 0 0 0-.465-.22M479.245 816.002a.257.257 0 0 0-.16.013.264.264 0 0 0-.155.167M466.012 821.537l13.112-5.437M467.058 824.05l13.514-5.603M462.092 821.974l2.724-1.128M463.974 826.518l2.724-1.13M465.159 820.845a.44.44 0 0 0-.344.001M466.697 825.387a.46.46 0 0 0 .246-.245M466.943 825.143c.11-.268.156-.56.139-.849M467.082 824.294a5.04 5.04 0 0 0-1.222-2.947M465.86 821.347a1.873 1.873 0 0 0-.7-.502M462.572 823.775l.522.335M463.094 824.109l-.14.521M462.435 821.974a.445.445 0 0 0-.345 0 .46.46 0 0 0-.246.244M461.844 822.217a1.872 1.872 0 0 0-.136.85M461.708 823.067a5.12 5.12 0 0 0 .37 1.575c.209.501.497.965.852 1.375M462.93 826.015a1.88 1.88 0 0 0 .697.503M463.628 826.518a.459.459 0 0 0 .347 0 .457.457 0 0 0 .241-.245" style="fill:none;stroke:#9500ff;stroke-width:.999997;stroke-linecap:round;stroke-linejoin:round;stroke-miterlimit:2;stroke-dasharray:none;stroke-opacity:1;visibility:visible"/><path d="M464.216 826.273a1.87 1.87 0 0 0 .139-.85" style="fill:none;stroke:#9500ff;stroke-width:.999997;stroke-linecap:round;stroke-linejoin:round;stroke-miterlimit:2;stroke-dasharray:none;stroke-opacity:1;visibility:visible"/><path d="m462.092 819.735-79.734-33.098-8.588-.103M365.191 786.434l-7.955-.093-8.334-.097-5.455-.066-.455 4.457.491 8.775 72.25 29.992M483.888 641.687l7.842 2.083" style="fill:none;stroke:#9500ff;stroke-width:1.99999;stroke-linecap:round;stroke-linejoin:round;stroke-miterlimit:500;stroke-dasharray:none;stroke-opacity:1;visibility:visible"/><path d="m498.976 645.695 6.036 1.604.404 190.166 175.292 73.54-.875 19.668-12.043 3.875-216.434-89.947" style="fill:none;stroke:#9500ff;stroke-width:1.99999;stroke-linecap:round;stroke-linejoin:round;stroke-miterlimit:500;stroke-dasharray:none;stroke-opacity:1;visibility:visible"/><path d="m468.667 816.366-.17-67.926-.041-15.012-.219-87.463 8.828-4.39" style="fill:none;stroke:#9500ff;stroke-width:1.99999;stroke-linecap:round;stroke-linejoin:round;stroke-miterlimit:500;stroke-dasharray:none;stroke-opacity:1;visibility:visible"/><path d="m468.35 646.076 25.608 6.777 10.612-5.388M384.496 796.463l-2.14-9.826M668.708 914.84l-.834 19.376M343.483 795.62l41.015.842 56.072 23.358M471.945 832.889l196.763 81.95 12-3.833" style="fill:none;stroke:#9500ff;stroke-width:.999997;stroke-linecap:round;stroke-linejoin:round;stroke-miterlimit:500;stroke-dasharray:none;stroke-opacity:1;visibility:visible"/><path d="m493.904 653.132.43 189.04 11.082-4.706" style="fill:none;stroke:#9500ff;stroke-width:.999997;stroke-linecap:round;stroke-linejoin:round;stroke-miterlimit:500;stroke-dasharray:none;stroke-opacity:1;visibility:visible"/><path d="M491.292 646.02c0 .772-1.47 1.397-3.279 1.397-1.806 0-3.276-.625-3.276-1.397 0-.77 1.47-1.396 3.276-1.396 1.81 0 3.28.625 3.28 1.396h-.001M504.145 817.126c-.648 1.684-2.078 2.695-3.197 2.265-1.117-.43-1.5-2.14-.855-3.821.647-1.683 2.077-2.696 3.195-2.265 1.12.43 1.5 2.141.857 3.821M491.303 817.918c.237 1.717-.618 3.253-1.913 3.432-1.293.18-2.533-1.067-2.773-2.783-.236-1.717.618-3.253 1.913-3.433 1.294-.179 2.533 1.068 2.773 2.784M476.221 812.46c.239 1.716-.617 3.252-1.911 3.43-1.294.181-2.534-1.065-2.774-2.78-.236-1.72.617-3.255 1.912-3.435 1.295-.178 2.533 1.068 2.773 2.785" style="fill:none;stroke:#9500ff;stroke-width:.999997;stroke-linecap:round;stroke-linejoin:round;stroke-miterlimit:4;stroke-dasharray:none;stroke-opacity:1;visibility:visible"/><path d="M480.05 663.993c3.074.137 6.206 2.995 7.5 7.152.764 2.465.741 4.923.077 6.899" style="fill:none;stroke:#9500ff;stroke-width:1.99999;stroke-linecap:round;stroke-linejoin:round;stroke-miterlimit:4;stroke-dasharray:none;stroke-opacity:1;visibility:visible"/><path d="M483.307 690.393c-3.367.515-7.052-2.496-8.482-7.097-.87-2.796-.72-5.578.216-7.663M474.748 675.301a4.387 4.387 0 0 1-.052-.159c-1.533-4.932.099-9.825 3.648-10.928a4.954 4.954 0 0 1 1.707-.22" style="fill:none;stroke:#9500ff;stroke-width:.999997;stroke-linecap:round;stroke-linejoin:round;stroke-miterlimit:4;stroke-dasharray:none;stroke-opacity:1;visibility:visible"/><path d="M487.359 678.382c.117.3.224.603.32.918 1.534 4.932-.099 9.824-3.65 10.93a5.039 5.039 0 0 1-.723.163" style="fill:none;stroke:#9500ff;stroke-width:1.99999;stroke-linecap:round;stroke-linejoin:round;stroke-miterlimit:4;stroke-dasharray:none;stroke-opacity:1;visibility:visible"/><path d="M483.79 666.014s-.22 5.408 4.15 9.231M484.372 671.776s-2.867 6.15 3.705 12.384M475.355 675.568l9.268-4.132" style="fill:none;stroke:#9500ff;stroke-width:.999997;stroke-linecap:round;stroke-linejoin:round;stroke-miterlimit:4;stroke-dasharray:none;stroke-opacity:1;visibility:visible"/><path d="M369.792 784.56a3.653 3.653 0 0 0-2.13.89M370.406 784.657a1.361 1.361 0 0 0-.614-.097M371.046 786.38c.221-.193.39-.433.502-.703M368.076 787.618a5.093 5.093 0 0 0 2.97-1.237M367.218 787.48c.27.117.565.16.86.139M366.962 786.912a.464.464 0 0 0 .01.325.443.443 0 0 0 .243.245M371.548 785.676a.448.448 0 0 0 0-.35.445.445 0 0 0-.225-.234M367.294 785.97l-.332.942M370.42 784.665l.904.425M366.971 787.237l2.089 5.008M371.548 785.326l2.192 5.25M367.552 787.871l3.542 4.581" style="fill:none;stroke:#9500ff;stroke-width:.999997;stroke-linecap:round;stroke-linejoin:round;stroke-miterlimit:2;stroke-dasharray:none;stroke-opacity:1;visibility:visible"/><path d="M367.663 785.449a1.307 1.307 0 0 0-.361.507" style="fill:none;stroke:#9500ff;stroke-width:.999997;stroke-linecap:round;stroke-linejoin:round;stroke-miterlimit:2;stroke-dasharray:none;stroke-opacity:1;visibility:visible"/><path d="M373.908 790.334c.264.836-.722 1.89-2.206 2.356-1.483.468-2.895.17-3.159-.665" style="fill:none;stroke:#9500ff;stroke-width:.999997;stroke-linecap:round;stroke-linejoin:round;stroke-miterlimit:4;stroke-dasharray:none;stroke-opacity:1;visibility:visible"/><path d="M357.111 790.138c.257.672-.681 1.656-2.093 2.197-1.414.546-2.77.44-3.028-.233-.256-.67.68-1.655 2.094-2.199 1.414-.54 2.771-.436 3.027.235M493.995 639.007a1.387 1.387 0 0 0-.539.346M496.375 638.965a3.699 3.699 0 0 0-1.195-.172 3.7 3.7 0 0 0-1.185.214M496.924 639.29a1.499 1.499 0 0 0-.55-.324M496.883 641.187a1.96 1.96 0 0 0 .752-.484M493.568 641.244a5.27 5.27 0 0 0 3.315-.057M492.797 640.785c.22.21.48.365.771.459M492.768 640.143a.443.443 0 0 0-.112.317c0 .123.052.24.14.325M497.636 640.703a.48.48 0 0 0 .13-.336.455.455 0 0 0-.126-.31M493.445 639.367l-.677.776M496.94 639.307l.697.75M492.656 640.46l.128 7.388M497.768 640.37l.13 7.837M492.967 641.285l2.19 7.595" style="fill:none;stroke:#9500ff;stroke-width:.999997;stroke-linecap:round;stroke-linejoin:round;stroke-miterlimit:2;stroke-dasharray:none;stroke-opacity:1;visibility:visible"/><path d="M498.205 647.779c-.024.9-1.34 1.596-2.942 1.551-1.604-.04-2.88-.805-2.858-1.71" style="fill:none;stroke:#9500ff;stroke-width:.999997;stroke-linecap:round;stroke-linejoin:round;stroke-miterlimit:4;stroke-dasharray:none;stroke-opacity:1;visibility:visible"/><path d="M482.088 635.539a1.499 1.499 0 0 0-.55-.326M482.047 637.435c.283-.102.543-.266.752-.485M478.732 637.492a5.273 5.273 0 0 0 1.661.243 5.257 5.257 0 0 0 1.654-.3M477.961 637.036c.22.21.48.364.771.456M477.932 636.39a.448.448 0 0 0-.112.316.46.46 0 0 0 .14.329" style="fill:none;stroke:#9500ff;stroke-width:.999997;stroke-linecap:round;stroke-linejoin:round;stroke-miterlimit:2;stroke-dasharray:none;stroke-opacity:1;visibility:visible"/><path d="M482.799 636.95a.47.47 0 0 0 .13-.335.445.445 0 0 0-.128-.309M478.61 635.615l-.679.775M482.105 635.556l.698.75M477.82 636.708l.128 7.388M482.932 636.619l.13 7.836M478.13 637.535l2.192 7.593M479.159 635.255a1.395 1.395 0 0 0-.539.349M481.539 635.213a3.699 3.699 0 0 0-1.195-.172 3.853 3.853 0 0 0-1.184.214" style="fill:none;stroke:#9500ff;stroke-width:.999997;stroke-linecap:round;stroke-linejoin:round;stroke-miterlimit:2;stroke-dasharray:none;stroke-opacity:1;visibility:visible"/><path d="M474.196 739.314c.75-.314 1.715.262 2.154 1.296.445 1.038.193 2.135-.55 2.452-.744.319-1.71-.264-2.15-1.297-.447-1.033-.192-2.133.545-2.45l.001-.001M483.37 644.028c-.026.9-1.343 1.596-2.944 1.552-1.603-.041-2.879-.805-2.857-1.708" style="fill:none;stroke:#9500ff;stroke-width:.999997;stroke-linecap:round;stroke-linejoin:round;stroke-miterlimit:4;stroke-dasharray:none;stroke-opacity:1;visibility:visible"/><path d="m462.435 821.974-.343-2.239M369.792 784.56l3.978 1.974M368.076 787.618l-2.885-1.184M478.732 637.492l5.156 4.195M493.568 641.244l-1.838 2.526M493.568 641.244l5.408 4.451M467.082 824.294l1.585-7.928" style="fill:none;stroke:#9500ff;stroke-width:1.99999;stroke-linecap:round;stroke-linejoin:round;stroke-miterlimit:500;stroke-dasharray:none;stroke-opacity:1;visibility:visible"/><path d="m478.732 637.492-10.382 8.584M463.627 826.518l8.318 6.371M492.784 647.848l1.12 5.284" style="fill:none;stroke:#9500ff;stroke-width:.999997;stroke-linecap:round;stroke-linejoin:round;stroke-miterlimit:500;stroke-dasharray:none;stroke-opacity:1;visibility:visible"/><path d="m492.784 647.848-1.492-1.828M476.221 812.46l15.082 5.458M476.221 812.46l15.082 5.458M467.082 824.294l9.139-11.834M467.082 824.294l9.139-11.834M493.904 653.132l-10.114 12.882" style="fill:none;stroke:#9500ff;stroke-width:.999997;stroke-linecap:round;stroke-linejoin:round;stroke-miterlimit:4;stroke-dasharray:none;stroke-opacity:1;visibility:visible"/><path d="m369.06 792.245-11.949-2.107M366.971 787.237l-9.86 2.901M492.967 641.285l-12.645 3.843" style="fill:none;stroke:#9500ff;stroke-width:.999997;stroke-linecap:round;stroke-linejoin:round;stroke-miterlimit:2;stroke-dasharray:none;stroke-opacity:1;visibility:visible"/><path d="m417.686 833.814-1.953-4.412M439.623 840.2l11.733 4.401" style="fill:none;stroke:#9500ff;stroke-width:1.99999;stroke-linecap:round;stroke-linejoin:round;stroke-miterlimit:500;stroke-dasharray:none;stroke-opacity:1;visibility:visible"/><path d="m492.784 647.848 2.373 1.032" style="fill:none;stroke:#9500ff;stroke-width:.999997;stroke-linecap:round;stroke-linejoin:round;stroke-miterlimit:2;stroke-dasharray:none;stroke-opacity:1;visibility:visible"/></svg>