<svg xmlns="http://www.w3.org/2000/svg" baseProfile="full" height="1122.52" preserveAspectRatio="xMinYMin meet" style="width:602px;height:740px" width="793.701" xml:space="preserve"><path d="M349.14 717.172c-.504-.108-.694-1.21-.429-2.463.267-1.25.897-2.177 1.397-2.07.502.102.692 1.205.424 2.459-.265 1.255-.894 2.182-1.392 2.075v-.001" style="fill:none;stroke:red;stroke-width:.666665;stroke-linecap:round;stroke-linejoin:round;stroke-miterlimit:4;stroke-dasharray:none;stroke-opacity:1;visibility:visible" visibility="hidden"/><path d="m349.862 712.628-2.507-.535c-.504-.107-1.127.801-1.388 2.03-.263 1.225-.065 2.309.436 2.417l2.604.558" style="fill:none;stroke:red;stroke-width:.666665;stroke-linecap:round;stroke-linejoin:round;stroke-miterlimit:4;stroke-dasharray:none;stroke-opacity:1;visibility:visible" visibility="hidden"/><path d="m347.939 717.899-3.303 1.981M344.72 719.178s-5.025-5.692.601-11.35" style="fill:none;stroke:red;stroke-width:.999997;stroke-linecap:round;stroke-linejoin:round;stroke-miterlimit:4;stroke-dasharray:none;stroke-opacity:1;visibility:visible" visibility="hidden"/><path d="m376.548 782.056-127.054-24.943c-.555.556-1.945.387-1.945.387l-10.779-3.222 11.24-172.822 6.967-2.125 11.753 2.785-10.277 147.828" style="fill:none;stroke:red;stroke-width:1.99999;stroke-linecap:round;stroke-linejoin:round;stroke-miterlimit:2;stroke-dasharray:none;stroke-opacity:1;visibility:visible" visibility="hidden"/><path d="m248.35 581.558 11.528 2.73 6.463-1.882M259.879 584.818l-11.496 172.6" style="fill:none;stroke:red;stroke-width:.999997;stroke-linecap:round;stroke-linejoin:round;stroke-miterlimit:2;stroke-dasharray:none;stroke-opacity:1;visibility:visible" visibility="hidden"/><path d="m337.365 694.603 11.784-137.688-11.197-2.424-5.924 1.703-11.404 138.73" style="fill:none;stroke:red;stroke-width:1.99999;stroke-linecap:round;stroke-linejoin:round;stroke-miterlimit:2;stroke-dasharray:none;stroke-opacity:1;visibility:visible" visibility="hidden"/><path d="m332.28 556.334 11.047 2.388 5.674-1.66M343.33 558.854l-13.961 160.973" style="fill:none;stroke:red;stroke-width:.999997;stroke-linecap:round;stroke-linejoin:round;stroke-miterlimit:2;stroke-dasharray:none;stroke-opacity:1;visibility:visible" visibility="hidden"/><path d="m408.468 613.717 6.37-2.414 12.905 2.984-28.304 132.658s-3.112 16.444-3.779 33.11l7.89 226.334-5.334 4.555-10.776-1.89-10.891-224.775 3.001-31.001 28.918-139.561" style="fill:none;stroke:red;stroke-width:1.99999;stroke-linecap:round;stroke-linejoin:round;stroke-miterlimit:2;stroke-dasharray:none;stroke-opacity:1;visibility:visible" visibility="hidden"/><path d="m408.803 613.85 12.805 2.916 6.035-2.313M421.112 616.873l-28.548 132.42s-3.572 25.027-3.349 37.026l8.556 224.403" style="fill:none;stroke:red;stroke-width:.999997;stroke-linecap:round;stroke-linejoin:round;stroke-miterlimit:2;stroke-dasharray:none;stroke-opacity:1;visibility:visible" visibility="hidden"/><path d="M403.439 1005.611c44.667-22 51.777-41.112 51.777-41.112h1.11l4.447-3.109-5.333-211.779c.222-12.887 3.109-28.889 3.109-28.889L487.9 590.65l-12.017-2.817-5.756 2.147-29.244 131.632-.223 3.666" style="fill:none;stroke:red;stroke-width:1.99999;stroke-linecap:round;stroke-linejoin:round;stroke-miterlimit:2;stroke-dasharray:none;stroke-opacity:1;visibility:visible" visibility="hidden"/><path d="m455.215 963.832-5.333-198.442s.222-32.001 4.222-46.001L482.594 593M470.846 590.255l11.879 2.55 4.78-1.894" style="fill:none;stroke:red;stroke-width:.999997;stroke-linecap:round;stroke-linejoin:round;stroke-miterlimit:2;stroke-dasharray:none;stroke-opacity:1;visibility:visible" visibility="hidden"/><path d="m303.617 730.657-12.352 5.62" style="fill:none;stroke:red;stroke-width:1.99999;stroke-linecap:round;stroke-linejoin:round;stroke-miterlimit:2;stroke-dasharray:none;stroke-opacity:1;visibility:visible" visibility="hidden"/><path d="m309.665 723.686-1.19.541" style="fill:none;stroke:red;stroke-width:.666665;stroke-linecap:round;stroke-linejoin:round;stroke-miterlimit:2;stroke-dasharray:none;stroke-opacity:1;visibility:visible" visibility="hidden"/><path d="m327.936 719.59-11.305 5.145" style="fill:none;stroke:red;stroke-width:1.99999;stroke-linecap:round;stroke-linejoin:round;stroke-miterlimit:2;stroke-dasharray:none;stroke-opacity:1;visibility:visible" visibility="hidden"/><path d="m317.275 716.711 11.279-5.295-.618 8.174" style="fill:none;stroke:red;stroke-width:.999997;stroke-linecap:round;stroke-linejoin:round;stroke-miterlimit:2;stroke-dasharray:none;stroke-opacity:1;visibility:visible" visibility="hidden"/><path d="m328.823 707.558-11.548 5.241v3.507" style="fill:none;stroke:red;stroke-width:1.99999;stroke-linecap:round;stroke-linejoin:round;stroke-miterlimit:2;stroke-dasharray:none;stroke-opacity:1;visibility:visible" visibility="hidden"/><path d="m322.93 694.388 6.975 1.824-.912 11.267" style="fill:none;stroke:red;stroke-width:.999997;stroke-linecap:round;stroke-linejoin:round;stroke-miterlimit:2;stroke-dasharray:none;stroke-opacity:1;visibility:visible" visibility="hidden"/><path d="m257.2 722.696 65.73-28.307" style="fill:none;stroke:red;stroke-width:1.99999;stroke-linecap:round;stroke-linejoin:round;stroke-miterlimit:2;stroke-dasharray:none;stroke-opacity:1;visibility:visible" visibility="hidden"/><path d="m329.585 696.587-72.384 31.172M323.428 710.301l5.127 1.08M407.561 716.89l32.644 8.701M336.452 694.657l-4.453 2.092 54.798 14.607" style="fill:none;stroke:red;stroke-width:.999997;stroke-linecap:round;stroke-linejoin:round;stroke-miterlimit:2;stroke-dasharray:none;stroke-opacity:1;visibility:visible" visibility="hidden"/><path d="m387.11 707.873-50.659-13.216M440.417 721.775l-31.637-8.252M402.249 739.651l7.095 1.917M328.652 719.59l53.139 14.53M255.866 729.907l122.864 23.172" style="fill:none;stroke:red;stroke-width:1.99999;stroke-linecap:round;stroke-linejoin:round;stroke-miterlimit:2;stroke-dasharray:none;stroke-opacity:1;visibility:visible" visibility="hidden"/><path d="m250.755 732.295 5.11-2.388M251.022 732.36l127.478 24.4" style="fill:none;stroke:red;stroke-width:.999997;stroke-linecap:round;stroke-linejoin:round;stroke-miterlimit:2;stroke-dasharray:none;stroke-opacity:1;visibility:visible" visibility="hidden"/><path d="m447.517 751.802-51.295 27.975" style="fill:none;stroke:red;stroke-width:1.99999;stroke-linecap:round;stroke-linejoin:round;stroke-miterlimit:2;stroke-dasharray:none;stroke-opacity:1;visibility:visible" visibility="hidden"/><path d="m441.333 725.397 8.32 2.255-2.136 24.15" style="fill:none;stroke:red;stroke-width:.999997;stroke-linecap:round;stroke-linejoin:round;stroke-miterlimit:2;stroke-dasharray:none;stroke-opacity:1;visibility:visible" visibility="hidden"/><path d="m399.439 746.944 41.895-21.547" style="fill:none;stroke:red;stroke-width:1.99999;stroke-linecap:round;stroke-linejoin:round;stroke-miterlimit:2;stroke-dasharray:none;stroke-opacity:1;visibility:visible" visibility="hidden"/><path d="m399.216 754.499 49.716-26.279" style="fill:none;stroke:red;stroke-width:.999997;stroke-linecap:round;stroke-linejoin:round;stroke-miterlimit:2;stroke-dasharray:none;stroke-opacity:1;visibility:visible" visibility="hidden"/><path d="M439.882 798.278s-9.556 16.222-42.667 27.777" style="fill:none;stroke:red;stroke-width:1.99999;stroke-linecap:round;stroke-linejoin:round;stroke-miterlimit:2;stroke-dasharray:none;stroke-opacity:1;visibility:visible" visibility="hidden"/><path d="m449.216 806.278-.223-6.667-9.11-1.333" style="fill:none;stroke:red;stroke-width:.999997;stroke-linecap:round;stroke-linejoin:round;stroke-miterlimit:2;stroke-dasharray:none;stroke-opacity:1;visibility:visible" visibility="hidden"/><path d="M397.659 838.278c40.888-14.444 51.556-32 51.556-32" style="fill:none;stroke:red;stroke-width:1.99999;stroke-linecap:round;stroke-linejoin:round;stroke-miterlimit:2;stroke-dasharray:none;stroke-opacity:1;visibility:visible" visibility="hidden"/><path d="M397.439 831.166s38.665-13.555 51.555-31.555" style="fill:none;stroke:red;stroke-width:.999997;stroke-linecap:round;stroke-linejoin:round;stroke-miterlimit:2;stroke-dasharray:none;stroke-opacity:1;visibility:visible" visibility="hidden"/><path d="m440.388 817.519 5.744 151.576M438.112 757.477l1.524 40.17" style="fill:none;stroke:red;stroke-width:1.99999;stroke-linecap:round;stroke-linejoin:round;stroke-miterlimit:4;stroke-dasharray:none;stroke-opacity:1;visibility:visible" visibility="hidden"/><path d="m446.546 956.594 8.217 1.416s-8.864 21.064-50.999 40.516M414.32 987.352l6.621 1.273" style="fill:none;stroke:red;stroke-width:.999997;stroke-linecap:round;stroke-linejoin:round;stroke-miterlimit:4;stroke-dasharray:none;stroke-opacity:1;visibility:visible" visibility="hidden"/><path d="m407.165 834.763 7.153 152.588" style="fill:none;stroke:red;stroke-width:1.99999;stroke-linecap:round;stroke-linejoin:round;stroke-miterlimit:4;stroke-dasharray:none;stroke-opacity:1;visibility:visible" visibility="hidden"/><path d="m420.94 988.116-6.692-156.186" style="fill:none;stroke:red;stroke-width:.999997;stroke-linecap:round;stroke-linejoin:round;stroke-miterlimit:4;stroke-dasharray:none;stroke-opacity:1;visibility:visible" visibility="hidden"/><path d="m417.365 830.797 7.084 155.829" style="fill:none;stroke:red;stroke-width:1.99999;stroke-linecap:round;stroke-linejoin:round;stroke-miterlimit:4;stroke-dasharray:none;stroke-opacity:1;visibility:visible" visibility="hidden"/><path d="m424.379 982.004 5.475.764M432.656 977.038l4.065.568M439.915 970.67l3.817.533M429.854 982.769l-6.256-155.086" style="fill:none;stroke:red;stroke-width:.999997;stroke-linecap:round;stroke-linejoin:round;stroke-miterlimit:4;stroke-dasharray:none;stroke-opacity:1;visibility:visible" visibility="hidden"/><path d="m426.43 826.548 6.353 154.564" style="fill:none;stroke:red;stroke-width:1.99999;stroke-linecap:round;stroke-linejoin:round;stroke-miterlimit:4;stroke-dasharray:none;stroke-opacity:1;visibility:visible" visibility="hidden"/><path d="m437.48 977.276-6.233-153.56" style="fill:none;stroke:red;stroke-width:.999997;stroke-linecap:round;stroke-linejoin:round;stroke-miterlimit:4;stroke-dasharray:none;stroke-opacity:1;visibility:visible" visibility="hidden"/><path d="m434.08 821.164 5.95 153.562" style="fill:none;stroke:red;stroke-width:1.99999;stroke-linecap:round;stroke-linejoin:round;stroke-miterlimit:4;stroke-dasharray:none;stroke-opacity:1;visibility:visible" visibility="hidden"/><path d="m443.764 971.043-5.95-152.428" style="fill:none;stroke:red;stroke-width:.999997;stroke-linecap:round;stroke-linejoin:round;stroke-miterlimit:4;stroke-dasharray:none;stroke-opacity:1;visibility:visible" visibility="hidden"/><path d="M403.348 992.643a185.457 185.457 0 0 0 10.926-6.137" style="fill:none;stroke:red;stroke-width:1.99999;stroke-linecap:round;stroke-linejoin:round;stroke-miterlimit:500;stroke-dasharray:none;stroke-opacity:1;visibility:visible" visibility="hidden"/><path d="M344.996 707.53c1.491-.09 3.062.526 4.364 1.68" style="fill:none;stroke:red;stroke-width:.999997;stroke-linecap:round;stroke-linejoin:round;stroke-miterlimit:500;stroke-dasharray:none;stroke-opacity:1;visibility:visible" visibility="hidden"/><path d="M348.356 720.836c-2.65.818-5.373-.843-6.95-4.094-1.702-3.509-.85-7.436 1.901-8.772a4.45 4.45 0 0 1 1.69-.44" style="fill:none;stroke:red;stroke-width:.999997;stroke-linecap:round;stroke-linejoin:round;stroke-miterlimit:500;stroke-dasharray:none;stroke-opacity:1;visibility:visible" visibility="hidden"/><path d="m416.651 738.019 3.116-2.224" style="fill:none;stroke:red;stroke-width:.666665;stroke-linecap:round;stroke-linejoin:round;stroke-miterlimit:500;stroke-dasharray:none;stroke-opacity:1;visibility:visible" visibility="hidden"/><path d="M324.013 730.321c-1.088.624-4.128 1.948-4.128 1.948s-1.683.51-3.207.12l-11-2.49s-.665-.389-.558-1.312l.546-6.942s-.14-.916 1.459-1.705l3.265-1.706s1.032-.469 1.85.078c.601.404.474 1.456.474 1.456l-.481 6.292 11.912 2.657s1.285.792-.132 1.604" style="fill:none;stroke:red;stroke-width:.999997;stroke-linecap:round;stroke-linejoin:round;stroke-miterlimit:2;stroke-dasharray:none;stroke-opacity:1;visibility:visible" visibility="hidden"/><path d="m311.591 726.573-5.525 2.552M308.16 725.321c-.52-.355-.503-1.261.02-2.023.528-.761 1.375-1.09 1.887-.74.511.356.509 1.266-.021 2.03-.526.761-1.376 1.09-1.887.732l.001.001M317.762 728.966l-4.292-.958s-1.23-.416-2.088.246c-.548.423-.35.924.295 1.086l3.918.877s.985.321 2.095-.293c.864-.479.072-.958.072-.958M308.99 724.675l.084-1.413" style="fill:none;stroke:red;stroke-width:.666665;stroke-linecap:round;stroke-linejoin:round;stroke-miterlimit:2;stroke-dasharray:none;stroke-opacity:1;visibility:visible" visibility="hidden"/><path d="M369.566 535.48c-1.707-2.467-.167-7.244 3.598-12.227l2.336 2.663 1.54-9.58-8.914 1.166 2.304 2.63c-4.002 5.25-5.534 10.284-3.424 12.652l2.658 2.832c-.033-.045-.068-.09-.098-.136" style="fill:none;fill-opacity:1;fill-rule:nonzero;stroke:red;stroke-width:1.33333;visibility:visible" visibility="hidden"/><path d="M369.566 535.48c-1.707-2.467-.167-7.244 3.598-12.227l2.336 2.663 1.54-9.58-8.914 1.166 2.304 2.63c-4.002 5.25-5.534 10.284-3.424 12.652l2.658 2.832c-.033-.045-.068-.09-.098-.136M348.514 709.134c-.334.298-.752 1.123-1.09 2.159M347.16 716.852c.14.32.325.433.57.652" style="fill:none;stroke:red;stroke-width:.999997;stroke-linecap:round;stroke-linejoin:round;stroke-miterlimit:4;stroke-dasharray:none;stroke-opacity:1;visibility:visible" visibility="hidden"/><path d="m346.616 712.261-1.785-.368c-.781-.19-1.136 3.29-.493 3.395l1.497.321" style="fill:none;stroke:red;stroke-width:.666665;stroke-linecap:round;stroke-linejoin:round;stroke-miterlimit:4;stroke-dasharray:none;stroke-opacity:1;visibility:visible" visibility="hidden"/><path d="M416.676 736.021c-2.65.819-5.373-.843-6.95-4.093-1.22-2.516-1.128-5.248.036-7.084M409.762 724.844a4.58 4.58 0 0 1 1.864-1.691c1.737-.841 3.813-.456 5.537.82M421.13 724.982c1.823.54 3.56 2.028 4.594 4.156.266.552.471 1.112.615 1.67" style="fill:none;stroke:red;stroke-width:.999997;stroke-linecap:round;stroke-linejoin:round;stroke-miterlimit:500;stroke-dasharray:none;stroke-opacity:1;visibility:visible" visibility="hidden"/><path d="M413.71 723.321c-1.606 1.305-2.031 4.036-.898 6.577 1.296 2.9 4.142 4.454 6.354 3.463.316-.141.602-.328.857-.55l1.035 1.036" style="fill:none;stroke:red;stroke-width:.666665;stroke-linecap:round;stroke-linejoin:round;stroke-miterlimit:500;stroke-dasharray:none;stroke-opacity:1;visibility:visible" visibility="hidden"/><path d="M356.868 723.265c-1.472.435-3.265.104-4.794-.784M417.126 724.036c1.052-.096 2.15.164 3.172.724M420.827 725.036s2.143 2.972 2.136 5.262c-.01 2.294-2.136 2.928-2.136 2.928M354.086 709.932c.924.144 1.85.54 2.694 1.146" style="fill:none;stroke:red;stroke-width:.999997;stroke-linecap:round;stroke-linejoin:round;stroke-miterlimit:500;stroke-dasharray:none;stroke-opacity:1;visibility:visible" visibility="hidden"/><path d="M356.78 711.08c1.046.753 1.97 1.836 2.617 3.17 1.705 3.511.853 7.44-1.907 8.776a4.104 4.104 0 0 1-.622.24" style="fill:none;stroke:red;stroke-width:.999997;stroke-linecap:round;stroke-linejoin:round;stroke-miterlimit:500;stroke-dasharray:none;stroke-opacity:1;visibility:visible" visibility="hidden"/><path d="m348.632 720.818 3.116-2.224M359.84 720.794a5.368 5.368 0 0 1-3.257-.36 5.553 5.553 0 0 1-1.771-1.216M351.578 718.433a4.792 4.792 0 0 1-1.672-.744" style="fill:none;stroke:red;stroke-width:.666665;stroke-linecap:round;stroke-linejoin:round;stroke-miterlimit:500;stroke-dasharray:none;stroke-opacity:1;visibility:visible" visibility="hidden"/><path d="M352.123 722.2c-.965-.004-2.5-.282-3.227-1.026" style="fill:none;stroke:red;stroke-width:.999997;stroke-linecap:round;stroke-linejoin:round;stroke-miterlimit:500;stroke-dasharray:none;stroke-opacity:1;visibility:visible" visibility="hidden"/><path d="m352.77 722.214 2.618-2.789M354.974 719.294c-.966-.004-1.982-.26-2.924-.722" style="fill:none;stroke:red;stroke-width:.666665;stroke-linecap:round;stroke-linejoin:round;stroke-miterlimit:500;stroke-dasharray:none;stroke-opacity:1;visibility:visible" visibility="hidden"/><path d="M349.623 709.209c1.037-.375 2.917-.076 4.025.69" style="fill:none;stroke:red;stroke-width:.999997;stroke-linecap:round;stroke-linejoin:round;stroke-miterlimit:500;stroke-dasharray:none;stroke-opacity:1;visibility:visible" visibility="hidden"/><path d="m354.086 709.932-4.224 2.696" style="fill:none;stroke:red;stroke-width:.666665;stroke-linecap:round;stroke-linejoin:round;stroke-miterlimit:4;stroke-dasharray:none;stroke-opacity:1;visibility:visible" visibility="hidden"/><path d="m408.468 613.717 19.175.736" style="fill:none;stroke:red;stroke-width:.999997;stroke-linecap:round;stroke-linejoin:round;stroke-miterlimit:2;stroke-dasharray:none;stroke-opacity:1;visibility:visible" visibility="hidden"/><path d="m306.066 729.125-2.449 1.532M311.591 726.573l5.04-1.838M255.866 729.907l1.334-7.211" style="fill:none;stroke:red;stroke-width:1.99999;stroke-linecap:round;stroke-linejoin:round;stroke-miterlimit:2;stroke-dasharray:none;stroke-opacity:1;visibility:visible" visibility="hidden"/><path d="m255.866 729.907 1.335-2.148M317.762 728.966l5.666-18.665M328.652 719.59l-.097-8.209" style="fill:none;stroke:red;stroke-width:.999997;stroke-linecap:round;stroke-linejoin:round;stroke-miterlimit:2;stroke-dasharray:none;stroke-opacity:1;visibility:visible" visibility="hidden"/><path d="m441.333 725.397-.916-3.622" style="fill:none;stroke:red;stroke-width:1.99999;stroke-linecap:round;stroke-linejoin:round;stroke-miterlimit:2;stroke-dasharray:none;stroke-opacity:1;visibility:visible" visibility="hidden"/><path d="m449.215 806.278-8.827 11.241" style="fill:none;stroke:red;stroke-width:1.99999;stroke-linecap:round;stroke-linejoin:round;stroke-miterlimit:4;stroke-dasharray:none;stroke-opacity:1;visibility:visible" visibility="hidden"/><path d="m443.732 971.203 2.814-14.609M420.941 988.625l3.438-6.621M429.854 982.768l2.802-5.73M436.721 977.606l3.194-6.936M449.215 806.278l-11.4 12.337" style="fill:none;stroke:red;stroke-width:.999997;stroke-linecap:round;stroke-linejoin:round;stroke-miterlimit:4;stroke-dasharray:none;stroke-opacity:1;visibility:visible" visibility="hidden"/><path d="m413.71 723.321 2.941 14.698" style="fill:none;stroke:red;stroke-width:.666665;stroke-linecap:round;stroke-linejoin:round;stroke-miterlimit:500;stroke-dasharray:none;stroke-opacity:1;visibility:visible" visibility="hidden"/><path d="m317.275 716.711 6.738 13.61" style="fill:none;stroke:red;stroke-width:.999997;stroke-linecap:round;stroke-linejoin:round;stroke-miterlimit:2;stroke-dasharray:none;stroke-opacity:1;visibility:visible" visibility="hidden"/><path d="m308.474 724.227 3.117 2.346M303.617 730.657l2.449-1.532M328.652 719.59l-10.89 9.376M308.16 725.321l9.602 3.645" style="fill:none;stroke:red;stroke-width:.666665;stroke-linecap:round;stroke-linejoin:round;stroke-miterlimit:2;stroke-dasharray:none;stroke-opacity:1;visibility:visible" visibility="hidden"/><path d="m344.72 719.178 2.44-2.326" style="fill:none;stroke:red;stroke-width:.999997;stroke-linecap:round;stroke-linejoin:round;stroke-miterlimit:4;stroke-dasharray:none;stroke-opacity:1;visibility:visible" visibility="hidden"/><path d="m354.086 709.932-7.47 2.329M354.086 709.932l-8.251 5.677" style="fill:none;stroke:red;stroke-width:.666665;stroke-linecap:round;stroke-linejoin:round;stroke-miterlimit:4;stroke-dasharray:none;stroke-opacity:1;visibility:visible" visibility="hidden"/><path d="m416.651 738.019-2.941-14.698M356.868 723.266l2.972-2.472" style="fill:none;stroke:red;stroke-width:.666665;stroke-linecap:round;stroke-linejoin:round;stroke-miterlimit:500;stroke-dasharray:none;stroke-opacity:1;visibility:visible" visibility="hidden"/><path d="m374.871 791.895-55.016-16.471-89.605 44.962v2.59s1.941 9.379 18.44 13.261l121.608 25.614s7.121 1.312 9.097-11.309M427.9 807.77l-29.792-8.917" style="fill:none;stroke:#00ff4a;stroke-width:1.99999;stroke-linecap:round;stroke-linejoin:round;stroke-miterlimit:2;stroke-dasharray:none;stroke-opacity:1;visibility:visible"/><path d="m231.202 820.959 138.494 28.75 5.824-3.458 4.04 1.063" style="fill:none;stroke:#00ff4a;stroke-width:.999997;stroke-linecap:round;stroke-linejoin:round;stroke-miterlimit:2;stroke-dasharray:none;stroke-opacity:1;visibility:visible"/><path d="m230.565 823.722 138.984 29.088 5.973-3.583 3.613 1.063M369.697 849.71l-.147 3.1" style="fill:none;stroke:#00ff4a;stroke-width:.999997;stroke-linecap:round;stroke-linejoin:round;stroke-miterlimit:2;stroke-dasharray:none;stroke-opacity:1;visibility:visible"/><path d="M279.543 810.217c0 .286-.528.518-1.177.518-.65 0-1.179-.232-1.179-.518 0-.287.528-.519 1.179-.519.65 0 1.177.232 1.177.519M312.517 793.847c0 .287-.528.52-1.178.52-.649-.001-1.178-.234-1.178-.521-.001-.285.528-.516 1.178-.516.651-.001 1.178.23 1.178.517" style="fill:none;stroke:#00ff4a;stroke-width:.666665;stroke-linecap:round;stroke-linejoin:round;stroke-miterlimit:2;stroke-dasharray:none;stroke-opacity:1;visibility:visible"/><path d="M368.22 852.96s.073 5.756 2.213 8.12M375.664 846.59l-.659 12.95M375.005 859.54l-5.308-9.83M375.664 846.59l-6.114 6.22M369.55 852.81l-1.33.15M369.55 852.81l6.114-6.22M369.697 849.71l5.308 9.83" style="fill:none;stroke:#00ff4a;stroke-width:.999997;stroke-linecap:round;stroke-linejoin:round;stroke-miterlimit:2;stroke-dasharray:none;stroke-opacity:1;visibility:visible"/><path d="m440.388 817.519 8.606-17.908" style="fill:none;stroke:red;stroke-width:.999997;stroke-linecap:round;stroke-linejoin:round;stroke-miterlimit:2;stroke-dasharray:none;stroke-opacity:1;visibility:visible" visibility="hidden"/><path d="m413.71 723.321 12.629 7.487" style="fill:none;stroke:red;stroke-width:.999997;stroke-linecap:round;stroke-linejoin:round;stroke-miterlimit:500;stroke-dasharray:none;stroke-opacity:1;visibility:visible" visibility="hidden"/></svg>