<svg xmlns="http://www.w3.org/2000/svg" baseProfile="full" height="1122.52" preserveAspectRatio="xMinYMin meet" style="width:602px;height:740px" width="793.701" xml:space="preserve"><path d="m478.257 770.653 1.048-8.45s.063-.19.292-.379c.227-.189.558-.494.558-.494s.248-.333 1.368-.278c1.116.052 1.425.46 1.425.46s.497.668.577.761c.083.094.163.209.132.496l-1.02 8.296M490.607 764.91l1.043-8.456s.066-.184.294-.374c.23-.191.556-.495.556-.495s.25-.333 1.369-.279c1.116.052 1.427.464 1.427.464s.495.664.579.758c.081.098.16.208.128.494l-1.02 8.298" style="fill:none;stroke:red;stroke-width:.666665;stroke-linecap:round;stroke-linejoin:round;stroke-miterlimit:4;stroke-dasharray:none;stroke-opacity:1;visibility:visible" visibility="hidden"/><path d="M482.967 769.908a.69.69 0 0 1 .193.464c-.012.653-1.176 1.164-2.603 1.14-1.422-.023-2.57-.576-2.56-1.232a.576.576 0 0 1 .054-.234M479.38 771.197l-.203-7.033M481.18 763.42l.232 7.945M479.279 762.457s.59.875 2.216.932c1.77.063 2.157-.705 2.157-.705M495.261 764.11c.162.156.25.33.246.52-.01.652-1.178 1.163-2.604 1.136-1.423-.025-2.57-.574-2.56-1.23a.675.675 0 0 1 .212-.456M491.725 765.452l-.2-7.032M493.528 757.676l.23 7.948M491.628 756.712s.588.874 2.213.932c1.771.065 2.16-.704 2.16-.704" style="fill:none;stroke:red;stroke-width:.666665;stroke-linecap:round;stroke-linejoin:round;stroke-miterlimit:4;stroke-dasharray:none;stroke-opacity:1;visibility:visible" visibility="hidden"/><path d="m488.97 763.634-4.086 1.82M476.807 769.056l-6.704 2.989-16.173 142.614" style="fill:none;stroke:red;stroke-width:1.99999;stroke-linecap:round;stroke-linejoin:round;stroke-miterlimit:4;stroke-dasharray:none;stroke-opacity:1;visibility:visible" visibility="hidden"/><path d="M461.439 918.809 477.77 776.66M470.168 772.566l7.602 4.094 24.82-11.304" style="fill:none;stroke:red;stroke-width:.999997;stroke-linecap:round;stroke-linejoin:round;stroke-miterlimit:4;stroke-dasharray:none;stroke-opacity:1;visibility:visible" visibility="hidden"/><path d="M489.585 767.37c0 .748-1.289 1.358-2.88 1.358-1.589 0-2.878-.61-2.878-1.358 0-.75 1.29-1.357 2.878-1.357 1.591 0 2.88.607 2.88 1.357" style="fill:none;stroke:red;stroke-width:.666665;stroke-linecap:round;stroke-linejoin:round;stroke-miterlimit:4;stroke-dasharray:none;stroke-opacity:1;visibility:visible" visibility="hidden"/><path d="M406.612 850.614c1.354-.27 2.123.052 2.123.052l2.039 1.008s2.481 1.416 2.649 5.268l.168 10.06s.073.73-.756.91l-5.69 2.302s-1.685.436-3.242-.433l-3.26-2.074s-.801-.442-.813-1.424c-.011-.723 1-1.098 1-1.098l4.413-1.905v-11.035s.004-1.358 1.37-1.631h-.001" style="fill:none;stroke:red;stroke-width:.999997;stroke-linecap:round;stroke-linejoin:round;stroke-miterlimit:2;stroke-dasharray:none;stroke-opacity:1;visibility:visible" visibility="hidden"/><path d="m408.136 856.071.054 4.419s.185 1.079.712 1.527c.528.45.982.13.99-.537l-.049-4.313s-.104-1.249-.757-1.674c-.952-.623-.95.577-.95.577v.001M406.622 863.702l5.241 3.003" style="fill:none;stroke:red;stroke-width:.666665;stroke-linecap:round;stroke-linejoin:round;stroke-miterlimit:2;stroke-dasharray:none;stroke-opacity:1;visibility:visible" visibility="hidden"/><path d="M442.279 871.649c1.353-.271 2.123.051 2.123.051l2.038 1.009s2.482 1.416 2.65 5.268l.168 10.06s.072.729-.756.909l-5.69 2.304s-1.686.435-3.244-.435l-3.258-2.073s-.802-.443-.814-1.424c-.01-.724 1.002-1.099 1.002-1.099l4.412-1.904V873.28s.004-1.358 1.369-1.63v-.001" style="fill:none;stroke:red;stroke-width:.999997;stroke-linecap:round;stroke-linejoin:round;stroke-miterlimit:2;stroke-dasharray:none;stroke-opacity:1;visibility:visible" visibility="hidden"/><path d="m443.803 877.107.053 4.418s.186 1.08.712 1.528c.53.45.983.13.99-.536l-.048-4.314s-.104-1.25-.758-1.673c-.952-.623-.95.577-.95.577h.001M442.288 884.738l5.242 3.002" style="fill:none;stroke:red;stroke-width:.666665;stroke-linecap:round;stroke-linejoin:round;stroke-miterlimit:2;stroke-dasharray:none;stroke-opacity:1;visibility:visible" visibility="hidden"/><path d="m362.323 870.24-137.377 81.97-8.785-5.915-.903-14.024 132.586-77.968 4.418-2.062" style="fill:none;stroke:red;stroke-width:1.99999;stroke-linecap:round;stroke-linejoin:round;stroke-miterlimit:4;stroke-dasharray:none;stroke-opacity:1;visibility:visible" visibility="hidden"/><path d="m665.546 843.534 6.502-2.033" style="fill:none;stroke:red;stroke-width:.999997;stroke-linecap:round;stroke-linejoin:round;stroke-miterlimit:4;stroke-dasharray:none;stroke-opacity:1;visibility:visible" visibility="hidden"/><path d="m528.541 886.41 137.005-42.875" style="fill:none;stroke:red;stroke-width:1.99999;stroke-linecap:round;stroke-linejoin:round;stroke-miterlimit:4;stroke-dasharray:none;stroke-opacity:1;visibility:visible" visibility="hidden"/><path d="m521.745 888.537 6.796-2.128" style="fill:none;stroke:red;stroke-width:.999997;stroke-linecap:round;stroke-linejoin:round;stroke-miterlimit:4;stroke-dasharray:none;stroke-opacity:1;visibility:visible" visibility="hidden"/><path d="m486.715 899.5 35.03-10.962" style="fill:none;stroke:red;stroke-width:1.99999;stroke-linecap:round;stroke-linejoin:round;stroke-miterlimit:4;stroke-dasharray:none;stroke-opacity:1;visibility:visible" visibility="hidden"/><path d="m572.215 804.555 1.277-10.665M682.497 845.823l-194.449 61.01-29.166 14.669-134.167 83.831" style="fill:none;stroke:red;stroke-width:.999997;stroke-linecap:round;stroke-linejoin:round;stroke-miterlimit:4;stroke-dasharray:none;stroke-opacity:1;visibility:visible" visibility="hidden"/><path d="m398.586 856.137 4.517-1.342M413.607 851.675l13.896-4.128M446.57 841.883l14.017-4.163M496.887 826.935l75.328-22.38" style="fill:none;stroke:red;stroke-width:1.99999;stroke-linecap:round;stroke-linejoin:round;stroke-miterlimit:4;stroke-dasharray:none;stroke-opacity:1;visibility:visible" visibility="hidden"/><path d="M574.257 794.394s40.593 40.421 91.759 48.61" style="fill:none;stroke:red;stroke-width:.999997;stroke-linecap:round;stroke-linejoin:round;stroke-miterlimit:4;stroke-dasharray:none;stroke-opacity:1;visibility:visible" visibility="hidden"/><path d="M572.215 804.555s4.765 4.515 12.64 10.751M640.388 847.287c2.052.686 4.117 1.307 6.185 1.855" style="fill:none;stroke:red;stroke-width:1.99999;stroke-linecap:round;stroke-linejoin:round;stroke-miterlimit:4;stroke-dasharray:none;stroke-opacity:1;visibility:visible" visibility="hidden"/><path d="m215.934 932.863 7.941 5.435.846 13.518M223.922 938.342l132.566-78.32 28.614-13.248 77.053-21.823M498.661 814.61l80.81-22.885" style="fill:none;stroke:red;stroke-width:.999997;stroke-linecap:round;stroke-linejoin:round;stroke-miterlimit:4;stroke-dasharray:none;stroke-opacity:1;visibility:visible" visibility="hidden"/><path d="m382.715 839.555 80.216-22.593M499.159 806.76l71.333-20.092 8.481 4.394s.72.239.515 1.403c0 0 39.81 39.953 92.416 49.062l1.749-.486 9.648 5.161-2.061 12.068-193.54 64.016-23.03 11.192-138.907 86.724-9.721-6.37-.576-14.414 134.416-83.083 4-2" style="fill:none;stroke:red;stroke-width:1.99999;stroke-linecap:round;stroke-linejoin:round;stroke-miterlimit:4;stroke-dasharray:none;stroke-opacity:1;visibility:visible" visibility="hidden"/><path d="m315.802 999.847 9.003 5.844.67 14.03" style="fill:none;stroke:red;stroke-width:1.99999;stroke-linecap:round;stroke-linejoin:round;stroke-miterlimit:4;stroke-dasharray:none;stroke-opacity:1;visibility:visible" visibility="hidden"/><path d="m614.022 825.027-.885 6.17M614.022 825.027 492.656 861.35" style="fill:none;stroke:red;stroke-width:.999997;stroke-linecap:round;stroke-linejoin:round;stroke-miterlimit:4;stroke-dasharray:none;stroke-opacity:1;visibility:visible" visibility="hidden"/><path d="m493.27 856.73 116.11-34.56" style="fill:none;stroke:red;stroke-width:1.99999;stroke-linecap:round;stroke-linejoin:round;stroke-miterlimit:4;stroke-dasharray:none;stroke-opacity:1;visibility:visible" visibility="hidden"/><path d="m627.122 831.785-.796 5.74" style="fill:none;stroke:red;stroke-width:.999997;stroke-linecap:round;stroke-linejoin:round;stroke-miterlimit:4;stroke-dasharray:none;stroke-opacity:1;visibility:visible" visibility="hidden"/><path d="m491.797 868.709 130.348-39.487" style="fill:none;stroke:red;stroke-width:1.99999;stroke-linecap:round;stroke-linejoin:round;stroke-miterlimit:4;stroke-dasharray:none;stroke-opacity:1;visibility:visible" visibility="hidden"/><path d="M626.964 831.811 491.25 872.986" style="fill:none;stroke:red;stroke-width:.999997;stroke-linecap:round;stroke-linejoin:round;stroke-miterlimit:4;stroke-dasharray:none;stroke-opacity:1;visibility:visible" visibility="hidden"/><path d="m639.728 845.915-121.31 37.599" style="fill:none;stroke:red;stroke-width:1.99999;stroke-linecap:round;stroke-linejoin:round;stroke-miterlimit:4;stroke-dasharray:none;stroke-opacity:1;visibility:visible" visibility="hidden"/><path d="m640.532 837.345-.804 8.57" style="fill:none;stroke:red;stroke-width:.999997;stroke-linecap:round;stroke-linejoin:round;stroke-miterlimit:4;stroke-dasharray:none;stroke-opacity:1;visibility:visible" visibility="hidden"/><path d="m499.523 876.84 135.92-41.368" style="fill:none;stroke:red;stroke-width:1.99999;stroke-linecap:round;stroke-linejoin:round;stroke-miterlimit:4;stroke-dasharray:none;stroke-opacity:1;visibility:visible" visibility="hidden"/><path d="m601.345 817.085-.715 6.877M601.345 817.085 494.36 848.702M504.881 878.907l135.21-41.562" style="fill:none;stroke:red;stroke-width:.999997;stroke-linecap:round;stroke-linejoin:round;stroke-miterlimit:4;stroke-dasharray:none;stroke-opacity:1;visibility:visible" visibility="hidden"/><path d="M435.707 833.014c1.677 1.768 9.756 10.057 22.695 19.757M491.512 873.134c10.903 5.317 23.07 9.935 36.203 12.867M494.421 844.149l102.463-30.102" style="fill:none;stroke:red;stroke-width:1.99999;stroke-linecap:round;stroke-linejoin:round;stroke-miterlimit:4;stroke-dasharray:none;stroke-opacity:1;visibility:visible" visibility="hidden"/><path d="M521.548 888c-10.528-1.826-20.872-5.41-30.605-9.892M458.079 858.733c-17.39-12.423-28.696-23.899-28.696-23.899l-1.167 10.417" style="fill:none;stroke:red;stroke-width:.999997;stroke-linecap:round;stroke-linejoin:round;stroke-miterlimit:4;stroke-dasharray:none;stroke-opacity:1;visibility:visible" visibility="hidden"/><path d="m485.45 907.235 17.232-141.942-5.565-2.88M428.048 845.667s11.78 11.62 28.739 23.831M489.235 888.738c4.393 1.987 8.853 3.721 13.313 5.096" style="fill:none;stroke:red;stroke-width:1.99999;stroke-linecap:round;stroke-linejoin:round;stroke-miterlimit:4;stroke-dasharray:none;stroke-opacity:1;visibility:visible" visibility="hidden"/><path d="m454.27 915 7 4.11" style="fill:none;stroke:red;stroke-width:.999997;stroke-linecap:round;stroke-linejoin:round;stroke-miterlimit:4;stroke-dasharray:none;stroke-opacity:1;visibility:visible" visibility="hidden"/><path d="m368.827 693.944 3.639 1.973 2.638 37.49M377.184 762.932l5.892 83.674M352.408 853.571l-5.856-77.007M344.266 746.478l-3.383-44.476 8.625-3.6M356.85 695.34l4.542-1.9" style="fill:none;stroke:red;stroke-width:1.99999;stroke-linecap:round;stroke-linejoin:round;stroke-miterlimit:4;stroke-dasharray:none;stroke-opacity:1;visibility:visible" visibility="hidden"/><path d="m341.132 702.501 6.751 3.667 24.175-10.09M359.5 857.47l-6.474-84.286M350.778 743.884l-2.896-37.716" style="fill:none;stroke:red;stroke-width:.999997;stroke-linecap:round;stroke-linejoin:round;stroke-miterlimit:4;stroke-dasharray:none;stroke-opacity:1;visibility:visible" visibility="hidden"/><path d="M362.136 698.861c.028.675-1.156 1.27-2.646 1.33-1.49.061-2.718-.439-2.748-1.113-.027-.678 1.158-1.274 2.648-1.334 1.49-.058 2.718.442 2.746 1.116v.001M364.474 697.312l-1.715-6.602M364.586 689.67l1.886 7.482M363.3 696.965l-.73-8.172s.033-.19.222-.412c.191-.219.462-.564.462-.564s.188-.363 1.285-.487c1.093-.125 1.457.218 1.457.218s.59.568.684.646c.095.078.191.176.206.456l.73 8.015M352.5 702.261l-1.713-6.601M352.611 694.621l1.89 7.484M351.326 701.918l-.73-8.177s.032-.187.222-.408c.19-.221.461-.563.461-.563s.188-.365 1.284-.49c1.095-.124 1.46.22 1.46.22s.588.566.683.645c.094.079.19.172.206.456l.73 8.015" style="fill:none;stroke:red;stroke-width:.666665;stroke-linecap:round;stroke-linejoin:round;stroke-miterlimit:4;stroke-dasharray:none;stroke-opacity:1;visibility:visible" visibility="hidden"/><path d="M362.567 688.816s.713.75 2.3.55c1.73-.223 1.983-1.025 1.983-1.025M350.63 693.886s.71.752 2.3.55c1.73-.222 1.984-1.022 1.984-1.022M367.731 696.093c.13.112.203.24.209.375.022.537-1.065 1.018-2.426 1.07-1.364.055-2.486-.336-2.507-.874a.417.417 0 0 1 .03-.172M355.715 701.21a.459.459 0 0 1 .087.241c.021.537-1.054 1.015-2.395 1.069-1.345.053-2.453-.338-2.476-.879a.459.459 0 0 1 .043-.197" style="fill:none;stroke:red;stroke-width:.666665;stroke-linecap:round;stroke-linejoin:round;stroke-miterlimit:4;stroke-dasharray:none;stroke-opacity:1;visibility:visible" visibility="hidden"/><path d="m394.535 862.709-18.597-11.12" style="fill:none;stroke:red;stroke-width:.999997;stroke-linecap:round;stroke-linejoin:round;stroke-miterlimit:4;stroke-dasharray:none;stroke-opacity:1;visibility:visible" visibility="hidden"/><path d="m371.731 853.709 18.477 11.109 4.094-1.995" style="fill:none;stroke:red;stroke-width:1.99999;stroke-linecap:round;stroke-linejoin:round;stroke-miterlimit:4;stroke-dasharray:none;stroke-opacity:1;visibility:visible" visibility="hidden"/><path d="m360.202 868.582-.106-9.83" style="fill:none;stroke:red;stroke-width:.999997;stroke-linecap:round;stroke-linejoin:round;stroke-miterlimit:4;stroke-dasharray:none;stroke-opacity:1;visibility:visible" visibility="hidden"/><path d="m444.015 919.287-83.812-50.705" style="fill:none;stroke:red;stroke-width:1.99999;stroke-linecap:round;stroke-linejoin:round;stroke-miterlimit:4;stroke-dasharray:none;stroke-opacity:1;visibility:visible" visibility="hidden"/><path d="m460.359 919.045-107.685-64.636" style="fill:none;stroke:red;stroke-width:.999997;stroke-linecap:round;stroke-linejoin:round;stroke-miterlimit:4;stroke-dasharray:none;stroke-opacity:1;visibility:visible" visibility="hidden"/><path d="m383.831 847.722 19.73 11.653M415.6 866.487l23.323 13.776M451.11 887.462l5.295 3.125" style="fill:none;stroke:red;stroke-width:1.99999;stroke-linecap:round;stroke-linejoin:round;stroke-miterlimit:4;stroke-dasharray:none;stroke-opacity:1;visibility:visible" visibility="hidden"/><path d="m444.492 897.11 4.334-2.221 6.666 4M375.884 856.14l-.208-4.635" style="fill:none;stroke:red;stroke-width:.999997;stroke-linecap:round;stroke-linejoin:round;stroke-miterlimit:4;stroke-dasharray:none;stroke-opacity:1;visibility:visible" visibility="hidden"/><path d="m454.938 903.334-9.914-5.907" style="fill:none;stroke:red;stroke-width:1.99999;stroke-linecap:round;stroke-linejoin:round;stroke-miterlimit:4;stroke-dasharray:none;stroke-opacity:1;visibility:visible" visibility="hidden"/><path d="M448.938 895.11s2.778 5.445 4.332 7.112" style="fill:none;stroke:red;stroke-width:.999997;stroke-linecap:round;stroke-linejoin:round;stroke-miterlimit:4;stroke-dasharray:none;stroke-opacity:1;visibility:visible" visibility="hidden"/><path d="m441.946 887.577-.707.666M440.974 887.691l1.2.38M443.455 887.891c0 .559-.83 1.01-1.85 1.01s-1.852-.451-1.852-1.009c.001-.561.831-1.017 1.851-1.017s1.85.456 1.85 1.016h.001M406.652 866.49l-.706.667M405.679 866.605l1.201.38M408.159 866.806c0 .557-.83 1.01-1.85 1.01s-1.852-.452-1.852-1.009c.001-.561.831-1.017 1.851-1.017s1.852.456 1.852 1.016h-.001" style="fill:none;stroke:red;stroke-width:.666665;stroke-linecap:round;stroke-linejoin:round;stroke-miterlimit:2;stroke-dasharray:none;stroke-opacity:1;visibility:visible" visibility="hidden"/><path d="M370.102 834.523c.193.095.31.22.32.362.03.375-.71.737-1.654.805-.94.07-1.725-.187-1.752-.563-.013-.167.13-.333.375-.472M370.05 830.127c.028.376-.71.74-1.655.808-.939.068-1.725-.185-1.752-.562-.027-.379.717-.736 1.657-.808.94-.067 1.724.19 1.75.562" style="fill:none;stroke:red;stroke-width:.666665;stroke-linecap:round;stroke-linejoin:round;stroke-miterlimit:4;stroke-dasharray:none;stroke-opacity:1;visibility:visible" visibility="hidden"/><path d="m366.687 830.547.135 1.883c.028.38.8.635 1.724.57.921-.067 1.648-.43 1.622-.808l-.14-1.957" style="fill:none;stroke:red;stroke-width:.666665;stroke-linecap:round;stroke-linejoin:round;stroke-miterlimit:4;stroke-dasharray:none;stroke-opacity:1;visibility:visible" visibility="hidden"/><path d="m370.178 828.76 5.296 3.172" style="fill:none;stroke:red;stroke-width:.999997;stroke-linecap:round;stroke-linejoin:round;stroke-miterlimit:4;stroke-dasharray:none;stroke-opacity:1;visibility:visible" visibility="hidden"/><path d="m364.727 834.742 1.8 1.079M370.816 830.8l3.622 2.17" style="fill:none;stroke:red;stroke-width:.666665;stroke-linecap:round;stroke-linejoin:round;stroke-miterlimit:4;stroke-dasharray:none;stroke-opacity:1;visibility:visible" visibility="hidden"/><path d="m370.4 829.25-.468.19M375.263 832.267l-1.047.426s-1.568 4.389-3.888 5.325c-2.32.935-3.8-2.199-3.8-2.199l-2.124.871" style="fill:none;stroke:red;stroke-width:.999997;stroke-linecap:round;stroke-linejoin:round;stroke-miterlimit:4;stroke-dasharray:none;stroke-opacity:1;visibility:visible" visibility="hidden"/><path d="m369.951 832.894.069 1.841M367.28 833.185l.133 1.864" style="fill:none;stroke:red;stroke-width:.666665;stroke-linecap:round;stroke-linejoin:round;stroke-miterlimit:4;stroke-dasharray:none;stroke-opacity:1;visibility:visible" visibility="hidden"/><path d="M355.723 721.686a6.827 6.827 0 0 1-.537-1.528c-.384-1.694-.214-3.725.55-5.732 1.581-4.164 5.21-6.638 8.135-5.525M363.872 708.901c2.324.884 3.488 3.761 3.08 6.99M367.327 721.926c.95 1.895 1.041 3.118.053 5.722-1.57 4.129-5.258 6.552-8.24 5.417M359.14 733.065c-2.562-.973-3.67-4.473-2.948-7.915M362.071 719.069l5.084 2.899M366.868 716.178c.692.364 1.072 4.342.515 5.112M356.887 725.87c-.807-1.197-.963-2.83-.383-4.2M361.546 713.278l5.084 2.9" style="fill:none;stroke:red;stroke-width:.999997;stroke-linecap:round;stroke-linejoin:round;stroke-miterlimit:4;stroke-dasharray:none;stroke-opacity:1;visibility:visible" visibility="hidden"/><path d="M356.506 721.67c-.022-.08-.53-1.2-.55-1.28-.385-1.694-.27-3.726.492-5.733 1.583-4.165 5.24-6.639 8.167-5.524M359.882 733.294c-2.478-.941-3.615-3.997-3.04-7.418M363.588 828.203a6.796 6.796 0 0 1-.537-1.529c-.385-1.694-.213-3.724.55-5.732 1.581-4.164 5.21-6.639 8.136-5.524M371.74 815.418c2.322.883 3.486 3.76 3.077 6.99M375.192 827.007c.951 1.894 1.042 4.551.052 7.155-1.569 4.13-5.257 6.553-8.238 5.42M367.006 839.582c-2.563-.975-3.67-4.475-2.948-7.916" style="fill:none;stroke:red;stroke-width:.999997;stroke-linecap:round;stroke-linejoin:round;stroke-miterlimit:4;stroke-dasharray:none;stroke-opacity:1;visibility:visible" visibility="hidden"/><path d="M361.171 712.776c.156.364.429 1.528.527 1.932M361.698 714.708c.1.732.108 2.868.016 3.668M361.22 709.792a9.383 9.383 0 0 1 .034 2.698M361.63 719.014c.95 1.896 1.04 2.627.052 5.231-.922 2.424-2.574 4.259-4.383 5.132M356.612 726.282c-1.144-1.132-1.112-3.209-.592-5.028M369.938 824.678l5.084 2.9M374.734 822.694c.156.363.416 1.307.514 1.713M364.754 832.387c-.808-1.197-.964-2.832-.384-4.2M369.412 819.794l5.084 2.9M364.372 828.186c-.02-.08-.532-1.2-.549-1.281-.385-1.695-.272-3.726.492-5.73 1.583-4.167 5.24-6.641 8.167-5.527M367.748 839.813c-2.477-.943-3.614-3.999-3.04-7.42M375.25 824.407a9.259 9.259 0 0 1 .016 2.308" style="fill:none;stroke:red;stroke-width:.999997;stroke-linecap:round;stroke-linejoin:round;stroke-miterlimit:4;stroke-dasharray:none;stroke-opacity:1;visibility:visible" visibility="hidden"/><path d="M369.036 819.291c.156.364.43 1.529.527 1.934M369.563 821.225a9.183 9.183 0 0 1 .017 2.305M369.087 816.307a9.384 9.384 0 0 1 .033 2.7M369.495 823.606c.705 1.401.936 3.227.608 5.139M364.48 832.798c-1.146-1.132-1.114-3.21-.594-5.028" style="fill:none;stroke:red;stroke-width:.999997;stroke-linecap:round;stroke-linejoin:round;stroke-miterlimit:4;stroke-dasharray:none;stroke-opacity:1;visibility:visible" visibility="hidden"/><path d="m477.77 776.66 4.867-5.595M491.628 756.712l-8.661 13.196M481.18 763.42l-1.8 7.777M481.412 771.365l-2.235-7.201M479.38 771.197l1.8-7.777M479.177 764.164l2.235 7.201M478.051 770.046l5.601-7.362M491.628 756.712l3.633 7.398M489.585 767.37l2.14-1.918M493.758 765.624l-2.233-7.204M491.725 765.452l1.803-7.776M489.585 767.37l4.173-1.746" style="fill:none;stroke:red;stroke-width:.666665;stroke-linecap:round;stroke-linejoin:round;stroke-miterlimit:4;stroke-dasharray:none;stroke-opacity:1;visibility:visible" visibility="hidden"/><path d="m476.807 769.056 8.077-3.602M484.884 765.454l-8.077 3.602" style="fill:none;stroke:red;stroke-width:1.99999;stroke-linecap:round;stroke-linejoin:round;stroke-miterlimit:4;stroke-dasharray:none;stroke-opacity:1;visibility:visible" visibility="hidden"/><path d="m478.257 770.653-.487 6.007M484.884 765.454l17.706-.098" style="fill:none;stroke:red;stroke-width:.999997;stroke-linecap:round;stroke-linejoin:round;stroke-miterlimit:4;stroke-dasharray:none;stroke-opacity:1;visibility:visible" visibility="hidden"/><path d="m491.725 765.452-2.14 1.918M491.525 758.42l-1.94 8.95" style="fill:none;stroke:red;stroke-width:.666665;stroke-linecap:round;stroke-linejoin:round;stroke-miterlimit:4;stroke-dasharray:none;stroke-opacity:1;visibility:visible" visibility="hidden"/><path d="m408.159 866.806-.023-10.735M403.561 859.375l3.061 4.327M415.6 866.487l-3.737.218M438.923 880.263l3.365 4.475M451.11 887.462l-3.58.278" style="fill:none;stroke:red;stroke-width:.666665;stroke-linecap:round;stroke-linejoin:round;stroke-miterlimit:2;stroke-dasharray:none;stroke-opacity:1;visibility:visible" visibility="hidden"/><path d="m364.404 836.69-12.142 15.551" style="fill:none;stroke:red;stroke-width:1.99999;stroke-linecap:round;stroke-linejoin:round;stroke-miterlimit:4;stroke-dasharray:none;stroke-opacity:1;visibility:visible" visibility="hidden"/><path d="m665.546 843.534 16.951 2.289" style="fill:none;stroke:red;stroke-width:.999997;stroke-linecap:round;stroke-linejoin:round;stroke-miterlimit:4;stroke-dasharray:none;stroke-opacity:1;visibility:visible" visibility="hidden"/><path d="m413.607 851.675-10.504 3.12M403.103 854.795l10.504-3.12M446.57 841.883l-19.067 5.664M427.503 847.547l19.067-5.664" style="fill:none;stroke:red;stroke-width:1.99999;stroke-linecap:round;stroke-linejoin:round;stroke-miterlimit:4;stroke-dasharray:none;stroke-opacity:1;visibility:visible" visibility="hidden"/><path d="m627.122 831.785-13.985-.588M640.532 837.345l-14.206.18" style="fill:none;stroke:red;stroke-width:.999997;stroke-linecap:round;stroke-linejoin:round;stroke-miterlimit:4;stroke-dasharray:none;stroke-opacity:1;visibility:visible" visibility="hidden"/><path d="m521.745 888.538-3.327-5.024" style="fill:none;stroke:red;stroke-width:1.99999;stroke-linecap:round;stroke-linejoin:round;stroke-miterlimit:4;stroke-dasharray:none;stroke-opacity:1;visibility:visible" visibility="hidden"/><path d="m614.022 825.027-13.392-1.065M521.745 888.538l-16.864-9.631" style="fill:none;stroke:red;stroke-width:.999997;stroke-linecap:round;stroke-linejoin:round;stroke-miterlimit:4;stroke-dasharray:none;stroke-opacity:1;visibility:visible" visibility="hidden"/><path d="m375.676 851.505 7.4-4.899M356.85 695.34l-7.342 3.062M349.508 698.402l7.342-3.062" style="fill:none;stroke:red;stroke-width:1.99999;stroke-linecap:round;stroke-linejoin:round;stroke-miterlimit:4;stroke-dasharray:none;stroke-opacity:1;visibility:visible" visibility="hidden"/><path d="m356.85 695.34 15.208.738M360.096 858.752l-.596-1.282M351.326 701.918l-3.444 4.25" style="fill:none;stroke:red;stroke-width:.999997;stroke-linecap:round;stroke-linejoin:round;stroke-miterlimit:4;stroke-dasharray:none;stroke-opacity:1;visibility:visible" visibility="hidden"/><path d="m363.3 696.965-1.164 1.896M347.882 706.168l14.254-7.307M364.586 689.67l-.112 7.642M366.472 697.152l-3.713-6.442M364.474 697.312l.112-7.642M362.759 690.71l3.713 6.442M352.611 694.621l-.111 7.64M354.501 702.105l-3.714-6.445M352.5 702.261l.111-7.64M350.787 695.66l3.714 6.445M363.037 696.492l3.813-8.151M363.037 696.492l-8.123-3.078" style="fill:none;stroke:red;stroke-width:.666665;stroke-linecap:round;stroke-linejoin:round;stroke-miterlimit:4;stroke-dasharray:none;stroke-opacity:1;visibility:visible" visibility="hidden"/><path d="m366.527 835.821 5.204 17.888" style="fill:none;stroke:red;stroke-width:1.99999;stroke-linecap:round;stroke-linejoin:round;stroke-miterlimit:4;stroke-dasharray:none;stroke-opacity:1;visibility:visible" visibility="hidden"/><path d="m359.5 857.47.596 1.282" style="fill:none;stroke:red;stroke-width:.999997;stroke-linecap:round;stroke-linejoin:round;stroke-miterlimit:4;stroke-dasharray:none;stroke-opacity:1;visibility:visible" visibility="hidden"/><path d="m454.27 915-10.255 4.287M374.438 832.97l9.393 14.752M406.622 863.702l-3.061-4.327M411.863 866.705l3.737-.218M442.288 884.738l-3.365-4.475M447.53 887.74l3.58-.278M445.024 897.427l11.381-6.84" style="fill:none;stroke:red;stroke-width:1.99999;stroke-linecap:round;stroke-linejoin:round;stroke-miterlimit:4;stroke-dasharray:none;stroke-opacity:1;visibility:visible" visibility="hidden"/><path d="m445.024 897.427 10.468 1.462M360.096 858.752l15.788-2.612" style="fill:none;stroke:red;stroke-width:.999997;stroke-linecap:round;stroke-linejoin:round;stroke-miterlimit:4;stroke-dasharray:none;stroke-opacity:1;visibility:visible" visibility="hidden"/><path d="m454.27 915 .668-11.666" style="fill:none;stroke:red;stroke-width:1.99999;stroke-linecap:round;stroke-linejoin:round;stroke-miterlimit:4;stroke-dasharray:none;stroke-opacity:1;visibility:visible" visibility="hidden"/><path d="m408.136 856.071.023 10.735" style="fill:none;stroke:red;stroke-width:.666665;stroke-linecap:round;stroke-linejoin:round;stroke-miterlimit:2;stroke-dasharray:none;stroke-opacity:1;visibility:visible" visibility="hidden"/><path d="m370.05 830.127-3.363.42M374.438 832.97l-9.711 1.772M370.102 834.523l-3.575 1.298M370.102 834.523l4.336-1.553" style="fill:none;stroke:red;stroke-width:.666665;stroke-linecap:round;stroke-linejoin:round;stroke-miterlimit:4;stroke-dasharray:none;stroke-opacity:1;visibility:visible" visibility="hidden"/><path d="m370.4 829.25-5.996 7.44" style="fill:none;stroke:red;stroke-width:.999997;stroke-linecap:round;stroke-linejoin:round;stroke-miterlimit:4;stroke-dasharray:none;stroke-opacity:1;visibility:visible" visibility="hidden"/><path d="m370.05 830.127-.099 2.767M370.02 834.735l-2.74-1.55" style="fill:none;stroke:red;stroke-width:.666665;stroke-linecap:round;stroke-linejoin:round;stroke-miterlimit:4;stroke-dasharray:none;stroke-opacity:1;visibility:visible" visibility="hidden"/><path d="m361.698 714.708-.478-4.916M374.496 822.694l-4.558 1.984M369.563 821.225l-.476-4.918" style="fill:none;stroke:red;stroke-width:.999997;stroke-linecap:round;stroke-linejoin:round;stroke-miterlimit:4;stroke-dasharray:none;stroke-opacity:1;visibility:visible" visibility="hidden"/><path d="m346.882 644.867 108.152 55.975M491.361 685.481l-61.753-31.257M410.071 644.335l-38.47-19.472c.191-3.208-1.526-3.43-1.526-3.43l-7.845-3.866-174.03 68.311.942 15.532 9.29 5.372 151.117-60.114" style="fill:none;stroke:#00ff4a;stroke-width:1.99999;stroke-linecap:round;stroke-linejoin:round;stroke-miterlimit:4;stroke-dasharray:none;stroke-opacity:1;visibility:visible"/><path d="m346.722 634.987 118.986 61.267M188.488 686.244l8.565 5.008.996 14.916M370.882 622.668l-173.538 68.584M371.415 624.927l-24.865 9.909.333 10.03" style="fill:none;stroke:#00ff4a;stroke-width:.999997;stroke-linecap:round;stroke-linejoin:round;stroke-miterlimit:4;stroke-dasharray:none;stroke-opacity:1;visibility:visible"/><path d="m328.773 782.056-10.39-5.78-.666-16.274 176.811-75.709 10.23 5.167-.043 15.874-175.942 76.722" style="fill:none;stroke:#00ff4a;stroke-width:1.99999;stroke-linecap:round;stroke-linejoin:round;stroke-miterlimit:4;stroke-dasharray:none;stroke-opacity:1;visibility:visible"/><path d="m327.954 766.178 176.72-76.426M318.16 760.405l9.793 5.773.469 15.779" style="fill:none;stroke:#00ff4a;stroke-width:.999997;stroke-linecap:round;stroke-linejoin:round;stroke-miterlimit:4;stroke-dasharray:none;stroke-opacity:1;visibility:visible"/><path d="m478.257 770.653 16.726-5.333" style="fill:none;stroke:red;stroke-width:.666665;stroke-linecap:round;stroke-linejoin:round;stroke-miterlimit:4;stroke-dasharray:none;stroke-opacity:1;visibility:visible" visibility="hidden"/><path d="m489.585 767.37-.615-3.736" style="fill:none;stroke:red;stroke-width:1.99999;stroke-linecap:round;stroke-linejoin:round;stroke-miterlimit:4;stroke-dasharray:none;stroke-opacity:1;visibility:visible" visibility="hidden"/><path d="m415.6 866.487-8.988-15.873" style="fill:none;stroke:red;stroke-width:.999997;stroke-linecap:round;stroke-linejoin:round;stroke-miterlimit:2;stroke-dasharray:none;stroke-opacity:1;visibility:visible" visibility="hidden"/><path d="m447.53 887.74-3.727-10.633" style="fill:none;stroke:red;stroke-width:.666665;stroke-linecap:round;stroke-linejoin:round;stroke-miterlimit:2;stroke-dasharray:none;stroke-opacity:1;visibility:visible" visibility="hidden"/><path d="m413.607 851.675-15.021 4.462M374.438 832.97l8.277 6.585M328.422 781.957l18.13-5.393M349.508 698.402l11.884-4.962" style="fill:none;stroke:red;stroke-width:1.99999;stroke-linecap:round;stroke-linejoin:round;stroke-miterlimit:4;stroke-dasharray:none;stroke-opacity:1;visibility:visible" visibility="hidden"/><path d="m447.53 887.74-4.075.151" style="fill:none;stroke:red;stroke-width:.666665;stroke-linecap:round;stroke-linejoin:round;stroke-miterlimit:2;stroke-dasharray:none;stroke-opacity:1;visibility:visible" visibility="hidden"/></svg>