<svg xmlns="http://www.w3.org/2000/svg" baseProfile="full" height="1122.52" preserveAspectRatio="xMinYMin meet" style="width:602px;height:740px" width="793.701" xml:space="preserve"><path d="m463.827 144.538 1.35-10.968s.081-.238.375-.486c.297-.247.718-.642.718-.642s.326-.432 1.77-.362c1.445.068 1.844.598 1.844.598s.637.866.746.988c.106.124.21.268.17.64l-1.317 10.762" style="fill:none;stroke:red;stroke-width:.999997;stroke-linecap:round;stroke-linejoin:round;stroke-miterlimit:4;stroke-dasharray:none;stroke-opacity:1;visibility:visible" visibility="hidden"/><path d="M465.146 133.904s.757 1.136 2.86 1.208c2.288.084 2.791-.912 2.791-.912M467.599 135.15l.3 10.308M465.273 145.239l-.263-9.123M469.905 143.568c.167.188.258.392.252.604-.014.848-1.52 1.51-3.36 1.477-1.846-.029-3.327-.745-3.311-1.595a.724.724 0 0 1 .073-.306" style="fill:none;stroke:red;stroke-width:.666665;stroke-linecap:round;stroke-linejoin:round;stroke-miterlimit:4;stroke-dasharray:none;stroke-opacity:1;visibility:visible" visibility="hidden"/><path d="m479.705 138.002 1.35-10.968s.082-.238.374-.486c.295-.248.721-.642.721-.642s.322-.432 1.768-.362c1.446.068 1.845.598 1.845.598s.637.866.745.988c.107.123.208.268.17.64l-1.321 10.762" style="fill:none;stroke:red;stroke-width:.999997;stroke-linecap:round;stroke-linejoin:round;stroke-miterlimit:4;stroke-dasharray:none;stroke-opacity:1;visibility:visible" visibility="hidden"/><path d="M481.02 127.368s.76 1.136 2.861 1.208c2.29.084 2.792-.912 2.792-.912M483.477 128.614l.3 10.308M481.151 138.702l-.263-9.123M485.719 136.962c.208.206.32.434.317.674-.015.848-1.52 1.51-3.364 1.476-1.841-.03-3.322-.744-3.31-1.594.004-.212.101-.413.272-.593" style="fill:none;stroke:red;stroke-width:.666665;stroke-linecap:round;stroke-linejoin:round;stroke-miterlimit:4;stroke-dasharray:none;stroke-opacity:1;visibility:visible" visibility="hidden"/><path d="m477.435 136.537-5.472 2.263M461.268 143.224l-8.088 3.348-19.415 188.334 9.364 5.5 31.098-14.596 21.366-187.335-7.226-3.47" style="fill:none;stroke:red;stroke-width:1.99999;stroke-linecap:round;stroke-linejoin:round;stroke-miterlimit:4;stroke-dasharray:none;stroke-opacity:1;visibility:visible" visibility="hidden"/><path d="m453.302 147.017 9.959 4.833 32.208-13.292M463.26 151.85l-20.13 188.556" style="fill:none;stroke:red;stroke-width:.999997;stroke-linecap:round;stroke-linejoin:round;stroke-miterlimit:4;stroke-dasharray:none;stroke-opacity:1;visibility:visible" visibility="hidden"/><path d="M478.983 140.9c0 .89-1.667 1.613-3.723 1.613s-3.719-.723-3.719-1.613 1.662-1.614 3.719-1.614c2.056 0 3.723.724 3.723 1.614" style="fill:none;stroke:red;stroke-width:.666665;stroke-linecap:round;stroke-linejoin:round;stroke-miterlimit:4;stroke-dasharray:none;stroke-opacity:1;visibility:visible" visibility="hidden"/><path d="m452.319 336.187-1.255 6.71s-.09.228-.354.463a22.76 22.76 0 0 0-.656.607s-.308.411-1.538.31c-1.225-.098-1.528-.623-1.528-.623s-.484-.855-.565-.974c-.083-.122-.161-.265-.101-.625l.338-3.253" style="fill:none;stroke:red;stroke-width:.999997;stroke-linecap:round;stroke-linejoin:round;stroke-miterlimit:4;stroke-dasharray:none;stroke-opacity:1;visibility:visible" visibility="hidden"/><path d="m448.79 344.149-.044-6.31" style="fill:none;stroke:red;stroke-width:.666665;stroke-linecap:round;stroke-linejoin:round;stroke-miterlimit:4;stroke-dasharray:none;stroke-opacity:1;visibility:visible" visibility="hidden"/><path d="m468.759 328.52-.999 7.108s-.112.202-.356.465c-.396.426-.656.606-.656.606s-.32.516-1.533.311c-1.165-.2-1.532-.625-1.532-.625s-.424-.575-.564-.972c-.05-.14-.163-.266-.103-.626l.618-3.976" style="fill:none;stroke:red;stroke-width:.999997;stroke-linecap:round;stroke-linejoin:round;stroke-miterlimit:4;stroke-dasharray:none;stroke-opacity:1;visibility:visible" visibility="hidden"/><path d="m465.51 336.767.041-6.833" style="fill:none;stroke:red;stroke-width:.666665;stroke-linecap:round;stroke-linejoin:round;stroke-miterlimit:4;stroke-dasharray:none;stroke-opacity:1;visibility:visible" visibility="hidden"/><path d="m463.26 151.85 6.223-6.782" style="fill:none;stroke:red;stroke-width:.999997;stroke-linecap:round;stroke-linejoin:round;stroke-miterlimit:4;stroke-dasharray:none;stroke-opacity:1;visibility:visible" visibility="hidden"/><path d="m463.559 143.748 7.238-9.548M465.273 145.239l2.326-10.089M465.01 136.116l2.889 9.342M467.599 135.15l-2.326 10.089M467.899 145.458l-2.889-9.342M481.151 138.702l2.326-10.088M478.983 140.9l4.794-1.978M478.983 140.9l2.168-2.198M483.777 138.922l-2.889-9.343" style="fill:none;stroke:red;stroke-width:.666665;stroke-linecap:round;stroke-linejoin:round;stroke-miterlimit:4;stroke-dasharray:none;stroke-opacity:1;visibility:visible" visibility="hidden"/><path d="m461.268 143.224 10.695-4.424M471.963 138.8l-10.695 4.424" style="fill:none;stroke:red;stroke-width:1.99999;stroke-linecap:round;stroke-linejoin:round;stroke-miterlimit:4;stroke-dasharray:none;stroke-opacity:1;visibility:visible" visibility="hidden"/><path d="m463.827 144.538-.567 7.312M446.66 338.802l-3.53 1.604" style="fill:none;stroke:red;stroke-width:.999997;stroke-linecap:round;stroke-linejoin:round;stroke-miterlimit:4;stroke-dasharray:none;stroke-opacity:1;visibility:visible" visibility="hidden"/><path d="m481.151 138.702-2.168 2.198M480.888 129.58l-1.905 11.32" style="fill:none;stroke:red;stroke-width:.666665;stroke-linecap:round;stroke-linejoin:round;stroke-miterlimit:4;stroke-dasharray:none;stroke-opacity:1;visibility:visible" visibility="hidden"/><path d="m443.13 340.406 9.189-4.219M443.13 340.406l3.53-1.604" style="fill:none;stroke:red;stroke-width:.999997;stroke-linecap:round;stroke-linejoin:round;stroke-miterlimit:4;stroke-dasharray:none;stroke-opacity:1;visibility:visible" visibility="hidden"/><path d="m465.51 336.767-16.764 1.073M448.746 337.84l16.764-1.073" style="fill:none;stroke:red;stroke-width:.666665;stroke-linecap:round;stroke-linejoin:round;stroke-miterlimit:4;stroke-dasharray:none;stroke-opacity:1;visibility:visible" visibility="hidden"/><path d="m699.529 288.076 5.867-1.71" style="fill:none;stroke:#00ff4a;stroke-width:.999997;stroke-linecap:round;stroke-linejoin:round;stroke-miterlimit:4;stroke-dasharray:none;stroke-opacity:1;visibility:visible" visibility="hidden"/><path d="m529.268 337.715 170.26-49.639" style="fill:none;stroke:#00ff4a;stroke-width:1.99999;stroke-linecap:round;stroke-linejoin:round;stroke-miterlimit:4;stroke-dasharray:none;stroke-opacity:1;visibility:visible" visibility="hidden"/><path d="m521.292 340.04 7.976-2.325" style="fill:none;stroke:#00ff4a;stroke-width:.999997;stroke-linecap:round;stroke-linejoin:round;stroke-miterlimit:4;stroke-dasharray:none;stroke-opacity:1;visibility:visible" visibility="hidden"/><path d="m464.206 357.269 3.221-1.524 53.864-15.704" style="fill:none;stroke:#00ff4a;stroke-width:1.99999;stroke-linecap:round;stroke-linejoin:round;stroke-miterlimit:4;stroke-dasharray:none;stroke-opacity:1;visibility:visible" visibility="hidden"/><path d="m433.773 371.675 22.456-10.63" style="fill:none;stroke:#00ff4a;stroke-width:.999997;stroke-linecap:round;stroke-linejoin:round;stroke-miterlimit:4;stroke-dasharray:none;stroke-opacity:1;visibility:visible" visibility="hidden"/><path d="m705.396 286.365 3.479-1.16 12.321 6.241-2.543 14.915-232.666 71.701-36.9 17.453-180.19 110.039-12.484-7.955-.993-18.561 174.665-105.616 3.689-1.748" style="fill:none;stroke:#00ff4a;stroke-width:1.99999;stroke-linecap:round;stroke-linejoin:round;stroke-miterlimit:4;stroke-dasharray:none;stroke-opacity:1;visibility:visible" visibility="hidden"/><path d="m719.98 291.005-241.726 71.368-37.12 17.677-173.893 105.948M256.191 479.04l10.495 6.962s.995 1.324 1.327 2.54c.146.538.773 16.352.773 16.352" style="fill:none;stroke:#00ff4a;stroke-width:.999997;stroke-linecap:round;stroke-linejoin:round;stroke-miterlimit:4;stroke-dasharray:none;stroke-opacity:1;visibility:visible" visibility="hidden"/><path d="m462.414 355.679 2.028 1.172M350.081 290.83l106.87 61.693" style="fill:none;stroke:#00ff4a;stroke-width:1.99999;stroke-linecap:round;stroke-linejoin:round;stroke-miterlimit:4;stroke-dasharray:none;stroke-opacity:1;visibility:visible" visibility="hidden"/><path d="m339.426 295.164.135 5.645" style="fill:none;stroke:#00ff4a;stroke-width:.999997;stroke-linecap:round;stroke-linejoin:round;stroke-miterlimit:4;stroke-dasharray:none;stroke-opacity:1;visibility:visible" visibility="hidden"/><path d="M422.352 377.619 320.766 316.8" style="fill:none;stroke:#00ff4a;stroke-width:1.99999;stroke-linecap:round;stroke-linejoin:round;stroke-miterlimit:4;stroke-dasharray:none;stroke-opacity:1;visibility:visible" visibility="hidden"/><path d="m433.177 371.213-113.468-67.71" style="fill:none;stroke:#00ff4a;stroke-width:.999997;stroke-linecap:round;stroke-linejoin:round;stroke-miterlimit:4;stroke-dasharray:none;stroke-opacity:1;visibility:visible" visibility="hidden"/><path d="M416.538 274.413c2.028 2.147 9.182 9.48 20.516 18.527M476.559 318.723c15.35 7.971 33.121 14.948 52.734 18.794" style="fill:none;stroke:#00ff4a;stroke-width:1.99999;stroke-linecap:round;stroke-linejoin:round;stroke-miterlimit:4;stroke-dasharray:none;stroke-opacity:1;visibility:visible" visibility="hidden"/><path d="m406.055 289.79 1.953-14.648" style="fill:none;stroke:#00ff4a;stroke-width:.999997;stroke-linecap:round;stroke-linejoin:round;stroke-miterlimit:4;stroke-dasharray:none;stroke-opacity:1;visibility:visible" visibility="hidden"/><path d="M496.259 347.129c-9.24-2.963-18.18-6.842-26.607-11.19M434.13 313.405c-17.148-12.89-27.91-23.945-27.91-23.945" style="fill:none;stroke:#00ff4a;stroke-width:1.99999;stroke-linecap:round;stroke-linejoin:round;stroke-miterlimit:4;stroke-dasharray:none;stroke-opacity:1;visibility:visible" visibility="hidden"/><path d="M586.356 231.077c5.193 4.945 50.638 46.752 113.182 56.726M408.007 275.143c2.419 2.482 12.921 13.603 28.112 24.902M475.79 324.289c13.696 6.621 28.939 12.211 45.218 15.329" style="fill:none;stroke:#00ff4a;stroke-width:.999997;stroke-linecap:round;stroke-linejoin:round;stroke-miterlimit:4;stroke-dasharray:none;stroke-opacity:1;visibility:visible" visibility="hidden"/><path d="m485.02 246.714 97.003-24.388 10.237 4.97s.836.349.59 1.627c0-.001 49.023 47.5 113.54 56.779M333.96 285.977l7.13-3.076 98.708-24.819M324.169 318.943l-8.981 4.652-168.924 95.76-10.953-7.107-1.915-17.803 171.458-95.91 22.822-9.845" style="fill:none;stroke:#00ff4a;stroke-width:1.99999;stroke-linecap:round;stroke-linejoin:round;stroke-miterlimit:4;stroke-dasharray:none;stroke-opacity:1;visibility:visible" visibility="hidden"/><path d="m439.648 266.525-88.262 22.472L315.16 304.7l-170.622 96.346M591.182 227.994l-107.508 27.37M134.444 394.194l9.466 6.652s.86.594.951 1.99c.09 1.397 1.403 16.519 1.403 16.519M304.903 298.676l9.855 5.821M430.146 374.16l9.855 5.821M468.943 356.026l9.855 5.821M341.09 282.901l10.11 5.792M635.98 266.755l-1.11 7.716M635.98 266.755l-158.197 43.52" style="fill:none;stroke:#00ff4a;stroke-width:.999997;stroke-linecap:round;stroke-linejoin:round;stroke-miterlimit:4;stroke-dasharray:none;stroke-opacity:1;visibility:visible" visibility="hidden"/><path d="m478.555 305.013 150.748-41.197" style="fill:none;stroke:#00ff4a;stroke-width:1.99999;stroke-linecap:round;stroke-linejoin:round;stroke-miterlimit:4;stroke-dasharray:none;stroke-opacity:1;visibility:visible" visibility="hidden"/><path d="m652.346 274.735-.995 7.181" style="fill:none;stroke:#00ff4a;stroke-width:.999997;stroke-linecap:round;stroke-linejoin:round;stroke-miterlimit:4;stroke-dasharray:none;stroke-opacity:1;visibility:visible" visibility="hidden"/><path d="m478.474 318.624 167.153-46.625" style="fill:none;stroke:#00ff4a;stroke-width:1.99999;stroke-linecap:round;stroke-linejoin:round;stroke-miterlimit:4;stroke-dasharray:none;stroke-opacity:1;visibility:visible" visibility="hidden"/><path d="m652.151 274.767-166.385 46.73" style="fill:none;stroke:#00ff4a;stroke-width:.999997;stroke-linecap:round;stroke-linejoin:round;stroke-miterlimit:4;stroke-dasharray:none;stroke-opacity:1;visibility:visible" visibility="hidden"/><path d="m668.385 291.47-147.489 42.843" style="fill:none;stroke:#00ff4a;stroke-width:1.99999;stroke-linecap:round;stroke-linejoin:round;stroke-miterlimit:4;stroke-dasharray:none;stroke-opacity:1;visibility:visible" visibility="hidden"/><path d="m669.38 280.975-.995 10.495" style="fill:none;stroke:#00ff4a;stroke-width:.999997;stroke-linecap:round;stroke-linejoin:round;stroke-miterlimit:4;stroke-dasharray:none;stroke-opacity:1;visibility:visible" visibility="hidden"/><path d="m495.266 326.357 166.918-47.56" style="fill:none;stroke:#00ff4a;stroke-width:1.99999;stroke-linecap:round;stroke-linejoin:round;stroke-miterlimit:4;stroke-dasharray:none;stroke-opacity:1;visibility:visible" visibility="hidden"/><path d="m501.896 328.568 166.932-47.592M620.583 257.649l-.896 8.605M620.583 257.649l-140.958 38.277" style="fill:none;stroke:#00ff4a;stroke-width:.999997;stroke-linecap:round;stroke-linejoin:round;stroke-miterlimit:4;stroke-dasharray:none;stroke-opacity:1;visibility:visible" visibility="hidden"/><path d="m480.484 289.956 133.877-35.63M583.843 243.396s5.934 5.789 16.453 13.744M666.422 292.914a194.86 194.86 0 0 0 7.154 2.292" style="fill:none;stroke:#00ff4a;stroke-width:1.99999;stroke-linecap:round;stroke-linejoin:round;stroke-miterlimit:4;stroke-dasharray:none;stroke-opacity:1;visibility:visible" visibility="hidden"/><path d="m592.508 229.007-6.844 1.723-1.82 12.664" style="fill:none;stroke:#00ff4a;stroke-width:.999997;stroke-linecap:round;stroke-linejoin:round;stroke-miterlimit:4;stroke-dasharray:none;stroke-opacity:1;visibility:visible" visibility="hidden"/><path d="m482.68 271.63 101.606-27.647M430.794 285.748l6.497-1.767M370.868 302.053l36.627-9.965" style="fill:none;stroke:#00ff4a;stroke-width:1.99999;stroke-linecap:round;stroke-linejoin:round;stroke-miterlimit:4;stroke-dasharray:none;stroke-opacity:1;visibility:visible" visibility="hidden"/><path d="m319.709 303.502.744 13.553.275.164" style="fill:none;stroke:#00ff4a;stroke-width:.999997;stroke-linecap:round;stroke-linejoin:round;stroke-miterlimit:4;stroke-dasharray:none;stroke-opacity:1;visibility:visible" visibility="hidden"/><path d="m362.554 308.667-5.335 2.357-22.258-13.037" style="fill:none;stroke:#00ff4a;stroke-width:1.99999;stroke-linecap:round;stroke-linejoin:round;stroke-miterlimit:4;stroke-dasharray:none;stroke-opacity:1;visibility:visible" visibility="hidden"/><path d="m339.823 295.054 23.068 13.463" style="fill:none;stroke:#00ff4a;stroke-width:.999997;stroke-linecap:round;stroke-linejoin:round;stroke-miterlimit:4;stroke-dasharray:none;stroke-opacity:1;visibility:visible" visibility="hidden"/><path d="m424.346 350.41 23.547 13.736" style="fill:none;stroke:#00ff4a;stroke-width:1.99999;stroke-linecap:round;stroke-linejoin:round;stroke-miterlimit:4;stroke-dasharray:none;stroke-opacity:1;visibility:visible" visibility="hidden"/><path d="m454.128 361.739-24.41-14.128-5.726 2.592" style="fill:none;stroke:#00ff4a;stroke-width:.999997;stroke-linecap:round;stroke-linejoin:round;stroke-miterlimit:4;stroke-dasharray:none;stroke-opacity:1;visibility:visible" visibility="hidden"/><path d="M429.799 347.85s3.371 6.356 5.336 8.71" style="fill:none;stroke:#00ff4a;stroke-width:.999997;stroke-linecap:round;stroke-linejoin:round;stroke-miterlimit:4;stroke-dasharray:none;stroke-opacity:1;visibility:visible" visibility="hidden"/><path d="M333.106 291.38c.21.166.333.365.34.582.022.665-1.059 1.239-2.41 1.281-1.351.047-2.464-.456-2.486-1.118-.01-.246.132-.478.38-.675M326.103 295.187c0 .835-1.336 1.513-2.982 1.513-1.647 0-2.984-.678-2.984-1.513 0-.836 1.337-1.512 2.983-1.512 1.647 0 2.983.676 2.983 1.512M341.44 288.831c0 .835-1.338 1.512-2.985 1.512-1.645 0-2.982-.677-2.982-1.512 0-.836 1.337-1.511 2.983-1.511 1.647 0 2.984.675 2.984 1.511M378.354 313.669c0 .31-.446.561-.996.561-.548.001-.994-.25-.994-.56 0-.312.446-.565.994-.565.55 0 .996.253.996.564M422.122 339.245c0 .31-.446.562-.998.562-.546 0-.994-.252-.994-.562 0-.31.448-.565.994-.565.552 0 .998.255.998.565M460.63 365.902c.254.215.406.47.406.744 0 .759-1.144 1.373-2.552 1.373-1.41.001-2.55-.614-2.55-1.373.001-.324.206-.62.554-.856M453.802 370.082c0 .932-1.44 1.688-3.216 1.688-1.78 0-3.22-.756-3.22-1.688.001-.933 1.441-1.688 3.221-1.688 1.775 0 3.215.755 3.215 1.688M469.275 363.037c0 .932-1.44 1.688-3.216 1.688-1.779 0-3.219-.756-3.219-1.688 0-.934 1.44-1.688 3.22-1.688 1.775 0 3.215.754 3.215 1.688" style="fill:none;stroke:#00ff4a;stroke-width:.666665;stroke-linecap:round;stroke-linejoin:round;stroke-miterlimit:4;stroke-dasharray:none;stroke-opacity:1;visibility:visible" visibility="hidden"/><path d="M332.31 291.618a.213.213 0 0 1 .07.113c.08.294-.448.692-1.175.887-.729.2-1.382.122-1.459-.172-.03-.106.021-.225.13-.344M332.212 290.242a.245.245 0 0 1 .07.112c.078.296-.447.692-1.175.89-.727.193-1.381.119-1.46-.179-.03-.1.023-.223.133-.338M332.114 288.867a.219.219 0 0 1 .07.115c.076.29-.448.688-1.176.888-.728.195-1.382.116-1.459-.18-.03-.104.02-.225.13-.344M332.011 287.238a.256.256 0 0 1 .101.139c.08.297-.453.693-1.189.893-.74.201-1.403.124-1.481-.168-.023-.08.004-.17.067-.261" style="fill:none;stroke:#00ff4a;stroke-width:.666665;stroke-linecap:round;stroke-linejoin:round;stroke-miterlimit:4;stroke-dasharray:none;stroke-opacity:1;visibility:visible" visibility="hidden"/><path d="m464.206 357.269-7.977 3.775M705.396 286.365l14.584 4.64" style="fill:none;stroke:#00ff4a;stroke-width:.999997;stroke-linecap:round;stroke-linejoin:round;stroke-miterlimit:4;stroke-dasharray:none;stroke-opacity:1;visibility:visible" visibility="hidden"/><path d="m456.95 352.523 5.464 3.156M351.2 288.693l-1.119 2.137M462.414 355.679l-5.464-3.156" style="fill:none;stroke:#00ff4a;stroke-width:1.99999;stroke-linecap:round;stroke-linejoin:round;stroke-miterlimit:4;stroke-dasharray:none;stroke-opacity:1;visibility:visible" visibility="hidden"/><path d="m341.44 288.831-1.88 11.978" style="fill:none;stroke:#00ff4a;stroke-width:.999997;stroke-linecap:round;stroke-linejoin:round;stroke-miterlimit:4;stroke-dasharray:none;stroke-opacity:1;visibility:visible" visibility="hidden"/><path d="m430.146 374.16-7.794 3.459M327.676 288.69l6.284-2.713M333.96 285.977l-6.284 2.713" style="fill:none;stroke:#00ff4a;stroke-width:1.99999;stroke-linecap:round;stroke-linejoin:round;stroke-miterlimit:4;stroke-dasharray:none;stroke-opacity:1;visibility:visible" visibility="hidden"/><path d="m319.71 303.502-4.952.995M433.177 371.213l-3.031 2.947M464.442 356.851l4.501-.825M462.414 355.679l16.384 6.168M350.081 290.83l1.12-2.137M652.346 274.735l-17.475-.264M669.38 280.975l-18.029.941" style="fill:none;stroke:#00ff4a;stroke-width:.999997;stroke-linecap:round;stroke-linejoin:round;stroke-miterlimit:4;stroke-dasharray:none;stroke-opacity:1;visibility:visible" visibility="hidden"/><path d="m521.291 340.041-.395-5.728" style="fill:none;stroke:#00ff4a;stroke-width:1.99999;stroke-linecap:round;stroke-linejoin:round;stroke-miterlimit:4;stroke-dasharray:none;stroke-opacity:1;visibility:visible" visibility="hidden"/><path d="m635.98 266.755-16.293-.5" style="fill:none;stroke:#00ff4a;stroke-width:.999997;stroke-linecap:round;stroke-linejoin:round;stroke-miterlimit:4;stroke-dasharray:none;stroke-opacity:1;visibility:visible" visibility="hidden"/><path d="m351.2 288.693-16.24 9.294M462.414 355.679l-14.521 8.467" style="fill:none;stroke:#00ff4a;stroke-width:1.99999;stroke-linecap:round;stroke-linejoin:round;stroke-miterlimit:4;stroke-dasharray:none;stroke-opacity:1;visibility:visible" visibility="hidden"/><path d="m462.414 355.679-8.286 6.06" style="fill:none;stroke:#00ff4a;stroke-width:.999997;stroke-linecap:round;stroke-linejoin:round;stroke-miterlimit:4;stroke-dasharray:none;stroke-opacity:1;visibility:visible" visibility="hidden"/><path d="m339.56 300.81-13.457-5.623M319.709 303.502l6.394-8.315M339.56 300.81l1.88-11.979M339.426 295.164l2.014-6.333M429.799 347.85l-7.677-8.605M469.275 363.037l-15.473 7.045M469.275 363.037l-15.473 7.045M453.802 370.082l15.473-7.045M453.802 370.082l15.473-7.045M351.2 288.693l-19.189-1.455" style="fill:none;stroke:#00ff4a;stroke-width:.666665;stroke-linecap:round;stroke-linejoin:round;stroke-miterlimit:4;stroke-dasharray:none;stroke-opacity:1;visibility:visible" visibility="hidden"/><path d="m326.146 57.697 4.801 2.375 15.45 195.026-30.487 12.826-8.365-4.46L290.55 67.04l10.594-3.838M310.762 59.718l5.688-2.06" style="fill:none;stroke:#9500ff;stroke-width:1.99999;stroke-linecap:round;stroke-linejoin:round;stroke-miterlimit:4;stroke-dasharray:none;stroke-opacity:1;visibility:visible"/><path d="M315.91 266.996 299.354 72.3M290.55 67.04l8.757 4.803 31.102-11.56" style="fill:none;stroke:#9500ff;stroke-width:.999997;stroke-linecap:round;stroke-linejoin:round;stroke-miterlimit:4;stroke-dasharray:none;stroke-opacity:1;visibility:visible"/><path d="m303.626 66.98-.959-10.833s.043-.251.293-.542c.25-.292.603-.75.603-.75s.25-.479 1.688-.646c1.439-.166 1.916.292 1.916.292s.77.75.896.854c.127.104.25.229.27.604l.961 10.625" style="fill:none;stroke:#9500ff;stroke-width:.999997;stroke-linecap:round;stroke-linejoin:round;stroke-miterlimit:4;stroke-dasharray:none;stroke-opacity:1;visibility:visible"/><path d="M302.689 56.48s.934.997 3.02.73c2.273-.294 2.606-1.356 2.606-1.356M305.314 57.31l2.479 9.917M305.169 67.435l-2.25-8.75" style="fill:none;stroke:#9500ff;stroke-width:.666665;stroke-linecap:round;stroke-linejoin:round;stroke-miterlimit:4;stroke-dasharray:none;stroke-opacity:1;visibility:visible"/><path d="m321.694 266.555.452 5.666s-.027.244-.227.536a29.257 29.257 0 0 0-.482.753s-.194.475-1.407.685c-1.212.215-1.637-.22-1.637-.22s-.684-.704-.794-.797c-.109-.098-.221-.216-.254-.581l-.322-3.994" style="fill:none;stroke:#9500ff;stroke-width:.999997;stroke-linecap:round;stroke-linejoin:round;stroke-miterlimit:4;stroke-dasharray:none;stroke-opacity:1;visibility:visible"/><path d="m320.26 274.004-1.763-6.768" style="fill:none;stroke:#9500ff;stroke-width:.666665;stroke-linecap:round;stroke-linejoin:round;stroke-miterlimit:4;stroke-dasharray:none;stroke-opacity:1;visibility:visible"/><path d="m338.472 259.111.452 5.666s-.026.243-.226.536a29.257 29.257 0 0 0-.483.753s-.193.475-1.407.685c-1.212.214-1.637-.22-1.637-.22s-.684-.704-.793-.797c-.11-.099-.221-.216-.255-.581l-.321-3.994" style="fill:none;stroke:#9500ff;stroke-width:.999997;stroke-linecap:round;stroke-linejoin:round;stroke-miterlimit:4;stroke-dasharray:none;stroke-opacity:1;visibility:visible"/><path d="m337.038 266.56-1.763-6.768" style="fill:none;stroke:#9500ff;stroke-width:.666665;stroke-linecap:round;stroke-linejoin:round;stroke-miterlimit:4;stroke-dasharray:none;stroke-opacity:1;visibility:visible"/><path d="m319.106 61.23-.959-10.835s.043-.249.293-.54c.25-.292.603-.751.603-.751s.25-.479 1.688-.645c1.439-.167 1.916.291 1.916.291s.77.75.896.854c.127.104.25.23.27.604l.961 10.625" style="fill:none;stroke:#9500ff;stroke-width:.999997;stroke-linecap:round;stroke-linejoin:round;stroke-miterlimit:4;stroke-dasharray:none;stroke-opacity:1;visibility:visible"/><path d="M318.167 50.73s.935.996 3.023.728c2.269-.291 2.603-1.354 2.603-1.354M320.794 51.56l2.479 9.917M320.648 61.685l-2.25-8.75M309.389 66.044a.593.593 0 0 1 .113.319c.028.713-1.38 1.349-3.144 1.42-1.768.07-3.22-.451-3.248-1.166a.559.559 0 0 1 .055-.262M317.655 63.444c.03.784-1.495 1.481-3.41 1.559-1.916.077-3.495-.498-3.526-1.283-.032-.784 1.496-1.481 3.411-1.559 1.916-.077 3.496.499 3.526 1.283h-.001M324.923 60.073c.17.148.268.315.275.495.028.713-1.399 1.35-3.188 1.421-1.787.072-3.26-.448-3.289-1.164a.552.552 0 0 1 .041-.225" style="fill:none;stroke:#9500ff;stroke-width:.666665;stroke-linecap:round;stroke-linejoin:round;stroke-miterlimit:4;stroke-dasharray:none;stroke-opacity:1;visibility:visible"/><path d="M325.243 246.849c-3.346-1.272-4.793-5.844-3.85-10.336M320.78 231.988a8.813 8.813 0 0 1-.703-1.998c-.502-2.212-.278-4.865.718-7.485 2.068-5.44 6.807-8.672 10.628-7.216M331.423 215.289c3.035 1.153 4.557 4.911 4.023 9.13" style="fill:none;stroke:#9500ff;stroke-width:.999997;stroke-linecap:round;stroke-linejoin:round;stroke-miterlimit:4;stroke-dasharray:none;stroke-opacity:1;visibility:visible"/><path d="M335.935 231.257c1.241 2.472 1.36 5.115.068 8.516-2.05 5.392-6.868 8.559-10.761 7.076M321.802 231.965c-.028-.103-.695-1.568-.717-1.673-.503-2.212-.355-4.866.64-7.486 2.07-5.44 6.847-8.672 10.668-7.216" style="fill:none;stroke:#9500ff;stroke-width:.999997;stroke-linecap:round;stroke-linejoin:round;stroke-miterlimit:4;stroke-dasharray:none;stroke-opacity:1;visibility:visible"/><path d="M326.213 247.152c-3.238-1.232-4.723-5.223-3.973-9.692M329.073 228.042l6.64 3.788M335.336 224.792c.204.473.371.978.5 1.508M335.835 226.3c.079.33.141.67.19 1.017M336.024 227.316c.132.956.067 2.197-.053 3.242M322.302 237.454c-1.056-1.564-1.257-3.697-.5-5.488M328.386 221.006l6.64 3.787" style="fill:none;stroke:#9500ff;stroke-width:.999997;stroke-linecap:round;stroke-linejoin:round;stroke-miterlimit:4;stroke-dasharray:none;stroke-opacity:1;visibility:visible"/><path d="M323.193 241.757s2.987-1.437 4.96-.763c1.67.57 1.287 1.716 1.287 1.716s-1.383 2.528-5.39.43M314.68 113.556c-3.348-1.272-4.796-5.844-3.852-10.336M327.895 220.349c.205.473.56 1.993.688 2.524M328.583 222.873c.132.956.255 3.367.137 4.413M327.96 216.45c.18 1.1.2 2.294.042 3.526" style="fill:none;stroke:#9500ff;stroke-width:.999997;stroke-linecap:round;stroke-linejoin:round;stroke-miterlimit:4;stroke-dasharray:none;stroke-opacity:1;visibility:visible"/><path d="M328.494 227.682c1.241 2.472 1.36 4.248.068 7.648-1.204 3.164-3.362 5.563-5.724 6.704M321.943 237.989c-1.493-1.476-1.453-4.192-.773-6.565M310.217 98.695a8.813 8.813 0 0 1-.702-1.998c-.502-2.212-.278-4.865.718-7.485 2.067-5.44 6.806-8.672 10.627-7.216M320.862 81.995c3.035 1.153 4.556 4.912 4.023 9.129M325.373 97.7c1.24 2.472 1.36 5.379.067 8.78-2.05 5.392-6.867 8.559-10.761 7.077M318.397 94.485l6.64 3.787M324.774 91.499c.204.473.37.978.499 1.509M325.273 93.008c.077.33.14.668.189 1.015M325.462 94.023a12.107 12.107 0 0 1 .023 3.016M311.74 104.161c-1.058-1.565-1.259-3.697-.5-5.488M317.823 87.713l6.64 3.787" style="fill:none;stroke:#9500ff;stroke-width:.999997;stroke-linecap:round;stroke-linejoin:round;stroke-miterlimit:4;stroke-dasharray:none;stroke-opacity:1;visibility:visible"/><path d="M311.24 98.672c-.03-.103-.696-1.568-.719-1.673-.502-2.212-.354-4.866.642-7.486 2.068-5.44 6.847-8.672 10.667-7.216M315.649 113.859c-3.239-1.231-4.723-5.223-3.972-9.692" style="fill:none;stroke:#9500ff;stroke-width:.999997;stroke-linecap:round;stroke-linejoin:round;stroke-miterlimit:4;stroke-dasharray:none;stroke-opacity:1;visibility:visible"/><path d="M317.333 87.056c.204.473.56 1.993.687 2.524M318.02 89.58c.134.956-.121 2.803-.241 3.847M317.398 83.156c.181 1.1.2 2.293.044 3.524M317.933 94.05c1.24 2.47 1.36 4.584.067 7.985-1.203 3.165-3.361 5.565-5.723 6.705M311.38 104.696c-1.493-1.476-1.452-4.192-.772-6.566" style="fill:none;stroke:#9500ff;stroke-width:.999997;stroke-linecap:round;stroke-linejoin:round;stroke-miterlimit:4;stroke-dasharray:none;stroke-opacity:1;visibility:visible"/><path d="m310.762 59.718-9.617 3.484M308.315 55.854l2.447 3.864" style="fill:none;stroke:#9500ff;stroke-width:1.99999;stroke-linecap:round;stroke-linejoin:round;stroke-miterlimit:4;stroke-dasharray:none;stroke-opacity:1;visibility:visible"/><path d="m317.023 268.603-1.113-1.607M303.626 66.98l-4.272 5.32M310.762 59.718l19.647.565" style="fill:none;stroke:#9500ff;stroke-width:.999997;stroke-linecap:round;stroke-linejoin:round;stroke-miterlimit:4;stroke-dasharray:none;stroke-opacity:1;visibility:visible"/><path d="m318.762 60.6-10.447-4.746M305.169 67.435l.145-10.125M302.918 58.684l4.875 8.543M305.314 57.31l-.145 10.125M307.793 67.227l-4.875-8.543" style="fill:none;stroke:#9500ff;stroke-width:.666665;stroke-linecap:round;stroke-linejoin:round;stroke-miterlimit:4;stroke-dasharray:none;stroke-opacity:1;visibility:visible"/><path d="m315.91 266.996 5.784-.441M315.91 266.996l1.113 1.607" style="fill:none;stroke:#9500ff;stroke-width:.999997;stroke-linecap:round;stroke-linejoin:round;stroke-miterlimit:4;stroke-dasharray:none;stroke-opacity:1;visibility:visible"/><path d="m337.038 266.56-18.54.676" style="fill:none;stroke:#9500ff;stroke-width:.666665;stroke-linecap:round;stroke-linejoin:round;stroke-miterlimit:4;stroke-dasharray:none;stroke-opacity:1;visibility:visible"/><path d="m315.91 266.996 17.892-5.837" style="fill:none;stroke:#9500ff;stroke-width:.999997;stroke-linecap:round;stroke-linejoin:round;stroke-miterlimit:4;stroke-dasharray:none;stroke-opacity:1;visibility:visible"/><path d="m318.497 267.236 18.541-.676M318.762 60.6l5.031-10.496M320.648 61.685l.146-10.125M318.397 52.934l4.876 8.543M320.794 51.56l-.146 10.125M323.273 61.477l-4.876-8.543M319.106 61.23l-1.451 2.214" style="fill:none;stroke:#9500ff;stroke-width:.666665;stroke-linecap:round;stroke-linejoin:round;stroke-miterlimit:4;stroke-dasharray:none;stroke-opacity:1;visibility:visible"/><path d="m328.002 219.976-6.609 16.537M331.423 215.289l.97.301M325.242 246.849l.971.303M335.713 231.83l-11.663 11.31M317.442 86.68l-6.614 16.54M328.583 222.873l-.623-6.423M320.862 81.995l.968.302M314.679 113.557l.97.302M318.02 89.58l-.622-6.424" style="fill:none;stroke:#9500ff;stroke-width:.999997;stroke-linecap:round;stroke-linejoin:round;stroke-miterlimit:4;stroke-dasharray:none;stroke-opacity:1;visibility:visible"/><path d="m480.888 129.58-1.183 8.422M480.888 129.58l4.469 8.952" style="fill:none;stroke:red;stroke-width:.999997;stroke-linecap:round;stroke-linejoin:round;stroke-miterlimit:4;stroke-dasharray:none;stroke-opacity:1;visibility:visible" visibility="hidden"/><path d="m478.983 140.9.651-3.975" style="fill:none;stroke:red;stroke-width:.666665;stroke-linecap:round;stroke-linejoin:round;stroke-miterlimit:4;stroke-dasharray:none;stroke-opacity:1;visibility:visible" visibility="hidden"/><path d="m478.983 140.9-1.548-4.363" style="fill:none;stroke:red;stroke-width:1.99999;stroke-linecap:round;stroke-linejoin:round;stroke-miterlimit:4;stroke-dasharray:none;stroke-opacity:1;visibility:visible" visibility="hidden"/><path d="m478.983 140.9 16.486-2.342" style="fill:none;stroke:red;stroke-width:.999997;stroke-linecap:round;stroke-linejoin:round;stroke-miterlimit:4;stroke-dasharray:none;stroke-opacity:1;visibility:visible" visibility="hidden"/><path d="m454.128 361.739 2.36 4.051M319.709 303.502l10.167-11.4M319.709 303.502l9.8-15.661" style="fill:none;stroke:#00ff4a;stroke-width:.666665;stroke-linecap:round;stroke-linejoin:round;stroke-miterlimit:4;stroke-dasharray:none;stroke-opacity:1;visibility:visible" visibility="hidden"/><path d="m318.762 60.6 7.384-2.903M301.145 63.202l15.305-5.544" style="fill:none;stroke:#9500ff;stroke-width:1.99999;stroke-linecap:round;stroke-linejoin:round;stroke-miterlimit:4;stroke-dasharray:none;stroke-opacity:1;visibility:visible"/></svg>