<svg xmlns="http://www.w3.org/2000/svg" baseProfile="full" height="793.701" preserveAspectRatio="xMinYMin meet" style="width:912px;height:1303px" width="559.371" xml:space="preserve"><path d="m269.97 234.086 48.597-6.352M244.867 243.596c-.16-1.023.063-2.099.944-3.148 3.489-4.159 17.762-5.368 17.762-5.368l1.636-.24" style="fill:none;stroke:red;stroke-width:1.99999;stroke-linecap:round;stroke-linejoin:round;stroke-miterlimit:4;stroke-dasharray:none;stroke-opacity:1;visibility:visible"/><path d="m419.862 283.989-93.623 11.036s-10.429 1.545-17.522.161c-9.043-1.765-14.643-6.642-14.643-6.642l-45.234-38.958s-3.494-2.946-3.973-5.99" style="fill:none;stroke:red;stroke-width:.999997;stroke-linecap:round;stroke-linejoin:round;stroke-miterlimit:4;stroke-dasharray:none;stroke-opacity:1;visibility:visible"/><path d="m415.012 280.097 4.851 3.89-.321 19.546-93.302 11.321s-10.4 1.439-17.523.167c-9.907-1.771-17.251-8.265-17.251-8.265l-42.624-39.342s-4.867-4.097-4.548-8.114l.537-16.48M347.35 225.795l2.18 1.75" style="fill:none;stroke:red;stroke-width:1.99999;stroke-linecap:round;stroke-linejoin:round;stroke-miterlimit:4;stroke-dasharray:none;stroke-opacity:1;visibility:visible"/><path d="M252.515 241.856c1.552-2.279 19.207-3.55 19.207-3.55l47.148-6.43" style="fill:none;stroke:red;stroke-width:.999997;stroke-linecap:round;stroke-linejoin:round;stroke-miterlimit:4;stroke-dasharray:none;stroke-opacity:1;visibility:visible"/><path d="m332.245 289.889-5.782.697s-11.013 1.942-17.578.348c-6.863-1.666-11.92-6.904-11.92-6.904l-41.471-35.378s-5.415-3.374-2.605-6.962M414.622 280.1l-76.705 9.101" style="fill:none;stroke:red;stroke-width:1.99999;stroke-linecap:round;stroke-linejoin:round;stroke-miterlimit:4;stroke-dasharray:none;stroke-opacity:1;visibility:visible"/><path d="m349.663 227.71-2.216.304" style="fill:none;stroke:red;stroke-width:.999997;stroke-linecap:round;stroke-linejoin:round;stroke-miterlimit:4;stroke-dasharray:none;stroke-opacity:1;visibility:visible"/><path d="m349.663 227.71.073 15.401-1.988.28M263.503 255.344l43.467-6.061" style="fill:none;stroke:red;stroke-width:1.99999;stroke-linecap:round;stroke-linejoin:round;stroke-miterlimit:4;stroke-dasharray:none;stroke-opacity:1;visibility:visible"/><path d="M339.876 290.945a.333.333 0 0 0-.016.11c-.004.473.92.861 2.06.866 1.14.001 2.066-.38 2.066-.855a.353.353 0 0 0-.026-.142M260.774 237.441c.001.377.74.673 1.641.665.906-.013 1.636-.328 1.631-.704M271.597 236.132c0 .377.737.681 1.637.681.903 0 1.637-.308 1.637-.683" style="fill:none;stroke:red;stroke-width:.999997;stroke-linecap:round;stroke-linejoin:round;stroke-miterlimit:4;stroke-dasharray:none;stroke-opacity:1;visibility:visible"/><path d="M343.96 290.924c-.16-.407-1.009-.72-2.037-.724-1.048-.003-1.917.32-2.047.745" style="fill:none;stroke:red;stroke-width:.666665;stroke-linecap:round;stroke-linejoin:round;stroke-miterlimit:4;stroke-dasharray:none;stroke-opacity:1;visibility:visible"/><path d="M326.5 292.66c.008.479.939.854 2.076.84 1.138-.018 2.061-.412 2.057-.89a.48.48 0 0 0-.018-.097" style="fill:none;stroke:red;stroke-width:.999997;stroke-linecap:round;stroke-linejoin:round;stroke-miterlimit:4;stroke-dasharray:none;stroke-opacity:1;visibility:visible"/><path d="M330.615 292.513c-.125-.428-1-.75-2.061-.737-1.134.013-2.057.41-2.054.884" style="fill:none;stroke:red;stroke-width:.666665;stroke-linecap:round;stroke-linejoin:round;stroke-miterlimit:4;stroke-dasharray:none;stroke-opacity:1;visibility:visible"/><path d="M337.62 291.565c.001.68-1.06 1.237-2.374 1.24-1.318.005-2.381-.543-2.384-1.225" style="fill:none;stroke:red;stroke-width:.999997;stroke-linecap:round;stroke-linejoin:round;stroke-miterlimit:4;stroke-dasharray:none;stroke-opacity:1;visibility:visible"/><path d="M337.595 291.822c-.001-.482-.541-.898-1.327-1.098M334.02 290.768c-.708.216-1.182.614-1.181 1.07" style="fill:none;stroke:red;stroke-width:.666665;stroke-linecap:round;stroke-linejoin:round;stroke-miterlimit:4;stroke-dasharray:none;stroke-opacity:1;visibility:visible"/><path d="M265.697 236.384c.001.544.969.972 2.152.961 1.184-.017 2.141-.468 2.133-1.012" style="fill:none;stroke:red;stroke-width:.999997;stroke-linecap:round;stroke-linejoin:round;stroke-miterlimit:4;stroke-dasharray:none;stroke-opacity:1;visibility:visible"/><path d="m265.209 234.84 4.761-.754M269.97 234.086l-4.761.754M337.917 289.201l-5.672.688M332.245 289.889l5.672-.688M349.663 227.71l-1.915 15.681" style="fill:none;stroke:red;stroke-width:1.99999;stroke-linecap:round;stroke-linejoin:round;stroke-miterlimit:4;stroke-dasharray:none;stroke-opacity:1;visibility:visible"/><path d="M344.342 73.299c.732.377 1.261.97 1.273 1.891l-.235 201.466s-1.193.484-2.897.562c-1.703.078-15.633 1.78-15.633 1.78s-2.556.234-3.485-.618c-.93-.852-1.927-1.86-1.927-1.86l.465-202.275s1.228-.773 2.622-.85c.293-.016 1.148-.056 2.312-.11M331.343 73.08l8.015-.357" style="fill:none;stroke:#00ff4a;stroke-width:1.99999;stroke-linecap:round;stroke-linejoin:round;stroke-miterlimit:4;stroke-dasharray:none;stroke-opacity:1;visibility:visible"/><path d="M345.346 74.865s-1.316.232-2.632.31c-1.316.077-13.081.464-13.081.464s-3.484.231-4.49.077c-1.006-.155-2.322-.773-2.398-1.316M325.102 75.98l-.077 203.129" style="fill:none;stroke:#00ff4a;stroke-width:.999997;stroke-linecap:round;stroke-linejoin:round;stroke-miterlimit:4;stroke-dasharray:none;stroke-opacity:1;visibility:visible"/><path d="M330.242 279.318v5.168s-.224.866-1.703.866c-1.577 0-1.698-.692-1.698-.692v-5.42M343.18 277.838v5.167s-.224.865-1.702.865c-1.579 0-1.699-.692-1.699-.692v-5.417" style="fill:none;stroke:#00ff4a;stroke-width:1.33333;stroke-linecap:round;stroke-linejoin:round;stroke-miterlimit:4;stroke-dasharray:none;stroke-opacity:1;visibility:visible"/><path d="M340.251 73.395v-5.167s.225-.867 1.703-.867c1.578 0 1.698.692 1.698.692v5.42M327.313 73.915v-5.167s.224-.867 1.702-.867c1.578 0 1.699.692 1.699.692v5.42" style="fill:none;stroke:#00ff4a;stroke-width:.999997;stroke-linecap:round;stroke-linejoin:round;stroke-miterlimit:4;stroke-dasharray:none;stroke-opacity:1;visibility:visible"/><path d="M330.77 73.81s-.225.864-1.703.864c-1.577.001-1.697-.691-1.697-.691M343.652 73.285s-.222.866-1.7.866c-1.581-.001-1.701-.691-1.701-.691M330.77 69.005s-.225.866-1.703.866c-1.577-.001-1.697-.692-1.697-.692M343.652 68.48s-.222.865-1.7.865c-1.581 0-1.701-.692-1.701-.692" style="fill:none;stroke:#00ff4a;stroke-width:.666665;stroke-linecap:round;stroke-linejoin:round;stroke-miterlimit:4;stroke-dasharray:none;stroke-opacity:1;visibility:visible"/><path d="m330.77 73.81 14.576 1.055M327.313 73.915l-2.211 2.065M326.841 279.24l-1.816-.131" style="fill:none;stroke:#00ff4a;stroke-width:.999997;stroke-linecap:round;stroke-linejoin:round;stroke-miterlimit:4;stroke-dasharray:none;stroke-opacity:1;visibility:visible"/><path d="m325.025 279.109 5.217.209M325.025 279.109l1.816.131M325.025 279.109l18.155-1.271M325.025 279.109l14.754-1.348" style="fill:none;stroke:#00ff4a;stroke-width:1.33333;stroke-linecap:round;stroke-linejoin:round;stroke-miterlimit:4;stroke-dasharray:none;stroke-opacity:1;visibility:visible"/><path d="m345.346 74.865-14.576-5.86M345.346 74.865l-1.694-6.385" style="fill:none;stroke:#00ff4a;stroke-width:.666665;stroke-linecap:round;stroke-linejoin:round;stroke-miterlimit:4;stroke-dasharray:none;stroke-opacity:1;visibility:visible"/><path d="M273.86 219.79c-1.395.061-12.78 1.453-12.78 1.453s-2.084.189-2.845-.506c-.76-.696-2.02-1.33-2.02-1.33l.38-163.835s1.45-1.2 2.588-1.262c.222-.012.671-.042 1.482-.08M264.755 54.243l6.422-.287M276.365 96.843l-.135 118.956M275.28 54.375c.648.333 1.126.985 1.137 1.78l-.023 17.985" style="fill:none;stroke:#9500ff;stroke-width:1.99999;stroke-linecap:round;stroke-linejoin:round;stroke-miterlimit:4;stroke-dasharray:none;stroke-opacity:1;visibility:visible"/><path d="M276.2 55.89s-1.078.38-2.15.442c-1.076.063-10.689.379-10.689.379s-2.848.189-3.671.064c-.82-.127-1.896-.823-1.96-1.265M259.69 57.024l-.44 163.02" style="fill:none;stroke:#9500ff;stroke-width:.999997;stroke-linecap:round;stroke-linejoin:round;stroke-miterlimit:4;stroke-dasharray:none;stroke-opacity:1;visibility:visible"/><path d="M263.857 221.506v4.224s-.184.706-1.394.706c-1.288 0-1.385-.566-1.385-.566v-4.426M274.427 220.296v4.221s-.182.708-1.39.708c-1.29 0-1.388-.567-1.388-.567v-4.426" style="fill:none;stroke:#9500ff;stroke-width:1.33333;stroke-linecap:round;stroke-linejoin:round;stroke-miterlimit:4;stroke-dasharray:none;stroke-opacity:1;visibility:visible"/><path d="M271.875 54.527v-4.221s.183-.708 1.391-.708c1.29 0 1.387.565 1.387.565v4.427M261.302 54.792V50.57s.184-.708 1.39-.708c1.291 0 1.39.565 1.39.565v4.428" style="fill:none;stroke:#9500ff;stroke-width:.999997;stroke-linecap:round;stroke-linejoin:round;stroke-miterlimit:4;stroke-dasharray:none;stroke-opacity:1;visibility:visible"/><path d="M264.127 54.707s-.182.708-1.39.708c-1.29 0-1.387-.565-1.387-.565M274.653 54.438s-.183.706-1.391.706c-1.29 0-1.387-.564-1.387-.564" style="fill:none;stroke:#9500ff;stroke-width:.666665;stroke-linecap:round;stroke-linejoin:round;stroke-miterlimit:4;stroke-dasharray:none;stroke-opacity:1;visibility:visible"/><path d="M267.3 67.68c-.898-.36-1.24-1.613-.763-2.796.477-1.18 1.591-1.847 2.486-1.484M263.04 62.667a.85.85 0 0 0-.848.848l.039 150.614a.84.84 0 0 0 .247.599" style="fill:none;stroke:#9500ff;stroke-width:1.33333;stroke-linecap:round;stroke-linejoin:round;stroke-miterlimit:4;stroke-dasharray:none;stroke-opacity:1;visibility:visible"/><path d="M269.023 63.399c.9.361 1.239 1.611.763 2.794-.475 1.182-1.588 1.85-2.487 1.487" style="fill:none;stroke:#9500ff;stroke-width:.666665;stroke-linecap:round;stroke-linejoin:round;stroke-miterlimit:4;stroke-dasharray:none;stroke-opacity:1;visibility:visible"/><path d="M267.215 213.862c-.894-.36-1.24-1.612-.761-2.796.475-1.18 1.588-1.846 2.485-1.485" style="fill:none;stroke:#9500ff;stroke-width:1.33333;stroke-linecap:round;stroke-linejoin:round;stroke-miterlimit:4;stroke-dasharray:none;stroke-opacity:1;visibility:visible"/><path d="M268.94 209.58c.673.272 1.032 1.042.97 1.91M268.26 213.865a1.46 1.46 0 0 1-1.046-.004M264.295 50.52s-.205.798-1.565.798c-1.455 0-1.565-.638-1.565-.638M274.689 50.386s-.19.732-1.442.732c-1.333 0-1.434-.586-1.434-.586" style="fill:none;stroke:#9500ff;stroke-width:.666665;stroke-linecap:round;stroke-linejoin:round;stroke-miterlimit:4;stroke-dasharray:none;stroke-opacity:1;visibility:visible"/><path d="m274.427 220.296 1.803-4.497" style="fill:none;stroke:#9500ff;stroke-width:1.99999;stroke-linecap:round;stroke-linejoin:round;stroke-miterlimit:4;stroke-dasharray:none;stroke-opacity:1;visibility:visible"/><path d="m261.165 50.68 15.035 5.21M261.302 54.792l-1.612 2.232M261.078 221.444l-1.828-1.4" style="fill:none;stroke:#9500ff;stroke-width:.999997;stroke-linecap:round;stroke-linejoin:round;stroke-miterlimit:4;stroke-dasharray:none;stroke-opacity:1;visibility:visible"/><path d="m259.25 220.045 4.607 1.461M259.25 220.045l1.828 1.399M276.23 215.799l-4.581 4.433M264.755 54.243l-1.715 8.424" style="fill:none;stroke:#9500ff;stroke-width:1.33333;stroke-linecap:round;stroke-linejoin:round;stroke-miterlimit:4;stroke-dasharray:none;stroke-opacity:1;visibility:visible"/><path d="m271.649 220.232-1.739-8.742" style="fill:none;stroke:#9500ff;stroke-width:.666665;stroke-linecap:round;stroke-linejoin:round;stroke-miterlimit:4;stroke-dasharray:none;stroke-opacity:1;visibility:visible"/><path d="m259.25 220.045 1.524 17.396M259.25 220.045l4.796 17.357M259.25 220.045l6.447 16.339M259.25 220.045l10.732 16.288" style="fill:none;stroke:red;stroke-width:.999997;stroke-linecap:round;stroke-linejoin:round;stroke-miterlimit:4;stroke-dasharray:none;stroke-opacity:1;visibility:visible"/><path d="m264.755 54.243-.46-3.723M264.755 54.243l9.934-3.857" style="fill:none;stroke:#9500ff;stroke-width:.666665;stroke-linecap:round;stroke-linejoin:round;stroke-miterlimit:4;stroke-dasharray:none;stroke-opacity:1;visibility:visible"/></svg>