<svg xmlns="http://www.w3.org/2000/svg" baseProfile="full" height="793.701" preserveAspectRatio="xMinYMin meet" style="width:912px;height:1303px" width="559.371" xml:space="preserve"><path d="M196.072 625.543c-.163-1.033.06-2.118.95-3.176 1.784-2.128 5.57-3.457 9.75-4.378" style="fill:none;stroke:red;stroke-width:1.99999;stroke-linecap:round;stroke-linejoin:round;stroke-miterlimit:4;stroke-dasharray:none;stroke-opacity:1;visibility:visible" visibility="hidden"/><path d="m372.412 667.51-94.427 10.419s-10.523 1.555-17.676.159c-9.12-1.78-14.766-6.7-14.766-6.7l-45.62-40.184s-3.371-2.59-3.852-5.661" style="fill:none;stroke:red;stroke-width:.999997;stroke-linecap:round;stroke-linejoin:round;stroke-miterlimit:4;stroke-dasharray:none;stroke-opacity:1;visibility:visible" visibility="hidden"/><path d="m298.085 607.148 3.39 2.723M367.522 663.588l4.89 3.921-.32 19.892-94.108 10.882s-10.489 1.453-17.675.169c-9.991-1.785-17.399-8.336-17.399-8.336l-42.988-38.424s-4.372-4.128-4.05-8.18l.16-18.75" style="fill:none;stroke:red;stroke-width:1.99999;stroke-linecap:round;stroke-linejoin:round;stroke-miterlimit:4;stroke-dasharray:none;stroke-opacity:1;visibility:visible" visibility="hidden"/><path d="M203.74 623.541c.988-1.973 17.164-3.377 17.164-3.377" style="fill:none;stroke:red;stroke-width:.999997;stroke-linecap:round;stroke-linejoin:round;stroke-miterlimit:4;stroke-dasharray:none;stroke-opacity:1;visibility:visible" visibility="hidden"/><path d="m367.128 663.592-69.031 7.492M273.154 674.107c-3.788.369-8.944.596-12.676-.308-6.921-1.682-12.021-6.964-12.021-6.964l-41.478-35.895c.975.648-5.479-3.825-3.239-7.399" style="fill:none;stroke:red;stroke-width:1.99999;stroke-linecap:round;stroke-linejoin:round;stroke-miterlimit:4;stroke-dasharray:none;stroke-opacity:1;visibility:visible" visibility="hidden"/><path d="m301.606 610.036-3.54.487" style="fill:none;stroke:red;stroke-width:.999997;stroke-linecap:round;stroke-linejoin:round;stroke-miterlimit:4;stroke-dasharray:none;stroke-opacity:1;visibility:visible" visibility="hidden"/><path d="M296.567 468.454c.568.38.953.928.96 1.716l-.236 203.409M273.52 673.443l.47-204.227s.859-.78 2.264-.856a257.99 257.99 0 0 1 2.333-.11M283.133 468.042c4.17-.188 8.66-.386 8.66-.386M216.611 637.644l21.084-2.94M301.606 610.036l.074 15.536-4.225.595" style="fill:none;stroke:red;stroke-width:1.99999;stroke-linecap:round;stroke-linejoin:round;stroke-miterlimit:4;stroke-dasharray:none;stroke-opacity:1;visibility:visible" visibility="hidden"/><path d="M292.118 468.36v-5.213s.228-.873 1.717-.873c1.59 0 1.715.696 1.715.696v5.466M279.065 468.883v-5.213s.228-.87 1.72-.87c1.592 0 1.712.694 1.712.694v5.468M276.645 470.78l-.08 205.083M297.257 469.842s-1.327.234-2.652.312c-1.33.078-13.198.47-13.198.47s-3.514.231-4.529.076c-1.015-.156-2.341-.78-2.421-1.328M297.291 673.937s-1.204.487-2.921.566c-1.717.077-15.773 1.797-15.773 1.797s-2.578.233-3.515-.624c-.935-.86-1.561-1.875-1.561-1.875" style="fill:none;stroke:red;stroke-width:.999997;stroke-linecap:round;stroke-linejoin:round;stroke-miterlimit:4;stroke-dasharray:none;stroke-opacity:1;visibility:visible" visibility="hidden"/><path d="M282.554 468.776s-.224.875-1.717.875c-1.594 0-1.715-.697-1.715-.697M295.549 468.248s-.227.872-1.72.872c-1.589 0-1.71-.696-1.71-.696M282.554 463.932s-.224.872-1.717.872c-1.594 0-1.715-.697-1.715-.697M295.549 463.404s-.227.872-1.72.872c-1.589 0-1.71-.696-1.71-.696" style="fill:none;stroke:red;stroke-width:.666665;stroke-linecap:round;stroke-linejoin:round;stroke-miterlimit:4;stroke-dasharray:none;stroke-opacity:1;visibility:visible" visibility="hidden"/><path d="m207.214 617.972-1.73-174.686s.771-.699 2.031-.77l1.225-.057M213.675 442.233c2.606-.12 5.348-.24 6.771-.303" style="fill:none;stroke:red;stroke-width:1.99999;stroke-linecap:round;stroke-linejoin:round;stroke-miterlimit:4;stroke-dasharray:none;stroke-opacity:1;visibility:visible" visibility="hidden"/><path d="M207.214 617.972s.56.73 1.399 1.499c.837.769 3.146.381 3.146.381l8.142-.936" style="fill:none;stroke:red;stroke-width:.999997;stroke-linecap:round;stroke-linejoin:round;stroke-miterlimit:4;stroke-dasharray:none;stroke-opacity:1;visibility:visible" visibility="hidden"/><path d="M225.106 442.287c.817.326 1.455.89 1.464 1.853l.1 13.127" style="fill:none;stroke:red;stroke-width:1.99999;stroke-linecap:round;stroke-linejoin:round;stroke-miterlimit:4;stroke-dasharray:none;stroke-opacity:1;visibility:visible" visibility="hidden"/><path d="M221.547 442.34v-4.67s.203-.781 1.54-.781c1.423 0 1.533.621 1.533.621v4.897M209.858 442.631v-4.668s.2-.782 1.536-.782c1.428-.001 1.536.625 1.536.625v4.896M207.863 444.683l2.08 175.097M226.327 443.845s-1.187.21-2.377.28c-1.188.07-11.819.421-11.819.421s-3.15.208-4.057.067c-.91-.138-2.1-.698-2.168-1.187" style="fill:none;stroke:red;stroke-width:.999997;stroke-linecap:round;stroke-linejoin:round;stroke-miterlimit:4;stroke-dasharray:none;stroke-opacity:1;visibility:visible" visibility="hidden"/><path d="M212.98 442.538s-.204.784-1.538.784c-1.428 0-1.532-.627-1.532-.627M224.62 442.24s-.201.783-1.537.783c-1.429-.001-1.536-.625-1.536-.625" style="fill:none;stroke:red;stroke-width:.666665;stroke-linecap:round;stroke-linejoin:round;stroke-miterlimit:4;stroke-dasharray:none;stroke-opacity:1;visibility:visible" visibility="hidden"/><path d="M216.311 452.469c.023-.32.096-.652.231-.98.524-1.306 1.756-2.041 2.748-1.642" style="fill:none;stroke:red;stroke-width:1.33333;stroke-linecap:round;stroke-linejoin:round;stroke-miterlimit:4;stroke-dasharray:none;stroke-opacity:1;visibility:visible" visibility="hidden"/><path d="M219.291 449.846c.636.254 1.02.914 1.075 1.696 0 0 .165 1.916-.921 2.567" style="fill:none;stroke:red;stroke-width:.999997;stroke-linecap:round;stroke-linejoin:round;stroke-miterlimit:4;stroke-dasharray:none;stroke-opacity:1;visibility:visible" visibility="hidden"/><path d="M212.829 438.045s-.206.797-1.567.797c-1.452 0-1.564-.637-1.564-.637M224.68 437.753s-.208.796-1.57.796c-1.449 0-1.559-.639-1.559-.639" style="fill:none;stroke:red;stroke-width:.666665;stroke-linecap:round;stroke-linejoin:round;stroke-miterlimit:4;stroke-dasharray:none;stroke-opacity:1;visibility:visible" visibility="hidden"/><path d="m219.901 618.916 1.003 1.248" style="fill:none;stroke:red;stroke-width:.999997;stroke-linecap:round;stroke-linejoin:round;stroke-miterlimit:4;stroke-dasharray:none;stroke-opacity:1;visibility:visible" visibility="hidden"/><path d="m219.901 618.916-3.29 18.728M301.606 610.036l-4.151 16.131" style="fill:none;stroke:red;stroke-width:1.99999;stroke-linecap:round;stroke-linejoin:round;stroke-miterlimit:4;stroke-dasharray:none;stroke-opacity:1;visibility:visible" visibility="hidden"/><path d="m279.065 468.883-2.42 1.897" style="fill:none;stroke:red;stroke-width:.999997;stroke-linecap:round;stroke-linejoin:round;stroke-miterlimit:4;stroke-dasharray:none;stroke-opacity:1;visibility:visible" visibility="hidden"/><path d="m213.675 442.233-4.935.226" style="fill:none;stroke:red;stroke-width:1.99999;stroke-linecap:round;stroke-linejoin:round;stroke-miterlimit:4;stroke-dasharray:none;stroke-opacity:1;visibility:visible" visibility="hidden"/><path d="m216.611 637.644 3.29-18.728M209.858 442.631l-1.995 2.052M196.032 624.762l13.911-4.982" style="fill:none;stroke:red;stroke-width:.999997;stroke-linecap:round;stroke-linejoin:round;stroke-miterlimit:4;stroke-dasharray:none;stroke-opacity:1;visibility:visible" visibility="hidden"/><path d="m207.863 444.683 8.448 7.786" style="fill:none;stroke:red;stroke-width:1.33333;stroke-linecap:round;stroke-linejoin:round;stroke-miterlimit:4;stroke-dasharray:none;stroke-opacity:1;visibility:visible" visibility="hidden"/><path d="m210.333 453.613 63.269 24.417" style="fill:none;stroke:#00ff4a;stroke-width:.999997;stroke-linecap:round;stroke-linejoin:round;stroke-miterlimit:4;stroke-dasharray:none;stroke-opacity:1;visibility:visible"/><path d="m273.097 662.188-59.69-48.005M272.869 475.084l-24.575-9.468M239.815 462.35l-24.06-9.268" style="fill:none;stroke:#00ff4a;stroke-width:1.99999;stroke-linecap:round;stroke-linejoin:round;stroke-miterlimit:4;stroke-dasharray:none;stroke-opacity:1;visibility:visible"/><path d="m213.049 613.612-2.716-160.535 4.354.005M247.08 630.268l-5.976-4.85-1.971-152.425 6.333 2.877 1.614 154.398" style="fill:none;stroke:#00ff4a;stroke-width:.999997;stroke-linecap:round;stroke-linejoin:round;stroke-miterlimit:4;stroke-dasharray:none;stroke-opacity:1;visibility:visible"/><path d="M245.453 610.307a.77.77 0 0 0 .353.441M245.542 608.276c.173.052.015.204-.088.354M243.88 608.541c.168.02.256.107.264.264M244.573 583.752c.087-.11.092-.204.013-.284a1.07 1.07 0 0 0-.455.108M244.055 625.765l-.088.44M245.555 625.324a.677.677 0 0 1 .088.617M245.378 622.677c.17-.037.257.023.265.178M244.143 623.472a.725.725 0 0 1-.088.618M242.58 622.941l-.178.442M243.613 621.265l.276.11c.038.192-.056.25-.189.332M245.643 620.472c.197.216.332.452.177.53M244.407 618.532c.19.175.26.396.176.618M242.466 619.677c-.196.216-.332.453-.176.53M243.26 617.032c.108.235.028.365-.174.441M245.643 616.501a1.32 1.32 0 0 0-.353.53M244.231 615.179c.066.261.031.461-.176.441M242.14 614.208a.632.632 0 0 1 .264.705M243.26 612.355c-.086.262-.05.474.178.528M245.555 613.325c.206.311.23.565-.088.618M244.143 610.944l.264.353M242.58 609.885l-.09.44M242.733 607.395c.087-.11.092-.205.013-.285a1.07 1.07 0 0 0-.455.109M245.466 606.248a.473.473 0 0 0 .264.353M244.055 605.541v.53M244.849 603.955c.2.224.436.31.705.264M242.997 604.395a4.176 4.176 0 0 1-.442.177M242.555 602.013a1.13 1.13 0 0 0-.529.442M244.055 602.808v.176M245.378 601.836c.361.15.567.377.353.619M243.79 600.69a.515.515 0 0 1-.265.44M242.997 598.837c-.215.024-.427.106-.548.26a.256.256 0 0 0 .194.181M245.026 599.543v.527M244.055 597.425l-.088.44M242.643 596.896l-.353.354M245.555 596.984a.677.677 0 0 1 .088.617M245.378 594.337c.17-.037.257.023.265.178M244.143 595.132a.725.725 0 0 1-.088.618M242.202 594.601l-.176.442M243.613 592.926l.276.109c.038.192-.056.25-.189.332M245.454 592.132c.196.216.332.452.176.53M244.407 590.192c.19.175.26.396.176.618M242.466 591.338c-.196.216-.332.452-.176.529M243.26 588.692c.108.235.028.366-.174.442M245.643 588.162a1.32 1.32 0 0 0-.353.528M244.231 586.839c.066.263.031.463-.176.441M241.76 585.868a.632.632 0 0 1 .267.706M243.26 584.016c-.086.264-.05.475.178.528M245.366 584.986c.205.31.23.564-.088.617M243.954 530.643l.441-.088M244.974 557.51a.77.77 0 0 0 .353.443M245.062 555.48c.173.052.015.203-.088.354M243.21 555.747c.17.019.257.107.265.263M242.063 582.939c.088-.11.092-.204.014-.284a1.07 1.07 0 0 0-.455.108M244.8 581.792a.473.473 0 0 0 .262.354M243.386 581.087v.53M244.18 579.499c.2.224.438.31.707.264M242.327 579.939a4.176 4.176 0 0 1-.44.177M241.887 577.558a1.13 1.13 0 0 0-.529.44M243.386 578.352v.176M244.71 577.382c.361.15.567.377.353.618M243.122 576.235a.515.515 0 0 1-.265.44M242.327 574.382c-.214.024-.425.105-.547.258a.256.256 0 0 0 .194.183M244.357 575.088v.528M243.386 572.97l-.088.44M241.974 572.44l-.353.354M244.886 572.528a.677.677 0 0 1 .088.618M244.71 569.882c.17-.038.257.02.265.177M243.474 570.675a.725.725 0 0 1-.088.617M241.533 570.146l-.176.44M242.946 568.47l.276.11c.039.192-.056.25-.188.332M244.974 567.675c.196.215.332.452.176.53M243.74 565.736c.188.175.26.396.174.618M241.8 566.882c-.198.216-.334.452-.178.528M242.593 564.235c.106.235.026.365-.176.441M244.974 563.706a1.32 1.32 0 0 0-.353.529M243.562 562.383c.065.263.03.463-.176.441M241.093 561.414a.632.632 0 0 1 .265.705M242.593 559.56c-.088.263-.053.475.176.528M244.886 560.53c.205.313.23.566-.088.619M243.474 558.148l.264.354M241.533 557.09l-.088.44M242.063 554.599c.088-.11.092-.204.014-.284a1.07 1.07 0 0 0-.455.108M244.8 553.452a.473.473 0 0 0 .262.354M243.386 552.747v.53M244.18 551.159c.2.224.438.31.707.264M242.327 551.599a4.176 4.176 0 0 1-.44.177M241.887 549.218a1.13 1.13 0 0 0-.529.44M243.386 550.012v.176M244.71 549.04c.361.151.567.378.353.62M243.122 547.895a.515.515 0 0 1-.265.44M242.327 546.042c-.214.024-.425.105-.547.258a.256.256 0 0 0 .194.183M244.357 546.748v.528M243.386 544.631l-.088.44M241.974 544.102l-.353.353M244.886 544.19a.677.677 0 0 1 .088.617M244.71 541.542c.17-.038.257.021.265.177M243.474 542.336a.725.725 0 0 1-.088.618M241.533 541.807l-.176.441M242.946 540.131l.276.11c.039.19-.056.249-.188.33M244.974 539.336c.196.216.332.452.176.53M243.74 537.396c.188.175.26.396.174.618M241.8 538.542c-.198.216-.334.452-.178.528M242.593 535.896c.106.235.026.366-.176.442M244.974 535.367a1.32 1.32 0 0 0-.353.53M243.562 534.043c.065.263.03.463-.176.441M241.093 533.074a.632.632 0 0 1 .265.705M242.593 531.222c-.088.262-.053.474.176.528M244.886 532.191c.205.31.23.564-.088.617M244.22 504.703a.77.77 0 0 0 .352.441M244.307 502.674c.174.052.015.202-.087.353M242.454 502.94c.17.017.257.105.266.262M241.307 530.132c.088-.109.093-.204.014-.284a1.07 1.07 0 0 0-.455.108M244.043 528.984a.473.473 0 0 0 .264.354M242.631 528.279v.53M243.426 526.692c.2.224.436.311.705.264M241.573 527.132a4.176 4.176 0 0 1-.443.178M241.133 524.751a1.13 1.13 0 0 0-.53.441M242.631 525.544v.176M243.954 524.574c.361.15.567.376.353.618M242.366 523.427a.515.515 0 0 1-.265.44M241.573 521.575c-.215.024-.426.105-.548.259a.256.256 0 0 0 .194.182M243.602 522.28v.528M242.631 520.163l-.088.44M241.22 519.634l-.355.353M244.131 519.722a.677.677 0 0 1 .089.617M243.954 517.075c.17-.037.257.021.266.177M242.72 517.868a.725.725 0 0 1-.09.618M240.778 517.339l-.176.441M242.19 515.663l.276.11c.039.19-.056.248-.188.33M244.22 514.868c.194.216.33.452.174.53M242.983 512.928c.19.175.26.396.177.618M241.043 514.075c-.196.216-.332.452-.176.53M241.837 511.428c.106.235.026.366-.177.442M244.22 510.899a1.32 1.32 0 0 0-.355.53M242.807 509.576c.066.264.031.464-.176.442M240.337 508.606a.632.632 0 0 1 .265.704M241.837 506.754c-.088.262-.052.474.176.528M244.131 507.723c.206.31.23.564-.088.617M242.72 505.342l.262.353M240.778 504.283l-.088.44M241.307 501.792c.088-.109.093-.204.014-.284a1.07 1.07 0 0 0-.455.108M244.043 500.646a.473.473 0 0 0 .264.353M242.631 499.94v.527M243.426 498.352c.2.224.436.311.705.264M241.573 498.792a4.176 4.176 0 0 1-.443.178M241.133 496.411a1.13 1.13 0 0 0-.53.441M242.631 497.204v.176M243.954 496.234c.361.15.567.376.353.618M242.366 495.088a.515.515 0 0 1-.265.44M241.573 493.235c-.215.025-.426.105-.548.259a.256.256 0 0 0 .194.182M243.602 493.942v.528M242.631 491.823l-.088.44M241.22 491.294l-.355.353M244.131 491.382a.677.677 0 0 1 .089.617M243.954 488.735c.17-.037.257.021.266.177M242.72 489.528a.725.725 0 0 1-.09.618M240.778 489l-.176.44M242.19 487.323l.276.11c.039.19-.056.248-.188.33M244.22 486.528c.194.216.33.452.174.53M242.983 484.59c.19.174.26.396.177.617M241.043 485.735c-.196.216-.332.452-.176.53M241.837 483.088c.106.235.026.366-.177.442M244.22 482.56a1.32 1.32 0 0 0-.355.527M242.807 481.235c.066.263.031.463-.176.441M240.337 480.266a.632.632 0 0 1 .265.704M241.837 478.414c-.088.262-.052.474.176.528M244.131 479.383c.206.31.23.564-.088.617M242.72 477.002l.262.353M240.778 475.943l-.088.44" style="fill:none;stroke:#00ff4a;stroke-width:.666665;stroke-linecap:round;stroke-linejoin:round;stroke-miterlimit:4;stroke-dasharray:none;stroke-opacity:1;visibility:visible"/><path d="m239.815 462.35 8.479 3.266M248.294 465.616l-8.479-3.266" style="fill:none;stroke:#00ff4a;stroke-width:1.99999;stroke-linecap:round;stroke-linejoin:round;stroke-miterlimit:4;stroke-dasharray:none;stroke-opacity:1;visibility:visible"/><path d="m244.407 618.532 2.673 11.736" style="fill:none;stroke:#00ff4a;stroke-width:.999997;stroke-linecap:round;stroke-linejoin:round;stroke-miterlimit:4;stroke-dasharray:none;stroke-opacity:1;visibility:visible"/><path d="m242.14 614.208 3.666-3.46M243.438 612.883l2.104-4.607M244.055 605.541l.089 3.264M242.466 591.338l2.107-7.586M242.404 614.913l1.651 10.852M242.58 609.885l1.387 16.32M244.407 611.297l1.148 14.027M242.58 622.941l3.063 3M245.554 604.219l-.176 18.458M244.055 605.541l1.588 17.314M245.643 625.941l-3.063-3M243.26 612.355l-.858 11.028M242.29 620.207l1.323 1.058M242.997 604.395l2.823 16.607M247.08 630.268l-2.673-11.736M242.58 622.941l2.003-3.791M242.733 607.395l-.267 12.282M243.613 621.265l-1.323-1.058M242.997 604.395l.089 13.078M242.29 597.25l3.353 19.251M243.26 612.355l2.03 4.676M245.806 610.748l-3.666 3.46M243.26 612.355l-.856 2.558M242.404 614.913l.856-2.558M245.542 608.276l-2.104 4.607M244.407 611.297l1.148 2.028M245.554 604.219l-.087 9.724M245.555 613.325l-1.148-2.028M242.404 614.913l.176-5.028M244.055 597.425l-1.565 12.9M242.466 619.677l.267-12.282M242.997 604.395l-.706 2.824M245.378 601.836l.352 4.765M244.055 602.984v2.557M244.055 602.808v3.263M244.407 611.297l.442-7.342M245.467 613.943l.087-9.724M242.291 607.219l.706-2.824M242.555 602.013v2.559M242.555 604.572v-2.559M245.026 600.07l-.971 2.738M243.79 600.69l.265 2.294M245.73 606.601l-.352-4.765M242.643 596.896l3.088 5.559M245.026 600.07l-1.236.62M242.997 604.395l.528-3.265M245.278 585.603l-2.281 13.234M245.542 608.276l-2.899-8.998M244.055 602.984l.971-3.441M243.79 600.69l1.236-.62M242.027 586.574l2.028 10.851M242.58 609.885l1.387-12.02M245.731 602.455l-3.088-5.559M242.466 591.338l-.176 5.912M244.407 611.297l1.148-14.313M242.202 594.601l3.441 3M245.554 604.219l-.176-9.882M245.026 599.543l.617-5.028M244.583 590.81l-2.381 3.791M243.26 584.016l-1.234 11.027M242.29 591.867l1.323 1.059M242.555 602.013l3.075-9.351M242.202 594.601l2.381-3.791M242.29 597.25l.176-5.912M243.613 592.926l-1.323-1.059M242.327 579.939l.759 9.195M242.29 597.25l3.353-9.088M243.26 584.016l2.03 4.674M243.26 584.016l-1.233 2.558M244.887 579.763l.391 5.84M244.131 526.956l-.177 3.687M244.798 532.808l-.403-2.253M241.093 561.414l4.234-3.461M242.769 560.088l2.293-4.608M243.386 552.747l.089 3.263M242.466 591.338l-.403-8.399M242.327 579.939l-.705 2.824M244.71 577.382l.352 4.764M243.386 578.528v2.559M243.386 578.352v3.265M245.278 585.603l-.391-5.84M241.622 582.763l.705-2.824M241.887 577.558v2.558M241.887 580.116v-2.558M244.357 575.616l-.971 2.736M243.122 576.235l.264 2.293M245.062 582.146l-.352-4.764M241.974 572.44l3.089 5.56M244.357 575.616l-1.235.619M242.327 579.939l.53-3.264M245.278 585.603l-2.951-11.221M245.062 555.48l-3.088 19.343M243.386 578.528l.971-3.44M243.122 576.235l1.235-.619M241.358 562.119l2.028 10.851M241.533 557.09l1.765 16.32M245.063 578l-3.089-5.56M241.8 566.882l-.179 5.912M243.738 558.502l1.148 14.026M241.533 570.146l3.441 3M244.887 579.763l-.177-9.881M244.357 575.088l.618-5.029M243.914 566.354l-2.381 3.792M242.593 559.56l-1.236 11.026M241.622 567.41l1.324 1.06M241.887 577.558l3.263-9.353M241.533 570.146l2.381-3.792M241.621 572.794l.179-5.912M242.946 568.47l-1.324-1.06M241.887 577.558l.53-12.882M241.621 572.794l3.353-9.088M242.593 559.56l2.028 4.675M245.327 557.953l-4.234 3.461M242.593 559.56l-1.235 2.559M241.358 562.119l1.235-2.559M245.062 555.48l-2.293 4.608M243.738 558.502l1.148 2.028M244.887 551.423l-.089 9.726M244.886 560.53l-1.148-2.028M241.358 562.119l.175-5.029M243.386 544.631l-1.941 12.899M241.8 566.882l.263-12.283M242.327 551.599l-.705 2.824M244.71 549.04l.352 4.766M243.386 550.188v2.559M243.386 550.012v3.265M244.798 561.149l.089-9.726M241.622 554.423l.705-2.824M241.887 549.218v2.558M241.887 551.776v-2.558M244.357 547.276l-.971 2.736M243.122 547.895l.264 2.293M245.062 553.806l-.352-4.766M241.974 544.102l3.089 5.558M244.357 547.276l-1.235.619M242.327 551.599l.53-3.264M244.798 532.808l-2.471 13.234M245.062 555.48l-3.088-8.997M243.386 550.188l.971-3.44M243.122 547.895l1.235-.619M241.358 533.779l2.028 10.852M241.533 557.09l1.765-12.019M245.063 549.66l-3.089-5.558M241.8 538.542l-.179 5.913M243.738 558.502l1.148-14.312M241.533 541.807l3.441 3M244.887 551.423l-.177-9.881M244.357 546.748l.618-5.029M243.914 538.014l-2.381 3.793M242.593 531.222l-1.236 11.026M241.622 539.07l1.324 1.061M241.887 549.218l3.263-9.352M241.533 541.807l2.381-3.793M241.621 544.455l.179-5.913M242.946 540.131l-1.324-1.061M241.573 527.132l.844 9.206M241.621 544.455l3.353-9.088M242.593 531.222l2.028 4.675M242.593 531.222l-1.235 2.557M241.358 533.779l1.235-2.557M244.395 530.555l.403 2.253M240.337 508.606l4.235-3.462M242.013 507.282l2.294-4.608M242.631 499.94l.089 3.262M241.8 538.542l-.493-8.41M241.573 527.132l-.707 2.824M243.954 524.574l.353 4.764M242.631 525.72v2.559M242.631 525.544v3.265M243.954 530.643l.177-3.687M240.866 529.956l.707-2.824M241.133 524.751l-.003 2.559M241.13 527.31l.003-2.559M243.602 522.808l-.971 2.736M242.366 523.427l.265 2.293M244.307 529.338l-.353-4.764M241.22 519.634l3.087 5.558M243.602 522.808l-1.236.619M241.573 527.132l.528-3.265M243.954 530.643l-2.381-9.068M244.307 502.674l-3.088 19.342M242.631 525.72l.971-3.44M242.366 523.427l1.236-.619M240.602 509.31l2.029 10.853M240.778 504.283l1.765 16.32M244.307 525.192l-3.087-5.558M241.043 514.075l-.178 5.912M242.982 505.695l1.149 14.027M240.778 517.339l3.442 3M244.131 526.956l-.177-9.881M243.602 522.28l.618-5.028M243.16 513.546l-2.382 3.793M241.837 506.754l-1.235 11.026M240.867 514.605l1.323 1.058M241.133 524.751l3.261-9.353M240.778 517.339l2.382-3.793M240.865 519.987l.178-5.912M242.19 515.663l-1.323-1.058M241.133 524.751l.527-12.881M240.865 519.987l3.355-9.088M241.837 506.754l2.028 4.675M244.572 505.144l-4.235 3.462M241.837 506.754l-1.235 2.556M240.602 509.31l1.235-2.556M244.307 502.674l-2.294 4.608M242.982 505.695l1.149 2.028M244.131 498.616l-.088 9.724M244.131 507.723l-1.149-2.028M240.602 509.31l.176-5.027M242.631 491.823l-1.941 12.9M241.043 514.075l.264-12.283M241.573 498.792l-.707 2.824M243.954 496.234l.353 4.765M242.631 497.38v2.56M242.631 497.204v3.263M244.043 508.34l.088-9.724M240.866 501.616l.707-2.824M241.133 496.411l-.003 2.559M241.13 498.97l.003-2.559M243.602 494.47l-.971 2.734M242.366 495.088l.265 2.292M244.307 500.999l-.353-4.765M241.22 491.294l3.087 5.558M243.602 494.47l-1.236.618M241.573 498.792l.528-3.264M244.043 480l-2.47 13.235M244.307 502.674l-3.088-8.998M242.631 497.38l.971-3.438M242.366 495.088l1.236-.618M240.602 480.97l2.029 10.853M240.778 504.283l1.765-12.02M244.307 496.852l-3.087-5.558M241.043 485.735l-.178 5.912M242.982 477.355l1.149 14.027M240.778 489l3.442 2.999M244.131 498.616l-.177-9.881M243.602 493.942l.618-5.03M243.16 485.207 240.778 489M241.837 478.414l-1.235 11.026M240.867 486.265l1.323 1.058M241.133 496.411l3.261-9.353M240.778 489l2.382-3.793M240.865 491.647l.178-5.912M242.19 487.323l-1.323-1.058M241.133 496.411l.527-12.881M240.865 491.647l3.355-9.087M241.837 478.414l2.028 4.673M241.837 478.414l-1.235 2.556M240.602 480.97l1.235-2.556M242.982 477.355l1.149 2.028M241.573 493.235l2.47-13.235M244.131 479.383l-1.149-2.028M240.602 480.97l.176-5.027M242.631 491.823l-1.941-15.44" style="fill:none;stroke:#00ff4a;stroke-width:.666665;stroke-linecap:round;stroke-linejoin:round;stroke-miterlimit:4;stroke-dasharray:none;stroke-opacity:1;visibility:visible"/><path d="m245.378 622.677-7.683 12.027M208.74 442.459l11.706-.529" style="fill:none;stroke:red;stroke-width:1.99999;stroke-linecap:round;stroke-linejoin:round;stroke-miterlimit:4;stroke-dasharray:none;stroke-opacity:1;visibility:visible" visibility="hidden"/><path d="m219.29 449.847-8.957 3.766M213.675 442.233l1.012 10.849" style="fill:none;stroke:#00ff4a;stroke-width:.999997;stroke-linecap:round;stroke-linejoin:round;stroke-miterlimit:4;stroke-dasharray:none;stroke-opacity:1;visibility:visible"/><path d="m247.08 630.268-2.937-6.796M245.643 616.501l-1.412-1.322M245.278 585.603l-1.135 9.529M244.583 590.81l-.528 4.94M245.278 585.603l-1.047 1.236M245.278 585.603l-1.804-14.928M243.914 566.354l-.528 4.938M243.386 572.97l.176-10.587M243.954 530.643l-.48 11.693M243.914 538.014l-.528 4.94M244.798 532.808l-1.236 1.235M243.954 530.643l-1.234-12.775M243.16 513.546l-.53 4.94M244.307 502.674l-1.5 6.902M244.307 502.674l-1.587-13.146M243.16 485.207l-.53 4.939M242.631 491.823l.176-10.588" style="fill:none;stroke:#00ff4a;stroke-width:.666665;stroke-linecap:round;stroke-linejoin:round;stroke-miterlimit:4;stroke-dasharray:none;stroke-opacity:1;visibility:visible"/></svg>