<svg xmlns="http://www.w3.org/2000/svg" baseProfile="full" height="1122.52" preserveAspectRatio="xMinYMin meet" style="width:732px;height:841px" width="793.701" xml:space="preserve"><path d="m94.25 536.634 2.68-.227M94.25 536.634l1.145-.213" style="fill:none;stroke:red;stroke-width:1.99999;stroke-linecap:round;stroke-linejoin:round;stroke-miterlimit:4;stroke-dasharray:none;stroke-opacity:1;visibility:visible"/><path d="m244.637 508.835 1.027-.2M236.236 510.274l.908-.147.893-.146.88-.146.879-.148.855-.146.838-.146.815-.149.799-.132.773-.145.761-.134M248.89 508.9l-1.04.2M111.854 631.132l1.836 11.917M98.503 536.754l-1.16.213 1.535 9.956M106.97 535.048l-.613.133-.654.146-.68.148-.706.146-.748.146-.774.158-.812.162-.826.158-.868.163-.879.17-.908.175M247.849 509.1l-.84.145-.853.162-.88.16-.906.161-.921.159-.947.161-.946.159-.972.161-.987.172-1 .161-1.013.159M106.97 535.048l1.733-.388 1.759-.401 1.788-.399 1.827-.4 1.865-.399 1.893-.401 1.922-.415 1.96-.41 1.986-.415 2.026-.427 2.04-.414 2.08-.424 2.106-.427 2.148-.44 2.16-.428 2.186-.44 2.226-.427 2.255-.44 2.267-.453 2.293-.44 2.333-.44 2.346-.453 2.374-.454 2.399-.453 2.428-.452 2.44-.453 2.465-.454 2.495-.466 2.505-.456 2.535-.466 2.547-.466 2.573-.454 2.585-.465 2.613-.47 2.628-.465 2.654-.466 2.666-.467 2.68-.465 2.692-.483 2.72-.465 2.72-.467 2.748-.465 2.76-.48 2.772-.468 2.787-.467 2.801-.479 2.812-.466 2.827-.468 2.84-.48 2.855-.466 2.852-.468 2.881-.465 2.88-.481 2.88-.467M113.477 643.66l.08-.027.065-.066.042-.107.026-.12.014-.147-.014-.145M97.342 536.968l-.039-.145-.053-.15-.068-.12-.08-.077-.093-.055-.08-.013" style="fill:none;stroke:red;stroke-width:.999997;stroke-linecap:round;stroke-linejoin:round;stroke-miterlimit:4;stroke-dasharray:none;stroke-opacity:1;visibility:visible"/><path d="M94.25 536.634h0-.015" style="fill:none;stroke:red;stroke-width:1.99999;stroke-linecap:round;stroke-linejoin:round;stroke-miterlimit:4;stroke-dasharray:none;stroke-opacity:1;visibility:visible"/><path d="m98.637 547.02-.147-.292-.16-.252-.173-.243-.187-.185-.2-.161-.201-.119-.199-.081-.201-.039-.199.012" style="fill:none;stroke:red;stroke-width:.999997;stroke-linecap:round;stroke-linejoin:round;stroke-miterlimit:4;stroke-dasharray:none;stroke-opacity:1;visibility:visible"/><path d="m110.556 633.114.188-.052.185-.107.174-.146.148-.187.132-.227.12-.268.081-.292.065-.32" style="fill:none;stroke:red;stroke-width:1.99999;stroke-linecap:round;stroke-linejoin:round;stroke-miterlimit:4;stroke-dasharray:none;stroke-opacity:1;visibility:visible"/><path d="m98.503 635.246.2-.052.173-.107.174-.146.148-.187.132-.227.12-.268.081-.292.065-.32.027-.333.015-.36-.015-.361-.053-.374M86.939 550.632l-.068-.361-.079-.334-.12-.333-.12-.319-.146-.293-.174-.253-.173-.242-.188-.185-.185-.159-.2-.133-.2-.068-.202-.039h-.198M86.863 550.142l12.705 82.078" style="fill:none;stroke:red;stroke-width:.999997;stroke-linecap:round;stroke-linejoin:round;stroke-miterlimit:4;stroke-dasharray:none;stroke-opacity:1;visibility:visible"/><path d="m277.077 593.34.052.32.028.32v.321l-.028.306-.039.28M260.823 515.288l.187.24.173.265.147.307.132.308.108.333.08.347" style="fill:none;stroke:red;stroke-width:1.99999;stroke-linecap:round;stroke-linejoin:round;stroke-miterlimit:4;stroke-dasharray:none;stroke-opacity:1;visibility:visible"/><path d="m277.077 593.34.08-.093" style="fill:none;stroke:red;stroke-width:.999997;stroke-linecap:round;stroke-linejoin:round;stroke-miterlimit:4;stroke-dasharray:none;stroke-opacity:1;visibility:visible"/><path d="m261.757 517.02-.107.068" style="fill:none;stroke:red;stroke-width:1.99999;stroke-linecap:round;stroke-linejoin:round;stroke-miterlimit:4;stroke-dasharray:none;stroke-opacity:1;visibility:visible"/><path d="M244.637 508.835h-.015M236.236 510.274h-.013M102.357 535.02h-.053M95.396 536.42h0-.013" style="fill:none;stroke:red;stroke-width:.999997;stroke-linecap:round;stroke-linejoin:round;stroke-miterlimit:4;stroke-dasharray:none;stroke-opacity:1;visibility:visible"/><path d="m110.556 633.114-1.707.307M96.97 545.66l-1.64.24M113.45 643.673l-2.653.188M110.37 643.301l.027.145.065.147.068.123.08.077.093.055.092.013M110.37 643.301l-1.521-9.88" style="fill:none;stroke:red;stroke-width:1.99999;stroke-linecap:round;stroke-linejoin:round;stroke-miterlimit:4;stroke-dasharray:none;stroke-opacity:1;visibility:visible"/><path d="M113.45 643.673h.013l.015-.013" style="fill:none;stroke:red;stroke-width:.999997;stroke-linecap:round;stroke-linejoin:round;stroke-miterlimit:4;stroke-dasharray:none;stroke-opacity:1;visibility:visible"/><path d="m97.357 634.741.187.185.185.135.201.107.186.065.201.027.185-.014M84.81 547.42l-.188.055-.173.078-.16.132-.146.162-.134.201-.119.225M83.663 548.78l-.08.213-.067.24-.04.255-.026.265-.014.282.027.292.027.28 12.706 81.933M96.197 632.54l.053.307.08.294.094.279.12.265.132.255.148.215.16.185" style="fill:none;stroke:red;stroke-width:1.99999;stroke-linecap:round;stroke-linejoin:round;stroke-miterlimit:4;stroke-dasharray:none;stroke-opacity:1;visibility:visible"/><path d="M245.65 508.647v-.013h.013" style="fill:none;stroke:red;stroke-width:.999997;stroke-linecap:round;stroke-linejoin:round;stroke-miterlimit:4;stroke-dasharray:none;stroke-opacity:1;visibility:visible"/><path d="m269.063 608.246.015.136v.132l-.028.12-.054.093-.066.066-.08.029M277.09 594.887l-.081.281-.092.252-.134.227-.133.188-.173.145-.174.12-.2.068M259.342 514.607l.213-.028.214.013.213.055.227.107.214.133.199.188.2.213M261.09 515.593l.145.2.148.215.12.238.094.256.093.252.067.266 15.4 76.226M277.156 593.246l.053.268.014.253v.252l-.014.24-.04.23M108.849 633.42l-10.347 1.825M84.81 547.42l10.52-1.521M267.103 598.567l9-2.399M250.477 516.686l8.865-2.08M277.17 594.489l-.08.399M261.09 515.593l-.267-.305M96.983 634.34l.373.401" style="fill:none;stroke:red;stroke-width:1.99999;stroke-linecap:round;stroke-linejoin:round;stroke-miterlimit:4;stroke-dasharray:none;stroke-opacity:1;visibility:visible"/><path d="m83.663 548.78.227-.507" style="fill:none;stroke:red;stroke-width:.999997;stroke-linecap:round;stroke-linejoin:round;stroke-miterlimit:4;stroke-dasharray:none;stroke-opacity:1;visibility:visible"/><path d="m113.477 643.66 4.213-.932M125.917 640.686l-.493.136-.507.132-.533.147-.548.145-.572.148-.588.147-.614.161-.638.145-.642.159-.666.161-.679.159-.573.133-.575.134-.599.134M267.103 598.567l-16.627-81.88M269.063 608.246l-1.96-9.68M250.477 516.686l-1.587-7.787M255.116 611.715l-2.227.427-2.226.425-2.214.427-2.226.426-2.199.428-2.201.426-2.2.441-2.187.427-2.185.425-2.174.427-2.16.44-2.16.426-2.148.428-2.132.44-2.134.427-2.12.424-2.107.441-2.107.427-2.08.44-2.093.427-2.067.428-2.066.44-2.054.425-2.04.428-2.025.44-2.015.425-2.013.427-1.987.44-1.985.427-1.975.428-1.96.426-1.946.427-1.933.425-1.92.427-1.92.427-1.894.428-1.88.425-1.866.428-1.854.425-1.84.414-1.826.426-1.8.428-1.8.414-1.787.412-1.76.426-1.747.415-1.732.413-1.721.412-1.707.414-1.68.414-1.666.399-1.654.413-1.626.414-1.627.4-1.587.4-1.586.4-1.56.4-1.547.4-1.533.4-1.506.388-1.481.398-1.465.388-1.454.386-1.428.388-1.413.385-1.227.333-1.213.347-1.2.333-1.185.334-1.16.333M265.077 609.673l3.772-.852M265.077 609.673l-.653.148-.667.147-.68.145-.707.145-.708.163-.732.145-.733.148-.748.159-.759.147-.76.161-.773.145-.667.134-.68.132-.694.122M248.45 508.382l-2.787.252M95.396 536.42l.827-.161.786-.146.774-.146.733-.146.72-.149.681-.132.667-.133.613-.134.599-.132.561-.122M236.236 510.274l-2.907.468-2.893.479-2.88.466-2.88.482-2.865.466-2.855.466-2.84.478-2.827.47-2.826.478-2.8.467-2.787.481-2.785.466-2.762.48-2.745.466-2.735.482-2.72.466-2.693.467-2.692.479-2.667.465-2.653.47-2.628.466-2.613.465-2.599.467-2.575.465-2.56.47-2.531.453-2.507.467-2.493.465-2.482.453-2.452.454-2.428.453-2.4.452-2.373.456-2.359.453-2.333.452-2.308.442-2.28.44-2.252.437-2.227.443-2.201.44-2.172.437-2.148.428-2.12.427-2.093.426-2.054.428-2.026.427-2 .412-1.974.413-1.932.415-1.908.413-1.88.399-1.84.401-1.812.399-1.773.401-1.733.386M95.33 545.9l-1.32-8.612M94.236 536.634l-.08.027-.065.08-.054.106-.028.134-.013.145.013.161M248.45 508.382l.093.013.095.052.079.08.08.107.053.12.04.147M244.622 508.835l1.028-.188M236.223 510.274l.733-.119.72-.12.707-.109.707-.117.706-.122.68-.12.68-.12.667-.106.653-.12.64-.12.507-.094.507-.081.493-.09" style="fill:none;stroke:red;stroke-width:1.99999;stroke-linecap:round;stroke-linejoin:round;stroke-miterlimit:4;stroke-dasharray:none;stroke-opacity:1;visibility:visible"/><path d="m98.83 547.021 13.024 84.112M107.64 537.401l16.278 101.295M98.878 546.923l8.762-9.522M113.69 643.048l10.228-4.352" style="fill:none;stroke:red;stroke-width:.999997;stroke-linecap:round;stroke-linejoin:round;stroke-miterlimit:4;stroke-dasharray:none;stroke-opacity:1;visibility:visible"/><path d="m474.405 986.27-3.919-243.24M449.659 736.072l20.827 6.959M461.392 784.828l.267.083" style="fill:none;stroke:#00ff4a;stroke-width:.999997;stroke-linecap:round;stroke-linejoin:round;stroke-miterlimit:4;stroke-dasharray:none;stroke-opacity:1;visibility:visible" visibility="hidden"/><path d="m462.018 790.535-.265-.079-.255-.106-.267-.159-.24-.2-.238-.227-.228-.269-.2-.293-.186-.319-.148-.333-.133-.359-.105-.35-.068-.358-.039-.36-.015-.345.027-.334.067-.321.094-.295.119-.252.148-.226.173-.2.186-.146.213-.108.24-.068.241-.025.252.025" style="fill:none;stroke:#00ff4a;stroke-width:1.66666;stroke-linecap:round;stroke-linejoin:round;stroke-miterlimit:4;stroke-dasharray:none;stroke-opacity:1;visibility:visible" visibility="hidden"/><path d="m461.659 784.91.253.107.254.158.253.202.24.226.227.266.2.292.186.322.16.334.12.344.107.364.067.357.04.361.013.347-.027.347-.066.306-.094.292-.12.268-.146.227-.174.185-.188.148-.225.107-.227.065-.24.014-.253-.014M461.605 794.418l.213.065" style="fill:none;stroke:#00ff4a;stroke-width:.999997;stroke-linecap:round;stroke-linejoin:round;stroke-miterlimit:4;stroke-dasharray:none;stroke-opacity:1;visibility:visible" visibility="hidden"/><path d="m462.339 798.71-.227-.013-.213-.066-.227-.096-.213-.142-.212-.176-.188-.212-.187-.24-.16-.27-.132-.293-.106-.292-.082-.307-.053-.305-.027-.307.014-.281.041-.279.065-.24.107-.226.133-.187.147-.159.173-.109.187-.079.213-.026.214.013" style="fill:none;stroke:#00ff4a;stroke-width:1.66666;stroke-linecap:round;stroke-linejoin:round;stroke-miterlimit:4;stroke-dasharray:none;stroke-opacity:1;visibility:visible" visibility="hidden"/><path d="m461.82 794.483.227.093.213.15.213.172.2.213.174.239.16.269.146.29.107.293.08.308.053.306.027.307-.015.281-.038.279-.08.24-.095.227-.132.188-.16.157-.173.108-.187.08-.2.027" style="fill:none;stroke:#00ff4a;stroke-width:.999997;stroke-linecap:round;stroke-linejoin:round;stroke-miterlimit:4;stroke-dasharray:none;stroke-opacity:1;visibility:visible" visibility="hidden"/><path d="m461.486 763.059-.213-.055-.227-.093-.213-.147-.214-.174-.2-.214-.186-.238-.162-.27-.132-.278-.106-.304-.08-.308-.054-.307-.026-.307.012-.292.041-.268.065-.254.108-.226.134-.2.146-.158.172-.123.202-.079.2-.025.212.013.226.052" style="fill:none;stroke:#00ff4a;stroke-width:1.66666;stroke-linecap:round;stroke-linejoin:round;stroke-miterlimit:4;stroke-dasharray:none;stroke-opacity:1;visibility:visible" visibility="hidden"/><path d="m461.191 758.804.228.093.212.147.213.173.202.215.173.239.16.266.145.28.107.308.081.304.054.308.025.307-.013.295-.04.278-.079.254-.095.225-.132.188-.16.159-.173.122-.187.079-.213.028-.213-.013M319.954 740.168l.235.024.244.075" style="fill:none;stroke:#00ff4a;stroke-width:.999997;stroke-linecap:round;stroke-linejoin:round;stroke-miterlimit:4;stroke-dasharray:none;stroke-opacity:1;visibility:visible" visibility="hidden"/><path d="m320.286 745.29-.247-.145-.221-.186-.221-.208-.211-.248-.183-.27-.172-.298-.137-.306-.123-.331-.098-.323-.063-.33-.036-.334-.013-.321.026-.307.06-.297.088-.27.11-.235.136-.208.161-.186.172-.134.197-.099.222-.063.221-.024M320.434 740.267l.236.099.233.146.234.184.221.211.21.245.185.271.172.297.148.307.11.321.1.334.06.333.038.33.012.32-.024.32-.063.285-.085.27-.11.248-.137.207-.16.173-.173.135-.21.1-.208.061-.221.014-.235-.014-.246-.074-.234-.099M319.314 749.483l.197.06M319.375 753.288l-.196-.136-.197-.161-.174-.195-.172-.221-.148-.248-.122-.271-.099-.27-.075-.285-.049-.282-.024-.283.012-.26.037-.257.063-.222.099-.209.122-.173.135-.147.16-.101.172-.074.197-.022.198.012M319.512 749.543l.208.085.199.139.196.159.184.196.16.221.148.25.136.267.098.271.075.281.048.284.024.284-.012.26-.037.259-.072.221-.088.208-.124.175-.147.145-.16.1-.172.075-.185.024-.21-.013-.196-.06-.21-.086M321.973 720.085l-.197-.136-.199-.161-.183-.198-.173-.221-.148-.245-.124-.26-.097-.282-.074-.284-.05-.284-.024-.284.012-.268.037-.246.061-.235.099-.21.124-.183.133-.148.163-.112.184-.074.185-.024.195.014.21.046M322.318 716.377l.196.136.197.161.186.198.16.221.148.245.134.26.098.284.076.28.049.286.023.284-.012.27-.038.258-.073.232-.085.21-.123.172-.148.148-.16.112-.172.074-.197.026-.198-.013-.198-.05-.208-.086M322.107 716.29l.21.085M470.486 743.03l9.493-3.252M481.246 933.883l.027-.015M323.646 902.285l-.053.612-.082.573-.106.572-.132.548-.148.52-.174.492-.198.47-.214.437-.241.427-.265.376-.28.358-.295.32-.319.295-.333.25-.36.217-.36.184-.373.161M338.552 697.869l-.747 10.203M333.499 767.15l-9.853 135.136M297.766 491.47l40.787 206.398M285.631 492.535l12.135-1.065" style="fill:none;stroke:#00ff4a;stroke-width:.999997;stroke-linecap:round;stroke-linejoin:round;stroke-miterlimit:4;stroke-dasharray:none;stroke-opacity:1;visibility:visible" visibility="hidden"/><path d="m311.352 589.457-.187.107-.2.068-.226.013-.212-.013-.228-.068-.227-.12-.227-.146-.213-.188-.199-.213-.186-.252-.175-.281-.159-.306-.134-.32-.107-.346-.079-.334-14.921-75.267" style="fill:none;stroke:#00ff4a;stroke-width:1.99999;stroke-linecap:round;stroke-linejoin:round;stroke-miterlimit:4;stroke-dasharray:none;stroke-opacity:1;visibility:visible" visibility="hidden"/><path d="m312.018 586.725.053.347.04.346-.012.334-.028.32-.053.304-.092.281-.107.253-.134.214-.159.186-.175.147M294.725 508.79l.213-.039.227.012.227.054.226.106.214.148.213.172.213.214.187.252.173.281.16.308.12.32.12.333.08.36 14.92 75.413" style="fill:none;stroke:#00ff4a;stroke-width:.999997;stroke-linecap:round;stroke-linejoin:round;stroke-miterlimit:4;stroke-dasharray:none;stroke-opacity:1;visibility:visible" visibility="hidden"/><path d="m293.672 511.79-.053-.347-.027-.346v-.346l.027-.333.066-.308.08-.293.107-.254.133-.24.147-.186.173-.159.202-.12.198-.068" style="fill:none;stroke:#00ff4a;stroke-width:1.99999;stroke-linecap:round;stroke-linejoin:round;stroke-miterlimit:4;stroke-dasharray:none;stroke-opacity:1;visibility:visible" visibility="hidden"/><path d="m338.552 697.869 9.32-2.852M297.766 491.431l9.6-2.161M297.766 491.47v-.039" style="fill:none;stroke:#00ff4a;stroke-width:.999997;stroke-linecap:round;stroke-linejoin:round;stroke-miterlimit:4;stroke-dasharray:none;stroke-opacity:1;visibility:visible" visibility="hidden"/><path d="m287.005 491.162 7.84-1.756" style="fill:none;stroke:#00ff4a;stroke-width:1.99999;stroke-linecap:round;stroke-linejoin:round;stroke-miterlimit:4;stroke-dasharray:none;stroke-opacity:1;visibility:visible" visibility="hidden"/><path d="m305.779 488.431-.08.013h-.093M294.845 489.405h.015" style="fill:none;stroke:#00ff4a;stroke-width:.999997;stroke-linecap:round;stroke-linejoin:round;stroke-miterlimit:4;stroke-dasharray:none;stroke-opacity:1;visibility:visible" visibility="hidden"/><path d="M287.005 491.162h-.067l-.053.015" style="fill:none;stroke:#00ff4a;stroke-width:1.99999;stroke-linecap:round;stroke-linejoin:round;stroke-miterlimit:4;stroke-dasharray:none;stroke-opacity:1;visibility:visible" visibility="hidden"/><path d="m449.832 744.697-.16.041M449.672 744.739l-124.985-36.612M481.005 910.51l2.933-1.185M481.352 933.897l-.347-23.388M452.872 900.03l-124.48-46.399M485.525 907.804l-.027.175-.053.184-.107.188-.132.174-.188.172-.212.162-.266.158-.28.159-.32.15" style="fill:none;stroke:#00ff4a;stroke-width:.999997;stroke-linecap:round;stroke-linejoin:round;stroke-miterlimit:4;stroke-dasharray:none;stroke-opacity:1;visibility:visible" visibility="hidden"/><path d="m479.98 739.778 2.459 169.546M483.212 982.515l-9.093 3.599M464.065 981.57l10.053 4.544M482.779 933.298l.72 49.372M454.14 964.257l-3.121-159.185M449.832 744.697l-.173-8.625M464.352 981.725l-.56-.281-.56-.307-.56-.36-.547-.385-.545-.427-.547-.47-.521-.491-.52-.522-.505-.56-.482-.585-.48-.612-.453-.64-.425-.667-.428-.68-.387-.696-.373-.718-.347-.735-.32-.747-.293-.745-.267-.773-.24-.76-.213-.774-.186-.76-.148-.774-.132-.762-.081-.756-.067-.748-.025-.734M449.659 736.072l.013-.175.067-.172.107-.176.133-.144.173-.136.2-.118.24-.092M479.033 738.778l.24.09.2.11.173.133.134.159.106.161.066.172.028.175M450.592 735.059l8.493-2.867M459.099 732.192l19.933 6.585M305.779 904.244l9.88 4.495M347.872 695.017l-40.507-205.705M332.552 899.244l1.64-21.907M336.112 851.684l6.135-81.693M346.7 710.67l1.173-15.653M328.58 906.043l.385-.145.374-.188.346-.227.334-.252.32-.295.293-.317.295-.35.252-.386.241-.413.227-.44.198-.48.174-.491.16-.524.12-.53.106-.574.082-.573.065-.615M305.779 904.244l14.12-206.027M319.712 909.098l-.415.119-.425.081-.44.027h-.44l-.453-.039-.467-.084-.467-.104-.466-.161-.48-.199M319.26 686.843l.187 1.175.16 1.158.132 1.162.106 1.157.082 1.15.053 1.133.013 1.133v1.107l-.028 1.106-.066 1.092M319.26 686.843l-33.628-194.306" style="fill:none;stroke:#00ff4a;stroke-width:1.99999;stroke-linecap:round;stroke-linejoin:round;stroke-miterlimit:4;stroke-dasharray:none;stroke-opacity:1;visibility:visible" visibility="hidden"/><path d="M307.366 489.27v.041" style="fill:none;stroke:#00ff4a;stroke-width:.999997;stroke-linecap:round;stroke-linejoin:round;stroke-miterlimit:4;stroke-dasharray:none;stroke-opacity:1;visibility:visible" visibility="hidden"/><path d="m307.366 489.27-.068-.172-.092-.161-.135-.146-.158-.12-.2-.106-.214-.07-.226-.05-.255-.027-.239.013" style="fill:none;stroke:#00ff4a;stroke-width:1.99999;stroke-linecap:round;stroke-linejoin:round;stroke-miterlimit:4;stroke-dasharray:none;stroke-opacity:1;visibility:visible" visibility="hidden"/><path d="M294.86 489.405h0" style="fill:none;stroke:#00ff4a;stroke-width:.999997;stroke-linecap:round;stroke-linejoin:round;stroke-miterlimit:4;stroke-dasharray:none;stroke-opacity:1;visibility:visible" visibility="hidden"/><path d="m286.885 491.176-.253.081-.24.094-.214.132-.173.149-.16.159-.107.174-.08.184-.026.188v.199M319.712 909.098l8.867-3.055M305.779 488.431l-10.919.973M286.885 491.176l7.973-1.77M321.473 763.34l129.545 42.024M330.832 706.246l118.92 34.57M330.832 706.246l-6.145 1.88M324.686 708.127l-3.787 54.68.574.533" style="fill:none;stroke:#00ff4a;stroke-width:1.99999;stroke-linecap:round;stroke-linejoin:round;stroke-miterlimit:4;stroke-dasharray:none;stroke-opacity:1;visibility:visible" visibility="hidden"/><path d="m328.392 853.632 1.053-.375 5.507-2M328.392 853.632l-1.133 15.505-.387 5.388" style="fill:none;stroke:#00ff4a;stroke-width:.999997;stroke-linecap:round;stroke-linejoin:round;stroke-miterlimit:4;stroke-dasharray:none;stroke-opacity:1;visibility:visible" visibility="hidden"/><path d="m483.443 933.029.83-.345" style="fill:none;stroke:#00ff4a;stroke-width:1.99999;stroke-linecap:round;stroke-linejoin:round;stroke-miterlimit:4;stroke-dasharray:none;stroke-opacity:1;visibility:visible" visibility="hidden"/><path d="m481.352 933.897 2.09-.868" style="fill:none;stroke:#00ff4a;stroke-width:.999997;stroke-linecap:round;stroke-linejoin:round;stroke-miterlimit:4;stroke-dasharray:none;stroke-opacity:1;visibility:visible" visibility="hidden"/><path d="m326.872 874.525 126.453 48.599" style="fill:none;stroke:#00ff4a;stroke-width:1.99999;stroke-linecap:round;stroke-linejoin:round;stroke-miterlimit:4;stroke-dasharray:none;stroke-opacity:1;visibility:visible" visibility="hidden"/><path d="m481.272 933.869.08.028" style="fill:none;stroke:#00ff4a;stroke-width:.999997;stroke-linecap:round;stroke-linejoin:round;stroke-miterlimit:4;stroke-dasharray:none;stroke-opacity:1;visibility:visible" visibility="hidden"/><path d="m484.272 932.684.32-.148.28-.159.267-.161.213-.172.172-.175.148-.185.107-.19.053-.182.013-.188M484.033 906.431l-1.653-.615M452.779 894.858l-117.826-43.601M484.033 906.431l.305.119.268.133.227.133.213.162.16.146.132.162.108.172.054.173.025.172M485.845 931.124l-.32-23.32" style="fill:none;stroke:#00ff4a;stroke-width:1.99999;stroke-linecap:round;stroke-linejoin:round;stroke-miterlimit:4;stroke-dasharray:none;stroke-opacity:1;visibility:visible" visibility="hidden"/><path d="M449.832 744.697h0M451.018 805.072h0" style="fill:none;stroke:#00ff4a;stroke-width:.999997;stroke-linecap:round;stroke-linejoin:round;stroke-miterlimit:4;stroke-dasharray:none;stroke-opacity:1;visibility:visible" visibility="hidden"/><path d="m449.832 744.697 1.187 60.375" style="fill:none;stroke:#00ff4a;stroke-width:1.99999;stroke-linecap:round;stroke-linejoin:round;stroke-miterlimit:4;stroke-dasharray:none;stroke-opacity:1;visibility:visible" visibility="hidden"/><path d="m324.686 708.127 13.12-.055" style="fill:none;stroke:#00ff4a;stroke-width:.999997;stroke-linecap:round;stroke-linejoin:round;stroke-miterlimit:4;stroke-dasharray:none;stroke-opacity:1;visibility:visible" visibility="hidden"/><path d="m481.005 910.51 1.434-1.186M326.872 874.525l7.32 2.812M328.392 853.632l7.72-1.948M338.552 697.869l8.148 12.801M449.659 736.072l.093 4.745" style="fill:none;stroke:#00ff4a;stroke-width:1.99999;stroke-linecap:round;stroke-linejoin:round;stroke-miterlimit:4;stroke-dasharray:none;stroke-opacity:1;visibility:visible" visibility="hidden"/></svg>