<svg xmlns="http://www.w3.org/2000/svg" baseProfile="full" height="1122.52" preserveAspectRatio="xMinYMin meet" style="width:732px;height:841px" width="793.701" xml:space="preserve"><path d="M345.287 277.265 336.27 513.71M345.287 277.266l.033-1.19v-1.186l-.02-1.188-.044-1.177-.076-1.155-.109-1.159-.13-1.14-.151-1.126-.183-1.112-.204-1.09M319.045 72.572l-12.311 7.085 37.67 186.084M448.018 230.405l-85.59 38.685" style="fill:none;stroke:red;stroke-width:.999997;stroke-linecap:round;stroke-linejoin:round;stroke-miterlimit:4;stroke-dasharray:none;stroke-opacity:1;visibility:visible" visibility="hidden"/><path d="m347.32 329.743.201.13.229.086.226.043h.226l.24-.032.248-.087" style="fill:none;stroke:red;stroke-width:1.66666;stroke-linecap:round;stroke-linejoin:round;stroke-miterlimit:4;stroke-dasharray:none;stroke-opacity:1;visibility:visible" visibility="hidden"/><path d="m349.64 323.414-.204-.14-.216-.087-.226-.044-.238-.01-.24.044-.236.076-.237.127-.227.163-.226.207-.207.236-.193.27-.186.294-.16.323-.141.344-.12.368-.095.377-.078.379-.042.389-.012.39.012.376.032.367.066.347.086.323.108.314.14.27.15.249.173.203.197.174" style="fill:none;stroke:red;stroke-width:.999997;stroke-linecap:round;stroke-linejoin:round;stroke-miterlimit:4;stroke-dasharray:none;stroke-opacity:1;visibility:visible" visibility="hidden"/><path d="m348.474 294.482.194.183.206.128.216.101.226.052.238.01.238-.03.236-.077M348.691 329.883l.227-.12.237-.172.216-.194.215-.238.194-.269.174-.304.161-.324.141-.345.12-.367.096-.368.075-.388.044-.379.012-.389-.012-.377-.033-.359-.064-.353-.088-.324-.107-.303-.129-.281-.164-.239-.171-.215-.195-.162" style="fill:none;stroke:red;stroke-width:1.66666;stroke-linecap:round;stroke-linejoin:round;stroke-miterlimit:4;stroke-dasharray:none;stroke-opacity:1;visibility:visible" visibility="hidden"/><path d="m351.186 288.54-.196-.181-.204-.131-.216-.098-.227-.053-.237-.01-.239.03-.237.077-.238.108-.225.161-.23.197-.213.235-.196.26-.185.302-.161.325-.139.345-.12.355-.099.381-.064.377-.042.39-.022.389.011.375.033.368.066.356.084.335.12.302.13.282.162.248.172.217" style="fill:none;stroke:red;stroke-width:.999997;stroke-linecap:round;stroke-linejoin:round;stroke-miterlimit:4;stroke-dasharray:none;stroke-opacity:1;visibility:visible" visibility="hidden"/><path d="m350.028 294.849.24-.119.225-.163.227-.194.207-.236.203-.262.176-.302.16-.313.141-.345.119-.368.096-.366.074-.391.046-.376.01-.388-.011-.379-.033-.366-.065-.356-.087-.336-.106-.302-.13-.28-.163-.25-.171-.216" style="fill:none;stroke:red;stroke-width:1.66666;stroke-linecap:round;stroke-linejoin:round;stroke-miterlimit:4;stroke-dasharray:none;stroke-opacity:1;visibility:visible" visibility="hidden"/><path d="m310.103 110.73.054-.312.012-.314-.023-.336-.056-.335-.096-.343-.13-.335-.159-.325-.197-.313-.214-.302-.24-.271-.257-.237-.27-.217-.282-.171-.291-.131-.292-.098-.29-.053M296.754 79.021l9.979.639M316.162 92.587l-.195.216-.172.257-.152.293-.13.314-.106.333-.077.347-.053.365-.023.37.01.365.035.358.061.346M315.36 96.15l16.483 71.375M331.842 167.528l.085.302.11.28.13.26.15.216.162.194.183.15.195.12.204.076.218.031.214-.01.207-.042.215-.099" style="fill:none;stroke:red;stroke-width:.999997;stroke-linecap:round;stroke-linejoin:round;stroke-miterlimit:4;stroke-dasharray:none;stroke-opacity:1;visibility:visible" visibility="hidden"/><path d="m305.673 107.663-.086.29-.054.303-.01.313.02.334.067.336.096.346.119.335.162.324.194.312.217.292.237.27.259.25.27.202.281.177.291.138.292.098.291.053.282.01.269-.032.248-.074.239-.108.205-.152.184-.195.15-.225.121-.251.086-.279" style="fill:none;stroke:red;stroke-width:1.66666;stroke-linecap:round;stroke-linejoin:round;stroke-miterlimit:4;stroke-dasharray:none;stroke-opacity:1;visibility:visible" visibility="hidden"/><path d="m320.59 161.792.01-.31-.021-.327-.056-.323-.085-.335-.13-.335-.161-.324-.184-.302-.216-.292-.237-.27-.25-.238-.281-.204-.279-.184-.282-.142-.292-.096-.28-.053M307.371 106.637l-.281-.012-.27.035-.25.064-.237.119-.206.15-.184.195-.15.227-.12.249" style="fill:none;stroke:red;stroke-width:.999997;stroke-linecap:round;stroke-linejoin:round;stroke-miterlimit:4;stroke-dasharray:none;stroke-opacity:1;visibility:visible" visibility="hidden"/><path d="m316.15 159.016-.085.27-.045.292-.021.314.022.322.065.324.087.335.127.335.163.312.184.316.216.29.227.259.259.249.271.206.279.172.292.14.282.097.29.065.282.022.258-.032.26-.066.227-.096.204-.152.184-.17.152-.22.12-.249.084-.266.056-.295" style="fill:none;stroke:red;stroke-width:1.66666;stroke-linecap:round;stroke-linejoin:round;stroke-miterlimit:4;stroke-dasharray:none;stroke-opacity:1;visibility:visible" visibility="hidden"/><path d="m317.846 158.056-.283-.023-.27.023-.246.074-.238.098-.206.15-.183.184-.15.206-.121.248" style="fill:none;stroke:red;stroke-width:.999997;stroke-linecap:round;stroke-linejoin:round;stroke-miterlimit:4;stroke-dasharray:none;stroke-opacity:1;visibility:visible" visibility="hidden"/><path d="M317.846 71.775h-.206l-.205.01-.217.035" style="fill:none;stroke:red;stroke-width:1.66666;stroke-linecap:round;stroke-linejoin:round;stroke-miterlimit:4;stroke-dasharray:none;stroke-opacity:1;visibility:visible" visibility="hidden"/><path d="m450.266 222.378 6.89 151.115M450.266 222.378l14.32-5.452M309.023 71.245l.022.011.02.032.02.043" style="fill:none;stroke:red;stroke-width:.999997;stroke-linecap:round;stroke-linejoin:round;stroke-miterlimit:4;stroke-dasharray:none;stroke-opacity:1;visibility:visible" visibility="hidden"/><path d="m457.619 240.038.13.206.151.173.162.128.172.099.185.064.184.022.193-.022.184-.055" style="fill:none;stroke:red;stroke-width:1.66666;stroke-linecap:round;stroke-linejoin:round;stroke-miterlimit:4;stroke-dasharray:none;stroke-opacity:1;visibility:visible" visibility="hidden"/><path d="m459.963 235.437-.153-.173-.16-.14-.17-.096-.173-.055-.199-.033-.181.022-.197.054-.191.097-.185.13-.172.163-.175.204-.161.227-.14.26-.128.28-.11.303-.096.313-.076.324-.044.336-.032.333-.012.334.023.336.032.313.055.303.085.28.099.261.117.225" style="fill:none;stroke:red;stroke-width:.999997;stroke-linecap:round;stroke-linejoin:round;stroke-miterlimit:4;stroke-dasharray:none;stroke-opacity:1;visibility:visible" visibility="hidden"/><path d="m458.98 240.652.194-.096.184-.13.172-.162.174-.204.162-.228.14-.26.131-.28.106-.292.097-.323.064-.325.056-.335.03-.335.01-.334-.018-.323-.032-.315-.055-.3-.09-.282-.095-.26-.118-.238-.13-.194" style="fill:none;stroke:red;stroke-width:1.66666;stroke-linecap:round;stroke-linejoin:round;stroke-miterlimit:4;stroke-dasharray:none;stroke-opacity:1;visibility:visible" visibility="hidden"/><path d="m325.825 248.533-.106.053-.101.07-.095.091-.093.111-.09.123-.074.143-.072.153-.061.167-.053.17-.04.178-.023.184-.02.18-.005.184.013.182.017.172.03.167.048.153.051.142.066.124.07.112.084.094.089.07.093.054.1.035.1.012.107-.012.102-.03" style="fill:none;stroke:red;stroke-width:.999997;stroke-linecap:round;stroke-linejoin:round;stroke-miterlimit:4;stroke-dasharray:none;stroke-opacity:1;visibility:visible" visibility="hidden"/><path d="m325.96 251.616.107-.052.1-.071.094-.09.094-.11.09-.125.077-.142.071-.154.057-.16.055-.175.035-.177.029-.184.018-.184.006-.183-.014-.176-.016-.173-.032-.163-.046-.155-.051-.141-.067-.131-.07-.106-.083-.095-.088-.077-.096-.052-.09-.028-.11-.02-.098.013-.109.028" style="fill:none;stroke:red;stroke-width:1.66666;stroke-linecap:round;stroke-linejoin:round;stroke-miterlimit:4;stroke-dasharray:none;stroke-opacity:1;visibility:visible" visibility="hidden"/><path d="m324.586 219.372-.101.072-.095.088-.093.112-.09.122-.076.144-.07.152-.061.168-.053.169-.04.179-.024.182-.018.182-.007.183.012.183.02.172.03.166.045.154.053.14.065.126.07.111.086.095.087.07.093.054.101.034.101.012.105-.012M324.727 222.43l.103-.03" style="fill:none;stroke:red;stroke-width:.999997;stroke-linecap:round;stroke-linejoin:round;stroke-miterlimit:4;stroke-dasharray:none;stroke-opacity:1;visibility:visible" visibility="hidden"/><path d="m324.83 222.4.105-.05.102-.071.093-.091.095-.112.09-.123.075-.141.072-.155.058-.159.054-.177.036-.176.028-.185.019-.183.005-.183-.013-.176-.016-.172-.033-.164-.046-.154-.05-.142-.068-.13-.07-.107-.083-.095-.088-.077-.094-.052-.092-.03-.11-.017-.098.012-.108.028-.106.055" style="fill:none;stroke:red;stroke-width:1.66666;stroke-linecap:round;stroke-linejoin:round;stroke-miterlimit:4;stroke-dasharray:none;stroke-opacity:1;visibility:visible" visibility="hidden"/><path d="m325.747 237.402-.157.044-.157.079-.15.105-.138.13-.142.169-.13.183-.114.208-.102.229-.092.244-.076.255-.062.262-.036.272-.026.27-.01.27.02.272.026.256.044.244.07.227.079.209.095.185.104.165.124.14.132.107.138.077.148.053.15.017.158-.017.149-.045" style="fill:none;stroke:red;stroke-width:.999997;stroke-linecap:round;stroke-linejoin:round;stroke-miterlimit:4;stroke-dasharray:none;stroke-opacity:1;visibility:visible" visibility="hidden"/><path d="m459.292 271.64.164.126.17.089.174.055.195.02.183-.02.192-.067M325.791 242.012l.159-.078.147-.104.138-.132.142-.166.133-.184.112-.21.105-.228.088-.234.078-.263.053-.263.043-.272.028-.272.008-.27-.02-.262-.025-.256-.046-.242-.07-.228-.074-.21-.1-.193-.103-.156-.124-.143-.13-.113-.14-.077-.138-.043-.161-.028-.147.017" style="fill:none;stroke:red;stroke-width:1.66666;stroke-linecap:round;stroke-linejoin:round;stroke-miterlimit:4;stroke-dasharray:none;stroke-opacity:1;visibility:visible" visibility="hidden"/><path d="m461.195 266.477-.161-.13-.164-.097-.183-.053-.185-.023-.195.023-.183.063-.194.098-.183.142-.172.16-.175.206-.16.227-.141.257-.13.283-.108.301-.095.313-.066.336-.054.323-.032.336v.333l.01.326.032.309.066.305.074.28.099.25.117.225.13.207.153.162" style="fill:none;stroke:red;stroke-width:.999997;stroke-linecap:round;stroke-linejoin:round;stroke-miterlimit:4;stroke-dasharray:none;stroke-opacity:1;visibility:visible" visibility="hidden"/><path d="m460.372 271.842.188-.096.182-.14.182-.163.162-.205.16-.237.143-.261.129-.281.109-.289.087-.315.074-.334.056-.323.03-.336v-.335l-.009-.324-.034-.312-.063-.301-.078-.271-.096-.261-.12-.227-.128-.193-.151-.163" style="fill:none;stroke:red;stroke-width:1.66666;stroke-linecap:round;stroke-linejoin:round;stroke-miterlimit:4;stroke-dasharray:none;stroke-opacity:1;visibility:visible" visibility="hidden"/><path d="M455.632 373.246v.107M441.072 221.29l9.194 1.088M455.632 373.246l.14.03M459.54 426.024l.044.648.066.638.085.616.1.593.127.584.152.56.164.53.18.51.206.484.229.453.234.422.26.388.281.357.282.324.312.292.312.257.326.22.346.181.344.151.357.098M458.278 398.302l1.262 27.722" style="fill:none;stroke:red;stroke-width:.999997;stroke-linecap:round;stroke-linejoin:round;stroke-miterlimit:4;stroke-dasharray:none;stroke-opacity:1;visibility:visible" visibility="hidden"/><path d="m463.14 216.062.203-.01.185.02M455.676 215.2l-.044-.034-.032-.01" style="fill:none;stroke:red;stroke-width:1.99999;stroke-linecap:round;stroke-linejoin:round;stroke-miterlimit:4;stroke-dasharray:none;stroke-opacity:1;visibility:visible" visibility="hidden"/><path d="m473.777 367.866-117.885 67.986" style="fill:none;stroke:red;stroke-width:.999997;stroke-linecap:round;stroke-linejoin:round;stroke-miterlimit:4;stroke-dasharray:none;stroke-opacity:1;visibility:visible" visibility="hidden"/><path d="m473.777 367.866.194-.117.161-.131.14-.13.108-.126.077-.132.044-.14.009-.13" style="fill:none;stroke:red;stroke-width:1.99999;stroke-linecap:round;stroke-linejoin:round;stroke-miterlimit:4;stroke-dasharray:none;stroke-opacity:1;visibility:visible" visibility="hidden"/><path d="m319.66 93.775-.106-.26-.132-.227-.15-.193-.174-.152-.184-.108-.194-.076-.193-.022-.206.01-.203.067-.198.106-.182.14-.173.196-.151.216-.128.248-.12.28-.076.291-.065.317-.031.311v.313l.021.313.055.303 16.599 71.42M166.602 69.868l.638.076.606.096.584.097.56.119.53.13.497.141.473.14.443.163.41.171.381.184M291.603 84.609l-2.906.174-2.884.16-2.884.141-2.851.13-2.84.109-2.83.085-2.796.087-2.787.054-2.766.043-2.742.033-2.711.01h-2.7l-2.677-.021-2.649-.043-2.622-.055-2.593-.064-2.58-.087-2.54-.097-2.516-.12-2.494-.14-2.464-.15-2.428-.161-2.397-.185-2.376-.195-2.344-.205-2.3-.236-2.28-.239-2.245-.257-2.215-.272-2.17-.292-2.151-.303-2.105-.312-2.074-.334-2.03-.347-2.011-.356-1.963-.379-1.922-.39-1.891-.395-1.856-.424-1.816-.43-1.77-.446-1.741-.452-1.706-.476-1.651-.475-1.621-.496-1.588-.508-1.535-.518-1.5-.54-1.468-.54-1.415-.551-1.382-.572-1.328-.583-1.298-.584-1.262-.605-1.21-.615M291.603 84.61l.83-.055.822-.032.812-.023.795-.009h3.013M166.86 75.235l15.62 72.11M158.125 89.87l.084-.239.12-.206.14-.181.175-.152.194-.11.215-.062.225-.033.24.01M159.162 64.024l-8.749-1.383M191.724 238.218l.172 1.024.15 1.038.12 1.048.096 1.068.066 1.069.032 1.092.01 1.09-.02 1.103-.054 1.102-.078 1.11M191.724 238.218 159.16 64.024M159.162 64.024l13.11-6.492M174.313 467.554l17.907-218.592M317.229 201.681l-8.271-1.675M311.83 360.503l.012 1.039-.175-.044M317.229 201.681l2.28-.745M322.998 400.562l-.368-.107-.357-.141-.344-.17-.324-.221-.315-.247-.3-.28-.295-.303-.27-.343-.245-.368-.227-.41-.216-.425-.195-.452-.173-.485-.151-.496-.13-.528-.11-.54-.084-.564-.055-.584-.042-.592-.022-.616M317.294 208.852l-.065-7.172M317.825 273.997l-.13-14.839M318.775 392.688l-.425-53.133M169.788 67.62l.086-.021.076-.011" style="fill:none;stroke:red;stroke-width:.999997;stroke-linecap:round;stroke-linejoin:round;stroke-miterlimit:4;stroke-dasharray:none;stroke-opacity:1;visibility:visible" visibility="hidden"/><path d="m333.667 167.266.075.271.108.25.12.214.15.184.164.15.171.111.195.064.193.009.197-.021.193-.066.183-.107.185-.15.171-.185.151-.226" style="fill:none;stroke:red;stroke-width:.999997;stroke-linecap:round;stroke-linejoin:round;stroke-miterlimit:4;stroke-dasharray:none;stroke-opacity:1;visibility:visible" visibility="hidden"/><path d="m161.926 93.27-.118.204-.152.183-.162.143-.194.107-.216.065-.227.032-.248-.01-.25-.056-.246-.086-.261-.128-.247-.164-.25-.204-.236-.228-.218-.248-.193-.28-.183-.292-.152-.313-.13-.315-.096-.323-.066-.324-.043-.313v-.301l.022-.282.065-.27" style="fill:none;stroke:red;stroke-width:1.66666;stroke-linecap:round;stroke-linejoin:round;stroke-miterlimit:4;stroke-dasharray:none;stroke-opacity:1;visibility:visible" visibility="hidden"/><path d="m167.272 137.745.12-.207.15-.16.172-.14.187-.098.215-.066.226-.02.238.009M159.52 88.896l.257.056.25.084.257.13.251.174.246.193.239.227.216.259.194.27.183.303.153.304.127.324.099.323.064.313.044.313v.303l-.02.29-.067.261-.085.249" style="fill:none;stroke:red;stroke-width:.999997;stroke-linecap:round;stroke-linejoin:round;stroke-miterlimit:4;stroke-dasharray:none;stroke-opacity:1;visibility:visible" visibility="hidden"/><path d="m171.096 140.876-.054.25-.085.235-.12.196-.152.17-.172.143-.195.096-.205.064-.227.024-.238-.024-.248-.053-.26-.096-.247-.13-.25-.164-.239-.203-.234-.228-.217-.248-.193-.27-.175-.29-.15-.304-.132-.314-.094-.312-.067-.314-.032-.302-.01-.292.032-.28.054-.25.086-.236" style="fill:none;stroke:red;stroke-width:1.66666;stroke-linecap:round;stroke-linejoin:round;stroke-miterlimit:4;stroke-dasharray:none;stroke-opacity:1;visibility:visible" visibility="hidden"/><path d="m168.58 137.064.248.065.257.087.25.13.246.171.251.195.225.226.217.25.194.281.185.291.15.303.121.313.095.313.066.313.043.303v.29l-.032.283" style="fill:none;stroke:red;stroke-width:.999997;stroke-linecap:round;stroke-linejoin:round;stroke-miterlimit:4;stroke-dasharray:none;stroke-opacity:1;visibility:visible" visibility="hidden"/><path d="m171.226 56.745-.216-.021h-.237l-.227.032M163.394 55.536l-.01.023.01.031v.055" style="fill:none;stroke:red;stroke-width:1.99999;stroke-linecap:round;stroke-linejoin:round;stroke-miterlimit:4;stroke-dasharray:none;stroke-opacity:1;visibility:visible" visibility="hidden"/><path d="m317.426 208.873-108.232 41.564M311.527 341.994 197.48 396.522M169.993 137.961l.056.01.055.012M160.964 89.857l.086.01.088.033" style="fill:none;stroke:red;stroke-width:.999997;stroke-linecap:round;stroke-linejoin:round;stroke-miterlimit:4;stroke-dasharray:none;stroke-opacity:1;visibility:visible" visibility="hidden"/><path d="m336.27 513.708-9.46-2.722M336.271 513.708l9.85-5.626M441.43 228.87l-.107-.022-78.701 35.274M449.843 283.52l-89.725 44.505" style="fill:none;stroke:red;stroke-width:1.99999;stroke-linecap:round;stroke-linejoin:round;stroke-miterlimit:4;stroke-dasharray:none;stroke-opacity:1;visibility:visible" visibility="hidden"/><path d="M362.643 263.42 319.045 72.574" style="fill:none;stroke:red;stroke-width:1.66666;stroke-linecap:round;stroke-linejoin:round;stroke-miterlimit:4;stroke-dasharray:none;stroke-opacity:1;visibility:visible" visibility="hidden"/><path d="M334.726 264.393 296.754 79.02M334.726 264.393l.216 1.09.17 1.102.164 1.122.13 1.135.097 1.155.077 1.156.054 1.166.02 1.178v1.188l-.032 1.188M326.81 510.987l8.812-235.114M346.12 508.082l.451-.28.456-.315.443-.345.432-.387.432-.423.422-.444.411-.485.397-.508.378-.539.378-.562.356-.594.336-.605.324-.637.304-.66.29-.668.268-.682.252-.701.224-.703.206-.722.172-.724.163-.734.141-.736.107-.733.097-.733.066-.724.03-.735 8.987-229.284" style="fill:none;stroke:red;stroke-width:1.99999;stroke-linecap:round;stroke-linejoin:round;stroke-miterlimit:4;stroke-dasharray:none;stroke-opacity:1;visibility:visible" visibility="hidden"/><path d="m319.033 72.531-.063-.172-.11-.163-.15-.13-.173-.117-.207-.086-.236-.055-.248-.033M319.033 72.53l.012.024v.019" style="fill:none;stroke:red;stroke-width:1.66666;stroke-linecap:round;stroke-linejoin:round;stroke-miterlimit:4;stroke-dasharray:none;stroke-opacity:1;visibility:visible" visibility="hidden"/><path d="m297.487 77.833-.216.13-.171.162-.15.17-.11.178-.065.18-.032.197.01.171" style="fill:none;stroke:red;stroke-width:1.99999;stroke-linecap:round;stroke-linejoin:round;stroke-miterlimit:4;stroke-dasharray:none;stroke-opacity:1;visibility:visible" visibility="hidden"/><path d="M309.023 71.245h0l8.823.528" style="fill:none;stroke:red;stroke-width:1.66666;stroke-linecap:round;stroke-linejoin:round;stroke-miterlimit:4;stroke-dasharray:none;stroke-opacity:1;visibility:visible" visibility="hidden"/><path d="m297.487 77.833 11.536-6.586" style="fill:none;stroke:red;stroke-width:1.99999;stroke-linecap:round;stroke-linejoin:round;stroke-miterlimit:4;stroke-dasharray:none;stroke-opacity:1;visibility:visible" visibility="hidden"/><path d="m471.053 365.598-1.112.639" style="fill:none;stroke:red;stroke-width:.999997;stroke-linecap:round;stroke-linejoin:round;stroke-miterlimit:4;stroke-dasharray:none;stroke-opacity:1;visibility:visible" visibility="hidden"/><path d="m471.053 365.566 1.47.25M463.528 216.072l-7.926-.918M441.916 220.306l13.662-5.152M463.946 434.328l-8.943-2.158M463.528 216.072l.216.033.203.065.175.086.16.096.121.13.097.14.064.14.022.163M441.072 221.29l.01-.15.046-.142.067-.14.095-.141.129-.119.14-.118.175-.098.182-.074M455.6 215.156h-.024M455.004 432.17l-.354-.108-.356-.142-.336-.182-.336-.228-.312-.249-.314-.288-.281-.327-.279-.356-.26-.388-.24-.432-.226-.443-.203-.487-.197-.508-.16-.529-.151-.56-.13-.573-.108-.594-.087-.616-.052-.636-.044-.65M441.43 228.87l-.36-7.58M448.395 377.489l-4.265-91.142M450.578 423.874l-.962-20.422M472.124 390.071l1.727 39.895M463.946 434.328l.366.076.382.034.376-.012.378-.054.388-.085.39-.119.39-.162.387-.196M467.004 433.811l6.847-3.845M464.586 216.926l6.469 148.672" style="fill:none;stroke:red;stroke-width:1.99999;stroke-linecap:round;stroke-linejoin:round;stroke-miterlimit:4;stroke-dasharray:none;stroke-opacity:1;visibility:visible" visibility="hidden"/><path d="m475.408 387.62-.013.14-.042.14-.076.13-.109.14-.14.13-.161.128-.197.132" style="fill:none;stroke:red;stroke-width:.999997;stroke-linecap:round;stroke-linejoin:round;stroke-miterlimit:4;stroke-dasharray:none;stroke-opacity:1;visibility:visible" visibility="hidden"/><path d="m475.408 387.62-.898-20.66M455.807 373.255l-99.697 57.088M474.51 366.96l-.023-.132-.054-.128-.096-.131-.117-.116-.164-.12-.185-.108-.214-.096-.249-.099-.268-.076-.303-.076-.314-.063M354.952 459.719l119.719-71.16" style="fill:none;stroke:red;stroke-width:1.99999;stroke-linecap:round;stroke-linejoin:round;stroke-miterlimit:4;stroke-dasharray:none;stroke-opacity:1;visibility:visible" visibility="hidden"/><path d="m165.673 69.77 1.187 5.464M168.882 67.523l-2.938 1.522" style="fill:none;stroke:red;stroke-width:.999997;stroke-linecap:round;stroke-linejoin:round;stroke-miterlimit:4;stroke-dasharray:none;stroke-opacity:1;visibility:visible" visibility="hidden"/><path d="m335.924 167.765.13-.25.11-.268.084-.303.066-.3.032-.315v-.313l-.022-.304-.053-.29M319.758 94.099l-.044-.172-.054-.152M336.271 165.421 319.758 94.1M319.542 93.43l-.12-.272-.139-.249-.153-.228-.17-.181-.186-.152-.193-.119-.216-.077-.206-.03M334.24 169.04h.205l.195-.032.203-.066.197-.108.184-.14.182-.174.161-.194.153-.226" style="fill:none;stroke:red;stroke-width:1.99999;stroke-linecap:round;stroke-linejoin:round;stroke-miterlimit:4;stroke-dasharray:none;stroke-opacity:1;visibility:visible" visibility="hidden"/><path d="m168.882 67.523.076-.034h.074M165.673 69.77l-.01-.14.009-.152.033-.141.065-.117.076-.11.096-.063" style="fill:none;stroke:red;stroke-width:.999997;stroke-linecap:round;stroke-linejoin:round;stroke-miterlimit:4;stroke-dasharray:none;stroke-opacity:1;visibility:visible" visibility="hidden"/><path d="m335.924 167.765-.204.335M317.294 92.056l.864.064" style="fill:none;stroke:red;stroke-width:1.99999;stroke-linecap:round;stroke-linejoin:round;stroke-miterlimit:4;stroke-dasharray:none;stroke-opacity:1;visibility:visible" visibility="hidden"/><path d="m319.66 93.775-.117-.346" style="fill:none;stroke:red;stroke-width:.999997;stroke-linecap:round;stroke-linejoin:round;stroke-miterlimit:4;stroke-dasharray:none;stroke-opacity:1;visibility:visible" visibility="hidden"/><path d="m169.95 67.59.595.074.57.076.554.087.537.096.53.109.51.108.484.117.464.133.456.14.43.15.41.152.322.14.316.14.302.141M176.432 69.252l.926.464.95.464.986.455.994.442 1.034.443 1.05.43 1.08.435 1.112.419 1.122.41 1.156.401 1.176.398 1.212.391 1.22.388 1.252.377 1.274.367 1.296.356 1.317.358 1.35.335 1.361.345 1.394.325 1.415.324 1.446.301 1.46.313 1.479.292 1.5.28 1.536.282 1.543.268 1.577.26 1.587.261 1.62.237 1.63.237 1.664.226 1.675.216 1.705.207 1.719.205 1.739.184 1.76.182 1.77.17 1.803.165 1.815.15 1.833.143 1.85.139 1.88.119 1.888.119 1.901.097 1.933.096 1.944.087 1.956.075 1.976.065 1.988.065 2.008.043 2.019.033 2.033.033 2.05.011 2.074.01h2.073l2.095-.01 2.107-.022 2.125-.033 2.143-.042 2.136-.054 2.161-.066 2.17-.064 2.181-.086 2.182-.098 2.01-.087 2.006-.096 2.021-.108 2.03-.119 2.032-.13M292.94 82.136l.8-.044.8-.043 2.83-.021M184.876 157.002l3.229.475M193.106 159.085l-.28-.163-.302-.162-.326-.16-.344-.152-.357-.14-.377-.13-.402-.13-.41-.118-.431-.108-.455-.108-.418-.086-.444-.076-.455-.076M311.009 176.754l-2.214.14-2.214.119-2.204.108-2.191.108-2.181.087-2.175.076-2.169.054-2.148.054-2.14.042-2.125.022-2.131.022h-4.189l-2.073-.022-2.062-.032-2.053-.043-2.041-.055-2.021-.064-2.007-.086-1.998-.086-1.978-.098-1.962-.12-1.946-.118-1.933-.14-1.912-.14-1.901-.162-1.881-.174-1.866-.172-1.848-.194-1.825-.206-1.814-.214-1.802-.228-1.772-.238-1.76-.238-1.74-.258-1.718-.27-1.705-.282-1.675-.29-1.664-.304-1.64-.314-1.621-.322-1.599-.324-1.574-.347-1.568-.356-1.535-.356-1.521-.379-1.49-.378-1.48-.399-1.449-.399-1.434-.41-1.406-.422-1.383-.432-1.358-.442-1.34-.454-1.328-.453-1.286-.475-1.273-.477-1.255-.485-1.229-.498-1.2-.506-1.177-.519-1.156-.519-1.132-.529-1.103-.539-1.092-.553-.917-.484-.896-.487-.887-.484-.862-.509-.842-.497-.833-.518M316 176.669h-2.507l-.669.01-.607.021-.602.024-.605.03" style="fill:none;stroke:red;stroke-width:1.99999;stroke-linecap:round;stroke-linejoin:round;stroke-miterlimit:4;stroke-dasharray:none;stroke-opacity:1;visibility:visible" visibility="hidden"/><path d="m169.044 67.49.908.099" style="fill:none;stroke:red;stroke-width:.999997;stroke-linecap:round;stroke-linejoin:round;stroke-miterlimit:4;stroke-dasharray:none;stroke-opacity:1;visibility:visible" visibility="hidden"/><path d="m308.96 200.006.081 8.867" style="fill:none;stroke:red;stroke-width:1.99999;stroke-linecap:round;stroke-linejoin:round;stroke-miterlimit:4;stroke-dasharray:none;stroke-opacity:1;visibility:visible" visibility="hidden"/><path d="m309.829 262.84.053 5.858" style="fill:none;stroke:red;stroke-width:1.66666;stroke-linecap:round;stroke-linejoin:round;stroke-miterlimit:4;stroke-dasharray:none;stroke-opacity:1;visibility:visible" visibility="hidden"/><path d="m332.733 273.997-.096-16.865M326.173 400.13l-.411.184-.41.14-.41.106-.402.08-.4.03h-.386l-.389-.03-.368-.08M310.491 362.082l.27 28.696M310.76 390.778l.02.602.034.594.065.573.086.563.108.552.13.517.15.508.174.475.193.453.217.432.238.399.25.366.268.348.292.302.302.282.313.246.335.205.346.185.345.142.368.106M326.173 400.13l2.56-1.22M310.26 337.666l.036 4.004" style="fill:none;stroke:red;stroke-width:1.99999;stroke-linecap:round;stroke-linejoin:round;stroke-miterlimit:4;stroke-dasharray:none;stroke-opacity:1;visibility:visible" visibility="hidden"/><path d="m311.657 342.058.173 18.445M311.658 342.058l-.13-.032" style="fill:none;stroke:red;stroke-width:.999997;stroke-linecap:round;stroke-linejoin:round;stroke-miterlimit:4;stroke-dasharray:none;stroke-opacity:1;visibility:visible" visibility="hidden"/><path d="M310.265 338.287 197.89 391.672M195.642 418.608l116.188-57.195M171.226 56.745l-7.83-1.21M163.394 55.536l-12.257 6.028M172.26 57.49l-.051-.15-.099-.141-.118-.13-.162-.108-.173-.097-.204-.076-.227-.043M151.137 61.563l-.204.117-.173.141-.152.152-.11.16-.062.163-.034.173.011.174M163.394 55.536h0M172.273 57.533l-.013-.021v-.021M194.337 159.841l16.513 76.573M172.273 57.533l2.365 10.995M204.071 317.647l-10.933 131.008M210.85 236.413l-.856 10.272M193.138 448.655l-.077.67-.095.679-.12.669-.14.681-.173.67-.184.67-.215.669-.248.659-.261.648-.28.638-.301.627-.326.613-.333.596-.37.571-.375.564-.39.528-.4.507-.42.486-.431.466-.446.432-.451.398-.466.379-.466.347-.474.31-.474.271-.486.25M150.413 62.643l32.843 173.609M183.763 246.965l.077-1.112.054-1.101.01-1.092v-1.091l-.042-1.08-.066-1.08-.098-1.057-.118-1.05-.151-1.036-.173-1.014M183.764 246.965l-17.711 218.213M166.053 465.178l8.26 2.376M174.313 467.554l10.423-4.904M309.778 199.121l8.77-2.852M314.995 398.628l8.003 1.932M309.778 199.121l-.208.076-.17.11-.162.116-.119.13-.088.152-.053.15-.02.152" style="fill:none;stroke:red;stroke-width:1.99999;stroke-linecap:round;stroke-linejoin:round;stroke-miterlimit:4;stroke-dasharray:none;stroke-opacity:1;visibility:visible" visibility="hidden"/><path d="m317.695 259.158.139-.13M317.834 259.029l-.41-50.156M317.294 208.852l.132.02M293.84 269.44l23.433-9.85" style="fill:none;stroke:red;stroke-width:.999997;stroke-linecap:round;stroke-linejoin:round;stroke-miterlimit:4;stroke-dasharray:none;stroke-opacity:1;visibility:visible" visibility="hidden"/><path d="M203.443 249.185 311.97 207.76" style="fill:none;stroke:red;stroke-width:1.99999;stroke-linecap:round;stroke-linejoin:round;stroke-miterlimit:4;stroke-dasharray:none;stroke-opacity:1;visibility:visible" visibility="hidden"/><path d="M169.032 67.49h.012M184.876 157.002l-.087-.032-.073-.065-.066-.097-.044-.12-2.041-9.343M316.162 92.587l.173-.172.183-.131.182-.108.197-.076.202-.043h.196M310.295 341.67l1.232.323M311.527 341.994v.032M311.97 207.761l5.324 1.09M317.695 259.158h0M317.294 208.852h0M317.695 259.158l-.421.432M455.807 373.255l1.35.238 12.785-7.26M447.362 229.584l.656.82 2.409 52.466M450.426 282.87l-.583.65M441.43 228.87l5.93.714M450.266 222.378l-2.248 8.027M317.846 71.775l-11.113 7.885M455.632 373.246l1.524.247M292.94 82.136l4.935 2.355M309.778 199.121l9.731 1.815M309.829 262.84l7.996 11.157M311.527 342.026l6.823-2.471M168.58 137.064l1.524.919M159.518 88.897l1.446.96" style="fill:none;stroke:red;stroke-width:.999997;stroke-linecap:round;stroke-linejoin:round;stroke-miterlimit:4;stroke-dasharray:none;stroke-opacity:1;visibility:visible" visibility="hidden"/><path d="m455.632 373.246-7.237 4.243M450.427 282.87l-6.297 3.477M475.408 387.62l-3.284 2.451M296.754 79.021l.616 3.007M334.24 169.04 316 176.669M317.424 208.873h-8.383" style="fill:none;stroke:red;stroke-width:1.99999;stroke-linecap:round;stroke-linejoin:round;stroke-miterlimit:4;stroke-dasharray:none;stroke-opacity:1;visibility:visible" visibility="hidden"/><path d="m317.834 259.029-8.005 3.811M317.695 259.158l-7.813 9.54" style="fill:none;stroke:red;stroke-width:1.66666;stroke-linecap:round;stroke-linejoin:round;stroke-miterlimit:4;stroke-dasharray:none;stroke-opacity:1;visibility:visible" visibility="hidden"/><path d="m335.622 275.873-2.889-1.876M317.834 259.029l14.803-1.897M311.83 360.503l-1.339 1.579M182.48 147.345l11.857 12.496M165.673 69.77l8.965-1.242M192.22 248.962l17.774-2.277M317.229 201.681l1.319-5.412" style="fill:none;stroke:red;stroke-width:1.99999;stroke-linecap:round;stroke-linejoin:round;stroke-miterlimit:4;stroke-dasharray:none;stroke-opacity:1;visibility:visible" visibility="hidden"/><path d="m194.52 252.586 137.698 26.234" style="fill:none;stroke:#00ff4a;stroke-width:.999997;stroke-linecap:round;stroke-linejoin:round;stroke-miterlimit:4;stroke-dasharray:none;stroke-opacity:1;visibility:visible"/><path d="m200.233 251.685 132.5 25.085" style="fill:none;stroke:#00ff4a;stroke-width:1.99999;stroke-linecap:round;stroke-linejoin:round;stroke-miterlimit:4;stroke-dasharray:none;stroke-opacity:1;visibility:visible"/><path d="m189.932 308.471 4.588-56.149M194.52 252.322l5.713-.637" style="fill:none;stroke:#00ff4a;stroke-width:.999997;stroke-linecap:round;stroke-linejoin:round;stroke-miterlimit:4;stroke-dasharray:none;stroke-opacity:1;visibility:visible"/><path d="m189.932 308.471 139.854 30.119 1.021-.479" style="fill:none;stroke:#00ff4a;stroke-width:1.99999;stroke-linecap:round;stroke-linejoin:round;stroke-miterlimit:4;stroke-dasharray:none;stroke-opacity:1;visibility:visible"/><path d="m313.462 270.926.003.054a.301.301 0 0 1-.058.14.59.59 0 0 1-.233.19c-.047.021-.095.037-.141.056M298.15 269.8l6.436-2.092M313.5 270.402l-.032.524M312.83 269.343c.43.14.705.571.67 1.06M313.033 271.365l-.703.213M312.331 271.578c-.071.028-.146.053-.221.088-.147.068-.807.201-.956.325-.147.123-.387.512-.52.682" style="fill:none;stroke:#00ff4a;stroke-width:.999997;stroke-linecap:round;stroke-linejoin:round;stroke-miterlimit:10;stroke-dasharray:none;stroke-opacity:1;visibility:visible"/><path d="m307.113 270.131-.603.127-.707.06-.736-.016-.69-.088-.561-.147-.374-.196-.15-.221.09-.224.328-.2.525-.156.656-.093.73-.024.719.052.638.118.471.175.268.21.033.228-.213.211-.424.184" style="fill:none;stroke:#00ff4a;stroke-width:.666665;stroke-linecap:round;stroke-linejoin:round;stroke-miterlimit:10;stroke-dasharray:none;stroke-opacity:1;visibility:visible"/><path d="M237.865 256.911a.715.715 0 0 1 .002.053.336.336 0 0 1-.057.142.587.587 0 0 1-.233.188c-.047.022-.095.038-.142.056M222.76 255.655l6.436-2.091M237.906 256.387l-.032.526M237.231 255.329c.43.14.706.571.674 1.058M237.435 257.35l-.7.213M236.733 257.563c-.073.029-.147.054-.223.09-.145.066-.805.201-.955.325a1.697 1.697 0 0 0-.229.275M312.535 269.345a.493.493 0 0 1 .295-.002M304.586 267.709l8.057 1.581M312.535 269.345l-6.501 2.08" style="fill:none;stroke:#00ff4a;stroke-width:.999997;stroke-linecap:round;stroke-linejoin:round;stroke-miterlimit:10;stroke-dasharray:none;stroke-opacity:1;visibility:visible"/><path d="m231.514 256.115-.596.126-.71.063-.738-.016-.69-.089-.561-.149-.374-.193-.152-.221.094-.226.326-.198.524-.156.658-.094.728-.022.724.049.631.12.473.174.272.213.031.224-.212.213-.428.183" style="fill:none;stroke:#00ff4a;stroke-width:.666665;stroke-linecap:round;stroke-linejoin:round;stroke-miterlimit:10;stroke-dasharray:none;stroke-opacity:1;visibility:visible"/><path d="M229.197 253.562c.097-.022.2-.01.293.028M236.938 255.33a.493.493 0 0 1 .295 0M229.491 253.59l7.556 1.687M236.938 255.33l-6.501 2.081" style="fill:none;stroke:#00ff4a;stroke-width:.999997;stroke-linecap:round;stroke-linejoin:round;stroke-miterlimit:10;stroke-dasharray:none;stroke-opacity:1;visibility:visible"/><path d="m331.771 326.402-.035-.24-.012-.256.024-.267.058-.242.083-.244.106-.226M331.995 324.927l.132-.202M332.126 324.723l.144-.162M332.353 319.118l-.185-.18-.175-.212-.138-.245-.117-.276-.088-.299-.06-.324-.04-.327v-.349l.025-.341.062-.35.089-.328.113-.327.146-.307.16-.287.191-.255M333.365 291.3l-.113-.178-.084-.202-.066-.233-.032-.24.008-.26.032-.257.054-.255.086-.234.117-.219.135-.2M332.144 278.577l1.276-.41M332.22 278.965l-2.372 59.418" style="fill:none;stroke:#00ff4a;stroke-width:.999997;stroke-linecap:round;stroke-linejoin:round;stroke-miterlimit:4;stroke-dasharray:none;stroke-opacity:1;visibility:visible"/><path d="m331.938 326.82-.103-.195-.064-.224" style="fill:none;stroke:#00ff4a;stroke-width:.999997;stroke-linecap:round;stroke-linejoin:round;stroke-miterlimit:4;stroke-dasharray:none;stroke-opacity:1;visibility:visible"/><path d="M312.331 271.578 298.15 269.8" style="fill:none;stroke:#00ff4a;stroke-width:.999997;stroke-linecap:round;stroke-linejoin:round;stroke-miterlimit:10;stroke-dasharray:none;stroke-opacity:1;visibility:visible"/><path d="m312.33 271.578-5.217-1.447M312.331 271.578l-5.218-1.447" style="fill:none;stroke:#00ff4a;stroke-width:.666665;stroke-linecap:round;stroke-linejoin:round;stroke-miterlimit:10;stroke-dasharray:none;stroke-opacity:1;visibility:visible"/><path d="m236.733 257.563-13.973-1.908M304.586 267.708l1.448 3.717" style="fill:none;stroke:#00ff4a;stroke-width:.999997;stroke-linecap:round;stroke-linejoin:round;stroke-miterlimit:10;stroke-dasharray:none;stroke-opacity:1;visibility:visible"/><path d="m229.197 253.562 2.317 2.553M236.733 257.563l-5.219-1.447" style="fill:none;stroke:#00ff4a;stroke-width:.666665;stroke-linecap:round;stroke-linejoin:round;stroke-miterlimit:10;stroke-dasharray:none;stroke-opacity:1;visibility:visible"/><path d="m229.196 253.564 1.241 3.847" style="fill:none;stroke:#00ff4a;stroke-width:.999997;stroke-linecap:round;stroke-linejoin:round;stroke-miterlimit:10;stroke-dasharray:none;stroke-opacity:1;visibility:visible"/><path d="m332.126 324.723.21-10.012" style="fill:none;stroke:#00ff4a;stroke-width:.999997;stroke-linecap:round;stroke-linejoin:round;stroke-miterlimit:4;stroke-dasharray:none;stroke-opacity:1;visibility:visible"/><path d="m189.932 308.471 14.139 9.176" style="fill:none;stroke:red;stroke-width:1.99999;stroke-linecap:round;stroke-linejoin:round;stroke-miterlimit:4;stroke-dasharray:none;stroke-opacity:1;visibility:visible" visibility="hidden"/><path d="m304.586 267.708-10.746 1.732" style="fill:none;stroke:red;stroke-width:.999997;stroke-linecap:round;stroke-linejoin:round;stroke-miterlimit:4;stroke-dasharray:none;stroke-opacity:1;visibility:visible" visibility="hidden"/><path d="m317.695 259.158-7.061 13.515" style="fill:none;stroke:#00ff4a;stroke-width:.999997;stroke-linecap:round;stroke-linejoin:round;stroke-miterlimit:10;stroke-dasharray:none;stroke-opacity:1;visibility:visible"/><path d="m349.64 323.413-17.287-4.295" style="fill:none;stroke:#00ff4a;stroke-width:.999997;stroke-linecap:round;stroke-linejoin:round;stroke-miterlimit:4;stroke-dasharray:none;stroke-opacity:1;visibility:visible"/></svg>