<svg xmlns="http://www.w3.org/2000/svg" baseProfile="full" height="1122.52" preserveAspectRatio="xMinYMin meet" style="width:732px;height:841px" width="793.701" xml:space="preserve"><path d="m198.669 71.06.653-.113.632-.1.615-.114.592-.101.567-.1.542-.088.515-.088.493-.09.452-.087.443-.088" style="fill:none;stroke:red;stroke-width:.999997;stroke-linecap:round;stroke-linejoin:round;stroke-miterlimit:4;stroke-dasharray:none;stroke-opacity:1;visibility:visible"/><path d="m197.748 71.212 2.33-.276M197.748 71.212l.92-.15" style="fill:none;stroke:red;stroke-width:1.99999;stroke-linecap:round;stroke-linejoin:round;stroke-miterlimit:4;stroke-dasharray:none;stroke-opacity:1;visibility:visible"/><path d="m319.248 50.975.832-.139M312.347 52.084l-2.393.365-2.38.378-2.379.365-2.37.379-2.366.362-2.343.367-2.344.377-2.316.366-2.316.365-2.306.365-2.29.366-2.268.352-2.266.366-2.254.366-2.229.35-2.216.367-2.217.352-2.192.353-2.166.352-2.165.352-2.141.354-2.127.34-2.104.352-2.09.341-2.08.339-2.051.34-2.04.34-2.015.34-1.99.328-1.978.328-1.95.338-1.94.315-1.915.33-1.888.326-1.876.315-1.853.316-1.824.313-1.802.316-1.776.303-1.762.3-1.726.302-1.713.303-1.675.29-1.662.29-1.624.288-1.6.29-1.587.278-1.548.29-1.525.265-1.487.276-1.47.265-1.437.264-1.41.264-1.386.252-1.346.252M312.347 52.084l.756-.127.744-.113.717-.112.716-.116.707-.112.68-.113.68-.1.653-.115.631-.101.617-.099M337.71 126.054l-13.55-68.518M322.863 50.962l-.844.139M201.723 80.044l10.244 68.615M201.363 71.225l-.932.164 1.293 8.655M208.075 70.054l-.477.088-.518.101-.529.088-.565.1-.58.112-.618.102-.641.114-.656.114-.692.113-.705.125-.731.114M322.019 51.101l-.68.113-.705.112-.716.128-.746.114-.754.125-.77.127-.78.124-.806.126-.806.127-.818.125-.834.139M208.075 70.054l1.335-.252 1.374-.25 1.395-.267 1.424-.264 1.46-.266 1.487-.264 1.51-.276 1.551-.276 1.561-.277 1.599-.29 1.625-.29 1.65-.29 1.676-.29 1.7-.301 1.725-.303 1.736-.303 1.777-.302 1.8-.315 1.827-.315 1.837-.314 1.866-.316 1.888-.314 1.914-.328 1.927-.326 1.952-.327 1.977-.33 1.988-.338 2.019-.328 2.023-.34 2.056-.341 2.077-.34 2.09-.339 2.103-.352 2.115-.34 2.143-.353 2.166-.354 2.164-.353 2.192-.35 2.204-.354 2.216-.353 2.23-.366 2.253-.35 2.253-.367 2.281-.364 2.291-.365 2.293-.367 2.316-.364 2.316-.365 2.344-.366 2.342-.366 2.356-.363 2.368-.379 2.366-.365 2.391-.365M200.43 71.389l-.025-.127-.05-.112-.064-.101-.061-.063-.076-.038-.076-.012" style="fill:none;stroke:red;stroke-width:.999997;stroke-linecap:round;stroke-linejoin:round;stroke-miterlimit:4;stroke-dasharray:none;stroke-opacity:1;visibility:visible"/><path d="M197.748 71.212h-.012" style="fill:none;stroke:red;stroke-width:1.99999;stroke-linecap:round;stroke-linejoin:round;stroke-miterlimit:4;stroke-dasharray:none;stroke-opacity:1;visibility:visible"/><path d="m201.79 80.847-.048-.29-.077-.277-.087-.264-.115-.252-.112-.238-.14-.215-.152-.177-.149-.164-.163-.124-.178-.102-.163-.062-.176-.039-.164.012M210.895 151.293l.165-.05.162-.077.14-.112.138-.138.126-.166.101-.201.085-.213.067-.239.05-.265.038-.278v-.276l-.013-.29-.024-.288M201.225 152.78l.165-.039.15-.088.15-.101.127-.137.127-.178.1-.201.088-.215.074-.238.04-.264.038-.278v-.277l-.014-.29-.024-.29M192.03 82.068l10.215 68.116M192.03 82.068l-.048-.277-.077-.29-.088-.265-.114-.25-.112-.227-.141-.215-.15-.19-.15-.163-.165-.124-.163-.102-.176-.064-.176-.025h-.165M319.248 50.975h0-.013M312.347 52.084h0M204.173 70.092l-.015.012h-.012M198.669 71.06h-.013" style="fill:none;stroke:red;stroke-width:.999997;stroke-linecap:round;stroke-linejoin:round;stroke-miterlimit:4;stroke-dasharray:none;stroke-opacity:1;visibility:visible"/><path d="m210.895 151.293-1.447.213M200.066 78.655l-1.485.19" style="fill:none;stroke:red;stroke-width:1.99999;stroke-linecap:round;stroke-linejoin:round;stroke-miterlimit:4;stroke-dasharray:none;stroke-opacity:1;visibility:visible"/><path d="m480.82 394.287 2.472-.907M481.099 414.31l-.279-20.024M480.82 394.287l-.06-.025M457.135 386.644l-106.11-34.228M484.612 392.235l-.01.139-.05.138-.09.139-.113.125-.149.127-.19.124-.215.127-.24.114-.263.112M454.742 253.358l-.125.036M455.534 304.688l-.916-51.293M455.661 304.813l-.128-.124M454.617 253.395l-108.236-27.25M346.805 394.566l-.063.553-.074.543-.103.515-.112.489-.15.481-.163.454-.192.428-.2.402-.227.379-.25.352-.267.327-.276.289-.303.253-.315.227-.329.2-.337.164-.354.127M360.256 217.983l-.668 8.715M355.747 277.184l-8.941 117.382M326.09 42.888l34.167 175.094M315.701 44.097l10.388-1.21M360.256 217.983l7.819-2.203M326.076 42.85l8.035-1.675M326.09 42.888v-.025l-.013-.012M316.859 42.926l6.55-1.348M332.727 40.47l-.05.013h-.038M323.408 41.578l.012-.012M316.859 42.926l-.037.01h-.039" style="fill:none;stroke:red;stroke-width:.999997;stroke-linecap:round;stroke-linejoin:round;stroke-miterlimit:4;stroke-dasharray:none;stroke-opacity:1;visibility:visible"/><path d="m456.013 245.045 6.487-1.976" style="fill:none;stroke:red;stroke-width:1.99999;stroke-linecap:round;stroke-linejoin:round;stroke-miterlimit:4;stroke-dasharray:none;stroke-opacity:1;visibility:visible"/><path d="m462.5 243.069 16.145 4.672M475.232 458.905l-3.085-207.75M454.604 246.028l17.541 5.127M464.237 287.106l.213.013.214.051" style="fill:none;stroke:red;stroke-width:.999997;stroke-linecap:round;stroke-linejoin:round;stroke-miterlimit:4;stroke-dasharray:none;stroke-opacity:1;visibility:visible"/><path d="m465.57 291.867-.188.064-.213.024-.214-.012-.216-.05-.21-.089-.23-.113-.202-.163-.202-.189-.189-.215-.172-.24-.155-.264-.124-.277-.112-.3-.089-.304-.05-.301-.04-.303v-.301l.013-.279.052-.276.077-.252.1-.227.124-.201.152-.164.167-.139.184-.101.19-.063.214-.025" style="fill:none;stroke:red;stroke-width:1.66666;stroke-linecap:round;stroke-linejoin:round;stroke-miterlimit:4;stroke-dasharray:none;stroke-opacity:1;visibility:visible"/><path d="m464.664 287.17.213.076.214.125.218.164.202.19.186.214.178.238.149.265.13.276.109.304.089.301.05.302.04.304v.3l-.015.278-.05.278-.073.252-.113.226-.115.202-.152.164-.161.137-.192.1M464.263 295.305l.164-.024h.188l.176.037" style="fill:none;stroke:red;stroke-width:.999997;stroke-linecap:round;stroke-linejoin:round;stroke-miterlimit:4;stroke-dasharray:none;stroke-opacity:1;visibility:visible"/><path d="m465.698 298.706-.139.1-.164.064-.173.037h-.177l-.191-.049-.19-.077-.174-.114-.177-.138-.167-.176-.148-.19-.139-.226-.114-.239-.096-.252-.066-.252-.049-.264-.016-.252.016-.252.036-.227.05-.213.086-.201.115-.164.128-.139.148-.103.166-.074" style="fill:none;stroke:red;stroke-width:1.66666;stroke-linecap:round;stroke-linejoin:round;stroke-miterlimit:4;stroke-dasharray:none;stroke-opacity:1;visibility:visible"/><path d="m464.792 295.318.188.076.19.113.177.151.164.163.15.202.139.227.11.239.09.24.076.262.036.267.013.252v.252l-.036.225-.065.215-.087.201-.098.164-.14.139M463.596 265.007l.161-.076.178-.037.177.012.187.037" style="fill:none;stroke:red;stroke-width:.999997;stroke-linecap:round;stroke-linejoin:round;stroke-miterlimit:4;stroke-dasharray:none;stroke-opacity:1;visibility:visible"/><path d="m465.07 268.444-.164.076-.177.039h-.178l-.186-.039-.191-.076-.187-.112-.18-.139-.158-.177-.155-.201-.14-.215-.112-.239-.087-.25-.077-.252-.036-.266-.027-.265.014-.252.036-.225.065-.228.085-.202.103-.164.127-.137.152-.113" style="fill:none;stroke:red;stroke-width:1.66666;stroke-linecap:round;stroke-linejoin:round;stroke-miterlimit:4;stroke-dasharray:none;stroke-opacity:1;visibility:visible"/><path d="m464.3 264.943.19.064.19.113.175.138.166.177.148.201.142.215.112.237.088.254.073.264.039.264.026.252-.013.253-.039.237-.06.215-.089.2-.101.165-.138.151-.138.1M472.146 251.155l7.932-2.468M481.013 414.297l-.013-.919M481.013 414.297l.024-.01" style="fill:none;stroke:red;stroke-width:.999997;stroke-linecap:round;stroke-linejoin:round;stroke-miterlimit:4;stroke-dasharray:none;stroke-opacity:1;visibility:visible"/><path d="m455.448 245.134.175-.05.189-.026.201-.013" style="fill:none;stroke:red;stroke-width:1.99999;stroke-linecap:round;stroke-linejoin:round;stroke-miterlimit:4;stroke-dasharray:none;stroke-opacity:1;visibility:visible"/><path d="M462.5 243.069v-.088M478.646 247.741l.2.012.188.025.2.039" style="fill:none;stroke:red;stroke-width:.999997;stroke-linecap:round;stroke-linejoin:round;stroke-miterlimit:4;stroke-dasharray:none;stroke-opacity:1;visibility:visible"/><path d="m213.365 159.994-2.317.277" style="fill:none;stroke:red;stroke-width:1.99999;stroke-linecap:round;stroke-linejoin:round;stroke-miterlimit:4;stroke-dasharray:none;stroke-opacity:1;visibility:visible"/><path d="m322.484 50.534-2.404.303M339.296 134.09l-1.585-8.036M324.16 57.536l-1.297-6.575" style="fill:none;stroke:red;stroke-width:.999997;stroke-linecap:round;stroke-linejoin:round;stroke-miterlimit:4;stroke-dasharray:none;stroke-opacity:1;visibility:visible"/><path d="m210.683 159.806-1.235-8.3M198.58 78.845l-1.059-7.08M210.683 159.806l.025.125.048.126.063.089.076.076.077.036.075.012M213.365 159.994h.012M197.736 71.212l-.076.027-.063.062-.05.102-.026.112-.013.126.013.124M200.115 152.212l.15.164.155.139.148.113.164.087.164.05.163.027.165-.012M190.305 79.876l-.15.039-.151.062-.151.102-.127.112-.126.152-.1.177-.102.2M189.248 81.099l-.076.213-.05.228-.038.252-.013.251.013.252.025.264 10.214 68.002M199.322 150.561l.05.252.063.252.09.241.101.214.112.201.127.176" style="fill:none;stroke:red;stroke-width:1.99999;stroke-linecap:round;stroke-linejoin:round;stroke-miterlimit:4;stroke-dasharray:none;stroke-opacity:1;visibility:visible"/><path d="M320.08 50.837h0M322.484 50.534l.077.012.088.039.063.062.076.088.05.114.025.113M339.296 134.09l.013.113v.112l-.025.1-.05.09-.063.05-.064.038" style="fill:none;stroke:red;stroke-width:.999997;stroke-linecap:round;stroke-linejoin:round;stroke-miterlimit:4;stroke-dasharray:none;stroke-opacity:1;visibility:visible"/><path d="m209.449 151.506-8.224 1.273M198.58 78.845l-8.275 1.03M199.865 151.897l.25.315M189.248 81.099l.15-.379M213.377 159.994l3.4-.692M223.275 157.892l-.365.1-.403.09-.416.087-.428.1-.44.1-.467.102-.492.113-.49.101-.518.114-.528.1-.54.113-.466.101-.467.1-.479.09M327.861 136.772l-1.85.339-1.826.328-1.841.34-1.826.34-1.825.328-1.812.341-1.816.34-1.799.325-1.786.342-1.79.326-1.789.34-1.764.328-1.763.342-1.762.326-1.736.327-1.739.327-1.74.341-1.712.325-1.71.328-1.714.33-1.688.326-1.687.328-1.676.315-1.66.327-1.664.328-1.636.316-1.638.326-1.624.315-1.612.315-1.612.328-1.587.313-1.585.315-1.563.316-1.563.313-1.548.304-1.537.315-1.524.314-1.497.303-1.5.301-1.484.315-1.475.303-1.45.302-1.446.288-1.437.304-1.421.303-1.4.287-1.383.292-1.384.301-1.361.29-1.348.277-1.323.29-1.321.291-1.298.276-1.286.277-1.27.276-1.261.278-1.233.277-1.223.277-1.208.263-1.196.265-1.172.263-1.157.267-1.134.262-1.121.267-1.11.252-.966.227-.947.213-.932.227-.918.214-.92.214M336.035 135.21l3.073-.616M336.035 135.21l-.541.113-.542.102-.554.113-.579.113-.581.112-.591.115-.603.112-.618.115-.618.125-.629.113-.628.115-.555.113-.568.1-.566.1" style="fill:none;stroke:red;stroke-width:1.99999;stroke-linecap:round;stroke-linejoin:round;stroke-miterlimit:4;stroke-dasharray:none;stroke-opacity:1;visibility:visible"/><path d="m319.235 50.975.845-.139" style="fill:none;stroke:red;stroke-width:.999997;stroke-linecap:round;stroke-linejoin:round;stroke-miterlimit:4;stroke-dasharray:none;stroke-opacity:1;visibility:visible"/><path d="m312.347 52.084.604-.101.59-.088.593-.09.58-.1.58-.089.566-.087.555-.088.541-.088.53-.088.529-.089.415-.063.401-.074.404-.063M204.147 70.104l1.057-.201 1.083-.203 1.096-.199 1.108-.202 1.135-.215 1.145-.212 1.16-.203 1.183-.213 1.196-.228 1.22-.213 1.237-.215 1.244-.227 1.26-.225 1.284-.228 1.285-.227 1.31-.226 1.334-.239 1.336-.227 1.359-.241 1.373-.237 1.386-.24 1.398-.24 1.408-.251 1.436-.24 1.438-.252 1.46-.237 1.46-.254 1.486-.25 1.499-.254 1.512-.265 1.524-.25 1.536-.251 1.536-.266 1.561-.264 1.575-.252 1.587-.266 1.598-.263 1.602-.264 1.624-.279 1.624-.264 1.636-.265 1.649-.276 1.664-.264 1.673-.277 1.69-.278 1.685-.277 1.701-.276 1.714-.276 1.725-.279 1.725-.276 1.736-.278 1.752-.276 1.75-.291 1.775-.276 1.763-.29 1.79-.278 1.786-.288 1.803-.29 1.8-.277 1.813-.29 1.827-.29 1.825-.289 1.825-.29 1.852-.29 1.84-.29 1.611-.251 1.624-.251 1.624-.253 1.625-.252 1.626-.252 1.636-.251M198.656 71.06l.528-.088.517-.088.491-.09.492-.074.465-.088.467-.075.439-.076.417-.076.403-.074.39-.064.314-.063.29-.05.278-.051M197.736 71.212l.919-.15" style="fill:none;stroke:red;stroke-width:1.99999;stroke-linecap:round;stroke-linejoin:round;stroke-miterlimit:4;stroke-dasharray:none;stroke-opacity:1;visibility:visible"/><path d="m351.025 352.416.565-.188 4.963-1.65M351.025 352.416l-1.045 13.627-.342 4.484" style="fill:none;stroke:red;stroke-width:.999997;stroke-linecap:round;stroke-linejoin:round;stroke-miterlimit:4;stroke-dasharray:none;stroke-opacity:1;visibility:visible"/><path d="m482.309 413.852 1.247-.473" style="fill:none;stroke:red;stroke-width:1.99999;stroke-linecap:round;stroke-linejoin:round;stroke-miterlimit:4;stroke-dasharray:none;stroke-opacity:1;visibility:visible"/><path d="m481.099 414.31 1.21-.459" style="fill:none;stroke:red;stroke-width:.999997;stroke-linecap:round;stroke-linejoin:round;stroke-miterlimit:4;stroke-dasharray:none;stroke-opacity:1;visibility:visible"/><path d="m349.639 370.526 107.848 35.915" style="fill:none;stroke:red;stroke-width:1.99999;stroke-linecap:round;stroke-linejoin:round;stroke-miterlimit:4;stroke-dasharray:none;stroke-opacity:1;visibility:visible"/><path d="m481.036 414.287.063.024" style="fill:none;stroke:red;stroke-width:.999997;stroke-linecap:round;stroke-linejoin:round;stroke-miterlimit:4;stroke-dasharray:none;stroke-opacity:1;visibility:visible"/><path d="m483.555 413.379.263-.1.242-.125.211-.115.19-.139.151-.124.115-.14.085-.138.052-.139.014-.137" style="fill:none;stroke:red;stroke-width:1.99999;stroke-linecap:round;stroke-linejoin:round;stroke-miterlimit:4;stroke-dasharray:none;stroke-opacity:1;visibility:visible"/><path d="m483.367 391.228-1.37-.44" style="fill:none;stroke:red;stroke-width:.999997;stroke-linecap:round;stroke-linejoin:round;stroke-miterlimit:4;stroke-dasharray:none;stroke-opacity:1;visibility:visible"/><path d="m457.057 382.79-100.504-32.213M483.367 391.228l.252.087.224.088.19.101.175.115.151.113.115.125.078.126.05.126.01.126M484.878 412.221l-.265-19.985M343.38 274.287l112.281 30.804M351.185 224.918l103.505 25.58M351.185 224.918l-4.38 1.225M346.805 226.71l-3.424 47.099.479.478M331.404 397.121l8.5 3.413M368.075 215.78l-33.95-174.566M354.31 392.25l1.525-19.67M357.535 350.892l5.42-69.446M367.083 228.575l.992-12.795M350.57 398.418l.365-.125.34-.164.328-.203.315-.225.301-.251.278-.292.265-.325.252-.354.225-.378.202-.403.19-.428.176-.453.138-.466.128-.504.1-.516.074-.529.063-.553M331.404 397.121l12.883-178.168M343.09 400.75l-.327.087-.34.062-.353.027h-.341l-.364-.012-.352-.064-.379-.075-.365-.113-.366-.127M343.77 209.232l-12.316-72.46M316.936 51.388l-1.235-7.29M343.77 209.232l.165.996.126.98.113.996.088.981.063.983.037.981.025.958-.012.958-.038.956-.05.932" style="fill:none;stroke:red;stroke-width:1.99999;stroke-linecap:round;stroke-linejoin:round;stroke-miterlimit:4;stroke-dasharray:none;stroke-opacity:1;visibility:visible"/><path d="m334.111 41.175.015.025v.012" style="fill:none;stroke:red;stroke-width:.999997;stroke-linecap:round;stroke-linejoin:round;stroke-miterlimit:4;stroke-dasharray:none;stroke-opacity:1;visibility:visible"/><path d="m334.111 41.175-.05-.15-.087-.127-.114-.126-.138-.114-.176-.088-.191-.063-.2-.037-.215-.014-.213.014" style="fill:none;stroke:red;stroke-width:1.99999;stroke-linecap:round;stroke-linejoin:round;stroke-miterlimit:4;stroke-dasharray:none;stroke-opacity:1;visibility:visible"/><path d="M323.42 41.565h0" style="fill:none;stroke:red;stroke-width:.999997;stroke-linecap:round;stroke-linejoin:round;stroke-miterlimit:4;stroke-dasharray:none;stroke-opacity:1;visibility:visible"/><path d="m316.783 42.937-.201.05-.175.078-.177.087-.15.114-.129.114-.112.137-.076.139-.05.152-.026.138.013.151M343.09 400.75l7.48-2.33M332.727 40.47l-9.307 1.096M316.783 42.937l6.637-1.372M480.078 248.686l1.948 144.694M482.878 456.184l-7.645 2.721M466.73 455.502l8.503 3.404M482.31 413.857l.568 42.327M458.104 441.01l-2.443-136.196M454.742 253.358l-.139-7.33M466.73 455.502l-.473-.199-.47-.254-.476-.263-.469-.315-.453-.34-.454-.364-.453-.404-.427-.429-.429-.453-.415-.479-.402-.503-.379-.528-.367-.542-.352-.566-.341-.58-.299-.604-.305-.606-.263-.628-.252-.631-.226-.643-.202-.641-.176-.656-.152-.64-.14-.656-.098-.656-.074-.641-.052-.642-.026-.629" style="fill:none;stroke:red;stroke-width:1.99999;stroke-linecap:round;stroke-linejoin:round;stroke-miterlimit:4;stroke-dasharray:none;stroke-opacity:1;visibility:visible"/><path d="m481 413.379-.263-19.104 1.294-.477" style="fill:none;stroke:red;stroke-width:.999997;stroke-linecap:round;stroke-linejoin:round;stroke-miterlimit:4;stroke-dasharray:none;stroke-opacity:1;visibility:visible"/><path d="m454.604 246.028.027-.164.049-.15.088-.151.123-.126.166-.126.187-.102.204-.074" style="fill:none;stroke:red;stroke-width:1.99999;stroke-linecap:round;stroke-linejoin:round;stroke-miterlimit:4;stroke-dasharray:none;stroke-opacity:1;visibility:visible"/><path d="M462.5 242.98h0" style="fill:none;stroke:red;stroke-width:.999997;stroke-linecap:round;stroke-linejoin:round;stroke-miterlimit:4;stroke-dasharray:none;stroke-opacity:1;visibility:visible"/><path d="m479.234 247.817.203.075.177.1.164.114.125.127.102.15.062.153.011.15M455.448 245.134l7.052-2.153M462.5 242.98l16.735 4.836" style="fill:none;stroke:red;stroke-width:1.99999;stroke-linecap:round;stroke-linejoin:round;stroke-miterlimit:4;stroke-dasharray:none;stroke-opacity:1;visibility:visible"/><path d="M454.742 253.358h0M455.661 304.813h0" style="fill:none;stroke:red;stroke-width:.999997;stroke-linecap:round;stroke-linejoin:round;stroke-miterlimit:4;stroke-dasharray:none;stroke-opacity:1;visibility:visible"/><path d="m454.742 253.358.919 51.455" style="fill:none;stroke:red;stroke-width:1.99999;stroke-linecap:round;stroke-linejoin:round;stroke-miterlimit:4;stroke-dasharray:none;stroke-opacity:1;visibility:visible"/><path d="M481.036 414.287h0l-.024-.013M346.805 226.71l12.783-.012" style="fill:none;stroke:red;stroke-width:.999997;stroke-linecap:round;stroke-linejoin:round;stroke-miterlimit:4;stroke-dasharray:none;stroke-opacity:1;visibility:visible"/><path d="m454.604 246.028.086 4.47M349.638 370.527l6.197 2.052M351.025 352.416l6.51-1.524M360.256 217.983l6.827 10.592M339.296 134.09l-7.842 2.682M322.863 50.961l-5.927.427" style="fill:none;stroke:red;stroke-width:1.99999;stroke-linecap:round;stroke-linejoin:round;stroke-miterlimit:4;stroke-dasharray:none;stroke-opacity:1;visibility:visible"/><path d="m300.373 450.705-2.82.805M290.865 451.397l.292.1.327.1.352.077.378.075.39.05.413.051.419.038.44.012.428.013.44-.013.44-.012.43-.038.428-.038.402-.063.39-.063.366-.089.353-.088M290.865 451.397l-125.174-47.224M283.652 295.556l-97.234-28.221M178.482 259.338 149.569 70.693l-10.3 1.159M156.269 456.473l.353-.127.352-.165.327-.2.316-.24.3-.277.292-.3.276-.342.253-.377.239-.403.213-.429.203-.465.177-.48.15-.515.137-.53.115-.566.089-.565.075-.607 18.346-190.546" style="fill:none;stroke:#00ff4a;stroke-width:.999997;stroke-linecap:round;stroke-linejoin:round;stroke-miterlimit:4;stroke-dasharray:none;stroke-opacity:1;visibility:visible" visibility="hidden"/><path d="m162.139 301.69-.164.127-.15.164-.14.2-.126.226-.09.254-.087.276-.05.302-.026.315-.011.327.01.34.04.34.062.353.076.34.101.325.127.315.136.304.164.277.165.252.188.24.19.202.202.164.214.125.201.1" style="fill:none;stroke:#00ff4a;stroke-width:1.66666;stroke-linecap:round;stroke-linejoin:round;stroke-miterlimit:4;stroke-dasharray:none;stroke-opacity:1;visibility:visible" visibility="hidden"/><path d="m164.731 306.752.1-.252.077-.276.063-.304.024-.313.013-.343-.013-.339-.036-.34-.065-.338-.086-.342-.102-.326-.124-.315-.14-.304-.15-.288-.177-.252-.19-.227-.189-.201-.201-.176-.201-.127-.214-.101-.201-.05-.215-.025-.189.026-.201.049-.175.101" style="fill:none;stroke:#00ff4a;stroke-width:.999997;stroke-linecap:round;stroke-linejoin:round;stroke-miterlimit:4;stroke-dasharray:none;stroke-opacity:1;visibility:visible" visibility="hidden"/><path d="m163.171 307.557.213.063.202.013.202-.013.188-.05.176-.101.178-.125.148-.164.141-.202.112-.226M165.25 272.27l-.19.064-.175.101-.178.126-.152.176-.138.201-.124.228-.09.264-.088.29-.05.302-.038.315v.34l.012.34.038.338.064.354.076.338.101.33.125.314.139.302.164.29.175.252.177.227.2.201.201.163.203.127.216.1" style="fill:none;stroke:#00ff4a;stroke-width:1.66666;stroke-linecap:round;stroke-linejoin:round;stroke-miterlimit:4;stroke-dasharray:none;stroke-opacity:1;visibility:visible" visibility="hidden"/><path d="m167.377 277.738.113-.228.099-.265.077-.288.063-.303.024-.315.013-.34-.013-.341-.037-.337-.063-.354-.087-.341-.102-.327-.124-.328-.14-.302-.152-.278-.175-.25-.19-.24-.189-.188-.212-.164-.202-.14-.215-.087-.201-.063-.215-.012-.2.023" style="fill:none;stroke:#00ff4a;stroke-width:.999997;stroke-linecap:round;stroke-linejoin:round;stroke-miterlimit:4;stroke-dasharray:none;stroke-opacity:1;visibility:visible" visibility="hidden"/><path d="m165.917 278.353.212.05.203.027.2-.026.189-.063.19-.101.163-.126.163-.177.14-.199" style="fill:none;stroke:#00ff4a;stroke-width:1.66666;stroke-linecap:round;stroke-linejoin:round;stroke-miterlimit:4;stroke-dasharray:none;stroke-opacity:1;visibility:visible" visibility="hidden"/><path d="m157.844 160.343.188-.024.176-.063.164-.101.15-.139.14-.176.114-.202.1-.239.088-.25.05-.28.038-.3.013-.303-.013-.315-.037-.315" style="fill:none;stroke:#00ff4a;stroke-width:.999997;stroke-linecap:round;stroke-linejoin:round;stroke-miterlimit:4;stroke-dasharray:none;stroke-opacity:1;visibility:visible" visibility="hidden"/><path d="m156.093 158.001.063.316.076.3.1.29.126.275.138.254.152.241.174.188.178.176.177.125.188.102.188.05.19.024M145.54 89.318 156.093 158M146.699 86.522l-.176.039-.177.061-.163.115-.153.149-.136.179-.127.212-.1.24-.077.262-.05.292-.038.303-.011.315.01.314.04.315" style="fill:none;stroke:#00ff4a;stroke-width:1.99999;stroke-linecap:round;stroke-linejoin:round;stroke-miterlimit:4;stroke-dasharray:none;stroke-opacity:1;visibility:visible" visibility="hidden"/><path d="m148.45 88.814-.052-.316-.088-.303-.101-.288-.124-.277-.139-.252-.152-.228-.164-.199-.175-.152-.192-.126-.186-.088-.19-.05-.188-.013M159.015 157.636 148.45 88.815M158.648 69.534l-9.079 1.108M149.57 70.642v.05M187.376 257.575l-8.893 1.763" style="fill:none;stroke:#00ff4a;stroke-width:.999997;stroke-linecap:round;stroke-linejoin:round;stroke-miterlimit:4;stroke-dasharray:none;stroke-opacity:1;visibility:visible" visibility="hidden"/><path d="m157.113 68.727-7.43.908M147.97 69.76l-7.417.905M147.97 69.76l9.141-1.033M149.682 69.635l-9.13 1.03" style="fill:none;stroke:#00ff4a;stroke-width:1.99999;stroke-linecap:round;stroke-linejoin:round;stroke-miterlimit:4;stroke-dasharray:none;stroke-opacity:1;visibility:visible" visibility="hidden"/><path d="m149.57 70.642-.013-.152-.012-.15v-.278l.012-.127.013-.1.025-.086.024-.064.028-.038.035-.012" style="fill:none;stroke:#00ff4a;stroke-width:.999997;stroke-linecap:round;stroke-linejoin:round;stroke-miterlimit:4;stroke-dasharray:none;stroke-opacity:1;visibility:visible" visibility="hidden"/><path d="M140.553 70.666h0-.012" style="fill:none;stroke:#00ff4a;stroke-width:1.99999;stroke-linecap:round;stroke-linejoin:round;stroke-miterlimit:4;stroke-dasharray:none;stroke-opacity:1;visibility:visible" visibility="hidden"/><path d="M147.97 69.76h0" style="fill:none;stroke:#00ff4a;stroke-width:.999997;stroke-linecap:round;stroke-linejoin:round;stroke-miterlimit:4;stroke-dasharray:none;stroke-opacity:1;visibility:visible" visibility="hidden"/><path d="M157.124 68.727h-.012" style="fill:none;stroke:#00ff4a;stroke-width:1.99999;stroke-linecap:round;stroke-linejoin:round;stroke-miterlimit:4;stroke-dasharray:none;stroke-opacity:1;visibility:visible" visibility="hidden"/><path d="m298.874 451.082-1.36-.517M300.916 294.082l-2.041 157M283.725 288.201l17.192 5.881" style="fill:none;stroke:#00ff4a;stroke-width:.999997;stroke-linecap:round;stroke-linejoin:round;stroke-miterlimit:4;stroke-dasharray:none;stroke-opacity:1;visibility:visible" visibility="hidden"/><path d="m291.331 308.161-.15.203-.14.25-.1.266-.089.301-.049.316-.025.327-.015.341.028.35.05.354.074.353.103.339.112.328.152.316.164.3.177.264.197.241.203.214.228.176.227.14.225.1" style="fill:none;stroke:#00ff4a;stroke-width:1.66666;stroke-linecap:round;stroke-linejoin:round;stroke-miterlimit:4;stroke-dasharray:none;stroke-opacity:1;visibility:visible" visibility="hidden"/><path d="m294.304 313.01.127-.241.1-.264.086-.3.052-.316.038-.328v-.352l-.026-.352-.038-.354-.075-.338-.1-.354-.127-.328-.137-.314-.177-.302-.176-.265-.203-.239-.201-.214-.227-.176-.213-.139-.239-.101-.227-.063-.226-.013-.215.013-.213.063-.202.101-.19.139-.163.188" style="fill:none;stroke:#00ff4a;stroke-width:.999997;stroke-linecap:round;stroke-linejoin:round;stroke-miterlimit:4;stroke-dasharray:none;stroke-opacity:1;visibility:visible" visibility="hidden"/><path d="m292.704 313.64.227.063.226.026.228-.026.199-.063.203-.1.189-.14.176-.176.152-.213M290.954 340.879l-.15.201-.127.24-.115.264-.075.291-.061.313-.027.328v.34l.012.34.051.354.076.352.101.338.124.33.14.313.163.29.179.278.201.239.201.214.214.176.226.151.228.101" style="fill:none;stroke:#00ff4a;stroke-width:1.66666;stroke-linecap:round;stroke-linejoin:round;stroke-miterlimit:4;stroke-dasharray:none;stroke-opacity:1;visibility:visible" visibility="hidden"/><path d="m294.04 345.5.101-.264.087-.288.05-.315.038-.33v-.338l-.025-.341-.051-.352-.075-.353-.09-.339-.123-.328-.152-.316-.164-.301-.177-.266-.2-.25-.203-.215-.212-.176-.228-.14-.225-.099-.228-.076-.227-.012-.227.012-.2.051-.202.1-.188.14-.164.175" style="fill:none;stroke:#00ff4a;stroke-width:.999997;stroke-linecap:round;stroke-linejoin:round;stroke-miterlimit:4;stroke-dasharray:none;stroke-opacity:1;visibility:visible" visibility="hidden"/><path d="m292.314 346.332.227.063.226.025.226-.013.216-.05.188-.101.186-.137.178-.164.138-.215.14-.24" style="fill:none;stroke:#00ff4a;stroke-width:1.66666;stroke-linecap:round;stroke-linejoin:round;stroke-miterlimit:4;stroke-dasharray:none;stroke-opacity:1;visibility:visible" visibility="hidden"/><path d="m298.597 472.83-.603 45.927" style="fill:none;stroke:#00ff4a;stroke-width:.999997;stroke-linecap:round;stroke-linejoin:round;stroke-miterlimit:4;stroke-dasharray:none;stroke-opacity:1;visibility:visible" visibility="hidden"/><path d="m292.641 285.633 15.843 5.364" style="fill:none;stroke:#00ff4a;stroke-width:1.99999;stroke-linecap:round;stroke-linejoin:round;stroke-miterlimit:4;stroke-dasharray:none;stroke-opacity:1;visibility:visible" visibility="hidden"/><path d="m300.373 450.654-1.499.428M300.084 472.339h0M300.084 472.339l.29-21.685M309.982 292.093l-9.067 1.99" style="fill:none;stroke:#00ff4a;stroke-width:.999997;stroke-linecap:round;stroke-linejoin:round;stroke-miterlimit:4;stroke-dasharray:none;stroke-opacity:1;visibility:visible" visibility="hidden"/><path d="m308.484 290.997.201.013.215.036.188.064M292.69 285.543l-.01.013-.027.026-.012.05M285.238 287.233h-.177l-.178.012-.164.024" style="fill:none;stroke:#00ff4a;stroke-width:1.99999;stroke-linecap:round;stroke-linejoin:round;stroke-miterlimit:4;stroke-dasharray:none;stroke-opacity:1;visibility:visible" visibility="hidden"/><path d="M300.084 472.339h0M165.69 404.173l-1.412 14.608-.477 4.899M166.494 403.971l-.804.201M171.986 402.573l-5.492 1.397" style="fill:none;stroke:#00ff4a;stroke-width:.999997;stroke-linecap:round;stroke-linejoin:round;stroke-miterlimit:4;stroke-dasharray:none;stroke-opacity:1;visibility:visible" visibility="hidden"/><path d="m300.084 472.377-2.81.844" style="fill:none;stroke:#00ff4a;stroke-width:1.99999;stroke-linecap:round;stroke-linejoin:round;stroke-miterlimit:4;stroke-dasharray:none;stroke-opacity:1;visibility:visible" visibility="hidden"/><path d="m300.084 472.377.29-21.672" style="fill:none;stroke:#00ff4a;stroke-width:.999997;stroke-linecap:round;stroke-linejoin:round;stroke-miterlimit:4;stroke-dasharray:none;stroke-opacity:1;visibility:visible" visibility="hidden"/><path d="m297.274 473.22-.339.088-.377.09-.39.062-.405.063-.413.05-.43.024-.44.027h-.87l-.428-.027-.43-.036-.4-.038-.391-.063-.378-.079-.353-.085-.327-.088-.289-.1M163.801 423.68l126.812 49.428" style="fill:none;stroke:#00ff4a;stroke-width:1.99999;stroke-linecap:round;stroke-linejoin:round;stroke-miterlimit:4;stroke-dasharray:none;stroke-opacity:1;visibility:visible" visibility="hidden"/><path d="m300.373 450.705-.063-.025" style="fill:none;stroke:#00ff4a;stroke-width:.999997;stroke-linecap:round;stroke-linejoin:round;stroke-miterlimit:4;stroke-dasharray:none;stroke-opacity:1;visibility:visible" visibility="hidden"/><path d="m282.113 443.853-109.016-40.864" style="fill:none;stroke:#00ff4a;stroke-width:1.99999;stroke-linecap:round;stroke-linejoin:round;stroke-miterlimit:4;stroke-dasharray:none;stroke-opacity:1;visibility:visible" visibility="hidden"/><path d="m283.083 350.311-101.616-32.667" style="fill:none;stroke:#00ff4a;stroke-width:.999997;stroke-linecap:round;stroke-linejoin:round;stroke-miterlimit:4;stroke-dasharray:none;stroke-opacity:1;visibility:visible" visibility="hidden"/><path d="m283.686 291.463-96.902-27.892M144.771 452.267l8.337 3.89M139.269 71.852l23.121 177.765M162.617 260.093l-17.845 192.173M162.617 260.093l.088-1.007.05-1.02.04-1.032.011-1.033-.012-1.059-.038-1.057-.051-1.057-.088-1.07-.101-1.072-.126-1.069M153.109 456.158l.365.164.366.125.364.088.352.063.354.037.352.012.339-.022.341-.063.327-.09M158.662 69.571l28.713 188.004-14.281 145.413M170.79 426.413l-2.04 20.816M168.75 447.23l-.077.59-.088.567-.111.568-.14.528-.164.503-.176.493-.201.452-.214.442-.24.402-.253.366-.275.34-.292.302-.298.276-.318.24-.341.2-.337.164-.354.142" style="fill:none;stroke:#00ff4a;stroke-width:1.99999;stroke-linecap:round;stroke-linejoin:round;stroke-miterlimit:4;stroke-dasharray:none;stroke-opacity:1;visibility:visible" visibility="hidden"/><path d="M158.662 69.571v-.013l-.015-.024" style="fill:none;stroke:#00ff4a;stroke-width:.999997;stroke-linecap:round;stroke-linejoin:round;stroke-miterlimit:4;stroke-dasharray:none;stroke-opacity:1;visibility:visible" visibility="hidden"/><path d="m140.541 70.666-.215.039-.213.062-.19.09-.177.112-.15.113-.127.14-.1.15-.063.163-.037.151v.165" style="fill:none;stroke:#00ff4a;stroke-width:1.99999;stroke-linecap:round;stroke-linejoin:round;stroke-miterlimit:4;stroke-dasharray:none;stroke-opacity:1;visibility:visible" visibility="hidden"/><path d="M147.97 69.76h0" style="fill:none;stroke:#00ff4a;stroke-width:.999997;stroke-linecap:round;stroke-linejoin:round;stroke-miterlimit:4;stroke-dasharray:none;stroke-opacity:1;visibility:visible" visibility="hidden"/><path d="m158.648 69.534-.035-.15-.076-.14-.114-.138-.127-.115-.163-.101-.177-.075-.201-.062-.202-.039h-.213l-.216.013M164.87 453.804l-8.601 2.67M147.97 69.76l9.153-1.033M147.97 69.76l-7.43.905M283.725 288.201l-1.613 155.36M289.669 514.84l8.325 3.917 8.776-3.11M281.85 469.681l-.303 29.255M281.547 498.936v.68l.036.69.05.709.091.702.112.706.126.706.164.706.174.704.216.705.226.692.252.683.264.666.29.655.315.641.34.618.341.604.364.578.378.558.402.528.404.502.416.467.44.453.442.404.44.388.454.34.466.316.452.266.466.237M306.77 515.647l3.212-223.554M309.088 291.11l.228.088.188.113.164.127.137.15.102.165.049.162.027.178M292.69 285.543h0M284.72 287.27l-.213.064-.191.075-.175.102-.137.112-.127.126-.076.152-.062.15-.014.151M292.69 285.543l-7.972 1.725M292.69 285.543l16.397 5.567" style="fill:none;stroke:#00ff4a;stroke-width:1.99999;stroke-linecap:round;stroke-linejoin:round;stroke-miterlimit:4;stroke-dasharray:none;stroke-opacity:1;visibility:visible" visibility="hidden"/><path d="m282.1 444.71 15.416 5.856M283.725 288.201l-.073 7.355M300.084 472.377l-1.487.453M165.69 404.172l6.296-1.599M292.314 346.332l-9.231 3.979" style="fill:none;stroke:#00ff4a;stroke-width:.999997;stroke-linecap:round;stroke-linejoin:round;stroke-miterlimit:4;stroke-dasharray:none;stroke-opacity:1;visibility:visible" visibility="hidden"/><path d="m283.725 288.201-.039 3.262M163.8 423.68l6.99 2.733M300.084 472.339l-18.234-2.658" style="fill:none;stroke:#00ff4a;stroke-width:1.99999;stroke-linecap:round;stroke-linejoin:round;stroke-miterlimit:4;stroke-dasharray:none;stroke-opacity:1;visibility:visible" visibility="hidden"/></svg>