<svg xmlns="http://www.w3.org/2000/svg" baseProfile="full" height="1122.52" preserveAspectRatio="xMinYMin meet" style="width:732px;height:841px" width="793.701" xml:space="preserve"><path d="m451.971 884.56 1.89-1.492M453.008 903.448l-1.036-18.888M426.029 877.8l-70.653-18.437M454.573 881.805l-.01.185-.031.182-.076.196-.11.172-.129.184-.163.172-.193.172M148.535 594.87l.43-.248.411-.239.367-.237.348-.227M240.82 555.764l.843-.26.821-.268.79-.26.777-.27.753-.27.736-.259.701-.27.682-.26.646-.259.628-.26M240.82 555.764l-2.235.703-2.226.713-2.2.701-2.194.712-2.181.702-2.161.714-2.136.724-2.139.712-2.11.712-2.093.723-2.073.715-2.064.724-2.04.722-2.02.723-1.997.725-1.988.722-1.955.724-1.943.724-1.925.724-1.9.734-1.879.724-1.856.724-1.825.722-1.816.724-1.781.724-1.77.724-1.74.724-1.718.724-1.686.724-1.66.71-1.644.724-1.608.714-1.588.724-1.566.713-1.534.712-1.5.703-1.48.713-1.446.7-1.427.701-1.393.703-1.361.704-1.328.69-1.307.693-1.275.689-1.241.69-1.21.683-1.177.679-1.144.67-1.114.68-1.08.671-1.056.656-1.018.659-.972.661-.95.647M248.9 552.837l-.703.292M245.302 553.41l.712-.303M239.145 555.613l.693-.227.692-.216.656-.228.65-.214.636-.228.605-.215.596-.228.57-.215.54-.216.52-.216" style="fill:none;stroke:red;stroke-width:.999997;stroke-linecap:round;stroke-linejoin:round;stroke-miterlimit:4;stroke-dasharray:none;stroke-opacity:1;visibility:visible" visibility="hidden"/><path d="m239.145 555.613-2.256.7-2.223.715-2.225.702-2.205.712-2.182.714-2.181.722-2.15.714-2.149.724-2.117.712-2.117.722-2.083.724-2.075.724-2.052.724-2.04.724-2.02.724-1.998.735-1.975.721-1.957.736-1.943.724-1.912.732-1.9.724-1.87.735-1.855.724-1.824.724-1.807.735-1.79.724-1.762.733-1.739.724-1.705.721-1.685.727-1.663.724-1.644.724-1.608.71-1.588.725-1.565.712-1.535.726-1.5.71-1.48.704-1.448.71-1.425.704-1.392.714-1.361.7-1.34.693-1.307.7-1.273.693-1.243.69-1.21.682-1.186.68-1.147.679-1.124.68-1.081.67-1.055.671-1.028.656" style="fill:none;stroke:red;stroke-width:1.99999;stroke-linecap:round;stroke-linejoin:round;stroke-miterlimit:4;stroke-dasharray:none;stroke-opacity:1;visibility:visible" visibility="hidden"/><path d="m154.766 678.54-17.279-68.226M137.486 610.313l-.076-.268-.108-.259-.13-.249-.16-.237-.163-.206-.184-.172-.194-.15-.208-.12-.204-.076-.205-.044h-.205l-.195.033-.172.065-.16.107-.153.141-.119.172-.096.206-.076.216-.044.25-.01.258.01.26M152.508 679.847l.184.193.183.174.205.138.205.11.206.065.205.041.193-.01.195-.044.173-.074.152-.109.139-.15.11-.173.097-.205.053-.227.033-.25v-.258l-.024-.26M245.302 553.41h-.033l-.044.021M239.145 555.613h-.041M309.151 810.029l8.76 2.063M317.953 813.235 193.397 783.88" style="fill:none;stroke:red;stroke-width:.999997;stroke-linecap:round;stroke-linejoin:round;stroke-miterlimit:4;stroke-dasharray:none;stroke-opacity:1;visibility:visible" visibility="hidden"/><path d="M186.647 778.115 139.3 591.998l-13.002.995M171.624 967.427l.356-.257.336-.292.312-.326.28-.346.27-.378.24-.409.215-.432.195-.453.16-.487.13-.497.109-.53.086-.541.055-.56 12.279-183.804M170.135 824.76l.259.052.26.024.246-.013.239-.042.225-.1.208-.116.183-.162.16-.184.132-.216.107-.248.086-.271.055-.292.021-.301-.01-.324-.034-.326-.064-.333-.096-.336-.132-.336-.138-.323-.174-.312-.194-.292-.216-.281-.227-.25-.248-.226-.25-.193-.269-.172-.261-.13-.27-.1-.269-.061-.249-.024-.256.024-.23.041-.225.099-.206.117-.183.162-.163.185-.129.227-.108.236-.085.27-.046.292-.02.314v.312l.044.336.063.322.097.336.12.334.151.325.172.303.195.301.205.27.227.262.248.227.249.192.27.161.26.141.27.099M171.928 796.41l.257.065.26.02.259-.02.239-.054.225-.096.207-.12.184-.162.16-.196.13-.226.119-.247.075-.281.056-.292.021-.312v-.327l-.045-.333-.064-.336-.095-.343-.121-.336-.15-.323-.173-.316-.193-.292-.218-.278-.237-.25-.248-.226-.25-.195-.269-.172-.27-.13-.271-.086-.259-.065-.26-.022-.258.022-.238.054-.216.096-.205.131-.193.161-.154.195-.138.227-.11.25-.085.279-.053.29-.022.317.011.322.032.334.076.336.096.333.117.336.154.325.172.312.194.292.218.279.225.25.25.227.258.195.26.172.27.13.27.086" style="fill:none;stroke:red;stroke-width:.999997;stroke-linecap:round;stroke-linejoin:round;stroke-miterlimit:4;stroke-dasharray:none;stroke-opacity:1;visibility:visible" visibility="hidden"/><path d="M154.874 680.753h.227l.226-.033.195-.076.193-.107.174-.141.152-.171.128-.196.1-.227.074-.249.055-.27.02-.28-.01-.291-.033-.303-.065-.301-8.65-33.956M147.064 589.08l-7.775 2.872M139.29 591.953v.024l.01.02M194.056 774.399l-7.41 3.716" style="fill:none;stroke:red;stroke-width:.999997;stroke-linecap:round;stroke-linejoin:round;stroke-miterlimit:4;stroke-dasharray:none;stroke-opacity:1;visibility:visible" visibility="hidden"/><path d="m133.89 589.32-6.373 2.341M133.89 589.32l11.512-.899M127.517 591.662l-.139.033-.132.043" style="fill:none;stroke:red;stroke-width:1.99999;stroke-linecap:round;stroke-linejoin:round;stroke-miterlimit:4;stroke-dasharray:none;stroke-opacity:1;visibility:visible" visibility="hidden"/><path d="M133.89 589.32v-.01" style="fill:none;stroke:red;stroke-width:.999997;stroke-linecap:round;stroke-linejoin:round;stroke-miterlimit:4;stroke-dasharray:none;stroke-opacity:1;visibility:visible" visibility="hidden"/><path d="m145.682 588.38-.139.021-.141.02" style="fill:none;stroke:red;stroke-width:1.99999;stroke-linecap:round;stroke-linejoin:round;stroke-miterlimit:4;stroke-dasharray:none;stroke-opacity:1;visibility:visible" visibility="hidden"/><path d="m344.749 964.037-1.741-.521M339.629 812.534l5.12 151.502M317.694 806.485l21.935 6.05M330.266 831.38l.292.065.28.02.28-.02.26-.054.25-.09.226-.137.205-.161.183-.206.152-.226.12-.272.096-.28.055-.303.02-.323-.01-.336-.054-.344-.076-.336-.108-.346-.142-.336-.169-.323-.197-.312-.226-.292-.24-.26-.258-.237-.28-.216-.282-.172-.292-.142-.288-.096-.294-.065-.292-.02-.268.01-.271.053-.24.098-.225.128-.204.174-.184.206-.152.227-.118.268-.085.281-.056.302-.021.325.01.333.043.336.076.344.12.347.139.336.173.323.192.302.22.291.245.272.26.236.271.207.281.172.292.14.291.109M331.398 863.045l.295.076.278.023.282-.011.26-.044.248-.096.225-.12.207-.161.172-.206.15-.226.12-.248.086-.282.065-.304.021-.313-.01-.333-.054-.336-.074-.343-.111-.336-.139-.336-.172-.323-.196-.302-.226-.292-.236-.271-.26-.237-.271-.206-.28-.185-.293-.137-.291-.11-.29-.065-.282-.03-.27.02-.269.043-.24.098-.225.12-.207.17-.172.196-.15.227-.12.257-.099.271-.053.303-.02.325.01.323.054.336.076.344.106.336.143.333.173.325.194.303.214.29.239.26.259.249.272.204.289.173.28.152.292.096M345.45 984.89l1.479 43.763M345.914 963.237l-1.165.8M345.925 963.292l-.01-.055M346.779 808.41l-7.15 4.125M345.947 963.292l-2.192 1.53M337.047 965.623l.367.099.39.084.41.054.421.055.435.023h.442l.443-.01.441-.034.443-.055.421-.063.423-.098.397-.107.388-.12.358-.14.346-.152.303-.161.28-.175M337.047 965.623l-158.79-47.79M166.117 770.22l.119.033M166.407 771.365l-1.273-.303M165.705 775.706l1.092.26M450.243 947.07l-11.039-197.122M428.363 747.367l10.841 2.581 6.158-4.256M452.911 903.438l.021-.01M433.115 755.1l-86.293 54.659M292.619 883.781l-.033.508-.078.497-.086.484-.118.467-.152.443-.173.418-.204.402-.216.377-.248.347-.27.322-.291.303-.326.27-.333.247M300.988 715.745l-.15 3.013M293.827 859.459l-1.208 24.323M251.762 545.503l49.227 170.24M239.21 546.615l12.55-1.112M300.988 715.745l6.393-3.825M251.749 545.462l6.763-3.153M251.762 545.503v-.021l-.013-.02M294.637 859.675l-.065 1.167" style="fill:none;stroke:red;stroke-width:.999997;stroke-linecap:round;stroke-linejoin:round;stroke-miterlimit:4;stroke-dasharray:none;stroke-opacity:1;visibility:visible" visibility="hidden"/><path d="m453.008 903.448 1.88-1.524M294.572 860.841l25.467 6.85M348.948 875.453l78.226 21.039M454.888 901.925l.184-.161.172-.183.128-.184.108-.183.067-.185.041-.183v-.194M425.76 873.253l-65.728-17.024M452.672 880.216l.336.11.303.117.269.13.25.151.214.161.184.164.14.183.11.181.063.196.032.195M455.589 900.651l-1.016-18.847" style="fill:none;stroke:red;stroke-width:1.99999;stroke-linecap:round;stroke-linejoin:round;stroke-miterlimit:4;stroke-dasharray:none;stroke-opacity:1;visibility:visible" visibility="hidden"/><path d="m248.9 552.837-2.885.27" style="fill:none;stroke:red;stroke-width:.999997;stroke-linecap:round;stroke-linejoin:round;stroke-miterlimit:4;stroke-dasharray:none;stroke-opacity:1;visibility:visible" visibility="hidden"/><path d="m152.648 680.008.184.216.196.183.205.161.215.13.217.107.215.064.215.046h.217l.205-.032.183-.055M135.564 607.959l-.196.099-.173.12-.15.148-.132.185-.117.216-.087.227-.065.26-.032.258-.01.292.01.28M134.634 610.24l.033.203.043.206 17.27 68.117M151.98 678.766l.065.227.098.237.108.216.118.205.14.196" style="fill:none;stroke:red;stroke-width:1.99999;stroke-linecap:round;stroke-linejoin:round;stroke-miterlimit:4;stroke-dasharray:none;stroke-opacity:1;visibility:visible" visibility="hidden"/><path d="m245.928 553.129.043-.01.042-.011M248.9 552.837h.076l.085.024M136.243 607.711l-.679.248" style="fill:none;stroke:red;stroke-width:.999997;stroke-linecap:round;stroke-linejoin:round;stroke-miterlimit:4;stroke-dasharray:none;stroke-opacity:1;visibility:visible" visibility="hidden"/><path d="m152.508 679.847.139.161" style="fill:none;stroke:red;stroke-width:1.99999;stroke-linecap:round;stroke-linejoin:round;stroke-miterlimit:4;stroke-dasharray:none;stroke-opacity:1;visibility:visible" visibility="hidden"/><path d="m134.634 610.24-.021-.195" style="fill:none;stroke:red;stroke-width:.999997;stroke-linecap:round;stroke-linejoin:round;stroke-miterlimit:4;stroke-dasharray:none;stroke-opacity:1;visibility:visible" visibility="hidden"/><path d="m174.703 681.498-.292.227-.312.237-.325.239-.356.237-.378.237-.4.247-.41.25-.444.247-.452.251-.25.128M263.026 638.88l-1.707.607-1.697.601-1.695.607-1.673.614-1.675.604-1.664.618-1.661.614-1.644.618-1.63.625-1.631.615-1.608.617-1.61.627-1.588.625-1.576.617-1.568.626-1.553.625-1.545.616-1.53.625-1.525.628-1.513.626-1.503.637-1.49.628-1.469.625-1.468.627-1.446.625-1.426.639-1.428.627-1.4.625-1.406.628-1.382.624-1.36.639-1.36.628-1.34.624-1.329.625-1.308.639-1.295.626-1.285.626-1.263.628-1.242.625-1.243.616-1.208.625-1.21.628-1.19.615-1.165.628-1.156.615-1.145.626-1.123.615-1.101.615-1.091.617-1.07.615-1.049.604-1.034.617-1.016.604-1.004.604-.974.607-.97.604-.94.594-.928.604-.908.594-.886.593-.874.597-.843.58-.83.595-.81.583-.79.573-.691.517-.668.508-.662.519-.636.508-.616.497M270.293 635.912l2.43-1.167M270.293 635.912l-.453.213-.464.219-.498.227-.497.216-.516.226-.53.216-.54.227-.563.227-.562.216-.581.226-.596.216-.475.183-.496.172-.496.185" style="fill:none;stroke:red;stroke-width:1.99999;stroke-linecap:round;stroke-linejoin:round;stroke-miterlimit:4;stroke-dasharray:none;stroke-opacity:1;visibility:visible" visibility="hidden"/><path d="m245.225 553.43.703-.303" style="fill:none;stroke:red;stroke-width:.999997;stroke-linecap:round;stroke-linejoin:round;stroke-miterlimit:4;stroke-dasharray:none;stroke-opacity:1;visibility:visible" visibility="hidden"/><path d="m239.103 555.613.563-.173.549-.174.528-.181.53-.173.52-.174.505-.184.489-.173.475-.184.464-.17.442-.174.367-.141.357-.14.334-.142M319.984 866.242 190.05 832.578M155.372 963.886l10.603 3.899M126.297 592.992l39.55 175.346M166.743 778.568l-11.372 185.317M166.743 778.568l.043-.981.021-.995-.021-1.005-.043-1.016-.076-1.024-.108-1.028-.13-1.036-.16-1.048-.195-1.047-.227-1.05M165.975 967.784l.488.161.475.131.476.096.474.076.454.03h.454l.443-.02.43-.065.422-.086.41-.128.389-.154.378-.181.356-.217M147.075 589.125l46.981 185.273-9.677 140.638M182.77 938.344l-1.295 18.877M181.475 957.222l-.056.563-.076.538-.108.519-.14.508-.16.473-.196.454-.216.432-.237.412-.271.377-.29.347-.303.322-.336.292-.356.247M147.075 589.125v-.021l-.01-.023M127.247 591.737l-.204.088-.184.107-.172.13-.143.131-.117.15-.076.162-.053.161-.023.162.023.164" style="fill:none;stroke:red;stroke-width:1.99999;stroke-linecap:round;stroke-linejoin:round;stroke-miterlimit:4;stroke-dasharray:none;stroke-opacity:1;visibility:visible" visibility="hidden"/><path d="M133.89 589.31h0" style="fill:none;stroke:red;stroke-width:.999997;stroke-linecap:round;stroke-linejoin:round;stroke-miterlimit:4;stroke-dasharray:none;stroke-opacity:1;visibility:visible" visibility="hidden"/><path d="m147.064 589.08-.063-.161-.108-.151-.14-.117-.174-.11-.194-.086-.217-.055-.236-.02h-.25M178.73 962.706l-7.107 4.721M133.89 589.31l-6.643 2.427M317.694 806.485l5.777 151.104M336.369 1024.753l10.561 3.901 6.795-5.357M324.422 982.255l1.036 27.161M325.458 1009.417l.044.659.077.661.095.656.141.68.172.683.208.669.226.68.258.681.292.67.326.658.345.66.365.635.399.639.421.614.444.594.464.582.486.563.497.53.52.517.53.488.551.462.559.434.561.397.586.37.572.345.593.304.583.268.596.237M353.724 1023.297l-6.945-214.887M345.957 807.6l.207.063.172.088.15.106.118.12.101.131.053.15.02.151M324.953 801.862h.021M318.31 805.61l-.184.12-.15.13-.13.151-.087.151-.044.161-.021.162M324.974 801.862l20.983 5.737M324.953 801.862l-6.643 3.748" style="fill:none;stroke:red;stroke-width:1.99999;stroke-linecap:round;stroke-linejoin:round;stroke-miterlimit:4;stroke-dasharray:none;stroke-opacity:1;visibility:visible" visibility="hidden"/><path d="m178.256 917.834-.941 13.912-.322 4.804M179.066 917.36l-.81.473M183.462 914.755l-4.396 2.604M346.64 984.037l-.693-20.745M346.64 984.037l-2.181 1.557" style="fill:none;stroke:red;stroke-width:.999997;stroke-linecap:round;stroke-linejoin:round;stroke-miterlimit:4;stroke-dasharray:none;stroke-opacity:1;visibility:visible" visibility="hidden"/><path d="m344.458 985.594-.27.183-.305.164-.334.158-.367.131-.379.13-.398.106-.422.09-.422.074-.443.052-.441.035-.432.01h-.443l-.432-.034-.423-.042-.408-.065-.39-.085-.368-.098M176.993 936.55l160.788 49.855" style="fill:none;stroke:red;stroke-width:1.99999;stroke-linecap:round;stroke-linejoin:round;stroke-miterlimit:4;stroke-dasharray:none;stroke-opacity:1;visibility:visible" visibility="hidden"/><path d="m345.947 963.292-.075-.024" style="fill:none;stroke:red;stroke-width:.999997;stroke-linecap:round;stroke-linejoin:round;stroke-miterlimit:4;stroke-dasharray:none;stroke-opacity:1;visibility:visible" visibility="hidden"/><path d="m323.44 956.573-139.978-41.817" style="fill:none;stroke:red;stroke-width:1.99999;stroke-linecap:round;stroke-linejoin:round;stroke-miterlimit:4;stroke-dasharray:none;stroke-opacity:1;visibility:visible" visibility="hidden"/><path d="m166.214 770.167-.097.052M165.133 771.063l.572 4.643M166.117 770.22l-.983.844M165.705 775.706l1.092.528" style="fill:none;stroke:red;stroke-width:.999997;stroke-linecap:round;stroke-linejoin:round;stroke-miterlimit:4;stroke-dasharray:none;stroke-opacity:1;visibility:visible" visibility="hidden"/><path d="m445.362 745.693 7.505 138.068M456.065 942.47l-5.821 4.601M440.003 943.808l10.241 3.263M453.904 902.724l2.161 39.745M429.224 930.112l-7.061-115.7M440.003 943.808l-.57-.205-.573-.227-.573-.268-.561-.292-.56-.325-.551-.347-.553-.377-.528-.41-.518-.432-.508-.453-.496-.476-.478-.497-.452-.519-.443-.53-.42-.551-.39-.56-.367-.583-.347-.584-.323-.593-.292-.607-.257-.615-.239-.604-.204-.614-.185-.618-.14-.604-.117-.614-.078-.596-.056-.594M424.204 740.183h-.032" style="fill:none;stroke:red;stroke-width:1.99999;stroke-linecap:round;stroke-linejoin:round;stroke-miterlimit:4;stroke-dasharray:none;stroke-opacity:1;visibility:visible" visibility="hidden"/><path d="m444.594 744.98.185.055.162.076.14.085.108.107.088.12.052.13.033.14" style="fill:none;stroke:red;stroke-width:.999997;stroke-linecap:round;stroke-linejoin:round;stroke-miterlimit:4;stroke-dasharray:none;stroke-opacity:1;visibility:visible" visibility="hidden"/><path d="m419.047 743.657 5.125-3.473M424.204 740.183l20.39 4.797" style="fill:none;stroke:red;stroke-width:1.99999;stroke-linecap:round;stroke-linejoin:round;stroke-miterlimit:4;stroke-dasharray:none;stroke-opacity:1;visibility:visible" visibility="hidden"/><path d="m435.987 805.104-2.872-50.005M428.872 754.072l4.243 1.028" style="fill:none;stroke:red;stroke-width:.999997;stroke-linecap:round;stroke-linejoin:round;stroke-miterlimit:4;stroke-dasharray:none;stroke-opacity:1;visibility:visible" visibility="hidden"/><path d="m348.572 863.93 87.416-58.825M274.397 886.026l10.27 3.307M307.381 711.92l-48.86-169.58M298.707 879.753l.907-17.56M306.97 719.977l.412-8.057M296.17 884.839l.335-.248.312-.27.304-.302.27-.323.247-.346.217-.378.204-.401.174-.42.15-.445.12-.463.096-.475.066-.497.041-.517M274.397 886.026l1.37-31.243M290.09 888.867l-.335.205-.356.175-.377.148-.39.13-.4.097-.41.068-.432.032-.433.009-.443-.02-.452-.055-.464-.086-.467-.107-.462-.13M280.77 707.19l-17.69-68.33M241.35 554.889l-2.139-8.273M280.77 707.19l.216.875.193.874.163.876.152.875.117.861.096.866.078.854.045.851.021.844M258.512 542.308l-.065-.141-.098-.13-.132-.12-.148-.084-.174-.077-.194-.043-.217-.01h-.216M258.512 542.308l.01.01v.02M245.822 542.74h0M239.978 545.45l-.195.107-.17.121-.154.139-.118.153-.087.161-.053.162-.011.161.021.161M290.09 888.867l6.081-4.028M257.268 541.703l-11.447 1.037M239.978 545.45l5.844-2.71" style="fill:none;stroke:red;stroke-width:1.99999;stroke-linecap:round;stroke-linejoin:round;stroke-miterlimit:4;stroke-dasharray:none;stroke-opacity:1;visibility:visible" visibility="hidden"/><path d="m323.471 957.589 19.536 5.927M136.243 607.711l.205-.055.227-.021.228.01.227.055.238.099.226.117.228.162.204.196.194.216.184.248.162.26.14.278.12.295.096.301 8.738 34.279M272.853 634.279l.021.12v.107l-.032.109-.054.076-.064.055M249.374 553.248l23.479 81.03M249.061 552.86l.096.063.099.086.076.108.041.131" style="fill:none;stroke:red;stroke-width:.999997;stroke-linecap:round;stroke-linejoin:round;stroke-miterlimit:4;stroke-dasharray:none;stroke-opacity:1;visibility:visible" visibility="hidden"/><path d="m331.329 859.134.569.575M331.898 859.707l.056 1.247M331.954 860.954l-.516.624M330.46 827.48l.57.576M331.03 828.055l.056 1.247M331.086 829.302l-.516.624M169.837 820.747l.57.575M170.406 821.32l.056 1.248M170.462 822.567l-.516.624M171.749 792.33l.57.575M172.318 792.905l.056 1.245M172.373 794.15l-.516.624" style="fill:none;stroke:red;stroke-width:.666665;stroke-linecap:round;stroke-linejoin:round;stroke-miterlimit:2;stroke-dasharray:none;stroke-opacity:1;visibility:visible" visibility="hidden"/><path d="m478.267 596.832 67.205 16.057M135.564 607.959l12.971-13.089" style="fill:none;stroke:red;stroke-width:.999997;stroke-linecap:round;stroke-linejoin:round;stroke-miterlimit:4;stroke-dasharray:none;stroke-opacity:1;visibility:visible" visibility="hidden"/><path d="m150.091 593.92-1.946-.574" style="fill:none;stroke:red;stroke-width:1.99999;stroke-linecap:round;stroke-linejoin:round;stroke-miterlimit:4;stroke-dasharray:none;stroke-opacity:1;visibility:visible" visibility="hidden"/><path d="m317.953 813.235-8.802-3.206M317.694 806.485l.217 5.607M317.694 806.485l.259 6.75M319.984 866.242l11.414-3.197M346.64 984.037l-1.19.853M166.117 770.22l.29 1.145M433.115 755.1l-4.752-7.733M346.779 808.41l.043 1.349M307.382 711.92l-6.545 6.838" style="fill:none;stroke:red;stroke-width:.999997;stroke-linecap:round;stroke-linejoin:round;stroke-miterlimit:4;stroke-dasharray:none;stroke-opacity:1;visibility:visible" visibility="hidden"/><path d="m331.398 863.045-11.36 4.645M331.398 863.045l-11.414 3.197M176.993 936.55l5.777 1.794M323.471 957.589l-.031-1.016M451.972 884.56l.895-.8M453.008 903.448l.896-.724M435.987 805.104l-13.824 9.308M433.115 755.1l-14.068-11.443" style="fill:none;stroke:red;stroke-width:1.99999;stroke-linecap:round;stroke-linejoin:round;stroke-miterlimit:4;stroke-dasharray:none;stroke-opacity:1;visibility:visible" visibility="hidden"/><path d="m444.593 744.98-15.721 9.092" style="fill:none;stroke:red;stroke-width:.999997;stroke-linecap:round;stroke-linejoin:round;stroke-miterlimit:4;stroke-dasharray:none;stroke-opacity:1;visibility:visible" visibility="hidden"/><path d="m294.572 860.842 5.042 1.351M300.988 715.745l5.982 4.232M294.572 860.842l-18.806-6.059M249.374 553.248l-8.024 1.641M300.988 715.745l-19.137-.779" style="fill:none;stroke:red;stroke-width:1.99999;stroke-linecap:round;stroke-linejoin:round;stroke-miterlimit:4;stroke-dasharray:none;stroke-opacity:1;visibility:visible" visibility="hidden"/><path d="m193.473 782.834 33.815 7.948M406.503 743.781l4.815-2.959M193.884 776.828l114.294 27.175M313.73 800.6l-5.552 3.404M320.794 802.263l-7.064-1.664M336.93 803l88.696-55.375" style="fill:none;stroke:#00ff4a;stroke-width:.999997;stroke-linecap:round;stroke-linejoin:round;stroke-miterlimit:4;stroke-dasharray:none;stroke-opacity:1;visibility:visible"/><path d="m412.044 744.893-5.541-1.112" style="fill:none;stroke:#00ff4a;stroke-width:1.99999;stroke-linecap:round;stroke-linejoin:round;stroke-miterlimit:4;stroke-dasharray:none;stroke-opacity:1;visibility:visible"/><path d="m308.212 809.974-.408-4.44M308.178 804.003l-.419 1.036M308.773 810.417l-.561-.443M314.315 806.992l-.584-6.393" style="fill:none;stroke:#00ff4a;stroke-width:.999997;stroke-linecap:round;stroke-linejoin:round;stroke-miterlimit:4;stroke-dasharray:none;stroke-opacity:1;visibility:visible"/><path d="m314.315 806.992-2.455 1.513M309.064 810.235l-.29.183-62.88-15.131M426.635 753.157l-.325-4.7M412.044 744.893l-.25-3.63M411.318 740.823 272.614 713.12 189.78 757.54M425.628 747.625l-13.584-2.732M425.628 747.625l.683.83M426.083 753.696l.552-.539M411.796 741.263l-.477-.44M311.86 808.505l-2.71 1.524-.087.205M245.895 795.287l-18.607-4.505-33.805-8.123M426.083 753.696l-81.146 51.047" style="fill:none;stroke:#00ff4a;stroke-width:1.99999;stroke-linecap:round;stroke-linejoin:round;stroke-miterlimit:4;stroke-dasharray:none;stroke-opacity:1;visibility:visible"/><path d="m245.895 795.287-18.607-4.505" style="fill:none;stroke:#00ff4a;stroke-width:.999997;stroke-linecap:round;stroke-linejoin:round;stroke-miterlimit:4;stroke-dasharray:none;stroke-opacity:1;visibility:visible"/><path d="m189.78 757.539 4.276 16.86M426.635 753.157l12.57-3.21" style="fill:none;stroke:red;stroke-width:.999997;stroke-linecap:round;stroke-linejoin:round;stroke-miterlimit:4;stroke-dasharray:none;stroke-opacity:1;visibility:visible" visibility="hidden"/><path d="m324.974 801.862-4.18.401M346.779 808.41 336.93 803" style="fill:none;stroke:#00ff4a;stroke-width:.999997;stroke-linecap:round;stroke-linejoin:round;stroke-miterlimit:4;stroke-dasharray:none;stroke-opacity:1;visibility:visible"/><path d="m194.056 774.399-4.276-16.86M346.779 808.41l-1.842-3.667" style="fill:none;stroke:#00ff4a;stroke-width:1.99999;stroke-linecap:round;stroke-linejoin:round;stroke-miterlimit:4;stroke-dasharray:none;stroke-opacity:1;visibility:visible"/></svg>