<svg xmlns="http://www.w3.org/2000/svg" baseProfile="full" height="1122.52" preserveAspectRatio="xMinYMin meet" style="width:732px;height:841px" width="793.701" xml:space="preserve"><path d="m301.897 773.17-6.734 1.646M308.44 775.222l-5.128-1.786M294.302 776.028l-.079 6.478M308.826 777.47c.059-.02.113-.04.164-.068a.648.648 0 0 0 .165-.12.412.412 0 0 0 .125-.29M309.28 776.988l.01-.591M295.165 774.816a1.213 1.213 0 0 0-.465.282M294.7 775.098a1.317 1.317 0 0 0-.397.928M309.29 776.397c.01-.563-.341-1.047-.85-1.175M295.16 783.113l3.948-3.675M299.926 779.252l.784.197M302.097 779.402l6.729-1.932" style="fill:none;stroke:red;stroke-width:.999997;stroke-linecap:round;stroke-linejoin:round;stroke-miterlimit:10;stroke-dasharray:none;stroke-opacity:1;visibility:visible" visibility="hidden"/><path d="M294.226 782.508c-.003.005-.003.01-.003.012a.256.256 0 0 0 .038.162.47.47 0 0 0 .198.2c.054.032.472.135.708.194" style="fill:none;stroke:red;stroke-width:.666665;stroke-linecap:round;stroke-linejoin:round;stroke-miterlimit:10;stroke-dasharray:none;stroke-opacity:1;visibility:visible" visibility="hidden"/><path d="m295.457 782.837 5.305-1.57" style="fill:none;stroke:red;stroke-width:.999997;stroke-linecap:round;stroke-linejoin:round;stroke-miterlimit:10;stroke-dasharray:none;stroke-opacity:1;visibility:visible" visibility="hidden"/><path d="M302.491 773.149a1.07 1.07 0 0 0-.593.021" style="fill:none;stroke:red;stroke-width:.666665;stroke-linecap:round;stroke-linejoin:round;stroke-miterlimit:10;stroke-dasharray:none;stroke-opacity:1;visibility:visible" visibility="hidden"/><path d="M300.782 779.444a2.507 2.507 0 0 0 1.232-.04M302.097 779.402l-.04.008-.042-.005M301.334 781.225l.156.015M300.763 781.268a.477.477 0 0 1 .094-.024l.118-.018a1.44 1.44 0 0 1 .31-.002c.017.002.034.002.053.008M301.509 781.272l.4-.132M299.551 776.326l.574.144.728.078h.794l.779-.07.68-.14.507-.193.28-.223.016-.228-.24-.212-.479-.172" style="fill:none;stroke:red;stroke-width:.999997;stroke-linecap:round;stroke-linejoin:round;stroke-miterlimit:10;stroke-dasharray:none;stroke-opacity:1;visibility:visible" visibility="hidden"/><path d="m300.71 779.449.035.003.038-.008M294.302 776.028a.402.402 0 0 0 .025.07l.068.06.107.055.145.044M300.594 778.618l-5.947-2.361M301.337 781.23l-.003-.002M301.993 781.134a.613.613 0 0 0 .22-.133M301.302 780.998a.253.253 0 0 0 .156.24M302.383 780.91l-.018.016-.036.018M299.11 779.438l-.017.016-.04.016M299.478 779.22a1.55 1.55 0 0 0-.378.26M303.191 775.312l-.657-.114-.768-.04-.797.038-.74.106-.603.168-.399.21-.15.228.11.225.363.195" style="fill:none;stroke:red;stroke-width:.999997;stroke-linecap:round;stroke-linejoin:round;stroke-miterlimit:10;stroke-dasharray:none;stroke-opacity:1;visibility:visible" visibility="hidden"/><path d="m302.207 773.162.154-.028.129.016" style="fill:none;stroke:red;stroke-width:.666665;stroke-linecap:round;stroke-linejoin:round;stroke-miterlimit:10;stroke-dasharray:none;stroke-opacity:1;visibility:visible" visibility="hidden"/><path d="m380.218 758.074-5.95-2.073M366.08 758.878l-.08 6.479M380.603 760.32a1.253 1.253 0 0 0 .165-.066.641.641 0 0 0 .163-.12.415.415 0 0 0 .097-.148.552.552 0 0 0 .027-.142M381.056 759.84l.011-.59M366.942 757.668a1.284 1.284 0 0 0-.862 1.21M381.067 759.249c.01-.563-.341-1.047-.85-1.175M371.703 762.1l.784.197M373.874 762.254l6.729-1.934M302.303 780.952l2.268-2.26M301.32 779.5l-.02 1.499M302.207 773.162l-.162-.018-.147.026" style="fill:none;stroke:red;stroke-width:.999997;stroke-linecap:round;stroke-linejoin:round;stroke-miterlimit:10;stroke-dasharray:none;stroke-opacity:1;visibility:visible" visibility="hidden"/><path d="m373.674 756.022-6.734 1.646" style="fill:none;stroke:red;stroke-width:.666665;stroke-linecap:round;stroke-linejoin:round;stroke-miterlimit:10;stroke-dasharray:none;stroke-opacity:1;visibility:visible" visibility="hidden"/><path d="m366.47 765.824.105.026s.29-.084.607-.144" style="fill:none;stroke:red;stroke-width:.999997;stroke-linecap:round;stroke-linejoin:round;stroke-miterlimit:10;stroke-dasharray:none;stroke-opacity:1;visibility:visible" visibility="hidden"/><path d="M366.003 765.358c-.003.003-.003.01-.003.014-.012.057.012.112.036.16a.584.584 0 0 0 .08.114.41.41 0 0 0 .12.087 1.301 1.301 0 0 0 .234.092" style="fill:none;stroke:red;stroke-width:.666665;stroke-linecap:round;stroke-linejoin:round;stroke-miterlimit:10;stroke-dasharray:none;stroke-opacity:1;visibility:visible" visibility="hidden"/><path d="m367.234 765.689 5.305-1.57" style="fill:none;stroke:red;stroke-width:.999997;stroke-linecap:round;stroke-linejoin:round;stroke-miterlimit:10;stroke-dasharray:none;stroke-opacity:1;visibility:visible" visibility="hidden"/><path d="M374.268 756a1.047 1.047 0 0 0-.593.023" style="fill:none;stroke:red;stroke-width:.666665;stroke-linecap:round;stroke-linejoin:round;stroke-miterlimit:10;stroke-dasharray:none;stroke-opacity:1;visibility:visible" visibility="hidden"/><path d="M366.08 758.878a.383.383 0 0 0 .023.07l.069.061.108.056.144.043M367.182 765.708l.405-.134M367.586 765.574l3.244-3.252M372.371 761.468l-5.947-2.36M373.112 764.08v-.003M373.884 763.926a.569.569 0 0 0 .22-.13M374.16 763.76l-.019.018-.037.016M370.887 762.29l-.019.014-.037.016M371.208 762.06a1.628 1.628 0 0 0-.377.26M374.778 758.278l-.659-.113-.768-.04-.797.037-.742.108-.6.164-.401.212-.149.228.11.226.362.194.574.143.728.079h.796l.778-.072.682-.138.504-.193.28-.223.016-.23-.238-.21-.476-.172M372.487 762.298l.033.006.04-.008M372.56 762.294a2.507 2.507 0 0 0 1.23-.038M373.874 762.254l-.04.006-.044-.003M373.111 764.074l.157.016M372.54 764.118a.433.433 0 0 1 .094-.024l.118-.02a2.845 2.845 0 0 1 .31 0c.017 0 .034.003.052.006M373.484 764.058l.4-.133" style="fill:none;stroke:red;stroke-width:.999997;stroke-linecap:round;stroke-linejoin:round;stroke-miterlimit:10;stroke-dasharray:none;stroke-opacity:1;visibility:visible" visibility="hidden"/><path d="m373.983 756.01-.161-.013-.147.025M373.983 756.012l.155-.027.13.015" style="fill:none;stroke:red;stroke-width:.666665;stroke-linecap:round;stroke-linejoin:round;stroke-miterlimit:10;stroke-dasharray:none;stroke-opacity:1;visibility:visible" visibility="hidden"/><path d="m374.104 763.796 2.236-2.226M372.54 764.118a.252.252 0 0 0 .132-.242M372.671 763.877l.021-1.552" style="fill:none;stroke:red;stroke-width:.999997;stroke-linecap:round;stroke-linejoin:round;stroke-miterlimit:10;stroke-dasharray:none;stroke-opacity:1;visibility:visible" visibility="hidden"/><path d="m376.092 803.08 17.368 5.774M392.463 866.337l-1.715 98.813M390.748 965.152l-1.381-.508M391.85 986.328l.38-21.596M392.23 964.732l-1.482.42M390.382 986.811l-.798 45.74" style="fill:none;stroke:red;stroke-width:.999997;stroke-linecap:round;stroke-linejoin:round;stroke-miterlimit:4;stroke-dasharray:none;stroke-opacity:1;visibility:visible" visibility="hidden"/><path d="M391.85 986.328h0" style="fill:none;stroke:red;stroke-width:.666665;stroke-linecap:round;stroke-linejoin:round;stroke-miterlimit:4;stroke-dasharray:none;stroke-opacity:1;visibility:visible" visibility="hidden"/><path d="m402.376 806.907-8.916 1.948" style="fill:none;stroke:red;stroke-width:.999997;stroke-linecap:round;stroke-linejoin:round;stroke-miterlimit:4;stroke-dasharray:none;stroke-opacity:1;visibility:visible" visibility="hidden"/><path d="M391.85 986.328h0M384.922 800.473l-.012.013-.014.024-.012.036" style="fill:none;stroke:red;stroke-width:.666665;stroke-linecap:round;stroke-linejoin:round;stroke-miterlimit:4;stroke-dasharray:none;stroke-opacity:1;visibility:visible" visibility="hidden"/><path d="m269.858 774.769-28.45-187.719-10.449 1.203" style="fill:none;stroke:red;stroke-width:.999997;stroke-linecap:round;stroke-linejoin:round;stroke-miterlimit:4;stroke-dasharray:none;stroke-opacity:1;visibility:visible" visibility="hidden"/><path d="m246.475 971.294.367-.14.341-.166.344-.202.328-.24.306-.28.289-.306.28-.34.253-.365.242-.407.225-.428.205-.473.178-.479.164-.508.138-.53.116-.558.099-.584.077-.596 19.431-189.924" style="fill:none;stroke:red;stroke-width:.999997;stroke-linecap:round;stroke-linejoin:round;stroke-miterlimit:4;stroke-dasharray:none;stroke-opacity:1;visibility:visible" visibility="hidden"/><path d="m252.645 817.52-.115.228-.101.255-.076.277-.064.291-.024.319-.015.327.015.341.035.344.053.341.089.331.101.328.127.318.139.302.151.281.177.252.18.227.2.19.203.181.203.125.215.089" style="fill:none;stroke:red;stroke-width:1.66666;stroke-linecap:round;stroke-linejoin:round;stroke-miterlimit:4;stroke-dasharray:none;stroke-opacity:1;visibility:visible" visibility="hidden"/><path d="m255.609 822.282.113-.227.101-.252.078-.28.062-.293.038-.315v-.33l-.012-.342-.026-.34-.062-.346-.091-.327-.1-.33-.127-.316-.138-.305-.155-.276-.175-.253-.178-.231-.203-.204-.201-.16-.203-.131-.216-.102-.215-.05-.204-.022-.201.023-.19.05-.191.101-.163.131-.165.159-.14.206" style="fill:none;stroke:red;stroke-width:.666665;stroke-linecap:round;stroke-linejoin:round;stroke-miterlimit:4;stroke-dasharray:none;stroke-opacity:1;visibility:visible" visibility="hidden"/><path d="m255.431 788.615-.101.252-.09.293-.05.302-.037.318-.014.327.014.345.036.342.064.343.09.34.102.33.113.315.152.305.15.28.179.251.189.232.191.185.203.167.215.125.213.103M254.138 822.866l.203.064.214.027.205-.028.19-.05.189-.099.164-.128.152-.166.155-.203" style="fill:none;stroke:red;stroke-width:1.66666;stroke-linecap:round;stroke-linejoin:round;stroke-miterlimit:4;stroke-dasharray:none;stroke-opacity:1;visibility:visible" visibility="hidden"/><path d="m258.52 793.149.13-.227.1-.265.076-.279.061-.305.039-.33v-.333l-.012-.337-.027-.343-.061-.34-.09-.343-.103-.33-.124-.317-.14-.303-.164-.281-.165-.253-.19-.226-.203-.19-.204-.169-.201-.123-.215-.102-.216-.05-.204-.015-.202.028-.202.061-.177.09-.177.14-.166.174-.137.205-.115.23" style="fill:none;stroke:red;stroke-width:.666665;stroke-linecap:round;stroke-linejoin:round;stroke-miterlimit:4;stroke-dasharray:none;stroke-opacity:1;visibility:visible" visibility="hidden"/><path d="m257.051 793.769.203.051.216.014.204-.027.19-.049.188-.101.178-.14.152-.164.14-.204" style="fill:none;stroke:red;stroke-width:1.66666;stroke-linecap:round;stroke-linejoin:round;stroke-miterlimit:4;stroke-dasharray:none;stroke-opacity:1;visibility:visible" visibility="hidden"/><path d="m250.338 585.924-8.93 1.088M248.957 676.186l.177.064.19.024h.178l.164-.052.179-.074.15-.112.14-.142.127-.177.113-.216.09-.227.074-.252.054-.268.022-.278.015-.29-.015-.306-.035-.303-5.18-34.174" style="fill:none;stroke:red;stroke-width:.999997;stroke-linecap:round;stroke-linejoin:round;stroke-miterlimit:4;stroke-dasharray:none;stroke-opacity:1;visibility:visible" visibility="hidden"/><path d="M241.409 587.012v.039" style="fill:none;stroke:red;stroke-width:.666665;stroke-linecap:round;stroke-linejoin:round;stroke-miterlimit:4;stroke-dasharray:none;stroke-opacity:1;visibility:visible" visibility="hidden"/><path d="m278.61 773.048-8.752 1.72" style="fill:none;stroke:red;stroke-width:.999997;stroke-linecap:round;stroke-linejoin:round;stroke-miterlimit:4;stroke-dasharray:none;stroke-opacity:1;visibility:visible" visibility="hidden"/><path d="m239.533 586.188 9.273-1.065" style="fill:none;stroke:red;stroke-width:1.99999;stroke-linecap:round;stroke-linejoin:round;stroke-miterlimit:4;stroke-dasharray:none;stroke-opacity:1;visibility:visible" visibility="hidden"/><path d="M248.806 585.113v.011M239.533 586.188h0M232.24 587.077h0M239.533 586.188l-7.295.888" style="fill:none;stroke:red;stroke-width:.666665;stroke-linecap:round;stroke-linejoin:round;stroke-miterlimit:4;stroke-dasharray:none;stroke-opacity:1;visibility:visible" visibility="hidden"/><path d="m382.794 965.467.304.101.329.087.355.077.368.076.392.05.417.052.419.026.43.024h.875l.43-.024.43-.026.419-.052.404-.05.381-.062.368-.09.341-.089M382.794 965.467l-126.567-46.346M392.218 964.768l-2.76.8M368.19 808.243l-90.592-25.478M392.89 751.389l-90.22 21.691M294.515 775.04l-16.525 3.975" style="fill:none;stroke:red;stroke-width:.999997;stroke-linecap:round;stroke-linejoin:round;stroke-miterlimit:4;stroke-dasharray:none;stroke-opacity:1;visibility:visible" visibility="hidden"/><path d="m503.963 769.626 6.55-2" style="fill:none;stroke:red;stroke-width:1.99999;stroke-linecap:round;stroke-linejoin:round;stroke-miterlimit:4;stroke-dasharray:none;stroke-opacity:1;visibility:visible" visibility="hidden"/><path d="m502.556 770.616 17.634 5.182 8.005-2.497M523.47 985.112l-3.283-209.314" style="fill:none;stroke:red;stroke-width:.999997;stroke-linecap:round;stroke-linejoin:round;stroke-miterlimit:4;stroke-dasharray:none;stroke-opacity:1;visibility:visible" visibility="hidden"/><path d="m529.272 940.174-.013-.94M529.272 940.174l.024-.014" style="fill:none;stroke:red;stroke-width:.666665;stroke-linecap:round;stroke-linejoin:round;stroke-miterlimit:4;stroke-dasharray:none;stroke-opacity:1;visibility:visible" visibility="hidden"/><path d="m503.392 769.717.19-.05.191-.028.189-.013" style="fill:none;stroke:red;stroke-width:1.99999;stroke-linecap:round;stroke-linejoin:round;stroke-miterlimit:4;stroke-dasharray:none;stroke-opacity:1;visibility:visible" visibility="hidden"/><path d="m407.732 742.28-.658 8.794" style="fill:none;stroke:red;stroke-width:.999997;stroke-linecap:round;stroke-linejoin:round;stroke-miterlimit:4;stroke-dasharray:none;stroke-opacity:1;visibility:visible" visibility="hidden"/><path d="m403.25 801.938-.43 5.765" style="fill:none;stroke:red;stroke-width:1.99999;stroke-linecap:round;stroke-linejoin:round;stroke-miterlimit:4;stroke-dasharray:none;stroke-opacity:1;visibility:visible" visibility="hidden"/><path d="m373.243 565.845-.013-.024v-.011M373.23 565.81l8.106-1.687M407.732 742.28l7.894-2.214M362.792 567.064l10.451-1.219M373.243 565.845l34.49 176.435" style="fill:none;stroke:red;stroke-width:.999997;stroke-linecap:round;stroke-linejoin:round;stroke-miterlimit:4;stroke-dasharray:none;stroke-opacity:1;visibility:visible" visibility="hidden"/><path d="M379.944 563.413h-.05l-.038.014M363.96 565.884l6.625-1.367" style="fill:none;stroke:red;stroke-width:1.99999;stroke-linecap:round;stroke-linejoin:round;stroke-miterlimit:4;stroke-dasharray:none;stroke-opacity:1;visibility:visible" visibility="hidden"/><path d="M370.584 564.517h.012" style="fill:none;stroke:red;stroke-width:.666665;stroke-linecap:round;stroke-linejoin:round;stroke-miterlimit:4;stroke-dasharray:none;stroke-opacity:1;visibility:visible" visibility="hidden"/><path d="m363.96 565.884-.039.013h-.026" style="fill:none;stroke:red;stroke-width:1.99999;stroke-linecap:round;stroke-linejoin:round;stroke-miterlimit:4;stroke-dasharray:none;stroke-opacity:1;visibility:visible" visibility="hidden"/><path d="m502.696 778-.14.038" style="fill:none;stroke:red;stroke-width:.666665;stroke-linecap:round;stroke-linejoin:round;stroke-miterlimit:4;stroke-dasharray:none;stroke-opacity:1;visibility:visible" visibility="hidden"/><path d="m502.619 781.306-.063-3.268-109.578-27.726" style="fill:none;stroke:red;stroke-width:.999997;stroke-linecap:round;stroke-linejoin:round;stroke-miterlimit:4;stroke-dasharray:none;stroke-opacity:1;visibility:visible" visibility="hidden"/><path d="m529.07 920.006-.067-.013M529.359 940.183l-.29-20.177M529.07 920.006l2.48-.912" style="fill:none;stroke:red;stroke-width:.666665;stroke-linecap:round;stroke-linejoin:round;stroke-miterlimit:4;stroke-dasharray:none;stroke-opacity:1;visibility:visible" visibility="hidden"/><path d="m532.895 917.94-.015.13-.05.136-.089.141-.114.14-.151.126-.19.127-.218.125-.238.114-.279.115M505.217 912.28l-51.911-16.825M449.532 894.23l-48.5-15.72" style="fill:none;stroke:red;stroke-width:.999997;stroke-linecap:round;stroke-linejoin:round;stroke-miterlimit:4;stroke-dasharray:none;stroke-opacity:1;visibility:visible" visibility="hidden"/><path d="m251.58 593.067-.015.013h-.012M360.386 574.955h0M367.328 573.841h0-.012M247.249 675.35l.138.151.153.129.151.1.164.05.152.026.166-.013.137-.05.14-.086.128-.129.113-.154.102-.177.076-.201.05-.228.038-.254.013-.254v-.267l-.025-.265M238.673 605.215l-.053-.252-.075-.27-.088-.238-.102-.215-.125-.203-.14-.18-.14-.15-.151-.115-.154-.075-.163-.05h-.152l-.151.023-.154.066-.125.099-.129.128-.113.164-.09.192M248.946 673.728l-10.272-68.513M255.506 593.03l1.344-.253 1.38-.254 1.405-.266 1.431-.265 1.47-.267 1.496-.268 1.518-.277 1.559-.277 1.571-.279 1.607-.293 1.636-.291 1.659-.29 1.684-.293 1.71-.301 1.736-.305 1.748-.304 1.786-.307 1.81-.316 1.839-.315 1.849-.318 1.872-.315 1.901-.317 1.926-.329 1.938-.33 1.964-.33 1.989-.33 2-.34 2.026-.33 2.039-.341 2.066-.342 2.089-.344 2.103-.343 2.113-.352 2.13-.341 2.153-.355 2.18-.357 2.18-.355 2.202-.353 2.218-.357 2.227-.354 2.243-.367 2.268-.354 2.267-.367 2.292-.368 2.305-.367 2.307-.368 2.33-.365 2.329-.368 2.357-.368 2.357-.367 2.367-.367 2.384-.38 2.38-.367 2.404-.367M370.115 573.965l-.685.115-.71.115-.72.128-.75.114-.759.124-.773.129-.786.125-.809.125-.81.13-.827.125-.835.14M255.506 593.03l-.493.09-.507.1-.544.103-.57.101-.598.099-.632.114-.645.103M370.963 573.828l-.848.139M360.386 574.955l-2.407.365-2.396.383-2.392.366-2.381.381-2.382.366-2.356.368-2.356.38-2.33.367-2.33.368-2.319.366-2.304.368-2.283.354-2.279.368-2.266.369-2.243.352-2.228.367-2.23.357-2.205.353-2.177.355-2.18.353-2.153.359-2.14.34-2.116.355-2.103.342-2.089.339-2.066.344-2.052.341-2.026.344-2 .328-1.99.331-1.964.341-1.95.315-1.926.33-1.9.332-1.886.314-1.863.319-1.836.314-1.813.318-1.784.305-1.772.301-1.738.307-1.721.303-1.685.292-1.672.292-1.634.289-1.609.292-1.596.279-1.56.29-1.53.266-1.496.277-1.482.268-1.443.268-1.417.265-1.396.254-1.355.252M360.386 574.955l.76-.128.748-.115.721-.112.721-.115.711-.113.684-.115.683-.1.66-.117.632-.099.621-.101M367.328 573.841l.836-.14M251.415 593.105l.088-.013.077-.025" style="fill:none;stroke:red;stroke-width:.666665;stroke-linecap:round;stroke-linejoin:round;stroke-miterlimit:4;stroke-dasharray:none;stroke-opacity:1;visibility:visible" visibility="hidden"/><path d="m401.479 805.931.213.089.203.102.165.138.14.141.1.164.051.164.027.178M373.015 1012.918v.672l.025.694.062.696.078.698.102.698.138.708.151.708.192.699.201.697.23.683.252.685.264.659.293.645.317.634.33.62.353.596.368.582.38.544.405.532.407.495.417.47.443.441.443.404.444.382.456.342.469.305.47.265.466.23M373.446 983.667l-.43 29.25M381.172 1028.702l8.412 3.848 8.626-3.051M376.092 803.08l-.197 13.416M375.475 845.006 373.8 958.907" style="fill:none;stroke:red;stroke-width:1.99999;stroke-linecap:round;stroke-linejoin:round;stroke-miterlimit:4;stroke-dasharray:none;stroke-opacity:1;visibility:visible" visibility="hidden"/><path d="M384.922 800.473h0" style="fill:none;stroke:red;stroke-width:.666665;stroke-linecap:round;stroke-linejoin:round;stroke-miterlimit:4;stroke-dasharray:none;stroke-opacity:1;visibility:visible" visibility="hidden"/><path d="m258.914 962.074-.077.593-.102.57-.113.559-.139.529-.163.51-.19.491-.204.458-.215.43-.241.406-.265.368-.279.34-.292.306-.317.278-.318.228-.339.215-.357.167-.353.125M261.093 941.174l-2.179 20.901M250.338 585.961l28.272 187.085-15.099 144.894M243.283 970.99l.367.15.367.128.366.086.357.065.367.037h.355l.341-.024.343-.062.33-.075M253.782 775.594l-18.935 191.557M253.782 775.594l.09-1.002.062-1.014.04-1.025.025-1.04-.014-1.053-.023-1.05-.064-1.05-.077-1.066-.102-1.061-.126-1.076M230.96 588.255l22.634 176.903M234.847 967.152l8.436 3.839M384.922 800.473l-7.828 1.685M384.922 800.473l16.556 5.457M377.092 802.157l-.214.062-.19.076-.166.102-.152.113-.114.125-.089.14-.05.151-.025.152" style="fill:none;stroke:red;stroke-width:1.99999;stroke-linecap:round;stroke-linejoin:round;stroke-miterlimit:4;stroke-dasharray:none;stroke-opacity:1;visibility:visible" visibility="hidden"/><path d="M250.338 585.961v-.038" style="fill:none;stroke:red;stroke-width:.666665;stroke-linecap:round;stroke-linejoin:round;stroke-miterlimit:4;stroke-dasharray:none;stroke-opacity:1;visibility:visible" visibility="hidden"/><path d="m232.24 587.077-.23.036-.2.063-.205.079-.166.114-.164.112-.124.14-.09.151-.064.152-.038.167v.164" style="fill:none;stroke:red;stroke-width:1.99999;stroke-linecap:round;stroke-linejoin:round;stroke-miterlimit:4;stroke-dasharray:none;stroke-opacity:1;visibility:visible" visibility="hidden"/><path d="M239.533 586.188h0" style="fill:none;stroke:red;stroke-width:.666665;stroke-linecap:round;stroke-linejoin:round;stroke-miterlimit:4;stroke-dasharray:none;stroke-opacity:1;visibility:visible" visibility="hidden"/><path d="m376.043 806.487-98.065-27.371M375.18 864.97l-102.814-32.073M239.533 586.188l-7.295.888M254.949 968.647l-8.474 2.648M250.338 585.924l-.05-.15-.078-.143-.1-.123-.14-.115-.152-.102-.176-.078-.19-.062-.218-.036-.213-.015-.215.015" style="fill:none;stroke:red;stroke-width:1.99999;stroke-linecap:round;stroke-linejoin:round;stroke-miterlimit:4;stroke-dasharray:none;stroke-opacity:1;visibility:visible" visibility="hidden"/><path d="m262.423 917.55-5.51 1.393M256.913 918.943l-.686.178M256.227 919.12l-1.507 14.619-.493 4.837" style="fill:none;stroke:red;stroke-width:.999997;stroke-linecap:round;stroke-linejoin:round;stroke-miterlimit:4;stroke-dasharray:none;stroke-opacity:1;visibility:visible" visibility="hidden"/><path d="m391.85 986.368-2.76.82" style="fill:none;stroke:red;stroke-width:1.99999;stroke-linecap:round;stroke-linejoin:round;stroke-miterlimit:4;stroke-dasharray:none;stroke-opacity:1;visibility:visible" visibility="hidden"/><path d="m391.85 986.368.366-21.598" style="fill:none;stroke:red;stroke-width:.999997;stroke-linecap:round;stroke-linejoin:round;stroke-miterlimit:4;stroke-dasharray:none;stroke-opacity:1;visibility:visible" visibility="hidden"/><path d="m254.949 938.85 127.501 48.226M389.09 987.187l-.343.088-.367.092-.378.063-.407.062-.42.039-.416.039-.43.01-.446.014-.429-.014-.432-.01-.416-.04-.406-.051-.393-.05-.38-.074-.356-.089-.328-.09-.292-.101" style="fill:none;stroke:red;stroke-width:1.99999;stroke-linecap:round;stroke-linejoin:round;stroke-miterlimit:4;stroke-dasharray:none;stroke-opacity:1;visibility:visible" visibility="hidden"/><path d="m392.218 964.768-.064-.01" style="fill:none;stroke:red;stroke-width:.999997;stroke-linecap:round;stroke-linejoin:round;stroke-miterlimit:4;stroke-dasharray:none;stroke-opacity:1;visibility:visible" visibility="hidden"/><path d="m373.812 958.084-111.39-40.533M367.884 804.206l22.586-5.864" style="fill:none;stroke:red;stroke-width:1.99999;stroke-linecap:round;stroke-linejoin:round;stroke-miterlimit:4;stroke-dasharray:none;stroke-opacity:1;visibility:visible" visibility="hidden"/><path d="m393.522 747.449 3.318 1.773" style="fill:none;stroke:red;stroke-width:.999997;stroke-linecap:round;stroke-linejoin:round;stroke-miterlimit:4;stroke-dasharray:none;stroke-opacity:1;visibility:visible" visibility="hidden"/><path d="m514.919 981.68-.47-.202-.478-.254-.468-.268-.483-.314-.456-.342-.455-.368-.456-.405-.432-.43-.43-.457-.419-.493-.407-.508-.377-.519-.367-.557-.354-.57-.344-.583-.304-.607-.303-.61-.268-.633-.253-.632-.226-.646-.204-.659-.177-.659-.164-.644-.127-.66-.102-.66-.075-.645-.05-.647-.025-.632M502.696 778l-.14-7.383M506.244 967.076l-2.432-129.706M530.575 939.727l.609 42.65M514.919 981.68l8.551 3.432M531.184 982.378l-7.713 2.734M528.195 773.3l.137 9.54M528.707 809.167l1.576 110.344M393.522 747.449l-115.115 27.513" style="fill:none;stroke:red;stroke-width:1.99999;stroke-linecap:round;stroke-linejoin:round;stroke-miterlimit:4;stroke-dasharray:none;stroke-opacity:1;visibility:visible" visibility="hidden"/><path d="m529.259 939.232-.279-19.24 1.303-.479" style="fill:none;stroke:red;stroke-width:.999997;stroke-linecap:round;stroke-linejoin:round;stroke-miterlimit:4;stroke-dasharray:none;stroke-opacity:1;visibility:visible" visibility="hidden"/><path d="m502.556 770.616.014-.164.05-.152.1-.154.128-.126.15-.126.192-.101.202-.076M400.21 922.691l.254-.33.24-.342.214-.379.204-.394.178-.427.164-.445.139-.484.115-.48.101-.505.076-.531.052-.547M414.636 752.973l.99-12.91M405.15 876.18l.822-10.59M401.946 917.827l1.518-19.784M415.626 740.064l-34.278-175.901M510.524 767.54l16.82 4.888M503.392 769.717l7.133-2.177M527.345 772.428l.206.076.188.1.15.116.142.124.088.152.061.153.015.15" style="fill:none;stroke:red;stroke-width:1.99999;stroke-linecap:round;stroke-linejoin:round;stroke-miterlimit:4;stroke-dasharray:none;stroke-opacity:1;visibility:visible" visibility="hidden"/><path d="m387.544 801.334.164-2.27" style="fill:none;stroke:red;stroke-width:.999997;stroke-linecap:round;stroke-linejoin:round;stroke-miterlimit:4;stroke-dasharray:none;stroke-opacity:1;visibility:visible" visibility="hidden"/><path d="m381.336 564.124-.05-.15-.088-.143-.115-.123-.14-.103-.177-.088-.19-.065-.204-.039-.212-.01-.217.01M381.336 564.124l.014.013v.026M391.166 733.452l.15 1 .142 1.002.112 1 .089.987.064.99.037.986.014.975v.964l-.039.95-.05.95M364.048 574.37l-1.254-7.305M391.166 733.452l-12.59-73.795M391.356 747.968l.328-4.711" style="fill:none;stroke:red;stroke-width:1.99999;stroke-linecap:round;stroke-linejoin:round;stroke-miterlimit:4;stroke-dasharray:none;stroke-opacity:1;visibility:visible" visibility="hidden"/><path d="M370.596 564.517h0" style="fill:none;stroke:red;stroke-width:.666665;stroke-linecap:round;stroke-linejoin:round;stroke-miterlimit:4;stroke-dasharray:none;stroke-opacity:1;visibility:visible" visibility="hidden"/><path d="m390.051 798.227 16.428 4.611M363.894 565.897l6.701-1.38M379.944 563.413l-9.348 1.104M363.894 565.897l-.202.05-.192.078-.164.088-.15.112-.14.115-.102.14-.089.14-.05.152-.025.139.012.153" style="fill:none;stroke:red;stroke-width:1.99999;stroke-linecap:round;stroke-linejoin:round;stroke-miterlimit:4;stroke-dasharray:none;stroke-opacity:1;visibility:visible" visibility="hidden"/><path d="m398.184 748.84-5.206 1.474" style="fill:none;stroke:red;stroke-width:.999997;stroke-linecap:round;stroke-linejoin:round;stroke-miterlimit:4;stroke-dasharray:none;stroke-opacity:1;visibility:visible" visibility="hidden"/><path d="m398.184 748.84 104.45 26.26" style="fill:none;stroke:red;stroke-width:1.99999;stroke-linecap:round;stroke-linejoin:round;stroke-miterlimit:4;stroke-dasharray:none;stroke-opacity:1;visibility:visible" visibility="hidden"/><path d="m401.059 876.889 3.104-1.027M392.978 750.312l-3.408 47.434.48.484" style="fill:none;stroke:red;stroke-width:.999997;stroke-linecap:round;stroke-linejoin:round;stroke-miterlimit:4;stroke-dasharray:none;stroke-opacity:1;visibility:visible" visibility="hidden"/><path d="m530.575 939.724 1.268-.478" style="fill:none;stroke:red;stroke-width:1.99999;stroke-linecap:round;stroke-linejoin:round;stroke-miterlimit:4;stroke-dasharray:none;stroke-opacity:1;visibility:visible" visibility="hidden"/><path d="m529.359 940.183 1.216-.459" style="fill:none;stroke:red;stroke-width:.999997;stroke-linecap:round;stroke-linejoin:round;stroke-miterlimit:4;stroke-dasharray:none;stroke-opacity:1;visibility:visible" visibility="hidden"/><path d="m401.726 897.465 42.088 14.088M447.012 912.625l58.572 19.605" style="fill:none;stroke:red;stroke-width:1.99999;stroke-linecap:round;stroke-linejoin:round;stroke-miterlimit:4;stroke-dasharray:none;stroke-opacity:1;visibility:visible" visibility="hidden"/><path d="m529.296 940.16.063.024" style="fill:none;stroke:red;stroke-width:.666665;stroke-linecap:round;stroke-linejoin:round;stroke-miterlimit:4;stroke-dasharray:none;stroke-opacity:1;visibility:visible" visibility="hidden"/><path d="m533.185 938.068-.292-20.127M531.639 916.918l.251.088.23.103.204.098.164.115.15.115.116.113.076.125.051.128.012.139M505.14 908.378l-51.833-16.692M450.319 890.726l-46.156-14.863M531.639 916.918l-1.394-.459M531.843 939.246l.265-.112.24-.115.216-.128.19-.124.152-.141.127-.138.075-.14.052-.141.027-.14" style="fill:none;stroke:red;stroke-width:1.99999;stroke-linecap:round;stroke-linejoin:round;stroke-miterlimit:4;stroke-dasharray:none;stroke-opacity:1;visibility:visible" visibility="hidden"/><path d="m370.584 573.397-2.42.303" style="fill:none;stroke:red;stroke-width:.666665;stroke-linecap:round;stroke-linejoin:round;stroke-miterlimit:4;stroke-dasharray:none;stroke-opacity:1;visibility:visible" visibility="hidden"/><path d="m246.703 674.006.051.252.063.256.088.24.102.216.114.203.128.177M236.569 604.14l-.076.213-.05.227-.038.255-.015.253.015.252.025.27 10.273 68.395M237.634 602.91l-.15.038-.156.061-.149.102-.129.114-.125.155-.102.176-.102.201M247.5 675.668l.152.161.153.141.152.114.163.09.166.047.164.029.165-.01" style="fill:none;stroke:red;stroke-width:1.99999;stroke-linecap:round;stroke-linejoin:round;stroke-miterlimit:4;stroke-dasharray:none;stroke-opacity:1;visibility:visible" visibility="hidden"/><path d="m370.584 573.397.063.011.063.025M368.163 573.7h0" style="fill:none;stroke:red;stroke-width:.666665;stroke-linecap:round;stroke-linejoin:round;stroke-miterlimit:4;stroke-dasharray:none;stroke-opacity:1;visibility:visible" visibility="hidden"/><path d="m247.249 675.35.251.318M238.406 602.81l-.772.1M249.062 676.208l-.445.07" style="fill:none;stroke:red;stroke-width:1.99999;stroke-linecap:round;stroke-linejoin:round;stroke-miterlimit:4;stroke-dasharray:none;stroke-opacity:1;visibility:visible" visibility="hidden"/><path d="m236.569 604.14.151-.383" style="fill:none;stroke:red;stroke-width:.999997;stroke-linecap:round;stroke-linejoin:round;stroke-miterlimit:4;stroke-dasharray:none;stroke-opacity:1;visibility:visible" visibility="hidden"/><path d="m384.212 658.567 2.938-.595M384.212 658.566l-.544.115-.544.101-.557.115-.584.113-.583.114-.596.114-.606.115-.622.112-.62.128-.634.113-.634.115-.557.115-.57.1-.568.101M375.992 660.137l-1.86.344-1.839.329-1.849.34-1.836.344-1.838.328-1.823.342-1.824.342-1.812.328-1.797.342-1.799.33-1.8.342-1.773.33-1.774.342-1.773.33-1.747.328-1.748.328-1.749.344-1.721.328-1.724.332-1.722.327-1.698.33-1.698.331-1.685.316-1.67.328-1.674.331-1.645.317-1.647.328-1.633.32-1.621.313-1.623.329-1.596.317-1.595.316-1.572.317-1.57.318-1.558.305-1.546.315-1.531.317-1.508.305-1.508.302-1.496.318-1.48.302-1.456.305-1.457.293-1.444.303-1.433.305-1.406.288-1.394.292-1.391.306-1.369.29-1.355.28-1.33.29-1.33.293-1.305.279-1.291.278-1.28.28-1.267.277-1.24.279-1.23.28-1.214.263-1.204.267-1.18.265-1.164.267-1.14.265-1.128.268-1.115.252-.974.23-.951.213-.937.23-.925.214-.923.216M270.795 681.378l-.365.102-.408.09-.419.086-.43.102-.443.102-.468.1-.495.116-.493.1-.52.114-.532.102-.544.114-.468.102-.255.05" style="fill:none;stroke:red;stroke-width:1.99999;stroke-linecap:round;stroke-linejoin:round;stroke-miterlimit:4;stroke-dasharray:none;stroke-opacity:1;visibility:visible" visibility="hidden"/><path d="m251.415 593.105.139-.025M251.554 593.08l1.065-.203 1.088-.204 1.103-.2 1.115-.202 1.141-.218 1.152-.213 1.165-.203 1.191-.216 1.204-.229 1.228-.213 1.241-.216 1.254-.227 1.266-.23 1.293-.228 1.291-.227 1.319-.227 1.343-.241 1.341-.227 1.368-.243 1.381-.24 1.394-.241 1.406-.24 1.418-.252 1.444-.243 1.444-.253 1.47-.241 1.468-.254 1.495-.252 1.508-.256 1.519-.265 1.533-.252 1.547-.253 1.545-.266 1.57-.265 1.582-.255 1.597-.265 1.607-.267 1.61-.265 1.634-.279 1.633-.268 1.648-.266 1.659-.278 1.673-.266 1.686-.279 1.694-.279 1.698-.278 1.712-.279 1.72-.279 1.737-.277 1.735-.28 1.748-.279 1.76-.278 1.761-.291 1.788-.276 1.771-.295 1.8-.276 1.797-.294 1.811-.291 1.814-.277 1.821-.291 1.84-.292 1.833-.292 1.837-.292 1.864-.29 1.85-.294 1.619-.252 1.635-.252 1.632-.255 1.636-.253 1.634-.252 1.647-.253M360.386 574.955l.608-.102.594-.089.596-.088.582-.101.584-.09.57-.088.555-.087.547-.09.53-.09.532-.09.42-.061.406-.076.405-.063M367.316 573.841l.848-.14" style="fill:none;stroke:red;stroke-width:.666665;stroke-linecap:round;stroke-linejoin:round;stroke-miterlimit:4;stroke-dasharray:none;stroke-opacity:1;visibility:visible" visibility="hidden"/><path d="m373.8 958.907 15.567 5.737" style="fill:none;stroke:red;stroke-width:.999997;stroke-linecap:round;stroke-linejoin:round;stroke-miterlimit:4;stroke-dasharray:none;stroke-opacity:1;visibility:visible" visibility="hidden"/><path d="M502.696 778h0l.05 3.27" style="fill:none;stroke:red;stroke-width:1.99999;stroke-linecap:round;stroke-linejoin:round;stroke-miterlimit:4;stroke-dasharray:none;stroke-opacity:1;visibility:visible" visibility="hidden"/><path d="M529.296 940.16h0l-.024-.013" style="fill:none;stroke:red;stroke-width:.666665;stroke-linecap:round;stroke-linejoin:round;stroke-miterlimit:4;stroke-dasharray:none;stroke-opacity:1;visibility:visible" visibility="hidden"/><path d="M238.406 602.81h.177l.18.025.174.062.165.1.179.127.153.167.15.189.141.215.125.229.101.252.102.267.064.29.063.279 5.219 34.39" style="fill:none;stroke:red;stroke-width:.999997;stroke-linecap:round;stroke-linejoin:round;stroke-miterlimit:4;stroke-dasharray:none;stroke-opacity:1;visibility:visible" visibility="hidden"/><path d="m370.71 573.433.088.052.076.102.052.112.037.128M370.963 573.828l16.377 83.639M387.34 657.465l.012.125-.012.118-.025.098-.039.075-.062.065-.066.027" style="fill:none;stroke:red;stroke-width:.666665;stroke-linecap:round;stroke-linejoin:round;stroke-miterlimit:4;stroke-dasharray:none;stroke-opacity:1;visibility:visible" visibility="hidden"/><path d="m402.376 806.907-.22 11.756M400.884 886.67l-2.674 142.828" style="fill:none;stroke:red;stroke-width:1.99999;stroke-linecap:round;stroke-linejoin:round;stroke-miterlimit:10;stroke-dasharray:none;stroke-opacity:1;visibility:visible" visibility="hidden"/><path d="m299.1 779.48 5.471-.788M372.56 762.294l2.218-4.016M372.371 761.468l2.407-3.19M370.831 762.32l5.509-.75" style="fill:none;stroke:red;stroke-width:.999997;stroke-linecap:round;stroke-linejoin:round;stroke-miterlimit:10;stroke-dasharray:none;stroke-opacity:1;visibility:visible" visibility="hidden"/><path d="m405.15 876.18-12.687-9.843M391.85 986.368l-1.468.443M278.407 774.962l.203-1.914M376.092 803.08l-7.902 5.163M295.167 783.076l-17.569-.311M392.978 750.314l-.088 1.075M528.195 773.299l-8.008 2.499M415.626 740.063l-8.552 11.011" style="fill:none;stroke:red;stroke-width:.999997;stroke-linecap:round;stroke-linejoin:round;stroke-miterlimit:4;stroke-dasharray:none;stroke-opacity:1;visibility:visible" visibility="hidden"/><path d="m387.544 801.334 15.706.604" style="fill:none;stroke:red;stroke-width:1.99999;stroke-linecap:round;stroke-linejoin:round;stroke-miterlimit:4;stroke-dasharray:none;stroke-opacity:1;visibility:visible" visibility="hidden"/><path d="m449.532 894.23 3.774 1.225M453.306 895.455l-3.774-1.225" style="fill:none;stroke:red;stroke-width:.999997;stroke-linecap:round;stroke-linejoin:round;stroke-miterlimit:4;stroke-dasharray:none;stroke-opacity:1;visibility:visible" visibility="hidden"/><path d="m391.85 986.328-18.404-2.661M254.227 938.576l6.866 2.598M256.227 919.12l7.284-1.18M376.092 803.08l-.049 3.407M377.092 802.157l-9.208 2.049M520.187 775.798l8.145 7.042M278.61 773.048l-.203 1.914M407.732 742.28l6.904 10.693M400.884 886.67l4.266-10.49" style="fill:none;stroke:red;stroke-width:1.99999;stroke-linecap:round;stroke-linejoin:round;stroke-miterlimit:4;stroke-dasharray:none;stroke-opacity:1;visibility:visible" visibility="hidden"/><path d="m376.092 803.08 11.452-1.746M402.82 807.703l-15.112-8.639" style="fill:none;stroke:red;stroke-width:.999997;stroke-linecap:round;stroke-linejoin:round;stroke-miterlimit:4;stroke-dasharray:none;stroke-opacity:1;visibility:visible" visibility="hidden"/><path d="m370.963 573.828-6.915.542M387.34 657.467l-8.764 2.19M392.978 750.312l-1.622-2.344M502.556 770.616l.078 4.484M447.012 912.625l-3.198-1.072M443.814 911.553l3.198 1.072M450.319 890.726l2.988.96M453.307 891.686l-2.988-.96M249.062 676.208l15.893 6.45" style="fill:none;stroke:red;stroke-width:1.99999;stroke-linecap:round;stroke-linejoin:round;stroke-miterlimit:4;stroke-dasharray:none;stroke-opacity:1;visibility:visible" visibility="hidden"/><path d="m403.25 801.938-1.094 16.725M405.15 876.18l-4.266 10.49" style="fill:none;stroke:red;stroke-width:1.99999;stroke-linecap:round;stroke-linejoin:round;stroke-miterlimit:10;stroke-dasharray:none;stroke-opacity:1;visibility:visible" visibility="hidden"/><path d="M415.488 800.187a1.04 1.04 0 0 0-.59.088M414.898 800.277l-7.651 2.028M422.043 801.878l-6.555-1.69M407.999 804.527c.073.024.148.044.227.076.15.058.817.151.973.267.155.11.417.485.56.647.045.05.092.101.133.153" style="fill:none;stroke:#00ff4a;stroke-width:.999997;stroke-linecap:round;stroke-linejoin:round;stroke-miterlimit:10;stroke-dasharray:none;stroke-opacity:1;visibility:visible"/><path d="m413.116 802.76.61.092.709.015.735-.06.68-.13.554-.182.359-.218.139-.23-.107-.221-.337-.176-.532-.124-.663-.053-.73.022-.718.095-.623.159-.462.204-.256.226-.016.228.221.198.437.155" style="fill:none;stroke:#00ff4a;stroke-width:.666665;stroke-linecap:round;stroke-linejoin:round;stroke-miterlimit:10;stroke-dasharray:none;stroke-opacity:1;visibility:visible"/><path d="m484.025 782.417-7.437 2.145M475.908 786.244c0 .018 0 .036.003.052a.357.357 0 0 0 .065.138.57.57 0 0 0 .244.174c.048.018.097.032.147.048l.713.169M490.908 784.058l-6.552-1.693M475.837 785.722l.066.522M476.444 784.624c-.421.166-.67.614-.607 1.098M477.079 786.824c.073.024.148.044.226.076.151.057.818.15.975.265.075.055.179.177.28.304M415.196 800.235a.544.544 0 0 0-.3.042M415.488 800.187a.495.495 0 0 0-.292.047M407.658 802.31a.505.505 0 0 0-.295.017M407.658 802.311l6.614 1.679" style="fill:none;stroke:#00ff4a;stroke-width:.999997;stroke-linecap:round;stroke-linejoin:round;stroke-miterlimit:10;stroke-dasharray:none;stroke-opacity:1;visibility:visible"/><path d="m482.196 785.058.607.087.71.02.735-.06.683-.13.553-.185.359-.216.137-.232-.105-.218-.338-.178-.532-.122-.662-.054-.73.023-.718.093-.623.159-.462.204-.257.228-.016.223.223.202.436.156" style="fill:none;stroke:#00ff4a;stroke-width:.666665;stroke-linecap:round;stroke-linejoin:round;stroke-miterlimit:10;stroke-dasharray:none;stroke-opacity:1;visibility:visible"/><path d="M484.325 782.372a.52.52 0 0 0-.3.044M476.74 784.608a.484.484 0 0 0-.296.016M476.739 784.608l6.614 1.677" style="fill:none;stroke:#00ff4a;stroke-width:.999997;stroke-linecap:round;stroke-linejoin:round;stroke-miterlimit:10;stroke-dasharray:none;stroke-opacity:1;visibility:visible"/><path d="m514.908 781.23-112.62 29.932" style="fill:none;stroke:#00ff4a;stroke-width:.666665;stroke-linecap:round;stroke-linejoin:round;stroke-miterlimit:4;stroke-dasharray:none;stroke-opacity:1;visibility:visible"/><path d="m509.27 779.545-30.58 8.085M478.69 787.631l-76.338 20.186" style="fill:none;stroke:#00ff4a;stroke-width:1.99999;stroke-linecap:round;stroke-linejoin:round;stroke-miterlimit:4;stroke-dasharray:none;stroke-opacity:1;visibility:visible"/><path d="m509.27 779.545 5.637 1.685M515.78 833.923l-.872-52.693" style="fill:none;stroke:#00ff4a;stroke-width:.666665;stroke-linecap:round;stroke-linejoin:round;stroke-miterlimit:4;stroke-dasharray:none;stroke-opacity:1;visibility:visible"/><path d="m401.25 866.957 114.53-33.034" style="fill:none;stroke:#00ff4a;stroke-width:1.99999;stroke-linecap:round;stroke-linejoin:round;stroke-miterlimit:4;stroke-dasharray:none;stroke-opacity:1;visibility:visible"/><path d="m407.999 804.527 14.044-2.649M407.658 802.31l.341 2.217" style="fill:none;stroke:#00ff4a;stroke-width:.999997;stroke-linecap:round;stroke-linejoin:round;stroke-miterlimit:10;stroke-dasharray:none;stroke-opacity:1;visibility:visible"/><path d="m415.196 800.235-2.08 2.525M407.999 804.527l5.117-1.767" style="fill:none;stroke:#00ff4a;stroke-width:.666665;stroke-linecap:round;stroke-linejoin:round;stroke-miterlimit:10;stroke-dasharray:none;stroke-opacity:1;visibility:visible"/><path d="m477.079 786.824 13.829-2.766M415.488 800.188l-1.216 3.802" style="fill:none;stroke:#00ff4a;stroke-width:.999997;stroke-linecap:round;stroke-linejoin:round;stroke-miterlimit:10;stroke-dasharray:none;stroke-opacity:1;visibility:visible"/><path d="m484.325 782.372-2.129 2.686M477.079 786.824l5.117-1.766" style="fill:none;stroke:#00ff4a;stroke-width:.666665;stroke-linecap:round;stroke-linejoin:round;stroke-miterlimit:10;stroke-dasharray:none;stroke-opacity:1;visibility:visible"/><path d="m484.356 782.365-1.003 3.92" style="fill:none;stroke:#00ff4a;stroke-width:.999997;stroke-linecap:round;stroke-linejoin:round;stroke-miterlimit:10;stroke-dasharray:none;stroke-opacity:1;visibility:visible"/><path d="m414.898 800.277-12.61 10.885" style="fill:none;stroke:#00ff4a;stroke-width:.666665;stroke-linecap:round;stroke-linejoin:round;stroke-miterlimit:4;stroke-dasharray:none;stroke-opacity:1;visibility:visible"/><path d="m414.898 800.277-12.546 7.54" style="fill:none;stroke:#00ff4a;stroke-width:1.99999;stroke-linecap:round;stroke-linejoin:round;stroke-miterlimit:4;stroke-dasharray:none;stroke-opacity:1;visibility:visible"/><path d="m376.092 803.08-.197 13.416M515.78 833.923l-11.968 3.447" style="fill:none;stroke:red;stroke-width:1.99999;stroke-linecap:round;stroke-linejoin:round;stroke-miterlimit:4;stroke-dasharray:none;stroke-opacity:1;visibility:visible" visibility="hidden"/><path d="m404.163 875.862-2.913-8.905" style="fill:none;stroke:#00ff4a;stroke-width:1.99999;stroke-linecap:round;stroke-linejoin:round;stroke-miterlimit:4;stroke-dasharray:none;stroke-opacity:1;visibility:visible"/></svg>