<svg xmlns="http://www.w3.org/2000/svg" baseProfile="full" height="793.701" preserveAspectRatio="xMinYMin meet" style="width:912px;height:1303px" width="559.371" xml:space="preserve"><path d="M185.849 452.205c-12.041-2.867-19.479-2.498-26.645 1.937" style="fill:none;stroke:red;stroke-width:2.66666;stroke-linecap:round;stroke-linejoin:round;stroke-miterlimit:4;stroke-dasharray:none;stroke-opacity:1;visibility:visible"/><path d="M77.073 507.978c.197 1.88 1.815 3.672 6.763 5.549l138.994 42.221c15.617 4.298 25.308 5.039 33.953-2.341l62.739-59.284c1.227-1.141 1.53-2.167 1.683-3.176" style="fill:none;stroke:red;stroke-width:1.33333;stroke-linecap:round;stroke-linejoin:round;stroke-miterlimit:4;stroke-dasharray:none;stroke-opacity:1;visibility:visible"/><path d="M321.92 490.456c.288-1.873-.968-3.47-2.786-4.596M290.103 478.122l-20.053-4.948M217.935 460.311l-32.085-8.106M159.204 454.142l-.298.183-46.35 28.51M80.573 502.56c-2.839 1.961-4.363 3.726-4.185 5.417" style="fill:none;stroke:red;stroke-width:2.66666;stroke-linecap:round;stroke-linejoin:round;stroke-miterlimit:4;stroke-dasharray:none;stroke-opacity:1;visibility:visible"/><path d="m76.41 507.991.793 23.921c.053 2.803 2.339 5.488 7.446 7.235l135.848 43.487c15.617 4.296 25.305 5.04 33.95-2.34l62.518-63.079c1.548-1.443 2.089-3.492 2.453-5.205l2.53-21.582" style="fill:none;stroke:red;stroke-width:2.66666;stroke-linecap:round;stroke-linejoin:round;stroke-miterlimit:4;stroke-dasharray:none;stroke-opacity:1;visibility:visible"/><path d="M72.757 593.675s-3.932 5.91-12.342 10.61c-8.495 4.75-10.215 10.609-10.215 10.609" style="fill:none;stroke:red;stroke-width:.666665;stroke-linecap:round;stroke-linejoin:round;stroke-miterlimit:4;stroke-dasharray:none;stroke-opacity:1;visibility:visible"/><path d="M172.084 454.407c-6.142.284-10.912 2.373-10.912 4.903 0 2.725 5.528 4.934 12.346 4.934 6.816 0 12.343-2.209 12.343-4.934-.001-2.444-4.451-4.48-10.291-4.87" style="fill:none;stroke:red;stroke-width:1.33333;stroke-linecap:round;stroke-linejoin:round;stroke-miterlimit:4;stroke-dasharray:none;stroke-opacity:1;visibility:visible"/><path d="M290.882 487.867c-.703.701-1.09 1.475-1.09 2.287-.001 3.238 6.17 5.861 13.782 5.861 7.617 0 13.791-2.623 13.791-5.861.001-.7-.287-1.37-.815-1.992" style="fill:none;stroke:#00ff4a;stroke-width:1.66666;stroke-linecap:round;stroke-linejoin:round;stroke-miterlimit:4;stroke-dasharray:none;stroke-opacity:1;visibility:visible" visibility="hidden"/><path d="M289.626 485.512c0 3.24 6.172 5.862 13.784 5.862 7.052 0 12.867-2.248 13.69-5.15" style="fill:none;stroke:#00ff4a;stroke-width:2.66666;stroke-linecap:round;stroke-linejoin:round;stroke-miterlimit:4;stroke-dasharray:none;stroke-opacity:1;visibility:visible" visibility="hidden"/><path d="M299 341.56c-.319 2.321 11.63 5.936 27.168 8.074 15.544 2.137 27.539 1.988 27.855-.333" style="fill:none;stroke:#00ff4a;stroke-width:1.33333;stroke-linecap:round;stroke-linejoin:round;stroke-miterlimit:4;stroke-dasharray:none;stroke-opacity:1;visibility:visible" visibility="hidden"/><path d="M354.89 349.3c.322-2.32-12.022-5.933-27.565-8.073-15.54-2.136-28.4-1.987-28.722.333" style="fill:none;stroke:#00ff4a;stroke-width:2.66666;stroke-linecap:round;stroke-linejoin:round;stroke-miterlimit:4;stroke-dasharray:none;stroke-opacity:1;visibility:visible" visibility="hidden"/><path d="M350.455 346.811c-3.524-1.63-12.528-3.68-23.19-5.146-13.916-1.915-25.386-2.106-25.616-.435" style="fill:none;stroke:#00ff4a;stroke-width:1.33333;stroke-linecap:round;stroke-linejoin:round;stroke-miterlimit:4;stroke-dasharray:none;stroke-opacity:1;visibility:visible" visibility="hidden"/><path d="m354.89 349.3-30.17 109.203M319.575 477.135l-2.63 9.515M298.587 342.093l-6.73 107.737M290.835 466.171l-1.208 19.341" style="fill:none;stroke:#00ff4a;stroke-width:2.66666;stroke-linecap:round;stroke-linejoin:round;stroke-miterlimit:4;stroke-dasharray:none;stroke-opacity:1;visibility:visible" visibility="hidden"/><path d="M350.372 346.995c-1.065 0-1.929.3-1.929.672 0 .37.984 1.304 2.05 1.304" style="fill:none;stroke:#00ff4a;stroke-width:1.33333;stroke-linecap:round;stroke-linejoin:round;stroke-miterlimit:4;stroke-dasharray:none;stroke-opacity:1;visibility:visible" visibility="hidden"/><path d="M316.21 488.294v3.494M290.866 488.075v3.495" style="fill:none;stroke:#00ff4a;stroke-width:1.66666;stroke-linecap:round;stroke-linejoin:round;stroke-miterlimit:4;stroke-dasharray:none;stroke-opacity:1;visibility:visible" visibility="hidden"/><path d="M301.647 341.231c-.226 1.675 10.867 4.584 24.784 6.496 10.992 1.511 20.459 1.95 24.06 1.244" style="fill:none;stroke:#00ff4a;stroke-width:1.33333;stroke-linecap:round;stroke-linejoin:round;stroke-miterlimit:4;stroke-dasharray:none;stroke-opacity:1;visibility:visible" visibility="hidden"/><path d="m319.575 477.135 5.145-18.632M324.72 458.503l-5.145 18.632M290.835 466.171l1.022-16.341M291.857 449.83l-1.022 16.341" style="fill:none;stroke:#00ff4a;stroke-width:2.66666;stroke-linecap:round;stroke-linejoin:round;stroke-miterlimit:4;stroke-dasharray:none;stroke-opacity:1;visibility:visible" visibility="hidden"/><path d="m289.626 485.512 1.24 6.058" style="fill:none;stroke:#00ff4a;stroke-width:1.66666;stroke-linecap:round;stroke-linejoin:round;stroke-miterlimit:4;stroke-dasharray:none;stroke-opacity:1;visibility:visible" visibility="hidden"/><path d="M224.543 545.502a4.088 4.088 0 0 0-.097.882c0 4.378 7.1 7.927 15.856 7.927 8.76-.001 15.86-3.551 15.86-7.927 0-.47-.081-.929-.239-1.376" style="fill:none;stroke:#9500ff;stroke-width:1.66666;stroke-linecap:round;stroke-linejoin:round;stroke-miterlimit:4;stroke-dasharray:none;stroke-opacity:1;visibility:visible" visibility="hidden"/><path d="M224.026 542.328c.836 4.123 7.804 7.343 16.27 7.343 8.807-.001 15.988-3.481 16.343-7.839" style="fill:none;stroke:#9500ff;stroke-width:2.66666;stroke-linecap:round;stroke-linejoin:round;stroke-miterlimit:4;stroke-dasharray:none;stroke-opacity:1;visibility:visible" visibility="hidden"/><path d="M261.953 390.07c0-.37-.708-.67-1.583-.67-.876 0-1.59.3-1.59.67M283.789 382.833c.15-3.543-4.039-6.904-10.935-9.398M222.96 372.16c-5.925 1.896-9.646 4.593-9.78 7.716" style="fill:none;stroke:#9500ff;stroke-width:1.33333;stroke-linecap:round;stroke-linejoin:round;stroke-miterlimit:4;stroke-dasharray:none;stroke-opacity:1;visibility:visible" visibility="hidden"/><path d="M262.127 390.395c11.173-1.138 19.036-4.354 19.211-8.465.124-2.931-3.68-5.737-9.872-7.864" style="fill:none;stroke:#9500ff;stroke-width:1.33333;stroke-linecap:round;stroke-linejoin:round;stroke-miterlimit:4;stroke-dasharray:none;stroke-opacity:1;visibility:visible" visibility="hidden"/><path d="m213.831 380.369 3.1 48.886M217.454 437.533l6.644 104.789M284.442 383.015l-10.767 61.668M271.373 457.877l-14.611 83.669" style="fill:none;stroke:#9500ff;stroke-width:2.66666;stroke-linecap:round;stroke-linejoin:round;stroke-miterlimit:4;stroke-dasharray:none;stroke-opacity:1;visibility:visible" visibility="hidden"/><path d="M223.331 372.291c-5.416 1.889-8.713 4.534-8.844 7.586M285.093 382.906c.157-3.712-4.859-7.25-12.716-9.795" style="fill:none;stroke:#9500ff;stroke-width:1.33333;stroke-linecap:round;stroke-linejoin:round;stroke-miterlimit:4;stroke-dasharray:none;stroke-opacity:1;visibility:visible" visibility="hidden"/><path d="M225.329 544.658v3.494M255.04 545.53v3.497" style="fill:none;stroke:#9500ff;stroke-width:1.66666;stroke-linecap:round;stroke-linejoin:round;stroke-miterlimit:4;stroke-dasharray:none;stroke-opacity:1;visibility:visible" visibility="hidden"/><path d="M214.523 379.877c-.28 6.653 14.462 12.721 33.979 13.549 18.704.795 33.593-3.505 35.112-9.716" style="fill:none;stroke:#9500ff;stroke-width:1.33333;stroke-linecap:round;stroke-linejoin:round;stroke-miterlimit:4;stroke-dasharray:none;stroke-opacity:1;visibility:visible" visibility="hidden"/><path d="M223.56 373.318c-4.176 1.535-6.7 3.562-6.799 5.868-.24 5.633 14.025 10.81 31.859 11.565a98.661 98.661 0 0 0 10.087-.077" style="fill:none;stroke:#9500ff;stroke-width:1.33333;stroke-linecap:round;stroke-linejoin:round;stroke-miterlimit:4;stroke-dasharray:none;stroke-opacity:1;visibility:visible" visibility="hidden"/><path d="m217.454 437.533-.523-8.278M216.931 429.255l.523 8.278M271.373 457.877l2.302-13.194M273.675 444.683l-2.302 13.194" style="fill:none;stroke:#9500ff;stroke-width:2.66666;stroke-linecap:round;stroke-linejoin:round;stroke-miterlimit:4;stroke-dasharray:none;stroke-opacity:1;visibility:visible" visibility="hidden"/><path d="m224.098 542.322 1.231 2.336M256.639 541.832l-1.599 7.195" style="fill:none;stroke:#9500ff;stroke-width:1.66666;stroke-linecap:round;stroke-linejoin:round;stroke-miterlimit:4;stroke-dasharray:none;stroke-opacity:1;visibility:visible" visibility="hidden"/><path d="M187.78 414.51c-.462 2.3-4.642 4.197-10.087 4.795l-3.268.192c-.123.002-.247.002-.37.002-7.264.001-13.387-2.281-13.751-5.149M162.073 430.433c1.33 2.15 6.192 3.747 11.983 3.747 6.817 0 12.344-2.211 12.344-4.937" style="fill:none;stroke:#ffdf00;stroke-width:1.99999;stroke-linecap:round;stroke-linejoin:round;stroke-miterlimit:4;stroke-dasharray:none;stroke-opacity:1;visibility:visible" visibility="hidden"/><path d="M205.703 274.062c0-3.718-12.4-6.732-27.691-6.732-15.29-.001-27.688 3.014-27.688 6.732M150.324 274.062c0 3.722 12.398 6.738 27.689 6.738 15.29 0 27.69-3.016 27.69-6.738" style="fill:none;stroke:#ffdf00;stroke-width:1.33333;stroke-linecap:round;stroke-linejoin:round;stroke-miterlimit:4;stroke-dasharray:none;stroke-opacity:1;visibility:visible" visibility="hidden"/><path d="m206.14 275.144-18.505 138.925M149.52 274.568l10.958 139.502" style="fill:none;stroke:#ffdf00;stroke-width:2.66666;stroke-linecap:round;stroke-linejoin:round;stroke-miterlimit:4;stroke-dasharray:none;stroke-opacity:1;visibility:visible" visibility="hidden"/><path d="M178.013 267.33c-15.29 0-28.916 2.988-28.916 6.707M182.129 433.078v1.868l-1.589 1.27M180.302 436.214v-2.74M166.897 433.635v2.739M166.897 436.373l-2.063-1.11v-2.823M173.558 419.807l-.17 10.127s-.682 3.484-3.183 4.15M177.76 419.778l-.118 9.805s.06 2.918 2.152 3.834M174.672 269.509c0 .376.724.681 1.618.681.894 0 1.62-.305 1.62-.68" style="fill:none;stroke:#ffdf00;stroke-width:1.33333;stroke-linecap:round;stroke-linejoin:round;stroke-miterlimit:4;stroke-dasharray:none;stroke-opacity:1;visibility:visible" visibility="hidden"/><path d="M206.789 274.062c0-3.718-13.485-6.732-28.777-6.732M174.646 269.278c-11.341.296-20.246 2.072-21.314 4.283" style="fill:none;stroke:#ffdf00;stroke-width:1.33333;stroke-linecap:round;stroke-linejoin:round;stroke-miterlimit:4;stroke-dasharray:none;stroke-opacity:1;visibility:visible" visibility="hidden"/><path d="M202.805 274.009c0-2.637-11.099-4.775-24.793-4.775" style="fill:none;stroke:#ffdf00;stroke-width:1.33333;stroke-linecap:round;stroke-linejoin:round;stroke-miterlimit:4;stroke-dasharray:none;stroke-opacity:1;visibility:visible" visibility="hidden"/><path d="M153.332 273.561a1.01 1.01 0 0 0-.108.448c0 2.637 11.1 4.776 24.789 4.776 13.693 0 24.792-2.139 24.792-4.776" style="fill:none;stroke:#ffdf00;stroke-width:1.33333;stroke-linecap:round;stroke-linejoin:round;stroke-miterlimit:4;stroke-dasharray:none;stroke-opacity:1;visibility:visible" visibility="hidden"/><path d="m169.184 431.074-.036.016-.04.008-.039.004M167.396 430.586l-.003-.007-.001-.001-.02-.03-.015-.026-.012-.022-.01-.021-.015-.033-.01-.026-.006-.021-.007-.021-.008-.03M167.446 430.65l-.016-.017-.012-.014-.01-.013M167.685 430.802l-.041-.013-.04-.02-.034-.015-.032-.024-.028-.02-.024-.021-.021-.02" style="fill:none;stroke:#ffdf00;stroke-width:.999997;stroke-linecap:round;stroke-linejoin:round;stroke-miterlimit:4;stroke-dasharray:none;stroke-opacity:1;visibility:visible" visibility="hidden"/><path d="m169.184 431.074-.036.016-.04.008-.039.004M182.849 429.982l-.033.035-.036.029-.038.027M167.396 430.586l-.003-.007-.001-.001-.02-.03-.015-.026-.012-.022-.01-.021-.015-.033-.01-.026-.006-.021-.007-.021-.008-.03-.019-.147-.06-6.094-.002-.227-.008-.517-.007-.805-.01-1.055-.03-3.208M170.04 418.971l-.195 6.432-.143 4.943-.034.31" style="fill:none;stroke:#ffdf00;stroke-width:.999997;stroke-linecap:round;stroke-linejoin:round;stroke-miterlimit:4;stroke-dasharray:none;stroke-opacity:1;visibility:visible" visibility="hidden"/><path d="M169.556 430.795c-.164.396-.45.335-.45.335l-.082-.017-.078-.008M167.446 430.65l-.016-.017-.012-.014-.01-.013M168.89 431.089l-.274-.067-.931-.222-.043-.013-.037-.017-.036-.02-.03-.02-.029-.021M181.232 430.471l-.003-.005h-.001l-.018-.02-.013-.017-.01-.015-.011-.012-.012-.025-.01-.02-.004-.017-.008-.017-.008-.023M181.278 430.503l-.014-.006-.011-.007-.01-.007M181.493 430.522l-.037.01-.036.006h-.032l-.028-.004-.024-.007-.023-.006-.019-.006M182.849 429.982l-.033.035-.036.029-.038.027" style="fill:none;stroke:#ffdf00;stroke-width:.999997;stroke-linecap:round;stroke-linejoin:round;stroke-miterlimit:4;stroke-dasharray:none;stroke-opacity:1;visibility:visible" visibility="hidden"/><path d="m181.232 430.471-.003-.005h-.001l-.018-.02-.013-.017-.01-.015-.011-.012-.012-.025-.01-.02-.004-.017-.008-.017-.008-.023-.014-.13-.056-5.801-.002-.215-.005-.494-.008-.766-.01-1.004-.026-3.052M183.624 417.945l-.175 6.258-.13 4.81-.032.314M183.185 429.52c-.147.466-.405.56-.405.56l-.075.028-.07.035M181.278 430.503l-.014-.006-.011-.007-.01-.007M182.584 430.155l-.248.083-.843.284-.037.01-.036.006h-.031l-.029-.004-.024-.007" style="fill:none;stroke:#ffdf00;stroke-width:.999997;stroke-linecap:round;stroke-linejoin:round;stroke-miterlimit:4;stroke-dasharray:none;stroke-opacity:1;visibility:visible" visibility="hidden"/><path d="m161.389 430.04-.081-.09-.68-.755c-.416-.594-.383-2.455-.383-2.455M160.248 426.74l-.168-11.142" style="fill:none;stroke:#ffdf00;stroke-width:1.99999;stroke-linecap:round;stroke-linejoin:round;stroke-miterlimit:4;stroke-dasharray:none;stroke-opacity:1;visibility:visible" visibility="hidden"/><path d="m162.612 418.174-.007 6.665M162.604 424.84l-.048 5.032" style="fill:none;stroke:#ffdf00;stroke-width:.999997;stroke-linecap:round;stroke-linejoin:round;stroke-miterlimit:4;stroke-dasharray:none;stroke-opacity:1;visibility:visible" visibility="hidden"/><path d="M187.772 426.934s.033 1.861-.383 2.456l-.68.753-.081.09M187.936 415.79l-.168 11.144" style="fill:none;stroke:#ffdf00;stroke-width:1.99999;stroke-linecap:round;stroke-linejoin:round;stroke-miterlimit:4;stroke-dasharray:none;stroke-opacity:1;visibility:visible" visibility="hidden"/><path d="M175.708 420.167v3.459M185.829 424.283l-.007-6.665M185.878 429.317l-.048-5.034" style="fill:none;stroke:#ffdf00;stroke-width:.999997;stroke-linecap:round;stroke-linejoin:round;stroke-miterlimit:4;stroke-dasharray:none;stroke-opacity:1;visibility:visible" visibility="hidden"/><path d="M180.297 436.24c-1.832-.43-3.967-.678-6.243-.678-2.648.001-5.104.335-7.114.903M180.302 436.214l1.827-3.136M162.556 429.872l4.341 3.763M162.556 429.872l2.278 2.568M175.708 423.626l-2.15-3.819M181.493 430.522l-11.288 3.562M175.708 423.626l2.052-3.848M205.703 274.062h1.086" style="fill:none;stroke:#ffdf00;stroke-width:1.33333;stroke-linecap:round;stroke-linejoin:round;stroke-miterlimit:4;stroke-dasharray:none;stroke-opacity:1;visibility:visible" visibility="hidden"/><path d="m160.478 414.07 6.675 4.225M175.708 423.626l-5.668-4.655M175.708 423.626l5.305-4.788M185.829 424.283l-2.205-6.338" style="fill:none;stroke:#ffdf00;stroke-width:.999997;stroke-linecap:round;stroke-linejoin:round;stroke-miterlimit:4;stroke-dasharray:none;stroke-opacity:1;visibility:visible" visibility="hidden"/><path d="m160.478 414.07-.398 1.528" style="fill:none;stroke:#ffdf00;stroke-width:1.99999;stroke-linecap:round;stroke-linejoin:round;stroke-miterlimit:4;stroke-dasharray:none;stroke-opacity:1;visibility:visible" visibility="hidden"/><path d="m160.478 414.07 2.134 4.104" style="fill:none;stroke:#ffdf00;stroke-width:.999997;stroke-linecap:round;stroke-linejoin:round;stroke-miterlimit:4;stroke-dasharray:none;stroke-opacity:1;visibility:visible" visibility="hidden"/><path d="m182.849 429.982 3.779.251M185.829 424.283l2.107-8.493" style="fill:none;stroke:#ffdf00;stroke-width:1.99999;stroke-linecap:round;stroke-linejoin:round;stroke-miterlimit:4;stroke-dasharray:none;stroke-opacity:1;visibility:visible" visibility="hidden"/><path d="m185.829 424.283-10.121-4.116M177.76 419.778l-2.052 3.848M187.768 426.934l-1.946-9.316" style="fill:none;stroke:#ffdf00;stroke-width:.999997;stroke-linecap:round;stroke-linejoin:round;stroke-miterlimit:4;stroke-dasharray:none;stroke-opacity:1;visibility:visible" visibility="hidden"/><path d="M83.005 504.115c-.419.6-.645 1.24-.645 1.905 0 3.447 6.102 6.238 13.632 6.238 7.53 0 13.632-2.791 13.632-6.239 0-.372-.07-.733-.204-1.085" style="fill:none;stroke:#00d4ff;stroke-width:1.66666;stroke-linecap:round;stroke-linejoin:round;stroke-miterlimit:4;stroke-dasharray:none;stroke-opacity:1;visibility:visible" visibility="hidden"/><path d="M82.266 501.691c.73 3.33 6.867 5.929 14.331 5.929 7.953 0 14.399-2.95 14.399-6.594" style="fill:none;stroke:#00d4ff;stroke-width:2.66666;stroke-linecap:round;stroke-linejoin:round;stroke-miterlimit:4;stroke-dasharray:none;stroke-opacity:1;visibility:visible" visibility="hidden"/><path d="M54.045 354.795c.36 4.098 13.787 6.175 30.75 4.686 16.965-1.488 29.656-6.014 29.293-10.112" style="fill:none;stroke:#00d4ff;stroke-width:1.33333;stroke-linecap:round;stroke-linejoin:round;stroke-miterlimit:4;stroke-dasharray:none;stroke-opacity:1;visibility:visible" visibility="hidden"/><path d="M115.404 349.369c-.358-4.094-14.946-6.21-31.912-4.722-16.963 1.486-29.839 6.014-29.479 10.108" style="fill:none;stroke:#00d4ff;stroke-width:1.33333;stroke-linecap:round;stroke-linejoin:round;stroke-miterlimit:4;stroke-dasharray:none;stroke-opacity:1;visibility:visible" visibility="hidden"/><path d="M58.439 356.06c4.453 1.821 14.561 2.488 26.187 1.47 15.498-1.357 27.416-5.199 27.12-8.58-.295-3.38-12.696-5.02-28.196-3.661a129.588 129.588 0 0 0-1.7.16M81.85 345.449c-14.689 1.481-26.112 5.166-25.827 8.42a1.453 1.453 0 0 0 .153.52" style="fill:none;stroke:#00d4ff;stroke-width:1.33333;stroke-linecap:round;stroke-linejoin:round;stroke-miterlimit:4;stroke-dasharray:none;stroke-opacity:1;visibility:visible" visibility="hidden"/><path d="m114.773 350.007-3.779 151.019M53.425 354.755l28.77 146.621" style="fill:none;stroke:#00d4ff;stroke-width:2.66666;stroke-linecap:round;stroke-linejoin:round;stroke-miterlimit:4;stroke-dasharray:none;stroke-opacity:1;visibility:visible" visibility="hidden"/><path d="M83.493 344.649c-16.963 1.485-31.06 6.013-30.7 10.108M114.204 349.369c-.336-3.863-12.274-5.964-27.87-4.94M58.365 355.931c.686-.097 1.176-.37 1.176-.694 0-.404-.777-.732-1.736-.732-.298 0-1.225.07-1.47.124" style="fill:none;stroke:#00d4ff;stroke-width:1.33333;stroke-linecap:round;stroke-linejoin:round;stroke-miterlimit:4;stroke-dasharray:none;stroke-opacity:1;visibility:visible" visibility="hidden"/><path d="M82.888 504.024v3.496M108.666 504.68v3.493" style="fill:none;stroke:#00d4ff;stroke-width:1.66666;stroke-linecap:round;stroke-linejoin:round;stroke-miterlimit:4;stroke-dasharray:none;stroke-opacity:1;visibility:visible" visibility="hidden"/><path d="m81.85 345.449 1.643-.8M83.493 344.649l2.841-.22" style="fill:none;stroke:#00d4ff;stroke-width:1.33333;stroke-linecap:round;stroke-linejoin:round;stroke-miterlimit:4;stroke-dasharray:none;stroke-opacity:1;visibility:visible" visibility="hidden"/><path d="m110.996 501.026-2.33 7.147M76.41 507.991l6.478-.471" style="fill:none;stroke:#00d4ff;stroke-width:1.66666;stroke-linecap:round;stroke-linejoin:round;stroke-miterlimit:4;stroke-dasharray:none;stroke-opacity:1;visibility:visible" visibility="hidden"/></svg>