<svg xmlns="http://www.w3.org/2000/svg" baseProfile="full" height="793.701" preserveAspectRatio="xMinYMin meet" style="width:914px;height:841px" width="559.371" xml:space="preserve"><path d="M238.47 458.885c.14 1.793.848 3.377 2.88 4.678l110.084 62.245c10.526 5.912 20.316 4.988 28.626-.924l84.412-67.602c1.802-1.663 2.05-3.482 2.14-5.21" style="fill:none;stroke:red;stroke-width:1.33333;stroke-linecap:round;stroke-linejoin:round;stroke-miterlimit:4;stroke-dasharray:none;stroke-opacity:1;visibility:visible"/><path d="M238.373 479.935c.054 1.872 1.43 3.523 3.53 4.87l109.348 64.277c10.527 5.911 20.316 4.988 28.629-.923l84.04-70.557c1.92-1.774 2.805-3.722 2.79-5.552M467.255 452.073c.148-2.884-1.928-5.526-5.737-6.796l-104.544-43.404c-7.756-3.143-12.56-1.846-18.47.37l-94.2 48.947c-4.859 2.792-6.65 5.41-6.476 7.694M238.372 479.935l-.584-21.05M466.71 472.05l.584-20.099" style="fill:none;stroke:red;stroke-width:2.66666;stroke-linecap:round;stroke-linejoin:round;stroke-miterlimit:4;stroke-dasharray:none;stroke-opacity:1;visibility:visible"/><path d="m346.08 408.61 20.323 8.457 6.246-3.956" style="fill:none;stroke:red;stroke-width:1.99999;stroke-linecap:round;stroke-linejoin:round;stroke-miterlimit:4;stroke-dasharray:none;stroke-opacity:1;visibility:visible"/><path d="m372.971 412.836-19.992-8.319-7.299 3.939M412.225 429.616l-21.743-8.9-7.15 4.087" style="fill:none;stroke:red;stroke-width:1.33333;stroke-linecap:round;stroke-linejoin:round;stroke-miterlimit:4;stroke-dasharray:none;stroke-opacity:1;visibility:visible"/><path d="m383.76 424.956 22.483 9.624 5.653-4.681" style="fill:none;stroke:red;stroke-width:1.99999;stroke-linecap:round;stroke-linejoin:round;stroke-miterlimit:4;stroke-dasharray:none;stroke-opacity:1;visibility:visible"/><path d="m455.516 447.922-24.028-9.99-6.13 4.526" style="fill:none;stroke:red;stroke-width:1.33333;stroke-linecap:round;stroke-linejoin:round;stroke-miterlimit:4;stroke-dasharray:none;stroke-opacity:1;visibility:visible"/><path d="m425.742 442.572 23.985 10.103 5.666-4.426" style="fill:none;stroke:red;stroke-width:1.99999;stroke-linecap:round;stroke-linejoin:round;stroke-miterlimit:4;stroke-dasharray:none;stroke-opacity:1;visibility:visible"/><path d="M286.613 584.092c.885-1.352 1.63-3.165 1.62-4.69a7.352 7.352 0 0 0-.134-1.326" style="fill:none;stroke:red;stroke-width:2.66666;stroke-linecap:round;stroke-linejoin:round;stroke-miterlimit:4;stroke-dasharray:none;stroke-opacity:1;visibility:visible"/><path d="M243.48 585.008c3.957 4.048 11.808 6.975 20.81 7.027 10.167.06 18.771-3.385 21.944-8.24" style="fill:none;stroke:red;stroke-width:1.33333;stroke-linecap:round;stroke-linejoin:round;stroke-miterlimit:4;stroke-dasharray:none;stroke-opacity:1;visibility:visible"/><path d="M389.326 650.241c2.244-2.324 3.536-5.041 3.553-7.961a10.6 10.6 0 0 0-.073-1.255M282.146 591.014l4.33-6.624M247.775 590.762l-5.315-5.918M252.745 492.462l-12.575 85.032M288.234 579.404l-7.355-70.326M247.506 590.439c3.232 3.493 9.901 5.913 17.57 5.95 7.384.041 13.783-2.138 17.07-5.375M240.171 577.494a7.132 7.132 0 0 0-.16 1.542c.006 2.195.763 3.824 2.447 5.81" style="fill:none;stroke:red;stroke-width:2.66666;stroke-linecap:round;stroke-linejoin:round;stroke-miterlimit:4;stroke-dasharray:none;stroke-opacity:1;visibility:visible"/><path d="M344.92 649.528c4.28 4.764 12.47 8.047 21.88 8.17 9.233.122 17.295-2.834 21.64-7.328" style="fill:none;stroke:red;stroke-width:1.33333;stroke-linecap:round;stroke-linejoin:round;stroke-miterlimit:4;stroke-dasharray:none;stroke-opacity:1;visibility:visible"/><path d="M468.967 572.316c1.746-1.986 2.698-4.274 2.597-6.69a8.343 8.343 0 0 0-.084-.898M383.202 656.147l6.106-5.918M349.458 655.3l-6.13-6.715M349.487 655.27c3.1 3.492 9.559 5.95 17.028 6.054 7.185.103 13.445-1.999 16.687-5.177M382.115 549.21l10.692 91.814M351.727 550.694l-10.835 89.098M340.892 639.793a10.152 10.152 0 0 0-.156 1.678c-.02 2.848 1.175 5.542 3.286 7.889" style="fill:none;stroke:red;stroke-width:2.66666;stroke-linecap:round;stroke-linejoin:round;stroke-miterlimit:4;stroke-dasharray:none;stroke-opacity:1;visibility:visible"/><path d="M430.588 570.33c2.728 5.23 10.786 8.925 20.122 8.727 7.56-.159 14.044-2.834 17.425-6.679" style="fill:none;stroke:red;stroke-width:1.33333;stroke-linecap:round;stroke-linejoin:round;stroke-miterlimit:4;stroke-dasharray:none;stroke-opacity:1;visibility:visible"/><path d="m468.948 572.296-4.534 5.587M461.184 481.586l10.296 83.14M434.54 501.691l-5.58 63.109M433.302 575.834c2.38 4.326 9.102 7.358 16.877 7.186 6.044-.132 11.273-2.165 14.236-5.14M428.962 564.799a8.387 8.387 0 0 0-.1 1.66c.055 1.299.408 2.548 1.021 3.723" style="fill:none;stroke:red;stroke-width:2.66666;stroke-linecap:round;stroke-linejoin:round;stroke-miterlimit:4;stroke-dasharray:none;stroke-opacity:1;visibility:visible"/><path d="M433.494 576.235c0-.13-3.504-5.81-3.504-5.81" style="fill:none;stroke:red;stroke-width:2.66666;stroke-linecap:round;stroke-linejoin:round;stroke-miterlimit:4;stroke-dasharray:none;stroke-opacity:1;visibility:visible"/><path d="m242.458 584.846 1.022.162" style="fill:none;stroke:red;stroke-width:1.33333;stroke-linecap:round;stroke-linejoin:round;stroke-miterlimit:4;stroke-dasharray:none;stroke-opacity:1;visibility:visible"/><path d="m344.022 649.36-.694-.775" style="fill:none;stroke:red;stroke-width:2.66666;stroke-linecap:round;stroke-linejoin:round;stroke-miterlimit:4;stroke-dasharray:none;stroke-opacity:1;visibility:visible"/><path d="M475.016 304.089c4.697-2.265 5.86-6.815 7.305-13.504l13.85-77.968c2.346-12.704-3.614-24.985-19.267-28.296-88.04-18.625-152.786-17.705-152.786-17.705-2.028.061-6.86.061-10.221 1.507" style="fill:none;stroke:#00ff4a;stroke-width:1.33333;stroke-linecap:round;stroke-linejoin:round;stroke-miterlimit:4;stroke-dasharray:none;stroke-opacity:1;visibility:visible" visibility="hidden"/><path d="M483.77 300.936c6.666-3.256 8.348-11.567 9.98-19.118l12.958-72.512c2.105-11.438-4.519-25.286-19.268-28.296C399.268 163.015 330 163.248 330 163.248c-2.04.064-3.921.344-5.597.895M313.897 167.444c-6.26 2.036-9.722 7.816-8.355 20.12l10.01 66.296c2.104 13.548 6.621 17.16 15.048 19.566 7.2 2.059 129.228 31.416 129.228 31.416 7.375 1.686 12.064 1.526 15.188.019M313.988 167.414l10.415-3.27M483.77 300.935l-8.76 3.912M370.005 384.661l-1.684-101.568" style="fill:none;stroke:#00ff4a;stroke-width:2.66666;stroke-linecap:round;stroke-linejoin:round;stroke-miterlimit:4;stroke-dasharray:none;stroke-opacity:1;visibility:visible" visibility="hidden"/><path d="m364.31 388.974 5.695-3.815M360.841 388.063l2.932 1.139.537-.227M353.958 385.393l.896.339M344.237 381.622l5.39 2.09" style="fill:none;stroke:#00ff4a;stroke-width:1.99999;stroke-linecap:round;stroke-linejoin:round;stroke-miterlimit:4;stroke-dasharray:none;stroke-opacity:1;visibility:visible" visibility="hidden"/><path d="m340.869 276.526 3.368 104.724" style="fill:none;stroke:#00ff4a;stroke-width:2.66666;stroke-linecap:round;stroke-linejoin:round;stroke-miterlimit:4;stroke-dasharray:none;stroke-opacity:1;visibility:visible" visibility="hidden"/><path d="m363.605 388.698-1.684-107.29" style="fill:none;stroke:#00ff4a;stroke-width:1.33333;stroke-linecap:round;stroke-linejoin:round;stroke-miterlimit:4;stroke-dasharray:none;stroke-opacity:1;visibility:visible" visibility="hidden"/><path d="m410.43 399.115.841-105.578" style="fill:none;stroke:#00ff4a;stroke-width:2.66666;stroke-linecap:round;stroke-linejoin:round;stroke-miterlimit:4;stroke-dasharray:none;stroke-opacity:1;visibility:visible" visibility="hidden"/><path d="m405.27 403.18 5.16-3.536M396.385 400.753l8.147 2.935.737-.508M383.48 396.107l6.396 2.305" style="fill:none;stroke:#00ff4a;stroke-width:1.99999;stroke-linecap:round;stroke-linejoin:round;stroke-miterlimit:4;stroke-dasharray:none;stroke-opacity:1;visibility:visible" visibility="hidden"/><path d="m382.302 286.462 1.179 109.23" style="fill:none;stroke:#00ff4a;stroke-width:2.66666;stroke-linecap:round;stroke-linejoin:round;stroke-miterlimit:4;stroke-dasharray:none;stroke-opacity:1;visibility:visible" visibility="hidden"/><path d="m404.533 403.687 1.181-111.666" style="fill:none;stroke:#00ff4a;stroke-width:1.33333;stroke-linecap:round;stroke-linejoin:round;stroke-miterlimit:4;stroke-dasharray:none;stroke-opacity:1;visibility:visible" visibility="hidden"/><path d="m455.267 414.21 4.005-109.221" style="fill:none;stroke:#00ff4a;stroke-width:2.66666;stroke-linecap:round;stroke-linejoin:round;stroke-miterlimit:4;stroke-dasharray:none;stroke-opacity:1;visibility:visible" visibility="hidden"/><path d="m443.82 417.505 5.683 2.183 5.728-4.886M435.605 414.35l3.22 1.237M426.26 410.76l3.085 1.185" style="fill:none;stroke:#00ff4a;stroke-width:1.99999;stroke-linecap:round;stroke-linejoin:round;stroke-miterlimit:4;stroke-dasharray:none;stroke-opacity:1;visibility:visible" visibility="hidden"/><path d="m428.113 297.747-1.853 112.57" style="fill:none;stroke:#00ff4a;stroke-width:2.66666;stroke-linecap:round;stroke-linejoin:round;stroke-miterlimit:4;stroke-dasharray:none;stroke-opacity:1;visibility:visible" visibility="hidden"/><path d="m449.504 419.349 4.21-115.369" style="fill:none;stroke:#00ff4a;stroke-width:1.33333;stroke-linecap:round;stroke-linejoin:round;stroke-miterlimit:4;stroke-dasharray:none;stroke-opacity:1;visibility:visible" visibility="hidden"/><path d="m349.193 368.74.487 14.973M353.483 370.318l.483 15.05M349.195 368.74l4.281 1.508" style="fill:none;stroke:#00ff4a;stroke-width:1.99999;stroke-linecap:round;stroke-linejoin:round;stroke-miterlimit:4;stroke-dasharray:none;stroke-opacity:1;visibility:visible" visibility="hidden"/><path d="m355.2 384.568 3.385 1.344v2.856l-3.356-1.273-.029-2.927" style="fill:none;stroke:#00ff4a;stroke-width:1.33333;stroke-linecap:round;stroke-linejoin:round;stroke-miterlimit:4;stroke-dasharray:none;stroke-opacity:1;visibility:visible" visibility="hidden"/><path d="m355.346 384.083 1.461-.61 3.598 1.34v3.07l-1.559.885" style="fill:none;stroke:#00ff4a;stroke-width:1.33333;stroke-linecap:round;stroke-linejoin:round;stroke-miterlimit:4;stroke-dasharray:none;stroke-opacity:1;visibility:visible" visibility="hidden"/><path d="m443.842 417.44.556-15.195M438.794 415.478l.564-15.181M439.346 400.297l5.092 1.959" style="fill:none;stroke:#00ff4a;stroke-width:1.99999;stroke-linecap:round;stroke-linejoin:round;stroke-miterlimit:4;stroke-dasharray:none;stroke-opacity:1;visibility:visible" visibility="hidden"/><path d="m360.145 384.79-1.559.883M390.598 397.406l3.385 1.341v2.856l-3.356-1.27-.029-2.927" style="fill:none;stroke:#00ff4a;stroke-width:1.33333;stroke-linecap:round;stroke-linejoin:round;stroke-miterlimit:4;stroke-dasharray:none;stroke-opacity:1;visibility:visible" visibility="hidden"/><path d="m390.743 396.92 1.461-.607 3.598 1.339v3.07l-1.559.883M395.542 397.625l-1.559.885M429.993 411.099l3.385 1.341v2.856l-3.356-1.27-.029-2.927" style="fill:none;stroke:#00ff4a;stroke-width:1.33333;stroke-linecap:round;stroke-linejoin:round;stroke-miterlimit:4;stroke-dasharray:none;stroke-opacity:1;visibility:visible" visibility="hidden"/><path d="m430.14 410.612 1.461-.607 3.598 1.339v3.07l-1.559.883M434.937 411.318l-1.559.885" style="fill:none;stroke:#00ff4a;stroke-width:1.33333;stroke-linecap:round;stroke-linejoin:round;stroke-miterlimit:4;stroke-dasharray:none;stroke-opacity:1;visibility:visible" visibility="hidden"/><path d="m354.854 385.732 5.987 2.331M389.876 398.412l6.509 2.341M390.598 397.406l-.722 1.006M429.345 411.945l6.26 2.405M429.993 411.099l-.648.846" style="fill:none;stroke:#00ff4a;stroke-width:1.99999;stroke-linecap:round;stroke-linejoin:round;stroke-miterlimit:4;stroke-dasharray:none;stroke-opacity:1;visibility:visible" visibility="hidden"/><path d="m444.398 402.245 5.106 17.104M360.145 384.79l-1.299 3.978M358.846 388.768l1.299-3.978M370.005 385.16l-11.419.513M395.542 397.625l-1.299 3.98M394.243 401.605l1.299-3.98M405.269 403.18l-11.286-4.67M434.937 411.318l-1.297 3.98M433.64 415.297l1.297-3.979" style="fill:none;stroke:#00ff4a;stroke-width:1.33333;stroke-linecap:round;stroke-linejoin:round;stroke-miterlimit:4;stroke-dasharray:none;stroke-opacity:1;visibility:visible" visibility="hidden"/></svg>