<svg xmlns="http://www.w3.org/2000/svg" baseProfile="full" height="1122.52" preserveAspectRatio="xMinYMin meet" style="width:765px;height:943px" width="793.701" xml:space="preserve"><path d="m396.425 414.085-.388-6.303-.379-6.34-.353-6.374-.32-6.419-.276-6.428-.287-6.45-.218-6.491-.227-6.53-.19-6.56-.146-6.562-.133-6.624-.095-6.635-.072-6.658-.056-6.7-.016-6.708.016-6.751.036-6.773.057-6.786.095-6.821.108-6.85.152-6.88.185-6.902.124-4.165M396.492 417.58l-.017-1.185-.032-1.155-.08-1.153M306.977 207.123l-.015-1.35M339.953 218.173l-.015-1.348M306.927 210.828l.035-1.237.014-1.244v-1.223M339.904 221.897l.05-1.256.02-1.241-.02-1.227M309.677 383.039l-.45-6.036-.411-6.061-.399-6.086-.357-6.12-.348-6.136-.322-6.176-.288-6.194-.253-6.223-.247-6.265-.201-6.284-.177-6.3-.162-6.335-.129-6.373-.104-6.387-.076-6.412-.05-6.426-.034-6.46.013-6.496.022-6.52.068-6.53.072-6.553.106-6.592.144-6.584.166-6.639.196-6.642.232-6.684.238-6.696M338.651 316.61l.065 3.64.126 6.35.161 6.323.197 6.3.218 6.266.233 6.246.264 6.208.29 6.19.322 6.156.348 6.122.376 6.103.397 6.085.415 6.028M339.903 221.898l-.219 5.476-.197 5.439-.196 5.432-.161 5.419-.148 5.4s-.772 28.891-.519 32.561l-.008 2.029M309.839 386.49l-.036-1.167-.05-1.153-.075-1.13M342.203 398.101l-.015-1.17-.057-1.151-.068-1.151M309.839 386.49l.04 1.927M342.203 398.101l.032 1.928M252.927 189.016l-.023-1.336M252.906 192.705l.032-1.243v-1.224l-.01-1.222M224.95 352.67l-.085-.033-.076-.058-.036-.054-.014-.071M256.596 364.013l-.47-5.995-.465-6.032-.434-6.064-.394-6.084-.38-6.117-.338-6.141-.344-6.172-.29-6.195-.265-6.227-.255-6.248-.218-6.265-.196-6.318-.162-6.315-.15-6.353-.104-6.391-.09-6.39-.049-6.426-.041-6.461v-6.483l.018-6.496.055-6.516.072-6.553.107-6.571.146-6.588.163-6.61.173-6.635.219-6.66M256.781 367.453l.05 1.92M256.781 367.453l-.044-1.156-.047-1.153-.096-1.131M396.492 417.58l.021 1.944M368.188 254.67l.065-1.993.812-26.147M370.7 404.888l-.415-6.03-.358-6.046-.362-6.1-.33-6.11-.3-6.154-.266-6.175-.24-6.189-.232-6.228-.184-6.265-.174-6.28-.151-6.299-.103-6.34-.09-6.37-.071-6.375-.036-6.421-.021-6.426.021-6.48.05-6.482.029-3.599M394.038 412.861l-.384-6.281-.377-6.283-.35-6.341-.318-6.356-.299-6.39-.255-6.414-.245-6.45-.204-6.488-.19-6.506-.166-6.526-.125-6.558-.092-6.597-.08-6.623-.054-6.653-.02-6.654v-6.708l.035-6.726.06-6.75.093-6.765.132-6.803.131-6.844.18-6.838.057-1.93M370.828 408.361l-.023-1.17-.057-1.15-.05-1.153M394.115 416.373l-.015-1.187-.034-1.17-.08-1.154M370.828 408.361l.013 1.94M394.115 416.373l.021 2.285M343.14 219.24l-.017-1.353M343.089 222.962l.035-1.24.017-1.259v-1.224M341.73 313.514l.041 3.03.107 6.247.148 6.226.164 6.194.175 6.19.218 6.14.231 6.122.275 6.099.286 6.064.304 6.032.344 6.03.358 5.976.394 5.96.415 5.92M343.088 222.964l-.24 5.762-.211 5.744-.194 5.735-.183 5.71s-1.005 29.837-.612 32.601l-.016 2.704M364.855 258.224l.067-2.303 1.093-29.946M367.55 403.774l-.399-5.87-.358-5.886-.339-5.923-.324-5.957-.288-5.957-.287-6.012-.24-6.014-.233-6.064-.196-6.066-.161-6.102-.148-6.137-.126-6.157-.106-6.173-.071-6.212-.055-6.224-.016-6.25v-6.281l.036-6.299.012-2.353M345.339 399.216l-.033-1.164-.039-1.156-.076-1.152M367.69 407.25l-.033-1.192-.039-1.156-.068-1.13M345.339 399.216l.016 1.945M367.69 407.25l.024 1.923M306.977 207.123l-.015-1.35M339.953 218.173l-.015-1.348" style="fill:none;stroke:red;stroke-width:.999997;stroke-linecap:round;stroke-linejoin:round;stroke-miterlimit:4;stroke-dasharray:none;stroke-opacity:1;visibility:visible"/><path d="m309.839 386.49-.036-1.167-.05-1.153-.075-1.13M342.203 398.101l-.015-1.17-.057-1.151-.068-1.151M309.839 386.49l.04 1.927M342.203 398.101l.032 1.928M281.417 198.553l-.013-1.33M303.826 206.064l-.015-1.335M281.383 202.263l.032-1.243.025-1.241-.025-1.225M303.776 209.787l.05-1.261v-2.462M284.589 374.037l-.472-6.012-.427-6.045-.416-6.068-.38-6.102-.357-6.138-.347-6.155-.301-6.195-.273-6.209-.246-6.227-.241-6.284-.196-6.28-.183-6.32-.14-6.35-.128-6.377-.092-6.388-.069-6.423-.036-6.444-.019-6.464.019-6.5.055-6.515.05-6.55.114-6.572.125-6.591.143-6.604.18-6.625.2-6.656.232-6.68" style="fill:none;stroke:red;stroke-width:.999997;stroke-linecap:round;stroke-linejoin:round;stroke-miterlimit:4;stroke-dasharray:none;stroke-opacity:1;visibility:visible"/><path d="m306.583 381.922-.43-6.03-.434-6.051-.396-6.083-.357-6.12-.367-6.14-.303-6.173-.288-6.188-.266-6.235-.242-6.261-.21-6.26-.18-6.317-.164-6.34-.147-6.355-.104-6.39-.072-6.405-.057-6.426-.011-6.463v-6.479l.01-6.517.073-6.535.078-6.552.104-6.585.148-6.605.162-6.627.198-6.644.211-6.66.237-6.695M284.75 377.49l-.033-1.167-.058-1.153-.07-1.133M306.745 385.38l-.036-1.176-.036-1.15-.09-1.131M284.75 377.49l.035 1.927M306.745 385.38l.032 1.923M218.185 370.169l197.114 71.17M223.08 366.567l192.204 69.245M256.042 190.059l-.041-1.333M278.29 197.511l-.023-1.332M256 193.751l.04-1.25v-2.443M278.253 201.217l.035-1.237.014-1.242-.014-1.226M259.656 365.112l-.484-6.017-.45-6.027-.43-6.052-.401-6.096-.374-6.105-.342-6.156-.324-6.159-.31-6.21-.268-6.225-.232-6.248-.218-6.282-.195-6.296-.164-6.341-.147-6.352-.104-6.374-.072-6.404-.076-6.426-.016-6.462V246.4l.016-6.5.055-6.53.068-6.538.115-6.568.142-6.608.162-6.608.182-6.635.211-6.66M281.51 372.939l-.472-6.015-.43-6.045-.413-6.067-.38-6.1-.36-6.138-.336-6.155-.309-6.179-.29-6.209-.254-6.245-.23-6.263-.198-6.281-.184-6.319-.139-6.356-.128-6.37-.09-6.395-.071-6.403-.033-6.445-.022-6.481.022-6.478.033-6.532.05-6.538.111-6.554.106-6.585.161-6.605.161-6.642.222-6.642.216-6.68M259.839 368.546l-.033-1.167-.079-1.138-.072-1.128M281.693 376.38l-.041-1.156-.05-1.152-.093-1.133M259.839 368.546l.035 1.927M281.693 376.38l.032 1.921M252.927 189.016l-.023-1.336M256.781 367.453l.05 1.92M256.781 367.453l-.044-1.156-.047-1.153-.096-1.131M322.888 210.11l67.75 22.656" style="fill:none;stroke:red;stroke-width:.999997;stroke-linecap:round;stroke-linejoin:round;stroke-miterlimit:4;stroke-dasharray:none;stroke-opacity:1;visibility:visible"/><path d="m322.01 207.77.07.161.034.182v.161l-.033.143-.05.126-.114.094-.104.066-.151.022-.139-.022-.148-.066-.138-.094-.128-.126-.107-.143-.09-.179-.055-.164-.016-.177.016-.144.054-.144.071-.11.107-.086.122-.041h.151l.14.041.147.087.142.109.126.144.093.16M324.203 207.84v.056M235.266 178.754l.076.168.036.175v.161l-.023.143-.068.128-.093.089-.105.073-.127.02-.147-.02-.14-.053-.15-.11-.123-.127-.108-.143-.09-.161-.05-.175-.023-.168.023-.163.035-.122.093-.111.083-.09.128-.038h.144l.142.039.148.072.128.128.126.122.085.163M239.716 368.295l.07.16.034.163v.162l-.033.144-.058.107-.093.093-.104.056-.125.015-.142-.037-.148-.054-.142-.088-.123-.128-.115-.145-.07-.163-.047-.161-.024-.161.024-.163.033-.124.071-.11.107-.067.125-.039.125.019.148.036.139.069.13.11.127.14.091.166M240.399 366.151l.07.039.162.124.145.144.142.144.125.145.15.177.105.164.106.179.112.185.082.199.08.173.07.2.036.199.032.145M324.766 398.874l.07.165.034.159v.164l-.033.14-.071.128-.09.093-.107.055h-.147l-.14-.02-.15-.053-.126-.108-.125-.127-.107-.145-.09-.16-.057-.166-.014-.158.014-.162.056-.128.068-.108.114-.07.128-.038.128.019.161.039.14.068.125.128.128.125.091.16M325.427 396.677l.055.061.161.127.164.121.147.142.14.162.128.164.122.183.11.179.112.18.085.177.076.2.068.197.057.198.036.145M404.07 427.402l.057.165.032.162v.161l-.018.147-.071.125-.09.088-.126.05-.143.023-.146-.034-.14-.054-.151-.11-.124-.128-.108-.142-.09-.161-.049-.177v-.307l.05-.144.089-.112.108-.053.124-.032h.15l.14.032.147.089.143.108.112.144.104.16M404.703 425.172l.07.04.162.123.161.128.139.138.15.167.14.159.129.184.112.18.104.181.092.177.093.203.068.199.055.192.038.16" style="fill:none;stroke:red;stroke-width:.666665;stroke-linecap:round;stroke-linejoin:round;stroke-miterlimit:4;stroke-dasharray:none;stroke-opacity:1;visibility:visible"/><path d="m224.107 359.617-.036-1.08M224.612 357.798l.36.147M224.612 357.798h-.09l-.094.02-.09.073-.086.108-.075.126-.049.122-.039.15-.018.141M220.492 178.019l-.041-1.207M224.74 352.455l-.403-4.628-.37-4.641-.367-4.663-.336-4.681-.325-4.699-.326-4.715-.286-4.733-.287-4.755-.273-4.748-.248-4.79-.242-4.787-.209-4.821-.203-4.826-.2-4.844-.161-4.858-.16-4.879-.127-4.876-.125-4.914-.104-4.92-.096-4.926-.07-4.95-.069-4.972-.036-4.967-.018-4.948-.022-4.95.022-4.967.018-4.972.036-5 .05-5.007.076-5.021.085-5.026.092-5.032.127-5.064.128-5.077.161-5.073M224.914 355.89l.057 2.053M224.914 355.89l-.015-.699-.018-.69-.05-.679-.044-.684-.048-.684M224.107 359.617l-.036-1.08M224.612 357.798l190.385 68.368" style="fill:none;stroke:red;stroke-width:.999997;stroke-linecap:round;stroke-linejoin:round;stroke-miterlimit:4;stroke-dasharray:none;stroke-opacity:1;visibility:visible"/><path d="M224.612 357.798h-.09l-.094.02-.09.073-.086.108-.075.126-.049.122-.039.15-.018.141M218.51 376.953l-.072-.032-.035-.076-.033-.09-.024-.105-.161-6.481M218.185 370.169v-.095l.035-.106.054-.088.072-.056 4.571-2.899M222.917 366.925l.07-.07.058-.09.036-.092v-.105l-.164-6.715M222.917 359.852l.024-.108.033-.09.058-.087.049-.078.196-.121" style="fill:none;stroke:red;stroke-width:.999997;stroke-linecap:round;stroke-linejoin:round;stroke-miterlimit:4;stroke-dasharray:none;stroke-opacity:1;visibility:visible"/><path d="m223.276 359.369.057-.017h.055M223.388 359.352l191.716 68.885M220.492 178.019l-.041-1.207M220.471 181.723v-.376l.021-.037v-.939l.011-.033v-1.439l-.01-.037v-.843M224.914 355.89l.057 2.053M218.2 172.398l.055 2.683M218.255 175.08l.021.075.036.069.032.02M218.346 175.244l16.721 5.597M235.737 181.074l88.12 29.487" style="fill:none;stroke:red;stroke-width:.999997;stroke-linecap:round;stroke-linejoin:round;stroke-miterlimit:4;stroke-dasharray:none;stroke-opacity:1;visibility:visible"/><path d="m320.44 208.619-.104-.201-.09-.199-.093-.195-.072-.2-.057-.2-.05-.196-.031-.216-.023-.196v-.178l.023-.2.013-.183v-.016M324.203 207.897v.033l.032.198v.397l-.01.177-.037.184-.057.167-.057.16-.068.16-.094.127-.102.124-.107.108-.112.109-.13.087-.138.073-.148.039-.139.052-.161.02h-.325l-.183-.039-.161-.033-.175-.055-.161-.07-.187-.091-.161-.092-.16-.108-.162-.124-.161-.146-.148-.141-.141-.16-.162-.221-.148-.212M233.753 179.566l-.104-.18-.092-.2-.095-.196-.07-.216-.055-.201-.035-.194-.033-.2-.016-.18v-.202l.016-.178.019-.161M237.388 179.962l-.015.105-.068.16-.078.144-.086.146-.092.108-.112.113-.121.103-.123.073-.128.072-.149.055-.14.032-.161.022h-.146l-.164-.022-.174-.015-.162-.052-.169-.059-.161-.068-.175-.09-.164-.088-.163-.128-.145-.122-.161-.15-.14-.144-.128-.16-.162-.218-.15-.213M238.273 369.068l-.104-.18-.09-.197-.093-.179-.072-.199-.057-.197-.056-.196-.033-.185-.036-.195v-.36l.018-.18.039-.161.033-.166.058-.16.07-.126.09-.147.088-.103.09-.113.126-.09.106-.069.144-.074.13-.052.138-.036.151-.018h.161l.162.018.161.018.161.05.162.056.16.07.161.095.164.085.093.074M241.818 368.369l.021.032.014.199.022.18v.182l-.022.179-.014.181-.054.159-.039.144-.068.145-.079.146-.085.108-.112.104-.107.112-.122.07-.128.071-.13.057-.138.035-.148.019-.162.02-.161-.02-.139-.019-.164-.035-.182-.057-.162-.07-.161-.071-.161-.112-.162-.104-.15-.108-.16-.146-.14-.145-.151-.144-.139-.195-.161-.218M323.29 399.686l-.112-.184-.107-.19-.09-.183-.071-.202-.07-.197-.055-.193-.036-.182-.022-.2-.014-.196v-.18l.014-.178.04-.163.039-.165.05-.16.073-.146.07-.126.107-.12.093-.11.123-.093.13-.09.127-.073.139-.053.148-.033.14-.016h.324l.161.032.162.038.164.05.18.078.161.067.161.108.11.05" style="fill:none;stroke:red;stroke-width:.666665;stroke-linecap:round;stroke-linejoin:round;stroke-miterlimit:4;stroke-dasharray:none;stroke-opacity:1;visibility:visible"/><path d="m326.888 398.913.016.039.019.194.014.198v.361l-.033.164-.039.183-.049.14-.073.16-.071.128-.09.128-.095.105-.119.108-.115.09-.138.07-.126.057-.148.036-.161.018-.143.02h-.16l-.161-.038-.161-.021-.187-.056-.161-.07-.16-.071-.184-.088-.162-.11-.161-.126-.139-.13-.161-.14-.128-.164-.184-.197-.139-.215M402.56 428.25l-.13-.197-.089-.18-.104-.2-.07-.195-.079-.201-.05-.198-.035-.18-.034-.197v-.556l.034-.179.034-.161.051-.167.079-.141.084-.144.09-.127.112-.106.107-.095.125-.085.126-.075.142-.052.147-.036.161-.039h.326l.161.022.18.034.161.052.178.075.161.09.184.089.09.07M406.216 427.402l.013.037.019.202.017.178.022.198-.022.182-.017.18-.055.162-.034.16-.072.149-.068.141-.092.13-.112.118-.107.091-.127.092-.125.073-.141.056-.148.05-.162.036h-.322l-.163-.018-.163-.036-.18-.032-.161-.077-.177-.068-.162-.09-.182-.113-.162-.126-.142-.123-.162-.143-.146-.142-.162-.203-.161-.216" style="fill:none;stroke:red;stroke-width:.666665;stroke-linecap:round;stroke-linejoin:round;stroke-miterlimit:4;stroke-dasharray:none;stroke-opacity:1;visibility:visible"/><path d="m213.36 170.774 21.159 7.097M389.843 229.805l3.739 1.25M239.695 179.597l143.062 47.839M325.943 550.968h0" style="fill:none;stroke:red;stroke-width:1.99999;stroke-linecap:round;stroke-linejoin:round;stroke-miterlimit:4;stroke-dasharray:none;stroke-opacity:1;visibility:visible"/><path d="m335.607 566.74-.179-12.728M335.43 554.012l-1.804-.527-1.78-.556-1.767-.554-1.742-.579-1.73-.595-1.692-.612-1.688-.628M329.526 563.139l-.164-.077-.184-.086-.157-.112-.146-.125-.148-.14-.141-.163-.104-.184-.093-.174-.055-.183-.055-.164-.016-.181v-.16l.016-.163.042-.141.052-.127.088-.112.092-.083.09-.078.128-.051.12-.035.13-.02h.144l.14.02.146.035.146.05.142.08.144.082.146.092.125.125.107.127.109.128.11.148.074.161.07.174.049.164.041.162v.322l-.041.149-.05.14-.069.125-.112.112-.11.086-.142.077-.143.035-.164.016-.177-.016-.18-.035M329.453 557.52l-.181-.053-.163-.092-.159-.107-.164-.14-.142-.15-.128-.16-.11-.183-.088-.175-.07-.163-.039-.182-.016-.163-.016-.173.016-.15.055-.14.057-.148.065-.105.091-.093.11-.07.109-.054.125-.036.145-.022h.142l.145.022.144.036.145.054.143.07.144.093.123.105.126.106.128.126.11.148.088.14.092.163.074.16.048.163.023.181.013.163-.013.148-.023.14-.048.149-.074.119-.111.128-.127.092-.122.053-.162.057h-.328l-.177-.057" style="fill:none;stroke:red;stroke-width:.999997;stroke-linecap:round;stroke-linejoin:round;stroke-miterlimit:4;stroke-dasharray:none;stroke-opacity:1;visibility:visible"/><path d="M322.862 549.745h0" style="fill:none;stroke:red;stroke-width:1.99999;stroke-linecap:round;stroke-linejoin:round;stroke-miterlimit:4;stroke-dasharray:none;stroke-opacity:1;visibility:visible"/><path d="m337.05 553.738 1.707-1.78M335.52 554.027h0M330.675 552.572h0M326.104 551.024h0M326.013 550.99h0M337.05 553.738l-.127.112-.146.07-.159.07-.18.056-.2.016-.216.021h-.193l-.203-.037-.196-.035" style="fill:none;stroke:red;stroke-width:.999997;stroke-linecap:round;stroke-linejoin:round;stroke-miterlimit:4;stroke-dasharray:none;stroke-opacity:1;visibility:visible"/><path d="m323.227 549.962-.164-.076-.125-.07-.091-.107-.07-.112-.02-.106" style="fill:none;stroke:red;stroke-width:1.99999;stroke-linecap:round;stroke-linejoin:round;stroke-miterlimit:4;stroke-dasharray:none;stroke-opacity:1;visibility:visible"/><path d="M335.607 566.74v.124l.035.12.041.092.05.056.073.036" style="fill:none;stroke:red;stroke-width:.999997;stroke-linecap:round;stroke-linejoin:round;stroke-miterlimit:4;stroke-dasharray:none;stroke-opacity:1;visibility:visible"/><path d="m338.922 564.897-.023.168-.049.163-.112.106M323.747 547.908l.087-.09.129-.057.123-.034.141-.016.164.016" style="fill:none;stroke:red;stroke-width:1.99999;stroke-linecap:round;stroke-linejoin:round;stroke-miterlimit:4;stroke-dasharray:none;stroke-opacity:1;visibility:visible"/><path d="m337.966 551.024.035-.033h.036M338.794 551.888l-.02.036-.016.035" style="fill:none;stroke:red;stroke-width:.999997;stroke-linecap:round;stroke-linejoin:round;stroke-miterlimit:4;stroke-dasharray:none;stroke-opacity:1;visibility:visible"/><path d="M338.958 564.826v.036l-.036.035M324.393 547.727l.037-.035h.036" style="fill:none;stroke:red;stroke-width:1.99999;stroke-linecap:round;stroke-linejoin:round;stroke-miterlimit:4;stroke-dasharray:none;stroke-opacity:1;visibility:visible"/><path d="M325.977 550.99h0" style="fill:none;stroke:red;stroke-width:.999997;stroke-linecap:round;stroke-linejoin:round;stroke-miterlimit:4;stroke-dasharray:none;stroke-opacity:1;visibility:visible"/><path d="M322.758 549.49h0" style="fill:none;stroke:red;stroke-width:1.99999;stroke-linecap:round;stroke-linejoin:round;stroke-miterlimit:4;stroke-dasharray:none;stroke-opacity:1;visibility:visible"/><path d="m338.037 550.99-12.11-2.94M338.037 550.99l.128.033.123.072.129.071.11.09.089.127.068.107.054.125.039.148.016.126.145 10.814M478.997 408.135l-1.153.493-1.134.499-1.096.519-1.085.528-1.047.554-1.005.558-.97.576-.955.598-.9.611-.879.61-.853.634-.806.647-.773.645-.74.65-.703.68-.648.691M469.365 402.018l-.072-.036h-.125" style="fill:none;stroke:red;stroke-width:.999997;stroke-linecap:round;stroke-linejoin:round;stroke-miterlimit:4;stroke-dasharray:none;stroke-opacity:1;visibility:visible"/><path d="m497.216 396.617 96.136-39.473" style="fill:none;stroke:red;stroke-width:1.99999;stroke-linecap:round;stroke-linejoin:round;stroke-miterlimit:4;stroke-dasharray:none;stroke-opacity:1;visibility:visible"/><path d="m602.945 357.165-123.948 50.97M464.253 417.628 338.739 551.634M240.344 382.457l.123-.197.166-.163.194-.147.2-.105.233-.057.25-.022.251.022.274.057.27.084.25.148.269.161.255.198.232.229.218.255.198.289.177.287.144.31.107.303.096.31.033.3.019.311-.019.288-.052.267-.09.232-.11.239-.144.177-.183.159-.194.116-.216.09-.235.036h-.252l-.27-.036-.274-.078-.264-.128-.252-.139-.27-.197-.233-.218-.237-.23-.197-.276-.199-.29-.145-.286-.14-.302-.092-.325-.075-.31-.035-.302v-.287l.035-.277.075-.264.109-.232M385.708 435.197l.147-.196.158-.184.203-.125.216-.107.25-.055.258-.014.265.014.267.055.29.107.271.146.267.163.257.217.252.232.218.252.209.29.165.288.162.322.112.303.068.324.057.31.015.3-.036.29-.055.273-.088.255-.123.21-.166.206-.18.139-.219.128-.23.07-.254.035h-.253l-.266-.035-.289-.07-.268-.128-.273-.16-.268-.184-.254-.231-.233-.235-.215-.273-.185-.303-.163-.286-.138-.324-.091-.311-.07-.321-.022-.304v-.31l.037-.268.091-.272.104-.233M213.48 148.056l.125 5.17M207.052 151.802l.019.395M215.385 361.174l.685 26.157M211.966 374.21l-.252-.07-.25-.043-.253-.014-.237.014-.213.077-.2.092-.18.107-.162.158-.144.186-.124.194M211.643 379.031l.232.128.219.092M212.794 379.378l.25-.021.255-.058.214-.104.198-.126.182-.183.144-.199.106-.229.091-.27.035-.274.017-.3-.017-.31-.055-.325-.07-.321-.126-.324-.141-.325-.182-.307-.2-.292-.214-.267-.236-.252-.271-.217-.267-.197-.27-.14-.271-.127M210.04 155.743l.721 27.325M210.04 155.743l13.195-7.723M210.76 183.068v1.69l-.02.869M210.742 185.626l-.181 6.495-.158 6.462-.129 6.444-.11 6.444-.089 6.407-.052 6.375-.02 6.373v6.332l.02 6.319.032 6.3.075 6.28.107 6.249.128 6.226.141 6.208.179 6.194.198 6.157.235 6.12.257 6.119.268 6.082.306 6.052.322 6.046.342 5.993.378 5.997.418 5.934.412 5.942.449 5.907.488 5.863.503 5.85M215.26 358.796l.052.795.037.794.036.788M219.112 149.697h.055l.054.016.074.036.014.035v.056l-.033.056-.039.017-.036.035M219.094 149.697h.019M218.448 149.767l.107-.036.109-.017.107-.018.105-.018h.11l.106.018M214.453 148.455l-.093.143-.052.144-.022.162.022.144.036.143.07.127.11.142.125.128.145.11.162.086.177.091.18.073.2.054.235.037.233.032.23.04h.56l.271-.02.252-.035.308-.054.286-.072.286-.075.274-.088M214.27 148.096h0M214.27 148.096l.016.717M214.27 148.096l.087.052.072.053.037.071.017.056v.055l-.03.072M213.48 148.056l.05-.036.057-.016.142-.02h.131l.12.02.144.016.077.036.071.04M207.143 152.253l-.11-.073-.071-.092-.018-.07v-.073l.038-.073.032-.032.038-.038M207.159 152.253h-.017M207.826 152.322l-.124.019-.108.02h-.112l-.107-.02-.104-.034-.112-.054M211.805 153.655v.143M211.805 153.655l.087-.127.057-.108.036-.124-.019-.109-.036-.11-.073-.106-.104-.09-.125-.109-.146-.072-.161-.092-.183-.072-.184-.069-.212-.055-.216-.052-.232-.053-.238-.037-.284-.056-.271-.018-.27-.017h-.27l-.288.017-.305.018-.271.056-.27.052M211.984 153.855h0M211.984 153.855l-.09-.021-.071-.018-.036-.032-.016-.04v-.032l.032-.057" style="fill:none;stroke:red;stroke-width:.999997;stroke-linecap:round;stroke-linejoin:round;stroke-miterlimit:4;stroke-dasharray:none;stroke-opacity:1;visibility:visible"/><path d="m212.776 153.712-.052.017-.055.039-.142.05-.128.015-.126.022-.145.017h-.07l-.075-.017" style="fill:none;stroke:red;stroke-width:.999997;stroke-linecap:round;stroke-linejoin:round;stroke-miterlimit:4;stroke-dasharray:none;stroke-opacity:1;visibility:visible"/><path d="M223.36 147.88v.017l-.017.036-.014.016-.021.019-.036.017-.039.036" style="fill:none;stroke:red;stroke-width:1.99999;stroke-linecap:round;stroke-linejoin:round;stroke-miterlimit:4;stroke-dasharray:none;stroke-opacity:1;visibility:visible"/><path d="m210.04 155.743-.052.036-.057.017-.143.056-.123.035-.128.019-.142.016h-.128M209.266 155.922l-.687-.07-.677-.127-.688-.14-.683-.2-.702-.238-.686-.249-.682-.308-.684-.341-.683-.378M206.37 162.186l-.29-.072-.27-.035h-.27l-.269.054-.234.096-.216.12-.183.164-.179.217-.125.23-.107.253-.073.289-.033.305v.326l.033.322.073.342.107.34.125.326.179.324.183.31.216.286.234.27.251.23.27.219.287.161.291.124.268.111.287.053.273.02.267-.038.238-.071.23-.108.196-.145.184-.179.164-.236.102-.235.096-.286.052-.288.016-.324-.016-.324-.052-.326-.096-.34-.102-.342-.146-.323-.177-.324-.221-.288-.214-.287-.254-.252-.267-.216-.273-.182-.266-.16-.289-.111M203.094 153.872l-.075-.056-.054-.03-.032-.057-.039-.038-.019-.052v-.055M211.984 153.277v.577" style="fill:none;stroke:red;stroke-width:.999997;stroke-linecap:round;stroke-linejoin:round;stroke-miterlimit:4;stroke-dasharray:none;stroke-opacity:1;visibility:visible"/><path d="M432.07 243.907v1.404l-.023 1.403-.032 1.442" style="fill:none;stroke:red;stroke-width:1.99999;stroke-linecap:round;stroke-linejoin:round;stroke-miterlimit:4;stroke-dasharray:none;stroke-opacity:1;visibility:visible"/><path d="m422.737 236.712.068 16.393M422.805 253.106v.864l-.025.861-.019.883M422.76 255.714l-.21 6.661-.217 6.642-.185 6.608-.161 6.586-.143 6.555-.144 6.53-.107 6.52-.09 6.495-.071 6.463-.057 6.426-.035 6.406-.012 6.392v12.69l.033 6.302.048 6.278.078 6.243.084 6.23.112 6.194.129 6.153.141 6.139.162 6.125.161 6.059.197 6.056.215 6.024.233 5.977.252 5.954.256 5.942M423.43 432.365l.032.795.023.808.016.809.073 21.796M419.203 443.524l-.33-.05-.305-.02-.308.02-.304.07-.276.09-.242.129-.24.161-.195.197-.164.231-.125.255-.104.266-.058.29M418.732 448.516l.219.07.209.071.239.054M420.3 448.711l.29-.088.267-.107.23-.148.218-.161.183-.219.164-.209.104-.276.09-.268.037-.287.021-.31-.044-.302-.068-.309-.09-.324-.143-.301-.16-.29-.219-.288-.219-.274-.245-.232-.288-.218-.29-.196-.31-.164-.301-.125-.323-.09M417.635 443.65h0" style="fill:none;stroke:red;stroke-width:.999997;stroke-linecap:round;stroke-linejoin:round;stroke-miterlimit:4;stroke-dasharray:none;stroke-opacity:1;visibility:visible"/><path d="M432.128 243.798v.057l-.057.052" style="fill:none;stroke:red;stroke-width:1.99999;stroke-linecap:round;stroke-linejoin:round;stroke-miterlimit:4;stroke-dasharray:none;stroke-opacity:1;visibility:visible"/><path d="m416.899 241.91.3.216.31.196.346.144.323.108.338.073.323.038.344-.022.3-.054.312-.09.265-.126.256-.16.216-.215.183-.233.143-.272.104-.29.076-.304.036-.325-.023-.323-.048-.342-.09-.342-.126-.325-.187-.324-.193-.305" style="fill:none;stroke:red;stroke-width:.999997;stroke-linecap:round;stroke-linejoin:round;stroke-miterlimit:4;stroke-dasharray:none;stroke-opacity:1;visibility:visible"/><path d="m432.07 248.064-.023.037-.032.055" style="fill:none;stroke:red;stroke-width:1.99999;stroke-linecap:round;stroke-linejoin:round;stroke-miterlimit:4;stroke-dasharray:none;stroke-opacity:1;visibility:visible"/><path d="m213.19 163.07 185.709 61.892M418.57 448.529l.07.07M419.45 443.958l.161-.183M419.399 448.587l-.02-4.41M213.82 378.962v-.09M213.86 378.927h-.025v-.021" style="fill:none;stroke:red;stroke-width:.999997;stroke-linecap:round;stroke-linejoin:round;stroke-miterlimit:4;stroke-dasharray:none;stroke-opacity:1;visibility:visible"/><path d="M213.86 378.927v-.021h-.025v-.02M213.82 378.871l.057.035M213.836 378.836l.073.035M212.094 379.139l-.11-4.281M210.854 378.638l.177.163.18.126.195.12M211.406 379.047l.11.077M74.104 473.373h0M74.664 473.567h0M74.409 473.478h0M79.721 492.538l.141-.013.127-.035.112-.08.07-.103.055-.128v-.069l.016-.07-.65-15.829M79.594 476.211l-.02-.07-.016-.091-.07-.162-.075-.141-.106-.127-.126-.104-.09-.058-.072-.034" style="fill:none;stroke:red;stroke-width:.999997;stroke-linecap:round;stroke-linejoin:round;stroke-miterlimit:4;stroke-dasharray:none;stroke-opacity:1;visibility:visible"/><path d="m79.02 475.425-.67-.324-.629-.31-.594-.253-.578-.252-.537-.212-.51-.194-.5-.206-.482-.162-.525-.175-.503-.148-.56-.161-.519-.142" style="fill:none;stroke:red;stroke-width:.999997;stroke-linecap:round;stroke-linejoin:round;stroke-miterlimit:4;stroke-dasharray:none;stroke-opacity:1;visibility:visible"/><path d="M72.414 472.885h-.132l-.087.015-.068.076-.057.07-.036.127-.019.072v.07M75.925 484.065l-.148-.076-.159-.105-.144-.104-.129-.15-.123-.14-.128-.161-.088-.185-.076-.182-.07-.174-.031-.164-.021-.16v-.163l.021-.161.03-.128.038-.126.07-.112.073-.07.092-.071.104-.057.109-.012.11-.02.125.02.148.012.125.057.124.057.125.07.128.09.123.106.13.106.103.148.092.127.094.14.068.161.073.162.052.162.02.162.019.162-.019.162-.02.125-.052.15-.073.125-.087.092-.11.084-.129.056-.122.036h-.146l-.162-.015-.159-.036" style="fill:none;stroke:red;stroke-width:.999997;stroke-linecap:round;stroke-linejoin:round;stroke-miterlimit:4;stroke-dasharray:none;stroke-opacity:1;visibility:visible"/><path d="m71.73 472.977.032.085.055.092.09.091.11.07" style="fill:none;stroke:red;stroke-width:.999997;stroke-linecap:round;stroke-linejoin:round;stroke-miterlimit:4;stroke-dasharray:none;stroke-opacity:1;visibility:visible"/><path d="m73.401 470.867.144-.09.161-.05.18-.021.184.021M74.175 470.685h-.05l-.054.041" style="fill:none;stroke:red;stroke-width:1.99999;stroke-linecap:round;stroke-linejoin:round;stroke-miterlimit:4;stroke-dasharray:none;stroke-opacity:1;visibility:visible"/><path d="m81.159 492.939-.017.013M80.964 473.279l.18.128.141.124.164.143.127.161.128.184.121.181.092.176.09.198.072.181.034.197.042.184.013.174M75.404 470.904l.37.09.546.142.537.161.56.204.542.21.537.24.557.245.487.253.468.255.485.287.471.288M82.17 475.31l.612 15.196M431.727 400.077l24.68 8.761M238.177 384.074l.159 7.343" style="fill:none;stroke:red;stroke-width:.999997;stroke-linecap:round;stroke-linejoin:round;stroke-miterlimit:4;stroke-dasharray:none;stroke-opacity:1;visibility:visible"/><path d="M238.336 391.416v.216l-.017.183-.058.161-.068.141-.093.107-.105.077-.127.048M236.378 392.266v.197l-.041.175-.052.183-.091.141-.09.112-.127.105" style="fill:none;stroke:red;stroke-width:1.99999;stroke-linecap:round;stroke-linejoin:round;stroke-miterlimit:4;stroke-dasharray:none;stroke-opacity:1;visibility:visible"/><path d="M229.57 380.958 82.153 475.151M236.156 383.336l.221 8.93" style="fill:none;stroke:red;stroke-width:.999997;stroke-linecap:round;stroke-linejoin:round;stroke-miterlimit:4;stroke-dasharray:none;stroke-opacity:1;visibility:visible"/><path d="M235.977 393.18h0M237.87 392.35h0M322.758 549.49h0M322.956 562.307l-.197-12.816M323.638 563.224l-.127-.05-.105-.057-.11-.07-.087-.091-.076-.092-.072-.105-.055-.148-.052-.162v-.141M335.807 567.168l-1.583-.45-1.549-.471-1.552-.464-1.527-.484-1.513-.507-1.492-.507-1.495-.521-1.458-.54M337.031 566.914l-.13.113-.14.071-.162.07-.18.035-.127.022h-.269l-.11-.022-.106-.034M338.74 565.333l-1.708 1.58M322.974 548.865l.773-.956M322.758 549.49v-.105l.019-.112.033-.086.035-.112.036-.092.057-.07.036-.05" style="fill:none;stroke:red;stroke-width:1.99999;stroke-linecap:round;stroke-linejoin:round;stroke-miterlimit:4;stroke-dasharray:none;stroke-opacity:1;visibility:visible"/><path d="m338.938 562.703.021 2.123M325.927 548.05l-1.463-.359" style="fill:none;stroke:red;stroke-width:.999997;stroke-linecap:round;stroke-linejoin:round;stroke-miterlimit:4;stroke-dasharray:none;stroke-opacity:1;visibility:visible"/><path d="M338.958 564.826v.092l-.023.07-.013.091-.041.072-.03.076-.057.051-.036.056M323.763 547.908l.055-.07.086-.077.11-.05.112-.02.125-.012h.101l.112.012M593.263 351.26l.716.395M599.365 354.662l3.235 1.815M593.352 357.143l6.013-2.481M593.966 352.378l-.541.21M593.044 351.224l.07-.021.069.021.08.036M602.76 369.547l-.013.108-.02.09-.05.057-.057.048M602.945 357.165l-.187 12.381M602.6 356.477l.09.07.093.091.068.127.057.127.039.148v.126M593.966 352.378l.013-.723M593.352 357.143l.073-4.555M478.815 420.974l-.916.372-.899.416-.885.4-.865.415-.846.429-.83.43-.806.45-.797.45-.773.47-.739.472-.716.485-.704.484-.68.484-.683.508-.657.52-.623.52-.598.542-.576.542-.555.534-.519.541M450.21 414.133l.612-.613.612-.612.653-.61.66-.596.706-.594.7-.598.74-.574.773-.57.773-.564.808-.554.818-.542.841-.541.867-.521.862-.506.88-.498.888-.494.914-.485.933-.463.957-.45.956-.45.984-.45.991-.438 1.028-.428M593.044 351.224l-123.877 50.759M602.62 369.85l-107.572 44.421M450.21 414.133l-17.55 18.633M415.352 451.124l-91.012 96.554M464.149 430.438 338.957 564.723" style="fill:none;stroke:red;stroke-width:1.99999;stroke-linecap:round;stroke-linejoin:round;stroke-miterlimit:4;stroke-dasharray:none;stroke-opacity:1;visibility:visible"/><path d="m245.005 380.221.273.195.248.218.252.232.232.275.219.29.177.286.182.324.144.304.109.32.09.332.051.324M242.578 380.044l.212-.127.239-.09.265-.058.27-.013.267.013.292.058.307.105.287.127.286.162M246.984 383.322l.035.336v.325l-.035.307-.077.29-.084.253-.126.246-.166.204-.179.175-.216.15M240.755 381.337l1.823-1.293M244.21 386.718l-.161.09-.162.057-.182.056-.179.036-.177.014h-.202l-.178-.014-.196-.036-.198-.056-.221-.071-.193-.09-.2-.093-.199-.124-.195-.141-.201-.163-.181-.161-.178-.204-.18-.199-.145-.194-.141-.218-.13-.233-.125-.219-.104-.23-.076-.252-.07-.234-.055-.233-.034-.25-.018-.234-.02-.239.02-.232.032-.232.054-.22.072-.196.095-.196.104-.184.125-.161.11-.127.109-.104.124-.093M244.21 386.718l1.925-1.11M390.378 432.877l.281.183.274.212.25.238.255.268.213.288.196.288.18.303.164.323.127.345.09.323.071.322M387.854 432.773l.23-.148.253-.105.254-.056.287-.036.287.014.312.056.3.092.312.124.289.163M392.48 435.97l.035.345v.323l-.035.324-.055.31-.106.267-.126.254-.164.216-.184.197-.21.141M386.076 434.101l1.779-1.328M389.724 439.523l-.161.083-.178.078-.184.048-.173.036-.207.023h-.393l-.196-.037-.2-.056-.216-.056-.219-.084-.193-.112-.219-.107-.212-.147-.194-.162-.187-.162-.193-.176-.183-.197-.164-.217-.14-.219-.148-.232-.125-.219-.107-.252-.09-.232-.071-.25-.058-.235-.034-.253-.034-.232v-.254l.011-.23.023-.239.057-.213.07-.218.091-.197.107-.196.125-.161.104-.127.112-.112.131-.105M389.724 439.523l1.912-1.175" style="fill:none;stroke:red;stroke-width:.999997;stroke-linecap:round;stroke-linejoin:round;stroke-miterlimit:4;stroke-dasharray:none;stroke-opacity:1;visibility:visible"/><path d="m216.195 145.681.057-.019.052-.017.144-.037.13.021.125.016.139.036.074.035.071.037M216.195 145.681l-13.21 7.724M223.143 147.787h.073l.036.019.055.021.021.013.014.019.017.02M223.143 147.787l-.664-.073-.687-.107-.682-.163-.706-.181-.678-.23-.687-.274-.68-.304-.703-.341-.669-.36" style="fill:none;stroke:red;stroke-width:1.99999;stroke-linecap:round;stroke-linejoin:round;stroke-miterlimit:4;stroke-dasharray:none;stroke-opacity:1;visibility:visible"/><path d="M202.875 153.584v-.036l.019-.037v-.038l.038-.017.019-.036.033-.016" style="fill:none;stroke:red;stroke-width:.999997;stroke-linecap:round;stroke-linejoin:round;stroke-miterlimit:4;stroke-dasharray:none;stroke-opacity:1;visibility:visible"/><path d="m208.367 358.874.701 26.1M223.36 147.88l.235 9.432M202.875 153.584l.721 27.288M208.367 358.874l-.02-.484-.016-.472-.039-.47-.016-.465-.052-.472M203.596 183.39v-.27l.019-.037v-2.086l-.019-.038v-.088M208.224 356.51l-.4-4.625-.373-4.64-.38-4.662-.364-4.698-.339-4.696-.328-4.718-.303-4.732-.284-4.736-.289-4.77-.255-4.79-.254-4.824-.23-4.844-.221-4.858-.193-4.877-.18-4.895-.162-4.895-.161-4.937-.125-4.927-.128-4.952-.108-4.968-.068-4.986-.076-5.002-.052-5.005-.058-5.095-.02-5.112v-5.13l.02-5.13.022-5.148.052-5.184.054-5.164.088-5.204.092-5.2.123-5.222.13-5.238.14-5.256" style="fill:none;stroke:red;stroke-width:1.99999;stroke-linecap:round;stroke-linejoin:round;stroke-miterlimit:4;stroke-dasharray:none;stroke-opacity:1;visibility:visible"/><path d="m432.649 446.89.055-.056v-.047M423.576 456.573l9.073-9.683M422.839 456.7l.128.033h.161l.136-.01.13-.039.106-.055.076-.057M415.688 455.047l7.15 1.653M415.365 454.794l.021.09.068.071.107.056.127.035" style="fill:none;stroke:red;stroke-width:.999997;stroke-linecap:round;stroke-linejoin:round;stroke-miterlimit:4;stroke-dasharray:none;stroke-opacity:1;visibility:visible"/><path d="m432.649 425.04.055 21.748M415.258 433.012l.107 21.783M432.089 228.38l.037 15.417M414.38 244.38l.032 7.052M415.258 433.012v-.97l-.023-.463-.013-.495-.019-.461M432.555 421.1l.035.773.022.774.014.788.021.794v.81M414.372 254.027v-.42l.021-.035v-.806l.019-.022v-1.312M432.128 243.798v2.235l-.023.049v.813l-.021.036v.555l-.013.057v.52M415.203 430.623l-.219-4.697-.21-4.719-.183-4.732-.197-4.753-.163-4.775-.163-4.781-.146-4.808-.14-4.826-.126-4.844-.128-4.858-.104-4.915-.09-4.93-.071-4.949-.08-4.97-.068-4.985-.039-5.007-.057-5.02-.012-5.041-.02-5.056V332.9l.02-5.098.012-5.092.025-5.13.058-5.204.046-5.236.079-5.235.068-5.259.093-5.273.107-5.293.125-5.294.127-5.324.128-5.348.161-5.344.159-5.365.177-5.377M432.07 248.064l-.184 5.256-.177 5.239-.162 5.237-.144 5.22-.129 5.203-.125 5.185-.107 5.185-.092 5.146-.088 5.148-.088 5.132-.055 5.092-.057 5.076-.032 5.057-.036 5.04-.021 5.041v10.007l.021 4.97.036 4.964.032 4.948.057 4.94.055 4.891.072 4.893.09 4.774.085 4.769.114 4.739.104 4.732.128 4.696.148 4.697.139 4.661.163 4.662.162 4.628.18 4.625.2 4.59.194 4.593M218.503 376.944l20.361 7.368M245.263 386.623l139.646 50.545M390.307 439.122l25.021 9.05" style="fill:none;stroke:red;stroke-width:1.99999;stroke-linecap:round;stroke-linejoin:round;stroke-miterlimit:4;stroke-dasharray:none;stroke-opacity:1;visibility:visible"/><path d="m223.307 157.22-.075-.02-.052.02-.073.019-9.917 5.83M213.151 163.07l-.067.053-.057.071-.05.092-.045.11-.028.107v.098l.18 6.8" style="fill:none;stroke:red;stroke-width:.999997;stroke-linecap:round;stroke-linejoin:round;stroke-miterlimit:4;stroke-dasharray:none;stroke-opacity:1;visibility:visible"/><path d="m223.307 157.22 182.914 60.736" style="fill:none;stroke:red;stroke-width:1.99999;stroke-linecap:round;stroke-linejoin:round;stroke-miterlimit:4;stroke-dasharray:none;stroke-opacity:1;visibility:visible"/><path d="m417.003 444.34-.175.21-.129.24-.11.246-.07.272-.016.29v.289l.05.302.07.311.128.3.148.29.175.289.218.252.232.253.252.217.29.198.286.162.29.139M419.399 448.587l-.112-.023-.083-.012-.092-.036-.09-.02-.095-.036-.105-.036M418.64 448.6l.183-.175M419.399 448.711v-.124M419.471 448.783l-.075-.072M213.802 378.85l.019.021-.019.106M212.094 379.286v-.147M212.203 379.378l.23.035.237-.022.213-.034.196-.058.184-.104M212.203 379.378l-.11-.092M212.094 379.139l-.077-.035-.052-.016-.052-.02-.058-.037-.05-.019-.052-.036M211.516 379.124l.237-.147M210.328 374.567l-.181.127-.16.164-.13.196-.086.217-.072.253-.058.255v.265l.023.29.035.301.072.288M210.885 378.688l.196.163.221.146.214.127M209.787 377l-.017-.077M209.787 377l.128.304.123.287.165.289.201.288.214.25.237.22M210.854 378.638l.03.05M72.354 471.584h0" style="fill:none;stroke:red;stroke-width:.999997;stroke-linecap:round;stroke-linejoin:round;stroke-miterlimit:4;stroke-dasharray:none;stroke-opacity:1;visibility:visible"/><path d="m71.73 472.977.019-.217.013-.218.055-.218.074-.176.11-.183.109-.14.12-.127.125-.113M72.393 488.764l-.664-15.787M73.258 490.472l-.161-.15-.146-.14-.125-.16-.09-.149-.058-.105-.013-.021v-.016l-.016-.034-.072-.148-.074-.21-.052-.218-.038-.182-.019-.175M80.242 493.151l-.523-.036-.521-.05-.525-.091-.519-.112-.5-.127-.527-.163-.484-.174-.505-.198-.487-.218-.5-.252-.489-.287-.49-.304-.466-.324-.448-.343M81.143 492.953l-.143.07-.164.057-.177.056-.128.016h-.29M72.354 471.584l1.047-.717M81.159 492.939l1.097-.632" style="fill:none;stroke:red;stroke-width:1.99999;stroke-linecap:round;stroke-linejoin:round;stroke-miterlimit:4;stroke-dasharray:none;stroke-opacity:1;visibility:visible"/><path d="m74.175 470.685.527.079.536.104.166.036" style="fill:none;stroke:red;stroke-width:.999997;stroke-linecap:round;stroke-linejoin:round;stroke-miterlimit:4;stroke-dasharray:none;stroke-opacity:1;visibility:visible"/><path d="m73.401 470.867.11-.07.143-.057.127-.034.125-.022.147-.013.121.013M82.815 491.118l-.017.197-.016.183-.039.176-.068.161-.07.147-.113.128-.109.107-.125.09" style="fill:none;stroke:red;stroke-width:1.99999;stroke-linecap:round;stroke-linejoin:round;stroke-miterlimit:4;stroke-dasharray:none;stroke-opacity:1;visibility:visible"/><path d="m82.781 490.505.032.613M74.07 473.373h0" style="fill:none;stroke:red;stroke-width:.999997;stroke-linecap:round;stroke-linejoin:round;stroke-miterlimit:4;stroke-dasharray:none;stroke-opacity:1;visibility:visible"/><path d="m431.495 392.623 32.743 11.588M432.36 416.488l11.699 4.176M237.87 392.35l13.516-3.508M235.977 393.18 82.745 491.673M209.055 384.777l-134.88 85.908M237.87 392.35l-.344.115-.345.125-.322.128-.322.14-.287.161-.273.162" style="fill:none;stroke:red;stroke-width:1.99999;stroke-linecap:round;stroke-linejoin:round;stroke-miterlimit:4;stroke-dasharray:none;stroke-opacity:1;visibility:visible"/><path d="m235.393 175.416.125-.219.164-.18.194-.161.213-.107.239-.07.253-.039.25.019.269.054.29.092.271.124.27.162.251.221.235.21.23.273.2.268.18.305.145.307.109.321.084.328.057.327.02.305-.02.303-.057.27-.084.268-.13.235-.14.201-.18.162-.198.144-.235.089-.234.053h-.274l-.248-.02-.288-.07-.268-.123-.276-.144-.245-.183-.255-.217-.234-.252-.215-.267-.179-.288-.164-.308-.145-.305-.09-.323-.071-.325-.038-.323v-.309l.038-.285.072-.27.109-.253M240.287 173.217l.27.199.257.236.252.254.213.266.212.29.184.324.164.323.125.324.104.344.092.32.036.343M237.768 172.97l.235-.13.25-.087.268-.056.271-.018.307.039.286.07.303.107.31.144.289.179M242.195 176.44l.019.341-.019.331-.033.32-.096.284-.104.275-.142.25-.185.199-.195.179-.217.145M235.893 174.19l1.873-1.22" style="fill:none;stroke:red;stroke-width:.999997;stroke-linecap:round;stroke-linejoin:round;stroke-miterlimit:4;stroke-dasharray:none;stroke-opacity:1;visibility:visible"/><path d="m239.242 179.825-.161.072-.18.055-.195.054-.183.035h-.396l-.194-.035-.186-.038-.213-.051-.213-.092-.206-.087-.193-.109-.216-.128-.2-.16-.193-.161-.183-.183-.161-.2-.184-.213-.144-.215-.146-.217-.12-.235-.109-.248-.093-.236-.07-.25-.072-.255-.038-.252-.032-.236v-.483l.032-.252.038-.215.072-.233.087-.201.092-.2.13-.178.127-.16.102-.128.128-.093.122-.108M239.242 179.825l1.98-1.061M209.07 384.988l.016.035.016.021.039.021h.033l.037.014h.054M209.07 384.974h0v.015M215.677 387.401h.213l.055-.016.07-.019.055-.036 10.756-6.813M215.297 387.274l.055.041.054.015.071.036h.055l.07.019.075.016M212.273 385.839l.61.232.594.267.612.289.593.308.615.34M209.266 385.08l.592.107.599.112.609.16.593.162.615.218M464.69 194.238l.07-.073.034-.108.021-.124M480.003 171.792l-1.19.45-1.166.47-1.13.484-1.098.504-1.083.507-1.028.516-1.002.544-.982.558-.948.555-.901.577-.863.595-.828.595-.809.592-.759.612-.718.629-.684.63M489.982 160.992l4.152 1.31M494.276 162.664l-3.637 2.232M494.276 162.664l.057-.068.032-.059v-.069l-.032-.055-.09-.053-.107-.057M489.854 164.97l-4.177-1.333M489.854 164.97l.128.019.14.021h.147l.14-.021.128-.036.104-.056M485.552 163.295l3.633-2.248M485.552 163.295l-.072.056-.043.056v.065l.058.075.07.053.112.036M489.982 160.992l-.148-.039-.141-.017h-.148l-.143.037-.123.019-.096.055M423.557 208.116l.216-.145.255-.124.285-.108.304-.092.347-.072.354-.052.362-.039.38-.015h.358l.379.036.357.032.346.074.325.089.287.092.266.125.242.127.193.145.143.143.128.161.054.163.036.179-.036.161-.07.164-.112.163-.162.161-.197.143-.235.125-.273.108-.3.11-.323.09-.344.05-.361.058-.379.016-.38.021-.358-.021-.38-.033-.339-.056-.341-.071-.303-.11-.29-.107-.251-.126-.2-.126-.18-.144-.142-.162-.077-.161-.052-.165v-.176l.052-.163.09-.16.147-.165.179-.143M418.122 213.319l.232-.127.25-.126.291-.108.308-.108.336-.074.362-.05.362-.039.375-.017.367.017.37.017.367.038.339.073.322.088.308.092.255.124.232.128.197.143.16.162.112.16.072.163.014.164-.036.18-.068.159-.11.164-.161.142-.201.146-.234.144-.266.108-.31.105-.325.092-.341.057-.36.052-.372.023-.38.015-.383-.015-.355-.041-.361-.054-.323-.092-.308-.086-.289-.111-.253-.127-.22-.126-.172-.162-.128-.142-.091-.18-.035-.162v-.162l.055-.18.09-.16.12-.144.186-.163M469.893 166.03l.07-.017.069.017.056.02M607.537 124.29l-127.533 47.503M464.815 180.61 335.446 305.478M485.552 163.583v-.288M494.135 162.738v-.435M332.01 307.729l.183 13.513M319.427 303.966l1.745.576 1.747.576 1.781.539 1.803.538 1.817.524 1.836.506 1.855.504M325.8 307.873l-.181-.056-.178-.017-.164.017-.158.035-.144.054-.128.091-.107.127-.093.124-.052.148-.052.157-.019.164v.18l.035.183.036.174.073.182.088.181.09.144.106.141.127.146.128.128.142.105.146.092.144.07.161.055.141.036.148.02h.143l.144-.02.125-.036.127-.069.11-.075.089-.086.093-.127.07-.127.031-.162.038-.147v-.176l-.016-.16-.039-.184-.055-.176-.086-.205-.11-.178-.125-.181-.143-.159-.161-.126-.164-.127-.18-.09-.18-.07M325.893 313.827l-.187-.03-.178-.022h-.163l-.161.036-.142.07-.129.091-.105.108-.088.124-.071.148-.039.162-.018.162v.178l.032.181.041.183.07.174.091.183.087.163.11.142.126.126.128.124.145.112.144.089.143.076.141.048.164.041.143.018h.144l.148-.018.12-.041.11-.048.11-.093.11-.092.086-.124.055-.127.054-.143.019-.161.013-.161-.013-.183-.039-.177-.054-.183-.09-.181-.106-.198-.128-.162-.143-.162-.161-.142-.164-.124-.178-.091-.177-.076" style="fill:none;stroke:red;stroke-width:.999997;stroke-linecap:round;stroke-linejoin:round;stroke-miterlimit:4;stroke-dasharray:none;stroke-opacity:1;visibility:visible"/><path d="M319.068 303.752h0" style="fill:none;stroke:red;stroke-width:1.99999;stroke-linecap:round;stroke-linejoin:round;stroke-miterlimit:4;stroke-dasharray:none;stroke-opacity:1;visibility:visible"/><path d="m335.445 305.785-1.776 1.688M332.318 307.782h0M332.01 307.729l.196.033.216.02h.416l.212-.036.184-.052.183-.057.142-.07.11-.094" style="fill:none;stroke:red;stroke-width:.999997;stroke-linecap:round;stroke-linejoin:round;stroke-miterlimit:4;stroke-dasharray:none;stroke-opacity:1;visibility:visible"/><path d="m318.958 303.514.021.11.052.087.112.112.123.071.161.072" style="fill:none;stroke:red;stroke-width:1.99999;stroke-linecap:round;stroke-linejoin:round;stroke-miterlimit:4;stroke-dasharray:none;stroke-opacity:1;visibility:visible"/><path d="m320.635 301.768-.143-.016-.148.016-.125.041-.125.05-.094.092M332.422 321.748l-.072-.055-.072-.07-.033-.092-.036-.139-.016-.15" style="fill:none;stroke:red;stroke-width:.999997;stroke-linecap:round;stroke-linejoin:round;stroke-miterlimit:4;stroke-dasharray:none;stroke-opacity:1;visibility:visible"/><path d="m335.411 320.054.09-.107.071-.124.035-.129.02-.14" style="fill:none;stroke:red;stroke-width:1.99999;stroke-linecap:round;stroke-linejoin:round;stroke-miterlimit:4;stroke-dasharray:none;stroke-opacity:1;visibility:visible"/><path d="m335.667 319.48-.023.037-.016.038M335.484 305.712l-.017.035-.022.038M334.69 304.773l-.033.021-.039.018M320.706 301.736l-.017.016-.055.016" style="fill:none;stroke:red;stroke-width:.999997;stroke-linecap:round;stroke-linejoin:round;stroke-miterlimit:4;stroke-dasharray:none;stroke-opacity:1;visibility:visible"/><path d="M318.958 303.514h0" style="fill:none;stroke:red;stroke-width:1.99999;stroke-linecap:round;stroke-linejoin:round;stroke-miterlimit:4;stroke-dasharray:none;stroke-opacity:1;visibility:visible"/><path d="m335.628 317.411-.143-11.699M334.69 304.773l-12.328-2.679M334.69 304.773l.144.056.13.056.125.088.109.095.087.104.09.124.055.146.039.127.016.143" style="fill:none;stroke:red;stroke-width:.999997;stroke-linecap:round;stroke-linejoin:round;stroke-miterlimit:4;stroke-dasharray:none;stroke-opacity:1;visibility:visible"/><path d="m607.177 123.608-9.612-4.848M597.565 118.76l-.077-.015-.068-.02-.071.02M607.537 124.29v-.127l-.036-.144-.055-.145-.093-.105-.084-.09-.093-.07M607.339 137.411l.196-13.121M607.156 137.752l.07-.052.058-.073.033-.11.022-.106M479.807 185.417l-.96.359-.912.36-.921.378-.879.398-.885.394-.846.415-.829.415-.807.416-.786.428-.782.45-.754.436-.716.446-.702.468-.692.466-.661.492-.644.486-.635.498-.597.504-.57.51-.54.501M450.396 177.336l.633-.576.623-.577.667-.56.705-.555.703-.559.74-.54.773-.542.773-.539.806-.519.83-.502.844-.526.867-.486.899-.503.88-.468.898-.45.922-.469.937-.429.956-.453.967-.414 1.005-.432 1.015-.413 1.026-.396 1.028-.399M597.35 118.746l-127.456 47.283M607.156 137.752l-127.35 47.665M450.396 177.336l-129.76 124.4M464.69 194.238 335.666 319.407M318.958 303.514h0" style="fill:none;stroke:red;stroke-width:1.99999;stroke-linecap:round;stroke-linejoin:round;stroke-miterlimit:4;stroke-dasharray:none;stroke-opacity:1;visibility:visible"/><path d="M320.003 301.95h0" style="fill:none;stroke:red;stroke-width:.999997;stroke-linecap:round;stroke-linejoin:round;stroke-miterlimit:4;stroke-dasharray:none;stroke-opacity:1;visibility:visible"/><path d="m318.958 303.514.199 13.627M319.214 302.85l.79-.899M318.958 303.514v-.107l.021-.108.016-.086.036-.112.055-.088.057-.091.068-.072M319.896 318.095l-.127-.053-.125-.076-.11-.068-.086-.092-.09-.088-.071-.11-.075-.138-.037-.164-.018-.166M332.422 321.748l-1.62-.43-1.601-.433-1.602-.43-1.562-.45-1.571-.47-1.525-.467-1.532-.488-1.515-.485M333.63 321.517l-.143.092-.148.07-.18.069-.177.02-.125.017h-.143l-.128-.017-.164-.02M335.411 320.054l-1.781 1.463M335.667 319.48v.09l-.023.09-.034.07-.036.127-.071.111-.09.085" style="fill:none;stroke:red;stroke-width:1.99999;stroke-linecap:round;stroke-linejoin:round;stroke-miterlimit:4;stroke-dasharray:none;stroke-opacity:1;visibility:visible"/><path d="m335.667 319.48-.039-2.07M322.362 302.095l-1.656-.359" style="fill:none;stroke:red;stroke-width:.999997;stroke-linecap:round;stroke-linejoin:round;stroke-miterlimit:4;stroke-dasharray:none;stroke-opacity:1;visibility:visible"/><path d="m320.003 301.932.09-.053.093-.07.106-.057.126-.017.125-.022.107.022h.054" style="fill:none;stroke:red;stroke-width:1.99999;stroke-linecap:round;stroke-linejoin:round;stroke-miterlimit:4;stroke-dasharray:none;stroke-opacity:1;visibility:visible"/><path d="m384.116 225.113.127-.219.162-.181.195-.16.213-.108.238-.07.254-.037.25.016.268.058.29.09.271.123.27.161.251.222.234.212.23.27.202.271.18.303.144.306.109.326.084.325.057.327.022.302-.022.306-.057.272-.084.268-.128.233-.141.2-.18.161-.2.146-.234.088-.234.054h-.272l-.25-.02-.286-.069-.27-.124-.276-.144-.245-.183-.255-.216-.234-.253-.215-.268-.179-.288-.162-.307-.147-.304-.088-.324-.073-.326-.036-.323v-.307l.036-.286.073-.27.108-.253M389.01 222.914l.27.199.254.236.253.253.214.267.212.29.184.324.164.323.126.323.104.344.092.322.035.342M386.49 222.667l.235-.13.249-.089.27-.053.27-.02.308.039.287.072.302.104.31.148.289.176" style="fill:none;stroke:red;stroke-width:.999997;stroke-linecap:round;stroke-linejoin:round;stroke-miterlimit:4;stroke-dasharray:none;stroke-opacity:1;visibility:visible"/><path d="m390.918 226.136.019.343-.019.329-.032.32-.096.285-.103.275-.144.25-.184.198-.196.18-.216.144M384.617 223.887l1.872-1.219M387.965 229.522l-.16.072-.181.055-.195.053-.183.036h-.396l-.194-.036-.184-.037-.214-.051-.214-.092-.204-.088-.196-.11-.215-.126-.197-.16-.196-.16-.182-.184-.162-.199-.182-.216-.145-.212-.145-.217-.122-.237-.109-.247-.09-.237-.073-.25-.07-.254-.04-.254-.031-.236v-.48l.03-.254.04-.215.071-.233.087-.2.093-.2.13-.178.126-.158.103-.13.127-.092.124-.109M387.965 229.522l1.981-1.061" style="fill:none;stroke:red;stroke-width:.999997;stroke-linecap:round;stroke-linejoin:round;stroke-miterlimit:4;stroke-dasharray:none;stroke-opacity:1;visibility:visible"/><path d="M430.244 207.093v-2.564c0-2.141-1.844-3.876-4.117-3.876-2.273 0-4.119 1.735-4.119 3.876v2.839c-.416.461-.676.989-.676 1.561 0 1.736 2.208 3.141 4.93 3.141 2.72 0 4.926-1.405 4.926-3.14 0-.689-.357-1.318-.944-1.837" style="fill:none;fill-opacity:1;fill-rule:nonzero;stroke:red;stroke-width:1.33333;visibility:visible"/><path d="m426.504 203.201-.234-.017h-.488l-.236.036-.232.037-.198.053-.198.075M424.919 203.385l-.164.072-.141.087-.111.089-.07.09-.038.112v.086l.053.112M424.45 204.033l.07.085.092.092.143.076.164.07.197.05.216.052.214.043M425.547 204.501l.252.016h.236l.25-.016.235-.02.23-.05.202-.059.198-.055" style="fill:none;stroke:red;stroke-width:.666665;stroke-linecap:round;stroke-linejoin:round;stroke-miterlimit:4;stroke-dasharray:none;stroke-opacity:1;visibility:visible"/><path d="m427.15 204.317.16-.087.146-.072.092-.11.07-.088.035-.094v-.106l-.033-.091M427.619 203.669l-.072-.11-.11-.086-.124-.073-.181-.072-.18-.054-.216-.054-.232-.02" style="fill:none;stroke:red;stroke-width:.666665;stroke-linecap:round;stroke-linejoin:round;stroke-miterlimit:4;stroke-dasharray:none;stroke-opacity:1;visibility:visible"/><path d="m423.838 203.456.162-.128.198-.084.218-.112.25-.075.27-.07.287-.077.29-.033.321-.019.308-.016.305.016.303.019.29.033.289.056.254.07.232.096M427.816 203.133l.144.068.123.075.11.072M428.859 204.138l-.017.147-.055.145-.11.138-.139.126-.202.127-.216.127-.248.11-.29.088-.305.074-.342.066-.341.046-.344.028h-.722l-.338-.029-.323-.057-.31-.054-.301-.074-.257-.102-.232-.112-.197-.112-.146-.126-.106-.141-.071-.147-.039-.145M429.403 208.609c.235.211.365.45.365.704 0 .888-1.644 1.608-3.674 1.608-2.032-.001-3.678-.721-3.678-1.608 0-.335.232-.644.626-.901M423.838 203.456l-.34.284M428.195 203.348l.355.285M429.002 209.914l-.143-5.776M423.35 210.029l-.141-5.767M423.207 204.261l.02-.123.05-.128.095-.144.127-.126" style="fill:none;stroke:red;stroke-width:.666665;stroke-linecap:round;stroke-linejoin:round;stroke-miterlimit:4;stroke-dasharray:none;stroke-opacity:1;visibility:visible"/><path d="m428.55 203.633.146.108.092.125.055.144.013.129" style="fill:none;stroke:red;stroke-width:.666665;stroke-linecap:round;stroke-linejoin:round;stroke-miterlimit:4;stroke-dasharray:none;stroke-opacity:1;visibility:visible"/><path d="M424.755 211.898v-2.566c0-2.14-1.845-3.875-4.117-3.875-2.274 0-4.118 1.735-4.118 3.875v2.84c-.417.46-.678.988-.678 1.56 0 1.738 2.208 3.143 4.93 3.143 2.722-.001 4.928-1.405 4.928-3.142-.001-.687-.358-1.319-.945-1.835" style="fill:none;fill-opacity:1;fill-rule:nonzero;stroke:red;stroke-width:1.33333;visibility:visible"/><path d="m422.13 208.473-.072-.108-.11-.09-.125-.069-.18-.073-.179-.053-.217-.056-.232-.019M421.015 208.005l-.236-.017h-.487l-.236.034-.232.039-.197.052-.197.075M419.428 208.189l-.164.072-.141.087-.11.09-.072.092-.034.109v.086l.05.113M418.959 208.837l.07.084.094.092.139.076.167.07.197.051.216.055.213.04M420.058 209.305l.252.017h.236l.25-.017.235-.019.23-.052.202-.056.197-.057" style="fill:none;stroke:red;stroke-width:.666665;stroke-linecap:round;stroke-linejoin:round;stroke-miterlimit:4;stroke-dasharray:none;stroke-opacity:1;visibility:visible"/><path d="m421.66 209.12.162-.083.144-.075.093-.11.07-.087.035-.095v-.108l-.034-.09M423.914 213.413c.236.212.365.45.365.703 0 .889-1.644 1.609-3.675 1.609-2.032 0-3.677-.72-3.677-1.61 0-.332.232-.641.625-.899M418.35 208.26l-.34.284M422.706 208.152l.356.285M423.512 214.718l-.142-5.774M417.862 214.832l-.143-5.767M417.719 209.065l.02-.123.05-.13.095-.141.127-.127M423.062 208.437l.144.107.093.126.055.143.013.13M418.35 208.26l.16-.128.198-.084.219-.112.25-.076.268-.069.289-.076.289-.034.323-.017.308-.018.304.018.305.016.29.034.282.056.259.07.232.097M422.327 207.936l.141.069.126.075.11.072" style="fill:none;stroke:red;stroke-width:.666665;stroke-linecap:round;stroke-linejoin:round;stroke-miterlimit:4;stroke-dasharray:none;stroke-opacity:1;visibility:visible"/><path d="m423.368 208.944-.017.145-.055.145-.11.138-.139.128-.201.126-.216.127-.248.11-.29.09-.306.071-.342.068-.341.044-.343.029h-.722l-.339-.03-.323-.057-.309-.054-.303-.072-.257-.104-.23-.112-.199-.11-.144-.126-.107-.143-.07-.145-.041-.146" style="fill:none;stroke:red;stroke-width:.666665;stroke-linecap:round;stroke-linejoin:round;stroke-miterlimit:4;stroke-dasharray:none;stroke-opacity:1;visibility:visible"/><path d="m335.628 317.411 3.023-.801M394.115 416.373l2.398 3.151M367.69 407.25l3.151 3.051M396.492 417.58l-2.356 1.078M339.953 218.173l3.17-.286M335.628 317.411l6.102-3.897M342.203 398.101l3.152 3.06M370.828 408.361l-3.114.812M278.29 197.511l3.114-.287M306.977 207.123l-3.166-2.394M281.693 376.38l3.092 3.037M309.839 386.49l-3.062.813M419.204 443.524l-3.905-2.185M419.204 443.524l-3.92-7.712M252.927 189.016l3.074-.29M281.417 198.553l-3.15-2.374M256.781 367.453l3.093 3.02M284.75 377.49l-3.025.811M323.857 210.56l-.969-.45M389.843 229.805l.796 2.96" style="fill:none;stroke:red;stroke-width:.999997;stroke-linecap:round;stroke-linejoin:round;stroke-miterlimit:4;stroke-dasharray:none;stroke-opacity:1;visibility:visible"/><path d="m320.44 208.619 1.57-.849M320.44 208.62l1.57-.85M241.818 368.369l-2.102-.074M323.29 399.686l1.476-.812M402.56 428.25l1.51-.848" style="fill:none;stroke:red;stroke-width:.666665;stroke-linecap:round;stroke-linejoin:round;stroke-miterlimit:4;stroke-dasharray:none;stroke-opacity:1;visibility:visible"/><path d="m419.204 443.524-4.207-17.358M419.204 443.524l-4.1-15.287M213.084 170.4l5.116 1.998M322.888 210.11l.969.45" style="fill:none;stroke:red;stroke-width:.999997;stroke-linecap:round;stroke-linejoin:round;stroke-miterlimit:4;stroke-dasharray:none;stroke-opacity:1;visibility:visible"/><path d="m324.203 207.896-4.247-1.457" style="fill:none;stroke:red;stroke-width:.666665;stroke-linecap:round;stroke-linejoin:round;stroke-miterlimit:4;stroke-dasharray:none;stroke-opacity:1;visibility:visible"/><path d="m235.737 181.074-1.218-3.203M390.639 232.766l-.796-2.961M389.843 229.805l-7.086-2.37" style="fill:none;stroke:red;stroke-width:1.99999;stroke-linecap:round;stroke-linejoin:round;stroke-miterlimit:4;stroke-dasharray:none;stroke-opacity:1;visibility:visible"/><path d="m323.638 563.224 5.888-.085M335.807 567.168l-6.281-4.029M323.638 563.224l5.815-5.704M335.43 554.012l-5.977 3.508M213.19 163.07l-6.82-.884M432.126 243.797l-9.389-7.085M389.843 229.805l9.056-4.843M79.02 475.424l-3.095 8.641M75.404 470.904l.521 13.161M240.755 381.337l-11.185-.379M238.336 391.417l-2.18-8.081" style="fill:none;stroke:red;stroke-width:.999997;stroke-linecap:round;stroke-linejoin:round;stroke-miterlimit:4;stroke-dasharray:none;stroke-opacity:1;visibility:visible"/><path d="m478.997 408.134-.182 12.84M478.997 408.135l16.051 6.136M432.65 446.89l.01-14.124M418.64 448.6l-3.288 2.524M423.512 214.718l8.577 13.662M414.372 254.027l.008-9.647M238.864 384.312l6.399 2.311M390.307 439.122l-5.398-1.954M418.732 448.516l-3.404-.345M414.997 426.166l17.363-9.678" style="fill:none;stroke:red;stroke-width:1.99999;stroke-linecap:round;stroke-linejoin:round;stroke-miterlimit:4;stroke-dasharray:none;stroke-opacity:1;visibility:visible"/><path d="m240.755 381.337-13.929-.82M322.362 302.094l3.438 5.779M319.427 303.966l6.373 3.907M332.01 307.729l-6.117 6.098M319.896 318.095l5.997-4.268" style="fill:none;stroke:red;stroke-width:.999997;stroke-linecap:round;stroke-linejoin:round;stroke-miterlimit:4;stroke-dasharray:none;stroke-opacity:1;visibility:visible"/><path d="m428.859 204.138 1.385 2.955M428.55 203.633l1.694 3.46" style="fill:none;fill-opacity:1;fill-rule:nonzero;stroke:red;stroke-width:1.33333;visibility:visible"/><path d="m428.55 203.633.853 4.976M423.37 208.944l5.632.97M423.37 208.944l-.02 1.085" style="fill:none;stroke:red;stroke-width:.666665;stroke-linecap:round;stroke-linejoin:round;stroke-miterlimit:4;stroke-dasharray:none;stroke-opacity:1;visibility:visible"/><path d="m423.37 208.944 1.385 2.954M423.062 208.437l1.693 3.461" style="fill:none;fill-opacity:1;fill-rule:nonzero;stroke:red;stroke-width:1.33333;visibility:visible"/><path d="m423.062 208.437.852 4.976M417.719 209.065l5.793 5.653M423.37 208.944l-5.508 5.888" style="fill:none;stroke:red;stroke-width:.666665;stroke-linecap:round;stroke-linejoin:round;stroke-miterlimit:4;stroke-dasharray:none;stroke-opacity:1;visibility:visible"/><path d="m332.208 67.23.5-.45.508-.415.52-.392.524-.362.521-.306.524-.291.5-.247.523-.218.524-.163.5-.145M337.354 64.241l.161-.013.128.013M331.435 69.177l160.74 50.577M331.651 85.501l-.216-16.325M480.328 124.31l.019-.216.057-.217.085-.196.128-.164.142-.126.181-.074.196-.05h.2l.221.035.211.072.212.125.205.142.175.184.164.216.145.236.09.229.072.255.034.232v.25l-.034.218-.072.198-.106.18-.129.144-.164.111-.175.07-.218.015-.199-.014-.21-.056-.222-.107-.213-.127-.183-.161-.181-.196-.142-.22-.128-.25-.085-.234-.057-.253-.019-.251M331.435 69.177l.019-.233.013-.254.055-.236.074-.232.087-.234.11-.216.125-.198.145-.181.145-.163M230.724 100.03l-.559-.433-.538-.418-.562-.357-.536-.341-.56-.307-.56-.252-.538-.235-.54-.197-.542-.145-.537-.126M281.86 72.29l-.536-.433-.56-.396-.541-.359-.558-.341-.557-.288-.557-.271-.542-.217-.557-.182-.543-.161-.536-.103" style="fill:none;stroke:#00ff4a;stroke-width:.999997;stroke-linecap:round;stroke-linejoin:round;stroke-miterlimit:4;stroke-dasharray:none;stroke-opacity:1;visibility:visible" visibility="hidden"/><path d="M225.253 97.219h-.252l-.112.056M276.372 69.54l-.13-.023-.122.023-.11.05M275.706 69.895h0M231.57 119.304l.11-.087.103-.128.092-.161.054-.175.038-.224v-.212M282.617 91.496l.11-.093.106-.12.09-.166.055-.18.035-.214v-.219M231.966 118.318l-.38-16.38M283.013 90.503l-.287-16.323M231.586 101.938l-.019-.237-.053-.234-.057-.25-.084-.238-.11-.225-.109-.207-.147-.192-.142-.184-.142-.142M231.586 101.938l51.139-27.757M282.727 74.181l-.02-.237-.035-.232-.074-.232-.07-.24-.108-.231-.128-.217-.125-.196-.143-.164-.164-.142M229.555 103.053l-.025-.213-.05-.238-.068-.237-.109-.23-.125-.218-.148-.199-.162-.178-.18-.162-.198-.125M229.555 103.053 70.667 194.401M228.49 101.253l-.664-.379-.688-.344-.679-.302-.685-.291-.687-.233-.682-.202-.683-.161-.687-.143-.662-.089-.668-.055M221.705 99.055h-.179l-.164.039-.158.069M229.46 120.475l.144-.11.13-.14.087-.163.074-.18.034-.215.02-.217M229.95 119.449l-.396-16.396M332.156 86.51h0M275.977 69.59h.016M282.6 91.496h.019M229.46 120.475h0M224.872 97.274h.016M277.453 69.803h0M499.065 115.904h0M499.302 115.742h0M498.221 114.539l.107-.023.106.023.112.016M499.372 115.703h0M493.612 119.593h0M499.698 116.174v-.217l-.023-.09-.016-.072-.016-.053-.017-.04-.037-.07-.031-.015h-.044l-.032.016-.037.018M499.445 115.651l-.143.09-.145.107-.163.092-.161.127-.323.216-.38.235-.357.212-.397.253-.418.253-.448.267-.484.288-.521.308-.308.183-.307.176-.306.182-.326.198M494.26 118.838l-.104.055-.093.07-.09.094-.072.084-.144.164-.052.108-.054.093-.039.105-.032.107-.02.125-.021.13-.052 16.576" style="fill:none;stroke:#00ff4a;stroke-width:.999997;stroke-linecap:round;stroke-linejoin:round;stroke-miterlimit:4;stroke-dasharray:none;stroke-opacity:1;visibility:visible" visibility="hidden"/><path d="m499.628 132.756.03-.059v-.056" style="fill:none;stroke:#00ff4a;stroke-width:1.99999;stroke-linecap:round;stroke-linejoin:round;stroke-miterlimit:4;stroke-dasharray:none;stroke-opacity:1;visibility:visible" visibility="hidden"/><path d="m499.698 116.174.019-.056.016-.033M492.12 136.386l.016.039.055.033M498.167 114.539h.055M493.63 119.556h0M492.12 136.01l.055-16.219M492.175 119.792l.016-.181.019-.198.036-.196.036-.202.076-.198.052-.177.086-.181.075-.178.11-.162.103-.143.11-.143.109-.128M493.003 117.705l.415-.377.39-.362.419-.342.412-.324.419-.29.409-.268.435-.252.409-.234.039-.019M62.37 192.639h0M62.945 192.798h0M62.693 192.729h0M68.165 212.76l.163-.019.142-.052.09-.074.073-.106.052-.128.017-.09v-.086l-.681-16.813M68.02 195.392l-.017-.09-.022-.093-.07-.161-.075-.145-.103-.122-.145-.124-.073-.058-.086-.036M67.43 194.563l-.69-.305-.643-.303-.612-.257-.596-.231-.542-.2-.537-.2-.523-.161-.502-.163-.526-.141-.521-.146-.557-.126-.558-.106" style="fill:none;stroke:#00ff4a;stroke-width:.999997;stroke-linecap:round;stroke-linejoin:round;stroke-miterlimit:4;stroke-dasharray:none;stroke-opacity:1;visibility:visible" visibility="hidden"/><path d="M60.622 192.225h-.107l-.108.035-.076.07-.07.092-.032.132v.155" style="fill:none;stroke:#00ff4a;stroke-width:1.99999;stroke-linecap:round;stroke-linejoin:round;stroke-miterlimit:4;stroke-dasharray:none;stroke-opacity:1;visibility:visible" visibility="hidden"/><path d="m64.26 203.902-.164-.07-.141-.093-.167-.1-.143-.145-.125-.163-.11-.166-.106-.179-.072-.196-.073-.181-.035-.178-.017-.164v-.18l.017-.158.035-.15.036-.124.073-.122.092-.092.09-.075.089-.052.126-.036.108-.019h.126l.142.019.128.036.143.07.127.073.126.097.123.083.127.125.112.128.106.144.088.145.091.178.053.161.058.181.032.162v.344l-.032.146-.04.143-.071.145-.108.1-.107.094-.125.069-.143.039-.146.017-.162-.017-.161-.039" style="fill:none;stroke:#00ff4a;stroke-width:.999997;stroke-linecap:round;stroke-linejoin:round;stroke-miterlimit:4;stroke-dasharray:none;stroke-opacity:1;visibility:visible" visibility="hidden"/><path d="m59.939 192.386.02.088.05.092.094.088.127.055M61.721 190.228l.141-.09.148-.04.162-.035h.18M62.44 190.042h-.055l-.033.021M60.64 190.908h0" style="fill:none;stroke:#00ff4a;stroke-width:1.99999;stroke-linecap:round;stroke-linejoin:round;stroke-miterlimit:4;stroke-dasharray:none;stroke-opacity:1;visibility:visible" visibility="hidden"/><path d="M69.57 213.267h0M69.443 192.44l.161.127.162.126.16.163.148.16.125.163.127.197.089.176.09.22.075.196.051.197.036.202.016.177M63.81 190.228l.268.053.557.122.56.145.56.184.574.196.557.213.56.255.503.237.505.248.485.274.504.285M70.682 194.544l.67 16.327M337.643 64.241h.016M276.01 69.59h-.02M231.552 119.304h.017M62.333 192.619h0" style="fill:none;stroke:#00ff4a;stroke-width:.999997;stroke-linecap:round;stroke-linejoin:round;stroke-miterlimit:4;stroke-dasharray:none;stroke-opacity:1;visibility:visible" visibility="hidden"/><path d="m337.659 64.241 160.38 50.33M332.156 86.51l160.177 50.759M224.872 97.274l51.104-27.684M231.57 119.304l51.03-27.808M221.203 99.163l-158.638 90.9M229.46 120.475l-158.2 91.566M231.552 119.304l-.38.201-.361.214-.355.18-.347.198-.322.198-.326.18M221.203 99.163l.412-.23.432-.238.45-.235.45-.25.468-.234.487-.234.484-.236.486-.232M332.156 86.51l-.812-.252-.828-.232-.863-.236-.85-.216-.88-.199-.902-.178-.898-.18-.918-.16-.918-.148-.954-.124-.937-.128-.953-.11-.919-.088-.937-.072-.915-.053-.956-.053-.953-.04-.955-.014-.956-.018h-.948l-.977.018-.968.014-.978.056-.968.037-.953.068-.976.077-.988.107-.968.09-.972.126-.973.127-.995.141-.95.164-.973.163-.957.178-.97.199-.931.197-.956.216-.922.235-.933.232-.916.253-.92.251-.9.275-.883.284-.898.308-.866.308-.864.305-.844.323-.846.341-.83.339-.812.365-.788.359-.669.321-.664.327-.65.342-.647.34M276.01 69.59l.916-.47.957-.447.971-.432.975-.432 1.004-.416 1.01-.412 1.04-.396 1.047-.383 1.06-.375 1.064-.36 1.079-.34 1.101-.325 1.115-.323 1.098-.308 1.098-.288 1.098-.27 1.118-.252 1.132-.251 1.136-.236 1.128-.215 1.14-.198 1.15-.199 1.15-.177 1.156-.163 1.169-.163 1.15-.126 1.17-.127 1.153-.108 1.15-.087 1.169-.092 1.156-.066 1.168-.04 1.152-.055 1.17-.019h2.306l1.15.019 1.137.035 1.13.041 1.134.068 1.116.072 1.12.09 1.094.091 1.099.126 1.099.121 1.078.147 1.08.162 1.063.18 1.063.18 1.025.196 1.027.219 1.024.232.989.237.901.232.9.254.883.252.865.248M493.161 137.718l-.448-.143M493.161 137.718h0M498.98 114.682l-.432-.128M493.74 137.775h-.236l-.11-.023-.122-.016-.112-.017" style="fill:none;stroke:#00ff4a;stroke-width:1.99999;stroke-linecap:round;stroke-linejoin:round;stroke-miterlimit:4;stroke-dasharray:none;stroke-opacity:1;visibility:visible" visibility="hidden"/><path d="m499.32 134.3-.213.379-.255.36-.253.344-.29.322-.304.306-.324.286-.358.251-.326.22-.364.196-.354.177-.379.146-.395.142-.398.111-.416.093-.464.086-.49.056M499.659 132.642v.163l-.017.16-.014.188v.084l-.021.074-.035.179-.04.161-.032.162-.054.144-.055.181-.07.161M499.734 116.084l-.077 16.557M498.98 114.682l.159.073.128.067.106.107.11.11.076.144.068.146.049.16.023.162.034.216v.216M492.714 137.575l-.09-.053-.107-.055-.074-.07-.07-.093-.074-.086-.056-.112-.054-.143-.035-.145-.02-.16-.013-.128v-.52" style="fill:none;stroke:#00ff4a;stroke-width:1.99999;stroke-linecap:round;stroke-linejoin:round;stroke-miterlimit:4;stroke-dasharray:none;stroke-opacity:1;visibility:visible" visibility="hidden"/><path d="m496.35 115.237.38-.179.357-.162.36-.127.362-.127.357-.104M498.167 114.539l.073-.023h.146l.07.023.091.016" style="fill:none;stroke:#00ff4a;stroke-width:.999997;stroke-linecap:round;stroke-linejoin:round;stroke-miterlimit:4;stroke-dasharray:none;stroke-opacity:1;visibility:visible" visibility="hidden"/><path d="M60.64 190.908h0" style="fill:none;stroke:#00ff4a;stroke-width:1.99999;stroke-linecap:round;stroke-linejoin:round;stroke-miterlimit:4;stroke-dasharray:none;stroke-opacity:1;visibility:visible" visibility="hidden"/><path d="M69.57 213.267h0" style="fill:none;stroke:#00ff4a;stroke-width:.999997;stroke-linecap:round;stroke-linejoin:round;stroke-miterlimit:4;stroke-dasharray:none;stroke-opacity:1;visibility:visible" visibility="hidden"/><path d="M59.939 192.386v-.219l.02-.228.068-.221.076-.179.085-.181.127-.176.112-.092.105-.11.106-.071M60.64 209.182l-.7-16.796M61.54 210.962l-.143-.147-.164-.14-.121-.165-.095-.145-.089-.14-.033-.07-.018-.057-.053-.07-.04-.146-.05-.13-.04-.177-.031-.197-.024-.196M68.779 213.463l-.56-.035-.541-.036-.539-.074-.523-.086-.536-.11-.525-.144-.523-.162-.504-.177-.501-.221-.521-.252-.506-.247-.505-.31-.465-.303-.492-.344" style="fill:none;stroke:#00ff4a;stroke-width:1.99999;stroke-linecap:round;stroke-linejoin:round;stroke-miterlimit:4;stroke-dasharray:none;stroke-opacity:1;visibility:visible" visibility="hidden"/><path d="m69.57 213.267-.128.05-.125.057-.126.034-.145.036h-.139l-.129.019" style="fill:none;stroke:#00ff4a;stroke-width:.999997;stroke-linecap:round;stroke-linejoin:round;stroke-miterlimit:4;stroke-dasharray:none;stroke-opacity:1;visibility:visible" visibility="hidden"/><path d="m60.64 190.908 1.083-.68M69.57 213.267l1.137-.577" style="fill:none;stroke:#00ff4a;stroke-width:1.99999;stroke-linecap:round;stroke-linejoin:round;stroke-miterlimit:4;stroke-dasharray:none;stroke-opacity:1;visibility:visible" visibility="hidden"/><path d="m62.44 190.042.54.057.543.072.285.056" style="fill:none;stroke:#00ff4a;stroke-width:.999997;stroke-linecap:round;stroke-linejoin:round;stroke-miterlimit:4;stroke-dasharray:none;stroke-opacity:1;visibility:visible" visibility="hidden"/><path d="m61.721 190.228.087-.073.109-.038.11-.034.106-.02.145-.02h.162M71.37 211.357v.196l-.036.203-.039.178-.068.18-.07.144-.111.143-.092.11-.125.089-.123.09" style="fill:none;stroke:#00ff4a;stroke-width:1.99999;stroke-linecap:round;stroke-linejoin:round;stroke-miterlimit:4;stroke-dasharray:none;stroke-opacity:1;visibility:visible" visibility="hidden"/><path d="m71.353 210.87.017.487M331.14 69.22l-.881-.273-.936-.25-.937-.249-.972-.237-1.012-.216-1.01-.196-1.056-.202-1.065-.161-1.001-.143-1.031-.126-1.044-.108-1.062-.089-1.063-.073-1.099-.054-1.097-.036-1.097-.035h-1.027l-1.043.017-1.03.018-1.039.036-1.044.054-1.047.074-1.06.088-1.044.108-1.026.109-1.047.124-1.028.147-1.019.161-1.008.179-1.01.18-1.012.198-1.003.216-1.064.251-1.044.253-1.042.27-1.011.288-1.011.309-.985.303-.971.322-.955.346-1.061.374-1.008.399-1.012.413-.97.432-.933.432-.92.432-.881.45-.865.469M492.175 119.791l-11.847 4.519M492.12 136.01l-11.792-11.7M492.12 136.01l1.367.539M67.43 194.563l-3.17 9.339M63.808 190.227l.452 13.675" style="fill:none;stroke:#00ff4a;stroke-width:.999997;stroke-linecap:round;stroke-linejoin:round;stroke-miterlimit:4;stroke-dasharray:none;stroke-opacity:1;visibility:visible" visibility="hidden"/><path d="m235.737 181.074-.471-2.32" style="fill:none;stroke:red;stroke-width:.666665;stroke-linecap:round;stroke-linejoin:round;stroke-miterlimit:4;stroke-dasharray:none;stroke-opacity:1;visibility:visible"/><path d="m382.757 227.436 10.825 3.618" style="fill:none;stroke:red;stroke-width:1.99999;stroke-linecap:round;stroke-linejoin:round;stroke-miterlimit:4;stroke-dasharray:none;stroke-opacity:1;visibility:visible"/><path d="M432.126 243.797 416.9 241.91M432.089 228.38l-11.682 10.253" style="fill:none;stroke:red;stroke-width:.999997;stroke-linecap:round;stroke-linejoin:round;stroke-miterlimit:4;stroke-dasharray:none;stroke-opacity:1;visibility:visible"/><path d="m478.997 408.135-14.76-3.924" style="fill:none;stroke:red;stroke-width:1.99999;stroke-linecap:round;stroke-linejoin:round;stroke-miterlimit:4;stroke-dasharray:none;stroke-opacity:1;visibility:visible"/></svg>