<svg xmlns="http://www.w3.org/2000/svg" baseProfile="full" height="1122.52" preserveAspectRatio="xMinYMin meet" style="width:765px;height:943px" width="793.701" xml:space="preserve"><path d="m86.983 252.079.537 13.572M81.816 251.896l.144.073.143.091.128.108.124.148.128.163.104.164.09.177.094.203.05.178.038.186.033.181v.327l-.033.162-.055.127-.056.132-.07.09-.071.087-.091.055-.107.043-.109.014h-.107l-.124-.014-.109-.043-.124-.055-.108-.073-.125-.087-.11-.11-.106-.13-.09-.125-.09-.145-.091-.167-.07-.159-.051-.184-.043-.185-.032-.179-.019-.162v-.166l.019-.162.032-.126.073-.145.071-.128.093-.09.108-.074.104-.035.128-.021.144.021.143.035M82.05 257.838l.143.072.146.092.143.11.124.143.107.144.128.182.089.185.07.18.054.183.056.18.016.178v.352l-.035.146-.037.144-.07.125-.054.088-.09.075-.093.052-.086.058-.108.015h-.128l-.104-.015-.128-.037-.107-.073-.125-.075-.111-.088-.105-.11-.107-.13-.11-.124-.086-.143-.075-.146-.069-.183-.075-.18-.034-.164-.036-.183v-.344l.018-.148.035-.144.052-.144.073-.109.091-.113.107-.051.125-.053h.253l.143.053M89.407 250.443l-1.524.561M87.521 251.004l.076.019h.196l.09-.019M86.515 251.944l-9.541-4.061-.074-.074-.054-.076-.016-.066M86.983 252.079v-.183l.039-.182.05-.182.092-.162.11-.146.122-.125.124-.095" style="fill:none;stroke:red;stroke-width:.999997;stroke-linecap:round;stroke-linejoin:round;stroke-miterlimit:4;stroke-dasharray:none;stroke-opacity:1;visibility:visible" visibility="hidden"/><path d="m80.31 245.537.09-.016h.089l.089.05M87.81 266.176l-.085-.055-.094-.089-.052-.112-.038-.128-.019-.141M80.741 245.573l-.093-.019-.071.019" style="fill:none;stroke:red;stroke-width:1.99999;stroke-linecap:round;stroke-linejoin:round;stroke-miterlimit:4;stroke-dasharray:none;stroke-opacity:1;visibility:visible" visibility="hidden"/><path d="m89.57 250.443-.07-.019-.093.019" style="fill:none;stroke:red;stroke-width:.999997;stroke-linecap:round;stroke-linejoin:round;stroke-miterlimit:4;stroke-dasharray:none;stroke-opacity:1;visibility:visible" visibility="hidden"/><path d="M76.83 247.666v-.02" style="fill:none;stroke:red;stroke-width:1.99999;stroke-linecap:round;stroke-linejoin:round;stroke-miterlimit:4;stroke-dasharray:none;stroke-opacity:1;visibility:visible" visibility="hidden"/><path d="m82.77 246.7 6.8 3.743M90.573 263.69l-.505-12.281M89.57 250.443l.09.073.086.072.093.11.071.129.057.128.051.121.035.147.016.13v.054M321.659 170.308 89.745 250.589M340.984 160.025l-.77.655-.822.633-.845.639-.899.636-.916.613-.97.601-.982.603-1.044.599-1.057.581-1.096.561-1.131.566-1.165.562-1.204.526-1.219.528-1.277.509-1.27.507-1.328.49-1.33.474M411.289 99.202l-70.305 60.824M347.088 151.067l.087.037.07.052.039.059-.019.055-.034.052-.071.058M347.088 151.067l-3.805-1.287M343.228 153.355l-.104.04-.128.019-.141.014h-.146l-.144-.014-.128-.019M343.228 153.355l3.932-1.976M338.638 152.109l-.09-.043-.071-.053-.039-.05.016-.058.04-.055.087-.054M338.638 152.109l3.8 1.287M342.492 149.835l.11-.056.142-.017.125-.019h.144l.144.019.127.017M342.492 149.835l-3.912 1.96M338.58 152.087v-.292M347.088 151.414v-.347" style="fill:none;stroke:red;stroke-width:.999997;stroke-linecap:round;stroke-linejoin:round;stroke-miterlimit:4;stroke-dasharray:none;stroke-opacity:1;visibility:visible" visibility="hidden"/><path d="M76.83 247.666h0" style="fill:none;stroke:red;stroke-width:1.99999;stroke-linecap:round;stroke-linejoin:round;stroke-miterlimit:4;stroke-dasharray:none;stroke-opacity:1;visibility:visible" visibility="hidden"/><path d="M80.31 245.537h0" style="fill:none;stroke:red;stroke-width:.999997;stroke-linecap:round;stroke-linejoin:round;stroke-miterlimit:4;stroke-dasharray:none;stroke-opacity:1;visibility:visible" visibility="hidden"/><path d="m76.83 247.666.535 13.424M76.83 247.646v-.145l.032-.146.053-.144.074-.128.088-.108.109-.109.144-.096.144-.07M80.31 245.537l-2.835 1.163M88.706 266.194l-.127.035-.141.018h-.267l-.126-.018-.127-.012-.11-.04M88.706 266.194l1.544-.435M87.81 266.176l-1.31-.51-1.273-.511-1.276-.527-1.237-.525-1.22-.542-1.219-.548-1.185-.542-1.167-.568M77.922 261.903l-.108-.047-.087-.076-.094-.093-.071-.07-.072-.095-.035-.106-.052-.145-.017-.147-.021-.034M80.325 245.537l.075-.016.069-.016h.092l.07.016.058.033.052.018" style="fill:none;stroke:red;stroke-width:1.99999;stroke-linecap:round;stroke-linejoin:round;stroke-miterlimit:4;stroke-dasharray:none;stroke-opacity:1;visibility:visible" visibility="hidden"/><path d="m90.625 265.103-.016.13-.017.129-.038.129-.07.103-.07.073-.074.056-.09.036M80.741 245.573l2.03 1.128M90.625 265.103l-.052-1.413" style="fill:none;stroke:red;stroke-width:.999997;stroke-linecap:round;stroke-linejoin:round;stroke-miterlimit:4;stroke-dasharray:none;stroke-opacity:1;visibility:visible" visibility="hidden"/><path d="m398.569 96.893 12.72 2.31M411.902 112.861l-.019.13-.054.109-.068.089M411.797 99.801l.105 13.06M411.289 99.202l.128.033.125.075.092.113.087.107.055.128.021.144M398.23 96.986l.11-.073.105-.02h.125M312.456 165.731l.95-.343.914-.33.916-.364.899-.344.858-.363.866-.383.841-.381.808-.383.79-.401.789-.397.736-.399.734-.419.702-.416.628-.365.592-.397.573-.383.555-.383.538-.4.522-.4.502-.396.484-.404M341.561 174.306l-.628.524-.644.528-.668.507-.696.51-.721.51-.732.51-.756.487-.791.495-.808.486-.823.474-.861.473-.864.47-.897.454-.879.421-.897.431-.916.423-.93.414-.953.404-.967.396-.99.402-1.002.381-1.024.363-1.04.382M411.76 113.189l-70.2 61.117M398.23 96.986l-70.576 60.695M322.074 184.752 90.609 265.338M312.456 165.731 80.869 245.645" style="fill:none;stroke:red;stroke-width:1.99999;stroke-linecap:round;stroke-linejoin:round;stroke-miterlimit:4;stroke-dasharray:none;stroke-opacity:1;visibility:visible" visibility="hidden"/><path d="m86.515 251.944-4.699-.048M87.521 251.004l-5.705.892M77.922 261.903l4.128-4.065M87.809 266.177l-5.759-8.339" style="fill:none;stroke:red;stroke-width:.999997;stroke-linecap:round;stroke-linejoin:round;stroke-miterlimit:4;stroke-dasharray:none;stroke-opacity:1;visibility:visible" visibility="hidden"/><path d="m462.363 268.36-.27.09-.287.074-.304.056-.308.05-.271.02-.29.017h-.577l-.266-.036-.234-.034-.234-.054-.199-.074-.196-.07-.181-.091-.162-.11-.126-.105-.126-.128-.108-.125-.054-.144-.058-.127v-.161l.022-.143.07-.162.091-.146M451.33 270.702l.287-.052.289-.04.304-.016h.577l.291.016.285.04.291.052.25.037.251.068.216.059.216.068.196.075.164.072.16.089.144.093.128.091.091.107.07.09.037.1.02.114-.04.124-.051.112-.108.122M455.397 272.266v-.143M457.324 271.696l-.019-5.17M450.556 270.558v-.399M458.113 267.355v-.776M458.113 266.58l-.143-.053-.145-.04-.14-.012h-.127l-.145.012-.056.021-.05.019M458.134 267.3l-.021-.7M458.113 266.58v.02M458.295 266.957l.036-.073v-.052l-.017-.054-.04-.076-.051-.052-.11-.05M463.048 268.308h.016M463.048 268.308l-.11-.021h-.234l-.107.021-.108.019-.126.033M463.155 268.557l.035-.032.036-.021.037-.054v-.052l-.017-.038-.072-.034-.054-.018h-.056M455.596 272.34h-.021M455.596 272.34h.288l.123-.016.145-.04.127-.033.073-.036.053-.019M455.397 272.123l-.019.056-.017.035.017.037.035.033.072.02.09.036M450.647 270.61h0M450.647 270.61l.104.057.128.035.107.02.11.017.106-.017.128-.02M450.556 270.16l-.052.04-.04.032-.036.075v.073l.036.075.072.085.039.039.072.032M467.366 266.703l.036-.033.037-.019.019-.02.02-.015.016-.016v-.02" style="fill:none;stroke:#00ff4a;stroke-width:.999997;stroke-linecap:round;stroke-linejoin:round;stroke-miterlimit:4;stroke-dasharray:none;stroke-opacity:1;visibility:visible"/><path d="m446.18 271.853.02.053.016.052.016.042.057.052.052.037.055.052" style="fill:none;stroke:#00ff4a;stroke-width:1.99999;stroke-linecap:round;stroke-linejoin:round;stroke-miterlimit:4;stroke-dasharray:none;stroke-opacity:1;visibility:visible"/><path d="m452.696 274.336-.684-.085-.703-.128-.702-.166-.7-.2-.703-.248-.703-.288-.698-.322-.703-.36-.704-.398M449.62 286.285l.288.075.29.038h.266l.27-.057.237-.088.23-.128.203-.161.179-.211.145-.237.107-.271.07-.308.052-.307v-.336l-.017-.342-.07-.366-.091-.336-.144-.346-.16-.342-.182-.325-.217-.307-.25-.266-.251-.254-.272-.214-.288-.18-.29-.143-.286-.11-.286-.055-.272-.015-.27.015-.271.072-.232.126-.219.144-.18.2-.158.215-.127.25-.09.285-.075.308-.015.325.015.345.04.359.088.343.109.344.144.356.179.322.198.306.238.292.246.269.255.236.287.195.289.165.288.12M452.696 274.336h.143l.144-.016.145-.02.127-.035.144-.034.052-.036.076-.018M453.653 302.563l-.127-28.385M453.58 305.23l.055-.9.02-.888v-.879M454.427 485.28l-.379-6.1-.377-6.124-.325-6.157-.326-6.172-.266-6.21-.272-6.232-.235-6.256-.196-6.265-.181-6.321-.143-6.335-.127-6.352-.109-6.377-.07-6.404-.037-6.423-.021-6.45v-6.476l.04-6.496.07-6.519.091-6.555.107-6.564.143-6.574.161-6.626.219-6.622.213-6.643.253-6.675.29-6.677.305-6.719.324-6.726M454.514 487.745l-.017-.83-.019-.83-.05-.807M454.64 514.979l-.125-27.233" style="fill:none;stroke:#00ff4a;stroke-width:.999997;stroke-linecap:round;stroke-linejoin:round;stroke-miterlimit:4;stroke-dasharray:none;stroke-opacity:1;visibility:visible"/><path d="m468.069 479.828-.016-1.375-.039-1.324-.07-1.318" style="fill:none;stroke:#00ff4a;stroke-width:1.99999;stroke-linecap:round;stroke-linejoin:round;stroke-miterlimit:4;stroke-dasharray:none;stroke-opacity:1;visibility:visible"/><path d="m467.366 266.703-13.839 7.475" style="fill:none;stroke:#00ff4a;stroke-width:.999997;stroke-linecap:round;stroke-linejoin:round;stroke-miterlimit:4;stroke-dasharray:none;stroke-opacity:1;visibility:visible"/><path d="m468.069 479.828.07-.057.037-.055.021-.073" style="fill:none;stroke:#00ff4a;stroke-width:1.99999;stroke-linecap:round;stroke-linejoin:round;stroke-miterlimit:4;stroke-dasharray:none;stroke-opacity:1;visibility:visible"/><path d="m450.733 506.48.272.095.288.052h.27l.251-.031.252-.075.219-.126.197-.144.162-.199.142-.237.111-.25.07-.27.054-.311v-.32l-.02-.323-.07-.338-.091-.348-.127-.34-.161-.319-.179-.312-.216-.304-.233-.272-.254-.253-.266-.214-.272-.177-.29-.163-.286-.105-.274-.057-.285-.039-.25.02-.254.055-.236.105-.215.127-.178.18-.159.197-.128.252-.093.272-.054.288-.017.303v.33l.055.336.072.344.108.342.142.328.18.322.2.3.214.291.253.27.252.238.268.196.29.161.286.123" style="fill:none;stroke:#00ff4a;stroke-width:.999997;stroke-linecap:round;stroke-linejoin:round;stroke-miterlimit:4;stroke-dasharray:none;stroke-opacity:1;visibility:visible"/><path d="m467.944 475.81.07-.073.04-.071.015-.05" style="fill:none;stroke:#00ff4a;stroke-width:1.99999;stroke-linecap:round;stroke-linejoin:round;stroke-miterlimit:4;stroke-dasharray:none;stroke-opacity:1;visibility:visible"/><path d="M455.596 272.34v-.593M423.375 491.057l-.144.197-.163.178-.18.145-.213.09-.237.073-.254.022-.246-.022-.274-.074-.268-.089-.27-.145-.251-.178-.253-.22-.236-.229-.214-.272-.198-.283-.183-.31-.143-.308-.106-.32-.074-.328-.054-.318v-.31l.02-.291.05-.283.094-.254.128-.216.142-.203.18-.16.214-.105.218-.091.232-.037h.268l.255.037.272.09.267.125.272.141.253.203.233.237.232.247.199.269.197.308.147.308.127.324.104.307.057.32.035.329-.019.3-.036.288-.07.256-.11.252M282.92 437.475l-.128.215-.159.162-.181.143-.196.112-.237.055-.23.012-.252-.012-.253-.055-.252-.093-.252-.139-.253-.167-.251-.213-.216-.232-.216-.256-.181-.284-.18-.293-.126-.307-.125-.327-.072-.301-.055-.321v-.312l.018-.29.037-.265.088-.255.11-.213.142-.199.163-.165.2-.101.213-.095.237-.032.23-.025.252.057.254.072.272.124.247.148.237.2.252.217.215.234.197.265.18.305.143.286.128.333.11.304.054.32.036.31v.3l-.036.291-.07.254-.094.233M447.116 481.138h.019v.019M447.116 481.102h.019M447.116 481.102v.036M447.116 481.138h.019M250.72 230.813l-.515-20.745M250.685 233.402l.035-.859v-1.729M254.983 409.352l-.576-5.99-.555-6.034-.522-6.048-.503-6.064-.45-6.101-.433-6.119-.396-6.14-.377-6.157-.325-6.172-.306-6.21-.27-6.21-.238-6.244-.194-6.264-.18-6.283-.146-6.3-.108-6.336-.069-6.338-.037-6.358-.019-6.384.035-6.389.056-6.43.086-6.425.127-6.438.145-6.487.198-6.475.217-6.502.255-6.515.286-6.536M255.147 411.784l-.036-.807-.052-.812-.076-.813M255.67 433.551l-.524-21.767M247.283 219.743l.215.088.214.057.216.018.199-.036.183-.07.161-.113.161-.16.127-.193.105-.219.072-.255.055-.286.016-.307v-.324l-.016-.341-.055-.338-.088-.365-.108-.341-.126-.34-.143-.324-.18-.31-.184-.285-.196-.252-.213-.239-.22-.194-.215-.146-.235-.125-.214-.07-.216-.037-.198.018-.196.054-.182.091-.164.125-.122.179-.128.22-.09.233-.071.268-.039.311v.645l.055.342.07.337.094.348.11.339.14.344.163.32.18.289.196.27.198.254.218.2.216.177.235.143M252.358 424.964l.216.105.216.058.215.032.178-.018.18-.072.183-.09.143-.144.125-.184.09-.212.093-.238.054-.266.015-.286v-.324l-.015-.322-.054-.326-.092-.346-.107-.336-.128-.328-.145-.326-.162-.305-.18-.283-.197-.254-.215-.234-.216-.2-.216-.162-.216-.124-.216-.088-.217-.04h-.196l-.18.04-.18.066-.164.127-.124.167-.11.194-.107.219-.052.253-.036.283-.02.308.02.321.036.323.07.345.088.342.111.325.144.328.164.319.177.292.178.268.198.252.22.214.212.178.219.149M467.493 266.58v-.036l-.016-.017-.039-.019-.036-.021h-.053l-.075-.012" style="fill:none;stroke:#00ff4a;stroke-width:.999997;stroke-linecap:round;stroke-linejoin:round;stroke-miterlimit:4;stroke-dasharray:none;stroke-opacity:1;visibility:visible"/><path d="m460.975 264.293-.123-.068-.144-.04-.145-.032h-.127l-.144.013-.072.019-.054.021M460.975 264.293l.703.393.704.367.702.321.698.286.704.237.702.197.7.18.704.107.683.093M446.327 271.65l-.056.045-.037.014-.016.037-.018.035v.033l-.018.039M468.157 506.988l-13.519 7.99M446.327 271.65l13.84-7.445M468.157 506.988l.039-.037.036-.019.018-.033.016-.036.016-.035v-.043" style="fill:none;stroke:#00ff4a;stroke-width:1.99999;stroke-linecap:round;stroke-linejoin:round;stroke-miterlimit:4;stroke-dasharray:none;stroke-opacity:1;visibility:visible"/><path d="m447.475 512.424.021.016.016.039.02.016.034.021.054.013h.074" style="fill:none;stroke:#00ff4a;stroke-width:.999997;stroke-linecap:round;stroke-linejoin:round;stroke-miterlimit:4;stroke-dasharray:none;stroke-opacity:1;visibility:visible"/><path d="m447.694 512.53.663.11.686.16.682.178.685.239.703.249.685.308.684.34.681.379.687.414M453.85 514.907l.128.057.141.052.144.016.126.019.125-.035.073-.017.052-.02M467.584 294.879l-.09-28.299M446.342 300.205l-.161-28.352M468.282 506.785l-.087-27.141M447.475 512.424l-.14-27.181M467.584 294.879v1.675l-.021.05v.688l-.015.032v.523l-.02.056v.427l-.02.054v.342l-.015.038v.307l-.016.056v.092M446.27 302.817v-.021l.02-.039v-.353l.017-.042v-.445l.019-.021v-.702l.016-.038v-.951M468.069 475.617l.036.784.035.796.036.81.021.827v.81M447.334 485.242v-.485l-.021-.504-.015-.487-.02-.487-.035-.462M467.478 299.219l-.273 5.305-.254 5.308-.23 5.308-.238 5.274-.196 5.28-.178 5.256-.183 5.256-.141 5.218-.146 5.216-.106 5.206-.11 5.182-.07 5.167-.074 5.147-.036 5.135-.034 5.106-.02 5.116v5.097l.02 5.068.05 5.064.055 5.036.073 5.036.07 5.008.109 5.01.128 4.875.125 4.876.163 4.862.161 4.822.182 4.826.196 4.821.214 4.785.235 4.776.255 4.768.269 4.736.27 4.734.305 4.718M447.243 482.817l-.307-4.845-.305-4.838-.27-4.864-.271-4.874-.251-4.902-.235-4.916-.216-4.928-.198-4.949-.182-4.948-.158-4.99-.164-5.02-.127-5.045-.108-5.057-.105-5.076-.072-5.073-.07-5.112-.057-5.115-.019-5.126-.018-5.155v-5.159l.018-5.185.034-5.19.057-5.215.07-5.294.091-5.29.108-5.327.124-5.328.144-5.365.164-5.366.183-5.362.197-5.4.214-5.4.237-5.419.252-5.419.267-5.448" style="fill:none;stroke:#00ff4a;stroke-width:1.99999;stroke-linecap:round;stroke-linejoin:round;stroke-miterlimit:4;stroke-dasharray:none;stroke-opacity:1;visibility:visible"/><path d="m426.164 490.132-.143.237-.162.179-.176.163-.222.126M424.529 485.296l.27.199.251.233.252.253.216.287.216.304.178.31.164.323.128.344.106.335.071.327.057.342M422.062 484.988l.232-.127.253-.068.252-.06h.287l.288.04.287.076.292.104.285.143.29.2M426.437 488.554l.019.304-.019.29-.02.269-.072.253-.07.248-.111.215M420.156 486.233l1.907-1.245M423.432 491.902l-.164.072-.183.076-.18.035-.176.013-.181.02-.199-.02-.197-.013-.181-.056-.218-.055-.196-.092-.198-.085-.195-.11-.219-.145-.198-.145-.179-.182-.183-.18-.178-.197-.163-.212-.161-.215-.126-.237-.128-.233-.105-.234-.09-.254-.093-.23-.053-.257-.052-.253-.017-.252-.02-.231.02-.25.017-.237.052-.232.053-.214.092-.2.091-.2.124-.18.128-.16.107-.127.128-.112.145-.084M423.432 491.902l2.028-1.064M285.712 436.61l-.144.239-.163.193-.2.159-.216.145M284.161 431.91l.252.199.253.237.216.268.216.268.196.308.164.305.16.328.126.323.094.34.071.325.033.319M281.79 431.551l.23-.128.237-.07.249-.033h.27l.269.048.273.079.287.125.289.14.268.198M285.943 435.13l.019.344-.019.308-.052.305-.07.275-.109.248M279.844 432.74l1.945-1.188M282.956 438.356l-.164.07-.177.055-.163.04-.181.018h-.176l-.203-.018-.179-.026-.176-.054-.198-.049-.2-.093-.199-.103-.177-.11-.203-.143-.195-.144-.18-.18-.18-.18-.161-.198-.145-.198-.144-.22-.143-.23-.11-.232-.109-.238-.089-.236-.07-.25-.054-.237-.037-.25-.036-.227v-.49l.036-.233.037-.219.07-.214.073-.199.109-.184.105-.176.146-.164.109-.107.124-.109.128-.088M282.956 438.356l2.033-1.01" style="fill:none;stroke:#00ff4a;stroke-width:.999997;stroke-linecap:round;stroke-linejoin:round;stroke-miterlimit:4;stroke-dasharray:none;stroke-opacity:1;visibility:visible"/><path d="m264.001 430.38-8.33 3.17M250.179 430.796l-.07-.039-.037-.054-.02-.052M254.897 433.513l-4.719-2.716M255.67 433.551l-.128.03-.127.02h-.141l-.145-.02-.128-.03-.104-.039M267.292 205.964l-.036-1.91M244.996 228.095l-.41-16.017M250.052 430.65l-.539-21.727M244.957 230.65v-.05l.019-.04v-.45l.02-.032v-1.984M249.513 408.924l-.017-.487-.02-.485-.036-.472-.035-.48-.035-.465M249.37 406.534l-.467-4.755-.449-4.772-.435-4.77-.413-4.81-.399-4.797-.374-4.83-.343-4.843-.343-4.855-.308-4.864-.286-4.876-.268-4.932-.252-4.932-.235-4.947-.216-4.971-.197-4.97-.164-5.002-.164-5.002-.122-5.001-.108-5.047-.094-5.036-.052-5.044-.055-5.072-.019-5.08-.017-5.146.017-5.183.04-5.19.071-5.198.072-5.201.107-5.219.128-5.221.142-5.259.163-5.235.195-5.276.202-5.273.23-5.275" style="fill:none;stroke:#00ff4a;stroke-width:1.99999;stroke-linecap:round;stroke-linejoin:round;stroke-miterlimit:4;stroke-dasharray:none;stroke-opacity:1;visibility:visible"/><path d="m266.632 206.553.128-.019.104.019M258.533 428.023l.019.112.032.103.056.069.088.037" style="fill:none;stroke:#00ff4a;stroke-width:.999997;stroke-linecap:round;stroke-linejoin:round;stroke-miterlimit:4;stroke-dasharray:none;stroke-opacity:1;visibility:visible"/><path d="m447.423 500.453-22.581-8.62M418.276 489.315l-133.521-51.01M277.899 435.677l-19.17-7.333" style="fill:none;stroke:#00ff4a;stroke-width:1.99999;stroke-linecap:round;stroke-linejoin:round;stroke-miterlimit:4;stroke-dasharray:none;stroke-opacity:1;visibility:visible"/><path d="m262.431 425.563-.092.128-.127.09-.145.073-.16.014-.164-.014-.177-.052-3.115-1.188M447.38 493.046l-188.786-71.932M447.363 488.385l-182.809-69.521M262.107 425.513l-.541.29M257.192 218.653l-2.681-.936M257.48 218.707l-.143-.016-.146-.039M446.228 278.29l-192.473-67.23M256.634 218.94l-3.17-1.116" style="fill:none;stroke:#00ff4a;stroke-width:.999997;stroke-linecap:round;stroke-linejoin:round;stroke-miterlimit:4;stroke-dasharray:none;stroke-opacity:1;visibility:visible"/><path d="m256.634 218.94.179.04.181.021.164-.041.141-.068.124-.11.111-.143.072-.164.036-.198.019-.198-.019-.234-.036-.212-.072-.236-.11-.218-.125-.199-.141-.177" style="fill:none;stroke:#00ff4a;stroke-width:.999997;stroke-linecap:round;stroke-linejoin:round;stroke-miterlimit:4;stroke-dasharray:none;stroke-opacity:1;visibility:visible"/><path d="m446.281 286.153-23.363-8.195M417.203 275.963l-137.189-48.079" style="fill:none;stroke:#00ff4a;stroke-width:1.99999;stroke-linecap:round;stroke-linejoin:round;stroke-miterlimit:4;stroke-dasharray:none;stroke-opacity:1;visibility:visible"/><path d="m257.192 218.653-.557.285" style="fill:none;stroke:#00ff4a;stroke-width:.999997;stroke-linecap:round;stroke-linejoin:round;stroke-miterlimit:4;stroke-dasharray:none;stroke-opacity:1;visibility:visible"/><path d="m273.634 225.798-13.51-4.752" style="fill:none;stroke:#00ff4a;stroke-width:1.99999;stroke-linecap:round;stroke-linejoin:round;stroke-miterlimit:4;stroke-dasharray:none;stroke-opacity:1;visibility:visible"/><path d="m289.016 416.348.05 1.94M288.837 412.841l.085 1.15.058 1.171.036 1.186M285.163 238.834l-.232 6.73-.219 6.715-.178 6.696-.144 6.678-.128 6.64-.088 6.644-.056 6.602-.034 6.592-.018 6.57.034 6.534.035 6.53.093 6.507.11 6.474.142 6.445.162 6.444.197 6.404.217 6.377.251 6.348.287 6.339.306 6.319.344 6.281.359 6.252.397 6.223.412 6.214.45 6.172.469 6.15.507 6.128M285.2 235.09l-.036-1.37M285.2 235.09l.02 1.24-.02 1.243-.036 1.261M371.993 447.416l.037 2.303M340.043 435.664l.037 1.941M371.85 443.835l.073 1.185.055 1.192.016 1.204M339.884 432.136l.073 1.152.054 1.185.032 1.191M369.585 268.263l-.292 6.784-.247 6.79-.234 6.75-.216 6.73-.164 6.731-.147 6.676-.12 6.68-.076 6.659-.07 6.63-.02 6.6v6.59l.02 6.553.07 6.53.076 6.52.12 6.497.147 6.462.164 6.423.196 6.428.233 6.393.253 6.351.287 6.335.305 6.318.343 6.283.36 6.264.395 6.225.432 6.198.45 6.173M337.074 257.103l-.268 6.765-.253 6.751-.196 6.735-.184 6.718-.162 6.692-.126 6.676-.088 6.663-.074 6.623-.034 6.604v6.585l.018 6.554.038 6.552.089 6.522.107 6.472.128 6.486.161 6.44.197 6.415.218 6.403.248 6.372.272 6.341.305 6.313.323 6.302.38 6.261.377 6.228.415 6.212.45 6.19.468 6.158M369.657 264.431v1.259l-.023 1.276-.05 1.297M337.13 253.321v1.241l-.017 1.262-.039 1.278M369.657 264.431l-.023-1.064M337.13 253.321l-.035-1.368M423.53 467.253l.017 1.979M423.387 463.705l.07 1.17.058 1.17.015 1.208M422.018 286.982l-.323 6.839-.288 6.825-.27 6.803-.238 6.786-.194 6.767-.182 6.735-.144 6.712-.125 6.696-.092 6.676-.052 6.64-.037 6.645v6.586l.02 6.591.05 6.552.075 6.53.105 6.506.144 6.472.164 6.465.198 6.427.214 6.404.254 6.376.29 6.35.304 6.323.323 6.3.36 6.263.396 6.245.416 6.208M422.129 281.394l-.03 1.84-.026 1.875-.076 1.873M289.016 416.348l.05 1.94" style="fill:none;stroke:#00ff4a;stroke-width:.999997;stroke-linecap:round;stroke-linejoin:round;stroke-miterlimit:4;stroke-dasharray:none;stroke-opacity:1;visibility:visible"/><path d="m288.837 412.841.085 1.15.058 1.171.036 1.186M285.2 235.09l-.036-1.37M312.957 425.401l.035 1.963M291.95 417.445l.055 1.945M312.796 421.888l.07 1.156.051 1.17.04 1.187M291.767 413.953l.093 1.152.052 1.153.038 1.187M309.518 247.4l-.252 6.75-.235 6.733-.181 6.716-.18 6.69-.127 6.68-.108 6.646-.069 6.624-.052 6.624-.019 6.566v6.572l.034 6.55.07 6.513.092 6.501.127 6.467.147 6.44.176 6.428.216 6.406.234 6.371.272 6.356.286 6.323.324 6.294.342 6.282.379 6.245.413 6.216.431 6.185.47 6.175.487 6.135M288.15 239.877l-.25 6.733-.2 6.711-.18 6.696-.16 6.68-.126 6.661-.09 6.639-.074 6.607-.032 6.586v6.575l.016 6.55.055 6.534.072 6.496.105 6.477.145 6.447.164 6.446.196 6.407.218 6.393.252 6.358.269 6.329.308 6.3.34 6.284.357 6.261.399 6.23.412 6.212.45 6.174.47 6.154.501 6.137" style="fill:none;stroke:#00ff4a;stroke-width:.999997;stroke-linecap:round;stroke-linejoin:round;stroke-miterlimit:4;stroke-dasharray:none;stroke-opacity:1;visibility:visible"/><path d="m309.553 243.64.017 1.241-.017 1.262-.035 1.258M288.186 236.134v2.483l-.036 1.26M309.553 243.64l-.016-1.37M288.186 236.134l-.036-1.37M337.869 434.489l.035 2.31M315.908 426.514l.037 1.964M337.686 430.932l.09 1.168.054 1.19.039 1.2M315.743 423.01l.076 1.152.07 1.168.018 1.185M334.845 256.04l-.272 6.77-.235 6.749-.214 6.732-.179 6.698-.145 6.694-.127 6.657-.088 6.645-.07 6.624-.04 6.606v6.586l.02 6.552.051 6.54.071 6.51.11 6.482.143 6.459.164 6.446.178 6.41.234 6.392.235 6.37.287 6.334.306 6.32.326 6.28.361 6.265.396 6.23.41 6.209.45 6.172.47 6.16M312.523 248.463l-.253 6.75-.235 6.731-.197 6.714-.162 6.694-.142 6.682-.111 6.654-.07 6.628-.054 6.606-.019 6.59v6.567l.039 6.553.05 6.516.111 6.497.106 6.478.164 6.445.181 6.43.195 6.405.237 6.372.268 6.354.285 6.319.328 6.299.343 6.282.375 6.247.398 6.225.431 6.195.47 6.172.482 6.141" style="fill:none;stroke:#00ff4a;stroke-width:.999997;stroke-linecap:round;stroke-linejoin:round;stroke-miterlimit:4;stroke-dasharray:none;stroke-opacity:1;visibility:visible"/><path d="M334.897 252.226v1.26l-.017 1.259-.035 1.296M312.561 244.702l.016 1.237-.016 1.246-.037 1.278M334.897 252.226l-.017-1.063M312.561 244.702l-.02-1.37M371.993 447.416l.037 2.303M340.043 435.664l.037 1.941M371.85 443.835l.073 1.185.055 1.192.016 1.204M369.657 264.431l-.023-1.064M337.13 253.321l-.035-1.368M396.547 456.702l.019 2.307M374.228 448.588l.016 1.977M396.404 453.121l.07 1.167.057 1.213.016 1.201M374.065 445.059l.07 1.155.057 1.186.036 1.188M394.569 277.046l-.304 6.805-.292 6.802-.235 6.788-.214 6.749-.2 6.733-.162 6.716-.126 6.695-.104 6.679-.074 6.64-.037 6.623-.017 6.606.017 6.57.037 6.568.074 6.52.085 6.514.127 6.482.164 6.463.178 6.423.219 6.408.23 6.372.273 6.353.285 6.333.324 6.3.364 6.268.376 6.246.413 6.226.434 6.194M371.835 269.325l-.292 6.807-.247 6.784-.234 6.766-.216 6.734-.164 6.729-.147 6.693-.12 6.68-.095 6.662-.052 6.622-.037 6.63v6.583l.037 6.574.052 6.53.095 6.52.103 6.496.145 6.464.161 6.442.2 6.43.234 6.387.253 6.372.27 6.332.322 6.32.324 6.28.379 6.27.394 6.24.416 6.2.45 6.186M394.62 273.196l.02 1.277-.037 1.279-.034 1.293M371.907 265.544v1.244l-.023 1.257-.05 1.28M394.62 273.196v-1.063M371.907 265.544l-.023-1.385M421.264 466.062l.032 2.327M398.78 457.888l.017 1.965M421.137 462.462l.07 1.19.038 1.187.02 1.223M398.637 454.344l.07 1.172.058 1.172.015 1.2M419.712 285.886l-.305 6.839-.307 6.82-.25 6.812-.234 6.757-.199 6.775-.181 6.725-.141 6.719-.127 6.68-.092 6.68-.053 6.637-.038 6.622v6.586l.02 6.576.055 6.55.09 6.535.107 6.496.143 6.479.161 6.444.203 6.426.213 6.395.252 6.37.29 6.355.305 6.302.34 6.298.36 6.259.396 6.23.416 6.209" style="fill:none;stroke:#00ff4a;stroke-width:.999997;stroke-linecap:round;stroke-linejoin:round;stroke-miterlimit:4;stroke-dasharray:none;stroke-opacity:1;visibility:visible"/><path d="m396.837 278.123-.307 6.823-.27 6.808-.252 6.788-.216 6.75-.198 6.75-.164 6.712-.124 6.694-.109 6.675-.073 6.665-.054 6.625-.017 6.604.017 6.586.038 6.572.073 6.533.085 6.519.127 6.476.164 6.462.179 6.448.218 6.402.232 6.376.271 6.373.287 6.315.322 6.321.364 6.279.378 6.244.396 6.23.433 6.19M419.803 282.052v1.259l-.035 1.296-.056 1.28M396.907 274.331v1.237l-.019 1.278-.052 1.277M419.803 282.052l-.016-1.083M396.907 274.331l-.019-1.392M423.53 467.253l.017 1.979M423.387 463.705l.07 1.17.058 1.17.015 1.208M419.463 272.797l.267.057.27.086.27.149.272.157.253.218.248.232.221.27.196.291.179.305.144.327.108.341.09.322.037.342.02.323-.02.307-.056.29-.106.268-.11.234-.159.218-.18.179-.219.127-.216.092-.253.049-.252.02-.268-.037-.268-.075-.29-.104-.271-.163-.254-.198-.248-.216-.234-.251-.216-.284-.183-.31-.161-.305-.126-.326-.106-.342-.058-.317-.033-.348.016-.308.039-.304.07-.272.111-.268.143-.215.161-.198.197-.144.219-.126.23-.074.254-.036.272.017M276.035 222.615l.272.059.255.085.268.143.25.161.255.199.233.236.216.268.178.272.182.301.14.332.11.32.093.324.032.324.02.324-.02.31-.05.285-.075.25-.127.232-.144.219-.161.159-.196.145-.216.09-.235.055-.252.016-.25-.033-.251-.073-.274-.108-.253-.143-.248-.177-.253-.22-.215-.254-.219-.27-.18-.307-.142-.301-.144-.326-.088-.322-.076-.327-.032-.32.016-.308.016-.304.076-.272.104-.252.128-.216.161-.201.179-.144.201-.124.232-.071.236-.036h.248" style="fill:none;stroke:#00ff4a;stroke-width:.999997;stroke-linecap:round;stroke-linejoin:round;stroke-miterlimit:4;stroke-dasharray:none;stroke-opacity:1;visibility:visible"/><path d="m278.54 420.163-.052-.177-.037-.164v-.159l.018-.147.071-.126.075-.088.104-.058h.126l.144.019.128.05.144.111.108.128.106.143.073.164.053.16.018.183v.142l-.052.148-.071.087-.092.072-.125.037h-.128l-.142-.037-.126-.088-.126-.11-.109-.143-.108-.147M280.358 417.737l.088.07.147.125.144.144.126.166.123.172.108.166.11.181.11.199.07.182.089.198.054.196.054.196.037.197.019.112M353.22 448.516l-.052-.164-.036-.18v-.16l.017-.14.071-.13.093-.091.103-.051h.127l.128.016.144.048.146.112.126.125.086.144.092.164.035.183.016.165v.158l-.05.126-.071.106-.108.068-.11.038h-.142l-.146-.052-.126-.069-.127-.115-.123-.141-.093-.16M355.057 446.048l.056.039.143.144.144.141.145.164.121.16.127.163.11.182.091.199.091.176.088.2.07.199.057.198.037.196.032.16M437.047 480.342l-.073-.168-.035-.175v-.164l.035-.144.056-.129.105-.087.11-.057.125-.017.146.041.144.047.143.113.128.123.104.169.076.157.052.164.019.174-.019.15-.052.14-.076.112-.104.071-.128.033-.143-.017-.144-.04-.126-.085-.146-.107-.109-.145-.088-.159M438.884 477.814l.052.057.164.13.145.137.14.164.127.17.127.173.126.177.092.183.106.197.074.199.071.2.056.2.05.198.02.159M435.173 284.39l-.141-.304-.091-.307-.075-.308-.032-.305-.02-.307.02-.286.051-.271M435.785 284.21l-.07-.18-.034-.18v-.16l.033-.167.071-.124.09-.089.111-.07.144-.02.143.037.145.053.146.09.122.143.107.147.075.181.053.174.017.165-.017.161-.053.144-.075.126-.107.073-.122.037h-.146l-.145-.037-.143-.09-.126-.109-.128-.144-.091-.161M439.01 283.74l.032.164.02.184M349.784 254.44l-.127-.305-.108-.311-.07-.304-.038-.287-.017-.308.017-.284.052-.252M350.36 254.24l-.076-.163-.033-.181v-.16l.033-.16.057-.13.09-.087.125-.071.127-.016.144.016.142.07.127.089.125.129.11.16.072.16.053.181.017.182-.017.142-.036.143-.07.127-.109.073-.126.036h-.127l-.145-.036-.143-.073-.144-.127-.108-.143-.088-.161M353.51 253.79h0l.032.2.02.161M273.751 227.763l-.128-.287-.105-.308-.074-.304-.034-.288-.019-.304.019-.276.034-.265M274.273 227.563l-.056-.161-.033-.18v-.162l.016-.164.073-.124.07-.09.127-.051.126-.043.126.043.146.05.126.091.123.124.11.164.073.162.053.164.016.177v.161l-.05.144-.075.111-.087.073-.128.051h-.125l-.144-.05-.144-.074-.128-.11-.107-.145-.108-.161" style="fill:none;stroke:#00ff4a;stroke-width:.666665;stroke-linecap:round;stroke-linejoin:round;stroke-miterlimit:4;stroke-dasharray:none;stroke-opacity:1;visibility:visible"/><path d="m258.45 424.613.668-.253M258.38 421.439l.017.74M258.594 421.115l-.088.056-.072.073-.037.11-.016.085M264.553 418.865l.09-.05.071-.09.036-.09.016-.111M264.553 418.865l-5.96 2.25M264.608 411.69l.159 6.833M264.823 411.365l-.088.05-.07.077-.04.106-.017.091M265.095 411.274l-.272.092M265.217 411.253h-.07l-.053.021M258.542 428.03l.02.112.032.104.056.068.09.04M258.45 424.613l.09 3.417M259.119 424.36l2.988 1.153M262.107 425.513l.161.05h.163M261.514 423.365l.177.093.179.127.18.145.144.192.125.202.111.218.087.234.038.214.018.236-.018.195-.038.18-.087.161M261.514 423.365l-3.117-1.187M447.092 480.215l-181.874-68.962M253.395 215.29l-.09-3.565M253.304 211.724l.017-.145.038-.142.073-.126.085-.11.11-.088.128-.053 12.888-4.5" style="fill:none;stroke:#00ff4a;stroke-width:.999997;stroke-linecap:round;stroke-linejoin:round;stroke-miterlimit:4;stroke-dasharray:none;stroke-opacity:1;visibility:visible"/><path d="m266.642 206.56.127-.016.105.016M260.306 224.09l-.055-.037-.036-.052-.018-.092-.074-2.864M253.593 218.763l-.057-.04-.051-.052v-.088l-.02-.761M254.132 217.59l-.667.233M257.158 216.802l-2.647.916-.38-.13M256.58 216.39l-3.185-1.1M257.158 216.802l-.143-.143-.146-.112-.146-.088-.144-.07M274.777 226.2h0" style="fill:none;stroke:#00ff4a;stroke-width:.999997;stroke-linecap:round;stroke-linejoin:round;stroke-miterlimit:4;stroke-dasharray:none;stroke-opacity:1;visibility:visible"/><path d="m260.124 221.046-6.53-2.283" style="fill:none;stroke:#00ff4a;stroke-width:1.99999;stroke-linecap:round;stroke-linejoin:round;stroke-miterlimit:4;stroke-dasharray:none;stroke-opacity:1;visibility:visible"/><path d="m446.3 289.36-9.876-3.464M436.616 285.976l-85.537-30.024M351.207 256.002l-76.022-26.677M275.158 229.31l-14.852-5.22" style="fill:none;stroke:#00ff4a;stroke-width:.999997;stroke-linecap:round;stroke-linejoin:round;stroke-miterlimit:4;stroke-dasharray:none;stroke-opacity:1;visibility:visible"/><path d="M449.36 270.045 266.874 206.56" style="fill:none;stroke:#00ff4a;stroke-width:1.99999;stroke-linecap:round;stroke-linejoin:round;stroke-miterlimit:4;stroke-dasharray:none;stroke-opacity:1;visibility:visible"/><path d="m267.11 411.976-.037-1.1M267.632 410.175l-.09-.019-.091.032-.087.058-.093.094-.09.124-.054.143-.034.15-.02.12M423.33 469.162l23.616 8.944M267.632 410.175l.396.139M268.905 410.61l154.425 58.552M267.973 408.272l-.016-.727-.04-.701-.032-.707-.039-.678-.05-.702M267.973 408.272l.055 2.041M267.796 404.757l-.415-4.717-.38-4.748-.377-4.752-.343-4.792-.342-4.786-.323-4.809-.304-4.824-.272-4.837-.272-4.847-.25-4.881-.234-4.874-.233-4.898-.2-4.912-.18-4.932-.16-4.948-.164-4.952-.127-4.968-.108-4.988-.105-5.001-.072-5.026-.071-5.02-.056-5.04-.019-5.04-.02-5.02v-5.024l.039-5.038.037-5.043.052-5.075.071-5.074.093-5.076.107-5.096.128-5.11.121-5.13.164-5.134.184-5.144M263.764 231.202v-.216l.016-.056v-.627l.016-.04v-2.7l-.016-.03v-.075l-.016-1.257M267.11 411.976l-.037-1.1" style="fill:none;stroke:#00ff4a;stroke-width:.999997;stroke-linecap:round;stroke-linejoin:round;stroke-miterlimit:4;stroke-dasharray:none;stroke-opacity:1;visibility:visible"/><path d="m267.632 410.175-.09-.019-.091.032-.087.058-.093.094-.09.124-.054.143-.034.15-.02.12M267.973 408.272l.055 2.041M263.764 231.202v-.216l.016-.056v-.627l.016-.04v-2.7l-.016-.03v-.075l-.016-1.257M423.116 271.485l.27.216.25.25.233.271.238.287.197.307.161.342.162.323.11.343.108.361.052.337.036.35M421.73 270.89l.27.033.285.092.289.124.27.163.271.183M424.933 274.872v.359l-.019.321-.069.324-.092.305-.127.271-.162.236-.176.197-.222.178-.229.145M420.577 271.107l.197-.11.218-.073.232-.033.254-.019.252.019M418.596 272.294l1.98-1.188M421.765 278.179l-.179.09-.18.057-.2.036-.196.017h-.197l-.201-.017-.198-.036-.196-.058-.202-.07-.214-.087-.196-.095-.217-.126-.199-.144-.196-.179-.182-.176-.179-.183-.179-.218-.162-.215-.146-.236-.128-.23-.106-.25-.107-.237-.09-.27-.071-.25-.056-.256-.035-.246v-.51l.016-.25.039-.233.056-.235.07-.23.088-.199.127-.204.124-.176.144-.161.11-.127.142-.09.127-.091M421.765 278.179l2.072-.97M279.728 221.409l.252.216.25.252.217.27.216.29.182.308.179.319.125.344.126.338.092.346.05.341.019.327M278.323 220.78l.29.036.287.09.267.123.29.182.271.198" style="fill:none;stroke:#00ff4a;stroke-width:.999997;stroke-linecap:round;stroke-linejoin:round;stroke-miterlimit:4;stroke-dasharray:none;stroke-opacity:1;visibility:visible"/><path d="M281.436 224.759v.336l-.02.327-.07.322-.089.272-.126.274-.164.213-.178.199-.197.162-.235.127M277.28 220.976l.25-.124.254-.05.27-.043.269.021M275.3 222.11l1.98-1.135M278.267 227.94l-.159.06-.181.052-.181.036-.196.015h-.183l-.196-.015-.179-.036-.197-.052-.201-.076-.196-.108-.199-.108-.197-.107-.199-.161-.179-.164-.178-.18-.184-.18-.162-.215-.142-.214-.146-.235-.126-.235-.107-.234-.09-.254-.089-.25-.056-.255-.052-.247-.036-.256-.02-.232.02-.252.018-.236.037-.234.05-.23.077-.22.086-.198.11-.198.144-.161.142-.164.11-.105.128-.108.142-.072M278.267 227.94l2.09-.95" style="fill:none;stroke:#00ff4a;stroke-width:.999997;stroke-linecap:round;stroke-linejoin:round;stroke-miterlimit:4;stroke-dasharray:none;stroke-opacity:1;visibility:visible"/><path d="m277.927 420.058-.07-.199-.073-.196-.038-.197-.032-.204-.042-.19v-.367l.023-.182.019-.18.032-.158.054-.164.074-.142.07-.126.094-.131.106-.107.107-.084.11-.074.126-.072.143-.056.126-.036.143-.019h.308l.143.041.164.032.158.055.166.072.142.09.162.09.161.125.055.058M281.637 420.041l.017.072v.55l-.036.186-.037.164-.053.159-.055.144-.073.146-.086.127-.093.104-.11.092-.105.09-.125.07-.144.056-.127.037-.145.015-.144.019-.16-.019-.145-.015-.163-.037-.141-.056-.164-.07-.16-.073-.166-.088-.142-.112-.162-.124-.145-.141-.143-.147-.126-.16-.143-.181M278.36 420.85h0l-.019-.02v-.015h-.018v-.022l-.018-.018v-.016h-.021v-.016l-.017-.02v-.02h-.016v-.014l-.018-.024v-.014h-.018v-.036h-.019v-.014h-.016v-.038h-.017v-.024l-.019-.014v-.018l-.021-.014v-.023h-.015v-.033h-.02v-.036h-.019v-.036h-.016v-.042h-.016v-.032h-.02v-.037l-.018-.015v-.024h-.019v-.032l-.019-.02v-.03h-.017v-.044h-.017v-.03M352.789 448.858l-.108-.2-.088-.196-.076-.197-.07-.203-.053-.19-.036-.209-.038-.172v-.577l.038-.183.036-.162.052-.159.055-.148.072-.144.09-.127.106-.104.11-.109.106-.073.127-.071.126-.055.146-.056.144-.016.161-.017.145.017.159.016.164.04.16.054.164.052.164.092.161.09.143.108.108.088M356.37 448.369v.037l.02.196v.36l-.037.183-.015.18-.056.164-.055.14-.069.147-.093.124-.091.124-.105.113-.127.09-.125.069-.128.061-.146.045-.142.02-.143.019h-.145l-.162-.019-.162-.033-.162-.055-.161-.054-.163-.074-.161-.088-.145-.109-.16-.127-.144-.125-.147-.143-.141-.162-.128-.159-.162-.22-.126-.215M436.58 480.716l-.09-.201-.107-.198-.071-.196-.076-.197-.052-.2-.036-.193-.035-.202-.017-.197v-.38l.035-.176.036-.163.05-.162.058-.159.088-.148.076-.13.108-.125.104-.088.126-.085.127-.076.127-.075.142-.033.147-.036h.323l.161.019.161.041.162.032.162.07.162.09.161.095.163.101.109.07" style="fill:none;stroke:#00ff4a;stroke-width:.666665;stroke-linecap:round;stroke-linejoin:round;stroke-miterlimit:4;stroke-dasharray:none;stroke-opacity:1;visibility:visible"/><path d="m440.234 480.158.017.033.015.198v.378l-.015.188-.037.174-.05.16-.057.162-.069.15-.095.122-.086.128-.111.108-.127.088-.126.071-.126.07-.144.042-.142.032-.164.02h-.143l-.163-.02-.161-.017-.161-.058-.179-.045-.164-.07-.159-.098-.164-.11-.16-.125-.145-.122-.161-.146-.143-.16-.128-.164-.164-.192-.143-.24M439.062 284.087v.032l.019.197v.2l-.019.18-.035.2-.036.179-.056.163-.069.158-.092.143-.087.135-.11.124-.11.104-.122.088-.127.073-.145.075-.143.034-.163.036-.161.016h-.161l-.164-.016-.164-.036-.16-.054-.18-.072-.162-.07-.161-.104-.181-.113-.143-.127-.161-.141-.147-.147-.141-.161-.128-.164-.162-.23-.126-.235M353.562 254.15l.019.039v.393l-.019.197-.02.179-.05.163-.057.164-.069.16-.07.145-.091.125-.112.126-.108.11-.122.07-.145.092-.127.052-.145.036-.159.038h-.306l-.163-.021-.161-.033-.163-.055-.164-.07-.164-.094-.159-.087-.164-.112-.16-.124-.145-.142-.145-.143-.142-.163-.128-.18-.142-.218-.124-.235M277.441 228.103l-.019.019-.014.181-.058.161-.053.159-.053.147-.091.146-.09.126-.106.125-.11.09-.127.087-.127.074-.125.054-.144.036-.143.016-.164.02-.144-.02-.161-.016-.162-.036-.161-.054-.161-.074-.163-.086-.161-.091-.144-.108-.164-.125-.142-.144-.128-.144-.142-.164-.127-.179-.144-.215-.128-.234" style="fill:none;stroke:#00ff4a;stroke-width:.666665;stroke-linecap:round;stroke-linejoin:round;stroke-miterlimit:4;stroke-dasharray:none;stroke-opacity:1;visibility:visible"/><path d="m455.596 271.747 1.728-.051M446.281 286.153l3.339.132M436.424 285.896l13.196.389M447.423 500.453l3.31 6.027M453.85 514.907l-3.117-8.427M253.395 215.29l-3.19-5.222M256.634 218.94l-9.351.803M250.179 430.796l2.179-5.832M250.178 430.797l2.18-5.833" style="fill:none;stroke:#00ff4a;stroke-width:.999997;stroke-linecap:round;stroke-linejoin:round;stroke-miterlimit:4;stroke-dasharray:none;stroke-opacity:1;visibility:visible"/><path d="m258.45 424.613 5.551 5.767M253.395 215.29l13.861-11.235M253.395 215.29l-8.808-3.212M450.733 506.48l-3.31-6.027M418.276 489.315l6.566 2.518M424.842 491.833l-6.566-2.518M284.755 438.306l-6.856-2.629" style="fill:none;stroke:#00ff4a;stroke-width:1.99999;stroke-linecap:round;stroke-linejoin:round;stroke-miterlimit:4;stroke-dasharray:none;stroke-opacity:1;visibility:visible"/><path d="m450.733 506.48-3.353-13.434M450.733 506.48l-3.37-18.095M449.62 286.285l-3.392-7.995" style="fill:none;stroke:#00ff4a;stroke-width:.999997;stroke-linecap:round;stroke-linejoin:round;stroke-miterlimit:4;stroke-dasharray:none;stroke-opacity:1;visibility:visible"/><path d="m449.62 286.285-3.339-.132M417.203 275.963l5.715 1.995M422.918 277.958l-5.715-1.995" style="fill:none;stroke:#00ff4a;stroke-width:1.99999;stroke-linecap:round;stroke-linejoin:round;stroke-miterlimit:4;stroke-dasharray:none;stroke-opacity:1;visibility:visible"/><path d="m419.803 282.052 2.326-.658M315.908 426.514l-2.916.85M289.016 416.348l2.989 3.042M312.561 244.702l-3.024-2.433M285.2 235.09l2.95-.327M340.043 435.664l-2.14 1.136M312.957 425.401l2.988 3.077M337.13 253.321l-2.25-2.158M309.553 243.64l2.988-.307M398.78 457.888l-2.214 1.12M371.993 447.416l2.251 3.15M396.907 274.331l-2.287-2.198M369.657 264.431l2.227-.272M423.53 467.253l-2.234 1.136M396.547 456.702l2.25 3.151M419.712 285.887l.075-4.918M394.62 273.196l2.268-.257M421.73 270.89l-2.267 1.907M449.62 286.285l-3.32 3.075" style="fill:none;stroke:#00ff4a;stroke-width:.999997;stroke-linecap:round;stroke-linejoin:round;stroke-miterlimit:4;stroke-dasharray:none;stroke-opacity:1;visibility:visible"/><path d="m449.62 286.285-.26-16.24" style="fill:none;stroke:#00ff4a;stroke-width:1.99999;stroke-linecap:round;stroke-linejoin:round;stroke-miterlimit:4;stroke-dasharray:none;stroke-opacity:1;visibility:visible"/></svg>