<svg xmlns="http://www.w3.org/2000/svg" baseProfile="full" height="1122.52" preserveAspectRatio="xMinYMin meet" style="width:765px;height:943px" width="793.701" xml:space="preserve"><path d="m190.795 501.05-7.037.503M194.148 500.994h-1.62l-1.063.056h-.67M336.595 491.835l-2.624.39c-45.473 6.63-91.304 9.698-137.255 8.827l-2.567-.057M339.948 491.442l-.56.057-2.121.223-.67.112M348.217 490.938l-8.27.503M160.462 481.777l-8.21.501M163.87 481.665h-1.676l-1.061.055-.672.056M306.263 472.506l-2.57.39c-39.047 5.731-78.289 8.75-117.755 8.995h-3.018M167.278 481.777l-.892-.059-2.516-.053M309.67 472.113l-.61.056-1.065.11-1.061.111-.67.115M317.882 471.61l-8.212.504M130.128 462.45l-8.213.503M133.536 462.392l-.559-.056-1.061.056h-1.117l-.671.059M166.44 462.451h-1.006a930.934 930.934 0 0 1-29.328 0l-2.569-.057M275.93 453.176l-2.57.392a850.686 850.686 0 0 1-88.32 8.323l-3.016.113M279.338 452.841h-.557l-1.062.11-1.118.113-.67.11M287.55 452.281l-8.212.56M89.684 465.073l-.223.281M89.684 468.873l.279.28M90.244 469.264h.223M90.13 464.907h-.167M89.462 474.459l-.224.336M89.462 478.257l.223.28M90.02 478.705h.168M89.909 474.292h-.168M170.294 519.315l-.223.28M170.294 523.115l.28.28M170.853 523.507h.557M171.132 519.094l-.557.055M169.848 509.651l-.224.335M169.848 513.45l.279.277M170.462 513.897l.557-.053M170.74 509.429l-.615.057" style="fill:none;stroke:red;stroke-width:.666665;stroke-linecap:round;stroke-linejoin:round;stroke-miterlimit:10;stroke-dasharray:none;stroke-opacity:1;visibility:visible"/><path d="M358.104 513.396v.055M362.461 513.283v-.168M362.347 513.396l.113-.113M358.104 513.45l.11.168M188.786 524.288v.112M193.142 524.179v-.17M193.03 524.347l.11-.115M188.786 524.4l.11.11" style="fill:none;stroke:red;stroke-width:1.99999;stroke-linecap:round;stroke-linejoin:round;stroke-miterlimit:10;stroke-dasharray:none;stroke-opacity:1;visibility:visible"/><path d="M382.571 307.654h.056l.055.112.113.056h.11l.171.056h.334l10.669-.67M378.716 302.401l3.856 5.252" style="fill:none;stroke:red;stroke-width:.666665;stroke-linecap:round;stroke-linejoin:round;stroke-miterlimit:10;stroke-dasharray:none;stroke-opacity:1;visibility:visible"/><path d="M394.693 305.586v-.28l-.053-.055v-.056l-.056-.056v-.056M394.526 306.928l.167-1.341M394.582 305.083l-3.856-5.25M394.08 307.208h.056l.112-.057h.112l.11-.055.057-.057v-.111M390.223 299.611l-.559-.056a48.103 48.103 0 0 0-9.888.672l-.39.056M390.727 299.834l-.11-.115h-.058l-.055-.054-.056-.056h-.224" style="fill:none;stroke:red;stroke-width:1.99999;stroke-linecap:round;stroke-linejoin:round;stroke-miterlimit:10;stroke-dasharray:none;stroke-opacity:1;visibility:visible"/><path d="M185.322 320.335v.058l.11.054c.39.174.183.179.615.167h.057l10.666-.668M181.41 315.083l3.91 5.25" style="fill:none;stroke:red;stroke-width:.666665;stroke-linecap:round;stroke-linejoin:round;stroke-miterlimit:10;stroke-dasharray:none;stroke-opacity:1;visibility:visible"/><path d="m197.276 317.82-3.855-5.25M182.082 313.016h-.225v.057h-.055v.052h-.112v.06h-.055v.107h-.056v.059h-.057v.166M192.92 312.29h-.56c-3.31-.188-6.62.145-9.887.673l-.393.055M181.578 313.575l-.221 1.34.053.113v.055M193.422 312.568l-.112-.11h-.057l-.055-.057-.056-.056h-.168l-.053-.057M99.181 391.502l54.803 34.861M168.898 417.255l-54.803-34.803M105.994 406.646v-1.51c-.053-2.813.087-5.733.672-8.491l.056-.335" style="fill:none;stroke:red;stroke-width:1.99999;stroke-linecap:round;stroke-linejoin:round;stroke-miterlimit:10;stroke-dasharray:none;stroke-opacity:1;visibility:visible"/><path d="M97.45 390.888h.279l.056.056h.168l.056.055h.168l.112.056.168.056.222.112.223.11.28.168" style="fill:none;stroke:red;stroke-width:.666665;stroke-linecap:round;stroke-linejoin:round;stroke-miterlimit:10;stroke-dasharray:none;stroke-opacity:1;visibility:visible"/><path d="m114.096 382.457-.782-.45-.278-.166c-1.634-.643-2.256-.664-4.024-.561l-.39.059-.616.055c-3.85.181-7.785.503-11.618.725h-.112l-.392.114-.335.056-.221.054c-2.15.782-3.648 2.732-4.583 4.748l-.112.336c-1.62 3.416-2.299 8.404-2.512 12.121l-.115 1.566-.053 1.676v1.786M107.616 453.23l-1.62-46.587M87.953 404.575l1.62 46.647M107.616 455.577v-2.29M89.573 451.22l-.056.895v.949l-.055.95v.949M102.811 644.784l4.805-189.205M89.462 454.962l-.28 11.344" style="fill:none;stroke:red;stroke-width:1.99999;stroke-linecap:round;stroke-linejoin:round;stroke-miterlimit:10;stroke-dasharray:none;stroke-opacity:1;visibility:visible"/><path d="m89.126 467.087-.167 8.656" style="fill:none;stroke:red;stroke-width:.666665;stroke-linecap:round;stroke-linejoin:round;stroke-miterlimit:10;stroke-dasharray:none;stroke-opacity:1;visibility:visible"/><path d="m88.902 476.471-4.245 167.697" style="fill:none;stroke:red;stroke-width:1.99999;stroke-linecap:round;stroke-linejoin:round;stroke-miterlimit:10;stroke-dasharray:none;stroke-opacity:1;visibility:visible"/><path d="m385.755 410.775 2.737-.223M387.933 401.894l-2.736.11h-.056l-.168.057-.112.056-.221.224-.338.504-.11.278-.115.448M388.606 410.496h.053l.279-.278.114-.335.11-.447v-.224l.057-.277c.032-.633.085-1.267.11-1.903v-1.002c.01-.89.023-3.634-1.004-4.023l-.169-.056h-.056M384.415 409.38l.057.11c.202.43.578 1.308 1.172 1.288h.11M382.515 409.434l3.297-.112M382.293 409.38l.112.055h.11M381.455 408.766l.837.615M390.448 405.358v-.056c.008-.267.027-.57-.168-.783l-.056-.109h-.056M389.22 408.653l.839-.056M384.863 403.513l-2.792.223M390.393 407.929l.056-2.572M390.17 404.408l-.893-.67M390.06 408.54h.11l.055-.057.112-.222v-.11l.055-.114v-.112M389.274 403.736h-.055M394.807 402.62h-.057c-.452.095-1.124.562-1.174 1.063l-.056.113-.112.391c-.428 1.908-.402 3.875-.165 5.808l.11.447M407.877 401.614l-13.07 1.007M394.08 411.39h.056l.167.056.224.056h.281M393.968 411.279l.11.11" style="fill:none;stroke:red;stroke-width:.666665;stroke-linecap:round;stroke-linejoin:round;stroke-miterlimit:10;stroke-dasharray:none;stroke-opacity:1;visibility:visible"/><path d="m394.807 411.502 13.07-1.004" style="fill:none;stroke:red;stroke-width:1.99999;stroke-linecap:round;stroke-linejoin:round;stroke-miterlimit:10;stroke-dasharray:none;stroke-opacity:1;visibility:visible"/><path d="M393.353 410.44v.112l.056.168.053.11" style="fill:none;stroke:red;stroke-width:.666665;stroke-linecap:round;stroke-linejoin:round;stroke-miterlimit:10;stroke-dasharray:none;stroke-opacity:1;visibility:visible"/><path d="m409.216 409.491.111-.279c.644-1.918.763-4.326.112-6.254l-.056-.223-.056-.113-.055-.222-.11-.169-.167-.17-.17-.109-.109-.112-.168-.056M407.877 401.614h.057" style="fill:none;stroke:red;stroke-width:1.99999;stroke-linecap:round;stroke-linejoin:round;stroke-miterlimit:10;stroke-dasharray:none;stroke-opacity:1;visibility:visible"/><path d="M407.876 410.496h.058c.405-.058.982-.405 1.172-.78l.11-.226" style="fill:none;stroke:red;stroke-width:1.99999;stroke-linecap:round;stroke-linejoin:round;stroke-miterlimit:10;stroke-dasharray:none;stroke-opacity:1;visibility:visible"/><path d="M155.324 418.151h-.112l-.168.056-.224.056-.335.221-.113.168-.166.112-.113.224-.11.335-.059.337c-.507 1.643-.489 4.172-.166 5.864l.056.394M168.674 417.255l-13.348.895" style="fill:none;stroke:red;stroke-width:.666665;stroke-linecap:round;stroke-linejoin:round;stroke-miterlimit:10;stroke-dasharray:none;stroke-opacity:1;visibility:visible"/><path d="m154.486 426.864.11.056.169.057.224.054h.278M154.372 426.751l.113.112M155.267 427.03l13.35-.836M153.815 425.916l.057.11v.167" style="fill:none;stroke:red;stroke-width:1.99999;stroke-linecap:round;stroke-linejoin:round;stroke-miterlimit:10;stroke-dasharray:none;stroke-opacity:1;visibility:visible"/><path d="m169.96 425.135.11-.28c.752-2.208.662-4.004.168-6.255l-.056-.225-.056-.055-.056-.168-.11-.224-.28-.28-.167-.11M169.512 417.535l-.11-.056M168.618 426.196l.056-.056c.563.008 1.094-.425 1.286-.952v-.053" style="fill:none;stroke:red;stroke-width:.666665;stroke-linecap:round;stroke-linejoin:round;stroke-miterlimit:10;stroke-dasharray:none;stroke-opacity:1;visibility:visible"/><path d="M87.506 648.026h.167l.168.056h.278l.17-.056h.109M84.544 646.015v.11c.484 1.076 1.602 1.699 2.736 1.846l.226.056M88.4 648.026l13.35-.84M103.036 645.009l-.057-.112v-.056M102.925 646.291l.11-1.283M101.75 647.186h.113l.167-.057h.113l.11-.052h.113l.11-.058.114-.054.11-.111.057-.115.112-.11.056-.168v-.168M102.979 644.841l-.055-.112-.112-.11M96.415 578.49v.055l-.112.057-.055.057v.058l-.058.109v1.287M96.248 580.11v.28l.055.056M297.55 634.509h.056l.11.053h.447l.168-.053h.112M294.306 632.607v.113c.664 1.117 1.839 1.603 3.073 1.792h.168M298.444 634.509l13.07-1.008M312.744 631.324v-.113l-.057-.111M312.633 632.605l.11-1.281M311.514 633.501h.279l.112-.057.113-.055h.11l.113-.057.11-.11.112-.058.058-.111.054-.165.058-.114v-.169M294.365 630.596h-.057l-.055.057-.056.108-.056.058v.057l.056 1.284v.336l.056.055M312.688 631.099l-.11-.057-.058-.055" style="fill:none;stroke:red;stroke-width:1.99999;stroke-linecap:round;stroke-linejoin:round;stroke-miterlimit:10;stroke-dasharray:none;stroke-opacity:1;visibility:visible"/><path d="m389.442 408.653 4.079 2.292" style="fill:none;stroke:red;stroke-width:.666665;stroke-linecap:round;stroke-linejoin:round;stroke-miterlimit:10;stroke-dasharray:none;stroke-opacity:1;visibility:visible"/><path d="m408.045 401.614-24.021-13.35M317.66 439.655l8.884-33.573M307.492 407.87l-7.876 29.776M317.381 441.947v-.613l.055-.559.224-1.119M299.616 437.646l-.167.95-.112.951-.11 1.006-.058.949M312.52 631.099l2.907-112.565M316.767 466.08l.615-24.133M299.169 441.5l-.168 7.597M297.156 520.378l-2.79 110.274" style="fill:none;stroke:red;stroke-width:1.99999;stroke-linecap:round;stroke-linejoin:round;stroke-miterlimit:10;stroke-dasharray:none;stroke-opacity:1;visibility:visible"/><path d="m124.262 482.11.057 3.3M129.346 485.518v-.167M124.32 485.41v.169l.11.223.224.112.112.112.167.054.225.058c.472.189.728.124 1.118.224h.781c.599.008 1.984.02 2.236-.672l.053-.112v-.058M185.265 495.353l-.559-.057-1.061.057h-.17M327.658 486.135l-2.57.392c-45.35 6.636-91.419 9.768-137.251 8.827h-2.572M331.066 485.798h-.559l-1.061.112-1.117.112-.67.112M339.278 485.24l-8.212.559M151.525 476.078l-8.212.559M154.932 476.022h-2.681l-.726.056M297.325 466.808l-2.568.392a834.777 834.777 0 0 1-107.928 8.882l-4.19.056M167.055 476.192l-4.695-.056-4.856-.056-2.572-.056M300.733 466.47l-.557.056-1.063.057-1.061.168-.727.054M308.944 465.913l-8.212.557M142.643 470.436l-8.213.501M146.05 470.324h-1.679l-1.058.056-.671.055M288.443 461.166l-2.57.389c-34.243 4.983-68.471 7.936-103.067 8.77h-.391M166.775 470.55h-3.52l-4.916-.056-4.86-.056-4.916-.056-2.512-.057M291.85 460.772l-1.677.168-1.059.112-.67.112M300.064 460.27l-8.213.501M167.669 490.044l-2.905.224M318.777 480.436l-2.627.39c-43.775 6.539-88.084 9.473-132.338 8.941h-.558M322.129 480.1l-.559.055-1.061.056-1.063.169-.668.055M330.398 479.542l-8.27.559" style="fill:none;stroke:red;stroke-width:.666665;stroke-linecap:round;stroke-linejoin:round;stroke-miterlimit:10;stroke-dasharray:none;stroke-opacity:1;visibility:visible"/><path d="m184.763 524.568 17.37-1.117" style="fill:none;stroke:red;stroke-width:1.99999;stroke-linecap:round;stroke-linejoin:round;stroke-miterlimit:10;stroke-dasharray:none;stroke-opacity:1;visibility:visible"/><path d="m199.175 505.685-15.195.95" style="fill:none;stroke:red;stroke-width:.666665;stroke-linecap:round;stroke-linejoin:round;stroke-miterlimit:10;stroke-dasharray:none;stroke-opacity:1;visibility:visible"/><path d="m315.76 518.482 4.916-.56a908.746 908.746 0 0 0 24.69-3.296l3.91-.56" style="fill:none;stroke:red;stroke-width:1.99999;stroke-linecap:round;stroke-linejoin:round;stroke-miterlimit:10;stroke-dasharray:none;stroke-opacity:1;visibility:visible"/><path d="m344.975 496.415-2.57.392c-11.363 1.71-22.766 3.145-34.183 4.413l-.955.112" style="fill:none;stroke:red;stroke-width:.666665;stroke-linecap:round;stroke-linejoin:round;stroke-miterlimit:10;stroke-dasharray:none;stroke-opacity:1;visibility:visible"/><path d="m349.276 514.064.45-.052.78-.115.782-.053 18.323-1.176" style="fill:none;stroke:red;stroke-width:1.99999;stroke-linecap:round;stroke-linejoin:round;stroke-miterlimit:10;stroke-dasharray:none;stroke-opacity:1;visibility:visible"/><path d="M348.327 496.077h-.559l-2.122.223-.67.112M366.65 494.85l-18.324 1.23" style="fill:none;stroke:red;stroke-width:.666665;stroke-linecap:round;stroke-linejoin:round;stroke-miterlimit:10;stroke-dasharray:none;stroke-opacity:1;visibility:visible"/><path d="m114.656 475.968 53.853 34.3" style="fill:none;stroke:red;stroke-width:1.99999;stroke-linecap:round;stroke-linejoin:round;stroke-miterlimit:10;stroke-dasharray:none;stroke-opacity:1;visibility:visible"/><path d="m167.725 492.448-46.868-29.832M362.347 495.128l-68.541-43.63" style="fill:none;stroke:red;stroke-width:.666665;stroke-linecap:round;stroke-linejoin:round;stroke-miterlimit:10;stroke-dasharray:none;stroke-opacity:1;visibility:visible"/><path d="m107.003 480.043 12.737-.837M127.392 460.046l-19.943 1.287M130.799 459.988h-1.619l-1.062.057h-.726M166.328 459.99l-3.631.057a919 919 0 0 1-29.328 0l-2.57-.057M273.193 450.831l-2.57.335c-29.2 4.362-58.82 7.124-88.32 8.324h-.389M276.6 450.44l-.559.055-1.062.056-1.062.166-.724.114M298.945 448.985l-22.345 1.453M180.403 685.006l.113.055h.112l10.446-.67M176.273 683.218l.333.172c.912.62 2.618 1.338 3.688 1.62h.11M191.802 683.497v-2.793l-.057-.056v-.055h-.055l-.056-.055h-.056" style="fill:none;stroke:red;stroke-width:1.99999;stroke-linecap:round;stroke-linejoin:round;stroke-miterlimit:10;stroke-dasharray:none;stroke-opacity:1;visibility:visible"/><path d="M191.074 684.392h.057l.168-.056.111-.056.056-.056.11-.11.058-.058.11-.224v-.167l.058-.112v-.056M175.88 682.492v.115l.057.109.054.168.112.223.113.057.056.055M175.77 681.096l.11 1.397M175.937 680.816l-.057.056-.056.056h-.055v.168M181.578 315.306 168.73 417.2M167.556 426.248l-.613 4.75M166.105 454.74l9.832 226.133M166.942 431.002l-.056.616c-.925 7.44-1.065 14.854-.836 22.344l.056.781M362.686 401.838l.5-.056.95-.167 1.006-.057.952-.11.948-.055h.168l2.177-.168M195.544 315.139h-.223M377.658 672.327h.223l10.5-.67M373.578 670.482l.334.224c1.034.546 2.562 1.311 3.688 1.566l.056.054M389.053 670.818v-2.907l-.057-.054h-.055v-.055h-.113M388.382 671.656h.056c.584-.318.408-.067.612-.668v-.17M373.185 669.756v.279l.057.113.111.11.057.111.111.112h.057M373.02 668.36l.165 1.397M373.242 668.135h-.11v.057l-.055.055-.058.056v.056M379.668 422.955l14.579-115.805M366.37 401.447l-2.123 16.87M388.829 667.802l-9.832-226.133M363.354 442.003l2.348 52.901M366.484 512.836l6.757 155.3M364.248 418.32l-.056.555c-.938 7.345-1.105 14.955-.838 22.347v.782M378.996 441.67l-.056-.616c-.156-5.938-.046-11.69.67-17.595l.057-.501" style="fill:none;stroke:red;stroke-width:1.99999;stroke-linecap:round;stroke-linejoin:round;stroke-miterlimit:10;stroke-dasharray:none;stroke-opacity:1;visibility:visible"/><path d="m190.795 501.106-7.037.448M336.595 491.835l-5.25.781c-43.655 6.238-87.792 9.194-131.89 8.49l-5.254-.11M194.148 500.994h.056M336.596 491.833h0M340.003 491.443l-.445.057c-.74-.012-1.748.2-2.515.28l-.448.055M340.004 491.442l8.213-.503M339.948 491.442h.056M167.613 489.318l-3.91.224M160.52 481.777l-8.268.501M306.32 472.506l-5.31.784a836.891 836.891 0 0 1-116.079 8.601h-2.011M317.713 479.767l-5.306.781c-41.934 6.08-84.216 8.915-126.585 8.606l-2.624-.058M163.87 481.722l-.39-.056c-.89-.02-1.648.102-2.571.056l-.39.057M167.278 481.777l-3.408-.059M163.87 481.665v.055M306.264 472.504h.056M309.669 472.171h-.391a33.361 33.361 0 0 0-2.568.281l-.392.055M321.122 479.43h-.447c-.888.138-1.657.126-2.57.28l-.391.058M321.123 479.43l8.212-.556M309.67 472.17l8.212-.56M309.67 472.113v.056M141.58 469.71l-8.212.559M130.185 462.45l-8.212.559M287.382 460.442l-5.25.781c-31.474 4.568-63.292 7.301-95.079 8.268l-4.695.11M133.536 462.394h-.392c-.798.028-1.806-.06-2.567.058h-.393M144.989 469.655h-.447c-.764.032-1.796-.063-2.516.057h-.446M166.775 469.822h-11.284l-5.25-.055-5.253-.113M166.44 462.451h-1.34c-8.75.11-17.502.176-26.255.056l-5.308-.113M275.986 453.176l-5.305.784c-27.972 4.068-56.227 6.674-84.467 7.876l-4.19.168M130.128 462.45h.056M133.536 462.392h0M275.931 453.175h.055M279.394 452.843h-.448c-.885.133-1.656.123-2.57.281l-.39.052M290.79 460.104h-.45c-.893.171-1.646.136-2.51.278l-.448.057M290.79 460.103l8.212-.559M279.395 452.841l8.212-.559M279.338 452.841h.057M383.353 305.644l.056.056v.056l.11.224v.165l.058.112-.224 1.256M382.571 307.6l.056.056.056.053.112.058h.11l.115.056h.11l.166.056h.114M383.408 307.878l10.67-.728M379.498 300.334l3.856 5.308" style="fill:none;stroke:red;stroke-width:.666665;stroke-linecap:round;stroke-linejoin:round;stroke-miterlimit:10;stroke-dasharray:none;stroke-opacity:1;visibility:visible"/><path d="m380.674 300.168-1.177.167M390.335 299.664l-1.172-.056" style="fill:none;stroke:red;stroke-width:1.99999;stroke-linecap:round;stroke-linejoin:round;stroke-miterlimit:10;stroke-dasharray:none;stroke-opacity:1;visibility:visible"/><path d="M382.571 307.654v-.057M383.408 307.878h0" style="fill:none;stroke:red;stroke-width:.666665;stroke-linecap:round;stroke-linejoin:round;stroke-miterlimit:10;stroke-dasharray:none;stroke-opacity:1;visibility:visible"/><path d="M394.08 307.15v.057M394.08 307.15h.11l.113-.055h.112l.112-.113v-.055M390.727 299.834h-.056l-.055-.057-.112-.058-.056-.054h-.113M379.387 300.28l.056.055h.055M378.829 300.838v.057l.057.054M390.224 299.609h.056l.055.059" style="fill:none;stroke:red;stroke-width:1.99999;stroke-linecap:round;stroke-linejoin:round;stroke-miterlimit:10;stroke-dasharray:none;stroke-opacity:1;visibility:visible"/><path d="m196.885 317.655-1.175-.055c-2.934-.047-5.53.081-8.436.558l-1.228.168" style="fill:none;stroke:red;stroke-width:.666665;stroke-linecap:round;stroke-linejoin:round;stroke-miterlimit:10;stroke-dasharray:none;stroke-opacity:1;visibility:visible"/><path d="m196.886 317.653.055.056.056.112v.223l.054.112-.054.112v.277" style="fill:none;stroke:red;stroke-width:1.99999;stroke-linecap:round;stroke-linejoin:round;stroke-miterlimit:10;stroke-dasharray:none;stroke-opacity:1;visibility:visible"/><path d="M186.104 320.56h-.114a1.061 1.061 0 0 1-.668-.168l-.057-.057M185.685 321.053l.363-2.73M196.83 319.888l-10.725.67" style="fill:none;stroke:red;stroke-width:.666665;stroke-linecap:round;stroke-linejoin:round;stroke-miterlimit:10;stroke-dasharray:none;stroke-opacity:1;visibility:visible"/><path d="m196.997 318.546-.167 1.343M181.578 313.687l.058-.11c.004-.228.266-.363.444-.448l.113-.054" style="fill:none;stroke:red;stroke-width:1.99999;stroke-linecap:round;stroke-linejoin:round;stroke-miterlimit:10;stroke-dasharray:none;stroke-opacity:1;visibility:visible"/><path d="m186.048 318.325-3.856-5.251 1.228-.167c2.9-.485 5.506-.604 8.436-.557l1.174.053 3.856 5.251M185.265 320.334h.057M185.265 320.334l-3.856-5.25.17-1.397M186.104 320.558v.059" style="fill:none;stroke:red;stroke-width:.666665;stroke-linecap:round;stroke-linejoin:round;stroke-miterlimit:10;stroke-dasharray:none;stroke-opacity:1;visibility:visible"/><path d="M196.83 319.888v.056h-.057M181.41 315.083h0M196.886 317.653h.11l.223.112.056.056M193.422 312.568l-.112-.056-.057-.053-.111-.058h-.11M182.082 313.016h.057l.054.057M181.578 313.687v-.112M192.92 312.291l.055.056.056.055M181.41 315.083v-.056l-.055-.112" style="fill:none;stroke:red;stroke-width:1.99999;stroke-linecap:round;stroke-linejoin:round;stroke-miterlimit:10;stroke-dasharray:none;stroke-opacity:1;visibility:visible"/><path d="m97.45 382.116 57.707 36.033M105.16 407.088l-13.352.84M93.426 454.572l-1.617-46.644" style="fill:none;stroke:red;stroke-width:.666665;stroke-linecap:round;stroke-linejoin:round;stroke-miterlimit:10;stroke-dasharray:none;stroke-opacity:1;visibility:visible"/><path d="m89.573 451.276-1.62-46.645" style="fill:none;stroke:red;stroke-width:1.99999;stroke-linecap:round;stroke-linejoin:round;stroke-miterlimit:10;stroke-dasharray:none;stroke-opacity:1;visibility:visible"/><path d="m106.723 453.735-13.297.839M106.78 455.858l-13.355.837M93.426 456.696l-4.804 189.209" style="fill:none;stroke:red;stroke-width:.666665;stroke-linecap:round;stroke-linejoin:round;stroke-miterlimit:10;stroke-dasharray:none;stroke-opacity:1;visibility:visible"/><path d="m89.462 455.018-.28 11.172" style="fill:none;stroke:red;stroke-width:1.99999;stroke-linecap:round;stroke-linejoin:round;stroke-miterlimit:10;stroke-dasharray:none;stroke-opacity:1;visibility:visible"/><path d="m89.181 467.197-.223 8.38M385.196 402.007h.168c1.859.696 2.37 8.007.503 8.77h-.113M388.492 410.496h.114l.164-.109c.376-.756.466-2.124.451-2.963v-.669l.056-.725c-.07-.91-.017-3.462-.951-4.022l-.28-.112-.112.055M383.186 404.741l3.352-.223M382.628 404.519l.11.112v.113l.057.111.057.167v.448M382.852 405.471h-.168v-.056h-.113v-.113c.016-.278-.015-.244-.11-.5v-.056h-.056M382.628 404.519h-.112l-.11.112v.113" style="fill:none;stroke:red;stroke-width:.666665;stroke-linecap:round;stroke-linejoin:round;stroke-miterlimit:10;stroke-dasharray:none;stroke-opacity:1;visibility:visible"/><path d="m382.852 405.47-.112 3.408h-.113l-.056-.056h-.111l.11-3.408M382.405 404.744l-.392-.28" style="fill:none;stroke:red;stroke-width:.666665;stroke-linecap:round;stroke-linejoin:round;stroke-miterlimit:10;stroke-dasharray:none;stroke-opacity:1;visibility:visible"/><path d="M382.237 409.211h.11l.058-.056v-.053l.055-.114v-.169M381.455 408.654l.781.559M382.07 404.072l.557.447M382.07 403.793l2.904-.28M382.74 408.877v.112l-.056.167v.11l-.112.114-.057.054M382.237 409.211v.055l.057.056v.058M390.393 405.413v-.335l-.059-.169v-.11l-.054-.169-.056-.112-.055-.054-.057-.056M390.393 404.884l-1.061.055M390.28 407.929l.11-2.516M390.113 404.408h.057M390.393 405.413h.056v-.056M390.113 404.408l-.95-.67M390.058 408.598l.056-.059h.055v-.054l.11-.223v-.333h.112M389.163 403.736h.11M408.267 402.231l.223.055.224.113.336.447.112.444c.5 2.078.421 3.476-.056 5.531l-.28.728v.055l-.112.224-.447.335-.224.057-13.073 1.004h-.166l-.221-.11-.116-.168-.053-.224-.055-.39c-.09-1.901-.03-3.637.108-5.532l.116-.78v-.058l.056-.28.165-.223.166-.109.225-.115 13.072-1.004M393.52 403.85l.056-.279.11-.168.169-.222.334-.336.226-.111.225-.057.221-.056M394.972 402.675l-.11-.056M394.862 402.619h-.056M393.52 403.85v-.056M393.353 410.44h0M394.862 402.619l13.015-1.004" style="fill:none;stroke:red;stroke-width:.666665;stroke-linecap:round;stroke-linejoin:round;stroke-miterlimit:10;stroke-dasharray:none;stroke-opacity:1;visibility:visible"/><path d="m407.99 401.67-.112-.055" style="fill:none;stroke:red;stroke-width:1.99999;stroke-linecap:round;stroke-linejoin:round;stroke-miterlimit:10;stroke-dasharray:none;stroke-opacity:1;visibility:visible"/><path d="M394.807 411.502h.107v-.056l.057-.055v-.168M393.463 410.832l-.055-.168-.056-.224" style="fill:none;stroke:red;stroke-width:.666665;stroke-linecap:round;stroke-linejoin:round;stroke-miterlimit:10;stroke-dasharray:none;stroke-opacity:1;visibility:visible"/><path d="m407.877 410.495.112-.11v-.057l.055-.056v-.056M409.218 409.49l-.055.057h-.336M408.716 401.838l-.112-.056-.221-.055-.392-.056" style="fill:none;stroke:red;stroke-width:1.99999;stroke-linecap:round;stroke-linejoin:round;stroke-miterlimit:10;stroke-dasharray:none;stroke-opacity:1;visibility:visible"/><path d="m154.989 419.491-.057.45c-.148 1.839-.252 3.682-.168 5.524l.056.731M155.657 418.766l-.223.056-.224.167-.11.224-.11.278M168.954 417.926l-13.297.839" style="fill:none;stroke:red;stroke-width:.666665;stroke-linecap:round;stroke-linejoin:round;stroke-miterlimit:10;stroke-dasharray:none;stroke-opacity:1;visibility:visible"/><path d="m153.982 426.026-.167-.11" style="fill:none;stroke:red;stroke-width:1.99999;stroke-linecap:round;stroke-linejoin:round;stroke-miterlimit:10;stroke-dasharray:none;stroke-opacity:1;visibility:visible"/><path d="m155.435 418.205-.11-.056M155.324 418.15h0M153.982 419.32h0" style="fill:none;stroke:red;stroke-width:.666665;stroke-linecap:round;stroke-linejoin:round;stroke-miterlimit:10;stroke-dasharray:none;stroke-opacity:1;visibility:visible"/><path d="M153.815 425.916h0" style="fill:none;stroke:red;stroke-width:1.99999;stroke-linecap:round;stroke-linejoin:round;stroke-miterlimit:10;stroke-dasharray:none;stroke-opacity:1;visibility:visible"/><path d="m168.787 417.369-.113-.112" style="fill:none;stroke:red;stroke-width:.666665;stroke-linecap:round;stroke-linejoin:round;stroke-miterlimit:10;stroke-dasharray:none;stroke-opacity:1;visibility:visible"/><path d="M154.486 426.808h-.057l-.111-.167-.168-.112-.113-.446-.054-.056M153.815 425.916l.057.223.054.054" style="fill:none;stroke:red;stroke-width:1.99999;stroke-linecap:round;stroke-linejoin:round;stroke-miterlimit:10;stroke-dasharray:none;stroke-opacity:1;visibility:visible"/><path d="M168.787 417.369h.39l.335.167M87.058 645.735l.167.057c.377.11.777.123 1.173.11h.28v.112l.056.059v.11h-.226c-.44.009-1.038.002-1.45-.168l-.166-.056" style="fill:none;stroke:red;stroke-width:.666665;stroke-linecap:round;stroke-linejoin:round;stroke-miterlimit:10;stroke-dasharray:none;stroke-opacity:1;visibility:visible"/><path d="m87.06 645.734-.167.167v.057M88.68 647.41l.056-1.228" style="fill:none;stroke:red;stroke-width:.666665;stroke-linecap:round;stroke-linejoin:round;stroke-miterlimit:10;stroke-dasharray:none;stroke-opacity:1;visibility:visible"/><path d="m84.712 644.228.112.168c.481.574 1.185.86 1.844 1.17l.392.171M88.624 645.903l13.348-.895M101.973 645.009v.11h.057v.17l-13.294.893M86.892 645.96l-.392-.11c-.947-.438-1.202-.46-1.9-1.23l-.11-.167" style="fill:none;stroke:red;stroke-width:.666665;stroke-linecap:round;stroke-linejoin:round;stroke-miterlimit:10;stroke-dasharray:none;stroke-opacity:1;visibility:visible"/><path d="M96.248 580.165v.17l.055.111M96.248 580.165v-1.281M96.47 578.66h-.168v.056l-.055.053v.115M102.979 644.841l-.055-.057-.056-.055h-.056M96.248 578.884l-.057-.057M96.248 580.11v.055" style="fill:none;stroke:red;stroke-width:1.99999;stroke-linecap:round;stroke-linejoin:round;stroke-miterlimit:10;stroke-dasharray:none;stroke-opacity:1;visibility:visible"/><path d="m297.102 632.219.167.056c.404.12.811.12 1.229.109h.221v.056l.058.06v.164h-.223c-.6.035-.901-.057-1.452-.112l-.168-.053" style="fill:none;stroke:red;stroke-width:.666665;stroke-linecap:round;stroke-linejoin:round;stroke-miterlimit:10;stroke-dasharray:none;stroke-opacity:1;visibility:visible"/><path d="M297.103 632.217v.056h-.11v.055l-.058.054v.115M296.934 633.781v-1.285" style="fill:none;stroke:red;stroke-width:.666665;stroke-linecap:round;stroke-linejoin:round;stroke-miterlimit:10;stroke-dasharray:none;stroke-opacity:1;visibility:visible"/><path d="m294.42 630.708.166.224c.565.57 1.345.86 2.068 1.177l.448.111M298.666 632.383l13.072-1.004M311.737 631.377h.057v.167l.054.056-13.071 1.064M296.933 632.497l-.448-.167c-.606-.274-1.686-.67-2.122-1.174l-.168-.168" style="fill:none;stroke:red;stroke-width:.666665;stroke-linecap:round;stroke-linejoin:round;stroke-miterlimit:10;stroke-dasharray:none;stroke-opacity:1;visibility:visible"/><path d="M294.196 632.272v.168l.056.11v.055M294.196 632.272v-1.284M294.42 630.763h-.167v.056h-.057v.168M312.688 631.099h-.056l-.055-.057h-.057" style="fill:none;stroke:red;stroke-width:1.99999;stroke-linecap:round;stroke-linejoin:round;stroke-miterlimit:10;stroke-dasharray:none;stroke-opacity:1;visibility:visible"/><path d="M312.744 631.324v.053l-.11.111h-.114l-.168.056-.165.056h-.338" style="fill:none;stroke:red;stroke-width:.666665;stroke-linecap:round;stroke-linejoin:round;stroke-miterlimit:10;stroke-dasharray:none;stroke-opacity:1;visibility:visible"/><path d="m294.196 630.987-.056-.056v-.053M294.196 632.16v.11" style="fill:none;stroke:red;stroke-width:1.99999;stroke-linecap:round;stroke-linejoin:round;stroke-miterlimit:10;stroke-dasharray:none;stroke-opacity:1;visibility:visible"/><path d="m382.907 397.034 10.001 5.613M391.899 408.654h-.056M302.243 440.716l8.77-33.125" style="fill:none;stroke:red;stroke-width:.666665;stroke-linecap:round;stroke-linejoin:round;stroke-miterlimit:10;stroke-dasharray:none;stroke-opacity:1;visibility:visible"/><path d="m299.616 437.813 7.933-29.941" style="fill:none;stroke:red;stroke-width:1.99999;stroke-linecap:round;stroke-linejoin:round;stroke-miterlimit:10;stroke-dasharray:none;stroke-opacity:1;visibility:visible"/><path d="m303.806 441.052 13.073-1.004M303.526 443.23l13.017-1.06M301.905 443.065l-.333 13.407M299.95 520.098l-2.848 112.12" style="fill:none;stroke:red;stroke-width:.666665;stroke-linecap:round;stroke-linejoin:round;stroke-miterlimit:10;stroke-dasharray:none;stroke-opacity:1;visibility:visible"/><path d="m299.226 441.556-.224 7.54M297.213 520.378l-2.792 110.385" style="fill:none;stroke:red;stroke-width:1.99999;stroke-linecap:round;stroke-linejoin:round;stroke-miterlimit:10;stroke-dasharray:none;stroke-opacity:1;visibility:visible"/><path d="M124.32 485.41v.059c.61.703 4.398.853 5.026.109v-.058M189.735 500.378l-5.979.392M193.086 500.323h-.392c-.798.03-1.808-.06-2.57.056h-.39M185.265 495.353h-1.79M327.715 486.135l-5.31.784c-43.547 6.285-87.835 9.223-131.835 8.49l-5.305-.056M335.535 491.108l-5.31.783c-43.645 6.348-87.789 9.137-131.889 8.547l-5.249-.114M327.66 486.134h.057M331.122 485.8h-.448c-.887.136-1.656.124-2.568.28l-.39.056M338.887 490.775h-.392c-.897.135-1.643.112-2.57.279l-.389.054M338.888 490.774l8.265-.56M331.122 485.798l8.212-.559M331.066 485.798h.057M159.401 481.05l-8.212.559M151.58 476.078l-8.212.559M305.203 471.834l-5.253.784c-38.46 5.469-77.285 8.465-116.137 8.545h-.95M154.989 476.024h-.45c-.757.032-1.793-.064-2.512.056h-.447M162.809 480.996h-.45a29.737 29.737 0 0 0-2.51.056h-.449M167.278 481.106l-4.468-.11M297.38 466.864l-5.25.727a827.046 827.046 0 0 1-105.581 8.49l-3.91.058M167.055 476.192h-1.564l-5.253-.056-5.248-.112M151.525 476.078h.056M154.932 476.022h.057M297.325 466.806h.056v.056M308.162 471.5c-.755-.014-1.737.198-2.513.28l-.446.055M308.61 471.443l-.447.057M300.789 466.472l-.45.056a29.923 29.923 0 0 0-2.509.226l-.448.11M308.61 471.443l8.215-.503M300.79 466.47l8.212-.501M300.733 466.47h.057M150.52 475.408l-8.268.503M142.698 470.436l-8.212.501" style="fill:none;stroke:red;stroke-width:.666665;stroke-linecap:round;stroke-linejoin:round;stroke-miterlimit:10;stroke-dasharray:none;stroke-opacity:1;visibility:visible"/><path d="m296.32 466.135-5.31.784a842.638 842.638 0 0 1-105.577 8.49l-2.796.056M153.87 475.355l-.39-.057c-.898-.023-1.647.102-2.572.057l-.39.055M166.999 475.518l-2.625-.055-5.251-.056-5.25-.054M288.5 461.166l-5.31.781c-33.28 4.767-66.659 7.579-100.272 8.379h-.502M166.775 470.55h-4.916l-5.307-.056M146.05 470.324h0M288.444 461.164h.057M291.85 460.775l-.39.056a33.844 33.844 0 0 0-2.568.28l-.391.056M299.671 465.802h-.39a32.597 32.597 0 0 0-2.571.278l-.39.055M299.672 465.801l8.21-.56M291.85 460.772h0M291.85 460.772l8.268-.501M184.316 495.184h-.84M184.204 494.625h-.727M318.777 480.495l-5.252.781c-41.966 5.987-84.25 8.947-126.639 8.548l-3.632-.056M326.597 485.467l-5.251.781c-43.657 6.223-87.793 9.19-131.89 8.49l-5.254-.11M318.778 480.435v.057M322.186 480.102l-.392.054c-.772-.026-1.775.21-2.57.28l-.445.058M330.006 485.075l-.447.055c-.739-.01-1.746.202-2.516.28l-.445.057M330.006 485.073l8.212-.501M322.186 480.1l8.212-.503M322.129 480.1h.057M184.038 507.473l17.484-1.116" style="fill:none;stroke:red;stroke-width:.666665;stroke-linecap:round;stroke-linejoin:round;stroke-miterlimit:10;stroke-dasharray:none;stroke-opacity:1;visibility:visible"/><path d="m351.455 513.396 18.267-1.173M204.314 523.004l5.363.11a832.73 832.73 0 0 0 134.349-8.654l5.361-.838M349.387 513.62l.224-.056c.521-.03 1.045-.088 1.564-.166h.279M202.247 523.003h2.068M184.763 524.179l17.484-1.175" style="fill:none;stroke:red;stroke-width:1.99999;stroke-linecap:round;stroke-linejoin:round;stroke-miterlimit:10;stroke-dasharray:none;stroke-opacity:1;visibility:visible"/><path d="M201.522 506.359h.39c.771-.119 1.767-.029 2.571-.056h.389l5.308.113c44.106.688 88.313-2.05 131.947-8.55l5.25-.781.392-.055c.895-.16 1.651-.143 2.514-.28h.447l18.268-1.173" style="fill:none;stroke:red;stroke-width:.666665;stroke-linecap:round;stroke-linejoin:round;stroke-miterlimit:10;stroke-dasharray:none;stroke-opacity:1;visibility:visible"/><path d="M202.247 523.003v.281l-.057.056v.058l-.055.053M204.315 523.003v.17l-.056.054v.057l-.055.056v.058h-.057M349.276 514.064l.057-.052v-.056l.055-.112v-.225" style="fill:none;stroke:red;stroke-width:1.99999;stroke-linecap:round;stroke-linejoin:round;stroke-miterlimit:10;stroke-dasharray:none;stroke-opacity:1;visibility:visible"/><path d="M344.976 496.413h.056" style="fill:none;stroke:red;stroke-width:.666665;stroke-linecap:round;stroke-linejoin:round;stroke-miterlimit:10;stroke-dasharray:none;stroke-opacity:1;visibility:visible"/><path d="M351.455 513.396v.11l-.055.057v.222h-.054v.059h-.056" style="fill:none;stroke:red;stroke-width:1.99999;stroke-linecap:round;stroke-linejoin:round;stroke-miterlimit:10;stroke-dasharray:none;stroke-opacity:1;visibility:visible"/><path d="M348.327 496.077h.056M348.327 496.077l18.324-1.228M114.767 463.399l53.18 33.855" style="fill:none;stroke:red;stroke-width:.666665;stroke-linecap:round;stroke-linejoin:round;stroke-miterlimit:10;stroke-dasharray:none;stroke-opacity:1;visibility:visible"/><path d="m114.487 475.632 54.02 34.412" style="fill:none;stroke:red;stroke-width:1.99999;stroke-linecap:round;stroke-linejoin:round;stroke-miterlimit:10;stroke-dasharray:none;stroke-opacity:1;visibility:visible"/><path d="m120.743 462.56 46.981 29.943M287.829 452.002l68.318 43.519M293.582 451.443l68.656 43.685M107.392 462.895l22.233-1.452" style="fill:none;stroke:red;stroke-width:.666665;stroke-linecap:round;stroke-linejoin:round;stroke-miterlimit:10;stroke-dasharray:none;stroke-opacity:1;visibility:visible"/><path d="m107.003 479.71 12.233-.837M107.448 461.388l20-1.341M127.392 460.046h.056M127.446 460.047h.45c.89-.05 1.613-.07 2.509-.056h.45" style="fill:none;stroke:red;stroke-width:1.99999;stroke-linecap:round;stroke-linejoin:round;stroke-miterlimit:10;stroke-dasharray:none;stroke-opacity:1;visibility:visible"/><path d="m181.968 460.998 3.742-.168c28.233-1.106 56.492-3.874 84.467-7.822l8.657-1.172M129.626 461.444l8.66.058c8.748.126 17.564.137 26.312-.058h1.786" style="fill:none;stroke:red;stroke-width:.666665;stroke-linecap:round;stroke-linejoin:round;stroke-miterlimit:10;stroke-dasharray:none;stroke-opacity:1;visibility:visible"/><path d="m130.857 459.99 5.248.113a801.431 801.431 0 0 0 26.313 0l3.91-.113M130.799 459.988h.057M273.247 450.83h-.053M273.246 450.831l.45-.056c.768-.081 1.772-.29 2.512-.281l.447-.054" style="fill:none;stroke:red;stroke-width:1.99999;stroke-linecap:round;stroke-linejoin:round;stroke-miterlimit:10;stroke-dasharray:none;stroke-opacity:1;visibility:visible"/><path d="m278.835 451.835 22.288-1.452" style="fill:none;stroke:red;stroke-width:.666665;stroke-linecap:round;stroke-linejoin:round;stroke-miterlimit:10;stroke-dasharray:none;stroke-opacity:1;visibility:visible"/><path d="m276.657 450.44 22.288-1.452M276.6 450.44h.056" style="fill:none;stroke:red;stroke-width:1.99999;stroke-linecap:round;stroke-linejoin:round;stroke-miterlimit:10;stroke-dasharray:none;stroke-opacity:1;visibility:visible"/><path d="m179.846 681.49.058.053c.48.035.348-.059.668-.054h.113M180.014 681.264l-.057.056h-.054v.056h-.056v.112M180.573 681.264h.056v.056l.056.056v.112M179.847 681.488l.167 2.79M180.685 681.488l10.67-.672M181.746 682.156v1.176l8.657-.559-.054-1.173-8.603.556" style="fill:none;stroke:red;stroke-width:.666665;stroke-linecap:round;stroke-linejoin:round;stroke-miterlimit:10;stroke-dasharray:none;stroke-opacity:1;visibility:visible"/><path d="m182.193 682.772-.11-.165-.058-.17-.057-.112-.111-.112" style="fill:none;stroke:red;stroke-width:.666665;stroke-linecap:round;stroke-linejoin:round;stroke-miterlimit:10;stroke-dasharray:none;stroke-opacity:1;visibility:visible"/><path d="M181.969 682.825h.112v-.056h.112M181.803 682.267h.055v-.056" style="fill:none;stroke:red;stroke-width:.666665;stroke-linecap:round;stroke-linejoin:round;stroke-miterlimit:10;stroke-dasharray:none;stroke-opacity:1;visibility:visible"/><path d="m181.803 682.267.11.225v.17l.057.166M181.857 682.213l8.383-.56M182.193 682.884v-.11" style="fill:none;stroke:red;stroke-width:.666665;stroke-linecap:round;stroke-linejoin:round;stroke-miterlimit:10;stroke-dasharray:none;stroke-opacity:1;visibility:visible"/><path d="M181.969 682.825h.112v.059h.112M181.857 683.107v.11l-.11.114M181.746 682.156v.056l.057.055M181.969 682.825l-.056.112v.113l-.056.056M181.969 683.217l.17-.167.054-.11M181.857 683.107v.057h.057l.054.054" style="fill:none;stroke:red;stroke-width:.666665;stroke-linecap:round;stroke-linejoin:round;stroke-miterlimit:10;stroke-dasharray:none;stroke-opacity:1;visibility:visible"/><path d="M181.969 682.825v.059h.112v.053h.112v-.053M175.824 681.096l4.023.39" style="fill:none;stroke:red;stroke-width:.666665;stroke-linecap:round;stroke-linejoin:round;stroke-miterlimit:10;stroke-dasharray:none;stroke-opacity:1;visibility:visible"/><path d="M175.991 680.872h-.11l-.057.056v.168" style="fill:none;stroke:red;stroke-width:1.99999;stroke-linecap:round;stroke-linejoin:round;stroke-miterlimit:10;stroke-dasharray:none;stroke-opacity:1;visibility:visible"/><path d="m190.068 682.435.057.115v.057l.056.11-8.212.502M190.125 682.324v.11h-.057" style="fill:none;stroke:red;stroke-width:.666665;stroke-linecap:round;stroke-linejoin:round;stroke-miterlimit:10;stroke-dasharray:none;stroke-opacity:1;visibility:visible"/><path d="M190.068 682.267h.057v.057M181.857 682.213h-.055v-.057h-.056M190.349 681.6h-.057v.055h-.054M181.746 683.33l.11-.056h.057l.056-.057M190.182 682.716h.056l.11.057h.055" style="fill:none;stroke:red;stroke-width:.666665;stroke-linecap:round;stroke-linejoin:round;stroke-miterlimit:10;stroke-dasharray:none;stroke-opacity:1;visibility:visible"/><path d="m176.273 683.217-.112-.055-.17-.334v-.112" style="fill:none;stroke:red;stroke-width:1.99999;stroke-linecap:round;stroke-linejoin:round;stroke-miterlimit:10;stroke-dasharray:none;stroke-opacity:1;visibility:visible"/><path d="M190.293 681.767v-.057h-.055v-.055M190.238 682.324v.059h-.056l-.057.052h-.058M190.238 682.324h-.113M190.238 682.324v-.057h-.17" style="fill:none;stroke:red;stroke-width:.666665;stroke-linecap:round;stroke-linejoin:round;stroke-miterlimit:10;stroke-dasharray:none;stroke-opacity:1;visibility:visible"/><path d="M190.238 682.324v-.336l.055-.165v-.056M190.293 682.607l-.055.055-.056.054M190.293 682.607v-.113l-.055-.056v-.112M190.293 681.767v-.057l.057-.055v-.055" style="fill:none;stroke:red;stroke-width:.666665;stroke-linecap:round;stroke-linejoin:round;stroke-miterlimit:10;stroke-dasharray:none;stroke-opacity:1;visibility:visible"/><path d="m190.403 682.772-.055-.056v-.055l-.056-.054" style="fill:none;stroke:red;stroke-width:.666665;stroke-linecap:round;stroke-linejoin:round;stroke-miterlimit:10;stroke-dasharray:none;stroke-opacity:1;visibility:visible"/><path d="M191.353 680.818h.224l.056-.057h.17M175.88 682.492h.057M175.77 681.096h.055" style="fill:none;stroke:red;stroke-width:1.99999;stroke-linecap:round;stroke-linejoin:round;stroke-miterlimit:10;stroke-dasharray:none;stroke-opacity:1;visibility:visible"/><path d="m170.183 455.13 9.832 226.134" style="fill:none;stroke:red;stroke-width:.666665;stroke-linecap:round;stroke-linejoin:round;stroke-miterlimit:10;stroke-dasharray:none;stroke-opacity:1;visibility:visible"/><path d="m166.998 431.112-.168 1.228c-.81 6.984-.945 13.982-.782 21.007l.057 1.395M181.578 315.306 168.73 417.2M167.613 426.248l-.615 4.863" style="fill:none;stroke:red;stroke-width:1.99999;stroke-linecap:round;stroke-linejoin:round;stroke-miterlimit:10;stroke-dasharray:none;stroke-opacity:1;visibility:visible"/><path d="m185.488 320.503-14.635 115.861-.113 1.116c-.662 5.447-.788 10.943-.615 16.424l.057 1.228" style="fill:none;stroke:red;stroke-width:.666665;stroke-linecap:round;stroke-linejoin:round;stroke-miterlimit:10;stroke-dasharray:none;stroke-opacity:1;visibility:visible"/><path d="m196.717 319.943-14.635 115.916M166.942 430.999v.055l.056.056M181.41 454.46l9.89 226.134M166.105 454.74h0" style="fill:none;stroke:red;stroke-width:1.99999;stroke-linecap:round;stroke-linejoin:round;stroke-miterlimit:10;stroke-dasharray:none;stroke-opacity:1;visibility:visible"/><path d="m171.3 423.456-.056.057M169.793 417.369l.668-.056" style="fill:none;stroke:red;stroke-width:.666665;stroke-linecap:round;stroke-linejoin:round;stroke-miterlimit:10;stroke-dasharray:none;stroke-opacity:1;visibility:visible"/><path d="m182.08 435.86-.11 1.062c-.624 5.416-.766 10.868-.614 16.312l.054 1.228M362.686 401.838l.055-.056h.056v-.112l.056-.112M362.852 401.562l.5-.058c1.14-.109 2.275-.232 3.41-.333h.557M367.32 401.168l2.124-.168M367.21 401.391v-.056h.057v-.056l.054-.056v-.055M195.655 315.196h-.332M195.655 315.196l-.055-.057h-.056" style="fill:none;stroke:red;stroke-width:1.99999;stroke-linecap:round;stroke-linejoin:round;stroke-miterlimit:10;stroke-dasharray:none;stroke-opacity:1;visibility:visible"/><path d="M377.88 668.529h.055v.167l.056.054h-.168l-.111.056h-.613v-.056l.053-.054v-.058l.057-.053.056-.056h.055M377.99 668.749l.168 2.739M388.55 667.857h.057v.11l.054.057v.054l-10.67.672M379.053 670.594l-.057-1.172M387.656 670.034l-8.603.561M387.656 668.86v1.173M378.997 669.422l8.659-.561M379.278 670.091l-.112-.333-.056-.116v-.11h.056v-.054l.056.112.11.11.111.335" style="fill:none;stroke:red;stroke-width:.666665;stroke-linecap:round;stroke-linejoin:round;stroke-miterlimit:10;stroke-dasharray:none;stroke-opacity:1;visibility:visible"/><path d="M379.278 670.091h.11v-.056h.055M387.376 669.531v-.167l.057-.166v-.17l.054-.053M387.489 668.975l-8.325.503M379.444 670.034v.112M379.278 670.091v.056h.165M379.164 670.37v-.057l.113-.223M379.053 670.594l.057-.057v-.054l.054-.113M379.11 669.588l-.057-.056v-.055l-.056-.056" style="fill:none;stroke:red;stroke-width:.666665;stroke-linecap:round;stroke-linejoin:round;stroke-miterlimit:10;stroke-dasharray:none;stroke-opacity:1;visibility:visible"/><path d="M379.278 670.091v.056h.055v.057h.11l-.11.22-.055.058M379.164 670.37v.055h.057v.056h.056M379.444 670.147v.059M377.098 668.806l-4.021-.447v-.056l.054-.057v-.055h.056v-.054h.055" style="fill:none;stroke:red;stroke-width:.666665;stroke-linecap:round;stroke-linejoin:round;stroke-miterlimit:10;stroke-dasharray:none;stroke-opacity:1;visibility:visible"/><path d="M373.185 669.756v.056l.057.053v.114h.055M373.077 668.36l.108 1.397" style="fill:none;stroke:red;stroke-width:1.99999;stroke-linecap:round;stroke-linejoin:round;stroke-miterlimit:10;stroke-dasharray:none;stroke-opacity:1;visibility:visible"/><path d="m387.489 669.98-.056-.056-.055-.112v-.11M379.278 670.482l8.212-.503M387.376 669.642v-.11M387.376 669.7v-.059M378.997 669.42h.056l.057.056h.054M387.489 668.975l.056-.057h.055l.056-.056M379.278 670.482l-.112.056-.055.056h-.058M387.656 670.034h-.056l-.056-.055h-.055" style="fill:none;stroke:red;stroke-width:.666665;stroke-linecap:round;stroke-linejoin:round;stroke-miterlimit:10;stroke-dasharray:none;stroke-opacity:1;visibility:visible"/><path d="M373.3 669.98v.11l.168.335.11.056" style="fill:none;stroke:red;stroke-width:1.99999;stroke-linecap:round;stroke-linejoin:round;stroke-miterlimit:10;stroke-dasharray:none;stroke-opacity:1;visibility:visible"/><path d="M387.6 669.029h-.057v-.055h-.055M387.6 669.029l-.057.112v.448h-.055v-.057h-.112" style="fill:none;stroke:red;stroke-width:.666665;stroke-linecap:round;stroke-linejoin:round;stroke-miterlimit:10;stroke-dasharray:none;stroke-opacity:1;visibility:visible"/><path d="M387.543 669.588v.168l.057.11h-.057v.057h-.057v.056M387.543 669.588l-.057.055-.054.056h-.056M387.543 669.588h-.11l-.057.055M387.656 668.86l-.056.057v.111M387.6 669.866v.057l.057.056v.055" style="fill:none;stroke:red;stroke-width:.666665;stroke-linecap:round;stroke-linejoin:round;stroke-miterlimit:10;stroke-dasharray:none;stroke-opacity:1;visibility:visible"/><path d="M389.053 668.022h-.057l-.055.056h-.28M373.185 669.756h0M373.077 668.36h-.057M363.411 442.002l2.292 52.903M366.484 512.836l6.757 155.3M364.248 418.375l-.11 1.228c-.828 6.87-1.042 14.095-.784 21.005l.056 1.396" style="fill:none;stroke:red;stroke-width:1.99999;stroke-linecap:round;stroke-linejoin:round;stroke-miterlimit:10;stroke-dasharray:none;stroke-opacity:1;visibility:visible"/><path d="m383.298 307.878-14.58 115.914h-.113M364.25 418.373v-.056M368.048 442.395l9.832 226.134" style="fill:none;stroke:red;stroke-width:.666665;stroke-linecap:round;stroke-linejoin:round;stroke-miterlimit:10;stroke-dasharray:none;stroke-opacity:1;visibility:visible"/><path d="M363.354 442.002h.057" style="fill:none;stroke:red;stroke-width:1.99999;stroke-linecap:round;stroke-linejoin:round;stroke-miterlimit:10;stroke-dasharray:none;stroke-opacity:1;visibility:visible"/><path d="m368.94 402.117.28-.057M368.72 423.792l-.17 1.12c-.54 5.39-.806 10.841-.56 16.254l.058 1.231M348.217 490.938h0M152.14 482.501v-.165h.055v-.058h.056M317.882 471.61h0M121.806 463.173v-.055l.056-.056v-.056h.053v-.056l.058.056M89.181 466.139v.223l-.055.224v.278c.098.547.027 1.22.39 1.79l.057.109.11.112c.457.353.497-.132.674-.336l.052-.168v-.165l.056-.226v-.224c.007-.82.043-1.086-.221-1.896l-.056-.171-.112-.164-.056-.114-.168-.168h-.224l-.055.057-.112.054-.111.226-.113.335-.056.224" style="fill:none;stroke:red;stroke-width:.666665;stroke-linecap:round;stroke-linejoin:round;stroke-miterlimit:10;stroke-dasharray:none;stroke-opacity:1;visibility:visible"/><path d="m89.684 465.075.166-.167c.718-.116.974 1.444 1.007 1.9v.282l.055.22v.281l-.055.28v.221l-.167.671-.057.168-.056.112-.17.168-.109.056h-.168l-.112-.056-.056-.056" style="fill:none;stroke:red;stroke-width:.666665;stroke-linecap:round;stroke-linejoin:round;stroke-miterlimit:10;stroke-dasharray:none;stroke-opacity:1;visibility:visible"/><path d="m89.35 467.088.054.166c-.054.608.186.529.169.836l.055.114.112.112.112.054h.112l.054-.054h.058v-.112l.054-.057c.146-.26.07-.65.168-.836l-.054-.17v-.166c-.014-.296-.06-.583-.226-.839l-.054-.11-.167-.168h-.17l-.053.056-.058.112v.054l-.11.227v.277l-.058.168v.336M90.02 466.024h-.503M89.627 468.203h.45M90.13 468.146l-.503.06" style="fill:none;stroke:red;stroke-width:.666665;stroke-linecap:round;stroke-linejoin:round;stroke-miterlimit:10;stroke-dasharray:none;stroke-opacity:1;visibility:visible"/><path d="m89.35 467.087.335.445.056.279v.168l-.056.167-.056.057M90.244 467.029l-.895.057M89.516 466.024h.056l.055.167v.445l-.055.17-.11.113-.113.169M90.186 477.534l.058-.226v-.948l-.058-.28v-.222l-.11-.448-.114-.168-.112-.334-.11-.112-.056-.113-.112-.056h-.168l-.11.056-.114.225-.11.112-.059.166-.054.224v.166l-.056.227c-.011.59.013 1.34.225 1.897l.054.226.114.168c.194.394.567.466.724 0l.112-.335.056-.225" style="fill:none;stroke:red;stroke-width:.666665;stroke-linecap:round;stroke-linejoin:round;stroke-miterlimit:10;stroke-dasharray:none;stroke-opacity:1;visibility:visible"/><path d="m90.578 477.702-.056.222c-.092.299-.276 1.01-.725.727l-.112-.112M90.02 476.583v-.165c.013-.21-.1-.659-.223-.842l-.056-.108-.056-.113-.057-.057h-.055l-.056-.056h-.055l-.057.056h-.055l-.056.112v.058c-.136.207-.19.594-.166.836v.336c.112.274.052.586.221.836l.056.115.168.167.055.054.057-.054h.056l.11-.114.059-.053c.056-.425.143-.212.11-.837v-.171" style="fill:none;stroke:red;stroke-width:.666665;stroke-linecap:round;stroke-linejoin:round;stroke-miterlimit:10;stroke-dasharray:none;stroke-opacity:1;visibility:visible"/><path d="m89.461 474.46.11-.112.114-.054h.111l.112.054.278.279.056.17.111.165.057.225c.254.915.235 1.072.223 2.01v.281l-.056.225M89.74 475.408h-.447M89.406 477.589h.447v.055M89.909 477.531l-.503.057M89.126 476.471l.168.167.11.222.057.278v.226l-.056.166v.058M90.02 476.413l-.892.059M169.848 520.268l-.056.167v.28l-.055.222c.08.776.03 1.153.335 1.848l.054.109.11.169.059.054.113.111h.166l.112-.054.168-.169.054-.111.11-.334v-.225l.058-.225c.008-.637.014-1.28-.168-1.898l-.054-.167-.114-.165-.054-.17-.17-.166-.107-.057h-.172l-.11.057-.056.058-.057.108-.11.169-.055.166v.223M89.293 475.41l.055.11c.158.383-.01.6-.223.898v.054" style="fill:none;stroke:red;stroke-width:.666665;stroke-linecap:round;stroke-linejoin:round;stroke-miterlimit:10;stroke-dasharray:none;stroke-opacity:1;visibility:visible"/><path d="m170.294 519.315.056-.055.11-.056.058-.056h.223l.054.056.114.111.109.11.057.17.114.168.166.67.056.28.058.223v.28l.053.278v.282l-.053.222v.281l-.058.223v.224l-.056.222-.056.167-.11.112-.058.113-.168.167h-.222l-.056-.055-.111-.056" style="fill:none;stroke:red;stroke-width:.666665;stroke-linecap:round;stroke-linejoin:round;stroke-miterlimit:10;stroke-dasharray:none;stroke-opacity:1;visibility:visible"/><path d="M169.96 521.216v.167c.106.292.06.621.222.897l.056.11.055.057.057.112h.058l.052.056h.114l.11-.112.058-.056c.026-.41.148-.058.111-.784v-.336c.03-.197-.056-.727-.168-.893l-.057-.111-.054-.113-.113-.111h-.168l-.055.057-.056.054-.056.056a2.941 2.941 0 0 0-.166.782v.168" style="fill:none;stroke:red;stroke-width:.666665;stroke-linecap:round;stroke-linejoin:round;stroke-miterlimit:10;stroke-dasharray:none;stroke-opacity:1;visibility:visible"/><path d="m170.574 520.266-.057-.056h-.334M170.237 522.39h.337l.112.053v.058M170.74 522.332l-.503.056M169.96 521.215l.167.224.112.223.054.281v.221l-.054.17v.054M170.853 521.162l-.893.055" style="fill:none;stroke:red;stroke-width:.666665;stroke-linecap:round;stroke-linejoin:round;stroke-miterlimit:10;stroke-dasharray:none;stroke-opacity:1;visibility:visible"/><path d="m170.183 520.208.11.337-.054.223-.056.17-.11.166-.114.112M169.68 513.228l.224.223.056.112h.277l.057-.056.112-.11.055-.112.113-.337.056-.221v-.224l.056-.223v-.224c.028-.622-.11-1.221-.336-1.788l-.056-.166-.28-.282h-.166l-.112.06-.167.164-.169.502v.224a3.843 3.843 0 0 0 .113 1.9l.056.225.11.333" style="fill:none;stroke:red;stroke-width:.666665;stroke-linecap:round;stroke-linejoin:round;stroke-miterlimit:10;stroke-dasharray:none;stroke-opacity:1;visibility:visible"/><path d="m169.848 509.652.11-.052.056-.058c.508-.307.894.972.95 1.284l.055.28v.28c.138.413.077 2.22-.445 2.402l-.057.058-.11.054-.112-.054-.058-.058-.11-.057" style="fill:none;stroke:red;stroke-width:.666665;stroke-linecap:round;stroke-linejoin:round;stroke-miterlimit:10;stroke-dasharray:none;stroke-opacity:1;visibility:visible"/><path d="M170.014 512.95h.11l.113-.112.057-.057.113-.223v-.112l.055-.165v-.783l-.055-.17v-.166l-.057-.112-.056-.168-.112-.224-.057-.056-.054-.11h-.057l-.056-.058h-.11l-.111.112v.056l-.114.221v.115l-.056.167v.784l.056.168v.168l.058.166v.111l.166.336.111.112h.056" style="fill:none;stroke:red;stroke-width:.666665;stroke-linecap:round;stroke-linejoin:round;stroke-miterlimit:10;stroke-dasharray:none;stroke-opacity:1;visibility:visible"/><path d="m170.183 510.6-.057-.056-.111-.11h-.056M170.014 512.95l.223-.112.057-.057" style="fill:none;stroke:red;stroke-width:.666665;stroke-linecap:round;stroke-linejoin:round;stroke-miterlimit:10;stroke-dasharray:none;stroke-opacity:1;visibility:visible"/><path d="m169.96 510.434.056.11v.057l-.112.168-.11.054-.17.112M170.294 510.938h-.67M169.623 512.223l.17.11.11.113.168.222v.168l-.057.112M170.462 512.165l-.839.057" style="fill:none;stroke:red;stroke-width:.666665;stroke-linecap:round;stroke-linejoin:round;stroke-miterlimit:10;stroke-dasharray:none;stroke-opacity:1;visibility:visible"/><path d="m169.623 510.938.113.224.056.279v.336l-.056.166-.056.224-.057.056" style="fill:none;stroke:red;stroke-width:.666665;stroke-linecap:round;stroke-linejoin:round;stroke-miterlimit:10;stroke-dasharray:none;stroke-opacity:1;visibility:visible"/><path d="M113.649 479.599h.224c.525.013 1.052.004 1.565-.11h.167M358.383 513.508h.164a30.573 30.573 0 0 0 3.856-.166l.057-.058" style="fill:none;stroke:red;stroke-width:1.99999;stroke-linecap:round;stroke-linejoin:round;stroke-miterlimit:10;stroke-dasharray:none;stroke-opacity:1;visibility:visible"/><path d="m115.829 479.43-.057.059c-.868.263-1.718.267-2.624.167h-.114M358.384 513.396v.11M358.16 513.507v-.11M358.104 513.45l.056.056M362.346 513.398v.054h-.166c-.194.075-.968.128-1.173.112l-.225.056h-.275c-.67-.036-1.075.05-1.677.056l-.17-.056h-.168l-.109-.112M358.273 513.619h.221M358.16 513.507l.112.112h-.055M188.786 524.4h0M188.786 524.4v-.11M189.064 524.459h.334c.432-.024 1.13.056 1.508-.056h.559c.488-.018.97-.09 1.455-.113l.11-.055h.11v-.056M189.064 524.288v.168" style="fill:none;stroke:red;stroke-width:1.99999;stroke-linecap:round;stroke-linejoin:round;stroke-miterlimit:10;stroke-dasharray:none;stroke-opacity:1;visibility:visible"/><path d="M193.03 524.348h-.056l-.054.055c-.411.02-.816.097-1.231.11h-.504c-.432.113-1.188.029-1.675.055h-.336l-.11-.108M188.952 524.51h.168M188.786 524.4l.167.11h-.056" style="fill:none;stroke:red;stroke-width:1.99999;stroke-linecap:round;stroke-linejoin:round;stroke-miterlimit:10;stroke-dasharray:none;stroke-opacity:1;visibility:visible"/><path d="M113.427 382.287h.167l.222.055.168.056.111.057M91.808 407.931h-.168c-.416.019-.882-.033-1.228-.281l-.114-.055-.388-.335c-.797-.6-1.464-1.366-1.846-2.29l-.112-.337v-.057M105.998 406.644v.11l-.17.169-.165.054-.114.058h-.222l-.169.056M93.428 454.572h-.226c-.386-.036-.848-.022-1.172-.278l-.169-.055-.39-.335c-.821-.76-1.331-1.236-1.786-2.29l-.113-.338" style="fill:none;stroke:red;stroke-width:.666665;stroke-linecap:round;stroke-linejoin:round;stroke-miterlimit:10;stroke-dasharray:none;stroke-opacity:1;visibility:visible"/><path d="m107.616 453.29-.056.11c-.162.194-.35.308-.612.28l-.226.056M89.573 451.276v-.056" style="fill:none;stroke:red;stroke-width:1.99999;stroke-linecap:round;stroke-linejoin:round;stroke-miterlimit:10;stroke-dasharray:none;stroke-opacity:1;visibility:visible"/><path d="M93.428 456.698h-.226c-.396.012-.796 0-1.172-.111l-.169-.059-.39-.11c-.697-.29-1.399-.648-1.899-1.23l-.11-.166v-.058" style="fill:none;stroke:red;stroke-width:.666665;stroke-linecap:round;stroke-linejoin:round;stroke-miterlimit:10;stroke-dasharray:none;stroke-opacity:1;visibility:visible"/><path d="m107.616 455.577-.11.112-.113.055h-.11l-.17.056h-.165l-.168.057" style="fill:none;stroke:red;stroke-width:1.99999;stroke-linecap:round;stroke-linejoin:round;stroke-miterlimit:10;stroke-dasharray:none;stroke-opacity:1;visibility:visible"/><path d="M88.624 645.903h-.168c-.416.012-.828.01-1.228-.11l-.17-.057M101.975 645.009l-13.35.892M87.058 645.735l-.392-.168c-.374-.123-1.674-.804-1.84-1.172l-.17-.168M89.35 478.202l.11.168.113.221.224.227h.165l.17-.057.28-.278.11-.226.113-.278.055-.336.057-.39.054-.336-.166-1.174-.224-.669-.113-.28-.165-.223-.394-.392-.166.056-.112.058-.055.11-.113.168v.112M89.63 468.762l.055.224.225.336.167.054h.11l.168-.054.167-.112.115-.168.11-.223.112-.281.111-.334.056-.334v-.392l-.056-.39v-.336c-.05-.305-.76-2.71-1.34-1.732l-.057.168-.056.11" style="fill:none;stroke:red;stroke-width:.666665;stroke-linecap:round;stroke-linejoin:round;stroke-miterlimit:10;stroke-dasharray:none;stroke-opacity:1;visibility:visible"/><path d="M96.415 578.66v-.057" style="fill:none;stroke:red;stroke-width:1.99999;stroke-linecap:round;stroke-linejoin:round;stroke-miterlimit:10;stroke-dasharray:none;stroke-opacity:1;visibility:visible"/><path d="M385.755 410.775h.057M385.923 404.184l-.95-.668h-.11" style="fill:none;stroke:red;stroke-width:.666665;stroke-linecap:round;stroke-linejoin:round;stroke-miterlimit:10;stroke-dasharray:none;stroke-opacity:1;visibility:visible"/><path d="M385.812 409.322h.056l.055-.056.056-.055v-.112l.057-.11v-.168l.055-.168.113-3.408v-.336l-.113-.335v-.112l-.112-.223-.056-.056M393.968 411.279l-.167-.056-.166-.168-.115-.168-.056-.056" style="fill:none;stroke:red;stroke-width:.666665;stroke-linecap:round;stroke-linejoin:round;stroke-miterlimit:10;stroke-dasharray:none;stroke-opacity:1;visibility:visible"/><path d="M409.385 402.733h-.056l-.055.056h-.056l-.112.055h-.054M407.877 401.614h.224l.224.056.221.055v.056" style="fill:none;stroke:red;stroke-width:1.99999;stroke-linecap:round;stroke-linejoin:round;stroke-miterlimit:10;stroke-dasharray:none;stroke-opacity:1;visibility:visible"/><path d="M168.674 417.255h0M169.4 417.48l-.11-.057-.17-.11h-.223l-.224-.057M391.957 403.961l-1.567-.896h-.053l-.057.056-.111.225-.055.058-.056.5v.392M302.242 440.718l.167.057c.33.235.777.299 1.173.277h.224M390.392 407.872l1.451.784.055.056.058-.056v-.112l.055-.112-.055-.057v-.503c-.14-.962-.006-1.94.055-2.905l.055-.447v-.445l-.056-.059-.054-.053M299.616 437.813l.335.67.225.337.28.28.277.332.672.67.388.282.45.334" style="fill:none;stroke:red;stroke-width:.666665;stroke-linecap:round;stroke-linejoin:round;stroke-miterlimit:10;stroke-dasharray:none;stroke-opacity:1;visibility:visible"/><path d="m316.877 440.048.166-.056c.264.03.452-.085.615-.28v-.056M299.616 437.646v.167" style="fill:none;stroke:red;stroke-width:1.99999;stroke-linecap:round;stroke-linejoin:round;stroke-miterlimit:10;stroke-dasharray:none;stroke-opacity:1;visibility:visible"/><path d="m299.226 441.558.168.166c.526.648 1.366.892 2.121 1.174l.39.17M301.905 443.067l.165.055c.417.01.811.157 1.233.11h.223" style="fill:none;stroke:red;stroke-width:.666665;stroke-linecap:round;stroke-linejoin:round;stroke-miterlimit:10;stroke-dasharray:none;stroke-opacity:1;visibility:visible"/><path d="m299.169 441.5.057.056M316.542 442.172h.224c.32-.157.274.09.557-.224h.058" style="fill:none;stroke:red;stroke-width:1.99999;stroke-linecap:round;stroke-linejoin:round;stroke-miterlimit:10;stroke-dasharray:none;stroke-opacity:1;visibility:visible"/><path d="m294.42 630.764.11.168c.688.555 1.31.844 2.124 1.175l.448.112M311.737 631.377l.224-.053h.168l.223-.114h.11l.056-.057v-.055" style="fill:none;stroke:red;stroke-width:.666665;stroke-linecap:round;stroke-linejoin:round;stroke-miterlimit:10;stroke-dasharray:none;stroke-opacity:1;visibility:visible"/><path d="M294.365 630.653v.055l.056.053" style="fill:none;stroke:red;stroke-width:1.99999;stroke-linecap:round;stroke-linejoin:round;stroke-miterlimit:10;stroke-dasharray:none;stroke-opacity:1;visibility:visible"/><path d="M339.278 485.24h.056M143.2 476.86v-.056l.059-.053v-.114h.109M308.944 465.913l.057.056M134.318 471.164v-.168h.057v-.056h.111M300.064 460.27h.055M164.595 490.491l.057-.057v-.11l.056-.057h.055M330.398 479.542v.056M369.723 512.223l-.725-16.648M199.175 505.685h.057M199.174 505.687l.392-.057c.93.05 1.67-.076 2.567-.054l.45.055" style="fill:none;stroke:red;stroke-width:.666665;stroke-linecap:round;stroke-linejoin:round;stroke-miterlimit:10;stroke-dasharray:none;stroke-opacity:1;visibility:visible"/><path d="M202.08 523.452h.277c.576-.044.911-.072 1.509-.056h.279" style="fill:none;stroke:red;stroke-width:1.99999;stroke-linecap:round;stroke-linejoin:round;stroke-miterlimit:10;stroke-dasharray:none;stroke-opacity:1;visibility:visible"/><path d="m202.582 505.63 5.25.114c31.816.526 63.416-.828 95.078-3.966l4.357-.446" style="fill:none;stroke:red;stroke-width:.666665;stroke-linecap:round;stroke-linejoin:round;stroke-miterlimit:10;stroke-dasharray:none;stroke-opacity:1;visibility:visible"/><path d="m204.146 523.396 5.364.11c34.136.621 68.336-.943 102.285-4.579l3.966-.447" style="fill:none;stroke:red;stroke-width:1.99999;stroke-linecap:round;stroke-linejoin:round;stroke-miterlimit:10;stroke-dasharray:none;stroke-opacity:1;visibility:visible"/><path d="M368.998 495.574v-.167l-.057-.112v-.054l-.054-.056v-.058h-.056v-.054l-2.18-.223M369.612 512.668v-.056h.057v-.11l.054-.057v-.224M366.65 494.85h.057M114.767 463.399l-.28 12.235M115.213 462.952h-.168l-.055.056-.057.055-.055.11-.113.112v.114M120.743 462.56l-5.532.392M114.487 475.632v.17l.168.166M120.857 462.616l-.057-.056h-.055M287.829 452.448v-.557l.056-.058h.056l.057-.054h.054l5.532-.336h.166l.056.056M301.122 450.382l-.333-.11c-.836-.442-1.062-.392-1.731-1.118l-.113-.168" style="fill:none;stroke:red;stroke-width:.666665;stroke-linecap:round;stroke-linejoin:round;stroke-miterlimit:10;stroke-dasharray:none;stroke-opacity:1;visibility:visible"/><path d="M180.403 685.061v-.056" style="fill:none;stroke:red;stroke-width:1.99999;stroke-linecap:round;stroke-linejoin:round;stroke-miterlimit:10;stroke-dasharray:none;stroke-opacity:1;visibility:visible"/><path d="m180.014 681.264-4.023-.39M170.237 509.484l.113-.056.055-.054h.224l.11.054.059.114.109.108.112.17.057.166.113.224.11.45.114.558v.278l.055.224c-.003.515-.018 2.16-.728 2.236h-.111l-.112-.056v-.056M170.629 519.15h.057l.054-.111h.113l.11-.056.054.056c1.039.351 1.187 4.999.001 4.527l-.056-.058M169.96 417.031h-.056l-.056.059v.166l-.055.111M169.793 417.758v-.39M171.245 423.512h.056l.11-.11v-.226M171.245 423.512l-.727-.504M171.523 418.483v-.333l-.056-.114v-.054h-.055v-.056M171.523 418.483l-.11 4.695M169.96 417.031l1.452.895M180.574 681.264h-.56M191.3 680.591l-10.725.67" style="fill:none;stroke:red;stroke-width:.666665;stroke-linecap:round;stroke-linejoin:round;stroke-miterlimit:10;stroke-dasharray:none;stroke-opacity:1;visibility:visible"/><path d="M191.577 680.536h-.167l-.058.057h-.052M175.991 680.872h-.055" style="fill:none;stroke:red;stroke-width:1.99999;stroke-linecap:round;stroke-linejoin:round;stroke-miterlimit:10;stroke-dasharray:none;stroke-opacity:1;visibility:visible"/><path d="m170.574 422.617.837.56M170.462 417.311l-.056 2.01M369.33 401.727l12.068-95.694M369.33 401.727v.11l-.055.17-.054.053-.056.114h-.168l-.056-.056M373.242 668.135l4.077.393M368.383 401.278l.557.84M368.715 407.872v-.5l-.055-.28c-.153-.611-.168-1.352-.67-1.791l-.112-.054h-.055c-.595.05-.677.95-.725 1.396v.784c-.064 1.573 1.105 3.99 1.617 1.004v-.559M377.32 668.529h.56l10.668-.67h.168l.056-.057h.057" style="fill:none;stroke:red;stroke-width:.666665;stroke-linecap:round;stroke-linejoin:round;stroke-miterlimit:10;stroke-dasharray:none;stroke-opacity:1;visibility:visible"/><path d="M373.242 668.135h0" style="fill:none;stroke:red;stroke-width:1.99999;stroke-linecap:round;stroke-linejoin:round;stroke-miterlimit:10;stroke-dasharray:none;stroke-opacity:1;visibility:visible"/><path d="m368.998 401.278.332.45M97.45 390.89c-4.834-1.495-5.427 13.317-5.643 17.04M394.692 305.309c-2.941-.047-8.205.144-11.114.62" style="fill:none;stroke:red;stroke-width:.666665;stroke-linecap:round;stroke-linejoin:round;stroke-miterlimit:10;stroke-dasharray:none;stroke-opacity:1;visibility:visible"/><path d="m90.063 466.038-.367 12.025" style="fill:none;stroke:red;stroke-width:1.99999;stroke-linecap:round;stroke-linejoin:round;stroke-miterlimit:4;stroke-dasharray:none;stroke-opacity:1;visibility:visible"/><path d="m90.869 467.45-.028-.167-.043-.153-.042-.139-.058-.11-.054-.098-.054-.069-.072-.059M90.88 468.667l.033-.15.011-.155v-.544l-.028-.182-.028-.185M90.53 469.1l.06.016.065-.016.06-.03.038-.066.058-.087.028-.108.039-.141M90.181 468.302l.043.17.042.154.04.141.063.122.052.102.056.066.053.044M90.181 467.089l-.027.153-.012.17-.017.17v.18l.017.18.012.196.027.164" style="fill:none;stroke:red;stroke-width:.666665;stroke-linecap:round;stroke-linejoin:round;stroke-miterlimit:4;stroke-dasharray:none;stroke-opacity:1;visibility:visible"/><path d="m90.518 466.657-.056-.013-.057.013-.056.04-.055.057-.043.098-.038.112-.032.128M91.119 466.151l.019.033.009.027M90.53 469.1l.087-.039.056-.028.112-.054M90.518 466.657l.055.04" style="fill:none;stroke:red;stroke-width:.666665;stroke-linecap:round;stroke-linejoin:round;stroke-miterlimit:4;stroke-dasharray:none;stroke-opacity:1;visibility:visible"/><path d="m90.393 469.578.055.139.07.124.055.097.07.072.073.053.082.043.08.012.09-.012.069-.043.081-.037.072-.088.07-.081.065-.099.06-.124.056-.143.052-.153.044-.152.03-.17.026-.18.017-.17.011-.18v-.375l-.01-.194-.034-.2-.028-.179-.025-.195-.039-.181-.044-.19-.056-.165-.043-.149-.069-.157-.055-.167-.072-.139-.07-.144-.072-.109-.067-.095-.07-.081-.069-.061-.054-.055-.071-.028h-.072l-.07.015-.055.041-.038.056-.062.085-.039.107-.03.125" style="fill:none;stroke:red;stroke-width:.666665;stroke-linecap:round;stroke-linejoin:round;stroke-miterlimit:4;stroke-dasharray:none;stroke-opacity:1;visibility:visible"/><path d="m90.447 469.632-.07-.1-.082-.11-.056-.138-.07-.17-.054-.195-.06-.196-.039-.228-.025-.218-.036-.238-.008-.239-.017-.233.017-.244.008-.222.019-.206.042-.18.039-.18.043-.158.054-.126.07-.099M90.586 476.36l-.027-.165-.044-.154-.042-.14-.055-.112-.056-.096-.056-.07-.07-.058M90.596 477.577l.033-.15.011-.155v-.544l-.025-.182-.03-.186M90.247 478.01l.063.015.062-.015.063-.03.036-.069.059-.086.028-.107.037-.14M89.898 477.214l.044.17.043.155.038.139.063.121.052.103.055.065.054.046M89.898 476.001l-.025.152-.012.17-.019.17v.179l.019.18.012.196.025.165M90.236 475.567l-.055-.015-.057.015-.057.043-.054.054-.045.098-.037.113-.032.127M90.836 475.061l.019.033.009.026" style="fill:none;stroke:red;stroke-width:.666665;stroke-linecap:round;stroke-linejoin:round;stroke-miterlimit:4;stroke-dasharray:none;stroke-opacity:1;visibility:visible"/><path d="m90.247 478.01.088-.04.053-.028.115-.053M90.236 475.567l.055.043" style="fill:none;stroke:red;stroke-width:.666665;stroke-linecap:round;stroke-linejoin:round;stroke-miterlimit:4;stroke-dasharray:none;stroke-opacity:1;visibility:visible"/><path d="m90.11 478.488.055.139.07.124.055.098.07.072.074.052.081.043.083.012.087-.012.069-.043.08-.038.073-.086.07-.082.066-.098.06-.128.056-.138.051-.154.045-.153.028-.17.026-.18.017-.17.012-.179v-.376l-.012-.197-.032-.196-.028-.18-.025-.195-.04-.181-.042-.19-.056-.165-.044-.15-.07-.159-.055-.163-.07-.138-.071-.146-.072-.108-.066-.097-.07-.081-.07-.059-.056-.055-.07-.029h-.072l-.07.015-.054.04-.039.057-.061.087-.039.108-.03.122" style="fill:none;stroke:red;stroke-width:.666665;stroke-linecap:round;stroke-linejoin:round;stroke-miterlimit:4;stroke-dasharray:none;stroke-opacity:1;visibility:visible"/><path d="m90.165 478.542-.072-.099-.079-.11-.056-.139-.073-.17-.05-.195-.062-.198-.039-.225-.025-.221-.035-.235-.01-.239-.018-.236.018-.238.01-.224.016-.21.044-.178.039-.18.043-.158.056-.128.069-.096" style="fill:none;stroke:red;stroke-width:.666665;stroke-linecap:round;stroke-linejoin:round;stroke-miterlimit:4;stroke-dasharray:none;stroke-opacity:1;visibility:visible"/><path d="m88.417 464.522-1.987.117c-1.657.101-2.916 1.608-2.813 3.37.105 1.759 1.533 3.108 3.19 3.008l2.201-.13c.378.303.796.477 1.238.452 1.347-.076 2.333-1.85 2.211-3.959-.127-2.109-1.319-3.753-2.661-3.672-.532.032-1.006.338-1.379.814" style="fill:none;fill-opacity:1;fill-rule:nonzero;stroke:red;stroke-width:1.33333;visibility:visible"/><path d="m97.333 402.032-.003.182.011.181.013.196.036.18.04.179.051.152.067.15M97.546 403.252l.064.126.075.105.075.08.07.05.088.023.068-.008.084-.044M86.312 469.151l.062-.06.068-.073.052-.114.046-.13.032-.155.03-.172.022-.165M86.624 468.282l.001-.196-.01-.184-.025-.192-.026-.182-.05-.174-.053-.155-.051-.15M98.168 401.48l-.075-.12-.063-.109-.089-.068-.07-.048-.076-.023-.082.004-.07.034M97.642 401.148l-.08.062-.064.086-.048.102-.049.144-.033.138-.032.172-.004.182M89.63 465.108c.152-.194.331-.306.527-.318.69-.043 1.323 1.2 1.416 2.773.095 1.573-.39 2.881-1.079 2.924-.258.013-.508-.152-.724-.444M97.653 404.084l.237.251M97.366 400.715l.204-.29M90.658 465.356l-4.464.378M91.006 469.728l-4.46.374M86.546 470.103l-.096-.01-.1-.03-.118-.067-.102-.093M97.573 400.426l.077-.116.092-.08.111-.046.097-.017" style="fill:none;stroke:red;stroke-width:.666665;stroke-linecap:round;stroke-linejoin:round;stroke-miterlimit:4;stroke-dasharray:none;stroke-opacity:1;visibility:visible"/><path d="m97.653 404.084-.107-.118-.073-.15-.099-.166-.068-.189-.065-.204-.075-.219-.036-.223-.03-.25-.03-.236v-.475l.015-.227.028-.221.044-.203.063-.183M97.218 401.02l.047-.115.052-.102.05-.088M86.193 465.732l.112.008.116.034.112.08.105.106.107.142.107.165.096.187.084.221.07.233.066.263.052.263.037.262.019.28.016.28-.007.264-.032.249-.027.246-.04.237-.07.203-.078.185-.073.16-.092.116-.105.09-.11.06-.112.037" style="fill:none;stroke:red;stroke-width:.666665;stroke-linecap:round;stroke-linejoin:round;stroke-miterlimit:4;stroke-dasharray:none;stroke-opacity:1;visibility:visible"/><path d="m88.245 473.143-1.988.123c-1.656.096-2.915 1.604-2.812 3.364.105 1.762 1.533 3.109 3.19 3.009l2.201-.13c.378.302.798.481 1.242.451 1.343-.077 2.329-1.849 2.204-3.957-.122-2.11-1.314-3.753-2.658-3.673-.534.031-1.007.337-1.379.813" style="fill:none;fill-opacity:1;fill-rule:nonzero;stroke:red;stroke-width:1.33333;visibility:visible"/><path d="M98.21 411.335v-.197l-.01-.182-.026-.196-.024-.178-.049-.176-.053-.154-.054-.152" style="fill:none;stroke:red;stroke-width:.666665;stroke-linecap:round;stroke-linejoin:round;stroke-miterlimit:4;stroke-dasharray:none;stroke-opacity:1;visibility:visible"/><path d="m97.994 410.1-.073-.12-.064-.11-.09-.067-.069-.05-.074-.021-.084.007-.07.029M97.47 409.767l-.08.06-.066.09-.049.099-.045.144-.034.14-.032.172-.004.178M97.045 409.64l.048-.114.052-.1.05-.09M86.02 474.354l.114.005.116.037.111.076.105.106.106.146.108.163.096.188.084.221.068.234.07.262.049.263.038.261.017.28.018.282-.007.261-.033.255-.027.24-.04.238-.068.203-.077.184-.076.16-.092.119-.104.089-.11.06-.113.039M97.16 410.652l-.003.18.01.182.016.198.034.18.04.176.05.152.068.152M97.374 411.872l.064.126.075.105.073.08.074.052.085.02.068-.007.085-.042M97.898 412.206l.063-.059.067-.075.052-.114.048-.13.03-.157.03-.168.022-.17M89.457 473.726c.153-.196.333-.306.525-.316.69-.042 1.326 1.2 1.418 2.774.093 1.572-.39 2.879-1.08 2.922-.256.013-.507-.15-.723-.444M97.48 412.706l.236.25M97.196 409.335l.202-.288M90.485 473.978l-4.467.376M90.833 478.348l-4.46.376M98.133 413.156l-.096-.01-.103-.03-.114-.07-.103-.089M97.4 409.046l.077-.118.095-.077.108-.048.097-.017" style="fill:none;stroke:red;stroke-width:.666665;stroke-linecap:round;stroke-linejoin:round;stroke-miterlimit:4;stroke-dasharray:none;stroke-opacity:1;visibility:visible"/><path d="m97.48 412.706-.108-.12-.074-.15-.098-.162-.067-.192-.065-.204-.075-.22-.039-.223-.029-.25-.028-.236v-.473l.013-.229.031-.221.041-.2.064-.186" style="fill:none;stroke:red;stroke-width:.666665;stroke-linecap:round;stroke-linejoin:round;stroke-miterlimit:4;stroke-dasharray:none;stroke-opacity:1;visibility:visible"/><path d="m169.946 510.486-.366 12.024" style="fill:none;stroke:red;stroke-width:1.99999;stroke-linecap:round;stroke-linejoin:round;stroke-miterlimit:4;stroke-dasharray:none;stroke-opacity:1;visibility:visible"/><path d="m171.005 510.599.017.033.01.028M170.405 511.103l-.056-.013-.057.013-.056.041-.056.056-.042.098-.038.112-.032.128M170.066 511.538l-.026.152-.012.17-.016.17v.178l.016.18.012.196.026.166M170.066 512.75l.044.17.044.155.038.139.06.125.055.099.054.068.055.042M170.417 513.548l.06.015.065-.015.06-.03.038-.063.058-.091.027-.108.04-.138M170.764 513.115l.033-.15.012-.155v-.546l-.027-.181-.03-.184M170.754 511.898l-.026-.168-.044-.152-.044-.138-.054-.112-.056-.097-.054-.071-.071-.058M170.405 511.103l.055.041" style="fill:none;stroke:red;stroke-width:.666665;stroke-linecap:round;stroke-linejoin:round;stroke-miterlimit:4;stroke-dasharray:none;stroke-opacity:1;visibility:visible"/><path d="m170.417 513.548.087-.04.056-.026.112-.055" style="fill:none;stroke:red;stroke-width:.666665;stroke-linecap:round;stroke-linejoin:round;stroke-miterlimit:4;stroke-dasharray:none;stroke-opacity:1;visibility:visible"/><path d="m170.28 514.027.054.137.07.126.056.098.069.07.073.055.082.042.08.01.091-.009.069-.044.08-.038.073-.086.068-.082.065-.1.062-.123.056-.143.052-.153.042-.15.03-.174.027-.179.017-.17.01-.179v-.375l-.01-.196-.031-.198-.03-.18-.027-.194-.038-.181-.042-.191-.056-.166-.043-.149-.07-.159-.056-.163-.07-.14-.07-.141-.073-.11-.068-.096-.068-.082-.07-.06-.055-.055-.07-.027h-.074l-.069.012-.053.042-.039.058-.062.086-.038.105-.032.127M169.785 520.448l-.027.152-.012.17-.016.17v.18l.016.18.012.195.027.167M169.785 521.662l.044.166.043.158.038.138.06.123.055.103.055.066.054.044M170.133 522.457l.061.016.064-.015.062-.03.037-.067.059-.086.028-.108.038-.142M170.482 522.025l.032-.15.01-.155v-.544l-.024-.183-.03-.184M170.47 520.81l-.025-.168-.045-.153-.042-.136-.056-.113-.054-.097-.056-.07-.072-.059" style="fill:none;stroke:red;stroke-width:.666665;stroke-linecap:round;stroke-linejoin:round;stroke-miterlimit:4;stroke-dasharray:none;stroke-opacity:1;visibility:visible"/><path d="m170.334 514.082-.07-.102-.082-.11-.056-.14-.07-.17-.056-.193-.058-.197-.038-.226-.027-.22-.037-.238-.007-.236-.017-.236.017-.244.007-.222.02-.206.044-.178.038-.182.043-.158.053-.126.07-.098M170.122 520.015l.055.043M170.133 522.457l.087-.037.054-.03.116-.055M170.722 519.51l.019.034.009.024M170.122 520.015l-.056-.015-.056.015-.057.043-.055.054-.044.098-.038.114-.03.126" style="fill:none;stroke:red;stroke-width:.666665;stroke-linecap:round;stroke-linejoin:round;stroke-miterlimit:4;stroke-dasharray:none;stroke-opacity:1;visibility:visible"/><path d="m169.997 522.935.056.139.07.124.053.098.073.072.071.052.08.043.085.01.087-.01.068-.043.08-.036.074-.088.07-.081.066-.099.06-.126.056-.14.052-.153.044-.153.03-.17.025-.18.017-.172.012-.178v-.373l-.012-.199-.033-.197-.027-.182-.028-.191-.036-.182-.044-.19-.056-.166-.044-.15-.07-.156-.056-.164-.07-.141-.07-.143-.072-.108-.066-.098-.07-.081-.072-.06-.054-.053-.07-.03h-.071l-.07.014-.055.04-.04.059-.06.087-.037.106-.033.124" style="fill:none;stroke:red;stroke-width:.666665;stroke-linecap:round;stroke-linejoin:round;stroke-miterlimit:4;stroke-dasharray:none;stroke-opacity:1;visibility:visible"/><path d="m170.052 522.99-.072-.1-.08-.11-.056-.137-.072-.17-.052-.198-.062-.195-.038-.226-.026-.22-.034-.239-.008-.237-.02-.235.021-.24.007-.221.017-.212.043-.178.038-.18.044-.156.055-.128.07-.098" style="fill:none;stroke:red;stroke-width:.666665;stroke-linecap:round;stroke-linejoin:round;stroke-miterlimit:4;stroke-dasharray:none;stroke-opacity:1;visibility:visible"/><path d="m168.304 508.97-1.987.12c-1.657.097-2.917 1.605-2.813 3.366.105 1.758 1.534 3.11 3.192 3.008l2.197-.13c.38.305.8.479 1.243.456 1.344-.083 2.33-1.856 2.206-3.964-.125-2.107-1.316-3.751-2.66-3.671-.532.032-1.005.335-1.378.815" style="fill:none;fill-opacity:1;fill-rule:nonzero;stroke:red;stroke-width:1.33333;visibility:visible"/><path d="m165.674 513.266.063.124.075.105.076.081.072.05.085.023.07-.007.081-.044M166.197 513.599l.063-.061.068-.075.052-.113.046-.13.03-.157.033-.169.019-.164M166.51 512.727l.002-.197-.012-.183-.023-.192-.027-.183-.05-.174-.052-.155-.052-.148M166.296 511.495l-.076-.121-.063-.108-.088-.068-.07-.048-.076-.023-.083.003-.07.034M165.77 511.162l-.08.06-.065.088-.048.1-.048.145-.033.139-.031.172-.005.18M165.346 511.032l.046-.112.052-.102.052-.088" style="fill:none;stroke:red;stroke-width:.666665;stroke-linecap:round;stroke-linejoin:round;stroke-miterlimit:4;stroke-dasharray:none;stroke-opacity:1;visibility:visible"/><path d="m166.078 510.18.114.004.116.036.112.078.104.108.108.144.106.164.096.188.084.22.07.234.066.262.052.262.038.263.016.279.018.28-.008.264-.03.253-.027.24-.043.239-.068.204-.077.184-.073.16-.094.116-.105.092-.108.058-.112.039M165.46 512.044l-.001.183.009.183.015.194.035.183.04.175.05.153.068.15M169.516 509.552c.153-.194.33-.305.528-.316.688-.042 1.324 1.2 1.416 2.774.093 1.573-.391 2.88-1.08 2.92-.255.014-.507-.148-.723-.443M165.78 514.098l.236.249M165.494 510.73l.206-.29M170.544 509.802l-4.466.376M170.893 514.175l-4.46.375" style="fill:none;stroke:red;stroke-width:.666665;stroke-linecap:round;stroke-linejoin:round;stroke-miterlimit:4;stroke-dasharray:none;stroke-opacity:1;visibility:visible"/><path d="m166.433 514.548-.096-.008-.1-.032-.119-.065-.101-.093M165.7 510.442l.077-.118.092-.077.11-.048.101-.017M165.78 514.098l-.107-.12-.073-.148-.098-.166-.068-.19-.066-.205-.075-.218-.036-.224-.03-.248-.03-.236v-.239l.001-.236.014-.228.028-.224.044-.2.064-.185" style="fill:none;stroke:red;stroke-width:.666665;stroke-linecap:round;stroke-linejoin:round;stroke-miterlimit:4;stroke-dasharray:none;stroke-opacity:1;visibility:visible"/><path d="m168.132 517.59-1.988.12c-1.656.096-2.915 1.602-2.812 3.365.104 1.761 1.533 3.11 3.19 3.008l2.199-.13c.379.302.799.479 1.243.453 1.342-.079 2.33-1.851 2.206-3.958-.124-2.11-1.316-3.752-2.66-3.673-.533.03-1.006.337-1.378.815" style="fill:none;fill-opacity:1;fill-rule:nonzero;stroke:red;stroke-width:1.33333;visibility:visible"/><path d="m165.504 521.885.062.126.075.105.075.082.072.048.084.021.068-.004.086-.046M166.026 522.219l.064-.059.066-.076.053-.114.047-.13.03-.154.032-.173.02-.166M166.337 521.347l.001-.195-.01-.182-.023-.195-.028-.18-.05-.176-.052-.155-.053-.15M166.122 520.114l-.072-.122-.064-.106-.09-.068-.071-.051-.072-.019-.085.004-.068.028M165.598 519.782l-.081.06-.064.088-.048.102-.047.144-.034.139-.032.17-.003.179M165.173 519.652l.047-.115.053-.099.05-.09" style="fill:none;stroke:red;stroke-width:.666665;stroke-linecap:round;stroke-linejoin:round;stroke-miterlimit:4;stroke-dasharray:none;stroke-opacity:1;visibility:visible"/><path d="m165.905 518.8.115.004.116.038.112.078.105.104.107.146.106.164.096.188.086.22.068.232.066.264.05.262.041.264.016.278.016.28-.007.265-.033.252-.025.241-.042.24-.066.201-.08.186-.073.159-.094.118-.103.09-.11.057-.112.041M165.289 520.665l-.004.183.01.182.015.197.035.18.041.176.05.153.069.15M169.344 518.172c.153-.192.332-.304.526-.317.69-.04 1.324 1.201 1.416 2.775.094 1.573-.39 2.88-1.076 2.92-.26.015-.51-.146-.726-.441M165.608 522.717l.237.25M165.324 519.348l.202-.288M170.373 518.423l-4.468.375M170.72 522.795l-4.46.375" style="fill:none;stroke:red;stroke-width:.666665;stroke-linecap:round;stroke-linejoin:round;stroke-miterlimit:4;stroke-dasharray:none;stroke-opacity:1;visibility:visible"/><path d="m166.26 523.17-.094-.01-.102-.032-.116-.065-.103-.093M165.529 519.059l.077-.116.094-.079.109-.046.096-.016M165.608 522.717l-.108-.117-.074-.15-.096-.163-.068-.192-.066-.206-.076-.217-.038-.224-.03-.25-.026-.234v-.474l.012-.23.03-.224.045-.196.061-.188" style="fill:none;stroke:red;stroke-width:.666665;stroke-linecap:round;stroke-linejoin:round;stroke-miterlimit:4;stroke-dasharray:none;stroke-opacity:1;visibility:visible"/><path d="m383.354 305.642-4.638-3.241M393.462 410.83l-9.047-1.45" style="fill:none;stroke:red;stroke-width:.666665;stroke-linecap:round;stroke-linejoin:round;stroke-miterlimit:10;stroke-dasharray:none;stroke-opacity:1;visibility:visible"/><path d="m84.657 644.168-.113 1.847M392.908 402.647l-8.884-14.384M309.67 472.113l7.097-6.033" style="fill:none;stroke:red;stroke-width:1.99999;stroke-linecap:round;stroke-linejoin:round;stroke-miterlimit:10;stroke-dasharray:none;stroke-opacity:1;visibility:visible"/><path d="m129.346 485.518-5.084-3.408" style="fill:none;stroke:red;stroke-width:.666665;stroke-linecap:round;stroke-linejoin:round;stroke-miterlimit:10;stroke-dasharray:none;stroke-opacity:1;visibility:visible"/><path d="m166.328 459.99 15.586-.5" style="fill:none;stroke:red;stroke-width:1.99999;stroke-linecap:round;stroke-linejoin:round;stroke-miterlimit:10;stroke-dasharray:none;stroke-opacity:1;visibility:visible"/><path d="m164.763 490.267-1.06-.725M330.006 485.073l-.671-6.199M134.486 470.94l-1.118-.671M300.064 460.27l-1.062-.726" style="fill:none;stroke:red;stroke-width:.666665;stroke-linecap:round;stroke-linejoin:round;stroke-miterlimit:10;stroke-dasharray:none;stroke-opacity:1;visibility:visible"/><path d="m379.386 300.283 1.288-.115M390.223 299.611l-1.06-.003" style="fill:none;stroke:red;stroke-width:1.99999;stroke-linecap:round;stroke-linejoin:round;stroke-miterlimit:10;stroke-dasharray:none;stroke-opacity:1;visibility:visible"/><path d="m99.182 391.501-1.732-9.385M384.863 403.513l.333-1.506M391.957 403.961l-9.05-6.927M394.861 402.619l-1.953.028M390.06 408.54l1.839.114M390.391 407.929l1.452.725M299.226 441.556l2.346 14.916M348.327 496.077l-1.174-5.863M152.25 482.278l-1.061-.67M309.67 472.114l7.155-1.174M143.368 476.637l-1.116-.726M154.99 476.022l1.562-5.528M308.61 471.443l-.727-6.202M339.278 485.24l-1.06-.668M170.405 511.103l-2.458-13.85M106.78 455.858l.612 7.037M166.384 461.444l15.584-.446M156.552 470.494l9.832-9.05" style="fill:none;stroke:red;stroke-width:.666665;stroke-linecap:round;stroke-linejoin:round;stroke-miterlimit:10;stroke-dasharray:none;stroke-opacity:1;visibility:visible"/><path d="m407.877 401.614 1.508 1.119" style="fill:none;stroke:red;stroke-width:1.99999;stroke-linecap:round;stroke-linejoin:round;stroke-miterlimit:10;stroke-dasharray:none;stroke-opacity:1;visibility:visible"/><path d="m171.523 418.483-1.117.839M383.353 307.513l-1.955-1.48M369.33 401.727l-.615 6.145M367.21 401.391l1.505 6.481" style="fill:none;stroke:red;stroke-width:.666665;stroke-linecap:round;stroke-linejoin:round;stroke-miterlimit:10;stroke-dasharray:none;stroke-opacity:1;visibility:visible"/><path d="m89.963 464.907-1.546-.385M89.684 465.073l-1.267-.551" style="fill:none;fill-opacity:1;fill-rule:nonzero;stroke:red;stroke-width:1.33333;visibility:visible"/><path d="m91.147 466.211-4.737.838" style="fill:none;stroke:red;stroke-width:.666665;stroke-linecap:round;stroke-linejoin:round;stroke-miterlimit:4;stroke-dasharray:none;stroke-opacity:1;visibility:visible"/><path d="m89.741 474.292-1.496-1.149M89.462 474.459l-1.217-1.316M170.125 509.486l-1.821-.516M169.848 509.651l-1.544-.681M165.905 518.798l2.227-1.208M169.827 519.51l-1.695-1.92" style="fill:none;fill-opacity:1;fill-rule:nonzero;stroke:red;stroke-width:1.33333;visibility:visible"/><path d="m169.827 519.51-.483-1.338" style="fill:none;stroke:red;stroke-width:.666665;stroke-linecap:round;stroke-linejoin:round;stroke-miterlimit:4;stroke-dasharray:none;stroke-opacity:1;visibility:visible"/><path d="m379.387 300.28-.11.055h-.113l-.166.169-.058.057-.053.11-.057.054v.115M378.829 300.838l-.167 1.399v.053l.054.059v.053M189.846 412.956h2.347c56.665-.194 113.356-3.576 169.54-11.005l.952-.111M185.208 413.123l.45-.057h1.003l1.007-.054 1.06-.056h1.119M372.571 303.855l-2.177.28c-54.617 7.206-109.716 10.531-164.795 10.782l-4.748.057M200.852 314.972h-1.677l-1.116.056h-1.063l-1.063.055-.389.056" style="fill:none;stroke:#00ff4a;stroke-width:1.99999;stroke-linecap:round;stroke-linejoin:round;stroke-miterlimit:10;stroke-dasharray:none;stroke-opacity:1;visibility:visible" visibility="hidden"/><path d="M199.342 337.375h2.403c56.665-.221 113.355-3.598 169.542-11.062l.95-.11M194.762 337.483h.39l1.062-.056 1.007-.052h2.122" style="fill:none;stroke:#00ff4a;stroke-width:.666665;stroke-linecap:round;stroke-linejoin:round;stroke-miterlimit:10;stroke-dasharray:none;stroke-opacity:1;visibility:visible" visibility="hidden"/><path d="m377.658 303.35-.563.056-1.058.11-1.064.057-1.059.112-1.007.17h-.334M379.387 303.24l-1.73.11" style="fill:none;stroke:#00ff4a;stroke-width:1.99999;stroke-linecap:round;stroke-linejoin:round;stroke-miterlimit:10;stroke-dasharray:none;stroke-opacity:1;visibility:visible" visibility="hidden"/><path d="m372.238 326.201.5-.056.952-.112 1.005-.112.951-.056.948-.112h.112l2.235-.112M196.55 359.553h2.4c56.668-.198 113.356-3.566 169.544-11.006l.95-.112M191.967 359.717h.392l1.007-.056 1.061-.055h1.005l1.004-.056h.115M369.445 348.433l.501-.056 1.9-.224 1.007-.112.95-.055h.111l2.232-.168M192.64 390.78h2.345c56.745-.293 113.325-3.564 169.598-11.063l.892-.111M188.058 390.888h.392l1.005-.056 1.004-.055h2.183M365.477 379.606l.503-.057 1.004-.11.95-.114 1.007-.111.952-.056h.11l2.177-.112" style="fill:none;stroke:#00ff4a;stroke-width:.666665;stroke-linecap:round;stroke-linejoin:round;stroke-miterlimit:10;stroke-dasharray:none;stroke-opacity:1;visibility:visible" visibility="hidden"/><path d="m378.829 302.57-.056.727M378.886 300.95l-.17 1.397M378.716 302.401v-.055M378.662 302.235v.057l.055.055" style="fill:none;stroke:#00ff4a;stroke-width:1.99999;stroke-linecap:round;stroke-linejoin:round;stroke-miterlimit:10;stroke-dasharray:none;stroke-opacity:1;visibility:visible" visibility="hidden"/><path d="M192.36 393.236h4.86c54.68-.325 109.384-3.516 163.62-10.556l4.471-.56" style="fill:none;stroke:#00ff4a;stroke-width:.666665;stroke-linecap:round;stroke-linejoin:round;stroke-miterlimit:10;stroke-dasharray:none;stroke-opacity:1;visibility:visible" visibility="hidden"/><path d="M189.902 412.735h4.859c54.689-.317 109.369-3.565 163.622-10.559l4.47-.616" style="fill:none;stroke:#00ff4a;stroke-width:1.99999;stroke-linecap:round;stroke-linejoin:round;stroke-miterlimit:10;stroke-dasharray:none;stroke-opacity:1;visibility:visible" visibility="hidden"/><path d="m187.72 393.406.56-.058c1.174-.03 2.349-.082 3.52-.112h.559" style="fill:none;stroke:#00ff4a;stroke-width:.666665;stroke-linecap:round;stroke-linejoin:round;stroke-miterlimit:10;stroke-dasharray:none;stroke-opacity:1;visibility:visible" visibility="hidden"/><path d="m185.266 412.9.558-.056c1.173-.03 2.348-.082 3.52-.11h.56" style="fill:none;stroke:#00ff4a;stroke-width:1.99999;stroke-linecap:round;stroke-linejoin:round;stroke-miterlimit:10;stroke-dasharray:none;stroke-opacity:1;visibility:visible" visibility="hidden"/><path d="M189.846 412.955v-.056l.057-.056v-.112" style="fill:none;stroke:#00ff4a;stroke-width:1.99999;stroke-linecap:round;stroke-linejoin:round;stroke-miterlimit:10;stroke-dasharray:none;stroke-opacity:1;visibility:visible" visibility="hidden"/><path d="m365.311 382.118.5-.11c1.136-.112 2.273-.235 3.41-.338h.556M369.78 381.67l2.124-.164" style="fill:none;stroke:#00ff4a;stroke-width:.666665;stroke-linecap:round;stroke-linejoin:round;stroke-miterlimit:10;stroke-dasharray:none;stroke-opacity:1;visibility:visible" visibility="hidden"/><path d="m195.654 315.198.616-.057a46.81 46.81 0 0 1 3.965-.112h.67l4.805-.055c54.332-.208 108.661-3.57 162.56-10.448l4.413-.615.617-.056c1.182-.229 2.576-.255 3.795-.39l.616-.055 1.675-.112" style="fill:none;stroke:#00ff4a;stroke-width:1.99999;stroke-linecap:round;stroke-linejoin:round;stroke-miterlimit:10;stroke-dasharray:none;stroke-opacity:1;visibility:visible" visibility="hidden"/><path d="M197.276 317.766h.502a36.465 36.465 0 0 1 3.522-.11h.612M201.911 317.655l4.861-.055c54.602-.225 109.46-3.535 163.619-10.559l4.413-.558" style="fill:none;stroke:#00ff4a;stroke-width:.666665;stroke-linecap:round;stroke-linejoin:round;stroke-miterlimit:10;stroke-dasharray:none;stroke-opacity:1;visibility:visible" visibility="hidden"/><path d="M372.684 303.91h-.056v-.056h-.056M200.907 315.028v-.056h-.056" style="fill:none;stroke:#00ff4a;stroke-width:1.99999;stroke-linecap:round;stroke-linejoin:round;stroke-miterlimit:10;stroke-dasharray:none;stroke-opacity:1;visibility:visible" visibility="hidden"/><path d="m374.806 306.482.558-.056c1.102-.248 2.236-.241 3.351-.336l.561-.056M379.278 306.033l2.01-.11" style="fill:none;stroke:#00ff4a;stroke-width:.666665;stroke-linecap:round;stroke-linejoin:round;stroke-miterlimit:10;stroke-dasharray:none;stroke-opacity:1;visibility:visible" visibility="hidden"/><path d="m377.712 303.408-.056-.056" style="fill:none;stroke:#00ff4a;stroke-width:1.99999;stroke-linecap:round;stroke-linejoin:round;stroke-miterlimit:10;stroke-dasharray:none;stroke-opacity:1;visibility:visible" visibility="hidden"/><path d="m372.012 328.714.558-.112 3.352-.333h.558M194.482 340l.502-.059c1.172-.072 2.352-.007 3.522-.109h.614M199.12 339.831h4.857c54.683-.306 109.383-3.53 163.623-10.558l4.412-.558M376.483 328.266l2.121-.165M196.325 362.065h4.861c54.684-.308 109.374-3.582 163.62-10.556l4.414-.615M369.22 350.895l.558-.057c1.117-.11 2.232-.223 3.352-.333l.558-.058" style="fill:none;stroke:#00ff4a;stroke-width:.666665;stroke-linecap:round;stroke-linejoin:round;stroke-miterlimit:10;stroke-dasharray:none;stroke-opacity:1;visibility:visible" visibility="hidden"/><path d="m191.634 362.234.559-.056c1.176-.003 2.344-.155 3.519-.113h.614M373.69 350.444l2.121-.11" style="fill:none;stroke:#00ff4a;stroke-width:.666665;stroke-linecap:round;stroke-linejoin:round;stroke-miterlimit:10;stroke-dasharray:none;stroke-opacity:1;visibility:visible" visibility="hidden"/><path d="m378.886 302.57-.113.725M379.164 303.017l-.056.279" style="fill:none;stroke:#00ff4a;stroke-width:1.99999;stroke-linecap:round;stroke-linejoin:round;stroke-miterlimit:10;stroke-dasharray:none;stroke-opacity:1;visibility:visible" visibility="hidden"/><path d="m199.12 339.832-4.358-2.349M376.483 328.266l2.458-2.625M196.326 362.065l-4.359-2.348M373.69 350.444l2.456-2.626M192.359 393.236l-4.301-2.348M369.78 381.67l2.4-2.624M365.477 379.606l6.427 1.9M200.852 314.972l-3.576 2.794M377.658 303.35l3.63 2.572M372.238 326.201l6.366 1.9M369.22 350.895l6.591-.562" style="fill:none;stroke:#00ff4a;stroke-width:.666665;stroke-linecap:round;stroke-linejoin:round;stroke-miterlimit:10;stroke-dasharray:none;stroke-opacity:1;visibility:visible" visibility="hidden"/></svg>