<svg xmlns="http://www.w3.org/2000/svg" baseProfile="full" height="1122.52" preserveAspectRatio="xMinYMin meet" style="width:765px;height:943px" width="793.701" xml:space="preserve"><path d="m473.856 175.42-153.233-50.472M331.598 136.776l-.013-.255-.058-.23-.089-.254-.105-.232-.15-.214-.161-.199-.175-.165-.198-.127-.202-.087-.198-.072h-.176l-.204.016-.162.072-.138.11-.127.142-.093.182-.05.198-.042.216v.234l.042.252.071.252.105.234.128.232.146.196.176.183.185.144.195.124.198.076.195.033.185-.017.176-.036.162-.092.126-.125.112-.158.068-.201.058-.197.013-.235M465.052 236.35l.023.24 30.182-34.777M465.108 253.577l-.023.235-.056.234-.105.216-.124.18M495.239 218.676l-.016.252-.056.215-.09.218-.143.18M461.037 236.87l.197.127.183.178.161.186.143.214.125.218.111.253.07.23.058.251.015.238M462.098 238.765l.035 16.99M462.134 255.754l-.015.237-.033.216-.092.198-.112.18-.12.125-.161.105" style="fill:none;stroke:red;stroke-width:.999997;stroke-linecap:round;stroke-linejoin:round;stroke-miterlimit:4;stroke-dasharray:none;stroke-opacity:1;visibility:visible" visibility="hidden"/><path d="m461.957 238.777.577-.325.518-.323.436-.303.417-.325.427-.359.45-.432M494.935 219.557v-.015M485.013 199.111l.233-.27" style="fill:none;stroke:red;stroke-width:.999997;stroke-linecap:round;stroke-linejoin:round;stroke-miterlimit:4;stroke-dasharray:none;stroke-opacity:1;visibility:visible" visibility="hidden"/><path d="m485.246 198.841.415-.504.4-.507.374-.482.342-.506.325-.505.287-.503.269-.508.237-.502.232-.483.186-.504.161-.49.139-.483.126-.503.091-.508.052-.504.041-.268.014-.288v-.416.576-.25.109M326.36 119.982l.472.163M321.03 142.465h0M326.36 119.982h.13l.067.016h.056l.071.019.056.02M326.831 120.144h.161l.163.019M326.937 120.344h.148l.161.032M326.36 119.982l-.07-.017h-.069M321.65 142.607l.033-.016.038-.039" style="fill:none;stroke:red;stroke-width:1.99999;stroke-linecap:round;stroke-linejoin:round;stroke-miterlimit:4;stroke-dasharray:none;stroke-opacity:1;visibility:visible" visibility="hidden"/><path d="M326.937 120.344v-.056l-.015-.07-.041-.04-.048-.034M320.856 142.448h0M326.741 120.036h.021M326.937 120.344h.148l.161.032" style="fill:none;stroke:red;stroke-width:1.99999;stroke-linecap:round;stroke-linejoin:round;stroke-miterlimit:4;stroke-dasharray:none;stroke-opacity:1;visibility:visible" visibility="hidden"/><path d="m464.798 254.443-.015.017-.033.036" style="fill:none;stroke:red;stroke-width:.999997;stroke-linecap:round;stroke-linejoin:round;stroke-miterlimit:4;stroke-dasharray:none;stroke-opacity:1;visibility:visible" visibility="hidden"/><path d="M461.6 256.816h0M480.423 170.67l-153.177-50.293M442.39 182.618l-120.958-40.153M474.396 193.243l-19.937-6.619M464.798 254.443l30.137-34.887M454.991 233.562l30.024-34.45M464.749 254.496l-.33.323-.36.324-.38.304-.37.306-.416.294-.413.266-.428.271-.451.232M485.013 199.111l-.359-.321-.469-.42-.5-.394-.53-.397-.533-.376-.562-.395-.59-.361-.61-.357-.65-.366-.653-.338-.683-.343-.702-.321-.718-.33-.738-.304-.759-.29-.772-.286-.79-.269M480.423 170.67l.919.324.916.33.886.32.878.36.866.36.83.38.829.377.788.394.792.414.755.416.736.432.724.432.705.446.661.466.652.473.647.484.612.504.592.523.563.518.533.527.528.559.5.54.47.573.427.556.418.597.401.572.356.618.323.59.27.559.25.556.218.58.2.559.18.574.143.594.125.576.092.502.07.49.057.505.036.497v.383l.013.29v.827l-.013 2.392v13.715l-.024.039v.558l-.033.483-.056.485-.05.472-.112.627-.142.632-.162.612-.181.63-.213.611-.251.612-.253.61-.288.596-.323.594-.345.594-.36.593-.38.595-.414.596-.43.577-.47.575-.465.554-.484.559M326.741 120.036h0M320.856 142.448l.395.123M326.762 120.036l.395.127M320.856 142.448l-.105-.053-.112-.056-.091-.054-.108-.109-.105-.13-.058-.102-.056-.093-.049-.107-.041-.147-.034-.144-.014-.16v-.216M319.808 124.609v-.341l.041-.178v-.113l.015-.07.056-.197.035-.162.056-.162.07-.166.072-.159.09-.143M319.808 124.609l.273 16.468M320.243 122.918l.253-.324.27-.347.308-.304.322-.289.323-.264.361-.239.378-.23.361-.182.379-.162.394-.146.394-.124.413-.102.436-.096.416-.072.484-.055.484-.017M326.22 119.965h.21l.114.017.105.015.094.04M321.65 142.607h-.24l-.09-.016-.071-.021M321.79 142.57l-.14.037M327.157 120.163l.104.055.112.052.087.092.09.085.022.043" style="fill:none;stroke:red;stroke-width:1.99999;stroke-linecap:round;stroke-linejoin:round;stroke-miterlimit:4;stroke-dasharray:none;stroke-opacity:1;visibility:visible" visibility="hidden"/><path d="M293.89 346.671h0M287.035 322.538l.035-.015h.048M286.402 322.663l.195-.072.2-.053h.238M288.617 334.167l.16.071.162.09.143.122.168.148.117.161.127.182.113.181.093.196.05.18.036.18.019.177v.183l-.019.168-.036.157-.07.143-.074.127-.089.087-.107.075-.11.071-.106.032-.15.025h-.124l-.143-.025-.127-.048-.14-.055-.127-.092-.126-.09-.124-.107-.13-.128-.103-.143-.093-.142-.092-.163-.07-.18-.056-.181-.055-.179-.013-.18v-.34l.033-.164.035-.143.093-.128.09-.124.104-.093.127-.07.142-.036h.149l.161.019.162.036M292.111 327.206l-.69-.335-.662-.321-.629-.271-.601-.249-.555-.217-.541-.198-.519-.18-.52-.164-.541-.176-.523-.144-.577-.129-.555-.124M292.702 328.08v-.088l-.023-.107-.068-.165-.093-.161-.105-.126-.126-.124-.092-.056-.082-.047M292.702 328.08l.345 17.44M292.485 346.1l.16-.023.129-.052.112-.071.07-.105.07-.146v-.092l.021-.091" style="fill:none;stroke:red;stroke-width:.999997;stroke-linecap:round;stroke-linejoin:round;stroke-miterlimit:4;stroke-dasharray:none;stroke-opacity:1;visibility:visible" visibility="hidden"/><path d="M285.269 323.349h0" style="fill:none;stroke:red;stroke-width:1.99999;stroke-linecap:round;stroke-linejoin:round;stroke-miterlimit:4;stroke-dasharray:none;stroke-opacity:1;visibility:visible" visibility="hidden"/><path d="M293.89 346.671h0M288.56 322.735l.24.035.568.147.562.16.579.178.577.216.573.236.556.271.523.25.505.274.507.288.5.305M294.249 325.095l.16.122.186.128.138.162.15.184.124.179.127.195.085.198.092.199.07.215.043.193.033.223.016.197M295.473 327.291l.322 16.989" style="fill:none;stroke:red;stroke-width:.999997;stroke-linecap:round;stroke-linejoin:round;stroke-miterlimit:4;stroke-dasharray:none;stroke-opacity:1;visibility:visible" visibility="hidden"/><path d="m293.097 346.84-.557-.043-.554-.049-.564-.076-.54-.101-.556-.128-.521-.146-.54-.178-.523-.196-.505-.22-.52-.27-.521-.268-.506-.326-.485-.324-.47-.36M285.734 344.155l-.161-.144-.143-.141-.147-.179-.082-.146-.081-.139-.046-.08-.024-.07v-.019l-.033-.054-.072-.212-.056-.221-.034-.215-.022-.237M285.269 323.349h0M285.269 323.349l1.133-.687M293.89 346.671l1.19-.551M284.497 324.878l.338 17.42M284.497 324.878v-.232l.033-.237.051-.212.093-.203.112-.179.127-.18.105-.108.125-.109.127-.068" style="fill:none;stroke:red;stroke-width:1.99999;stroke-linecap:round;stroke-linejoin:round;stroke-miterlimit:4;stroke-dasharray:none;stroke-opacity:1;visibility:visible" visibility="hidden"/><path d="m293.89 346.671-.128.059-.139.036-.128.032-.145.041h-.256" style="fill:none;stroke:red;stroke-width:1.99999;stroke-linecap:round;stroke-linejoin:round;stroke-miterlimit:4;stroke-dasharray:none;stroke-opacity:1;visibility:visible" visibility="hidden"/><path d="m462.096 238.768-166.638 88.377M286.402 322.663l.104-.053.113-.04.106-.032.105-.015h.288M287.12 322.523l.54.048.58.092.32.072M295.797 344.28v.448M295.797 344.729v.22l-.035.196-.037.2-.068.16-.095.165-.105.14-.112.128-.127.088-.139.093" style="fill:none;stroke:red;stroke-width:.999997;stroke-linecap:round;stroke-linejoin:round;stroke-miterlimit:4;stroke-dasharray:none;stroke-opacity:1;visibility:visible" visibility="hidden"/><path d="m461.599 256.818-165.93 88.65M453.604 234.624l-166.323 87.914" style="fill:none;stroke:red;stroke-width:1.99999;stroke-linecap:round;stroke-linejoin:round;stroke-miterlimit:4;stroke-dasharray:none;stroke-opacity:1;visibility:visible" visibility="hidden"/><path d="M474.741 175.666s14.111 3.224 14.111 14M495.741 201.112s4.467-4 4.467-12.856M320.083 141.077l11.515-4.301M320.081 141.077l11.517-4.301" style="fill:none;stroke:red;stroke-width:.999997;stroke-linecap:round;stroke-linejoin:round;stroke-miterlimit:4;stroke-dasharray:none;stroke-opacity:1;visibility:visible" visibility="hidden"/><path d="m500.208 188.256-11.271 2.556M454.459 186.624l-12.069-4.006M442.39 182.618l12.069 4.006" style="fill:none;stroke:red;stroke-width:1.99999;stroke-linecap:round;stroke-linejoin:round;stroke-miterlimit:4;stroke-dasharray:none;stroke-opacity:1;visibility:visible" visibility="hidden"/><path d="m292.111 327.206-3.494 6.961M285.198 324.698l3.419 9.469" style="fill:none;stroke:red;stroke-width:.999997;stroke-linecap:round;stroke-linejoin:round;stroke-miterlimit:4;stroke-dasharray:none;stroke-opacity:1;visibility:visible" visibility="hidden"/><path d="m461.957 238.777-8.353-4.153" style="fill:none;stroke:red;stroke-width:1.99999;stroke-linecap:round;stroke-linejoin:round;stroke-miterlimit:4;stroke-dasharray:none;stroke-opacity:1;visibility:visible" visibility="hidden"/><path d="m500.208 188.256-11.356 1.41M488.852 189.666l11.356-1.41" style="fill:none;stroke:red;stroke-width:.999997;stroke-linecap:round;stroke-linejoin:round;stroke-miterlimit:4;stroke-dasharray:none;stroke-opacity:1;visibility:visible" visibility="hidden"/><path d="m398.655 126.296.13.033.123.074.094.113.085.107.055.128.022.144" style="fill:none;stroke:#00ff4a;stroke-width:1.99999;stroke-linecap:round;stroke-linejoin:round;stroke-miterlimit:4;stroke-dasharray:none;stroke-opacity:1;visibility:visible"/><path d="m398.655 126.296-70.304 60.821" style="fill:none;stroke:#00ff4a;stroke-width:.999997;stroke-linecap:round;stroke-linejoin:round;stroke-miterlimit:4;stroke-dasharray:none;stroke-opacity:1;visibility:visible"/><path d="m385.935 123.984 12.72 2.312M399.163 126.894l.105 13.059M385.597 124.08l.108-.073.105-.022h.127M399.127 140.282l-70.197 61.115M385.597 124.08l-70.577 60.695" style="fill:none;stroke:#00ff4a;stroke-width:1.99999;stroke-linecap:round;stroke-linejoin:round;stroke-miterlimit:4;stroke-dasharray:none;stroke-opacity:1;visibility:visible"/><path d="m449.73 295.452-.27.092-.287.073-.304.056-.308.051-.27.02-.29.015h-.576l-.268-.035-.232-.035-.235-.053-.2-.073-.195-.071-.182-.092-.162-.11-.126-.102-.124-.13-.11-.126-.054-.144-.058-.125v-.163l.022-.143.072-.161.089-.145M438.697 297.795l.287-.052.289-.04.303-.015h.578l.291.015.284.04.29.052.251.037.251.068.216.058.216.069.197.075.164.073.159.088.144.093.128.091.09.107.071.09.038.102.018.112-.038.122-.051.112-.108.124M442.763 299.36v-.144M444.69 298.788l-.019-5.17M445.48 294.448v-.775M445.48 293.673l-.141-.055-.147-.038-.139-.014h-.128l-.144.014-.056.021-.05.017M445.502 294.393l-.023-.7M445.48 293.673v.02M445.663 294.05l.035-.072v-.055l-.016-.052-.042-.074-.05-.052-.111-.054M450.414 295.4h.017" style="fill:none;stroke:#00ff4a;stroke-width:.999997;stroke-linecap:round;stroke-linejoin:round;stroke-miterlimit:4;stroke-dasharray:none;stroke-opacity:1;visibility:visible"/><path d="m450.414 295.4-.108-.02h-.236l-.107.02-.108.019-.126.033M450.522 295.65l.033-.033.038-.02.036-.054v-.052l-.018-.04-.07-.033-.054-.019h-.056M442.964 299.432h-.023M442.964 299.432h.288l.123-.015.145-.04.127-.034.072-.036.052-.018M442.763 299.216l-.019.056-.016.035.016.036.036.034.071.019.092.036M440.063 301.43l-.684-.087-.703-.126-.701-.166-.701-.2-.702-.248-.704-.288-.698-.324-.702-.358-.705-.399M436.986 313.379l.29.073.289.04h.266l.27-.057.237-.088.23-.128.203-.161.179-.211.144-.236.107-.272.072-.307.052-.308v-.334l-.019-.343-.07-.367-.091-.337-.143-.345-.16-.342-.181-.325-.218-.307-.25-.266-.251-.255-.272-.213-.288-.18-.29-.143-.287-.11-.286-.055-.272-.016-.27.016-.271.072-.232.126-.219.144-.18.199-.158.216-.126.252-.09.283-.076.306-.014.327.014.347.041.356.087.344.109.342.145.359.178.321.2.306.237.292.245.269.256.235.286.196.289.164.288.121M440.063 301.43h.144l.144-.016.144-.02.127-.036.144-.035.052-.036.076-.016M441.02 329.656l-.127-28.384M440.947 332.323l.055-.901.02-.887v-.879M441.793 512.372l-.377-6.1-.378-6.124-.326-6.156-.326-6.173-.266-6.21-.272-6.23-.235-6.258-.195-6.264-.182-6.322-.14-6.335-.128-6.35-.11-6.378-.072-6.405-.034-6.424-.023-6.448v-6.476l.04-6.495.07-6.521.093-6.555.106-6.564.142-6.574.161-6.624.219-6.623.213-6.644.255-6.673.29-6.678.303-6.718.324-6.727M441.88 514.838l-.017-.83-.018-.829-.05-.808M442.007 542.073l-.127-27.235" style="fill:none;stroke:#00ff4a;stroke-width:.999997;stroke-linecap:round;stroke-linejoin:round;stroke-miterlimit:4;stroke-dasharray:none;stroke-opacity:1;visibility:visible"/><path d="m455.435 506.923-.016-1.376-.039-1.324-.07-1.32" style="fill:none;stroke:#00ff4a;stroke-width:1.99999;stroke-linecap:round;stroke-linejoin:round;stroke-miterlimit:4;stroke-dasharray:none;stroke-opacity:1;visibility:visible"/><path d="m454.733 293.796-13.84 7.476" style="fill:none;stroke:#00ff4a;stroke-width:.999997;stroke-linecap:round;stroke-linejoin:round;stroke-miterlimit:4;stroke-dasharray:none;stroke-opacity:1;visibility:visible"/><path d="m455.435 506.923.072-.059.035-.053.022-.073" style="fill:none;stroke:#00ff4a;stroke-width:1.99999;stroke-linecap:round;stroke-linejoin:round;stroke-miterlimit:4;stroke-dasharray:none;stroke-opacity:1;visibility:visible"/><path d="m438.1 533.573.27.093.29.052h.27l.251-.029.252-.076.218-.127.197-.144.163-.197.141-.237.11-.25.073-.272.053-.308v-.321l-.021-.323-.071-.338-.09-.35-.127-.337-.162-.321-.178-.311-.216-.305-.232-.271-.255-.255-.265-.213-.272-.177-.291-.162-.287-.106-.273-.058-.285-.038-.25.02-.254.056-.235.104-.216.126-.177.18-.159.199-.128.252-.093.27-.055.29-.016.303v.33l.055.336.07.343.11.341.142.33.18.321.199.301.213.291.255.27.25.237.269.196.289.162.288.123" style="fill:none;stroke:#00ff4a;stroke-width:.999997;stroke-linecap:round;stroke-linejoin:round;stroke-miterlimit:4;stroke-dasharray:none;stroke-opacity:1;visibility:visible"/><path d="m455.311 502.903.07-.073.038-.071.017-.05" style="fill:none;stroke:#00ff4a;stroke-width:1.99999;stroke-linecap:round;stroke-linejoin:round;stroke-miterlimit:4;stroke-dasharray:none;stroke-opacity:1;visibility:visible"/><path d="M442.964 299.432v-.593M410.741 518.15l-.143.199-.162.177-.18.147-.214.086-.237.074-.255.024-.245-.024-.273-.074-.268-.086-.272-.147-.251-.177-.25-.222-.238-.229-.213-.272-.2-.283-.183-.309-.143-.308-.106-.321-.074-.327-.054-.319v-.308l.021-.292.05-.284.093-.253.128-.215.142-.205.18-.157.214-.107.218-.09.232-.038h.268l.256.037.271.091.267.124.272.14.254.205.234.236.23.248.2.268.196.308.148.308.126.323.104.307.057.321.036.328-.02.301-.035.288-.072.255-.109.252M270.286 464.568l-.128.216-.159.16-.18.144-.197.112-.237.053-.23.012-.25-.012-.255-.053-.252-.093-.25-.14-.255-.166-.25-.214-.217-.231-.216-.256-.18-.287-.18-.292-.127-.305-.125-.327-.07-.302-.055-.322v-.31l.016-.29.038-.265.087-.256.11-.213.143-.198.163-.165.199-.103.213-.094.239-.031.229-.027.25.058.257.073.272.124.245.148.237.199.254.217.214.233.196.266.182.306.141.286.128.333.11.301.054.322.036.31v.299l-.036.29-.07.255-.094.235M434.483 508.23h.019v.02M434.483 508.195h.019M434.483 508.195v.036M434.483 508.23h.019M238.087 257.908l-.515-20.747M238.053 260.495l.033-.859v-1.728M242.35 436.445l-.577-5.99-.555-6.034-.521-6.047-.503-6.065-.45-6.103-.433-6.116-.396-6.142-.377-6.156-.325-6.174-.306-6.205-.27-6.213-.239-6.244-.193-6.264-.18-6.281-.146-6.302-.109-6.336-.068-6.337-.039-6.357-.017-6.386.033-6.39.056-6.43.087-6.422.127-6.442.146-6.485.196-6.475.218-6.5.256-6.518.285-6.536M242.514 438.877l-.035-.807-.052-.813-.076-.812M243.037 460.643l-.524-21.765M234.65 246.836l.213.088.215.059.216.016.2-.035.183-.072.161-.112.161-.161.126-.192.106-.218.071-.257.055-.285.017-.307v-.324l-.017-.341-.055-.338-.087-.365-.108-.341-.128-.34-.141-.323-.18-.312-.185-.284-.195-.252-.213-.24-.22-.192-.216-.145-.232-.127-.218-.07-.216-.037-.196.018-.197.053-.181.092-.164.125-.122.18-.129.219-.09.233-.071.268-.038.312v.644l.055.342.07.337.094.348.11.34.138.343.164.32.18.289.199.27.194.254.219.2.216.177.236.143M239.725 452.057l.216.105.216.056.215.034.178-.019.182-.07.182-.09.142-.147.126-.181.09-.215.092-.234.056-.268.013-.286v-.324l-.013-.321-.056-.327-.092-.346-.107-.336-.128-.33-.145-.324-.16-.304-.182-.284-.196-.256-.214-.233-.218-.199-.216-.162-.216-.124-.216-.088-.217-.038h-.195l-.18.038-.181.068-.164.124-.124.166-.11.196-.107.219-.052.252-.035.284-.021.307.021.322.035.324.072.344.086.34.111.327.145.327.164.318.176.292.178.268.2.254.22.213.212.18.217.148" style="fill:none;stroke:#00ff4a;stroke-width:.999997;stroke-linecap:round;stroke-linejoin:round;stroke-miterlimit:4;stroke-dasharray:none;stroke-opacity:1;visibility:visible"/><path d="m448.341 291.385.703.395.705.365.701.323.698.284.705.237.701.199.703.178.703.107.682.093M455.524 534.08l-13.519 7.993M433.694 298.745l13.84-7.445M455.524 534.08l.039-.036.037-.02.017-.032.016-.037.018-.034v-.042" style="fill:none;stroke:#00ff4a;stroke-width:1.99999;stroke-linecap:round;stroke-linejoin:round;stroke-miterlimit:4;stroke-dasharray:none;stroke-opacity:1;visibility:visible"/><path d="m434.841 539.518.023.015.014.04.022.016.032.02.054.013h.074" style="fill:none;stroke:#00ff4a;stroke-width:.999997;stroke-linecap:round;stroke-linejoin:round;stroke-miterlimit:4;stroke-dasharray:none;stroke-opacity:1;visibility:visible"/><path d="m435.061 539.622.661.11.688.162.68.176.686.24.702.248.686.31.685.34.681.378.686.413M441.218 542l.128.057.14.052.145.016.124.019.126-.035.074-.017.052-.019M454.952 321.971l-.09-28.299M433.709 327.3l-.16-28.355M455.65 533.878l-.087-27.141M434.841 539.518l-.139-27.183M454.952 321.971v1.675l-.023.052v.686l-.013.034v.521l-.021.056v.427l-.02.056v.341l-.014.037v.307l-.016.055v.094M433.637 329.911v-.021l.021-.038v-.356l.016-.041v-.445l.019-.02v-.703l.017-.037v-.95M455.435 502.71l.036.784.036.796.035.81.022.826v.81M434.702 512.335v-.485l-.023-.504-.013-.487-.021-.488-.034-.46M454.845 326.312l-.273 5.305-.255 5.307-.23 5.31-.237 5.273-.198 5.28-.176 5.257-.183 5.256-.143 5.219-.145 5.214-.107 5.206-.108 5.182-.072 5.167-.072 5.147-.037 5.134-.033 5.107-.022 5.114v5.1l.022 5.067.05 5.065.055 5.035.073 5.036.068 5.008.11 5.01.128 4.875.126 4.878.163 4.86.16 4.822.183 4.826.194 4.82.215 4.786.235 4.776.256 4.768.269 4.735.27 4.735.303 4.718" style="fill:none;stroke:#00ff4a;stroke-width:1.99999;stroke-linecap:round;stroke-linejoin:round;stroke-miterlimit:4;stroke-dasharray:none;stroke-opacity:1;visibility:visible"/><path d="m434.61 509.91-.307-4.847-.306-4.837-.27-4.861-.27-4.876-.252-4.9-.234-4.918-.217-4.928-.197-4.95-.183-4.948-.159-4.99-.164-5.02-.126-5.045-.108-5.057-.106-5.075-.072-5.073-.068-5.113-.057-5.114-.02-5.128-.019-5.153v-5.16l.019-5.187.033-5.186.058-5.218.07-5.292.092-5.29.11-5.327.121-5.328.145-5.365.164-5.366.183-5.362.197-5.4.212-5.402.239-5.418.25-5.418.269-5.448" style="fill:none;stroke:#00ff4a;stroke-width:1.99999;stroke-linecap:round;stroke-linejoin:round;stroke-miterlimit:4;stroke-dasharray:none;stroke-opacity:1;visibility:visible"/><path d="m413.53 517.227-.141.236-.164.18-.175.163-.221.126M411.896 512.39l.268.197.253.236.251.252.216.284.216.307.177.308.164.325.13.344.106.336.071.324.057.344M409.43 512.08l.232-.124.252-.068.253-.059h.287l.287.038.286.076.294.105.285.141.29.202M413.804 515.646l.02.305-.02.29-.02.268-.07.253-.071.248-.111.216M407.524 513.327l1.907-1.248M410.798 518.996l-.163.07-.184.075-.18.036-.174.015-.182.017-.2-.017-.197-.015-.181-.056-.218-.054-.194-.091-.2-.088-.194-.108-.218-.145-.2-.146-.178-.18-.182-.182-.18-.195-.163-.213-.16-.215-.127-.236-.128-.236-.105-.232-.09-.255-.091-.229-.052-.257-.054-.252-.017-.254-.021-.229.021-.253.017-.236.054-.231.052-.215.092-.2.089-.198.124-.183.13-.159.106-.126.128-.112.145-.084M410.798 518.996l2.028-1.064M273.08 463.702l-.144.24-.163.193-.201.159-.215.145M271.53 459.003l.25.199.255.237.215.268.216.27.197.306.164.304.16.33.126.322.094.34.071.324.033.321M269.157 458.645l.23-.13.237-.07.248-.03h.27l.268.047.275.078.285.126.29.14.268.196M273.31 462.223l.02.343-.02.309-.05.304-.073.275-.108.248M267.21 459.832l1.947-1.187M270.323 465.45l-.164.068-.179.056-.162.039-.182.018h-.174l-.204-.018-.179-.027-.175-.052-.2-.05-.198-.093-.2-.102-.178-.111-.202-.144-.194-.143-.18-.178-.181-.183-.161-.197-.144-.198-.146-.218-.141-.231-.11-.232-.109-.239-.09-.236-.07-.249-.053-.236-.039-.25-.034-.23v-.49l.034-.231.039-.219.068-.216.075-.197.108-.184.105-.176.147-.164.109-.108.123-.11.128-.088M270.323 465.45l2.032-1.012" style="fill:none;stroke:#00ff4a;stroke-width:.999997;stroke-linecap:round;stroke-linejoin:round;stroke-miterlimit:4;stroke-dasharray:none;stroke-opacity:1;visibility:visible"/><path d="m251.37 457.472-8.33 3.17M237.546 457.887l-.072-.037-.035-.054-.021-.052M242.264 460.605l-4.717-2.717M243.037 460.643l-.128.03-.124.02h-.144l-.144-.02-.13-.03-.102-.037M254.658 233.058l-.035-1.91M232.364 255.189l-.41-16.017M237.419 457.744l-.537-21.727M232.325 257.745v-.052l.019-.041v-.448l.018-.032v-1.983M236.88 436.018l-.019-.487-.018-.486-.038-.471-.033-.481-.035-.464M236.736 433.628l-.467-4.756-.449-4.77-.435-4.771-.412-4.81-.398-4.797-.375-4.83-.343-4.843-.344-4.856-.305-4.864-.288-4.876-.268-4.932-.253-4.932-.235-4.948-.216-4.97-.196-4.97-.164-5.001-.164-5.003-.121-5.001-.108-5.047-.096-5.036-.052-5.043-.055-5.07-.017-5.083-.019-5.145.019-5.183.038-5.19.072-5.2.071-5.2.108-5.22.127-5.22.144-5.26.162-5.234.194-5.276.205-5.272.227-5.275" style="fill:none;stroke:#00ff4a;stroke-width:1.99999;stroke-linecap:round;stroke-linejoin:round;stroke-miterlimit:4;stroke-dasharray:none;stroke-opacity:1;visibility:visible"/><path d="m253.998 233.646.13-.019.103.019M245.9 455.115l.019.112.03.103.056.069.09.037" style="fill:none;stroke:#00ff4a;stroke-width:.999997;stroke-linecap:round;stroke-linejoin:round;stroke-miterlimit:4;stroke-dasharray:none;stroke-opacity:1;visibility:visible"/><path d="m434.79 527.546-22.583-8.621M405.642 516.41l-133.521-51.012M265.265 462.772l-19.17-7.335" style="fill:none;stroke:#00ff4a;stroke-width:1.99999;stroke-linecap:round;stroke-linejoin:round;stroke-miterlimit:4;stroke-dasharray:none;stroke-opacity:1;visibility:visible"/><path d="m249.797 452.657-.09.127-.127.088-.146.074-.161.015-.164-.015-.176-.053-3.115-1.188M434.746 520.138l-188.786-71.93M434.73 515.478l-182.808-69.52M249.475 452.605l-.541.288M244.558 245.746l-2.681-.936M244.847 245.801l-.141-.017-.148-.038M433.595 305.383l-192.473-67.23M244.002 246.032l-3.17-1.116" style="fill:none;stroke:#00ff4a;stroke-width:.999997;stroke-linecap:round;stroke-linejoin:round;stroke-miterlimit:4;stroke-dasharray:none;stroke-opacity:1;visibility:visible"/><path d="m244.002 246.032.179.04.181.021.163-.041.141-.07.125-.11.111-.141.072-.164.036-.198.017-.198-.017-.234-.036-.213-.072-.235-.11-.218-.126-.199-.141-.177" style="fill:none;stroke:#00ff4a;stroke-width:.999997;stroke-linecap:round;stroke-linejoin:round;stroke-miterlimit:4;stroke-dasharray:none;stroke-opacity:1;visibility:visible"/><path d="m433.647 313.246-23.361-8.195M404.57 303.056l-137.189-48.077" style="fill:none;stroke:#00ff4a;stroke-width:1.99999;stroke-linecap:round;stroke-linejoin:round;stroke-miterlimit:4;stroke-dasharray:none;stroke-opacity:1;visibility:visible"/><path d="m244.558 245.746-.557.285" style="fill:none;stroke:#00ff4a;stroke-width:.999997;stroke-linecap:round;stroke-linejoin:round;stroke-miterlimit:4;stroke-dasharray:none;stroke-opacity:1;visibility:visible"/><path d="m261.002 252.89-13.512-4.75" style="fill:none;stroke:#00ff4a;stroke-width:1.99999;stroke-linecap:round;stroke-linejoin:round;stroke-miterlimit:4;stroke-dasharray:none;stroke-opacity:1;visibility:visible"/><path d="m276.382 443.441.05 1.94M276.204 439.934l.085 1.15.058 1.171.037 1.186M272.53 265.925l-.233 6.73-.219 6.715-.179 6.698-.142 6.677-.13 6.641-.086 6.643-.056 6.603-.035 6.592-.017 6.569.033 6.534.036 6.53.093 6.508.11 6.472.141 6.446.161 6.444.199 6.404.217 6.376.25 6.35.286 6.338.308 6.319.344 6.281.358 6.252.398 6.223.412 6.215.448 6.172.471 6.15.507 6.127M272.567 262.183l-.036-1.37M272.567 262.183l.02 1.24-.02 1.243-.036 1.26M359.361 474.51l.036 2.303M327.41 462.757l.037 1.941M359.218 470.928l.073 1.187.055 1.19.013 1.203M327.252 459.23l.073 1.152.054 1.185.03 1.191M356.952 295.357l-.293 6.781-.246 6.791-.234 6.75-.216 6.731-.164 6.73-.148 6.677-.119 6.679-.076 6.66-.072 6.63-.017 6.6v6.59l.017 6.553.072 6.53.076 6.52.119 6.496.148 6.462.164 6.425.194 6.427.234 6.393.254 6.352.286 6.335.306 6.317.343 6.283.359 6.264.394 6.225.432 6.197.451 6.174M324.44 284.196l-.267 6.765-.254 6.751-.195 6.735-.185 6.718-.162 6.69-.126 6.678-.088 6.662-.074 6.622-.033 6.606v6.584l.019 6.555.036 6.552.089 6.52.107 6.474.128 6.485.161 6.439.199 6.417.217 6.403.247 6.372.272 6.341.306 6.313.322 6.302.38 6.261.378 6.228.414 6.213.452 6.19.468 6.157M357.024 291.524v1.259l-.023 1.276-.05 1.297M324.497 280.414v1.241l-.017 1.263-.039 1.277M357.024 291.524l-.023-1.064M324.497 280.414l-.033-1.368M410.896 494.345l.019 1.98M410.753 490.799l.072 1.17.057 1.169.014 1.208M408.597 332.221l-.092 2.32-.237 6.787-.198 6.766-.178 6.735-.146 6.712-.125 6.696-.092 6.677-.052 6.642-.036 6.642v6.587l.017 6.59.054 6.554.073 6.528.105 6.508.146 6.472.164 6.465.196 6.425.213 6.403.256 6.377.29 6.35.303 6.324.323 6.301.361 6.261.396 6.246.415 6.21M409.386 314.074l-.323 6.84-.033.743M409.496 308.486l-.03 1.841-.027 1.875-.076 1.872M276.382 443.441l.05 1.94" style="fill:none;stroke:#00ff4a;stroke-width:.999997;stroke-linecap:round;stroke-linejoin:round;stroke-miterlimit:4;stroke-dasharray:none;stroke-opacity:1;visibility:visible"/><path d="m276.204 439.934.085 1.15.058 1.171.037 1.186M272.567 262.183l-.036-1.37M300.325 452.495l.033 1.961M279.317 444.537l.053 1.945M300.163 448.982l.07 1.155.051 1.172.039 1.186M279.135 441.046l.092 1.152.052 1.153.039 1.186M296.886 274.493l-.252 6.75-.235 6.734-.181 6.716-.181 6.69-.126 6.68-.108 6.645-.069 6.624-.052 6.624-.019 6.566v6.57l.032 6.553.071 6.512.092 6.501.127 6.465.148 6.442.174 6.428.218 6.405.233 6.372.272 6.356.285 6.323.324 6.294.343 6.283.379 6.244.414 6.216.43 6.185.47 6.175.488 6.136M275.517 266.97l-.25 6.732-.2 6.712-.182 6.695-.159 6.68-.125 6.66-.09 6.64-.075 6.606-.032 6.587v6.575l.017 6.55.055 6.533.07 6.496.107 6.48.145 6.446.164 6.445.195 6.408.219 6.392.25 6.357.27 6.33.309 6.301.34 6.283.356 6.262.4 6.228.412 6.212.45 6.174.47 6.154.501 6.138M296.92 270.732l.019 1.241-.019 1.262-.033 1.258M275.553 263.226v2.483l-.035 1.261M296.92 270.732l-.016-1.37M275.553 263.226l-.035-1.37M325.236 461.581l.033 2.312M303.274 453.607l.037 1.964M325.053 458.024l.09 1.168.054 1.19.04 1.2M303.11 450.102l.077 1.152.068 1.168.019 1.185M322.213 283.133l-.272 6.77-.236 6.749-.213 6.732-.18 6.698-.144 6.692-.128 6.658-.087 6.646-.07 6.624-.04 6.606v6.586l.018 6.552.052 6.539.07 6.51.111 6.483.144 6.459.164 6.446.176 6.41.235 6.392.236 6.37.287 6.334.305 6.318.325 6.282.363 6.265.396 6.23.408 6.209.45 6.172.471 6.158M299.891 275.556l-.255 6.752-.233 6.73-.199 6.714-.161 6.695-.141 6.68-.111 6.654-.072 6.63-.053 6.604-.019 6.59v6.567l.04 6.553.05 6.516.111 6.497.106 6.478.164 6.445.181 6.43.193 6.405.239 6.372.267 6.354.286 6.319.327 6.299.344 6.282.373 6.247.4 6.227.43 6.193.47 6.172.482 6.141" style="fill:none;stroke:#00ff4a;stroke-width:.999997;stroke-linecap:round;stroke-linejoin:round;stroke-miterlimit:4;stroke-dasharray:none;stroke-opacity:1;visibility:visible"/><path d="M322.264 279.317v1.261l-.017 1.259-.034 1.296M299.929 271.795l.016 1.239-.016 1.245-.037 1.277M322.264 279.317l-.017-1.061M299.929 271.795l-.021-1.37M359.361 474.51l.036 2.303M327.41 462.757l.037 1.941M359.218 470.928l.073 1.187.055 1.19.013 1.203M357.024 291.524l-.023-1.064M324.497 280.414l-.033-1.368M383.913 483.796l.02 2.307M361.595 475.68l.016 1.977M383.77 480.215l.072 1.167.056 1.212.015 1.202M361.431 472.152l.072 1.155.056 1.186.035 1.188M381.935 304.139l-.304 6.805-.29 6.803-.237 6.787-.213 6.749-.201 6.732-.162 6.716-.125 6.696-.105 6.679-.072 6.64-.039 6.624-.016 6.606.016 6.57.039 6.569.072 6.52.086 6.512.127 6.482.164 6.463.177 6.424.22 6.407.23 6.372.272 6.353.285 6.333.325 6.3.363 6.27.376 6.244.415 6.228.432 6.192M359.202 296.418l-.293 6.805-.246 6.784-.234 6.768-.216 6.732-.164 6.73-.148 6.694-.119 6.68-.096 6.66-.052 6.624-.036 6.63v6.583l.036 6.572.052 6.531.096 6.519.103 6.498.144 6.464.161 6.44.201 6.432.232 6.387.255 6.372.27 6.333.32 6.319.325 6.281.381 6.268.392 6.243.417 6.197.45 6.187M381.986 300.29l.021 1.276-.038 1.28-.032 1.293M359.274 292.637v1.244l-.023 1.257-.05 1.28M381.986 300.29v-1.063M359.274 292.637l-.023-1.385M408.63 493.156l.032 2.325M386.146 484.982l.019 1.964M408.503 489.555l.072 1.19.036 1.187.021 1.223M386.003 481.437l.072 1.173.057 1.171.014 1.201M406.147 335.442l-.165 4.765-.196 6.775-.183 6.725-.143 6.718-.124 6.68-.094 6.68-.054 6.637-.036 6.624v6.585l.022 6.576.054 6.55.087 6.535.108 6.496.144 6.48.163 6.443.201 6.427.212 6.393.253 6.37.288 6.355.307 6.3.341 6.302.358 6.257.396 6.23.418 6.21M407.08 312.979l-.305 6.839-.151 3.305" style="fill:none;stroke:#00ff4a;stroke-width:.999997;stroke-linecap:round;stroke-linejoin:round;stroke-miterlimit:4;stroke-dasharray:none;stroke-opacity:1;visibility:visible"/><path d="m384.203 305.216-.305 6.823-.272 6.806-.251 6.788-.216 6.752-.199 6.75-.164 6.71-.122 6.696-.11 6.675-.073 6.665-.053 6.626-.019 6.6.019 6.587.036 6.574.074 6.533.084 6.519.127 6.476.164 6.462.18 6.447.219 6.401.232 6.376.27 6.375.287 6.315.323 6.32.362 6.28.379 6.244.395 6.229.434 6.19M407.17 309.145v1.259l-.033 1.296-.056 1.278M384.274 301.424v1.237l-.019 1.278-.052 1.277M407.17 309.145l-.016-1.083M384.274 301.424l-.019-1.392M410.896 494.345l.019 1.98M410.753 490.799l.072 1.17.057 1.169.014 1.208M263.403 249.708l.27.059.257.085.268.143.249.161.256.2.232.235.216.268.177.272.184.301.14.332.108.32.095.324.03.324.022.324-.021.31-.051.285-.075.252-.125.23-.145.219-.162.159-.194.145-.216.09-.235.055-.253.015-.248-.032-.252-.073-.275-.108-.252-.143-.25-.177-.251-.222-.215-.252-.219-.27-.181-.308-.141-.3-.146-.324-.086-.324-.078-.327-.03-.32.014-.308.016-.304.078-.272.104-.252.128-.216.161-.201.177-.144.203-.126.232-.069.235-.036h.249" style="fill:none;stroke:#00ff4a;stroke-width:.999997;stroke-linecap:round;stroke-linejoin:round;stroke-miterlimit:4;stroke-dasharray:none;stroke-opacity:1;visibility:visible"/><path d="m265.907 447.256-.052-.177-.037-.164v-.16l.017-.144.072-.128.075-.088.104-.058h.126l.144.019.128.05.143.11.108.13.105.142.075.164.053.16.018.183v.142l-.052.148-.071.087-.093.072-.124.037h-.128l-.142-.037-.126-.09-.127-.109-.11-.144-.106-.145M267.725 444.83l.088.07.148.126.143.144.128.165.122.172.108.166.111.182.11.198.07.182.088.199.055.196.052.196.037.197.019.112M340.586 475.608l-.05-.163-.037-.18v-.16l.016-.14.071-.13.093-.091.104-.052h.126l.129.016.143.05.148.11.124.127.088.142.09.164.038.184.013.163v.159l-.05.128-.07.102-.11.071-.109.039h-.141l-.145-.054-.127-.069-.128-.113-.123-.142-.093-.161M342.425 473.14l.056.039.141.144.146.142.144.163.121.16.128.163.11.184.09.197.092.176.088.199.07.2.057.198.037.195.03.161M424.413 507.435l-.073-.167-.035-.176v-.164l.035-.144.056-.126.105-.09.11-.057.125-.016.148.04.142.047.143.113.128.121.104.17.077.158.052.163.019.175-.019.152-.052.138-.077.112-.104.071-.128.036-.143-.02-.142-.039-.127-.086-.147-.108-.109-.144-.088-.159M426.252 504.907l.05.057.165.128.146.138.14.165.127.17.125.173.127.178.092.182.107.197.073.2.072.2.056.197.05.199.02.16M422.54 311.483l-.143-.304-.09-.307-.072-.308-.035-.305-.02-.307.02-.286.05-.27M423.153 311.304l-.072-.181-.032-.179v-.16l.032-.168.072-.123.09-.089.11-.07.145-.022.142.04.146.052.146.09.122.143.107.147.075.181.053.174.016.165-.016.163-.053.142-.075.124-.107.075-.122.036h-.146l-.146-.036-.142-.09-.128-.109-.128-.142-.089-.163M426.377 310.832l.032.164.02.184M261.12 254.856l-.13-.288-.105-.308-.072-.304-.036-.287-.018-.304.018-.276.036-.265M261.641 254.657l-.056-.163-.033-.18v-.161l.014-.164.075-.124.07-.09.125-.05.126-.044.128.044.144.05.127.09.124.124.11.164.073.161.052.164.016.179v.16l-.051.145-.075.11-.086.073-.128.052h-.124l-.146-.052-.142-.073-.13-.11-.106-.145-.107-.16" style="fill:none;stroke:#00ff4a;stroke-width:.666665;stroke-linecap:round;stroke-linejoin:round;stroke-miterlimit:4;stroke-dasharray:none;stroke-opacity:1;visibility:visible"/><path d="m245.818 451.705.668-.253M245.747 448.531l.019.74M245.96 448.207l-.085.057-.074.072-.037.11-.016.085M251.92 445.958l.09-.05.071-.09.036-.09.016-.111M251.92 445.958l-5.96 2.25M251.975 438.781l.159 6.835M252.19 438.457l-.088.052-.07.076-.04.108-.017.088M252.463 438.365l-.272.092M252.585 438.346h-.072l-.052.02M245.908 455.122l.021.112.031.104.056.068.09.04M245.818 451.705l.09 3.417M246.486 451.452l2.987 1.153M249.475 452.605l.16.052h.163" style="fill:none;stroke:#00ff4a;stroke-width:.999997;stroke-linecap:round;stroke-linejoin:round;stroke-miterlimit:4;stroke-dasharray:none;stroke-opacity:1;visibility:visible"/><path d="m248.88 450.457.179.095.178.126.179.146.145.192.124.201.111.219.088.233.037.215.019.236-.019.193-.037.181-.088.163M248.88 450.457l-3.117-1.185M434.459 507.307l-181.873-68.961M240.762 242.383l-.09-3.565M240.67 238.817l.019-.145.036-.142.074-.126.084-.11.11-.089.129-.053 12.888-4.502" style="fill:none;stroke:#00ff4a;stroke-width:.999997;stroke-linecap:round;stroke-linejoin:round;stroke-miterlimit:4;stroke-dasharray:none;stroke-opacity:1;visibility:visible"/><path d="m254.008 233.65.128-.015.105.015M247.674 251.185l-.055-.037-.036-.054-.018-.09-.075-2.864M240.959 245.857l-.057-.04-.05-.052v-.09l-.021-.76M241.498 244.681l-.667.235M244.524 243.895l-2.645.916-.382-.13M243.947 243.481l-3.187-1.099M244.524 243.895l-.141-.143-.148-.113-.144-.087-.144-.07M262.145 253.293h0" style="fill:none;stroke:#00ff4a;stroke-width:.999997;stroke-linecap:round;stroke-linejoin:round;stroke-miterlimit:4;stroke-dasharray:none;stroke-opacity:1;visibility:visible"/><path d="m247.492 248.14-6.53-2.283" style="fill:none;stroke:#00ff4a;stroke-width:1.99999;stroke-linecap:round;stroke-linejoin:round;stroke-miterlimit:4;stroke-dasharray:none;stroke-opacity:1;visibility:visible"/><path d="m433.666 316.452-9.875-3.461M423.983 313.069l-85.537-30.023M338.575 283.096l-76.024-26.677M262.524 256.404l-14.852-5.22" style="fill:none;stroke:#00ff4a;stroke-width:.999997;stroke-linecap:round;stroke-linejoin:round;stroke-miterlimit:4;stroke-dasharray:none;stroke-opacity:1;visibility:visible"/><path d="m436.728 297.138-182.486-63.487" style="fill:none;stroke:#00ff4a;stroke-width:1.99999;stroke-linecap:round;stroke-linejoin:round;stroke-miterlimit:4;stroke-dasharray:none;stroke-opacity:1;visibility:visible"/><path d="m254.479 439.068-.037-1.099M254.998 437.268l-.088-.019-.093.032-.086.058-.094.094-.09.124-.054.142-.032.15-.022.12M410.697 496.256l23.617 8.944M254.998 437.268l.397.139M256.273 437.703l154.424 58.553M255.34 435.365l-.017-.728-.04-.7-.031-.707-.04-.678-.05-.703M255.34 435.365l.053 2.041M255.163 431.85l-.416-4.716-.38-4.748-.377-4.752-.343-4.793-.343-4.784-.322-4.81-.303-4.824-.272-4.837-.272-4.847-.25-4.88-.235-4.874-.235-4.899-.197-4.912-.182-4.932-.16-4.948-.164-4.953-.126-4.968-.108-4.987-.106-5.001-.07-5.027-.071-5.018-.056-5.04-.02-5.04-.02-5.022v-5.022l.04-5.04.036-5.042.052-5.074.072-5.075.092-5.076.107-5.096.129-5.11.121-5.13.164-5.133.184-5.144M251.13 258.295v-.216l.017-.056v-.627l.015-.038v-2.702l-.015-.032v-.072l-.017-1.258M254.479 439.068l-.037-1.099" style="fill:none;stroke:#00ff4a;stroke-width:.999997;stroke-linecap:round;stroke-linejoin:round;stroke-miterlimit:4;stroke-dasharray:none;stroke-opacity:1;visibility:visible"/><path d="m254.998 437.268-.088-.019-.093.032-.086.058-.094.094-.09.124-.054.142-.032.15-.022.12M255.34 435.365l.053 2.041M251.13 258.295v-.216l.017-.056v-.627l.015-.038v-2.702l-.015-.032v-.072l-.017-1.258M267.096 248.502l.25.216.253.253.214.268.216.291.184.307.179.32.124.344.125.338.094.346.05.341.018.327M265.69 247.87l.29.037.287.088.267.126.29.182.271.198" style="fill:none;stroke:#00ff4a;stroke-width:.999997;stroke-linecap:round;stroke-linejoin:round;stroke-miterlimit:4;stroke-dasharray:none;stroke-opacity:1;visibility:visible"/><path d="M268.803 251.852v.337l-.02.326-.068.322-.09.272-.127.274-.163.213-.177.199-.199.161-.235.128M264.646 248.069l.25-.124.255-.052.268-.04.27.019M262.666 249.203l1.98-1.135M265.635 255.032l-.159.06-.182.052-.182.037-.194.015h-.184l-.195-.015-.179-.037-.197-.052-.203-.075-.194-.108-.2-.108-.196-.106-.2-.163-.178-.163-.178-.18-.186-.181-.16-.213-.142-.216-.147-.235-.127-.235-.106-.234-.091-.254-.087-.25-.056-.255-.053-.247-.036-.256-.019-.229.019-.253.019-.236.036-.235.05-.23.078-.22.085-.2.11-.197.145-.161.141-.161.11-.107.129-.11.14-.071M265.635 255.032l2.09-.948" style="fill:none;stroke:#00ff4a;stroke-width:.999997;stroke-linecap:round;stroke-linejoin:round;stroke-miterlimit:4;stroke-dasharray:none;stroke-opacity:1;visibility:visible"/><path d="m265.293 447.15-.07-.199-.071-.197-.04-.197-.031-.202-.04-.19v-.367l.02-.183.02-.178.03-.159.055-.164.075-.141.07-.128.093-.13.106-.108.107-.084.11-.074.127-.07.142-.058.126-.036.143-.018h.31l.14.04.165.032.161.055.164.073.141.09.162.088.161.126.055.058M269.003 447.135l.019.07v.553l-.038.182-.037.166-.052.16-.055.144-.074.145-.084.127-.095.104-.108.093-.107.09-.124.069-.145.056-.127.038-.145.015-.143.017-.16-.017-.146-.015-.163-.038-.14-.056-.164-.07-.161-.072-.166-.089-.142-.11-.16-.125-.144-.142-.146-.147-.126-.159-.142-.184" style="fill:none;stroke:#00ff4a;stroke-width:.666665;stroke-linecap:round;stroke-linejoin:round;stroke-miterlimit:4;stroke-dasharray:none;stroke-opacity:1;visibility:visible"/><path d="M265.728 447.94h0l-.02-.019v-.014h-.017v-.023l-.018-.017v-.016h-.022v-.016l-.016-.023v-.017h-.016v-.015l-.019-.024v-.013h-.017v-.036h-.019v-.015h-.017v-.037h-.015v-.024l-.02-.015v-.019l-.023-.013v-.023h-.013v-.034h-.02v-.035h-.02v-.036h-.015v-.041h-.016v-.032h-.021v-.038l-.017-.014v-.024h-.019v-.032l-.02-.02v-.032h-.016v-.043h-.017v-.03M340.157 475.952l-.108-.2-.09-.197-.074-.198-.072-.201-.052-.19-.035-.209-.04-.172v-.577l.04-.183.035-.164.052-.16.055-.145.073-.144.088-.127.107-.104.11-.109.106-.073.126-.071.128-.056.144-.056.146-.015.161-.017.144.017.159.015.164.041.16.054.165.05.164.094.161.089.142.108.108.09" style="fill:none;stroke:#00ff4a;stroke-width:.666665;stroke-linecap:round;stroke-linejoin:round;stroke-miterlimit:4;stroke-dasharray:none;stroke-opacity:1;visibility:visible"/><path d="M343.736 475.462v.036l.021.197v.36l-.038.182-.014.181-.056.163-.053.141-.07.145-.095.126-.091.122-.105.114-.127.09-.124.07-.128.06-.147.046-.142.02-.142.018h-.146l-.162-.018-.162-.034-.162-.055-.16-.056-.162-.072-.162-.09-.146-.106-.16-.127-.143-.126-.148-.142-.141-.162-.128-.16-.162-.22-.126-.214M423.947 507.809l-.09-.201-.107-.198-.071-.194-.077-.199-.052-.201-.035-.191-.036-.203-.016-.196v-.38l.033-.177.035-.163.055-.162.056-.159.088-.148.074-.13.11-.126.104-.085.125-.088.127-.075.128-.076.141-.032.148-.036h.323l.161.019.16.041.161.032.163.07.161.09.162.093.164.103.11.07" style="fill:none;stroke:#00ff4a;stroke-width:.666665;stroke-linecap:round;stroke-linejoin:round;stroke-miterlimit:4;stroke-dasharray:none;stroke-opacity:1;visibility:visible"/><path d="m427.602 507.251.017.033.014.196v.38l-.014.187-.038.175-.051.158-.056.166-.068.146-.096.124-.085.128-.111.108-.128.088-.127.071-.124.07-.145.042-.141.033-.164.019h-.144l-.163-.019-.161-.018-.162-.058-.178-.045-.164-.07-.159-.098-.163-.11-.16-.126-.146-.121-.162-.147-.141-.157-.13-.166-.163-.193-.142-.239M426.43 311.18v.032l.019.199v.198l-.019.182-.035.198-.037.179-.056.163-.068.16-.093.141-.086.135-.11.124-.11.104-.122.088-.128.073-.144.075-.144.036-.163.034-.161.016h-.162l-.164-.016-.164-.034-.158-.056-.182-.072-.161-.07-.16-.104-.183-.113-.141-.125-.161-.143-.148-.147-.14-.161-.13-.164-.161-.23-.127-.235M264.808 255.196l-.019.019-.013.18-.057.161-.054.16-.052.145-.093.147-.09.125-.105.126-.11.092-.128.086-.127.072-.124.055-.145.037-.142.015-.164.021-.145-.021-.161-.015-.162-.037-.16-.055-.161-.072-.163-.086-.161-.092-.145-.107-.164-.125-.14-.144-.13-.146-.141-.162-.127-.18-.145-.214-.127-.234" style="fill:none;stroke:#00ff4a;stroke-width:.666665;stroke-linecap:round;stroke-linejoin:round;stroke-miterlimit:4;stroke-dasharray:none;stroke-opacity:1;visibility:visible"/><path d="m74.351 279.171.536 13.573M69.182 278.99l.144.072.144.09.128.107.123.148.128.163.104.165.09.178.095.202.05.179.037.185.034.182v.326l-.034.162-.055.126-.056.135-.07.09-.07.087-.092.054-.107.041-.109.016h-.107l-.124-.016-.109-.041-.123-.054-.108-.074-.125-.088-.11-.111-.106-.127-.09-.126-.09-.144-.09-.17-.071-.157-.051-.184-.041-.185-.035-.18-.019-.16v-.166l.019-.164.035-.126.07-.144.072-.128.092-.091.108-.072.104-.037.128-.022.146.022.141.037M69.416 284.93l.143.072.148.092.141.108.125.147.106.142.129.182.088.184.072.181.053.181.056.182.016.178v.354l-.036.144-.036.144-.07.125-.055.088-.088.075-.095.052-.086.057-.107.016h-.13l-.103-.016-.128-.035-.107-.074-.124-.075-.11-.088-.107-.108-.107-.132-.11-.124-.085-.144-.076-.145-.068-.184-.074-.18-.035-.163-.037-.183v-.344l.02-.148.033-.142.052-.147.075-.108.089-.115.107-.049.125-.053h.255l.141.053M76.774 277.536l-1.527.561M74.888 278.097l.077.019h.195l.09-.019M73.881 279.036l-9.54-4.06-.075-.073-.054-.076-.016-.07M74.351 279.171v-.18l.037-.185.051-.182.093-.162.11-.146.122-.125.123-.093" style="fill:none;stroke:#00ff4a;stroke-width:.999997;stroke-linecap:round;stroke-linejoin:round;stroke-miterlimit:4;stroke-dasharray:none;stroke-opacity:1;visibility:visible"/><path d="m67.675 272.63.09-.016h.09l.088.052M75.175 293.27l-.084-.056-.095-.09-.052-.111-.037-.127-.02-.141M68.108 272.666l-.092-.02-.072.02" style="fill:none;stroke:#00ff4a;stroke-width:1.99999;stroke-linecap:round;stroke-linejoin:round;stroke-miterlimit:4;stroke-dasharray:none;stroke-opacity:1;visibility:visible"/><path d="m76.936 277.536-.07-.017-.091.017" style="fill:none;stroke:#00ff4a;stroke-width:.999997;stroke-linecap:round;stroke-linejoin:round;stroke-miterlimit:4;stroke-dasharray:none;stroke-opacity:1;visibility:visible"/><path d="M64.197 274.757v-.019" style="fill:none;stroke:#00ff4a;stroke-width:1.99999;stroke-linecap:round;stroke-linejoin:round;stroke-miterlimit:4;stroke-dasharray:none;stroke-opacity:1;visibility:visible"/><path d="m70.136 273.793 6.801 3.743M77.941 290.782l-.507-12.283M76.936 277.536l.09.075.087.069.092.11.072.13.058.128.05.12.034.148.016.128v.056M328.352 187.118l-.77.656-.822.635-.845.637-.9.636-.915.612-.97.601-.982.604-1.045.598-1.056.582-1.098.562-1.129.564-1.165.562-1.206.527-1.218.527-1.278.509-1.268.508-1.328.49-1.33.473M334.455 178.16l.087.036.07.055.04.056-.018.056-.038.052-.068.057M334.455 178.16l-3.805-1.288M330.596 180.448l-.104.04-.13.019-.14.014h-.146l-.143-.014-.129-.019M330.596 180.448l3.93-1.975M326.004 179.202l-.09-.041-.07-.054-.039-.052.015-.057.043-.055.084-.056M326.004 179.202l3.801 1.287M329.859 176.927l.11-.055.142-.016.125-.021h.146l.142.021.128.016M329.859 176.927l-3.912 1.96M249.857 215.781l.239-.107.212-.126.161-.143.127-.148.068-.144.058-.143-.017-.162-.041-.146-.104-.142-.126-.124-.18-.143-.216-.112-.252-.105-.27-.086-.323-.076-.327-.054-.342-.058-.356-.014h-.722l-.358.037-.346.05-.344.071-.302.074-.288.109-.27.108-.216.127-.177.126-.164.142-.09.144-.074.145-.02.16.039.144.07.148.11.144.16.127.198.124.235.106.25.106.305.073.312.072.342.056.354.035.366.02.356-.02.36-.02.363-.034.339-.052.324-.092.308-.09.269-.107M240.068 219.131l.25-.112.2-.141.158-.124.144-.147.07-.144.04-.159v-.144l-.057-.144-.086-.148-.128-.142-.178-.126-.218-.126-.251-.112-.288-.087-.308-.07-.323-.055-.341-.039-.359-.035h-.362l-.359.02-.36.038-.363.033-.322.07-.323.093-.287.09-.254.107-.216.127-.199.142-.143.127-.108.165-.056.144-.016.144.016.159.076.145.107.144.161.126.2.126.232.108.271.091.285.087.324.073.328.053.358.038h.718l.364-.018.359-.056.343-.053.322-.072.307-.092.272-.104M325.947 179.18v-.292M334.455 178.507v-.347" style="fill:none;stroke:#00ff4a;stroke-width:.999997;stroke-linecap:round;stroke-linejoin:round;stroke-miterlimit:4;stroke-dasharray:none;stroke-opacity:1;visibility:visible"/><path d="M64.197 274.757h0" style="fill:none;stroke:#00ff4a;stroke-width:1.99999;stroke-linecap:round;stroke-linejoin:round;stroke-miterlimit:4;stroke-dasharray:none;stroke-opacity:1;visibility:visible"/><path d="M67.675 272.63h0" style="fill:none;stroke:#00ff4a;stroke-width:.999997;stroke-linecap:round;stroke-linejoin:round;stroke-miterlimit:4;stroke-dasharray:none;stroke-opacity:1;visibility:visible"/><path d="m64.197 274.757.533 13.425M64.197 274.739v-.147l.03-.144.054-.144.073-.129.088-.108.111-.11.144-.094.143-.07M67.675 272.63l-2.835 1.163M76.074 293.287l-.128.035-.14.018h-.267l-.126-.018-.128-.011-.11-.041M76.074 293.287l1.543-.435M75.175 293.27l-1.31-.51-1.273-.513-1.276-.524-1.236-.526-1.22-.543-1.218-.547-1.186-.544-1.166-.568M65.29 288.996l-.108-.047-.087-.074-.096-.095-.07-.07-.071-.095-.036-.106-.052-.144-.016-.146-.023-.036M67.691 272.63l.076-.016.068-.016h.093l.068.016.058.032.053.02" style="fill:none;stroke:#00ff4a;stroke-width:1.99999;stroke-linecap:round;stroke-linejoin:round;stroke-miterlimit:4;stroke-dasharray:none;stroke-opacity:1;visibility:visible"/><path d="m77.992 292.196-.016.13-.016.129-.039.129-.068.104-.07.07-.076.057-.088.037M68.108 272.666l2.028 1.127M77.992 292.196l-.05-1.413" style="fill:none;stroke:#00ff4a;stroke-width:.999997;stroke-linecap:round;stroke-linejoin:round;stroke-miterlimit:4;stroke-dasharray:none;stroke-opacity:1;visibility:visible"/><path d="m299.823 192.825.95-.345.913-.33.917-.365.899-.343.857-.362.867-.383.841-.381.807-.38.792-.404.788-.398.733-.398.736-.42.703-.416.626-.364.594-.398.572-.382.554-.384.54-.399.52-.399.503-.398.484-.403M328.929 201.398l-.63.527-.642.528-.668.505-.699.51-.72.51-.73.512-.758.485-.792.495-.805.487-.823.473-.862.473-.863.471-.899.455-.877.418-.897.432-.919.424-.928.412-.953.406-.966.397-.99.401-1.002.38-1.025.363-1.039.383M309.44 211.844 77.975 292.43M299.823 192.825 68.236 272.741M399.268 139.956l-.018.132-.055.108-.067.09" style="fill:none;stroke:#00ff4a;stroke-width:1.99999;stroke-linecap:round;stroke-linejoin:round;stroke-miterlimit:4;stroke-dasharray:none;stroke-opacity:1;visibility:visible"/><path d="M252.007 212.905v-2.567c0-2.14-1.845-3.874-4.117-3.874-2.275 0-4.12 1.734-4.12 3.874v2.84c-.415.462-.675.99-.675 1.562 0 1.736 2.208 3.14 4.93 3.14 2.721 0 4.925-1.403 4.925-3.14.001-.687-.356-1.32-.943-1.835" style="fill:none;fill-opacity:1;fill-rule:nonzero;stroke:#00ff4a;stroke-width:1.33333;visibility:visible"/><path d="m246.68 209.193-.161.072-.144.088-.11.09-.07.089-.034.111v.087l.049.111M246.213 209.842l.07.084.091.094.144.074.164.071.198.052.214.053.216.04M247.311 210.309l.252.017h.235l.252-.016.235-.02.229-.052.204-.056.195-.057M248.913 210.126l.161-.086.144-.072.095-.111.07-.087.032-.094v-.108l-.032-.091M249.382 209.477l-.07-.108-.111-.088-.124-.071-.18-.073-.179-.052-.217-.056-.234-.019M249.58 208.94l.141.07.126.074.111.073" style="fill:none;stroke:#00ff4a;stroke-width:.666665;stroke-linecap:round;stroke-linejoin:round;stroke-miterlimit:4;stroke-dasharray:none;stroke-opacity:1;visibility:visible"/><path d="m250.62 209.949-.014.145-.056.146-.11.137-.14.128-.2.127-.216.126-.249.112-.289.086-.306.073-.34.067-.344.044-.342.031h-.723l-.34-.029-.32-.06-.311-.052-.302-.074-.256-.103-.232-.113-.199-.11-.144-.124-.106-.144-.072-.145-.039-.145M248.269 209.01l-.236-.017h-.487l-.236.035-.232.038-.197.052-.198.075M251.166 214.418c.237.212.367.45.367.703 0 .889-1.646 1.609-3.675 1.609-2.033 0-3.677-.72-3.677-1.61-.001-.332.232-.642.625-.9M245.602 209.266l-.34.284M249.96 209.157l.356.285M250.765 215.722l-.142-5.774M245.113 215.837l-.143-5.767" style="fill:none;stroke:#00ff4a;stroke-width:.666665;stroke-linecap:round;stroke-linejoin:round;stroke-miterlimit:4;stroke-dasharray:none;stroke-opacity:1;visibility:visible"/><path d="m244.97 210.072.021-.123.051-.13.092-.141.13-.128M250.314 209.442l.145.108.094.126.054.142.014.13M245.602 209.266l.161-.128.199-.084.219-.112.248-.074.27-.07.287-.077.29-.033.323-.019.309-.016.302.016.307.019.289.032.285.057.256.07.233.094" style="fill:none;stroke:#00ff4a;stroke-width:.666665;stroke-linecap:round;stroke-linejoin:round;stroke-miterlimit:4;stroke-dasharray:none;stroke-opacity:1;visibility:visible"/><path d="M242.053 215.89v-2.565c0-2.141-1.844-3.876-4.118-3.876-2.273 0-4.117 1.735-4.117 3.876v2.84c-.416.46-.676.988-.676 1.56 0 1.735 2.208 3.143 4.93 3.143 2.719 0 4.924-1.408 4.924-3.143.001-.687-.356-1.317-.943-1.835" style="fill:none;fill-opacity:1;fill-rule:nonzero;stroke:#00ff4a;stroke-width:1.33333;visibility:visible"/><path d="m238.313 211.997-.235-.019h-.488l-.235.036-.232.039-.198.052-.196.075M236.727 212.18l-.164.073-.14.087-.113.089-.069.09-.035.111v.087l.05.11M236.258 212.829l.072.085.09.092.144.076.166.07.195.052.215.053.215.04M237.357 213.296l.252.018h.234l.252-.018.235-.02.23-.05.202-.056.196-.057M238.96 213.113l.16-.087.146-.072.093-.112.071-.085.033-.095v-.108l-.033-.09" style="fill:none;stroke:#00ff4a;stroke-width:.666665;stroke-linecap:round;stroke-linejoin:round;stroke-miterlimit:4;stroke-dasharray:none;stroke-opacity:1;visibility:visible"/><path d="m239.429 212.464-.072-.107-.11-.09-.125-.071-.18-.072-.179-.052-.217-.058-.233-.017M241.213 217.406c.236.212.365.45.365.702 0 .889-1.645 1.61-3.675 1.61-2.033 0-3.677-.721-3.677-1.61 0-.332.232-.643.625-.9M235.647 212.253l-.34.283M240.003 212.144l.358.285M240.811 218.709l-.141-5.775M235.16 218.825l-.143-5.765M235.017 213.058l.02-.124.05-.128.093-.144.13-.126M240.36 212.429l.144.107.094.126.055.144.014.128" style="fill:none;stroke:#00ff4a;stroke-width:.666665;stroke-linecap:round;stroke-linejoin:round;stroke-miterlimit:4;stroke-dasharray:none;stroke-opacity:1;visibility:visible"/><path d="m235.647 212.253.163-.13.197-.083.22-.112.246-.074.271-.07.288-.078.29-.032.321-.018.31-.016.302.016.307.018.29.032.284.056.257.07.232.097M239.626 211.928l.144.069.124.073.11.074M240.667 212.936l-.017.146-.055.144-.109.139-.141.127-.199.126-.216.126-.25.11-.29.09-.305.072-.342.068-.34.042-.345.03h-.721l-.34-.029-.322-.057-.309-.054-.303-.072-.256-.104-.232-.112-.198-.11-.144-.126-.107-.143-.07-.145-.041-.144" style="fill:none;stroke:#00ff4a;stroke-width:.666665;stroke-linecap:round;stroke-linejoin:round;stroke-miterlimit:4;stroke-dasharray:none;stroke-opacity:1;visibility:visible"/><path d="M309.025 197.402 77.11 277.682M440.894 301.271l-2.197-3.476M442.964 298.839l1.726-.051M436.728 297.138l.258 16.241M423.791 312.99l13.195.389M434.79 527.546l3.31 6.027M441.218 542l-3.118-8.427M240.762 242.383l-3.19-5.222M244.002 246.032l-9.352.804M237.546 457.887l2.179-5.83M237.547 457.888l2.178-5.831" style="fill:none;stroke:#00ff4a;stroke-width:.999997;stroke-linecap:round;stroke-linejoin:round;stroke-miterlimit:4;stroke-dasharray:none;stroke-opacity:1;visibility:visible"/><path d="m245.818 451.705 5.552 5.767M250.765 215.722l3.858 15.427M240.762 242.383l-8.809-3.211M438.1 533.573l-3.31-6.027M405.642 516.41l6.565 2.515M412.207 518.925l-6.565-2.515M272.121 465.398l-6.856-2.626" style="fill:none;stroke:#00ff4a;stroke-width:1.99999;stroke-linecap:round;stroke-linejoin:round;stroke-miterlimit:4;stroke-dasharray:none;stroke-opacity:1;visibility:visible"/><path d="m438.1 533.573-3.354-13.435M438.1 533.573l-3.37-18.095M423.791 312.99l9.804-7.607" style="fill:none;stroke:#00ff4a;stroke-width:.999997;stroke-linecap:round;stroke-linejoin:round;stroke-miterlimit:4;stroke-dasharray:none;stroke-opacity:1;visibility:visible"/><path d="m423.791 312.99 9.856.256M404.57 303.056l5.716 1.995M410.286 305.051l-5.716-1.995" style="fill:none;stroke:#00ff4a;stroke-width:1.99999;stroke-linecap:round;stroke-linejoin:round;stroke-miterlimit:4;stroke-dasharray:none;stroke-opacity:1;visibility:visible"/><path d="m406.624 323.123 1.973 9.098M407.08 312.979l1.95 8.678M407.17 309.145l2.326-.659M303.274 453.607l-2.916.85M276.382 443.441l2.988 3.041M299.929 271.795l-3.025-2.434M272.567 262.183l2.951-.326M327.41 462.757l-2.14 1.136M300.325 452.495l2.986 3.076M324.497 280.414l-2.25-2.158M296.92 270.732l2.988-.306M386.146 484.982l-2.213 1.12M359.361 474.51l2.25 3.147M384.274 301.424l-2.288-2.197M357.024 291.524l2.227-.272M410.896 494.345l-2.234 1.136M383.913 483.796l2.252 3.15M406.624 323.123l-.477 12.319M408.597 332.221l-1.973-9.098M407.08 312.978l.074-4.916M381.986 300.29l2.27-.258" style="fill:none;stroke:#00ff4a;stroke-width:.999997;stroke-linecap:round;stroke-linejoin:round;stroke-miterlimit:4;stroke-dasharray:none;stroke-opacity:1;visibility:visible"/><path d="m436.986 313.379-.258-16.241" style="fill:none;stroke:#00ff4a;stroke-width:1.99999;stroke-linecap:round;stroke-linejoin:round;stroke-miterlimit:4;stroke-dasharray:none;stroke-opacity:1;visibility:visible"/><path d="m73.881 279.036-4.699-.046M74.888 278.097l-5.706.893M65.29 288.996l4.126-4.066M75.175 293.27l-5.759-8.34" style="fill:none;stroke:#00ff4a;stroke-width:.999997;stroke-linecap:round;stroke-linejoin:round;stroke-miterlimit:4;stroke-dasharray:none;stroke-opacity:1;visibility:visible"/><path d="m250.623 209.948 1.384 2.957M250.316 209.442l1.691 3.463" style="fill:none;fill-opacity:1;fill-rule:nonzero;stroke:#00ff4a;stroke-width:1.33333;visibility:visible"/><path d="m250.316 209.442.85 4.976M238.96 213.113l5.846 1.107M240.67 212.934l4.443 2.903" style="fill:none;stroke:#00ff4a;stroke-width:.666665;stroke-linecap:round;stroke-linejoin:round;stroke-miterlimit:4;stroke-dasharray:none;stroke-opacity:1;visibility:visible"/><path d="m240.67 212.934 1.383 2.956M240.361 212.429l1.692 3.461" style="fill:none;fill-opacity:1;fill-rule:nonzero;stroke:#00ff4a;stroke-width:1.33333;visibility:visible"/><path d="m240.361 212.429.852 4.977M238.96 213.113l-4.109 4.095M240.67 212.934l-5.51 5.891" style="fill:none;stroke:#00ff4a;stroke-width:.666665;stroke-linecap:round;stroke-linejoin:round;stroke-miterlimit:4;stroke-dasharray:none;stroke-opacity:1;visibility:visible"/></svg>