<svg xmlns="http://www.w3.org/2000/svg" baseProfile="full" height="1122.52" preserveAspectRatio="xMinYMin meet" style="width:765px;height:943px" width="793.701" xml:space="preserve"><path d="m361.97 244.256-.022-1.37M223.462 374.993l.05 1.92M223.462 374.993l-.044-1.156-.045-1.154-.095-1.13M223.28 371.553l-.472-5.995-.463-6.032-.436-6.064-.394-6.083-.378-6.118-.339-6.142-.344-6.172-.29-6.196-.265-6.225-.254-6.248-.219-6.265-.196-6.319-.16-6.316-.151-6.352-.105-6.39-.09-6.391-.051-6.425-.039-6.46v-6.485l.019-6.495.056-6.516.07-6.554.106-6.572.148-6.586.162-6.61.175-6.636.217-6.66M191.633 360.211l-.083-.034-.078-.057-.034-.055-.016-.07M219.587 200.246l.035-1.242v-1.224l-.01-1.223M219.61 196.557l-.023-1.336M308.885 405.642l.034 1.926M276.52 394.031l.041 1.927M308.885 405.642l-.015-1.17-.056-1.152-.068-1.15M276.52 394.031l-.036-1.168-.047-1.153-.079-1.132M305.665 256.603l.148-5.4.16-5.421.199-5.429.195-5.441.219-5.474M308.743 402.17l-.413-6.03-.393-6.083-.382-6.104-.342-6.123-.327-6.155-.287-6.192-.268-6.205-.23-6.248-.217-6.267-.201-6.298-.16-6.322-.126-6.352-.112-6.371-.085-6.407-.055-6.423-.023-6.447v-6.48l.023-6.498M276.36 390.578l-.452-6.035-.406-6.061-.401-6.085-.359-6.122-.345-6.134-.323-6.176-.288-6.195-.255-6.223-.245-6.265-.203-6.284-.177-6.3-.161-6.335-.128-6.373-.104-6.387-.076-6.412-.05-6.425-.036-6.46.015-6.496.021-6.52.07-6.531.07-6.553.106-6.59.147-6.586.162-6.638.197-6.643.232-6.684.239-6.696M306.586 229.438l.048-1.256.023-1.241-.023-1.227M273.61 218.369l.035-1.239.013-1.242v-1.223M306.634 225.714l-.014-1.348M273.658 214.664l-.013-1.351M363.172 425.12l-.014-1.187-.035-1.154-.077-1.153M363.047 421.626l-.373-6.066-.366-6.104-.338-6.136-.31-6.177-.265-6.188-.275-6.208-.212-6.25-.217-6.281-.183-6.318-.14-6.316-.127-6.375-.091-6.387-.07-6.409-.058-6.446-.012-6.459.013-6.497.037-6.52.055-6.531.09-6.567.107-6.591.148-6.623.174-6.644.12-4.01M361.88 247.998l.054-1.257.036-1.263v-1.222M361.97 244.256l-.022-1.37M226.338 372.651l-.484-6.014-.45-6.028-.43-6.052-.399-6.095-.375-6.107-.343-6.155-.324-6.159-.31-6.211-.266-6.224-.232-6.25-.22-6.279-.195-6.3-.163-6.339-.146-6.35-.106-6.376-.07-6.403-.078-6.427-.016-6.462v-6.48l.016-6.5.056-6.53.07-6.538.113-6.568.141-6.608.163-6.607.183-6.637.21-6.66M244.935 208.758l.035-1.238.015-1.242-.015-1.225M222.682 201.292l.043-1.25V197.6M244.97 205.053l-.02-1.332M222.725 197.6l-.043-1.334M189.762 374.109l192.205 69.243M184.868 377.709l197.114 71.169M273.426 392.92l.033 1.921M251.433 385.031l.034 1.927M273.426 392.92l-.035-1.178-.036-1.149-.09-1.13M251.433 385.031l-.034-1.168-.057-1.153-.07-1.132M273.265 389.462l-.428-6.03-.435-6.054-.396-6.08-.359-6.12-.365-6.14-.303-6.173-.288-6.188-.268-6.235-.238-6.262-.212-6.261-.18-6.316-.164-6.34-.147-6.353-.105-6.391-.071-6.406-.056-6.426-.013-6.462v-6.479l.013-6.516.07-6.536.08-6.553.102-6.585.148-6.604.163-6.627.197-6.645.211-6.66.238-6.694M251.271 381.578l-.471-6.013-.429-6.046-.414-6.066-.38-6.103-.359-6.139-.345-6.156-.3-6.192-.274-6.21-.248-6.227-.24-6.283-.196-6.28-.184-6.322-.14-6.348-.126-6.379-.09-6.388-.072-6.423-.036-6.443-.02-6.466.02-6.499.056-6.514.052-6.551.112-6.571.126-6.591.141-6.603.181-6.627.198-6.656.232-6.678M270.46 217.328l.048-1.263v-2.46M248.065 209.804l.034-1.244.023-1.24-.023-1.226M270.509 213.605l-.015-1.335M248.1 206.096l-.016-1.331M308.885 405.642l.034 1.926M276.52 394.031l.041 1.927" style="fill:none;stroke:red;stroke-width:.999997;stroke-linecap:round;stroke-linejoin:round;stroke-miterlimit:4;stroke-dasharray:none;stroke-opacity:1;visibility:visible"/><path d="m308.885 405.642-.015-1.17-.056-1.152-.068-1.15M276.52 394.031l-.036-1.168-.047-1.153-.079-1.132M306.634 225.714l-.014-1.348M273.658 214.664l-.013-1.351M334.373 414.791l.024 1.921M312.02 406.756l.014 1.946M334.373 414.791l-.034-1.193-.037-1.155-.068-1.13M312.02 406.756l-.035-1.164-.036-1.156-.076-1.153M334.233 411.314l-.4-5.87-.361-5.888-.335-5.92-.32-5.958-.293-5.958-.288-6.013-.24-6.012-.231-6.062-.196-6.068-.162-6.1-.146-6.14-.128-6.155-.106-6.176-.07-6.21-.057-6.226-.014-6.247v-6.281l.037-6.3.034-6.319.09-6.35.086-6.378.127-6.389.159-6.407.184-6.425M308.942 253.456l.183-5.711.195-5.736.21-5.744.24-5.76M311.873 403.283l-.415-5.919-.393-5.958-.36-5.977-.343-6.031-.302-6.03-.29-6.067-.273-6.098-.232-6.121-.218-6.142-.176-6.187-.161-6.196-.147-6.224-.108-6.248-.09-6.282-.056-6.3-.035-6.32v-6.352l.02-6.374.036-6.404M309.771 230.504l.035-1.242.016-1.258v-1.224M309.822 226.78l-.016-1.354M360.796 423.912l.022 2.286M337.51 415.902l.014 1.94M360.796 423.912l-.014-1.188-.035-1.169-.079-1.153M337.51 415.902l-.022-1.17-.057-1.151-.048-1.153M360.67 420.402l-.372-6.083-.368-6.084-.336-6.14-.308-6.157-.29-6.188-.244-6.21-.24-6.247-.198-6.283-.182-6.3-.16-6.32-.12-6.35-.094-6.389-.076-6.413-.048-6.443-.024-6.442v-6.498l.037-6.514.056-6.535.092-6.552.127-6.59.125-6.625.176-6.624.057-1.865M358.523 270.593l.115-3.513.252-6.714.27-6.714.306-6.752M337.383 412.428l-.416-6.03-.357-6.046-.36-6.1-.33-6.109-.303-6.156-.264-6.173-.243-6.19-.23-6.228-.184-6.265-.173-6.28-.151-6.298-.105-6.34-.09-6.371-.072-6.375-.033-6.421-.022-6.425.022-6.481.048-6.483.056-6.515.106-6.532.113-6.571.162-6.569.16-6.607.219-6.645M359.467 246.9l.056-1.28.015-1.255v-1.261M359.538 243.104v-1.028M363.172 425.12l.023 1.942M361.88 247.998l.054-1.257.036-1.263v-1.222M370.466 244.722l10.582 3.548M289.571 217.652l42.032 14.056M223.462 374.993l.05 1.92M223.462 374.993l-.044-1.156-.045-1.154-.095-1.13M219.61 196.557l-.023-1.336M248.374 383.92l.036 1.921M226.522 376.087l.035 1.926M248.374 383.92l-.041-1.158-.05-1.149-.092-1.134M226.522 376.087l-.032-1.166-.081-1.141-.07-1.13M248.191 380.48l-.471-6.016-.43-6.044-.413-6.067-.38-6.1-.359-6.14-.337-6.154-.311-6.179-.287-6.21-.253-6.244-.231-6.263-.198-6.281-.184-6.319-.14-6.356-.127-6.37-.09-6.395-.074-6.402-.032-6.446-.021-6.481.021-6.478.033-6.532.051-6.538.112-6.553.105-6.586.162-6.605.163-6.641.219-6.643.216-6.68" style="fill:none;stroke:red;stroke-width:.999997;stroke-linecap:round;stroke-linejoin:round;stroke-miterlimit:4;stroke-dasharray:none;stroke-opacity:1;visibility:visible"/><path d="m371.386 432.712.07.042.162.121.161.127.141.141.15.165.138.159.126.184.113.18.104.18.093.177.092.206.07.196.056.193.036.16M370.751 434.943l.057.165.034.16v.162l-.019.148-.072.125-.088.088-.128.05-.141.024-.148-.034-.139-.055-.15-.11-.124-.128-.109-.143-.09-.16-.048-.179v-.305l.048-.144.09-.112.108-.053.126-.032h.15l.137.032.149.088.141.11.112.143.104.16M292.109 404.218l.056.058.16.128.165.122.147.142.138.162.128.165.127.181.107.18.11.18.086.176.077.2.07.198.055.198.036.146M291.447 406.415l.07.165.037.16v.161l-.036.142-.07.128-.092.093-.103.056h-.15l-.14-.02-.15-.056-.125-.106-.126-.128-.105-.144-.092-.16-.056-.166-.014-.158.015-.162.055-.128.07-.108.112-.07.127-.038.128.02.161.037.14.069.127.128.127.125.09.16M207.08 373.693l.07.037.161.125.147.143.14.145.127.144.15.179.103.163.107.178.112.187.083.196.079.176.071.199.035.198.035.147M206.398 375.837l.07.16.036.16v.165l-.034.143-.057.105-.093.093-.105.058-.125.014-.143-.037-.147-.053-.14-.088-.125-.128-.115-.144-.07-.165-.048-.16-.022-.161.022-.162.035-.127.07-.108.106-.07.125-.036.127.018.148.036.14.07.127.11.127.142.091.165M201.946 186.296l.077.166.035.176v.162l-.021.142-.07.128-.092.088-.105.075-.127.02-.148-.02-.14-.053-.147-.11-.125-.128-.109-.142-.09-.162-.049-.176-.022-.166.023-.163.034-.123.092-.11.084-.091.127-.037h.146l.141.037.15.073.125.128.127.123.084.163M290.885 215.38v.058M288.693 215.31l.07.162.035.18v.161l-.035.145-.05.126-.113.093-.103.067-.15.02-.14-.02-.147-.067-.14-.093-.129-.127-.106-.144-.09-.177-.055-.164-.015-.18.014-.142.056-.144.07-.11.108-.087.124-.04h.149l.14.04.147.087.14.11.127.144.093.16M371.836 242.456h0M369.62 242.365l.048.183.043.16v.181l-.02.144-.07.127-.116.084-.103.076-.142.017-.146-.035-.164-.058-.136-.084-.13-.127-.112-.163-.09-.16-.05-.182-.021-.163.02-.163.05-.144.077-.104.126-.09.13-.038h.136l.15.054.16.074.12.104.126.144.114.163" style="fill:none;stroke:red;stroke-width:.666665;stroke-linecap:round;stroke-linejoin:round;stroke-miterlimit:4;stroke-dasharray:none;stroke-opacity:1;visibility:visible"/><path d="m190.789 367.158-.036-1.079M191.598 363.43l.055 2.053M191.597 363.43l-.015-.697-.02-.691-.048-.677-.044-.687-.05-.683M191.42 359.995l-.4-4.628-.372-4.642-.366-4.662-.336-4.682-.325-4.698-.324-4.713-.288-4.735-.287-4.755-.272-4.747-.25-4.793-.24-4.785-.211-4.822-.201-4.824-.2-4.846-.16-4.858-.162-4.879-.126-4.875-.126-4.916-.104-4.917-.096-4.927-.07-4.951-.068-4.972-.036-4.967-.02-4.949-.022-4.949.022-4.966.02-4.972.036-5.001.049-5.007.077-5.02.084-5.025.092-5.034.126-5.062.128-5.078.16-5.074M187.173 185.56l-.041-1.207M191.296 365.338l.36.145M191.296 365.338h-.091l-.093.019-.092.073-.084.11-.076.125-.05.122-.036.15-.021.142M190.789 367.158l-.036-1.079M355.852 239.842l14.578 4.87M202.418 188.616l88.122 29.486M185.029 182.785l16.72 5.597M184.938 182.621l.022.075.034.069.036.02M184.882 179.938l.056 2.683M191.597 363.43l.056 2.053M187.153 189.265v-.376l.021-.037v-.939l.014-.033v-1.44l-.014-.036v-.844M187.173 185.56l-.041-1.207M190.072 366.893l191.714 68.885M189.96 366.909l.056-.019h.056M189.6 367.391l.025-.108.033-.09.056-.086.05-.077.196-.121" style="fill:none;stroke:red;stroke-width:.999997;stroke-linecap:round;stroke-linejoin:round;stroke-miterlimit:4;stroke-dasharray:none;stroke-opacity:1;visibility:visible"/><path d="m189.6 374.465.072-.071.056-.09.036-.09v-.107l-.164-6.716M184.868 377.709v-.095l.034-.107.056-.087.07-.057 4.571-2.898M185.192 384.493l-.072-.031-.034-.077-.033-.09-.024-.104-.161-6.481M191.296 365.338l190.384 68.368M191.296 365.338h-.091l-.093.019-.092.073-.084.11-.076.125-.05.122-.036.15-.021.142" style="fill:none;stroke:red;stroke-width:.999997;stroke-linecap:round;stroke-linejoin:round;stroke-miterlimit:4;stroke-dasharray:none;stroke-opacity:1;visibility:visible"/><path d="m289.97 407.226-.112-.184-.105-.19-.091-.185-.07-.199-.072-.198-.055-.194-.035-.18-.023-.201-.013-.198v-.178l.013-.179.043-.162.036-.166.05-.16.076-.144.07-.126.105-.122.093-.11.125-.092.125-.09.13-.073.14-.053.147-.034.139-.016h.324l.163.032.16.04.166.046.18.082.162.066.159.106.11.054M208.5 375.909l.024.033.011.196.022.182v.18l-.022.182-.012.182-.056.157-.037.144-.07.145-.077.145-.086.11-.112.104-.106.111-.124.07-.129.071-.128.058-.138.034-.149.02-.16.017-.163-.017-.139-.02-.163-.035-.183-.056-.16-.07-.163-.072-.162-.111-.16-.104-.15-.11-.159-.145-.142-.145-.15-.145-.139-.195-.161-.216M204.957 376.609l-.107-.18-.089-.199-.092-.179-.07-.197-.059-.197-.055-.197-.035-.185-.035-.195v-.36l.02-.18.036-.162.034-.165.058-.16.071-.127.09-.147.088-.102.089-.112.126-.09.106-.07.146-.073.128-.052.14-.039.148-.016h.162l.161.015.163.02.161.052.161.055.16.07.163.097.164.084.09.072M204.071 187.502l-.014.106-.068.16-.08.144-.084.145-.095.108-.11.112-.119.104-.124.075-.128.07-.15.056-.139.032-.16.022h-.148l-.162-.022-.176-.016-.161-.05-.168-.059-.162-.07-.176-.089-.162-.089-.165-.128-.146-.121-.161-.152-.139-.142-.13-.161-.159-.216-.151-.215M200.435 187.106l-.105-.18-.09-.2-.093-.196-.071-.216-.056-.202-.036-.192-.034-.2-.014-.18v-.203l.014-.177.02-.162M290.885 215.438v.034l.034.197v.397l-.012.178-.036.184-.057.166-.056.16-.07.16-.09.127-.108.124-.104.108-.112.11-.128.085-.14.074-.148.039-.14.052-.161.02h-.324l-.183-.039-.163-.033-.174-.055-.163-.07-.183-.091-.161-.092-.161-.108-.162-.125-.162-.144-.147-.142-.141-.16-.163-.221-.147-.213M287.123 216.16l-.105-.203-.09-.197-.094-.195-.069-.2-.056-.2-.05-.195-.034-.217-.022-.196v-.179l.022-.2.014-.182v-.016M371.836 242.456v.053l.014.2.02.197v.179l-.02.195-.036.184-.056.16-.05.169-.076.159-.085.14-.09.128-.127.106-.106.11-.148.091-.126.069-.142.056-.16.054-.163.015-.161.017-.162-.017-.182-.015-.162-.036-.183-.056-.175-.073-.184-.073-.16-.104-.165-.107-.181-.127-.14-.146-.162-.146-.148-.16-.162-.214-.162-.22M367.996 243.242l-.105-.19-.105-.202-.078-.198-.084-.198-.056-.194-.056-.223-.036-.197-.013-.196v-.38l.035-.195v-.057M372.896 434.943l.015.037.019.202.016.178.021.198-.021.182-.016.18-.055.161-.035.161-.07.148-.067.142-.095.131-.113.117-.105.091-.127.092-.125.073-.143.056-.147.05-.16.036h-.325l-.161-.018-.163-.036-.181-.032-.162-.077-.176-.067-.16-.093-.186-.112-.16-.125-.142-.123-.16-.143-.15-.142-.16-.203-.162-.216" style="fill:none;stroke:red;stroke-width:.666665;stroke-linecap:round;stroke-linejoin:round;stroke-miterlimit:4;stroke-dasharray:none;stroke-opacity:1;visibility:visible"/><path d="m369.24 435.791-.126-.197-.09-.18-.107-.2-.069-.195-.081-.201-.047-.198-.036-.18-.034-.196v-.557l.034-.179.036-.16.05-.168.076-.14.086-.147.091-.125.112-.106.105-.095.127-.085.125-.074.142-.053.148-.035.161-.038h.325l.162.02.18.036.162.05.176.075.162.09.184.088.09.071M293.571 406.452l.015.04.02.193.013.198v.36l-.033.165-.037.182-.049.14-.075.161-.071.129-.09.126-.094.106-.12.108-.112.09-.14.07-.128.056-.145.036-.163.02-.142.018h-.161l-.161-.038-.161-.02-.184-.056-.163-.069-.16-.072-.183-.088-.162-.11-.162-.125-.14-.131-.161-.137-.127-.166-.184-.198-.14-.216" style="fill:none;stroke:red;stroke-width:.666665;stroke-linecap:round;stroke-linejoin:round;stroke-miterlimit:4;stroke-dasharray:none;stroke-opacity:1;visibility:visible"/><path d="m206.377 187.137 173.663 58.072M180.04 178.314l21.28 7.139M292.626 558.508h0" style="fill:none;stroke:red;stroke-width:1.99999;stroke-linecap:round;stroke-linejoin:round;stroke-miterlimit:4;stroke-dasharray:none;stroke-opacity:1;visibility:visible"/><path d="m296.134 565.06-.179-.053-.164-.094-.16-.105-.164-.141-.14-.148-.13-.162-.109-.182-.087-.176-.072-.162-.039-.182-.015-.163-.017-.175.017-.147.055-.14.056-.15.068-.104.09-.093.108-.07.108-.056.13-.034.14-.023h.144l.144.023.145.034.147.056.139.07.147.093.122.104.127.105.128.127.109.148.087.14.093.163.073.162.05.16.021.182.017.162-.017.148-.02.143-.05.147-.075.118-.109.128-.128.094-.122.053-.163.06h-.328l-.177-.06M296.209 570.677l-.164-.076-.185-.084-.16-.112-.141-.125-.149-.14-.14-.164-.107-.184-.09-.175-.055-.182-.055-.163-.017-.182v-.162l.017-.161.039-.142.053-.125.088-.113.092-.084.09-.078.129-.05.121-.035.127-.02h.145l.14.02.147.035.145.05.142.078.146.084.143.09.127.128.106.126.11.128.107.148.077.161.069.173.05.164.041.163v.322l-.042.15-.048.14-.071.125-.11.112-.111.084-.142.076-.144.038-.162.014-.18-.014-.177-.038M302.111 561.552l-1.801-.528-1.783-.554-1.765-.555-1.744-.579-1.73-.595-1.689-.613-1.691-.627M302.289 574.281l-.179-12.728" style="fill:none;stroke:red;stroke-width:.999997;stroke-linecap:round;stroke-linejoin:round;stroke-miterlimit:4;stroke-dasharray:none;stroke-opacity:1;visibility:visible"/><path d="M289.545 557.284h0" style="fill:none;stroke:red;stroke-width:1.99999;stroke-linecap:round;stroke-linejoin:round;stroke-miterlimit:4;stroke-dasharray:none;stroke-opacity:1;visibility:visible"/><path d="m303.731 561.277-.125.113-.147.07-.159.07-.18.056-.199.015-.214.022h-.197l-.201-.038-.199-.033M292.695 558.53h0M292.786 558.564h0M297.357 560.11h0M302.202 561.565h0M303.731 561.277l1.709-1.78" style="fill:none;stroke:red;stroke-width:.999997;stroke-linecap:round;stroke-linejoin:round;stroke-miterlimit:4;stroke-dasharray:none;stroke-opacity:1;visibility:visible"/><path d="m289.907 557.501-.162-.077-.127-.07-.09-.106-.069-.113-.019-.106" style="fill:none;stroke:red;stroke-width:1.99999;stroke-linecap:round;stroke-linejoin:round;stroke-miterlimit:4;stroke-dasharray:none;stroke-opacity:1;visibility:visible"/><path d="M302.289 574.281v.124l.037.12.039.095.05.053.075.037" style="fill:none;stroke:red;stroke-width:.999997;stroke-linecap:round;stroke-linejoin:round;stroke-miterlimit:4;stroke-dasharray:none;stroke-opacity:1;visibility:visible"/><path d="m290.429 555.448.089-.09.127-.058.124-.035.141-.014.165.014M305.603 572.436l-.02.17-.05.159-.113.109" style="fill:none;stroke:red;stroke-width:1.99999;stroke-linecap:round;stroke-linejoin:round;stroke-miterlimit:4;stroke-dasharray:none;stroke-opacity:1;visibility:visible"/><path d="m305.475 559.428-.018.036-.018.036M304.649 558.564l.034-.034h.037" style="fill:none;stroke:red;stroke-width:.999997;stroke-linecap:round;stroke-linejoin:round;stroke-miterlimit:4;stroke-dasharray:none;stroke-opacity:1;visibility:visible"/><path d="m291.075 555.267.038-.037h.036M305.64 572.365v.036l-.036.035" style="fill:none;stroke:red;stroke-width:1.99999;stroke-linecap:round;stroke-linejoin:round;stroke-miterlimit:4;stroke-dasharray:none;stroke-opacity:1;visibility:visible"/><path d="M292.66 558.53h0" style="fill:none;stroke:red;stroke-width:.999997;stroke-linecap:round;stroke-linejoin:round;stroke-miterlimit:4;stroke-dasharray:none;stroke-opacity:1;visibility:visible"/><path d="M289.44 557.03h0" style="fill:none;stroke:red;stroke-width:1.99999;stroke-linecap:round;stroke-linejoin:round;stroke-miterlimit:4;stroke-dasharray:none;stroke-opacity:1;visibility:visible"/><path d="m436.046 409.56-.071-.038h-.125M430.919 437.726v.09l-.033.091-.056.07M445.679 415.675l-1.152.495-1.133.498-1.096.52-1.084.526-1.047.556-1.005.556-.972.576-.955.598-.9.612-.879.611-.852.633-.808.647-.773.645-.739.647-.702.683-.647.69M304.72 558.529l-12.11-2.938M304.72 558.53l.125.033.125.071.13.072.11.089.087.13.07.105.054.125.037.148.017.125.145 10.815" style="fill:none;stroke:red;stroke-width:.999997;stroke-linecap:round;stroke-linejoin:round;stroke-miterlimit:4;stroke-dasharray:none;stroke-opacity:1;visibility:visible"/><path d="m458.419 401.803 3.923 2.285" style="fill:none;stroke:red;stroke-width:1.99999;stroke-linecap:round;stroke-linejoin:round;stroke-miterlimit:4;stroke-dasharray:none;stroke-opacity:1;visibility:visible"/><path d="m458.419 401.803-.127-.092-.084-.09-.04-.108-.016-.111.056-.083.072-.115.124-.092.142-.069" style="fill:none;stroke:red;stroke-width:.999997;stroke-linecap:round;stroke-linejoin:round;stroke-miterlimit:4;stroke-dasharray:none;stroke-opacity:1;visibility:visible"/><path d="m463.896 404.158-.184.057-.196.033-.216.038h-.22l-.197-.038-.217-.033-.176-.057-.148-.07M463.896 404.158l96.139-39.473" style="fill:none;stroke:red;stroke-width:1.99999;stroke-linecap:round;stroke-linejoin:round;stroke-miterlimit:4;stroke-dasharray:none;stroke-opacity:1;visibility:visible"/><path d="m178.326 386.571.232.13.218.089M178.649 381.749l-.25-.071-.255-.041-.249-.014-.239.014-.214.078-.197.092-.181.106-.162.16-.145.185-.121.195M182.069 368.715l.684 26.156M173.733 159.342l.02.395M180.16 155.596l.127 5.172M352.391 442.739l.147-.199.16-.182.2-.126.217-.106.252-.056.255-.012.265.012.268.056.29.106.27.148.269.16.256.22.251.231.219.252.21.29.163.287.161.324.112.303.07.323.057.31.013.302-.034.288-.056.273-.086.255-.124.21-.165.204-.181.142-.22.124-.229.072-.255.034h-.252l-.267-.033-.287-.073-.269-.124-.275-.162-.266-.184-.254-.23-.233-.235-.216-.272-.185-.303-.16-.288-.14-.324-.09-.309-.072-.324-.02-.303v-.309l.035-.268.091-.272.104-.232M207.026 389.997l.124-.198.164-.159.196-.149.197-.105.235-.056.25-.022.255.022.269.056.272.082.247.15.271.162.255.196.232.231.217.253.197.29.18.287.143.309.108.303.093.309.034.302.02.311-.02.289-.05.264-.093.234-.109.24-.144.176-.18.16-.199.113-.215.09-.233.039h-.252l-.271-.038-.272-.076-.266-.128-.251-.14-.273-.196-.231-.219-.236-.232-.197-.275-.2-.289-.144-.287-.14-.3-.094-.326-.073-.308-.035-.303v-.288l.035-.276.073-.265.111-.233M458.546 401.768v-.725M430.935 425.168 305.42 559.175M569.625 364.706l-123.947 50.97M458.439 401.815l.059-.013.048-.035M457.772 407.02l.163-.163.127-.161.09-.16.036-.186v-.175l-.036-.161-.09-.182-.127-.162-.176-.14-.205-.15-.246-.125-.274-.127-.302-.09-.31-.07-.337-.071-.342-.035-.361-.023-.363.023-.361.013-.338.056-.324.07-.308.079-.288.104-.254.127-.211.125-.203.164-.141.162-.105.161-.076.161-.018.183.036.176.058.163.104.181.16.141.185.162.232.126.253.126.288.113.303.085.344.078.337.034.344.036h.359l.359-.02.345-.038.345-.055.322-.07.289-.105.268-.113.253-.12.196-.147M179.458 161.252l-.052.017-.053.039-.144.05-.127.015-.125.023-.145.017h-.072l-.074-.017M178.666 161.396h0" style="fill:none;stroke:red;stroke-width:.999997;stroke-linecap:round;stroke-linejoin:round;stroke-miterlimit:4;stroke-dasharray:none;stroke-opacity:1;visibility:visible"/><path d="m178.666 161.396-.09-.022-.071-.017-.035-.032-.017-.04v-.033l.036-.055M178.488 161.197v.141M178.489 161.197l.085-.127.058-.11.034-.122-.016-.111-.037-.108-.075-.107-.102-.09-.127-.109-.145-.072-.162-.091-.182-.073-.183-.07-.212-.053-.217-.054-.232-.054-.236-.036-.287-.056-.268-.017-.272-.017h-.27l-.288.017-.306.017-.27.056-.27.052M174.506 159.862l-.121.02-.11.018h-.112l-.106-.02-.105-.034-.112-.052M173.842 159.794h-.016M173.826 159.794l-.11-.073-.071-.093-.016-.07v-.072l.035-.073.034-.032.036-.037M180.16 155.596l.053-.036.056-.015.144-.02h.127l.122.02.146.016.074.035.07.041M180.953 155.637h0M180.953 155.637l.017.717M180.953 155.637l.09.053.069.052.041.07.015.057v.057l-.031.07M181.136 155.996l-.094.142-.052.143-.02.164.02.145.035.142.07.126.112.143.126.129.143.107.16.087.181.092.179.073.199.052.235.039.234.033.232.039h.56l.269-.019.25-.037.311-.056.283-.07.288-.07.272-.092M185.129 157.31l.108-.038.108-.018.107-.017.108-.017h.108l.108.017M185.777 157.237h.019M185.796 157.237h.054l.054.017.073.036.015.034v.056l-.032.056-.04.017-.034.035M181.942 366.338l.054.795.038.793.036.79M177.426 193.168l-.18 6.494-.16 6.463-.126 6.444-.11 6.444-.092 6.407-.05 6.374-.02 6.374v6.332l.02 6.318.032 6.3.074 6.282.107 6.246.127 6.227.142 6.21.18 6.191.199 6.157.235 6.123.254 6.117.27 6.083.305 6.053.324 6.044.34 5.992.379 5.999.416 5.933.413 5.945.45 5.905.486 5.864.503 5.849M177.442 190.609v1.69l-.017.87M176.722 163.284l.72 27.325M176.722 163.284l13.195-7.724M179.476 386.92l.253-.023.253-.057.214-.104.198-.126.18-.184.144-.197.108-.232.09-.267.036-.276.017-.301-.017-.31-.054-.322-.072-.324-.125-.323-.143-.325-.181-.307-.199-.29-.214-.268-.235-.254-.272-.216-.267-.196-.272-.141-.27-.128" style="fill:none;stroke:red;stroke-width:.999997;stroke-linecap:round;stroke-linejoin:round;stroke-miterlimit:4;stroke-dasharray:none;stroke-opacity:1;visibility:visible"/><path d="M190.042 155.42v.018l-.017.035-.013.017-.022.018-.037.017-.037.036" style="fill:none;stroke:red;stroke-width:1.99999;stroke-linecap:round;stroke-linejoin:round;stroke-miterlimit:4;stroke-dasharray:none;stroke-opacity:1;visibility:visible"/><path d="M384.226 233.916v.232M388.76 229.489l.024 4.555M178.666 160.818v.578M173.302 160.096h.018M169.776 161.413l-.074-.056-.052-.03-.036-.059-.036-.036-.02-.054v-.053M173.053 169.728l-.29-.075-.27-.033h-.273l-.267.054-.235.096-.214.12-.184.163-.178.217-.125.231-.108.253-.072.287-.033.307v.326l.033.323.072.341.108.34.125.326.179.324.183.309.214.288.235.268.253.232.27.219.288.161.289.123.267.11.288.054.272.021.269-.04.237-.07.23-.107.196-.146.182-.18.166-.234.102-.236.096-.287.05-.288.019-.324-.017-.323-.051-.324-.098-.342-.101-.342-.146-.324-.178-.324-.22-.288-.214-.286-.252-.252-.271-.216-.27-.182-.269-.16-.287-.11M175.949 163.464l-.687-.07-.677-.129-.688-.139-.683-.2-.704-.236-.684-.25-.682-.307-.686-.343-.682-.377M176.722 163.284l-.052.034-.057.02-.143.054-.124.036-.128.018-.14.016h-.13" style="fill:none;stroke:red;stroke-width:.999997;stroke-linecap:round;stroke-linejoin:round;stroke-miterlimit:4;stroke-dasharray:none;stroke-opacity:1;visibility:visible"/><path d="M398.751 251.448v1.404l-.02 1.402-.035 1.443" style="fill:none;stroke:red;stroke-width:1.99999;stroke-linecap:round;stroke-linejoin:round;stroke-miterlimit:4;stroke-dasharray:none;stroke-opacity:1;visibility:visible"/><path d="m385.182 234.222.252-.108.268-.11.302-.07.33-.057.324-.053.337-.016h.357l.346.016.324.036.324.054.308.09.269.092.252.108.232.106.184.144.139.146.112.146.05.164.042.16-.042.142v.072M384.514 234.274l.125.019h.29l.141-.036.111-.035M384.226 233.916l-.056.072v.072l.034.07.056.056.106.052.128.038h.021M389.52 229.345l-.148-.021h-.141l-.147.02-.142.036-.112.036-.07.072M389.534 229.362l-.014-.017M389.856 229.633v-.073l-.032-.071-.072-.052-.09-.057-.128-.018M394.574 230.622l-.25.108-.269.109-.31.072-.323.057-.322.05-.346.019h-.339l-.343-.019-.337-.037-.33-.071-.304-.071-.267-.091-.252-.108-.218-.127-.198-.124-.147-.143-.105-.146-.058-.162-.014-.162.014-.143M395.243 230.569l-.147-.02h-.268l-.148.037-.106.036M395.258 230.569h-.015M395.532 230.912l.048-.058v-.07l-.036-.07-.069-.057-.09-.055-.128-.032M384.318 451.19h0M386.982 456.252l.288-.088.268-.106.23-.15.219-.161.183-.217.162-.211.106-.276.089-.265.037-.29.02-.31-.042-.302-.07-.31-.09-.322-.142-.301-.16-.29-.22-.29-.218-.273-.244-.231-.29-.217-.286-.198-.312-.162-.302-.127-.324-.09M385.414 456.058l.216.069.211.07.241.054M385.884 451.063l-.33-.05-.302-.019-.309.018-.304.073-.275.089-.244.129-.24.161-.194.198-.163.23-.128.254-.104.266-.056.288M390.111 439.904l.035.796.021.808.015.808.076 21.796M389.442 263.255l-.21 6.66-.216 6.643-.185 6.608-.161 6.587-.142 6.554-.146 6.531-.106 6.519-.09 6.493-.071 6.464-.057 6.428-.034 6.405-.014 6.391v12.692l.033 6.3.05 6.28.077 6.243.085 6.229.112 6.195.127 6.153.142 6.138.16 6.124.164 6.06.195 6.056.217 6.024.232 5.976.254 5.955.252 5.943M389.486 260.647v.864l-.023.862-.021.882M389.394 237.873l.092 22.774M389.394 237.873l9.305-9.124M390.236 235.5l.148.018h.142l.16-.018.126-.036.108-.036.089-.055" style="fill:none;stroke:red;stroke-width:.999997;stroke-linecap:round;stroke-linejoin:round;stroke-miterlimit:4;stroke-dasharray:none;stroke-opacity:1;visibility:visible"/><path d="M389.892 235.212v.072l.042.07.07.056.106.052.104.038h.022" style="fill:none;stroke:red;stroke-width:.999997;stroke-linecap:round;stroke-linejoin:round;stroke-miterlimit:4;stroke-dasharray:none;stroke-opacity:1;visibility:visible"/><path d="M398.808 251.34v.057l-.057.052" style="fill:none;stroke:red;stroke-width:1.99999;stroke-linecap:round;stroke-linejoin:round;stroke-miterlimit:4;stroke-dasharray:none;stroke-opacity:1;visibility:visible"/><path d="m380.984 236.22.023.072.068.076.105.05.126.035M384.999 244.789l-.323-.055h-.345l-.323.016-.302.076-.288.124-.254.144-.233.198-.195.216-.185.252-.125.269-.09.305-.051.308v.324l.035.344.071.342.105.322.146.34.198.308.22.306.244.269.276.255.3.214.312.196.343.146.325.108.336.072.326.038.342-.022.303-.055.308-.089.268-.126.253-.161.218-.215.184-.233.14-.272.104-.288.078-.307.034-.324-.019-.321-.05-.344-.092-.341-.123-.324-.187-.326-.196-.305-.23-.288-.276-.27-.287-.233-.304-.198-.323-.18-.323-.127-.344-.088M381.306 236.454l7.328 1.566M388.634 238.018l.148.019h.141l.147-.019.142-.034.104-.038.076-.073M398.696 228.749l.035-.053.02-.054" style="fill:none;stroke:red;stroke-width:.999997;stroke-linecap:round;stroke-linejoin:round;stroke-miterlimit:4;stroke-dasharray:none;stroke-opacity:1;visibility:visible"/><path d="m398.751 255.605-.02.037-.035.055" style="fill:none;stroke:red;stroke-width:1.99999;stroke-linecap:round;stroke-linejoin:round;stroke-miterlimit:4;stroke-dasharray:none;stroke-opacity:1;visibility:visible"/><path d="M464.466 423.818h0M386.08 456.126l-.02-4.408M386.132 451.499l.162-.181M385.252 456.068l.071.072M361.17 231.037l19.814 6.605M179.873 170.612l156.997 52.324M389.935 235.052v.286" style="fill:none;stroke:red;stroke-width:.999997;stroke-linecap:round;stroke-linejoin:round;stroke-miterlimit:4;stroke-dasharray:none;stroke-opacity:1;visibility:visible"/><path d="m463.77 423.207-.127-.044h-.113l-.14.044" style="fill:none;stroke:red;stroke-width:1.99999;stroke-linecap:round;stroke-linejoin:round;stroke-miterlimit:4;stroke-dasharray:none;stroke-opacity:1;visibility:visible"/><path d="m464.579 424.303.035-.036.036-.021h.069l.035.057.02.033.023.051.014.077v.071l.019.09v.107M460.296 427.29h0M459.879 427.56h0M462.503 425.847h0" style="fill:none;stroke:red;stroke-width:.999997;stroke-linecap:round;stroke-linejoin:round;stroke-miterlimit:4;stroke-dasharray:none;stroke-opacity:1;visibility:visible"/><path d="m459.559 427.742.304-.183.307-.197.305-.184.285-.175.507-.325.5-.323.415-.287.414-.274.38-.268.344-.254.36-.252.302-.233.162-.145.161-.107.147-.127.128-.105M464.81 424.5h0M464.83 424.731l.018-.056.019-.05M459.108 445.468l.106-.036.092-.07.092-.104.049-.128.056-.162M459.502 444.967l-.106.016h-.09l-.07-.016-.094-.041-.126-.071-.056-.05-.057-.056-.035-.071-.034-.091-.014-.09v-.107M458.822 444.391l.048-15.552" style="fill:none;stroke:red;stroke-width:.999997;stroke-linecap:round;stroke-linejoin:round;stroke-miterlimit:4;stroke-dasharray:none;stroke-opacity:1;visibility:visible"/><path d="M458.87 428.84v-.115l.02-.119.035-.112.057-.092.034-.106.07-.092.129-.16.069-.094.092-.069.09-.069.094-.071" style="fill:none;stroke:red;stroke-width:.999997;stroke-linecap:round;stroke-linejoin:round;stroke-miterlimit:4;stroke-dasharray:none;stroke-opacity:1;visibility:visible"/><path d="m464.753 440.264.023-.049.02-.057M464.466 441.726l.044-.111v-.107" style="fill:none;stroke:red;stroke-width:1.99999;stroke-linecap:round;stroke-linejoin:round;stroke-miterlimit:4;stroke-dasharray:none;stroke-opacity:1;visibility:visible"/><path d="m458.439 426.623-.055-.023-.033.023" style="fill:none;stroke:red;stroke-width:.999997;stroke-linecap:round;stroke-linejoin:round;stroke-miterlimit:4;stroke-dasharray:none;stroke-opacity:1;visibility:visible"/><path d="M463.39 423.207h-.071" style="fill:none;stroke:red;stroke-width:1.99999;stroke-linecap:round;stroke-linejoin:round;stroke-miterlimit:4;stroke-dasharray:none;stroke-opacity:1;visibility:visible"/><path d="M458.439 445.396h-.02" style="fill:none;stroke:red;stroke-width:.999997;stroke-linecap:round;stroke-linejoin:round;stroke-miterlimit:4;stroke-dasharray:none;stroke-opacity:1;visibility:visible"/><path d="M464.186 423.346h0" style="fill:none;stroke:red;stroke-width:1.99999;stroke-linecap:round;stroke-linejoin:round;stroke-miterlimit:4;stroke-dasharray:none;stroke-opacity:1;visibility:visible"/><path d="M180.54 386.469h-.021v-.022M180.504 386.503v-.09M458.348 426.623l.379-.395.395-.365.394-.357.415-.339.399-.31.393-.301.417-.276.394-.252.308-.162M457.54 428.655l-.056 15.068M457.54 428.655l.014-.175.02-.184.036-.196.036-.184.056-.196.07-.182.072-.176.09-.163.093-.161.103-.148.093-.142.127-.124M42.607 491.606l-.147-.078-.159-.105-.145-.104-.127-.15-.125-.139-.127-.16-.087-.188-.077-.182-.07-.174-.033-.163-.02-.16v-.161l.02-.164.033-.126.037-.126.072-.112.07-.071.094-.07.104-.058.11-.012.106-.021.128.02.148.015.124.055.123.059.126.068.127.09.125.108.127.106.105.145.092.128.092.14.07.162.073.162.053.16.018.164.02.16-.02.163-.018.125-.053.15-.073.125-.087.092-.11.085-.126.056-.125.036h-.146l-.164-.016-.158-.034M39.096 480.426h-.13l-.086.014-.071.078-.057.07-.036.127-.017.07v.071M45.703 482.966l-.668-.324-.63-.31-.594-.254-.578-.251-.538-.212-.507-.197-.501-.204-.484-.164-.524-.172-.504-.148-.558-.164-.521-.14M46.277 483.75l-.02-.07-.017-.09-.07-.161-.075-.142-.105-.125-.126-.107-.09-.057-.072-.032M46.404 500.078l.143-.014.126-.034.11-.08.073-.102.054-.128v-.07l.017-.071-.65-15.829M41.093 481.016h0M41.347 481.108h0M40.787 480.912h0M178.088 386.589l.109.077M177.536 386.178l.178.164.18.125.194.123M178.776 386.678l-.11-4.28M180.52 386.375l.073.035M180.504 386.411l.056.035" style="fill:none;stroke:red;stroke-width:.999997;stroke-linecap:round;stroke-linejoin:round;stroke-miterlimit:4;stroke-dasharray:none;stroke-opacity:1;visibility:visible"/><path d="M180.54 386.469v-.022h-.021v-.02M38.412 480.518l.035.084.053.093.091.09.109.071" style="fill:none;stroke:red;stroke-width:.999997;stroke-linecap:round;stroke-linejoin:round;stroke-miterlimit:4;stroke-dasharray:none;stroke-opacity:1;visibility:visible"/><path d="M40.859 478.224h-.051l-.055.042M40.085 478.408l.146-.09.159-.051.18-.021.183.021" style="fill:none;stroke:red;stroke-width:1.99999;stroke-linecap:round;stroke-linejoin:round;stroke-miterlimit:4;stroke-dasharray:none;stroke-opacity:1;visibility:visible"/><path d="m204.858 391.615.159 7.34M446.072 432.311l.023.232.048.232.09.239.127.212.148.218.162.198.176.161.198.145.218.094.196.07.217.011h.199l.18-.047.143-.09.146-.15.09-.138.071-.199.036-.196v-.24l-.037-.23-.07-.233-.089-.233-.128-.219-.161-.197-.181-.181-.2-.162-.194-.105-.218-.092-.2-.035-.194-.02-.198.034-.162.077-.148.104-.126.144-.091.183-.048.194-.023.22M450.95 426.264l6.59 2.342M398.407 407.618l24.68 8.76M48.853 482.85l.612 15.197M42.085 478.444l.375.09.54.142.54.162.559.205.541.21.54.237.557.245.486.255.466.254.487.287.47.288M47.645 480.819l.182.13.14.122.166.143.126.16.128.186.12.182.092.174.091.198.07.182.036.198.041.18.015.178M47.843 500.479l-.016.015" style="fill:none;stroke:red;stroke-width:.999997;stroke-linecap:round;stroke-linejoin:round;stroke-miterlimit:4;stroke-dasharray:none;stroke-opacity:1;visibility:visible"/><path d="M203.06 399.807v.197l-.043.174-.051.184-.09.14-.088.113-.128.105M205.017 398.955v.219l-.017.181-.055.163-.07.14-.092.106-.108.078-.125.048" style="fill:none;stroke:red;stroke-width:1.99999;stroke-linecap:round;stroke-linejoin:round;stroke-miterlimit:4;stroke-dasharray:none;stroke-opacity:1;visibility:visible"/><path d="m202.84 390.878.22 8.93M196.253 388.5 48.836 482.692" style="fill:none;stroke:red;stroke-width:.999997;stroke-linecap:round;stroke-linejoin:round;stroke-miterlimit:4;stroke-dasharray:none;stroke-opacity:1;visibility:visible"/><path d="M204.551 399.89h0M202.66 400.72h0" style="fill:none;stroke:red;stroke-width:1.99999;stroke-linecap:round;stroke-linejoin:round;stroke-miterlimit:4;stroke-dasharray:none;stroke-opacity:1;visibility:visible"/><path d="m354.903 237.12-.07.235-.09.217-.145.197-.143.16-.161.144-.196.127-.22.073-.219.05M202.074 182.958l.127-.218.162-.18.197-.162.214-.108.236-.071.253-.037.25.018.27.056.287.09.272.124.27.163.252.22.236.212.23.27.199.27.181.304.143.308.11.321.083.328.059.327.02.304-.02.304-.058.27-.085.269-.127.234-.142.2-.18.163-.199.144-.234.088-.235.053h-.272l-.25-.018-.286-.071-.268-.123-.276-.145-.247-.183-.253-.217-.236-.252-.212-.267-.182-.288-.162-.306-.146-.306-.089-.324-.072-.325-.037-.323v-.309l.037-.285.072-.27.108-.252" style="fill:none;stroke:red;stroke-width:.999997;stroke-linecap:round;stroke-linejoin:round;stroke-miterlimit:4;stroke-dasharray:none;stroke-opacity:1;visibility:visible"/><path d="M289.44 557.03v-.104l.017-.113.033-.083.037-.113.034-.093.057-.07.036-.05M289.655 556.405l.775-.955M305.42 572.873l-1.705 1.58M303.714 574.453l-.128.114-.144.07-.16.071-.18.035-.127.021h-.27l-.109-.021-.106-.035M302.49 574.708l-1.583-.45-1.55-.472-1.549-.463-1.528-.484-1.515-.509-1.492-.505-1.494-.521-1.459-.54M290.32 570.764l-.127-.05-.106-.058-.107-.069-.09-.091-.074-.092-.071-.104-.056-.15-.052-.161v-.142M289.637 569.847l-.195-12.817M289.44 557.03h0" style="fill:none;stroke:red;stroke-width:1.99999;stroke-linecap:round;stroke-linejoin:round;stroke-miterlimit:4;stroke-dasharray:none;stroke-opacity:1;visibility:visible"/><path d="m292.609 555.59-1.46-.36M305.62 570.243l.02 2.122" style="fill:none;stroke:red;stroke-width:.999997;stroke-linecap:round;stroke-linejoin:round;stroke-miterlimit:4;stroke-dasharray:none;stroke-opacity:1;visibility:visible"/><path d="m451.8 425.911-6.305 2.603M559.724 358.765l-123.876 50.757M416.892 421.674l.612-.612.611-.612.655-.61.66-.6.704-.592.7-.597.741-.575.774-.572.773-.562.808-.555.817-.541.843-.54.865-.522.864-.506.879-.499.888-.493.912-.484.936-.463.956-.452.956-.447.984-.45.992-.44 1.026-.429M445.496 428.514l-.913.372-.9.416-.887.401-.865.413-.844.43-.83.43-.807.449-.796.451-.774.469-.737.473-.717.485-.704.484-.682.485-.68.508-.657.52-.624.52-.597.54-.578.542-.556.534-.518.542M560.033 364.683l.072-4.553M560.647 359.92l.013-.727M569.28 364.017l.09.07.094.09.068.129.057.124.036.15v.125M569.625 364.706l-.185 12.381M569.441 377.087l-.013.107-.02.09-.05.059-.054.049M559.724 358.765l.07-.022.071.022.075.035M560.647 359.92l-.542.21M560.033 364.683l6.014-2.481M566.047 362.202l3.233 1.815M559.941 358.802l.719.393M290.446 555.448l.054-.07.089-.078.109-.049.11-.022.128-.013h.101l.112.014M305.64 572.365v.091l-.023.074-.012.09-.04.07-.032.078-.058.048-.034.057" style="fill:none;stroke:red;stroke-width:1.99999;stroke-linecap:round;stroke-linejoin:round;stroke-miterlimit:4;stroke-dasharray:none;stroke-opacity:1;visibility:visible"/><path d="m461.73 421.811-9.93 4.1" style="fill:none;stroke:red;stroke-width:.999997;stroke-linecap:round;stroke-linejoin:round;stroke-miterlimit:4;stroke-dasharray:none;stroke-opacity:1;visibility:visible"/><path d="M430.83 437.978 305.64 572.26M382.032 458.664l-91.01 96.553M416.892 421.674l-17.55 18.632M569.301 377.391l-107.571 44.42" style="fill:none;stroke:red;stroke-width:1.99999;stroke-linecap:round;stroke-linejoin:round;stroke-miterlimit:4;stroke-dasharray:none;stroke-opacity:1;visibility:visible"/><path d="m356.404 447.063-.16.083-.178.08-.183.046-.173.036-.206.022h-.393l-.197-.036-.199-.056-.215-.056-.22-.086-.196-.112-.217-.106-.21-.146-.199-.162-.183-.162-.195-.176-.184-.196-.162-.218-.139-.218-.15-.232-.125-.22-.106-.25-.09-.234-.073-.252-.056-.232-.035-.254-.033-.231v-.255l.013-.232.02-.237.058-.212.07-.219.09-.197.106-.197.127-.162.104-.124.112-.114.13-.104M356.404 447.063l1.916-1.173M352.756 441.642l1.78-1.328M359.162 443.511l.034.345v.324l-.034.323-.056.31-.106.267-.126.255-.164.215-.183.197-.21.143M354.535 440.314l.23-.15.255-.104.254-.057.288-.035.286.014.312.056.3.092.311.125.29.163M357.06 440.418l.28.182.275.212.253.24.252.266.212.289.198.288.18.303.164.322.126.346.091.322.07.323M210.893 394.257l-.163.091-.16.058-.183.056-.177.034-.177.014h-.203l-.179-.014-.196-.034-.197-.056-.22-.07-.196-.094-.199-.091-.198-.125-.195-.14-.2-.163-.181-.161-.18-.206-.18-.196-.143-.197-.144-.216-.127-.235-.125-.216-.105-.232-.076-.253-.07-.231-.058-.234-.031-.252-.02-.23-.019-.243.02-.229.033-.234.055-.218.071-.195.095-.198.104-.183.126-.161.11-.128.108-.102.122-.096M210.893 394.258l1.925-1.11M207.437 388.878l1.822-1.292M213.666 390.863l.037.335v.325l-.037.308-.075.29-.085.25-.126.249-.166.204-.177.176-.218.147M209.26 387.586l.212-.128.238-.09.265-.058.271-.012.27.012.289.057.306.104.289.129.287.161M211.689 387.76l.271.198.249.217.253.233.232.272.217.294.179.284.18.322.144.306.11.32.089.332.053.325" style="fill:none;stroke:red;stroke-width:.999997;stroke-linecap:round;stroke-linejoin:round;stroke-miterlimit:4;stroke-dasharray:none;stroke-opacity:1;visibility:visible"/><path d="M189.826 155.328h.074l.034.018.056.022.02.012.015.02.017.02M189.826 155.328l-.665-.072-.685-.108-.683-.163-.705-.181-.68-.23-.685-.274-.682-.304-.703-.343-.668-.359M182.88 153.222l.057-.018.052-.019.144-.035.127.02.128.015.14.037.072.035.072.037M182.88 153.222l-13.212 7.724" style="fill:none;stroke:red;stroke-width:1.99999;stroke-linecap:round;stroke-linejoin:round;stroke-miterlimit:4;stroke-dasharray:none;stroke-opacity:1;visibility:visible"/><path d="M169.558 161.125v-.035l.019-.038v-.038l.037-.017.019-.037.033-.014" style="fill:none;stroke:red;stroke-width:.999997;stroke-linecap:round;stroke-linejoin:round;stroke-miterlimit:4;stroke-dasharray:none;stroke-opacity:1;visibility:visible"/><path d="m390.364 226.985-9.324 9.127M174.906 364.051l-.398-4.625-.375-4.64-.379-4.663-.362-4.697-.34-4.696-.326-4.72-.306-4.73-.283-4.735-.29-4.771-.255-4.79-.252-4.822-.231-4.845-.221-4.859-.195-4.877-.179-4.896-.162-4.895-.16-4.936-.127-4.928-.128-4.952-.107-4.967-.068-4.984-.077-5.005-.052-5.005-.056-5.095-.019-5.11v-5.131l.019-5.13.021-5.147.054-5.184.052-5.164.089-5.206.092-5.2.123-5.222.128-5.236.144-5.256" style="fill:none;stroke:red;stroke-width:1.99999;stroke-linecap:round;stroke-linejoin:round;stroke-miterlimit:4;stroke-dasharray:none;stroke-opacity:1;visibility:visible"/><path d="M170.28 190.932v-.27l.017-.037v-2.088l-.017-.036v-.088M175.049 366.415l-.017-.484-.018-.473-.038-.47-.018-.462-.05-.473M169.558 161.125l.722 27.288M190.042 155.42l.235 9.432M175.049 366.415l.703 26.1" style="fill:none;stroke:red;stroke-width:1.99999;stroke-linecap:round;stroke-linejoin:round;stroke-miterlimit:4;stroke-dasharray:none;stroke-opacity:1;visibility:visible"/><path d="m382.046 462.335.024.09.068.074.105.055.127.034M382.37 462.588l7.15 1.654M389.52 464.242l.127.034h.161l.139-.013.128-.037.105-.056.078-.056M390.258 464.112l9.072-9.682M399.33 454.431l.056-.056v-.048" style="fill:none;stroke:red;stroke-width:.999997;stroke-linecap:round;stroke-linejoin:round;stroke-miterlimit:4;stroke-dasharray:none;stroke-opacity:1;visibility:visible"/><path d="m398.407 228.389-7.292-1.549M391.116 226.842l-.138-.016h-.143l-.148.016-.14.035-.112.036-.068.072" style="fill:none;stroke:red;stroke-width:1.99999;stroke-linecap:round;stroke-linejoin:round;stroke-miterlimit:4;stroke-dasharray:none;stroke-opacity:1;visibility:visible"/><path d="m381.039 236.112-.035.054-.021.055M398.751 228.642l-.02-.072-.035-.056-.07-.053-.092-.037-.127-.034" style="fill:none;stroke:red;stroke-width:.999997;stroke-linecap:round;stroke-linejoin:round;stroke-miterlimit:4;stroke-dasharray:none;stroke-opacity:1;visibility:visible"/><path d="m356.988 446.662 25.024 9.048M211.945 394.162l139.647 50.545M185.186 384.485l20.361 7.369M398.751 255.605l-.183 5.255-.177 5.239-.16 5.241-.147 5.216-.126 5.202-.128 5.188-.106 5.184-.092 5.145-.089 5.148-.085 5.134-.056 5.09-.056 5.078-.036 5.055-.034 5.039-.021 5.044v10.004l.021 4.973.035 4.963.035 4.948.056 4.939.056 4.892.07 4.895.09 4.772.085 4.769.115 4.739.104 4.731.128 4.696.146 4.698.14 4.662.164 4.66.163 4.628.179 4.624.198 4.592.196 4.594M381.884 438.163l-.217-4.699-.21-4.717-.186-4.733-.195-4.752-.162-4.775-.164-4.781-.146-4.808-.14-4.826-.126-4.844-.128-4.858-.104-4.916-.09-4.928-.072-4.95-.078-4.969-.068-4.987-.038-5.007-.057-5.02-.013-5.041-.02-5.055v-5.057l.02-5.097.013-5.092.023-5.131.057-5.203.048-5.237.079-5.235.069-5.258.092-5.273.105-5.293.126-5.294.126-5.325.128-5.35.162-5.339.16-5.368.177-5.378M398.808 251.34v2.233l-.021.052v.812l-.021.036v.556l-.016.057v.519M381.055 261.567v-.417l.021-.036v-.808l.02-.021v-1.312M399.236 428.642l.035.773.023.773.012.787.022.795v.81M381.94 440.551v-.97l-.02-.461-.017-.496-.019-.461M380.984 236.22l.112 22.753M398.751 228.642l.057 22.696M381.94 440.551l.106 21.784M399.33 432.58l.056 21.746" style="fill:none;stroke:red;stroke-width:1.99999;stroke-linecap:round;stroke-linejoin:round;stroke-miterlimit:4;stroke-dasharray:none;stroke-opacity:1;visibility:visible"/><path d="m179.833 170.612-.065.053-.058.07-.052.092-.042.11-.028.108v.096l.18 6.801M189.99 164.762l-.074-.018-.052.018-.074.02-9.917 5.829" style="fill:none;stroke:red;stroke-width:.999997;stroke-linecap:round;stroke-linejoin:round;stroke-miterlimit:4;stroke-dasharray:none;stroke-opacity:1;visibility:visible"/><path d="m189.99 164.762 154.165 51.19" style="fill:none;stroke:red;stroke-width:1.99999;stroke-linecap:round;stroke-linejoin:round;stroke-miterlimit:4;stroke-dasharray:none;stroke-opacity:1;visibility:visible"/><path d="m458.419 445.396-.413-.14M458.419 445.396h0M386.152 456.322l-.072-.072M386.08 456.252v-.125M385.323 456.14l.183-.174M386.08 456.126l-.112-.022-.082-.012-.092-.036-.092-.021-.092-.036-.106-.035M383.683 451.88l-.175.21-.128.24-.112.246-.068.271-.016.29v.29l.05.303.07.308.127.302.148.29.175.289.218.252.234.252.252.219.288.197.288.161.288.14" style="fill:none;stroke:red;stroke-width:.999997;stroke-linecap:round;stroke-linejoin:round;stroke-miterlimit:4;stroke-dasharray:none;stroke-opacity:1;visibility:visible"/><path d="M464.797 440.157v.149l-.023.161-.02.163-.014.105v.072l-.02.124-.051.199-.033.18-.057.141-.059.148-.056.127M464.796 440.158l.07-15.53M464.466 441.726l-.21.394-.218.38-.254.336-.266.344-.308.326-.306.286-.342.29-.324.232-.344.216-.36.2-.375.16-.376.161-.401.127-.392.112-.431.108-.45.069M464.186 423.346l.14.056.126.085.106.113.092.106.07.128.054.122.038.164.035.183v.161l.021.162M459.108 445.468l-.146.022h-.127l-.14-.022-.127-.036-.07-.012-.06-.022M464.186 423.346l-.414-.139" style="fill:none;stroke:red;stroke-width:1.99999;stroke-linecap:round;stroke-linejoin:round;stroke-miterlimit:4;stroke-dasharray:none;stroke-opacity:1;visibility:visible"/><path d="m461.842 423.866.092-.048.36-.184.336-.16.346-.148.344-.119M457.484 443.722v.485" style="fill:none;stroke:red;stroke-width:.999997;stroke-linecap:round;stroke-linejoin:round;stroke-miterlimit:4;stroke-dasharray:none;stroke-opacity:1;visibility:visible"/><path d="m463.319 423.207.07-.023.091-.02h.21l.08.042M458.006 445.256l-.084-.042-.092-.071-.071-.056-.076-.084-.05-.09-.038-.107-.055-.147-.02-.141-.014-.148-.022-.162" style="fill:none;stroke:red;stroke-width:1.99999;stroke-linecap:round;stroke-linejoin:round;stroke-miterlimit:4;stroke-dasharray:none;stroke-opacity:1;visibility:visible"/><path d="M39.037 479.122h0M177.536 386.178l.033.05M176.469 384.54l-.017-.08M176.469 384.54l.127.304.126.287.163.29.2.288.213.25.238.219M177.569 386.229l.196.16.221.15.212.126M177.012 382.109l-.18.125-.163.164-.127.196-.09.219-.069.252-.057.254v.267l.02.288.036.301.07.288M178.197 386.665l.239-.147M178.776 386.678l-.076-.033-.051-.015-.053-.021-.058-.039-.05-.019-.051-.033M178.886 386.92l.23.033.237-.023.213-.032.196-.058.183-.104M178.886 386.92l-.11-.094M178.776 386.827v-.15M180.484 386.389l.02.021-.02.107" style="fill:none;stroke:red;stroke-width:.999997;stroke-linecap:round;stroke-linejoin:round;stroke-miterlimit:4;stroke-dasharray:none;stroke-opacity:1;visibility:visible"/><path d="m47.843 500.479 1.097-.632M39.037 479.122l1.047-.715M47.827 500.494l-.142.07-.164.056-.18.055-.126.015h-.29M46.925 500.69l-.522-.034-.523-.051-.523-.09-.517-.113-.504-.127-.526-.163-.483-.172-.507-.198-.485-.22-.502-.252-.488-.287-.488-.305-.467-.323-.45-.345M39.94 498.01l-.16-.146-.145-.141-.127-.161-.09-.148-.054-.106-.017-.021v-.015l-.017-.034-.07-.148-.073-.211-.052-.217-.04-.184-.015-.175M39.077 496.303l-.665-15.785M38.412 480.518l.018-.22.017-.215.053-.221.073-.174.11-.182.109-.142.121-.126.127-.115" style="fill:none;stroke:red;stroke-width:1.99999;stroke-linecap:round;stroke-linejoin:round;stroke-miterlimit:4;stroke-dasharray:none;stroke-opacity:1;visibility:visible"/><path d="m40.859 478.224.525.079.536.104.167.036" style="fill:none;stroke:red;stroke-width:.999997;stroke-linecap:round;stroke-linejoin:round;stroke-miterlimit:4;stroke-dasharray:none;stroke-opacity:1;visibility:visible"/><path d="m49.499 498.659-.016.196-.018.183-.038.176-.068.162-.072.146-.111.128-.11.106-.126.092M40.085 478.408l.108-.07.147-.056.124-.036.126-.02.147-.016.123.016" style="fill:none;stroke:red;stroke-width:1.99999;stroke-linecap:round;stroke-linejoin:round;stroke-miterlimit:4;stroke-dasharray:none;stroke-opacity:1;visibility:visible"/><path d="M40.752 480.912h0M49.465 498.046l.035.613" style="fill:none;stroke:red;stroke-width:.999997;stroke-linecap:round;stroke-linejoin:round;stroke-miterlimit:4;stroke-dasharray:none;stroke-opacity:1;visibility:visible"/><path d="m204.551 399.89-.344.114-.342.126-.323.128-.324.14-.287.161-.271.161M175.737 392.318 40.859 478.226M202.66 400.72 49.426 499.214M204.551 399.89l13.519-3.508M432.79 436.072l24.876 8.876M399.039 424.028l11.7 4.176M460.634 422.264l2.665.943M398.175 400.164l32.744 11.587" style="fill:none;stroke:red;stroke-width:1.99999;stroke-linecap:round;stroke-linejoin:round;stroke-miterlimit:4;stroke-dasharray:none;stroke-opacity:1;visibility:visible"/><path d="m357.64 234.473.056.216.014.221M205.923 187.365l-.16.073-.18.055-.195.053-.183.036h-.396l-.194-.036-.185-.038-.215-.05-.212-.093-.205-.085-.195-.111-.213-.125-.2-.164-.196-.159-.181-.184-.163-.199-.18-.214-.146-.214-.146-.217-.118-.236-.112-.247-.091-.236-.07-.252-.074-.252-.037-.253-.034-.236v-.483l.034-.252.038-.214.072-.234.085-.202.095-.199.128-.177.128-.16.101-.13.129-.092.122-.108M205.923 187.365l1.983-1.06M202.574 181.73l1.876-1.22M208.877 183.981l.018.343-.018.328-.032.322-.095.284-.104.274-.144.25-.184.199-.195.179-.217.145M204.45 180.509l.235-.128.252-.09.268-.053.27-.018.306.038.288.072.304.104.307.147.29.177M206.969 180.758l.27.2.256.236.251.252.214.268.213.291.182.321.165.324.126.323.104.343.092.322.035.343M356.884 239.993l.038.165v.16M355.878 241.892l-.018.016h-.037M356.091 241.809h-.03l-.019.02M175.949 392.62l.593.106.598.113.609.161.593.162.615.217M178.957 393.38l.61.23.593.268.613.29.595.307.614.339M181.98 394.815l.054.041.054.016.07.034h.056l.07.021.075.016M182.36 394.942h.213l.055-.016.072-.022.053-.033 10.757-6.814M175.752 392.514v.014M175.752 392.53l.017.034.017.022.036.021h.035l.037.013h.054M354.779 238.436l-.163.089-.196.07-.182.058-.198.032-.197.021h-.196l-.219-.021-.112-.016M354.78 238.436l1.961-1.082" style="fill:none;stroke:red;stroke-width:.999997;stroke-linecap:round;stroke-linejoin:round;stroke-miterlimit:4;stroke-dasharray:none;stroke-opacity:1;visibility:visible"/><path d="m357.71 234.909.034.355-.012.342-.036.324-.09.307-.112.287-.142.254-.182.234-.21.18-.22.16M355.823 241.909l-.163.063-.178.033-.195.033-.183-.02-.182-.013-.18-.033-.198-.064-.193-.08-.185-.098-.179-.114-.177-.144-.164-.163-.143-.18-.143-.177-.11-.214-.108-.192-.072-.228-.052-.21-.039-.228-.017-.208.017-.214.039-.21.052-.194.092-.194.018-.05M355.823 241.908l.217-.08M356.922 240.318v.263l-.038.193-.049.196-.072.174-.093.165-.128.163-.127.128-.103.077-.128.083-.144.069" style="fill:none;stroke:red;stroke-width:.999997;stroke-linecap:round;stroke-linejoin:round;stroke-miterlimit:4;stroke-dasharray:none;stroke-opacity:1;visibility:visible"/><path d="m354.155 239.862.667.432-.27.638M358.523 270.593l2.231 6.93M248.1 206.096l-3.15-2.375M219.61 196.557l3.072-.291M385.884 451.065l-3.917-7.713M385.884 451.065l-3.902-2.187M276.52 394.031l-3.061.81M248.374 383.92l3.093 3.038M273.658 214.664l-3.164-2.394M244.97 205.053l3.114-.288M337.51 415.902l-3.113.81M308.885 405.642l3.149 3.06M306.634 225.714l3.172-.288M363.172 425.12l-2.354 1.078M334.373 414.791l3.151 3.051M358.523 270.593l-.243 7.957M360.754 277.523l-2.231-6.93M356.922 240.318l2.616 1.758M360.796 423.912l2.399 3.15M385 244.789l-3.952 3.481M290.54 218.102l-.969-.45M251.433 385.031l-3.023.81M223.462 374.993l3.095 3.02" style="fill:none;stroke:red;stroke-width:.999997;stroke-linecap:round;stroke-linejoin:round;stroke-miterlimit:4;stroke-dasharray:none;stroke-opacity:1;visibility:visible"/><path d="m369.24 435.791 1.511-.848M289.971 407.224l1.476-.809M287.123 216.16l1.57-.85M287.123 216.16l1.57-.85M367.996 243.244l1.624-.879" style="fill:none;stroke:red;stroke-width:.666665;stroke-linecap:round;stroke-linejoin:round;stroke-miterlimit:4;stroke-dasharray:none;stroke-opacity:1;visibility:visible"/><path d="m289.571 217.652.969.45M179.768 177.942l5.114 1.996M385.884 451.065l-4.098-15.287M385.884 451.065l-4.204-17.359" style="fill:none;stroke:red;stroke-width:.999997;stroke-linecap:round;stroke-linejoin:round;stroke-miterlimit:4;stroke-dasharray:none;stroke-opacity:1;visibility:visible"/><path d="m290.885 215.438-4.246-1.458M361.97 244.256l5.528-3.244" style="fill:none;stroke:red;stroke-width:.666665;stroke-linecap:round;stroke-linejoin:round;stroke-miterlimit:4;stroke-dasharray:none;stroke-opacity:1;visibility:visible"/><path d="m385 244.789-4.96.42M202.418 188.616l-1.098-3.163" style="fill:none;stroke:red;stroke-width:1.99999;stroke-linecap:round;stroke-linejoin:round;stroke-miterlimit:4;stroke-dasharray:none;stroke-opacity:1;visibility:visible"/><path d="m296.21 570.677-.076-5.617M302.111 561.552l-5.977 3.508M290.32 570.764l5.889-.087M296.134 565.06l.076 5.617M458.35 426.624l-.578-19.604M458.351 426.623l-.579-19.603M389.935 235.052l-1.151-1.008M179.873 170.612l-6.82-.884M388.634 238.018l-3.635 6.771M380.04 245.209l4.96-.42M370.43 244.712l-9.26-13.675M385 244.789l-4.016-7.147M45.702 482.966l-3.095 8.64M42.087 478.443l.52 13.163M205.017 398.955l-2.177-8.077M207.437 388.878l-11.184-.378" style="fill:none;stroke:red;stroke-width:.999997;stroke-linecap:round;stroke-linejoin:round;stroke-miterlimit:4;stroke-dasharray:none;stroke-opacity:1;visibility:visible"/><path d="m385.323 456.14-3.291 2.524M399.33 454.43l.012-14.124M385.414 456.058l-3.402-.348M205.547 391.854l6.398 2.308M356.988 446.662l-5.396-1.955M381.68 433.706l17.359-9.678M463.77 423.207l-3.136-.943" style="fill:none;stroke:red;stroke-width:1.99999;stroke-linecap:round;stroke-linejoin:round;stroke-miterlimit:4;stroke-dasharray:none;stroke-opacity:1;visibility:visible"/><path d="m207.437 388.878-13.927-.821M353.18 238.81l1.372 2.122" style="fill:none;stroke:red;stroke-width:.999997;stroke-linecap:round;stroke-linejoin:round;stroke-miterlimit:4;stroke-dasharray:none;stroke-opacity:1;visibility:visible"/><path d="m292.285 286.642-.185-.03-.177-.022h-.165l-.161.035-.142.07-.128.091-.106.108-.091.126-.07.146-.039.164-.018.16v.18l.034.179.04.184.071.173.092.184.087.163.108.144.127.121.128.127.144.112.144.088.142.075.145.05.162.04.143.016h.144l.15-.016.117-.04.111-.05.108-.09.11-.093.088-.127.052-.127.057-.14.018-.162.014-.162-.014-.179-.036-.18-.056-.181-.09-.184-.106-.197-.128-.163-.144-.16-.16-.142-.162-.124-.18-.09-.178-.078M292.19 280.687l-.18-.056-.177-.017-.164.017-.16.036-.144.054-.127.089-.11.13-.09.123-.052.144-.05.16-.021.166v.177l.035.183.036.174.072.184.09.18.089.144.106.143.127.144.127.128.142.104.146.093.145.07.16.057.144.036.146.019h.143l.147-.02.123-.035.126-.07.108-.076.09-.088.093-.126.072-.124.03-.165.038-.145v-.177l-.016-.16-.037-.185-.055-.175-.088-.205-.11-.177-.126-.182-.14-.159-.163-.126-.164-.127-.181-.087-.18-.073M285.82 276.78l1.745.576 1.745.574 1.781.54 1.803.54 1.819.52 1.834.508 1.856.503M298.402 280.54l.183 13.518M460.527 135.553v-.436M451.943 136.397v-.287M431.206 153.426 301.839 278.293M573.927 97.104l-127.53 47.501M436.283 138.844l.07-.016.071.016.055.018M456.372 133.806l-.148-.038-.141-.016h-.148l-.14.034-.125.02-.094.054M451.943 136.112l3.636-2.25M451.943 136.112l-.07.056-.046.052v.068l.057.074.072.054.114.036M456.244 137.784l-4.176-1.332M456.244 137.784l.128.02.14.021h.148l.14-.021.127-.036.105-.056M460.666 135.48l-3.636 2.232M460.666 135.48l.057-.07.035-.057v-.07l-.035-.058-.09-.051-.105-.056M456.372 133.806l4.155 1.311M446.394 144.606l-1.19.451-1.166.468-1.131.485-1.097.504-1.083.508-1.028.516-1.003.544-.981.558-.948.556-.9.577-.865.595-.83.592-.806.594-.76.612-.718.63-.684.63M431.08 167.052l.07-.074.037-.108.019-.124" style="fill:none;stroke:#00ff4a;stroke-width:.999997;stroke-linecap:round;stroke-linejoin:round;stroke-miterlimit:4;stroke-dasharray:none;stroke-opacity:1;visibility:visible" visibility="hidden"/><path d="M285.46 276.565h0" style="fill:none;stroke:#00ff4a;stroke-width:1.99999;stroke-linecap:round;stroke-linejoin:round;stroke-miterlimit:4;stroke-dasharray:none;stroke-opacity:1;visibility:visible" visibility="hidden"/><path d="m298.402 280.54.198.038.215.016h.416l.214-.034.182-.054.183-.056.139-.07.113-.095M298.71 280.594h0M301.838 278.598l-1.778 1.688" style="fill:none;stroke:#00ff4a;stroke-width:.999997;stroke-linecap:round;stroke-linejoin:round;stroke-miterlimit:4;stroke-dasharray:none;stroke-opacity:1;visibility:visible" visibility="hidden"/><path d="m285.35 276.327.02.113.053.086.111.112.125.07.162.072" style="fill:none;stroke:#00ff4a;stroke-width:1.99999;stroke-linecap:round;stroke-linejoin:round;stroke-miterlimit:4;stroke-dasharray:none;stroke-opacity:1;visibility:visible" visibility="hidden"/><path d="m298.814 294.562-.07-.056-.072-.068-.037-.093-.034-.14-.018-.148M287.026 274.583l-.14-.018-.15.018-.122.04-.128.05-.096.092" style="fill:none;stroke:#00ff4a;stroke-width:.999997;stroke-linecap:round;stroke-linejoin:round;stroke-miterlimit:4;stroke-dasharray:none;stroke-opacity:1;visibility:visible" visibility="hidden"/><path d="m301.803 292.869.09-.107.07-.125.038-.128.018-.14" style="fill:none;stroke:#00ff4a;stroke-width:1.99999;stroke-linecap:round;stroke-linejoin:round;stroke-miterlimit:4;stroke-dasharray:none;stroke-opacity:1;visibility:visible" visibility="hidden"/><path d="m287.097 274.549-.017.014-.054.02M301.082 277.589l-.035.021-.036.016M301.877 278.526l-.017.035-.022.037M302.058 292.295l-.02.04-.018.035" style="fill:none;stroke:#00ff4a;stroke-width:.999997;stroke-linecap:round;stroke-linejoin:round;stroke-miterlimit:4;stroke-dasharray:none;stroke-opacity:1;visibility:visible" visibility="hidden"/><path d="M285.35 276.327h0" style="fill:none;stroke:#00ff4a;stroke-width:1.99999;stroke-linecap:round;stroke-linejoin:round;stroke-miterlimit:4;stroke-dasharray:none;stroke-opacity:1;visibility:visible" visibility="hidden"/><path d="m301.082 277.59-12.328-2.68M301.082 277.589l.144.056.127.054.127.088.109.096.088.104.09.124.055.146.038.128.017.142M302.02 290.226l-.143-11.699" style="fill:none;stroke:#00ff4a;stroke-width:.999997;stroke-linecap:round;stroke-linejoin:round;stroke-miterlimit:4;stroke-dasharray:none;stroke-opacity:1;visibility:visible" visibility="hidden"/><path d="M285.35 276.327h0M431.08 167.052l-129.023 125.17M416.786 150.15l-129.76 124.4M573.547 110.567l-127.352 47.665M563.739 91.563l-127.456 47.282M416.786 150.15l.632-.576.624-.576.668-.56.705-.554.701-.559.74-.543.774-.54.773-.538.807-.52.83-.502.843-.526.868-.488.899-.502.88-.469.898-.45.922-.467.934-.43.956-.452.97-.414 1.007-.434 1.013-.41 1.028-.398 1.025-.398M446.196 158.232l-.956.358-.913.362-.921.377-.88.397-.883.395-.845.415-.831.416-.808.414-.787.428-.781.451-.752.437-.717.443-.704.47-.691.466-.659.491-.648.486-.632.5-.597.502-.571.511-.538.499M573.547 110.567l.07-.054.056-.073.035-.108.021-.105M573.73 110.227l.194-13.123M573.927 97.104v-.127l-.034-.144-.057-.143-.092-.107-.084-.09-.092-.07M563.956 91.576l-.077-.016-.07-.02-.069.02M573.568 96.424l-9.612-4.847" style="fill:none;stroke:#00ff4a;stroke-width:1.99999;stroke-linecap:round;stroke-linejoin:round;stroke-miterlimit:4;stroke-dasharray:none;stroke-opacity:1;visibility:visible" visibility="hidden"/><path d="M286.393 274.765h0" style="fill:none;stroke:#00ff4a;stroke-width:.999997;stroke-linecap:round;stroke-linejoin:round;stroke-miterlimit:4;stroke-dasharray:none;stroke-opacity:1;visibility:visible" visibility="hidden"/><path d="M302.058 292.295v.09l-.02.09-.038.07-.035.128-.071.11-.088.087M301.803 292.869l-1.783 1.461M300.02 294.331l-.14.092-.15.071-.177.068-.18.021-.125.018h-.143l-.127-.018-.164-.02M298.814 294.562l-1.62-.43-1.601-.434-1.603-.428-1.563-.45-1.57-.472-1.527-.465-1.532-.489-1.51-.487M286.289 290.909l-.127-.052-.124-.077-.11-.07-.089-.092-.091-.085-.069-.11-.074-.14-.038-.162-.017-.166M285.35 276.327v-.105l.02-.11.017-.086.036-.111.055-.091.056-.089.07-.073M285.605 275.663l.788-.897M285.35 276.327l.197 13.627" style="fill:none;stroke:#00ff4a;stroke-width:1.99999;stroke-linecap:round;stroke-linejoin:round;stroke-miterlimit:4;stroke-dasharray:none;stroke-opacity:1;visibility:visible" visibility="hidden"/><path d="m288.754 274.909-1.657-.36M302.058 292.295l-.038-2.069" style="fill:none;stroke:#00ff4a;stroke-width:.999997;stroke-linecap:round;stroke-linejoin:round;stroke-miterlimit:4;stroke-dasharray:none;stroke-opacity:1;visibility:visible" visibility="hidden"/><path d="m286.393 274.746.093-.052.092-.07.104-.061.127-.013.126-.02.108.02h.054" style="fill:none;stroke:#00ff4a;stroke-width:1.99999;stroke-linecap:round;stroke-linejoin:round;stroke-miterlimit:4;stroke-dasharray:none;stroke-opacity:1;visibility:visible" visibility="hidden"/><path d="m298.402 280.54-6.117 6.102M286.289 290.909l5.996-4.268M285.82 276.78l6.37 3.907M285.821 276.78l6.369 3.907" style="fill:none;stroke:#00ff4a;stroke-width:.999997;stroke-linecap:round;stroke-linejoin:round;stroke-miterlimit:4;stroke-dasharray:none;stroke-opacity:1;visibility:visible" visibility="hidden"/><path d="m302.02 290.226 3.125-1.061M302.02 290.226l6.31-4.173M458.35 426.624l-12.278 5.687M359.538 242.076l-5.383-2.214" style="fill:none;stroke:red;stroke-width:.999997;stroke-linecap:round;stroke-linejoin:round;stroke-miterlimit:4;stroke-dasharray:none;stroke-opacity:1;visibility:visible"/></svg>