<svg xmlns="http://www.w3.org/2000/svg" baseProfile="full" height="793.701" preserveAspectRatio="xMinYMin meet" style="width:765px;height:943px" width="559.371" xml:space="preserve"><path d="M330.16 564.804a48.155 48.155 0 0 0 8.397-.678M331.676 562.364l8.266 1.868M444.994 575.89l43.666-23.354M426.303 577.23a6.288 6.288 0 0 0 3.69-.445M339.954 564.235l86.349 12.997" style="fill:none;stroke:red;stroke-width:.999997;stroke-linecap:round;stroke-linejoin:round;stroke-miterlimit:10;stroke-dasharray:none;stroke-opacity:1;visibility:visible" visibility="hidden"/><path d="m489.01 550.88-.015-.094-.04-.096-.067-.082-.08-.081-.095-.053-.12-.055-.133-.027-.147-.014h-.137M329.1 561.996c.283.964.644 1.899 1.06 2.806M484.137 559.115a10.878 10.878 0 0 0 1.65-1.167c.082-.082.152-.148.23-.217a10.627 10.627 0 0 0 3.02-5.141M341.055 569.864l-.484-.096-.63-.121-.631-.148-.63-.15-.605-.179-.604-.172-.59-.204-.577-.204-.564-.218-.548-.244-.538-.244-.524-.258-.509-.271-.483-.285-.483-.287-.457-.31-.443-.313-.425-.324-.405-.338-.391-.34-.375-.354M489.036 552.59l-.348-.066M329.1 561.996l1.238-.584" style="fill:none;stroke:red;stroke-width:1.99999;stroke-linecap:round;stroke-linejoin:round;stroke-miterlimit:10;stroke-dasharray:none;stroke-opacity:1;visibility:visible" visibility="hidden"/><path d="M488.499 550.392h-.039l-.817-.165M445.476 579.879l38.661-20.765M341.055 569.864l88.085 13.632" style="fill:none;stroke:red;stroke-width:1.99999;stroke-linecap:round;stroke-linejoin:round;stroke-miterlimit:10;stroke-dasharray:none;stroke-opacity:1;visibility:visible" visibility="hidden"/><path d="m341.055 569.864-9.379-7.5M429.993 576.785l15.001-.895M444.994 575.89l-15.001.895" style="fill:none;stroke:red;stroke-width:.999997;stroke-linecap:round;stroke-linejoin:round;stroke-miterlimit:10;stroke-dasharray:none;stroke-opacity:1;visibility:visible" visibility="hidden"/><path d="m429.993 576.785 15.483 3.094M426.303 577.23l2.837 6.266" style="fill:none;stroke:red;stroke-width:1.99999;stroke-linecap:round;stroke-linejoin:round;stroke-miterlimit:10;stroke-dasharray:none;stroke-opacity:1;visibility:visible" visibility="hidden"/><path d="M447.747 617.341a483.892 483.892 0 0 1-2.972-36.733l36.105-19.226a386.71 386.71 0 0 0 3.641 35.96l-1.735.25c-11.653 6.736-23.879 13.789-33.892 19.616l-1.147.133" style="fill:none;fill-opacity:1;fill-rule:nonzero;stroke:#00ff4a;stroke-width:1.33333;visibility:visible"/><path d="M449.55 617.425c10.02-5.817 22.237-12.873 33.895-19.605" style="fill:none;stroke:#00ff4a;stroke-width:.945331;stroke-linecap:round;stroke-linejoin:round;stroke-miterlimit:10;stroke-dasharray:none;stroke-opacity:1;visibility:visible"/><path d="m410.563 553.814-.159.068-4.004-.666 4.163.598" style="fill:none;fill-opacity:1;fill-rule:nonzero;stroke:#00ff4a;stroke-width:1.33333;visibility:visible"/><path d="m352.076 545.89.146-.143.161-.135.172-.12.16-.106.173-.08.172-.066.175-.042.172-.024h.173l.16.024.16.042.145.066.145.08.146.106.135.12.121.146.104.16.107.171.093.189v.012M411.043 447.686v-.546M353.78 545.2l-.24-.052M454.819 445.518l-4.443 1.61M454.819 445.518c.081-.028.133-.135.12-.228M450.03 447.062a.465.465 0 0 0 .346.067M439.282 445.318c0 .147.106.252.252.281M449.43 447.286c.215 0 .44-.081.6-.226M435.996 567.946l-.013.197-.027.175-.04.186-.064.16-.081.158-.093.134-.12.132-.12.107-.134.081-.144.067-.161.039-.16.028h-.172l-.173-.015-.16-.04-.172-.065-.174-.08-.16-.094-.145-.12-.15-.134-.143-.16-.12-.157-.106-.175-.093-.184-.081-.187-.068-.2-.038-.2-.026-.199-.014-.2.014-.185.026-.188.038-.172.068-.173.08-.16.095-.132.118-.12.121-.106.13-.093.149-.067.159-.04.16-.026h.173l.159.012.173.04.173.068.16.078.174.094.145.118.145.148.134.147.132.159.108.173.092.187.082.185.064.2.04.2.027.2.013.199M453.342 694.059l-.014.186-.025.172-.04.163-.067.156-.08.13-.093.123-.12.104-.119.097-.133.065-.147.053-.146.041h-.332l-.16-.041-.172-.04-.162-.079-.172-.078-.146-.107-.16-.124-.145-.144-.121-.147-.132-.159-.106-.174-.094-.184-.066-.188-.067-.187-.04-.184-.027-.188-.013-.184.013-.186.027-.172.053-.163.054-.144.08-.148.106-.12.107-.108.119-.089.133-.067.147-.055.145-.038h.333l.16.038.172.042.174.079.158.077.159.109.15.117.144.15.133.146.12.158.106.173.094.188.078.182.055.19.052.187.027.182v.19M449.43 447.286l-9.894-1.688M435.066 626.288v.027l.026.704M435.092 627.017l.094.015M327.389 429.58v-.025M327.389 429.582c.026.12.12.212.24.238M339.76 429.568l.053-.038.053-.055.013-.08v-.092l-.027-.12M339.76 429.569l-4.76 1.449M332.616 551.943v-.185l.029-.186.025-.161.052-.171.068-.149.092-.131.093-.121.107-.093.118-.092.134-.068.133-.04.147-.026h.146l.16.01.145.046.161.051.147.08.16.093.13.107.148.132.119.147.12.144.106.174.08.176.08.18.066.19.04.188.028.197.012.187v.185l-.012.187-.04.16-.052.16-.068.148-.082.144-.105.106-.107.108-.118.08-.132.066-.133.054-.149.024h-.146l-.159-.014-.145-.038-.161-.052-.147-.081-.146-.093-.144-.12-.134-.12-.133-.146-.108-.16-.106-.16-.093-.185-.082-.173-.05-.187-.054-.199-.024-.185-.016-.188M334.093 430.938l-6.463-1.119M334.092 430.938a.556.556 0 0 0 .4-.12M334.493 430.82a.655.655 0 0 0 .505.196M483.537 535.21a.355.355 0 0 0-.265.026M483.537 535.21l4.084.862M488.127 536.766l-.717 13.298M488.127 536.766a.719.719 0 0 0-.507-.694M344.868 544.879c-.04-.013-.093 0-.133.015M341.663 546.184l3.073-1.29M341.663 546.184a.808.808 0 0 0-.373.746M341.582 560.842l-.295-13.915M402.452 518.543l.091 13.076M339.96 483.054l-.2-.226M339.694 472.174l3.152-1.09M339.76 482.828l-.254-10.282M339.506 472.546l.188-.372M433.67 486.778l-94.164-14.232M493.779 615.432l-.189.279M493.779 615.432l-2.209-12.184M491.279 602.968l.293.28M491.572 603.248l-3.18 1.768M488.39 605.017a5.93 5.93 0 0 0-1.116.786M451.866 625.595a14.267 14.267 0 0 0-1.823.85M487.275 605.803l-.519.476-.53.481-.561.48-.585.489-.597.483-.613.49-.651.494-.666.491-.677.492-.719.505-.717.492-.76.505-.772.506-.784.505-.813.508-.839.503-.848.517-.877.507-.89.52-.921.506-.946.52-.958.515-.968.522-.997.503-1.014.518-1.036.521-1.048.518-1.079.517-1.09.521-1.118.519-1.132.516-1.144.521-1.17.519-1.184.517-1.196.521-1.224.52-1.237.514-1.253.522-1.276.52M450.043 626.445l-.677.375M488.327 602.981l2.952-.013M449.232 624.957l-.12.04M503.424 668.665l-.187.267M503.424 668.665l-2.154-11.958M500.961 656.415l.307.293M501.27 656.707l-3.13 1.956M498.141 658.663a5.227 5.227 0 0 0-1.088.864M462.4 681.29a12.639 12.639 0 0 0-1.796.914M497.052 659.528l-.505.53-.508.545-.544.533-.56.545-.583.544-.612.548-.625.547-.642.544-.676.559-.677.545-.719.559-.733.558-.744.559-.787.559-.782.557-.812.56-.838.57-.865.557-.879.574-.89.559-.918.573-.932.559-.956.57-.985.559-.983.571-1.026.56-1.036.572-1.052.57-1.063.559-1.092.573-1.116.559-1.117.559-1.159.573-1.156.559-1.182.559-1.2.557-1.223.557-1.225.561-1.25.558M460.606 682.207l-1.956 1.237M498.023 656.35l2.937.064M498.633 642.168l-.197.28M498.633 642.168l-2.193-12.064M496.145 629.825l.295.28M496.441 630.104l-3.153 1.861M493.287 631.967a5.17 5.17 0 0 0-1.104.838M457.159 653.581a14.475 14.475 0 0 0-1.807.879M492.183 632.805l-.506.492-.53.52-.547.504-.57.519-.588.505-.612.52-.637.519-.65.531-.68.518-.707.519-.719.533-.742.531-.76.534-.783.53-.8.53-.822.536-.853.545-.864.529-.878.548-.906.53-.929.547-.945.544-.972.534-.984.545-.999.545-1.023.544-1.05.534-1.064.544-1.078.545-1.105.544-1.116.55-1.144.53-1.157.547-1.17.545-1.199.532-1.211.545-1.224.53-1.233.534-1.267.546M455.35 654.46l-1.41.85M493.193 629.799l2.954.028M396.039 408.913c0 .117.107.225.225.249M403.368 410.2l4.139-1.261M396.264 409.163l6.266.959M402.902 410.017a.67.67 0 0 0 .466.183M402.53 410.122a.543.543 0 0 0 .372-.105M407.786 458.553l.172.225M410.644 447.606l-2.74.943M407.73 448.895l.054 9.658M407.906 448.549l-.176.346M453.21 458.858l32.63 7.144M407.73 448.895l30.156 6.61M491.864 426.669l-.028.026-.012.027M502.584 428.278l3.94-1.423M506.524 426.855c.052-.028.09-.065.104-.12.016 0 0-.014 0-.014a.068.068 0 0 0 0-.078M502.279 428.211c.093.067.2.094.305.067M501.693 428.426a.803.803 0 0 0 .587-.213M491.864 426.669c.013.133.12.24.253.25M492.119 426.922l9.576 1.504M410.91 517.147l-.052-.013-.068.026M410.79 517.159l-2.688 1.132M408.104 518.291a.725.725 0 0 0-.332.679M407.772 518.968l.091 13.088" style="fill:none;stroke:#00ff4a;stroke-width:.999997;stroke-linecap:round;stroke-linejoin:round;stroke-miterlimit:10;stroke-dasharray:none;stroke-opacity:1;visibility:visible"/><path d="M353.54 545.147a1.883 1.883 0 0 0-1.716.703M429.452 559.46l-27.736-3.938-60.428-8.592M451.495 640.652v.015l-.015.04-.038.026-.054.054M456.388 703.21l-10.082-59.83M442.688 500.907a498.905 498.905 0 0 0-3.392 66.985 500.997 500.997 0 0 0 7.01 75.488M442.688 500.907l6.743-53.621M340.666 561.043l-2.183-88.99M338.483 472.052l-4.39-41.114M488.127 536.766l-43.577 20.898-.012.014M396.178 521.163l-36.716 15.339M354.204 538.698l-8.364 3.496M406.255 493.376l.225 39.092M406.015 448.698l.173 31.91M402.53 410.122l3.484 38.576M495.975 614.82l8.99 56.917M494.417 479.343a464.336 464.336 0 0 0-4.202 57.45 464.954 464.954 0 0 0 5.76 78.025M501.693 428.426l-7.276 50.917M445.495 527.242h.028l20.504 4.488M407.772 518.968l22.12 4.856M439.256 445.358v-.013l.027-.027" style="fill:none;stroke:#00ff4a;stroke-width:.999997;stroke-linecap:round;stroke-linejoin:round;stroke-miterlimit:10;stroke-dasharray:none;stroke-opacity:1;visibility:visible"/><path d="m395.175 518.334-35.603 14.746M353.824 535.462l-8.064 3.34M411.175 481.351l-.09-21.866M411.323 517.227l-.092-23.08M396.704 491.886l.154 18.43M396.026 408.937l.572 70.22M411.03 447.14l-3.418-38.36M508.187 670.913h.012M508.956 670.235a3.44 3.44 0 0 0 .599-.972M504.513 673.31l3.674-2.398M498.781 672.097l.027.027.223.223.226.202.243.201.237.185.254.16.264.16.255.133.279.12.266.107.28.092.265.066.281.055.277.039.266.013h.267l.266-.028.267-.039.252-.053.24-.067.254-.093.226-.105.224-.122.093-.065M509.555 669.199l-5.907-37.619-3.008-19.193M493.647 645.761l2.182 11.959M488.752 618.865l2.22 12.238M480.716 534.784v.16l.014 1.503M485.467 600.081l.332 2.183.318 1.943M481.455 562.115c.025.403.048.804.074 1.204a393.513 393.513 0 0 0 2.421 25.896c.038.348.078.693.133 1.039.013.17.038.36.067.531.04.375 1.265 8.927 1.317 9.298M484.097 477.454v.026a382.558 382.558 0 0 0-3.406 54.87c-.001.6.013 1.197.013 1.797.013.212.013.424.013.637M499.259 477.667a459.77 459.77 0 0 0 1.384 134.718M491.824 426.722l-5.68 37.324-.236 1.57-.07.385-1.486 9.814-.029.19-.226 1.448M499.259 477.667l7.37-50.932M430.038 521.296l-18.82-4.084-.308-.065M480.679 532.298l-7.43-1.616M465.75 529.051l-20.07-4.363h-.025M439.256 445.358l-1.116 8.235-.201 1.527-.052.386-1.29 9.55-.03.175-2.631 19.54-.213 1.596-.053.41-1.411 10.429-.027.214-.184 1.355M448.088 499.003l3.87-30.303.03-.184 1.222-9.658.054-.384.198-1.544 1.477-11.572M344.216 471.283l-.028-1.013M345.906 545.028l-.066-2.834-.016-.891-.064-2.421v-.08l-1.264-55.042M327.389 429.582l3.538 129M344.188 470.258l-4.308-40.955" style="fill:none;stroke:#00ff4a;stroke-width:1.99999;stroke-linecap:round;stroke-linejoin:round;stroke-miterlimit:10;stroke-dasharray:none;stroke-opacity:1;visibility:visible"/><path d="m483.272 535.236-2.26 1.079-.281.132-17.373 8.261-18.78 8.939h-.014M460.087 702.147c.145-.094.292-.2.412-.32M460.527 701.801a3.5 3.5 0 0 0 .93-1.344M455.962 704.832l4.125-2.673M449.606 702.919l.038.066.214.252.214.253.236.237.227.216.255.212.25.2.265.172.27.173.279.144.278.136.279.121.279.09.294.079.28.058.279.037.292.026h.28l.267-.012.265-.042.265-.054.254-.076.252-.082.24-.12.226-.117.079-.055M461.483 700.364l-.693-4.124-.024-.147-2.116-12.65-.082-.45-.29-1.771-2.168-13.006-.03-.148-2.138-12.757-.065-.438-.266-1.597-2.116-12.61M438.126 643.18l4.426 23.052 7.052 36.687M429.439 559.074l.016.386.41 14.472.015.239M429.879 574.199v.051a429.408 429.408 0 0 0 3.579 41.129c.025.306.078.613.118.92.04.358.095.73.147 1.101.013.096.025.187.053.293 0 .082.015.162.027.255.385 2.779.81 5.559 1.264 8.337M435.066 626.313c.038.24.08.478.12.72a412.043 412.043 0 0 0 2.94 16.145" style="fill:none;stroke:#00ff4a;stroke-width:1.99999;stroke-linecap:round;stroke-linejoin:round;stroke-miterlimit:10;stroke-dasharray:none;stroke-opacity:1;visibility:visible"/><path d="M432.048 498.776v.028a400.062 400.062 0 0 0-1.996 22.532c-.04.584-.08 1.158-.106 1.73a6.885 6.885 0 0 0-.04.758 393.27 393.27 0 0 0-.626 25.924c0 2.34.04 4.698.107 7.038-.013.013-.013.024 0 .038l.039 1.796c0 .148.013.307.013.454M448.088 499.003a506.724 506.724 0 0 0-2.408 25.685c0 .012 0 .027-.012.04-.026.586-.068 1.158-.108 1.743l-.038.77a440.49 440.49 0 0 0-.652 13.251c-.16 4.387-.267 8.763-.294 13.154a.15.15 0 0 0 0 .108 215.56 215.56 0 0 0-.025 2.94v.97c-.001 4.736.067 9.47.199 14.206.053 2.048.12 4.084.212 6.118-.012.027-.012.042 0 .054a483.825 483.825 0 0 0 2.82 36.393c.027.318.068.625.108.93.038.373.08.745.132 1.115.013.19.026.363.066.548.135 1.224.28 2.435.452 3.659.174 1.436.36 2.872.574 4.31.064.611.16 1.223.252 1.821a476.34 476.34 0 0 0 1.98 12.985.659.659 0 0 1 .029.157c.039.227.079.465.121.691" style="fill:none;stroke:#00ff4a;stroke-width:1.99999;stroke-linecap:round;stroke-linejoin:round;stroke-miterlimit:10;stroke-dasharray:none;stroke-opacity:1;visibility:visible"/><path d="m429.372 536.967-15.284-3.485-6.052-1.383-.173-.041M463.359 544.708l-7.881-1.797M448.038 541.214l-3.168-.724h-.027" style="fill:none;stroke:#00ff4a;stroke-width:.999997;stroke-linecap:round;stroke-linejoin:round;stroke-miterlimit:10;stroke-dasharray:none;stroke-opacity:1;visibility:visible"/><path d="m451.959 468.702 32.361 7.304M407.956 458.778l3.022.68.105.025 25.485 5.748M453.462 456.931l32.682 7.116M410.644 447.606l.279.067.12.013 27.096 5.904M509.475 669.344l.081-.081v-.064M496.799 424.622l8.873 1.368M493.167 425.911l3.633-1.29M505.672 425.99l.956.652M491.864 426.669l1.304-.759" style="fill:none;stroke:#00ff4a;stroke-width:1.99999;stroke-linecap:round;stroke-linejoin:round;stroke-miterlimit:10;stroke-dasharray:none;stroke-opacity:1;visibility:visible"/><path d="m406.479 532.471-3.937-.853" style="fill:none;stroke:#00ff4a;stroke-width:.999997;stroke-linecap:round;stroke-linejoin:round;stroke-miterlimit:10;stroke-dasharray:none;stroke-opacity:1;visibility:visible"/><path d="m396.039 408.913-.013.025M400.828 407.022l5.707.876M397.024 408.166l3.806-1.143M396.039 408.913l.985-.748M407.584 408.593l.028.106v.081l-.014.078-.04.055-.055.025M406.535 407.9l1.05.692" style="fill:none;stroke:#00ff4a;stroke-width:1.99999;stroke-linecap:round;stroke-linejoin:round;stroke-miterlimit:10;stroke-dasharray:none;stroke-opacity:1;visibility:visible"/><path d="m407.279 532.431.757-.332M406.479 532.471c.267.067.53.053.8-.04" style="fill:none;stroke:#00ff4a;stroke-width:.999997;stroke-linecap:round;stroke-linejoin:round;stroke-miterlimit:10;stroke-dasharray:none;stroke-opacity:1;visibility:visible"/><path d="m432.232 497.42-21.002-3.27-.107-.015-4.057-.637-.81-.12-9.313-1.45-.239-.04-52.209-8.128-.132-.013-4.403-.692M433.936 484.77l-22.76-3.42-.104-.012-4.072-.612-.812-.119-9.35-1.41-.24-.041-52.382-7.86v-.014l-.146-.014-1.222-.188M493.593 615.71l-3.165 1.824M490.428 617.535a5.532 5.532 0 0 0-1.157.824M454.127 638.55a16.15 16.15 0 0 0-1.861.906M489.27 618.359l-.304.305-.201.188-.015.013-.517.478-.56.492-.57.493-.583.503-.628.496-.639.503-.65.506-.68.52-.704.504-.732.507-.73.518-.774.518-.783.506-.811.521-.826.514-.851.536-.864.517-.89.518-.907.533-.929.519-.947.533-.971.516-.997.535-.998.532-1.036.533-1.04.517-1.076.532-1.077.532-1.104.52-1.13.531-1.132.532-1.156.532-1.184.52-1.198.53-1.21.521-1.224.529-1.25.521-1.262.519M452.266 639.455l-.894.505M488.327 602.981l-1.97 1.104-.237.12-.987.56M485.133 604.765a7.724 7.724 0 0 0-1.556 1.078M483.577 605.841l-.506.454-.519.462-.545.468-.559.466-.584.478-.61.467-.63.479-.636.477-.678.48-.679.479-.719.489-.719.48-.753.495-.763.477-.796.492-.813.493-.824.494-.85.489-.867.493-.891.507-.916.49-.92.506-.942.494-.973.505-.983.492-.998.505-1.022.508-1.054.489-1.052.507-1.074.504-1.092.507-1.116.49-1.132.507-1.146.49-1.168.51-1.17.503-1.21.493-1.211.504-1.226.493M503.239 668.932l-3.1 1.995M500.137 670.928a5.33 5.33 0 0 0-1.132.916M464.756 693.739a12.39 12.39 0 0 0-1.782.946M464.756 693.739l1.238-.574 1.234-.558 1.213-.57 1.195-.572 1.172-.558 1.156-.575 1.147-.583 1.117-.558 1.113-.587 1.08-.57 1.063-.57 1.053-.588 1.036-.572 1.011-.572.984-.584.972-.575.96-.572.929-.584.905-.572.891-.584.878-.573.847-.572.842-.572.81-.572.788-.572.77-.572.744-.57.732-.574.705-.572.679-.56.663-.57.654-.557.624-.56.6-.558.57-.559.559-.545.545-.559.505-.545.492-.549M460.766 696.092l2.206-1.41M498.023 656.35l-1.968 1.234-.227.132-.932.588M494.896 658.304a7.427 7.427 0 0 0-1.516 1.196M493.381 659.501l-.478.519-.506.517-.534.52-.544.53-.574.521-.584.532-.61.532-.626.53-.653.533-.677.533-.69.533-.705.546-.733.53-.759.543-.772.548-.784.532-.812.545-.837.545-.838.547-.877.546-.892.545-.905.559-.931.545-.945.544-.971.544-.984.548-.997.544-1.027.545-1.036.546-1.05.544-1.079.548-1.089.545-1.119.545-1.116.546-1.157.532-1.158.545-1.17.53-1.195.547-1.213.532M459.754 680.517a20.27 20.27 0 0 0-1.476.703M498.436 642.448l-3.139 1.916M495.296 644.364a5.579 5.579 0 0 0-1.132.864M459.394 666.405a14.113 14.113 0 0 0-1.85.943M494.165 645.23l-.305.316-.2.201-.015.012-.505.505-.547.535-.557.516-.584.533-.612.52-.627.532-.65.545-.68.532-.69.531-.72.545-.73.534-.759.545-.772.545-.797.546-.827.545-.836.544-.85.547-.879.558-.906.546-.917.557-.945.547-.958.543-.969.56-.997.545-1.027.558-1.036.56-1.05.543-1.081.56-1.09.544-1.116.548-1.128.559-1.147.545-1.17.545-1.182.559-1.2.545-1.222.546-1.24.543-1.247.535M457.546 667.348l-1.436.864h-.012M493.193 629.799l-1.993 1.17-.228.134-.93.557M490.043 631.661a7.603 7.603 0 0 0-1.544 1.143M488.499 632.805l-.492.478-.507.493-.544.494-.543.503-.588.494-.598.503-.61.507-.641.503-.665.507-.676.505-.695.508-.717.519-.746.504-.757.517-.784.521-.799.519-.826.517-.839.52-.861.519-.878.517-.892.52-.918.53-.946.52-.954.52-.974.532-.998.518-1.011.531-1.024.52-1.047.519-1.066.532-1.093.52-1.103.532-1.117.518-1.13.516-1.156.522-1.172.517-1.184.517-1.21.523-1.222.519M454.514 652.877c-.306.134-.612.264-.907.398" style="fill:none;stroke:#00ff4a;stroke-width:1.99999;stroke-linecap:round;stroke-linejoin:round;stroke-miterlimit:10;stroke-dasharray:none;stroke-opacity:1;visibility:visible"/><path d="m390.027 537.01-24.861 10.73M402.543 531.619l-1.352.583" style="fill:none;stroke:#00ff4a;stroke-width:.999997;stroke-linecap:round;stroke-linejoin:round;stroke-miterlimit:10;stroke-dasharray:none;stroke-opacity:1;visibility:visible"/><path d="m487.412 550.064-42.477 22.208" style="fill:none;stroke:#00ff4a;stroke-width:.666665;stroke-linecap:round;stroke-linejoin:round;stroke-miterlimit:10;stroke-dasharray:none;stroke-opacity:1;visibility:visible"/><path d="m340.666 561.043-9.512-2.315" style="fill:none;stroke:#00ff4a;stroke-width:.999997;stroke-linecap:round;stroke-linejoin:round;stroke-miterlimit:10;stroke-dasharray:none;stroke-opacity:1;visibility:visible"/><path d="m331.03 559.115-.09-.028-.07-.024-.037-.03-.027-.037v-.026M338.71 428.451l-5.893-.997M332.817 427.454l-4.363 1.304M328.453 428.758l-1.064.799M339.852 429.183l-1.142-.732" style="fill:none;stroke:#00ff4a;stroke-width:1.99999;stroke-linecap:round;stroke-linejoin:round;stroke-miterlimit:10;stroke-dasharray:none;stroke-opacity:1;visibility:visible"/><path d="m341.795 560.883-.267.107M340.666 561.043c.292.067.582.055.861-.053" style="fill:none;stroke:#00ff4a;stroke-width:.999997;stroke-linecap:round;stroke-linejoin:round;stroke-miterlimit:10;stroke-dasharray:none;stroke-opacity:1;visibility:visible"/><path d="m429.386 556.786-22.946-3.234-41.276-5.812-10.268-1.45-2.82-.398-6.172-.864-1.037-.148M499.232 671.552l-.225.293M494.39 644.935l-.224.294M508.199 670.913a3.304 3.304 0 0 0 1.276-1.569M461.483 700.364l-.013.068-.014.025-.078.079M453.915 444.613l-9.179-1.543M444.736 443.07l-4.084 1.45M453.915 444.613l1.024.677M439.282 445.318l1.368-.798" style="fill:none;stroke:#00ff4a;stroke-width:1.99999;stroke-linecap:round;stroke-linejoin:round;stroke-miterlimit:10;stroke-dasharray:none;stroke-opacity:1;visibility:visible"/><path d="m429.866 573.932-2.542-.372-.504-.08-27.736-4.111-.133-.016-22.465-3.337-34.69-5.146-.215-.027" style="fill:none;stroke:#00ff4a;stroke-width:.999997;stroke-linecap:round;stroke-linejoin:round;stroke-miterlimit:10;stroke-dasharray:none;stroke-opacity:1;visibility:visible"/><path d="m451.426 693.11.526.121.323.571-.12.606M433.988 567.038l.527.12.323.57-.12.607M333.704 551.719l.529.12.324.57-.123.606" style="fill:none;stroke:#00ff4a;stroke-width:.666665;stroke-linecap:round;stroke-linejoin:round;stroke-miterlimit:10;stroke-dasharray:none;stroke-opacity:1;visibility:visible"/><path d="m331.355 558.89-.148.083-.123.065-.089.084-.085.08-.052.082-.04.079-.015.083.015.084.04.08.052.066.084.084.106.066.12.054.147.068.162.042.173.053M338.56 564.126l-9.459-2.13M338.56 564.126l90.05 13.702M330.309 561.25l.013.138.015.026.023.092.055.124.08.093.082.11.093.097.12.08.136.098.159.062.174.085.203.053.175.056h.04" style="fill:none;stroke:#00ff4a;stroke-width:.999997;stroke-linecap:round;stroke-linejoin:round;stroke-miterlimit:10;stroke-dasharray:none;stroke-opacity:1;visibility:visible"/><path d="m445.036 573.398 43.374-22.751" style="fill:none;stroke:#00ff4a;stroke-width:.666665;stroke-linecap:round;stroke-linejoin:round;stroke-miterlimit:10;stroke-dasharray:none;stroke-opacity:1;visibility:visible"/><path d="M331.355 558.89c-.083-.013-.161-.013-.23.029M331.703 560.043l8.265 1.845M339.967 561.888l86.375 12.915M426.342 574.803a5.673 5.673 0 0 0 3.286-.365" style="fill:none;stroke:#00ff4a;stroke-width:.999997;stroke-linecap:round;stroke-linejoin:round;stroke-miterlimit:10;stroke-dasharray:none;stroke-opacity:1;visibility:visible"/><path d="M488.661 552.536c.015 0 .015-.013.029-.013a.581.581 0 0 0 .333-.501M489.01 550.88l.013 1.14M330.24 560.07l.068 1.155M331.126 558.918a1.232 1.232 0 0 0-.886 1.152" style="fill:none;stroke:#00ff4a;stroke-width:1.99999;stroke-linecap:round;stroke-linejoin:round;stroke-miterlimit:10;stroke-dasharray:none;stroke-opacity:1;visibility:visible"/><path d="m435.066 626.313 12.681-8.972" style="fill:none;fill-opacity:1;fill-rule:nonzero;stroke:#00ff4a;stroke-width:1.33333;visibility:visible"/><path d="m450.043 626.445-.493-9.02M485.133 604.765l-1.688-6.945" style="fill:none;stroke:#00ff4a;stroke-width:.945331;stroke-linecap:round;stroke-linejoin:round;stroke-miterlimit:10;stroke-dasharray:none;stroke-opacity:1;visibility:visible"/><path d="m341.287 546.927 13.609-.637M429.439 559.074l6.557 8.872M429.879 574.199l6.117-6.253M330.806 558.97l1.81-7.027M330.927 558.582l1.689-6.639M407.772 518.97l-5.32-.427M462.972 694.682l-4.322-11.238M457.546 667.348l-3.606-12.038M449.43 447.286l3.78 11.572M439.536 445.598l-1.65 9.907M401.191 532.202l-5.013-11.039M354.204 538.698l5.258-2.196M359.462 536.502l-5.258 2.196M344.736 544.894l1.104-2.7M406.188 480.608l.067 12.768M406.255 493.376l-.067-12.768M501.27 656.707l3.695 15.03M473.249 530.682l-7.222 1.048" style="fill:none;stroke:#00ff4a;stroke-width:.999997;stroke-linecap:round;stroke-linejoin:round;stroke-miterlimit:10;stroke-dasharray:none;stroke-opacity:1;visibility:visible"/><path d="m408.102 518.291-12.927.043M353.824 535.462l5.748-2.382M359.462 536.502l-5.638-1.04M344.736 544.894l1.024-6.092M411.231 494.147l-.056-12.796M407.784 458.553l3.301.932M411.175 481.351l.056 12.796M396.598 479.157l.106 12.729M402.452 518.543l-5.594-8.227M396.704 491.886l-.106-12.729M499.232 671.55l9.724-1.315M501.27 656.707l-5.441 1.013M496.44 630.104l-5.468.999M488.127 536.766l-7.397-.319M491.57 603.248l-5.453.959M489.023 552.02l-7.568 10.095M483.537 535.21l-2.858-2.912M466.027 531.73l7.222-1.048M473.249 530.682l-7.499-1.631M339.506 472.546l4.71-1.263M341.287 546.927l4.619-1.899M339.76 482.828l4.736.932" style="fill:none;stroke:#00ff4a;stroke-width:1.99999;stroke-linecap:round;stroke-linejoin:round;stroke-miterlimit:10;stroke-dasharray:none;stroke-opacity:1;visibility:visible"/><path d="m473.249 530.682-9.89 14.026M448.038 541.214l7.44 1.697M455.478 542.911l-7.44-1.697" style="fill:none;stroke:#00ff4a;stroke-width:.999997;stroke-linecap:round;stroke-linejoin:round;stroke-miterlimit:10;stroke-dasharray:none;stroke-opacity:1;visibility:visible"/><path d="m436.568 465.231 15.391 3.471M451.959 468.702l-15.391-3.471M449.43 447.286l4.032 9.645M439.536 445.598l-1.397 7.992M460.087 702.159l.679-6.067M460.606 682.207l-2.328-.987" style="fill:none;stroke:#00ff4a;stroke-width:1.99999;stroke-linecap:round;stroke-linejoin:round;stroke-miterlimit:10;stroke-dasharray:none;stroke-opacity:1;visibility:visible"/><path d="m401.191 532.202-11.164 4.808M354.204 538.698l10.962 9.042M407.279 532.431l-6.088-.229" style="fill:none;stroke:#00ff4a;stroke-width:.999997;stroke-linecap:round;stroke-linejoin:round;stroke-miterlimit:10;stroke-dasharray:none;stroke-opacity:1;visibility:visible"/><path d="m429.628 574.438 15.307-2.166" style="fill:none;stroke:#00ff4a;stroke-width:.666665;stroke-linecap:round;stroke-linejoin:round;stroke-miterlimit:10;stroke-dasharray:none;stroke-opacity:1;visibility:visible"/><path d="m433.988 567.038-4.602-10.252" style="fill:none;stroke:#00ff4a;stroke-width:1.99999;stroke-linecap:round;stroke-linejoin:round;stroke-miterlimit:10;stroke-dasharray:none;stroke-opacity:1;visibility:visible"/><path d="m461.483 700.364-9.328-5.956M429.866 573.932l4.122-6.894M331.355 558.89l2.349-7.171" style="fill:none;stroke:#00ff4a;stroke-width:.666665;stroke-linecap:round;stroke-linejoin:round;stroke-miterlimit:10;stroke-dasharray:none;stroke-opacity:1;visibility:visible"/><path d="m331.702 560.043-2.601 1.953M426.342 574.803l2.268 3.025" style="fill:none;stroke:#00ff4a;stroke-width:.999997;stroke-linecap:round;stroke-linejoin:round;stroke-miterlimit:10;stroke-dasharray:none;stroke-opacity:1;visibility:visible"/><path d="m429.628 574.438 15.408-1.04" style="fill:none;stroke:#00ff4a;stroke-width:.666665;stroke-linecap:round;stroke-linejoin:round;stroke-miterlimit:10;stroke-dasharray:none;stroke-opacity:1;visibility:visible"/><path d="m460.087 702.159-6.745-8.1M435.996 567.946l8.542-10.268" style="fill:none;stroke:#00ff4a;stroke-width:.999997;stroke-linecap:round;stroke-linejoin:round;stroke-miterlimit:10;stroke-dasharray:none;stroke-opacity:1;visibility:visible"/><path d="m445.036 573.398-.472-19.751" style="fill:none;stroke:#00ff4a;stroke-width:1.99999;stroke-linecap:round;stroke-linejoin:round;stroke-miterlimit:10;stroke-dasharray:none;stroke-opacity:1;visibility:visible"/><path d="m448.038 541.214-18.666-4.247" style="fill:none;stroke:#00ff4a;stroke-width:.999997;stroke-linecap:round;stroke-linejoin:round;stroke-miterlimit:10;stroke-dasharray:none;stroke-opacity:1;visibility:visible"/><path d="m436.568 465.231-2.632 19.539" style="fill:none;stroke:#00ff4a;stroke-width:1.99999;stroke-linecap:round;stroke-linejoin:round;stroke-miterlimit:10;stroke-dasharray:none;stroke-opacity:1;visibility:visible"/><path d="m332.616 551.943 1.818 1.072" style="fill:none;stroke:#00ff4a;stroke-width:.666665;stroke-linecap:round;stroke-linejoin:round;stroke-miterlimit:10;stroke-dasharray:none;stroke-opacity:1;visibility:visible"/></svg>