<svg xmlns="http://www.w3.org/2000/svg" baseProfile="full" height="793.701" preserveAspectRatio="xMinYMin meet" style="width:765px;height:943px" width="559.371" xml:space="preserve"><path d="m365.322 266.573-70.667-37.333-9.554 5.333-.112 1.867-77.695 37.706-4.86-2.461c-5.778-2.888-27.333-13.779-35.112-16.89-7.778-3.109-81.554-29.999-84-30.665-2.445-.668-6.872 3.21-6.872 3.21l.43 9.011 53.333 20.667s42 16.444 71.296 33.094c29.296 16.654 53.591 35.127 53.591 35.127l45.555 36.224 10.446-6.445.474-8.724-27.808-21.942 78.667-39.335 41.742 18.637 6.704-4.192.749-8.22-46.307-24.669" style="fill:none;fill-opacity:1;fill-rule:nonzero;stroke:red;stroke-width:1.33333;visibility:visible"/><path d="M271.546 315.017s-22.224-16.888-45.333-30.888l70.887-34.667 51.516 27.824-77.07 37.731" style="fill:none;fill-opacity:1;fill-rule:nonzero;stroke:red;stroke-width:1.33333;visibility:visible"/><path d="m362.86 285.038 1.09.595M296.84 249.098l51.777 28.19M411.63 291.242l-105.572-56.385M298.674 230.912l-2.464-1.315M363.966 285.64l40.21 18.014M76.885 235.09c.03.43.177.85.425 1.21M76.384 228.106l.496 6.972M82.89 223.901h-.043l-.387.017-.384.027-.386.047-.38.057-.377.072-.368.085-.363.1-.35.107-.346.127-.332.13-.317.146-.307.161-.293.17-.276.177-.255.194-.24.203-.216.21-.197.221-.175.228-.148.234-.128.24-.098.242-.074.242-.049.247-.023.24.002.243.005.044M141.189 245.034l-58.272-21.13M77.477 236.436l57.13 22.344M200.906 270.776a471.272 471.272 0 0 0-59.718-25.746M219.393 280.752l-10.343-5.644M209.053 275.105l-8.144-4.33M269.826 313.289a399.636 399.636 0 0 0-50.432-32.537M134.608 258.78l1.489.584 2.827 1.122 2.82 1.138 2.806 1.149 2.802 1.164 2.788 1.183 2.784 1.189 2.774 1.208 2.767 1.223 2.755 1.236 2.746 1.252 2.736 1.264 2.728 1.278 2.72 1.296 2.709 1.306 2.701 1.325 2.689 1.336 2.681 1.347 2.67 1.372 2.66 1.38 2.654 1.397 2.642 1.405 2.632 1.426 2.618 1.44 2.61 1.453 2.601 1.467 2.591 1.485 2.577 1.497 2.569 1.519 2.559 1.527 2.546 1.544 2.541 1.56 2.523 1.572 2.515 1.589 2.503 1.604 2.492 1.619 2.48 1.636 2.467 1.648 2.459 1.665 2.446 1.679 2.434 1.696 2.423 1.71 2.408 1.727 2.401 1.743 2.389 1.757 2.37 1.77 2.363 1.793 2.345 1.803.339.262M311.578 346.294l-41.75-33.001M258.755 328.123l42.216 33.144M225.946 284.404l71.44-35.579" style="fill:none;stroke:red;stroke-width:1.99999;stroke-linecap:round;stroke-linejoin:round;stroke-miterlimit:10;stroke-dasharray:none;stroke-opacity:1;visibility:visible"/><path d="M297.709 243.853a1.01 1.01 0 0 0-.495-.859" style="fill:none;stroke:red;stroke-width:.999997;stroke-linecap:round;stroke-linejoin:round;stroke-miterlimit:10;stroke-dasharray:none;stroke-opacity:1;visibility:visible"/><path d="m207.294 274.146 8.041-3.904M215.335 270.244l69.652-33.804" style="fill:none;stroke:red;stroke-width:1.99999;stroke-linecap:round;stroke-linejoin:round;stroke-miterlimit:10;stroke-dasharray:none;stroke-opacity:1;visibility:visible"/><path d="M301.263 353.107a.507.507 0 0 0-.232.386M301.5 352.455a.701.701 0 0 0-.239.651M311.57 346.294a.45.45 0 0 0-.497-.041M93.84 230.2l.19.077.167.093.148.1.127.111.097.121.072.128.044.128.016.136-.013.134-.043.138-.068.134-.096.125-.121.125-.147.115-.167.105-.184.095-.206.087-.222.07-.232.06-.236.039-.242.025-.246.011-.246-.005-.24-.018-.23-.037-.22-.052-.207-.065M91.336 232.182l-7.639-2.785M83.698 229.397l-.188-.077-.169-.092-.145-.102-.123-.113-.099-.119-.069-.126-.043-.13-.014-.134.014-.135.043-.133.07-.136.097-.123.124-.123.144-.114.171-.106.186-.096.204-.082.22-.07.23-.059.239-.041.242-.026.246-.01.24.007.242.016.226.037.22.052.206.063M86.213 227.425l7.63 2.775M121.025 240.08l.195.082.17.092.155.102.127.114.104.12.076.131.046.135.019.137-.007.137-.038.14-.067.134-.09.132-.123.126-.144.114-.168.112-.183.096-.207.086-.218.074-.232.058-.24.04-.244.03-.247.01-.248-.007-.241-.019-.236-.038-.226-.052-.208-.06M118.549 242.102l-7.788-2.842M110.76 239.26l-.194-.082-.17-.09-.154-.102-.125-.114-.104-.123-.07-.128-.048-.132-.018-.139.01-.136.039-.14.067-.132.095-.13.12-.126.145-.116.167-.108.188-.098.202-.084.22-.072.23-.056.241-.043.244-.027.245-.01.248.005.24.02.233.035.225.052.206.065M113.244 237.252l7.781 2.828M148.753 250.157l.197.083.18.093.154.105.133.116.11.126.079.132.054.136.02.14-.003.144-.036.141-.06.136-.09.136-.121.127-.142.12-.163.11-.185.099-.206.085-.22.076-.23.059-.242.043-.249.03-.248.012-.252-.008-.243-.02-.237-.038-.23-.051-.213-.07M146.31 252.22l-7.948-2.898M138.362 249.324l-.194-.084-.176-.092-.158-.106-.13-.116-.104-.128-.082-.128-.048-.134-.024-.142.006-.142.04-.135.062-.141.092-.132.118-.128.142-.118.164-.112.188-.096.203-.089.22-.07.233-.061.24-.043.246-.027.249-.009.247.002.244.021.238.038.226.054.212.068M140.817 247.276l7.936 2.882M207.163 280.405l-.126-.085-.098-.094-.077-.104-.047-.112-.015-.108.005-.11.041-.112.065-.104.094-.1.114-.093.136-.073.158-.068.17-.052.187-.041.188-.019.19-.004.192.012.186.026.174.046.161.06.149.074.122.086.098.095.075.097.05.114.022.112-.012.11-.038.11-.067.107-.09.098-.116.09-.14.079-.156.065-.173.053-.179.04-.19.02-.194.005-.192-.016-.187-.027-.173-.045-.164-.059-.143-.073M211.157 282.912l-.135-.086-.11-.102-.082-.112-.06-.116-.03-.118v-.118l.026-.122.055-.113.082-.112.108-.103.131-.093.153-.083.168-.07.187-.05.193-.04.204-.024.204-.01.209.013.2.027.19.045.176.059.164.07.147.086.121.093.097.107.072.112.046.117.013.12-.01.12-.046.116-.065.115-.096.108-.119.098-.139.09-.164.072-.177.065-.19.044-.201.032-.205.015-.204-.004-.207-.016-.196-.035-.185-.052-.172-.067-.153-.078M202.927 278.06l-.134-.091-.107-.1-.084-.107-.055-.114-.033-.116v-.119l.03-.121.056-.112.081-.111.109-.103.131-.094.151-.078.171-.07.184-.051.195-.039.201-.024.207-.006.203.01.2.028.19.042.171.056.166.071.142.088.123.093.095.101.07.112.045.117.016.118-.013.12-.041.116-.07.114-.097.106-.12.093-.14.091-.163.073-.177.063-.19.046-.202.032-.201.016-.203-.004-.204-.018-.195-.034-.185-.054-.17-.063-.152-.077M311.073 346.253l-9.575 6.202M297.386 248.825a.364.364 0 0 0 .177-.335M297.562 248.49l.144-4.638M297.213 242.996l-12.224-6.556" style="fill:none;stroke:red;stroke-width:.999997;stroke-linecap:round;stroke-linejoin:round;stroke-miterlimit:10;stroke-dasharray:none;stroke-opacity:1;visibility:visible"/><path d="m302.242 360.575-1.27.695" style="fill:none;stroke:red;stroke-width:1.99999;stroke-linecap:round;stroke-linejoin:round;stroke-miterlimit:10;stroke-dasharray:none;stroke-opacity:1;visibility:visible"/><path d="m301.031 353.493-.261 7.39M300.769 360.882a.485.485 0 0 0 .2.385" style="fill:none;stroke:red;stroke-width:.999997;stroke-linecap:round;stroke-linejoin:round;stroke-miterlimit:10;stroke-dasharray:none;stroke-opacity:1;visibility:visible"/><path d="M311.237 354.551a9.42 9.42 0 0 0 .053-.653M311.1 354.794l-8.859 5.781" style="fill:none;stroke:red;stroke-width:1.99999;stroke-linecap:round;stroke-linejoin:round;stroke-miterlimit:10;stroke-dasharray:none;stroke-opacity:1;visibility:visible"/><path d="M311.589 346.529a.341.341 0 0 0-.02-.236" style="fill:none;stroke:red;stroke-width:.999997;stroke-linecap:round;stroke-linejoin:round;stroke-miterlimit:10;stroke-dasharray:none;stroke-opacity:1;visibility:visible"/><path d="m311.237 354.551-.14.243M311.293 353.898l.297-7.368" style="fill:none;stroke:red;stroke-width:1.99999;stroke-linecap:round;stroke-linejoin:round;stroke-miterlimit:10;stroke-dasharray:none;stroke-opacity:1;visibility:visible"/><path d="m140.925 245.113.017-.017.07-.044.132-.027.04.016" style="fill:none;stroke:red;stroke-width:.999997;stroke-linecap:round;stroke-linejoin:round;stroke-miterlimit:10;stroke-dasharray:none;stroke-opacity:1;visibility:visible"/><path d="m76.884 235.086-.004-.008M82.752 224.02a.92.92 0 0 1 .064-.084l.077-.036.021.01M77.242 236.093a.353.353 0 0 0 .238.341" style="fill:none;stroke:red;stroke-width:1.99999;stroke-linecap:round;stroke-linejoin:round;stroke-miterlimit:10;stroke-dasharray:none;stroke-opacity:1;visibility:visible"/><path d="m363.594 284.665.305-4.719M363.898 279.946l-.255-.445M280.31 321.577l83.586-41.632" style="fill:none;stroke:red;stroke-width:.999997;stroke-linecap:round;stroke-linejoin:round;stroke-miterlimit:10;stroke-dasharray:none;stroke-opacity:1;visibility:visible"/><path d="m271.935 314.956 82.415-40.482M363.594 284.665l-79.547 39.863" style="fill:none;stroke:red;stroke-width:1.99999;stroke-linecap:round;stroke-linejoin:round;stroke-miterlimit:10;stroke-dasharray:none;stroke-opacity:1;visibility:visible"/><path d="M404.864 295.64a.665.665 0 0 0-.462.458M405.034 295.24a.452.452 0 0 0-.17.4M363.643 279.502l-9.296-5.028" style="fill:none;stroke:red;stroke-width:.999997;stroke-linecap:round;stroke-linejoin:round;stroke-miterlimit:10;stroke-dasharray:none;stroke-opacity:1;visibility:visible"/><path d="m285.4 234.506 6.31-3.624" style="fill:none;stroke:red;stroke-width:1.99999;stroke-linecap:round;stroke-linejoin:round;stroke-miterlimit:10;stroke-dasharray:none;stroke-opacity:1;visibility:visible"/><path d="m295.31 231.73.077.1.054.102.018.11-.004.105-.028.105-.054.102-.083.096-.107.088-.125.078-.144.07-.164.051-.175.045-.184.028-.19.012-.196-.002-.19-.016-.19-.034-.175-.045-.168-.055-.15-.074M411.187 291.217l-6.153 4.023M404.403 296.098l-.596 7.103M297.315 234.71l-.122-.079-.104-.083-.08-.092-.051-.098-.025-.1v-.1l.024-.1.053-.096.079-.09.104-.08.122-.07.142-.061.158-.049.17-.032.174-.015.182-.007.182.012.18.027.164.037.163.056.139.064.121.08.103.083.08.096.057.092.023.103v.098l-.024.1-.052.095-.082.093-.104.083-.121.07-.141.059-.155.044-.169.038-.182.017-.18.003-.181-.01-.176-.028-.168-.04-.16-.054-.143-.066M301.28 236.97l-.133-.083-.113-.089-.087-.098-.065-.1-.039-.11-.013-.109.019-.107.04-.104.073-.1.092-.092.046-.036M303.54 236.196l.05.104.025.108-.001.106-.03.107-.059.104-.078.096-.104.087-.13.081-.143.068-.164.056-.173.043-.186.024-.194.017-.194-.001-.194-.02-.183-.03-.183-.045-.166-.06-.151-.073" style="fill:none;stroke:red;stroke-width:.999997;stroke-linecap:round;stroke-linejoin:round;stroke-miterlimit:10;stroke-dasharray:none;stroke-opacity:1;visibility:visible"/><path d="m293.133 232.598-.133-.08-.113-.09-.085-.099-.063-.099-.036-.106-.01-.11.017-.104.043-.105.07-.099.094-.09.113-.087" style="fill:none;stroke:red;stroke-width:.999997;stroke-linecap:round;stroke-linejoin:round;stroke-miterlimit:10;stroke-dasharray:none;stroke-opacity:1;visibility:visible"/><path d="m405.564 302.904-1.377.749" style="fill:none;stroke:red;stroke-width:1.99999;stroke-linecap:round;stroke-linejoin:round;stroke-miterlimit:10;stroke-dasharray:none;stroke-opacity:1;visibility:visible"/><path d="M403.807 303.202a.507.507 0 0 0 .38.454" style="fill:none;stroke:red;stroke-width:.999997;stroke-linecap:round;stroke-linejoin:round;stroke-miterlimit:10;stroke-dasharray:none;stroke-opacity:1;visibility:visible"/><path d="m284.911 235.356-.028 1.138M285.4 234.506a1.096 1.096 0 0 0-.488.851M411.163 299.217l-5.599 3.687M411.734 292.716l-.572 6.5M411.671 291.266l.063 1.45M411.671 291.266a.45.45 0 0 0-.484-.048" style="fill:none;stroke:red;stroke-width:1.99999;stroke-linecap:round;stroke-linejoin:round;stroke-miterlimit:10;stroke-dasharray:none;stroke-opacity:1;visibility:visible"/><path d="M134.442 258.453a.325.325 0 0 0 .166.325M134.524 250.472 77.3 228.274M259.335 319.626l-2.5-1.91-2.515-1.891-2.529-1.87-2.541-1.859-2.559-1.838-2.569-1.824-2.585-1.804-2.598-1.786-2.609-1.768-2.624-1.754-2.636-1.734-2.65-1.72-2.661-1.702-2.673-1.684-2.688-1.666-2.7-1.656-2.71-1.63-2.727-1.613-2.731-1.601-2.75-1.584-2.757-1.566-2.772-1.55-2.781-1.533-2.793-1.519-2.81-1.5-2.812-1.482-2.829-1.47-2.838-1.452-2.852-1.431-2.862-1.416-2.87-1.404-2.881-1.387-2.893-1.368-2.905-1.352-2.912-1.338-2.924-1.324-2.933-1.304-2.946-1.287-2.954-1.276-2.964-1.257-2.974-1.24-2.986-1.224-2.992-1.212-3.004-1.194-3.011-1.174M301.5 352.455l-42.166-32.829M221.157 281.718l76.552-37.865" style="fill:none;stroke:red;stroke-width:.999997;stroke-linecap:round;stroke-linejoin:round;stroke-miterlimit:10;stroke-dasharray:none;stroke-opacity:1;visibility:visible"/><path d="M77.242 236.093a2.135 2.135 0 0 1-.36-1.007" style="fill:none;stroke:red;stroke-width:1.99999;stroke-linecap:round;stroke-linejoin:round;stroke-miterlimit:10;stroke-dasharray:none;stroke-opacity:1;visibility:visible"/><path d="m364.772 277.356-79.37-42.852M405.034 295.24l-40.26-17.883" style="fill:none;stroke:red;stroke-width:.999997;stroke-linecap:round;stroke-linejoin:round;stroke-miterlimit:10;stroke-dasharray:none;stroke-opacity:1;visibility:visible"/><path d="m364.774 277.357.548-10.784M364.772 277.356l.55-10.783" style="fill:none;fill-opacity:1;fill-rule:nonzero;stroke:red;stroke-width:1.33333;visibility:visible"/><path d="m354.347 274.474-5.73 2.814M301.28 236.97l4.778-2.113M297.315 234.71l1.359-3.798M293.133 232.598l3.077-3.001M215.335 270.242l10.611 14.162" style="fill:none;stroke:red;stroke-width:1.99999;stroke-linecap:round;stroke-linejoin:round;stroke-miterlimit:10;stroke-dasharray:none;stroke-opacity:1;visibility:visible"/><path d="m209.053 275.105-1.89 5.3M209.05 275.108l2.107 7.804M209.053 275.105l2.104 7.807M209.053 275.105l-6.125 2.955" style="fill:none;stroke:red;stroke-width:.999997;stroke-linecap:round;stroke-linejoin:round;stroke-miterlimit:10;stroke-dasharray:none;stroke-opacity:1;visibility:visible"/><path d="m297.386 248.825-5.676-17.943" style="fill:none;stroke:red;stroke-width:1.99999;stroke-linecap:round;stroke-linejoin:round;stroke-miterlimit:10;stroke-dasharray:none;stroke-opacity:1;visibility:visible"/><path d="m296.21 229.597 1.105 5.113M298.674 230.912l-1.359 3.798M215.335 270.242l5.822 11.476" style="fill:none;stroke:red;stroke-width:.999997;stroke-linecap:round;stroke-linejoin:round;stroke-miterlimit:10;stroke-dasharray:none;stroke-opacity:1;visibility:visible"/><path d="m307.493 211.482 3.794-105.349" style="fill:none;stroke:#00ff4a;stroke-width:1.99999;stroke-linecap:round;stroke-linejoin:round;stroke-miterlimit:10;stroke-dasharray:none;stroke-opacity:1;visibility:visible"/><path d="m293.06 102.332 12.99 6.064M301.617 104.564l-.115-.063-.093-.074-.066-.077-.04-.08-.01-.082.019-.084.048-.074.071-.078.103-.068.12-.054.143-.043.153-.03.164-.023.172-.006.17.01.168.022.156.036.145.048.129.06.103.07.08.074.053.076.025.084-.002.083-.035.078-.058.078-.087.07-.113.063-.133.05-.145.04-.163.025-.168.011-.174-.004-.17-.009-.161-.035-.15-.039-.141-.055" style="fill:none;stroke:#00ff4a;stroke-width:.999997;stroke-linecap:round;stroke-linejoin:round;stroke-miterlimit:10;stroke-dasharray:none;stroke-opacity:1;visibility:visible"/><path d="m300.854 101.127 3.416 1.583M308.873 104.85l2.174 1.006M296.245 100.737l-3.187 1.594" style="fill:none;stroke:#00ff4a;stroke-width:1.99999;stroke-linecap:round;stroke-linejoin:round;stroke-miterlimit:10;stroke-dasharray:none;stroke-opacity:1;visibility:visible"/><path d="m311.093 106.365-3.998 2.031M311.093 106.365l.085-.054.062-.063.038-.068.008-.068-.021-.07-.048-.068-.075-.061-.096-.057" style="fill:none;stroke:#00ff4a;stroke-width:.999997;stroke-linecap:round;stroke-linejoin:round;stroke-miterlimit:10;stroke-dasharray:none;stroke-opacity:1;visibility:visible"/><path d="M307.306 211.73a.32.32 0 0 0 .184-.249M307.306 211.73l-3.816 2.167M302.494 213.898l-12.367-6.478M292.677 115.961l.382-13.63M290.715 186.295l1.659-59.5M290.127 207.42l.334-11.96M302.494 213.898a1.157 1.157 0 0 0 .996 0" style="fill:none;stroke:#00ff4a;stroke-width:1.99999;stroke-linecap:round;stroke-linejoin:round;stroke-miterlimit:10;stroke-dasharray:none;stroke-opacity:1;visibility:visible"/><path d="m302.494 213.898 3.556-105.502M300.854 101.127l.763 3.437M304.27 102.71l-2.655 1.854" style="fill:none;stroke:#00ff4a;stroke-width:.999997;stroke-linecap:round;stroke-linejoin:round;stroke-miterlimit:10;stroke-dasharray:none;stroke-opacity:1;visibility:visible"/><path d="m301.617 104.564-.763-3.437M301.615 104.564l2.655-1.854M306.05 108.396l2.823-3.546M307.095 108.396l-10.85-7.659" style="fill:none;stroke:#00ff4a;stroke-width:1.99999;stroke-linecap:round;stroke-linejoin:round;stroke-miterlimit:10;stroke-dasharray:none;stroke-opacity:1;visibility:visible"/><path d="m296.245 100.737 10.85 7.659" style="fill:none;stroke:#00ff4a;stroke-width:.999997;stroke-linecap:round;stroke-linejoin:round;stroke-miterlimit:10;stroke-dasharray:none;stroke-opacity:1;visibility:visible"/><path d="m292.374 126.795.303-10.834M290.461 195.46l.254-9.165M292.677 115.961l-.303 10.834M290.715 186.295l-.254 9.165" style="fill:none;stroke:#00ff4a;stroke-width:1.99999;stroke-linecap:round;stroke-linejoin:round;stroke-miterlimit:10;stroke-dasharray:none;stroke-opacity:1;visibility:visible"/><path d="m209.053 275.105-1.759-.959" style="fill:none;stroke:red;stroke-width:1.99999;stroke-linecap:round;stroke-linejoin:round;stroke-miterlimit:10;stroke-dasharray:none;stroke-opacity:1;visibility:visible"/></svg>