<svg xmlns="http://www.w3.org/2000/svg" baseProfile="full" height="793.701" preserveAspectRatio="xMinYMin meet" style="width:765px;height:943px" width="559.371" xml:space="preserve"><path d="m258.291 488.295 107.221-38.764M424.874 486.737l38.804 18.917M474.65 491.918l-105.008-60.45M363.63 450.207l41.972 25.036M421.484 484.714l3.36 2.005M273.018 528.502l30.425 31.673M319.268 544.892l-30.043-31.155M172.893 460.95l1.303.601 2.462 1.155 2.451 1.163 2.435 1.178 2.422 1.188 2.407 1.198 2.395 1.212 2.377 1.22 2.365 1.229 2.352 1.248 2.336 1.253 2.319 1.268 2.305 1.279 2.292 1.288 2.275 1.303 2.26 1.314 2.244 1.322 2.23 1.337 2.214 1.35 2.196 1.36 2.181 1.371 2.164 1.383 2.15 1.396 2.132 1.408 2.117 1.419 2.099 1.434 2.08 1.439 2.068 1.46 2.045 1.468 2.03 1.481 2.015 1.492 1.995 1.506 1.978 1.517 1.958 1.532 1.941 1.539 1.925 1.554 1.903 1.57 1.885 1.58 1.868 1.593 1.848 1.607 1.83 1.618 1.808 1.63 1.79 1.645 1.77 1.657 1.75 1.67 1.728 1.684 1.712 1.693 1.688 1.712.032.03M289.211 513.726a249.26 249.26 0 0 0-39.313-31.066M249.898 482.66l-10.893-7.041M239 475.615a371.463 371.463 0 0 0-55.867-28.505M123.753 438.284l49.139 22.665M183.137 447.11l-51.036-21.616M132.02 425.475l-.42-.028-.426-.017-.429-.008-.43.001-.435.015-.429.021-.43.034-.424.04-.419.054-.413.06-.404.074-.397.078-.384.091-.372.1-.359.108-.347.116-.328.126-.313.135-.296.145-.279.16-.258.166-.239.177-.213.197-.19.203-.136.187-.11.19-.087.192-.065.217-.038.214-.005.212.003.022M122.947 428.75l.417 8.844M123.368 437.6l.019.192.009.036" style="fill:none;stroke:red;stroke-width:1.99999;stroke-linecap:round;stroke-linejoin:round;stroke-miterlimit:10;stroke-dasharray:none;stroke-opacity:1;visibility:visible" visibility="hidden"/><path d="m296.853 521.647 127.617-45.16M424.47 476.487l.232.55" style="fill:none;stroke:red;stroke-width:.999997;stroke-linecap:round;stroke-linejoin:round;stroke-miterlimit:10;stroke-dasharray:none;stroke-opacity:1;visibility:visible" visibility="hidden"/><path d="M416.085 471.558 290.953 515.53" style="fill:none;stroke:red;stroke-width:1.99999;stroke-linecap:round;stroke-linejoin:round;stroke-miterlimit:10;stroke-dasharray:none;stroke-opacity:1;visibility:visible" visibility="hidden"/><path d="m416.085 471.558 8.385 4.93" style="fill:none;stroke:red;stroke-width:.999997;stroke-linecap:round;stroke-linejoin:round;stroke-miterlimit:10;stroke-dasharray:none;stroke-opacity:1;visibility:visible" visibility="hidden"/><path d="m424.174 483.757-121.969 43.44" style="fill:none;stroke:red;stroke-width:1.99999;stroke-linecap:round;stroke-linejoin:round;stroke-miterlimit:10;stroke-dasharray:none;stroke-opacity:1;visibility:visible" visibility="hidden"/><path d="m424.44 483.5-.265.255M365.9 442.805a1.267 1.267 0 0 0-.429-1.04" style="fill:none;stroke:red;stroke-width:.999997;stroke-linecap:round;stroke-linejoin:round;stroke-miterlimit:10;stroke-dasharray:none;stroke-opacity:1;visibility:visible" visibility="hidden"/><path d="m240.018 476.271 114.841-40.823" style="fill:none;stroke:red;stroke-width:1.99999;stroke-linecap:round;stroke-linejoin:round;stroke-miterlimit:10;stroke-dasharray:none;stroke-opacity:1;visibility:visible" visibility="hidden"/><path d="m354.859 435.448 10.613 6.315M365.9 442.804l-.143 6.188M365.756 448.991l-.012.132-.019.117-.04.104-.048.082-.056.061-.066.039-.003.002M464.578 494.147a.473.473 0 0 0-.342.373M425.704 475.523a1.09 1.09 0 0 0-.724.99M464.236 494.522a.704.704 0 0 0-.54.58" style="fill:none;stroke:red;stroke-width:.999997;stroke-linecap:round;stroke-linejoin:round;stroke-miterlimit:10;stroke-dasharray:none;stroke-opacity:1;visibility:visible" visibility="hidden"/><path d="m355.479 434.361 13.772-2.947" style="fill:none;stroke:red;stroke-width:1.99999;stroke-linecap:round;stroke-linejoin:round;stroke-miterlimit:10;stroke-dasharray:none;stroke-opacity:1;visibility:visible" visibility="hidden"/><path d="m464.579 494.147 9.565-2.333M372.387 435.124l.139.093.11.096.079.099.05.1.018.103-.016.1-.048.1-.079.097-.108.092-.138.087-.163.078-.19.074-.214.062-.232.054-.247.044-.264.032-.27.018-.28.011h-.282l-.281-.015-.275-.022-.269-.039-.255-.048-.24-.055-.224-.066-.202-.075-.179-.083-.152-.086-.124-.094-.093-.098-.064-.102-.032-.102v-.099l.032-.103.064-.096.093-.094.124-.091.152-.083.176-.076.203-.065.221-.056.241-.052.255-.036.27-.027.275-.016.279-.002.279.006.278.019.272.03.262.042.248.05.233.062.212.07.19.078.166.084M463.176 504.952l.521-9.853M424.584 486.15l.396-9.639M463.175 504.952a.83.83 0 0 0 .473.682" style="fill:none;stroke:red;stroke-width:.999997;stroke-linecap:round;stroke-linejoin:round;stroke-miterlimit:10;stroke-dasharray:none;stroke-opacity:1;visibility:visible" visibility="hidden"/><path d="M474.799 492.022a.813.813 0 0 0-.656-.207" style="fill:none;stroke:red;stroke-width:1.99999;stroke-linecap:round;stroke-linejoin:round;stroke-miterlimit:10;stroke-dasharray:none;stroke-opacity:1;visibility:visible" visibility="hidden"/><path d="M424.583 486.151a.584.584 0 0 0 .29.585M463.65 505.634a.361.361 0 0 0 .318.008" style="fill:none;stroke:red;stroke-width:.999997;stroke-linecap:round;stroke-linejoin:round;stroke-miterlimit:10;stroke-dasharray:none;stroke-opacity:1;visibility:visible" visibility="hidden"/><path d="M473.505 503.275c.24-.067.467-.157.68-.275M473.506 503.275l-9.535 2.364M474.823 492.462a1.281 1.281 0 0 0-.024-.44M474.185 503a5.32 5.32 0 0 0 .088-.72M474.824 492.461l-.55 9.819M355.478 434.362a.97.97 0 0 0-.708.915M369.64 431.469a.537.537 0 0 0-.39-.054M354.765 435.48l.005-.204" style="fill:none;stroke:red;stroke-width:1.99999;stroke-linecap:round;stroke-linejoin:round;stroke-miterlimit:10;stroke-dasharray:none;stroke-opacity:1;visibility:visible" visibility="hidden"/><path d="M371.503 436.269a2.817 2.817 0 0 0-2.523.028M371.622 436.353l-.017-.015-.1-.069M304.008 548.286l14.556-3.625M132.906 430.754l-.1-.085-.07-.095-.04-.092-.011-.096.022-.101.051-.096.084-.096.112-.092.139-.088.164-.082.188-.077.21-.068.227-.06.245-.05.255-.043.267-.03.269-.02.272-.009h.27l.265.013.258.023.244.036.232.044.211.053.192.066.168.07.143.079.116.084.085.09.057.093.027.098-.005.095-.038.097-.066.098-.098.094-.125.09-.152.085-.176.08-.2.075-.22.064-.236.056-.252.046-.26.035-.268.028-.272.013-.273.004-.271-.009-.261-.015-.252-.032-.239-.04-.221-.05-.203-.058-.18-.066-.155-.076-.129-.083M235.423 481.105l-.127-.099-.09-.109-.062-.11-.028-.113.004-.116.042-.114.07-.112.106-.107.136-.104.162-.097.191-.087.213-.081.238-.068.253-.062.27-.048.28-.037.289-.023.292-.01.292.002.289.015.284.028.27.037.258.054.239.065.218.073.195.084.17.092.137.099.109.104.08.11.045.111.011.114-.023.116-.054.11-.087.111-.119.105-.149.1-.177.094-.202.084-.226.077-.244.067-.264.053-.276.044-.286.027-.292.021-.296.004-.29-.01-.287-.022-.279-.035-.265-.044-.248-.06-.232-.069-.205-.079-.182-.086-.153-.099M303.195 559.615a.813.813 0 0 0 .25.559M303.5 548.907a.636.636 0 0 0-.25.503M319.222 544.86a.755.755 0 0 0-.659-.198M304.007 548.286a.757.757 0 0 0-.506.62M303.196 559.615l.053-10.205M303.443 560.174a.619.619 0 0 0 .499.013" style="fill:none;stroke:red;stroke-width:.999997;stroke-linecap:round;stroke-linejoin:round;stroke-miterlimit:10;stroke-dasharray:none;stroke-opacity:1;visibility:visible" visibility="hidden"/><path d="M318.447 556.516c.233-.062.454-.15.663-.27M318.449 556.516l-14.507 3.67M319.11 556.247c.1-.25.153-.508.163-.772" style="fill:none;stroke:red;stroke-width:1.99999;stroke-linecap:round;stroke-linejoin:round;stroke-miterlimit:10;stroke-dasharray:none;stroke-opacity:1;visibility:visible" visibility="hidden"/><path d="M319.375 545.314a.51.51 0 0 0-.152-.454" style="fill:none;stroke:red;stroke-width:.999997;stroke-linecap:round;stroke-linejoin:round;stroke-miterlimit:10;stroke-dasharray:none;stroke-opacity:1;visibility:visible" visibility="hidden"/><path d="m319.376 545.313-.101 10.161" style="fill:none;stroke:red;stroke-width:1.99999;stroke-linecap:round;stroke-linejoin:round;stroke-miterlimit:10;stroke-dasharray:none;stroke-opacity:1;visibility:visible" visibility="hidden"/><path d="m239.139 481.41-.028-.028-.09-.08-.123-.075-.146-.064-.17-.054-.192-.043-.207-.032-.216-.019-.224-.008-.223.008-.22.019-.212.032-.197.043-.177.054-.159.064-.13.075-.103.08-.063.065" style="fill:none;stroke:red;stroke-width:.999997;stroke-linecap:round;stroke-linejoin:round;stroke-miterlimit:10;stroke-dasharray:none;stroke-opacity:1;visibility:visible" visibility="hidden"/><path d="M123.382 437.731a.587.587 0 0 0 .371.554" style="fill:none;stroke:red;stroke-width:1.99999;stroke-linecap:round;stroke-linejoin:round;stroke-miterlimit:10;stroke-dasharray:none;stroke-opacity:1;visibility:visible" visibility="hidden"/><path d="M136.365 431a2.739 2.739 0 0 0-2.528.092M250.477 483.037l114.994-41.273M425.705 475.523l38.873 18.625M355.479 434.361l70.226 41.161M303.25 549.41l-30.457-31.255M272.792 518.154l-1.793-1.79-1.816-1.771-1.84-1.76-1.86-1.746-1.886-1.732-1.904-1.716-1.929-1.7-1.947-1.689-1.972-1.675-1.992-1.66-2.012-1.644-2.032-1.632-2.052-1.618-2.077-1.603-2.092-1.59-2.116-1.573-2.133-1.566-2.154-1.546-2.172-1.534-2.193-1.523-2.21-1.51-2.231-1.493-2.248-1.48-2.266-1.47-2.286-1.452-2.303-1.443-2.321-1.427-2.339-1.413-2.356-1.404-2.376-1.388-2.39-1.375-2.407-1.364-2.428-1.352-2.441-1.334-2.458-1.327-2.477-1.31-2.492-1.3-2.508-1.285-2.523-1.274-2.542-1.262-2.556-1.246-2.57-1.239-2.59-1.223-2.6-1.213-2.62-1.199M172.283 451.304l-49.32-22.419M122.963 428.885l-.016-.132" style="fill:none;stroke:red;stroke-width:.999997;stroke-linecap:round;stroke-linejoin:round;stroke-miterlimit:10;stroke-dasharray:none;stroke-opacity:1;visibility:visible" visibility="hidden"/><path d="m123.367 437.594.016.137M365.472 441.763l-1.842 8.444M416.085 471.558l-10.483 3.685M424.873 486.736l-3.389-2.022" style="fill:none;stroke:red;stroke-width:1.99999;stroke-linecap:round;stroke-linejoin:round;stroke-miterlimit:10;stroke-dasharray:none;stroke-opacity:1;visibility:visible" visibility="hidden"/><path d="m369.64 431.469 2.747 3.655M369.642 431.467l2.745 3.657M132.101 425.494l4.264 5.506" style="fill:none;stroke:red;stroke-width:.999997;stroke-linecap:round;stroke-linejoin:round;stroke-miterlimit:10;stroke-dasharray:none;stroke-opacity:1;visibility:visible" visibility="hidden"/><path d="m260.016 626.753 101.806-18.584M273.519 669.976l29.088 36.245M317.83 691.431l-28.69-35.79M177.19 592.163l1.255.695 2.378 1.336 2.362 1.349 2.349 1.36 2.335 1.37 2.321 1.387 2.307 1.398 2.293 1.41 2.28 1.426 2.265 1.437 2.252 1.45 2.236 1.462 2.222 1.476 2.206 1.487 2.19 1.504 2.178 1.517 2.162 1.527 2.149 1.542 2.13 1.556 2.114 1.566 2.1 1.584 2.087 1.596 2.068 1.609 2.052 1.623 2.034 1.638 2.022 1.65 2 1.664 1.988 1.677 1.969 1.69 1.952 1.706 1.937 1.72 1.917 1.73 1.902 1.751 1.882 1.76 1.864 1.775 1.852 1.788 1.827 1.807 1.813 1.817 1.791 1.83 1.776 1.849 1.756 1.86 1.735 1.873 1.72 1.89 1.698 1.907 1.68 1.917 1.66 1.934 1.64 1.95 1.62 1.96.004.003M289.129 655.63a252.55 252.55 0 0 0-37.712-35.84M251.419 619.79l-3.565-2.773M230.985 604.41a341.866 341.866 0 0 0-36.399-21.995M129.722 565.913l47.47 26.25M179.372 574.637l-8.53-4.35M155.954 562.693l-8.124-4.141M133.378 553.694l-.137.028-.383.096-.373.107-.359.113-.35.127-.334.134-.316.147-.304.159-.284.169-.265.18-.247.19-.223.202-.197.21-.172.22-.14.225-.11.229-.083.228-.052.23-.024.229.004.17M129.025 557.088l.39 8.196M129.416 565.284v.055l.027.176M418.079 650.726l36.727 22.377M465.373 660.068l-90.57-65.577M361.2 608.284l40.635 30.32M416.794 649.77l1.252.935M141.331 458.2l-.375-.293M141.79 465.06l-.277-6.57" style="fill:none;stroke:#00ff4a;stroke-width:1.99999;stroke-linecap:round;stroke-linejoin:round;stroke-miterlimit:10;stroke-dasharray:none;stroke-opacity:1;visibility:visible"/><path d="m131.5 455.108-.347.32" style="fill:none;stroke:#00ff4a;stroke-width:.999997;stroke-linecap:round;stroke-linejoin:round;stroke-miterlimit:10;stroke-dasharray:none;stroke-opacity:1;visibility:visible"/><path d="m131.002 455.728.297 6.548M164.926 468.663l-.376-.296M165.352 475.627l-.239-6.653M154.847 465.459l-.353.32M154.331 466.094l.256 6.632M189.3 479.473l-.379-.301M189.69 486.542l-.195-6.745M178.962 476.147l-.36.32M178.426 476.799l.213 6.72M374.769 595.82l2.505-92.453M377.867 481.534l.248-9.048M247.894 620.49l-1.192-101.618" style="fill:none;stroke:#00ff4a;stroke-width:1.99999;stroke-linecap:round;stroke-linejoin:round;stroke-miterlimit:10;stroke-dasharray:none;stroke-opacity:1;visibility:visible"/><path d="M362.186 602.088a1.307 1.307 0 0 0-.41-1.017" style="fill:none;stroke:#00ff4a;stroke-width:.999997;stroke-linecap:round;stroke-linejoin:round;stroke-miterlimit:10;stroke-dasharray:none;stroke-opacity:1;visibility:visible"/><path d="m247.794 611.953 103.89-18.265" style="fill:none;stroke:#00ff4a;stroke-width:1.99999;stroke-linecap:round;stroke-linejoin:round;stroke-miterlimit:10;stroke-dasharray:none;stroke-opacity:1;visibility:visible"/><path d="m361.777 601.072-10.09-7.384M362.055 607.717l.132-5.628M361.824 608.168l.03-.007.067-.038.052-.07.046-.09.026-.115.011-.132M317.13 691.207l-13.919 4.159M302.726 696.004a.568.568 0 0 0-.243.453M303.209 695.367a.765.765 0 0 0-.48.638M317.762 691.381a.699.699 0 0 0-.633-.174" style="fill:none;stroke:#00ff4a;stroke-width:.999997;stroke-linecap:round;stroke-linejoin:round;stroke-miterlimit:10;stroke-dasharray:none;stroke-opacity:1;visibility:visible"/><path d="m304.066 705.616-1.392.679M302.435 705.777a.739.739 0 0 0 .24.518" style="fill:none;stroke:#00ff4a;stroke-width:1.99999;stroke-linecap:round;stroke-linejoin:round;stroke-miterlimit:10;stroke-dasharray:none;stroke-opacity:1;visibility:visible"/><path d="m302.485 696.457-.05 9.32" style="fill:none;stroke:#00ff4a;stroke-width:.999997;stroke-linecap:round;stroke-linejoin:round;stroke-miterlimit:10;stroke-dasharray:none;stroke-opacity:1;visibility:visible"/><path d="M302.673 706.295a.827.827 0 0 0 .477-.058M317.022 702.041c.22-.066.428-.15.636-.253M317.657 701.788l-.697-.068M303.152 706.237l13.87-4.195M317.657 701.788c.092-.24.143-.49.153-.748" style="fill:none;stroke:#00ff4a;stroke-width:1.99999;stroke-linecap:round;stroke-linejoin:round;stroke-miterlimit:10;stroke-dasharray:none;stroke-opacity:1;visibility:visible"/><path d="m317.762 691.382.06.04.048.08.027.112.009.144" style="fill:none;stroke:#00ff4a;stroke-width:.999997;stroke-linecap:round;stroke-linejoin:round;stroke-miterlimit:10;stroke-dasharray:none;stroke-opacity:1;visibility:visible"/><path d="m317.812 701.043.095-9.285M129.432 565.444a.52.52 0 0 0 .296.463" style="fill:none;stroke:#00ff4a;stroke-width:1.99999;stroke-linecap:round;stroke-linejoin:round;stroke-miterlimit:10;stroke-dasharray:none;stroke-opacity:1;visibility:visible"/><path d="m417.673 643.084-121.297 21.583M417.894 643.625l-.221-.541" style="fill:none;stroke:#00ff4a;stroke-width:.999997;stroke-linecap:round;stroke-linejoin:round;stroke-miterlimit:10;stroke-dasharray:none;stroke-opacity:1;visibility:visible"/><path d="m291.036 658.008 118.709-20.79" style="fill:none;stroke:#00ff4a;stroke-width:1.99999;stroke-linecap:round;stroke-linejoin:round;stroke-miterlimit:10;stroke-dasharray:none;stroke-opacity:1;visibility:visible"/><path d="m417.673 643.084-7.925-5.864" style="fill:none;stroke:#00ff4a;stroke-width:.999997;stroke-linecap:round;stroke-linejoin:round;stroke-miterlimit:10;stroke-dasharray:none;stroke-opacity:1;visibility:visible"/><path d="m301.163 670.64 116.245-20.979" style="fill:none;stroke:#00ff4a;stroke-width:1.99999;stroke-linecap:round;stroke-linejoin:round;stroke-miterlimit:10;stroke-dasharray:none;stroke-opacity:1;visibility:visible"/><path d="m417.407 649.66.25-.192M455.336 663.07a.653.653 0 0 0-.513.512M455.663 662.685a.493.493 0 0 0-.325.386M418.914 640.58a1.088 1.088 0 0 0-.694.945" style="fill:none;stroke:#00ff4a;stroke-width:.999997;stroke-linecap:round;stroke-linejoin:round;stroke-miterlimit:10;stroke-dasharray:none;stroke-opacity:1;visibility:visible"/><path d="m352.3 591.508 5.608-1.503" style="fill:none;stroke:#00ff4a;stroke-width:1.99999;stroke-linecap:round;stroke-linejoin:round;stroke-miterlimit:10;stroke-dasharray:none;stroke-opacity:1;visibility:visible"/><path d="m464.783 659.918-9.12 2.767M454.825 663.58l-.468 8.893M418.222 641.525l-.359 8.723M454.356 672.475a.767.767 0 0 0 .452.632" style="fill:none;stroke:#00ff4a;stroke-width:.999997;stroke-linecap:round;stroke-linejoin:round;stroke-miterlimit:10;stroke-dasharray:none;stroke-opacity:1;visibility:visible"/><path d="M465.404 660.095a.712.712 0 0 0-.623-.176" style="fill:none;stroke:#00ff4a;stroke-width:1.99999;stroke-linecap:round;stroke-linejoin:round;stroke-miterlimit:10;stroke-dasharray:none;stroke-opacity:1;visibility:visible"/><path d="M454.808 673.105a.56.56 0 0 0 .306-.048M417.863 650.248a.499.499 0 0 0 .215.476" style="fill:none;stroke:#00ff4a;stroke-width:.999997;stroke-linecap:round;stroke-linejoin:round;stroke-miterlimit:10;stroke-dasharray:none;stroke-opacity:1;visibility:visible"/><path d="M464.207 670.267c.221-.072.435-.157.643-.259M455.115 673.058l9.092-2.79M465.432 660.45a.707.707 0 0 0-.028-.359M464.852 670.008c.042-.227.07-.457.084-.69M464.937 669.32l.496-8.87M352.3 591.508a.965.965 0 0 0-.677.872M351.626 592.38l-.028 1.323" style="fill:none;stroke:#00ff4a;stroke-width:1.99999;stroke-linecap:round;stroke-linejoin:round;stroke-miterlimit:10;stroke-dasharray:none;stroke-opacity:1;visibility:visible"/><path d="m140.148 466.735 3.728-1.227M147.868 561.155l-3.617 1.365M141.331 458.2l.013.01.086.08.056.091.025.095-.007.09-.037.095-.068.09-.096.088-.125.084-.152.081-.175.07-.195.063-.214.055-.227.045-.24.035-.244.02-.25.013-.246-.001-.243-.013-.236-.02-.22-.038-.206-.044-.19-.056-.165-.065M141.79 465.06l-.008.08-.036.092-.068.09-.097.091-.124.086-.152.08-.174.069-.194.063-.214.057-.226.043-.236.036-.248.022-.248.014h-.247l-.243-.015-.233-.023-.223-.036-.205-.044-.185-.054-.167-.068" style="fill:none;stroke:#00ff4a;stroke-width:.999997;stroke-linecap:round;stroke-linejoin:round;stroke-miterlimit:10;stroke-dasharray:none;stroke-opacity:1;visibility:visible"/><path d="m137.52 456.515.059.072.028.073-.002.079-.032.077-.062.074-.092.074-.118.066-.142.06-.163.053-.179.043-.193.034-.201.024-.208.011h-.206l-.201-.01-.19-.023-.18-.035-.16-.041-.138-.054M135.14 457.091l-.115-.061-.086-.067-.058-.07-.032-.075.004-.078.034-.076.061-.076" style="fill:none;stroke:#00ff4a;stroke-width:.666665;stroke-linecap:round;stroke-linejoin:round;stroke-miterlimit:10;stroke-dasharray:none;stroke-opacity:1;visibility:visible"/><path d="m134.197 454.883-.15-.056-.171-.045-.192-.038-.208-.028-.216-.014-.223-.003-.225.01-.222.02-.214.031-.203.042-.185.054-.167.06-.147.07-.116.076-.09.078-.059.084-.027.08M140.762 457.796l-2.708-1.201" style="fill:none;stroke:#00ff4a;stroke-width:1.99999;stroke-linecap:round;stroke-linejoin:round;stroke-miterlimit:10;stroke-dasharray:none;stroke-opacity:1;visibility:visible"/><path d="m137.977 459.07-6.561-2.919M139.592 466.728l.556.007M129.162 462.036l10.43 4.693M129.231 461.827l-.07.208" style="fill:none;stroke:#00ff4a;stroke-width:.999997;stroke-linecap:round;stroke-linejoin:round;stroke-miterlimit:10;stroke-dasharray:none;stroke-opacity:1;visibility:visible"/><path d="m129.231 461.827 2.019-.656M141.758 464.32l2.183.975" style="fill:none;stroke:#00ff4a;stroke-width:1.99999;stroke-linecap:round;stroke-linejoin:round;stroke-miterlimit:10;stroke-dasharray:none;stroke-opacity:1;visibility:visible"/><path d="m143.876 465.508.065-.212M131.298 462.276a.564.564 0 0 0 .415.424M139.904 474.013l-.31-7.285" style="fill:none;stroke:#00ff4a;stroke-width:.999997;stroke-linecap:round;stroke-linejoin:round;stroke-miterlimit:10;stroke-dasharray:none;stroke-opacity:1;visibility:visible"/><path d="m129.162 462.036.333 7.244" style="fill:none;stroke:#00ff4a;stroke-width:1.99999;stroke-linecap:round;stroke-linejoin:round;stroke-miterlimit:10;stroke-dasharray:none;stroke-opacity:1;visibility:visible"/><path d="m142.934 552.681-.51-1.74-.489-1.757-.466-1.776-.446-1.791-.422-1.81-.4-1.825-.379-1.841-.356-1.857-.333-1.872-.31-1.887-.288-1.901-.265-1.918-.241-1.929-.218-1.943-.194-1.957-.172-1.967-.15-1.98-.124-1.992-.098-2.002-.08-2.012-.054-2.026-.029-2.033-.004-2.045.016-2.055.041-2.059.067-2.069.088-2.079.115-2.082.137-2.094.161-2.098.186-2.104.209-2.108.233-2.113.258-2.118.282-2.124.304-2.125.33-2.13.353-2.133" style="fill:none;stroke:#00ff4a;stroke-width:.999997;stroke-linecap:round;stroke-linejoin:round;stroke-miterlimit:10;stroke-dasharray:none;stroke-opacity:1;visibility:visible"/><path d="m129.286 472.579-.348 2.116-.321 2.116-.3 2.113-.276 2.11-.25 2.105-.228 2.101-.201 2.094-.181 2.093-.156 2.085-.131 2.079-.108 2.07-.084 2.066-.059 2.06-.038 2.047-.012 2.04.012 2.033.037 2.023.059 2.01.082 2.003.107 1.995.13 1.98.154 1.968.176 1.957.2 1.947.224 1.929.247 1.921.27 1.908.292 1.89.315 1.878.337 1.862.359 1.846.385 1.834.407 1.816.427 1.8.448 1.783.472 1.767.493 1.75.515 1.731" style="fill:none;stroke:#00ff4a;stroke-width:1.99999;stroke-linecap:round;stroke-linejoin:round;stroke-miterlimit:10;stroke-dasharray:none;stroke-opacity:1;visibility:visible"/><path d="M139.686 477.33c.19-1.094.262-2.204.219-3.316" style="fill:none;stroke:#00ff4a;stroke-width:.999997;stroke-linecap:round;stroke-linejoin:round;stroke-miterlimit:10;stroke-dasharray:none;stroke-opacity:1;visibility:visible"/><path d="m143.94 465.296.305 7.27M129.285 472.58c.187-1.09.256-2.197.21-3.303M143.933 477.23l-.352 2.11-.325 2.107-.302 2.106-.277 2.098-.255 2.099-.23 2.092-.206 2.083-.18 2.085-.156 2.075-.133 2.07-.108 2.06-.083 2.058-.06 2.042-.032 2.043-.013 2.027.015 2.022.036 2.012.062 1.999.086 1.99.109 1.977.135 1.968.157 1.954.181 1.943.206 1.93.226 1.917.252 1.902.276 1.888.3 1.874.322 1.86.345 1.845.365 1.828.392 1.81.412 1.795.438 1.78.456 1.763.481 1.744.501 1.728M143.933 477.23a22.28 22.28 0 0 0 .312-4.663" style="fill:none;stroke:#00ff4a;stroke-width:1.99999;stroke-linecap:round;stroke-linejoin:round;stroke-miterlimit:10;stroke-dasharray:none;stroke-opacity:1;visibility:visible"/><path d="m131.416 456.151-.139-.072-.113-.077-.083-.084-.054-.087-.026-.092.008-.093.04-.09.067-.092.039-.036M143.414 555.606a11.956 11.956 0 0 0-.48-2.924" style="fill:none;stroke:#00ff4a;stroke-width:.999997;stroke-linecap:round;stroke-linejoin:round;stroke-miterlimit:10;stroke-dasharray:none;stroke-opacity:1;visibility:visible"/><path d="M133.226 550.414a11.725 11.725 0 0 0-.486-2.91" style="fill:none;stroke:#00ff4a;stroke-width:1.99999;stroke-linecap:round;stroke-linejoin:round;stroke-miterlimit:10;stroke-dasharray:none;stroke-opacity:1;visibility:visible"/><path d="m143.712 562.515-.297-6.91M144.25 562.523l-.539-.008" style="fill:none;stroke:#00ff4a;stroke-width:.999997;stroke-linecap:round;stroke-linejoin:round;stroke-miterlimit:10;stroke-dasharray:none;stroke-opacity:1;visibility:visible"/><path d="m133.227 550.413.316 6.87" style="fill:none;stroke:#00ff4a;stroke-width:1.99999;stroke-linecap:round;stroke-linejoin:round;stroke-miterlimit:10;stroke-dasharray:none;stroke-opacity:1;visibility:visible"/><path d="m133.544 557.284 10.168 5.23" style="fill:none;stroke:#00ff4a;stroke-width:.999997;stroke-linecap:round;stroke-linejoin:round;stroke-miterlimit:10;stroke-dasharray:none;stroke-opacity:1;visibility:visible"/><path d="M147.642 554.022a16.884 16.884 0 0 0-.666-4.11M147.643 554.023l.288 6.896" style="fill:none;stroke:#00ff4a;stroke-width:1.99999;stroke-linecap:round;stroke-linejoin:round;stroke-miterlimit:10;stroke-dasharray:none;stroke-opacity:1;visibility:visible"/><path d="m147.93 560.918-.063.237M163.744 477.343l3.744-1.265M170.868 572.93l-3.632 1.41M164.926 468.663l.008.007.09.085.06.093.029.095-.003.095-.035.096-.066.094-.094.092-.126.09-.148.078-.175.074-.197.066-.215.058-.23.045-.24.035-.249.024-.253.01h-.25l-.249-.012-.24-.024-.225-.036-.213-.046-.191-.056-.17-.068M165.352 475.627l-.005.068-.034.096-.065.097-.096.092-.124.086-.15.082-.174.075-.196.065-.215.058-.229.046-.24.038-.25.022-.25.012-.25-.001-.249-.01-.237-.025-.227-.038-.212-.047-.19-.059-.171-.064" style="fill:none;stroke:#00ff4a;stroke-width:.999997;stroke-linecap:round;stroke-linejoin:round;stroke-miterlimit:10;stroke-dasharray:none;stroke-opacity:1;visibility:visible"/><path d="m160.484 466.696.164.044.141.055.119.061.093.068.063.076.03.076.002.08-.03.08-.06.077-.091.075-.118.068-.141.065-.163.054-.18.042-.196.039-.205.021-.208.012h-.21l-.205-.012-.194-.021-.186-.039-.164-.041-.141-.055M158.603 467.521l-.117-.063-.092-.07-.063-.071-.033-.079v-.08l.032-.08.06-.076.089-.074.119-.071" style="fill:none;stroke:#00ff4a;stroke-width:.666665;stroke-linecap:round;stroke-linejoin:round;stroke-miterlimit:10;stroke-dasharray:none;stroke-opacity:1;visibility:visible"/><path d="m157.564 465.244-.155-.061-.178-.048-.195-.039-.212-.027-.22-.017-.228-.003-.227.011-.224.02-.217.032-.203.047-.189.054-.168.063-.141.07-.118.078-.088.083-.058.086M164.344 468.247l-2.487-1.101" style="fill:none;stroke:#00ff4a;stroke-width:1.99999;stroke-linecap:round;stroke-linejoin:round;stroke-miterlimit:10;stroke-dasharray:none;stroke-opacity:1;visibility:visible"/><path d="m161.544 469.558-6.776-3.016M163.178 477.338l.565.005M152.408 472.493l10.77 4.845" style="fill:none;stroke:#00ff4a;stroke-width:.999997;stroke-linecap:round;stroke-linejoin:round;stroke-miterlimit:10;stroke-dasharray:none;stroke-opacity:1;visibility:visible"/><path d="m152.472 472.278 2.072-.695M152.472 472.278l-.063.215M165.325 474.864l2.221.995" style="fill:none;stroke:#00ff4a;stroke-width:1.99999;stroke-linecap:round;stroke-linejoin:round;stroke-miterlimit:10;stroke-dasharray:none;stroke-opacity:1;visibility:visible"/><path d="m167.488 476.077.059-.219M154.586 472.726a.605.605 0 0 0 .436.454M163.446 484.715l-.268-7.377" style="fill:none;stroke:#00ff4a;stroke-width:.999997;stroke-linecap:round;stroke-linejoin:round;stroke-miterlimit:10;stroke-dasharray:none;stroke-opacity:1;visibility:visible"/><path d="m152.408 472.493.288 7.337" style="fill:none;stroke:#00ff4a;stroke-width:1.99999;stroke-linecap:round;stroke-linejoin:round;stroke-miterlimit:10;stroke-dasharray:none;stroke-opacity:1;visibility:visible"/><path d="m165.973 564.383-.5-1.76-.476-1.776-.457-1.795-.434-1.812-.413-1.829-.39-1.847-.365-1.862-.346-1.876-.32-1.895-.3-1.91-.276-1.923-.251-1.938-.23-1.953-.207-1.964-.182-1.98-.158-1.992-.138-2.005-.112-2.018-.086-2.029-.067-2.037-.041-2.05-.016-2.06.006-2.072.032-2.08.055-2.089.08-2.095.103-2.104.128-2.116.15-2.118.176-2.127.199-2.133.223-2.136.249-2.146.27-2.147.295-2.152.319-2.155.345-2.16.366-2.163" style="fill:none;stroke:#00ff4a;stroke-width:.999997;stroke-linecap:round;stroke-linejoin:round;stroke-miterlimit:10;stroke-dasharray:none;stroke-opacity:1;visibility:visible"/><path d="m152.465 483.17-.36 2.15-.336 2.145-.315 2.141-.289 2.141-.264 2.134-.241 2.129-.218 2.125-.192 2.119-.17 2.11-.143 2.111-.123 2.1-.096 2.09-.073 2.088-.048 2.076-.027 2.065v2.059l.023 2.048.045 2.038.074 2.027.092 2.019.118 2.005.142 1.993.165 1.982.188 1.966.212 1.958.235 1.94.257 1.93.281 1.914.307 1.898.325 1.884.35 1.866.372 1.854.396 1.837.416 1.82.438 1.806.462 1.784.484 1.77.504 1.748" style="fill:none;stroke:#00ff4a;stroke-width:1.99999;stroke-linecap:round;stroke-linejoin:round;stroke-miterlimit:10;stroke-dasharray:none;stroke-opacity:1;visibility:visible"/><path d="M163.205 488.082c.108-.603.313-1.126.241-3.366" style="fill:none;stroke:#00ff4a;stroke-width:.999997;stroke-linecap:round;stroke-linejoin:round;stroke-miterlimit:10;stroke-dasharray:none;stroke-opacity:1;visibility:visible"/><path d="m167.546 475.858.256 7.364M152.466 483.171c.195-1.103.272-2.221.231-3.341M167.46 487.948l-.364 2.139-.34 2.14-.319 2.133-.289 2.13-.27 2.126-.243 2.121-.219 2.118-.193 2.109-.172 2.104-.146 2.097-.12 2.088-.098 2.083-.072 2.075-.048 2.065-.024 2.055v2.049l.025 2.033.05 2.027.073 2.015.096 2.002.121 1.99.145 1.98.17 1.965.193 1.955.216 1.94.243 1.925.261 1.91.288 1.895.31 1.882.334 1.866.357 1.846.378 1.832.404 1.817.422 1.797.448 1.78.47 1.764.493 1.745M167.46 487.948a22.787 22.787 0 0 0 .342-4.724M154.769 466.542l-.144-.072-.117-.081-.09-.087-.06-.09-.025-.094.005-.097.035-.092.067-.095.054-.055" style="fill:none;stroke:#00ff4a;stroke-width:1.99999;stroke-linecap:round;stroke-linejoin:round;stroke-miterlimit:10;stroke-dasharray:none;stroke-opacity:1;visibility:visible"/><path d="M166.436 567.338a12.04 12.04 0 0 0-.463-2.955" style="fill:none;stroke:#00ff4a;stroke-width:.999997;stroke-linecap:round;stroke-linejoin:round;stroke-miterlimit:10;stroke-dasharray:none;stroke-opacity:1;visibility:visible"/><path d="M155.926 561.982a12 12 0 0 0-.472-2.94" style="fill:none;stroke:#00ff4a;stroke-width:1.99999;stroke-linecap:round;stroke-linejoin:round;stroke-miterlimit:10;stroke-dasharray:none;stroke-opacity:1;visibility:visible"/><path d="m166.688 574.331-.252-6.993M167.236 574.339l-.55-.008" style="fill:none;stroke:#00ff4a;stroke-width:.999997;stroke-linecap:round;stroke-linejoin:round;stroke-miterlimit:10;stroke-dasharray:none;stroke-opacity:1;visibility:visible"/><path d="m155.926 561.98.273 6.956" style="fill:none;stroke:#00ff4a;stroke-width:1.99999;stroke-linecap:round;stroke-linejoin:round;stroke-miterlimit:10;stroke-dasharray:none;stroke-opacity:1;visibility:visible"/><path d="m156.2 568.937 10.487 5.395" style="fill:none;stroke:#00ff4a;stroke-width:.999997;stroke-linecap:round;stroke-linejoin:round;stroke-miterlimit:10;stroke-dasharray:none;stroke-opacity:1;visibility:visible"/><path d="M170.68 565.702a17.107 17.107 0 0 0-.642-4.154M170.68 565.7l.244 6.985" style="fill:none;stroke:#00ff4a;stroke-width:1.99999;stroke-linecap:round;stroke-linejoin:round;stroke-miterlimit:10;stroke-dasharray:none;stroke-opacity:1;visibility:visible"/><path d="m170.924 572.687-.056.244M188.118 488.304l3.757-1.31M194.605 585.08l-3.643 1.453M189.3 479.473l.095.088.066.096.034.097v.1l-.031.099-.065.1-.094.092-.121.09-.15.083-.175.075-.198.07-.216.057-.23.049-.244.037-.254.023-.253.012h-.256l-.253-.013-.243-.023-.232-.039-.217-.049-.199-.056-.176-.072M189.69 486.542l-.005.056-.031.1-.063.097-.093.098-.121.09-.152.084-.174.078-.196.068-.216.06-.23.046-.246.035-.249.027-.255.012h-.257l-.25-.012-.243-.028-.234-.035-.216-.048-.196-.061-.174-.07" style="fill:none;stroke:#00ff4a;stroke-width:.999997;stroke-linecap:round;stroke-linejoin:round;stroke-miterlimit:10;stroke-dasharray:none;stroke-opacity:1;visibility:visible"/><path d="m185.32 477.755.035.08.004.08-.028.084-.059.08-.088.079-.115.068-.144.065-.164.057-.182.046-.198.038-.205.022-.215.014h-.212l-.208-.014-.198-.022-.187-.038-.17-.046-.147-.053" style="fill:none;stroke:#00ff4a;stroke-width:.666665;stroke-linecap:round;stroke-linejoin:round;stroke-miterlimit:10;stroke-dasharray:none;stroke-opacity:1;visibility:visible"/><path d="m182.84 478.296-.124-.068-.095-.07-.066-.077-.035-.081-.003-.08.026-.083.058-.078.092-.079" style="fill:none;stroke:#00ff4a;stroke-width:.666665;stroke-linecap:round;stroke-linejoin:round;stroke-miterlimit:10;stroke-dasharray:none;stroke-opacity:1;visibility:visible"/><path d="m181.699 475.94-.16-.063-.181-.05-.202-.038-.214-.029-.224-.016-.232-.003-.231.011-.228.021-.217.035-.207.045-.19.058-.167.062-.143.074-.117.081-.087.083-.056.09M188.703 479.045l-2.188-.97" style="fill:none;stroke:#00ff4a;stroke-width:1.99999;stroke-linecap:round;stroke-linejoin:round;stroke-miterlimit:10;stroke-dasharray:none;stroke-opacity:1;visibility:visible"/><path d="m185.889 480.391-7-3.115M187.761 495.773l-.217-7.477M187.544 488.295l.576.01M176.416 483.29l11.13 5.005M176.473 483.065l-.056.224" style="fill:none;stroke:#00ff4a;stroke-width:.999997;stroke-linecap:round;stroke-linejoin:round;stroke-miterlimit:10;stroke-dasharray:none;stroke-opacity:1;visibility:visible"/><path d="m176.473 483.065 2.13-.73M189.667 485.757l2.259 1.01" style="fill:none;stroke:#00ff4a;stroke-width:1.99999;stroke-linecap:round;stroke-linejoin:round;stroke-miterlimit:10;stroke-dasharray:none;stroke-opacity:1;visibility:visible"/><path d="m191.876 486.994.052-.228M178.64 483.52a.635.635 0 0 0 .46.48" style="fill:none;stroke:#00ff4a;stroke-width:.999997;stroke-linecap:round;stroke-linejoin:round;stroke-miterlimit:10;stroke-dasharray:none;stroke-opacity:1;visibility:visible"/><path d="m176.416 483.29.241 7.433" style="fill:none;stroke:#00ff4a;stroke-width:1.99999;stroke-linecap:round;stroke-linejoin:round;stroke-miterlimit:10;stroke-dasharray:none;stroke-opacity:1;visibility:visible"/><path d="m189.755 576.453-.488-1.772-.467-1.797-.446-1.812-.42-1.834-.402-1.849-.377-1.865-.355-1.883-.333-1.901-.308-1.916-.287-1.93-.262-1.949-.24-1.963-.216-1.974-.195-1.988-.17-2.004-.145-2.016-.122-2.028-.099-2.047-.076-2.053-.05-2.064-.026-2.078-.003-2.085.019-2.099.048-2.108.067-2.114.096-2.126.116-2.134.141-2.14.167-2.15.19-2.156.214-2.16.236-2.169.264-2.174.286-2.18.311-2.182.333-2.188.36-2.19.382-2.195" style="fill:none;stroke:#00ff4a;stroke-width:.999997;stroke-linecap:round;stroke-linejoin:round;stroke-miterlimit:10;stroke-dasharray:none;stroke-opacity:1;visibility:visible"/><path d="m176.403 494.111-.376 2.18-.35 2.176-.329 2.172-.304 2.17-.28 2.163-.253 2.162-.232 2.154-.208 2.148-.183 2.144-.158 2.134-.135 2.13-.11 2.12-.087 2.114-.064 2.102-.04 2.095-.014 2.085.01 2.074.033 2.065.057 2.053.082 2.043.104 2.03.13 2.017.151 2.008.176 1.99.199 1.982.222 1.962.246 1.954.269 1.934.293 1.922.315 1.905.336 1.892.361 1.873.386 1.855.402 1.84.431 1.824.448 1.805.472 1.785.493 1.77" style="fill:none;stroke:#00ff4a;stroke-width:1.99999;stroke-linecap:round;stroke-linejoin:round;stroke-miterlimit:10;stroke-dasharray:none;stroke-opacity:1;visibility:visible"/><path d="M187.497 499.182a16.48 16.48 0 0 0 .263-3.41" style="fill:none;stroke:#00ff4a;stroke-width:.999997;stroke-linecap:round;stroke-linejoin:round;stroke-miterlimit:10;stroke-dasharray:none;stroke-opacity:1;visibility:visible"/><path d="m191.928 486.766.207 7.465M176.402 494.111c.202-1.117.288-2.25.254-3.388M191.76 499.021l-.379 2.17-.356 2.169-.33 2.162-.307 2.164-.284 2.155-.259 2.15-.232 2.146-.21 2.137-.183 2.136-.161 2.124-.134 2.12-.112 2.11-.088 2.102-.061 2.09-.04 2.085-.01 2.07.009 2.066.036 2.05.061 2.043.083 2.027.106 2.016.134 2.004.156 1.988.18 1.979.204 1.964.226 1.948.251 1.933.276 1.917.295 1.902.324 1.885.342 1.873.37 1.85.39 1.837.412 1.818.435 1.8.46 1.78.479 1.76" style="fill:none;stroke:#00ff4a;stroke-width:1.99999;stroke-linecap:round;stroke-linejoin:round;stroke-miterlimit:10;stroke-dasharray:none;stroke-opacity:1;visibility:visible"/><path d="M191.76 499.022a23.467 23.467 0 0 0 .376-4.79" style="fill:none;stroke:#00ff4a;stroke-width:1.99999;stroke-linecap:round;stroke-linejoin:round;stroke-miterlimit:10;stroke-dasharray:none;stroke-opacity:1;visibility:visible"/><path d="M190.197 579.446a12.43 12.43 0 0 0-.443-2.992" style="fill:none;stroke:#00ff4a;stroke-width:.999997;stroke-linecap:round;stroke-linejoin:round;stroke-miterlimit:10;stroke-dasharray:none;stroke-opacity:1;visibility:visible"/><path d="M179.346 573.919a12.196 12.196 0 0 0-.45-2.975" style="fill:none;stroke:#00ff4a;stroke-width:1.99999;stroke-linecap:round;stroke-linejoin:round;stroke-miterlimit:10;stroke-dasharray:none;stroke-opacity:1;visibility:visible"/><path d="m190.403 586.526-.205-7.083M190.962 586.533l-.559-.007" style="fill:none;stroke:#00ff4a;stroke-width:.999997;stroke-linecap:round;stroke-linejoin:round;stroke-miterlimit:10;stroke-dasharray:none;stroke-opacity:1;visibility:visible"/><path d="m179.347 573.918.228 7.039" style="fill:none;stroke:#00ff4a;stroke-width:1.99999;stroke-linecap:round;stroke-linejoin:round;stroke-miterlimit:10;stroke-dasharray:none;stroke-opacity:1;visibility:visible"/><path d="m179.576 580.957 10.827 5.57" style="fill:none;stroke:#00ff4a;stroke-width:.999997;stroke-linecap:round;stroke-linejoin:round;stroke-miterlimit:10;stroke-dasharray:none;stroke-opacity:1;visibility:visible"/><path d="M194.456 577.759a17.313 17.313 0 0 0-.614-4.204M194.456 577.758l.197 7.07" style="fill:none;stroke:#00ff4a;stroke-width:1.99999;stroke-linecap:round;stroke-linejoin:round;stroke-miterlimit:10;stroke-dasharray:none;stroke-opacity:1;visibility:visible"/><path d="m194.654 584.827-.05.25M374.606 472.293l-.059.083-.086.078-.119.074-.147.065-.166.056-.183.047-.204.034-.217.024-.223.011h-.227l-.226-.01-.224-.025-.211-.034-.199-.047-.18-.056-.161-.065-.137-.074M371.637 472.455l-.11-.079-.082-.082-.05-.087M368.536 470.196l-.088-.067-.057-.069-.031-.07.004-.074.037-.07.066-.067.097-.059.121-.055.148-.045.162-.032.178-.025.183-.008.19.002.187.016.182.027.166.036.15.047.129.056.101.061.075.07.044.073.013.07-.021.072-.052.068-.08.064-.11.058-.135.048-.155.041-.172.027-.181.016-.186.004-.192-.011-.185-.017-.172-.032-.161-.043-.139-.05-.116-.062M371.127 473.876a1.73 1.73 0 0 0 1.133.116M360.596 467.405l10.532 6.472" style="fill:none;stroke:#00ff4a;stroke-width:.999997;stroke-linecap:round;stroke-linejoin:round;stroke-miterlimit:10;stroke-dasharray:none;stroke-opacity:1;visibility:visible"/><path d="m363.393 466.774-2.797.632M375.35 470.709l2.628 1.6M367.786 466.1l2.943 1.793" style="fill:none;stroke:#00ff4a;stroke-width:1.99999;stroke-linecap:round;stroke-linejoin:round;stroke-miterlimit:10;stroke-dasharray:none;stroke-opacity:1;visibility:visible"/><path d="m377.742 472.736-5.481 1.256M377.742 472.736l.125-.035.103-.048.077-.049.05-.061.016-.056-.014-.064-.045-.058-.075-.056M367.557 467.987l-.063.083-.085.074-.12.074-.144.062-.165.056-.186.046-.204.034-.214.026-.222.013h-.226l-.224-.013-.22-.026-.211-.034-.195-.046-.181-.056-.157-.062-.136-.074M364.603 468.145l-.11-.077-.078-.08-.05-.087M368.032 597.41c.33.19.724.236 1.088.135M374.41 596.105l-5.288 1.439" style="fill:none;stroke:#00ff4a;stroke-width:.999997;stroke-linecap:round;stroke-linejoin:round;stroke-miterlimit:10;stroke-dasharray:none;stroke-opacity:1;visibility:visible"/><path d="m357.908 590.005.347-15.919M358.43 566.16l1.233-56.293M360.206 485.188l.39-17.783" style="fill:none;stroke:#00ff4a;stroke-width:1.99999;stroke-linecap:round;stroke-linejoin:round;stroke-miterlimit:10;stroke-dasharray:none;stroke-opacity:1;visibility:visible"/><path d="m368.033 597.41-10.125-7.405M374.769 595.82l-.017.067-.047.068-.075.058-.1.054-.121.037M236.665 513.703l-.024.095-.056.096-.087.089-.114.084-.146.08-.168.07-.19.06-.208.046-.222.037-.23.023-.238.01-.234-.002-.231-.019-.223-.03-.21-.042-.191-.054-.17-.064-.147-.075-.118-.08-.092-.088-.057-.096-.024-.093.007-.096" style="fill:none;stroke:#00ff4a;stroke-width:.999997;stroke-linecap:round;stroke-linejoin:round;stroke-miterlimit:10;stroke-dasharray:none;stroke-opacity:1;visibility:visible"/><path d="m237.637 515.69.181-.033.192-.023.198-.008.197.005.19.02.18.032.163.043.14.055.115.065.087.073.054.076.024.08-.01.082-.046.08-.076.076-.105.072-.133.058-.156.052-.172.042-.19.028-.194.016h-.199l-.193-.014-.188-.024-.171-.041-.152-.048-.13-.063-.1-.066-.073-.075-.038-.081-.006-.08.028-.079.062-.079.09-.073.123-.065.143-.058.165-.045" style="fill:none;stroke:#00ff4a;stroke-width:.666665;stroke-linecap:round;stroke-linejoin:round;stroke-miterlimit:10;stroke-dasharray:none;stroke-opacity:1;visibility:visible"/><path d="m232.609 512.49-3.159.73M243.424 516.35l3.175 2.356M236.887 511.502l2.66 1.972" style="fill:none;stroke:#00ff4a;stroke-width:1.99999;stroke-linecap:round;stroke-linejoin:round;stroke-miterlimit:10;stroke-dasharray:none;stroke-opacity:1;visibility:visible"/><path d="m246.26 519.185-5.995 1.405M246.26 519.185l.137-.04.116-.05.094-.06.061-.065.03-.066v-.071l-.034-.065-.065-.062M239.106 520.462c.357.188.768.233 1.157.128M229.45 513.22l9.657 7.241M243.124 518.422l.01.099-.022.096-.055.096-.086.09-.118.087-.144.079-.169.072-.192.06-.207.049-.224.036-.233.025-.236.008-.239-.004-.23-.014-.226-.032-.212-.043-.193-.055-.172-.066-.147-.075-.121-.081-.09-.091-.058-.092-.028-.099.005-.098.039-.095.072-.095.103-.088M240.531 622.252c.336.21.747.259 1.122.143M247.464 620.838l-5.81 1.559" style="fill:none;stroke:#00ff4a;stroke-width:.999997;stroke-linecap:round;stroke-linejoin:round;stroke-miterlimit:10;stroke-dasharray:none;stroke-opacity:1;visibility:visible"/><path d="m231.152 614.22-1.701-100.998" style="fill:none;stroke:#00ff4a;stroke-width:1.99999;stroke-linecap:round;stroke-linejoin:round;stroke-miterlimit:10;stroke-dasharray:none;stroke-opacity:1;visibility:visible"/><path d="m240.532 622.252-9.381-8.032M247.894 620.49l-.004.036-.03.076-.06.072-.09.065-.113.054-.132.045M361.777 601.072l-109.216 19.613M273.353 660.55l29.133 35.908M176.673 583.293l2.524 1.39 2.508 1.407 2.496 1.42 2.48 1.432 2.464 1.45 2.447 1.464 2.434 1.474 2.418 1.491 2.4 1.504 2.385 1.523 2.368 1.532 2.353 1.55 2.338 1.563 2.317 1.58 2.304 1.592 2.285 1.607 2.27 1.622 2.25 1.638 2.235 1.652 2.216 1.665 2.199 1.685 2.178 1.695 2.164 1.712 2.144 1.727 2.128 1.744 2.108 1.758 2.088 1.772 2.07 1.79 2.05 1.805 2.032 1.819 2.012 1.834 1.993 1.85 1.972 1.866 1.952 1.883 1.932 1.9 1.911 1.913 1.892 1.93 1.87 1.946 1.849 1.96 1.828 1.979 1.808 1.993 1.785 2.01 1.764 2.026 1.74 2.041 1.72 2.062M129.044 557.247l47.63 26.047" style="fill:none;stroke:#00ff4a;stroke-width:.999997;stroke-linecap:round;stroke-linejoin:round;stroke-miterlimit:10;stroke-dasharray:none;stroke-opacity:1;visibility:visible"/><path d="m129.025 557.088.019.159M129.432 565.444l-.017-.159" style="fill:none;stroke:#00ff4a;stroke-width:1.99999;stroke-linecap:round;stroke-linejoin:round;stroke-miterlimit:10;stroke-dasharray:none;stroke-opacity:1;visibility:visible"/><path d="m455.663 662.685-36.75-22.105M418.915 640.58 352.3 591.508" style="fill:none;stroke:#00ff4a;stroke-width:.999997;stroke-linecap:round;stroke-linejoin:round;stroke-miterlimit:10;stroke-dasharray:none;stroke-opacity:1;visibility:visible"/><path d="m167.46 487.948-.053.124M191.76 499.021l-.043.13" style="fill:none;stroke:#00ff4a;stroke-width:1.99999;stroke-linecap:round;stroke-linejoin:round;stroke-miterlimit:10;stroke-dasharray:none;stroke-opacity:1;visibility:visible"/><path d="m368.033 597.41 2.287-91.217M370.861 484.534l.267-10.657M240.532 622.252l-1.424-101.79" style="fill:none;stroke:#00ff4a;stroke-width:.999997;stroke-linecap:round;stroke-linejoin:round;stroke-miterlimit:10;stroke-dasharray:none;stroke-opacity:1;visibility:visible"/><path d="M236.417 507.008a.223.223 0 0 0 .081-.168.223.223 0 0 0-.072-.162M233.522 506.678a.224.224 0 0 0-.072.161.23.23 0 0 0 .08.171M233.531 507.008a1.25 1.25 0 0 0 .452.244M233.983 507.252a3.621 3.621 0 0 0 1.98 0M235.965 507.252a1.28 1.28 0 0 0 .452-.244M236.009 506.524a.18.18 0 0 0 .058-.12.181.181 0 0 0-.057-.127M236.009 506.28a.835.835 0 0 0-.326-.175M235.683 506.106a2.55 2.55 0 0 0-.708-.099c-.242 0-.484.032-.71.099M234.265 506.106a.817.817 0 0 0-.326.173M233.94 506.28a.167.167 0 0 0-.06.122c0 .044.024.088.06.122M233.94 506.524a.87.87 0 0 0 .324.174M235.683 506.698a.89.89 0 0 0 .327-.174M233.932 506.284l-.41.393M236.018 506.284l.41.393M233.451 506.839v7.025M236.498 506.839v7.168M234.975 508.516v4M239.995 511.475a.223.223 0 0 0-.072.161.227.227 0 0 0 .082.17M240.003 511.806a1.25 1.25 0 0 0 .452.244M240.455 512.048a3.637 3.637 0 0 0 1.982 0M242.438 512.048a1.26 1.26 0 0 0 .452-.244M242.482 511.32a.175.175 0 0 0 .059-.12.176.176 0 0 0-.059-.126M242.482 511.075a.835.835 0 0 0-.325-.173M242.157 510.903a2.543 2.543 0 0 0-.708-.099c-.243 0-.483.032-.71.099M240.737 510.903a.852.852 0 0 0-.327.173M240.413 511.075a.167.167 0 0 0-.059.124c0 .043.023.087.059.121M240.413 511.32a.89.89 0 0 0 .325.174M242.157 511.494a.89.89 0 0 0 .325-.174" style="fill:none;stroke:#00ff4a;stroke-width:.999997;stroke-linecap:round;stroke-linejoin:round;stroke-miterlimit:2;stroke-dasharray:none;stroke-opacity:1;visibility:visible"/><path d="M242.889 511.806a.224.224 0 0 0 .081-.17.225.225 0 0 0-.072-.161M240.404 511.081l-.41.393M242.49 511.081l.41.393M239.924 518.388v.272M239.924 511.636v6.75M242.97 511.636v7.168M241.447 513.313v4M367.475 461.577a.205.205 0 0 0 .083-.161.2.2 0 0 0-.074-.146M364.58 461.267a.196.196 0 0 0-.072.148c0 .061.032.119.082.159M364.59 461.577a1.288 1.288 0 0 0 .452.226M365.042 461.803c.32.083.653.13.992.13.336-.001.67-.048.99-.131M367.023 461.803a1.288 1.288 0 0 0 .452-.227M367.067 461.123a.159.159 0 0 0 .059-.112.155.155 0 0 0-.059-.116M367.067 460.895a.812.812 0 0 0-.325-.161M366.742 460.734a2.693 2.693 0 0 0-.708-.092c-.244 0-.484.03-.71.092M365.323 460.734a.83.83 0 0 0-.325.161M364.996 460.895a.155.155 0 0 0-.058.116c0 .039.024.079.058.112M364.996 461.123a.933.933 0 0 0 .326.163M366.742 461.286a.933.933 0 0 0 .325-.163M364.99 460.9l-.41.365M367.076 460.9l.41.365M364.51 461.417v6.555M367.557 461.417v6.69M366.033 462.982v3.733M374.447 465.656a.205.205 0 0 0 .083-.158.2.2 0 0 0-.074-.15M371.554 465.348a.199.199 0 0 0-.072.15c0 .06.03.117.081.157M371.562 465.656a1.288 1.288 0 0 0 .452.227M372.014 465.883c.32.083.653.13.992.13.336-.001.67-.048.99-.131M373.996 465.883a1.288 1.288 0 0 0 .452-.227M374.04 465.204a.156.156 0 0 0 .057-.112.155.155 0 0 0-.058-.116M374.04 464.976a.848.848 0 0 0-.327-.16M373.715 464.814a2.693 2.693 0 0 0-.708-.092 2.7 2.7 0 0 0-.71.092M372.295 464.814a.83.83 0 0 0-.325.161M371.97 464.976a.155.155 0 0 0-.06.116c.001.04.025.08.06.112M371.97 465.204a.933.933 0 0 0 .325.163M373.715 465.367a.933.933 0 0 0 .325-.163M371.963 464.98l-.41.365M374.049 464.98l.41.365M371.482 465.498v6.555M374.53 465.498v6.69M373.006 467.063v3.733" style="fill:none;stroke:#00ff4a;stroke-width:.999997;stroke-linecap:round;stroke-linejoin:round;stroke-miterlimit:2;stroke-dasharray:none;stroke-opacity:1;visibility:visible"/><path d="m357.506 566.236-9.644 2.51s-2.604 1.457-2.604 4.284c0 2.829 2.057 3.809 3.246 3.557l9.102-2.399s.544-.254 1.364.226l3.401 2.362s1.339.087 1.715-1.512c.37-1.594.17-4.337-1.316-6.382l-3.48-2.422s-.644-.45-1.784-.224" style="fill:none;stroke:#00ff4a;stroke-width:.999997;stroke-linecap:round;stroke-linejoin:round;stroke-miterlimit:10;stroke-dasharray:none;stroke-opacity:1;visibility:visible"/><path d="M348.703 575.608s-2.528.474-2.553-2.27c-.024-2.743 2.7-3.471 2.7-3.471l8.854-2.313s.523-.196 1.09.082l2.39 1.75s1.634 1.261 1.686 3.614c.05 2.352-1.015 2.66-2.008 2.016l-2.687-2.002-9.472 2.594" style="fill:none;stroke:#00ff4a;stroke-width:.666665;stroke-linecap:round;stroke-linejoin:round;stroke-miterlimit:10;stroke-dasharray:none;stroke-opacity:1;visibility:visible"/><path d="M361.295 571.996c.259.764.161 1.522-.22 1.688-.383.168-.905-.322-1.167-1.082-.26-.767-.164-1.524.22-1.692.379-.166.902.32 1.166 1.086h.001M353.14 571.014l-3.594.896s-.794.194-.794 1.009c0 .81.572.81.72.784l3.715-.87s.819-.361.819-1.033c0-.674-.518-.841-.867-.786h.001M358.126 568.28v4.535" style="fill:none;stroke:#00ff4a;stroke-width:.666665;stroke-linecap:round;stroke-linejoin:round;stroke-miterlimit:10;stroke-dasharray:none;stroke-opacity:1;visibility:visible"/><path d="m360.234 571.978.45.35-.162.622" style="fill:none;stroke:#00ff4a;stroke-width:.666665;stroke-linecap:round;stroke-linejoin:round;stroke-miterlimit:10;stroke-dasharray:none;stroke-opacity:1;visibility:visible"/><path d="m247.655 526.112 1.205-.281s1.783-.567 2.942 2.015c1.053 2.344-.815 5.928-2.577 6.278l-1.462.376" style="fill:none;stroke:#00ff4a;stroke-width:.999997;stroke-linecap:round;stroke-linejoin:round;stroke-miterlimit:10;stroke-dasharray:none;stroke-opacity:1;visibility:visible"/><path d="m247.806 533.444 1.696-.421s2.193-.819 2.193-3.328c0-2.505-1.869-2.647-2.578-2.483l-1.419.33" style="fill:none;stroke:#00ff4a;stroke-width:.666665;stroke-linecap:round;stroke-linejoin:round;stroke-miterlimit:10;stroke-dasharray:none;stroke-opacity:1;visibility:visible"/><path d="m247.698 529.791 1.31-.305s.714 0 .714.724c-.002.728-.496 1.08-.843 1.173l-1.158.257" style="fill:none;stroke:#00ff4a;stroke-width:.666665;stroke-linecap:round;stroke-linejoin:round;stroke-miterlimit:10;stroke-dasharray:none;stroke-opacity:1;visibility:visible"/><path d="m248.495 585.708 1.182-.27s1.75-.545 2.888 1.945c1.033 2.259-.8 5.719-2.531 6.059l-1.43.36" style="fill:none;stroke:#00ff4a;stroke-width:.999997;stroke-linecap:round;stroke-linejoin:round;stroke-miterlimit:10;stroke-dasharray:none;stroke-opacity:1;visibility:visible"/><path d="m248.643 592.785 1.667-.407s2.148-.788 2.148-3.21c0-2.42-1.833-2.556-2.528-2.398l-1.393.32" style="fill:none;stroke:#00ff4a;stroke-width:.666665;stroke-linecap:round;stroke-linejoin:round;stroke-miterlimit:10;stroke-dasharray:none;stroke-opacity:1;visibility:visible"/><path d="m248.537 589.259 1.286-.295s.695 0 .695.703a1.13 1.13 0 0 1-.821 1.13l-1.138.247" style="fill:none;stroke:#00ff4a;stroke-width:.666665;stroke-linecap:round;stroke-linejoin:round;stroke-miterlimit:10;stroke-dasharray:none;stroke-opacity:1;visibility:visible"/><path d="M365.02 488.551a7.548 7.548 0 0 0-.563-.951l-3.537-2.224s-.656-.476-1.818-.24l-9.75 2.374s-2.652 1.542-2.652 4.537c0 1.484.515 2.49 1.183 3.09" style="fill:none;stroke:#00ff4a;stroke-width:.999997;stroke-linecap:round;stroke-linejoin:round;stroke-miterlimit:10;stroke-dasharray:none;stroke-opacity:1;visibility:visible"/><path d="M349.19 494.742c-.723-.166-1.567-.714-1.582-2.37-.025-2.906 2.754-3.676 2.754-3.676l8.941-2.166s.53-.206 1.113.09l2.424 1.51s.42.336.842.978" style="fill:none;stroke:#00ff4a;stroke-width:.666665;stroke-linecap:round;stroke-linejoin:round;stroke-miterlimit:10;stroke-dasharray:none;stroke-opacity:1;visibility:visible"/><path d="m354.732 489.914-3.664.946s-.808.208-.808 1.067c0 .857.58.856.732.83l3.79-.919s.832-.385.832-1.098c0-.712-.527-.888-.882-.826M359.734 487.301v2.456" style="fill:none;stroke:#00ff4a;stroke-width:.666665;stroke-linecap:round;stroke-linejoin:round;stroke-miterlimit:10;stroke-dasharray:none;stroke-opacity:1;visibility:visible"/><path d="m247.464 620.838 12.552 5.915M240.532 622.252l7.322-5.235M190.403 586.526l4.183-4.111M166.687 574.332l4.154-4.046M143.712 562.515l4.118-3.963M368.033 597.41l6.77-2.92M409.748 637.22l-7.913 1.384M370.861 484.534l6.413 18.833M371.128 473.877l6.739 7.657" style="fill:none;stroke:#00ff4a;stroke-width:1.99999;stroke-linecap:round;stroke-linejoin:round;stroke-miterlimit:10;stroke-dasharray:none;stroke-opacity:1;visibility:visible"/><path d="m139.591 466.73-1.329-1.087" style="fill:none;stroke:#00ff4a;stroke-width:.999997;stroke-linecap:round;stroke-linejoin:round;stroke-miterlimit:10;stroke-dasharray:none;stroke-opacity:1;visibility:visible"/><path d="m135.14 457.092-.943-2.209M140.148 466.735l-8.898-5.564" style="fill:none;stroke:#00ff4a;stroke-width:1.99999;stroke-linecap:round;stroke-linejoin:round;stroke-miterlimit:10;stroke-dasharray:none;stroke-opacity:1;visibility:visible"/><path d="m163.177 477.338-1.389-1.118" style="fill:none;stroke:#00ff4a;stroke-width:.999997;stroke-linecap:round;stroke-linejoin:round;stroke-miterlimit:10;stroke-dasharray:none;stroke-opacity:1;visibility:visible"/><path d="m155.022 473.18 5.462-6.484" style="fill:none;stroke:#00ff4a;stroke-width:.666665;stroke-linecap:round;stroke-linejoin:round;stroke-miterlimit:10;stroke-dasharray:none;stroke-opacity:1;visibility:visible"/><path d="m158.604 467.521-1.04-2.277M161.544 469.558l.313-2.412M163.744 477.343l-9.2-5.76" style="fill:none;stroke:#00ff4a;stroke-width:1.99999;stroke-linecap:round;stroke-linejoin:round;stroke-miterlimit:10;stroke-dasharray:none;stroke-opacity:1;visibility:visible"/><path d="m187.545 488.295-1.456-1.156" style="fill:none;stroke:#00ff4a;stroke-width:.999997;stroke-linecap:round;stroke-linejoin:round;stroke-miterlimit:10;stroke-dasharray:none;stroke-opacity:1;visibility:visible"/><path d="m182.839 478.295-1.14-2.355M185.889 480.391l.626-2.317M188.118 488.304l-9.514-5.97" style="fill:none;stroke:#00ff4a;stroke-width:1.99999;stroke-linecap:round;stroke-linejoin:round;stroke-miterlimit:10;stroke-dasharray:none;stroke-opacity:1;visibility:visible"/><path d="m371.562 465.656-3.026 4.54M370.729 467.893l-2.193 2.303" style="fill:none;stroke:#00ff4a;stroke-width:.999997;stroke-linecap:round;stroke-linejoin:round;stroke-miterlimit:10;stroke-dasharray:none;stroke-opacity:1;visibility:visible"/><path d="m367.023 461.803-3.63 4.971M371.637 472.455l3.713-1.746M364.603 468.145l3.183-2.045M368.536 470.196l2.193-2.303M358.126 572.815l.129 1.271M359.734 487.301l.472-2.113" style="fill:none;stroke:#00ff4a;stroke-width:1.99999;stroke-linecap:round;stroke-linejoin:round;stroke-miterlimit:10;stroke-dasharray:none;stroke-opacity:1;visibility:visible"/><path d="m240.263 520.59-2.626-4.9M240.265 520.59l-2.628-4.9" style="fill:none;stroke:#00ff4a;stroke-width:.666665;stroke-linecap:round;stroke-linejoin:round;stroke-miterlimit:10;stroke-dasharray:none;stroke-opacity:1;visibility:visible"/><path d="m237.637 515.69-5.028-3.2M239.547 513.474l3.877 2.876M240.005 511.806l-3.118-.304M240.003 511.806l-.456 1.668" style="fill:none;stroke:#00ff4a;stroke-width:1.99999;stroke-linecap:round;stroke-linejoin:round;stroke-miterlimit:10;stroke-dasharray:none;stroke-opacity:1;visibility:visible"/><path d="m247.464 620.838 5.097-.153M359.734 489.757l10.586 16.436M359.734 487.301l11.127-2.767" style="fill:none;stroke:#00ff4a;stroke-width:.999997;stroke-linecap:round;stroke-linejoin:round;stroke-miterlimit:10;stroke-dasharray:none;stroke-opacity:1;visibility:visible"/><path d="m233.451 513.864 1.524-5.348M233.292 513.654l1.683-1.138M236.498 514.007l4.949-.694M239.924 518.388l1.523-1.075M364.51 467.972l1.523-4.99M360.595 467.405l5.438-.69M371.482 472.053l1.524-4.99M371.128 473.877l1.878-3.08" style="fill:none;stroke:#00ff4a;stroke-width:.999997;stroke-linecap:round;stroke-linejoin:round;stroke-miterlimit:2;stroke-dasharray:none;stroke-opacity:1;visibility:visible"/><path d="m353.14 571.014-4.437 4.594M353.14 571.014l-4.437 4.594M348.703 575.608l4.437-4.594M358.43 566.16l-.304 2.12M358.255 574.086l-.129-1.271" style="fill:none;stroke:#00ff4a;stroke-width:.666665;stroke-linecap:round;stroke-linejoin:round;stroke-miterlimit:10;stroke-dasharray:none;stroke-opacity:1;visibility:visible"/><path d="m246.26 519.185 1.395 6.927M246.26 519.185l1.503 15.315" style="fill:none;stroke:#00ff4a;stroke-width:.999997;stroke-linecap:round;stroke-linejoin:round;stroke-miterlimit:10;stroke-dasharray:none;stroke-opacity:1;visibility:visible"/><path d="m246.26 519.185 1.546 14.259M246.26 519.185l1.438 8.357M246.26 519.185l1.438 10.606M246.26 519.185l1.461 12.455" style="fill:none;stroke:#00ff4a;stroke-width:.666665;stroke-linecap:round;stroke-linejoin:round;stroke-miterlimit:10;stroke-dasharray:none;stroke-opacity:1;visibility:visible"/><path d="m371.394 472.207-6.374 16.344" style="fill:none;stroke:#00ff4a;stroke-width:.999997;stroke-linecap:round;stroke-linejoin:round;stroke-miterlimit:10;stroke-dasharray:none;stroke-opacity:1;visibility:visible"/><path d="m371.394 472.207-7.712 16.901M360.206 485.188l-.472 2.113M371.128 473.877l-11.394 15.88M182.839 478.295l2.481-.54M359.734 487.301l-5.002 2.613M370.861 484.534l-16.129 5.38" style="fill:none;stroke:#00ff4a;stroke-width:.666665;stroke-linecap:round;stroke-linejoin:round;stroke-miterlimit:10;stroke-dasharray:none;stroke-opacity:1;visibility:visible"/></svg>