<svg xmlns="http://www.w3.org/2000/svg" baseProfile="full" height="793.701" preserveAspectRatio="xMinYMin meet" style="width:765px;height:943px" width="559.371" xml:space="preserve"><path d="m266.725 533.902-.796-118.763M258.413 535.632c.393.204.85.254 1.277.139" style="fill:none;stroke:red;stroke-width:1.99999;stroke-linecap:round;stroke-linejoin:round;stroke-miterlimit:10;stroke-dasharray:none;stroke-opacity:1;visibility:visible" visibility="hidden"/><path d="m255.586 412.047.199-.032.212-.021.216-.01.217.006.212.017.2.027.184.041.163.051.136.06.104.064.073.07.037.079.003.075-.033.076-.07.073-.102.067-.132.063-.156.054-.184.044-.196.032-.215.023-.216.004h-.217l-.212-.02-.2-.027-.186-.04-.161-.05-.136-.06-.104-.066-.073-.073-.039-.075v-.077l.035-.075.065-.073.104-.07.132-.059.159-.055.181-.043M253.971 409.67l.156.073.126.078.093.085.063.088.024.092-.014.092-.044.09-.081.088-.115.082-.145.077-.172.071-.199.059-.22.053-.237.04-.25.028-.259.019-.259.002-.263-.007-.253-.022-.243-.033-.226-.043-.206-.055-.184-.064-.153-.072-.13-.078-.093-.087-.06-.088-.022-.095.01-.088.046-.089.081-.09.115-.079.145-.08" style="fill:none;stroke:red;stroke-width:.999997;stroke-linecap:round;stroke-linejoin:round;stroke-miterlimit:10;stroke-dasharray:none;stroke-opacity:1;visibility:visible" visibility="hidden"/><path d="m254.622 407.977 3.305 2.069M262.16 412.693l3.645 2.282M249.917 408.915l-3.667.735" style="fill:none;stroke:red;stroke-width:1.99999;stroke-linecap:round;stroke-linejoin:round;stroke-miterlimit:10;stroke-dasharray:none;stroke-opacity:1;visibility:visible" visibility="hidden"/><path d="m261.417 414.342.158.072.126.081.096.087.062.088.027.09-.01.098-.046.088-.083.09-.114.083-.143.079-.175.07-.2.062-.221.053-.236.04-.252.03-.26.016-.261.005-.263-.01-.255-.019-.245-.035-.23-.044-.206-.056-.187-.065-.158-.072-.126-.083-.097-.084-.06-.09-.024-.092.01-.093.046-.089.08-.09.115-.084M246.25 409.649l11.13 7.028M265.436 415.437l-6.742 1.362M265.437 415.437l.153-.038.133-.048.102-.057.068-.061.033-.068-.003-.066-.041-.065-.076-.06" style="fill:none;stroke:red;stroke-width:.999997;stroke-linecap:round;stroke-linejoin:round;stroke-miterlimit:10;stroke-dasharray:none;stroke-opacity:1;visibility:visible" visibility="hidden"/><path d="m266.725 533.902-.003.028-.032.077-.068.07-.099.063-.128.055-.148.044M258.413 535.632l-10.836-7.909M247.577 527.723l-1.327-118.076M266.246 534.239l-6.556 1.532" style="fill:none;stroke:red;stroke-width:1.99999;stroke-linecap:round;stroke-linejoin:round;stroke-miterlimit:10;stroke-dasharray:none;stroke-opacity:1;visibility:visible" visibility="hidden"/><path d="m258.413 535.632-1.033-118.955M249.917 408.915l5.669 3.132M258.694 416.799l-3.108-4.752" style="fill:none;stroke:red;stroke-width:.999997;stroke-linecap:round;stroke-linejoin:round;stroke-miterlimit:10;stroke-dasharray:none;stroke-opacity:1;visibility:visible" visibility="hidden"/><path d="m257.38 416.677-2.758-8.7M262.16 412.693l-4.233-2.647M257.927 410.046l4.233 2.647M255.586 412.047l-5.669-3.132" style="fill:none;stroke:red;stroke-width:1.99999;stroke-linecap:round;stroke-linejoin:round;stroke-miterlimit:10;stroke-dasharray:none;stroke-opacity:1;visibility:visible" visibility="hidden"/><path d="m255.586 412.047 3.108 4.752" style="fill:none;stroke:red;stroke-width:.999997;stroke-linecap:round;stroke-linejoin:round;stroke-miterlimit:10;stroke-dasharray:none;stroke-opacity:1;visibility:visible" visibility="hidden"/><path d="m456.828 602.708 1.584 1.068M394.056 560.378l44.71 30.149M511.372 611.816 411.4 546.328M458.447 603.797l41.138 22.643M131.106 514.555l.012.177.034.172M130.734 505.067l.367 9.487M140.529 501.282l-.005-.002-.452-.032-.456-.02-.458-.013-.462.005-.463.012-.459.023-.458.039-.454.05-.45.057-.44.071-.435.08-.423.091-.41.104-.399.113-.388.123-.368.135-.356.145-.336.157-.32.167-.301.179-.28.19-.258.204-.228.214-.204.226-.172.235-.124.215-.108.24-.074.242-.043.24-.012.239.003.056M197.293 527.184l-56.68-25.88M131.5 515.351l54.674 27.016M258.893 560.956c-.858-.57-1.714-1.138-2.574-1.701M251.74 556.294a405.115 405.115 0 0 0-54.45-29.11M270.87 569.243l-7.557-5.228M313.88 605.493a280.615 280.615 0 0 0-43.012-36.25M186.174 542.367l1.41.699 2.666 1.336 2.65 1.348 2.636 1.365 2.62 1.37 2.602 1.387 2.592 1.396 2.575 1.406 2.555 1.425 2.546 1.433 2.524 1.446 2.512 1.457 2.493 1.468 2.48 1.484 2.455 1.495 2.447 1.506 2.428 1.519 2.41 1.53 2.395 1.546 2.373 1.556 2.36 1.568 2.342 1.581 2.324 1.594 2.301 1.606 2.292 1.618 2.27 1.633 2.25 1.644 2.235 1.657 2.213 1.668 2.195 1.682 2.178 1.696 2.158 1.706 2.138 1.72 2.123 1.733 2.097 1.747 2.079 1.758 2.063 1.771 2.039 1.787 2.022 1.796 2 1.81 1.979 1.824 1.957 1.837 1.937 1.85 1.919 1.861 1.896 1.874 1.875 1.891 1.853 1.902 1.832 1.915 1.81 1.928.225.247M346.476 641.403l-32.582-35.896M296.502 621.436l33.096 36.334M282.154 577.419l112.724-17.165" style="fill:none;stroke:#00ff4a;stroke-width:1.99999;stroke-linecap:round;stroke-linejoin:round;stroke-miterlimit:10;stroke-dasharray:none;stroke-opacity:1;visibility:visible"/><path d="M395.319 553.2a1.404 1.404 0 0 0-.464-1.136" style="fill:none;stroke:#00ff4a;stroke-width:.999997;stroke-linecap:round;stroke-linejoin:round;stroke-miterlimit:10;stroke-dasharray:none;stroke-opacity:1;visibility:visible"/><path d="M263.613 562.048 383.399 544.5" style="fill:none;stroke:#00ff4a;stroke-width:1.99999;stroke-linecap:round;stroke-linejoin:round;stroke-miterlimit:10;stroke-dasharray:none;stroke-opacity:1;visibility:visible"/><path d="m345.72 641.155-15.466 4.145M394.878 560.254l.057-.018.077-.052.06-.082.05-.112.028-.134.014-.152M395.163 559.704l.156-6.504M394.856 552.066l-11.458-7.567M329.447 646.507l-.09 10.696M329.357 657.204a.856.856 0 0 0 .262.587M329.72 645.981a.67.67 0 0 0-.272.526M330.255 645.301a.805.805 0 0 0-.533.682M346.422 641.359a.801.801 0 0 0-.703-.204M149.817 508.107l.17.088.143.097.115.103.085.108.052.113.019.114-.013.117-.046.113-.078.115-.11.108-.138.107-.167.098-.193.092-.216.084-.236.072-.255.064-.27.054-.279.041-.287.027-.295.017-.292.003-.289-.012-.281-.024-.274-.036-.254-.047-.243-.06-.219-.07-.196-.079M145.772 509.515l-7.362-3.385M138.409 506.128l-.17-.086-.141-.098-.113-.102-.081-.107-.052-.112-.018-.113.018-.115.046-.115.079-.113.11-.107.139-.105.166-.099.194-.089.216-.084.238-.073.254-.064.268-.05.279-.041.287-.029.289-.015.292-.001.285.01.28.023.271.035.255.05.238.057.219.071.193.077M142.45 504.734l7.366 3.373M176.206 520.195l.176.09.15.099.118.106.087.113.057.115.024.116-.01.118-.042.12-.078.118-.108.112-.135.108-.165.1-.194.097-.216.087-.24.076-.254.064-.272.056-.284.042-.29.028-.297.016-.296.002-.292-.012-.288-.023-.277-.037-.262-.048-.245-.063-.227-.072-.198-.081M172.146 521.642l-7.573-3.483M164.573 518.159l-.175-.09-.148-.101-.117-.105-.087-.109-.053-.116-.021-.116.013-.116.044-.118.076-.116.108-.112.139-.108.166-.101.194-.093.217-.086.236-.076.257-.065.27-.052.283-.04.289-.03.293-.013.295-.005.292.012.285.023.273.037.262.05.242.059.224.07.2.082M168.63 516.723l7.576 3.472M203.357 532.628l.18.095.156.1.122.11.095.115.059.12.028.122-.007.12-.039.124-.073.12-.105.113-.135.112-.167.108-.193.097-.216.087-.237.08-.26.068-.275.055-.284.042-.293.03-.303.016-.299.002-.299-.01-.289-.024-.28-.039-.273-.05-.249-.066-.228-.072-.21-.085M199.284 534.118l-7.792-3.584M191.493 530.535l-.181-.092-.152-.103-.122-.11-.092-.112-.058-.116-.026-.12.008-.123.042-.121.074-.119.107-.115.136-.11.167-.104.19-.096.219-.087.239-.079.256-.066.274-.055.283-.041.293-.031.3-.016.295-.001.299.01.288.024.28.038.265.05.25.062.226.073.208.085M195.56 529.059l7.797 3.57" style="fill:none;stroke:#00ff4a;stroke-width:.999997;stroke-linecap:round;stroke-linejoin:round;stroke-miterlimit:10;stroke-dasharray:none;stroke-opacity:1;visibility:visible"/><path d="M345.563 653.592c.247-.07.48-.165.707-.285" style="fill:none;stroke:#00ff4a;stroke-width:1.99999;stroke-linecap:round;stroke-linejoin:round;stroke-miterlimit:10;stroke-dasharray:none;stroke-opacity:1;visibility:visible"/><path d="M329.62 657.793a.679.679 0 0 0 .526-.013" style="fill:none;stroke:#00ff4a;stroke-width:.999997;stroke-linecap:round;stroke-linejoin:round;stroke-miterlimit:10;stroke-dasharray:none;stroke-opacity:1;visibility:visible"/><path d="M346.271 653.307a2.54 2.54 0 0 0 .172-.828M330.146 657.779l15.417-4.19" style="fill:none;stroke:#00ff4a;stroke-width:1.99999;stroke-linecap:round;stroke-linejoin:round;stroke-miterlimit:10;stroke-dasharray:none;stroke-opacity:1;visibility:visible"/><path d="M346.58 641.819a.521.521 0 0 0-.16-.463" style="fill:none;stroke:#00ff4a;stroke-width:.999997;stroke-linecap:round;stroke-linejoin:round;stroke-miterlimit:10;stroke-dasharray:none;stroke-opacity:1;visibility:visible"/><path d="M140.613 501.304a.28.28 0 0 0-.29.032M131.132 514.778a.636.636 0 0 0 .37.57M346.442 652.479l.137-10.659" style="fill:none;stroke:#00ff4a;stroke-width:1.99999;stroke-linecap:round;stroke-linejoin:round;stroke-miterlimit:10;stroke-dasharray:none;stroke-opacity:1;visibility:visible"/><path d="m457.938 602.341.265-6.74M458.203 595.601l-.248-.597M457.955 595.003 322.369 614.84" style="fill:none;stroke:#00ff4a;stroke-width:.999997;stroke-linecap:round;stroke-linejoin:round;stroke-miterlimit:10;stroke-dasharray:none;stroke-opacity:1;visibility:visible"/><path d="m316.31 608.168 132.736-19.12" style="fill:none;stroke:#00ff4a;stroke-width:1.99999;stroke-linecap:round;stroke-linejoin:round;stroke-miterlimit:10;stroke-dasharray:none;stroke-opacity:1;visibility:visible"/><path d="m457.955 595.003-8.912-5.955" style="fill:none;stroke:#00ff4a;stroke-width:.999997;stroke-linecap:round;stroke-linejoin:round;stroke-miterlimit:10;stroke-dasharray:none;stroke-opacity:1;visibility:visible"/><path d="m328.65 621.764 129.006-19.179" style="fill:none;stroke:#00ff4a;stroke-width:1.99999;stroke-linecap:round;stroke-linejoin:round;stroke-miterlimit:10;stroke-dasharray:none;stroke-opacity:1;visibility:visible"/><path d="M500.15 614.881a.752.752 0 0 0-.574.595M500.515 614.467a.519.519 0 0 0-.365.416M457.656 602.585l.282-.244" style="fill:none;stroke:#00ff4a;stroke-width:.999997;stroke-linecap:round;stroke-linejoin:round;stroke-miterlimit:10;stroke-dasharray:none;stroke-opacity:1;visibility:visible"/><path d="m384.092 542.01 6.408-1.562" style="fill:none;stroke:#00ff4a;stroke-width:1.99999;stroke-linecap:round;stroke-linejoin:round;stroke-miterlimit:10;stroke-dasharray:none;stroke-opacity:1;visibility:visible"/><path d="M499.067 625.716a.865.865 0 0 0 .508.717M499.575 615.477l-.508 10.24M510.765 611.675l-10.249 2.793" style="fill:none;stroke:#00ff4a;stroke-width:.999997;stroke-linecap:round;stroke-linejoin:round;stroke-miterlimit:10;stroke-dasharray:none;stroke-opacity:1;visibility:visible"/><path d="M511.463 611.881a.821.821 0 0 0-.698-.208" style="fill:none;stroke:#00ff4a;stroke-width:1.99999;stroke-linecap:round;stroke-linejoin:round;stroke-miterlimit:10;stroke-dasharray:none;stroke-opacity:1;visibility:visible"/><path d="M499.575 626.435a.487.487 0 0 0 .344-.025" style="fill:none;stroke:#00ff4a;stroke-width:.999997;stroke-linecap:round;stroke-linejoin:round;stroke-miterlimit:10;stroke-dasharray:none;stroke-opacity:1;visibility:visible"/><path d="m383.33 542.996-.032 1.518M384.092 542.01a1.07 1.07 0 0 0-.764.986M510.96 622.53l.536-10.213M511.496 612.315a1.057 1.057 0 0 0-.032-.435M510.864 623.301a5.87 5.87 0 0 0 .096-.77M499.919 626.412l10.221-2.819M510.14 623.592a4.2 4.2 0 0 0 .724-.292" style="fill:none;stroke:#00ff4a;stroke-width:1.99999;stroke-linecap:round;stroke-linejoin:round;stroke-miterlimit:10;stroke-dasharray:none;stroke-opacity:1;visibility:visible"/><path d="M130.734 505.068v.023l.028.199M186.297 531.035l-54.721-26.69M297.22 609.517l-1.92-2.027-1.952-2.013-1.973-1.997-1.997-1.987-2.019-1.966-2.048-1.955-2.066-1.939-2.092-1.923-2.115-1.911-2.137-1.897-2.159-1.882-2.184-1.865-2.204-1.852-2.227-1.839-2.249-1.824-2.27-1.812-2.294-1.793-2.312-1.78-2.335-1.765-2.356-1.755-2.374-1.74-2.398-1.723-2.417-1.71-2.437-1.695-2.456-1.683-2.479-1.668-2.496-1.653-2.514-1.643-2.538-1.624-2.555-1.613-2.572-1.6-2.593-1.583-2.612-1.573-2.628-1.557-2.65-1.544-2.665-1.531-2.685-1.515-2.702-1.504-2.72-1.488-2.738-1.48-2.755-1.46-2.773-1.448-2.79-1.437-2.805-1.424-2.823-1.408-2.84-1.395M330.255 645.301l-33.033-35.784M394.856 552.066 272.483 570.37" style="fill:none;stroke:#00ff4a;stroke-width:.999997;stroke-linecap:round;stroke-linejoin:round;stroke-miterlimit:10;stroke-dasharray:none;stroke-opacity:1;visibility:visible"/><path d="m131.132 514.778-.028-.202-.002-.022" style="fill:none;stroke:#00ff4a;stroke-width:1.99999;stroke-linecap:round;stroke-linejoin:round;stroke-miterlimit:10;stroke-dasharray:none;stroke-opacity:1;visibility:visible"/><path d="m459.348 592.099-75.254-50.089M500.515 614.467l-41.167-22.368" style="fill:none;stroke:#00ff4a;stroke-width:.999997;stroke-linecap:round;stroke-linejoin:round;stroke-miterlimit:10;stroke-dasharray:none;stroke-opacity:1;visibility:visible"/><path d="m411.176 547.452.008-1.292M411.186 546.159l.609-128.305" style="fill:none;stroke:#00ff4a;stroke-width:1.99999;stroke-linecap:round;stroke-linejoin:round;stroke-miterlimit:10;stroke-dasharray:none;stroke-opacity:1;visibility:visible"/><path d="m391.708 412.9 12.15 6.364M400.815 415.63l-.097-.065-.072-.068-.034-.07.002-.067.034-.07.066-.063.104-.06.13-.056.152-.044.175-.034.19-.026.21-.014.205-.003.211.007.204.02.195.033.174.04.156.05.131.059.099.06.069.066.032.073.003.067-.035.069-.067.065-.098.059-.134.055-.15.046-.18.034-.191.024-.205.016-.208.004-.211-.011-.208-.021-.19-.031-.174-.041-.153-.048-.135-.055M404.406 417.853l-.126-.074-.093-.081-.06-.084-.027-.085.007-.083.045-.083M407.512 417.222l.128.076.088.077.063.083.027.087-.003.084-.047.08-.073.083-.11.073-.139.068-.166.062-.189.05-.217.045-.227.035-.244.02-.25.01-.259.002-.244-.015-.252-.025-.235-.034-.221-.043-.203-.057-.177-.061-.156-.07M403.859 419.266c.41.163.861.2 1.292.11M403.099 549.278c.404.205.877.254 1.316.136" style="fill:none;stroke:#00ff4a;stroke-width:.999997;stroke-linecap:round;stroke-linejoin:round;stroke-miterlimit:10;stroke-dasharray:none;stroke-opacity:1;visibility:visible"/><path d="m399.82 411.558 3.943 2.043M407.848 415.72l3.79 1.962M395.682 412.105l-3.972.794" style="fill:none;stroke:#00ff4a;stroke-width:1.99999;stroke-linecap:round;stroke-linejoin:round;stroke-miterlimit:10;stroke-dasharray:none;stroke-opacity:1;visibility:visible"/><path d="m410.758 547.77-6.342 1.64M396.292 413.614l-.122-.076-.094-.076-.056-.084-.026-.081.012-.083.04-.081.08-.078.106-.08M399.656 413.227l.028.083-.01.083-.044.082-.072.079-.112.075-.14.068-.166.058-.192.055-.208.039-.229.031-.24.02-.25.014-.254-.004-.247-.009-.246-.026-.232-.033-.222-.044-.198-.052-.179-.061-.15-.071M411.378 418.107l-6.228 1.268M411.378 418.107l.14-.034.112-.048.089-.055.057-.056.018-.057-.016-.06-.052-.059-.09-.054" style="fill:none;stroke:#00ff4a;stroke-width:.999997;stroke-linecap:round;stroke-linejoin:round;stroke-miterlimit:10;stroke-dasharray:none;stroke-opacity:1;visibility:visible"/><path d="m391.575 430.653.135-17.753M390.939 515.116l.572-76.086M390.742 541.178l.133-17.464" style="fill:none;stroke:#00ff4a;stroke-width:1.99999;stroke-linecap:round;stroke-linejoin:round;stroke-miterlimit:10;stroke-dasharray:none;stroke-opacity:1;visibility:visible"/><path d="m403.099 549.278.759-130.012M411.176 547.452l-.02.075-.052.07-.089.071-.117.055-.14.047M403.099 549.278l-12.359-8.1" style="fill:none;stroke:#00ff4a;stroke-width:.999997;stroke-linecap:round;stroke-linejoin:round;stroke-miterlimit:10;stroke-dasharray:none;stroke-opacity:1;visibility:visible"/><path d="M396.304 406.202a.219.219 0 0 0-.073.159c0 .062.03.122.081.166M396.312 406.527a1.324 1.324 0 0 0 .464.239M396.775 406.766a3.865 3.865 0 0 0 2.019 0M398.794 406.766a1.32 1.32 0 0 0 .462-.24M398.839 406.049a.164.164 0 0 0 .06-.119.167.167 0 0 0-.06-.121M398.839 405.811a.853.853 0 0 0-.33-.171M398.507 405.64a2.741 2.741 0 0 0-1.445 0M397.062 405.64a.864.864 0 0 0-.334.17M396.728 405.811a.163.163 0 0 0-.06.12c0 .044.026.087.06.119M396.728 406.049a.901.901 0 0 0 .334.171M398.507 406.222a.88.88 0 0 0 .33-.172M407.392 410.802v7.04M404.406 410.802v6.9M406.919 410.258l.405.385M404.878 410.258l-.404.385M407.312 410.969a.219.219 0 0 0 .082-.167.227.227 0 0 0-.071-.159M404.474 410.643a.225.225 0 0 0-.07.159c0 .063.03.123.08.167M404.484 410.969a1.24 1.24 0 0 0 .443.238M404.927 411.207a3.535 3.535 0 0 0 1.943 0M406.87 411.207a1.24 1.24 0 0 0 .442-.237M406.914 410.49a.168.168 0 0 0 .056-.119.17.17 0 0 0-.056-.12M406.914 410.253a.801.801 0 0 0-.32-.173M406.594 410.08a2.54 2.54 0 0 0-1.391 0M405.203 410.08a.867.867 0 0 0-.32.174" style="fill:none;stroke:#00ff4a;stroke-width:.999997;stroke-linecap:round;stroke-linejoin:round;stroke-miterlimit:2;stroke-dasharray:none;stroke-opacity:1;visibility:visible"/><path d="M404.883 410.253a.17.17 0 0 0-.057.12c0 .044.024.086.057.117M404.883 410.49a.864.864 0 0 0 .32.172M406.594 410.662a.864.864 0 0 0 .32-.172M399.335 406.36v7.04M396.231 406.36v6.9M398.846 405.817l.417.385M396.723 405.817l-.417.385M399.255 406.527a.212.212 0 0 0 .083-.166.21.21 0 0 0-.075-.159" style="fill:none;stroke:#00ff4a;stroke-width:.999997;stroke-linecap:round;stroke-linejoin:round;stroke-miterlimit:2;stroke-dasharray:none;stroke-opacity:1;visibility:visible"/><path d="M397.783 408.02v4.62M405.898 412.475v4.435" style="fill:none;stroke:#00ff4a;stroke-width:.999997;stroke-linecap:round;stroke-linejoin:round;stroke-miterlimit:10;stroke-dasharray:none;stroke-opacity:1;visibility:visible"/><path d="M391.202 432.85v4.779M394.963 436.426c.308.804.193 1.601-.261 1.779-.458.175-1.078-.338-1.388-1.14-.314-.81-.198-1.608.258-1.783.456-.176 1.079.337 1.391 1.144" style="fill:none;stroke:#00ff4a;stroke-width:.666665;stroke-linecap:round;stroke-linejoin:round;stroke-miterlimit:10;stroke-dasharray:none;stroke-opacity:1;visibility:visible"/><path d="m393.699 436.407.537.367-.196.66M390.591 517.355v4.944M394.39 521.406c.312.832.194 1.657-.262 1.84-.46.182-1.086-.35-1.4-1.18-.313-.836-.197-1.662.263-1.846.456-.18 1.085.351 1.399 1.186" style="fill:none;stroke:#00ff4a;stroke-width:.666665;stroke-linecap:round;stroke-linejoin:round;stroke-miterlimit:10;stroke-dasharray:none;stroke-opacity:1;visibility:visible"/><path d="m393.119 521.384.54.382-.196.681" style="fill:none;stroke:#00ff4a;stroke-width:.666665;stroke-linecap:round;stroke-linejoin:round;stroke-miterlimit:10;stroke-dasharray:none;stroke-opacity:1;visibility:visible"/><path d="m449.043 589.048-10.277 1.479M263.313 564.015l-4.42-3.059M251.74 556.294l4.579 2.961M256.319 559.255l-4.579-2.961M258.893 560.956l4.42 3.059" style="fill:none;stroke:#00ff4a;stroke-width:1.99999;stroke-linecap:round;stroke-linejoin:round;stroke-miterlimit:10;stroke-dasharray:none;stroke-opacity:1;visibility:visible"/><path d="m138.409 506.128-6.833-1.783M407.512 417.222l-6.697-1.592" style="fill:none;stroke:#00ff4a;stroke-width:.999997;stroke-linecap:round;stroke-linejoin:round;stroke-miterlimit:10;stroke-dasharray:none;stroke-opacity:1;visibility:visible"/><path d="m396.292 413.614 3.528-2.056M404.406 417.852l-.643-4.251M404.406 417.853l3.442-2.133M398.794 406.766l-3.112 5.339M391.202 432.85l.373-2.197M390.591 517.355l.348-2.239M391.202 437.629l.309 1.401M390.591 522.299l.284 1.415" style="fill:none;stroke:#00ff4a;stroke-width:1.99999;stroke-linecap:round;stroke-linejoin:round;stroke-miterlimit:10;stroke-dasharray:none;stroke-opacity:1;visibility:visible"/><path d="m396.231 413.26 1.552-5.24M391.71 412.9l6.073-.26M404.406 417.702l1.492-5.227M403.858 419.266l2.04-2.356" style="fill:none;stroke:#00ff4a;stroke-width:.999997;stroke-linecap:round;stroke-linejoin:round;stroke-miterlimit:10;stroke-dasharray:none;stroke-opacity:1;visibility:visible"/><path d="m391.575 430.653-.373 2.197M391.511 439.03l-.309-1.401M390.939 515.116l-.348 2.239M390.875 523.714l-.284-1.415" style="fill:none;stroke:#00ff4a;stroke-width:.666665;stroke-linecap:round;stroke-linejoin:round;stroke-miterlimit:10;stroke-dasharray:none;stroke-opacity:1;visibility:visible"/><path d="m255.586 412.047-1.615-2.377M255.586 412.047l5.831 2.295" style="fill:none;stroke:red;stroke-width:.999997;stroke-linecap:round;stroke-linejoin:round;stroke-miterlimit:10;stroke-dasharray:none;stroke-opacity:1;visibility:visible" visibility="hidden"/></svg>