<svg xmlns="http://www.w3.org/2000/svg" baseProfile="full" height="793.701" preserveAspectRatio="xMinYMin meet" style="width:765px;height:943px" width="559.371" xml:space="preserve"><path d="m248.864 277.657 106.352-17.652M262.402 322.927l31.225 37.364M309.55 343.461l-30.743-36.916M158.308 241.61l1.33.72 2.514 1.373 2.501 1.386 2.488 1.401 2.472 1.412 2.456 1.425 2.444 1.436 2.43 1.446 2.412 1.465 2.398 1.475 2.384 1.488 2.37 1.5 2.352 1.506 2.338 1.527 2.322 1.536 2.305 1.55 2.29 1.562 2.277 1.575 2.256 1.586 2.242 1.603 2.224 1.61 2.21 1.629 2.193 1.638 2.175 1.654 2.158 1.664 2.142 1.678 2.124 1.69 2.109 1.705 2.087 1.715 2.074 1.733 2.053 1.741 2.035 1.756 2.017 1.768 2 1.783 1.983 1.795 1.963 1.809 1.942 1.821 1.924 1.838 1.907 1.848 1.888 1.86 1.867 1.877 1.848 1.888 1.83 1.9 1.808 1.918 1.788 1.928 1.77 1.943 1.746 1.957 1.73 1.967 1.706 1.985.214.252M278.795 306.533c-12.345-13.877-25.941-26.367-40.578-37.283M238.218 269.25l-2.637-1.987M214.869 252.321a372 372 0 0 0-46.075-26.324M106.723 213.826l51.584 27.784M168.797 225.995l-53.476-26.617M115.242 199.357l-.005-.001-.423-.032-.433-.024-.434-.011-.433.003-.437.013-.435.025-.43.039-.431.05-.424.06-.416.073-.408.082-.399.095-.388.104-.375.117-.366.128-.348.139-.335.15-.32.16-.3.171-.284.186-.263.194-.244.208-.218.222-.191.233-.161.241-.119.222-.101.246-.07.248-.04.247-.012.247.004.058M106 203.25l.347 9.756M106.35 213.008l.01.181.033.179M415.195 304.787l38.813 23.287M465.128 313.033l-94.322-67.35M354.442 260.132l42.185 31.01M413.666 303.667l1.493 1.096M234.307 269.703l-1.333-109.182" style="fill:none;stroke:red;stroke-width:1.99999;stroke-linecap:round;stroke-linejoin:round;stroke-miterlimit:10;stroke-dasharray:none;stroke-opacity:1;visibility:visible"/><path d="M355.632 252.752a1.502 1.502 0 0 0-.437-1.166" style="fill:none;stroke:red;stroke-width:.999997;stroke-linecap:round;stroke-linejoin:round;stroke-miterlimit:10;stroke-dasharray:none;stroke-opacity:1;visibility:visible"/><path d="m235.359 261.214 109.028-17.412" style="fill:none;stroke:red;stroke-width:1.99999;stroke-linecap:round;stroke-linejoin:round;stroke-miterlimit:10;stroke-dasharray:none;stroke-opacity:1;visibility:visible"/><path d="m355.196 251.585-10.808-7.783M355.486 259.44l.147-6.69M355.215 260.004l.055-.017.073-.055.059-.084.042-.113.03-.139.012-.159M308.835 343.205l-14.587 4.264M167.163 227.924l7.356 3.67M163.325 229.44l-.17-.095-.142-.102-.119-.115-.085-.116-.053-.121-.026-.123.01-.128.037-.121.072-.123.099-.117.129-.115.159-.107.178-.098.207-.092.224-.079.241-.068.26-.057.267-.042.276-.033.281-.015.282-.002.278.009.274.028.264.037.252.052.233.063.216.076.193.085M170.676 233.127l-7.352-3.687M174.519 231.594l.17.096.147.104.116.112.09.12.058.124.024.124-.006.125-.039.124-.068.124-.099.119-.128.116-.157.108-.181.1-.204.09-.226.083-.244.068-.257.058-.27.044-.278.03-.283.016-.282.003-.282-.01-.276-.025-.265-.041-.253-.052-.236-.065-.215-.076-.199-.088M141.755 215.236l7.148 3.572M137.928 216.713l-.165-.093-.14-.102-.111-.109-.081-.113-.048-.115-.023-.12.012-.123.041-.122.075-.12.101-.115.13-.112.157-.104.183-.092.204-.088.225-.079.241-.066.255-.055.264-.04.273-.033.278-.014.277-.004.276.014.27.024.258.034.244.052.23.06.213.076.189.084M145.072 220.295l-7.144-3.584M148.903 218.808l.167.09.138.105.114.11.084.114.053.117.021.12-.009.123-.04.124-.072.12-.101.116-.131.11-.155.104-.182.099-.204.09-.224.077-.242.068-.256.054-.268.046-.276.025-.278.019-.279.001-.277-.012-.272-.023-.259-.04-.248-.049-.23-.065-.214-.071-.19-.085M117.055 202.907l6.95 3.472M113.242 204.34l-.16-.09-.135-.1-.106-.106-.076-.11-.05-.114-.013-.117.012-.116.047-.118.073-.117.104-.11.132-.109.157-.101.183-.092.204-.085.223-.076.24-.066.253-.052.264-.041.27-.03.273-.017.274-.001.271.012.264.023.256.037.239.05.225.062.207.07.182.08M120.188 207.822l-6.945-3.481M124.005 206.377l.16.09.136.102.11.104.078.112.048.117.019.114-.012.12-.044.117-.074.119-.102.11-.13.111-.158.1-.182.095-.205.086-.223.078-.241.064-.253.056-.264.04-.272.026-.278.02-.274.003-.272-.012-.264-.025-.259-.038-.24-.048-.23-.064-.207-.068-.184-.084M293.397 359.714a.912.912 0 0 0 .249.606M293.74 348.171a.716.716 0 0 0-.253.54M294.246 347.471a.827.827 0 0 0-.506.7M309.498 343.417a.715.715 0 0 0-.663-.21M293.485 348.711l-.085 11.001" style="fill:none;stroke:red;stroke-width:.999997;stroke-linecap:round;stroke-linejoin:round;stroke-miterlimit:10;stroke-dasharray:none;stroke-opacity:1;visibility:visible"/><path d="M308.689 355.997c.23-.072.454-.17.666-.294" style="fill:none;stroke:red;stroke-width:1.99999;stroke-linecap:round;stroke-linejoin:round;stroke-miterlimit:10;stroke-dasharray:none;stroke-opacity:1;visibility:visible"/><path d="M293.646 360.32a.584.584 0 0 0 .494-.018" style="fill:none;stroke:red;stroke-width:.999997;stroke-linecap:round;stroke-linejoin:round;stroke-miterlimit:10;stroke-dasharray:none;stroke-opacity:1;visibility:visible"/><path d="m294.141 360.303 14.548-4.305M309.355 355.705c.099-.275.152-.56.162-.852" style="fill:none;stroke:red;stroke-width:1.99999;stroke-linecap:round;stroke-linejoin:round;stroke-miterlimit:10;stroke-dasharray:none;stroke-opacity:1;visibility:visible"/><path d="M309.646 343.89a.55.55 0 0 0-.147-.472" style="fill:none;stroke:red;stroke-width:.999997;stroke-linecap:round;stroke-linejoin:round;stroke-miterlimit:10;stroke-dasharray:none;stroke-opacity:1;visibility:visible"/><path d="m309.518 354.852.13-10.964M115.32 199.381a.253.253 0 0 0-.274.032M106.376 213.238a.664.664 0 0 0 .35.586" style="fill:none;stroke:red;stroke-width:1.99999;stroke-linecap:round;stroke-linejoin:round;stroke-miterlimit:10;stroke-dasharray:none;stroke-opacity:1;visibility:visible"/><path d="m414.73 295.743-127.925 20.403M414.964 296.358l-.235-.616M414.712 303.29l.252-6.93" style="fill:none;stroke:red;stroke-width:.999997;stroke-linecap:round;stroke-linejoin:round;stroke-miterlimit:10;stroke-dasharray:none;stroke-opacity:1;visibility:visible"/><path d="m281.09 309.282 125.233-19.663" style="fill:none;stroke:red;stroke-width:1.99999;stroke-linecap:round;stroke-linejoin:round;stroke-miterlimit:10;stroke-dasharray:none;stroke-opacity:1;visibility:visible"/><path d="m414.73 295.743-8.408-6.125" style="fill:none;stroke:red;stroke-width:.999997;stroke-linecap:round;stroke-linejoin:round;stroke-miterlimit:10;stroke-dasharray:none;stroke-opacity:1;visibility:visible"/><path d="m292.731 323.263 121.716-19.724" style="fill:none;stroke:red;stroke-width:1.99999;stroke-linecap:round;stroke-linejoin:round;stroke-miterlimit:10;stroke-dasharray:none;stroke-opacity:1;visibility:visible"/><path d="m414.447 303.54.264-.25M454.539 316.188a.747.747 0 0 0-.54.612M454.884 315.76a.533.533 0 0 0-.344.426" style="fill:none;stroke:red;stroke-width:.999997;stroke-linecap:round;stroke-linejoin:round;stroke-miterlimit:10;stroke-dasharray:none;stroke-opacity:1;visibility:visible"/><path d="m345.041 241.241 6.044-1.604" style="fill:none;stroke:red;stroke-width:1.99999;stroke-linecap:round;stroke-linejoin:round;stroke-miterlimit:10;stroke-dasharray:none;stroke-opacity:1;visibility:visible"/><path d="m464.555 312.887-9.67 2.87M453.998 316.798l-.477 10.53M453.519 327.33a.893.893 0 0 0 .479.738" style="fill:none;stroke:red;stroke-width:.999997;stroke-linecap:round;stroke-linejoin:round;stroke-miterlimit:10;stroke-dasharray:none;stroke-opacity:1;visibility:visible"/><path d="M465.212 313.102a.728.728 0 0 0-.659-.214" style="fill:none;stroke:red;stroke-width:1.99999;stroke-linecap:round;stroke-linejoin:round;stroke-miterlimit:10;stroke-dasharray:none;stroke-opacity:1;visibility:visible"/><path d="M453.996 328.067a.427.427 0 0 0 .324-.021" style="fill:none;stroke:red;stroke-width:.999997;stroke-linecap:round;stroke-linejoin:round;stroke-miterlimit:10;stroke-dasharray:none;stroke-opacity:1;visibility:visible"/><path d="M463.964 325.146a3.64 3.64 0 0 0 .686-.301M454.322 328.045l9.643-2.901M465.244 313.548a1.164 1.164 0 0 0-.03-.446" style="fill:none;stroke:red;stroke-width:1.99999;stroke-linecap:round;stroke-linejoin:round;stroke-miterlimit:10;stroke-dasharray:none;stroke-opacity:1;visibility:visible"/><path d="M464.648 324.846c.044-.26.077-.528.09-.793M464.739 324.053l.507-10.505M345.04 241.242c-.417.138-.703.543-.72 1.016M344.32 242.257l-.028 1.56" style="fill:none;stroke:red;stroke-width:1.99999;stroke-linecap:round;stroke-linejoin:round;stroke-miterlimit:10;stroke-dasharray:none;stroke-opacity:1;visibility:visible"/><path d="M224.907 162.105c.391.188.826.235 1.24.128M226.463 271.485c.371.21.803.261 1.207.144" style="fill:none;stroke:red;stroke-width:.999997;stroke-linecap:round;stroke-linejoin:round;stroke-miterlimit:10;stroke-dasharray:none;stroke-opacity:1;visibility:visible"/><path d="m223.217 157.343.188-.035.199-.021.202-.01.207.005.201.018.188.028.174.043.153.052.127.059.1.068.066.073.039.081.003.078-.034.077-.065.073-.096.071-.124.065-.15.056-.171.043-.187.035-.201.022-.203.01-.207-.007-.2-.019-.188-.026-.174-.04-.152-.054-.128-.06-.099-.07-.07-.078-.037-.073-.001-.08.032-.079.067-.072.096-.073.124-.063.15-.054.171-.043" style="fill:none;stroke:red;stroke-width:.666665;stroke-linecap:round;stroke-linejoin:round;stroke-miterlimit:10;stroke-dasharray:none;stroke-opacity:1;visibility:visible"/><path d="m217.867 154.121-3.46.753M229.419 158.007l3.441 2.347M222.307 153.157l3.12 2.127" style="fill:none;stroke:red;stroke-width:1.99999;stroke-linecap:round;stroke-linejoin:round;stroke-miterlimit:10;stroke-dasharray:none;stroke-opacity:1;visibility:visible"/><path d="m232.51 160.829-6.361 1.404M232.51 160.829l.145-.039.126-.048.096-.06.064-.062.032-.071-.003-.067-.04-.068-.07-.06M214.407 154.875l10.5 7.23M233.855 270.05l-6.185 1.579" style="fill:none;stroke:red;stroke-width:.999997;stroke-linecap:round;stroke-linejoin:round;stroke-miterlimit:10;stroke-dasharray:none;stroke-opacity:1;visibility:visible"/><path d="m216.242 263.35-1.833-108.473" style="fill:none;stroke:red;stroke-width:1.99999;stroke-linecap:round;stroke-linejoin:round;stroke-miterlimit:10;stroke-dasharray:none;stroke-opacity:1;visibility:visible"/><path d="m226.464 271.483-10.223-8.135M234.307 269.703l-.003.03-.028.078-.065.072-.095.065-.118.058-.143.044M355.196 251.585 239.74 270.406M294.247 347.47l-31.167-36.804M263.08 310.668l-1.813-2.084-1.84-2.07-1.863-2.055-1.883-2.042-1.906-2.022-1.931-2.011-1.952-1.993-1.972-1.979-1.995-1.965-2.017-1.95-2.037-1.936-2.06-1.92-2.08-1.904-2.1-1.89-2.124-1.875-2.142-1.863-2.16-1.846-2.184-1.83-2.2-1.817-2.225-1.804-2.24-1.785-2.263-1.775-2.28-1.76-2.3-1.741-2.317-1.732-2.337-1.714-2.358-1.702-2.372-1.686-2.394-1.674-2.41-1.659-2.427-1.644-2.448-1.63-2.462-1.617-2.484-1.602-2.496-1.587-2.514-1.577-2.534-1.558-2.55-1.543-2.566-1.531-2.582-1.52-2.6-1.505-2.616-1.49-2.632-1.477-2.648-1.464-2.663-1.45-2.679-1.431M158.424 229.957l-51.63-27.448M106 203.25v.024l.028.204" style="fill:none;stroke:red;stroke-width:.999997;stroke-linecap:round;stroke-linejoin:round;stroke-miterlimit:10;stroke-dasharray:none;stroke-opacity:1;visibility:visible"/><path d="m106.376 213.237-.027-.208-.001-.024" style="fill:none;stroke:red;stroke-width:1.99999;stroke-linecap:round;stroke-linejoin:round;stroke-miterlimit:10;stroke-dasharray:none;stroke-opacity:1;visibility:visible"/><path d="m454.885 315.758-38.841-23.003M416.044 292.755l-71.002-51.516M226.464 271.483l-1.556-109.378" style="fill:none;stroke:red;stroke-width:.999997;stroke-linecap:round;stroke-linejoin:round;stroke-miterlimit:10;stroke-dasharray:none;stroke-opacity:1;visibility:visible"/><path d="m370.602 245.51.577-131.95M370.594 246.84l.008-1.33" style="fill:none;stroke:red;stroke-width:1.99999;stroke-linecap:round;stroke-linejoin:round;stroke-miterlimit:10;stroke-dasharray:none;stroke-opacity:1;visibility:visible"/><path d="M363.69 115.01c.385.168.81.206 1.218.114M362.971 248.717a1.627 1.627 0 0 0 1.247.14M367.139 112.907l.12.079.083.08.058.084.028.089-.005.084-.04.087-.073.08-.103.08-.132.069-.156.065-.18.052-.203.046-.216.032-.229.025-.236.01-.243.002-.232-.015-.237-.03-.221-.034-.207-.044-.195-.058-.166-.06-.147-.075M364.206 113.555l-.117-.076-.087-.083-.057-.086-.026-.088.007-.084.039-.086" style="fill:none;stroke:red;stroke-width:.999997;stroke-linecap:round;stroke-linejoin:round;stroke-miterlimit:10;stroke-dasharray:none;stroke-opacity:1;visibility:visible"/><path d="m360.818 111.27-.092-.068-.068-.07-.033-.071v-.071l.036-.073.062-.063.098-.059.124-.057.141-.048.164-.036.181-.023.195-.016.197-.004.198.008.194.019.186.035.164.041.145.05.124.06.092.063.064.072.03.072.003.067-.033.072-.061.068-.092.06-.127.056-.141.048-.168.035-.183.025-.195.015-.193.005-.201-.01-.195-.023-.181-.032-.163-.042-.145-.05-.127-.055" style="fill:none;stroke:red;stroke-width:.666665;stroke-linecap:round;stroke-linejoin:round;stroke-miterlimit:10;stroke-dasharray:none;stroke-opacity:1;visibility:visible"/><path d="m352.226 108.461 11.467 6.547" style="fill:none;stroke:red;stroke-width:.999997;stroke-linecap:round;stroke-linejoin:round;stroke-miterlimit:10;stroke-dasharray:none;stroke-opacity:1;visibility:visible"/><path d="m355.975 107.645-3.75.816M367.455 111.362l3.576 2.019M359.88 107.082l3.72 2.1" style="fill:none;stroke:red;stroke-width:1.99999;stroke-linecap:round;stroke-linejoin:round;stroke-miterlimit:10;stroke-dasharray:none;stroke-opacity:1;visibility:visible"/><path d="m370.783 113.817-5.872 1.305M370.783 113.817l.135-.035.109-.049.079-.055.053-.056.019-.062-.019-.062-.048-.061-.079-.056M359.725 108.799l.027.084-.011.085-.039.084-.069.083-.105.077-.131.067-.156.064-.184.05-.195.045-.218.033-.224.02-.238.012-.238-.003-.234-.009-.234-.025-.218-.035-.209-.048-.188-.052-.167-.061-.144-.074M356.55 109.196l-.116-.076-.085-.08-.055-.087-.024-.082.01-.087.04-.083.073-.081.101-.077M370.2 247.168l-5.981 1.69" style="fill:none;stroke:red;stroke-width:.999997;stroke-linecap:round;stroke-linejoin:round;stroke-miterlimit:10;stroke-dasharray:none;stroke-opacity:1;visibility:visible"/><path d="m351.314 240.387.127-17.96M351.502 213.585l.539-78.25M352.1 126.718l.127-18.256" style="fill:none;stroke:red;stroke-width:1.99999;stroke-linecap:round;stroke-linejoin:round;stroke-miterlimit:10;stroke-dasharray:none;stroke-opacity:1;visibility:visible"/><path d="m362.972 248.717-11.657-8.33M370.594 246.84l-.017.077-.05.072-.085.072-.11.056-.133.051M362.972 248.717l.719-133.706" style="fill:none;stroke:red;stroke-width:.999997;stroke-linecap:round;stroke-linejoin:round;stroke-miterlimit:10;stroke-dasharray:none;stroke-opacity:1;visibility:visible"/><path d="M358.91 102.153a1.179 1.179 0 0 0 .436-.246M358.951 101.417a.17.17 0 0 0 .057-.12.176.176 0 0 0-.057-.127M358.951 101.17a.82.82 0 0 0-.31-.176M358.64 100.996a2.36 2.36 0 0 0-1.36 0M357.278 100.996a.779.779 0 0 0-.312.176M356.963 101.17a.179.179 0 0 0-.057.127.19.19 0 0 0 .057.123M356.963 101.417a.89.89 0 0 0 .313.18M358.64 101.595a.816.816 0 0 0 .311-.178" style="fill:none;stroke:red;stroke-width:.999997;stroke-linecap:round;stroke-linejoin:round;stroke-miterlimit:2;stroke-dasharray:none;stroke-opacity:1;visibility:visible"/><path d="M357.006 102.153a3.345 3.345 0 0 0 1.904 0" style="fill:none;stroke:red;stroke-width:.666665;stroke-linecap:round;stroke-linejoin:round;stroke-miterlimit:2;stroke-dasharray:none;stroke-opacity:1;visibility:visible"/><path d="M359.346 101.91a.23.23 0 0 0 .077-.175.224.224 0 0 0-.07-.162M356.56 101.573a.24.24 0 0 0-.068.163c0 .065.028.128.076.174M356.568 101.91a1.2 1.2 0 0 0 .438.244M356.959 101.175l-.397.397M358.96 101.175l.393.397M356.494 101.735v7.096M359.423 101.735v7.241M366.53 106.721a1.125 1.125 0 0 0 .417-.246M366.572 105.985a.177.177 0 0 0 .055-.12.184.184 0 0 0-.055-.127M366.572 105.74a.812.812 0 0 0-.3-.179M366.271 105.563a2.228 2.228 0 0 0-1.31 0M364.96 105.563a.79.79 0 0 0-.306.177M364.655 105.74a.179.179 0 0 0-.055.124c0 .044.024.09.055.123M364.655 105.985a.859.859 0 0 0 .305.178M366.271 106.161a.797.797 0 0 0 .301-.178" style="fill:none;stroke:red;stroke-width:.999997;stroke-linecap:round;stroke-linejoin:round;stroke-miterlimit:2;stroke-dasharray:none;stroke-opacity:1;visibility:visible"/><path d="M364.698 106.721c.298.09.602.139.917.139.31 0 .619-.05.915-.139" style="fill:none;stroke:red;stroke-width:.666665;stroke-linecap:round;stroke-linejoin:round;stroke-miterlimit:2;stroke-dasharray:none;stroke-opacity:1;visibility:visible"/><path d="M366.946 106.476a.233.233 0 0 0 .08-.17.247.247 0 0 0-.07-.166M364.27 106.141a.244.244 0 0 0-.064.164.227.227 0 0 0 .074.171M364.28 106.476a1.155 1.155 0 0 0 .415.248M364.65 105.744l-.38.396M366.577 105.744l.38.396M364.206 106.304v7.095M367.025 106.304v7.241" style="fill:none;stroke:red;stroke-width:.999997;stroke-linecap:round;stroke-linejoin:round;stroke-miterlimit:2;stroke-dasharray:none;stroke-opacity:1;visibility:visible"/><path d="M365.615 108.024v4.561M357.958 103.444v4.75" style="fill:none;stroke:red;stroke-width:.666665;stroke-linecap:round;stroke-linejoin:round;stroke-miterlimit:10;stroke-dasharray:none;stroke-opacity:1;visibility:visible"/><path d="m351.051 126.765-10.743 2.425s-2.92 1.581-2.92 4.645c0 3.064 2.31 4.125 3.646 3.852l10.13-2.307s.612-.27 1.53.245l3.812 2.215s1.504.092 1.92-1.64c.421-1.73.197-4.7-1.47-6.915l-3.901-2.275s-.724-.49-2.004-.245" style="fill:none;stroke:red;stroke-width:.999997;stroke-linecap:round;stroke-linejoin:round;stroke-miterlimit:10;stroke-dasharray:none;stroke-opacity:1;visibility:visible"/><path d="M341.255 136.625s-2.839.516-2.864-2.46c-.03-2.97 3.03-3.758 3.03-3.758l9.855-2.217s.584-.211 1.226.09l2.67 1.547s1.836 1.368 1.891 3.917c.057 2.547-1.14 2.881-2.253 2.185l-3.008-1.824-10.547 2.52" style="fill:none;stroke:red;stroke-width:.666665;stroke-linecap:round;stroke-linejoin:round;stroke-miterlimit:10;stroke-dasharray:none;stroke-opacity:1;visibility:visible"/><path d="M355.295 132.657c.295.828.185 1.648-.248 1.828-.43.183-1.012-.345-1.307-1.172-.296-.833-.186-1.65.246-1.833.428-.18 1.014.348 1.31 1.177h-.001M346.24 131.65l-4.037.97s-.889.212-.889 1.091.636.878.805.849l4.175-.939s.916-.394.916-1.121c.001-.731-.582-.912-.97-.851v.001M351.748 128.978v4.916" style="fill:none;stroke:red;stroke-width:.666665;stroke-linecap:round;stroke-linejoin:round;stroke-miterlimit:10;stroke-dasharray:none;stroke-opacity:1;visibility:visible"/><path d="m354.105 132.637.508.376-.187.679" style="fill:none;stroke:red;stroke-width:.666665;stroke-linecap:round;stroke-linejoin:round;stroke-miterlimit:10;stroke-dasharray:none;stroke-opacity:1;visibility:visible"/><path d="m350.47 213.596-10.91 2.81s-2.945 1.635-2.945 4.804c.001 3.172 2.328 4.27 3.673 3.986l10.296-2.686s.616-.284 1.54.251l3.85 2.649s1.516.098 1.936-1.693c.421-1.79.198-4.865-1.486-7.155l-3.932-2.716s-.732-.502-2.022-.25" style="fill:none;stroke:red;stroke-width:.999997;stroke-linecap:round;stroke-linejoin:round;stroke-miterlimit:10;stroke-dasharray:none;stroke-opacity:1;visibility:visible"/><path d="M340.514 224.1s-2.862.53-2.888-2.543c-.028-3.077 3.056-3.893 3.056-3.893l10.014-2.592s.587-.222 1.234.093l2.7 1.961s1.851 1.411 1.91 4.051c.055 2.633-1.15 2.98-2.274 2.259l-3.039-2.246-10.713 2.91" style="fill:none;stroke:red;stroke-width:.666665;stroke-linecap:round;stroke-linejoin:round;stroke-miterlimit:10;stroke-dasharray:none;stroke-opacity:1;visibility:visible"/><path d="M354.756 220.053c.295.857.186 1.703-.248 1.892-.433.19-1.022-.361-1.32-1.213-.294-.862-.182-1.707.248-1.896.432-.187 1.022.357 1.32 1.217M345.532 218.952l-4.065 1.004s-.897.22-.897 1.132c0 .908.645.905.814.877l4.204-.975s.924-.405.924-1.16c0-.754-.586-.94-.98-.879v.001M351.171 215.886v5.084" style="fill:none;stroke:red;stroke-width:.666665;stroke-linecap:round;stroke-linejoin:round;stroke-miterlimit:10;stroke-dasharray:none;stroke-opacity:1;visibility:visible"/><path d="m353.557 220.032.51.392-.185.699" style="fill:none;stroke:red;stroke-width:.666665;stroke-linecap:round;stroke-linejoin:round;stroke-miterlimit:10;stroke-dasharray:none;stroke-opacity:1;visibility:visible"/><path d="m233.067 171.1 1.471-.343s2.175-.69 3.587 2.456c1.285 2.859-.995 7.23-3.143 7.658l-1.781.457" style="fill:none;stroke:red;stroke-width:.999997;stroke-linecap:round;stroke-linejoin:round;stroke-miterlimit:10;stroke-dasharray:none;stroke-opacity:1;visibility:visible"/><path d="m233.251 180.041 2.072-.516s2.675-.997 2.675-4.054c0-3.058-2.281-3.232-3.147-3.028l-1.73.4" style="fill:none;stroke:red;stroke-width:.666665;stroke-linecap:round;stroke-linejoin:round;stroke-miterlimit:10;stroke-dasharray:none;stroke-opacity:1;visibility:visible"/><path d="m233.12 175.585 1.599-.37s.866 0 .866.885c0 .884-.603 1.313-1.023 1.428l-1.415.312" style="fill:none;stroke:red;stroke-width:.666665;stroke-linecap:round;stroke-linejoin:round;stroke-miterlimit:10;stroke-dasharray:none;stroke-opacity:1;visibility:visible"/><path d="m234.097 229.974 1.44-.33s2.133-.666 3.521 2.368c1.26 2.76-.977 6.978-3.084 7.39l-1.748.44" style="fill:none;stroke:red;stroke-width:.999997;stroke-linecap:round;stroke-linejoin:round;stroke-miterlimit:10;stroke-dasharray:none;stroke-opacity:1;visibility:visible"/><path d="m234.277 238.604 2.03-.496s2.623-.968 2.623-3.918c-.001-2.948-2.237-3.116-3.084-2.922l-1.699.388" style="fill:none;stroke:red;stroke-width:.666665;stroke-linecap:round;stroke-linejoin:round;stroke-miterlimit:10;stroke-dasharray:none;stroke-opacity:1;visibility:visible"/><path d="m234.146 234.302 1.57-.358s.845 0 .845.854c.001.855-.589 1.268-1 1.38l-1.387.302" style="fill:none;stroke:red;stroke-width:.666665;stroke-linecap:round;stroke-linejoin:round;stroke-miterlimit:10;stroke-dasharray:none;stroke-opacity:1;visibility:visible"/><path d="m221.889 155.446.025.085-.009.084-.039.083-.07.084-.106.079-.13.066-.158.063-.181.052-.196.043-.217.034-.226.02-.237.012-.237-.002-.235-.01-.233-.026-.219-.034-.208-.048-.188-.052-.167-.061-.144-.075M218.714 155.843l-.116-.077-.087-.079-.054-.088-.023-.083.01-.084.04-.084.073-.08.1-.078" style="fill:none;stroke:red;stroke-width:.999997;stroke-linecap:round;stroke-linejoin:round;stroke-miterlimit:10;stroke-dasharray:none;stroke-opacity:1;visibility:visible"/><path d="M220.805 148.241a.819.819 0 0 0 .31-.177" style="fill:none;stroke:red;stroke-width:.666665;stroke-linecap:round;stroke-linejoin:round;stroke-miterlimit:2;stroke-dasharray:none;stroke-opacity:1;visibility:visible"/><path d="M221.074 148.801a1.21 1.21 0 0 0 .436-.245M221.117 148.065a.181.181 0 0 0 .056-.124.181.181 0 0 0-.056-.121M221.117 147.82a.813.813 0 0 0-.312-.176M220.805 147.644a2.37 2.37 0 0 0-1.365 0M219.44 147.644a.796.796 0 0 0-.314.176M219.126 147.82a.173.173 0 0 0-.056.123.185.185 0 0 0 .056.125M219.126 148.065a.867.867 0 0 0 .314.176" style="fill:none;stroke:red;stroke-width:.999997;stroke-linecap:round;stroke-linejoin:round;stroke-miterlimit:2;stroke-dasharray:none;stroke-opacity:1;visibility:visible"/><path d="M219.17 148.801a3.35 3.35 0 0 0 1.904 0" style="fill:none;stroke:red;stroke-width:.666665;stroke-linecap:round;stroke-linejoin:round;stroke-miterlimit:2;stroke-dasharray:none;stroke-opacity:1;visibility:visible"/><path d="M221.509 148.556a.224.224 0 0 0 .077-.172c0-.06-.023-.12-.07-.164M218.726 148.223a.225.225 0 0 0 .007.334M218.733 148.556a1.212 1.212 0 0 0 .437.244M219.122 147.823l-.395.397M221.124 147.823l.393.397M218.657 148.383v7.096M221.587 148.383v7.24" style="fill:none;stroke:red;stroke-width:.999997;stroke-linecap:round;stroke-linejoin:round;stroke-miterlimit:2;stroke-dasharray:none;stroke-opacity:1;visibility:visible"/><path d="M220.122 150.091v4.75" style="fill:none;stroke:red;stroke-width:.666665;stroke-linecap:round;stroke-linejoin:round;stroke-miterlimit:10;stroke-dasharray:none;stroke-opacity:1;visibility:visible"/><path d="m229.12 160.067.025.087-.009.084-.039.082-.069.084-.105.076-.132.067-.158.063-.181.054-.195.042-.218.034-.224.022-.236.009-.24-.003-.234-.006-.234-.027-.218-.036-.209-.045-.187-.055-.168-.061-.144-.074" style="fill:none;stroke:red;stroke-width:.999997;stroke-linecap:round;stroke-linejoin:round;stroke-miterlimit:10;stroke-dasharray:none;stroke-opacity:1;visibility:visible"/><path d="m225.946 160.464-.115-.076-.088-.08-.054-.087-.023-.084.01-.085.04-.083.073-.081.101-.079" style="fill:none;stroke:red;stroke-width:.999997;stroke-linecap:round;stroke-linejoin:round;stroke-miterlimit:10;stroke-dasharray:none;stroke-opacity:1;visibility:visible"/><path d="M228.349 152.685a.179.179 0 0 0 .056-.124.187.187 0 0 0-.056-.121M228.349 152.44a.821.821 0 0 0-.312-.176M228.037 152.265a2.319 2.319 0 0 0-.68-.098c-.235 0-.467.03-.683.098M226.673 152.265a.807.807 0 0 0-.315.176M226.358 152.44a.173.173 0 0 0-.056.123c0 .046.023.089.056.122M226.358 152.685a.864.864 0 0 0 .315.178M228.037 152.863a.77.77 0 0 0 .31-.18" style="fill:none;stroke:red;stroke-width:.999997;stroke-linecap:round;stroke-linejoin:round;stroke-miterlimit:2;stroke-dasharray:none;stroke-opacity:1;visibility:visible"/><path d="M226.402 153.423a3.319 3.319 0 0 0 1.905 0M228.307 153.423a1.195 1.195 0 0 0 .435-.247" style="fill:none;stroke:red;stroke-width:.666665;stroke-linecap:round;stroke-linejoin:round;stroke-miterlimit:2;stroke-dasharray:none;stroke-opacity:1;visibility:visible"/><path d="M228.742 153.177a.223.223 0 0 0 .076-.173.219.219 0 0 0-.07-.161M225.96 152.843a.23.23 0 0 0 .005.334M225.965 153.177a1.212 1.212 0 0 0 .437.246M226.353 152.444l-.395.397M228.356 152.444l.393.397M225.89 153.004v7.095M228.818 153.004v7.241" style="fill:none;stroke:red;stroke-width:.999997;stroke-linecap:round;stroke-linejoin:round;stroke-miterlimit:2;stroke-dasharray:none;stroke-opacity:1;visibility:visible"/><path d="M227.355 154.711v4.75" style="fill:none;stroke:red;stroke-width:.666665;stroke-linecap:round;stroke-linejoin:round;stroke-miterlimit:10;stroke-dasharray:none;stroke-opacity:1;visibility:visible"/><path d="m233.855 270.05 15.009 7.607M226.464 271.483l9.117-4.22M216.241 263.348l-1.372-11.027M406.322 289.618l-9.695 1.523" style="fill:none;stroke:red;stroke-width:1.99999;stroke-linecap:round;stroke-linejoin:round;stroke-miterlimit:10;stroke-dasharray:none;stroke-opacity:1;visibility:visible"/><path d="m226.147 162.233-2.93-4.89M226.149 162.233l-2.932-4.89" style="fill:none;stroke:red;stroke-width:.666665;stroke-linecap:round;stroke-linejoin:round;stroke-miterlimit:10;stroke-dasharray:none;stroke-opacity:1;visibility:visible"/><path d="m223.217 157.343-5.35-3.222M225.946 160.464l3.473-2.457M218.714 155.843l3.593-2.686M229.419 158.007l-3.992-2.723" style="fill:none;stroke:red;stroke-width:1.99999;stroke-linecap:round;stroke-linejoin:round;stroke-miterlimit:10;stroke-dasharray:none;stroke-opacity:1;visibility:visible"/><path d="m113.242 204.34-6.449-1.83" style="fill:none;stroke:red;stroke-width:.999997;stroke-linecap:round;stroke-linejoin:round;stroke-miterlimit:10;stroke-dasharray:none;stroke-opacity:1;visibility:visible"/><path d="m367.139 112.907-6.321-1.637M364.695 106.724l-3.877 4.546" style="fill:none;stroke:red;stroke-width:.666665;stroke-linecap:round;stroke-linejoin:round;stroke-miterlimit:10;stroke-dasharray:none;stroke-opacity:1;visibility:visible"/><path d="m358.91 102.153-2.935 5.492M364.206 113.555l3.249-2.193M356.55 109.196l3.33-2.114M364.207 113.555l-.607-4.373M351.171 220.97l.27 1.457M351.171 215.886l.331-2.301M351.748 133.894l.293 1.44M351.748 128.978l.352-2.26" style="fill:none;stroke:red;stroke-width:1.99999;stroke-linecap:round;stroke-linejoin:round;stroke-miterlimit:10;stroke-dasharray:none;stroke-opacity:1;visibility:visible"/><path d="m364.206 113.399 1.409-5.375M363.69 115.01l1.925-2.425M356.494 108.831l1.464-5.387M352.227 108.462l5.731-.269" style="fill:none;stroke:red;stroke-width:.666665;stroke-linecap:round;stroke-linejoin:round;stroke-miterlimit:10;stroke-dasharray:none;stroke-opacity:1;visibility:visible"/><path d="m341.255 136.625 9.796-9.86M346.24 131.65l4.811-4.885" style="fill:none;stroke:red;stroke-width:.999997;stroke-linecap:round;stroke-linejoin:round;stroke-miterlimit:10;stroke-dasharray:none;stroke-opacity:1;visibility:visible"/><path d="m346.24 131.65-4.985 4.975M346.24 131.65l-4.985 4.975M351.051 126.765l-4.811 4.885M351.748 128.978l-5.508 2.672M352.1 126.718l-.352 2.26M352.04 135.335l-.292-1.441" style="fill:none;stroke:red;stroke-width:.666665;stroke-linecap:round;stroke-linejoin:round;stroke-miterlimit:10;stroke-dasharray:none;stroke-opacity:1;visibility:visible"/><path d="m340.514 224.1 9.956-10.504M345.532 218.952l4.938-5.356" style="fill:none;stroke:red;stroke-width:.999997;stroke-linecap:round;stroke-linejoin:round;stroke-miterlimit:10;stroke-dasharray:none;stroke-opacity:1;visibility:visible"/><path d="m345.532 218.952-5.018 5.148M345.532 218.952l-5.018 5.148M340.514 224.1l5.018-5.148M351.171 215.886l-5.639 3.066M351.502 213.585l-.331 2.301M351.44 222.427l-.269-1.457" style="fill:none;stroke:red;stroke-width:.666665;stroke-linecap:round;stroke-linejoin:round;stroke-miterlimit:10;stroke-dasharray:none;stroke-opacity:1;visibility:visible"/><path d="m232.51 160.829.557 10.271" style="fill:none;stroke:red;stroke-width:.999997;stroke-linecap:round;stroke-linejoin:round;stroke-miterlimit:10;stroke-dasharray:none;stroke-opacity:1;visibility:visible"/><path d="m226.147 162.233 7.104 17.808M232.51 160.829l.611 12.014M232.51 160.829l.61 14.756M232.51 160.829l.637 17.011M218.657 155.479l1.465-5.388M214.409 154.877l5.713-.035M225.89 160.099l1.465-5.388M224.908 162.105l2.447-2.643" style="fill:none;stroke:red;stroke-width:.666665;stroke-linecap:round;stroke-linejoin:round;stroke-miterlimit:10;stroke-dasharray:none;stroke-opacity:1;visibility:visible"/><path d="m117.18 58.63-.41-.33M117.653 66.085l-.305-7.181M106.52 55.456l-.38.36M106 56.097l.327 7.153M122.372 177.263l-.232-5.472M111.1 168.164l.265 5.883" style="fill:none;stroke:#00ff4a;stroke-width:1.99999;stroke-linecap:round;stroke-linejoin:round;stroke-miterlimit:10;stroke-dasharray:none;stroke-opacity:1;visibility:visible"/><path d="m115.872 67.788 4.032-1.25" style="fill:none;stroke:#00ff4a;stroke-width:.999997;stroke-linecap:round;stroke-linejoin:round;stroke-miterlimit:10;stroke-dasharray:none;stroke-opacity:1;visibility:visible"/><path d="m120.238 74.489-.333-7.95M119.909 79.467c.283-1.642.393-3.31.328-4.975" style="fill:none;stroke:#00ff4a;stroke-width:1.99999;stroke-linecap:round;stroke-linejoin:round;stroke-miterlimit:10;stroke-dasharray:none;stroke-opacity:1;visibility:visible"/><path d="m123.253 159.082-.53-1.85-.511-1.869-.487-1.885-.463-1.905-.438-1.919-.418-1.937-.394-1.954-.37-1.969-.348-1.985-.321-2-.3-2.015-.275-2.028-.248-2.045-.228-2.055-.201-2.067-.177-2.082-.154-2.095-.129-2.105-.104-2.118-.079-2.126-.054-2.138-.031-2.152-.005-2.154.018-2.167.047-2.173.068-2.182.097-2.192.119-2.196.145-2.205.17-2.21.193-2.215.22-2.22.247-2.225.269-2.23.295-2.234.32-2.236.344-2.24.369-2.24M123.961 163.49a18.383 18.383 0 0 0-.71-4.41M124.278 171.024l-3.912 1.408M124.278 171.024l-.316-7.533" style="fill:none;stroke:#00ff4a;stroke-width:1.99999;stroke-linecap:round;stroke-linejoin:round;stroke-miterlimit:10;stroke-dasharray:none;stroke-opacity:1;visibility:visible"/><path d="m117.18 58.63.081.076.058.09.028.09-.008.1-.04.092-.072.09-.106.094-.136.083-.164.082-.189.071-.21.065-.231.055-.247.044-.259.037-.262.023-.271.012-.268-.001-.261-.014-.252-.022-.243-.038-.221-.044-.202-.054-.18-.066M117.653 66.085l-.01.08-.04.093-.073.094-.105.094-.135.083-.165.081-.187.072-.21.067-.23.056-.246.044-.256.037-.266.023-.27.012-.267-.001-.26-.014-.252-.022-.24-.038-.223-.044-.204-.056-.176-.069" style="fill:none;stroke:#00ff4a;stroke-width:.999997;stroke-linecap:round;stroke-linejoin:round;stroke-miterlimit:10;stroke-dasharray:none;stroke-opacity:1;visibility:visible"/><path d="m110.464 57.453-.121-.059-.094-.066-.062-.07-.032-.074v-.08l.028-.074.062-.077.092-.07.12-.069.146-.06.166-.053.184-.048.203-.037.208-.024.217-.015.218-.005.214.006.207.015.193.032.179.036.157.05.134.054.109.063.079.07.048.075.017.073-.015.078-.046.077-.076.072-.107.07-.13.066-.16.059-.174.048-.195.042-.206.034-.214.017-.217.012-.216-.001-.213-.014-.202-.021-.186-.036-.17-.043-.145-.053" style="fill:none;stroke:#00ff4a;stroke-width:.666665;stroke-linecap:round;stroke-linejoin:round;stroke-miterlimit:10;stroke-dasharray:none;stroke-opacity:1;visibility:visible"/><path d="m109.454 55.211-.153-.055-.179-.046-.196-.038-.21-.028-.222-.018-.23-.006-.23.006-.23.017-.227.03-.215.037-.203.046-.181.054-.163.064-.14.07-.11.072-.083.082-.053.08M116.538 58.17l-7.084-2.959" style="fill:none;stroke:#00ff4a;stroke-width:1.99999;stroke-linecap:round;stroke-linejoin:round;stroke-miterlimit:10;stroke-dasharray:none;stroke-opacity:1;visibility:visible"/><path d="m113.525 59.495-7.083-2.97M115.614 75.741l-.344-7.96M115.27 67.782l.601.007M104.016 63.008l11.253 4.773M104.093 62.796l-.077.212" style="fill:none;stroke:#00ff4a;stroke-width:.999997;stroke-linecap:round;stroke-linejoin:round;stroke-miterlimit:10;stroke-dasharray:none;stroke-opacity:1;visibility:visible"/><path d="m104.093 62.796 2.181-.667M117.62 65.33l2.359.993" style="fill:none;stroke:#00ff4a;stroke-width:1.99999;stroke-linecap:round;stroke-linejoin:round;stroke-miterlimit:10;stroke-dasharray:none;stroke-opacity:1;visibility:visible"/><path d="m119.904 66.54.072-.215M106.325 63.253a.583.583 0 0 0 .445.434" style="fill:none;stroke:#00ff4a;stroke-width:.999997;stroke-linecap:round;stroke-linejoin:round;stroke-miterlimit:10;stroke-dasharray:none;stroke-opacity:1;visibility:visible"/><path d="m104.016 63.008.364 7.915" style="fill:none;stroke:#00ff4a;stroke-width:1.99999;stroke-linecap:round;stroke-linejoin:round;stroke-miterlimit:10;stroke-dasharray:none;stroke-opacity:1;visibility:visible"/><path d="m118.938 161.677-.539-1.861-.517-1.882-.495-1.896-.473-1.913-.448-1.933-.425-1.947-.406-1.964-.381-1.98-.356-1.995-.333-2.009-.314-2.027-.285-2.037-.264-2.053-.237-2.067-.219-2.079-.19-2.092-.169-2.102-.144-2.116-.117-2.128-.097-2.138-.071-2.148-.047-2.16-.021-2.168.003-2.177.025-2.187.05-2.193.08-2.204.1-2.208.125-2.216.149-2.223.176-2.228.199-2.237.224-2.237.249-2.244.272-2.248.297-2.25.323-2.258.347-2.255.372-2.258" style="fill:none;stroke:#00ff4a;stroke-width:.999997;stroke-linecap:round;stroke-linejoin:round;stroke-miterlimit:10;stroke-dasharray:none;stroke-opacity:1;visibility:visible"/><path d="m104.156 74.516-.363 2.245-.338 2.242-.319 2.241-.288 2.237-.27 2.232-.24 2.23-.217 2.224-.194 2.221-.167 2.216-.144 2.21-.12 2.2-.092 2.197-.072 2.188-.043 2.182-.022 2.174.002 2.165.028 2.155.054 2.144.076 2.137.101 2.127.125 2.114.15 2.104.173 2.09.197 2.082.222 2.067.245 2.052.27 2.045.291 2.026.316 2.014.339 2 .363 1.983.385 1.97.412 1.955.428 1.937.457 1.92.475 1.907.5 1.887.523 1.87.541 1.854" style="fill:none;stroke:#00ff4a;stroke-width:1.99999;stroke-linecap:round;stroke-linejoin:round;stroke-miterlimit:10;stroke-dasharray:none;stroke-opacity:1;visibility:visible"/><path d="M115.38 79.36c.204-1.195.282-2.408.236-3.617" style="fill:none;stroke:#00ff4a;stroke-width:.999997;stroke-linecap:round;stroke-linejoin:round;stroke-miterlimit:10;stroke-dasharray:none;stroke-opacity:1;visibility:visible"/><path d="M104.156 74.517c.202-1.187.277-2.39.224-3.593" style="fill:none;stroke:#00ff4a;stroke-width:1.99999;stroke-linecap:round;stroke-linejoin:round;stroke-miterlimit:10;stroke-dasharray:none;stroke-opacity:1;visibility:visible"/><path d="m106.445 56.528-.15-.075-.12-.077-.091-.087-.059-.088-.024-.09.008-.098.043-.092.073-.092.015-.013M119.457 164.879a13.195 13.195 0 0 0-.52-3.2" style="fill:none;stroke:#00ff4a;stroke-width:.999997;stroke-linecap:round;stroke-linejoin:round;stroke-miterlimit:10;stroke-dasharray:none;stroke-opacity:1;visibility:visible"/><path d="M108.47 159.543a13.207 13.207 0 0 0-.53-3.183" style="fill:none;stroke:#00ff4a;stroke-width:1.99999;stroke-linecap:round;stroke-linejoin:round;stroke-miterlimit:10;stroke-dasharray:none;stroke-opacity:1;visibility:visible"/><path d="m119.785 172.422-.327-7.545" style="fill:none;stroke:#00ff4a;stroke-width:.999997;stroke-linecap:round;stroke-linejoin:round;stroke-miterlimit:10;stroke-dasharray:none;stroke-opacity:1;visibility:visible"/><path d="m120.368 172.431-.584-.01M108.47 159.54l.347 7.505M108.816 167.046l10.97 5.376M118.678 177.938l.173.076.196.063.216.054.234.04.244.024.254.016.26.002.259-.015.256-.025.25-.04.24-.055.222-.059.203-.076.182-.086.158-.09.129-.097.104-.101.068-.107.04-.11.007-.089M111.803 174.54l6.875 3.399M111.366 174.05a.632.632 0 0 0 .436.49M124.03 163.25l-.068.241M124.278 171.024l-2.138.767M108.817 167.045l2.283 1.119" style="fill:none;stroke:#00ff4a;stroke-width:1.99999;stroke-linecap:round;stroke-linejoin:round;stroke-miterlimit:10;stroke-dasharray:none;stroke-opacity:1;visibility:visible"/><path d="m115.27 67.781-1.432-1.104" style="fill:none;stroke:#00ff4a;stroke-width:.999997;stroke-linecap:round;stroke-linejoin:round;stroke-miterlimit:10;stroke-dasharray:none;stroke-opacity:1;visibility:visible"/><path d="m109.454 55.211 1.01 2.242M109.454 55.211l1.01 2.242" style="fill:none;stroke:#00ff4a;stroke-width:.666665;stroke-linecap:round;stroke-linejoin:round;stroke-miterlimit:10;stroke-dasharray:none;stroke-opacity:1;visibility:visible"/><path d="m115.872 67.788-9.598-5.659" style="fill:none;stroke:#00ff4a;stroke-width:1.99999;stroke-linecap:round;stroke-linejoin:round;stroke-miterlimit:10;stroke-dasharray:none;stroke-opacity:1;visibility:visible"/><path d="m142.65 69.267-.415-.333M143.084 76.836l-.259-7.276M131.715 65.98l-.387.36M131.178 66.634l.281 7.25M147.097 189.456l-.195-5.508M135.58 180.167l.23 5.943" style="fill:none;stroke:#9500ff;stroke-width:1.99999;stroke-linecap:round;stroke-linejoin:round;stroke-miterlimit:10;stroke-dasharray:none;stroke-opacity:1;visibility:visible"/><path d="m141.343 78.584 4.05-1.292" style="fill:none;stroke:#9500ff;stroke-width:.999997;stroke-linecap:round;stroke-linejoin:round;stroke-miterlimit:10;stroke-dasharray:none;stroke-opacity:1;visibility:visible"/><path d="m145.674 85.35-.283-8.056M145.313 90.396c.295-1.664.416-3.356.361-5.045M148.15 171.047l-.521-1.87-.499-1.89-.473-1.907-.451-1.924-.43-1.942-.405-1.962-.382-1.977-.359-1.992-.335-2.008-.308-2.024-.286-2.037-.262-2.055-.238-2.067-.214-2.085-.192-2.093-.164-2.108-.138-2.12-.116-2.134-.09-2.144-.066-2.153-.042-2.165-.014-2.179.009-2.188.032-2.193.059-2.204.084-2.212.108-2.222.137-2.226.157-2.235.186-2.24.21-2.25.234-2.248.258-2.258.287-2.261.308-2.267.335-2.265.361-2.272.385-2.275M148.832 175.507a18.693 18.693 0 0 0-.683-4.46M149.098 183.136l-3.927 1.452M149.098 183.136l-.267-7.63" style="fill:none;stroke:#9500ff;stroke-width:1.99999;stroke-linecap:round;stroke-linejoin:round;stroke-miterlimit:10;stroke-dasharray:none;stroke-opacity:1;visibility:visible"/><path d="m142.65 69.267.077.073.064.094.031.094-.003.1-.037.098-.07.094-.103.094-.135.089-.163.083-.189.074-.215.067-.23.057-.248.048-.26.035-.27.024-.273.013h-.273l-.267-.014-.257-.026-.246-.036-.229-.046-.205-.059-.187-.067M143.084 76.836l-.005.07-.038.098-.07.095-.103.097-.135.088-.162.08-.187.077-.215.068-.23.058-.248.048-.26.036-.268.024-.272.012h-.272l-.267-.014-.257-.025-.246-.036-.228-.047-.206-.058-.184-.07" style="fill:none;stroke:#9500ff;stroke-width:.999997;stroke-linecap:round;stroke-linejoin:round;stroke-miterlimit:10;stroke-dasharray:none;stroke-opacity:1;visibility:visible"/><path d="m135.79 68.056-.125-.063-.098-.066-.066-.075-.036-.077-.006-.08.028-.078.06-.078.092-.074.12-.07.143-.063.168-.056.187-.047.202-.036.212-.029.218-.016.224-.005.216.008.21.02.2.026.183.043.163.05.137.057.112.065.084.07.05.075.02.079-.01.079-.045.078-.074.076-.104.074-.132.066-.157.06-.177.052-.195.043-.21.03-.215.023-.222.011-.221-.001-.215-.012-.206-.024-.19-.038-.176-.044-.149-.053" style="fill:none;stroke:#9500ff;stroke-width:.666665;stroke-linecap:round;stroke-linejoin:round;stroke-miterlimit:10;stroke-dasharray:none;stroke-opacity:1;visibility:visible"/><path d="m134.674 65.741-.159-.059-.184-.048-.198-.038-.215-.031-.227-.016-.234-.004-.236.004-.235.016-.228.03-.216.038-.201.05-.187.057-.163.064-.134.074-.111.075-.084.083-.05.081M141.993 68.795l-7.32-3.053" style="fill:none;stroke:#9500ff;stroke-width:1.99999;stroke-linecap:round;stroke-linejoin:round;stroke-miterlimit:10;stroke-dasharray:none;stroke-opacity:1;visibility:visible"/><path d="m138.964 70.157-7.315-3.067M140.731 78.575l.612.01M129.103 73.646l11.628 4.927" style="fill:none;stroke:#9500ff;stroke-width:.999997;stroke-linecap:round;stroke-linejoin:round;stroke-miterlimit:10;stroke-dasharray:none;stroke-opacity:1;visibility:visible"/><path d="m129.173 73.426 2.243-.701M129.173 73.426l-.07.22M143.058 76.059l2.399 1.012M145.393 77.293l.064-.223" style="fill:none;stroke:#9500ff;stroke-width:1.99999;stroke-linecap:round;stroke-linejoin:round;stroke-miterlimit:10;stroke-dasharray:none;stroke-opacity:1;visibility:visible"/><path d="M131.458 73.885a.62.62 0 0 0 .472.46M141.024 86.645l-.293-8.072" style="fill:none;stroke:#9500ff;stroke-width:.999997;stroke-linecap:round;stroke-linejoin:round;stroke-miterlimit:10;stroke-dasharray:none;stroke-opacity:1;visibility:visible"/><path d="m129.103 73.646.316 8.021" style="fill:none;stroke:#9500ff;stroke-width:1.99999;stroke-linecap:round;stroke-linejoin:round;stroke-miterlimit:10;stroke-dasharray:none;stroke-opacity:1;visibility:visible"/><path d="m143.8 173.7-.528-1.881-.504-1.903-.484-1.916-.46-1.939-.44-1.952-.415-1.969-.39-1.988-.367-2.003-.348-2.02-.32-2.032-.3-2.048-.275-2.065-.25-2.079-.224-2.09-.206-2.106-.178-2.118-.155-2.134-.128-2.14-.11-2.154-.08-2.167-.058-2.176-.03-2.188-.009-2.197.015-2.207.044-2.216.063-2.224.09-2.23.115-2.24.14-2.249.164-2.252.19-2.26.215-2.269.239-2.27.261-2.274.29-2.281.312-2.284.338-2.285.363-2.291.387-2.292" style="fill:none;stroke:#9500ff;stroke-width:.999997;stroke-linecap:round;stroke-linejoin:round;stroke-miterlimit:10;stroke-dasharray:none;stroke-opacity:1;visibility:visible"/><path d="m129.173 85.31-.379 2.276-.356 2.273-.329 2.274-.307 2.268-.281 2.268-.257 2.261-.231 2.255-.21 2.253-.18 2.244-.158 2.24-.132 2.235-.11 2.225-.083 2.219-.06 2.21-.034 2.199-.009 2.196.015 2.184.038 2.172.063 2.164.087 2.155.112 2.142.138 2.132.162 2.118.184 2.105.208 2.093.234 2.082.256 2.064.28 2.054.304 2.039.327 2.021.35 2.008.375 1.992.398 1.977.42 1.96.444 1.946.466 1.925.488 1.91.51 1.889.534 1.873" style="fill:none;stroke:#9500ff;stroke-width:1.99999;stroke-linecap:round;stroke-linejoin:round;stroke-miterlimit:10;stroke-dasharray:none;stroke-opacity:1;visibility:visible"/><path d="M140.765 90.313a17.6 17.6 0 0 0 .259-3.666" style="fill:none;stroke:#9500ff;stroke-width:.999997;stroke-linecap:round;stroke-linejoin:round;stroke-miterlimit:10;stroke-dasharray:none;stroke-opacity:1;visibility:visible"/><path d="M129.173 85.312c.21-1.204.293-2.424.248-3.642M131.65 67.09l-.156-.075-.127-.081-.094-.09-.064-.091-.03-.096.006-.095.041-.099.07-.094.034-.03" style="fill:none;stroke:#9500ff;stroke-width:1.99999;stroke-linecap:round;stroke-linejoin:round;stroke-miterlimit:10;stroke-dasharray:none;stroke-opacity:1;visibility:visible"/><path d="M144.301 176.939a13.512 13.512 0 0 0-.5-3.239" style="fill:none;stroke:#9500ff;stroke-width:.999997;stroke-linecap:round;stroke-linejoin:round;stroke-miterlimit:10;stroke-dasharray:none;stroke-opacity:1;visibility:visible"/><path d="M132.957 171.433a13.24 13.24 0 0 0-.508-3.22" style="fill:none;stroke:#9500ff;stroke-width:1.99999;stroke-linecap:round;stroke-linejoin:round;stroke-miterlimit:10;stroke-dasharray:none;stroke-opacity:1;visibility:visible"/><path d="m144.579 184.579-.277-7.64" style="fill:none;stroke:#9500ff;stroke-width:.999997;stroke-linecap:round;stroke-linejoin:round;stroke-miterlimit:10;stroke-dasharray:none;stroke-opacity:1;visibility:visible"/><path d="m145.171 184.587-.592-.01M132.958 171.431l.301 7.597M133.258 179.03l11.32 5.55M143.365 190.138l.18.079.2.061.221.057.238.043.249.028.26.013.263.002.262-.015.263-.027.25-.041.24-.055.225-.064.205-.076.183-.088.156-.094.132-.1.097-.106.07-.11.033-.111.005-.079M136.269 186.632l7.096 3.507M135.81 186.11a.681.681 0 0 0 .46.526M149.098 183.136l-2.196.812M133.26 179.028l2.32 1.139" style="fill:none;stroke:#9500ff;stroke-width:1.99999;stroke-linecap:round;stroke-linejoin:round;stroke-miterlimit:10;stroke-dasharray:none;stroke-opacity:1;visibility:visible"/><path d="m140.731 78.573-1.5-1.136" style="fill:none;stroke:#9500ff;stroke-width:.999997;stroke-linecap:round;stroke-linejoin:round;stroke-miterlimit:10;stroke-dasharray:none;stroke-opacity:1;visibility:visible"/><path d="m134.673 65.742 1.117 2.314M134.674 65.741l1.116 2.315" style="fill:none;stroke:#9500ff;stroke-width:.666665;stroke-linecap:round;stroke-linejoin:round;stroke-miterlimit:10;stroke-dasharray:none;stroke-opacity:1;visibility:visible"/><path d="m141.343 78.584-9.927-5.86" style="fill:none;stroke:#9500ff;stroke-width:1.99999;stroke-linecap:round;stroke-linejoin:round;stroke-miterlimit:10;stroke-dasharray:none;stroke-opacity:1;visibility:visible"/><path d="m168.973 80.262-.416-.339M169.368 87.948l-.21-7.376M157.752 76.85l-.393.359M157.195 77.521l.233 7.35M172.624 202.043l-.159-5.544M160.85 192.558l.192 6.003" style="fill:none;stroke:#ffdf00;stroke-width:1.99999;stroke-linecap:round;stroke-linejoin:round;stroke-miterlimit:10;stroke-dasharray:none;stroke-opacity:1;visibility:visible"/><path d="m167.666 89.741 4.065-1.335" style="fill:none;stroke:#ffdf00;stroke-width:.999997;stroke-linecap:round;stroke-linejoin:round;stroke-miterlimit:10;stroke-dasharray:none;stroke-opacity:1;visibility:visible"/><path d="m171.959 96.573-.228-8.167M171.562 101.693a25.253 25.253 0 0 0 .396-5.118M173.855 183.401l-.508-1.89-.487-1.913-.462-1.928-.439-1.946-.415-1.963-.392-1.985-.37-2-.344-2.015-.322-2.035-.297-2.046-.27-2.064-.251-2.076-.224-2.098-.2-2.109-.176-2.12-.15-2.135-.126-2.149-.103-2.159-.075-2.174-.052-2.182-.025-2.196-.003-2.204.024-2.214.05-2.227.073-2.233.1-2.244.124-2.25.15-2.257.174-2.27.2-2.273.225-2.278.25-2.281.276-2.29.301-2.294.327-2.3.349-2.3.375-2.306.401-2.305M174.506 187.915a18.91 18.91 0 0 0-.652-4.512M174.723 195.64l-3.941 1.5M174.723 195.64l-.217-7.728" style="fill:none;stroke:#ffdf00;stroke-width:1.99999;stroke-linecap:round;stroke-linejoin:round;stroke-miterlimit:10;stroke-dasharray:none;stroke-opacity:1;visibility:visible"/><path d="m168.973 80.262.075.072.069.095.035.098.001.1-.035.106-.066.097-.102.095-.133.09-.163.087-.189.077-.213.068-.234.06-.25.05-.264.037-.272.024-.278.012h-.276l-.272-.013-.264-.023-.25-.043-.232-.046-.215-.06-.192-.067M169.368 87.948l-.004.057-.033.102-.07.098-.1.1-.133.091-.161.085-.19.079-.212.07-.234.06-.25.05-.262.036-.272.027-.275.012-.276-.003-.273-.01-.263-.027-.25-.038-.234-.049-.213-.06-.19-.07" style="fill:none;stroke:#ffdf00;stroke-width:.999997;stroke-linecap:round;stroke-linejoin:round;stroke-miterlimit:10;stroke-dasharray:none;stroke-opacity:1;visibility:visible"/><path d="m161.962 79.013-.13-.065-.102-.071-.072-.075-.039-.081-.008-.079.027-.082.056-.08.09-.078.118-.074.144-.064.168-.056.19-.052.202-.038.217-.026.222-.018.224-.004.222.008.216.019.202.03.186.04.17.051.141.06.116.068.087.074.056.077.025.081-.01.08-.04.083-.074.079-.104.076-.13.068-.157.061-.18.055-.197.044-.21.032-.22.024-.223.012-.226-.003-.218-.013-.211-.024-.195-.038-.177-.046-.156-.055" style="fill:none;stroke:#ffdf00;stroke-width:.666665;stroke-linecap:round;stroke-linejoin:round;stroke-miterlimit:10;stroke-dasharray:none;stroke-opacity:1;visibility:visible"/><path d="m160.732 76.617-.164-.059-.188-.05-.204-.039-.221-.03-.23-.017-.237-.005-.24.005-.237.018-.23.029-.22.039-.204.05-.185.059-.163.068-.137.072-.11.081-.078.084M168.299 79.776l-7.565-3.159" style="fill:none;stroke:#ffdf00;stroke-width:1.99999;stroke-linecap:round;stroke-linejoin:round;stroke-miterlimit:10;stroke-dasharray:none;stroke-opacity:1;visibility:visible"/><path d="m165.255 81.176-7.56-3.17M167.282 97.91l-.237-8.179M167.045 89.732l.621.01M155.025 84.636l12.02 5.096" style="fill:none;stroke:#ffdf00;stroke-width:.999997;stroke-linecap:round;stroke-linejoin:round;stroke-miterlimit:10;stroke-dasharray:none;stroke-opacity:1;visibility:visible"/><path d="m155.087 84.41 2.305-.747M155.087 84.41l-.061.225M169.344 87.146l2.444 1.03M171.731 88.407l.056-.23" style="fill:none;stroke:#ffdf00;stroke-width:1.99999;stroke-linecap:round;stroke-linejoin:round;stroke-miterlimit:10;stroke-dasharray:none;stroke-opacity:1;visibility:visible"/><path d="M157.426 84.87a.668.668 0 0 0 .498.49" style="fill:none;stroke:#ffdf00;stroke-width:.999997;stroke-linecap:round;stroke-linejoin:round;stroke-miterlimit:10;stroke-dasharray:none;stroke-opacity:1;visibility:visible"/><path d="m155.025 84.636.264 8.13" style="fill:none;stroke:#ffdf00;stroke-width:1.99999;stroke-linecap:round;stroke-linejoin:round;stroke-miterlimit:10;stroke-dasharray:none;stroke-opacity:1;visibility:visible"/><path d="m169.475 186.118-.517-1.907-.492-1.918-.471-1.94-.45-1.958-.425-1.976-.401-1.994-.381-2.01-.354-2.026-.332-2.043-.31-2.059-.284-2.076-.26-2.088-.239-2.104-.213-2.118-.187-2.132-.164-2.144-.141-2.159-.118-2.17-.09-2.183-.067-2.195-.044-2.207-.019-2.216.01-2.226.03-2.236.058-2.246.08-2.254.105-2.264.13-2.27.155-2.28.182-2.286.204-2.29.229-2.298.253-2.305.279-2.307.305-2.313.328-2.318.355-2.321.377-2.323.404-2.326" style="fill:none;stroke:#ffdf00;stroke-width:.999997;stroke-linecap:round;stroke-linejoin:round;stroke-miterlimit:10;stroke-dasharray:none;stroke-opacity:1;visibility:visible"/><path d="m155.016 96.461-.395 2.31-.37 2.309-.346 2.305-.322 2.303-.296 2.298-.272 2.292-.247 2.291-.224 2.283-.196 2.276-.173 2.27-.15 2.263-.122 2.259-.099 2.249-.073 2.241-.05 2.23-.025 2.225v2.213l.025 2.203.05 2.192.073 2.183.099 2.166.122 2.16.148 2.146.171 2.133.197 2.119.219 2.108.241 2.092.267 2.076.292 2.062.317 2.048.335 2.034.363 2.015.385 2 .41 1.982.427 1.966.455 1.948.477 1.93.499 1.91.521 1.894" style="fill:none;stroke:#ffdf00;stroke-width:1.99999;stroke-linecap:round;stroke-linejoin:round;stroke-miterlimit:10;stroke-dasharray:none;stroke-opacity:1;visibility:visible"/><path d="M167 101.632a18.1 18.1 0 0 0 .282-3.72" style="fill:none;stroke:#ffdf00;stroke-width:.999997;stroke-linecap:round;stroke-linejoin:round;stroke-miterlimit:10;stroke-dasharray:none;stroke-opacity:1;visibility:visible"/><path d="M155.016 96.463c.218-1.22.309-2.459.272-3.696" style="fill:none;stroke:#ffdf00;stroke-width:1.99999;stroke-linecap:round;stroke-linejoin:round;stroke-miterlimit:10;stroke-dasharray:none;stroke-opacity:1;visibility:visible"/><path d="m157.693 78.005-.161-.079-.132-.082-.1-.091-.068-.095-.035-.098.001-.1.038-.102.068-.098.053-.052M169.952 189.393a13.732 13.732 0 0 0-.478-3.273" style="fill:none;stroke:#ffdf00;stroke-width:.999997;stroke-linecap:round;stroke-linejoin:round;stroke-miterlimit:10;stroke-dasharray:none;stroke-opacity:1;visibility:visible"/><path d="M158.24 183.707a13.528 13.528 0 0 0-.49-3.258" style="fill:none;stroke:#ffdf00;stroke-width:1.99999;stroke-linecap:round;stroke-linejoin:round;stroke-miterlimit:10;stroke-dasharray:none;stroke-opacity:1;visibility:visible"/><path d="m170.18 197.13-.227-7.739" style="fill:none;stroke:#ffdf00;stroke-width:.999997;stroke-linecap:round;stroke-linejoin:round;stroke-miterlimit:10;stroke-dasharray:none;stroke-opacity:1;visibility:visible"/><path d="m170.782 197.14-.603-.012M158.239 183.705l.25 7.695M158.489 191.399l11.69 5.73M168.853 202.735l.185.081.206.064.226.058.244.045.254.028.264.016h.266l.271-.015.26-.028.255-.044.242-.054.226-.068.205-.079.183-.087.157-.1.13-.102.094-.112.068-.112.03-.116.005-.068M161.527 199.113l7.328 3.621M161.042 198.561a.717.717 0 0 0 .484.552M170.18 197.13l2.285-.631M158.488 191.4l2.362 1.158" style="fill:none;stroke:#ffdf00;stroke-width:1.99999;stroke-linecap:round;stroke-linejoin:round;stroke-miterlimit:10;stroke-dasharray:none;stroke-opacity:1;visibility:visible"/><path d="m167.045 89.732-1.572-1.175" style="fill:none;stroke:#ffdf00;stroke-width:.999997;stroke-linecap:round;stroke-linejoin:round;stroke-miterlimit:10;stroke-dasharray:none;stroke-opacity:1;visibility:visible"/><path d="m160.734 76.617 1.228 2.396M160.732 76.617l1.23 2.396" style="fill:none;stroke:#ffdf00;stroke-width:.666665;stroke-linecap:round;stroke-linejoin:round;stroke-miterlimit:10;stroke-dasharray:none;stroke-opacity:1;visibility:visible"/><path d="m167.666 89.741-10.274-6.078" style="fill:none;stroke:#ffdf00;stroke-width:1.99999;stroke-linecap:round;stroke-linejoin:round;stroke-miterlimit:10;stroke-dasharray:none;stroke-opacity:1;visibility:visible"/></svg>