<svg xmlns="http://www.w3.org/2000/svg" baseProfile="full" height="1122.52" preserveAspectRatio="xMinYMin meet" style="width:912px;height:1303px" width="793.701" xml:space="preserve"><path d="M622.044 713.028v.922l-.032.923-.082.923-.129.922-.177.922-.212.922-.258.923-.308.923-.356.906-.405.907-.435.905-.488.907-.532.907-.585.906-.613.89-.68.89-.696.874-.762.874-.809.876-.841.872M531.261 667.03l2.234.227 2.217.259 2.217.258 2.202.292 2.185.307 2.168.324 2.153.34 2.153.34 2.12.373 2.103.403 2.088.405 2.072.422 2.057.436 2.038.453 2.007.471 1.99.484 1.959.502 1.943.518 1.926.534 1.892.55 1.862.55 1.846.583 1.812.6 1.78.597 1.765.616 1.731.648 1.7.648 1.667.662 1.635.664 1.602.696 1.57.696 1.539.712 1.503.728 1.474.745 1.439.744 1.393.761 1.36.776 1.326.778 1.296.793 1.245.81 1.215.808 1.165.826 1.132.841 1.086.843 1.05.84 1.004.875.971.857.923.875.874.89M428.146 676.548l1.764-.599 1.797-.567 1.812-.566 1.861-.55 1.878-.535 1.892-.502 1.928-.501 1.958-.486 1.975-.469 1.989-.453 2.025-.438 2.039-.42 2.056-.405 2.07-.387 2.105-.357 2.121-.356 2.119-.34 2.153-.324 2.17-.292 2.168-.29 2.2-.261 2.203-.24 2.216-.245 2.235-.21 2.233-.193 2.25-.18 2.265-.16 2.267-.147 2.265-.113 2.283-.112 2.281-.08 2.299-.066M518.992 648.53l2.428.147 2.412.146 2.395.16 2.396.181 2.396.208 2.378.21 2.379.244 2.363.259 2.348.259 2.346.29 2.315.31 2.315.321 2.313.342 2.283.356 2.266.372 2.25.388 2.249.405 2.216.42 2.203.452 2.167.455 2.17.469 2.136.485 2.12.503 2.104.517 2.072.534 2.056.549 2.022.568 2.009.582 1.974.6 1.942.598 1.925.632 1.895.63 1.86.664 1.847.664 1.795.68 1.78.695 1.748.696 1.716.729 1.667.73 1.65.741 1.62.763 1.569.76 1.553.793 1.506.793 1.474.792 1.44.828 1.392.824 1.36.842 1.326.841 1.28.857 1.243.876 1.216.872 1.15.875 1.13.907 1.087.905 1.036.907.988.922.952.923.91.939.872.938.826.956.776.956.73.954.694.97.632.971.6.972.548.987.502.988.454.986.421 1.004.356.988.309 1.003.274 1.003M405.292 687.18l1.198-.744 1.214-.728 1.246-.728 1.294-.73 1.328-.696 1.343-.696 1.392-.696 1.425-.662 1.44-.664 1.488-.648 1.506-.648 1.538-.614 1.57-.616 1.586-.598 1.635-.599 1.65-.567M395.938 729.034l-.859-.922-.808-.907-.761-.921-.712-.94-.664-.939-.615-.923-.583-.952-.518-.94-.47-.956-.42-.938-.388-.956-.324-.955-.274-.953-.228-.956-.194-.956-.129-.969-.081-.956-.05-.955.018-.955.064-.955.097-.954.161-.939.195-.955.26-.94.29-.952.341-.924.404-.938" style="fill:none;stroke:red;stroke-width:.999997;stroke-linecap:round;stroke-linejoin:round;stroke-miterlimit:4;stroke-dasharray:none;stroke-opacity:1;visibility:visible"/><path d="m488.176 752.454-2.605-.161-2.591-.179-2.572-.21-2.573-.227-2.558-.243-2.557-.274-2.525-.291-2.526-.309-2.507-.323-2.479-.34-2.475-.372-2.444-.372-2.444-.405-2.41-.436-2.38-.438-2.38-.453-2.345-.485-2.315-.503-2.3-.501-2.263-.534-2.251-.55-2.201-.568-2.201-.582-2.154-.598-2.12-.616-2.104-.631-2.054-.648-2.04-.663-1.992-.68-1.958-.696-1.926-.712-1.894-.728-1.861-.728-1.812-.761-1.78-.76-1.748-.777-1.7-.794-1.667-.793-1.618-.825-1.587-.826-1.537-.825-1.506-.857-1.456-.858-1.409-.858-1.375-.891-1.328-.89-1.277-.889-1.248-.908-1.197-.921-1.148-.923-1.102-.922-1.052-.94-1.004-.955-.97-.939-.907-.97-.873-.956-.826-.971-.777-.97-.728-.988-.68-.987-.629-.987-.585-.988-.535-.987-.484-1.004-.438-.986-.388-1.004-.34-1.003-.292-1.004-.242-1.004-.194-1.004-.145-1.003-.099-1.02-.048-1.002v-1.004" style="fill:none;stroke:red;stroke-width:1.99999;stroke-linecap:round;stroke-linejoin:round;stroke-miterlimit:4;stroke-dasharray:none;stroke-opacity:1;visibility:visible"/><path d="m488.128 754.332-2.623-.162-2.637-.194-2.605-.194-2.607-.226-2.605-.26-2.574-.259-2.573-.29-2.557-.309-2.541-.324-2.526-.338-2.508-.374-2.477-.388-2.476-.404-2.443-.421-2.428-.453-2.412-.454-2.38-.485-2.362-.485-2.331-.518-2.299-.534-2.281-.551-2.25-.583-2.235-.582-2.184-.6-2.168-.614-2.136-.632-2.104-.662-2.072-.664-2.024-.68-2.007-.696-1.975-.712-1.925-.728-1.895-.746-1.861-.76-1.812-.76-1.78-.777-1.748-.793-1.7-.81-1.667-.825-1.618-.825-1.587-.843-1.536-.857-1.49-.874-1.458-.874-1.423-.89-1.36-.89-1.326-.907-1.279-.905-1.23-.924-1.183-.938-1.149-.94-1.099-.938-1.052-.955-1.004-.955-.956-.97-.906-.972-.857-.988-.825-.987-.762-.987-.712-.988-.678-1.002-.616-.987-.584-1.021-.518-1.003-.484-1.003-.42-1.021-.39-1.003-.323-1.02-.292-1.02M377.18 687.148l.597-.972.665-.938.712-.954.745-.94.792-.939.843-.923.873-.92.923-.909.97-.905 1.004-.89 1.052-.891 1.084-.874 1.134-.873 1.181-.86 1.215-.84 1.245-.842 1.296-.825 1.327-.825 1.358-.81 1.408-.793 1.442-.777 1.472-.778 1.522-.76 1.538-.744 1.585-.745 1.619-.711 1.65-.713 1.684-.696 1.715-.696 1.732-.663 1.781-.664 1.796-.632 1.846-.63 1.86-.616 1.894-.597 1.91-.6 1.959-.566 1.958-.55 2.007-.551 2.022-.518 2.04-.518 2.072-.485 2.088-.486 2.104-.453 2.136-.453 2.152-.438 2.186-.404 2.185-.404 2.217-.39 2.218-.354 2.249-.357 2.267-.324 2.265-.323 2.299-.292 2.298-.276 2.313-.274 2.332-.243 2.347-.227 2.347-.21 2.362-.193 2.363-.179 2.38-.162 2.395-.145 2.396-.13L489 648.4l2.397-.096 2.413-.065M638.812 708.14l-.29 1.02-.358 1.002-.404 1.02-.454 1.004-.485 1.004-.55 1.003-.601 1.003-.644.988-.696.986-.746.988-.776.972-.843.971-.89.97-.937.956-.973.954-1.035.939-1.069.94-1.116.92-1.165.924-1.215.922-1.261.891-1.312.89-1.343.889-1.392.874-1.441.86-1.472.84-1.522.842-1.57.825-1.603.825-1.649.794-1.683.793-1.733.777-1.78.76-1.798.746-1.843.744-1.895.712-1.91.712-1.958.68-1.99.68-2.024.662-2.071.648-2.088.615-2.12.615-2.17.6-2.184.582-2.218.55-2.25.55-2.265.519-2.3.501-2.329.486-2.363.469-2.38.453-2.395.438-2.428.42-2.444.389-2.476.372-2.492.356-2.509.34-2.525.308-2.54.307-2.559.276-2.556.242-2.59.243-2.605.209-2.606.196-2.623.178-2.621.145-2.639.13-2.655.112-2.654.081" style="fill:none;stroke:red;stroke-width:.999997;stroke-linecap:round;stroke-linejoin:round;stroke-miterlimit:4;stroke-dasharray:none;stroke-opacity:1;visibility:visible"/><path d="m636.416 705.242-.21 1.02-.245 1.004-.291 1.004-.356 1.003-.404 1.003-.437 1.004-.501 1.004-.534.986-.6.988-.646.987-.696.97-.728.974-.795.969-.84.972-.875.955-.938.955-.987.938-1.02.923-1.085.939-1.116.922-1.166.906-1.214.89-1.262.892-1.294.889-1.36.875-1.392.858-1.44.857-1.474.825-1.52.826-1.573.825-1.616.793-1.635.794-1.7.776-1.732.777-1.764.744-1.811.73-1.846.726-1.877.713-1.927.68-1.958.68-1.991.663-2.023.648-2.056.63-2.104.618-2.12.596-2.152.583-2.185.55-2.217.551-2.251.517-2.265.519-2.3.485-2.329.47-2.347.452-2.381.438-2.393.42-2.429.406-2.444.372-2.46.356-2.476.34-2.492.308-2.525.306-2.526.276-2.557.259-2.556.227-2.575.226-2.589.194-2.59.178-2.605.146-2.622.128-2.623.114-2.621.098M519.105 648.045l2.428.13 2.412.145 2.428.18 2.395.177 2.412.194 2.379.226 2.396.227 2.362.259 2.363.26 2.364.29 2.33.292 2.332.323 2.314.34 2.297.356 2.283.373 2.265.373 2.25.403 2.234.422 2.218.437 2.2.453 2.186.47 2.152.469 2.136.501 2.12.517 2.104.535 2.056.535 2.056.565 2.023.567 2.007.599 1.958.6 1.958.614 1.91.63 1.895.65 1.86.663 1.845.662 1.797.696 1.781.696 1.748.712 1.698.728 1.684.746 1.65.744 1.621.761 1.568.776 1.553.793 1.505.794 1.474.81 1.44.823 1.392.827 1.376.841 1.328.859 1.278.856 1.246.876 1.213.873 1.165.89 1.135.905 1.085.908 1.051.904 1.003.925.954.937.923.94.875.94.841.953.793.955.744.972.696.971.648.97.615.99.567.985.517.988.47 1.004.419.987.391 1.004.323 1.003" style="fill:none;stroke:red;stroke-width:1.99999;stroke-linecap:round;stroke-linejoin:round;stroke-miterlimit:4;stroke-dasharray:none;stroke-opacity:1;visibility:visible"/><path d="m371.223 705.598-.227-1.02-.178-1.002-.146-1.02-.08-1.019-.05-1.004.018-1.02" style="fill:none;stroke:red;stroke-width:.999997;stroke-linecap:round;stroke-linejoin:round;stroke-miterlimit:4;stroke-dasharray:none;stroke-opacity:1;visibility:visible"/><path d="m374.93 686.646.664-.954.696-.97.76-.941.793-.955.841-.938.876-.923.922-.923.97-.922 1.004-.906 1.052-.89 1.1-.89 1.134-.874 1.164-.874 1.214-.858 1.263-.858 1.295-.84 1.326-.827 1.36-.809 1.408-.809 1.44-.793 1.49-.794 1.505-.777 1.555-.76 1.585-.745 1.619-.727 1.65-.729 1.684-.711 1.715-.697 1.748-.68 1.78-.664 1.797-.664 1.846-.647 1.861-.615 1.893-.616 1.927-.598 1.957-.582 1.976-.582 1.99-.55 2.04-.537 2.038-.532 2.072-.502 2.104-.503 2.12-.469 2.138-.468 2.168-.438 2.169-.435 2.201-.406 2.234-.404 2.233-.373 2.25-.372 2.265-.34 2.3-.34 2.297-.308 2.315-.291 2.33-.292 2.33-.259 2.366-.242 2.36-.227 2.381-.21 2.377-.195 2.397-.178 2.395-.161 2.41-.145 2.413-.114 2.428-.113 2.427-.081 2.428-.082M373.311 713.805l-2.088-8.207M490.54 768.138l-.68-.032-2.007-.113-2.006-.147-1.99-.145-2.01-.161-1.974-.18-1.99-.175-1.975-.212-1.975-.21-1.957-.228-1.959-.242-1.942-.243-1.925-.274-1.928-.276-1.909-.291-1.909-.309-1.894-.307-1.878-.339-1.877-.34-1.861-.34-1.846-.372-1.844-.372-1.813-.405-1.813-.39-1.796-.419-1.78-.42-1.766-.439-1.73-.452-1.732-.47-1.732-.468-1.716-.487-1.683-.502-1.684-.517-1.65-.519-1.636-.532-1.634-.551-1.603-.552-1.57-.567-1.569-.582-1.537-.582-1.522-.616-1.504-.598-1.506-.63-1.473-.648-1.457-.648-1.44-.663-1.408-.68-1.408-.696-1.36-.697-1.36-.711-1.31-.712-1.312-.745-1.278-.744-1.246-.744-1.23-.778-1.231-.793-1.197-.793-1.182-.826-1.165-.824-1.117-.842-1.1-.858-1.084-.874-1.052-.874-1.02-.906-1.004-.907-.971-.923-.939-.938-.922-.955-.874-.955-.858-.972-.826-1.002-.793-1.004-.761-1.02-.727-1.051-.713-1.053-.664-1.068-.647-1.1-.599-1.102-.566-1.116-.534-1.133-.486-1.15-.356-.921-.34-.924-.323-.938-.275-.939-.276-.955M636.545 716.46l-.292.986-.323.988-.357.971-.37.955-.407.956-.419.938-.455.923-.485.921-.501.907-.519.907-.55.874-.565.874-.6.874-.696.956-.712.938-.744.938-.778.907-.792.907-.826.889-.84.875-.877.873-.905.841-.906.842-.94.825-.97.81-1.004.808-1.035.81-1.07.81-1.082.777-1.101.777-1.134.76-1.149.745-1.181.744-1.198.728-1.214.712-1.23.696-1.262.696-1.279.68-1.376.712-1.391.68-1.425.68-1.44.68-1.473.647-1.488.648-1.505.63-1.54.632-1.551.599-1.588.598-1.585.582-1.62.568-1.649.566-1.635.534-1.668.536-1.7.516-1.699.519-1.731.484-1.749.487-1.764.469-1.78.453-1.796.454-1.83.42-1.828.42-1.846.406-1.861.389-1.846.37-1.861.373-1.876.34-1.879.34-1.909.308-1.91.323-1.925.292-1.944.275-1.957.274-1.959.26-1.958.243-1.991.227-1.975.21-1.974.194-1.991.194-1.975.162-2.006.162-2.007.146-2.008.145-2.007.113-2.021.114-2.024.08-2.024.08-2.039.067-2.023.047-2.039.05-2.024.016-2.023.016h-2.023l-2.04-.016-2.021-.032-1.167-.016" style="fill:none;stroke:red;stroke-width:1.99999;stroke-linecap:round;stroke-linejoin:round;stroke-miterlimit:4;stroke-dasharray:none;stroke-opacity:1;visibility:visible"/><path d="m500.833 768.544-12.705-14.212" style="fill:none;stroke:red;stroke-width:.999997;stroke-linecap:round;stroke-linejoin:round;stroke-miterlimit:4;stroke-dasharray:none;stroke-opacity:1;visibility:visible"/><path d="m500.833 768.544-10.293-.406M490.54 768.138l10.293.406" style="fill:none;stroke:red;stroke-width:1.99999;stroke-linecap:round;stroke-linejoin:round;stroke-miterlimit:4;stroke-dasharray:none;stroke-opacity:1;visibility:visible"/><path d="m457.94 192.73-.21.084-.36.063-.483.085-.25.024" style="fill:none;stroke:#00ff4a;stroke-width:.666665;stroke-linecap:round;stroke-linejoin:round;stroke-miterlimit:4;stroke-dasharray:none;stroke-opacity:1;visibility:visible"/><path d="m453.87 193.239-.904.06-.907.064-.926.063-.95.062-.968.064-.928.063-.926.065-.886.062-.842.064-.866.064-.597.049" style="fill:none;stroke:#00ff4a;stroke-width:.666665;stroke-linecap:round;stroke-linejoin:round;stroke-miterlimit:4;stroke-dasharray:2.77866,2.77866;stroke-dashoffset:0;stroke-opacity:1;visibility:visible"/><path d="m442.787 194.052-.063.005-.526.086-.38.062-.231.086-.085.062M457.94 196.081l-.21.084-.36.084-.483.064-.248.024" style="fill:none;stroke:#00ff4a;stroke-width:.666665;stroke-linecap:round;stroke-linejoin:round;stroke-miterlimit:4;stroke-dasharray:none;stroke-opacity:1;visibility:visible"/><path d="m453.871 196.59-.905.06-.906.063-.928.062-.948.064-.969.063-.927.064-.928.064-.885.061-.843.066-.864.062-.598.05" style="fill:none;stroke:#00ff4a;stroke-width:.666665;stroke-linecap:round;stroke-linejoin:round;stroke-miterlimit:4;stroke-dasharray:2.77866,2.77866;stroke-dashoffset:0;stroke-opacity:1;visibility:visible"/><path d="m442.787 197.402-.063.007-.526.084-.38.064-.231.084-.085.062M457.94 199.453l-.21.063-.36.084-.483.064-.254.034" style="fill:none;stroke:#00ff4a;stroke-width:.666665;stroke-linecap:round;stroke-linejoin:round;stroke-miterlimit:4;stroke-dasharray:none;stroke-opacity:1;visibility:visible"/><path d="m453.866 199.941-.9.059-.905.064-.928.064-.948.062-.97.063-.928.064-.926.063-.886.062-.842.064-.864.063-.599.05" style="fill:none;stroke:#00ff4a;stroke-width:.666665;stroke-linecap:round;stroke-linejoin:round;stroke-miterlimit:4;stroke-dasharray:2.77733,2.77733;stroke-dashoffset:0;stroke-opacity:1;visibility:visible"/><path d="m442.787 200.753-.063.007-.526.084-.38.064-.231.084-.085.064" style="fill:none;stroke:#00ff4a;stroke-width:.666665;stroke-linecap:round;stroke-linejoin:round;stroke-miterlimit:4;stroke-dasharray:none;stroke-opacity:1;visibility:visible"/><path d="M457.982 193.911v.021M457.982 197.261v.021M457.982 200.613v.021M441.502 194.353v.023" style="fill:none;stroke:#00ff4a;stroke-width:.666665;stroke-linecap:round;stroke-linejoin:round;stroke-miterlimit:4;stroke-dasharray:.0213333;stroke-dashoffset:0;stroke-opacity:1;visibility:visible"/><path d="M441.502 197.704v.043M441.502 201.055v.043" style="fill:none;stroke:#00ff4a;stroke-width:.666665;stroke-linecap:round;stroke-linejoin:round;stroke-miterlimit:4;stroke-dasharray:.0426666;stroke-dashoffset:0;stroke-opacity:1;visibility:visible"/><path d="m457.982 202.762-.043.041M457.982 199.411l-.043.043" style="fill:none;stroke:#00ff4a;stroke-width:.666665;stroke-linecap:round;stroke-linejoin:round;stroke-miterlimit:4;stroke-dasharray:.0599999;stroke-dashoffset:0;stroke-opacity:1;visibility:visible"/><path d="m457.982 196.06-.043.021M457.982 192.71l-.043.021" style="fill:none;stroke:#00ff4a;stroke-width:.666665;stroke-linecap:round;stroke-linejoin:round;stroke-miterlimit:4;stroke-dasharray:.0466666;stroke-dashoffset:0;stroke-opacity:1;visibility:visible"/><path d="m441.502 202.298.043-.041" style="fill:none;stroke:#00ff4a;stroke-width:.666665;stroke-linecap:round;stroke-linejoin:round;stroke-miterlimit:4;stroke-dasharray:.0599999;stroke-dashoffset:0;stroke-opacity:1;visibility:visible"/><path d="m441.502 198.926.043-.021M441.502 195.576l.043-.023M441.502 192.225l.043-.021" style="fill:none;stroke:#00ff4a;stroke-width:.666665;stroke-linecap:round;stroke-linejoin:round;stroke-miterlimit:4;stroke-dasharray:.0466666;stroke-dashoffset:0;stroke-opacity:1;visibility:visible"/><path d="m439.732 203.415-.043-.041.043-.064M459.752 201.73l.043-.043-.022-.042M439.732 200.065l-.043-.043.043-.062M459.752 198.379l.043-.043-.022-.042M439.732 196.714l-.043-.063.043-.042M459.752 195.027l.043-.041-.022-.043M439.732 193.363l-.043-.064.043-.041M459.752 191.676l.043-.041-.022-.043" style="fill:none;stroke:#00ff4a;stroke-width:.666665;stroke-linecap:round;stroke-linejoin:round;stroke-miterlimit:4;stroke-dasharray:none;stroke-opacity:1;visibility:visible"/><path d="M457.982 192.71v1.201M457.982 196.06v1.201M457.982 199.411v1.201M441.502 194.375v1.2" style="fill:none;stroke:#00ff4a;stroke-width:.666665;stroke-linecap:round;stroke-linejoin:round;stroke-miterlimit:4;stroke-dasharray:1.20133;stroke-dashoffset:0;stroke-opacity:1;visibility:visible"/><path d="M441.502 197.747v1.18" style="fill:none;stroke:#00ff4a;stroke-width:.666665;stroke-linecap:round;stroke-linejoin:round;stroke-miterlimit:4;stroke-dasharray:1.18;stroke-dashoffset:0;stroke-opacity:1;visibility:visible"/><path d="M441.502 201.097v1.201" style="fill:none;stroke:#00ff4a;stroke-width:.666665;stroke-linecap:round;stroke-linejoin:round;stroke-miterlimit:4;stroke-dasharray:1.20133;stroke-dashoffset:0;stroke-opacity:1;visibility:visible"/><path d="m441.502 201.097-.316-.19-.359-.21-.357-.21-.38-.213-.359-.209M441.502 197.747l-.316-.19-.359-.21-.357-.21-.38-.213-.359-.21" style="fill:none;stroke:#00ff4a;stroke-width:.666665;stroke-linecap:round;stroke-linejoin:round;stroke-miterlimit:4;stroke-dasharray:2.04933;stroke-dashoffset:0;stroke-opacity:1;visibility:visible"/><path d="m441.502 194.375-.316-.17-.359-.21-.357-.21-.38-.211-.359-.211" style="fill:none;stroke:#00ff4a;stroke-width:.666665;stroke-linecap:round;stroke-linejoin:round;stroke-miterlimit:4;stroke-dasharray:2.03866;stroke-dashoffset:0;stroke-opacity:1;visibility:visible"/><path d="m459.752 201.73-.359.21-.357.233-.38.209-.357.21-.318.17M459.752 198.379l-.359.21-.357.21-.38.212-.357.23-.318.17" style="fill:none;stroke:#00ff4a;stroke-width:.666665;stroke-linecap:round;stroke-linejoin:round;stroke-miterlimit:4;stroke-dasharray:2.05066;stroke-dashoffset:0;stroke-opacity:1;visibility:visible"/><path d="m459.752 195.027-.359.21-.357.211-.38.211-.357.21-.318.19M459.752 191.676l-.359.21-.357.211-.38.211-.357.21-.318.19" style="fill:none;stroke:#00ff4a;stroke-width:.666665;stroke-linecap:round;stroke-linejoin:round;stroke-miterlimit:4;stroke-dasharray:2.04933;stroke-dashoffset:0;stroke-opacity:1;visibility:visible"/><path d="m439.732 203.31.359-.21.358-.211.379-.211.357-.21.318-.169" style="fill:none;stroke:#00ff4a;stroke-width:.666665;stroke-linecap:round;stroke-linejoin:round;stroke-miterlimit:4;stroke-dasharray:2.03866;stroke-dashoffset:0;stroke-opacity:1;visibility:visible"/><path d="m439.732 199.96.359-.21.358-.211.379-.211.357-.21.318-.19M439.732 196.608l.359-.21.358-.211.379-.211.357-.21.318-.19M439.732 193.258l.359-.21.358-.211.379-.212.357-.211.318-.19" style="fill:none;stroke:#00ff4a;stroke-width:.666665;stroke-linecap:round;stroke-linejoin:round;stroke-miterlimit:4;stroke-dasharray:2.04933;stroke-dashoffset:0;stroke-opacity:1;visibility:visible"/><path d="m457.982 200.613.316.19.379.21.36.21.357.213.38.209M457.982 197.261l.316.19.379.211.36.21.357.21.38.211M457.982 193.911l.316.168.379.232.36.21.357.211.38.211" style="fill:none;stroke:#00ff4a;stroke-width:.666665;stroke-linecap:round;stroke-linejoin:round;stroke-miterlimit:4;stroke-dasharray:2.06799;stroke-dashoffset:0;stroke-opacity:1;visibility:visible"/><path d="m685.893 275.546.453.114.486.097.517.096.55.081.568.081.583.048.598.05.614.016.616.016h.615l.615-.016.598-.032.6-.05.566-.064.55-.065.534-.097.486-.098.47-.096.437-.13.388-.13.356-.145.292-.145.259-.147.21-.16.162-.163.113-.177.065-.163v-.177l-.05-.18-.095-.16-.147-.163-.194-.16-.26-.165-.29-.159-.341-.147-.37-.129-.423-.131-.452-.113-.502-.096-.518-.097-.534-.08-.566-.083-.583-.047-.599-.033-.616-.033-.598-.014h-.616l-.614.014-.6.033-.582.048-.584.066-.55.064-.516.097-.502.098-.47.097-.421.13-.388.127-.356.131-.307.145-.26.163-.209.161-.163.161-.113.163-.064.177v.18l.032.159.096.181.147.159.193.164.26.162.29.145.341.145.373.147.42.13M692.852 278.217l-.114.097-.178.064-.21.065-.244.064-.274.05-.292.032-.323.016h-.632l-.307-.032-.308-.033-.274-.05-.243-.063-.21-.065-.163-.081-.114-.081M693.354 278.62l-.032-.096-.081-.098M688.693 278.185l-.081.081-.032.08" style="fill:none;stroke:#00ff4a;stroke-width:.999997;stroke-linecap:round;stroke-linejoin:round;stroke-miterlimit:4;stroke-dasharray:none;stroke-opacity:1;visibility:visible"/><path d="m693.112 278.2-.275.034-.437.015-.422.016-.436.017h-.858l-.436-.017-.438-.016-.42-.016-.421-.033-.259-.015" style="fill:none;stroke:#00ff4a;stroke-width:.999997;stroke-linecap:round;stroke-linejoin:round;stroke-miterlimit:4;stroke-dasharray:none;stroke-opacity:1;visibility:visible"/><path d="m688.418 278.151.064.114.13.097.163.096.21.099.243.08.29.081.308.065.34.064.356.05.356.016.356.016.374.016.338-.016.324-.032.308-.05.275-.047.227-.066.194-.081.146-.08.097-.098.048-.097v-.097l-.065-.114M510.333 227.752l-.049-.048-.08-.05M683.789 277.02l-.243.144-.176.162-.148.164-.08.176-.032.179v.177l.064.179.13.178.161.178.21.178.261.178.305.177.357.163.388.161.422.163" style="fill:none;stroke:#00ff4a;stroke-width:.999997;stroke-linecap:round;stroke-linejoin:round;stroke-miterlimit:4;stroke-dasharray:none;stroke-opacity:1;visibility:visible"/><path d="m685.408 279.575.469.13.503.145.517.13.55.113.583.097.6.097.598.066.614.064.63.065.634.032.629.016.634.016.613-.016.599-.016.583-.032.566-.048.55-.064.519-.067.485-.097.436-.096.422-.115.372-.129.324-.128.29-.147.245-.145.193-.163.146-.16.097-.163.048-.178-.017-.179-.047-.177-.113-.179-.146-.177-.21-.179-.244-.177-.291-.179-.34-.16M505.9 227.364l-.113.08-.067.066-.015.08.016.08.082.066.13.064.161.065.211.064.241.05.274.031.31.034.323.032h1.003l.34-.018.325-.03.307-.034.276-.048.243-.065.21-.048.159-.065.132-.082.064-.064.032-.081-.014-.064-.066-.081-.113-.064-.146-.066M502.047 226.797l-.324.097-.259.114-.243.129-.178.113-.146.13-.097.129-.064.113v.13l.032.128.082.13.13.116.16.112.227.13.242.096.308.113.324.097.372.098" style="fill:none;stroke:#00ff4a;stroke-width:.999997;stroke-linecap:round;stroke-linejoin:round;stroke-miterlimit:4;stroke-dasharray:none;stroke-opacity:1;visibility:visible"/><path d="m502.613 228.772.42.08.454.098.486.064.518.066.534.048.566.049.582.032.583.031.6.017h.599l.614-.017.601-.016.58-.031.599-.033.567-.05.55-.061.519-.067.502-.081.485-.081.438-.096.403-.114.372-.097.325-.113.274-.13.244-.113.193-.13.146-.128.097-.131.05-.129v-.131l-.051-.128-.096-.13-.147-.13-.192-.111-.244-.131-.274-.113-.325-.097-.372-.098M501.545 759.788h-.225l-.228-.016M633.696 712.801l-.243.177-.243.179-.242.145-.243.13-.227.097-.226.097-.21.064-.229.066-.371.081-.372.047h-.324l-.308-.031-.145-.032-.145-.033-.13-.064-.128-.066-.114-.08-.082-.113-.064-.113-.033-.132M502.273 761.908l-.598-.016-.616-.016M490.783 761.42l-.29-.063-.278-.099-.242-.096-.242-.112-.211-.114-.21-.13-.178-.145-.179-.163-.177-.193-.146-.195-.146-.244-.13-.258M488.355 759.609h-.05" style="fill:none;stroke:#00ff4a;stroke-width:.999997;stroke-linecap:round;stroke-linejoin:round;stroke-miterlimit:4;stroke-dasharray:none;stroke-opacity:1;visibility:visible"/><path d="m490.815 759.382-1.295-.081-1.312-.081" style="fill:none;stroke:#00ff4a;stroke-width:1.99999;stroke-linecap:round;stroke-linejoin:round;stroke-miterlimit:4;stroke-dasharray:none;stroke-opacity:1;visibility:visible"/><path d="m488.743 762.068.257.405.293.372.291.307.308.292.372.29.437.292M488.355 759.609v.113l.015.114" style="fill:none;stroke:#00ff4a;stroke-width:.999997;stroke-linecap:round;stroke-linejoin:round;stroke-miterlimit:4;stroke-dasharray:none;stroke-opacity:1;visibility:visible"/><path d="m488.176 752.454-.048 1.878M488.145 758.412l.032-5.956" style="fill:none;stroke:#00ff4a;stroke-width:1.99999;stroke-linecap:round;stroke-linejoin:round;stroke-miterlimit:4;stroke-dasharray:none;stroke-opacity:1;visibility:visible"/><path d="m637.694 705.55-1.278-.308M517.73 754.753l.018-1.861M488.128 754.332l-.016 5.406M488.112 759.738l.016.42.048.39.081.357.114.355.145.389.228.42M488.372 759.836l-.081-.26-.048-.242-.05-.226-.032-.211-.016-.227v-.258M635.444 708.82l-.032.08-.016.081-.016.081-.034.064-.016.082-.016.097M636.416 705.242l-.972 3.578M517.745 752.892l-.048 3.852M517.699 756.744v.242l-.016.227-.034.21-.016.212-.048.226-.049.243M488.112 759.738l.032-1.326M517.699 758.072v-1.328" style="fill:none;stroke:#00ff4a;stroke-width:.999997;stroke-linecap:round;stroke-linejoin:round;stroke-miterlimit:4;stroke-dasharray:none;stroke-opacity:1;visibility:visible"/><path d="m517.244 760.337.145-.421.114-.372.081-.356.05-.34.046-.372.017-.404.033-3.32" style="fill:none;stroke:#00ff4a;stroke-width:.999997;stroke-linecap:round;stroke-linejoin:round;stroke-miterlimit:4;stroke-dasharray:none;stroke-opacity:1;visibility:visible"/><path d="m690.668 456.042.276-.146.274-.162.227-.146.195-.145.177-.13.13-.096.079-.082.067-.065.047-.048.033-.032M688.305 443.935l.372-.177.356-.148.356-.079.357-.065h.355l.341.049.323.08M517.65 397.484l-.244-.097-.242-.113" style="fill:none;stroke:#00ff4a;stroke-width:1.99999;stroke-linecap:round;stroke-linejoin:round;stroke-miterlimit:4;stroke-dasharray:none;stroke-opacity:1;visibility:visible"/><path d="m495.217 668.534-.08.032-.066.016M490.62 749.105v.145l.016.147M489.277 733.745v.145l.016.162M699.036 280.887l-.032.178-.098.178-.13.162-.193.178-.227.147-.276.144-.323.147-.372.129-.405.112-.452.115-.47.096-.518.081-.534.066-.582.063-.584.034-.614.032-.616.016h-.63l-.648-.016-.648-.032-.631-.05-.647-.047-.632-.08-.614-.084-.6-.097-.582-.112-.55-.113-.534-.13-.486-.147-.47-.144-.42-.163-.388-.16-.357-.18-.307-.16-.26-.195-.209-.178-.163-.179-.113-.177-.064-.195-.016-.176M499.181 728.825l-.016-.517.032-.519.066-.517" style="fill:none;stroke:#00ff4a;stroke-width:.999997;stroke-linecap:round;stroke-linejoin:round;stroke-miterlimit:4;stroke-dasharray:none;stroke-opacity:1;visibility:visible"/><path d="m515.577 725.976-1.181-17.886" style="fill:none;stroke:#00ff4a;stroke-width:1.99999;stroke-linecap:round;stroke-linejoin:round;stroke-miterlimit:4;stroke-dasharray:none;stroke-opacity:1;visibility:visible"/><path d="m476.232 345.514.47.145.499.146.553.129.566.113.6.098.629.08.632.067.647.031.664.032.648.016h.663l.647-.031.647-.033.615-.065.616-.064.567-.098.55-.097.517-.13.486-.127.437-.148.405-.161.34-.18.307-.175.243-.182.21-.19.13-.212.097-.195.033-.21-.017-.21-.08-.21-.131-.195-.194-.21-.243-.195-.29-.194-.34-.178-.39-.178-.42-.161-.469-.147-.516-.145-.536-.13-.567-.112-.597-.081-.617-.081-.647-.065-.646-.048-.649-.034-.648-.016h-.663l-.647.032-.633.035-.63.063-.6.065-.58.097-.535.098-.518.129-.487.13-.436.144-.404.162-.34.162-.308.178-.259.195-.193.194-.147.194-.097.209-.032.211.016.197.081.208.13.21.177.196.243.209.292.179.34.194.372.161.437.179M483.11 348.655l-.29.065-.324.033-.34.016h-.34l-.356-.016-.34-.034-.308-.048-.307-.065" style="fill:none;stroke:#00ff4a;stroke-width:.999997;stroke-linecap:round;stroke-linejoin:round;stroke-miterlimit:4;stroke-dasharray:none;stroke-opacity:1;visibility:visible"/><path d="m484.356 348.589-.21.016-.471.033-.452.016-.47.016h-.922l-.471-.016-.468-.016-.452-.033-.453-.032-.454-.048-.26-.035" style="fill:none;stroke:#00ff4a;stroke-width:.999997;stroke-linecap:round;stroke-linejoin:round;stroke-miterlimit:4;stroke-dasharray:none;stroke-opacity:1;visibility:visible"/><path d="m479.161 348.493.05.162.113.145.161.145.195.13.26.112.289.083.308.08.356.05.372.031h.372l.39-.017.372-.032.371-.064.357-.08.34-.099.306-.112.26-.145.227-.147.18-.145M474.159 352.571l.324.243.387.226.422.227.453.194.502.178.55.162.567.129.599.113.63.098.648.079.664.05.68.017h.695l.696-.017.696-.048.68-.082.696-.08.664-.13.648-.129.647-.162.598-.178.583-.194.55-.21.519-.227.469-.26.436-.257.388-.26.34-.275.293-.29M269.386 279.333l1.02-.08M268.61 279.366l-1.036-.016M271.04 279.189l-.147.016-.486.05M267.574 279.349h-.421l-.211-.019M263.253 276.727l.404.098.437.097.485.08.503.065.533.064.551.05.583.032.598.016h1.198l.615-.016.615-.033.599-.05.583-.063.582-.065.551-.08.533-.097.503-.115.485-.112.439-.113.387-.13.372-.145.306-.147.276-.145.227-.145.177-.163.115-.145.08-.162.016-.162-.032-.146-.081-.145-.13-.163-.177-.129-.227-.145-.274-.13-.326-.113-.369-.113-.407-.114-.437-.08-.485-.081-.502-.082-.534-.05-.55-.047-.584-.032-.581-.016-.6-.017-.615.017-.598.016-.615.032-.6.048-.583.066-.565.065-.567.08-.517.098-.503.097-.485.113-.437.13-.405.128-.357.131-.322.143-.261.148-.225.145-.178.162-.13.146-.08.162-.017.161.017.147.08.161.13.146.178.146.226.13.276.128.323.131.373.111M270.406 279.253l-.567.047-.566.017-.566.033h-1.133M269.386 279.333l-.259.017-.26.016h-.257" style="fill:none;stroke:#00ff4a;stroke-width:.999997;stroke-linecap:round;stroke-linejoin:round;stroke-miterlimit:4;stroke-dasharray:none;stroke-opacity:1;visibility:visible"/><path d="m475.745 351.146.486.194.517.146.55.144.584.115.614.097.632.081.647.048.664.016h.68l.68-.016.68-.048.68-.065.661-.098.665-.113.631-.13.63-.159.584-.181.566-.191.535-.212.501-.227.453-.242.422-.243.372-.276.324-.276.274-.273.227-.292.161-.291.131-.292.064-.29v-.294l-.048-.288-.097-.293-.146-.275M509.945 227.282l.016.082-.016.08-.08.066-.115.08-.161.064-.194.066-.227.048-.243.049-.274.032-.292.031h-.89l-.276-.031-.258-.032-.227-.033-.195-.048-.16-.064-.115-.066-.081-.081-.032-.065.016-.08" style="fill:none;stroke:#00ff4a;stroke-width:.999997;stroke-linecap:round;stroke-linejoin:round;stroke-miterlimit:4;stroke-dasharray:none;stroke-opacity:1;visibility:visible"/><path d="m474.339 347.165-.276.275-.226.29-.162.291-.13.294-.065.291v.29l.05.292.096.275.146.29.21.261.261.26.305.241.357.227.406.21.436.195M271.491 279.3l-.049-.08-.064-.066M508.585 227.412l1.36-.13M507.517 227.445l-1.376-.065M502.953 224.952l.407.097.435.08.47.081.499.05.521.064.531.032.552.033.567.016h.582l.567-.016.583-.016.566-.033.567-.05.55-.061.517-.067.518-.081.486-.097.453-.096.421-.098.388-.13.357-.114.307-.13.275-.127.228-.147.177-.145.146-.145.081-.147.032-.145-.016-.146-.048-.13-.112-.145-.164-.131-.193-.128-.26-.13-.293-.113-.322-.113-.372-.114-.405-.08-.436-.081-.47-.081-.502-.064-.518-.05-.534-.032-.551-.032-.566-.017h-.566l-.567.017-.581.016-.568.032-.55.05-.551.064-.534.065-.5.08-.489.081-.451.098-.42.113-.407.113-.338.13-.324.128-.275.13-.228.13-.177.146-.13.146-.096.145-.032.145v.148l.065.144.112.13.145.145.21.13.244.128.291.113.324.114.372.098M509.945 227.282l-.534.05-.534.032-.55.032h-.55l-.553.016-.548-.016-.535-.016M508.585 227.412l-.274.016-.259.016h-.535" style="fill:none;stroke:#00ff4a;stroke-width:.999997;stroke-linecap:round;stroke-linejoin:round;stroke-miterlimit:4;stroke-dasharray:none;stroke-opacity:1;visibility:visible"/><path d="m266.862 279.462-.145.13-.098.115-.049.113v.113l.05.096.096.097.146.065.195.064.225.05.26.015.29.017h.326l.339-.032.34-.035.356-.063.356-.065.34-.08.324-.099.306-.112.276-.113.259-.113.195-.13.161-.129.13-.113.064-.13M583.457 691.194l-.047.016-.229.066-.21.048-.241.048-.227.033-.243.016-.243.016-.242.016h-.486l-.244-.016-.225-.032-.227-.033-.226-.032-.227-.048-.195-.048M584.688 687.245l-.032.145-.066.147-.097.145-.161.146-.177.13-.227.112-.26.114-.29.096-.31.065-.338.065-.357.048-.353.034-.375.016-.355-.016-.373-.016M580.917 688.476l-.356-.05-.34-.064-.324-.08-.29-.082-.275-.114-.227-.129-.194-.13-.162-.128-.114-.146-.065-.161-.031-.147M263.35 278.929l-.372.21-.356.211-.292.209-.275.211-.21.21-.178.212-.146.193-.082.194-.032.195v.193l.05.163.097.177.145.147.195.146.243.13.273.112.325.113.356.082" style="fill:none;stroke:#00ff4a;stroke-width:.999997;stroke-linecap:round;stroke-linejoin:round;stroke-miterlimit:4;stroke-dasharray:none;stroke-opacity:1;visibility:visible"/><path d="m263.091 282.037.406.081.436.048.486.048.502.033h.533l.567-.016.582-.017.583-.048.615-.065.616-.081.613-.097.632-.113.616-.113.615-.147.597-.145.584-.178.567-.162.533-.195.519-.193.485-.195.453-.21.422-.211.372-.226.34-.21.29-.21.243-.229.21-.208.147-.21.112-.212.05-.194v-.195l-.032-.177-.098-.177-.146-.163" style="fill:none;stroke:#00ff4a;stroke-width:.999997;stroke-linecap:round;stroke-linejoin:round;stroke-miterlimit:4;stroke-dasharray:none;stroke-opacity:1;visibility:visible"/><path d="m688.709 278.185-.243-.032-.485-.05-.471-.049-.467-.08-.438-.064-.437-.097-.404-.098-.388-.097-.374-.097-.34-.114-.274-.112-.243-.098-.243-.114-.21-.128-.195-.114-.177-.128-.163-.147-.145-.145-.114-.163-.097-.178-.048-.194-.033-.195M699.165 275.789l-.016.145-.032.146-.065.146-.082.13-.096.128-.146.162-.194.164-.21.144-.227.13-.243.112-.258.114-.276.113-.307.098-.324.097-.324.096-.356.081-.356.082-.373.063-.39.066-.401.064-.407.05-.404.03-.42.051h-.146M682.737 275.03l-.016.663" style="fill:none;stroke:#00ff4a;stroke-width:1.99999;stroke-linecap:round;stroke-linejoin:round;stroke-miterlimit:4;stroke-dasharray:none;stroke-opacity:1;visibility:visible"/><path d="m682.737 275.029.016-.194.032-.21.065-.179.082-.176.112-.163.113-.16.13-.133.131-.128.226-.179.242-.16.275-.147.292-.145.29-.113.326-.112.355-.115.356-.097.388-.097.389-.081.388-.065.404-.065.421-.064.422-.05.436-.03.437-.051.503-.014.5-.034h1.507l.501.034.484.014.486.035.47.047.47.065.452.048.438.081.42.08.421.083.39.096.371.113.356.114.34.113.324.145.29.13.31.178.274.194.242.21.21.26.181.275.063.178.065.18.032.192v.858" style="fill:none;stroke:#00ff4a;stroke-width:1.99999;stroke-linecap:round;stroke-linejoin:round;stroke-miterlimit:4;stroke-dasharray:none;stroke-opacity:1;visibility:visible"/><path d="m698.016 281.906.258-.13.227-.128.179-.146.145-.145.113-.163.066-.144.032-.163M682.64 279.949l.016.161.048.161.081.163.13.161.163.163.209.162.226.145M688.596 278.362v-.016h.016v-.032h.016v-.033h.016v-.016h.016v-.032h.017v-.016h.016v-.032h.016M693.112 278.2v.018h.016v.015l.016.016v.016h.016v.032h.017v.017l.016.016v.016h.016v.032h.016v.032h.015v.033h.018v.032h.016v.032h.016v.034h.016v.048h.016v.031h.016" style="fill:none;stroke:#00ff4a;stroke-width:.999997;stroke-linecap:round;stroke-linejoin:round;stroke-miterlimit:4;stroke-dasharray:none;stroke-opacity:1;visibility:visible"/><path d="m697.498 277.358.032.017.243.115.243.129.21.127.195.131.161.13.163.143.145.164.114.177.08.146.049.146.016.147v.16M682.753 278.135l.032-.145.032-.145.065-.13.098-.13.097-.13.161-.145.195-.145.21-.13.081-.049M699.036 280.887l.113-1.797M682.64 279.949l.113-1.814" style="fill:none;stroke:#00ff4a;stroke-width:1.99999;stroke-linecap:round;stroke-linejoin:round;stroke-miterlimit:4;stroke-dasharray:none;stroke-opacity:1;visibility:visible"/><path d="m514.607 230.536.292-.114.241-.112.212-.114.177-.114.131-.112.096-.131.065-.112.016-.131M500.444 229.758l.016.114.065.128.098.114.145.114.177.112.211.114.26.098.275.113M501.692 230.665l.356.097.388.098.437.096.47.08.485.083.519.065.55.048.565.048.583.032.6.033.599.015h.614l.599-.015.615-.016.616-.017.583-.048.582-.048.567-.05.549-.064.521-.081.481-.081.471-.098.421-.096.389-.113.356-.097" style="fill:none;stroke:#00ff4a;stroke-width:.999997;stroke-linecap:round;stroke-linejoin:round;stroke-miterlimit:4;stroke-dasharray:none;stroke-opacity:1;visibility:visible"/><path d="m513.847 226.554.063.016.293.082.29.097.26.081.227.096.21.114.193.113.162.13.131.145.096.178.033.13.016.129M500.43 228.028l.014-.13.033-.13.066-.129.081-.113.112-.113.114-.097.146-.098.161-.097.195-.096.228-.081.225-.098.21-.065M515.837 229.597l-.016-1.732M500.444 229.758l-.016-1.732" style="fill:none;stroke:#00ff4a;stroke-width:1.99999;stroke-linecap:round;stroke-linejoin:round;stroke-miterlimit:4;stroke-dasharray:none;stroke-opacity:1;visibility:visible"/><path d="m636.577 716.329-.016.065-.016.066M518.928 652.317l.064-3.786M639.313 705.922l-1.619-.372M639.313 705.922l-.145.728-.162.744-.194.746" style="fill:none;stroke:#00ff4a;stroke-width:.999997;stroke-linecap:round;stroke-linejoin:round;stroke-miterlimit:4;stroke-dasharray:none;stroke-opacity:1;visibility:visible"/><path d="m636.577 716.329 2.233-8.19" style="fill:none;stroke:#00ff4a;stroke-width:1.99999;stroke-linecap:round;stroke-linejoin:round;stroke-miterlimit:4;stroke-dasharray:none;stroke-opacity:1;visibility:visible"/><path d="M310.886 455.314h-.066l-.08-.016-.081-.048-.097-.066-.097-.064-.115-.082-.112-.096-.113-.098-.211-.226-.244-.259-.225-.308-.13-.179-.113-.177-.113-.21-.114-.211-.113-.226-.096-.226-.113-.276-.083-.291-.08-.292-.064-.307M308.426 451.655v-.032l-.016-.017v-.016M308.409 451.591l-.05-.356-.032-.356v-.73l.018-.354.032-.34.032-.357.048-.34.049-.323.048-.29.05-.31.046-.291.051-.258.048-.276.049-.258.048-.276.032-.258.05-.275.014-.243.033-.244.016-.242v-.227l-.016-.21-.032-.177" style="fill:none;stroke:#00ff4a;stroke-width:.999997;stroke-linecap:round;stroke-linejoin:round;stroke-miterlimit:4;stroke-dasharray:none;stroke-opacity:1;visibility:visible"/><path d="m690.765 443.595.81.276.775.29.778.294.745.321.727.324.697.34.68.356.663.372.632.372.614.406.599.421.535.404.5.42.503.455.469.468.437.485.421.519.34.469.323.47.292.516.259.519.242.534.21.566.147.47.113.502.097.486.064.5.033.502.016.488-.016.469-.05.468-.062.486-.082.453-.114.47-.13.453-.159.436-.181.437-.207.454-.228.453-.26.437-.275.404-.29.406-.308.388-.324.388-.324.356-.47.452-.47.438-.499.422-.537.404-.534.372-.55.372-.581.341-.599.339-.68.372-.712.341-.746.339-.76.324-.777.308-.811.29-.823.292-.842.259-.875.259-.889.242-.907.243M502.047 395.202h-.098l-.809-.016h-1.65l-.843.016-.842.016-.84.032-.843.05-.825.047-.84.05-.617.046M517.65 397.484l-.455-.144h-.031M517.083 386.074l.517.113.73.178.71.194.697.195.696.21.663.209M493.13 384.634l.68-.048.953-.066.957-.047.889-.05.891-.033.889-.015.891-.017.905-.015.891.015h.875M361.4 446.816l-.974.388-1.002.372-1.036.39-1.036.356-1.084.356-1.085.356-1.116.338-1.133.324-1.148.324-1.166.324-1.182.307-1.214.292-1.214.275-1.214.276-1.23.258-1.23.243-1.262.243-1.264.242-1.294.211-1.294.21-1.31.212-1.314.193-1.326.178-1.344.178-1.341.162-1.344.146-1.312.129-1.31.13-1.311.112-1.327.098-1.312.097-1.326.098M321.617 443.207l1.278-.081 1.279-.08 1.263-.098 1.278-.113 1.246-.13 1.262-.128 1.247-.13 1.246-.163 1.231-.144 1.213-.18 1.215-.16 1.18-.196 1.181-.193 1.166-.195 1.133-.209 1.133-.212 1.134-.227 1.1-.225 1.084-.244 1.07-.243 1.049-.258 1.038-.259 1.019-.275.986-.274.988-.276.94-.292.855-.259.827-.275.81-.274.792-.276.762-.276.76-.292.73-.289M504.475 519.843l-2.235 3.333M321.617 443.207l-12.787.777M322.346 454.634l-11.459.68M684.664 458.178l-161.252 39.265M687.414 469.508 526.26 509.146M517.65 397.484l154.226 51.906M688.385 442.802l2.379.793M521.097 387.175l151.525 50.385M361.4 446.816l115.235-47.082M357.11 436.28l118.75-47.958M501.141 506.49l.34-.225.744-.485.81-.502.841-.503.857-.485.875-.47.907-.47.938-.451.94-.437.985-.438.989-.421 1.02-.404 1.033-.404 1.071-.405 1.068-.372 1.051-.358 1.069-.338 1.068-.34 1.101-.324 1.116-.324 1.133-.308 1.15-.291 1.165-.292M526.26 509.144l-1.068.276-1.07.275-1.033.29-1.021.294-1.003.307-.988.306-.956.324-.938.324-.906.324-.89.339-.858.34-.825.356-.81.34-.759.356-.731.355-.711.358-.68.356-.646.356-.632.372-.599.356-.55.356-.535.372-.501.356-.47.356-.42.34-.405.34-.34.308-.307.307-.276.292-.259.29-.226.275-.195.26-.177.243" style="fill:none;stroke:#00ff4a;stroke-width:1.99999;stroke-linecap:round;stroke-linejoin:round;stroke-miterlimit:4;stroke-dasharray:none;stroke-opacity:1;visibility:visible"/><path d="m690.668 456.042-.226-.13-.308-.162-.34-.162-.34-.161-.389-.179-.355-.145-.389-.163-.404-.145-.308-.113M684.664 458.178l.646-.162.616-.162.599-.178.583-.178.55-.178.534-.178.5-.194.473-.194.435-.179.372-.177.357-.163.323-.177.016-.016" style="fill:none;stroke:#00ff4a;stroke-width:1.99999;stroke-linecap:round;stroke-linejoin:round;stroke-miterlimit:4;stroke-dasharray:none;stroke-opacity:1;visibility:visible"/><path d="M515.837 229.436h0M500.444 229.597h0M261.489 283.089h0M277.529 280.095h0" style="fill:none;stroke:#00ff4a;stroke-width:.999997;stroke-linecap:round;stroke-linejoin:round;stroke-miterlimit:4;stroke-dasharray:none;stroke-opacity:1;visibility:visible"/><path d="m516.305 668.534-.08.502-.099.517-.129.503-.16.484-.165.471-.192.469-.21.453-.228.437-.242.42-.308.503-.324.485-.356.47-.356.437-.388.436-.388.421-.39.388M452.019 684.105l.857-.195.81-.193.793-.195.791-.21.778-.194.746-.21.744-.228.729-.209.696-.228.695-.226.664-.227.646-.226.632-.244M467.072 695.63l-.906.34-.94.34-.953.321-.973.325-.986.308-1.004.308-1.036.29-1.035.275-1.07.276-1.066.275-1.085.242-1.1.26-1.102.225-1.052.211-1.052.211-1.084.195-1.068.177-1.085.179-1.1.161-1.101.163-.94.13M350.62 662.725l.162.792.194.793.211.794.259.793.274.793.292.794.324.776.356.777.372.777.404.744.438.76.421.714.453.712.486.696.501.678.535.682.533.662.567.664.582.647.616.632.615.599.647.598.648.568.646.566.68.533.696.519.696.517.728.485.746.486.744.453.76.437.761.422.793.404.778.372.792.356.81.356.807.308.827.308.825.29.843.26.841.242.841.212.858.21.842.177.842.146.857.145.843.114.857.081.841.081.842.048.857.032.843.018.841-.018M366.124 699.95l-.484-.178-1.07-.42-1.051-.438-1.053-.453-1.036-.484-1.019-.519-1.004-.534-1.003-.55-.988-.567-.954-.599-.955-.615-.939-.63-.922-.666-.923-.679-.89-.696-.875-.712-.858-.744-.84-.76-.827-.761-.791-.794-.778-.809-.76-.825-.746-.841-.711-.842-.68-.874-.68-.874-.647-.906-.63-.907-.602-.923-.58-.938-.551-.955-.535-.955-.502-.988-.469-.97-.451-.987-.438-1.004-.372-.97-.374-.973-.322-.97-.324-.988-.276-1.003-.259-1.004-.243-1.003-.21-1.004" style="fill:none;stroke:#00ff4a;stroke-width:1.99999;stroke-linecap:round;stroke-linejoin:round;stroke-miterlimit:4;stroke-dasharray:none;stroke-opacity:1;visibility:visible"/><path d="m495.072 668.584.145-.048" style="fill:none;stroke:#00ff4a;stroke-width:.999997;stroke-linecap:round;stroke-linejoin:round;stroke-miterlimit:4;stroke-dasharray:none;stroke-opacity:1;visibility:visible"/><path d="m467.072 695.63 29.23-11.267M461.602 681.321l33.47-12.737M384.447 687.73l47.341-1.229M518.848 609.039v.954l.016.972v1.959l.016.986v5.034l-.016 1.004v2.007l-.016.985v1.991l-.016.989-.016 1.004v.986l-.017.97-.016.971v.974l-.016.969-.017.958-.015.936-.016.939-.016.94-.034.92-.016.909-.016.904-.016.891-.031.891-.018.858-.016.857-.032.843-.016.824-.032.81-.033.792-.016.794-.032.76-.032.761-.034.729-.016.711-.032.696-.031.68-.034.664-.032.649-.032.613-.032.616-.05.581-.03.568-.033.55-.034.533-.032.502-.048.487-.033.468-.048.437-.032.422-.05.42-.046.389-.051.47" style="fill:none;stroke:#00ff4a;stroke-width:1.99999;stroke-linecap:round;stroke-linejoin:round;stroke-miterlimit:4;stroke-dasharray:none;stroke-opacity:1;visibility:visible"/><path d="m516.305 668.534.146-1.068" style="fill:none;stroke:#00ff4a;stroke-width:.999997;stroke-linecap:round;stroke-linejoin:round;stroke-miterlimit:4;stroke-dasharray:none;stroke-opacity:1;visibility:visible"/><path d="m531.019 667.694 47.534 20.378M516.323 661.381l8.901 3.82M517.972 498.916l-2.136-269.48M518.848 609.039l-.777-97.467M503.116 505.212l-2.67-275.615M503.47 541.935l-.193-20.312M308.943 444.599l-31.416-164.505M350.62 662.725 311 455.314M335.503 665.638l-74.013-382.55M517.212 661.754l.42-3.188" style="fill:none;stroke:#00ff4a;stroke-width:1.99999;stroke-linecap:round;stroke-linejoin:round;stroke-miterlimit:4;stroke-dasharray:none;stroke-opacity:1;visibility:visible"/><path d="m584.461 690.612 6.022 2.59" style="fill:none;stroke:#00ff4a;stroke-width:.999997;stroke-linecap:round;stroke-linejoin:round;stroke-miterlimit:4;stroke-dasharray:none;stroke-opacity:1;visibility:visible"/><path d="m529.124 677.357 34.944 15.116M515.481 671.45l8.029 3.477" style="fill:none;stroke:#00ff4a;stroke-width:1.99999;stroke-linecap:round;stroke-linejoin:round;stroke-miterlimit:4;stroke-dasharray:none;stroke-opacity:1;visibility:visible"/><path d="M682.64 279.949h0M699.036 280.887h0M490.847 349.883h0M473.287 351.082h0" style="fill:none;stroke:#00ff4a;stroke-width:.999997;stroke-linecap:round;stroke-linejoin:round;stroke-miterlimit:4;stroke-dasharray:none;stroke-opacity:1;visibility:visible"/><path d="m687.43 457.402 11.604-176.515M673.252 672.97l13.368-203.267M671.116 461.48l11.524-181.53M657.732 671.95 670.34 473.7M514.396 708.092l-23.55-358.209M516.452 739.296l-.873-13.32M499.199 726.138l-25.912-375.055M583.232 707.784l37.03 5.033M585.287 692.49l37.03 5.031M523.605 721.298l36.562-12.09M518.735 706.441l36.594-11.928M499.91 738.794l-.726-9.97M633.632 712.85l-.324.05-1.132.129-1.15.097-1.134.08-1.149.05-1.148.032h-1.15l-1.148-.032-1.15-.05-1.132-.08-.923-.081-.907-.097-.923-.13M673.252 672.97l-.098 1.068-.113 1.07-.13 1.052-.177 1.052-.194 1.052-.227 1.05-.259 1.054-.274 1.036-.308 1.018-.34 1.02-.356 1.003-.388 1.005-.422.987-.421.97-.47.956-.468.939-.519.921-.534.923-.55.924-.584.89-.598.873-.63.875-.648.841-.664.841-.695.826-.696.793-.745.793-.76.778-.778.76-.793.744-.825.728-.842.696-.841.697-.875.663-.889.648-.907.614-.922.6-.939.582-.955.566-.972.535-.986.517-1.004.502-1.019.485-1.02.453-1.052.422-1.052.404-1.068.389-1.07.356-1.082.324-1.085.307-1.102.292-1.084.242-.097.032M622.318 697.522l.892.114.89.097.904.048.891.05.908.014h.905l.89-.031.907-.064.89-.065.891-.097.889-.13.941-.162.952-.178.94-.21.922-.243.923-.259.923-.292.89-.308.89-.34.873-.372.859-.372.857-.42.825-.438.826-.452.793-.486.793-.502.762-.518.744-.55.728-.567.712-.583.68-.598.598-.566.6-.584.566-.614.55-.615.535-.615.501-.648.486-.646.469-.664.453-.68.422-.68.404-.696.372-.728.373-.728.34-.746.307-.744.29-.744.26-.777.243-.761.21-.776.193-.778.164-.777.129-.793.113-.76.082-.776.064-.762M583.232 707.784l-.939-.13-.922-.097-.941-.097-.936-.082-.939-.064-.923-.064-.939-.033-.922-.032h-1.814l-.905.016-.859.016-.873.048-.86.05-.839.062-.826.083-.826.08-.809.114-.808.114-.779.129-.76.13-.76.145-.681.162-.679.162-.663.161-.63.179-.633.177-.6.195M555.328 694.512l.97-.307 1.006-.292 1.019-.275 1.017-.26 1.053-.226 1.052-.226 1.086-.194 1.084-.179 1.1-.161 1.118-.146 1.116-.129 1.132-.113 1.134-.082 1.1-.08 1.134-.05 1.131-.031 1.135-.017h1.148l1.149.016 1.15.033 1.164.048 1.15.065 1.164.08 1.167.098 1.165.113 1.165.147 1.15.145M523.605 721.298l-.598.212-.599.209-.567.228-.55.226-.535.227-.501.225-.486.244-.469.243-.437.242-.423.243-.387.243-.372.258-.356.243-.324.243-.29.242-.276.244-.243.226-.21.226-.195.195-.177.21-.033.05M514.396 708.092l.05-.016.824-.356.842-.34.857-.324.874-.307.89-.308M499.181 728.825l-.048-.712v-.728l.017-.712.047-.535M516.452 739.296l.065.922.048.907.066.89.048.875.065.84.048.843.05.807.046.794.049.762.05.744.048.728.049.696.032.664.048.648.033.614.033.6.031.566.032.534.034.534.032.485.016.47.032.436.017.421.016.39.016.371.016.34.016.323.016.293.016.275v.469l.016.227v.485l-.016.13v.161l-.016.162-.016.195-.016.243-.016.177-.032.179-.05.209-.03.21-.067.244-.064.259-.081.243-.097.307-.115.308-.128.29-.145.308-.195.356-.21.34-.228.34-.242.324-.259.323-.356.356-.356.356-.388.308-.405.308-.42.259-.373.21-.388.194-.388.162-.404.162-.406.113-.421.115-.421.08-.42.064-.438.033-.437.016-.42-.016-.437-.033-.42-.048-.422-.082-.42-.096-.421-.13-.406-.146-.387-.161-.389-.179-.373-.21-.372-.227-.355-.243-.34-.274-.323-.275-.308-.308-.292-.308-.275-.34-.26-.339-.241-.356-.211-.372-.212-.373-.158-.388-.166-.389-.128-.355-.096-.373-.097-.356-.034-.146-.016-.145-.016-.113-.016-.098-.016-.097-.015-.081-.018-.08v-.05l-.016-.096v-.065l-.016-.13v-.112l-.016-.113-.016-.196-.016-.226-.016-.26-.033-.306-.033-.324-.015-.373-.032-.339-.034-.356-.016-.405-.032-.421-.031-.324M473.06 344.785v.714M473.06 344.786l.032-.243.05-.226.062-.227.116-.21.129-.195.128-.195.163-.16.177-.163.227-.177.243-.163.258-.145.276-.13.291-.128.341-.146.371-.113.39-.115.402-.112.424-.097.452-.082.42-.081.438-.048.453-.065.453-.048.47-.034.468-.03.535-.018h1.084l.551.018.533.016.535.048.518.048.517.049.502.08.486.081.485.082.47.096.436.113.421.13.405.129.404.131.374.161.355.161.323.179.292.193.243.195.226.194.211.227.13.194.128.195.098.21.081.227.033.259.015.242-.015.712M479.275 348.493l-.275-.016-.519-.082-.5-.08-.487-.098-.485-.097-.373-.1-.372-.093-.34-.098-.34-.114-.307-.13-.307-.111-.275-.131-.259-.13-.244-.143-.225-.147-.21-.162-.181-.162-.176-.194-.147-.211-.113-.227-.064-.225-.016-.244M490.67 345.805l-.018.178-.032.179-.08.161-.08.178-.115.146-.145.163-.179.159-.177.149-.21.128-.228.13-.258.144-.29.13-.31.113-.323.114-.355.113-.357.097-.389.098-.388.08-.404.081-.421.066-.436.063-.438.05-.453.048-.227.016" style="fill:none;stroke:#00ff4a;stroke-width:1.99999;stroke-linecap:round;stroke-linejoin:round;stroke-miterlimit:4;stroke-dasharray:none;stroke-opacity:1;visibility:visible"/><path d="M484.356 348.589v.016h.016v.033" style="fill:none;stroke:#00ff4a;stroke-width:.999997;stroke-linecap:round;stroke-linejoin:round;stroke-miterlimit:4;stroke-dasharray:none;stroke-opacity:1;visibility:visible"/><path d="m260.713 276.63.016.664M260.713 276.63v-.195l.032-.177.049-.178.064-.16.081-.148.098-.145.096-.13.113-.114.195-.177.194-.145.227-.131.227-.129.274-.131.308-.128.307-.112.34-.115.356-.097.372-.096.373-.081.388-.082.406-.079.42-.066.437-.064.437-.05.486-.047.485-.05.501-.032.503-.031.501-.018.487-.016h.484l.485.016.471.018.469.015.471.032.435.048.437.05.42.048.39.065.402.082.373.08.356.097.327.097.305.097.325.13.29.145.259.161.241.195.228.228.147.193.113.227.065.161.048.18.016.191.033.665M277.06 276.727l-.018.13-.015.145-.049.113-.064.13-.081.113-.13.147-.162.145-.178.145-.21.13-.227.113-.243.113-.258.114-.292.097-.307.113-.324.098-.34.08-.34.097-.372.081-.372.064-.39.082-.402.063-.456.066-.468.05-.324.03M266.943 279.333h-.21l-.423-.016-.403-.032-.405-.032-.388-.034-.436-.064-.437-.049-.406-.08-.388-.065-.372-.082-.292-.079-.273-.08-.261-.082-.226-.098-.226-.097-.211-.097-.227-.13-.193-.144-.163-.162-.129-.18-.097-.193-.032-.13-.016-.113" style="fill:none;stroke:#00ff4a;stroke-width:1.99999;stroke-linecap:round;stroke-linejoin:round;stroke-miterlimit:4;stroke-dasharray:none;stroke-opacity:1;visibility:visible"/><path d="m490.184 351.486.21-.259.181-.274.127-.26.097-.275.05-.259v-.276M473.287 351.082l.032.258.081.259.13.259.176.244.211.243.243.225M266.635 279.883h.016v-.032h.016v-.049h.016v-.032h.017v-.032h.017v-.032h.016v-.033h.016v-.033h.016v-.015l.015-.016v-.016l.017-.016v-.018h.016v-.032h.017v-.016l.016-.016v-.015h.016v-.018l.016-.016v-.016h.016v-.032h.016v-.016h.016v-.016l.016-.016v-.017M271.04 279.189v.016h.014v.015l.017.018v.016h.016v.016h.016v.016h.018v.016l.016.016v.016h.016v.017h.016v.016l.016.016v.017h.015v.015h.017v.032h.017v.016h.016v.034" style="fill:none;stroke:#00ff4a;stroke-width:.999997;stroke-linecap:round;stroke-linejoin:round;stroke-miterlimit:4;stroke-dasharray:none;stroke-opacity:1;visibility:visible"/><path d="M500.283 224.789v-.179l.032-.178.05-.162.062-.145.083-.145.097-.13.096-.113.097-.113.18-.146.192-.146.195-.13.226-.112.26-.113.275-.115.292-.112.323-.098.324-.08.356-.098.356-.081.356-.065.388-.064.405-.064.404-.066.405-.032.47-.05.453-.046.47-.017.468-.033h.486l.453-.016h.454l.469.016.435.016.455.033.421.033.421.03.42.051.39.063.37.066.373.065.356.08.34.081.309.098.29.097.292.128.275.13.258.147.227.176.21.21.098.115.097.146.064.145.064.178.05.178.015.178M515.692 225.033v.13l-.032.128-.05.114-.046.113-.084.098-.128.144-.145.13-.179.13-.195.113-.209.113-.227.098-.26.096-.257.114-.292.082-.308.096-.323.08-.324.066-.34.08-.356.066-.372.065-.389.064-.404.047-.405.05-.42.031M506.141 227.38l-.388-.016-.389-.032-.388-.016-.372-.05-.356-.032-.356-.05-.405-.062-.372-.066-.372-.08-.34-.082-.308-.081-.259-.08-.225-.097-.228-.082-.194-.097-.178-.097-.162-.096-.178-.147-.146-.145-.113-.178-.08-.178-.032-.196M490.199 346.809l.031.049.163.225.13.227.113.244.064.259.032.242M473.156 349.253v-.243l.032-.243.065-.242.08-.243.115-.243.162-.226.18-.227.19-.227.244-.226.032-.033M490.847 349.883l-.114-1.828M473.287 351.082l-.13-1.83" style="fill:none;stroke:#00ff4a;stroke-width:1.99999;stroke-linecap:round;stroke-linejoin:round;stroke-miterlimit:4;stroke-dasharray:none;stroke-opacity:1;visibility:visible"/><path d="M515.692 224.402v.632M509.945 227.282h0M506.141 227.38h0" style="fill:none;stroke:#00ff4a;stroke-width:.999997;stroke-linecap:round;stroke-linejoin:round;stroke-miterlimit:4;stroke-dasharray:none;stroke-opacity:1;visibility:visible"/><path d="m500.283 224.789.016.63" style="fill:none;stroke:#00ff4a;stroke-width:1.99999;stroke-linecap:round;stroke-linejoin:round;stroke-miterlimit:4;stroke-dasharray:none;stroke-opacity:1;visibility:visible"/><path d="m276.865 281.357.225-.21.18-.213.145-.224.082-.196.032-.21v-.177M261.489 283.105l.065.177.113.179.163.161.192.145.26.131.29.13M262.573 284.029l.34.096.372.098.421.08.452.05.487.047.517.017.55.016.568-.016.582-.032.599-.032.614-.066.632-.08.631-.097.63-.113.634-.114.613-.146.615-.147.6-.159.583-.181.549-.193.535-.194.501-.193.47-.211.436-.211.405-.226.357-.21.323-.228.274-.226M505.883 227.785h.016v-.032h.016v-.033h.015v-.032h.017v-.016l.017-.016v-.016h.016v-.034h.016v-.016l.016-.016v-.016h.016v-.032h.016v-.016h.016v-.017l.017-.015v-.017h.016v-.016h.017v-.016l.015-.016v-.017h.016v-.016M509.945 227.282v.016h.016v.016h.016v.018h.016v.014l.017.018.017.016v.016h.016v.016h.016v.016l.016.017v.015h.015v.017h.017v.032h.016v.016h.017v.032h.016v.016l.016.017v.016h.016v.016l.016.016v.016l.016.018v.014h.016v.034h.016v.032h.018v.032" style="fill:none;stroke:#00ff4a;stroke-width:.999997;stroke-linecap:round;stroke-linejoin:round;stroke-miterlimit:4;stroke-dasharray:none;stroke-opacity:1;visibility:visible"/><path d="m261.149 281.34-.016-.145.016-.162.016-.163.065-.16.064-.147.097-.16.114-.165.129-.144.161-.161.179-.147.21-.161.228-.178.242-.162.275-.146.291-.159.097-.052M277.529 280.126l-.34-1.764M261.489 283.105l-.34-1.765" style="fill:none;stroke:#00ff4a;stroke-width:1.99999;stroke-linecap:round;stroke-linejoin:round;stroke-miterlimit:4;stroke-dasharray:none;stroke-opacity:1;visibility:visible"/><path d="m276.638 277.569.145.113.147.145.113.163.097.177.05.195M479.323 348.8l-.033-.05-.017-.049-.016-.046v-.098l.016-.048M266.667 280.078l-.016-.033-.016-.032v-.033l-.015-.031.015-.034v-.032M516.323 661.381l-.033-.016h-.05l-.063.032-.049.081-.032.098-.016.13-.016.144v.163l.016.193.016.195.016.21.033.228.032.242.034.243.048.258.031.275.033.293.049.323.032.324.032.339.032.373v.227l.017.226v.243l.016.243-.016.242v.26l-.017.241-.016.259M578.538 687.245l.018 2.816M578.539 687.245l.016-.145.032-.13.063-.129.083-.13.08-.115.114-.095.162-.13.194-.112.21-.114.195-.065.192-.082.228-.064.242-.049.227-.032.227-.048.26-.015.243-.017h.712l.241.017.227.031.228.032.225.05.21.047.196.048.194.066.177.081.179.08.161.081.147.114.128.097.115.13.096.128.08.145.034.098.015.114.016.113v2.816M579.945 691.244h0l-.21-.066-.178-.064-.177-.08-.163-.083-.145-.079-.13-.098-.112-.113-.098-.113-.082-.114-.047-.113-.05-.13v-.128" style="fill:none;stroke:#00ff4a;stroke-width:.999997;stroke-linecap:round;stroke-linejoin:round;stroke-miterlimit:4;stroke-dasharray:none;stroke-opacity:1;visibility:visible"/><path d="m584.688 690.061-.016.145-.048.13-.05.13-.096.127-.114.115-.13.098-.128.096-.162.082-.164.08-.176.081-.145.05M505.202 208.15H285.989V99.558h219.213V208.15" style="fill:none;stroke:#00ff4a;stroke-width:.999997;stroke-linecap:round;stroke-linejoin:round;stroke-miterlimit:4;stroke-dasharray:none;stroke-opacity:1;visibility:visible"/><path d="m349.51 191.993-.21.063-.36.084-.485.085-.25.024" style="fill:none;stroke:#00ff4a;stroke-width:.666665;stroke-linecap:round;stroke-linejoin:round;stroke-miterlimit:4;stroke-dasharray:none;stroke-opacity:1;visibility:visible"/><path d="m345.435 192.503-.879.06-.905.063-.948.064-.95.041-.947.064-.95.063-.926.062-.884.064-.844.063-.843.063-.63.052" style="fill:none;stroke:#00ff4a;stroke-width:.666665;stroke-linecap:round;stroke-linejoin:round;stroke-miterlimit:4;stroke-dasharray:2.77999,2.77999;stroke-dashoffset:0;stroke-opacity:1;visibility:visible"/><path d="m334.348 193.313-.055.008-.526.063-.379.085-.232.063-.085.084M349.51 195.344l-.21.084-.36.063-.485.085-.248.024" style="fill:none;stroke:#00ff4a;stroke-width:.666665;stroke-linecap:round;stroke-linejoin:round;stroke-miterlimit:4;stroke-dasharray:none;stroke-opacity:1;visibility:visible"/><path d="m345.438 195.853-.881.06-.906.063-.948.064-.949.062-.948.063-.95.044-.926.063-.884.062-.844.064-.843.063-.629.052" style="fill:none;stroke:#00ff4a;stroke-width:.666665;stroke-linecap:round;stroke-linejoin:round;stroke-miterlimit:4;stroke-dasharray:2.77999,2.77999;stroke-dashoffset:0;stroke-opacity:1;visibility:visible"/><path d="m334.348 196.665-.055.007-.526.062-.379.084-.232.064-.085.084M349.51 198.695l-.21.084-.36.064-.485.084-.248.025" style="fill:none;stroke:#00ff4a;stroke-width:.666665;stroke-linecap:round;stroke-linejoin:round;stroke-miterlimit:4;stroke-dasharray:none;stroke-opacity:1;visibility:visible"/><path d="m345.438 199.204-.901.06-.886.063-.948.062-.949.064-.948.064-.95.063-.926.063-.884.064-.844.041-.843.084-.628.052" style="fill:none;stroke:#00ff4a;stroke-width:.666665;stroke-linecap:round;stroke-linejoin:round;stroke-miterlimit:4;stroke-dasharray:2.77999,2.77999;stroke-dashoffset:0;stroke-opacity:1;visibility:visible"/><path d="m334.348 200.017-.055.005-.526.063-.379.084-.232.064-.085.085M349.51 202.046l-.21.084-.36.064-.485.084-.248.024" style="fill:none;stroke:#00ff4a;stroke-width:.666665;stroke-linecap:round;stroke-linejoin:round;stroke-miterlimit:4;stroke-dasharray:none;stroke-opacity:1;visibility:visible"/><path d="m345.44 202.553-.904.061-.885.063-.948.064-.948.063-.97.062-.928.064-.926.064-.886.063-.842.063-.864.064-.599.049" style="fill:none;stroke:#00ff4a;stroke-width:.666665;stroke-linecap:round;stroke-linejoin:round;stroke-miterlimit:4;stroke-dasharray:2.77866,2.77866;stroke-dashoffset:0;stroke-opacity:1;visibility:visible"/><path d="m334.357 203.367-.063.007-.526.084-.38.064-.231.084-.085.062" style="fill:none;stroke:#00ff4a;stroke-width:.666665;stroke-linecap:round;stroke-linejoin:round;stroke-miterlimit:4;stroke-dasharray:none;stroke-opacity:1;visibility:visible"/><path d="M349.552 193.152v.043M349.552 196.503v.043" style="fill:none;stroke:#00ff4a;stroke-width:.666665;stroke-linecap:round;stroke-linejoin:round;stroke-miterlimit:4;stroke-dasharray:.0426666;stroke-dashoffset:0;stroke-opacity:1;visibility:visible"/><path d="M349.552 199.875v.021M349.552 203.225v.021" style="fill:none;stroke:#00ff4a;stroke-width:.666665;stroke-linecap:round;stroke-linejoin:round;stroke-miterlimit:4;stroke-dasharray:.0213333;stroke-dashoffset:0;stroke-opacity:1;visibility:visible"/><path d="m349.552 202.025-.043.021M349.552 198.674l-.043.021M349.552 195.323l-.043.021" style="fill:none;stroke:#00ff4a;stroke-width:.666665;stroke-linecap:round;stroke-linejoin:round;stroke-miterlimit:4;stroke-dasharray:.0466666;stroke-dashoffset:0;stroke-opacity:1;visibility:visible"/><path d="m349.552 191.951-.043.043" style="fill:none;stroke:#00ff4a;stroke-width:.666665;stroke-linecap:round;stroke-linejoin:round;stroke-miterlimit:4;stroke-dasharray:.0599999;stroke-dashoffset:0;stroke-opacity:1;visibility:visible"/><path d="m351.322 200.992.043-.043-.022-.062M351.322 197.641l.043-.043-.022-.062M351.322 194.29l.043-.064-.022-.041" style="fill:none;stroke:#00ff4a;stroke-width:.666665;stroke-linecap:round;stroke-linejoin:round;stroke-miterlimit:4;stroke-dasharray:none;stroke-opacity:1;visibility:visible"/><path d="M349.552 191.951v1.201" style="fill:none;stroke:#00ff4a;stroke-width:.666665;stroke-linecap:round;stroke-linejoin:round;stroke-miterlimit:4;stroke-dasharray:1.20133;stroke-dashoffset:0;stroke-opacity:1;visibility:visible"/><path d="M349.552 195.323v1.18" style="fill:none;stroke:#00ff4a;stroke-width:.666665;stroke-linecap:round;stroke-linejoin:round;stroke-miterlimit:4;stroke-dasharray:1.18;stroke-dashoffset:0;stroke-opacity:1;visibility:visible"/><path d="M349.552 198.674v1.201M349.552 202.025v1.2" style="fill:none;stroke:#00ff4a;stroke-width:.666665;stroke-linecap:round;stroke-linejoin:round;stroke-miterlimit:4;stroke-dasharray:1.20133;stroke-dashoffset:0;stroke-opacity:1;visibility:visible"/><path d="m351.322 200.992-.359.21-.358.211-.379.211-.359.21-.316.19M351.322 197.641l-.359.21-.358.211-.379.211-.359.21-.316.19M351.322 194.29l-.359.21-.358.211-.379.211-.359.21-.316.19" style="fill:none;stroke:#00ff4a;stroke-width:.666665;stroke-linecap:round;stroke-linejoin:round;stroke-miterlimit:4;stroke-dasharray:2.04933;stroke-dashoffset:0;stroke-opacity:1;visibility:visible"/><path d="m349.552 199.875.316.168.379.212.358.21.359.211.379.211" style="fill:none;stroke:#00ff4a;stroke-width:.666665;stroke-linecap:round;stroke-linejoin:round;stroke-miterlimit:4;stroke-dasharray:2.05733;stroke-dashoffset:0;stroke-opacity:1;visibility:visible"/><path d="m349.552 196.503.316.19.379.211.358.211.359.21.379.211M349.552 193.152l.316.19.379.21.358.21.359.211.379.211" style="fill:none;stroke:#00ff4a;stroke-width:.666665;stroke-linecap:round;stroke-linejoin:round;stroke-miterlimit:4;stroke-dasharray:2.06799;stroke-dashoffset:0;stroke-opacity:1;visibility:visible"/><path d="m580.727 686.647.459.459 1.02-.022.5-.5" style="fill:none;stroke:#00ff4a;stroke-width:.999997;stroke-linecap:round;stroke-linejoin:round;stroke-miterlimit:4;stroke-dasharray:none;stroke-opacity:1;visibility:visible"/><path d="m453.87 193.239 2.767-.253" style="fill:none;stroke:#00ff4a;stroke-width:.666665;stroke-linecap:round;stroke-linejoin:round;stroke-miterlimit:4;stroke-dasharray:none;stroke-opacity:1;visibility:visible"/><path d="m456.637 192.986-2.767.253M442.787 194.052l1.383-.133" style="fill:none;stroke:#00ff4a;stroke-width:.666665;stroke-linecap:round;stroke-linejoin:round;stroke-miterlimit:4;stroke-dasharray:2.77866,2.77866;stroke-dashoffset:0;stroke-opacity:1;visibility:visible"/><path d="m444.17 193.919-1.383.133M453.871 196.59l2.768-.253" style="fill:none;stroke:#00ff4a;stroke-width:.666665;stroke-linecap:round;stroke-linejoin:round;stroke-miterlimit:4;stroke-dasharray:none;stroke-opacity:1;visibility:visible"/><path d="m456.639 196.337-2.768.253M442.787 197.402l1.383-.133" style="fill:none;stroke:#00ff4a;stroke-width:.666665;stroke-linecap:round;stroke-linejoin:round;stroke-miterlimit:4;stroke-dasharray:2.77866,2.77866;stroke-dashoffset:0;stroke-opacity:1;visibility:visible"/><path d="m444.17 197.269-1.383.133M453.866 199.941l2.767-.243" style="fill:none;stroke:#00ff4a;stroke-width:.666665;stroke-linecap:round;stroke-linejoin:round;stroke-miterlimit:4;stroke-dasharray:none;stroke-opacity:1;visibility:visible"/><path d="m456.633 199.698-2.767.243M442.787 200.753l1.383-.133" style="fill:none;stroke:#00ff4a;stroke-width:.666665;stroke-linecap:round;stroke-linejoin:round;stroke-miterlimit:4;stroke-dasharray:2.77733,2.77733;stroke-dashoffset:0;stroke-opacity:1;visibility:visible"/><path d="m444.17 200.62-1.383.133" style="fill:none;stroke:#00ff4a;stroke-width:.666665;stroke-linecap:round;stroke-linejoin:round;stroke-miterlimit:4;stroke-dasharray:none;stroke-opacity:1;visibility:visible"/><path d="m685.408 279.575.485-4.028M501.059 761.876l.486-2.088M502.273 761.908l-1.181-2.136M501.092 759.772l1.181 2.136M501.545 759.788l-.486 2.088" style="fill:none;stroke:#00ff4a;stroke-width:.999997;stroke-linecap:round;stroke-linejoin:round;stroke-miterlimit:4;stroke-dasharray:none;stroke-opacity:1;visibility:visible"/><path d="m488.305 759.609 2.51-.227" style="fill:none;stroke:#00ff4a;stroke-width:1.99999;stroke-linecap:round;stroke-linejoin:round;stroke-miterlimit:4;stroke-dasharray:none;stroke-opacity:1;visibility:visible"/><path d="m488.128 754.332 2.492-5.227M488.112 759.738l2.524-10.341M499.181 728.825l-9.904 4.92M499.184 728.824l-9.891 5.228M475.745 351.146l.487-5.632M263.091 282.037l.162-5.31M262.573 284.029l.68-7.303M502.613 228.772l.34-3.82M502.613 228.772l.34-3.82M683.789 277.02l14.227 4.886M688.966 278.2l-5.453 2.865M516.452 667.45l2.54-18.919" style="fill:none;stroke:#00ff4a;stroke-width:.999997;stroke-linecap:round;stroke-linejoin:round;stroke-miterlimit:4;stroke-dasharray:none;stroke-opacity:1;visibility:visible"/><path d="m493.13 384.634 8.917 10.568M501.951 384.358l-8.111 11.085M502.047 395.202l-8.917-10.568M493.84 395.443l8.111-11.085M687.609 454.682l-15.733-5.292M690.765 443.595l-2.38-.793M688.385 442.802l-15.763-5.242M690.764 443.595l-3.155 11.087M495.072 668.584l1.23 15.779M525.224 665.201l5.795 2.493M531.019 667.694l-5.795-2.493M518.071 511.572l-.099-12.656M517.972 498.916l.099 12.656M518.071 511.572l-14.955-6.36M503.116 505.212l.161 16.411M523.51 674.927l5.614 2.43M516.323 661.381l-.842 10.069M529.124 677.357l-5.614-2.43M686.62 469.703l.81-12.301M670.34 473.7l.776-12.22M671.116 461.48l-.776 12.22M489.277 733.745l10.633 5.049M490.636 749.397l10.474 5.663" style="fill:none;stroke:#00ff4a;stroke-width:1.99999;stroke-linecap:round;stroke-linejoin:round;stroke-miterlimit:4;stroke-dasharray:none;stroke-opacity:1;visibility:visible"/><path d="m506.141 227.38-.939-19.23M500.283 224.789l4.919-16.639" style="fill:none;stroke:#00ff4a;stroke-width:.999997;stroke-linecap:round;stroke-linejoin:round;stroke-miterlimit:4;stroke-dasharray:none;stroke-opacity:1;visibility:visible"/><path d="m345.435 192.503 2.77-.254" style="fill:none;stroke:#00ff4a;stroke-width:.666665;stroke-linecap:round;stroke-linejoin:round;stroke-miterlimit:4;stroke-dasharray:none;stroke-opacity:1;visibility:visible"/><path d="m348.205 192.249-2.77.254M334.348 193.313l1.38-.151" style="fill:none;stroke:#00ff4a;stroke-width:.666665;stroke-linecap:round;stroke-linejoin:round;stroke-miterlimit:4;stroke-dasharray:2.77999,2.77999;stroke-dashoffset:0;stroke-opacity:1;visibility:visible"/><path d="m335.728 193.162-1.38.151M349.552 191.951l-16.481 1.665M345.438 195.853l2.77-.253" style="fill:none;stroke:#00ff4a;stroke-width:.666665;stroke-linecap:round;stroke-linejoin:round;stroke-miterlimit:4;stroke-dasharray:none;stroke-opacity:1;visibility:visible"/><path d="m348.207 195.6-2.769.253M334.348 196.665l1.382-.152" style="fill:none;stroke:#00ff4a;stroke-width:.666665;stroke-linecap:round;stroke-linejoin:round;stroke-miterlimit:4;stroke-dasharray:2.77999,2.77999;stroke-dashoffset:0;stroke-opacity:1;visibility:visible"/><path d="m335.73 196.513-1.382.152M349.552 191.951l-16.481 5.015M345.438 199.204l2.77-.252" style="fill:none;stroke:#00ff4a;stroke-width:.666665;stroke-linecap:round;stroke-linejoin:round;stroke-miterlimit:4;stroke-dasharray:none;stroke-opacity:1;visibility:visible"/><path d="m348.207 198.952-2.769.252M334.348 200.017l1.383-.133" style="fill:none;stroke:#00ff4a;stroke-width:.666665;stroke-linecap:round;stroke-linejoin:round;stroke-miterlimit:4;stroke-dasharray:2.77999,2.77999;stroke-dashoffset:0;stroke-opacity:1;visibility:visible"/><path d="m335.731 199.884-1.383.133M349.552 191.951l-16.481 8.367M345.44 202.553l2.767-.251" style="fill:none;stroke:#00ff4a;stroke-width:.666665;stroke-linecap:round;stroke-linejoin:round;stroke-miterlimit:4;stroke-dasharray:none;stroke-opacity:1;visibility:visible"/><path d="m348.207 202.302-2.767.251M334.357 203.367l1.383-.134" style="fill:none;stroke:#00ff4a;stroke-width:.666665;stroke-linecap:round;stroke-linejoin:round;stroke-miterlimit:4;stroke-dasharray:2.77866,2.77866;stroke-dashoffset:0;stroke-opacity:1;visibility:visible"/><path d="m335.74 203.233-1.383.134" style="fill:none;stroke:#00ff4a;stroke-width:.666665;stroke-linecap:round;stroke-linejoin:round;stroke-miterlimit:4;stroke-dasharray:none;stroke-opacity:1;visibility:visible"/><path d="M633.48 857.8v170.647" style="fill:none;stroke:#9500ff;stroke-width:.666665;stroke-linecap:round;stroke-linejoin:round;stroke-miterlimit:10;stroke-dasharray:none;stroke-opacity:1;visibility:visible"/><path d="m492.255 874.425.13.129.095.13.051.129.029.146-.013.131-.05.112-.08.13-.113.128-.13.098-.147.113-.176.099-.211.096-.212.08-.241.081-.259.083-.276.063-.307.065-.324.064-.34.05-.356.03-.388.033-.42.016h-.406l-.42-.016M348.986 807.177v.13l.016.145.032.128.065.147.064.128.113.147.114.13.13.144.145.114.162.13.179.112.193.114.195.097.21.114.227.097.243.097.226.064.227.082.243.065.242.064.243.065.243.049.258.05.26.03.242.033.26.016.258.016.244.017h.484l.243-.017.227-.016.242-.032.244-.034.226-.046.21-.05.211-.049.195-.064.177-.08.163-.081.177-.098.145-.097.131-.113.113-.115.08-.112.082-.13.048-.128.016-.147M348.986 807.257v-.082M344.955 821.807l-.015.114v.193l-.017.081v.082l-.017.081M481.104 873.987l-.21.114-.163.129-.129.13-.096.128-.066.114-.016.13.016.131.032.129.065.112.096.114.131.097.13.115.177.095.194.097.211.097.227.098.274.081.293.08.306.081.324.066.39.048.386.047.424.05.403.016M576.839 913.787l.777-.145.76-.147.777-.193.762-.21.744-.228.76-.259.745-.275.744-.307.744-.34.73-.356.726-.373.713-.404.696-.421.68-.436.664-.454.663-.485.599-.454.582-.485.583-.501.567-.519.534-.517.534-.535.502-.566.502-.551.469-.583.47-.582.436-.601.421-.612.406-.615.387-.648.373-.631.356-.648.29-.599.277-.597.258-.601.24-.614.23-.616.21-.614.195-.632.162-.615.16-.63.131-.634.113-.629.097-.615.064-.632.05-.615.03-.613.018-.616v-.616l-.033-.599-.033-.598-.064-.601-.08-.596-.113-.583-.114-.584-.146-.567-.147-.549-.176-.567-.195-.534-.209-.534-.244-.536-.243-.516-.273-.517-.277-.503-.324-.534-.356-.502-.356-.501-.388-.487-.406-.469-.403-.435-.438-.439-.453-.42-.486-.421-.485-.388-.501-.372-.535-.34-.517-.34-.551-.308-.567-.29-.566-.276-.664-.292-.663-.26-.696-.242-.696-.21-.728-.178-.714-.161-.727-.13-.744-.113-.744-.065-.762-.066-.76-.015h-.777l-.777.033-.776.047-.795.082-.792.113M357.596 806.934l-.032.259-.017.226-.032.211-.015.193-.033.228-.033.243M357.596 806.934l.016-.064v-.05l-.016-.062v-.051l-.016-.064-.016-.065M349.034 806.787v.066l-.016.064v.065l-.016.064v.065l-.016.066M485.847 876.351l-.243-.016-.227-.015h-.21l-.195-.018h-.227l-.242-.016" style="fill:none;stroke:#9500ff;stroke-width:.999997;stroke-linecap:round;stroke-linejoin:round;stroke-miterlimit:4;stroke-dasharray:none;stroke-opacity:1;visibility:visible"/><path d="M487.692 876.415h-.21l-.067-.015h-.144M592.57 872.435l.014.016M342.575 850.795v-.065M392.684 784.598l.082-.097.064-.097.032-.098.017-.113M383.946 812.566l-.016.259-.048.258-.098.227-.113.21-.163.18M576.435 914.97l.064-.016.065-.034.048-.063.033-.067.048-.079.032-.081.035-.097.015-.114.032-.145.016-.13v-.177l.016-.178M383.946 812.566l.324-.34.34-.34.324-.373.322-.404.324-.404.308-.438.324-.469.308-.47.289-.468.278-.486.289-.503.276-.5.259-.535.275-.534.26-.55.242-.568.227-.534.225-.549.211-.551.227-.568.21-.564.195-.583.193-.582.195-.6.179-.583.16-.599.18-.598.145-.615.161-.598.146-.617.146-.63.13-.615.129-.68.13-.68.113-.663.113-.68.097-.665.098-.679.08-.661.065-.665.081-.761.048-.746.048-.726.034-.746.032-.712v-2.136M382.779 773.997l-6.183 5.81-1.456 1.361-.713.678-.712.68-.68.695-.679.681-.648.712-.648.696-.565.648-.567.648-.55.664-.518.645-.518.665-.502.647-.485.663-.47.664-.436.648-.438.663-.421.648-.404.664-.388.662-.372.648-.356.664-.342.663-.354.728-.34.713-.324.712-.308.728-.275.728-.275.712-.242.728-.244.73-.243.825-.21.825-.193.81-.18.825-.16.825-.13.827-.098.84-.097.825M392.684 784.598l-.032-.68-.032-.662-.049-.664-.065-.632-.064-.631-.082-.599-.097-.598-.097-.584-.114-.534-.112-.501-.131-.501-.129-.472-.145-.47-.161-.433-.164-.423-.16-.404-.163-.34-.177-.34-.18-.324-.176-.308-.195-.29-.195-.275-.209-.26-.21-.227-.212-.21-.21-.193-.227-.179-.226-.162-.227-.145-.243-.113-.242-.114-.243-.08-.275-.082-.258-.048-.276-.016-.291-.016-.276.016-.29.048-.294.048-.289.08-.324.13-.34.146-.34.178-.324.196-.34.226-.339.258-.34.276-.34.307M349.018 807.549l.05-.486" style="fill:none;stroke:#9500ff;stroke-width:.999997;stroke-linecap:round;stroke-linejoin:round;stroke-miterlimit:4;stroke-dasharray:none;stroke-opacity:1;visibility:visible"/><path d="m577.275 872.855-14.178 2.25-7.105 1.117-1.782.258-1.78.26-1.795.258-1.815.228-1.795.241-1.813.21-1.828.213-1.813.193-1.831.194-1.844.178-1.844.178-1.845.162-1.862.146-1.861.145-1.861.13-1.878.131-1.877.112-1.877.096-1.895.098-1.893.08-1.748.067-1.765.063-1.747.048-1.764.034-1.749.049-1.747.015-1.748.016-1.765.017h-1.747l-1.748-.017-1.732-.016-1.748-.032-1.748-.032-1.732-.035-1.748-.063-1.732-.047-1.748-.082-1.732-.065-1.73-.098-1.734-.08-1.731-.113-1.732-.097-1.732-.13-1.715-.13-1.731-.127-1.717-.148-1.716-.145-1.732-.162-1.714-.178-1.716-.178-1.7-.194-1.716-.195-1.553-.178-1.554-.194-1.554-.21-1.536-.195-1.523-.226-1.537-.21-1.506-.227-1.521-.243-1.505-.242-1.49-.243-1.488-.243-1.49-.257-1.472-.277-1.472-.275-1.458-.276-1.456-.29-1.441-.294-1.44-.288-1.44-.31-1.425-.306-1.424-.324-1.408-.324-1.408-.324-1.408-.339-1.392-.341-1.376-.355-1.376-.357-1.376-.356-1.36-.372-1.36-.372-1.357-.373-1.329-.388-1.326-.389-1.311-.387-1.295-.406-1.296-.404-1.261-.405-1.279-.42-1.246-.421-1.247-.422-1.23-.42-1.229-.437-1.198-.437-1.198-.436-1.198-.455-1.182-.452-1.165-.453-1.15-.455-1.146-.468-1.135-.47-1.117-.468-1.116-.486-1.101-.485-1.084-.487-1.068-.501-1.07-.486-1.052-.501-1.052-.519-1.036-.501-1.018-.519-1.004-.517-1.004-.533-.987-.519-.97-.55-1.038-.566-1.019-.6-1.018-.583-.988-.598-.987-.599-.972-.615-.955-.614-.938-.616-.908-.615-.906-.615-.889-.616-.875-.63-.857-.631-.841-.632-.81-.63-.809-.65-.793-.629-.778-.648-.76-.647-.744-.648-.728-.663-.713-.648-.696-.664-.68-.663-.663-.663-.648-.664-.646-.68-.616-.664-.599-.679-.583-.68-.582-.68-.55-.68-.601-.776-.581-.761-.567-.778-.55-.792-.517-.777-.502-.793-.47-.776-.469-.794-.421-.793-.42-.793-.388-.778-.374-.792-.34-.793-.34-.793-.29-.794-.292-.793-.259-.792-.243-.792-.21-.795-.21-.793-.178-.792-.146-.793-.145-.794-.113-.809-.098-.793-.065-.794-.064-.792-.017-.809-.016-.793v-.81l.032-.793.065-.792" style="fill:none;stroke:#9500ff;stroke-width:.999997;stroke-linecap:round;stroke-linejoin:round;stroke-miterlimit:4;stroke-dasharray:none;stroke-opacity:1;visibility:visible"/><path d="m360.055 808.195-.064.907-.033.905v.891l.016.907.05.905.079.892.115.905.13.907.175.89.197.906.224.907.26.89.292.907.307.89.357.906.371.907.421.89.436.905.472.891.5.907.534.89.568.89.597.89.632.89.064.081M358.842 797.11v.016M481.556 872.24l-.096.39-.1.339-.176.696M492.676 864.827l-.032.308-.017.291-.032.26-.016.259-.032.225-.017.211-.017.194-.032.179-.016.177-.015.146-.033.276-.033.257-.016.212-.048.42-.033.21-.017.212-.015.258-.016.276-.016.161-.016.163v.193l-.017.195-.015.388-.018.42-.032.47v.455l-.015.371v.647l.015.276v.258l.016.227.016.227.018.21.064.776.031.388.017.211v.244M492.692 864.714l-.016.113" style="fill:none;stroke:#9500ff;stroke-width:1.99999;stroke-linecap:round;stroke-linejoin:round;stroke-miterlimit:4;stroke-dasharray:none;stroke-opacity:1;visibility:visible"/><path d="M501.383 758.46v-.211l-.016-.113v-.114l-.017-.194-.015-.21-.016-.242-.019-.276-.015-.307-.015-.324-.033-.356-.016-.373-.033-.404-.032-.47-.032-.501-.032-.519-.032-.566-.05-.583-.031-.615-.05-.648-.048-.662-.049-.696-.048-.728-.048-.73-.05-.744-.046-.744-.051-.777-.064-.793-.049-.826-.064-.824-.05-.86-.062-.873-.067-.89-.063-.905-.973-14.245M349.131 796.397h0M483.807 893.135l-.032.179.032.176.065.18.098.16.145.131.161.097.195.064.194.033.195-.017.177-.064.163-.08.144-.13.097-.147.064-.178M482.139 911.91l-.016.179.032.177.065.177.097.163.146.13.161.096.179.065.194.033.195-.017.193-.064.162-.08.13-.131.111-.145.067-.18M481.67 893.88h0" style="fill:none;stroke:#9500ff;stroke-width:.999997;stroke-linecap:round;stroke-linejoin:round;stroke-miterlimit:4;stroke-dasharray:none;stroke-opacity:1;visibility:visible"/><path d="m485.505 893.54.016-.13-.016-.145-.032-.146-.065-.129-.097-.115-.096-.095-.115-.066-.112-.064-.13-.05-.129-.014-.146-.017-.114.016-.129.015-.112.05-.113.048-.099.081-.08.081-.065.097-.048.08-.016.099M483.855 912.314l.015-.13-.015-.144-.05-.13-.064-.146-.08-.097-.115-.097-.113-.081-.113-.064-.13-.035-.128-.03h-.259l-.13.031-.113.05-.113.048-.082.065-.097.096-.064.097-.033.083-.032.079M344.744 824.122v-.21l.016-.162v-.195l.016-.242.018-.275.032-.292.016-.324.032-.356.016-.356.033-.372.032-.372.032-.372.033-.357.032-.357.032-.322.032-.308.034-.275.016-.242.032-.21.016-.163.016-.13.016-.079M344.89 822.585h0" style="fill:none;stroke:#9500ff;stroke-width:.999997;stroke-linecap:round;stroke-linejoin:round;stroke-miterlimit:4;stroke-dasharray:none;stroke-opacity:1;visibility:visible"/><path d="m344.89 822.585-.016-.032v-.066l.016-.097v-.145l.016-.179.016-.21.017-.226.016-.227.016-.26.016-.242.033-.242.015-.226M345.036 820.433l.016-.213.032-.177.016-.145v-.113l.018-.08.016-.035M444.122 702.054l-.066.032-.21.066-.226.048-.226.065-.244.032-.243.033-.243.016-.242.016-.243.016h-.243l-.242-.016-.244-.016-.226-.033-.226-.032-.228-.048-.21-.05M576.435 914.97h0M592.57 872.435h0M345.052 820.529l-.016.226-.016.211-.017.21-.016.194-.016.21-.016.228" style="fill:none;stroke:#9500ff;stroke-width:.999997;stroke-linecap:round;stroke-linejoin:round;stroke-miterlimit:4;stroke-dasharray:none;stroke-opacity:1;visibility:visible"/><path d="m392.879 784.193.016.696v.713l-.016.712-.016.728-.033.73-.048.726-.048.745-.066.745-.08.745-.081.76-.097.727-.114.746-.113.744-.13.745-.145.745-.145.743-.163.73-.162.727-.178.729-.193.73-.195.709-.194.697-.228.697-.209.696-.227.679-.243.663-.243.665-.258.645-.26.65-.258.614-.276.616-.274.613-.292.583-.291.584-.308.565-.307.535-.308.533-.324.52-.324.483-.322.487-.356.485-.356.47-.374.452-.372.422-.372.404-.388.374M383.508 813.7l-6.442 6.133-6.474 6.182-1.036.988-1.02.987-.97 1.004-.76.81-.05.046M576.435 914.97l-3.966.63-3.998.634-3.998.613-3.997.63-3.997.633-4.015.63-4.014.634-4.014.613-4.03.615-4.061.55-4.096.502-4.109.453-4.145.39-4.176.355-4.176.29-2.12.114-2.104.114-2.12.097-2.12.096-2.136.067-2.123.062-2.135.05-2.135.033-2.12.015h-4.275l-2.135-.032-2.12-.032-2.137-.048-2.12-.066-2.12-.08-2.203-.098-2.199-.097-2.219-.13-2.185-.127-2.2-.165-2.186-.16-2.184-.178-2.185-.212-2.17-.209-2.152-.226-2.153-.228-2.152-.259-2.12-.273-2.12-.276-2.121-.292-2.104-.307-2.088-.324-2.087-.34-2.072-.356-2.056-.372-2.039-.373-2.04-.404-2.022-.406-1.991-.42-1.99-.421-1.975-.453-1.96-.453-1.94-.47-1.911-.485-1.91-.501-1.893-.502-1.878-.518-1.862-.534-1.828-.55-1.828-.551-1.814-.567-1.78-.582-1.764-.583-1.748-.6-1.748-.629-1.716-.632-1.715-.631-1.684-.648-1.667-.663-1.634-.68-1.635-.68-1.603-.696-1.57-.711-1.554-.713-1.521-.727-1.505-.746-1.488-.744-1.458-.744-1.424-.761-1.408-.778-1.376-.793-1.344-.792-1.342-.793-1.295-.81-1.279-.825-1.246-.825-1.23-.826-1.199-.842-1.165-.858-1.133-.857-1.115-.859-1.085-.857-1.053-.875-1.035-.89-1.004-.889-.97-.891-.956-.905-.922-.907-.89-.907-.859-.923-.842-.921-.808-.94-.776-.922-.762-.955-.728-.955-.712-.97-.664-.974-.647-.969-.616-.971-.583-.988-.548-.987-.518-1.004-.487-.986-.453-1.004-.42-1.004-.39-1.003-.356-.987-.322-.988-.292-.985-.276-1.005-.226-1.005-.21-.986-.162-1.004-.146-1.003-.114-1.004-.08-1.003-.048-1.003-.017-1.004.017-1.003.032-.94.064-.953M595.743 876.158l.469.582.47.615.419.632.422.647.372.663.355.68.327.698.289.709.275.715.21.663.197.678.159.68.147.679.129.714.097.696.08.711.051.713.014.712v.729l-.014.728-.067.744-.064.728-.098.745-.129.744-.145.728-.179.746-.193.728-.21.728-.244.729-.276.728-.289.728-.325.728-.339.713-.357.711-.388.698-.404.695-.437.679-.438.664-.469.647-.484.664-.519.632-.534.63-.551.616-.567.598-.582.582-.6.567-.629.55-.633.536-.646.502-.648.499-.68.471-.697.47-.695.435-.712.422-.728.404-.728.372-.728.357-.762.34-.744.307-.826.308-.827.29-.84.261-.825.224-.842.196-.858.179-.84.145M371.692 770.16l.404-.354.422-.326.421-.306.436-.276.437-.242.454-.211.453-.193.471-.147.467-.112.471-.081.402-.05h.406l.404.018.406.048.404.08M360.12 780.762l.47-.47.825-.792.841-.794.86-.793.871-.776.859-.777.857-.776.859-.778.841-.776.857-.761.86-.777 2.571-2.332M346.055 807.938l.081-.988.114-.97.16-.972.164-.971.21-.955.226-.972.276-.953.29-.957.308-.954.34-.955.371-.954.405-.939.163-.356M378.2 768.009l1.519.356 1.588.372 1.585.356 1.586.357 1.57.356M592.585 872.451l.615.729.632.743.63.747.634.743.629.729M345.052 820.529l.211-2.526.193-2.508.195-2.525.195-2.524.193-2.493M342.575 850.73l.47-5.616.485-5.665.453-5.699.47-5.679.452-5.713M572.663 865.911h0M492.159 873.26l.501.016 2.153.049 2.17.048 2.152.017 2.168.015 2.17-.015 2.167-.017 2.17-.033 2.185-.05 2.152-.063 2.169-.08 2.17-.082 2.15-.112 2.171-.114 2.152-.145 2.153-.147 2.152-.161 2.137-.179 2.152-.194 2.12-.21 2.137-.226 2.121-.227 2.119-.243 2.105-.274 2.088-.276 2.086-.291 2.088-.292 2.444-.372 2.444-.404 2.412-.405 2.428-.423 2.428-.403 2.428-.404 2.41-.421 2.429-.405 2.412-.404 2.41-.423M366.756 829.851l.6.81.679.874.711.858.731.857.759.857.794.843.825.857.841.843.875.84.923.827.922.825.971.825.987.826 1.02.809 1.036.81 1.084.792 1.101.793 1.116.793 1.15.777 1.179.778 1.217.76 1.229.761 1.262.744 1.295.744 1.31.745 1.346.728 1.359.713 1.392.711 1.392.68 1.422.696 1.458.664 1.473.663 1.488.664 1.523.648 1.553.63 1.553.632 1.588.615 1.618.599 1.618.599 1.651.582 1.667.583 1.7.55 1.698.568 1.732.533 1.764.533 1.764.52 1.798.517 1.796.503 1.829.484 1.844.47 1.847.468 1.876.438 1.894.437 1.894.436 1.942.407 1.942.403 1.974.389 1.975.372 1.99.372 2.007.34 2.024.34 2.04.324 2.039.307 2.055.292 2.072.29 2.072.261 2.088.258 2.07.227 2.074.225 2.101.212 2.089.193 2.121.179 2.12.161 2.12.146 1.587.113M572.663 865.911l.712-.096.695-.097.697-.065.793-.064.793-.034h.794l.793.035.776.03.777.082.76.097.762.131.744.144.728.177.729.195.712.21.696.261.696.256.679.309.664.308.647.34.615.372.665.404.63.437.616.454.581.485.583.501.55.535.52.55.5.568" style="fill:none;stroke:#9500ff;stroke-width:1.99999;stroke-linecap:round;stroke-linejoin:round;stroke-miterlimit:4;stroke-dasharray:none;stroke-opacity:1;visibility:visible"/><path d="M386.048 769.806h0l.39.114.37.113.356.161.34.179.34.193.34.227.308.243.308.26.307.29.292.324.275.34.274.356.243.372.244.406.225.404.211.42.243.518.21.535.211.549.195.582.177.601.163.615.145.63.13.648.112.664.098.63.08.63.081.667.05.661.048.68.048.68.017.696M354.908 720.748l.098-.908.097-.904.145-.891.162-.89.194-.891.227-.874.243-.873.274-.859.308-.857.324-.841.356-.826.372-.793.388-.793.422-.778.437-.776.47-.744.499-.745.504-.712.534-.712.566-.696.567-.664.597-.664.616-.63.632-.617.663-.597.68-.583.68-.568.712-.532.728-.518.744-.503.761-.469.778-.453.776-.437.81-.405.808-.388.826-.372.841-.34.859-.308.857-.29.875-.277.89-.242.889-.21.891-.195.89-.163.872-.144.86-.114.873-.08.875-.066.872-.049.891-.014.876.015.873.017M371.84 707.978l-.39.308-.55.486-.55.517-.518.535-.486.549-.486.568-.437.583-.436.598-.405.631-.388.63-.372.666-.324.679-.308.68-.275.696-.259.696-.226.712-.18.646-.144.648-.146.664-.097.663-.097.68-.066.664M386.438 703.381l-.81-.032-.793.016-.793.016-.794.065-.792.082-.776.112-.762.146-.776.162-.746.194-.728.211-.728.243-.712.258-.696.292-.696.307-.664.34-.048.032M421.203 695.078l.923.05.906.064.922.065.906.097.907.096.89.1.889.126.876.131.857.145.857.146.844.178.856.178.858.196.825.21.825.224.81.244.793.244.777.258.76.275.73.292.728.293.145.063M435.527 708.01l-.453-.21-.47-.194-.484-.194-.52-.195-.533-.179-.567-.177-.566-.179-.584-.161-.598-.161-.63-.163-.648-.145-.664-.13-.664-.145-.696-.113-.695-.114-.712-.113-.713-.097-.73-.08-.758-.083-.76-.08-.779-.064-.776-.05-.793-.03M489.455 784.809l.065-.859.08-.857.065-.873.082-.891.063-.89.066-.905.064-.908.065-.906.065-.907.05-.907.063-.905.05-.891.047-.907.065-.905.048-.89.034-.906.048-.892.048-.89.033-.873.032-.857.032-.874.032-.86.033-.839.032-.843.016-.824.032-.811.018-.792.016-.794.016-.76.015-.761v-1.424l.017-.696v-1.344l-.017-.631v-.615l-.015-.598v-.567l-.016-.535-.016-.517-.034-.485-.016-.454-.016-.436-.032-.406-.033-.371-.016-.357M501.092 753.846v.227l.016.68v.696l.016.728v1.505l-.016.778v.808l-.016.81-.016.826-.016.856-.017.89-.033.892-.015.922-.032.922-.034.939-.032.939-.047.954-.034.956-.048.97-.048.941-.048.953-.05.955-.048.956-.064.955-.05.954-.064.955-.064.972-.065.939-.064.954-.066.874-.065.874-.064.874-.081.874-.067.858-.079.857-.065.843M489.293 734.052v-.032l-.016-.032-.033-.082-.064-.129-.097-.161-.146-.211-.194-.227-.146-.161-.177-.161-.18-.179-.225-.179-.227-.194-.258-.194-.309-.21-.324-.211-.354-.21-.374-.211-.404-.209-.405-.212-.453-.21M489.083 721.461l.76.356.73.372.694.372.697.404.663.421.632.422.614.452.6.471.565.484.535.502.502.519.435.469.406.485.372.52.356.516.324.535.29.565.244.504.226.532.179.535.161.55.13.551.112.566.066.566M492.692 864.714h0" style="fill:none;stroke:#9500ff;stroke-width:1.99999;stroke-linecap:round;stroke-linejoin:round;stroke-miterlimit:4;stroke-dasharray:none;stroke-opacity:1;visibility:visible"/><path d="m499.377 733.13 1.084 11.508" style="fill:none;stroke:#9500ff;stroke-width:.999997;stroke-linecap:round;stroke-linejoin:round;stroke-miterlimit:4;stroke-dasharray:none;stroke-opacity:1;visibility:visible"/><path d="m358.842 797.11-.05.907-.048.905-.032.908-.065.937-.064.583-.065.565-.066.568-.08.567-.08.583-.099.582-.079.372-.082.373-.08.39-.115.387-.113.372-.177.534-.163.534-.113.39-.096.386-.05.211-.03.196-.017.095-.016.05-.018.13-.016.095-.016.1-.016.095-.016.113M480.861 875.414l.099-.599.225-1.15M481.556 872.24l.13-.565.114-.6.096-.598.081-.615.08-.616.083-.615.064-.614.048-.599.032-.503.033-.517.033-.519.047-.517.034-.517.048-.519.031-.517M481.185 873.665l.065-.307.081-.276.081-.292.064-.275.081-.274M492.692 864.714l-.112 1.133-.115 1.15-.129 1.116-.096 1.101-.065 1.133-.035 1.116v1.102l.051 1.1.032.305.032.31.017.307.016.308.016.486v.081M354.908 720.748l-5.777 75.649M364.7 721.477l-5.858 75.633M421.203 695.078l-34.313-1.553M420.732 704.952l-34.296-1.572M442.939 711.393l34.198 15.683M435.527 708.01l1.925.874M484.956 719.582l4.128 1.879M445.092 701.472l33.763 15.344M349.1 807.726l-.018-.356-.015-.177-.017-.179-.016-.177-.016-.195-.048-.388-.05-.39-.064-.402-.049-.392-.032-.355-.032-.355-.033-.34-.016-.357v-1.376l.016-.582.017-.583.016-.599.032-.582.048-.534.05-.502.062-.502.051-.5.048-.505.05-.498.046-.504M489.455 784.809l-6.945 79M499.716 785.732l-7.025 78.982M489.293 734.052l1.343 15.344" style="fill:none;stroke:#9500ff;stroke-width:1.99999;stroke-linecap:round;stroke-linejoin:round;stroke-miterlimit:4;stroke-dasharray:none;stroke-opacity:1;visibility:visible"/><path d="m485.296 914.08-.161.128-.163.13-.177.112-.227.131-.227.097-.226.081-.243.066-.259.048-.242.032h-.519l-.242-.032-.259-.048-.243-.082-.243-.081-.242-.113-.227-.13-.21-.129-.196-.16-.194-.181-.176-.193-.163-.194-.13-.21-.13-.228-.096-.242M487.06 895.191l-.032.05-.145.129-.227.177-.243.163-.212.113-.225.097-.243.081-.242.065-.261.048-.242.016-.258.016-.259-.016-.243-.032-.258-.048-.243-.081-.244-.099-.243-.112-.227-.113-.209-.162-.194-.146-.195-.178-.162-.194-.162-.211-.131-.21-.112-.209-.113-.228-.065-.226M486.704 891.014l-.324-.244-.34-.176-.372-.164-.388-.096-.405-.064-.388-.016-.404.032-.39.081-.372.13-.34.177-.324.21-.29.244-.243.275-.21.307-.163.34-.129.356-.066.356-.015.372.032.373.098.373M487.61 894.398l.112-.308.066-.323.048-.324-.016-.34-.032-.323-.081-.325M344.744 824.122l-.112-.05-.13-.046-.114-.067-.097-.079-.097-.098-.08-.097-.064-.115-.066-.112-.049-.113-.015-.082-.017-.08-.016-.097v-.048l-.016-.05v-.209l.016-.131v-.176l.016-.211.017-.179.015-.21.016-.209.016-.196.017-.194.016-.21.016-.193.016-.196.018-.193.014-.195.016-.179.018-.16.016-.163.016-.129.016-.131.016-.129.016-.097v-.08l.032-.13.017-.048.016-.065.017-.065.015-.048.032-.065.05-.082.063-.095.098-.13.114-.097.162-.114.176-.079.146-.05.13-.032" style="fill:none;stroke:#9500ff;stroke-width:.999997;stroke-linecap:round;stroke-linejoin:round;stroke-miterlimit:4;stroke-dasharray:none;stroke-opacity:1;visibility:visible"/><path d="m344.776 823.993-.016.081v.032l-.016.016M343.304 842.055l-.144-.065-.114-.064-.098-.081-.097-.098-.08-.097-.081-.096-.066-.113-.064-.179-.033-.145-.016-.098v-.404l.016-.13v-.128l.016-.131v-.161l.017-.163.016-.177.016-.195.016-.21.016-.193.016-.196.016-.193.016-.195.018-.193.016-.18.016-.177.016-.163.016-.144.016-.146.016-.114.017-.113v-.083l.017-.063.031-.129v-.048l.016-.065.033-.05.015-.064.033-.049.048-.096.066-.096.097-.115.131-.113.158-.113.164-.082.129-.032.066-.015M439.023 708.74l1.116.5M437.695 708.124l-.113.176-.082.164-.048.129v.13M442.939 711.393l-.405-.195-.404-.242-.42-.276-.406-.323-.39-.34-.386-.372-.389-.405" style="fill:none;stroke:#9500ff;stroke-width:.999997;stroke-linecap:round;stroke-linejoin:round;stroke-miterlimit:4;stroke-dasharray:none;stroke-opacity:1;visibility:visible"/><path d="m482.77 729.65-.402-.194-.423-.259-.42-.275-.405-.324-.405-.34-.388-.372-.388-.404" style="fill:none;stroke:#9500ff;stroke-width:1.99999;stroke-linecap:round;stroke-linejoin:round;stroke-miterlimit:4;stroke-dasharray:none;stroke-opacity:1;visibility:visible"/><path d="m486.704 891.014.243.21.21.228.163.226.145.225.128.26.114.292M487.61 894.398l-.083.145-.079.147-.081.128-.082.115-.095.129-.13.13M480.1 912.88l-.113-.34-.064-.354-.034-.326.034-.323.047-.291.08-.292.115-.275.146-.258.194-.261.21-.242.274-.228.308-.209M481.297 909.482l.178-.097.178-.08.195-.066.193-.064.195-.033.21-.05.194-.013.21-.017.39.016.372.064.372.097.356.146.308.16.29.197.278.225.241.243.194.275.178.275.146.307.097.308.064.34.034.356-.017.34-.065.34-.065.179-.064.193-.082.163-.097.177-.096.162-.13.162-.131.146-.129.145M485.847 876.351h.258l.243.016.227.016h.225l.228.017h.243M440.559 702.184l-.195-.048-.193-.066-.179-.08-.161-.08-.145-.082-.147-.098-.113-.113-.114-.113-.064-.098-.065-.129-.033-.13-.015-.112M445.335 700.89l-.016.143-.032.131-.065.13-.082.13-.112.13-.13.111-.146.099-.145.08-.161.081-.18.081-.143.048M501.092 753.846l.291 4.614M499.376 733.13l-.179-6.993" style="fill:none;stroke:#9500ff;stroke-width:.999997;stroke-linecap:round;stroke-linejoin:round;stroke-miterlimit:4;stroke-dasharray:none;stroke-opacity:1;visibility:visible"/><path d="m487.692 876.415 4.467-3.155M375.124 705.825l-3.284 2.153M371.84 707.978l3.284-2.153M445.092 701.472l-6.005-2.719M501.383 758.46l-.291-4.614M482.77 729.65l2.137.987" style="fill:none;stroke:#9500ff;stroke-width:1.99999;stroke-linecap:round;stroke-linejoin:round;stroke-miterlimit:4;stroke-dasharray:none;stroke-opacity:1;visibility:visible"/><path d="m490.636 749.396 9.825-4.758" style="fill:none;stroke:#9500ff;stroke-width:.999997;stroke-linecap:round;stroke-linejoin:round;stroke-miterlimit:4;stroke-dasharray:none;stroke-opacity:1;visibility:visible"/><path d="m481.556 872.24-.695 3.174M484.907 730.637l-7.77-3.561M478.855 716.816l6.101 2.766M484.956 719.582l-6.101-2.766" style="fill:none;stroke:#9500ff;stroke-width:1.99999;stroke-linecap:round;stroke-linejoin:round;stroke-miterlimit:4;stroke-dasharray:none;stroke-opacity:1;visibility:visible"/><path d="m437.452 708.884 1.571-.144" style="fill:none;stroke:#9500ff;stroke-width:.999997;stroke-linecap:round;stroke-linejoin:round;stroke-miterlimit:4;stroke-dasharray:none;stroke-opacity:1;visibility:visible"/><path d="m484.907 730.637-2.137-.987" style="fill:none;stroke:#9500ff;stroke-width:1.99999;stroke-linecap:round;stroke-linejoin:round;stroke-miterlimit:4;stroke-dasharray:none;stroke-opacity:1;visibility:visible"/><path d="m629.617 713.22 6.507-16.604" style="fill:none;stroke:red;stroke-width:.999997;stroke-linecap:round;stroke-linejoin:round;stroke-miterlimit:4;stroke-dasharray:none;stroke-opacity:1;visibility:visible"/><path d="m629.617 713.22 8.983-17.396" style="fill:none;stroke:red;stroke-width:1.99999;stroke-linecap:round;stroke-linejoin:round;stroke-miterlimit:4;stroke-dasharray:none;stroke-opacity:1;visibility:visible"/><path d="m636.124 696.616-6.507 16.604M516.323 661.381l2.605-9.064" style="fill:none;stroke:#00ff4a;stroke-width:.999997;stroke-linecap:round;stroke-linejoin:round;stroke-miterlimit:4;stroke-dasharray:none;stroke-opacity:1;visibility:visible"/><path d="m421.203 695.078 10.585-8.577" style="fill:none;stroke:#00ff4a;stroke-width:1.99999;stroke-linecap:round;stroke-linejoin:round;stroke-miterlimit:4;stroke-dasharray:none;stroke-opacity:1;visibility:visible"/></svg>