<svg xmlns="http://www.w3.org/2000/svg" baseProfile="full" height="1122.52" preserveAspectRatio="xMinYMin meet" style="width:602px;height:740px" width="793.701" xml:space="preserve"><path d="M179.364 333.011a111.71 111.71 0 0 1-.586.539l-.073.069M102.078 172.962a.693.693 0 0 0 .15.272.523.523 0 0 0 .125.107c.013.007.024.015.037.02M102.39 173.362l1.042.503M103.7 173.869l.29-.161M103.43 173.865a.432.432 0 0 0 .115.032.232.232 0 0 0 .117-.01c.022-.007.038-.019.056-.03M100.45 167.213l1.628 5.75M102.322 164.166c-.112.07-.226.138-.336.215a3.568 3.568 0 0 0-.536.472 4.568 4.568 0 0 0-.464.585 4.07 4.07 0 0 0-.385.69c-.06.142-.11.288-.163.436M104.72 163.957c-.058-.024-.114-.05-.17-.07a2.209 2.209 0 0 0-.665-.102 3.705 3.705 0 0 0-.655.049 3.007 3.007 0 0 0-.628.194c-.094.042-.188.092-.28.138M124.892 175.314v-.008M124.892 175.306l-.004-.958M124.256 173.282l-19.45-9.31M120.754 177.706a.096.096 0 0 0 .04-.05M120.724 177.722l.03-.017M112.666 173.892l7.97 3.833M120.636 177.725a.097.097 0 0 0 .088-.003M273.114 250.982a.099.099 0 0 0 .055.096M273.155 250.002l-.041.979M277.586 246.74a1.873 1.873 0 0 0-.136-.051 1.47 1.47 0 0 0-.543-.04 2.64 2.64 0 0 0-.56.091 3.037 3.037 0 0 0-.585.233 5.373 5.373 0 0 0-1.197.89 8.795 8.795 0 0 0-.556.626 7.516 7.516 0 0 0-.507.707 9.537 9.537 0 0 0-.243.42M273.169 251.078l8.841 4.25M297.717 262.837c.012-.007.022-.01.03-.019a.236.236 0 0 0 .073-.095M291.954 264.686c.028.039.056.079.086.115a.72.72 0 0 0 .173.125M292.213 264.926l1.174.565M293.726 265.489l3.99-2.644M293.387 265.49a.599.599 0 0 0 .128.041.272.272 0 0 0 .132-.008c.03-.01.054-.029.083-.043M297.82 262.723l2.026-4.312M180.136 332.314l-.29.261" style="fill:none;stroke:red;stroke-width:.999997;stroke-linecap:round;stroke-linejoin:round;stroke-miterlimit:4;stroke-dasharray:none;stroke-opacity:1;visibility:visible" visibility="hidden"/><path d="M297.9 278.48c.104-.248.21-.492.307-.746a12.861 12.861 0 0 0 .649-2.611c.064-.465.109-.941.128-1.419a16.457 16.457 0 0 0-.139-2.997 20.903 20.903 0 0 0-.676-3.112 25.325 25.325 0 0 0-.524-1.564 19.708 19.708 0 0 0-.643-1.545c-.137-.293-.288-.586-.435-.876M109.114 184.709a16.757 16.757 0 0 1-.496-1.67c-.082-.359-.15-.707-.206-1.051a11.606 11.606 0 0 1-.116-.982 11.124 11.124 0 0 1-.026-.905 8.37 8.37 0 0 1 .055-.808c.03-.252.072-.485.123-.7.05-.216.11-.412.176-.588.066-.18.141-.336.216-.472.08-.144.16-.264.244-.368a1.7 1.7 0 0 1 .265-.276 1.687 1.687 0 0 1 .712-.37c.125-.034.267-.061.425-.074.15-.011.316-.015.499-.003.192.011.407.038.635.083a6.688 6.688 0 0 1 1.466.481c.087.038.172.079.262.122M103.352 173.828a11.157 11.157 0 0 0-.43.72 9.028 9.028 0 0 0-.481 1.072 12.257 12.257 0 0 0-.619 2.422 13.8 13.8 0 0 0-.138 1.326 16.999 16.999 0 0 0 .096 2.822 20.95 20.95 0 0 0 .572 2.943c.126.467.268.935.425 1.404l.121.344M102.898 186.88l53.31 149.925M162.236 334.666l-53.12-149.957M248.943 386.694l48.958-108.214M291.534 275.615l-48.56 108.395M275.155 247.356l-151.269-72.524M113.348 177.129l169.122 81.492M282.47 258.62c.16.083.323.164.487.25.318.168.642.361.966.572a16.567 16.567 0 0 1 1.932 1.484c.322.281.632.584.939.89a19.919 19.919 0 0 1 1.733 2.039c.267.359.526.731.773 1.106.24.378.471.764.685 1.152.212.385.41.777.595 1.17.179.388.346.783.495 1.172.147.388.275.776.39 1.156.112.38.208.755.285 1.12.079.363.136.719.179 1.063.04.347.068.677.074.989a8.31 8.31 0 0 1-.122 1.704 5.063 5.063 0 0 1-.347 1.128" style="fill:none;stroke:red;stroke-width:1.66666;stroke-linecap:round;stroke-linejoin:round;stroke-miterlimit:4;stroke-dasharray:none;stroke-opacity:1;visibility:visible" visibility="hidden"/><path d="M248.511 387.946v.01c.002.009.004-.034.014-.084a4.42 4.42 0 0 1 .052-.21c.025-.09.065-.204.109-.337.05-.138.11-.295.184-.462.025-.056.05-.112.073-.17" style="fill:none;stroke:red;stroke-width:.999997;stroke-linecap:round;stroke-linejoin:round;stroke-miterlimit:4;stroke-dasharray:none;stroke-opacity:1;visibility:visible" visibility="hidden"/><path d="M242.974 384.009c-.08.18-.16.36-.232.538a12.69 12.69 0 0 0-.399 1.119 10.299 10.299 0 0 0-.252 1.037 7.59 7.59 0 0 0-.106.89 6.139 6.139 0 0 0 .012.799 5.72 5.72 0 0 0 .117.744 4.345 4.345 0 0 0 1.016 1.947c.18.193.375.375.59.531.208.153.428.286.655.4a4.464 4.464 0 0 0 1.387.416 5.623 5.623 0 0 0 1.455-.01 8.212 8.212 0 0 0 1.7-.45c.341-.127.682-.275 1.029-.447.359-.175.721-.371 1.092-.587a22.43 22.43 0 0 0 1.079-.676c.241-.162.488-.333.73-.502" style="fill:none;stroke:red;stroke-width:1.66666;stroke-linecap:round;stroke-linejoin:round;stroke-miterlimit:4;stroke-dasharray:none;stroke-opacity:1;visibility:visible" visibility="hidden"/><path d="m256.48 379.24-6.12 4.324" style="fill:none;stroke:red;stroke-width:.999997;stroke-linecap:round;stroke-linejoin:round;stroke-miterlimit:4;stroke-dasharray:none;stroke-opacity:1;visibility:visible" visibility="hidden"/><path d="m173.698 344.111 7.64-5.056M177.858 333.789l-7.652 5.038M170.206 338.827c-.106.066-.216.136-.322.195a5.364 5.364 0 0 1-.678.332 4.663 4.663 0 0 1-.67.21 4.193 4.193 0 0 1-.684.101 3.661 3.661 0 0 1-.706-.02 4.087 4.087 0 0 1-1.376-.423 4.917 4.917 0 0 1-.614-.367 6.313 6.313 0 0 1-.647-.525 7.283 7.283 0 0 1-1.157-1.387 9.835 9.835 0 0 1-.932-1.793c-.063-.155-.126-.32-.186-.483M156.209 336.806c.099.259.191.517.296.773.185.459.392.907.615 1.341.22.433.46.857.718 1.26.252.405.523.791.812 1.162.284.37.587.72.903 1.056a12.544 12.544 0 0 0 2.032 1.737 11.507 11.507 0 0 0 1.11.668c.375.198.761.372 1.152.522a10.379 10.379 0 0 0 2.387.613 10.161 10.161 0 0 0 2.42.03 10.57 10.57 0 0 0 2.379-.534c.392-.133.776-.291 1.153-.471a11.319 11.319 0 0 0 1.512-.852M252.849 389.758l7.365-5.24M196.836 322.32l-17.364 11.47M181.969 337.54l17.331-11.494M260.834 382.94l11.424-8.117M273.346 374.049l4.66-3.312M275.363 367.002l-4.669 3.305M269.613 371.073l-11.443 8.097" style="fill:none;stroke:red;stroke-width:1.66666;stroke-linecap:round;stroke-linejoin:round;stroke-miterlimit:4;stroke-dasharray:none;stroke-opacity:1;visibility:visible" visibility="hidden"/><path d="m277.394 367.411-.487-.291M278.41 369.24l-.116-.558M178.765 333.631c.599-.474 1.195-.949 1.832-1.374a11.807 11.807 0 0 1 2.493-1.272c.395-.145.804-.266 1.21-.385" style="fill:none;stroke:red;stroke-width:.999997;stroke-linecap:round;stroke-linejoin:round;stroke-miterlimit:4;stroke-dasharray:none;stroke-opacity:1;visibility:visible" visibility="hidden"/><path d="M179.373 333.042a22.33 22.33 0 0 1 1.385-1.175c.61-.464 1.264-.872 1.944-1.232a21.047 21.047 0 0 1 1.646-.773 12.335 12.335 0 0 1 1.742-.605c.124-.028.247-.058.37-.082M273.322 249.632c-.023.033-.047.065-.064.1a1.06 1.06 0 0 0-.067.317M291.977 264.671c-1.804-3.454-6.428-7.805-9.988-9.391M295.909 256.8c.096-.08.193-.156.251-.235a.372.372 0 0 0 .085-.232.527.527 0 0 0-.127-.319 1.816 1.816 0 0 0-.459-.383 5.28 5.28 0 0 0-.725-.374 6.213 6.213 0 0 0-.635-.239 4.224 4.224 0 0 0-.682-.16 2.819 2.819 0 0 0-.614-.023 1.804 1.804 0 0 0-.526.128 1.219 1.219 0 0 0-.404.289.963.963 0 0 0-.216.876 1.107 1.107 0 0 0 .216.437c.105.135.244.255.402.35.172.103.37.185.58.241.25.069.519.104.799.113a4.557 4.557 0 0 0 1.55-.233 2.29 2.29 0 0 0 .408-.18l.098-.056M100.464 166.588c-.007.018-.015.036-.022.058a.528.528 0 0 0-.025.199c.003.123.03.25.059.379M103.6 173.816l.92-.527 1.004-.379 1.073-.229 1.133-.073 1.182.08 1.221.232 1.248.386 1.263.538M104.312 164.972c-.102.076-.207.153-.274.246a.655.655 0 0 0-.118.306 1.05 1.05 0 0 0 .058.485c.072.201.196.391.367.553.17.168.383.298.633.384.18.06.374.095.582.104.208.006.428-.016.644-.056a4.844 4.844 0 0 0 1.124-.388 3.69 3.69 0 0 0 .414-.24.935.935 0 0 0 .248-.228c.051-.076.067-.146.043-.216a.49.49 0 0 0-.167-.21 2.243 2.243 0 0 0-.342-.214 6.84 6.84 0 0 0-1.246-.488 5.13 5.13 0 0 0-.92-.188 2.547 2.547 0 0 0-.545 0 1.324 1.324 0 0 0-.501.15M120.777 177.656l.323-.731.414-.67.486-.579.529-.459.544-.307.528-.142.488.029.42.2.215.201M124.861 174.381c.001-.06.001-.124-.004-.188a1.26 1.26 0 0 0-.032-.205c-.01-.028-.015-.055-.025-.084a.644.644 0 0 0-.03-.086M124.77 173.818a.43.43 0 0 0-.028-.068.777.777 0 0 0-.136-.198.867.867 0 0 0-.124-.119.983.983 0 0 0-.106-.081c-.04-.023-.079-.047-.12-.064a.352.352 0 0 0-.051-.024l-.01-.004-.004-.003M273.178 249.969c-.012.007-.023.021-.023.033M273.178 249.969a1.183 1.183 0 0 1 .012-.17.595.595 0 0 1 .047-.154l.026-.059.038-.046M293.731 265.485l-.005.002M277.68 246.758h0-.004c-.001-.002-.002-.004-.006-.004" style="fill:none;stroke:red;stroke-width:.999997;stroke-linecap:round;stroke-linejoin:round;stroke-miterlimit:4;stroke-dasharray:none;stroke-opacity:1;visibility:visible" visibility="hidden"/><path d="m284.818 256.95-1.37-.88-1.399-.75M291.954 264.686c.006-.003.02-.008.024-.015M282.01 255.329c.01.005.03.001.039-.009M103.714 173.861l-.014.008M100.477 167.184c-.02-.068-.043-.134-.056-.196a1.044 1.044 0 0 1-.024-.308.36.36 0 0 1 .021-.103c.004-.02.015-.041.023-.06M112.645 173.858l-1.193-.501-1.239-.388-1.216-.233-1.176-.076-1.127.069-1.066.23-.996.377-.918.525M104 173.701l.49-.245M124.861 174.381a.04.04 0 0 0 .027-.033M104.804 163.972h0-.002M124.256 173.288a.204.204 0 0 0-.05-.023l-.012-.004-.002-.003M120.777 177.656l.008.002h.005l.004-.004M124.48 175.117a1.493 1.493 0 0 0-1.782-.004M299.397 257.217c.133.033.262.07.385.13a1.399 1.399 0 0 1 .738 1.323 1.848 1.848 0 0 1-.101.49 2.23 2.23 0 0 1-.245.5 2.925 2.925 0 0 1-.374.474 2.337 2.337 0 0 1-.317.266 1.165 1.165 0 0 1-.282.146c-.091.034-.168.045-.236.019-.038-.015-.068-.039-.1-.06M181.34 339.055c.434-.3.718-.965.629-1.485M181.969 337.57l-.072-.61-.187-.634-.293-.631-.387-.593-.458-.528-.504-.433-.531-.319-.528-.19-.497-.05-.443.096-.21.11M256.48 379.24l.39-.19.484-.06.535.085.558.227.551.353.521.468.459.555.38.615.276.646.163.642.04.605-.087.541-.205.448-.318.335-.013.008M190.669 330.237a3.31 3.31 0 0 1-.08-.34 2.347 2.347 0 0 1-.033-.347c0-.121.008-.237.03-.345a.896.896 0 0 1 .127-.315.679.679 0 0 1 .219-.197.736.736 0 0 1 .26-.078.912.912 0 0 1 .598.163.93.93 0 0 1 .256.264 1 1 0 0 1 .124.32 1.08 1.08 0 0 1 .007.328 1.215 1.215 0 0 1-.092.333 1.727 1.727 0 0 1-.445.615 1.223 1.223 0 0 1-.238.165.652.652 0 0 1-.198.054.381.381 0 0 1-.176-.043.536.536 0 0 1-.171-.168 1.11 1.11 0 0 1-.144-.279l-.044-.13M199.3 326.043l.114-.086.226-.323.109-.43-.013-.506-.14-.544-.254-.543-.346-.501-.416-.42-.454-.31-.458-.175-.43-.029-.365.119-.037.023" style="fill:none;stroke:red;stroke-width:.999997;stroke-linecap:round;stroke-linejoin:round;stroke-miterlimit:4;stroke-dasharray:none;stroke-opacity:1;visibility:visible" visibility="hidden"/><path d="M199.653 324.117c-.05-.508-.459-1.127-.907-1.367M272.493 374.609l.105-.08.257-.167.296-.182.319-.221.264-.249.135-.232.018-.193-.085-.15-.18-.084-.248.039-.235.159-.194.236-.179.305-.175.36-.149.324-.05.104M272.39 374.578c-.032.062-.064.128-.09.172a.577.577 0 0 1-.042.07M269.613 371.078c.074-.053.146-.105.225-.155l.341-.212c.102-.061.194-.126.272-.181a1.28 1.28 0 0 0 .159-.13 1.56 1.56 0 0 1 .08-.081l.005-.009M278.007 370.737l.259-.28.157-.407.032-.495-.102-.55-.227-.555-.332-.523-.419-.457M277.375 367.469l-.465-.35-.485-.222-.466-.077-.408.078-.188.102" style="fill:none;stroke:red;stroke-width:.999997;stroke-linecap:round;stroke-linejoin:round;stroke-miterlimit:4;stroke-dasharray:none;stroke-opacity:1;visibility:visible" visibility="hidden"/><path d="M278.293 368.682c-.073-.472-.479-1.05-.9-1.272M299.898 258.36c-.481-.526-2.243.62-3.93 2.56l-.135.153M299.427 257.057c-.69-.2-2.373.93-3.792 2.54M297.802 262.745l2.03-4.31M295.835 261.075l-2.028 4.315M297.802 262.745l-3.993 2.645M299.365 257.14l-21.686-10.381M273.937 249.18l21.7 10.42M295.827 260.38a2.265 2.265 0 0 0-.052-.14 4.21 4.21 0 0 1-.134-.619.035.035 0 0 0-.004-.015v-.004" style="fill:none;stroke:red;stroke-width:.999997;stroke-linecap:round;stroke-linejoin:round;stroke-miterlimit:4;stroke-dasharray:none;stroke-opacity:1;visibility:visible" visibility="hidden"/><path d="m295.827 260.38.03.09a1.096 1.096 0 0 1 .04.26.847.847 0 0 1-.061.345M273.15 251.029a.045.045 0 0 0 .019.05M292.193 264.877c-.006.018.005.038.02.048M297.717 262.843a.219.219 0 0 0 .083-.098M293.367 265.443c-.002.02.006.04.02.047M293.731 265.485a.292.292 0 0 0 .079-.095M297.802 262.745c.007-.003.013-.01.018-.022M281.989 255.28c-.003.016.005.04.021.049M293.673 265.367a.13.13 0 0 0 .136.024M273.191 250.046l-.041.982M273.15 251.029l8.839 4.25M291.977 264.671a.524.524 0 0 0 .216.206M292.193 264.877l1.174.566M293.367 265.443a.213.213 0 0 0 .306-.077M295.7 261.053a1.167 1.167 0 0 0 .08-.33.781.781 0 0 0-.043-.323M295.7 261.053a.12.12 0 0 0 .134.022M273.322 249.632a1.164 1.164 0 0 1 .31-.287c.07-.045.146-.09.23-.13l.058-.025.014-.01h.003" style="fill:none;stroke:red;stroke-width:.999997;stroke-linecap:round;stroke-linejoin:round;stroke-miterlimit:4;stroke-dasharray:none;stroke-opacity:1;visibility:visible" visibility="hidden"/><path d="M295.738 260.402c.025 0 .07-.012.09-.022M295.738 260.402a2.524 2.524 0 0 1-.035-.144c-.021-.09-.033-.181-.045-.268a5.079 5.079 0 0 1-.02-.303v-.084M120.502 176.216c.028-.006.071-.024.095-.034M124.192 173.258l-19.39-9.286M124.865 175.302l-.004-.92M120.74 176.713l.006.96M120.746 177.673l.03-.017M124.724 175.2l.044.054M120.346 175.428l.439-.575.473-.51.498-.428.51-.338.51-.236.498-.137.476-.028.442.082M120.346 175.428l.004.002.002.014a1.213 1.213 0 0 0 .034.16c.014.041.02.081.036.126.014.05.031.102.051.154.016.056.037.11.06.164l.03.066.034.067M120.74 176.713c-.007-.057-.014-.117-.024-.177a1.283 1.283 0 0 0-.052-.192l-.032-.084-.035-.079M273.114 250.982c.001.023.017.043.036.048M273.155 250.002c.002.019.018.036.036.044M273.301 249.54c-.014.029-.002.07.022.092M273.3 249.54l.035-.04.042-.034a1.095 1.095 0 0 1 .248-.157c.035-.019.077-.037.117-.056.037-.017.084-.033.127-.05l.053-.016.013-.006h.003M100.476 167.222h-.01l-.009-.006-.005-.002-.002-.002M102.078 172.962v.003l.006.003.008.002.012.003M103.6 173.816a.09.09 0 0 0 .114.044M103.714 173.861l.286-.16M124.892 175.306v.008M120.754 177.706c.014-.008.024-.032.023-.049M112.642 173.844a.05.05 0 0 0 .024.048M120.613 177.676a.052.052 0 0 0 .024.049M120.724 177.722c.016-.012.028-.03.024-.049M120.613 177.676a.159.159 0 0 0 .135-.003M120.613 177.676l-.007-.958M100.476 167.222l1.628 5.751M102.104 172.974a.538.538 0 0 0 .262.34M102.365 173.314l1.041.502" style="fill:none;stroke:red;stroke-width:.999997;stroke-linecap:round;stroke-linejoin:round;stroke-miterlimit:4;stroke-dasharray:none;stroke-opacity:1;visibility:visible" visibility="hidden"/><path d="M103.406 173.816a.193.193 0 0 0 .194 0M112.642 173.844l7.97 3.832M120.606 176.718a1.54 1.54 0 0 0-.104-.504M120.606 176.718a.15.15 0 0 0 .135-.005M100.946 166.116h-.002l-.016.008-.05.03a1.31 1.31 0 0 0-.202.153.857.857 0 0 0-.188.227c-.012.02-.018.038-.026.054M120.502 176.216l-20.038-9.628M120.346 175.428l.004.005v.015l.003.05a2.348 2.348 0 0 0 .103.574c.016.048.029.096.046.144M102.365 173.314c-.003.016.008.038.025.048M103.986 173.705l.014-.004M103.406 173.816a.05.05 0 0 0 .024.049" style="fill:none;stroke:red;stroke-width:.999997;stroke-linecap:round;stroke-linejoin:round;stroke-miterlimit:4;stroke-dasharray:none;stroke-opacity:1;visibility:visible" visibility="hidden"/><path d="M100.441 166.517a.075.075 0 0 0 .023.07" style="fill:none;stroke:red;stroke-width:.999997;stroke-linecap:round;stroke-linejoin:round;stroke-miterlimit:4;stroke-dasharray:none;stroke-opacity:1;visibility:visible" visibility="hidden"/><path d="M258.763 382.935c.015.915-1.078 1.67-2.438 1.69-1.362.023-2.476-.701-2.488-1.613-.015-.912 1.076-1.671 2.437-1.691 1.361-.019 2.475.703 2.49 1.615" style="fill:none;fill-opacity:1;fill-rule:nonzero;stroke:red;stroke-width:1.33333;visibility:visible" visibility="hidden"/><path d="m179.373 333.042.763-.728" style="fill:none;stroke:red;stroke-width:.999997;stroke-linecap:round;stroke-linejoin:round;stroke-miterlimit:4;stroke-dasharray:none;stroke-opacity:1;visibility:visible" visibility="hidden"/><path d="m291.977 264.671 4.59-1.061M273.937 249.18l1.218-1.824" style="fill:none;stroke:red;stroke-width:1.66666;stroke-linecap:round;stroke-linejoin:round;stroke-miterlimit:4;stroke-dasharray:none;stroke-opacity:1;visibility:visible" visibility="hidden"/><path d="m258.764 382.936-10.253 5.01M252.847 389.758l-2.487-6.194" style="fill:none;stroke:red;stroke-width:.999997;stroke-linecap:round;stroke-linejoin:round;stroke-miterlimit:4;stroke-dasharray:none;stroke-opacity:1;visibility:visible" visibility="hidden"/><path d="m260.214 384.518.62-1.578M272.258 374.823l1.088-.774M256.48 379.24l1.69-.07" style="fill:none;stroke:red;stroke-width:1.66666;stroke-linecap:round;stroke-linejoin:round;stroke-miterlimit:4;stroke-dasharray:none;stroke-opacity:1;visibility:visible" visibility="hidden"/><path d="m297.717 262.837-1.807-6.037M102.322 164.166l1.99.806M293.367 265.443l-8.549-8.493M292.213 264.925l6.652-4.42" style="fill:none;stroke:red;stroke-width:.999997;stroke-linecap:round;stroke-linejoin:round;stroke-miterlimit:4;stroke-dasharray:none;stroke-opacity:1;visibility:visible" visibility="hidden"/><path d="m248.511 387.946 10.253-5.01" style="fill:none;fill-opacity:1;fill-rule:nonzero;stroke:red;stroke-width:1.33333;visibility:visible" visibility="hidden"/><path d="M433.839 316.138c.196-1.261.393-2.525.587-3.788.244-1.608.484-3.212.722-4.817" style="fill:none;stroke:#00ff4a;stroke-width:.999997;stroke-linecap:round;stroke-linejoin:round;stroke-miterlimit:4;stroke-dasharray:none;stroke-opacity:1;visibility:visible" visibility="hidden"/><path d="m168.569 434.791.028.001c1.873.146 3.741.282 5.61.43a110.905 110.905 0 0 1 4.511.434l.407.051" style="fill:none;stroke:#00ff4a;stroke-width:1.66666;stroke-linecap:round;stroke-linejoin:round;stroke-miterlimit:4;stroke-dasharray:none;stroke-opacity:1;visibility:visible" visibility="hidden"/><path d="m300.789 252.89-4.339 2.854M298.037 252.284c-.2.022-.4.042-.598.068a12.193 12.193 0 0 0-.653.088 7.324 7.324 0 0 0-.541.113 2.87 2.87 0 0 0-.451.147 2.247 2.247 0 0 0-.301.157M310.54 252.276a5.075 5.075 0 0 0-.394-1.19 5.941 5.941 0 0 0-.786-1.276 4.9 4.9 0 0 0-1.058-.984 4.133 4.133 0 0 0-.59-.34 3.492 3.492 0 0 0-.621-.218 2.733 2.733 0 0 0-1.196-.042 1.95 1.95 0 0 0-.541.172 3.063 3.063 0 0 0-.294.183M295.493 252.869c-.075.05-.148.1-.213.161a1.048 1.048 0 0 0-.202.283.72.72 0 0 0-.099.315l.002.028M299.343 252.618a2.857 2.857 0 0 1-.493.76c-.124.14-.256.264-.384.386M305.054 248.566l-5.015 3.295M300.013 251.898a1.375 1.375 0 0 0-.503.472c-.052.084-.099.176-.147.268M294.974 253.657l-.13 1.317M207.707 310.477c-.086.062-.172.121-.244.192a1.047 1.047 0 0 0-.22.301.975.975 0 0 0-.113.333.847.847 0 0 0-.003.115" style="fill:none;stroke:#00ff4a;stroke-width:.999997;stroke-linecap:round;stroke-linejoin:round;stroke-miterlimit:4;stroke-dasharray:none;stroke-opacity:1;visibility:visible" visibility="hidden"/><path d="m199.633 324.547 15.31-10.181" style="fill:none;stroke:#00ff4a;stroke-width:.666665;stroke-linecap:round;stroke-linejoin:round;stroke-miterlimit:4;stroke-dasharray:none;stroke-opacity:1;visibility:visible" visibility="hidden"/><path d="M237.562 286.815c-1.496 1.018-2.999 2.04-4.485 3.066a454.707 454.707 0 0 0-21.708 16.008 469.552 469.552 0 0 0-5.954 4.757 750.258 750.258 0 0 0-6.147 5.056 665.768 665.768 0 0 0-6.396 5.353 366.028 366.028 0 0 0-6.588 5.715 667.574 667.574 0 0 0-6.092 5.492M284.955 260.182c-.615.313-1.229.628-1.841.945-1.027.527-2.044 1.06-3.036 1.576-.961.502-1.896.987-2.848 1.478-.97.501-1.961 1.006-2.961 1.525a448.943 448.943 0 0 0-4.072 2.134 807.569 807.569 0 0 0-4.418 2.37l-1.814.993-1.631.9c-.457.251-.91.507-1.365.758l-1.099.616c-.219.121-.437.246-.655.368-.168.094-.337.192-.504.284a111.886 111.886 0 0 1-.65.368l-.972.553-1.302.744c-.542.31-1.084.627-1.625.939-.65.377-1.3.754-1.952 1.137-.757.443-1.513.892-2.273 1.34a512.044 512.044 0 0 0-5.502 3.31c-1.077.657-2.152 1.32-3.224 1.99a654.188 654.188 0 0 0-3.151 1.98" style="fill:none;stroke:#00ff4a;stroke-width:1.66666;stroke-linecap:round;stroke-linejoin:round;stroke-miterlimit:4;stroke-dasharray:none;stroke-opacity:1;visibility:visible" visibility="hidden"/><path d="m198.746 322.749-.524-.312M199.737 324.72l-.083-.604" style="fill:none;stroke:#00ff4a;stroke-width:.999997;stroke-linecap:round;stroke-linejoin:round;stroke-miterlimit:4;stroke-dasharray:none;stroke-opacity:1;visibility:visible" visibility="hidden"/><path d="M168.554 434.512a2095.572 2095.572 0 0 1 .78-26.612c.224-6.328.47-12.678.736-19.043.254-6.195.524-12.395.776-18.636.25-6.238.478-12.516.81-18.767.049-.894.098-1.781.168-2.665.072-.88.16-1.754.313-2.589.079-.46.183-.911.283-1.361" style="fill:none;stroke:#00ff4a;stroke-width:1.66666;stroke-linecap:round;stroke-linejoin:round;stroke-miterlimit:4;stroke-dasharray:none;stroke-opacity:1;visibility:visible" visibility="hidden"/><path d="M274.682 373.098c2.35 1.345 4.707 2.695 7.072 4.045l32.65 18.67M259.122 364.2l11.21 6.408M193.58 329.84c.633.065 1.27.13 1.917.23 1.208.191 2.45.52 3.703.923a36.573 36.573 0 0 1 3.039 1.133 49.916 49.916 0 0 1 3.069 1.439 104.037 104.037 0 0 1 3.079 1.64c1.023.568 2.041 1.152 3.065 1.735 4.134 2.365 8.278 4.737 12.442 7.115l25.11 14.36 4.328 2.475" style="fill:none;stroke:#00ff4a;stroke-width:.999997;stroke-linecap:round;stroke-linejoin:round;stroke-miterlimit:4;stroke-dasharray:none;stroke-opacity:1;visibility:visible" visibility="hidden"/><path d="M182.192 347.491h0c.213-.565.452-1.101.714-1.62.27-.526.575-1.03.904-1.501.327-.473.682-.916 1.06-1.331.368-.402.762-.773 1.182-1.116a11.45 11.45 0 0 1 1.316-.933 11.887 11.887 0 0 1 3.112-1.317 13.35 13.35 0 0 1 1.682-.339 14.505 14.505 0 0 1 1.775-.13 15.58 15.58 0 0 1 1.916.082c.65.067 1.314.167 1.987.304.653.135 1.314.303 1.979.501a27.677 27.677 0 0 1 4.139 1.627 45.267 45.267 0 0 1 2.136 1.125c2.744 1.512 5.51 3.15 8.287 4.778a1785.06 1785.06 0 0 0 8.361 4.849c5.592 3.227 11.208 6.459 16.85 9.705l10.467 6.022" style="fill:none;stroke:#00ff4a;stroke-width:1.66666;stroke-linecap:round;stroke-linejoin:round;stroke-miterlimit:4;stroke-dasharray:none;stroke-opacity:1;visibility:visible" visibility="hidden"/><path d="M433.842 316.138c-.014.05-.026.096-.06.139-.022.033-.057.061-.089.093M179.133 435.682l.019-.099.008-.07M179.117 435.432c0 .063-.003.126 0 .175a.427.427 0 0 0 .005.085c.002.002.003 0 .006-.004M433.692 316.37c-12.35 9.164-24.914 18.49-37.654 27.948l-19.93 14.79M435.002 307.766c-9.5 7.007-19.147 14.125-28.898 21.321-9.497 7.007-19.089 14.088-28.837 21.279M314.705 404.68l40.845-30.314 20.556-15.26M314.403 395.812c.09.04.177.083.275.114a1.464 1.464 0 0 0 .608.037c.096-.016.19-.04.268-.076a1.04 1.04 0 0 0 .145-.085M315.698 395.802c15.567-11.488 30.841-22.759 45.87-33.852 5.278-3.892 10.527-7.765 15.7-11.584M267.477 378.222c2.986 1.717 5.993 3.444 9.001 5.177 12.224 7.041 24.53 14.133 36.937 21.287M255.813 371.509l7.272 4.186M179.117 435.432c.048-2.832.096-5.678.135-8.514.037-2.832.064-5.666.098-8.528.06-5.722.134-11.584.228-17.504.07-4.167.148-8.363.247-12.602.097-4.24.212-8.522.355-12.834a1746.662 1746.662 0 0 1 .47-13.037c.085-2.186.172-4.38.26-6.571.029-.733.058-1.468.104-2.19.044-.722.106-1.434.194-2.13a19.333 19.333 0 0 1 .429-2.265c.16-.612.343-1.198.555-1.764" style="fill:none;stroke:#00ff4a;stroke-width:.999997;stroke-linecap:round;stroke-linejoin:round;stroke-miterlimit:4;stroke-dasharray:none;stroke-opacity:1;visibility:visible" visibility="hidden"/><path d="M312.4 248.006c.997-.09 1.993-.18 3.017-.185a23.166 23.166 0 0 1 3.138.209c1.06.137 2.135.337 3.218.599a32.003 32.003 0 0 1 3.614 1.099 41.004 41.004 0 0 1 3.63 1.56 108.457 108.457 0 0 1 3.741 1.931l3.765 2.003c7.789 4.139 15.635 8.255 23.525 12.4 15.855 8.335 31.894 16.808 48.103 25.356 8.821 4.652 17.693 9.325 26.648 14.045M179.16 435.515c.162-1.287.324-2.567.532-3.828a55.67 55.67 0 0 1 1.768-7.447 61.453 61.453 0 0 1 3.244-8.269 66.387 66.387 0 0 1 2.378-4.521 68.72 68.72 0 0 1 2.772-4.41 75.093 75.093 0 0 1 3.256-4.417 81.314 81.314 0 0 1 3.654-4.275 85.56 85.56 0 0 1 4.035-4.122 98.484 98.484 0 0 1 2.808-2.576 99.47 99.47 0 0 1 2.96-2.501" style="fill:none;stroke:#00ff4a;stroke-width:1.66666;stroke-linecap:round;stroke-linejoin:round;stroke-miterlimit:4;stroke-dasharray:none;stroke-opacity:1;visibility:visible" visibility="hidden"/><path d="M308.669 249.122c.14-.037.28-.077.421-.11.635-.16 1.304-.243 1.971-.326M435.002 307.766c.045-.047.096-.092.124-.144a.285.285 0 0 0 .034-.17.397.397 0 0 0-.062-.174.603.603 0 0 0-.156-.163c-.04-.033-.09-.06-.142-.092" style="fill:none;stroke:#00ff4a;stroke-width:.999997;stroke-linecap:round;stroke-linejoin:round;stroke-miterlimit:4;stroke-dasharray:none;stroke-opacity:1;visibility:visible" visibility="hidden"/><path d="M168.568 434.812c-.003-.002-.008-.005-.01-.025-.004-.023-.004-.065-.004-.121v-.154" style="fill:none;stroke:#00ff4a;stroke-width:1.66666;stroke-linecap:round;stroke-linejoin:round;stroke-miterlimit:4;stroke-dasharray:none;stroke-opacity:1;visibility:visible" visibility="hidden"/><path d="M308.44 248.937c.37-.137.74-.273 1.12-.384.906-.273 1.872-.413 2.84-.55M310.549 252.273v.003M300.12 253.333c.08-.11.162-.219.26-.301a1.159 1.159 0 0 1 .644-.224c.241-.02.501 0 .767.085.174.055.35.135.523.213M302.314 253.106c.275.166.544.334.796.55.255.214.49.479.691.761.206.28.375.586.501.892.133.306.217.619.252.924a2.427 2.427 0 0 1-.044.857 1.944 1.944 0 0 1-.319.696c-.15.199-.33.374-.564.45-.074.023-.157.034-.236.048M207.707 310.467l-.005.004M299.793 252.069a50.03 50.03 0 0 1-.82.137c-.347.048-.71.09-1.073.128M298.665 253.565c-.195.095-.385.195-.572.272a3.533 3.533 0 0 1-.9.263M296.74 254.14a5.33 5.33 0 0 0 .455-.037M295.493 252.856l-.006.004M298.12 254.013l.37-.283M197.85 322.285c1.138-.905 2.27-1.806 3.408-2.695a380.719 380.719 0 0 1 5.639-4.28" style="fill:none;stroke:#00ff4a;stroke-width:.999997;stroke-linecap:round;stroke-linejoin:round;stroke-miterlimit:4;stroke-dasharray:none;stroke-opacity:1;visibility:visible" visibility="hidden"/><path d="M168.554 434.512c1.764.122 3.532.248 5.296.4 1.756.154 3.51.338 5.267.52" style="fill:none;stroke:#00ff4a;stroke-width:1.66666;stroke-linecap:round;stroke-linejoin:round;stroke-miterlimit:4;stroke-dasharray:none;stroke-opacity:1;visibility:visible" visibility="hidden"/><path d="M315.698 395.802c-.168 1.486-.335 2.968-.499 4.448-.166 1.48-.329 2.957-.493 4.43M295.702 252.843a.224.224 0 0 0-.21.015M295.702 252.844a1.032 1.032 0 0 0-.128.1.717.717 0 0 0-.174.24.684.684 0 0 0-.021.429.95.95 0 0 0 .186.351 1.275 1.275 0 0 0 .37.296c.145.082.303.144.47.174.237.047.489.042.745.003a1.817 1.817 0 0 0 .97-.424M310.55 252.276v.004l-.004.028-.02.025-.028.03-.044.028M300.013 251.892c.013-.012.02-.023.032-.032.209-.226.54-.28.882-.294.34-.01.69.024 1.063.134a4.32 4.32 0 0 1 1.117.534c.37.24.727.542 1.055.88.328.342.633.723.868 1.128.25.43.423.884.597 1.341" style="fill:none;stroke:#00ff4a;stroke-width:.999997;stroke-linecap:round;stroke-linejoin:round;stroke-miterlimit:4;stroke-dasharray:none;stroke-opacity:1;visibility:visible" visibility="hidden"/><path d="M297.9 252.336c-.396.052-.797.098-1.19.172a3.616 3.616 0 0 0-.63.158 3.087 3.087 0 0 0-.376.179M298.49 253.73l-2.04 2.014" style="fill:none;stroke:#00ff4a;stroke-width:.999997;stroke-linecap:round;stroke-linejoin:round;stroke-miterlimit:4;stroke-dasharray:none;stroke-opacity:1;visibility:visible" visibility="hidden"/><path d="m197.85 322.285 17.093-7.919" style="fill:none;stroke:#00ff4a;stroke-width:.666665;stroke-linecap:round;stroke-linejoin:round;stroke-miterlimit:4;stroke-dasharray:none;stroke-opacity:1;visibility:visible" visibility="hidden"/><path d="m295.493 252.857-10.538 7.325" style="fill:none;stroke:#00ff4a;stroke-width:1.66666;stroke-linecap:round;stroke-linejoin:round;stroke-miterlimit:4;stroke-dasharray:none;stroke-opacity:1;visibility:visible" visibility="hidden"/><path d="m270.332 370.608 4.35 2.49M253.332 360.89l5.79 3.31M274.682 373.098l-4.35-2.49M259.122 364.2l-5.79-3.31" style="fill:none;stroke:#00ff4a;stroke-width:.999997;stroke-linecap:round;stroke-linejoin:round;stroke-miterlimit:4;stroke-dasharray:none;stroke-opacity:1;visibility:visible" visibility="hidden"/><path d="m255.813 371.509-5.754-3.312" style="fill:none;stroke:#00ff4a;stroke-width:1.66666;stroke-linecap:round;stroke-linejoin:round;stroke-miterlimit:4;stroke-dasharray:none;stroke-opacity:1;visibility:visible" visibility="hidden"/><path d="m263.085 375.695 4.392 2.527M250.059 368.197l5.754 3.312M267.477 378.222l-4.392-2.527M312.4 248.006l-1.339.68M299.793 252.069l3.598 6.215M207.702 310.471l-.805 4.839" style="fill:none;stroke:#00ff4a;stroke-width:.999997;stroke-linecap:round;stroke-linejoin:round;stroke-miterlimit:4;stroke-dasharray:none;stroke-opacity:1;visibility:visible" visibility="hidden"/><path d="M316.44 53.139a.59.59 0 0 0 .132.248.37.37 0 0 0 .117.093l.037.019M316.726 53.497l1.004.416M317.983 53.905l.158-.085M317.73 53.913a.477.477 0 0 0 .113.024.232.232 0 0 0 .112-.017c.016-.007.03-.016.046-.025M315.186 47.848l1.252 5.29M316.775 45.167c-.097.06-.194.117-.288.183a3.048 3.048 0 0 0-.441.402 4.216 4.216 0 0 0-.703 1.117c-.056.139-.103.282-.152.424M318.753 45.075c-.06-.028-.116-.059-.178-.083a1.65 1.65 0 0 0-.555-.11 2.41 2.41 0 0 0-.546.03 2.013 2.013 0 0 0-.517.165c-.063.027-.122.059-.182.09M338.024 54.496l.046-.737M334.668 56.59a.09.09 0 0 0 .039-.04M334.643 56.604l.025-.016M326.903 53.45l7.667 3.157M334.57 56.608a.087.087 0 0 0 .075-.004M337.412 52.715l-18.682-7.667M480.493 116.637a.095.095 0 0 0 .058.093M480.593 115.72l-.1.916M484.328 112.995l-.012-.01a1.017 1.017 0 0 0-.446-.113 1.941 1.941 0 0 0-.45.016 2.027 2.027 0 0 0-.46.14 2.87 2.87 0 0 0-.48.26 3.783 3.783 0 0 0-.496.392 5.421 5.421 0 0 0-.483.515 6.093 6.093 0 0 0-.449.598c-.104.164-.204.338-.305.51M480.748 115.303l-.053.082M480.55 116.73l8.414 3.466M498.163 128.345c.025.036.05.072.081.105a.483.483 0 0 0 .127.095l.032.012M498.403 128.557l1.117.465M499.837 129l3.19-2.11M499.521 129.022c.04.011.08.023.122.028a.239.239 0 0 0 .127-.017.203.203 0 0 0 .045-.028M503.127 126.78l2.23-4.127M504.945 121.45l-20.654-8.473M505.13 121.572l-.075-.047M505.056 121.525l-.11-.072" style="fill:none;stroke:#9500ff;stroke-width:.999997;stroke-linecap:round;stroke-linejoin:round;stroke-miterlimit:4;stroke-dasharray:none;stroke-opacity:1;visibility:visible"/><path d="M349.494 210.308a12.92 12.92 0 0 1 .29 1.588 16.4 16.4 0 0 1 .117 2.202 14.743 14.743 0 0 1-.187 2.202 17.777 17.777 0 0 1-.204 1.06 13.365 13.365 0 0 1-.61 1.958 12.983 12.983 0 0 1-.393.869 9.141 9.141 0 0 1-.907 1.459 6.733 6.733 0 0 1-.99 1.053 6.435 6.435 0 0 1-.43.321M349.367 227.86c.187-.132.373-.26.555-.398.306-.23.6-.478.882-.746a12.396 12.396 0 0 0 1.588-1.812c.244-.338.48-.69.696-1.056.223-.366.43-.75.623-1.142.196-.393.379-.8.544-1.214.168-.418.321-.844.465-1.282.136-.434.26-.877.371-1.325a21.48 21.48 0 0 0 .579-4.176c.016-.472.018-.945.006-1.419a19.187 19.187 0 0 0-.08-1.412c-.041-.47-.101-.934-.176-1.394a20.006 20.006 0 0 0-.248-1.3l-.052-.227M346.18 223.02l-6.447 4.24M342.934 232.113l6.433-4.253M421.776 262.313l-6.193 4.376M419.03 271.534l6.18-4.396M425.212 267.138l.463-.336c.303-.228.615-.472.932-.728a37.94 37.94 0 0 0 1.887-1.644c.314-.288.63-.59.948-.9a57.232 57.232 0 0 0 2.792-2.94 58.515 58.515 0 0 0 2.585-3.147c.268-.351.531-.703.78-1.051.255-.354.499-.7.731-1.046a33.973 33.973 0 0 0 1.27-1.996c.05-.08.095-.165.14-.245M432.587 250.169a27.627 27.627 0 0 1-.241.416 45.703 45.703 0 0 1-.496.8 35.305 35.305 0 0 1-1.207 1.75 42.525 42.525 0 0 1-1.433 1.864c-.252.313-.515.629-.78.939a38.01 38.01 0 0 1-.81.928c-.27.308-.546.61-.828.906a32.64 32.64 0 0 1-.832.87 68.88 68.88 0 0 1-.831.825 33.948 33.948 0 0 1-2.344 2.076c-.237.194-.47.374-.689.537-.11.08-.214.157-.32.231M317.34 53.753c-.072.082-.146.163-.216.25a7.547 7.547 0 0 0-.679.972 12.835 12.835 0 0 0-.586 1.064 12.924 12.924 0 0 0-.869 2.353 15.088 15.088 0 0 0-.441 2.605 16.708 16.708 0 0 0 .013 2.748c.035.467.088.936.168 1.406.081.468.181.938.281 1.404M320.762 65.161c-.04-.18-.083-.357-.116-.534a11.813 11.813 0 0 1-.23-2.078 10.264 10.264 0 0 1 .141-1.901 7.625 7.625 0 0 1 .458-1.63c.103-.247.215-.476.337-.69a5.38 5.38 0 0 1 .397-.597 4.43 4.43 0 0 1 .457-.514 3.947 3.947 0 0 1 1.121-.76 4.067 4.067 0 0 1 1.346-.34c.22-.016.45-.017.687-.002a5.99 5.99 0 0 1 1.594.325c.143.052.285.107.432.164M315.011 66.553l34.483 143.753M355.12 208.956 320.76 65.16M482.028 113.645 337.074 54.107M327.386 56.603l161.84 66.8M437.742 253.104l63.6-110.83M495.897 139.198 432.588 250.17M501.343 142.273c.126-.232.253-.461.37-.696.197-.392.37-.801.527-1.217a14.605 14.605 0 0 0 .7-2.632c.08-.462.133-.928.172-1.4a17.032 17.032 0 0 0-.036-2.895 17.24 17.24 0 0 0-.203-1.47 18.928 18.928 0 0 0-.772-2.923c-.144-.41-.311-.815-.478-1.222M489.225 123.404a9.65 9.65 0 0 1 1.368.694c.307.182.607.384.9.603a12.733 12.733 0 0 1 1.69 1.519 13.004 13.004 0 0 1 1.456 1.853 14.867 14.867 0 0 1 1.136 2.088 14.057 14.057 0 0 1 .745 2.203 12.11 12.11 0 0 1 .333 2.178c.018.355.02.708.008 1.046a9.107 9.107 0 0 1-.28 1.914 8.2 8.2 0 0 1-.281.854 6.48 6.48 0 0 1-.35.75l-.053.092" style="fill:none;stroke:#9500ff;stroke-width:1.66666;stroke-linecap:round;stroke-linejoin:round;stroke-miterlimit:4;stroke-dasharray:none;stroke-opacity:1;visibility:visible"/><path d="m324.493 241.402.264.224M323.84 240.237l.1.33" style="fill:none;stroke:#9500ff;stroke-width:.999997;stroke-linecap:round;stroke-linejoin:round;stroke-miterlimit:4;stroke-dasharray:none;stroke-opacity:1;visibility:visible"/><path d="m326.537 241.962 15.937-10.54M340.188 227.957l-15.955 10.51" style="fill:none;stroke:#9500ff;stroke-width:1.66666;stroke-linecap:round;stroke-linejoin:round;stroke-miterlimit:4;stroke-dasharray:none;stroke-opacity:1;visibility:visible"/><path d="m400.002 280.603.102.243" style="fill:none;stroke:#9500ff;stroke-width:.999997;stroke-linecap:round;stroke-linejoin:round;stroke-miterlimit:4;stroke-dasharray:none;stroke-opacity:1;visibility:visible"/><path d="m416.072 267.383-10.78 7.637M404.346 275.69l-4.062 2.872M402.764 282.053l4.058-2.883M407.77 278.497l10.765-7.654" style="fill:none;stroke:#9500ff;stroke-width:1.66666;stroke-linecap:round;stroke-linejoin:round;stroke-miterlimit:4;stroke-dasharray:none;stroke-opacity:1;visibility:visible"/><path d="M315.246 47.265a.564.564 0 0 0-.066.246 1.672 1.672 0 0 0 .038.348M318.7 45.815a.93.93 0 0 0-.212.198.49.49 0 0 0-.071.258.827.827 0 0 0 .103.409c.082.17.213.33.383.467a1.707 1.707 0 0 0 .618.318 2.093 2.093 0 0 0 .545.08 3.08 3.08 0 0 0 1.112-.2c.167-.058.32-.118.45-.184.134-.068.25-.131.334-.193a.533.533 0 0 0 .175-.177.147.147 0 0 0-.018-.164.624.624 0 0 0-.197-.16 3.924 3.924 0 0 0-.35-.174 8.553 8.553 0 0 0-1.162-.412 4.933 4.933 0 0 0-.82-.17 2.356 2.356 0 0 0-.472-.014 1.245 1.245 0 0 0-.335.078.777.777 0 0 0-.082.04M334.692 56.547l.296-.66.363-.598.41-.506.435-.387.441-.25.418-.094.375.061.312.218.07.077M337.412 52.715l.075.032M338.052 53.781c.003-.058.008-.118.006-.178a1.023 1.023 0 0 0-.024-.187c-.006-.024-.01-.052-.018-.077a1.016 1.016 0 0 0-.024-.079M337.991 53.261a1.22 1.22 0 0 0-.027-.061l-.03-.06a1.143 1.143 0 0 0-.084-.125 2.756 2.756 0 0 0-.108-.108 1.303 1.303 0 0 0-.095-.071.952.952 0 0 0-.105-.063l-.04-.021-.014-.003-.002-.002M480.608 115.701c-.007.003-.013.015-.015.02M480.608 115.701c.01-.056.016-.11.027-.161a.613.613 0 0 1 .085-.2.338.338 0 0 1 .041-.05M503.025 126.89a.317.317 0 0 0 .088-.096M499.82 129.012a.26.26 0 0 0 .105-.11M505.357 122.653l-.005.007-.008.01M498.18 128.332a.055.055 0 0 0-.017.013M488.963 120.197c.01 0 .022 0 .027-.007M480.784 115.368c-.023.03-.05.064-.068.099a1.004 1.004 0 0 0-.083.297M498.19 128.332c-1.639-3.178-5.888-6.944-9.24-8.188M502.032 121.075c.073-.061.148-.121.19-.183a.219.219 0 0 0 .028-.177c-.018-.086-.081-.165-.174-.243a2.367 2.367 0 0 0-.48-.298 9.65 9.65 0 0 0-1.283-.504 5.139 5.139 0 0 0-.606-.145 2.749 2.749 0 0 0-.524-.033 1.357 1.357 0 0 0-.443.093.83.83 0 0 0-.317.23.688.688 0 0 0-.153.341.84.84 0 0 0 .04.387 1.09 1.09 0 0 0 .235.365c.107.112.243.21.396.29.163.086.35.152.55.195.236.053.482.08.736.084.293.003.6-.024.89-.08.171-.033.341-.075.494-.127a2.31 2.31 0 0 0 .341-.146.562.562 0 0 0 .08-.05M505.344 122.67a5.79 5.79 0 0 0 .076-.164.927.927 0 0 0 .039-.441l-.022-.085M504.99 121.472l.001.001c.006 0 .013.004.017.007l.043.019c.029.021.057.049.082.067.038.025.077.047.107.081a.157.157 0 0 0 .028.023.793.793 0 0 1 .147.245c.008.024.017.04.022.065M326.626 53.32l.256.088M338.052 53.781c.008-.001.02-.016.02-.024M326.903 53.45h-.002l-.007-.004-.007-.009-.004-.01-.002-.011v-.015M334.692 56.547l.015.002" style="fill:none;stroke:#9500ff;stroke-width:.999997;stroke-linecap:round;stroke-linejoin:round;stroke-miterlimit:4;stroke-dasharray:none;stroke-opacity:1;visibility:visible"/><path d="M337.562 54.305a1.057 1.057 0 0 0-1.238.006M317.998 53.897l-.015.008M315.205 47.83a1.185 1.185 0 0 1-.051-.367 1.255 1.255 0 0 1 .01-.106.507.507 0 0 1 .026-.096l.03-.061M326.93 53.447c-2.541-1.379-6.54-1.178-8.932.45M343.636 230.665l-.04-.575-.156-.6-.262-.584-.355-.545-.427-.483-.484-.388-.509-.28-.515-.154-.494-.02-.444.109-.378.24-.285.353-.187.455-.072.525v.003M414.888 268.222l.012-.227.109-.52.224-.438.33-.33.415-.217.485-.08.521.055.543.185.53.313.496.418.427.506.346.568.244.6.13.606.01.574-.111.52-.224.437-.332.334-.416.21-.483.081-.522-.057-.27-.075M323.84 240.237l-.052-.197-.058-.506.068-.457.182-.37.289-.264.37-.131.426.013.45.15.439.283.396.389.328.466.23.517.114.518-.004.486-.13.419-.238.323-.332.194-.4.06M324.755 241.626c.259.262.795.494 1.162.504" style="fill:none;stroke:#9500ff;stroke-width:.999997;stroke-linecap:round;stroke-linejoin:round;stroke-miterlimit:4;stroke-dasharray:none;stroke-opacity:1;visibility:visible"/><path d="M342.474 231.422a1.236 1.236 0 0 0 .502-1.036M341.315 232.189a1.608 1.608 0 0 0 2.32-1.525" style="fill:none;stroke:#9500ff;stroke-width:.999997;stroke-linecap:round;stroke-linejoin:round;stroke-miterlimit:4;stroke-dasharray:none;stroke-opacity:1;visibility:visible"/><path d="M334.766 235.093a1.101 1.101 0 0 1-.036.636 1.485 1.485 0 0 1-.152.313 1.512 1.512 0 0 1-.219.275 1.037 1.037 0 0 1-.219.175.493.493 0 0 1-.174.064.26.26 0 0 1-.15-.028.397.397 0 0 1-.136-.135 1.115 1.115 0 0 1-.126-.25 2.362 2.362 0 0 1-.094-.299 2.908 2.908 0 0 1-.08-.629c.006-.111.016-.217.04-.313a.69.69 0 0 1 .13-.257.52.52 0 0 1 .204-.139.593.593 0 0 1 .232-.038.879.879 0 0 1 .537.228.856.856 0 0 1 .197.274l.046.123" style="fill:none;stroke:#9500ff;stroke-width:1.66666;stroke-linecap:round;stroke-linejoin:round;stroke-miterlimit:4;stroke-dasharray:none;stroke-opacity:1;visibility:visible"/><path d="M408.25 278.014c.028-.07.057-.141.066-.204a.29.29 0 0 0-.036-.171.267.267 0 0 0-.124-.114.299.299 0 0 0-.201-.012.463.463 0 0 0-.21.11.943.943 0 0 0-.181.195 2.11 2.11 0 0 0-.158.263 5.696 5.696 0 0 0-.168.325 9.61 9.61 0 0 1-.282.568 2.02 2.02 0 0 1-.088.141c-.022.032-.036.043-.046.056M400.002 280.603l-.04-.093-.144-.53-.018-.506.112-.441.228-.348.334-.228.41-.094.459.057.472.194.45.319M402.266 278.933l.394.421.312.496.203.525.08.522-.048.478-.173.4-.284.289-.375.161-.439.015-.469-.122-.463-.263-.26-.205" style="fill:none;stroke:#9500ff;stroke-width:.999997;stroke-linecap:round;stroke-linejoin:round;stroke-miterlimit:4;stroke-dasharray:none;stroke-opacity:1;visibility:visible"/><path d="M406.822 279.166c0-.003 0-.008.01-.02a.764.764 0 0 1 .114-.108 2.52 2.52 0 0 1 .197-.144c.072-.044.153-.097.24-.148.09-.059.187-.116.281-.18a2.43 2.43 0 0 0 .298-.216 1.103 1.103 0 0 0 .288-.336" style="fill:none;stroke:#9500ff;stroke-width:1.66666;stroke-linecap:round;stroke-linejoin:round;stroke-miterlimit:4;stroke-dasharray:none;stroke-opacity:1;visibility:visible"/><path d="M404.346 275.69c.1-.07.204-.139.304-.2.108-.067.214-.13.305-.188.083-.052.15-.104.205-.147a.86.86 0 0 0 .147-.145c-.001.001-.007.005-.012.013M334.643 56.604a.053.053 0 0 0 .027-.048" style="fill:none;stroke:#9500ff;stroke-width:.999997;stroke-linecap:round;stroke-linejoin:round;stroke-miterlimit:4;stroke-dasharray:none;stroke-opacity:1;visibility:visible"/><path d="M334.548 56.557a.148.148 0 0 0 .122-.001M334.548 56.557l.055-.893M315.217 47.859l1.25 5.288M316.469 53.147a.448.448 0 0 0 .24.303M316.707 53.45l1.003.413M317.71 53.864c.055.028.14.027.192-.012M326.88 53.403l7.669 3.156M334.603 55.664a1.36 1.36 0 0 0-.028-.328.91.91 0 0 0-.044-.137M315.709 46.823l-.002.001a1.13 1.13 0 0 0-.247.176l-.03.023a.91.91 0 0 0-.16.194l-.025.048M334.386 54.499v.004l.001.012.005.045c.01.068.02.139.033.215.017.095.04.197.072.298.012.04.026.083.036.127M315.709 46.823l18.675 7.677M338.008 54.49l.043-.708M334.67 56.556l.022-.01M334.386 54.499l.373-.507.396-.441.41-.364.414-.279.411-.187.392-.09.37.008.262.076M480.535 116.681l-.012-.01-.014-.006-.005-.008-.007-.01-.004-.007v-.003M480.633 115.763l-.012-.007-.014-.008-.007-.008-.004-.008-.001-.01v-.002M480.761 115.29c-.009.022.002.06.023.077M480.535 116.681v.012l.001.015.004.008.004.007.007.006M498.403 128.557h0l-.008-.004-.006-.008-.002-.01v-.025M499.521 129.022h0l-.005-.005-.006-.01-.005-.011v-.026M503.115 126.794l.01-.009.001-.005M498.163 128.345l.026-.013M488.963 120.197v-.002l-.006-.006-.004-.006-.003-.011v-.027M498.19 128.332a.44.44 0 0 0 .196.177M502.109 124.141l-21.325-8.773M502.11 124.142a.277.277 0 0 0 .084-.019M503.115 126.794l2.23-4.124M502.152 124.776l-2.227 4.126M502.195 124.123l.024.084c.018.081.021.163.018.242a.756.756 0 0 1-.085.328M505.425 121.959c-.375-.475-1.812.469-3.215 2.117M316.707 53.45a.05.05 0 0 0 .019.046" style="fill:none;stroke:#9500ff;stroke-width:.999997;stroke-linecap:round;stroke-linejoin:round;stroke-miterlimit:4;stroke-dasharray:none;stroke-opacity:1;visibility:visible"/><path d="M317.73 53.913h0l-.007-.005-.006-.008-.004-.008-.003-.012v-.016M315.22 47.201a.072.072 0 0 0 .027.064M315.217 47.859h-.012l-.01-.003-.005-.003-.003-.002v-.003M316.44 53.139h0l.001.004.006.002.01.002h.011M315.709 46.823l-.002.001c-.005 0-.01.003-.014.005l-.046.022a1.33 1.33 0 0 0-.201.117l-.028.023a.787.787 0 0 0-.17.168c-.012.016-.021.026-.028.041M317.902 53.852a.076.076 0 0 0 .096.045M317.998 53.897l.157-.086M334.668 56.59c.015-.008.027-.03.024-.044M334.57 56.608h0l-.007-.004-.01-.008-.001-.01-.002-.014v-.015" style="fill:none;stroke:#9500ff;stroke-width:.999997;stroke-linecap:round;stroke-linejoin:round;stroke-miterlimit:4;stroke-dasharray:none;stroke-opacity:1;visibility:visible"/><path d="m355.12 208.956-.013.138-.132.21" style="fill:none;stroke:#9500ff;stroke-width:1.66666;stroke-linecap:round;stroke-linejoin:round;stroke-miterlimit:4;stroke-dasharray:none;stroke-opacity:1;visibility:visible"/><path d="m320.762 65.161-.017.11-.15.168" style="fill:none;stroke:#9500ff;stroke-width:.999997;stroke-linecap:round;stroke-linejoin:round;stroke-miterlimit:4;stroke-dasharray:none;stroke-opacity:1;visibility:visible"/><path d="M424.74 265.298c.015.913-1.078 1.67-2.438 1.69-1.362.022-2.476-.701-2.488-1.613-.015-.913 1.076-1.671 2.436-1.691 1.362-.019 2.476.703 2.49 1.615" style="fill:none;fill-opacity:1;fill-rule:nonzero;stroke:#9500ff;stroke-width:1.33333;visibility:visible"/><path d="m480.784 115.368 1.244-1.723M498.19 128.332l3.433-.514M342.474 231.422l-18.241 7.045M406.822 279.17l-6.538-.608M404.346 275.69l-1.582 6.363" style="fill:none;stroke:#9500ff;stroke-width:1.66666;stroke-linecap:round;stroke-linejoin:round;stroke-miterlimit:4;stroke-dasharray:none;stroke-opacity:1;visibility:visible"/><path d="m499.815 129.005 2.217-7.93M503.025 126.89l-.993-5.816M342.976 230.386l-3.948-1.665M424.74 265.298l-9.852 2.924" style="fill:none;stroke:#9500ff;stroke-width:.999997;stroke-linecap:round;stroke-linejoin:round;stroke-miterlimit:4;stroke-dasharray:none;stroke-opacity:1;visibility:visible"/><path d="m323.84 240.237 10.926-5.144M323.84 240.237l10.926-5.144" style="fill:none;stroke:#9500ff;stroke-width:1.66666;stroke-linecap:round;stroke-linejoin:round;stroke-miterlimit:4;stroke-dasharray:none;stroke-opacity:1;visibility:visible"/><path d="m402.265 278.933-1.521 2.717" style="fill:none;stroke:#9500ff;stroke-width:.999997;stroke-linecap:round;stroke-linejoin:round;stroke-miterlimit:4;stroke-dasharray:none;stroke-opacity:1;visibility:visible"/><path d="m414.888 268.222 9.852-2.924" style="fill:none;fill-opacity:1;fill-rule:nonzero;stroke:#9500ff;stroke-width:1.33333;visibility:visible"/><path d="m293.367 265.443 1.477-10.469M295.91 256.8l9.717-1.217" style="fill:none;stroke:#00ff4a;stroke-width:.999997;stroke-linecap:round;stroke-linejoin:round;stroke-miterlimit:4;stroke-dasharray:none;stroke-opacity:1;visibility:visible" visibility="hidden"/><path d="m342.976 230.386-1.661 1.803" style="fill:none;stroke:#9500ff;stroke-width:.999997;stroke-linecap:round;stroke-linejoin:round;stroke-miterlimit:4;stroke-dasharray:none;stroke-opacity:1;visibility:visible"/></svg>