<svg xmlns="http://www.w3.org/2000/svg" baseProfile="full" height="1122.52" preserveAspectRatio="xMinYMin meet" style="width:602px;height:832px" width="793.701" xml:space="preserve"><path d="m285.522 850.878-.565-.304-.331-.339-.067-.357.208-.35.455-.302.675-.25.844-.169.95-.076.991.019.95.113.843.204.676.268.454.327.202.35-.066.355-.331.331-.576.28-.765.21-.908.126-.986.032-.974-.07-.91-.158-.769-.24" style="fill:none;stroke:red;stroke-width:.999997;stroke-linecap:round;stroke-linejoin:round;stroke-miterlimit:4;stroke-dasharray:none;stroke-opacity:1;visibility:visible" visibility="hidden"/><path d="M88.546 694.144a.136.136 0 0 1 .02-.03M86.833 689.138l2.277-.756M88.541 694.27l2.136-.71M85.021 688.437l.299-.1M87.506 695.917l.304-.095M85.872 688.377a.725.725 0 0 0-.554-.04M87.81 695.821a.737.737 0 0 0 .417-.367M88.228 695.454a2.95 2.95 0 0 0 .317-1.336M88.546 694.118c0-.872-.14-1.737-.416-2.56a8.187 8.187 0 0 0-1.197-2.298M86.933 689.261a2.977 2.977 0 0 0-1.06-.883M85.021 688.437a.724.724 0 0 0-.416.361M84.604 688.798a3 3 0 0 0-.319 1.342M84.285 690.14c0 .87.139 1.737.415 2.56a8.042 8.042 0 0 0 1.2 2.297M85.901 694.996c.277.37.643.673 1.056.881M86.957 695.877a.705.705 0 0 0 .55.039M86.536 691.26l.498 1.49M85.776 690.71l.76.548M85.497 691.602l.279-.892M85.994 693.098l-.498-1.494M86.752 693.644l-.758-.546M87.033 692.75l-.281.894" style="fill:none;stroke:red;stroke-width:.999997;stroke-linecap:round;stroke-linejoin:round;stroke-miterlimit:2;stroke-dasharray:none;stroke-opacity:1;visibility:visible" visibility="hidden"/><path d="M89.578 693.97c.246.115.482.147.695.071.767-.259.944-1.767.397-3.361-.548-1.598-1.61-2.682-2.378-2.416a.86.86 0 0 0-.463.41" style="fill:none;stroke:red;stroke-width:.999997;stroke-linecap:round;stroke-linejoin:round;stroke-miterlimit:4;stroke-dasharray:none;stroke-opacity:1;visibility:visible" visibility="hidden"/><path d="m163.486 725.232.016-.028M161.773 720.228l2.277-.755M163.48 725.361l2.136-.712M159.96 719.526l.3-.1M162.446 727.008l.304-.098M160.812 719.465a.74.74 0 0 0-.552-.039M162.75 726.91a.729.729 0 0 0 .42-.365M163.168 726.544c.209-.418.317-.876.317-1.338M163.486 725.206a8.088 8.088 0 0 0-1.616-4.856M161.869 720.352a2.982 2.982 0 0 0-1.057-.887M159.96 719.526a.724.724 0 0 0-.416.362M159.544 719.888a3.008 3.008 0 0 0-.322 1.344M159.224 721.232c0 .866.14 1.733.416 2.556a7.937 7.937 0 0 0 1.2 2.296M160.84 726.084c.277.373.64.676 1.057.886M161.897 726.97a.741.741 0 0 0 .55.038M161.476 722.348l.497 1.492M160.716 721.804l.76.545M160.437 722.693l.279-.89M160.933 724.188l-.497-1.495M161.692 724.733l-.758-.545M161.973 723.841l-.281.892" style="fill:none;stroke:red;stroke-width:.999997;stroke-linecap:round;stroke-linejoin:round;stroke-miterlimit:2;stroke-dasharray:none;stroke-opacity:1;visibility:visible" visibility="hidden"/><path d="M164.517 725.058c.243.118.483.148.695.074.766-.262.944-1.768.396-3.367-.548-1.593-1.612-2.679-2.378-2.413a.867.867 0 0 0-.462.412" style="fill:none;stroke:red;stroke-width:.999997;stroke-linecap:round;stroke-linejoin:round;stroke-miterlimit:4;stroke-dasharray:none;stroke-opacity:1;visibility:visible" visibility="hidden"/><path d="m195.245 902.843.017-.032M193.533 897.837l2.276-.755M195.24 902.971l2.134-.711M191.72 897.134l.3-.099M194.208 904.615l.302-.094M192.573 897.077a.725.725 0 0 0-.553-.04M194.51 904.52a.745.745 0 0 0 .42-.365M194.929 904.153c.21-.416.316-.874.316-1.338M195.245 902.815a8.07 8.07 0 0 0-.415-2.561 8.05 8.05 0 0 0-1.2-2.296M193.629 897.96a2.964 2.964 0 0 0-1.056-.884M191.72 897.134a.73.73 0 0 0-.414.363M191.304 897.498a2.973 2.973 0 0 0-.32 1.34" style="fill:none;stroke:red;stroke-width:.999997;stroke-linecap:round;stroke-linejoin:round;stroke-miterlimit:2;stroke-dasharray:none;stroke-opacity:1;visibility:visible" visibility="hidden"/><path d="M190.984 898.838c0 .87.14 1.737.416 2.56a7.98 7.98 0 0 0 1.198 2.296M192.6 903.694c.278.37.642.675 1.058.883M193.658 904.577a.705.705 0 0 0 .55.038M193.236 899.958l.494 1.49M192.476 899.41l.76.548M192.197 900.302l.279-.892M192.696 901.797l-.5-1.495M193.453 902.343l-.757-.546M193.73 901.449l-.278.894" style="fill:none;stroke:red;stroke-width:.999997;stroke-linecap:round;stroke-linejoin:round;stroke-miterlimit:2;stroke-dasharray:none;stroke-opacity:1;visibility:visible" visibility="hidden"/><path d="M196.278 902.665c.242.12.479.15.695.075.767-.261.944-1.77.396-3.363-.547-1.597-1.612-2.683-2.377-2.417a.867.867 0 0 0-.463.413" style="fill:none;stroke:red;stroke-width:.999997;stroke-linecap:round;stroke-linejoin:round;stroke-miterlimit:4;stroke-dasharray:none;stroke-opacity:1;visibility:visible" visibility="hidden"/><path d="M73.432 834.853a8.12 8.12 0 0 0-1.615-4.858M71.817 829.995a2.966 2.966 0 0 0-1.06-.882M69.906 829.17a.741.741 0 0 0-.416.361M69.49 829.533a3 3 0 0 0-.319 1.344M69.172 830.875a8.12 8.12 0 0 0 1.613 4.855M70.786 835.73c.28.368.644.673 1.058.883M71.844 836.614a.723.723 0 0 0 .552.039M71.421 831.993l.497 1.492M70.661 831.447l.76.546M70.382 832.337l.28-.89M70.882 833.831l-.5-1.494M71.64 834.377l-.758-.547M71.918 833.486l-.278.892M71.721 829.873l2.273-.755M73.426 835.005l2.135-.712M69.906 829.17l.302-.1M72.394 836.653l.3-.095M70.757 829.113a.715.715 0 0 0-.55-.043M72.696 836.557a.735.735 0 0 0 .418-.368" style="fill:none;stroke:red;stroke-width:.999997;stroke-linecap:round;stroke-linejoin:round;stroke-miterlimit:2;stroke-dasharray:none;stroke-opacity:1;visibility:visible" visibility="hidden"/><path d="M73.113 836.187c.21-.414.319-.873.319-1.336M73.432 834.877c.005-.01.01-.02.018-.03" style="fill:none;stroke:red;stroke-width:.999997;stroke-linecap:round;stroke-linejoin:round;stroke-miterlimit:2;stroke-dasharray:none;stroke-opacity:1;visibility:visible" visibility="hidden"/><path d="M74.462 834.703c.246.118.483.15.695.074.767-.262.947-1.768.397-3.363-.548-1.599-1.609-2.683-2.377-2.416a.861.861 0 0 0-.461.41" style="fill:none;stroke:red;stroke-width:.999997;stroke-linecap:round;stroke-linejoin:round;stroke-miterlimit:4;stroke-dasharray:none;stroke-opacity:1;visibility:visible" visibility="hidden"/><path d="m193.77 874.92-.018 5.808M209.946 884.269l.044-5.822" style="fill:none;stroke:red;stroke-width:1.99999;stroke-linecap:round;stroke-linejoin:round;stroke-miterlimit:4;stroke-dasharray:none;stroke-opacity:1;visibility:visible" visibility="hidden"/><path d="m83.033 822.569 104.86 57.451M186.754 904.075l.846.085M173.673 896.866l-.604-.407-.245-.229M173.673 896.866l13.917 7.844" style="fill:none;stroke:red;stroke-width:.999997;stroke-linecap:round;stroke-linejoin:round;stroke-miterlimit:4;stroke-dasharray:none;stroke-opacity:1;visibility:visible" visibility="hidden"/><path d="m186.754 904.075-106.13-59.781" style="fill:none;stroke:red;stroke-width:1.99999;stroke-linecap:round;stroke-linejoin:round;stroke-miterlimit:4;stroke-dasharray:none;stroke-opacity:1;visibility:visible" visibility="hidden"/><path d="m82.28 822.243 10.652-2.408" style="fill:none;stroke:red;stroke-width:.999997;stroke-linecap:round;stroke-linejoin:round;stroke-miterlimit:4;stroke-dasharray:none;stroke-opacity:1;visibility:visible" visibility="hidden"/><path d="m182.129 867.931 11.805 6.416M92.933 819.835l61.907 33.275" style="fill:none;stroke:red;stroke-width:1.99999;stroke-linecap:round;stroke-linejoin:round;stroke-miterlimit:4;stroke-dasharray:none;stroke-opacity:1;visibility:visible" visibility="hidden"/><path d="m193.762 877.709-5.87 2.31M187.893 880.02l17.057 9.368M215.874 885.014l-10.924 4.373M215.874 885.014l-5.907-3.212M209.946 884.269l-.079.406-.322.485-.542.435-.738.372-.902.286-1.018.187-1.086.07-1.098-.04-1.054-.145-.957-.256-.813-.346M201.338 885.723l-6.416-3.525M193.752 880.727c.038.633.554 1.293 1.168 1.473" style="fill:none;stroke:red;stroke-width:.999997;stroke-linecap:round;stroke-linejoin:round;stroke-miterlimit:4;stroke-dasharray:none;stroke-opacity:1;visibility:visible" visibility="hidden"/><path d="m187.893 880.68-1.659 136.854M202.843 1028.035l-16.609-10.5" style="fill:none;stroke:red;stroke-width:1.99999;stroke-linecap:round;stroke-linejoin:round;stroke-miterlimit:4;stroke-dasharray:none;stroke-opacity:1;visibility:visible" visibility="hidden"/><path d="M213.5 1023.128h0M204.95 889.387l-2.107 138.647" style="fill:none;stroke:red;stroke-width:.999997;stroke-linecap:round;stroke-linejoin:round;stroke-miterlimit:4;stroke-dasharray:none;stroke-opacity:1;visibility:visible" visibility="hidden"/><path d="m213.5 1023.128-10.657 4.907" style="fill:none;stroke:red;stroke-width:1.99999;stroke-linecap:round;stroke-linejoin:round;stroke-miterlimit:4;stroke-dasharray:none;stroke-opacity:1;visibility:visible" visibility="hidden"/><path d="M202.843 1028.035h0" style="fill:none;stroke:red;stroke-width:.999997;stroke-linecap:round;stroke-linejoin:round;stroke-miterlimit:4;stroke-dasharray:none;stroke-opacity:1;visibility:visible" visibility="hidden"/><path d="m208.8 876.949.616.42.402.474.168.5-.08.507-.316.479-.544.437-.74.371-.9.283-1.021.18-1.086.08-1.098-.042-1.054-.152-.96-.256-.813-.339M202.402 873.495l6.396 3.455M194.937 876.387l-.613-.421-.391-.473-.157-.5.092-.5.329-.48.553-.431.75-.363.909-.282 1.025-.178 1.082-.066 1.093.047 1.044.15.947.257.804.348M201.373 879.891l-6.436-3.504M213.5 1023.128l2.374-137.405" style="fill:none;stroke:red;stroke-width:1.99999;stroke-linecap:round;stroke-linejoin:round;stroke-miterlimit:4;stroke-dasharray:none;stroke-opacity:1;visibility:visible" visibility="hidden"/><path d="m166.845 703.11-11.13 3.504M155.716 706.614l16.864 7.656M172.58 714.27l11.165-3.58M186.234 1017.534h0" style="fill:none;stroke:red;stroke-width:.999997;stroke-linecap:round;stroke-linejoin:round;stroke-miterlimit:4;stroke-dasharray:none;stroke-opacity:1;visibility:visible" visibility="hidden"/><path d="m155.569 731.888-.773 129.358" style="fill:none;stroke:red;stroke-width:1.99999;stroke-linecap:round;stroke-linejoin:round;stroke-miterlimit:4;stroke-dasharray:none;stroke-opacity:1;visibility:visible" visibility="hidden"/><path d="m170.546 866.593-.188 3.474M172.58 714.27l-1.252 139.124M155.716 706.614l-.147 25.274" style="fill:none;stroke:red;stroke-width:.999997;stroke-linecap:round;stroke-linejoin:round;stroke-miterlimit:4;stroke-dasharray:none;stroke-opacity:1;visibility:visible" visibility="hidden"/><path d="m182.226 849.32 1.519-138.629" style="fill:none;stroke:red;stroke-width:1.99999;stroke-linecap:round;stroke-linejoin:round;stroke-miterlimit:4;stroke-dasharray:none;stroke-opacity:1;visibility:visible" visibility="hidden"/><path d="m109.11 677.194-11.134 3.2" style="fill:none;stroke:red;stroke-width:.999997;stroke-linecap:round;stroke-linejoin:round;stroke-miterlimit:4;stroke-dasharray:none;stroke-opacity:1;visibility:visible" visibility="hidden"/><path d="m79.385 939.292 10.2-89.95" style="fill:none;stroke:red;stroke-width:1.99999;stroke-linecap:round;stroke-linejoin:round;stroke-miterlimit:4;stroke-dasharray:none;stroke-opacity:1;visibility:visible" visibility="hidden"/><path d="m92.933 819.835 12.601-111.1" style="fill:none;stroke:red;stroke-width:.999997;stroke-linecap:round;stroke-linejoin:round;stroke-miterlimit:4;stroke-dasharray:none;stroke-opacity:1;visibility:visible" visibility="hidden"/><path d="m68.88 943.382 10.505-4.09" style="fill:none;stroke:red;stroke-width:1.99999;stroke-linecap:round;stroke-linejoin:round;stroke-miterlimit:4;stroke-dasharray:none;stroke-opacity:1;visibility:visible" visibility="hidden"/><path d="m97.976 680.393-15.394-6.963M97.976 680.393 68.878 943.382" style="fill:none;stroke:red;stroke-width:.999997;stroke-linecap:round;stroke-linejoin:round;stroke-miterlimit:4;stroke-dasharray:none;stroke-opacity:1;visibility:visible" visibility="hidden"/><path d="m93.682 670.286-11.098 3.144" style="fill:none;stroke:red;stroke-width:1.99999;stroke-linecap:round;stroke-linejoin:round;stroke-miterlimit:4;stroke-dasharray:none;stroke-opacity:1;visibility:visible" visibility="hidden"/><path d="m54.78 934.598.039.106" style="fill:none;stroke:red;stroke-width:.999997;stroke-linecap:round;stroke-linejoin:round;stroke-miterlimit:4;stroke-dasharray:none;stroke-opacity:1;visibility:visible" visibility="hidden"/><path d="M82.584 673.43 54.78 934.598" style="fill:none;stroke:red;stroke-width:1.99999;stroke-linecap:round;stroke-linejoin:round;stroke-miterlimit:4;stroke-dasharray:none;stroke-opacity:1;visibility:visible" visibility="hidden"/><path d="m68.746 943.49.134-.108" style="fill:none;stroke:red;stroke-width:.999997;stroke-linecap:round;stroke-linejoin:round;stroke-miterlimit:4;stroke-dasharray:none;stroke-opacity:1;visibility:visible" visibility="hidden"/><path d="m54.82 934.703 13.926 8.787" style="fill:none;stroke:red;stroke-width:1.99999;stroke-linecap:round;stroke-linejoin:round;stroke-miterlimit:4;stroke-dasharray:none;stroke-opacity:1;visibility:visible" visibility="hidden"/><path d="m154.733 731.81.833.08M79.385 939.292h0" style="fill:none;stroke:red;stroke-width:.999997;stroke-linecap:round;stroke-linejoin:round;stroke-miterlimit:4;stroke-dasharray:none;stroke-opacity:1;visibility:visible" visibility="hidden"/><path d="m154.733 731.81-58.625-27.608" style="fill:none;stroke:red;stroke-width:1.99999;stroke-linecap:round;stroke-linejoin:round;stroke-miterlimit:4;stroke-dasharray:none;stroke-opacity:1;visibility:visible" visibility="hidden"/><path d="m97.74 680.288 58.606 26.614" style="fill:none;stroke:red;stroke-width:.999997;stroke-linecap:round;stroke-linejoin:round;stroke-miterlimit:4;stroke-dasharray:none;stroke-opacity:1;visibility:visible" visibility="hidden"/><path d="m93.682 670.286 90.063 40.406" style="fill:none;stroke:red;stroke-width:1.99999;stroke-linecap:round;stroke-linejoin:round;stroke-miterlimit:4;stroke-dasharray:none;stroke-opacity:1;visibility:visible" visibility="hidden"/><path d="m166.445 855.225 35.785 3.84M202.23 859.065l187.705-71.613M204.353 870.426l-2.123-11.361" style="fill:none;stroke:red;stroke-width:.999997;stroke-linecap:round;stroke-linejoin:round;stroke-miterlimit:4;stroke-dasharray:none;stroke-opacity:1;visibility:visible" visibility="hidden"/><path d="m182.618 849.169-16.173 6.056M389.936 787.452l-37.348-1.89M338.663 790.782l13.925-5.22M168.684 866.38l-2.246-11.21" style="fill:none;stroke:red;stroke-width:1.99999;stroke-linecap:round;stroke-linejoin:round;stroke-miterlimit:4;stroke-dasharray:none;stroke-opacity:1;visibility:visible" visibility="hidden"/><path d="m182.228 849.131.39.039" style="fill:none;stroke:red;stroke-width:.999997;stroke-linecap:round;stroke-linejoin:round;stroke-miterlimit:4;stroke-dasharray:none;stroke-opacity:1;visibility:visible" visibility="hidden"/><path d="m390.06 787.491 1.708 10.579M204.478 870.507l-35.794-4.126M391.77 798.069l-187.292 72.438M323.394 789.955l15.268.826M323.394 789.954l-141.09 52.381" style="fill:none;stroke:red;stroke-width:1.99999;stroke-linecap:round;stroke-linejoin:round;stroke-miterlimit:4;stroke-dasharray:none;stroke-opacity:1;visibility:visible" visibility="hidden"/><path d="m155.189 794.374-61.801 21.441M244.658 763.316l-61.725 21.42" style="fill:none;stroke:red;stroke-width:.999997;stroke-linecap:round;stroke-linejoin:round;stroke-miterlimit:4;stroke-dasharray:none;stroke-opacity:1;visibility:visible" visibility="hidden"/><path d="M155.228 787.4 94.23 808.393M236.362 759.477l-53.35 18.357M244.658 763.316l-8.296-3.84M182.702 805.97l63.103-22.473M113.437 830.623l41.623-14.817M245.803 783.496l-1.146-20.18" style="fill:none;stroke:red;stroke-width:1.99999;stroke-linecap:round;stroke-linejoin:round;stroke-miterlimit:4;stroke-dasharray:none;stroke-opacity:1;visibility:visible" visibility="hidden"/><path d="m213.462 883.7 157.94-62.214" style="fill:none;stroke:red;stroke-width:.999997;stroke-linecap:round;stroke-linejoin:round;stroke-miterlimit:4;stroke-dasharray:none;stroke-opacity:1;visibility:visible" visibility="hidden"/><path d="m361.844 817.066 9.558 4.42M208.613 876.849l153.231-59.783M371.822 842.77l-156.305 63.11M371.402 821.486l.42 21.284" style="fill:none;stroke:red;stroke-width:1.99999;stroke-linecap:round;stroke-linejoin:round;stroke-miterlimit:4;stroke-dasharray:none;stroke-opacity:1;visibility:visible" visibility="hidden"/><path d="m180.906 709.425 142.408-44.845" style="fill:none;stroke:red;stroke-width:.999997;stroke-linecap:round;stroke-linejoin:round;stroke-miterlimit:4;stroke-dasharray:none;stroke-opacity:1;visibility:visible" visibility="hidden"/><path d="m313.855 660.908 9.459 3.67M171.645 705.265l142.21-44.357M324.058 687.228 183.5 732.933M323.314 664.58l.745 22.646" style="fill:none;stroke:red;stroke-width:1.99999;stroke-linecap:round;stroke-linejoin:round;stroke-miterlimit:4;stroke-dasharray:none;stroke-opacity:1;visibility:visible" visibility="hidden"/><path d="m105.402 675.534 140.412-40.9M246.634 685.541l-.585-.321-.327-.366-.05-.373.241-.37.488-.324.731-.262.904-.177 1.005-.084 1.038.022 1.001.122.877.212.698.29.462.342.197.373-.092.377-.367.351-.62.295-.822.226-.967.131-1.03.032-1.038-.072-.947-.17-.797-.253" style="fill:none;stroke:red;stroke-width:.999997;stroke-linecap:round;stroke-linejoin:round;stroke-miterlimit:4;stroke-dasharray:none;stroke-opacity:1;visibility:visible" visibility="hidden"/><path d="m237.146 631.27 8.667 3.366M96.95 671.754l140.197-40.482M247.01 656.504l-110.148 33.148M245.813 634.636l1.196 21.868" style="fill:none;stroke:red;stroke-width:1.99999;stroke-linecap:round;stroke-linejoin:round;stroke-miterlimit:4;stroke-dasharray:none;stroke-opacity:1;visibility:visible" visibility="hidden"/><path d="m173.682 896.71-.008.155M187.59 904.709v-.006M170.334 653.708l-.528-.293-.278-.328-.003-.351.257-.333.51-.295.723-.244.879-.161.968-.074.994.016.94.108.82.202.638.26.408.31.144.346-.12.344-.39.317-.62.272-.81.206-.94.12-.99.03-.976-.063-.888-.154-.738-.235" style="fill:none;stroke:red;stroke-width:.999997;stroke-linecap:round;stroke-linejoin:round;stroke-miterlimit:4;stroke-dasharray:none;stroke-opacity:1;visibility:visible" visibility="hidden"/><path d="m325.333 789.97 11.85-5.266M336.715 790.731l2.628-1.164M337.56 784.694a.493.493 0 0 0-.377.01M339.343 789.566a.493.493 0 0 0 .255-.268M339.6 789.298c.11-.293.151-.61.122-.92M339.722 788.377a5.427 5.427 0 0 0-.444-1.693 5.337 5.337 0 0 0-.955-1.466M338.324 785.218a2.019 2.019 0 0 0-.764-.525M337.532 784.685l1.018.33M339.59 789.32l.432-.974M338.563 785.022c-.003-.001-.01-.002-.013-.006M340.022 788.343c0-.005.002-.011.005-.013M340.028 788.329c.083-.21.112-.436.092-.66M340.12 787.669a3.915 3.915 0 0 0-1.003-2.27M339.116 785.4a1.437 1.437 0 0 0-.553-.378" style="fill:none;stroke:red;stroke-width:.999997;stroke-linecap:round;stroke-linejoin:round;stroke-miterlimit:2;stroke-dasharray:none;stroke-opacity:1;visibility:visible" visibility="hidden"/><path d="m330.871 790.414 6.773-3.006" style="fill:none;stroke:red;stroke-width:.999997;stroke-linecap:round;stroke-linejoin:round;stroke-miterlimit:4;stroke-dasharray:none;stroke-opacity:1;visibility:visible" visibility="hidden"/><path d="m85.318 688.337 3.792.045M87.81 695.821l2.867-2.261" style="fill:none;stroke:red;stroke-width:.999997;stroke-linecap:round;stroke-linejoin:round;stroke-miterlimit:2;stroke-dasharray:none;stroke-opacity:1;visibility:visible" visibility="hidden"/><path d="m86.957 695.877 2.621-1.907M84.604 688.798l3.225-.124" style="fill:none;stroke:red;stroke-width:.999997;stroke-linecap:round;stroke-linejoin:round;stroke-miterlimit:4;stroke-dasharray:none;stroke-opacity:1;visibility:visible" visibility="hidden"/><path d="m160.26 719.426 3.79.047M162.75 726.91l2.866-2.261" style="fill:none;stroke:red;stroke-width:.999997;stroke-linecap:round;stroke-linejoin:round;stroke-miterlimit:2;stroke-dasharray:none;stroke-opacity:1;visibility:visible" visibility="hidden"/><path d="m161.897 726.97 2.62-1.912M159.544 719.888l3.224-.124" style="fill:none;stroke:red;stroke-width:.999997;stroke-linecap:round;stroke-linejoin:round;stroke-miterlimit:4;stroke-dasharray:none;stroke-opacity:1;visibility:visible" visibility="hidden"/><path d="m192.02 897.037 3.789.045M194.51 904.52l2.864-2.26" style="fill:none;stroke:red;stroke-width:.999997;stroke-linecap:round;stroke-linejoin:round;stroke-miterlimit:2;stroke-dasharray:none;stroke-opacity:1;visibility:visible" visibility="hidden"/><path d="m193.658 904.577 2.62-1.912M191.304 897.498l3.225-.125" style="fill:none;stroke:red;stroke-width:.999997;stroke-linecap:round;stroke-linejoin:round;stroke-miterlimit:4;stroke-dasharray:none;stroke-opacity:1;visibility:visible" visibility="hidden"/><path d="m70.207 829.07 3.787.048M72.696 836.557l2.865-2.264" style="fill:none;stroke:red;stroke-width:.999997;stroke-linecap:round;stroke-linejoin:round;stroke-miterlimit:2;stroke-dasharray:none;stroke-opacity:1;visibility:visible" visibility="hidden"/><path d="m71.844 836.613 2.618-1.91M69.49 829.533l3.226-.125" style="fill:none;stroke:red;stroke-width:.999997;stroke-linecap:round;stroke-linejoin:round;stroke-miterlimit:4;stroke-dasharray:none;stroke-opacity:1;visibility:visible" visibility="hidden"/><path d="m193.752 880.728 16.238-2.281M71.844 836.613l8.78 7.681M187.893 880.02l-5.764-12.089" style="fill:none;stroke:red;stroke-width:1.99999;stroke-linecap:round;stroke-linejoin:round;stroke-miterlimit:4;stroke-dasharray:none;stroke-opacity:1;visibility:visible" visibility="hidden"/><path d="m204.478 870.507-10.716 7.202M208.798 876.95l1.169 4.852M171.645 705.265l-4.8-2.155" style="fill:none;stroke:red;stroke-width:.999997;stroke-linecap:round;stroke-linejoin:round;stroke-miterlimit:4;stroke-dasharray:none;stroke-opacity:1;visibility:visible" visibility="hidden"/><path d="m170.546 866.593-15.75-5.347" style="fill:none;stroke:red;stroke-width:1.99999;stroke-linecap:round;stroke-linejoin:round;stroke-miterlimit:4;stroke-dasharray:none;stroke-opacity:1;visibility:visible" visibility="hidden"/><path d="m171.328 853.394-.782 13.199M170.546 866.593l.782-13.199M105.402 675.534l3.708 1.66" style="fill:none;stroke:red;stroke-width:.999997;stroke-linecap:round;stroke-linejoin:round;stroke-miterlimit:4;stroke-dasharray:none;stroke-opacity:1;visibility:visible" visibility="hidden"/><path d="m86.957 695.877 9.151 8.325M182.618 849.169l-.314-6.834" style="fill:none;stroke:red;stroke-width:1.99999;stroke-linecap:round;stroke-linejoin:round;stroke-miterlimit:4;stroke-dasharray:none;stroke-opacity:1;visibility:visible" visibility="hidden"/><path d="m215.874 885.014-2.412-1.314" style="fill:none;stroke:red;stroke-width:.999997;stroke-linecap:round;stroke-linejoin:round;stroke-miterlimit:4;stroke-dasharray:none;stroke-opacity:1;visibility:visible" visibility="hidden"/><path d="m197.374 902.26 18.143 3.62" style="fill:none;stroke:red;stroke-width:1.99999;stroke-linecap:round;stroke-linejoin:round;stroke-miterlimit:4;stroke-dasharray:none;stroke-opacity:1;visibility:visible" visibility="hidden"/><path d="m183.745 710.69-2.839-1.265" style="fill:none;stroke:red;stroke-width:.999997;stroke-linecap:round;stroke-linejoin:round;stroke-miterlimit:4;stroke-dasharray:none;stroke-opacity:1;visibility:visible" visibility="hidden"/><path d="m166.845 703.11 4.8 2.155M165.616 724.649l17.884 8.284" style="fill:none;stroke:red;stroke-width:1.99999;stroke-linecap:round;stroke-linejoin:round;stroke-miterlimit:4;stroke-dasharray:none;stroke-opacity:1;visibility:visible" visibility="hidden"/><path d="m109.11 677.194-3.708-1.66" style="fill:none;stroke:red;stroke-width:.999997;stroke-linecap:round;stroke-linejoin:round;stroke-miterlimit:4;stroke-dasharray:none;stroke-opacity:1;visibility:visible" visibility="hidden"/><path d="m93.682 670.286 3.268 1.468" style="fill:none;stroke:red;stroke-width:1.99999;stroke-linecap:round;stroke-linejoin:round;stroke-miterlimit:4;stroke-dasharray:none;stroke-opacity:1;visibility:visible" visibility="hidden"/><path d="m323.394 789.954 1.939.016M337.644 787.408l-.929 3.323" style="fill:none;stroke:red;stroke-width:.999997;stroke-linecap:round;stroke-linejoin:round;stroke-miterlimit:2;stroke-dasharray:none;stroke-opacity:1;visibility:visible" visibility="hidden"/><path d="m323.394 789.954 7.477.46M337.183 784.704l.461 2.704" style="fill:none;stroke:red;stroke-width:.999997;stroke-linecap:round;stroke-linejoin:round;stroke-miterlimit:4;stroke-dasharray:none;stroke-opacity:1;visibility:visible" visibility="hidden"/><path d="m373.102 826.42.12-.1" style="fill:none;stroke:#00ff4a;stroke-width:.999997;stroke-linecap:round;stroke-linejoin:round;stroke-miterlimit:4;stroke-dasharray:none;stroke-opacity:1;visibility:visible"/><path d="m474.216 766.42-.239 5.16M488.607 774.677l.258-5.184" style="fill:none;stroke:#00ff4a;stroke-width:1.99999;stroke-linecap:round;stroke-linejoin:round;stroke-miterlimit:4;stroke-dasharray:none;stroke-opacity:1;visibility:visible"/><path d="m468.05 771.854.773-.012M470.693 792.391l-.769.011M457.303 786.692l-.445-.234M470.732 792.814l-.008-.007-.074-.044" style="fill:none;stroke:#00ff4a;stroke-width:.999997;stroke-linecap:round;stroke-linejoin:round;stroke-miterlimit:4;stroke-dasharray:none;stroke-opacity:1;visibility:visible"/><path d="m469.924 792.402-1.874-.725M463.538 789.495l-96.65-43.965" style="fill:none;stroke:#00ff4a;stroke-width:1.99999;stroke-linecap:round;stroke-linejoin:round;stroke-miterlimit:4;stroke-dasharray:none;stroke-opacity:1;visibility:visible"/><path d="m375.9 723.025-1.517.033M374.383 723.058l-7.123 3.202M367.26 726.261l-.068.677M367.194 726.937l100.856 44.917M367.194 726.937l-.306 18.593" style="fill:none;stroke:#00ff4a;stroke-width:.999997;stroke-linecap:round;stroke-linejoin:round;stroke-miterlimit:4;stroke-dasharray:none;stroke-opacity:1;visibility:visible"/><path d="m460.755 760.48 12.45 5.5M375.172 722.594l61.076 27.07" style="fill:none;stroke:#00ff4a;stroke-width:1.99999;stroke-linecap:round;stroke-linejoin:round;stroke-miterlimit:4;stroke-dasharray:none;stroke-opacity:1;visibility:visible"/><path d="m495.219 894.64-10.19-116.225M485.028 778.414l-16.27-7.241" style="fill:none;stroke:#00ff4a;stroke-width:.999997;stroke-linecap:round;stroke-linejoin:round;stroke-miterlimit:4;stroke-dasharray:none;stroke-opacity:1;visibility:visible"/><path d="m479.287 886.689-8.598-95.676M470.123 786.1l-1.3-14.255M479.287 886.689l15.932 7.95" style="fill:none;stroke:#00ff4a;stroke-width:1.99999;stroke-linecap:round;stroke-linejoin:round;stroke-miterlimit:4;stroke-dasharray:none;stroke-opacity:1;visibility:visible"/><path d="m481.319 775.605.75.27.866.205.928.118.957.038.925-.048.866-.146.746-.21.598-.284.413-.34.216-.37.024-.161M475.239 772.898l6.08 2.707M473.977 771.58c.08.62.648 1.208 1.26 1.318M477.473 787.7l.574.31.55.077.469-.159.361-.366.198-.562.023-.683-.153-.74-.319-.739-.443-.645-.53-.504-.57-.3-.549-.079-.474.15-.355.378-.203.55M476.052 784.388l-.015.689" style="fill:none;stroke:#00ff4a;stroke-width:.999997;stroke-linecap:round;stroke-linejoin:round;stroke-miterlimit:4;stroke-dasharray:none;stroke-opacity:1;visibility:visible"/><path d="m489.49 773.12 4.46 1.97" style="fill:none;stroke:#00ff4a;stroke-width:1.99999;stroke-linecap:round;stroke-linejoin:round;stroke-miterlimit:4;stroke-dasharray:none;stroke-opacity:1;visibility:visible"/><path d="m468.759 771.174 5.328-1.964M485.028 778.414l8.922-3.326" style="fill:none;stroke:#00ff4a;stroke-width:.999997;stroke-linecap:round;stroke-linejoin:round;stroke-miterlimit:4;stroke-dasharray:none;stroke-opacity:1;visibility:visible"/><path d="m493.95 775.089 9.923 115.9" style="fill:none;stroke:#00ff4a;stroke-width:1.99999;stroke-linecap:round;stroke-linejoin:round;stroke-miterlimit:4;stroke-dasharray:none;stroke-opacity:1;visibility:visible"/><path d="M503.872 890.987h0" style="fill:none;stroke:#00ff4a;stroke-width:.999997;stroke-linecap:round;stroke-linejoin:round;stroke-miterlimit:4;stroke-dasharray:none;stroke-opacity:1;visibility:visible"/><path d="m495.219 894.64 8.653-3.652" style="fill:none;stroke:#00ff4a;stroke-width:1.99999;stroke-linecap:round;stroke-linejoin:round;stroke-miterlimit:4;stroke-dasharray:none;stroke-opacity:1;visibility:visible"/><path d="M495.219 894.64h0" style="fill:none;stroke:#00ff4a;stroke-width:.999997;stroke-linecap:round;stroke-linejoin:round;stroke-miterlimit:4;stroke-dasharray:none;stroke-opacity:1;visibility:visible"/><path d="m481.568 770.42.753.275.862.198.933.12.957.036.935-.052.86-.137.748-.211.594-.283" style="fill:none;stroke:#00ff4a;stroke-width:1.99999;stroke-linecap:round;stroke-linejoin:round;stroke-miterlimit:4;stroke-dasharray:none;stroke-opacity:1;visibility:visible"/><path d="m488.21 770.366.414-.334.216-.376.004-.39-.213-.39-.412-.362-.586-.334M487.633 768.18l-6.14-2.697M481.492 765.48l-.752-.265-.865-.201-.932-.118-.95-.038-.929.055-.859.141-.75.216-.586.284M474.87 765.554l-.414.334-.213.366v.394l.221.386.416.37.597.322M475.477 767.726l6.091 2.695" style="fill:none;stroke:#00ff4a;stroke-width:1.99999;stroke-linecap:round;stroke-linejoin:round;stroke-miterlimit:4;stroke-dasharray:none;stroke-opacity:1;visibility:visible"/><path d="m426.339 648.497-.399-4.06M425.563 640.584l-1.445-14.756M479.287 886.689h0" style="fill:none;stroke:#00ff4a;stroke-width:.999997;stroke-linecap:round;stroke-linejoin:round;stroke-miterlimit:4;stroke-dasharray:none;stroke-opacity:1;visibility:visible"/><path d="m437.038 757.426-10.7-108.926" style="fill:none;stroke:#00ff4a;stroke-width:1.99999;stroke-linecap:round;stroke-linejoin:round;stroke-miterlimit:4;stroke-dasharray:none;stroke-opacity:1;visibility:visible"/><path d="m424.118 625.828 9.188-2.792M449.459 629.165l-9.204 2.84M442.506 755.265l.15.745.304.742.43.662.522.527.558.344.549.135.5-.096.39-.306.254-.504.105-.641-.074-.737-.23-.751-.374-.708-.478-.601-.55-.442-.555-.241-.532-.016-.453.208-.322.407-.18.578-.014.695M432.35 641.57l.528.478.562.268.55.041.464-.21.345-.428.196-.603.01-.723-.159-.768-.32-.75-.444-.641-.538-.484-.561-.267-.548-.04-.463.217-.352.423-.182.605M431.439 638.688l-.016.721M437.068 758.076l14.912 6.642M451.631 752.282l.349 12.436M451.63 752.282l-11.373-120.277M440.255 632.005l-16.139-6.178" style="fill:none;stroke:#00ff4a;stroke-width:.999997;stroke-linecap:round;stroke-linejoin:round;stroke-miterlimit:4;stroke-dasharray:none;stroke-opacity:1;visibility:visible"/><path d="m373.222 826.32-1.4.541M460.459 748.104l.296 12.376M449.459 629.165l11 118.939" style="fill:none;stroke:#00ff4a;stroke-width:1.99999;stroke-linecap:round;stroke-linejoin:round;stroke-miterlimit:4;stroke-dasharray:none;stroke-opacity:1;visibility:visible"/><path d="m368.448 604.499 9.002-2.694M364.976 818.514l.166-10.148M365.5 786.214l1.992-122.784M367.566 659.014l.882-54.514" style="fill:none;stroke:#00ff4a;stroke-width:.999997;stroke-linecap:round;stroke-linejoin:round;stroke-miterlimit:4;stroke-dasharray:none;stroke-opacity:1;visibility:visible"/><path d="m374.674 749.072-.71 37.434M373.611 805.64l-.39 20.68M376.938 629.06l-.516 27.284M376.332 661.013l-1.16 61.581" style="fill:none;stroke:#00ff4a;stroke-width:1.99999;stroke-linecap:round;stroke-linejoin:round;stroke-miterlimit:4;stroke-dasharray:none;stroke-opacity:1;visibility:visible"/><path d="m353.424 598.756 15.024 5.744" style="fill:none;stroke:#00ff4a;stroke-width:.999997;stroke-linecap:round;stroke-linejoin:round;stroke-miterlimit:4;stroke-dasharray:none;stroke-opacity:1;visibility:visible"/><path d="m350.518 821.486.23-7.364M351.143 784.957l.643-47.013M351.846 732.937l.754-64.175M352.654 664.265l.558-47.584M353.28 611.097l.143-12.341M353.424 598.756l8.992-2.65" style="fill:none;stroke:#00ff4a;stroke-width:1.99999;stroke-linecap:round;stroke-linejoin:round;stroke-miterlimit:4;stroke-dasharray:none;stroke-opacity:1;visibility:visible"/><path d="m359.174 610.43.248-.51.377-.303.468-.077.527.148.516.377.468.547.36.685.236.747.07.728M360.7 733.594l-.093.599-.241.45-.36.257-.459.042-.505-.181-.498-.384M357.452 731.77l.094-.6.232-.449.37-.257.458-.044.494.184.5.381.451.552.357.66.216.712.076.684" style="fill:none;stroke:#00ff4a;stroke-width:.999997;stroke-linecap:round;stroke-linejoin:round;stroke-miterlimit:4;stroke-dasharray:none;stroke-opacity:1;visibility:visible"/><path d="m362.443 612.77-.088.65-.245.499-.388.309-.475.077-.519-.152-.514-.37" style="fill:none;stroke:#00ff4a;stroke-width:.999997;stroke-linecap:round;stroke-linejoin:round;stroke-miterlimit:4;stroke-dasharray:none;stroke-opacity:1;visibility:visible"/><path d="m426.339 648.497-5.904-2.322M414.834 643.972l-45.694-17.977" style="fill:none;stroke:#00ff4a;stroke-width:1.99999;stroke-linecap:round;stroke-linejoin:round;stroke-miterlimit:4;stroke-dasharray:none;stroke-opacity:1;visibility:visible"/><path d="m368.448 604.499 56.104 21.494M368.106 625.587l.322-19.977" style="fill:none;stroke:#00ff4a;stroke-width:.999997;stroke-linecap:round;stroke-linejoin:round;stroke-miterlimit:4;stroke-dasharray:none;stroke-opacity:1;visibility:visible"/><path d="m362.416 596.104 87.044 33.061" style="fill:none;stroke:#00ff4a;stroke-width:1.99999;stroke-linecap:round;stroke-linejoin:round;stroke-miterlimit:4;stroke-dasharray:none;stroke-opacity:1;visibility:visible"/><path d="M457.303 786.662v.028M470.65 792.765l-.007-.372M432.522 622.86l.036.404M432.506 623.277l.016-.417" style="fill:none;stroke:#00ff4a;stroke-width:.999997;stroke-linecap:round;stroke-linejoin:round;stroke-miterlimit:4;stroke-dasharray:none;stroke-opacity:1;visibility:visible"/><path d="M430.666 704.258a2.167 2.167 0 0 0-.927-.397" style="fill:none;stroke:#00ff4a;stroke-width:.999997;stroke-linecap:round;stroke-linejoin:round;stroke-miterlimit:2;stroke-dasharray:none;stroke-opacity:1;visibility:visible"/><path d="m460.755 760.48 13.461 5.94M473.977 771.58l14.888-2.087M463.538 789.495l4.512 2.182M468.05 791.677l-4.512-2.182M475.477 767.726l-2.272-1.746M437.068 758.076l-.82-8.412M470.65 792.765l.039-1.752M470.689 791.013l-.566-4.913" style="fill:none;stroke:#00ff4a;stroke-width:1.99999;stroke-linecap:round;stroke-linejoin:round;stroke-miterlimit:4;stroke-dasharray:none;stroke-opacity:1;visibility:visible"/><path d="m485.028 778.414-7.555 9.286" style="fill:none;stroke:#00ff4a;stroke-width:.999997;stroke-linecap:round;stroke-linejoin:round;stroke-miterlimit:4;stroke-dasharray:none;stroke-opacity:1;visibility:visible"/><path d="m487.633 768.18 1.857 4.94" style="fill:none;stroke:#00ff4a;stroke-width:1.99999;stroke-linecap:round;stroke-linejoin:round;stroke-miterlimit:4;stroke-dasharray:none;stroke-opacity:1;visibility:visible"/><path d="m485.028 778.414-10.941-9.204M425.563 640.584l.377 3.853M425.94 644.437l-.377-3.853M451.631 752.282l-9.125 2.983M350.748 814.122l14.228 4.392M350.518 821.486l14.624-13.12M367.566 659.014l-.074 4.416M367.492 663.43l.074-4.416" style="fill:none;stroke:#00ff4a;stroke-width:.999997;stroke-linecap:round;stroke-linejoin:round;stroke-miterlimit:4;stroke-dasharray:none;stroke-opacity:1;visibility:visible"/><path d="m366.888 745.53 7.786 3.542M373.611 805.64l.353-19.134M364.976 818.514l8.635-12.874M368.106 625.587l8.832 3.473M376.332 661.013l.09-4.669M376.422 656.344l-.09 4.669M365.142 808.366l-14.624 13.12M364.976 818.514l-14.228-4.392M351.846 732.937l-.06 5.007M351.786 737.944l.06-5.007M352.654 664.265l-.054 4.497M352.6 668.762l.054-4.497M353.28 611.097l-.068 5.584M353.212 616.681l.068-5.584" style="fill:none;stroke:#00ff4a;stroke-width:1.99999;stroke-linecap:round;stroke-linejoin:round;stroke-miterlimit:4;stroke-dasharray:none;stroke-opacity:1;visibility:visible"/><path d="m360.7 733.594-3.248-1.824" style="fill:none;stroke:#00ff4a;stroke-width:.999997;stroke-linecap:round;stroke-linejoin:round;stroke-miterlimit:4;stroke-dasharray:none;stroke-opacity:1;visibility:visible"/><path d="m414.834 643.972 5.601 2.203M420.435 646.175l-5.601-2.203" style="fill:none;stroke:#00ff4a;stroke-width:1.99999;stroke-linecap:round;stroke-linejoin:round;stroke-miterlimit:4;stroke-dasharray:none;stroke-opacity:1;visibility:visible"/><path d="m376.938 629.06-8.832-3.473M353.28 611.097l15.148-5.487" style="fill:none;stroke:#00ff4a;stroke-width:.999997;stroke-linecap:round;stroke-linejoin:round;stroke-miterlimit:4;stroke-dasharray:none;stroke-opacity:1;visibility:visible"/><path d="m171.328 853.394-.97 16.673" style="fill:none;stroke:red;stroke-width:.999997;stroke-linecap:round;stroke-linejoin:round;stroke-miterlimit:4;stroke-dasharray:none;stroke-opacity:1;visibility:visible" visibility="hidden"/><path d="m371.402 821.486.42 5.375" style="fill:none;stroke:#00ff4a;stroke-width:1.99999;stroke-linecap:round;stroke-linejoin:round;stroke-miterlimit:4;stroke-dasharray:none;stroke-opacity:1;visibility:visible"/><path d="m373.964 786.506-8.464-.292" style="fill:none;stroke:#00ff4a;stroke-width:.999997;stroke-linecap:round;stroke-linejoin:round;stroke-miterlimit:4;stroke-dasharray:none;stroke-opacity:1;visibility:visible"/><path d="m376.938 629.06-7.798-3.065" style="fill:none;stroke:#00ff4a;stroke-width:1.99999;stroke-linecap:round;stroke-linejoin:round;stroke-miterlimit:4;stroke-dasharray:none;stroke-opacity:1;visibility:visible"/></svg>