<svg xmlns="http://www.w3.org/2000/svg" baseProfile="full" height="1122.52" preserveAspectRatio="xMinYMin meet" style="width:602px;height:832px" width="793.701" xml:space="preserve"><path d="m417.655 535.543-.113-5.5M403.267 532.704l.128 5.519" style="fill:none;stroke:red;stroke-width:1.99999;stroke-linecap:round;stroke-linejoin:round;stroke-miterlimit:4;stroke-dasharray:none;stroke-opacity:1;visibility:visible" visibility="hidden"/><path d="m423.47 535.607-.686.001M420.346 557.539l.68-.006M432.528 552.068l-.04.028-.502.304" style="fill:none;stroke:red;stroke-width:.999997;stroke-linecap:round;stroke-linejoin:round;stroke-miterlimit:4;stroke-dasharray:none;stroke-opacity:1;visibility:visible" visibility="hidden"/><path d="m421.026 557.535 5.116-2.432M431.392 552.605l36.503-17.348" style="fill:none;stroke:red;stroke-width:1.99999;stroke-linecap:round;stroke-linejoin:round;stroke-miterlimit:4;stroke-dasharray:none;stroke-opacity:1;visibility:visible" visibility="hidden"/><path d="m511.712 494.296.26.58M503.713 491.683l8 2.613M502.196 491.682l1.517.002M511.972 494.876l-38.388 17.667M447.898 524.363l-24.428 11.244" style="fill:none;stroke:red;stroke-width:.999997;stroke-linecap:round;stroke-linejoin:round;stroke-miterlimit:4;stroke-dasharray:none;stroke-opacity:1;visibility:visible" visibility="hidden"/><path d="m427.764 525.27-9.544 4.546M502.196 491.682l-50.25 22.828" style="fill:none;stroke:red;stroke-width:1.99999;stroke-linecap:round;stroke-linejoin:round;stroke-miterlimit:4;stroke-dasharray:none;stroke-opacity:1;visibility:visible" visibility="hidden"/><path d="m408.31 541.52-10.278-2.57M408.311 541.519l14.56-6.694M411.279 539l-.69.255-.835.201-.924.13-.98.064-.979-.015-.936-.09-.836-.163-.705-.226-.534-.273-.338-.314-.128-.336v-.01M416.72 536.5a1.277 1.277 0 0 0 .935-.957M416.719 536.5l-5.439 2.5" style="fill:none;stroke:red;stroke-width:.999997;stroke-linecap:round;stroke-linejoin:round;stroke-miterlimit:4;stroke-dasharray:none;stroke-opacity:1;visibility:visible" visibility="hidden"/><path d="m402.942 536.719-4.91 2.233" style="fill:none;stroke:red;stroke-width:1.99999;stroke-linecap:round;stroke-linejoin:round;stroke-miterlimit:4;stroke-dasharray:none;stroke-opacity:1;visibility:visible" visibility="hidden"/><path d="m422.87 534.827-5.26-1.295" style="fill:none;stroke:red;stroke-width:.999997;stroke-linecap:round;stroke-linejoin:round;stroke-miterlimit:4;stroke-dasharray:none;stroke-opacity:1;visibility:visible" visibility="hidden"/><path d="m409.14 658.256-14.338 7.804" style="fill:none;stroke:red;stroke-width:1.99999;stroke-linecap:round;stroke-linejoin:round;stroke-miterlimit:4;stroke-dasharray:none;stroke-opacity:1;visibility:visible" visibility="hidden"/><path d="m420.298 557.952.498-4.467M421.243 549.46l1.58-14.19M394.802 666.061l13.51-124.54" style="fill:none;stroke:red;stroke-width:.999997;stroke-linecap:round;stroke-linejoin:round;stroke-miterlimit:4;stroke-dasharray:none;stroke-opacity:1;visibility:visible" visibility="hidden"/><path d="m409.14 658.256 11.158-100.306" style="fill:none;stroke:red;stroke-width:1.99999;stroke-linecap:round;stroke-linejoin:round;stroke-miterlimit:4;stroke-dasharray:none;stroke-opacity:1;visibility:visible" visibility="hidden"/><path d="M394.802 666.061h0M415.072 551.495l-.486.505-.507.291-.487.048-.41-.196-.294-.423-.16-.613.006-.738.164-.789.306-.77.419-.668.485-.502.514-.289.481-.051.41.201.301.424M415.812 547.927l.154.612" style="fill:none;stroke:red;stroke-width:.999997;stroke-linecap:round;stroke-linejoin:round;stroke-miterlimit:4;stroke-dasharray:none;stroke-opacity:1;visibility:visible" visibility="hidden"/><path d="m394.802 666.061-9.976-2.991" style="fill:none;stroke:red;stroke-width:1.99999;stroke-linecap:round;stroke-linejoin:round;stroke-miterlimit:4;stroke-dasharray:none;stroke-opacity:1;visibility:visible" visibility="hidden"/><path d="M384.826 663.068h0" style="fill:none;stroke:red;stroke-width:.999997;stroke-linecap:round;stroke-linejoin:round;stroke-miterlimit:4;stroke-dasharray:none;stroke-opacity:1;visibility:visible" visibility="hidden"/><path d="m411.163 533.472-.69.255-.835.2-.931.13-.976.063-.98-.017-.937-.088-.842-.163-.705-.222-.533-.27-.339-.313-.128-.332.099-.336.308-.326.51-.3M416.612 530.995l-5.45 2.477M409.684 529.268l.696-.25.827-.198.924-.13.975-.059.981.017.93.093.838.16.7.223.533.27.334.312.121.331-.097.335-.32.325-.512.296M404.184 531.753l5.5-2.483M398.032 538.952 384.824 663.07" style="fill:none;stroke:red;stroke-width:1.99999;stroke-linecap:round;stroke-linejoin:round;stroke-miterlimit:4;stroke-dasharray:none;stroke-opacity:1;visibility:visible" visibility="hidden"/><path d="m464.422 406.904 2.7-23.278M453.092 388.071l14.178-5.12M438.547 515.77l14.543-127.7M438.547 515.77l-.783 13.277M409.14 658.256h0" style="fill:none;stroke:red;stroke-width:.999997;stroke-linecap:round;stroke-linejoin:round;stroke-miterlimit:4;stroke-dasharray:none;stroke-opacity:1;visibility:visible" visibility="hidden"/><path d="m452.007 513.914 4.617-39.791M456.624 474.124l7.799-67.22" style="fill:none;stroke:red;stroke-width:1.99999;stroke-linecap:round;stroke-linejoin:round;stroke-miterlimit:4;stroke-dasharray:none;stroke-opacity:1;visibility:visible" visibility="hidden"/><path d="m467.268 382.951-10.47-1.924M442.57 386.105l10.522 1.965M446.086 519.686l-.14.657-.242.64-.334.565-.392.439-.416.273-.4.087-.355-.113-.273-.3-.172-.455-.047-.581.072-.648.19-.658.296-.61.367-.509.409-.361.412-.18.381.014.321.212.225.382.104.526-.006.62M460.446 396.771l-.172.809-.304.767-.412.647-.474.462-.504.238-.47-.01-.391-.264-.283-.484-.14-.664.01-.772.171-.81.306-.77.413-.644.482-.465.492-.237.47.013.392.263.286.488.137.66-.01.772" style="fill:none;stroke:red;stroke-width:.999997;stroke-linecap:round;stroke-linejoin:round;stroke-miterlimit:4;stroke-dasharray:none;stroke-opacity:1;visibility:visible" visibility="hidden"/><path d="m528.515 360.838-10.12-1.788M505.447 363.657l12.948-4.607M428.455 512.3l-.69 12.97M442.57 386.105 428.455 512.3" style="fill:none;stroke:red;stroke-width:1.99999;stroke-linecap:round;stroke-linejoin:round;stroke-miterlimit:4;stroke-dasharray:none;stroke-opacity:1;visibility:visible" visibility="hidden"/><path d="m515.621 365.482-10.174-1.825M528.515 360.838l-12.895 4.644" style="fill:none;stroke:red;stroke-width:.999997;stroke-linecap:round;stroke-linejoin:round;stroke-miterlimit:4;stroke-dasharray:none;stroke-opacity:1;visibility:visible" visibility="hidden"/><path d="m510.061 603.357 12.091-6.57M523.052 563.373l1.568-58.07M524.743 500.735l3.772-139.898M522.152 596.788l.128-4.833" style="fill:none;stroke:red;stroke-width:1.99999;stroke-linecap:round;stroke-linejoin:round;stroke-miterlimit:4;stroke-dasharray:none;stroke-opacity:1;visibility:visible" visibility="hidden"/><path d="m517.212 502.37.055.634.183.49.298.298.381.076.431-.156.436-.368.397-.546M519.964 500.042l-.184-.492-.293-.3-.387-.075-.43.153-.435.37-.399.546-.323.674-.218.732-.083.72M520.373 374.775l.051.692.19.554.309.356.396.13.445-.114.453-.347.413-.541.333-.686.222-.759.09-.765-.051-.694-.19-.554-.311-.356-.392-.13-.451.113-.45.343-.41.543-.337.685-.223.765-.087.765M511.064 560.364l.28-11.907M512.172 513.019l3.448-147.537M510.061 603.357l.336-14.516M510.061 603.357h0" style="fill:none;stroke:red;stroke-width:.999997;stroke-linecap:round;stroke-linejoin:round;stroke-miterlimit:4;stroke-dasharray:none;stroke-opacity:1;visibility:visible" visibility="hidden"/><path d="m500.884 586.352-.294 14.424M501.628 550.124l-.16 7.83M504.875 391.648l-2.05 99.794M500.59 600.777l9.47 2.583" style="fill:none;stroke:red;stroke-width:1.99999;stroke-linecap:round;stroke-linejoin:round;stroke-miterlimit:4;stroke-dasharray:none;stroke-opacity:1;visibility:visible" visibility="hidden"/><path d="m515.096 387.787.494-21.13M515.59 365.729l-48.47 17.521M522.152 596.788l-.079.073M500.684 600.89l-.093-.114" style="fill:none;stroke:red;stroke-width:.999997;stroke-linecap:round;stroke-linejoin:round;stroke-miterlimit:4;stroke-dasharray:none;stroke-opacity:1;visibility:visible" visibility="hidden"/><path d="m464.479 406.912 50.09-18.969" style="fill:none;stroke:red;stroke-width:1.99999;stroke-linecap:round;stroke-linejoin:round;stroke-miterlimit:4;stroke-dasharray:none;stroke-opacity:1;visibility:visible" visibility="hidden"/><path d="m457.602 381.174-.116-.261" style="fill:none;stroke:red;stroke-width:.999997;stroke-linecap:round;stroke-linejoin:round;stroke-miterlimit:4;stroke-dasharray:none;stroke-opacity:1;visibility:visible" visibility="hidden"/><path d="m505.447 363.657-62.877 22.447" style="fill:none;stroke:red;stroke-width:1.99999;stroke-linecap:round;stroke-linejoin:round;stroke-miterlimit:4;stroke-dasharray:none;stroke-opacity:1;visibility:visible" visibility="hidden"/><path d="m457.486 380.911-.028.239M431.986 552.4v-.079" style="fill:none;stroke:red;stroke-width:.999997;stroke-linecap:round;stroke-linejoin:round;stroke-miterlimit:4;stroke-dasharray:none;stroke-opacity:1;visibility:visible" visibility="hidden"/><path d="m417.655 535.543-14.388-2.839M431.392 552.605l-5.25 2.498" style="fill:none;stroke:red;stroke-width:1.99999;stroke-linecap:round;stroke-linejoin:round;stroke-miterlimit:4;stroke-dasharray:none;stroke-opacity:1;visibility:visible" visibility="hidden"/><path d="m451.946 514.51-4.048 9.853" style="fill:none;stroke:red;stroke-width:.999997;stroke-linecap:round;stroke-linejoin:round;stroke-miterlimit:4;stroke-dasharray:none;stroke-opacity:1;visibility:visible" visibility="hidden"/><path d="m404.184 531.753-1.242 4.966" style="fill:none;stroke:red;stroke-width:1.99999;stroke-linecap:round;stroke-linejoin:round;stroke-miterlimit:4;stroke-dasharray:none;stroke-opacity:1;visibility:visible" visibility="hidden"/><path d="m408.31 541.52 9.3-7.988M421.243 549.46l-.447 4.025M420.796 553.485l.447-4.025M422.823 535.27l14.941-6.223M438.547 515.77l7.539 3.916" style="fill:none;stroke:red;stroke-width:.999997;stroke-linecap:round;stroke-linejoin:round;stroke-miterlimit:4;stroke-dasharray:none;stroke-opacity:1;visibility:visible" visibility="hidden"/><path d="m511.344 548.457 11.708 14.916M524.743 500.735l-.123 4.568M524.62 505.303l.123-4.568M510.061 603.357l12.219-11.402" style="fill:none;stroke:red;stroke-width:1.99999;stroke-linecap:round;stroke-linejoin:round;stroke-miterlimit:4;stroke-dasharray:none;stroke-opacity:1;visibility:visible" visibility="hidden"/><path d="m511.712 494.296 8.252 5.746M528.515 360.837l-8.142 13.938M501.628 550.124l9.436 10.24M501.468 557.954l9.876-9.497M524.62 505.303l-12.448 7.716M522.152 596.788l-11.755-7.947" style="fill:none;stroke:red;stroke-width:.999997;stroke-linecap:round;stroke-linejoin:round;stroke-miterlimit:4;stroke-dasharray:none;stroke-opacity:1;visibility:visible" visibility="hidden"/><path d="m510.061 603.357-9.177-17.005M511.064 560.364l-9.436-10.24M511.344 548.457l-9.876 9.497M515.096 387.787l-10.221 3.861" style="fill:none;stroke:red;stroke-width:1.99999;stroke-linecap:round;stroke-linejoin:round;stroke-miterlimit:4;stroke-dasharray:none;stroke-opacity:1;visibility:visible" visibility="hidden"/><path d="m460.512 575.775 1.44-21.947" style="fill:none;stroke:#00ff4a;stroke-width:1.99999;stroke-linecap:round;stroke-linejoin:round;stroke-miterlimit:4;stroke-dasharray:none;stroke-opacity:1;visibility:visible" visibility="hidden"/><path d="m639.502 598.785 1.284 24.188M461.952 553.828l177.55 44.957" style="fill:none;stroke:#00ff4a;stroke-width:.999997;stroke-linecap:round;stroke-linejoin:round;stroke-miterlimit:4;stroke-dasharray:none;stroke-opacity:1;visibility:visible" visibility="hidden"/><path d="m640.785 622.972-180.274-47.197" style="fill:none;stroke:#00ff4a;stroke-width:1.99999;stroke-linecap:round;stroke-linejoin:round;stroke-miterlimit:4;stroke-dasharray:none;stroke-opacity:1;visibility:visible" visibility="hidden"/><path d="m646.777 594.42-7.275 4.364" style="fill:none;stroke:#00ff4a;stroke-width:.999997;stroke-linecap:round;stroke-linejoin:round;stroke-miterlimit:4;stroke-dasharray:none;stroke-opacity:1;visibility:visible" visibility="hidden"/><path d="m648.014 618.475-7.228 4.497M646.777 594.42l1.237 24.055" style="fill:none;stroke:#00ff4a;stroke-width:1.99999;stroke-linecap:round;stroke-linejoin:round;stroke-miterlimit:4;stroke-dasharray:none;stroke-opacity:1;visibility:visible" visibility="hidden"/><path d="m643.9 611.001.47-.445.377-.713.253-.875.088-.923-.095-.84-.252-.648-.38-.37-.465-.043-.482.292-.429.587-.323.797-.172.92v.897l.18.76.321.526.433.206.476-.128" style="fill:none;stroke:#00ff4a;stroke-width:.999997;stroke-linecap:round;stroke-linejoin:round;stroke-miterlimit:4;stroke-dasharray:none;stroke-opacity:1;visibility:visible" visibility="hidden"/><path d="m469.796 550.007 176.981 44.413M469.796 550.007l-7.844 3.821" style="fill:none;stroke:#00ff4a;stroke-width:1.99999;stroke-linecap:round;stroke-linejoin:round;stroke-miterlimit:4;stroke-dasharray:none;stroke-opacity:1;visibility:visible" visibility="hidden"/><path d="m549.952 574.27-.565-.306-.331-.339-.067-.355.208-.349.455-.304.675-.249.843-.17.95-.074.991.016.951.115.843.204.676.268.454.326.202.351-.066.355-.331.33-.576.281-.765.21-.909.125-.985.032-.974-.069-.911-.16-.768-.239" style="fill:none;stroke:#00ff4a;stroke-width:.999997;stroke-linecap:round;stroke-linejoin:round;stroke-miterlimit:4;stroke-dasharray:none;stroke-opacity:1;visibility:visible" visibility="hidden"/><path d="m738.102 553.719-.4.094-.359-.213-.263-.5-.139-.715.009-.825.151-.84.284-.731.365-.525.401-.248.392.064.314.367.206.616.071.782-.084.852-.217.793-.336.64-.395.388" style="fill:none;stroke:#9500ff;stroke-width:.999997;stroke-linecap:round;stroke-linejoin:round;stroke-miterlimit:4;stroke-dasharray:none;stroke-opacity:1;visibility:visible"/><path d="m735.366 564.633 6.096-3.797" style="fill:none;stroke:#9500ff;stroke-width:1.99999;stroke-linecap:round;stroke-linejoin:round;stroke-miterlimit:4;stroke-dasharray:none;stroke-opacity:1;visibility:visible"/><path d="m734.574 542.184 6.126-3.684M735.366 564.633l-.793-22.449" style="fill:none;stroke:#9500ff;stroke-width:.999997;stroke-linecap:round;stroke-linejoin:round;stroke-miterlimit:4;stroke-dasharray:none;stroke-opacity:1;visibility:visible"/><path d="m565.065 504.074-1.841 20.509M741.463 560.837l-.763-22.336" style="fill:none;stroke:#9500ff;stroke-width:1.99999;stroke-linecap:round;stroke-linejoin:round;stroke-miterlimit:4;stroke-dasharray:none;stroke-opacity:1;visibility:visible"/><path d="m734.574 542.184-169.507-38.11" style="fill:none;stroke:#9500ff;stroke-width:.999997;stroke-linecap:round;stroke-linejoin:round;stroke-miterlimit:4;stroke-dasharray:none;stroke-opacity:1;visibility:visible"/><path d="m740.698 538.501-168.947-37.685M565.065 504.074l6.686-3.258M563.225 524.583l172.141 40.05" style="fill:none;stroke:#9500ff;stroke-width:1.99999;stroke-linecap:round;stroke-linejoin:round;stroke-miterlimit:4;stroke-dasharray:none;stroke-opacity:1;visibility:visible"/><path d="m461.952 553.828 5.943-18.571" style="fill:none;stroke:red;stroke-width:1.99999;stroke-linecap:round;stroke-linejoin:round;stroke-miterlimit:4;stroke-dasharray:none;stroke-opacity:1;visibility:visible" visibility="hidden"/></svg>