<svg xmlns="http://www.w3.org/2000/svg" baseProfile="full" height="1122.52" preserveAspectRatio="xMinYMin meet" style="width:602px;height:832px" width="793.701" xml:space="preserve"><path d="m442.986 309.9-.565-.304-.331-.339-.067-.357.208-.35.455-.302.675-.25.844-.169.95-.076.991.018.95.114.843.204.676.268.454.327.202.35-.066.355-.331.331-.576.28-.765.21-.908.126-.986.032-.974-.07-.91-.158-.769-.24" style="fill:none;stroke:red;stroke-width:.999997;stroke-linecap:round;stroke-linejoin:round;stroke-miterlimit:4;stroke-dasharray:none;stroke-opacity:1;visibility:visible"/><path d="m241.349 148.408-.285.912M241.064 149.32l-.773-.557M240.29 148.762l-.51-1.527M239.781 147.236l.285-.91M240.066 146.327l.776.557M240.842 146.884l.507 1.524M240.163 143.946a.73.73 0 0 0-.562-.04M242.14 151.546a.755.755 0 0 0 .43-.374M242.57 151.17a3.04 3.04 0 0 0 .323-1.364" style="fill:none;stroke:red;stroke-width:.999997;stroke-linecap:round;stroke-linejoin:round;stroke-miterlimit:2;stroke-dasharray:none;stroke-opacity:1;visibility:visible"/><path d="M242.893 149.806a8.24 8.24 0 0 0-1.648-4.958M241.245 144.848a3.025 3.025 0 0 0-1.082-.902M239.295 144.006a.747.747 0 0 0-.425.37M238.869 144.376a3.065 3.065 0 0 0-.326 1.37M238.543 145.746a8.287 8.287 0 0 0 1.648 4.956M240.191 150.702a3.1 3.1 0 0 0 1.08.902M241.271 151.602a.732.732 0 0 0 .563.04M241.835 151.64l.307-.096M239.296 144.004l.305-.101M242.888 149.96l2.18-.727M241.146 144.72l2.323-.77M242.893 149.832a.235.235 0 0 1 .017-.03" style="fill:none;stroke:red;stroke-width:.999997;stroke-linecap:round;stroke-linejoin:round;stroke-miterlimit:2;stroke-dasharray:none;stroke-opacity:1;visibility:visible"/><path d="M243.946 149.652c.25.12.49.153.71.076.779-.268.962-1.806.404-3.434-.558-1.629-1.643-2.736-2.426-2.464a.89.89 0 0 0-.473.418" style="fill:none;stroke:red;stroke-width:.999997;stroke-linecap:round;stroke-linejoin:round;stroke-miterlimit:4;stroke-dasharray:none;stroke-opacity:1;visibility:visible"/><path d="m317.841 180.142-.285.912M317.556 181.054l-.773-.557M316.783 180.496l-.51-1.527M316.273 178.97l.285-.91M316.559 178.061l.776.557M317.335 178.619l.507 1.524M316.655 175.678a.755.755 0 0 0-.562-.041M318.634 183.277a.741.741 0 0 0 .428-.372M319.062 182.905a3.06 3.06 0 0 0 .323-1.367M319.386 181.538a8.267 8.267 0 0 0-1.648-4.956M317.737 176.582a3.032 3.032 0 0 0-1.082-.904M315.786 175.741a.736.736 0 0 0-.426.37M315.362 176.11a3.065 3.065 0 0 0-.325 1.37M315.035 177.481a8.259 8.259 0 0 0 1.648 4.953M316.685 182.433c.284.38.655.69 1.08.904M317.763 183.337a.744.744 0 0 0 .563.039M318.327 183.374l.307-.099M315.788 175.739l.305-.104M319.38 181.694l2.18-.727M317.638 176.452l2.323-.77M319.386 181.564a.107.107 0 0 1 .019-.028" style="fill:none;stroke:red;stroke-width:.999997;stroke-linecap:round;stroke-linejoin:round;stroke-miterlimit:2;stroke-dasharray:none;stroke-opacity:1;visibility:visible"/><path d="M320.44 181.386c.248.12.49.151.708.076.781-.266.965-1.805.406-3.436-.559-1.626-1.644-2.733-2.427-2.465a.895.895 0 0 0-.473.421" style="fill:none;stroke:red;stroke-width:.999997;stroke-linecap:round;stroke-linejoin:round;stroke-miterlimit:4;stroke-dasharray:none;stroke-opacity:1;visibility:visible"/><path d="m350.26 361.421-.285.912M349.974 362.332l-.773-.557M349.2 361.775l-.51-1.527M348.691 360.25l.285-.91M348.977 359.34l.776.557M349.753 359.897l.507 1.524M349.074 356.96a.73.73 0 0 0-.564-.043M351.052 364.558a.755.755 0 0 0 .428-.375M351.48 364.183a3.04 3.04 0 0 0 .321-1.363M351.803 362.818a8.24 8.24 0 0 0-1.648-4.959M350.154 357.86a3.025 3.025 0 0 0-1.082-.9M348.204 357.02a.747.747 0 0 0-.424.368M347.78 357.389a3.065 3.065 0 0 0-.327 1.369M347.452 358.76a8.287 8.287 0 0 0 1.648 4.954M349.102 363.714a3.1 3.1 0 0 0 1.08.901M350.182 364.615a.732.732 0 0 0 .562.039M350.745 364.653l.307-.096M348.206 357.017l.305-.101M351.798 362.973l2.18-.727M350.056 357.733l2.323-.77M351.803 362.845a.235.235 0 0 1 .019-.031" style="fill:none;stroke:red;stroke-width:.999997;stroke-linecap:round;stroke-linejoin:round;stroke-miterlimit:2;stroke-dasharray:none;stroke-opacity:1;visibility:visible"/><path d="M352.856 362.665c.25.12.491.153.71.075.781-.266.964-1.805.404-3.433-.558-1.63-1.643-2.736-2.426-2.465a.89.89 0 0 0-.473.418" style="fill:none;stroke:red;stroke-width:.999997;stroke-linecap:round;stroke-linejoin:round;stroke-miterlimit:4;stroke-dasharray:none;stroke-opacity:1;visibility:visible"/><path d="m225.922 292.048-.285.912M225.637 292.96l-.773-.557M224.863 292.403l-.51-1.527M224.354 290.877l.285-.91M224.64 289.968l.776.557M225.415 290.525l.507 1.524M224.737 287.587a.73.73 0 0 0-.563-.04M226.714 295.186a.755.755 0 0 0 .428-.375M227.142 294.811a3.04 3.04 0 0 0 .323-1.364M227.466 293.446a8.24 8.24 0 0 0-1.648-4.959M225.817 288.489a3.025 3.025 0 0 0-1.082-.902M223.867 287.647a.747.747 0 0 0-.425.37M223.442 288.015a3.065 3.065 0 0 0-.325 1.37M223.117 289.386a8.287 8.287 0 0 0 1.648 4.956M224.765 294.342a3.1 3.1 0 0 0 1.08.901M225.845 295.243a.732.732 0 0 0 .562.04M226.408 295.28l.307-.096M223.869 287.645l.305-.101M227.46 293.6l2.18-.727M225.719 288.361l2.323-.77M227.466 293.473a.235.235 0 0 1 .019-.03" style="fill:none;stroke:red;stroke-width:.999997;stroke-linecap:round;stroke-linejoin:round;stroke-miterlimit:2;stroke-dasharray:none;stroke-opacity:1;visibility:visible"/><path d="M228.52 293.293c.248.12.49.153.708.076.782-.267.965-1.806.406-3.434-.559-1.629-1.644-2.735-2.427-2.465a.89.89 0 0 0-.473.42" style="fill:none;stroke:red;stroke-width:.999997;stroke-linecap:round;stroke-linejoin:round;stroke-miterlimit:4;stroke-dasharray:none;stroke-opacity:1;visibility:visible"/><path d="m366.81 343.884.044-5.943M350.298 334.343l-.02 5.927" style="fill:none;stroke:red;stroke-width:1.99999;stroke-linecap:round;stroke-linejoin:round;stroke-miterlimit:4;stroke-dasharray:none;stroke-opacity:1;visibility:visible"/><path d="m329.784 356.741-.615-.415-.249-.233M329.784 356.741l14.205 8.008M343.137 364.1l.864.085M237.267 280.905l107.03 58.643" style="fill:none;stroke:red;stroke-width:.999997;stroke-linecap:round;stroke-linejoin:round;stroke-miterlimit:4;stroke-dasharray:none;stroke-opacity:1;visibility:visible"/><path d="m343.137 364.1-108.328-61.019" style="fill:none;stroke:red;stroke-width:1.99999;stroke-linecap:round;stroke-linejoin:round;stroke-miterlimit:4;stroke-dasharray:none;stroke-opacity:1;visibility:visible"/><path d="m236.5 280.575 10.87-2.459" style="fill:none;stroke:red;stroke-width:.999997;stroke-linecap:round;stroke-linejoin:round;stroke-miterlimit:4;stroke-dasharray:none;stroke-opacity:1;visibility:visible"/><path d="m247.371 278.116 63.188 33.964M338.417 327.207l12.05 6.55" style="fill:none;stroke:red;stroke-width:1.99999;stroke-linecap:round;stroke-linejoin:round;stroke-miterlimit:4;stroke-dasharray:none;stroke-opacity:1;visibility:visible"/><path d="M350.278 340.271c.041.646.566 1.319 1.192 1.503M358.023 345.369l-6.552-3.596M366.81 343.884l-.081.415-.33.494-.552.446-.753.38-.921.292-1.04.189-1.107.073-1.123-.04-1.073-.15-.977-.263-.83-.352M372.86 344.645l-11.15 4.464M372.86 344.645l-6.028-3.279M344.298 339.548l17.412 9.56M350.29 337.19l-5.99 2.36" style="fill:none;stroke:red;stroke-width:.999997;stroke-linecap:round;stroke-linejoin:round;stroke-miterlimit:4;stroke-dasharray:none;stroke-opacity:1;visibility:visible"/><path d="m359.56 490.627-16.956-10.716M344.298 340.22l-1.695 139.69" style="fill:none;stroke:red;stroke-width:1.99999;stroke-linecap:round;stroke-linejoin:round;stroke-miterlimit:4;stroke-dasharray:none;stroke-opacity:1;visibility:visible"/><path d="m361.71 349.108-2.15 141.518M370.439 485.619h0" style="fill:none;stroke:red;stroke-width:.999997;stroke-linecap:round;stroke-linejoin:round;stroke-miterlimit:4;stroke-dasharray:none;stroke-opacity:1;visibility:visible"/><path d="m370.439 485.619-10.879 5.008" style="fill:none;stroke:red;stroke-width:1.99999;stroke-linecap:round;stroke-linejoin:round;stroke-miterlimit:4;stroke-dasharray:none;stroke-opacity:1;visibility:visible"/><path d="M359.56 490.627h0" style="fill:none;stroke:red;stroke-width:.999997;stroke-linecap:round;stroke-linejoin:round;stroke-miterlimit:4;stroke-dasharray:none;stroke-opacity:1;visibility:visible"/><path d="m370.439 485.619 2.42-140.25M358.056 339.416l-6.567-3.576M351.49 335.84l-.63-.43-.397-.485-.161-.509.095-.51.338-.49.562-.44.768-.37.926-.287 1.046-.182 1.105-.068 1.115.047 1.066.153.968.264.819.354M359.11 332.887l6.528 3.527M365.637 336.413l.63.43.41.482.172.512-.081.516-.322.49-.556.445-.754.377-.92.292-1.042.185-1.109.078-1.123-.042-1.073-.153-.98-.26-.833-.35" style="fill:none;stroke:red;stroke-width:1.99999;stroke-linecap:round;stroke-linejoin:round;stroke-miterlimit:4;stroke-dasharray:none;stroke-opacity:1;visibility:visible"/><path d="M342.604 479.91h0M328.67 170.374l11.396-3.653M311.454 162.559l17.215 7.815M322.815 158.983l-11.361 3.576" style="fill:none;stroke:red;stroke-width:.999997;stroke-linecap:round;stroke-linejoin:round;stroke-miterlimit:4;stroke-dasharray:none;stroke-opacity:1;visibility:visible"/><path d="m311.306 188.356-.79 132.028" style="fill:none;stroke:red;stroke-width:1.99999;stroke-linecap:round;stroke-linejoin:round;stroke-miterlimit:4;stroke-dasharray:none;stroke-opacity:1;visibility:visible"/><path d="m311.454 162.559-.148 25.797M328.67 170.374l-2.076 155.469M326.594 325.843l-.193 3.547" style="fill:none;stroke:red;stroke-width:.999997;stroke-linecap:round;stroke-linejoin:round;stroke-miterlimit:4;stroke-dasharray:none;stroke-opacity:1;visibility:visible"/><path d="m338.417 327.207 1.648-160.486" style="fill:none;stroke:red;stroke-width:1.99999;stroke-linecap:round;stroke-linejoin:round;stroke-miterlimit:4;stroke-dasharray:none;stroke-opacity:1;visibility:visible"/><path d="m263.883 132.53-11.364 3.265" style="fill:none;stroke:red;stroke-width:.999997;stroke-linecap:round;stroke-linejoin:round;stroke-miterlimit:4;stroke-dasharray:none;stroke-opacity:1;visibility:visible"/><path d="m233.543 400.048 10.413-91.814" style="fill:none;stroke:red;stroke-width:1.99999;stroke-linecap:round;stroke-linejoin:round;stroke-miterlimit:4;stroke-dasharray:none;stroke-opacity:1;visibility:visible"/><path d="m247.371 278.116 12.861-113.393" style="fill:none;stroke:red;stroke-width:.999997;stroke-linecap:round;stroke-linejoin:round;stroke-miterlimit:4;stroke-dasharray:none;stroke-opacity:1;visibility:visible"/><path d="m222.82 404.223 10.723-4.175" style="fill:none;stroke:red;stroke-width:1.99999;stroke-linecap:round;stroke-linejoin:round;stroke-miterlimit:4;stroke-dasharray:none;stroke-opacity:1;visibility:visible"/><path d="m252.518 135.796-15.71-7.11M252.518 135.796l-29.697 268.426" style="fill:none;stroke:red;stroke-width:.999997;stroke-linecap:round;stroke-linejoin:round;stroke-miterlimit:4;stroke-dasharray:none;stroke-opacity:1;visibility:visible"/><path d="m248.135 125.478-11.328 3.208" style="fill:none;stroke:red;stroke-width:1.99999;stroke-linecap:round;stroke-linejoin:round;stroke-miterlimit:4;stroke-dasharray:none;stroke-opacity:1;visibility:visible"/><path d="m208.43 395.254.04.11" style="fill:none;stroke:red;stroke-width:.999997;stroke-linecap:round;stroke-linejoin:round;stroke-miterlimit:4;stroke-dasharray:none;stroke-opacity:1;visibility:visible"/><path d="M236.807 128.686 208.43 395.253" style="fill:none;stroke:red;stroke-width:1.99999;stroke-linecap:round;stroke-linejoin:round;stroke-miterlimit:4;stroke-dasharray:none;stroke-opacity:1;visibility:visible"/><path d="m222.684 404.332.137-.11" style="fill:none;stroke:red;stroke-width:.999997;stroke-linecap:round;stroke-linejoin:round;stroke-miterlimit:4;stroke-dasharray:none;stroke-opacity:1;visibility:visible"/><path d="m208.47 395.364 14.213 8.97" style="fill:none;stroke:red;stroke-width:1.99999;stroke-linecap:round;stroke-linejoin:round;stroke-miterlimit:4;stroke-dasharray:none;stroke-opacity:1;visibility:visible"/><path d="M233.543 400.048h0M310.453 188.278l.85.079" style="fill:none;stroke:red;stroke-width:.999997;stroke-linecap:round;stroke-linejoin:round;stroke-miterlimit:4;stroke-dasharray:none;stroke-opacity:1;visibility:visible"/><path d="m310.453 188.278-59.84-28.183" style="fill:none;stroke:red;stroke-width:1.99999;stroke-linecap:round;stroke-linejoin:round;stroke-miterlimit:4;stroke-dasharray:none;stroke-opacity:1;visibility:visible"/><path d="m252.277 135.686 59.823 27.165" style="fill:none;stroke:red;stroke-width:.999997;stroke-linecap:round;stroke-linejoin:round;stroke-miterlimit:4;stroke-dasharray:none;stroke-opacity:1;visibility:visible"/><path d="m248.135 125.478 91.93 41.243" style="fill:none;stroke:red;stroke-width:1.99999;stroke-linecap:round;stroke-linejoin:round;stroke-miterlimit:4;stroke-dasharray:none;stroke-opacity:1;visibility:visible"/><path d="m338.517 308.02.4.036M402.24 220.436l-63.005 21.861M310.917 252.127l-63.081 21.885" style="fill:none;stroke:red;stroke-width:.999997;stroke-linecap:round;stroke-linejoin:round;stroke-miterlimit:4;stroke-dasharray:none;stroke-opacity:1;visibility:visible"/><path d="m403.41 241.033-1.17-20.596M268.3 289.127l42.483-15.123M339 263.963l64.41-22.93M402.24 220.436l-8.468-3.919M393.772 216.517l-54.456 18.737M310.957 245.01l-62.26 21.427" style="fill:none;stroke:red;stroke-width:1.99999;stroke-linecap:round;stroke-linejoin:round;stroke-miterlimit:4;stroke-dasharray:none;stroke-opacity:1;visibility:visible"/><path d="m370.397 343.304 161.212-63.503" style="fill:none;stroke:red;stroke-width:.999997;stroke-linecap:round;stroke-linejoin:round;stroke-miterlimit:4;stroke-dasharray:none;stroke-opacity:1;visibility:visible"/><path d="m531.61 279.801.43 21.727M532.04 301.528l-159.542 64.417M365.448 336.311l156.408-61.021M521.855 275.29l9.753 4.51" style="fill:none;stroke:red;stroke-width:1.99999;stroke-linecap:round;stroke-linejoin:round;stroke-miterlimit:4;stroke-dasharray:none;stroke-opacity:1;visibility:visible"/><path d="m337.167 165.426 145.36-45.773" style="fill:none;stroke:red;stroke-width:.999997;stroke-linecap:round;stroke-linejoin:round;stroke-miterlimit:4;stroke-dasharray:none;stroke-opacity:1;visibility:visible"/><path d="m482.526 119.653.76 23.117M483.286 142.77l-143.469 46.65M327.715 161.181l145.156-45.276M472.871 115.905l9.655 3.748" style="fill:none;stroke:red;stroke-width:1.99999;stroke-linecap:round;stroke-linejoin:round;stroke-miterlimit:4;stroke-dasharray:none;stroke-opacity:1;visibility:visible"/><path d="m404.257 141.048-.599-.328-.33-.37-.05-.383.242-.378.501-.332.744-.265.921-.181 1.027-.087 1.063.021 1.02.126.896.218.712.294.469.35.203.382-.092.384-.375.358-.635.3-.84.232-.984.134-1.054.032-1.058-.072-.966-.175-.815-.26M260.099 130.835 403.42 89.087" style="fill:none;stroke:red;stroke-width:.999997;stroke-linecap:round;stroke-linejoin:round;stroke-miterlimit:4;stroke-dasharray:none;stroke-opacity:1;visibility:visible"/><path d="m403.42 89.088 1.22 22.323M404.64 111.41l-112.43 33.835M251.473 126.975l143.101-41.32M394.574 85.655l8.847 3.432" style="fill:none;stroke:red;stroke-width:1.99999;stroke-linecap:round;stroke-linejoin:round;stroke-miterlimit:4;stroke-dasharray:none;stroke-opacity:1;visibility:visible"/><path d="m326.378 108.556-.539-.3-.285-.335-.004-.356.265-.34.52-.304.736-.246.899-.166.99-.074 1.011.016.96.112.836.202.651.266.419.32.145.352-.123.35-.397.324-.635.279-.824.21-.958.125-1.012.028-.996-.066-.908-.156-.751-.241M343.99 364.75v-.005M329.793 356.585l-.01.156" style="fill:none;stroke:red;stroke-width:.999997;stroke-linecap:round;stroke-linejoin:round;stroke-miterlimit:4;stroke-dasharray:none;stroke-opacity:1;visibility:visible"/><path d="M357.034 300.474c-.09.21-.134.44-.12.67M242.14 151.546l2.928-2.313M239.601 143.906l3.868.043" style="fill:none;stroke:red;stroke-width:.999997;stroke-linecap:round;stroke-linejoin:round;stroke-miterlimit:2;stroke-dasharray:none;stroke-opacity:1;visibility:visible"/><path d="m241.271 151.604 2.675-1.952M238.869 144.376l3.292-.128" style="fill:none;stroke:red;stroke-width:.999997;stroke-linecap:round;stroke-linejoin:round;stroke-miterlimit:4;stroke-dasharray:none;stroke-opacity:1;visibility:visible"/><path d="m318.634 183.277 2.926-2.31M316.093 175.637l3.868.044" style="fill:none;stroke:red;stroke-width:.999997;stroke-linecap:round;stroke-linejoin:round;stroke-miterlimit:2;stroke-dasharray:none;stroke-opacity:1;visibility:visible"/><path d="m317.765 183.337 2.675-1.951M315.362 176.11l3.292-.128" style="fill:none;stroke:red;stroke-width:.999997;stroke-linecap:round;stroke-linejoin:round;stroke-miterlimit:4;stroke-dasharray:none;stroke-opacity:1;visibility:visible"/><path d="m351.052 364.558 2.926-2.312M348.51 356.917l3.869.045" style="fill:none;stroke:red;stroke-width:.999997;stroke-linecap:round;stroke-linejoin:round;stroke-miterlimit:2;stroke-dasharray:none;stroke-opacity:1;visibility:visible"/><path d="m350.182 364.615 2.674-1.95M347.78 357.389l3.291-.129" style="fill:none;stroke:red;stroke-width:.999997;stroke-linecap:round;stroke-linejoin:round;stroke-miterlimit:4;stroke-dasharray:none;stroke-opacity:1;visibility:visible"/><path d="m226.714 295.186 2.926-2.313M224.174 287.547l3.868.043" style="fill:none;stroke:red;stroke-width:.999997;stroke-linecap:round;stroke-linejoin:round;stroke-miterlimit:2;stroke-dasharray:none;stroke-opacity:1;visibility:visible"/><path d="m225.845 295.243 2.675-1.95M223.442 288.015l3.292-.125" style="fill:none;stroke:red;stroke-width:.999997;stroke-linecap:round;stroke-linejoin:round;stroke-miterlimit:4;stroke-dasharray:none;stroke-opacity:1;visibility:visible"/><path d="m350.278 340.27 16.576-2.329M225.845 295.243l8.964 7.838" style="fill:none;stroke:red;stroke-width:1.99999;stroke-linecap:round;stroke-linejoin:round;stroke-miterlimit:4;stroke-dasharray:none;stroke-opacity:1;visibility:visible"/><path d="m365.638 336.414 1.194 4.952M365.448 336.311l-15.158.879M327.715 161.181l-4.9-2.198" style="fill:none;stroke:red;stroke-width:.999997;stroke-linecap:round;stroke-linejoin:round;stroke-miterlimit:4;stroke-dasharray:none;stroke-opacity:1;visibility:visible"/><path d="m326.594 325.843-16.077-5.46" style="fill:none;stroke:red;stroke-width:1.99999;stroke-linecap:round;stroke-linejoin:round;stroke-miterlimit:4;stroke-dasharray:none;stroke-opacity:1;visibility:visible"/><path d="m260.099 130.835 3.784 1.695" style="fill:none;stroke:red;stroke-width:.999997;stroke-linecap:round;stroke-linejoin:round;stroke-miterlimit:4;stroke-dasharray:none;stroke-opacity:1;visibility:visible"/><path d="m241.271 151.604 9.342 8.491" style="fill:none;stroke:red;stroke-width:1.99999;stroke-linecap:round;stroke-linejoin:round;stroke-miterlimit:4;stroke-dasharray:none;stroke-opacity:1;visibility:visible"/><path d="m372.86 344.645-2.463-1.341" style="fill:none;stroke:red;stroke-width:.999997;stroke-linecap:round;stroke-linejoin:round;stroke-miterlimit:4;stroke-dasharray:none;stroke-opacity:1;visibility:visible"/><path d="m353.978 362.246 18.52 3.7" style="fill:none;stroke:red;stroke-width:1.99999;stroke-linecap:round;stroke-linejoin:round;stroke-miterlimit:4;stroke-dasharray:none;stroke-opacity:1;visibility:visible"/><path d="m340.066 166.72-2.899-1.294" style="fill:none;stroke:red;stroke-width:.999997;stroke-linecap:round;stroke-linejoin:round;stroke-miterlimit:4;stroke-dasharray:none;stroke-opacity:1;visibility:visible"/><path d="m322.815 158.983 4.9 2.198" style="fill:none;stroke:red;stroke-width:1.99999;stroke-linecap:round;stroke-linejoin:round;stroke-miterlimit:4;stroke-dasharray:none;stroke-opacity:1;visibility:visible"/><path d="m263.883 132.53-3.784-1.695" style="fill:none;stroke:red;stroke-width:.999997;stroke-linecap:round;stroke-linejoin:round;stroke-miterlimit:4;stroke-dasharray:none;stroke-opacity:1;visibility:visible"/><path d="m248.135 125.478 3.338 1.497" style="fill:none;stroke:red;stroke-width:1.99999;stroke-linecap:round;stroke-linejoin:round;stroke-miterlimit:4;stroke-dasharray:none;stroke-opacity:1;visibility:visible"/><path d="m397.534 317.46-2.17-11.596M395.365 305.864l191.593-73.096M358.837 301.944l36.528 3.919" style="fill:none;stroke:#00ff4a;stroke-width:.999997;stroke-linecap:round;stroke-linejoin:round;stroke-miterlimit:4;stroke-dasharray:none;stroke-opacity:1;visibility:visible"/><path d="m361.122 313.332-2.292-11.445M534.624 236.168l14.212-5.32M586.958 232.767l-38.123-1.919M375.348 295.762l-16.51 6.183" style="fill:none;stroke:#00ff4a;stroke-width:1.99999;stroke-linecap:round;stroke-linejoin:round;stroke-miterlimit:4;stroke-dasharray:none;stroke-opacity:1;visibility:visible"/><path d="m374.948 295.725.4.036" style="fill:none;stroke:#00ff4a;stroke-width:.999997;stroke-linecap:round;stroke-linejoin:round;stroke-miterlimit:4;stroke-dasharray:none;stroke-opacity:1;visibility:visible"/><path d="m519.04 235.322 15.584.847M519.04 235.322l-159.589 59.275M588.83 243.603l-191.172 73.94M397.659 317.543l-36.536-4.21M587.086 232.808l1.745 10.796" style="fill:none;stroke:#00ff4a;stroke-width:1.99999;stroke-linecap:round;stroke-linejoin:round;stroke-miterlimit:4;stroke-dasharray:none;stroke-opacity:1;visibility:visible"/><path d="M537.777 230.836a.04.04 0 0 1-.014-.008M539.265 234.217c0-.005.005-.012.007-.017M539.27 234.2c.084-.211.116-.442.094-.671M539.363 233.528a4.031 4.031 0 0 0-.324-1.238 3.925 3.925 0 0 0-.7-1.068M538.34 231.22a1.48 1.48 0 0 0-.563-.383M536.725 230.489l1.039.337M536.75 230.5a.497.497 0 0 0-.383.01M538.959 234.252a5.573 5.573 0 0 0-1.426-3.216M537.532 231.036a2.075 2.075 0 0 0-.783-.534M526.03 235.07l10.34-4.563" style="fill:none;stroke:#00ff4a;stroke-width:.999997;stroke-linecap:round;stroke-linejoin:round;stroke-miterlimit:2;stroke-dasharray:none;stroke-opacity:1;visibility:visible"/><path d="m532.76 235.07 4.079-1.81" style="fill:none;stroke:#00ff4a;stroke-width:.999997;stroke-linecap:round;stroke-linejoin:round;stroke-miterlimit:4;stroke-dasharray:none;stroke-opacity:1;visibility:visible"/><path d="m359.45 294.597 15.584.847M360.047 297.352l-.552-2.535" style="fill:none;stroke:#00ff4a;stroke-width:1.99999;stroke-linecap:round;stroke-linejoin:round;stroke-miterlimit:4;stroke-dasharray:none;stroke-opacity:1;visibility:visible"/><path d="M358.167 299.246a.492.492 0 0 0-.641.236M359.964 301.682a5.57 5.57 0 0 0-1.037-1.872M358.926 299.81a2.073 2.073 0 0 0-.759-.564M356.915 301.143a4.008 4.008 0 0 0 .927 2.347M357.842 303.489c.146.176.334.314.546.405M358.388 303.893a.344.344 0 0 0 .272.005.337.337 0 0 0 .195-.192M358.855 303.707c.092-.207.133-.437.121-.666M358.405 303.899l1.023.381M357.042 300.456l.484-.976M357.786 299.237l10.585-4.193M368.118 298.071c-.558-1.351-1.515-2.208-2.423-2.04M519.04 235.322l6.99-.252" style="fill:none;stroke:#00ff4a;stroke-width:.999997;stroke-linecap:round;stroke-linejoin:round;stroke-miterlimit:2;stroke-dasharray:none;stroke-opacity:1;visibility:visible"/><path d="m536.37 230.507-3.61 4.563M536.367 230.51l.472 2.75" style="fill:none;stroke:#00ff4a;stroke-width:.999997;stroke-linecap:round;stroke-linejoin:round;stroke-miterlimit:4;stroke-dasharray:none;stroke-opacity:1;visibility:visible"/><path d="m358.83 301.887 1.217-4.535" style="fill:none;stroke:#00ff4a;stroke-width:1.99999;stroke-linecap:round;stroke-linejoin:round;stroke-miterlimit:4;stroke-dasharray:none;stroke-opacity:1;visibility:visible"/><path d="m359.451 294.597 8.92.447" style="fill:none;stroke:#00ff4a;stroke-width:.999997;stroke-linecap:round;stroke-linejoin:round;stroke-miterlimit:2;stroke-dasharray:none;stroke-opacity:1;visibility:visible"/></svg>