<svg xmlns="http://www.w3.org/2000/svg" baseProfile="full" height="1122.52" preserveAspectRatio="xMinYMin meet" style="width:602px;height:832px" width="793.701" xml:space="preserve"><path d="m538.888 421.912-.003 5.618M554.51 430.93l.028-5.634" style="fill:none;stroke:red;stroke-width:1.99999;stroke-linecap:round;stroke-linejoin:round;stroke-miterlimit:4;stroke-dasharray:none;stroke-opacity:1;visibility:visible" visibility="hidden"/><path d="m432.03 370.953 100.38 55.49M429.716 392.031l2.315-21.08M533.855 426.583l-1.443-.14M532.175 450.104l.812.079M519.601 443.12l-.581-.396-.216-.198M519.601 443.12l13.38 7.587" style="fill:none;stroke:red;stroke-width:.999997;stroke-linecap:round;stroke-linejoin:round;stroke-miterlimit:4;stroke-dasharray:none;stroke-opacity:1;visibility:visible" visibility="hidden"/><path d="m532.175 450.104-102.459-58.073" style="fill:none;stroke:red;stroke-width:1.99999;stroke-linecap:round;stroke-linejoin:round;stroke-miterlimit:4;stroke-dasharray:none;stroke-opacity:1;visibility:visible" visibility="hidden"/><path d="m440.776 368.191 1.659.159M432.26 370.32l8.516-2.128M432.03 370.953l.23-.633" style="fill:none;stroke:red;stroke-width:.999997;stroke-linecap:round;stroke-linejoin:round;stroke-miterlimit:4;stroke-dasharray:none;stroke-opacity:1;visibility:visible" visibility="hidden"/><path d="m526.828 414.571 12.26 6.715M442.435 368.349l57.688 31.595" style="fill:none;stroke:red;stroke-width:1.99999;stroke-linecap:round;stroke-linejoin:round;stroke-miterlimit:4;stroke-dasharray:none;stroke-opacity:1;visibility:visible" visibility="hidden"/><path d="m554.51 430.93-.081.404-.314.47-.531.426-.721.36-.874.274-.992.18-1.049.072-1.058-.038-1.015-.143-.922-.25-.783-.335M546.17 432.351l-6.176-3.41M538.885 427.53c.036.602.531 1.233 1.11 1.413" style="fill:none;stroke:red;stroke-width:.999997;stroke-linecap:round;stroke-linejoin:round;stroke-miterlimit:4;stroke-dasharray:none;stroke-opacity:1;visibility:visible" visibility="hidden"/><path d="m560.239 431.662-5.72-3.128" style="fill:none;stroke:red;stroke-width:1.99999;stroke-linecap:round;stroke-linejoin:round;stroke-miterlimit:4;stroke-dasharray:none;stroke-opacity:1;visibility:visible" visibility="hidden"/><path d="m538.888 424.607-5.667 2.221M533.221 426.828l16.396 9.074M560.239 431.662l-10.623 4.24" style="fill:none;stroke:red;stroke-width:.999997;stroke-linecap:round;stroke-linejoin:round;stroke-miterlimit:4;stroke-dasharray:none;stroke-opacity:1;visibility:visible" visibility="hidden"/><path d="M533.221 427.476 531.87 560.04M547.86 570.145l-15.99-10.105" style="fill:none;stroke:red;stroke-width:1.99999;stroke-linecap:round;stroke-linejoin:round;stroke-miterlimit:4;stroke-dasharray:none;stroke-opacity:1;visibility:visible" visibility="hidden"/><path d="M558.237 565.424h0M549.617 435.9l-1.757 134.245" style="fill:none;stroke:red;stroke-width:.999997;stroke-linecap:round;stroke-linejoin:round;stroke-miterlimit:4;stroke-dasharray:none;stroke-opacity:1;visibility:visible" visibility="hidden"/><path d="m558.237 565.424-10.377 4.721" style="fill:none;stroke:red;stroke-width:1.99999;stroke-linecap:round;stroke-linejoin:round;stroke-miterlimit:4;stroke-dasharray:none;stroke-opacity:1;visibility:visible" visibility="hidden"/><path d="M547.86 570.145h0" style="fill:none;stroke:red;stroke-width:.999997;stroke-linecap:round;stroke-linejoin:round;stroke-miterlimit:4;stroke-dasharray:none;stroke-opacity:1;visibility:visible" visibility="hidden"/><path d="m553.399 423.864.593.407.383.457.162.486-.081.49-.316.466-.53.424-.725.356-.874.277-.992.176-1.05.073-1.059-.038-1.019-.144-.922-.244-.786-.336M547.255 420.515l6.142 3.35M540 423.32l-.585-.41-.379-.459-.148-.483.096-.486.325-.464.543-.42.73-.354.886-.268.988-.172 1.05-.066 1.056.044 1.011.15.914.248.768.335M546.183 426.714 540 423.319M558.237 565.424l2.003-133.762" style="fill:none;stroke:red;stroke-width:1.99999;stroke-linecap:round;stroke-linejoin:round;stroke-miterlimit:4;stroke-dasharray:none;stroke-opacity:1;visibility:visible" visibility="hidden"/><path d="M531.87 560.039h0" style="fill:none;stroke:red;stroke-width:.999997;stroke-linecap:round;stroke-linejoin:round;stroke-miterlimit:4;stroke-dasharray:none;stroke-opacity:1;visibility:visible" visibility="hidden"/><path d="m529.079 263.14-16.249-7.446" style="fill:none;stroke:red;stroke-width:1.99999;stroke-linecap:round;stroke-linejoin:round;stroke-miterlimit:4;stroke-dasharray:none;stroke-opacity:1;visibility:visible" visibility="hidden"/><path d="m512.83 255.693-10.805 3.442M502.024 259.135l16.213 7.511M518.237 266.646l10.843-3.505" style="fill:none;stroke:red;stroke-width:.999997;stroke-linecap:round;stroke-linejoin:round;stroke-miterlimit:4;stroke-dasharray:none;stroke-opacity:1;visibility:visible" visibility="hidden"/><path d="m501.919 283.945-.527 125.35" style="fill:none;stroke:red;stroke-width:1.99999;stroke-linecap:round;stroke-linejoin:round;stroke-miterlimit:4;stroke-dasharray:none;stroke-opacity:1;visibility:visible" visibility="hidden"/><path d="m508.944 276.125.5.564.563.325.566.056.51-.223.405-.474.265-.684.098-.824-.091-.885-.25-.86-.4-.75-.51-.564-.559-.319-.561-.057-.511.221-.409.482-.259.681-.094.821M517.248 403.298l-.896 13.708M518.237 266.646l-.989 136.652M502.024 259.135l-.064 14.985M501.941 278.562l-.021 5.383" style="fill:none;stroke:red;stroke-width:.999997;stroke-linecap:round;stroke-linejoin:round;stroke-miterlimit:4;stroke-dasharray:none;stroke-opacity:1;visibility:visible" visibility="hidden"/><path d="m527.827 400.404-.999 14.167M527.828 400.404l1.25-137.263" style="fill:none;stroke:red;stroke-width:1.99999;stroke-linecap:round;stroke-linejoin:round;stroke-miterlimit:4;stroke-dasharray:none;stroke-opacity:1;visibility:visible" visibility="hidden"/><path d="m457.183 230.184-10.815 3.158" style="fill:none;stroke:red;stroke-width:.999997;stroke-linecap:round;stroke-linejoin:round;stroke-miterlimit:4;stroke-dasharray:none;stroke-opacity:1;visibility:visible" visibility="hidden"/><path d="m418.407 488.33 10.23-3.965M441.752 367.654l7.803-69.516M450.967 285.567l2.776-24.733M428.636 484.364l9.826-87.384" style="fill:none;stroke:red;stroke-width:1.99999;stroke-linecap:round;stroke-linejoin:round;stroke-miterlimit:4;stroke-dasharray:none;stroke-opacity:1;visibility:visible" visibility="hidden"/><path d="m446.367 233.344-14.885-6.87M446.367 233.344l-6.123 55.826M439.17 298.983l-20.763 189.348" style="fill:none;stroke:red;stroke-width:.999997;stroke-linecap:round;stroke-linejoin:round;stroke-miterlimit:4;stroke-dasharray:none;stroke-opacity:1;visibility:visible" visibility="hidden"/><path d="m442.276 223.37 14.907 6.814M442.276 223.37l-10.794 3.103" style="fill:none;stroke:red;stroke-width:1.99999;stroke-linecap:round;stroke-linejoin:round;stroke-miterlimit:4;stroke-dasharray:none;stroke-opacity:1;visibility:visible" visibility="hidden"/><path d="m404.716 479.794.04.104" style="fill:none;stroke:red;stroke-width:.999997;stroke-linecap:round;stroke-linejoin:round;stroke-miterlimit:4;stroke-dasharray:none;stroke-opacity:1;visibility:visible" visibility="hidden"/><path d="m431.482 226.473-1.468 13.89M429.496 245.254c-3.596 34.066-24.78 234.54-24.78 234.54" style="fill:none;stroke:red;stroke-width:1.99999;stroke-linecap:round;stroke-linejoin:round;stroke-miterlimit:4;stroke-dasharray:none;stroke-opacity:1;visibility:visible" visibility="hidden"/><path d="m418.274 488.435.133-.105" style="fill:none;stroke:red;stroke-width:.999997;stroke-linecap:round;stroke-linejoin:round;stroke-miterlimit:4;stroke-dasharray:none;stroke-opacity:1;visibility:visible" visibility="hidden"/><path d="m404.756 479.899 13.518 8.536" style="fill:none;stroke:red;stroke-width:1.99999;stroke-linecap:round;stroke-linejoin:round;stroke-miterlimit:4;stroke-dasharray:none;stroke-opacity:1;visibility:visible" visibility="hidden"/><path d="m501.112 283.458.805.075M404.756 479.899l1.406.923M428.636 484.364h0M439.408 241.464l-.165.733-.313.563-.426.333-.493.077-.521-.184-.498-.436M436.118 239.458l.158-.73.316-.568.423-.334.493-.078.523.186.496.43.421.64.302.782.158.846v.83" style="fill:none;stroke:red;stroke-width:.999997;stroke-linecap:round;stroke-linejoin:round;stroke-miterlimit:4;stroke-dasharray:none;stroke-opacity:1;visibility:visible" visibility="hidden"/><path d="m501.112 283.458-6.419-3.065M488.53 277.449l-43.914-20.975" style="fill:none;stroke:red;stroke-width:1.99999;stroke-linecap:round;stroke-linejoin:round;stroke-miterlimit:4;stroke-dasharray:none;stroke-opacity:1;visibility:visible" visibility="hidden"/><path d="m447.099 233.86.224-.538M447.099 233.86l54.924 25.275" style="fill:none;stroke:red;stroke-width:.999997;stroke-linecap:round;stroke-linejoin:round;stroke-miterlimit:4;stroke-dasharray:none;stroke-opacity:1;visibility:visible" visibility="hidden"/><path d="m455.876 229.588 56.955 26.106" style="fill:none;stroke:red;stroke-width:1.99999;stroke-linecap:round;stroke-linejoin:round;stroke-miterlimit:4;stroke-dasharray:none;stroke-opacity:1;visibility:visible" visibility="hidden"/><path d="m501.645 343.633-59.523 20.726M589.865 312.914l-61.437 21.393" style="fill:none;stroke:red;stroke-width:.999997;stroke-linecap:round;stroke-linejoin:round;stroke-miterlimit:4;stroke-dasharray:none;stroke-opacity:1;visibility:visible" visibility="hidden"/><path d="m501.677 336.829-58.745 20.293M581.836 309.135l-53.347 18.432M589.865 312.914l-8.028-3.779M528.239 354.954l62.82-22.404M461.462 378.773l39.442-14.071M591.06 332.549l-1.195-19.636" style="fill:none;stroke:red;stroke-width:1.99999;stroke-linecap:round;stroke-linejoin:round;stroke-miterlimit:4;stroke-dasharray:none;stroke-opacity:1;visibility:visible" visibility="hidden"/><path d="m557.921 430.398 154.175-60.508" style="fill:none;stroke:red;stroke-width:.999997;stroke-linecap:round;stroke-linejoin:round;stroke-miterlimit:4;stroke-dasharray:none;stroke-opacity:1;visibility:visible" visibility="hidden"/><path d="m702.912 365.575 9.185 4.315M553.25 423.782l149.66-58.205M712.628 390.545l-152.693 61.334M712.096 369.891l.53 20.653" style="fill:none;stroke:red;stroke-width:1.99999;stroke-linecap:round;stroke-linejoin:round;stroke-miterlimit:4;stroke-dasharray:none;stroke-opacity:1;visibility:visible" visibility="hidden"/><path d="m629.402 398.267-.565-.304-.33-.34-.067-.356.208-.35.454-.301.675-.251.844-.168.95-.077.992.02.949.111.844.205.676.268.453.327.203.35-.068.356-.329.33-.578.28-.763.21-.909.127-.985.031-.976-.07-.909-.159-.768-.238M519.61 442.982l-.01.138" style="fill:none;stroke:red;stroke-width:.999997;stroke-linecap:round;stroke-linejoin:round;stroke-miterlimit:4;stroke-dasharray:none;stroke-opacity:1;visibility:visible" visibility="hidden"/><path d="m539.15 439.763 2.324-.773M540.893 445.002l2.18-.724M537.3 439.048l.305-.1M539.841 446.684l.306-.101M538.17 438.987a.73.73 0 0 0-.567-.039M540.145 446.583a.736.736 0 0 0 .43-.372M540.576 446.211c.213-.421.323-.89.323-1.367M540.899 444.843a8.23 8.23 0 0 0-.424-2.61 8.247 8.247 0 0 0-1.225-2.346M539.25 439.89a3.05 3.05 0 0 0-1.083-.903M537.3 439.048a.74.74 0 0 0-.424.372M536.875 439.419a3.044 3.044 0 0 0-.326 1.365M536.55 440.786a8.237 8.237 0 0 0 1.646 4.957M538.199 445.742c.284.38.653.686 1.078.902M539.276 446.644a.756.756 0 0 0 .565.04M538.847 441.927l.508 1.524M538.073 441.371l.774.556M537.785 442.28l.287-.909M539.07 444.364l-.774-.558M539.355 443.451l-.285.915" style="fill:none;stroke:red;stroke-width:.999997;stroke-linecap:round;stroke-linejoin:round;stroke-miterlimit:2;stroke-dasharray:none;stroke-opacity:1;visibility:visible" visibility="hidden"/><path d="M540.899 444.872c.005-.009.01-.021.018-.032" style="fill:none;stroke:red;stroke-width:.999997;stroke-linecap:round;stroke-linejoin:round;stroke-miterlimit:2;stroke-dasharray:none;stroke-opacity:1;visibility:visible" visibility="hidden"/><path d="M541.95 444.692c.25.119.494.151.712.079.781-.267.963-1.807.403-3.436-.557-1.63-1.642-2.732-2.425-2.465a.893.893 0 0 0-.473.418" style="fill:none;stroke:red;stroke-width:.999997;stroke-linecap:round;stroke-linejoin:round;stroke-miterlimit:4;stroke-dasharray:none;stroke-opacity:1;visibility:visible" visibility="hidden"/><path d="M422.092 382.138c.006-.008.011-.021.019-.03M420.344 377.029l2.323-.774M422.086 382.269l2.18-.724M418.492 376.315l.306-.101M421.034 383.951l.305-.101M419.362 376.253a.735.735 0 0 0-.566-.04M421.339 383.849a.727.727 0 0 0 .43-.372M421.768 383.477c.214-.422.323-.891.323-1.367M422.092 382.111c0-.89-.142-1.77-.424-2.61a8.247 8.247 0 0 0-1.224-2.344M420.443 377.157a3.04 3.04 0 0 0-1.081-.904M418.492 376.315a.739.739 0 0 0-.424.37M418.068 376.685a3.053 3.053 0 0 0-.325 1.365M417.743 378.053a8.219 8.219 0 0 0 1.648 4.956M419.39 383.009c.286.38.655.688 1.08.904M420.47 383.911a.763.763 0 0 0 .565.039M420.039 379.193l.508 1.524M419.266 378.638l.773.555M418.979 379.547l.287-.91M420.263 381.63l-.776-.557M420.547 380.717l-.284.913" style="fill:none;stroke:red;stroke-width:.999997;stroke-linecap:round;stroke-linejoin:round;stroke-miterlimit:2;stroke-dasharray:none;stroke-opacity:1;visibility:visible" visibility="hidden"/><path d="M423.143 381.958c.247.12.492.152.71.08.783-.268.966-1.808.406-3.438-.559-1.63-1.644-2.73-2.429-2.465a.896.896 0 0 0-.471.42" style="fill:none;stroke:red;stroke-width:.999997;stroke-linecap:round;stroke-linejoin:round;stroke-miterlimit:4;stroke-dasharray:none;stroke-opacity:1;visibility:visible" visibility="hidden"/><path d="m538.885 427.53 15.653-2.234M553.397 423.865l1.122 4.669" style="fill:none;stroke:red;stroke-width:1.99999;stroke-linecap:round;stroke-linejoin:round;stroke-miterlimit:4;stroke-dasharray:none;stroke-opacity:1;visibility:visible" visibility="hidden"/><path d="m553.25 423.782-14.362.825" style="fill:none;stroke:red;stroke-width:.999997;stroke-linecap:round;stroke-linejoin:round;stroke-miterlimit:4;stroke-dasharray:none;stroke-opacity:1;visibility:visible" visibility="hidden"/><path d="m517.248 403.298-15.856 5.997" style="fill:none;stroke:red;stroke-width:1.99999;stroke-linecap:round;stroke-linejoin:round;stroke-miterlimit:4;stroke-dasharray:none;stroke-opacity:1;visibility:visible" visibility="hidden"/><path d="m533.221 427.476-16.869-10.47M501.941 278.562l.019-4.442M501.96 274.12l-.019 4.442" style="fill:none;stroke:red;stroke-width:.999997;stroke-linecap:round;stroke-linejoin:round;stroke-miterlimit:4;stroke-dasharray:none;stroke-opacity:1;visibility:visible" visibility="hidden"/><path d="m450.967 285.567-1.412 12.571M449.555 298.138l1.412-12.571M429.716 392.031l8.746 4.949" style="fill:none;stroke:red;stroke-width:1.99999;stroke-linecap:round;stroke-linejoin:round;stroke-miterlimit:4;stroke-dasharray:none;stroke-opacity:1;visibility:visible" visibility="hidden"/><path d="m439.17 298.983 1.074-9.813M440.244 289.17l-1.074 9.813" style="fill:none;stroke:red;stroke-width:.999997;stroke-linecap:round;stroke-linejoin:round;stroke-miterlimit:4;stroke-dasharray:none;stroke-opacity:1;visibility:visible" visibility="hidden"/><path d="m429.496 245.254.518-4.891M430.014 240.363l-.518 4.891" style="fill:none;stroke:red;stroke-width:1.99999;stroke-linecap:round;stroke-linejoin:round;stroke-miterlimit:4;stroke-dasharray:none;stroke-opacity:1;visibility:visible" visibility="hidden"/><path d="m404.756 479.899 1.406.923M439.408 241.464l-3.29-2.006" style="fill:none;stroke:red;stroke-width:.999997;stroke-linecap:round;stroke-linejoin:round;stroke-miterlimit:4;stroke-dasharray:none;stroke-opacity:1;visibility:visible" visibility="hidden"/><path d="m488.53 277.449 6.163 2.944M494.693 280.393l-6.163-2.944M457.183 230.184l-1.307-.596" style="fill:none;stroke:red;stroke-width:1.99999;stroke-linecap:round;stroke-linejoin:round;stroke-miterlimit:4;stroke-dasharray:none;stroke-opacity:1;visibility:visible" visibility="hidden"/><path d="m560.239 431.662-2.318-1.264" style="fill:none;stroke:red;stroke-width:.999997;stroke-linecap:round;stroke-linejoin:round;stroke-miterlimit:4;stroke-dasharray:none;stroke-opacity:1;visibility:visible" visibility="hidden"/><path d="m543.073 444.278 16.862 7.601" style="fill:none;stroke:red;stroke-width:1.99999;stroke-linecap:round;stroke-linejoin:round;stroke-miterlimit:4;stroke-dasharray:none;stroke-opacity:1;visibility:visible" visibility="hidden"/><path d="m537.603 438.948 3.871.042M540.145 446.583l2.928-2.305" style="fill:none;stroke:red;stroke-width:.999997;stroke-linecap:round;stroke-linejoin:round;stroke-miterlimit:2;stroke-dasharray:none;stroke-opacity:1;visibility:visible" visibility="hidden"/><path d="m539.277 446.644 2.673-1.952M536.875 439.419l3.292-.131" style="fill:none;stroke:red;stroke-width:.999997;stroke-linecap:round;stroke-linejoin:round;stroke-miterlimit:4;stroke-dasharray:none;stroke-opacity:1;visibility:visible" visibility="hidden"/><path d="m418.796 376.213 3.871.042M421.339 383.849l2.927-2.304" style="fill:none;stroke:red;stroke-width:.999997;stroke-linecap:round;stroke-linejoin:round;stroke-miterlimit:2;stroke-dasharray:none;stroke-opacity:1;visibility:visible" visibility="hidden"/><path d="m420.47 383.913 2.673-1.955M418.068 376.685l3.291-.13" style="fill:none;stroke:red;stroke-width:.999997;stroke-linecap:round;stroke-linejoin:round;stroke-miterlimit:4;stroke-dasharray:none;stroke-opacity:1;visibility:visible" visibility="hidden"/><path d="m575.156 256.32-.216-.157M573.956 253.976l.103-.689.265-.539.404-.318.484-.055.492.216.44.461.328.638.17.737-.008.727-.19.626-.341.434-.451.19-.496-.086" style="fill:none;stroke:#00ff4a;stroke-width:.999997;stroke-linecap:round;stroke-linejoin:round;stroke-miterlimit:4;stroke-dasharray:none;stroke-opacity:1;visibility:visible" visibility="hidden"/><path d="m569.927 264.183.416-5.357M570.71 254.089l1.033-13.409M569.927 264.183l8.933 4" style="fill:none;stroke:#00ff4a;stroke-width:1.99999;stroke-linecap:round;stroke-linejoin:round;stroke-miterlimit:4;stroke-dasharray:none;stroke-opacity:1;visibility:visible" visibility="hidden"/><path d="m580.735 244.58 133.045-42.333M578.861 268.182l1.872-23.601M571.745 240.682l8.99 3.9" style="fill:none;stroke:#00ff4a;stroke-width:.999997;stroke-linecap:round;stroke-linejoin:round;stroke-miterlimit:4;stroke-dasharray:none;stroke-opacity:1;visibility:visible" visibility="hidden"/><path d="m704.64 198.769 9.14 3.477M571.745 240.682l132.896-41.912M714.297 223.78l-135.434 44.404M713.78 202.246l.518 21.534" style="fill:none;stroke:#00ff4a;stroke-width:1.99999;stroke-linecap:round;stroke-linejoin:round;stroke-miterlimit:4;stroke-dasharray:none;stroke-opacity:1;visibility:visible" visibility="hidden"/><path d="m642.222 222.072-.565-.304-.33-.34-.067-.356.208-.348.454-.304.675-.25.844-.17.95-.074.992.018.949.113.844.203.676.269.453.327.203.35-.068.355-.329.329-.578.282-.763.211-.909.125-.985.032-.976-.07-.909-.16-.768-.238M570.343 258.826l3.613-4.85" style="fill:none;stroke:#00ff4a;stroke-width:.999997;stroke-linecap:round;stroke-linejoin:round;stroke-miterlimit:4;stroke-dasharray:none;stroke-opacity:1;visibility:visible" visibility="hidden"/><path d="m570.71 254.089-.367 4.737M570.343 258.826l.367-4.737" style="fill:none;stroke:#00ff4a;stroke-width:1.99999;stroke-linecap:round;stroke-linejoin:round;stroke-miterlimit:4;stroke-dasharray:none;stroke-opacity:1;visibility:visible" visibility="hidden"/><path d="m502.07 224.162-.44-.326M500.977 221.649l.051-.387.242-.526.361-.316.437-.062.453.198.414.437.302.607.163.708v.7l-.167.609-.308.423-.404.192-.453-.068" style="fill:none;stroke:#9500ff;stroke-width:.999997;stroke-linecap:round;stroke-linejoin:round;stroke-miterlimit:4;stroke-dasharray:none;stroke-opacity:1;visibility:visible"/><path d="m497.38 231.838.4-6.496M498.025 221.3l.746-12.133M497.38 231.838l8.2 3.67" style="fill:none;stroke:#9500ff;stroke-width:1.99999;stroke-linecap:round;stroke-linejoin:round;stroke-miterlimit:4;stroke-dasharray:none;stroke-opacity:1;visibility:visible"/><path d="m507.024 212.746 131.68-38.941M505.581 235.509l1.443-22.761M498.772 209.168l8.252 3.58" style="fill:none;stroke:#9500ff;stroke-width:.999997;stroke-linecap:round;stroke-linejoin:round;stroke-miterlimit:4;stroke-dasharray:none;stroke-opacity:1;visibility:visible"/><path d="m630.284 170.601 8.418 3.204M498.772 209.168 630.285 170.6M639.638 194.652l-134.057 40.857M638.702 173.805l.935 20.847" style="fill:none;stroke:#9500ff;stroke-width:1.99999;stroke-linecap:round;stroke-linejoin:round;stroke-miterlimit:4;stroke-dasharray:none;stroke-opacity:1;visibility:visible"/><path d="m568.128 191.952-.516-.276-.284-.318-.028-.328.228-.316.465-.282.675-.224.825-.158.923-.07.947.018.9.104.786.184.623.25.407.297.158.327-.096.325-.354.303-.575.257-.756.195-.888.116-.94.024-.935-.059-.86-.148-.705-.221M497.78 225.342l3.197-3.693" style="fill:none;stroke:#9500ff;stroke-width:.999997;stroke-linecap:round;stroke-linejoin:round;stroke-miterlimit:4;stroke-dasharray:none;stroke-opacity:1;visibility:visible"/><path d="m498.025 221.3-.245 4.042M497.78 225.342l.245-4.042" style="fill:none;stroke:#9500ff;stroke-width:1.99999;stroke-linecap:round;stroke-linejoin:round;stroke-miterlimit:4;stroke-dasharray:none;stroke-opacity:1;visibility:visible"/></svg>