<svg xmlns="http://www.w3.org/2000/svg" baseProfile="full" height="1122.52" preserveAspectRatio="xMinYMin meet" style="width:912px;height:1246px" width="793.701" xml:space="preserve"><path d="m414.032 184.442-.457.268-.264.304-.063.328M420.983 184.506l13.203 3.419M433.543 192.176l-18.224-4.751M433.643 191.776a.472.472 0 0 0 .576-.338.402.402 0 0 0 .011-.072M433.643 191.776l-.099 1.201M433.543 192.976c.224.076.599.064.817-.02M275.626 268.349l.079 1.216M413.247 184.966l-.092 1.195M434.874 187.45l-2.586 1.796M298.065 153.724l1.678-.01M278.19 271.335l-.877-.334-.713-.423-.517-.49-.302-.538-.078-.384M296.1 274.331a1.313 1.313 0 0 0 .798-.809M279.223 267.663l.591-.33.747-.239.833-.124h.85l.786.12.657.237.468.331.236.39-.013.421-.268.414-.493.364-.677.288-.801.186-.852.065-.829-.063-.732-.182-.568-.288-.355-.366-.109-.41.144-.42.385-.394M284.982 265.829c-2.415-.862-6.147-.374-8.257 1.081M276.725 266.911l-.579.522-.372.561-.15.576.079.564M284.982 265.829l13.113 3.938M297.455 277.18l-19.265-5.844M297.382 276.761a.396.396 0 0 0 .545-.384M297.382 276.76l.073 1.223M297.455 277.982l.316.068h.294M297.927 276.375l.51-20.108M298.44 256.269l.09-1.049.137-.746M415.719 187.557l-.837-.256-.7-.299-.536-.322-.343-.338-.145-.34-.003-.109M415.998 185.192l.494-.154.646-.088.74-.017.77.057.73.126.626.184.47.225.262.247.042.245-.188.224-.4.183-.576.122-.704.054-.764-.022-.76-.093-.688-.156-.552-.21-.371-.236-.153-.25.076-.237.3-.204" style="fill:none;stroke:red;stroke-width:.999997;stroke-linecap:round;stroke-linejoin:round;stroke-miterlimit:4;stroke-dasharray:none;stroke-opacity:1;visibility:visible" visibility="hidden"/><path d="M420.983 184.506c-1.981-.682-5.383-.649-7.352.071" style="fill:none;stroke:red;stroke-width:.999997;stroke-linecap:round;stroke-linejoin:round;stroke-miterlimit:4;stroke-dasharray:none;stroke-opacity:1;visibility:visible" visibility="hidden"/><path d="m310.04 156.382-10.298-2.668M416.731 184.041l-82.53-21.395" style="fill:none;stroke:red;stroke-width:1.99999;stroke-linecap:round;stroke-linejoin:round;stroke-miterlimit:4;stroke-dasharray:none;stroke-opacity:1;visibility:visible" visibility="hidden"/><path d="m298.065 153.724-6.232 2.412M292.131 156.664l-.298-.528M303.89 159.733l-11.76-3.07M433.135 193.462l-98.806-25.786M434.28 193.45l-1.145.012" style="fill:none;stroke:red;stroke-width:.999997;stroke-linecap:round;stroke-linejoin:round;stroke-miterlimit:4;stroke-dasharray:none;stroke-opacity:1;visibility:visible" visibility="hidden"/><path d="m333.463 191.109 76.395 20.57M291.982 179.736l8.528 2.501" style="fill:none;stroke:red;stroke-width:1.99999;stroke-linecap:round;stroke-linejoin:round;stroke-miterlimit:4;stroke-dasharray:none;stroke-opacity:1;visibility:visible" visibility="hidden"/><path d="m452.908 80.076 22.88 5.05M475.788 85.127h0M455.1 78.713l-2.193 1.362M452.908 80.076h0M475.788 85.127l7.33-3.957" style="fill:none;stroke:red;stroke-width:.999997;stroke-linecap:round;stroke-linejoin:round;stroke-miterlimit:4;stroke-dasharray:none;stroke-opacity:1;visibility:visible" visibility="hidden"/><path d="M459.39 219.573 483.119 81.17" style="fill:none;stroke:red;stroke-width:1.99999;stroke-linecap:round;stroke-linejoin:round;stroke-miterlimit:4;stroke-dasharray:none;stroke-opacity:1;visibility:visible" visibility="hidden"/><path d="m475.788 85.127-23.63 139.08" style="fill:none;stroke:red;stroke-width:.999997;stroke-linecap:round;stroke-linejoin:round;stroke-miterlimit:4;stroke-dasharray:none;stroke-opacity:1;visibility:visible" visibility="hidden"/><path d="m460.636 75.99 22.481 4.968M455.1 78.713l5.183-2.722M452.908 80.076l-19.2 116.861" style="fill:none;stroke:red;stroke-width:1.99999;stroke-linecap:round;stroke-linejoin:round;stroke-miterlimit:4;stroke-dasharray:none;stroke-opacity:1;visibility:visible" visibility="hidden"/><path d="m398.914 273.242-12.564 79.119" style="fill:none;stroke:red;stroke-width:.999997;stroke-linecap:round;stroke-linejoin:round;stroke-miterlimit:4;stroke-dasharray:none;stroke-opacity:1;visibility:visible" visibility="hidden"/><path d="m386.351 352.36-3.904-1.248M393.592 347.25l-7.242 5.11M393.592 347.249l12.656-78.874M374.56 289.402l-5.939 38.718" style="fill:none;stroke:red;stroke-width:1.99999;stroke-linecap:round;stroke-linejoin:round;stroke-miterlimit:4;stroke-dasharray:none;stroke-opacity:1;visibility:visible" visibility="hidden"/><path d="m296.237 40.261-7.76 3.515M288.478 43.776v-.001M288.478 43.773l-20.118-4.457" style="fill:none;stroke:red;stroke-width:.999997;stroke-linecap:round;stroke-linejoin:round;stroke-miterlimit:4;stroke-dasharray:none;stroke-opacity:1;visibility:visible" visibility="hidden"/><path d="m272.337 186.02 2.069 76.297M268.36 39.317l3.14 115.92" style="fill:none;stroke:red;stroke-width:1.99999;stroke-linecap:round;stroke-linejoin:round;stroke-miterlimit:4;stroke-dasharray:none;stroke-opacity:1;visibility:visible" visibility="hidden"/><path d="m299.913 205.616-.527-23.683M288.478 43.776l5.2 220.28" style="fill:none;stroke:red;stroke-width:.999997;stroke-linecap:round;stroke-linejoin:round;stroke-miterlimit:4;stroke-dasharray:none;stroke-opacity:1;visibility:visible" visibility="hidden"/><path d="m296.237 40.261-19.883-4.828M276.354 35.433l-7.995 3.884M298.76 153.72l-2.526-113.46" style="fill:none;stroke:red;stroke-width:1.99999;stroke-linecap:round;stroke-linejoin:round;stroke-miterlimit:4;stroke-dasharray:none;stroke-opacity:1;visibility:visible" visibility="hidden"/><path d="m368.622 328.118.778-5.081" style="fill:none;stroke:red;stroke-width:.999997;stroke-linecap:round;stroke-linejoin:round;stroke-miterlimit:4;stroke-dasharray:none;stroke-opacity:1;visibility:visible" visibility="hidden"/><path d="m290.191 320.355 31.984 10.255M322.175 330.61l29.25 9.379" style="fill:none;stroke:red;stroke-width:1.99999;stroke-linecap:round;stroke-linejoin:round;stroke-miterlimit:4;stroke-dasharray:none;stroke-opacity:1;visibility:visible" visibility="hidden"/><path d="m369.4 323.038-30.983-9.65M294.911 316.263l.135 5.719" style="fill:none;stroke:red;stroke-width:.999997;stroke-linecap:round;stroke-linejoin:round;stroke-miterlimit:4;stroke-dasharray:none;stroke-opacity:1;visibility:visible" visibility="hidden"/><path d="m370.296 317.189-25.65-7.939" style="fill:none;stroke:red;stroke-width:1.99999;stroke-linecap:round;stroke-linejoin:round;stroke-miterlimit:4;stroke-dasharray:none;stroke-opacity:1;visibility:visible" visibility="hidden"/><path d="m148.31 232.92 8.38-5.507M296.874 278.874l-149.022-45.5M296.874 278.874l1.173-.153M283.486 265.522l-126.797-38.11" style="fill:none;stroke:red;stroke-width:.999997;stroke-linecap:round;stroke-linejoin:round;stroke-miterlimit:4;stroke-dasharray:none;stroke-opacity:1;visibility:visible" visibility="hidden"/><path d="m152.116 257.344 121.56 38.131" style="fill:none;stroke:red;stroke-width:1.99999;stroke-linecap:round;stroke-linejoin:round;stroke-miterlimit:4;stroke-dasharray:none;stroke-opacity:1;visibility:visible" visibility="hidden"/><path d="M334.506 162.816h0M320.649 310.106l4.81-142.228M334.897 162.646l-9.44 5.234M301.04 161.492l2.13-1.366M301.04 161.494h0M325.46 167.88l-24.42-6.386M325.46 167.88h0" style="fill:none;stroke:red;stroke-width:.999997;stroke-linecap:round;stroke-linejoin:round;stroke-miterlimit:4;stroke-dasharray:none;stroke-opacity:1;visibility:visible" visibility="hidden"/><path d="m334.897 162.646-24.27-6.584M310.629 156.061l-7.46 4.065M297.431 302.186l3.607-140.693M334.506 162.816l-5.212 141.554" style="fill:none;stroke:red;stroke-width:1.99999;stroke-linecap:round;stroke-linejoin:round;stroke-miterlimit:4;stroke-dasharray:none;stroke-opacity:1;visibility:visible" visibility="hidden"/><path d="m272.182 434.462 2.161-124.264M252.11 289.882l.465-.996M274.343 310.198l-.03-.47M274.343 310.198l.424-.324" style="fill:none;stroke:red;stroke-width:.999997;stroke-linecap:round;stroke-linejoin:round;stroke-miterlimit:4;stroke-dasharray:none;stroke-opacity:1;visibility:visible" visibility="hidden"/><path d="m282.938 312.465-2.37 115.874M272.182 434.462l8.387-6.123M250.821 426.732l1.289-136.851M250.82 426.732l21.363 7.73" style="fill:none;stroke:red;stroke-width:1.99999;stroke-linecap:round;stroke-linejoin:round;stroke-miterlimit:4;stroke-dasharray:none;stroke-opacity:1;visibility:visible" visibility="hidden"/><path d="m176.853 399.97-50.136-284.067M126.506 115.632l.212.27M105.606 110.152l20.9 5.478" style="fill:none;stroke:red;stroke-width:.999997;stroke-linecap:round;stroke-linejoin:round;stroke-miterlimit:4;stroke-dasharray:none;stroke-opacity:1;visibility:visible" visibility="hidden"/><path d="M156.917 392.74 105.55 110.23M176.853 399.97l-19.937-7.23" style="fill:none;stroke:red;stroke-width:1.99999;stroke-linecap:round;stroke-linejoin:round;stroke-miterlimit:4;stroke-dasharray:none;stroke-opacity:1;visibility:visible" visibility="hidden"/><path d="m126.718 115.903 9.852-4.338M136.568 111.565h0M105.55 110.23l.055-.077" style="fill:none;stroke:red;stroke-width:.999997;stroke-linecap:round;stroke-linejoin:round;stroke-miterlimit:4;stroke-dasharray:none;stroke-opacity:1;visibility:visible" visibility="hidden"/><path d="m115.298 105.863 21.27 5.702M105.606 110.152l9.692-4.29M162.478 260.743l19.172 110.384M136.568 111.565l20.022 115.279" style="fill:none;stroke:red;stroke-width:1.99999;stroke-linecap:round;stroke-linejoin:round;stroke-miterlimit:4;stroke-dasharray:none;stroke-opacity:1;visibility:visible" visibility="hidden"/><path d="m250.82 405.446-76.88-27.34M251.115 395.506l-69.465-24.379M173.728 377.145l7.922-6.018M173.728 377.145l.212.962" style="fill:none;stroke:red;stroke-width:.999997;stroke-linecap:round;stroke-linejoin:round;stroke-miterlimit:4;stroke-dasharray:none;stroke-opacity:1;visibility:visible" visibility="hidden"/><path d="m177.828 400.168 72.992 26.564" style="fill:none;stroke:red;stroke-width:1.99999;stroke-linecap:round;stroke-linejoin:round;stroke-miterlimit:4;stroke-dasharray:none;stroke-opacity:1;visibility:visible" visibility="hidden"/><path d="m321.48 313.318 144.014-94.373M270.61 297.377l50.868 15.941M321.389 324.489l.089-11.17" style="fill:none;stroke:red;stroke-width:.999997;stroke-linecap:round;stroke-linejoin:round;stroke-miterlimit:4;stroke-dasharray:none;stroke-opacity:1;visibility:visible" visibility="hidden"/><path d="m298.311 261.245-8.861 5.374M388.844 206.021l-57.218 35.013M273.72 295.449l-3.11 1.928M465.493 218.945l-5.737-1.53M465.047 229.356l.615-10.296M270.593 297.695l.1 10.883" style="fill:none;stroke:red;stroke-width:1.99999;stroke-linecap:round;stroke-linejoin:round;stroke-miterlimit:4;stroke-dasharray:none;stroke-opacity:1;visibility:visible" visibility="hidden"/><path d="m321.409 324.675 1.174-.89" style="fill:none;stroke:red;stroke-width:.999997;stroke-linecap:round;stroke-linejoin:round;stroke-miterlimit:4;stroke-dasharray:none;stroke-opacity:1;visibility:visible" visibility="hidden"/><path d="m465.047 229.356-143.638 95.32M321.409 324.675l-50.716-16.097" style="fill:none;stroke:red;stroke-width:1.99999;stroke-linecap:round;stroke-linejoin:round;stroke-miterlimit:4;stroke-dasharray:none;stroke-opacity:1;visibility:visible" visibility="hidden"/><path d="m286.353 178.422 1.156-23.056" style="fill:none;stroke:red;stroke-width:.999997;stroke-linecap:round;stroke-linejoin:round;stroke-miterlimit:4;stroke-dasharray:none;stroke-opacity:1;visibility:visible" visibility="hidden"/><path d="m182.964 234.469 103.389-56.047" style="fill:none;stroke:red;stroke-width:1.99999;stroke-linecap:round;stroke-linejoin:round;stroke-miterlimit:4;stroke-dasharray:none;stroke-opacity:1;visibility:visible" visibility="hidden"/><path d="m287.509 155.366-10.824-2.824M287.509 155.366 156.176 224.45" style="fill:none;stroke:red;stroke-width:.999997;stroke-linecap:round;stroke-linejoin:round;stroke-miterlimit:4;stroke-dasharray:none;stroke-opacity:1;visibility:visible" visibility="hidden"/><path d="M276.685 152.541 154.7 215.965" style="fill:none;stroke:red;stroke-width:1.99999;stroke-linecap:round;stroke-linejoin:round;stroke-miterlimit:4;stroke-dasharray:none;stroke-opacity:1;visibility:visible" visibility="hidden"/><path d="m330.413 273.962 119.863-75.572M448.22 222.554 329.467 299.63" style="fill:none;stroke:red;stroke-width:.999997;stroke-linecap:round;stroke-linejoin:round;stroke-miterlimit:4;stroke-dasharray:none;stroke-opacity:1;visibility:visible" visibility="hidden"/><path d="m330.857 261.955 107.306-66.725" style="fill:none;stroke:red;stroke-width:1.99999;stroke-linecap:round;stroke-linejoin:round;stroke-miterlimit:4;stroke-dasharray:none;stroke-opacity:1;visibility:visible" visibility="hidden"/><path d="m290.191 314.766-.337 6.44" style="fill:none;stroke:red;stroke-width:.999997;stroke-linecap:round;stroke-linejoin:round;stroke-miterlimit:4;stroke-dasharray:none;stroke-opacity:1;visibility:visible" visibility="hidden"/><path d="m251.582 345.933-49.058 31.693M290.191 320.355l-7.511 4.751" style="fill:none;stroke:red;stroke-width:1.99999;stroke-linecap:round;stroke-linejoin:round;stroke-miterlimit:4;stroke-dasharray:none;stroke-opacity:1;visibility:visible" visibility="hidden"/><path d="m181.224 368.675 70.562-44.522" style="fill:none;stroke:red;stroke-width:.999997;stroke-linecap:round;stroke-linejoin:round;stroke-miterlimit:4;stroke-dasharray:none;stroke-opacity:1;visibility:visible" visibility="hidden"/><path d="m281.386 388.322 40.1-27.673M333.4 352.429l39.586-27.322M179.554 359.057l45.867-28.614M238.223 322.457l13.66-8.522" style="fill:none;stroke:red;stroke-width:1.99999;stroke-linecap:round;stroke-linejoin:round;stroke-miterlimit:4;stroke-dasharray:none;stroke-opacity:1;visibility:visible" visibility="hidden"/><path d="m384.259 328.62-1.636 22.364M281.133 400.684l103.126-72.064M372.986 325.106l11.273 3.513" style="fill:none;stroke:red;stroke-width:.999997;stroke-linecap:round;stroke-linejoin:round;stroke-miterlimit:4;stroke-dasharray:none;stroke-opacity:1;visibility:visible" visibility="hidden"/><path d="m382.624 350.985-101.966 72.92" style="fill:none;stroke:red;stroke-width:1.99999;stroke-linecap:round;stroke-linejoin:round;stroke-miterlimit:4;stroke-dasharray:none;stroke-opacity:1;visibility:visible" visibility="hidden"/><path d="m281.513 382.147.849-.584M282.362 381.562l.97-.57 1.13-.495 1.269-.403 1.376-.312 1.455-.207 1.501-.101 1.514.01 1.493.116.792.113M297.94 275.818l-1.837-1.487M296.923 272.149c-1.733.356-2.205 1.338-1.057 2.213M298.02 272.725l-1.122.797M297.927 276.349l-.545.41M297.927 276.375l.179.071M298.617 256.337l-.18-.07M434.23 191.37l-2.063-1.108M431.783 188.874c-1.047.218-1.18.836-.3 1.392M434.182 191.522l-.54.251M434.23 191.366l.37.134M320.649 310.106l-46.972-14.632M320.649 310.106l8.645-5.737M438.164 195.229l12.11 3.163M450.275 198.392l-2.055 24.162M448.22 222.554l3.938 1.65M452.159 224.206l7.231-4.633" style="fill:none;stroke:red;stroke-width:.999997;stroke-linecap:round;stroke-linejoin:round;stroke-miterlimit:4;stroke-dasharray:none;stroke-opacity:1;visibility:visible" visibility="hidden"/><path d="m306.58 292.834 2.362-1.203M309.482 298.249l2.096-1.074M303.226 292.918l.567-.276M307.457 300.802l.565-.272M304.82 292.4a2.11 2.11 0 0 0-1.026.241M308.022 300.53c.344-.17.636-.412.805-.667M308.826 299.863c.414-.62.643-1.24.67-1.806M309.495 298.055c.05-1.073-.158-2.057-.628-2.924-.467-.873-1.181-1.611-2.12-2.196M306.749 292.935c-.499-.312-1.156-.494-1.927-.535M303.226 292.918a2.117 2.117 0 0 0-.806.662M302.42 293.58c-.416.62-.644 1.241-.67 1.808M301.751 295.389c-.051 1.07.162 2.057.629 2.924.465.873 1.18 1.612 2.114 2.196M304.493 300.509c.502.31 1.16.494 1.932.536M306.426 301.046c.314.013.688-.073 1.03-.243M305.905 295.589l.838 1.576M304.509 295.317l1.396.273M303.933 296.555l.576-1.24M306.17 298.41l-1.39-.279M306.743 297.165l-.573 1.245" style="fill:none;stroke:red;stroke-width:.999997;stroke-linecap:round;stroke-linejoin:round;stroke-miterlimit:2;stroke-dasharray:none;stroke-opacity:1;visibility:visible" visibility="hidden"/><path d="M309.493 298.093c.013-.019.027-.036.036-.053" style="fill:none;stroke:red;stroke-width:.999997;stroke-linecap:round;stroke-linejoin:round;stroke-miterlimit:2;stroke-dasharray:none;stroke-opacity:1;visibility:visible" visibility="hidden"/><path d="M309.5 298.246c.452.019.895-.068 1.299-.268 1.441-.716 1.866-2.661.936-4.338-.934-1.673-2.868-2.446-4.315-1.725a2.48 2.48 0 0 0-.889.746" style="fill:none;stroke:red;stroke-width:.999997;stroke-linecap:round;stroke-linejoin:round;stroke-miterlimit:4;stroke-dasharray:none;stroke-opacity:1;visibility:visible" visibility="hidden"/><path d="M138.352 241.649c-.495-.313-1.155-.496-1.926-.536M134.832 241.629a2.085 2.085 0 0 0-.807.659M134.025 242.289c-.415.62-.641 1.244-.67 1.811M133.356 244.1a5.53 5.53 0 0 0 .628 2.926c.465.871 1.181 1.609 2.116 2.194M136.098 249.22c.502.309 1.162.496 1.932.536M138.029 249.757c.315.015.687-.073 1.03-.241M137.506 244.302l.842 1.576M136.113 244.029l1.395.273M135.537 245.269l.576-1.24M137.774 247.12l-1.392-.276M138.349 245.877l-.575 1.243M138.185 241.546l2.363-1.202M141.086 246.96l2.099-1.072M134.832 241.629l.566-.277M139.061 249.516l.565-.274M136.426 241.112a2.107 2.107 0 0 0-1.028.24M139.626 249.242c.346-.172.638-.412.806-.666M140.432 248.576c.414-.62.641-1.24.668-1.808" style="fill:none;stroke:red;stroke-width:.999997;stroke-linecap:round;stroke-linejoin:round;stroke-miterlimit:2;stroke-dasharray:none;stroke-opacity:1;visibility:visible" visibility="hidden"/><path d="M141.101 246.766c.048-1.072-.161-2.056-.628-2.924-.47-.872-1.183-1.61-2.123-2.194M141.097 246.802a.41.41 0 0 0 .036-.05" style="fill:none;stroke:red;stroke-width:.999997;stroke-linecap:round;stroke-linejoin:round;stroke-miterlimit:2;stroke-dasharray:none;stroke-opacity:1;visibility:visible" visibility="hidden"/><path d="M141.104 246.956c.453.018.893-.066 1.298-.266 1.444-.718 1.868-2.66.938-4.338-.934-1.674-2.867-2.447-4.316-1.724a2.452 2.452 0 0 0-.888.744" style="fill:none;stroke:red;stroke-width:.999997;stroke-linecap:round;stroke-linejoin:round;stroke-miterlimit:4;stroke-dasharray:none;stroke-opacity:1;visibility:visible" visibility="hidden"/><path d="M263.077 422.526c.049-1.07-.162-2.056-.628-2.924-.469-.87-1.182-1.61-2.123-2.194M260.327 417.408c-.494-.314-1.153-.497-1.926-.536M256.806 417.39a2.07 2.07 0 0 0-.805.658M256 418.048c-.413.62-.641 1.243-.668 1.812M255.333 419.862a5.532 5.532 0 0 0 .625 2.924c.468.87 1.181 1.61 2.117 2.193M258.075 424.98c.502.307 1.162.495 1.93.534M260.003 425.515a2.213 2.213 0 0 0 1.034-.24M259.483 420.062l.842 1.576M258.09 419.788l1.393.274M257.514 421.028l.576-1.24M259.749 422.88l-1.391-.278M260.325 421.638l-.576 1.242M260.16 417.304l2.362-1.202M263.06 422.718l2.1-1.07M256.806 417.39l.568-.28M261.038 425.275l.565-.273M258.4 416.872a2.105 2.105 0 0 0-1.028.24M261.603 425.002c.344-.172.637-.412.807-.667" style="fill:none;stroke:red;stroke-width:.999997;stroke-linecap:round;stroke-linejoin:round;stroke-miterlimit:2;stroke-dasharray:none;stroke-opacity:1;visibility:visible" visibility="hidden"/><path d="M262.409 424.335c.413-.62.64-1.24.668-1.81" style="fill:none;stroke:red;stroke-width:.999997;stroke-linecap:round;stroke-linejoin:round;stroke-miterlimit:2;stroke-dasharray:none;stroke-opacity:1;visibility:visible" visibility="hidden"/><path d="M263.075 422.562c.012-.019.028-.036.036-.05" style="fill:none;stroke:red;stroke-width:.999997;stroke-linecap:round;stroke-linejoin:round;stroke-miterlimit:2;stroke-dasharray:none;stroke-opacity:1;visibility:visible" visibility="hidden"/><path d="M263.08 422.715a2.667 2.667 0 0 0 1.3-.265c1.441-.72 1.865-2.662.936-4.34-.934-1.674-2.867-2.447-4.316-1.723a2.41 2.41 0 0 0-.886.743" style="fill:none;stroke:red;stroke-width:.999997;stroke-linecap:round;stroke-linejoin:round;stroke-miterlimit:4;stroke-dasharray:none;stroke-opacity:1;visibility:visible" visibility="hidden"/><path d="M163.973 390.834c.345-.172.637-.415.805-.67M164.778 390.164c.415-.62.642-1.24.67-1.806M165.448 388.358c.05-1.073-.16-2.058-.628-2.924-.47-.87-1.182-1.612-2.122-2.196M162.698 383.238c-.496-.312-1.156-.495-1.926-.533M159.177 383.22a2.097 2.097 0 0 0-.805.66M158.37 383.882c-.414.62-.64 1.243-.67 1.812M157.7 385.694c-.05 1.068.165 2.054.63 2.921.464.873 1.179 1.612 2.115 2.196M160.445 390.811c.501.31 1.161.497 1.93.536M162.376 391.347c.314.016.688-.073 1.03-.24M161.853 385.895l.841 1.575M160.46 385.62l1.394.275M159.884 386.86l.576-1.24M162.12 388.712l-1.39-.278M162.696 387.467l-.576 1.245" style="fill:none;stroke:red;stroke-width:.999997;stroke-linecap:round;stroke-linejoin:round;stroke-miterlimit:2;stroke-dasharray:none;stroke-opacity:1;visibility:visible" visibility="hidden"/><path d="M165.444 388.394a.49.49 0 0 0 .036-.052M162.53 383.135l2.364-1.202M165.433 388.55l2.097-1.07M159.177 383.22l.567-.278M163.408 391.108l.565-.273M160.773 382.705a2.107 2.107 0 0 0-1.028.24" style="fill:none;stroke:red;stroke-width:.999997;stroke-linecap:round;stroke-linejoin:round;stroke-miterlimit:2;stroke-dasharray:none;stroke-opacity:1;visibility:visible" visibility="hidden"/><path d="m418.647 184.989-.953.904M282.315 267.913l-1.542.932M280.8 267.982l1.488.75M165.452 388.548c.452.02.893-.065 1.297-.264 1.444-.72 1.867-2.662.937-4.339-.933-1.675-2.866-2.448-4.316-1.727a2.48 2.48 0 0 0-.888.745M282.315 267.913l-3.092-.25M297.927 276.375l.168-6.608M434.36 192.956l-18.362-7.764M432.288 189.246l-16.29-4.054" style="fill:none;stroke:red;stroke-width:.999997;stroke-linecap:round;stroke-linejoin:round;stroke-miterlimit:4;stroke-dasharray:none;stroke-opacity:1;visibility:visible" visibility="hidden"/><path d="m415.319 187.425 1.412-3.384" style="fill:none;stroke:red;stroke-width:1.99999;stroke-linecap:round;stroke-linejoin:round;stroke-miterlimit:4;stroke-dasharray:none;stroke-opacity:1;visibility:visible" visibility="hidden"/><path d="m334.897 162.646-.568 5.03" style="fill:none;stroke:red;stroke-width:.999997;stroke-linecap:round;stroke-linejoin:round;stroke-miterlimit:4;stroke-dasharray:none;stroke-opacity:1;visibility:visible" visibility="hidden"/><path d="m433.643 191.776.065 5.161M286.353 178.422l-14.016 7.598M275.626 268.349l-1.22-6.032M287.509 155.366l-16.009-.129" style="fill:none;stroke:red;stroke-width:1.99999;stroke-linecap:round;stroke-linejoin:round;stroke-miterlimit:4;stroke-dasharray:none;stroke-opacity:1;visibility:visible" visibility="hidden"/><path d="m286.353 178.422 13.033 3.511M298.437 256.267l-4.759 7.789M321.478 313.318l16.939.07M289.854 321.206l5.057-4.943M290.191 314.766l4.855 7.216" style="fill:none;stroke:red;stroke-width:.999997;stroke-linecap:round;stroke-linejoin:round;stroke-miterlimit:4;stroke-dasharray:none;stroke-opacity:1;visibility:visible" visibility="hidden"/><path d="m372.986 325.106-2.69-7.917" style="fill:none;stroke:red;stroke-width:1.99999;stroke-linecap:round;stroke-linejoin:round;stroke-miterlimit:4;stroke-dasharray:none;stroke-opacity:1;visibility:visible" visibility="hidden"/><path d="m284.982 265.829-1.496-.307" style="fill:none;stroke:red;stroke-width:.999997;stroke-linecap:round;stroke-linejoin:round;stroke-miterlimit:4;stroke-dasharray:none;stroke-opacity:1;visibility:visible" visibility="hidden"/><path d="m301.751 295.389-4.32 6.797M274.343 310.198l8.595 2.267M296.898 273.522l1.413-12.277M282.315 267.913l7.135-1.294" style="fill:none;stroke:red;stroke-width:1.99999;stroke-linecap:round;stroke-linejoin:round;stroke-miterlimit:4;stroke-dasharray:none;stroke-opacity:1;visibility:visible" visibility="hidden"/><path d="m321.409 324.676 1.174-.891M329.294 304.369l.173-4.739M295.046 321.982l-4.855-7.216M181.65 371.127l-.426-2.452M238.223 322.457l13.563 1.696" style="fill:none;stroke:red;stroke-width:.999997;stroke-linecap:round;stroke-linejoin:round;stroke-miterlimit:4;stroke-dasharray:none;stroke-opacity:1;visibility:visible" visibility="hidden"/><path d="m282.362 381.563-.976 6.759M333.4 352.429l-11.914 8.22M321.486 360.649l11.914-8.22M238.223 322.457l-12.802 7.986M251.786 324.153l-13.563-1.696" style="fill:none;stroke:red;stroke-width:1.99999;stroke-linecap:round;stroke-linejoin:round;stroke-miterlimit:4;stroke-dasharray:none;stroke-opacity:1;visibility:visible" visibility="hidden"/><path d="m282.362 381.563-1.229 19.121" style="fill:none;stroke:red;stroke-width:.999997;stroke-linecap:round;stroke-linejoin:round;stroke-miterlimit:4;stroke-dasharray:none;stroke-opacity:1;visibility:visible" visibility="hidden"/><path d="m280.569 428.339.089-4.434" style="fill:none;stroke:red;stroke-width:1.99999;stroke-linecap:round;stroke-linejoin:round;stroke-miterlimit:4;stroke-dasharray:none;stroke-opacity:1;visibility:visible" visibility="hidden"/><path d="m296.874 278.874.049-6.725M297.382 276.759l.638-4.034" style="fill:none;stroke:red;stroke-width:.999997;stroke-linecap:round;stroke-linejoin:round;stroke-miterlimit:4;stroke-dasharray:none;stroke-opacity:1;visibility:visible" visibility="hidden"/><path d="m303.794 292.641 5.148-1.01M308.022 300.53l3.556-3.355M306.743 297.165l-2.81-.61M305.905 295.59l-1.125 2.541M138.349 245.877l-2.812-.608M137.508 244.302l-1.126 2.542M135.398 241.352l5.15-1.008M139.626 249.242l3.559-3.354M260.325 421.638l-2.811-.61M259.483 420.062l-1.125 2.54M257.372 417.112l5.15-1.01M261.603 425.002l3.557-3.354M162.696 387.467l-2.812-.607M161.854 385.895l-1.124 2.539M159.745 382.945l5.149-1.012M163.973 390.834l3.557-3.354" style="fill:none;stroke:red;stroke-width:.999997;stroke-linecap:round;stroke-linejoin:round;stroke-miterlimit:2;stroke-dasharray:none;stroke-opacity:1;visibility:visible" visibility="hidden"/><path d="m273.393 462.504 76.202-55.609M355.487 402.594l44.155-32.221M151.732 417.234l121.66 45.27M273.737 472.36l-.344-9.856" style="fill:none;stroke:#00ff4a;stroke-width:.999997;stroke-linecap:round;stroke-linejoin:round;stroke-miterlimit:4;stroke-dasharray:none;stroke-opacity:1;visibility:visible"/><path d="m177.916 400.2-26.184 17.034M251.522 352.318l-17.075 11.108M229.395 366.713l-19.615 12.76M337.096 349.874l-3.74-1.214M320.615 344.527l-38.08-12.353M399.54 370.166l-30.057-9.784M273.753 472.502l82.606-61.644M364.18 405.02l35.362-26.386M399.54 378.634l.102-8.26M151.9 426.484l121.854 46.019M151.596 417.418l.304 9.066" style="fill:none;stroke:#00ff4a;stroke-width:1.99999;stroke-linecap:round;stroke-linejoin:round;stroke-miterlimit:4;stroke-dasharray:none;stroke-opacity:1;visibility:visible"/><path d="m355.487 402.594-5.892 4.301M349.595 406.895l5.892-4.301" style="fill:none;stroke:#00ff4a;stroke-width:.999997;stroke-linecap:round;stroke-linejoin:round;stroke-miterlimit:4;stroke-dasharray:none;stroke-opacity:1;visibility:visible"/><path d="m229.395 366.713 5.052-3.287M234.447 363.426l-5.052 3.287M320.615 344.527l12.741 4.133M333.356 348.66l-12.741-4.133M355.487 402.594l.872 8.264M356.359 410.858l7.821-5.838" style="fill:none;stroke:#00ff4a;stroke-width:1.99999;stroke-linecap:round;stroke-linejoin:round;stroke-miterlimit:4;stroke-dasharray:none;stroke-opacity:1;visibility:visible"/><path d="m296.898 273.522 1.769-19.048" style="fill:none;stroke:red;stroke-width:.999997;stroke-linecap:round;stroke-linejoin:round;stroke-miterlimit:4;stroke-dasharray:none;stroke-opacity:1;visibility:visible" visibility="hidden"/><path d="m299.386 181.933-7.404-2.197M286.353 178.422l14.157 3.815" style="fill:none;stroke:red;stroke-width:1.99999;stroke-linecap:round;stroke-linejoin:round;stroke-miterlimit:4;stroke-dasharray:none;stroke-opacity:1;visibility:visible" visibility="hidden"/><path d="m320.615 344.527 16.481 5.347M282.938 312.465l-.403 19.709M386.351 352.36l-16.868 8.022" style="fill:none;stroke:#00ff4a;stroke-width:1.99999;stroke-linecap:round;stroke-linejoin:round;stroke-miterlimit:4;stroke-dasharray:none;stroke-opacity:1;visibility:visible"/></svg>