<svg xmlns="http://www.w3.org/2000/svg" baseProfile="full" height="1122.52" preserveAspectRatio="xMinYMin meet" style="width:912px;height:1303px" width="793.701" xml:space="preserve"><path d="M503.936 541.623a28.7 28.7 0 0 0 1.594-.81c.43-.246.833-.506 1.215-.775.315-.221.611-.449.895-.689a10.61 10.61 0 0 0 1.335-1.321 10.128 10.128 0 0 0 .605-.778c.141-.2.272-.406.395-.619a8.3 8.3 0 0 0 .442-.842c.183-.393.334-.798.453-1.212a8.427 8.427 0 0 0 .163-4.117c-.125-.581-.329-1.155-.533-1.727M431.455 572.83l72.438-31.19M499.223 532.25l-72.433 31.188M397.079 869.671 419.7 593.256M409.199 593.236l-22.555 275.58M426.73 563.464c-.56.277-1.123.556-1.681.876-.497.288-.987.61-1.475.955a25.964 25.964 0 0 0-2.807 2.325 29.625 29.625 0 0 0-2.208 2.36 35.421 35.421 0 0 0-.895 1.103 37.81 37.81 0 0 0-1.633 2.289 37.296 37.296 0 0 0-1.779 2.975 41.073 41.073 0 0 0-1.929 4.042 44.717 44.717 0 0 0-1.923 5.695 43.092 43.092 0 0 0-.522 2.25 36.627 36.627 0 0 0-.415 2.393 58.91 58.91 0 0 0-.265 2.516M419.7 593.27c.111-.885.224-1.77.4-2.672.154-.823.358-1.655.596-2.485a33.025 33.025 0 0 1 1.492-4.177M423.596 581.07a29.837 29.837 0 0 1 1.38-2.252c.266-.388.538-.766.81-1.126a23.067 23.067 0 0 1 1.64-1.93 14.236 14.236 0 0 1 1.673-1.531 9.837 9.837 0 0 1 1.079-.762c.414-.249.799-.428 1.187-.604M496.236 791.458a1.704 1.704 0 0 0-.015.202 1.667 1.667 0 0 0 .123.591 2.864 2.864 0 0 0 .667 1.024c.159.16.339.306.534.44a5.38 5.38 0 0 0 1.46.671 7.88 7.88 0 0 0 2.652.309c.303-.014.603-.045.893-.097.293-.047.581-.112.855-.192a6.7 6.7 0 0 0 .792-.293 3.933 3.933 0 0 0 1.243-.844c.153-.156.287-.323.4-.504.1-.168.184-.352.249-.54.063-.183.114-.376.106-.568a1.25 1.25 0 0 0-.016-.17M506.197 791.547l.006-.277M496.225 790.02l-.009 1.469M386.571 870.33c-.008.128-.016.25-.008.373.015.17.065.338.132.494a2.12 2.12 0 0 0 .252.438c.108.147.236.282.375.406a4.481 4.481 0 0 0 1.206.726c.243.106.507.203.782.284.269.08.549.147.838.207.284.053.578.099.876.13a10.288 10.288 0 0 0 1.759.046 9.89 9.89 0 0 0 .837-.089c.272-.043.534-.1.78-.171.255-.072.492-.164.714-.264.206-.099.394-.207.565-.337.15-.113.293-.24.41-.383a2.38 2.38 0 0 0 .274-.44 1.28 1.28 0 0 0 .139-.485.983.983 0 0 0-.006-.083M396.508 871.18l.058-.705M386.69 868.78l-.13 1.59M496.225 790.02l.006.138.009.075M386.566 870.311l-.006.059M386.69 868.78l.005.175M507.868 601.088l.399-62.304M506.653 790.131l1.128-176.375M497.376 611.17l-1.201 178.919M497.75 544.287l-.347 53.817" style="fill:none;stroke:red;stroke-width:1.66666;stroke-linecap:round;stroke-linejoin:round;stroke-miterlimit:4;stroke-dasharray:none;stroke-opacity:1;visibility:visible" visibility="hidden"/><path d="M510.513 528.767a15.307 15.307 0 0 0-.583-1.218 7.847 7.847 0 0 0-.653-1.006 6.56 6.56 0 0 0-1.442-1.439 5.579 5.579 0 0 0-2.955-1.068 5.435 5.435 0 0 0-1.264.062 5.495 5.495 0 0 0-1.023.268 5.477 5.477 0 0 0-.902.426 5.54 5.54 0 0 0-.924.67 6.61 6.61 0 0 0-.884.983 7.712 7.712 0 0 0-.724 1.238 9.61 9.61 0 0 0-.43 1.112 12.55 12.55 0 0 0-.343 1.337c-.046.228-.086.453-.123.69a18.56 18.56 0 0 0-.144.999 35.57 35.57 0 0 0-.096.947" style="fill:none;stroke:red;stroke-width:1.66666;stroke-linecap:round;stroke-linejoin:round;stroke-miterlimit:4;stroke-dasharray:none;stroke-opacity:1;visibility:visible" visibility="hidden"/><path d="M422.923 581.736h0c.061-.179.1-.348.141-.523M501.98 532.272c-.75-.37-2-.381-2.757-.021M501.98 532.272l.813.395.767.55.695.686.597.796.479.877.344.924.192.94.036.927-.118.872-.273.79-.415.679-.544.54-.65.388-.01.004M416.518 628.721c-.016.17-.032.342-.063.519a4.005 4.005 0 0 1-.128.532 2.775 2.775 0 0 1-.203.496 1.732 1.732 0 0 1-.282.402 1.053 1.053 0 0 1-.348.24.752.752 0 0 1-.714-.095.983.983 0 0 1-.282-.311 1.313 1.313 0 0 1-.15-.45 1.512 1.512 0 0 1 .016-.499c.031-.167.087-.337.164-.5.08-.166.184-.329.296-.482.12-.156.258-.301.396-.425.136-.121.278-.224.412-.296a1.141 1.141 0 0 1 .344-.135.434.434 0 0 1 .262.019.377.377 0 0 1 .177.17.907.907 0 0 1 .093.339c.015.139.012.305.01.475M386.65 868.815c0 .105 0 .215.026.32a1.14 1.14 0 0 0 .168.358c.083.12.184.237.31.35.124.114.268.227.432.335.161.107.344.21.544.304a10.053 10.053 0 0 0 .66.279M388.792 870.76a8.92 8.92 0 0 0 1.542.42 12.147 12.147 0 0 0 1.708.213c.285.013.576.02.856.017.282-.004.56-.017.829-.045a8.303 8.303 0 0 0 1.483-.252c.22-.063.426-.131.613-.208.188-.075.357-.163.505-.252a1.92 1.92 0 0 0 .383-.29c.105-.102.185-.206.253-.32a.63.63 0 0 0 .112-.34l-.004-.032" style="fill:none;stroke:red;stroke-width:.999997;stroke-linecap:round;stroke-linejoin:round;stroke-miterlimit:4;stroke-dasharray:none;stroke-opacity:1;visibility:visible" visibility="hidden"/><path d="M423.066 581.215c.014-.155.032-.31.018-.455a.743.743 0 0 0-.126-.35.61.61 0 0 0-.258-.207.793.793 0 0 0-.352-.056 1.283 1.283 0 0 0-.42.1 1.715 1.715 0 0 0-.444.273 1.98 1.98 0 0 0-.672 1.492 2.045 2.045 0 0 0 .231.97 1.057 1.057 0 0 0 .261.318.547.547 0 0 0 .29.128.53.53 0 0 0 .293-.065M506.639 790.131c.004.06.008.114.005.172a1.25 1.25 0 0 1-.124.465 2.456 2.456 0 0 1-.265.445 3.088 3.088 0 0 1-.915.787 5.139 5.139 0 0 1-.62.325 6.75 6.75 0 0 1-.713.262 7.952 7.952 0 0 1-.787.195 8.787 8.787 0 0 1-1.692.17 9.264 9.264 0 0 1-1.71-.136 7.627 7.627 0 0 1-.803-.186 6.261 6.261 0 0 1-1.384-.56 4.603 4.603 0 0 1-.546-.37 2.667 2.667 0 0 1-.425-.41 2.128 2.128 0 0 1-.3-.44 1.41 1.41 0 0 1-.16-.467c-.015-.095-.012-.197-.012-.297M506.135 718.072c-.096.068-.195.133-.295.221a3.023 3.023 0 0 0-.576.712 2.42 2.42 0 0 0-.203.447 1.584 1.584 0 0 0-.076.43 1.115 1.115 0 0 0 .055.366.75.75 0 0 0 .169.272.53.53 0 0 0 .261.156.536.536 0 0 0 .31.002.727.727 0 0 0 .305-.165c.095-.077.183-.177.258-.297.077-.118.141-.254.196-.398.053-.148.1-.308.133-.464a3.667 3.667 0 0 0 .07-.876 1.176 1.176 0 0 0-.059-.298.356.356 0 0 0-.123-.171.245.245 0 0 0-.2-.028c-.068.013-.147.055-.225.09M484.888 545.963c-.11.08-.217.157-.313.273a1.776 1.776 0 0 0-.255.419 3.596 3.596 0 0 0-.195.525 5.593 5.593 0 0 0-.129.561 4.81 4.81 0 0 0-.061.511 2.267 2.267 0 0 0 .005.41.715.715 0 0 0 .087.286.288.288 0 0 0 .19.139.559.559 0 0 0 .289-.035c.107-.035.227-.097.351-.18a2.907 2.907 0 0 0 1.043-1.235c.076-.174.127-.357.148-.533a1.493 1.493 0 0 0-.021-.479 1.147 1.147 0 0 0-.16-.388.921.921 0 0 0-.279-.269.652.652 0 0 0-.357-.1 1.177 1.177 0 0 0-.343.095M502.56 538.319a1.62 1.62 0 0 0-.31.276 1.79 1.79 0 0 0-.256.415 4.197 4.197 0 0 0-.189.526 6.155 6.155 0 0 0-.13.565 4.368 4.368 0 0 0-.055.511 2.133 2.133 0 0 0 .009.41.727.727 0 0 0 .086.288.283.283 0 0 0 .191.139.548.548 0 0 0 .294-.033c.104-.036.22-.096.345-.18.126-.081.255-.183.378-.301a2.735 2.735 0 0 0 .664-.938c.073-.176.121-.357.143-.534.019-.168.009-.33-.025-.478a1.09 1.09 0 0 0-.16-.388.895.895 0 0 0-.283-.272.663.663 0 0 0-.358-.1 1.24 1.24 0 0 0-.344.093" style="fill:none;stroke:red;stroke-width:.999997;stroke-linecap:round;stroke-linejoin:round;stroke-miterlimit:4;stroke-dasharray:none;stroke-opacity:1;visibility:visible" visibility="hidden"/><path d="m507.781 613.756.087-12.668M498.023 532.768l10.244 6.016M507.868 601.088l-.087 12.668M497.403 598.104l-.027 13.066M498.023 532.768l-.273 11.519M497.376 611.17l.027-13.066M497.75 544.287l.273-11.519" style="fill:none;stroke:red;stroke-width:1.66666;stroke-linecap:round;stroke-linejoin:round;stroke-miterlimit:4;stroke-dasharray:none;stroke-opacity:1;visibility:visible" visibility="hidden"/><path d="m503.893 541.64-19.005 4.323M503.893 541.64l-1.333-3.322" style="fill:none;stroke:red;stroke-width:.999997;stroke-linecap:round;stroke-linejoin:round;stroke-miterlimit:4;stroke-dasharray:none;stroke-opacity:1;visibility:visible" visibility="hidden"/><path d="M568.367 630.519 438.886 593.67c-11.522-10.047 4.112-10.651 4.112-10.651l128.371 36.638" style="fill:none;stroke:#00ff4a;stroke-width:1.6;stroke-linecap:round;stroke-linejoin:round;stroke-miterlimit:4;stroke-dasharray:none;stroke-opacity:1;visibility:visible"/><path d="M555.463 617.935s1.625-1.585 2.51.465c0 0 .17 1.748-2.341 1.507" style="fill:none;stroke:#00ff4a;stroke-width:.666665;stroke-linecap:round;stroke-linejoin:round;stroke-miterlimit:4;stroke-dasharray:none;stroke-opacity:1;visibility:visible"/><path d="M578.395 624.428a8.23 8.23 0 0 0-1.402 5.015M579.425 623.476a3.09 3.09 0 0 0-1.03.952M580.405 623.719a.739.739 0 0 0-.978-.243M580.715 624.19l-.31-.47M578.85 627.79l.278-.985M579.127 626.803l.523-.431M579.072 628.43l-.222-.637M581.085 625.445a2.747 2.747 0 0 0-.35-1.214M579.819 629.97a7.444 7.444 0 0 0 1.265-4.527M578.89 630.827c.37-.207.69-.503.928-.858" style="fill:none;stroke:#00ff4a;stroke-width:.999997;stroke-linecap:round;stroke-linejoin:round;stroke-miterlimit:2;stroke-dasharray:none;stroke-opacity:1;visibility:visible"/><path d="M576.993 629.441c.024.472.157.935.388 1.35" style="fill:none;stroke:#00ff4a;stroke-width:.999997;stroke-linecap:round;stroke-linejoin:round;stroke-miterlimit:2;stroke-dasharray:none;stroke-opacity:1;visibility:visible"/><path d="M654.006 584.91c.29-.138.584-.272.907-.404a24.059 24.059 0 0 1 2.385-.801c.466-.132.96-.258 1.479-.38a44.373 44.373 0 0 1 3.513-.658 51.59 51.59 0 0 1 2.011-.258c.708-.074 1.43-.134 2.15-.193M665.358 571.748a92.702 92.702 0 0 0-2.548.247 51.021 51.021 0 0 0-2.424.322 66.204 66.204 0 0 0-2.28.398 49.821 49.821 0 0 0-2.116.464 42.76 42.76 0 0 0-2.556.701 29.228 29.228 0 0 0-2.242.785 37.8 37.8 0 0 0-1.922.843M649.278 575.504l-66.806 32.88M587.201 617.787l66.807-32.88M578.85 639.128c-.012-.972-.026-1.945.02-2.938.042-.89.133-1.794.264-2.7.113-.795.25-1.59.421-2.38M581.27 625.575c.277-.66.57-1.296.88-1.896.27-.526.55-1.026.84-1.499.296-.473.592-.92.898-1.333.285-.387.575-.742.855-1.063.196-.219.393-.425.586-.615.188-.179.371-.346.544-.494.222-.186.427-.346.623-.475a7.867 7.867 0 0 1 .69-.405M582.457 608.388c-.55.299-1.101.597-1.636.944-.44.281-.866.595-1.281.924a22.983 22.983 0 0 0-.957.812 21.64 21.64 0 0 0-.843.804c-.29.292-.572.597-.853.907a25.384 25.384 0 0 0-1.424 1.76 30.127 30.127 0 0 0-1.38 2.041 32.364 32.364 0 0 0-1.22 2.148 40.277 40.277 0 0 0-.803 1.655 38.733 38.733 0 0 0-1.376 3.445 43.877 43.877 0 0 0-.696 2.185 44.792 44.792 0 0 0-1.244 5.795 43.664 43.664 0 0 0-.274 2.34 35.777 35.777 0 0 0-.151 2.512c-.023.895-.004 1.775.008 2.656M568.327 639.32 579.9 925.663M590.416 925.23 578.85 639.127M679.197 591.263l48.847 266.804M738.373 856.16l-48.959-267.418M666.452 582.217c.76-.016 1.521-.032 2.265.028a13.568 13.568 0 0 1 3.167.676 12.333 12.333 0 0 1 2.672 1.299 10.687 10.687 0 0 1 3.041 2.955 9.853 9.853 0 0 1 .839 1.502 8.48 8.48 0 0 1 .43 1.138c.138.468.234.948.328 1.43" style="fill:none;stroke:#00ff4a;stroke-width:1.66666;stroke-linecap:round;stroke-linejoin:round;stroke-miterlimit:4;stroke-dasharray:none;stroke-opacity:1;visibility:visible"/><path d="M689.412 588.728c-.227-.927-.452-1.855-.755-2.753a18.679 18.679 0 0 0-.94-2.245 21.009 21.009 0 0 0-.97-1.753 21.42 21.42 0 0 0-.881-1.309 21.257 21.257 0 0 0-1.746-2.085 21.58 21.58 0 0 0-4.16-3.386 22.167 22.167 0 0 0-3.127-1.634 22.955 22.955 0 0 0-2.195-.806 25.115 25.115 0 0 0-2.648-.662 23.077 23.077 0 0 0-3.106-.387c-1.17-.057-2.35-.008-3.527.04" style="fill:none;stroke:#00ff4a;stroke-width:1.66666;stroke-linecap:round;stroke-linejoin:round;stroke-miterlimit:4;stroke-dasharray:none;stroke-opacity:1;visibility:visible"/><path d="m738.558 857.809-.221-1.206M728.582 858.834l.14.776" style="fill:none;stroke:#00ff4a;stroke-width:.999997;stroke-linecap:round;stroke-linejoin:round;stroke-miterlimit:4;stroke-dasharray:none;stroke-opacity:1;visibility:visible"/><path d="M586.976 929.34c.143-.025.287-.05.43-.08a7.864 7.864 0 0 0 1.468-.453c.23-.103.435-.216.626-.347.15-.106.29-.224.416-.362.104-.118.199-.248.276-.392a1.213 1.213 0 0 0 .15-.442c.018-.102.012-.208.01-.313M580.387 927.31a.564.564 0 0 0-.008.093 1.044 1.044 0 0 0 .12.475c.065.141.145.272.234.386.099.122.208.227.328.32.139.108.287.2.446.282.192.098.396.182.617.254.239.078.495.144.763.196.26.052.536.092.822.124a12.499 12.499 0 0 0 1.735.052 8.435 8.435 0 0 0 .904-.066M586.348 929.426l.505-.07M586.852 929.356l.123-.016M590.368 926.936l-.058-1.36M580.335 926.302l.038 1.036M728.732 859.6c.033.146.065.292.12.426.065.161.164.309.278.443.115.137.244.257.386.364.153.114.322.213.5.297.202.095.418.172.644.236.246.067.504.116.774.152.27.035.552.053.841.057a9.26 9.26 0 0 0 1.762-.142 10.933 10.933 0 0 0 .872-.191c.281-.076.561-.165.83-.263.271-.099.528-.209.774-.329a5.63 5.63 0 0 0 .692-.4c.221-.148.42-.307.6-.479.155-.151.293-.316.413-.489a2.49 2.49 0 0 0 .253-.501 1.64 1.64 0 0 0 .11-.512c.008-.139-.011-.274-.027-.412" style="fill:none;stroke:#00ff4a;stroke-width:1.66666;stroke-linecap:round;stroke-linejoin:round;stroke-miterlimit:4;stroke-dasharray:none;stroke-opacity:1;visibility:visible"/><path d="M582.052 926.96c-.224-.05-.453-.102-.656-.162a4.739 4.739 0 0 1-.556-.202 2.844 2.844 0 0 1-.433-.233 1.47 1.47 0 0 1-.307-.257.67.67 0 0 1-.169-.276c-.011-.056-.011-.11-.011-.167M654.009 584.907l.541-.351.508-.541.386-.679.245-.79.101-.881-.049-.927-.196-.95-.339-.933-.468-.886-.576-.805-.672-.693-.736-.559-.776-.404-.786-.236M651.192 575.272c-.544-.144-1.419-.04-1.915.232" style="fill:none;stroke:#00ff4a;stroke-width:.999997;stroke-linecap:round;stroke-linejoin:round;stroke-miterlimit:4;stroke-dasharray:none;stroke-opacity:1;visibility:visible"/><path d="M590.397 925.23a.933.933 0 0 1 .01.118.595.595 0 0 1-.119.288 1.528 1.528 0 0 1-.26.284 2.695 2.695 0 0 1-.39.27 4.667 4.667 0 0 1-.517.25 8.973 8.973 0 0 1-1.333.41 13.381 13.381 0 0 1-1.618.262 15.804 15.804 0 0 1-2.573.049 10.96 10.96 0 0 1-.793-.079 16.453 16.453 0 0 1-.754-.122M728.058 858.066c.003.035.003.072.01.105a.761.761 0 0 0 .179.344c.083.108.183.212.311.306.126.096.274.181.44.259a4.24 4.24 0 0 0 .555.206 6.873 6.873 0 0 0 1.393.228c.258.017.527.024.8.017a11.89 11.89 0 0 0 1.692-.161c.287-.052.57-.11.85-.176a10.493 10.493 0 0 0 1.585-.516c.245-.101.477-.208.693-.323.219-.114.419-.234.604-.36.18-.124.35-.249.492-.38a3.01 3.01 0 0 0 .375-.395c.102-.133.182-.267.242-.4a1.167 1.167 0 0 0 .107-.39c.004-.09-.013-.179-.025-.267M679.194 591.241l.079.24.273.312.444.252.598.172.732.094.844.012.916-.074.966-.154.97-.231.95-.297.884-.354.795-.4.675-.426.53-.442.366-.438.186-.42.01-.359M578.843 674.374c.106-.046.21-.093.322-.1a.627.627 0 0 1 .342.079 1.05 1.05 0 0 1 .309.263 1.32 1.32 0 0 1 .221.421 1.667 1.667 0 0 1 .076.513 2.33 2.33 0 0 1-.076.535 2.759 2.759 0 0 1-.522.985 2.44 2.44 0 0 1-.36.35 1.232 1.232 0 0 1-.326.185.44.44 0 0 1-.254.021.34.34 0 0 1-.195-.141.93.93 0 0 1-.125-.315 2.55 2.55 0 0 1-.06-.468 5.863 5.863 0 0 1-.006-.532c.014-.18.031-.365.055-.544.028-.178.07-.353.12-.513.052-.17.116-.327.2-.447a1.34 1.34 0 0 1 .279-.292M636.438 589.024a1 1 0 0 1 .323-.101.627.627 0 0 1 .341.081 1.05 1.05 0 0 1 .31.261 1.307 1.307 0 0 1 .221.422 1.667 1.667 0 0 1 .077.512 2.33 2.33 0 0 1-.077.536 2.759 2.759 0 0 1-.523.984 2.44 2.44 0 0 1-.36.349 1.232 1.232 0 0 1-.325.188.44.44 0 0 1-.255.019.34.34 0 0 1-.193-.139.93.93 0 0 1-.127-.316 2.55 2.55 0 0 1-.06-.468 5.863 5.863 0 0 1-.005-.533c.013-.18.03-.364.055-.543.028-.179.07-.353.12-.513.052-.171.117-.327.2-.447.08-.12.177-.208.278-.292M652.736 580.967c.106-.047.21-.094.322-.102a.644.644 0 0 1 .342.082 1.06 1.06 0 0 1 .312.261 1.32 1.32 0 0 1 .221.419c.055.158.081.332.081.516 0 .176-.026.357-.073.534a2.732 2.732 0 0 1-.515.984 2.337 2.337 0 0 1-.36.352 1.28 1.28 0 0 1-.325.19.448.448 0 0 1-.257.017.34.34 0 0 1-.194-.137.968.968 0 0 1-.13-.32 2.467 2.467 0 0 1-.064-.464 4.84 4.84 0 0 1 .161-1.594c.055-.17.117-.324.2-.445a1.42 1.42 0 0 1 .279-.293" style="fill:none;stroke:#00ff4a;stroke-width:.999997;stroke-linecap:round;stroke-linejoin:round;stroke-miterlimit:4;stroke-dasharray:none;stroke-opacity:1;visibility:visible"/><path d="m580.316 925.764.07.192.264.3.442.274.604.232.743.185.856.128.93.065.97.004.979-.06.946-.12M587.119 926.963l.871-.179.77-.226.64-.27.479-.298.305-.322.116-.326v-.056M735.891 858.649l.495-.224.704-.399.553-.43.397-.449.211-.449.026-.43-.007-.012" style="fill:none;stroke:#00ff4a;stroke-width:.999997;stroke-linecap:round;stroke-linejoin:round;stroke-miterlimit:4;stroke-dasharray:none;stroke-opacity:1;visibility:visible"/><path d="m580.735 624.231-3.354 6.56" style="fill:none;stroke:#00ff4a;stroke-width:.999997;stroke-linecap:round;stroke-linejoin:round;stroke-miterlimit:2;stroke-dasharray:none;stroke-opacity:1;visibility:visible"/><path d="m654.008 584.907-17.57 4.117M654.008 584.907l-1.272-3.94" style="fill:none;stroke:#00ff4a;stroke-width:.999997;stroke-linecap:round;stroke-linejoin:round;stroke-miterlimit:4;stroke-dasharray:none;stroke-opacity:1;visibility:visible"/></svg>