<svg xmlns="http://www.w3.org/2000/svg" baseProfile="full" height="1122.52" preserveAspectRatio="xMinYMin meet" style="width:912px;height:1303px" width="793.701" xml:space="preserve"><path d="M498.857 691.566c-1.305 1-3.314 1.918-6.026 1.366L363.35 656.086c-11.52-10.046 4.113-10.653 4.113-10.653l128.37 36.637s3.52 1.716 4.577 5.014" style="fill:none;stroke:red;stroke-width:1.6;stroke-linecap:round;stroke-linejoin:round;stroke-miterlimit:4;stroke-dasharray:none;stroke-opacity:1;visibility:visible" visibility="hidden"/><path d="M492.372 692.614s-1.357-.874.2-4.05c0 0 .978-1.887 1.073-4.415 0 .001.123-1.599 1.48-2.087" style="fill:none;stroke:red;stroke-width:.999997;stroke-linecap:round;stroke-linejoin:round;stroke-miterlimit:4;stroke-dasharray:none;stroke-opacity:1;visibility:visible" visibility="hidden"/><path d="M479.459 680.966s1.625-1.584 2.51.467c.001 0 .171 1.747-2.339 1.505M493.852 683.813s1.638-2.336 3.139.861c-.001 0 .219.512.312 1.311M496.823 689.084a6.08 6.08 0 0 1-.675 1.13s-3.685 3.702-4.063.117M492.085 690.331l5.218-4.346M497.303 685.985l-5.218 4.346" style="fill:none;stroke:red;stroke-width:.666665;stroke-linecap:round;stroke-linejoin:round;stroke-miterlimit:4;stroke-dasharray:none;stroke-opacity:1;visibility:visible" visibility="hidden"/><path d="m613.418 655.962 48.847 266.805M672.596 920.86l-48.959-267.418M600.674 646.917c.76-.016 1.523-.03 2.266.028a13.568 13.568 0 0 1 3.166.676c.324.112.644.236.951.374a10.817 10.817 0 0 1 1.107.554c.21.119.414.241.614.371a10.91 10.91 0 0 1 1.643 1.3c.279.268.543.553.784.845a10.027 10.027 0 0 1 1.01 1.445 10.027 10.027 0 0 1 .444.867c.169.37.317.748.431 1.138.136.466.232.947.327 1.429M623.636 653.428c-.227-.925-.45-1.855-.754-2.752a20.63 20.63 0 0 0-2.792-5.308 21.087 21.087 0 0 0-3.653-3.853 26.8 26.8 0 0 0-1.075-.83 21.788 21.788 0 0 0-1.177-.785 22.187 22.187 0 0 0-3.128-1.637 22.955 22.955 0 0 0-2.195-.806 25.01 25.01 0 0 0-2.646-.662 23.124 23.124 0 0 0-3.108-.387c-1.168-.058-2.35-.008-3.528.041M588.23 649.61a16.521 16.521 0 0 1 2.002-.805 30.649 30.649 0 0 1 2.768-.778c.535-.122 1.09-.239 1.667-.347a55.45 55.45 0 0 1 1.846-.312 54.3 54.3 0 0 1 4.161-.452M599.581 636.448c-.854.076-1.705.15-2.55.248a49.357 49.357 0 0 0-2.421.321 65.533 65.533 0 0 0-2.279.399 47.917 47.917 0 0 0-2.121.463 42.033 42.033 0 0 0-2.552.701 29.236 29.236 0 0 0-2.243.785c-.672.267-1.298.555-1.92.843M583.5 640.204l-66.805 32.88M521.425 682.486l66.807-32.88M513.073 703.828c-.013-.972-.028-1.946.019-2.938.044-.889.135-1.794.265-2.7a32.267 32.267 0 0 1 .423-2.379c.09-.431.192-.862.3-1.289M515.492 690.274c.279-.66.57-1.296.88-1.896.27-.524.552-1.024.841-1.497.295-.473.591-.923.897-1.335.286-.385.577-.74.855-1.062.196-.219.395-.426.587-.615.19-.179.37-.345.544-.495.221-.184.427-.344.623-.474.245-.164.468-.286.69-.406M516.679 673.088c-.55.3-1.102.597-1.636.944-.44.281-.867.594-1.283.924a24.052 24.052 0 0 0-.956.812 21.64 21.64 0 0 0-.841.804c-.293.292-.574.597-.855.906a25.384 25.384 0 0 0-1.424 1.762 31.767 31.767 0 0 0-2.597 4.186c-.28.54-.547 1.092-.807 1.656a38.733 38.733 0 0 0-1.375 3.446 45.317 45.317 0 0 0-.695 2.185 45.581 45.581 0 0 0-1.245 5.795 43.664 43.664 0 0 0-.273 2.34 35.777 35.777 0 0 0-.152 2.512c-.023.894-.003 1.774.008 2.656M502.55 704.02l11.572 286.343M524.639 989.931l-11.566-286.103" style="fill:none;stroke:#00ff4a;stroke-width:1.66666;stroke-linecap:round;stroke-linejoin:round;stroke-miterlimit:4;stroke-dasharray:none;stroke-opacity:1;visibility:visible"/><path d="m672.781 922.51-.221-1.206M662.804 923.534l.14.776" style="fill:none;stroke:#00ff4a;stroke-width:.999997;stroke-linecap:round;stroke-linejoin:round;stroke-miterlimit:4;stroke-dasharray:none;stroke-opacity:1;visibility:visible"/><path d="M521.199 994.04c.141-.025.286-.05.429-.08.268-.054.53-.12.768-.196.25-.076.49-.161.701-.256a4.22 4.22 0 0 0 .628-.348c.148-.106.288-.224.415-.362.103-.118.197-.248.275-.392a1.213 1.213 0 0 0 .15-.442c.016-.102.011-.208.008-.313M514.61 992.011a.564.564 0 0 0-.01.093 1.044 1.044 0 0 0 .121.476c.066.14.146.271.235.386.099.122.208.226.328.32.137.108.287.2.445.281.192.099.396.183.618.255.238.077.493.144.762.196.261.052.536.092.823.125.276.027.565.047.857.057.291.006.583.006.878-.006a8.407 8.407 0 0 0 .903-.067M520.57 994.126l.507-.07M521.076 994.058l.123-.018M524.59 991.636l-.056-1.361M514.557 991.003l.039 1.036M662.956 924.3c.033.142.064.29.12.422.064.164.164.311.278.445.116.137.244.257.386.364.153.115.322.213.5.297.202.095.418.172.645.236.245.067.503.116.773.152.27.035.552.055.842.058.284.004.578-.004.874-.03a10.204 10.204 0 0 0 1.759-.304c.281-.076.563-.165.83-.262.272-.1.53-.21.775-.33a5.63 5.63 0 0 0 .691-.401c.221-.147.42-.305.6-.477a3.19 3.19 0 0 0 .413-.49c.102-.154.188-.32.254-.5a1.68 1.68 0 0 0 .109-.514c.008-.138-.01-.272-.027-.411" style="fill:none;stroke:#00ff4a;stroke-width:1.66666;stroke-linecap:round;stroke-linejoin:round;stroke-miterlimit:4;stroke-dasharray:none;stroke-opacity:1;visibility:visible"/><path d="m588.232 649.607.541-.351.508-.541.386-.68.245-.789.101-.879-.05-.93-.194-.95-.34-.931-.468-.887-.576-.805-.672-.694-.733-.56-.777-.401-.788-.237M585.415 639.972c-.545-.143-1.418-.04-1.915.232M514.245 693.033a2.419 2.419 0 0 1-.165.307.973.973 0 0 1-.251.27.427.427 0 0 1-.289.072.58.58 0 0 1-.284-.122 1.236 1.236 0 0 1-.259-.286 2.204 2.204 0 0 1-.347-.984 2.253 2.253 0 0 1 .011-.605c.03-.188.087-.377.163-.544a1.627 1.627 0 0 1 .643-.71 1.035 1.035 0 0 1 .398-.141.732.732 0 0 1 .375.048.607.607 0 0 1 .27.215.852.852 0 0 1 .16.455" style="fill:none;stroke:#00ff4a;stroke-width:.999997;stroke-linecap:round;stroke-linejoin:round;stroke-miterlimit:4;stroke-dasharray:none;stroke-opacity:1;visibility:visible"/><path d="M514.67 691.008c.012.114.012.241.012.364M524.62 989.931a.979.979 0 0 1 .01.119.595.595 0 0 1-.12.288 1.565 1.565 0 0 1-.257.284 2.885 2.885 0 0 1-.391.268 4.572 4.572 0 0 1-.519.251 8.973 8.973 0 0 1-1.332.409 10.619 10.619 0 0 1-.784.153 12.448 12.448 0 0 1-.834.11 14.647 14.647 0 0 1-1.726.079c-.29-.002-.571-.015-.847-.031a10.17 10.17 0 0 1-.792-.075c-.265-.038-.507-.08-.755-.126M516.273 991.66c-.223-.05-.453-.102-.656-.162a5.001 5.001 0 0 1-.554-.2 2.879 2.879 0 0 1-.434-.235 1.447 1.447 0 0 1-.306-.257.675.675 0 0 1-.17-.276c-.013-.056-.013-.111-.013-.167M662.281 922.766c.003.034.003.072.01.104a.752.752 0 0 0 .181.345c.078.108.18.212.308.305.126.096.274.182.441.26a4.24 4.24 0 0 0 .555.206 6.873 6.873 0 0 0 1.393.228c.257.018.528.024.801.018a12.6 12.6 0 0 0 .836-.049c.282-.03.568-.067.855-.113.287-.052.57-.11.85-.176a10.493 10.493 0 0 0 1.584-.516c.245-.101.478-.208.694-.323.219-.114.419-.234.604-.36.18-.124.35-.25.492-.38.147-.133.273-.264.375-.395.104-.13.182-.267.242-.4a1.167 1.167 0 0 0 .108-.39c.002-.09-.014-.177-.025-.266M613.416 655.942l.078.241.274.312.442.253.6.17.73.095.845.011.916-.074.967-.153.97-.232.948-.297.886-.354.794-.4.675-.426.53-.442.367-.438.186-.42.01-.359M570.661 653.724a1.01 1.01 0 0 1 .323-.101.639.639 0 0 1 .341.08 1.056 1.056 0 0 1 .31.265 1.3 1.3 0 0 1 .22.419 1.667 1.667 0 0 1 .078.512 2.32 2.32 0 0 1-.077.534 2.759 2.759 0 0 1-.523.987 2.44 2.44 0 0 1-.36.348 1.196 1.196 0 0 1-.325.188.44.44 0 0 1-.255.019.333.333 0 0 1-.193-.14.933.933 0 0 1-.127-.313 2.704 2.704 0 0 1-.06-.471 5.863 5.863 0 0 1-.005-.532c.015-.18.03-.365.055-.54.027-.182.07-.358.12-.516.052-.171.117-.326.2-.447.082-.12.177-.208.277-.292M586.959 645.668a.982.982 0 0 1 .321-.101.644.644 0 0 1 .343.08 1.065 1.065 0 0 1 .312.265 1.299 1.299 0 0 1 .22.416c.057.159.083.332.083.516a2.161 2.161 0 0 1-.074.535 2.732 2.732 0 0 1-.514.984 2.403 2.403 0 0 1-.361.352 1.24 1.24 0 0 1-.325.189.444.444 0 0 1-.256.019.333.333 0 0 1-.195-.14.972.972 0 0 1-.13-.317 2.397 2.397 0 0 1-.063-.466 3.928 3.928 0 0 1-.005-.533 4.537 4.537 0 0 1 .165-1.06 1.79 1.79 0 0 1 .2-.447 1.44 1.44 0 0 1 .279-.292" style="fill:none;stroke:#00ff4a;stroke-width:.999997;stroke-linecap:round;stroke-linejoin:round;stroke-miterlimit:4;stroke-dasharray:none;stroke-opacity:1;visibility:visible"/><path d="m514.539 990.464.07.192.263.299.443.275.604.232.741.185.857.128.931.065.97.004.979-.06.944-.121M521.341 991.664l.872-.178.771-.227.639-.27.477-.298.307-.321.117-.327v-.056M670.114 923.348l.496-.223.702-.4.554-.427.396-.452.214-.448.024-.43-.006-.012M512.628 739.864c.107-.047.21-.092.323-.102a.639.639 0 0 1 .341.082 1.056 1.056 0 0 1 .31.262 1.313 1.313 0 0 1 .219.42 1.667 1.667 0 0 1 .079.512 2.32 2.32 0 0 1-.077.536 2.759 2.759 0 0 1-.523.984 2.44 2.44 0 0 1-.36.35 1.196 1.196 0 0 1-.325.188.44.44 0 0 1-.255.018.333.333 0 0 1-.193-.138.933.933 0 0 1-.127-.316 2.704 2.704 0 0 1-.06-.47 5.863 5.863 0 0 1-.005-.531 9.56 9.56 0 0 1 .054-.542c.028-.179.071-.355.121-.513.051-.172.117-.326.2-.448a1.41 1.41 0 0 1 .278-.292" style="fill:none;stroke:#00ff4a;stroke-width:.999997;stroke-linecap:round;stroke-linejoin:round;stroke-miterlimit:4;stroke-dasharray:none;stroke-opacity:1;visibility:visible"/><path d="m514.245 693.033 1.247-2.759" style="fill:none;stroke:#00ff4a;stroke-width:1.66666;stroke-linecap:round;stroke-linejoin:round;stroke-miterlimit:4;stroke-dasharray:none;stroke-opacity:1;visibility:visible"/><path d="m515.492 690.274-1.247 2.759M588.232 649.606l-17.571 4.118M588.232 649.606l-1.273-3.938" style="fill:none;stroke:#00ff4a;stroke-width:.999997;stroke-linecap:round;stroke-linejoin:round;stroke-miterlimit:4;stroke-dasharray:none;stroke-opacity:1;visibility:visible"/><path d="m492.085 690.331 6.772 1.235" style="fill:none;stroke:red;stroke-width:1.6;stroke-linecap:round;stroke-linejoin:round;stroke-miterlimit:4;stroke-dasharray:none;stroke-opacity:1;visibility:visible" visibility="hidden"/><path d="m497.303 685.985-17.844-5.019M514.245 693.033l-17.422-3.949" style="fill:none;stroke:red;stroke-width:.666665;stroke-linecap:round;stroke-linejoin:round;stroke-miterlimit:4;stroke-dasharray:none;stroke-opacity:1;visibility:visible" visibility="hidden"/></svg>