<svg xmlns="http://www.w3.org/2000/svg" baseProfile="full" height="1122.52" preserveAspectRatio="xMinYMin meet" style="width:912px;height:1303px" width="793.701" xml:space="preserve"><path d="M169.06 701.448a.307.307 0 0 0-.118-.134.284.284 0 0 0-.27-.016M169.11 701.581a.87.87 0 0 0-.05-.135M169.6 702.466a3.293 3.293 0 0 0-.748 1.944M170.048 702.128a1.244 1.244 0 0 0-.448.337M170.386 702.201a.29.29 0 0 0-.338-.073M170.426 708.118l-.556.099M174.024 703.508a2.74 2.74 0 0 0-.014-1.264M171.596 707.532a7.385 7.385 0 0 0 1.54-1.816 7.387 7.387 0 0 0 .888-2.208M170.47 708.108c.416-.102.802-.3 1.127-.576M169.013 706.268a3.096 3.096 0 0 0 .016 1.402M171.704 701.81a8.253 8.253 0 0 0-2.692 4.457M172.95 701.17a3.087 3.087 0 0 0-1.248.638M173.83 701.662a.74.74 0 0 0-.877-.492M169.026 707.67a.73.73 0 0 0 .846.547M174 702.201l-.17-.539M171.242 705.17l.53-.876M171.773 704.294l.62-.276M171.285 705.848l-.041-.679M168.226 701.636a3.27 3.27 0 0 0-.75 1.944M167.477 703.581a1.239 1.239 0 0 0 .103.55M167.58 704.132a.285.285 0 0 0 .119.133.29.29 0 0 0 .271.017" style="fill:none;stroke:red;stroke-width:.666665;stroke-linecap:round;stroke-linejoin:round;stroke-miterlimit:2;stroke-dasharray:none;stroke-opacity:1;visibility:visible"/><path d="M168.673 701.298a1.232 1.232 0 0 0-.447.34" style="fill:none;stroke:red;stroke-width:.666665;stroke-linecap:round;stroke-linejoin:round;stroke-miterlimit:2;stroke-dasharray:none;stroke-opacity:1;visibility:visible"/><path d="M85.43 647.97c.326.05.527.093.527.093l78.516 47.431" style="fill:none;stroke:red;stroke-width:1.6;stroke-linecap:round;stroke-linejoin:round;stroke-miterlimit:4;stroke-dasharray:none;stroke-opacity:1;visibility:visible"/><path d="M81.25 654.798c-5.094-7.803 2.112-7.15 4.182-6.827" style="fill:none;stroke:red;stroke-width:.999997;stroke-linecap:round;stroke-linejoin:round;stroke-miterlimit:4;stroke-dasharray:none;stroke-opacity:1;visibility:visible"/><path d="m287.44 698.4 4.372 26.086M293.42 734.073l38.98 232.509s.879 2.174 5.227 1.225c-.001 0 3.673-.725 3.723-2.825l-35.185-209.23M303.61 740.562l-6.583-39.129M294.102 684.032c-5.85-24.25-34.95-16.25-34.95-16.25l-81.889 19.168c-18.133 5.098-18.299 25.314-18.299 25.314l-.835 293.792s.05 1.899 4.447 2c0 0 4.124.1 4.576-1.876l.964-293.807a25.24 25.24 0 0 1 .514-4.207" style="fill:none;stroke:red;stroke-width:1.6;stroke-linecap:round;stroke-linejoin:round;stroke-miterlimit:4;stroke-dasharray:none;stroke-opacity:1;visibility:visible"/><path d="M172.638 700.025c3.206-3.535 6.927-4.308 6.927-4.308l58.353-13.67M245.793 680.201l13.001-3.043M265.294 675.926c19.221-2.318 20.057 10.006 20.057 10.006" style="fill:none;stroke:red;stroke-width:1.6;stroke-linecap:round;stroke-linejoin:round;stroke-miterlimit:4;stroke-dasharray:none;stroke-opacity:1;visibility:visible"/><path d="M332.4 965.38s1.1 1.251 4.976.527c-.001 0 3.299-.725 3.651-2.076M158.252 1004.855s.852 1.176 4.474 1.176c0 0 3.5-.027 4.327-1.225" style="fill:none;stroke:red;stroke-width:.999997;stroke-linecap:round;stroke-linejoin:round;stroke-miterlimit:4;stroke-dasharray:none;stroke-opacity:1;visibility:visible"/><path d="M258.68 675.737c-.363-.027-1.03-.261-.62-1.704 0 0 .674-2.05 2.076-.55" style="fill:none;stroke:red;stroke-width:.666665;stroke-linecap:round;stroke-linejoin:round;stroke-miterlimit:4;stroke-dasharray:none;stroke-opacity:1;visibility:visible"/><path d="M83.224 657.192a24.948 24.948 0 0 0-1.064 3.856L56.412 939.97c-.576 2.176-4.625 1.925-4.625 1.925-4.177-.424-4.424-2.675-4.424-2.675L73.21 660.896s1.35-19 20.448-24.166l85.394-17.1s2.642-.077 4.66-1.941c.001.001 1.478-4.272 5.597-4.117-.001 0 5.436-.93 5.899 11.963l.24 6.202M195.986 645.705l1.344 34.735M197.825 693.242l7.368 190.721c-.855 2.108-2.707 2.432-3.833 2.567-4.531.465-5.23-2.433-5.23-2.433l-7.346-188.72M188.284 682.576l-1.695-43.539" style="fill:none;stroke:red;stroke-width:1.6;stroke-linecap:round;stroke-linejoin:round;stroke-miterlimit:4;stroke-dasharray:none;stroke-opacity:1;visibility:visible"/><path d="M192.104 621.028s-1.036 3.152-5.332 5.475M174.645 629.737l-78.685 15.76s-3.369.56-6.843 3.338" style="fill:none;stroke:red;stroke-width:1.6;stroke-linecap:round;stroke-linejoin:round;stroke-miterlimit:4;stroke-dasharray:none;stroke-opacity:1;visibility:visible"/><path d="M196.128 882.895s.9 2.367 5.032 2c0 0 3.034-.3 3.833-2.032M47.587 937.996s.473 1.626 4.423 2.051c0 0 3.4.175 4.327-1.176" style="fill:none;stroke:red;stroke-width:.999997;stroke-linecap:round;stroke-linejoin:round;stroke-miterlimit:4;stroke-dasharray:none;stroke-opacity:1;visibility:visible"/><path d="M198.36 780.272s1.323-1.324 1.648-.026c.001 0-.099 1.75-1.423 1.626 0 0-1.199-.424-.226-1.6h.001M156.94 630.581s.678-2.05 2.079-.55c-.001.001.747 1.501-1.253 2.251 0-.001-1.373.223-.825-1.701h-.001" style="fill:none;stroke:red;stroke-width:.666665;stroke-linecap:round;stroke-linejoin:round;stroke-miterlimit:4;stroke-dasharray:none;stroke-opacity:1;visibility:visible"/><path d="M283.207 667.724c4.523-3.83 9.094-10.379 9.316-21.261l-2.1-33.803 10.6-69.548c-.898-1.301-3.7-1.75-3.7-1.75-4.048-.599-4.45.701-4.45.701l-10.355 67.885s-.325 2.702-.2 4.752l2.055 32.312s-.098 13.95-12.583 17.916" style="fill:none;stroke:red;stroke-width:1.6;stroke-linecap:round;stroke-linejoin:round;stroke-miterlimit:4;stroke-dasharray:none;stroke-opacity:1;visibility:visible"/><path d="M293.173 542.461s2.149 2.45 7.449 1.3" style="fill:none;stroke:red;stroke-width:.999997;stroke-linecap:round;stroke-linejoin:round;stroke-miterlimit:4;stroke-dasharray:none;stroke-opacity:1;visibility:visible"/><path d="m160.456 702.56-79.204-47.761" style="fill:none;stroke:red;stroke-width:1.6;stroke-linecap:round;stroke-linejoin:round;stroke-miterlimit:4;stroke-dasharray:none;stroke-opacity:1;visibility:visible"/><path d="M154.48 692.624s1.38-.826 1.6.762c0 0-.206 1.254-1.85.644M75.598 694.241s.675-2.05 2.076-.55c0 .001.75 1.501-1.25 2.251 0-.001-1.375.223-.826-1.701M165.66 744.78s.678-2.047 2.079-.547c-.001-.001.747 1.499-1.253 2.247 0 0-1.374.225-.825-1.7h-.001" style="fill:none;stroke:red;stroke-width:.666665;stroke-linecap:round;stroke-linejoin:round;stroke-miterlimit:4;stroke-dasharray:none;stroke-opacity:1;visibility:visible"/><path d="M294.102 684.032 287.44 698.4M293.42 734.073l-1.608-9.587M291.812 724.486l1.608 9.587M303.61 740.562l2.555 15.19M293.42 734.073l10.19 6.489M294.102 684.032l2.925 17.401M287.44 698.4l6.662-14.368M169.6 702.466l3.038-2.441M245.793 680.201l-7.875 1.846M237.918 682.047l7.875-1.846M271.79 664.928l-12.996 12.23M186.589 639.037l8.859-7.3M195.448 631.737l.538 13.968M197.825 693.242l-.495-12.802M197.33 680.44l.495 12.802M188.284 682.576l.5 12.801M188.784 695.377l-.5-12.801M195.448 631.737l-8.859 7.3M258.794 677.158l12.996-12.23" style="fill:none;stroke:red;stroke-width:1.6;stroke-linecap:round;stroke-linejoin:round;stroke-miterlimit:4;stroke-dasharray:none;stroke-opacity:1;visibility:visible"/><path d="M175.944 629.699s18.874 14.149 37.874 25.274c0 0 27.07 15.937 28.477 15.937" style="fill:none;stroke:#00ff4a;stroke-width:1.6;stroke-linecap:round;stroke-linejoin:round;stroke-miterlimit:4;stroke-dasharray:none;stroke-opacity:1;visibility:visible" visibility="hidden"/><path d="M180.469 623.099s-4.75-2.65-4.527 6.6" style="fill:none;stroke:#00ff4a;stroke-width:.999997;stroke-linecap:round;stroke-linejoin:round;stroke-miterlimit:4;stroke-dasharray:none;stroke-opacity:1;visibility:visible" visibility="hidden"/><path d="M254.418 667.9s-19.048-9.35-36.099-19.65c.001 0-28.899-18.2-37.849-25.152" style="fill:none;stroke:#00ff4a;stroke-width:1.6;stroke-linecap:round;stroke-linejoin:round;stroke-miterlimit:4;stroke-dasharray:none;stroke-opacity:1;visibility:visible" visibility="hidden"/><path d="M234.4 661.24s1.38-.826 1.6.762c0 0-.207 1.254-1.85.644M239.58 663.93s1.383-.827 1.6.761c0 .001-.204 1.254-1.848.645" style="fill:none;stroke:#00ff4a;stroke-width:.666665;stroke-linecap:round;stroke-linejoin:round;stroke-miterlimit:4;stroke-dasharray:none;stroke-opacity:1;visibility:visible" visibility="hidden"/><path d="m271.79 664.928 11.417 2.796" style="fill:none;stroke:red;stroke-width:1.6;stroke-linecap:round;stroke-linejoin:round;stroke-miterlimit:4;stroke-dasharray:none;stroke-opacity:1;visibility:visible"/></svg>