<svg xmlns="http://www.w3.org/2000/svg" baseProfile="full" height="1122.52" preserveAspectRatio="xMinYMin meet" style="width:912px;height:1303px" width="793.701" xml:space="preserve"><path d="m256.662 652.423 11.93-2.459M247.477 654.314l2.808-.573" style="fill:none;stroke:red;stroke-width:1.6;stroke-linecap:round;stroke-linejoin:round;stroke-miterlimit:4;stroke-dasharray:none;stroke-opacity:1;visibility:visible"/><path d="m276.037 640.313-28.38 5.915s-.278.296-.004.82c0 0 1.727 3.76-.274 6.14.001 0-.704.555.098 1.128" style="fill:none;stroke:red;stroke-width:.999997;stroke-linecap:round;stroke-linejoin:round;stroke-miterlimit:4;stroke-dasharray:none;stroke-opacity:1;visibility:visible"/><path d="m298.698 580.121-.585 3.839 2.317 35.29s.804 13.568-13.568 18.013c0 .001-6.63.801-10.825 3.049" style="fill:none;stroke:red;stroke-width:1.6;stroke-linecap:round;stroke-linejoin:round;stroke-miterlimit:4;stroke-dasharray:none;stroke-opacity:1;visibility:visible"/><path d="m282.45 646.524 7.639-1.708s18.054-4.073 18.5-25.899l-2.075-31.362" style="fill:none;stroke:red;stroke-width:1.6;stroke-linecap:round;stroke-linejoin:round;stroke-miterlimit:4;stroke-dasharray:none;stroke-opacity:1;visibility:visible"/><path d="m264.226 727.626-.561.101M262.02 721.142a4.15 4.15 0 0 0-.279.396 3.279 3.279 0 0 0-.472 1.552M261.27 723.092a1.243 1.243 0 0 0 .105.548M261.375 723.641a.275.275 0 0 0 .116.136.307.307 0 0 0 .271.015M262.467 720.808a1.24 1.24 0 0 0-.447.336M262.855 720.956a.28.28 0 0 0-.117-.131.277.277 0 0 0-.27-.017M262.906 721.092a1.04 1.04 0 0 0-.05-.136M263.397 721.976a3.23 3.23 0 0 0-.751 1.942M263.842 721.636a1.227 1.227 0 0 0-.445.341M264.182 721.713a.29.29 0 0 0-.34-.079M265.081 725.358l-.044-.68M265.568 723.803l.62-.276M265.037 724.679l.53-.875M267.796 721.712l-.17-.541M265.39 727.044a7.43 7.43 0 0 0 2.43-4.027M264.266 727.62c.417-.102.8-.3 1.125-.576M262.807 725.778a3.057 3.057 0 0 0 .013 1.407M265.5 721.321a8.203 8.203 0 0 0-1.712 2.008 8.336 8.336 0 0 0-.982 2.45M266.747 720.68a3.021 3.021 0 0 0-1.247.64M267.626 721.172a.733.733 0 0 0-.877-.492M262.82 727.185a.77.77 0 0 0 .333.45.73.73 0 0 0 .511.095" style="fill:none;stroke:red;stroke-width:.666665;stroke-linecap:round;stroke-linejoin:round;stroke-miterlimit:2;stroke-dasharray:none;stroke-opacity:1;visibility:visible"/><path d="M267.82 723.018c.099-.417.09-.848-.01-1.265M334.568 703.634l-.556.099M332.367 697.15a3.267 3.267 0 0 0-.75 1.946M331.616 699.096a1.21 1.21 0 0 0 .105.552M331.72 699.648a.29.29 0 0 0 .12.132.283.283 0 0 0 .272.016M332.815 696.813a1.187 1.187 0 0 0-.448.339M333.203 696.964a.288.288 0 0 0-.388-.15M333.252 697.096a.921.921 0 0 0-.048-.134M333.74 697.981a3.319 3.319 0 0 0-.749 1.943M334.187 697.642a1.225 1.225 0 0 0-.447.34M334.529 697.717a.523.523 0 0 0-.072-.06.301.301 0 0 0-.269-.013M335.429 701.366l-.043-.68M335.917 699.809l.619-.276M335.386 700.686l.53-.877M338.146 697.715l-.173-.536M335.738 703.046a7.356 7.356 0 0 0 1.541-1.812c.412-.684.711-1.43.888-2.212M334.613 703.628c.413-.102.8-.303 1.125-.582M333.151 701.784a3.12 3.12 0 0 0 .016 1.404M335.843 697.322a8.328 8.328 0 0 0-2.693 4.462M337.092 696.681a3.105 3.105 0 0 0-1.25.64M337.972 697.18a.72.72 0 0 0-.32-.412.765.765 0 0 0-.558-.086M333.166 703.188a.73.73 0 0 0 .337.452.724.724 0 0 0 .508.094" style="fill:none;stroke:red;stroke-width:.666665;stroke-linecap:round;stroke-linejoin:round;stroke-miterlimit:2;stroke-dasharray:none;stroke-opacity:1;visibility:visible"/><path d="M338.167 699.024a2.76 2.76 0 0 0-.013-1.266" style="fill:none;stroke:red;stroke-width:.666665;stroke-linecap:round;stroke-linejoin:round;stroke-miterlimit:2;stroke-dasharray:none;stroke-opacity:1;visibility:visible"/><path d="m179.711 667.546 78.554 47.45M254.25 722.07l-79.242-47.787M261.813 760.225l.092-28.337a25.21 25.21 0 0 1 .521-4.208" style="fill:none;stroke:red;stroke-width:1.6;stroke-linecap:round;stroke-linejoin:round;stroke-miterlimit:4;stroke-dasharray:none;stroke-opacity:1;visibility:visible"/><path d="M359.896 695.338c18.488-1.904 19.302 10.096 19.302 10.096L426.27 986.21s.876 2.177 5.226 1.224c0 0 3.675-.724 3.727-2.826l-47.27-281.076c-5.853-24.264-34.971-16.256-34.971-16.256l-81.921 19.177c-18.142 5.096-18.307 25.323-18.307 25.323l-.837 293.923s.049 1.904 4.45 2.003c0 0 4.128.102 4.578-1.875l.84-256.715M339.624 699.7l11.664-2.732" style="fill:none;stroke:red;stroke-width:1.6;stroke-linecap:round;stroke-linejoin:round;stroke-miterlimit:4;stroke-dasharray:none;stroke-opacity:1;visibility:visible"/><path d="M266.435 719.534c3.208-3.536 6.93-4.312 6.93-4.312l58.38-13.674" style="fill:none;stroke:red;stroke-width:1.6;stroke-linecap:round;stroke-linejoin:round;stroke-miterlimit:4;stroke-dasharray:none;stroke-opacity:1;visibility:visible"/><path d="M426.27 985.01s1.1 1.25 4.978.524c-.001 0 3.302-.724 3.651-2.074M252.04 1024.502s.85 1.177 4.477 1.177c.001 0 3.502-.027 4.328-1.227" style="fill:none;stroke:red;stroke-width:.999997;stroke-linecap:round;stroke-linejoin:round;stroke-miterlimit:4;stroke-dasharray:none;stroke-opacity:1;visibility:visible"/><path d="m282.09 702.074-1.695-43.557M291.633 712.748l7.373 190.806c-.86 2.112-2.71 2.439-3.836 2.568-4.535.47-5.233-2.435-5.233-2.435l-7.351-188.803M289.796 665.186l1.341 34.752M289.068 646.324l.19 4.89M172.8 714.284l-22.646 245.304c-.576 2.174-4.624 1.924-4.624 1.924-4.18-.424-4.429-2.672-4.429-2.672l25.86-278.452s1.352-19.006 20.459-24.175l85.43-17.11s2.645-.075 4.665-1.943c0-.001 1.475-4.272 5.598-4.12 0 .001 2.257-.387 3.986 2.785" style="fill:none;stroke:red;stroke-width:1.6;stroke-linecap:round;stroke-linejoin:round;stroke-miterlimit:4;stroke-dasharray:none;stroke-opacity:1;visibility:visible"/><path d="m245.102 653.888-55.378 11.09s-3.372.563-6.85 3.342M176.982 676.681a24.687 24.687 0 0 0-1.068 3.857l-2.226 24.122" style="fill:none;stroke:red;stroke-width:1.6;stroke-linecap:round;stroke-linejoin:round;stroke-miterlimit:4;stroke-dasharray:none;stroke-opacity:1;visibility:visible"/><path d="M289.937 902.486s.9 2.37 5.032 2.004c0 .001 3.037-.304 3.836-2.037M141.326 957.611s.475 1.625 4.424 2.052c0 0 3.406.175 4.328-1.177" style="fill:none;stroke:red;stroke-width:.999997;stroke-linecap:round;stroke-linejoin:round;stroke-miterlimit:4;stroke-dasharray:none;stroke-opacity:1;visibility:visible"/><path d="M292.167 799.814s1.327-1.323 1.65-.024c0 0-.1 1.75-1.424 1.625 0 0-1.2-.424-.226-1.6v-.001" style="fill:none;stroke:red;stroke-width:.666665;stroke-linecap:round;stroke-linejoin:round;stroke-miterlimit:4;stroke-dasharray:none;stroke-opacity:1;visibility:visible"/><path d="M269.7 649.18s18.886 14.156 37.895 25.284c-.001 0 27.08 15.945 28.487 15.945M348.252 687.39s-19.06-9.352-36.117-19.656c0 0-28.91-18.207-37.865-25.16M366.091 684.548c12.492-3.97 12.593-17.924 12.593-17.924l-2.153-35.167.388-2.526M385.187 629.3l-.453 2.959 2.101 33.814c-.221 10.888-4.799 17.44-9.32 21.27" style="fill:none;stroke:red;stroke-width:1.6;stroke-linecap:round;stroke-linejoin:round;stroke-miterlimit:4;stroke-dasharray:none;stroke-opacity:1;visibility:visible"/><path d="M274.229 642.575s-4.754-2.651-4.529 6.604" style="fill:none;stroke:red;stroke-width:.999997;stroke-linecap:round;stroke-linejoin:round;stroke-miterlimit:4;stroke-dasharray:none;stroke-opacity:1;visibility:visible"/><path d="m354.748 699.186-.556.101M352.546 692.701a2.941 2.941 0 0 0-.276.393 3.244 3.244 0 0 0-.475 1.55M351.794 694.642a1.235 1.235 0 0 0 .106.555M351.9 695.197a.285.285 0 0 0 .118.13.276.276 0 0 0 .27.019M352.991 692.361a1.216 1.216 0 0 0-.445.339M353.38 692.513a.325.325 0 0 0-.117-.136.293.293 0 0 0-.272-.015M353.43 692.648a1.095 1.095 0 0 0-.05-.136M353.92 693.53a3.29 3.29 0 0 0-.753 1.946M354.366 693.196a1.175 1.175 0 0 0-.446.336M354.706 693.268a.288.288 0 0 0-.34-.074M355.607 696.915l-.045-.68M356.093 695.358l.623-.279M355.562 696.236l.53-.877M358.323 693.267l-.17-.539M355.916 698.596a7.363 7.363 0 0 0 1.54-1.816 7.309 7.309 0 0 0 .887-2.209M354.788 699.174c.418-.098.803-.3 1.128-.578M353.332 697.336a3.053 3.053 0 0 0 .011 1.401M356.023 692.872a8.216 8.216 0 0 0-1.707 2.016 8.133 8.133 0 0 0-.984 2.448M357.271 692.232a3.087 3.087 0 0 0-1.248.64M358.152 692.73a.747.747 0 0 0-.88-.499M353.343 698.737a.737.737 0 0 0 .337.453.779.779 0 0 0 .511.1M253.223 652.276a1.343 1.343 0 0 0 .011.596" style="fill:none;stroke:red;stroke-width:.666665;stroke-linecap:round;stroke-linejoin:round;stroke-miterlimit:2;stroke-dasharray:none;stroke-opacity:1;visibility:visible"/><path d="M358.343 694.573a2.73 2.73 0 0 0-.01-1.263M253.234 652.872a.323.323 0 0 0 .145.19.29.29 0 0 0 .236.035M255.265 650.313a.308.308 0 0 0-.379-.223M254.886 650.09a1.245 1.245 0 0 0-.53.277M254.355 650.368a3.467 3.467 0 0 0-1.132 1.91M255.54 649.415l-.753-.448M252.964 653.767l-.755-.445M254.097 653.41a5.227 5.227 0 0 0 1.673-2.824M253.313 653.82a1.93 1.93 0 0 0 .784-.412M252.963 653.768a.453.453 0 0 0 .35.052M253.649 649.33a5.205 5.205 0 0 0-1.67 2.824M255.753 649.701a.46.46 0 0 0-.214-.284" style="fill:none;stroke:red;stroke-width:.666665;stroke-linecap:round;stroke-linejoin:round;stroke-miterlimit:2;stroke-dasharray:none;stroke-opacity:1;visibility:visible"/><path d="M255.77 650.587a1.947 1.947 0 0 0-.017-.887M249.84 652.29l1.855 1.096M252.741 647.39l1.857 1.096M253.186 649.015a2.187 2.187 0 0 0 1.413-.528M251.693 653.388a2.169 2.169 0 0 0-.219-1.49M251.326 647.915l1.416-.527M249.622 650.796l1.704-2.88M249.84 652.29l-.219-1.495M254.929 649.056l-.108-.297M252.352 653.408l-.308.047M251.98 652.153a1.875 1.875 0 0 0 .014.887M254.434 648.92a1.953 1.953 0 0 0-.785.412M254.786 648.97a.47.47 0 0 0-.352-.05M251.994 653.039a.457.457 0 0 0 .213.284M254.82 648.761a.493.493 0 0 0-.221-.273M251.693 653.388a.516.516 0 0 0 .349.068" style="fill:none;stroke:red;stroke-width:.666665;stroke-linecap:round;stroke-linejoin:round;stroke-miterlimit:2;stroke-dasharray:none;stroke-opacity:1;visibility:visible"/><path d="M329.066 680.573s1.381-.825 1.6.763c0 0-.206 1.253-1.848.644M334.843 683.684s1.381-.826 1.6.762c0 0-.205 1.254-1.848.644M246.843 711.906s1.382-.825 1.6.764c0-.001-.205 1.252-1.848.643" style="fill:none;stroke:red;stroke-width:.666665;stroke-linecap:round;stroke-linejoin:round;stroke-miterlimit:4;stroke-dasharray:none;stroke-opacity:1;visibility:visible"/><path d="M174.728 673.654c-5.211-8.24 4.605-6.106 4.605-6.106" style="fill:none;stroke:red;stroke-width:.999997;stroke-linecap:round;stroke-linejoin:round;stroke-miterlimit:4;stroke-dasharray:none;stroke-opacity:1;visibility:visible"/><path d="M212.151 731.08a1070.743 1070.743 0 0 1-4.61-2.916 849.967 849.967 0 0 1-25.061-16.542 729.808 729.808 0 0 1-7.495-5.208c-.232-.16-.463-.322-.695-.484M169.753 711.817c1.173.833 2.352 1.672 3.537 2.51a749.47 749.47 0 0 0 8.047 5.596 881.026 881.026 0 0 0 25.033 16.545c.553.354 1.107.705 1.664 1.06M222.393 737.414h0c3.04 1.852 6.12 3.708 9.236 5.564a945.632 945.632 0 0 0 9.474 5.575 1246.157 1246.157 0 0 0 6.339 3.643l4.553 2.336M222.393 737.414a975.358 975.358 0 0 1-8.539-5.268l-1.703-1.066M208.034 737.529a870.73 870.73 0 0 0 13.872 8.628 1033.044 1033.044 0 0 0 9.39 5.668 1142.59 1142.59 0 0 0 16.899 9.855l3.799 2.005" style="fill:none;stroke:red;stroke-width:1.6;stroke-linecap:round;stroke-linejoin:round;stroke-miterlimit:4;stroke-dasharray:none;stroke-opacity:1;visibility:visible"/><path d="M174.276 705.958c-.154-.088-.304-.18-.516-.21a2.005 2.005 0 0 0-.715.036 5.76 5.76 0 0 0-.93.258 8.819 8.819 0 0 0-1.701.848 7.883 7.883 0 0 0-1.057.788 4.021 4.021 0 0 0-.777.9 1.927 1.927 0 0 0-.26.646 1.763 1.763 0 0 0-.006.598 2.87 2.87 0 0 0 .8 1.444 4.587 4.587 0 0 0 .678.502" style="fill:none;stroke:red;stroke-width:.999997;stroke-linecap:round;stroke-linejoin:round;stroke-miterlimit:4;stroke-dasharray:none;stroke-opacity:1;visibility:visible"/><path d="m261.687 767.874-.528.096M259.603 761.756a3.272 3.272 0 0 0-.261.372 3.08 3.08 0 0 0-.447 1.464M258.895 763.592a1.185 1.185 0 0 0 .1.52M258.997 764.112a.263.263 0 0 0 .109.125.276.276 0 0 0 .256.015M260.026 761.434a1.163 1.163 0 0 0-.423.32M260.393 761.574a.301.301 0 0 0-.11-.124.277.277 0 0 0-.256-.016M260.44 761.705a1.173 1.173 0 0 0-.048-.13M260.903 762.538a2.712 2.712 0 0 0-.261.372 3.03 3.03 0 0 0-.445 1.464M261.325 762.218a1.133 1.133 0 0 0-.42.32M261.645 762.289a.275.275 0 0 0-.32-.07M262.495 765.733l-.043-.643M262.955 764.264l.584-.26M262.452 765.09l.503-.825M265.06 762.288l-.163-.51M262.889 761.92a7.727 7.727 0 0 0-2.542 4.21M264.066 761.314a2.892 2.892 0 0 0-1.177.604M264.895 761.778a.667.667 0 0 0-.304-.382.69.69 0 0 0-.525-.082M260.36 767.454a.697.697 0 0 0 .796.516M262.786 767.322a6.903 6.903 0 0 0 1.455-1.716 7.025 7.025 0 0 0 .839-2.084M261.723 767.868a2.613 2.613 0 0 0 1.063-.544" style="fill:none;stroke:red;stroke-width:.666665;stroke-linecap:round;stroke-linejoin:round;stroke-miterlimit:2;stroke-dasharray:none;stroke-opacity:1;visibility:visible"/><path d="M260.347 766.13a2.872 2.872 0 0 0 .014 1.326M265.08 763.524c.09-.394.086-.804-.012-1.195" style="fill:none;stroke:red;stroke-width:.666665;stroke-linecap:round;stroke-linejoin:round;stroke-miterlimit:2;stroke-dasharray:none;stroke-opacity:1;visibility:visible"/><path d="m254.886 650.09 1.776 2.333M254.886 650.09l13.705-.126M252.044 653.455l-1.759.286M276.037 640.313l6.413 6.211M258.895 763.592l2.918-3.367M354.748 699.186l5.148-3.848M262.495 765.733l-.71 3.379M337.092 696.681l2.532 3.019M354.192 699.287l-2.904-2.319M263.397 721.976l3.038-2.442M334.012 703.733l-2.267-2.185M282.586 714.884l-.496-12.81M289.259 651.215l-8.864 7.302M291.137 699.938l.496 12.81M282.09 702.074l.496 12.81M289.259 651.215l.537 13.971M291.633 712.748l-.496-12.81M274.229 642.575l14.839 3.749M280.395 658.517l8.864-7.302M173.688 704.66l-.888 9.624M247.477 654.314l-2.375-.426M172.8 714.284l.888-9.624M357.271 692.232l8.82-7.684" style="fill:none;stroke:red;stroke-width:1.6;stroke-linecap:round;stroke-linejoin:round;stroke-miterlimit:4;stroke-dasharray:none;stroke-opacity:1;visibility:visible"/><path d="m334.843 683.684-5.777-3.111" style="fill:none;stroke:red;stroke-width:.666665;stroke-linecap:round;stroke-linejoin:round;stroke-miterlimit:4;stroke-dasharray:none;stroke-opacity:1;visibility:visible"/><path d="M307.053 514.282s-.624-3.456 7.38-2.268c0 0 52.56 15.08 82.637 49.551l-10.164 66.243s.281.99-4.519.21h-4.661s-18.71-2.181-47.09-22.658c-.001 0-18.501-13.415-31.774-26.125.001 0-1.392-1.335-1.207-3.875l9.398-61.078" style="fill:none;stroke:#00ff4a;stroke-width:1.6;stroke-linecap:round;stroke-linejoin:round;stroke-miterlimit:4;stroke-dasharray:none;stroke-opacity:1;visibility:visible" visibility="hidden"/><path d="M307.053 514.282s.567.565 2.12.986c.001 0 49.706 16.102 76.674 46.319-.001 0 4.516 3.666 10.447 1.552M385.566 562.431l-9.177 61" style="fill:none;stroke:#00ff4a;stroke-width:.666665;stroke-linecap:round;stroke-linejoin:round;stroke-miterlimit:4;stroke-dasharray:none;stroke-opacity:1;visibility:visible" visibility="hidden"/><path d="m334.843 683.684 13.409 3.706M376.389 623.43l.53 5.501M376.389 623.43l8.798 5.87M366.091 684.548l11.424 2.795" style="fill:none;stroke:red;stroke-width:1.6;stroke-linecap:round;stroke-linejoin:round;stroke-miterlimit:4;stroke-dasharray:none;stroke-opacity:1;visibility:visible"/><path d="m376.919 628.931-.53-5.5" style="fill:none;stroke:#00ff4a;stroke-width:.666665;stroke-linecap:round;stroke-linejoin:round;stroke-miterlimit:4;stroke-dasharray:none;stroke-opacity:1;visibility:visible" visibility="hidden"/></svg>