<svg xmlns="http://www.w3.org/2000/svg" baseProfile="full" height="1122.52" preserveAspectRatio="xMinYMin meet" style="width:912px;height:1303px" width="793.701" xml:space="preserve"><path d="m129.228 337.274 4.834-.596a5846.835 5846.835 0 0 1 38.388-4.588c4.1-.477 8.218-.952 12.354-1.425l2.498-.286" style="fill:none;stroke:red;stroke-width:1.66666;stroke-linecap:round;stroke-linejoin:round;stroke-miterlimit:4;stroke-dasharray:none;stroke-opacity:1;visibility:visible" visibility="hidden"/><path d="M128.878 329.682h0l-.341.043s-5.676 3.977.595 7.604" style="fill:none;stroke:red;stroke-width:.999997;stroke-linecap:round;stroke-linejoin:round;stroke-miterlimit:4;stroke-dasharray:none;stroke-opacity:1;visibility:visible" visibility="hidden"/><path d="m186.437 322.811-6.897.796a6350.37 6350.37 0 0 0-38.682 4.599c-4.013.49-8.008.981-11.981 1.475" style="fill:none;stroke:red;stroke-width:1.66666;stroke-linecap:round;stroke-linejoin:round;stroke-miterlimit:4;stroke-dasharray:none;stroke-opacity:1;visibility:visible" visibility="hidden"/><path d="m186.437 322.811-6.897.796" style="fill:none;stroke:red;stroke-width:.999997;stroke-linecap:round;stroke-linejoin:round;stroke-miterlimit:4;stroke-dasharray:none;stroke-opacity:1;visibility:visible" visibility="hidden"/><path d="M246.262 316.218c-1.47.156-2.941.31-4.41.468-4.552.483-9.076.97-13.587 1.46a7744.8 7744.8 0 0 0-26.809 2.961c-4.199.474-8.376.946-12.536 1.423l-2.482.283M187.302 330.38l6.93-.79a6915.65 6915.65 0 0 1 33.154-3.663M232.197 325.407l.876-.094M237.223 324.869l1.288-.139M242.42 324.317l4.044-.427" style="fill:none;stroke:red;stroke-width:1.66666;stroke-linecap:round;stroke-linejoin:round;stroke-miterlimit:4;stroke-dasharray:none;stroke-opacity:1;visibility:visible" visibility="hidden"/><path d="M231.16 324.806c.02.276-.632.552-1.458.616-.824.064-1.512-.107-1.532-.381-.023-.276.629-.551 1.455-.616.825-.065 1.513.105 1.534.381h.001M236.535 324.306c.022.276-.63.552-1.455.616-.826.064-1.514-.107-1.535-.381-.022-.276.63-.551 1.455-.616.826-.065 1.514.105 1.535.381M241.973 323.775c.021.276-.63.552-1.456.616-.827.064-1.514-.106-1.535-.381-.021-.276.63-.55 1.456-.616.825-.064 1.513.107 1.535.381" style="fill:none;stroke:red;stroke-width:.666665;stroke-linecap:round;stroke-linejoin:round;stroke-miterlimit:4;stroke-dasharray:none;stroke-opacity:1;visibility:visible" visibility="hidden"/><path d="m186.437 322.811-6.897.796" style="fill:none;stroke:red;stroke-width:.999997;stroke-linecap:round;stroke-linejoin:round;stroke-miterlimit:4;stroke-dasharray:none;stroke-opacity:1;visibility:visible" visibility="hidden"/><path d="m242.42 324.317 3.842-8.099M232.197 325.407l-4.811.52M227.386 325.927l4.811-.52M237.223 324.869l-4.15.444M242.42 324.317l-3.909.413M237.223 324.869l9.241-.979" style="fill:none;stroke:red;stroke-width:1.66666;stroke-linecap:round;stroke-linejoin:round;stroke-miterlimit:4;stroke-dasharray:none;stroke-opacity:1;visibility:visible" visibility="hidden"/><path d="m236.535 324.306-5.375.5" style="fill:none;stroke:red;stroke-width:.666665;stroke-linecap:round;stroke-linejoin:round;stroke-miterlimit:4;stroke-dasharray:none;stroke-opacity:1;visibility:visible" visibility="hidden"/><path d="m315.62 286.925-.399.393M310.19 282.877a3.245 3.245 0 0 0 .48 2.006M310.669 284.883a1.241 1.241 0 0 0 .39.391M311.06 285.274a.287.287 0 0 0 .176.041.283.283 0 0 0 .229-.137M310.363 282.351a1.16 1.16 0 0 0-.173.526M310.766 282.254a.303.303 0 0 0-.172-.039.28.28 0 0 0-.23.138M310.88 282.338c-.034-.03-.076-.057-.114-.084M311.774 282.785a3.276 3.276 0 0 0 .479 2.002M311.95 282.26a1.181 1.181 0 0 0-.175.524M312.269 282.126a.28.28 0 0 0-.32.134M315.047 284.591l-.417-.528M314.57 283.051l.35-.57M314.63 284.063l-.059-1.012M313.78 279.847a3.023 3.023 0 0 0-.66 1.223M314.77 279.754a.733.733 0 0 0-.99.092M314.225 287.35a.756.756 0 0 0 .529.18.736.736 0 0 0 .466-.21M316.243 285.794a7.388 7.388 0 0 0-.277-4.64M315.65 286.895a2.81 2.81 0 0 0 .595-1.1" style="fill:none;stroke:#00ff4a;stroke-width:.666665;stroke-linecap:round;stroke-linejoin:round;stroke-miterlimit:2;stroke-dasharray:none;stroke-opacity:1;visibility:visible"/><path d="M313.426 286.214c.176.433.45.82.8 1.137M313.12 281.069a8.236 8.236 0 0 0 .304 5.145M330.946 291.658l-.399.393M326.207 287.071a1.867 1.867 0 0 0-.117-.084M327.1 287.518a3.28 3.28 0 0 0 .48 2.003M327.274 286.993a1.204 1.204 0 0 0-.175.525M327.594 286.86a.285.285 0 0 0-.319.134M326.386 290.007a.283.283 0 0 0 .173.043.283.283 0 0 0 .232-.14M325.69 287.085a1.176 1.176 0 0 0-.175.525" style="fill:none;stroke:#00ff4a;stroke-width:.666665;stroke-linecap:round;stroke-linejoin:round;stroke-miterlimit:2;stroke-dasharray:none;stroke-opacity:1;visibility:visible"/><path d="M326.091 286.987a.301.301 0 0 0-.171-.04.283.283 0 0 0-.23.138M325.515 287.61a2.987 2.987 0 0 0-.004.476c.032.544.195 1.067.484 1.53M325.995 289.617a1.232 1.232 0 0 0 .392.39M330.374 289.324l-.417-.528M329.898 287.784l.35-.57M329.957 288.796l-.059-1.012M328.446 285.802a8.232 8.232 0 0 0 .307 5.145M329.106 284.58a3.04 3.04 0 0 0-.66 1.22M330.097 284.487a.736.736 0 0 0-.992.093M329.551 292.083a.752.752 0 0 0 .529.18.736.736 0 0 0 .466-.209M331.568 290.527a7.36 7.36 0 0 0-.277-4.637M330.974 291.629c.279-.316.483-.696.595-1.102" style="fill:none;stroke:#00ff4a;stroke-width:.666665;stroke-linecap:round;stroke-linejoin:round;stroke-miterlimit:2;stroke-dasharray:none;stroke-opacity:1;visibility:visible"/><path d="M328.753 290.946c.176.434.45.82.8 1.137M259.717 279.602l-.399.395M254.285 275.551a3.25 3.25 0 0 0 .48 2.009M254.765 277.56a1.19 1.19 0 0 0 .395.39M255.16 277.95a.257.257 0 0 0 .166.043.293.293 0 0 0 .235-.138M254.458 275.027a1.24 1.24 0 0 0-.175.526M254.862 274.934a.317.317 0 0 0-.172-.044.29.29 0 0 0-.23.137M254.977 275.015a1.42 1.42 0 0 0-.115-.08M255.871 275.46a3.58 3.58 0 0 0-.008.476 3.333 3.333 0 0 0 .487 1.531M256.046 274.934a1.165 1.165 0 0 0-.175.526M256.365 274.805a.321.321 0 0 0-.087-.01.29.29 0 0 0-.232.139M259.144 277.272l-.417-.528M258.67 275.73l.35-.576M258.727 276.744l-.057-1.013M259.312 272.776l-.443-.344M260.06 273.829a2.707 2.707 0 0 0-.717-1.024M260.34 278.469a7.333 7.333 0 0 0-.28-4.642M259.743 279.574c.282-.316.487-.694.595-1.104M257.525 278.887c.173.44.448.826.795 1.138M257.217 273.746a8.16 8.16 0 0 0 .306 5.141M257.874 272.523a3.032 3.032 0 0 0-.657 1.223M258.869 272.433a.723.723 0 0 0-.495-.153.747.747 0 0 0-.5.243M258.32 280.025a.735.735 0 0 0 .997-.027M199.67 295.28l-.867-.056M199.367 300.272l-.865-.053M197.968 296.057a5.239 5.239 0 0 0-.362 1.602 5.193 5.193 0 0 0 .164 1.636M199.985 295.434a.444.444 0 0 0-.315-.152M200.4 296.202a1.876 1.876 0 0 0-.416-.77M199.697 300.16c.221-.198.396-.44.503-.718M195.953 300.382l2.127.125M196.291 294.756l2.132.13M197.417 295.989a2.188 2.188 0 0 0 1.006-1.103M198.08 300.509a2.152 2.152 0 0 0-.867-1.21M195.286 295.858l1.007-1.101M195.085 299.164l.2-3.307M198.97 295.233l-.228-.21M198.666 300.23l-.25.183M198.802 295.227a.456.456 0 0 0-.33.114M198.184 300.066a.457.457 0 0 0 .316.154M198.74 295.026a.493.493 0 0 0-.317-.139M198.08 300.509a.517.517 0 0 0 .335-.096M199 296.773a3.443 3.443 0 0 0 .23 2.17M199.23 298.945a1.307 1.307 0 0 0 .362.464M199.593 299.407a.303.303 0 0 0 .435-.046M199.256 296.242a1.26 1.26 0 0 0-.256.53M199.688 296.198a.308.308 0 0 0-.432.045M199.8 296.298a1.02 1.02 0 0 0-.111-.101M202.185 298.575a3.433 3.433 0 0 0-.23-2.17M201.929 299.103a1.243 1.243 0 0 0 .256-.528M200.68 296.889a3.455 3.455 0 0 0 .23 2.17M200.933 296.362a1.313 1.313 0 0 0-.255.528M201.285 296.269a.304.304 0 0 0-.09-.024.312.312 0 0 0-.263.115M197.769 299.295c.076.286.217.551.415.772" style="fill:none;stroke:#00ff4a;stroke-width:.666665;stroke-linecap:round;stroke-linejoin:round;stroke-miterlimit:2;stroke-dasharray:none;stroke-opacity:1;visibility:visible"/><path d="M198.473 295.34a1.933 1.933 0 0 0-.505.718" style="fill:none;stroke:#00ff4a;stroke-width:.666665;stroke-linecap:round;stroke-linejoin:round;stroke-miterlimit:2;stroke-dasharray:none;stroke-opacity:1;visibility:visible"/><path d="m255.879 318.074-.865-32.393M262.228 555.811l-6.277-235.118M245.456 285.723l.823 30.484M246.416 323.905l6.196 232.158M255.013 285.68c-.003-.702-.008-1.406.025-2.09a19.12 19.12 0 0 1 .16-1.73c.065-.478.148-.938.239-1.387.077-.372.165-.736.266-1.072.02-.066.04-.131.063-.194M246.915 275.518a16.288 16.288 0 0 0-.57 1.896 33.344 33.344 0 0 0-.486 2.31 27.23 27.23 0 0 0-.328 2.772 51.76 51.76 0 0 0-.076 3.231M262.483 265.671c-.56-.133-1.123-.268-1.689-.349a10.736 10.736 0 0 0-1.475-.102 11.344 11.344 0 0 0-2.753.326 11.008 11.008 0 0 0-1.273.397 12.159 12.159 0 0 0-1.863.9 12.436 12.436 0 0 0-2.115 1.597 14.557 14.557 0 0 0-2.018 2.327l-.047.071" style="fill:none;stroke:#00ff4a;stroke-width:1.66666;stroke-linecap:round;stroke-linejoin:round;stroke-miterlimit:4;stroke-dasharray:none;stroke-opacity:1;visibility:visible"/><path d="M256.29 277.765c.04-.1.084-.199.125-.29.028-.058.058-.11.083-.165" style="fill:none;stroke:#00ff4a;stroke-width:.999997;stroke-linecap:round;stroke-linejoin:round;stroke-miterlimit:4;stroke-dasharray:none;stroke-opacity:1;visibility:visible"/><path d="m312.085 280.814-49.543-15.128M326.405 285.187l-9.147-2.792M324.107 294.34l-62.42-18.972M401.971 570.483l-42.519-265.995M350.248 306.61l42.39 265.36M338.07 286.622c-.73-.017-1.464-.032-2.176-.062a65.085 65.085 0 0 1-3.288-.237" style="fill:none;stroke:#00ff4a;stroke-width:1.66666;stroke-linecap:round;stroke-linejoin:round;stroke-miterlimit:4;stroke-dasharray:none;stroke-opacity:1;visibility:visible"/><path d="M324.134 294.351a33.407 33.407 0 0 0 3.428.789 51.967 51.967 0 0 0 4.15.565 71.966 71.966 0 0 0 4.429.294c.822.028 1.654.042 2.487.054" style="fill:none;stroke:#00ff4a;stroke-width:.999997;stroke-linecap:round;stroke-linejoin:round;stroke-miterlimit:4;stroke-dasharray:none;stroke-opacity:1;visibility:visible"/><path d="M252.909 557.623c-.006.046-.006.09-.006.136a.89.89 0 0 0 .12.364 1.277 1.277 0 0 0 .431.461c.097.067.195.117.295.161.136.063.277.11.437.155.117.029.248.053.376.08M260.434 558.823l.07-.014c.21-.049.379-.109.541-.177.14-.06.273-.124.402-.21.086-.061.171-.127.251-.21a1.51 1.51 0 0 0 .204-.279.96.96 0 0 0 .117-.363c.006-.062-.002-.127-.006-.193M338.628 296.053c.466.033.935.065 1.398.133.421.061.838.152 1.25.261a12.6 12.6 0 0 1 2.04.743c.346.163.69.344 1.024.539.264.157.527.325.78.501a12.897 12.897 0 0 1 1.356 1.096 12.383 12.383 0 0 1 2.38 3.05c.215.401.41.812.585 1.232.193.462.359.932.482 1.413.139.522.232 1.056.324 1.588M359.452 304.487c-.172-.816-.345-1.633-.576-2.433-.21-.728-.469-1.44-.764-2.14a22.853 22.853 0 0 0-.876-1.844 22.348 22.348 0 0 0-1.825-2.853 22.017 22.017 0 0 0-3.603-3.735 21.49 21.49 0 0 0-3.933-2.55 21.733 21.733 0 0 0-2.003-.886 22.46 22.46 0 0 0-2.309-.74 19.66 19.66 0 0 0-2.61-.506c-.959-.115-1.921-.146-2.886-.178" style="fill:none;stroke:#00ff4a;stroke-width:1.66666;stroke-linecap:round;stroke-linejoin:round;stroke-miterlimit:4;stroke-dasharray:none;stroke-opacity:1;visibility:visible"/><path d="m252.853 556.059.041 1.565M262.03 557.382l-.041-1.565" style="fill:none;stroke:#00ff4a;stroke-width:.999997;stroke-linecap:round;stroke-linejoin:round;stroke-miterlimit:4;stroke-dasharray:none;stroke-opacity:1;visibility:visible"/><path d="m400.746 573.388.192-.057a2.559 2.559 0 0 0 .622-.279 1.052 1.052 0 0 0 .344-.396.835.835 0 0 0 .099-.323 1.453 1.453 0 0 0-.021-.262M393.119 573.487c.016.088.03.18.067.26a.825.825 0 0 0 .178.263 1.23 1.23 0 0 0 .206.165.885.885 0 0 0 .196.09.928.928 0 0 0 .186.052 1.145 1.145 0 0 0 .212.031c.119.01.236.013.372.01.131-.001.28-.009.431-.013M392.859 571.939l.247 1.55" style="fill:none;stroke:#00ff4a;stroke-width:1.66666;stroke-linecap:round;stroke-linejoin:round;stroke-miterlimit:4;stroke-dasharray:none;stroke-opacity:1;visibility:visible"/><path d="m401.996 572.067-.248-1.547" style="fill:none;stroke:#00ff4a;stroke-width:.999997;stroke-linecap:round;stroke-linejoin:round;stroke-miterlimit:4;stroke-dasharray:none;stroke-opacity:1;visibility:visible"/><path d="M100.952 572.357c.084.066.166.131.242.18a1.085 1.085 0 0 0 .2.096l.053.019M108.746 573.237l.127-.03a1.125 1.125 0 0 0 .488-.303.917.917 0 0 0 .187-.281 1.43 1.43 0 0 0 .072-.307M100.641 571.53l-.005.022a.68.68 0 0 0 .044.379 1.096 1.096 0 0 0 .133.265 1.373 1.373 0 0 0 .139.161M394.636 574.357c1.65.016 4.614-.456 6.175-.984" style="fill:none;stroke:#00ff4a;stroke-width:1.66666;stroke-linecap:round;stroke-linejoin:round;stroke-miterlimit:4;stroke-dasharray:none;stroke-opacity:1;visibility:visible"/><path d="m100.77 569.973-.135 1.565M109.63 572.3l.133-1.563" style="fill:none;stroke:#00ff4a;stroke-width:.999997;stroke-linecap:round;stroke-linejoin:round;stroke-miterlimit:4;stroke-dasharray:none;stroke-opacity:1;visibility:visible"/><path d="M102.313 572.885c1.39.331 4.01.552 5.437.462" style="fill:none;stroke:#00ff4a;stroke-width:1.66666;stroke-linecap:round;stroke-linejoin:round;stroke-miterlimit:4;stroke-dasharray:none;stroke-opacity:1;visibility:visible"/><path d="m208.435 588.246-.01 1.55" style="fill:none;stroke:#00ff4a;stroke-width:.999997;stroke-linecap:round;stroke-linejoin:round;stroke-miterlimit:4;stroke-dasharray:none;stroke-opacity:1;visibility:visible"/><path d="m217.294 589.85.008-1.547M302.79 288.327a955.472 955.472 0 0 1-6.228 1.116 507.705 507.705 0 0 1-9.183 1.497 574.733 574.733 0 0 1-18.309 2.557c-1.408.172-2.81.337-4.213.503M265.889 302.885c1.62-.192 3.241-.383 4.864-.585 3.073-.375 6.149-.782 9.227-1.214a620.536 620.536 0 0 0 18.507-2.875 648.81 648.81 0 0 0 9.274-1.66 597.787 597.787 0 0 0 9.282-1.809c1.327-.268 2.65-.544 3.977-.819M245.726 295.89c-1.284.11-2.567.221-3.85.324a425.026 425.026 0 0 1-9.059.617 609.526 609.526 0 0 1-9.036.471 499.887 499.887 0 0 1-12.139.401M264.857 294.002c-1.597.184-3.192.368-4.787.536-1.603.17-3.205.327-4.807.483M255.502 303.977c1.933-.188 3.87-.374 5.808-.58 1.524-.163 3.05-.338 4.577-.512M211.282 306.618c1.443-.032 2.885-.065 4.33-.105 3.025-.08 6.056-.194 9.09-.328 3.035-.136 6.075-.298 9.118-.476a417.558 417.558 0 0 0 12.142-.876M209.349 590.768c1.828.364 5.174.385 7.005.044M208.437 589.805a1.143 1.143 0 0 0 .021.246.773.773 0 0 0 .122.273 1.248 1.248 0 0 0 .16.184.78.78 0 0 0 .163.115.687.687 0 0 0 .138.067c.039.019.074.027.109.037M216.569 590.768h.01a1.073 1.073 0 0 0 .161-.06.965.965 0 0 0 .519-.612 1.227 1.227 0 0 0 .022-.243M134.89 293.428l110.892-13.05" style="fill:none;stroke:#00ff4a;stroke-width:1.66666;stroke-linecap:round;stroke-linejoin:round;stroke-miterlimit:4;stroke-dasharray:none;stroke-opacity:1;visibility:visible"/><path d="M133.493 284.543s-5.275 4.088 1.365 9.087" style="fill:none;stroke:#00ff4a;stroke-width:.999997;stroke-linecap:round;stroke-linejoin:round;stroke-miterlimit:4;stroke-dasharray:none;stroke-opacity:1;visibility:visible"/><path d="m249.251 270.835-115.756 13.707" style="fill:none;stroke:#00ff4a;stroke-width:1.66666;stroke-linecap:round;stroke-linejoin:round;stroke-miterlimit:4;stroke-dasharray:none;stroke-opacity:1;visibility:visible"/><path d="m321.175 293.768 1.525.452M333.306 296.463a10.713 10.713 0 0 0 3.348.457c.418-.01.836-.046 1.25-.106a8.831 8.831 0 0 0 1.223-.25 15.8 15.8 0 0 0 1.048-.345M322.69 294.215c.476.128.95.255 1.452.366.415.092.847.173 1.285.249a65.573 65.573 0 0 0 1.81.288l.549.083.514.069.49.07a19.08 19.08 0 0 1 1.29.235 27.459 27.459 0 0 1 2.016.522c.409.118.794.237 1.18.358" style="fill:none;stroke:#00ff4a;stroke-width:.999997;stroke-linecap:round;stroke-linejoin:round;stroke-miterlimit:4;stroke-dasharray:none;stroke-opacity:1;visibility:visible"/><path d="M342.672 275.291a24.804 24.804 0 0 1 .008 2.25 23.144 23.144 0 0 1-.522 4.168 20.877 20.877 0 0 1-.319 1.25 16.355 16.355 0 0 1-.379 1.158c-.137.366-.282.72-.434 1.053a10.648 10.648 0 0 1-.476.94c-.129.225-.262.433-.395.641M347.624 288.822c.096-.184.191-.37.28-.557.23-.483.427-.99.619-1.51a27.74 27.74 0 0 0 .959-3.248 30.201 30.201 0 0 0 .57-3.473 34.245 34.245 0 0 0 .186-3.607 60.542 60.542 0 0 0-.034-1.47M341.008 237.786l1.667 37.503M350.205 274.955l-1.668-37.505M348.536 237.452c-.012-.255-.018-.512-.025-.767-.008-.497-.001-.99.017-1.476.018-.463.044-.917.092-1.367a5.58 5.58 0 0 1 .031-.332M341.158 232.71c-.03.318-.06.636-.086.956a31.057 31.057 0 0 0-.09 1.804 36.145 36.145 0 0 0 .025 2.318M348.838 160.933l-7.68 71.776M348.652 233.51l7.663-71.776" style="fill:none;stroke:#00ff4a;stroke-width:1.66666;stroke-linecap:round;stroke-linejoin:round;stroke-miterlimit:4;stroke-dasharray:none;stroke-opacity:1;visibility:visible"/><path d="m191.634 300.654 18.253 4.92M213.55 306.562l.736.199M212.722 297.675l-20.51-5.55" style="fill:none;stroke:#00ff4a;stroke-width:.999997;stroke-linecap:round;stroke-linejoin:round;stroke-miterlimit:4;stroke-dasharray:none;stroke-opacity:1;visibility:visible"/><path d="M233.267 288.118c.008.25.02.503.027.753a24.072 24.072 0 0 1-.29 4.259c-.07.447-.159.887-.257 1.31a20.845 20.845 0 0 1-.337 1.235 10.561 10.561 0 0 1-.396 1.146.494.494 0 0 1-.024.053M214.291 306.753a183.845 183.845 0 0 0 2.646.685l.806.2.531.132.49.12.601.15.675.168.543.137c.132.033.257.062.387.098.159.047.33.099.499.158.256.086.513.176.781.264.361.114.737.221 1.116.329M239.966 296.343l.052-.185c.144-.552.248-1.125.337-1.705a29.944 29.944 0 0 0 .38-3.528 36.03 36.03 0 0 0 .035-1.803c-.008-.464-.027-.927-.043-1.39" style="fill:none;stroke:#00ff4a;stroke-width:1.66666;stroke-linecap:round;stroke-linejoin:round;stroke-miterlimit:4;stroke-dasharray:none;stroke-opacity:1;visibility:visible"/><path d="M223.326 309.183c.27.067.54.134.81.188.439.09.881.15 1.325.186a11.337 11.337 0 0 0 3.871-.347c.414-.112.826-.247 1.229-.405a12.45 12.45 0 0 0 2.329-1.218c.369-.25.729-.522 1.08-.81a9.602 9.602 0 0 0 1.033-.938l.203-.226M231.35 250.98l1.128 21.841M232.945 281.891l.323 6.224M240.728 287.73l-.348-6.715M239.912 271.941l-1.103-21.347M231.493 245.912c-.03.318-.064.638-.09.956a31.513 31.513 0 0 0-.053 4.114M238.809 250.597a22.925 22.925 0 0 1-.016-2.208 23.213 23.213 0 0 1 .122-1.659M239.336 174.753l-7.843 71.156M238.916 246.727l7.827-71.158M123.69 299.978l-23.139 269.975M116.549 494.043l13.423-156.862M130.632 329.464l2.524-29.49M109.983 570.757l6.552-76.56M126.36 289.578c-.084.172-.168.343-.251.517a21.29 21.29 0 0 0-.693 1.706 29.293 29.293 0 0 0-1.446 5.692c-.12.821-.2 1.654-.28 2.49M143.757 279.76a21.173 21.173 0 0 0-1.83-.334 11.881 11.881 0 0 0-1.524-.083 12.948 12.948 0 0 0-3.651.54 14.413 14.413 0 0 0-.618.197 14.415 14.415 0 0 0-2.797 1.335 14.996 14.996 0 0 0-1.319.912 18.83 18.83 0 0 0-1.23 1.046 12.4 12.4 0 0 0-1.564 1.677M133.154 299.975c.07-.55.139-1.1.231-1.635a19.648 19.648 0 0 1 .901-3.349c.09-.238.184-.466.276-.696.094-.23.19-.46.298-.664.04-.073.08-.141.122-.211M151.16 291.513l59.613 15.964M191.668 292.644l-15.255-4.101M152.967 282.236l-9.179-2.468M209.9 327.839l-1.688 260.407M217.526 588.303l1.699-261.49" style="fill:none;stroke:#00ff4a;stroke-width:1.66666;stroke-linecap:round;stroke-linejoin:round;stroke-miterlimit:4;stroke-dasharray:none;stroke-opacity:1;visibility:visible"/><path d="M210.767 307.477a24.79 24.79 0 0 1 1.242.363l.351.113c.085.026.15.045.206.06.048.014.087.024.085.006l-.001-.008M219.607 308.747l.435-.544" style="fill:none;stroke:#00ff4a;stroke-width:.999997;stroke-linecap:round;stroke-linejoin:round;stroke-miterlimit:4;stroke-dasharray:none;stroke-opacity:1;visibility:visible"/><path d="M219.3 319.129a99.796 99.796 0 0 1 .177-4.339 106.666 106.666 0 0 1 .148-2.052l.045-.512.057-.613.075-.727.085-.78.09-.757.076-.646c.024-.198.041-.352.046-.433.004-.07-.004-.083-.006-.095M210.869 307.505c-.08.494-.159.992-.23 1.533a47.71 47.71 0 0 0-.169 1.497c-.023.211-.045.427-.064.645a62.096 62.096 0 0 0-.101 1.173 123.304 123.304 0 0 0-.127 1.814 161.496 161.496 0 0 0-.143 2.94 111.266 111.266 0 0 0-.057 1.931c-.008.37-.013.747-.018 1.121" style="fill:none;stroke:#00ff4a;stroke-width:1.66666;stroke-linecap:round;stroke-linejoin:round;stroke-miterlimit:4;stroke-dasharray:none;stroke-opacity:1;visibility:visible"/><path d="M261.997 556.101c.033-.024.072-.044.102-.065a.293.293 0 0 0 .119-.159.227.227 0 0 0-.013-.156.439.439 0 0 0-.145-.146 1.372 1.372 0 0 0-.27-.14 4.46 4.46 0 0 0-.39-.128 11.13 11.13 0 0 0-.496-.107 10.305 10.305 0 0 0-.594-.088 14.767 14.767 0 0 0-1.403-.104 15 15 0 0 0-.77-.018c-.262-.003-.528 0-.792.007-.265.011-.528.02-.791.036a26.07 26.07 0 0 0-.763.06 15.757 15.757 0 0 0-.713.084c-.235.031-.45.067-.668.104M254.41 555.281a12.747 12.747 0 0 0-.579.126 3.992 3.992 0 0 0-.48.133 4.03 4.03 0 0 0-.365.145 1.152 1.152 0 0 0-.245.156.364.364 0 0 0-.118.156.205.205 0 0 0 .014.16.356.356 0 0 0 .143.147l.08.041M255.722 319.675l-.004.101-.06.278-.107.25-.141.214-.172.168-.188.116-.196.058-.192-.004-.18-.068-.157-.124-.131-.177-.105-.223-.082-.256-.057-.282-.039-.299-.016-.304.006-.295.024-.272.046-.242.068-.198.094-.154.117-.103.141-.048.164.007M255.177 318.222l.028.033" style="fill:none;stroke:#00ff4a;stroke-width:.999997;stroke-linecap:round;stroke-linejoin:round;stroke-miterlimit:4;stroke-dasharray:none;stroke-opacity:1;visibility:visible"/><path d="m254.554 317.82.183.062.193.12.195.164a1.061 1.061 0 0 1 .052.057M401.816 570.619l-.04.016M392.877 572.053l-.113-.01-.116-.047.009-.074.133-.085.259-.104.376-.117.48-.131.575-.135.65-.138.714-.138.749-.136.77-.125.769-.117.745-.099.701-.083.64-.065.559-.044.465-.016h.362l.24.024.117.05-.008.066-.052.043-.085.046" style="fill:none;stroke:#00ff4a;stroke-width:.999997;stroke-linecap:round;stroke-linejoin:round;stroke-miterlimit:4;stroke-dasharray:none;stroke-opacity:1;visibility:visible"/><path d="M254.663 558.995c1.5.31 4.183.24 5.664-.148" style="fill:none;stroke:#00ff4a;stroke-width:1.66666;stroke-linecap:round;stroke-linejoin:round;stroke-miterlimit:4;stroke-dasharray:none;stroke-opacity:1;visibility:visible"/><path d="m258.888 555.048.816.052.727.087.613.112.475.134.314.156.146.172.012.055M252.853 556.059l.039-.123.201-.174.37-.172.52-.156.654-.135.759-.112.84-.087.881-.052.899-.017.872.017" style="fill:none;stroke:#00ff4a;stroke-width:.999997;stroke-linecap:round;stroke-linejoin:round;stroke-miterlimit:4;stroke-dasharray:none;stroke-opacity:1;visibility:visible"/><path d="m400.812 573.371-.035.01-.014.003" style="fill:none;stroke:#00ff4a;stroke-width:1.66666;stroke-linecap:round;stroke-linejoin:round;stroke-miterlimit:4;stroke-dasharray:none;stroke-opacity:1;visibility:visible"/><path d="m392.859 571.939.003-.024.12-.093.288-.115.44-.137.581-.15.696-.156.787-.156.842-.15.872-.144.863-.126.823-.109.752-.077.649-.052.525-.027.379.008.217.039.052.05" style="fill:none;stroke:#00ff4a;stroke-width:.999997;stroke-linecap:round;stroke-linejoin:round;stroke-miterlimit:4;stroke-dasharray:none;stroke-opacity:1;visibility:visible"/><path d="M107.748 573.347a4.34 4.34 0 0 0 .788-.071M102.313 572.884l-.4-.088-.34-.105" style="fill:none;stroke:#00ff4a;stroke-width:1.66666;stroke-linecap:round;stroke-linejoin:round;stroke-miterlimit:4;stroke-dasharray:none;stroke-opacity:1;visibility:visible"/><path d="M102.317 569.743c-.444-.104-1.155.002-1.547.232M102.767 569.74l.285.005.806.031.86.052.882.07.87.093.822.101.746.115.637.118.507.123.357.115.192.109.033.065M208.435 588.246l.083.039.249.04.405.036.548.028.671.032.765.022.832.016.866.011h.865l.832-.005.77-.016.673-.018.554-.024.412-.033.255-.032.088-.039" style="fill:none;stroke:#00ff4a;stroke-width:.999997;stroke-linecap:round;stroke-linejoin:round;stroke-miterlimit:4;stroke-dasharray:none;stroke-opacity:1;visibility:visible"/><path d="M208.995 588.253c2.002.3 5.743.327 7.748.05" style="fill:none;stroke:#00ff4a;stroke-width:.999997;stroke-linecap:round;stroke-linejoin:round;stroke-miterlimit:4;stroke-dasharray:none;stroke-opacity:1;visibility:visible"/><path d="M209.254 590.75c1.853.24 5.35.259 7.204.043" style="fill:none;stroke:#00ff4a;stroke-width:1.66666;stroke-linecap:round;stroke-linejoin:round;stroke-miterlimit:4;stroke-dasharray:none;stroke-opacity:1;visibility:visible"/><path d="M335.583 295.973a1.89 1.89 0 0 1-1.353.573c-.324.005-.63-.063-.94-.13M322.7 294.222a.413.413 0 0 0 .44-.172M211.282 306.605a3.64 3.64 0 0 1-.537-.023 1.06 1.06 0 0 1-.495-.204.91.91 0 0 1-.304-.46 2.036 2.036 0 0 1-.084-.492 5.053 5.053 0 0 1-.002-.605l.01-.203M209.869 304.618c.036-.416.07-.833.125-1.301a82.688 82.688 0 0 1 .34-2.555 36 36 0 0 1 .17-1.061c.061-.341.124-.641.194-.898.079-.303.165-.549.284-.725a1.09 1.09 0 0 1 .233-.252.453.453 0 0 1 .34-.116l.086.01" style="fill:none;stroke:#00ff4a;stroke-width:.999997;stroke-linecap:round;stroke-linejoin:round;stroke-miterlimit:4;stroke-dasharray:none;stroke-opacity:1;visibility:visible"/><path d="m348.838 160.933.057-.15.227-.203.387-.168.532-.124.65-.078.738-.022.793.03.81.083.785.13.729.171.639.21.516.23.368.246.206.248.039.198" style="fill:none;stroke:#00ff4a;stroke-width:1.66666;stroke-linecap:round;stroke-linejoin:round;stroke-miterlimit:4;stroke-dasharray:none;stroke-opacity:1;visibility:visible"/><path d="m192.064 292.652.488.61.373.737.244.841.106.908-.039.944-.179.945-.313.91-.436.842-.543.739" style="fill:none;stroke:#00ff4a;stroke-width:.999997;stroke-linecap:round;stroke-linejoin:round;stroke-miterlimit:4;stroke-dasharray:none;stroke-opacity:1;visibility:visible"/><path d="m191.765 300.128-.004.005v.012l.001.006.003.004h.01l.005-.004M191.78 300.15l.545-.745.439-.846.316-.914.181-.954.038-.95-.106-.916-.246-.843-.375-.744-.49-.613M192.08 292.626l-.004-.001h-.005l-.006.001-.002.003-.003.006-.001.008.001.006.003.004M192.123 292.669l-.059-.017M214.286 306.762a.383.383 0 0 0 .384-.148M214.553 306.708l.117-.1" style="fill:none;stroke:#00ff4a;stroke-width:.999997;stroke-linecap:round;stroke-linejoin:round;stroke-miterlimit:4;stroke-dasharray:none;stroke-opacity:1;visibility:visible"/><path d="M246.742 175.57v-.017l-.076-.238-.244-.245-.403-.24-.542-.224-.656-.2-.744-.163-.787-.12-.8-.07-.776-.022-.712.035-.619.081-.494.134-.346.173-.184.205-.024.095" style="fill:none;stroke:#00ff4a;stroke-width:1.66666;stroke-linecap:round;stroke-linejoin:round;stroke-miterlimit:4;stroke-dasharray:none;stroke-opacity:1;visibility:visible"/><path d="m116.54 494.145.019-.23.017-.207.01-.191.006-.159-.008-.125-.023-.083-.094-.041-.07.05-.078.09-.088.13-.087.165-.079.186-.069.215-.05.224-.03.233-.008.23.017.216.036.19.052.164.064.131.068.088.132.039.058-.044.046-.094.039-.133.032-.167.047-.416.021-.229.02-.232M210.773 307.48c.992.29 2.365-.084 3.072-.839M100.757 570.125a.155.155 0 0 1-.027-.01.32.32 0 0 1-.149-.096c-.024-.03-.036-.059-.023-.087.012-.025.05-.05.106-.072a1.4 1.4 0 0 1 .23-.063 6.653 6.653 0 0 1 .803-.073c.175-.008.37-.01.564-.013M102.261 569.71a31.841 31.841 0 0 1 1.349.03c.243.009.494.025.75.04a35.947 35.947 0 0 1 2.318.21c.247.027.489.06.722.09.23.032.453.065.664.103a13.393 13.393 0 0 1 1.081.21c.148.034.277.07.388.107.11.03.201.068.273.1a.504.504 0 0 1 .148.095c.028.029.034.06.022.084-.012.03-.042.051-.107.077a1.696 1.696 0 0 1-.108.027M217.007 510.512l-.164.003-.17.046-.171.099-.162.144-.144.175-.12.208-.086.232-.048.246-.006.254.038.246.077.235.112.205.139.178.157.141.168.093.17.05.166-.003.152-.05.135-.095.113-.144.092-.178.07-.213.045-.232.025-.25.004-.251-.017-.248-.04-.232-.063-.206-.084-.177-.11-.136-.129-.096-.149-.044M246.175 316.34s2.903 3.69.11 7.358M212.502 308.102a4.579 4.579 0 0 0 7.595.039M217.511 588.305c0 .008 0 .016-.016.022a.613.613 0 0 1-.15.033 12.267 12.267 0 0 1-1.146.079l-.579.02c-.209.005-.427.01-.657.013-.229.005-.466.005-.712.008-.245.003-.497.003-.75.003-.255 0-.512 0-.768-.003-.258-.003-.514-.003-.766-.008a63.499 63.499 0 0 1-.74-.013l-.697-.02a38.478 38.478 0 0 1-.633-.022 22.59 22.59 0 0 1-.55-.027c-.17-.009-.321-.022-.455-.03-.133-.01-.249-.024-.345-.033a3.299 3.299 0 0 1-.226-.032c-.059-.011-.103-.023-.103-.035 0-.004.003-.007.008-.012" style="fill:none;stroke:#00ff4a;stroke-width:.999997;stroke-linecap:round;stroke-linejoin:round;stroke-miterlimit:4;stroke-dasharray:none;stroke-opacity:1;visibility:visible"/><path d="M129.224 285.05s-1.93 2.013-2.864 4.528M248.83 271.623s-.597.863-1.928 3.924M408.427 625.023l1.213 23.38" style="fill:none;stroke:#00ff4a;stroke-width:1.66666;stroke-linecap:round;stroke-linejoin:round;stroke-miterlimit:4;stroke-dasharray:none;stroke-opacity:1;visibility:visible"/><path d="m313.424 286.214 2.542-5.06M328.753 290.947l2.538-5.057M198.5 300.22l-2.547.162M209.87 304.618l-14.785-5.454" style="fill:none;stroke:#00ff4a;stroke-width:.666665;stroke-linecap:round;stroke-linejoin:round;stroke-miterlimit:2;stroke-dasharray:none;stroke-opacity:1;visibility:visible"/><path d="m255.879 318.074.072 2.619M256.29 277.765l-.524 1.442M317.258 282.395l-5.173-1.581M324.134 294.351l2.271-9.164M312.269 282.126l4.989.269M256.365 274.805l5.322.563M338.628 296.053l-6.022-9.73M255.263 295.021l-9.537.869M245.726 295.89l9.537-.869M245.962 304.833l9.54-.856M255.502 303.977l-9.54.856M255.263 295.021l-9.481-14.642M330.247 287.215l9.908-.464M330.247 287.215l17.377 1.607" style="fill:none;stroke:#00ff4a;stroke-width:1.66666;stroke-linecap:round;stroke-linejoin:round;stroke-miterlimit:4;stroke-dasharray:none;stroke-opacity:1;visibility:visible"/><path d="m213.55 306.562-.828-8.887" style="fill:none;stroke:#00ff4a;stroke-width:.999997;stroke-linecap:round;stroke-linejoin:round;stroke-miterlimit:4;stroke-dasharray:none;stroke-opacity:1;visibility:visible"/><path d="m219.607 308.747 15.599-3.134M232.945 281.891l-.467-9.07M232.478 272.821l.467 9.07M245.455 285.727l-5.075-4.712M240.38 281.015l-.468-9.074M130.632 329.464l-.66 7.717M129.972 337.18l.66-7.716M152.967 282.236l-1.807 9.277M192.08 292.626l-15.667-4.083M151.16 291.513l1.807-9.277M209.96 320.159l-.06 7.68M219.3 319.129l-.075 7.684M219.225 326.813l.075-7.684M209.9 327.839l.06-7.68" style="fill:none;stroke:#00ff4a;stroke-width:1.66666;stroke-linecap:round;stroke-linejoin:round;stroke-miterlimit:4;stroke-dasharray:none;stroke-opacity:1;visibility:visible"/><path d="m255.879 318.074-.157 1.601M330.974 291.629l4.609 4.344" style="fill:none;stroke:#00ff4a;stroke-width:.999997;stroke-linecap:round;stroke-linejoin:round;stroke-miterlimit:4;stroke-dasharray:none;stroke-opacity:1;visibility:visible"/></svg>