<svg xmlns="http://www.w3.org/2000/svg" baseProfile="full" height="1122.52" preserveAspectRatio="xMinYMin meet" style="width:912px;height:1303px" width="793.701" xml:space="preserve"><path d="m643.417 501.463 2.195 32.2s.8 13.533-13.535 17.967c0 0-6.613.8-10.799 3.04l-28.3 5.898s-.286.295-.011.82c.001 0 1.726 3.75-.274 6.125 0 0-.7.55.099 1.127l28.25-5.827s1.5-1 4.5-1.476l9.75-2.174s18.006-4.067 18.45-25.834l-2.249-34.065 10.6-69.552c-.9-1.298-3.701-1.749-3.701-1.749-4.05-.6-4.447.7-4.447.7l-10.352 67.977s-.35 2.972-.176 4.823" style="fill:none;stroke:red;stroke-width:1.6;stroke-linecap:round;stroke-linejoin:round;stroke-miterlimit:4;stroke-dasharray:none;stroke-opacity:1;visibility:visible" visibility="hidden"/><path d="M654.242 429.063s2.15 2.45 7.451 1.3M621.444 554.796s2.301 4.8-.232 7.8" style="fill:none;stroke:red;stroke-width:.999997;stroke-linecap:round;stroke-linejoin:round;stroke-miterlimit:4;stroke-dasharray:none;stroke-opacity:1;visibility:visible" visibility="hidden"/><path d="M596.819 564.388s.874-1.35 1.924-.225c0 0 .6.976-.674 1.9.001 0-1.301.774-1.601-.275 0 0-.124-.65.35-1.4h.001M617.492 560.139s.874-1.35 1.924-.226c0 0 .602.977-.674 1.9 0 0-1.3.775-1.6-.273-.001-.001-.125-.651.349-1.401h.001" style="fill:none;stroke:red;stroke-width:.666665;stroke-linecap:round;stroke-linejoin:round;stroke-miterlimit:4;stroke-dasharray:none;stroke-opacity:1;visibility:visible" visibility="hidden"/><path d="m617.492 560.139 3.952-5.343" style="fill:none;stroke:red;stroke-width:.999997;stroke-linecap:round;stroke-linejoin:round;stroke-miterlimit:4;stroke-dasharray:none;stroke-opacity:1;visibility:visible" visibility="hidden"/><path d="M627.577 633.024a7.408 7.408 0 0 0 2.428-4.024M626.452 633.601c.416-.101.8-.301 1.125-.577M624.996 631.759a3.064 3.064 0 0 0 .013 1.404M627.686 627.303a8.235 8.235 0 0 0-2.692 4.457M628.932 626.661a3.056 3.056 0 0 0-1.247.64M629.812 627.155a.741.741 0 0 0-.879-.495M625.008 633.163a.733.733 0 0 0 .844.546M629.984 627.695l-.172-.54M627.225 630.663l.53-.876M627.756 629.787l.618-.278M627.268 631.341l-.043-.678M624.21 627.128a3.264 3.264 0 0 0-.75 1.945M623.458 629.073a1.245 1.245 0 0 0 .106.55M623.565 629.624a.293.293 0 0 0 .388.15M624.656 626.79a1.259 1.259 0 0 0-.447.337M625.042 626.939a.32.32 0 0 0-.114-.134.293.293 0 0 0-.272-.015M625.092 627.073a.984.984 0 0 0-.05-.133M625.585 627.959a3.264 3.264 0 0 0-.75 1.941M626.03 627.62a1.196 1.196 0 0 0-.446.339M626.368 627.695a.275.275 0 0 0-.066-.06.293.293 0 0 0-.272-.015M626.412 633.61l-.56.1M559.693 652.983a2.74 2.74 0 0 0-.013-1.264M557.265 657.006a7.414 7.414 0 0 0 1.54-1.815 7.408 7.408 0 0 0 .888-2.208M556.14 657.584a2.746 2.746 0 0 0 1.125-.577M554.68 655.742a3.101 3.101 0 0 0 .016 1.404M557.37 651.284a8.31 8.31 0 0 0-1.704 2.012 8.327 8.327 0 0 0-.986 2.446M558.62 650.644a3.09 3.09 0 0 0-1.25.64M559.5 651.139a.739.739 0 0 0-.88-.495M554.696 657.146a.73.73 0 0 0 .844.547M559.672 651.677l-.172-.537M556.912 654.646l.53-.876M557.444 653.768l.619-.276M556.955 655.322l-.043-.677M553.896 651.11a3.28 3.28 0 0 0-.75 1.947M553.147 653.056a1.227 1.227 0 0 0 .102.55M553.25 653.607a.293.293 0 0 0 .39.149M554.343 650.772a1.224 1.224 0 0 0-.447.338M554.73 650.921a.301.301 0 0 0-.12-.133.285.285 0 0 0-.266-.016M554.781 651.056a.923.923 0 0 0-.05-.136M555.268 651.94a3.307 3.307 0 0 0-.747 1.944M555.715 651.603a1.275 1.275 0 0 0-.447.337M556.056 651.677a.293.293 0 0 0-.341-.074M556.096 657.592l-.556.1" style="fill:none;stroke:#00ff4a;stroke-width:.666665;stroke-linecap:round;stroke-linejoin:round;stroke-miterlimit:2;stroke-dasharray:none;stroke-opacity:1;visibility:visible"/><path d="M630.005 629.001c.096-.417.09-.85-.013-1.264" style="fill:none;stroke:#00ff4a;stroke-width:.666665;stroke-linecap:round;stroke-linejoin:round;stroke-miterlimit:2;stroke-dasharray:none;stroke-opacity:1;visibility:visible"/><path d="m471.625 597.54 78.519 47.43" style="fill:none;stroke:#00ff4a;stroke-width:1.6;stroke-linecap:round;stroke-linejoin:round;stroke-miterlimit:4;stroke-dasharray:none;stroke-opacity:1;visibility:visible"/><path d="M466.919 604.272c-5.903-9.039 4.706-6.733 4.706-6.733" style="fill:none;stroke:#00ff4a;stroke-width:.999997;stroke-linecap:round;stroke-linejoin:round;stroke-miterlimit:4;stroke-dasharray:none;stroke-opacity:1;visibility:visible"/><path d="m631.461 629.677 11.659-2.73M651.726 625.316c18.478-1.903 19.295 10.09 19.295 10.09l47.05 280.651s.873 2.177 5.224 1.226c.001-.001 3.677-.726 3.725-2.828l-47.25-280.947c-5.85-24.25-34.95-16.25-34.95-16.25l-81.888 19.169c-18.133 5.096-18.297 25.313-18.297 25.313l-.839 293.79s.05 1.901 4.45 2.001c.001 0 4.124.1 4.574-1.875l.963-293.806a25.093 25.093 0 0 1 .516-4.209M546.124 652.035l-79.207-47.762" style="fill:none;stroke:#00ff4a;stroke-width:1.6;stroke-linecap:round;stroke-linejoin:round;stroke-miterlimit:4;stroke-dasharray:none;stroke-opacity:1;visibility:visible"/><path d="M558.308 649.5c3.202-3.536 6.925-4.307 6.925-4.307l58.353-13.67" style="fill:none;stroke:#00ff4a;stroke-width:1.6;stroke-linecap:round;stroke-linejoin:round;stroke-miterlimit:4;stroke-dasharray:none;stroke-opacity:1;visibility:visible"/><path d="M718.07 914.857s1.1 1.25 4.975.525c0 0 3.3-.725 3.65-2.076M543.921 954.33s.851 1.176 4.475 1.176c0 0 3.5-.026 4.327-1.226" style="fill:none;stroke:#00ff4a;stroke-width:.999997;stroke-linecap:round;stroke-linejoin:round;stroke-miterlimit:4;stroke-dasharray:none;stroke-opacity:1;visibility:visible"/><path d="M468.892 606.668a24.95 24.95 0 0 0-1.062 3.856l-25.748 278.923c-.576 2.176-4.627 1.926-4.627 1.926-4.175-.426-4.425-2.676-4.425-2.676l25.85-278.324s1.35-19 20.446-24.166l85.394-17.099s2.643-.078 4.663-1.943c0 0 1.477-4.272 5.593-4.117 0 0 5.436-.93 5.9 11.963l.241 6.202M581.656 595.18 583 629.915M583.492 642.717l7.368 190.721c-.855 2.108-2.705 2.433-3.83 2.567-4.536.465-5.234-2.435-5.234-2.435l-7.344-188.719M573.953 632.052l-1.693-43.539" style="fill:none;stroke:#00ff4a;stroke-width:1.6;stroke-linecap:round;stroke-linejoin:round;stroke-miterlimit:4;stroke-dasharray:none;stroke-opacity:1;visibility:visible"/><path d="M577.772 570.503s-1.037 3.153-5.332 5.474M560.315 579.21l-78.685 15.76s-3.37.56-6.843 3.34" style="fill:none;stroke:#00ff4a;stroke-width:1.6;stroke-linecap:round;stroke-linejoin:round;stroke-miterlimit:4;stroke-dasharray:none;stroke-opacity:1;visibility:visible"/><path d="M581.796 832.371s.9 2.367 5.033 2c.001 0 3.032-.3 3.832-2.033M433.256 887.471s.474 1.626 4.424 2.05c0 .001 3.4.177 4.327-1.174" style="fill:none;stroke:#00ff4a;stroke-width:.999997;stroke-linecap:round;stroke-linejoin:round;stroke-miterlimit:4;stroke-dasharray:none;stroke-opacity:1;visibility:visible"/><path d="M584.03 729.748s1.326-1.326 1.65-.028c0 .001-.1 1.751-1.424 1.626 0 0-1.199-.424-.226-1.598M551.047 688.69s.673-2.049 2.073-.549c.001 0 .751 1.5-1.249 2.25-.001-.001-1.375.224-.824-1.701M462.088 640.752s.675-2.05 2.076-.55c0 .001.748 1.501-1.252 2.251 0-.001-1.374.224-.824-1.701M542.61 580.056s.673-2.05 2.073-.55c.001.001.751 1.501-1.249 2.251-.001-.001-1.376.224-.826-1.701h.002" style="fill:none;stroke:#00ff4a;stroke-width:.666665;stroke-linecap:round;stroke-linejoin:round;stroke-miterlimit:4;stroke-dasharray:none;stroke-opacity:1;visibility:visible"/><path d="M566.1 572.577s-4.75-2.649-4.527 6.6M561.573 579.177s18.875 14.15 37.875 25.275c0 0 27.07 15.937 28.476 15.937M640.086 617.375s-19.049-9.351-36.1-19.65c0 0-28.9-18.201-37.85-25.152" style="fill:none;stroke:#00ff4a;stroke-width:1.6;stroke-linecap:round;stroke-linejoin:round;stroke-miterlimit:4;stroke-dasharray:none;stroke-opacity:1;visibility:visible"/><path d="M647.854 622.853a8.261 8.261 0 0 0-2.69 4.459M649.102 622.212a3.087 3.087 0 0 0-1.248.64M649.98 622.707a.737.737 0 0 0-.878-.494M645.177 628.713a.739.739 0 0 0 .844.547M650.152 623.245l-.172-.538M647.393 626.215l.53-.876M647.924 625.337l.618-.276M647.437 626.892l-.044-.679M644.377 622.68a3.324 3.324 0 0 0-.75 1.945M643.626 624.625a1.223 1.223 0 0 0 .107.55M643.733 625.175a.276.276 0 0 0 .117.133.287.287 0 0 0 .27.017M644.824 622.341a1.243 1.243 0 0 0-.447.339M645.212 622.49a.29.29 0 0 0-.388-.148M645.261 622.625a.861.861 0 0 0-.05-.134M646.58 629.161l-.56.099M650.174 624.552a2.7 2.7 0 0 0-.012-1.264M647.745 628.575a7.419 7.419 0 0 0 2.428-4.025M646.62 629.152a2.72 2.72 0 0 0 1.125-.576" style="fill:none;stroke:#00ff4a;stroke-width:.666665;stroke-linecap:round;stroke-linejoin:round;stroke-miterlimit:2;stroke-dasharray:none;stroke-opacity:1;visibility:visible"/><path d="M645.165 627.312a3.023 3.023 0 0 0 .013 1.403" style="fill:none;stroke:#00ff4a;stroke-width:.666665;stroke-linecap:round;stroke-linejoin:round;stroke-miterlimit:2;stroke-dasharray:none;stroke-opacity:1;visibility:visible"/><path d="M669.002 617.201c4.52-3.83 9.094-10.38 9.316-21.261l-2.1-33.801 10.6-69.55c-.901-1.301-3.7-1.751-3.7-1.751-4.048-.6-4.45.701-4.45.701l-10.354 67.886s-.324 2.7-.198 4.75l2.052 32.313s-.099 13.95-12.583 17.917" style="fill:none;stroke:#00ff4a;stroke-width:1.6;stroke-linecap:round;stroke-linejoin:round;stroke-miterlimit:4;stroke-dasharray:none;stroke-opacity:1;visibility:visible"/><path d="M678.968 491.938s2.149 2.45 7.449 1.3" style="fill:none;stroke:#00ff4a;stroke-width:.999997;stroke-linecap:round;stroke-linejoin:round;stroke-miterlimit:4;stroke-dasharray:none;stroke-opacity:1;visibility:visible"/><path d="M619.718 610.24s1.382-.825 1.6.763c0 0-.205 1.253-1.848.644M624.9 612.93s1.38-.827 1.6.761c0 .001-.206 1.254-1.848.645M539.8 641.625s1.381-.825 1.6.763c0 0-.205 1.252-1.848.644" style="fill:none;stroke:#00ff4a;stroke-width:.666665;stroke-linecap:round;stroke-linejoin:round;stroke-miterlimit:4;stroke-dasharray:none;stroke-opacity:1;visibility:visible"/><path d="m628.932 626.661 2.529 3.016M646.02 629.26l-2.9-2.313M646.58 629.161l5.146-3.845M555.268 651.94l3.04-2.44M625.852 633.71l-2.266-2.187M572.26 588.513l8.857-7.3M581.117 581.213l.539 13.967M583.492 642.717 583 629.915M583 629.915l.492 12.802M573.953 632.052l.499 12.799M574.452 644.851l-.499-12.799M581.117 581.213l-8.857 7.3M566.1 572.577l6.34 3.4M649.102 622.212l8.483-7.807" style="fill:none;stroke:#00ff4a;stroke-width:1.6;stroke-linecap:round;stroke-linejoin:round;stroke-miterlimit:4;stroke-dasharray:none;stroke-opacity:1;visibility:visible"/><path d="m621.444 554.796-.232 7.8" style="fill:none;stroke:red;stroke-width:.999997;stroke-linecap:round;stroke-linejoin:round;stroke-miterlimit:4;stroke-dasharray:none;stroke-opacity:1;visibility:visible" visibility="hidden"/><path d="m657.585 614.405 11.417 2.796" style="fill:none;stroke:#00ff4a;stroke-width:1.6;stroke-linecap:round;stroke-linejoin:round;stroke-miterlimit:4;stroke-dasharray:none;stroke-opacity:1;visibility:visible"/></svg>