<svg xmlns="http://www.w3.org/2000/svg" baseProfile="full" height="1122.52" preserveAspectRatio="xMinYMin meet" style="width:912px;height:1303px" width="793.701" xml:space="preserve"><path d="m395.051 587.201-.739 5.587 2.235 34.195s1.567 12.946-10.619 18.307M457.998 694.614c16.35-1.7 17.578 10.768 17.578 10.768l46.901 289.681s.876 2.179 5.23 1.225c0 0 3.673-.725 3.723-2.825l-47.102-289.985c-3.93-19.214-22.632-17.864-22.632-17.864M349.598 719.838c-.576 4.226-.548 5.248-.548 5.248l-.838 301.856s.051 1.9 4.454 2.002c0 0 4.128.1 4.577-1.877l.805-269.062" style="fill:none;stroke:red;stroke-width:1.6;stroke-linecap:round;stroke-linejoin:round;stroke-miterlimit:4;stroke-dasharray:none;stroke-opacity:1;visibility:visible"/><path d="M395.156 649.244s10.004-7.135 9.547-21.315l-2.181-34.841" style="fill:none;stroke:red;stroke-width:1.6;stroke-linecap:round;stroke-linejoin:round;stroke-miterlimit:4;stroke-dasharray:none;stroke-opacity:1;visibility:visible"/><path d="M522.479 993.863s1.1 1.25 4.978.525c0 0 3.3-.725 3.651-2.076M348.338 1025.74s.85 1.175 4.478 1.175c0 0 3.5-.022 4.327-1.225" style="fill:none;stroke:red;stroke-width:.999997;stroke-linecap:round;stroke-linejoin:round;stroke-miterlimit:4;stroke-dasharray:none;stroke-opacity:1;visibility:visible"/><path d="m272.349 684.062-2.427 28.411M268.927 720.841l-22.366 252.46c-.576 2.173-4.626 1.922-4.626 1.922-4.178-.423-4.428-2.671-4.428-2.671l25.866-289.215s.125-2.075.874-5.075M387.247 709.101l3.913 105.656M391.5 823.562l2.748 73.55M385.247 899.114l-2.692-71.432M382.124 816.607 378.2 711.236" style="fill:none;stroke:red;stroke-width:1.6;stroke-linecap:round;stroke-linejoin:round;stroke-miterlimit:4;stroke-dasharray:none;stroke-opacity:1;visibility:visible"/><path d="M237.733 971.326s.474 1.624 4.424 2.049c0 0 3.406.176 4.328-1.175" style="fill:none;stroke:red;stroke-width:.999997;stroke-linecap:round;stroke-linejoin:round;stroke-miterlimit:4;stroke-dasharray:none;stroke-opacity:1;visibility:visible"/><path d="M462.498 683.962c12.49-3.969 11.949-17 11.949-17l-2.099-35.8.75-5.897M481.13 627.007l-.552 3.953 2.022 34.953c.148 10.799-5.133 17.815-9.653 21.65" style="fill:none;stroke:red;stroke-width:1.6;stroke-linecap:round;stroke-linejoin:round;stroke-miterlimit:4;stroke-dasharray:none;stroke-opacity:1;visibility:visible"/><path d="M472.397 626.563s-17.549.75-44.85-16.251c0 0-19.059-11.29-32.33-24-.001 0-1.396-1.33-1.207-3.875l9.437-62.9s-.477-2.61 7.527-1.422c0-.001 51.524 11.113 82.323 40.048l-10.149 68.049s.95.578-3.85-.199l-6.201-1.301" style="fill:none;stroke:red;stroke-width:1.6;stroke-linecap:round;stroke-linejoin:round;stroke-miterlimit:4;stroke-dasharray:none;stroke-opacity:1;visibility:visible"/><path d="m481.805 559.179-9.158 62.234s0 1 .75 3M403.522 519.639s.321.525 1.874.95c0-.001 46.85 10.923 76.625 37.423 0 .001 5.7 3.325 10.826 1.478" style="fill:none;stroke:red;stroke-width:.666665;stroke-linecap:round;stroke-linejoin:round;stroke-miterlimit:4;stroke-dasharray:none;stroke-opacity:1;visibility:visible"/><path d="M383.256 825.489s-1.174-.01-2.674.924l-22.035 5.101" style="fill:none;stroke:red;stroke-width:1.6;stroke-linecap:round;stroke-linejoin:round;stroke-miterlimit:4;stroke-dasharray:none;stroke-opacity:1;visibility:visible"/><path d="m383.582 816.078 6.065-1.433s2.265-.086 3.533 2.798c0 0 .1 1.77-.168 2.535 0 0-.5 2.397-2.569 3.65a7.324 7.324 0 0 1-.53.286l-6.401 1.465" style="fill:none;stroke:red;stroke-width:.999997;stroke-linecap:round;stroke-linejoin:round;stroke-miterlimit:4;stroke-dasharray:none;stroke-opacity:1;visibility:visible"/><path d="m358.312 824.114 20.482-4.744s2.144-.391 4.788-3.291" style="fill:none;stroke:red;stroke-width:1.6;stroke-linecap:round;stroke-linejoin:round;stroke-miterlimit:4;stroke-dasharray:none;stroke-opacity:1;visibility:visible"/><path d="M379.348 819.313s3.066 1.832 1.9 6.365M383.582 816.078l.556.435-.57 8.714" style="fill:none;stroke:red;stroke-width:.999997;stroke-linecap:round;stroke-linejoin:round;stroke-miterlimit:4;stroke-dasharray:none;stroke-opacity:1;visibility:visible"/><path d="M269.247 857.913c41.3 24.3 77.328 37.656 77.328 37.656s.063.934.559.934c0 0 .122.188.248.81M266.645 857.72l-1.73-.807s-5.533-2.269 8.067-5.734l75.241-17.289M348.422 826.414l-77.375 17.83s-8.866 1.536-13.132 6.536M257.117 858.978c.762 1.45 2.112 2.584 4.065 4.067l2.613 1.468" style="fill:none;stroke:red;stroke-width:1.6;stroke-linecap:round;stroke-linejoin:round;stroke-miterlimit:4;stroke-dasharray:none;stroke-opacity:1;visibility:visible"/><path d="M264.849 864.713c-1.391-2.283-.723-3.666-.723-3.666-.4-1.109.45-.96.45-.96l.901-.973c0-.801 1.05-.6 1.05-.6 1.199-.932 2.134-.4 2.134-.4l.588-.201" style="fill:none;stroke:red;stroke-width:.999997;stroke-linecap:round;stroke-linejoin:round;stroke-miterlimit:4;stroke-dasharray:none;stroke-opacity:1;visibility:visible"/><path d="m503.479 880.854-4.466 1.044-6.99-.893-104.25 25.985s-13.273 3.724-29.574 1.173M348.182 905.578l-.868-.4-8.132-3.465M358.38 900.847s12.366 2.566 27.217-.834l104.887-26.1s3.86-.54 7.588-1.888l3.87-.891M337.75 901.447c-42.804-18.033-70.57-34.533-70.57-34.533-1.094-.85-1.27-.779-1.733-1.535" style="fill:none;stroke:red;stroke-width:1.6;stroke-linecap:round;stroke-linejoin:round;stroke-miterlimit:4;stroke-dasharray:none;stroke-opacity:1;visibility:visible"/><path d="m498.072 872.025.516.362.725 9.063" style="fill:none;stroke:red;stroke-width:.999997;stroke-linecap:round;stroke-linejoin:round;stroke-miterlimit:4;stroke-dasharray:none;stroke-opacity:1;visibility:visible"/><path d="M265.598 859.813c43.55 24.5 55.35 28.3 76.45 37.55" style="fill:none;stroke:red;stroke-width:.666665;stroke-linecap:round;stroke-linejoin:round;stroke-miterlimit:4;stroke-dasharray:none;stroke-opacity:1;visibility:visible"/><path d="M388.51 822.28c-.35-.258-.146-1.134.457-1.959.6-.82 1.37-1.283 1.721-1.026.35.256.147 1.127-.456 1.955-.602.823-1.372 1.28-1.722 1.029v.001M263.898 855.422a.57.57 0 0 0 .11.093" style="fill:none;stroke:red;stroke-width:.666665;stroke-linecap:round;stroke-linejoin:round;stroke-miterlimit:2;stroke-dasharray:none;stroke-opacity:1;visibility:visible"/><path d="M390.879 819.566c-.093-1.036-.835-1.16-.835-1.16-.537-.181-1.337.259-2.037 1.224-.701.96-.884 1.753-.539 2.316 0 0 .384.66 1.335.432" style="fill:none;stroke:red;stroke-width:.666665;stroke-linecap:round;stroke-linejoin:round;stroke-miterlimit:2;stroke-dasharray:none;stroke-opacity:1;visibility:visible"/><path d="M346.084 896.615s-2.304-.884-6.34 4.519c-.001 0-.561.435-1.617.435" style="fill:none;stroke:red;stroke-width:.999997;stroke-linecap:round;stroke-linejoin:round;stroke-miterlimit:4;stroke-dasharray:none;stroke-opacity:1;visibility:visible"/><path d="m385.498 907.713.8 20.6s.45 2.299 4.7 2.199c0 .002 4.025-.298 4.3-2.398l-.8-22.45" style="fill:none;stroke:red;stroke-width:1.6;stroke-linecap:round;stroke-linejoin:round;stroke-miterlimit:4;stroke-dasharray:none;stroke-opacity:1;visibility:visible"/><path d="M462.047 683.178c1.39 2.023-2.3 3.1-2.3 3.1-2.633 2.367-2.665 4.6-2.665 4.6l.28 4.682M490.921 874.062s1.551 0 2.375 3.176c0 0 .65 2.924-.975 3.699M386.598 927.414s1.649 1.55 4.5 1.25c0 0 2.5.2 4.049-1.75" style="fill:none;stroke:red;stroke-width:.999997;stroke-linecap:round;stroke-linejoin:round;stroke-miterlimit:4;stroke-dasharray:none;stroke-opacity:1;visibility:visible"/><path d="M375.775 643.619s3.507-2.943 7.057.969M311.306 732.184c-1.62-.744-3.239-1.487-4.843-2.232a788.258 788.258 0 0 1-9.026-4.25 844.35 844.35 0 0 1-17.391-8.557c-2.677-1.359-6.23-2.945-8.837-4.31-.25-.127-.492-.255-.739-.384M266.826 718.745c1.247.656 3.403 1.544 4.659 2.204a741.025 741.025 0 0 0 8.518 4.388 843.817 843.817 0 0 0 26.392 12.815c.582.272 1.162.541 1.748.813M348.228 748.11a1201.606 1201.606 0 0 1-6.613-2.714 1012.468 1012.468 0 0 1-19.57-8.39M322.046 737.005a947.244 947.244 0 0 1-8.953-4.005l-1.788-.816M308.146 738.965c1.641.757 3.294 1.516 4.954 2.276a903.656 903.656 0 0 0 9.599 4.299 1008.068 1008.068 0 0 0 9.831 4.286 1190.177 1190.177 0 0 0 10.066 4.255c2.164.904 3.632 1.532 5.632 2.356M358.072 750.672l.076-25.51c.066-1.537-.174-2 .694-4.876" style="fill:none;stroke:red;stroke-width:1.6;stroke-linecap:round;stroke-linejoin:round;stroke-miterlimit:4;stroke-dasharray:none;stroke-opacity:1;visibility:visible"/><path d="M270.46 712.485c-.16-.067-.32-.136-.53-.139a2.025 2.025 0 0 0-.688.127 5.33 5.33 0 0 0-.865.372 8.827 8.827 0 0 0-1.542 1.039 7.608 7.608 0 0 0-.922.901 3.905 3.905 0 0 0-.636.97 1.897 1.897 0 0 0-.17.661 1.736 1.736 0 0 0 .073.58 2.307 2.307 0 0 0 .287.584c.179.268.404.517.673.712.221.162.471.28.72.4" style="fill:none;stroke:red;stroke-width:.999997;stroke-linecap:round;stroke-linejoin:round;stroke-miterlimit:4;stroke-dasharray:none;stroke-opacity:1;visibility:visible"/><path d="M358.412 753.422a2.428 2.428 0 0 0-.265-1.125M357.056 757.502a6.827 6.827 0 0 0 1.358-4.081M356.166 758.24c.35-.17.653-.425.89-.735M354.495 756.893a2.765 2.765 0 0 0 .296 1.25M356.004 752.374a7.441 7.441 0 0 0-1.509 4.519M356.987 751.553a2.74 2.74 0 0 0-.983.821M357.868 751.814a.659.659 0 0 0-.368-.3.66.66 0 0 0-.513.038M354.791 758.144a.696.696 0 0 0 .389.334.664.664 0 0 0 .474-.02M358.13 752.264l-.262-.448M356.263 755.464l.299-.888M356.562 754.576l.498-.368M356.44 756.062l-.178-.598M356.132 758.258l-.477.2" style="fill:none;stroke:red;stroke-width:.666665;stroke-linecap:round;stroke-linejoin:round;stroke-miterlimit:2;stroke-dasharray:none;stroke-opacity:1;visibility:visible"/><path d="m354.495 756.893 3.553 1.112M269.922 712.473l-.995 8.368M391.5 823.562l-.34-8.805M388.51 822.28l2.99 1.282M394.498 905.664l-.25-8.552M385.498 907.713l-.251-8.599M388.51 822.28l-5.955 5.402M382.555 827.682l-.431-11.075M348.223 833.89l10.324-2.376M348.422 826.414l9.89-2.3M265.598 859.813l1.047-2.093M358.547 831.514l-10.324 2.376M358.312 824.114l-9.89 2.3M264.849 864.713l-7.732-5.735M265.598 859.813l-1.803 4.7M337.75 901.447l1.432.266" style="fill:none;stroke:red;stroke-width:1.6;stroke-linecap:round;stroke-linejoin:round;stroke-miterlimit:4;stroke-dasharray:none;stroke-opacity:1;visibility:visible"/><path d="m266.645 857.72-1.047 2.093M339.182 901.713l2.866-4.35" style="fill:none;stroke:red;stroke-width:.666665;stroke-linecap:round;stroke-linejoin:round;stroke-miterlimit:4;stroke-dasharray:none;stroke-opacity:1;visibility:visible"/><path d="m265.598 859.813-1.59-4.298M391.5 823.562l-.621-3.996" style="fill:none;stroke:red;stroke-width:.666665;stroke-linecap:round;stroke-linejoin:round;stroke-miterlimit:2;stroke-dasharray:none;stroke-opacity:1;visibility:visible"/><path d="m342.048 897.363 4.036-.748" style="fill:none;stroke:red;stroke-width:.999997;stroke-linecap:round;stroke-linejoin:round;stroke-miterlimit:4;stroke-dasharray:none;stroke-opacity:1;visibility:visible"/><path d="m385.247 899.114.251 8.599M394.248 897.112l.25 8.552M358.414 753.421l-.342-2.749" style="fill:none;stroke:red;stroke-width:1.6;stroke-linecap:round;stroke-linejoin:round;stroke-miterlimit:4;stroke-dasharray:none;stroke-opacity:1;visibility:visible"/><path d="m457.363 695.561.084 1.453-83.019 14.112c-6.972.998-11.038 8.179-11.038 8.179l-9.568 1.537c-26.042-6.928-52.19-20.034-52.19-20.034-26.921-13.763-40.408-24.995-40.408-24.995 7.133-17.777 22.523-19.35 22.523-19.35l87.147-12.359c10.002-1.086 17.588 2.505 17.588 2.505s43.83 20.104 71.23 34.771c1.24.665 1.966 1.265 2.335 1.8" style="fill:none;stroke:#00ff4a;stroke-width:1.6;stroke-linecap:round;stroke-linejoin:round;stroke-miterlimit:4;stroke-dasharray:none;stroke-opacity:1;visibility:visible" visibility="hidden"/><path d="M353.848 719.913s3.4-16.4 20.2-19.6l82.398-14s5.402-1.4 4.402-3.2M296.853 665.597c12.81 8.483 36.149 22.005 66.514 31.33" style="fill:none;stroke:#00ff4a;stroke-width:.666665;stroke-linecap:round;stroke-linejoin:round;stroke-miterlimit:4;stroke-dasharray:none;stroke-opacity:1;visibility:visible" visibility="hidden"/><path d="m339.182 901.713 19.198-.866M354.495 756.893l-6.267-8.783" style="fill:none;stroke:red;stroke-width:1.6;stroke-linecap:round;stroke-linejoin:round;stroke-miterlimit:4;stroke-dasharray:none;stroke-opacity:1;visibility:visible"/><path d="m349.598 719.838 4.25.075" style="fill:none;stroke:#00ff4a;stroke-width:.666665;stroke-linecap:round;stroke-linejoin:round;stroke-miterlimit:4;stroke-dasharray:none;stroke-opacity:1;visibility:visible" visibility="hidden"/></svg>