<svg xmlns="http://www.w3.org/2000/svg" baseProfile="full" height="1122.52" preserveAspectRatio="xMinYMin meet" style="width:765px;height:943px" width="793.701" xml:space="preserve"><path d="m155.275 624.936.584 6.416 261.377 96.522M296.985 474.062 178.963 579.887" style="fill:none;stroke:red;stroke-width:1.99999;stroke-linecap:round;stroke-linejoin:round;stroke-miterlimit:2;stroke-dasharray:none;stroke-opacity:1;visibility:visible"/><path d="m303.54 479.702-.167-3.584-6.389-2.055M417.44 721.253l-262.163-96.317" style="fill:none;stroke:red;stroke-width:.999997;stroke-linecap:round;stroke-linejoin:round;stroke-miterlimit:2;stroke-dasharray:none;stroke-opacity:1;visibility:visible"/><path d="m181.068 606.52 210.943 76.112" style="fill:none;stroke:red;stroke-width:1.99999;stroke-linecap:round;stroke-linejoin:round;stroke-miterlimit:2;stroke-dasharray:none;stroke-opacity:1;visibility:visible"/><path d="m176.859 610.353 4.208-3.833M392.553 688.375l-215.235-77.857M179.593 587.912l123.362-111.406" style="fill:none;stroke:red;stroke-width:.999997;stroke-linecap:round;stroke-linejoin:round;stroke-miterlimit:2;stroke-dasharray:none;stroke-opacity:1;visibility:visible"/><path d="m491.84 519.867 35.793 11.237M330.735 469.29l148.722 46.69" style="fill:none;stroke:red;stroke-width:1.99999;stroke-linecap:round;stroke-linejoin:round;stroke-miterlimit:2;stroke-dasharray:none;stroke-opacity:1;visibility:visible"/><path d="m326.964 476.29-.064-3.541 3.833-3.459M481.453 521.538 326.9 472.748M528.185 536.29l-36.116-11.401" style="fill:none;stroke:red;stroke-width:.999997;stroke-linecap:round;stroke-linejoin:round;stroke-miterlimit:2;stroke-dasharray:none;stroke-opacity:1;visibility:visible"/><path d="m433.852 668.294 103.116-117.857" style="fill:none;stroke:red;stroke-width:1.99999;stroke-linecap:round;stroke-linejoin:round;stroke-miterlimit:2;stroke-dasharray:none;stroke-opacity:1;visibility:visible"/><path d="m536.969 550.437 7.14 2.244M543.869 553.139l-109.09 125.638" style="fill:none;stroke:red;stroke-width:.999997;stroke-linecap:round;stroke-linejoin:round;stroke-miterlimit:2;stroke-dasharray:none;stroke-opacity:1;visibility:visible"/><path d="m554.191 561.728-.459 6.375L417.335 727.9" style="fill:none;stroke:red;stroke-width:1.99999;stroke-linecap:round;stroke-linejoin:round;stroke-miterlimit:2;stroke-dasharray:none;stroke-opacity:1;visibility:visible"/><path d="M554.191 561.728 417.491 721.2l-.24 6.309M491.13 546.525l-147.14-47.156M507.524 551.778l-8.45-2.707M293.208 507.173 191.18 600.815" style="fill:none;stroke:red;stroke-width:.999997;stroke-linecap:round;stroke-linejoin:round;stroke-miterlimit:2;stroke-dasharray:none;stroke-opacity:1;visibility:visible"/><path d="m434.863 656.536 78.692-89.473-.182 4.263" style="fill:none;stroke:red;stroke-width:.999997;stroke-linecap:round;stroke-linejoin:round;stroke-miterlimit:4;stroke-dasharray:none;stroke-opacity:1;visibility:visible"/><path d="m437.808 616.806 52.028-57.417M381.563 678.875l9.347-10.315" style="fill:none;stroke:red;stroke-width:1.99999;stroke-linecap:round;stroke-linejoin:round;stroke-miterlimit:4;stroke-dasharray:none;stroke-opacity:1;visibility:visible"/><path d="m285.063 644.074 113.593-114.346v5.866" style="fill:none;stroke:red;stroke-width:.999997;stroke-linecap:round;stroke-linejoin:round;stroke-miterlimit:4;stroke-dasharray:none;stroke-opacity:1;visibility:visible"/><path d="m262.752 636.026 114.625-113.022" style="fill:none;stroke:red;stroke-width:1.99999;stroke-linecap:round;stroke-linejoin:round;stroke-miterlimit:4;stroke-dasharray:none;stroke-opacity:1;visibility:visible"/><path d="m438.228 606.603 45.136-49.472v6.743M374.586 676.358l16.263-17.825" style="fill:none;stroke:red;stroke-width:.999997;stroke-linecap:round;stroke-linejoin:round;stroke-miterlimit:4;stroke-dasharray:none;stroke-opacity:1;visibility:visible"/><path d="m413.827 600.828 47.328-50.717M351.21 667.928l40.896-43.823" style="fill:none;stroke:red;stroke-width:1.99999;stroke-linecap:round;stroke-linejoin:round;stroke-miterlimit:4;stroke-dasharray:none;stroke-opacity:1;visibility:visible"/><path d="M227.493 623.31 344.03 512.056v5.4" style="fill:none;stroke:red;stroke-width:.999997;stroke-linecap:round;stroke-linejoin:round;stroke-miterlimit:4;stroke-dasharray:none;stroke-opacity:1;visibility:visible"/><path d="m205.85 615.506 114.28-106.984" style="fill:none;stroke:red;stroke-width:1.99999;stroke-linecap:round;stroke-linejoin:round;stroke-miterlimit:4;stroke-dasharray:none;stroke-opacity:1;visibility:visible"/><path d="m408.465 597.144 46.284-49.27v6.317M344.312 665.44l47.695-50.775" style="fill:none;stroke:red;stroke-width:.999997;stroke-linecap:round;stroke-linejoin:round;stroke-miterlimit:4;stroke-dasharray:none;stroke-opacity:1;visibility:visible"/><path d="m321.297 657.139 111.558-116.185" style="fill:none;stroke:red;stroke-width:1.99999;stroke-linecap:round;stroke-linejoin:round;stroke-miterlimit:4;stroke-dasharray:none;stroke-opacity:1;visibility:visible"/><path d="m256.074 633.615 115.089-112.781v5.844" style="fill:none;stroke:red;stroke-width:.999997;stroke-linecap:round;stroke-linejoin:round;stroke-miterlimit:4;stroke-dasharray:none;stroke-opacity:1;visibility:visible"/><path d="m234.1 625.694 116.081-111.489" style="fill:none;stroke:red;stroke-width:1.99999;stroke-linecap:round;stroke-linejoin:round;stroke-miterlimit:4;stroke-dasharray:none;stroke-opacity:1;visibility:visible"/><path d="m314.475 654.678 112.04-115.938v6.382" style="fill:none;stroke:red;stroke-width:.999997;stroke-linecap:round;stroke-linejoin:round;stroke-miterlimit:4;stroke-dasharray:none;stroke-opacity:1;visibility:visible"/><path d="M291.814 646.506 404.932 531.92" style="fill:none;stroke:red;stroke-width:1.99999;stroke-linecap:round;stroke-linejoin:round;stroke-miterlimit:4;stroke-dasharray:none;stroke-opacity:1;visibility:visible"/><path d="m212.959 599.261 104.272-96.964v6.55M198.385 612.813l5.321-4.95" style="fill:none;stroke:red;stroke-width:.999997;stroke-linecap:round;stroke-linejoin:round;stroke-miterlimit:4;stroke-dasharray:none;stroke-opacity:1;visibility:visible"/><path d="m528.185 536.29-.423 6.983" style="fill:none;stroke:red;stroke-width:.999997;stroke-linecap:round;stroke-linejoin:round;stroke-miterlimit:2;stroke-dasharray:none;stroke-opacity:1;visibility:visible"/><path d="m319.402 503.35-9.961-3.216M520.197 568.169l-190.182-61.392M293.84 488.661l.083-.07.072-.04h-.004M330.568 476.303l-28.723 4.165M297.469 483.708c.42-.154 1.069-.59 1.37-.921M300.919 480.906l-2.079 1.879M294.12 500.445l.085-.072.074-.041h-.004M301.845 480.47a1.764 1.764 0 0 0-.927.437M337.17 477.897l-1.103-.124-1.31-.328M334.758 477.445l-3.412-1.077M331.346 476.37c-.2-.078-.57-.106-.78-.066M295.919 484.458l-2.697 2.437" style="fill:none;stroke:red;stroke-width:.999997;stroke-linecap:round;stroke-linejoin:round;stroke-miterlimit:4;stroke-dasharray:none;stroke-opacity:1;visibility:visible"/><path d="M298.043 483.459a13.397 13.397 0 0 0-2.126 1.001M293.22 486.896l.023.927M293.263 488.748a.517.517 0 0 0 .688-.248.55.55 0 0 0 .05-.25M292.762 488.586l.501.16M297.98 497.68l-.243.287-.21.382-.16.442-.091.448-.012.41.07.324.14.204.2.064.235-.088.246-.222.23-.339.184-.419.13-.45.052-.435-.028-.372-.104-.267-.174-.134-.221.009-.244.156M297.72 485.915l-.24.287-.216.382-.16.444-.088.451-.013.412.069.33.143.207.2.066.233-.086.252-.222.23-.34.186-.418.125-.452.055-.436-.03-.376-.107-.273-.172-.139-.22.01-.247.153M300.493 484.69a1.581 1.581 0 0 0-.304.399M298.075 488.764l2.117-3.679M298.25 496.713l-.445.319-.435.177-.405.03-.362-.118-.312-.268-.246-.401-.176-.528-.096-.632-.016-.72.065-.782.141-.818.222-.831.285-.81.344-.769.393-.697.423-.608.445-.493M300.431 496.466l-2.183.248M300.431 496.468a.541.541 0 0 0 .309-.161M301.63 495.49l-.89.813M298.419 500.545l.028 1.276M298.419 500.545l3.35-3.07M298.446 501.821l-4.039 3.71M294.275 500.039l.361-.25.338-.089.293.088.23.256.151.403.06.525-.033.612-.125.655-.208.657-.278.614-.328.521-.358.404M294.002 488.249l.359-.25.338-.08.296.09.235.259.15.41.06.531-.033.615-.126.658-.21.66-.28.614-.33.524-.359.402M298.07 484.751l-.027-1.295M301.474 483.804a.71.71 0 0 0 .006-.118M300.494 484.689l.979-.885M330.61 478.071l-27.685 4.02M330.78 479.463a.319.319 0 0 0 .02-.11M301.934 483.653l28.847-4.193M301.753 483.573l.181.081" style="fill:none;stroke:red;stroke-width:.999997;stroke-linecap:round;stroke-linejoin:round;stroke-miterlimit:4;stroke-dasharray:none;stroke-opacity:1;visibility:visible"/><path d="M293.543 500.53a.516.516 0 0 0 .734-.49M293.051 500.368l.492.16M293.356 492.623l.164 6.988M330.491 483.488l-27.279 3.979M299.52 483.568c-.56.126-1.218.662-1.454 1.186M302.925 482.09l-3.405 1.475M321.685 490.9l8.872-1.301M303.336 493.59l10.773-1.579M300.228 491.941l-.265.244-.251.373-.197.464-.127.492-.036.46.056.38.14.248.21.087.255-.083.267-.246M302.63 494.1l.433-.399M300.28 494.36l2.35-.26M302.507 487.974l-2.28 3.968M302.94 487.577l-.433.397M303.064 493.702l-.125-6.125M339.323 478.15a21.002 21.002 0 0 0-2.695-.298M339.323 478.148l4.416 1.393M337.348 491.9l.397.192.355.297.277.374.166.41.034.4-.094.348-.219.256-.317.139-.379.003-.401-.127-.382-.248-.318-.343-.222-.396-.102-.409.029-.379.159-.305.268-.203.352-.07.397.061M337.25 480.163l.401.192.358.297.274.379.167.41.036.405-.097.349-.218.259-.318.141-.378.01-.406-.133-.383-.248-.317-.341-.226-.399-.101-.413.028-.381.157-.31.274-.202.352-.076.397.061M332.87 491.59a1.05 1.05 0 0 0 .5.045M336.875 491.047l-3.504.585M336.808 483.113l.735.32.704.44.654.544.587.627.493.694.387.736.265.755.142.747.002.72-.125.662-.259.588-.378.49-.483.381-.576.257-.652.126-.699-.008-.729-.146M333.26 480.273l3.547 2.84M333.26 480.275a1.6 1.6 0 0 0-.507-.279M331.287 479.53l1.47.465M331.13 479.373l.156.156M336.641 479.143l-.012-1.292M343.297 481.064l-.585-.11-.55.047-.465.202-.361.342-.222.464-.072.546.078.596.23.608.364.568.475.498.548.395.588.261M343.37 492.816l-.584-.11-.545.045-.464.2-.359.337-.223.457-.073.543.083.592.23.599.359.57.475.496.544.395.585.26M336.786 496.173l6.621 2.123M336.775 494.898l-5.501-1.757M336.775 494.898l.01 1.275M332.87 491.59l-1.596-.51M343.747 481.384l-.083.07-.086.034-.079.004-.064-.03-.059-.057-.044-.092-.022-.116-.012-.133M343.739 479.541l.004.924M344.287 480.883l-.539.501M301.753 483.575a.507.507 0 0 0-.273.112M293.658 505.286l.75.245M293.636 504.373l.023.913M314.985 493.388l-12.968 1.901M330.747 491.077l-8.659 1.27M330.924 491.157l.021 1.957M325.122 493.97l5.821-.856M302.04 497.362l13.537-1.99M301.998 495.4l.041 1.963M303.213 487.468a.08.08 0 0 0-.051.023M302.973 487.569a.303.303 0 0 0 .19-.077M302.973 487.57c-.015-.002-.026.002-.033.009M302.017 495.29a.263.263 0 0 0-.02.113M344.88 484.028l-1.001.935M336.641 479.143l-.037-.112-.103-.113-.168-.11-.224-.102-.275-.091-.317-.08-.337-.06-.351-.041M330.61 478.071l4.217.361M316.204 497.8l-12.92 1.903M330.797 495.652l-4.241.624M303.284 493.588c-.072-.026-.156.012-.192.079M303.285 493.588a.16.16 0 0 0 .049.003M303.063 493.703c.01-.01.028-.028.028-.036M343.36 481.464c.065.803.742 1.618 1.514 1.83M343.82 493.133l-.087.067-.085.036-.076.006-.064-.028-.059-.06-.044-.089-.022-.113-.012-.135M344.35 492.633l-.53.5M344.88 484.028l-.005-.736M343.77 485.252l.043 6.967M331.538 483.74l3.824 3.065M335.364 486.805l.437.137.412.279.34.38.223.437.076.444-.072.396-.216.298-.333.169-.408.012-.436-.139M330.82 483.511l.717.228M335.386 489.217l-3.787.637M331.6 489.854l-.713-.228M330.886 489.626l-.065-6.115M300.385 500.975l-1.939.847M303.282 499.703l-2.899 1.272M330.557 489.602c.013 0 .036-.01.048-.018M330.542 483.498a.076.076 0 0 0-.05-.008M330.82 483.514a.077.077 0 0 0-.041 0M330.542 483.498a.341.341 0 0 0 .236.016M331.13 479.375a.755.755 0 0 0-.332-.025" style="fill:none;stroke:red;stroke-width:.999997;stroke-linecap:round;stroke-linejoin:round;stroke-miterlimit:4;stroke-dasharray:none;stroke-opacity:1;visibility:visible"/><path d="M330.839 489.602a.196.196 0 0 0-.235-.018M330.84 489.602a.156.156 0 0 0 .044.026M344.947 495.74l-.995.939M343.435 493.215c.075.785.747 1.585 1.508 1.8M302.04 497.363a.523.523 0 0 0-.274.115M343.85 497.877l-.445.417M344.947 495.74l-.005-.728M343.841 496.967l.01.91M334.39 495.966l2.396.207M330.797 495.652l3.59.313M346.096 495.322c-.042-1.274-1.056-2.572-2.282-2.918M343.768 485.068a1.603 1.603 0 0 0 2.264-1.485M346.035 483.582c-.04-1.3-1.079-2.61-2.335-2.946M331.274 493.142a.815.815 0 0 0-.33-.027M331.274 491.082a.668.668 0 0 0-.264-.103" style="fill:none;stroke:red;stroke-width:.999997;stroke-linecap:round;stroke-linejoin:round;stroke-miterlimit:4;stroke-dasharray:none;stroke-opacity:1;visibility:visible"/><path d="M343.84 496.784a1.583 1.583 0 0 0 2.106-.773c.09-.172.16-.496.15-.691M293.525 499.795l-.261.277-.324.474-.286.564-.228.617-.157.637-.073.614.016.549.097.457.177.328.248.183.3.03.334-.135.261-.199M293.244 488.008l-.259.275-.328.474-.286.564-.23.622-.154.64-.076.618.012.555.098.459.182.332.248.189.305.03.332-.129.264-.198M330.786 478.087l.015 1.263M301.734 482.607l.02.967M302.017 495.29a.523.523 0 0 0-.214.005M533.508 554.423l-9.955-16.859M524.712 558.14l2.027 3.477M520.43 550.791l.9 1.545M523.552 537.567c-.18-.352-.647-.724-1.028-.819M522.525 536.746l-3.73-1.176M515.961 534.275c.676.47 2.034 1.09 2.835 1.297M520.392 550.737l.033.05M530.125 557.759l-.09.624M530.35 556.28l-.225 1.479M530.685 554.067l-.336 2.212M530.582 554.735l-9.693-16.48M524.651 564.514l-3.196-5.517M516.513 535.999l.076-1.319M516.513 535.999l.028-.084.06-.057.104-.027.133.003.164.034.19.067.205.092.224.113.225.14M520.89 538.255l-3.043-1.975M515.147 548.642l-.432-.073-.399.069-.308.199-.197.309-.06.388.088.417.221.412.331.355.405.264.439.14.423.001.356-.133.261-.259.125-.35-.01-.412-.158-.42-.28-.39-.374-.314-.431-.203M515.811 536.64l-.439-.07-.398.07-.312.2-.2.313-.059.392.09.424.225.414.332.354.404.264.44.139.424.003.36-.14.261-.26.128-.356-.012-.414-.157-.425-.282-.39-.377-.314-.428-.204M520.653 539.485a1.283 1.283 0 0 0-.56-.052M516.147 539.972l3.95-.54M515.7 548.084l-.792-.344-.75-.463-.691-.565-.606-.655-.501-.717-.379-.757-.248-.775-.105-.765.043-.735.18-.676.321-.595.448-.497.56-.383.659-.253.726-.119.779.024.804.163M519.439 551.06l-3.741-2.975M519.439 551.061a1.84 1.84 0 0 0 .54.296M508.426 550l-.057 1.119M508.663 545.527l.632.279.576.414.49.518.367.588.214.618.052.606-.115.552-.273.461-.414.339-.524.192-.604.034-.638-.128M509.056 538.04l-.395 7.487M509.293 533.526l.636.279.577.413.491.52.37.593.217.622.052.609-.115.559-.275.466-.418.343-.526.196-.605.037-.643-.122M509.353 532.397l-.06 1.13M520.635 543.885c-.003-.008-.015-.015-.023-.018" style="fill:none;stroke:red;stroke-width:.999997;stroke-linecap:round;stroke-linejoin:round;stroke-miterlimit:4;stroke-dasharray:none;stroke-opacity:1;visibility:visible"/><path d="M516.585 534.681a12.747 12.747 0 0 0-2.037-1.221M509.763 531.948l-.41.45M514.548 533.457l-4.787-1.51M520.448 543.757a.095.095 0 0 0-.044-.031M520.448 543.756a.337.337 0 0 0 .164.11M520.405 543.725l-.784-.25M519.621 543.476l-4.259.579M520.052 549.985l.353-6.26M515.362 544.054l-.476-.153-.457.008-.38.162-.262.3-.108.403.063.456.215.453.354.395.436.29.476.154M509.501 536.84c-.241.28-.445.83-.448 1.201M510.525 535.716l-1.023 1.123M510.525 535.716l.51.087.077-.002M518.16 555.136l-.884-.583M508.87 548.807a2.207 2.207 0 0 0-.447 1.193M509.886 547.68l-1.015 1.127M509.886 547.68l.51.088.075-.003" style="fill:none;stroke:red;stroke-width:.999997;stroke-linecap:round;stroke-linejoin:round;stroke-miterlimit:4;stroke-dasharray:none;stroke-opacity:1;visibility:visible"/><path d="m508.691 544.984-.085-.015-.594-.013-.534.137-.443.276-.317.398-.182.493-.032.561.124.59.27.586.4.54.498.467.578.359.177.084M509.324 532.984l-.088-.013-.596-.012-.535.141-.445.277-.321.402-.182.501-.029.565.124.596.268.587.401.547.504.465.578.361.176.083M529.307 558.69l-8.672-14.805M520.935 551.66l-.956-.305M520.655 539.484l1.173.37M520.464 550.849h-.003M179.986 593.91l4.51 13.896M180.39 589.924c-.406.33-.69 1.021-.624 1.54M182.825 587.724l-2.432 2.199M179.77 591.463l.13 1.984M182.824 587.725c.816-.58 1.868-1.905 2.248-2.833M179.897 593.45c.003.125.043.345.087.461M186.287 599.653l.715-1.219M188.285 594.106l-.46-1.53M181.308 604.028c-.402.327-.682 1.013-.614 1.525M187.032 598.383c1.078-.933 1.646-2.799 1.274-4.175M180.696 605.55l.079 1.243M182.39 603.036l-1.083.99M182.753 602.439l-.32.545M187.003 598.439l.036-.048M182.425 602.988l-.004.01-.03.029M191.27 609.668l1.279 1.041M183.097 589.915l5.859 17.873M183.097 589.915l.915-2.323M184.01 587.592l.605-1.54M185.186 587.872l.287-.19.261-.031.213.126.14.272.05.387-.043.46-.139.487-.206.457-.263.377-.285.26-.278.114-.246-.047-.178-.204-.096-.333-.004-.43.092-.48.175-.477.24-.427.28-.321M189.32 581.795l.072 1.15M189.391 582.946l-.41.455-.371.577-.307.665-.223.708-.126.699-.019.647.093.544.192.409.284.245.358.064.394-.121.422-.297M189.676 587.541l.473 7.624M190.152 595.165l-.41.452-.366.577-.307.666-.226.705-.123.695-.021.64.092.54.194.404.283.238.353.06.398-.122.414-.303M190.432 599.717l.075 1.139M187.564 603.55l2.94-2.695" style="fill:none;stroke:red;stroke-width:.999997;stroke-linecap:round;stroke-linejoin:round;stroke-miterlimit:4;stroke-dasharray:none;stroke-opacity:1;visibility:visible"/><path d="M185.42 584.333c-.306.407-.692 1.224-.806 1.72M188.535 581.518l.788.277M185.42 584.332l3.115-2.813M188.303 594.173l-.016-.055-.004-.012M187.825 592.575l-.043-.13M181.41 603.946l1.055-.963M182.629 602.775c.016-.012.044-.035.063-.047M189.246 583.367a.499.499 0 0 0 .144-.419M189.676 587.543c-.036-.443-.411-.908-.836-1.044M188.1 586.233l.743.264M190.008 595.581a.502.502 0 0 0 .14-.416M190.432 599.719a1.284 1.284 0 0 0-.827-1.035M188.864 598.418l.741.264M190.348 583.52l-.088-.525-.18-.402-.263-.253-.33-.09-.142.01" style="fill:none;stroke:red;stroke-width:.999997;stroke-linecap:round;stroke-linejoin:round;stroke-miterlimit:4;stroke-dasharray:none;stroke-opacity:1;visibility:visible"/><path d="M189.29 586.824c.658-.776 1.14-2.288 1.06-3.304M191.098 595.71l-.083-.521-.181-.395-.261-.248-.33-.087-.136.012M190.044 599.005c.656-.774 1.138-2.282 1.054-3.294M185.148 588.23l-.05-.263M179.929 593.615a1.173 1.173 0 0 0 .057.297M179.77 591.463l.004.053.024.108M185.058 591.405l.525-.38.512-.228.487-.073.439.092.381.245.308.395.227.532.144.649.044.744-.002.19M183.669 591.659l1.39-.253M179.93 593.613l-.028-.11-.003-.055M184.955 595.59l2-.375M182.821 602.642l-.13.083M182.692 602.726l.097-.172M181.41 603.946l-.093.073-.008.007M180.725 605.716l-.028-.11v-.055" style="fill:none;stroke:red;stroke-width:.999997;stroke-linecap:round;stroke-linejoin:round;stroke-miterlimit:4;stroke-dasharray:none;stroke-opacity:1;visibility:visible"/><path d="M490.879 625.923c-.346 1.154-.932 2-1.31 1.886-.383-.113-.407-1.141-.061-2.299.343-1.15.932-1.998 1.31-1.883.379.112.409 1.142.061 2.296M528.452 582.61c-.323 1.081-.895 1.866-1.272 1.753-.379-.112-.423-1.082-.099-2.166.324-1.08.895-1.866 1.274-1.753.378.113.421 1.083.097 2.165v.001M520.776 577.732c0 .997-1.407 1.807-3.139 1.807-1.732 0-3.137-.81-3.137-1.807 0-.999 1.405-1.808 3.137-1.808s3.139.81 3.139 1.808M374.12 484.018c0 .885-1.298 1.602-2.898 1.602-1.602 0-2.9-.717-2.9-1.602 0-.886 1.298-1.603 2.9-1.603 1.6 0 2.898.717 2.898 1.603M276.858 498.298c0 .896-1.292 1.62-2.884 1.62-1.593.001-2.885-.723-2.885-1.619s1.291-1.621 2.885-1.621c1.592 0 2.884.725 2.884 1.62M348.791 668.672c0 1.134-1.447 2.052-3.23 2.052-1.786 0-3.234-.918-3.234-2.052.001-1.135 1.449-2.05 3.233-2.05 1.784-.001 3.231.914 3.231 2.049v.001M227.223 624.624c0 1.065-1.448 1.928-3.232 1.928-1.785 0-3.23-.863-3.23-1.928s1.445-1.928 3.229-1.928c1.785 0 3.233.863 3.233 1.928M205.33 562.85c0 .987-1.38 1.786-3.084 1.786-1.706-.001-3.088-.8-3.088-1.786 0-.985 1.382-1.783 3.088-1.783 1.704 0 3.084.798 3.084 1.783" style="fill:none;stroke:red;stroke-width:.666665;stroke-linecap:round;stroke-linejoin:round;stroke-miterlimit:4;stroke-dasharray:none;stroke-opacity:1;visibility:visible"/><path d="m434.58 661.261 78.73-89.732 1.454.656" style="fill:none;stroke:red;stroke-width:1.99999;stroke-linecap:round;stroke-linejoin:round;stroke-miterlimit:4;stroke-dasharray:none;stroke-opacity:1;visibility:visible"/><path d="m432.056 710.611.252-7.228M537.408 539.432l-8.07-2.496 7.834 12.61" style="fill:none;stroke:red;stroke-width:.999997;stroke-linecap:round;stroke-linejoin:round;stroke-miterlimit:4;stroke-dasharray:none;stroke-opacity:1;visibility:visible"/><path d="M519.861 557.417a.307.307 0 0 0 .214.06.29.29 0 0 0 .192-.113M520.267 557.365a1.24 1.24 0 0 0 .237-.513M520.503 556.852c.073-.352.084-.712.037-1.07a3.285 3.285 0 0 0-.297-1.026M520.241 554.757a1.216 1.216 0 0 0-.354-.44M521.579 557.46a.364.364 0 0 0 .218.048.355.355 0 0 0 .254-.165M521.479 557.399l.097.061M522.052 557.344c.113-.193.184-.404.199-.628M522.252 556.716a3.74 3.74 0 0 0-.02-.77 3.832 3.832 0 0 0-.57-1.592M521.661 554.355a1.427 1.427 0 0 0-.471-.46" style="fill:none;stroke:red;stroke-width:.666665;stroke-linecap:round;stroke-linejoin:round;stroke-miterlimit:2;stroke-dasharray:none;stroke-opacity:1;visibility:visible"/><path d="M521.19 553.895a.332.332 0 0 0-.217-.047.348.348 0 0 0-.254.165M520.719 554.015c-.004.005-.009.013-.012.015M519.888 554.316a.285.285 0 0 0-.213-.059.276.276 0 0 0-.195.11M519.483 554.367a1.23 1.23 0 0 0-.238.513M519.247 554.881a3.308 3.308 0 0 0-.038 1.07c.043.354.143.701.299 1.026M519.508 556.977a1.22 1.22 0 0 0 .355.44M522.939 553.677a.355.355 0 0 0-.222-.045.352.352 0 0 0-.252.163M522.464 553.793a.087.087 0 0 1-.012.022M521.301 553.94a.08.08 0 0 0-.011.02M524.792 553.504l-.01.021M525.073 557.024a.347.347 0 0 0 .472-.117M524.972 556.961c.032.023.065.044.099.064M525.545 556.908c.115-.192.183-.404.198-.625M525.745 556.281c.02-.257.015-.518-.02-.773a3.836 3.836 0 0 0-.568-1.59M525.156 553.919a1.48 1.48 0 0 0-.472-.46M524.684 553.46a.337.337 0 0 0-.221-.047.352.352 0 0 0-.251.164M524.212 553.576l-.015.02M523.045 553.721l-.012.02M523.325 557.243a.344.344 0 0 0 .472-.119M523.227 557.179c.032.024.066.044.098.065M523.797 557.124a1.39 1.39 0 0 0 .2-.624M523.999 556.501a3.863 3.863 0 0 0-.591-2.365" style="fill:none;stroke:red;stroke-width:.666665;stroke-linecap:round;stroke-linejoin:round;stroke-miterlimit:2;stroke-dasharray:none;stroke-opacity:1;visibility:visible"/><path d="M523.404 554.135a1.396 1.396 0 0 0-.467-.459" style="fill:none;stroke:red;stroke-width:.666665;stroke-linecap:round;stroke-linejoin:round;stroke-miterlimit:2;stroke-dasharray:none;stroke-opacity:1;visibility:visible"/><path d="m518.827 556.321-1.41.217" style="fill:none;stroke:red;stroke-width:.666665;stroke-linecap:round;stroke-linejoin:round;stroke-miterlimit:4;stroke-dasharray:none;stroke-opacity:1;visibility:visible"/><path d="M189.944 603.583a.332.332 0 0 0-.22-.047.348.348 0 0 0-.251.165M189.469 603.701c-.003.006-.007.014-.01.016M188.614 607.105a.307.307 0 0 0 .214.059.29.29 0 0 0 .192-.11M189.018 607.053a1.227 1.227 0 0 0 .239-.513M189.257 606.54c.072-.353.083-.713.036-1.07a3.285 3.285 0 0 0-.297-1.026M188.994 604.445a1.216 1.216 0 0 0-.354-.441M191.692 603.364a.355.355 0 0 0-.222-.045.352.352 0 0 0-.252.161M191.218 603.481l-.013.022M190.053 603.628l-.01.02M190.33 607.148a.37.37 0 0 0 .22.048.355.355 0 0 0 .254-.165M190.233 607.085l.096.063M190.804 607.03a1.4 1.4 0 0 0 .198-.626M191.002 606.403a3.832 3.832 0 0 0-.588-2.363" style="fill:none;stroke:red;stroke-width:.666665;stroke-linecap:round;stroke-linejoin:round;stroke-miterlimit:2;stroke-dasharray:none;stroke-opacity:1;visibility:visible"/><path d="M190.413 604.043a1.396 1.396 0 0 0-.47-.46M192.08 606.93a.333.333 0 0 0 .217.047.353.353 0 0 0 .255-.165M191.98 606.865c.032.025.066.045.098.066M192.552 606.812a1.42 1.42 0 0 0 .198-.624M192.752 606.188a3.837 3.837 0 0 0-.592-2.365M192.158 603.823a1.4 1.4 0 0 0-.468-.459M193.825 606.712a.341.341 0 0 0 .219.047.35.35 0 0 0 .253-.164M193.724 606.648a2.093 2.093 0 0 0 .1.064" style="fill:none;stroke:red;stroke-width:.666665;stroke-linecap:round;stroke-linejoin:round;stroke-miterlimit:2;stroke-dasharray:none;stroke-opacity:1;visibility:visible"/><path d="M191.797 603.41c-.003.006-.007.01-.01.02" style="fill:none;stroke:red;stroke-width:.666665;stroke-linecap:round;stroke-linejoin:round;stroke-miterlimit:2;stroke-dasharray:none;stroke-opacity:1;visibility:visible"/><path d="m182.825 587.724-3.862-7.837" style="fill:none;stroke:red;stroke-width:1.99999;stroke-linecap:round;stroke-linejoin:round;stroke-miterlimit:2;stroke-dasharray:none;stroke-opacity:1;visibility:visible"/><path d="m301.734 482.607 1.806-2.905M180.39 589.924l-.797-2.012M300.918 480.907l2.037-4.401" style="fill:none;stroke:red;stroke-width:.999997;stroke-linecap:round;stroke-linejoin:round;stroke-miterlimit:2;stroke-dasharray:none;stroke-opacity:1;visibility:visible"/><path d="m481.453 521.538 10.387-1.671M522.524 536.748l5.11-5.644M491.84 519.867l-12.383-3.888" style="fill:none;stroke:red;stroke-width:1.99999;stroke-linecap:round;stroke-linejoin:round;stroke-miterlimit:2;stroke-dasharray:none;stroke-opacity:1;visibility:visible"/><path d="m330.786 478.087-3.822-1.797M491.84 519.867l-10.387 1.671M331.346 476.37l-4.446-3.621M481.453 521.538l10.616 3.35M499.075 549.071l-7.945-2.546M343.407 498.296l.583 1.073M519.979 551.355l-12.455.423M491.13 546.525l7.945 2.546M294.407 505.53l-1.199 1.643" style="fill:none;stroke:red;stroke-width:.999997;stroke-linecap:round;stroke-linejoin:round;stroke-miterlimit:2;stroke-dasharray:none;stroke-opacity:1;visibility:visible"/><path d="m520.776 577.732-7.403-6.406" style="fill:none;stroke:red;stroke-width:.999997;stroke-linecap:round;stroke-linejoin:round;stroke-miterlimit:4;stroke-dasharray:none;stroke-opacity:1;visibility:visible"/><path d="m374.586 676.358 16.324-7.798" style="fill:none;stroke:red;stroke-width:1.99999;stroke-linecap:round;stroke-linejoin:round;stroke-miterlimit:4;stroke-dasharray:none;stroke-opacity:1;visibility:visible"/><path d="m390.91 668.56-16.324 7.798" style="fill:none;stroke:red;stroke-width:.999997;stroke-linecap:round;stroke-linejoin:round;stroke-miterlimit:4;stroke-dasharray:none;stroke-opacity:1;visibility:visible"/><path d="m203.706 607.864 2.144 7.642M343.405 498.294l6.776 15.911" style="fill:none;stroke:red;stroke-width:1.99999;stroke-linecap:round;stroke-linejoin:round;stroke-miterlimit:4;stroke-dasharray:none;stroke-opacity:1;visibility:visible"/><path d="m203.706 607.864 9.253-8.603M190.504 600.855l7.881 11.958M205.85 615.506l-2.144-7.642" style="fill:none;stroke:red;stroke-width:.999997;stroke-linecap:round;stroke-linejoin:round;stroke-miterlimit:4;stroke-dasharray:none;stroke-opacity:1;visibility:visible"/><path d="m520.405 543.725 7.357-.452" style="fill:none;stroke:red;stroke-width:.999997;stroke-linecap:round;stroke-linejoin:round;stroke-miterlimit:2;stroke-dasharray:none;stroke-opacity:1;visibility:visible"/><path d="m330.015 506.777-10.613-3.427M303.284 493.588l6.157 6.546M519.979 551.355l.218 16.814M319.402 503.35l10.613 3.427M294.102 492.682l3.878 4.998M298.25 496.713l-.27.967M294.102 492.682l3.618-6.767M298.25 496.713l-.53-10.798M314.985 493.388l6.7-2.488M321.685 490.9l-7.576 1.111M331.346 476.37l5.904 3.793M334.829 478.434l2.421 1.729M321.685 490.9l-6.7 2.488M314.985 493.388l7.103-1.042M330.797 495.652l-5.675-1.682M322.088 492.346l-6.51 3.027M322.088 492.346l-5.884 5.454M330.943 493.114l-4.387 3.162M525.157 553.918l8.351.505M523.404 554.135l1.308 4.005M521.455 558.997l5.284 2.62M524.712 558.14l-.061 6.374M519.508 556.977l1.947 2.02M509.056 538.04l-.687 13.079M519.621 543.476l-4.398 3.046M519.887 554.317l-1.727.819M519.888 554.316l-2.612.237M522.524 536.748l-.696 3.107M188.306 594.208l-3.81 13.598M182.753 602.439l3.534-2.786M191.98 606.865l.569 3.844M182.465 602.983l5.099.567M186.955 595.215l-3.286-3.556M185.058 591.406l-.103 4.184M183.669 591.659l3.286 3.556" style="fill:none;stroke:red;stroke-width:.999997;stroke-linecap:round;stroke-linejoin:round;stroke-miterlimit:4;stroke-dasharray:none;stroke-opacity:1;visibility:visible"/><path d="m520.776 577.732 7.676 4.878M528.452 582.61l-7.676-4.878M293.52 499.611l-16.662-1.313M293.356 492.623l-16.498 5.675" style="fill:none;stroke:red;stroke-width:.666665;stroke-linecap:round;stroke-linejoin:round;stroke-miterlimit:4;stroke-dasharray:none;stroke-opacity:1;visibility:visible"/><path d="m536.969 550.437.439-11.005" style="fill:none;stroke:red;stroke-width:.999997;stroke-linecap:round;stroke-linejoin:round;stroke-miterlimit:4;stroke-dasharray:none;stroke-opacity:1;visibility:visible"/><path d="m519.621 543.476-2.205 13.062" style="fill:none;stroke:red;stroke-width:.666665;stroke-linecap:round;stroke-linejoin:round;stroke-miterlimit:4;stroke-dasharray:none;stroke-opacity:1;visibility:visible"/><path d="m432.309 703.383 3.69-104.938-8.21-2.796M398.763 600.38l-4.37 4.837L392.297 711M422.308 601.36l-4.867 5.38-7.868-2.793" style="fill:none;stroke:#00ff4a;stroke-width:1.99999;stroke-linecap:round;stroke-linejoin:round;stroke-miterlimit:4;stroke-dasharray:none;stroke-opacity:1;visibility:visible" visibility="hidden"/><path d="m394.959 605.817 26.424 9.14 14.613-16.512M421.418 615.26l-3.063 104.641" style="fill:none;stroke:#00ff4a;stroke-width:.999997;stroke-linecap:round;stroke-linejoin:round;stroke-miterlimit:4;stroke-dasharray:none;stroke-opacity:1;visibility:visible" visibility="hidden"/><path d="M432.503 599.66c-.044 1.612-2.135 2.856-4.656 2.775-2.53-.078-4.535-1.443-4.485-3.055.048-1.607 2.133-2.848 4.66-2.772 2.525.08 4.534 1.445 4.481 3.052M408.586 603.613c-.044 1.632-2.136 2.892-4.658 2.81-2.528-.074-4.533-1.458-4.484-3.088.051-1.63 2.136-2.886 4.663-2.81 2.523.079 4.532 1.46 4.479 3.088" style="fill:none;stroke:#00ff4a;stroke-width:.999997;stroke-linecap:round;stroke-linejoin:round;stroke-miterlimit:4;stroke-dasharray:none;stroke-opacity:1;visibility:visible" visibility="hidden"/><path d="m423.34 599.817-.09 1.515c-.045 1.457 1.997 2.703 4.558 2.783 2.556.075 4.667-1.045 4.709-2.5l.036-1.675M399.423 603.775l-.09 1.53c-.046 1.478 1.995 2.739 4.556 2.819 2.557.076 4.667-1.057 4.711-2.535l.035-1.692M408.586 603.613l12.832 11.647M432.503 599.66l-9.163.157M408.586 603.613l-9.163.162" style="fill:none;stroke:#00ff4a;stroke-width:.999997;stroke-linecap:round;stroke-linejoin:round;stroke-miterlimit:4;stroke-dasharray:none;stroke-opacity:1;visibility:visible" visibility="hidden"/><path d="m528.524 535.817 5.503-77.672 3.188-3.458M547.63 457.623l14.292 4.167-7.959 99.478" style="fill:none;stroke:#9500ff;stroke-width:1.99999;stroke-linecap:round;stroke-linejoin:round;stroke-miterlimit:4;stroke-dasharray:none;stroke-opacity:1;visibility:visible" visibility="hidden"/><path d="m534.63 458.395 15.25 4.479M542.542 580.488l8.027-106.302 11.352-12.395M550.568 474.186l-7.23-2.145" style="fill:none;stroke:#9500ff;stroke-width:.999997;stroke-linecap:round;stroke-linejoin:round;stroke-miterlimit:4;stroke-dasharray:none;stroke-opacity:1;visibility:visible" visibility="hidden"/><path d="m544.964 469.436-2.023 2.23-5.684 77.075" style="fill:none;stroke:#9500ff;stroke-width:1.99999;stroke-linecap:round;stroke-linejoin:round;stroke-miterlimit:4;stroke-dasharray:none;stroke-opacity:1;visibility:visible" visibility="hidden"/><path d="M546.516 456.746c-.09 1.22-1.968 2.072-4.188 1.902-2.22-.168-3.945-1.293-3.85-2.512.089-1.216 1.962-2.069 4.182-1.9 2.221.168 3.948 1.294 3.856 2.51M554.079 467.962c-.092 1.252-1.982 2.132-4.216 1.96-2.238-.17-3.973-1.322-3.875-2.574.095-1.248 1.98-2.126 4.217-1.957 2.235.17 3.97 1.321 3.875 2.57l-.001.001" style="fill:none;stroke:#9500ff;stroke-width:.999997;stroke-linecap:round;stroke-linejoin:round;stroke-miterlimit:4;stroke-dasharray:none;stroke-opacity:1;visibility:visible" visibility="hidden"/><path d="m538.483 456.583-.131 1.223c-.088 1.18 1.64 2.273 3.86 2.441 2.22.17 4.09-.65 4.181-1.832l.09-1.353M545.943 467.83l-.134 1.238c-.089 1.194 1.662 2.302 3.911 2.472 2.248.171 4.143-.66 4.235-1.854l.089-1.372" style="fill:none;stroke:#9500ff;stroke-width:.999997;stroke-linecap:round;stroke-linejoin:round;stroke-miterlimit:4;stroke-dasharray:none;stroke-opacity:1;visibility:visible" visibility="hidden"/><path d="m549.2 464.77 1.141-1.261M549.2 464.77l-11.985-10.083M549.88 462.874l-2.25-5.251" style="fill:none;stroke:#9500ff;stroke-width:1.99999;stroke-linecap:round;stroke-linejoin:round;stroke-miterlimit:4;stroke-dasharray:none;stroke-opacity:1;visibility:visible" visibility="hidden"/><path d="m554.079 467.962 7.842-6.171M547.63 457.623l2.938 16.563M549.88 462.874l-6.543 9.167" style="fill:none;stroke:#9500ff;stroke-width:.999997;stroke-linecap:round;stroke-linejoin:round;stroke-miterlimit:4;stroke-dasharray:none;stroke-opacity:1;visibility:visible" visibility="hidden"/><path d="m549.2 464.77-4.236 4.666" style="fill:none;stroke:#9500ff;stroke-width:1.99999;stroke-linecap:round;stroke-linejoin:round;stroke-miterlimit:4;stroke-dasharray:none;stroke-opacity:1;visibility:visible" visibility="hidden"/><path d="m546.516 456.746-8.033-.163M546.516 456.746l-.573 11.084" style="fill:none;stroke:#9500ff;stroke-width:.999997;stroke-linecap:round;stroke-linejoin:round;stroke-miterlimit:4;stroke-dasharray:none;stroke-opacity:1;visibility:visible" visibility="hidden"/><path d="m544.964 469.436 4.236-4.666" style="fill:none;stroke:#9500ff;stroke-width:1.99999;stroke-linecap:round;stroke-linejoin:round;stroke-miterlimit:4;stroke-dasharray:none;stroke-opacity:1;visibility:visible" visibility="hidden"/><path d="m170.442 523.321-.97-12.425-6.155-2.051M161.361 521.346l-2.184-.755M180.527 606.247l-6.387-80.478-3.105-1.075M156.618 513.933l-10.413 8.535 9.032 102.082" style="fill:none;stroke:#ffdf00;stroke-width:1.99999;stroke-linecap:round;stroke-linejoin:round;stroke-miterlimit:4;stroke-dasharray:none;stroke-opacity:1;visibility:visible" visibility="hidden"/><path d="m146.604 522.64 22.644 7.739 4.607-3.814M169.19 530.775l8.224 101.468M169.19 512l-9.672 8.023M165.714 511.162c.11 1.333-1.681 2.568-3.998 2.754-2.316.19-4.286-.733-4.394-2.064-.11-1.33 1.682-2.564 3.998-2.754 2.317-.188 4.289.736 4.394 2.064" style="fill:none;stroke:#ffdf00;stroke-width:.999997;stroke-linecap:round;stroke-linejoin:round;stroke-miterlimit:4;stroke-dasharray:none;stroke-opacity:1;visibility:visible" visibility="hidden"/><path d="M169.493 523.592c.11 1.344-1.695 2.588-4.03 2.778-2.336.191-4.321-.74-4.43-2.083-.111-1.34 1.695-2.584 4.031-2.777 2.336-.187 4.322.742 4.429 2.082M157.354 512.363l.07 1.323c.104 1.27 2.08 2.148 4.413 1.954 2.33-.19 4.137-1.376 4.032-2.648l-.132-1.456" style="fill:none;stroke:#ffdf00;stroke-width:.999997;stroke-linecap:round;stroke-linejoin:round;stroke-miterlimit:4;stroke-dasharray:none;stroke-opacity:1;visibility:visible" visibility="hidden"/><path d="m161.066 524.803.07 1.334c.104 1.28 2.097 2.164 4.449 1.971 2.35-.19 4.17-1.388 4.064-2.67l-.133-1.468" style="fill:none;stroke:#ffdf00;stroke-width:.999997;stroke-linecap:round;stroke-linejoin:round;stroke-miterlimit:4;stroke-dasharray:none;stroke-opacity:1;visibility:visible" visibility="hidden"/><path d="m161.361 521.346 1.956-12.501M171.035 524.694l-9.674-3.348M161.361 521.346l9.674 3.348M159.518 520.023l-2.9-6.09" style="fill:none;stroke:#ffdf00;stroke-width:1.99999;stroke-linecap:round;stroke-linejoin:round;stroke-miterlimit:4;stroke-dasharray:none;stroke-opacity:1;visibility:visible" visibility="hidden"/><path d="m161.361 521.346-14.757 1.294M159.518 520.023l14.337 6.542M169.493 523.592l-.303 7.183M165.714 511.162l-8.36 1.201M169.493 523.592l-8.427 1.211" style="fill:none;stroke:#ffdf00;stroke-width:.999997;stroke-linecap:round;stroke-linejoin:round;stroke-miterlimit:4;stroke-dasharray:none;stroke-opacity:1;visibility:visible" visibility="hidden"/><path d="m296.951 397.306-1.747 1.421 1.968 74.905M316.801 390.393l-8.372-2.441-3.883 3.164M330.527 468.86l-1.139-74.798-2.457-.716" style="fill:none;stroke:#00d4ff;stroke-width:1.99999;stroke-linecap:round;stroke-linejoin:round;stroke-miterlimit:4;stroke-dasharray:none;stroke-opacity:1;visibility:visible" visibility="hidden"/><path d="m296.034 398.452 6.373 1.885 8.49-6.938 13.944 4.046 3.766-3.144M302.37 400.324l1.772 74.866M310.898 393.398l1.57 75.53M326.008 472.065l-1.179-74.292M325.65 472.53l-21.281 3.01 7.456-6.5 1.749-.27 12.076 3.76" style="fill:none;stroke:#00d4ff;stroke-width:.999997;stroke-linecap:round;stroke-linejoin:round;stroke-miterlimit:4;stroke-dasharray:none;stroke-opacity:1;visibility:visible" visibility="hidden"/><path d="M305.769 394.695c0 1.096-1.687 1.985-3.764 1.985-2.08 0-3.765-.889-3.765-1.985 0-1.097 1.686-1.987 3.765-1.987 2.077 0 3.764.89 3.764 1.987M325.46 392.116c0 1.096-1.687 1.986-3.764 1.986-2.079 0-3.766-.89-3.766-1.986.001-1.096 1.687-1.986 3.767-1.986 2.077 0 3.762.89 3.762 1.986h.001" style="fill:none;stroke:#00d4ff;stroke-width:.999997;stroke-linecap:round;stroke-linejoin:round;stroke-miterlimit:4;stroke-dasharray:none;stroke-opacity:1;visibility:visible" visibility="hidden"/><path d="m298.274 395.112-.034 1.116c0 1.096 1.685 1.986 3.763 1.986 2.077 0 3.764-.89 3.764-1.986v-1.148M317.966 392.532l-.036 1.116c.001 1.096 1.687 1.986 3.767 1.986 2.077 0 3.762-.89 3.762-1.986V392.5" style="fill:none;stroke:#00d4ff;stroke-width:.999997;stroke-linecap:round;stroke-linejoin:round;stroke-miterlimit:4;stroke-dasharray:none;stroke-opacity:1;visibility:visible" visibility="hidden"/><path d="m304.546 391.116-7.595 6.19M326.931 393.346l-10.13-2.953M296.951 397.306l7.595-6.19M316.801 390.393l10.13 2.953" style="fill:none;stroke:#00d4ff;stroke-width:1.99999;stroke-linecap:round;stroke-linejoin:round;stroke-miterlimit:4;stroke-dasharray:none;stroke-opacity:1;visibility:visible" visibility="hidden"/><path d="m305.769 394.695-3.399 5.629M305.769 394.695l5.129-1.297M305.769 394.695l19.06 3.078M305.769 394.695l-7.495.417M305.769 394.695l12.197-2.163" style="fill:none;stroke:#00d4ff;stroke-width:.999997;stroke-linecap:round;stroke-linejoin:round;stroke-miterlimit:4;stroke-dasharray:none;stroke-opacity:1;visibility:visible" visibility="hidden"/><path d="m435.996 598.445 1.812 18.361" style="fill:none;stroke:red;stroke-width:1.99999;stroke-linecap:round;stroke-linejoin:round;stroke-miterlimit:4;stroke-dasharray:none;stroke-opacity:1;visibility:visible"/><path d="m435.996 598.445 2.232 8.158" style="fill:none;stroke:red;stroke-width:.999997;stroke-linecap:round;stroke-linejoin:round;stroke-miterlimit:4;stroke-dasharray:none;stroke-opacity:1;visibility:visible"/><path d="m422.308 601.36-8.481-.532M316.204 497.8l3.926 10.722" style="fill:none;stroke:red;stroke-width:1.99999;stroke-linecap:round;stroke-linejoin:round;stroke-miterlimit:4;stroke-dasharray:none;stroke-opacity:1;visibility:visible"/><path d="m398.763 600.38 9.702-3.236" style="fill:none;stroke:red;stroke-width:.999997;stroke-linecap:round;stroke-linejoin:round;stroke-miterlimit:4;stroke-dasharray:none;stroke-opacity:1;visibility:visible"/><path d="m521.455 558.997-6.691 13.188" style="fill:none;stroke:red;stroke-width:1.99999;stroke-linecap:round;stroke-linejoin:round;stroke-miterlimit:4;stroke-dasharray:none;stroke-opacity:1;visibility:visible"/><path d="m408.465 597.144-9.702 3.236M413.827 600.828l8.481.532" style="fill:none;stroke:#00ff4a;stroke-width:1.99999;stroke-linecap:round;stroke-linejoin:round;stroke-miterlimit:4;stroke-dasharray:none;stroke-opacity:1;visibility:visible" visibility="hidden"/><path d="m438.228 606.603-2.232-8.158" style="fill:none;stroke:#00ff4a;stroke-width:.999997;stroke-linecap:round;stroke-linejoin:round;stroke-miterlimit:4;stroke-dasharray:none;stroke-opacity:1;visibility:visible" visibility="hidden"/><path d="m301.734 482.607 2.408-7.417M301.734 482.607l10.733-13.679" style="fill:none;stroke:#00d4ff;stroke-width:.999997;stroke-linecap:round;stroke-linejoin:round;stroke-miterlimit:4;stroke-dasharray:none;stroke-opacity:1;visibility:visible" visibility="hidden"/></svg>