<svg xmlns="http://www.w3.org/2000/svg" baseProfile="full" height="1122.52" preserveAspectRatio="xMinYMin meet" style="width:765px;height:943px" width="793.701" xml:space="preserve"><path d="m354.921 621.812.03 6.05.646.437 4.75 1.541 64.666-20.333M356.192 859.22l.028 5.267.647.395 4.563 1.917 72.916-30.044s70.73-32.165 179.396-39.165l9.354-245.313-2.603-2.54s-44.51 1.963-98.252 10.186a710.473 710.473 0 0 0-35.17 6.322M464.805 571.16a733.231 733.231 0 0 0-34.73 9.1l-75.25 23.02.045 8.755" style="fill:none;stroke:red;stroke-width:1.99999;stroke-linecap:round;stroke-linejoin:round;stroke-miterlimit:500;stroke-dasharray:none;stroke-opacity:1;visibility:visible"/><path d="m419.576 611.257-1 204.666.584.541-63.063 25.292.048 8.724M440.671 792.924l-.157 18.645M441.243 725.145l-.448 53.112M441.868 651.135l-.475 56.45M442.264 604.09l-.265 31.5M465.93 802.653l2.483-174.738M490.576 591.924l-3.292 204.229M509.66 790.861l4.041-203.145M537.66 583.757l-4.792 202.31M556.868 781.903l5.541-201.562M587.788 578.924l-6.296 199.792M565.389 778.736l5.77-199.354M545.91 582.466l-5.041 199.792M521.326 586.34l-4.23 200.354M497.618 590.507l-3.541 201.688M471.972 798.174l2.521-185.048M443.458 794.036l-.11 12.159M444.078 726.257l-.505 55.333M444.757 651.815l-.516 56.443M445.201 603.257l-.304 33.221" style="fill:none;stroke:red;stroke-width:1.99999;stroke-linecap:round;stroke-linejoin:round;stroke-miterlimit:500;stroke-dasharray:none;stroke-opacity:1;visibility:visible"/><path d="m425.014 609.507-1.188 208.77-4.667-1.812" style="fill:none;stroke:red;stroke-width:.999997;stroke-linecap:round;stroke-linejoin:round;stroke-miterlimit:500;stroke-dasharray:none;stroke-opacity:1;visibility:visible"/><path d="M440.519 808.091s1.028-.416 3.008-1.153M466.928 799.157c1.575-.474 3.212-.959 4.915-1.454M488.043 793.267a562.26 562.26 0 0 1 5.442-1.377M510.604 787.92c1.848-.403 3.726-.803 5.633-1.196M534.27 783.266a791.44 791.44 0 0 1 6.166-1.073M557.687 779.464c2.566-.378 5.118-.74 7.646-1.086M583.067 776.172a655.51 655.51 0 0 1 7.153-.75l6.54-197.831" style="fill:none;stroke:red;stroke-width:1.99999;stroke-linecap:round;stroke-linejoin:round;stroke-miterlimit:500;stroke-dasharray:none;stroke-opacity:1;visibility:visible"/><path d="m449.917 637.59.347-35.75M449.223 709.37l.541-56.003M448.524 781.812l.523-54M444.035 806.778l4.23 1.875.13-13.286M471.972 798.174l3.208 1.73 2.548-190.114M494.139 792.236l2.792 1.644 3.604-203.914M517.097 786.986l2.625 1.833 4.23-202.978M540.889 782.507l2.333 1.855 5.146-202.188M565.389 778.736l2.041 1.937 5.98-201.415M590.222 775.424l1.896 2.27 6.687-200.915M354.826 603.278l5.708 1.75.167 24.727M360.908 605.592l76.334-23s10.198-3.36 27.385-7.685M484.835 570.173a649.534 649.534 0 0 1 51.575-9.08c32.13-4.311 64.834-7.501 86.334-8.669M356.097 841.757l5.479 2.27.166 22.667" style="fill:none;stroke:red;stroke-width:.999997;stroke-linecap:round;stroke-linejoin:round;stroke-miterlimit:500;stroke-dasharray:none;stroke-opacity:1;visibility:visible"/><path d="M358.796 620.259c1.324-.414 1.89-2.402 1.26-4.454-.629-2.045-2.215-3.38-3.539-2.973M361.575 844.027l73.585-29.04c28.082-10.897 56.396-19.994 99.956-28.103 26.208-4.879 52.848-7.851 79.146-10.086" style="fill:none;stroke:red;stroke-width:.999997;stroke-linecap:round;stroke-linejoin:round;stroke-miterlimit:500;stroke-dasharray:none;stroke-opacity:1;visibility:visible"/><path d="m356.52 612.832-1.579.508c-1.323.404-1.887 2.399-1.257 4.448.628 2.047 2.212 3.38 3.536 2.979a.366.366 0 0 1 .058-.02l1.52-.49" style="fill:none;stroke:red;stroke-width:1.99999;stroke-linecap:round;stroke-linejoin:round;stroke-miterlimit:500;stroke-dasharray:none;stroke-opacity:1;visibility:visible"/><path d="M360.212 857.766c1.202-.505 1.53-2.465.732-4.377-.8-1.91-2.422-3.055-3.624-2.55M354.812 613.4c1.324-.41 2.911.923 3.536 2.972.622 2.023.084 3.981-1.2 4.435" style="fill:none;stroke:red;stroke-width:.999997;stroke-linecap:round;stroke-linejoin:round;stroke-miterlimit:500;stroke-dasharray:none;stroke-opacity:1;visibility:visible"/><path d="m357.32 850.838-1.43.617c-1.204.5-1.532 2.462-.73 4.372.797 1.913 2.417 3.058 3.622 2.555a.317.317 0 0 0 .051-.02l1.379-.597" style="fill:none;stroke:red;stroke-width:1.99999;stroke-linecap:round;stroke-linejoin:round;stroke-miterlimit:500;stroke-dasharray:none;stroke-opacity:1;visibility:visible"/><path d="M596.927 576.868c8.666-.745 17.197-1.385 25.48-1.943M355.775 851.523c1.201-.502 2.825.642 3.621 2.552.79 1.888.484 3.811-.676 4.355" style="fill:none;stroke:red;stroke-width:.999997;stroke-linecap:round;stroke-linejoin:round;stroke-miterlimit:500;stroke-dasharray:none;stroke-opacity:1;visibility:visible"/><path d="M587.913 577.676c3.018-.281 6.024-.55 9.014-.807" style="fill:none;stroke:red;stroke-width:1.99999;stroke-linecap:round;stroke-linejoin:round;stroke-miterlimit:500;stroke-dasharray:none;stroke-opacity:1;visibility:visible"/><path d="M571.156 579.37c5.607-.61 11.201-1.173 16.757-1.693" style="fill:none;stroke:red;stroke-width:.999997;stroke-linecap:round;stroke-linejoin:round;stroke-miterlimit:500;stroke-dasharray:none;stroke-opacity:1;visibility:visible"/><path d="M562.413 580.365a894.55 894.55 0 0 1 8.743-.994" style="fill:none;stroke:red;stroke-width:1.99999;stroke-linecap:round;stroke-linejoin:round;stroke-miterlimit:500;stroke-dasharray:none;stroke-opacity:1;visibility:visible"/><path d="M545.91 582.477c5.48-.757 10.99-1.457 16.502-2.112" style="fill:none;stroke:red;stroke-width:.999997;stroke-linecap:round;stroke-linejoin:round;stroke-miterlimit:500;stroke-dasharray:none;stroke-opacity:1;visibility:visible"/><path d="M537.637 583.665c2.75-.412 5.507-.805 8.273-1.188" style="fill:none;stroke:red;stroke-width:1.99999;stroke-linecap:round;stroke-linejoin:round;stroke-miterlimit:500;stroke-dasharray:none;stroke-opacity:1;visibility:visible"/><path d="M521.313 586.272c3.659-.62 7.44-1.235 11.347-1.847 1.653-.26 3.313-.513 4.977-.76" style="fill:none;stroke:red;stroke-width:.999997;stroke-linecap:round;stroke-linejoin:round;stroke-miterlimit:500;stroke-dasharray:none;stroke-opacity:1;visibility:visible"/><path d="M513.356 587.655c2.585-.465 5.239-.925 7.957-1.383" style="fill:none;stroke:red;stroke-width:1.99999;stroke-linecap:round;stroke-linejoin:round;stroke-miterlimit:500;stroke-dasharray:none;stroke-opacity:1;visibility:visible"/><path d="M498.203 590.508a811.571 811.571 0 0 1 15.153-2.855" style="fill:none;stroke:red;stroke-width:.999997;stroke-linecap:round;stroke-linejoin:round;stroke-miterlimit:500;stroke-dasharray:none;stroke-opacity:1;visibility:visible"/><path d="M490.119 592.161a755.46 755.46 0 0 1 8.084-1.653" style="fill:none;stroke:red;stroke-width:1.99999;stroke-linecap:round;stroke-linejoin:round;stroke-miterlimit:500;stroke-dasharray:none;stroke-opacity:1;visibility:visible"/><path d="M450.275 601.873a577.6 577.6 0 0 1 13.105-3.508M481.047 594.135c2.9-.651 5.921-1.31 9.072-1.972" style="fill:none;stroke:red;stroke-width:.999997;stroke-linecap:round;stroke-linejoin:round;stroke-miterlimit:500;stroke-dasharray:none;stroke-opacity:1;visibility:visible"/><path d="M442.288 604.17c2.443-.717 5.1-1.485 7.986-2.296" style="fill:none;stroke:red;stroke-width:1.99999;stroke-linecap:round;stroke-linejoin:round;stroke-miterlimit:500;stroke-dasharray:none;stroke-opacity:1;visibility:visible"/><path d="m425.012 609.508 11.104-3.5a973.33 973.33 0 0 1 6.172-1.839" style="fill:none;stroke:red;stroke-width:.999997;stroke-linecap:round;stroke-linejoin:round;stroke-miterlimit:500;stroke-dasharray:none;stroke-opacity:1;visibility:visible"/><path d="M375.392 850.917c-.418.989-1.292 1.57-1.934 1.297-.646-.276-.828-1.303-.41-2.295.427-.992 1.292-1.576 1.94-1.301.643.276.826 1.301.404 2.299M374.967 613.868c-.315 1.081-1.163 1.79-1.88 1.579-.723-.214-1.056-1.26-.744-2.342.319-1.084 1.161-1.789 1.885-1.581.72.21 1.052 1.256.74 2.344h-.001" style="fill:none;stroke:red;stroke-width:.666665;stroke-linecap:round;stroke-linejoin:round;stroke-miterlimit:4;stroke-dasharray:none;stroke-opacity:1;visibility:visible"/><path d="m539.784 558.778.416-.095.532-.05.603-.003.633.044.592.09.505.125.371.152.207.161.021.159-.163.144-.337.114-.479.071-.572.028-.625-.02-.617-.068-.559-.11-.441-.137-.291-.16-.116-.164.07-.15.25-.131M535.59 783.825l.416-.095.532-.05.603-.003.633.044.592.09.505.126.371.15.207.16.021.16-.163.145-.337.114-.479.071-.572.028-.625-.023-.617-.065-.559-.11-.441-.138-.291-.159-.116-.164.07-.15.25-.131" style="fill:none;stroke:red;stroke-width:.999997;stroke-linecap:round;stroke-linejoin:round;stroke-miterlimit:4;stroke-dasharray:none;stroke-opacity:1;visibility:visible"/><path d="m354.87 612.035.051 9.777M356.145 850.48l.047 8.74M354.921 621.812l-.051-9.777M356.192 859.22l-.047-8.74M443.573 781.59l-2.902 11.334M443.458 794.036l-2.944 17.533M444.241 708.258l-2.998 16.887M440.671 792.924l.124-14.667M444.897 636.478l-3.029 14.657M441.243 725.145l.15-17.56M441.868 651.135l.13-15.545M448.395 795.367l17.535 7.286M443.573 781.59l-.115 12.446M449.223 709.37l-5.145 16.887M440.671 792.924l2.902-11.334M449.917 637.59l-5.16 14.225M441.243 725.145l2.998-16.887M441.868 651.135l3.029-14.657M471.843 797.703l16.2-4.436M493.485 791.89l17.119-3.97M516.237 786.724l18.033-3.458M540.436 782.193l17.251-2.729M565.333 778.378l17.734-2.206" style="fill:none;stroke:red;stroke-width:1.99999;stroke-linecap:round;stroke-linejoin:round;stroke-miterlimit:500;stroke-dasharray:none;stroke-opacity:1;visibility:visible"/><path d="m444.757 651.815 5.16-14.225M444.078 726.257l5.145-16.887M449.917 637.59l-.153 15.777M443.458 794.036l5.066-12.224M449.223 709.37l-.176 18.442M443.347 806.195l5.048-10.828M354.921 621.812l5.78 7.943M356.52 612.832l4.388-7.24M356.192 859.22l5.55 7.474M357.32 850.838l4.255-6.811M356.52 612.832l-1.708.568M358.798 620.257l-1.65.55M357.32 850.838l-1.545.685M360.212 857.765l-1.492.665M481.047 594.135l-17.667 4.23M498.203 590.508l-17.156 3.627" style="fill:none;stroke:red;stroke-width:.999997;stroke-linecap:round;stroke-linejoin:round;stroke-miterlimit:500;stroke-dasharray:none;stroke-opacity:1;visibility:visible"/><path d="m540.436 782.193-4.846 1.632" style="fill:none;stroke:red;stroke-width:.999997;stroke-linecap:round;stroke-linejoin:round;stroke-miterlimit:4;stroke-dasharray:none;stroke-opacity:1;visibility:visible"/><path d="m307.743 843.59-.063-6.479 10.042-3.937M408.845 779.812l-.123 37.59-84.04 33.543-10.846-4.552M409.071 709.59l-.195 60.445M409.303 638.479l-.196 60.888M409.377 615.367l-.04 12.667M143.36 550.218l-.47-12.003.146-.749.479-.625 86.458-21.918 179.562 52.032-.061 18.636" style="fill:none;stroke:#00ff4a;stroke-width:1.99999;stroke-linecap:round;stroke-linejoin:round;stroke-miterlimit:500;stroke-dasharray:none;stroke-opacity:1;visibility:visible"/><path d="m211.324 545.062-63.29 16.361-4.291-1.374-.039-1" style="fill:none;stroke:#00ff4a;stroke-width:1.99999;stroke-linecap:round;stroke-linejoin:round;stroke-miterlimit:500;stroke-dasharray:none;stroke-opacity:1;visibility:visible"/><path d="m154.687 548.096 3.139.995 64.376-16.71 134.062 40.002M147.827 545.923l1.94.613" style="fill:none;stroke:#00ff4a;stroke-width:1.99999;stroke-linecap:round;stroke-linejoin:round;stroke-miterlimit:500;stroke-dasharray:none;stroke-opacity:1;visibility:visible"/><path d="m325.122 568.427 22.037 6.623" style="fill:none;stroke:#00ff4a;stroke-width:.999997;stroke-linecap:round;stroke-linejoin:round;stroke-miterlimit:500;stroke-dasharray:none;stroke-opacity:1;visibility:visible"/><path d="m320.62 567.075 4.501 1.352" style="fill:none;stroke:#00ff4a;stroke-width:1.99999;stroke-linecap:round;stroke-linejoin:round;stroke-miterlimit:500;stroke-dasharray:none;stroke-opacity:1;visibility:visible"/><path d="m304.755 562.307 15.864 4.768" style="fill:none;stroke:#00ff4a;stroke-width:.999997;stroke-linecap:round;stroke-linejoin:round;stroke-miterlimit:500;stroke-dasharray:none;stroke-opacity:1;visibility:visible"/><path d="m300.691 561.086 4.063 1.221" style="fill:none;stroke:#00ff4a;stroke-width:1.99999;stroke-linecap:round;stroke-linejoin:round;stroke-miterlimit:500;stroke-dasharray:none;stroke-opacity:1;visibility:visible"/><path d="m285.088 556.399 15.603 4.688" style="fill:none;stroke:#00ff4a;stroke-width:.999997;stroke-linecap:round;stroke-linejoin:round;stroke-miterlimit:500;stroke-dasharray:none;stroke-opacity:1;visibility:visible"/><path d="m280.743 555.093 4.345 1.305" style="fill:none;stroke:#00ff4a;stroke-width:1.99999;stroke-linecap:round;stroke-linejoin:round;stroke-miterlimit:500;stroke-dasharray:none;stroke-opacity:1;visibility:visible"/><path d="m265.036 550.374 15.707 4.72" style="fill:none;stroke:#00ff4a;stroke-width:.999997;stroke-linecap:round;stroke-linejoin:round;stroke-miterlimit:500;stroke-dasharray:none;stroke-opacity:1;visibility:visible"/><path d="m261.146 549.205 3.89 1.17" style="fill:none;stroke:#00ff4a;stroke-width:1.99999;stroke-linecap:round;stroke-linejoin:round;stroke-miterlimit:500;stroke-dasharray:none;stroke-opacity:1;visibility:visible"/><path d="m245.627 544.542 15.517 4.663" style="fill:none;stroke:#00ff4a;stroke-width:.999997;stroke-linecap:round;stroke-linejoin:round;stroke-miterlimit:500;stroke-dasharray:none;stroke-opacity:1;visibility:visible"/><path d="m240.935 543.132 4.695 1.41" style="fill:none;stroke:#00ff4a;stroke-width:1.99999;stroke-linecap:round;stroke-linejoin:round;stroke-miterlimit:500;stroke-dasharray:none;stroke-opacity:1;visibility:visible"/><path d="m234.973 541.34 5.963 1.792" style="fill:none;stroke:#00ff4a;stroke-width:.999997;stroke-linecap:round;stroke-linejoin:round;stroke-miterlimit:500;stroke-dasharray:none;stroke-opacity:1;visibility:visible"/><path d="m316.515 614.169.02 1.547 5.29 1.688 33.043-10.042M309.868 597.007l6.459 2.041.086 6.956M367.238 569.217l-63.016 18.31.147 7.522.686.437" style="fill:none;stroke:#00ff4a;stroke-width:1.99999;stroke-linecap:round;stroke-linejoin:round;stroke-miterlimit:500;stroke-dasharray:none;stroke-opacity:1;visibility:visible"/><path d="m386.451 563.633-19.215 5.584" style="fill:none;stroke:#00ff4a;stroke-width:.999997;stroke-linecap:round;stroke-linejoin:round;stroke-miterlimit:500;stroke-dasharray:none;stroke-opacity:1;visibility:visible"/><path d="m163.807 783.213 2.917 1.232 61.81-21.648.876.523 124.04 49.688M151.797 768.299l.385 10 6.103 2.579M207.674 546.97l5.403 189.33-61.708 20.875.113 2.958M319.152 837.562l.044 3.688" style="fill:none;stroke:#00ff4a;stroke-width:1.99999;stroke-linecap:round;stroke-linejoin:round;stroke-miterlimit:500;stroke-dasharray:none;stroke-opacity:1;visibility:visible"/><path d="m381.201 623.278.208 178.874-62.396 24.25.044 3.389M249.64 736.882l-4.355-192.417M264.64 550.299l3.77 193.854M287.514 751.507l-3.177-195.284M304.756 596.13l2.175 162.814M304.303 562.254l.324 24.233M325.222 617.278l1.459 149.25M324.745 568.36l.12 12.221M346.764 774.32l-1.23-164.125M366.451 627.945l.77 154.25" style="fill:none;stroke:#00ff4a;stroke-width:1.99999;stroke-linecap:round;stroke-linejoin:round;stroke-miterlimit:500;stroke-dasharray:none;stroke-opacity:1;visibility:visible"/><path d="m403.285 777.59-.083 41.959M403.424 707.812l-.119 59.779M403.566 636.924l-.121 60.667M403.605 616.924l-.02 10M224.368 516.444l179.333 52.21-.037 18.723M321.764 612.38l.063 5.024M304.222 587.528l17.3 5.175.203 16.489M321.522 592.703l88.013-25.748M154.437 540.851l3.39 1.052.249 7.104M143.18 537.36l8.973 2.783M157.827 541.903l81.77-20.959M147.68 545.778l.625 15.541M211.847 535.07l5.667 202.958-4.438-1.73M151.368 757.174l4.396 1.916.563 14.521 10.166 4.27.231 6.564M221.078 736.91l-65.313 22.18M227.202 756.007l-9.667-16.856.271 12.064.855 1.396 8.541 3.396M166.493 777.882l65.188-22.708" style="fill:none;stroke:#00ff4a;stroke-width:.999997;stroke-linecap:round;stroke-linejoin:round;stroke-miterlimit:500;stroke-dasharray:none;stroke-opacity:1;visibility:visible"/><path d="m222.16 532.299-.188-6.333 145.729 43.125M212.118 543.61l9.063-10.959M230.077 548.799l4.417 176.625M249.577 734.486l-4.145 1.396-4.506-192.72M268.347 741.674l-3.312 1.144-3.892-193.6M287.493 748.924l-3.417 1.208-3.342-195.009M306.89 756.34l-3.477 1.27-2.738-196.483M321.12 581.669l-.155-14.41M326.618 763.903l-3.521 1.27-1.583-146.964M346.66 771.57l-3.563 1.31-1.208-161.539M367.201 779.34l-3.73 1.396-.625-151.666M361.91 809.736l-133.437-53.125.063 6.188M373.951 800.861l-123.144-48.27M218.347 752.153l-61.979 21.396M154.546 767.209c1.084-.361 1.478-2.104.886-3.893-.594-1.79-1.952-2.951-3.032-2.591" style="fill:none;stroke:#00ff4a;stroke-width:.999997;stroke-linecap:round;stroke-linejoin:round;stroke-miterlimit:500;stroke-dasharray:none;stroke-opacity:1;visibility:visible"/><path d="m152.398 760.724-1.286.448c-1.082.357-1.478 2.098-.884 3.888.592 1.789 1.95 2.95 3.032 2.593l.048-.015 1.238-.43" style="fill:none;stroke:#00ff4a;stroke-width:1.99999;stroke-linecap:round;stroke-linejoin:round;stroke-miterlimit:500;stroke-dasharray:none;stroke-opacity:1;visibility:visible"/><path d="M163.386 782.87c1.084-.36 1.475-2.11.88-3.91-.596-1.795-1.956-2.962-3.038-2.603M151.006 761.224c1.084-.362 2.442.802 3.032 2.586.586 1.768.21 3.482-.837 3.88" style="fill:none;stroke:#00ff4a;stroke-width:.999997;stroke-linecap:round;stroke-linejoin:round;stroke-miterlimit:500;stroke-dasharray:none;stroke-opacity:1;visibility:visible"/><path d="m161.226 776.357-1.286.445c-1.08.358-1.475 2.108-.88 3.908.597 1.795 1.958 2.962 3.039 2.609.015-.007.031-.012.046-.021l1.24-.428" style="fill:none;stroke:#00ff4a;stroke-width:1.99999;stroke-linecap:round;stroke-linejoin:round;stroke-miterlimit:500;stroke-dasharray:none;stroke-opacity:1;visibility:visible"/><path d="M154.46 547.636c1.172-.296 1.734-2.086 1.256-4.008-.22-.878-.618-1.63-1.1-2.161-.242-.272-.163-.48-.766-.772-.368-.176-.758-.105-1.121-.015M159.836 776.854c1.082-.361 2.444.808 3.037 2.607.587 1.773.213 3.495-.833 3.889" style="fill:none;stroke:#00ff4a;stroke-width:.999997;stroke-linecap:round;stroke-linejoin:round;stroke-miterlimit:500;stroke-dasharray:none;stroke-opacity:1;visibility:visible"/><path d="m152.73 540.681-1.394.367c-1.172.29-1.736 2.084-1.258 4.004.478 1.918 1.815 3.239 2.986 2.95l.052-.012 1.344-.354" style="fill:none;stroke:#00ff4a;stroke-width:1.99999;stroke-linecap:round;stroke-linejoin:round;stroke-miterlimit:500;stroke-dasharray:none;stroke-opacity:1;visibility:visible"/><path d="M146.389 557.89c1.15-.321 1.663-2.108 1.139-3.992-.522-1.881-1.883-3.151-3.034-2.83M151.218 541.095c1.172-.295 2.512 1.03 2.987 2.945.47 1.895-.07 3.661-1.208 3.996" style="fill:none;stroke:#00ff4a;stroke-width:.999997;stroke-linecap:round;stroke-linejoin:round;stroke-miterlimit:500;stroke-dasharray:none;stroke-opacity:1;visibility:visible"/><path d="m144.494 551.068-1.372.402c-1.152.32-1.662 2.105-1.14 3.99.524 1.88 1.882 3.149 3.035 2.832a.54.54 0 0 0 .05-.016l1.323-.385" style="fill:none;stroke:#00ff4a;stroke-width:1.99999;stroke-linecap:round;stroke-linejoin:round;stroke-miterlimit:500;stroke-dasharray:none;stroke-opacity:1;visibility:visible"/><path d="M143.009 551.517c1.152-.32 2.512.948 3.033 2.83.516 1.857.028 3.616-1.089 3.978M324.45 835.5l.23 15.445M319.014 826.403l5.333 2.188.068 4.612M324.347 828.59l84.437-32.916M385.826 621.8l.063 182.082-4.147-1.457M307.68 837.111l11.521 4.81" style="fill:none;stroke:#00ff4a;stroke-width:.999997;stroke-linecap:round;stroke-linejoin:round;stroke-miterlimit:500;stroke-dasharray:none;stroke-opacity:1;visibility:visible"/><path d="M322.969 837.01c.384-.148.681-.45.885-.856.256-.508.596-.417.616-1.503.027-1.248-.416-1.31-.584-1.651-.041-.083-.061-.179-.096-.266-.736-1.896-2.3-3.063-3.488-2.599" style="fill:none;stroke:#00ff4a;stroke-width:.999997;stroke-linecap:round;stroke-linejoin:round;stroke-miterlimit:500;stroke-dasharray:none;stroke-opacity:1;visibility:visible"/><path d="m320.302 830.135-1.416.571c-1.188.457-1.556 2.372-.82 4.27.736 1.898 2.299 3.064 3.487 2.606a.278.278 0 0 0 .053-.023l1.363-.549" style="fill:none;stroke:#00ff4a;stroke-width:1.99999;stroke-linecap:round;stroke-linejoin:round;stroke-miterlimit:500;stroke-dasharray:none;stroke-opacity:1;visibility:visible"/><path d="M313.407 845.878c1.184-.448 1.568-2.341.86-4.23-.712-1.884-2.247-3.056-3.432-2.61M318.773 830.769c1.19-.462 2.75.701 3.487 2.601.725 1.87.378 3.753-.77 4.253" style="fill:none;stroke:#00ff4a;stroke-width:.999997;stroke-linecap:round;stroke-linejoin:round;stroke-miterlimit:500;stroke-dasharray:none;stroke-opacity:1;visibility:visible"/><path d="m310.837 839.037-1.408.552c-1.184.441-1.567 2.336-.859 4.224.711 1.885 2.245 3.06 3.43 2.617.017-.008.034-.013.051-.023l1.356-.529" style="fill:none;stroke:#00ff4a;stroke-width:1.99999;stroke-linecap:round;stroke-linejoin:round;stroke-miterlimit:500;stroke-dasharray:none;stroke-opacity:1;visibility:visible"/><path d="M320.24 613.54c.527-.161.928-.583 1.179-1.161.16-.372.744-.686.531-2.329-.06-.455-.541-1.04-.57-1.117-.659-1.873-2.126-3.073-3.36-2.697M309.311 839.651c1.186-.445 2.723.724 3.432 2.612.702 1.86.337 3.722-.808 4.207" style="fill:none;stroke:#00ff4a;stroke-width:.999997;stroke-linecap:round;stroke-linejoin:round;stroke-miterlimit:500;stroke-dasharray:none;stroke-opacity:1;visibility:visible"/><path d="m318.02 606.237-1.534.487c-1.285.39-1.832 2.344-1.219 4.36.613 2.013 2.154 3.33 3.443 2.943.016-.007.036-.011.055-.02l1.475-.467" style="fill:none;stroke:#00ff4a;stroke-width:1.99999;stroke-linecap:round;stroke-linejoin:round;stroke-miterlimit:500;stroke-dasharray:none;stroke-opacity:1;visibility:visible"/><path d="M310.003 596.499c1.292-.364 1.883-2.3 1.317-4.326-.566-2.021-2.07-3.369-3.365-3.008M316.36 606.783c1.29-.394 2.83.922 3.444 2.94.602 1.985.081 3.909-1.166 4.344" style="fill:none;stroke:#00ff4a;stroke-width:.999997;stroke-linecap:round;stroke-linejoin:round;stroke-miterlimit:500;stroke-dasharray:none;stroke-opacity:1;visibility:visible"/><path d="m307.955 589.165-1.538.451c-1.294.359-1.882 2.297-1.317 4.32.566 2.024 2.073 3.37 3.363 3.016a.395.395 0 0 0 .057-.019l1.483-.433" style="fill:none;stroke:#00ff4a;stroke-width:1.99999;stroke-linecap:round;stroke-linejoin:round;stroke-miterlimit:500;stroke-dasharray:none;stroke-opacity:1;visibility:visible"/><path d="M306.289 589.67c1.293-.36 2.8.99 3.364 3.012.557 1.998-.004 3.901-1.26 4.306M238.631 733.268l142.778 55.073" style="fill:none;stroke:#00ff4a;stroke-width:.999997;stroke-linecap:round;stroke-linejoin:round;stroke-miterlimit:500;stroke-dasharray:none;stroke-opacity:1;visibility:visible"/><path d="M394.532 771.633c-.646-.235-.881-1.23-.521-2.224.364-.992 1.181-1.604 1.83-1.367M394.69 701.6c-.662-.216-.931-1.21-.6-2.22.334-1.009 1.138-1.649 1.8-1.434M395.332 629.95a.91.91 0 0 1-.506.004c-.679-.198-.99-1.198-.69-2.227.302-1.031 1.099-1.707 1.779-1.508M336.84 561.988c.42 1.479-.04 2.91-1.02 3.187-.98.278-2.12-.692-2.549-2.172-.415-1.486.042-2.91 1.027-3.19.977-.281 2.116.69 2.542 2.174v.001M254.029 537.49c.406 1.43-.006 2.806-.911 3.06-.907.257-1.976-.692-2.385-2.12-.403-1.438.004-2.806.913-3.064.905-.257 1.97.691 2.383 2.124M385.29 758.742c.549 1.416.236 2.863-.69 3.222-.925.362-2.128-.498-2.68-1.92-.548-1.424-.238-2.864.691-3.225.925-.361 2.123.499 2.679 1.923M385.299 642.579c.484 1.471.075 2.931-.9 3.25-.98.323-2.17-.612-2.657-2.081-.48-1.476-.078-2.932.905-3.255.975-.321 2.161.61 2.652 2.087v-.001M338.792 802.813c.508 1.393.198 2.79-.685 3.11-.884.321-2.016-.546-2.527-1.939-.506-1.401-.2-2.791.69-3.114.88-.323 2.009.544 2.522 1.943M259.018 771.05c.464 1.36.161 2.696-.665 2.975-.831.285-1.883-.587-2.351-1.947-.46-1.366-.163-2.697.67-2.981.825-.281 1.874.59 2.345 1.953h.001M215.32 695.581c.454 1.333.166 2.641-.636 2.917-.804.274-1.829-.586-2.286-1.92-.453-1.338-.168-2.642.639-2.918.801-.274 1.82.582 2.282 1.92l.001.001M212.338 586.657c.393 1.383.01 2.706-.845 2.948-.856.246-1.875-.677-2.27-2.06-.393-1.388-.015-2.705.847-2.95.853-.245 1.868.677 2.268 2.062" style="fill:none;stroke:#00ff4a;stroke-width:.666665;stroke-linecap:round;stroke-linejoin:round;stroke-miterlimit:4;stroke-dasharray:none;stroke-opacity:1;visibility:visible"/><path d="m361.868 808.32 4.708-.541 13.5-12.482 1.333-4.04" style="fill:none;stroke:#00ff4a;stroke-width:.999997;stroke-linecap:round;stroke-linejoin:round;stroke-miterlimit:500;stroke-dasharray:none;stroke-opacity:1;visibility:visible"/><path d="M357.8 806.083a.452.452 0 0 1-.018-.117c.001-.599 1.178-1.083 2.626-1.083.412 0 .8.04 1.146.107M367.3 802.438a.452.452 0 0 1-.018-.117c.001-.599 1.178-1.083 2.626-1.083.412 0 .8.039 1.146.107" style="fill:none;stroke:#00ff4a;stroke-width:.666665;stroke-linecap:round;stroke-linejoin:round;stroke-miterlimit:4;stroke-dasharray:none;stroke-opacity:1;visibility:visible"/><path d="m373.888 800.987-1.416-.582-.876.333s-.645.29-.604 1.06l-.02.377" style="fill:none;stroke:#00ff4a;stroke-width:.666665;stroke-linecap:round;stroke-linejoin:round;stroke-miterlimit:4;stroke-dasharray:none;stroke-opacity:1;visibility:visible"/><path d="M371.512 801.966s-1.374.855-3.312.104l-6.125 2.355s-.563.292-.604 1v.395" style="fill:none;stroke:#00ff4a;stroke-width:.666665;stroke-linecap:round;stroke-linejoin:round;stroke-miterlimit:4;stroke-dasharray:none;stroke-opacity:1;visibility:visible"/><path d="M371.763 802.987s-2.103-.977-4.041.543l-.543.457s-1.373.451-1.499 1.311c-.105.71 1.166 1.23 1.166 1.23l.458.544M366.284 806.977c0 .305-.606.552-1.354.552-.747 0-1.354-.247-1.354-.552 0-.307.607-.552 1.354-.552.748 0 1.354.245 1.354.552M362.012 805.674s-1.145.77-3.292.104l-1.145.375.041.792 3.46 1.354s1.935.083 2.977.542M219.098 720.841a2.943 2.943 0 0 1 .216-1.139c.47-1.189 1.568-1.866 2.45-1.514.552.221.89.789.948 1.472" style="fill:none;stroke:#00ff4a;stroke-width:.666665;stroke-linecap:round;stroke-linejoin:round;stroke-miterlimit:4;stroke-dasharray:none;stroke-opacity:1;visibility:visible"/><path d="M371.555 803.134s-1.333-.5-2.208-.19c-.876.316-.584.754.041.879l.626.769M228.62 717.674a2.943 2.943 0 0 1 .214-1.138c.472-1.19 1.569-1.867 2.452-1.516.55.222.888.791.947 1.474M221.149 718.206c.161.306.246.675.24 1.074M231.967 723.594c-.26.659-.853 1.039-1.322.856-.47-.191-.639-.874-.376-1.531.258-.657.851-1.037 1.32-.852.47.189.64.871.378 1.527M222.438 726.789c-.261.656-.853 1.039-1.323.852-.469-.188-.638-.87-.375-1.53.26-.654.851-1.034 1.32-.849.47.189.64.869.38 1.527h-.002M232.689 716.448a2.81 2.81 0 0 1-.162 1.609c-.473 1.19-1.57 1.868-2.45 1.519-.694-.276-1.047-1.104-.938-2.024M223.167 719.614a2.797 2.797 0 0 1-.16 1.61c-.475 1.19-1.573 1.868-2.453 1.518-.692-.276-1.044-1.104-.936-2.024" style="fill:none;stroke:#00ff4a;stroke-width:.666665;stroke-linecap:round;stroke-linejoin:round;stroke-miterlimit:4;stroke-dasharray:none;stroke-opacity:1;visibility:visible"/><path d="M230.67 715.04c.163.305.245.674.24 1.073M242.346 760.362s.104-1-.604-.856M218.973 720.988l-.77.249.102 4.355.626 2.373.187 1.793.063 3.272s.062.602.188.709l12.854 22.352s.354.541.812.729l2.355.938s1.02.374 1.228.626l1.125.958 3.087 1.208.747-.252M228.493 717.841l-5.73 1.916-1.373-.479-.585.146s.062 1.125-.875 1.75M245.306 758.966l5.979-2.063M254.222 757.092l-.063-1.19s.042-.726.604-.977M251.867 757.092l-.062-.602c-.079-.208-.245-.382-.582-.336" style="fill:none;stroke:#00ff4a;stroke-width:.666665;stroke-linecap:round;stroke-linejoin:round;stroke-miterlimit:4;stroke-dasharray:none;stroke-opacity:1;visibility:visible"/><path d="m254.889 755.612.729-.23v-.75l-4.625-1.832-3.438-3.167-12.354-21.396-1.438-5.27-.185-6.481-.481-.186-.875.27-1.31-.458-.607.188s.062 1.04-.854 1.708" style="fill:none;stroke:#00ff4a;stroke-width:.666665;stroke-linecap:round;stroke-linejoin:round;stroke-miterlimit:4;stroke-dasharray:none;stroke-opacity:1;visibility:visible"/><path d="m233.764 722.966-1.041.355.145 5.353.104.27 12.959 22.543.166.187 3.896 1.521 1-.396" style="fill:none;stroke:#00ff4a;stroke-width:.666665;stroke-linecap:round;stroke-linejoin:round;stroke-miterlimit:4;stroke-dasharray:none;stroke-opacity:1;visibility:visible"/><path d="m244.013 751.654-12.646-22-.166-.416-.063-1.562-.104-.459-1.459-2.979s.005-1.588-1.04-2.396c-.393-.302-1.058-.617-1.774-.5-2.666.438-3.686 3.875-3.623 5.042l-1.292 3.896-.104.478.041 1.522.104.437 12.896 22.437.314.376 1.123.416.48.084 3.834.542s1.396.52 3.583.374c.933-.062 1.923-.122 2.937-.688 1.98-1.104-.167-1.96-.167-1.96l-1.041-1.414s-.208-.208-.77-.396l-.71-.563s-.249-.23-.353-.27v-.001" style="fill:none;stroke:#00ff4a;stroke-width:.666665;stroke-linecap:round;stroke-linejoin:round;stroke-miterlimit:4;stroke-dasharray:none;stroke-opacity:1;visibility:visible"/><path d="m242.555 751.237.167.143.563.23 1.104 1.544s.896.271.311.646c-.582.374-1.73.292-2.25.02l-4.145-.5-.5-.187-.187-.188-12.23-21.25-.061-.313-.022-.686 1.375-4.23s-.098-.742.354-1.252c.157-.172.333-.5.667-.54 1.096-.137.958 1.147.958 1.147l1.586 3.208.018.685.084.294 12.208 21.229M242.23 759.685c-.644-.167-1.07-.445-1.07-.76 0-.508 1.086-.917 2.428-.917 1.15 0 2.115.302 2.365.706M250.075 753.854c.006.263-.569.49-1.281.506-.713.016-1.296-.188-1.301-.451-.004-.265.567-.49 1.28-.505.714-.018 1.297.188 1.302.45M240.578 757.212c.005.262-.57.488-1.281.505-.714.016-1.298-.188-1.302-.45-.005-.267.567-.494 1.28-.51.713-.016 1.297.189 1.302.455h.001M245.295 758.977c.456.163.74.393.74.643 0 .5-1.115.909-2.489.909-.676 0-1.29-.099-1.74-.26" style="fill:none;stroke:#00ff4a;stroke-width:.666665;stroke-linecap:round;stroke-linejoin:round;stroke-miterlimit:4;stroke-dasharray:none;stroke-opacity:1;visibility:visible"/><path d="M234.57 740.818c.456.44.55 1.083.21 1.432-.337.352-.981.28-1.44-.16-.454-.444-.548-1.084-.21-1.433.34-.352.983-.279 1.44.161M251.683 756.373c-.643-.167-1.07-.445-1.07-.76 0-.508 1.087-.917 2.429-.917 1.15 0 2.115.302 2.364.706M254.749 755.665c.456.164.74.393.74.644 0 .5-1.116.908-2.49.908-.677 0-1.289-.099-1.739-.26M242.015 759.468c.331-.26.955-.438 1.67-.438.342 0 .664.04.941.11" style="fill:none;stroke:#00ff4a;stroke-width:.666665;stroke-linecap:round;stroke-linejoin:round;stroke-miterlimit:4;stroke-dasharray:none;stroke-opacity:1;visibility:visible"/><path d="M251.469 756.154c.33-.26.954-.437 1.669-.437.343 0 .664.039.941.11M218.952 727.903l1.023-.333.04 2.062.916 3.355 12.396 21.604 2.75 2.561 1.146.459-1.02.355M235.879 742.848l-2.17.97-1.922-1.397.245-2.365 2.171-.968 1.924 1.399-.248 2.361M218.406 560.841a3.801 3.801 0 0 1-.096.531c-.352 1.379-1.408 2.3-2.359 2.055-.593-.154-1.005-.724-1.145-1.467M227.626 552.657c-.181.708-.736 1.178-1.24 1.05-.504-.132-.766-.808-.584-1.518.181-.708.738-1.176 1.241-1.046.502.13.764.806.583 1.514M217.855 555.273c-.182.708-.737 1.178-1.24 1.05-.505-.133-.769-.808-.585-1.518.181-.708.737-1.175 1.241-1.045.502.129.766.805.584 1.513" style="fill:none;stroke:#00ff4a;stroke-width:.666665;stroke-linecap:round;stroke-linejoin:round;stroke-miterlimit:4;stroke-dasharray:none;stroke-opacity:1;visibility:visible"/><path d="M217.1 560.596a3.773 3.773 0 0 1-.068.332c-.262 1.03-.919 1.804-1.631 2.027M228.183 558.23a4.007 4.007 0 0 1-.096.53c-.352 1.38-1.407 2.3-2.36 2.055-.592-.155-1.005-.725-1.144-1.467" style="fill:none;stroke:#00ff4a;stroke-width:.666665;stroke-linecap:round;stroke-linejoin:round;stroke-miterlimit:4;stroke-dasharray:none;stroke-opacity:1;visibility:visible"/><path d="M215.306 561.793a2.84 2.84 0 0 1 .196-1.298c.468-1.176 1.57-1.838 2.459-1.482.633.252.992.947.984 1.747M226.88 557.985a3.761 3.761 0 0 1-.07.332c-.263 1.03-.919 1.804-1.629 2.028" style="fill:none;stroke:#00ff4a;stroke-width:.666665;stroke-linecap:round;stroke-linejoin:round;stroke-miterlimit:4;stroke-dasharray:none;stroke-opacity:1;visibility:visible"/><path d="M225.085 559.181c-.04-.408.021-.857.194-1.298.468-1.176 1.571-1.838 2.461-1.483.632.253.99.947.981 1.747" style="fill:none;stroke:#00ff4a;stroke-width:.666665;stroke-linecap:round;stroke-linejoin:round;stroke-miterlimit:4;stroke-dasharray:none;stroke-opacity:1;visibility:visible"/><path d="m226.66 533.759-12.14 14.61s-.47.781-.388 1.195l.139 3.556s-.057 2.14-.279 2.721c.001 0-.305 1.084-.305 1.64l.14 4.36.499.195 1.248-.361s-.109-1.083.808-1.945l.11.61 1.335.42s.666.193 1.304-.03l6.223-1.75s-.028-1.137.75-1.832c-.001 0 .166.388.166.555l1.305.417s.78.195 1.307-.028l.721-.222-.166-6.778 1.222-4.61 7.695-9.252" style="fill:none;stroke:#00ff4a;stroke-width:.666665;stroke-linecap:round;stroke-linejoin:round;stroke-miterlimit:4;stroke-dasharray:none;stroke-opacity:1;visibility:visible"/><path d="m214.189 555.173 1.056-.305-.056-1.444.777-3.056 11.807-14.279 3.555-.916M231.575 540.887l3.523-4.235" style="fill:none;stroke:#00ff4a;stroke-width:.666665;stroke-linecap:round;stroke-linejoin:round;stroke-miterlimit:4;stroke-dasharray:none;stroke-opacity:1;visibility:visible"/><path d="m216.826 549.425.041.96s-.02.351.126.477l1.521 3.251s.173 2.178 1.624 3c1.584.895 4.75-.353 5-4.729l1.313-4.041s.187-.396.104-.543l-.02-.853 2.573-3.095" style="fill:none;stroke:#00ff4a;stroke-width:.666665;stroke-linecap:round;stroke-linejoin:round;stroke-miterlimit:4;stroke-dasharray:none;stroke-opacity:1;visibility:visible"/><path d="m231.7 535.655-11.142 13.374s-.128.314-.065 1.022l1.645 3.499s-.181 1.142.77 1.27c.919.127 1.316-1.144 1.272-1.79l1.417-4.334v-.79l.082-.211.634-.778" style="fill:none;stroke:#00ff4a;stroke-width:.666665;stroke-linecap:round;stroke-linejoin:round;stroke-miterlimit:4;stroke-dasharray:none;stroke-opacity:1;visibility:visible"/><path d="M227.577 543.305a.41.41 0 0 0 .221.166M231.338 541.13a.413.413 0 0 0-.065-.266M228.156 543.577l-.36-.108M231.297 541.5l.041-.37M226.915 542.26l.355-1.116M227.27 541.144l2.175-1.437M229.444 539.706l1.167.112M227.933 542.188a6.895 6.895 0 0 0 1.156-.612 6.803 6.803 0 0 0 1.016-.825M227.577 543.305c.25-.318.373-.714.357-1.117M230.105 540.75c.362.178.777.218 1.168.114M230.61 539.818l.664 1.044M226.915 542.26l.663 1.044M229.444 539.706l.661 1.044M227.27 541.144l.664 1.043M231.24 541.275c.25.38-.288 1.168-1.197 1.76-.911.592-1.849.764-2.097.382" style="fill:none;stroke:#00ff4a;stroke-width:.666665;stroke-linecap:round;stroke-linejoin:round;stroke-miterlimit:2;stroke-dasharray:none;stroke-opacity:1;visibility:visible"/><path d="m319.152 837.562-11.409 6.028M318.773 830.769l-1.051 2.405M408.876 770.035l-.031 9.777M409.107 699.367l-.036 10.223M403.285 777.59l5.591-7.555M409.337 628.034l-.034 10.445M403.424 707.812l5.683-8.445M403.585 626.924l5.792-11.557M409.303 638.479l.034-10.445M147.68 545.778l-4.32 4.44M214.189 555.173l-2.865-10.111M148.305 561.32l-4.6-2.271M154.687 548.096l-4.92-1.56" style="fill:none;stroke:#00ff4a;stroke-width:1.99999;stroke-linecap:round;stroke-linejoin:round;stroke-miterlimit:500;stroke-dasharray:none;stroke-opacity:1;visibility:visible"/><path d="m228.156 543.577 6.817-2.237" style="fill:none;stroke:#00ff4a;stroke-width:.999997;stroke-linecap:round;stroke-linejoin:round;stroke-miterlimit:500;stroke-dasharray:none;stroke-opacity:1;visibility:visible"/><path d="m321.827 617.404-5.312-3.235M151.482 760.133l.315 8.166M163.807 783.213l-5.522-2.335M215.306 561.793l-7.632-14.823M151.797 768.299l-.315-8.166M324.415 833.203l-5.263 4.359M319.152 837.562l-.095-7.771M244.013 751.654l5.627-14.772M304.756 596.13l-.129-9.643M321.827 617.404l3.395-.126M320.965 567.26l3.9 13.321" style="fill:none;stroke:#00ff4a;stroke-width:1.99999;stroke-linecap:round;stroke-linejoin:round;stroke-miterlimit:500;stroke-dasharray:none;stroke-opacity:1;visibility:visible"/><path d="m408.876 770.035-5.591 7.555M409.107 699.367l-5.683 8.445M403.285 777.59l.02-10M403.585 626.924l-.019 10M403.424 707.812l.02-10.221M409.337 628.034l-5.732-11.11M403.566 636.924l.019-10M321.725 609.192l.039 3.188M321.764 612.38l-.04-3.188M310.003 596.5l11.519-3.797M152.153 540.143l2.284.708M147.68 545.778l10.396 3.229M149.767 546.536l-6.587-9.176M152.73 540.681l5.097 1.222M143.704 559.049l4.601 2.27M222.16 532.299l-10.313 2.771M218.952 727.903l2.126 9.007M152.398 760.724l3.367-1.634M241.806 760.269l-14.604-4.262M161.226 776.357l5.267 1.525M236.203 757.966l-4.522-2.792M211.847 535.07l10.313-2.771M226.313 546.917l-14.195-3.307M227.577 543.305l-6.396-10.654M228.721 558.147l1.356-9.348M254.889 755.612l13.458-13.938M324.745 568.36l-3.625 13.309M240.578 757.212l-12.042 5.587M236.203 757.966l-17.856-5.813M161.226 776.357l-4.858-2.808M152.398 760.724l-1.392.5M154.546 767.208l-1.345.482M161.226 776.357l-1.39.497M163.385 782.87l-1.345.48M152.73 540.681l-1.512.414M154.46 547.636l-1.463.4M144.494 551.068l-1.485.449M146.39 557.891l-1.437.434M324.415 833.203l.035 2.297M319.152 837.562l5.529 13.383M319.201 841.922l-.187-15.519M324.45 835.5l-.035-2.297M320.302 830.135l4.045-1.545M403.585 626.924l-17.759-5.124M373.951 800.861l7.791 1.564M320.302 830.135l-1.529.634M322.969 837.01l-1.479.613M310.837 839.037l-1.526.614M313.407 845.878l-1.472.592M320.24 613.54l-1.602.527M307.955 589.165l-1.666.505M310.003 596.5l-1.61.488M381.742 802.425l-.333-14.084" style="fill:none;stroke:#00ff4a;stroke-width:.999997;stroke-linecap:round;stroke-linejoin:round;stroke-miterlimit:500;stroke-dasharray:none;stroke-opacity:1;visibility:visible"/><path d="m324.745 568.36 12.095-6.372M357.8 806.083l-19.008-3.27M338.792 802.813l19.008 3.27M361.471 805.82l4.813 1.157M381.742 802.425l-17.689 6.416M222.438 726.789l9.529-3.195M231.967 723.594l-9.529 3.195M250.075 753.854l4.147 3.238M218.952 727.903l14.812-4.937M250.075 753.854l-6.062-2.2M234.57 740.818l7.985 10.419M251.867 757.092l-1.792-3.238M244.013 751.654l6.062 2.2M250.075 753.854l-9.497 3.358M242.555 751.237l-7.985-10.419M218.973 720.988l-.021 6.915M231.68 755.174l4.523 2.792M236.203 757.966l-.324-15.118M217.855 555.273l9.771-2.616M217.855 555.273l9.771-2.616M227.626 552.657l-9.771 2.616M227.626 552.657l-9.771 2.616M211.324 545.062l4.077 17.893M231.297 541.5l-4.417 16.485M231.575 540.887l-4.915-7.128M231.575 540.887l6.779-3.657M211.324 545.062l2.865 10.111M227.577 543.305l7.52-6.653M218.945 560.76l-2.119-11.335M227.577 543.305l-1.264 3.612" style="fill:none;stroke:#00ff4a;stroke-width:.666665;stroke-linecap:round;stroke-linejoin:round;stroke-miterlimit:4;stroke-dasharray:none;stroke-opacity:1;visibility:visible"/><path d="m409.337 628.034 10.239-16.777" style="fill:none;stroke:red;stroke-width:1.99999;stroke-linecap:round;stroke-linejoin:round;stroke-miterlimit:500;stroke-dasharray:none;stroke-opacity:1;visibility:visible"/><path d="m356.517 612.832-1.649-5.47M354.87 612.035l-9.335-1.84M360.7 629.755l5.751-1.81M381.41 788.341l-14.188-6.146" style="fill:none;stroke:#00ff4a;stroke-width:1.99999;stroke-linecap:round;stroke-linejoin:round;stroke-miterlimit:500;stroke-dasharray:none;stroke-opacity:1;visibility:visible"/><path d="m218.973 720.988 15.521 4.436M354.87 612.035l-12.98-.694M360.7 629.755l2.146-.685" style="fill:none;stroke:#00ff4a;stroke-width:.999997;stroke-linecap:round;stroke-linejoin:round;stroke-miterlimit:500;stroke-dasharray:none;stroke-opacity:1;visibility:visible"/><path d="m385.826 621.8 10.089 4.419M403.566 636.924l-18.267 5.655M218.973 720.988l2.416-1.708M218.973 720.988l11.937-4.875M228.721 558.147l-11.621 2.449M227.626 552.657l-2.445 7.688" style="fill:none;stroke:#00ff4a;stroke-width:.666665;stroke-linecap:round;stroke-linejoin:round;stroke-miterlimit:4;stroke-dasharray:none;stroke-opacity:1;visibility:visible"/></svg>