<svg xmlns="http://www.w3.org/2000/svg" baseProfile="full" height="1122.52" preserveAspectRatio="xMinYMin meet" style="width:912px;height:1303px" width="793.701" xml:space="preserve"><path d="m194.64 421.827-.012.068.024.607.165.565.297.528.434.492.574.45.704.388.802.302.87.216.915.125.937.035.937-.06.915-.152.868-.247.803-.337.716-.439.534-.476.397-.514.257-.554.082-.444M194.641 420.635l-.011 1.23M205.886 422.32l.014-1.232" style="fill:none;stroke:red;stroke-width:1.6;stroke-linecap:round;stroke-linejoin:round;stroke-miterlimit:4;stroke-dasharray:none;stroke-opacity:1;visibility:visible"/><path d="m340.475 512.012-.072-1.402" style="fill:none;stroke:red;stroke-width:.999997;stroke-linecap:round;stroke-linejoin:round;stroke-miterlimit:4;stroke-dasharray:none;stroke-opacity:1;visibility:visible"/><path d="m320.427 333.693.735-2.371-.427-10.483M320.427 333.692l7.263 178.264M327.687 511.687l.014.432.445 1.119.299.498.433.459.987.49.74.361.845.269.92.181.971.095 1.001.003.998-.08.98-.167.933-.252.871-.335.786-.426.685-.54.441-.519.291-.551.137-.576-.004-.176" style="fill:none;stroke:red;stroke-width:1.6;stroke-linecap:round;stroke-linejoin:round;stroke-miterlimit:4;stroke-dasharray:none;stroke-opacity:1;visibility:visible"/><path d="m235.746 237.517 86.284 51.803s11.413 6.015 11.148 31.066l7.286 191.762" style="fill:none;stroke:red;stroke-width:1.6;stroke-linecap:round;stroke-linejoin:round;stroke-miterlimit:4;stroke-dasharray:none;stroke-opacity:1;visibility:visible"/><path d="m236.059 237.612-1.609-.813-1.903-.711-2.19-.591-1.822-.357-1.965-.27-2.09-.176-2.199-.078M200.786 225.228l-5.974 195.384M205.79 421.09l5.791-173.706M212.105 231.622l.212-6.357M212.316 225.264l.032-2.674M200.798 221.274l.03 1.616-.043 2.336M169.384 55.3l1.44 7.313M182.302 60.502l-1.436-7.312M192.273 171.5l3.341 16.922M170.824 62.613 192.273 171.5M204.305 174.393 182.302 60.501M230.68 247.744l76.826 46.834s12.728 8.216 13.229 26.262M212.574 246.61l4.37-.313 4.602-.237M222.287 234.613l-4.805-.885-4.164-.851" style="fill:none;stroke:red;stroke-width:1.6;stroke-linecap:round;stroke-linejoin:round;stroke-miterlimit:4;stroke-dasharray:none;stroke-opacity:1;visibility:visible"/><path d="m221.546 246.06 1.692.037 1.567.113 1.418.175 1.257.227 1.081.265.908.29.73.301.557.309" style="fill:none;stroke:red;stroke-width:1.6;stroke-linecap:round;stroke-linejoin:round;stroke-miterlimit:4;stroke-dasharray:none;stroke-opacity:1;visibility:visible"/><path d="m233.185 243.008.353.449.187.667.073.9-.005 1.038-.043.915-.056.703-.09.534-.176.327-.333.019-.465-.275-.503-.457-.522-.652-.47-.88-.235-.974.065-.869.298-.708.497-.55.643-.312.612.034.17.092M213.328 232.888l-.409-.133-.391-.285-.238-.311-.12-.278-.048-.189-.017-.064M211.557 247.433l-.007.007.008-.091.093-.21.234-.264.36-.211.353-.055" style="fill:none;stroke:red;stroke-width:.999997;stroke-linecap:round;stroke-linejoin:round;stroke-miterlimit:4;stroke-dasharray:none;stroke-opacity:1;visibility:visible"/><path d="M180.809 53.202v.018l-.48.147-.767.188-.878.195-.876.186M176.04 53.861l1.55-.269 1.48-.239 1.144-.157.596-.044M177.808 53.936l-.963.195-1.207.233-1.432.264-1.556.272-1.484.239-1.142.156-.59.042.01-.049M206.835 186.524l-2.53-12.131M205.886 422.32l-.164.52-.342.516-.509.478-.654.42-.787.35-.885.267-.962.183-1.002.082-1.015-.014-.99-.112-.94-.207-.85-.295-.741-.372-.605-.438-.447-.49-.279-.525-.101-.543.017-.276" style="fill:none;stroke:red;stroke-width:1.6;stroke-linecap:round;stroke-linejoin:round;stroke-miterlimit:4;stroke-dasharray:none;stroke-opacity:1;visibility:visible"/><path d="m177.442 53.979-.832.168-1.044.201-1.233.228-1.345.235-1.282.205-.985.136-.511.036.01-.06.42-.128.665-.163.76-.167.755-.16.83-.169 1.037-.2 1.229-.228 1.339-.233 1.277-.205.988-.136.516-.039-.003.06-.415.128-.661.161-.759.171-.756.159" style="fill:none;stroke:red;stroke-width:1.6;stroke-linecap:round;stroke-linejoin:round;stroke-miterlimit:4;stroke-dasharray:none;stroke-opacity:1;visibility:visible"/><path d="m324.123 313.469.043-.92-.173-.942-.367-.802-.526-.671-.67-.524-.667-.25-.365.07-.153.304.069.47.252.646.424.892.387.893.296.915.165.73.122.601.157.382.223.024.269-.302.278-.583.236-.933M212.105 231.622l-.006.028-.129.464-.056.17-.307.898-.284.844-.272.864-.476 1.802-.372 1.942-.223 1.902-.06.978v1.939l.182 1.827.189.894.26.792.405.715.287.192.227-.123.107-.366" style="fill:none;stroke:red;stroke-width:.999997;stroke-linecap:round;stroke-linejoin:round;stroke-miterlimit:4;stroke-dasharray:none;stroke-opacity:1;visibility:visible"/><path d="M195.204 188.161s-1.32.708-1.48 1.45l1.756 9.121" style="fill:none;stroke:red;stroke-width:1.6;stroke-linecap:round;stroke-linejoin:round;stroke-miterlimit:4;stroke-dasharray:none;stroke-opacity:1;visibility:visible"/><path d="M195.049 209.477s1.597 5.363 6.286 7.828c.604.383 5.44 3.555 18.976-1.296" style="fill:none;stroke:red;stroke-width:.999997;stroke-linecap:round;stroke-linejoin:round;stroke-miterlimit:500;stroke-dasharray:none;stroke-opacity:1;visibility:visible"/><path d="M193.988 192.072s-1.983 2.254-1.783 4.574l3.22 14.34" style="fill:none;stroke:red;stroke-width:1.6;stroke-linecap:round;stroke-linejoin:round;stroke-miterlimit:4;stroke-dasharray:none;stroke-opacity:1;visibility:visible"/><path d="M194.756 208.445s-.264 1.83.422 3.827c0 0 1.63 10.813 14.663 10.005-.001 0 7.378-.65 11.541-3.035l-.155-1.504-.54-.22-2.077-13.828s-.365-1.302-.63-1.586l-.722-.77s-4.639-5.309-6.649-8.089" style="fill:none;stroke:red;stroke-width:1.6;stroke-linecap:round;stroke-linejoin:round;stroke-miterlimit:4;stroke-dasharray:none;stroke-opacity:1;visibility:visible"/><path d="M194.376 192.7s-2.182 2.176-.578 5.225c0 0 2.683 3.49 8.983 4.441-.001 0 8.356.744 13.446-.864" style="fill:none;stroke:red;stroke-width:.999997;stroke-linecap:round;stroke-linejoin:round;stroke-miterlimit:500;stroke-dasharray:none;stroke-opacity:1;visibility:visible"/><path d="M207.402 185.828s1.01.306 1.27.652c.001.001 2.875 12.245 3.026 15.165" style="fill:none;stroke:red;stroke-width:1.6;stroke-linecap:round;stroke-linejoin:round;stroke-miterlimit:4;stroke-dasharray:none;stroke-opacity:1;visibility:visible"/><path d="M207.878 186.228c-.375.892-3.033 2.017-6.373 2.641-3.135.584-5.868.544-6.75-.037M221.02 217.62s-6.092 3.077-13.244 3.049c-6.059-.02-9.976-3.247-12.236-7.063M193.806 199.832c-.01.272 5.772 6.858 22.924 3.052M211.17 196.925c.753 1.21 1.885 2.913 2.963 4.103" style="fill:none;stroke:red;stroke-width:.999997;stroke-linecap:round;stroke-linejoin:round;stroke-miterlimit:500;stroke-dasharray:none;stroke-opacity:1;visibility:visible"/><path d="m340.464 512.148-.061-1.538" style="fill:none;stroke:red;stroke-width:.999997;stroke-linecap:round;stroke-linejoin:round;stroke-miterlimit:4;stroke-dasharray:none;stroke-opacity:1;visibility:visible"/><path d="m212.105 231.622.243-9.032M212.316 225.264l-11.518-3.99" style="fill:none;stroke:red;stroke-width:1.6;stroke-linecap:round;stroke-linejoin:round;stroke-miterlimit:4;stroke-dasharray:none;stroke-opacity:1;visibility:visible"/><path d="m230.68 247.744 2.505-4.735" style="fill:none;stroke:red;stroke-width:.999997;stroke-linecap:round;stroke-linejoin:round;stroke-miterlimit:4;stroke-dasharray:none;stroke-opacity:1;visibility:visible"/><path d="m177.442 53.979-1.402-.118" style="fill:none;stroke:red;stroke-width:1.6;stroke-linecap:round;stroke-linejoin:round;stroke-miterlimit:4;stroke-dasharray:none;stroke-opacity:1;visibility:visible"/><path d="m195.425 210.986-.376-1.509M193.988 192.072l-.182 7.76" style="fill:none;stroke:red;stroke-width:.999997;stroke-linecap:round;stroke-linejoin:round;stroke-miterlimit:500;stroke-dasharray:none;stroke-opacity:1;visibility:visible"/><path d="m511.425 254.977.248-.159 1.247-.348 1.543-.09 1.866.216.956.219M515.673 265.217l.222-.088 1.093-.867 1.185-1.459.672-1.143.539-1.198.503-1.57" style="fill:none;stroke:#00ff4a;stroke-width:1.6;stroke-linecap:round;stroke-linejoin:round;stroke-miterlimit:4;stroke-dasharray:none;stroke-opacity:1;visibility:visible" visibility="hidden"/><path d="m517.285 254.814.462.382.429.429.396.473.359.51.316.542.262.568.216.582.162.593M511.405 254.941l-.638.336-4.115 2.087-4.262 2.059-4.415 2.037-4.559 2.003-4.715 1.975-4.85 1.939-4.998 1.903-5.136 1.869-5.273 1.83-5.412 1.787-5.538 1.745-5.67 1.703-5.794 1.656-5.916 1.609-6.036 1.555-6.148 1.511-6.256 1.455-6.366 1.402-6.465 1.348-6.563 1.289-6.657 1.234-6.745 1.173-6.831 1.114-6.363.97M378.938 305.818l5.182-.804 6.956-1.152 6.876-1.215 6.79-1.28 6.697-1.337 6.607-1.4 6.508-1.459 6.406-1.513 6.3-1.572 6.192-1.628 6.075-1.678 5.961-1.734 5.839-1.784 5.716-1.835 5.59-1.88 5.459-1.933 5.328-1.973 5.193-2.022 5.06-2.059 4.92-2.11 4.774-2.144 4.637-2.185 4.49-2.223 3.186-1.66" style="fill:none;stroke:#00ff4a;stroke-width:1.6;stroke-linecap:round;stroke-linejoin:round;stroke-miterlimit:4;stroke-dasharray:none;stroke-opacity:1;visibility:visible" visibility="hidden"/><path d="m375.434 301.363 1.024.814.914.825.718.723.585.674.545.848.034.439-.414.133-.718-.159-1.25-.51-1.031-.516-1.061-.61-.758-.559M372.474 301.053l.266-1.11.486-1.133.553-1.08.833-1.505.58-.99.379-.584.141-.113-.076.315-.33.813-.684 1.417-.07.138" style="fill:none;stroke:#00ff4a;stroke-width:.999997;stroke-linecap:round;stroke-linejoin:round;stroke-miterlimit:4;stroke-dasharray:none;stroke-opacity:1;visibility:visible" visibility="hidden"/><path d="m374.551 297.22.136.407.461 1.794.143.806.144 1.136" style="fill:none;stroke:#00ff4a;stroke-width:.999997;stroke-linecap:round;stroke-linejoin:round;stroke-miterlimit:4;stroke-dasharray:none;stroke-opacity:1;visibility:visible" visibility="hidden"/><path d="m374.847 296.966-.03.061-.637 1.375" style="fill:none;stroke:#00ff4a;stroke-width:.999997;stroke-linecap:round;stroke-linejoin:round;stroke-miterlimit:4;stroke-dasharray:none;stroke-opacity:1;visibility:visible" visibility="hidden"/><path d="m375.61 294.762.018-.075-.13.103-.37.561-.56.96-.813 1.469-.535 1.054-.47 1.11-.168.691M374.236 303.575l.527.392 1.039.603 1.012.508 1.221.501.7.158.395-.13-.04-.4" style="fill:none;stroke:#00ff4a;stroke-width:1.6;stroke-linecap:round;stroke-linejoin:round;stroke-miterlimit:4;stroke-dasharray:none;stroke-opacity:1;visibility:visible" visibility="hidden"/><path d="m374.432 297.297.87 4.069M375.301 301.366l.011.001.009.003H375.375l.02-.003.02-.001.02-.003M374.432 297.297l.008-.014.006-.012.012-.011.014-.01.018-.011.02-.011.02-.003.02-.005" style="fill:none;stroke:#00ff4a;stroke-width:.999997;stroke-linecap:round;stroke-linejoin:round;stroke-miterlimit:4;stroke-dasharray:none;stroke-opacity:1;visibility:visible" visibility="hidden"/><path d="m375.302 301.366-.283-1.906-.452-1.76-.135-.404" style="fill:none;stroke:#00ff4a;stroke-width:.999997;stroke-linecap:round;stroke-linejoin:round;stroke-miterlimit:4;stroke-dasharray:none;stroke-opacity:1;visibility:visible" visibility="hidden"/><path d="M511.676 256.917c.461-.012.85.217.864.515.016.293-.348.542-.81.551-.462.012-.853-.216-.866-.51-.014-.296.349-.543.812-.556" style="fill:none;stroke:#00ff4a;stroke-width:.666665;stroke-linecap:round;stroke-linejoin:round;stroke-miterlimit:4;stroke-dasharray:none;stroke-opacity:1;visibility:visible" visibility="hidden"/><path d="m528.363 254.907 17.274-14.539 1.286 7.052 36.87-6.728" style="fill:none;stroke:#00ff4a;stroke-width:.999997;stroke-linecap:round;stroke-linejoin:round;stroke-miterlimit:4;stroke-dasharray:none;stroke-opacity:1;visibility:visible" visibility="hidden"/><path d="m195.049 209.477.431-10.745" style="fill:none;stroke:red;stroke-width:1.6;stroke-linecap:round;stroke-linejoin:round;stroke-miterlimit:4;stroke-dasharray:none;stroke-opacity:1;visibility:visible"/></svg>