<svg xmlns="http://www.w3.org/2000/svg" baseProfile="full" height="1122.52" preserveAspectRatio="xMinYMin meet" style="width:602px;height:832px" width="793.701" xml:space="preserve"><path d="M145.314 264.294 139.99 438.38M149.774 438.807l5.158-154.774M155.397 269.989l.19-5.664M155.588 264.322l.03-2.965M145.306 259.843l.044 2.364-.036 2.084M117.333 112.885l1.283 6.516M128.842 117.521l-1.278-6.513M137.725 216.418l2.755 13.936M118.616 119.401l19.109 97.017M148.446 219l-19.604-101.48M139.835 439.463l-.01.06.02.539.15.505.265.47.385.439.513.4.624.344.718.271.776.193.814.112.836.031.834-.055.814-.134.774-.22.712-.302.64-.39.478-.422.352-.461.23-.492.073-.396M139.837 438.4l-.01 1.096M149.856 439.9l.013-1.096M382.004 299.346l.222-.141 1.112-.31 1.372-.08 1.664.191.854.196M385.791 308.471l.195-.078.977-.774 1.055-1.299.598-1.02.482-1.063.445-1.399M387.228 299.203l.41.337.382.383.354.423.318.456.28.481.235.507.196.519.14.529M381.986 299.314l-.568.3-3.668 1.86-3.795 1.835-3.932 1.816-4.065 1.784-4.199 1.757-4.323 1.73-4.453 1.696-4.579 1.665-4.697 1.628-4.819 1.593-4.937 1.557-5.051 1.516-5.159 1.475-5.271 1.435-5.375 1.388-5.48 1.344-5.574 1.296-5.671 1.25-5.76 1.198-5.848 1.15-5.93 1.1-6.009 1.044-6.091.995-3.073.467M264.658 344.54l3.924-.61 6.197-1.027 6.126-1.083 6.049-1.138 5.97-1.196 5.884-1.244 5.801-1.3 5.705-1.35 5.612-1.399 5.517-1.447 5.41-1.499 5.313-1.545 5.2-1.588 5.093-1.636 4.983-1.676 4.864-1.719 4.748-1.761 4.628-1.799 4.508-1.838 4.38-1.878 4.257-1.912 4.13-1.948 4.001-1.977 2.842-1.481" style="fill:none;stroke:red;stroke-width:1.6;stroke-linecap:round;stroke-linejoin:round;stroke-miterlimit:4;stroke-dasharray:none;stroke-opacity:1;visibility:visible"/><path d="m156.489 271.117-.365-.12-.348-.252-.212-.279-.107-.245-.044-.171-.016-.056M154.91 284.075l-.008.008.008-.08.084-.19.208-.235.32-.185.315-.053" style="fill:none;stroke:red;stroke-width:.999997;stroke-linecap:round;stroke-linejoin:round;stroke-miterlimit:4;stroke-dasharray:none;stroke-opacity:1;visibility:visible"/><path d="M127.512 111.016v.017l-.427.13-.683.169-.784.173-.781.167M123.265 111.604l1.38-.24 1.317-.21 1.022-.141.528-.042M124.837 111.672l-.856.172-1.076.208-1.276.237-1.388.242-1.32.212-1.019.137-.522.039.008-.044M150.47 228.696 148.446 219M149.856 439.9l-.146.466-.305.458-.453.426-.583.374-.701.312-.788.24-.858.159-.892.076-.905-.013-.883-.099-.836-.185-.756-.264-.662-.329-.539-.391-.399-.438-.248-.466-.088-.484.014-.246" style="fill:none;stroke:red;stroke-width:1.6;stroke-linecap:round;stroke-linejoin:round;stroke-miterlimit:4;stroke-dasharray:none;stroke-opacity:1;visibility:visible"/><path d="m124.512 111.708-.739.15-.93.179-1.101.203-1.198.21-1.14.184-.88.118-.455.035.01-.055.374-.115.593-.142.676-.152.672-.14.74-.15.924-.178 1.098-.205 1.189-.207 1.139-.183.88-.12.461-.036-.003.055-.37.111-.588.147-.678.148-.674.143" style="fill:none;stroke:red;stroke-width:1.6;stroke-linecap:round;stroke-linejoin:round;stroke-miterlimit:4;stroke-dasharray:none;stroke-opacity:1;visibility:visible"/><path d="m155.397 269.989-.005.024-.115.416-.05.15-.272.799-.253.752-.245.77-.421 1.608-.334 1.729-.198 1.693-.055.875v1.725l.164 1.628.17.797.228.706.366.638.255.171.201-.111.093-.326" style="fill:none;stroke:red;stroke-width:.999997;stroke-linecap:round;stroke-linejoin:round;stroke-miterlimit:4;stroke-dasharray:none;stroke-opacity:1;visibility:visible"/><path d="M382.447 301.27c.44-.01.81.208.825.49.016.28-.33.517-.772.528-.444.011-.813-.205-.826-.486-.014-.284.333-.519.773-.532" style="fill:none;stroke:red;stroke-width:.666665;stroke-linecap:round;stroke-linejoin:round;stroke-miterlimit:4;stroke-dasharray:none;stroke-opacity:1;visibility:visible"/><path d="M252.965 338.96c1.112-.154 2.232 1.095 2.51 2.786.279 1.696-.393 3.196-1.502 3.352-1.107.156-2.233-1.09-2.508-2.79-.279-1.688.395-3.19 1.5-3.346v-.002" style="fill:none;stroke:red;stroke-width:.999997;stroke-linecap:round;stroke-linejoin:round;stroke-miterlimit:4;stroke-dasharray:none;stroke-opacity:1;visibility:visible"/><path d="m255.5 342.83.05-.916-.18-.93-.376-.786-.543-.641-.691-.498-.705-.213M254.64 344.687l.3-.324.302-.598.258-.935" style="fill:none;stroke:red;stroke-width:1.33333;stroke-linecap:round;stroke-linejoin:round;stroke-miterlimit:500;stroke-dasharray:none;stroke-opacity:1;visibility:visible"/><path d="M140.394 229.92s-1.184.639-1.33 1.307l1.58 8.201" style="fill:none;stroke:red;stroke-width:1.6;stroke-linecap:round;stroke-linejoin:round;stroke-miterlimit:4;stroke-dasharray:none;stroke-opacity:1;visibility:visible"/><path d="M140.256 249.092s1.436 4.823 5.654 7.04c.54.345 4.891 3.198 17.066-1.164" style="fill:none;stroke:red;stroke-width:.999997;stroke-linecap:round;stroke-linejoin:round;stroke-miterlimit:500;stroke-dasharray:none;stroke-opacity:1;visibility:visible"/><path d="M139.301 233.44s-1.783 2.026-1.603 4.113l2.896 12.896" style="fill:none;stroke:red;stroke-width:1.6;stroke-linecap:round;stroke-linejoin:round;stroke-miterlimit:4;stroke-dasharray:none;stroke-opacity:1;visibility:visible"/><path d="M139.992 248.164s-.238 1.644.381 3.44c0 .001 1.464 9.726 13.185 9.001 0-.002 6.636-.585 10.38-2.732l-.138-1.351-.487-.198-1.868-12.436s-.33-1.172-.565-1.428l-.652-.691s-4.171-4.775-5.98-7.275" style="fill:none;stroke:red;stroke-width:1.6;stroke-linecap:round;stroke-linejoin:round;stroke-miterlimit:4;stroke-dasharray:none;stroke-opacity:1;visibility:visible"/><path d="M139.65 234.004s-1.962 1.956-.52 4.698c0 0 2.414 3.14 8.08 3.995 0 0 7.514.668 12.092-.777" style="fill:none;stroke:red;stroke-width:.999997;stroke-linecap:round;stroke-linejoin:round;stroke-miterlimit:500;stroke-dasharray:none;stroke-opacity:1;visibility:visible"/><path d="M151.366 227.822s.908.278 1.142.59c0 0 2.584 11.008 2.72 13.637" style="fill:none;stroke:red;stroke-width:1.6;stroke-linecap:round;stroke-linejoin:round;stroke-miterlimit:4;stroke-dasharray:none;stroke-opacity:1;visibility:visible"/><path d="M151.793 228.184c-.336.802-2.728 1.814-5.73 2.374-2.821.527-5.281.49-6.072-.033M163.613 256.417s-5.48 2.766-11.913 2.741c-5.449-.018-8.971-2.92-11.003-6.352M139.138 240.418c-.008.244 5.192 6.167 20.616 2.744M154.754 237.805c.678 1.087 1.696 2.619 2.664 3.688" style="fill:none;stroke:red;stroke-width:.999997;stroke-linecap:round;stroke-linejoin:round;stroke-miterlimit:500;stroke-dasharray:none;stroke-opacity:1;visibility:visible"/><path d="m270.786 520.587-.064-1.257" style="fill:none;stroke:red;stroke-width:.999997;stroke-linecap:round;stroke-linejoin:round;stroke-miterlimit:4;stroke-dasharray:none;stroke-opacity:1;visibility:visible"/><path d="m252.849 361.038.656-2.12-.38-9.379M252.85 361.038l6.496 159.497M259.345 520.296l.012.387.397.999.268.447.387.411.884.439.661.32.757.244.823.16.87.085.893.003.896-.071.876-.15.834-.226.779-.299.705-.382.611-.481.395-.467.26-.492.124-.515-.007-.157" style="fill:none;stroke:red;stroke-width:1.6;stroke-linecap:round;stroke-linejoin:round;stroke-miterlimit:4;stroke-dasharray:none;stroke-opacity:1;visibility:visible"/><path d="m177.362 275.073 76.919 46.265s10.214 5.381 9.976 27.795l6.52 171.575M177.363 275.073l-1.441-.728-1.702-.635-1.96-.53-1.63-.319-1.758-.24-1.872-.161-1.964-.067" style="fill:none;stroke:red;stroke-width:1.6;stroke-linecap:round;stroke-linejoin:round;stroke-miterlimit:4;stroke-dasharray:none;stroke-opacity:1;visibility:visible"/><path d="m172.549 284.14 68.74 41.901s6.686 4.318 10.014 13.6M252.77 345.498c.192 1.28.315 2.627.355 4.041M165.04 272.39l-4.3-.792-3.726-.763" style="fill:none;stroke:red;stroke-width:1.6;stroke-linecap:round;stroke-linejoin:round;stroke-miterlimit:4;stroke-dasharray:none;stroke-opacity:1;visibility:visible"/><path d="m164.377 282.631 1.513.034 1.403.101 1.27.156 1.121.203.969.237.813.259.652.272.499.274" style="fill:none;stroke:red;stroke-width:1.6;stroke-linecap:round;stroke-linejoin:round;stroke-miterlimit:4;stroke-dasharray:none;stroke-opacity:1;visibility:visible"/><path d="m156.349 283.123 3.91-.28 4.121-.212" style="fill:none;stroke:red;stroke-width:1.6;stroke-linecap:round;stroke-linejoin:round;stroke-miterlimit:4;stroke-dasharray:none;stroke-opacity:1;visibility:visible"/><path d="m174.79 279.902.316.4.168.598.066.805-.006.93-.037.815-.05.632-.083.476-.156.293-.298.02-.417-.249-.448-.409-.47-.583-.419-.787-.207-.873.056-.776.267-.633.442-.492.578-.282.546.033.152.082M157.025 270.846l-.368-.12-.348-.255-.213-.278-.107-.247-.044-.17-.016-.056M155.44 283.86l-.007.005.007-.08.084-.187.208-.237.324-.188.314-.053" style="fill:none;stroke:red;stroke-width:.999997;stroke-linecap:round;stroke-linejoin:round;stroke-miterlimit:4;stroke-dasharray:none;stroke-opacity:1;visibility:visible"/><path d="m155.929 269.714-.005.024-.116.416-.05.152-.274.804-.254.755-.244.773-.425 1.612-.333 1.737-.2 1.703-.055.875v1.734l.165 1.634.17.801.23.71.364.637.258.171.2-.108.098-.329" style="fill:none;stroke:red;stroke-width:.999997;stroke-linecap:round;stroke-linejoin:round;stroke-miterlimit:4;stroke-dasharray:none;stroke-opacity:1;visibility:visible"/><path d="m259.25 518.848.399.999.268.448.386.41.884.439.663.32.756.243.823.161.869.085.895.004.893-.071.877-.15.835-.226.779-.3.703-.381.613-.482.394-.467.26-.492M252.905 340.722l-.582 1.393 1.279.815M155.397 269.989l.221-8.632M155.588 264.322l-10.282-4.479M124.512 111.708l-1.247-.104M137.725 216.418l12.745 12.278M139.138 240.418l16.09 1.631" style="fill:none;stroke:red;stroke-width:1.6;stroke-linecap:round;stroke-linejoin:round;stroke-miterlimit:4;stroke-dasharray:none;stroke-opacity:1;visibility:visible"/><path d="m139.301 233.44-.163 6.978" style="fill:none;stroke:red;stroke-width:.999997;stroke-linecap:round;stroke-linejoin:round;stroke-miterlimit:500;stroke-dasharray:none;stroke-opacity:1;visibility:visible"/><path d="m172.549 284.14 2.241-4.238" style="fill:none;stroke:red;stroke-width:.999997;stroke-linecap:round;stroke-linejoin:round;stroke-miterlimit:4;stroke-dasharray:none;stroke-opacity:1;visibility:visible"/><path d="m320.265 387.114.405.063.776.062.77-.008.742-.078.705-.151.647-.23.572-.305.43-.351.313-.386.202-.423.07-.397" style="fill:none;stroke:#00ff4a;stroke-width:.999997;stroke-linecap:round;stroke-linejoin:round;stroke-miterlimit:4;stroke-dasharray:none;stroke-opacity:1;visibility:visible"/><path d="m316.615 384.114-.017.115.06.476.175.445.282.42.399.393.519.362.617.315.69.253.694.177.231.044M316.686 383.086l-.086 1.049M325.912 384.863l.088-1.05M430.358 461.754l.452.078.894.096.91.032.91-.034.879-.099.83-.164.765-.232.684-.301.588-.391.382-.396.248-.425.11-.45-.01-.18" style="fill:none;stroke:#00ff4a;stroke-width:.999997;stroke-linecap:round;stroke-linejoin:round;stroke-miterlimit:4;stroke-dasharray:none;stroke-opacity:1;visibility:visible"/><path d="m426.984 459.278.012.27.17.456.288.404.408.37.55.341.69.297.79.236.466.102M438.02 459.288v-1.198" style="fill:none;stroke:#00ff4a;stroke-width:.999997;stroke-linecap:round;stroke-linejoin:round;stroke-miterlimit:4;stroke-dasharray:none;stroke-opacity:1;visibility:visible"/><path d="m328.459 242.508 84.479 34.142s11.588 4.31 12.769 19.441M425.707 296.091l.077 5.689s.054 3.555-.616 5.555l2.058 152.539" style="fill:none;stroke:#00ff4a;stroke-width:1.6;stroke-linecap:round;stroke-linejoin:round;stroke-miterlimit:4;stroke-dasharray:none;stroke-opacity:1;visibility:visible"/><path d="M331.538 232.464s-.303.306-.303.604c0 .27.303.532.303.532l94.452 37.463s9.257 5.095 10.134 23.378l1.736 163.643M327.248 214.817l-.081 2.547M336.762 217.58l.036-1.172M324.041 231.628l-.591.972-.376.929-.205.845-.082.743.01.815.111.76.207.77.319.764.445.774.394.508M328.123 242.338l.308.156M314.555 79.339l-1.074-6.131M303.918 74.95l1.081 6.126M331.12 173.69l-16.565-94.352M333.534 187.441l-2.414-13.75M322.011 177.584l2.079 11.766M304.999 81.076l17.012 96.508" style="fill:none;stroke:#00ff4a;stroke-width:1.6;stroke-linecap:round;stroke-linejoin:round;stroke-miterlimit:4;stroke-dasharray:none;stroke-opacity:1;visibility:visible"/><path d="m332.293 233.466.317-.176-.007-1.637" style="fill:none;stroke:#00ff4a;stroke-width:.999997;stroke-linecap:round;stroke-linejoin:round;stroke-miterlimit:4;stroke-dasharray:none;stroke-opacity:1;visibility:visible"/><path d="m335.607 234.6 1.155-17.02M330.29 319.77l4.65-74.298M325.89 383.778l3.653-51.968M320.071 334.437l-3.286 48.688M328.337 226.568l-1.654 2.085-2.312 2.587" style="fill:none;stroke:#00ff4a;stroke-width:1.6;stroke-linecap:round;stroke-linejoin:round;stroke-miterlimit:4;stroke-dasharray:none;stroke-opacity:1;visibility:visible"/><path d="m319.37 156.31.185.032.188.123.172.2.128.26.063.29-.008.282-.073.249-.128.187-.162.099h-.172l-.163-.096-.146-.183-.115-.25-.076-.283-.028-.287.023-.257.076-.203.125-.128.112-.035M325.91 383.283l.016.039.077.42-.072.405-.218.386-.36.352-.49.305-.601.247-.699.185-.768.115-.817.04-.836-.034-.828-.111M320.314 385.632l-.797-.176-.738-.246-.653-.301-.552-.347-.427-.385-.294-.407-.148-.416v-.415l.098-.298M437.82 457.543l.14.264.058.385-.122.386-.296.366-.461.342-.61.298-.743.254-.844.194-.928.134-.976.064-.995-.004-.979-.074-.932-.14M430.132 460.012l-.858-.204-.752-.26-.626-.306-.476-.344-.311-.37-.139-.386.038-.386.023-.072" style="fill:none;stroke:#00ff4a;stroke-width:.999997;stroke-linecap:round;stroke-linejoin:round;stroke-miterlimit:4;stroke-dasharray:none;stroke-opacity:1;visibility:visible"/><path d="m437.856 458.085-.032.301-.17.342-.297.323-.423.297-.787.359M435.991 459.707l-.349.107-.767.18-.836.125-.877.068-.9.01-.89-.047-.86-.104-.806-.159-.731-.208-.633-.253-.523-.286-.395-.318-.256-.336-.11-.348.007-.043M427.515 289.147l.118.058.382.013.344-.15.285-.283.212-.392.096-.487-.057-.51-.21-.446-.325-.333-.392-.207-.428-.064-.398.088-.312.23-.195.342-.07.379M319.767 156.52l-.017.065-.007.273.044.288.087.274.12.232.03.034" style="fill:none;stroke:#00ff4a;stroke-width:.999997;stroke-linecap:round;stroke-linejoin:round;stroke-miterlimit:4;stroke-dasharray:none;stroke-opacity:1;visibility:visible"/><path d="m311.5 73.633.652-.13.625-.126.49-.106.214-.061-.208.017-.7.103-1.115.189-1.338.231-1.33.239-1.177.216-.958.18-.745.142-.653.126-.623.128-.495.107-.221.06.2-.013.696-.105 1.115-.185 1.338-.233 1.339-.24 1.181-.216.967-.183.745-.14" style="fill:none;stroke:#00ff4a;stroke-width:1.6;stroke-linecap:round;stroke-linejoin:round;stroke-miterlimit:4;stroke-dasharray:none;stroke-opacity:1;visibility:visible"/><path d="m304.59 74.828.153-.01.599-.09.964-.16 1.156-.201 1.156-.208 1.021-.187.834-.157.642-.122M312.649 73.344l-.602.09-.965.161-1.153.198-1.152.207M311.115 73.693l.566-.109.539-.11.425-.09.182-.054h-.017" style="fill:none;stroke:#00ff4a;stroke-width:1.6;stroke-linecap:round;stroke-linejoin:round;stroke-miterlimit:4;stroke-dasharray:none;stroke-opacity:1;visibility:visible"/><path d="m332.428 229.449-.231-.996-.503-1.076-.73-.823-.526-.333-.544-.188-.455-.047-.417.074-.413.24-.224.304M325.913 384.863l-.071.334-.219.386-.358.35-.49.307-.602.25-.698.184-.768.115-.816.038-.836-.033-.83-.11M320.225 386.685l-.795-.18-.736-.246-.656-.298-.55-.351-.426-.38-.295-.411-.15-.416-.015-.268M438.02 459.288l-.002.102-.122.385-.296.367-.461.341-.61.303-.743.252-.844.196-.928.132-.976.064-.995-.004-.979-.072-.932-.142M430.132 461.212l-.858-.205-.752-.26-.623-.305-.477-.347-.312-.37-.14-.385-.006-.078M325.89 383.778l-.073.362-.197.346-.311.319-.422.28-.777.325M324.108 385.41l-.31.09-.672.133-.724.072-.75.01-.759-.054-.749-.115-.71-.172-.659-.227-.585-.273-.501-.31-.402-.339-.286-.367-.168-.372-.046-.361M332.598 231.653l.01-.493-.101-1.376-.078-.336" style="fill:none;stroke:#00ff4a;stroke-width:.999997;stroke-linecap:round;stroke-linejoin:round;stroke-miterlimit:4;stroke-dasharray:none;stroke-opacity:1;visibility:visible"/><path d="m327.165 217.364-.686 10.993M325.522 241.52l-.15 2.086-4.588 78.839M324.32 239.628c.904 1.21 3.326 2.497 3.326 2.497" style="fill:none;stroke:#00ff4a;stroke-width:1.6;stroke-linecap:round;stroke-linejoin:round;stroke-miterlimit:4;stroke-dasharray:none;stroke-opacity:1;visibility:visible"/><path d="M329.113 239.885c.102.787-.154 1.47-.567 1.524-.417.055-.836-.537-.937-1.324-.103-.785.153-1.467.566-1.523.418-.054.836.538.938 1.323" style="fill:none;stroke:#00ff4a;stroke-width:.799998;stroke-linecap:round;stroke-linejoin:round;stroke-miterlimit:4;stroke-dasharray:none;stroke-opacity:1;visibility:visible"/><path d="m345.34 211.7-1.508-11.798M323.723 187.662s-1.357.759-1.26 1.85l.782 5.036" style="fill:none;stroke:#00ff4a;stroke-width:1.99999;stroke-linecap:round;stroke-linejoin:round;stroke-miterlimit:4;stroke-dasharray:none;stroke-opacity:1;visibility:visible"/><path d="M322.435 189.792s-3.945-.29-8.608 1.841c-.737.337-1.167.637-1.436 1.053-.136.215-.301.299-.23.836l1.726 9.683s1.8 4.037 12.573 8.06c8.706 3.252 16.884 1.864 17.15 1.804l1.564-1.233" style="fill:none;stroke:#00ff4a;stroke-width:.999997;stroke-linecap:round;stroke-linejoin:round;stroke-miterlimit:4;stroke-dasharray:none;stroke-opacity:1;visibility:visible"/><path d="M333.614 186.19s1.268.507 1.373 1.408l1.513 10.272M335.782 191.863s10.644 3.859 7.073 9.725M313.491 203.814c-.021.328.52 2.383.52 2.383s3.282 3.579 10.39 6.501c7.114 2.927 16.209 3.107 20.243 2.316-.001 0 .649-.19.849-.556.197-.368.507-1.682.464-2.088-.014-.168-.135-.345-.281-.51" style="fill:none;stroke:#00ff4a;stroke-width:1.99999;stroke-linecap:round;stroke-linejoin:round;stroke-miterlimit:4;stroke-dasharray:none;stroke-opacity:1;visibility:visible"/><path d="M336.124 194.061s4.336 1.58 5.226 4.305c0 0 .348 1.255-.028 1.659l-26.48-7.144s2.021-1.313 6.725-1.67" style="fill:none;stroke:#00ff4a;stroke-width:.999997;stroke-linecap:round;stroke-linejoin:round;stroke-miterlimit:4;stroke-dasharray:none;stroke-opacity:1;visibility:visible"/><path d="m342.142 201.988 1.337 10.997" style="fill:none;stroke:#00ff4a;stroke-width:1.33333;stroke-linecap:round;stroke-linejoin:round;stroke-miterlimit:4;stroke-dasharray:none;stroke-opacity:1;visibility:visible"/><path d="M312.209 193.101s.2.339.34.393c.139.054 30.216 8.136 30.216 8.136M334.47 188.301c-.53.856-2.73 1.796-5.461 2.26-2.682.455-5.031.304-5.856-.307" style="fill:none;stroke:#00ff4a;stroke-width:.999997;stroke-linecap:round;stroke-linejoin:round;stroke-miterlimit:4;stroke-dasharray:none;stroke-opacity:1;visibility:visible"/><path d="M333.608 186.61c.215.138.346.3.38.487.157.92-2.141 2.09-5.134 2.61-2.993.526-5.547.203-5.707-.717-.054-.324.193-.68.664-1.024" style="fill:none;stroke:#00ff4a;stroke-width:.999997;stroke-linecap:round;stroke-linejoin:round;stroke-miterlimit:4;stroke-dasharray:none;stroke-opacity:1;visibility:visible"/><path d="m336.762 217.58-9.514-2.763M327.167 217.364l9.631-.956M331.12 173.691l-7.03 15.659M332.603 231.653l3.004 2.947M329.543 331.81l.747-12.04M335.607 234.6l-.667 10.872M330.29 319.77l-.747 12.04M320.784 322.445l-.713 11.992M311.115 73.693l-2.338.307M331.538 232.464l-5.059-4.107M332.598 231.653l-7.076 9.867M320.071 334.437l.713-11.992" style="fill:none;stroke:#00ff4a;stroke-width:1.6;stroke-linecap:round;stroke-linejoin:round;stroke-miterlimit:4;stroke-dasharray:none;stroke-opacity:1;visibility:visible"/><path d="m336.5 197.87 7.332 2.032M322.011 177.584l1.234 16.964M342.142 201.988l-5.642-4.118M327.167 217.364l-13.676-13.55" style="fill:none;stroke:#00ff4a;stroke-width:1.99999;stroke-linecap:round;stroke-linejoin:round;stroke-miterlimit:4;stroke-dasharray:none;stroke-opacity:1;visibility:visible"/><path d="m343.832 199.902-.353 13.083" style="fill:none;stroke:#00ff4a;stroke-width:1.33333;stroke-linecap:round;stroke-linejoin:round;stroke-miterlimit:4;stroke-dasharray:none;stroke-opacity:1;visibility:visible"/><path d="m342.855 201.588-8.385-13.287" style="fill:none;stroke:#00ff4a;stroke-width:.999997;stroke-linecap:round;stroke-linejoin:round;stroke-miterlimit:4;stroke-dasharray:none;stroke-opacity:1;visibility:visible"/><path d="m343.832 199.902-8.05-8.039" style="fill:none;stroke:#00ff4a;stroke-width:1.99999;stroke-linecap:round;stroke-linejoin:round;stroke-miterlimit:4;stroke-dasharray:none;stroke-opacity:1;visibility:visible"/><path d="m343.832 199.902-7.708-5.841" style="fill:none;stroke:#00ff4a;stroke-width:.999997;stroke-linecap:round;stroke-linejoin:round;stroke-miterlimit:4;stroke-dasharray:none;stroke-opacity:1;visibility:visible"/></svg>