<svg xmlns="http://www.w3.org/2000/svg" baseProfile="full" height="1122.52" preserveAspectRatio="xMinYMin meet" style="width:602px;height:832px" width="793.701" xml:space="preserve"><path d="m305.441 723.097-.036-.02M293.999 720.35l-.056-.01-.53-.014-.546.172-.057.364.448.54.495.344.257.127M293.79 720.818l-.32-.432M304.854 723.154l.236-.013.257-.023.094-.021" style="fill:none;stroke:red;stroke-width:.999997;stroke-linecap:round;stroke-linejoin:round;stroke-miterlimit:500;stroke-dasharray:none;stroke-opacity:1;visibility:visible"/><path d="m305.405 723.077-.038-.013-.236-.05-.393-.068-.54-.093-1.181-.24-1.055-.245-1.162-.291-1.106-.3-1.13-.32-1.203-.344-1.163-.315-.828-.206-.763-.162-.61-.08M293.345 720.43v-.002l.125-.034.268-.024.375.02" style="fill:none;stroke:red;stroke-width:.999997;stroke-linecap:round;stroke-linejoin:round;stroke-miterlimit:500;stroke-dasharray:none;stroke-opacity:1;visibility:visible"/><path d="m449.683 690.444 4.396 24.306M463.707 712.712l-4.737-26.276M310.64 751.94l-5.86-28.963M293.694 720.408l7.006 34.638" style="fill:none;stroke:red;stroke-width:1.6;stroke-linecap:round;stroke-linejoin:round;stroke-miterlimit:500;stroke-dasharray:none;stroke-opacity:1;visibility:visible"/><path d="m456.123 744.938.57-1.013.521-.421.59-.198.576-.002.104.014.616.192.163.082.68.494.445.519.339.565.461 1.27.247 1.469.057 1.513-.028.81-.177 1.655-.219.961" style="fill:none;stroke:red;stroke-width:1.33333;stroke-linecap:round;stroke-linejoin:round;stroke-miterlimit:500;stroke-dasharray:none;stroke-opacity:1;visibility:visible"/><path d="m464.97 736.444.185-5.216.073-4.482-.33-4.612-.465-4.696-.727-4.726M454.079 714.75l.64 4.2.407 4.139.169 4.045.1 4.18s.188 3.394.03 4.742" style="fill:none;stroke:red;stroke-width:1.6;stroke-linecap:round;stroke-linejoin:round;stroke-miterlimit:500;stroke-dasharray:none;stroke-opacity:1;visibility:visible"/><path d="M456.899 758.998c.093.75-.15 1.402-.55 1.462-.397.052-.796-.506-.889-1.256-.096-.747.152-1.4.55-1.455.4-.057.794.501.889 1.25v-.001" style="fill:none;stroke:red;stroke-width:.799998;stroke-linecap:round;stroke-linejoin:round;stroke-miterlimit:4;stroke-dasharray:none;stroke-opacity:1;visibility:visible"/><path d="M410.863 845.267c1.11-.156 2.232 1.095 2.51 2.784.277 1.699-.394 3.199-1.501 3.355-1.108.156-2.233-1.092-2.509-2.79-.279-1.689.393-3.192 1.5-3.348v-.001" style="fill:none;stroke:red;stroke-width:.999997;stroke-linecap:round;stroke-linejoin:round;stroke-miterlimit:4;stroke-dasharray:none;stroke-opacity:1;visibility:visible"/><path d="M410.45 849.374s.518-.35.082-1.69" style="fill:none;stroke:red;stroke-width:.666665;stroke-linecap:round;stroke-linejoin:round;stroke-miterlimit:4;stroke-dasharray:none;stroke-opacity:1;visibility:visible"/><path d="m413.398 849.138.049-.917-.18-.931-.377-.783-.542-.644-.69-.497-.703-.213M412.535 850.994l.3-.323.307-.598.256-.935M564.05 976.12l-.363.126-.802.202-.865.154-.921.085-.935.023-.932-.046-.895-.104-.845-.168-.756-.226-.667-.274-.536-.318-.409-.35-.272-.377-.113-.388.004-.043" style="fill:none;stroke:red;stroke-width:1.33333;stroke-linecap:round;stroke-linejoin:round;stroke-miterlimit:500;stroke-dasharray:none;stroke-opacity:1;visibility:visible"/><path d="m565.979 974.27-.035.344-.194.38-.34.368-.473.341-.888.417M452.398 901.846l-.308.093-.666.138-.717.08-.743.017-.753-.041-.741-.11-.707-.163-.65-.214-.585-.261-.494-.302-.396-.333-.283-.356-.165-.364-.047-.356M454.16 900.215l-.07.355-.192.347-.315.317-.415.283-.77.329M303.27 946.924l-.004.112-.123.464-.273.44-.42.408-.556.368-.67.3-.767.244-.84.158-.874.077-.893.005-.88-.096-.835-.166-.77-.243-.665-.31-.557-.37-.413-.413-.276-.448-.119-.464-.002-.103M557.94 977.878l-.893-.223-.784-.288-.65-.33-.496-.384-.327-.407-.149-.436-.004-.086" style="fill:none;stroke:red;stroke-width:1.33333;stroke-linecap:round;stroke-linejoin:round;stroke-miterlimit:500;stroke-dasharray:none;stroke-opacity:1;visibility:visible"/><path d="M566.16 975.623v.115l-.125.434-.312.416-.475.384-.64.348-.772.296-.881.227-.965.157-1.02.087-1.035.004-1.022-.065-.973-.148M448.547 903.149l-.787-.171-.73-.23-.65-.296-.545-.334-.421-.37-.292-.401-.147-.408-.017-.265M454.186 901.29l-.07.324-.216.383-.36.352-.482.306-.598.255-.69.187-.76.125-.81.05-.83-.028-.822-.095M455.616 745.666l.416-.612.15-.46.568-1.004.512-.418.584-.198.576-.002.104.016.609.189.165.081.678.492.445.514.339.562.466 1.264.25 1.456.067 1.51-.025.8-.166 1.644-.212.96M303.268 946.88v.044M293.414 945.435l.104-.295M303.221 945.36l.036.114.04.47-.118.463-.272.441-.424.408-.553.368-.676.3-.764.24-.835.159-.878.082-.895-.003-.879-.088-.837-.168-.764-.244-.67-.31-.558-.365-.42-.417-.272-.448-.115-.46.047-.467M557.936 976.528l-.89-.22-.782-.282-.656-.336-.495-.384-.322-.41-.151-.429.044-.439.025-.08" style="fill:none;stroke:red;stroke-width:1.33333;stroke-linecap:round;stroke-linejoin:round;stroke-miterlimit:500;stroke-dasharray:none;stroke-opacity:1;visibility:visible"/><path d="m565.956 973.665.147.29.057.433-.125.432-.31.419-.474.388-.643.343-.77.293-.882.23-.966.159-1.02.091-1.035.003-1.022-.07-.977-.148M448.635 902.107l-.787-.164-.732-.233-.648-.292-.545-.335-.425-.378-.291-.395-.148-.408v-.41l.099-.298M454.182 899.726l.013.039.08.412-.073.402-.212.382-.36.349-.486.308-.596.25-.692.195-.761.117-.807.054-.83-.025-.823-.102" style="fill:none;stroke:red;stroke-width:1.33333;stroke-linecap:round;stroke-linejoin:round;stroke-miterlimit:500;stroke-dasharray:none;stroke-opacity:1;visibility:visible"/><path d="m555.92 803.14.433.346.407.395.373.434.33.471.297.495.248.526.2.538.15.554M550.448 803.355l.21-.138 1.181-.344 1.443-.104 1.745.176.893.194" style="fill:none;stroke:red;stroke-width:.999997;stroke-linecap:round;stroke-linejoin:round;stroke-miterlimit:500;stroke-dasharray:none;stroke-opacity:1;visibility:visible"/><path d="m312.938 778.542-.221-.05-.383-.232-.236-.276-.128-.272-.048-.222-.002-.134" style="fill:none;stroke:red;stroke-width:1.33333;stroke-linecap:round;stroke-linejoin:round;stroke-miterlimit:500;stroke-dasharray:none;stroke-opacity:1;visibility:visible"/><path d="m455.426 736.055-.596 9.77M453.724 760.88l-4.432 75.175M448.45 848.609l-3.311 51.065M454.16 900.22l3.756-53.396M458.69 833.893l4.34-68.833M300.784 755.155l.688 4.319.434 4.269.177 4.171-.083 4.012M312.213 771.665l.064-4.636-.23-4.765-.521-4.848-.812-4.871M311.921 777.356l.292-5.691M303.207 945.842l7.993-154.539M302 771.93l-.376 7.588-.299 6.122-7.816 160.123" style="fill:none;stroke:red;stroke-width:1.6;stroke-linecap:round;stroke-linejoin:round;stroke-miterlimit:500;stroke-dasharray:none;stroke-opacity:1;visibility:visible"/><path d="m456.327 744.492-1.539 2.39-2.318 3.408" style="fill:none;stroke:red;stroke-width:1.6;stroke-linecap:round;stroke-linejoin:round;stroke-miterlimit:4;stroke-dasharray:none;stroke-opacity:1;visibility:visible"/><path d="m303.269 946.924.033-1.097M293.363 945.792l-.03 1.095M293.347 946.9l.016.354.155.5.279.461.393.427.513.382.632.328.715.26.779.181.81.109.831.02.824-.056.8-.13.75-.216.696-.286.606-.375.507-.453.329-.452.201-.482.087-.548-.013-.062M566.16 975.623l.003-1.347M554.637 974.378v1.346M554.66 975.738l.012.308.178.506.297.452.429.416.572.371.717.33.827.257.485.105M558.177 978.483l.468.084.935.095.952.021.945-.045.915-.123.867-.192.797-.27.714-.347.61-.454.403-.445.254-.477.118-.511-.015-.2M454.186 901.29l.089-1.041M445.043 899.639l-.085 1.035M444.973 900.655l-.019.11.06.473.176.432.278.41.394.384.514.354.612.302.683.24.689.168.226.042M448.587 903.569l.403.06.766.051.767-.017.736-.083.696-.165.637-.225.57-.313.425-.347.312-.39.201-.419.07-.392" style="fill:none;stroke:red;stroke-width:1.33333;stroke-linecap:round;stroke-linejoin:round;stroke-miterlimit:500;stroke-dasharray:none;stroke-opacity:1;visibility:visible"/><path d="m463.719 753.93 1.216-17.773M422.716 851.925l8.228-1.12 6.464-1.116 6.39-1.179 6.309-1.232 6.219-1.285 6.124-1.34 6.037-1.39 5.93-1.441 5.833-1.492 5.723-1.537 5.62-1.59 5.507-1.632 5.389-1.677 5.271-1.72 5.149-1.761 5.031-1.803 4.899-1.85 4.774-1.876 4.642-1.917 4.51-1.954 4.376-1.988 4.24-2.022 6.035-2.573 2.983-1.568M550.43 803.32l-.582.315-5.709 2.459-3.919 1.91-4.057 1.896-4.196 1.86-4.338 1.84-4.477 1.81-4.607 1.773-4.74 1.747-4.873 1.713-4.999 1.68-5.125 1.638-5.243 1.601-5.362 1.561-5.483 1.52-5.589 1.474-5.702 1.432-5.805 1.384-5.91 1.336-6.002 1.29-6.1 1.235-6.19 1.19-6.269 1.129-6.353 1.084-7.822 1.33" style="fill:none;stroke:red;stroke-width:1.6;stroke-linecap:round;stroke-linejoin:round;stroke-miterlimit:500;stroke-dasharray:none;stroke-opacity:1;visibility:visible"/><path d="m429.847 1022.239-.077-1.225" style="fill:none;stroke:red;stroke-width:.999997;stroke-linecap:round;stroke-linejoin:round;stroke-miterlimit:4;stroke-dasharray:none;stroke-opacity:1;visibility:visible"/><path d="m410.408 866.798.64-2.068-.468-9.135M410.409 866.798l7.975 155.388M418.383 1021.956l.013.376.408.974.274.436.392.398.886.43.667.313.76.236.827.155.87.084.899.004.896-.07.875-.148.836-.221.773-.288.705-.372.608-.47.39-.456.258-.475.12-.503-.01-.156" style="fill:none;stroke:red;stroke-width:1.6;stroke-linecap:round;stroke-linejoin:round;stroke-miterlimit:4;stroke-dasharray:none;stroke-opacity:1;visibility:visible"/><path d="m333.99 783.046 77.486 45.074s10.28 5.242 10.252 27.08l8.112 167.16M333.99 783.046l-1.452-.71-1.715-.619-1.966-.517-1.635-.307-1.764-.235-1.875-.157-1.973-.067" style="fill:none;stroke:red;stroke-width:1.6;stroke-linecap:round;stroke-linejoin:round;stroke-miterlimit:4;stroke-dasharray:none;stroke-opacity:1;visibility:visible"/><path d="m329.249 791.877 69.256 40.826s6.738 4.204 10.155 13.248M410.184 851.655c.206 1.251.342 2.563.396 3.94M321.617 780.43l-4.317-.77-3.74-.741" style="fill:none;stroke:red;stroke-width:1.6;stroke-linecap:round;stroke-linejoin:round;stroke-miterlimit:4;stroke-dasharray:none;stroke-opacity:1;visibility:visible"/><path d="m321.047 790.41 1.518.032 1.404.098 1.273.154 1.127.196.973.232.817.253.655.265.503.267" style="fill:none;stroke:red;stroke-width:1.6;stroke-linecap:round;stroke-linejoin:round;stroke-miterlimit:4;stroke-dasharray:none;stroke-opacity:1;visibility:visible"/><path d="m313.007 790.89 3.916-.273 4.127-.207" style="fill:none;stroke:red;stroke-width:1.6;stroke-linecap:round;stroke-linejoin:round;stroke-miterlimit:4;stroke-dasharray:none;stroke-opacity:1;visibility:visible"/><path d="m331.456 787.75.319.39.171.583.076.785.002.905-.026.798-.048.612-.078.467-.152.28-.304.023-.416-.243-.454-.4-.476-.568-.427-.765-.216-.85.048-.757.263-.617.44-.479.575-.274.549.028.153.082M313.57 778.93l-.367-.118-.352-.248-.214-.274-.108-.238-.047-.164-.016-.058M312.103 791.607l-.006.007.006-.081.082-.183.205-.229.325-.182.315-.053" style="fill:none;stroke:red;stroke-width:.999997;stroke-linecap:round;stroke-linejoin:round;stroke-miterlimit:4;stroke-dasharray:none;stroke-opacity:1;visibility:visible"/><path d="m312.466 777.825-.008.023-.11.406-.048.15-.27.782-.245.734-.238.753-.413 1.57-.315 1.693-.186 1.658-.048.856.014 1.689.186 1.589.177.782.235.692.369.621.26.167.201-.108.093-.317" style="fill:none;stroke:red;stroke-width:.999997;stroke-linecap:round;stroke-linejoin:round;stroke-miterlimit:4;stroke-dasharray:none;stroke-opacity:1;visibility:visible"/><path d="m553.357 815.15.134 5.06s.057 3.541-.626 5.536l2.05 149.185M452.412 750.326l-.93 1.77-.358.881-.196.805-.077.704.008.772.105.719.196.73.302.728.428.733.372.48s1.43 1.051 2.12 1.531l85.74 34.012s5.954 2.174 9.826 8.863M418.384 1020.228l.408.975.274.435.389.397.89.428.668.315.757.237.829.155.871.082.897.003.896-.068.875-.148.834-.22.779-.29.701-.372.608-.467.388-.458.259-.477" style="fill:none;stroke:red;stroke-width:1.6;stroke-linecap:round;stroke-linejoin:round;stroke-miterlimit:4;stroke-dasharray:none;stroke-opacity:1;visibility:visible"/><path d="M457.832 751.157s-.304.305-.304.6c0 .27.304.533.304.533l95.87 37.32s9.398 5.08 10.286 23.288l1.761 163.029" style="fill:none;stroke:red;stroke-width:1.6;stroke-linecap:round;stroke-linejoin:round;stroke-miterlimit:4;stroke-dasharray:none;stroke-opacity:1;visibility:visible"/><path d="m305.405 723.077-11.395-1.204" style="fill:none;stroke:red;stroke-width:.999997;stroke-linecap:round;stroke-linejoin:round;stroke-miterlimit:500;stroke-dasharray:none;stroke-opacity:1;visibility:visible"/><path d="m457.832 751.157-.933 7.841" style="fill:none;stroke:red;stroke-width:.799998;stroke-linecap:round;stroke-linejoin:round;stroke-miterlimit:4;stroke-dasharray:none;stroke-opacity:1;visibility:visible"/><path d="m408.66 845.951 1.872 1.733" style="fill:none;stroke:red;stroke-width:.666665;stroke-linecap:round;stroke-linejoin:round;stroke-miterlimit:4;stroke-dasharray:none;stroke-opacity:1;visibility:visible"/><path d="m457.832 751.157-4.108 9.723M448.45 848.609l.842-12.554M449.292 836.055l-.842 12.554M458.69 833.893l-.774 12.931M457.916 846.824l.774-12.931M463.719 753.93l-.689 11.13M456.899 758.998l6.82-5.068" style="fill:none;stroke:red;stroke-width:1.6;stroke-linecap:round;stroke-linejoin:round;stroke-miterlimit:500;stroke-dasharray:none;stroke-opacity:1;visibility:visible"/><path d="m410.532 847.684-1.872-1.733" style="fill:none;stroke:red;stroke-width:1.6;stroke-linecap:round;stroke-linejoin:round;stroke-miterlimit:4;stroke-dasharray:none;stroke-opacity:1;visibility:visible"/><path d="m329.249 791.877 2.206-4.127" style="fill:none;stroke:red;stroke-width:.999997;stroke-linecap:round;stroke-linejoin:round;stroke-miterlimit:4;stroke-dasharray:none;stroke-opacity:1;visibility:visible"/><path d="m313.506 721.206-.32.18-1.543.664-1.733.482-1.415.19-.275.016" style="fill:none;stroke:#00ff4a;stroke-width:.999997;stroke-linecap:round;stroke-linejoin:round;stroke-miterlimit:500;stroke-dasharray:none;stroke-opacity:1;visibility:visible"/><path d="m468.148 677.43.162-.314" style="fill:none;stroke:#00ff4a;stroke-width:1.6;stroke-linecap:round;stroke-linejoin:round;stroke-miterlimit:500;stroke-dasharray:none;stroke-opacity:1;visibility:visible"/><path d="M452.17 689.378h0l.336-.134M443.344 691.116l.676-.019 2.538-.296 2.786-.576 2.2-.635.55-.185h.002" style="fill:none;stroke:#00ff4a;stroke-width:.999997;stroke-linecap:round;stroke-linejoin:round;stroke-miterlimit:500;stroke-dasharray:none;stroke-opacity:1;visibility:visible"/><path d="m467.586 677.678.077.058.067.052.065.044.05.038.035.027.02.02v.005" style="fill:none;stroke:#00ff4a;stroke-width:1.6;stroke-linecap:round;stroke-linejoin:round;stroke-miterlimit:500;stroke-dasharray:none;stroke-opacity:1;visibility:visible"/><path d="m452.456 688.91.026.086.026.081.02.075.008.057.004.052-.004.035-.002.014v.006" style="fill:none;stroke:#00ff4a;stroke-width:.999997;stroke-linecap:round;stroke-linejoin:round;stroke-miterlimit:500;stroke-dasharray:none;stroke-opacity:1;visibility:visible"/><path d="m467.586 677.678.39-.448.548-.882.266-.803-.017-.333" style="fill:none;stroke:#00ff4a;stroke-width:1.6;stroke-linecap:round;stroke-linejoin:round;stroke-miterlimit:500;stroke-dasharray:none;stroke-opacity:1;visibility:visible"/><path d="m308.082 722.692.01.054M307.96 723.005l.041-.007.036-.016.033-.028.03-.029.021-.039.013-.046.004-.05v-.046M270.59 613.319l-.6.14-.379.103.039.025.443-.047.106-.01M422.79 584.157l-.152.038M286.6 715.512l-.047-.15-.003-1.34.255-.669.49-.488.843-.244M452.464 689.326l.01-.002.008-.02.005-.038v-.114l-.005-.075-.018-.081-.008-.086M308.457 722.239l.008.095-.006.083-.016.087-.041.08-.047.065-.054.047-.066.037h-.015M377.326 629.141l-.323-1.304-.519-1.226-.689-1.123-.844-.973-.975-.808-1.082-.615-1.15-.405-1.19-.187-1.056.071M452.198 689.582h.01l.003-.008v-.044l-.011-.029-.006-.039-.011-.045-.013-.039M452.08 689.336l.016.069M452.126 689.605h.002l.003-.008.003-.015-.006-.026-.002-.028-.011-.04-.013-.042-.006-.04M452.096 689.405l.074-.027M307.913 723.009l.046-.003" style="fill:none;stroke:#00ff4a;stroke-width:.999997;stroke-linecap:round;stroke-linejoin:round;stroke-miterlimit:500;stroke-dasharray:none;stroke-opacity:1;visibility:visible"/><path d="m307.96 723.006.363-.021 1.594-.232 1.592-.447 1.557-.669 1.02-.592M307.913 723.009l.037-.008.037-.016.03-.025.03-.035.024-.039.012-.044.008-.049v-.047" style="fill:none;stroke:#00ff4a;stroke-width:.999997;stroke-linecap:round;stroke-linejoin:round;stroke-miterlimit:500;stroke-dasharray:none;stroke-opacity:1;visibility:visible"/><path d="m467.861 678.105.02.013.001.003-.002-.003-.019-.013-.021-.025-.036-.022-.036-.026-.044-.034" style="fill:none;stroke:#00ff4a;stroke-width:1.6;stroke-linecap:round;stroke-linejoin:round;stroke-miterlimit:500;stroke-dasharray:none;stroke-opacity:1;visibility:visible"/><path d="m452.159 689.324.01.054" style="fill:none;stroke:#00ff4a;stroke-width:.999997;stroke-linecap:round;stroke-linejoin:round;stroke-miterlimit:500;stroke-dasharray:none;stroke-opacity:1;visibility:visible"/><path d="m467.861 678.105-1.521 1.915-1.668 1.784-1.83 1.673-1.946 1.533-2.046 1.38-2.142 1.226-2.216 1.064-2.294.902" style="fill:none;stroke:#00ff4a;stroke-width:1.6;stroke-linecap:round;stroke-linejoin:round;stroke-miterlimit:500;stroke-dasharray:none;stroke-opacity:1;visibility:visible"/><path d="m461.062 684.706-1.269.934-2.291 1.402-2.435 1.238-2.551 1.03M452.126 689.605l-.552.188-2.486.708-2.536.509-2.552.303-1.948.065" style="fill:none;stroke:#00ff4a;stroke-width:.999997;stroke-linecap:round;stroke-linejoin:round;stroke-miterlimit:500;stroke-dasharray:none;stroke-opacity:1;visibility:visible"/><path d="M467.901 677.922h0" style="fill:none;stroke:#00ff4a;stroke-width:1.6;stroke-linecap:round;stroke-linejoin:round;stroke-miterlimit:500;stroke-dasharray:none;stroke-opacity:1;visibility:visible"/><path d="m377.331 629.15-.005-.01" style="fill:none;stroke:#00ff4a;stroke-width:.999997;stroke-linecap:round;stroke-linejoin:round;stroke-miterlimit:500;stroke-dasharray:none;stroke-opacity:1;visibility:visible"/><path d="m375.006 629.496.124 1.744-.14 1.35-.336 1.297-.528 1.213-.699 1.096-.856.939-.977.77-1.08.563-1.152.352" style="fill:none;stroke:#00ff4a;stroke-width:1.6;stroke-linecap:round;stroke-linejoin:round;stroke-miterlimit:500;stroke-dasharray:none;stroke-opacity:1;visibility:visible"/><path d="m371.67 638.485 1.156-.345 1.07-.568.987-.768.855-.941.705-1.103.528-1.212.347-1.301.132-1.347-.119-1.75" style="fill:none;stroke:#00ff4a;stroke-width:.999997;stroke-linecap:round;stroke-linejoin:round;stroke-miterlimit:500;stroke-dasharray:none;stroke-opacity:1;visibility:visible"/><path d="m367.49 622.9.753-.052 1.187.187 1.15.404 1.075.617.973.807.843.974.689 1.118.518 1.224.328 1.306" style="fill:none;stroke:#00ff4a;stroke-width:1.6;stroke-linecap:round;stroke-linejoin:round;stroke-miterlimit:500;stroke-dasharray:none;stroke-opacity:1;visibility:visible"/><path d="m370.474 638.638 1.196-.154M369.498 622.572l-.536.036" style="fill:none;stroke:#00ff4a;stroke-width:.999997;stroke-linecap:round;stroke-linejoin:round;stroke-miterlimit:500;stroke-dasharray:none;stroke-opacity:1;visibility:visible"/><path d="m349.318 643.013 1.182-.136M369.484 622.583l-5.92 1.104-5.341 1.072-5.277 1.065-4.55.93M350.5 642.876l5.172-1.083 5.248-1.093 5.332-1.103 6.202-1.29M370.474 638.637l-5.388 1.107-5.32 1.093-5.258 1.096-5.002 1.047" style="fill:none;stroke:#00ff4a;stroke-width:1.6;stroke-linecap:round;stroke-linejoin:round;stroke-miterlimit:500;stroke-dasharray:none;stroke-opacity:1;visibility:visible"/><path d="m349.006 642.977.024.006 1.471-.107" style="fill:none;stroke:#00ff4a;stroke-width:1.6;stroke-linecap:round;stroke-linejoin:round;stroke-miterlimit:500;stroke-dasharray:none;stroke-opacity:1;visibility:visible"/><path d="m308.22 722.733-.06.016" style="fill:none;stroke:#00ff4a;stroke-width:.999997;stroke-linecap:round;stroke-linejoin:round;stroke-miterlimit:500;stroke-dasharray:none;stroke-opacity:1;visibility:visible"/><path d="m452.462 689.326-9.598 1.88-9.52 1.9-9.428 1.914-9.304 1.93-9.164 1.93-8.622 1.861-8.498 1.87-8.344 1.869-8.16 1.868-7.97 1.866-7.739 1.844-8.787 2.156-8.47 2.136-8.115 2.107-5.997 1.61-5.779 1.584-5.534 1.563-5.274 1.536" style="fill:none;stroke:#00ff4a;stroke-width:1.6;stroke-linecap:round;stroke-linejoin:round;stroke-miterlimit:500;stroke-dasharray:none;stroke-opacity:1;visibility:visible"/><path d="m308.457 722.238.002.099-.016.093-.03.087-.046.08-.052.065-.065.052-.072.032-.081.012M452.462 689.326h.002" style="fill:none;stroke:#00ff4a;stroke-width:.999997;stroke-linecap:round;stroke-linejoin:round;stroke-miterlimit:500;stroke-dasharray:none;stroke-opacity:1;visibility:visible"/><path d="m342.667 636.473-.159-1.878.104-1.435.304-1.377.494-1.287.656-1.156.822-.997.956-.604 1.063-.587 1.145-.359" style="fill:none;stroke:#00ff4a;stroke-width:1.6;stroke-linecap:round;stroke-linejoin:round;stroke-miterlimit:500;stroke-dasharray:none;stroke-opacity:1;visibility:visible"/><path d="m297.175 716.641 1.39 1.439 1.445 1.226 1.532 1.044 1.568.812 2.625.852 2.722.224" style="fill:none;stroke:#00ff4a;stroke-width:.999997;stroke-linecap:round;stroke-linejoin:round;stroke-miterlimit:500;stroke-dasharray:none;stroke-opacity:1;visibility:visible"/><path d="m452.456 688.91 2.432-.977 2.35-1.183 2.322-1.408 2.192-1.592 3.092-2.809 2.742-3.263" style="fill:none;stroke:#00ff4a;stroke-width:1.6;stroke-linecap:round;stroke-linejoin:round;stroke-miterlimit:500;stroke-dasharray:none;stroke-opacity:1;visibility:visible"/><path d="m445.755 581.887-4.607.86-9.054 1.683-8.995 1.678-8.91 1.672-9.088 1.708-8.989 1.69-8.877 1.681-8.743 1.66-8.372 1.591-8.242 1.574-8.086 1.552-7.92 1.53-7.976 1.543-7.783 1.512-7.588 1.479-7.358 1.447-2.702.53-5.316 1.053-5.179 1.03-6.49 1.292-6.239 1.25-5.975 1.212-5.704 1.158M268.109 615.793h-.004M288.138 712.621l.83.057.996.26 1.476.59 1.64.792 1.026.52M288.138 712.62v.001M286.701 715.845l-.102-.333M294.105 714.84l.552.242.89.474.913.564.715.521" style="fill:none;stroke:#00ff4a;stroke-width:.999997;stroke-linecap:round;stroke-linejoin:round;stroke-miterlimit:500;stroke-dasharray:none;stroke-opacity:1;visibility:visible"/><path d="m287.454 610.095-.699.13-2.432.44-2.432.451-2.371.443-2.243.424-2.052.396-1.798.354-1.5.304-1.157.248-.18.035M291.003 609.428l-.748.147-1.27.238-1.526.282h-.005M420.066 584.701l-9.142 1.704-9.06 1.69-8.962 1.685-8.852 1.667-8.976 1.697-8.85 1.68-8.702 1.653-8.532 1.636-7.792 1.495-7.643 1.475-7.465 1.445-7.283 1.419-7.276 1.423-7.066 1.386-6.85 1.355-6.612 1.317M422.638 584.195h-.004l-.842.17-.904.18-.822.156M451.79 580.627s-.162-.844-.823-1.172c-.637-.308-1.863-.099-1.863-.099l-.94.137-1.284.211-1.588.267-1.844.317-2.05.359-2.194.388-2.291.414-2.312.422-2.273.422-2.158.402-2.003.382-1.784.351-1.516.295-1.192.247-.857.185-.028.002" style="fill:none;stroke:#00ff4a;stroke-width:1.6;stroke-linecap:round;stroke-linejoin:round;stroke-miterlimit:500;stroke-dasharray:none;stroke-opacity:1;visibility:visible"/><path d="m304.86 723.162 2.789-.142" style="fill:none;stroke:#00ff4a;stroke-width:.999997;stroke-linecap:round;stroke-linejoin:round;stroke-miterlimit:500;stroke-dasharray:none;stroke-opacity:1;visibility:visible"/><path d="m467.864 678.108.264-.424.224-.459.122-.41.016-.248" style="fill:none;stroke:#00ff4a;stroke-width:1.6;stroke-linecap:round;stroke-linejoin:round;stroke-miterlimit:500;stroke-dasharray:none;stroke-opacity:1;visibility:visible"/><path d="M452.464 689.326h.018l.005-.002h.01l.012-.004h.005l.008-.004h.012M441.758 691.47l1.592-.114" style="fill:none;stroke:#00ff4a;stroke-width:.999997;stroke-linecap:round;stroke-linejoin:round;stroke-miterlimit:500;stroke-dasharray:none;stroke-opacity:1;visibility:visible"/><path d="m468.8 675.206-17.016-94.456M465.623 680.69l.2-.208 1.36-1.596.712-.97M461.102 684.736l1.653-1.298 1.587-1.432 1.28-1.316M467.901 677.922l.027-.03.307-.49.265-.554.21-.615.103-.555-.006-.442-.007-.03" style="fill:none;stroke:#00ff4a;stroke-width:1.6;stroke-linecap:round;stroke-linejoin:round;stroke-miterlimit:500;stroke-dasharray:none;stroke-opacity:1;visibility:visible"/><path d="m422.63 584.201-.085.019-.034.005" style="fill:none;stroke:#00ff4a;stroke-width:.999997;stroke-linecap:round;stroke-linejoin:round;stroke-miterlimit:500;stroke-dasharray:none;stroke-opacity:1;visibility:visible"/><path d="m349.028 642.963-.298-.014-.868-.179-.848-.326-.81-.464-.759-.585-.687-.708-.61-.811-.528-.899-.425-.973-.315-1.024-.145-.747" style="fill:none;stroke:#00ff4a;stroke-width:1.6;stroke-linecap:round;stroke-linejoin:round;stroke-miterlimit:500;stroke-dasharray:none;stroke-opacity:1;visibility:visible"/><path d="m307.801 722.772.112-.008M308.102 722.758h.013l.016-.005.015-.003h.013l.019-.004h.012l.013-.002.017-.011" style="fill:none;stroke:#00ff4a;stroke-width:.999997;stroke-linecap:round;stroke-linejoin:round;stroke-miterlimit:500;stroke-dasharray:none;stroke-opacity:1;visibility:visible"/><path d="m268.051 615.8 18.532 99.714M270.438 613.353l-.09.02-.527.123-.507.148-.2.086-.197.11-.24.18-.251.265-.23.38-.143.459-.011.508.037.167M286.662 715.856l.232.752.421.896.575.906.717.878.853.812 4.243 2.497" style="fill:none;stroke:#00ff4a;stroke-width:1.6;stroke-linecap:round;stroke-linejoin:round;stroke-miterlimit:500;stroke-dasharray:none;stroke-opacity:1;visibility:visible"/><path d="m276.23 618.949 3.2 17.016M281.415 646.528l11.588 61.728" style="fill:none;stroke:#00ff4a;stroke-width:.999997;stroke-linecap:round;stroke-linejoin:round;stroke-miterlimit:500;stroke-dasharray:none;stroke-opacity:1;visibility:visible"/><path d="m369.498 622.572-2.008.328" style="fill:none;stroke:#00ff4a;stroke-width:1.6;stroke-linecap:round;stroke-linejoin:round;stroke-miterlimit:500;stroke-dasharray:none;stroke-opacity:1;visibility:visible"/><path d="m270.59 613.319 6.972.953M307.913 722.764l-3.053.398M268.079 615.799l8.151 3.15M281.415 646.528l-1.985-10.563M279.43 635.965l1.985 10.563" style="fill:none;stroke:#00ff4a;stroke-width:.999997;stroke-linecap:round;stroke-linejoin:round;stroke-miterlimit:500;stroke-dasharray:none;stroke-opacity:1;visibility:visible"/><path d="m452.096 689.405-2.413 1.039M452.169 689.378l6.801-2.942" style="fill:none;stroke:red;stroke-width:1.6;stroke-linecap:round;stroke-linejoin:round;stroke-miterlimit:500;stroke-dasharray:none;stroke-opacity:1;visibility:visible"/><path d="m293.694 720.408-.691-12.152" style="fill:none;stroke:#00ff4a;stroke-width:.999997;stroke-linecap:round;stroke-linejoin:round;stroke-miterlimit:500;stroke-dasharray:none;stroke-opacity:1;visibility:visible"/></svg>