<svg xmlns="http://www.w3.org/2000/svg" baseProfile="full" height="1122.52" preserveAspectRatio="xMinYMin meet" style="width:914px;height:841px" width="793.701" xml:space="preserve"><path d="m89.688 280.637-.316 13.608M133.386 263.68l5.311-148.671M125.329 117.339l-4.761 148.443" style="fill:none;stroke:red;stroke-width:1.99999;stroke-linecap:round;stroke-linejoin:round;stroke-miterlimit:2;stroke-dasharray:none;stroke-opacity:1;visibility:visible"/><path d="M90.022 280.097c-.028.012-.058.022-.084.037a.401.401 0 0 0-.126.124.72.72 0 0 0-.082.147.507.507 0 0 0-.04.18l.003.054" style="fill:none;stroke:red;stroke-width:.999997;stroke-linecap:round;stroke-linejoin:round;stroke-miterlimit:2;stroke-dasharray:none;stroke-opacity:1;visibility:visible"/><path d="m120.6 265.885-30.58 14.201M235.253 212.633l-101.735 47.25" style="fill:none;stroke:red;stroke-width:1.99999;stroke-linecap:round;stroke-linejoin:round;stroke-miterlimit:2;stroke-dasharray:none;stroke-opacity:1;visibility:visible"/><path d="M92.785 296.95a.848.848 0 0 0 .179.08.45.45 0 0 0 .193.009c.053-.011.103-.031.155-.049" style="fill:none;stroke:red;stroke-width:.999997;stroke-linecap:round;stroke-linejoin:round;stroke-miterlimit:2;stroke-dasharray:none;stroke-opacity:1;visibility:visible"/><path d="M89.378 294.25c0 .053-.002.108.006.164a.825.825 0 0 0 .08.253.903.903 0 0 0 .141.194c.032.025.063.053.096.073M89.701 294.935l3.084 2.016M93.314 296.994l149.041-70.486M247.54 224.056l4.11-1.946M256.807 219.673l15.143-7.163" style="fill:none;stroke:red;stroke-width:1.99999;stroke-linecap:round;stroke-linejoin:round;stroke-miterlimit:2;stroke-dasharray:none;stroke-opacity:1;visibility:visible"/><path d="M94.341 104.603c-.021.002-.04.002-.06.006a.41.41 0 0 0-.184.091.612.612 0 0 0-.125.129.73.73 0 0 0-.086.163c-.022.08-.032.161-.04.243" style="fill:none;stroke:red;stroke-width:.999997;stroke-linecap:round;stroke-linejoin:round;stroke-miterlimit:2;stroke-dasharray:none;stroke-opacity:1;visibility:visible"/><path d="m93.845 105.235-.344 14.76M260.526 75.895l-166.189 28.7" style="fill:none;stroke:red;stroke-width:1.99999;stroke-linecap:round;stroke-linejoin:round;stroke-miterlimit:2;stroke-dasharray:none;stroke-opacity:1;visibility:visible"/><path d="M97.153 122.356a.773.773 0 0 0 .199.061.773.773 0 0 0 .162-.016" style="fill:none;stroke:red;stroke-width:.999997;stroke-linecap:round;stroke-linejoin:round;stroke-miterlimit:2;stroke-dasharray:none;stroke-opacity:1;visibility:visible"/><path d="m255.613 206.52 7.805-112.207M242.663 95.95l-7.428 116.207M260.818 75.927c-.065-.022-.13-.044-.196-.042a.559.559 0 0 0-.092.018M264.238 77.293l-3.419-1.366M263.973 85.808l.672-7.798M264.645 78.01c0-.064 0-.13-.01-.19a.713.713 0 0 0-.093-.252.576.576 0 0 0-.147-.179 1.09 1.09 0 0 0-.158-.096M93.501 119.995a.876.876 0 0 0 .256.642c.044.039.095.07.145.103M93.902 120.737l3.251 1.618M97.514 122.408l162.464-29.616" style="fill:none;stroke:red;stroke-width:1.99999;stroke-linecap:round;stroke-linejoin:round;stroke-miterlimit:2;stroke-dasharray:none;stroke-opacity:1;visibility:visible"/><path d="M258.79 204.522c.05-.002.103-.009.155-.012.054-.005.113-.005.175-.005.059 0 .119.003.183.008.063.001.127.01.19.015.062.006.127.014.19.028.063.012.131.02.191.034l.176.043.164.053c.055.018.104.039.15.059a1.092 1.092 0 0 1 .23.125.396.396 0 0 1 .123.135.204.204 0 0 1 .013.063.199.199 0 0 1-.021.061.19.19 0 0 1-.052.05.344.344 0 0 1-.083.047 1.52 1.52 0 0 1-.395.078 2.357 2.357 0 0 1-.356 0 2.859 2.859 0 0 1-.186-.014c-.064-.01-.13-.017-.194-.028a2.981 2.981 0 0 1-.366-.077 2.27 2.27 0 0 1-.455-.173 1.436 1.436 0 0 1-.108-.066 1.47 1.47 0 0 1-.077-.068.387.387 0 0 1-.043-.065.107.107 0 0 1-.013-.065.092.092 0 0 1 .018-.059.26.26 0 0 1 .051-.053.496.496 0 0 1 .08-.046.824.824 0 0 1 .112-.037l.148-.031M257.669 206.492l13.561-1.924M91.237 290.4l.305.126.282-.04.234-.192.162-.333.08-.442-.009-.512-.101-.537-.18-.516-.25-.444-.287-.337-.311-.2-.298-.04-.259.116-.203.268-.12.39-.034.483.057.529.141.529.22.489.266.393.305.27M120.692 265.971l3.138 1.919M129.329 254.885l-.384.173-.337.314-.244.402-.122.442.022.42.16.341.274.215.358.062.382-.099.37-.245.294-.363.186-.427.052-.438-.092-.388-.224-.288-.319-.141-.376.02M133.632 130.018l-.394.163-.35.303-.254.416-.122.466.018.451.167.381.283.254.365.097.401-.073.38-.24.304-.368.191-.448.055-.469-.096-.419-.227-.325-.33-.178-.392-.009" style="fill:none;stroke:red;stroke-width:.999997;stroke-linecap:round;stroke-linejoin:round;stroke-miterlimit:2;stroke-dasharray:none;stroke-opacity:1;visibility:visible"/><path d="m255.777 204.128 15.792-2.215" style="fill:none;stroke:red;stroke-width:1.99999;stroke-linecap:round;stroke-linejoin:round;stroke-miterlimit:2;stroke-dasharray:none;stroke-opacity:1;visibility:visible"/><path d="M94.341 104.595h.067l.077.025M94.485 104.62l3.268 1.58M264.487 78.095l-166.34 29.004M98.146 107.099l-.36 14.797M98.146 107.099a1.004 1.004 0 0 0-.393-.896M90.253 280.58l3.097 1.984M257.669 206.492l-163.9 76.471M93.77 282.963l-.338 13.64M129.818 116.74l-5.028 151.123M238.613 214.386l-3.26-1.676M254.905 149.525l.195-.088.174-.17.121-.223.056-.247-.02-.227-.097-.177-.153-.099-.192-.006-.194.086-.174.172-.121.224-.054.242.021.23.096.176.154.102.188.005M96.605 114.116l-.035-.57-.126-.566-.21-.51-.278-.415-.312-.275-.324-.12-.307.053-.26.222-.195.365-.106.477-.014.554.083.572.17.54.245.469.297.35.323.201.32.033.284-.137.232-.296.154-.427.06-.52" style="fill:none;stroke:red;stroke-width:.999997;stroke-linecap:round;stroke-linejoin:round;stroke-miterlimit:2;stroke-dasharray:none;stroke-opacity:1;visibility:visible"/><path d="m264.487 78.095.06-.012.046-.02.033-.023.019-.02M264.238 77.293a.273.273 0 0 0-.136-.013M260.685 75.912l-.083-.02-.075.003" style="fill:none;stroke:red;stroke-width:1.99999;stroke-linecap:round;stroke-linejoin:round;stroke-miterlimit:2;stroke-dasharray:none;stroke-opacity:1;visibility:visible"/><path d="M260.818 75.927a.223.223 0 0 0-.135-.015" style="fill:none;stroke:red;stroke-width:1.99999;stroke-linecap:round;stroke-linejoin:round;stroke-miterlimit:2;stroke-dasharray:none;stroke-opacity:1;visibility:visible"/><path d="m247.293 95.312-7.747 118.812M247.823 216.477l-.193-.207-.265-.07-.299.078-.29.211-.236.31-.143.374-.032.367.084.309.189.207.268.068.303-.076M257.7 84.903l-.195-.207-.264-.07-.299.078-.29.211-.236.31-.143.372-.033.368.085.31.189.205.268.07.303-.077M250 85.83l-.195-.208-.264-.069-.299.077-.29.211-.236.31-.143.374-.033.367.085.31.189.205.268.069.303-.076M238.485 221.092l-.195-.207-.264-.07-.299.078-.289.211-.237.31-.143.372-.032.368.084.31.19.206.266.068.304-.076" style="fill:none;stroke:red;stroke-width:.999997;stroke-linecap:round;stroke-linejoin:round;stroke-miterlimit:2;stroke-dasharray:none;stroke-opacity:1;visibility:visible"/><path d="m129.329 254.885 4.189 4.998M247.54 224.056l-5.185 2.452M242.355 226.508l5.185-2.452M256.807 219.673l-5.157 2.437M251.65 222.11l5.157-2.437M263.973 85.808l-.555 8.505M263.418 94.313l.555-8.505M264.487 78.095l-4.509 14.697" style="fill:none;stroke:red;stroke-width:1.99999;stroke-linecap:round;stroke-linejoin:round;stroke-miterlimit:2;stroke-dasharray:none;stroke-opacity:1;visibility:visible"/><path d="m257.669 206.492 1.121-1.97M255.777 204.128l15.453.44M133.518 259.883l-4.189-4.998" style="fill:none;stroke:red;stroke-width:.999997;stroke-linecap:round;stroke-linejoin:round;stroke-miterlimit:2;stroke-dasharray:none;stroke-opacity:1;visibility:visible"/><path d="m258.79 204.522-3.013-.394M257.669 206.492l13.9-4.579" style="fill:none;stroke:red;stroke-width:1.99999;stroke-linecap:round;stroke-linejoin:round;stroke-miterlimit:2;stroke-dasharray:none;stroke-opacity:1;visibility:visible"/><path d="m98.146 107.099-1.541 7.017M98.146 107.099l-1.54 7.017M263.973 85.808l-16.68 9.504M260.53 75.903l-3.445 10.57M260.53 75.903 249.385 87.4" style="fill:none;stroke:red;stroke-width:.999997;stroke-linecap:round;stroke-linejoin:round;stroke-miterlimit:2;stroke-dasharray:none;stroke-opacity:1;visibility:visible"/><path d="M405.523 139.842 299.681 96.235M281.895 105.657l105.353 44.553" style="fill:none;stroke:#00ff4a;stroke-width:1.99999;stroke-linecap:round;stroke-linejoin:round;stroke-miterlimit:2;stroke-dasharray:none;stroke-opacity:1;visibility:visible"/><path d="M388.02 143.202a.89.89 0 0 0-.609.814M391.523 145.022l.299.02.24.165M391.368 147.036l-.301-.016-.239-.169-.148-.289-.031-.376.089-.398.201-.359.272-.269.312-.139M400.199 145.288l-.295-.018-.24-.165-.144-.293-.028-.374.091-.394.195-.36.272-.267.311-.136" style="fill:none;stroke:#00ff4a;stroke-width:.999997;stroke-linecap:round;stroke-linejoin:round;stroke-miterlimit:2;stroke-dasharray:none;stroke-opacity:1;visibility:visible"/><path d="M282.477 99.04a.8.8 0 0 0-.582.757" style="fill:none;stroke:#00ff4a;stroke-width:1.99999;stroke-linecap:round;stroke-linejoin:round;stroke-miterlimit:2;stroke-dasharray:none;stroke-opacity:1;visibility:visible"/><path d="M405.794 140.413v-.133l-.022-.127-.042-.108-.06-.095-.074-.069-.089-.047-.101-.02-.106.007M388.02 143.202l17.28-3.38" style="fill:none;stroke:#00ff4a;stroke-width:.999997;stroke-linecap:round;stroke-linejoin:round;stroke-miterlimit:2;stroke-dasharray:none;stroke-opacity:1;visibility:visible"/><path d="m402.147 147.306-2.561.511M393.532 149.025l-6.05 1.205M405.794 140.413l-.29 3.572" style="fill:none;stroke:#00ff4a;stroke-width:1.99999;stroke-linecap:round;stroke-linejoin:round;stroke-miterlimit:2;stroke-dasharray:none;stroke-opacity:1;visibility:visible"/><path d="m386.982 149.641.428-5.625M386.982 149.641v.135l.021.122.041.112.063.094.075.072.092.044.101.02.107-.01" style="fill:none;stroke:#00ff4a;stroke-width:.999997;stroke-linecap:round;stroke-linejoin:round;stroke-miterlimit:2;stroke-dasharray:none;stroke-opacity:1;visibility:visible"/><path d="M299.68 96.235a.388.388 0 0 0-.226-.022M281.614 105.113a.532.532 0 0 0 .281.544M282.477 99.04l16.978-2.827M281.614 105.113l.281-5.316" style="fill:none;stroke:#00ff4a;stroke-width:1.99999;stroke-linecap:round;stroke-linejoin:round;stroke-miterlimit:2;stroke-dasharray:none;stroke-opacity:1;visibility:visible"/><path d="m282.477 99.04 105.543 44.162" style="fill:none;stroke:#00ff4a;stroke-width:.999997;stroke-linecap:round;stroke-linejoin:round;stroke-miterlimit:2;stroke-dasharray:none;stroke-opacity:1;visibility:visible"/><path d="M318.086 126.245c-.519.252-1.066.277-1.501.075M316.585 126.32l-3.623-1.362M313.222 119.407l.005.23.02.236M313.247 119.873l.036.235.048.232.063.233.076.223.087.213.1.201.11.191.119.179.127.156.13.138.14.124.142.098.145.077.145.055.143.032.144.004.138-.015.135-.042.13-.062.118-.087.112-.108.1-.128.092-.148.076-.164.067-.184.049-.194.041-.211.022-.214.008-.227M320.138 122.437l-.013.334-.023.325M320.102 123.096l-.04.317-.053.307-.071.293-.084.28-.096.267-.11.25-.124.227-.135.215-.15.19-.157.17-.164.15-.18.128-.185.1M312.962 124.958l-.216-.09-.21-.115-.209-.139-.208-.16-.199-.183-.198-.202-.19-.221-.182-.24-.175-.259-.168-.275-.152-.284-.144-.302-.134-.31-.12-.326-.107-.329-.093-.334-.08-.342-.065-.343-.051-.348-.038-.346-.02-.341-.005-.339M310 118.572l-.004.557M318.62 125.958l-.535.287" style="fill:none;stroke:#00ff4a;stroke-width:.999997;stroke-linecap:round;stroke-linejoin:round;stroke-miterlimit:500;stroke-dasharray:none;stroke-opacity:1;visibility:visible"/><path d="m318.558 122.343-.012.86s-.137.849-.452 1.242c-.361.453-.905.453-.905.453l-1.752-.573" style="fill:none;stroke:#00ff4a;stroke-width:.666665;stroke-linecap:round;stroke-linejoin:round;stroke-miterlimit:500;stroke-dasharray:none;stroke-opacity:1;visibility:visible"/><path d="M386.623 155.27c-.519.25-1.065.275-1.501.073M385.122 155.344l-3.623-1.362M381.76 148.43l.003.231.021.236M381.786 148.896l.036.234.048.234.062.232.076.222.087.214.101.201.108.19.12.179.127.156.13.14.141.122.142.098.146.078.144.054.142.032.144.004.14-.014.134-.043.129-.061.119-.088.112-.107.1-.13.092-.145.076-.166.065-.183.05-.196.041-.208.022-.215.008-.228M388.675 151.461l-.013.333-.023.326M388.639 152.12l-.04.317-.053.307-.071.293-.084.28-.096.267-.11.25-.124.227-.135.215-.15.19-.156.17-.165.15-.18.127-.185.101M381.5 153.981l-.218-.09-.209-.116-.209-.138-.208-.161-.2-.182-.196-.202-.19-.222-.184-.24-.174-.258-.168-.275-.152-.285-.144-.302-.134-.31-.12-.324-.107-.33-.093-.336-.079-.34-.067-.345-.05-.347-.038-.345-.02-.343-.005-.337M378.538 147.596l-.003.557M387.156 154.981l-.533.287" style="fill:none;stroke:#00ff4a;stroke-width:.999997;stroke-linecap:round;stroke-linejoin:round;stroke-miterlimit:500;stroke-dasharray:none;stroke-opacity:1;visibility:visible"/><path d="m387.095 151.365-.012.86s-.137.85-.452 1.245c-.361.451-.905.451-.905.451l-1.752-.573" style="fill:none;stroke:#00ff4a;stroke-width:.666665;stroke-linecap:round;stroke-linejoin:round;stroke-miterlimit:500;stroke-dasharray:none;stroke-opacity:1;visibility:visible"/><path d="m391.523 145.022-.155 2.014M391.523 145.022l8.676.266M386.623 155.268l13.738-11.987" style="fill:none;stroke:#00ff4a;stroke-width:.999997;stroke-linecap:round;stroke-linejoin:round;stroke-miterlimit:2;stroke-dasharray:none;stroke-opacity:1;visibility:visible"/><path d="m388.02 143.202 14.127 4.104M393.532 149.025l6.054-1.208M399.586 147.817l-6.054 1.208M387.41 144.016l18.094-.031" style="fill:none;stroke:#00ff4a;stroke-width:1.99999;stroke-linecap:round;stroke-linejoin:round;stroke-miterlimit:2;stroke-dasharray:none;stroke-opacity:1;visibility:visible"/><path d="m320.102 123.096-4.012-2.616" style="fill:none;stroke:#00ff4a;stroke-width:.999997;stroke-linecap:round;stroke-linejoin:round;stroke-miterlimit:500;stroke-dasharray:none;stroke-opacity:1;visibility:visible"/><path d="m320.102 123.096-1.544-.753M316.585 126.32l-1.148-1.995" style="fill:none;stroke:#00ff4a;stroke-width:.666665;stroke-linecap:round;stroke-linejoin:round;stroke-miterlimit:500;stroke-dasharray:none;stroke-opacity:1;visibility:visible"/><path d="m386.982 149.641-2.354-.139" style="fill:none;stroke:#00ff4a;stroke-width:.999997;stroke-linecap:round;stroke-linejoin:round;stroke-miterlimit:500;stroke-dasharray:none;stroke-opacity:1;visibility:visible"/><path d="m388.639 152.12-1.544-.755M385.122 155.344l-1.148-1.996" style="fill:none;stroke:#00ff4a;stroke-width:.666665;stroke-linecap:round;stroke-linejoin:round;stroke-miterlimit:500;stroke-dasharray:none;stroke-opacity:1;visibility:visible"/><path d="m264.129 388.495-.79 15.237M311.866 368.98l10.354-165.063M307.326 205.936l-9.75 164.15" style="fill:none;stroke:#9500ff;stroke-width:1.99999;stroke-linecap:round;stroke-linejoin:round;stroke-miterlimit:2;stroke-dasharray:none;stroke-opacity:1;visibility:visible"/><path d="M264.493 387.91a.52.52 0 0 0-.259.23.703.703 0 0 0-.08.184 1.1 1.1 0 0 0-.02.171" style="fill:none;stroke:#9500ff;stroke-width:.999997;stroke-linecap:round;stroke-linejoin:round;stroke-miterlimit:2;stroke-dasharray:none;stroke-opacity:1;visibility:visible"/><path d="m298.591 370.806-34.101 17.093M421.14 309.378l-108.96 54.619" style="fill:none;stroke:#9500ff;stroke-width:1.99999;stroke-linecap:round;stroke-linejoin:round;stroke-miterlimit:2;stroke-dasharray:none;stroke-opacity:1;visibility:visible"/><path d="M267.509 406.906a1.047 1.047 0 0 0 .211.088.501.501 0 0 0 .223.001c.06-.008.115-.035.174-.06" style="fill:none;stroke:#9500ff;stroke-width:.999997;stroke-linecap:round;stroke-linejoin:round;stroke-miterlimit:2;stroke-dasharray:none;stroke-opacity:1;visibility:visible"/><path d="M485.905 295.989a.404.404 0 0 0 .085-.04.479.479 0 0 0 .137-.15.585.585 0 0 0 .076-.169.755.755 0 0 0 .022-.212M486.225 295.417l-.025-.538M263.343 403.734l-.003.028a.643.643 0 0 0 .031.268 1.108 1.108 0 0 0 .127.282.776.776 0 0 0 .19.2c.013.008.024.02.039.028M263.727 404.54l3.783 2.365M268.12 406.942l165.901-84.4M439.332 319.835l3.838-1.952M448.775 315.026l37.133-19.03" style="fill:none;stroke:#9500ff;stroke-width:1.99999;stroke-linecap:round;stroke-linejoin:round;stroke-miterlimit:2;stroke-dasharray:none;stroke-opacity:1;visibility:visible"/><path d="m274.869 192.312-.049.004a.44.44 0 0 0-.21.106.693.693 0 0 0-.247.355 1.115 1.115 0 0 0-.038.221" style="fill:none;stroke:#9500ff;stroke-width:.999997;stroke-linecap:round;stroke-linejoin:round;stroke-miterlimit:2;stroke-dasharray:none;stroke-opacity:1;visibility:visible"/><path d="m274.325 192.997-.851 16.383M453.292 155l-178.426 37.306" style="fill:none;stroke:#9500ff;stroke-width:1.99999;stroke-linecap:round;stroke-linejoin:round;stroke-miterlimit:2;stroke-dasharray:none;stroke-opacity:1;visibility:visible"/><path d="M277.913 212.206a.79.79 0 0 0 .23.068.747.747 0 0 0 .195-.017" style="fill:none;stroke:#9500ff;stroke-width:.999997;stroke-linecap:round;stroke-linejoin:round;stroke-miterlimit:2;stroke-dasharray:none;stroke-opacity:1;visibility:visible"/><path d="M453.66 155.034a.676.676 0 0 0-.224-.048c-.046 0-.094.014-.142.024M457.77 156.728l-4.11-1.694M457.752 162.713l.478-5.163M458.23 157.55a1.29 1.29 0 0 0-.008-.23.97.97 0 0 0-.1-.278.79.79 0 0 0-.167-.206c-.059-.043-.123-.074-.185-.108M273.474 209.38c.003.077.003.154.016.228a.823.823 0 0 0 .11.3.761.761 0 0 0 .165.216 1.261 1.261 0 0 0 .165.11M273.93 210.234l3.983 1.972M316.993 203.825l139.315-30.412M278.345 212.26l38.648-8.435" style="fill:none;stroke:#9500ff;stroke-width:1.99999;stroke-linecap:round;stroke-linejoin:round;stroke-miterlimit:2;stroke-dasharray:none;stroke-opacity:1;visibility:visible"/><path d="M456.308 173.404c.024-.004.05-.004.07-.01a.46.46 0 0 0 .198-.114.69.69 0 0 0 .244-.487" style="fill:none;stroke:#9500ff;stroke-width:.999997;stroke-linecap:round;stroke-linejoin:round;stroke-miterlimit:2;stroke-dasharray:none;stroke-opacity:1;visibility:visible"/><path d="m444.759 302.171 11.756-127.257M433.458 178.402 421.932 308.92" style="fill:none;stroke:#9500ff;stroke-width:1.99999;stroke-linecap:round;stroke-linejoin:round;stroke-miterlimit:2;stroke-dasharray:none;stroke-opacity:1;visibility:visible"/><path d="M297.577 370.087a.257.257 0 0 0 .163.219M301.573 372.569l-3.833-2.263M316.813 213.833l-.496.196-.464.36-.388.488-.28.573-.145.608v.588l.15.514.276.396.392.246.464.07.493-.112.483-.284.432-.427.337-.533.216-.596.072-.604-.072-.556-.216-.46-.34-.33-.43-.157-.483.02M308.2 353.593l-.484.217-.451.368-.375.482-.27.553-.143.576.003.551.143.47.274.35.378.204.452.033.48-.138.47-.298.419-.428.327-.523.208-.57.072-.57-.073-.52-.212-.412-.33-.28-.421-.12-.467.055M309.922 370.549l-7.264 2.13M301.573 372.569c.282.16.78.21 1.085.109M322.04 203.765l-1.496-.712M447.046 301.646l39.002-6.67M265.79 399.512l.372.15.355-.032.293-.208.215-.366.113-.493.003-.576-.111-.607-.212-.58-.295-.508-.353-.389-.377-.235-.366-.056-.33.12-.258.29-.164.438-.057.536.055.598.166.601.255.55.325.455.371.312" style="fill:none;stroke:#9500ff;stroke-width:.999997;stroke-linecap:round;stroke-linejoin:round;stroke-miterlimit:2;stroke-dasharray:none;stroke-opacity:1;visibility:visible"/><path d="M306.546 356.635a2.544 2.544 0 0 0 1.777-3.072M315.222 217.188a2.541 2.541 0 0 0 1.607-3.371" style="fill:none;stroke:#9500ff;stroke-width:.999997;stroke-linecap:round;stroke-linejoin:round;stroke-miterlimit:2;stroke-dasharray:none;stroke-opacity:1;visibility:visible"/><path d="m486.07 294.755-4.288-2.074M481.865 292.666a1.647 1.647 0 0 0-.815-.11" style="fill:none;stroke:#9500ff;stroke-width:1.99999;stroke-linecap:round;stroke-linejoin:round;stroke-miterlimit:2;stroke-dasharray:none;stroke-opacity:1;visibility:visible"/><path d="M447.926 299.231c.052-.008.104-.017.169-.021a2.133 2.133 0 0 1 .19-.01c.066 0 .132 0 .205.006.069.005.142.01.213.02a6.685 6.685 0 0 1 .435.07c.07.021.14.034.205.054a2.421 2.421 0 0 1 .37.13c.112.05.207.1.281.15a.515.515 0 0 1 .096.084.347.347 0 0 1 .062.08.205.205 0 0 1 .028.076.193.193 0 0 1-.012.073.243.243 0 0 1-.13.12.865.865 0 0 1-.258.079 1.256 1.256 0 0 1-.17.021 1.68 1.68 0 0 1-.19.012 3.47 3.47 0 0 1-.632-.05 3.496 3.496 0 0 1-.217-.04c-.071-.018-.141-.032-.211-.052a3.995 3.995 0 0 1-.373-.127c-.057-.028-.109-.053-.157-.081a1.112 1.112 0 0 1-.135-.079.527.527 0 0 1-.159-.161.147.147 0 0 1-.025-.076.137.137 0 0 1 .009-.074.23.23 0 0 1 .045-.065.48.48 0 0 1 .081-.055c.038-.02.078-.033.124-.049a1.177 1.177 0 0 1 .156-.035M464.35 296.44a1.108 1.108 0 0 1 .17-.02 5.197 5.197 0 0 1 .39-.005c.07.003.143.009.214.02.071.006.144.02.216.027.068.013.144.029.212.048.072.012.138.029.208.049.067.018.128.038.192.058.06.022.12.043.175.07.11.046.205.095.281.151a.453.453 0 0 1 .096.082c.03.022.048.05.067.076a.228.228 0 0 1 .028.078.101.101 0 0 1-.013.068.181.181 0 0 1-.046.068.29.29 0 0 1-.078.053.8.8 0 0 1-.112.047c-.042.015-.087.02-.138.032a1.647 1.647 0 0 1-.352.03c-.068.004-.133.001-.204-.002l-.212-.017-.219-.028-.209-.043c-.071-.012-.14-.032-.206-.05a3.063 3.063 0 0 1-.535-.204.97.97 0 0 1-.232-.158c-.025-.028-.05-.053-.064-.08a.157.157 0 0 1-.029-.076.12.12 0 0 1 .01-.072c.005-.025.023-.042.043-.065a.525.525 0 0 1 .197-.102c.02-.009.044-.012.069-.02.03-.005.055-.013.083-.014l-.002-.001" style="fill:none;stroke:#9500ff;stroke-width:.999997;stroke-linecap:round;stroke-linejoin:round;stroke-miterlimit:2;stroke-dasharray:none;stroke-opacity:1;visibility:visible"/><path d="m445.079 298.682 36.021-6.102" style="fill:none;stroke:#9500ff;stroke-width:1.99999;stroke-linecap:round;stroke-linejoin:round;stroke-miterlimit:2;stroke-dasharray:none;stroke-opacity:1;visibility:visible"/><path d="M426.06 311.14c.268.14.746.182 1.035.097M277.5 203.034l-.024-.636-.145-.634-.248-.579-.328-.472-.374-.33-.403-.145-.381.044-.327.228-.248.396-.15.528-.034.61.089.64.195.616.293.533.355.401.392.24.395.056.36-.14.292-.314.201-.468.091-.574" style="fill:none;stroke:#9500ff;stroke-width:.999997;stroke-linecap:round;stroke-linejoin:round;stroke-miterlimit:2;stroke-dasharray:none;stroke-opacity:1;visibility:visible"/><path d="m456.306 174.766-1.99-.841" style="fill:none;stroke:#9500ff;stroke-width:1.99999;stroke-linecap:round;stroke-linejoin:round;stroke-miterlimit:2;stroke-dasharray:none;stroke-opacity:1;visibility:visible"/><path d="M421.932 308.92a.275.275 0 0 0 .19.216M422.122 309.135l3.938 2.003M275.077 192.334a.324.324 0 0 0-.21-.028M275.077 192.334l4 1.938M458.07 157.644l-178.532 37.642M279.537 195.288l-.871 16.422M279.537 195.288a1.095 1.095 0 0 0-.462-1.016M264.769 387.942l3.8 2.336M269.08 391.251a1.108 1.108 0 0 0-.512-.973M447.046 301.646 269.08 391.251M269.08 391.251l-.805 15.27M312.809 204.941l-10.151 167.737" style="fill:none;stroke:#9500ff;stroke-width:.999997;stroke-linecap:round;stroke-linejoin:round;stroke-miterlimit:2;stroke-dasharray:none;stroke-opacity:1;visibility:visible"/><path d="M453.66 155.034a.26.26 0 0 0-.15-.01M458.07 157.644l.066-.019.05-.021.031-.027.013-.03" style="fill:none;stroke:#9500ff;stroke-width:1.99999;stroke-linecap:round;stroke-linejoin:round;stroke-miterlimit:2;stroke-dasharray:none;stroke-opacity:1;visibility:visible"/><path d="m439.19 177.377-12.094 133.861M444.147 166.572l-.195-.415-.305-.297-.385-.144-.44.021M452.112 163.918l-.45.178-.414.324-.353.442-.253.516-.132.548v.531l.134.463.254.358.352.224.418.062.444-.102.163-.096M453.436 164.754l-.193-.416-.307-.294-.39-.144-.433.018M430.218 316.12l-.458.157-.428.311-.366.424-.272.508-.154.546-.017.53.116.467.237.369.347.233.416.08.448-.087M431.512 317.003l-.18-.421-.294-.31-.386-.159-.434.006M439.327 311.59l-.457.161-.427.307-.367.428-.27.508-.151.543-.021.53.118.471.239.364.344.237.415.076.448-.084M440.623 312.474l-.179-.421-.296-.308-.381-.158-.44.003" style="fill:none;stroke:#9500ff;stroke-width:.999997;stroke-linecap:round;stroke-linejoin:round;stroke-miterlimit:2;stroke-dasharray:none;stroke-opacity:1;visibility:visible"/><path d="m442.822 165.736-.448.178-.42.322-.349.442-.251.516-.134.548v.531l.135.464.25.357.355.224.416.062.448-.102" style="fill:none;stroke:#9500ff;stroke-width:.999997;stroke-linecap:round;stroke-linejoin:round;stroke-miterlimit:2;stroke-dasharray:none;stroke-opacity:1;visibility:visible"/><path d="m308.2 353.593 3.98 10.404M439.332 319.835l-5.311 2.707M434.021 322.542l5.311-2.707M448.775 315.026l-5.605 2.857M443.17 317.883l5.605-2.857M456.82 172.793l.932-10.08" style="fill:none;stroke:#9500ff;stroke-width:1.99999;stroke-linecap:round;stroke-linejoin:round;stroke-miterlimit:2;stroke-dasharray:none;stroke-opacity:1;visibility:visible"/><path d="m306.546 356.635 3.376 13.914M309.922 370.549l-3.376-13.914M316.813 213.833l-1.591 3.355M439.198 315.131l8.728-15.9M447.046 301.646l.88-2.415M447.926 299.231l16.424-2.791M481.865 292.666l-17.515 3.774" style="fill:none;stroke:#9500ff;stroke-width:.999997;stroke-linecap:round;stroke-linejoin:round;stroke-miterlimit:2;stroke-dasharray:none;stroke-opacity:1;visibility:visible"/><path d="m447.926 299.231-2.847-.549" style="fill:none;stroke:#9500ff;stroke-width:1.99999;stroke-linecap:round;stroke-linejoin:round;stroke-miterlimit:2;stroke-dasharray:none;stroke-opacity:1;visibility:visible"/><path d="m273.474 209.38 4.026-6.346M279.537 195.288l-2.036 7.746" style="fill:none;stroke:#9500ff;stroke-width:.999997;stroke-linecap:round;stroke-linejoin:round;stroke-miterlimit:2;stroke-dasharray:none;stroke-opacity:1;visibility:visible"/><path d="m457.77 156.728-3.454 17.197" style="fill:none;stroke:#9500ff;stroke-width:1.99999;stroke-linecap:round;stroke-linejoin:round;stroke-miterlimit:2;stroke-dasharray:none;stroke-opacity:1;visibility:visible"/><path d="m447.046 301.646-7.848 13.485M456.308 173.404l-13.484-4.126" style="fill:none;stroke:#9500ff;stroke-width:.999997;stroke-linecap:round;stroke-linejoin:round;stroke-miterlimit:2;stroke-dasharray:none;stroke-opacity:1;visibility:visible"/><path d="m372.498 257.051.607-.252M380.125 274.671l.95-9.363M378.49 258.72l.22.12.216.147.21.169.206.196.2.216.19.239.183.258.171.279.161.293.15.315.136.324.124.339.11.35.098.359.08.368.065.372.05.375.035.377.019.377.003.379-.014.37-.029.366M370.498 260.685l.047-.359.06-.348.076-.337.09-.324.104-.31.122-.291.13-.279.146-.255.157-.234.168-.216.179-.19.188-.166.194-.144.204-.12.21-.09M369.64 269.061l.859-8.376" style="fill:none;stroke:#ffdf00;stroke-width:.999997;stroke-linecap:round;stroke-linejoin:round;stroke-miterlimit:500;stroke-dasharray:none;stroke-opacity:1;visibility:visible"/><path d="m374.514 258.947 3.01 1.477M377.523 260.427c1.5 1.08 2.224 2.924 1.959 4.994M378.69 273.151l.792-7.733" style="fill:none;stroke:#ffdf00;stroke-width:.666665;stroke-linecap:round;stroke-linejoin:round;stroke-miterlimit:500;stroke-dasharray:none;stroke-opacity:1;visibility:visible"/><path d="m373.221 262.963-.376 3.657M376.202 264.417l-.376 3.657M376.202 264.417l.019-.25v-.255l-.014-.256-.029-.259-.043-.255-.058-.248-.071-.237-.087-.23-.098-.218-.111-.201-.119-.183-.128-.165-.136-.144-.144-.123-.148-.097-.152-.074-.15-.05-.154-.022-.152.004-.148.03-.145.054-.137.082-.132.105-.122.127-.113.149-.1.173-.09.187-.075.207-.064.218-.047.235-.032.241M372.846 266.62l-.017.25-.003.255.013.258.03.257.044.252.056.25.073.238.085.23.099.218.11.201.12.183.129.164.136.147.141.121.15.097.15.075.152.048.155.021.15-.001.148-.03.144-.055.139-.082.132-.105.121-.128.114-.15.1-.169.09-.189.076-.205.063-.222.047-.232.033-.242" style="fill:none;stroke:#ffdf00;stroke-width:.999997;stroke-linecap:round;stroke-linejoin:round;stroke-miterlimit:500;stroke-dasharray:none;stroke-opacity:1;visibility:visible"/><path d="m370.281 270.817 6.38 3.124" style="fill:none;stroke:#ffdf00;stroke-width:.666665;stroke-linecap:round;stroke-linejoin:round;stroke-miterlimit:500;stroke-dasharray:none;stroke-opacity:1;visibility:visible"/><path d="m374.73 256.874 3.76 1.845M369.64 269.063c-.119 1.027-.73 1.89-1.745 2.37M373.104 256.8c.584-.214 1.176-.188 1.626.078M361.214 275.894l-.04-.647M378.07 277.336l-4.23 1.652M373.838 278.99a11.024 11.024 0 0 1-7.95-.096M380.124 274.673a3.517 3.517 0 0 1-2.056 2.665" style="fill:none;stroke:#ffdf00;stroke-width:.999997;stroke-linecap:round;stroke-linejoin:round;stroke-miterlimit:500;stroke-dasharray:none;stroke-opacity:1;visibility:visible"/><path d="m376.23 276.267-4.385 1.599M371.843 277.869a8.41 8.41 0 0 1-4.779-.429M367.064 277.438l-.793-.417" style="fill:none;stroke:#ffdf00;stroke-width:.666665;stroke-linecap:round;stroke-linejoin:round;stroke-miterlimit:500;stroke-dasharray:none;stroke-opacity:1;visibility:visible"/><path d="m367.94 271.4-4.495 1.724M361.18 275.086l.005-.079.044-.173.072-.176.1-.172.13-.17.153-.169.183-.164.205-.16.232-.154.255-.147.276-.14.294-.133.318-.126" style="fill:none;stroke:#ffdf00;stroke-width:.999997;stroke-linecap:round;stroke-linejoin:round;stroke-miterlimit:500;stroke-dasharray:none;stroke-opacity:1;visibility:visible"/><path d="m366.475 274.832-.135-.079-.117-.088-.092-.092-.07-.097-.046-.101-.021-.104.004-.107.028-.104.053-.108.077-.101.102-.103.122-.099.143-.09.164-.087.18-.081M366.475 274.832l.335.15M372.838 274.519l.068.04.117.087.091.092.07.098.046.1.023.104-.006.106-.028.108-.053.104-.077.101-.102.101-.121.099-.145.092-.162.088-.182.081-.198.074-.209.062-.221.056-.234.046-.237.037-.245.027-.246.016-.246.005M372.77 274.478l.068.04" style="fill:none;stroke:#ffdf00;stroke-width:.666665;stroke-linecap:round;stroke-linejoin:round;stroke-miterlimit:500;stroke-dasharray:none;stroke-opacity:1;visibility:visible"/><path d="m365.89 278.892-3.544-1.657" style="fill:none;stroke:#ffdf00;stroke-width:.999997;stroke-linecap:round;stroke-linejoin:round;stroke-miterlimit:500;stroke-dasharray:none;stroke-opacity:1;visibility:visible"/><path d="M378.342 274.549a2.373 2.373 0 0 1-1.255 1.29" style="fill:none;stroke:#ffdf00;stroke-width:.666665;stroke-linecap:round;stroke-linejoin:round;stroke-miterlimit:500;stroke-dasharray:none;stroke-opacity:1;visibility:visible"/><path d="M362.346 277.237a1.773 1.773 0 0 1-1.132-1.342" style="fill:none;stroke:#ffdf00;stroke-width:.999997;stroke-linecap:round;stroke-linejoin:round;stroke-miterlimit:500;stroke-dasharray:none;stroke-opacity:1;visibility:visible"/><path d="m300.925 237.208-9.547-4.818M393.22 283.786l-12.942-6.532M367.066 270.586l-44.019-22.216M320.86 269.471l55.305 28.686M274.873 245.616l25.96 13.466" style="fill:none;stroke:#ffdf00;stroke-width:1.99999;stroke-linecap:round;stroke-linejoin:round;stroke-miterlimit:2;stroke-dasharray:none;stroke-opacity:1;visibility:visible"/><path d="M393.432 284.16a.383.383 0 0 0-.364-.405.377.377 0 0 0-.214.049M389.518 288.175l-.19-.205-.262-.071-.299.074-.29.211-.233.309-.144.373-.032.365.084.309.19.207.26.07M380.932 292.357l-.192-.207-.266-.07-.299.078-.29.211-.236.31-.143.372-.032.369.084.31.19.205.266.068.304-.076" style="fill:none;stroke:#ffdf00;stroke-width:.999997;stroke-linecap:round;stroke-linejoin:round;stroke-miterlimit:2;stroke-dasharray:none;stroke-opacity:1;visibility:visible"/><path d="m376.546 298.142 3.21-1.567M384.42 294.3l3.816-1.863M393.318 289.958a.937.937 0 0 0 .485-.875M393.803 289.082l-.37-4.922" style="fill:none;stroke:#ffdf00;stroke-width:1.99999;stroke-linecap:round;stroke-linejoin:round;stroke-miterlimit:2;stroke-dasharray:none;stroke-opacity:1;visibility:visible"/><path d="M274.59 239.72a.84.84 0 0 0-.46.826M392.854 283.803l-16.81 8.16M376.044 291.962a.941.941 0 0 0-.489.881M375.554 292.843l.401 4.947M375.955 297.79a.395.395 0 0 0 .376.407.404.404 0 0 0 .213-.055" style="fill:none;stroke:#ffdf00;stroke-width:.999997;stroke-linecap:round;stroke-linejoin:round;stroke-miterlimit:2;stroke-dasharray:none;stroke-opacity:1;visibility:visible"/><path d="M291.378 232.392a.41.41 0 0 0-.361.008M274.657 245.26a.43.43 0 0 0 .216.355M291.015 232.4l-16.425 7.32M274.13 240.546l.527 4.716" style="fill:none;stroke:#ffdf00;stroke-width:1.99999;stroke-linecap:round;stroke-linejoin:round;stroke-miterlimit:2;stroke-dasharray:none;stroke-opacity:1;visibility:visible"/><path d="m321.502 263.878 54.541 28.084M274.59 239.72l26.537 13.664M372.112 274.171l-.092 1.144M371.866 275.63a.472.472 0 0 0 .154-.316M368.047 275.713a4.683 4.683 0 0 0 3.076.307M371.123 276.02a1.78 1.78 0 0 0 .743-.39M372.112 274.171a.95.95 0 0 0-.194-.665M371.916 273.506a2.008 2.008 0 0 0-.71-.565M371.206 272.94a4.172 4.172 0 0 0-1.35-.372 3.972 3.972 0 0 0-1.39.099M367.372 273.695l-.092 1.145M367.28 274.84a.504.504 0 0 0 .1.343M367.38 275.182c.18.228.41.412.666.53M368.466 272.669a1.847 1.847 0 0 0-.796.414M367.672 273.082a.933.933 0 0 0-.3.613M301.583 242.176c.243.113.49.206.743.274M302.515 239.038a3.992 3.992 0 0 0-.513.095M300.909 240.16l-.091 1.146M300.818 241.305a.496.496 0 0 0 .099.341M300.917 241.646c.18.227.409.412.666.53M302.002 239.132a1.852 1.852 0 0 0-.792.414M301.211 239.546a.944.944 0 0 0-.301.614" style="fill:none;stroke:#ffdf00;stroke-width:.999997;stroke-linecap:round;stroke-linejoin:round;stroke-miterlimit:2;stroke-dasharray:none;stroke-opacity:1;visibility:visible"/><path d="M301.413 246.008a11.027 11.027 0 0 1-1.983-.656M294.86 242.197l-.02-.648M303.51 235.652c-.152 1.02-.792 1.862-1.821 2.308" style="fill:none;stroke:#ffdf00;stroke-width:.999997;stroke-linecap:round;stroke-linejoin:round;stroke-miterlimit:500;stroke-dasharray:none;stroke-opacity:1;visibility:visible"/><path d="m300.655 243.937-.778-.445M301.722 244.32a8.267 8.267 0 0 1-1.067-.383" style="fill:none;stroke:#ffdf00;stroke-width:.666665;stroke-linecap:round;stroke-linejoin:round;stroke-miterlimit:500;stroke-dasharray:none;stroke-opacity:1;visibility:visible"/><path d="m294.853 241.389.007-.077.05-.174.079-.172.105-.168.135-.166.16-.163.186-.159.212-.153.236-.145.26-.14.28-.13.3-.122.322-.115M301.734 237.933l-4.55 1.572" style="fill:none;stroke:#ffdf00;stroke-width:.999997;stroke-linecap:round;stroke-linejoin:round;stroke-miterlimit:500;stroke-dasharray:none;stroke-opacity:1;visibility:visible"/><path d="m300.155 241.313-.133-.083-.115-.092-.087-.094-.069-.1-.041-.102-.017-.106.006-.107.031-.103.06-.105.079-.099.105-.098.124-.096.147-.086.165-.08.185-.076M300.154 241.313l.33.161" style="fill:none;stroke:#ffdf00;stroke-width:.666665;stroke-linecap:round;stroke-linejoin:round;stroke-miterlimit:500;stroke-dasharray:none;stroke-opacity:1;visibility:visible"/><path d="M295.946 243.574a1.765 1.765 0 0 1-1.086-1.377M299.431 245.352l-3.485-1.778" style="fill:none;stroke:#ffdf00;stroke-width:.999997;stroke-linecap:round;stroke-linejoin:round;stroke-miterlimit:500;stroke-dasharray:none;stroke-opacity:1;visibility:visible"/><path d="m374.73 256.878-.216 2.069M380.124 274.673l-1.434-1.522M371.206 272.94l-.925-2.123M372.838 274.519l3.823-.578" style="fill:none;stroke:#ffdf00;stroke-width:.666665;stroke-linecap:round;stroke-linejoin:round;stroke-miterlimit:500;stroke-dasharray:none;stroke-opacity:1;visibility:visible"/><path d="m300.154 241.313.771-4.105M376.661 273.941l3.617 3.313M370.281 270.817l-3.215-.231M299.43 245.352l1.403 13.73M384.42 294.3l-4.664 2.275M379.756 296.575l4.664-2.275M393.318 289.958l-5.082 2.479M388.236 292.437l5.082-2.479" style="fill:none;stroke:#ffdf00;stroke-width:1.99999;stroke-linecap:round;stroke-linejoin:round;stroke-miterlimit:2;stroke-dasharray:none;stroke-opacity:1;visibility:visible"/><path d="m299.43 245.352 1.697 8.032" style="fill:none;stroke:#ffdf00;stroke-width:.999997;stroke-linecap:round;stroke-linejoin:round;stroke-miterlimit:2;stroke-dasharray:none;stroke-opacity:1;visibility:visible"/><path d="m300.91 240.16 2.6-4.508" style="fill:none;stroke:#ffdf00;stroke-width:.999997;stroke-linecap:round;stroke-linejoin:round;stroke-miterlimit:500;stroke-dasharray:none;stroke-opacity:1;visibility:visible"/><path d="m257.669 206.492-10.46 11.556" style="fill:none;stroke:red;stroke-width:.999997;stroke-linecap:round;stroke-linejoin:round;stroke-miterlimit:2;stroke-dasharray:none;stroke-opacity:1;visibility:visible"/><path d="m456.82 172.793-17.63 4.584" style="fill:none;stroke:#9500ff;stroke-width:.999997;stroke-linecap:round;stroke-linejoin:round;stroke-miterlimit:2;stroke-dasharray:none;stroke-opacity:1;visibility:visible"/><path d="m378.69 273.151 10.828 15.024M376.661 273.941l4.271 18.416" style="fill:none;stroke:#ffdf00;stroke-width:.999997;stroke-linecap:round;stroke-linejoin:round;stroke-miterlimit:2;stroke-dasharray:none;stroke-opacity:1;visibility:visible"/></svg>