<svg xmlns="http://www.w3.org/2000/svg" baseProfile="full" height="1122.52" preserveAspectRatio="xMinYMin meet" style="width:914px;height:841px" width="793.701" xml:space="preserve"><path d="M276.147 722.628a.581.581 0 0 0-.205-.039c-.036.003-.068.008-.099.012M279.791 724.081l-3.641-1.453M279.898 729.001l.293-3.757" style="fill:none;stroke:red;stroke-width:.999997;stroke-linecap:round;stroke-linejoin:round;stroke-miterlimit:10;stroke-dasharray:none;stroke-opacity:1;visibility:visible"/><path d="m408.106 767.17-127.83-50.216M393.588 902.831l14.846-135.114M389 904.598l4.164-1.235" style="fill:none;stroke:red;stroke-width:1.99999;stroke-linecap:round;stroke-linejoin:round;stroke-miterlimit:10;stroke-dasharray:none;stroke-opacity:1;visibility:visible"/><path d="m393.162 903.355.03-.002a.378.378 0 0 0 .182-.107.76.76 0 0 0 .132-.159.485.485 0 0 0 .07-.177c.004-.03.004-.06.004-.088" style="fill:none;stroke:red;stroke-width:.999997;stroke-linecap:round;stroke-linejoin:round;stroke-miterlimit:10;stroke-dasharray:none;stroke-opacity:1;visibility:visible"/><path d="M280.278 716.957c-.064-.021-.132-.044-.199-.047a.744.744 0 0 0-.134.016M279.942 716.918l-4.215.738M275.253 718.2l-.334 4.562M275.727 717.66a.44.44 0 0 0-.249.1.736.736 0 0 0-.139.157.601.601 0 0 0-.079.29" style="fill:none;stroke:red;stroke-width:1.99999;stroke-linecap:round;stroke-linejoin:round;stroke-miterlimit:10;stroke-dasharray:none;stroke-opacity:1;visibility:visible"/><path d="m386.858 771.948-106.781-42.595M345.636 905.931l-52.586-26.62M407.779 767.79l-4.28.932M402.838 768.866l-127.425-50.374M388.188 903.974l14.65-135.11M276.147 722.628a.248.248 0 0 0-.137-.014M279.791 724.081a.223.223 0 0 0-.138-.013M276.009 722.616l-.091-.022-.079.003" style="fill:none;stroke:red;stroke-width:.999997;stroke-linecap:round;stroke-linejoin:round;stroke-miterlimit:10;stroke-dasharray:none;stroke-opacity:1;visibility:visible"/><path d="m275.84 717.665-.06-.013-.054.002" style="fill:none;stroke:red;stroke-width:1.99999;stroke-linecap:round;stroke-linejoin:round;stroke-miterlimit:10;stroke-dasharray:none;stroke-opacity:1;visibility:visible"/><path d="m274.919 722.762 5.272 2.482" style="fill:none;stroke:red;stroke-width:.999997;stroke-linecap:round;stroke-linejoin:round;stroke-miterlimit:10;stroke-dasharray:none;stroke-opacity:1;visibility:visible"/><path d="m206.466 1008.035-.915 15.276M254.41 987.511l12.195-166.72M251.42 823.025l-11.437 165.642" style="fill:none;stroke:#00ff4a;stroke-width:1.99999;stroke-linecap:round;stroke-linejoin:round;stroke-miterlimit:10;stroke-dasharray:none;stroke-opacity:1;visibility:visible" visibility="hidden"/><path d="M206.826 1007.459a.436.436 0 0 0-.104.055c-.056.036-.099.096-.141.153a.833.833 0 0 0-.083.188c-.015.057-.018.12-.027.18" style="fill:none;stroke:#00ff4a;stroke-width:.999997;stroke-linecap:round;stroke-linejoin:round;stroke-miterlimit:10;stroke-dasharray:none;stroke-opacity:1;visibility:visible" visibility="hidden"/><path d="m240.943 989.391-34.12 18.055M362.274 925.204 254.81 982.058" style="fill:none;stroke:#00ff4a;stroke-width:1.99999;stroke-linecap:round;stroke-linejoin:round;stroke-miterlimit:10;stroke-dasharray:none;stroke-opacity:1;visibility:visible" visibility="hidden"/><path d="M209.86 1026.688c.072.034.141.073.217.09a.517.517 0 0 0 .231.012c.068-.014.131-.042.195-.068" style="fill:none;stroke:#00ff4a;stroke-width:.999997;stroke-linecap:round;stroke-linejoin:round;stroke-miterlimit:10;stroke-dasharray:none;stroke-opacity:1;visibility:visible" visibility="hidden"/><path d="M425.19 910.987c.025-.01.046-.021.073-.03a.395.395 0 0 0 .136-.158.503.503 0 0 0 .079-.172.972.972 0 0 0 .02-.184M425.499 910.443l-.013-.538M205.558 1023.314c-.005.013-.005.028-.01.04a.68.68 0 0 0 .039.273.877.877 0 0 0 .355.507M205.94 1024.134l3.92 2.554M210.511 1026.722l214.684-115.727" style="fill:none;stroke:#00ff4a;stroke-width:1.99999;stroke-linecap:round;stroke-linejoin:round;stroke-miterlimit:10;stroke-dasharray:none;stroke-opacity:1;visibility:visible" visibility="hidden"/><path d="m218.967 809.22-.04.001a.435.435 0 0 0-.223.111.635.635 0 0 0-.155.165.627.627 0 0 0-.1.206c-.019.068-.026.14-.039.21M280.191 725.244l.031-.407M280.222 724.837c0-.07 0-.139-.01-.208a.833.833 0 0 0-.098-.261.617.617 0 0 0-.152-.184 1.047 1.047 0 0 0-.17-.102" style="fill:none;stroke:#00ff4a;stroke-width:.999997;stroke-linecap:round;stroke-linejoin:round;stroke-miterlimit:10;stroke-dasharray:none;stroke-opacity:1;visibility:visible" visibility="hidden"/><path d="m218.41 809.913-1.003 16.754M396.075 770.498l-177.11 38.713" style="fill:none;stroke:#00ff4a;stroke-width:1.99999;stroke-linecap:round;stroke-linejoin:round;stroke-miterlimit:10;stroke-dasharray:none;stroke-opacity:1;visibility:visible" visibility="hidden"/><path d="M222.055 829.62a.859.859 0 0 0 .238.072c.067.005.14-.009.21-.019" style="fill:none;stroke:#00ff4a;stroke-width:.999997;stroke-linecap:round;stroke-linejoin:round;stroke-miterlimit:10;stroke-dasharray:none;stroke-opacity:1;visibility:visible" visibility="hidden"/><path d="M217.407 826.667c0 .083 0 .16.014.238a1.053 1.053 0 0 0 .109.305.767.767 0 0 0 .174.221c.053.045.113.079.173.115M217.875 827.547l4.18 2.074M222.293 829.691l176.662-40.625" style="fill:none;stroke:#00ff4a;stroke-width:1.99999;stroke-linecap:round;stroke-linejoin:round;stroke-miterlimit:10;stroke-dasharray:none;stroke-opacity:1;visibility:visible" visibility="hidden"/><path d="M396.451 770.528a.715.715 0 0 0-.232-.044c-.05 0-.096.013-.144.022M400.764 772.246l-4.313-1.718M401.234 773.085c0-.081.005-.159-.006-.235a1.037 1.037 0 0 0-.097-.28.719.719 0 0 0-.177-.21.993.993 0 0 0-.19-.114" style="fill:none;stroke:#00ff4a;stroke-width:.999997;stroke-linecap:round;stroke-linejoin:round;stroke-miterlimit:10;stroke-dasharray:none;stroke-opacity:1;visibility:visible" visibility="hidden"/><path d="m257.094 744.64-3.953 57.1" style="fill:none;stroke:#00ff4a;stroke-width:1.99999;stroke-linecap:round;stroke-linejoin:round;stroke-miterlimit:10;stroke-dasharray:none;stroke-opacity:1;visibility:visible" visibility="hidden"/><path d="m274.722 797.025 2.73-35.54M277.72 758.005l.945-12.337M270.013 859.891l3.137-41.869" style="fill:none;stroke:#00ff4a;stroke-width:.999997;stroke-linecap:round;stroke-linejoin:round;stroke-miterlimit:10;stroke-dasharray:none;stroke-opacity:1;visibility:visible" visibility="hidden"/><path d="m385.468 917.92 1.464-13.534M376.33 794.285l-13.352 130.703" style="fill:none;stroke:#00ff4a;stroke-width:1.99999;stroke-linecap:round;stroke-linejoin:round;stroke-miterlimit:10;stroke-dasharray:none;stroke-opacity:1;visibility:visible" visibility="hidden"/><path d="M408.431 767.72c.003-.045.005-.09.003-.137a.563.563 0 0 0-.194-.333.444.444 0 0 0-.14-.081M386.992 903.798l1.544.755M388.536 904.545a.761.761 0 0 0 .094.045.452.452 0 0 0 .218.033c.05-.002.104-.016.152-.026M270.517 860.678l-.522 6.967" style="fill:none;stroke:#00ff4a;stroke-width:.999997;stroke-linecap:round;stroke-linejoin:round;stroke-miterlimit:10;stroke-dasharray:none;stroke-opacity:1;visibility:visible" visibility="hidden"/><path d="m262.443 739.085 94.895 39.023M261.863 885.61l88.184 46.065" style="fill:none;stroke:#00ff4a;stroke-width:1.99999;stroke-linecap:round;stroke-linejoin:round;stroke-miterlimit:10;stroke-dasharray:none;stroke-opacity:1;visibility:visible" visibility="hidden"/><path d="M387.706 917.326 425.35 910M208.13 1019.194l.395.166.361-.013.315-.195.221-.36.121-.49.004-.577-.109-.617-.218-.597-.305-.523-.365-.406-.388-.25-.385-.076-.343.11-.27.278-.172.43-.061.54.052.605.167.608.26.567.341.466.38.334M239.982 988.667c0 .101.079.21.172.248M244.14 991.334l-3.986-2.419M261.097 830.926l-.5.205-.467.371-.392.5-.281.585-.158.62-.008.596.142.524.277.403.387.24.463.068.493-.117.487-.295.437-.44.338-.541.225-.61.083-.614-.07-.566-.208-.468-.336-.327-.429-.16-.483.026M250.949 972.186l-.482.234-.452.378-.378.492-.274.562-.148.582-.004.552.139.464.268.351.372.189.447.021.481-.15.47-.311.419-.438.331-.532.212-.58.076-.572-.065-.51-.203-.412-.327-.276-.413-.107-.47.063M252.477 989.115l-7.234 2.33M244.14 991.334c.288.174.788.224 1.104.112M274.769 870.06l-5.699-2.884" style="fill:none;stroke:#00ff4a;stroke-width:.999997;stroke-linecap:round;stroke-linejoin:round;stroke-miterlimit:10;stroke-dasharray:none;stroke-opacity:1;visibility:visible" visibility="hidden"/><path d="m425.34 909.769-4.448-2.149M420.882 907.569a1.267 1.267 0 0 0-.708-.063" style="fill:none;stroke:#00ff4a;stroke-width:1.99999;stroke-linecap:round;stroke-linejoin:round;stroke-miterlimit:10;stroke-dasharray:none;stroke-opacity:1;visibility:visible" visibility="hidden"/><path d="M388.315 914.769c.052-.011.107-.016.164-.024a2.116 2.116 0 0 1 .388-.004c.073.004.143.006.215.014a2.84 2.84 0 0 1 .217.032c.076.013.147.028.219.043.069.017.144.032.209.05.067.025.135.04.199.066.064.02.124.047.178.07a1.573 1.573 0 0 1 .294.161c.04.025.072.055.108.083a.83.83 0 0 1 .066.085.212.212 0 0 1 .034.082.18.18 0 0 1-.003.076.227.227 0 0 1-.04.07.44.44 0 0 1-.185.109l-.136.037a1.227 1.227 0 0 1-.167.023 1.301 1.301 0 0 1-.181.01c-.068.004-.135.001-.204.001l-.214-.017a2.17 2.17 0 0 1-.216-.031 3.073 3.073 0 0 1-.217-.039 3.03 3.03 0 0 1-.21-.056 3.152 3.152 0 0 1-.386-.13c-.059-.03-.113-.054-.164-.08a1.253 1.253 0 0 1-.243-.168.347.347 0 0 1-.069-.086.16.16 0 0 1-.036-.083.145.145 0 0 1 .003-.076.133.133 0 0 1 .041-.07.21.21 0 0 1 .07-.058.87.87 0 0 1 .267-.089l-.001-.001M404.195 911.702a3.03 3.03 0 0 1 .35-.033c.059 0 .126 0 .192.005.075.004.143.01.215.02.074.005.144.016.218.03a2.48 2.48 0 0 1 .213.037c.07.019.14.034.21.053.065.024.132.041.197.065a1.327 1.327 0 0 1 .178.071c.115.048.212.102.294.157a1.11 1.11 0 0 1 .105.082c.028.031.052.057.072.086a.33.33 0 0 1 .035.078.113.113 0 0 1-.006.073.108.108 0 0 1-.032.068.467.467 0 0 1-.072.063.96.96 0 0 1-.242.082.932.932 0 0 1-.159.022 1.993 1.993 0 0 1-.384.008 2.873 2.873 0 0 1-.21-.016 3.49 3.49 0 0 1-.429-.068c-.068-.02-.14-.031-.206-.052a2.824 2.824 0 0 1-.386-.134c-.06-.022-.116-.052-.166-.077a.855.855 0 0 1-.138-.084c-.042-.025-.073-.055-.109-.083a.57.57 0 0 1-.068-.084.124.124 0 0 1-.037-.08.15.15 0 0 1 .037-.141.283.283 0 0 1 .068-.057c.036-.02.067-.04.115-.053a.33.33 0 0 1 .064-.02c.026-.005.052-.013.081-.02v.002" style="fill:none;stroke:#00ff4a;stroke-width:.999997;stroke-linecap:round;stroke-linejoin:round;stroke-miterlimit:10;stroke-dasharray:none;stroke-opacity:1;visibility:visible" visibility="hidden"/><path d="m385.875 914.131 34.34-6.61" style="fill:none;stroke:#00ff4a;stroke-width:1.99999;stroke-linecap:round;stroke-linejoin:round;stroke-miterlimit:10;stroke-dasharray:none;stroke-opacity:1;visibility:visible" visibility="hidden"/><path d="m382.223 793.149-13.899 134.269M262.095 743.048l-4.058 57.622M401.09 773.176l.06-.02.049-.021.03-.027.002-.023M222.506 829.675a.557.557 0 0 0 .339-.56M219.193 809.24a.347.347 0 0 0-.23-.027M219.193 809.24l4.205 2.026M401.09 773.176 223.877 812.31M223.877 812.31l-1.032 16.807M223.877 812.311a1.124 1.124 0 0 0-.478-1.046M207.13 1007.49l3.943 2.516M211.591 1011.099c.02-.412-.216-.901-.52-1.093M387.706 917.326 211.6 1011M211.6 1011l-.944 15.32M270.537 860.4l-7.077 3.353M257.235 821.785l-11.99 169.66M269.071 867.175a.396.396 0 0 0-.35.015M268.72 867.187l-5.71 2.724M262.175 738.525l.378-5.421M297.146 753.353l-.061.245M363.186 925.227l-.086-.055-.069-.057-.04-.06-.011-.06M363.186 925.227l4.098 2.093M367.284 927.32c.27.146.747.194 1.04.1M221.697 820.233l-.024-.648-.147-.655-.256-.596-.34-.49-.403-.337-.417-.157-.4.041-.35.232-.264.402-.159.538-.039.623.088.659.2.628.305.552.372.415.412.254.416.06.38-.139.307-.32.222-.474.096-.588M265.902 881.82l60.365 31.278M338.611 919.494l17.41 9.021M263.14 732.326l106.355 43.187" style="fill:none;stroke:#00ff4a;stroke-width:.999997;stroke-linecap:round;stroke-linejoin:round;stroke-miterlimit:10;stroke-dasharray:none;stroke-opacity:1;visibility:visible" visibility="hidden"/><path d="m97.858 937.563-.332 14.232M143.564 919.823l5.556-155.497M135.137 766.76l-4.98 155.259" style="fill:none;stroke:#00ff4a;stroke-width:1.99999;stroke-linecap:round;stroke-linejoin:round;stroke-miterlimit:10;stroke-dasharray:none;stroke-opacity:1;visibility:visible" visibility="hidden"/><path d="M98.21 936.99c-.03.013-.06.026-.09.044a.47.47 0 0 0-.129.125.684.684 0 0 0-.086.156.539.539 0 0 0-.043.188c0 .017.006.039.006.063" style="fill:none;stroke:#00ff4a;stroke-width:.999997;stroke-linecap:round;stroke-linejoin:round;stroke-miterlimit:10;stroke-dasharray:none;stroke-opacity:1;visibility:visible" visibility="hidden"/><path d="M130.192 922.131 98.21 936.986M247.853 866.37l-104.148 49.481" style="fill:none;stroke:#00ff4a;stroke-width:1.99999;stroke-linecap:round;stroke-linejoin:round;stroke-miterlimit:10;stroke-dasharray:none;stroke-opacity:1;visibility:visible" visibility="hidden"/><path d="M101.098 954.623c.066.03.123.063.192.079a.4.4 0 0 0 .198.012c.054-.012.11-.034.161-.052" style="fill:none;stroke:#00ff4a;stroke-width:.999997;stroke-linecap:round;stroke-linejoin:round;stroke-miterlimit:10;stroke-dasharray:none;stroke-opacity:1;visibility:visible" visibility="hidden"/><path d="M97.534 951.798c0 .054 0 .112.008.17a.77.77 0 0 0 .088.263.82.82 0 0 0 .143.205.667.667 0 0 0 .103.078M97.876 952.514l3.222 2.11M101.653 954.667l144.217-69.14" style="fill:none;stroke:#00ff4a;stroke-width:1.99999;stroke-linecap:round;stroke-linejoin:round;stroke-miterlimit:10;stroke-dasharray:none;stroke-opacity:1;visibility:visible" visibility="hidden"/><path d="M102.726 753.444c-.02 0-.042 0-.058.005a.413.413 0 0 0-.194.096.533.533 0 0 0-.132.135.537.537 0 0 0-.086.17 1.008 1.008 0 0 0-.05.25" style="fill:none;stroke:#00ff4a;stroke-width:.999997;stroke-linecap:round;stroke-linejoin:round;stroke-miterlimit:10;stroke-dasharray:none;stroke-opacity:1;visibility:visible" visibility="hidden"/><path d="m102.206 754.1-.354 15.437M275.863 722.598l-173.138 30.836" style="fill:none;stroke:#00ff4a;stroke-width:1.99999;stroke-linecap:round;stroke-linejoin:round;stroke-miterlimit:10;stroke-dasharray:none;stroke-opacity:1;visibility:visible" visibility="hidden"/><path d="M105.668 772.012c.072.026.138.054.21.062a.573.573 0 0 0 .172-.016" style="fill:none;stroke:#00ff4a;stroke-width:.999997;stroke-linecap:round;stroke-linejoin:round;stroke-miterlimit:10;stroke-dasharray:none;stroke-opacity:1;visibility:visible" visibility="hidden"/><path d="M101.853 769.537c0 .068.003.133.013.2a1.036 1.036 0 0 0 .1.279.67.67 0 0 0 .154.193.613.613 0 0 0 .151.107M102.272 770.316l3.396 1.694M106.05 772.066l161.287-30.028" style="fill:none;stroke:#00ff4a;stroke-width:1.99999;stroke-linecap:round;stroke-linejoin:round;stroke-miterlimit:10;stroke-dasharray:none;stroke-opacity:1;visibility:visible" visibility="hidden"/><path d="M102.726 753.433h.067l.088.027M102.881 753.46l3.417 1.653M279.807 729.374l-17.029 3.062M280.09 724.884 106.706 756.05M106.706 756.05l-.376 15.48M106.706 756.05a1.068 1.068 0 0 0-.408-.937M98.422 937.022l3.238 2.073M102.13 939.992a.97.97 0 0 0-.47-.898M246.738 871.569l-144.609 68.423M102.13 939.992l-.35 14.268M139.837 766.137l-5.263 158.062M105.1 763.392l-.042-.594-.134-.594-.22-.54-.287-.425-.323-.293-.34-.122-.324.054-.273.23-.2.385-.116.503-.011.576.084.596.18.568.258.489.31.367.336.208.334.034.298-.142.243-.308.161-.448.066-.544M99.484 947.768l.316.132.293-.04.245-.2.175-.35.079-.462-.008-.538-.107-.563-.19-.536-.257-.467-.304-.35-.322-.21-.312-.044-.274.123-.205.281-.133.41-.034.505.06.555.144.554.231.506.287.413.316.281M130.285 922.22l3.283 2.004M139.322 910.626l-.401.183-.352.325-.257.421-.127.462.024.44.165.353.291.231.372.064.403-.105.384-.257.309-.38.19-.45.054-.456-.092-.407-.23-.3-.338-.145-.395.02M143.824 780.028l-.412.164-.366.325-.268.432-.128.488.02.47.171.398.301.267.379.1.421-.079.396-.247.316-.386.206-.468.056-.488-.103-.444-.239-.338-.341-.184-.41-.01M371.686 930.574l-.454.158-.429.308-.368.43-.27.508-.154.544-.019.528.118.47.238.362.344.241.418.079.448-.087.445-.241.401-.37.326-.473.21-.531.09-.538-.05-.506-.178-.42-.296-.313-.382-.152-.438.003M380.932 925.475l-.454.159-.43.31-.366.427-.27.51-.152.541-.02.528.118.468.238.37.346.233.414.079.448-.086.444-.236.404-.374.323-.468.216-.532.087-.538-.05-.508-.177-.422-.297-.308-.384-.158-.438.005" style="fill:none;stroke:#00ff4a;stroke-width:.999997;stroke-linecap:round;stroke-linejoin:round;stroke-miterlimit:10;stroke-dasharray:none;stroke-opacity:1;visibility:visible" visibility="hidden"/><path d="m380.79 926.64-.167.061-.159.113-.138.158-.099.191-.057.2-.006.195.042.174.089.14.128.083.156.031.164-.032.167-.088.148-.139.12-.17.078-.203.034-.199-.02-.185-.063-.16-.11-.11-.144-.06h-.163M371.58 931.708l-.17.06-.159.115-.136.159-.101.19-.056.2-.008.195.045.175.088.138.127.086.156.03.166-.034.164-.087.15-.139.12-.173.08-.199.03-.2-.018-.188-.064-.156-.11-.112-.142-.06h-.163" style="fill:none;stroke:#00ff4a;stroke-width:.666665;stroke-linecap:round;stroke-linejoin:round;stroke-miterlimit:10;stroke-dasharray:none;stroke-opacity:1;visibility:visible" visibility="hidden"/><path d="m385.262 781.87-.447.178-.417.322-.351.443-.253.516-.131.547v.53l.133.464.251.357.353.225.42.058.444-.098.436-.255.389-.385.31-.483.188-.539.067-.544-.067-.502-.19-.415-.309-.296-.389-.144-.437.021M393.89 779.87l-.448.178-.418.322-.35.44-.252.52-.132.549v.526l.134.468.252.357.352.222.418.06.446-.099.435-.256.39-.385.307-.48.194-.54.066-.542-.066-.504-.195-.416-.308-.297-.388-.141-.437.018" style="fill:none;stroke:#00ff4a;stroke-width:.999997;stroke-linecap:round;stroke-linejoin:round;stroke-miterlimit:10;stroke-dasharray:none;stroke-opacity:1;visibility:visible" visibility="hidden"/><path d="m393.839 781.06-.177.073-.164.127-.138.173-.1.204-.052.216v.207l.052.184.1.142.14.09.164.022.176-.038.171-.102.153-.152.122-.19.076-.211.026-.216-.026-.197-.076-.164-.122-.115-.153-.06-.172.007M385.199 782.968l-.177.07-.164.127-.138.172-.1.207-.052.213v.21l.052.183.1.14.14.09.164.025.178-.041.168-.102.156-.152.12-.19.077-.21.023-.216-.023-.196-.077-.164-.122-.117-.153-.057-.172.008" style="fill:none;stroke:#00ff4a;stroke-width:.666665;stroke-linecap:round;stroke-linejoin:round;stroke-miterlimit:10;stroke-dasharray:none;stroke-opacity:1;visibility:visible" visibility="hidden"/><path d="m262.7 882.473.367-.186M263.066 882.287l.648-.333M263.714 881.954a.45.45 0 0 0 .228-.268M262.017 882.525a.856.856 0 0 0 .683-.052M263.343 878.314a.97.97 0 0 0 .031.195M263.533 878.105a.244.244 0 0 0-.084.02.205.205 0 0 0-.106.189M284.595 876.553l-.093 1.142M284.347 878.011a.47.47 0 0 0 .154-.314M280.529 878.093a4.576 4.576 0 0 0 1.518.417 4.559 4.559 0 0 0 1.559-.108M283.606 878.402c.27-.07.528-.203.743-.39M284.595 876.553a.952.952 0 0 0-.197-.667M284.397 875.886a2.01 2.01 0 0 0-.71-.566M283.687 875.32a4.121 4.121 0 0 0-2.741-.272M279.854 876.077l-.092 1.145M279.762 877.222a.499.499 0 0 0 .1.341M279.862 877.563a1.813 1.813 0 0 0 .667.528M280.946 875.047a1.896 1.896 0 0 0-.792.415M280.155 875.462a.939.939 0 0 0-.301.615" style="fill:none;stroke:#00ff4a;stroke-width:.999997;stroke-linecap:round;stroke-linejoin:round;stroke-miterlimit:2;stroke-dasharray:none;stroke-opacity:1;visibility:visible" visibility="hidden"/><path d="m370.767 783.748-1.233.385" style="fill:none;stroke:#00ff4a;stroke-width:.666665;stroke-linecap:round;stroke-linejoin:round;stroke-miterlimit:4;stroke-dasharray:none;stroke-opacity:1;visibility:visible" visibility="hidden"/><path d="m367.335 788.982-18.543 6.164" style="fill:none;stroke:#00ff4a;stroke-width:.666665;stroke-linecap:round;stroke-linejoin:round;stroke-miterlimit:4;stroke-dasharray:2.37599,2.37599;stroke-dashoffset:0;stroke-opacity:1;visibility:visible" visibility="hidden"/><path d="M339.275 800.934a.89.89 0 0 0 .685.03" style="fill:none;stroke:#00ff4a;stroke-width:.666665;stroke-linecap:round;stroke-linejoin:round;stroke-miterlimit:4;stroke-dasharray:.719998;stroke-dashoffset:0;stroke-opacity:1;visibility:visible" visibility="hidden"/><path d="M338.542 800.353c.194.25.448.45.733.581" style="fill:none;stroke:#00ff4a;stroke-width:.666665;stroke-linecap:round;stroke-linejoin:round;stroke-miterlimit:4;stroke-dasharray:.969331;stroke-dashoffset:0;stroke-opacity:1;visibility:visible" visibility="hidden"/><path d="M341.29 800.331c.124-.265.184-.56.18-.857" style="fill:none;stroke:#00ff4a;stroke-width:.666665;stroke-linecap:round;stroke-linejoin:round;stroke-miterlimit:4;stroke-dasharray:.909331;stroke-dashoffset:0;stroke-opacity:1;visibility:visible" visibility="hidden"/><path d="M341.03 800.571a.443.443 0 0 0 .26-.24" style="fill:none;stroke:#00ff4a;stroke-width:.666665;stroke-linecap:round;stroke-linejoin:round;stroke-miterlimit:4;stroke-dasharray:.371999;stroke-dashoffset:0;stroke-opacity:1;visibility:visible" visibility="hidden"/><path d="m339.96 800.965 1.07-.395" style="fill:none;stroke:#00ff4a;stroke-width:.666665;stroke-linecap:round;stroke-linejoin:round;stroke-miterlimit:4;stroke-dasharray:1.17466;stroke-dashoffset:0;stroke-opacity:1;visibility:visible" visibility="hidden"/><path d="M337.887 799.243c.165.4.387.774.655 1.11M337.548 797.634c.012.432.086.86.216 1.273" style="fill:none;stroke:#00ff4a;stroke-width:.666665;stroke-linecap:round;stroke-linejoin:round;stroke-miterlimit:4;stroke-dasharray:none;stroke-opacity:1;visibility:visible" visibility="hidden"/><path d="M337.736 796.72a2.063 2.063 0 0 0-.188.916" style="fill:none;stroke:#00ff4a;stroke-width:.666665;stroke-linecap:round;stroke-linejoin:round;stroke-miterlimit:4;stroke-dasharray:.966664;stroke-dashoffset:0;stroke-opacity:1;visibility:visible" visibility="hidden"/><path d="M338.243 796.26a.881.881 0 0 0-.507.46" style="fill:none;stroke:#00ff4a;stroke-width:.666665;stroke-linecap:round;stroke-linejoin:round;stroke-miterlimit:4;stroke-dasharray:.722665;stroke-dashoffset:0;stroke-opacity:1;visibility:visible" visibility="hidden"/><path d="M340.351 796.423a1.975 1.975 0 0 0-.688-.54" style="fill:none;stroke:#00ff4a;stroke-width:.666665;stroke-linecap:round;stroke-linejoin:round;stroke-miterlimit:4;stroke-dasharray:.909331;stroke-dashoffset:0;stroke-opacity:1;visibility:visible" visibility="hidden"/><path d="M341.022 797.527a5.285 5.285 0 0 0-.67-1.104M341.47 799.475a5.395 5.395 0 0 0-.202-1.275" style="fill:none;stroke:#00ff4a;stroke-width:.666665;stroke-linecap:round;stroke-linejoin:round;stroke-miterlimit:4;stroke-dasharray:none;stroke-opacity:1;visibility:visible" visibility="hidden"/><path d="M339.663 795.88a.46.46 0 0 0-.352-.012" style="fill:none;stroke:#00ff4a;stroke-width:.666665;stroke-linecap:round;stroke-linejoin:round;stroke-miterlimit:4;stroke-dasharray:.367999;stroke-dashoffset:0;stroke-opacity:1;visibility:visible" visibility="hidden"/><path d="m338.243 796.26 1.07-.392" style="fill:none;stroke:#00ff4a;stroke-width:.666665;stroke-linecap:round;stroke-linejoin:round;stroke-miterlimit:4;stroke-dasharray:1.17333;stroke-dashoffset:0;stroke-opacity:1;visibility:visible" visibility="hidden"/><path d="M342.016 798.306c.016.019.038.027.056.044" style="fill:none;stroke:#00ff4a;stroke-width:.666665;stroke-linecap:round;stroke-linejoin:round;stroke-miterlimit:4;stroke-dasharray:.0719998;stroke-dashoffset:0;stroke-opacity:1;visibility:visible" visibility="hidden"/><path d="M342.072 798.35a.837.837 0 0 0 .362.112" style="fill:none;stroke:#00ff4a;stroke-width:.666665;stroke-linecap:round;stroke-linejoin:round;stroke-miterlimit:4;stroke-dasharray:.390666;stroke-dashoffset:0;stroke-opacity:1;visibility:visible" visibility="hidden"/><path d="M342.432 798.462a.192.192 0 0 0 .21-.18" style="fill:none;stroke:#00ff4a;stroke-width:.666665;stroke-linecap:round;stroke-linejoin:round;stroke-miterlimit:4;stroke-dasharray:.314666;stroke-dashoffset:0;stroke-opacity:1;visibility:visible" visibility="hidden"/><path d="M342.642 798.282a.76.76 0 0 0-.046-.347l-.009-.025" style="fill:none;stroke:#00ff4a;stroke-width:.666665;stroke-linecap:round;stroke-linejoin:round;stroke-miterlimit:4;stroke-dasharray:.389332;stroke-dashoffset:0;stroke-opacity:1;visibility:visible" visibility="hidden"/><path d="M341.32 796.73a.19.19 0 0 0-.087.01.197.197 0 0 0-.126.17" style="fill:none;stroke:#00ff4a;stroke-width:.666665;stroke-linecap:round;stroke-linejoin:round;stroke-miterlimit:4;stroke-dasharray:.315999;stroke-dashoffset:0;stroke-opacity:1;visibility:visible" visibility="hidden"/><path d="M341.107 796.91a1.093 1.093 0 0 0 .007.2" style="fill:none;stroke:#00ff4a;stroke-width:.666665;stroke-linecap:round;stroke-linejoin:round;stroke-miterlimit:4;stroke-dasharray:.205333;stroke-dashoffset:0;stroke-opacity:1;visibility:visible" visibility="hidden"/><path d="M341.68 796.842a.848.848 0 0 0-.363-.112" style="fill:none;stroke:#00ff4a;stroke-width:.666665;stroke-linecap:round;stroke-linejoin:round;stroke-miterlimit:4;stroke-dasharray:.390666;stroke-dashoffset:0;stroke-opacity:1;visibility:visible" visibility="hidden"/><path d="M342.587 797.91a2.25 2.25 0 0 0-.907-1.068" style="fill:none;stroke:#00ff4a;stroke-width:.666665;stroke-linecap:round;stroke-linejoin:round;stroke-miterlimit:4;stroke-dasharray:1.46;stroke-dashoffset:0;stroke-opacity:1;visibility:visible" visibility="hidden"/><path d="M343.631 797.717c.023.013.041.028.064.038" style="fill:none;stroke:#00ff4a;stroke-width:.666665;stroke-linecap:round;stroke-linejoin:round;stroke-miterlimit:4;stroke-dasharray:.0759998;stroke-dashoffset:0;stroke-opacity:1;visibility:visible" visibility="hidden"/><path d="M343.695 797.757a.83.83 0 0 0 .359.113" style="fill:none;stroke:#00ff4a;stroke-width:.666665;stroke-linecap:round;stroke-linejoin:round;stroke-miterlimit:4;stroke-dasharray:.391999;stroke-dashoffset:0;stroke-opacity:1;visibility:visible" visibility="hidden"/><path d="M344.052 797.87a.227.227 0 0 0 .084-.008.217.217 0 0 0 .132-.175" style="fill:none;stroke:#00ff4a;stroke-width:.666665;stroke-linecap:round;stroke-linejoin:round;stroke-miterlimit:4;stroke-dasharray:.318666;stroke-dashoffset:0;stroke-opacity:1;visibility:visible" visibility="hidden"/><path d="M344.268 797.689a.937.937 0 0 0-.06-.372" style="fill:none;stroke:#00ff4a;stroke-width:.666665;stroke-linecap:round;stroke-linejoin:round;stroke-miterlimit:4;stroke-dasharray:.389332;stroke-dashoffset:0;stroke-opacity:1;visibility:visible" visibility="hidden"/><path d="M342.942 796.134a.29.29 0 0 0-.084.01.204.204 0 0 0-.13.176" style="fill:none;stroke:#00ff4a;stroke-width:.666665;stroke-linecap:round;stroke-linejoin:round;stroke-miterlimit:4;stroke-dasharray:.319999;stroke-dashoffset:0;stroke-opacity:1;visibility:visible" visibility="hidden"/><path d="M342.727 796.32a.693.693 0 0 0 .01.196" style="fill:none;stroke:#00ff4a;stroke-width:.666665;stroke-linecap:round;stroke-linejoin:round;stroke-miterlimit:4;stroke-dasharray:.202666;stroke-dashoffset:0;stroke-opacity:1;visibility:visible" visibility="hidden"/><path d="M343.298 796.254a.91.91 0 0 0-.356-.12" style="fill:none;stroke:#00ff4a;stroke-width:.666665;stroke-linecap:round;stroke-linejoin:round;stroke-miterlimit:4;stroke-dasharray:.385332;stroke-dashoffset:0;stroke-opacity:1;visibility:visible" visibility="hidden"/><path d="M344.207 797.315a2.193 2.193 0 0 0-.91-1.062" style="fill:none;stroke:#00ff4a;stroke-width:.666665;stroke-linecap:round;stroke-linejoin:round;stroke-miterlimit:4;stroke-dasharray:1.46133;stroke-dashoffset:0;stroke-opacity:1;visibility:visible" visibility="hidden"/><path d="M344.922 795.662a.867.867 0 0 0-.362-.12" style="fill:none;stroke:#00ff4a;stroke-width:.666665;stroke-linecap:round;stroke-linejoin:round;stroke-miterlimit:4;stroke-dasharray:.390666;stroke-dashoffset:0;stroke-opacity:1;visibility:visible" visibility="hidden"/><path d="M345.827 796.725a2.207 2.207 0 0 0-.905-1.063" style="fill:none;stroke:#00ff4a;stroke-width:.666665;stroke-linecap:round;stroke-linejoin:round;stroke-miterlimit:4;stroke-dasharray:1.45733;stroke-dashoffset:0;stroke-opacity:1;visibility:visible" visibility="hidden"/><path d="M345.887 797.098a.823.823 0 0 0-.047-.344l-.013-.028" style="fill:none;stroke:#00ff4a;stroke-width:.666665;stroke-linecap:round;stroke-linejoin:round;stroke-miterlimit:4;stroke-dasharray:.391999;stroke-dashoffset:0;stroke-opacity:1;visibility:visible" visibility="hidden"/><path d="M345.675 797.277a.165.165 0 0 0 .081-.007.202.202 0 0 0 .131-.173" style="fill:none;stroke:#00ff4a;stroke-width:.666665;stroke-linecap:round;stroke-linejoin:round;stroke-miterlimit:4;stroke-dasharray:.317333;stroke-dashoffset:0;stroke-opacity:1;visibility:visible" visibility="hidden"/><path d="M345.314 797.162a.76.76 0 0 0 .361.115" style="fill:none;stroke:#00ff4a;stroke-width:.666665;stroke-linecap:round;stroke-linejoin:round;stroke-miterlimit:4;stroke-dasharray:.391999;stroke-dashoffset:0;stroke-opacity:1;visibility:visible" visibility="hidden"/><path d="M345.254 797.126c.021.014.036.027.06.036" style="fill:none;stroke:#00ff4a;stroke-width:.666665;stroke-linecap:round;stroke-linejoin:round;stroke-miterlimit:4;stroke-dasharray:.0746665;stroke-dashoffset:0;stroke-opacity:1;visibility:visible" visibility="hidden"/><path d="M344.348 795.727a.676.676 0 0 0 .01.195" style="fill:none;stroke:#00ff4a;stroke-width:.666665;stroke-linecap:round;stroke-linejoin:round;stroke-miterlimit:4;stroke-dasharray:.202666;stroke-dashoffset:0;stroke-opacity:1;visibility:visible" visibility="hidden"/><path d="M344.562 795.542c-.028 0-.056 0-.086.013a.197.197 0 0 0-.128.172" style="fill:none;stroke:#00ff4a;stroke-width:.666665;stroke-linecap:round;stroke-linejoin:round;stroke-miterlimit:4;stroke-dasharray:.319999;stroke-dashoffset:0;stroke-opacity:1;visibility:visible" visibility="hidden"/><path d="M346.644 795.427a.473.473 0 0 0-.19-.062" style="fill:none;stroke:#00ff4a;stroke-width:.666665;stroke-linecap:round;stroke-linejoin:round;stroke-miterlimit:4;stroke-dasharray:.205333;stroke-dashoffset:0;stroke-opacity:1;visibility:visible" visibility="hidden"/><path d="M347.112 795.978a1.135 1.135 0 0 0-.468-.55" style="fill:none;stroke:#00ff4a;stroke-width:.666665;stroke-linecap:round;stroke-linejoin:round;stroke-miterlimit:4;stroke-dasharray:.754665;stroke-dashoffset:0;stroke-opacity:1;visibility:visible" visibility="hidden"/><path d="M347.14 796.174a.336.336 0 0 0-.025-.18l-.003-.014" style="fill:none;stroke:#00ff4a;stroke-width:.666665;stroke-linecap:round;stroke-linejoin:round;stroke-miterlimit:4;stroke-dasharray:.202666;stroke-dashoffset:0;stroke-opacity:1;visibility:visible" visibility="hidden"/><path d="M347.028 796.265a.09.09 0 0 0 .047-.006.095.095 0 0 0 .065-.085" style="fill:none;stroke:#00ff4a;stroke-width:.666665;stroke-linecap:round;stroke-linejoin:round;stroke-miterlimit:4;stroke-dasharray:.165333;stroke-dashoffset:0;stroke-opacity:1;visibility:visible" visibility="hidden"/><path d="M346.874 796.22a.353.353 0 0 0 .154.042" style="fill:none;stroke:#00ff4a;stroke-width:.666665;stroke-linecap:round;stroke-linejoin:round;stroke-miterlimit:4;stroke-dasharray:.166666;stroke-dashoffset:0;stroke-opacity:1;visibility:visible" visibility="hidden"/><path d="m346.344 795.465.002.05" style="fill:none;stroke:#00ff4a;stroke-width:.666665;stroke-linecap:round;stroke-linejoin:round;stroke-miterlimit:4;stroke-dasharray:.0506665;stroke-dashoffset:0;stroke-opacity:1;visibility:visible" visibility="hidden"/><path d="M346.455 795.366c-.012.004-.028 0-.041.005a.119.119 0 0 0-.07.094" style="fill:none;stroke:#00ff4a;stroke-width:.666665;stroke-linecap:round;stroke-linejoin:round;stroke-miterlimit:4;stroke-dasharray:.165333;stroke-dashoffset:0;stroke-opacity:1;visibility:visible" visibility="hidden"/><path d="m347.111 795.978.436-.453" style="fill:none;stroke:#00ff4a;stroke-width:.666665;stroke-linecap:round;stroke-linejoin:round;stroke-miterlimit:4;stroke-dasharray:.649332;stroke-dashoffset:0;stroke-opacity:1;visibility:visible" visibility="hidden"/><path d="m346.767 795.517.78.008" style="fill:none;stroke:#00ff4a;stroke-width:.666665;stroke-linecap:round;stroke-linejoin:round;stroke-miterlimit:4;stroke-dasharray:.803998;stroke-dashoffset:0;stroke-opacity:1;visibility:visible" visibility="hidden"/><path d="m282.689 868.147.536-4.527M283.223 863.618l.051-.341.061-.331.078-.317.09-.309.107-.293.117-.276.13-.261.142-.241.151-.222.163-.201.176-.18.178-.153.187-.135.199-.11.197-.082M290.85 861.866l.21.12.203.137.197.167.194.19.184.21.179.228.168.248.158.268.15.284.137.299.124.31.113.323.1.336.088.344.07.35.059.354.039.359.028.356.012.361-.001.36-.019.352-.033.344M292.169 877.054l1.04-8.888M285.182 860.194l.58-.235" style="fill:none;stroke:#00ff4a;stroke-width:.999997;stroke-linecap:round;stroke-linejoin:round;stroke-miterlimit:500;stroke-dasharray:none;stroke-opacity:1;visibility:visible" visibility="hidden"/><path d="m290.826 875.59.868-7.341M289.906 863.473c1.41 1.046 2.073 2.812 1.788 4.776M287.07 862.025l2.837 1.448" style="fill:none;stroke:#00ff4a;stroke-width:.666665;stroke-linecap:round;stroke-linejoin:round;stroke-miterlimit:500;stroke-dasharray:none;stroke-opacity:1;visibility:visible" visibility="hidden"/><path d="m285.607 871.187.091.206.101.196.112.174.12.159.127.137.132.121.139.095.144.076.142.044.146.025h.144l.142-.027.136-.05.134-.073.128-.101.118-.119.11-.139.096-.161.088-.18.077-.192.063-.21.048-.219.034-.232M288.59 867.249l-.412 3.471M288.589 867.249l.02-.239.007-.243-.011-.245-.019-.243-.041-.244-.05-.234-.065-.231-.08-.217-.09-.206-.1-.196-.11-.176-.12-.157-.127-.14-.133-.117-.141-.096-.142-.075-.141-.045-.148-.022-.144-.002-.141.029-.14.047-.133.076-.125.096-.118.121-.111.14-.096.16-.088.18-.075.193-.065.208-.048.219-.035.232M285.78 865.82l-.108.9" style="fill:none;stroke:#00ff4a;stroke-width:.999997;stroke-linecap:round;stroke-linejoin:round;stroke-miterlimit:500;stroke-dasharray:none;stroke-opacity:1;visibility:visible" visibility="hidden"/><path d="m282.867 873.24 6.023 3.067" style="fill:none;stroke:#00ff4a;stroke-width:.666665;stroke-linecap:round;stroke-linejoin:round;stroke-miterlimit:500;stroke-dasharray:none;stroke-opacity:1;visibility:visible" visibility="hidden"/><path d="M286.126 881.06a10.459 10.459 0 0 1-7.553-.206M292.169 877.054a3.339 3.339 0 0 1-1.996 2.503M290.173 879.555l-4.047 1.506M274.173 877.934l-.03-.615M281.875 872.703a2.925 2.925 0 0 1-1.282 1.088M285.762 859.96c.559-.196 1.121-.16 1.543.094M287.305 860.055l3.545 1.81" style="fill:none;stroke:#00ff4a;stroke-width:.999997;stroke-linecap:round;stroke-linejoin:round;stroke-miterlimit:500;stroke-dasharray:none;stroke-opacity:1;visibility:visible" visibility="hidden"/><path d="m279.711 879.486-.748-.41M284.25 879.967a8.005 8.005 0 0 1-4.539-.481M288.44 878.514l-4.192 1.453" style="fill:none;stroke:#00ff4a;stroke-width:.666665;stroke-linecap:round;stroke-linejoin:round;stroke-miterlimit:500;stroke-dasharray:none;stroke-opacity:1;visibility:visible" visibility="hidden"/><path d="m274.155 877.167.006-.073.042-.17.074-.162.097-.163.125-.158.151-.159.172-.156.199-.147.222-.145.243-.134.267-.131.284-.12.301-.119M280.634 873.76l-4.297 1.572" style="fill:none;stroke:#00ff4a;stroke-width:.999997;stroke-linecap:round;stroke-linejoin:round;stroke-miterlimit:500;stroke-dasharray:none;stroke-opacity:1;visibility:visible" visibility="hidden"/><path d="m285.18 876.76.126.08.112.084.088.087.061.1.044.094.019.095-.007.102-.029.103-.053.095-.075.097-.096.096-.115.092-.141.088-.156.077-.176.073-.185.068-.202.06M285.037 876.694l.142.065M279.19 877.004l-.127-.077-.109-.085-.087-.09-.066-.094-.042-.097-.017-.101.003-.096.029-.101.053-.101.075-.099.096-.093.121-.092.135-.085.157-.08.174-.073.19-.069M279.189 877.003l.194.09" style="fill:none;stroke:#00ff4a;stroke-width:.666665;stroke-linecap:round;stroke-linejoin:round;stroke-miterlimit:500;stroke-dasharray:none;stroke-opacity:1;visibility:visible" visibility="hidden"/><path d="m278.573 880.853-3.343-1.631" style="fill:none;stroke:#00ff4a;stroke-width:.999997;stroke-linecap:round;stroke-linejoin:round;stroke-miterlimit:500;stroke-dasharray:none;stroke-opacity:1;visibility:visible" visibility="hidden"/><path d="M290.477 876.91a2.261 2.261 0 0 1-1.214 1.205" style="fill:none;stroke:#00ff4a;stroke-width:.666665;stroke-linecap:round;stroke-linejoin:round;stroke-miterlimit:500;stroke-dasharray:none;stroke-opacity:1;visibility:visible" visibility="hidden"/><path d="M299.607 761.268c-.525.234-1.073.245-1.502.03M298.106 761.298l-3.584-1.464M294.893 755.564l.042.236.056.233.07.224.079.216.097.205.102.192.115.183.121.159.13.146.134.124.139.103.145.08.142.06.142.035.143.009.14-.012.135-.037.132-.06.12-.083.115-.104.105-.125.096-.146.08-.162.07-.182.057-.193.046-.208.028-.217.015-.223M297.689 756.017l.041-1.287M301.8 756.476l-.036 1.04M301.765 757.517l-.023.333-.03.323-.051.317-.059.303-.08.295-.092.276-.103.262-.117.248-.13.224-.142.21-.156.189-.16.163-.168.149-.184.12-.188.096M294.522 759.834l-.212-.098-.208-.118-.205-.148-.203-.164-.196-.188-.19-.208-.186-.226-.175-.246-.166-.262-.161-.28-.141-.29-.139-.306-.123-.315M291.782 752.124l-.028.866M300.149 760.993l-.542.273M275.231 879.222a1.675 1.675 0 0 1-1.057-1.29" style="fill:none;stroke:#00ff4a;stroke-width:.999997;stroke-linecap:round;stroke-linejoin:round;stroke-miterlimit:500;stroke-dasharray:none;stroke-opacity:1;visibility:visible" visibility="hidden"/><path d="m300.253 755.845-.103 2.39s-.159.848-.485 1.234c-.375.439-.916.423-.916.423l-1.736-.623" style="fill:none;stroke:#00ff4a;stroke-width:.666665;stroke-linecap:round;stroke-linejoin:round;stroke-miterlimit:500;stroke-dasharray:none;stroke-opacity:1;visibility:visible" visibility="hidden"/><path d="m351.412 912.482-.092 1.145M351.32 913.627a.499.499 0 0 0 .1.343M351.42 913.97a1.813 1.813 0 0 0 .667.528M352.506 911.457a1.837 1.837 0 0 0-.792.413M351.714 911.87a.927.927 0 0 0-.302.612M356.154 912.96l-.094 1.141M355.906 914.418a.467.467 0 0 0 .153-.315M352.087 914.498a4.61 4.61 0 0 0 1.519.419 4.592 4.592 0 0 0 1.558-.11M355.163 914.809a1.8 1.8 0 0 0 .743-.391M356.154 912.96a.945.945 0 0 0-.198-.666M355.955 912.294a2.017 2.017 0 0 0-.71-.568" style="fill:none;stroke:#00ff4a;stroke-width:.999997;stroke-linecap:round;stroke-linejoin:round;stroke-miterlimit:2;stroke-dasharray:none;stroke-opacity:1;visibility:visible" visibility="hidden"/><path d="M355.246 911.727a4.188 4.188 0 0 0-1.35-.372 3.92 3.92 0 0 0-1.392.102" style="fill:none;stroke:#00ff4a;stroke-width:.999997;stroke-linecap:round;stroke-linejoin:round;stroke-miterlimit:2;stroke-dasharray:none;stroke-opacity:1;visibility:visible" visibility="hidden"/><path d="m354.382 903.413.401-3.388M354.782 900.025l.05-.342.062-.328.076-.32.091-.308.107-.29.118-.277.13-.261.141-.241.151-.221.162-.204.177-.178.179-.155.186-.135.2-.11.198-.081M362.408 898.271l.212.12.2.14.2.167.191.188.185.208.18.232.166.248.16.265.15.284.138.299.122.31.114.327.1.331.088.348.07.348.058.352.04.36.028.359.012.36-.002.358-.018.352-.034.344M363.727 913.462l1.041-8.89M356.74 896.6l.58-.23" style="fill:none;stroke:#00ff4a;stroke-width:.999997;stroke-linecap:round;stroke-linejoin:round;stroke-miterlimit:500;stroke-dasharray:none;stroke-opacity:1;visibility:visible" visibility="hidden"/><path d="m362.386 911.995.868-7.338M361.466 899.878c1.41 1.05 2.073 2.815 1.788 4.779M358.628 898.431l2.838 1.449" style="fill:none;stroke:#00ff4a;stroke-width:.666665;stroke-linecap:round;stroke-linejoin:round;stroke-miterlimit:500;stroke-dasharray:none;stroke-opacity:1;visibility:visible" visibility="hidden"/><path d="m357.022 907.147.064.23.078.218.092.208.1.197.112.174.12.156.127.14.133.12.14.093.142.077.142.043.148.027.143-.003.141-.026.136-.047.135-.076.127-.099.118-.119.11-.14.097-.162.088-.178.076-.193.063-.21.05-.222.031-.225M360.146 903.654l-.41 3.473M360.146 903.654l.021-.237.005-.242-.009-.245-.021-.243-.039-.244-.052-.237-.064-.227-.08-.218-.09-.208-.099-.196-.112-.175-.119-.156-.127-.143-.134-.117-.14-.093-.142-.074-.14-.049-.15-.02h-.143l-.141.025-.14.05-.132.073-.126.099-.118.12-.11.14-.098.158-.086.183-.076.192-.064.21-.049.214-.035.233M357.338 902.227l-.05.435" style="fill:none;stroke:#00ff4a;stroke-width:.999997;stroke-linecap:round;stroke-linejoin:round;stroke-miterlimit:500;stroke-dasharray:none;stroke-opacity:1;visibility:visible" visibility="hidden"/><path d="m354.426 909.649 6.021 3.065" style="fill:none;stroke:#00ff4a;stroke-width:.666665;stroke-linecap:round;stroke-linejoin:round;stroke-miterlimit:500;stroke-dasharray:none;stroke-opacity:1;visibility:visible" visibility="hidden"/><path d="M357.684 917.47a10.459 10.459 0 0 1-7.553-.21M363.727 913.462a3.339 3.339 0 0 1-1.996 2.503M361.731 915.965l-4.047 1.505M345.732 914.342l-.029-.617M353.842 907.974a2.821 2.821 0 0 1-.27.89M353.572 908.866c-.284.57-.766 1.036-1.42 1.336M357.32 896.369c.557-.199 1.12-.162 1.541.096M358.863 896.465l3.545 1.805" style="fill:none;stroke:#00ff4a;stroke-width:.999997;stroke-linecap:round;stroke-linejoin:round;stroke-miterlimit:500;stroke-dasharray:none;stroke-opacity:1;visibility:visible" visibility="hidden"/><path d="m351.27 915.894-.748-.41M355.807 916.374a7.981 7.981 0 0 1-4.539-.479M360 914.92l-4.193 1.455" style="fill:none;stroke:#00ff4a;stroke-width:.666665;stroke-linecap:round;stroke-linejoin:round;stroke-miterlimit:500;stroke-dasharray:none;stroke-opacity:1;visibility:visible" visibility="hidden"/><path d="m345.714 913.574.005-.074.043-.166.073-.167.097-.161.126-.159.15-.157.172-.155.2-.15.221-.141.243-.137.267-.132.284-.117.301-.118M352.192 910.17l-4.297 1.57" style="fill:none;stroke:#00ff4a;stroke-width:.999997;stroke-linecap:round;stroke-linejoin:round;stroke-miterlimit:500;stroke-dasharray:none;stroke-opacity:1;visibility:visible" visibility="hidden"/><path d="m356.738 913.167.128.079.11.083.088.089.062.099.044.093.018.099-.006.098-.03.106-.052.096-.076.096-.096.093-.114.095-.142.085-.156.079-.176.073-.185.067-.201.06M356.595 913.1l.143.066M350.747 913.413l-.125-.08-.11-.083-.086-.09-.067-.091-.041-.1-.018-.097.003-.102.03-.1.052-.1.075-.097.096-.094.122-.092.134-.085.158-.082.173-.074.19-.066M350.747 913.413l.195.087" style="fill:none;stroke:#00ff4a;stroke-width:.666665;stroke-linecap:round;stroke-linejoin:round;stroke-miterlimit:500;stroke-dasharray:none;stroke-opacity:1;visibility:visible" visibility="hidden"/><path d="m350.132 917.26-3.34-1.63" style="fill:none;stroke:#00ff4a;stroke-width:.999997;stroke-linecap:round;stroke-linejoin:round;stroke-miterlimit:500;stroke-dasharray:none;stroke-opacity:1;visibility:visible" visibility="hidden"/><path d="M362.035 913.315a2.267 2.267 0 0 1-1.213 1.208" style="fill:none;stroke:#00ff4a;stroke-width:.666665;stroke-linecap:round;stroke-linejoin:round;stroke-miterlimit:500;stroke-dasharray:none;stroke-opacity:1;visibility:visible" visibility="hidden"/><path d="M346.79 915.631a1.675 1.675 0 0 1-1.058-1.29" style="fill:none;stroke:#00ff4a;stroke-width:.999997;stroke-linecap:round;stroke-linejoin:round;stroke-miterlimit:500;stroke-dasharray:none;stroke-opacity:1;visibility:visible" visibility="hidden"/><path d="m239.982 988.667 14.428-1.156M250.949 972.186l3.861 9.872M396.075 770.506l2.88 18.56M262.175 738.525l-5.081 6.115" style="fill:none;stroke:#00ff4a;stroke-width:1.99999;stroke-linecap:round;stroke-linejoin:round;stroke-miterlimit:10;stroke-dasharray:none;stroke-opacity:1;visibility:visible" visibility="hidden"/><path d="m277.72 758.005-.268 3.48M277.452 761.485l.268-3.48M291.754 752.99l-13.089-7.322M401.231 773.085l7.2-5.365M400.764 772.246l7.336-5.077M279.854 876.077l-9.859-8.432" style="fill:none;stroke:#00ff4a;stroke-width:.999997;stroke-linecap:round;stroke-linejoin:round;stroke-miterlimit:10;stroke-dasharray:none;stroke-opacity:1;visibility:visible" visibility="hidden"/><path d="m278.573 880.853-16.71 4.757M350.131 917.26l-.084 14.415" style="fill:none;stroke:#00ff4a;stroke-width:1.99999;stroke-linecap:round;stroke-linejoin:round;stroke-miterlimit:10;stroke-dasharray:none;stroke-opacity:1;visibility:visible" visibility="hidden"/><path d="m254.81 982.058-3.861-9.872M279.189 877.003l-4.42-6.943M389 904.597l-.685 10.172M420.215 907.521l-16.02 4.181" style="fill:none;stroke:#00ff4a;stroke-width:.999997;stroke-linecap:round;stroke-linejoin:round;stroke-miterlimit:10;stroke-dasharray:none;stroke-opacity:1;visibility:visible" visibility="hidden"/><path d="m389 904.597-3.125 9.534" style="fill:none;stroke:#00ff4a;stroke-width:1.99999;stroke-linecap:round;stroke-linejoin:round;stroke-miterlimit:10;stroke-dasharray:none;stroke-opacity:1;visibility:visible" visibility="hidden"/><path d="m262.175 738.525-.08 4.523M268.72 867.187l-5.26-3.434M263.714 881.954l-.704-12.043M217.407 826.667l4.29-6.434M223.877 812.311l-2.181 7.922M278.573 880.853l-12.671.967M338.611 919.494l-12.344-6.396M350.132 917.26l-11.521 2.234M363.186 925.227l-7.165 3.288" style="fill:none;stroke:#00ff4a;stroke-width:.999997;stroke-linecap:round;stroke-linejoin:round;stroke-miterlimit:10;stroke-dasharray:none;stroke-opacity:1;visibility:visible" visibility="hidden"/><path d="m263.01 869.911-15.157-3.541M139.322 910.626l4.383 5.225M262.7 882.473l-16.83 3.054M262.778 732.436l13.085-9.838M262.778 732.436l4.559 9.602" style="fill:none;stroke:#00ff4a;stroke-width:1.99999;stroke-linecap:round;stroke-linejoin:round;stroke-miterlimit:10;stroke-dasharray:none;stroke-opacity:1;visibility:visible" visibility="hidden"/><path d="m263.01 869.911-16.272 1.658M101.853 769.537l3.247-6.145M106.706 756.05l-1.606 7.342M143.705 915.851l-4.383-5.225M361.731 915.965l9.955 14.609" style="fill:none;stroke:#00ff4a;stroke-width:.999997;stroke-linecap:round;stroke-linejoin:round;stroke-miterlimit:10;stroke-dasharray:none;stroke-opacity:1;visibility:visible" visibility="hidden"/><path d="m361.731 915.965 9.849 15.743" style="fill:none;stroke:#00ff4a;stroke-width:.666665;stroke-linecap:round;stroke-linejoin:round;stroke-miterlimit:10;stroke-dasharray:none;stroke-opacity:1;visibility:visible" visibility="hidden"/><path d="m369.534 784.133 15.728-2.263M401.09 773.176l-7.2 6.694" style="fill:none;stroke:#00ff4a;stroke-width:.999997;stroke-linecap:round;stroke-linejoin:round;stroke-miterlimit:10;stroke-dasharray:none;stroke-opacity:1;visibility:visible" visibility="hidden"/><path d="m401.09 773.176-7.251 7.884M369.534 784.133l15.665-1.165" style="fill:none;stroke:#00ff4a;stroke-width:.666665;stroke-linecap:round;stroke-linejoin:round;stroke-miterlimit:10;stroke-dasharray:none;stroke-opacity:1;visibility:visible" visibility="hidden"/><path d="m367.335 788.982 2.199-4.849" style="fill:none;stroke:#00ff4a;stroke-width:.666665;stroke-linecap:round;stroke-linejoin:round;stroke-miterlimit:4;stroke-dasharray:none;stroke-opacity:1;visibility:visible" visibility="hidden"/><path d="m369.534 784.133-2.199 4.849M346.455 795.366l2.337-.22" style="fill:none;stroke:#00ff4a;stroke-width:.666665;stroke-linecap:round;stroke-linejoin:round;stroke-miterlimit:4;stroke-dasharray:2.37599,2.37599;stroke-dashoffset:0;stroke-opacity:1;visibility:visible" visibility="hidden"/><path d="m285.78 865.82-3.091 2.327" style="fill:none;stroke:#00ff4a;stroke-width:.999997;stroke-linecap:round;stroke-linejoin:round;stroke-miterlimit:500;stroke-dasharray:none;stroke-opacity:1;visibility:visible" visibility="hidden"/><path d="m292.169 877.054-1.343-1.464M287.305 860.054l-.235 1.971M283.687 875.32l-.82-2.08M285.037 876.694l3.853-.387" style="fill:none;stroke:#00ff4a;stroke-width:.666665;stroke-linecap:round;stroke-linejoin:round;stroke-miterlimit:500;stroke-dasharray:none;stroke-opacity:1;visibility:visible" visibility="hidden"/><path d="m301.764 757.516-4.034-2.786M297.689 756.017l4.111.459M297.689 756.017l-5.907-3.893M297.73 754.73l-5.976-1.74" style="fill:none;stroke:#00ff4a;stroke-width:.999997;stroke-linecap:round;stroke-linejoin:round;stroke-miterlimit:500;stroke-dasharray:none;stroke-opacity:1;visibility:visible" visibility="hidden"/><path d="m301.764 757.516-1.511-1.671M298.106 761.298l-1.093-2.029" style="fill:none;stroke:#00ff4a;stroke-width:.666665;stroke-linecap:round;stroke-linejoin:round;stroke-miterlimit:500;stroke-dasharray:none;stroke-opacity:1;visibility:visible" visibility="hidden"/><path d="m357.338 902.227-2.956 1.186" style="fill:none;stroke:#00ff4a;stroke-width:.999997;stroke-linecap:round;stroke-linejoin:round;stroke-miterlimit:500;stroke-dasharray:none;stroke-opacity:1;visibility:visible" visibility="hidden"/><path d="m363.727 913.462-1.341-1.467M358.861 896.465l-.233 1.966M355.246 911.727l-.82-2.078M356.738 913.167l3.709-.453M353.572 908.864l8.463 4.451" style="fill:none;stroke:#00ff4a;stroke-width:.666665;stroke-linecap:round;stroke-linejoin:round;stroke-miterlimit:500;stroke-dasharray:none;stroke-opacity:1;visibility:visible" visibility="hidden"/><path d="m396.451 770.528-9.593 1.42M353.572 908.864l-7.936-2.933M288.89 876.307l4.16 3.004" style="fill:none;stroke:red;stroke-width:.999997;stroke-linecap:round;stroke-linejoin:round;stroke-miterlimit:10;stroke-dasharray:none;stroke-opacity:1;visibility:visible"/><path d="m389 904.597-3.532 13.323" style="fill:none;stroke:#00ff4a;stroke-width:1.99999;stroke-linecap:round;stroke-linejoin:round;stroke-miterlimit:10;stroke-dasharray:none;stroke-opacity:1;visibility:visible" visibility="hidden"/><path d="m283.687 875.32 1.92-4.133" style="fill:none;stroke:#00ff4a;stroke-width:.999997;stroke-linecap:round;stroke-linejoin:round;stroke-miterlimit:500;stroke-dasharray:none;stroke-opacity:1;visibility:visible" visibility="hidden"/></svg>