<svg xmlns="http://www.w3.org/2000/svg" baseProfile="full" height="1122.52" preserveAspectRatio="xMinYMin meet" style="width:914px;height:841px" width="793.701" xml:space="preserve"><path d="m58.24 823.022.452 13.021" style="fill:none;stroke:red;stroke-width:1.99999;stroke-linecap:round;stroke-linejoin:round;stroke-miterlimit:10;stroke-dasharray:none;stroke-opacity:1;visibility:visible" visibility="hidden"/><path d="M58.623 822.37a.653.653 0 0 0-.138.073.733.733 0 0 0-.224.351c-.017.081-.017.15-.021.227" style="fill:none;stroke:red;stroke-width:.999997;stroke-linecap:round;stroke-linejoin:round;stroke-miterlimit:10;stroke-dasharray:none;stroke-opacity:1;visibility:visible" visibility="hidden"/><path d="M361.662 683.124 58.622 822.358" style="fill:none;stroke:red;stroke-width:1.99999;stroke-linecap:round;stroke-linejoin:round;stroke-miterlimit:10;stroke-dasharray:none;stroke-opacity:1;visibility:visible" visibility="hidden"/><path d="M63.427 838.26a1.284 1.284 0 0 0 .229.032.41.41 0 0 0 .22-.045l.028-.02" style="fill:none;stroke:red;stroke-width:.999997;stroke-linecap:round;stroke-linejoin:round;stroke-miterlimit:10;stroke-dasharray:none;stroke-opacity:1;visibility:visible" visibility="hidden"/><path d="M366.706 696.376a1.812 1.812 0 0 0 .59-.456 2.84 2.84 0 0 0 .511-.9 3.269 3.269 0 0 0 .181-1.048c-.004-.03-.004-.063-.004-.094M362.484 683.045a1.385 1.385 0 0 0-.31-.044 1.033 1.033 0 0 0-.392.075l-.122.048M367.984 693.878l-.304-8.197M366.584 684.02l-4.084-.987M367.68 685.681a3.608 3.608 0 0 0-.025-.295 2.155 2.155 0 0 0-.133-.505 1.719 1.719 0 0 0-.22-.377 1.43 1.43 0 0 0-.288-.287.837.837 0 0 0-.344-.176c-.032-.008-.063-.008-.094-.01M58.699 836.042c0 .021-.004.039-.004.063a.776.776 0 0 0 .074.268 1.224 1.224 0 0 0 .181.262.461.461 0 0 0 .21.142.203.203 0 0 0 .06.02M59.221 836.806l4.207 1.456M63.905 838.235l127.09-59.538M197.04 775.866l82.806-38.794M285.63 734.364l75.486-35.367" style="fill:none;stroke:red;stroke-width:1.99999;stroke-linecap:round;stroke-linejoin:round;stroke-miterlimit:10;stroke-dasharray:none;stroke-opacity:1;visibility:visible" visibility="hidden"/><path d="m272.98 734.066-.295-.068-.229-.224-.136-.361-.029-.437.034-.238M184.224 775.38l-.328.114-.323-.061-.256-.233-.159-.37-.036-.453.028-.248M84.17 812.391l.337.069h.407l.416-.063.352-.123.238-.15.09-.174-.068-.152-.224-.123-.34-.065h-.408l-.409.065-.353.118-.243.15-.092.172.072.155.225.12M66.526 820.514l.342.066.412.005.416-.066.358-.122.246-.159.096-.17-.066-.158-.225-.125-.343-.066-.406-.002-.418.062-.36.123-.247.159-.095.166.068.163.222.124M189.128 773.777l.098-.577-.041-.543-.179-.443-.293-.294-.365-.107-.408.092M183.177 777.35l2.285-1.062M182.929 774.233l-.392.279-.33.434-.227.538-.102.572.043.546.176.443.299.292.37.103.41-.09M187.94 771.905l-5.01 2.328M277.955 731.928l-.028-.522-.153-.429-.259-.295-.337-.106-.361.078M272.437 735.765l1.869-.87M272.267 732.766l-.361.264-.305.403-.215.51-.099.554.031.517.156.432.263.287.33.112.37-.081M276.817 730.654l-4.55 2.112M358.768 694.337l-.017-.503-.136-.414-.23-.286-.301-.114-.334.066M353.714 697.9l2.002-.932M353.6 695.012l-.33.245-.28.385-.202.484-.093.524.017.507.136.415.232.281.302.12.333-.073M357.751 693.088l-4.153 1.924M58.873 822.35l4.219 1.435M63.092 823.785 365.999 684.09M63.677 824.671c.01-.445-.222-.767-.585-.887M63.677 824.67l.438 13.041" style="fill:none;stroke:red;stroke-width:.999997;stroke-linecap:round;stroke-linejoin:round;stroke-miterlimit:10;stroke-dasharray:none;stroke-opacity:1;visibility:visible" visibility="hidden"/><path d="m354.386 696.246-.286.094-.265-.07-.203-.224-.116-.352-.02-.42.03-.214" style="fill:none;stroke:red;stroke-width:.999997;stroke-linecap:round;stroke-linejoin:round;stroke-miterlimit:10;stroke-dasharray:none;stroke-opacity:1;visibility:visible" visibility="hidden"/><path d="m361.116 698.997 5.59-2.621M197.04 775.866l-6.045 2.831M190.995 778.697l6.045-2.831M285.63 734.364l-5.784 2.708M279.846 737.072l5.784-2.708M366.706 696.376l-5.59 2.621" style="fill:none;stroke:red;stroke-width:1.99999;stroke-linecap:round;stroke-linejoin:round;stroke-miterlimit:10;stroke-dasharray:none;stroke-opacity:1;visibility:visible" visibility="hidden"/><path d="m59.22 836.797 7.306-16.283M183.15 774.129l5.978-.352M182.93 774.233l2.532 2.055M272.267 732.766l2.039 2.129M367.984 693.878l-9.216.459M353.598 695.012l2.118 1.956M361.66 683.124l-7.274 13.122" style="fill:none;stroke:red;stroke-width:.999997;stroke-linecap:round;stroke-linejoin:round;stroke-miterlimit:10;stroke-dasharray:none;stroke-opacity:1;visibility:visible" visibility="hidden"/><path d="m439.382 781.424 1.584.429" style="fill:none;stroke:#00ff4a;stroke-width:.999997;stroke-linecap:round;stroke-linejoin:round;stroke-miterlimit:10;stroke-dasharray:none;stroke-opacity:1;visibility:visible" visibility="hidden"/><path d="m307.269 747.845 131.397 35.91" style="fill:none;stroke:#00ff4a;stroke-width:1.99999;stroke-linecap:round;stroke-linejoin:round;stroke-miterlimit:10;stroke-dasharray:none;stroke-opacity:1;visibility:visible" visibility="hidden"/><path d="m446.288 776.134-1.584-.421" style="fill:none;stroke:#00ff4a;stroke-width:.999997;stroke-linecap:round;stroke-linejoin:round;stroke-miterlimit:10;stroke-dasharray:none;stroke-opacity:1;visibility:visible" visibility="hidden"/><path d="m445.416 773.388-131.403-35.29" style="fill:none;stroke:#00ff4a;stroke-width:1.99999;stroke-linecap:round;stroke-linejoin:round;stroke-miterlimit:10;stroke-dasharray:none;stroke-opacity:1;visibility:visible" visibility="hidden"/><path d="m306.529 745.246.369.099M445.667 773.864l-.012-.131-.028-.113-.044-.098-.057-.072-.068-.048-.076-.022-.083.008-.09.03M307.16 741.294a.963.963 0 0 0-.428.872M438.726 776.902a1.076 1.076 0 0 0-.427.928" style="fill:none;stroke:#00ff4a;stroke-width:.999997;stroke-linecap:round;stroke-linejoin:round;stroke-miterlimit:10;stroke-dasharray:none;stroke-opacity:1;visibility:visible" visibility="hidden"/><path d="m444.054 780.916-5.18 2.804M445.667 773.864l.043 2.12" style="fill:none;stroke:#00ff4a;stroke-width:1.99999;stroke-linecap:round;stroke-linejoin:round;stroke-miterlimit:10;stroke-dasharray:none;stroke-opacity:1;visibility:visible" visibility="hidden"/><path d="m445.807 776.214.352-.096.317.112.238.294.128.456.013.546-.11.587M441.388 778.594l4.418-2.38M443.61 778.04l.239-.053.207.098.068.117M443.412 779.998l-.202-.093-.14-.237-.056-.342.036-.39.128-.383.2-.313.232-.2M441.452 781.777l-.356.096-.318-.11-.238-.294-.133-.455-.013-.552.112-.59.22-.545.309-.446.352-.287M439.382 781.424l-.187-.088-.237-.3-.134-.448-.013-.558.112-.588.221-.542.307-.446.352-.282M439.803 778.17l4.419-2.382M444.223 775.788l.35-.096.132.02M438.726 776.902l6.484-3.484M438.419 783.28l-.12-5.45M438.419 783.28l.01.13.028.114.046.096.056.07.068.047.081.023.08-.006.087-.033" style="fill:none;stroke:#00ff4a;stroke-width:.999997;stroke-linecap:round;stroke-linejoin:round;stroke-miterlimit:10;stroke-dasharray:none;stroke-opacity:1;visibility:visible" visibility="hidden"/><path d="m307.16 741.294 6.637-3.169M307 747.38l-.266-5.211" style="fill:none;stroke:#00ff4a;stroke-width:1.99999;stroke-linecap:round;stroke-linejoin:round;stroke-miterlimit:10;stroke-dasharray:none;stroke-opacity:1;visibility:visible" visibility="hidden"/><path d="m306.529 745.246-.195-.09-.257-.29-.152-.434-.026-.53.104-.557.212-.52.306-.415.217-.182M314.013 738.098a.323.323 0 0 0-.215.028M307 747.38a.453.453 0 0 0 .27.466M441.388 778.594l-1.584-.424M307.16 741.294l131.565 35.607" style="fill:none;stroke:#00ff4a;stroke-width:.999997;stroke-linecap:round;stroke-linejoin:round;stroke-miterlimit:10;stroke-dasharray:none;stroke-opacity:1;visibility:visible" visibility="hidden"/><path d="m441.388 778.594 2.666 2.322" style="fill:none;stroke:#00ff4a;stroke-width:1.99999;stroke-linecap:round;stroke-linejoin:round;stroke-miterlimit:10;stroke-dasharray:none;stroke-opacity:1;visibility:visible" visibility="hidden"/><path d="m518.175 738.85 1.553.386" style="fill:none;stroke:#9500ff;stroke-width:.999997;stroke-linecap:round;stroke-linejoin:round;stroke-miterlimit:10;stroke-dasharray:none;stroke-opacity:1;visibility:visible" visibility="hidden"/><path d="m388.176 708.876 129.304 32.182" style="fill:none;stroke:#9500ff;stroke-width:1.99999;stroke-linecap:round;stroke-linejoin:round;stroke-miterlimit:10;stroke-dasharray:none;stroke-opacity:1;visibility:visible" visibility="hidden"/><path d="m524.537 733.878-1.557-.38" style="fill:none;stroke:#9500ff;stroke-width:.999997;stroke-linecap:round;stroke-linejoin:round;stroke-miterlimit:10;stroke-dasharray:none;stroke-opacity:1;visibility:visible" visibility="hidden"/><path d="m523.679 731.288-129.293-31.623" style="fill:none;stroke:#9500ff;stroke-width:1.99999;stroke-linecap:round;stroke-linejoin:round;stroke-miterlimit:10;stroke-dasharray:none;stroke-opacity:1;visibility:visible" visibility="hidden"/><path d="m387.442 706.428.424.104M523.905 731.761l-.004-.125-.024-.112-.037-.091-.05-.076-.06-.047-.074-.022h-.073l-.079.03" style="fill:none;stroke:#9500ff;stroke-width:.999997;stroke-linecap:round;stroke-linejoin:round;stroke-miterlimit:10;stroke-dasharray:none;stroke-opacity:1;visibility:visible" visibility="hidden"/><path d="m522.644 738.332-4.988 2.702M523.905 731.761l.006 1.967" style="fill:none;stroke:#9500ff;stroke-width:1.99999;stroke-linecap:round;stroke-linejoin:round;stroke-miterlimit:10;stroke-dasharray:none;stroke-opacity:1;visibility:visible" visibility="hidden"/><path d="m522.356 737.282-.216.188-.21.047-.187-.101-.12-.232-.048-.328.045-.371.119-.367.181-.294.213-.187M520.136 739.17l-.317.08-.284-.116-.208-.292-.118-.437-.002-.537.112-.555.206-.52.28-.42.318-.263M388.154 702.582a.919.919 0 0 0-.392.823M518.175 738.85l-.195-.1-.21-.296-.115-.434-.003-.53.107-.564.209-.518.28-.418.324-.268M518.572 735.722l4.005-2.158M522.577 733.564l.318-.079.085.013M517.624 734.478l5.88-3.158M517.624 734.478a1.053 1.053 0 0 0-.399.878M517.248 740.594l-.023-5.24M517.248 740.594l.012.123.017.115.044.09.051.074.057.046.074.026.073-.01.081-.024M524.135 733.949l.32-.084.28.115.205.294.116.436v.529M520.124 736.11l4.01-2.16" style="fill:none;stroke:#9500ff;stroke-width:.999997;stroke-linecap:round;stroke-linejoin:round;stroke-miterlimit:10;stroke-dasharray:none;stroke-opacity:1;visibility:visible" visibility="hidden"/><path d="m522.132 735.637.22-.044.183.099.12.228" style="fill:none;stroke:#9500ff;stroke-width:.999997;stroke-linecap:round;stroke-linejoin:round;stroke-miterlimit:10;stroke-dasharray:none;stroke-opacity:1;visibility:visible" visibility="hidden"/><path d="m388.154 702.582 6.056-2.892M387.923 708.426l-.161-5.021" style="fill:none;stroke:#9500ff;stroke-width:1.99999;stroke-linecap:round;stroke-linejoin:round;stroke-miterlimit:10;stroke-dasharray:none;stroke-opacity:1;visibility:visible" visibility="hidden"/><path d="m387.442 706.428-.207-.099-.23-.287-.13-.424-.017-.513.102-.53.202-.488.28-.397.328-.246M394.386 699.665a.227.227 0 0 0-.176.025M387.923 708.426a.44.44 0 0 0 .252.451M520.124 736.11l-1.552-.388M388.154 702.582l129.47 31.896" style="fill:none;stroke:#9500ff;stroke-width:.999997;stroke-linecap:round;stroke-linejoin:round;stroke-miterlimit:10;stroke-dasharray:none;stroke-opacity:1;visibility:visible" visibility="hidden"/><path d="m520.124 736.11 2.52 2.222" style="fill:none;stroke:#9500ff;stroke-width:1.99999;stroke-linecap:round;stroke-linejoin:round;stroke-miterlimit:10;stroke-dasharray:none;stroke-opacity:1;visibility:visible" visibility="hidden"/><path d="m523.905 731.761 1.151 3.478" style="fill:none;stroke:#9500ff;stroke-width:.999997;stroke-linecap:round;stroke-linejoin:round;stroke-miterlimit:10;stroke-dasharray:none;stroke-opacity:1;visibility:visible" visibility="hidden"/><path d="m352.262 828.487 1.61.483" style="fill:none;stroke:#ffdf00;stroke-width:.999997;stroke-linecap:round;stroke-linejoin:round;stroke-miterlimit:10;stroke-dasharray:none;stroke-opacity:1;visibility:visible" visibility="hidden"/><path d="m218.277 790.7 133.255 40.25" style="fill:none;stroke:#ffdf00;stroke-width:1.99999;stroke-linecap:round;stroke-linejoin:round;stroke-miterlimit:10;stroke-dasharray:none;stroke-opacity:1;visibility:visible" visibility="hidden"/><path d="m359.81 822.845-1.614-.479" style="fill:none;stroke:#ffdf00;stroke-width:.999997;stroke-linecap:round;stroke-linejoin:round;stroke-miterlimit:10;stroke-dasharray:none;stroke-opacity:1;visibility:visible" visibility="hidden"/><path d="m358.928 819.91-133.291-39.55" style="fill:none;stroke:#ffdf00;stroke-width:1.99999;stroke-linecap:round;stroke-linejoin:round;stroke-miterlimit:10;stroke-dasharray:none;stroke-opacity:1;visibility:visible" visibility="hidden"/><path d="m217.529 787.936.305.093M359.194 820.394l-.015-.133-.033-.122-.05-.094-.065-.078-.079-.046-.087-.019-.089.008-.098.036" style="fill:none;stroke:#ffdf00;stroke-width:.999997;stroke-linecap:round;stroke-linejoin:round;stroke-miterlimit:10;stroke-dasharray:none;stroke-opacity:1;visibility:visible" visibility="hidden"/><path d="m357.13 828.017-5.343 2.893M359.194 820.394l.09 2.297" style="fill:none;stroke:#ffdf00;stroke-width:1.99999;stroke-linecap:round;stroke-linejoin:round;stroke-miterlimit:10;stroke-dasharray:none;stroke-opacity:1;visibility:visible" visibility="hidden"/><path d="m359.226 822.927.39-.109.358.102.266.305.16.465.02.576-.11.612M354.328 825.574l4.9-2.644M356.89 826.897l-.266.07-.233-.097-.164-.244-.065-.346.037-.414.137-.401.212-.335.258-.219M354.467 828.88l-.396.119-.357-.099-.278-.306-.156-.468-.026-.573.116-.618.238-.578.332-.474.39-.309M218.058 783.892a.987.987 0 0 0-.452.918M352.262 828.487l-.159-.076-.273-.306-.164-.467-.023-.568.113-.619.238-.578.333-.474.387-.309M352.714 825.09l4.9-2.636M357.614 822.454l.396-.11.185.023M351.494 823.81l7.184-3.863M351.494 823.811a1.112 1.112 0 0 0-.466.98M351.266 830.464l-.238-5.674M351.266 830.465l.014.138.034.117.05.1.063.074.079.047.09.018.094-.008.096-.04" style="fill:none;stroke:#ffdf00;stroke-width:.999997;stroke-linecap:round;stroke-linejoin:round;stroke-miterlimit:10;stroke-dasharray:none;stroke-opacity:1;visibility:visible" visibility="hidden"/><path d="M225.637 780.36a.355.355 0 0 0-.252.035M217.99 790.236a.48.48 0 0 0 .285.462M218.058 783.892l7.325-3.498M217.99 790.236l-.384-5.424" style="fill:none;stroke:#ffdf00;stroke-width:1.99999;stroke-linecap:round;stroke-linejoin:round;stroke-miterlimit:10;stroke-dasharray:none;stroke-opacity:1;visibility:visible" visibility="hidden"/><path d="m217.529 787.936-.167-.077-.288-.292-.18-.449-.034-.55.101-.582.232-.548.333-.442.088-.088M354.328 825.574l-1.613-.484M218.058 783.892l133.436 39.918" style="fill:none;stroke:#ffdf00;stroke-width:.999997;stroke-linecap:round;stroke-linejoin:round;stroke-miterlimit:10;stroke-dasharray:none;stroke-opacity:1;visibility:visible" visibility="hidden"/><path d="m354.328 825.574 2.802 2.443" style="fill:none;stroke:#ffdf00;stroke-width:1.99999;stroke-linecap:round;stroke-linejoin:round;stroke-miterlimit:10;stroke-dasharray:none;stroke-opacity:1;visibility:visible" visibility="hidden"/><path d="m357.614 822.454-.724 4.443" style="fill:none;stroke:#ffdf00;stroke-width:.999997;stroke-linecap:round;stroke-linejoin:round;stroke-miterlimit:10;stroke-dasharray:none;stroke-opacity:1;visibility:visible" visibility="hidden"/><path d="m273.58 896.035-.06 14.115" style="fill:none;stroke:#00d4ff;stroke-width:1.99999;stroke-linecap:round;stroke-linejoin:round;stroke-miterlimit:10;stroke-dasharray:none;stroke-opacity:1;visibility:visible"/><path d="M273.967 895.366a1.75 1.75 0 0 0-.164.11.816.816 0 0 0-.213.444.724.724 0 0 0 .004.115" style="fill:none;stroke:#00d4ff;stroke-width:.999997;stroke-linecap:round;stroke-linejoin:round;stroke-miterlimit:10;stroke-dasharray:none;stroke-opacity:1;visibility:visible"/><path d="m567.356 732.78-293.39 162.578" style="fill:none;stroke:#00d4ff;stroke-width:1.99999;stroke-linecap:round;stroke-linejoin:round;stroke-miterlimit:10;stroke-dasharray:none;stroke-opacity:1;visibility:visible"/><path d="M279.191 912.769c.084.018.162.036.246.04a.577.577 0 0 0 .253-.045l.08-.054" style="fill:none;stroke:#00d4ff;stroke-width:.999997;stroke-linecap:round;stroke-linejoin:round;stroke-miterlimit:10;stroke-dasharray:none;stroke-opacity:1;visibility:visible"/><path d="M572.759 747.033c.085-.057.166-.107.245-.173.124-.098.235-.215.333-.351.107-.137.208-.29.294-.46.089-.172.158-.35.219-.54.062-.187.115-.377.142-.572.03-.188.04-.376.054-.565M568.259 732.649c-.1-.019-.2-.041-.3-.047a1.11 1.11 0 0 0-.386.075 1.476 1.476 0 0 0-.218.103M574.045 744.37l.066-8.784M573.053 733.793l-4.79-1.159M574.11 735.588c0-.104-.004-.206-.01-.3a2.483 2.483 0 0 0-.108-.548 1.903 1.903 0 0 0-.196-.412 2.036 2.036 0 0 0-.273-.306.977.977 0 0 0-.347-.192c-.041-.01-.087-.016-.133-.024M273.533 910.149a.733.733 0 0 0 .09.426.968.968 0 0 0 .21.275c.077.067.177.113.277.163M274.111 911.014l5.08 1.755M279.777 912.72l124.157-70.21M409.515 839.353l80.71-45.643M495.977 790.454l71.76-40.578" style="fill:none;stroke:#00d4ff;stroke-width:1.99999;stroke-linecap:round;stroke-linejoin:round;stroke-miterlimit:10;stroke-dasharray:none;stroke-opacity:1;visibility:visible"/><path d="m299.625 883.566-.286-.146-.121-.187.052-.203.225-.185.356-.136.44-.075.455.005.397.081.28.141.127.189-.053.2-.223.183-.359.14-.441.073h-.454l-.395-.081M282.32 893.175l-.28-.148-.123-.187.058-.209.228-.19.367-.141.444-.073h.456l.403.088.28.145.12.19-.055.203-.232.189-.363.147-.445.07h-.458l-.401-.084M397.503 839.194l.037-.601.152-.61.25-.565.328-.475.371-.337.387-.175.367.009.313.19.228.349M398.882 840.35l-.12.081-.38.086-.347-.099-.275-.273-.18-.423-.077-.528M483.679 790.814l.041-.576.15-.577.233-.535.297-.442.337-.316.347-.148.326.013.277.193.202.344.104.466M485.45 791.423l-.324.387-.346.23-.34.069-.305-.104-.245-.272-.153-.406-.057-.513M561.499 747.124l.051-.552.14-.55.219-.508.271-.417.308-.29.315-.137.292.032.248.192.172.331M562.783 748.116l-.313.218-.305.056-.273-.108-.213-.268-.134-.396-.045-.494M279.423 897.063l-5.093-1.726M572.499 733.889 279.423 897.063M280.113 898.058c.005-.438-.288-.89-.653-1.016a.161.161 0 0 1-.042-.015M280.01 912.194l.081-14.144" style="fill:none;stroke:#00d4ff;stroke-width:.999997;stroke-linecap:round;stroke-linejoin:round;stroke-miterlimit:10;stroke-dasharray:none;stroke-opacity:1;visibility:visible"/><path d="m567.737 749.876 5.022-2.843M409.515 839.353l-5.581 3.157M403.934 842.51l5.581-3.157M495.977 790.454l-5.752 3.256M490.225 793.71l5.752-3.256M572.759 747.033l-5.022 2.843" style="fill:none;stroke:#00d4ff;stroke-width:1.99999;stroke-linecap:round;stroke-linejoin:round;stroke-miterlimit:10;stroke-dasharray:none;stroke-opacity:1;visibility:visible"/><path d="m279.418 897.027 2.902-3.852M409.515 839.353l-10.633.997M572.759 747.033l-9.976 1.083" style="fill:none;stroke:#00d4ff;stroke-width:.999997;stroke-linecap:round;stroke-linejoin:round;stroke-miterlimit:10;stroke-dasharray:none;stroke-opacity:1;visibility:visible"/><path d="m357.614 822.454 2.696 2.424" style="fill:none;stroke:#ffdf00;stroke-width:.999997;stroke-linecap:round;stroke-linejoin:round;stroke-miterlimit:10;stroke-dasharray:none;stroke-opacity:1;visibility:visible" visibility="hidden"/></svg>