<svg xmlns="http://www.w3.org/2000/svg" baseProfile="full" height="1122.52" preserveAspectRatio="xMinYMin meet" style="width:914px;height:841px" width="793.701" xml:space="preserve"><path d="m429.142 970.751.018.219.066.22.106.2.142.164.158.106.166.047.158-.021.136-.086.1-.14.056-.189.008-.215-.041-.221-.087-.212-.125-.181-.153-.139-.164-.076-.164-.012-.147.055-.12.112-.079.166-.034.203M325.055 931.982l.018.221.066.217.106.202.14.16.161.11.166.042.158-.02.135-.086.1-.14.057-.188.007-.212-.042-.222-.085-.216-.125-.18-.154-.134-.165-.078-.164-.012-.147.052-.12.117-.077.165-.035.202M316.26 782.276l.019.222.066.216.105.203.14.16.16.108.165.045.16-.02.135-.086.1-.142.057-.186.007-.212-.041-.224-.086-.214-.125-.181-.153-.133-.166-.08-.163-.012-.147.053-.12.117-.08.164-.031.202M316.682 771.973l.017.221.067.218.104.2.143.161.157.11.167.045.16-.02.133-.086.101-.144.059-.185.005-.213-.041-.222-.085-.216-.126-.18-.153-.134-.165-.08-.165-.01-.146.052-.12.116-.079.164-.033.203" style="fill:none;stroke:red;stroke-width:.666665;stroke-linecap:round;stroke-linejoin:round;stroke-miterlimit:10;stroke-dasharray:none;stroke-opacity:1;visibility:visible" visibility="hidden"/><path d="m469.341 830.967-22.287-.976M498.256 832.129l-28.604 2.81-8.846-3.667" style="fill:none;stroke:red;stroke-width:.666665;stroke-linecap:round;stroke-linejoin:round;stroke-miterlimit:4;stroke-dasharray:none;stroke-opacity:1;visibility:visible" visibility="hidden"/><path d="m441.916 966.068-118.891-43.917M317.36 934.514l125.13 46.781M555.78 921.787l-104.158-35.873M577.579 976.498l-.472-5.246M570.368 896.593l-1.57-17.373M562.744 812.098l-4.699-52.07M557.473 753.694l-1.41-15.606M555.279 729.414l-2.05-22.702M560.519 973.691c.008.052.01.104.025.148a.536.536 0 0 0 .08.133.93.93 0 0 0 .106.11c.046.026.094.06.14.076a.223.223 0 0 0 .057.012M577.244 977.038c.055-.034.116-.063.161-.102a.476.476 0 0 0 .112-.144.38.38 0 0 0 .063-.176c.003-.04-.003-.078-.008-.116M573.707 978.519l3.536-1.481M560.916 974.175l12.11 4.347M573.025 978.519c.059.016.115.033.167.044a.978.978 0 0 0 .237.016 1.7 1.7 0 0 0 .279-.06M557.761 943.532l2.75 30.159M543.879 791.206l1.75 19.216M551.564 875.533l4.59 50.4" style="fill:none;stroke:red;stroke-width:1.99999;stroke-linecap:round;stroke-linejoin:round;stroke-miterlimit:10;stroke-dasharray:none;stroke-opacity:1;visibility:visible" visibility="hidden"/><path d="M437.667 741.249c-.007-.027-.007-.057-.012-.085a.437.437 0 0 0-.072-.159c-.03-.035-.057-.075-.097-.1a.99.99 0 0 0-.1-.07c-.039-.015-.077-.032-.11-.043a.456.456 0 0 0-.109-.019l-.048-.004" style="fill:none;stroke:red;stroke-width:.999997;stroke-linecap:round;stroke-linejoin:round;stroke-miterlimit:10;stroke-dasharray:none;stroke-opacity:1;visibility:visible" visibility="hidden"/><path d="m464.906 1023.708-21.842-226.56M442.363 789.878l-1.619-16.79M440.002 765.374l-2.327-24.124" style="fill:none;stroke:red;stroke-width:1.99999;stroke-linecap:round;stroke-linejoin:round;stroke-miterlimit:10;stroke-dasharray:none;stroke-opacity:1;visibility:visible" visibility="hidden"/><path d="m437.119 740.768-.472-.03" style="fill:none;stroke:red;stroke-width:.999997;stroke-linecap:round;stroke-linejoin:round;stroke-miterlimit:10;stroke-dasharray:none;stroke-opacity:1;visibility:visible" visibility="hidden"/><path d="M320.123 968.751c.077-.036.155-.07.212-.13a.515.515 0 0 0 .112-.15.303.303 0 0 0 .055-.176c0-.013.003-.028-.007-.041M316.175 970.224l3.948-1.473M304.443 965.954l11.059 4.265M315.503 970.22c.054.01.107.031.162.04a1.036 1.036 0 0 0 .237.02c.096-.006.185-.033.273-.056M311.14 762.282l-7.077 203.142M322.18 922.383l4.828-132.351M320.505 968.256l1.174-32.128M464.534 1024.284a.763.763 0 0 0 .189-.112.51.51 0 0 0 .11-.152.392.392 0 0 0 .062-.187.67.67 0 0 0-.005-.126M460.644 1025.918l3.89-1.634M447.632 1021.187l12.292 4.73M459.923 1025.918a.961.961 0 0 0 .519.052.783.783 0 0 0 .202-.052" style="fill:none;stroke:red;stroke-width:1.99999;stroke-linecap:round;stroke-linejoin:round;stroke-miterlimit:10;stroke-dasharray:none;stroke-opacity:1;visibility:visible" visibility="hidden"/><path d="M304.073 965.426c-.003.057-.008.112.005.164a.495.495 0 0 0 .176.257.345.345 0 0 0 .124.081.16.16 0 0 0 .065.026" style="fill:none;stroke:red;stroke-width:.999997;stroke-linecap:round;stroke-linejoin:round;stroke-miterlimit:10;stroke-dasharray:none;stroke-opacity:1;visibility:visible" visibility="hidden"/><path d="m322.662 788.607 102.976 33.78M423.776 821.774l-3.11 67.388" style="fill:none;stroke:red;stroke-width:1.99999;stroke-linecap:round;stroke-linejoin:round;stroke-miterlimit:10;stroke-dasharray:none;stroke-opacity:1;visibility:visible" visibility="hidden"/><path d="m496.736 782.948 55.73-18.046" style="fill:none;stroke:red;stroke-width:.999997;stroke-linecap:round;stroke-linejoin:round;stroke-miterlimit:10;stroke-dasharray:none;stroke-opacity:1;visibility:visible" visibility="hidden"/><path d="M306.413 760.238c.002.067 0 .135.022.2a.475.475 0 0 0 .095.204 1.03 1.03 0 0 0 .165.166.543.543 0 0 0 .215.116c.015 0 .023.005.037.008M419.836 721.485l-112.68 32.532M306.594 754.676l-.19 5.562M307.157 754.03c-.035.014-.074.02-.104.028a.503.503 0 0 0-.236.152.537.537 0 0 0-.147.194.48.48 0 0 0-.073.222c.006.018.003.036.003.05M306.94 760.932l105.49 33.863" style="fill:none;stroke:red;stroke-width:1.99999;stroke-linecap:round;stroke-linejoin:round;stroke-miterlimit:10;stroke-dasharray:none;stroke-opacity:1;visibility:visible" visibility="hidden"/><path d="M552.465 764.897c.008-.005.027-.008.042-.013a.497.497 0 0 0 .245-.14.93.93 0 0 0 .161-.191.808.808 0 0 0 .071-.225c.003-.02.003-.04.003-.06M552.985 764.269l.335-5.505M552.77 758.054l-23.35-6.941M553.319 758.765c-.014-.085-.019-.17-.044-.248a.537.537 0 0 0-.11-.203.587.587 0 0 0-.165-.148.93.93 0 0 0-.22-.104" style="fill:none;stroke:red;stroke-width:.999997;stroke-linecap:round;stroke-linejoin:round;stroke-miterlimit:10;stroke-dasharray:none;stroke-opacity:1;visibility:visible" visibility="hidden"/><path d="m432.78 884.838-107.2 38.256M460.182 974.768l95.737-38.106M530.696 747.988 441.638 721.6" style="fill:none;stroke:red;stroke-width:1.99999;stroke-linecap:round;stroke-linejoin:round;stroke-miterlimit:10;stroke-dasharray:none;stroke-opacity:1;visibility:visible" visibility="hidden"/><path d="M433.166 884.838c-.071-.019-.14-.038-.214-.032a.573.573 0 0 0-.174.036M434.04 885.14l-.874-.303M555.857 927.287l-103.71-35.886" style="fill:none;stroke:red;stroke-width:.999997;stroke-linecap:round;stroke-linejoin:round;stroke-miterlimit:10;stroke-dasharray:none;stroke-opacity:1;visibility:visible" visibility="hidden"/><path d="m445.652 824.003 26.672-8.902M507.023 803.514l47.306-15.792" style="fill:none;stroke:red;stroke-width:1.99999;stroke-linecap:round;stroke-linejoin:round;stroke-miterlimit:10;stroke-dasharray:none;stroke-opacity:1;visibility:visible" visibility="hidden"/><path d="m432.239 742.04 4.335-1.29M441.398 791.509l-.306-.347-.372-.184-.398-.008-.386.172-.35.33-.276.465-.178.558-.06.603.058.592.174.52.263.421.352.27.383.094.4-.082M439.11 767.777l-.311-.35-.372-.188-.395-.011-.397.166-.347.328-.27.464-.176.558-.06.604.058.588.163.529.272.415.347.273.392.097.4-.074.369-.251M425.583 795.73l6.267-53.098M432.25 741.968c-.21.052-.407.349-.438.664M556.563 754.664l-.286-.335-.333-.181-.364-.012-.348.154-.316.31-.25.442-.163.528-.056.57.049.565.156.504.244.4.313.256.351.104.36-.072.337-.24M554.819 733.008l-.1-.543-.206-.46-.278-.336-.338-.184-.357-.02-.357.153-.319.312-.247.439-.16.525-.062.574.05.566.159.502.243.404.313.265.352.099.368-.066M541.712 754.766l6.197-47.176M318.84 923.574l3.968-1.412M324.19 931.634l.045.55.162.553.27.501.353.406.401.268.419.115.402-.052.334-.215.257-.353.14-.467.017-.538-.107-.566-.213-.528-.317-.456-.383-.344-.416-.194-.412-.03-.37.136-.301.29-.192.413-.089.51M428.286 970.371l.033.57.17.569.287.517.367.415.432.29.444.126.424-.05.364-.216.273-.364.156-.48.028-.554-.106-.575-.228-.553-.334-.471-.401-.357-.441-.208-.444-.036-.395.132-.325.297-.216.421-.088.527M318.223 924.389l-1.412 7.356M442.679 972.402l-.415 8.38M442.266 980.782l.008.13.018.12.042.102.053.082.07.058.084.029.086.005.099-.024M442.724 981.284l.644-.26" style="fill:none;stroke:red;stroke-width:.999997;stroke-linecap:round;stroke-linejoin:round;stroke-miterlimit:10;stroke-dasharray:none;stroke-opacity:1;visibility:visible" visibility="hidden"/><path d="m427.866 821.709-2.027.67M447.492 1020.852c-.04.126.032.276.14.336" style="fill:none;stroke:red;stroke-width:1.99999;stroke-linecap:round;stroke-linejoin:round;stroke-miterlimit:10;stroke-dasharray:none;stroke-opacity:1;visibility:visible" visibility="hidden"/><path d="m459.77 1025.582-27.347-282.914M549.447 707.889l9.429 104.216M572.881 978.194l-1.284-14.19M565.767 899.567l-.052-.593M565.715 898.974l-1.855-20.484M442.487 970.443 318.223 924.39M451.876 888.62l104.159 35.953M554.33 787.722a.583.583 0 0 0 .334-.644M554.665 787.078l-2.002-22.132M552.636 764.812l.027.136M324.178 766.49c-.01.035-.02.096-.03.13M425.374 821.828l.856-18.448M425.374 821.829v.14l.026.124.042.102.052.095.074.064.079.032.093.014.1-.02" style="fill:none;stroke:red;stroke-width:.999997;stroke-linecap:round;stroke-linejoin:round;stroke-miterlimit:10;stroke-dasharray:none;stroke-opacity:1;visibility:visible" visibility="hidden"/><path d="m425.583 795.73 21.91 225.122" style="fill:none;stroke:red;stroke-width:1.99999;stroke-linecap:round;stroke-linejoin:round;stroke-miterlimit:10;stroke-dasharray:none;stroke-opacity:1;visibility:visible" visibility="hidden"/><path d="M433.166 884.838a.167.167 0 0 0-.127.001M433.039 884.84c-.07-.025-.196-.032-.259 0M459.538 968.09l95.358-37.686M553.319 758.765a.156.156 0 0 0-.029.039l-.03.02-.049.026M412.27 794.271l.254-5.723M553.212 758.848l-63.517 20.404M475.635 783.769l-28.047 9.01M307.45 754.004l105.418 33.609M425.827 799.222l-13.39-4.3M432.27 885.014l.58-12.12M315.342 969.888l7.345-203.903M437.119 740.768c-.019 0-.089.006-.089.006M431.562 809.37l.044.552.164.55.268.504.354.405.399.272.416.113.4-.05.341-.217.25-.354.142-.47.022-.538-.107-.559-.216-.532-.316-.456-.38-.343-.417-.194-.412-.03-.368.134-.302.29-.197.414-.085.509M315.453 781.918l.045.552.164.55.268.505.353.404.402.27.417.112.4-.049.338-.212.25-.36.14-.465.021-.537-.105-.56-.213-.53-.318-.458-.382-.342-.416-.194-.412-.035-.368.136-.302.288-.198.42-.084.505M315.834 771.632l.043.546.163.555.269.5.353.407.401.268.418.112.399-.05.34-.213.249-.355.14-.465.021-.537-.102-.566-.217-.53-.314-.454-.387-.344-.412-.198-.415-.031-.368.136-.301.29-.195.414-.085.515" style="fill:none;stroke:red;stroke-width:.999997;stroke-linecap:round;stroke-linejoin:round;stroke-miterlimit:10;stroke-dasharray:none;stroke-opacity:1;visibility:visible" visibility="hidden"/><path d="m433.59 821.543.017.22.067.22.105.2.141.161.16.109.164.046.159-.019.136-.088.1-.142.057-.185.007-.216-.041-.222-.087-.213-.125-.18-.152-.139-.168-.075-.163-.01-.145.052-.12.113-.08.167-.032.201M432.402 809.687l.017.22.067.219.104.201.142.159.159.111.165.045.159-.02.135-.085.1-.143.057-.184.008-.217-.041-.223-.087-.212-.124-.181-.153-.138-.166-.076-.164-.012-.145.054-.121.113-.08.167-.031.202" style="fill:none;stroke:red;stroke-width:.666665;stroke-linecap:round;stroke-linejoin:round;stroke-miterlimit:10;stroke-dasharray:none;stroke-opacity:1;visibility:visible" visibility="hidden"/><path d="m432.726 821.231.042.552.167.552.267.5.354.407.4.27.416.111.4-.048.339-.212.249-.358.145-.467.021-.536-.107-.56-.216-.535-.317-.454-.382-.343-.414-.197-.411-.034-.37.141-.301.286-.198.421-.084.503" style="fill:none;stroke:red;stroke-width:.999997;stroke-linecap:round;stroke-linejoin:round;stroke-miterlimit:10;stroke-dasharray:none;stroke-opacity:1;visibility:visible" visibility="hidden"/><path d="m434.04 885.14 17.582.774M572.881 978.194l4.226-6.942M565.715 898.974l4.653-2.381M565.715 898.974l3.083-19.754M553.319 758.765l4.726 1.263M558.045 760.028l-.572-6.334M555.279 729.414l.784 8.674M556.063 738.088l-.784-8.674M556.154 925.933l1.607 17.599M554.665 787.078l-10.786 4.128M557.761 943.532l-1.607-17.599M442.363 789.878l.701 7.27M443.064 797.148l-.701-7.27M440.002 765.374l.742 7.714M440.744 773.088l-.742-7.714M306.404 760.238l4.736 2.044M322.18 922.383l-.501 13.745M425.374 821.828l-1.598-.054" style="fill:none;stroke:red;stroke-width:1.99999;stroke-linecap:round;stroke-linejoin:round;stroke-miterlimit:10;stroke-dasharray:none;stroke-opacity:1;visibility:visible" visibility="hidden"/><path d="m530.696 747.988-1.276 3.125" style="fill:none;stroke:red;stroke-width:.999997;stroke-linecap:round;stroke-linejoin:round;stroke-miterlimit:10;stroke-dasharray:none;stroke-opacity:1;visibility:visible" visibility="hidden"/><path d="m322.808 922.162 2.772.932M443.368 981.024l16.814-6.256M529.42 751.113l1.276-3.125" style="fill:none;stroke:red;stroke-width:1.99999;stroke-linecap:round;stroke-linejoin:round;stroke-miterlimit:10;stroke-dasharray:none;stroke-opacity:1;visibility:visible" visibility="hidden"/><path d="m434.04 885.14 18.107 6.261" style="fill:none;stroke:red;stroke-width:.999997;stroke-linecap:round;stroke-linejoin:round;stroke-miterlimit:10;stroke-dasharray:none;stroke-opacity:1;visibility:visible" visibility="hidden"/><path d="m427.866 821.709 17.786 2.294" style="fill:none;stroke:red;stroke-width:1.99999;stroke-linecap:round;stroke-linejoin:round;stroke-miterlimit:10;stroke-dasharray:none;stroke-opacity:1;visibility:visible" visibility="hidden"/><path d="m552.465 764.897 3.792-7.24M553.32 758.764l-11.608-3.998" style="fill:none;stroke:red;stroke-width:.999997;stroke-linecap:round;stroke-linejoin:round;stroke-miterlimit:10;stroke-dasharray:none;stroke-opacity:1;visibility:visible" visibility="hidden"/><path d="m445.652 824.003-17.786-2.294" style="fill:none;stroke:red;stroke-width:1.99999;stroke-linecap:round;stroke-linejoin:round;stroke-miterlimit:10;stroke-dasharray:none;stroke-opacity:1;visibility:visible" visibility="hidden"/><path d="m577.579 976.498-5.982-12.494M570.368 896.593l-6.508-18.103M434.04 885.14l17.836 3.48M425.583 795.73l.647 7.65M475.635 783.769l14.06-4.517M489.695 779.252l-14.06 4.517M306.404 760.238l16.283 5.747" style="fill:none;stroke:red;stroke-width:.999997;stroke-linecap:round;stroke-linejoin:round;stroke-miterlimit:10;stroke-dasharray:none;stroke-opacity:1;visibility:visible" visibility="hidden"/><path d="m471.572 350.078-.03.22.016.227.062.22.103.188.133.14.15.077.161.017.151-.056.126-.116.097-.17.052-.207.007-.228-.036-.227-.083-.202-.12-.166-.147-.11-.158-.048-.153.02-.14.087-.114.146-.077.188M454.679 493.904l.017.222.067.218.105.2.143.162.159.108.164.045.16-.02.134-.085.1-.144.058-.186.006-.213-.041-.223-.087-.213-.124-.181-.152-.135-.166-.077-.164-.014-.146.054-.12.114-.078.167-.035.201M438.47 632.777l.018.223.066.217.106.2.14.163.16.107.166.045.158-.02.136-.085.1-.143.056-.185.008-.215-.041-.221-.087-.215-.125-.18-.153-.136-.164-.079-.166-.012-.146.055-.12.114-.08.165-.032.202" style="fill:none;stroke:#00ff4a;stroke-width:.666665;stroke-linecap:round;stroke-linejoin:round;stroke-miterlimit:10;stroke-dasharray:none;stroke-opacity:1;visibility:visible"/><path d="M614.257 330.794a43.39 43.39 0 0 0-8.887 11.139M605.372 341.934c-.623 1.03-2.036 3.595-3.996 7.22" style="fill:none;stroke:#00ff4a;stroke-width:.666665;stroke-linecap:round;stroke-linejoin:round;stroke-miterlimit:4;stroke-dasharray:none;stroke-opacity:1;visibility:visible"/><path d="M553.225 706.714c0-.036-.008-.076-.013-.109a.384.384 0 0 0-.072-.141.421.421 0 0 0-.1-.096c-.029-.026-.06-.043-.089-.06-.041-.018-.072-.026-.101-.036a.43.43 0 0 0-.103-.019c-.024 0-.042-.005-.054-.005M552.692 706.249l-.47-.024M547.97 707.47l4.192-1.233M552.692 706.249l-.073.005" style="fill:none;stroke:#00ff4a;stroke-width:.999997;stroke-linecap:round;stroke-linejoin:round;stroke-miterlimit:10;stroke-dasharray:none;stroke-opacity:1;visibility:visible"/><path d="M475.51 325.225a1.443 1.443 0 0 0-.379-.068c-.119-.007-.238.01-.356.025M468.755 327.809l-19.47 167.466M446.299 520.935l-31.88 274.242M474.79 325.162l-4.137.468M470.652 325.654c-.072 0-.144 0-.217.012a1.464 1.464 0 0 0-.526.212 2.133 2.133 0 0 0-.793.816 2.347 2.347 0 0 0-.248.57c-.057.172-.08.359-.113.544M483.557 327.473l-8.047-2.248M436.882 740.408l48.451-409.833M485.333 330.575a3.567 3.567 0 0 0-.05-1.07 3.168 3.168 0 0 0-.214-.647 2.72 2.72 0 0 0-.808-1.033 2.321 2.321 0 0 0-.494-.286c-.068-.025-.138-.044-.21-.066M589.687 328.758l-105.643 12.741M482.256 356.562l110.921-14.064M554.492 598.45l-103.7 24.332M448.999 637.987l109.033-26.251M571.807 465.73 467.14 484.463M465.353 499.595l85.801-15.881M594.701 311.698c-.128-.028-.244-.056-.361-.06a1.933 1.933 0 0 0-.344.027M549.497 613.788l-17.816 137.26M564.127 501.14l-12.732 98.036M584.587 343.586l-15.938 122.708M588.407 314.14l-1.948 15.01M594.004 311.642l-3.73.427M590.257 312.089c-.072.005-.134.005-.197.017a1.301 1.301 0 0 0-.51.203 2.168 2.168 0 0 0-.783.78 2.5 2.5 0 0 0-.251.55c-.046.163-.077.335-.11.502M602.608 313.807l-7.908-2.109M553.135 705.414l25.989-197.331M583.016 478.532 604.32 316.76M604.32 316.76c.012-.126.028-.25.025-.372a2.624 2.624 0 0 0-.063-.645 2.71 2.71 0 0 0-.2-.616 2.328 2.328 0 0 0-.332-.542 2.493 2.493 0 0 0-.446-.44 2.16 2.16 0 0 0-.524-.288c-.058-.015-.112-.032-.172-.05" style="fill:none;stroke:#00ff4a;stroke-width:1.99999;stroke-linecap:round;stroke-linejoin:round;stroke-miterlimit:10;stroke-dasharray:none;stroke-opacity:1;visibility:visible"/><path d="m602.512 313.802.088.003M598.78 314.229l-7.912-2.114M579.376 477.683l21.064-160.426M574.48 507.003l-26.06 198.689M600.44 317.258c.266-1.24-.468-2.59-1.66-3.03M438.736 634.925l.466.082.438-.098.387-.269.29-.418.171-.535.027-.591-.107-.604-.226-.563-.344-.468-.416-.333-.464-.17-.456.01-.414.185-.341.352-.233.478-.1.566.036.606.172.588.292.52.382.405.44.257M454.98 496.047l.472.063.45-.12.393-.296.292-.446.18-.553.03-.608-.107-.619-.235-.564-.348-.47-.43-.325-.467-.151-.47.025-.42.215-.353.376-.23.502-.105.586.031.62.179.6.288.524.393.396.457.245M471.768 352.489l.48.041.46-.143.405-.322.3-.472.179-.576.036-.63-.111-.626-.24-.581-.349-.46-.437-.314-.476-.139-.479.056-.441.235-.352.402-.25.529-.098.61.032.636.177.605.299.525.4.394.465.231M589.687 328.758l.066-.005.117.022M593.179 342.498a.624.624 0 0 0 .494-.593M594.612 330.06l-4.745-1.284M593.673 341.905l1.438-10.935M595.11 330.971a.823.823 0 0 0-.496-.911M554.752 598.461a.455.455 0 0 0-.26-.011M558.032 611.736a.577.577 0 0 0 .4-.516M559.296 600.052l-4.544-1.59M558.432 611.22l1.347-10.265M559.779 600.955a.856.856 0 0 0-.483-.903M571.807 465.73l.11-.007.123.025M576.676 467.192l-4.636-1.444M575.777 478.683l1.388-10.59M577.165 468.095a.827.827 0 0 0-.49-.901" style="fill:none;stroke:#00ff4a;stroke-width:.999997;stroke-linecap:round;stroke-linejoin:round;stroke-miterlimit:10;stroke-dasharray:none;stroke-opacity:1;visibility:visible"/><path d="m594.599 311.69.088.003" style="fill:none;stroke:#00ff4a;stroke-width:1.99999;stroke-linecap:round;stroke-linejoin:round;stroke-miterlimit:10;stroke-dasharray:none;stroke-opacity:1;visibility:visible"/><path d="m483.441 327.462.094.005.022.004M471.252 325.677l8.058 2.257M481.02 331.127l-48.117 408.8M481.02 331.127c.275-1.287-.49-2.702-1.71-3.193M595.11 330.971l-111.428 13.575M559.779 600.955 450.315 626.82M577.165 468.095l-110.44 19.925M590.868 312.114l-.393-.056-.218.013" style="fill:none;stroke:#00ff4a;stroke-width:.999997;stroke-linecap:round;stroke-linejoin:round;stroke-miterlimit:10;stroke-dasharray:none;stroke-opacity:1;visibility:visible"/><path d="m475.39 325.209.093.005.027.01" style="fill:none;stroke:#00ff4a;stroke-width:1.99999;stroke-linecap:round;stroke-linejoin:round;stroke-miterlimit:10;stroke-dasharray:none;stroke-opacity:1;visibility:visible"/><path d="m470.652 325.629.208-.011.39.059" style="fill:none;stroke:#00ff4a;stroke-width:.999997;stroke-linecap:round;stroke-linejoin:round;stroke-miterlimit:10;stroke-dasharray:none;stroke-opacity:1;visibility:visible"/><path d="m475.39 325.209-.403-.059-.196.011M474.79 325.162l9.254 16.337M558.432 611.22l-8.935 2.568M559.779 600.955l-8.384-1.779M593.673 341.905l-9.086 1.681M577.165 468.093l-8.516-1.799M595.111 330.97l-8.652-1.82M577.165 468.093l5.851 10.439" style="fill:none;stroke:#00ff4a;stroke-width:1.99999;stroke-linecap:round;stroke-linejoin:round;stroke-miterlimit:10;stroke-dasharray:none;stroke-opacity:1;visibility:visible"/><path d="m577.165 468.093 2.211 9.59" style="fill:none;stroke:#00ff4a;stroke-width:.999997;stroke-linecap:round;stroke-linejoin:round;stroke-miterlimit:10;stroke-dasharray:none;stroke-opacity:1;visibility:visible"/><path d="m445.652 824.003 1.402 5.988" style="fill:none;stroke:red;stroke-width:.666665;stroke-linecap:round;stroke-linejoin:round;stroke-miterlimit:4;stroke-dasharray:none;stroke-opacity:1;visibility:visible" visibility="hidden"/><path d="m325.58 923.094-8.22 11.42" style="fill:none;stroke:red;stroke-width:1.99999;stroke-linecap:round;stroke-linejoin:round;stroke-miterlimit:10;stroke-dasharray:none;stroke-opacity:1;visibility:visible" visibility="hidden"/><path d="m489.695 779.252 7.041 3.696M460.182 974.768l-.644-6.678" style="fill:none;stroke:red;stroke-width:.999997;stroke-linecap:round;stroke-linejoin:round;stroke-miterlimit:10;stroke-dasharray:none;stroke-opacity:1;visibility:visible" visibility="hidden"/><path d="m412.524 788.548 1.895 6.629" style="fill:none;stroke:#00ff4a;stroke-width:1.99999;stroke-linecap:round;stroke-linejoin:round;stroke-miterlimit:10;stroke-dasharray:none;stroke-opacity:1;visibility:visible"/><path d="m547.909 707.59.511-1.898M431.85 742.632l1.053-2.705" style="fill:none;stroke:#00ff4a;stroke-width:.999997;stroke-linecap:round;stroke-linejoin:round;stroke-miterlimit:10;stroke-dasharray:none;stroke-opacity:1;visibility:visible"/></svg>