<svg xmlns="http://www.w3.org/2000/svg" baseProfile="full" height="1122.52" preserveAspectRatio="xMinYMin meet" style="width:914px;height:841px" width="793.701" xml:space="preserve"><path d="m301.855 324.229-11.44 165.64" style="fill:none;stroke:red;stroke-width:1.99999;stroke-linecap:round;stroke-linejoin:round;stroke-miterlimit:10;stroke-dasharray:none;stroke-opacity:1;visibility:visible"/><path d="m272.594 308.235-80.364-40.754M192.229 267.48l-4.759 162.896" style="fill:none;stroke:red;stroke-width:.999997;stroke-linecap:round;stroke-linejoin:round;stroke-miterlimit:10;stroke-dasharray:none;stroke-opacity:1;visibility:visible"/><path d="m187.47 430.375 96.897 62.843M281.169 307.486l-83.125-41.823" style="fill:none;stroke:red;stroke-width:1.99999;stroke-linecap:round;stroke-linejoin:round;stroke-miterlimit:10;stroke-dasharray:none;stroke-opacity:1;visibility:visible"/><path d="m332.913 493.955-.003-.003-.028-.02-.028-.012-.027-.014-.03-.014-.027-.012-.03-.01-.028-.008-.031-.01-.03-.006-.028-.008-.033-.003-.03-.003-.03-.005-.03-.003-.032.003-.031-.003-.031.006-.032.002-.032.003-.03.007-.031.008-.031.008-.032.006-.028.012-.032.01-.03.014-.034.01-.029.018-.031.016-.034.019-.026.017-.034.02-.027.022-.033.024-.03.024-.03.022-.027.028-.029.024-.028.03-.026.026-.027.026-.025.029-.024.028-.024.03-.023.031-.022.029-.022.031-.021.029-.022.029-.02.034-.016.035-.02.029-.016.035-.018.032-.016.033-.017.035-.018.035-.013.033-.014.036-.012.036-.013.039-.01.036-.009.037-.011.04-.007.04-.008.037-.004.039-.005.04-.003.039-.002.036v.034l.003.035.003.036.004.036.007.036.004.033.01.035.008.03.01.034.013.032.012.03.012.028.016.031.014.028.021.03.015.024.018.025.022.027.021.025.019.021.024.026.023.018.024.02.027.02.025.019.013.009M331.616 495.942l.811.526" style="fill:none;stroke:#00ff4a;stroke-width:.999997;stroke-linecap:round;stroke-linejoin:round;stroke-miterlimit:10;stroke-dasharray:none;stroke-opacity:1;visibility:visible"/><path d="m256.9 509.236-.913 15.279M304.843 488.715l.502-6.855M305.895 474.332l9.862-134.812M316.274 332.462l.765-10.47" style="fill:none;stroke:#00ff4a;stroke-width:1.99999;stroke-linecap:round;stroke-linejoin:round;stroke-miterlimit:10;stroke-dasharray:none;stroke-opacity:1;visibility:visible"/><path d="M257.26 508.66a.8.8 0 0 0-.104.055.601.601 0 0 0-.141.155.857.857 0 0 0-.084.186c-.013.06-.018.124-.026.18" style="fill:none;stroke:#00ff4a;stroke-width:.999997;stroke-linecap:round;stroke-linejoin:round;stroke-miterlimit:10;stroke-dasharray:none;stroke-opacity:1;visibility:visible"/><path d="m291.378 490.594-34.12 18.054M412.562 426.484l-99.465 52.623" style="fill:none;stroke:#00ff4a;stroke-width:1.99999;stroke-linecap:round;stroke-linejoin:round;stroke-miterlimit:10;stroke-dasharray:none;stroke-opacity:1;visibility:visible"/><path d="M260.294 527.892c.072.03.144.07.219.09a.56.56 0 0 0 .23.009.82.82 0 0 0 .194-.069" style="fill:none;stroke:#00ff4a;stroke-width:.999997;stroke-linecap:round;stroke-linejoin:round;stroke-miterlimit:10;stroke-dasharray:none;stroke-opacity:1;visibility:visible"/><path d="m475.624 412.192.07-.032a.399.399 0 0 0 .141-.156.548.548 0 0 0 .076-.173.96.96 0 0 0 .02-.185M475.932 411.646l-.012-.536M255.993 524.518c-.006.011-.006.027-.011.038a.705.705 0 0 0 .041.27.89.89 0 0 0 .13.289 1.07 1.07 0 0 0 .224.219M256.375 525.335l3.919 2.557M260.945 527.924l63.585-34.276M332.212 489.508 475.627 412.2" style="fill:none;stroke:#00ff4a;stroke-width:1.99999;stroke-linecap:round;stroke-linejoin:round;stroke-miterlimit:10;stroke-dasharray:none;stroke-opacity:1;visibility:visible"/><path d="M269.402 310.422c-.015 0-.03 0-.043.003a.44.44 0 0 0-.221.112.636.636 0 0 0-.156.166.604.604 0 0 0-.099.204c-.018.07-.026.139-.038.211M326.582 223.833a.653.653 0 0 0-.205-.041c-.037.002-.068.01-.1.016M330.226 225.284l-3.643-1.451M330.626 226.448l.032-.408M330.658 226.04c0-.07 0-.137-.012-.205a.82.82 0 0 0-.096-.263.708.708 0 0 0-.153-.187c-.054-.039-.111-.068-.171-.1" style="fill:none;stroke:#00ff4a;stroke-width:.999997;stroke-linecap:round;stroke-linejoin:round;stroke-miterlimit:10;stroke-dasharray:none;stroke-opacity:1;visibility:visible"/><path d="m268.845 311.118-1.003 16.752M446.51 271.7 269.4 310.414" style="fill:none;stroke:#00ff4a;stroke-width:1.99999;stroke-linecap:round;stroke-linejoin:round;stroke-miterlimit:10;stroke-dasharray:none;stroke-opacity:1;visibility:visible"/><path d="M272.49 330.823a.795.795 0 0 0 .237.07c.067.005.139-.007.211-.019" style="fill:none;stroke:#00ff4a;stroke-width:.999997;stroke-linecap:round;stroke-linejoin:round;stroke-miterlimit:10;stroke-dasharray:none;stroke-opacity:1;visibility:visible"/><path d="M267.842 327.87c0 .08 0 .159.012.237a1.05 1.05 0 0 0 .11.308.768.768 0 0 0 .176.22c.05.046.11.08.17.116M268.309 328.751l4.181 2.072M272.727 330.894l176.661-40.624" style="fill:none;stroke:#00ff4a;stroke-width:1.99999;stroke-linecap:round;stroke-linejoin:round;stroke-miterlimit:10;stroke-dasharray:none;stroke-opacity:1;visibility:visible"/><path d="M446.884 271.731a.683.683 0 0 0-.232-.045.579.579 0 0 0-.142.024M451.196 273.449l-4.312-1.719M451.667 274.286c0-.08.005-.156-.005-.235a1.033 1.033 0 0 0-.098-.278.753.753 0 0 0-.368-.324" style="fill:none;stroke:#00ff4a;stroke-width:.999997;stroke-linecap:round;stroke-linejoin:round;stroke-miterlimit:10;stroke-dasharray:none;stroke-opacity:1;visibility:visible"/><path d="m307.529 245.844-3.952 57.096" style="fill:none;stroke:#00ff4a;stroke-width:1.99999;stroke-linecap:round;stroke-linejoin:round;stroke-miterlimit:10;stroke-dasharray:none;stroke-opacity:1;visibility:visible"/><path d="m325.157 298.227 3.883-50.982M330.42 229.138l.206-2.69M320.449 361.095l1.357-18.12M322.353 335.68l1.233-16.455" style="fill:none;stroke:#00ff4a;stroke-width:.999997;stroke-linecap:round;stroke-linejoin:round;stroke-miterlimit:10;stroke-dasharray:none;stroke-opacity:1;visibility:visible"/><path d="m435.903 419.123 1.461-13.537M426.762 295.489l-13.347 131.02" style="fill:none;stroke:#00ff4a;stroke-width:1.99999;stroke-linecap:round;stroke-linejoin:round;stroke-miterlimit:10;stroke-dasharray:none;stroke-opacity:1;visibility:visible"/><path d="M458.863 268.922a1.23 1.23 0 0 0 .003-.136.488.488 0 0 0-.063-.176.528.528 0 0 0-.27-.24" style="fill:none;stroke:#00ff4a;stroke-width:.999997;stroke-linecap:round;stroke-linejoin:round;stroke-miterlimit:10;stroke-dasharray:none;stroke-opacity:1;visibility:visible"/><path d="m458.538 268.374-127.83-50.217M444.023 404.036l14.844-135.115" style="fill:none;stroke:#00ff4a;stroke-width:1.99999;stroke-linecap:round;stroke-linejoin:round;stroke-miterlimit:10;stroke-dasharray:none;stroke-opacity:1;visibility:visible"/><path d="m437.426 405 1.544.753M438.97 405.747a.553.553 0 0 0 .093.047.441.441 0 0 0 .22.032c.047-.002.101-.016.15-.024" style="fill:none;stroke:#00ff4a;stroke-width:.999997;stroke-linecap:round;stroke-linejoin:round;stroke-miterlimit:10;stroke-dasharray:none;stroke-opacity:1;visibility:visible"/><path d="m439.434 405.802 4.164-1.238" style="fill:none;stroke:#00ff4a;stroke-width:1.99999;stroke-linecap:round;stroke-linejoin:round;stroke-miterlimit:10;stroke-dasharray:none;stroke-opacity:1;visibility:visible"/><path d="m443.595 404.558.03-.003a.387.387 0 0 0 .184-.108.788.788 0 0 0 .129-.157.51.51 0 0 0 .074-.18c.002-.027.002-.058.002-.084" style="fill:none;stroke:#00ff4a;stroke-width:.999997;stroke-linecap:round;stroke-linejoin:round;stroke-miterlimit:10;stroke-dasharray:none;stroke-opacity:1;visibility:visible"/><path d="M330.713 218.162a.697.697 0 0 0-.2-.048.904.904 0 0 0-.133.014M330.377 218.122l-4.215.736M325.687 219.402l-.333 4.562M326.162 218.864a.41.41 0 0 0-.25.1.77.77 0 0 0-.137.158.533.533 0 0 0-.081.287" style="fill:none;stroke:#00ff4a;stroke-width:1.99999;stroke-linecap:round;stroke-linejoin:round;stroke-miterlimit:10;stroke-dasharray:none;stroke-opacity:1;visibility:visible"/><path d="m320.951 361.88-.521 6.966" style="fill:none;stroke:#00ff4a;stroke-width:.999997;stroke-linecap:round;stroke-linejoin:round;stroke-miterlimit:10;stroke-dasharray:none;stroke-opacity:1;visibility:visible"/><path d="m312.666 239.558 96.41 39.645" style="fill:none;stroke:#00ff4a;stroke-width:1.99999;stroke-linecap:round;stroke-linejoin:round;stroke-miterlimit:10;stroke-dasharray:none;stroke-opacity:1;visibility:visible"/><path d="m438.199 272.869-107.9-43.043" style="fill:none;stroke:#00ff4a;stroke-width:.999997;stroke-linecap:round;stroke-linejoin:round;stroke-miterlimit:10;stroke-dasharray:none;stroke-opacity:1;visibility:visible"/><path d="m312.297 386.813 88.182 46.065" style="fill:none;stroke:#00ff4a;stroke-width:1.99999;stroke-linecap:round;stroke-linejoin:round;stroke-miterlimit:10;stroke-dasharray:none;stroke-opacity:1;visibility:visible"/><path d="m438.136 418.53 37.645-7.326M258.563 520.398l.394.166.362-.013.315-.197.221-.36.122-.49.005-.578-.11-.616-.221-.596-.301-.522-.367-.408-.388-.25-.384-.075-.344.108-.267.281-.175.43-.062.538.054.604.165.609.261.567.342.469.378.332M290.417 489.868c0 .1.078.214.172.248M294.573 492.538l-3.984-2.42M311.531 332.129l-.5.205-.465.37-.393.501-.283.587-.156.618-.008.595.141.522.279.404.384.242.464.067.493-.117M312.987 333.058l-.207-.467-.337-.33-.428-.158-.484.027M301.383 473.39l-.482.232-.451.38-.38.492-.272.56-.148.581-.004.555.139.462.268.35.373.193.447.017M302.794 474.119l-.201-.412-.327-.275-.416-.108-.467.066M302.911 490.32l-7.233 2.328M294.573 492.538c.29.172.789.224 1.106.11M402.738 410.508l-59.256-29.991M331.002 374.2l-11.497-5.82" style="fill:none;stroke:#00ff4a;stroke-width:.999997;stroke-linecap:round;stroke-linejoin:round;stroke-miterlimit:10;stroke-dasharray:none;stroke-opacity:1;visibility:visible"/><path d="m475.772 410.971-4.448-2.145M471.313 408.771a1.26 1.26 0 0 0-.706-.064" style="fill:none;stroke:#00ff4a;stroke-width:1.99999;stroke-linecap:round;stroke-linejoin:round;stroke-miterlimit:10;stroke-dasharray:none;stroke-opacity:1;visibility:visible"/><path d="M438.75 415.972c.052-.01.106-.017.164-.025.056-.004.12-.01.188-.01.062.001.134.001.2.007a3.214 3.214 0 0 1 .432.048c.076.011.148.026.22.04.069.019.142.031.208.051.066.024.133.044.2.068a1.17 1.17 0 0 1 .177.07 1.387 1.387 0 0 1 .401.246c.024.025.05.053.067.081a.195.195 0 0 1 .035.084.135.135 0 0 1-.003.074.204.204 0 0 1-.041.07.544.544 0 0 1-.184.11 2.023 2.023 0 0 1-.138.036 1.027 1.027 0 0 1-.166.022 1.301 1.301 0 0 1-.182.011c-.068.003-.133 0-.202 0-.071-.005-.142-.012-.216-.015a4.364 4.364 0 0 1-.215-.029 4.242 4.242 0 0 1-.219-.044 3.413 3.413 0 0 1-.593-.185 1.467 1.467 0 0 1-.305-.163 5.52 5.52 0 0 1-.104-.084.457.457 0 0 1-.068-.087.141.141 0 0 1-.036-.08.152.152 0 0 1 .004-.078c0-.024.018-.047.04-.07a.245.245 0 0 1 .07-.059.656.656 0 0 1 .116-.051c.043-.016.094-.026.149-.038h.001M454.626 412.903a3.083 3.083 0 0 1 .349-.03 3.226 3.226 0 0 1 .408.021c.075.006.145.017.219.031l.212.039c.07.018.14.031.21.053l.198.063a2.584 2.584 0 0 1 .472.228c.036.024.072.056.105.083l.071.085a.356.356 0 0 1 .034.08.117.117 0 0 1-.004.074.12.12 0 0 1-.031.068.613.613 0 0 1-.074.06.844.844 0 0 1-.241.082.939.939 0 0 1-.16.024 2.045 2.045 0 0 1-.384.008 2.29 2.29 0 0 1-.21-.017 2.087 2.087 0 0 1-.21-.028c-.074-.01-.147-.025-.218-.039-.07-.018-.142-.033-.208-.053a2.807 2.807 0 0 1-.55-.21 1.587 1.587 0 0 1-.14-.082c-.039-.029-.071-.057-.106-.084a.779.779 0 0 1-.071-.085.14.14 0 0 1-.034-.079.157.157 0 0 1 .035-.143.33.33 0 0 1 .069-.058.704.704 0 0 1 .113-.052l.064-.02.082-.019" style="fill:none;stroke:#00ff4a;stroke-width:.999997;stroke-linecap:round;stroke-linejoin:round;stroke-miterlimit:10;stroke-dasharray:none;stroke-opacity:1;visibility:visible"/><path d="m436.308 415.335 34.339-6.608" style="fill:none;stroke:#00ff4a;stroke-width:1.99999;stroke-linecap:round;stroke-linejoin:round;stroke-miterlimit:10;stroke-dasharray:none;stroke-opacity:1;visibility:visible"/><path d="m458.212 268.994-4.28.932M453.27 270.069l-127.423-50.375M438.62 405.176l14.65-135.106M432.655 294.351l-13.896 134.587M312.53 244.25l-4.06 57.624M451.523 274.377l.061-.017.048-.023.03-.027.005-.024M272.94 330.88a.557.557 0 0 0 .34-.56M269.626 310.446a.336.336 0 0 0-.228-.03M269.626 310.446l4.207 2.023M451.523 274.377 274.31 313.514M274.311 313.515l-1.031 16.806M274.311 313.515a1.128 1.128 0 0 0-.477-1.045M326.582 223.833a.26.26 0 0 0-.139-.013M330.226 225.284a.245.245 0 0 0-.139-.011M326.443 223.82l-.09-.024-.08.004M257.563 508.695l3.943 2.513M262.026 512.302c.017-.41-.216-.902-.52-1.094M438.136 418.53l-119.625 63.634M311.789 485.739l-49.755 26.467M262.034 512.204l-.944 15.319M320.973 361.602l-7.078 3.356M307.669 322.987l-11.991 169.661M319.506 368.38a.396.396 0 0 0-.35.012M319.155 368.393l-5.712 2.722M312.397 238.998l.378-5.42M413.62 426.746l-.085-.052-.07-.058-.039-.062-.009-.06M413.62 426.746l4.1 2.094M417.72 428.842c.267.146.746.192 1.04.097M272.13 321.435l-.024-.649-.147-.652-.257-.595-.34-.489-.401-.34-.421-.157-.398.041-.347.23-.268.404-.157.538-.039.624.087.656.201.63.306.549.372.418.412.252.416.06.378-.137.31-.319.217-.476.1-.588" style="fill:none;stroke:#00ff4a;stroke-width:.999997;stroke-linecap:round;stroke-linejoin:round;stroke-miterlimit:10;stroke-dasharray:none;stroke-opacity:1;visibility:visible"/><path d="m326.273 218.869-.06-.013h-.051" style="fill:none;stroke:#00ff4a;stroke-width:1.99999;stroke-linecap:round;stroke-linejoin:round;stroke-miterlimit:10;stroke-dasharray:none;stroke-opacity:1;visibility:visible"/><path d="m312.711 381.149 93.745 48.569M313.363 232.802l107.512 43.655" style="fill:none;stroke:#00ff4a;stroke-width:.999997;stroke-linecap:round;stroke-linejoin:round;stroke-miterlimit:10;stroke-dasharray:none;stroke-opacity:1;visibility:visible"/><path d="m148.293 438.766-.33 14.232M185.573 267.965l-4.98 155.258" style="fill:none;stroke:#00ff4a;stroke-width:1.99999;stroke-linecap:round;stroke-linejoin:round;stroke-miterlimit:10;stroke-dasharray:none;stroke-opacity:1;visibility:visible"/><path d="m148.644 438.195-.088.041a.444.444 0 0 0-.131.128.667.667 0 0 0-.127.344c0 .018.006.038.006.06" style="fill:none;stroke:#00ff4a;stroke-width:.999997;stroke-linecap:round;stroke-linejoin:round;stroke-miterlimit:10;stroke-dasharray:none;stroke-opacity:1;visibility:visible"/><path d="m180.626 423.335-31.982 14.855" style="fill:none;stroke:#00ff4a;stroke-width:1.99999;stroke-linecap:round;stroke-linejoin:round;stroke-miterlimit:10;stroke-dasharray:none;stroke-opacity:1;visibility:visible"/><path d="M151.533 455.826c.065.029.123.064.19.078a.419.419 0 0 0 .201.012.953.953 0 0 0 .158-.053" style="fill:none;stroke:#00ff4a;stroke-width:.999997;stroke-linecap:round;stroke-linejoin:round;stroke-miterlimit:10;stroke-dasharray:none;stroke-opacity:1;visibility:visible"/><path d="M147.969 452.999c0 .056 0 .112.008.17a.783.783 0 0 0 .088.266.819.819 0 0 0 .143.203.747.747 0 0 0 .102.078M148.31 453.716l3.223 2.11M152.088 455.868l41.64-19.964" style="fill:none;stroke:#00ff4a;stroke-width:1.99999;stroke-linecap:round;stroke-linejoin:round;stroke-miterlimit:10;stroke-dasharray:none;stroke-opacity:1;visibility:visible"/><path d="M153.16 254.648c-.02 0-.044 0-.058.003a.439.439 0 0 0-.194.097.537.537 0 0 0-.132.137.537.537 0 0 0-.087.17.947.947 0 0 0-.048.249" style="fill:none;stroke:#00ff4a;stroke-width:.999997;stroke-linecap:round;stroke-linejoin:round;stroke-miterlimit:10;stroke-dasharray:none;stroke-opacity:1;visibility:visible"/><path d="m152.641 255.305-.355 15.437M326.297 223.802l-173.139 30.836" style="fill:none;stroke:#00ff4a;stroke-width:1.99999;stroke-linecap:round;stroke-linejoin:round;stroke-miterlimit:10;stroke-dasharray:none;stroke-opacity:1;visibility:visible"/><path d="M156.102 273.214c.072.028.139.056.21.061.057.006.113-.004.173-.013" style="fill:none;stroke:#00ff4a;stroke-width:.999997;stroke-linecap:round;stroke-linejoin:round;stroke-miterlimit:10;stroke-dasharray:none;stroke-opacity:1;visibility:visible"/><path d="M152.286 270.74c0 .07.002.134.014.2a.995.995 0 0 0 .098.28.763.763 0 0 0 .308.299M152.706 271.52l3.396 1.693M156.484 273.269l162.245-30.209" style="fill:none;stroke:#00ff4a;stroke-width:1.99999;stroke-linecap:round;stroke-linejoin:round;stroke-miterlimit:10;stroke-dasharray:none;stroke-opacity:1;visibility:visible"/><path d="m421.876 431.898-.454.158-.428.311-.368.428-.271.508-.15.543-.023.53.121.467.237.367.344.236.416.08.45-.087.443-.239.403-.372.324-.468.21-.536.09-.538-.05-.503-.173-.421-.299-.312-.382-.155-.44.003M431.122 426.802l-.452.158-.43.308-.368.427-.268.51-.154.541-.02.529.118.47.238.366.346.237.414.08.45-.088.444-.238.403-.372.323-.468.214-.534.087-.538-.048-.508-.177-.422-.3-.306-.379-.158-.441.006M153.16 254.638h.066l.09.025M153.316 254.663l3.417 1.655M330.08 229.644l-17.22 3.094M330.525 226.089 157.14 257.254M157.14 257.253l-.376 15.481M157.14 257.253a1.067 1.067 0 0 0-.406-.936M148.857 438.224l3.237 2.074M152.562 441.195a.968.968 0 0 0-.468-.897M186.658 425.063l-34.096 16.132M152.562 441.195l-.348 14.268M190.27 267.34l-5.262 158.064M155.533 264.594l-.041-.592-.134-.595-.221-.537-.285-.43-.324-.29-.342-.124-.321.056-.273.23-.202.382-.116.503-.012.576.088.597.179.568.257.49.31.367.336.209.333.035.3-.145.243-.304.16-.451.065-.546M149.918 448.974l.318.129.292-.039.245-.202.175-.348.08-.462-.008-.54-.108-.56-.19-.538-.257-.464-.304-.354-.323-.208-.31-.044-.275.123-.205.28-.132.41-.036.505.06.554.145.555.23.505.287.414.316.284M180.72 423.423l3.282 2.005" style="fill:none;stroke:#00ff4a;stroke-width:.999997;stroke-linecap:round;stroke-linejoin:round;stroke-miterlimit:10;stroke-dasharray:none;stroke-opacity:1;visibility:visible"/><path d="m430.983 427.966-.17.06-.157.113-.138.161-.1.187-.056.2-.008.197.044.174.088.137.129.085.153.031.167-.033.165-.088.148-.138.122-.172.078-.2.032-.198-.018-.188-.064-.156-.111-.115-.143-.059-.161.002M421.772 433.036l-.169.06-.16.111-.136.163-.101.188-.056.2-.007.197.044.172.087.139.13.084.154.031.166-.034.164-.087.148-.138.124-.172.078-.2.032-.2-.018-.186-.065-.156-.11-.116-.144-.058-.161.002" style="fill:none;stroke:#00ff4a;stroke-width:.666665;stroke-linecap:round;stroke-linejoin:round;stroke-miterlimit:10;stroke-dasharray:none;stroke-opacity:1;visibility:visible"/><path d="m436.1 283.322-.45.178-.416.323-.352.442-.254.518-.13.547v.529l.134.464.248.358.36.224.415.061.448-.101.435-.256.388-.384.306-.482.19-.538.07-.546-.069-.502-.19-.414-.308-.297-.387-.144-.438.02M444.727 281.325l-.45.177-.414.321-.353.442-.251.517-.133.548v.53l.136.467.25.355.354.223.417.062.447-.1.433-.257.392-.385.304-.48.195-.539.068-.545-.068-.503-.195-.415-.307-.297-.39-.141-.434.02" style="fill:none;stroke:#00ff4a;stroke-width:.999997;stroke-linecap:round;stroke-linejoin:round;stroke-miterlimit:10;stroke-dasharray:none;stroke-opacity:1;visibility:visible"/><path d="m444.676 282.515-.176.07-.165.128-.137.173-.1.205-.051.215v.21l.05.181.101.143.14.087.165.024.176-.04.17-.1.152-.151.123-.19.076-.213.024-.214-.024-.198-.076-.163-.122-.117-.154-.058-.172.008M436.036 284.42l-.176.068-.164.131-.14.171-.098.205-.054.215v.21l.054.181.098.142.14.088.164.024.176-.038.172-.102.155-.152.117-.189.078-.213.026-.214-.026-.197-.078-.164-.12-.116-.152-.057-.172.006" style="fill:none;stroke:#00ff4a;stroke-width:.666665;stroke-linecap:round;stroke-linejoin:round;stroke-miterlimit:10;stroke-dasharray:none;stroke-opacity:1;visibility:visible"/><path d="m335.062 378.04-.095 1.152M334.813 379.509a.467.467 0 0 0 .153-.316M330.969 379.589a4.617 4.617 0 0 0 1.528.42 4.616 4.616 0 0 0 1.569-.11M334.066 379.9c.273-.068.53-.202.746-.392M335.062 378.04a.96.96 0 0 0-.199-.668M334.863 377.371a2.013 2.013 0 0 0-.713-.57M334.149 376.8a4.179 4.179 0 0 0-2.76-.273M330.29 377.562l-.093 1.152M330.197 378.713a.499.499 0 0 0 .1.344M330.298 379.057c.181.228.412.413.67.532M331.389 376.526a1.89 1.89 0 0 0-.799.417M330.593 376.942a.939.939 0 0 0-.303.618" style="fill:none;stroke:#00ff4a;stroke-width:.999997;stroke-linecap:round;stroke-linejoin:round;stroke-miterlimit:2;stroke-dasharray:none;stroke-opacity:1;visibility:visible"/><path d="m333.682 365.019-.54 4.559s-.188 2.3-.427 3.632a2.8 2.8 0 0 1-.392.955 2.957 2.957 0 0 1-1.292 1.098M333.682 365.02l.05-.346.063-.329.079-.322.09-.31.106-.293.118-.278.132-.263.143-.244.15-.222.167-.203.176-.18.18-.156.186-.136.2-.11.202-.083M341.255 362.92l.213.12.203.14.2.166.195.191.184.211.18.232.17.247.16.27.15.286.14.302.122.31.115.328.101.335.088.348.071.353.057.355.042.361.028.36.012.363-.002.361-.02.355-.033.346M342.686 378.546l.944-9.286M335.652 361.573l.584-.235" style="fill:none;stroke:#00ff4a;stroke-width:.999997;stroke-linecap:round;stroke-linejoin:round;stroke-miterlimit:500;stroke-dasharray:none;stroke-opacity:1;visibility:visible"/><path d="m333.322 374.707 6.061 3.086M336.08 372.64l.09.21.102.196.112.176.122.157.126.141.134.121.14.094.144.078.142.044.15.025.145-.002.141-.026.138-.048.136-.077.128-.1.117-.119.11-.14.101-.163.084-.18.081-.193.061-.212M339.08 368.674l.022-.239.005-.245-.007-.247M339.1 367.943l-.022-.243-.038-.246-.052-.239-.066-.23-.08-.219-.09-.207-.102-.199-.11-.175-.12-.16-.13-.139-.134-.121-.14-.095-.145-.073-.141-.048-.15-.022-.145-.001-.141.028-.142.048-.13.076-.128.097-.119.123-.112.139-.096.16-.09.185-.073.193M341.335 377.07l.773-7.725M340.307 364.535c1.419 1.055 2.087 2.832 1.801 4.808M337.554 363.415l2.753 1.122" style="fill:none;stroke:#00ff4a;stroke-width:.666665;stroke-linecap:round;stroke-linejoin:round;stroke-miterlimit:500;stroke-dasharray:none;stroke-opacity:1;visibility:visible"/><path d="M336.602 382.58a10.525 10.525 0 0 1-7.602-.212M342.686 378.546a3.367 3.367 0 0 1-2.01 2.519M340.675 381.063l-4.075 1.517M324.615 379.25l-.03-.62M336.236 361.338c.562-.198 1.128-.161 1.554.096M337.788 361.434l3.467 1.484" style="fill:none;stroke:#00ff4a;stroke-width:.999997;stroke-linecap:round;stroke-linejoin:round;stroke-miterlimit:500;stroke-dasharray:none;stroke-opacity:1;visibility:visible"/><path d="m330.146 380.994-.752-.412M334.714 381.477a8.043 8.043 0 0 1-4.57-.483M338.932 380.014l-4.218 1.463" style="fill:none;stroke:#00ff4a;stroke-width:.666665;stroke-linecap:round;stroke-linejoin:round;stroke-miterlimit:500;stroke-dasharray:none;stroke-opacity:1;visibility:visible"/><path d="m324.597 378.478.006-.073.043-.17.072-.165.097-.164.128-.16.15-.159.177-.156.199-.148.224-.146.244-.134.268-.133.285-.121.303-.119M331.075 375.231l-4.281 1.4" style="fill:none;stroke:#00ff4a;stroke-width:.999997;stroke-linecap:round;stroke-linejoin:round;stroke-miterlimit:500;stroke-dasharray:none;stroke-opacity:1;visibility:visible"/><path d="m335.65 378.249.128.08.112.084.088.087.062.1.044.096.02.098-.01.1-.027.105-.053.096-.076.098-.096.094-.116.095-.142.087-.156.08-.18.073-.185.067-.202.06M335.506 378.182l.144.067M329.619 378.496l-.125-.078-.112-.085-.087-.091-.065-.092-.044-.1-.016-.1.003-.1.029-.1.055-.101.073-.1.097-.094.123-.092.136-.086.157-.08.175-.077.192-.066M329.62 378.495l.193.09" style="fill:none;stroke:#00ff4a;stroke-width:.666665;stroke-linecap:round;stroke-linejoin:round;stroke-miterlimit:500;stroke-dasharray:none;stroke-opacity:1;visibility:visible"/><path d="m329 382.369-3.32-1.82" style="fill:none;stroke:#00ff4a;stroke-width:.999997;stroke-linecap:round;stroke-linejoin:round;stroke-miterlimit:500;stroke-dasharray:none;stroke-opacity:1;visibility:visible"/><path d="M340.982 378.4a2.277 2.277 0 0 1-1.223 1.213" style="fill:none;stroke:#00ff4a;stroke-width:.666665;stroke-linecap:round;stroke-linejoin:round;stroke-miterlimit:500;stroke-dasharray:none;stroke-opacity:1;visibility:visible"/><path d="M325.68 380.549a1.684 1.684 0 0 1-1.064-1.3" style="fill:none;stroke:#00ff4a;stroke-width:.999997;stroke-linecap:round;stroke-linejoin:round;stroke-miterlimit:500;stroke-dasharray:none;stroke-opacity:1;visibility:visible"/><path d="m406.783 414.496-.093 1.151M406.532 415.964a.468.468 0 0 0 .156-.316M402.69 416.046a4.6 4.6 0 0 0 1.528.42 4.618 4.618 0 0 0 1.569-.11M405.786 416.358c.272-.07.529-.204.746-.394M406.783 414.496a.953.953 0 0 0-.199-.669M406.583 413.828a2.013 2.013 0 0 0-.715-.57M405.868 413.258a4.17 4.17 0 0 0-2.757-.275M402.011 414.018l-.092 1.152M401.919 415.17a.504.504 0 0 0 .1.344M402.019 415.514c.181.228.412.414.67.532M403.111 412.983a1.876 1.876 0 0 0-.797.417M402.314 413.4a.933.933 0 0 0-.304.617M335.663 367.634l.98-.441M337.075 367.147a.683.683 0 0 0-.43.046M339.055 370.458a3.75 3.75 0 0 0-1.172-2.888M337.883 367.571a1.8 1.8 0 0 0-.808-.424M335.663 367.634a1.395 1.395 0 0 0-.655.564M335.009 368.198a2.036 2.036 0 0 0-.291.95M334.72 369.147c-.015.496.065.966.241 1.403.179.437.453.828.811 1.163M337.472 372.082l.98-.448M338.452 371.635a.76.76 0 0 0 .338-.285" style="fill:none;stroke:#00ff4a;stroke-width:.999997;stroke-linecap:round;stroke-linejoin:round;stroke-miterlimit:2;stroke-dasharray:none;stroke-opacity:1;visibility:visible"/><path d="M338.79 371.349c.166-.291.262-.595.265-.891M335.77 371.713a1.893 1.893 0 0 0 .858.457M336.628 372.17c.26.063.562.028.844-.087" style="fill:none;stroke:#00ff4a;stroke-width:.999997;stroke-linecap:round;stroke-linejoin:round;stroke-miterlimit:2;stroke-dasharray:none;stroke-opacity:1;visibility:visible"/><path d="m405.403 401.476-.54 4.56s-.19 2.299-.427 3.63a2.8 2.8 0 0 1-.392.956 2.943 2.943 0 0 1-1.292 1.098M405.403 401.476l.05-.344.063-.33.079-.322.09-.309.105-.295.121-.276.13-.264.142-.244.152-.222.164-.203.177-.18.184-.156.183-.136.2-.11.201-.083M412.976 399.375l.212.12.204.14.2.168.195.19.184.211.18.231.17.248.161.27.148.286.142.301.122.311.114.329.102.334.086.348.072.353.058.355.042.36.026.361.013.363-.003.361-.017.355-.035.346M414.408 415.002l.946-9.286M407.374 398.028l.584-.234" style="fill:none;stroke:#00ff4a;stroke-width:.999997;stroke-linecap:round;stroke-linejoin:round;stroke-miterlimit:500;stroke-dasharray:none;stroke-opacity:1;visibility:visible"/><path d="m405.043 411.163 6.061 3.085M407.802 409.098l.09.208.103.197.112.177.121.156.127.14.135.122.138.094.146.078.142.044.148.025.146-.001.14-.028.14-.047.134-.077.128-.099.118-.12.11-.141.098-.162.088-.18.078-.193.063-.211M410.803 405.131l.023-.239.004-.245-.007-.247M410.822 404.402l-.024-.244-.038-.246-.052-.238-.066-.23-.079-.22-.09-.208-.103-.196-.111-.177-.12-.159-.127-.14-.136-.121-.14-.095-.144-.073-.142-.048-.15-.021-.144-.002-.141.028-.141.048-.132.076-.127.098-.119.122-.112.14-.096.159-.09.185-.074.194M412.028 400.994a4.536 4.536 0 0 1 1.652 2.392M409.275 399.872l2.752 1.122" style="fill:none;stroke:#00ff4a;stroke-width:.666665;stroke-linecap:round;stroke-linejoin:round;stroke-miterlimit:500;stroke-dasharray:none;stroke-opacity:1;visibility:visible"/><path d="M408.322 419.036a10.525 10.525 0 0 1-7.602-.21M414.408 415.002a3.367 3.367 0 0 1-2.01 2.518M412.398 417.52l-4.076 1.516M396.336 415.707l-.029-.62M407.958 397.795c.562-.197 1.128-.161 1.552.096M409.51 397.891l3.468 1.484" style="fill:none;stroke:#00ff4a;stroke-width:.999997;stroke-linecap:round;stroke-linejoin:round;stroke-miterlimit:500;stroke-dasharray:none;stroke-opacity:1;visibility:visible"/><path d="m401.866 417.45-.752-.412M406.435 417.932a8.043 8.043 0 0 1-4.57-.482M410.652 416.471l-4.217 1.463" style="fill:none;stroke:#00ff4a;stroke-width:.666665;stroke-linecap:round;stroke-linejoin:round;stroke-miterlimit:500;stroke-dasharray:none;stroke-opacity:1;visibility:visible"/><path d="m396.319 414.935.007-.073.041-.17.073-.166.098-.163.128-.16.149-.159.177-.156.198-.148.224-.146.245-.134.268-.134.287-.12.301-.118M402.796 411.688l-4.281 1.4" style="fill:none;stroke:#00ff4a;stroke-width:.999997;stroke-linecap:round;stroke-linejoin:round;stroke-miterlimit:500;stroke-dasharray:none;stroke-opacity:1;visibility:visible"/><path d="m407.372 414.706.128.08.112.084.088.088.063.101.044.093.019.1-.008.099-.028.104-.054.097-.074.098-.098.094-.116.096-.141.086-.157.08-.18.073-.184.067-.203.061M407.226 414.64l.144.065M401.34 414.952l-.125-.078-.112-.086-.085-.09-.066-.092-.044-.1-.017-.099.003-.101.029-.1.056-.102.072-.1.099-.093.12-.091.138-.088.156-.08.176-.076.191-.066M401.34 414.951l.195.09" style="fill:none;stroke:#00ff4a;stroke-width:.666665;stroke-linecap:round;stroke-linejoin:round;stroke-miterlimit:500;stroke-dasharray:none;stroke-opacity:1;visibility:visible"/><path d="m400.72 418.824-3.317-1.82" style="fill:none;stroke:#00ff4a;stroke-width:.999997;stroke-linecap:round;stroke-linejoin:round;stroke-miterlimit:500;stroke-dasharray:none;stroke-opacity:1;visibility:visible"/><path d="M412.703 414.855a2.277 2.277 0 0 1-1.223 1.215" style="fill:none;stroke:#00ff4a;stroke-width:.666665;stroke-linecap:round;stroke-linejoin:round;stroke-miterlimit:500;stroke-dasharray:none;stroke-opacity:1;visibility:visible"/><path d="M397.403 417.004a1.685 1.685 0 0 1-1.067-1.298" style="fill:none;stroke:#00ff4a;stroke-width:.999997;stroke-linecap:round;stroke-linejoin:round;stroke-miterlimit:500;stroke-dasharray:none;stroke-opacity:1;visibility:visible"/><path d="M406.439 405.603a3.48 3.48 0 0 0 .243 1.401c.178.44.452.83.808 1.164M409.194 408.54l.98-.448M410.172 408.092a.76.76 0 0 0 .338-.286M410.511 407.806c.168-.29.263-.596.265-.89M407.492 408.168c.222.216.516.372.859.46M408.35 408.627c.26.063.56.028.844-.087M407.386 404.091l.98-.441M408.796 403.603a.683.683 0 0 0-.43.045M410.776 406.915a3.82 3.82 0 0 0-.274-1.579 3.772 3.772 0 0 0-.898-1.308M409.604 404.028a1.794 1.794 0 0 0-.808-.424M407.386 404.091a1.379 1.379 0 0 0-.654.564" style="fill:none;stroke:#00ff4a;stroke-width:.999997;stroke-linecap:round;stroke-linejoin:round;stroke-miterlimit:2;stroke-dasharray:none;stroke-opacity:1;visibility:visible"/><path d="M406.731 404.655a2.037 2.037 0 0 0-.292.95" style="fill:none;stroke:#00ff4a;stroke-width:.999997;stroke-linecap:round;stroke-linejoin:round;stroke-miterlimit:2;stroke-dasharray:none;stroke-opacity:1;visibility:visible"/><path d="m352.332 256.76-.032 1.043M352.3 257.802l-.026.335-.029.321-.05.317-.059.305-.081.293-.093.276-.1.264-.119.246-.13.226-.141.21-.156.186-.16.165-.169.148-.183.12-.188.096M345.054 260.12l-.21-.096-.21-.119-.206-.147-.202-.165-.196-.188-.19-.208-.185-.227-.175-.245-.168-.263-.158-.279-.144-.29-.136-.304-.126-.319s-.202-.593-.306-1.496c-.126-1.078-.155-2.497-.155-2.497l.027-.865M350.682 261.28l-.542.272" style="fill:none;stroke:#00ff4a;stroke-width:.999997;stroke-linecap:round;stroke-linejoin:round;stroke-miterlimit:500;stroke-dasharray:none;stroke-opacity:1;visibility:visible"/><path d="m345.77 256.965.104.192.113.181.121.16.132.145.132.127.14.1.144.081.142.06.142.035.143.008.143-.01.132-.041.132-.056.12-.084.116-.103.104-.127.096-.144.08-.163.07-.181.056-.195.048-.207.027-.216.015-.225" style="fill:none;stroke:#00ff4a;stroke-width:.666665;stroke-linecap:round;stroke-linejoin:round;stroke-miterlimit:500;stroke-dasharray:none;stroke-opacity:1;visibility:visible"/><path d="M350.14 261.553c-.525.236-1.073.245-1.502.03M348.636 261.583l-3.584-1.463" style="fill:none;stroke:#00ff4a;stroke-width:.999997;stroke-linecap:round;stroke-linejoin:round;stroke-miterlimit:500;stroke-dasharray:none;stroke-opacity:1;visibility:visible"/><path d="m350.786 256.132-.1 2.388s-.162.849-.487 1.233c-.376.44-.917.425-.917.425l-1.738-.623" style="fill:none;stroke:#00ff4a;stroke-width:.666665;stroke-linecap:round;stroke-linejoin:round;stroke-miterlimit:500;stroke-dasharray:none;stroke-opacity:1;visibility:visible"/><path d="M344.567 252.72a2.028 2.028 0 0 0-.29.942M344.278 253.662c-.014.492.066.959.241 1.392.176.436.451.824.803 1.156M347.012 256.578l.974-.445M347.987 256.133a.747.747 0 0 0 .335-.284M348.322 255.849c.166-.29.261-.59.264-.885M345.322 256.21c.221.215.513.368.853.456M346.175 256.666c.259.061.559.028.839-.086" style="fill:none;stroke:#00ff4a;stroke-width:.999997;stroke-linecap:round;stroke-linejoin:round;stroke-miterlimit:2;stroke-dasharray:none;stroke-opacity:1;visibility:visible"/><path d="m290.417 489.868 14.426-1.153M305.895 474.332l-.55 7.528M305.345 481.86l.55-7.528M316.274 332.462l-.517 7.058M315.757 339.52l.517-7.058M322.353 335.68l-5.314-13.688M311.789 485.739l1.308-6.632M332.212 489.508l-7.682 4.14M324.53 493.648l7.682-4.14M451.523 274.377l-2.135 15.893M312.397 238.998l-4.868 6.846" style="fill:none;stroke:#00ff4a;stroke-width:1.99999;stroke-linecap:round;stroke-linejoin:round;stroke-miterlimit:10;stroke-dasharray:none;stroke-opacity:1;visibility:visible"/><path d="m344.277 253.662-15.237-6.417M322.353 335.68l-.547 7.295M321.806 342.975l.547-7.295M316.274 332.462l7.312-13.237M330.29 377.562l-9.86-8.716M446.884 271.73l-8.685 1.139" style="fill:none;stroke:#00ff4a;stroke-width:.999997;stroke-linecap:round;stroke-linejoin:round;stroke-miterlimit:10;stroke-dasharray:none;stroke-opacity:1;visibility:visible"/><path d="m329 382.369-16.703 4.444M400.72 418.826l-.241 14.052" style="fill:none;stroke:#00ff4a;stroke-width:1.99999;stroke-linecap:round;stroke-linejoin:round;stroke-miterlimit:10;stroke-dasharray:none;stroke-opacity:1;visibility:visible"/><path d="m405.043 411.163-2.305-.655M339.383 377.793l4.099 2.724M333.322 374.707l-2.32-.507M439.433 405.802l-.683 10.17M431.122 426.802l7.628-10.83M470.647 408.727l-16.021 4.176M438.75 415.972l15.876-3.069" style="fill:none;stroke:#00ff4a;stroke-width:.999997;stroke-linecap:round;stroke-linejoin:round;stroke-miterlimit:10;stroke-dasharray:none;stroke-opacity:1;visibility:visible"/><path d="m439.433 405.802-3.125 9.533" style="fill:none;stroke:#00ff4a;stroke-width:1.99999;stroke-linecap:round;stroke-linejoin:round;stroke-miterlimit:10;stroke-dasharray:none;stroke-opacity:1;visibility:visible"/><path d="m312.397 238.998.133 5.252M311.789 485.739l6.722-3.575M313.097 479.107l-1.308 6.632M319.155 368.393l-5.26-3.435M316.274 332.462l-8.605-9.475M320.973 361.602l-7.53 9.513M267.842 327.87l4.288-6.435M274.311 313.515l-2.181 7.92M319.506 368.38l-6.795 12.769M413.62 426.746l-7.164 2.972" style="fill:none;stroke:#00ff4a;stroke-width:.999997;stroke-linecap:round;stroke-linejoin:round;stroke-miterlimit:10;stroke-dasharray:none;stroke-opacity:1;visibility:visible"/><path d="m312.86 232.738 5.869 10.322" style="fill:none;stroke:#00ff4a;stroke-width:1.99999;stroke-linecap:round;stroke-linejoin:round;stroke-miterlimit:10;stroke-dasharray:none;stroke-opacity:1;visibility:visible"/><path d="m412.398 417.52 9.478 14.378M438.75 415.972l-7.628 10.83M152.286 270.74l3.247-6.146M157.14 257.253l-1.607 7.34" style="fill:none;stroke:#00ff4a;stroke-width:.999997;stroke-linecap:round;stroke-linejoin:round;stroke-miterlimit:10;stroke-dasharray:none;stroke-opacity:1;visibility:visible"/><path d="m438.75 415.972-7.767 11.994M412.398 417.52l9.374 15.516" style="fill:none;stroke:#00ff4a;stroke-width:.666665;stroke-linecap:round;stroke-linejoin:round;stroke-miterlimit:10;stroke-dasharray:none;stroke-opacity:1;visibility:visible"/><path d="m446.51 271.71-10.41 11.612M446.51 271.71l-1.783 9.615" style="fill:none;stroke:#00ff4a;stroke-width:.999997;stroke-linecap:round;stroke-linejoin:round;stroke-miterlimit:10;stroke-dasharray:none;stroke-opacity:1;visibility:visible"/><path d="m446.51 271.71-1.834 10.805M446.51 271.71l-10.474 12.71" style="fill:none;stroke:#00ff4a;stroke-width:.666665;stroke-linecap:round;stroke-linejoin:round;stroke-miterlimit:10;stroke-dasharray:none;stroke-opacity:1;visibility:visible"/><path d="m334.149 376.8-.827-2.093M335.506 378.182l3.877-.389M342.686 378.546l-1.351-1.476M341.255 362.918l-3.701.497M336.404 366.575l4.578 11.825M405.868 413.258l-.825-2.095M407.226 414.64l3.878-.392M412.978 399.375l-3.703.497M408.124 403.034l4.579 11.821" style="fill:none;stroke:#00ff4a;stroke-width:.666665;stroke-linecap:round;stroke-linejoin:round;stroke-miterlimit:500;stroke-dasharray:none;stroke-opacity:1;visibility:visible"/><path d="m344.277 253.662 8.055 3.098M344.277 253.662l-1.963-1.25" style="fill:none;stroke:#00ff4a;stroke-width:.999997;stroke-linecap:round;stroke-linejoin:round;stroke-miterlimit:500;stroke-dasharray:none;stroke-opacity:1;visibility:visible"/><path d="m352.3 257.803-1.514-1.671M348.636 261.583l-1.092-2.028" style="fill:none;stroke:#00ff4a;stroke-width:.666665;stroke-linecap:round;stroke-linejoin:round;stroke-miterlimit:500;stroke-dasharray:none;stroke-opacity:1;visibility:visible"/><path d="m316.274 332.462-14.419-8.233" style="fill:none;stroke:red;stroke-width:1.99999;stroke-linecap:round;stroke-linejoin:round;stroke-miterlimit:10;stroke-dasharray:none;stroke-opacity:1;visibility:visible"/><path d="m269.626 310.446 2.968-2.211" style="fill:none;stroke:red;stroke-width:.999997;stroke-linecap:round;stroke-linejoin:round;stroke-miterlimit:10;stroke-dasharray:none;stroke-opacity:1;visibility:visible"/><path d="m290.589 490.118-6.222 3.1M269.626 310.446l11.543-2.96" style="fill:none;stroke:red;stroke-width:1.99999;stroke-linecap:round;stroke-linejoin:round;stroke-miterlimit:10;stroke-dasharray:none;stroke-opacity:1;visibility:visible"/><path d="m439.433 405.802-3.53 13.321" style="fill:none;stroke:#00ff4a;stroke-width:1.99999;stroke-linecap:round;stroke-linejoin:round;stroke-miterlimit:10;stroke-dasharray:none;stroke-opacity:1;visibility:visible"/><path d="m317.039 321.992-4.052 11.066M444.676 282.515l-12.021 11.836M187.47 430.375l-3.468-4.947" style="fill:none;stroke:#00ff4a;stroke-width:.999997;stroke-linecap:round;stroke-linejoin:round;stroke-miterlimit:10;stroke-dasharray:none;stroke-opacity:1;visibility:visible"/></svg>