<svg xmlns="http://www.w3.org/2000/svg" baseProfile="full" height="1122.52" preserveAspectRatio="xMinYMin meet" style="width:912px;height:1303px" width="793.701" xml:space="preserve"><path d="M666.441 415.76c-6.43-10.268-12.399-19.913-17.62-28.55-4.333-7.167-11.333-11-20.088-13.404-23.188-6.367-47.68-7.44-71.573-5.279-37.844 3.464-73.227 17.281-104.726 37.904M435.834 598.71l8.068 14.73M448.746 621.955l8.013 17.452c5.44 11.278 16.96 19.278 29.44 20.32 10.401.559 20.64-4.081 28.24-11.363 9.804-10.541 19.59-21.104 29.361-31.679 8.317-8.56 16.237-13.201 27.427-17.521 52.706-20.32 103.106-37.197 158.307-49.279 1.948-.402 3.336-.402 4.003-.069" style="fill:none;stroke:red;stroke-width:1.33333;stroke-linecap:round;stroke-linejoin:round;stroke-miterlimit:4;stroke-dasharray:none;stroke-opacity:1;visibility:visible"/><path d="M732.79 574.699c.362-1.099 1.224-2.492 1.784-3.612l10.077-19.2c2.123-3.842 2.626-9.212.166-12.8-16.841-26.84-38.593-60.583-58.757-92.28" style="fill:none;stroke:red;stroke-width:1.33333;stroke-linecap:round;stroke-linejoin:round;stroke-miterlimit:4;stroke-dasharray:none;stroke-opacity:1;visibility:visible"/><path d="M504.052 481.363c19.976 36.8 44.368 81.55 46.561 85.934 3.56 7.11 6.798 10.13 16.82 6.423 13.717-5.071 46.805-17.271 79.25-27.051 25.907-7.805 67.41-15.919 76.297-18.142 8.887-2.224 3.109-10.67-2.224-17.779-2.766-3.686-20.466-32.08-37.558-59.752M661.956 416.466c-6.444-10.524-11.138-18.247-12.354-20.35-4.888-8.444-11.64-8.459-19.145-9.335-27.024-3.144-107.161 4.736-147.267 25.591-14.11 7.331-8.769 13.568-4.89 21.173 1.244 2.445 4.36 8.277 8.636 16.21M514.644 613.368a5.14 5.14 0 0 0 2.727-1.428c3.614-4.55 6.205-9.689 7.645-15.447.535-2.141.253-4.636-.755-6.603M706.608 559.313l12.526 19.774.08.158c2.639 4 9.916 3.932 12.876.255 2.129-2.663 3.23-5.84 3.47-9.293" style="fill:none;stroke:red;stroke-width:1.33333;stroke-linecap:round;stroke-linejoin:round;stroke-miterlimit:4;stroke-dasharray:none;stroke-opacity:1;visibility:visible"/><path d="M563.321 390.209c-3.333-8.334-13-21.101-21.666-19.767" style="fill:none;stroke:red;stroke-width:.666665;stroke-linecap:round;stroke-linejoin:round;stroke-miterlimit:10;stroke-dasharray:none;stroke-opacity:1;visibility:visible"/><path d="M560.95 390.349c-3.267-8.167-12.74-20.679-21.234-19.371" style="fill:none;stroke:red;stroke-width:.666665;stroke-linecap:round;stroke-linejoin:round;stroke-miterlimit:10;stroke-dasharray:1.99999;stroke-dashoffset:0;stroke-opacity:1;visibility:visible"/><path d="M565.29 389.94c-2.965-7.418-10.804-18.247-18.641-20.163" style="fill:none;stroke:red;stroke-width:.666665;stroke-linecap:round;stroke-linejoin:round;stroke-miterlimit:10;stroke-dasharray:1.99999;stroke-dashoffset:0;stroke-opacity:1;visibility:visible"/><path d="M473.556 420.542c-6-2.667-25.234-1.334-37.234 13.333-6.19 7.565-11.226 15.572-17.623 24.025" style="fill:none;stroke:red;stroke-width:.666665;stroke-linecap:round;stroke-linejoin:round;stroke-miterlimit:10;stroke-dasharray:none;stroke-opacity:1;visibility:visible"/><path d="M473.699 422.615c-5.94-2.64-24.981-1.32-36.861 13.2-5.496 6.715-10.071 13.78-15.524 21.201" style="fill:none;stroke:red;stroke-width:.666665;stroke-linecap:round;stroke-linejoin:round;stroke-miterlimit:10;stroke-dasharray:1.99999;stroke-dashoffset:0;stroke-opacity:1;visibility:visible"/><path d="M474.857 419.122c-6.802-3.358-26.647-2.495-38.887 12.466-6.864 8.388-12.25 17.312-19.551 26.77" style="fill:none;stroke:red;stroke-width:.666665;stroke-linecap:round;stroke-linejoin:round;stroke-miterlimit:10;stroke-dasharray:1.99999;stroke-dashoffset:0;stroke-opacity:1;visibility:visible"/><path d="M646.321 392.208c1.333-2.666 1.333-5.22 1.221-7" style="fill:none;stroke:red;stroke-width:.666665;stroke-linecap:round;stroke-linejoin:round;stroke-miterlimit:10;stroke-dasharray:none;stroke-opacity:1;visibility:visible"/><path d="M645.189 391.02c1.333-2.668 1.333-5.223 1.221-7M647.454 393.172c1.088-2.177 1.29-4.284 1.266-5.95" style="fill:none;stroke:red;stroke-width:.666665;stroke-linecap:round;stroke-linejoin:round;stroke-miterlimit:10;stroke-dasharray:1.99999;stroke-dashoffset:0;stroke-opacity:1;visibility:visible"/><path d="m522.919 474.043-3.784 14.848c-.416 1.652-2.545 2.539-4.745 1.977-2.198-.557-3.638-2.354-3.217-4.002l2.787-10.94" style="fill:none;fill-opacity:1;fill-rule:nonzero;stroke:red;stroke-width:1.33333;visibility:visible"/><path d="M519.135 488.89c-.416 1.653-2.545 2.54-4.746 1.978-2.197-.558-3.637-2.354-3.216-4.004M511.172 486.866l2.656-10.431M522.679 474.983l-3.546 13.91" style="fill:none;stroke:red;stroke-width:.999997;stroke-linecap:round;stroke-linejoin:round;stroke-miterlimit:10;stroke-dasharray:none;stroke-opacity:1;visibility:visible"/><path d="m690.62 434.142-1.367 2.508M689.252 436.65l-6.962 12.75c-.812 1.498-3.09 1.834-5.082.742-1.992-1.083-2.946-3.18-2.128-4.675l3.557-6.519" style="fill:none;fill-opacity:1;fill-rule:nonzero;stroke:red;stroke-width:1.33333;visibility:visible"/><path d="M682.29 449.399c-.812 1.497-3.09 1.833-5.084.743-1.992-1.084-2.944-3.18-2.126-4.675M675.078 445.467l3.558-6.52M689.429 436.323 682.29 449.4" style="fill:none;stroke:red;stroke-width:.999997;stroke-linecap:round;stroke-linejoin:round;stroke-miterlimit:10;stroke-dasharray:none;stroke-opacity:1;visibility:visible"/><path d="M517.479 518.519c-1.083.671-3.066-.56-4.44-2.752-1.366-2.193-1.596-4.517-.516-5.19" style="fill:none;stroke:red;stroke-width:1.33333;stroke-linecap:round;stroke-linejoin:round;stroke-miterlimit:4;stroke-dasharray:none;stroke-opacity:1;visibility:visible"/><path d="M524.288 589.855c-1.367-2.683-4.076-4.396-7.885-2.919-5.771 1.935-10.568 5.004-13.326 9.85a6.645 6.645 0 0 0-.346.69M503.908 606.867a16.747 16.747 0 0 0 1.922 2.712c2.177 2.497 5.826 4.321 8.841 3.758M512.523 510.575c1.081-.672 3.067.56 4.432 2.755 1.37 2.19 1.601 4.513.524 5.188M520.34 605.875c-2.277-.1-4.044-1.122-5.121-3.092" style="fill:none;stroke:red;stroke-width:.666665;stroke-linecap:round;stroke-linejoin:round;stroke-miterlimit:4;stroke-dasharray:none;stroke-opacity:1;visibility:visible"/><path d="M514.61 595.244c.48-1.332 1.292-2.559 2.38-3.673" style="fill:none;stroke:red;stroke-width:.666665;stroke-linecap:round;stroke-linejoin:round;stroke-miterlimit:4;stroke-dasharray:none;stroke-opacity:1;visibility:visible"/><path d="M432.292 470.823a3.461 3.461 0 0 0 1.74-.932c.362-.393.632-.79.906-1.287.632-1.188.997-2.377 1.269-3.764.815-5.178 1.783-12.976 1.708-18.293 0-2.284-.467-3.75-1.107-4.628" style="fill:none;stroke:red;stroke-width:1.33333;stroke-linecap:round;stroke-linejoin:round;stroke-miterlimit:4;stroke-dasharray:none;stroke-opacity:1;visibility:visible"/><path d="M729.594 412.366 482.616 466.28M436.808 441.92c-1.07-1.46-2.63-1.28-3.32-.538-2.628 2.754-4.44 6.322-6.253 9.788-.361.89-.815 1.682-1.177 2.576a17.18 17.18 0 0 0-.99 2.904M425.43 465.654a12.12 12.12 0 0 0 .538 1.248c1.351 2.521 4.047 4.382 6.324 3.921" style="fill:none;stroke:red;stroke-width:.666665;stroke-linecap:round;stroke-linejoin:round;stroke-miterlimit:4;stroke-dasharray:none;stroke-opacity:1;visibility:visible"/><path d="m718.172 429.562-240.997 54.682-3.06-4.644M474.207 464.716l.953-5.896 14.205-3.052M498.939 453.712l224.669-48.264 6.317 6.995-11.752 17.117" style="fill:none;stroke:red;stroke-width:1.33333;stroke-linecap:round;stroke-linejoin:round;stroke-miterlimit:4;stroke-dasharray:none;stroke-opacity:1;visibility:visible"/><path d="m476.045 459.983 4.396 6.219-3.008 17.784" style="fill:none;stroke:red;stroke-width:.666665;stroke-linecap:round;stroke-linejoin:round;stroke-miterlimit:4;stroke-dasharray:none;stroke-opacity:1;visibility:visible"/><path d="M495.972 460.756c-.461 1.18-2.156 1.62-3.79.982-1.625-.632-2.573-2.102-2.11-3.284" style="fill:none;stroke:red;stroke-width:1.33333;stroke-linecap:round;stroke-linejoin:round;stroke-miterlimit:4;stroke-dasharray:none;stroke-opacity:1;visibility:visible"/><path d="M490.072 458.455c.156-.401.459-.716.853-.93M495.699 458.914c.381.593.504 1.254.273 1.842" style="fill:none;stroke:red;stroke-width:.666665;stroke-linecap:round;stroke-linejoin:round;stroke-miterlimit:4;stroke-dasharray:none;stroke-opacity:1;visibility:visible"/><path d="M721.433 411.708c-.464 1.18-2.156 1.62-3.79.982-1.625-.632-2.573-2.102-2.11-3.284" style="fill:none;stroke:red;stroke-width:1.33333;stroke-linecap:round;stroke-linejoin:round;stroke-miterlimit:4;stroke-dasharray:none;stroke-opacity:1;visibility:visible"/><path d="M715.532 409.407c.458-1.172 2.156-1.61 3.788-.973 1.628.63 2.57 2.104 2.113 3.276" style="fill:none;stroke:red;stroke-width:.666665;stroke-linecap:round;stroke-linejoin:round;stroke-miterlimit:4;stroke-dasharray:none;stroke-opacity:1;visibility:visible"/><path d="M475.468 469.222c.505-.18 1.248.628 1.662 1.808.411 1.178.34 2.28-.17 2.46" style="fill:none;stroke:red;stroke-width:.999997;stroke-linecap:round;stroke-linejoin:round;stroke-miterlimit:4;stroke-dasharray:none;stroke-opacity:1;visibility:visible"/><path d="m524.265 452.65-1.218-.31M525.032 452.167l-.768.481M523.045 452.339l-.45-.787" style="fill:none;stroke:red;stroke-width:.999997;stroke-linecap:round;stroke-linejoin:round;stroke-miterlimit:2;stroke-dasharray:none;stroke-opacity:1;visibility:visible"/><path d="M528.072 454.079c-.364 1.443-2.664 2.117-5.13 1.484-2.478-.615-4.188-2.301-3.816-3.744.363-1.453 2.67-2.125 5.137-1.497 2.47.618 4.177 2.304 3.809 3.757" style="fill:none;stroke:red;stroke-width:.999997;stroke-linecap:round;stroke-linejoin:round;stroke-miterlimit:4;stroke-dasharray:none;stroke-opacity:1;visibility:visible"/><path d="m695.722 415.574-.912-.558M696.465 415.374l-.743.2M694.812 415.015l-.17-.748" style="fill:none;stroke:red;stroke-width:.999997;stroke-linecap:round;stroke-linejoin:round;stroke-miterlimit:2;stroke-dasharray:none;stroke-opacity:1;visibility:visible"/><path d="M698.454 417.68c-.653 1.082-2.688 1.055-4.53-.073-1.855-1.117-2.822-2.907-2.16-3.99.654-1.084 2.693-1.057 4.54.067 1.845 1.122 2.812 2.911 2.15 3.996" style="fill:none;stroke:red;stroke-width:.999997;stroke-linecap:round;stroke-linejoin:round;stroke-miterlimit:4;stroke-dasharray:none;stroke-opacity:1;visibility:visible"/><path d="M477.007 465.042c.353-.104.833.486 1.07 1.312.24.833.143 1.584-.21 1.69" style="fill:none;stroke:red;stroke-width:.666665;stroke-linecap:round;stroke-linejoin:round;stroke-miterlimit:4;stroke-dasharray:none;stroke-opacity:1;visibility:visible"/><path d="M470.933 467.847a2.35 2.35 0 0 0 .083.685c.068.226.165.436.3.628M471.316 469.159a.761.761 0 0 0 .274.243M472.488 468.087l4.896-2.345M469.807 476.499l5.262-1.527M470.621 479.32l5.559-1.613M469.345 477.119l.307-.503M469.903 479.044l.527.259M470.012 476.522a.288.288 0 0 0-.205-.024.272.272 0 0 0-.155.117M470.43 479.303a.303.303 0 0 0 .192.017.285.285 0 0 0 .161-.133M470.783 479.187a1.027 1.027 0 0 0 .137-.49M470.92 478.695a2.99 2.99 0 0 0-.53-1.828M470.39 476.868a1.077 1.077 0 0 0-.379-.345M469.337 477.128a.803.803 0 0 0-.097.354M469.239 477.482a2.15 2.15 0 0 0 .38 1.312M469.619 478.794a.761.761 0 0 0 .273.242M470.793 477.722l4.897-2.346M471.504 466.866l5.26-1.527M472.319 469.686l5.554-1.616M471.04 467.486l.31-.503M471.599 469.41l.528.258M471.707 466.888a.283.283 0 0 0-.203-.024.256.256 0 0 0-.154.118M472.127 469.668a.31.31 0 0 0 .193.018.28.28 0 0 0 .16-.134M472.479 469.552c.088-.15.133-.317.14-.49M472.619 469.062a3.03 3.03 0 0 0-.534-1.828M472.085 467.234a1.033 1.033 0 0 0-.377-.346" style="fill:none;stroke:red;stroke-width:.666665;stroke-linecap:round;stroke-linejoin:round;stroke-miterlimit:2;stroke-dasharray:none;stroke-opacity:1;visibility:visible"/><path d="M471.032 467.495a.84.84 0 0 0-.099.353" style="fill:none;stroke:red;stroke-width:.666665;stroke-linecap:round;stroke-linejoin:round;stroke-miterlimit:2;stroke-dasharray:none;stroke-opacity:1;visibility:visible"/><path d="M474.912 475.003c.358-.107.833.487 1.07 1.312.243.83.144 1.584-.209 1.693" style="fill:none;stroke:red;stroke-width:.999997;stroke-linecap:round;stroke-linejoin:round;stroke-miterlimit:4;stroke-dasharray:none;stroke-opacity:1;visibility:visible"/><path d="M726.389 424.046c.003-.003.003-.006.003-.01M726.392 424.036a.77.77 0 0 0 .12-.348M726.512 423.688c.024-.23.008-.462-.042-.688a2.3 2.3 0 0 0-.264-.64M726.206 422.36a.784.784 0 0 0-.26-.265M722.022 424.712l4.09-1.688M728.64 414.034l1.68-.387M726.397 417.562l4.583-1.056M730.524 413.684c-.06-.037-.134-.053-.204-.037M730.98 416.504a.237.237 0 0 0 .164-.118M731.145 416.386c.093-.142.15-.31.167-.482M731.31 415.904a3.028 3.028 0 0 0-.424-1.858M730.886 414.046a1.101 1.101 0 0 0-.361-.362M730.512 413.672l.516.288M731.137 416.4l.341-.485M731.038 413.967c-.005-.003-.008-.007-.01-.007M731.478 415.916c.003-.002.003-.005.003-.01M731.48 415.906a.77.77 0 0 0 .12-.348M731.6 415.558c.024-.23.006-.463-.042-.69a2.3 2.3 0 0 0-.264-.638M731.296 414.23a.784.784 0 0 0-.26-.266M727.11 416.582l4.09-1.688M723.553 422.163l1.68-.387M721.308 425.691l4.584-1.056M725.436 421.815c-.06-.037-.134-.053-.203-.037M725.892 424.635a.237.237 0 0 0 .164-.119M726.056 424.516c.093-.14.15-.31.166-.48M726.222 424.035a3.028 3.028 0 0 0-.424-1.859M725.798 422.176a1.101 1.101 0 0 0-.361-.36M725.422 421.802l.516.288M726.048 424.53l.34-.483M725.949 422.098l-.01-.008" style="fill:none;stroke:red;stroke-width:.666665;stroke-linecap:round;stroke-linejoin:round;stroke-miterlimit:2;stroke-dasharray:none;stroke-opacity:1;visibility:visible"/><path d="M517.39 591.557c3.3.146 5.53 2.23 6.134 6.343.453 3.069-.616 5.739-2.788 7.964" style="fill:none;stroke:red;stroke-width:1.33333;stroke-linecap:round;stroke-linejoin:round;stroke-miterlimit:4;stroke-dasharray:none;stroke-opacity:1;visibility:visible"/><path d="M520.205 595.337c.051-.57.255-.981.595-1.1.68-.237 1.656.79 2.18 2.293.524 1.502.396 2.913-.284 3.15-.359.124-.8-.103-1.215-.567" style="fill:none;stroke:red;stroke-width:.666665;stroke-linecap:round;stroke-linejoin:round;stroke-miterlimit:4;stroke-dasharray:none;stroke-opacity:1;visibility:visible"/><path d="m464.11 494.955.523-1.225c.66-1.978 3.395-2.843 6.092-1.926 2.703.914 4.355 3.258 3.688 5.242l-.52 1.22" style="fill:none;stroke:red;stroke-width:.999997;stroke-linecap:round;stroke-linejoin:round;stroke-miterlimit:4;stroke-dasharray:none;stroke-opacity:1;visibility:visible"/><path d="M557.316 606.468c1.81.117 4.79.052 7.639-1.17 4.52-1.933 97.022-35.236 148.38-47.813 11.797-2.985 13.316-6.731 13.316-6.731M448.746 621.955l-4.844-8.515M443.902 613.44l4.844 8.515M495.699 458.914l-8.763-9.159" style="fill:none;stroke:red;stroke-width:1.33333;stroke-linecap:round;stroke-linejoin:round;stroke-miterlimit:4;stroke-dasharray:none;stroke-opacity:1;visibility:visible"/><path d="m682.29 449.4 8.33-15.258" style="fill:none;fill-opacity:1;fill-rule:nonzero;stroke:red;stroke-width:1.33333;visibility:visible"/><path d="m524.288 589.855-9.069 12.928M730.32 413.647l-.726-1.281M477.873 468.07l4.743-1.79" style="fill:none;stroke:red;stroke-width:.666665;stroke-linecap:round;stroke-linejoin:round;stroke-miterlimit:4;stroke-dasharray:none;stroke-opacity:1;visibility:visible"/><path d="m469.619 478.794 4.496.806M498.939 453.712l-9.574 2.056M489.365 455.768l9.574-2.056" style="fill:none;stroke:red;stroke-width:1.33333;stroke-linecap:round;stroke-linejoin:round;stroke-miterlimit:4;stroke-dasharray:none;stroke-opacity:1;visibility:visible"/><path d="m472.085 467.234 3.96-7.251M486.936 449.755l8.763 9.159" style="fill:none;stroke:red;stroke-width:.666665;stroke-linecap:round;stroke-linejoin:round;stroke-miterlimit:4;stroke-dasharray:none;stroke-opacity:1;visibility:visible"/><path d="m477.873 468.07-2.405 1.152M475.069 474.972l1.891-1.482M690.62 434.142l7.834-16.462" style="fill:none;stroke:red;stroke-width:.999997;stroke-linecap:round;stroke-linejoin:round;stroke-miterlimit:4;stroke-dasharray:none;stroke-opacity:1;visibility:visible"/><path d="m731.2 414.894-9.178 9.818M729.594 412.366l-.954 1.668M725.233 421.776l1.164-4.214M726.112 423.024l.998-6.442M725.892 424.635l-2.339-2.472M718.172 429.562l3.136-3.871" style="fill:none;stroke:red;stroke-width:.666665;stroke-linecap:round;stroke-linejoin:round;stroke-miterlimit:2;stroke-dasharray:none;stroke-opacity:1;visibility:visible"/><path d="M371.442 512.004a9.937 9.937 0 0 1-.352.122c-3.362 1.038-7.362-.8-8.722-4.082-.992-1.921-1.276-3.833-.88-5.758" style="fill:none;stroke:#00ff4a;stroke-width:1.33333;stroke-linecap:round;stroke-linejoin:round;stroke-miterlimit:4;stroke-dasharray:none;stroke-opacity:1;visibility:visible" visibility="hidden"/><path d="M320.465 490.132c-.595.148-1.225-.05-1.691-.352-.484-.476-.81-1.14-1.052-1.81a10.947 10.947 0 0 1-.492-2.303c-.077-.781-.145-1.469-.127-2.165-.033-.346-.086-.862.242-1.07M327.76 281.474c2.127 1.427 4.09 3.816 3.39 6.3-.641 2.221-3.393 3.184-5.816 3.083-2.074-.052-4.037-.719-5.787-1.837-2.017-1.18-3.601-3.262-3.57-5.507" style="fill:none;stroke:#00ff4a;stroke-width:.666665;stroke-linecap:round;stroke-linejoin:round;stroke-miterlimit:4;stroke-dasharray:none;stroke-opacity:1;visibility:visible" visibility="hidden"/><path d="m335.836 406.706-3.176-116.752c-.138-3.092-1.733-6.123-4.25-8.027l-.28-.229c-3.777-2.385-8.821-2.828-12.86-.961-3.449 1.723-5.739 5.576-5.61 9.441l7.643 197.8c.627 6.297 8.63 9.679 14.512 7.526 3.433-1.389 6.313-4.814 6.205-8.546l-.986-36.146" style="fill:none;stroke:#00ff4a;stroke-width:1.33333;stroke-linecap:round;stroke-linejoin:round;stroke-miterlimit:4;stroke-dasharray:none;stroke-opacity:1;visibility:visible" visibility="hidden"/><path d="M317.345 482.432c.42-.13.809.268 1.104.586 2.188 1.872 4.584 5.812 2.016 7.114" style="fill:none;stroke:#00ff4a;stroke-width:1.33333;stroke-linecap:round;stroke-linejoin:round;stroke-miterlimit:4;stroke-dasharray:none;stroke-opacity:1;visibility:visible" visibility="hidden"/><path d="M327.969 284.086c-.462 1.695-2.97 2.484-5.596 1.765-2.628-.718-4.383-2.671-3.923-4.364M320.534 485.562c.459.885.492 1.797.076 2.036-.415.234-1.128-.296-1.587-1.182-.456-.888-.492-1.796-.073-2.034.415-.235 1.125.294 1.584 1.18" style="fill:none;stroke:#00ff4a;stroke-width:.666665;stroke-linecap:round;stroke-linejoin:round;stroke-miterlimit:4;stroke-dasharray:none;stroke-opacity:1;visibility:visible" visibility="hidden"/><path d="M327.657 285.286c-.464 1.694-2.97 2.484-5.6 1.765-2.623-.718-4.381-2.671-3.921-4.364" style="fill:none;stroke:#00ff4a;stroke-width:.666665;stroke-linecap:round;stroke-linejoin:round;stroke-miterlimit:4;stroke-dasharray:none;stroke-opacity:1;visibility:visible" visibility="hidden"/><path d="m318.135 282.687.315-1.2c.46-1.696 2.967-2.485 5.595-1.766 2.632.718 4.385 2.672 3.924 4.365l-.312 1.2" style="fill:none;stroke:#00ff4a;stroke-width:.999997;stroke-linecap:round;stroke-linejoin:round;stroke-miterlimit:4;stroke-dasharray:none;stroke-opacity:1;visibility:visible" visibility="hidden"/><path d="m425.48 566.901-102.12-160.96" style="fill:none;stroke:#00ff4a;stroke-width:.666665;stroke-linecap:round;stroke-linejoin:round;stroke-miterlimit:4;stroke-dasharray:none;stroke-opacity:1;visibility:visible" visibility="hidden"/><path d="m429.587 553.704-64.807-101.32M348.376 426.74l-15.285-23.898M324.037 430.135l39.417 62.823M369.264 502.215l49.694 79.201" style="fill:none;stroke:#00ff4a;stroke-width:1.33333;stroke-linecap:round;stroke-linejoin:round;stroke-miterlimit:4;stroke-dasharray:none;stroke-opacity:1;visibility:visible" visibility="hidden"/><path d="m324.037 430.135-.678-24.193c4.178.456 8.871-1.182 9.732-3.099" style="fill:none;stroke:#00ff4a;stroke-width:.666665;stroke-linecap:round;stroke-linejoin:round;stroke-miterlimit:4;stroke-dasharray:none;stroke-opacity:1;visibility:visible" visibility="hidden"/><path d="M417.176 543.455c-1.081.672-3.065-.56-4.436-2.752-1.369-2.194-1.6-4.516-.52-5.19" style="fill:none;stroke:#00ff4a;stroke-width:1.33333;stroke-linecap:round;stroke-linejoin:round;stroke-miterlimit:4;stroke-dasharray:none;stroke-opacity:1;visibility:visible" visibility="hidden"/><path d="M337.372 418.364c1.071-.716 2.82.022 3.912 1.646 1.094 1.625 1.116 3.524.044 4.242M412.22 535.51c1.083-.67 3.071.56 4.435 2.756 1.37 2.19 1.601 4.514.521 5.187" style="fill:none;stroke:#00ff4a;stroke-width:.666665;stroke-linecap:round;stroke-linejoin:round;stroke-miterlimit:4;stroke-dasharray:none;stroke-opacity:1;visibility:visible" visibility="hidden"/><path d="M341.328 424.252c-1.07.714-2.82-.024-3.912-1.648-1.093-1.622-1.112-3.526-.044-4.24" style="fill:none;stroke:#00ff4a;stroke-width:1.33333;stroke-linecap:round;stroke-linejoin:round;stroke-miterlimit:4;stroke-dasharray:none;stroke-opacity:1;visibility:visible" visibility="hidden"/><path d="M338.968 421.095c-.16.645-.768 1.033-1.36.872-.591-.159-.941-.812-.778-1.455.16-.646.77-1.034 1.36-.87.59.161.937.81.778 1.453M403.912 634.316c-1.45.659-2.972-.856-3.716-2.303-.845-1.793-1.29-4.813.591-5.572" style="fill:none;stroke:#00ff4a;stroke-width:.666665;stroke-linecap:round;stroke-linejoin:round;stroke-miterlimit:4;stroke-dasharray:none;stroke-opacity:1;visibility:visible" visibility="hidden"/><path d="M338.546 418.22c1.312.362 2.082 1.806 1.73 3.232-.245.974-.946 1.683-1.786 1.924" style="fill:none;stroke:#00ff4a;stroke-width:.666665;stroke-linecap:round;stroke-linejoin:round;stroke-miterlimit:4;stroke-dasharray:none;stroke-opacity:1;visibility:visible" visibility="hidden"/><path d="m419.468 581.417-18.833 43.328-.364.847c-1.277 3.968-.008 8.643 3.159 11.263 3.92 3.409 10.356 3.218 14.145-.312.67-.61 1.305-1.295 1.748-2.175l.32-.541 58.05-125.897c1.873-4.566.763-10.246-2.931-13.66-4.479-4.074-11.942-4.24-16.676-.05-1.09.959-1.943 2.243-2.576 3.486l-29.656 69.547" style="fill:none;stroke:#00ff4a;stroke-width:1.33333;stroke-linecap:round;stroke-linejoin:round;stroke-miterlimit:4;stroke-dasharray:none;stroke-opacity:1;visibility:visible" visibility="hidden"/><path d="m425.852 567.253-6.385 14.164" style="fill:none;stroke:#00ff4a;stroke-width:.666665;stroke-linecap:round;stroke-linejoin:round;stroke-miterlimit:4;stroke-dasharray:none;stroke-opacity:1;visibility:visible" visibility="hidden"/><path d="M400.788 626.441c1.295-.216 1.708 1.766 2.268 2.962.834 1.622 2.475 4.077.858 4.913" style="fill:none;stroke:#00ff4a;stroke-width:1.33333;stroke-linecap:round;stroke-linejoin:round;stroke-miterlimit:4;stroke-dasharray:none;stroke-opacity:1;visibility:visible" visibility="hidden"/><path d="M401.63 628.713c.424-.223 1.136.339 1.588 1.258.452.917.48 1.844.06 2.068" style="fill:none;stroke:#00ff4a;stroke-width:.999997;stroke-linecap:round;stroke-linejoin:round;stroke-miterlimit:4;stroke-dasharray:none;stroke-opacity:1;visibility:visible" visibility="hidden"/><path d="M474.412 497.046c-.664 1.978-3.401 2.844-6.101 1.932-2.699-.914-4.351-3.26-3.681-5.248M403.278 632.04c-.422.224-1.134-.341-1.588-1.257-.454-.92-.48-1.844-.06-2.068" style="fill:none;stroke:#00ff4a;stroke-width:.666665;stroke-linecap:round;stroke-linejoin:round;stroke-miterlimit:4;stroke-dasharray:none;stroke-opacity:1;visibility:visible" visibility="hidden"/><path d="M473.892 498.268c-.667 1.982-3.404 2.847-6.099 1.932-2.703-.913-4.351-3.262-3.682-5.244M320.895 486.435l-.814.201M427.936 622.74l-.404.112" style="fill:none;stroke:#00ff4a;stroke-width:.666665;stroke-linecap:round;stroke-linejoin:round;stroke-miterlimit:4;stroke-dasharray:none;stroke-opacity:1;visibility:visible" visibility="hidden"/><path d="M338.267 477.402c.887.893 1.741 2.364 2.313 4.128 1.043 3.217.756 6.193-.64 6.649l-1.928.545M426.086 620.284a12.952 12.952 0 0 1 1.166 2.375c1.206 3.229 1.016 6.28-.43 6.818l-6.132 2.26" style="fill:none;stroke:#00ff4a;stroke-width:1.33333;stroke-linecap:round;stroke-linejoin:round;stroke-miterlimit:4;stroke-dasharray:none;stroke-opacity:1;visibility:visible" visibility="hidden"/><path d="m327.657 285.286.312-1.2M318.135 282.687l.315-1.2" style="fill:none;stroke:#00ff4a;stroke-width:.666665;stroke-linecap:round;stroke-linejoin:round;stroke-miterlimit:4;stroke-dasharray:none;stroke-opacity:1;visibility:visible" visibility="hidden"/><path d="m369.264 502.215-5.81-9.257M363.454 492.958l5.81 9.257" style="fill:none;stroke:#00ff4a;stroke-width:1.33333;stroke-linecap:round;stroke-linejoin:round;stroke-miterlimit:4;stroke-dasharray:none;stroke-opacity:1;visibility:visible" visibility="hidden"/><path d="m320.465 490.132-.384-3.496M420.69 631.737l7.246-8.997" style="fill:none;stroke:#00ff4a;stroke-width:.666665;stroke-linecap:round;stroke-linejoin:round;stroke-miterlimit:4;stroke-dasharray:none;stroke-opacity:1;visibility:visible" visibility="hidden"/><path d="m320.895 486.435 17.117 2.289M427.936 622.74l-7.246 8.997" style="fill:none;stroke:#00ff4a;stroke-width:1.33333;stroke-linecap:round;stroke-linejoin:round;stroke-miterlimit:4;stroke-dasharray:none;stroke-opacity:1;visibility:visible" visibility="hidden"/><path d="m475.468 469.222 15.457-11.697" style="fill:none;stroke:red;stroke-width:.666665;stroke-linecap:round;stroke-linejoin:round;stroke-miterlimit:4;stroke-dasharray:none;stroke-opacity:1;visibility:visible"/><path d="m473.893 498.266.519-1.22M464.11 494.955l.52-1.225" style="fill:none;stroke:#00ff4a;stroke-width:.666665;stroke-linecap:round;stroke-linejoin:round;stroke-miterlimit:4;stroke-dasharray:none;stroke-opacity:1;visibility:visible" visibility="hidden"/><path d="m443.902 613.44-17.816 6.844" style="fill:none;stroke:#00ff4a;stroke-width:1.33333;stroke-linecap:round;stroke-linejoin:round;stroke-miterlimit:4;stroke-dasharray:none;stroke-opacity:1;visibility:visible" visibility="hidden"/></svg>