<svg xmlns="http://www.w3.org/2000/svg" baseProfile="full" height="1122.52" preserveAspectRatio="xMinYMin meet" style="width:912px;height:1303px" width="793.701" xml:space="preserve"><path d="M628.201 775.177c-6.581-10.501-12.684-20.363-18.011-29.177-4.334-7.166-11.334-11-20.087-13.403-23.188-6.367-47.68-7.44-71.575-5.279-37.844 3.464-73.225 17.282-104.722 37.904M347.802 853.94c.61-.332 2 .226 2.653.978 4.13 4.771 6.079 9.2 8.72 14.88l58.96 128.4c5.435 11.278 16.953 19.278 29.435 20.32 10.398.561 20.638-4.079 28.238-11.361a12694.283 12694.283 0 0 0 29.362-31.681c8.32-8.56 16.238-13.2 27.426-17.52 52.707-20.32 103.106-37.198 158.308-49.278 1.948-.404 3.336-.404 4.004-.07" style="fill:none;stroke:red;stroke-width:1.33333;stroke-linecap:round;stroke-linejoin:round;stroke-miterlimit:4;stroke-dasharray:none;stroke-opacity:1;visibility:visible"/><path d="M351.107 855.923c-4.253 2.962-7.581 6.267-10.332 8.675-2.64 2.32-5.041 5.281-8.32 6.32-3.361 1.039-7.361-.8-8.721-4.08-1.984-3.844-1.137-7.647 2.32-11.6 2.89-3.304 8.486-10.067 11.2-13.517 1.018-1.295 2.056-2.391 3.28-3.603a716.12 716.12 0 0 1 2.028-1.996M369.76 810.289c5.205-4.959 10.371-9.972 15.415-15.132 5.895-6.028 7.461-8.492 12.32-15.119 0 0 6.495-8.5 16.243-14.701M694.16 933.49c.36-1.1 1.224-2.492 1.784-3.612l10.076-19.2c2.122-3.841 2.625-9.212.165-12.8-16.973-27.05-38.935-61.113-59.23-93.028" style="fill:none;stroke:red;stroke-width:1.33333;stroke-linecap:round;stroke-linejoin:round;stroke-miterlimit:4;stroke-dasharray:none;stroke-opacity:1;visibility:visible"/><path d="M465.052 839.475c20.044 36.925 44.725 82.203 46.932 86.615 3.559 7.11 6.796 10.13 16.82 6.42 13.717-5.069 46.805-17.269 79.25-27.049 25.906-7.802 67.408-15.919 76.296-18.141 8.888-2.225 3.111-10.67-2.222-17.779-2.783-3.711-20.696-32.448-37.89-60.291M622.878 774.528c-6.213-10.15-10.717-17.566-11.906-19.62-4.888-8.443-11.64-8.46-19.145-9.334-27.024-3.144-107.162 4.736-147.268 25.59-14.109 7.333-8.769 13.569-4.89 21.173 1.431 2.805 5.323 10.07 10.606 19.853M476.012 972.16a5.15 5.15 0 0 0 2.728-1.426c3.615-4.552 6.204-9.69 7.644-15.448.536-2.142.253-4.636-.754-6.604M668.464 918.875l12.038 19.005.083.158c2.636 4 9.913 3.932 12.873.252 2.132-2.662 3.232-5.838 3.474-9.29" style="fill:none;stroke:red;stroke-width:1.33333;stroke-linecap:round;stroke-linejoin:round;stroke-miterlimit:4;stroke-dasharray:none;stroke-opacity:1;visibility:visible"/><path d="M524.69 749c-3.332-8.331-13-21.097-21.665-19.763" style="fill:none;stroke:red;stroke-width:.666665;stroke-linecap:round;stroke-linejoin:round;stroke-miterlimit:10;stroke-dasharray:none;stroke-opacity:1;visibility:visible"/><path d="M522.319 749.142c-3.266-8.166-12.74-20.677-21.232-19.369" style="fill:none;stroke:red;stroke-width:.666665;stroke-linecap:round;stroke-linejoin:round;stroke-miterlimit:10;stroke-dasharray:1.99999;stroke-dashoffset:0;stroke-opacity:1;visibility:visible"/><path d="M526.66 748.733c-2.968-7.419-10.805-18.248-18.644-20.164" style="fill:none;stroke:red;stroke-width:.666665;stroke-linecap:round;stroke-linejoin:round;stroke-miterlimit:10;stroke-dasharray:1.99999;stroke-dashoffset:0;stroke-opacity:1;visibility:visible"/><path d="M434.924 779.334c-6-2.666-25.229-1.333-37.229 13.333-5.904 7.216-10.759 14.836-16.748 22.86M366.736 832.183a145.277 145.277 0 0 1-10.373 9.484c-6.052 5.03-6.816 9.94-5.908 13.024" style="fill:none;stroke:red;stroke-width:.666665;stroke-linecap:round;stroke-linejoin:round;stroke-miterlimit:10;stroke-dasharray:none;stroke-opacity:1;visibility:visible"/><path d="M435.068 781.408c-5.94-2.64-24.976-1.32-36.857 13.2-5.433 6.639-9.97 13.626-15.344 20.959M368.76 832.507a142.736 142.736 0 0 1-11.469 10.611c-5.989 4.976-6.747 9.839-5.848 12.893" style="fill:none;stroke:red;stroke-width:.666665;stroke-linecap:round;stroke-linejoin:round;stroke-miterlimit:10;stroke-dasharray:1.99999;stroke-dashoffset:0;stroke-opacity:1;visibility:visible"/><path d="M436.226 777.913c-6.803-3.357-26.642-2.495-38.882 12.466-6.58 8.043-11.801 16.576-18.656 25.602M364.788 831.923a145.426 145.426 0 0 1-9.32 8.435c-6.172 5.128-6.952 10.141-6.025 13.284" style="fill:none;stroke:red;stroke-width:.666665;stroke-linecap:round;stroke-linejoin:round;stroke-miterlimit:10;stroke-dasharray:1.99999;stroke-dashoffset:0;stroke-opacity:1;visibility:visible"/><path d="M607.69 751c1.334-2.665 1.334-5.22 1.223-7" style="fill:none;stroke:red;stroke-width:.666665;stroke-linecap:round;stroke-linejoin:round;stroke-miterlimit:10;stroke-dasharray:none;stroke-opacity:1;visibility:visible"/><path d="M606.557 749.812c1.333-2.667 1.333-5.222 1.223-7M608.822 751.965c1.09-2.177 1.29-4.285 1.266-5.95" style="fill:none;stroke:red;stroke-width:.666665;stroke-linecap:round;stroke-linejoin:round;stroke-miterlimit:10;stroke-dasharray:1.99999;stroke-dashoffset:0;stroke-opacity:1;visibility:visible"/><path d="M478.847 877.311c-1.083.672-3.067-.56-4.439-2.751-1.367-2.194-1.597-4.517-.517-5.19" style="fill:none;stroke:red;stroke-width:1.33333;stroke-linecap:round;stroke-linejoin:round;stroke-miterlimit:4;stroke-dasharray:none;stroke-opacity:1;visibility:visible"/><path d="M485.657 948.648c-1.366-2.684-4.076-4.396-7.885-2.92-5.772 1.936-10.568 5.004-13.327 9.852-2.291 4.018-.252 9.344 2.752 12.792 2.178 2.496 5.827 4.323 8.843 3.756M473.89 869.369c1.083-.672 3.07.56 4.435 2.754 1.369 2.19 1.6 4.514.522 5.188" style="fill:none;stroke:red;stroke-width:.666665;stroke-linecap:round;stroke-linejoin:round;stroke-miterlimit:4;stroke-dasharray:none;stroke-opacity:1;visibility:visible"/><path d="M481.708 964.668c-3.303-.145-5.533-2.228-6.138-6.34-.453-3.07.617-5.74 2.79-7.965" style="fill:none;stroke:red;stroke-width:.666665;stroke-linecap:round;stroke-linejoin:round;stroke-miterlimit:4;stroke-dasharray:none;stroke-opacity:1;visibility:visible"/><path d="M478.759 950.351c3.301.145 5.531 2.23 6.137 6.341.452 3.071-.616 5.74-2.79 7.966" style="fill:none;stroke:red;stroke-width:1.33333;stroke-linecap:round;stroke-linejoin:round;stroke-miterlimit:4;stroke-dasharray:none;stroke-opacity:1;visibility:visible"/><path d="M484.35 955.322c.522 1.502.394 2.914-.286 3.15-.679.238-1.654-.789-2.179-2.29-.522-1.503-.397-2.915.285-3.152.68-.236 1.655.79 2.18 2.292" style="fill:none;stroke:red;stroke-width:.666665;stroke-linecap:round;stroke-linejoin:round;stroke-miterlimit:4;stroke-dasharray:none;stroke-opacity:1;visibility:visible"/><path d="M517.127 965.547c1.81.119 4.789.053 7.638-1.17 4.52-1.933 97.025-35.237 148.38-47.813 11.8-2.986 13.317-6.731 13.317-6.731" style="fill:none;stroke:red;stroke-width:1.33333;stroke-linecap:round;stroke-linejoin:round;stroke-miterlimit:4;stroke-dasharray:none;stroke-opacity:1;visibility:visible"/><path d="m484.215 833.122-3.712 14.561c-.418 1.651-2.543 2.539-4.744 1.977-2.199-.558-3.639-2.354-3.216-4.003l2.782-10.924" style="fill:none;fill-opacity:1;fill-rule:nonzero;stroke:#00ff4a;stroke-width:1.33333;visibility:visible"/><path d="m484.27 832.906-3.766 14.777" style="fill:none;stroke:#00ff4a;stroke-width:.999997;stroke-linecap:round;stroke-linejoin:round;stroke-miterlimit:10;stroke-dasharray:none;stroke-opacity:1;visibility:visible"/><path d="M475.32 834.754h0" style="fill:none;stroke:#00ff4a;stroke-width:1.33333;stroke-linecap:round;stroke-linejoin:round;stroke-miterlimit:10;stroke-dasharray:none;stroke-opacity:1;visibility:visible"/><path d="M480.503 847.683c-.416 1.651-2.543 2.539-4.744 1.977-2.199-.558-3.639-2.354-3.216-4.003M472.543 845.657l2.777-10.904" style="fill:none;stroke:#00ff4a;stroke-width:.999997;stroke-linecap:round;stroke-linejoin:round;stroke-miterlimit:10;stroke-dasharray:none;stroke-opacity:1;visibility:visible"/><path d="m650.872 794.982-7.212 13.208c-.815 1.497-3.092 1.833-5.086.743-1.99-1.084-2.944-3.18-2.124-4.675l3.612-6.623" style="fill:none;fill-opacity:1;fill-rule:nonzero;stroke:#00ff4a;stroke-width:1.33333;visibility:visible"/><path d="M643.66 808.191c-.814 1.499-3.09 1.834-5.084.743-1.992-1.084-2.944-3.18-2.127-4.674M636.45 804.26l3.73-6.843M650.834 795.05l-7.174 13.14" style="fill:none;stroke:#00ff4a;stroke-width:.999997;stroke-linecap:round;stroke-linejoin:round;stroke-miterlimit:10;stroke-dasharray:none;stroke-opacity:1;visibility:visible"/><path d="M690.964 771.157 443.986 825.07" style="fill:none;stroke:#00ff4a;stroke-width:.666665;stroke-linecap:round;stroke-linejoin:round;stroke-miterlimit:4;stroke-dasharray:none;stroke-opacity:1;visibility:visible"/><path d="m679.541 788.354-240.997 54.681-3.024-4.593M434.023 833.12l.604-3.73M435.542 823.722l.986-6.11 248.448-53.369 6.318 6.994-11.753 17.117" style="fill:none;stroke:#00ff4a;stroke-width:1.33333;stroke-linecap:round;stroke-linejoin:round;stroke-miterlimit:4;stroke-dasharray:none;stroke-opacity:1;visibility:visible"/><path d="m437.415 818.774 4.397 6.219-3.01 17.784" style="fill:none;stroke:#00ff4a;stroke-width:.666665;stroke-linecap:round;stroke-linejoin:round;stroke-miterlimit:4;stroke-dasharray:none;stroke-opacity:1;visibility:visible"/><path d="M457.343 819.547c-.463 1.18-2.157 1.62-3.79.983-1.625-.633-2.573-2.103-2.113-3.285" style="fill:none;stroke:#00ff4a;stroke-width:1.33333;stroke-linecap:round;stroke-linejoin:round;stroke-miterlimit:4;stroke-dasharray:none;stroke-opacity:1;visibility:visible"/><path d="M451.44 817.246c.46-1.173 2.16-1.61 3.79-.973 1.628.63 2.572 2.102 2.113 3.276" style="fill:none;stroke:#00ff4a;stroke-width:.666665;stroke-linecap:round;stroke-linejoin:round;stroke-miterlimit:4;stroke-dasharray:none;stroke-opacity:1;visibility:visible"/><path d="M682.801 770.502c-.463 1.18-2.156 1.619-3.79.982-1.625-.632-2.573-2.104-2.111-3.286" style="fill:none;stroke:#00ff4a;stroke-width:1.33333;stroke-linecap:round;stroke-linejoin:round;stroke-miterlimit:4;stroke-dasharray:none;stroke-opacity:1;visibility:visible"/><path d="M676.901 768.2c.459-1.172 2.156-1.61 3.79-.974 1.625.63 2.57 2.104 2.11 3.278M438.33 832.282c-.504.183-1.247-.636-1.66-1.815-.411-1.174-.335-2.276.167-2.453" style="fill:none;stroke:#00ff4a;stroke-width:.666665;stroke-linecap:round;stroke-linejoin:round;stroke-miterlimit:4;stroke-dasharray:none;stroke-opacity:1;visibility:visible"/><path d="m485.635 811.44-1.219-.306M486.401 810.96l-.766.48M484.416 811.133l-.45-.787" style="fill:none;stroke:#00ff4a;stroke-width:.999997;stroke-linecap:round;stroke-linejoin:round;stroke-miterlimit:2;stroke-dasharray:none;stroke-opacity:1;visibility:visible"/><path d="M489.441 812.87c-.364 1.444-2.664 2.117-5.131 1.485-2.475-.615-4.186-2.3-3.814-3.745.364-1.452 2.67-2.125 5.136-1.497 2.47.62 4.179 2.304 3.81 3.757h-.001" style="fill:none;stroke:#00ff4a;stroke-width:.999997;stroke-linecap:round;stroke-linejoin:round;stroke-miterlimit:4;stroke-dasharray:none;stroke-opacity:1;visibility:visible"/><path d="m657.092 774.368-.912-.558M657.834 774.165l-.742.201M656.181 773.81l-.17-.75" style="fill:none;stroke:#00ff4a;stroke-width:.999997;stroke-linecap:round;stroke-linejoin:round;stroke-miterlimit:2;stroke-dasharray:none;stroke-opacity:1;visibility:visible"/><path d="M438.375 823.834c.355-.104.833.488 1.07 1.313.241.833.144 1.584-.209 1.691M659.825 776.474c-.655 1.08-2.69 1.054-4.532-.074-1.853-1.116-2.821-2.908-2.16-3.99.656-1.085 2.695-1.057 4.54.067 1.847 1.121 2.813 2.912 2.152 3.997" style="fill:none;stroke:#00ff4a;stroke-width:.999997;stroke-linecap:round;stroke-linejoin:round;stroke-miterlimit:4;stroke-dasharray:none;stroke-opacity:1;visibility:visible"/><path d="M430.136 836.557a.792.792 0 0 0-.273-.25" style="fill:none;stroke:#00ff4a;stroke-width:.666665;stroke-linecap:round;stroke-linejoin:round;stroke-miterlimit:2;stroke-dasharray:none;stroke-opacity:1;visibility:visible"/><path d="m430.136 836.557 5.384 1.885M435.542 823.722l-.915 5.668M434.627 829.39l.915-5.668" style="fill:none;stroke:#00ff4a;stroke-width:1.33333;stroke-linecap:round;stroke-linejoin:round;stroke-miterlimit:4;stroke-dasharray:none;stroke-opacity:1;visibility:visible"/><path d="m430.136 836.557 7.279-17.783M434.627 829.39l4.175 13.387M439.236 826.838l-.906 5.444M439.236 826.838l-2.399 1.176" style="fill:none;stroke:#00ff4a;stroke-width:.666665;stroke-linecap:round;stroke-linejoin:round;stroke-miterlimit:4;stroke-dasharray:none;stroke-opacity:1;visibility:visible"/><path d="m436.837 828.014 1.538-4.18M436.837 828.014l2.399-1.176" style="fill:none;stroke:#00ff4a;stroke-width:.999997;stroke-linecap:round;stroke-linejoin:round;stroke-miterlimit:4;stroke-dasharray:none;stroke-opacity:1;visibility:visible"/><path d="m435.52 838.442-5.384-1.885" style="fill:none;stroke:#00ff4a;stroke-width:.666665;stroke-linecap:round;stroke-linejoin:round;stroke-miterlimit:2;stroke-dasharray:none;stroke-opacity:1;visibility:visible"/><path d="m439.236 826.838-5.213 6.282" style="fill:none;stroke:#00ff4a;stroke-width:1.33333;stroke-linecap:round;stroke-linejoin:round;stroke-miterlimit:4;stroke-dasharray:none;stroke-opacity:1;visibility:visible"/></svg>