<svg xmlns="http://www.w3.org/2000/svg" baseProfile="full" height="1122.52" preserveAspectRatio="xMinYMin meet" style="width:912px;height:1303px" width="793.701" xml:space="preserve"><path d="m317.213 581.553-43.315 99.64-1.773 4.123c-2.311 7.177-2.91 14.828-1.962 22.264" style="fill:none;stroke:red;stroke-width:1.99999;stroke-linecap:round;stroke-linejoin:round;stroke-miterlimit:4;stroke-dasharray:none;stroke-opacity:1;visibility:visible"/><path d="M554.039 284.125c-6.691-10.67-12.894-20.69-18.299-29.63-4.332-7.165-11.332-11-20.087-13.401-23.188-6.369-47.68-7.441-71.573-5.28-37.844 3.463-73.224 17.281-104.725 37.903M273.358 362.435c.612-.333 2 .225 2.653.976 4.132 4.772 6.08 9.202 8.72 14.882l48.17 104.92M337.11 492.379l6.57 14.311c5.44 11.28 16.96 19.279 29.44 20.322 10.4.56 20.64-4.081 28.238-11.362a13201.988 13201.988 0 0 0 29.362-31.68c8.318-8.56 16.236-13.2 27.427-17.52 52.705-20.32 103.106-37.198 158.306-49.28 1.948-.402 3.337-.402 4.003-.069" style="fill:none;stroke:red;stroke-width:1.33333;stroke-linecap:round;stroke-linejoin:round;stroke-miterlimit:4;stroke-dasharray:none;stroke-opacity:1;visibility:visible"/><path d="M276.665 364.417c-4.255 2.96-7.582 6.265-10.332 8.673-2.64 2.321-5.043 5.283-8.32 6.321-3.363 1.039-7.363-.8-8.723-4.08-1.98-3.844-1.137-7.646 2.321-11.6 2.89-3.304 8.487-10.066 11.2-13.517 1.019-1.295 2.059-2.39 3.28-3.604.703-.693 1.409-1.389 2.116-2.08M279.55 333.647c6.812-6.436 13.693-12.832 20.463-19.373M338.574 274.29c.234-.155.472-.307.71-.459M619.71 441.984c.36-1.098 1.222-2.492 1.782-3.612l10.078-19.2c2.123-3.84 2.626-9.212.166-12.8-16.852-26.855-38.617-60.622-58.79-92.335M390.799 348.326c8.117 14.957 16.98 31.253 24.792 45.634" style="fill:none;stroke:red;stroke-width:1.33333;stroke-linecap:round;stroke-linejoin:round;stroke-miterlimit:4;stroke-dasharray:none;stroke-opacity:1;visibility:visible"/><path d="M431.463 423.223c3.284 6.081 5.481 10.181 6.07 11.361 3.561 7.11 6.797 10.13 16.821 6.422 13.716-5.07 46.804-17.27 79.25-27.05 25.905-7.805 67.408-15.922 76.296-18.144 8.888-2.224 3.11-10.669-2.224-17.778-2.75-3.665-20.273-31.77-37.279-59.3M549.473 284.726c-6.749-11.02-11.693-19.156-12.95-21.325-4.888-8.443-11.64-8.458-19.146-9.334-27.024-3.145-107.16 4.736-147.267 25.59-14.108 7.333-8.768 13.57-4.89 21.173 1.514 2.967 5.778 10.92 11.53 21.565M401.564 480.654a5.14 5.14 0 0 0 2.727-1.427c3.615-4.552 6.205-9.69 7.645-15.448a9.283 9.283 0 0 0 .262-2.516M593.83 427.075l12.222 19.297.082.159c2.638 4 9.914 3.932 12.876.252 2.13-2.661 3.231-5.839 3.47-9.292" style="fill:none;stroke:red;stroke-width:1.33333;stroke-linecap:round;stroke-linejoin:round;stroke-miterlimit:4;stroke-dasharray:none;stroke-opacity:1;visibility:visible"/><path d="M450.242 257.495c-3.334-8.333-13-21.098-21.667-19.765" style="fill:none;stroke:red;stroke-width:.666665;stroke-linecap:round;stroke-linejoin:round;stroke-miterlimit:10;stroke-dasharray:none;stroke-opacity:1;visibility:visible"/><path d="M447.868 257.635c-3.265-8.165-12.74-20.677-21.232-19.369" style="fill:none;stroke:red;stroke-width:.666665;stroke-linecap:round;stroke-linejoin:round;stroke-miterlimit:10;stroke-dasharray:1.99999;stroke-dashoffset:0;stroke-opacity:1;visibility:visible"/><path d="M452.21 257.228c-2.967-7.42-10.806-18.248-18.643-20.164" style="fill:none;stroke:red;stroke-width:.666665;stroke-linecap:round;stroke-linejoin:round;stroke-miterlimit:10;stroke-dasharray:1.99999;stroke-dashoffset:0;stroke-opacity:1;visibility:visible"/><path d="M360.476 287.829c-2.585-1.15-7.629-1.556-13.49-.472M297.887 335.035c-4.787 4.926-11.496 11.41-15.967 15.127-6.05 5.03-6.815 9.94-5.907 13.024" style="fill:none;stroke:red;stroke-width:.666665;stroke-linecap:round;stroke-linejoin:round;stroke-miterlimit:10;stroke-dasharray:none;stroke-opacity:1;visibility:visible"/><path d="M360.62 289.9c-2.458-1.09-7.15-1.506-12.653-.59M301.962 333.154c-4.022 4.413-13.536 13.821-19.115 18.459-5.989 4.976-6.746 9.837-5.849 12.893M361.778 286.406c-3.048-1.505-8.712-2.161-15.139-1.083" style="fill:none;stroke:red;stroke-width:.666665;stroke-linecap:round;stroke-linejoin:round;stroke-miterlimit:10;stroke-dasharray:1.99999;stroke-dashoffset:0;stroke-opacity:1;visibility:visible"/><path d="M294.209 336.542c-4.35 4.344-9.584 9.317-13.184 12.31-6.172 5.126-6.951 10.139-6.025 13.282" style="fill:none;stroke:red;stroke-width:.666665;stroke-linecap:round;stroke-linejoin:round;stroke-miterlimit:10;stroke-dasharray:1.99999;stroke-dashoffset:0;stroke-opacity:1;visibility:visible"/><path d="M533.241 259.495c1.334-2.665 1.334-5.22 1.222-7" style="fill:none;stroke:red;stroke-width:.666665;stroke-linecap:round;stroke-linejoin:round;stroke-miterlimit:10;stroke-dasharray:none;stroke-opacity:1;visibility:visible"/><path d="M532.108 258.305c1.333-2.667 1.333-5.221 1.221-7M534.373 260.458c1.088-2.177 1.29-4.284 1.267-5.95" style="fill:none;stroke:red;stroke-width:.666665;stroke-linecap:round;stroke-linejoin:round;stroke-miterlimit:10;stroke-dasharray:1.99999;stroke-dashoffset:0;stroke-opacity:1;visibility:visible"/><path d="m409.775 341.575-3.721 14.602c-.418 1.65-2.544 2.538-4.746 1.977-2.197-.557-3.636-2.355-3.216-4.004l2.714-10.653" style="fill:none;fill-opacity:1;fill-rule:nonzero;stroke:red;stroke-width:1.33333;visibility:visible"/><path d="M406.054 356.177c-.416 1.65-2.544 2.538-4.746 1.976-2.197-.558-3.636-2.354-3.216-4.003M398.092 354.151l2.714-10.653M409.775 341.575l-3.721 14.602" style="fill:none;stroke:red;stroke-width:.999997;stroke-linecap:round;stroke-linejoin:round;stroke-miterlimit:10;stroke-dasharray:none;stroke-opacity:1;visibility:visible"/><path d="m576.425 303.469-7.215 13.216c-.813 1.497-3.09 1.833-5.085.741-1.992-1.083-2.945-3.18-2.125-4.675l3.737-6.851" style="fill:none;fill-opacity:1;fill-rule:nonzero;stroke:red;stroke-width:1.33333;visibility:visible"/><path d="M569.21 316.685c-.814 1.497-3.092 1.833-5.086.742-1.991-1.084-2.943-3.18-2.124-4.674M561.999 312.753l3.74-6.854M576.267 303.762l-7.058 12.924" style="fill:none;stroke:red;stroke-width:.999997;stroke-linecap:round;stroke-linejoin:round;stroke-miterlimit:10;stroke-dasharray:none;stroke-opacity:1;visibility:visible"/><path d="M319.215 338.109a3.458 3.458 0 0 0 1.739-.932 6.31 6.31 0 0 0 .905-1.287c.635-1.188.998-2.377 1.271-3.765.813-5.178 1.78-12.975 1.707-18.292 0-2.284-.467-3.751-1.107-4.628" style="fill:none;stroke:red;stroke-width:1.33333;stroke-linecap:round;stroke-linejoin:round;stroke-miterlimit:4;stroke-dasharray:none;stroke-opacity:1;visibility:visible"/><path d="m616.514 279.651-242.572 52.951" style="fill:none;stroke:red;stroke-width:.666665;stroke-linecap:round;stroke-linejoin:round;stroke-miterlimit:4;stroke-dasharray:none;stroke-opacity:1;visibility:visible"/><path d="M382.894 328.042c-.464 1.18-2.158 1.62-3.79.981-1.626-.632-2.574-2.101-2.113-3.283M605.092 296.847l-221.928 50.356M369.003 324.618l.977-.208M369.98 324.409l240.548-51.675 6.317 6.996-11.753 17.116" style="fill:none;stroke:red;stroke-width:1.33333;stroke-linecap:round;stroke-linejoin:round;stroke-miterlimit:4;stroke-dasharray:none;stroke-opacity:1;visibility:visible"/><path d="M376.992 325.74c.46-1.176 2.159-1.61 3.79-.975 1.628.631 2.572 2.102 2.113 3.277" style="fill:none;stroke:red;stroke-width:.666665;stroke-linecap:round;stroke-linejoin:round;stroke-miterlimit:4;stroke-dasharray:none;stroke-opacity:1;visibility:visible"/><path d="M608.353 278.995c-.463 1.18-2.156 1.62-3.79.982-1.625-.632-2.573-2.102-2.11-3.284" style="fill:none;stroke:red;stroke-width:1.33333;stroke-linecap:round;stroke-linejoin:round;stroke-miterlimit:4;stroke-dasharray:none;stroke-opacity:1;visibility:visible"/><path d="M602.452 276.693c.458-1.173 2.156-1.61 3.79-.974 1.625.631 2.569 2.104 2.11 3.276" style="fill:none;stroke:red;stroke-width:.666665;stroke-linecap:round;stroke-linejoin:round;stroke-miterlimit:4;stroke-dasharray:none;stroke-opacity:1;visibility:visible"/><path d="m411.184 319.935-1.218-.309M411.952 319.454l-.768.481M409.966 319.625l-.451-.787" style="fill:none;stroke:red;stroke-width:.999997;stroke-linecap:round;stroke-linejoin:round;stroke-miterlimit:2;stroke-dasharray:none;stroke-opacity:1;visibility:visible"/><path d="M414.991 321.365c-.364 1.442-2.664 2.117-5.13 1.484-2.478-.615-4.188-2.302-3.816-3.744.363-1.455 2.67-2.126 5.137-1.498 2.47.619 4.178 2.304 3.808 3.758h.001" style="fill:none;stroke:red;stroke-width:.999997;stroke-linecap:round;stroke-linejoin:round;stroke-miterlimit:4;stroke-dasharray:none;stroke-opacity:1;visibility:visible"/><path d="m582.641 282.86-.911-.559M583.385 282.66l-.742.2M581.73 282.302l-.168-.748" style="fill:none;stroke:red;stroke-width:.999997;stroke-linecap:round;stroke-linejoin:round;stroke-miterlimit:2;stroke-dasharray:none;stroke-opacity:1;visibility:visible"/><path d="M585.373 284.966c-.653 1.081-2.688 1.055-4.53-.073-1.855-1.118-2.823-2.908-2.16-3.99.654-1.085 2.693-1.057 4.54.067 1.845 1.12 2.812 2.91 2.15 3.996" style="fill:none;stroke:red;stroke-width:.999997;stroke-linecap:round;stroke-linejoin:round;stroke-miterlimit:4;stroke-dasharray:none;stroke-opacity:1;visibility:visible"/><path d="M312.907 124.638c2.126 1.427 4.088 3.815 3.388 6.3-.64 2.222-3.39 3.184-5.814 3.083-2.074-.051-4.038-.719-5.787-1.836-2.019-1.18-3.601-3.263-3.57-5.508" style="fill:none;stroke:red;stroke-width:.666665;stroke-linecap:round;stroke-linejoin:round;stroke-miterlimit:4;stroke-dasharray:none;stroke-opacity:1;visibility:visible"/><path d="m320.983 249.87-3.177-116.752c-.137-3.092-1.732-6.122-4.25-8.026l-.279-.23c-3.779-2.385-8.822-2.828-12.86-.96-3.449 1.722-5.739 5.574-5.611 9.439l7.4 191.499M303.713 334.669c2.6 3.936 8.59 5.701 13.25 3.997a10.496 10.496 0 0 0 2.432-1.396M323.02 332.343l-.84-38.365" style="fill:none;stroke:red;stroke-width:1.33333;stroke-linecap:round;stroke-linejoin:round;stroke-miterlimit:4;stroke-dasharray:none;stroke-opacity:1;visibility:visible"/><path d="M313.115 127.25c-.461 1.695-2.97 2.484-5.595 1.766-2.629-.719-4.383-2.672-3.923-4.364" style="fill:none;stroke:red;stroke-width:.666665;stroke-linecap:round;stroke-linejoin:round;stroke-miterlimit:4;stroke-dasharray:none;stroke-opacity:1;visibility:visible"/><path d="M312.803 128.452c-.463 1.693-2.97 2.484-5.598 1.765-2.626-.719-4.383-2.672-3.923-4.364" style="fill:none;stroke:red;stroke-width:.666665;stroke-linecap:round;stroke-linejoin:round;stroke-miterlimit:4;stroke-dasharray:none;stroke-opacity:1;visibility:visible"/><path d="m303.282 125.852.315-1.2c.46-1.696 2.966-2.485 5.593-1.767 2.633.719 4.387 2.672 3.925 4.365l-.312 1.2" style="fill:none;stroke:red;stroke-width:.999997;stroke-linecap:round;stroke-linejoin:round;stroke-miterlimit:4;stroke-dasharray:none;stroke-opacity:1;visibility:visible"/><path d="m410.624 410.068-102.117-160.96" style="fill:none;stroke:red;stroke-width:.666665;stroke-linecap:round;stroke-linejoin:round;stroke-miterlimit:4;stroke-dasharray:none;stroke-opacity:1;visibility:visible"/><path d="m414.731 396.87-41.148-64.335M373.583 332.535l-55.345-86.527M309.183 273.3l38.103 60.728 7.73 12.319 49.084 78.236" style="fill:none;stroke:red;stroke-width:1.33333;stroke-linecap:round;stroke-linejoin:round;stroke-miterlimit:4;stroke-dasharray:none;stroke-opacity:1;visibility:visible"/><path d="m309.183 273.3-.677-24.195c4.177.457 8.87-1.18 9.732-3.097" style="fill:none;stroke:red;stroke-width:.666665;stroke-linecap:round;stroke-linejoin:round;stroke-miterlimit:4;stroke-dasharray:none;stroke-opacity:1;visibility:visible"/><path d="M402.319 386.62c-1.081.674-3.065-.56-4.436-2.75-1.367-2.195-1.599-4.517-.519-5.192" style="fill:none;stroke:red;stroke-width:1.33333;stroke-linecap:round;stroke-linejoin:round;stroke-miterlimit:4;stroke-dasharray:none;stroke-opacity:1;visibility:visible"/><path d="M322.52 261.529c1.07-.716 2.82.021 3.91 1.645 1.095 1.626 1.116 3.524.045 4.243M397.364 378.677c1.083-.672 3.07.56 4.434 2.753 1.37 2.191 1.601 4.515.521 5.19" style="fill:none;stroke:red;stroke-width:.666665;stroke-linecap:round;stroke-linejoin:round;stroke-miterlimit:4;stroke-dasharray:none;stroke-opacity:1;visibility:visible"/><path d="M326.475 267.417c-1.07.713-2.82-.024-3.912-1.648-1.093-1.623-1.112-3.527-.043-4.24" style="fill:none;stroke:red;stroke-width:1.33333;stroke-linecap:round;stroke-linejoin:round;stroke-miterlimit:4;stroke-dasharray:none;stroke-opacity:1;visibility:visible"/><path d="M324.115 264.26c-.161.647-.768 1.035-1.361.874-.59-.16-.939-.814-.777-1.456.16-.647.769-1.035 1.36-.87.59.159.937.809.778 1.452M459.559 340.211c-.664 1.979-3.401 2.844-6.101 1.932-2.7-.913-4.35-3.26-3.68-5.246M410.996 410.42l-6.385 14.162" style="fill:none;stroke:red;stroke-width:.666665;stroke-linecap:round;stroke-linejoin:round;stroke-miterlimit:4;stroke-dasharray:none;stroke-opacity:1;visibility:visible"/><path d="M323.691 261.386c1.312.361 2.083 1.805 1.73 3.232-.243.973-.946 1.683-1.784 1.924M459.039 341.433c-.667 1.981-3.404 2.846-6.099 1.932-2.704-.915-4.352-3.263-3.682-5.245" style="fill:none;stroke:red;stroke-width:.666665;stroke-linecap:round;stroke-linejoin:round;stroke-miterlimit:4;stroke-dasharray:none;stroke-opacity:1;visibility:visible"/><path d="m449.256 338.12.522-1.222c.66-1.98 3.396-2.845 6.092-1.928 2.704.913 4.356 3.257 3.689 5.241l-.521 1.222" style="fill:none;stroke:red;stroke-width:.999997;stroke-linecap:round;stroke-linejoin:round;stroke-miterlimit:4;stroke-dasharray:none;stroke-opacity:1;visibility:visible"/><path d="M442.767 474.138c1.81.12 4.79.054 7.639-1.17 4.52-1.934 97.02-35.237 148.377-47.814 11.797-2.986 13.317-6.73 13.317-6.73" style="fill:none;stroke:red;stroke-width:1.33333;stroke-linecap:round;stroke-linejoin:round;stroke-miterlimit:4;stroke-dasharray:none;stroke-opacity:1;visibility:visible"/><path d="M305.426 333.33c-.593.148-1.224-.05-1.69-.352a3.538 3.538 0 0 1-.576-.76M302.082 327.6a10.207 10.207 0 0 1-.019-.9c-.033-.348-.085-.863.243-1.072" style="fill:none;stroke:red;stroke-width:.666665;stroke-linecap:round;stroke-linejoin:round;stroke-miterlimit:4;stroke-dasharray:none;stroke-opacity:1;visibility:visible"/><path d="M302.306 325.629c.421-.131.81.268 1.104.585 2.188 1.873 4.584 5.813 2.016 7.115" style="fill:none;stroke:red;stroke-width:1.33333;stroke-linecap:round;stroke-linejoin:round;stroke-miterlimit:4;stroke-dasharray:none;stroke-opacity:1;visibility:visible"/><path d="M389.071 477.408c-1.03.468-2.1-.161-2.899-1.084M303.62 328.357c-.016-.37.08-.658.29-.778.416-.233 1.127.295 1.585 1.181.459.885.492 1.797.076 2.037-.206.116-.488.042-.776-.171" style="fill:none;stroke:red;stroke-width:.666665;stroke-linecap:round;stroke-linejoin:round;stroke-miterlimit:4;stroke-dasharray:none;stroke-opacity:1;visibility:visible"/><path d="m404.624 424.51-18.832 43.328-.364.846a10.46 10.46 0 0 0-.488 2.99M385.755 476.038c.619 1.51 1.576 2.872 2.832 3.91 3.921 3.41 10.355 3.219 14.144-.312.67-.61 1.304-1.294 1.747-2.174l.321-.542 58.05-125.897c1.873-4.565.764-10.245-2.931-13.658-4.479-4.076-11.942-4.24-16.676-.052-1.09.96-1.943 2.244-2.576 3.486l-29.656 69.548" style="fill:none;stroke:red;stroke-width:1.33333;stroke-linecap:round;stroke-linejoin:round;stroke-miterlimit:4;stroke-dasharray:none;stroke-opacity:1;visibility:visible"/><path d="M385.946 469.535c1.294-.216 1.708 1.765 2.268 2.961.833 1.624 2.474 4.078.856 4.914" style="fill:none;stroke:red;stroke-width:1.33333;stroke-linecap:round;stroke-linejoin:round;stroke-miterlimit:4;stroke-dasharray:none;stroke-opacity:1;visibility:visible"/><path d="M386.787 471.807c.424-.224 1.136.339 1.588 1.257.453.918.48 1.844.06 2.068" style="fill:none;stroke:red;stroke-width:.999997;stroke-linecap:round;stroke-linejoin:round;stroke-miterlimit:4;stroke-dasharray:none;stroke-opacity:1;visibility:visible"/><path d="M388.436 475.132c-.296.158-.73-.072-1.122-.537" style="fill:none;stroke:red;stroke-width:.666665;stroke-linecap:round;stroke-linejoin:round;stroke-miterlimit:4;stroke-dasharray:none;stroke-opacity:1;visibility:visible"/><path d="m598.598 398.462 5.582-2.058" style="fill:none;stroke:red;stroke-width:1.33333;stroke-linecap:round;stroke-linejoin:round;stroke-miterlimit:4;stroke-dasharray:none;stroke-opacity:1;visibility:visible"/><path d="m355.786 337.851.262 1.37M354.947 337.305l.839.545M356.05 339.22l-.583.82" style="fill:none;stroke:red;stroke-width:.999997;stroke-linecap:round;stroke-linejoin:round;stroke-miterlimit:2;stroke-dasharray:none;stroke-opacity:1;visibility:visible"/><path d="M355.452 333.354c1.62-.305 3.378 1.69 3.886 4.475.541 2.774-.359 5.284-1.99 5.584-1.63.31-3.38-1.695-3.9-4.475-.53-2.775.365-5.281 2.003-5.584h.001" style="fill:none;stroke:red;stroke-width:.999997;stroke-linecap:round;stroke-linejoin:round;stroke-miterlimit:4;stroke-dasharray:none;stroke-opacity:1;visibility:visible"/><path d="m337.11 492.379-4.209-9.166M332.901 483.213l4.209 9.166M279.55 333.647l-11.343 10.883M294.209 336.542l-14.659-2.895M373.583 332.535l3.167-10.14" style="fill:none;stroke:red;stroke-width:1.33333;stroke-linecap:round;stroke-linejoin:round;stroke-miterlimit:4;stroke-dasharray:none;stroke-opacity:1;visibility:visible"/><path d="m279.55 333.647 18.337 1.388" style="fill:none;stroke:red;stroke-width:.666665;stroke-linecap:round;stroke-linejoin:round;stroke-miterlimit:10;stroke-dasharray:none;stroke-opacity:1;visibility:visible"/><path d="m279.55 333.647 14.659 2.895" style="fill:none;stroke:red;stroke-width:.666665;stroke-linecap:round;stroke-linejoin:round;stroke-miterlimit:10;stroke-dasharray:1.99999;stroke-dashoffset:0;stroke-opacity:1;visibility:visible"/><path d="m312.803 128.45.312-1.2M303.282 125.852l.315-1.2M459.038 341.433l.521-1.222M449.256 338.12l.522-1.223" style="fill:none;stroke:red;stroke-width:.666665;stroke-linecap:round;stroke-linejoin:round;stroke-miterlimit:4;stroke-dasharray:none;stroke-opacity:1;visibility:visible"/><path d="m388.436 475.132-1.649-3.325M369.98 324.41l-14.528 8.944" style="fill:none;stroke:red;stroke-width:.999997;stroke-linecap:round;stroke-linejoin:round;stroke-miterlimit:4;stroke-dasharray:none;stroke-opacity:1;visibility:visible"/><path d="m644.641 347.431 13.65-15.494" style="fill:none;stroke:#00ff4a;stroke-width:.666665;stroke-linecap:round;stroke-linejoin:round;stroke-miterlimit:4;stroke-dasharray:none;stroke-opacity:1;visibility:visible"/><path d="m658.292 331.935 58.628-66.549c.588-.719 1.885-1.753 2.746-2.176 4.36-2.136 9.975-.52 12.938 3.329 2.758 3.467 2.669 8.787-.029 12.295L626.36 396.436M616.244 379.662l28.398-32.23" style="fill:none;stroke:#00ff4a;stroke-width:1.33333;stroke-linecap:round;stroke-linejoin:round;stroke-miterlimit:4;stroke-dasharray:none;stroke-opacity:1;visibility:visible"/><path d="M731.826 267.273c-.666 1.32-2.964 1.502-5.13.404-2.167-1.099-3.383-3.067-2.714-4.387" style="fill:none;stroke:#00ff4a;stroke-width:.666665;stroke-linecap:round;stroke-linejoin:round;stroke-miterlimit:4;stroke-dasharray:none;stroke-opacity:1;visibility:visible"/><path d="m723.389 264.5.593-1.21c.664-1.319 2.962-1.499 5.13-.403 2.166 1.1 3.381 3.066 2.715 4.386l-.591 1.205" style="fill:none;stroke:#00ff4a;stroke-width:.999997;stroke-linecap:round;stroke-linejoin:round;stroke-miterlimit:4;stroke-dasharray:none;stroke-opacity:1;visibility:visible"/><path d="M584.932 91.32c1.197 1.276 2.424 2.979 1.773 4.643-.648 1.662-2.93 1.912-4.742 1.526a11.628 11.628 0 0 1-4.503-2.237c-1.173-.937-2.195-2.143-2.643-3.643M731.236 268.478c-.672 1.323-2.967 1.505-5.131.407-2.17-1.102-3.383-3.066-2.716-4.386" style="fill:none;stroke:#00ff4a;stroke-width:.666665;stroke-linecap:round;stroke-linejoin:round;stroke-miterlimit:4;stroke-dasharray:none;stroke-opacity:1;visibility:visible"/><path d="m561.239 198.112 26.024-98.927c.647-2.857.03-5.794-2.113-7.88-.77-.745-1.826-1.542-2.742-1.955-4.623-2.09-12.039-.295-13.618 5.098l-38.483 152.324M543.668 266.153l9.527-36.883" style="fill:none;stroke:#00ff4a;stroke-width:1.33333;stroke-linecap:round;stroke-linejoin:round;stroke-miterlimit:4;stroke-dasharray:none;stroke-opacity:1;visibility:visible"/><path d="M584.679 92.945c-.591 1.14-2.667 1.24-4.634.219-1.965-1.021-3.072-2.774-2.481-3.914" style="fill:none;stroke:#00ff4a;stroke-width:.666665;stroke-linecap:round;stroke-linejoin:round;stroke-miterlimit:4;stroke-dasharray:none;stroke-opacity:1;visibility:visible"/><path d="M584.053 94.2c-.593 1.139-2.67 1.237-4.633.219-1.965-1.024-3.072-2.774-2.481-3.914" style="fill:none;stroke:#00ff4a;stroke-width:.666665;stroke-linecap:round;stroke-linejoin:round;stroke-miterlimit:4;stroke-dasharray:none;stroke-opacity:1;visibility:visible"/><path d="m576.939 90.505.625-1.254c.599-1.142 2.675-1.241 4.64-.221 1.961 1.022 3.068 2.774 2.475 3.916l-.626 1.254" style="fill:none;stroke:#00ff4a;stroke-width:.999997;stroke-linecap:round;stroke-linejoin:round;stroke-miterlimit:4;stroke-dasharray:none;stroke-opacity:1;visibility:visible"/><path d="m661.925 326.798-101.43-128.38" style="fill:none;stroke:#00ff4a;stroke-width:1.33333;stroke-linecap:round;stroke-linejoin:round;stroke-miterlimit:4;stroke-dasharray:none;stroke-opacity:1;visibility:visible"/><path d="M548.017 221.522a.768.768 0 0 1-.013-.374l5.313-22.503c1.555.565 6.053.588 6.77-.443M657.578 331.5 553.6 198.928" style="fill:none;stroke:#00ff4a;stroke-width:.666665;stroke-linecap:round;stroke-linejoin:round;stroke-miterlimit:4;stroke-dasharray:none;stroke-opacity:1;visibility:visible"/><path d="m644.324 346.962-38.287-49.819M589.756 275.96l-41.604-54.137a1.15 1.15 0 0 1-.136-.299" style="fill:none;stroke:#00ff4a;stroke-width:1.33333;stroke-linecap:round;stroke-linejoin:round;stroke-miterlimit:4;stroke-dasharray:none;stroke-opacity:1;visibility:visible"/><path d="M571.09 215.38c-.584.52-2.01-.12-3.176-1.432-1.166-1.314-1.642-2.798-1.062-3.316" style="fill:none;stroke:#00ff4a;stroke-width:.999997;stroke-linecap:round;stroke-linejoin:round;stroke-miterlimit:4;stroke-dasharray:none;stroke-opacity:1;visibility:visible"/><path d="M566.852 210.632c.583-.522 2.008.12 3.175 1.432 1.166 1.313 1.645 2.8 1.062 3.316M643.85 308.582c.755-.59 2.558.453 4.027 2.328 1.468 1.877 2.044 3.875 1.285 4.467" style="fill:none;stroke:#00ff4a;stroke-width:.666665;stroke-linecap:round;stroke-linejoin:round;stroke-miterlimit:4;stroke-dasharray:none;stroke-opacity:1;visibility:visible"/><path d="M567.47 210.577c.542.336.952 1.027 1.022 1.857a2.595 2.595 0 0 1-.356 1.61" style="fill:none;stroke:#00ff4a;stroke-width:.666665;stroke-linecap:round;stroke-linejoin:round;stroke-miterlimit:4;stroke-dasharray:none;stroke-opacity:1;visibility:visible"/><path d="M649.162 315.377c-.754.588-2.557-.454-4.028-2.331-1.464-1.872-2.042-3.872-1.284-4.464" style="fill:none;stroke:#00ff4a;stroke-width:.999997;stroke-linecap:round;stroke-linejoin:round;stroke-miterlimit:4;stroke-dasharray:none;stroke-opacity:1;visibility:visible"/><path d="m731.236 268.478.59-1.205M723.389 264.5l.593-1.21M584.053 94.2l.626-1.255M576.939 90.505l.625-1.255M560.087 198.202l8.049 15.842" style="fill:none;stroke:#00ff4a;stroke-width:.666665;stroke-linecap:round;stroke-linejoin:round;stroke-miterlimit:4;stroke-dasharray:none;stroke-opacity:1;visibility:visible"/></svg>