<svg xmlns="http://www.w3.org/2000/svg" baseProfile="full" height="1122.52" preserveAspectRatio="xMinYMin meet" style="width:912px;height:1246px" width="793.701" xml:space="preserve"><path d="m418.192 97.139.092-.014.096-.013.064-.027.042-.013.04-.027M407.324 98.659l.08.013.107.013h.253l.147-.013.147-.013.132-.014.134-.013M407.324 98.659l-6.08-2.48M419.458 349.685l-2.986 18.933M420.284 343.125l-.12 1.12-.12 1.12-.132 1.093-.148 1.08-.146 1.08-.16 1.067M421.404 324.058l-1.12 19.067M421.246 320.978l.066 1.04.054 1.013.038 1.027M418.618 275.765l2.628 45.213M418.192 97.139l-9.866 1.493 4.48 77.013 4.638 79.84M414.551 316.098l.013.027.016.013.024.013.014.027.026.027M401.139 96.125l.013.027h.04l.054.027M411.579 93.887h.039l.041.013M500.404 132.193l-.133.04-.132.067-.107.093-.107.12-.094.133-.066.16-.054.16-.012.16M507.657 136.352l.12.026.134.054.146.026.16.014.16.013h.16l.16-.013.134-.014M500.404 132.193l-.092-.027M499.539 133.005l.04.027.04.053.08.04M519.457 134.498v-.146l-.013-.147-.025-.147-.042-.133-.053-.133-.065-.12-.082-.094-.08-.066-.093-.054M510.965 130.285h-.014l-.054-.027M519.457 134.498l.107-.026.093-.027.067-.04.04-.04.013-.053M510.965 130.285h.015l.077-.013h.043l.052.013M511.164 130.285l.013.013M511.205 130.298l.015.014M519.192 133.458h-.188M507.657 136.352l-7.96-3.227" style="fill:none;stroke:red;stroke-width:.999997;stroke-linecap:round;stroke-linejoin:round;stroke-miterlimit:4;stroke-dasharray:none;stroke-opacity:1;visibility:visible" visibility="hidden"/><path d="m519.457 134.498-10.626 1.96-16.919 213.733-3.427 43.307M482.39 365.138l-11.757-8.348-46.189-32.732M430.872 342.445l-.081-.095-.079-.092-.08-.068-.08-.052-.066-.028-.028-.012h-.026M430.419 342.098l-.029-.013M493.632 212.925l-79-37.387M488.765 374.205 388.672 406.75M370.604 334.151l-1.706.52-1.694.534-1.693.545-1.68.548-1.667.573-1.653.587-1.64.587-1.64.613-1.613.627-1.614.625-1.586.655-1.588.64-1.559.665-1.573.695-1.534.693-1.532.707-1.52.705-1.495.735-1.493.745-1.466.748-1.468.76-1.439.772M419.684 324.818l-1.906.2-1.906.187-1.892.213-1.894.213-1.894.24-1.88.254-1.88.24-1.868.28-1.864.28-1.869.305-1.852.308-1.84.32-1.84.333-1.827.347-1.826.373-1.827.374M497.192 252.645l-106.628 27M498.765 240.365l-108.013 26.56M294.991 111.979l.014.026.013.015.04.012M301.458 114.805l-.133.015-.16.025h-.147l-.145.015h-.255l-.108-.015-.079-.025M313.018 112.979l-.013.026-.04.027-.066.013-.08.027-.106.027-.134.026M295.058 112.032l5.372 2.787M323.285 402.698l.014-.188 1.906-24.745M325.206 377.765l.08-1.095.064-1.105.07-1.12.053-1.135.037-1.145.03-1.16M325.54 371.005l-.095-19.747M325.54 371.005l1-.295M325.445 351.258l-.095-1.053-.104-1.08-.107-1.08M325.14 348.045l-14.175-139.6-9.507-93.64M301.458 114.805l11.121-1.68M307.071 109.565l-.013-.013-.04-.013M307.005 109.539l-.027-.014M306.951 109.527l-.038-.014M306.885 109.512l-.12.013M306.685 109.499l.028.013.025.013h.015M318.98 342.645l.08.105M384.271 153.125h.013l.134-.013.092.013.041.013h.013l.04.014.04.013.014.013M392.366 157.698l-.016.04-.038.054-.066.053-.08.027-.106.04-.12.026M384.271 153.125h-.013l-.068-.027h-.026M372.004 155.338l-.066-.026h-.079M379.564 160.205l-.16.027-.173.013h-.173l-.174-.013-.173-.027-.147-.027-.133-.04-.093-.053M371.246 156.338l-.068-.053-.039-.04-.015-.053M371.246 156.338l7.092 3.747M377.498 430.898l2.066-270.693M379.564 160.205l12.374-2.267M428.299 344.258l.105-2.828M431.55 343.618v-.027M427.498 347.698l-.094.012-.08.015-.078-.015-.068-.012h-.028l-.066-.013-.053-.04M427.859 347.58l-.361.12M432.192 346.698l-.014.012M431.604 343.631l-.106.067-.08.067-.08.08M431.684 343.591l-.08.04M428.178 341.045l-.08.053-.094.053-.092.067-.081.08M432.058 343.365h.08M428.938 341.098h.052l.04.012M430.806 342.405l-.082-.067-.078-.053-.082-.055-.064-.039-.056-.053-.064-.053M428.83 346.553l.083-.08.053-.08.024-.08v-.094l-.024-.079-.054-.094-.068-.08-.106-.08-.106-.067-.134-.053-.148-.053-.158-.04-.161-.027h-.172l-.175-.013-.173.013-.161.027-.146.04-.133.053-.121.053-.106.067-.08.08-.053.08-.027.08-.013.08.027.093.04.081.066.093M411.671 93.899h.135M411.859 93.899l.013.013M417.951 96.459l.067.08.052.093.041.12.04.12.027.133.014.135" style="fill:none;stroke:red;stroke-width:.999997;stroke-linecap:round;stroke-linejoin:round;stroke-miterlimit:4;stroke-dasharray:none;stroke-opacity:1;visibility:visible" visibility="hidden"/><path d="m427.11 347.658.03.012.024.015.014.013h.226l.027-.013h.027l.348-.12M432.152 343.365h-.012l-1.254-.907M430.872 342.445l-.066-.04M428.192 341.045h-.014l-.014-.015M427.806 341.271l.013.014.015.013M428.259 341.031l-.04-.013M425.206 344.365h.013l.027.013M424.312 344.991h.028l.039.014M423.844 345.151l.028.027M431.604 343.591l.028-.013.052.012M431.699 343.378l-.053.04-.04.04-.042.067-.012.053M431.564 343.618l.04.012M431.299 343.818l.013.012.026.015M427.806 347.565h.028l.025.013M427.458 347.685l.04.013M427.11 347.658l-.026-.013h-.066M431.579 343.591h-.029v-.013M428.299 344.258v.067l.028.053.023.052.04.055M429.844 345.538l-1.453-1.053-3.812 1.293M325.738 352.086l44.666 51.24M430.432 342.098l.028.012h.026M432.152 343.365l.04.053.054.04.013.027M431.592 343.591h.014" style="fill:none;stroke:red;stroke-width:.999997;stroke-linecap:round;stroke-linejoin:round;stroke-miterlimit:4;stroke-dasharray:none;stroke-opacity:1;visibility:visible" visibility="hidden"/><path d="M431.539 343.618h.028v-.013l.012-.015h.013M431.284 343.818h.016l.024-.04.042-.04.038-.04.04-.028.054-.025.04-.027" style="fill:none;stroke:red;stroke-width:.999997;stroke-linecap:round;stroke-linejoin:round;stroke-miterlimit:4;stroke-dasharray:none;stroke-opacity:1;visibility:visible" visibility="hidden"/><path d="m427.806 347.565.092-.04.106-.055.107-.052.108-.068.107-.079.093-.08.091-.093.096-.08.078-.093 1.16-1.387.148-.173 1.292-1.547M311.713 195.765l59.173 44.213" style="fill:none;stroke:red;stroke-width:.999997;stroke-linecap:round;stroke-linejoin:round;stroke-miterlimit:4;stroke-dasharray:none;stroke-opacity:1;visibility:visible" visibility="hidden"/><path d="M493.884 236.913h.053l.054.013.066.027M319.325 364.925l-1.787 39.185M294.991 111.979l23.987 230.666M294.991 111.979v-.2l.014-.014v-.053l.013-.013v-.027l.012-.013v-.014h.015v-.053h.013v-.027l.012-.013v-.013h.015v-.027l.013-.013v-.014h.012v-.013l.015-.013.013-.014v-.013l.012-.013.015-.014h.013v-.025h.012v-.015h.015v-.013h.013l.012-.013.015-.014.013-.013h.012v-.013h.015v-.014l.013-.013h.012v-.013h.028l.012-.014.028-.013h.012v-.013l.015-.014h.04v-.013h.025l.015-.013h.025l.015-.014h.013l.012-.013h.081M307.111 109.58l5.469 2.76M312.58 112.339h.012l.014.013h.012v.013h.028l.013.015h.012v.012l.014.013h.014l.014.015.012.012v.013h.013l.015.015.013.012h.012v.013h.012v.015l.016.012.013.013h.012v.015h.014v.025h.014v.015l.014.012.012.013v.015l.013.012v.013h.015v.015l.013.012v.013h.013v.027h.012v.04h.015v.027l.013.013v.027h.014v.053l.012.013v.055l.013.012v.027M323.018 216.352l12.188 125.906.012.16.255 2.547M313.018 112.979l8.04 83.106M335.472 344.965v.065l.014.041v.027l.014.027v.16l.011.025v.135l.015.04v.093l.013.027v.133l.013.027v.093l.012.027v.133l.016.027v.133l.012.027v.04l.014.013v.2l.012.027v.133l.014.027v.093l.014.027v.133l.013.027v.133l.012.027v.12l.013.04v.12l.016.04v.12l.012.04v.12l.012.025v.135l.014.025v.135l.014.025v.095M335.752 348.138v.292l-.014 5.975M306.658 109.499h.067v-.014h.105v.015h.055v.012h.065v.013h.055v.015h.053v.012h.012v.013h.028v.015h.012M295.633 111.152l11.027-1.653M319.325 364.925l.053-1.107.04-1.12.027-1.12.025-1.133.028-1.147v-3.493l-.013-1.187-.027-1.2-.028-1.213-.025-1.215-.04-1.225-.055-1.175-.039-1.172-.066-1.173-.067-1.2-.08-1.187-.08-1.213M335.752 348.125v.013M391.872 156.872l-.12-.054-7.08-3.64M391.872 156.872h.028l.012.013v.013h.028v.014h.012l.014.013h.013l.013.013h.014v.014l.012.013.014.013h.014l.013.014v.013h.012v.013h.015l.013.014h.013v.013h.012v.013l.016.014.012.013.014.013v.014h.012v.026h.014v.014h.014v.013l.013.013v.014l.015.013h.012v.027l.013.013.013.013v.027l.014.013v.014l.013.013v.027h.013v.026l.014.014v.04l.013.013v.04h.012v.093h.015v.12M384.124 153.098h.04v-.013h.227v.013h.067l.014.014h.039v.013h.053v.013h.028l.012.014h.028l.014.013h.012v.013h.012M384.124 153.098l-12.264 2.214M371.124 156.193v-.093l.016-.014v-.066l.012-.014v-.053l.012-.013v-.014l.014-.013v-.04l.014-.013v-.027l.014-.013.012-.014v-.026l.012-.014.016-.013v-.013l.013-.014.012-.013v-.013l.013-.014v-.013l.016-.013v-.014h.012v-.013l.012-.013.014-.014.012-.013.016-.013.012-.014.012-.026h.014l.016-.014.011-.013.013-.013.014-.014h.014v-.013h.014l.012-.013.012-.014h.016l.013-.013.012-.013h.013l.016-.014h.012l.012-.013.014-.013h.014l.014-.014h.024l.014-.013h.027l.013-.013h.04v-.014h.014l.012-.013h.07" style="fill:none;stroke:red;stroke-width:1.99999;stroke-linecap:round;stroke-linejoin:round;stroke-miterlimit:4;stroke-dasharray:none;stroke-opacity:1;visibility:visible" visibility="hidden"/><path d="m497.819 252.485-.147.04-.48.12M497.819 252.485l.12-1.453M497.937 251.032l.827-10.667M498.457 239.618l.054.054.068.053.053.08.039.08M498.67 239.886l.055.12.027.12.012.134v.106M498.457 239.618l-4.4-2.666" style="fill:none;stroke:red;stroke-width:.999997;stroke-linecap:round;stroke-linejoin:round;stroke-miterlimit:4;stroke-dasharray:none;stroke-opacity:1;visibility:visible" visibility="hidden"/><path d="m493.884 236.913-1.893.467-.174.04-64.851 15.76-.322.08-9.2 2.24-.933.226-5.467 1.32-.093.027-20.12 4.893" style="fill:none;stroke:red;stroke-width:1.99999;stroke-linecap:round;stroke-linejoin:round;stroke-miterlimit:4;stroke-dasharray:none;stroke-opacity:1;visibility:visible" visibility="hidden"/><path d="m419.338 323.951.052.054.04.053.054.067.042.065.024.068.041.067.027.08.026.08.014.08.012.08.014.093v.08M415.284 320.765h.04l.027.013.027.013.026.014.04.013.028.027 3.866 3.105M419.11 342.205l.575-17.387" style="fill:none;stroke:red;stroke-width:.999997;stroke-linecap:round;stroke-linejoin:round;stroke-miterlimit:4;stroke-dasharray:none;stroke-opacity:1;visibility:visible" visibility="hidden"/><path d="m418.912 342.538-1.468.147-1.464.145-1.454.161-1.468.16-.066.014-1.386.173-1.454.187-1.452.185-1.454.215-1.44.2-1.44.225-1.427.215-1.441.24-1.428.225-1.424.255-1.416.253-1.424.267-1.402.265-1.412.281-1.4.294-1.4.28-.628.145M389.898 324.485l.56-.12 1.454-.28 1.466-.267 1.452-.253 1.469-.255 1.479-.239 1.468-.226 1.478-.24 1.44-.215 1.454-.199 1.44-.213 1.452-.187 1.456-.2 1.464-.173 1.454-.173 1.467-.16 1.467-.16.761-.08.092-.015.613-.065M335.206 342.258l.426-.213 1.2-.575 1.2-.559 1.228-.573 1.212-.56 1.24-.547 1.24-.546 1.24-.535 1.266-.532 1.254-.52 1.268-.507 1.292-.506 1.268-.495 1.292-.492 1.308-.48 1.292-.48 1.32-.467 1.32-.466 1.319-.455 1.335-.452 1.333-.427 1.345-.44 1.348-.426 1.36-.415 1.36-.412 1.372-.4 1.376-.4 1.386-.373.026-.015M419.11 342.205v.04l-.011.053-.016.08-.025.052-.04.055-.04.025-.066.028" style="fill:none;stroke:red;stroke-width:1.99999;stroke-linecap:round;stroke-linejoin:round;stroke-miterlimit:4;stroke-dasharray:none;stroke-opacity:1;visibility:visible" visibility="hidden"/><path d="m487.324 392.591 1.44-18.386M488.391 373.258l.081.067.079.093.066.12.054.132.053.135.028.133.012.132v.135M488.39 373.258l-3.372-2.693" style="fill:none;stroke:red;stroke-width:.999997;stroke-linecap:round;stroke-linejoin:round;stroke-miterlimit:4;stroke-dasharray:none;stroke-opacity:1;visibility:visible" visibility="hidden"/><path d="m487.324 392.591-.013.093-.027.08-.04.08-.04.04-.067.04" style="fill:none;stroke:red;stroke-width:1.99999;stroke-linecap:round;stroke-linejoin:round;stroke-miterlimit:4;stroke-dasharray:none;stroke-opacity:1;visibility:visible" visibility="hidden"/><path d="m419.966 173.792-4.774.933" style="fill:none;stroke:red;stroke-width:.999997;stroke-linecap:round;stroke-linejoin:round;stroke-miterlimit:4;stroke-dasharray:none;stroke-opacity:1;visibility:visible" visibility="hidden"/><path d="m415.684 187.938-.08-.053-.078-.067-.054-.08-.052-.106-.029-.107-.025-.12M419.966 173.792h.198l.107.026" style="fill:none;stroke:red;stroke-width:1.99999;stroke-linecap:round;stroke-linejoin:round;stroke-miterlimit:4;stroke-dasharray:none;stroke-opacity:1;visibility:visible" visibility="hidden"/><path d="m414.806 174.978.08-.08.093-.08.107-.066.106-.027M414.632 175.538v-.12l.014-.106.038-.12.054-.107.068-.107M414.632 175.538l.52 8.32.214 3.547" style="fill:none;stroke:red;stroke-width:.999997;stroke-linecap:round;stroke-linejoin:round;stroke-miterlimit:4;stroke-dasharray:none;stroke-opacity:1;visibility:visible" visibility="hidden"/><path d="m492.684 225.645-69.028-33.8-.344-.173-7.628-3.734M493.979 208.258l-71.241-33.28M422.738 174.965l-.334-.147-2.133-1" style="fill:none;stroke:red;stroke-width:1.99999;stroke-linecap:round;stroke-linejoin:round;stroke-miterlimit:4;stroke-dasharray:none;stroke-opacity:1;visibility:visible" visibility="hidden"/><path d="m425.032 323.338 2.319-.653 2.148-.615" style="fill:none;stroke:red;stroke-width:.999997;stroke-linecap:round;stroke-linejoin:round;stroke-miterlimit:4;stroke-dasharray:none;stroke-opacity:1;visibility:visible" visibility="hidden"/><path d="m429.498 322.071.106-.026h.094l.08.025.08.041" style="fill:none;stroke:red;stroke-width:1.99999;stroke-linecap:round;stroke-linejoin:round;stroke-miterlimit:4;stroke-dasharray:none;stroke-opacity:1;visibility:visible" visibility="hidden"/><path d="m424.444 324.058.014-.107.04-.12.052-.12.082-.093.079-.093.107-.095.106-.052.106-.04M423.366 341.098l.44-6.88M423.806 334.22l.638-10.16M423.498 341.458l-.054-.068-.053-.079-.027-.106v-.107" style="fill:none;stroke:red;stroke-width:.999997;stroke-linecap:round;stroke-linejoin:round;stroke-miterlimit:4;stroke-dasharray:none;stroke-opacity:1;visibility:visible" visibility="hidden"/><path d="M499.539 132.952v.053l-5.56 75.253-.014.12-.253 3.4-.08 1.147-.92 12.333-.028.387-.864 11.773M519.27 133.485h.03l.01.013.014.014h.013l.014.013h.013l.013.013h.027l.013.014v.013h.014v.013h.013l.013.014h.027l.013.013v.013l.014.014.013.013h.013v.013l.014.014.013.013.013.013h.014l.013.014v.013l.013.013v.014l.015.013v.013h.012v.014h.013v.013l.014.013v.014l.013.013v.013l.013.014.014.013v.027l.013.013v.013l.013.014v.026l.014.014v.04h.013v.053l.013.013v.094l.014.013v.093h-.014v.014M510.79 130.258h.308v.014h.054v.013h.025v.013h.04v.014h.014M519.777 134.312l-18.12 212.853-3.653 42.945" style="fill:none;stroke:red;stroke-width:1.99999;stroke-linecap:round;stroke-linejoin:round;stroke-miterlimit:4;stroke-dasharray:none;stroke-opacity:1;visibility:visible" visibility="hidden"/><path d="m511.23 130.312 7.963 3.146.078.027M487.017 392.964l.48.387M488.485 393.498l-.12.04-.133.012h-.132l-.148-.012-.132-.028-.121-.039-.12-.053-.08-.068M498.004 390.111l-.013.067-.041.066-.053.067-.08.04-.093.04M497.724 390.391l-9.24 3.107M425.386 342.829l-1.368-.999-.52-.37M469.737 375.325l-17.317-12.688-20.484-14.998M482.83 359.258l-.012-.013-6.161-4.32-46.12-32.335-.265-.185-.413-.295M411.564 93.887h.016v-.014h.184v.014h.042v.013h.053v.013h.039l.014.014h.026M418.07 96.379l-.08-.027-6.052-2.427M418.07 96.379h.03v.013h.01v.013h.029l.013.015h.012v.012h.014l.014.013h.014v.015h.012l.012.012h.016v.013h.024v.015l.014.012.016.013.012.015h.012v.012l.014.013.012.015v.012h.016l.012.013v.015l.012.012.014.013.016.015v.012l.012.013v.015l.012.012v.013l.014.015v.012l.014.013v.027h.014v.027h.012v.053h.012v.053h.016v.107M424.946 368.618l3.278-19.904M410.111 366.205v-.015l2.76-22.999M410.951 257.072l-9.812-160.947M414.551 316.071l-2.361-38.666M422.738 174.978v-.013l-4.212-77.92v-.013M426.966 253.178l-3.306-61.333M430.486 318.246l-2.427-44.893M430.486 318.246v.12l.013.04v.213l.013.027v.24l.014.04v.227l.013.04v.24l.013.04v.226l.014.041v.28l.013.013v.32l.013.013v.12l.014.04v.48l.013.027v.253M430.539 322.591l.08-1.293M414.579 320.845v-2.467l-.015-1.147-.013-1.133v-.027M401.139 96.125v-.105l.013-.015v-.08h.015v-.053h.01v-.04l.016-.013v-.014l.013-.013v-.013l.013-.014v-.025h.012v-.028l.015-.013.013-.014.013-.013v-.027h.012v-.013l.016-.013v-.014h.012v-.013h.014v-.013h.012l.012-.014v-.013l.016-.013h.013l.012-.014.013-.013v-.013l.016-.014h.012l.012-.013h.014l.014-.013h.014l.014-.014.011-.013v-.013h.041v-.014h.028v-.013h.026v-.013h.012l.014-.014h.068l.012-.013h.054M411.564 93.887l-9.8 1.466M430.618 321.298v-.013M499.539 132.952v-.08h.013v-.067h.015v-.04l.012-.013v-.04h.013l.013-.014v-.04l.015-.013v-.013l.012-.014v-.013l.013-.013.015-.014v-.013l.012-.013v-.014h.012v-.013l.016-.013.012-.027.013-.013.012-.014.015-.013.013-.013.015-.014v-.013h.01l.015-.013v-.014h.015v-.013h.012l.012-.013.016-.014h.012v-.013l.013-.013h.015l.012-.014h.013l.015-.013v-.013h.025v-.014h.027l.013-.013h.012l.015-.013h.028v-.014l.01-.013h.054l.016-.013h.025l.012-.014h.056" style="fill:none;stroke:red;stroke-width:1.99999;stroke-linecap:round;stroke-linejoin:round;stroke-miterlimit:4;stroke-dasharray:none;stroke-opacity:1;visibility:visible" visibility="hidden"/><path d="m500.23 132.178.083-.013 10.478-1.907M490.337 257.471v.015L483.3 352.87l-.483 6.375-.012.225-.333 4.495-.081 1.173-.467 6.252" style="fill:none;stroke:red;stroke-width:1.99999;stroke-linecap:round;stroke-linejoin:round;stroke-miterlimit:4;stroke-dasharray:none;stroke-opacity:1;visibility:visible" visibility="hidden"/><path d="m497.67 252.526.068.08.067.094.04.12.039.105.027.135.026.12v.12M497.777 255.246l.16-1.946M430.378 342.086h.012l.014.013h.027M430.366 342.086h.013M427.79 341.271h.017l.037-.053.054-.04.052-.053.054-.027.067-.04.053-.027M428.192 341.018l-.028.012h-.04M427.79 341.271l-1.597 1.907-.122.147-.865 1.025M428.192 341.018h.028l.052-.028.066-.012h.066l.068-.013h.08l.066.013h.106l.096.027.092.025.08.055.04.025M424.312 344.99l.108-.039.106-.04.106-.066.106-.067.094-.08.108-.068.092-.092.08-.08.094-.093v-.015M424.312 344.991l-.468.16-.038.014M432.259 343.485l.013.025.014.028.013.052.013.041v.04M423.498 345.511v-.053l.028-.068.024-.052.04-.04.054-.053.054-.04.052-.015.054-.025M432.192 346.671v.027l-.014.012v.068l-.014.012v.068h-.012v.012h-.012v.028l-.016.012v.015l-.013.013v.027h-.012v.013h-.013v.027h-.016v.013l-.012.012-.012.015-.014.013v.012h-.014v.015l-.014.013h-.012l-.012.012v.015l-.014.013h-.016v.012h-.011l-.013.015-.014.013h-.014v.012h-.012l-.014.015h-.028v.013h-.013v.012h-.025v.015h-.028v.013h-.04l-.212.08-3.28 1.12-.267.08v.012l-.469.148-.052.027M427.458 348.725l-.014.013h-.04v.012h-.12v.015h-.078l-.014-.015h-.121v-.012h-.039v-.013h-.014l-.014-.015h-.024v-.012h-.042v-.013h-.026l-.014-.015h-.014v-.012h-.012v-.013h-.028v-.015M432.312 343.671l-.12 3M426.844 348.631l-.066-.053-1.054-.773-1.972-1.455M423.752 346.351h-.014v-.013h-.014v-.013l-.012-.015h-.012l-.016-.012-.013-.013v-.015h-.012v-.012h-.013v-.013h-.014v-.015h-.014v-.025h-.012v-.015l-.014-.012h-.012v-.028h-.016v-.025h-.012v-.027h-.012v-.028h-.014v-.039h-.016v-.04l-.011-.013v-.093l-.013-.015v-.079M423.498 345.511v.054l-.014.225M430.366 342.086l-1.334-.973M426.806 346.471l.092.067.106.08.12.052.148.055.132.04.16.025.16.028h.334l.16-.028.055-.012.093-.013.144-.04" style="fill:none;stroke:red;stroke-width:.999997;stroke-linecap:round;stroke-linejoin:round;stroke-miterlimit:4;stroke-dasharray:none;stroke-opacity:1;visibility:visible" visibility="hidden"/><path d="m428.51 346.725.03-.015.092-.039.106-.053.092-.068" style="fill:none;stroke:red;stroke-width:.999997;stroke-linecap:round;stroke-linejoin:round;stroke-miterlimit:4;stroke-dasharray:none;stroke-opacity:1;visibility:visible" visibility="hidden"/><path d="m390.511 282.925 21.681-5.52.092-.027 5.427-1.387.907-.226 9.12-2.335.32-.079 62.28-15.866.159-.04v-.013l7.04-1.787M497.777 255.246l-.027.12-.026.107-.053.066-.054.068-.08.039" style="fill:none;stroke:red;stroke-width:1.99999;stroke-linecap:round;stroke-linejoin:round;stroke-miterlimit:4;stroke-dasharray:none;stroke-opacity:1;visibility:visible" visibility="hidden"/><path d="m331.338 349.913-2.12.6M329.218 350.511l-2.868.814" style="fill:none;stroke:red;stroke-width:.999997;stroke-linecap:round;stroke-linejoin:round;stroke-miterlimit:4;stroke-dasharray:none;stroke-opacity:1;visibility:visible" visibility="hidden"/><path d="m325.86 369.753.012.093.041.093.037.081" style="fill:none;stroke:red;stroke-width:1.99999;stroke-linecap:round;stroke-linejoin:round;stroke-miterlimit:4;stroke-dasharray:none;stroke-opacity:1;visibility:visible" visibility="hidden"/><path d="m326.351 351.325-.12.04-.12.065-.106.095-.092.093-.083.12-.052.12-.025.12-.015.107M312.313 194.898l5.36-1.053" style="fill:none;stroke:red;stroke-width:.999997;stroke-linecap:round;stroke-linejoin:round;stroke-miterlimit:4;stroke-dasharray:none;stroke-opacity:1;visibility:visible" visibility="hidden"/><path d="m312.898 208.246.028.12.024.107.055.093.065.08.081.08M318.14 193.938l-.095-.066-.119-.027-.12-.027-.136.027" style="fill:none;stroke:red;stroke-width:1.99999;stroke-linecap:round;stroke-linejoin:round;stroke-miterlimit:4;stroke-dasharray:none;stroke-opacity:1;visibility:visible" visibility="hidden"/><path d="m312.313 194.898-.083.014-.09.026M312.14 194.938l-.108.08-.093.094-.094.106-.067.134-.04.133-.025.133v.147M312.898 208.246l-.388-4.146M312.511 204.098l-.8-8.333" style="fill:none;stroke:red;stroke-width:.999997;stroke-linecap:round;stroke-linejoin:round;stroke-miterlimit:4;stroke-dasharray:none;stroke-opacity:1;visibility:visible" visibility="hidden"/><path d="m370.844 253.258-47.826-36.906-.453-.36-9.415-7.267M370.898 232.658l-49.84-36.573-.453-.333-2.466-1.814" style="fill:none;stroke:red;stroke-width:1.99999;stroke-linecap:round;stroke-linejoin:round;stroke-miterlimit:4;stroke-dasharray:none;stroke-opacity:1;visibility:visible" visibility="hidden"/><path d="M430.872 342.445v.013h.014" style="fill:none;stroke:red;stroke-width:.999997;stroke-linecap:round;stroke-linejoin:round;stroke-miterlimit:4;stroke-dasharray:none;stroke-opacity:1;visibility:visible" visibility="hidden"/><path d="M375.844 277.246v-.266l-.026-.267-.04-.254-.054-.279-.053-.267-.077-.267-.096-.266-.108-.24-.106-.24-.12-.214-.12-.2-.132-.173-.134-.16-.146-.12M374.526 273.951l-.028-.026-.132-.067-.136-.04-.13-.013-.054.013h-.067M375.284 278.658l.016-.013M375.192 278.698l.028-.013.092-.027.092-.067M375.564 278.42l.04-.04.067-.135" style="fill:none;stroke:red;stroke-width:.666665;stroke-linecap:round;stroke-linejoin:round;stroke-miterlimit:4;stroke-dasharray:none;stroke-opacity:1;visibility:visible" visibility="hidden"/><path d="m375.671 278.231.053-.146.054-.187.04-.2.012-.227.014-.226M373.951 273.831l.093-.013h.187l.093.04.014.013.081.027.107.053.092.067M375.671 278.231v.014l-.053.08-.054.093-.066.093-.094.08-.093.054h-.011l-.016.013-.066.027-.026.013h-.014M375.671 278.22v.012M374.618 274.018l.014.013M375.031 278.738l.121-.04h.026" style="fill:none;stroke:red;stroke-width:.666665;stroke-linecap:round;stroke-linejoin:round;stroke-miterlimit:4;stroke-dasharray:none;stroke-opacity:1;visibility:visible" visibility="hidden"/><path d="m375.032 278.738-.12.013h-.252l-.134-.04-.122-.053-.104-.067-.108-.066-.106-.08-.094-.095-.094-.092-.108-.133-.106-.147-.092-.16-.092-.173-.096-.175-.078-.185-.067-.187-.067-.187-.052-.2-.054-.186-.04-.187-.028-.2-.026-.187-.012-.186-.014-.187v-.173l.013-.175.025-.172.028-.16.028-.16.052-.147.066-.16.068-.12.08-.12.106-.106.108-.095.092-.052.095-.04.093-.027h.012l.12-.04M322.3 360.37l.016-.013M322.207 360.411l.027-.013.093-.028.093-.065M322.58 360.131l.04-.04.068-.133M322.687 359.945l.054-.147.053-.188.04-.199.013-.226.014-.227M322.86 358.958v-.268l-.025-.265-.041-.255-.054-.279-.053-.266-.077-.267-.096-.268-.107-.239-.106-.24-.121-.213-.12-.2-.131-.173-.135-.16-.145-.12M321.54 355.663l-.026-.026-.134-.067-.134-.04-.132-.013-.054.013h-.066" style="fill:none;stroke:red;stroke-width:.666665;stroke-linecap:round;stroke-linejoin:round;stroke-miterlimit:4;stroke-dasharray:none;stroke-opacity:1;visibility:visible" visibility="hidden"/><path d="m373.954 275.663.516.158.198.832-.262.516M322.687 359.931v.014M321.634 355.73l.015.013M322.047 360.45l.12-.04h.026M322.047 360.45l-.12.013h-.253l-.134-.04-.121-.053-.105-.067-.107-.066-.106-.08-.094-.094-.094-.093-.107-.133-.107-.147-.092-.16-.093-.173-.095-.174-.078-.186-.067-.187-.067-.187-.053-.2-.054-.186-.04-.187-.027-.2-.026-.187-.013-.186-.014-.187v-.173l.014-.174.025-.173.028-.16.027-.16.053-.147.066-.16.067-.12.08-.12.107-.106.107-.094.093-.053.094-.04.093-.027h.013l.119-.04M320.967 355.545l.094-.015h.186l.094.041.013.014.081.025.107.055.092.065M322.687 359.945v.013l-.053.08-.054.092-.066.095-.094.08-.093.053h-.012l-.014.012-.067.028-.025.012h-.015" style="fill:none;stroke:red;stroke-width:.666665;stroke-linecap:round;stroke-linejoin:round;stroke-miterlimit:4;stroke-dasharray:none;stroke-opacity:1;visibility:visible" visibility="hidden"/><path d="m320.97 357.375.517.158.198.832-.263.515" style="fill:none;stroke:red;stroke-width:.666665;stroke-linecap:round;stroke-linejoin:round;stroke-miterlimit:4;stroke-dasharray:none;stroke-opacity:1;visibility:visible" visibility="hidden"/><path d="m370.351 422.538-17.133-20.268-9.399-11.119-3.853-4.56-.136-.146-5.024-5.96-.308-.36-3.465-4.095-4.495-5.319-.587-.693M487.139 392.924l-.122.04-17.025 5.72-.308.107-6.946 2.333h-.014l-9.89 3.334-35.764 12.026-28.679 9.64M370.444 424.538l6.014 6.2M377.498 430.898l1.772-.6 8.734-2.934M370.444 393.58l-9.186-10.36-.588-.668-3.159-3.573h-.013l-.12-.146-14.148-15.96-.159-.187h-.013l-7.32-8.267v-.013l-.375-.413-3.503-3.96M388.378 426.978l.012-.854v-.28l.281-19.093.027-1.133.052-4.028v-.172l.201-13.293.2-13.627.013-.68.054-4 .012-.148.334-22.599v-.306l.254-17.48.026-.947.054-3.76v-.093l.612-41.56v-.36l.041-2.027.013-.893.187-12.72.013-.88.054-4 1.546-104.347" style="fill:none;stroke:red;stroke-width:1.99999;stroke-linecap:round;stroke-linejoin:round;stroke-miterlimit:4;stroke-dasharray:none;stroke-opacity:1;visibility:visible" visibility="hidden"/><path d="M370.351 424.311v-1.96l.069-19.027v-1.6l.024-7.64v-.506l.042-13.773v-.787l.012-4.428v-.172l.066-22.373v-.295l.054-17.599v-.986l.014-4.067v-.107l.212-75.733v-.306l.04-12.974v-1.466l.014-5.587v-.267l.226-76.466M484.752 370.485l-2.681.865-.146.041-11.945 3.854-.243.08-21.386 6.893-.293.092-6.786 2.188-7.892 2.547-33.948 10.933-10.68 3.44" style="fill:none;stroke:red;stroke-width:1.99999;stroke-linecap:round;stroke-linejoin:round;stroke-miterlimit:4;stroke-dasharray:none;stroke-opacity:1;visibility:visible" visibility="hidden"/><path d="m401.764 95.353 6.56 3.279M500.23 132.178l8.601 4.28M485.018 370.565l-2.628-5.427M373.952 273.831l16.612 5.814M373.952 273.831l16.8-6.906M431.936 347.639l-2.092-2.101" style="fill:none;stroke:red;stroke-width:.999997;stroke-linecap:round;stroke-linejoin:round;stroke-miterlimit:4;stroke-dasharray:none;stroke-opacity:1;visibility:visible" visibility="hidden"/><path d="m312.898 208.246 10.12 8.106M311.711 195.765l9.347.32M335.752 348.125l-.014 6.28M498.764 240.365l-6.944-2.947M423.752 346.35l1.634-3.521M485.018 370.565l-15.281 4.76M419.458 349.685l5.488 18.933M419.11 342.205l-6.239.986M415.366 187.405l8.294 4.44M497.777 255.246l-7.44 2.225M488.764 374.205l-6.84-2.815M373.952 273.831l16.559 9.094" style="fill:none;stroke:red;stroke-width:1.99999;stroke-linecap:round;stroke-linejoin:round;stroke-miterlimit:4;stroke-dasharray:none;stroke-opacity:1;visibility:visible" visibility="hidden"/><path d="m375.671 278.245-1.265-1.076M322.688 359.958l-1.266-1.078" style="fill:none;stroke:red;stroke-width:.666665;stroke-linecap:round;stroke-linejoin:round;stroke-miterlimit:4;stroke-dasharray:none;stroke-opacity:1;visibility:visible" visibility="hidden"/><path d="m370.444 424.538-.093-2" style="fill:none;stroke:red;stroke-width:1.99999;stroke-linecap:round;stroke-linejoin:round;stroke-miterlimit:4;stroke-dasharray:none;stroke-opacity:1;visibility:visible" visibility="hidden"/><path d="m495.55 418.164-.092-.026h-.094l-.093.012-.121.041M494.684 420.324l.2-.08.187-.093.174-.12.146-.107.119-.133.107-.133.067-.148.053-.146.015-.16v-.146l-.04-.148-.067-.159-.08-.147-.121-.146-.133-.148-.159-.119M375.071 460.604l.147.147.16.16.186.12.214.12.226.107.242.106.252.067.268.053.278.054.28.026h.574l.28-.04.28-.04.266-.066.256-.08 115.704-41.014M346.831 425.511l1.347 1.653 1.24 1.547 1.146 1.44 1.134 1.413 1.24 1.534 1.386 1.72 20.747 25.786M325.806 399.364l1.532 1.894 19.496 24.252M417.844 369.818l-1.372-1.2-.801-.708-2.252-1.972" style="fill:none;stroke:#00ff4a;stroke-width:.999997;stroke-linecap:round;stroke-linejoin:round;stroke-miterlimit:4;stroke-dasharray:none;stroke-opacity:1;visibility:visible"/><path d="m425.422 368.466 3.184-.981M413.178 365.845h.082l.024.013.04.012.054.028.041.04M325.806 399.364l7.24-2.24.344-.106 1.388-.428M325.058 400.311l.012-.12.028-.147.052-.12.081-.12.094-.12.105-.106.121-.094.12-.066.135-.054M389.231 369.671l.373-.08 1.414-.293 1.426-.28 1.427-.28 1.428-.268 1.425-.265 1.44-.24 1.44-.255 1.482-.225 1.506-.24 1.494-.227 1.518-.213 1.507-.215 1.507-.212 1.492-.188h.029l.092-.012 1.427-.16 1.52-.173M495.617 418.204l.16.134.16.146.134.147.121.16.108.16.077.147.08.172.054.174.039.187.014.173v.24M469.979 398.684h.013l25.56 19.48.065.04M429.07 367.538l2.017 1.532 17.263 13.148M496.444 421.484l-.028.16-.039.174-.053.16-.079.16-.08.146-.109.147-.105.133-.134.12-.12.107-.119.107-.148.08-.146.092-.144.081-.163.08-.172.067M494.805 423.298l-115.533 41.16M379.271 464.458l-.24.08-.227.052-.24.054-.253.04-.24.027-.24.027h-.493l-.24-.028-.24-.012-.24-.054-.228-.04-.226-.053-.226-.067-.214-.08-.2-.093-.213-.093-.187-.12-.186-.12-.174-.12-.146-.134-.148-.146-.132-.16M374.338 463.419l-.068-.093-18.652-23.294M355.618 440.031l-.388-.493-.399-.494-.4-.506-.399-.494-.4-.48M353.632 437.564l-1.508-1.893-1.492-1.88-1.492-1.867-1.48-1.853-1.482-1.84M346.178 428.231l-.068-.093-.666-.828-.72-.892-.72-.894-.72-.893-.72-.907M342.564 423.724l-.038-.053-17.308-21.64M496.444 421.484l.12-1.44" style="fill:none;stroke:#00ff4a;stroke-width:1.99999;stroke-linecap:round;stroke-linejoin:round;stroke-miterlimit:4;stroke-dasharray:none;stroke-opacity:1;visibility:visible"/><path d="m429.07 367.538-11.226 2.28" style="fill:none;stroke:#00ff4a;stroke-width:.999997;stroke-linecap:round;stroke-linejoin:round;stroke-miterlimit:4;stroke-dasharray:none;stroke-opacity:1;visibility:visible"/><path d="m491.82 237.418.864-11.773" style="fill:none;stroke:red;stroke-width:1.99999;stroke-linecap:round;stroke-linejoin:round;stroke-miterlimit:4;stroke-dasharray:none;stroke-opacity:1;visibility:visible" visibility="hidden"/><path d="m390.564 279.645-16.61-3.982" style="fill:none;stroke:red;stroke-width:.666665;stroke-linecap:round;stroke-linejoin:round;stroke-miterlimit:4;stroke-dasharray:none;stroke-opacity:1;visibility:visible" visibility="hidden"/></svg>