<svg xmlns="http://www.w3.org/2000/svg" baseProfile="full" height="1122.52" preserveAspectRatio="xMinYMin meet" style="width:912px;height:1246px" width="793.701" xml:space="preserve"><path d="m94.298 273.106-.25.052-.223.056-.205.066-.18.08-.143.078-.105.078-.084.087-.034.087v.079l.034.078.072.08.108.071.15.059.174.057.204.043.224.03.244.027.26.008h.266l.274-.012.272-.031.266-.036.254-.043.236-.058.216-.064.186-.073.16-.072.131-.087.09-.076.059-.09.023-.085-.024-.08-.057-.078-.09-.072-.126-.066-.166-.057-.186-.05-.216-.038-.23-.027-.254-.014-.263-.008-.275.008-.265.021-.277.028-.25.044M108.674 270.478l-.244.05-.222.059-.192.063-.176.072-.142.08-.106.088-.074.077-.03.087v.079l.038.08.078.077.114.067.147.065.17.05.204.042.231.036.232.023.264.006h.264l.274-.014.265-.022.261-.036.251-.05.23-.05.218-.066.181-.071.155-.072.127-.087.09-.078.05-.087.016-.08-.024-.079-.056-.08-.095-.07-.13-.067-.158-.057-.192-.05-.21-.036-.236-.029-.253-.013h-.26l-.274.005-.266.015-.266.03-.254.042M101.88 272.04l-.175.034-.141.046-.126.05-.09.057-.05.058-.025.064.017.05.058.058.084.043.124.037.142.03.164.019.188.008.191-.007.184-.014.19-.03.165-.036.15-.044.124-.056.086-.052.056-.064.024-.057-.024-.057-.05-.05-.093-.045-.116-.042-.15-.03-.165-.013-.181-.008-.196.008-.183.013-.182.03" style="fill:none;stroke:red;stroke-width:.666665;stroke-linecap:round;stroke-linejoin:round;stroke-miterlimit:4;stroke-dasharray:none;stroke-opacity:1;visibility:visible"/><path d="M82.496 274.329v.021l.006.023.008.02.014.016.022.021.022.021M86.894 276.732l34.316-6.313M86.894 276.733l-.109 2.37-.097 2.374-.083 2.391-.055 2.406-.05 2.419-.039 2.425-.019 2.442-.009 2.447.013 2.463.026 2.476.034 2.484.058 2.492.065 2.505.076 2.514.105 2.518.108 2.536.12 2.542.137 2.549.151 2.556.164 2.563.18 2.569.196 2.585.211 2.584.223 2.594.23 2.598.251 2.606.259 2.614.273 2.62.287 2.622.305 2.628.308 2.635.332 2.643.337 2.643.358 2.643.362 2.654.383 2.65.388 2.666.401 2.655.423 2.664.43 2.672.446 2.67.453 2.674.468 2.669.483 2.678.49 2.679.505 2.678.518 2.678.526 2.686.538 2.68M121.209 270.42l.088-.023.085-.02.074-.022.062-.022.107-.043.08-.05.05-.057.017-.029.008-.037" style="fill:none;stroke:red;stroke-width:.999997;stroke-linecap:round;stroke-linejoin:round;stroke-miterlimit:4;stroke-dasharray:none;stroke-opacity:1;visibility:visible"/><path d="m85.593 276.625.057.035.086.038.078.028.103.021.1.015.107.008.108.005.122.008.131-.008.123-.005.15-.015.139-.022M85.593 276.625l-3.027-2.175" style="fill:none;stroke:red;stroke-width:.999997;stroke-linecap:round;stroke-linejoin:round;stroke-miterlimit:4;stroke-dasharray:none;stroke-opacity:1;visibility:visible"/><path d="m121.778 270.117-.121 1.8-.125 1.806-.106 1.815-.101 1.823-.085 1.828-.09 1.836-.068 1.85-.064 1.85-.05 1.858-.048 1.867-.034 1.863-.029 1.88-.015 1.877-.006 1.888v1.893l.006 1.902.022 1.9.022 1.907.034 1.915.052 1.922.052 1.93.062 1.93.072 1.938.082 1.935.085 1.945.101 1.945.1 1.958.114 1.957.124 1.959.14 1.967.132 1.972.154 1.973.158 1.98.166 1.979.174 1.988.178 1.986.195 1.988.193 1.995.211 1.993.216 2.003.221 2.001.238 2.008.237 2.003.247 2.016.256 2.01.266 2.014.274 2.016.28 2.024.291 2.015.296 2.024.307 2.021.312 2.025.308 1.945.318 1.95.317 1.946.332 1.949.337 1.954.344 1.949.355 1.952.353 1.958.367 1.95.373 1.952.383 1.951.381 1.959M93.806 399.788l-.416-2.094-.412-2.104-.402-2.095-.39-2.093-.39-2.104-.379-2.094-.375-2.094-.366-2.097-.36-2.095-.347-2.088-.347-2.095-.337-2.088-.33-2.081-.319-2.081-.312-2.08-.307-2.082-.299-2.081-.288-2.072-.29-2.075-.271-2.073-.269-2.067-.266-2.065-.252-2.06-.245-2.067-.236-2.052-.23-2.051-.224-2.053-.217-2.05-.204-2.047-.2-2.037-.189-2.046-.183-2.027-.176-2.039-.17-2.023-.16-2.024-.148-2.023-.148-2.016-.128-2.009-.13-2.001-.116-2.002-.117-2.002-.099-1.994-.094-1.987-.088-1.979-.08-1.982-.06-1.972-.066-1.965-.05-1.967-.044-1.95-.038-1.952-.025-1.944-.024-1.936-.007-1.966v-1.952l.007-1.95.015-1.938.03-1.936.03-1.93.041-1.915.059-1.916.056-1.907.074-1.893M121.778 270.117v-.022l-.006-.022-.008-.02-.014-.023-.029-.02-.028-.024M83.106 274.011l-.092.015-.094.03-.076.019-.067.02-.116.055-.084.056-.03.028-.031.03-.014.034-.006.029M121.692 269.986l-3.176-2.103M93.877 399.904l-.023-.014-.012-.023-.014-.015-.008-.02-.007-.022-.008-.023M93.877 399.903l2.94 2.801M98.054 402.842l-.124.028-.14.022-.125.008-.123.006-.116-.007-.105-.007-.103-.016-.09-.02-.098-.029-.077-.03-.08-.041-.056-.051M131.073 394.308l.01.036-.009.043-.024.044-.017.043-.075.064-.1.072-.066.031-.072.026-.083.037-.092.022M83.106 274.011l34.131-6.22M98.054 402.842l32.488-8.115" style="fill:none;stroke:red;stroke-width:1.99999;stroke-linecap:round;stroke-linejoin:round;stroke-miterlimit:4;stroke-dasharray:none;stroke-opacity:1;visibility:visible"/><path d="m101.88 272.04-7.582 1.066M101.88 272.04l-7.582 1.066M101.88 272.04l6.794-1.562M101.88 272.04l6.794-1.563M108.674 270.477l-6.794 1.563M108.674 270.478l-6.794 1.562" style="fill:none;stroke:red;stroke-width:.666665;stroke-linecap:round;stroke-linejoin:round;stroke-miterlimit:4;stroke-dasharray:none;stroke-opacity:1;visibility:visible"/><path d="m121.209 270.42-3.972-2.629" style="fill:none;stroke:red;stroke-width:1.99999;stroke-linecap:round;stroke-linejoin:round;stroke-miterlimit:4;stroke-dasharray:none;stroke-opacity:1;visibility:visible"/><path d="m222.265 422.115-.005-.21-.035-.214-.052-.216-.072-.224-.085-.21-.103-.2-.12-.18-.13-.166-.133-.137-.141-.107-.147-.087-.134-.05-.138-.015-.126.015-.116.044-.11.078-.086.108-.072.136-.052.159-.036.181-.006.2.006.21.036.216.052.217.072.223.086.208.102.194.124.187.126.159.13.144.142.108.147.086.135.05.138.014.131-.014.11-.043.113-.079.085-.108.072-.137.052-.159.035-.178.005-.203" style="fill:none;stroke:#00ff4a;stroke-width:.999997;stroke-linecap:round;stroke-linejoin:round;stroke-miterlimit:4;stroke-dasharray:none;stroke-opacity:1;visibility:visible"/><path d="m223.49 425.946.016-6.243-4.367-2.505M220.177 416.045l-.1-.043-.101-.014-.086.014M218.955 416.953l.015.064.034.065.056.058.082.058" style="fill:none;stroke:#00ff4a;stroke-width:.999997;stroke-linecap:round;stroke-linejoin:round;stroke-miterlimit:4;stroke-dasharray:none;stroke-opacity:1;visibility:visible"/><path d="m224.196 418.667-.137.064-.128.095-.115.113-.11.13-.087.151-.062.159-.038.167-.015.157M223.49 425.946l.007.13.036.122.05.101.064.087.091.065M224.54 418.544l.06-.015.05.015M220.177 416.045l.067-.007.048.014M226.168 425.902h-.015M224.34 426.573l-.028-.007h-.032M226.168 425.895l-1.685.62M223.431 426.277l.305.173" style="fill:none;stroke:#00ff4a;stroke-width:.999997;stroke-linecap:round;stroke-linejoin:round;stroke-miterlimit:4;stroke-dasharray:none;stroke-opacity:1;visibility:visible"/><path d="m224.483 426.516-.01.007h-.013l-.005.006h-.013l-.01.008h-.029l-.005.007h-.022l-.008.007h-.024l-.002.006h-.039l-.01.01h-.062l-.005.006h-.095l-.01-.006h-.069l-.008-.01h-.028l-.006-.006h-.03l-.01-.007h-.016l-.01-.007h-.016l-.008-.008h-.014l-.006-.006h-.014l-.008-.007h-.023v-.007h-.005l-.007-.009h-.005l-.008-.007h-.016l-.008-.006h-.007l-.008-.007h-.004l-.008-.008h-.007l-.009-.007h-.008l-.007-.006h-.008l-.005-.007M338.358 355.608l102.605 45.43M210.753 419.456l83.628 51.51" style="fill:none;stroke:#00ff4a;stroke-width:.999997;stroke-linecap:round;stroke-linejoin:round;stroke-miterlimit:4;stroke-dasharray:none;stroke-opacity:1;visibility:visible"/><path d="m316.85 462.11-.179.093-.142.1-.115.11-.09.121-.051.121-.011.123.021.13.056.122.095.116.13.107.149.102.189.086.201.08.231.058.237.05.252.029.262.007.256-.007.254-.023.244-.042.228-.059.211-.07.185-.087.162-.094.136-.108.1-.116.066-.122.026-.122-.006-.129-.036-.123-.08-.121-.109-.11-.144-.107-.163-.094-.197-.08-.216-.072-.236-.05-.244-.036-.255-.022h-.258l-.258.015-.245.03-.239.05-.222.064-.195.08M305.964 467.042l-.18.093-.15.11-.114.106-.085.122-.059.124-.015.129.02.13.056.122.091.123.13.108.151.1.179.094.21.079.23.057.236.051.252.03.257.006.267-.007.256-.021.243-.044.236-.057.216-.072.189-.087.163-.101.138-.108.103-.123.07-.121.031-.123v-.13l-.037-.129-.08-.122-.108-.115-.137-.103-.174-.098-.194-.08-.215-.072-.237-.051-.244-.043-.26-.014-.258-.008-.254.014-.254.036-.245.052-.221.064-.203.079M313.8 465.811l-.196.072-.21.057-.222.044-.236.028-.248.007-.235-.007-.237-.028-.23-.044-.213-.057-.182-.072-.167-.087-.139-.101-.106-.108-.074-.107-.036-.124v-.114l.044-.116.066-.115.106-.108.139-.093.167-.094.182-.072.22-.057.223-.044.237-.028.235-.008.248.008.236.028.223.044.209.057.196.072.157.086.139.101.108.101.07.115.037.116v.121l-.036.116-.071.115-.101.108-.139.095-.164.093" style="fill:none;stroke:#00ff4a;stroke-width:.666665;stroke-linecap:round;stroke-linejoin:round;stroke-miterlimit:4;stroke-dasharray:none;stroke-opacity:1;visibility:visible"/><path d="m305.705 486.44-.056-13.119M517.551 376.2l-211.902 97.121M305.469 486.95l.081-.057.068-.079.046-.108.028-.123.014-.142M305.649 473.32l-.015-.167-.034-.172-.06-.173-.08-.164-.1-.159-.107-.137-.116-.108-.127-.079M294.965 466.775l-.1-.043-.095-.021h-.096l-.077.028M294.965 466.775l10.043 5.387" style="fill:none;stroke:#00ff4a;stroke-width:.999997;stroke-linecap:round;stroke-linejoin:round;stroke-miterlimit:4;stroke-dasharray:none;stroke-opacity:1;visibility:visible"/><path d="m433.435 408.161-.161.085-.135.087-.1.101-.075.108-.042.108v.116l.022.115.06.115.091.109.123.107.144.101.18.093.196.087.222.07.227.066.255.044.258.036.262.021.266.007h.258l.254-.02.234-.037.225-.051.208-.065.185-.071M438.89 405.691l-5.456 2.47M442.052 407.01l.157-.08.132-.093.099-.102.075-.1.032-.108v-.114l-.026-.116-.057-.108-.097-.116-.12-.102-.152-.1-.174-.093-.19-.079-.226-.072-.232-.064-.249-.052-.255-.036-.256-.021-.266-.007-.254.007-.25.021-.238.036-.226.052-.206.058-.182.072M436.593 409.492l5.461-2.483" style="fill:none;stroke:#00ff4a;stroke-width:.666665;stroke-linecap:round;stroke-linejoin:round;stroke-miterlimit:4;stroke-dasharray:none;stroke-opacity:1;visibility:visible"/><path d="m516.637 387.489.067-.035.049-.044.028-.044.013-.05M516.637 387.489l-.023.121-.036.11-.056.094-.08.078-.086.057M506.327 371.706l.085-.028.096-.015.1.015.1.021M517.551 376.2l.067-.028.049-.044.028-.043.013-.05M506.91 371.678l-.065-.007-.066.007-.068.021M433.377 409.32l.059-1.159" style="fill:none;stroke:#00ff4a;stroke-width:.999997;stroke-linecap:round;stroke-linejoin:round;stroke-miterlimit:4;stroke-dasharray:none;stroke-opacity:1;visibility:visible"/><path d="m438.748 408.514.143-2.823M115.813 437.22l-.157.05-.164.037-.182.028-.18.006-.165-.006-.167-.028-.136-.036-.114-.051-.09-.065-.056-.072-.021-.079.015-.08.05-.079.078-.078.114-.074.134-.064.156-.049.166-.037.182-.022.177-.008.167.008.16.022.141.037.115.05.086.063.056.074.024.078-.014.079-.051.08-.076.079-.116.072-.132.065M120.918 434.549l-.195.085-.172.095-.145.1-.116.115-.076.108-.05.116-.009.114.02.116.059.102.087.1.124.088.157.078.175.064.208.058.214.036.239.021.243.007.254-.014.248-.022.255-.043.235-.057.225-.064.21-.088.178-.086.16-.101.127-.108.096-.116.065-.113.03-.116v-.108l-.042-.108-.075-.102-.106-.093-.148-.087-.163-.072-.187-.057-.216-.043-.222-.036-.247-.014-.245.008-.254.014-.246.035-.25.05-.229.057-.216.081M107.54 438.15l-.195.085-.178.094-.144.108-.123.114-.08.116-.05.116-.02.115.02.11.06.106.086.1.12.095.152.078.18.066.203.049.222.044.236.02.247.008.25-.015.262-.02.252-.044.236-.057.232-.072.208-.077.187-.096.158-.1.138-.116.1-.107.065-.115.037-.124-.008-.108-.038-.114-.068-.102-.11-.093-.137-.087-.165-.072-.19-.057-.216-.05-.23-.029-.234-.014h-.256l-.248.021-.261.036-.243.043-.232.064-.225.081" style="fill:none;stroke:#00ff4a;stroke-width:.666665;stroke-linecap:round;stroke-linejoin:round;stroke-miterlimit:4;stroke-dasharray:none;stroke-opacity:1;visibility:visible"/><path d="m93.17 454.975-.044-.064-.025-.073M92.774 441.193l-.065-.041-.059-.023h-.05M381.55 322.898l.081-.03.076-.014h.09l.085.015M381.882 322.869l.076-.015.068-.006.064.014M200.442 409.954l-.065-.036-.072-.021-.058.006M294.067 376.094l-58.512 29.907M390.933 326.584l-57.05 29.161M235.555 406.001l-.956.481-.963.483-.982.475M232.654 407.44l-23.516 8.337M209.138 415.778l-1.545.49-1.558.482-1.577.468-1.587.47-1.606.451-1.63.448M199.636 418.587 97.16 446.463l1.159 12.83M92.774 441.193l3.963 4.105M390.37 325.77l.11.043.106.073.101.085.09.102.068.122.053.13.025.129.011.13M97.158 446.463l-.023-.164-.036-.167-.04-.172-.06-.166-.056-.159-.074-.136-.064-.116-.068-.085M390.37 325.77l.075-.023h.068l.065.016" style="fill:none;stroke:#00ff4a;stroke-width:.999997;stroke-linecap:round;stroke-linejoin:round;stroke-miterlimit:4;stroke-dasharray:none;stroke-opacity:1;visibility:visible"/><path d="m391.054 326.447-.015.052-.041.043-.065.042M98.202 459.8l.043-.023.038-.057.02-.072.014-.101.008-.122-.008-.13M93.341 455.355l-.085-.107-.056-.129-.03-.145M226.168 425.895v.007M219.89 416.003l-.347.123M218.955 416.953v-.028l.005-.015v-.073l.01-.015v-.028l.009-.014v-.022l.004-.006v-.022l.007-.016v-.006l.006-.007v-.015l.008-.006v-.014l.007-.009v-.007l.008-.013v-.008l.008-.013v-.008l.008-.008v-.014l.005-.008.007-.006v-.014l.008-.008.005-.009.01-.013v-.008l.006-.007.01-.013.008-.008v-.007l.002-.008.01-.015.005-.006.008-.007.007-.007v-.014l.009-.008.007-.007.008-.008.006-.007.006-.013.009-.008.005-.007.01-.008.005-.006.01-.008.003-.007.008-.007.01-.008.005-.006.01-.007.014-.007.007-.009.005-.007.008-.006.007-.007.008-.008.006-.007.016-.006.008-.007.003-.01.01-.007.013-.007h.009l.007-.007.009-.008.01-.006.007-.007h.008l.008-.007.016-.009.007-.007h.005l.015-.006.01-.007h.005l.014-.008.011-.007h.01l.006-.006h.01l.015-.007h.008l.012-.008M218.955 416.953l.005 6.221M219.392 423.93l-.008-.008-.007-.008h-.013l-.007-.007-.005-.006h-.01l-.006-.007-.008-.008-.01-.007h-.005l-.005-.006-.007-.007-.008-.01h-.006l-.01-.006-.006-.007-.008-.006-.008-.008h-.004l-.008-.007-.006-.007-.01-.006v-.01l-.006-.006-.009-.007h-.01l-.003-.007-.008-.008-.004-.006-.01-.007v-.008l-.006-.01-.01-.006-.005-.007-.01-.006v-.008l-.005-.007-.006-.007-.008-.008v-.006l-.007-.008-.01-.007-.005-.008v-.007l-.009-.006-.005-.007v-.008l-.006-.007-.009-.008v-.014l-.005-.007-.011-.007v-.006l-.005-.008v-.007l-.008-.008v-.007l-.007-.008-.008-.013v-.007l-.005-.008v-.006l-.007-.007v-.023l-.008-.006v-.008l-.008-.007v-.007l-.008-.006v-.024l-.007-.007v-.021l-.008-.007v-.016l-.005-.007v-.028l-.007-.006v-.051l-.008-.007v-.101M228.091 425.19l-1.921.705M219.392 423.93l4.039 2.347M225.166 420.294l.012-.733M225.166 420.294l.012.152.013.144.027.143.036.129.044.124.05.108.066.1.061.095.066.072M228.241 424.023l-2.699-2.663M224.65 418.544l.072.05.064.053.059.064.054.064.059.078.053.079.042.088.034.085.031.094.02.086.025.094.004.086.011.095M228.241 424.023l.044.052.043.057.028.064.028.064.022.072.01.075.006.099M224.65 418.544l-4.359-2.492M228.42 424.506v.1M219.89 416.003l.05-.015.057-.006h.105l.06.014.05.022.08.036M228.42 424.606v.087l-.015.086-.02.086-.03.072-.04.073-.051.065-.05.051-.057.035-.065.029" style="fill:none;stroke:#00ff4a;stroke-width:.999997;stroke-linecap:round;stroke-linejoin:round;stroke-miterlimit:4;stroke-dasharray:none;stroke-opacity:1;visibility:visible"/><path d="m338.055 362.506-.056-.037-.05-.058-.045-.072-.03-.092-.014-.102-.002-.108" style="fill:none;stroke:#00ff4a;stroke-width:1.99999;stroke-linecap:round;stroke-linejoin:round;stroke-miterlimit:4;stroke-dasharray:none;stroke-opacity:1;visibility:visible"/><path d="m337.903 356.53.01-.137.027-.143.046-.145.056-.13.064-.122.078-.108.087-.079.09-.057M337.903 356.53l-.02 2.24-.025 3.268M342.397 353.499l-4.037 2.11M345.983 351.62l-3.584 1.88" style="fill:none;stroke:#00ff4a;stroke-width:.999997;stroke-linecap:round;stroke-linejoin:round;stroke-miterlimit:4;stroke-dasharray:none;stroke-opacity:1;visibility:visible"/><path d="m345.983 351.62.084-.03.081-.006.072.02M450.093 396.943l-103.872-45.339M432.448 404.863l-94.393-42.357" style="fill:none;stroke:#00ff4a;stroke-width:1.99999;stroke-linecap:round;stroke-linejoin:round;stroke-miterlimit:4;stroke-dasharray:none;stroke-opacity:1;visibility:visible"/><path d="m210.6 427.075-.085-.064-.064-.087-.052-.094-.035-.115-.013-.123-.268-6.12M210.084 420.473l.005-.15.036-.16.059-.16.081-.142.107-.137.116-.108.127-.094.138-.065M221.117 415.775l7.533-2.676M211.393 419.227l7.105-2.523M210.753 419.456l.64-.23M228.651 413.099l3.096-1.1" style="fill:none;stroke:#00ff4a;stroke-width:.999997;stroke-linecap:round;stroke-linejoin:round;stroke-miterlimit:4;stroke-dasharray:none;stroke-opacity:1;visibility:visible"/><path d="m231.748 411.999.123-.03.124-.007.106.022.102.043M311.422 459.187l-79.221-47.16M294.459 479.383l-83.858-52.308M294.466 480.269l.016.165.035.166.056.173.084.164.09.152.107.137.115.108.126.079 9.983 5.493M294.466 480.269l-.116-13.01M305.078 486.906l.1.05.103.023.102-.009.086-.021M294.595 466.74l-.084.05-.07.086-.051.11-.031.127-.01.146M516.356 387.95l-210.886 99M516.795 387.316v.023l-.005.013v.037l-.008.008v.035l-.007.008v.015l-.008.006v.014l-.007.008v.013l-.005.008v.015l-.01.006v.008l-.006.006v.014l-.008.015v.008l-.007.007v.008l-.008.006v.007l-.006.007v.009h-.006v.007l-.009.006v.007l-.007.008-.009.007v.006l-.004.007v.008l-.01.01-.005.006v.007l-.006.006-.01.008v.007h-.005l-.01.007v.006l-.006.01-.008.006-.007.007v.007h-.008l-.004.008-.008.006v.008l-.009.006-.007.009h-.008l-.005.007v.008l-.01.005h-.003l-.008.008-.008.007-.007.008-.01.006-.005.007h-.008l-.006.008-.006.008h-.006l-.008.007-.01.006h-.006v.007l-.008.007h-.007l-.008.008h-.003l-.009.006-.005.008h-.011l-.01.007h-.003l-.011.008h-.004l-.007.007h-.005l-.01.006M506.327 371.706l-211.731 95.033M517.709 376.034l-.915 11.281M506.327 371.706l.008-.007h.007l.009-.008h.012l.005-.006h.015v-.007h.024v-.007h.02l.007-.008h.024l.008-.008h.017l.01-.006h.035v-.007h.058l.008-.008h.114v.008h.066v.007h.033v.006h.033l.006.008h.021v.008h.03v.007h.013M517.183 375.241l-10.273-3.564M517.183 375.241h.01l.009.007h.012l.005.008h.008l.015.008h.008l.008.006.012.007h.009l.005.008.014.007h.012l.008.006.004.007h.013l.01.008.005.008.008.007h.008l.013.006.007.008.008.007.006.007.008.006.008.008h.014l.006.01.008.006.006.007.009.008.005.007.011.006.005.007.008.008.007.007.005.008.008.006.007.008.008.007.008.007.008.014.005.007.007.008v.008l.01.007.005.006.009.007.004.015.012.006v.008l.004.008.007.007.005.013v.008l.01.007.009.007v.016l.005.006.01.007v.007l.006.014v.007l.008.008.004.016v.007l.008.006v.015l.008.007v.022l.007.007v.008l.008.013v.022l.008.008v.021l.008.007v.029l.005.015v.157M209.465 428.53h.005M93.102 454.838l-1.177-12.744M91.925 442.094v-.159l.007-.013v-.05l.009-.017v-.02l.005-.014v-.014l.007-.008v-.014l.005-.015v-.013l.008-.007v-.016l.01-.013v-.008l.005-.014v-.014l.01-.01.006-.013v-.008l.008-.013.004-.015.008-.007v-.016l.007-.006.008-.014.008-.014.008-.007.008-.016.005-.007.007-.013.005-.008.01-.013.007-.008.006-.008.01-.014.006-.006.008-.015.004-.007.008-.016.006-.006.008-.007.016-.015.01-.006.002-.007.01-.008.004-.016.014-.007.011-.008.01-.006.011-.014.006-.008.008-.006.014-.008.01-.007.006-.008.012-.007.008-.006.015-.015.005-.007.019-.008.004-.006.013-.008.01-.007h.014l.007-.007.013-.006.007-.008.015-.007.016-.008.008-.007h.012l.009-.008.015-.006.014-.007h.006l.016-.008.013-.007h.007l.016-.006h.012l.008-.008h.014l.015-.008M381.55 322.898h.01l.006-.007h.008l.004-.006h.008l.008-.011h.015l.008-.005h.014l.006-.008h.014l.01-.007h.016v-.008h.016l.009-.007h.03l.009-.006h.034l.008-.007h.175v.007h.04l.007.006h.021l.008.007h.02l.01.008h.02l.006.007M200.248 409.904l.513-.15M209.469 428.53l2.185-.8M390.578 325.764h.008l.01.007h.006l.012.008h.008l.007.006h.008l.005.007h.01l.009.007h.002l.015.008h.01l.005.006h.01l.006.008.008.007h.006l.007.008.008.007h.007l.008.006.006.008.01.007h.005l.007.007.008.009.005.007h.01l.005.008.009.006.007.007.005.008.01.007h.005v.006l.008.007.006.01.01.006.006.007.008.006.003.008v.007l.01.007.007.006.007.01v.006l.008.007.007.007.009.008v.006l.005.007.006.007v.009l.01.007.004.006v.007l.01.008v.007l.005.006.01.008v.007l.006.015v.008l.007.006v.007l.005.007v.008l.01.006v.024l.007.007v.007l.007.006v.023l.01.007v.021l.005.015v.021l.009.008v.05l.003.007v.079M209.465 428.53l-1.31.424-1.32.417-1.331.419-1.344.41-1.364.397-1.359.396-1.384.388M334.228 366.915l6.297-3.301M239.688 416.484l53.837-28.23M355.607 355.702l34.763-18.224M390.745 336.88l.308-10.433M382.09 322.861l8.488 2.903M332.526 347.445l49.025-24.547M228.555 399.505l64.264-32.177M92.6 441.129l107.648-31.225M98.202 459.8l101.853-28.419M390.745 336.88v.044l-.007.007v.041l-.008.01v.029l-.006.006v.023l-.007.007v.021l-.008.007v.014l-.005.007v.008l-.011.007v.014l-.005.007v.007l-.01.008v.014l-.004.007-.01.008v.007l-.002.006v.007l-.009.008v.007l-.01.008v.006l-.006.008-.008.007v.007l-.007.006-.008.008v.007l-.006.007-.006.009-.006.008v.007l-.01.006h-.008v.007l-.006.008-.008.007-.006.006-.008.008v.008h-.004l-.009.007-.01.007v.008h-.005l-.009.006-.005.007-.008.007-.004.009h-.008l-.007.007v.006h-.01l-.007.007-.007.008h-.008l-.007.007-.005.006h-.005l-.01.007-.006.008h-.01l-.009.008h-.004v.007h-.01l-.002.006h-.01M98.202 459.8l-.01.007h-.018l-.008.008h-.024l-.005.006h-.027l-.016.007h-.048l-.01.007h-.171l-.01-.007h-.05l-.015-.007h-.025l-.011-.006h-.02l-.005-.008h-.024l-.007-.007h-.023l-.002-.008h-.01l-.014-.007h-.01l-.005-.008h-.015l-.005-.006h-.01l-.005-.007h-.016l-.009-.008h-.005l-.007-.007-.015-.006h-.009l-.007-.008h-.008l-.014-.008-.003-.007h-.008l-.007-.007-.009-.006h-.015l-.008-.008-.006-.007-.006-.007h-.006l-.008-.009-.01-.008-.014-.007-.007-.006h-.005l-.006-.007-.009-.008-.005-.007-.01-.006-.009-.007-.005-.01-.01-.006h-.002l-.008-.007-.007-.006-.01-.008-.006-.007-.008-.007-.01-.006-.005-.01M93.341 455.355h-.008l-.007-.007-.008-.006v-.008h-.005v-.007h-.007v-.007l-.005-.006-.01-.008-.009-.007v-.008h-.005v-.007l-.01-.008-.005-.006v-.007h-.006v-.015h-.006v-.006l-.008-.008-.008-.008v-.007h-.008v-.013h-.008v-.008l-.006-.007v-.007l-.008-.009v-.008H93.2v-.013l-.008-.007v-.008l-.007-.007v-.006l-.01-.007v-.01l-.005-.006v-.013h-.009v-.022h-.008v-.016l-.005-.006v-.014l-.007-.008v-.013l-.005-.008v-.021l-.01-.008v-.02l-.006-.008v-.03l-.008-.006v-.044H93.1v-.028M93.341 455.355l3.947 4.197" style="fill:none;stroke:#00ff4a;stroke-width:1.99999;stroke-linecap:round;stroke-linejoin:round;stroke-miterlimit:4;stroke-dasharray:none;stroke-opacity:1;visibility:visible"/><path d="m225.206 291.897.1-.03.076-.034.056-.03.043-.037.036-.043.013-.036M202.439 298.103l.084.03.104.027.103.015.109.015.103.015h.325l.124-.015.107-.015.125-.02.117-.031M202.44 298.103l-5.976-2.448M196.27 295.454v.036l.016.043.02.03.036.027.05.036.074.03M203.738 298.124l21.47-6.226M203.738 298.125l-.412 2.19-.39 2.195-.361 2.21-.342 2.224-.317 2.233-.298 2.246-.27 2.254-.263 2.268-.229 2.274-.207 2.284-.189 2.297-.166 2.303-.14 2.319-.124 2.317-.101 2.334-.082 2.34-.057 2.34-.033 2.354-.017 2.363v2.367l.027 2.377.055 2.376.062 2.39.096 2.39.108 2.397.127 2.406.16 2.404.17 2.413.188 2.419.217 2.418.236 2.428.254 2.426.272 2.433.295 2.435.318 2.438.337 2.435.355 2.448.373 2.44.395 2.45.421 2.44.434 2.448.451 2.455.475 2.448.488 2.449.512 2.446.534 2.456.554 2.448.566 2.448.593 2.45M209.17 292.831l-.14.044-.121.058-.09.057-.061.065-.016.065.005.066.044.057.071.058.103.049.134.043.154.037.17.029.179.006.198.008.191-.007.191-.023.18-.029.165-.043.134-.05.125-.051.085-.064.056-.056.031-.067-.016-.063-.041-.066-.074-.057-.1-.05-.137-.045-.15-.035-.176-.02-.178-.017h-.195l-.193.01-.185.02-.183.03-.16.04M208.811 414.247l20.44-7.755" style="fill:none;stroke:#00ff4a;stroke-width:.999997;stroke-linecap:round;stroke-linejoin:round;stroke-miterlimit:4;stroke-dasharray:none;stroke-opacity:1;visibility:visible"/><path d="M229.555 406.162v.064l-.024.058-.034.058-.058.05-.078.05-.111.051M205.88 292.566l7.76-2.224M196.608 295.222l5.76-1.65" style="fill:none;stroke:#00ff4a;stroke-width:1.99999;stroke-linecap:round;stroke-linejoin:round;stroke-miterlimit:4;stroke-dasharray:none;stroke-opacity:1;visibility:visible"/><path d="m201.835 411.171 5.741 3.039M208.811 414.247l-.106.035-.115.03-.108.013-.115.014-.11.008h-.107l-.099-.007-.101-.014-.104-.016-.092-.029-.09-.026-.092-.045" style="fill:none;stroke:#00ff4a;stroke-width:.999997;stroke-linecap:round;stroke-linejoin:round;stroke-miterlimit:4;stroke-dasharray:none;stroke-opacity:1;visibility:visible"/><path d="m225.531 291.689-.331 1.656-.32 1.67-.315 1.678-.292 1.684-.283 1.692-.27 1.7-.257 1.705-.242 1.715-.231 1.713-.216 1.73-.203 1.725-.185 1.737-.18 1.733-.166 1.743-.15 1.75-.14 1.758-.123 1.755-.114 1.772-.103 1.764-.08 1.777-.076 1.78-.056 1.785-.05 1.786-.036 1.793-.025 1.8-.014 1.792.01 1.808.013 1.807.027 1.808.04 1.813.051 1.821.064 1.823.076 1.821.093 1.828.104 1.839.115 1.827.119 1.836.148 1.836.146 1.836.167 1.842.175 1.844.188 1.85.2 1.845.208 1.849.23 1.85.231 1.859.253 1.849.26 1.859.274 1.858.281 1.857.294 1.858.311 1.857.307 1.784.32 1.793.33 1.793.339 1.794.349 1.792.362 1.792.373 1.794.383 1.792.396 1.794.404 1.785.408 1.793.436 1.792M201.648 410.976l-.448-1.929-.438-1.93-.422-1.931-.419-1.929-.405-1.927-.388-1.93-.382-1.93-.364-1.93-.362-1.93-.344-1.923-.334-1.93-.324-1.927-.308-1.924-.305-1.923-.285-1.922-.275-1.916-.267-1.922-.25-1.921-.248-1.916-.222-1.916-.222-1.913-.2-1.908-.196-1.909-.178-1.91-.176-1.907-.15-1.9-.151-1.901-.13-1.9-.121-1.895-.109-1.893-.103-1.885-.076-1.895-.076-1.879-.064-1.885-.05-1.88-.026-1.873-.03-1.871-.008-1.865v-1.864l.014-1.859.032-1.85.035-1.858.047-1.843.065-1.844.081-1.833.095-1.837.101-1.831.116-1.82.13-1.821.132-1.816.15-1.807.177-1.8.171-1.75.19-1.748.201-1.743.209-1.737.222-1.734.237-1.721.247-1.72.266-1.715.27-1.697.294-1.7M225.531 291.689v-.044l-.014-.043-.028-.03-.036-.033-.059-.038-.072-.031M196.608 295.222l-.1.03-.082.042-.064.029-.041.043-.035.036-.016.05M225.32 291.471l-6.02-2.36M201.835 411.171l-.049-.028-.044-.036-.036-.03-.02-.027-.025-.038-.015-.036" style="fill:none;stroke:#00ff4a;stroke-width:1.99999;stroke-linecap:round;stroke-linejoin:round;stroke-miterlimit:4;stroke-dasharray:none;stroke-opacity:1;visibility:visible"/><path d="m225.166 420.294-2.901 1.821M223.504 419.703l-1.239 2.412M225.178 419.56l-1.674.143M294.965 466.775l-.584 4.19" style="fill:none;stroke:#00ff4a;stroke-width:.999997;stroke-linecap:round;stroke-linejoin:round;stroke-miterlimit:4;stroke-dasharray:none;stroke-opacity:1;visibility:visible"/><path d="m313.8 465.811 3.05-3.701M313.8 465.811l3.05-3.701M305.649 473.321l.315-6.279M313.8 465.811l-7.836 1.231M316.85 462.11l-3.05 3.701M316.85 462.11l-3.05 3.701" style="fill:none;stroke:#00ff4a;stroke-width:.666665;stroke-linecap:round;stroke-linejoin:round;stroke-miterlimit:4;stroke-dasharray:none;stroke-opacity:1;visibility:visible"/><path d="m438.89 405.691-5.513 3.629" style="fill:none;stroke:#00ff4a;stroke-width:.999997;stroke-linecap:round;stroke-linejoin:round;stroke-miterlimit:4;stroke-dasharray:none;stroke-opacity:1;visibility:visible"/><path d="m433.436 408.161 5.312.353M120.918 434.549l-5.105 2.671M120.918 434.549l-5.105 2.671M115.813 437.22l5.105-2.671M115.813 437.22l5.105-2.671M115.813 437.22l-8.273.93M115.813 437.22l-8.273.93" style="fill:none;stroke:#00ff4a;stroke-width:.666665;stroke-linecap:round;stroke-linejoin:round;stroke-miterlimit:4;stroke-dasharray:none;stroke-opacity:1;visibility:visible"/><path d="m342.397 353.499-8.515 2.246M91.925 442.094l5.233 4.369" style="fill:none;stroke:#00ff4a;stroke-width:.999997;stroke-linecap:round;stroke-linejoin:round;stroke-miterlimit:4;stroke-dasharray:none;stroke-opacity:1;visibility:visible"/><path d="m305.01 472.161 6.412-12.974M210.753 419.456l.901 8.274M342.397 353.499l-8.169 13.416M338.36 355.608l2.165 8.006M235.555 406.001l4.133 10.483M345.983 351.62l9.624 4.082M342.397 353.499l-9.871-6.054M235.555 406.001l-7-6.496" style="fill:none;stroke:#00ff4a;stroke-width:1.99999;stroke-linecap:round;stroke-linejoin:round;stroke-miterlimit:4;stroke-dasharray:none;stroke-opacity:1;visibility:visible"/><path d="m205.88 292.566 3.29.265M213.64 290.342l-4.47 2.488" style="fill:none;stroke:#00ff4a;stroke-width:.999997;stroke-linecap:round;stroke-linejoin:round;stroke-miterlimit:4;stroke-dasharray:none;stroke-opacity:1;visibility:visible"/><path d="m209.17 292.831-3.29-.265M209.17 292.83l4.47-2.488M205.88 292.566l-3.512 1.006M202.44 298.103l16.86-8.992" style="fill:none;stroke:#00ff4a;stroke-width:1.99999;stroke-linecap:round;stroke-linejoin:round;stroke-miterlimit:4;stroke-dasharray:none;stroke-opacity:1;visibility:visible"/><path d="m305.175 280.642-.194.064-.158.072-.126.08-.095.087-.06.093-.02.085.02.095.065.087.095.085.135.081.166.07.198.066.219.058.246.042.259.035.277.023.278.005.28-.005.277-.015.266-.036.248-.036.23-.057.209-.058.18-.072.147-.078.112-.087.074-.086.037-.087v-.094l-.043-.093-.08-.085-.122-.081-.152-.08-.178-.063-.208-.058-.24-.049-.252-.045-.267-.023-.273-.012-.282-.008-.281.013-.267.023-.257.035-.248.052-.215.057M316.906 277.122l-.19.064-.156.074-.129.08-.088.084-.06.086-.013.095.032.085.065.087.09.088.141.078.164.067.198.063.224.057.239.044.258.03.273.019.281.007.275-.007.273-.013.262-.03.252-.042.22-.051.21-.057.173-.072.137-.08.11-.078.068-.087.039-.087-.008-.093-.043-.086-.09-.086-.113-.079-.15-.072-.18-.071-.216-.061-.232-.048-.252-.037-.263-.023-.276-.013-.274-.007-.274.013-.273.023-.251.035-.241.044-.212.057M311.577 279.053l-.142.05-.115.058-.089.064-.041.073-.011.07.035.067.061.071.103.057.135.058.156.049.189.037.202.023.21.02h.223l.217-.015.2-.02.195-.028.169-.045.15-.05.114-.064.084-.065.044-.065.007-.072-.027-.072-.067-.064-.099-.065-.139-.05-.161-.053-.182-.035-.204-.027-.207-.015h-.226l-.206.005-.21.023-.195.036-.173.044" style="fill:none;stroke:#9500ff;stroke-width:.666665;stroke-linecap:round;stroke-linejoin:round;stroke-miterlimit:4;stroke-dasharray:none;stroke-opacity:1;visibility:visible"/><path d="m297.357 293.215.01-.158.027-.158.05-.152.064-.15M297.357 293.215l.076.022.076.021M297.417 300.738l.072.023.076.019M297.417 300.738l.005.144.028.144.05.124.066.107M304.542 283.949l.641 145.806M326.922 277.179l.107-.034.088-.045.063-.05.039-.05.012-.05M326.922 277.18l-22.377 6.768M303.117 283.926l.142.044.175.036.185.021.198.008.2-.008.187-.014.181-.03.157-.033M303.117 283.926l-5.427-1.921M297.43 281.78l.015.066.05.056.086.05.106.052M298.193 408.564l.009-.144.018-.144.053-.144.057-.144M298.193 408.564l.065.03.077.028M298.238 415.435l.072.028.07.03M298.238 415.435l.015.136.026.121.042.11.065.093" style="fill:none;stroke:#9500ff;stroke-width:.999997;stroke-linecap:round;stroke-linejoin:round;stroke-miterlimit:4;stroke-dasharray:none;stroke-opacity:1;visibility:visible"/><path d="m297.43 281.78 1.033 145.124M327.231 276.949l-.636 143.581M327.231 276.949l-.024-.059-.05-.056-.085-.059-.117-.05M297.76 281.535l-.113.045-.097.042-.07.05-.035.058-.015.052M321.513 274.875l-.151-.044-.164-.028-.183-.02-.194-.01h-.194l-.185.024-.175.021-.152.043-22.352 6.674M326.955 276.726l-5.442-1.85M298.709 427.192l-.107-.065-.073-.065-.049-.078-.017-.08M305.185 429.755l-.151.05-.167.038-.181.02-.187.007-.185-.014-.181-.02-.156-.046-.14-.058-5.127-2.54M305.185 429.755l21.115-8.92M326.595 420.532l-.014.064-.036.066-.056.064-.08.057-.11.052" style="fill:none;stroke:#9500ff;stroke-width:1.99999;stroke-linecap:round;stroke-linejoin:round;stroke-miterlimit:4;stroke-dasharray:none;stroke-opacity:1;visibility:visible"/><path d="m304.545 283.948.63-3.306M304.542 283.95l.633-3.308M311.577 279.053l5.329-1.931M311.577 279.053l5.329-1.931M316.906 277.122l-5.329 1.931M316.906 277.122l-5.329 1.931" style="fill:none;stroke:#9500ff;stroke-width:.666665;stroke-linecap:round;stroke-linejoin:round;stroke-miterlimit:4;stroke-dasharray:none;stroke-opacity:1;visibility:visible"/><path d="m444.919 239.913 5.793-1.743M450.71 238.17l.15-.05.129-.058.099-.064.082-.065.045-.073.024-.064M440.976 239.365l.016.079.04.08.083.07.112.08.139.072.164.066.196.064.218.05.234.05.245.038.267.035.266.021.274.016h.274l.272-.01.262-.011.244-.025.236-.034.209-.044.193-.05M438.448 238.97l.59.166M439.039 239.136l.437-.13M439.478 239.005l-1.015-.281M455.77 237.817l.086-.03.052-.041.022-.037M455.77 237.817l-9.82 2.967M445.95 240.784l-1.028-.28M444.919 240.504l-.43.129M444.488 240.633l1.023.287M445.51 240.92l-1.606.485M442.956 241.396l.124.029.142.023.15.006h.144l.152-.006.13-.015.107-.03M442.956 241.396l-6.472-1.792M436.25 239.452l.018.036.042.042.08.036.094.036M445.69 229.768l-.114.044-.08.04-.054.054-.014.049.014.059.05.049.078.051.106.049.146.046.16.035.172.028.186.022.196.007.19.007.199-.008.175-.022.162-.021.136-.037.114-.034.082-.052.06-.05.01-.05-.01-.058-.052-.05-.08-.05-.115-.05-.137-.044-.16-.036-.17-.03-.198-.019-.192-.009-.196-.008-.19.008-.168.022-.166.022-.14.036" style="fill:none;stroke:#ffdf00;stroke-width:.999997;stroke-linecap:round;stroke-linejoin:round;stroke-miterlimit:4;stroke-dasharray:none;stroke-opacity:1;visibility:visible"/><path d="m436.555 373.343-1.928-.756M437.46 373.358l1.536-.648" style="fill:none;stroke:#ffdf00;stroke-width:1.99999;stroke-linecap:round;stroke-linejoin:round;stroke-miterlimit:4;stroke-dasharray:none;stroke-opacity:1;visibility:visible"/><path d="m436.555 373.343 6.403-131.947" style="fill:none;stroke:#ffdf00;stroke-width:.999997;stroke-linecap:round;stroke-linejoin:round;stroke-miterlimit:4;stroke-dasharray:none;stroke-opacity:1;visibility:visible"/><path d="m439.412 372.537 4.983-2.103" style="fill:none;stroke:#ffdf00;stroke-width:1.99999;stroke-linecap:round;stroke-linejoin:round;stroke-miterlimit:4;stroke-dasharray:none;stroke-opacity:1;visibility:visible"/><path d="m439.412 372.537-.402-.16" style="fill:none;stroke:#ffdf00;stroke-width:.999997;stroke-linecap:round;stroke-linejoin:round;stroke-miterlimit:4;stroke-dasharray:none;stroke-opacity:1;visibility:visible"/><path d="m437.46 373.358-.106.035-.124.022-.134.016h-.146l-.143-.021-.13-.024-.123-.043" style="fill:none;stroke:#ffdf00;stroke-width:1.99999;stroke-linecap:round;stroke-linejoin:round;stroke-miterlimit:4;stroke-dasharray:none;stroke-opacity:1;visibility:visible"/><path d="m451.308 236.362-.07 1.432M441.046 237.954l-.071 1.41M443.61 376.346l-.34.259M438.09 378.707l-.34.259M438.09 378.707l5.522-2.361M443.61 376.346l.145-.064.121-.08M443.61 376.346l.296-5.703M434.575 378.362l.123.093.158.095.184.085.196.08.226.065.238.058.242.042.26.037.258.013.267.008.261-.008.25-.02.239-.03.225-.048.206-.059.183-.066.281-5.732M451.652 229.66l-.014.072-.05.065-.074.063-.107.066-.127.058-.154.05M451.127 230.034l-5.803 1.7M445.324 231.734l-.194.05-.218.044-.226.029-.256.028-.256.015-.268.006-.276-.006-.278-.015-.268-.021-.266-.03-.251-.036-.23-.05-.215-.049-.199-.066-.17-.065-.138-.064-.105-.08-.08-.072-.051-.08-.015-.07M444.914 240.756l.008-.252M439.412 372.537l6.536-131.753" style="fill:none;stroke:#ffdf00;stroke-width:.999997;stroke-linecap:round;stroke-linejoin:round;stroke-miterlimit:4;stroke-dasharray:none;stroke-opacity:1;visibility:visible"/><path d="m443.479 376.49.399-.288M434.935 378.686l-.361-.326M444.115 375.835l.281-5.4M434.364 377.966l.262-5.379M451.163 229.069l.404.41M441.919 230.646l-.447.374M451.652 229.66l-.345 6.702M441.366 231.2l-.318 6.755M455.93 237.709l-6.975 130.716M436.25 239.452l-6.025 131.3M443.876 376.202l.1-.087.075-.085.041-.096.024-.099M434.364 377.966l.01.1.041.101.065.094.095.099M442.27 230.482l-.147.05-.116.05-.09.066M451.163 229.069l-.085-.064-.11-.059-.137-.065-.167-.051-.184-.048-.211-.044-.215-.03-.238-.026-.236-.016-.238-.014-.247.006-.23.008-.223.015-.207.028-.19.036-.168.043-5.807 1.692M451.566 229.48l.05.064.03.058.007.058M441.366 231.2l.016-.062.034-.058.056-.06M444.396 370.435l4.407-1.858M448.954 368.425l-.015.05-.06.05-.076.051M430.44 370.953l-.09-.043-.064-.05-.043-.052-.017-.058M434.626 372.586l-4.186-1.636M438.023 238.856l.425.114.015-.245M441.046 237.954l-2.583.77M455.93 237.709l-.015-.044-.045-.043-.078-.036-.101-.036-4.384-1.188M436.418 239.33l-.074.028-.046.028-.031.03-.017.036M438.023 238.856l-1.605.476M437.75 378.966l-.16.057-.17.044-.196.043-.208.023-.216.013h-.225l-.221-.007-.224-.022-.216-.037-.206-.042-.198-.05-.174-.065-.156-.071-.136-.081-.106-.086M443.479 376.49l-.09.056-.118.059-5.521 2.36" style="fill:none;stroke:#ffdf00;stroke-width:1.99999;stroke-linecap:round;stroke-linejoin:round;stroke-miterlimit:4;stroke-dasharray:none;stroke-opacity:1;visibility:visible"/><path d="m445.324 231.734.366-1.966M445.324 231.734l.366-1.966" style="fill:none;stroke:#ffdf00;stroke-width:.999997;stroke-linecap:round;stroke-linejoin:round;stroke-miterlimit:4;stroke-dasharray:none;stroke-opacity:1;visibility:visible"/><path d="m121.209 270.42-2.693-2.537" style="fill:none;stroke:red;stroke-width:1.99999;stroke-linecap:round;stroke-linejoin:round;stroke-miterlimit:4;stroke-dasharray:none;stroke-opacity:1;visibility:visible"/></svg>