<svg xmlns="http://www.w3.org/2000/svg" baseProfile="full" height="1122.52" preserveAspectRatio="xMinYMin meet" style="width:912px;height:1246px" width="793.701" xml:space="preserve"><path d="m270.111 777.06.172-.044.202-.036.209-.03.217-.018.224-.009.222-.006.217.007.207.02.201.023.181.035M373.51 805.473l.157-.059.196-.05.207-.044.224-.038.238-.019.243-.008h.247l.242.008.24.02.229.037.211.043.183.051.168.059M283.049 771.236h.006M139.446 800.345l-.066-.028-.058-.01M447.662 716.313l.08-.023.076-.005.09.005M448.058 716.29l-.08-.006-.069.006M143.562 803.302l.076.076.07.099.065.13.064.15.057.174.052.186.035.188.023.185M457.603 719.064l-.02.036-.036.036-.075.029M145.334 819.207l.01.153v.143l-.016.122-.022.11-.036.08-.044.047-.048.032M143.562 803.302l-4.116-2.957M145.334 819.207l-1.33-14.716M144.004 804.491l110.266-20.087M254.27 784.402l1.736-.322 1.721-.323 1.707-.339 1.692-.338 1.672-.34 1.655-.351M264.451 782.389l25.195-5.976M289.645 776.413l1.052-.339 1.03-.346 1.023-.346M289.645 776.413l.028.877M292.749 775.382l164.725-56.217M139.956 816.034l.036.17.066.161.1.143.123.115M139.956 816.034l-.04-.043-.024-.05M255.258 777.896l-.073-.03h-.07M283.055 771.236h.232M165.078 797.803l.247-.072.215-.078.185-.08.159-.095.12-.085.098-.095.051-.092.012-.095-.019-.091-.068-.089-.092-.078-.13-.079-.167-.067-.195-.056-.221-.05-.245-.044-.264-.03-.282-.02-.297-.007-.301.007-.304.015-.303.03-.3.033-.29.051-.264.058-.255.065-.228.072-.211.08-.173.085-.143.094-.1.087-.073.093-.035.093v.095l.041.093.082.08.108.08.152.069.18.066.208.057.23.044.258.036.273.028.297.009.296.006.307-.015.303-.02.302-.029.298-.042.28-.059.259-.058" style="fill:none;stroke:red;stroke-width:.999997;stroke-linecap:round;stroke-linejoin:round;stroke-miterlimit:4;stroke-dasharray:none;stroke-opacity:1;visibility:visible"/><path d="m272.831 776.858.234-.064.2-.073.172-.079.143-.086.11-.087.077-.085.036-.095.007-.093-.028-.087-.057-.084-.099-.081-.132-.08-.159-.07-.194-.065-.216-.059-.235-.05-.27-.043-.272-.028-.293-.023-.304-.014h-.301l-.312.008-.308.02-.296.03-.296.036-.273.05-.26.061-.238.056-.214.07-.188.081-.159.076-.127.089-.096.085-.066.094-.019.086.007.094.044.086.077.088.115.078.146.078.179.066.201.064.233.052.25.05.264.036.29.028.301.014.302.009.313-.01.306-.012.315-.022.293-.036.279-.043.273-.05.245-.066M507.925 765.045l.202-.03.216-.013.222-.008.232.007.23.015.23.02.21.031.203.043M376.943 805.32l.239-.08.205-.084.183-.094.136-.102.11-.1.062-.109.024-.108-.008-.108-.059-.109-.087-.106-.128-.099-.157-.096-.196-.095-.232-.077-.252-.073-.277-.065-.296-.052-.318-.04-.332-.031-.338-.019-.338-.008-.34.008-.337.02-.332.03-.308.039-.303.061-.274.064-.25.071-.225.088-.195.085-.158.103-.123.101-.083.107-.052.108-.009.108.028.108.073.108.102.1.145.1.177.096.211.085.243.08.266.065.287.063.316.047.323.035.337.025.337.008h.344l.34-.012.338-.021.322-.045.311-.042.29-.065.259-.074M276.57 798.083l.028.231.044.224.07.223.081.216.102.202.112.186.127.165.133.144.146.11.134.084.147.051.141.015.14-.014.123-.043.112-.079.103-.116M591.812 756.48l.108-.05.108-.078.087-.094.062-.122.048-.136.026-.144M592.252 755.857l.067-.024.048-.027.028-.036.014-.03M593.29 743.048l.065-.028.051-.031.032-.027.009-.03M581.761 739.628h-.073l-.068.012M592.676 742.082l.076-.014h.063M581.617 739.641l-.09-.013h-.098l-.084.012M355.48 805.7l.086-.013h.094l.094.02M355.755 805.707l10.845 3.804M366.6 809.51l.13.064.128.103.114.128.108.152.09.178.064.188.034.197.016.193M367.344 826.026l-.004.175-.036.157-.057.139-.073.112-.092.08-.108.05M367.282 810.713l226.007-67.665M367.282 810.713l.062 15.313" style="fill:none;stroke:red;stroke-width:.999997;stroke-linecap:round;stroke-linejoin:round;stroke-miterlimit:4;stroke-dasharray:none;stroke-opacity:1;visibility:visible"/><path d="m510.879 764.914.186-.058.162-.072.12-.071.096-.08.056-.08.02-.087-.01-.084-.049-.09-.084-.082-.115-.082-.145-.084-.17-.072-.211-.074-.223-.066-.252-.056-.267-.05-.28-.045-.298-.027-.298-.022-.312-.015-.3-.008-.305.008-.289.015-.282.022-.264.036-.242.043-.23.05-.198.059-.174.063-.141.073-.111.078-.069.08-.044.084-.008.089.03.085.062.08.1.086.125.088.16.072.191.078.217.066.237.065.26.05.273.051.297.034.296.03.308.016.31.01.301-.006.297-.004.288-.024.283-.03.247-.034.242-.049.208-.059M355.092 806.45l-89.082-23.97M401.646 741.189l104.82 20.356M282.02 799.885l.034.028.024.03.008.013M275.037 794.19l-.082-.024-.057-.033-.035-.036-.016-.039M275.037 794.189v-.15l.023-.161.043-.151M279.543 795.447v-.157l.023-.152.043-.157M280.551 803.23l-.125-.05-.113-.085-.094-.111-.072-.125-.05-.156-.02-.156M280.84 795.413v-.044l-.008-.05M280.075 802.547l-.529-7.1M277.794 797.014l-.144-.103-.152-.078-.144-.036h-.143l-.129.026-.13.067-.11.093-.092.13-.08.15-.057.18-.036.204-.015.215.008.223" style="fill:none;stroke:red;stroke-width:.999997;stroke-linecap:round;stroke-linejoin:round;stroke-miterlimit:4;stroke-dasharray:none;stroke-opacity:1;visibility:visible"/><path d="M592.41 755.74v.03l-.008.006v.044l-.007.006v.03l-.006.014v.007l-.008.007v.022l-.004.007v.016l-.01.007v.02l-.007.009v.005l-.007.016v.007l-.01.007-.003.014v.007l-.01.007v.008l-.003.014-.008.007v.008l-.01.007-.006.014v.008l-.008.007-.007.007-.008.008v.013l-.007.007-.005.009-.005.007v.006l-.01.007-.01.008-.005.013-.008.007-.006.007-.01.009v.007l-.001.008-.009.008-.007.006-.01.007-.007.007-.007.008-.01.006-.003.007-.008.007-.005.009-.011.007-.008.006-.008.008-.007.007-.012.007-.005.006-.01.008h-.006l-.008.008-.01.007-.004.007-.008.008-.013.006h-.006l-.011.006-.005.009-.008.008h-.014l-.006.007-.007.006-.009.007h-.006l-.017.008h-.005l-.007.007-.013.006h-.008l-.008.008h-.007l-.017.008-.003.007h-.01l-.014.007h-.006l-.01.006h-.02l-.005.008M366.972 826.74l224.841-70.257M592.41 755.74l1.036-12.807M592.813 742.068l.017.006h.006l.01.008h.024l.01.008h.016l.009.006.01.008h.014l.007.008h.014l.006.008.014.006h.009l.016.007.005.008h.012l.01.008.004.005.021.007h.003l.013.008.009.007.005.008.019.006.007.008.007.008.013.006.005.006.01.008.013.007.011.007.004.008.009.008.012.006.006.008.008.006.009.009.007.007.008.006.012.015.007.007.008.006.005.008.01.007.01.015.003.008.008.006.005.014.01.008.005.006.008.008v.016l.008.008.008.012.01.008.001.007.011.013v.01l.004.013.01.007.007.008v.012l.009.008.004.016v.006l.008.015v.007l.008.014.005.01v.012l.011.008v.013l.004.016v.02l.01.008v.02l.006.016v.023l.008.013v.044l.007.013v.115l-.007.015M581.345 739.641h.02v-.007h.03v-.006h.035v-.008h.046l.004-.007h.203l.006.007h.036l.008.008h.028M581.761 739.628l11.054 2.44M355.092 806.427l.008-.172.036-.165.058-.137.081-.115.09-.087.118-.051 225.862-66.06M366.972 826.74l-.098.023-.096-.008-.108-.029M355.898 822.78l10.772 3.947M355.898 822.78l-.13-.066-.12-.099-.116-.131-.104-.158-.085-.172-.063-.18-.036-.194-.016-.189M355.092 806.427l.14 15.163M255.113 777.866l-115.79 22.441M447.662 716.313l-164.613 54.923M138.546 801.331v-.016l-.008-.013v-.11l.008-.012v-.059l.008-.014v-.029l.007-.015v-.028l.008-.008v-.013l.005-.014v-.014l.007-.015v-.014l.007-.015.008-.007v-.014l.008-.016.008-.015v-.013l.006-.015.008-.007.004-.015.008-.014.007-.015v-.006l.008-.015.008-.015.008-.005.008-.016.007-.013.004-.007.008-.016.014-.013.01-.008.006-.014.008-.008.007-.014.004-.007.015-.014.008-.007.009-.015.007-.007.012-.016.008-.008.013-.005.008-.015.01-.007.015-.015.004-.007.016-.008.006-.007.017-.013.007-.008.012-.007.008-.008.013-.006.01-.015.014-.006.013-.007.007-.008.015-.007.014-.007.01-.008.01-.008.015-.005.016-.008.007-.008h.013l.015-.007.016-.006.014-.007.008-.01h.014l.013-.004.016-.009.012-.006h.016l.007-.008h.016l.014-.007h.012l.015-.007h.016l.015-.006h.012l.014-.01M447.662 716.313v-.007h.028v-.008h.02v-.008h.038v-.005h.038l.006-.007h.07v-.006h.058l.008.006h.07l.011.007h.026l.008.005h.016M457.03 718.324l-8.972-2.031M457.03 718.324h.022l.006.006h.022l.006.007h.016l.008.01h.004l.014.004h.008l.01.007h.006l.015.007h.007l.005.008.017.008h.008l.008.007.006.006h.012l.008.008.006.008h.008l.01.006.015.008.003.009.008.007h.007l.008.006.005.007.01.008.017.005.004.007.005.008.01.01.005.005h.008l.01.008.007.008.006.006.005.006.008.006.007.01.008.014.008.007.008.008v.005l.009.007.003.008.009.008.005.008.01.007.004.014v.006l.012.006.004.008.009.01v.013l.007.007.004.008v.005l.009.007.007.017v.008l.008.007.008.012v.008l.008.006v.016l.008.007v.008l.004.012v.008l.008.007v.022l.006.008v.014l.008.006v.031l.006.013v.028l.01.008v.066l.006.008v.049M144.377 819.706l-4.095-3.083M457.603 719.064l-.343 11.598M145.177 819.894h-.028l-.013.007h-.051l-.008.006h-.173l-.007-.006h-.05l-.016-.007h-.027l-.01-.007h-.029l-.005-.007h-.023l-.015-.007h-.014l-.006-.008h-.012l-.011-.007h-.019l-.009-.008h-.006l-.007-.007h-.016l-.006-.006h-.008l-.008-.007h-.006l-.006-.008h-.016l-.007-.007h-.007l-.008-.009h-.006l-.006-.006h-.008l-.008-.009h-.009l-.007-.006h-.006l-.008-.007-.007-.007h-.005l-.007-.008h-.008l-.01-.006-.005-.008h-.009l-.007-.007h-.006l-.006-.008-.006-.007h-.01l-.008-.006-.006-.007h-.008l-.007-.008M457.262 730.662v.035l-.01.01v.048l-.008.015v.023l-.006.007v.02l-.006.008v.022l-.005.007v.015l-.01.006v.015l-.005.008v.013l-.009.007v.008l-.007.015v.006l-.008.008-.01.007v.007l-.001.006v.008l-.011.007v.015l-.003.008-.013.008v.006l-.004.007-.01.008v.007l-.008.006-.005.008v.007l-.007.008-.005.007-.011.008v.006l-.006.008-.009.006-.005.008-.008.006v.008l-.006.007-.006.008-.008.007-.008.006-.008.007h-.006l-.008.008v.008l-.007.007-.005.006-.008.008h-.007l-.01.007-.005.007-.01.006-.003.008h-.011l-.005.008-.005.007-.011.007h-.005l-.008.008-.007.006h-.008l-.007.007-.005.008h-.016l-.01.007-.004.008h-.011l-.002.006h-.009l-.004.008h-.01l-.009.008h-.016l-.004.007h-.01l-.003.007h-.008l-.009.008h-.015M254.703 799.07l-109.526 20.823M407.155 749.016l-95.328 33.964M456.755 731.348l-27.479 9.79M264.767 796.99l-1.404.308-1.408.303-1.429.304-1.44.293-1.453.296-1.46.29-1.471.286M274.877 794.483l-10.1 2.507M140.281 816.623l-.008-.006-.008-.008h-.008l-.004-.007v-.007h-.007l-.008-.005-.006-.01-.01-.006h-.006l-.008-.008v-.006l-.008-.009h-.004l-.007-.006-.008-.007-.008-.007v-.008h-.008l-.007-.006-.006-.01v-.006l-.01-.008-.004-.008h-.008v-.006l-.006-.006-.008-.008-.008-.007v-.007l-.008-.008-.007-.008-.007-.005-.005-.008v-.008l-.008-.007-.007-.006v-.007l-.008-.01-.008-.005v-.008l-.006-.006-.008-.008v-.007h-.007v-.007l-.007-.006v-.01l-.008-.006-.008-.007v-.007L140 816.3v-.007l-.008-.007v-.006l-.007-.009v-.009l-.008-.005v-.007l-.004-.008v-.012l-.008-.01v-.006l-.008-.016v-.007l-.008-.008v-.013l-.008-.008v-.015l-.007-.006v-.015l-.006-.006v-.015l-.008-.007v-.03l-.004-.005v-.022l-.008-.007v-.03l-.008-.014v-.043l-.008-.007M138.546 801.331l1.347 14.609M255.113 777.866l1.63-.316 1.619-.322 1.597-.334 1.591-.33 1.579-.34 1.561-.337 1.541-.346 1.531-.352 1.513-.352 1.498-.355 1.482-.366 1.463-.36 1.447-.367 1.354-.353 1.342-.354 1.316-.36 1.308-.36 1.289-.366 1.275-.36M264.775 796.99h-.008" style="fill:none;stroke:red;stroke-width:1.99999;stroke-linecap:round;stroke-linejoin:round;stroke-miterlimit:4;stroke-dasharray:none;stroke-opacity:1;visibility:visible"/><path d="M276.053 801.937h-.01l-.013-.008h-.005l-.015-.007h-.008l-.016-.008h-.007l-.012-.007h-.006l-.016-.006h-.007l-.01-.007-.015-.008h-.004l-.015-.006-.008-.007-.007-.008h-.016l-.005-.008-.013-.007-.01-.007h-.005l-.016-.006-.008-.008-.005-.007-.014-.007-.009-.009-.007-.008h-.008l-.013-.007-.007-.006-.006-.007-.008-.008-.009-.007-.014-.006-.007-.008-.008-.007-.005-.008-.007-.007-.008-.013-.014-.008-.008-.006-.007-.009-.005-.006-.01-.008-.006-.007-.011-.008-.005-.012-.007-.008-.008-.008-.007-.008-.005-.006-.008-.015-.007-.007-.009-.007-.007-.006-.007-.016v-.007l-.007-.007-.007-.014-.005-.007-.007-.008-.008-.013v-.01l-.01-.006-.006-.015-.008-.007v-.008l-.007-.013-.005-.008v-.013l-.007-.008-.006-.016v-.006l-.011-.006v-.017l-.007-.006v-.013l-.006-.007v-.014l-.008-.007v-.016l-.007-.007v-.013l-.005-.008v-.022l-.007-.014v-.023l-.007-.005v-.025l-.009-.013v-.057l-.008-.008M276.053 801.937l4.5 1.293M281.047 803.23v.008h-.027l-.007.008h-.031v.008h-.035l-.007.006h-.058v.006h-.15l-.008-.006h-.058v-.006h-.035l-.006-.008h-.032l-.007-.008h-.019l-.007-.008h-.007M281.415 803.14l-.365.09M278.311 799.682l.087-.137.065-.159.051-.185.021-.203.008-.21-.008-.221-.034-.231-.058-.232-.073-.217-.087-.213-.108-.194-.113-.18-.13-.159-.139-.129" style="fill:none;stroke:red;stroke-width:.999997;stroke-linecap:round;stroke-linejoin:round;stroke-miterlimit:4;stroke-dasharray:none;stroke-opacity:1;visibility:visible"/><path d="M274.847 794.058v-.18h.011v-.05h.007v-.036h.008v-.029h.004v-.029h.006v-.019h.008v-.025h.007v-.013l.008-.008" style="fill:none;stroke:red;stroke-width:1.99999;stroke-linecap:round;stroke-linejoin:round;stroke-miterlimit:4;stroke-dasharray:none;stroke-opacity:1;visibility:visible"/><path d="m284.02 796.213-1.934 3.744M282.085 799.955l-.079.16-.07.17-.057.181-.051.184-.041.169-.017.181-.016.18-.008.18.008.166M281.754 801.526l.067.828M281.818 802.353v.194l-.016.094-.019.086-.03.08-.035.078-.043.073-.058.059-.067.057-.064.036-.072.029M274.847 794.058l.534 7.064M402.13 740.254l2.77-.929 5.28-1.764M402.13 740.254l-.094.042-.086.08-.086.101-.074.115-.064.137-.043.15-.025.154-.011.156M401.59 747.353l.02-2.75M401.608 744.6l.036-3.411M401.59 747.353l.006.13.022.128.04.109.048.093.056.073.074.058.068.028" style="fill:none;stroke:red;stroke-width:.999997;stroke-linecap:round;stroke-linejoin:round;stroke-miterlimit:4;stroke-dasharray:none;stroke-opacity:1;visibility:visible"/><path d="m491.525 765.914-89.62-17.942M518.452 758.038l-108.13-20.49M410.322 737.548h-.074l-.068.012" style="fill:none;stroke:red;stroke-width:1.99999;stroke-linecap:round;stroke-linejoin:round;stroke-miterlimit:4;stroke-dasharray:none;stroke-opacity:1;visibility:visible"/><path d="m266.186 782.44-.181.042M266.006 782.48l-.141.053-.147.087-.123.108-.108.136-.084.156-.066.166-.035.174-.007.18M265.293 783.54l.304 6.985M265.595 790.524l.025.158.041.152.073.13.093.108.115.086.124.05" style="fill:none;stroke:red;stroke-width:.999997;stroke-linecap:round;stroke-linejoin:round;stroke-miterlimit:4;stroke-dasharray:none;stroke-opacity:1;visibility:visible"/><path d="m355.18 816.049-89.116-24.84M376.46 799.56l-87.642-22.483M288.817 777.074l-.138-.021-.142.021" style="fill:none;stroke:red;stroke-width:1.99999;stroke-linecap:round;stroke-linejoin:round;stroke-miterlimit:4;stroke-dasharray:none;stroke-opacity:1;visibility:visible"/><path d="m272.831 776.858-2.72.202M376.944 805.319l-3.434.154M279.546 795.447l1.294-.034M281.821 802.354l-.989-7.035" style="fill:none;stroke:red;stroke-width:.999997;stroke-linecap:round;stroke-linejoin:round;stroke-miterlimit:4;stroke-dasharray:none;stroke-opacity:1;visibility:visible"/><path d="m402.13 740.254 5.025 8.762M410.18 737.561l19.096 3.577M355.898 822.78l-.718-6.731" style="fill:none;stroke:red;stroke-width:1.99999;stroke-linecap:round;stroke-linejoin:round;stroke-miterlimit:4;stroke-dasharray:none;stroke-opacity:1;visibility:visible"/><path d="m284.748 952.594-.005-.21-.035-.214-.052-.215-.072-.224-.085-.21-.103-.202-.12-.18-.13-.165-.133-.137-.141-.106-.147-.088-.134-.05-.138-.015-.126.015-.116.044-.11.078-.086.108-.072.136-.052.159-.036.181-.006.2.006.21.036.216.052.217.072.223.086.208.102.194.124.188.126.158.13.144.142.108.147.086.135.05.138.014.131-.014.11-.043.113-.079.085-.108.072-.137.052-.159.035-.178.005-.203" style="fill:none;stroke:#00ff4a;stroke-width:.999997;stroke-linecap:round;stroke-linejoin:round;stroke-miterlimit:4;stroke-dasharray:none;stroke-opacity:1;visibility:visible"/><path d="m285.973 956.425.016-6.243-4.367-2.505M282.66 946.524l-.1-.041-.101-.016-.086.016M281.438 947.433l.015.064.034.065.056.058.082.058" style="fill:none;stroke:#00ff4a;stroke-width:.999997;stroke-linecap:round;stroke-linejoin:round;stroke-miterlimit:4;stroke-dasharray:none;stroke-opacity:1;visibility:visible"/><path d="m286.679 949.146-.137.064-.128.095-.115.113-.11.13-.087.151-.062.159-.038.167-.015.157M285.973 956.425l.007.13.036.122.05.101.064.087.091.065M287.022 949.023l.06-.015.05.015M282.66 946.524l.067-.007.048.015M288.651 956.382h-.015M286.823 957.051l-.028-.007h-.032M288.651 956.374l-1.685.62M285.914 956.756l.305.175" style="fill:none;stroke:#00ff4a;stroke-width:.999997;stroke-linecap:round;stroke-linejoin:round;stroke-miterlimit:4;stroke-dasharray:none;stroke-opacity:1;visibility:visible"/><path d="m286.966 956.995-.01.007h-.013l-.005.006h-.013l-.01.008h-.029l-.005.007h-.022l-.008.005h-.024l-.002.007h-.039l-.01.01h-.062l-.005.007h-.095l-.01-.008h-.069l-.008-.009h-.028l-.006-.007h-.03l-.01-.005h-.016l-.01-.007h-.016l-.008-.008h-.014l-.006-.006h-.014l-.008-.007h-.023v-.008h-.005l-.007-.01h-.005l-.008-.006h-.016l-.008-.005h-.007l-.008-.007h-.004l-.008-.008h-.007l-.009-.007h-.008l-.007-.006h-.008l-.005-.008M400.841 886.088l90.23 39.95M273.236 949.935l83.628 51.51" style="fill:none;stroke:#00ff4a;stroke-width:.999997;stroke-linecap:round;stroke-linejoin:round;stroke-miterlimit:4;stroke-dasharray:none;stroke-opacity:1;visibility:visible"/><path d="m379.334 992.59-.179.093-.142.102-.116.109-.088.12-.052.121-.011.123.021.13.056.122.095.116.13.107.149.104.189.084.201.081.231.059.237.049.252.028.262.007.256-.007.254-.021.244-.044.228-.059.211-.07.185-.087.162-.092.136-.108.1-.116.066-.124.026-.122-.006-.128-.036-.122-.08-.123-.109-.11-.144-.106-.164-.093-.196-.082-.216-.072-.236-.05-.244-.035-.255-.023h-.258l-.258.015-.245.03-.239.051-.222.063-.195.08M368.447 997.521l-.18.092-.15.11-.114.106-.085.121-.059.124-.015.131.02.13.056.12.091.125.13.108.151.098.179.096.21.078.23.057.236.05.252.031.257.006.267-.006.256-.021.243-.044.236-.057.216-.074.189-.085.163-.101.138-.11.103-.121.07-.121.031-.124v-.13l-.037-.128-.08-.122-.108-.115-.137-.103-.174-.098-.194-.082-.215-.072-.237-.05-.244-.042-.26-.016-.258-.008-.254.015-.254.037-.245.052-.221.063-.203.08M376.283 996.29l-.196.073-.21.058-.222.044-.236.026-.248.007-.235-.007-.237-.026-.23-.044-.213-.058-.182-.073-.167-.085-.139-.103-.106-.108-.074-.107-.036-.124v-.113l.044-.116.066-.115.106-.108.139-.094.167-.094.182-.072.22-.057.223-.044.237-.027.235-.008.248.008.236.027.223.044.209.057.196.072.157.086.139.102.108.102.07.114.037.116v.12l-.036.116-.071.115-.101.108-.139.096-.164.092" style="fill:none;stroke:#00ff4a;stroke-width:.666665;stroke-linecap:round;stroke-linejoin:round;stroke-miterlimit:4;stroke-dasharray:none;stroke-opacity:1;visibility:visible"/><path d="m368.188 1016.919-.056-13.119M580.034 906.679 368.132 1003.8M367.952 1017.429l.081-.057.068-.08.046-.108.028-.122.014-.144M368.132 1003.8l-.015-.167-.036-.173-.058-.173-.08-.164-.1-.158-.107-.137-.116-.11-.127-.077M357.448 997.255l-.1-.043-.095-.021h-.096l-.077.028M357.448 997.255l10.043 5.387M579.12 917.968l.067-.035.049-.044.028-.044.013-.05M579.12 917.968l-.023.121-.036.11-.056.094-.08.078-.086.057M568.81 902.185l.085-.028.096-.015.1.015.1.021M580.034 906.679l.067-.028.049-.045.028-.043.013-.05M569.392 902.157l-.065-.007-.066.007-.068.021M155.654 985.454l-.044-.064-.025-.073M155.257 971.673l-.065-.041-.059-.023h-.05M444.033 853.378l.081-.03.076-.014h.09l.085.015M444.365 853.348l.076-.016.068-.007.064.015M262.925 940.433l-.065-.036-.072-.021-.058.006M360.284 904.665l-62.247 31.816M453.416 857.063l-64.079 32.752M298.038 936.48l-.956.481-.963.484-.982.474M295.137 937.919l-23.516 8.339M271.621 946.257l-1.545.49-1.558.482-1.577.468-1.587.47-1.606.451-1.63.448M262.119 949.067l-102.476 27.875 1.159 12.83M155.257 971.673l3.963 4.105M452.853 856.25l.11.041.106.075.101.084.09.103.068.121.053.13.025.13.011.128M159.64 976.943l-.023-.164-.036-.167-.04-.173-.06-.167-.056-.157-.074-.137-.064-.116-.068-.084M452.853 856.25l.075-.024h.068l.065.016M453.537 856.926l-.015.052-.041.043-.065.044M160.685 990.278l.043-.023.038-.057.02-.07.014-.102.008-.121-.008-.132M155.824 985.834l-.085-.105-.056-.131-.03-.144M288.651 956.374v.007M282.374 946.482l-.347.123M281.438 947.433v-.028l.005-.015v-.074l.01-.015v-.027l.009-.016v-.02l.004-.006v-.022l.007-.017v-.007l.006-.005v-.015l.008-.006v-.015l.007-.01v-.006l.008-.012v-.008l.008-.015v-.008l.008-.008v-.012l.005-.008.007-.006v-.015l.008-.008.005-.01.01-.011V947l.006-.007.01-.015.008-.008v-.006l.002-.007.01-.015.005-.006.008-.008.007-.007v-.015l.009-.006.007-.007.008-.008.006-.007.006-.014.009-.008.005-.006.01-.008.005-.006.01-.008.003-.008.008-.007.01-.008.005-.007.01-.005.014-.007.007-.009.005-.007.008-.008.007-.006.008-.008.006-.007.016-.005.008-.007.003-.01.01-.007.013-.008h.009l.007-.007.009-.008.01-.005.007-.007h.008l.008-.007.016-.009.007-.008h.005l.015-.007.01-.006h.005l.014-.008.011-.006h.01l.006-.006h.01l.015-.007h.008l.012-.008M281.438 947.433l.005 6.22M281.875 954.41l-.008-.008-.007-.008h-.013l-.007-.007-.005-.006h-.01l-.006-.007-.008-.008-.01-.007h-.005l-.005-.006-.007-.007-.008-.01h-.006l-.01-.006-.006-.007-.008-.006-.008-.008h-.004l-.008-.007-.006-.007-.01-.006v-.01l-.006-.006-.009-.007h-.01l-.003-.007-.008-.008-.004-.006-.01-.007v-.008l-.006-.01-.01-.006-.005-.007-.01-.006v-.008l-.005-.007-.006-.007-.008-.008v-.006l-.007-.008-.01-.007-.005-.008v-.007l-.009-.006-.005-.007v-.008l-.006-.007-.009-.008v-.014l-.005-.007-.011-.007v-.006l-.005-.008v-.007l-.008-.008v-.007l-.007-.008-.008-.013v-.007l-.005-.008v-.006l-.007-.007v-.023l-.008-.006v-.008l-.008-.007v-.007l-.008-.006v-.024l-.007-.007v-.021l-.008-.007v-.016l-.005-.007v-.028l-.007-.006v-.051l-.008-.007v-.101M290.574 955.669l-1.921.705M281.875 954.41l4.039 2.347M287.649 950.773l.012-.733M287.649 950.773l.012.152.013.144.027.143.036.129.044.125.05.107.066.1.061.095.066.072M290.724 954.502l-2.699-2.663M287.133 949.023l.072.05.064.053.059.064.054.065.059.077.053.079.042.088.034.087.031.092.02.088.025.092.004.086.011.096M290.724 954.502l.044.052.043.057.028.064.028.064.022.072.01.075.006.099M287.133 949.023l-4.359-2.49M290.904 954.985v.1M282.374 946.482l.05-.016.057-.007h.105l.06.015.05.023.08.034M290.904 955.085v.087l-.015.086-.02.086-.03.072-.04.073-.051.065-.05.051-.057.035-.065.028" style="fill:none;stroke:#00ff4a;stroke-width:.999997;stroke-linecap:round;stroke-linejoin:round;stroke-miterlimit:4;stroke-dasharray:none;stroke-opacity:1;visibility:visible"/><path d="m400.538 892.985-.056-.037-.05-.058-.045-.072-.03-.092-.014-.102-.002-.108" style="fill:none;stroke:#00ff4a;stroke-width:1.99999;stroke-linecap:round;stroke-linejoin:round;stroke-miterlimit:4;stroke-dasharray:none;stroke-opacity:1;visibility:visible"/><path d="m400.386 887.008.01-.137.027-.143.046-.145.056-.13.064-.122.078-.108.087-.079.09-.057M400.386 887.008l-.02 2.24-.025 3.268M404.88 883.979l-4.037 2.11M408.466 882.098l-3.584 1.88" style="fill:none;stroke:#00ff4a;stroke-width:.999997;stroke-linecap:round;stroke-linejoin:round;stroke-miterlimit:4;stroke-dasharray:none;stroke-opacity:1;visibility:visible"/><path d="m408.466 882.098.084-.03.081-.006.072.02M490.904 917.962l-82.2-35.879M512.576 927.423l-2.267-.99M490.784 933.481l-90.246-40.496" style="fill:none;stroke:#00ff4a;stroke-width:1.99999;stroke-linecap:round;stroke-linejoin:round;stroke-miterlimit:4;stroke-dasharray:none;stroke-opacity:1;visibility:visible"/><path d="m273.084 957.554-.085-.064-.064-.087-.052-.094-.035-.115-.013-.123-.268-6.12" style="fill:none;stroke:#00ff4a;stroke-width:.999997;stroke-linecap:round;stroke-linejoin:round;stroke-miterlimit:4;stroke-dasharray:none;stroke-opacity:1;visibility:visible"/><path d="m272.567 950.951.005-.15.036-.158.059-.161.081-.143.107-.137.116-.108.127-.094.138-.065M283.6 946.255l7.533-2.677M273.877 949.706l7.105-2.524M273.236 949.935l.64-.23M291.134 943.579l3.096-1.1" style="fill:none;stroke:#00ff4a;stroke-width:.999997;stroke-linecap:round;stroke-linejoin:round;stroke-miterlimit:4;stroke-dasharray:none;stroke-opacity:1;visibility:visible"/><path d="m294.23 942.479.123-.03.124-.007.106.021.102.044M354.772 978.277l-60.087-35.77M356.942 1009.861l-83.858-52.307M356.95 1010.748l.016.165.035.166.056.173.084.164.09.152.107.137.115.108.126.079 9.983 5.493M356.95 1010.748l-.116-13.01M367.561 1017.385l.1.05.103.025.102-.01.086-.022M357.078 997.218l-.084.05-.07.087-.051.11-.031.126-.01.147M578.839 918.429l-210.886 99M579.278 917.795v.023l-.005.013v.037l-.008.01v.033l-.007.008v.015l-.008.006v.014l-.007.008v.013l-.005.008v.015l-.01.006v.008l-.006.006v.014l-.008.015v.008l-.007.007v.008l-.008.006v.007l-.006.007v.01h-.006v.006l-.009.006v.007l-.007.008-.009.007v.006l-.004.007v.01l-.01.007-.005.007v.007l-.006.006-.01.008v.007h-.005l-.01.007v.006l-.006.01-.008.006-.007.007v.007h-.008l-.004.008-.008.006v.01l-.009.004-.007.009h-.008l-.005.007v.008l-.01.005h-.003l-.008.008-.008.007-.007.009-.01.005-.005.007h-.008l-.006.008-.006.008h-.006l-.008.007-.01.006h-.006v.007l-.008.007h-.007l-.008.008h-.003l-.009.006-.005.008h-.011l-.01.007h-.003l-.011.008h-.004l-.007.007h-.005l-.01.006M360.02 995.9l-2.941 1.32M490.533 937.32l-100.468 45.095M568.81 902.185l-58.599 26.303M580.192 906.512l-.915 11.283M568.81 902.185l.008-.007h.007l.009-.008h.012l.005-.006h.015v-.007h.024v-.007h.02l.007-.008h.024l.008-.008h.017l.01-.006h.035v-.007h.058l.008-.008h.114v.008h.066v.007h.033v.006h.033l.006.008h.021v.008h.03v.007h.013M579.666 905.72l-10.273-3.564M579.666 905.72h.01l.009.007h.012l.005.008h.008l.015.008h.006l.01.006.012.007h.009l.005.008.014.007h.012l.008.006.004.007h.013l.01.008.005.008.008.007h.008l.013.006.007.008.008.007.006.007.008.006.007.008h.015l.006.01.008.006.006.007.009.008.005.007.011.006.005.007.008.008.007.007.005.008.008.006.007.008.008.007.008.007.008.014.005.007.007.008v.008l.01.007.005.006.009.007.004.015.012.006v.008l.004.008.007.007.005.013v.008l.01.007.009.007v.016l.005.006.01.007v.007l.006.014v.007l.008.008.004.016v.007l.008.006v.015l.008.007v.022l.007.007v.008l.008.013v.022l.008.008v.021l.008.007v.029l.005.015v.157M271.948 959.008h.005M155.585 985.317l-1.177-12.744M154.408 972.573v-.159l.007-.014v-.05l.009-.017v-.019l.005-.014v-.015l.007-.008v-.013l.005-.015v-.015l.008-.006v-.016l.01-.012v-.008l.005-.015v-.015l.01-.008.006-.013v-.008l.008-.015.004-.014.008-.006v-.016l.007-.006.008-.015.008-.015.008-.005.008-.016.005-.007.007-.014.005-.008.01-.012.007-.008.006-.008.01-.015.006-.007.008-.013.004-.007.008-.016.006-.008.008-.006.016-.015.01-.005.002-.007.01-.008.004-.017.014-.007.011-.008.01-.005.011-.014.006-.008.008-.006.014-.01.01-.006.006-.008.012-.006.008-.006.015-.015.005-.007.019-.009.004-.007.013-.008.01-.005h.014l.007-.007.013-.006.007-.008.015-.008.016-.008.008-.007h.012l.009-.008.015-.005.014-.007h.006l.016-.008.013-.007h.007l.016-.008h.012l.008-.008h.014l.015-.008M444.033 853.378h.01l.006-.008h.008l.004-.007h.008l.008-.01h.015l.008-.004h.014l.006-.008h.014l.01-.007h.016v-.008h.016l.009-.008h.03l.009-.007h.034l.008-.006h.175v.006h.04l.007.007h.021l.008.008h.02l.01.008h.02l.006.007M262.73 940.383l.513-.15M271.952 959.008l2.185-.8M453.061 856.243h.008l.01.007h.006l.012.008h.008l.007.006h.008l.005.007h.01l.009.007h.002l.015.008h.01l.005.006h.01l.006.008.008.007h.006l.007.008.008.007h.007l.008.006.006.008.01.007h.005l.007.007.008.009.005.007h.01l.005.008.009.006.007.007.005.008.01.007h.005v.006l.008.007.006.01.01.006.006.007.008.006.003.008v.007l.01.007.007.006.007.01v.006l.008.007.007.007.009.008v.006l.005.007.006.007v.009l.01.007.004.006v.007l.01.008v.007l.005.006.01.008v.007l.006.015v.008l.007.006v.007l.005.007v.008l.01.006v.024l.007.007v.007l.007.006v.023l.01.007v.021l.005.015v.021l.009.008v.05l.003.007v.079M271.948 959.008l-1.31.424-1.32.417-1.331.419-1.344.41-1.364.397-1.359.396-1.384.388M389.371 901.241l13.637-7.148M302.17 946.963l58.645-30.75M418.09 886.182l34.763-18.225M453.228 867.359l.308-10.432M444.573 853.34l8.488 2.903M390.121 880.372l53.913-26.995M291.038 929.984l69.296-34.695M196.423 959.617l66.306-19.233M155.082 971.607l4.355-1.261M160.685 990.278l101.853-28.417M453.228 867.359v.044l-.007.007v.041l-.008.01v.03l-.006.007v.021l-.007.007v.022l-.008.006v.014l-.005.007v.01l-.011.006v.015l-.005.005v.007l-.01.008v.016l-.004.006-.01.008v.007l-.002.005v.007l-.009.008v.007l-.01.009v.007l-.006.008-.008.006v.006l-.007.006-.008.008v.007l-.006.008-.006.01-.006.007v.006l-.01.006h-.008v.007l-.006.008-.008.008-.006.007-.008.008v.008h-.004l-.009.005-.01.007v.008h-.005l-.009.006-.005.008-.008.007-.004.01h-.008l-.007.006v.005h-.01l-.007.007-.007.008h-.008l-.007.007-.005.008h-.005l-.01.006-.006.008h-.01l-.009.007h-.004v.007h-.01l-.002.006h-.01M160.685 990.278l-.01.008h-.018l-.008.008h-.024l-.005.007h-.027l-.016.005h-.048l-.01.007h-.171l-.01-.007h-.05l-.015-.005h-.025l-.011-.007h-.02l-.005-.008h-.024l-.007-.008h-.023l-.002-.008h-.01l-.014-.007h-.01l-.005-.008h-.015l-.005-.005h-.01l-.005-.007h-.016l-.009-.008h-.005l-.007-.006-.015-.008h-.009l-.007-.008h-.008l-.014-.008-.003-.007h-.008l-.007-.005-.009-.007h-.015l-.008-.008-.006-.007-.006-.008h-.006l-.008-.009-.01-.008-.014-.007-.007-.005h-.005l-.006-.007-.009-.008-.005-.008-.01-.006-.009-.007-.005-.01-.01-.005h-.002l-.008-.006-.007-.007-.01-.008-.006-.008-.008-.007-.01-.006-.005-.01M155.824 985.834h-.008l-.007-.007-.008-.006v-.008h-.005v-.007h-.007v-.005l-.005-.007-.01-.008-.009-.008v-.008h-.005v-.007l-.01-.008-.005-.005v-.007h-.006v-.014h-.006v-.008l-.008-.008-.008-.008v-.007h-.008v-.012h-.008v-.008l-.006-.007v-.008l-.008-.009v-.008h-.004v-.012l-.008-.007v-.008l-.007-.008v-.006l-.01-.007v-.01l-.005-.005v-.013h-.009v-.023h-.008v-.016l-.005-.005v-.013l-.007-.008v-.015l-.005-.008v-.02l-.01-.008v-.021l-.006-.008v-.028l-.008-.008v-.043h-.011v-.03M155.824 985.834l3.947 4.197" style="fill:none;stroke:#00ff4a;stroke-width:1.99999;stroke-linecap:round;stroke-linejoin:round;stroke-miterlimit:4;stroke-dasharray:none;stroke-opacity:1;visibility:visible"/><path d="m271.654 823.31-.141.044-.12.057-.091.058-.059.065-.017.064.005.067.044.057.071.057.103.05.134.044.154.034.169.03.181.008.196.006.192-.006.191-.023.18-.03.165-.042.134-.05.125-.05.085-.065.056-.058.031-.065-.016-.064-.041-.065-.074-.058-.101-.05-.136-.043-.15-.036-.175-.021-.179-.015h-.195l-.193.008-.185.02-.183.03-.16.042M276.168 821.963l-.005.08.03.079.058.078.098.072.124.074.152.057.182.05.206.043.215.03.239.02.242.008h.246l.244-.015.245-.03.232-.034.215-.043.201-.057.173-.065.154-.066.113-.078.095-.08.05-.079.02-.087-.012-.078M264.88 824.82l-.143.087-.12.086-.089.087-.06.095-.016.085.012.093.044.087.076.087.11.08.146.077.165.065.192.058.218.05.234.044.256.03.267.013.263.007.276-.007.273-.013.272-.03.261-.037.252-.05.231-.057.207-.065.19-.072.166-.079.128-.086.106-.087.064-.087.046-.093v-.093l-.031-.086-.064-.096-.09-.078-.127-.079-.156-.065M266.222 828.6l21.47-6.227M266.222 828.6l-.412 2.19-.39 2.195-.36 2.21-.343 2.225-.318 2.232-.297 2.248-.27 2.252-.262 2.268-.23 2.275-.209 2.284-.186 2.297-.167 2.303-.14 2.32-.125 2.317-.1 2.333-.082 2.34-.057 2.34-.033 2.354-.016 2.362v2.367l.026 2.377.054 2.378.062 2.389.096 2.39.108 2.397.128 2.405.16 2.405.17 2.412.188 2.42.217 2.417.236 2.43.253 2.424.272 2.433.296 2.435.318 2.438.337 2.436.355 2.448.373 2.442.395 2.448.421 2.441.433 2.448.452 2.453.475 2.448.488 2.448.512 2.447.533 2.456.555 2.45.565 2.447.594 2.45M258.754 825.932v.035l.016.044.02.028.036.03.05.035.073.028" style="fill:none;stroke:#00ff4a;stroke-width:.999997;stroke-linecap:round;stroke-linejoin:round;stroke-miterlimit:4;stroke-dasharray:none;stroke-opacity:1;visibility:visible"/><path d="m264.923 828.58.084.03.104.027.101.015.11.015.105.014h.324l.124-.014.107-.015.125-.021.116-.03M264.923 828.58l-5.975-2.448M287.69 822.374l.1-.03.076-.034.056-.03.043-.037.036-.042.014-.036M276.417 817.348l-.024.073.005.07.051.065.08.064.11.059.142.05.165.042.19.04.198.018.22.008h.216l.218-.014.212-.022.201-.037.181-.043.166-.057.14-.059.106-.062.071-.072.044-.074v-.072l-.03-.07M276.025 818.017h.01l.014-.015.012-.013.015-.021.024-.031.021-.036" style="fill:none;stroke:#00ff4a;stroke-width:.999997;stroke-linecap:round;stroke-linejoin:round;stroke-miterlimit:4;stroke-dasharray:none;stroke-opacity:1;visibility:visible"/><path d="m276.121 817.902-.024.036-.012.037-.016.035-.015.036-.008.03-.012.035M276.02 818.176l.015.021h.02l.03-.014.027-.03.039-.034.042-.052" style="fill:none;stroke:#00ff4a;stroke-width:.999997;stroke-linecap:round;stroke-linejoin:round;stroke-miterlimit:4;stroke-dasharray:none;stroke-opacity:1;visibility:visible"/><path d="m276.192 818.067-.015.067-.013.064-.008.05v.051l.012.035.024.029.028.008.037-.008.035-.021.043-.036.046-.044.042-.044" style="fill:none;stroke:#00ff4a;stroke-width:.999997;stroke-linecap:round;stroke-linejoin:round;stroke-miterlimit:4;stroke-dasharray:none;stroke-opacity:1;visibility:visible"/><path d="m276.42 818.218-.004.06v.064l.004.057.025.044.027.035.036.023h.044l.044-.008.047-.028.044-.038.052-.049.038-.05" style="fill:none;stroke:#00ff4a;stroke-width:.999997;stroke-linecap:round;stroke-linejoin:round;stroke-miterlimit:4;stroke-dasharray:none;stroke-opacity:1;visibility:visible"/><path d="m276.776 818.327.016.064.012.057.02.059.036.043.047.029.041.015h.057l.048-.015.052-.036.051-.044.044-.05.036-.058" style="fill:none;stroke:#00ff4a;stroke-width:.999997;stroke-linecap:round;stroke-linejoin:round;stroke-miterlimit:4;stroke-dasharray:none;stroke-opacity:1;visibility:visible"/><path d="m277.235 818.391.024.059.027.064.034.052.054.034.052.031.049.007.057-.007.059-.024.041-.035.044-.05.043-.058.03-.056" style="fill:none;stroke:#00ff4a;stroke-width:.999997;stroke-linecap:round;stroke-linejoin:round;stroke-miterlimit:4;stroke-dasharray:none;stroke-opacity:1;visibility:visible"/><path d="m277.746 818.407.028.056.047.059.04.044.061.036.045.021h.06l.056-.01.051-.026.044-.043.03-.052.026-.062.025-.059" style="fill:none;stroke:#00ff4a;stroke-width:.999997;stroke-linecap:round;stroke-linejoin:round;stroke-miterlimit:4;stroke-dasharray:none;stroke-opacity:1;visibility:visible"/><path d="m278.258 818.37.036.052.05.05.053.042.056.03.052.017h.056l.05-.024.035-.028.028-.052.023-.05.016-.065.008-.063" style="fill:none;stroke:#00ff4a;stroke-width:.999997;stroke-linecap:round;stroke-linejoin:round;stroke-miterlimit:4;stroke-dasharray:none;stroke-opacity:1;visibility:visible"/><path d="m278.719 818.278.043.05.049.05.056.037.052.02.05.008.047-.008.032-.02.032-.037.012-.043.007-.057v-.067l-.007-.065M279.093 818.146l.043.05.05.037.046.037.044.015.034.005.034-.005.022-.031.01-.035v-.049l-.01-.052-.014-.064-.02-.057M279.33 817.995l.044.036.043.037.038.028.027.016.024.007.019-.016v-.021l-.004-.044-.015-.043-.024-.05-.027-.065-.029-.057M279.426 817.823l.02.035.03.029.022.02.012.016.013.015.01-.007M278.886 822.432l-.167-4.155M278.416 822.517l-.156-4.147M277.904 822.554l-.156-4.145M277.401 822.54l-.167-4.147M276.94 822.482l-.163-4.155M279.524 818.083l.152 3.924M279.374 818.184l.159 3.988M279.1 818.227l.16 4.088M276.417 818.32l.156 4.07M276.154 818.278l.16 3.972M265.304 820.87l.125.05.15.043.173.036.192.03.205.013.216.008.208-.008.215-.013.203-.03.194-.044.172-.042.158-.058.124-.057.101-.065.072-.071.035-.073.008-.064-.035-.072M265.133 820.551l-.028.065.004.066.039.064.065.065.09.057M265.225 821.467v.064l.01.065.014.051.02.05.036.037.035.013.05.007.051-.014.05-.028.042-.045.053-.048.036-.05M265.225 821.467l-.035.05-.048.043-.046.036-.043.023-.036.007-.037-.007-.027-.023-.016-.036-.008-.05.008-.051.007-.064.017-.065" style="fill:none;stroke:#00ff4a;stroke-width:.999997;stroke-linecap:round;stroke-linejoin:round;stroke-miterlimit:4;stroke-dasharray:none;stroke-opacity:1;visibility:visible"/><path d="m265.621 821.567.016.065.021.058.03.058.034.042.043.028.059.016.049-.008.056-.02.053-.03.043-.044.044-.058.036-.056M266.106 821.618l.028.056.028.06.041.05.051.042.05.023.06.006.057-.006.049-.031.052-.035.043-.049.036-.06.03-.056" style="fill:none;stroke:#00ff4a;stroke-width:.999997;stroke-linecap:round;stroke-linejoin:round;stroke-miterlimit:4;stroke-dasharray:none;stroke-opacity:1;visibility:visible"/><path d="m266.63 821.618.03.05.053.058.041.043.057.037.059.02h.057l.05-.013.05-.036.035-.043.03-.05.03-.066.016-.057" style="fill:none;stroke:#00ff4a;stroke-width:.999997;stroke-linecap:round;stroke-linejoin:round;stroke-miterlimit:4;stroke-dasharray:none;stroke-opacity:1;visibility:visible"/><path d="m267.136 821.56.041.05.051.05.05.036.057.03.05.014h.059l.045-.021.035-.036.028-.044.013-.058.015-.065v-.065" style="fill:none;stroke:#00ff4a;stroke-width:.999997;stroke-linecap:round;stroke-linejoin:round;stroke-miterlimit:4;stroke-dasharray:none;stroke-opacity:1;visibility:visible"/><path d="m267.58 821.451.044.05.05.043.051.039.051.019.05.008.045-.008.026-.019.024-.039.015-.049v-.124l-.015-.057" style="fill:none;stroke:#00ff4a;stroke-width:.999997;stroke-linecap:round;stroke-linejoin:round;stroke-miterlimit:4;stroke-dasharray:none;stroke-opacity:1;visibility:visible"/><path d="m267.92 821.314.041.044.051.036.044.03.045.02h.035l.023-.007.02-.028v-.087l-.012-.05-.024-.066-.023-.057" style="fill:none;stroke:#00ff4a;stroke-width:.999997;stroke-linecap:round;stroke-linejoin:round;stroke-miterlimit:4;stroke-dasharray:none;stroke-opacity:1;visibility:visible"/><path d="m268.12 821.15.044.035.039.036.032.028.029.017h.021l.01-.024M268.257 821.143l-.015-.028-.013-.03-.012-.029-.016-.021-.023-.03-.012-.034" style="fill:none;stroke:#00ff4a;stroke-width:.999997;stroke-linecap:round;stroke-linejoin:round;stroke-miterlimit:4;stroke-dasharray:none;stroke-opacity:1;visibility:visible"/><path d="m268.164 820.97.021.033.02.024.024.022.015.02.004.008.008.008M264.73 821.28l.004.007.016-.007.012-.021.024-.022.024-.037.027-.036" style="fill:none;stroke:#00ff4a;stroke-width:.999997;stroke-linecap:round;stroke-linejoin:round;stroke-miterlimit:4;stroke-dasharray:none;stroke-opacity:1;visibility:visible"/><path d="m264.837 821.163-.023.065-.026.058-.016.057-.01.05-.005.038.015.028.016.008.026-.008.032-.015.032-.028.039-.044.044-.042M265.815 825.917l-.195-4.35M266.292 825.951l-.187-4.333M266.817 825.945l-.188-4.327M267.58 821.451l.19 4.363M267.32 825.895l-.185-4.333M264.758 821.424l.195 4.305M264.93 821.51l.195 4.276M265.225 821.53l.195 4.327M267.934 821.424l.188 4.297M268.179 821.357l.187 4.277M271.295 944.723l20.44-7.753" style="fill:none;stroke:#00ff4a;stroke-width:.999997;stroke-linecap:round;stroke-linejoin:round;stroke-miterlimit:4;stroke-dasharray:none;stroke-opacity:1;visibility:visible"/><path d="m259.091 825.7 5.76-1.65M268.363 823.044l7.761-2.225M279.606 819.825l.919-.259M292.04 936.639v.064l-.024.059-.035.057-.057.05-.079.051-.11.051" style="fill:none;stroke:#00ff4a;stroke-width:1.99999;stroke-linecap:round;stroke-linejoin:round;stroke-miterlimit:4;stroke-dasharray:none;stroke-opacity:1;visibility:visible"/><path d="m271.295 944.723-.107.035-.114.03-.108.015-.115.012-.11.008h-.107l-.099-.008-.103-.012-.102-.015-.092-.03-.091-.027-.09-.043M264.32 941.65l5.739 3.037" style="fill:none;stroke:#00ff4a;stroke-width:.999997;stroke-linecap:round;stroke-linejoin:round;stroke-miterlimit:4;stroke-dasharray:none;stroke-opacity:1;visibility:visible"/><path d="m264.32 941.65-.05-.028-.043-.037-.036-.028-.02-.03-.026-.036-.014-.036M287.804 821.949l-6.019-2.361M281.785 819.588l-.083-.03-.104-.02-.094-.023-.107-.014-.105-.006-.103-.008h-.108l-.107.008-.116.006-.106.014-.115.022-.11.027M259.091 825.7l-.1.03-.081.043-.064.028-.042.043-.034.036-.016.05M288.015 822.166v-.044l-.015-.043-.028-.03-.036-.034-.058-.038-.072-.028M264.13 941.455l-.447-1.93-.438-1.931-.423-1.93-.419-1.928-.405-1.928-.388-1.932-.381-1.929-.364-1.928-.363-1.93-.344-1.925-.333-1.928-.324-1.928-.308-1.925-.306-1.921-.285-1.923-.275-1.916-.266-1.921-.251-1.923-.248-1.915-.221-1.916-.223-1.913-.2-1.908-.196-1.91-.177-1.907-.176-1.908-.151-1.902-.15-1.9-.131-1.9-.12-1.894-.108-1.894-.104-1.885-.076-1.895-.076-1.878-.064-1.885-.051-1.882-.025-1.873-.031-1.87-.008-1.866v-1.863l.015-1.86.032-1.85.034-1.858.048-1.842.064-1.844.082-1.834.094-1.836.102-1.83.116-1.822.129-1.821.133-1.815.151-1.808.175-1.798.172-1.751.19-1.748.199-1.743.21-1.737.222-1.735.237-1.721.247-1.72.267-1.713.27-1.698.292-1.701M288.015 822.166l-.332 1.655-.321 1.67-.312 1.679-.294 1.684-.281 1.69-.272 1.702-.256 1.705-.243 1.715-.229 1.712-.217 1.73-.203 1.727-.185 1.736-.18 1.734-.167 1.74-.15 1.753-.138 1.756-.124 1.755-.115 1.773-.101 1.764-.083 1.777-.074 1.78-.056 1.786-.05 1.784-.037 1.793-.024 1.801-.015 1.792.01 1.808.014 1.806.027 1.809.04 1.812.05 1.823.065 1.822.076 1.822.093 1.828.104 1.837.115 1.828.118 1.836.148 1.836.147 1.836.167 1.842.174 1.844.188 1.85.2 1.842.208 1.852.231 1.85.23 1.858.254 1.851.26 1.856.273 1.859.282 1.857.293 1.859.312 1.856.307 1.784.32 1.793.329 1.795.34 1.793.35 1.79.36 1.795.374 1.794.383 1.79.396 1.794.404 1.785.408 1.795.436 1.792M277.986 816.945h-.21l-.207.007-.211.022-.192.035-.19.037-.166.05-.133.058-.116.059-.088.064-.056.07M279.078 817.255l-.059-.059-.078-.057-.114-.05-.138-.05-.148-.036-.175-.03-.188-.014-.19-.013M276.04 817.995l-.007.008v.016h-.008M276.033 818.111l-.008.016v.027l-.005.014v.008M279.533 817.932v-.008l-.01-.008-.005-.013-.008-.015-.012-.013-.016-.023M279.078 817.255l.405.596M276.417 817.348l-.376.647M276.025 818.017l.01.093M276.02 818.176l.157 3.917M279.533 817.932l.15 4.047M267.818 820.451l-.064-.064-.092-.067-.133-.057-.158-.041-.172-.038-.201-.029-.208-.013-.217-.007-.223.013-.217.015-.207.036-.195.036-.173.05-.153.058-.119.064-.097.072-.056.073M268.293 821.244l-.008-.016v-.013l-.007-.015-.008-.015-.005-.022-.007-.02M268.257 821.085h0l-.008-.007M264.801 821.128l-.02.044-.016.028-.016.03-.015.02-.004.022v.007M267.818 820.451l.43.627M265.133 820.551l-.332.577M264.73 821.28l.195 4.441M268.257 821.085v.057M268.293 821.244l.181 4.341" style="fill:none;stroke:#00ff4a;stroke-width:1.99999;stroke-linecap:round;stroke-linejoin:round;stroke-miterlimit:4;stroke-dasharray:none;stroke-opacity:1;visibility:visible"/><path d="M270.5 823.707c.1 1.804-1.507 3.36-3.586 3.474-2.084.116-3.854-1.251-3.952-3.054l-.145-2.59c-.102-1.802 1.503-3.358 3.588-3.472 2.081-.116 3.849 1.25 3.952 3.053l.143 2.589" style="fill:none;fill-opacity:1;fill-rule:nonzero;stroke:#00ff4a;stroke-width:1.33333;visibility:visible"/><path d="m266.577 822.613.105 3.637M268.735 821.4l.026.036.024.027.029.024.015.008.009.01h.008M264.58 821.427l-.01.036-.017.027-.015.024-.01.027-.012.034-.017.027M264.5 821.533h.01l.008-.01.01-.017.016-.016.016-.027.02-.036M268.291 820.627l.029.07v.078l-.039.07-.071.078-.095.07-.129.061-.156.061-.181.052-.202.043-.209.035-.233.025-.235.017h-.47l-.224-.017-.218-.025-.203-.035-.178-.043-.167-.052-.13-.06-.106-.063-.071-.069-.041-.07-.01-.078.03-.078M264.597 825.555v.087l.032.088.07.087.104.077.131.07.165.068.192.062.219.053.232.035.245.035.268.017.27.016h.278l.278-.016.269-.017.263-.035.241-.044.236-.053.208-.06.19-.07.158-.077.131-.078.096-.079.06-.087.034-.088-.009-.086M264.597 825.662l-.114-3.972M264.5 821.6v-.068M268.96 825.555l-.115-4.05M264.98 820.697l-.472.817M268.291 820.627l.444.68" style="fill:none;stroke:#00ff4a;stroke-width:.999997;stroke-linecap:round;stroke-linejoin:round;stroke-miterlimit:4;stroke-dasharray:none;stroke-opacity:1;visibility:visible"/><path d="m268.846 821.507-.008-.017-.01-.035-.013-.028-.031-.032-.022-.045-.027-.043M264.5 821.6v.02l-.01.013-.007.02v.034M264.509 821.514v.008l-.01.01M264.98 820.697l.06-.07.088-.069.122-.06.139-.06.166-.052.188-.052.208-.036.22-.025.224-.028.226-.008h.236l.225.008.219.018.208.035.19.036.175.052.147.052M268.02 820.437l.114.061.095.062.061.07" style="fill:none;stroke:#00ff4a;stroke-width:.999997;stroke-linecap:round;stroke-linejoin:round;stroke-miterlimit:4;stroke-dasharray:none;stroke-opacity:1;visibility:visible"/><path d="M281.395 820.433c.1 1.802-1.505 3.357-3.584 3.473-2.086.116-3.856-1.25-3.953-3.053l-.145-2.59c-.103-1.805 1.504-3.361 3.587-3.475 2.082-.115 3.85 1.251 3.953 3.054l.142 2.591" style="fill:none;fill-opacity:1;fill-rule:nonzero;stroke:#00ff4a;stroke-width:1.33333;visibility:visible"/><path d="M275.395 818.257h.011l.008-.01.01-.017.016-.016.017-.027.02-.034M279.186 817.351l.028.071v.078l-.039.07-.069.079-.096.068-.13.061-.154.062-.183.051-.201.043-.21.036-.232.024-.235.017h-.471l-.225-.017-.216-.024-.203-.036-.179-.043-.166-.051-.131-.06-.105-.064-.071-.067-.041-.07-.01-.081.028-.076M275.493 822.28v.088l.032.089.07.085.105.079.13.069.165.067.192.063.219.053.232.036.245.033.268.019.27.014h.278l.278-.014.27-.019.263-.032.24-.047.236-.053.208-.059.19-.069.158-.079.131-.077.096-.08.06-.085.034-.091-.009-.084M275.493 822.386l-.114-3.972M275.395 818.327v-.069M279.855 822.28l-.113-4.048M275.874 817.422l-.47.818M279.186 817.351l.444.68M279.742 818.23l-.008-.017-.01-.035-.014-.027-.03-.033-.022-.045-.028-.043M275.395 818.327v.018l-.009.015-.007.019v.035" style="fill:none;stroke:#00ff4a;stroke-width:.999997;stroke-linecap:round;stroke-linejoin:round;stroke-miterlimit:4;stroke-dasharray:none;stroke-opacity:1;visibility:visible"/><path d="M275.405 818.24v.01l-.01.009M275.874 817.422l.063-.07.085-.068.123-.061.138-.061.167-.052.188-.052.208-.035.22-.026.224-.027.225-.008h.236l.226.008.218.017.208.036.191.035.176.052.145.052M278.917 817.16l.112.06.096.063.062.069M277.473 819.335l.105 3.64M279.631 818.126l.026.035.023.026.03.026.015.007.009.01h.008M275.475 818.151l-.009.036-.017.027-.015.024-.01.028-.012.034-.017.027M149.021 849.722v.028l.007.021.018.023.004.021.022.023.024.021M153.37 852.386l33.66-6.983M153.37 852.386l-.116 2.248-.101 2.268-.079 2.275-.07 2.289-.055 2.304-.041 2.319-.028 2.333-.007 2.347v2.353l.023 2.37.026 2.376.051 2.389.057 2.407.083 2.411.083 2.426.102 2.433.115 2.441.139 2.456.141 2.463.159 2.47.173 2.474.18 2.493.2 2.499.217 2.504.223 2.513.237 2.52.26 2.527.268 2.535.274 2.54.293 2.551.31 2.555.318 2.557.331 2.568.344 2.572.356 2.578.372 2.577.38 2.593.398 2.583.411 2.601.416 2.6.432 2.597.447 2.607.46 2.614.468 2.614.484 2.611.498 2.623.503 2.614.517 2.628.534 2.619M167.425 846.613l-.167.042-.14.051-.124.057-.088.059-.058.065-.011.064.01.064.061.058.085.052.117.042.142.036.166.015.182.005h.186l.187-.02.179-.028.166-.044.143-.05.116-.058.096-.065.05-.064.021-.064-.022-.059-.048-.057-.091-.059-.121-.035-.144-.035-.166-.023-.18-.007-.185.007-.181.023-.181.028M367.231 861.494l.619 140.681M389.2 853.997l.104-.042.09-.042.054-.058.047-.052.007-.056M389.199 853.997l-21.968 7.496M365.827 861.473l.144.052.164.034.188.023.197.013.192-.005.19-.024.173-.028.157-.044M365.827 861.473l-5.327-2.133M360.242 859.097l.022.073.043.057.084.064.109.051M374.135 856.073l-.143.057-.114.065-.08.072-.042.078-.014.082.03.07.061.08.103.063.134.066.16.05.18.046.196.025.208.016.216.007.206-.015.208-.02.19-.037.17-.05.14-.061.113-.061.079-.072.052-.08.008-.079-.032-.078-.062-.075-.103-.064-.133-.064-.16-.05-.183-.046-.193-.027-.208-.014-.218-.007-.204.015-.204.021-.196.036-.165.05M368.11 1003.824l-.015-.164-.035-.174-.06-.174-.08-.165-.1-.157-.108-.138-.114-.11-.128-.076M511.635 808.689l-.086 1.591M501.517 810.454l-.073 1.579M511.957 802.402l-.022.083-.042.07-.077.071-.104.072-.127.065-.154.057M511.43 802.82l-5.722 1.904M505.707 804.722l-.188.05-.209.05-.23.038-.244.03-.259.012-.266.008-.268-.008-.27-.012-.27-.025-.259-.035-.244-.044-.23-.05-.208-.057-.197-.073-.164-.072-.137-.079-.108-.08-.079-.084-.04-.089-.02-.077M505.319 812.635l5.71-1.937M511.03 810.698l.148-.057.131-.064.099-.074.077-.07.048-.074.017-.077M501.444 812.031l.016.086.043.086.08.087.107.079.137.078.165.08.188.064.21.066.23.05.244.044.261.035.262.024.268.012.272.008.268-.008.253-.012.247-.031.228-.036.21-.049.187-.059M516.019 810.307l.081-.033.05-.044.017-.051M516.019 810.307l-9.692 3.3M506.083 802.583l-.107.051-.088.05-.05.061-.021.055.014.058.051.064.078.058.109.051.136.051.16.035.171.036.188.021.186.016h.195l.187-.01.172-.02.16-.03.136-.035.116-.042.08-.053.047-.055.024-.059-.024-.065-.043-.058-.075-.058-.108-.058-.137-.04-.16-.046-.173-.027-.187-.023-.187-.013h-.196l-.185.007-.172.014-.159.031-.138.033M187.03 845.402l.086-.021.08-.022.074-.029.064-.023.103-.049.076-.057.05-.058.016-.036.014-.036" style="fill:none;stroke:#00ff4a;stroke-width:.999997;stroke-linecap:round;stroke-linejoin:round;stroke-miterlimit:4;stroke-dasharray:none;stroke-opacity:1;visibility:visible"/><path d="m152.09 852.273.066.034.072.038.084.028.094.029.099.013.11.015.111.007h.242l.122-.007.144-.021.138-.023M152.089 852.273l-2.995-2.414M160.533 849.023l-.527-6.162M356.012 866.606l.052-.007.051.007M356.634 866.858l.042-.007.05.007M358.267 867.154l-.007.007-.008.008M360.175 870.041l.01-.151.025-.152.046-.152.058-.141" style="fill:none;stroke:#00ff4a;stroke-width:.999997;stroke-linecap:round;stroke-linejoin:round;stroke-miterlimit:4;stroke-dasharray:none;stroke-opacity:1;visibility:visible"/><path d="m360.175 870.04.068.03.077.02M356.012 866.606l-.097-.028-.108-.007-.097.02M354.682 867.643l.022.072.042.058.078.065.108.05M360.226 877.3l.076.027.07.02M360.226 877.3l.01.141.027.131.05.121.064.102M360.175 870.04l-5.243-2.15M357.418 870.955l-.164-.022-.159.014-.15.051-.139.087-.114.121-.102.152-.072.18-.058.203-.02.222-.006.239.026.243.05.245.073.244.093.237.115.224.13.202.15.186.159.159.165.124.167.092.172.057.166.025.164-.018.148-.048.134-.087.116-.122M356.994 977.486l.056-.016.057.016M357.583 977.787l.057-.013.051.013M359.152 978.14h-.008l-.014.023M360.975 981.367l.008-.136.027-.145.045-.143.057-.137M360.975 981.367l.065.03.078.026M356.994 977.486l-.094-.043-.096-.015h-.084l-.088.023M355.72 978.472l.023.08.043.079.077.072.103.064M361.018 987.999l.072.028.071.03M361.018 987.999l.016.13.026.116.043.107.059.088M360.975 981.367l-5.012-2.6M358.238 981.835l-.15-.015-.145.015-.136.043-.115.086-.1.107-.08.137-.067.166-.035.181-.015.2.008.217.03.223.054.23.075.222.093.224.113.21.132.194.143.172.145.16.158.121.16.102.164.064.152.036h.153l.135-.036.13-.064.107-.095.085-.128M505.988 813.874l.083-.028.056-.039.033-.034.011-.043M503.345 814.405l.116.03.136.028.147.017.15.006.146-.006.135-.009.124-.02.105-.03M496.399 812.117l.005.033.036.047.052.041.073.036.092.037M504.404 814.422l1.584-.548M496.657 812.313l6.69 2.092M497.147 942.263l6.197-127.858" style="fill:none;stroke:#00ff4a;stroke-width:.999997;stroke-linecap:round;stroke-linejoin:round;stroke-miterlimit:4;stroke-dasharray:none;stroke-opacity:1;visibility:visible"/><path d="m388.894 992.368-.014.074-.036.07-.056.064-.081.059-.1.059" style="fill:none;stroke:#00ff4a;stroke-width:1.99999;stroke-linecap:round;stroke-linejoin:round;stroke-miterlimit:4;stroke-dasharray:none;stroke-opacity:1;visibility:visible"/><path d="m367.848 1002.174-.148.058-.165.035-.181.03h-.18l-.182-.007-.177-.03-.16-.05-.137-.057-5.03-2.701M367.848 1002.174l20.759-9.482" style="fill:none;stroke:#00ff4a;stroke-width:.999997;stroke-linecap:round;stroke-linejoin:round;stroke-miterlimit:4;stroke-dasharray:none;stroke-opacity:1;visibility:visible"/><path d="m360.242 859.097.998 140.055M389.499 853.747l-.605 138.621M389.499 853.747l-.015-.065-.05-.065-.082-.064-.117-.051M360.564 858.83l-.109.044-.09.05-.065.056-.044.058-.013.057M367.202 856.591l-6.639 2.24M378.763 852.695l-7.616 2.572M383.89 851.442l-.13-.035-.142-.037-.156-.02-.167-.015h-.173l-.167.007-.165.02-.146.03M389.234 853.502l-5.344-2.059M361.484 999.454l-.106-.066-.074-.077-.049-.08-.015-.08" style="fill:none;stroke:#00ff4a;stroke-width:1.99999;stroke-linecap:round;stroke-linejoin:round;stroke-miterlimit:4;stroke-dasharray:none;stroke-opacity:1;visibility:visible"/><path d="m164.156 974.23 31.894-8.646" style="fill:none;stroke:#00ff4a;stroke-width:.999997;stroke-linecap:round;stroke-linejoin:round;stroke-miterlimit:4;stroke-dasharray:none;stroke-opacity:1;visibility:visible"/><path d="m176.597 843.833 6.501-1.339M162.493 846.726l10.356-2.123M149.618 849.377l9.083-1.864" style="fill:none;stroke:#00ff4a;stroke-width:1.99999;stroke-linecap:round;stroke-linejoin:round;stroke-miterlimit:4;stroke-dasharray:none;stroke-opacity:1;visibility:visible"/><path d="m160.024 971.107 2.916 2.981M164.156 974.23l-.122.029-.137.021-.121.015h-.24l-.1-.015-.099-.014-.097-.02-.092-.03-.074-.036-.077-.04-.059-.051M196.578 965.131v.043l-.008.042-.014.051-.028.035-.066.081-.101.072-.057.036-.072.029-.084.035-.098.028" style="fill:none;stroke:#00ff4a;stroke-width:.999997;stroke-linecap:round;stroke-linejoin:round;stroke-miterlimit:4;stroke-dasharray:none;stroke-opacity:1;visibility:visible"/><path d="m509.41 936.85-.024.064-.049.05-.073.051M498.97 811.389l.006-.08M501.517 810.454l-2.54.859M516.168 810.18l-.015-.046-.041-.048-.08-.036-.101-.043-4.295-1.317M187.592 845.073l-.136 1.71-.114 1.722-.114 1.729-.106 1.735-.092 1.749-.084 1.75-.073 1.762-.067 1.765-.056 1.778-.051 1.786-.032 1.786-.033 1.801-.018 1.799-.016 1.808v1.813l.008 1.821.012 1.83.02 1.836.038 1.834.038 1.854.049 1.849.057 1.857.075 1.866.07 1.872.085 1.87.094 1.88.1 1.88.108 1.895.123 1.89.123 1.9.137 1.902.145 1.912.15 1.912.166 1.917.166 1.92.18 1.93.18 1.932.193 1.929.203 1.936.209 1.936.224 1.944.223 1.944.236 1.952.237 1.958.255 1.952.256 1.964.265 1.96.281 1.966.282 1.964.29 1.973.3 1.965.303 1.975.304 1.9.308 1.9.316 1.901.325 1.908.33 1.902.341 1.906.344 1.908.345 1.916.359 1.908.37 1.916.373 1.907.382 1.916M159.952 970.978l-.404-2.05-.402-2.054-.396-2.052-.388-2.046-.377-2.05-.373-2.047-.367-2.044-.361-2.044-.35-2.045-.34-2.039-.338-2.037-.331-2.036-.32-2.032-.316-2.03-.309-2.025-.295-2.02-.296-2.017-.281-2.026-.28-2.013-.268-2.01-.256-2.008-.258-2.011-.248-2-.237-1.995-.232-1.992-.223-1.988-.214-1.987-.21-1.99-.2-1.976-.196-1.975-.185-1.972-.175-1.966-.17-1.964-.159-1.96-.155-1.95-.15-1.953-.135-1.944-.13-1.936-.116-1.93-.114-1.928-.11-1.925-.09-1.914-.089-1.917-.086-1.906-.072-1.901-.066-1.894-.05-1.885-.05-1.888-.034-1.873-.04-1.871-.018-1.863-.016-1.852v-3.745l.016-1.863.018-1.852.034-1.847.033-1.838.05-1.836.056-1.824.066-1.813.073-1.806M187.592 845.073l-.007-.024-.007-.027-.008-.025-.012-.019-.024-.03-.024-.021M149.618 849.377l-.084.022-.096.022-.076.028-.066.021-.107.059-.088.057-.05.065-.023.035-.006.036M184.358 842.6l-.064-.033-.077-.037-.09-.03-.089-.02-.102-.016-.102-.014-.11-.007h-.234l-.116.008-.146.02-.128.023M187.506 844.927l-3.146-2.326M160.024 971.107l-.016-.021-.02-.022-.005-.02-.017-.017-.008-.021-.006-.03" style="fill:none;stroke:#00ff4a;stroke-width:1.99999;stroke-linecap:round;stroke-linejoin:round;stroke-miterlimit:4;stroke-dasharray:none;stroke-opacity:1;visibility:visible"/><path d="m499.999 941.24-.142-.057M499.999 941.24l4.911-2.238 4.353-1.987" style="fill:none;stroke:#00ff4a;stroke-width:.999997;stroke-linecap:round;stroke-linejoin:round;stroke-miterlimit:4;stroke-dasharray:none;stroke-opacity:1;visibility:visible"/><path d="m511.445 801.783.4.391M502.39 803.54l-.434.355M511.957 802.402l-.32 6.288M501.817 804.123l-.3 6.33M516.168 810.18l-6.757 126.667M502.712 803.385l-.13.05-.109.047-.082.059M511.445 801.783l-.09-.07-.125-.073-.157-.063-.18-.067-.203-.049-.222-.044-.23-.037-.247-.021-.251-.014h-.247l-.237.008-.236.02-.213.03-.199.041-.172.045-5.724 1.894M511.843 802.174l.064.079.036.07.014.08M501.817 804.123l.024-.078.043-.079.072-.073" style="fill:none;stroke:#00ff4a;stroke-width:1.99999;stroke-linecap:round;stroke-linejoin:round;stroke-miterlimit:4;stroke-dasharray:none;stroke-opacity:1;visibility:visible"/><path d="m355.71 866.591.068-.021.064-.007h.07l.064.007.067.015.073.021M360.3 867.247l-2.03-.093M356.726 866.858l-.61-.252M356.726 866.858l.124.05.134.042.154.045.16.036.164.036.173.03.177.02.188.013.131.015.136.009M354.682 867.643v-.057l.006-.013v-.059l.01-.016v-.035l.006-.013v-.024l.006-.005v-.015l.008-.015v-.008l.006-.013v-.021l.008-.015.008-.015v-.008l.006-.013v-.007l.01-.014.005-.008v-.015l.006-.013.008-.008v-.014l.007-.006.008-.016.006-.008v-.015l.01-.005.006-.015.008-.01.004-.012.01-.007v-.015l.006-.007.008-.006.007-.017.01-.006.005-.013.006-.008.007-.007.007-.013.008-.01.008-.006.006-.014.016-.008.004-.005.008-.01.007-.014.01-.007.005-.008.018-.005.006-.008.004-.015.008-.006.016-.01.006-.006.008-.007.008-.007.012-.007.007-.007.007-.007.016-.008.01-.007.005-.008.013-.006.006-.008.015-.007.01-.007.01-.005.009-.01.008-.006.016-.008.006-.007h.017l.007-.008.012-.006.006-.007h.015l.008-.007.013-.008h.016l.006-.006.014-.008h.01l.012-.007.008-.008h.013M355.71 866.591l-.366.123M354.682 867.643l.073 7.228M355.351 875.757h-.015l-.006-.006-.012-.008h-.008l-.01-.006-.014-.008h-.007l-.012-.007-.007-.008-.009-.007h-.015l-.008-.006-.006-.007-.012-.008-.007-.007-.008-.006h-.015l-.009-.008-.007-.008-.012-.007-.006-.007-.008-.008-.01-.005-.017-.008-.005-.007-.006-.01-.006-.006-.007-.009-.017-.005-.008-.008-.007-.007-.007-.007-.005-.006-.007-.017-.008-.006-.014-.007-.01-.007-.006-.007-.008-.007-.004-.007-.007-.016-.008-.006-.008-.007-.007-.008-.009-.013-.007-.007-.005-.008-.007-.008v-.013l-.006-.008-.01-.007-.006-.015-.008-.006-.008-.008-.007-.015v-.007l-.005-.006-.008-.015-.006-.007v-.016l-.009-.008-.007-.005v-.015l-.008-.008-.006-.013v-.008l-.01-.016-.004-.005v-.015l-.008-.007v-.006l-.006-.017v-.006l-.01-.014v-.007l-.006-.014v-.008l-.008-.014v-.022l-.007-.013v-.023l-.007-.006v-.023l-.006-.013v-.044l-.007-.015v-.088M355.351 875.758l5.029 2.11M358.462 873.965l.101-.151.08-.18.05-.21.027-.222v-.239l-.026-.245-.05-.252-.074-.244-.1-.237-.116-.223-.138-.21-.152-.179-.164-.158-.166-.124-.172-.085M357.562 871.006l-.074-.03-.068-.019" style="fill:none;stroke:#00ff4a;stroke-width:.999997;stroke-linecap:round;stroke-linejoin:round;stroke-miterlimit:4;stroke-dasharray:none;stroke-opacity:1;visibility:visible"/><path d="m498.168 811.434-1.588.532" style="fill:none;stroke:#00ff4a;stroke-width:1.99999;stroke-linecap:round;stroke-linejoin:round;stroke-miterlimit:4;stroke-dasharray:none;stroke-opacity:1;visibility:visible"/><path d="m498.153 942.28 1.515-.695M490.819 939.58l6.328 2.683" style="fill:none;stroke:#00ff4a;stroke-width:.999997;stroke-linecap:round;stroke-linejoin:round;stroke-miterlimit:4;stroke-dasharray:none;stroke-opacity:1;visibility:visible"/><path d="m496.579 811.966-.072.028-.058.037-.036.043-.013.041M499.105 811.413l-.135-.026-.146-.012-.141-.005h-.147l-.135.012-.131.02-.1.032" style="fill:none;stroke:#00ff4a;stroke-width:1.99999;stroke-linecap:round;stroke-linejoin:round;stroke-miterlimit:4;stroke-dasharray:none;stroke-opacity:1;visibility:visible"/><path d="m498.153 942.28-.097.033-.125.031-.131.016-.135.004-.145-.013-.137-.015-.123-.034-.113-.039M499.847 941.4l-.014.05-.033.05-.053.041-.08.046M506.17 813.729l-.01-.044-.025-.04-.06-.038-.072-.044-.094-.028" style="fill:none;stroke:#00ff4a;stroke-width:.999997;stroke-linecap:round;stroke-linejoin:round;stroke-miterlimit:4;stroke-dasharray:none;stroke-opacity:1;visibility:visible"/><path d="m490.819 939.58-.079-.045-.072-.051-.05-.05-.031-.05-.009-.057" style="fill:none;stroke:#00ff4a;stroke-width:1.99999;stroke-linecap:round;stroke-linejoin:round;stroke-miterlimit:4;stroke-dasharray:none;stroke-opacity:1;visibility:visible"/><path d="m506.17 813.729-6.323 127.67" style="fill:none;stroke:#00ff4a;stroke-width:.999997;stroke-linecap:round;stroke-linejoin:round;stroke-miterlimit:4;stroke-dasharray:none;stroke-opacity:1;visibility:visible"/><path d="m496.399 812.117-5.819 127.207" style="fill:none;stroke:#00ff4a;stroke-width:1.99999;stroke-linecap:round;stroke-linejoin:round;stroke-miterlimit:4;stroke-dasharray:none;stroke-opacity:1;visibility:visible"/><path d="m356.634 977.45.092-.028.096-.008.092.008.093.021.05.013.051.028M361.09 978.25l-1.935-.11M357.691 977.787l-.583-.303M357.691 977.787l.124.057.128.051.145.052.15.05.158.038.167.033.173.03.171.021.124.007.124.014M355.72 978.472v-.028l.005-.016v-.078l.011-.007v-.043l.008-.014v-.023l.004-.007v-.021l.007-.012v-.008l.008-.017v-.008l.007-.014v-.013l.008-.016.008-.007v-.013l.006-.008v-.013l.01-.008v-.008l.004-.014.006-.008v-.012l.008-.008.007-.008v-.014l.008-.007.008-.008.007-.013v-.008l.008-.007.005-.015.008-.006.007-.008v-.014l.006-.006.008-.008.008-.007.008-.016.006-.008.006-.005.008-.008.007-.007.007-.015.01-.006.005-.008.009-.008.004-.008.008-.006.008-.008.006-.013.008-.007.008-.009.007-.007.008-.006.004-.007.01-.008.013-.007.01-.006.007-.007.007-.008.006-.008.006-.007.016-.006.006-.008h.01l.006-.007.012-.007.007-.006.008-.008.015-.007h.01l.005-.008.009-.007.01-.008.008-.006h.008l.016-.008.008-.007h.011l.007-.007.008-.009h.017l.007-.007M356.634 977.45l-.347.149M355.72 978.472l.065 6.61M356.28 985.896h-.008l-.008-.009-.008-.008h-.01l-.008-.007-.008-.005-.008-.007h-.007l-.015-.008-.005-.006-.007-.008h-.008l-.008-.008-.008-.009-.006-.005-.016-.006-.004-.007h-.008l-.007-.008-.008-.007-.008-.008-.007-.008-.008-.008-.006-.006-.006-.006-.008-.008-.006-.006-.008-.008-.008-.007-.007-.008-.008-.01-.007-.005-.006-.006-.008-.008-.008-.007-.007-.008-.008-.007v-.008l-.007-.006-.008-.007-.005-.007-.007-.014-.008-.008v-.007l-.008-.008-.008-.007-.006-.006-.007-.016v-.007l-.007-.007-.005-.006v-.008l-.008-.014-.007-.006v-.008l-.009-.008-.008-.007v-.015l-.007-.004-.006-.008v-.009l-.006-.015v-.006l-.006-.008v-.012l-.01-.007v-.01l-.008-.015v-.007l-.006-.008v-.012l-.008-.007v-.009l-.007-.015v-.014l-.008-.012v-.016l-.004-.015v-.015l-.007-.012v-.03l-.009-.008v-.05l-.008-.014v-.064M356.28 985.895l4.882 2.57M359.432 984.607l.074-.15.05-.19.02-.199v-.216l-.02-.222-.05-.24-.074-.229-.09-.234-.108-.223-.13-.198-.146-.182-.158-.164-.16-.131-.165-.101M358.476 981.928l-.122-.056-.116-.036" style="fill:none;stroke:#00ff4a;stroke-width:.999997;stroke-linecap:round;stroke-linejoin:round;stroke-miterlimit:4;stroke-dasharray:none;stroke-opacity:1;visibility:visible"/><path d="M163.982 846.325c.1 1.804-1.505 3.358-3.584 3.473-2.086.116-3.854-1.25-3.953-3.053l-.145-2.591c-.102-1.801 1.504-3.357 3.588-3.472 2.08-.116 3.849 1.25 3.952 3.053l.142 2.59" style="fill:none;fill-opacity:1;fill-rule:nonzero;stroke:#00ff4a;stroke-width:1.33333;visibility:visible"/><path d="M157.982 844.15h.01l.01-.01.008-.016.017-.018.018-.025.019-.036M161.773 843.245l.027.069v.079l-.038.069-.07.079-.094.069-.131.061-.154.062-.183.052-.2.042-.211.035-.232.025-.235.018h-.47l-.226-.018-.216-.025-.203-.035-.179-.042-.166-.052-.132-.063-.104-.06-.071-.07-.041-.07-.01-.077.028-.079M158.08 848.174v.087l.032.088.07.086.104.078.13.069.167.07.191.059.219.056.232.034.245.034.268.018.27.016h.278l.278-.016.27-.018.262-.034.24-.044.238-.054.206-.058.19-.071.159-.077.131-.079.096-.079.06-.086.034-.088-.01-.087M157.982 844.22v.017l-.01.016-.005.017v.036" style="fill:none;stroke:#00ff4a;stroke-width:.999997;stroke-linecap:round;stroke-linejoin:round;stroke-miterlimit:4;stroke-dasharray:none;stroke-opacity:1;visibility:visible"/><path d="M157.99 844.131v.009l-.01.01M158.46 843.314l.063-.07.087-.068.122-.061.138-.06.167-.052.188-.052.208-.036.22-.025.224-.028.225-.008h.236l.226.008.218.019.208.034.19.036.177.052.145.052M161.502 843.054l.112.06.096.061.063.07M160.058 845.229l.106 3.638M162.217 844.018l.025.035.024.027.03.025.014.008.01.009h.008M158.06 844.045l-.007.035-.019.026-.014.025-.011.027-.01.035-.019.026M158.08 848.28l-.114-3.974M157.982 844.22v-.07M162.44 848.174l-.111-4.05M158.46 843.314l-.47.817M161.773 843.245l.444.678" style="fill:none;stroke:#00ff4a;stroke-width:.999997;stroke-linecap:round;stroke-linejoin:round;stroke-miterlimit:4;stroke-dasharray:none;stroke-opacity:1;visibility:visible"/><path d="m162.328 844.123-.008-.018-.01-.035-.014-.027-.03-.032-.024-.045-.025-.043" style="fill:none;stroke:#00ff4a;stroke-width:.999997;stroke-linecap:round;stroke-linejoin:round;stroke-miterlimit:4;stroke-dasharray:none;stroke-opacity:1;visibility:visible"/><path d="M178.678 843.025c.1 1.804-1.505 3.358-3.584 3.473-2.086.116-3.856-1.25-3.953-3.053l-.145-2.591c-.102-1.801 1.504-3.357 3.588-3.472 2.08-.116 3.849 1.25 3.952 3.053l.142 2.59" style="fill:none;fill-opacity:1;fill-rule:nonzero;stroke:#00ff4a;stroke-width:1.33333;visibility:visible"/><path d="M172.678 840.85h.01l.01-.01.009-.016.016-.018.017-.025.02-.036M176.47 839.946l.028.07v.077l-.038.071-.07.077-.096.071-.13.059-.154.064-.182.051-.202.043-.21.034-.231.027-.236.016h-.47l-.224-.017-.218-.026-.203-.033-.178-.044-.167-.052-.13-.061-.106-.063-.071-.068-.041-.07-.011-.079.03-.078M172.776 844.874v.087l.032.088.07.086.104.078.132.069.164.07.192.059.22.056.23.034.246.034.268.018.27.016h.278l.278-.016.27-.018.262-.034.24-.044.238-.055.207-.059.19-.069.158-.077.131-.079.096-.079.06-.086.034-.088-.01-.087M172.678 840.92v.017l-.01.016-.005.017v.036" style="fill:none;stroke:#00ff4a;stroke-width:.999997;stroke-linecap:round;stroke-linejoin:round;stroke-miterlimit:4;stroke-dasharray:none;stroke-opacity:1;visibility:visible"/><path d="M172.688 840.831v.009l-.01.01M173.157 840.015l.063-.07.085-.068.123-.062.138-.06.167-.052.187-.052.209-.036.22-.025.224-.028.225-.008h.236l.226.008.218.019.208.034.19.036.178.052.144.052M176.2 839.755l.112.06.096.062.062.069M174.756 841.93l.104 3.639M176.914 840.72l.026.033.024.029.029.024.015.008.009.01h.008M172.758 840.745l-.01.035-.015.026-.016.025-.01.027-.012.035-.017.026M172.776 844.98l-.114-3.974M172.678 840.92v-.07M177.138 844.874l-.113-4.05M173.157 840.015l-.47.816M176.47 839.946l.444.679" style="fill:none;stroke:#00ff4a;stroke-width:.999997;stroke-linecap:round;stroke-linejoin:round;stroke-miterlimit:4;stroke-dasharray:none;stroke-opacity:1;visibility:visible"/><path d="m177.025 840.825-.008-.019-.01-.033-.013-.028-.031-.032-.023-.046-.026-.042" style="fill:none;stroke:#00ff4a;stroke-width:.999997;stroke-linecap:round;stroke-linejoin:round;stroke-miterlimit:4;stroke-dasharray:none;stroke-opacity:1;visibility:visible"/><path d="M372.56 855.889c.044 1.805-1.606 3.31-3.69 3.364-2.087.053-3.815-1.367-3.86-3.173l-.064-2.593c-.047-1.805 1.604-3.312 3.692-3.364 2.084-.053 3.81 1.367 3.854 3.172l.068 2.594" style="fill:none;fill-opacity:1;fill-rule:nonzero;stroke:#00ff4a;stroke-width:1.33333;visibility:visible"/><path d="M366.628 853.534h.012l.007-.01.01-.019.017-.014.018-.026.02-.035M370.446 852.745l.024.07-.002.076-.04.07-.07.077-.1.067-.13.055-.157.057-.185.048-.202.035-.21.029-.234.018-.233.011-.237-.008-.236-.007-.226-.022-.216-.034-.197-.04-.181-.047-.166-.058-.126-.067-.104-.064-.068-.071-.04-.07-.007-.08.03-.075M366.604 857.558l-.002.087.03.089.066.088.102.081.128.074.163.073.192.068.215.059.234.042.242.042.27.025.267.025.281.009.275-.009.273-.008.258-.028.246-.037.236-.044.211-.055.19-.062.161-.075.131-.073.099-.079.063-.083.037-.086-.006-.087M366.626 853.605v.017l-.01.016-.009.017v.035" style="fill:none;stroke:#00ff4a;stroke-width:.999997;stroke-linecap:round;stroke-linejoin:round;stroke-miterlimit:4;stroke-dasharray:none;stroke-opacity:1;visibility:visible"/><path d="M366.638 853.517v.008l-.01.01M367.132 852.714l.064-.068.088-.068.126-.056.138-.056.167-.048.192-.045.21-.027.216-.021.229-.02.225-.002.236.007.225.015.22.025.203.043.192.037.173.06.144.056M370.18 852.546l.111.064.093.063.062.072M368.671 854.675l-.004 3.642M370.866 853.531l.024.036.024.027.03.027.011.009.011.01h.008M366.71 853.433l-.01.033-.018.027-.016.024-.01.028-.014.032-.015.028M366.6 857.663l.007-3.972M366.626 853.605l.002-.07M370.964 857.69l.011-4.05M367.132 852.714l-.494.804M370.446 852.745l.422.692" style="fill:none;stroke:#00ff4a;stroke-width:.999997;stroke-linecap:round;stroke-linejoin:round;stroke-miterlimit:4;stroke-dasharray:none;stroke-opacity:1;visibility:visible"/><path d="m370.972 853.64-.006-.02-.01-.032-.013-.03-.028-.035-.025-.043-.02-.043" style="fill:none;stroke:#00ff4a;stroke-width:.999997;stroke-linecap:round;stroke-linejoin:round;stroke-miterlimit:4;stroke-dasharray:none;stroke-opacity:1;visibility:visible"/><path d="M384.394 852.222c.044 1.805-1.607 3.31-3.69 3.364-2.089.053-3.817-1.367-3.861-3.172l-.063-2.593c-.048-1.806 1.604-3.312 3.691-3.364 2.084-.054 3.81 1.366 3.855 3.172l.068 2.593" style="fill:none;fill-opacity:1;fill-rule:nonzero;stroke:#00ff4a;stroke-width:1.33333;visibility:visible"/><path d="M378.462 849.867h.01l.008-.01.01-.018.018-.014.018-.027.018-.033M382.279 849.078l.025.07-.002.078-.042.068-.068.077-.101.067-.13.056-.156.056-.185.048-.202.036-.211.028-.233.019-.234.009-.237-.007-.236-.006-.225-.023-.216-.033-.198-.041-.18-.047-.167-.058-.126-.065-.104-.065-.068-.072-.04-.07-.007-.08.031-.073M378.44 853.891l-.005.087.032.09.065.086.103.083.128.073.163.075.192.065.214.06.235.043.241.041.27.025.27.026.277.008.278-.008.27-.008.261-.028.244-.039.236-.043.212-.054.19-.063.159-.075.133-.073.099-.077.063-.085.037-.086-.007-.087M378.46 849.938v.017l-.013.016-.005.019v.007l-.002.018v.008" style="fill:none;stroke:#00ff4a;stroke-width:.999997;stroke-linecap:round;stroke-linejoin:round;stroke-miterlimit:4;stroke-dasharray:none;stroke-opacity:1;visibility:visible"/><path d="M378.471 849.85v.008l-.01.01M378.966 849.047l.064-.067.088-.069.125-.056.139-.055.166-.049.192-.045.21-.027.217-.021.228-.02.225-.001.236.006.226.015.218.027.206.041.19.039.174.057.144.057M382.012 848.88l.111.062.093.064.062.072M380.506 851.009l-.004 3.641M382.699 849.865l.025.035.023.027.03.027.013.01.009.008h.008M378.543 849.766l-.01.033-.017.027-.017.024-.009.028-.015.032-.015.028M378.434 853.997l.006-3.972M378.46 849.938l.001-.07M382.798 854.023l.01-4.05M378.966 849.047l-.496.804M382.279 849.078l.423.692" style="fill:none;stroke:#00ff4a;stroke-width:.999997;stroke-linecap:round;stroke-linejoin:round;stroke-miterlimit:4;stroke-dasharray:none;stroke-opacity:1;visibility:visible"/><path d="m382.807 849.973-.007-.019-.009-.033-.013-.031-.028-.033-.026-.044-.02-.043M287.649 950.773l-2.901 1.821M285.987 950.182l-1.239 2.412M287.661 950.04l-1.674.142M490.819 939.58l.252-13.541M357.448 997.255l-.584 4.19" style="fill:none;stroke:#00ff4a;stroke-width:.999997;stroke-linecap:round;stroke-linejoin:round;stroke-miterlimit:4;stroke-dasharray:none;stroke-opacity:1;visibility:visible"/><path d="m376.283 996.29 3.051-3.7M376.283 996.29l3.051-3.7M367.848 1002.174l.599-4.653M367.848 1002.174l.599-4.653M379.334 992.59l-3.051 3.7M379.334 992.59l-3.051 3.7" style="fill:none;stroke:#00ff4a;stroke-width:.666665;stroke-linecap:round;stroke-linejoin:round;stroke-miterlimit:4;stroke-dasharray:none;stroke-opacity:1;visibility:visible"/><path d="m403.008 894.093-13.67-4.278M159.952 970.976l-.312 5.967" style="fill:none;stroke:#00ff4a;stroke-width:.999997;stroke-linecap:round;stroke-linejoin:round;stroke-miterlimit:4;stroke-dasharray:none;stroke-opacity:1;visibility:visible"/><path d="m499.857 941.183 12.719-13.76M499.999 941.24l10.31-14.808M490.819 939.58l-.035-6.099M357.08 997.219l2.94-1.319M498.153 942.28l-7.62-4.96M388.607 992.692l1.458-10.277M509.263 937.015l.948-8.527M273.236 949.935l.901 8.273M400.843 886.088l2.165 8.005M298.038 936.48l4.132 10.483M408.466 882.098l9.624 4.084M404.88 883.979l-14.759-3.607M298.038 936.48l-7-6.496M196.05 965.584l.373-5.967" style="fill:none;stroke:#00ff4a;stroke-width:1.99999;stroke-linecap:round;stroke-linejoin:round;stroke-miterlimit:4;stroke-dasharray:none;stroke-opacity:1;visibility:visible"/><path d="m268.363 823.044 3.291.266M276.124 820.819l-4.47 2.491" style="fill:none;stroke:#00ff4a;stroke-width:.999997;stroke-linecap:round;stroke-linejoin:round;stroke-miterlimit:4;stroke-dasharray:none;stroke-opacity:1;visibility:visible"/><path d="m271.654 823.31-3.291-.266M279.606 819.825l-3.482.994" style="fill:none;stroke:#00ff4a;stroke-width:1.99999;stroke-linecap:round;stroke-linejoin:round;stroke-miterlimit:4;stroke-dasharray:none;stroke-opacity:1;visibility:visible"/><path d="m268.96 825.555 1.54-1.848M268.958 825.46l1.542-1.753" style="fill:none;fill-opacity:1;fill-rule:nonzero;stroke:#00ff4a;stroke-width:1.33333;visibility:visible"/><path d="m162.493 846.726 4.932-.113M172.849 844.603l-5.424 2.01M371.147 855.267l2.988.806M378.763 852.695l-4.628 3.377M511.03 810.698l-4.947-8.115M505.707 804.722l.376-2.139M157.982 844.22l2.024-1.359" style="fill:none;stroke:#00ff4a;stroke-width:.999997;stroke-linecap:round;stroke-linejoin:round;stroke-miterlimit:4;stroke-dasharray:none;stroke-opacity:1;visibility:visible"/><path d="m371.147 855.267-3.945 1.324M374.135 856.072l4.628-3.377M374.135 856.073l-2.988-.806M367.232 861.494l15.412-10.102M172.849 844.603l3.748-.77M158.701 847.513l3.792-.787" style="fill:none;stroke:#00ff4a;stroke-width:1.99999;stroke-linecap:round;stroke-linejoin:round;stroke-miterlimit:4;stroke-dasharray:none;stroke-opacity:1;visibility:visible"/><path d="m366.628 853.534-6.328 13.713" style="fill:none;stroke:#00ff4a;stroke-width:.999997;stroke-linecap:round;stroke-linejoin:round;stroke-miterlimit:4;stroke-dasharray:none;stroke-opacity:1;visibility:visible"/><path d="m162.44 848.174 1.542-1.849M162.44 848.078l1.542-1.753" style="fill:none;fill-opacity:1;fill-rule:nonzero;stroke:#00ff4a;stroke-width:1.33333;visibility:visible"/><path d="m157.967 844.306 2.091.923" style="fill:none;stroke:#00ff4a;stroke-width:.999997;stroke-linecap:round;stroke-linejoin:round;stroke-miterlimit:4;stroke-dasharray:none;stroke-opacity:1;visibility:visible"/><path d="m177.138 844.874 1.54-1.849M177.136 844.778l1.542-1.753" style="fill:none;fill-opacity:1;fill-rule:nonzero;stroke:#00ff4a;stroke-width:1.33333;visibility:visible"/><path d="m172.663 841.006 2.093.924M172.776 844.874l2.084.695" style="fill:none;stroke:#00ff4a;stroke-width:.999997;stroke-linecap:round;stroke-linejoin:round;stroke-miterlimit:4;stroke-dasharray:none;stroke-opacity:1;visibility:visible"/><path d="m370.964 857.69 1.596-1.801M370.966 857.594l1.594-1.705" style="fill:none;fill-opacity:1;fill-rule:nonzero;stroke:#00ff4a;stroke-width:1.33333;visibility:visible"/><path d="m366.607 853.69 2.064.985M366.604 857.558l2.063.759M378.44 850.023l2.066.986M378.44 853.891l2.062.759" style="fill:none;stroke:#00ff4a;stroke-width:.999997;stroke-linecap:round;stroke-linejoin:round;stroke-miterlimit:4;stroke-dasharray:none;stroke-opacity:1;visibility:visible"/></svg>