<svg xmlns="http://www.w3.org/2000/svg" baseProfile="full" height="793.701" preserveAspectRatio="xMinYMin meet" style="width:914px;height:841px" width="559.371" xml:space="preserve"><path d="m317.097 619.846 107.872-92.474M176.774 563.97l114.792-84.09M336.98 669.645l.479-20.799-210.888-85.578M354.02 636.175l-13.817 12.379M164.836 567.526l.248-.215.188-.23.11-.24.051-.24-.024-.247-.104-.23-.164-.223-.228-.196-.281-.18-.344-.146-.376-.118-.41-.078-.435-.044h-.444l-.436.035-.427.079-.412.108-.365.145-.334.18-.274.197-.215.224-.153.228-.086.248-.009.242.061.237.128.23.196.214.267.19.307.16.357.14.404.094.417.057.446.026.442-.016.438-.06.417-.095.395-.128.349-.161.3-.187M141.9 558.312l.248-.203.19-.224.12-.24.049-.238-.026-.238-.084-.232-.162-.213-.222-.196-.282-.181-.326-.144-.376-.112-.41-.076-.428-.044h-.434l-.436.044-.428.068-.401.109-.376.147-.325.172-.282.194-.213.215-.163.23-.085.24-.017.24.058.238.122.223.188.205.257.188.305.163.352.128.394.093.417.059.435.025.445-.016.436-.059.41-.094.394-.131.35-.15.306-.19M148.67 561.03l.323-.204.376-.17.41-.149.454-.109.46-.076.481-.036h.476l.461.044.455.085.41.111.375.153.326.179.274.205.204.232.135.24.079.255v.264l-.07.268-.144.247-.204.248-.274.222-.326.203-.376.181-.418.146-.446.112-.47.076-.476.034h-.479l-.47-.044-.445-.086-.418-.111-.368-.153-.326-.18-.272-.212-.205-.223-.147-.248-.065-.256v-.264l.075-.256.146-.257.206-.25.273-.221M340.201 648.553l-2.741.292M475.801 527.037l-11.219 10.059M462.218 537.433l-1.281 19.483M296.957 469.01l-.35-.101-.375-.079-.395-.032-.401-.019-.4.027-.386.06-.36.076-.332.12-.292.139-.238.152-.18.18-.127.185-.061.205v.198l.069.197.128.195.19.182.246.152.29.146.333.11.36.094.392.05.393.027.41-.008.394-.033.376-.07.343-.101.306-.13.263-.143.215-.171.156-.19.092-.187.034-.206-.034-.194-.1-.198-.164-.189-.214-.17-.274-.145-.307-.129M275.116 461.455l-.352-.101-.365-.071-.394-.041-.394-.008-.402.026-.382.05-.359.085-.324.112-.293.139-.239.152-.187.18-.129.188-.068.188-.01.193.07.2.119.187.189.18.23.153.29.145.325.114.359.084.384.058.395.018h.401l.392-.044.377-.067.339-.096.319-.125.265-.147.212-.173.155-.178.102-.188.034-.196-.034-.197-.094-.197-.152-.178-.215-.173-.257-.143-.307-.129M162.1 421.918l-.365-.11-.395-.075-.42-.063-.436-.025-.444.009-.435.033-.436.059-.41.088-.384.112-.351.144-.308.153-.255.18-.213.187-.155.197-.092.206-.036.213.024.204.087.205.145.196.204.18.267.163.296.145.352.12.385.094.411.069.427.033.436.018.444-.018.434-.052.428-.076.394-.102.376-.13.325-.145.29-.17.231-.18.187-.195.121-.204.067-.207v-.215l-.06-.204-.119-.198-.18-.184-.23-.171-.282-.155-.325-.129M182.13 428.839l-.367-.11-.4-.085-.428-.053-.436-.024h-.445l-.444.035-.427.058-.41.095-.384.11-.352.146-.307.163-.265.172-.204.194-.155.207-.095.204-.025.216.025.212.095.205.155.196.214.18.263.171.308.145.359.119.384.093.41.079.435.032.445.019.446-.026.445-.044.419-.077.4-.101.368-.128.333-.158.28-.166.241-.19.179-.196.12-.206.061-.212-.009-.215-.06-.213-.13-.196-.178-.187-.24-.181-.29-.154-.334-.129M286.225 465.045l-.376-.112-.403-.076-.418-.05-.436-.017-.427.016-.428.044-.401.076-.376.102-.342.138-.297.152-.25.18-.187.186-.127.209-.07.212-.009.213.068.214.12.214.19.196.238.18.3.154.332.137.376.11.402.086.428.052.436.013.426-.013.428-.043.4-.077.386-.103.332-.138.3-.152.248-.18.188-.195.128-.207.068-.214v-.214l-.06-.213-.127-.204-.188-.196-.24-.18-.29-.163-.342-.137M142.122 415.253l-.333-.101-.375-.071-.385-.041-.411-.018-.408.01-.412.042-.393.068-.367.094-.343.12-.309.136-.253.164-.214.17-.154.179-.095.197-.035.188.027.196.093.187.146.172.206.161.256.147.299.12.333.101.376.07.394.05.4.019.418-.019.403-.044.401-.066.368-.094.34-.12.311-.137.255-.16.206-.173.154-.188.093-.188.032-.196-.025-.188-.092-.188-.147-.171-.204-.163-.256-.145-.3-.12M462.148 537.326l-354.947-124.07M107.2 413.255l-.624-.23-.572-.258-.533-.273-.484-.29-.435-.308-.385-.325-.334-.34-.273-.352-.223-.361-.161-.367-.113-.373-.05-.376M462.148 537.326l2.435-.23" style="fill:none;stroke:red;stroke-width:.995997;stroke-linecap:round;stroke-linejoin:round;stroke-miterlimit:4;stroke-dasharray:none;stroke-opacity:1;visibility:visible" visibility="hidden"/><path d="m328.495 624.382 97.37-84.57" style="fill:none;stroke:red;stroke-width:1.99333;stroke-linecap:round;stroke-linejoin:round;stroke-miterlimit:4;stroke-dasharray:none;stroke-opacity:1;visibility:visible" visibility="hidden"/><path d="m426.233 532.73.181-3.324M425.864 539.813l.368-7.084M424.97 527.371l-9.657-3.384-5.478-1.923" style="fill:none;stroke:red;stroke-width:.995997;stroke-linecap:round;stroke-linejoin:round;stroke-miterlimit:4;stroke-dasharray:none;stroke-opacity:1;visibility:visible" visibility="hidden"/><path d="m300.879 613.386 107.385-90.354M409.835 522.065l-1.572.967" style="fill:none;stroke:red;stroke-width:1.99333;stroke-linecap:round;stroke-linejoin:round;stroke-miterlimit:4;stroke-dasharray:none;stroke-opacity:1;visibility:visible" visibility="hidden"/><path d="m426.413 529.406-1.444-2.035M262.163 469.573l29.403 10.307 1.374 1.93M292.908 486.212l.016-2.573M292.864 493.328l.044-7.116M292.923 483.638l.017-1.828" style="fill:none;stroke:red;stroke-width:.995997;stroke-linecap:round;stroke-linejoin:round;stroke-miterlimit:4;stroke-dasharray:none;stroke-opacity:1;visibility:visible" visibility="hidden"/><path d="m190.512 569.439 102.35-76.11M146.148 551.776l116.016-82.202M126.572 563.268l.99 19.808M127.655 560.91l-1.083 2.357M142.601 550.366l-14.945 10.544M128.792 583.759l-1.23-.683M339.698 669.354l13.723-12.519.598-20.66M352.413 633.909l-209.811-83.542M338.015 670.26l-209.222-86.501M352.413 633.909l1.008.667.599 1.598M338.015 670.26l1.684-.907M474.46 546.4l1.343-19.361M463.302 556.579l11.157-10.179M461.651 557.509l-39.819-14.203M395.37 533.873l-106.137-37.844M246.396 480.75l-137.162-48.91M107.38 430.942l.41.248.445.23.488.214.51.205M474.35 525.005l-353.246-121.45M105.858 405.41l.41-.317.453-.296.505-.295.545-.273.583-.246.615-.241.648-.203.685-.198.7-.162.725-.144.747-.121.75-.084.76-.068.769-.043.761-.01.76.017.752.044.735.06.718.092.699.121.668.146.641.17.615.196M103.012 409.4l.008-.376.061-.376.12-.376.171-.368.224-.367.279-.358.333-.359.376-.344M104.003 427.174l.052.393.11.383.163.376.231.37.283.358.333.341.392.334.444.316M463.302 556.579l-1.65.93M475.1 525.739l.7 1.3M474.35 525.005l.75.733M103.012 409.4l.99 17.773M107.38 430.942l-1.37-.899M105.858 405.41l-1.275 1.067" style="fill:none;stroke:red;stroke-width:1.99333;stroke-linecap:round;stroke-linejoin:round;stroke-miterlimit:4;stroke-dasharray:none;stroke-opacity:1;visibility:visible" visibility="hidden"/><path d="m164.836 567.526 11.938-3.556M148.67 561.03l16.166 6.496M176.774 563.97l-11.938 3.556M148.67 561.03l-6.77-2.718M148.67 561.03l-6.77-2.718M141.9 558.312l6.77 2.718M141.9 558.312l6.77 2.718M262.163 469.573l12.953-8.118" style="fill:none;stroke:red;stroke-width:.995997;stroke-linecap:round;stroke-linejoin:round;stroke-miterlimit:4;stroke-dasharray:none;stroke-opacity:1;visibility:visible" visibility="hidden"/><path d="m142.601 550.366 3.547 1.41M424.97 527.371l-3.138 15.935M409.835 522.064l-14.465 11.809M262.163 469.573l-15.767 11.177" style="fill:none;stroke:red;stroke-width:1.99333;stroke-linecap:round;stroke-linejoin:round;stroke-miterlimit:4;stroke-dasharray:none;stroke-opacity:1;visibility:visible" visibility="hidden"/><path d="m197.023 223.351 8.35-4.161M194.587 223.505l-93.473-24.797M197.023 223.351l-2.436.153M100.654 197.81l.23.453.231.444M132.723 202.04l-.333-.077-.367-.051-.392-.027-.403-.006-.402.016-.402.044-.385.058-.348.078-.319.102-.264.111-.221.128-.164.137-.092.146-.035.144.035.148.092.134.164.13.212.118.273.102.319.078.348.067.385.044.394.017.41-.009.403-.025.392-.052.367-.067.333-.093.299-.112.238-.12.19-.139.129-.136.068-.145v-.144l-.068-.136-.13-.136-.189-.12-.245-.112-.292-.095M149.94 207.475l-.333.128-.282.136-.23.153-.163.164-.103.17-.041.172.025.17.094.163.154.161.222.146.273.128.325.12.366.094.41.076.446.06.452.035.47.01.48-.018.468-.044.454-.059.426-.078.392-.11.36-.118.307-.138.26-.145.193-.161.139-.166.068-.169v-.172l-.061-.17-.127-.153-.187-.154-.249-.136-.299-.13-.352-.112M171.304 213.106l-.333.128-.274.145-.232.154-.16.172-.093.17-.036.172.024.168.105.172.16.163.223.147.283.136.333.118.376.095.419.085.437.052.468.034.47.008.478-.016.472-.036.46-.068.43-.086.391-.102.358-.12.308-.136.249-.155.195-.161.128-.171.069-.17v-.173l-.07-.17-.134-.163-.199-.153-.246-.144-.308-.128-.359-.111M198.314 378.288l-3.728-154.782" style="fill:none;stroke:#00ff4a;stroke-width:.995997;stroke-linecap:round;stroke-linejoin:round;stroke-miterlimit:4;stroke-dasharray:none;stroke-opacity:1;visibility:visible"/><path d="m132.614 203.467-.105-.033-.11-.036M132.578 203.475l-.095-.033-.109-.026" style="fill:none;stroke:#00ff4a;stroke-width:.995997;stroke-linecap:round;stroke-linejoin:round;stroke-miterlimit:4;stroke-dasharray:none;stroke-opacity:1;visibility:visible"/><path d="m200.63 378.108 7.93-4.844M198.314 378.288l2.315-.181M109.036 349.363l89.278 28.925M147.231 203.159l-35.375-9.28M169.723 209.058l-13.767-3.612M208.56 373.264l-3.185-154.073-.343-.872-27.648-7.252M111.857 193.88l-1.307.036-1.301.035M100.654 197.81l8.595-3.861M89.988 298.197l-.605-2.81-.574-2.805-.521-2.81-.47-2.803-.434-2.803-.385-2.794-.342-2.794-.292-2.785-.245-2.787-.199-2.777-.15-2.76-.114-2.76-.06-2.741-.016-2.736.035-2.719.077-2.707.127-2.693.179-2.673.222-2.658.274-2.64.316-2.624.366-2.597.411-2.58.461-2.556.514-2.537.556-2.504.606-2.487.65-2.46.698-2.426.754-2.402.794-2.376.838-2.341.889-2.308.93-2.273.985-2.247 1.034-2.204 1.068-2.17 1.118-2.137 1.17-2.101M109.036 349.363l-1.341-2.555-1.298-2.562-1.257-2.582-1.23-2.598-1.187-2.615-1.154-2.63-1.12-2.642-1.077-2.648-1.044-2.667-.997-2.674-.966-2.683-.922-2.7-.88-2.7-.839-2.708-.803-2.71-.761-2.726-.725-2.717-.676-2.735-.631-2.724-.14-.59" style="fill:none;stroke:#00ff4a;stroke-width:1.99333;stroke-linecap:round;stroke-linejoin:round;stroke-miterlimit:4;stroke-dasharray:none;stroke-opacity:1;visibility:visible"/><path d="M174.55 186.657c.004-.005.007-.005.014-.01M170.893 186.796c.001.003.007.003.012.01M170.906 186.804c.168.155.367.266.587.332M171.493 187.136a3.957 3.957 0 0 0 2.499-.099M173.992 187.039c.212-.083.408-.211.56-.382M170.138 186.02l.755.775M175.257 185.813l-.692.833M175.236 185.832a.5.5 0 0 0 .134-.352M169.997 185.693a.47.47 0 0 0 .16.343" style="fill:none;stroke:#00ff4a;stroke-width:.995997;stroke-linecap:round;stroke-linejoin:round;stroke-miterlimit:2;stroke-dasharray:none;stroke-opacity:1;visibility:visible"/><path d="m132.374 203.416.349-1.376M132.614 203.467l.109-1.427M147.231 203.159l7.066 4.17M169.723 209.058l5.973 3.904" style="fill:none;stroke:#00ff4a;stroke-width:.995997;stroke-linecap:round;stroke-linejoin:round;stroke-miterlimit:4;stroke-dasharray:none;stroke-opacity:1;visibility:visible"/><path d="m154.297 207.328-7.066-4.169M175.696 212.962l-5.973-3.904M147.231 203.159l8.725 2.287M169.723 209.058l7.661 2.01" style="fill:none;stroke:#00ff4a;stroke-width:1.99333;stroke-linecap:round;stroke-linejoin:round;stroke-miterlimit:4;stroke-dasharray:none;stroke-opacity:1;visibility:visible"/></svg>