<svg xmlns="http://www.w3.org/2000/svg" baseProfile="full" height="793.701" preserveAspectRatio="xMinYMin meet" style="width:914px;height:841px" width="559.371" xml:space="preserve"><path d="m323.438 420.335-9.981-7.86 1.796-.41M175.96 455.79l148.674-34.515M56.256 371.005l85.654 80.673M56.256 371.005l-.204-.23-.155-.231-.094-.238-.043-.249.017-.247.079-.246.125-.243.182-.237.238-.239" style="fill:none;stroke:red;stroke-width:.995997;stroke-linecap:round;stroke-linejoin:round;stroke-miterlimit:4;stroke-dasharray:none;stroke-opacity:1;visibility:visible"/><path d="m55.221 379.722 85.278 81.486 1.606 1.152.796-.18" style="fill:none;stroke:red;stroke-width:1.99333;stroke-linecap:round;stroke-linejoin:round;stroke-miterlimit:4;stroke-dasharray:none;stroke-opacity:1;visibility:visible"/><path d="m324.635 421.276-.428 10.365M324.635 421.276l-1.196-.941" style="fill:none;stroke:red;stroke-width:.995997;stroke-linecap:round;stroke-linejoin:round;stroke-miterlimit:4;stroke-dasharray:none;stroke-opacity:1;visibility:visible"/><path d="m316.02 391.762-8.528-6.981M262.66 348.136l-17.947-14.668M236.734 332.357l.496-.084.521-.068.528-.052.548-.027.546-.006.557.006.54.036.536.051.53.076.505.095.477.102.453.127.428.147.392.164.35.17.309.178.264.196M205.243 338.601l-25.49 5.056M236.734 332.357l-19.745 3.916M87.354 361.98l-27.645 5.481M56.4 368.846l.275-.213.322-.214.37-.198.401-.187.435-.164.478-.153.496-.136.531-.12M324.207 431.64l-148.16 34.872M55.221 379.722l-.213-.22-.163-.232-.128-.239-.077-.249-.034-.247M54.273 371.536l.333 7M54.273 371.536l.017-.255.059-.258.113-.266.154-.245.205-.259.255-.237M56.4 368.846l-1.325 1.17M216.989 336.273l-11.746 2.328M205.243 338.601l11.746-2.328" style="fill:none;stroke:red;stroke-width:1.99333;stroke-linecap:round;stroke-linejoin:round;stroke-miterlimit:4;stroke-dasharray:none;stroke-opacity:1;visibility:visible"/><path d="m141.91 451.678.785-.188M175.918 455.747l.043.043M147.78 184.505l-10.23-6.719M172.886 181.412l-22.56 3.359 6.228 417.745M156.555 602.516v.741l-.025.702-.059.668-.088.613-.11.572-.127.523-.163.47-.187.408-.206.359-.222.299-.257.232-.265.18-.282.11M150.326 184.77l-2.547-.264M173.79 180.642l-.904.77M80.267 122.879l-20.404 2.597 8.912 213.128M57.666 125.27l-7.921-5.203M81.19 122.282l-.923.596M57.666 125.27l2.196.207M141.21 372.202 69.689 306.69M138.286 216.557l-73.665-52.236M282.628 349.353l-.412.13-.365.154-.307.17-.259.186-.196.208-.128.204-.068.223.008.212.068.224.138.212.204.208.265.196.327.186.365.163.42.153.463.122.493.1.513.077.53.052.546.024h.54l.53-.032.512-.06.488-.088" style="fill:none;stroke:#00ff4a;stroke-width:.995997;stroke-linecap:round;stroke-linejoin:round;stroke-miterlimit:4;stroke-dasharray:none;stroke-opacity:1;visibility:visible" visibility="hidden"/><path d="m287.302 352.378.452-.112.41-.135.369-.154.306-.172.256-.186.196-.198.13-.212.058-.212-.008-.224-.076-.22-.137-.216-.205-.204-.266-.198-.322-.178-.378-.172-.418-.146M208.75 364.657l-.393.164-.343.18-.281.195-.223.206-.152.222-.096.23-.015.222.042.23.118.231.18.215.248.204.307.197.368.172.41.153.453.138.496.101.521.084.537.053.548.027.556-.01.546-.033.529-.061.505-.087" style="fill:none;stroke:#00ff4a;stroke-width:.995997;stroke-linecap:round;stroke-linejoin:round;stroke-miterlimit:4;stroke-dasharray:none;stroke-opacity:1;visibility:visible" visibility="hidden"/><path d="m213.61 367.69.479-.12.434-.135.394-.162.342-.18.283-.196.213-.214.162-.224.086-.221.016-.23-.052-.23-.118-.224-.19-.221-.248-.207-.306-.187-.367-.17-.41-.155M327.96 347.465l-152.629 31.89M323.567 453.517l-147.392 35.708M325.242 150.377l12.09 5.973M339.827 156.588l20.07-2.979M322.746 556.808l17.081-400.22M319.943 562.644l.36-.139.34-.185.317-.25.3-.306.274-.36.254-.41.223-.47.197-.51.171-.557.136-.605.112-.652.076-.676.043-.716M359.899 153.608l.573-.693M281.77 311.723l-49.2-34.523M318.107 337.22l-26.98-18.93M323.788 188.469l-89.081-47.783M232.273 103.515l18.395-2.34M230.248 307.859l2.025-204.342M220.609 98.637l9.493 4.69 2.171.189M251.32 100.63l-.65.547M185.806 278.123l-.308.137-.247.152-.197.155-.147.17-.085.173-.025.17.034.172.095.17.155.169.212.155.257.146.315.136.35.112.394.102.426.086.454.059.462.035.476.026.488-.009.47-.027.47-.042.444-.068M190.299 280.302l.42-.087.384-.108.343-.12.297-.138.259-.152.194-.155.147-.172.076-.17.027-.171-.043-.178-.095-.173-.154-.16-.214-.155-.264-.146-.309-.127-.357-.121M118.173 290.3l-.273.153-.223.162-.163.182-.11.168-.043.191.017.179.076.18.138.17.197.162.247.153.301.137.348.12.385.103.428.085.452.067.468.035.488.025.488-.01.495-.023.479-.051.461-.07M122.829 292.417l.436-.083.41-.112.36-.129.323-.145.272-.152.226-.172.161-.172.11-.178.045-.181-.018-.179-.086-.178-.135-.172-.199-.162-.256-.156-.297-.133-.352-.12-.385-.104M227.445 276.584l-52.832 9.537M139.705 292.428l-52.157 9.416" style="fill:none;stroke:#00ff4a;stroke-width:.995997;stroke-linecap:round;stroke-linejoin:round;stroke-miterlimit:4;stroke-dasharray:none;stroke-opacity:1;visibility:visible" visibility="hidden"/><path d="m176.004 466.47.043.041M172.056 179.063l-10.484-6.605-22.32 3.248M137.552 177.787l7.767 413.446M151.147 606.83l-.333-.248-.34-.31-.343-.366-.341-.42-.343-.468-.343-.512-.34-.567-.334-.605-.316-.648-.318-.677-.297-.707-.29-.747-.266-.758-.256-.778-.24-.796-.215-.793-.194-.812-.18-.803-.144-.804-.131-.794-.101-.778-.075-.753-.061-.741-.026-.712M173.79 180.642l3.215 415.224M176.362 599.788l.173-.419.143-.461.121-.521.094-.564.066-.614.035-.66.01-.682M174.124 602.985l.264-.103.25-.152.237-.198.224-.247.205-.3.18-.352M154.565 608.393l-.264.052h-.265l-.283-.052-.29-.085-.3-.144-.3-.182M139.252 175.704l-1.701 2.083M172.056 179.063l1.735 1.579M174.124 602.985l-19.56 5.408M151.147 606.83l1.717 1.152M176.362 599.788l-.879 1.845M70.988 338.186l-2.213.417-2.059-.289-7.52-7.28M79.575 120.83l-8.143-5.12-20.2 2.523M81.19 122.282l1.513 42.663M83.728 194.117l3.999 112.768M49.744 120.068l9.452 210.966M79.575 120.83l1.613 1.452M49.744 120.068l1.488-1.836" style="fill:none;stroke:#00ff4a;stroke-width:1.99333;stroke-linecap:round;stroke-linejoin:round;stroke-miterlimit:4;stroke-dasharray:none;stroke-opacity:1;visibility:visible" visibility="hidden"/><path d="m71.116 304.947 11.859-2.147 1.53 1.206M69.688 306.69l1.3 31.496M71.116 304.947l-1.427 1.744" style="fill:none;stroke:#00ff4a;stroke-width:.995997;stroke-linecap:round;stroke-linejoin:round;stroke-miterlimit:4;stroke-dasharray:none;stroke-opacity:1;visibility:visible" visibility="hidden"/><path d="m116.148 381.588 25.701 24.701M70.988 338.186l28.887 27.763M84.505 304.006l56.361 50.303" style="fill:none;stroke:#00ff4a;stroke-width:1.99333;stroke-linecap:round;stroke-linejoin:round;stroke-miterlimit:4;stroke-dasharray:none;stroke-opacity:1;visibility:visible" visibility="hidden"/><path d="m65.278 180.405-.656-16.083M66.109 162.486l10.861-1.505M66.109 162.486l-1.487 1.836" style="fill:none;stroke:#00ff4a;stroke-width:.995997;stroke-linecap:round;stroke-linejoin:round;stroke-miterlimit:4;stroke-dasharray:none;stroke-opacity:1;visibility:visible" visibility="hidden"/><path d="m65.278 180.405 1.616 1.376M138.03 203.194l-61.063-42.213M138.62 234.34l-71.726-52.56" style="fill:none;stroke:#00ff4a;stroke-width:1.99333;stroke-linecap:round;stroke-linejoin:round;stroke-miterlimit:4;stroke-dasharray:none;stroke-opacity:1;visibility:visible" visibility="hidden"/><path d="m320.191 340.399 6.953 4.897" style="fill:none;stroke:#00ff4a;stroke-width:.995997;stroke-linecap:round;stroke-linejoin:round;stroke-miterlimit:4;stroke-dasharray:none;stroke-opacity:1;visibility:visible" visibility="hidden"/><path d="m205.758 363.991-30.497 6.288M278.395 349.017l-61.492 12.677M320.191 340.399l-29.997 6.184" style="fill:none;stroke:#00ff4a;stroke-width:1.99333;stroke-linecap:round;stroke-linejoin:round;stroke-miterlimit:4;stroke-dasharray:none;stroke-opacity:1;visibility:visible" visibility="hidden"/><path d="m327.146 345.295.813 2.17-1.369 33.129" style="fill:none;stroke:#00ff4a;stroke-width:.995997;stroke-linecap:round;stroke-linejoin:round;stroke-miterlimit:4;stroke-dasharray:none;stroke-opacity:1;visibility:visible" visibility="hidden"/><path d="m234.381 400.819-58.787 12.895M326.59 380.594l-72.001 15.793" style="fill:none;stroke:#00ff4a;stroke-width:1.99333;stroke-linecap:round;stroke-linejoin:round;stroke-miterlimit:4;stroke-dasharray:none;stroke-opacity:1;visibility:visible" visibility="hidden"/><path d="m316.09 445.878 6.69 5.495" style="fill:none;stroke:#00ff4a;stroke-width:.995997;stroke-linecap:round;stroke-linejoin:round;stroke-miterlimit:4;stroke-dasharray:none;stroke-opacity:1;visibility:visible" visibility="hidden"/><path d="m316.09 445.878-139.984 33.495" style="fill:none;stroke:#00ff4a;stroke-width:1.99333;stroke-linecap:round;stroke-linejoin:round;stroke-miterlimit:4;stroke-dasharray:none;stroke-opacity:1;visibility:visible" visibility="hidden"/><path d="m322.78 451.372.787 2.145-4.102 98.77" style="fill:none;stroke:#00ff4a;stroke-width:.995997;stroke-linecap:round;stroke-linejoin:round;stroke-miterlimit:4;stroke-dasharray:none;stroke-opacity:1;visibility:visible" visibility="hidden"/><path d="m319.466 552.288-.437.435-.444.445M176.98 592.987l2.373.744 2.402.69 2.418.634 2.444.572 2.46.523 2.487.461 2.505.408 2.519.35 2.539.291 2.546.24 2.572.187 2.58.121 2.599.076 2.605.018 2.616-.042 2.622-.094 2.64-.156 2.642-.203 2.65-.267 2.648-.308 2.657-.366 2.665-.427 2.659-.479 2.664-.52 2.668-.592 2.656-.63 2.665-.684 2.659-.735 2.657-.793 2.648-.839 2.643-.89 2.64-.938 2.632-.992 2.613-1.043 2.616-1.085 2.597-1.136 2.59-1.18 2.58-1.232 2.562-1.281 2.547-1.314 2.539-1.369 2.51-1.417 2.507-1.454 2.476-1.502 2.47-1.538 2.443-1.592 2.419-1.622 2.41-1.675 2.375-1.708 2.358-1.744 2.332-1.784 2.308-1.83 2.29-1.863 2.256-1.904 2.23-1.932 2.197-1.974M346.732 145.514l12.288 5.879M326.848 148.41l19.884-2.897M341.024 550.801l-.052.667-.085.641-.111.59-.147.554-.17.513M341.024 550.801l19.448-397.886M313.936 446.391l.479-12.45M315.183 413.835l1.181-30.995M317.97 340.86l7.272-190.484M313.133 557.944l.333.513.334.47.341.444.352.41.359.367.35.333.359.292M339.845 555.355l-.205.463-.232.425-.247.377-.275.323-.289.283-.317.23-.332.172-.343.13M316.962 561.815l.392.273.393.223.384.18.378.127.376.078.368.032.348-.016.342-.068M360.472 152.914l-1.452-1.521M325.242 150.377l1.607-1.965M319.943 562.644l17.663-4.888M340.46 553.766l-.613 1.588M315.56 560.773l1.4 1.041" style="fill:none;stroke:#00ff4a;stroke-width:1.99333;stroke-linecap:round;stroke-linejoin:round;stroke-miterlimit:4;stroke-dasharray:none;stroke-opacity:1;visibility:visible" visibility="hidden"/><path d="m232.256 307.482.315-30.281 1.358-1.659M244.68 273.594l-10.75 1.948" style="fill:none;stroke:#00ff4a;stroke-width:.995997;stroke-linecap:round;stroke-linejoin:round;stroke-miterlimit:4;stroke-dasharray:none;stroke-opacity:1;visibility:visible" visibility="hidden"/><path d="m281.569 298.951-36.89-25.357M318.594 324.402l-26.47-18.195M279.85 342.626l-47.595-35.143" style="fill:none;stroke:#00ff4a;stroke-width:1.99333;stroke-linecap:round;stroke-linejoin:round;stroke-miterlimit:4;stroke-dasharray:none;stroke-opacity:1;visibility:visible" visibility="hidden"/><path d="m234.546 156.076.161-15.39M236.135 138.944l9.801-1.357M236.135 138.944l-1.427 1.743" style="fill:none;stroke:#00ff4a;stroke-width:.995997;stroke-linecap:round;stroke-linejoin:round;stroke-miterlimit:4;stroke-dasharray:none;stroke-opacity:1;visibility:visible" visibility="hidden"/><path d="m234.546 156.076 1.381 1.324M324.155 178.702l-78.218-41.115M323.122 205.86l-87.193-48.459M230.248 307.859l-2.033-.255-1.034-.769M230.248 307.859l2.008-.376M240.27 94.612l9.675 4.623M222.027 96.893l18.244-2.281M219.506 271.083l1.103-172.445M248.585 276.278l1.725-110.88M250.704 140.097l.616-39.467M249.944 99.234l1.377 1.396M220.609 98.637l1.417-1.744" style="fill:none;stroke:#00ff4a;stroke-width:1.99333;stroke-linecap:round;stroke-linejoin:round;stroke-miterlimit:4;stroke-dasharray:none;stroke-opacity:1;visibility:visible" visibility="hidden"/><path d="m221.223 270.774 5.537 3.897" style="fill:none;stroke:#00ff4a;stroke-width:.995997;stroke-linecap:round;stroke-linejoin:round;stroke-miterlimit:4;stroke-dasharray:none;stroke-opacity:1;visibility:visible" visibility="hidden"/><path d="m183.295 277.544-8.744 1.561M221.223 270.774l-27.59 4.925M115.347 289.668l-28.056 5.008M139.577 285.344l-13.524 2.412" style="fill:none;stroke:#00ff4a;stroke-width:1.99333;stroke-linecap:round;stroke-linejoin:round;stroke-miterlimit:4;stroke-dasharray:none;stroke-opacity:1;visibility:visible" visibility="hidden"/><path d="m226.76 274.671.684 1.912-.264 30.252" style="fill:none;stroke:#00ff4a;stroke-width:.995997;stroke-linecap:round;stroke-linejoin:round;stroke-miterlimit:4;stroke-dasharray:none;stroke-opacity:1;visibility:visible" visibility="hidden"/><path d="m203.846 311.267-29.004 5.507M227.181 306.835l-7.657 1.455M140.287 323.334l-28.14 5.343" style="fill:none;stroke:#00ff4a;stroke-width:1.99333;stroke-linecap:round;stroke-linejoin:round;stroke-miterlimit:4;stroke-dasharray:none;stroke-opacity:1;visibility:visible" visibility="hidden"/><path d="m62.723 319.372-.467.885M62.257 320.257l-.692-.719M61.33 317.875l.465-.883M61.795 316.992l.693.719M62.488 317.71l.235 1.661M62.341 314.562a.783.783 0 0 0-.571-.146M62.948 322.74a.776.776 0 0 0 .51-.3M63.457 322.44c.299-.395.5-.857.59-1.346M64.048 321.094a8.613 8.613 0 0 0-.765-5.4M63.283 315.693a3.204 3.204 0 0 0-.943-1.13M61.437 314.462a.78.78 0 0 0-.507.302M60.93 314.764a3.212 3.212 0 0 0-.592 1.346M60.34 316.109a8.613 8.613 0 0 0 .765 5.4M61.104 321.51c.221.447.544.83.941 1.13M62.045 322.64a.763.763 0 0 0 .57.149M62.616 322.786l.332-.047M61.437 314.462l.332-.047M147.034 398.766l-.467.885M146.568 399.65l-.692-.719M145.64 397.268l.465-.883M146.106 396.386l.693.719M146.8 397.105l.235 1.661M146.653 393.955a.783.783 0 0 0-.572-.145M147.258 402.134a.776.776 0 0 0 .51-.3M147.768 401.835c.298-.397.5-.858.59-1.348" style="fill:none;stroke:#00ff4a;stroke-width:.995997;stroke-linecap:round;stroke-linejoin:round;stroke-miterlimit:2;stroke-dasharray:none;stroke-opacity:1;visibility:visible" visibility="hidden"/><path d="M148.358 400.487a8.613 8.613 0 0 0-.765-5.4M147.593 395.086a3.204 3.204 0 0 0-.941-1.13M145.748 393.855a.78.78 0 0 0-.508.302" style="fill:none;stroke:#00ff4a;stroke-width:.995997;stroke-linecap:round;stroke-linejoin:round;stroke-miterlimit:2;stroke-dasharray:none;stroke-opacity:1;visibility:visible" visibility="hidden"/><path d="M145.24 394.157a3.212 3.212 0 0 0-.591 1.346M144.65 395.502a8.613 8.613 0 0 0 .766 5.4M145.414 400.903c.222.447.544.831.942 1.131M146.356 402.035a.763.763 0 0 0 .57.147M146.926 402.18l.332-.047M145.748 393.855l.332-.047M149.936 567.442l-.395.919M149.541 568.36l-.747-.661M148.43 566.058l.395-.916M148.824 565.142l.748.661M149.572 565.804l.364 1.637M149.178 562.676a.781.781 0 0 0-.581-.101M150.425 570.782a.773.773 0 0 0 .484-.34M150.909 570.442c.265-.42.43-.895.483-1.388M151.392 569.054a8.567 8.567 0 0 0-.163-2.76 8.595 8.595 0 0 0-1.024-2.565M150.205 563.728a3.196 3.196 0 0 0-1.025-1.052M148.269 562.648a.773.773 0 0 0-.483.34M147.786 562.988a3.187 3.187 0 0 0-.482 1.387M147.304 564.375a8.603 8.603 0 0 0 .162 2.759c.2.905.547 1.77 1.024 2.566M148.49 569.7a3.187 3.187 0 0 0 1.027 1.052M149.517 570.752a.768.768 0 0 0 .581.102M150.097 570.853l.328-.073M148.269 562.648l.328-.073" style="fill:none;stroke:#00ff4a;stroke-width:.995997;stroke-linecap:round;stroke-linejoin:round;stroke-miterlimit:2;stroke-dasharray:none;stroke-opacity:1;visibility:visible" visibility="hidden"/><path d="m176.047 466.511-.129-10.764M176.004 466.47l-.043-10.68M287.302 352.378l-4.674-3.025M346.732 145.514l-9.4 10.836M291.127 318.29l-9.357-6.567M226.76 274.671l5.81 2.53M320.191 340.399l-2.084-3.179M281.77 311.723l9.357 6.568M233.93 275.542l-6.485 1.042M183.295 277.544l-8.682 8.577M126.053 287.756l13.652 4.672" style="fill:none;stroke:#00ff4a;stroke-width:.995997;stroke-linecap:round;stroke-linejoin:round;stroke-miterlimit:4;stroke-dasharray:none;stroke-opacity:1;visibility:visible" visibility="hidden"/><path d="m175.96 455.79.044 10.68M175.918 455.747l.129 10.764M64.622 164.322l18.081.623M69.688 306.69l18.039.195M145.876 398.931l-4.027 7.358M213.61 367.69l-7.852-3.699M287.302 352.378l-8.907-3.361M213.611 367.69l3.292-5.996M287.303 352.377l2.89-5.794M326.59 380.594l-10.226 2.246M292.123 306.207l-10.554-7.256M320.191 340.399l-1.597-15.997M281.77 311.723l10.353-5.516M234.546 156.076l15.764 9.322M234.707 140.685l15.997-.588M190.299 280.302l-7.004-2.758M190.3 280.302l-15.749-1.197M190.3 280.302l3.334-4.603M122.829 292.417l-7.482-2.749M122.829 292.417l16.748-7.073M122.829 292.419l3.224-4.663M219.524 308.29l-15.678 2.977M232.256 307.483l-12.732.807" style="fill:none;stroke:#00ff4a;stroke-width:1.99333;stroke-linecap:round;stroke-linejoin:round;stroke-miterlimit:4;stroke-dasharray:none;stroke-opacity:1;visibility:visible" visibility="hidden"/><path d="m141.91 451.678.99 10.502" style="fill:none;stroke:red;stroke-width:1.99333;stroke-linecap:round;stroke-linejoin:round;stroke-miterlimit:4;stroke-dasharray:none;stroke-opacity:1;visibility:visible"/><path d="m287.302 352.378.367-2.939M213.61 367.69l.719-3.076M190.299 280.302l.71-2.333M139.705 292.428l-16.261-2.539" style="fill:none;stroke:#00ff4a;stroke-width:.995997;stroke-linecap:round;stroke-linejoin:round;stroke-miterlimit:4;stroke-dasharray:none;stroke-opacity:1;visibility:visible" visibility="hidden"/><path d="m324.207 431.641-9.792 2.3M324.635 421.276l-9.452-7.441M282.628 349.353l-2.778-6.727" style="fill:none;stroke:#00ff4a;stroke-width:1.99333;stroke-linecap:round;stroke-linejoin:round;stroke-miterlimit:4;stroke-dasharray:none;stroke-opacity:1;visibility:visible" visibility="hidden"/></svg>