<svg xmlns="http://www.w3.org/2000/svg" baseProfile="full" height="793.701" preserveAspectRatio="xMinYMin meet" style="width:914px;height:841px" width="559.371" xml:space="preserve"><path d="m333.59 397.332-.575 24.593M105.27 325.205l228.318 72.126M336.564 397.084l14.944-10.492M129.145 322.82l.348-.17.413-.145.451-.121.479-.093.504-.059.521-.035.515.008.504.034.477.068.444.096.41.128.342.145.29.179.223.188.154.205.074.212-.006.223-.076.213-.155.216-.23.203-.291.189-.358.17-.404.147-.45.128-.488.092-.506.06-.52.026h-.512l-.504-.034-.488-.069-.445-.093-.4-.128-.35-.154-.291-.17-.223-.196-.144-.207-.079-.213.01-.214.077-.222.161-.212.223-.207.3-.188M351.508 386.592l-1.744-2.453M333.59 397.332l2.973-.248M312.937 372.748l114.212-76.537M160.956 325.735l122.432-69.197M470.036 303.329l11.93-8.373M123.658 202.243l-.359-.085-.393-.051-.417-.044-.436-.008-.438.008-.434.035-.428.052-.394.076-.368.104-.324.109-.281.13-.223.145-.17.144-.102.164-.036.153.027.155.096.154.152.144.213.138.274.11.314.103.363.076.392.059.416.042.439.01.444-.01.433-.032.428-.053.393-.076.368-.103.326-.112.282-.128.222-.144.162-.153.102-.155.044-.153-.035-.163-.085-.154-.164-.135-.212-.137-.275-.111-.316-.104M467.413 303.526l-1.47 22.644M86.394 201.055l381.02 102.47M81.985 197.902l.043.308.112.307.17.298.239.302.292.281.348.283.403.264.461.249.512.239.565.221.614.213.65.188M470.036 303.329l-2.623.197" style="fill:none;stroke:red;stroke-width:.995997;stroke-linecap:round;stroke-linejoin:round;stroke-miterlimit:4;stroke-dasharray:none;stroke-opacity:1;visibility:visible"/><path d="m106.432 348.31-1.163-23.105M106.44 322.727l-1.17 2.479M122.71 313.907l-16.27 8.82M107.773 349.37l-1.341-1.06M350.81 410.96l-14.835 10.708M351.508 386.592l-.699 24.368M107.773 349.37l226.354 73.597M122.71 313.907l227.057 70.232M351.508 386.592l-.656-1.359M349.766 384.14l1.085 1.093M334.128 422.967l1.845-1.3M426.337 311.73l-96.83 66.145" style="fill:none;stroke:red;stroke-width:1.99333;stroke-linecap:round;stroke-linejoin:round;stroke-miterlimit:4;stroke-dasharray:none;stroke-opacity:1;visibility:visible"/><path d="m428.431 303.509.273-5.119M428.064 310.465l.367-6.955M427.15 296.21l-16.364-4.417" style="fill:none;stroke:red;stroke-width:.995997;stroke-linecap:round;stroke-linejoin:round;stroke-miterlimit:4;stroke-dasharray:none;stroke-opacity:1;visibility:visible"/><path d="m410.785 291.793-115.1 75.614M426.337 311.73l1.728-1.265" style="fill:none;stroke:red;stroke-width:1.99333;stroke-linecap:round;stroke-linejoin:round;stroke-miterlimit:4;stroke-dasharray:none;stroke-opacity:1;visibility:visible"/><path d="m428.705 298.39-.317-.437-1.239-1.743" style="fill:none;stroke:red;stroke-width:.995997;stroke-linecap:round;stroke-linejoin:round;stroke-miterlimit:4;stroke-dasharray:none;stroke-opacity:1;visibility:visible"/><path d="m284.867 258.725-.027 2.964M284.867 258.606v.12" style="fill:none;stroke:red;stroke-width:1.99333;stroke-linecap:round;stroke-linejoin:round;stroke-miterlimit:4;stroke-dasharray:none;stroke-opacity:1;visibility:visible"/><path d="m284.841 261.69-.07 10.185-1.485 1.242M282.74 256.366l-17.124-4.621" style="fill:none;stroke:red;stroke-width:.995997;stroke-linecap:round;stroke-linejoin:round;stroke-miterlimit:4;stroke-dasharray:none;stroke-opacity:1;visibility:visible"/><path d="m283.388 256.537-.648-.172" style="fill:none;stroke:red;stroke-width:1.99333;stroke-linecap:round;stroke-linejoin:round;stroke-miterlimit:4;stroke-dasharray:none;stroke-opacity:1;visibility:visible"/><path d="m265.615 251.745-13.764-3.72" style="fill:none;stroke:red;stroke-width:.995997;stroke-linecap:round;stroke-linejoin:round;stroke-miterlimit:4;stroke-dasharray:none;stroke-opacity:1;visibility:visible"/><path d="m284.738 258.427-.948-1.325M284.867 258.606l-.13-.18M283.79 257.102l-.403-.565M251.85 248.025l-123.825 67.523M283.287 273.115 181.33 332.04M481.964 294.956l-1.563 22.455-11.853 8.564M101.339 192.68l-.648-.153-.692-.146-.719-.12-.744-.094-.777-.075-.785-.05-.812-.037-.812-.009-.83.01-.82.035-.82.051-.813.075-.793.104-.778.118-.761.138-.725.162-.702.174-.666.193-.624.215-.58.221-.539.237-.487.251-.436.264-.376.273-.325.274M101.339 192.68l379.062 100.086M88.658 222.426l139.317 38.621M279.475 275.319l109.982 30.49M421.86 314.789l44.895 12.441M88.658 222.426l-.59-.17-.546-.195-.504-.216-.463-.222-.4-.24-.36-.249M82.805 196.202l-.264.281-.215.275-.161.29-.11.282-.06.283-.01.289M84.199 219.889l-.316-.273-.267-.284-.205-.29-.163-.289-.092-.3-.05-.3M480.402 292.768l1.563 2.188M466.755 327.23l1.793-1.256M83.105 218.154l-1.12-20.252M84.274 194.79l-1.47 1.41M85.796 221.135l-1.597-1.245" style="fill:none;stroke:red;stroke-width:1.99333;stroke-linecap:round;stroke-linejoin:round;stroke-miterlimit:4;stroke-dasharray:none;stroke-opacity:1;visibility:visible"/><path d="m122.71 313.907 6.435 8.913M128.025 315.548l1.12 7.272" style="fill:none;stroke:red;stroke-width:.995997;stroke-linecap:round;stroke-linejoin:round;stroke-miterlimit:4;stroke-dasharray:none;stroke-opacity:1;visibility:visible"/><path d="m122.71 313.907 5.315 1.64M283.388 256.537l-3.913 18.782M427.15 296.21l-5.29 18.579" style="fill:none;stroke:red;stroke-width:1.99333;stroke-linecap:round;stroke-linejoin:round;stroke-miterlimit:4;stroke-dasharray:none;stroke-opacity:1;visibility:visible"/><path d="m287.917 316.703 7.863-4.828M293.9 353.676l-.01-.47-.05-.443-.095-.403-.118-.36-.162-.305-.189-.258-.223-.186-.238-.131-.266-.067h-.282l-.29.067-.309.139-.297.197-.308.255-.298.309-.282.365-.274.403-.249.453-.22.478-.197.496-.172.521-.136.53-.095.522-.06.52-.025.496.016.479.052.444.086.402.127.358.161.309.19.247.222.188.248.128.266.06h.281l.29-.068.3-.136.307-.199.298-.256.301-.316.283-.357.264-.412.248-.444.229-.478.197-.497.164-.519.135-.524.095-.52.068-.521.017-.496M293.173 426.454l-.017-.455-.052-.417-.083-.376-.12-.332-.155-.283-.189-.23-.213-.163-.238-.11-.258-.035-.274.017-.288.087-.293.142-.297.215-.3.265-.29.316-.274.367-.264.404-.247.441-.223.48-.19.487-.16.504-.138.512-.094.515-.059.494-.025.479.016.453.052.418.094.374.119.336.153.282.188.22.215.164.237.105.266.041.273-.026.283-.084.298-.148.3-.212.291-.267.29-.315.274-.368.264-.409.239-.435.224-.47.194-.496.164-.506.128-.504.095-.504.057-.494.027-.479M285.475 316.883l-30.908-9.025M287.917 316.703l-2.443.181M277.1 308.67l-.368-.084-.393-.06-.41-.047-.42-.004-.418.023-.402.043-.384.078-.341.102-.3.121-.256.135-.195.156-.137.168-.06.172v.172l.06.178.137.163.195.153.25.146.306.12.35.102.375.076.402.052.418.026.428-.008.411-.035.392-.06.368-.093.324-.103.275-.136.229-.145.163-.164.102-.171.026-.17-.034-.18-.094-.169-.17-.164-.222-.145-.283-.136-.324-.112M284.535 312.993l.068.181.133.162.2.164.255.133.31.13.35.103.383.076.412.051.417.017h.419l.417-.033.393-.07.368-.085.327-.11.272-.127.224-.155.16-.164.103-.17.025-.179M261.591 306.329l.06.17.128.163.196.163.248.136.299.119.342.105.384.076.4.043.422.024.418-.008.41-.032.393-.062.36-.086.333-.112.271-.126.232-.146.163-.163.101-.161.035-.182M284.37 469.118l.416-57.15M285.167 359.295l.307-42.412M174.77 284.573l-79.658-23.25M94.658 260.356l.221.479.231.488M126.077 264.913l-.325-.077-.366-.052-.377-.035-.395-.01-.398.02-.395.04-.368.069-.34.086-.317.112-.256.119-.215.137-.161.155-.095.152-.025.153.025.155.095.147.161.144.215.12.264.11.309.094.34.069.377.043.392.018h.392l.403-.034.377-.051.367-.08.324-.1.283-.123.24-.125.188-.147.128-.152.058-.154v-.155l-.066-.155-.13-.144-.178-.128-.24-.12-.291-.101M141.869 271.584l-.045.19.036.178.085.18.153.17.214.154.274.147.316.126.367.102.393.088.436.058.444.034.462.009.469-.017.456-.043.443-.067.418-.086.386-.111.349-.128.3-.155.247-.153.197-.179.128-.18.068-.178.008-.18M162.905 277.49l-.093.181-.035.186.035.189.093.179.163.172.221.161.275.144.325.13.367.102.401.084.435.061.453.043.47.008.47-.016.463-.044.442-.068.42-.096.384-.11.351-.126.3-.156.247-.163.186-.169.132-.19.058-.186v-.179l-.068-.189M190.267 436.365l-1.296-53.753M147.02 403.168l9.664-5.928M156.445 442.382l-.043-.504-.096-.47-.124-.427-.181-.368-.212-.316-.248-.258-.292-.178-.307-.118-.333-.045-.36.035-.37.092-.365.181-.376.239-.368.298-.36.37-.34.417-.316.463-.298.504-.258.538-.221.555-.19.579-.135.576-.103.58-.052.554v.548l.043.502.088.47.134.428.179.368.215.315.257.247.283.19.313.112.335.043.358-.035.37-.101.365-.183.377-.238.367-.306.359-.36.333-.417.316-.463.29-.505.266-.539.223-.554.178-.572.146-.571.093-.575.052-.562.008-.539M159.196 520.44l-.033-.479-.086-.445-.128-.393-.172-.342-.212-.282-.24-.23-.281-.154-.3-.086-.325-.018-.351.052-.35.121-.369.187-.358.257-.356.316-.352.368-.334.419-.306.469-.283.496-.257.53-.214.547-.177.554-.139.566-.102.544-.042.54-.009.522.044.478.084.443.128.393.172.344.212.282.248.221.275.153.306.087.324.016.352-.059.35-.12.366-.196.36-.26.36-.313.342-.368.333-.419.307-.461.281-.496.25-.528.22-.55.18-.553.138-.557.093-.547.051-.537v-.512M144.277 403.39l-32.453-11.083M147.02 403.168l-2.743.223M136.621 393.306l-.393-.11-.419-.075-.453-.044-.462-.008-.46.025-.462.05-.435.094-.403.121-.358.154-.307.169-.248.19-.179.205-.112.213-.036.213.044.214.112.206.187.186.247.172.318.156.358.126.412.086.434.066.46.028.472-.009.462-.044.452-.075.418-.104.384-.136.334-.161.273-.18.216-.199.143-.212.077-.214-.008-.214-.079-.213-.153-.195-.223-.18-.28-.162-.333-.139M144.075 398.308l-.047.093-.024.214.043.213.11.205.195.196.25.17.316.154.369.131.408.092.445.059.462.026h.468l.47-.042.444-.078.428-.109.376-.137.332-.163.284-.177.214-.208.137-.204.067-.222v-.213M119.941 390.64l.112.205.179.188.248.172.308.144.358.128.41.095.434.059.455.026.47-.008.46-.041.445-.079.418-.102.386-.138.333-.152.283-.182.213-.194.155-.214.066-.212v-.207M150.627 566.718l-6.35-163.326" style="fill:none;stroke:#00ff4a;stroke-width:.995997;stroke-linecap:round;stroke-linejoin:round;stroke-miterlimit:4;stroke-dasharray:none;stroke-opacity:1;visibility:visible" visibility="hidden"/><path d="m153.42 524.47.333-.373.324-.42.292-.452.272-.498.24-.51.215-.532.17-.544.127-.548.095-.53.043-.529.01-.497M152.686 441.048l-.01-.195-.025-.198M150.524 446.602l.341-.365.324-.42.308-.463.274-.496.248-.52.214-.545.171-.556.137-.556.094-.566.042-.537.01-.53M466.224 521.627l-11.219 10.057M451.305 551.406l1.267-19.49-294.785-103.044M112.85 413.166l-15.225-5.324M97.623 407.843l-.624-.232-.573-.257-.531-.272-.485-.291-.436-.307-.384-.326-.334-.34-.273-.351-.224-.359-.161-.369-.112-.375-.05-.376M452.571 531.916l2.435-.23M327.404 664.234l.479-20.796-210.89-85.581M344.443 630.763l-13.817 12.38M330.624 643.143l-2.741.293M167.195 558.557l114.793-84.09M307.52 614.434l107.87-92.473M286.705 468.913l7.485-5.468M284.37 469.118l2.335-.204M254.97 458.882l29.401 10.236" style="fill:none;stroke:#00ff4a;stroke-width:.995997;stroke-linecap:round;stroke-linejoin:round;stroke-miterlimit:4;stroke-dasharray:none;stroke-opacity:1;visibility:visible" visibility="hidden"/><path d="m294.19 463.445.505-48.44M283.173 307.354l-15.15-4.372M295.255 361.827l.525-49.952-.47-1.017-4.424-1.278M254.567 307.858l.112 40.803M254.567 307.858l5.704-3.372M254.82 402.342l.15 56.54" style="fill:none;stroke:#00ff4a;stroke-width:1.99333;stroke-linecap:round;stroke-linejoin:round;stroke-miterlimit:4;stroke-dasharray:none;stroke-opacity:1;visibility:visible" visibility="hidden"/><path d="m192.53 436.168 7.759-5.101M190.267 436.365l2.263-.196M102.716 405.886l9.945 3.468M157.65 425.01l32.615 11.355" style="fill:none;stroke:#00ff4a;stroke-width:.995997;stroke-linecap:round;stroke-linejoin:round;stroke-miterlimit:4;stroke-dasharray:none;stroke-opacity:1;visibility:visible" visibility="hidden"/><path d="m200.29 431.067-.963-46.448M198.247 332.297l-.103-4.907M140.83 266.277l-35.228-10.165M161.886 272.354l-12.25-3.535M185.238 279.093l-15.01-4.332M105.603 256.11l-1.273.033-1.282.044M94.658 260.356l8.39-4.17M83.267 352.438l-.548-2.752-.495-2.752-.453-2.743-.41-2.742-.36-2.742-.315-2.728-.266-2.724-.221-2.709-.172-2.71-.127-2.691-.077-2.683-.035-2.664.018-2.66.068-2.64.109-2.621.164-2.607.212-2.592.259-2.57.308-2.547.349-2.528.401-2.506.454-2.476.505-2.46.545-2.437.599-2.402.64-2.375.692-2.35.743-2.315.786-2.29.838-2.256.889-2.221.924-2.188.981-2.153 1.027-2.12 1.068-2.086 1.117-2.04 1.174-2.001" style="fill:none;stroke:#00ff4a;stroke-width:1.99333;stroke-linecap:round;stroke-linejoin:round;stroke-miterlimit:4;stroke-dasharray:none;stroke-opacity:1;visibility:visible" visibility="hidden"/><path d="m102.716 405.886-1.335-2.53-1.297-2.555-1.265-2.563-1.223-2.58-1.179-2.599-1.153-2.606-1.112-2.612-1.068-2.635-1.033-2.639-.992-2.649-.947-2.659-.916-2.665-.872-2.667-.828-2.672-.787-2.685-.744-2.684-.698-2.681-.667-2.69-.616-2.694-.573-2.684-.144-.7" style="fill:none;stroke:#00ff4a;stroke-width:1.99333;stroke-linecap:round;stroke-linejoin:round;stroke-miterlimit:4;stroke-dasharray:none;stroke-opacity:1;visibility:visible" visibility="hidden"/><path d="m153.225 566.47 9.108-6.655M150.627 566.718l2.597-.248M119.813 554.276l30.815 12.441" style="fill:none;stroke:#00ff4a;stroke-width:.995997;stroke-linecap:round;stroke-linejoin:round;stroke-miterlimit:4;stroke-dasharray:none;stroke-opacity:1;visibility:visible" visibility="hidden"/><path d="m142.636 391.366-16.032-5.401M162.333 559.815l-5.65-162.576-.322-1.248-5.533-1.865M111.823 392.308l7.99 161.968M111.823 392.308l7.072-4.18M464.881 540.99l1.344-19.363M453.725 551.167l11.157-10.176M452.074 552.097l-39.819-14.201M385.791 528.462l-106.136-37.844M236.818 475.338l-78.392-27.957M113.756 431.452l-14.1-5.024M97.802 425.53l.41.248.446.232.487.212.51.207M464.772 519.593l-170.557-58.645M254.934 447.448l-54.697-18.805M96.28 399.999l.359-.273.392-.275.428-.255.47-.248.496-.232.519-.213M93.435 403.988l.007-.375.061-.377.12-.375.17-.368.225-.366.278-.359.334-.359.377-.342M94.426 421.761l.052.395.112.385.161.375.231.366.281.359.334.343.392.333.445.316M453.725 551.167l-1.65.93M465.522 520.328l.701 1.3M464.772 519.593l.75.736M93.435 403.988l.99 17.773M97.802 425.53l-1.368-.897M96.28 399.999l-1.273 1.068M116.993 557.857l.99 19.807M118.078 555.499l-1.084 2.357M119.813 554.276l-1.736 1.223M119.214 578.347l-1.23-.684M330.12 663.943l13.723-12.517.598-20.663M342.836 628.497l-180.614-71.922M328.438 664.847l-209.223-86.5M342.836 628.497l1.008.667.599 1.598M328.438 664.847l1.684-.905" style="fill:none;stroke:#00ff4a;stroke-width:1.99333;stroke-linecap:round;stroke-linejoin:round;stroke-miterlimit:4;stroke-dasharray:none;stroke-opacity:1;visibility:visible" visibility="hidden"/><path d="m252.585 464.161 29.403 10.307 1.376 1.93M283.33 480.799l.017-2.572M283.287 487.918l.043-7.119M283.346 478.227l.017-1.828" style="fill:none;stroke:#00ff4a;stroke-width:.995997;stroke-linecap:round;stroke-linejoin:round;stroke-miterlimit:4;stroke-dasharray:none;stroke-opacity:1;visibility:visible" visibility="hidden"/><path d="m180.935 564.026 102.35-76.106M161.264 528.874l91.321-64.712M318.918 618.97l97.37-84.57" style="fill:none;stroke:#00ff4a;stroke-width:1.99333;stroke-linecap:round;stroke-linejoin:round;stroke-miterlimit:4;stroke-dasharray:none;stroke-opacity:1;visibility:visible" visibility="hidden"/><path d="m416.655 527.318.181-3.325M416.287 534.402l.367-7.084M415.39 521.96l-9.656-3.383-5.479-1.924" style="fill:none;stroke:#00ff4a;stroke-width:.995997;stroke-linecap:round;stroke-linejoin:round;stroke-miterlimit:4;stroke-dasharray:none;stroke-opacity:1;visibility:visible" visibility="hidden"/><path d="m291.301 607.974 107.385-90.354M400.257 516.655l-1.57.965" style="fill:none;stroke:#00ff4a;stroke-width:1.99333;stroke-linecap:round;stroke-linejoin:round;stroke-miterlimit:4;stroke-dasharray:none;stroke-opacity:1;visibility:visible" visibility="hidden"/><path d="m416.835 523.993-1.444-2.032" style="fill:none;stroke:#00ff4a;stroke-width:.995997;stroke-linecap:round;stroke-linejoin:round;stroke-miterlimit:4;stroke-dasharray:none;stroke-opacity:1;visibility:visible" visibility="hidden"/><path d="m121.548 383.058.3 8.404" style="fill:none;stroke:#00ff4a;stroke-width:.663998;stroke-linecap:round;stroke-linejoin:round;stroke-miterlimit:2;stroke-dasharray:none;stroke-opacity:1;visibility:visible" visibility="hidden"/><path d="M124.116 380.371a1.47 1.47 0 0 0-.588-.33M123.526 380.04a3.868 3.868 0 0 0-1.256-.152 4.053 4.053 0 0 0-1.244.253M121.026 380.142a1.47 1.47 0 0 0-.556.376" style="fill:none;stroke:#00ff4a;stroke-width:.995997;stroke-linecap:round;stroke-linejoin:round;stroke-miterlimit:2;stroke-dasharray:none;stroke-opacity:1;visibility:visible" visibility="hidden"/><path d="M120.632 382.5c.566.165 1.16.24 1.752.213a5.442 5.442 0 0 0 1.733-.352M124.116 382.36c.294-.11.562-.286.774-.524M124.892 381.838a.503.503 0 0 0 .134-.355.499.499 0 0 0-.141-.325M119.768 381.363a.48.48 0 0 0-.118.335.499.499 0 0 0 .162.345" style="fill:none;stroke:#00ff4a;stroke-width:.663998;stroke-linecap:round;stroke-linejoin:round;stroke-miterlimit:2;stroke-dasharray:none;stroke-opacity:1;visibility:visible" visibility="hidden"/><path d="M119.809 382.043c.233.211.516.371.825.458" style="fill:none;stroke:#00ff4a;stroke-width:.663998;stroke-linecap:round;stroke-linejoin:round;stroke-miterlimit:2;stroke-dasharray:none;stroke-opacity:1;visibility:visible" visibility="hidden"/><path d="m120.458 380.528-.69.835M124.13 380.381l.755.776M119.65 381.698l.416 8.61M125.024 381.483l.413 8.61" style="fill:none;stroke:#00ff4a;stroke-width:.995997;stroke-linecap:round;stroke-linejoin:round;stroke-miterlimit:2;stroke-dasharray:none;stroke-opacity:1;visibility:visible" visibility="hidden"/><path d="m123.386 383.008.301 8.405M144.35 263.963l-.059 8.83" style="fill:none;stroke:#00ff4a;stroke-width:.663998;stroke-linecap:round;stroke-linejoin:round;stroke-miterlimit:2;stroke-dasharray:none;stroke-opacity:1;visibility:visible" visibility="hidden"/><path d="M147.165 261.26a1.512 1.512 0 0 0-.601-.372M146.56 260.886a4.027 4.027 0 0 0-1.311-.216 4.177 4.177 0 0 0-1.315.209M143.936 260.88a1.545 1.545 0 0 0-.599.37" style="fill:none;stroke:#00ff4a;stroke-width:.995997;stroke-linecap:round;stroke-linejoin:round;stroke-miterlimit:2;stroke-dasharray:none;stroke-opacity:1;visibility:visible" visibility="hidden"/><path d="M143.413 263.337c.588.2 1.207.304 1.83.304.625 0 1.237-.097 1.833-.293M147.077 263.348c.315-.106.601-.279.836-.518M147.913 262.832a.53.53 0 0 0 .157-.366.516.516 0 0 0-.133-.348M142.558 262.105a.505.505 0 0 0-.137.344.535.535 0 0 0 .153.37" style="fill:none;stroke:#00ff4a;stroke-width:.663998;stroke-linecap:round;stroke-linejoin:round;stroke-miterlimit:2;stroke-dasharray:none;stroke-opacity:1;visibility:visible" visibility="hidden"/><path d="M142.573 262.821c.236.233.525.413.844.517" style="fill:none;stroke:#00ff4a;stroke-width:.663998;stroke-linecap:round;stroke-linejoin:round;stroke-miterlimit:2;stroke-dasharray:none;stroke-opacity:1;visibility:visible" visibility="hidden"/><path d="m143.32 261.258-.763.845M147.181 261.27l.756.848M142.42 262.45l.053 9.052M148.068 262.465l.05 9.052" style="fill:none;stroke:#00ff4a;stroke-width:.995997;stroke-linecap:round;stroke-linejoin:round;stroke-miterlimit:2;stroke-dasharray:none;stroke-opacity:1;visibility:visible" visibility="hidden"/><path d="m146.283 263.992-.06 8.83M165.151 269.943l-.06 8.83" style="fill:none;stroke:#00ff4a;stroke-width:.663998;stroke-linecap:round;stroke-linejoin:round;stroke-miterlimit:2;stroke-dasharray:none;stroke-opacity:1;visibility:visible" visibility="hidden"/><path d="M167.966 267.241a1.491 1.491 0 0 0-.601-.372M167.362 266.866a4.068 4.068 0 0 0-1.31-.216 4.24 4.24 0 0 0-1.316.21M164.736 266.862a1.557 1.557 0 0 0-.6.37" style="fill:none;stroke:#00ff4a;stroke-width:.995997;stroke-linecap:round;stroke-linejoin:round;stroke-miterlimit:2;stroke-dasharray:none;stroke-opacity:1;visibility:visible" visibility="hidden"/><path d="M168.714 268.813a.527.527 0 0 0 .158-.368.525.525 0 0 0-.134-.347M163.36 268.086a.51.51 0 0 0-.14.346.53.53 0 0 0 .158.368M163.373 268.8c.235.233.524.414.844.518M164.213 269.318a5.8 5.8 0 0 0 3.664.012M167.877 269.329c.315-.107.603-.279.836-.517" style="fill:none;stroke:#00ff4a;stroke-width:.663998;stroke-linecap:round;stroke-linejoin:round;stroke-miterlimit:2;stroke-dasharray:none;stroke-opacity:1;visibility:visible" visibility="hidden"/><path d="m164.122 267.24-.763.845M167.982 267.25l.756.848M163.222 268.432l.052 9.05M168.87 268.444l.05 9.053" style="fill:none;stroke:#00ff4a;stroke-width:.995997;stroke-linecap:round;stroke-linejoin:round;stroke-miterlimit:2;stroke-dasharray:none;stroke-opacity:1;visibility:visible" visibility="hidden"/><path d="m167.082 269.972-.059 8.83M145.743 391.25l.3 8.405" style="fill:none;stroke:#00ff4a;stroke-width:.663998;stroke-linecap:round;stroke-linejoin:round;stroke-miterlimit:2;stroke-dasharray:none;stroke-opacity:1;visibility:visible" visibility="hidden"/><path d="M148.313 388.565a1.461 1.461 0 0 0-.588-.33M147.722 388.235a3.864 3.864 0 0 0-1.256-.154 4.032 4.032 0 0 0-1.244.254M145.222 388.337a1.447 1.447 0 0 0-.554.373" style="fill:none;stroke:#00ff4a;stroke-width:.995997;stroke-linecap:round;stroke-linejoin:round;stroke-miterlimit:2;stroke-dasharray:none;stroke-opacity:1;visibility:visible" visibility="hidden"/><path d="M144.826 390.695c.568.166 1.16.24 1.754.215a5.424 5.424 0 0 0 1.732-.353M148.313 390.555c.295-.113.563-.29.775-.525" style="fill:none;stroke:#00ff4a;stroke-width:.663998;stroke-linecap:round;stroke-linejoin:round;stroke-miterlimit:2;stroke-dasharray:none;stroke-opacity:1;visibility:visible" visibility="hidden"/><path d="M149.088 390.031a.501.501 0 0 0 .134-.356.505.505 0 0 0-.141-.324M143.962 389.557a.477.477 0 0 0-.117.333.503.503 0 0 0 .163.347M144.005 390.237c.233.21.516.372.825.458" style="fill:none;stroke:#00ff4a;stroke-width:.663998;stroke-linecap:round;stroke-linejoin:round;stroke-miterlimit:2;stroke-dasharray:none;stroke-opacity:1;visibility:visible" visibility="hidden"/><path d="m144.654 388.721-.69.833M148.327 388.575l.755.776M143.846 389.892l.416 8.61M149.22 389.675l.413 8.612" style="fill:none;stroke:#00ff4a;stroke-width:.995997;stroke-linecap:round;stroke-linejoin:round;stroke-miterlimit:2;stroke-dasharray:none;stroke-opacity:1;visibility:visible" visibility="hidden"/><path d="m147.582 391.201.3 8.405M286.174 305.685l-.023 8.243" style="fill:none;stroke:#00ff4a;stroke-width:.663998;stroke-linecap:round;stroke-linejoin:round;stroke-miterlimit:2;stroke-dasharray:none;stroke-opacity:1;visibility:visible" visibility="hidden"/><path d="M288.791 303.154a1.4 1.4 0 0 0-.561-.346M288.226 302.809a3.67 3.67 0 0 0-1.223-.197 3.916 3.916 0 0 0-1.228.2M285.773 302.81a1.523 1.523 0 0 0-.558.347" style="fill:none;stroke:#00ff4a;stroke-width:.995997;stroke-linecap:round;stroke-linejoin:round;stroke-miterlimit:2;stroke-dasharray:none;stroke-opacity:1;visibility:visible" visibility="hidden"/><path d="M289.495 304.617a.49.49 0 0 0 .147-.341c0-.123-.05-.24-.127-.324M284.495 303.96a.456.456 0 0 0-.128.32c0 .133.053.255.146.347M284.513 304.628a2.027 2.027 0 0 0 .786.48M285.3 305.108a5.39 5.39 0 0 0 3.414-.006M288.715 305.102c.295-.098.563-.261.78-.485" style="fill:none;stroke:#00ff4a;stroke-width:.663998;stroke-linecap:round;stroke-linejoin:round;stroke-miterlimit:2;stroke-dasharray:none;stroke-opacity:1;visibility:visible" visibility="hidden"/><path d="m285.203 303.165-.707.793M288.806 303.164l.71.787M284.369 304.282l.081 8.447M289.64 304.275l.077 8.448" style="fill:none;stroke:#00ff4a;stroke-width:.995997;stroke-linecap:round;stroke-linejoin:round;stroke-miterlimit:2;stroke-dasharray:none;stroke-opacity:1;visibility:visible" visibility="hidden"/><path d="m287.98 305.706-.027 8.244M263.309 298.935l-.024 8.243" style="fill:none;stroke:#00ff4a;stroke-width:.663998;stroke-linecap:round;stroke-linejoin:round;stroke-miterlimit:2;stroke-dasharray:none;stroke-opacity:1;visibility:visible" visibility="hidden"/><path d="M265.926 296.404a1.403 1.403 0 0 0-.564-.348M265.36 296.056a3.92 3.92 0 0 0-2.45.002M262.909 296.06a1.488 1.488 0 0 0-.56.346" style="fill:none;stroke:#00ff4a;stroke-width:.995997;stroke-linecap:round;stroke-linejoin:round;stroke-miterlimit:2;stroke-dasharray:none;stroke-opacity:1;visibility:visible" visibility="hidden"/><path d="M261.627 297.209a.467.467 0 0 0-.126.321.484.484 0 0 0 .144.347M261.645 297.876c.221.214.49.382.788.48M262.433 298.356a5.339 5.339 0 0 0 1.707.273 5.31 5.31 0 0 0 1.709-.28M265.85 298.35c.292-.097.564-.26.78-.485" style="fill:none;stroke:#00ff4a;stroke-width:.663998;stroke-linecap:round;stroke-linejoin:round;stroke-miterlimit:2;stroke-dasharray:none;stroke-opacity:1;visibility:visible" visibility="hidden"/><path d="M266.629 297.866a.479.479 0 0 0 .018-.665" style="fill:none;stroke:#00ff4a;stroke-width:.663998;stroke-linecap:round;stroke-linejoin:round;stroke-miterlimit:2;stroke-dasharray:none;stroke-opacity:1;visibility:visible" visibility="hidden"/><path d="m262.338 296.414-.71.792M265.94 296.412l.708.788M261.503 297.53l.081 8.448M266.774 297.524l.077 8.45" style="fill:none;stroke:#00ff4a;stroke-width:.995997;stroke-linecap:round;stroke-linejoin:round;stroke-miterlimit:2;stroke-dasharray:none;stroke-opacity:1;visibility:visible" visibility="hidden"/><path d="m265.112 298.955-.025 8.244" style="fill:none;stroke:#00ff4a;stroke-width:.663998;stroke-linecap:round;stroke-linejoin:round;stroke-miterlimit:2;stroke-dasharray:none;stroke-opacity:1;visibility:visible" visibility="hidden"/><path d="m295.255 361.827-1.355-8.151M294.695 415.005l-1.522 11.449M268.024 302.982l9.076 5.688M283.173 307.354l-6.073 1.316M293.173 426.454l-8.387-14.485M293.9 353.676l-8.733 5.619M170.227 274.761l4.543 9.812M140.83 266.277l-14.753-1.364M152.651 440.655l3.794 1.727M152.686 441.048l3.759 1.334M144.826 390.695l-8.205 2.611M142.636 391.366l-6.015 1.94M102.716 405.886l10.134 7.28M162.333 559.815l4.862-1.258M286.705 468.913l-4.717 5.555" style="fill:none;stroke:#00ff4a;stroke-width:.995997;stroke-linecap:round;stroke-linejoin:round;stroke-miterlimit:4;stroke-dasharray:none;stroke-opacity:1;visibility:visible" visibility="hidden"/><path d="m293.173 426.454 1.522-11.449M285.3 305.108l-2.127 2.246M262.433 298.356l5.59 4.626M293.9 353.676l1.355 8.151M285.299 305.108l5.587 4.472" style="fill:none;stroke:#00ff4a;stroke-width:1.99333;stroke-linecap:round;stroke-linejoin:round;stroke-miterlimit:4;stroke-dasharray:none;stroke-opacity:1;visibility:visible" visibility="hidden"/><path d="m97.625 407.842 15.036 1.512" style="fill:none;stroke:#00ff4a;stroke-width:.995997;stroke-linecap:round;stroke-linejoin:round;stroke-miterlimit:4;stroke-dasharray:none;stroke-opacity:1;visibility:visible" visibility="hidden"/><path d="m143.413 263.337-2.583 2.94M164.213 269.318l-2.327 3.036M143.417 263.338l6.22 5.481M164.217 269.318l6.01 5.443M144.826 390.695l-2.19.671M123.526 380.04l3.078 5.925M147.722 388.235l3.106 5.891M415.39 521.96l-3.135 15.936M400.255 516.653l-14.464 11.809M252.585 464.161l-15.767 11.177M284.371 469.118l9.844-8.17M254.97 458.882l-.036-11.434M190.265 436.365l9.972-7.722M150.628 566.717l11.594-10.142M162.333 559.815l18.602 4.211" style="fill:none;stroke:#00ff4a;stroke-width:1.99333;stroke-linecap:round;stroke-linejoin:round;stroke-miterlimit:4;stroke-dasharray:none;stroke-opacity:1;visibility:visible" visibility="hidden"/><path d="m120.066 390.307 1.482-7.249M125.674 390.128l-3.826 1.334M125.674 390.128l-1.987 1.285M142.473 271.502l1.877-7.539M148.473 271.543l-4.182 1.25M148.119 271.517l-1.836-7.525M148.473 271.543l-2.25 1.28M163.274 277.483l1.877-7.54M167.082 269.972l-1.991 8.802M168.92 277.497l-1.838-7.525M165.151 269.943l1.872 8.86M144.262 398.501l1.481-7.251M149.822 398.308l-3.779 1.347M149.822 398.308l-1.94 1.298M284.45 312.729l1.724-7.044M285.474 316.883l.677-2.955M285.474 316.883l2.48-2.933M261.584 305.978l1.725-7.043M265.112 298.955l-1.827 8.223M263.309 298.935l1.778 8.264" style="fill:none;stroke:#00ff4a;stroke-width:.663998;stroke-linecap:round;stroke-linejoin:round;stroke-miterlimit:2;stroke-dasharray:none;stroke-opacity:1;visibility:visible" visibility="hidden"/><path d="m293.9 353.676 1.785 13.731" style="fill:none;stroke:red;stroke-width:1.99333;stroke-linecap:round;stroke-linejoin:round;stroke-miterlimit:4;stroke-dasharray:none;stroke-opacity:1;visibility:visible"/><path d="m147.882 399.606 8.802-2.366M156.445 442.382l1.342-13.51M156.445 442.382l1.205-17.372" style="fill:none;stroke:#00ff4a;stroke-width:.995997;stroke-linecap:round;stroke-linejoin:round;stroke-miterlimit:4;stroke-dasharray:none;stroke-opacity:1;visibility:visible" visibility="hidden"/><path d="m123.687 391.413-4.792-3.285M156.445 442.382l1.981 4.999" style="fill:none;stroke:#00ff4a;stroke-width:1.99333;stroke-linecap:round;stroke-linejoin:round;stroke-miterlimit:4;stroke-dasharray:none;stroke-opacity:1;visibility:visible" visibility="hidden"/></svg>