<svg xmlns="http://www.w3.org/2000/svg" baseProfile="full" height="793.701" preserveAspectRatio="xMinYMin meet" style="width:792px;height:931px" width="559.371" xml:space="preserve"><path d="M249.83 483.102c17.845 3.432 17.908 20.073 17.908 20.073 3.957 64.736 10.043 130.845 10.043 130.845.845 8.155-1.639 10.939-1.639 10.939-19.795 22.726-61.068 46.489-61.068 46.489-1.568 1.02-3.159.796-3.159.796l-8.774-.55c-3.655-.748-4.195-4.454-4.195-4.454s-12.096-50.332-14.706-61.863c-2.611-11.53-14.72-66.66-14.72-66.66-2.091-8.69-8.888-10.09-8.888-10.09L68.71 524.178c-7.22-1.92-6.66-5.962-6.66-5.962l-.532-8.909c-.593-4.25 6.258-7.796 6.258-7.796s2.326-1.57 6.34-4.123M80.59 493.344c9.84-6.044 24.284-14.453 39.494-21.718M129.501 467.334a212.023 212.023 0 0 1 10.279-4.15s3.9-1.444 10.52-1.567M240 480.8s-12.996-3.078-34.034-7.978M195.46 470.37c-9.693-2.268-25.273-5.82-32.99-7.667" style="fill:none;stroke:red;stroke-width:1.6;stroke-linecap:round;stroke-linejoin:round;stroke-miterlimit:4;stroke-dasharray:none;stroke-opacity:1;visibility:visible" visibility="hidden"/><path d="M276.015 643.164s-19.74 22.63-61.248 46.639c0 0-4.124 2.666-6.087-2.73-1.137-3.122-7.664-29.573-14.024-58.445-5.824-26.443-11.836-54.545-15.068-69.396 0 0-2.308-15.812-17.18-21.032l-94.091-24.776s-9.537-3.27-2.457-9.262" style="fill:none;stroke:red;stroke-width:.999997;stroke-linecap:round;stroke-linejoin:round;stroke-miterlimit:4;stroke-dasharray:none;stroke-opacity:1;visibility:visible" visibility="hidden"/><path d="m174.18 476.955-27.285-6.515-3.485 1.583M135.457 475.622c-11.007 5.254-28.444 14.268-45.484 25.934l78.075 20.172M181.765 525.287l2.535.656s32.038-23.817 54.922-33.37l-48.202-11.579" style="fill:none;stroke:red;stroke-width:.666665;stroke-linecap:round;stroke-linejoin:round;stroke-miterlimit:4;stroke-dasharray:none;stroke-opacity:1;visibility:visible" visibility="hidden"/><path d="M86.544 503.416c.08-.672-.452-1.056-.452-1.056l-.056-.282c.042-1.7-2.69-1.65-2.69-1.65s-1.292-.125-1.726.242M86.544 503.416s.205.782-.855 1.492c.001 0-.717.446-.979.92" style="fill:none;stroke:red;stroke-width:.999997;stroke-linecap:round;stroke-linejoin:round;stroke-miterlimit:4;stroke-dasharray:none;stroke-opacity:1;visibility:visible" visibility="hidden"/><path d="M87.44 509.028c.066.823-1.33 1.61-3.118 1.755-1.789.15-3.29-.403-3.356-1.227-.068-.822 1.328-1.609 3.116-1.756 1.79-.146 3.292.406 3.358 1.23v-.002M74.673 506.844l7.577 3.738M84.106 507.44s-.976-.992-1.418-1.52" style="fill:none;stroke:red;stroke-width:.666665;stroke-linecap:round;stroke-linejoin:round;stroke-miterlimit:4;stroke-dasharray:none;stroke-opacity:1;visibility:visible" visibility="hidden"/><path d="M85.578 509.784c.027.32-.51.628-1.197.683-.688.057-1.267-.159-1.29-.48-.028-.323.509-.624 1.197-.681.688-.058 1.265.158 1.292.478h-.002" style="fill:none;stroke:red;stroke-width:.666665;stroke-linecap:round;stroke-linejoin:round;stroke-miterlimit:4;stroke-dasharray:none;stroke-opacity:1;visibility:visible" visibility="hidden"/><path d="m72.048 505.022.254 2.588c-.432.412-.262 1.234-.262 1.234M72.04 508.844c.006 1.646 2.374 2.176 2.374 2.176l7.438 1.994c1.973.404 3.212.14 4.416-.252 2.13-.694 2.332-1.764 2.332-1.764M88.6 510.998l.017-.484c.05-.659-.467-1.064-.467-1.064l-.013-.35c-.035-1.078-1.564-1.471-1.564-1.471-2.308-1.424-2.932-3.554-2.932-3.554" style="fill:none;stroke:red;stroke-width:.999997;stroke-linecap:round;stroke-linejoin:round;stroke-miterlimit:4;stroke-dasharray:none;stroke-opacity:1;visibility:visible" visibility="hidden"/><path d="m79.937 500.246-.456-.498-.66-.073-.356.37-.87.008-.108-.361-.714.081-.033.397-.674.16-.54-.262-.579.22-.451.533M72.737 503.875c-.77.533-.69 1.145-.69 1.145.113 1.328 2.808 2.175 6.016 1.891 3.207-.281 5.715-1.588 5.599-2.916 0 0-.244-.713-.782-.967M82.73 501.528s2.12-.088 2.448.935c0 0-.22.633-1.976.693" style="fill:none;stroke:red;stroke-width:.666665;stroke-linecap:round;stroke-linejoin:round;stroke-miterlimit:4;stroke-dasharray:none;stroke-opacity:1;visibility:visible" visibility="hidden"/><path d="m74.945 500.867-.832-.085-1.196 1.166.037.447-.314.352.2 2.295M82.913 504.142l-.193-2.292-.087-.29-.701-.514-.01-.167-.951-.656-.429-.207-.727.276M81.186 505.946l-.193-2.29-.677-1.21-.603-.36.545-.326M78.32 502.495l.11.367.211 1.422.197 2.3M76.066 502.52l-.356.367-.345 1.433.195 2.292" style="fill:none;stroke:red;stroke-width:.666665;stroke-linecap:round;stroke-linejoin:round;stroke-miterlimit:4;stroke-dasharray:none;stroke-opacity:1;visibility:visible" visibility="hidden"/><path d="m74.945 502.134-.728.276-.785 1.312.196 2.294M79.981 501.175c.036.539-.996 1.045-2.305 1.13-1.308.087-2.398-.282-2.434-.822-.034-.54 1-1.045 2.308-1.131 1.308-.086 2.396.284 2.431.823M82.454 502.648l-1.08-1.09-.834-.092" style="fill:none;stroke:red;stroke-width:.666665;stroke-linecap:round;stroke-linejoin:round;stroke-miterlimit:4;stroke-dasharray:none;stroke-opacity:1;visibility:visible" visibility="hidden"/><path d="m167.802 467.352-.012-.36s-.126-.449-.345-.494l-.028-.82s.012-.628-1.688-.984l-4.839-2.634s-.12-.458-.67-.672M144.854 467.99s.122.942 3.014 1.22c1.066.1 2.79.04 4.196-.475 0 0 4.066-1.557 9.48-.341.001 0 2.459.538 4.474.116.889-.184 1.784-.409 1.784-.976M149.977 462.282l-4.083 3.117s-.801.359-.718.801l-.004.683s-.364.253-.318.519l-.01.39" style="fill:none;stroke:red;stroke-width:.999997;stroke-linecap:round;stroke-linejoin:round;stroke-miterlimit:4;stroke-dasharray:none;stroke-opacity:1;visibility:visible" visibility="hidden"/><path d="M151.76 466.891s1.494-1.415 4.248-1.367c2.75.044 3.49 0 5.709 1.023M150.018 464.64l-.041-2.254s.328-.722.763-.841M157.653 459.178c0 .424-.99.77-2.213.77-1.222.001-2.212-.345-2.212-.769 0-.425.99-.769 2.212-.769 1.222 0 2.213.344 2.213.768M166.794 465.49c0 .55-1.364.997-3.05.997-1.682 0-3.047-.447-3.047-.997-.001-.55 1.363-.998 3.048-.998s3.05.448 3.05.998h-.001M151.584 466.04c0 .59-1.266 1.066-2.827 1.066-1.563.001-2.827-.476-2.827-1.066 0-.59 1.264-1.069 2.827-1.069 1.561 0 2.827.477 2.827 1.069M160.232 462.149l-.034-2.246-.114-.223-1.024-.889-.843.06" style="fill:none;stroke:red;stroke-width:.666665;stroke-linecap:round;stroke-linejoin:round;stroke-miterlimit:4;stroke-dasharray:none;stroke-opacity:1;visibility:visible" visibility="hidden"/><path d="m160.986 464.6-.05-2.31s.188 1.814-5.632 1.95c-5.004.115-5.244-1.78-5.244-1.78M158.942 458.8l-.412-.39-.434-.172-.658.196-.673-.158" style="fill:none;stroke:red;stroke-width:.666665;stroke-linecap:round;stroke-linejoin:round;stroke-miterlimit:4;stroke-dasharray:none;stroke-opacity:1;visibility:visible" visibility="hidden"/><path d="m157.276 458.369-.216-.364-.635-.071-.299.276-.822-.02-.144-.28-.668.05-.079.317-.537.091-.54-.212-.621.179-.265.375M157.013 459.967l.547.214.669 1.223.037 2.246M155.585 460.142l.144.284.17 1.21.055 2.342M154.12 460.055l-.3.276-.34 1.295.036 2.244M153.013 459.733l-.661.192-.774 1.193.039 2.245" style="fill:none;stroke:red;stroke-width:.666665;stroke-linecap:round;stroke-linejoin:round;stroke-miterlimit:4;stroke-dasharray:none;stroke-opacity:1;visibility:visible" visibility="hidden"/><path d="m152.874 458.752-.8-.084-.238.218-.943.85.01.42-.183.19.04 2.244" style="fill:none;stroke:red;stroke-width:.666665;stroke-linecap:round;stroke-linejoin:round;stroke-miterlimit:4;stroke-dasharray:none;stroke-opacity:1;visibility:visible" visibility="hidden"/><path d="M233.087 484.258s.186.692 1.8 1.242c2.163.734 4.103-.28 4.103-.28s1.2.31.181 1.927M236.989 488.552l-.222.872M236.767 489.424s-.232 1.146 3.096 1.79c3.33.642 3.922-.339 3.922-.339l5.501-2.42M233.334 483.255l-.248.945" style="fill:none;stroke:red;stroke-width:.999997;stroke-linecap:round;stroke-linejoin:round;stroke-miterlimit:4;stroke-dasharray:none;stroke-opacity:1;visibility:visible" visibility="hidden"/><path d="M238.415 484.276a8.744 8.744 0 0 1-1.785.172c-.38 0-.743-.02-1.077-.06M235.231 484.362c-1.957-.375-1.78-1.227-1.78-1.227" style="fill:none;stroke:red;stroke-width:.666665;stroke-linecap:round;stroke-linejoin:round;stroke-miterlimit:4;stroke-dasharray:none;stroke-opacity:1;visibility:visible" visibility="hidden"/><path d="M237.153 488.347c.044-.445.841-.755 1.976-.841M233.366 483.382c0-.59 1.461-1.068 3.264-1.068.616 0 1.193.052 1.684.15" style="fill:none;stroke:red;stroke-width:.999997;stroke-linecap:round;stroke-linejoin:round;stroke-miterlimit:4;stroke-dasharray:none;stroke-opacity:1;visibility:visible" visibility="hidden"/><path d="M239.129 487.506c.545-.039 1.165-.03 1.824.038 2.032.216 3.622.928 3.556 1.587-.07.664-1.77 1.02-3.8.801-2.032-.212-3.626-.924-3.556-1.585M244.509 489.131l1.85-.937M249.76 486.596c-.346 1.336-3.063 1.758-6.078.951-3.008-.807-5.176-2.535-4.832-3.875M247.355 482.275c-.114.585-1.205.861-2.445.62-1.235-.243-2.147-.912-2.033-1.5.113-.59 1.202-.863 2.446-.623 1.231.243 2.143.915 2.032 1.503" style="fill:none;stroke:red;stroke-width:.666665;stroke-linecap:round;stroke-linejoin:round;stroke-miterlimit:4;stroke-dasharray:none;stroke-opacity:1;visibility:visible" visibility="hidden"/><path d="M242.173 489.54c-.033.307-.75.485-1.607.394-.853-.089-1.52-.414-1.488-.726.032-.308.748-.484 1.607-.396.85.091 1.518.418 1.488.728" style="fill:none;stroke:red;stroke-width:.666665;stroke-linecap:round;stroke-linejoin:round;stroke-miterlimit:4;stroke-dasharray:none;stroke-opacity:1;visibility:visible" visibility="hidden"/><path d="m249.358 488.323.472-2.055s.25-.817-.397-1.46" style="fill:none;stroke:red;stroke-width:.999997;stroke-linecap:round;stroke-linejoin:round;stroke-miterlimit:4;stroke-dasharray:none;stroke-opacity:1;visibility:visible" visibility="hidden"/><path d="m249.03 486.378.547-2.11.112-.874-.919-1.364-.844-.079" style="fill:none;stroke:red;stroke-width:.999997;stroke-linecap:round;stroke-linejoin:round;stroke-miterlimit:4;stroke-dasharray:none;stroke-opacity:1;visibility:visible" visibility="hidden"/><path d="m248.771 482.031-.569-.677-.455-.342-.646.15-.699-.363" style="fill:none;stroke:red;stroke-width:.666665;stroke-linecap:round;stroke-linejoin:round;stroke-miterlimit:4;stroke-dasharray:none;stroke-opacity:1;visibility:visible" visibility="hidden"/><path d="m246.786 480.971-.11-.521-.648-.234-.277.344-.833-.19-.17-.447-.674-.067-.433.367" style="fill:none;stroke:red;stroke-width:.666665;stroke-linecap:round;stroke-linejoin:round;stroke-miterlimit:4;stroke-dasharray:none;stroke-opacity:1;visibility:visible" visibility="hidden"/><path d="m244.245 480.304-.755.031-.568-.427-.519.12-.91.388-.918.5-.315.32-.358 1.38-.627-.109-.368.967" style="fill:none;stroke:red;stroke-width:.666665;stroke-linecap:round;stroke-linejoin:round;stroke-miterlimit:4;stroke-dasharray:none;stroke-opacity:1;visibility:visible" visibility="hidden"/><path d="m239.277 482.591.226.675-.318 1.484M163.484 528.508c0 .97-1.582 1.755-3.53 1.755-1.95 0-3.532-.785-3.532-1.755M248.809 486.654l.549-2.11-.748-1.262-.823-.298M246.807 483.358l.573.432.45 1.425-.55 2.115M245.378 483.323l.17.453-.032 1.446-.543 2.117M243.889 482.894l-.279.352-.567 1.322-.543 2.115M243.189 482.528l-.652.152-1.044 1.21-.51 1.992" style="fill:none;stroke:red;stroke-width:.666665;stroke-linecap:round;stroke-linejoin:round;stroke-miterlimit:4;stroke-dasharray:none;stroke-opacity:1;visibility:visible" visibility="hidden"/><path d="m239.502 483.266.67.128.094-.934 1.249-.804.848.086" style="fill:none;stroke:red;stroke-width:.666665;stroke-linecap:round;stroke-linejoin:round;stroke-miterlimit:4;stroke-dasharray:none;stroke-opacity:1;visibility:visible" visibility="hidden"/><path d="M156.422 528.508c0-.973 1.582-1.76 3.53-1.76 1.951 0 3.533.787 3.533 1.76" style="fill:none;stroke:red;stroke-width:.999997;stroke-linecap:round;stroke-linejoin:round;stroke-miterlimit:4;stroke-dasharray:none;stroke-opacity:1;visibility:visible" visibility="hidden"/><path d="M237.511 483.1c0 .195-.344.36-.766.36-.426 0-.768-.165-.768-.36 0-.199.342-.36.768-.36.422 0 .765.161.765.36M177.746 526.792c0 .198-.344.358-.766.358-.426 0-.768-.16-.768-.358 0-.2.342-.36.768-.36.422 0 .766.16.766.36M160.746 528.459c0 .197-.344.357-.766.357-.426 0-.768-.16-.768-.356 0-.201.342-.361.768-.361.422 0 .766.16.766.36M149.178 465.818c0 .197-.344.357-.766.357-.426 0-.768-.16-.768-.357 0-.2.342-.36.768-.36.422 0 .766.16.766.36" style="fill:none;fill-opacity:1;fill-rule:nonzero;stroke:red;stroke-width:1.33333;visibility:visible" visibility="hidden"/><path d="M174.468 526.11c1.052-.656 2.636-.547 2.636-.547 1.428.063 2.54.568 2.54 1.185.001.659-1.267 1.19-2.831 1.19h-.221s-.635-.031-1.275-.356M175.569 530.05c-.313 1.86-3.221 2.896-6.49 2.309-3.276-.59-5.675-2.58-5.363-4.443M172.714 526.56c-.153.748-1.364 1.131-2.698.852-1.336-.281-2.29-1.117-2.132-1.868.156-.749 1.368-1.132 2.702-.85 1.334.278 2.287 1.114 2.128 1.866" style="fill:none;stroke:red;stroke-width:.666665;stroke-linecap:round;stroke-linejoin:round;stroke-miterlimit:4;stroke-dasharray:none;stroke-opacity:1;visibility:visible" visibility="hidden"/><path d="M180.877 527.948s.11-.541-.177-1.01c0 0 .906-2.575-4.094-2.588 0 0-2.074.142-2.744.846M155.233 530.828s-.084 1.32 1.905 1.694l8.203 2.265s5.863 1.544 9.017-.888l5.675-4.355s.801-.541.81-1.409M156.564 527.91s-.602.448-.58.914l-.09.51s-.724.373-.556.976l-.07.371" style="fill:none;stroke:red;stroke-width:.999997;stroke-linecap:round;stroke-linejoin:round;stroke-miterlimit:4;stroke-dasharray:none;stroke-opacity:1;visibility:visible" visibility="hidden"/><path d="m166.63 524.35 1.402-.511.586.484.822-.099M164.566 528.703l.607-3.227.259-.356 1.218-.562.87.301M163.84 528s.094-.836 1.024-1.42M165.526 534.782l.62-3.32-1.98-.875-.13.197-4.273-.474M174.48 531.81l-.335 1.786M180.122 526.803l-4.554 3.355M325.88 446.706l35.474-22.464M326.47 450.955c3.156-3.81 9.28-4.432 11.54-8.77M323.715 445.263c3.156-3.81 9.282-4.433 11.545-8.77M316.693 443.566c3.174-3.797 9.302-4.396 11.584-8.724" style="fill:none;stroke:red;stroke-width:.666665;stroke-linecap:round;stroke-linejoin:round;stroke-miterlimit:4;stroke-dasharray:none;stroke-opacity:1;visibility:visible" visibility="hidden"/><path d="m167.284 526.143-.918-.033-1.274.877M168.126 527.048l-.772.318-.99 1.133-.408 2.143M169.557 527.68l-.33.451-.575 1.464-.387 2.044M171.184 527.875l.154.544-.01 1.633-.398 2.086M172.58 527.582l.594.486.529 1.506-.413 2.144M173.334 525.948l.916.036.919.962.15.424-.634 3.232M168.885 524.224l.05-.264.432-.277.653.028.152.54.894.168.328-.447.692.234.247.308-.09.382.247.156.72-.242.47.386.678.632" style="fill:none;stroke:red;stroke-width:.666665;stroke-linecap:round;stroke-linejoin:round;stroke-miterlimit:4;stroke-dasharray:none;stroke-opacity:1;visibility:visible" visibility="hidden"/><path d="m125.16 586.134-.011-.022c.003.016.01.022.01.022" style="fill:none;fill-opacity:1;fill-rule:nonzero;stroke:red;stroke-width:1.33333;visibility:visible" visibility="hidden"/><path d="m238.314 482.464 11.516.638M80.59 493.344l-6.474 4.044M74.116 497.388l6.474-4.044M129.501 467.334l-9.417 4.292M135.457 475.622l-5.956-8.288M238.314 482.464 240 480.8M195.46 470.37l10.506 2.452M205.966 472.822l-10.506-2.452M174.18 476.955l-11.71-14.252" style="fill:none;stroke:red;stroke-width:1.6;stroke-linecap:round;stroke-linejoin:round;stroke-miterlimit:4;stroke-dasharray:none;stroke-opacity:1;visibility:visible" visibility="hidden"/><path d="m81.62 500.67-15.76 3.492" style="fill:none;stroke:red;stroke-width:.999997;stroke-linecap:round;stroke-linejoin:round;stroke-miterlimit:4;stroke-dasharray:none;stroke-opacity:1;visibility:visible" visibility="hidden"/><path d="m191.02 480.994-16.84-4.039M135.457 475.622l7.953-3.599M143.41 472.023l-7.953 3.599M181.765 525.287l-13.717-3.559M168.048 521.728l13.717 3.559M195.46 470.37l-4.44 10.624" style="fill:none;stroke:red;stroke-width:.666665;stroke-linecap:round;stroke-linejoin:round;stroke-miterlimit:4;stroke-dasharray:none;stroke-opacity:1;visibility:visible" visibility="hidden"/><path d="m65.86 504.162 15.76-3.492" style="fill:none;stroke:red;stroke-width:.999997;stroke-linecap:round;stroke-linejoin:round;stroke-miterlimit:4;stroke-dasharray:none;stroke-opacity:1;visibility:visible" visibility="hidden"/><path d="m82.913 504.142 4.527 4.886M88.6 510.998l-1.16-1.97M82.88 503.028l-.63 7.554M82.454 502.648l1.652 4.792M82.454 502.648l.234 3.272M81.186 505.946l4.392 3.838M80.59 493.344l-7.853 10.531M79.981 501.175l1.205 4.771M88.6 510.998l-10.28-8.503M79.981 501.175l-1.143 5.409M74.496 500.821l1.57 1.699M79.815 500.292l-4.87 1.842M72.048 505.022l1.58.994M160.22 461.388l1.497 5.159M149.178 465.818l.84-1.178M167.802 467.352l-1.008-1.862M150.3 461.617l16.494 3.873M166.794 465.49l-5.808-.89M161.717 466.547l-4.704-6.58M157.653 459.178l.613 4.472M157.276 458.369l-1.691 1.773M151.584 466.04l4.37-2.062M151.584 466.04l1.932-2.17M151.584 466.04l.033-2.677M249.286 488.455l-4.777.676M237.153 488.347l5.02 1.193M237.153 488.347l5.02 1.193M249.76 486.596l-2.48.734M249.76 486.596l-4.787.743M238.85 483.672l3.65 3.011M238.85 483.672l2.133 2.21M247.926 481.951l-5.563-.209" style="fill:none;stroke:red;stroke-width:.666665;stroke-linecap:round;stroke-linejoin:round;stroke-miterlimit:4;stroke-dasharray:none;stroke-opacity:1;visibility:visible" visibility="hidden"/><path d="m233.366 483.382 4.145-.282M180.877 527.948l-3.131-1.156M180.843 528.135l-3.097-1.343M163.485 528.508l-2.739-.049M163.484 528.508l-2.738-.049M150.018 464.64l-.84 1.178M151.584 466.04l-2.406-.222" style="fill:none;fill-opacity:1;fill-rule:nonzero;stroke:red;stroke-width:1.33333;visibility:visible" visibility="hidden"/><path d="m168.126 527.048-1.496-2.698M163.716 527.916l.85.787M181.765 525.287l-14.245-.428M163.716 527.916l1.81 6.866M167.284 526.143l-7.521 4.167M173.29 531.718l1.19.092M175.569 530.05l-1.424 3.546M174.468 526.11l5.654.693M173.334 525.948l-6.05.195M166.63 524.35l1.496 2.698M163.716 527.916l2.24 2.726M163.716 527.916l4.549 3.723M156.564 527.91l14.62-.035M174.48 531.81l-3.55.328M174.358 525.828l-1.778 1.754M174.48 531.81l-1.19-.092" style="fill:none;stroke:red;stroke-width:.666665;stroke-linecap:round;stroke-linejoin:round;stroke-miterlimit:4;stroke-dasharray:none;stroke-opacity:1;visibility:visible" visibility="hidden"/><path d="M243.549 468.091s1.25 1.709 4.158 2.527c2.435.684 5.844.728 6.528-1.014l8.275-32.07M248.13 447.589l-4.877 19.223-.036.408.518.09M251.395 434.717l-1.794 7.076M173.72 478.583l-6.13 32.71s-.436 3.043 4.902 4.263c6.12 1.394 6.932-2.014 6.932-2.014l6.286-32.683M79.033 460.784l93.437 24.48M173.309 480.774l-93.263-24.268M158.945 419.925l90.697 21.7M250.7 437.467l-90.891-21.596M251.771 440.56l-66.86 37.829M185.213 483.443l68.625-39.11M80.46 452.326l70.432-35.661M81.296 456.81l71.396-36.41M160.438 416.009l-.084-5.402M149.536 422.014l.384 21.666s.171 1.76 5.38 1.71c5.208-.049 5.464-1.589 5.554-1.88l-.35-23.244M149.333 410.785l.116 6.612M80.822 456.695l-.5-6.028M68.622 451.62l2.911 33.769s.235 2.395 6.137 1.825c5.726-.552 5.446-2.784 5.446-2.784l-1.914-23.116" style="fill:none;stroke:#00ff4a;stroke-width:1.33333;stroke-linecap:round;stroke-linejoin:round;stroke-miterlimit:4;stroke-dasharray:none;stroke-opacity:1;visibility:visible"/><path d="M80.32 450.462c.114 1.323-2.412 2.625-5.64 2.907-3.232.28-5.946-.566-6.06-1.891M251.871 440.534s1.39-.654 2.51 1.256c.981 1.676-.451 2.473-.451 2.473M151.028 416.626s1.345-.461 2.358 1.26c.944 1.601-.596 2.44-.596 2.44M159.66 415.878s-1.17.15-1.691 1.921c-.523 1.772.879 2.095.879 2.095M79.985 456.498s-1.128.117-1.864 1.73a1.856 1.856 0 0 0 .772 2.514" style="fill:none;stroke:#00ff4a;stroke-width:.999997;stroke-linecap:round;stroke-linejoin:round;stroke-miterlimit:4;stroke-dasharray:none;stroke-opacity:1;visibility:visible"/><path d="M68.62 451.477c-.114-1.323 2.413-2.623 5.642-2.904 3.231-.283 5.943.565 6.058 1.887" style="fill:none;stroke:#00ff4a;stroke-width:1.33333;stroke-linecap:round;stroke-linejoin:round;stroke-miterlimit:4;stroke-dasharray:none;stroke-opacity:1;visibility:visible"/><path d="M160.34 410.534c0 1.033-2.465 1.875-5.505 1.872-3.045.003-5.51-.836-5.511-1.872M69.67 452.471c.36-.906 2.28-1.734 4.653-1.941 2.494-.217 4.614.329 4.987 1.239" style="fill:none;stroke:#00ff4a;stroke-width:.999997;stroke-linecap:round;stroke-linejoin:round;stroke-miterlimit:4;stroke-dasharray:none;stroke-opacity:1;visibility:visible"/><path d="M149.325 410.534c.001-1.033 2.468-1.872 5.51-1.872s5.508.839 5.508 1.872" style="fill:none;stroke:#00ff4a;stroke-width:1.33333;stroke-linecap:round;stroke-linejoin:round;stroke-miterlimit:4;stroke-dasharray:none;stroke-opacity:1;visibility:visible"/><path d="M262.537 437.375c-.364 1.44-3.147 1.979-6.21 1.198-3.067-.776-5.257-2.573-4.89-4.015M150.224 411.61c.41-.68 2.272-1.193 4.509-1.195 2.347.002 4.284.567 4.559 1.296" style="fill:none;stroke:#00ff4a;stroke-width:.999997;stroke-linecap:round;stroke-linejoin:round;stroke-miterlimit:4;stroke-dasharray:none;stroke-opacity:1;visibility:visible"/><path d="M251.437 434.558c.366-1.44 3.146-1.973 6.213-1.195 3.065.777 5.253 2.572 4.887 4.012" style="fill:none;stroke:#00ff4a;stroke-width:1.33333;stroke-linecap:round;stroke-linejoin:round;stroke-miterlimit:4;stroke-dasharray:none;stroke-opacity:1;visibility:visible"/><path d="M251.962 435.949c.653-.844 2.71-1.082 4.965-.514 2.364.605 4.116 1.888 4.135 2.972" style="fill:none;stroke:#00ff4a;stroke-width:1.33333;stroke-linecap:round;stroke-linejoin:round;stroke-miterlimit:4;stroke-dasharray:none;stroke-opacity:1;visibility:visible"/><path d="M185.754 480.667c-.338 1.836-3.31 2.828-6.638 2.213-3.338-.606-5.763-2.596-5.427-4.426" style="fill:none;stroke:#00ff4a;stroke-width:.999997;stroke-linecap:round;stroke-linejoin:round;stroke-miterlimit:4;stroke-dasharray:none;stroke-opacity:1;visibility:visible"/><path d="M173.689 478.454c.337-1.834 3.31-2.82 6.644-2.206 3.33.61 5.756 2.592 5.421 4.42" style="fill:none;stroke:#00ff4a;stroke-width:1.33333;stroke-linecap:round;stroke-linejoin:round;stroke-miterlimit:4;stroke-dasharray:none;stroke-opacity:1;visibility:visible"/><path d="M174.256 479.391c.694-1.084 3.028-1.57 5.64-1.093 2.739.508 4.821 1.898 4.91 3.216" style="fill:none;stroke:#00ff4a;stroke-width:.999997;stroke-linecap:round;stroke-linejoin:round;stroke-miterlimit:4;stroke-dasharray:none;stroke-opacity:1;visibility:visible"/><path d="m249.601 441.793-1.471 5.796M149.449 417.397l.087 4.617M160.438 416.009l.066 4.257M149.536 422.014l-.087-4.617M80.822 456.695l.38 4.619" style="fill:none;stroke:#00ff4a;stroke-width:1.33333;stroke-linecap:round;stroke-linejoin:round;stroke-miterlimit:4;stroke-dasharray:none;stroke-opacity:1;visibility:visible"/><path d="m155.585 460.142-1.465-.087" style="fill:none;stroke:red;stroke-width:.666665;stroke-linecap:round;stroke-linejoin:round;stroke-miterlimit:4;stroke-dasharray:none;stroke-opacity:1;visibility:visible" visibility="hidden"/><path d="m240.983 485.882 8.45-1.074" style="fill:none;stroke:red;stroke-width:.999997;stroke-linecap:round;stroke-linejoin:round;stroke-miterlimit:4;stroke-dasharray:none;stroke-opacity:1;visibility:visible" visibility="hidden"/><path d="m242.5 486.683 4.307-3.325M180.843 528.135l-5.526-.553" style="fill:none;stroke:red;stroke-width:.666665;stroke-linecap:round;stroke-linejoin:round;stroke-miterlimit:4;stroke-dasharray:none;stroke-opacity:1;visibility:visible" visibility="hidden"/><path d="m174.18 476.955-1.71 8.309M174.18 476.955l-.871 3.819" style="fill:none;stroke:#00ff4a;stroke-width:1.33333;stroke-linecap:round;stroke-linejoin:round;stroke-miterlimit:4;stroke-dasharray:none;stroke-opacity:1;visibility:visible"/></svg>