<svg xmlns="http://www.w3.org/2000/svg" baseProfile="full" height="793.701" preserveAspectRatio="xMinYMin meet" style="width:792px;height:931px" width="559.371" xml:space="preserve"><path d="m241.245 483.411 36.973 8.445M202.226 474.496l12.296 2.81M221.995 475.231l-19.554-4.435M279.155 488.19l-48.508-10.995M131.641 511.734l78.56 19.893M210.951 527.671l-78.435-19.713M194.173 471.71l-61.656 32.333M133.088 508.102l62.8-33.156M279.573 491.315l-57.095 33.405M221.458 529.963l60.022-35.367M276.575 498.291l-4.008 15.649M203.343 494.848l-.056-3.578M203.1 479.278l-.057-3.823M193.376 476.898l.313 18.076" style="fill:none;stroke:red;stroke-width:1.33333;stroke-linecap:round;stroke-linejoin:round;stroke-miterlimit:4;stroke-dasharray:none;stroke-opacity:1;visibility:visible"/><path d="M132.109 507.862s-1.357.142-1.75 1.866c-.368 1.607.784 1.876.784 1.876M280.28 490.931s1.381-.287 2.134 1.219c.709 1.42-.247 1.994-.247 1.994M202.226 470.795s-1.11.467-1.388 1.599c-.277 1.128.363 1.802.588 1.885M194.769 471.44s1.608-.257 2.157 1.545c.37 1.222-.604 1.699-.604 1.699" style="fill:none;stroke:red;stroke-width:.999997;stroke-linecap:round;stroke-linejoin:round;stroke-miterlimit:4;stroke-dasharray:none;stroke-opacity:1;visibility:visible"/><path d="M124.04 527.791s-9.344 4.719-8.844 8.719l.484 8.148s-.484 3.75 5.932 5.438l81.914 21.854s5.695 1.22 7.552 8.857c0 0 10.69 48.838 13.01 58.973 2.316 10.136 13.049 54.961 13.049 54.961s.816 3.732 3.929 3.97l7.65.477s1.23.292 3.199-.996c-.001 0 35.869-20.732 53.449-40.707-.001 0 2.509-2.52 1.759-9.689 0 0-6.069-64.53-8.873-115.033 0 0 .748-14.615-14.484-18.855M193.338 494.435s-5.792-.287-11.64 2.536c0 0-15.261 6.389-31.125 14.857M143.782 515.572a195.71 195.71 0 0 0-9.176 5.544M271.866 511.114s-4.599-1.066-11.644-2.704M251.74 506.436c-7.297-1.7-15.82-3.688-24.208-5.648M216.253 498.144c-4.298-1.01-8.378-1.972-12.028-2.836" style="fill:none;stroke:red;stroke-width:1.33333;stroke-linecap:round;stroke-linejoin:round;stroke-miterlimit:4;stroke-dasharray:none;stroke-opacity:1;visibility:visible"/><path d="M305.493 655.587s-18.139 20.656-55.004 41.757c0 0-2.854 1.615-4.78-2.968-1.134-2.696-6.734-26.347-12.382-51.724-5.17-23.24-10.332-47.846-13.204-60.901 0-.001-1.788-14.732-15.876-19.307l-83.16-21.944s-7.696-2.465-2.563-7.728" style="fill:none;stroke:red;stroke-width:.999997;stroke-linecap:round;stroke-linejoin:round;stroke-miterlimit:4;stroke-dasharray:none;stroke-opacity:1;visibility:visible"/><path d="m218.026 550.128 6.139 1.594s28.354-21.315 48.678-29.708l-26.261-6.324M239.146 513.902l-13.655-3.287M214.64 508.004l-23.749-5.716s-11.406 4.856-26.362 13.078M157.89 519.108c-5.622 3.258-11.556 6.912-17.438 10.899l66.245 17.185" style="fill:none;stroke:red;stroke-width:.666665;stroke-linecap:round;stroke-linejoin:round;stroke-miterlimit:4;stroke-dasharray:none;stroke-opacity:1;visibility:visible"/><path d="m133.27 512.971 1.58 19.245" style="fill:none;stroke:red;stroke-width:1.33333;stroke-linecap:round;stroke-linejoin:round;stroke-miterlimit:4;stroke-dasharray:none;stroke-opacity:1;visibility:visible"/><path d="M137.414 531.768s.183.686-.756 1.31c0 0-.633.385-.864.802" style="fill:none;stroke:red;stroke-width:.999997;stroke-linecap:round;stroke-linejoin:round;stroke-miterlimit:4;stroke-dasharray:none;stroke-opacity:1;visibility:visible"/><path d="M134.586 529.147s2.416-.044 2.38 1.448l.047.245s.47.335.401.927" style="fill:none;stroke:red;stroke-width:1.33333;stroke-linecap:round;stroke-linejoin:round;stroke-miterlimit:4;stroke-dasharray:none;stroke-opacity:1;visibility:visible"/><path d="M138.206 536.687c.059.721-1.174 1.41-2.756 1.539-1.58.124-2.909-.356-2.966-1.078-.059-.721 1.176-1.412 2.756-1.54 1.58-.126 2.91.355 2.966 1.079M126.922 534.77l6.695 3.276M135.26 535.294s-.863-.872-1.254-1.334" style="fill:none;stroke:red;stroke-width:.666665;stroke-linecap:round;stroke-linejoin:round;stroke-miterlimit:4;stroke-dasharray:none;stroke-opacity:1;visibility:visible"/><path d="M131.974 537.004s-.338-.68.247-.901c0 0 1.467-.585 1.799-.875 0 0 .236-.013.256.258.02.273.057-.01.057-.01M136.561 537.348c.024.279-.45.547-1.057.596-.608.05-1.119-.137-1.142-.418-.022-.282.452-.55 1.059-.599.608-.05 1.117.137 1.14.421" style="fill:none;stroke:red;stroke-width:.666665;stroke-linecap:round;stroke-linejoin:round;stroke-miterlimit:4;stroke-dasharray:none;stroke-opacity:1;visibility:visible"/><path d="m139.232 538.408.014-.424c.046-.576-.412-.93-.412-.93l-.01-.307c-.031-.945-1.384-1.29-1.384-1.29-2.04-1.245-2.591-3.11-2.591-3.11" style="fill:none;stroke:red;stroke-width:1.33333;stroke-linecap:round;stroke-linejoin:round;stroke-miterlimit:4;stroke-dasharray:none;stroke-opacity:1;visibility:visible"/><path d="M124.596 536.523c.004 1.443 2.097 1.907 2.097 1.907l6.576 1.746c1.744.355 2.837.124 3.901-.221 1.882-.61 2.063-1.547 2.063-1.547" style="fill:none;stroke:red;stroke-width:.999997;stroke-linecap:round;stroke-linejoin:round;stroke-miterlimit:4;stroke-dasharray:none;stroke-opacity:1;visibility:visible"/><path d="m124.601 533.174.227 2.265c-.383.363-.232 1.084-.232 1.084" style="fill:none;stroke:red;stroke-width:1.33333;stroke-linecap:round;stroke-linejoin:round;stroke-miterlimit:4;stroke-dasharray:none;stroke-opacity:1;visibility:visible"/><path d="M136.986 530.707s-.314.459-.72.713l-1.304.956M134.869 532.275c.101 1.164-2.115 2.31-4.95 2.557-2.836.248-5.216-.494-5.319-1.658M205.81 554.19c0 .83-1.4 1.505-3.125 1.505-1.73 0-3.128-.675-3.128-1.505" style="fill:none;stroke:red;stroke-width:.666665;stroke-linecap:round;stroke-linejoin:round;stroke-miterlimit:4;stroke-dasharray:none;stroke-opacity:1;visibility:visible"/><path d="M199.555 554.19c0-.831 1.401-1.503 3.128-1.503s3.127.672 3.127 1.503" style="fill:none;stroke:red;stroke-width:1.33333;stroke-linecap:round;stroke-linejoin:round;stroke-miterlimit:4;stroke-dasharray:none;stroke-opacity:1;visibility:visible"/><path d="M204.17 554.83c0 .369-.666.672-1.486.672-.822 0-1.488-.303-1.488-.672 0-.372.666-.672 1.488-.672.82 0 1.486.3 1.486.672" style="fill:none;stroke:red;stroke-width:.666665;stroke-linecap:round;stroke-linejoin:round;stroke-miterlimit:4;stroke-dasharray:none;stroke-opacity:1;visibility:visible"/><path d="M216.517 555.51c-.279 1.593-2.855 2.478-5.75 1.976-2.901-.504-5.027-2.206-4.75-3.8" style="fill:none;stroke:red;stroke-width:.999997;stroke-linecap:round;stroke-linejoin:round;stroke-miterlimit:4;stroke-dasharray:none;stroke-opacity:1;visibility:visible"/><path d="M217.874 551.67c1.264.054 2.25.486 2.25 1.018.001.562-1.122 1.016-2.509 1.016l-.193-.002" style="fill:none;stroke:red;stroke-width:.666665;stroke-linecap:round;stroke-linejoin:round;stroke-miterlimit:4;stroke-dasharray:none;stroke-opacity:1;visibility:visible"/><path d="M199.682 553.682s-.532.377-.512.778l-.08.438s-.642.32-.493.836l-.06.314" style="fill:none;stroke:red;stroke-width:1.33333;stroke-linecap:round;stroke-linejoin:round;stroke-miterlimit:4;stroke-dasharray:none;stroke-opacity:1;visibility:visible"/><path d="M198.504 556.179s-.075 1.125 1.686 1.445l7.267 1.94s5.19 1.32 7.985-.76l5.028-3.726s.71-.462.717-1.204" style="fill:none;stroke:red;stroke-width:.999997;stroke-linecap:round;stroke-linejoin:round;stroke-miterlimit:4;stroke-dasharray:none;stroke-opacity:1;visibility:visible"/><path d="M221.217 553.712s.097-.464-.157-.864c0 0 .8-2.204-3.627-2.217" style="fill:none;stroke:red;stroke-width:1.33333;stroke-linecap:round;stroke-linejoin:round;stroke-miterlimit:4;stroke-dasharray:none;stroke-opacity:1;visibility:visible"/><path d="m207.62 559.559.548-2.841-1.754-.75-.114.172-3.786-.406M215.55 557.018l-.297 1.528M220.547 552.734l-4.032 2.866" style="fill:none;stroke:red;stroke-width:.666665;stroke-linecap:round;stroke-linejoin:round;stroke-miterlimit:4;stroke-dasharray:none;stroke-opacity:1;visibility:visible"/><path d="m267.7 513.726-.217.814" style="fill:none;stroke:red;stroke-width:1.33333;stroke-linecap:round;stroke-linejoin:round;stroke-miterlimit:4;stroke-dasharray:none;stroke-opacity:1;visibility:visible"/><path d="M270.726 519.054s-.205.989 2.728 1.544c2.935.557 3.456-.294 3.456-.294l4.85-2.089" style="fill:none;stroke:red;stroke-width:.999997;stroke-linecap:round;stroke-linejoin:round;stroke-miterlimit:4;stroke-dasharray:none;stroke-opacity:1;visibility:visible"/><path d="m270.92 518.302-.195.752" style="fill:none;stroke:red;stroke-width:1.33333;stroke-linecap:round;stroke-linejoin:round;stroke-miterlimit:4;stroke-dasharray:none;stroke-opacity:1;visibility:visible"/><path d="M267.483 514.59s.164.598 1.587 1.073c1.907.635 3.616-.243 3.616-.243s1.056.271.157 1.667" style="fill:none;stroke:red;stroke-width:.999997;stroke-linecap:round;stroke-linejoin:round;stroke-miterlimit:4;stroke-dasharray:none;stroke-opacity:1;visibility:visible"/><path d="M272.178 514.606a7.901 7.901 0 0 1-1.57.148c-.335 0-.655-.015-.954-.052M269.373 514.682c-1.724-.323-1.568-1.06-1.568-1.06" style="fill:none;stroke:red;stroke-width:.666665;stroke-linecap:round;stroke-linejoin:round;stroke-miterlimit:4;stroke-dasharray:none;stroke-opacity:1;visibility:visible"/><path d="M271.066 518.122c.04-.386.74-.652 1.741-.727M267.727 513.832c0-.51 1.291-.921 2.879-.921.541 0 1.05.047 1.483.13" style="fill:none;stroke:red;stroke-width:1.33333;stroke-linecap:round;stroke-linejoin:round;stroke-miterlimit:4;stroke-dasharray:none;stroke-opacity:1;visibility:visible"/><path d="M272.807 517.395a9.426 9.426 0 0 1 1.607.033c1.792.188 3.195.803 3.135 1.374-.062.568-1.56.877-3.35.692-1.789-.187-3.193-.799-3.133-1.372" style="fill:none;stroke:red;stroke-width:.666665;stroke-linecap:round;stroke-linejoin:round;stroke-miterlimit:4;stroke-dasharray:none;stroke-opacity:1;visibility:visible"/><path d="M275.493 519.152c-.03.268-.663.419-1.416.342-.752-.079-1.34-.358-1.314-.628.028-.268.662-.419 1.417-.339.751.079 1.341.357 1.313.625" style="fill:none;stroke:red;stroke-width:.666665;stroke-linecap:round;stroke-linejoin:round;stroke-miterlimit:4;stroke-dasharray:none;stroke-opacity:1;visibility:visible"/><path d="M282.177 516.611c-.303 1.153-2.698 1.519-5.355.82-2.652-.695-4.561-2.187-4.257-3.347" style="fill:none;stroke:red;stroke-width:.999997;stroke-linecap:round;stroke-linejoin:round;stroke-miterlimit:4;stroke-dasharray:none;stroke-opacity:1;visibility:visible"/><path d="m277.549 518.802 1.63-.812" style="fill:none;stroke:red;stroke-width:.666665;stroke-linecap:round;stroke-linejoin:round;stroke-miterlimit:4;stroke-dasharray:none;stroke-opacity:1;visibility:visible"/><path d="m193.689 494.972-3.609 2.76s-.707.324-.632.714l-.004.608s-.324.225-.282.456l-.01.348" style="fill:none;stroke:red;stroke-width:1.33333;stroke-linecap:round;stroke-linejoin:round;stroke-miterlimit:4;stroke-dasharray:none;stroke-opacity:1;visibility:visible"/><path d="M189.164 500.032s.106.836 2.662 1.084c.942.091 2.466.036 3.707-.42 0 0 3.595-1.385 8.38-.304 0 0 2.17.476 3.95.108.785-.168 1.577-.364 1.577-.869" style="fill:none;stroke:red;stroke-width:.999997;stroke-linecap:round;stroke-linejoin:round;stroke-miterlimit:4;stroke-dasharray:none;stroke-opacity:1;visibility:visible"/><path d="m203.438 494.898 4.17 2.212c1.502.318 1.492.873 1.492.873l.026.73c.192.039.304.437.304.437l.009.32" style="fill:none;stroke:red;stroke-width:1.33333;stroke-linecap:round;stroke-linejoin:round;stroke-miterlimit:4;stroke-dasharray:none;stroke-opacity:1;visibility:visible"/><path d="M208.549 497.816c0 .49-1.206.886-2.695.886-1.488 0-2.694-.396-2.694-.886 0-.486 1.206-.882 2.694-.882 1.49 0 2.696.396 2.696.882h-.001M195.108 498.306c0 .524-1.118.948-2.5.948-1.378 0-2.494-.424-2.494-.948s1.116-.948 2.495-.948c1.381 0 2.499.424 2.499.948M195.266 499.06s1.319-1.254 3.75-1.213c2.434.043 3.089.001 5.048.909M193.689 495.067l.036 1.997" style="fill:none;stroke:red;stroke-width:.666665;stroke-linecap:round;stroke-linejoin:round;stroke-miterlimit:4;stroke-dasharray:none;stroke-opacity:1;visibility:visible"/><path d="M204.853 498.403c0-.177.49-.323 1.09-.323.601 0 1.087.146 1.087.323M191.549 498.871c0-.18.488-.323 1.09-.323.599 0 1.088.143 1.088.323" style="fill:none;stroke:red;stroke-width:.666665;stroke-linecap:round;stroke-linejoin:round;stroke-miterlimit:4;stroke-dasharray:none;stroke-opacity:1;visibility:visible"/><path d="M203.367 495.248c0 .826-2.167 1.5-4.843 1.5-2.675 0-4.844-.674-4.844-1.5" style="fill:none;stroke:red;stroke-width:.999997;stroke-linecap:round;stroke-linejoin:round;stroke-miterlimit:4;stroke-dasharray:none;stroke-opacity:1;visibility:visible"/><path d="m202.441 470.796 12.081 6.51M230.647 477.195l-8.652-1.964M221.995 475.231l8.652 1.964M143.782 515.572l-11.265-11.529M267.483 514.54l9.092-16.249M204.853 498.403l-1.566-7.133M193.376 476.898l9.724 2.38M196.322 474.684l6.721.771M196.322 474.684l-2.946 2.214M272.089 513.041l11.677.867M143.782 515.572l6.791-3.744M150.573 511.828l-6.791 3.744M272.089 513.041l-.223-1.927M251.74 506.436l8.482 1.974M260.222 508.41l-8.482-1.974M216.253 498.144l11.279 2.644M227.532 500.788l-11.279-2.644" style="fill:none;stroke:red;stroke-width:1.33333;stroke-linecap:round;stroke-linejoin:round;stroke-miterlimit:4;stroke-dasharray:none;stroke-opacity:1;visibility:visible"/><path d="m239.146 513.902 7.436 1.788M246.582 515.69l-7.436-1.788M214.64 508.004l10.851 2.611M225.491 510.615l-10.851-2.611M157.89 519.108l6.639-3.742M164.529 515.366l-6.639 3.742M218.026 550.128l-11.329-2.936" style="fill:none;stroke:red;stroke-width:.666665;stroke-linecap:round;stroke-linejoin:round;stroke-miterlimit:4;stroke-dasharray:none;stroke-opacity:1;visibility:visible"/><path d="m131.974 537.004 3.82-3.124" style="fill:none;stroke:red;stroke-width:.999997;stroke-linecap:round;stroke-linejoin:round;stroke-miterlimit:4;stroke-dasharray:none;stroke-opacity:1;visibility:visible"/><path d="m134.333 535.476.253-6.329" style="fill:none;stroke:red;stroke-width:1.33333;stroke-linecap:round;stroke-linejoin:round;stroke-miterlimit:4;stroke-dasharray:none;stroke-opacity:1;visibility:visible"/><path d="m136.561 537.348 1.645-.661M136.561 537.348l1.645-.661M136.986 530.707l-2.98 3.253M138.206 536.687l-1.645.661M138.206 536.687l-1.645.661M131.974 537.004l5.012-6.297M205.81 554.19l-1.64.64M205.81 554.19l-1.64.64M221.217 553.712l-3.343-2.042M221.217 553.712l-3.795-.01M206.017 553.686l1.603 5.873M221.217 553.712l-18.703 2.022M207.62 559.559l7.93-2.541M216.517 555.51l-1.264 3.036" style="fill:none;stroke:red;stroke-width:.666665;stroke-linecap:round;stroke-linejoin:round;stroke-miterlimit:4;stroke-dasharray:none;stroke-opacity:1;visibility:visible"/><path d="m277.549 518.802 4.211-.587" style="fill:none;stroke:red;stroke-width:.999997;stroke-linecap:round;stroke-linejoin:round;stroke-miterlimit:4;stroke-dasharray:none;stroke-opacity:1;visibility:visible"/><path d="m269.654 514.702 2.435-1.661" style="fill:none;stroke:red;stroke-width:1.33333;stroke-linecap:round;stroke-linejoin:round;stroke-miterlimit:4;stroke-dasharray:none;stroke-opacity:1;visibility:visible"/><path d="m271.066 518.122 4.427 1.03M271.066 518.122l4.427 1.03" style="fill:none;stroke:red;stroke-width:.666665;stroke-linecap:round;stroke-linejoin:round;stroke-miterlimit:4;stroke-dasharray:none;stroke-opacity:1;visibility:visible"/><path d="m272.567 513.94 9.61 2.671" style="fill:none;stroke:red;stroke-width:.999997;stroke-linecap:round;stroke-linejoin:round;stroke-miterlimit:4;stroke-dasharray:none;stroke-opacity:1;visibility:visible"/><path d="m281.76 518.215-4.211.587M207.03 498.403l1.519-.587M193.338 494.435l15.211 3.381M193.68 495.248l.045 1.816M208.549 497.816l-1.519.587M195.108 498.306l-3.559.565M195.108 498.306l-1.381.565" style="fill:none;stroke:red;stroke-width:.666665;stroke-linecap:round;stroke-linejoin:round;stroke-miterlimit:4;stroke-dasharray:none;stroke-opacity:1;visibility:visible"/><path d="m124.609 532.983-2.556-29.027-1.995-30.566M119.649 467.083l-4.152-63.669s-.048-.41.484-.64c0 0 .15-1.16 2.508-1.417 2.328-.255 3.088.933 3.088.933s.541.21.581.6l6.339 61.802M129.468 474.14l2.961 28.86.381 4.53" style="fill:none;stroke:#00ff4a;stroke-width:1.33333;stroke-linecap:round;stroke-linejoin:round;stroke-miterlimit:4;stroke-dasharray:none;stroke-opacity:1;visibility:visible"/><path d="M122.144 503.715s.006 1.79 5.3 1.385c5.065-.382 4.932-2.325 4.932-2.325M115.497 403.414s-.003 1.117 3.435.85c3.302-.261 3.233-1.304 3.233-1.304" style="fill:none;stroke:#00ff4a;stroke-width:.999997;stroke-linecap:round;stroke-linejoin:round;stroke-miterlimit:4;stroke-dasharray:none;stroke-opacity:1;visibility:visible"/><path d="m119.649 467.083.409 6.307M120.058 473.39l-.409-6.307M129.468 474.14l-.971-9.448M128.497 464.692l.971 9.448" style="fill:none;stroke:#00ff4a;stroke-width:1.33333;stroke-linecap:round;stroke-linejoin:round;stroke-miterlimit:4;stroke-dasharray:none;stroke-opacity:1;visibility:visible"/><path d="m132.81 507.53-10.666-3.815M132.81 507.53l-.434-4.755" style="fill:none;stroke:#00ff4a;stroke-width:.999997;stroke-linecap:round;stroke-linejoin:round;stroke-miterlimit:4;stroke-dasharray:none;stroke-opacity:1;visibility:visible"/><path d="m202.958 470.075-.14-8.865-.853-24.31M201.61 426.786l-2.02-57.572s-.064-.359-.508-.456c0 0-.216-1.1-2.624-1.108-2.08-.007-2.621 1.124-2.621 1.124s-.47.237-.49.576l-.157 60.517M193.173 436.297l-.065 25.049.172 9.972" style="fill:none;stroke:#9500ff;stroke-width:1.33333;stroke-linecap:round;stroke-linejoin:round;stroke-miterlimit:4;stroke-dasharray:none;stroke-opacity:1;visibility:visible"/><path d="M202.866 466.251c.01.812-2.14 1.503-4.805 1.536-2.664.035-4.831-.599-4.841-1.41M193.346 369.35s.05.848 3.187.773c3.045-.069 3.045-.808 3.045-.808" style="fill:none;stroke:#9500ff;stroke-width:.999997;stroke-linecap:round;stroke-linejoin:round;stroke-miterlimit:4;stroke-dasharray:none;stroke-opacity:1;visibility:visible"/><path d="m202.866 466.251.092 3.824M201.61 426.786l.355 10.114M201.965 436.9l-.355-10.114M193.173 436.297l.017-6.43M193.19 429.867l-.017 6.43M193.22 466.377l.06 4.941" style="fill:none;stroke:#9500ff;stroke-width:1.33333;stroke-linecap:round;stroke-linejoin:round;stroke-miterlimit:4;stroke-dasharray:none;stroke-opacity:1;visibility:visible"/><path d="m202.958 470.075-.092-3.824M193.28 471.318l-.06-4.941" style="fill:none;stroke:#9500ff;stroke-width:.999997;stroke-linecap:round;stroke-linejoin:round;stroke-miterlimit:4;stroke-dasharray:none;stroke-opacity:1;visibility:visible"/><path d="m216.533 555.226 6.244-32.074 3.956-23.1M228.446 490.032l9.876-57.685s.165-.405-.582-1.241c0 0-.734-.976-2.277-1.37-1.54-.392-2.736.114-3.002.381-.001.001-.808.222-1.023.88l-12.677 59.39M217.314 497.174l-5.09 23.846-6.528 34.242" style="fill:none;stroke:#ffdf00;stroke-width:1.33333;stroke-linecap:round;stroke-linejoin:round;stroke-miterlimit:4;stroke-dasharray:none;stroke-opacity:1;visibility:visible"/><path d="M221.84 527.696c-.279 1.596-2.88 2.476-5.81 1.967-2.93-.51-5.083-2.217-4.807-3.81M231.4 431.153s-.167 1.565 2.994 2.245c3.117.667 3.891-.753 3.903-.956" style="fill:none;stroke:#ffdf00;stroke-width:.999997;stroke-linecap:round;stroke-linejoin:round;stroke-miterlimit:4;stroke-dasharray:none;stroke-opacity:1;visibility:visible"/><path d="m228.446 490.032-1.713 10.02M226.733 500.052l1.713-10.02M217.314 497.174l1.447-6.787M218.761 490.387l-1.447 6.787" style="fill:none;stroke:#ffdf00;stroke-width:1.33333;stroke-linecap:round;stroke-linejoin:round;stroke-miterlimit:4;stroke-dasharray:none;stroke-opacity:1;visibility:visible"/><path d="m281.942 517.791 8.593-33.281 5.605-23.576M298.346 451.649l13.43-56.507s.144-.455-.372-.855c.001 0-.265-1.046-2.146-1.684-1.881-.636-3.112.342-3.112.342s-.6.078-.753.634l-16.18 58.023M287.394 458.138l-6.557 23.516-2.497 9.736" style="fill:none;stroke:#00d4ff;stroke-width:1.33333;stroke-linecap:round;stroke-linejoin:round;stroke-miterlimit:4;stroke-dasharray:none;stroke-opacity:1;visibility:visible"/><path d="M279.706 486.064s0 2.126 4.265 3.183c4.087 1.01 5.423-.284 5.527-.713M305.382 393.618s-.125 1.264 2.95 1.999c3.147.753 3.392-.437 3.392-.437" style="fill:none;stroke:#00d4ff;stroke-width:.999997;stroke-linecap:round;stroke-linejoin:round;stroke-miterlimit:4;stroke-dasharray:none;stroke-opacity:1;visibility:visible"/><path d="m298.346 451.649-2.206 9.285M296.14 460.934l2.206-9.285M287.394 458.138l1.819-6.536M289.213 451.602l-1.819 6.536M289.498 488.534l-11.158 2.856" style="fill:none;stroke:#00d4ff;stroke-width:1.33333;stroke-linecap:round;stroke-linejoin:round;stroke-miterlimit:4;stroke-dasharray:none;stroke-opacity:1;visibility:visible"/><path d="m278.34 491.39 11.158-2.856" style="fill:none;stroke:#00d4ff;stroke-width:.999997;stroke-linecap:round;stroke-linejoin:round;stroke-miterlimit:4;stroke-dasharray:none;stroke-opacity:1;visibility:visible"/><path d="m230.647 477.195 10.598 6.216M206.697 547.192l3.504-15.565M206.697 547.192l4.254-19.521M138.206 536.687l-14.166-8.896M150.573 511.828l-15.967 9.288" style="fill:none;stroke:red;stroke-width:1.33333;stroke-linecap:round;stroke-linejoin:round;stroke-miterlimit:4;stroke-dasharray:none;stroke-opacity:1;visibility:visible"/><path d="m134.006 533.96-15.482-1.188" style="fill:none;stroke:red;stroke-width:.999997;stroke-linecap:round;stroke-linejoin:round;stroke-miterlimit:4;stroke-dasharray:none;stroke-opacity:1;visibility:visible"/><path d="m132.81 507.53.46 5.441" style="fill:none;stroke:red;stroke-width:1.33333;stroke-linecap:round;stroke-linejoin:round;stroke-miterlimit:4;stroke-dasharray:none;stroke-opacity:1;visibility:visible"/><path d="m206.017 553.686-.321 1.576" style="fill:none;stroke:#ffdf00;stroke-width:1.33333;stroke-linecap:round;stroke-linejoin:round;stroke-miterlimit:4;stroke-dasharray:none;stroke-opacity:1;visibility:visible"/></svg>