<svg xmlns="http://www.w3.org/2000/svg" baseProfile="full" height="1122.52" preserveAspectRatio="xMinYMin meet" style="width:729px;height:902px" width="793.701" xml:space="preserve"><path d="M84.456 925.534c.037.65.417 1.236.997 1.544M96.757 907.805l-11.74 4.048M83.736 913.763l.72 11.772M85.018 911.854a1.902 1.902 0 0 0-1.282 1.91M227.186 1013.106a1622.383 1622.383 0 0 0-141.733-86.027M226.826 968.07l-8.44-4.47-14.336-7.405-14.05-7.07-13.755-6.744-13.476-6.419-13.19-6.11-12.921-5.805-12.651-5.506-12.394-5.221-11.499-4.68-2.021-.806M227.186 1013.106l21.96 14.792M263.474 990.228l-.692-.446M274.034 901.582l-8.281 3.04M224.19 919.902a171933.93 171933.93 0 0 0-53.685 19.744M206.071 945.62l18.98-7.128" style="fill:none;stroke:red;stroke-width:1.99999;stroke-linecap:round;stroke-linejoin:round;stroke-miterlimit:500;stroke-dasharray:none;stroke-opacity:1;visibility:visible"/><path d="M98.093 907.834a1.897 1.897 0 0 0-1.336-.03" style="fill:none;stroke:red;stroke-width:.999997;stroke-linecap:round;stroke-linejoin:round;stroke-miterlimit:500;stroke-dasharray:none;stroke-opacity:1;visibility:visible"/><path d="M219.46 865.865a1.8 1.8 0 0 0-1.16.008M206.695 882.663a1.81 1.81 0 0 0 1.056 1.59M218.3 865.873l-10.67 3.677M206.414 871.3l.281 11.364M207.631 869.551a1.812 1.812 0 0 0-1.216 1.75M333.557 949.651c-16.983-9.821-33.687-19.035-51.012-28.234M224.357 892a1284.035 1284.035 0 0 0-16.607-7.744M343.363 914.75l-13.918-6.193-14.505-6.278-14.225-5.974-13.958-5.686-13.683-5.394-7.645-2.918M224.65 867.622l-3.056-1.043-2.133-.714M373.1 972.888l3.575 2.119M353.716 948.24l-89.943 35.98" style="fill:none;stroke:red;stroke-width:1.99999;stroke-linecap:round;stroke-linejoin:round;stroke-miterlimit:500;stroke-dasharray:none;stroke-opacity:1;visibility:visible"/><path d="M283.225 910.798c-.003 0-4.735 13.836-9.56 27.956M267.669 956.302c-.782 2.285-4.782 14.525-5.383 16.286" style="fill:none;stroke:red;stroke-width:.999997;stroke-linecap:round;stroke-linejoin:round;stroke-miterlimit:500;stroke-dasharray:none;stroke-opacity:1;visibility:visible"/><path d="M264.806 928.86s4.565-12.798 4.572-12.798" style="fill:none;stroke:red;stroke-width:1.99999;stroke-linecap:round;stroke-linejoin:round;stroke-miterlimit:500;stroke-dasharray:none;stroke-opacity:1;visibility:visible"/><path d="m284.331 914.505-.013-4.48M269.254 956.411l.019 2.313" style="fill:none;stroke:red;stroke-width:.999997;stroke-linecap:round;stroke-linejoin:round;stroke-miterlimit:500;stroke-dasharray:none;stroke-opacity:1;visibility:visible"/><path d="M269.274 959.524s-6.413 19.571-6.96 21.174M284.331 915.854l-7.256 21.484" style="fill:none;stroke:red;stroke-width:1.6;stroke-linecap:round;stroke-linejoin:round;stroke-miterlimit:500;stroke-dasharray:none;stroke-opacity:1;visibility:visible"/><path d="m281.134 954.471 52.812 1.676" style="fill:none;stroke:red;stroke-width:.999997;stroke-linecap:round;stroke-linejoin:round;stroke-miterlimit:500;stroke-dasharray:none;stroke-opacity:1;visibility:visible"/><path d="m270.08 958.726 50.813 1.617M204.991 956.68l20.26.644M348.974 950.136l-54.55-1.724" style="fill:none;stroke:red;stroke-width:1.99999;stroke-linecap:round;stroke-linejoin:round;stroke-miterlimit:500;stroke-dasharray:none;stroke-opacity:1;visibility:visible"/><path d="m195.208 951.744 29.13.922" style="fill:none;stroke:red;stroke-width:.999997;stroke-linecap:round;stroke-linejoin:round;stroke-miterlimit:500;stroke-dasharray:none;stroke-opacity:1;visibility:visible"/><path d="m223.629 946.174-33.463-1.056" style="fill:none;stroke:red;stroke-width:1.99999;stroke-linecap:round;stroke-linejoin:round;stroke-miterlimit:500;stroke-dasharray:none;stroke-opacity:1;visibility:visible"/><path d="M274.895 901.714a1.013 1.013 0 0 0-.861-.132M274.895 901.714l7.842 4.584M284.331 915.067v-.561M284.32 910.025l-14.81 5.522M284.32 910.025v-.56M185.429 946.88l4.711-1.754M284.32 909.465a3.91 3.91 0 0 0-1.584-3.167" style="fill:none;stroke:red;stroke-width:.999997;stroke-linecap:round;stroke-linejoin:round;stroke-miterlimit:500;stroke-dasharray:none;stroke-opacity:1;visibility:visible"/><path d="M248.653 1026.83a1.15 1.15 0 0 0 1.7 1.11M250.354 1027.939l12.248-5.09M262.6 1022.848a2.835 2.835 0 0 0 1.644-2.485" style="fill:none;stroke:red;stroke-width:1.99999;stroke-linecap:round;stroke-linejoin:round;stroke-miterlimit:500;stroke-dasharray:none;stroke-opacity:1;visibility:visible"/><path d="M263.235 990.126a1.15 1.15 0 0 0-.928.06M249.937 995.16l12.369-4.973M249.937 995.16a2.847 2.847 0 0 0-1.674 2.523M248.263 997.682l.39 29.148" style="fill:none;stroke:red;stroke-width:.999997;stroke-linecap:round;stroke-linejoin:round;stroke-miterlimit:500;stroke-dasharray:none;stroke-opacity:1;visibility:visible"/><path d="m263.999 991.338.244 29.025M264 991.338a1.173 1.173 0 0 0-.767-1.212" style="fill:none;stroke:red;stroke-width:1.99999;stroke-linecap:round;stroke-linejoin:round;stroke-miterlimit:500;stroke-dasharray:none;stroke-opacity:1;visibility:visible"/><path d="m376.243 971.587.261-10.483M354.743 948.386l10.197 5.96M364.94 954.344l11.563 6.76M376.504 961.106l-112.369 46.016M264.226 1017.962l-.09-10.842M226.48 979.856l1.08-.425M89.693 915.08l7.052 2.926 13 5.596 13.292 5.921 13.596 6.257 13.903 6.604 14.216 6.956 14.534 7.32 14.86 7.692 15.195 8.08 15.536 8.469M224.875 980.902l19.08 12.493" style="fill:none;stroke:red;stroke-width:.999997;stroke-linecap:round;stroke-linejoin:round;stroke-miterlimit:500;stroke-dasharray:none;stroke-opacity:1;visibility:visible"/><path d="m375.428 971.98-111.202 45.982" style="fill:none;stroke:red;stroke-width:1.99999;stroke-linecap:round;stroke-linejoin:round;stroke-miterlimit:500;stroke-dasharray:none;stroke-opacity:1;visibility:visible"/><path d="M378.455 943.463a2.787 2.787 0 0 0-1.57 2.383" style="fill:none;stroke:red;stroke-width:.999997;stroke-linecap:round;stroke-linejoin:round;stroke-miterlimit:500;stroke-dasharray:none;stroke-opacity:1;visibility:visible"/><path d="M376.186 973.907a1.025 1.025 0 0 0 1.461 1.115M388.66 970.441l-11.013 4.581M388.66 970.442a2.783 2.783 0 0 0 1.544-2.352M391.018 940.151l-.812 27.941M391.018 940.151l-.019-.331-.077-.3-.128-.245-.184-.193-.22-.126-.258-.056-.272.011-.298.084" style="fill:none;stroke:red;stroke-width:1.99999;stroke-linecap:round;stroke-linejoin:round;stroke-miterlimit:500;stroke-dasharray:none;stroke-opacity:1;visibility:visible"/><path d="m281.711 908.787-15.689 5.839M224.978 929.914l-41.236 15.361M364.723 952.16l.623.251.586.019.508-.222.396-.442.256-.634.104-.784-.065-.877-.22-.915-.373-.888-.483-.796-.575-.657-.617-.47-.623-.252-.58-.011-.51.221-.396.443-.25.634-.098.784.062.876.222.915.364.883.488.794.57.658.61.47M353.747 931.004a1355.069 1355.069 0 0 0-88.586-38.917M223.715 876.403a1275.578 1275.578 0 0 0-12.735-4.512M376.884 945.846l-.697 28.061" style="fill:none;stroke:red;stroke-width:.999997;stroke-linecap:round;stroke-linejoin:round;stroke-miterlimit:500;stroke-dasharray:none;stroke-opacity:1;visibility:visible"/><path d="m272.517 951.64-9.62 3.557" style="fill:none;stroke:red;stroke-width:.666665;stroke-linecap:round;stroke-linejoin:round;stroke-miterlimit:2;stroke-dasharray:none;stroke-opacity:1;visibility:visible"/><path d="m274.26 941.035 1.334-.381M269.474 944.036l-1.341.388M278.82 948.894l1.238 1.584M273.195 949.427l-.954.533M272.407 948.114a20.5 20.5 0 0 1-1.493-.906M272.622 948.071l-.167 1.847M272.24 949.96a22.293 22.293 0 0 1-1.49-.877M269.474 944.036l6.121-3.382M275.595 940.654c.051-.019.096-.036.145-.044a.355.355 0 0 1 .15.04.516.516 0 0 1 .147.093 1.044 1.044 0 0 1 .136.155c.025.034.041.081.067.117M283.803 945.996l-.13.026-.467.048h-.481l-.49-.049-.492-.098-.496-.139-.492-.19-.494-.238-.488-.274-.475-.32-.461-.362-.443-.392-.427-.428-.396-.468-.381-.489-.344-.513-.32-.534-.285-.56M285.835 944.92c-.025-.013-.054-.006-.085.014-.027.006-.06.024-.083.036M273.707 947.803c-.036-.112-.074-.23-.089-.343a1.253 1.253 0 0 1 .07-.68c.041-.11.098-.216.172-.306a1.37 1.37 0 0 1 .565-.424 1.97 1.97 0 0 1 .348-.106 2.85 2.85 0 0 1 .396-.044c.134-.013.285-.005.434.002.148.013.302.033.457.05.175.032.342.068.518.111.173.04.347.084.52.133.181.055.36.115.532.17a13 13 0 0 1 .505.184c.155.062.305.117.445.176.143.062.27.118.394.182.12.047.221.106.321.156a3.387 3.387 0 0 1 .262.156 1.139 1.139 0 0 1 .196.152.63.63 0 0 1 .129.142.279.279 0 0 1 .04.153c.01.05-.01.101-.043.157a.59.59 0 0 1-.138.158 1.344 1.344 0 0 1-.228.178c-.087.056-.188.112-.294.174l-.358.17M272.407 948.114l1.3-.31M270.914 947.21a10.383 10.383 0 0 1-1.57-2.38M269.346 944.83c-.027-.07-.056-.132-.067-.2a.64.64 0 0 1-.013-.204c0-.068.015-.128.039-.184a.397.397 0 0 1 .088-.146c.026-.022.049-.042.082-.06M279.545 948.36l6.122-3.39M287.02 946.38c-.288.262-.728.66-1.07.843M274.32 941.015l-.06.02M268.133 944.424l6.126-3.389M268.133 944.424c-.044.032-.087.063-.12.106a.416.416 0 0 0-.067.152.613.613 0 0 0-.027.192c.001.07.014.142.031.213.012.041.03.087.049.133M270.749 949.083a13.007 13.007 0 0 1-2.75-3.863M272.942 949.575l.036.025.192.13M273.17 949.73l1.919-1.058M275.089 948.672c.061-.032.13-.068.21-.092.076-.024.155-.049.242-.06a1.53 1.53 0 0 1 .279-.036c.094-.004.19-.004.29-.004.108.007.205.014.311.026.106.014.209.026.314.044.112.026.218.046.316.077.106.025.212.05.304.084.098.032.19.069.276.101l.16.068M276.791 951.672a15.246 15.246 0 0 1-1.53-.418M275.426 949.41l-.165 1.844M276.96 949.804a14.353 14.353 0 0 1-1.535-.394M278.82 948.894a4.067 4.067 0 0 1-1.86.91M280 950.363a5.112 5.112 0 0 1-3.21 1.31M279.545 948.36c-.055.024-.095.056-.15.083-.053.04-.108.077-.164.117l-.168.14c-.053.04-.112.082-.157.121-.028.023-.059.047-.085.073M274.32 941.008l1.34-.385M285.84 944.914l1.18 1.468M285.949 947.223l-6.895 3.81" style="fill:none;stroke:red;stroke-width:.999997;stroke-linecap:round;stroke-linejoin:round;stroke-miterlimit:10;stroke-dasharray:none;stroke-opacity:1;visibility:visible"/><path d="m270.365 998.164.018-.144.028-.153.043-.141.068-.136.076-.126.095-.121M270.355 998.335l.01-.172M270.693 997.342l4.754-5.108M270.962 999.458l-.13-.051-.119-.079-.094-.094-.091-.11-.075-.146-.051-.159-.037-.21-.01-.215v-.059M275.449 992.234l.148-.172.137-.196.125-.216.103-.231.076-.232.07-.245.052-.26.03-.26.007-.152M276.195 990.272l.067-1.268M276.262 989.003l.019-.157.022-.148.037-.158.047-.148.058-.14.064-.137.076-.135.078-.116.087-.114.097-.103.107-.088.11-.077.146-.076M285.369 985.678l-7.035 2.745M284.25 984.661l-7.039 2.745M284.25 984.66l.081-.022.091-.026.079-.01.092.008.064.005.068.016M285.757 996.948l.563-10.761M285.757 996.948v.044l-.01.016v.052l-.007.018v.036l-.003.013v.016l-.008.015v.016l-.011.013v.025l-.004.015v.01l-.013.018v.015l-.004.014-.007.016v.022l-.009.013-.007.016-.007.015v.016l-.007.018-.009.011-.006.013-.008.019-.008.015-.01.016-.001.009-.012.019-.006.016-.011.014-.004.015-.006.015-.009.016-.003.014-.011.011-.008.016-.003.016-.019.015-.01.008-.006.014-.004.018-.016.014-.005.016-.012.006-.013.014-.011.016-.003.015-.017.007-.006.016-.018.016-.006.016-.014.004-.007.017-.013.007-.01.014-.014.016-.011.007-.01.015-.019.009-.002.016-.016.005-.017.018-.01.006-.013.016-.011.007-.009.016-.016.008-.013.01-.019.01-.014.008-.004.008-.018.017-.012.004-.014.011-.018.008-.012.008-.017.015-.013.008-.018.005-.005.01-.02.01-.007.005-.017.008-.017.008-.014.007-.015.008-.013.005-.017.01-.021.008-.015.006-.016.011h-.017l-.011.007M285.3 984.778l.008.008h.021l.017.008.019.008.018.004.017.004.023.011.015.006.023.005.012.011.017.005.02.01.016.005.019.003.021.01.013.008.011.014.015.005.024.01.016.016.014.002.015.01.017.016.01.005.026.013.013.01.017.014.013.007.016.012.017.009.008.016.016.01.016.012.019.015.01.012.011.008.012.014.015.013.017.015.015.016.004.014.017.014.015.008.016.016.005.012.015.016.005.012.019.017.015.016.004.02.016.013.01.018.007.014.013.015.008.013.016.015.006.025.006.008.011.016.012.018.008.02.008.016.007.014.01.022.006.016.005.013.01.024.01.012.001.016.008.021.01.018.008.018.005.018v.014l.007.02.008.016v.024l.007.016.01.02v.015l.008.021v.014l.005.022v.016l.008.022v.037l.01.024v.075l.006.01v.122l-.006.013M284.726 984.63l.574.148M270.962 999.458l2.893.782M277.813 1001.02l-.007.01h-.016l-.005.004-.01.001h-.005l-.004.005h-.013l-.016.011h-.011l-.01.005h-.023l-.003.012-.013.002h-.003l-.017.005h-.01l-.007.007h-.019l-.007.001h-.01l-.004.008-.018.001h-.013l-.006.008h-.032l-.006.006h-.051l-.008.008-.01.001h-.024l-.011.001h-.028l-.004.008h-.049l-.013.002h-.024l-.018.001h-.072l-.004-.007h-.032l-.008.002h-.039l-.007-.008h-.033l-.016.001-.01-.007h-.027l-.007-.005H277l-.007-.008-.009.001h-.019l-.012-.006h-.012l-.008-.006-.015.002h-.008l-.005-.014-.011.002M273.855 1000.24l3.036.834M280.697 993.832v.348l.036.329.065.291.093.256.129.219.155.177.186.12.201.07.213.018.226-.04.232-.088.227-.142.22-.192.214-.232.203-.28.177-.299.163-.336.129-.355.099-.356.068-.365.036-.353v-.35l-.03-.318-.068-.296-.104-.266-.12-.216-.157-.168-.18-.133-.2-.07-.212-.013-.223.039-.233.085-.23.148-.226.187-.22.237-.196.268-.179.308-.161.328-.13.352-.101.364-.066.368-.036.356M277.33 1000.004l.553-10.802M348.403 966.662l.019-.146.028-.152.042-.141.068-.136.076-.125.095-.122M348.394 966.832l.01-.172M348.731 965.84l4.755-5.108M349 967.955l-.133-.05-.117-.081-.095-.092-.09-.111-.075-.145-.05-.16-.038-.21-.01-.214v-.06M353.486 960.731l.148-.171.136-.197.126-.215.102-.232.077-.232.07-.244.052-.26.031-.26.006-.15M354.234 958.77l.066-1.268M354.3 957.5l.017-.157.023-.148.036-.157.048-.148.058-.14.064-.138.076-.134.078-.116.087-.115.097-.103.107-.088.11-.076.145-.077M363.406 954.175l-7.036 2.745M362.288 953.158l-7.04 2.746M362.288 953.158l.082-.023.09-.025.08-.01.09.006.065.006.068.016M363.794 965.446l.564-10.762M363.794 965.446v.044l-.01.016v.052l-.008.017v.036l-.002.013v.016l-.01.015v.016l-.009.013v.026l-.004.014v.011l-.013.016v.016l-.004.015-.006.016v.021l-.01.013-.008.016-.007.015v.017l-.007.018-.008.01-.006.014-.008.018-.008.015-.01.016v.01l-.014.017-.004.017-.012.015-.004.014-.006.016-.009.015-.005.015-.01.01-.006.016-.006.016-.017.015-.01.008-.005.015-.005.017-.016.015-.005.016-.012.005-.014.015-.01.016-.003.014-.017.007-.006.016-.018.016-.007.016-.013.005-.008.016-.012.007-.01.015-.014.016-.01.006-.013.015-.015.01-.004.014-.016.007-.017.016-.01.008-.013.016-.01.006-.012.016-.014.008-.013.01-.019.012-.014.006-.004.008-.018.018-.012.004-.014.01-.018.008-.012.008-.017.015-.013.008-.018.005-.006.011-.018.008-.008.007-.017.008-.017.008-.014.006-.016.008-.012.006-.017.01-.021.006-.016.008-.015.01h-.017l-.01.008M363.338 953.275l.01.008h.019l.016.008.021.009.017.003.015.005.026.012.014.003.022.007.012.01.018.006.02.01.016.004.018.003.021.01.015.01.01.012.014.005.025.011.016.015.015.002.014.012.018.014.01.005.023.013.015.011.017.012.013.008.016.012.018.01.008.015.016.011.016.01.018.018.011.011.01.006.012.015.015.013.018.016.014.015.004.015.018.013.014.008.016.016.004.013.016.015.006.013.018.016.015.016.004.02.016.014.01.016.007.016.014.014.008.014.014.014.007.026.007.008.01.016.01.017.012.02.007.016.006.015.01.021.007.016.004.013.011.024.008.012.003.016.008.022.01.017.006.019.006.017v.015l.007.02.008.016v.024l.009.016.01.02v.014l.005.022v.013l.007.023v.016l.008.021v.037l.01.024v.076l.005.01v.122l-.006.012M362.763 953.127l.575.148M349 967.955l2.89.783M355.848 969.518l-.006.01h-.016l-.006.003-.009.001h-.007l-.002.006h-.014l-.016.01h-.01l-.01.006h-.022l-.006.012-.012.001h-.002l-.018.005h-.009l-.008.008h-.035l-.005.008-.017.002h-.014l-.006.006h-.03l-.008.007h-.05l-.008.008-.01.001h-.025l-.01.002h-.03l-.003.008h-.048l-.013.001h-.023l-.02.001h-.073l-.003-.006h-.032l-.008.001h-.037l-.007-.008h-.036l-.014.001-.01-.006h-.027l-.007-.006h-.03l-.006-.008-.01.002H355l-.01-.007h-.015l-.007-.005-.014.001h-.008l-.006-.013h-.01M351.892 968.738l3.038.832M358.735 962.331v.347l.036.33.065.29.094.257.128.219.156.176.185.121.201.07.214.017.224-.04.232-.088.23-.142.22-.192.211-.232.204-.28.177-.298.163-.336.128-.355.1-.357.067-.364.037-.354v-.349l-.03-.319-.067-.296-.104-.265-.12-.216-.159-.168-.177-.133-.202-.07-.212-.014-.222.04-.234.085-.229.148-.228.187-.219.237-.196.268-.178.308-.162.328-.128.352-.104.364-.065.368-.036.356M355.367 968.502l.553-10.803" style="fill:none;stroke:red;stroke-width:.999997;stroke-linecap:round;stroke-linejoin:round;stroke-miterlimit:4;stroke-dasharray:none;stroke-opacity:1;visibility:visible"/><path d="m281.711 908.787-15.958-4.165M190.14 945.126l15.931.494M282.737 906.298l-.192 15.119M210.98 871.891l13.67-4.269M376.503 961.104l-3.403 11.784M355.248 955.904l-1.532-7.664M262.306 990.187l1.467-5.967" style="fill:none;stroke:red;stroke-width:1.99999;stroke-linecap:round;stroke-linejoin:round;stroke-miterlimit:500;stroke-dasharray:none;stroke-opacity:1;visibility:visible"/><path d="m267.669 956.302 5.996-17.548M273.665 938.754l-5.996 17.548" style="fill:none;stroke:red;stroke-width:.999997;stroke-linecap:round;stroke-linejoin:round;stroke-miterlimit:500;stroke-dasharray:none;stroke-opacity:1;visibility:visible"/><path d="m224.338 952.666-19.347 4.014" style="fill:none;stroke:red;stroke-width:1.99999;stroke-linecap:round;stroke-linejoin:round;stroke-miterlimit:500;stroke-dasharray:none;stroke-opacity:1;visibility:visible"/><path d="m204.991 956.68 19.347-4.014M353.747 931.004l.996 17.382M98.093 907.834l-8.4 7.246M262.782 989.782l-18.827 3.613M274.034 901.582l7.677 7.205M274.034 901.582l-8.012 13.044M190.14 945.126l-6.398.149M363.338 953.275l1.384-1.115M354.743 948.386l-.996-17.382M219.461 865.865l4.254 10.538M219.46 865.865l-8.48 6.026" style="fill:none;stroke:red;stroke-width:.999997;stroke-linecap:round;stroke-linejoin:round;stroke-miterlimit:500;stroke-dasharray:none;stroke-opacity:1;visibility:visible"/><path d="m268.133 944.424 4.384 7.216M269.474 944.036l-6.577 11.161" style="fill:none;stroke:red;stroke-width:.666665;stroke-linecap:round;stroke-linejoin:round;stroke-miterlimit:2;stroke-dasharray:none;stroke-opacity:1;visibility:visible"/><path d="m276.96 949.804 6.843-3.808M275.261 951.254l2.53-2.374M275.089 948.672l3.965 2.361" style="fill:none;stroke:red;stroke-width:.999997;stroke-linecap:round;stroke-linejoin:round;stroke-miterlimit:10;stroke-dasharray:none;stroke-opacity:1;visibility:visible"/><path d="m277.21 987.406 7.62 10.816M276.195 990.272l4.502 3.56M277.883 989.202l2.814 4.63M280.697 993.832l-3.367 6.172M354.234 958.77l4.501 3.561M355.92 957.699l2.815 4.632M358.735 962.331l-3.368 6.171" style="fill:none;stroke:red;stroke-width:.999997;stroke-linecap:round;stroke-linejoin:round;stroke-miterlimit:4;stroke-dasharray:none;stroke-opacity:1;visibility:visible"/><path d="m251.19 838.716 10.956-3.611M251.19 838.717l.256 155.2M251.447 993.916l10.591-4.008" style="fill:none;stroke:#00ff4a;stroke-width:.999997;stroke-linecap:round;stroke-linejoin:round;stroke-miterlimit:500;stroke-dasharray:none;stroke-opacity:1;visibility:visible" visibility="hidden"/><path d="m228.969 979.416-1.13-152.865M262.146 835.103l-.108 154.805" style="fill:none;stroke:#00ff4a;stroke-width:1.99999;stroke-linecap:round;stroke-linejoin:round;stroke-miterlimit:500;stroke-dasharray:none;stroke-opacity:1;visibility:visible" visibility="hidden"/><path d="m249.682 835.135.616.24.747.143.825.056.83-.054.754-.146.609-.234.417-.3.182-.339-.061-.341-.306-.319-.518-.271-.687-.192-.795-.104h-.833l-.795.104-.692.19-.52.271-.304.318-.066.342.181.335.416.301M241.92 831.793l.714.29.879.199.967.1 1.007-.008.964-.113.86-.211.695-.298.484-.363.248-.399-.016-.412-.275-.395-.513-.353-.723-.287-.874-.2-.967-.097-.999.01-.967.11-.854.212-.699.296-.488.357-.245.402.013.41.274.397.514.353M251.447 993.916l-22.477-14.5M227.84 826.551l23.35 12.166" style="fill:none;stroke:#00ff4a;stroke-width:.999997;stroke-linecap:round;stroke-linejoin:round;stroke-miterlimit:500;stroke-dasharray:none;stroke-opacity:1;visibility:visible" visibility="hidden"/><path d="m238.754 823.018 23.392 12.085M227.84 826.551l10.913-3.531" style="fill:none;stroke:#00ff4a;stroke-width:1.99999;stroke-linecap:round;stroke-linejoin:round;stroke-miterlimit:500;stroke-dasharray:none;stroke-opacity:1;visibility:visible" visibility="hidden"/><path d="m235.84 827.94.604.234.746.149.821.049.815-.049.755-.149.609-.231.416-.293.19-.335-.055-.337-.299-.315-.515-.266-.677-.19-.795-.102h-.825l-.795.1-.685.19-.52.265-.311.315-.066.338.177.332.41.295" style="fill:none;stroke:#00ff4a;stroke-width:.999997;stroke-linecap:round;stroke-linejoin:round;stroke-miterlimit:500;stroke-dasharray:none;stroke-opacity:1;visibility:visible" visibility="hidden"/><path d="m262.45 968.072-.383 10.555" style="fill:none;stroke:#00ff4a;stroke-width:.666665;stroke-linecap:round;stroke-linejoin:round;stroke-miterlimit:10;stroke-dasharray:none;stroke-opacity:1;visibility:visible" visibility="hidden"/><path d="m255.33 913.03.112-.743.287-.746.431-.701.545-.574.609-.413.612-.21.565.018.472.239.328.437.164.598-.018.708-.2.752-.359.726-.496.645-.576.507-.616.306-.6.101-.525-.129-.405-.341-.254-.521-.076-.66" style="fill:none;stroke:#00ff4a;stroke-width:.999997;stroke-linecap:round;stroke-linejoin:round;stroke-miterlimit:500;stroke-dasharray:none;stroke-opacity:1;visibility:visible" visibility="hidden"/><path d="m390.499 939.008-2.083-1.184" style="fill:none;stroke:#9500ff;stroke-width:1.99999;stroke-linecap:round;stroke-linejoin:round;stroke-miterlimit:500;stroke-dasharray:none;stroke-opacity:1;visibility:visible" visibility="hidden"/><path d="m395.211 868.693.792-.294M389.562 938.995l-11.107 4.47" style="fill:none;stroke:#9500ff;stroke-width:.999997;stroke-linecap:round;stroke-linejoin:round;stroke-miterlimit:500;stroke-dasharray:none;stroke-opacity:1;visibility:visible" visibility="hidden"/><path d="M394.359 816.877a1.659 1.659 0 0 0 1.088 1.61" style="fill:none;stroke:#9500ff;stroke-width:1.99999;stroke-linecap:round;stroke-linejoin:round;stroke-miterlimit:500;stroke-dasharray:none;stroke-opacity:1;visibility:visible" visibility="hidden"/><path d="m391.91 788.905-10.122 3.337" style="fill:none;stroke:#9500ff;stroke-width:.999997;stroke-linecap:round;stroke-linejoin:round;stroke-miterlimit:500;stroke-dasharray:none;stroke-opacity:1;visibility:visible" visibility="hidden"/><path d="m391.91 788.905-4.044 150.305" style="fill:none;stroke:#9500ff;stroke-width:1.99999;stroke-linecap:round;stroke-linejoin:round;stroke-miterlimit:500;stroke-dasharray:none;stroke-opacity:1;visibility:visible" visibility="hidden"/><path d="m383.995 787.6.43.277.219.307-.024.32-.258.296-.47.25-.642.18-.76.093-.798-.001-.77-.095-.683-.182-.532-.25-.33-.297-.092-.317.147-.312.368-.275.56-.214.703-.138.781-.046.802.046.733.14.616.219M377.684 784.014l.536.328.307.368.061.38-.185.37-.432.334-.637.275-.806.195-.91.108-.959.004-.948-.094-.861-.185-.722-.265-.53-.332-.302-.363-.066-.383.197-.37.428-.33.635-.276.805-.194.912-.104.953-.007.951.092.857.187.716.262M381.79 792.242l-3.732 150.684" style="fill:none;stroke:#9500ff;stroke-width:.999997;stroke-linecap:round;stroke-linejoin:round;stroke-miterlimit:500;stroke-dasharray:none;stroke-opacity:1;visibility:visible" visibility="hidden"/><path d="m368.132 777.701 23.778 11.204M368.132 777.7l-10.09 3.267" style="fill:none;stroke:#9500ff;stroke-width:1.99999;stroke-linecap:round;stroke-linejoin:round;stroke-miterlimit:500;stroke-dasharray:none;stroke-opacity:1;visibility:visible" visibility="hidden"/><path d="m369.916 780.948.422.272.208.309-.024.31-.263.295-.469.246-.644.174-.752.096-.792-.004-.77-.094-.681-.178-.519-.244-.316-.294-.093-.314.147-.308.372-.272.561-.212.704-.138.777-.044.794.048.732.137.606.215M358.042 780.966l23.748 11.276" style="fill:none;stroke:#9500ff;stroke-width:.999997;stroke-linecap:round;stroke-linejoin:round;stroke-miterlimit:500;stroke-dasharray:none;stroke-opacity:1;visibility:visible" visibility="hidden"/><path d="m369.44 805.035 1.025.61.997.822.941 1.015.861 1.18.764 1.319.654 1.419.508 1.495.365 1.525.21 1.52.046 1.474M375.814 817.414l-.366 15.248" style="fill:none;stroke:#9500ff;stroke-width:1.99999;stroke-linecap:round;stroke-linejoin:round;stroke-miterlimit:500;stroke-dasharray:none;stroke-opacity:1;visibility:visible" visibility="hidden"/><path d="m370.162 838.97-.44-.07-1.02-.396-1.022-.618-.99-.828-.93-1.013-.849-1.175-.757-1.308-.642-1.41-.5-1.479-.369-1.505-.207-1.501-.054-1.461M362.382 826.207l.321-15.18M362.703 811.027l.113-1.39.267-1.28.417-1.137.556-.966.691-.77.8-.559.893-.327.963-.093 1.01.15 1.027.379" style="fill:none;stroke:#9500ff;stroke-width:.999997;stroke-linecap:round;stroke-linejoin:round;stroke-miterlimit:500;stroke-dasharray:none;stroke-opacity:1;visibility:visible" visibility="hidden"/><path d="m369.127 919.86.715-.025.874-.255.786-.485.682-.697.556-.898.415-1.063.27-1.218.109-1.333M375.448 832.662l-.11 1.384-.275 1.27-.421 1.128-.563.947-.697.752-.798.54-.897.308-.957.075-.568-.096" style="fill:none;stroke:#9500ff;stroke-width:1.99999;stroke-linecap:round;stroke-linejoin:round;stroke-miterlimit:500;stroke-dasharray:none;stroke-opacity:1;visibility:visible" visibility="hidden"/><path d="m360.708 907.08.048 1.415.207 1.458.363 1.473.488 1.45.63 1.389M366.502 918.98l.402.257 1.01.431.982.199.232-.009" style="fill:none;stroke:#9500ff;stroke-width:.999997;stroke-linecap:round;stroke-linejoin:round;stroke-miterlimit:500;stroke-dasharray:none;stroke-opacity:1;visibility:visible" visibility="hidden"/><path d="m373.535 913.886.348-14.719" style="fill:none;stroke:#9500ff;stroke-width:1.99999;stroke-linecap:round;stroke-linejoin:round;stroke-miterlimit:500;stroke-dasharray:none;stroke-opacity:1;visibility:visible" visibility="hidden"/><path d="m366.616 886.515-.988-.188-.948.05-.873.277-.783.504-.678.715-.55.909-.411 1.08-.263 1.227-.108 1.338" style="fill:none;stroke:#9500ff;stroke-width:.999997;stroke-linecap:round;stroke-linejoin:round;stroke-miterlimit:500;stroke-dasharray:none;stroke-opacity:1;visibility:visible" visibility="hidden"/><path d="m373.883 899.166-.043-1.427-.208-1.478-.36-1.488-.508-1.464-.63-1.402-.75-1.31-.85-1.179-.923-1.018-.977-.835-1.004-.635-1.014-.415" style="fill:none;stroke:#9500ff;stroke-width:1.99999;stroke-linecap:round;stroke-linejoin:round;stroke-miterlimit:500;stroke-dasharray:none;stroke-opacity:1;visibility:visible" visibility="hidden"/><path d="m361.012 892.427-.305 14.655" style="fill:none;stroke:#9500ff;stroke-width:.999997;stroke-linecap:round;stroke-linejoin:round;stroke-miterlimit:500;stroke-dasharray:none;stroke-opacity:1;visibility:visible" visibility="hidden"/><path d="m355.103 930.48.039-1.956M355.446 913.078l2.596-132.112" style="fill:none;stroke:#9500ff;stroke-width:1.99999;stroke-linecap:round;stroke-linejoin:round;stroke-miterlimit:500;stroke-dasharray:none;stroke-opacity:1;visibility:visible" visibility="hidden"/><path d="m371.238 918.507-.11.026-1.198.082-1.068-.162-.776-.407-.436-.579-.087-.694.308-.708.296-.238M369.41 889.403l-.206 9.15M369.48 888.34l-.07 1.062M370.895 823.325a15.027 15.027 0 0 0 4.339 10.848M370.895 823.325l.343-15.147M371.238 808.177l.116-1.388.042-.296M378.058 942.926l-22.955-12.444" style="fill:none;stroke:#9500ff;stroke-width:.999997;stroke-linecap:round;stroke-linejoin:round;stroke-miterlimit:500;stroke-dasharray:none;stroke-opacity:1;visibility:visible" visibility="hidden"/><path d="M372.627 906.63a2.4 2.4 0 0 0 .961-.568M373.66 902.235a.585.585 0 0 0 .018-.825M373.678 901.41a2.428 2.428 0 0 0-.938-.607M372.74 900.803a6.565 6.565 0 0 0-4.14-.078M368.6 900.725a2.441 2.441 0 0 0-.962.568M367.64 901.294a.59.59 0 0 0-.017.828M367.624 902.12c.262.27.583.479.938.604M368.562 902.723a6.484 6.484 0 0 0 2.064.377 6.621 6.621 0 0 0 2.074-.297M372.7 902.803a2.39 2.39 0 0 0 .96-.568M369.04 906.65l-.21 11.02M373.84 901.827l-.075 3.827M367.46 901.703l-.073 3.827M373.588 906.062a.576.576 0 0 0 .178-.41M367.388 905.53a.592.592 0 0 0 .162.417M367.55 905.947c.264.27.584.479.94.606" style="fill:none;stroke:#9500ff;stroke-width:.866664;stroke-linecap:round;stroke-linejoin:round;stroke-miterlimit:2;stroke-dasharray:none;stroke-opacity:1;visibility:visible" visibility="hidden"/><path d="M368.49 906.553a6.541 6.541 0 0 0 4.138.077" style="fill:none;stroke:#9500ff;stroke-width:.866664;stroke-linecap:round;stroke-linejoin:round;stroke-miterlimit:2;stroke-dasharray:none;stroke-opacity:1;visibility:visible" visibility="hidden"/><path d="m383.376 863.569.111-.743.287-.747.433-.699.544-.575.61-.415.61-.208.567.017.472.241.328.435.164.599-.019.708-.2.752-.36.725-.495.646-.576.505-.616.308-.601.1-.525-.128-.403-.341-.256-.522-.075-.657" style="fill:none;stroke:#9500ff;stroke-width:.999997;stroke-linecap:round;stroke-linejoin:round;stroke-miterlimit:500;stroke-dasharray:none;stroke-opacity:1;visibility:visible" visibility="hidden"/><path d="m378.058 942.926 10.358-5.102M375.811 817.414l18.548-.537M355.446 913.078l-.304 15.446M360.708 907.08l-5.262 5.998" style="fill:none;stroke:#9500ff;stroke-width:1.99999;stroke-linecap:round;stroke-linejoin:round;stroke-miterlimit:500;stroke-dasharray:none;stroke-opacity:1;visibility:visible" visibility="hidden"/><path d="m372.627 906.63-1.389 11.877M373.588 906.062l-5.421 9.765M367.46 901.703l1.744-3.15M361.014 892.427l8.466-4.087M362.703 811.027l8.693-4.534" style="fill:none;stroke:#9500ff;stroke-width:.999997;stroke-linecap:round;stroke-linejoin:round;stroke-miterlimit:500;stroke-dasharray:none;stroke-opacity:1;visibility:visible" visibility="hidden"/><path d="m373.534 913.886-4.704 3.784" style="fill:none;stroke:#9500ff;stroke-width:.866664;stroke-linecap:round;stroke-linejoin:round;stroke-miterlimit:2;stroke-dasharray:none;stroke-opacity:1;visibility:visible" visibility="hidden"/><path d="m228.97 979.416-2.144-11.346M355.103 930.482l-11.74-15.732M273.665 938.754l-8.859-9.894" style="fill:none;stroke:red;stroke-width:1.99999;stroke-linecap:round;stroke-linejoin:round;stroke-miterlimit:500;stroke-dasharray:none;stroke-opacity:1;visibility:visible"/><path d="m273.665 938.754 3.41-1.416" style="fill:none;stroke:red;stroke-width:1.6;stroke-linecap:round;stroke-linejoin:round;stroke-miterlimit:500;stroke-dasharray:none;stroke-opacity:1;visibility:visible"/><path d="m190.14 945.126 5.068 6.618" style="fill:none;stroke:red;stroke-width:.999997;stroke-linecap:round;stroke-linejoin:round;stroke-miterlimit:500;stroke-dasharray:none;stroke-opacity:1;visibility:visible"/><path d="m364.722 952.16-1.854 14.56" style="fill:none;stroke:red;stroke-width:.999997;stroke-linecap:round;stroke-linejoin:round;stroke-miterlimit:4;stroke-dasharray:none;stroke-opacity:1;visibility:visible"/><path d="m269.273 958.724-6.823 9.348M263.999 991.338l-1.932-12.711" style="fill:none;stroke:#00ff4a;stroke-width:.666665;stroke-linecap:round;stroke-linejoin:round;stroke-miterlimit:10;stroke-dasharray:none;stroke-opacity:1;visibility:visible" visibility="hidden"/><path d="m264.806 928.86-9.476-15.831" style="fill:none;stroke:#00ff4a;stroke-width:.999997;stroke-linecap:round;stroke-linejoin:round;stroke-miterlimit:500;stroke-dasharray:none;stroke-opacity:1;visibility:visible" visibility="hidden"/><path d="m391.018 940.151-3.152-.941" style="fill:none;stroke:#9500ff;stroke-width:1.99999;stroke-linecap:round;stroke-linejoin:round;stroke-miterlimit:500;stroke-dasharray:none;stroke-opacity:1;visibility:visible" visibility="hidden"/></svg>