<svg xmlns="http://www.w3.org/2000/svg" baseProfile="full" height="1122.52" preserveAspectRatio="xMinYMin meet" style="width:912px;height:1303px" width="793.701" xml:space="preserve"><path d="m457.386 327.069-.016.01-.014.034-.021.062" style="fill:none;stroke:red;stroke-width:1.99999;stroke-linecap:round;stroke-linejoin:round;stroke-miterlimit:4;stroke-dasharray:none;stroke-opacity:1;visibility:visible" visibility="hidden"/><path d="m273.14 220.489 42.248 60.901M312.62 260.109l-38.233-53.62M303.36 295.085l-2.877 2.013M309.906 306.97l-2.504.699M303.36 295.085l-18.26-56.92M306.7 308.103l.7-.433M323.35 357.389l-15.95-49.722M469.38 294.489l.005.005M456.127 296.94l-.007-.026v-.021M456.119 296.891l-.01.009-.014.002M463.826 298.998l.098-.161.062-.164.016-.17-.027-.173-.065-.173-.111-.159-.144-.153-.173-.142-.218-.123-.234-.107-.26-.084-.274-.06-.286-.039-.29-.013-.285.013-.279.03-.265.064-.245.086-.22.101-.194.122-.156.141-.121.153-.083.163-.036.169v.167l.044.171.086.172M463.344 294.96l-7.144 2.085M465.759 297.098l-1.772-1.956M463.687 294.66l.196-4.368M469.565 294.96l-.025.11-.055.113-.089.1-.116.09-.14.073-.164.064M460.764 302.223l-.204.044-.218.024-.222-.008-.218-.029-.212-.057-.184-.078-.16-.101-.126-.115" style="fill:none;stroke:red;stroke-width:.999997;stroke-linecap:round;stroke-linejoin:round;stroke-miterlimit:4;stroke-dasharray:none;stroke-opacity:1;visibility:visible" visibility="hidden"/><path d="m463.506 300.835-.264.25-.286.23-.294.202-.312.173-.32.145-.32.112-.946.276M468.36 295.847l-4.856 4.987M468.36 295.847l.11-.097.12-.091.13-.065.13-.052M468.85 295.542l.127-.032M315.491 343.989l-.04.005-.045.01M315.405 344.003l.05.115.01.12-.029.12-.071.12-.103.107M315.617 345.149l.08-.195.041-.196M315.813 344.993l-.047.136-.079.129M315.717 344.694l-.097.128-.134.125M317.76 301.153l-27.322 17.182" style="fill:none;stroke:red;stroke-width:.999997;stroke-linecap:round;stroke-linejoin:round;stroke-miterlimit:4;stroke-dasharray:none;stroke-opacity:1;visibility:visible" visibility="hidden"/><path d="m298.126 167.136 2.07 11.864 1.986 11.674 1.888 11.492 1.81 11.308 1.72 11.136 1.645 10.97 1.56 10.8 1.491 10.638 1.409 10.482 1.337 10.33 1.264 10.185 1.194 10.035 1.13 9.897 1.06 9.763.996 9.628.93 9.497.869 9.37.811 9.25.748 9.126.696 9.008.635 8.894.58 8.781" style="fill:none;stroke:red;stroke-width:1.99999;stroke-linecap:round;stroke-linejoin:round;stroke-miterlimit:4;stroke-dasharray:none;stroke-opacity:1;visibility:visible" visibility="hidden"/><path d="m239.631 94.999 4.692 5.778M325.22 381.88l-43.67-71.207M308.931 337.96l-.166-.223-.208-.196-.251-.188-.286-.156-.32-.134-.35-.101-.368-.072-.387-.045-.394-.015-.395.015-.401.045-.391.083-.368.112-.356.134-.324.161-.3.183-.261.204-.22.22-.173.236-.135.247-.082.243-.034.257.019.25.066.24.12.233.16.222.21.203.248.18.293.161.32.136.343.102.37.077.39.045.397.015.403-.02.4-.05.39-.079.375-.115.355-.13.327-.166.298-.187.26-.202.217-.22.178-.236.127-.246.08-.25.033-.249-.019-.25-.071-.245-.12-.23M316.291 349.669l-.17-.224-.215-.211-.253-.185-.295-.164-.328-.136-.355-.109-.374-.075-.395-.05-.4-.015-.406.018-.402.052-.398.083-.374.112-.36.138-.33.168-.299.194-.265.209-.221.223-.18.248-.13.249-.081.261-.028.258.018.257.07.253.123.24.169.227.216.21.253.188.294.166.33.139.358.106.374.082.393.049.408.01.402-.014.406-.056.4-.081.381-.115.359-.14.33-.17.301-.189.26-.217.22-.23.18-.238.126-.256.08-.255.028-.261-.025-.26-.07-.25-.124-.239M295.093 317.025l.009.015-4.653 1.307-6.152-9.924M323.86 171.629l.315-.136.291-.161.254-.17.22-.184.179-.19.132-.2.083-.199.032-.192-.016-.188M304.426 174.902l.167.162.214.133.266.116.305.087.34.054.364.019.378-.003.386-.042.381-.07.375-.1M325.813 390.822l.024.152.045.15.075.14M307.6 175.26l16.26-3.63M335.76 427.264l-1.484-26.07M308.298 179.393l1.322 7.856 1.93 11.792 1.84 11.601 1.757 11.416 1.67 11.24 1.589 11.066 1.51 10.894 1.436 10.735 1.359 10.57 1.282 10.415 1.214 10.26 1.139 10.12 1.076 9.97 1.01 9.83.941 9.695.878 9.565.822 9.435.754 9.304.7 9.188.639 9.062.58 8.95.53 8.838M327.595 417.212l-1.638-25.948M304.426 174.902l-6.299-7.768" style="fill:none;stroke:red;stroke-width:.999997;stroke-linecap:round;stroke-linejoin:round;stroke-miterlimit:4;stroke-dasharray:none;stroke-opacity:1;visibility:visible" visibility="hidden"/><path d="m239.631 94.999 2.236 10.809 2.155 10.662 2.075 10.512 2 10.371 1.918 10.233 1.852 10.098 1.77 9.965 1.705 9.833 1.63 9.708 1.565 9.584 1.501 9.464 1.43 9.347 1.366 9.228 1.307 9.12 1.245 9.01 1.187 8.903 1.125 8.793 1.068 8.695 1.01 8.59.958 8.493.903 8.401.85 8.305" style="fill:none;stroke:red;stroke-width:1.99999;stroke-linecap:round;stroke-linejoin:round;stroke-miterlimit:4;stroke-dasharray:none;stroke-opacity:1;visibility:visible" visibility="hidden"/><path d="m299.595 319.79.295-.248.272-.268.238-.287.207-.297.17-.312.133-.32.091-.32.049-.32.012-.31-.036-.306-.076-.285-.119-.268-.156-.246-.19-.221-.229-.188-.254-.161-.292-.13-.31-.092-.328-.054-.346-.018-.356.018-.364.053M307.877 320.197l.563 7.693M281.55 335.598l-2.353-24.75M247.64 104.205l1.566 7.73 2.129 10.762 2.052 10.617 1.971 10.47 1.895 10.325 1.813 10.191 1.75 10.047 1.672 9.921 1.605 9.792 1.534 9.664 1.47 9.54 1.4 9.421 1.338 9.305 1.276 9.184 1.216 9.08 1.15 8.967 1.096 8.858 1.036 8.756.977 8.648.925 8.558.871 8.453.816 8.353M246.991 101.016l14.386-2.7M274.937 327.733l-2.451-24.61M353.995 308.309l.52-.355.5-.384.476-.404.456-.437.423-.451.394-.47.367-.488.336-.5.293-.51.262-.528.224-.523.184-.529.146-.533.106-.528.06-.519.022-.516-.018-.51-.064-.489-.102-.482-.144-.459-.185-.44-.221-.417-.266-.392-.294-.366-.335-.336-.37-.303-.401-.274-.424-.243-.458-.21-.48-.17-.507-.128-.525-.095-.54-.06-.56-.017-.57.022-.574.054M402.931 294.922l-.55.14-.547.101-.543.068-.53.027-.526-.005-.509-.044-.494-.082-.477-.114-.456-.156-.43-.19-.402-.22-.383-.255-.348-.286-.321-.32-.285-.344-.25-.375-.214-.396-.18-.424-.14-.44-.102-.467-.062-.473-.02-.496.013-.504.057-.51.099-.519.128-.521.176-.523.21-.527.247-.516.284-.509.314-.5.346-.49.379-.47.407-.459.433-.437.455-.411.476-.385.5-.367.514-.336.526-.304.538-.277.547-.244.555-.205.554-.175M415.812 277.4l.55-.138.544-.095.542-.065.528-.017.516.01.504.046.487.091.468.127.445.158.42.196.395.226.369.266.337.288.305.326.274.348.236.375.2.401.164.427.13.444.091.46.049.476.017.489-.033.499-.063.51-.1.515-.145.514-.175.516-.215.516-.25.51-.282.501-.313.494-.347.479-.374.461-.4.45-.423.431-.451.406-.47.377-.484.359-.508.33-.514.3-.524.271-.534.24-.546.205-.541.175-12.759 3.625M402.92 280.983l12.891-3.583M441.79 266.003l-90.822 25.1M309.835 326.33l.055.755M262.765 97.004l.012.145-.032.155-.079.156-.125.159-.171.156-.204.153-.235.141-.269.128-.285.116M272.486 303.123l-.065-.14-.031-.139M246.991 101.016l-.325.073-.33.063-.335.033-.326.01-.305-.015-.285-.036-.25-.057-.218-.087-.17-.1-.125-.12" style="fill:none;stroke:red;stroke-width:.999997;stroke-linecap:round;stroke-linejoin:round;stroke-miterlimit:4;stroke-dasharray:none;stroke-opacity:1;visibility:visible" visibility="hidden"/><path d="m299.357 315.205-.087.114-.1.096-.105.068-.106.044-.109.033-.108.011-.112-.001-.104-.027-.11-.049-.101-.07-.097-.106-.072-.128M454.396 273.88l-.03.304-.069.311-.106.313-.141.311-.17.301-.205.292-.228.277-.261.26-.274.234-.296.211-.31.186-.314.147-.322.115-.324.088-.316.045-.31.007-.297-.028-.272-.064-.255-.103-.23-.133-.206-.163-.17-.204-.14-.224-.103-.243-.065-.273-.026-.287.01-.3.046-.306.083-.314.125-.31.156-.312.19-.297.22-.292.246-.263.264-.25.29-.228.304-.194.316-.172.32-.132.321-.095.323-.068.31-.022.308.01.284.043.263.084.247.123.214.15.19.183.15.21.12.241.086.26.044.28.01.289M471.015 201.142l-.603 8.118-.567 8.018-.529 7.927-.49 7.823-.451 7.737-.415 7.639-.378 7.55M474.85 58.25l-2.024 10.572-1.959 10.454-1.9 10.323-1.84 10.205-1.777 10.086-1.714 9.958-1.66 9.85-1.596 9.73-1.545 9.616-1.485 9.5-1.43 9.385-1.373 9.276-1.327 9.164-1.264 9.055-1.22 8.945-1.164 8.841-1.116 8.73-1.066 8.629-1.012 8.527-.966 8.418-.921 8.321-.875 8.22-.738 25.281M485.841 53.539l-11.856 2.21M467.11 51.004l6.876 4.745M462.506 162.653l62.9 55.612M520.296 243.944l-53.11 24.794M492.232 243.629l-4.98 2.49M498.515 254.514l-2.13.588M492.232 243.629l-20.21-55.795M493.33 256.533l3.056-1.43M510.92 295.233l-14.535-40.13M510.856 341.738l-145.105 46.341M352.686 300.743l.35-.44.33-.456.294-.462.264-.478.236-.477.2-.491.17-.492.134-.487.1-.49.066-.487.03-.48M421.072 277.853l.16.245.154.25.152.259.132.255.13.272.115.281.107.28.085.277.059.255.04.251.027.242v.223l-.017.215-.03.21-.054.196-.076.174-.08.152-.09.127-.106.117-.114.09-.116.073-.124.051-.13.042-.134.012-.14-.002-.136-.026-.14-.044-.13-.07-.13-.092-.114-.105-.116-.12-.104-.145-.106-.17-.096-.193-.083-.215-.08-.23-.067-.241-.054-.25-.05-.257-.04-.252-.034-.293-.027-.307-.025-.303-.014-.305-.01-.292-.009-.285v-.527M419.456 277.678v-.084l.004-.077v-.139l.007-.07.003-.081M419.08 277.158l-.02.5-.056.51-.1.518-.129.511-.175.523-.205.513-.244.51-.281.507-.31.493-.34.48-.371.467-.399.449-.423.431-.447.408-.47.385-.484.358-.5.333-.519.299-.527.272-.534.238-.546.207-.545.168M411.456 286.238l-12.68 3.57M398.776 289.809l-.534.136-.536.098-.531.067-.52.029-.51-.005-.499-.039-.483-.08M512.35 341.205l.178.164.212.149.247.132.265.11.29.077.292.056.302.025h.299l.285-.033.27-.063M561.725 118.525l-.294.003-.321-.019-.334-.046-.341-.06-.345-.073-.33-.097-.31-.11-.288-.119-.257-.128-.214-.137M549.75 111.517l-.142-.114-.113-.11-.075-.11-.035-.097.005-.103M575.681 115.136l-.045.114-.096.105-.139.09-.181.075-.22.06-.255.04M560.475 123.564l-1.645 6.633-2.817 11.523-2.733 11.36-2.65 11.202-2.58 11.055-2.5 10.907-2.42 10.754-2.355 10.61-2.274 10.464-2.206 10.328-2.135 10.18-2.069 10.044-1.996 9.909-1.93 9.77-1.87 9.64-1.8 9.503-1.735 9.384-1.676 9.24-1.615 9.127-1.549 9-1.496 8.873-1.433 8.751-2.318 26.742M574.745 115.619l-13.02 2.905M512.35 341.205l-7.233-7.912-.045.581M558.69 117.739l-8.94-6.222M456.55 262.282l50.86 54.048M493.42 297.103l.21.195.245.18.286.163.309.137.335.115.356.096.364.065.375.041.38.015.37-.015.36-.045.35-.071.324-.101.297-.118.27-.14.229-.165.191-.18.149-.202.104-.204.061-.216.01-.219-.036-.224-.079-.22-.125-.211-.17-.207-.217-.193-.243-.179-.28-.16-.31-.137-.335-.12-.356-.089-.363-.07-.374-.036-.377-.015-.37.014-.36.048-.345.07-.32.093-.299.122-.265.145-.235.158-.192.18-.148.195-.112.205-.059.215-.015.222.035.223.08.222.126.215.169.203M483.89 287.042l.204.19.241.176.275.155.306.132.33.118.344.09.36.065.37.041.371.008.369-.014.355-.04.345-.073.321-.093.295-.114.264-.14.23-.161.19-.172.15-.193.11-.199.061-.21.014-.218-.029-.212-.081-.21-.118-.209-.167-.201-.204-.185-.246-.178-.274-.153-.301-.135-.33-.11-.345-.088-.36-.069-.364-.038-.37-.008-.366.013-.355.043-.34.069-.32.094-.295.114-.266.136-.228.16-.195.175-.15.188-.107.204-.063.203-.016.216.025.213.081.218.121.205.158.197M458.095 260.473l49.83 52.661M459.084 260.197l8.1 8.541M467.185 268.738l4-1.12M471.185 267.618v-.005M472.06 267.209l36.58 38.169M485.841 53.539l.266-.024.26.018.24.071.218.12M467.11 51.004l-.128-.076-.131-.028h-.125" style="fill:none;stroke:red;stroke-width:.999997;stroke-linecap:round;stroke-linejoin:round;stroke-miterlimit:4;stroke-dasharray:none;stroke-opacity:1;visibility:visible" visibility="hidden"/><path d="m450.835 272.525.132.098.15.071.146.036.161.009.148-.021.138-.035.132-.053.118-.071.124-.101.112-.121.1-.154.07-.173" style="fill:none;stroke:red;stroke-width:.999997;stroke-linecap:round;stroke-linejoin:round;stroke-miterlimit:4;stroke-dasharray:none;stroke-opacity:1;visibility:visible" visibility="hidden"/><path d="M315.822 345.017v.03l-.007.006v.044l-.004.005v.032l-.005.005v.026l-.007.002v.023l-.004.004v.016l-.004.01v.013l-.004.005v.015l-.006.005v.016h-.004v.019h-.007v.01l-.005.007v.01l-.005.009v.008l-.005.008v.008l-.004.005v.005M309.906 306.97l2.5-.695M317.951 302.829l-5.545 3.445M284.295 308.402l31.695-22.144M304.911 310.929l-9.87 6.13" style="fill:none;stroke:red;stroke-width:1.99999;stroke-linecap:round;stroke-linejoin:round;stroke-miterlimit:4;stroke-dasharray:none;stroke-opacity:1;visibility:visible" visibility="hidden"/><path d="m462.97 299.517.214-.074.196-.09.175-.11.15-.113.121-.132M492.963 337.626l-.01.008-.016.003M500.187 335.694l-7.147 2.087M500.532 335.394l.196-4.368M462.799 289.767l.09-.082.101-.076.105-.069.101-.057.11-.049.104-.034M463.536 289.358l-.125.042M462.799 289.767l-4.805 4.954M463.536 289.358l.119-.023.121-.02.124-.013h.126l.12.008.124.012.115.025.11.038.112.038.098.047.1.057.085.06.091.087M456.335 295.744l.195-.067.202-.079.192-.09.196-.105.187-.113.183-.132.176-.133.169-.15.16-.157M456.335 295.743l-.933.271M469.385 294.493l.062.076.048.081.041.097.02.071.004.07.005.072M454.75 296.694l.015-.114.041-.107.054-.099.075-.096.101-.084.115-.074.119-.06.13-.047M469.325 299.775v.028l-.004.017v.04l-.006.013v.011l-.006.018v.013l-.004.015v.009l-.005.016v.015l-.004.013-.005.011v.016l-.004.015-.007.008-.004.016v.016l-.005.008-.007.014-.004.016-.005.011-.005.016-.006.012-.003.01-.005.018-.004.009-.012.015-.004.01-.006.018-.005.007-.005.016-.01.01-.006.011-.003.012-.01.016-.006.01-.01.009-.005.017-.011.008-.004.016-.008.01-.007.011-.01.009-.01.018-.005.007-.01.01-.01.011-.009.009-.011.016-.005.008-.01.011-.01.01-.01.009-.01.011-.008.012-.011.009-.011.008-.01.01-.01.011-.01.01-.01.006-.01.01-.01.008-.01.01-.013.01-.011.007-.011.009-.009.012-.016.005-.01.009-.009.007-.016.009-.01.008-.009.006-.016.01-.01.004-.01.004-.016.012-.008.003-.016.007-.01.009-.015.005-.009.006-.016.005-.01.01-.015.003-.014.007-.011.002-.014.008-.011.003-.015.005-.015.008-.009.003-.016.006h-.015l-.01.003-7.99 2.363M460.526 303.165h-.012l-.014.002-.01.006h-.014l-.011.005-.015.005h-.01l-.016.007h-.01l-.014.003h-.024l-.01.004h-.032l-.008.006h-.04l-.01.007h-.146l-.011-.007h-.039l-.016-.006h-.024l-.01-.004h-.016l-.014-.004h-.01l-.014-.006h-.011l-.015-.005h-.01l-.016-.005h-.01l-.014-.006-.012-.002-.012-.008h-.01l-.016-.007h-.01l-.014-.01-.011-.001-.01-.005h-.015l-.011-.004-.015-.007-.01-.005-.009-.005-.014-.006-.011-.01-.015-.003-.009-.008-.012-.001-.01-.006-.012-.008-.012-.008-.011-.005-.013-.005-.011-.006-.008-.007-.012-.009-.01-.006-.015-.008-.011-.003-.01-.01-.009-.007-.01-.009-.01-.007-.01-.009-.01-.009-.01-.003-.007-.014-.013-.008-.011-.005-.01-.01-.009-.008-.01-.008-.01-.007-.01-.01-.01-.012-.012-.01-.002-.004-.01-.011-.01-.008-.01-.011-.006-.013M469.565 294.96l-.24 4.813M459.35 302.822l-4.327-4.875M455.02 297.946l-.01-.008-.006-.005-.004-.006-.006-.009-.004-.004-.004-.007-.004-.007-.007-.009-.005-.001-.011-.011-.004-.007-.005-.009-.004-.006-.007-.007-.004-.005-.005-.008-.006-.008-.004-.009-.005-.007v-.006l-.005-.005-.006-.01-.004-.002-.005-.013-.007-.003-.004-.01-.004-.007-.004-.009v-.007l-.006-.009-.004-.004-.006-.008-.004-.009-.006-.008v-.01l-.006-.004-.004-.01-.006-.007v-.007l-.004-.008-.004-.008v-.01l-.004-.005-.007-.01v-.007l-.005-.009-.004-.012v-.002l-.007-.01v-.004l-.004-.01-.005-.011v-.007l-.004-.009v-.013l-.007-.004v-.01l-.004-.006v-.007l-.005-.01v-.01l-.006-.007v-.017l-.004-.005v-.01l-.005-.012v-.014l-.005-.01v-.018l-.006-.007v-.026l-.004-.01v-.034l-.005-.006v-.065l-.005-.004v-.09M454.75 296.694l-.02.456M469.33 294.455l-4.347-4.78" style="fill:none;stroke:red;stroke-width:.999997;stroke-linecap:round;stroke-linejoin:round;stroke-miterlimit:4;stroke-dasharray:none;stroke-opacity:1;visibility:visible" visibility="hidden"/><path d="m460.166 298.829.12.153.154.141.19.13.213.114.239.095.253.078.272.054.279.03.28.009.28-.015.271-.04.254-.061M499.643 330.502l.09-.083.101-.076.105-.068.101-.057.11-.05.104-.032M500.38 330.093l-.125.041M499.643 330.502l-4.806 4.953M500.38 330.093l.12-.023.12-.021.124-.011h.126l.12.005.125.014.114.025.111.037.11.039.099.047.101.057.083.06.092.087M493.18 336.479l.193-.066.203-.083.192-.087.196-.106.187-.112.184-.135.174-.13.171-.153.159-.153M493.179 336.478l-.934.27M506.23 335.229l.06.074.05.084.04.096.02.071.004.07.006.071M491.595 337.429l.013-.115.042-.107.054-.097.076-.097.1-.084.115-.076.12-.06.13-.044M491.595 337.429l-.02.456M506.175 335.189l-4.35-4.782M506.224 335.223l.006.007M492.97 337.673l-.008-.024v-.023" style="fill:none;stroke:red;stroke-width:.999997;stroke-linecap:round;stroke-linejoin:round;stroke-miterlimit:4;stroke-dasharray:none;stroke-opacity:1;visibility:visible" visibility="hidden"/><path d="m526.725 211.836-57.418-50.107M522.305 233.689l-61.929-56.481M462.506 162.653l-.274.085-.276.115-.27.157-.251.18-.237.211-.216.233-.192.256-.163.263-.137.287-.1.284-.064.285-.026.284M459.886 175.929l.414-10.636M459.886 175.929l.01.256.035.239.069.226.096.208.124.192.156.158M469.305 161.728l-.205-.148-.224-.11-.246-.07-.265-.035-.28.009-.281.043M467.805 161.418l-5.3 1.235M498.515 254.514l2.125-.59M520.116 244.864l-19.476 9.06M459.084 260.197l59.612-29.797M491.585 258.129l-20.404 9.49M463.36 179.934l23.89 66.186M496.185 241.653l-17.26-47.524M512.447 286.44l-11.807-32.518M491.345 257.459l17.682 48.984M491.345 257.46l1.986-.928M504.696 333.82l-140.214 44.15M366.58 413.482l142.21-46.97M508.79 366.514l2.068-24.776M510.856 341.738l.01-.245-.023-.27-.038-.28-.065-.29-.085-.284-.106-.282-.125-.267-.134-.249-.145-.218-.154-.188M509.99 339.165l-4.588-5.025M349.546 283.345l87.356-23.842M436.902 259.503l.108-.005.12.033.126.082.124.12M441.04 263.733l.122.156.118.18.116.208.099.237.09.244.076.256.059.26.044.252.023.248.003.23M437.38 259.733l3.66 4M354.986 314.158l86.149-24.688.655-23.465M318.326 324.665l1.93-.552M309.573 326.585l.317.5.172-.052M262.306 96.143l.005.01.011.007.004.009.005.006.003.009.01.01.006.004.007.013.003.002.01.01.007.007.003.01.006.004.003.01.011.006.005.008.005.01.005.006.006.009.004.007.012.009.003.011.006.004.004.012.005.001.005.01.006.013.004.004.005.01.007.012.01.005.002.009.007.008.004.005.005.01.004.013.007.004.005.008.004.012.007.003.003.01.006.01.004.007.005.01.006.01.004.007.005.008.005.008v.01l.006.007.004.01.005.01.005.01.006.005.006.01.004.01.004.009.005.006v.01l.006.01.004.01.005.01.005.004.006.01v.011l.005.009.004.004.007.013.004.009v.01l.004.01.004.009.007.006v.01l.005.01.004.009v.009l.007.007.003.009.006.011v.012l.004.005.007.01v.007l.003.009v.013l.005.009.005.007v.012l.005.01.006.004v.011l.004.011v.009l.005.011v.01l.005.01v.009l.006.006.004.009M239.54 94.815l-.01-.031-.004-.035-.005-.028-.007-.036-.003-.034-.005-.031v-.035l-.004-.035v-.03l-.007-.036v-.235l.007-.036v-.028l.004-.034.005-.031.003-.035.007-.035.005-.03.004-.036.007-.03.003-.034.01-.03.011-.037.005-.03.01-.03.008-.033.011-.03.012-.034.01-.032.01-.03.011-.029.013-.033.015-.028.015-.03.009-.029.015-.031.016-.029.014-.031.016-.031.02-.027.016-.027.013-.029.022-.031.013-.025.022-.03.02-.024.02-.027.018-.028.022-.027.02-.023.018-.025.02-.025.026-.026.019-.025.026-.024.019-.021.025-.026.025-.023.02-.022.026-.025.025-.02.027-.019.022-.018.026-.022.029-.02.025-.019.026-.02.029-.021.024-.021.033-.013.023-.021.032-.013.028-.016.027-.02.028-.016.032-.016.03-.013.027-.015.032-.01.03-.018.028-.012.031-.012.036-.008.03-.016.029-.01.03-.011.037-.009.03-.01.026-.004.037-.01.03-.012.038-.005.029-.005.033-.01M257.42 90.46l4.887 5.683M255.402 89.729l-14.22 2.609M255.402 89.728l.02-.005.019-.003h.026l.019-.008.025-.003h.02l.019-.005h.027l.02-.007h.069l.021-.002h.199l.027.002h.044l.02.007h.025l.02.005h.024l.02.003.02.008h.025l.02.003.024.005.02.005h.027l.019.007.021.003.023.005.022.005.02.007.024.007.02.008.02.002.026.006.02.01.02.004.023.006.023.01.019.007.02.009.024.008.02.008.02.008.021.01.02.006.024.009.02.012.02.01.019.009.023.009.02.011.017.009.021.01.022.012.017.01.021.012.02.011.019.01.016.015.02.009.021.011.02.015.019.01.016.017.02.015.019.008.016.016.02.016.02.005.013.017.021.016.016.017.019.014.016.016.02.013.015.015.02.016.016.013.012.016.015.015.02.012.017.017.013.02.016.016.016.017.015.018.013.015.023.016.009.02M309.47 325.183l.115 1.575M300.771 260.765l1.16 6.305 1.23 6.84 1.191 6.775.209 1.218M262.765 97.004l2.405 8.87 2.345 8.761 2.285 8.66 2.221 8.552 2.154 8.462 2.102 8.364 2.038 8.27 1.911 7.871 1.859 7.794 1.805 7.705 1.761 7.63 1.706 7.546 1.657 7.471 1.612 7.393 1.564 7.32.24 1.136M272.39 302.845l2.452 24.609M308.44 327.89l.254-.087.226-.109.206-.13.17-.145.134-.154.095-.167.05-.17.008-.168M274.842 327.455l.028.143.067.136M274.937 327.733l4.318 7.337M279.255 335.071l.115.152.15.14.19.115.221.093.243.079.263.044.28.016.278-.013.282-.032.273-.067M283.815 334.946l-2.265.65M308.44 327.89l-3.155.903M316.117 345.943l-19.04-30.15M283.815 334.946l43.042 72.317M283.146 308.738l-.27.097-.259.125-.24.153-.22.185-.199.205-.158.22-.126.237-.079.237-.045.242v.234M281.55 310.673l1.16 12.434 1.105 11.839M283.146 308.738l1.15-.315M297.982 166.83l-.007-.039-.005-.033-.004-.038-.007-.036-.004-.044v-.032l-.004-.038v-.038l-.004-.034v-.185l.004-.039v-.037l.004-.041v-.034l.005-.032.006-.044.004-.033.005-.036.007-.04.01-.033.002-.036.011-.04.005-.036.01-.035.01-.033.01-.036.01-.035.012-.036.013-.039.01-.037.015-.028.01-.036.016-.035.013-.036.016-.033.016-.035.015-.032.02-.033.014-.036.015-.03.02-.034.022-.029.013-.032.02-.034.021-.032.019-.028.02-.032.027-.028.018-.028.022-.03.022-.033.027-.029.02-.026.024-.03.027-.031.023-.025.027-.029.023-.025.025-.023.03-.027.025-.024.025-.025.03-.027.03-.022.027-.027.028-.024.03-.02.032-.023.029-.024.029-.018.032-.026.028-.018.032-.022.03-.017.033-.015.031-.022.034-.02.03-.014.036-.02.031-.018.035-.014.035-.018.029-.015.034-.009.035-.019.036-.011.035-.016.036-.01.033-.016.035-.01.036-.013.034-.007.035-.008.036-.01.04-.013.034-.005M299.846 164.042l16.056-3.5M315.902 160.542l.024-.005.024-.005.027-.006.025-.002.025-.007.03-.003h.025l.025-.004.024-.006h.024l.032-.006h.023l.027-.005h.053l.027-.005h.178l.032.005h.05l.023.005h.055l.027.006.025.005h.03l.025.005.025.003.026.007.022.002h.027l.028.006.027.01.023.006.027.005.024.005.024.006.026.006.025.01h.027l.027.014.027.003.024.01.027.012.022.005.02.01.026.007.024.01.027.012.025.01.025.01.023.011.027.009.02.01.023.009.026.015.024.01.021.012.026.015.025.008.018.015.027.016.02.008.024.016.02.015.026.01.02.016.025.014.018.016.02.014.026.016.02.016.021.016.023.012.023.022.017.013.021.015.02.016.02.021.02.012.02.021.019.016.023.022.02.012.017.021.017.02.02.013.019.022.021.02.015.018.018.022.017.014.02.02.013.022M324.815 168.97l-6.544-7.625M324.815 168.97l.01.008.007.012.009.009.005.009.011.009.003.008.01.008.007.01.009.011.004.009.01.01.006.007.009.008.006.01.004.012.012.009.003.011.01.01.005.01.005.008.01.012.006.009.006.004.01.011.002.011.008.008.008.01.004.012.006.009.006.01.01.011.006.01.004.008.004.01.012.01.003.012.005.007.005.01.006.013.009.008.005.01.006.017.006.01.004.011.006.007.009.01.004.012.005.009.005.01.006.009.004.012.005.008.007.012.004.014.004.01.005.011.006.008.005.01.004.011.007.009.003.017.006.008.004.01.007.012.003.009.006.011.004.012.005.011v.01l.006.012.004.009.005.01.005.014.006.012.004.009v.01l.005.014.007.012.003.01.007.008v.01l.003.016.005.01v.011l.005.007.006.016.004.01v.012l.005.01.007.016v.007l.004.01.004.012v.014l.005.01v.008l.007.016.003.012v.009l.005.009M366.662 416.068l-.85-27.483M325.35 170.01l2.305 9.702 2.24 9.578 2.166 9.438 2.093 9.314 2.031 9.19 1.961 9.073 1.9 8.949 1.764 8.51 1.716 8.404 1.648 8.305 1.601 8.205 1.547 8.104 1.493 8.01 1.44 7.918 1.39 7.823 1.345 7.734 1.29 7.648 1.245 7.558 1.199 7.473 1.152 7.399 1.118 7.398 1.076 7.32 1.036 7.235.984 7.164.946 7.085.904 7.01.86 6.936M327.457 416.764l-1.644-25.942M365.8 388.493l.005.045.005.047M327.595 417.212l-.07-.142-.042-.152-.026-.154M335.76 427.264l-.305.082-.315.046-.314.011-.316-.019-.304-.062-.282-.088-.258-.12-.219-.15-.187-.174-.144-.195-5.52-9.383M366.662 416.068l-.016.206-.062.204-.098.194-.14.186-.176.17-.209.149-.236.126-.258.104-29.707 9.856M310.271 243.274l-27.346-37.51M315.46 281.954l-42.01-60.59M273.14 220.489l.033.235.068.224.093.218.116.198M282.925 205.765l-.199-.224-.23-.195-.271-.156-.289-.12-.319-.076-.33-.03-.34.014-.346.063M274.386 206.49l6.215-1.449M274.386 206.489l-.324.097-.316.127-.299.167-.281.2-.26.229-.224.25-.196.271-.16.29-.12.3-.075.3-.04.305.004.297M272.095 209.322l1.045 11.168M278.626 228.82l21.856 68.278M307.806 291.978l-12.66-39.328M321.2 333.587l-8.794-27.312M304.457 309.517l20.07 62.692M304.457 309.517l2.245-1.415M284.295 308.423v-.021M564.011 106.482h.019l.015-.004.02-.006h.016l.019-.003.016-.006h.02l.014-.004h.015l.02-.004h.016l.019-.008h.016l.02-.003h.054l.015-.005h.055l.016-.006h.176l.02.007h.048l.02.004h.05l.022.003h.013l.019.008h.016l.02.004h.016l.019.004h.015l.02.006.015.003h.016l.02.005.014.006h.02l.017.005.013.005.02.007.016.004h.019l.016.005.016.004.02.004.015.007.013.003.02.005.015.005.015.006.02.01.015.007.015.004.02.005.016.002.014.013.017.003.02.008.013.002.015.01.015.007.017.009.018.007.016.005.015.005.014.01.017.007.013.01.016.007.014.009.015.007.022.006.013.013.016.003.016.01.013.012.015.009.016.01.01.007.014.007.015.01.015.01.015.011M564.01 106.483l-12.893 2.809M574.776 112.919l-9.09-6.12M549.39 110.984l.005-.024.006-.025.004-.026.011-.018.004-.027.01-.025.006-.024.011-.026.003-.024.01-.021.01-.024.012-.025.009-.026.009-.018.011-.026.009-.025.01-.02.01-.025.01-.027.01-.018.016-.026.008-.02.01-.024.018-.021.008-.026.016-.018.01-.022.014-.022.015-.022.01-.019.015-.025.016-.021.016-.02.013-.019.015-.02.016-.021.015-.024.014-.02.016-.021.014-.019.022-.02.013-.016.015-.019.02-.02.015-.021.02-.02.016-.016.019-.019.015-.019.02-.017.019-.018.016-.016.02-.02.019-.016.023-.02.013-.013.019-.014.021-.016.021-.021.019-.015.02-.014.02-.015.024-.015.023-.016.018-.014.02-.014.02-.016.025-.01.02-.015.022-.015.023-.015.021-.01.019-.016.025-.011.021-.013.024-.01.02-.01.026-.016.019-.009.026-.01.024-.012.021-.008.024-.01.027-.012.018-.009.026-.008.024-.01.02-.011.025-.005.025-.011.026-.01.024-.007.027-.009.02-.001.023-.014.025-.003.025-.005.025-.006.026-.009.025-.007M574.776 112.919l.024.016.02.009.021.016.019.013.02.015.02.021.02.016.02.015.02.013.02.017.015.018.02.015.02.016.021.02.017.015.017.019.017.017.02.021.012.017.021.016.015.021.02.018.015.02.015.019.016.023.014.019.02.021.017.018.013.02.016.021.014.02.01.019.015.021.016.022.013.022.012.021.014.019.015.025.01.022.016.018.01.027.01.017.014.027.01.02.011.024.009.02.01.027.015.022.01.023.005.025.012.023.01.021.008.026.01.024.007.025.009.021.004.023.01.024.007.027.009.025.004.026.005.023.01.024.006.027.004.025.005.026.005.024.006.021.005.028v.027l.004.025.005.024.005.023v.026l.006.027v.048l.004.024v.078l.005.029v.049l-.005.027v.098l-.004.027v.023l-.007.032v.025l-.004.024-.005.025v.024l-.004.027-.006.025-.005.023-.004.027M504.85 332.571l1.134-7.261 1.163-7.351 1.21-7.432 1.244-7.517 1.289-7.603 1.33-7.687 1.376-7.78 1.364-7.58 1.407-7.664 1.443-7.749 1.49-7.83 1.53-7.92 1.572-8.003 1.619-8.096 1.66-8.18 1.704-8.268 1.751-8.368 1.796-8.446 1.844-8.548 1.89-8.635 1.949-8.8 2.005-8.899 2.05-8.997 2.1-9.087 2.156-9.197 2.205-9.293 2.258-9.396M575.681 115.136 573.8 124.8l-1.824 9.55-1.776 9.427-1.724 9.319-1.676 9.204-1.625 9.09-1.575 8.98-1.47 8.54-1.428 8.439-1.386 8.347-1.346 8.244-1.3 8.149-1.26 8.051-1.218 7.958-1.182 7.866-1.14 7.775-1.105 7.686-1.058 7.593-1.032 7.5-.985 7.423-.965 7.424-.929 7.34-.89 7.255-.861 7.165-.82 7.08-.785 7-.75 6.914-2.684 25.136M510.084 367.989l.176.164.205.15.24.13.26.109.28.077.295.047.293.019.292-.011.286-.039.262-.07M512.675 368.563l25.472-8.45M538.145 360.113l.235-.096.2-.118.164-.141.132-.156.083-.17.046-.179M510.084 367.989l-1.294-1.474M508.036 303.697l-35.316-36.795M461.015 291.607l-5.368-5.929M497.896 332.322 469.04 300.47M458.095 260.473l-.235.08-.23.114-.22.147-.2.17-.184.188-.16.213-.131.217-.096.232-.064.23-.025.217M455.646 285.678l.336-8.653M455.982 277.025l.568-14.743M459.084 260.197l-.99.276M486.825 53.723l.02.01.015.015.02.01.016.018.019.007.015.014.017.011.018.013.016.016.014.015.02.01.014.018.016.012.015.016.015.015.015.016.017.016.013.014.015.014.015.016.015.016.016.017.015.016.014.016.015.016.011.017.015.016.013.017.012.02.015.013.008.021.016.012.01.024.016.013.01.02.014.022.011.013.01.02.009.021.016.016.009.018.01.021.01.019.01.02.01.016.008.02.013.018.01.023.004.017.01.02.01.023.01.02.005.017.01.023.005.019.011.018.004.023.012.016.003.027.005.02.01.021.006.019.004.02.007.017.003.028.006.02.004.021.007.019.003.025.005.022.004.017.006.027v.018l.006.02.004.027v.02l.005.019v.026l.005.021v.045l.006.017v.243l-.006.022v.04l-.004.026v.021l-.006.02v.024M478.475 48.744l.015-.005h.014l.016-.006h.016l.01-.003h.012l.017-.006h.032l.012-.004h.041l.013-.007h.078l.013-.002h.101l.015.002h.07l.014.007h.041l.015.004h.03l.013.005h.028l.016.004h.012l.016.007h.015l.015.004h.008l.017.005.015.006h.015l.015.005.01.005h.015l.016.003.014.007h.015l.01.004.015.004.014.005.016.005h.01l.014.007.016.004.01.005.015.006.015.005.015.003.01.007.016.006.014.001.01.008.015.003.016.005.01.007.012.009.012.006.014.005.016.005.01.006.016.009.009.003.015.005.015.005.008.011.017.005.01.006.016.01.008.003.016.012.01.003.015.01.011.007.014.009.01.004.009.011.016.005.01.008.014.008 6.976 4.699M465.155 52.483l.007-.02.004-.024.004-.026.005-.021.007-.024.008-.021.006-.027.004-.023.006-.02.01-.024.004-.02.012-.023.004-.02.008-.027.01-.023.006-.02.01-.023.01-.026.01-.018.01-.021.009-.023.014-.021.007-.019.01-.025.01-.021.01-.02.016-.019.01-.021.01-.026.015-.017.009-.023.014-.02.016-.017.01-.023.014-.017.016-.024.01-.017.016-.016.014-.023.016-.016.014-.021.015-.016.015-.018.017-.021.013-.016.015-.019.015-.013.02-.023.014-.014.016-.019.02-.016.016-.015.015-.021.019-.013.017-.016.019-.016.016-.012.019-.016.019-.016.016-.015.02-.013.019-.016.02-.016.021-.015.014-.016.021-.008.019-.015.019-.009.021-.017.022-.011.018-.013.02-.01.02-.016.024-.01.021-.008.021-.011.02-.013.02-.012.019-.011.025-.01.02-.007.022-.007.024-.01.019-.011.02-.009.025-.007.02-.009.026-.007.019-.009.025-.002.022-.013.022-.003.021-.005.026-.011.019-.005.025-.006.02-.004.027-.005.018-.005.026-.003 11.749-2.157M435.322 259.934l.068-3.088M435.396 256.809l.68-6.82.71-6.893.746-6.962.778-7.03.81-7.1.846-7.174.876-7.242.878-7.048.91-7.122.947-7.184.979-7.261 1.01-7.323 1.044-7.396 1.08-7.466 1.117-7.539 1.15-7.609 1.183-7.685 1.222-7.758 1.258-7.827 1.296-7.907 1.344-8.05 1.386-8.125 1.42-8.2 1.464-8.279 1.5-8.361 1.546-8.439 1.579-8.525M471.716 203.072l-.076.981-.51 6.925-.491 6.94-.454 6.872-.43 6.795-.405 6.724-.37 6.653-.349 6.59-.196 3.974M487.655 55.608l-1.19 8.776-1.15 8.68-1.11 8.588-1.075 8.497-1.03 8.411-.993 8.313-.957 8.23-.89 7.84-.85 7.761-.82 7.68-.791 7.605-.75 7.52-.724 7.448-.525 5.568M435.39 256.845l.006-.016v-.022" style="fill:none;stroke:red;stroke-width:1.99999;stroke-linecap:round;stroke-linejoin:round;stroke-miterlimit:4;stroke-dasharray:none;stroke-opacity:1;visibility:visible" visibility="hidden"/><path d="m442.876 289.337-.241.053-.25.037-.257.007-.262-.016-.256-.035-.244-.062-.227-.083M442.876 289.337l12.77-3.659" style="fill:none;stroke:red;stroke-width:1.99999;stroke-linecap:round;stroke-linejoin:round;stroke-miterlimit:4;stroke-dasharray:none;stroke-opacity:1;visibility:visible" visibility="hidden"/><path d="m469.38 294.489-3.621 2.609M312.406 306.274l5.354-5.121M304.911 310.929l-14.473 7.406M309.573 326.585l-.642 11.375M316.117 345.943l-7.187-7.984M316.117 345.943l.175 3.726M297.982 166.83l10.316 12.563M309.585 326.758l-1.708-6.561M455.982 277.025l-1.586-3.145M455.982 277.025l-1.586-3.147M500.38 330.093l14.61 11.729M549.39 110.984l11.085 12.58M501.825 330.407l5.585-14.077M508.036 303.697l-14.616-6.594M469.385 294.494l14.505-7.452M469.385 294.493l14.505-7.451M501.825 330.407l6.1-17.273M493.42 297.103l15.22 8.275" style="fill:none;stroke:red;stroke-width:.999997;stroke-linecap:round;stroke-linejoin:round;stroke-miterlimit:4;stroke-dasharray:none;stroke-opacity:1;visibility:visible" visibility="hidden"/><path d="m306.7 308.103 11.251-5.274M300.483 297.098l15.507-10.84M304.457 309.517l.454 1.412M500.64 253.922l-4.455-12.269M310.062 327.033l8.264-2.368M308.44 327.89l11.816-3.777M309.89 327.085l-.42-1.902M273.14 220.489l19.29-1.68M310.062 327.033l-4.777 1.76M327.596 417.212l-.739-9.949M312.406 306.275l-4.6-14.297M510.858 341.738l-6.008-9.167M493.42 297.103l14.616 6.594M464.983 289.675l-3.968 1.932M501.825 330.407l-3.929 1.915M435.396 256.807l-.074 3.127M460.3 165.293l14.5 1.232" style="fill:none;stroke:red;stroke-width:1.99999;stroke-linecap:round;stroke-linejoin:round;stroke-miterlimit:4;stroke-dasharray:none;stroke-opacity:1;visibility:visible" visibility="hidden"/><path d="m347.982 529.791-1.186 23.541" style="fill:none;stroke:#00ff4a;stroke-width:.666665;stroke-linecap:round;stroke-linejoin:round;stroke-miterlimit:4;stroke-dasharray:none;stroke-opacity:1;visibility:visible"/><path d="m457.335 327.175-1.09-.069-1.093-.048-1.092-.016-1.087.008-1.093.032-1.084.057-1.074.083-1.072.107-1.06.136-1.055.153-1.035.185-1.028.207-1.012.228-.994.255-.982.276" style="fill:none;stroke:#00ff4a;stroke-width:1.99999;stroke-linecap:round;stroke-linejoin:round;stroke-miterlimit:4;stroke-dasharray:none;stroke-opacity:1;visibility:visible"/><path d="m275.94 381.429-.46.44-.428.45-.391.467-.356.479-.315.484-.275.494-.234.5-.195.507-.15.515-.111.51-.064.515-.024.512.02.506.063.506.11.5.15.494.196.485.234.471 49.141 89.246M432.66 440.41l-.294.117-.266.15-.234.179-.196.195-.154.213-.114.228-.067.24-.015.248.03.24.08.244.125.23.17.216.212.197.243.18.276.15.304.127.32.096.34.06.346.023.344-.005.34-.044.326-.076.304-.104.286-.135.25-.164.215-.188.173-.208.136-.224.086-.237.04-.24-.012-.244-.055-.246-.103-.233-.146-.227-.19-.204-.23-.19-.26-.167-.29-.135-.316-.109-.33-.076-.339-.044-.343-.01-.342.025-.335.061-.315.09M493.985 395.802l-.16.068-.125.096-.09.11-.046.119-.008.13.035.131.081.124.119.11.149.096.177.07.188.04.196.014.19-.015.179-.039.16-.07.126-.096.09-.11.049-.125.005-.13-.033-.129-.08-.121-.12-.11-.152-.095-.175-.068-.189-.042-.195-.016-.19.016-.181.042M338.222 447.972l-.187.08-.155.108-.12.127-.08.141-.04.152.015.149.055.141.1.121.14.113.17.079.195.047.212.018.204-.016.205-.049.184-.079.156-.112.12-.124.079-.138.035-.151-.009-.15-.061-.143-.1-.127-.142-.107-.168-.08-.194-.046-.206-.016-.21.016-.198.046M309.653 399.7l-.176.07-.151.088-.119.114-.081.126-.04.132.004.128.051.125.093.115.126.09.16.072.18.043.193.017.197-.017.191-.043.178-.07.149-.093.119-.114.078-.125.042-.128-.01-.132-.047-.126-.093-.114-.127-.088-.159-.07-.178-.049-.193-.011-.2.012-.186.048M534.913 415.912l.32-.478.282-.495.234-.512.195-.515.145-.528.106-.537.054-.539.011-.545-.03-.543-.08-.553-.12-.544-.166-.543-.209-.542-.251-.535-.296-.53-.333-.518-.375-.507-.41-.494M522.66 424.412l1.055-.388 1.025-.418.995-.454.964-.474.936-.5.9-.526.865-.546.825-.582.795-.597.75-.619.71-.645.675-.66.63-.679.585-.696.543-.716" style="fill:none;stroke:#00ff4a;stroke-width:.999997;stroke-linecap:round;stroke-linejoin:round;stroke-miterlimit:4;stroke-dasharray:none;stroke-opacity:1;visibility:visible"/><path d="m334.61 486.118 1.33.104 1.346.065 1.344.025 1.35-.01 1.351-.05 1.35-.085 1.349-.13 1.34-.161 1.336-.2 1.324-.244 1.317-.272 1.297-.316 1.286-.346 1.27-.386 1.245-.42 168.215-59.28M322.85 479.508l.35.582.39.562.436.548.473.519.521.503.561.477.594.453.63.43.665.398.693.367.73.341.759.304.774.276.804.24.82.206.84.169.85.136.868.099" style="fill:none;stroke:#00ff4a;stroke-width:.999997;stroke-linecap:round;stroke-linejoin:round;stroke-miterlimit:4;stroke-dasharray:none;stroke-opacity:1;visibility:visible"/><path d="m440.924 328.743.176-.028.188.005.196.05M355.566 492.152l-1 .348-1.016.319-1.019.305-1.036.276-1.045.26-1.055.23-1.055.216-1.064.18-1.07.169-1.076.143-1.068.117-1.078.093-1.044.07-1.038.049-1.046.021-1.044.006-1.042-.02-1.04-.04-1.033-.064-1.034-.087M355.566 492.152l167.438-59.632M274.491 381.965l.63-.552.645-.534.664-.524.687-.51.698-.5.72-.482.731-.468.75-.455.761-.442.775-.424.783-.405.8-.395.786-.364.801-.357.808-.338.82-.325.831-.308.838-.295.847-.277 6.91-1.921M271.386 396.308l-.241-.462-.219-.483-.195-.49-.169-.493-.148-.506-.117-.51-.098-.519-.069-.515-.045-.49-.019-.494.005-.499.026-.492.048-.497.07-.49.096-.488.11-.48.154-.542.186-.534.205-.524.233-.514.258-.508.278-.492.3-.483.3-.44.32-.43.336-.413.35-.41.369-.395.387-.382.393-.368M366.802 350.802l74.122-22.06M474.75 338.331l-5.2-5.874M535.804 407.284 507.16 374.85M457.386 327.069l.644.06.64.074.646.098.634.109.63.127.626.152.614.166.604.182.592.201.58.216.568.235.562.249.55.27.528.284.52.308.5.313.5.344.487.366.465.38.45.402.424.42.399.432M537.03 422.538l-.48.646-.506.636-.529.62-.556.603-.58.592-.603.57-.625.559-.651.538-.665.528-.685.502-.71.492-.75.484-.77.47-.796.452-.81.431-.829.413-.845.391-.864.366-.876.357-.897.332M535.804 407.284l.425.503.399.515.381.537.351.551.325.563.299.582.265.588.235.599.19.562.164.571.137.577.105.588.075.587.044.59.021.591-.015.589-.041.526-.064.521-.085.52-.111.511-.135.513-.159.504-.18.492-.2.484-.205.435-.225.43-.24.417-.256.41-.275.395M271.386 396.308l48.695 89.675" style="fill:none;stroke:#00ff4a;stroke-width:1.99999;stroke-linecap:round;stroke-linejoin:round;stroke-miterlimit:4;stroke-dasharray:none;stroke-opacity:1;visibility:visible"/><path d="m334.664 494.743-.718-.08-.716-.1-.709-.125-.701-.146-.694-.17-.69-.187-.674-.216-.665-.236-.651-.253-.704-.312-.69-.336-.678-.36-.652-.39-.64-.406-.61-.443-.598-.459-.563-.486-.48-.443-.461-.472-.44-.479-.413-.504-.397-.517-.374-.533-.344-.547-.322-.56" style="fill:none;stroke:#00ff4a;stroke-width:1.99999;stroke-linecap:round;stroke-linejoin:round;stroke-miterlimit:4;stroke-dasharray:none;stroke-opacity:1;visibility:visible"/><path d="m274.491 381.965 1.449-.536M535.804 407.284l-1.814-.83" style="fill:none;stroke:#00ff4a;stroke-width:.999997;stroke-linecap:round;stroke-linejoin:round;stroke-miterlimit:4;stroke-dasharray:none;stroke-opacity:1;visibility:visible"/><path d="m307.877 320.197 13.323 13.39" style="fill:none;stroke:red;stroke-width:1.99999;stroke-linecap:round;stroke-linejoin:round;stroke-miterlimit:4;stroke-dasharray:none;stroke-opacity:1;visibility:visible" visibility="hidden"/><path d="m510.084 367.989-2.924 6.861" style="fill:none;stroke:#00ff4a;stroke-width:1.99999;stroke-linecap:round;stroke-linejoin:round;stroke-miterlimit:4;stroke-dasharray:none;stroke-opacity:1;visibility:visible"/></svg>