<svg xmlns="http://www.w3.org/2000/svg" baseProfile="full" height="1122.52" preserveAspectRatio="xMinYMin meet" style="width:912px;height:1303px" width="793.701" xml:space="preserve"><path d="m220.241 763.365 54.093-17.087M279.959 726.916l-98.56 30.281M403.525 767.109l-24.652-10.716M382.307 800.705l7.159 3.477M208.917 680.184a1.819 1.819 0 0 0-1.332 1.756M220.585 677.524a1639.295 1639.295 0 0 0 158.287 78.869M289.198 748.516a1474.316 1474.316 0 0 0 29.042 17.594M208.342 695.51a1664.761 1664.761 0 0 0 54.792 36.571M207.585 681.94l-.028 12.065M219.22 677.353l-10.303 2.83M220.585 677.524a1.797 1.797 0 0 0-1.366-.17M207.557 694.005a1.817 1.817 0 0 0 .785 1.505M365.88 765.09l-102.966 35.045M281.84 809.547l-24.253-12.065M241.952 835.323l25.29 13.363M89.578 712.966a1.899 1.899 0 0 0-1.393 1.912M102.618 710.045a1662.207 1662.207 0 0 0 154.968 87.438M89.382 728.961a1947.854 1947.854 0 0 0 152.51 106.33M88.185 714.877l.447 12.615M101.08 709.81l-11.501 3.156M102.618 710.045a1.92 1.92 0 0 0-1.538-.235M88.632 727.493c.018.577.293 1.112.75 1.468" style="fill:none;stroke:red;stroke-width:1.99999;stroke-linecap:round;stroke-linejoin:round;stroke-miterlimit:500;stroke-dasharray:none;stroke-opacity:1;visibility:visible"/><path d="m280.796 770.352 1.455-5.25M280.796 770.352l64.301 1.81" style="fill:none;stroke:red;stroke-width:.999997;stroke-linecap:round;stroke-linejoin:round;stroke-miterlimit:500;stroke-dasharray:none;stroke-opacity:1;visibility:visible"/><path d="m359.494 767.264-77.244-2.163" style="fill:none;stroke:red;stroke-width:1.99999;stroke-linecap:round;stroke-linejoin:round;stroke-miterlimit:500;stroke-dasharray:none;stroke-opacity:1;visibility:visible"/><path d="m280.735 772.823.061-2.472" style="fill:none;stroke:red;stroke-width:.999997;stroke-linecap:round;stroke-linejoin:round;stroke-miterlimit:500;stroke-dasharray:none;stroke-opacity:1;visibility:visible"/><path d="m210.818 773.32 55.05 1.552M281.348 775.265l50.323 1.464" style="fill:none;stroke:red;stroke-width:1.99999;stroke-linecap:round;stroke-linejoin:round;stroke-miterlimit:500;stroke-dasharray:none;stroke-opacity:1;visibility:visible"/><path d="m201.137 768.115 66.178 1.859" style="fill:none;stroke:red;stroke-width:.999997;stroke-linecap:round;stroke-linejoin:round;stroke-miterlimit:500;stroke-dasharray:none;stroke-opacity:1;visibility:visible"/><path d="m268.873 764.726-68.865-1.928" style="fill:none;stroke:red;stroke-width:1.99999;stroke-linecap:round;stroke-linejoin:round;stroke-miterlimit:500;stroke-dasharray:none;stroke-opacity:1;visibility:visible"/><path d="m268.873 764.726-1.557 5.248M289.981 734.991l-16.983 61.405" style="fill:none;stroke:red;stroke-width:.999997;stroke-linecap:round;stroke-linejoin:round;stroke-miterlimit:500;stroke-dasharray:none;stroke-opacity:1;visibility:visible"/><path d="m258.967 798.165 17.564-59.29" style="fill:none;stroke:red;stroke-width:1.99999;stroke-linecap:round;stroke-linejoin:round;stroke-miterlimit:500;stroke-dasharray:none;stroke-opacity:1;visibility:visible"/><path d="m280.735 772.823-.061 2.468M290.6 740.652l.139-6.213" style="fill:none;stroke:red;stroke-width:.999997;stroke-linecap:round;stroke-linejoin:round;stroke-miterlimit:500;stroke-dasharray:none;stroke-opacity:1;visibility:visible"/><path d="M290.902 742.11c-.004 0-4.759 17.307-6.19 22.5M281.725 776.236l-5.108 18.573" style="fill:none;stroke:red;stroke-width:1.99999;stroke-linecap:round;stroke-linejoin:round;stroke-miterlimit:500;stroke-dasharray:none;stroke-opacity:1;visibility:visible"/><path d="M290.775 733.834a3.413 3.413 0 0 0-1.62-3.122M276.555 738.868l14.207-4.437M290.628 740.646l-.019.587M200.007 762.797l-5.452 1.704M290.775 733.834l-.013.596M289.155 730.711l-8.407-3.727M208.6 681.124a1647.377 1647.377 0 0 0 158.093 79.95M280.749 726.986a1.105 1.105 0 0 0-.791-.069M290.44 742.142c.128-.28.188-.59.17-.908M366.695 761.073l24.615 10.873M388.889 802.87l1.81-29.708M392.258 770.782a2.77 2.77 0 0 0-1.56 2.38M402.822 767.106l-10.564 3.676" style="fill:none;stroke:red;stroke-width:.999997;stroke-linecap:round;stroke-linejoin:round;stroke-miterlimit:500;stroke-dasharray:none;stroke-opacity:1;visibility:visible"/><path d="m402.822 767.106.275-.063.262.015.239.085.201.156.162.223.109.275.059.321.002.355M402.21 798.024l1.921-29.55M400.671 800.371a2.763 2.763 0 0 0 1.537-2.346M400.672 800.37l-10.463 3.815" style="fill:none;stroke:red;stroke-width:1.99999;stroke-linecap:round;stroke-linejoin:round;stroke-miterlimit:500;stroke-dasharray:none;stroke-opacity:1;visibility:visible"/><path d="m390.21 804.185-.276.067-.263-.007-.234-.077-.206-.152-.16-.215-.114-.27-.063-.311-.005-.35M282.433 813.519l108.11-37.861M390.543 775.657l-23.679-10.496M282.433 813.519l-.315 11.673M390.543 775.657l-.676 11.193" style="fill:none;stroke:red;stroke-width:.999997;stroke-linecap:round;stroke-linejoin:round;stroke-miterlimit:500;stroke-dasharray:none;stroke-opacity:1;visibility:visible"/><path d="m282.118 825.192 106.75-37.985" style="fill:none;stroke:red;stroke-width:1.99999;stroke-linecap:round;stroke-linejoin:round;stroke-miterlimit:500;stroke-dasharray:none;stroke-opacity:1;visibility:visible"/><path d="m258.965 810.42-14.925-7.56M366.864 765.16a1.339 1.339 0 0 0-.984-.07M266.62 847.378l.673-31.159M90.65 714.924a1673.721 1673.721 0 0 0 153.39 87.935" style="fill:none;stroke:red;stroke-width:.999997;stroke-linecap:round;stroke-linejoin:round;stroke-miterlimit:500;stroke-dasharray:none;stroke-opacity:1;visibility:visible"/><path d="M280.026 844.395a2.836 2.836 0 0 0 1.65-2.497M268.201 848.713l11.825-4.317M266.62 847.378l.024.365.084.328.141.278.196.221.246.148.274.075.303-.003.315-.077" style="fill:none;stroke:red;stroke-width:1.99999;stroke-linecap:round;stroke-linejoin:round;stroke-miterlimit:500;stroke-dasharray:none;stroke-opacity:1;visibility:visible"/><path d="M268.973 813.682a2.839 2.839 0 0 0-1.683 2.538M268.973 813.681l11.957-4.159" style="fill:none;stroke:red;stroke-width:.999997;stroke-linecap:round;stroke-linejoin:round;stroke-miterlimit:500;stroke-dasharray:none;stroke-opacity:1;visibility:visible"/><path d="m282.495 810.915-.019-.37-.084-.338-.137-.283-.19-.226-.243-.158-.275-.086-.3-.003-.317.072M281.676 841.898l.819-30.983" style="fill:none;stroke:red;stroke-width:1.99999;stroke-linecap:round;stroke-linejoin:round;stroke-miterlimit:500;stroke-dasharray:none;stroke-opacity:1;visibility:visible"/><path d="m289.79 732.602-96.933 30.273" style="fill:none;stroke:red;stroke-width:.999997;stroke-linecap:round;stroke-linejoin:round;stroke-miterlimit:500;stroke-dasharray:none;stroke-opacity:1;visibility:visible"/><path d="m243.94 982.204 2.276-144.373" style="fill:none;stroke:red;stroke-width:1.99999;stroke-linecap:round;stroke-linejoin:round;stroke-miterlimit:500;stroke-dasharray:none;stroke-opacity:1;visibility:visible"/><path d="m270.926 848.882-3.583 149.272M267.344 998.154l-23.27-15.332" style="fill:none;stroke:red;stroke-width:.999997;stroke-linecap:round;stroke-linejoin:round;stroke-miterlimit:500;stroke-dasharray:none;stroke-opacity:1;visibility:visible"/><path d="m281.56 844.831-4.15 148.678" style="fill:none;stroke:red;stroke-width:1.99999;stroke-linecap:round;stroke-linejoin:round;stroke-miterlimit:500;stroke-dasharray:none;stroke-opacity:1;visibility:visible"/><path d="m385.386 872.6.11-.743.287-.746.434-.7.544-.575.609-.413.612-.21.564.018.473.24.328.436.164.598-.018.708-.2.752-.362.726-.494.645-.576.507-.615.306-.601.1-.526-.128-.402-.341-.256-.521-.075-.659M271.762 917.192l.11-.743.287-.746.434-.7.544-.575.609-.413.612-.21.564.018.473.24.328.436.164.598-.018.708-.2.752-.362.726-.494.645-.576.507-.615.306-.601.1-.526-.128-.402-.341-.256-.521-.075-.659M378.873 943.141l-.245 3.676M388.064 804.257l-9.192 138.884" style="fill:none;stroke:red;stroke-width:.999997;stroke-linecap:round;stroke-linejoin:round;stroke-miterlimit:500;stroke-dasharray:none;stroke-opacity:1;visibility:visible"/><path d="m380.701 828.2-.936 14.57M373.396 815.66l.902.345 1.084.637 1.04.839.972 1.019.885 1.173.77 1.305.642 1.396.501 1.461.338 1.48.17 1.468v1.418" style="fill:none;stroke:red;stroke-width:1.99999;stroke-linecap:round;stroke-linejoin:round;stroke-miterlimit:500;stroke-dasharray:none;stroke-opacity:1;visibility:visible"/><path d="m366.887 821.414.165-1.327.331-1.21.488-1.067.63-.896.764-.708.873-.492.966-.272 1.034-.044 1.074.19.184.07M366.04 835.877l.85-14.464M374.106 848.517l-.69-.137-1.075-.442-1.064-.646-1.022-.846-.958-1.016-.868-1.166-.758-1.29-.629-1.377-.493-1.433-.332-1.455-.172-1.441-.006-1.391" style="fill:none;stroke:red;stroke-width:.999997;stroke-linecap:round;stroke-linejoin:round;stroke-miterlimit:500;stroke-dasharray:none;stroke-opacity:1;visibility:visible"/><path d="m369.45 924.471.308.083.992.053.931-.167.851-.385.742-.594.616-.793.478-.96.332-1.11.16-1.243M379.764 842.77l-.168 1.315-.338 1.197-.502 1.045-.634.874-.772.676-.879.468-.963.237-1.028.015c-.002-.004-.374-.078-.374-.078" style="fill:none;stroke:red;stroke-width:1.99999;stroke-linecap:round;stroke-linejoin:round;stroke-miterlimit:500;stroke-dasharray:none;stroke-opacity:1;visibility:visible"/><path d="m367.684 923.8 1.037.479.73.192M366.11 922.646l.541.475 1.034.678M361.567 911.963l.005 1.32.166 1.377.324 1.403.477 1.39.61 1.34" style="fill:none;stroke:red;stroke-width:.999997;stroke-linecap:round;stroke-linejoin:round;stroke-miterlimit:500;stroke-dasharray:none;stroke-opacity:1;visibility:visible"/><path d="m374.86 919.355.879-13.75" style="fill:none;stroke:red;stroke-width:1.99999;stroke-linecap:round;stroke-linejoin:round;stroke-miterlimit:500;stroke-dasharray:none;stroke-opacity:1;visibility:visible"/><path d="m368.477 893.174-1.037-.247-1.002-.028-.93.198-.848.418-.74.616-.611.814-.47.98-.313 1.125-.158 1.25" style="fill:none;stroke:red;stroke-width:.999997;stroke-linecap:round;stroke-linejoin:round;stroke-miterlimit:500;stroke-dasharray:none;stroke-opacity:1;visibility:visible"/><path d="M375.739 905.603v-1.341l-.164-1.404-.325-1.43-.483-1.41-.63-1.364-.751-1.287-.856-1.172-.947-1.025-1.008-.86-1.041-.67-1.056-.466" style="fill:none;stroke:red;stroke-width:1.99999;stroke-linecap:round;stroke-linejoin:round;stroke-miterlimit:500;stroke-dasharray:none;stroke-opacity:1;visibility:visible"/><path d="m362.368 898.299-.801 13.664" style="fill:none;stroke:red;stroke-width:.999997;stroke-linecap:round;stroke-linejoin:round;stroke-miterlimit:500;stroke-dasharray:none;stroke-opacity:1;visibility:visible"/><path d="m355.852 917.222 6.845-120.604M354.97 932.718l.083-1.479" style="fill:none;stroke:red;stroke-width:1.99999;stroke-linecap:round;stroke-linejoin:round;stroke-miterlimit:500;stroke-dasharray:none;stroke-opacity:1;visibility:visible"/><path d="m378.628 946.817-23.687-13.588M373.853 832.8l.155-4.203M373.852 832.8a13.316 13.316 0 0 0 5.588 11.61M370.126 894.047l-.115.97M370.01 895.016l-.459 7.465M387.643 942.886l-8.123 3.52" style="fill:none;stroke:red;stroke-width:.999997;stroke-linecap:round;stroke-linejoin:round;stroke-miterlimit:500;stroke-dasharray:none;stroke-opacity:1;visibility:visible"/><path d="m397.225 802.948-9.583 139.537 2.431 1.216-1.37 24.637" style="fill:none;stroke:red;stroke-width:1.99999;stroke-linecap:round;stroke-linejoin:round;stroke-miterlimit:500;stroke-dasharray:none;stroke-opacity:1;visibility:visible"/><path d="M377.687 756.55a.941.941 0 0 0-.703-.005" style="fill:none;stroke:red;stroke-width:.333333;stroke-linecap:round;stroke-linejoin:round;stroke-miterlimit:500;stroke-dasharray:none;stroke-opacity:1;visibility:visible"/><path d="m372.533 922.874-.11.023-1.2.053-1.063-.19-.767-.426-.419-.59-.07-.694.324-.704.304-.225" style="fill:none;stroke:red;stroke-width:.999997;stroke-linecap:round;stroke-linejoin:round;stroke-miterlimit:500;stroke-dasharray:none;stroke-opacity:1;visibility:visible"/><path d="M374.388 907.214c.363-.104.696-.29.974-.541M375.195 910.494a.564.564 0 0 0 .188-.404M369.012 909.809a.593.593 0 0 0 .15.42M369.162 910.23c.257.277.573.49.925.624M370.087 910.854a6.507 6.507 0 0 0 2.05.426 6.46 6.46 0 0 0 2.083-.242M374.22 911.038c.364-.103.698-.288.975-.544M375.363 906.671a.59.59 0 0 0 .037-.826M375.4 905.845a2.412 2.412 0 0 0-.922-.628M374.478 905.218a6.595 6.595 0 0 0-4.138-.184M370.34 905.034a2.427 2.427 0 0 0-.973.544M369.367 905.578a.592.592 0 0 0-.19.404.595.595 0 0 0 .158.424M369.332 906.406c.252.274.568.49.922.628" style="fill:none;stroke:red;stroke-width:.866664;stroke-linecap:round;stroke-linejoin:round;stroke-miterlimit:2;stroke-dasharray:none;stroke-opacity:1;visibility:visible"/><path d="M370.255 907.034a6.503 6.503 0 0 0 2.052.423 6.53 6.53 0 0 0 2.083-.243M369.179 905.98l-.167 3.827M375.553 906.265l-.17 3.824M370.635 910.965l-.487 11.015M371.834 824.926a.57.57 0 0 0 .138.415M371.972 825.34c.248.274.554.49.898.628M372.871 825.969a6.376 6.376 0 0 0 4.05.234M376.922 826.203a2.37 2.37 0 0 0 .962-.522M377.883 825.68a.556.556 0 0 0 .19-.393M378.073 825.286l.03-.561M371.835 824.925l.21-3.744" style="fill:none;stroke:red;stroke-width:.866664;stroke-linecap:round;stroke-linejoin:round;stroke-miterlimit:2;stroke-dasharray:none;stroke-opacity:1;visibility:visible"/><path d="m367.639 818.91 11.917 5.727" style="fill:none;stroke:red;stroke-width:.999997;stroke-linecap:round;stroke-linejoin:round;stroke-miterlimit:2;stroke-dasharray:none;stroke-opacity:1;visibility:visible"/><path d="m290.563 832.231-.01-.005M300.933 827.683c.042.622-.318 1.2-.896 1.438M300.037 829.12l-9.782 3.227M290.255 832.347a1.45 1.45 0 0 1-1.5-.252M301.16 820.122l-.228 7.561" style="fill:none;stroke:red;stroke-width:.999997;stroke-linecap:round;stroke-linejoin:round;stroke-miterlimit:10;stroke-dasharray:none;stroke-opacity:1;visibility:visible"/><path d="m297.174 824.875.003.055v.167l-.003.053-.005.057-.004.06-.01.053-.008.06-.01.058-.01.059-.014.057-.015.059-.015.057-.018.061-.02.055-.019.059-.02.058-.024.058-.024.059-.025.058-.027.059-.028.056-.03.057-.029.057-.031.058-.035.054-.034.058-.034.053-.038.055-.036.054-.04.054-.037.053-.044.05-.04.052-.043.053-.042.046-.046.051-.046.047-.046.048-.046.045-.048.047-.047.045-.05.043-.052.041-.05.04-.05.041-.054.04-.05.035-.055.04-.055.032-.05.035-.055.033-.055.032-.055.032-.055.027-.055.029-.055.024-.056.028-.057.02-.055.023-.057.021-.058.019-.054.02-.055.017-.058.013-.054.011-.057.015-.055.009-.055.01-.056.007-.053.004-.055.006-.054.002h-.054l-.053.002-.05-.003-.054-.001-.05-.007-.05-.007-.053-.006-.05-.008-.047-.014-.047-.012-.05-.013-.043-.015-.047-.02-.044-.017-.043-.018-.044-.02-.042-.027-.042-.023-.039-.025-.037-.026-.039-.029-.036-.028-.036-.032-.034-.032-.032-.032-.032-.036-.033-.035-.027-.037-.03-.04-.025-.037-.028-.042-.023-.039-.021-.046-.026-.043-.017-.044-.018-.044-.02-.05-.013-.046-.017-.047-.013-.05-.012-.05-.01-.05-.008-.053-.009-.052-.005-.052-.005-.055-.003-.055-.003-.053v-.056l.003-.053.003-.059.004-.055.006-.057.007-.06.01-.055.008-.06.012-.057.013-.057.014-.061.015-.058.018-.057.019-.06.021-.056.022-.059.023-.059.022-.058.026-.059.026-.06.028-.056.03-.056.032-.056.029-.056.035-.057.033-.056.034-.055.038-.052.037-.056.039-.052.04-.056.04-.048.041-.052.045-.05.042-.051.045-.049.044-.048.047-.047.045-.047.048-.044.05-.044.049-.044.051-.041.049-.042.053-.038.05-.042.054-.039.053-.034.053-.033.054-.039.055-.03.052-.034.056-.028.056-.03.054-.028.055-.027.058-.023.057-.024.055-.023.057-.02.055-.021.057-.013.056-.02.055-.015.055-.012.058-.01.055-.014.056-.008.053-.008.055-.004.053-.005.055-.003h.105l.053.001.054.003.049.005.053.008.051.009.049.007.047.011.048.012.046.013.047.017.046.02.045.014.042.021.045.022.04.021.043.025.038.027.04.027.037.026.037.03.035.032.035.032.032.033.032.033.032.038.028.036.03.038.024.04.027.04.025.039.022.044.021.047.02.044.02.045.018.047.014.045.015.048.015.05.01.051.01.049.011.054.007.052.007.05.004.056" style="fill:none;stroke:red;stroke-width:.666665;stroke-linecap:round;stroke-linejoin:round;stroke-miterlimit:10;stroke-dasharray:none;stroke-opacity:1;visibility:visible"/><path d="m288.683 824.263-.193 7.248" style="fill:none;stroke:red;stroke-width:.999997;stroke-linecap:round;stroke-linejoin:round;stroke-miterlimit:10;stroke-dasharray:none;stroke-opacity:1;visibility:visible"/><path d="m290.471 831.685.099-8.65" style="fill:none;stroke:red;stroke-width:.666665;stroke-linecap:round;stroke-linejoin:round;stroke-miterlimit:10;stroke-dasharray:none;stroke-opacity:1;visibility:visible"/><path d="M288.755 832.094a.844.844 0 0 1-.265-.583" style="fill:none;stroke:red;stroke-width:.999997;stroke-linecap:round;stroke-linejoin:round;stroke-miterlimit:10;stroke-dasharray:none;stroke-opacity:1;visibility:visible"/><path d="M290.471 831.685a.633.633 0 0 1-.216.661" style="fill:none;stroke:red;stroke-width:.666665;stroke-linecap:round;stroke-linejoin:round;stroke-miterlimit:10;stroke-dasharray:none;stroke-opacity:1;visibility:visible"/><path d="m372.966 802.56-.01-.005M383.334 798.01c.042.623-.318 1.2-.896 1.437M382.439 799.447l-9.781 3.226M372.658 802.673a1.444 1.444 0 0 1-1.5-.253M383.56 790.45l-.226 7.56" style="fill:none;stroke:red;stroke-width:.999997;stroke-linecap:round;stroke-linejoin:round;stroke-miterlimit:10;stroke-dasharray:none;stroke-opacity:1;visibility:visible"/><path d="m379.576 795.203.004.055v.167l-.005.054-.004.055-.004.06-.01.056-.007.059-.01.057-.012.057-.013.058-.015.059-.014.058-.019.06-.019.057-.02.058-.02.057-.025.06-.023.059-.025.056-.027.058-.028.058-.029.057-.03.057-.031.058-.034.054-.034.056-.035.057-.037.051-.036.055-.04.055-.038.052-.044.052-.04.05-.042.052-.043.047-.045.052-.047.047-.045.046-.047.047-.048.045-.047.047-.05.042-.051.041-.05.041-.052.04-.053.039-.05.038-.054.038-.054.033-.052.033-.055.035-.053.03-.056.034-.056.027-.055.03-.055.023-.056.028-.056.02-.056.021-.057.022-.057.017-.055.021-.055.02-.057.01-.055.011-.057.018-.055.009-.054.008-.056.007-.056.006-.052.003-.055.004h-.107l-.05-.002-.054-.002-.049-.003-.052-.009-.052-.006-.049-.008-.047-.014-.048-.013-.05-.013-.042-.015-.048-.019-.044-.018-.043-.018-.044-.02-.04-.026-.044-.024-.038-.027-.038-.023-.038-.032-.036-.025-.036-.031-.035-.035-.032-.029-.032-.039-.032-.034-.028-.036-.03-.041-.025-.038-.026-.04-.024-.042-.022-.043-.025-.042-.017-.046-.019-.044-.019-.05-.014-.045-.016-.048-.014-.049-.012-.05-.009-.052-.01-.051-.006-.052-.007-.054-.005-.053-.003-.055-.002-.054v-.055l.002-.055.003-.057.005-.056.006-.059.006-.057.01-.055.01-.06.01-.057.013-.059.015-.057.014-.061.02-.059.017-.059.021-.056.022-.058.023-.058.023-.059.025-.059.027-.059.028-.057.03-.055.03-.057.031-.058.033-.055.034-.057.035-.053.037-.053.038-.055.038-.052.04-.057.04-.047.042-.053.044-.05.042-.051.046-.049.044-.049.046-.047.046-.045.048-.047.05-.042.049-.043.05-.04.05-.044.054-.039.049-.04.052-.041.055-.034.052-.033.055-.037.054-.03.052-.036.058-.027.054-.029.055-.03.055-.025.057-.023.057-.024.055-.023.057-.02.056-.021.056-.014.056-.02.055-.015.056-.01.057-.013.055-.012.056-.008.053-.008.056-.004.054-.007.053-.002.055.001h.104l.053.004.051.004.051.008.051.01.048.006.048.012.048.012.047.013.047.016.045.02.045.015.043.021.044.022.041.021.042.024.038.025.04.03.038.025.036.03.036.032.032.033.034.032.032.033.032.04.028.035.03.038.024.04.028.039.024.04.022.043.022.045.02.047.02.043.017.047.015.047.014.048.015.05.01.048.012.053.009.052.008.052.004.052.006.054" style="fill:none;stroke:red;stroke-width:.666665;stroke-linecap:round;stroke-linejoin:round;stroke-miterlimit:10;stroke-dasharray:none;stroke-opacity:1;visibility:visible"/><path d="m371.086 794.59-.196 7.248" style="fill:none;stroke:red;stroke-width:.999997;stroke-linecap:round;stroke-linejoin:round;stroke-miterlimit:10;stroke-dasharray:none;stroke-opacity:1;visibility:visible"/><path d="m372.874 802.014.096-8.65" style="fill:none;stroke:red;stroke-width:.666665;stroke-linecap:round;stroke-linejoin:round;stroke-miterlimit:10;stroke-dasharray:none;stroke-opacity:1;visibility:visible"/><path d="M371.158 802.42a.844.844 0 0 1-.266-.581" style="fill:none;stroke:red;stroke-width:.999997;stroke-linecap:round;stroke-linejoin:round;stroke-miterlimit:10;stroke-dasharray:none;stroke-opacity:1;visibility:visible"/><path d="M372.874 802.014a.63.63 0 0 1-.216.66" style="fill:none;stroke:red;stroke-width:.666665;stroke-linecap:round;stroke-linejoin:round;stroke-miterlimit:10;stroke-dasharray:none;stroke-opacity:1;visibility:visible"/><path d="m457.775 653.455.403 1.669.474-.305c.662-.386 1.343-.451 2.04-.199a2.976 2.976 0 0 1 1.603 1.328c.417.717.51 1.455.273 2.207a3.008 3.008 0 0 1-1.412 1.749 2.955 2.955 0 0 1-1.404.4 2.485 2.485 0 0 1-1.418-.37l.289-.986c.232.188.52.307.867.355.346.048.666.024.964-.076l.146-.084.16-.069c.46-.267.756-.664.889-1.191a1.904 1.904 0 0 0-.205-1.487c-.254-.433-.641-.721-1.164-.86a1.835 1.835 0 0 0-1.454.183l-.066.037-.05.044a1.625 1.625 0 0 0-.534.538 1.943 1.943 0 0 0-.291.757l-.165.097-1.006-4.18 2.78-1.624.466.792-2.185 1.275M450.902 657.466l.017-1.072 1.557-.909 4.048 6.936-.828.484-3.588-6.144-1.206.705" style="fill:none;fill-opacity:1;fill-rule:nonzero;stroke:red;stroke-width:1.33333;visibility:visible"/><path d="M450.142 650.61a75.906 75.906 0 0 1-1.68-15.92c0-15.208 4.49-29.366 12.218-41.222" style="fill:none;stroke:red;stroke-width:.999997;stroke-linecap:round;stroke-linejoin:round;stroke-miterlimit:4;stroke-dasharray:none;stroke-opacity:1;visibility:visible"/><path d="m276.555 738.868-2.22 7.41M200.007 762.797l-18.608-5.6M372.966 802.56l9.341-1.855M281.348 775.265l-15.48-.393M282.25 765.101l2.462-.491M280.796 770.352l.929 5.884" style="fill:none;stroke:red;stroke-width:1.99999;stroke-linecap:round;stroke-linejoin:round;stroke-miterlimit:500;stroke-dasharray:none;stroke-opacity:1;visibility:visible"/><path d="m378.873 756.393 12.437 15.553M383.56 790.45l6.307-3.6" style="fill:none;stroke:red;stroke-width:.999997;stroke-linecap:round;stroke-linejoin:round;stroke-miterlimit:500;stroke-dasharray:none;stroke-opacity:1;visibility:visible"/><path d="m382.438 799.447 6.43-12.24" style="fill:none;stroke:red;stroke-width:1.99999;stroke-linecap:round;stroke-linejoin:round;stroke-miterlimit:500;stroke-dasharray:none;stroke-opacity:1;visibility:visible"/><path d="m257.587 797.482 1.378 12.938M102.618 710.045l-11.968 4.879M279.958 726.917l9.832 5.685M200.007 762.797l-7.15.078M266.62 847.378l4.306 1.504" style="fill:none;stroke:red;stroke-width:.999997;stroke-linecap:round;stroke-linejoin:round;stroke-miterlimit:500;stroke-dasharray:none;stroke-opacity:1;visibility:visible"/><path d="m281.676 841.898-.116 2.933" style="fill:none;stroke:red;stroke-width:1.99999;stroke-linecap:round;stroke-linejoin:round;stroke-miterlimit:500;stroke-dasharray:none;stroke-opacity:1;visibility:visible"/><path d="m388.889 802.87-.825 1.387" style="fill:none;stroke:red;stroke-width:.999997;stroke-linecap:round;stroke-linejoin:round;stroke-miterlimit:500;stroke-dasharray:none;stroke-opacity:1;visibility:visible"/><path d="m361.567 911.963-5.715 5.259M370.89 801.838l-8.193-5.22M355.852 917.222l-.8 14.017" style="fill:none;stroke:red;stroke-width:1.99999;stroke-linecap:round;stroke-linejoin:round;stroke-miterlimit:500;stroke-dasharray:none;stroke-opacity:1;visibility:visible"/><path d="m371.835 824.925 2.173 3.672M369.179 905.98l.372-3.499" style="fill:none;stroke:red;stroke-width:.999997;stroke-linecap:round;stroke-linejoin:round;stroke-miterlimit:500;stroke-dasharray:none;stroke-opacity:1;visibility:visible"/><path d="m402.21 798.024-4.985 4.924" style="fill:none;stroke:red;stroke-width:1.99999;stroke-linecap:round;stroke-linejoin:round;stroke-miterlimit:500;stroke-dasharray:none;stroke-opacity:1;visibility:visible"/><path d="m378.873 756.393-1.186.157M365.88 765.09l11.104-8.545" style="fill:none;stroke:red;stroke-width:.333333;stroke-linecap:round;stroke-linejoin:round;stroke-miterlimit:500;stroke-dasharray:none;stroke-opacity:1;visibility:visible"/><path d="m374.22 911.038-1.687 11.836" style="fill:none;stroke:red;stroke-width:.999997;stroke-linecap:round;stroke-linejoin:round;stroke-miterlimit:500;stroke-dasharray:none;stroke-opacity:1;visibility:visible"/><path d="m374.86 919.355-4.712 2.625M366.887 821.414l5.159-.233" style="fill:none;stroke:red;stroke-width:.866664;stroke-linecap:round;stroke-linejoin:round;stroke-miterlimit:2;stroke-dasharray:none;stroke-opacity:1;visibility:visible"/><path d="m372.87 825.968-5.231-7.058M372.871 825.969l6.685-1.332" style="fill:none;stroke:red;stroke-width:.999997;stroke-linecap:round;stroke-linejoin:round;stroke-miterlimit:2;stroke-dasharray:none;stroke-opacity:1;visibility:visible"/><path d="m290.471 831.685 10.689-11.563" style="fill:none;stroke:red;stroke-width:.999997;stroke-linecap:round;stroke-linejoin:round;stroke-miterlimit:10;stroke-dasharray:none;stroke-opacity:1;visibility:visible"/><path d="m300.932 827.683-3.758-2.808M300.933 827.683l-3.759-2.807" style="fill:none;stroke:red;stroke-width:.666665;stroke-linecap:round;stroke-linejoin:round;stroke-miterlimit:10;stroke-dasharray:none;stroke-opacity:1;visibility:visible"/><path d="m282.118 825.192 6.565-.929" style="fill:none;stroke:red;stroke-width:.999997;stroke-linecap:round;stroke-linejoin:round;stroke-miterlimit:10;stroke-dasharray:none;stroke-opacity:1;visibility:visible"/><path d="m297.174 824.876-6.604-1.841" style="fill:none;stroke:red;stroke-width:.666665;stroke-linecap:round;stroke-linejoin:round;stroke-miterlimit:10;stroke-dasharray:none;stroke-opacity:1;visibility:visible"/><path d="m389.867 786.85-6.307 3.6" style="fill:none;stroke:red;stroke-width:.999997;stroke-linecap:round;stroke-linejoin:round;stroke-miterlimit:10;stroke-dasharray:none;stroke-opacity:1;visibility:visible"/><path d="m372.874 802.014 6.702-6.811M383.334 798.01l-3.758-2.807" style="fill:none;stroke:red;stroke-width:.666665;stroke-linecap:round;stroke-linejoin:round;stroke-miterlimit:10;stroke-dasharray:none;stroke-opacity:1;visibility:visible"/><path d="m372.874 802.014-1.788-7.424" style="fill:none;stroke:red;stroke-width:.999997;stroke-linecap:round;stroke-linejoin:round;stroke-miterlimit:10;stroke-dasharray:none;stroke-opacity:1;visibility:visible"/><path d="m370.89 801.838 2.08-8.474" style="fill:none;stroke:red;stroke-width:.666665;stroke-linecap:round;stroke-linejoin:round;stroke-miterlimit:10;stroke-dasharray:none;stroke-opacity:1;visibility:visible"/><path d="m450.142 650.61 7.633 2.845" style="fill:none;fill-opacity:1;fill-rule:nonzero;stroke:red;stroke-width:1.33333;visibility:visible"/><path d="m457.775 653.455-7.633-2.845" style="fill:none;stroke:red;stroke-width:.999997;stroke-linecap:round;stroke-linejoin:round;stroke-miterlimit:4;stroke-dasharray:none;stroke-opacity:1;visibility:visible"/><path d="m214.35 946.817 30.444-12.83M245.064 915.73l-62.073 25.552M241.428 1013.986l22.121 15.128M244.214 973.28l-12.201-6.645-14.387-7.663-14.045-7.317-13.718-6.968-13.385-6.639-13.076-6.313-12.761-6.01-12.465-5.7-12.168-5.4-11.264-4.857-1.971-.835M100.95 912.914a1.768 1.768 0 0 0-1.137 1.716M241.426 1013.987a1753.257 1753.257 0 0 0-140.292-87.255M99.816 914.63l.428 10.652M111.468 908.912l-10.519 4.001M112.773 908.934a1.747 1.747 0 0 0-1.305-.024M100.244 925.282a1.75 1.75 0 0 0 .892 1.45M354.184 949.648l-76.528 35.088" style="fill:none;stroke:#00ff4a;stroke-width:1.99999;stroke-linecap:round;stroke-linejoin:round;stroke-miterlimit:500;stroke-dasharray:none;stroke-opacity:1;visibility:visible" visibility="hidden"/><path d="m373.771 973.407 2.999 1.776" style="fill:none;stroke:#00ff4a;stroke-width:.999997;stroke-linecap:round;stroke-linejoin:round;stroke-miterlimit:500;stroke-dasharray:none;stroke-opacity:1;visibility:visible" visibility="hidden"/><path d="M245.266 901.871a1272.966 1272.966 0 0 0-35.356-17.201M245.642 876.863a1146.018 1146.018 0 0 0-25.065-9.063M344.78 918.31a1497.986 1497.986 0 0 0-64.49-27.912" style="fill:none;stroke:#00ff4a;stroke-width:1.99999;stroke-linecap:round;stroke-linejoin:round;stroke-miterlimit:500;stroke-dasharray:none;stroke-opacity:1;visibility:visible" visibility="hidden"/><path d="M335.476 950.814a1743.933 1743.933 0 0 0-51.618-28.857" style="fill:none;stroke:#00ff4a;stroke-width:.999997;stroke-linecap:round;stroke-linejoin:round;stroke-miterlimit:500;stroke-dasharray:none;stroke-opacity:1;visibility:visible" visibility="hidden"/><path d="M210.04 871.394a1.66 1.66 0 0 0-1.066 1.544M208.977 872.938l-.012 10.236M219.449 867.817l-9.408 3.577M220.577 867.8a1.66 1.66 0 0 0-1.13.017M208.965 883.174a1.632 1.632 0 0 0 .945 1.495" style="fill:none;stroke:#00ff4a;stroke-width:1.99999;stroke-linecap:round;stroke-linejoin:round;stroke-miterlimit:500;stroke-dasharray:none;stroke-opacity:1;visibility:visible" visibility="hidden"/><path d="m267.344 998.154 10.067-4.644M278.475 955.405l58.825 1.945" style="fill:none;stroke:#00ff4a;stroke-width:.999997;stroke-linecap:round;stroke-linejoin:round;stroke-miterlimit:500;stroke-dasharray:none;stroke-opacity:1;visibility:visible" visibility="hidden"/><path d="m350.542 951.31-46.604-1.535M214.814 957.506l29.621.988M278.357 959.62l50.319 1.673" style="fill:none;stroke:#00ff4a;stroke-width:1.99999;stroke-linecap:round;stroke-linejoin:round;stroke-miterlimit:500;stroke-dasharray:none;stroke-opacity:1;visibility:visible" visibility="hidden"/><path d="m206.172 953.008 38.323 1.268" style="fill:none;stroke:#00ff4a;stroke-width:.999997;stroke-linecap:round;stroke-linejoin:round;stroke-miterlimit:500;stroke-dasharray:none;stroke-opacity:1;visibility:visible" visibility="hidden"/><path d="m244.588 947.812-42.857-1.413" style="fill:none;stroke:#00ff4a;stroke-width:1.99999;stroke-linecap:round;stroke-linejoin:round;stroke-miterlimit:500;stroke-dasharray:none;stroke-opacity:1;visibility:visible" visibility="hidden"/><path d="m285.214 915.49.121-4.06" style="fill:none;stroke:#00ff4a;stroke-width:.999997;stroke-linecap:round;stroke-linejoin:round;stroke-miterlimit:500;stroke-dasharray:none;stroke-opacity:1;visibility:visible" visibility="hidden"/><path d="m285.214 915.49-6.49 30.98" style="fill:none;stroke:#00ff4a;stroke-width:1.99999;stroke-linecap:round;stroke-linejoin:round;stroke-miterlimit:500;stroke-dasharray:none;stroke-opacity:1;visibility:visible" visibility="hidden"/><path d="M285.347 910.923a3.499 3.499 0 0 0-1.49-2.943M197.073 948.353l4.635-1.943M285.335 911.43l.013-.508M284.602 910.147l-3.967 1.659M279.864 905.64l3.993 2.339" style="fill:none;stroke:#00ff4a;stroke-width:.999997;stroke-linecap:round;stroke-linejoin:round;stroke-miterlimit:500;stroke-dasharray:none;stroke-opacity:1;visibility:visible" visibility="hidden"/><path d="M275.589 1023.864a2.887 2.887 0 0 0 1.533-2.353M264.626 1029.102l10.964-5.239M263.153 1028.168a.95.95 0 0 0 1.472.934" style="fill:none;stroke:#00ff4a;stroke-width:1.99999;stroke-linecap:round;stroke-linejoin:round;stroke-miterlimit:500;stroke-dasharray:none;stroke-opacity:1;visibility:visible" visibility="hidden"/><path d="m263.758 1001.48-.605 26.69M265.322 999.088a2.913 2.913 0 0 0-1.564 2.392M265.322 999.088l11.09-5.116M277.865 994.954a.955.955 0 0 0-.785-1.108.947.947 0 0 0-.667.126" style="fill:none;stroke:#00ff4a;stroke-width:.999997;stroke-linecap:round;stroke-linejoin:round;stroke-miterlimit:500;stroke-dasharray:none;stroke-opacity:1;visibility:visible" visibility="hidden"/><path d="m277.865 994.954-.743 26.557" style="fill:none;stroke:#00ff4a;stroke-width:1.99999;stroke-linecap:round;stroke-linejoin:round;stroke-miterlimit:500;stroke-dasharray:none;stroke-opacity:1;visibility:visible" visibility="hidden"/><path d="m240.143 984.352 20.401 13.532M103.514 915.128l9.063 3.992 12.77 5.804 13.098 6.147 13.437 6.485 13.783 6.844 14.146 7.207 14.508 7.592 14.885 7.974 15.272 8.384 15.667 8.795M377.157 962.55l-99.692 46.861M368.188 957.303l8.97 5.248M355.34 949.786l7.715 4.513M277.184 1019.323l.281-9.912M376.533 972.092l.624-9.541" style="fill:none;stroke:#00ff4a;stroke-width:.999997;stroke-linecap:round;stroke-linejoin:round;stroke-miterlimit:500;stroke-dasharray:none;stroke-opacity:1;visibility:visible" visibility="hidden"/><path d="m375.662 972.507-98.477 46.816" style="fill:none;stroke:#00ff4a;stroke-width:1.99999;stroke-linecap:round;stroke-linejoin:round;stroke-miterlimit:500;stroke-dasharray:none;stroke-opacity:1;visibility:visible" visibility="hidden"/><path d="M379.52 946.406a2.832 2.832 0 0 0-1.447 2.23M355.338 949.787a1.247 1.247 0 0 0-1.155-.139" style="fill:none;stroke:#00ff4a;stroke-width:.999997;stroke-linecap:round;stroke-linejoin:round;stroke-miterlimit:500;stroke-dasharray:none;stroke-opacity:1;visibility:visible" visibility="hidden"/><path d="M387.28 970.536a2.834 2.834 0 0 0 1.42-2.196M387.282 970.536l-9.668 4.619" style="fill:none;stroke:#00ff4a;stroke-width:1.99999;stroke-linecap:round;stroke-linejoin:round;stroke-miterlimit:500;stroke-dasharray:none;stroke-opacity:1;visibility:visible" visibility="hidden"/><path d="m376.393 974.202.001.299.055.264.108.214.148.16.19.098.218.04.24-.03.261-.093M378.075 948.636 354.018 934.8M378.075 948.636l-1.683 25.567M194.622 945.65s50.313-20.928 50.319-20.928M374.475 973.07l1.917 1.132M245.493 885.534a1213.101 1213.101 0 0 0-33.378-12.57M354.016 934.8a1652.388 1652.388 0 0 0-74.026-33.689M367.744 953.503l.102-.785-.068-.876-.219-.915-.369-.887-.483-.796-.577-.658-.618-.47-.617-.253-.588-.012-.505.224-.394.441-.254.635-.1.783.065.876.216.914.368.882.49.797.569.659" style="fill:none;stroke:#00ff4a;stroke-width:.999997;stroke-linecap:round;stroke-linejoin:round;stroke-miterlimit:500;stroke-dasharray:none;stroke-opacity:1;visibility:visible" visibility="hidden"/><path d="m281.53 998.687.019-.145.028-.154.042-.141.067-.136.077-.124.095-.123M281.52 998.858l.01-.171M281.858 997.864l4.755-3.593M282.127 999.982l-.13-.052-.119-.08-.095-.094-.09-.108-.074-.148-.052-.158-.037-.212-.01-.211v-.061M286.613 994.27l.147-.172.137-.198.126-.213.102-.232.077-.232.07-.245.052-.26.031-.26.006-.152M287.36 992.307l.065-1.268M287.426 991.039l.019-.156.022-.15.036-.154.048-.149.059-.14.063-.14.076-.132.078-.118.087-.113.096-.103.108-.088.11-.078.145-.076M296.533 987.714l-7.035 2.745M295.415 986.694l-7.04 2.746M295.415 986.694l.082-.022.09-.025.079-.01.092.005.064.006.068.018M296.923 998.984l.563-10.76M296.922 998.984v.044l-.01.016v.052l-.006.018v.036l-.004.014v.016l-.01.014v.016l-.008.014v.024l-.004.015v.01l-.014.017v.017l-.004.013-.005.016v.024l-.011.012-.007.016-.008.015v.016l-.006.019-.008.01-.007.012-.008.02-.008.015-.01.016v.01l-.014.017-.004.016-.012.014-.004.015-.005.016-.01.016-.005.015-.01.01-.005.016-.006.016-.019.015-.009.008-.005.013-.005.019-.016.015-.005.014-.012.007-.013.013-.011.018-.004.013-.016.008-.005.016-.02.015-.005.016-.014.005-.008.016-.012.008-.01.015-.013.016-.011.005-.012.016-.017.008-.002.016-.016.007-.019.016-.009.008-.013.014-.011.008-.01.015-.014.01-.014.006-.018.015-.015.006-.004.008-.017.016-.012.006-.015.01-.018.008-.013.007-.016.016-.013.008-.018.004-.006.01-.017.011-.008.006-.019.008-.016.006-.014.007-.015.008-.012.005-.018.011-.021.007-.015.008-.016.008h-.017l-.01.008M296.466 986.814l.01.009h.019l.017.007.018.009.02.004.015.005.025.012.015.002.02.008.015.009.017.007.02.008.016.005.017.004.02.01.016.01.01.011.014.005.025.012.016.015.015.002.014.012.018.012.01.006.024.012.014.011.017.014.014.007.016.012.017.01.008.016.016.011.016.01.019.016.01.013.011.005.012.016.015.013.017.014.015.017.004.013.017.014.015.008.015.017.005.01.015.018.006.013.019.016.014.016.004.019.017.015.01.016.006.016.014.013.008.015.015.013.006.025.007.008.01.016.01.019.011.02.009.015.004.014.011.023.007.016.005.013.01.024.008.011.003.016.008.021.01.018.006.02.007.016v.014l.005.022.01.016v.022l.007.016.01.02v.015l.008.023v.012l.005.022v.018l.008.021v.036l.01.024v.075l.005.01v.123l-.006.013M295.89 986.667l.575.147M282.127 999.982l2.893 1.537M288.977 1003.056l-.007.008-.016.002-.005.004h-.016l-.003.005h-.013l-.017.01h-.01l-.01.007h-.022l-.005.011-.013.001h-.002l-.018.006h-.01l-.007.006h-.018l-.007.002h-.01l-.004.009h-.031l-.007.008h-.03l-.008.007h-.05l-.008.008H288.577l-.015.002h-.005l-.004.008h-.086l-.017.002h-.011l-.018.001h-.046l-.002-.008h-.033l-.007.001h-.007l-.016.002h-.015l-.008-.008h-.049l-.01-.006h-.027l-.007-.004h-.03l-.007-.011-.009.003h-.021l-.01-.008h-.014l-.006-.004h-.023l-.005-.012h-.011M285.02 1001.52l3.036 1.59M291.862 995.867v.348l.036.328.065.292.094.257.128.219.155.177.186.12.201.07.214.018.224-.042.232-.086.229-.142.22-.194.213-.232.203-.28.177-.298.163-.335.128-.355.1-.358.067-.364.037-.354v-.349l-.03-.319-.066-.294-.105-.266-.12-.217-.16-.168-.175-.133-.203-.068-.212-.016-.222.04-.234.084-.23.149-.227.188-.22.236-.195.268-.178.31-.162.326-.13.353-.101.364-.066.367-.036.356M288.494 1002.04l.553-10.802M352.348 966.02l.02-.145.026-.152.044-.141.066-.136.078-.126.094-.12M352.34 966.192l.007-.172M352.676 965.2l4.755-3.597M352.946 967.315l-.13-.05-.121-.081-.093-.092-.09-.111-.075-.145-.051-.16-.038-.21-.008-.214v-.06M357.432 961.603l.148-.172.136-.196.127-.215.101-.232.078-.232.07-.245.051-.26.032-.26.005-.15M358.18 959.64l.065-1.268M358.246 958.374l.018-.158.023-.148.036-.157.048-.148.057-.14.064-.137.076-.136.08-.115.085-.115.097-.102.108-.088.11-.078.145-.076M367.352 955.047l-7.034 2.745M366.234 954.03l-7.04 2.746M366.234 954.03l.081-.023.09-.025.081-.01.089.006.065.006.068.016M367.74 966.32l.564-10.762M367.74 966.32v.042l-.009.018v.051l-.008.017v.036l-.003.014v.016l-.009.014v.016l-.01.014v.025l-.002.015v.01l-.015.016v.016l-.004.015-.005.016v.021l-.01.014-.008.016-.007.014v.016l-.007.02-.008.009-.007.014-.008.019-.008.014-.009.016-.001.01-.012.018-.006.016-.012.015-.004.015-.005.014-.01.016-.004.015-.009.01-.008.017-.005.016-.017.014-.01.008-.006.015-.004.017-.016.015-.006.016-.012.005-.013.015-.01.016-.003.015-.018.006-.005.016-.019.016-.006.016-.014.006-.008.016-.012.006-.008.016-.016.015-.01.007-.01.014-.019.01-.002.016-.016.005-.017.017-.01.007-.014.016-.01.007-.011.016-.015.008-.012.01-.019.01-.015.008-.004.008-.017.016-.012.005-.015.01-.016.01-.014.007-.016.014-.014.008-.016.006-.008.01-.017.008-.008.007-.017.008-.018.008-.012.007-.017.008-.012.004-.017.011-.022.006-.014.008-.016.01h-.018l-.009.008M367.283 954.147l.01.008h.019l.018.008.018.008.02.004.013.005.026.011.015.004.021.007.013.01.018.006.02.01.016.003.017.004.021.01.015.01.01.012.014.005.025.011.016.015.015.002.015.011.017.015.01.004.025.014.013.011.017.012.014.008.016.012.017.01.008.014.016.012.016.01.019.017.01.012.01.006.013.015.015.013.016.015.016.016.004.015.017.013.015.008.016.017.004.011.016.016.005.013.019.016.014.016.004.02.016.014.011.017.005.015.015.014.008.014.015.014.006.026.007.008.01.016.01.017.012.02.007.016.006.015.012.021.004.016.006.013.01.024.008.012.003.016.009.022.01.017.005.019.007.017v.015l.006.02.008.016v.024l.008.016.01.02v.014l.008.022v.013l.005.023v.016l.008.021v.037l.01.024v.075l.005.01v.123l-.006.012M366.71 954l.574.148M352.946 967.315l2.892 1.539M359.795 970.39l-.007.009-.016.001-.005.003-.01.001h-.005l-.004.006h-.013l-.015.01h-.01l-.013.006h-.021l-.005.012-.011.001h-.004l-.016.005h-.01l-.007.007h-.02l-.007.001h-.009l-.005.008-.018.002h-.013l-.007.006h-.03l-.007.007h-.05l-.01.008-.007.001h-.026l-.01.002h-.03l-.003.008h-.048l-.013.001h-.024l-.019.001h-.073l-.004-.006h-.076l-.008-.007h-.036l-.014.001-.01-.006h-.026l-.008-.006h-.03l-.006-.008-.01.002h-.02l-.01-.007h-.014l-.007-.005-.015.001h-.008l-.005-.013-.01.001M355.84 968.854l3.035 1.589M362.68 963.203v.347l.036.33.066.29.093.257.128.219.157.177.184.12.202.07.213.017.224-.04.232-.087.23-.143.219-.192.213-.232.203-.28.178-.298.162-.336.128-.355.1-.357.067-.364.037-.354v-.349l-.029-.319-.068-.296-.104-.265-.12-.216-.159-.167-.177-.134-.201-.07-.212-.014-.223.04-.233.085-.23.148-.228.187-.218.237-.196.268-.179.308-.161.328-.13.352-.102.365-.066.367-.036.356M359.314 969.374l.553-10.804" style="fill:none;stroke:#00ff4a;stroke-width:.999997;stroke-linecap:round;stroke-linejoin:round;stroke-miterlimit:4;stroke-dasharray:none;stroke-opacity:1;visibility:visible" visibility="hidden"/><path d="m201.708 946.41 12.642.407M201.708 946.41l-18.717-5.128M240.143 984.352l4.071-11.072M277.41 993.51l.246-8.774" style="fill:none;stroke:#00ff4a;stroke-width:1.99999;stroke-linecap:round;stroke-linejoin:round;stroke-miterlimit:500;stroke-dasharray:none;stroke-opacity:1;visibility:visible" visibility="hidden"/><path d="m355.34 949.786-19.864 1.028M283.857 907.979l.001 13.978M265.322 999.088l2.022-.934M277.656 984.736l-.245 8.774M112.773 908.934l-9.259 6.194M363.055 954.3l5.133 3.003M368.188 957.303l-5.133-3.004" style="fill:none;stroke:#00ff4a;stroke-width:.999997;stroke-linecap:round;stroke-linejoin:round;stroke-miterlimit:500;stroke-dasharray:none;stroke-opacity:1;visibility:visible" visibility="hidden"/><path d="m376.533 972.092 12.167-3.752" style="fill:none;stroke:#00ff4a;stroke-width:1.99999;stroke-linecap:round;stroke-linejoin:round;stroke-miterlimit:500;stroke-dasharray:none;stroke-opacity:1;visibility:visible" visibility="hidden"/><path d="m201.708 946.41-7.086-.76M220.577 867.8l-8.462 5.164" style="fill:none;stroke:#00ff4a;stroke-width:.999997;stroke-linecap:round;stroke-linejoin:round;stroke-miterlimit:500;stroke-dasharray:none;stroke-opacity:1;visibility:visible" visibility="hidden"/><path d="m286.613 994.271 9.383 5.987M287.36 992.307l4.502 3.56M289.047 991.238l2.815 4.629M291.862 995.867l-3.368 6.173M357.431 961.603l9.384 5.99M358.18 959.64l4.5 3.563M359.867 958.57l2.813 4.633M362.68 963.203l-3.366 6.171" style="fill:none;stroke:#00ff4a;stroke-width:.999997;stroke-linecap:round;stroke-linejoin:round;stroke-miterlimit:4;stroke-dasharray:none;stroke-opacity:1;visibility:visible" visibility="hidden"/><path d="m289.79 732.602-.592 15.914M279.958 726.917l-16.824 5.164M200.007 762.797l10.811 10.523" style="fill:none;stroke:red;stroke-width:1.99999;stroke-linecap:round;stroke-linejoin:round;stroke-miterlimit:500;stroke-dasharray:none;stroke-opacity:1;visibility:visible"/><path d="m200.007 762.797 1.13 5.318M285.214 915.49l-13.452 1.702" style="fill:none;stroke:red;stroke-width:.999997;stroke-linecap:round;stroke-linejoin:round;stroke-miterlimit:500;stroke-dasharray:none;stroke-opacity:1;visibility:visible"/><path d="m335.476 950.814 1.824 6.536" style="fill:none;stroke:#00ff4a;stroke-width:.999997;stroke-linecap:round;stroke-linejoin:round;stroke-miterlimit:500;stroke-dasharray:none;stroke-opacity:1;visibility:visible" visibility="hidden"/><path d="m335.476 950.814 15.066.496M214.35 946.817l.464 10.689M335.476 950.814l-6.8 10.48" style="fill:none;stroke:#00ff4a;stroke-width:1.99999;stroke-linecap:round;stroke-linejoin:round;stroke-miterlimit:500;stroke-dasharray:none;stroke-opacity:1;visibility:visible" visibility="hidden"/><path d="m201.708 946.41 4.464 6.598" style="fill:none;stroke:#00ff4a;stroke-width:.999997;stroke-linecap:round;stroke-linejoin:round;stroke-miterlimit:500;stroke-dasharray:none;stroke-opacity:1;visibility:visible" visibility="hidden"/></svg>