<svg xmlns="http://www.w3.org/2000/svg" baseProfile="full" height="793.701" preserveAspectRatio="xMinYMin meet" style="width:912px;height:1303px" width="559.371" xml:space="preserve"><path d="m322.909 392.269-.335-.003-.496-.004h-.456l-.395.005a11.284 11.284 0 0 0-.586.023 2.672 2.672 0 0 0-.154.013c-.057.007-.12.018-.19.03a2.619 2.619 0 0 0-.897.352 2.583 2.583 0 0 0-1.114 1.51 1.723 1.723 0 0 0-.083.515c0 .02 0 .043.003.067M328.17 447.911c-.004-3.81-.007-7.63-.021-11.45-.019-5.797-.063-11.599-.119-17.414a2959.93 2959.93 0 0 0-.187-15.997c-.037-2.547-.081-5.096-.122-7.648M328.049 479.407c.021-2.327.046-4.659.061-6.995.048-5.888.06-11.784.07-17.69M327.682 508.727l.003-.027c.12-6.041.205-12.093.262-18.148l.01-1.012M325.77 577.252c.179-4.761.359-9.53.524-14.306.208-6.003.39-12.02.56-18.046a2519.946 2519.946 0 0 0 .656-27.636M315.666 513.328l-.01 1.592c-.032 5.769-.026 11.523-.01 17.269.016 5.804.041 11.599.084 17.384.032 4.881.076 9.757.137 14.621M315.937 569.278c.038 2.64.083 5.28.125 7.916M315.789 494.56c-.012 1.075-.024 2.151-.034 3.231a1219.208 1219.208 0 0 0-.037 6.243M318.169 395.71c-.089 2.285-.18 4.567-.266 6.848a3481.107 3481.107 0 0 0-1.357 45.292 3561.63 3561.63 0 0 0-.341 16.328c-.105 5.568-.2 11.126-.267 16.676l-.043 4.008" style="fill:none;stroke:red;stroke-width:1.6;stroke-linecap:round;stroke-linejoin:round;stroke-miterlimit:10;stroke-dasharray:none;stroke-opacity:1;visibility:visible"/><path d="M327.709 394.891c-.007-.148-.012-.3-.036-.445a2.18 2.18 0 0 0-.148-.49 2.637 2.637 0 0 0-.483-.769 2.89 2.89 0 0 0-.296-.277 2.413 2.413 0 0 0-.604-.361 2.484 2.484 0 0 0-.492-.152c-.057-.014-.112-.022-.161-.03l-.136-.016a8.145 8.145 0 0 0-.455-.033 15.59 15.59 0 0 0-.355-.013l-.45-.015-.49-.01-.513-.01h-.183" style="fill:none;stroke:red;stroke-width:1.6;stroke-linecap:round;stroke-linejoin:round;stroke-miterlimit:10;stroke-dasharray:none;stroke-opacity:1;visibility:visible"/><path d="m325.38 577.638.078-.038a.93.93 0 0 0 .169-.132.499.499 0 0 0 .115-.17.793.793 0 0 0 .03-.172M316.062 577.032a.672.672 0 0 0 .024.162.437.437 0 0 0 .104.166.956.956 0 0 0 .153.126c.074.049.157.089.247.128.104.044.217.086.36.122l.172.042M317.122 577.776c.093.024.193.05.305.07.078.019.167.033.253.046" style="fill:none;stroke:red;stroke-width:.666665;stroke-linecap:round;stroke-linejoin:round;stroke-miterlimit:10;stroke-dasharray:none;stroke-opacity:1;visibility:visible"/><path d="m316.963 577.739-.01 1.728M324.853 579.467v-1.837" style="fill:none;stroke:red;stroke-width:.999997;stroke-linecap:round;stroke-linejoin:round;stroke-miterlimit:10;stroke-dasharray:none;stroke-opacity:1;visibility:visible"/><path d="M376.834 618.093c.276 2.611.553 5.215.848 7.81M377.682 625.904a642.961 642.961 0 0 0 4.73 33.32c.462 2.732.936 5.448 1.436 8.152.428 2.325.875 4.643 1.318 6.95M390.199 674.057l-.039-.494a397.019 397.019 0 0 0-.766-8.444 623.53 623.53 0 0 0-3.039-25.603 616.985 616.985 0 0 0-2.648-17.281M383.707 622.235c-.412-2.443-.844-4.888-1.276-7.339M351.8 632.06a563.013 563.013 0 0 0 .085 13.057 751.787 751.787 0 0 0 .961 27.493c.164 3.031.344 6.05.544 9.062.198 3.01.413 6.013.654 9.01.222 2.774.463 5.544.706 8.304M359.97 698.973a495.54 495.54 0 0 0 .052-11.577 726.6 726.6 0 0 0-.68-28.316 701.43 701.43 0 0 0-.474-9.53 948.899 948.899 0 0 0-.6-9.578 500.772 500.772 0 0 0-.728-9.615c-.04-.429-.077-.856-.114-1.286M331.344 635.817c-.12 2.113-.243 4.22-.353 6.324a674.636 674.636 0 0 0-.416 9.51 843.74 843.74 0 0 0-.298 9.477 748.555 748.555 0 0 0-.183 9.441 738.645 738.645 0 0 0-.026 18.767c.035 3.112.093 6.217.16 9.317a465.543 465.543 0 0 0 .279 9.468M335.746 708.032l.136-1.945c.214-3.212.385-6.437.541-9.671.157-3.232.299-6.472.419-9.72.124-3.248.221-6.507.301-9.772a754.035 754.035 0 0 0 .228-19.696 949.088 949.088 0 0 0-.075-9.917c-.04-3.314-.096-6.635-.198-9.959-.019-.592-.04-1.185-.058-1.782" style="fill:none;stroke:red;stroke-width:1.6;stroke-linecap:round;stroke-linejoin:round;stroke-miterlimit:10;stroke-dasharray:none;stroke-opacity:1;visibility:visible"/><path d="m390.224 674.201-.026-.186" style="fill:none;stroke:red;stroke-width:.666665;stroke-linecap:round;stroke-linejoin:round;stroke-miterlimit:10;stroke-dasharray:none;stroke-opacity:1;visibility:visible"/><path d="M367.256 623.51a514.613 514.613 0 0 0 .708 12.586c.2 2.961.412 5.917.646 8.861.23 2.947.484 5.879.753 8.806.268 2.922.555 5.836.863 8.74a664.1 664.1 0 0 0 2.038 17.294c.342 2.583.702 5.156 1.063 7.724M378.474 687.404l-.038-1.184a430.372 430.372 0 0 0-.405-8.919 710.318 710.318 0 0 0-.528-8.97 668.726 668.726 0 0 0-1.423-18.083 635.372 635.372 0 0 0-.9-9.107 817.177 817.177 0 0 0-1.024-9.151 500.95 500.95 0 0 0-1.48-11.545M318.42 721.67l2.368 3.334M320.803 725.005a5.7 5.7 0 0 0 .27.359c.147.17.315.318.494.456a4.16 4.16 0 0 0 1.206.64c.22.074.449.131.684.173.237.039.482.061.726.067.248.005.498-.006.747-.042.193-.025.387-.068.579-.115M325.513 726.554l1.854-.44a202.165 202.165 0 0 0 6.9-1.827c1.133-.322 2.25-.651 3.36-.991a176.48 176.48 0 0 0 6.51-2.141 163.07 163.07 0 0 0 3.147-1.143c1.034-.39 2.058-.79 3.067-1.196a136.67 136.67 0 0 0 2.989-1.233 135.129 135.129 0 0 0 8.45-3.976 116.012 116.012 0 0 0 5.178-2.851 104.184 104.184 0 0 0 4.793-2.996 90.613 90.613 0 0 0 4.391-3.124 76.493 76.493 0 0 0 3.976-3.241 65.353 65.353 0 0 0 3.546-3.34 65.405 65.405 0 0 0 1.609-1.702 51.987 51.987 0 0 0 2.883-3.464 44.199 44.199 0 0 0 3.48-5.305 36.745 36.745 0 0 0 1.71-3.489l.222-.53M330.46 706.633c-.89.247-1.78.492-2.681.727a183.17 183.17 0 0 1-6.78 1.625c-.918.199-1.844.395-2.768.588M354.642 697.72a114.306 114.306 0 0 1-5.234 2.37 142.105 142.105 0 0 1-5.805 2.312c-.996.369-2.005.731-3.023 1.088a120.166 120.166 0 0 1-4.638 1.525" style="fill:none;stroke:red;stroke-width:1.6;stroke-linecap:round;stroke-linejoin:round;stroke-miterlimit:10;stroke-dasharray:none;stroke-opacity:1;visibility:visible"/><path d="m373.136 686.144-.172.146a41.66 41.66 0 0 1-1.908 1.52 78.024 78.024 0 0 1-4.125 2.957 91.856 91.856 0 0 1-4.533 2.84c-.783.456-1.586.906-2.392 1.358M384.826 672.521c-.168.31-.336.623-.514.931a29.697 29.697 0 0 1-1.032 1.655 40.69 40.69 0 0 1-2.397 3.278 40.38 40.38 0 0 1-1.363 1.618 79.125 79.125 0 0 1-1.3 1.412" style="fill:none;stroke:red;stroke-width:1.6;stroke-linecap:round;stroke-linejoin:round;stroke-miterlimit:10;stroke-dasharray:none;stroke-opacity:1;visibility:visible"/><path d="M317.7 719.323c-.003.06-.007.122-.007.184.001.24.04.473.094.703.053.23.119.45.203.667a2.7 2.7 0 0 0 .463.813M318.231 709.573a.755.755 0 0 0-.601.747" style="fill:none;stroke:red;stroke-width:.666665;stroke-linecap:round;stroke-linejoin:round;stroke-miterlimit:10;stroke-dasharray:none;stroke-opacity:1;visibility:visible"/><path d="m394.086 667.692-4.499-.433" style="fill:none;stroke:red;stroke-width:1.6;stroke-linecap:round;stroke-linejoin:round;stroke-miterlimit:10;stroke-dasharray:none;stroke-opacity:1;visibility:visible"/><path d="m317.002 504.112-.563.203M394.543 677.061l.185-8.644M394.728 668.417a.712.712 0 0 0-.641-.725M393.575 683.556a.683.683 0 0 0 .033-.072c.06-.132.108-.296.16-.465.052-.179.107-.359.152-.571l.014-.068" style="fill:none;stroke:red;stroke-width:.666665;stroke-linecap:round;stroke-linejoin:round;stroke-miterlimit:10;stroke-dasharray:none;stroke-opacity:1;visibility:visible"/><path d="M346.53 471.698a704.35 704.35 0 0 0-6.11 2.452 527.919 527.919 0 0 0-7.919 3.314 614.878 614.878 0 0 0-24.041 10.896 556.87 556.87 0 0 0-8.1 3.954 887.768 887.768 0 0 0-6.821 3.45M367.843 463.735c-1.341.472-2.693.94-4.041 1.419a357.351 357.351 0 0 0-7.727 2.842 751.038 751.038 0 0 0-3.065 1.18M356.882 476.336c1.836-.904 3.665-1.802 5.48-2.71a344.527 344.527 0 0 0 7.106-3.644l.7-.372M303.374 499.358c1.736-.65 3.465-1.3 5.183-1.955a531.644 531.644 0 0 0 8.109-3.188 591.092 591.092 0 0 0 7.972-3.267 609.244 609.244 0 0 0 15.53-6.738 712.185 712.185 0 0 0 4.51-2.072M266.338 534.079a747.85 747.85 0 0 0 6.533-2.537 450.386 450.386 0 0 0 6.896-2.803c2.279-.95 4.543-1.91 6.786-2.881a465.6 465.6 0 0 0 13.227-5.988 499.376 499.376 0 0 0 6.44-3.103 325.029 325.029 0 0 0 6.323-3.17l1.54-.807M303.778 509.232l-.945.378a300.013 300.013 0 0 0-6.756 2.822 544.796 544.796 0 0 0-6.775 2.962 436.83 436.83 0 0 0-6.795 3.1 498.67 498.67 0 0 0-6.813 3.244 394.658 394.658 0 0 0-6.821 3.382c-1.59.807-3.176 1.634-4.773 2.458M369.624 469.9l2.288.79a745.874 745.874 0 0 0 10.864 3.62c3.651 1.188 7.322 2.37 11.024 3.54a896.962 896.962 0 0 0 11.184 3.464c3.443 1.041 6.906 2.064 10.391 3.094" style="fill:none;stroke:red;stroke-width:1.6;stroke-linecap:round;stroke-linejoin:round;stroke-miterlimit:10;stroke-dasharray:none;stroke-opacity:1;visibility:visible"/><path d="M326.286 453.974c1.304.519 2.617 1.039 3.932 1.555a763.23 763.23 0 0 0 10.182 3.896 943.378 943.378 0 0 0 10.336 3.822c3.067 1.113 6.151 2.208 9.252 3.31M418.266 478.32c-1.852-.72-3.696-1.437-5.536-2.145a911.674 911.674 0 0 0-10.626-3.992 1142.212 1142.212 0 0 0-10.554-3.841 992.72 992.72 0 0 0-10.48-3.692 1031.612 1031.612 0 0 0-20.714-6.936 944.691 944.691 0 0 0-10.233-3.25 1199.117 1199.117 0 0 0-10.155-3.106 713.466 713.466 0 0 0-10.077-2.961c-.868-.248-1.734-.491-2.597-.735M245.075 486.61c1.405.593 2.812 1.193 4.231 1.784a738.56 738.56 0 0 0 10.497 4.294 1164.514 1164.514 0 0 0 10.672 4.224 1044.895 1044.895 0 0 0 10.855 4.155l2.519.947M290.146 504.344l2.224.811a1084.335 1084.335 0 0 0 22.637 7.955c3.836 1.3 7.704 2.586 11.598 3.866a750.603 750.603 0 0 0 11.765 3.778l.388.116M339.823 513.648c-1.277-.53-2.55-1.06-3.823-1.582a871.774 871.774 0 0 0-10.995-4.416 1117.698 1117.698 0 0 0-10.926-4.252 1042.117 1042.117 0 0 0-32.276-11.794 1006.227 1006.227 0 0 0-21.082-7.068 713.408 713.408 0 0 0-14.131-4.436" style="fill:none;stroke:red;stroke-width:1.6;stroke-linecap:round;stroke-linejoin:round;stroke-miterlimit:10;stroke-dasharray:none;stroke-opacity:1;visibility:visible"/><path d="m354.764 469.89 2.36 4.424c.016-.238.032-.478.022-.718a4.473 4.473 0 0 0-.334-1.404 4.53 4.53 0 0 0-.336-.642 4.888 4.888 0 0 0-.44-.594 5.567 5.567 0 0 0-.543-.536 5.573 5.573 0 0 0-.647-.476.867.867 0 0 0-.082-.054" style="fill:none;stroke:red;stroke-width:1.33333;visibility:visible"/><path d="M225.713 426.774a5.968 5.968 0 0 0-1.183.021 7.665 7.665 0 0 0-.759.125 9.28 9.28 0 0 0-2.121.73 7.112 7.112 0 0 0-1.289.793 5.08 5.08 0 0 0-.523.478 3.781 3.781 0 0 0-.383.473 3.28 3.28 0 0 0-.292.501 3.2 3.2 0 0 0-.308 1.115 3.543 3.543 0 0 0 .006.58 2.1 2.1 0 0 0 .112.58l.032.076M228.726 428.91c-.063-.156-.124-.312-.203-.46a2.84 2.84 0 0 0-.338-.483 3.513 3.513 0 0 0-.405-.393 3.41 3.41 0 0 0-.93-.541 3.941 3.941 0 0 0-.52-.163c-.205-.044-.41-.069-.617-.096M219 432.242a6704.863 6704.863 0 0 0 6.28 19.155c2.254 6.83 4.52 13.605 6.781 20.325a3905.454 3905.454 0 0 0 20.905 60.481M255.291 538.732a3833.312 3833.312 0 0 0 13.492 37.163M273.458 588.459c1.27 3.396 2.545 6.773 3.815 10.133M247.547 480.391c-.95-2.664-1.905-5.344-2.867-8.028a3491.989 3491.989 0 0 0-8.06-22.16 2719.356 2719.356 0 0 0-7.886-21.296M285.675 592.307a3222.03 3222.03 0 0 0-11.552-35.205 3652.615 3652.615 0 0 0-6.973-20.662 3887.004 3887.004 0 0 0-7.224-21 2594.268 2594.268 0 0 0-7.477-21.328l-1.855-5.19M346.186 472.804c-.79 4.847-1.57 9.634-2.327 14.386a2104.133 2104.133 0 0 0-2.809 18.16c-.713 4.744-1.404 9.45-2.085 14.1M338.967 519.451c-.181 1.224-.361 2.437-.539 3.65a1717.082 1717.082 0 0 0-2.424 17.227 2828.296 2828.296 0 0 0-2.25 16.852 2140.89 2140.89 0 0 0-2.078 16.455 2388.7 2388.7 0 0 0-1.91 16.064 1774.563 1774.563 0 0 0-1.753 15.705c-.351 3.297-.687 6.57-1.02 9.812M337.098 616.656a1629.664 1629.664 0 0 0 3.87-23.081 2300.118 2300.118 0 0 0 7.736-51.75c.68-4.917 1.352-9.893 2.018-14.928M351.764 518.902c.6-4.676 1.196-9.403 1.786-14.176a2060.3 2060.3 0 0 0 2.316-19.356c.417-3.63.822-7.289 1.234-10.984M354.764 469.891a10.88 10.88 0 0 0-.489-.27 6.304 6.304 0 0 0-.79-.321 6.287 6.287 0 0 0-.833-.218 6.57 6.57 0 0 0-2.629.011 5.668 5.668 0 0 0-1.57.586 4.716 4.716 0 0 0-1.183.917 4.5 4.5 0 0 0-.792 1.194 3.116 3.116 0 0 0-.248.74c-.018.09-.029.186-.039.28M357.124 474.312c.016-.238.032-.474.022-.716a3.79 3.79 0 0 0-.108-.718 4.51 4.51 0 0 0-.226-.688 4.892 4.892 0 0 0-1.318-1.77 5.176 5.176 0 0 0-.73-.53" style="fill:none;stroke:red;stroke-width:1.6;stroke-linecap:round;stroke-linejoin:round;stroke-miterlimit:10;stroke-dasharray:none;stroke-opacity:1;visibility:visible"/><path d="M277.229 598.477c.01.04.018.08.031.118a1.067 1.067 0 0 0 .217.344 2.006 2.006 0 0 0 .706.511c.152.07.317.127.491.172a4.213 4.213 0 0 0 .581.103c.203.023.416.036.639.036.223 0 .452-.013.687-.036a8.785 8.785 0 0 0 1.444-.265 10.12 10.12 0 0 0 1.434-.503c.166-.073.328-.154.491-.236M287.003 598.721l-.79-1.917" style="fill:none;stroke:red;stroke-width:.999997;stroke-linecap:round;stroke-linejoin:round;stroke-miterlimit:10;stroke-dasharray:none;stroke-opacity:1;visibility:visible"/><path d="m312.625 632.648.8.297a39.588 39.588 0 0 0 3.218 1.008 49.592 49.592 0 0 0 5.26 1.12 57.073 57.073 0 0 0 3.71.469 64.623 64.623 0 0 0 5.732.275 65.97 65.97 0 0 0 3.839-.109 55.85 55.85 0 0 0 1.899-.141 62.29 62.29 0 0 0 3.724-.45 73.09 73.09 0 0 0 1.813-.31 50.39 50.39 0 0 0 3.476-.784 41.533 41.533 0 0 0 4.766-1.563 30.46 30.46 0 0 0 1.442-.617c.468-.213.924-.435 1.362-.663.27-.14.532-.287.796-.433M265.497 614.438l47.128 18.21" style="fill:none;stroke:red;stroke-width:1.6;stroke-linecap:round;stroke-linejoin:round;stroke-miterlimit:10;stroke-dasharray:none;stroke-opacity:1;visibility:visible"/><path d="m354.462 630.748 27.128-15.344" style="fill:none;stroke:red;stroke-width:1.62666;stroke-linecap:round;stroke-linejoin:round;stroke-miterlimit:10;stroke-dasharray:none;stroke-opacity:1;visibility:visible"/><path d="m384.435 597.112-6.76-5.101M267.585 595.68l-6.212 4.947M388.254 602.839a7.027 7.027 0 0 0-.099-.516 5.756 5.756 0 0 0-.281-.854 8.756 8.756 0 0 0-.394-.844 9.181 9.181 0 0 0-.508-.83 7.385 7.385 0 0 0-.76-.972M388.31 606.498l-.055-3.659M381.588 615.404c.208-.12.418-.24.622-.364a18.2 18.2 0 0 0 2.129-1.496c.324-.261.628-.53.915-.804a12.45 12.45 0 0 0 1.489-1.71c.208-.296.396-.594.565-.896a8.32 8.32 0 0 0 .758-1.831c.084-.303.152-.613.192-.923.04-.299.056-.599.072-.896" style="fill:none;stroke:red;stroke-width:1.6;stroke-linecap:round;stroke-linejoin:round;stroke-miterlimit:10;stroke-dasharray:none;stroke-opacity:1;visibility:visible"/><path d="M260.283 601.675a9.87 9.87 0 0 0-.508.65 5.457 5.457 0 0 0-.414.705 5.263 5.263 0 0 0-.296.715 5.024 5.024 0 0 0-.168.723 2.65 2.65 0 0 0-.051.717l.003.016" style="fill:none;stroke:red;stroke-width:.666665;stroke-linecap:round;stroke-linejoin:round;stroke-miterlimit:10;stroke-dasharray:none;stroke-opacity:1;visibility:visible"/><path d="m258.849 605.24.065 2.363M258.923 607.659c.014.201.024.41.052.61.036.251.102.496.18.742.079.244.178.484.29.718a6.85 6.85 0 0 0 .914 1.381 9.61 9.61 0 0 0 1.371 1.287 12.604 12.604 0 0 0 1.8 1.147c.332.18.677.35 1.041.51.3.132.612.257.926.382" style="fill:none;stroke:red;stroke-width:1.6;stroke-linecap:round;stroke-linejoin:round;stroke-miterlimit:10;stroke-dasharray:none;stroke-opacity:1;visibility:visible"/><path d="m274.79 591.992-6.403 3.203" style="fill:none;stroke:red;stroke-width:.666665;stroke-linecap:round;stroke-linejoin:round;stroke-miterlimit:10;stroke-dasharray:none;stroke-opacity:1;visibility:visible"/><path d="M326.26 453.93a2.18 2.18 0 0 1-.352-.15 2.708 2.708 0 0 1-.618-.51 4.276 4.276 0 0 1-.875-1.387 3.813 3.813 0 0 1-.165-.621 2.967 2.967 0 0 1 .277-1.876 3.527 3.527 0 0 1 1.223-1.368c.26-.17.519-.285.772-.364.243-.079.481-.12.65-.052a.719.719 0 0 1 .088.043" style="fill:none;stroke:red;stroke-width:.999997;stroke-linecap:round;stroke-linejoin:round;stroke-miterlimit:10;stroke-dasharray:none;stroke-opacity:1;visibility:visible"/><path d="M316.997 504.112c.232-.046.46-.092.722-.076a2.347 2.347 0 0 1 .804.22c.274.126.542.305.81.482M319.333 504.74c.276.223.55.447.732.746.057.096.105.2.152.301M323.025 577.35a3.427 3.427 0 0 0 0 .286" style="fill:none;stroke:red;stroke-width:.666665;stroke-linecap:round;stroke-linejoin:round;stroke-miterlimit:10;stroke-dasharray:none;stroke-opacity:1;visibility:visible"/><path d="M317.731 577.894a23.66 23.66 0 0 0 5.292.185" style="fill:none;stroke:red;stroke-width:.999997;stroke-linecap:round;stroke-linejoin:round;stroke-miterlimit:10;stroke-dasharray:none;stroke-opacity:1;visibility:visible"/><path d="M325.551 577.355c-.005.037-.01.079-.024.11a.23.23 0 0 1-.052.095c-.018.027-.044.047-.068.067a.181.181 0 0 1-.082.033c-.031.007-.06.004-.088.004" style="fill:none;stroke:red;stroke-width:.666665;stroke-linecap:round;stroke-linejoin:round;stroke-miterlimit:10;stroke-dasharray:none;stroke-opacity:1;visibility:visible"/><path d="M325.04 577.63a2.293 2.293 0 0 0-.795-1.488M324.697 577.63c-.035.225-.068.452-.127.649a1.5 1.5 0 0 1-.184.41.77.77 0 0 1-.279.256.607.607 0 0 1-.317.059.812.812 0 0 1-.324-.101 1.32 1.32 0 0 1-.316-.245 1.712 1.712 0 0 1-.28-.402 4.052 4.052 0 0 1-.112-.261" style="fill:none;stroke:red;stroke-width:.999997;stroke-linecap:round;stroke-linejoin:round;stroke-miterlimit:10;stroke-dasharray:none;stroke-opacity:1;visibility:visible"/><path d="M325.04 577.63h-.343" style="fill:none;stroke:red;stroke-width:.666665;stroke-linecap:round;stroke-linejoin:round;stroke-miterlimit:10;stroke-dasharray:none;stroke-opacity:1;visibility:visible"/><path d="M393.959 682.213c.048-.189.09-.417.133-.648a27.9 27.9 0 0 0 .222-1.458l.084-.774c.025-.256.045-.513.065-.77.017-.254.035-.506.045-.746.012-.242.019-.47.027-.704" style="fill:none;stroke:red;stroke-width:1.6;stroke-linecap:round;stroke-linejoin:round;stroke-miterlimit:10;stroke-dasharray:none;stroke-opacity:1;visibility:visible"/><path d="M330.057 708.013c-.008.724 1.36 1.31 3.06 1.31 1.687.002 3.064-.578 3.079-1.296M354.292 698.967c.016.718 1.404 1.3 3.1 1.293 1.692 0 3.051-.585 3.046-1.3M372.823 687.424c.04.716 1.453 1.286 3.155 1.27 1.696-.016 3.04-.607 3.008-1.319M384.762 674.664c.544.68 2.3 1.044 3.921.812 1.305-.185 2.164-.708 2.112-1.284" style="fill:none;stroke:red;stroke-width:.999997;stroke-linecap:round;stroke-linejoin:round;stroke-miterlimit:10;stroke-dasharray:none;stroke-opacity:1;visibility:visible"/><path d="m394.536 677.113.008-.052" style="fill:none;stroke:red;stroke-width:.666665;stroke-linecap:round;stroke-linejoin:round;stroke-miterlimit:10;stroke-dasharray:none;stroke-opacity:1;visibility:visible"/><path d="M370.102 469.582c.097-.058.194-.112.27-.21a1.107 1.107 0 0 0 .142-.286c.042-.116.081-.246.113-.395.044-.208.073-.45.09-.716a9.163 9.163 0 0 0-.057-1.713 6.79 6.79 0 0 0-.172-.902 3.624 3.624 0 0 0-.358-.914 1.893 1.893 0 0 0-.483-.558 1.598 1.598 0 0 0-.572-.265 2.184 2.184 0 0 0-.677-.041 2.621 2.621 0 0 0-.974.27l-.146.083" style="fill:none;stroke:red;stroke-width:.999997;stroke-linecap:round;stroke-linejoin:round;stroke-miterlimit:10;stroke-dasharray:none;stroke-opacity:1;visibility:visible"/><path d="m366.23 592.738.027-.053" style="fill:none;stroke:red;stroke-width:.666665;stroke-linecap:round;stroke-linejoin:round;stroke-miterlimit:10;stroke-dasharray:none;stroke-opacity:1;visibility:visible"/><path d="M243.466 482.572c-.125.324-.25.646-.303.975a2.51 2.51 0 0 0 .03.988 2.848 2.848 0 0 0 .971 1.536c.271.213.576.372.883.527" style="fill:none;stroke:red;stroke-width:.999997;stroke-linecap:round;stroke-linejoin:round;stroke-miterlimit:10;stroke-dasharray:none;stroke-opacity:1;visibility:visible"/><path d="M246.562 480.115c-.092-.033-.182-.07-.281-.081-.198-.018-.428.068-.672.194a4.027 4.027 0 0 0-.724.498 5.643 5.643 0 0 0-.687.702 5.219 5.219 0 0 0-.732 1.144" style="fill:none;stroke:red;stroke-width:.666665;stroke-linecap:round;stroke-linejoin:round;stroke-miterlimit:10;stroke-dasharray:none;stroke-opacity:1;visibility:visible"/><path d="M283.974 598.508a2.95 2.95 0 0 1-.15-.616 2.233 2.233 0 0 1 .05-.67c.056-.252.14-.506.256-.742a2.91 2.91 0 0 1 .299-.485M284.429 595.995c.111-.15.237-.285.361-.383" style="fill:none;stroke:red;stroke-width:.999997;stroke-linecap:round;stroke-linejoin:round;stroke-miterlimit:10;stroke-dasharray:none;stroke-opacity:1;visibility:visible"/><path d="M286.178 596.803c.032.005.065.012.095.004a.121.121 0 0 0 .07-.048.165.165 0 0 0 .032-.079.228.228 0 0 0 .002-.09c-.003-.018-.004-.035-.01-.047M283.974 598.508a.36.36 0 0 1 .03.085.13.13 0 0 1 .001.071c-.006.021-.014.039-.031.048l-.025.01" style="fill:none;stroke:red;stroke-width:.666665;stroke-linecap:round;stroke-linejoin:round;stroke-miterlimit:10;stroke-dasharray:none;stroke-opacity:1;visibility:visible"/><path d="M283.911 598.77c.072.056.144.112.222.152a.97.97 0 0 0 .476.088 1.083 1.083 0 0 0 .466-.12 1.067 1.067 0 0 0 .339-.29 1.35 1.35 0 0 0 .213-.389 1.99 1.99 0 0 0 .11-.487c.012-.1.016-.204.017-.308" style="fill:none;stroke:red;stroke-width:.999997;stroke-linecap:round;stroke-linejoin:round;stroke-miterlimit:10;stroke-dasharray:none;stroke-opacity:1;visibility:visible"/><path d="m285.703 596.83.277-.084" style="fill:none;stroke:red;stroke-width:.666665;stroke-linecap:round;stroke-linejoin:round;stroke-miterlimit:10;stroke-dasharray:none;stroke-opacity:1;visibility:visible"/><path d="M374.896 597.488c.294.37 1.124.635 2.104.63 1.22-.004 2.21-.421 2.21-.934M370.84 606.635c.001-.515-.986-.928-2.2-.93-1.217-.002-2.202.411-2.205.922 0 .513.985.93 2.201.932 1.218.001 2.204-.412 2.204-.924M356.236 614.699c0-.516-.98-.934-2.193-.939-1.212.001-2.195.415-2.195.928-.002.513.98.932 2.192.935 1.212.001 2.195-.41 2.196-.924M279.498 599.955c2.253.638 5.384.405 6.996-.523.796-.457 1.104-1.03.846-1.575" style="fill:none;stroke:red;stroke-width:.999997;stroke-linecap:round;stroke-linejoin:round;stroke-miterlimit:10;stroke-dasharray:none;stroke-opacity:1;visibility:visible"/><path d="M379.208 597.185c0-.513-.992-.924-2.214-.92-.61-.001-1.164.103-1.564.275M336.616 620.519c-.002-.516-.984-.932-2.194-.932-1.212 0-2.194.421-2.192.937 0 .519.982.936 2.193.933 1.212 0 2.193-.42 2.193-.937M320.62 580.834c2.66.062 4.94-.834 5.094-2.007a.801.801 0 0 0 .006-.125M316.073 578.74c.024 1.118 2.01 2.034 4.547 2.094" style="fill:none;stroke:red;stroke-width:.999997;stroke-linecap:round;stroke-linejoin:round;stroke-miterlimit:10;stroke-dasharray:none;stroke-opacity:1;visibility:visible"/><path d="m384.434 597.112 1.724 1.648a13.795 13.795 0 0 0-1.724-1.648" style="fill:none;stroke:red;stroke-width:1.33333;visibility:visible"/><path d="M261.373 600.627a8.516 8.516 0 0 0-1.031.99M386.159 598.76a13.791 13.791 0 0 0-1.724-1.648" style="fill:none;stroke:red;stroke-width:1.6;stroke-linecap:round;stroke-linejoin:round;stroke-miterlimit:10;stroke-dasharray:none;stroke-opacity:1;visibility:visible"/><path d="m258.849 605.24-.003-.035M258.914 607.603l.001.044" style="fill:none;stroke:red;stroke-width:.666665;stroke-linecap:round;stroke-linejoin:round;stroke-miterlimit:10;stroke-dasharray:none;stroke-opacity:1;visibility:visible"/><path d="M319.937 394.891a78.48 78.48 0 0 0 7.78.003M318.2 394.774a10.128 10.128 0 0 0 1.737.117M394.721 668.469l-.697 1.9-.83 1.897-.96 1.888-1.094 1.878-1.226 1.868-1.358 1.853-1.488 1.836-1.62 1.817-1.748 1.798-1.878 1.77-2.002 1.747-2.127 1.72-2.25 1.685-2.375 1.655-2.49 1.62-2.608 1.581-2.722 1.542-2.835 1.5-2.943 1.454-3.045 1.408-3.148 1.359-3.247 1.31-3.34 1.258-3.43 1.2-3.518 1.147-3.598 1.088-3.675 1.026-3.748.966-3.817.904-3.88.838" style="fill:none;stroke:red;stroke-width:.999997;stroke-linecap:round;stroke-linejoin:round;stroke-miterlimit:10;stroke-dasharray:none;stroke-opacity:1;visibility:visible"/><path d="M393.616 683.376c.068-.187.136-.368.2-.596.05-.172.098-.37.144-.567M394.536 677.113l.185-8.644" style="fill:none;stroke:red;stroke-width:1.6;stroke-linecap:round;stroke-linejoin:round;stroke-miterlimit:10;stroke-dasharray:none;stroke-opacity:1;visibility:visible"/><path d="M320.049 713.755a1.039 1.039 0 0 0 .973.225M318.374 709.664a.16.16 0 0 0-.144-.09" style="fill:none;stroke:red;stroke-width:.666665;stroke-linecap:round;stroke-linejoin:round;stroke-miterlimit:10;stroke-dasharray:none;stroke-opacity:1;visibility:visible"/><path d="m320.05 713.755-2.372-3.303" style="fill:none;stroke:red;stroke-width:.999997;stroke-linecap:round;stroke-linejoin:round;stroke-miterlimit:10;stroke-dasharray:none;stroke-opacity:1;visibility:visible"/><path d="m317.677 710.453.06 9.005" style="fill:none;stroke:red;stroke-width:1.6;stroke-linecap:round;stroke-linejoin:round;stroke-miterlimit:10;stroke-dasharray:none;stroke-opacity:1;visibility:visible"/><path d="m393.617 683.376-.016.121-.023.067" style="fill:none;stroke:red;stroke-width:.666665;stroke-linecap:round;stroke-linejoin:round;stroke-miterlimit:10;stroke-dasharray:none;stroke-opacity:1;visibility:visible"/><path d="M317.737 719.459c.016.265.03.528.078.78a4.067 4.067 0 0 0 .228.749c.095.236.199.465.36.656l.024.023" style="fill:none;stroke:red;stroke-width:1.6;stroke-linecap:round;stroke-linejoin:round;stroke-miterlimit:10;stroke-dasharray:none;stroke-opacity:1;visibility:visible"/><path d="m317.63 710.318.01.061.037.075M317.691 719.323l.01.063.035.073M394.73 668.417l-.008.052" style="fill:none;stroke:red;stroke-width:.666665;stroke-linecap:round;stroke-linejoin:round;stroke-miterlimit:10;stroke-dasharray:none;stroke-opacity:1;visibility:visible"/><path d="m375.232 596.914-.017.03-.223.277-.177.11M346.175 472.807l-.005.044-.014.612.139.617.283.606.422.574.55.531.661.472.759.401.83.315.88.224.907.127.908.024.885-.08.838-.178.765-.274.676-.362.565-.44.438-.502.302-.558.158-.593.006-.055M326.98 615.214l-.013.364.084.623.214.614.343.588.457.546.568.486.656.422.732.34.784.249.819.156.83.052.82-.047.787-.148.734-.245.662-.336.572-.415.467-.486.35-.539.225-.585.05-.243M218.997 432.242l.003.008.164.259.289.206.412.15.523.085.618.021.696-.042.759-.108.793-.171.814-.225.806-.279.779-.319.73-.353.662-.377.573-.394.472-.393.355-.388.23-.37.098-.338-.033-.303M312.313 628.784l1.62.58 1.703.527 1.781.473 1.85.415 1.907.357 1.956.293 2.003.235 2.03.17 2.051.103 2.066.042 2.064-.028 2.056-.091 2.038-.159 2.01-.221 1.969-.281 1.923-.344 1.869-.407 1.799-.461 1.725-.516 1.645-.57 1.552-.62 1.458-.666 1.35-.708M316.753 620.365l1.439.504 1.525.45 1.599.395 1.664.334 1.718.276 1.762.213 1.793.148 1.815.084 1.825.017 1.821-.046 1.81-.115 1.782-.176 1.747-.24 1.7-.303 1.64-.358 1.573-.42 1.496-.474 1.41-.525 1.309-.573 1.21-.618" style="fill:none;stroke:red;stroke-width:.999997;stroke-linecap:round;stroke-linejoin:round;stroke-miterlimit:10;stroke-dasharray:none;stroke-opacity:1;visibility:visible"/><path d="m362.477 585.815-19.164-7.125M368.314 587.985l-2.61-.97M331.594 574.333l-3.75-1.396" style="fill:none;stroke:red;stroke-width:1.6;stroke-linecap:round;stroke-linejoin:round;stroke-miterlimit:10;stroke-dasharray:none;stroke-opacity:1;visibility:visible"/><path d="m376.648 603.849 1.047-.628.928-.664.809-.692.681-.721.551-.74.419-.759.284-.77.145-.778.01-.779-.123-.781-.266-.772-.394-.761-.523-.746-.652-.724-.776-.701-.89-.672-.223-.15M349.39 618.938l27.257-15.088M269.508 602.483l47.245 17.881M266.366 596.956l-.225.277-.304.57-.163.577-.01.584.134.576.281.561.424.546.563.514.697.483.816.443.928.397" style="fill:none;stroke:red;stroke-width:.999997;stroke-linecap:round;stroke-linejoin:round;stroke-miterlimit:10;stroke-dasharray:none;stroke-opacity:1;visibility:visible"/><path d="m289.798 584.634-5.692 2.848M290.51 584.279l-.71.356M312.096 573.475l-16.585 8.301M274.837 592.123l-7.608 3.823" style="fill:none;stroke:red;stroke-width:1.6;stroke-linecap:round;stroke-linejoin:round;stroke-miterlimit:10;stroke-dasharray:none;stroke-opacity:1;visibility:visible"/><path d="m327.842 572.938-.988-.328-.905-.237" style="fill:none;stroke:red;stroke-width:.666665;stroke-linecap:round;stroke-linejoin:round;stroke-miterlimit:10;stroke-dasharray:none;stroke-opacity:1;visibility:visible"/><path d="M315.96 572.224a15.48 15.48 0 0 0-3.866 1.25" style="fill:none;stroke:red;stroke-width:1.6;stroke-linecap:round;stroke-linejoin:round;stroke-miterlimit:10;stroke-dasharray:none;stroke-opacity:1;visibility:visible"/><path d="m265.115 610.649 47.197 18.136M354.738 626.906l27.163-15.281" style="fill:none;stroke:red;stroke-width:.999997;stroke-linecap:round;stroke-linejoin:round;stroke-miterlimit:10;stroke-dasharray:none;stroke-opacity:1;visibility:visible"/><path d="m388.168 603.369-.096-.885-.228-.882-.357-.873-.49-.859-.614-.844-.224-.265M388.148 603.797l.02-.428" style="fill:none;stroke:red;stroke-width:1.6;stroke-linecap:round;stroke-linejoin:round;stroke-miterlimit:10;stroke-dasharray:none;stroke-opacity:1;visibility:visible"/><path d="m388.128 604.258.021-.461M387.956 605.14l.172-.883M381.901 611.625l1.185-.716 1.068-.75.952-.782.828-.808.702-.832.57-.852.443-.867.307-.877M259.14 605.384l.065.343.28.705.42.69.556.671.69.644.814.611.939.576 1.053.535 1.156.489" style="fill:none;stroke:red;stroke-width:.999997;stroke-linecap:round;stroke-linejoin:round;stroke-miterlimit:10;stroke-dasharray:none;stroke-opacity:1;visibility:visible"/><path d="m260.341 601.617-.421.536-.423.699-.284.713-.143.721-.002.722.073.376" style="fill:none;stroke:red;stroke-width:1.6;stroke-linecap:round;stroke-linejoin:round;stroke-miterlimit:10;stroke-dasharray:none;stroke-opacity:1;visibility:visible"/><path d="M255.325 535.407a1.763 1.763 0 0 0-.746-.839M254.58 534.568a.627.627 0 0 0-.29-.088M254.125 534.627a.81.81 0 0 0 .008.16M254.291 534.479a.203.203 0 0 0-.068.012.153.153 0 0 0-.098.135M254.426 534.683a.115.115 0 0 0-.047.008M255.374 535.702a.64.64 0 0 0-.04-.275l-.01-.021M255.209 535.855a.162.162 0 0 0 .066-.015.147.147 0 0 0 .099-.137M254.92 535.764a.68.68 0 0 0 .29.09M254.871 535.734c.016.013.031.021.047.03M254.238 537.4a.377.377 0 0 0 .195-.185M254.431 537.215c.09-.207.131-.43.12-.655M254.551 536.56a3.859 3.859 0 0 0-.89-2.294M253.66 534.266a1.43 1.43 0 0 0-.53-.403M253.13 533.864a.373.373 0 0 0-.263-.009M254.044 534.822l.336-.132M251.917 535.155c.205-.081.541.293.752.83.209.541.211 1.044.004 1.123-.207.078-.543-.294-.753-.831-.21-.539-.21-1.043-.003-1.123v.001" style="fill:none;stroke:red;stroke-width:.999997;stroke-linecap:round;stroke-linejoin:round;stroke-miterlimit:2;stroke-dasharray:none;stroke-opacity:1;visibility:visible"/><path d="M253.622 537.638c-.38.052-1.05-.023-1.437-.792" style="fill:none;stroke:red;stroke-width:.999997;stroke-linecap:round;stroke-linejoin:round;stroke-miterlimit:2;stroke-dasharray:none;stroke-opacity:1;visibility:visible"/><path d="m253.71 537.603.279-.108.244-.092M252.336 534.059l.279-.108.242-.092" style="fill:none;stroke:red;stroke-width:.999997;stroke-linecap:round;stroke-linejoin:round;stroke-miterlimit:4;stroke-dasharray:none;stroke-opacity:1;visibility:visible"/><path d="M288.96 502.215a.187.187 0 0 0 .064-.01.16.16 0 0 0 .11-.134M288.673 502.108a.663.663 0 0 0 .286.107M288.626 502.075c.016.016.03.025.047.033M287.902 503.704a.36.36 0 0 0 .203-.174M288.106 503.531c.101-.2.153-.421.159-.645M288.263 502.884a3.921 3.921 0 0 0-.762-2.34M287.5 500.543a1.43 1.43 0 0 0-.506-.43M286.993 500.115a.368.368 0 0 0-.266-.024M252.363 534.048c-.33.192-.818.656-.657 1.504M288.118 500.791a.32.32 0 0 0-.07.009.16.16 0 0 0-.108.13M288.24 501.002c-.018 0-.032 0-.048.005" style="fill:none;stroke:red;stroke-width:.999997;stroke-linecap:round;stroke-linejoin:round;stroke-miterlimit:2;stroke-dasharray:none;stroke-opacity:1;visibility:visible"/><path d="M289.133 502.072a.665.665 0 0 0-.028-.276l-.008-.02M289.097 501.775a1.756 1.756 0 0 0-.698-.88M288.4 500.895a.679.679 0 0 0-.283-.104M287.94 500.928a.656.656 0 0 0 .004.162M287.853 501.119l.341-.112M285.709 501.335c.21-.068.524.323.701.872.181.55.156 1.053-.056 1.12-.21.068-.525-.323-.705-.872-.179-.55-.151-1.052.06-1.12" style="fill:none;stroke:red;stroke-width:.999997;stroke-linecap:round;stroke-linejoin:round;stroke-miterlimit:2;stroke-dasharray:none;stroke-opacity:1;visibility:visible"/><path d="M287.274 503.908c-.383.032-1.047-.08-1.393-.868" style="fill:none;stroke:red;stroke-width:.999997;stroke-linecap:round;stroke-linejoin:round;stroke-miterlimit:2;stroke-dasharray:none;stroke-opacity:1;visibility:visible"/><path d="m287.363 503.88.284-.093.247-.079M286.189 500.264l.281-.093.247-.079" style="fill:none;stroke:red;stroke-width:.999997;stroke-linecap:round;stroke-linejoin:round;stroke-miterlimit:4;stroke-dasharray:none;stroke-opacity:1;visibility:visible"/><path d="M349.788 522.915a1.495 1.495 0 0 0 .112.744M349.9 523.659a.616.616 0 0 0 .24.273M286.214 500.254c-.341.174-.852.61-.74 1.466M351.84 520.634a1.53 1.53 0 0 0-.729.206" style="fill:none;stroke:red;stroke-width:.999997;stroke-linecap:round;stroke-linejoin:round;stroke-miterlimit:2;stroke-dasharray:none;stroke-opacity:1;visibility:visible"/><path d="M351.114 520.84a2.832 2.832 0 0 0-.896.887 2.848 2.848 0 0 0-.43 1.19M350.223 520.764c-.021-.018-.043-.04-.07-.056a.24.24 0 0 0-.226-.03M350.407 521.111a.964.964 0 0 0-.184-.347M350.423 521.174c-.003-.02-.012-.046-.017-.064M352.186 520.732a.644.644 0 0 0-.347-.098M351.754 523.939c-.267-.168-.222-.696.088-1.181.31-.49.776-.748 1.042-.582.264.175.224.702-.092 1.188-.306.488-.776.747-1.038.576v-.001M349.702 520.88c-.195.332-.232.748-.099 1.183M349.603 522.063a.893.893 0 0 0 .177.336M349.85 522.159c.016.016.028.032.048.043" style="fill:none;stroke:red;stroke-width:.999997;stroke-linecap:round;stroke-linejoin:round;stroke-miterlimit:2;stroke-dasharray:none;stroke-opacity:1;visibility:visible"/><path d="M349.928 520.678a.48.48 0 0 0-.216.184l-.01.018M352.508 520.943c.403.361.944 1.081.582 1.868" style="fill:none;stroke:red;stroke-width:.999997;stroke-linecap:round;stroke-linejoin:round;stroke-miterlimit:2;stroke-dasharray:none;stroke-opacity:1;visibility:visible"/><path d="m352.401 520.874-.361-.225.156.089M350.35 524.073l-.359-.224.159.09" style="fill:none;stroke:red;stroke-width:.999997;stroke-linecap:round;stroke-linejoin:round;stroke-miterlimit:4;stroke-dasharray:none;stroke-opacity:1;visibility:visible"/><path d="M350.314 524.055c.481.236 1.356.492 2.005-.1" style="fill:none;stroke:red;stroke-width:.999997;stroke-linecap:round;stroke-linejoin:round;stroke-miterlimit:2;stroke-dasharray:none;stroke-opacity:1;visibility:visible"/><path d="m327.957 489.54.092-10.133M328.17 447.911l.01 6.811M338.967 519.451l-11.285-10.724M328.049 479.407l-.092 10.133M315.718 504.034l11.792 13.23M315.718 504.034l-.052 9.294M315.937 569.278l-.07-5.084M315.867 564.194l.07 5.084M315.895 484.862l-.106 9.698M315.789 494.56l.106-9.698" style="fill:none;stroke:red;stroke-width:1.6;stroke-linecap:round;stroke-linejoin:round;stroke-miterlimit:10;stroke-dasharray:none;stroke-opacity:1;visibility:visible"/><path d="m316.073 578.74.88.727M325.72 578.702l-.867.765" style="fill:none;stroke:red;stroke-width:.999997;stroke-linecap:round;stroke-linejoin:round;stroke-miterlimit:10;stroke-dasharray:none;stroke-opacity:1;visibility:visible"/><path d="m383.707 622.235-6.873-4.142M356.236 614.699 351.8 632.06M356.236 614.699l1.19 14.372M336.616 620.519l-5.272 15.298M336.616 620.519l.424 15.051M377.682 625.903l-10.426-2.393M377.682 625.903l-5.006-5.458M335.942 705.015l-5.482 1.618M360.006 694.965l-5.364 2.755M330.46 706.633l5.482-1.618M354.642 697.72l5.364-2.755M393.575 683.556l-8.749-11.035M353.01 469.176l-6.48 2.522M286.214 500.254l7.325-4.49M346.53 471.698l6.48-2.522M346.53 471.698l10.352 4.638M303.778 509.232l-.404-9.874M356.882 476.336l-12.204 5.802M254.38 534.69l11.958-.611M303.374 499.358l.404 9.874M252.363 534.048l11.737-6.47M369.624 469.9l-9.636-3.343M290.146 504.344l-6.297-2.33M283.849 502.014l6.297 2.33M350.314 524.055l-10.491-10.407M255.291 538.732l-2.325-6.529M255.325 535.407l-.034 3.325M273.458 588.459l-4.675-12.564M285.675 592.307l-12.217-3.848M250.594 488.922l-3.047-8.531M286.214 596.804l-.539-4.497M247.547 480.391l3.047 8.531M349.788 522.917l.934 3.98M349.788 522.915l1.976-4.013" style="fill:none;stroke:red;stroke-width:1.6;stroke-linecap:round;stroke-linejoin:round;stroke-miterlimit:10;stroke-dasharray:none;stroke-opacity:1;visibility:visible"/><path d="m375.232 596.914-9.002-4.176" style="fill:none;stroke:red;stroke-width:.666665;stroke-linecap:round;stroke-linejoin:round;stroke-miterlimit:10;stroke-dasharray:none;stroke-opacity:1;visibility:visible"/><path d="m379.21 597.184-8.37 9.451M379.208 597.185l-8.368 9.45M367.256 623.51l-11.02-8.811M370.84 606.635l-14.604 8.064M326.98 615.214l9.636 5.305M324.853 579.467l.867-.765M316.953 579.467l-.88-.727" style="fill:none;stroke:red;stroke-width:.999997;stroke-linecap:round;stroke-linejoin:round;stroke-miterlimit:10;stroke-dasharray:none;stroke-opacity:1;visibility:visible"/><path d="m365.703 587.014-3.226-1.199M331.594 574.333l11.719 4.357M362.477 585.815l3.226 1.2M343.313 578.69l-11.719-4.357" style="fill:none;stroke:red;stroke-width:1.6;stroke-linecap:round;stroke-linejoin:round;stroke-miterlimit:10;stroke-dasharray:none;stroke-opacity:1;visibility:visible"/><path d="m260.342 601.617 6.024-4.661" style="fill:none;stroke:red;stroke-width:.999997;stroke-linecap:round;stroke-linejoin:round;stroke-miterlimit:10;stroke-dasharray:none;stroke-opacity:1;visibility:visible"/><path d="m290.51 584.279-6.404 3.203M290.51 584.279l5-2.503" style="fill:none;stroke:red;stroke-width:1.6;stroke-linecap:round;stroke-linejoin:round;stroke-miterlimit:10;stroke-dasharray:none;stroke-opacity:1;visibility:visible"/><path d="m317.122 577.778 8.827-5.405" style="fill:none;stroke:red;stroke-width:.666665;stroke-linecap:round;stroke-linejoin:round;stroke-miterlimit:10;stroke-dasharray:none;stroke-opacity:1;visibility:visible"/><path d="m255.325 535.407-3.14 1.439M289.097 501.775l-3.216 1.265" style="fill:none;stroke:red;stroke-width:.999997;stroke-linecap:round;stroke-linejoin:round;stroke-miterlimit:2;stroke-dasharray:none;stroke-opacity:1;visibility:visible"/><path d="M415.906 483.295c-.571 1.201-1.14 2.396-1.706 3.59a2703.52 2703.52 0 0 0-8.898 19.019 4098.92 4098.92 0 0 0-8.708 18.86 3571.17 3571.17 0 0 0-8.507 18.682 4125.998 4125.998 0 0 0-8.304 18.502 3171.321 3171.321 0 0 0-8.112 18.334c-1.839 4.194-3.655 8.377-5.465 12.537M450.515 434.805a4.3 4.3 0 0 0 .101-.211 2.21 2.21 0 0 0 .139-.577 3.7 3.7 0 0 0 .028-.557 3.116 3.116 0 0 0-.221-1.013 3.204 3.204 0 0 0-.216-.452 4.204 4.204 0 0 0-.656-.845 5.925 5.925 0 0 0-.49-.441 7.65 7.65 0 0 0-.622-.447 9.365 9.365 0 0 0-1.288-.7 9.92 9.92 0 0 0-1.335-.495 7.597 7.597 0 0 0-.7-.166 5.187 5.187 0 0 0-1.38-.075 3.49 3.49 0 0 0-1.073.27 2.84 2.84 0 0 0-.492.27 3.297 3.297 0 0 0-.446.357 2.647 2.647 0 0 0-.37.439c-.086.127-.154.263-.224.398M375.23 596.915a5593.59 5593.59 0 0 0 9.398-19.2 3432.476 3432.476 0 0 0 9.539-19.779c3.19-6.664 6.384-13.386 9.58-20.174a3528.68 3528.68 0 0 0 9.635-20.59 3807.817 3807.817 0 0 0 12.956-28.177M429.398 482.252a4910.948 4910.948 0 0 0 11.142-24.817 3067.32 3067.32 0 0 0 8.756-19.81c.402-.915.796-1.831 1.2-2.75M441.266 430.56c-2.888 5.921-5.76 11.802-8.6 17.661a2875.664 2875.664 0 0 0-9.331 19.419 4885.827 4885.827 0 0 0-6.291 13.25M417.09 480.782a7.173 7.173 0 0 0-.14.29c-.15.301-.287.623-.428.928-.132.284-.268.552-.378.78-.078.16-.142.301-.208.44" style="fill:none;stroke:#00ff4a;stroke-width:1.6;stroke-linecap:round;stroke-linejoin:round;stroke-miterlimit:10;stroke-dasharray:none;stroke-opacity:1;visibility:visible" visibility="hidden"/><path d="M364.724 596.435c-.224 1.12 1.908 2.112 4.766 2.215 1.645.058 3.253-.193 4.332-.68M443.02 432.862l-.57-.424-.477-.415-.37-.396-.25-.369-.125-.328v-.279l.032-.094M450.531 434.807l-.09.143-.249.164-.364.1-.474.03-.566-.041-.648-.108-.708-.175-.75-.237-.776-.29-.774-.337-.752-.374-.709-.403-.65-.417M374.815 597.332l-.159.1-.44.141-.532.068-.609-.008-.672-.081-.716-.155-.741-.222-.746-.287-.734-.34-.699-.39-.645-.422-.576-.447-.494-.462-.393-.46-.287-.448-.169-.427-.05-.39.069-.347.008-.016" style="fill:none;stroke:#00ff4a;stroke-width:.999997;stroke-linecap:round;stroke-linejoin:round;stroke-miterlimit:10;stroke-dasharray:none;stroke-opacity:1;visibility:visible" visibility="hidden"/><path d="M428.919 487.267c-.284-.139-.295-.67-.041-1.185.254-.52.689-.828.972-.69.282.142.3.671.04 1.19-.252.517-.69.825-.971.685M426.546 484.451c-.16.353-.15.769.029 1.187M426.576 485.638a.885.885 0 0 0 .214.314M426.83 485.707c.019.013.03.028.055.037M426.746 484.223a.496.496 0 0 0-.194.207.045.045 0 0 0-.006.02M427.05 484.28c-.024-.018-.047-.037-.078-.05a.253.253 0 0 0-.226-.007M427.27 484.603a.965.965 0 0 0-.22-.323M427.292 484.664c-.005-.02-.017-.044-.024-.06M428.996 484.032a.645.645 0 0 0-.354-.06M428.642 483.971a1.512 1.512 0 0 0-.698.284M427.944 484.256a2.823 2.823 0 0 0-.794.98 2.84 2.84 0 0 0-.296 1.228M426.852 486.464a1.49 1.49 0 0 0 .194.728M427.046 487.192a.603.603 0 0 0 .268.246" style="fill:none;stroke:#00ff4a;stroke-width:.999997;stroke-linecap:round;stroke-linejoin:round;stroke-miterlimit:2;stroke-dasharray:none;stroke-opacity:1;visibility:visible" visibility="hidden"/><path d="M429.34 484.206c.44.314 1.058.972.782 1.793" style="fill:none;stroke:#00ff4a;stroke-width:.999997;stroke-linecap:round;stroke-linejoin:round;stroke-miterlimit:2;stroke-dasharray:none;stroke-opacity:1;visibility:visible" visibility="hidden"/><path d="m429.227 484.15-.383-.187.164.074M427.54 487.553l-.381-.184.168.076" style="fill:none;stroke:#00ff4a;stroke-width:.999997;stroke-linecap:round;stroke-linejoin:round;stroke-miterlimit:4;stroke-dasharray:none;stroke-opacity:1;visibility:visible" visibility="hidden"/><path d="M427.502 487.54c.504.18 1.404.34 1.98-.319" style="fill:none;stroke:#00ff4a;stroke-width:.999997;stroke-linecap:round;stroke-linejoin:round;stroke-miterlimit:2;stroke-dasharray:none;stroke-opacity:1;visibility:visible" visibility="hidden"/><path d="m429.398 482.252-3.06 6.743M426.546 484.451l2.852-2.199" style="fill:none;stroke:#00ff4a;stroke-width:1.6;stroke-linecap:round;stroke-linejoin:round;stroke-miterlimit:10;stroke-dasharray:none;stroke-opacity:1;visibility:visible" visibility="hidden"/><path d="m427.502 487.54-12.127-3.132M427.502 487.54l-9.236-9.22" style="fill:none;stroke:red;stroke-width:1.6;stroke-linecap:round;stroke-linejoin:round;stroke-miterlimit:10;stroke-dasharray:none;stroke-opacity:1;visibility:visible"/><path d="m316.953 579.467 7.292-3.325M285.675 592.307l-6.177 7.648" style="fill:none;stroke:red;stroke-width:.999997;stroke-linecap:round;stroke-linejoin:round;stroke-miterlimit:10;stroke-dasharray:none;stroke-opacity:1;visibility:visible"/><path d="m366.23 592.738 2.084-4.753" style="fill:none;stroke:red;stroke-width:1.6;stroke-linecap:round;stroke-linejoin:round;stroke-miterlimit:10;stroke-dasharray:none;stroke-opacity:1;visibility:visible"/><path d="m351.764 518.902 1.326 3.909" style="fill:none;stroke:red;stroke-width:.999997;stroke-linecap:round;stroke-linejoin:round;stroke-miterlimit:2;stroke-dasharray:none;stroke-opacity:1;visibility:visible"/><path d="m375.43 596.54-1.608 1.43" style="fill:none;stroke:#00ff4a;stroke-width:.999997;stroke-linecap:round;stroke-linejoin:round;stroke-miterlimit:10;stroke-dasharray:none;stroke-opacity:1;visibility:visible" visibility="hidden"/></svg>