<svg xmlns="http://www.w3.org/2000/svg" baseProfile="full" height="793.701" preserveAspectRatio="xMinYMin meet" style="width:765px;height:943px" width="559.371" xml:space="preserve"><path d="M197.132 356.483a3.668 3.668 0 0 0-.05-.466 2.31 2.31 0 0 0-.35-.827 2.372 2.372 0 0 0-1.328-.972 1.809 1.809 0 0 0-.192-.047 1.898 1.898 0 0 0-.16-.029c-.058-.008-.107-.016-.154-.02l-.206-.019c-.098-.005-.204-.013-.324-.018l-.368-.016a133.816 133.816 0 0 0-.922-.023l-.445-.008M192.633 354.038h-.037c-.162-.003-.323-.003-.478-.003h-.448a33.404 33.404 0 0 0-.75.015 8.159 8.159 0 0 0-.327.02c-.053.004-.11.009-.176.017a2.42 2.42 0 0 0-.42.091 2.49 2.49 0 0 0-.597.279 2.423 2.423 0 0 0-.842.945 2.936 2.936 0 0 0-.166.443 1.572 1.572 0 0 0-.078.474l.002.061M197.533 405.626a3549.68 3549.68 0 0 0-.016-11.299 2788.566 2788.566 0 0 0-.112-16.676 2457.454 2457.454 0 0 0-.27-20.673M197.412 434.735c.024-2.21.045-4.425.065-6.642.041-5.378.052-10.763.063-16.151M197.076 461c.093-5.314.188-10.637.24-15.969l.009-1.005M195.253 525.919c.17-4.447.341-8.9.496-13.36.195-5.601.368-11.212.53-16.832.162-5.613.311-11.235.437-16.865.074-3.356.14-6.715.208-10.078M185.896 465.191l-.003.49a1886.622 1886.622 0 0 0-.03 16.248c.005 5.451.022 10.899.054 16.335.033 5.479.077 10.947.148 16.406.044 3.73.101 7.453.159 11.174M186.018 448.642l-.01.9c-.028 2.39-.04 4.781-.052 7.17M188.306 356.569a2125.85 2125.85 0 0 0-.584 15.673 3095.28 3095.28 0 0 0-1.241 45.505c-.111 5.275-.205 10.543-.276 15.8-.03 2.084-.053 4.167-.079 6.246" style="fill:none;stroke:red;stroke-width:1.6;stroke-linecap:round;stroke-linejoin:round;stroke-miterlimit:10;stroke-dasharray:none;stroke-opacity:1;visibility:visible" visibility="hidden"/><path d="M186.224 525.71c0 .037-.004.073.005.108a.365.365 0 0 0 .083.161.69.69 0 0 0 .122.113 1.188 1.188 0 0 0 .18.103 1.827 1.827 0 0 0 .336.12c.028.007.06.013.088.023" style="fill:none;stroke:red;stroke-width:1.6;stroke-linecap:round;stroke-linejoin:round;stroke-miterlimit:10;stroke-dasharray:none;stroke-opacity:1;visibility:visible" visibility="hidden"/><path d="m194.888 526.275.068-.033a.656.656 0 0 0 .15-.106.389.389 0 0 0 .11-.14c.024-.05.034-.113.046-.174" style="fill:none;stroke:red;stroke-width:.666665;stroke-linecap:round;stroke-linejoin:round;stroke-miterlimit:10;stroke-dasharray:none;stroke-opacity:1;visibility:visible" visibility="hidden"/><path d="m187.062 526.328-.062 5.639M194.333 532.054l.07-5.788M285.309 435.529c-3.232-1.262-6.446-2.52-9.659-3.751a912.35 912.35 0 0 0-9.763-3.673 972.83 972.83 0 0 0-38.525-13.38 870.555 870.555 0 0 0-9.488-3.014 1000.872 1000.872 0 0 0-9.43-2.889 659.785 659.785 0 0 0-9.377-2.763c-.78-.222-1.562-.442-2.341-.662M234.258 420.285a392.739 392.739 0 0 0-10.856 3.91 529.985 529.985 0 0 0-25.996 10.528M197.408 434.723a562.392 562.392 0 0 0-10.2 4.564l-1.082.5M186.125 439.787a580.35 580.35 0 0 0-13.585 6.503c-2.107 1.045-4.211 2.115-6.324 3.185M175.306 452.745a702.524 702.524 0 0 0 4.494-1.68c2.088-.789 4.16-1.595 6.22-2.415M186.02 448.649a520.093 520.093 0 0 0 8.483-3.434c1.069-.441 2.134-.885 3.195-1.333M197.697 443.882a566.257 566.257 0 0 0 11.057-4.807 568.117 568.117 0 0 0 6.95-3.172 515.025 515.025 0 0 0 13.541-6.536 327.742 327.742 0 0 0 6.589-3.357l.563-.3M140.7 485.108c1.946-.738 3.886-1.473 5.812-2.224a422.986 422.986 0 0 0 24.72-10.58 437.053 437.053 0 0 0 5.94-2.833 275.936 275.936 0 0 0 5.842-2.899c.924-.469 1.842-.946 2.758-1.42M176.297 461.942c-.708.278-1.417.555-2.125.837a305.88 305.88 0 0 0-6.202 2.564 405.003 405.003 0 0 0-12.43 5.497 450.875 450.875 0 0 0-6.218 2.934 352.538 352.538 0 0 0-6.221 3.056 630.076 630.076 0 0 0-4.424 2.26M122.62 441.685c1.352.564 2.705 1.128 4.066 1.685a744.18 744.18 0 0 0 9.688 3.891 1012.774 1012.774 0 0 0 9.827 3.816 883.882 883.882 0 0 0 11.301 4.238M163.92 457.563l.764.272a931.372 931.372 0 0 0 10.622 3.727" style="fill:none;stroke:red;stroke-width:1.6;stroke-linecap:round;stroke-linejoin:round;stroke-miterlimit:10;stroke-dasharray:none;stroke-opacity:1;visibility:visible" visibility="hidden"/><path d="M175.79 461.772a1004.956 1004.956 0 0 0 10.04 3.396M185.83 465.168a1178.89 1178.89 0 0 0 10.542 3.446 895.25 895.25 0 0 0 10.68 3.358c1.824.56 3.658 1.111 5.499 1.666M214.553 468.028c-3.19-1.306-6.363-2.606-9.53-3.884a972.256 972.256 0 0 0-7.945-3.153M197.078 460.99l-2.12-.827a1165.7 1165.7 0 0 0-9.428-3.62M185.53 456.543l-.584-.218a1140.637 1140.637 0 0 0-9.628-3.582M175.317 452.745l-.33-.12a1003.53 1003.53 0 0 0-8.764-3.151M166.224 449.471c-.38-.136-.758-.268-1.14-.401a936.027 936.027 0 0 0-29.338-9.841 660.585 660.585 0 0 0-12.858-3.966M235.898 425.975l2.005.695a720.342 720.342 0 0 0 9.962 3.315 1079.525 1079.525 0 0 0 10.082 3.238 1216.246 1216.246 0 0 0 10.214 3.162 876.615 876.615 0 0 0 10.339 3.074c1.654.481 3.31.951 4.975 1.424M195.596 411.175c1.284.508 2.57 1.019 3.86 1.525a948.368 948.368 0 0 0 18.96 7.126c2.841 1.03 5.698 2.043 8.566 3.059" style="fill:none;stroke:red;stroke-width:1.6;stroke-linecap:round;stroke-linejoin:round;stroke-miterlimit:10;stroke-dasharray:none;stroke-opacity:1;visibility:visible" visibility="hidden"/><path d="M187.118 526.347a21.203 21.203 0 0 0 5.594.296M195.057 526.004c.008-.214.016-.429.01-.629a3.423 3.423 0 0 0-.063-.553 1.384 1.384 0 0 0-.171-.474.541.541 0 0 0-.213-.205.481.481 0 0 0-.3-.036.89.89 0 0 0-.3.12 1.632 1.632 0 0 0-.302.239 2.881 2.881 0 0 0-.596.928 2.276 2.276 0 0 0-.154.696c-.008.092-.003.18 0 .27M195.776 411.213c-.112-.043-.22-.083-.331-.143a2.437 2.437 0 0 1-.568-.47 3.913 3.913 0 0 1-.573-.77 3.688 3.688 0 0 1-.394-1.092 2.79 2.79 0 0 1 .26-1.741 3.368 3.368 0 0 1 1.132-1.267c.239-.157.479-.268.715-.341.225-.072.443-.111.601-.049a.633.633 0 0 1 .079.042" style="fill:none;stroke:red;stroke-width:.999997;stroke-linecap:round;stroke-linejoin:round;stroke-miterlimit:10;stroke-dasharray:none;stroke-opacity:1;visibility:visible" visibility="hidden"/><path d="M195.057 526.004a.56.56 0 0 1-.024.104.293.293 0 0 1-.113.15.243.243 0 0 1-.076.032c-.027.006-.054.005-.082.004" style="fill:none;stroke:red;stroke-width:1.6;stroke-linecap:round;stroke-linejoin:round;stroke-miterlimit:10;stroke-dasharray:none;stroke-opacity:1;visibility:visible" visibility="hidden"/><path d="M192.712 526.643c.038 0 .078 0 .113-.01a.207.207 0 0 0 .128-.136.371.371 0 0 0 .013-.095v-.042" style="fill:none;stroke:red;stroke-width:.666665;stroke-linecap:round;stroke-linejoin:round;stroke-miterlimit:10;stroke-dasharray:none;stroke-opacity:1;visibility:visible" visibility="hidden"/><path d="m194.333 532.054-.036.076-.153.096-.264.086-.367.08M193.513 532.392l-.459.068-.536.051-.596.036-.638.017h-.656l-.655-.017-.633-.035-.59-.052-.53-.065-.45-.079-.356-.088-.25-.093-.138-.1-.026-.067" style="fill:none;stroke:red;stroke-width:1.6;stroke-linecap:round;stroke-linejoin:round;stroke-miterlimit:10;stroke-dasharray:none;stroke-opacity:1;visibility:visible" visibility="hidden"/><path d="M194.26 526.266c-.032.208-.063.417-.12.598a1.277 1.277 0 0 1-.17.378.677.677 0 0 1-.258.232.524.524 0 0 1-.294.048.73.73 0 0 1-.3-.096 1.227 1.227 0 0 1-.293-.236 1.637 1.637 0 0 1-.26-.375 3.613 3.613 0 0 1-.103-.244" style="fill:none;stroke:red;stroke-width:.666665;stroke-linecap:round;stroke-linejoin:round;stroke-miterlimit:10;stroke-dasharray:none;stroke-opacity:1;visibility:visible" visibility="hidden"/><path d="m192.72 527.036.185.115.217.025.184-.094.122-.203.042-.281-.045-.312-.125-.3-.187-.242-.057-.048M194.578 526.266a2.16 2.16 0 0 0-1.036-1.603" style="fill:none;stroke:red;stroke-width:.999997;stroke-linecap:round;stroke-linejoin:round;stroke-miterlimit:10;stroke-dasharray:none;stroke-opacity:1;visibility:visible" visibility="hidden"/><path d="M194.578 526.266h-.317" style="fill:none;stroke:red;stroke-width:.666665;stroke-linecap:round;stroke-linejoin:round;stroke-miterlimit:10;stroke-dasharray:none;stroke-opacity:1;visibility:visible" visibility="hidden"/><path d="M236.338 425.686c.09-.053.18-.106.25-.197a.987.987 0 0 0 .134-.264c.036-.107.072-.228.1-.367a4.89 4.89 0 0 0 .081-.663 8.447 8.447 0 0 0-.053-1.582 6.893 6.893 0 0 0-.157-.831 3.387 3.387 0 0 0-.33-.843 1.7 1.7 0 0 0-.445-.512 1.45 1.45 0 0 0-.525-.246 2.373 2.373 0 0 0-1.654.285" style="fill:none;stroke:red;stroke-width:.999997;stroke-linecap:round;stroke-linejoin:round;stroke-miterlimit:10;stroke-dasharray:none;stroke-opacity:1;visibility:visible" visibility="hidden"/><path d="m285.293 435.522.292.18.233.293.164.4.088.483.01.544" style="fill:none;stroke:red;stroke-width:1.6;stroke-linecap:round;stroke-linejoin:round;stroke-miterlimit:10;stroke-dasharray:none;stroke-opacity:1;visibility:visible" visibility="hidden"/><path d="m283.48 440.885-.218-.08-.264-.235-.201-.348-.13-.444-.05-.516.032-.568.11-.588.187-.586.252-.554.307-.496.345-.413.37-.315.373-.2.362-.075.338.055" style="fill:none;stroke:red;stroke-width:.999997;stroke-linecap:round;stroke-linejoin:round;stroke-miterlimit:10;stroke-dasharray:none;stroke-opacity:1;visibility:visible" visibility="hidden"/><path d="m286.08 437.422-.075.581-.149.588-.221.57-.276.529-.326.457-.36.366-.374.26-.369.137-.355.011-.097-.034" style="fill:none;stroke:red;stroke-width:1.6;stroke-linecap:round;stroke-linejoin:round;stroke-miterlimit:10;stroke-dasharray:none;stroke-opacity:1;visibility:visible" visibility="hidden"/><path d="m283.973 438.371.017.207.071.15.117.068.141-.022.148-.11.131-.181.09-.221.042-.233-.016-.204-.072-.15-.115-.068-.142.023-.148.107-.131.178-.092.225-.041.231" style="fill:none;stroke:red;stroke-width:.666665;stroke-linecap:round;stroke-linejoin:round;stroke-miterlimit:10;stroke-dasharray:none;stroke-opacity:1;visibility:visible" visibility="hidden"/><path d="m214.289 467.958-.389.025-.406.157-.404.284-.387.396-.349.491-.294.561-.23.606-.148.621-.062.611" style="fill:none;stroke:red;stroke-width:.999997;stroke-linecap:round;stroke-linejoin:round;stroke-miterlimit:10;stroke-dasharray:none;stroke-opacity:1;visibility:visible" visibility="hidden"/><path d="m212.542 473.651.372.04.397-.093.41-.223.397-.343.368-.445.324-.527.26-.586.19-.615.105-.617.022-.59-.067-.536-.153-.456-.232-.356-.297-.237-.35-.11" style="fill:none;stroke:red;stroke-width:1.6;stroke-linecap:round;stroke-linejoin:round;stroke-miterlimit:10;stroke-dasharray:none;stroke-opacity:1;visibility:visible" visibility="hidden"/><path d="m211.62 471.708.025.567.113.5.192.405.265.3.327.171" style="fill:none;stroke:red;stroke-width:.999997;stroke-linecap:round;stroke-linejoin:round;stroke-miterlimit:10;stroke-dasharray:none;stroke-opacity:1;visibility:visible" visibility="hidden"/><path d="m213.094 471.018.026.214.08.151.13.068.156-.028.159-.12.138-.193.097-.236.04-.244-.027-.21-.082-.154-.13-.067-.156.027-.159.12-.136.192-.097.236-.039.244" style="fill:none;stroke:red;stroke-width:.666665;stroke-linecap:round;stroke-linejoin:round;stroke-miterlimit:10;stroke-dasharray:none;stroke-opacity:1;visibility:visible" visibility="hidden"/><path d="M122.862 435.278c-.078-.028-.152-.06-.237-.07-.177-.018-.384.056-.604.173a3.783 3.783 0 0 0-.656.454 5.672 5.672 0 0 0-.627.646 4.98 4.98 0 0 0-.55.813c-.042.076-.08.156-.12.235M120.066 437.529c-.114.297-.229.591-.281.894a2.336 2.336 0 0 0 .024.908 2.541 2.541 0 0 0 .88 1.41c.25.207.541.355.83.505M189.936 356.515a55.66 55.66 0 0 0 7.198-.025M188.309 356.377a7.31 7.31 0 0 0 1.627.138" style="fill:none;stroke:red;stroke-width:.999997;stroke-linecap:round;stroke-linejoin:round;stroke-miterlimit:10;stroke-dasharray:none;stroke-opacity:1;visibility:visible" visibility="hidden"/><path d="M114.968 389.738a3.933 3.933 0 0 0-.195-.512 2.513 2.513 0 0 0-.283-.459 3.107 3.107 0 0 0-.734-.687 3.27 3.27 0 0 0-.432-.242 3.276 3.276 0 0 0-.47-.18 5.556 5.556 0 0 0-.494-.116M105.837 391.998a5956.904 5956.904 0 0 0 4.42 19.11 3498.382 3498.382 0 0 0 9.157 38.191 3600.482 3600.482 0 0 0 9.342 37.205M130.374 492.784a3643.118 3643.118 0 0 0 7.902 29.956 2652.38 2652.38 0 0 0 4.828 17.776c.822 2.978 1.649 5.947 2.473 8.904M127.349 435.955a2409.954 2409.954 0 0 0-1.32-5.09 2698.887 2698.887 0 0 0-5.487-20.635c-1.836-6.796-3.698-13.62-5.572-20.492M154.469 547.11a5098.053 5098.053 0 0 0-3.979-17.406 3474.655 3474.655 0 0 0-9.222-38.742l-.511-2.088M140.756 488.875c-.504-2.05-1.008-4.104-1.518-6.163M139.24 482.711c-.946-3.824-1.9-7.661-2.862-11.51a2360.494 2360.494 0 0 0-6.417-25.193" style="fill:none;stroke:red;stroke-width:1.6;stroke-linecap:round;stroke-linejoin:round;stroke-miterlimit:10;stroke-dasharray:none;stroke-opacity:1;visibility:visible" visibility="hidden"/><path d="M112.36 387.542a5.432 5.432 0 0 0-1.083-.073 7.59 7.59 0 0 0-1.387.17 7.587 7.587 0 0 0-1.309.391 6.996 6.996 0 0 0-.625.279 5.412 5.412 0 0 0-.616.361 4.39 4.39 0 0 0-.504.397 3.69 3.69 0 0 0-.383.407 3.09 3.09 0 0 0-.299.441 2.912 2.912 0 0 0-.354 1.002 3.77 3.77 0 0 0-.034.536c.002.18.012.365.066.534.004.006.005.013.008.02" style="fill:none;stroke:red;stroke-width:1.6;stroke-linecap:round;stroke-linejoin:round;stroke-miterlimit:10;stroke-dasharray:none;stroke-opacity:1;visibility:visible" visibility="hidden"/><path d="M146.529 550.364c.08.034.157.064.241.096.164.052.34.099.52.138a4.707 4.707 0 0 0 .588.078 6.923 6.923 0 0 0 1.298-.013c.224-.02.453-.05.682-.093a7.95 7.95 0 0 0 .688-.146c.227-.053.454-.12.675-.193a9.51 9.51 0 0 0 .55-.203" style="fill:none;stroke:red;stroke-width:.999997;stroke-linecap:round;stroke-linejoin:round;stroke-miterlimit:10;stroke-dasharray:none;stroke-opacity:1;visibility:visible" visibility="hidden"/><path d="m146.678 550.415 1.087 4.305M155.057 552.884l-1.107-4.421M154.113 548.419c.03-.037.059-.077.084-.117a1.727 1.727 0 0 0 .3-.772.963.963 0 0 0-.017-.387c-.011-.047-.027-.084-.044-.127M145.548 549.315c.006.037.009.072.018.104a.9.9 0 0 0 .167.328 1.748 1.748 0 0 0 .6.517c.063.032.13.07.196.099" style="fill:none;stroke:red;stroke-width:1.6;stroke-linecap:round;stroke-linejoin:round;stroke-miterlimit:10;stroke-dasharray:none;stroke-opacity:1;visibility:visible" visibility="hidden"/><path d="M151.813 549.824c-.043-.19-.088-.384-.09-.584a2.088 2.088 0 0 1 .101-.618 2.912 2.912 0 0 1 .6-1.088 2.1 2.1 0 0 1 .362-.32 1.093 1.093 0 0 1 .312-.147.648.648 0 0 1 .279-.017.624.624 0 0 1 .27.12 1.024 1.024 0 0 1 .253.314c.085.146.154.329.204.535l.044.208" style="fill:none;stroke:red;stroke-width:.999997;stroke-linecap:round;stroke-linejoin:round;stroke-miterlimit:10;stroke-dasharray:none;stroke-opacity:1;visibility:visible" visibility="hidden"/><path d="M153.77 548.4a1.703 1.703 0 0 0-1.094-1.096M153.95 548.462c.031.006.06.013.088.006a.1.1 0 0 0 .068-.038.165.165 0 0 0 .038-.07.245.245 0 0 0 .009-.09c0-.011-.004-.027-.005-.043M151.813 549.824c.01.031.019.058.023.084a.13.13 0 0 1-.008.066c-.006.018-.015.036-.035.044a.37.37 0 0 1-.021.008" style="fill:none;stroke:red;stroke-width:.666665;stroke-linecap:round;stroke-linejoin:round;stroke-miterlimit:10;stroke-dasharray:none;stroke-opacity:1;visibility:visible" visibility="hidden"/><path d="m147.765 554.72.055.147.193.267.303.224.402.172.487.116.561.058.615-.004.647-.064.658-.122.652-.182.62-.23.57-.267.502-.308M154.03 554.528l.418-.328.32-.34.212-.342.094-.334-.017-.298" style="fill:none;stroke:red;stroke-width:1.6;stroke-linecap:round;stroke-linejoin:round;stroke-miterlimit:10;stroke-dasharray:none;stroke-opacity:1;visibility:visible" visibility="hidden"/><path d="M151.729 550.088c.06.054.12.112.185.152a.885.885 0 0 0 .43.124.95.95 0 0 0 .765-.302 1.267 1.267 0 0 0 .227-.343c.062-.135.106-.285.136-.437.033-.175.046-.356.046-.536 0-.096-.005-.194-.01-.29" style="fill:none;stroke:red;stroke-width:.999997;stroke-linecap:round;stroke-linejoin:round;stroke-miterlimit:10;stroke-dasharray:none;stroke-opacity:1;visibility:visible" visibility="hidden"/><path d="m152.002 548.208.21.039.252.155.192.256.104.312-.003.334-.105.29-.195.214-.255.095-.272-.03-.109-.051" style="fill:none;stroke:red;stroke-width:.999997;stroke-linecap:round;stroke-linejoin:round;stroke-miterlimit:10;stroke-dasharray:none;stroke-opacity:1;visibility:visible" visibility="hidden"/><path d="m153.506 548.456.264-.056" style="fill:none;stroke:red;stroke-width:.666665;stroke-linecap:round;stroke-linejoin:round;stroke-miterlimit:10;stroke-dasharray:none;stroke-opacity:1;visibility:visible" visibility="hidden"/><path d="m105.836 392 .01.033.14.254.262.214.374.169.48.121.569.067.645.015.702-.043.74-.09.757-.147.755-.193.732-.233.688-.267.624-.298.546-.315.449-.329.344-.328.225-.323.107-.305-.016-.264" style="fill:none;stroke:red;stroke-width:.999997;stroke-linecap:round;stroke-linejoin:round;stroke-miterlimit:10;stroke-dasharray:none;stroke-opacity:1;visibility:visible" visibility="hidden"/><path d="M129.945 490.008a.168.168 0 0 0 .068-.014.152.152 0 0 0 .099-.138M129.656 489.92a.673.673 0 0 0 .289.087M129.608 489.888c.017.014.032.022.048.032M128.973 491.555a.373.373 0 0 0 .195-.185M129.168 491.37c.089-.207.13-.43.121-.655M129.289 490.715a3.865 3.865 0 0 0-.89-2.295M128.398 488.422a1.43 1.43 0 0 0-.53-.403M126.653 489.311c.207-.081.543.293.752.83.21.541.213 1.044.004 1.123-.205.078-.541-.294-.752-.831-.208-.539-.208-1.043-.004-1.123v.001M128.781 488.978l.336-.132M130.062 489.562a1.765 1.765 0 0 0-.746-.839M129.316 488.723a.623.623 0 0 0-.29-.088M128.86 488.782a.928.928 0 0 0 .009.16M129.026 488.635a.19.19 0 0 0-.066.012.153.153 0 0 0-.1.135M129.164 488.838a.115.115 0 0 0-.047.008" style="fill:none;stroke:red;stroke-width:.999997;stroke-linecap:round;stroke-linejoin:round;stroke-miterlimit:2;stroke-dasharray:none;stroke-opacity:1;visibility:visible" visibility="hidden"/><path d="M130.112 489.858a.623.623 0 0 0-.042-.275l-.008-.021M128.36 491.792c-.38.052-1.05-.022-1.44-.792" style="fill:none;stroke:red;stroke-width:.999997;stroke-linecap:round;stroke-linejoin:round;stroke-miterlimit:2;stroke-dasharray:none;stroke-opacity:1;visibility:visible" visibility="hidden"/><path d="m127.072 488.214.278-.108.243-.092M128.445 491.758l.279-.108.244-.092" style="fill:none;stroke:red;stroke-width:.999997;stroke-linecap:round;stroke-linejoin:round;stroke-miterlimit:4;stroke-dasharray:none;stroke-opacity:1;visibility:visible" visibility="hidden"/><path d="M162.09 456.809a3.859 3.859 0 0 0-.89-2.295M161.2 454.514a1.43 1.43 0 0 0-.531-.404M127.098 488.203c-.33.192-.817.657-.656 1.504M159.456 455.403c.206-.081.542.294.752.83.21.541.212 1.045.005 1.123-.208.078-.544-.294-.753-.831-.21-.538-.21-1.042-.004-1.122M161.584 455.07l.336-.132M162.864 455.654a1.756 1.756 0 0 0-.746-.839M162.12 454.815a.627.627 0 0 0-.29-.088M161.664 454.875a.721.721 0 0 0 .009.16M161.83 454.727a.159.159 0 0 0-.166.147M161.968 454.93a.115.115 0 0 0-.048.008M162.914 455.95a.64.64 0 0 0-.05-.296M162.75 456.102a.162.162 0 0 0 .067-.015.15.15 0 0 0 .099-.137M162.46 456.013a.68.68 0 0 0 .29.089M162.412 455.982c.016.013.032.021.048.03M161.778 457.649a.373.373 0 0 0 .194-.186" style="fill:none;stroke:red;stroke-width:.999997;stroke-linecap:round;stroke-linejoin:round;stroke-miterlimit:2;stroke-dasharray:none;stroke-opacity:1;visibility:visible" visibility="hidden"/><path d="M161.97 457.462c.09-.207.13-.43.12-.655M161.162 457.885c-.38.052-1.05-.023-1.438-.792" style="fill:none;stroke:red;stroke-width:.999997;stroke-linecap:round;stroke-linejoin:round;stroke-miterlimit:2;stroke-dasharray:none;stroke-opacity:1;visibility:visible" visibility="hidden"/><path d="m159.874 454.307.279-.107.243-.093M161.25 457.851l.28-.108.242-.092" style="fill:none;stroke:red;stroke-width:.999997;stroke-linecap:round;stroke-linejoin:round;stroke-miterlimit:4;stroke-dasharray:none;stroke-opacity:1;visibility:visible" visibility="hidden"/><path d="M159.904 454.297a1.359 1.359 0 0 0-.66 1.503" style="fill:none;stroke:red;stroke-width:.999997;stroke-linecap:round;stroke-linejoin:round;stroke-miterlimit:2;stroke-dasharray:none;stroke-opacity:1;visibility:visible" visibility="hidden"/><path d="m197.533 405.626.007 6.316M197.076 461l-.152 7.784M129.117 488.846l11.583-3.738M127.098 488.203l11.579-9.113M121.519 441.246l1.101.439M160.669 454.11l-3.167 1.205M157.502 455.315l6.418 2.248M235.898 425.975l-8.916-3.09" style="fill:none;stroke:red;stroke-width:1.6;stroke-linecap:round;stroke-linejoin:round;stroke-miterlimit:10;stroke-dasharray:none;stroke-opacity:1;visibility:visible" visibility="hidden"/><path d="m286.08 437.422-2.107.949M286.08 437.422l-2.107.949" style="fill:none;stroke:red;stroke-width:.666665;stroke-linecap:round;stroke-linejoin:round;stroke-miterlimit:10;stroke-dasharray:none;stroke-opacity:1;visibility:visible" visibility="hidden"/><path d="m122.62 441.685-1.101-.439" style="fill:none;stroke:red;stroke-width:.999997;stroke-linecap:round;stroke-linejoin:round;stroke-miterlimit:10;stroke-dasharray:none;stroke-opacity:1;visibility:visible" visibility="hidden"/><path d="m130.374 492.784-1.618-6.28M126.442 489.707l3.932 3.077M129.961 446.008l-2.612-10.053M127.349 435.955l2.612 10.053" style="fill:none;stroke:red;stroke-width:1.6;stroke-linecap:round;stroke-linejoin:round;stroke-miterlimit:10;stroke-dasharray:none;stroke-opacity:1;visibility:visible" visibility="hidden"/><path d="M130.062 489.562 126.92 491M162.864 455.654l-3.14 1.439" style="fill:none;stroke:red;stroke-width:.999997;stroke-linecap:round;stroke-linejoin:round;stroke-miterlimit:2;stroke-dasharray:none;stroke-opacity:1;visibility:visible" visibility="hidden"/><path d="M242.28 593.032c.26 2.436.522 4.864.804 7.288a626.465 626.465 0 0 0 2.026 15.51 589.487 589.487 0 0 0 3.757 22.83c.394 2.111.804 4.216 1.213 6.312M254.72 644.715l-.048-.583a371.407 371.407 0 0 0-.73-7.795 563.29 563.29 0 0 0-1.796-15.686 588.399 588.399 0 0 0-3.537-23.752c-.387-2.26-.794-4.52-1.199-6.789M233.434 598.007a463.424 463.424 0 0 0 .673 11.713c.188 2.727.387 5.445.606 8.16.216 2.712.453 5.415.705 8.11.25 2.698.519 5.385.805 8.063.287 2.68.588 5.352.904 8.014.318 2.662.65 5.313 1.003 7.961.31 2.301.633 4.599.96 6.89M243.814 656.805l-.041-1.275a405.871 405.871 0 0 0-.39-8.21 612.87 612.87 0 0 0-1.113-16.528 639.63 639.63 0 0 0-1.563-16.652 762.313 762.313 0 0 0-.95-8.373 479.286 479.286 0 0 0-1.067-8.39l-.3-2.157" style="fill:none;stroke:#00ff4a;stroke-width:1.6;stroke-linecap:round;stroke-linejoin:round;stroke-miterlimit:10;stroke-dasharray:none;stroke-opacity:1;visibility:visible" visibility="hidden"/><path d="m254.743 644.848-.025-.17" style="fill:none;stroke:#00ff4a;stroke-width:.666665;stroke-linecap:round;stroke-linejoin:round;stroke-miterlimit:10;stroke-dasharray:none;stroke-opacity:1;visibility:visible" visibility="hidden"/><path d="M249.77 643.355a27.11 27.11 0 0 1-1.427 2.321 38.864 38.864 0 0 1-2.233 2.975c-.408.489-.828.979-1.271 1.465a68.68 68.68 0 0 1-1.259 1.335M219.274 605.797c-.004 1.213-.007 2.423-.007 3.636.006 2.837.043 5.671.091 8.498a675.082 675.082 0 0 0 2.005 41.934c.2 2.463.415 4.92.632 7.375M226.78 667.228l.023-1.37c.038-2.851.035-5.706.019-8.566a742 742 0 0 0-.09-8.597 648.353 648.353 0 0 0-.519-17.308 687.04 687.04 0 0 0-.423-8.703 813.767 813.767 0 0 0-.543-8.734 486.119 486.119 0 0 0-.657-8.758l-.183-2.108M200.622 609.204a895.672 895.672 0 0 0-.336 5.937 618.354 618.354 0 0 0-.385 8.72 764.23 764.23 0 0 0-.279 8.694 699.188 699.188 0 0 0-.172 8.668 747.993 747.993 0 0 0-.068 8.637 739.307 739.307 0 0 0 .183 17.179c.065 2.8.153 5.591.243 8.38M204.6 675.345l.119-1.714c.196-2.941.354-5.891.498-8.846.143-2.955.277-5.914.39-8.882a680.534 680.534 0 0 0 .443-17.883c.037-2.99.056-5.989.053-8.995 0-3.002-.023-6.012-.058-9.028a514.366 514.366 0 0 0-.175-9.054l-.06-1.959M188.81 687.919l2.184 2.973M190.976 690.872c.069.096.136.193.212.284.132.156.285.293.449.42a3.853 3.853 0 0 0 1.1.6 4.299 4.299 0 0 0 1.289.225 4 4 0 0 0 .679-.033c.177-.023.355-.063.53-.1M195.236 692.279l1.694-.395c1.07-.255 2.13-.519 3.181-.79a159.218 159.218 0 0 0 6.199-1.723 152.433 152.433 0 0 0 8.836-2.929 136.198 136.198 0 0 0 8.21-3.316c.878-.39 1.741-.785 2.59-1.189a112.317 112.317 0 0 0 4.929-2.482 87.723 87.723 0 0 0 2.337-1.296 85.762 85.762 0 0 0 4.418-2.687 76.238 76.238 0 0 0 5.94-4.256 78.794 78.794 0 0 0 1.792-1.47 75.802 75.802 0 0 0 1.692-1.494 57.99 57.99 0 0 0 3.09-3.057 49.724 49.724 0 0 0 2.688-3.128c.413-.53.809-1.058 1.189-1.591a38.937 38.937 0 0 0 2.069-3.215c.311-.541.603-1.08.88-1.624a29.583 29.583 0 0 0 .94-2.021" style="fill:none;stroke:#00ff4a;stroke-width:1.6;stroke-linecap:round;stroke-linejoin:round;stroke-miterlimit:10;stroke-dasharray:none;stroke-opacity:1;visibility:visible" visibility="hidden"/><path d="M199.768 674.09c-.813.22-1.628.436-2.448.648a173.149 173.149 0 0 1-8.73 1.982M221.898 666.104c-.743.345-1.484.69-2.241 1.028a113.178 113.178 0 0 1-2.547 1.092 118.182 118.182 0 0 1-2.623 1.057 129.193 129.193 0 0 1-5.46 1.992c-.935.319-1.875.634-2.833.934-.471.148-.944.292-1.421.433M238.917 655.681l-.144.124a44.837 44.837 0 0 1-1.763 1.371 72.99 72.99 0 0 1-3.804 2.665 75.24 75.24 0 0 1-2.04 1.292 97.77 97.77 0 0 1-2.132 1.267 59.51 59.51 0 0 1-2.227 1.237" style="fill:none;stroke:#00ff4a;stroke-width:1.6;stroke-linecap:round;stroke-linejoin:round;stroke-miterlimit:10;stroke-dasharray:none;stroke-opacity:1;visibility:visible" visibility="hidden"/><path d="M188.59 676.719a.69.69 0 0 0-.55.68" style="fill:none;stroke:#00ff4a;stroke-width:.666665;stroke-linecap:round;stroke-linejoin:round;stroke-miterlimit:10;stroke-dasharray:none;stroke-opacity:1;visibility:visible" visibility="hidden"/><path d="m257.911 653.61.022-.037c.057-.124.104-.271.15-.429.051-.164.1-.336.148-.521.044-.179.089-.37.129-.575.021-.1.037-.204.057-.31M258.417 651.739l.053-.304c.037-.207.072-.426.1-.647.032-.221.057-.444.084-.67.023-.222.047-.449.067-.672l.052-.673a28.772 28.772 0 0 0 .046-1.156M258.373 638.933l-4.226-.403M188.088 685.688a3.701 3.701 0 0 0-.006.17 2.777 2.777 0 0 0 .083.648c.048.21.108.414.184.614a2.853 2.853 0 0 0 .283.56c.056.084.117.16.178.24M188.04 677.399l.037 8.29" style="fill:none;stroke:#00ff4a;stroke-width:1.6;stroke-linecap:round;stroke-linejoin:round;stroke-miterlimit:10;stroke-dasharray:none;stroke-opacity:1;visibility:visible" visibility="hidden"/><path d="m258.82 647.615.146-8.015M258.969 639.6a.657.657 0 0 0-.595-.667" style="fill:none;stroke:#00ff4a;stroke-width:.666665;stroke-linecap:round;stroke-linejoin:round;stroke-miterlimit:10;stroke-dasharray:none;stroke-opacity:1;visibility:visible" visibility="hidden"/><path d="M200.637 609.204a57.804 57.804 0 0 0 5.223-.224M205.862 608.979a50.48 50.48 0 0 0 1.71-.179 48.843 48.843 0 0 0 6.494-1.22 38.576 38.576 0 0 0 4.341-1.413c.295-.12.586-.24.871-.364M219.278 605.804l.443-.197a24.47 24.47 0 0 0 1.242-.603c.247-.128.487-.261.727-.393M141.266 573.043l-4.845 3.92M249.166 573.736l-4.852-3.886M221.689 604.61l2.718-1.526M224.407 603.083l9.028-5.076M233.434 598.008l4.956-2.79M238.39 595.219l3.89-2.187M242.28 593.032l4.266-2.401M140.266 589.747l43.31 16.588" style="fill:none;stroke:#00ff4a;stroke-width:1.6;stroke-linecap:round;stroke-linejoin:round;stroke-miterlimit:10;stroke-dasharray:none;stroke-opacity:1;visibility:visible" visibility="hidden"/><path d="M183.576 606.335c.244.09.484.181.73.27a37.94 37.94 0 0 0 2.939.911 42.55 42.55 0 0 0 3.153.727c.54.105 1.09.201 1.642.286a48.88 48.88 0 0 0 3.384.427 55.755 55.755 0 0 0 5.214.248" style="fill:none;stroke:#00ff4a;stroke-width:1.6;stroke-linecap:round;stroke-linejoin:round;stroke-miterlimit:10;stroke-dasharray:none;stroke-opacity:1;visibility:visible" visibility="hidden"/><path d="M252.84 580.316c-.023-.13-.158-1.553-.188-1.684a5.473 5.473 0 0 0-.247-.786 7.897 7.897 0 0 0-.355-.778 9.515 9.515 0 0 0-.457-.765 6.699 6.699 0 0 0-.723-.93" style="fill:none;stroke:#00ff4a;stroke-width:.666665;stroke-linecap:round;stroke-linejoin:round;stroke-miterlimit:10;stroke-dasharray:none;stroke-opacity:1;visibility:visible" visibility="hidden"/><path d="M246.549 590.632c.193-.11.381-.221.57-.334l.296-.18M247.417 590.119a16.64 16.64 0 0 0 1.668-1.189 13.02 13.02 0 0 0 1.584-1.506 9.56 9.56 0 0 0 .349-.414M251.018 587.008a9.033 9.033 0 0 0 .815-1.201c.156-.275.293-.552.413-.835a6.933 6.933 0 0 0 .483-1.692c.048-.28.084-.562.074-.845l-.001-.05M252.803 582.387l.035-2.164" style="fill:none;stroke:#00ff4a;stroke-width:1.6;stroke-linecap:round;stroke-linejoin:round;stroke-miterlimit:10;stroke-dasharray:none;stroke-opacity:1;visibility:visible" visibility="hidden"/><path d="M135.357 577.984a4.259 4.259 0 0 0-.501.656 5.823 5.823 0 0 0-.366.65 4.223 4.223 0 0 0-.254.658 3.355 3.355 0 0 0-.142.663 6.033 6.033 0 0 0-.029.579" style="fill:none;stroke:#00ff4a;stroke-width:.666665;stroke-linecap:round;stroke-linejoin:round;stroke-miterlimit:10;stroke-dasharray:none;stroke-opacity:1;visibility:visible" visibility="hidden"/><path d="M143.573 571.824c-.128.07-1.373.627-1.501.696a12.495 12.495 0 0 0-.806.523M134.114 583.319l-.004.088a3.107 3.107 0 0 0 .072.692c.048.23.102.456.178.677a4.747 4.747 0 0 0 .28.662 6.204 6.204 0 0 0 .862 1.262c.18.21.375.41.586.603a9.652 9.652 0 0 0 1.485 1.123 14.31 14.31 0 0 0 1.841.969c.276.123.563.235.851.35M134.062 581.21l.044 2.166" style="fill:none;stroke:#00ff4a;stroke-width:1.6;stroke-linecap:round;stroke-linejoin:round;stroke-miterlimit:10;stroke-dasharray:none;stroke-opacity:1;visibility:visible" visibility="hidden"/><path d="M199.357 675.319c-.008.67 1.256 1.217 2.828 1.22 1.568.001 2.85-.535 2.865-1.203M221.543 667.221c.017.667 1.303 1.204 2.875 1.199 1.568-.004 2.83-.544 2.82-1.207M238.6 656.833c.042.667 1.356 1.191 2.933 1.174 1.574-.017 2.817-.564 2.781-1.227M249.69 645.279c.495.63 2.12.971 3.625.757 1.222-.17 2.026-.66 1.971-1.199M244.447 573.926c-.002-.476-.917-.86-2.053-.856-1.133.004-2.05.39-2.048.866 0 .475.919.856 2.052.854 1.132-.003 2.052-.391 2.05-.864M236.722 582.608c.001-.473-.912-.861-2.04-.861-1.127-.001-2.042.383-2.042.856 0 .477.911.863 2.041.863 1.125.002 2.041-.383 2.041-.858M223.351 589.978c0-.475-.909-.863-2.031-.866-1.126-.001-2.038.383-2.038.86-.001.476.91.863 2.033.868 1.125-.001 2.035-.386 2.036-.862" style="fill:none;stroke:#00ff4a;stroke-width:.999997;stroke-linecap:round;stroke-linejoin:round;stroke-miterlimit:10;stroke-dasharray:none;stroke-opacity:1;visibility:visible" visibility="hidden"/><path d="M193.909 591.619c-.024 1.117 1.971 2.065 4.451 2.115 2.484.05 4.514-.814 4.537-1.932" style="fill:none;stroke:#00ff4a;stroke-width:1.6;stroke-linecap:round;stroke-linejoin:round;stroke-miterlimit:10;stroke-dasharray:none;stroke-opacity:1;visibility:visible" visibility="hidden"/><path d="M202.897 591.802c.013-.712-.79-1.355-2.017-1.74M198.049 589.687c-2.3.043-4.12.875-4.14 1.932" style="fill:none;stroke:#00ff4a;stroke-width:.999997;stroke-linecap:round;stroke-linejoin:round;stroke-miterlimit:10;stroke-dasharray:none;stroke-opacity:1;visibility:visible" visibility="hidden"/><path d="M151.037 574.968c.004.624.752 1.172 1.903 1.507M152.94 576.475c.774.227 1.729.355 2.76.347 2.57-.022 4.644-.887 4.633-1.932" style="fill:none;stroke:#00ff4a;stroke-width:1.6;stroke-linecap:round;stroke-linejoin:round;stroke-miterlimit:10;stroke-dasharray:none;stroke-opacity:1;visibility:visible" visibility="hidden"/><path d="M160.306 574.684c-.148-.541-.862-1.012-1.896-1.31M158.409 573.374a7.095 7.095 0 0 0-.632-.151M154.997 573.062c-2.248.15-3.97.954-3.96 1.906" style="fill:none;stroke:#00ff4a;stroke-width:.999997;stroke-linecap:round;stroke-linejoin:round;stroke-miterlimit:10;stroke-dasharray:none;stroke-opacity:1;visibility:visible" visibility="hidden"/><path d="M160.333 574.888a.817.817 0 0 0-.028-.204" style="fill:none;stroke:#00ff4a;stroke-width:.666665;stroke-linecap:round;stroke-linejoin:round;stroke-miterlimit:10;stroke-dasharray:none;stroke-opacity:1;visibility:visible" visibility="hidden"/><path d="M228.4 572.715c-.008 1.044 2.141 1.903 4.8 1.917 2.657.014 4.816-.821 4.821-1.866" style="fill:none;stroke:#00ff4a;stroke-width:1.6;stroke-linecap:round;stroke-linejoin:round;stroke-miterlimit:10;stroke-dasharray:none;stroke-opacity:1;visibility:visible" visibility="hidden"/><path d="M238.023 572.764c.007-1.042-2.143-1.901-4.8-1.916-2.659-.013-4.818.822-4.823 1.866" style="fill:none;stroke:#00ff4a;stroke-width:.999997;stroke-linecap:round;stroke-linejoin:round;stroke-miterlimit:10;stroke-dasharray:none;stroke-opacity:1;visibility:visible" visibility="hidden"/><path d="M186.357 556.83c.003 1.087 2.008 1.966 4.476 1.96 2.47-.005 4.47-.887 4.47-1.975" style="fill:none;stroke:#00ff4a;stroke-width:1.6;stroke-linecap:round;stroke-linejoin:round;stroke-miterlimit:10;stroke-dasharray:none;stroke-opacity:1;visibility:visible" visibility="hidden"/><path d="M205.466 595.283c0-.477-.912-.865-2.033-.865-1.123 0-2.035.39-2.033.87 0 .479.91.867 2.034.864 1.123 0 2.032-.39 2.032-.87M195.302 556.814c-.002-.822-1.148-1.522-2.772-1.814M189.6 554.932a14.683 14.683 0 0 0-.271.039M189.328 554.97c-1.735.277-2.972 1.007-2.972 1.86" style="fill:none;stroke:#00ff4a;stroke-width:.999997;stroke-linecap:round;stroke-linejoin:round;stroke-miterlimit:10;stroke-dasharray:none;stroke-opacity:1;visibility:visible" visibility="hidden"/><path d="M136.42 576.964a7.813 7.813 0 0 0-1.007.963M244.447 569.955c-1.32-1.065-3.36-2.081-4.973-2.639M250.82 575.312a12.33 12.33 0 0 0-1.655-1.577" style="fill:none;stroke:#00ff4a;stroke-width:1.6;stroke-linecap:round;stroke-linejoin:round;stroke-miterlimit:10;stroke-dasharray:none;stroke-opacity:1;visibility:visible" visibility="hidden"/><path d="m258.96 639.65-.667 1.732-.783 1.723-.905 1.716-1.027 1.707-1.148 1.695-1.27 1.677-1.385 1.667-1.508 1.643-1.621 1.626-1.74 1.599-1.855 1.575-1.968 1.554-2.078 1.517-2.187 1.491-2.296 1.457-2.4 1.424-2.502 1.383-2.603 1.345-2.702 1.309-2.792 1.261-2.885 1.218-2.973 1.171-3.058 1.125-3.137 1.075-3.216 1.025-3.288.972-3.356.915-3.423.863-3.481.804-3.541.75" style="fill:none;stroke:#00ff4a;stroke-width:.999997;stroke-linecap:round;stroke-linejoin:round;stroke-miterlimit:10;stroke-dasharray:none;stroke-opacity:1;visibility:visible" visibility="hidden"/><path d="m258.81 647.665.148-8.015" style="fill:none;stroke:#00ff4a;stroke-width:1.6;stroke-linecap:round;stroke-linejoin:round;stroke-miterlimit:10;stroke-dasharray:none;stroke-opacity:1;visibility:visible" visibility="hidden"/><path d="M190.273 680.467a.964.964 0 0 0 .892.202" style="fill:none;stroke:#00ff4a;stroke-width:.666665;stroke-linecap:round;stroke-linejoin:round;stroke-miterlimit:10;stroke-dasharray:none;stroke-opacity:1;visibility:visible" visibility="hidden"/><path d="m190.273 680.467-2.19-2.947" style="fill:none;stroke:#00ff4a;stroke-width:.999997;stroke-linecap:round;stroke-linejoin:round;stroke-miterlimit:10;stroke-dasharray:none;stroke-opacity:1;visibility:visible" visibility="hidden"/><path d="m258.373 638.933-.013.003-.018.025-.02.051M188.078 685.688l.01.057.038.067M188.04 677.399l.009.056.035.065M257.95 653.435l-.013.11-.027.072" style="fill:none;stroke:#00ff4a;stroke-width:.666665;stroke-linecap:round;stroke-linejoin:round;stroke-miterlimit:10;stroke-dasharray:none;stroke-opacity:1;visibility:visible" visibility="hidden"/><path d="m258.81 647.665.01-.048" style="fill:none;stroke:#00ff4a;stroke-width:1.6;stroke-linecap:round;stroke-linejoin:round;stroke-miterlimit:10;stroke-dasharray:none;stroke-opacity:1;visibility:visible" visibility="hidden"/><path d="m258.969 639.6-.01.05" style="fill:none;stroke:#00ff4a;stroke-width:.666665;stroke-linecap:round;stroke-linejoin:round;stroke-miterlimit:10;stroke-dasharray:none;stroke-opacity:1;visibility:visible" visibility="hidden"/><path d="m187.33 595.144 1.316.456 1.392.41 1.462.357 1.516.305 1.564.25 1.608.195 1.632.133 1.653.077 1.662.013 1.661-.039 1.642-.103 1.624-.161 1.59-.217 1.55-.273 1.492-.33 1.433-.38 1.363-.433 1.283-.476 1.194-.521 1.103-.563M183.297 602.808l1.479.528 1.557.479 1.624.425 1.687.376 1.738.327 1.784.266 1.822.211 1.848.152 1.87.096 1.877.035 1.88-.024 1.872-.084 1.852-.14 1.828-.2 1.795-.256 1.749-.314 1.701-.364 1.638-.42 1.57-.47 1.498-.515 1.416-.563 1.328-.603 1.232-.643" style="fill:none;stroke:#00ff4a;stroke-width:.999997;stroke-linecap:round;stroke-linejoin:round;stroke-miterlimit:10;stroke-dasharray:none;stroke-opacity:1;visibility:visible" visibility="hidden"/><path d="m203.235 553.703-6.031-2.267M239.04 567.14l-24.912-9.337" style="fill:none;stroke:#00ff4a;stroke-width:1.6;stroke-linecap:round;stroke-linejoin:round;stroke-miterlimit:10;stroke-dasharray:none;stroke-opacity:1;visibility:visible" visibility="hidden"/><path d="m140.95 573.71-.205.26-.268.525-.136.532v.536l.137.53.27.517.4.5.526.474.646.443.757.407.859.362M143.936 578.798l43.394 16.346M217.07 593.844l24.956-13.79M242.026 580.055l.964-.577.856-.611.745-.637.63-.66.509-.682.391-.696.266-.71.144-.716.016-.72-.109-.718-.235-.71-.353-.702-.477-.688-.593-.67-.705-.643-.812-.623-.917-.592-1.013-.557-1.104-.521-1.19-.483" style="fill:none;stroke:#00ff4a;stroke-width:.999997;stroke-linecap:round;stroke-linejoin:round;stroke-miterlimit:10;stroke-dasharray:none;stroke-opacity:1;visibility:visible" visibility="hidden"/><path d="m197.202 551.436-.916-.305-.988-.257-1.048-.208-1.096-.156-.733-.067M189.16 550.408l-.587.035-1.123.123-1.086.178-1.032.23-.968.276-.892.324-.803.366M182.669 551.942l-26.784 13.624M153.049 567.006l-9.999 5.084" style="fill:none;stroke:#00ff4a;stroke-width:1.6;stroke-linecap:round;stroke-linejoin:round;stroke-miterlimit:10;stroke-dasharray:none;stroke-opacity:1;visibility:visible" visibility="hidden"/><path d="m221.942 601.105 24.888-13.934M139.934 586.275l43.362 16.532" style="fill:none;stroke:#00ff4a;stroke-width:.999997;stroke-linecap:round;stroke-linejoin:round;stroke-miterlimit:10;stroke-dasharray:none;stroke-opacity:1;visibility:visible" visibility="hidden"/><path d="m252.62 580.092.026-.498-.076-.815-.2-.813-.321-.802-.439-.793-.556-.776-.235-.283" style="fill:none;stroke:#00ff4a;stroke-width:1.6;stroke-linecap:round;stroke-linejoin:round;stroke-miterlimit:10;stroke-dasharray:none;stroke-opacity:1;visibility:visible" visibility="hidden"/><path d="m134.273 581.102.141.658.276.65.398.636.524.613.645.59.761.563.872.528.974.487 1.07.448M246.829 587.17l1.089-.653.988-.691.877-.716.764-.742.653-.762.533-.78.41-.796.291-.806.17-.813.014-.319" style="fill:none;stroke:#00ff4a;stroke-width:.999997;stroke-linecap:round;stroke-linejoin:round;stroke-miterlimit:10;stroke-dasharray:none;stroke-opacity:1;visibility:visible" visibility="hidden"/><path d="m135.413 577.926-.421.548-.374.646-.244.656-.114.662.013.664" style="fill:none;stroke:#00ff4a;stroke-width:1.6;stroke-linecap:round;stroke-linejoin:round;stroke-miterlimit:10;stroke-dasharray:none;stroke-opacity:1;visibility:visible" visibility="hidden"/><path d="m206.429 612.499 10.521-5.932" style="fill:none;stroke:#00ff4a;stroke-width:.666665;stroke-linecap:round;stroke-linejoin:round;stroke-miterlimit:10;stroke-dasharray:none;stroke-opacity:1;visibility:visible" visibility="hidden"/><path d="m257.911 653.61-8.141-10.255M204.773 672.64l-5.005 1.45M226.807 663.637l-4.909 2.467M199.768 674.09l5.005-1.45M221.898 666.104l4.909-2.467" style="fill:none;stroke:#00ff4a;stroke-width:1.6;stroke-linecap:round;stroke-linejoin:round;stroke-miterlimit:10;stroke-dasharray:none;stroke-opacity:1;visibility:visible" visibility="hidden"/><path d="m238.021 572.766 6.426 1.16M238.023 572.764l6.425 1.162M238.021 572.766l-1.299 9.842M238.023 572.764l-1.301 9.844M233.434 598.007l-10.083-8.029M236.722 582.608l-13.371 7.37M187.33 595.144l13.55-5.082M200.637 609.204l-2.588-19.517M202.897 591.802l2.569 3.481M202.897 591.802l2.569 3.48" style="fill:none;stroke:#00ff4a;stroke-width:.999997;stroke-linecap:round;stroke-linejoin:round;stroke-miterlimit:10;stroke-dasharray:none;stroke-opacity:1;visibility:visible" visibility="hidden"/><path d="m214.128 557.803-10.893-4.1M203.235 553.703l10.893 4.1M153.049 567.006l2.836-1.44M155.885 565.566l-2.836 1.44" style="fill:none;stroke:#00ff4a;stroke-width:1.6;stroke-linecap:round;stroke-linejoin:round;stroke-miterlimit:10;stroke-dasharray:none;stroke-opacity:1;visibility:visible" visibility="hidden"/><path d="m221.69 604.611-15.261 7.888M221.689 604.61l-4.739 1.957" style="fill:none;stroke:#00ff4a;stroke-width:.666665;stroke-linecap:round;stroke-linejoin:round;stroke-miterlimit:10;stroke-dasharray:none;stroke-opacity:1;visibility:visible" visibility="hidden"/><path d="M245.683 441.818a6.55 6.55 0 0 0 .048-.685c0-.226-.028-.451-.071-.673a4.235 4.235 0 0 0-.18-.647 4.453 4.453 0 0 0-1.159-1.7 5.107 5.107 0 0 0-.581-.471l-.07-.05" style="fill:none;stroke:#9500ff;stroke-width:1.6;stroke-linecap:round;stroke-linejoin:round;stroke-miterlimit:10;stroke-dasharray:none;stroke-opacity:1;visibility:visible"/><path d="M234.278 478.527a7.45 7.45 0 0 0-.484.517 2.48 2.48 0 0 0-.332.534 1.261 1.261 0 0 0-.115.496.681.681 0 0 0 .103.364.564.564 0 0 0 .259.212.723.723 0 0 0 .374.04 1.188 1.188 0 0 0 .435-.154c.144-.084.29-.198.428-.336a3.792 3.792 0 0 0 .694-1.05c.09-.193.165-.384.226-.56.064-.17.112-.33.147-.469.036-.141.057-.261.062-.356.006-.105-.008-.181-.044-.225-.037-.05-.101-.066-.197-.048a1.285 1.285 0 0 0-.344.14 4.896 4.896 0 0 0-.411.253 6.777 6.777 0 0 0-.429.318c-.124.103-.248.215-.372.324" style="fill:none;stroke:#9500ff;stroke-width:.999997;stroke-linecap:round;stroke-linejoin:round;stroke-miterlimit:10;stroke-dasharray:none;stroke-opacity:1;visibility:visible"/><path d="M233.843 480.138a3.037 3.037 0 0 0 1.315-2.3" style="fill:none;stroke:#9500ff;stroke-width:.999997;stroke-linecap:round;stroke-linejoin:round;stroke-miterlimit:10;stroke-dasharray:none;stroke-opacity:1;visibility:visible"/><path d="m199.08 574.358-.007.02-.072.518.052.536.174.536.293.519.401.483.497.436.576.369.636.295.68.21.693.118.692.02.666-.076.618-.168.551-.26.467-.335.361-.409.253-.466.071-.206M199.756 571.93l-.677 2.427M206.683 576.498l.695-2.44M235.813 439.506a3616.1 3616.1 0 0 0-3.99 12.964 1917.418 1917.418 0 0 0-4.936 16.44c-1.326 4.482-2.624 8.936-3.91 13.346M222.975 482.258c-.273.936-.549 1.868-.82 2.801a1628.335 1628.335 0 0 0-4.498 15.761 2623.747 2623.747 0 0 0-4.302 15.488 2164.277 2164.277 0 0 0-8.015 30.112 1685.636 1685.636 0 0 0-3.73 14.644c-.727 2.912-1.44 5.812-2.145 8.686M208.755 572.368a1567.263 1567.263 0 0 0 6.635-21.248 2147.188 2147.188 0 0 0 13.865-47.308 2413.84 2413.84 0 0 0 6.175-22.372M236.375 477.928c.688-2.558 1.375-5.133 2.065-7.717a2213.254 2213.254 0 0 0 4.562-17.431c.885-3.459 1.768-6.937 2.653-10.447M244.057 437.893c-.14-.104-.278-.208-.42-.307a5.363 5.363 0 0 0-.687-.396 6.24 6.24 0 0 0-3.164-.612 5.119 5.119 0 0 0-1.519.345 4.377 4.377 0 0 0-.634.312 3.884 3.884 0 0 0-.564.395 4.003 4.003 0 0 0-.874 1.004 2.873 2.873 0 0 0-.317.65 3.005 3.005 0 0 0-.063.226" style="fill:none;stroke:#9500ff;stroke-width:1.6;stroke-linecap:round;stroke-linejoin:round;stroke-miterlimit:10;stroke-dasharray:none;stroke-opacity:1;visibility:visible"/><path d="m235.802 439.505-.021.07-.082.567.055.587.188.594.323.587.441.557.554.518.65.46.725.395.785.313.817.226.832.132.824.036.79-.064.74-.161.662-.252.571-.34.464-.412.345-.478.212-.53.01-.03" style="fill:none;stroke:#9500ff;stroke-width:.999997;stroke-linecap:round;stroke-linejoin:round;stroke-miterlimit:10;stroke-dasharray:none;stroke-opacity:1;visibility:visible"/><path d="m207.535 573.928.495-.39.39-.458.279-.513.071-.197" style="fill:none;stroke:#9500ff;stroke-width:1.6;stroke-linecap:round;stroke-linejoin:round;stroke-miterlimit:10;stroke-dasharray:none;stroke-opacity:1;visibility:visible"/><path d="m199.778 571.888.364.563.474.525.565.472.644.408.707.33.747.244.771.154.772.059.755-.037.717-.136.656-.226.585-.316" style="fill:none;stroke:#9500ff;stroke-width:.666665;stroke-linecap:round;stroke-linejoin:round;stroke-miterlimit:10;stroke-dasharray:none;stroke-opacity:1;visibility:visible"/><path d="m199.453 569.746-.063.37.006.59.129.594.253.588M236.375 477.928l-.945 3.512M235.43 481.44l.945-3.512" style="fill:none;stroke:#9500ff;stroke-width:1.6;stroke-linecap:round;stroke-linejoin:round;stroke-miterlimit:10;stroke-dasharray:none;stroke-opacity:1;visibility:visible"/></svg>