<svg xmlns="http://www.w3.org/2000/svg" baseProfile="full" height="793.701" preserveAspectRatio="xMinYMin meet" style="width:765px;height:943px" width="559.371" xml:space="preserve"><path d="M112.885 128.081c2.995-.984 5.973-1.964 8.935-2.961a727.412 727.412 0 0 0 7.882-2.712M147.794 115.841a797.966 797.966 0 0 0 11.96-4.616 777.491 777.491 0 0 0 18.088-7.417c2.966-1.26 5.908-2.53 8.823-3.818 2.748-1.214 5.47-2.443 8.181-3.665M192.7 89.972a986.456 986.456 0 0 0-6.4 1.979 611.853 611.853 0 0 0-9.383 3.041 751.831 751.831 0 0 0-9.447 3.199 742.651 742.651 0 0 0-9.514 3.359 798.79 798.79 0 0 0-23.283 8.815M119.633 116.503a725.29 725.29 0 0 0-10.14 4.333c-2.335 1.023-4.67 2.063-7.017 3.107" style="fill:none;stroke:red;stroke-width:1.6;stroke-linecap:round;stroke-linejoin:round;stroke-miterlimit:10;stroke-dasharray:none;stroke-opacity:1;visibility:visible"/><path d="m194.377 96.535.79.27a620.718 620.718 0 0 0 10.463 3.456 1149.21 1149.21 0 0 0 10.628 3.367 1015.108 1015.108 0 0 0 10.796 3.287 856.162 856.162 0 0 0 10.963 3.194c2.328.659 4.665 1.306 7.016 1.956M148.041 79.437c2.352.943 4.715 1.891 7.096 2.826a779.254 779.254 0 0 0 9.753 3.745 847.438 847.438 0 0 0 9.918 3.673c2.916 1.056 5.852 2.095 8.806 3.142M247.111 105.857c-2.78-1.09-5.548-2.174-8.308-3.237a894.7 894.7 0 0 0-10.36-3.9 1016.19 1016.19 0 0 0-10.289-3.743 911.678 911.678 0 0 0-20.321-7 899.998 899.998 0 0 0-29.839-9.329 749.774 749.774 0 0 0-9.768-2.804c-2.756-.77-5.508-1.514-8.242-2.26M53.552 113.393a974.152 974.152 0 0 0 6.217 2.899 658.505 658.505 0 0 0 9.439 4.25 824.174 824.174 0 0 0 22.092 9.396M97.42 132.412c.41.164.82.33 1.234.492a866.4 866.4 0 0 0 20.587 7.888 933.936 933.936 0 0 0 10.576 3.83 792.883 792.883 0 0 0 10.757 3.742c2.558.869 5.13 1.723 7.716 2.581M150.836 144.493a1294.403 1294.403 0 0 0-7.24-3.301 783.329 783.329 0 0 0-10.122-4.468 891.778 891.778 0 0 0-29.92-12.365 829.69 829.69 0 0 0-38.723-14.094 1027.107 1027.107 0 0 0-8.888-2.921" style="fill:none;stroke:red;stroke-width:1.6;stroke-linecap:round;stroke-linejoin:round;stroke-miterlimit:10;stroke-dasharray:none;stroke-opacity:1;visibility:visible"/><path d="m150.808 144.465-.508-.129-.546.027-.56.181-.544.33-.509.459-.444.571-.361.656-.262.71-.146.725-.03.714" style="fill:none;stroke:red;stroke-width:.999997;stroke-linecap:round;stroke-linejoin:round;stroke-miterlimit:10;stroke-dasharray:none;stroke-opacity:1;visibility:visible"/><path d="m148.293 150.945.11.05.532.049.555-.107.554-.257.528-.401.474-.52.406-.613.312-.682.205-.72.088-.724-.03-.692-.151-.628-.262-.536-.361-.416-.445-.283" style="fill:none;stroke:red;stroke-width:1.6;stroke-linecap:round;stroke-linejoin:round;stroke-miterlimit:10;stroke-dasharray:none;stroke-opacity:1;visibility:visible"/><path d="m146.898 148.708.094.665.208.587.316.479.409.35.368.156" style="fill:none;stroke:red;stroke-width:.666665;stroke-linecap:round;stroke-linejoin:round;stroke-miterlimit:10;stroke-dasharray:none;stroke-opacity:1;visibility:visible"/><path d="m55.945 107.34-.352-.077-.543.013-.553.159-.537.3-.496.421-.43.532-.347.612-.242.663-.132.684-.01.676M52.303 111.323a2.35 2.35 0 0 0 1.245 2.084" style="fill:none;stroke:red;stroke-width:1.6;stroke-linecap:round;stroke-linejoin:round;stroke-miterlimit:10;stroke-dasharray:none;stroke-opacity:1;visibility:visible"/><path d="m148.917 147.912.057.25.134.181.188.077.218-.032.214-.138.176-.225.112-.274.029-.287-.053-.25-.135-.179-.19-.078-.219.031-.21.139-.178.222-.112.276-.031.287" style="fill:none;stroke:red;stroke-width:.666665;stroke-linecap:round;stroke-linejoin:round;stroke-miterlimit:10;stroke-dasharray:none;stroke-opacity:1;visibility:visible"/><path d="m194.814 96.33.038-.006c.136-.021.182-.151.228-.307a2.24 2.24 0 0 0 .077-.313 3.75 3.75 0 0 0 .043-.432 9.55 9.55 0 0 0 .01-.772 15.587 15.587 0 0 0-.136-1.821 9.019 9.019 0 0 0-.164-.949 4.023 4.023 0 0 0-.33-.953 1.71 1.71 0 0 0-.447-.57 1.433 1.433 0 0 0-.547-.26 1.45 1.45 0 0 0-.665-.02c-.141.03-.283.085-.423.14" style="fill:none;stroke:red;stroke-width:.999997;stroke-linecap:round;stroke-linejoin:round;stroke-miterlimit:10;stroke-dasharray:none;stroke-opacity:1;visibility:visible"/><path d="m247.018 105.813.41.207.344.343.262.462.167.563.062.635M148.04 79.448l-.096-.041-.392-.268-.319-.394-.232-.494-.133-.575-.028-.63.076-.649.18-.646.272-.608.354-.544.419-.45.464-.341.487-.212.485-.07.41.05" style="fill:none;stroke:red;stroke-width:1.6;stroke-linecap:round;stroke-linejoin:round;stroke-miterlimit:10;stroke-dasharray:none;stroke-opacity:1;visibility:visible"/><path d="m244.293 111.141-.38-.274-.306-.407-.216-.513-.117-.603-.012-.661.093-.687.195-.685.287-.647.365-.581.428-.486.469-.369.485-.232.485-.09.458.063" style="fill:none;stroke:red;stroke-width:.999997;stroke-linecap:round;stroke-linejoin:round;stroke-miterlimit:10;stroke-dasharray:none;stroke-opacity:1;visibility:visible"/><path d="m248.262 108.023-.041.677-.146.687-.24.666-.329.618-.395.534-.448.43-.48.302-.488.166-.473.016-.437-.132" style="fill:none;stroke:red;stroke-width:1.6;stroke-linecap:round;stroke-linejoin:round;stroke-miterlimit:10;stroke-dasharray:none;stroke-opacity:1;visibility:visible"/><path d="m245.513 109.143.044.242.11.172.163.079.19-.024.188-.13.159-.211.101-.26.034-.271-.043-.24-.109-.172-.163-.081-.192.026-.188.127-.156.212-.105.26-.033.27" style="fill:none;stroke:red;stroke-width:.666665;stroke-linecap:round;stroke-linejoin:round;stroke-miterlimit:10;stroke-dasharray:none;stroke-opacity:1;visibility:visible"/><path d="M95.91 129.696a.627.627 0 0 0-.29-.088M95.453 129.753a.721.721 0 0 0 .01.16M95.62 129.607a.159.159 0 0 0-.167.146M95.756 129.81a.115.115 0 0 0-.047.006M96.704 130.83a.64.64 0 0 0-.05-.298M96.538 130.983a.162.162 0 0 0 .067-.015.15.15 0 0 0 .099-.137M96.248 130.892a.68.68 0 0 0 .29.09M96.2 130.861c.016.014.032.022.048.031M95.568 132.528a.373.373 0 0 0 .192-.185M95.76 132.343c.09-.207.13-.43.12-.655M95.88 131.688a3.859 3.859 0 0 0-.89-2.295M94.99 129.393a1.43 1.43 0 0 0-.533-.402M93.245 130.283c.207-.083.543.293.752.83.21.54.213 1.043.005 1.122-.208.078-.544-.295-.752-.831-.21-.537-.209-1.041-.005-1.121M95.373 129.95l.337-.134" style="fill:none;stroke:red;stroke-width:.999997;stroke-linecap:round;stroke-linejoin:round;stroke-miterlimit:2;stroke-dasharray:none;stroke-opacity:1;visibility:visible"/><path d="M96.653 130.533a1.756 1.756 0 0 0-.745-.838M94.952 132.764c-.38.052-1.05-.023-1.439-.792" style="fill:none;stroke:red;stroke-width:.999997;stroke-linecap:round;stroke-linejoin:round;stroke-miterlimit:2;stroke-dasharray:none;stroke-opacity:1;visibility:visible"/><path d="m93.664 129.187.278-.108.243-.092M95.04 132.73l.278-.106.243-.094" style="fill:none;stroke:red;stroke-width:.999997;stroke-linecap:round;stroke-linejoin:round;stroke-miterlimit:4;stroke-dasharray:none;stroke-opacity:1;visibility:visible"/><path d="M93.693 129.176a1.359 1.359 0 0 0-.659 1.504" style="fill:none;stroke:red;stroke-width:.999997;stroke-linecap:round;stroke-linejoin:round;stroke-miterlimit:2;stroke-dasharray:none;stroke-opacity:1;visibility:visible"/><path d="m119.633 116.503-6.748 11.578M134.673 110.365l-4.971 12.043M129.702 122.408l18.092-6.567M129.702 122.408l4.971-12.043M112.885 128.081l6.748-11.578M95.71 129.816l6.766-5.873M194.377 96.535l-10.763-3.712M94.457 128.991l-3.157.947M91.3 129.938l6.12 2.474" style="fill:none;stroke:red;stroke-width:1.6;stroke-linecap:round;stroke-linejoin:round;stroke-miterlimit:10;stroke-dasharray:none;stroke-opacity:1;visibility:visible"/><path d="m248.263 108.023-2.75 1.12M248.262 108.023l-2.749 1.119" style="fill:none;stroke:red;stroke-width:.666665;stroke-linecap:round;stroke-linejoin:round;stroke-miterlimit:10;stroke-dasharray:none;stroke-opacity:1;visibility:visible"/><path d="m96.653 130.533-3.14 1.439" style="fill:none;stroke:red;stroke-width:.999997;stroke-linecap:round;stroke-linejoin:round;stroke-miterlimit:2;stroke-dasharray:none;stroke-opacity:1;visibility:visible"/><path d="m179.58 113.867.09 3.281c.182 6.2.412 12.336.655 18.417.241 6.086.497 12.115.775 18.083a2347.14 2347.14 0 0 0 1.9 35.085 2216.46 2216.46 0 0 0 1.75 25.792M185.38 222.82c.419 5.364.853 10.674 1.305 15.932.459 5.39.941 10.724 1.432 16.01a1440.682 1440.682 0 0 0 2.177 21.776M201.56 275.802a1626.161 1626.161 0 0 0-.85-28.465 2053.56 2053.56 0 0 0-2.6-51.896 2230.648 2230.648 0 0 0-1.858-27.161M195.989 164.787l-.45-5.837a2871.818 2871.818 0 0 0-1.555-18.835c-.544-6.347-1.115-12.75-1.738-19.216-.246-2.563-.502-5.134-.756-7.722M189.08 109.521c-.183-.096-.363-.194-.552-.281a5.74 5.74 0 0 0-.826-.301 7.538 7.538 0 0 0-.882-.194 7.384 7.384 0 0 0-1.866-.045 7.117 7.117 0 0 0-1.85.43 6.301 6.301 0 0 0-1.595.872 5.747 5.747 0 0 0-.617.551 5.495 5.495 0 0 0-.506.617 4.688 4.688 0 0 0-.656 1.385 3.715 3.715 0 0 0-.14.74 5.404 5.404 0 0 0-.004.569M191.48 113.103c-.01-.131-.017-.26-.037-.391a3.413 3.413 0 0 0-.215-.75 5.075 5.075 0 0 0-.338-.688 4.841 4.841 0 0 0-.993-1.171 5.068 5.068 0 0 0-.64-.474l-.177-.108" style="fill:none;stroke:#00ff4a;stroke-width:1.6;stroke-linecap:round;stroke-linejoin:round;stroke-miterlimit:10;stroke-dasharray:none;stroke-opacity:1;visibility:visible"/><path d="M200.642 278.209a4.077 4.077 0 0 0 .728-1.204c.075-.21.129-.425.167-.643.037-.216.063-.434.032-.646-.003-.031-.009-.058-.012-.088" style="fill:none;stroke:#00ff4a;stroke-width:1.6;stroke-linecap:round;stroke-linejoin:round;stroke-miterlimit:10;stroke-dasharray:none;stroke-opacity:1;visibility:visible"/><path d="M191.64 278.916c.19.154.397.3.615.429.221.13.455.25.701.355a6.973 6.973 0 0 0 1.596.442 7.865 7.865 0 0 0 2.58-.052 7.213 7.213 0 0 0 1.613-.51 6.172 6.172 0 0 0 1.358-.845 5.04 5.04 0 0 0 .54-.527" style="fill:none;stroke:#00ff4a;stroke-width:.999997;stroke-linecap:round;stroke-linejoin:round;stroke-miterlimit:10;stroke-dasharray:none;stroke-opacity:1;visibility:visible"/><path d="M199.289 216.092c.255-.095.508-.192.763-.288a400.173 400.173 0 0 0 8.354-3.302 717.182 717.182 0 0 0 8.241-3.398 586.67 586.67 0 0 0 23.956-10.719 568.501 568.501 0 0 0 15.308-7.554c2.509-1.281 5-2.566 7.451-3.892l.163-.089M261.242 179.935l-1.888.697a395.74 395.74 0 0 0-8.047 3.117 641.342 641.342 0 0 0-8.076 3.275 539.161 539.161 0 0 0-8.105 3.436 535.79 535.79 0 0 0-8.135 3.594 560.292 560.292 0 0 0-8.158 3.756 640.702 640.702 0 0 0-8.176 3.916 467.032 467.032 0 0 0-8.187 4.075c-1.215.623-2.428 1.253-3.647 1.885M191.504 278.782l.206 3.094M200.835 281.284l-.187-3.084M190.332 276.808a2.837 2.837 0 0 0 .4 1.065 3.961 3.961 0 0 0 .908 1.044M246.518 255.893c.196-.048.377-.107.544-.18.17-.075.323-.164.456-.265.112-.086.21-.188.295-.295a.937.937 0 0 0 .217-.463M309.266 69.15c.043-.148.088-.295.117-.444a3.348 3.348 0 0 0-.458-2.249 4.18 4.18 0 0 0-.315-.446 4.87 4.87 0 0 0-.876-.819 6.357 6.357 0 0 0-.64-.416 7.81 7.81 0 0 0-.737-.383 11.059 11.059 0 0 0-2.23-.753 9.057 9.057 0 0 0-1.553-.21 5.603 5.603 0 0 0-.792.026 4.413 4.413 0 0 0-.616.107 3.593 3.593 0 0 0-1.108.47 3.224 3.224 0 0 0-.898.835 2.648 2.648 0 0 0-.32.535 3.355 3.355 0 0 0-.106.313M248.013 254.786l.006-.018a2445.93 2445.93 0 0 0 7.914-22.444c2.63-7.55 5.265-15.147 7.889-22.8a4072.942 4072.942 0 0 0 7.875-23.19 4410.429 4410.429 0 0 0 19.516-59.466M292.573 122.62c.617-1.935 1.236-3.872 1.849-5.812a5008.885 5008.885 0 0 0 6.993-22.205 3025.775 3025.775 0 0 0 6.956-22.483c.294-.96.584-1.925.88-2.892" style="fill:none;stroke:#00ff4a;stroke-width:1.6;stroke-linecap:round;stroke-linejoin:round;stroke-miterlimit:10;stroke-dasharray:none;stroke-opacity:1;visibility:visible"/><path d="M256.683 190.427c-.49 1.522-.981 3.04-1.468 4.557a2990.358 2990.358 0 0 0-6.708 21.213 3783.376 3783.376 0 0 0-6.537 21.064c-1.453 4.744-2.887 9.472-4.316 14.183M298.72 65.713a6388.355 6388.355 0 0 0-7.118 20.272 4066.76 4066.76 0 0 0-7.645 22.147 4543.813 4543.813 0 0 0-14.742 43.78 2702.913 2702.913 0 0 0-9.31 28.517" style="fill:none;stroke:#00ff4a;stroke-width:1.6;stroke-linecap:round;stroke-linejoin:round;stroke-miterlimit:10;stroke-dasharray:none;stroke-opacity:1;visibility:visible"/><path d="M238.257 253.19c.133.151.283.303.45.451.167.147.35.293.547.435a9.515 9.515 0 0 0 1.326.78c.241.116.491.228.747.334.255.1.515.195.78.284a11.504 11.504 0 0 0 1.59.402c.262.046.522.08.773.106a7.085 7.085 0 0 0 1.425.012c.22-.02.427-.053.622-.101" style="fill:none;stroke:#00ff4a;stroke-width:.999997;stroke-linecap:round;stroke-linejoin:round;stroke-miterlimit:10;stroke-dasharray:none;stroke-opacity:1;visibility:visible"/><path d="m238.153 253.046-1.708 5.211M244.895 261.062l1.722-5.202M237.67 251.384a.952.952 0 0 0-.053.5c.017.141.046.28.096.416.05.148.122.293.21.437.095.152.207.303.334.452" style="fill:none;stroke:#00ff4a;stroke-width:1.6;stroke-linecap:round;stroke-linejoin:round;stroke-miterlimit:10;stroke-dasharray:none;stroke-opacity:1;visibility:visible"/><path d="M193.849 167.135a1.555 1.555 0 0 1-.552.204 1.17 1.17 0 0 1-.533-.036 1.028 1.028 0 0 1-.432-.266 1.015 1.015 0 0 1-.246-.444 1.456 1.456 0 0 1-.036-.548c.023-.2.082-.41.172-.615.106-.242.259-.479.41-.718.155-.195.308-.39.475-.565.169-.18.349-.34.526-.474.164-.123.321-.225.467-.297a1.213 1.213 0 0 1 .386-.128.507.507 0 0 1 .318.05.547.547 0 0 1 .233.272c.06.134.1.306.117.51a3.653 3.653 0 0 1-.013.656" style="fill:none;stroke:#00ff4a;stroke-width:.999997;stroke-linecap:round;stroke-linejoin:round;stroke-miterlimit:10;stroke-dasharray:none;stroke-opacity:1;visibility:visible"/><path d="m190.317 276.79-.03-.184-.01-.066" style="fill:none;stroke:#00ff4a;stroke-width:.666665;stroke-linecap:round;stroke-linejoin:round;stroke-miterlimit:10;stroke-dasharray:none;stroke-opacity:1;visibility:visible"/><path d="m200.835 281.284-.038.593-.185.583-.324.553-.454.507-.57.444-.665.366-.739.28-.792.182-.82.073-.815-.03-.791-.133-.737-.236-.66-.33-.563-.412-.448-.482-.316-.536-.176-.568-.032-.261" style="fill:none;stroke:#00ff4a;stroke-width:1.6;stroke-linecap:round;stroke-linejoin:round;stroke-miterlimit:10;stroke-dasharray:none;stroke-opacity:1;visibility:visible"/><path d="M198.786 278.946c.079-.056.157-.112.23-.15a.528.528 0 0 1 .193-.064.208.208 0 0 1 .141.034.28.28 0 0 1 .09.138.827.827 0 0 1 .03.226 2.063 2.063 0 0 1-.31 1.063 1.293 1.293 0 0 1-.226.27.787.787 0 0 1-.22.147.568.568 0 0 1-.21.05.464.464 0 0 1-.199-.029.45.45 0 0 1-.175-.135.49.49 0 0 1-.1-.236.773.773 0 0 1 .018-.304c.026-.102.069-.208.127-.314.057-.098.125-.194.196-.288a2.69 2.69 0 0 1 .415-.408M291.466 123.1a1.307 1.307 0 0 0-.028-.463l-.013-.044a.707.707 0 0 0-.198-.253.593.593 0 0 0-.357-.083 1.55 1.55 0 0 0-.452.099 2.795 2.795 0 0 0-.495.24 3.61 3.61 0 0 0-.53.393 3.373 3.373 0 0 0-.503.558 2.57 2.57 0 0 0-.352.677 1.997 1.997 0 0 0-.11.659c.002.197.039.387.104.553a1.2 1.2 0 0 0 .274.42.917.917 0 0 0 .394.241.87.87 0 0 0 .458.013 1.227 1.227 0 0 0 .452-.219c.148-.111.288-.256.42-.426" style="fill:none;stroke:#00ff4a;stroke-width:.999997;stroke-linecap:round;stroke-linejoin:round;stroke-miterlimit:10;stroke-dasharray:none;stroke-opacity:1;visibility:visible"/><path d="m261.363 179.872-.18.09" style="fill:none;stroke:#00ff4a;stroke-width:.666665;stroke-linecap:round;stroke-linejoin:round;stroke-miterlimit:10;stroke-dasharray:none;stroke-opacity:1;visibility:visible"/><path d="M263.469 186.844c.344-.224.69-.447.976-.737.265-.268.48-.595.625-.948.144-.355.221-.736.213-1.124a3.252 3.252 0 0 0-.188-1.008 4.564 4.564 0 0 0-.495-.983 6.105 6.105 0 0 0-1.646-1.674 3.453 3.453 0 0 0-.804-.414 1.613 1.613 0 0 0-.701-.096l-.084.012" style="fill:none;stroke:#00ff4a;stroke-width:.999997;stroke-linecap:round;stroke-linejoin:round;stroke-miterlimit:10;stroke-dasharray:none;stroke-opacity:1;visibility:visible"/><path d="m236.445 258.257-.035.135.02.361.153.39.287.41.408.407.519.404.612.38.684.341.734.299.763.241.767.179.741.109.699.036.625-.039.54-.112.432-.178.312-.242.184-.298.005-.018" style="fill:none;stroke:#00ff4a;stroke-width:1.6;stroke-linecap:round;stroke-linejoin:round;stroke-miterlimit:10;stroke-dasharray:none;stroke-opacity:1;visibility:visible"/><path d="m298.713 65.713-.03.178.07.309.217.343.355.371.48.382.598.389M300.402 67.685l.695.383.776.365.833.338.867.302.88.255.867.207.831.148.77.086.691.023.593-.041.474-.104.347-.164.21-.223.044-.1M191.5 113.104l.01.341-.106.628-.268.614-.422.581-.562.536-.688.477-.8.403-.879.316-.947.224-.978.121-.99.018-.97-.086-.925-.186-.855-.284-.76-.372-.647-.451-.513-.516-.367-.568-.21-.605-.053-.428M245.226 257.262a1.766 1.766 0 0 0-.248.088 1.307 1.307 0 0 0-.265.163 1.627 1.627 0 0 0-.443.495 1.21 1.21 0 0 0-.16.606.787.787 0 0 0 .067.286.44.44 0 0 0 .169.192.36.36 0 0 0 .213.048.538.538 0 0 0 .207-.068.95.95 0 0 0 .197-.15 1.47 1.47 0 0 0 .195-.225 2.886 2.886 0 0 0 .351-.661c.041-.119.073-.23.088-.331a.687.687 0 0 0 .008-.248.27.27 0 0 0-.075-.148.243.243 0 0 0-.152-.057.675.675 0 0 0-.152.01" style="fill:none;stroke:#00ff4a;stroke-width:.999997;stroke-linecap:round;stroke-linejoin:round;stroke-miterlimit:10;stroke-dasharray:none;stroke-opacity:1;visibility:visible"/><path d="M185.669 217.181a1.196 1.196 0 0 0 .013.229M185.906 216.972a.27.27 0 0 0-.096.017.223.223 0 0 0-.14.191M186.098 217.26a.187.187 0 0 0-.065.01M187.442 218.705a.908.908 0 0 0-.057-.39l-.013-.03M187.206 218.921a.229.229 0 0 0 .095-.021.215.215 0 0 0 .141-.195M186.797 218.794a1.035 1.035 0 0 0 .41.128M186.729 218.75c.023.02.045.028.068.044M185.83 221.112a.52.52 0 0 0 .274-.263M186.104 220.85c.129-.297.185-.61.172-.929M186.276 219.921a5.425 5.425 0 0 0-.366-1.727 5.453 5.453 0 0 0-.897-1.524M185.013 216.67a2.024 2.024 0 0 0-.753-.573M182.54 217.93c.293-.117.769.414 1.066 1.175.296.767.299 1.481.007 1.589-.293.114-.77-.413-1.067-1.177-.296-.761-.296-1.476-.006-1.587M185.556 217.458l.477-.188M187.373 218.286a2.493 2.493 0 0 0-1.057-1.188" style="fill:none;stroke:#00ff4a;stroke-width:.999997;stroke-linecap:round;stroke-linejoin:round;stroke-miterlimit:2;stroke-dasharray:none;stroke-opacity:1;visibility:visible"/><path d="M186.314 217.098a.888.888 0 0 0-.41-.126M184.958 221.446c-.537.075-1.486-.03-2.038-1.12" style="fill:none;stroke:#00ff4a;stroke-width:.999997;stroke-linecap:round;stroke-linejoin:round;stroke-miterlimit:2;stroke-dasharray:none;stroke-opacity:1;visibility:visible"/><path d="m183.133 216.376.395-.152.344-.132M185.08 221.398l.397-.153.343-.13" style="fill:none;stroke:#00ff4a;stroke-width:.999997;stroke-linecap:round;stroke-linejoin:round;stroke-miterlimit:4;stroke-dasharray:none;stroke-opacity:1;visibility:visible"/><path d="M183.173 216.362c-.47.271-1.161.93-.933 2.131" style="fill:none;stroke:#00ff4a;stroke-width:.999997;stroke-linecap:round;stroke-linejoin:round;stroke-miterlimit:2;stroke-dasharray:none;stroke-opacity:1;visibility:visible"/><path d="m186.276 219.921-1.526-5.396M186.276 219.921l-.896 2.899M195.989 164.787l.263 3.493M186.033 217.27l13.256-1.178M183.173 216.362l15.65-8.676M292.573 122.62l-1.36 4.248M291.213 126.868l1.36-4.248M259.905 180.429l-3.222 9.998M256.683 190.427l3.222-9.998" style="fill:none;stroke:#00ff4a;stroke-width:1.6;stroke-linecap:round;stroke-linejoin:round;stroke-miterlimit:10;stroke-dasharray:none;stroke-opacity:1;visibility:visible"/><path d="m246.518 255.893-1.292 1.369M246.517 255.893l-1.291 1.369" style="fill:none;stroke:#00ff4a;stroke-width:.999997;stroke-linecap:round;stroke-linejoin:round;stroke-miterlimit:10;stroke-dasharray:none;stroke-opacity:1;visibility:visible"/><path d="m187.373 218.286-4.453 2.04" style="fill:none;stroke:#00ff4a;stroke-width:.999997;stroke-linecap:round;stroke-linejoin:round;stroke-miterlimit:2;stroke-dasharray:none;stroke-opacity:1;visibility:visible"/></svg>