<svg xmlns="http://www.w3.org/2000/svg" baseProfile="full" height="793.701" preserveAspectRatio="xMinYMin meet" style="width:602px;height:832px" width="559.371" xml:space="preserve"><path d="M335.074 598.368c1.294-.681 3.336.648 4.562 2.972 1.227 2.324 1.175 4.761-.116 5.444" style="fill:none;stroke:red;stroke-width:.999997;stroke-linecap:round;stroke-linejoin:round;stroke-miterlimit:4;stroke-dasharray:none;stroke-opacity:1;visibility:visible" visibility="hidden"/><path d="M339.52 606.784c-1.117.588-2.789-.319-4.015-2.07M334.337 602.299c-.527-1.789-.274-3.396.737-3.93" style="fill:none;stroke:red;stroke-width:1.6;stroke-linecap:round;stroke-linejoin:round;stroke-miterlimit:4;stroke-dasharray:none;stroke-opacity:1;visibility:visible" visibility="hidden"/><path d="M335.96 602.055c-.086-.583.05-1.068.397-1.25.545-.291 1.407.27 1.925 1.25.518.981.494 2.008-.05 2.297-.356.188-.852.012-1.294-.408" style="fill:none;stroke:red;stroke-width:.666665;stroke-linecap:round;stroke-linejoin:round;stroke-miterlimit:4;stroke-dasharray:none;stroke-opacity:1;visibility:visible" visibility="hidden"/><path d="M339.52 606.784s6.326-2.81 16.266-7.412l15.531-7.285c18.357-8.733 41.717-20.263 61.786-31.484M335.074 598.368s7.296-3.952 18.916-9.861l12.226-6.13c17.704-8.75 40.776-19.607 63.287-28.589M429.503 553.788c1.347-.71 3.247.238 4.24 2.12.995 1.882.707 3.984-.639 4.695" style="fill:none;stroke:red;stroke-width:1.6;stroke-linecap:round;stroke-linejoin:round;stroke-miterlimit:4;stroke-dasharray:none;stroke-opacity:1;visibility:visible" visibility="hidden"/><path d="M374.04 642.344c-1.447-.752-3.463.259-4.505 2.253-1.037 1.998-.712 4.23.736 4.983" style="fill:none;stroke:#00ff4a;stroke-width:.999997;stroke-linecap:round;stroke-linejoin:round;stroke-miterlimit:4;stroke-dasharray:none;stroke-opacity:1;visibility:visible" visibility="hidden"/><path d="M273.578 581.319c-1.448-.75-3.463.259-4.503 2.256-1.042 1.995-.712 4.227.735 4.984M369.154 649.085s-23.374-11.04-54.864-30.584M305.64 613.043l-.48-.308-4.605-2.925c-9.928-6.462-20.322-13.58-30.745-21.251M369.571 649.223c1.136.59 2.601.166 3.74-.947M373.836 647.59c1.78-2.061 1.128-5.41-.232-6.116" style="fill:none;stroke:#00ff4a;stroke-width:1.6;stroke-linecap:round;stroke-linejoin:round;stroke-miterlimit:4;stroke-dasharray:none;stroke-opacity:1;visibility:visible" visibility="hidden"/><path d="M374.263 641.961s-51.685-36.533-100.686-60.64" style="fill:none;stroke:#00ff4a;stroke-width:1.6;stroke-linecap:round;stroke-linejoin:round;stroke-miterlimit:4;stroke-dasharray:none;stroke-opacity:1;visibility:visible" visibility="hidden"/><path d="M310.449 614.397c-.211-.705-.151-1.309.194-1.493.462-.244 1.257.353 1.775 1.333.515.98.561 1.971.101 2.216-.308.16-.758-.048-1.179-.493" style="fill:none;stroke:#00ff4a;stroke-width:.666665;stroke-linecap:round;stroke-linejoin:round;stroke-miterlimit:4;stroke-dasharray:none;stroke-opacity:1;visibility:visible" visibility="hidden"/><path d="m244.733 664.604-1.964 1.219M242.77 665.823l.208-1.852M242.711 663.265c.76-.473 2.38.752 3.619 2.746 1.239 1.986 1.62 3.984.857 4.454-.76.478-2.38-.749-3.616-2.741-1.24-1.987-1.621-3.987-.86-4.459M248.013 658.888a5.861 5.861 0 0 0-2.41-1.195M246.785 659.779a5.776 5.776 0 0 0-2.412-1.195M244.373 658.584a1.404 1.404 0 0 0-1.066.175" style="fill:none;stroke:#00ff4a;stroke-width:.999997;stroke-linecap:round;stroke-linejoin:round;stroke-miterlimit:2;stroke-dasharray:none;stroke-opacity:1;visibility:visible" visibility="hidden"/><path d="m244.027 658.3.888-.5.49-.11" style="fill:none;stroke:#00ff4a;stroke-width:.999997;stroke-linecap:round;stroke-linejoin:round;stroke-miterlimit:4;stroke-dasharray:none;stroke-opacity:1;visibility:visible" visibility="hidden"/><path d="M243.657 658.521c-1.183 1.014-2.76 3.227-1.487 6.474" style="fill:none;stroke:#00ff4a;stroke-width:.999997;stroke-linecap:round;stroke-linejoin:round;stroke-miterlimit:2;stroke-dasharray:none;stroke-opacity:1;visibility:visible" visibility="hidden"/><path d="m305.64 613.043 8.65 5.458M314.29 618.501l-8.65-5.458" style="fill:none;stroke:#00ff4a;stroke-width:1.6;stroke-linecap:round;stroke-linejoin:round;stroke-miterlimit:4;stroke-dasharray:none;stroke-opacity:1;visibility:visible" visibility="hidden"/><path d="m242.711 663.265 2.022 1.339" style="fill:none;stroke:#00ff4a;stroke-width:.999997;stroke-linecap:round;stroke-linejoin:round;stroke-miterlimit:2;stroke-dasharray:none;stroke-opacity:1;visibility:visible" visibility="hidden"/><path d="M509.053 564.766c-1.58-.4-3.309 1.05-3.86 3.232-.555 2.184.279 4.28 1.862 4.678" style="fill:none;stroke:#9500ff;stroke-width:.999997;stroke-linecap:round;stroke-linejoin:round;stroke-miterlimit:4;stroke-dasharray:none;stroke-opacity:1;visibility:visible"/><path d="M505.83 572.242s-26.356-5.512-61.869-17.36M435.172 551.882a636.5 636.5 0 0 1-5.165-1.827l-4.664-1.692a643.906 643.906 0 0 1-30.121-11.883M506.29 572.49c.63.159 3.892-.535 4.192-3.877M510.577 568.17c.206-2.002-.664-3.774-2.147-4.15" style="fill:none;stroke:#9500ff;stroke-width:1.6;stroke-linecap:round;stroke-linejoin:round;stroke-miterlimit:4;stroke-dasharray:none;stroke-opacity:1;visibility:visible"/><path d="M509.397 564.376S450.46 540.72 397.22 528.567M397.219 528.567c-1.583-.396-3.31 1.05-3.861 3.235-.554 2.182.282 4.277 1.865 4.68" style="fill:none;stroke:#9500ff;stroke-width:1.6;stroke-linecap:round;stroke-linejoin:round;stroke-miterlimit:4;stroke-dasharray:none;stroke-opacity:1;visibility:visible"/><path d="M442.33 549.858c-.097-1.22.33-2.299 1.22-2.77 1.349-.708 3.248.239 4.24 2.122.994 1.88.708 3.982-.636 4.694-.987.52-2.264.154-3.268-.81" style="fill:none;stroke:#9500ff;stroke-width:.666665;stroke-linecap:round;stroke-linejoin:round;stroke-miterlimit:4;stroke-dasharray:none;stroke-opacity:1;visibility:visible"/><path d="M448.367 552.266c-.921-.306-1.83-1.096-2.419-2.212-.498-.94-.677-1.936-.56-2.787" style="fill:none;stroke:#9500ff;stroke-width:.666665;stroke-linecap:round;stroke-linejoin:round;stroke-miterlimit:4;stroke-dasharray:none;stroke-opacity:1;visibility:visible"/><path d="m448.367 552.266-4.406 2.616M443.961 554.882l-8.789-3" style="fill:none;stroke:#9500ff;stroke-width:1.6;stroke-linecap:round;stroke-linejoin:round;stroke-miterlimit:4;stroke-dasharray:none;stroke-opacity:1;visibility:visible"/><path d="m443.961 554.882 4.406-2.616" style="fill:none;stroke:#9500ff;stroke-width:.666665;stroke-linecap:round;stroke-linejoin:round;stroke-miterlimit:4;stroke-dasharray:none;stroke-opacity:1;visibility:visible"/></svg>