<svg xmlns="http://www.w3.org/2000/svg" baseProfile="full" height="793.701" preserveAspectRatio="xMinYMin meet" style="width:602px;height:832px" width="559.371" xml:space="preserve"><path d="M440.706 144.727c-1.54.502-3.09 1.008-4.64 1.526a373.588 373.588 0 0 0-6.564 2.277 448.49 448.49 0 0 0-19.999 7.653 489.62 489.62 0 0 0-20.416 8.92 399.516 399.516 0 0 0-6.877 3.261c-1.008.491-2.02.991-3.032 1.493M381.344 175.112a759.738 759.738 0 0 0 5.511-1.875 451.789 451.789 0 0 0 6.919-2.47 524.692 524.692 0 0 0 6.804-2.539 462.968 462.968 0 0 0 19.672-8.024 451.289 451.289 0 0 0 6.31-2.797 466.245 466.245 0 0 0 6.183-2.858 362.292 362.292 0 0 0 6.06-2.912c1.32-.652 2.63-1.31 3.933-1.965M380.942 175.18l-.418-.08-.421-.196-.412-.312-.385-.413-.336-.494" style="fill:none;stroke:red;stroke-width:1.6;stroke-linecap:round;stroke-linejoin:round;stroke-miterlimit:10;stroke-dasharray:none;stroke-opacity:1;visibility:visible"/><path d="m379.303 169.17.364-.119.404.009.423.136.422.257.404.364.364.458.306.525.237.573.157.59.064.581-.024.545-.117.481-.2.398-.277.292-.343.177-.384.054" style="fill:none;stroke:red;stroke-width:.999997;stroke-linecap:round;stroke-linejoin:round;stroke-miterlimit:10;stroke-dasharray:none;stroke-opacity:1;visibility:visible"/><path d="m440.7 144.716.188-.044.407-.003.425.118.42.232.396.336.355.424.293.491.224.537.139.56.05.552-.041.518-.134.464-.216.386-.29.289-.176.107M378.97 173.685l-.272-.548-.198-.582-.112-.586-.02-.565.07-.515.157-.444.239-.348.308-.237" style="fill:none;stroke:red;stroke-width:1.6;stroke-linecap:round;stroke-linejoin:round;stroke-miterlimit:10;stroke-dasharray:none;stroke-opacity:1;visibility:visible"/><path d="m380.026 172.725.141.183.164.112.165.03.136-.063.091-.143.03-.204-.036-.229-.097-.225-.14-.185-.168-.113-.161-.028-.137.064-.091.144-.03.201.037.232.096.224M380.875 172.79l-.721.296M380.154 173.087l-.894.366" style="fill:none;stroke:red;stroke-width:.666665;stroke-linecap:round;stroke-linejoin:round;stroke-miterlimit:10;stroke-dasharray:none;stroke-opacity:1;visibility:visible"/><path d="m451.266 80.787-.491.29M456.206 81.016l-.494-.279" style="fill:none;stroke:#00ff4a;stroke-width:.666665;stroke-linecap:round;stroke-linejoin:round;stroke-miterlimit:10;stroke-dasharray:none;stroke-opacity:1;visibility:visible"/><path d="M450.326 215.116c.018.174.032.348.068.518.036.176.092.346.16.51a3.338 3.338 0 0 0 .562.909c.12.139.248.268.39.384.149.127.314.236.478.347M449.683 86.441a2.241 2.241 0 0 0-.517.59 2.699 2.699 0 0 0-.216.448 1.637 1.637 0 0 0-.095.46 2.547 2.547 0 0 0 .01.266M458.218 87.959a2.75 2.75 0 0 0-.055-.404 1.716 1.716 0 0 0-.161-.43 3.3 3.3 0 0 0-.266-.405 1.862 1.862 0 0 0-.365-.375M448.86 88.147a2183.461 2183.461 0 0 0-.257 26.19 2388.949 2388.949 0 0 0 .033 27.924M448.674 147.403c.042 4.449.094 8.844.158 13.186a2194.274 2194.274 0 0 0 .612 28.82c.13 4.681.272 9.297.434 13.861.142 3.984.297 7.93.45 11.827M458.364 215.065c.108-3.999.216-8.047.31-12.139.109-4.866.196-9.795.269-14.794.07-5.007.127-10.084.167-15.236a2332.224 2332.224 0 0 0-.154-48.636 2815.9 2815.9 0 0 0-.286-17.257 1712.796 1712.796 0 0 0-.451-19.034M457.372 87.733l-.017-5.132M449.646 82.688l.05 5.13" style="fill:none;stroke:#00ff4a;stroke-width:1.6;stroke-linecap:round;stroke-linejoin:round;stroke-miterlimit:10;stroke-dasharray:none;stroke-opacity:1;visibility:visible"/><path d="M451.986 217.785a4.272 4.272 0 0 0 .936.425 4.753 4.753 0 0 0 1.87.198 4.4 4.4 0 0 0 .64-.103 4.413 4.413 0 0 0 1.204-.472 3.755 3.755 0 0 0 .88-.703c.124-.136.235-.278.332-.429a2.77 2.77 0 0 0 .258-.464 4.04 4.04 0 0 0 .173-.492c.05-.187.087-.373.088-.561a1.968 1.968 0 0 0-.003-.134" style="fill:none;stroke:#00ff4a;stroke-width:1.6;stroke-linecap:round;stroke-linejoin:round;stroke-miterlimit:10;stroke-dasharray:none;stroke-opacity:1;visibility:visible"/><path d="m450.386 81.784-.043.37.084.37.212.349.33.314.435.271" style="fill:none;stroke:#00ff4a;stroke-width:.999997;stroke-linecap:round;stroke-linejoin:round;stroke-miterlimit:10;stroke-dasharray:none;stroke-opacity:1;visibility:visible"/><path d="m456.62 81.781-.152-.36-.273-.333-.385-.292-.476-.241-.554-.18-.604-.11-.634-.038-.634.038-.61.111-.56.181-.492.243-.4.29-.287.334-.173.36" style="fill:none;stroke:#00ff4a;stroke-width:1.6;stroke-linecap:round;stroke-linejoin:round;stroke-miterlimit:10;stroke-dasharray:none;stroke-opacity:1;visibility:visible"/><path d="m451.403 83.459.52.213.58.148.627.073h.638l.63-.073.59-.15.532-.213.447-.27.345-.317.23-.35.104-.368-.026-.371" style="fill:none;stroke:#00ff4a;stroke-width:.999997;stroke-linecap:round;stroke-linejoin:round;stroke-miterlimit:10;stroke-dasharray:none;stroke-opacity:1;visibility:visible"/><path d="m456.206 81.016.208.127.402.322.299.36.18.386.059.401M449.656 82.856l.01-.403.128-.397.248-.376.36-.348.372-.255" style="fill:none;stroke:#00ff4a;stroke-width:1.6;stroke-linecap:round;stroke-linejoin:round;stroke-miterlimit:10;stroke-dasharray:none;stroke-opacity:1;visibility:visible"/><path d="m457.186 88.432.153-.402.033-.297" style="fill:none;stroke:#00ff4a;stroke-width:.666665;stroke-linecap:round;stroke-linejoin:round;stroke-miterlimit:10;stroke-dasharray:none;stroke-opacity:1;visibility:visible"/><path d="M451.724 146.228c.236-.099.472-.199.664-.355.194-.156.343-.365.436-.597.086-.213.12-.446.106-.68a2.057 2.057 0 0 0-.176-.673 3.646 3.646 0 0 0-.448-.743 6.867 6.867 0 0 0-.771-.83 8.603 8.603 0 0 0-1.37-1.03 3.54 3.54 0 0 0-.505-.247 1.245 1.245 0 0 0-.378-.092.399.399 0 0 0-.29.092c-.088.075-.146.2-.184.378" style="fill:none;stroke:#00ff4a;stroke-width:.999997;stroke-linecap:round;stroke-linejoin:round;stroke-miterlimit:10;stroke-dasharray:none;stroke-opacity:1;visibility:visible"/><path d="M449.995 145.843a1.936 1.936 0 0 0 .908.43 1.8 1.8 0 0 0 .821-.045M457.952 88.937c.004.187.008.373-.004.578a5.247 5.247 0 0 1-.084.645 4.003 4.003 0 0 1-.208.72 2.24 2.24 0 0 1-.245.453 1.316 1.316 0 0 1-.333.328.795.795 0 0 1-.65.111.903.903 0 0 1-.328-.168 1.163 1.163 0 0 1-.297-.361 1.232 1.232 0 0 1-.153-.555c-.002-.065 0-.13.004-.198M458.827 182.303c.05-.284.096-.568.127-.843.028-.275.038-.543.044-.777a8.829 8.829 0 0 0 0-.566 1.937 1.937 0 0 0-.044-.397c-.031-.12-.078-.191-.152-.221a.27.27 0 0 0-.152-.002.827.827 0 0 0-.222.079 3.447 3.447 0 0 0-.406.25 9.148 9.148 0 0 0-.515.399c-.173.143-.353.302-.53.465a10.167 10.167 0 0 0-.561.566 6.483 6.483 0 0 0-.57.71 3.867 3.867 0 0 0-.242.421 2.105 2.105 0 0 0-.164.438 1.461 1.461 0 0 0-.033.618 1.21 1.21 0 0 0 .24.54 1.347 1.347 0 0 0 .443.366 1.56 1.56 0 0 0 1.33.044c.222-.09.428-.233.61-.418.172-.178.324-.395.445-.636.128-.246.227-.52.299-.803.02-.077.036-.156.053-.233M457.186 88.432a.74.74 0 0 0-.136-.29c-.048-.046-.115-.064-.196-.054a.832.832 0 0 0-.294.107 2.695 2.695 0 0 0-.332.224 4.243 4.243 0 0 0-.332.3 3.577 3.577 0 0 0-.618.825c-.04.083-.078.168-.115.252" style="fill:none;stroke:#00ff4a;stroke-width:.999997;stroke-linecap:round;stroke-linejoin:round;stroke-miterlimit:10;stroke-dasharray:none;stroke-opacity:1;visibility:visible"/><path d="m449.696 87.817.064.4.189.39.31.366.416.327.51.273.594.217.647.15.688.073.7.002.69-.072.659-.147" style="fill:none;stroke:#00ff4a;stroke-width:.999997;stroke-linecap:round;stroke-linejoin:round;stroke-miterlimit:10;stroke-dasharray:none;stroke-opacity:1;visibility:visible"/><path d="M457.952 88.937c-.005-.03-.01-.06-.02-.09a.488.488 0 0 0-.05-.094c-.017-.03-.042-.058-.063-.086a.673.673 0 0 0-.163-.137" style="fill:none;stroke:#00ff4a;stroke-width:.666665;stroke-linecap:round;stroke-linejoin:round;stroke-miterlimit:10;stroke-dasharray:none;stroke-opacity:1;visibility:visible"/><path d="m448.636 142.261.038 5.142" style="fill:none;stroke:#00ff4a;stroke-width:1.6;stroke-linecap:round;stroke-linejoin:round;stroke-miterlimit:10;stroke-dasharray:none;stroke-opacity:1;visibility:visible"/><path d="m389.652 106.956-.498-.81M341.632 273.333c.948-2.864 1.903-5.745 2.851-8.639a2003.97 2003.97 0 0 0 5.388-16.721 2763.548 2763.548 0 0 0 5.369-17.048 2711.119 2711.119 0 0 0 14.878-49.513 2907.638 2907.638 0 0 0 14.089-50.207c1.525-5.64 3.043-11.32 4.57-17.045M379.02 111.383c-1.422 4.45-2.835 8.872-4.229 13.276a2740.397 2740.397 0 0 0-5.249 16.834 2781.06 2781.06 0 0 0-10.032 33.19c-.46 1.55-.915 3.097-1.37 4.644M356.683 184.297c-.653 2.246-1.305 4.484-1.952 6.716a2825.765 2825.765 0 0 0-4.619 16.157 2563.55 2563.55 0 0 0-12.92 47.408 1548.532 1548.532 0 0 0-4.011 15.472c-.061.239-.122.476-.179.714" style="fill:none;stroke:#9500ff;stroke-width:1.6;stroke-linecap:round;stroke-linejoin:round;stroke-miterlimit:10;stroke-dasharray:none;stroke-opacity:1;visibility:visible"/><path d="m383.039 104.341-.857.41" style="fill:none;stroke:#9500ff;stroke-width:.666665;stroke-linecap:round;stroke-linejoin:round;stroke-miterlimit:10;stroke-dasharray:none;stroke-opacity:1;visibility:visible"/><path d="M333.012 270.765c-.026.099-.055.195-.074.295a3.072 3.072 0 0 0 .189 1.585 3.397 3.397 0 0 0 .548.917c.12.15.253.291.396.42a4.8 4.8 0 0 0 .487.395 5.672 5.672 0 0 0 1.202.644 6.436 6.436 0 0 0 2.042.456 5.573 5.573 0 0 0 .716-.007 4.573 4.573 0 0 0 1.236-.272 3.53 3.53 0 0 0 .972-.568 3.158 3.158 0 0 0 .698-.828 1.933 1.933 0 0 0 .246-.564M388.755 114.17a.785.785 0 0 0 .048-.17.777.777 0 0 0-.03-.312 1.661 1.661 0 0 0-.361-.637 4.605 4.605 0 0 0-.24-.241M380.278 110.483a3.517 3.517 0 0 0-.358.076 1.61 1.61 0 0 0-.412.178 1.315 1.315 0 0 0-.265.213.672.672 0 0 0-.17.254c-.009.033-.016.07-.024.107M387.946 113.57l1.804-6.138M381.842 105.096l-1.786 6.144" style="fill:none;stroke:#9500ff;stroke-width:1.6;stroke-linecap:round;stroke-linejoin:round;stroke-miterlimit:10;stroke-dasharray:none;stroke-opacity:1;visibility:visible"/><path d="M360.324 182.476c.16-.092.322-.183.458-.316.136-.129.246-.3.326-.489.078-.187.126-.391.134-.604a2.133 2.133 0 0 0-.059-.597 2.552 2.552 0 0 0-.21-.55 2.55 2.55 0 0 0-.321-.483 2.04 2.04 0 0 0-.382-.36 1.128 1.128 0 0 0-.386-.19.627.627 0 0 0-.664.205 1.496 1.496 0 0 0-.24.375 2.813 2.813 0 0 0-.169.502M359.562 182.516a.947.947 0 0 0 .408.05M385.679 114.783c-.061.224-.125.447-.139.672-.017.218.014.437.072.638.063.224.162.43.29.594a1.047 1.047 0 0 0 .332.283.756.756 0 0 0 .402.086.875.875 0 0 0 .359-.11c.115-.066.224-.154.327-.258.118-.121.228-.263.328-.418a5.499 5.499 0 0 0 .664-1.64M351.73 231.213a2.965 2.965 0 0 1-.34-.72 1.903 1.903 0 0 1-.03-.83c.047-.264.142-.523.278-.768a3.46 3.46 0 0 1 .541-.721c.253-.267.548-.507.859-.719a6.512 6.512 0 0 1 1.09-.597c.25-.106.498-.194.724-.252.228-.058.431-.088.604-.088a.899.899 0 0 1 .404.08.496.496 0 0 1 .243.247 1.03 1.03 0 0 1 .065.493 3.04 3.04 0 0 1-.052.372 6.676 6.676 0 0 1-.105.451 12.19 12.19 0 0 1-.243.793 11.941 11.941 0 0 1-.325.866 7.023 7.023 0 0 1-.397.802 3.968 3.968 0 0 1-.54.724 2.207 2.207 0 0 1-.687.491 1.613 1.613 0 0 1-1.427-.05 1.9 1.9 0 0 1-.662-.575v.001" style="fill:none;stroke:#9500ff;stroke-width:.999997;stroke-linecap:round;stroke-linejoin:round;stroke-miterlimit:10;stroke-dasharray:none;stroke-opacity:1;visibility:visible"/><path d="m382.75 104.756.045-.21.175-.168.3-.118.411-.065.507-.008.578.048.628.104.654.153.652.199.622.233.568.261.494.276" style="fill:none;stroke:#9500ff;stroke-width:1.6;stroke-linecap:round;stroke-linejoin:round;stroke-miterlimit:10;stroke-dasharray:none;stroke-opacity:1;visibility:visible"/><path d="m389.244 106.505-.106.191-.236.145-.355.094-.46.04-.544-.02-.61-.076-.651-.129-.659-.177-.643-.22-.602-.25-.536-.273-.447-.282-.34-.28-.219-.268-.086-.245" style="fill:none;stroke:#9500ff;stroke-width:.999997;stroke-linecap:round;stroke-linejoin:round;stroke-miterlimit:10;stroke-dasharray:none;stroke-opacity:1;visibility:visible"/><path d="m388.383 105.461.396.282.281.276.158.257.026.23" style="fill:none;stroke:#9500ff;stroke-width:1.6;stroke-linecap:round;stroke-linejoin:round;stroke-miterlimit:10;stroke-dasharray:none;stroke-opacity:1;visibility:visible"/><path d="m389.772 107.42.012-.24-.108-.25" style="fill:none;stroke:#9500ff;stroke-width:.666665;stroke-linecap:round;stroke-linejoin:round;stroke-miterlimit:10;stroke-dasharray:none;stroke-opacity:1;visibility:visible"/><path d="m382.183 104.75-.075.037-.202.178-.05.14M381.856 105.104l-.029.081" style="fill:none;stroke:#9500ff;stroke-width:1.6;stroke-linecap:round;stroke-linejoin:round;stroke-miterlimit:10;stroke-dasharray:none;stroke-opacity:1;visibility:visible"/><path d="M385.352 114.047c.159-.188.319-.375.508-.53.149-.124.315-.225.482-.306.164-.082.33-.142.482-.175a1.11 1.11 0 0 1 .371-.017.479.479 0 0 1 .25.098M385.352 114.047l-.702-.122-.727-.173-.721-.216-.696-.256-.644-.285-.574-.306-.48-.314-.373-.312-.255-.303-.126-.28.002-.24" style="fill:none;stroke:#9500ff;stroke-width:.999997;stroke-linecap:round;stroke-linejoin:round;stroke-miterlimit:10;stroke-dasharray:none;stroke-opacity:1;visibility:visible"/><path d="M388.131 114.136c.03.027.063.055.09.09a.508.508 0 0 1 .064.124.69.69 0 0 1 .034.12.528.528 0 0 1 .003.111l-.008.047M385.679 114.783c.012-.039.025-.076.03-.115a.392.392 0 0 0-.027-.227.39.39 0 0 0-.056-.09.472.472 0 0 0-.082-.066M361.367 180.83l-3.947 1.632" style="fill:none;stroke:#9500ff;stroke-width:.666665;stroke-linecap:round;stroke-linejoin:round;stroke-miterlimit:10;stroke-dasharray:none;stroke-opacity:1;visibility:visible"/><path d="M299.53 209.122c.09-.232.123-.476.104-.729M299.026 209.341a.401.401 0 0 0 .294-.005.383.383 0 0 0 .21-.214" style="fill:none;stroke:#9500ff;stroke-width:.666665;stroke-linecap:round;stroke-linejoin:round;stroke-miterlimit:2;stroke-dasharray:none;stroke-opacity:1;visibility:visible"/><path d="m358.811 179.969-2.128 4.328" style="fill:none;stroke:#9500ff;stroke-width:1.6;stroke-linecap:round;stroke-linejoin:round;stroke-miterlimit:10;stroke-dasharray:none;stroke-opacity:1;visibility:visible"/><path d="m379.26 173.453-17.893 7.377" style="fill:none;stroke:#9500ff;stroke-width:.666665;stroke-linecap:round;stroke-linejoin:round;stroke-miterlimit:10;stroke-dasharray:none;stroke-opacity:1;visibility:visible"/></svg>