<svg xmlns="http://www.w3.org/2000/svg" baseProfile="full" height="793.701" preserveAspectRatio="xMinYMin meet" style="width:765px;height:943px" width="559.371" xml:space="preserve"><path d="M147.218 291.74c-.174.647-1.966 1.229-4.166 1.326-2.328.103-4.235-.374-4.255-1.068" style="fill:none;stroke:red;stroke-width:.999997;stroke-linecap:round;stroke-linejoin:round;stroke-miterlimit:4;stroke-dasharray:none;stroke-opacity:1;visibility:visible" visibility="hidden"/><path d="M138.872 291.444c-.02-.692 1.89-1.34 4.27-1.444 2.382-.103 4.328.376 4.35 1.069a.452.452 0 0 1-.016.117" style="fill:none;stroke:red;stroke-width:1.99999;stroke-linecap:round;stroke-linejoin:round;stroke-miterlimit:4;stroke-dasharray:none;stroke-opacity:1;visibility:visible" visibility="hidden"/><path d="M147.194 293.92c-.033.68-1.817 1.309-4.03 1.41-2.247.103-4.088-.374-4.107-1.068" style="fill:none;stroke:red;stroke-width:.999997;stroke-linecap:round;stroke-linejoin:round;stroke-miterlimit:4;stroke-dasharray:none;stroke-opacity:1;visibility:visible" visibility="hidden"/><path d="m147.609 291.46 6.628 81.014s.312 1.859 1.396 2.859l1.659 1.584 35.648 32.06 5.778 5.2c33.602 30.218 77.557 69.745 95.363 85.755" style="fill:none;stroke:red;stroke-width:1.99999;stroke-linecap:round;stroke-linejoin:round;stroke-miterlimit:4;stroke-dasharray:none;stroke-opacity:1;visibility:visible" visibility="hidden"/><path d="M149.036 376.093s.924-2.64 5.404-2.263" style="fill:none;stroke:red;stroke-width:.999997;stroke-linecap:round;stroke-linejoin:round;stroke-miterlimit:4;stroke-dasharray:none;stroke-opacity:1;visibility:visible" visibility="hidden"/><path d="M183.09 397.487c0-.244.282-.462.724-.609" style="fill:none;stroke:red;stroke-width:.666665;stroke-linecap:round;stroke-linejoin:round;stroke-miterlimit:4;stroke-dasharray:none;stroke-opacity:1;visibility:visible" visibility="hidden"/><path d="M187.092 397.6c0 .439-.896.794-2 .794s-2-.356-2-.794" style="fill:none;stroke:red;stroke-width:1.33333;stroke-linecap:round;stroke-linejoin:round;stroke-miterlimit:4;stroke-dasharray:none;stroke-opacity:1;visibility:visible" visibility="hidden"/><path d="M186.572 396.815c.288.139.464.316.464.508" style="fill:none;stroke:red;stroke-width:.666665;stroke-linecap:round;stroke-linejoin:round;stroke-miterlimit:4;stroke-dasharray:none;stroke-opacity:1;visibility:visible" visibility="hidden"/><path d="m194.36 397.631 176.287-48.385" style="fill:none;stroke:red;stroke-width:.999997;stroke-linecap:round;stroke-linejoin:round;stroke-miterlimit:4;stroke-dasharray:none;stroke-opacity:1;visibility:visible" visibility="hidden"/><path d="M453.065 412.192 325.544 457.8M303.75 465.635l-5.456 1.95-17.644 6.311-10.085 3.656M309.854 450.446l-7.13 2.58-16.158 5.82-13.986 4.984-2.086.748 5.547 4.59-6.481 8.099M265.215 466.555l-5.397 1.948M365.882 344.809l-177.776 48.424 5.114 4.454-4.455 6.883M182.51 395.232l-3.188.871M190.752 405.078l189.886-51.996" style="fill:none;stroke:red;stroke-width:1.99999;stroke-linecap:round;stroke-linejoin:round;stroke-miterlimit:4;stroke-dasharray:none;stroke-opacity:1;visibility:visible" visibility="hidden"/><path d="m442.896 409.837-114.165 40.768M307.963 458.034l-6.552 2.344-16.526 5.91-7.915 2.855M446.808 402.818l5.404 4.26.188 4.164" style="fill:none;stroke:red;stroke-width:.999997;stroke-linecap:round;stroke-linejoin:round;stroke-miterlimit:4;stroke-dasharray:none;stroke-opacity:1;visibility:visible" visibility="hidden"/><path d="m351.63 247.9-.052 49.231.054 16.209c-.026 1.088-.076 2.302.394 3.317l1.408 1.436 1.68 1.399a5233.174 5233.174 0 0 0 14.142 11.728c.18.15.36.299.544.447M375.107 336.042a4106.31 4106.31 0 0 0 8.759 7.183 9192.244 9192.244 0 0 0 14.964 12.195c4.972 4.043 9.94 8.083 14.906 12.127 4.842 3.943 9.675 7.888 14.508 11.838 4.638 3.789 9.276 7.582 13.91 11.373l.611.499M448.108 395.625l7.036 5.748a60488.235 60488.235 0 0 0 21.376 17.432c.19.155.38.312.57.464" style="fill:none;stroke:red;stroke-width:1.99999;stroke-linecap:round;stroke-linejoin:round;stroke-miterlimit:4;stroke-dasharray:none;stroke-opacity:1;visibility:visible" visibility="hidden"/><path d="M351.53 247.141c0 .755-1.826 1.367-4.075 1.367-2.25 0-4.079-.612-4.079-1.368" style="fill:none;stroke:red;stroke-width:.999997;stroke-linecap:round;stroke-linejoin:round;stroke-miterlimit:4;stroke-dasharray:none;stroke-opacity:1;visibility:visible" visibility="hidden"/><path d="M351.624 247.094c0-.736-1.78-1.336-3.974-1.336-2.195 0-3.976.6-3.976 1.336 0 2.096.002 4.188 0 6.283 0 5.09-.004 10.179 0 15.268.005 6.335.002 12.67-.004 19.004-.002 5.893.02 11.788.006 17.683-.008 3.857-.068 7.72.016 11.576.044 2.049.302 3.304 1.706 4.882" style="fill:none;stroke:red;stroke-width:1.99999;stroke-linecap:round;stroke-linejoin:round;stroke-miterlimit:4;stroke-dasharray:none;stroke-opacity:1;visibility:visible" visibility="hidden"/><path d="M351.647 316.457s-3.75-1.165-5.667 2.083M351.726 249.485c0 .756-1.828 1.367-4.076 1.367-2.252 0-4.078-.612-4.078-1.367" style="fill:none;stroke:red;stroke-width:.999997;stroke-linecap:round;stroke-linejoin:round;stroke-miterlimit:4;stroke-dasharray:none;stroke-opacity:1;visibility:visible" visibility="hidden"/><path d="M345.535 321.812c3.715 3.056 17.417 14.53 24.868 21M381.384 353.293c5.74 4.527 48.732 39.336 48.847 39.429l12.496 9.937" style="fill:none;stroke:red;stroke-width:1.99999;stroke-linecap:round;stroke-linejoin:round;stroke-miterlimit:4;stroke-dasharray:none;stroke-opacity:1;visibility:visible" visibility="hidden"/><path d="M443.684 405.583c0-.232.284-.44.742-.59" style="fill:none;stroke:red;stroke-width:.666665;stroke-linecap:round;stroke-linejoin:round;stroke-miterlimit:4;stroke-dasharray:none;stroke-opacity:1;visibility:visible" visibility="hidden"/><path d="M447.54 405.622c0 .439-.896.792-2 .792s-2-.353-2-.792" style="fill:none;stroke:red;stroke-width:1.33333;stroke-linecap:round;stroke-linejoin:round;stroke-miterlimit:4;stroke-dasharray:none;stroke-opacity:1;visibility:visible" visibility="hidden"/><path d="M370.571 345.47c0-.23.284-.439.74-.59M446.955 405.062c.361.144.585.341.585.56" style="fill:none;stroke:red;stroke-width:.666665;stroke-linecap:round;stroke-linejoin:round;stroke-miterlimit:4;stroke-dasharray:none;stroke-opacity:1;visibility:visible" visibility="hidden"/><path d="M374.426 345.51c0 .437-.896.792-2 .792s-2-.355-2-.792" style="fill:none;stroke:red;stroke-width:1.33333;stroke-linecap:round;stroke-linejoin:round;stroke-miterlimit:4;stroke-dasharray:none;stroke-opacity:1;visibility:visible" visibility="hidden"/><path d="M373.84 344.95c.362.143.586.341.586.56M265.54 469.236c0-.244.28-.462.721-.609" style="fill:none;stroke:red;stroke-width:.666665;stroke-linecap:round;stroke-linejoin:round;stroke-miterlimit:4;stroke-dasharray:none;stroke-opacity:1;visibility:visible" visibility="hidden"/><path d="M269.54 469.348c0 .438-.894.792-2 .792-1.102 0-2-.354-2-.792" style="fill:none;stroke:red;stroke-width:1.33333;stroke-linecap:round;stroke-linejoin:round;stroke-miterlimit:4;stroke-dasharray:none;stroke-opacity:1;visibility:visible" visibility="hidden"/><path d="M269.02 468.564c.29.14.464.316.464.508" style="fill:none;stroke:red;stroke-width:.666665;stroke-linecap:round;stroke-linejoin:round;stroke-miterlimit:4;stroke-dasharray:none;stroke-opacity:1;visibility:visible" visibility="hidden"/><path d="m477.55 420.162 24.642-52.93M486.537 423.319l-1.596 3.447-1.177 1.83c-.588.71-1.612.846-2.97 1.231-1.436.407-3.154 1.3-4.476.18l-1.259-.736a136291.57 136291.57 0 0 1-10.287-8.377c-3.448-2.808-6.898-5.615-10.346-8.425M302.57 505.744l-.787 1.696-1.005 1.49c-.618.809-1.705.958-3.152 1.39-1.519.46-3.33 1.456-4.73.206L148.848 381.71l-1.689-1.603c-1.107-1.017-1.426-2.902-1.426-2.902l-7.009-85.23M293.87 501.35l22.725-56.957" style="fill:none;stroke:red;stroke-width:1.99999;stroke-linecap:round;stroke-linejoin:round;stroke-miterlimit:4;stroke-dasharray:none;stroke-opacity:1;visibility:visible" visibility="hidden"/><path d="m511.608 369.451-.87 2.02-25.394 54.327" style="fill:none;stroke:red;stroke-width:1.99999;stroke-linecap:round;stroke-linejoin:round;stroke-miterlimit:4;stroke-dasharray:none;stroke-opacity:1;visibility:visible" visibility="hidden"/><path d="M511.525 368.889c-.404.724-2.229 1.016-4.445.638-2.532-.425-4.603-1.557-4.639-2.524" style="fill:none;stroke:red;stroke-width:.999997;stroke-linecap:round;stroke-linejoin:round;stroke-miterlimit:4;stroke-dasharray:none;stroke-opacity:1;visibility:visible" visibility="hidden"/><path d="M502.59 367.146c-.027-.896 1.968-1.31 4.457-.921 2.496.393 4.533 1.445 4.561 2.344a.564.564 0 0 1-.081.311" style="fill:none;stroke:red;stroke-width:1.99999;stroke-linecap:round;stroke-linejoin:round;stroke-miterlimit:4;stroke-dasharray:none;stroke-opacity:1;visibility:visible" visibility="hidden"/><path d="M510.933 370.74c-.163.874-2.109 1.25-4.513.848-2.533-.431-4.607-1.561-4.643-2.533" style="fill:none;stroke:red;stroke-width:.999997;stroke-linecap:round;stroke-linejoin:round;stroke-miterlimit:4;stroke-dasharray:none;stroke-opacity:1;visibility:visible" visibility="hidden"/><path d="m301.575 507.664 1.302-2.3.549-1.257 22.724-57.922.5-1.29" style="fill:none;stroke:red;stroke-width:1.99999;stroke-linecap:round;stroke-linejoin:round;stroke-miterlimit:4;stroke-dasharray:none;stroke-opacity:1;visibility:visible" visibility="hidden"/><path d="M326.817 444.745c-.157 1.232-2.482 1.955-5.198 1.617-2.716-.339-4.794-1.612-4.641-2.842" style="fill:none;stroke:red;stroke-width:.999997;stroke-linecap:round;stroke-linejoin:round;stroke-miterlimit:4;stroke-dasharray:none;stroke-opacity:1;visibility:visible" visibility="hidden"/><path d="M316.8 443.674c.152-1.234 2.477-1.957 5.193-1.619 2.717.339 4.796 1.612 4.642 2.84" style="fill:none;stroke:red;stroke-width:1.99999;stroke-linecap:round;stroke-linejoin:round;stroke-miterlimit:4;stroke-dasharray:none;stroke-opacity:1;visibility:visible" visibility="hidden"/><path d="M326.314 447.058c-.19 1.225-2.675 1.856-5.547 1.405-2.874-.448-5.05-1.803-4.853-3.028" style="fill:none;stroke:red;stroke-width:.999997;stroke-linecap:round;stroke-linejoin:round;stroke-miterlimit:4;stroke-dasharray:none;stroke-opacity:1;visibility:visible" visibility="hidden"/><path d="m366.15 345.847 4.86 3.443 9.517 3.645" style="fill:none;stroke:red;stroke-width:1.99999;stroke-linecap:round;stroke-linejoin:round;stroke-miterlimit:4;stroke-dasharray:none;stroke-opacity:1;visibility:visible" visibility="hidden"/><path d="m373.742 343.487 4.948 3.444.298 5.102" style="fill:none;stroke:red;stroke-width:.999997;stroke-linecap:round;stroke-linejoin:round;stroke-miterlimit:4;stroke-dasharray:none;stroke-opacity:1;visibility:visible" visibility="hidden"/><path d="m368.037 344.162 2.635-.607M439.835 404.446l3.872-1.485M452.616 412.266l-8.505-3.037-6.935-4.364c-16.746 6.033-68.062 24.205-106.411 38.024" style="fill:none;stroke:red;stroke-width:1.99999;stroke-linecap:round;stroke-linejoin:round;stroke-miterlimit:4;stroke-dasharray:none;stroke-opacity:1;visibility:visible" visibility="hidden"/><path d="m451.742 407.182-6.558 1.579M378.69 346.931l-6.558 1.579M265.364 473.452l7.646-2.216M184.269 401.053l7.645-2.216M138.872 291.444l8.322 2.476M138.872 291.444l.185 2.818" style="fill:none;stroke:red;stroke-width:.999997;stroke-linecap:round;stroke-linejoin:round;stroke-miterlimit:4;stroke-dasharray:none;stroke-opacity:1;visibility:visible" visibility="hidden"/><path d="m184.269 401.053-.455-4.175" style="fill:none;stroke:red;stroke-width:.666665;stroke-linecap:round;stroke-linejoin:round;stroke-miterlimit:4;stroke-dasharray:none;stroke-opacity:1;visibility:visible" visibility="hidden"/><path d="m191.914 398.837 2.446-1.206M372.132 348.51l-1.485.736" style="fill:none;stroke:red;stroke-width:.999997;stroke-linecap:round;stroke-linejoin:round;stroke-miterlimit:4;stroke-dasharray:none;stroke-opacity:1;visibility:visible" visibility="hidden"/><path d="m309.854 450.446 15.69 7.354M273.01 471.236l-2.445 6.316M325.544 457.8l-15.69-7.354M265.364 473.452l-.149-6.897M266.261 468.627l-6.443-.124M368.037 344.162l-2.155.647M184.269 401.053l-1.759-5.821M183.814 396.878l-4.492-.775M191.914 398.837l-1.162 6.241" style="fill:none;stroke:red;stroke-width:1.99999;stroke-linecap:round;stroke-linejoin:round;stroke-miterlimit:4;stroke-dasharray:none;stroke-opacity:1;visibility:visible" visibility="hidden"/><path d="m439.835 404.446 3.061 5.391M309.854 450.446l18.877.159M325.544 457.8l-17.581.234M273.01 471.236l3.96-2.093M442.727 402.659l4.081.159M447.54 405.622l4.86 5.62" style="fill:none;stroke:red;stroke-width:.999997;stroke-linecap:round;stroke-linejoin:round;stroke-miterlimit:4;stroke-dasharray:none;stroke-opacity:1;visibility:visible" visibility="hidden"/><path d="m375.107 336.042-5.307-4.375M369.8 331.667l5.307 4.375M448.108 395.625l-5.343-4.368M442.765 391.257l5.343 4.368" style="fill:none;stroke:red;stroke-width:1.99999;stroke-linecap:round;stroke-linejoin:round;stroke-miterlimit:4;stroke-dasharray:none;stroke-opacity:1;visibility:visible" visibility="hidden"/><path d="m351.624 247.094-8.248.046M351.624 247.094l.102 2.391M351.624 247.094l-8.052 2.391" style="fill:none;stroke:red;stroke-width:.999997;stroke-linecap:round;stroke-linejoin:round;stroke-miterlimit:4;stroke-dasharray:none;stroke-opacity:1;visibility:visible" visibility="hidden"/><path d="m446.808 402.818-4.081-.159" style="fill:none;stroke:red;stroke-width:1.99999;stroke-linecap:round;stroke-linejoin:round;stroke-miterlimit:4;stroke-dasharray:none;stroke-opacity:1;visibility:visible" visibility="hidden"/><path d="m445.184 408.761-.758-3.768M372.132 348.51l-.821-3.63M265.364 473.452l.897-4.825" style="fill:none;stroke:red;stroke-width:.666665;stroke-linecap:round;stroke-linejoin:round;stroke-miterlimit:4;stroke-dasharray:none;stroke-opacity:1;visibility:visible" visibility="hidden"/><path d="m486.537 423.319-8.987-3.157M485.344 425.798l1.193-2.479M442.727 402.659l11.699 9.81M301.575 507.664l.995-1.92M302.57 505.744l-8.7-4.394M486.537 423.319l-1.193 2.479" style="fill:none;stroke:red;stroke-width:1.99999;stroke-linecap:round;stroke-linejoin:round;stroke-miterlimit:4;stroke-dasharray:none;stroke-opacity:1;visibility:visible" visibility="hidden"/><path d="m502.59 367.146-.813 1.909" style="fill:none;stroke:red;stroke-width:.999997;stroke-linecap:round;stroke-linejoin:round;stroke-miterlimit:4;stroke-dasharray:none;stroke-opacity:1;visibility:visible" visibility="hidden"/><path d="m302.57 505.744-.995 1.92" style="fill:none;stroke:red;stroke-width:1.99999;stroke-linecap:round;stroke-linejoin:round;stroke-miterlimit:4;stroke-dasharray:none;stroke-opacity:1;visibility:visible" visibility="hidden"/><path d="m326.635 444.895-.321 2.163M316.8 443.674l-.886 1.761" style="fill:none;stroke:red;stroke-width:.999997;stroke-linecap:round;stroke-linejoin:round;stroke-miterlimit:4;stroke-dasharray:none;stroke-opacity:1;visibility:visible" visibility="hidden"/><path d="m369.8 331.667-3.65 14.18" style="fill:none;stroke:red;stroke-width:1.99999;stroke-linecap:round;stroke-linejoin:round;stroke-miterlimit:4;stroke-dasharray:none;stroke-opacity:1;visibility:visible" visibility="hidden"/><path d="m369.8 331.667 3.942 11.82M374.426 345.51l4.562 6.523" style="fill:none;stroke:red;stroke-width:.999997;stroke-linecap:round;stroke-linejoin:round;stroke-miterlimit:4;stroke-dasharray:none;stroke-opacity:1;visibility:visible" visibility="hidden"/><path d="m365.882 344.809 2.155-.647M444.426 404.993l-4.591-.547" style="fill:none;stroke:red;stroke-width:1.99999;stroke-linecap:round;stroke-linejoin:round;stroke-miterlimit:4;stroke-dasharray:none;stroke-opacity:1;visibility:visible" visibility="hidden"/><path d="m444.426 404.993.758 3.768M368.037 344.162l10.653 2.769M370.647 349.246l1.485-.736M266.261 468.627l-.897 4.825M276.97 469.143l-3.96 2.093M183.814 396.878l.455 4.175M194.36 397.631l-2.446 1.206" style="fill:none;stroke:red;stroke-width:.999997;stroke-linecap:round;stroke-linejoin:round;stroke-miterlimit:4;stroke-dasharray:none;stroke-opacity:1;visibility:visible" visibility="hidden"/><path d="M265.122 521.119c0-.29.25-.557.653-.747M268.583 520.234c.61.19 1.01.516 1.01.885" style="fill:none;stroke:#00ff4a;stroke-width:.666665;stroke-linecap:round;stroke-linejoin:round;stroke-miterlimit:1;stroke-dasharray:none;stroke-opacity:1;visibility:visible"/><path d="M269.593 521.119c0 .587-1.003 1.063-2.236 1.063-1.235 0-2.235-.476-2.235-1.063" style="fill:none;stroke:#00ff4a;stroke-width:1.33333;stroke-linecap:round;stroke-linejoin:round;stroke-miterlimit:1;stroke-dasharray:none;stroke-opacity:1;visibility:visible"/><path d="M186.562 448.474c.574.19.948.508.948.865" style="fill:none;stroke:#00ff4a;stroke-width:.666665;stroke-linecap:round;stroke-linejoin:round;stroke-miterlimit:1;stroke-dasharray:none;stroke-opacity:1;visibility:visible"/><path d="M187.51 449.34c0 .584-1.002 1.06-2.237 1.06s-2.235-.474-2.235-1.06" style="fill:none;stroke:#00ff4a;stroke-width:1.33333;stroke-linecap:round;stroke-linejoin:round;stroke-miterlimit:1;stroke-dasharray:none;stroke-opacity:1;visibility:visible"/><path d="M443.327 454.237c0-.291.25-.558.653-.75M446.684 453.32c.667.184 1.116.527 1.116.918" style="fill:none;stroke:#00ff4a;stroke-width:.666665;stroke-linecap:round;stroke-linejoin:round;stroke-miterlimit:1;stroke-dasharray:none;stroke-opacity:1;visibility:visible"/><path d="M447.799 454.237c0 .586-1.005 1.06-2.237 1.06-1.238 0-2.235-.474-2.235-1.06" style="fill:none;stroke:#00ff4a;stroke-width:1.33333;stroke-linecap:round;stroke-linejoin:round;stroke-miterlimit:1;stroke-dasharray:none;stroke-opacity:1;visibility:visible"/><path d="m206.898 418.281 2.102-.499 44.138-10.775 9.503-2.325c44.522-10.867 88.527-21.61 96.691-23.652 3.32-.83 6.14-1.767 9.352-1.047M375.267 383.162l20.63 14.664c5.647 3.976 12.023 8.46 18.693 13.145M429.644 421.545l13.056 9.169M449.47 435.469l1.115.784 6.037 4.245c12.46 8.762 22.215 15.642 25.322 17.9 10.817 7.87 11.473 14.097 8.524 22.62-2.95 8.524-11.147 37.704-11.641 46.169-.495 8.464.493 71.854.82 77.098.328 5.248-.982 6.887-5.41 9.2-7.289 3.805-185.717 79.971-195.225 83.249-9.507 3.282-9.179.66-14.425-5.241-5.245-5.903-89.5-102.941-95.4-109.826-5.899-6.885-6.884-11.147-8.85-20.983-1.969-9.836-14.345-94.486-17.704-112.774-2.952-16.067 5.572-15.081 18.357-18.361 1.116-.285 5.47-1.359 12.18-3.003l6.769-1.739 1.769-.434" style="fill:none;stroke:#00ff4a;stroke-width:1.99999;stroke-linecap:round;stroke-linejoin:round;stroke-miterlimit:1;stroke-dasharray:none;stroke-opacity:1;visibility:visible"/><path d="M172.793 431.515a4261.033 4261.033 0 0 1-15.408 4.265c-2.98.806-3.62.99-.656 3.606 4.531 4 117.398 107.4 117.398 107.4M169.281 427.015l7.657 8.658 1.627-.115 5.003-1.288M187.648 433.068l13.274-3.408M344.251 385.291l7.215 5.574-88.54 22.757-10.067 2.63-39.928 10.261" style="fill:none;stroke:#00ff4a;stroke-width:.999997;stroke-linecap:round;stroke-linejoin:round;stroke-miterlimit:1;stroke-dasharray:none;stroke-opacity:1;visibility:visible"/><path d="M168.793 430.515a4261.033 4261.033 0 0 1-15.408 4.265c-2.98.806-3.62.99-.656 3.606 4.532 4 119.065 108.733 119.065 108.733" style="fill:none;stroke:#00ff4a;stroke-width:.666665;stroke-linecap:round;stroke-linejoin:round;stroke-miterlimit:1;stroke-dasharray:2.66666,3.99999;stroke-dashoffset:0;stroke-opacity:1;visibility:visible"/><path d="M271.127 697.119c-1.333-13.667-6.666-79.667-7-95.334-.333-15.665.25-31 1-36.665.75-5.668 3.58-9.553 5-13.001 2.334-5.667 3.154-4.333 9.334-7.333 6.178-3 65.333-22.334 81.666-29.667 16.333-7.333 42.333-15.333 54.667-21.333 12.333-6 58.333-22 62-24M154.497 437.135l-10.327-1.005" style="fill:none;stroke:#00ff4a;stroke-width:.999997;stroke-linecap:round;stroke-linejoin:round;stroke-miterlimit:1;stroke-dasharray:none;stroke-opacity:1;visibility:visible"/><path d="M275.817 549.482c1.325-1.016 3.117-1.312 6.69-3.042 6.219-3.013 65.755-22.43 82.195-29.792 16.437-7.365 42.606-15.398 55.021-21.424s58.71-22.094 62.404-24.102" style="fill:none;stroke:#00ff4a;stroke-width:.666665;stroke-linecap:round;stroke-linejoin:round;stroke-miterlimit:1;stroke-dasharray:2.66666,3.99999;stroke-dashoffset:0;stroke-opacity:1;visibility:visible"/><path d="m348.256 388.014 16.18-4.18" style="fill:none;stroke:#00ff4a;stroke-width:.999997;stroke-linecap:round;stroke-linejoin:round;stroke-miterlimit:1;stroke-dasharray:none;stroke-opacity:1;visibility:visible"/><path d="M364.848 383.938a1278.118 1278.118 0 0 0 5.678 4.164M375.272 391.517l12.388 8.957c6.524 4.703 13.134 9.456 18.375 13.23M423.046 426.026c6.313 4.62 13.742 10.101 19.584 14.563M449.731 446.17c.255.208.495.408.719.599.513.434 1.122.931 1.806 1.473M456.652 451.63c8.62 6.535 21.141 15.688 21.141 17.49" style="fill:none;stroke:#00ff4a;stroke-width:.666665;stroke-linecap:round;stroke-linejoin:round;stroke-miterlimit:1;stroke-dasharray:2.66666,3.99999;stroke-dashoffset:0;stroke-opacity:1;visibility:visible"/><path d="M491.127 475.523s-203 79.263-209.333 81.93c-5.232 2.202-9.44 5.088-13.425 3.582M264.827 558.415l-121.45-119.962M362.759 384.754l6.704 4.93M375.346 393.969l13.421 9.87c5.161 3.791 10.55 7.747 15.292 11.223M418.871 425.87c7.229 5.248 17.656 12.856 24.773 18.313M448.335 447.958a98.326 98.326 0 0 0 3.112 2.482l5.036 3.826c8.404 6.333 18.977 14.2 18.977 15.853" style="fill:none;stroke:#00ff4a;stroke-width:.999997;stroke-linecap:round;stroke-linejoin:round;stroke-miterlimit:1;stroke-dasharray:none;stroke-opacity:1;visibility:visible"/><path d="M240.775 480.204a.853.853 0 0 1 .252.571c0 .816-1.429 1.475-3.194 1.475-1.766 0-3.195-.66-3.195-1.474 0-.182.072-.356.203-.518M241.027 478.714c0 .814-1.429 1.473-3.194 1.473-1.766 0-3.195-.659-3.195-1.473 0-.814 1.43-1.478 3.195-1.478s3.194.664 3.194 1.478" style="fill:none;stroke:#00ff4a;stroke-width:.666665;stroke-linecap:round;stroke-linejoin:round;stroke-miterlimit:4;stroke-dasharray:none;stroke-opacity:1;visibility:visible"/><path d="M240.707 479.64v.258c0 .724-1.27 1.312-2.844 1.312-1.569.001-2.84-.589-2.84-1.312v-.354" style="fill:none;stroke:#00ff4a;stroke-width:.666665;stroke-linecap:round;stroke-linejoin:round;stroke-miterlimit:4;stroke-dasharray:none;stroke-opacity:1;visibility:visible"/><path d="m276.518 524.914-7.579 3.21-9.808-9.492" style="fill:none;stroke:#00ff4a;stroke-width:.666665;stroke-linecap:round;stroke-linejoin:round;stroke-miterlimit:1;stroke-dasharray:none;stroke-opacity:1;visibility:visible"/><path d="M276.507 527.586v-2.646M269.045 517.687l7.505 7.261" style="fill:none;stroke:#00ff4a;stroke-width:1.33333;stroke-linecap:round;stroke-linejoin:round;stroke-miterlimit:1;stroke-dasharray:none;stroke-opacity:1;visibility:visible"/><path d="m258.898 521.711 9.81 9.492" style="fill:none;stroke:#00ff4a;stroke-width:.666665;stroke-linecap:round;stroke-linejoin:round;stroke-miterlimit:1;stroke-dasharray:none;stroke-opacity:1;visibility:visible"/><path d="m265.018 516.006-6.072 2.572v2.666" style="fill:none;stroke:#00ff4a;stroke-width:1.33333;stroke-linecap:round;stroke-linejoin:round;stroke-miterlimit:1;stroke-dasharray:none;stroke-opacity:1;visibility:visible"/><path d="m268.94 528.124.1 2.97 7.579-3.211" style="fill:none;stroke:#00ff4a;stroke-width:.666665;stroke-linecap:round;stroke-linejoin:round;stroke-miterlimit:1;stroke-dasharray:none;stroke-opacity:1;visibility:visible"/><path d="m187.117 445.534 8.377 7.579v3.364" style="fill:none;stroke:#00ff4a;stroke-width:1.33333;stroke-linecap:round;stroke-linejoin:round;stroke-miterlimit:1;stroke-dasharray:none;stroke-opacity:1;visibility:visible"/><path d="m454.96 457.68-7.117 2.715v2.59M447.715 460.356l-11.085-8.452M176.302 449.449l10.408 9.416" style="fill:none;stroke:#00ff4a;stroke-width:.666665;stroke-linecap:round;stroke-linejoin:round;stroke-miterlimit:1;stroke-dasharray:none;stroke-opacity:1;visibility:visible"/><path d="m448.083 451.378 7.293 5.525" style="fill:none;stroke:#00ff4a;stroke-width:1.33333;stroke-linecap:round;stroke-linejoin:round;stroke-miterlimit:1;stroke-dasharray:none;stroke-opacity:1;visibility:visible"/><path d="m455.916 460.124-7.938 3.03M436.483 454.742l11.247 8.524" style="fill:none;stroke:#00ff4a;stroke-width:.666665;stroke-linecap:round;stroke-linejoin:round;stroke-miterlimit:1;stroke-dasharray:none;stroke-opacity:1;visibility:visible"/><path d="m443.616 448.91-6.99 2.665v2.91M455.595 457.266v2.85" style="fill:none;stroke:#00ff4a;stroke-width:1.33333;stroke-linecap:round;stroke-linejoin:round;stroke-miterlimit:1;stroke-dasharray:none;stroke-opacity:1;visibility:visible"/><path d="M369.92 398.943c0-.292.251-.557.655-.749M373.278 398.027c.664.184 1.112.526 1.112.916" style="fill:none;stroke:#00ff4a;stroke-width:.666665;stroke-linecap:round;stroke-linejoin:round;stroke-miterlimit:1;stroke-dasharray:none;stroke-opacity:1;visibility:visible"/><path d="M374.39 398.943c0 .587-1.003 1.06-2.238 1.06-1.234 0-2.232-.473-2.232-1.06" style="fill:none;stroke:#00ff4a;stroke-width:1.33333;stroke-linecap:round;stroke-linejoin:round;stroke-miterlimit:1;stroke-dasharray:none;stroke-opacity:1;visibility:visible"/><path d="m381.163 402.222-7.117 2.716v2.585M373.918 404.898l-11.086-8.452" style="fill:none;stroke:#00ff4a;stroke-width:.666665;stroke-linecap:round;stroke-linejoin:round;stroke-miterlimit:1;stroke-dasharray:none;stroke-opacity:1;visibility:visible"/><path d="m374.687 396.222 6.933 5.252" style="fill:none;stroke:#00ff4a;stroke-width:1.33333;stroke-linecap:round;stroke-linejoin:round;stroke-miterlimit:1;stroke-dasharray:none;stroke-opacity:1;visibility:visible"/><path d="m382.119 404.667-7.937 3.028M362.687 399.282l11.247 8.523" style="fill:none;stroke:#00ff4a;stroke-width:.666665;stroke-linecap:round;stroke-linejoin:round;stroke-miterlimit:1;stroke-dasharray:none;stroke-opacity:1;visibility:visible"/><path d="m182.365 444.258-6.199 1.712v3.103M369.82 393.45l-.46.176M369.36 393.626l-6.53 2.492v2.905M381.8 401.807v2.853" style="fill:none;stroke:#00ff4a;stroke-width:1.33333;stroke-linecap:round;stroke-linejoin:round;stroke-miterlimit:1;stroke-dasharray:none;stroke-opacity:1;visibility:visible"/><path d="M183.982 448.414c-.572.193-.948.508-.948.868M176.517 446.31l10.41 9.418M194.754 456.782l-7.732 2.137M194.857 453.529l-7.733 2.138M187.028 455.76v3.01" style="fill:none;stroke:#00ff4a;stroke-width:.666665;stroke-linecap:round;stroke-linejoin:round;stroke-miterlimit:1;stroke-dasharray:none;stroke-opacity:1;visibility:visible"/><path d="M399.063 437.86a.853.853 0 0 1 .251.572c0 .815-1.43 1.474-3.195 1.474s-3.196-.659-3.196-1.473c0-.183.073-.358.204-.52M399.313 436.37c.001.815-1.428 1.473-3.193 1.473-1.765 0-3.197-.658-3.197-1.473 0-.812 1.43-1.476 3.196-1.476 1.765 0 3.195.664 3.195 1.476h-.001" style="fill:none;stroke:#00ff4a;stroke-width:.666665;stroke-linecap:round;stroke-linejoin:round;stroke-miterlimit:4;stroke-dasharray:none;stroke-opacity:1;visibility:visible"/><path d="M398.994 437.297v.258c0 .725-1.271 1.312-2.844 1.312-1.57 0-2.842-.587-2.842-1.312v-.354" style="fill:none;stroke:#00ff4a;stroke-width:.666665;stroke-linecap:round;stroke-linejoin:round;stroke-miterlimit:4;stroke-dasharray:none;stroke-opacity:1;visibility:visible"/><path d="m200.922 429.66 5.976-11.379M373.278 398.027l-4.594-18.044M370.526 388.102l4.741-4.94M418.871 425.87l-4.281-14.899M414.59 410.971l15.054 10.574M449.47 435.469l-6.77-4.755M442.7 430.714l6.77 4.755M187.648 433.068l-5.94-8.695" style="fill:none;stroke:#00ff4a;stroke-width:1.99999;stroke-linecap:round;stroke-linejoin:round;stroke-miterlimit:1;stroke-dasharray:none;stroke-opacity:1;visibility:visible"/><path d="m187.648 433.068-14.855-1.553M264.827 558.415l9.3-11.629M187.648 433.068l-4.08 1.202M183.568 434.27l4.08-1.202M212.931 426.513l-12.009 3.147M200.922 429.66l12.009-3.147" style="fill:none;stroke:#00ff4a;stroke-width:.999997;stroke-linecap:round;stroke-linejoin:round;stroke-miterlimit:1;stroke-dasharray:none;stroke-opacity:1;visibility:visible"/><path d="m187.648 433.068-18.855-2.553M264.827 558.415l6.967-11.296M375.272 391.517l-4.746-3.415M370.526 388.102l4.746 3.415M418.871 425.87l-12.836-12.166M414.59 410.971l8.456 15.055M449.47 435.469l-6.84 5.12M443.644 444.183l6.087 1.987M448.335 447.958l3.921.284M455.376 456.903l1.276-5.273" style="fill:none;stroke:#00ff4a;stroke-width:.666665;stroke-linecap:round;stroke-linejoin:round;stroke-miterlimit:1;stroke-dasharray:2.66666,3.99999;stroke-dashoffset:0;stroke-opacity:1;visibility:visible"/><path d="m370.526 388.102-7.767-3.348M375.272 391.517l-5.809-1.833M369.463 389.684l5.883 4.285M418.871 425.87l-14.812-10.808M414.59 410.971l4.281 14.899M448.335 447.958l-4.691-3.775M452.256 448.242l-3.921-.284" style="fill:none;stroke:#00ff4a;stroke-width:.999997;stroke-linecap:round;stroke-linejoin:round;stroke-miterlimit:1;stroke-dasharray:none;stroke-opacity:1;visibility:visible"/><path d="m268.708 531.203-9.577-12.571" style="fill:none;stroke:#00ff4a;stroke-width:.666665;stroke-linecap:round;stroke-linejoin:round;stroke-miterlimit:1;stroke-dasharray:none;stroke-opacity:1;visibility:visible"/><path d="m268.708 531.203.337-13.516" style="fill:none;stroke:#00ff4a;stroke-width:1.33333;stroke-linecap:round;stroke-linejoin:round;stroke-miterlimit:1;stroke-dasharray:none;stroke-opacity:1;visibility:visible"/><path d="m269.045 517.687-.337 13.516M269.593 521.119l-.653 7.005" style="fill:none;stroke:#00ff4a;stroke-width:.666665;stroke-linecap:round;stroke-linejoin:round;stroke-miterlimit:1;stroke-dasharray:none;stroke-opacity:1;visibility:visible"/><path d="m186.927 455.728.19-10.194" style="fill:none;stroke:#00ff4a;stroke-width:1.33333;stroke-linecap:round;stroke-linejoin:round;stroke-miterlimit:1;stroke-dasharray:none;stroke-opacity:1;visibility:visible"/><path d="m448.083 451.378-.368 8.978M443.644 444.183l-7.014 7.721" style="fill:none;stroke:#00ff4a;stroke-width:.666665;stroke-linecap:round;stroke-linejoin:round;stroke-miterlimit:1;stroke-dasharray:none;stroke-opacity:1;visibility:visible"/><path d="m452.256 448.242-4.173 3.136M447.978 463.154l-4.362-14.244" style="fill:none;stroke:#00ff4a;stroke-width:1.33333;stroke-linecap:round;stroke-linejoin:round;stroke-miterlimit:1;stroke-dasharray:none;stroke-opacity:1;visibility:visible"/><path d="m368.684 379.983 4.594 18.044M374.687 396.222l-.769 8.676M369.463 389.684l-6.631 6.762" style="fill:none;stroke:#00ff4a;stroke-width:.666665;stroke-linecap:round;stroke-linejoin:round;stroke-miterlimit:1;stroke-dasharray:none;stroke-opacity:1;visibility:visible"/><path d="m369.463 389.684 5.224 6.538M187.124 455.667l-4.759-11.409" style="fill:none;stroke:#00ff4a;stroke-width:1.33333;stroke-linecap:round;stroke-linejoin:round;stroke-miterlimit:1;stroke-dasharray:none;stroke-opacity:1;visibility:visible"/><path d="m187.124 455.667-3.142-7.253M186.71 458.865l-10.193-12.555M187.022 458.919l7.835-5.39M449.731 446.17l-3.047 7.15" style="fill:none;stroke:#00ff4a;stroke-width:.666665;stroke-linecap:round;stroke-linejoin:round;stroke-miterlimit:1;stroke-dasharray:none;stroke-opacity:1;visibility:visible"/><path d="m168.793 430.515-14.296 6.62" style="fill:none;stroke:#00ff4a;stroke-width:.999997;stroke-linecap:round;stroke-linejoin:round;stroke-miterlimit:1;stroke-dasharray:none;stroke-opacity:1;visibility:visible"/></svg>