<svg xmlns="http://www.w3.org/2000/svg" baseProfile="full" height="793.701" preserveAspectRatio="xMinYMin meet" style="width:792px;height:931px" width="559.371" xml:space="preserve"><path d="M243.474 342.747c-1.779 0-3.221-.572-3.221-1.274 0-.706 1.442-1.276 3.221-1.276.664 0 1.281.08 1.796.216" style="fill:none;stroke:red;stroke-width:.999997;stroke-linecap:round;stroke-linejoin:round;stroke-miterlimit:4;stroke-dasharray:none;stroke-opacity:1;visibility:visible"/><path d="M389.967 279.917 270.53 323.14M242.176 333.571l9.956-3.891M242.558 333.678l-.607.167-6.481 8.16.013.262c1.604 1.438 3.251 2.908 4.923 4.407M266.518 337.746l138.942-49.692M405.46 288.054l.031-.013-9.225-3.213M396.266 284.828l-5.962-4.776" style="fill:none;stroke:red;stroke-width:1.99999;stroke-linecap:round;stroke-linejoin:round;stroke-miterlimit:4;stroke-dasharray:none;stroke-opacity:1;visibility:visible"/><path d="m242.233 334.082 4.997 3.938-6.483 9.086" style="fill:none;stroke:red;stroke-width:1.99999;stroke-linecap:round;stroke-linejoin:round;stroke-miterlimit:4;stroke-dasharray:none;stroke-opacity:1;visibility:visible"/><path d="m396.266 284.828-128.106 46.03M249.371 337.725l-1.889.393" style="fill:none;stroke:red;stroke-width:.999997;stroke-linecap:round;stroke-linejoin:round;stroke-miterlimit:4;stroke-dasharray:none;stroke-opacity:1;visibility:visible"/><path d="m405.548 287.421-7.873-5.625-3.136.482M252.132 329.68l18.398-6.54M268.16 330.858l-16.028-1.178M252.132 329.68l14.386 8.066" style="fill:none;stroke:red;stroke-width:1.99999;stroke-linecap:round;stroke-linejoin:round;stroke-miterlimit:4;stroke-dasharray:none;stroke-opacity:1;visibility:visible"/><path d="m252.132 329.68 16.028 1.178M242.558 333.678l4.924 4.44" style="fill:none;stroke:red;stroke-width:.999997;stroke-linecap:round;stroke-linejoin:round;stroke-miterlimit:4;stroke-dasharray:none;stroke-opacity:1;visibility:visible"/><path d="M82.88 174.927c-.02-.694 1.89-1.34 4.27-1.443 2.38-.104 4.326.375 4.35 1.068a.437.437 0 0 1-.016.117" style="fill:none;stroke:#00ff4a;stroke-width:1.99999;stroke-linecap:round;stroke-linejoin:round;stroke-miterlimit:4;stroke-dasharray:none;stroke-opacity:1;visibility:visible" visibility="hidden"/><path d="M91.202 177.404c-.032.68-1.817 1.308-4.03 1.41-2.248.102-4.088-.376-4.107-1.068" style="fill:none;stroke:#00ff4a;stroke-width:.999997;stroke-linecap:round;stroke-linejoin:round;stroke-miterlimit:4;stroke-dasharray:none;stroke-opacity:1;visibility:visible" visibility="hidden"/><path d="m234.79 380.447-5.92-5.324M218.951 366.204l-45.738-41.134M158.172 311.544l-15.482-13.92M142.69 297.623a7027.474 7027.474 0 0 1-5.742-5.163M136.948 292.46 101.3 260.4l-1.66-1.584c-1.083-1-1.395-2.859-1.395-2.859l-6.628-81.014" style="fill:none;stroke:#00ff4a;stroke-width:1.99999;stroke-linecap:round;stroke-linejoin:round;stroke-miterlimit:4;stroke-dasharray:none;stroke-opacity:1;visibility:visible" visibility="hidden"/><path d="M93.044 259.577s.925-2.643 5.404-2.264" style="fill:none;stroke:#00ff4a;stroke-width:.999997;stroke-linecap:round;stroke-linejoin:round;stroke-miterlimit:4;stroke-dasharray:none;stroke-opacity:1;visibility:visible" visibility="hidden"/><path d="m141.924 285.58-9.144 2.52M124.116 280.084l13.189-3.616" style="fill:none;stroke:#00ff4a;stroke-width:1.99999;stroke-linecap:round;stroke-linejoin:round;stroke-miterlimit:4;stroke-dasharray:none;stroke-opacity:1;visibility:visible" visibility="hidden"/><path d="M134.503 280.572c-.001.401-.816.722-1.821.722-1.006-.001-1.822-.322-1.822-.721.001-.399.817-.72 1.822-.72 1.006 0 1.82.321 1.82.72l.001-.001M140.738 280.952l-12.645 3.49" style="fill:none;stroke:#00ff4a;stroke-width:.999997;stroke-linecap:round;stroke-linejoin:round;stroke-miterlimit:4;stroke-dasharray:none;stroke-opacity:1;visibility:visible" visibility="hidden"/><path d="m137.505 276.495 4.423 3.995v5.014M201.162 349.365l14.453-5.116" style="fill:none;stroke:#00ff4a;stroke-width:1.99999;stroke-linecap:round;stroke-linejoin:round;stroke-miterlimit:4;stroke-dasharray:none;stroke-opacity:1;visibility:visible" visibility="hidden"/><path d="M212.555 348.917c-.001.393-.805.712-1.795.712-.99 0-1.793-.319-1.793-.712 0-.39.803-.707 1.793-.707.99 0 1.794.316 1.794.707h.001M219.04 348.77 205 353.618" style="fill:none;stroke:#00ff4a;stroke-width:.999997;stroke-linecap:round;stroke-linejoin:round;stroke-miterlimit:4;stroke-dasharray:none;stroke-opacity:1;visibility:visible" visibility="hidden"/><path d="m216.515 354.346-7.29 2.519M215.81 344.205l4.357 3.934v2.812M234.923 381.545l22.724-56.956" style="fill:none;stroke:#00ff4a;stroke-width:1.99999;stroke-linecap:round;stroke-linejoin:round;stroke-miterlimit:4;stroke-dasharray:none;stroke-opacity:1;visibility:visible" visibility="hidden"/><path d="M83.15 175.955c.655.42 2.162.672 3.91.593 2.2-.096 3.992-.678 4.166-1.323" style="fill:none;stroke:#00ff4a;stroke-width:.999997;stroke-linecap:round;stroke-linejoin:round;stroke-miterlimit:4;stroke-dasharray:none;stroke-opacity:1;visibility:visible" visibility="hidden"/><path d="M83.15 175.954c-.218-.139-.34-.299-.345-.474l.479 3.304 6.625 81.013s.315 1.86 1.397 2.86l1.658 1.583 68.36 61.416M176.672 339.442l7.315 6.57c12.073 10.852 23.266 20.911 31.996 28.761M225.906 383.686c5.13 4.612 8.145 7.321 8.175 7.345 1.372 1.234 3.149.25 4.639-.201 2.167-.655 3.178-1.643 3.907-2.97l1.303-2.3.549-1.26 22.722-57.92.501-1.291" style="fill:none;stroke:#00ff4a;stroke-width:1.99999;stroke-linecap:round;stroke-linejoin:round;stroke-miterlimit:4;stroke-dasharray:none;stroke-opacity:1;visibility:visible" visibility="hidden"/><path d="M267.869 324.94c-.156 1.23-2.482 1.956-5.199 1.617-2.715-.339-4.793-1.61-4.64-2.841" style="fill:none;stroke:#00ff4a;stroke-width:.999997;stroke-linecap:round;stroke-linejoin:round;stroke-miterlimit:4;stroke-dasharray:none;stroke-opacity:1;visibility:visible" visibility="hidden"/><path d="M257.851 323.869c.154-1.232 2.479-1.956 5.195-1.619 2.716.34 4.795 1.61 4.641 2.84" style="fill:none;stroke:#00ff4a;stroke-width:1.99999;stroke-linecap:round;stroke-linejoin:round;stroke-miterlimit:4;stroke-dasharray:none;stroke-opacity:1;visibility:visible" visibility="hidden"/><path d="M267.366 327.253c-.19 1.226-2.673 1.857-5.547 1.405-2.874-.447-5.049-1.804-4.853-3.03" style="fill:none;stroke:#00ff4a;stroke-width:.999997;stroke-linecap:round;stroke-linejoin:round;stroke-miterlimit:4;stroke-dasharray:none;stroke-opacity:1;visibility:visible" visibility="hidden"/><path d="m83.065 177.746-.185-2.819" style="fill:none;stroke:#00ff4a;stroke-width:1.99999;stroke-linecap:round;stroke-linejoin:round;stroke-miterlimit:4;stroke-dasharray:none;stroke-opacity:1;visibility:visible" visibility="hidden"/><path d="m82.88 174.927 8.322 2.477M82.88 174.927l.185 2.819" style="fill:none;stroke:#00ff4a;stroke-width:.999997;stroke-linecap:round;stroke-linejoin:round;stroke-miterlimit:4;stroke-dasharray:none;stroke-opacity:1;visibility:visible" visibility="hidden"/><path d="m225.906 383.686 8.884-3.239M215.983 374.773l12.887.35M228.87 375.123l-9.919-8.919M161.324 325.656l11.889-.586M140.738 280.952l-7.958 7.148M140.738 280.952l-16.622-.868" style="fill:none;stroke:#00ff4a;stroke-width:1.99999;stroke-linecap:round;stroke-linejoin:round;stroke-miterlimit:4;stroke-dasharray:none;stroke-opacity:1;visibility:visible" visibility="hidden"/><path d="m141.928 285.504-7.425-4.932M132.78 288.1l7.958-7.148M137.305 276.468l-9.212 7.974" style="fill:none;stroke:#00ff4a;stroke-width:.999997;stroke-linecap:round;stroke-linejoin:round;stroke-miterlimit:4;stroke-dasharray:none;stroke-opacity:1;visibility:visible" visibility="hidden"/><path d="m216.515 354.346-15.353-4.981" style="fill:none;stroke:#00ff4a;stroke-width:1.99999;stroke-linecap:round;stroke-linejoin:round;stroke-miterlimit:4;stroke-dasharray:none;stroke-opacity:1;visibility:visible" visibility="hidden"/><path d="m220.167 350.951-7.612-2.034M209.225 356.865l9.815-8.095M216.515 354.346 205 353.618" style="fill:none;stroke:#00ff4a;stroke-width:.999997;stroke-linecap:round;stroke-linejoin:round;stroke-miterlimit:4;stroke-dasharray:none;stroke-opacity:1;visibility:visible" visibility="hidden"/><path d="m205 353.618 11.515.728M219.04 348.77l-9.815 8.095M212.555 348.917l7.612 2.034M173.213 325.07l-11.889.586M228.87 375.123l-12.887-.35M234.79 380.447l-8.884 3.239" style="fill:none;stroke:#00ff4a;stroke-width:1.99999;stroke-linecap:round;stroke-linejoin:round;stroke-miterlimit:4;stroke-dasharray:none;stroke-opacity:1;visibility:visible" visibility="hidden"/><path d="m267.687 325.09-.321 2.163M257.851 323.869l-.885 1.759" style="fill:none;stroke:#00ff4a;stroke-width:.999997;stroke-linecap:round;stroke-linejoin:round;stroke-miterlimit:4;stroke-dasharray:none;stroke-opacity:1;visibility:visible" visibility="hidden"/><path d="m459.444 287.23-.492-.416-8.474-7.138a9240.297 9240.297 0 0 1-9.96-8.391c-3.735-3.147-7.47-6.297-11.204-9.45a21870.951 21870.951 0 0 0-24.51-20.678c-4.281-3.599-8.568-7.199-12.854-10.799a7716.262 7716.262 0 0 1-12.907-10.863 3439.494 3439.494 0 0 1-12.599-10.693 4044.19 4044.19 0 0 1-12.197-10.448c-.485-.414-.967-.83-1.447-1.244-.37-.317-1.246-.812-1.449-1.245-.477-1.014-.425-2.228-.399-3.317l-.057-16.223.052-49.265M370.032 222.141l-13.79 3.784" style="fill:none;stroke:#9500ff;stroke-width:1.99999;stroke-linecap:round;stroke-linejoin:round;stroke-miterlimit:4;stroke-dasharray:none;stroke-opacity:1;visibility:visible" visibility="hidden"/><path d="M350.835 126.297c0 .755-1.825 1.367-4.075 1.367s-4.078-.612-4.078-1.367" style="fill:none;stroke:#9500ff;stroke-width:.999997;stroke-linecap:round;stroke-linejoin:round;stroke-miterlimit:4;stroke-dasharray:none;stroke-opacity:1;visibility:visible" visibility="hidden"/><path d="M350.928 126.25c0-.736-1.78-1.334-3.973-1.334-2.195-.001-3.977.597-3.977 1.334 0 2.095.002 4.189 0 6.282 0 5.09-.003 10.179 0 15.27.005 6.333.002 12.668-.003 19.002-.003 5.896.019 11.789.005 17.684-.008 3.855-.066 7.72.016 11.576.044 2.048.304 3.305 1.706 4.881" style="fill:none;stroke:#9500ff;stroke-width:1.99999;stroke-linecap:round;stroke-linejoin:round;stroke-miterlimit:4;stroke-dasharray:none;stroke-opacity:1;visibility:visible" visibility="hidden"/><path d="M350.952 195.613s-3.75-1.165-5.666 2.084M351.03 128.641c0 .756-1.828 1.367-4.075 1.367-2.253 0-4.079-.61-4.079-1.367" style="fill:none;stroke:#9500ff;stroke-width:.999997;stroke-linecap:round;stroke-linejoin:round;stroke-miterlimit:4;stroke-dasharray:none;stroke-opacity:1;visibility:visible" visibility="hidden"/><path d="m344.44 200.705 14.756 12.51M370.791 223.042a592037.45 592037.45 0 0 0 53.333 45.212" style="fill:none;stroke:#9500ff;stroke-width:1.99999;stroke-linecap:round;stroke-linejoin:round;stroke-miterlimit:4;stroke-dasharray:none;stroke-opacity:1;visibility:visible" visibility="hidden"/><path d="m366.14 213.46 4.35 3.497v5.201M355.848 221.204v4.84M360.78 218.044c0 .408-.836.738-1.864.738-1.029 0-1.865-.33-1.865-.738s.836-.738 1.865-.738c1.028 0 1.864.33 1.864.738" style="fill:none;stroke:#9500ff;stroke-width:.999997;stroke-linecap:round;stroke-linejoin:round;stroke-miterlimit:4;stroke-dasharray:none;stroke-opacity:1;visibility:visible" visibility="hidden"/><path d="m351.955 217.233 14.185-3.772" style="fill:none;stroke:#9500ff;stroke-width:1.99999;stroke-linecap:round;stroke-linejoin:round;stroke-miterlimit:4;stroke-dasharray:none;stroke-opacity:1;visibility:visible" visibility="hidden"/><path d="m356.043 220.995 14.445-4.038M355.63 221.078l-4.282-3.684.607-.16" style="fill:none;stroke:#9500ff;stroke-width:.999997;stroke-linecap:round;stroke-linejoin:round;stroke-miterlimit:4;stroke-dasharray:none;stroke-opacity:1;visibility:visible" visibility="hidden"/><path d="m432.75 277.253-13.275 4.417M351.348 217.394v5.051l4.54 3.365" style="fill:none;stroke:#9500ff;stroke-width:1.99999;stroke-linecap:round;stroke-linejoin:round;stroke-miterlimit:4;stroke-dasharray:none;stroke-opacity:1;visibility:visible" visibility="hidden"/><path d="m428.668 268.35 4.35 3.491.178 5.419M418.93 276.768l.168 5.04M423.543 273.285c.013.427-.787.797-1.79.832-.996.036-1.821-.279-1.834-.704-.016-.424.785-.796 1.785-.833 1-.034 1.823.28 1.839.705" style="fill:none;stroke:#9500ff;stroke-width:.999997;stroke-linecap:round;stroke-linejoin:round;stroke-miterlimit:4;stroke-dasharray:none;stroke-opacity:1;visibility:visible" visibility="hidden"/><path d="M415.007 272.768s13.661-4.415 13.661-4.418" style="fill:none;stroke:#9500ff;stroke-width:1.99999;stroke-linecap:round;stroke-linejoin:round;stroke-miterlimit:4;stroke-dasharray:none;stroke-opacity:1;visibility:visible" visibility="hidden"/><path d="m419.111 276.545 13.907-4.704M418.712 276.644l-4.289-3.69.584-.186" style="fill:none;stroke:#9500ff;stroke-width:.999997;stroke-linecap:round;stroke-linejoin:round;stroke-miterlimit:4;stroke-dasharray:none;stroke-opacity:1;visibility:visible" visibility="hidden"/><path d="m414.423 272.954.061 4.808 4.643 3.8M458.774 288.198l21.866-46.828" style="fill:none;stroke:#9500ff;stroke-width:1.99999;stroke-linecap:round;stroke-linejoin:round;stroke-miterlimit:4;stroke-dasharray:none;stroke-opacity:1;visibility:visible" visibility="hidden"/><path d="M489.86 242.893c-.4.724-2.228 1.016-4.444.639-2.532-.426-4.603-1.558-4.639-2.524" style="fill:none;stroke:#9500ff;stroke-width:.999997;stroke-linecap:round;stroke-linejoin:round;stroke-miterlimit:4;stroke-dasharray:none;stroke-opacity:1;visibility:visible" visibility="hidden"/><path d="M480.925 241.15c-.022-.897 1.97-1.309 4.46-.92 2.493.392 4.53 1.444 4.559 2.343a.556.556 0 0 1-.082.312" style="fill:none;stroke:#9500ff;stroke-width:1.99999;stroke-linecap:round;stroke-linejoin:round;stroke-miterlimit:4;stroke-dasharray:none;stroke-opacity:1;visibility:visible" visibility="hidden"/><path d="M489.272 244.745c-.167.872-2.112 1.25-4.516.847-2.533-.432-4.606-1.56-4.643-2.532" style="fill:none;stroke:#9500ff;stroke-width:.999997;stroke-linecap:round;stroke-linejoin:round;stroke-miterlimit:4;stroke-dasharray:none;stroke-opacity:1;visibility:visible" visibility="hidden"/><path d="m489.819 243.713-23.661 50.937c-.511 2.227-6.508 3.836-8.126 2.462-.05-.046-9.79-8.322-24.121-20.495" style="fill:none;stroke:#9500ff;stroke-width:1.99999;stroke-linecap:round;stroke-linejoin:round;stroke-miterlimit:4;stroke-dasharray:none;stroke-opacity:1;visibility:visible" visibility="hidden"/><path d="m350.928 126.25-8.246.047M350.928 126.25l.102 2.391M350.928 126.25l-8.052 2.391" style="fill:none;stroke:#9500ff;stroke-width:.999997;stroke-linecap:round;stroke-linejoin:round;stroke-miterlimit:4;stroke-dasharray:none;stroke-opacity:1;visibility:visible" visibility="hidden"/><path d="m366.14 213.46-6.944-.245M428.668 268.35l-4.544-.096" style="fill:none;stroke:#9500ff;stroke-width:1.99999;stroke-linecap:round;stroke-linejoin:round;stroke-miterlimit:4;stroke-dasharray:none;stroke-opacity:1;visibility:visible" visibility="hidden"/><path d="m355.848 226.044 4.932-8M355.848 221.204l4.932-3.16M356.242 225.925l14.246-8.968M419.098 281.808l4.445-8.523M418.93 276.768l4.613-3.483M419.475 281.67l13.543-9.829M480.925 241.15l-.812 1.91" style="fill:none;stroke:#9500ff;stroke-width:.999997;stroke-linecap:round;stroke-linejoin:round;stroke-miterlimit:4;stroke-dasharray:none;stroke-opacity:1;visibility:visible" visibility="hidden"/><path d="m162.157 274.416 172.733-48.132M156.864 279.129c-1.911-.001-3.462-.615-3.462-1.373 0-.756 1.551-1.368 3.462-1.368.956 0 1.822.152 2.448.4" style="fill:none;stroke:#ffdf00;stroke-width:.999997;stroke-linecap:round;stroke-linejoin:round;stroke-miterlimit:4;stroke-dasharray:none;stroke-opacity:1;visibility:visible" visibility="hidden"/><path d="M329.567 221.856 155.673 269.98l-7.13 7.949.017.263 4.92 4.406.593-.158 192.991-52.99" style="fill:none;stroke:#ffdf00;stroke-width:1.99999;stroke-linecap:round;stroke-linejoin:round;stroke-miterlimit:4;stroke-dasharray:none;stroke-opacity:1;visibility:visible" visibility="hidden"/><path d="m155.856 270.052 6.096 4.145-8.367 8.667M329.614 221.922l5.276 4.362M334.891 226.284l12.173 3.166M347.064 229.45l-7.986-5.513-4.341.95M334.89 226.284l-.153-1.397" style="fill:none;stroke:#ffdf00;stroke-width:1.99999;stroke-linecap:round;stroke-linejoin:round;stroke-miterlimit:4;stroke-dasharray:none;stroke-opacity:1;visibility:visible" visibility="hidden"/><path d="m252.132 329.68-8.658 13.067" style="fill:none;stroke:red;stroke-width:.999997;stroke-linecap:round;stroke-linejoin:round;stroke-miterlimit:4;stroke-dasharray:none;stroke-opacity:1;visibility:visible"/><path d="m140.738 280.952 12.847 1.912" style="fill:none;stroke:#ffdf00;stroke-width:1.99999;stroke-linecap:round;stroke-linejoin:round;stroke-miterlimit:4;stroke-dasharray:none;stroke-opacity:1;visibility:visible" visibility="hidden"/></svg>