<svg xmlns="http://www.w3.org/2000/svg" baseProfile="full" height="793.701" preserveAspectRatio="xMinYMin meet" style="width:912px;height:1246px" width="559.371" xml:space="preserve"><path d="M284.823 248.625v-10.743M284.823 326.147v-65.288M284.823 348.656v-10.9" style="fill:none;stroke:red;stroke-width:1.99999;stroke-linecap:round;stroke-linejoin:round;stroke-miterlimit:4;stroke-dasharray:none;stroke-opacity:1;visibility:visible"/><path d="M262.092 355.01V242.15M262.092 355.01l22.73-6.355M258.563 350.976l3.53 4.033" style="fill:none;stroke:red;stroke-width:.999997;stroke-linecap:round;stroke-linejoin:round;stroke-miterlimit:4;stroke-dasharray:none;stroke-opacity:1;visibility:visible"/><path d="M258.563 239.049v111.926M275.299 235.792l-7.117 1.385M284.823 237.882l-3.243-2.988" style="fill:none;stroke:red;stroke-width:1.99999;stroke-linecap:round;stroke-linejoin:round;stroke-miterlimit:4;stroke-dasharray:none;stroke-opacity:1;visibility:visible"/><path d="m258.563 239.049 3.53 3.101 22.73-4.268" style="fill:none;stroke:red;stroke-width:.999997;stroke-linecap:round;stroke-linejoin:round;stroke-miterlimit:4;stroke-dasharray:none;stroke-opacity:1;visibility:visible"/><path d="m261.574 238.462-3.012.587" style="fill:none;stroke:red;stroke-width:1.99999;stroke-linecap:round;stroke-linejoin:round;stroke-miterlimit:4;stroke-dasharray:none;stroke-opacity:1;visibility:visible"/><path d="m262.503 238.77.105.64M267.14 232.558a.443.443 0 0 0 .018-.6M262.615 231.956a.421.421 0 0 0-.113.29.43.43 0 0 0 .13.311M262.631 232.558c.199.198.44.348.707.436M263.338 232.994a4.91 4.91 0 0 0 3.092 0M266.43 232.994a1.85 1.85 0 0 0 .71-.436M266.5 231.232a1.296 1.296 0 0 0-.51-.312M265.991 230.918a3.528 3.528 0 0 0-1.108-.182c-.376 0-.75.064-1.108.182M263.775 230.918a1.357 1.357 0 0 0-.509.312M267.14 239.433a.44.44 0 0 0 .128-.308M262.502 239.124a.427.427 0 0 0 .13.308M262.631 239.433c.199.199.44.348.707.437M263.338 239.869a4.844 4.844 0 0 0 3.092 0M266.43 239.869c.265-.088.508-.237.71-.436M263.257 231.243l-.64.712M266.512 231.243l.644.712M262.503 232.245v6.877M267.267 232.245v6.877M276.083 236.16l.105.639M280.72 229.95a.433.433 0 0 0 .014-.6M276.197 229.348a.423.423 0 0 0-.114.292.427.427 0 0 0 .13.308M276.213 229.95c.197.195.44.347.707.434M276.92 230.385a4.9 4.9 0 0 0 3.088 0M280.01 230.385c.268-.087.508-.239.708-.435M280.08 228.622a1.267 1.267 0 0 0-.508-.314M279.573 228.308a3.541 3.541 0 0 0-2.218 0M277.357 228.308a1.313 1.313 0 0 0-.51.314M280.72 236.825a.444.444 0 0 0 .128-.312M276.083 236.512c0 .121.047.23.13.312M276.213 236.825c.197.201.44.35.707.435M276.92 237.26a4.752 4.752 0 0 0 1.541.25 4.78 4.78 0 0 0 1.548-.25M280.01 237.26c.268-.086.508-.234.708-.435M276.836 228.632l-.639.715M280.091 228.632l.643.715M276.083 229.639v6.872M280.848 229.639v6.872M274.155 237.966c0 .518-.862.931-1.925.931-1.063 0-1.928-.413-1.928-.93 0-.516.865-.932 1.927-.932 1.064.001 1.926.417 1.926.931" style="fill:none;stroke:red;stroke-width:.666665;stroke-linecap:round;stroke-linejoin:round;stroke-miterlimit:2;stroke-dasharray:none;stroke-opacity:1;visibility:visible"/><path d="m167.336 475.044 162.925-50.393" style="fill:none;stroke:red;stroke-width:1.99999;stroke-linecap:round;stroke-linejoin:round;stroke-miterlimit:4;stroke-dasharray:none;stroke-opacity:1;visibility:visible"/><path d="m104.937 387.495-6.001-8.505M362.43 427.5l-187.528 59.148-7.728-10.955" style="fill:none;stroke:red;stroke-width:.999997;stroke-linecap:round;stroke-linejoin:round;stroke-miterlimit:4;stroke-dasharray:none;stroke-opacity:1;visibility:visible"/><path d="m174.902 500.115 187.528-59.464v-13.15M104.447 398.362l-5.51-7.932M174.902 499.802l-7.74-11.145" style="fill:none;stroke:red;stroke-width:1.99999;stroke-linecap:round;stroke-linejoin:round;stroke-miterlimit:4;stroke-dasharray:none;stroke-opacity:1;visibility:visible"/><path d="M174.902 500.115v-13.467" style="fill:none;stroke:red;stroke-width:.999997;stroke-linecap:round;stroke-linejoin:round;stroke-miterlimit:4;stroke-dasharray:none;stroke-opacity:1;visibility:visible"/><path d="M167.336 488.51v-13.467M98.936 390.742v-11.753" style="fill:none;stroke:red;stroke-width:1.99999;stroke-linecap:round;stroke-linejoin:round;stroke-miterlimit:4;stroke-dasharray:none;stroke-opacity:1;visibility:visible"/><path d="M105.034 398.662v-11.75M265.776 362.291l57.68 63.772" style="fill:none;stroke:red;stroke-width:.999997;stroke-linecap:round;stroke-linejoin:round;stroke-miterlimit:4;stroke-dasharray:none;stroke-opacity:1;visibility:visible"/><path d="m282.911 357.703 47.144 51.196" style="fill:none;stroke:red;stroke-width:1.99999;stroke-linecap:round;stroke-linejoin:round;stroke-miterlimit:4;stroke-dasharray:none;stroke-opacity:1;visibility:visible"/><path d="M265.776 367.666v-5.375l17.136-4.589" style="fill:none;stroke:red;stroke-width:.999997;stroke-linecap:round;stroke-linejoin:round;stroke-miterlimit:4;stroke-dasharray:none;stroke-opacity:1;visibility:visible"/><path d="m319.383 427.542-53.607-59.876M362.43 427.5l-2.688-2.599M158.042 391.54l53.255 69.013" style="fill:none;stroke:red;stroke-width:1.99999;stroke-linecap:round;stroke-linejoin:round;stroke-miterlimit:4;stroke-dasharray:none;stroke-opacity:1;visibility:visible"/><path d="m173.053 383.1-15.012 3.05v5.389" style="fill:none;stroke:red;stroke-width:.999997;stroke-linecap:round;stroke-linejoin:round;stroke-miterlimit:4;stroke-dasharray:none;stroke-opacity:1;visibility:visible"/><path d="m230.971 455.597-57.917-72.496" style="fill:none;stroke:red;stroke-width:1.99999;stroke-linecap:round;stroke-linejoin:round;stroke-miterlimit:4;stroke-dasharray:none;stroke-opacity:1;visibility:visible"/><path d="m158.042 386.151 57.025 73.664" style="fill:none;stroke:red;stroke-width:.999997;stroke-linecap:round;stroke-linejoin:round;stroke-miterlimit:4;stroke-dasharray:none;stroke-opacity:1;visibility:visible"/><path d="M287.135 362.291c9.35-2.805 32.096-8.776 37.275-10.628 1.179-.42 3.429-1.068 5.713-1.903M359.35 338.723c37.104-13.818 90.417-33.778 101.48-37.889 3.746-1.392 4.352-3.821 4.352-5.341v-10.93M266.307 368.849c-5.805 1.585-11.825 3.384-16.59 4.601-12.437 3.183-40.515 10.577-71.17 16.427M158.44 393.258c-18.048 2.867-36.51 4.976-53.407 5.404" style="fill:none;stroke:red;stroke-width:1.99999;stroke-linecap:round;stroke-linejoin:round;stroke-miterlimit:4;stroke-dasharray:none;stroke-opacity:1;visibility:visible"/><path d="M465.005 284.382c.315 1.796-.833 3.76-4.175 4.959-11.095 3.973-64.27 23.935-101.352 37.797M330.103 338.267c-2.277.836-4.517 1.486-5.693 1.908-14.524 5.183-52.39 16.08-74.693 21.786-22.307 5.705-91.295 23.858-144.684 25.209" style="fill:none;stroke:red;stroke-width:.999997;stroke-linecap:round;stroke-linejoin:round;stroke-miterlimit:4;stroke-dasharray:none;stroke-opacity:1;visibility:visible"/><path d="M99.257 378.949c53.388-1.35 124.401-20.44 146.706-26.144 3.668-.94 7.762-2.02 12.1-3.19M285.191 342.017c14.463-4.187 28.027-8.343 35.469-11 1.694-.604 6.45-2.332 10.301-3.75M359.443 316.644c5.999-2.24 12.339-4.602 18.795-7.014M382.368 308.09c10.218-3.812 20.596-7.69 30.239-11.29M417.322 295.036c10.306-3.85 19.548-7.306 26.54-9.912M448.458 283.413c2.91-1.084 5.19-1.93 6.705-2.493 5.05-1.871 9.336.577 9.843 3.462" style="fill:none;stroke:red;stroke-width:1.99999;stroke-linecap:round;stroke-linejoin:round;stroke-miterlimit:4;stroke-dasharray:none;stroke-opacity:1;visibility:visible"/><path d="m413.358 299.712-3.352 1.252c-.796.236-1.346.742-1.354 1.333-.012.84 1.063 1.536 2.408 1.557a3.693 3.693 0 0 0 1.032-.124l8.62-3.236c.792-.237 1.338-.74 1.348-1.332.015-.836-1.062-1.532-2.402-1.552a3.824 3.824 0 0 0-.948.1l-1.6.6M443.903 288.26l-2.888 1.045c-.793.232-1.35.733-1.361 1.324-.022.836 1.046 1.547 2.389 1.579.367.009.72-.032 1.035-.12l8.648-3.148c.797-.23 1.353-.727 1.368-1.32.018-.834-1.052-1.541-2.396-1.577a3.67 3.67 0 0 0-.946.097l-1.71.62M378.532 312.469l-3.944 1.455c-.797.236-1.35.736-1.36 1.329-.015.837 1.054 1.539 2.399 1.567.37.005.718-.04 1.034-.126l8.637-3.19c.792-.231 1.341-.731 1.356-1.326.012-.838-1.06-1.538-2.398-1.565a3.648 3.648 0 0 0-.952.101l-1.08.396" style="fill:none;stroke:red;stroke-width:.999997;stroke-linecap:round;stroke-linejoin:round;stroke-miterlimit:4;stroke-dasharray:none;stroke-opacity:1;visibility:visible"/><path d="M359.267 425.068V276.716" style="fill:none;stroke:red;stroke-width:1.99999;stroke-linecap:round;stroke-linejoin:round;stroke-miterlimit:4;stroke-dasharray:none;stroke-opacity:1;visibility:visible"/><path d="M334.622 432.737V281.341M334.622 432.737l24.644-7.67M330.794 428.36l3.828 4.377" style="fill:none;stroke:red;stroke-width:.999997;stroke-linecap:round;stroke-linejoin:round;stroke-miterlimit:4;stroke-dasharray:none;stroke-opacity:1;visibility:visible"/><path d="M330.794 277.977v150.382M348.965 274.445l-7.845 1.525M359.267 276.716l-3.624-3.344" style="fill:none;stroke:red;stroke-width:1.99999;stroke-linecap:round;stroke-linejoin:round;stroke-miterlimit:4;stroke-dasharray:none;stroke-opacity:1;visibility:visible"/><path d="m330.794 277.977 3.828 3.363 24.644-4.624" style="fill:none;stroke:red;stroke-width:.999997;stroke-linecap:round;stroke-linejoin:round;stroke-miterlimit:4;stroke-dasharray:none;stroke-opacity:1;visibility:visible"/><path d="m334.082 277.341-3.288.636" style="fill:none;stroke:red;stroke-width:1.99999;stroke-linecap:round;stroke-linejoin:round;stroke-miterlimit:4;stroke-dasharray:none;stroke-opacity:1;visibility:visible"/><path d="m335.068 277.677.115.693M340.092 270.94a.477.477 0 0 0 .018-.652M335.188 270.286a.476.476 0 0 0 .015.652M335.202 270.94c.217.216.48.376.77.474M335.972 271.414a5.315 5.315 0 0 0 1.678.27c.57 0 1.136-.09 1.674-.27M339.323 271.414c.288-.098.55-.258.77-.474M339.4 269.502a1.413 1.413 0 0 0-.55-.341M338.85 269.162a3.776 3.776 0 0 0-1.2-.192 3.777 3.777 0 0 0-1.203.192M336.447 269.162a1.39 1.39 0 0 0-.55.342M340.092 278.396a.48.48 0 0 0 .138-.34M335.066 278.057a.48.48 0 0 0 .136.34M335.202 278.396c.217.214.48.376.77.472M335.972 278.869a5.28 5.28 0 0 0 1.678.27 5.248 5.248 0 0 0 1.674-.269M339.323 278.869a2.01 2.01 0 0 0 .77-.472M335.885 269.512l-.696.773M339.414 269.512l.696.773M335.068 270.6v7.456M340.23 270.6v7.456M349.79 274.847l.115.695M354.814 268.112a.47.47 0 0 0 .024-.652M349.912 267.46a.463.463 0 0 0 .018.65M349.93 268.112c.214.214.477.378.766.472M350.696 268.584a5.365 5.365 0 0 0 1.678.274 5.36 5.36 0 0 0 1.676-.274M354.05 268.584c.29-.094.552-.258.764-.472M354.127 266.672a1.472 1.472 0 0 0-.553-.339M353.572 266.334a3.738 3.738 0 0 0-1.198-.194c-.408 0-.815.064-1.202.194M351.172 266.334a1.481 1.481 0 0 0-.556.339M354.814 275.565a.463.463 0 0 0 .142-.333M349.79 275.232c0 .125.052.246.14.333M349.93 275.565c.214.215.477.38.766.473M350.696 276.04a5.177 5.177 0 0 0 1.678.273c.57 0 1.136-.088 1.676-.273M354.05 276.04c.29-.094.552-.26.764-.474M350.61 266.686l-.695.773M354.142 266.686l.696.773M349.79 267.774v7.457M354.958 267.774v7.457M347.7 276.806c0 .559-.937 1.012-2.086 1.012-1.154 0-2.09-.453-2.09-1.012 0-.556.936-1.01 2.09-1.01 1.15 0 2.086.454 2.086 1.01" style="fill:none;stroke:red;stroke-width:.666665;stroke-linecap:round;stroke-linejoin:round;stroke-miterlimit:2;stroke-dasharray:none;stroke-opacity:1;visibility:visible"/><path d="M264.884 233.244v6.75M278.465 230.735v6.75M337.648 272.023v6.75M352.542 269.16v6.75M280.32 250.865l4.119 1.296M285.809 253.116l.008.01.016.018a.11.11 0 0 0 .012.025l.017.032.013.04a.203.203 0 0 0 .015.043.245.245 0 0 1 .004.044c.004.014.003.029.008.044-.003.013-.001.026-.003.04.001.013-.002.022-.005.034.003.007-.001.015 0 .02M286.923 253.282a.783.783 0 0 0-.2-.702M286.878 259.599l.047-6.317M286.724 252.578l-3.073-3.285M285.49 252.77l.32.344M279.833 249.858l-.024.003-.052.02a.612.612 0 0 0-.05.027c-.014.009-.027.022-.044.034a.203.203 0 0 0-.041.042c-.017.014-.028.032-.04.048-.01.017-.017.034-.032.056-.01.021-.02.04-.025.062a.352.352 0 0 0-.023.07c-.005.009-.005.02-.01.032M280.011 250.706l.035.026.065.042c.027.012.047.026.074.036a.588.588 0 0 0 .075.034c.018.008.039.013.059.021M284.44 252.161l.062.024.124.044.119.05c.037.016.075.032.112.051a2.04 2.04 0 0 1 .108.055c.034.019.068.04.104.059.033.021.065.04.097.062.03.02.061.04.09.064.028.02.054.042.082.063.029.021.053.045.079.067.025.02.045.042.065.062a.026.026 0 0 1 .008.008M282.945 249.075l-3.112.779M279.973 250.682h.002l.019.01a.085.085 0 0 0 .016.016M279.974 250.681h0M285.963 260.497l.03.028.054.045.055.031a.263.263 0 0 0 .056.024c.017.007.036.01.053.015a.488.488 0 0 0 .056.009.263.263 0 0 0 .056-.001l.037-.008M279.493 250.252l-.5 2.265-.113.508.074 2.176s.172 1.05.408 1.785l3.443-1.061M286.362 260.64l.317-.065M279.906 257.405l4.227 1.696M286.68 260.577c.28-.045.146-.696.197-.975M285.182 259.71l.781.787" style="fill:none;stroke:red;stroke-width:.666665;stroke-linecap:round;stroke-linejoin:round;stroke-miterlimit:4;stroke-dasharray:none;stroke-opacity:1;visibility:visible"/><path d="M279.362 256.985a.543.543 0 0 0 .044.064c.015.021.032.041.048.061.004.006.007.01.013.014M279.52 257.177l.028.028c.017.019.039.035.058.05l.065.041a.561.561 0 0 0 .069.04c.023.014.05.024.073.036l.072.028.02.006M284.133 259.102c.017.008.041.014.064.024.04.012.08.027.12.042l.12.049c.036.019.073.035.113.053a8.627 8.627 0 0 1 .107.056l.102.058a2.472 2.472 0 0 1 .186.125c.032.021.058.043.085.064.028.023.056.044.08.065a2.96 2.96 0 0 0 .065.064l.007.008M283.65 249.294a.767.767 0 0 0-.705-.217M279.467 257.124l.052.052M285.893 253.464l-.105 6.015M283.777 255.529l.063.09.064.087.068.075.072.067.07.054.074.048.072.035.072.027.072.013.072.001.068-.009.065-.019.065-.03.06-.042.058-.05.052-.062.052-.072.038-.081.039-.088.033-.096.027-.103.021-.11.016-.116.007-.119.001-.123-.005-.126-.013-.127-.014-.13-.024-.127-.029-.126-.035-.124-.04-.122-.046-.118-.052-.11-.052-.108-.06-.098-.063-.093-.064-.087-.067-.074" style="fill:none;stroke:red;stroke-width:.666665;stroke-linecap:round;stroke-linejoin:round;stroke-miterlimit:4;stroke-dasharray:none;stroke-opacity:1;visibility:visible"/><path d="m284.71 253.587-.063-.09-.064-.087-.068-.075-.072-.067-.07-.054-.074-.048-.072-.035-.072-.027-.072-.013-.072-.001-.068.009-.065.019-.065.03-.06.042-.058.05-.052.062-.052.072-.038.081-.039.088-.033.096-.027.103-.021.11-.016.116-.007.119-.001.123.005.126.013.127.014.13.024.127.029.126.035.124.04.122.046.118.052.11.052.108.06.098.063.093.064.087.067.074" style="fill:none;stroke:red;stroke-width:.666665;stroke-linecap:round;stroke-linejoin:round;stroke-miterlimit:4;stroke-dasharray:none;stroke-opacity:1;visibility:visible"/><path d="m284.514 253.336-.07-.068-.071-.055-.074-.046-.074-.035-.07-.027-.072-.013-.072-.004-.069.01-.067.02-.062.029-.062.044-.058.052-.051.061-.05.07-.043.082-.036.09-.035.095-.025.104-.022.108-.014.115M285.802 259.089l-2.997-3.165M282.89 251.798l-.047 4.125M280.32 327.824l4.119 1.296M285.809 330.074l.008.01.016.019a.11.11 0 0 0 .012.024l.017.033.013.04a.203.203 0 0 0 .015.042.245.245 0 0 1 .004.044c.004.015.003.03.008.044-.003.013-.001.027-.003.04.001.013-.002.023-.005.035.003.005-.001.014 0 .02M286.923 330.242a.783.783 0 0 0-.2-.702M286.878 336.559l.047-6.317M286.724 329.538l-3.073-3.285M285.49 329.73l.32.344M279.833 326.817l-.024.002-.052.021a.612.612 0 0 0-.05.026l-.044.035a.203.203 0 0 0-.041.041c-.017.015-.028.032-.04.048-.01.017-.017.035-.032.056-.01.022-.02.04-.025.064a.352.352 0 0 0-.023.069c-.005.008-.005.019-.01.031M280.011 327.666l.035.026.065.041c.027.013.047.027.074.037a.588.588 0 0 0 .075.034c.018.007.039.012.059.019M284.44 329.12l.062.026.124.043.119.05c.037.016.075.032.112.051a2.04 2.04 0 0 1 .108.055c.034.018.068.04.104.058.033.022.065.041.097.063.03.02.061.04.09.064.028.02.054.042.082.063.029.021.053.045.079.066.025.021.045.043.065.063.005.003.008.008.008.008M282.945 326.035l-3.112.779M279.973 327.642h.002l.019.01a.085.085 0 0 0 .016.016M279.974 327.64h0M278.88 329.983l.072 2.177s.173 1.047.408 1.785l3.443-1.062M279.492 327.21l-.5 2.265M285.963 337.457l.03.028.054.045.055.03a.263.263 0 0 0 .056.026l.053.013a.488.488 0 0 0 .056.011.263.263 0 0 0 .056-.003l.037-.007M286.362 337.6l.317-.065M279.906 334.365l4.227 1.696M286.68 337.535c.28-.045.146-.695.197-.974M285.182 336.67l.781.787M279.362 333.945a.543.543 0 0 0 .044.064c.015.021.032.041.048.061.004.005.007.01.013.013M279.52 334.137l.028.028c.017.018.039.034.058.05l.065.041a.561.561 0 0 0 .069.039c.023.015.05.026.073.036l.072.029.02.006M284.133 336.062c.017.008.041.013.064.024.04.012.08.027.12.041l.12.05c.036.018.073.033.113.053a8.627 8.627 0 0 1 .107.056l.102.057a2.472 2.472 0 0 1 .186.127 2.027 2.027 0 0 1 .165.128 2.96 2.96 0 0 0 .065.064l.007.008M283.65 326.253a.767.767 0 0 0-.705-.217M279.467 334.083l.052.052M285.893 330.423l-.105 6.015M283.777 332.488l.063.09.064.087.068.075.072.067.07.054.074.048.072.035.072.027.072.013.072.001.068-.009.065-.019.065-.03.06-.042.058-.05.052-.062.052-.072.038-.081.039-.088.033-.096.027-.103.021-.11.016-.116.007-.119.001-.123-.005-.126-.013-.127-.014-.13-.024-.127-.029-.126-.035-.124-.04-.122-.046-.118-.052-.11-.052-.108-.06-.098-.063-.093-.064-.087-.067-.074" style="fill:none;stroke:red;stroke-width:.666665;stroke-linecap:round;stroke-linejoin:round;stroke-miterlimit:4;stroke-dasharray:none;stroke-opacity:1;visibility:visible"/><path d="m284.71 330.547-.063-.09-.064-.087-.068-.075-.072-.067-.07-.054-.074-.048-.072-.035-.072-.027-.072-.013-.072-.001-.068.009-.065.019-.065.03-.06.042-.058.05-.052.062-.052.072-.038.081-.039.088-.033.096-.027.103-.021.11-.016.116-.007.119-.001.123.005.126.013.127.014.13.024.127.029.126.035.124.04.122.046.118.052.11.052.108.06.098.063.093.064.087.067.074" style="fill:none;stroke:red;stroke-width:.666665;stroke-linecap:round;stroke-linejoin:round;stroke-miterlimit:4;stroke-dasharray:none;stroke-opacity:1;visibility:visible"/><path d="m284.514 330.296-.07-.068-.071-.055-.074-.046-.074-.035-.07-.027-.072-.013-.072-.004-.069.01-.067.02-.062.029-.062.044-.058.052-.051.061-.05.07-.043.082-.036.09-.035.095-.025.104-.022.108-.014.115M285.802 336.048l-2.997-3.165M282.89 328.758l-.047 4.125" style="fill:none;stroke:red;stroke-width:.666665;stroke-linecap:round;stroke-linejoin:round;stroke-miterlimit:4;stroke-dasharray:none;stroke-opacity:1;visibility:visible"/><path d="m282.89 251.798 1.933-3.173M282.89 328.758l1.933-2.611M285.788 259.479l-.965 1.38M285.788 336.438l-.965 1.318" style="fill:none;stroke:red;stroke-width:1.99999;stroke-linecap:round;stroke-linejoin:round;stroke-miterlimit:4;stroke-dasharray:none;stroke-opacity:1;visibility:visible"/><path d="m262.503 239.122-.411 3.028" style="fill:none;stroke:red;stroke-width:.999997;stroke-linecap:round;stroke-linejoin:round;stroke-miterlimit:4;stroke-dasharray:none;stroke-opacity:1;visibility:visible"/><path d="m261.574 238.462 6.608-1.285M276.213 236.824l5.367-1.93" style="fill:none;stroke:red;stroke-width:1.99999;stroke-linecap:round;stroke-linejoin:round;stroke-miterlimit:4;stroke-dasharray:none;stroke-opacity:1;visibility:visible"/><path d="m276.083 236.511-1.928 1.455M276.083 236.512l-1.928 1.454" style="fill:none;stroke:red;stroke-width:.666665;stroke-linecap:round;stroke-linejoin:round;stroke-miterlimit:2;stroke-dasharray:none;stroke-opacity:1;visibility:visible"/><path d="m334.622 432.737-4.361-8.086" style="fill:none;stroke:red;stroke-width:1.99999;stroke-linecap:round;stroke-linejoin:round;stroke-miterlimit:4;stroke-dasharray:none;stroke-opacity:1;visibility:visible"/><path d="m167.336 488.51 7.566-1.862M262.092 355.01l3.684 7.281M330.794 428.36l-7.338-2.297" style="fill:none;stroke:red;stroke-width:.999997;stroke-linecap:round;stroke-linejoin:round;stroke-miterlimit:4;stroke-dasharray:none;stroke-opacity:1;visibility:visible"/><path d="m330.794 428.36-.74-19.461M330.794 428.36l-11.411-.818M282.912 357.702l4.223 4.589M262.092 355.01l4.215 13.839M173.053 383.1l5.494 6.777M262.092 355.01l-4.029-5.395M286.68 337.535l-1.489 4.482M378.532 312.469l-19.089 4.175M382.224 311.11l-3.986-1.48M378.238 309.63l4.13-1.54M417.11 298.31l-4.503-1.51M412.607 296.8l4.715-1.764M448.042 286.76l-4.18-1.636M443.862 285.124l4.596-1.711" style="fill:none;stroke:red;stroke-width:1.99999;stroke-linecap:round;stroke-linejoin:round;stroke-miterlimit:4;stroke-dasharray:none;stroke-opacity:1;visibility:visible"/><path d="m417.322 295.036-3.964 4.676M412.607 296.8l4.503 1.51M448.458 283.413l-4.555 4.847M443.862 285.124l4.18 1.636M382.368 308.09l-3.836 4.379M378.238 309.63l3.986 1.48M335.068 278.056l-.446 3.285" style="fill:none;stroke:red;stroke-width:.999997;stroke-linecap:round;stroke-linejoin:round;stroke-miterlimit:4;stroke-dasharray:none;stroke-opacity:1;visibility:visible"/><path d="m334.082 277.341 7.038-1.37M349.93 275.565l5.713-2.193M341.12 275.97l-7.038 1.371" style="fill:none;stroke:red;stroke-width:1.99999;stroke-linecap:round;stroke-linejoin:round;stroke-miterlimit:4;stroke-dasharray:none;stroke-opacity:1;visibility:visible"/><path d="m349.79 275.231-2.09 1.575M349.79 275.232l-2.09 1.574" style="fill:none;stroke:red;stroke-width:.666665;stroke-linecap:round;stroke-linejoin:round;stroke-miterlimit:2;stroke-dasharray:none;stroke-opacity:1;visibility:visible"/><path d="m262.503 239.122 2.381-5.878M262.502 239.124l2.382.87M276.083 236.511l2.382-5.776M276.083 236.512l2.382.974M335.068 278.056l2.58-6.033M335.066 278.057l2.582.717M354.958 275.231l-2.416-6.071M354.956 275.232l-2.414.679M286.877 259.602l-3.46-5.634M284.823 248.625l-1.933 3.173M286.877 336.561l-3.46-5.633M284.823 326.147l-1.933 2.611" style="fill:none;stroke:red;stroke-width:.666665;stroke-linecap:round;stroke-linejoin:round;stroke-miterlimit:4;stroke-dasharray:none;stroke-opacity:1;visibility:visible"/><path d="M447.298 177.593c0 .422-.704.759-1.572.759-.866 0-1.567-.337-1.567-.759 0-.418.701-.757 1.567-.757.868 0 1.572.339 1.572.757" style="fill:none;stroke:#00ff4a;stroke-width:.666665;stroke-linecap:round;stroke-linejoin:round;stroke-miterlimit:2;stroke-dasharray:none;stroke-opacity:1;visibility:visible" visibility="hidden"/><path d="M455.719 267.073c-.35-3.781-.396-13.685-.396-30.056 0-41.623 1.867-55.85 1.867-55.85M437.993 273.428l17.727-6.356" style="fill:none;stroke:#00ff4a;stroke-width:1.99999;stroke-linecap:round;stroke-linejoin:round;stroke-miterlimit:4;stroke-dasharray:none;stroke-opacity:1;visibility:visible" visibility="hidden"/><path d="M437.239 272.518c-.327-4.401-.96-15.616-.96-32.51 0-42.438 1.711-54.801 1.711-54.801" style="fill:none;stroke:#00ff4a;stroke-width:.999997;stroke-linecap:round;stroke-linejoin:round;stroke-miterlimit:4;stroke-dasharray:none;stroke-opacity:1;visibility:visible" visibility="hidden"/><path d="m433.96 269.072 4.032 4.356M435.01 182.163s-1.447 14.789-1.722 56.411c-.128 19.486.242 27.496.672 30.5M457.19 181.166l-2.979-3.196" style="fill:none;stroke:#00ff4a;stroke-width:1.99999;stroke-linecap:round;stroke-linejoin:round;stroke-miterlimit:4;stroke-dasharray:none;stroke-opacity:1;visibility:visible" visibility="hidden"/><path d="m435.012 182.007 2.981 3.043 19.198-3.884" style="fill:none;stroke:#00ff4a;stroke-width:.999997;stroke-linecap:round;stroke-linejoin:round;stroke-miterlimit:4;stroke-dasharray:none;stroke-opacity:1;visibility:visible" visibility="hidden"/><path d="m438.917 181.187-3.905.82M454.21 177.97l-1.803.381" style="fill:none;stroke:#00ff4a;stroke-width:1.99999;stroke-linecap:round;stroke-linejoin:round;stroke-miterlimit:4;stroke-dasharray:none;stroke-opacity:1;visibility:visible" visibility="hidden"/><path d="M450.719 178.356c.779-.09 1.315-.488 1.323-1.07.012-.819-1.04-1.692-2.35-1.957a3.71 3.71 0 0 0-.928-.066l-8.501 1.634c-.78.09-1.315.488-1.327 1.068-.008.823 1.044 1.699 2.352 1.963.362.07.706.092 1.014.06l8.417-1.632" style="fill:none;stroke:#00ff4a;stroke-width:.999997;stroke-linecap:round;stroke-linejoin:round;stroke-miterlimit:4;stroke-dasharray:none;stroke-opacity:1;visibility:visible" visibility="hidden"/><path d="M452.04 177.287v2.74c-.008.581-.544.977-1.322 1.069l-8.418 1.629a3.377 3.377 0 0 1-1.013-.058c-1.31-.262-2.36-1.14-2.352-1.962v-2.74M452.066 268.762v2.734c-.012.581-.547 1.048-1.327 1.246l-8.439 2.79a3.483 3.483 0 0 1-1.008.081c-1.32-.081-2.372-.813-2.361-1.636" style="fill:none;stroke:#00ff4a;stroke-width:.999997;stroke-linecap:round;stroke-linejoin:round;stroke-miterlimit:4;stroke-dasharray:none;stroke-opacity:1;visibility:visible" visibility="hidden"/><path d="m452.04 177.287-4.742.306" style="fill:none;stroke:#00ff4a;stroke-width:.666665;stroke-linecap:round;stroke-linejoin:round;stroke-miterlimit:2;stroke-dasharray:none;stroke-opacity:1;visibility:visible" visibility="hidden"/><path d="m452.066 268.762-14.827 3.756" style="fill:none;stroke:#00ff4a;stroke-width:.999997;stroke-linecap:round;stroke-linejoin:round;stroke-miterlimit:4;stroke-dasharray:none;stroke-opacity:1;visibility:visible" visibility="hidden"/><path d="m452.407 178.351-13.49 2.836M450.719 178.356l1.688-.005" style="fill:none;stroke:#00ff4a;stroke-width:1.99999;stroke-linecap:round;stroke-linejoin:round;stroke-miterlimit:4;stroke-dasharray:none;stroke-opacity:1;visibility:visible" visibility="hidden"/><path d="m457.19 181.167-6.471-2.811M452.407 178.351l-1.688.005M447.298 177.593l4.742-.306M447.298 177.593l-8.363.372M437.239 272.518l14.827-3.756" style="fill:none;stroke:#00ff4a;stroke-width:.999997;stroke-linecap:round;stroke-linejoin:round;stroke-miterlimit:4;stroke-dasharray:none;stroke-opacity:1;visibility:visible" visibility="hidden"/><path d="M414.974 184.407c0 .42-.704.758-1.572.758-.866 0-1.567-.337-1.567-.758 0-.42.701-.758 1.567-.758.868.001 1.572.339 1.572.758" style="fill:none;stroke:#9500ff;stroke-width:.666665;stroke-linecap:round;stroke-linejoin:round;stroke-miterlimit:2;stroke-dasharray:none;stroke-opacity:1;visibility:visible" visibility="hidden"/><path d="M424.643 278.1c-.455-3.107-.881-11.451-.881-31.816 0-43.618 1.96-58.53 1.96-58.53M405.602 285.442l19.081-6.707" style="fill:none;stroke:#9500ff;stroke-width:1.99999;stroke-linecap:round;stroke-linejoin:round;stroke-miterlimit:4;stroke-dasharray:none;stroke-opacity:1;visibility:visible" visibility="hidden"/><path d="M405.6 285.444s-1.79-12.464-1.79-56.938c0-44.474 1.79-36.486 1.79-36.486" style="fill:none;stroke:#9500ff;stroke-width:.999997;stroke-linecap:round;stroke-linejoin:round;stroke-miterlimit:4;stroke-dasharray:none;stroke-opacity:1;visibility:visible" visibility="hidden"/><path d="m401.327 279.937 4.275 5.505M402.475 188.83s-1.523 15.466-1.803 59.085c-.125 18.837.195 27.625.6 31.534M401.272 279.449c.018.172.036.336.054.49M425.723 187.752l-3.13-3.347" style="fill:none;stroke:#9500ff;stroke-width:1.99999;stroke-linecap:round;stroke-linejoin:round;stroke-miterlimit:4;stroke-dasharray:none;stroke-opacity:1;visibility:visible" visibility="hidden"/><path d="m402.477 188.666 3.125 3.187 20.122-4.102" style="fill:none;stroke:#9500ff;stroke-width:.999997;stroke-linecap:round;stroke-linejoin:round;stroke-miterlimit:4;stroke-dasharray:none;stroke-opacity:1;visibility:visible" visibility="hidden"/><path d="m406.896 187.731-4.419.935M422.594 184.406l-1.979.42" style="fill:none;stroke:#9500ff;stroke-width:1.99999;stroke-linecap:round;stroke-linejoin:round;stroke-miterlimit:4;stroke-dasharray:none;stroke-opacity:1;visibility:visible" visibility="hidden"/><path d="M419.186 184.983c.792-.096 1.336-.5 1.344-1.091.017-.837-1.058-1.73-2.398-2a3.72 3.72 0 0 0-.945-.067l-8.677 1.666c-.794.096-1.338.502-1.35 1.092-.01.837 1.06 1.734 2.4 2 .368.077.716.095 1.032.063l8.594-1.663" style="fill:none;stroke:#9500ff;stroke-width:.999997;stroke-linecap:round;stroke-linejoin:round;stroke-miterlimit:4;stroke-dasharray:none;stroke-opacity:1;visibility:visible" visibility="hidden"/><path d="M420.53 183.892v2.793c-.008.595-.552.999-1.344 1.095l-8.594 1.66a3.55 3.55 0 0 1-1.032-.059c-1.338-.268-2.41-1.161-2.398-2.001v-2.796M420.562 280.22v2.79c-.008.592-.56 1.07-1.35 1.274l-8.612 2.84a3.49 3.49 0 0 1-1.031.083c-1.346-.082-2.421-.831-2.408-1.669" style="fill:none;stroke:#9500ff;stroke-width:.999997;stroke-linecap:round;stroke-linejoin:round;stroke-miterlimit:4;stroke-dasharray:none;stroke-opacity:1;visibility:visible" visibility="hidden"/><path d="m405.6 192.02 9.374-7.613M420.53 183.892l-5.556.515" style="fill:none;stroke:#9500ff;stroke-width:.666665;stroke-linecap:round;stroke-linejoin:round;stroke-miterlimit:2;stroke-dasharray:none;stroke-opacity:1;visibility:visible" visibility="hidden"/><path d="m420.615 184.826-13.719 2.905" style="fill:none;stroke:#9500ff;stroke-width:1.99999;stroke-linecap:round;stroke-linejoin:round;stroke-miterlimit:4;stroke-dasharray:none;stroke-opacity:1;visibility:visible" visibility="hidden"/><path d="m425.724 187.751-6.538-2.768M420.615 184.826l-1.429.157M405.6 192.02l1.562-7.436" style="fill:none;stroke:#9500ff;stroke-width:.999997;stroke-linecap:round;stroke-linejoin:round;stroke-miterlimit:4;stroke-dasharray:none;stroke-opacity:1;visibility:visible" visibility="hidden"/><path d="M380.923 191.175c0 .42-.704.758-1.572.758-.865 0-1.567-.337-1.567-.758 0-.42.702-.758 1.567-.758.868 0 1.572.339 1.572.758" style="fill:none;stroke:#ffdf00;stroke-width:.666665;stroke-linecap:round;stroke-linejoin:round;stroke-miterlimit:2;stroke-dasharray:none;stroke-opacity:1;visibility:visible" visibility="hidden"/><path d="m371.08 298.316 21.203-7.456s-2.061-9.887-2.061-55.86 2.062-40.45 2.062-40.45" style="fill:none;stroke:#ffdf00;stroke-width:1.99999;stroke-linecap:round;stroke-linejoin:round;stroke-miterlimit:4;stroke-dasharray:none;stroke-opacity:1;visibility:visible" visibility="hidden"/><path d="M371.08 298.316s-1.89-13.138-1.89-60.014c.001-46.869 1.89-39.07 1.89-39.07" style="fill:none;stroke:#ffdf00;stroke-width:.999997;stroke-linecap:round;stroke-linejoin:round;stroke-miterlimit:4;stroke-dasharray:none;stroke-opacity:1;visibility:visible" visibility="hidden"/><path d="M367.788 196.025s-1.6-5.28-1.902 40.693c-.3 45.972 1.902 57.206 1.902 57.206l3.292 4.392M392.286 194.548l-3.295-3.373" style="fill:none;stroke:#ffdf00;stroke-width:1.99999;stroke-linecap:round;stroke-linejoin:round;stroke-miterlimit:4;stroke-dasharray:none;stroke-opacity:1;visibility:visible" visibility="hidden"/><path d="m367.79 195.856 3.292 3.203 21.205-4.511" style="fill:none;stroke:#ffdf00;stroke-width:.999997;stroke-linecap:round;stroke-linejoin:round;stroke-miterlimit:4;stroke-dasharray:none;stroke-opacity:1;visibility:visible" visibility="hidden"/><path d="m370.897 195.169-3.108.688M372.065 194.91l-1.168.257M388.992 191.174l-2.435.537" style="fill:none;stroke:#ffdf00;stroke-width:1.99999;stroke-linecap:round;stroke-linejoin:round;stroke-miterlimit:4;stroke-dasharray:none;stroke-opacity:1;visibility:visible" visibility="hidden"/><path d="M384.855 191.966c.813-.096 1.375-.516 1.384-1.126.015-.862-1.09-1.781-2.468-2.056a3.887 3.887 0 0 0-.972-.072l-8.939 1.718c-.82.098-1.382.514-1.39 1.123-.018.864 1.09 1.787 2.469 2.061.377.081.739.096 1.061.066l8.855-1.714" style="fill:none;stroke:#ffdf00;stroke-width:.999997;stroke-linecap:round;stroke-linejoin:round;stroke-miterlimit:4;stroke-dasharray:none;stroke-opacity:1;visibility:visible" visibility="hidden"/><path d="M386.239 190.839v2.88c-.01.611-.57 1.029-1.384 1.126L376 196.56a3.68 3.68 0 0 1-1.062-.066c-1.378-.274-2.488-1.196-2.468-2.06v-2.879M385.814 293.188l.369 2.856c.072.608-.435 1.093-1.23 1.294l-8.558 2.834a3.576 3.576 0 0 1-1.061.077c-1.402-.097-2.619-.87-2.716-1.73" style="fill:none;stroke:#ffdf00;stroke-width:.999997;stroke-linecap:round;stroke-linejoin:round;stroke-miterlimit:4;stroke-dasharray:none;stroke-opacity:1;visibility:visible" visibility="hidden"/><path d="m392.284 194.55-11.361-3.375M386.239 190.839l-5.316.336" style="fill:none;stroke:#ffdf00;stroke-width:.666665;stroke-linecap:round;stroke-linejoin:round;stroke-miterlimit:2;stroke-dasharray:none;stroke-opacity:1;visibility:visible" visibility="hidden"/><path d="m367.789 195.857 4.276-.947" style="fill:none;stroke:#ffdf00;stroke-width:1.99999;stroke-linecap:round;stroke-linejoin:round;stroke-miterlimit:4;stroke-dasharray:none;stroke-opacity:1;visibility:visible" visibility="hidden"/><path d="m386.557 191.711-1.702.255M380.923 191.175l-8.453.38" style="fill:none;stroke:#ffdf00;stroke-width:.999997;stroke-linecap:round;stroke-linejoin:round;stroke-miterlimit:4;stroke-dasharray:none;stroke-opacity:1;visibility:visible" visibility="hidden"/><path d="M340.723 199.73c0 .422-.703.76-1.572.76-.865 0-1.567-.339-1.567-.76 0-.418.702-.757 1.567-.757.869 0 1.572.339 1.572.757" style="fill:none;stroke:#00d4ff;stroke-width:.666665;stroke-linecap:round;stroke-linejoin:round;stroke-miterlimit:2;stroke-dasharray:none;stroke-opacity:1;visibility:visible" visibility="hidden"/><path d="M350.731 265.205a1187.144 1187.144 0 0 1-.128-19.016c0-48.148 2.157-43.21 2.157-43.21" style="fill:none;stroke:#00d4ff;stroke-width:1.99999;stroke-linecap:round;stroke-linejoin:round;stroke-miterlimit:4;stroke-dasharray:none;stroke-opacity:1;visibility:visible" visibility="hidden"/><path d="M330.551 312.508s-1.977-13.76-1.977-62.856c0-49.095 1.976-41.768 1.976-41.768" style="fill:none;stroke:#00d4ff;stroke-width:.999997;stroke-linecap:round;stroke-linejoin:round;stroke-miterlimit:4;stroke-dasharray:none;stroke-opacity:1;visibility:visible" visibility="hidden"/><path d="M327.103 204.362s-1.676-4.524-1.996 43.632c-.31 48.15 1.996 59.916 1.996 59.916l3.448 4.598M352.762 202.979l-3.45-3.541" style="fill:none;stroke:#00d4ff;stroke-width:1.99999;stroke-linecap:round;stroke-linejoin:round;stroke-miterlimit:4;stroke-dasharray:none;stroke-opacity:1;visibility:visible" visibility="hidden"/><path d="m327.104 204.186 3.448 3.519 22.21-4.726" style="fill:none;stroke:#00d4ff;stroke-width:.999997;stroke-linecap:round;stroke-linejoin:round;stroke-miterlimit:4;stroke-dasharray:none;stroke-opacity:1;visibility:visible" visibility="hidden"/><path d="m331.605 203.22-4.501.965M349.313 199.437l-2.995.64" style="fill:none;stroke:#00d4ff;stroke-width:1.99999;stroke-linecap:round;stroke-linejoin:round;stroke-miterlimit:4;stroke-dasharray:none;stroke-opacity:1;visibility:visible" visibility="hidden"/><path d="M344.76 200.51c.833-.1 1.402-.526 1.414-1.145.014-.88-1.114-1.819-2.518-2.099-.352-.07-.69-.09-.993-.07l-9.113 1.75c-.83.098-1.406.527-1.415 1.146-.015.881 1.112 1.821 2.517 2.102a3.76 3.76 0 0 0 1.082.064l9.026-1.748" style="fill:none;stroke:#00d4ff;stroke-width:.999997;stroke-linecap:round;stroke-linejoin:round;stroke-miterlimit:4;stroke-dasharray:none;stroke-opacity:1;visibility:visible" visibility="hidden"/><path d="M346.172 199.365v2.935c-.012.624-.58 1.046-1.416 1.146l-9.023 1.747a3.632 3.632 0 0 1-1.083-.063c-1.404-.282-2.533-1.22-2.516-2.102v-2.936" style="fill:none;stroke:#00d4ff;stroke-width:.999997;stroke-linecap:round;stroke-linejoin:round;stroke-miterlimit:4;stroke-dasharray:none;stroke-opacity:1;visibility:visible" visibility="hidden"/><path d="m330.55 207.884 10.173-8.154M346.172 199.365l-5.449.365" style="fill:none;stroke:#00d4ff;stroke-width:.666665;stroke-linecap:round;stroke-linejoin:round;stroke-miterlimit:2;stroke-dasharray:none;stroke-opacity:1;visibility:visible" visibility="hidden"/><path d="m346.318 200.077-14.713 3.143" style="fill:none;stroke:#00d4ff;stroke-width:1.99999;stroke-linecap:round;stroke-linejoin:round;stroke-miterlimit:4;stroke-dasharray:none;stroke-opacity:1;visibility:visible" visibility="hidden"/><path d="m346.318 200.077-1.558.433M327.103 204.362l5.031-4.27" style="fill:none;stroke:#00d4ff;stroke-width:.999997;stroke-linecap:round;stroke-linejoin:round;stroke-miterlimit:4;stroke-dasharray:none;stroke-opacity:1;visibility:visible" visibility="hidden"/><path d="m437.239 272.518-16.677 7.702" style="fill:none;stroke:#9500ff;stroke-width:.999997;stroke-linecap:round;stroke-linejoin:round;stroke-miterlimit:4;stroke-dasharray:none;stroke-opacity:1;visibility:visible" visibility="hidden"/><path d="m349.79 267.774.941-2.569" style="fill:none;stroke:#00d4ff;stroke-width:1.99999;stroke-linecap:round;stroke-linejoin:round;stroke-miterlimit:4;stroke-dasharray:none;stroke-opacity:1;visibility:visible" visibility="hidden"/></svg>