<svg xmlns="http://www.w3.org/2000/svg" baseProfile="full" height="793.701" preserveAspectRatio="xMinYMin meet" style="width:912px;height:1246px" width="559.371" xml:space="preserve"><path d="m313.12 620.266 11.104-3.476M137.488 674.589l175.632-54.323" style="fill:none;stroke:red;stroke-width:1.99999;stroke-linecap:round;stroke-linejoin:round;stroke-miterlimit:4;stroke-dasharray:none;stroke-opacity:1;visibility:visible" visibility="hidden"/><path d="m74.472 586.172-6.059-8.588M334.508 626.573l-189.38 59.732-7.804-11.06" style="fill:none;stroke:red;stroke-width:.999997;stroke-linecap:round;stroke-linejoin:round;stroke-miterlimit:4;stroke-dasharray:none;stroke-opacity:1;visibility:visible" visibility="hidden"/><path d="m145.128 699.904 189.38-60.05v-13.28M73.977 597.146l-5.564-8.01M145.128 699.589l-7.817-11.255" style="fill:none;stroke:red;stroke-width:1.99999;stroke-linecap:round;stroke-linejoin:round;stroke-miterlimit:4;stroke-dasharray:none;stroke-opacity:1;visibility:visible" visibility="hidden"/><path d="M145.128 699.904v-13.599" style="fill:none;stroke:red;stroke-width:.999997;stroke-linecap:round;stroke-linejoin:round;stroke-miterlimit:4;stroke-dasharray:none;stroke-opacity:1;visibility:visible" visibility="hidden"/><path d="M137.488 688.187v-13.599M68.413 589.45v-11.867" style="fill:none;stroke:red;stroke-width:1.99999;stroke-linecap:round;stroke-linejoin:round;stroke-miterlimit:4;stroke-dasharray:none;stroke-opacity:1;visibility:visible" visibility="hidden"/><path d="M74.57 597.448v-11.867M236.898 560.719l58.25 64.407M311.695 618.39l1.75 1.904" style="fill:none;stroke:red;stroke-width:.999997;stroke-linecap:round;stroke-linejoin:round;stroke-miterlimit:4;stroke-dasharray:none;stroke-opacity:1;visibility:visible" visibility="hidden"/><path d="m254.205 556.086 58.915 64.18" style="fill:none;stroke:red;stroke-width:1.99999;stroke-linecap:round;stroke-linejoin:round;stroke-miterlimit:4;stroke-dasharray:none;stroke-opacity:1;visibility:visible" visibility="hidden"/><path d="M236.898 566.149v-5.43l17.307-4.633" style="fill:none;stroke:red;stroke-width:.999997;stroke-linecap:round;stroke-linejoin:round;stroke-miterlimit:4;stroke-dasharray:none;stroke-opacity:1;visibility:visible" visibility="hidden"/><path d="m291.036 626.615-54.139-60.467M334.508 626.573l-9.601-9.784M128.102 590.26l53.779 69.688" style="fill:none;stroke:red;stroke-width:1.99999;stroke-linecap:round;stroke-linejoin:round;stroke-miterlimit:4;stroke-dasharray:none;stroke-opacity:1;visibility:visible" visibility="hidden"/><path d="m143.261 581.737-15.159 3.079v5.445" style="fill:none;stroke:red;stroke-width:.999997;stroke-linecap:round;stroke-linejoin:round;stroke-miterlimit:4;stroke-dasharray:none;stroke-opacity:1;visibility:visible" visibility="hidden"/><path d="m201.752 654.945-58.49-73.208" style="fill:none;stroke:red;stroke-width:1.99999;stroke-linecap:round;stroke-linejoin:round;stroke-miterlimit:4;stroke-dasharray:none;stroke-opacity:1;visibility:visible" visibility="hidden"/><path d="m128.102 584.815 57.585 74.393" style="fill:none;stroke:red;stroke-width:.999997;stroke-linecap:round;stroke-linejoin:round;stroke-miterlimit:4;stroke-dasharray:none;stroke-opacity:1;visibility:visible" visibility="hidden"/><path d="M259.237 561.568c9.433-2.836 31.648-9.713 36.877-11.581a576.28 576.28 0 0 0 5.299-1.927M330.613 537.232c37.466-13.958 92.095-34.426 103.27-38.58 3.781-1.407 4.39-3.858 4.39-5.392v-11.036M237.438 567.339c-5.865 1.607-11.941 3.417-16.756 4.65-12.555 3.211-40.912 10.681-71.872 16.588M128.502 591.99c-18.225 2.895-36.869 5.027-53.932 5.457" style="fill:none;stroke:red;stroke-width:1.99999;stroke-linecap:round;stroke-linejoin:round;stroke-miterlimit:4;stroke-dasharray:none;stroke-opacity:1;visibility:visible" visibility="hidden"/><path d="M438.07 481.894c.409 1.852-.722 3.914-4.186 5.153-11.21 4.013-65.694 24.485-103.142 38.485M301.39 536.459a583.483 583.483 0 0 1-5.276 1.921c-14.667 5.243-52.907 16.24-75.434 22.003-22.523 5.761-92.192 24.097-146.111 25.459" style="fill:none;stroke:red;stroke-width:.999997;stroke-linecap:round;stroke-linejoin:round;stroke-miterlimit:4;stroke-dasharray:none;stroke-opacity:1;visibility:visible" visibility="hidden"/><path d="M253.546 541.099c15.69-4.51 30.759-9.099 38.779-11.964 1.709-.61 4.652-1.687 8.54-3.12M330.702 514.932c5.55-2.068 10.677-3.978 16.656-6.212M347.36 508.719l12.706-4.743M359.944 504.022a40635.67 40635.67 0 0 0 22.519-8.418M382.463 495.604l11.47-4.286M393.731 491.394l20.14-7.528M413.871 483.866l11.093-4.139M424.966 479.727c1.284-.479 2.357-.877 3.193-1.185 5.015-1.856 9.28.502 9.91 3.352M68.737 577.542c53.917-1.36 125.628-20.643 148.154-26.404a1046.636 1046.636 0 0 0 16.516-4.388" style="fill:none;stroke:red;stroke-width:1.99999;stroke-linecap:round;stroke-linejoin:round;stroke-miterlimit:4;stroke-dasharray:none;stroke-opacity:1;visibility:visible" visibility="hidden"/><path d="M233.407 546.75c2.531-.703 18.224-5.112 20.798-5.842" style="fill:none;stroke:red;stroke-width:1.99999;stroke-linecap:round;stroke-linejoin:round;stroke-miterlimit:4;stroke-dasharray:none;stroke-opacity:1;visibility:visible" visibility="hidden"/><path d="M312.327 627.199c0 .745-1.25 1.35-2.792 1.35-1.538-.001-2.792-.606-2.792-1.351s1.254-1.349 2.792-1.349c1.542.001 2.792.604 2.792 1.351v-.001M326.049 623.495c0 .745-1.251 1.35-2.795 1.35-1.539-.001-2.79-.605-2.79-1.351.001-.745 1.252-1.349 2.791-1.349 1.543 0 2.794.605 2.794 1.35M318.303 625.192c0 .519-.87.943-1.942.943-1.076 0-1.948-.425-1.948-.943 0-.519.872-.94 1.947-.94 1.074 0 1.943.421 1.943.94M238.991 550.716c0 .748-1.25 1.352-2.794 1.352-1.539 0-2.79-.604-2.79-1.352 0-.742 1.251-1.35 2.79-1.35 1.543.001 2.793.609 2.793 1.351l.001-.001M252.71 547.014c0 .745-1.248 1.352-2.79 1.352-1.54 0-2.79-.607-2.79-1.352-.001-.744 1.249-1.347 2.79-1.347 1.542 0 2.79.604 2.79 1.347M244.967 548.715c0 .519-.869.94-1.945.94-1.072 0-1.944-.421-1.944-.94 0-.521.87-.943 1.944-.943 1.076 0 1.945.422 1.945.943" style="fill:none;stroke:red;stroke-width:.666665;stroke-linecap:round;stroke-linejoin:round;stroke-miterlimit:2;stroke-dasharray:none;stroke-opacity:1;visibility:visible" visibility="hidden"/><path d="M416.959 485.952 414.071 487c-.793.231-1.35.731-1.361 1.322-.022.836 1.046 1.548 2.389 1.578.368.011.72-.03 1.035-.12l8.648-3.148c.797-.229 1.353-.726 1.368-1.318.018-.835-1.052-1.542-2.396-1.578a3.67 3.67 0 0 0-.946.096l-1.71.62-4.139 1.5M351.588 510.163l-3.944 1.453c-.797.238-1.35.738-1.36 1.331-.014.836 1.054 1.539 2.399 1.565.37.006.718-.037 1.034-.125l8.637-3.188c.792-.233 1.341-.733 1.356-1.328.012-.839-1.06-1.539-2.398-1.565a3.647 3.647 0 0 0-.952.102l-1.08.395-3.692 1.36M386.412 497.406l-3.352 1.252c-.794.237-1.345.742-1.353 1.332-.012.84 1.063 1.536 2.408 1.558a3.62 3.62 0 0 0 1.032-.126l8.62-3.235c.792-.237 1.337-.74 1.348-1.33.015-.837-1.063-1.534-2.403-1.554a3.89 3.89 0 0 0-.948.101l-1.6.599-3.752 1.403M137.488 688.187l7.64-1.882M311.695 618.39l-16.546 6.736M313.12 620.266l-1.425-1.876" style="fill:none;stroke:red;stroke-width:.999997;stroke-linecap:round;stroke-linejoin:round;stroke-miterlimit:4;stroke-dasharray:none;stroke-opacity:1;visibility:visible" visibility="hidden"/><path d="m254.205 556.086 5.032 5.482M143.261 581.737l5.549 6.84" style="fill:none;stroke:red;stroke-width:1.99999;stroke-linecap:round;stroke-linejoin:round;stroke-miterlimit:4;stroke-dasharray:none;stroke-opacity:1;visibility:visible" visibility="hidden"/><path d="m318.303 625.192-5.976 2.007M318.303 625.192l-5.976 2.007M318.303 625.192l7.746-1.697M318.303 625.192l7.746-1.697M326.049 623.495l-7.746 1.697M312.327 627.199l5.976-2.007M244.967 548.715l-5.976 2.001M244.967 548.715l7.743-1.701M244.967 548.715l7.743-1.701M252.71 547.014l-7.743 1.701M238.991 550.716l5.976-2.001" style="fill:none;stroke:red;stroke-width:.666665;stroke-linecap:round;stroke-linejoin:round;stroke-miterlimit:2;stroke-dasharray:none;stroke-opacity:1;visibility:visible" visibility="hidden"/><path d="m413.871 483.866 3.088 2.086M413.871 483.866l3.088 2.086M347.36 508.719l4.228 1.444M347.358 508.72l4.23 1.443M382.463 495.604l3.949 1.802M382.463 495.604l3.949 1.802" style="fill:none;stroke:red;stroke-width:.999997;stroke-linecap:round;stroke-linejoin:round;stroke-miterlimit:4;stroke-dasharray:none;stroke-opacity:1;visibility:visible" visibility="hidden"/><path d="m306.013 562.248 24.89-6.961V402.746" style="fill:none;stroke:#00ff4a;stroke-width:1.99999;stroke-linecap:round;stroke-linejoin:round;stroke-miterlimit:4;stroke-dasharray:none;stroke-opacity:1;visibility:visible" visibility="hidden"/><path d="M306.013 562.248v-154.83" style="fill:none;stroke:#00ff4a;stroke-width:.999997;stroke-linecap:round;stroke-linejoin:round;stroke-miterlimit:4;stroke-dasharray:none;stroke-opacity:1;visibility:visible" visibility="hidden"/><path d="M302.146 404.02v153.806l3.867 4.42M320.906 400.373l-8.948 1.74M330.904 402.745l-3.867-3.568" style="fill:none;stroke:#00ff4a;stroke-width:1.99999;stroke-linecap:round;stroke-linejoin:round;stroke-miterlimit:4;stroke-dasharray:none;stroke-opacity:1;visibility:visible" visibility="hidden"/><path d="m302.146 404.02 3.867 3.396 24.89-4.672" style="fill:none;stroke:#00ff4a;stroke-width:.999997;stroke-linecap:round;stroke-linejoin:round;stroke-miterlimit:4;stroke-dasharray:none;stroke-opacity:1;visibility:visible" visibility="hidden"/><path d="m306.013 403.27-3.867.75" style="fill:none;stroke:#00ff4a;stroke-width:1.99999;stroke-linecap:round;stroke-linejoin:round;stroke-miterlimit:4;stroke-dasharray:none;stroke-opacity:1;visibility:visible" visibility="hidden"/><path d="M319.22 402.837c0 .562-.941 1.021-2.105 1.021-1.162 0-2.111-.459-2.111-1.021.001-.567.95-1.022 2.111-1.022 1.163 0 2.105.456 2.105 1.022M326.03 402.045c0 .521-.87.94-1.945.94-1.075 0-1.946-.419-1.946-.94.001-.519.872-.943 1.946-.943 1.075 0 1.945.424 1.945.943M310.551 404.935c0 .519-.87.938-1.945.938-1.073 0-1.946-.419-1.946-.938 0-.521.873-.942 1.946-.942 1.076 0 1.944.421 1.944.942h.001" style="fill:none;stroke:#00ff4a;stroke-width:.666665;stroke-linecap:round;stroke-linejoin:round;stroke-miterlimit:2;stroke-dasharray:none;stroke-opacity:1;visibility:visible" visibility="hidden"/><path d="m319.22 402.837-13.207 4.58" style="fill:none;stroke:#00ff4a;stroke-width:.999997;stroke-linecap:round;stroke-linejoin:round;stroke-miterlimit:4;stroke-dasharray:none;stroke-opacity:1;visibility:visible" visibility="hidden"/><path d="m302.146 404.02 18.76-3.647M306.013 403.27l5.945-1.157M311.958 402.113l-5.945 1.157" style="fill:none;stroke:#00ff4a;stroke-width:1.99999;stroke-linecap:round;stroke-linejoin:round;stroke-miterlimit:4;stroke-dasharray:none;stroke-opacity:1;visibility:visible" visibility="hidden"/><path d="m326.03 402.045-6.81.792M326.03 402.045l-6.81.792M319.22 402.837l6.81-.792M330.904 402.746l-4.874-.701M319.22 402.837l-8.669 2.098" style="fill:none;stroke:#00ff4a;stroke-width:.666665;stroke-linecap:round;stroke-linejoin:round;stroke-miterlimit:2;stroke-dasharray:none;stroke-opacity:1;visibility:visible" visibility="hidden"/><path d="M256.903 384.656v-14.068M256.903 458.982v-61.224M233.949 483.854l22.955-6.421v-7.035" style="fill:none;stroke:#9500ff;stroke-width:1.99999;stroke-linecap:round;stroke-linejoin:round;stroke-miterlimit:4;stroke-dasharray:none;stroke-opacity:1;visibility:visible"/><path d="M233.949 483.854v-108.96" style="fill:none;stroke:#9500ff;stroke-width:.999997;stroke-linecap:round;stroke-linejoin:round;stroke-miterlimit:4;stroke-dasharray:none;stroke-opacity:1;visibility:visible"/><path d="M230.385 371.765v108.017l3.564 4.072M247.68 368.4l-8.248 1.604M256.903 370.589l-3.568-3.29" style="fill:none;stroke:#9500ff;stroke-width:1.99999;stroke-linecap:round;stroke-linejoin:round;stroke-miterlimit:4;stroke-dasharray:none;stroke-opacity:1;visibility:visible"/><path d="m230.385 371.766 3.564 3.13 22.955-4.307" style="fill:none;stroke:#9500ff;stroke-width:.999997;stroke-linecap:round;stroke-linejoin:round;stroke-miterlimit:4;stroke-dasharray:none;stroke-opacity:1;visibility:visible"/><path d="m233.945 371.07-3.56.696" style="fill:none;stroke:#9500ff;stroke-width:1.99999;stroke-linecap:round;stroke-linejoin:round;stroke-miterlimit:4;stroke-dasharray:none;stroke-opacity:1;visibility:visible"/><path d="M237.735 371.491c.7.144 1.19.48 1.19.87 0 .519-.87.938-1.946.938-1.073.001-1.945-.418-1.945-.938 0-.351.396-.655.98-.818M251.426 368.542c.71.141 1.212.48 1.212.873 0 .52-.87.94-1.945.94-1.073-.001-1.946-.421-1.946-.941 0-.368.443-.689 1.086-.844M246.129 370.947c0 .52-.87.94-1.946.94-1.073-.001-1.945-.421-1.945-.941s.872-.941 1.945-.941c1.077 0 1.947.422 1.947.942h-.001" style="fill:none;stroke:#9500ff;stroke-width:.666665;stroke-linecap:round;stroke-linejoin:round;stroke-miterlimit:2;stroke-dasharray:none;stroke-opacity:1;visibility:visible"/><path d="M256.903 397.758v-13.102M256.904 470.398l-.001-11.416M256.903 384.656v13.102M256.903 458.982v11.416M230.385 371.766l17.295-3.366M236.014 371.543l3.418-1.539M239.432 370.004l-5.487 1.066" style="fill:none;stroke:#9500ff;stroke-width:1.99999;stroke-linecap:round;stroke-linejoin:round;stroke-miterlimit:4;stroke-dasharray:none;stroke-opacity:1;visibility:visible"/><path d="m239.432 370.004-3.418 1.539M239.432 370.004l10.401-1.434M256.903 384.656l-10.774-13.709" style="fill:none;stroke:#9500ff;stroke-width:.666665;stroke-linecap:round;stroke-linejoin:round;stroke-miterlimit:2;stroke-dasharray:none;stroke-opacity:1;visibility:visible"/><path d="m306.013 562.248-4.6-14.188M238.991 550.716l-1.553 16.623" style="fill:none;stroke:red;stroke-width:1.99999;stroke-linecap:round;stroke-linejoin:round;stroke-miterlimit:4;stroke-dasharray:none;stroke-opacity:1;visibility:visible" visibility="hidden"/></svg>