<svg xmlns="http://www.w3.org/2000/svg" baseProfile="full" height="793.701" preserveAspectRatio="xMinYMin meet" style="width:912px;height:1246px" width="559.371" xml:space="preserve"><path d="M284.379 319.431v-9.5M284.379 404.317v-57.564M284.379 423.982v-7.304" style="fill:none;stroke:red;stroke-width:1.99999;stroke-linecap:round;stroke-linejoin:round;stroke-miterlimit:4;stroke-dasharray:none;stroke-opacity:1;visibility:visible"/><path d="m261.705 430.323 22.673-6.341M261.705 323.878v-9.69M261.705 430.323v-79.345M258.182 426.298l3.524 4.025" style="fill:none;stroke:red;stroke-width:.999997;stroke-linecap:round;stroke-linejoin:round;stroke-miterlimit:4;stroke-dasharray:none;stroke-opacity:1;visibility:visible"/><path d="M258.182 351.4v74.898M258.182 311.093v13.45M274.925 307.837l-7.344 1.428M284.379 309.931l-3.524-3.248" style="fill:none;stroke:red;stroke-width:1.99999;stroke-linecap:round;stroke-linejoin:round;stroke-miterlimit:4;stroke-dasharray:none;stroke-opacity:1;visibility:visible"/><path d="m258.182 311.093 3.524 3.095 22.673-4.256" style="fill:none;stroke:red;stroke-width:.999997;stroke-linecap:round;stroke-linejoin:round;stroke-miterlimit:4;stroke-dasharray:none;stroke-opacity:1;visibility:visible"/><path d="m261.458 310.455-3.276.637" style="fill:none;stroke:red;stroke-width:1.99999;stroke-linecap:round;stroke-linejoin:round;stroke-miterlimit:4;stroke-dasharray:none;stroke-opacity:1;visibility:visible"/><path d="m262.111 310.811.11.64M266.737 304.617a.444.444 0 0 0 .128-.31.425.425 0 0 0-.115-.29M262.226 304.016a.444.444 0 0 0-.115.292c0 .114.049.228.13.309M262.24 304.617c.196.195.44.348.706.436M262.947 305.053a4.92 4.92 0 0 0 1.539.25 4.94 4.94 0 0 0 1.544-.249M266.03 305.053a1.85 1.85 0 0 0 .707-.436M266.102 303.293a1.305 1.305 0 0 0-.507-.308M265.595 302.984a3.436 3.436 0 0 0-2.213 0M263.382 302.984a1.316 1.316 0 0 0-.505.308M266.737 311.476a.44.44 0 0 0 .128-.31M262.11 311.165c0 .119.048.228.13.31M262.24 311.476a1.773 1.773 0 0 0 .706.436M262.947 311.912a4.807 4.807 0 0 0 1.539.25c.524 0 1.047-.082 1.544-.25M266.03 311.912c.267-.088.507-.236.707-.436M262.865 303.306l-.639.708M266.114 303.306l.639.708M262.111 304.306v6.859M266.865 304.306v6.859M275.66 308.211l.108.637M280.283 302.016a.445.445 0 0 0 .128-.308.423.423 0 0 0-.113-.292M275.773 301.416a.433.433 0 0 0 .014.6M275.786 302.016c.199.194.441.344.708.432M276.495 302.449a4.855 4.855 0 0 0 3.083 0M279.577 302.449c.266-.089.506-.237.706-.432M279.649 300.693a1.296 1.296 0 0 0-.509-.315M279.14 300.377a3.513 3.513 0 0 0-2.21 0M276.93 300.377a1.33 1.33 0 0 0-.505.315M280.283 308.873a.44.44 0 0 0 .128-.31M275.66 308.564a.43.43 0 0 0 .126.309M275.786 308.873c.199.2.441.35.708.439M276.495 309.312a4.925 4.925 0 0 0 3.083 0M279.577 309.312a1.81 1.81 0 0 0 .706-.44M276.413 300.7l-.64.713M279.662 300.7l.637.713M275.66 301.706v6.857M280.412 301.706v6.857M273.738 310.014c0 .516-.863.93-1.923.93s-1.921-.414-1.921-.929c0-.514.861-.929 1.921-.929s1.923.415 1.923.928" style="fill:none;stroke:red;stroke-width:.666665;stroke-linecap:round;stroke-linejoin:round;stroke-miterlimit:2;stroke-dasharray:none;stroke-opacity:1;visibility:visible"/><path d="m167.176 550.07 162.533-50.275" style="fill:none;stroke:red;stroke-width:1.99999;stroke-linecap:round;stroke-linejoin:round;stroke-miterlimit:4;stroke-dasharray:none;stroke-opacity:1;visibility:visible"/><path d="m104.93 462.728-5.987-8.485M361.803 502.637l-187.077 59.005-7.712-10.925" style="fill:none;stroke:red;stroke-width:.999997;stroke-linecap:round;stroke-linejoin:round;stroke-miterlimit:4;stroke-dasharray:none;stroke-opacity:1;visibility:visible"/><path d="m174.726 575.077 187.077-59.315v-13.125M104.437 473.57l-5.495-7.916M174.726 574.767l-7.724-11.119" style="fill:none;stroke:red;stroke-width:1.99999;stroke-linecap:round;stroke-linejoin:round;stroke-miterlimit:4;stroke-dasharray:none;stroke-opacity:1;visibility:visible"/><path d="M174.726 575.077v-13.435" style="fill:none;stroke:red;stroke-width:.999997;stroke-linecap:round;stroke-linejoin:round;stroke-miterlimit:4;stroke-dasharray:none;stroke-opacity:1;visibility:visible"/><path d="M167.176 563.504v-13.433M98.942 465.967v-11.725" style="fill:none;stroke:red;stroke-width:1.99999;stroke-linecap:round;stroke-linejoin:round;stroke-miterlimit:4;stroke-dasharray:none;stroke-opacity:1;visibility:visible"/><path d="M105.024 473.871v-11.724" style="fill:none;stroke:red;stroke-width:.999997;stroke-linecap:round;stroke-linejoin:round;stroke-miterlimit:4;stroke-dasharray:none;stroke-opacity:1;visibility:visible"/><path d="M456.334 362.246s-1.862 5.294-1.862-36.226c0-30.715 1.018-46.477 1.55-52.6" style="fill:none;stroke:red;stroke-width:1.99999;stroke-linecap:round;stroke-linejoin:round;stroke-miterlimit:4;stroke-dasharray:none;stroke-opacity:1;visibility:visible"/><path d="m437.18 368.977 19.153-6.732M437.18 368.978s-1.708 2.362-1.708-39.975c0-30.803.903-45.723 1.399-51.567M434.207 365.013l2.973 3.964" style="fill:none;stroke:red;stroke-width:.999997;stroke-linecap:round;stroke-linejoin:round;stroke-miterlimit:4;stroke-dasharray:none;stroke-opacity:1;visibility:visible"/><path d="M434.006 273.842c-.41 5.764-1.31 21.863-1.52 53.728-.266 41.521 1.721 37.444 1.721 37.444M456.335 273.392l-2.976-3.187" style="fill:none;stroke:red;stroke-width:1.99999;stroke-linecap:round;stroke-linejoin:round;stroke-miterlimit:4;stroke-dasharray:none;stroke-opacity:1;visibility:visible"/><path d="m434.207 274.23 2.973 3.036 19.155-3.875" style="fill:none;stroke:red;stroke-width:.999997;stroke-linecap:round;stroke-linejoin:round;stroke-miterlimit:4;stroke-dasharray:none;stroke-opacity:1;visibility:visible"/><path d="m438.105 273.412-3.899.819M453.358 270.206l-1.8.379M350.068 344.685c.052-5.27.134-10.045.23-14.358M351.8 304.569c.11-6.655.355-9.417.355-9.417" style="fill:none;stroke:red;stroke-width:1.99999;stroke-linecap:round;stroke-linejoin:round;stroke-miterlimit:4;stroke-dasharray:none;stroke-opacity:1;visibility:visible"/><path d="M329.998 411.057s-1.976.5-1.976-48.478c0-9.518.075-17.699.195-24.702M326.559 403.379l3.44 4.585" style="fill:none;stroke:red;stroke-width:.999997;stroke-linecap:round;stroke-linejoin:round;stroke-miterlimit:4;stroke-dasharray:none;stroke-opacity:1;visibility:visible"/><path d="M324.795 338.298a1873.16 1873.16 0 0 0-.224 19.535c-.317 48.037 1.987 45.547 1.987 45.547M352.158 295.151l-3.445-3.532" style="fill:none;stroke:red;stroke-width:1.99999;stroke-linecap:round;stroke-linejoin:round;stroke-miterlimit:4;stroke-dasharray:none;stroke-opacity:1;visibility:visible"/><path d="m338.93 297.969 13.227-2.817" style="fill:none;stroke:red;stroke-width:.999997;stroke-linecap:round;stroke-linejoin:round;stroke-miterlimit:4;stroke-dasharray:none;stroke-opacity:1;visibility:visible"/><path d="m348.712 291.619-2.987.639M391.582 386.371s-2.058 4.363-2.058-41.5c0-34.12 1.14-51.355 1.722-57.943" style="fill:none;stroke:red;stroke-width:1.99999;stroke-linecap:round;stroke-linejoin:round;stroke-miterlimit:4;stroke-dasharray:none;stroke-opacity:1;visibility:visible"/><path d="m370.43 393.807 21.15-7.437M370.43 393.809s-1.888 1.121-1.888-45.64c0-35.07 1.062-51.197 1.59-57.07M367.145 389.427l3.287 4.38" style="fill:none;stroke:red;stroke-width:.999997;stroke-linecap:round;stroke-linejoin:round;stroke-miterlimit:4;stroke-dasharray:none;stroke-opacity:1;visibility:visible"/><path d="M366.91 288.009c-.456 6.323-1.435 23.697-1.662 58.574-.3 45.862 1.896 42.843 1.896 42.843M391.582 286.741l-3.287-3.363" style="fill:none;stroke:red;stroke-width:1.99999;stroke-linecap:round;stroke-linejoin:round;stroke-miterlimit:4;stroke-dasharray:none;stroke-opacity:1;visibility:visible"/><path d="m367.145 288.044 3.287 3.196 21.15-4.5" style="fill:none;stroke:red;stroke-width:.999997;stroke-linecap:round;stroke-linejoin:round;stroke-miterlimit:4;stroke-dasharray:none;stroke-opacity:1;visibility:visible"/><path d="m371.408 287.102-4.263.943M388.296 283.378l-2.427.535M424.938 373.913s-1.954 4.862-1.954-38.647c0-32.118 1.066-48.636 1.62-55.084" style="fill:none;stroke:red;stroke-width:1.99999;stroke-linecap:round;stroke-linejoin:round;stroke-miterlimit:4;stroke-dasharray:none;stroke-opacity:1;visibility:visible"/><path d="m404.869 380.966 20.07-7.055M404.867 380.967s-1.787 1.79-1.787-42.574c0-33.059.992-48.645 1.5-54.444M401.751 376.81l3.117 4.156" style="fill:none;stroke:red;stroke-width:.999997;stroke-linecap:round;stroke-linejoin:round;stroke-miterlimit:4;stroke-dasharray:none;stroke-opacity:1;visibility:visible"/><path d="M401.536 280.62c-.426 6.044-1.369 22.898-1.588 56.27-.284 43.513 1.802 39.921 1.802 39.921M424.939 279.96l-3.117-3.336" style="fill:none;stroke:red;stroke-width:1.99999;stroke-linecap:round;stroke-linejoin:round;stroke-miterlimit:4;stroke-dasharray:none;stroke-opacity:1;visibility:visible"/><path d="m401.751 280.874 3.117 3.177 20.07-4.092" style="fill:none;stroke:red;stroke-width:.999997;stroke-linecap:round;stroke-linejoin:round;stroke-miterlimit:4;stroke-dasharray:none;stroke-opacity:1;visibility:visible"/><path d="m406.158 279.94-4.407.933M421.822 276.624l-1.976.419" style="fill:none;stroke:red;stroke-width:1.99999;stroke-linecap:round;stroke-linejoin:round;stroke-miterlimit:4;stroke-dasharray:none;stroke-opacity:1;visibility:visible"/><path d="m265.374 437.585 57.544 63.621" style="fill:none;stroke:red;stroke-width:.999997;stroke-linecap:round;stroke-linejoin:round;stroke-miterlimit:4;stroke-dasharray:none;stroke-opacity:1;visibility:visible"/><path d="m282.473 433.01 47.03 51.07" style="fill:none;stroke:red;stroke-width:1.99999;stroke-linecap:round;stroke-linejoin:round;stroke-miterlimit:4;stroke-dasharray:none;stroke-opacity:1;visibility:visible"/><path d="M265.374 442.948v-5.363l17.099-4.574" style="fill:none;stroke:red;stroke-width:.999997;stroke-linecap:round;stroke-linejoin:round;stroke-miterlimit:4;stroke-dasharray:none;stroke-opacity:1;visibility:visible"/><path d="m318.855 502.68-53.481-59.732M361.803 502.637l-2.685-2.59M157.904 466.767l53.127 68.844" style="fill:none;stroke:red;stroke-width:1.99999;stroke-linecap:round;stroke-linejoin:round;stroke-miterlimit:4;stroke-dasharray:none;stroke-opacity:1;visibility:visible"/><path d="m172.878 458.348-14.973 3.039v5.38" style="fill:none;stroke:red;stroke-width:.999997;stroke-linecap:round;stroke-linejoin:round;stroke-miterlimit:4;stroke-dasharray:none;stroke-opacity:1;visibility:visible"/><path d="m230.656 530.667-57.777-72.318" style="fill:none;stroke:red;stroke-width:1.99999;stroke-linecap:round;stroke-linejoin:round;stroke-miterlimit:4;stroke-dasharray:none;stroke-opacity:1;visibility:visible"/><path d="m157.904 461.387 56.885 73.49" style="fill:none;stroke:red;stroke-width:.999997;stroke-linecap:round;stroke-linejoin:round;stroke-miterlimit:4;stroke-dasharray:none;stroke-opacity:1;visibility:visible"/><path d="M286.685 437.586c9.32-2.799 32.022-8.753 37.185-10.599 1.18-.421 3.423-1.067 5.707-1.905M358.724 414.08c37.016-13.79 90.203-33.7 101.24-37.804 3.736-1.387 4.344-3.811 4.344-5.326v-10.905M265.911 444.127c-5.797 1.583-11.798 3.376-16.553 4.594-12.404 3.169-40.417 10.548-70.998 16.382M158.3 468.478c-18.003 2.861-36.42 4.964-53.276 5.392" style="fill:none;stroke:red;stroke-width:1.99999;stroke-linecap:round;stroke-linejoin:round;stroke-miterlimit:4;stroke-dasharray:none;stroke-opacity:1;visibility:visible"/><path d="M464.175 360.251c.093 1.686-1.117 3.452-4.21 4.559-11.075 3.967-64.115 23.88-101.108 37.71M329.55 413.618c-2.27.836-4.505 1.484-5.68 1.903-14.487 5.176-52.264 16.039-74.512 21.733-22.252 5.692-91.074 23.804-144.334 25.15" style="fill:none;stroke:red;stroke-width:.999997;stroke-linecap:round;stroke-linejoin:round;stroke-miterlimit:4;stroke-dasharray:none;stroke-opacity:1;visibility:visible"/><path d="M99.262 454.205c53.259-1.346 124.098-20.391 146.35-26.085a992.397 992.397 0 0 0 12.072-3.18M284.747 417.36c14.423-4.178 27.959-8.323 35.38-10.974 1.094-.388 3.456-1.244 6.03-2.18M358.823 392.049c2.563-.959 5.19-1.939 7.861-2.934M390.831 380.102l10.38-3.873M424.479 367.535a5852.79 5852.79 0 0 0 9.473-3.54M455.524 356.04c4.716-1.15 8.496 1.41 8.65 4.21" style="fill:none;stroke:red;stroke-width:1.99999;stroke-linecap:round;stroke-linejoin:round;stroke-miterlimit:4;stroke-dasharray:none;stroke-opacity:1;visibility:visible"/><path d="m410.926 275.108-3.16.605c-.784.093-1.334.501-1.347 1.09-.008.834 1.06 1.729 2.399 1.994.366.076.716.093 1.028.063l8.573-1.656c.791-.099 1.336-.502 1.344-1.095.01-.835-1.057-1.724-2.393-1.992a3.64 3.64 0 0 0-.94-.065l-1.78.341M443.128 268.424l-3.688.708c-.77.093-1.31.488-1.317 1.068-.013.817 1.033 1.696 2.35 1.954a3.373 3.373 0 0 0 1.004.063l8.403-1.63c.775-.088 1.308-.485 1.32-1.068.012-.813-1.041-1.686-2.351-1.951a3.538 3.538 0 0 0-.919-.064l-1.516.288" style="fill:none;stroke:red;stroke-width:.999997;stroke-linecap:round;stroke-linejoin:round;stroke-miterlimit:4;stroke-dasharray:none;stroke-opacity:1;visibility:visible"/><path d="M419.763 276.109v2.79c-.008.592-.553.993-1.344 1.086l-8.573 1.663a3.48 3.48 0 0 1-1.028-.06c-1.339-.268-2.408-1.16-2.399-2v-2.785M377.15 281.876l-3.955.758c-.807.1-1.375.514-1.385 1.122-.01.862 1.093 1.78 2.466 2.057.38.076.742.092 1.06.061l8.834-1.706c.814-.1 1.372-.514 1.385-1.123.01-.859-1.092-1.776-2.467-2.053a3.763 3.763 0 0 0-.97-.072l-2.028.39M451.199 269.52v2.736c-.01.578-.544.974-1.317 1.069l-8.404 1.623a3.408 3.408 0 0 1-1.006-.058c-1.314-.262-2.361-1.136-2.35-1.957v-2.73M337.252 290.312l-4.26.817c-.83.099-1.406.525-1.419 1.144-.009.879 1.115 1.816 2.517 2.093.385.082.75.098 1.08.066l9.002-1.742c.83-.098 1.4-.522 1.41-1.145.016-.873-1.107-1.81-2.51-2.093a3.98 3.98 0 0 0-.994-.068l-2.298.442" style="fill:none;stroke:red;stroke-width:.999997;stroke-linecap:round;stroke-linejoin:round;stroke-miterlimit:4;stroke-dasharray:none;stroke-opacity:1;visibility:visible"/><path d="M385.555 283.044v2.87c-.013.61-.57 1.026-1.385 1.122l-8.834 1.71a3.66 3.66 0 0 1-1.06-.06c-1.372-.276-2.476-1.194-2.466-2.058v-2.874M345.582 291.545v2.93c-.01.621-.582 1.045-1.41 1.141L337.024 297" style="fill:none;stroke:red;stroke-width:.999997;stroke-linecap:round;stroke-linejoin:round;stroke-miterlimit:4;stroke-dasharray:none;stroke-opacity:1;visibility:visible"/><path d="m334.059 507.862 24.585-7.648V357.773" style="fill:none;stroke:red;stroke-width:1.99999;stroke-linecap:round;stroke-linejoin:round;stroke-miterlimit:4;stroke-dasharray:none;stroke-opacity:1;visibility:visible"/><path d="M334.059 507.862V362.388" style="fill:none;stroke:red;stroke-width:.999997;stroke-linecap:round;stroke-linejoin:round;stroke-miterlimit:4;stroke-dasharray:none;stroke-opacity:1;visibility:visible"/><path d="M330.238 359.03v144.466l3.82 4.366M348.77 355.428l-8.841 1.719M358.238 357.847l.407-.075-3.822-3.522" style="fill:none;stroke:red;stroke-width:1.99999;stroke-linecap:round;stroke-linejoin:round;stroke-miterlimit:4;stroke-dasharray:none;stroke-opacity:1;visibility:visible"/><path d="m330.238 359.03 3.82 3.357 24.18-4.541" style="fill:none;stroke:red;stroke-width:.999997;stroke-linecap:round;stroke-linejoin:round;stroke-miterlimit:4;stroke-dasharray:none;stroke-opacity:1;visibility:visible"/><path d="m334.056 358.29-3.817.74" style="fill:none;stroke:red;stroke-width:1.99999;stroke-linecap:round;stroke-linejoin:round;stroke-miterlimit:4;stroke-dasharray:none;stroke-opacity:1;visibility:visible"/><path d="m334.504 358.73.115.693M339.516 352.009a.49.49 0 0 0 .02-.654M334.62 351.355a.468.468 0 0 0-.117.315c0 .128.05.25.139.34M334.64 352.009c.214.214.476.374.766.471M335.407 352.482a5.296 5.296 0 0 0 1.67.268 5.3 5.3 0 0 0 1.67-.268M338.747 352.482c.293-.097.553-.257.768-.472M338.828 350.574a1.456 1.456 0 0 0-.554-.339M338.274 350.235a3.81 3.81 0 0 0-2.396 0M335.88 350.235a1.467 1.467 0 0 0-.554.34M339.516 359.446a.467.467 0 0 0 .136-.336M334.503 359.11c0 .128.05.25.139.336M334.64 359.446c.214.215.476.376.766.472M335.407 359.92a5.261 5.261 0 0 0 3.341 0M338.747 359.92c.293-.098.553-.259.768-.474M335.316 350.586l-.695.77M338.84 350.586l.695.77M334.504 351.67v7.439M339.652 351.67v7.439M349.191 355.908l.115.693M354.206 349.187a.49.49 0 0 0 .136-.334.467.467 0 0 0-.12-.315M349.31 348.538a.461.461 0 0 0-.12.315c0 .125.046.246.14.334M349.331 349.187c.213.216.476.38.763.473M350.094 349.66a5.31 5.31 0 0 0 1.674.272 5.274 5.274 0 0 0 1.67-.273M353.44 349.66c.29-.095.55-.258.766-.474M353.516 347.753a1.39 1.39 0 0 0-.552-.336M352.964 347.417a3.7 3.7 0 0 0-2.398 0M354.206 356.622a.48.48 0 0 0 .136-.335M349.191 356.289c0 .13.047.248.14.334M349.331 356.622a1.92 1.92 0 0 0 .763.473M350.094 357.097a5.197 5.197 0 0 0 1.674.272 5.2 5.2 0 0 0 1.67-.272M353.44 357.097c.29-.095.55-.258.766-.474M350.007 347.766l-.695.77M353.527 347.766l.695.77M349.191 348.852v7.436M354.342 348.852v7.436M339.522 291.102c.544.156.914.443.914.772 0 .498-.833.902-1.862.902-1.022 0-1.855-.404-1.855-.902.001-.294.295-.558.756-.721M379.626 282.542c.544.156.914.443.914.772 0 .498-.833.902-1.862.902-1.022 0-1.855-.404-1.855-.902 0-.294.295-.558.757-.721M414.288 275.622c.544.156.915.443.915.772 0 .498-.833.902-1.863.902-1.02 0-1.854-.404-1.854-.902 0-.294.294-.558.756-.721M445.93 268.816c.544.156.914.442.914.772 0 .497-.833.901-1.862.901-1.022 0-1.855-.404-1.855-.901 0-.295.295-.559.756-.722M347.107 357.862c0 .556-.935 1.01-2.085 1.01s-2.084-.455-2.084-1.011c0-.556.934-1.006 2.084-1.006s2.085.451 2.085 1.007M337.077 360.189v-7.079M351.77 357.369v-7.436M264.488 312.162v-6.86M278.037 309.557v-6.859" style="fill:none;stroke:red;stroke-width:.666665;stroke-linecap:round;stroke-linejoin:round;stroke-miterlimit:2;stroke-dasharray:none;stroke-opacity:1;visibility:visible"/><path d="m280.22 406.7 4.119 1.295M285.709 408.947l.008.011.016.017a.117.117 0 0 0 .012.027l.017.03.013.041a.213.213 0 0 0 .015.045.245.245 0 0 1 .004.042c.004.014.003.03.008.045-.003.013-.002.025-.003.04a.134.134 0 0 1-.005.033c.003.008-.001.016 0 .021M286.823 409.115a.781.781 0 0 0-.2-.702M286.777 415.434l.047-6.317M286.624 408.413l-3.073-3.287M285.39 408.603l.32.344M279.733 405.693c-.008 0-.014 0-.024.002-.015.006-.035.011-.052.019l-.05.028c-.014.008-.027.021-.044.035a.173.173 0 0 0-.041.041.25.25 0 0 0-.04.047c-.01.018-.017.035-.032.057-.01.021-.02.039-.025.063a.325.325 0 0 0-.023.069c-.005.008-.005.021-.01.032M279.911 406.542l.035.024.065.044c.027.01.047.025.074.036a.873.873 0 0 0 .075.032c.018.01.039.015.059.023M284.338 407.995l.064.025.123.043.118.05c.038.017.077.033.112.052.04.018.071.035.108.054.035.019.068.042.104.061.034.021.066.038.098.062.029.02.061.039.089.063.03.02.056.041.084.062.028.023.052.047.077.067.026.021.046.043.066.063a.02.02 0 0 1 .008.008M282.845 404.91l-3.112.779M279.873 406.515h.002c.005.003.011.008.019.011l.016.016M279.874 406.515h0M278.78 408.86l.072 2.173s.173 1.051.408 1.788l3.443-1.063M279.392 406.085l-.5 2.265M285.863 416.33l.03.028.054.045.055.03a.21.21 0 0 0 .056.026.2.2 0 0 0 .053.014.299.299 0 0 0 .056.01c.019 0 .038 0 .056-.002l.037-.008M286.262 416.475l.317-.065M279.806 413.238l4.227 1.697M286.58 416.411c.28-.046.146-.697.197-.976M285.082 415.543l.781.787" style="fill:none;stroke:red;stroke-width:.666665;stroke-linecap:round;stroke-linejoin:round;stroke-miterlimit:4;stroke-dasharray:none;stroke-opacity:1;visibility:visible"/><path d="M279.26 412.82a.527.527 0 0 0 .046.061c.013.024.031.042.047.064a.063.063 0 0 0 .013.013M279.42 413.009l.028.028c.017.018.039.033.058.05a1.083 1.083 0 0 0 .133.08.373.373 0 0 0 .074.036l.072.03c.005 0 .012.005.02.005M284.031 414.937c.019.008.042.013.064.023l.12.04.12.052c.036.018.075.033.115.051l.105.058c.035.018.07.036.103.057l.096.06a.732.732 0 0 1 .09.065c.03.02.057.042.086.063.027.023.055.044.077.067l.067.062.007.008M283.55 405.127a.77.77 0 0 0-.705-.216M279.367 412.957l.052.052M285.793 409.298l-.105 6.013M283.677 411.363l.063.09.064.087.068.075.072.065.07.055.074.05.072.034.072.025.072.014.072.002.068-.01.065-.018.065-.032.06-.041.058-.05.052-.062.052-.07.038-.083.039-.087.033-.096.027-.104.021-.11.016-.117.007-.117.001-.123-.005-.128-.013-.126-.014-.128-.024-.128-.029-.127-.035-.123-.04-.122-.046-.118-.052-.112-.052-.106-.06-.099-.063-.093-.064-.087-.067-.073" style="fill:none;stroke:red;stroke-width:.666665;stroke-linecap:round;stroke-linejoin:round;stroke-miterlimit:4;stroke-dasharray:none;stroke-opacity:1;visibility:visible"/><path d="m284.61 409.42-.063-.09-.064-.087-.068-.075-.072-.065-.07-.055-.074-.05-.072-.034-.072-.025-.072-.014-.072-.002-.068.01-.065.018-.065.032-.06.041-.058.05-.052.062-.052.07-.038.083-.039.087-.033.096-.027.104-.021.11-.016.117-.007.117-.001.123.005.128.013.126.014.128.024.128.029.127.035.123.04.122.046.118.052.112.052.106.06.099.063.093.064.087.067.073" style="fill:none;stroke:red;stroke-width:.666665;stroke-linecap:round;stroke-linejoin:round;stroke-miterlimit:4;stroke-dasharray:none;stroke-opacity:1;visibility:visible"/><path d="m284.414 409.17-.07-.068-.071-.055-.074-.046-.074-.036-.07-.027-.072-.013-.072-.003-.069.008-.067.021-.062.028-.062.046-.058.052-.051.06-.05.069-.043.084-.036.088-.035.097-.025.104-.022.107-.014.115M285.702 414.923l-2.997-3.167M282.79 407.632l-.047 4.125" style="fill:none;stroke:red;stroke-width:.666665;stroke-linecap:round;stroke-linejoin:round;stroke-miterlimit:4;stroke-dasharray:none;stroke-opacity:1;visibility:visible"/><path d="m280.411 308.563 3.968 10.868M282.79 407.632l1.589-3.315" style="fill:none;stroke:red;stroke-width:1.99999;stroke-linecap:round;stroke-linejoin:round;stroke-miterlimit:4;stroke-dasharray:none;stroke-opacity:1;visibility:visible"/><path d="m262.11 311.165-.405 12.713M262.111 311.165l-.406 3.022" style="fill:none;stroke:red;stroke-width:.999997;stroke-linecap:round;stroke-linejoin:round;stroke-miterlimit:4;stroke-dasharray:none;stroke-opacity:1;visibility:visible"/><path d="m261.705 314.187-3.523 10.355M261.458 310.455l6.123-1.19M275.786 308.873l5.069-2.19" style="fill:none;stroke:red;stroke-width:1.99999;stroke-linecap:round;stroke-linejoin:round;stroke-miterlimit:4;stroke-dasharray:none;stroke-opacity:1;visibility:visible"/><path d="m275.66 308.563-1.922 1.451M275.66 308.564l-1.922 1.45" style="fill:none;stroke:red;stroke-width:.666665;stroke-linecap:round;stroke-linejoin:round;stroke-miterlimit:2;stroke-dasharray:none;stroke-opacity:1;visibility:visible"/><path d="m334.059 507.862-4.35-8.067" style="fill:none;stroke:red;stroke-width:1.99999;stroke-linecap:round;stroke-linejoin:round;stroke-miterlimit:4;stroke-dasharray:none;stroke-opacity:1;visibility:visible"/><path d="m167.176 563.504 7.55-1.862" style="fill:none;stroke:red;stroke-width:.999997;stroke-linecap:round;stroke-linejoin:round;stroke-miterlimit:4;stroke-dasharray:none;stroke-opacity:1;visibility:visible"/><path d="m446.414 267.792-8.309 5.62M456.335 273.391l-4.777-2.806M349.191 348.852l.877-4.167M345.582 291.545l6.218 13.024" style="fill:none;stroke:red;stroke-width:1.99999;stroke-linecap:round;stroke-linejoin:round;stroke-miterlimit:4;stroke-dasharray:none;stroke-opacity:1;visibility:visible"/><path d="m337.252 290.312 1.678 7.657" style="fill:none;stroke:red;stroke-width:.999997;stroke-linecap:round;stroke-linejoin:round;stroke-miterlimit:4;stroke-dasharray:none;stroke-opacity:1;visibility:visible"/><path d="m380.09 281.31-8.682 5.792M414.65 274.393l-8.492 5.547" style="fill:none;stroke:red;stroke-width:1.99999;stroke-linecap:round;stroke-linejoin:round;stroke-miterlimit:4;stroke-dasharray:none;stroke-opacity:1;visibility:visible"/><path d="m261.706 430.323 3.668 7.262" style="fill:none;stroke:red;stroke-width:.999997;stroke-linecap:round;stroke-linejoin:round;stroke-miterlimit:4;stroke-dasharray:none;stroke-opacity:1;visibility:visible"/><path d="m282.473 433.01 4.212 4.576M261.705 430.323l4.206 13.804M172.878 458.348l5.482 6.755" style="fill:none;stroke:red;stroke-width:1.99999;stroke-linecap:round;stroke-linejoin:round;stroke-miterlimit:4;stroke-dasharray:none;stroke-opacity:1;visibility:visible"/><path d="m366.684 389.115-7.827 13.405" style="fill:none;stroke:red;stroke-width:.999997;stroke-linecap:round;stroke-linejoin:round;stroke-miterlimit:4;stroke-dasharray:none;stroke-opacity:1;visibility:visible"/><path d="m261.705 430.323-4.021-5.383M391.58 386.37l-.749-6.268M424.94 373.911l-.461-6.376M437.18 368.977l-3.228-4.982" style="fill:none;stroke:red;stroke-width:1.99999;stroke-linecap:round;stroke-linejoin:round;stroke-miterlimit:4;stroke-dasharray:none;stroke-opacity:1;visibility:visible"/><path d="m419.846 277.043-8.92-1.935M421.822 276.624l-7.172-2.231M453.358 270.206l-6.944-2.414M388.296 283.378l-8.206-2.068M348.712 291.619l-8.932-1.793M337.252 290.312l-.228 6.688M334.504 359.109l-.445 3.279" style="fill:none;stroke:red;stroke-width:.999997;stroke-linecap:round;stroke-linejoin:round;stroke-miterlimit:4;stroke-dasharray:none;stroke-opacity:1;visibility:visible"/><path d="m334.056 358.29 5.873-1.143M349.331 356.623l5.492-2.373" style="fill:none;stroke:red;stroke-width:1.99999;stroke-linecap:round;stroke-linejoin:round;stroke-miterlimit:4;stroke-dasharray:none;stroke-opacity:1;visibility:visible"/><path d="m349.191 356.288-2.084 1.574M349.191 356.289l-2.084 1.573M334.503 359.11l2.574 1.079M334.504 359.109l2.573-5.999M354.342 356.287l-2.572 1.082M350.068 344.685l1.702 5.248M266.865 311.166l-2.377.996M262.111 311.165l2.377-5.863M280.411 308.563l-2.374.994M280.412 308.563l-2.375-5.865" style="fill:none;stroke:red;stroke-width:.666665;stroke-linecap:round;stroke-linejoin:round;stroke-miterlimit:2;stroke-dasharray:none;stroke-opacity:1;visibility:visible"/><path d="m286.777 415.435-3.46-5.634M284.379 404.317l-1.589 3.315" style="fill:none;stroke:red;stroke-width:.666665;stroke-linecap:round;stroke-linejoin:round;stroke-miterlimit:4;stroke-dasharray:none;stroke-opacity:1;visibility:visible"/><path d="M447.639 228.968c0 .557-.935 1.01-2.085 1.01s-2.087-.453-2.087-1.01c0-.556.937-1.008 2.087-1.008 1.15.001 2.085.451 2.085 1.008M273.125 265.876c0 .556-.935 1.008-2.086 1.008-1.148 0-2.085-.452-2.085-1.008s.937-1.007 2.085-1.007c1.152 0 2.086.45 2.086 1.007M346.383 312.264c0 .556-.932 1.009-2.083 1.009-1.149 0-2.084-.453-2.084-1.01 0-.554.935-1.006 2.084-1.006 1.151-.001 2.083.451 2.083 1.007" style="fill:none;stroke:#00ff4a;stroke-width:.666665;stroke-linecap:round;stroke-linejoin:round;stroke-miterlimit:2;stroke-dasharray:none;stroke-opacity:1;visibility:visible" visibility="hidden"/><path d="m161.699 297.18 48.444 36.747" style="fill:none;stroke:#00ff4a;stroke-width:1.99999;stroke-linecap:round;stroke-linejoin:round;stroke-miterlimit:4;stroke-dasharray:none;stroke-opacity:1;visibility:visible" visibility="hidden"/><path d="m176.673 290.46-14.973 1.807v4.913" style="fill:none;stroke:#00ff4a;stroke-width:.999997;stroke-linecap:round;stroke-linejoin:round;stroke-miterlimit:4;stroke-dasharray:none;stroke-opacity:1;visibility:visible" visibility="hidden"/><path d="m230.484 330.03-53.81-39.57" style="fill:none;stroke:#00ff4a;stroke-width:1.99999;stroke-linecap:round;stroke-linejoin:round;stroke-miterlimit:4;stroke-dasharray:none;stroke-opacity:1;visibility:visible" visibility="hidden"/><path d="m161.699 292.267 53.64 40.58M362.2 312.061 174.868 348.94l-7.574-6.295" style="fill:none;stroke:#00ff4a;stroke-width:.999997;stroke-linecap:round;stroke-linejoin:round;stroke-miterlimit:4;stroke-dasharray:none;stroke-opacity:1;visibility:visible" visibility="hidden"/><path d="m167.35 358.97 7.517 6.361 187.33-37.464v-15.806M98.765 283.398v13.986c.003 0 6.77 5.265 6.77 5.265" style="fill:none;stroke:#00ff4a;stroke-width:1.99999;stroke-linecap:round;stroke-linejoin:round;stroke-miterlimit:4;stroke-dasharray:none;stroke-opacity:1;visibility:visible" visibility="hidden"/><path d="m105.6 288.615-6.836-5.217" style="fill:none;stroke:#00ff4a;stroke-width:.999997;stroke-linecap:round;stroke-linejoin:round;stroke-miterlimit:4;stroke-dasharray:none;stroke-opacity:1;visibility:visible" visibility="hidden"/><path d="M456.524 242.414c5.047-1.537 7.15-3.24 7.956-4.612l-.037-12.198M98.765 283.398s24.67 4.878 136.648-14.381c59.09-10.161 104.137-18.781 220.527-45.979" style="fill:none;stroke:#00ff4a;stroke-width:1.99999;stroke-linecap:round;stroke-linejoin:round;stroke-miterlimit:4;stroke-dasharray:none;stroke-opacity:1;visibility:visible" visibility="hidden"/><path d="M463.938 223.77c.964 1.35-.636 3.505-7.364 5.554-120.59 27.389-157.625 33.984-216.681 44.651-121.453 21.933-134.055 14.659-134.055 14.659l-.05 13.555" style="fill:none;stroke:#00ff4a;stroke-width:.999997;stroke-linecap:round;stroke-linejoin:round;stroke-miterlimit:4;stroke-dasharray:none;stroke-opacity:1;visibility:visible" visibility="hidden"/><path d="M456.524 242.414c-76.69 18.139-119.724 27.067-156.117 34.05M268.94 282.385c-9.44 1.755-18.99 3.527-29.18 5.461-20.88 3.964-38.54 6.994-53.472 9.296M164.105 300.314c-51.453 6.67-58.265 2.158-58.265 2.158M455.94 223.038c3.51-1.17 7.04-.622 7.998.73M167.26 342.501v15.988M354.004 306.39 167.26 342.502M362.2 312.061l-8.195-5.672" style="fill:none;stroke:#00ff4a;stroke-width:1.99999;stroke-linecap:round;stroke-linejoin:round;stroke-miterlimit:4;stroke-dasharray:none;stroke-opacity:1;visibility:visible" visibility="hidden"/><path d="M265.928 279.65v-4.863" style="fill:none;stroke:#00ff4a;stroke-width:.999997;stroke-linecap:round;stroke-linejoin:round;stroke-miterlimit:4;stroke-dasharray:none;stroke-opacity:1;visibility:visible" visibility="hidden"/><path d="m319.405 312.83-53.477-33.181M289.954 270.597l64.05 35.793" style="fill:none;stroke:#00ff4a;stroke-width:1.99999;stroke-linecap:round;stroke-linejoin:round;stroke-miterlimit:4;stroke-dasharray:none;stroke-opacity:1;visibility:visible" visibility="hidden"/><path d="m325.32 311.66-59.39-36.873 24.026-4.19M174.868 348.94v16.392" style="fill:none;stroke:#00ff4a;stroke-width:.999997;stroke-linecap:round;stroke-linejoin:round;stroke-miterlimit:4;stroke-dasharray:none;stroke-opacity:1;visibility:visible" visibility="hidden"/><path d="m464.443 225.604-16.804 3.364M265.928 279.65l7.197-13.774M265.928 274.787l7.197-8.911M362.198 312.06l-15.815.204" style="fill:none;stroke:#00ff4a;stroke-width:.666665;stroke-linecap:round;stroke-linejoin:round;stroke-miterlimit:2;stroke-dasharray:none;stroke-opacity:1;visibility:visible" visibility="hidden"/><path d="m447.639 228.968 16.804-3.364M289.956 270.596l10.451 5.868M176.673 290.46l9.615 6.682" style="fill:none;stroke:#00ff4a;stroke-width:1.99999;stroke-linecap:round;stroke-linejoin:round;stroke-miterlimit:4;stroke-dasharray:none;stroke-opacity:1;visibility:visible" visibility="hidden"/><path d="m273.125 265.876-7.197 8.911M167.26 358.489l7.608-9.549" style="fill:none;stroke:#00ff4a;stroke-width:.999997;stroke-linecap:round;stroke-linejoin:round;stroke-miterlimit:4;stroke-dasharray:none;stroke-opacity:1;visibility:visible" visibility="hidden"/><path d="m346.383 312.264 3.915 18.063" style="fill:none;stroke:red;stroke-width:1.99999;stroke-linecap:round;stroke-linejoin:round;stroke-miterlimit:4;stroke-dasharray:none;stroke-opacity:1;visibility:visible"/><path d="m348.712 291.619-9.19-.517M388.296 283.378l-8.67-.836M419.846 277.043l-5.558-1.421M453.358 270.206l-7.428-1.39" style="fill:none;stroke:red;stroke-width:.666665;stroke-linecap:round;stroke-linejoin:round;stroke-miterlimit:2;stroke-dasharray:none;stroke-opacity:1;visibility:visible"/></svg>