<svg xmlns="http://www.w3.org/2000/svg" baseProfile="full" height="1122.667" preserveAspectRatio="xMinYMin meet" style="width:765px;height:943px" width="793.333" xml:space="preserve"><path d="M450.773 544.8v-.48M444.533 541.92l-.32.16v.16" style="fill:none;stroke:red;stroke-width:1.44;stroke-linecap:round;stroke-linejoin:round;stroke-miterlimit:10;stroke-dasharray:none;stroke-opacity:1;visibility:visible"/><path d="m444.693 541.28-.32.32-.16.32v1.12l.16.32.32.48.32.32.48.32.48.32.64.32.48.16.64.16.48.16h1.12l.48-.16.48-.16.32-.16.16-.32.32-.32v-.8M396.373 655.84l.64-1.44.32-.64.32-.64.32-.8.48-.48.32-.64.48-.48.48-.48.48-.48.64-.32.16-.16.32-.16.32-.16h.8l.32-.16.32.16h.8l.32.16.48.16.32.16.32.32.32.16.16.32.32.32.16.32.16.16.16.32.16.32.16.64v2.08l-.16.64-.16.8-.16.64-.16.8-.32.64-.48 1.44" style="fill:none;stroke:red;stroke-width:1.44;stroke-linecap:round;stroke-linejoin:round;stroke-miterlimit:10;stroke-dasharray:none;stroke-opacity:1;visibility:visible"/><path d="m396.373 655.84 9.12 3.52" style="fill:none;stroke:red;stroke-width:.64;stroke-linecap:round;stroke-linejoin:round;stroke-miterlimit:10;stroke-dasharray:none;stroke-opacity:1;visibility:visible"/><path d="m389.173 673.6 3.52-8.96 3.68-8.8" style="fill:none;stroke:red;stroke-width:1.44;stroke-linecap:round;stroke-linejoin:round;stroke-miterlimit:10;stroke-dasharray:none;stroke-opacity:1;visibility:visible"/><path d="m390.133 673.92-.96-.32" style="fill:none;stroke:red;stroke-width:.64;stroke-linecap:round;stroke-linejoin:round;stroke-miterlimit:10;stroke-dasharray:none;stroke-opacity:1;visibility:visible"/><path d="m405.493 659.36-1.6 4M387.573 680.16v-.8l.16-.96.16-.8.16-.8.32-.96.16-.8.32-.8.32-.64" style="fill:none;stroke:red;stroke-width:1.44;stroke-linecap:round;stroke-linejoin:round;stroke-miterlimit:10;stroke-dasharray:none;stroke-opacity:1;visibility:visible"/><path d="m442.453 541.44-.16-.16-.16.16h-.16v.16" style="fill:none;stroke:red;stroke-width:.64;stroke-linecap:round;stroke-linejoin:round;stroke-miterlimit:10;stroke-dasharray:none;stroke-opacity:1;visibility:visible"/><path d="m442.453 541.44.16-.32h-.48v.16h-.16v.32M453.013 545.44v-.32h-.16v-.16h-.16M441.973 541.28h.16" style="fill:none;stroke:red;stroke-width:.64;stroke-linecap:round;stroke-linejoin:round;stroke-miterlimit:10;stroke-dasharray:none;stroke-opacity:1;visibility:visible"/><path d="m452.693 544.96.16-.48v-.96l-.16-.48-.32-.48-.32-.48-.48-.48-.48-.48-.64-.48-.48-.32-.8-.32-.64-.16-.64-.32-.8-.16h-2.08l-.48.16-.64.16-.48.32-.32.32-.32.32-.16.48M453.013 545.76v-.16l-.16-.16-.16-.16v-.32M441.973 541.6l-.16.48v.96l.16.48.32.48.32.48.48.48.48.48.48.48.64.48.64.32.8.32.64.16.8.32h.8l.64.16h.64l.64-.16.64-.16.64-.16.48-.32.32-.32.32-.32.16-.48" style="fill:none;stroke:red;stroke-width:.64;stroke-linecap:round;stroke-linejoin:round;stroke-miterlimit:10;stroke-dasharray:none;stroke-opacity:1;visibility:visible"/><path d="m442.453 541.44-.16.48v.48l.16.48.16.48.16.48.48.48.32.48.48.48.64.48.64.32.64.32.64.32.8.16.64.16h2.08l.64-.16.48-.16.48-.32.32-.32.32-.32.32-.48" style="fill:none;stroke:red;stroke-width:.64;stroke-linecap:round;stroke-linejoin:round;stroke-miterlimit:10;stroke-dasharray:none;stroke-opacity:1;visibility:visible"/><path d="m441.973 541.28.32-.48.16-.32.32-.16.32-.32.32-.16.48-.32.48-.16h.32l.64-.16h1.44l.64.16.48.16.48.16.64.16.48.16.48.32.48.16.48.32.32.32.48.48.32.32.32.32.32.48.16.32.16.48.16.32v1.28l-.16.32v.32h-.16" style="fill:none;stroke:red;stroke-width:1.44;stroke-linecap:round;stroke-linejoin:round;stroke-miterlimit:10;stroke-dasharray:none;stroke-opacity:1;visibility:visible"/><path d="m360.693 740.48-30.08 73.92M441.973 541.6l-73.76 180.32" style="fill:none;stroke:red;stroke-width:.64;stroke-linecap:round;stroke-linejoin:round;stroke-miterlimit:10;stroke-dasharray:none;stroke-opacity:1;visibility:visible"/><path d="m379.413 725.76 73.44-180" style="fill:none;stroke:red;stroke-width:1.44;stroke-linecap:round;stroke-linejoin:round;stroke-miterlimit:10;stroke-dasharray:none;stroke-opacity:1;visibility:visible"/><path d="m368.213 721.92 73.76-180.64" style="fill:none;stroke:red;stroke-width:.64;stroke-linecap:round;stroke-linejoin:round;stroke-miterlimit:10;stroke-dasharray:none;stroke-opacity:1;visibility:visible"/><path d="M444.213 542.4v.32M450.453 545.12l.16-.16M368.213 721.92l73.76-180.64M330.453 814.4l30.08-73.92" style="fill:none;stroke:red;stroke-width:1.44;stroke-linecap:round;stroke-linejoin:round;stroke-miterlimit:10;stroke-dasharray:none;stroke-opacity:1;visibility:visible"/><path d="m444.853 540.96-.16.32.16.48v.32l.32.32.16.48.48.32.48.32.48.32.48.32.64.16h.48l.64.16h.48l.48-.16.48-.16.32-.16.16-.32.32-.32" style="fill:none;stroke:red;stroke-width:.64;stroke-linecap:round;stroke-linejoin:round;stroke-miterlimit:10;stroke-dasharray:none;stroke-opacity:1;visibility:visible"/><path d="M450.613 542.4v-.64l-.16-.32-.16-.32-.16-.16-.48-.32-.32-.32-.48-.16-.32-.16-.48-.16h-.96l-.32.16h-.32l-.32.32-.16.16v.32l-.16.32.16.16.16.32.16.32.32.32.32.32.48.16.48.16.32.16.48.16h.96l.32-.16.32-.16.16-.16.16-.32" style="fill:none;stroke:red;stroke-width:.64;stroke-linecap:round;stroke-linejoin:round;stroke-miterlimit:10;stroke-dasharray:none;stroke-opacity:1;visibility:visible"/><path d="m370.773 724.64-.16.16M376.853 727.52l.16-.32M444.853 540.96l-.64 1.44M451.253 543.36l-.64 1.6M451.253 543.36v-1.12l-.16-.32v-.16l-.16-.32-.16-.16-.48-.48-.32-.32-.48-.32-.64-.16-.48-.32h-2.08l-.32.16-.16.16h-.32l-.16.32-.16.16-.16.16-.16.32" style="fill:none;stroke:red;stroke-width:1.44;stroke-linecap:round;stroke-linejoin:round;stroke-miterlimit:10;stroke-dasharray:none;stroke-opacity:1;visibility:visible"/><path d="m371.413 723.04-.16.48v.32l.16.32.16.48.32.32.32.48.48.32.48.32.48.16.64.32h.48l.64.16h.48l.48-.16h.48l.32-.32.32-.16.16-.32" style="fill:none;stroke:red;stroke-width:.64;stroke-linecap:round;stroke-linejoin:round;stroke-miterlimit:10;stroke-dasharray:none;stroke-opacity:1;visibility:visible"/><path d="m377.013 724.64.16-.16v-.32l-.16-.32-.16-.32-.32-.32-.32-.32-.32-.32-.48-.16-.48-.16-.32-.16h-1.28l-.32.16-.32.16-.16.32-.16.16v.32l.16.32v.32l.32.32.32.32.32.32.32.16.48.16.48.16.48.16h.8l.32-.16.32-.16.16-.16.16-.32" style="fill:none;stroke:red;stroke-width:.64;stroke-linecap:round;stroke-linejoin:round;stroke-miterlimit:10;stroke-dasharray:none;stroke-opacity:1;visibility:visible"/><path d="M253.013 574.24v.32M259.253 576.96l.16-.16M371.413 723.04l-.64 1.6M377.653 725.76l-.64 1.44M377.653 725.76v-.32l.16-.32v-.32l-.16-.16v-.32l-.16-.32v-.16l-.16-.32-.48-.32-.48-.48-.48-.32-.48-.16-.64-.32h-.48l-.64-.16-.48.16h-.64l-.16.16-.32.16-.16.16-.16.16-.32.32v.16" style="fill:none;stroke:red;stroke-width:1.44;stroke-linecap:round;stroke-linejoin:round;stroke-miterlimit:10;stroke-dasharray:none;stroke-opacity:1;visibility:visible"/><path d="m253.653 572.8-.16.32.16.32v.48l.32.32.16.48.48.32.48.32.48.32.48.16.64.32h.48l.64.16h.48l.48-.16.48-.16.32-.16.16-.32.32-.32" style="fill:none;stroke:red;stroke-width:.64;stroke-linecap:round;stroke-linejoin:round;stroke-miterlimit:10;stroke-dasharray:none;stroke-opacity:1;visibility:visible"/><path d="M259.413 574.24v-.64l-.16-.32-.16-.32-.16-.32-.32-.16-.48-.32-.48-.16-.32-.16-.48-.16h-1.28l-.32.16-.32.16-.16.32v.32l-.16.16.16.32.16.32.16.32.32.32.32.32.48.16.48.16.48.16.32.16h.48l.48-.16h.32l.32-.16.16-.32.16-.16" style="fill:none;stroke:red;stroke-width:.64;stroke-linecap:round;stroke-linejoin:round;stroke-miterlimit:10;stroke-dasharray:none;stroke-opacity:1;visibility:visible"/><path d="m556.053 693.92-.16.16M562.293 696.64v-.32M253.653 572.8l-.64 1.44M260.053 575.2l-.64 1.6M260.053 575.2v-1.12l-.16-.32v-.16l-.16-.32-.16-.16-.32-.48-.48-.32-.48-.32-.64-.32-.48-.16h-.64l-.64-.16-.48.16h-.32l-.16.16h-.32l-.32.16-.16.16-.16.32-.16.16-.16.32" style="fill:none;stroke:red;stroke-width:1.44;stroke-linecap:round;stroke-linejoin:round;stroke-miterlimit:10;stroke-dasharray:none;stroke-opacity:1;visibility:visible"/><path d="M556.533 692.32v.8l.16.32.16.48.32.32.32.48.48.32.48.32.64.16.48.16.64.16h1.44l.48-.16.32-.32.32-.16.16-.48" style="fill:none;stroke:red;stroke-width:.64;stroke-linecap:round;stroke-linejoin:round;stroke-miterlimit:10;stroke-dasharray:none;stroke-opacity:1;visibility:visible"/><path d="m562.293 693.76.16-.32v-.16l-.16-.32-.16-.32-.32-.32-.32-.32-.32-.32-.48-.16-.48-.16-.48-.16h-.8l-.32.16-.48.16-.16.16-.16.16-.16.32v.64l.16.32.32.32.32.32.32.16.32.32.48.16.48.16h1.28l.32-.16.32-.16.16-.16.16-.32" style="fill:none;stroke:red;stroke-width:.64;stroke-linecap:round;stroke-linejoin:round;stroke-miterlimit:10;stroke-dasharray:none;stroke-opacity:1;visibility:visible"/><path d="m556.533 692.32-.48 1.6M562.933 694.72l-.64 1.6M562.933 694.72l.16-.16v-.96l-.16-.16-.16-.32-.16-.32-.16-.16-.32-.48-.48-.32-.48-.32-.48-.16-.64-.32h-1.92l-.32.16-.32.16-.16.16-.32.16-.16.16-.16.32-.16.16M377.173 727.04l.16-.16-.16-.16M370.933 724.16h-.16l-.16.16" style="fill:none;stroke:red;stroke-width:1.44;stroke-linecap:round;stroke-linejoin:round;stroke-miterlimit:10;stroke-dasharray:none;stroke-opacity:1;visibility:visible"/><path d="m371.253 723.36-.32.32-.16.32-.16.32v.48l.16.32.16.48.32.32.32.48.32.32.48.32.64.32.48.16.64.16.48.16h1.12l.48-.16.48-.16.32-.16.32-.32.16-.32v-.64" style="fill:none;stroke:red;stroke-width:1.44;stroke-linecap:round;stroke-linejoin:round;stroke-miterlimit:10;stroke-dasharray:none;stroke-opacity:1;visibility:visible"/><path d="M379.413 727.84v-.32h-.16v-.16h-.16v.32M379.253 728.16l.16-.32" style="fill:none;stroke:red;stroke-width:.64;stroke-linecap:round;stroke-linejoin:round;stroke-miterlimit:10;stroke-dasharray:none;stroke-opacity:1;visibility:visible"/><path d="M379.253 728.16h.16V728l-.16-.16v-.16h-.16M369.013 723.52h-.16v-.16h-.16v.16h-.16l-.16.16-.16.48v.48l.16.48v.64l.32.48.32.48.48.48.48.64.48.32.64.48.64.32.64.32.8.32.8.16.64.16.8.16h.64l.64-.16.64-.16.48-.16.48-.32.48-.32.32-.32.16-.48" style="fill:none;stroke:red;stroke-width:.64;stroke-linecap:round;stroke-linejoin:round;stroke-miterlimit:10;stroke-dasharray:none;stroke-opacity:1;visibility:visible"/><path d="m369.013 723.52-.16.32v1.12l.16.48.32.48.32.48.32.48.64.48.48.48.64.32.64.32.64.32.8.32.64.16h2.08l.48-.16.64-.16.48-.16.32-.32.32-.48.32-.32M369.173 723.2h-.48l-.16.16M379.413 727.84h.16M369.013 723.52l.16-.32M379.093 727.36l.16-.48.16-.48-.16-.48-.16-.48-.16-.48-.32-.48-.48-.64-.48-.32-.64-.48-.48-.48-.64-.32-.8-.32-.64-.16-.8-.16-.64-.16h-.64l-.64.16h-.64l-.48.32-.48.16-.48.32-.32.32-.16.48" style="fill:none;stroke:red;stroke-width:.64;stroke-linecap:round;stroke-linejoin:round;stroke-miterlimit:10;stroke-dasharray:none;stroke-opacity:1;visibility:visible"/><path d="m368.373 723.68.16-.32.16-.32.32-.32.32-.32.32-.32.32-.16.48-.16.32-.16.48-.16h2.08l.64.16h.48l.48.16.48.32.64.16.48.32.48.32.32.32.48.32.32.32.48.32.32.48.16.32.16.48.16.32.16.48v1.28l-.16.32" style="fill:none;stroke:red;stroke-width:1.44;stroke-linecap:round;stroke-linejoin:round;stroke-miterlimit:10;stroke-dasharray:none;stroke-opacity:1;visibility:visible"/><path d="m379.413 727.84-75.04 184" style="fill:none;stroke:red;stroke-width:.64;stroke-linecap:round;stroke-linejoin:round;stroke-miterlimit:10;stroke-dasharray:none;stroke-opacity:1;visibility:visible"/><path d="m304.373 911.84.16-.48 74.88-183.52" style="fill:none;stroke:red;stroke-width:1.44;stroke-linecap:round;stroke-linejoin:round;stroke-miterlimit:10;stroke-dasharray:none;stroke-opacity:1;visibility:visible"/><path d="m298.933 924.96 80.32-196.8" style="fill:none;stroke:red;stroke-width:.64;stroke-linecap:round;stroke-linejoin:round;stroke-miterlimit:10;stroke-dasharray:none;stroke-opacity:1;visibility:visible"/><path d="m302.133 917.28-3.2 7.68M368.373 723.68l-80.32 196.8M288.053 920.48l-.16.48-.16.64v.64l.16.64.16.64.32.48.32.64.48.48.64.64.48.32.8.48.64.32.64.32.8.16h2.24l.64-.16.64-.16.64-.32.48-.32.48-.48.32-.48.32-.48M304.373 911.84l-2.24 5.44M562.613 696.16v-.48M556.213 693.28l-.16.16-.16.16M556.533 692.64l-.32.32-.16.32-.16.32v.32l.16.48.16.48.32.32.32.48.48.32.48.32.48.16.64.32.48.16h.64l.48.16.64-.16.48-.16.32-.16.32-.16.32-.32.16-.32.16-.32-.16-.48M490.773 785.92l-.16.8-.16.32-.16.32-.16.16v.16l-.16.16-.16.16h-.32l-.16-.16v-.48l.16-.32.16-.16.16-.32.16-.16.32-.32.32-.32.64-.48.64-.48.64-.32.64-.64.32-.16.16-.16M474.133 786.08l-.8.64-.64.64-.8.64-.8.48-.32.16-.48.16-.32.16-.48.16h-1.28l-.32-.16-.16-.16-.16-.16v-.16l-.16-.16.16-.16V788l.16-.32.32-.32.32-.48.32-.32.48-.32.96-.8.96-.64.48-.48.48-.32" style="fill:none;stroke:red;stroke-width:1.44;stroke-linecap:round;stroke-linejoin:round;stroke-miterlimit:10;stroke-dasharray:none;stroke-opacity:1;visibility:visible"/><path d="m474.133 786.08.32-1.12" style="fill:none;stroke:red;stroke-width:.64;stroke-linecap:round;stroke-linejoin:round;stroke-miterlimit:10;stroke-dasharray:none;stroke-opacity:1;visibility:visible"/><path d="m487.253 768.16.64-.64.32-.48.48-.64.48-.64" style="fill:none;stroke:red;stroke-width:1.44;stroke-linecap:round;stroke-linejoin:round;stroke-miterlimit:10;stroke-dasharray:none;stroke-opacity:1;visibility:visible"/><path d="m490.133 762.72-.16.16-.16.32v.16l-.16.32-.16.48-.16.8-.48 1.76-.32.8-.16.96-.32.8-.32.64-.32.8-.48.64-.48.8-.32.64-.48.64-.48.48" style="fill:none;stroke:red;stroke-width:1.44;stroke-linecap:round;stroke-linejoin:round;stroke-miterlimit:10;stroke-dasharray:none;stroke-opacity:1;visibility:visible"/><path d="m487.253 768.16-2.08 5.76" style="fill:none;stroke:red;stroke-width:.64;stroke-linecap:round;stroke-linejoin:round;stroke-miterlimit:10;stroke-dasharray:none;stroke-opacity:1;visibility:visible"/><path d="m485.173 773.92-5.6 6.08-5.44 6.08M487.093 768.48l.16-.32" style="fill:none;stroke:red;stroke-width:1.44;stroke-linecap:round;stroke-linejoin:round;stroke-miterlimit:10;stroke-dasharray:none;stroke-opacity:1;visibility:visible"/><path d="M558.453 697.76v.16h-.16v.32l-.16.16.8.32.64.16.8.16h1.92l.64-.16.64-.16.48-.16.32-.32.32-.32" style="fill:none;stroke:red;stroke-width:.64;stroke-linecap:round;stroke-linejoin:round;stroke-miterlimit:10;stroke-dasharray:none;stroke-opacity:1;visibility:visible"/><path d="m558.453 697.76.64.32.8.16.64.16h1.44l.64-.16h.48l.48-.32.48-.16.32-.32.32-.48.16-.32.16-.48v-.48l-.16-.48-.16-.48-.16-.48-.48-.48-.32-.48-.64-.48-.48-.32-.64-.48M557.973 697.6l-.16.16v.32h-.16v.16l.48.16M558.453 697.76l-.48-.16M553.813 691.84l-.32.32-.16.48-.16.48v.48l.16.48.16.48.32.64.32.48.48.48.48.48.64.48.64.48.64.32.64.32" style="fill:none;stroke:red;stroke-width:.64;stroke-linecap:round;stroke-linejoin:round;stroke-miterlimit:10;stroke-dasharray:none;stroke-opacity:1;visibility:visible"/><path d="m559.093 691.04-.64-.16-.64-.16h-.8l-.64.16h-.64l-.48.16-.48.32-.32.32-.32.32-.32.32v.48l-.16.48.16.48.16.48.16.48.32.48.48.48.48.48.48.48.64.32.64.32.8.32" style="fill:none;stroke:red;stroke-width:.64;stroke-linecap:round;stroke-linejoin:round;stroke-miterlimit:10;stroke-dasharray:none;stroke-opacity:1;visibility:visible"/><path d="m561.493 691.68.48.32.48.32.48.32.48.32.48.32.32.48.32.32.32.48.16.48.16.32.16.48v.96l-.16.32-.16.48-.32.32M553.813 691.84l.16-.16.32-.32.32-.16.32-.16.32-.16h.32l.32-.16h.8l.48-.16.8.16.96.16.8.16M381.493 883.68l-.8.8-.8.96M380.053 885.92l.8-.8v.48l.16.48.16.64.16.48.32.64.48.48.48.64.48.48.48.48M376.533 899.84l1.12-1.6 1.12-1.6 1.12-1.44.96-1.44.96-1.28.96-1.28.8-1.28" style="fill:none;stroke:red;stroke-width:1.44;stroke-linecap:round;stroke-linejoin:round;stroke-miterlimit:10;stroke-dasharray:none;stroke-opacity:1;visibility:visible"/><path d="m376.533 899.84 181.12-201.6" style="fill:none;stroke:red;stroke-width:.64;stroke-linecap:round;stroke-linejoin:round;stroke-miterlimit:10;stroke-dasharray:none;stroke-opacity:1;visibility:visible"/><path d="m468.213 787.04-86.72 96.64M553.813 691.84l-63.68 70.88M376.533 899.84l-4.32 5.76 9.12 5.6.64.32.64.32.64.32.48.16h.64l.64.16.48-.16h.64l.32-.32.48-.16.32-.32" style="fill:none;stroke:red;stroke-width:1.44;stroke-linecap:round;stroke-linejoin:round;stroke-miterlimit:10;stroke-dasharray:none;stroke-opacity:1;visibility:visible"/><path d="m558.133 698.4-176.8 212.8" style="fill:none;stroke:red;stroke-width:.64;stroke-linecap:round;stroke-linejoin:round;stroke-miterlimit:10;stroke-dasharray:none;stroke-opacity:1;visibility:visible"/><path d="m489.973 787.84-102.72 123.68M564.693 697.92l-71.04 85.6M259.573 576.64v-.48M253.333 573.76l-.16.16-.16.16M253.493 573.12l-.32.16-.16.32v1.12l.16.48.32.48.48.32.32.32.48.32.64.32.48.16.64.16.48.16h1.12l.48-.16.48-.16.32-.16.32-.32.16-.32v-.8M245.013 685.28v.32l.16.48v.32l.16.48.16.8.16.8.32.8v1.44l-.16.32v.16l-.16.32h-.16l-.16.16h-.32l-.16-.16v-.8l.16-.32.16-.32v-.48l.48-.64M260.693 701.44l.32 1.12.16 1.12.16 1.12v1.44l-.16.32-.16.16-.16.16h-.8l-.16-.16-.32-.32-.16-.16-.32-.32-.16-.32-.32-.8-.32-.8-.16-.8-.32-.96v-1.76" style="fill:none;stroke:red;stroke-width:1.44;stroke-linecap:round;stroke-linejoin:round;stroke-miterlimit:10;stroke-dasharray:none;stroke-opacity:1;visibility:visible"/><path d="M257.813 700.48v-.16" style="fill:none;stroke:red;stroke-width:.64;stroke-linecap:round;stroke-linejoin:round;stroke-miterlimit:10;stroke-dasharray:none;stroke-opacity:1;visibility:visible"/><path d="M257.813 684v-1.44l.16-.8.16-.8.16-.8.32-.8.16-.8.32-.8.32-.8.48-.8.8-1.6.32-.8.32-.32v-.32l.16-.16.16-.32v-.16" style="fill:none;stroke:red;stroke-width:1.44;stroke-linecap:round;stroke-linejoin:round;stroke-miterlimit:10;stroke-dasharray:none;stroke-opacity:1;visibility:visible"/><path d="M260.213 675.36v.8l-.16.8v.8l-.16.8" style="fill:none;stroke:red;stroke-width:1.44;stroke-linecap:round;stroke-linejoin:round;stroke-miterlimit:10;stroke-dasharray:none;stroke-opacity:1;visibility:visible"/><path d="m259.893 678.56-2.08 5.44" style="fill:none;stroke:red;stroke-width:.64;stroke-linecap:round;stroke-linejoin:round;stroke-miterlimit:10;stroke-dasharray:none;stroke-opacity:1;visibility:visible"/><path d="M257.813 687.68V684M257.813 700.48v-.16M259.893 678.56v1.12" style="fill:none;stroke:red;stroke-width:1.44;stroke-linecap:round;stroke-linejoin:round;stroke-miterlimit:10;stroke-dasharray:none;stroke-opacity:1;visibility:visible"/><path d="M255.253 578.08v.32l-.16.16v.16" style="fill:none;stroke:red;stroke-width:.64;stroke-linecap:round;stroke-linejoin:round;stroke-miterlimit:10;stroke-dasharray:none;stroke-opacity:1;visibility:visible"/><path d="m255.253 578.08-.32-.16-.16.16v.16l-.16.16v.16l.48.16M250.293 573.92v.8l.32.48.16.48.48.48.32.48.48.48.64.32.64.48.64.32.64.32" style="fill:none;stroke:red;stroke-width:.64;stroke-linecap:round;stroke-linejoin:round;stroke-miterlimit:10;stroke-dasharray:none;stroke-opacity:1;visibility:visible"/><path d="M255.893 571.36h-.64l-.8-.16h-.64l-.64.16-.64.16-.48.16-.32.32-.48.32-.16.32-.16.48-.16.32v.48l.16.48.32.64.32.48.32.48.48.48.48.32.64.48.64.32.8.32M255.093 578.72l.8.32.64.16.8.16h2.24l.48-.16.64-.16.48-.32.48-.32.32-.32.16-.32.16-.48.16-.48" style="fill:none;stroke:red;stroke-width:.64;stroke-linecap:round;stroke-linejoin:round;stroke-miterlimit:10;stroke-dasharray:none;stroke-opacity:1;visibility:visible"/><path d="m255.253 578.08.8.32.64.16.8.16h1.92l.64-.16.48-.16.48-.16.48-.32.16-.32.32-.48.16-.32v-.48l-.16-.48-.16-.48-.16-.48-.32-.48-.48-.48-.48-.48-.64-.32-.48-.48" style="fill:none;stroke:red;stroke-width:.64;stroke-linecap:round;stroke-linejoin:round;stroke-miterlimit:10;stroke-dasharray:none;stroke-opacity:1;visibility:visible"/><path d="M250.293 573.92v-.48l.16-.32.16-.48.16-.32.32-.32.32-.16.48-.16.32-.32h.48l.48-.16h2.08l.64.16.48.16M258.773 572.32l.8.48.64.48.64.48.48.64.32.32.16.16.16.32.16.32.16.32v.32l.16.32v.32" style="fill:none;stroke:red;stroke-width:1.44;stroke-linecap:round;stroke-linejoin:round;stroke-miterlimit:10;stroke-dasharray:none;stroke-opacity:1;visibility:visible"/><path d="m255.093 578.72-2.08 256.32" style="fill:none;stroke:red;stroke-width:.64;stroke-linecap:round;stroke-linejoin:round;stroke-miterlimit:10;stroke-dasharray:none;stroke-opacity:1;visibility:visible"/><path d="M253.813 828.96h2.88l.64-.16.64-.16.64-.32.48-.32.32-.32.48-.32.16-.32v.16M253.813 828.96l-.16 1.44-.16 1.44-.32 1.6-.16 1.6M260.373 826.72v-.8M260.373 826.72h-.16v.32l-.16.16M261.333 705.44l-.96 120.48M262.453 576.8l-.8 95.68" style="fill:none;stroke:red;stroke-width:1.44;stroke-linecap:round;stroke-linejoin:round;stroke-miterlimit:10;stroke-dasharray:none;stroke-opacity:1;visibility:visible"/><path d="m242.293 846.4 12.32-267.84" style="fill:none;stroke:red;stroke-width:.64;stroke-linecap:round;stroke-linejoin:round;stroke-miterlimit:10;stroke-dasharray:none;stroke-opacity:1;visibility:visible"/><path d="M237.813 842.08v.64l.16.48.16.48.32.48.32.48.48.32.48.48.64.32.64.16.64.32.64.16M244.853 691.2l-7.04 150.88M250.293 573.92l-5.28 111.36M242.293 846.4l9.12 1.6 1.6-12.96M251.893 847.84l-.48.16M260.053 828.64l.32-1.92M260.053 827.2l-.16 1.28M303.093 914.88l2.56-.64 1.28-.32 1.44-.32.64-.16.8-.16.8-.16.8-.16 3.36-.64 3.52-.8 3.36-.48.48-.16h.48l.48-.16 1.92-.32 3.84-.64 7.84-1.28 10.08-1.6 4.96-.96 2.56-.32 1.28-.16 1.12-.16 1.12-.16 1.12-.16 1.12-.16.96-.16h.96l.96-.16.96-.16h.8l1.76-.16 1.6-.16 3.2-.32M309.013 900.48l72.64-12.16M322.293 889.76l-9.6 1.6M340.853 886.72l-11.68 1.92M359.413 883.52l-11.68 1.92M372.053 881.44l-5.76.96M379.573 884.96l-7.52-3.52M251.893 848.32l1.92 2.72.96 1.28.96 1.44 1.12 1.44.64.8.48.8.64.8.48.96.64.8.64.96.64.96.8 1.12.64.96.8 1.12 3.04 4.8 3.04 4.64 3.04 4.96 3.04 4.8 2.88 4.96 2.88 5.12.64 1.28.32.64.48.48.48 1.12.64 1.12.48.96.48.8.48.96.48.8.96 1.76.96 1.6 3.84 6.88M293.973 872.32l-16.96-27.36M302.133 885.76l-4.48-7.36M273.173 839.04l-3.68-6.08-10.4-4.96-.16.16M251.893 848.32l5.28-19.52M257.493 828.8l40.96 66.08M288.213 842.24l7.04-1.28 12-1.92M280.853 822.56l-20.48 3.52M317.493 816.48l-29.76 4.96M331.413 814.24l-6.88 1.12M261.333 829.12l8.16 3.84M283.413 830.72l44.32-7.36M260.213 827.36l1.12 1.76M340.533 854.72l2.24 3.68 2.4 3.68 2.24 3.68 2.4 3.84M366.453 872.48l-27.68-44.8M372.053 881.44l6.88 3.36M351.253 832.64l16.8 27.2M342.453 818.56l4.96 8M378.933 884.8l1.76-.32M282.133 853.44l9.76-23.84-8.64 1.44M279.893 831.52l-9.44 1.6-.32.8M305.333 877.92l-4.64-2.24M322.773 886.08l-6.56-3.2M347.733 842.72l-9.12-14.72M327.573 823.68l-15.04 2.4M334.933 836.8l12.8 5.92M312.533 826.08l11.68 5.6M341.333 855.04l6.4-12.32M319.093 844.48l-12.96-6.08M341.333 855.04l-11.52-5.44M306.133 838.4l6.4-12.32M366.293 872.8l-7.04-11.52M371.253 880.8l-3.2-5.28" style="fill:none;stroke:red;stroke-width:1.44;stroke-linecap:round;stroke-linejoin:round;stroke-miterlimit:10;stroke-dasharray:none;stroke-opacity:1;visibility:visible"/><path d="M316.853 911.84h.64l.48-.16M283.893 898.56l-.64-.48-.48-.32-.48-.48-.32-.48-.32-.64v-.48l-.16-.64v-.64M262.933 864l-.48-.32-.32-.32-.32-.32-.16-.32-.32-.32-.16-.32v-.48l-.16-.32M317.493 911.68v.16" style="fill:none;stroke:red;stroke-width:.64;stroke-linecap:round;stroke-linejoin:round;stroke-miterlimit:10;stroke-dasharray:none;stroke-opacity:1;visibility:visible"/><path d="m374.933 871.04 4 5.28 4.16 5.44M489.493 787.2l.16-.16.16-.16.32-.16.32-.32.32-.32.32-.48.32-.32M489.653 786.72l.16-.16.32-.32.16-.16M489.493 787.2h.16M245.653 688.16v.48l-.16.48v1.28l.16.32v.32M245.973 689.28l-.16.48v.8l.16.32M245.653 691.04l.16.16" style="fill:none;stroke:red;stroke-width:1.44;stroke-linecap:round;stroke-linejoin:round;stroke-miterlimit:10;stroke-dasharray:none;stroke-opacity:1;visibility:visible"/><path d="m370.933 721.6 26.72-64.96M404.853 659.36l-26.56 64.48M398.613 676.64l-19.68 48M378.613 724.32l26.56-64.32" style="fill:none;stroke:red;stroke-width:.64;stroke-linecap:round;stroke-linejoin:round;stroke-miterlimit:10;stroke-dasharray:none;stroke-opacity:1;visibility:visible"/><path d="M398.613 676.64h.16M398.613 676.64l6.56-16.64v-.32l-.16-.16-.16-.16-7.2-2.72" style="fill:none;stroke:red;stroke-width:1.44;stroke-linecap:round;stroke-linejoin:round;stroke-miterlimit:10;stroke-dasharray:none;stroke-opacity:1;visibility:visible"/><path d="M397.653 656.64h-.48v.16l-26.88 64.96M398.613 676.64l-19.68 48" style="fill:none;stroke:red;stroke-width:1.44;stroke-linecap:round;stroke-linejoin:round;stroke-miterlimit:10;stroke-dasharray:none;stroke-opacity:1;visibility:visible"/><path d="m473.973 768.64-119.2 19.84" style="fill:none;stroke:red;stroke-width:.64;stroke-linecap:round;stroke-linejoin:round;stroke-miterlimit:10;stroke-dasharray:none;stroke-opacity:1;visibility:visible"/><path d="m473.973 768.64-14.4-5.6" style="fill:none;stroke:red;stroke-width:1.44;stroke-linecap:round;stroke-linejoin:round;stroke-miterlimit:10;stroke-dasharray:none;stroke-opacity:1;visibility:visible"/><path d="m469.173 782.72-120.32 20M354.453 789.12l120-19.84" style="fill:none;stroke:red;stroke-width:.64;stroke-linecap:round;stroke-linejoin:round;stroke-miterlimit:10;stroke-dasharray:none;stroke-opacity:1;visibility:visible"/><path d="m469.173 782.72 5.28-13.44M459.573 763.04h-.32v-.16l-.16.16M474.453 769.28v-.32h-.16v-.16h-.16l-.16-.16M469.013 782.88h.16v-.16M348.853 802.88l120.16-20M358.293 779.68l100.8-16.64" style="fill:none;stroke:red;stroke-width:1.44;stroke-linecap:round;stroke-linejoin:round;stroke-miterlimit:10;stroke-dasharray:none;stroke-opacity:1;visibility:visible"/><path d="m257.813 684.48 109.12 42.72M474.453 769.28l10.56 4.16M377.973 731.52l80.64 31.52" style="fill:none;stroke:red;stroke-width:.64;stroke-linecap:round;stroke-linejoin:round;stroke-miterlimit:10;stroke-dasharray:none;stroke-opacity:1;visibility:visible"/><path d="m257.653 700 .16-15.52" style="fill:none;stroke:red;stroke-width:1.44;stroke-linecap:round;stroke-linejoin:round;stroke-miterlimit:10;stroke-dasharray:none;stroke-opacity:1;visibility:visible"/><path d="M361.493 740.64 257.653 700M430.773 767.68l-58.24-22.72M474.773 784.96l-5.6-2.24" style="fill:none;stroke:red;stroke-width:.64;stroke-linecap:round;stroke-linejoin:round;stroke-miterlimit:10;stroke-dasharray:none;stroke-opacity:1;visibility:visible"/><path d="m474.773 784.96 10.24-11.52M259.733 679.52h-.16" style="fill:none;stroke:red;stroke-width:1.44;stroke-linecap:round;stroke-linejoin:round;stroke-miterlimit:10;stroke-dasharray:none;stroke-opacity:1;visibility:visible"/><path d="m259.573 679.52 109.6 42.88" style="fill:none;stroke:red;stroke-width:.64;stroke-linecap:round;stroke-linejoin:round;stroke-miterlimit:10;stroke-dasharray:none;stroke-opacity:1;visibility:visible"/><path d="M257.653 700v.32M257.813 683.84l1.76-4.32M257.813 683.84v.64" style="fill:none;stroke:red;stroke-width:1.44;stroke-linecap:round;stroke-linejoin:round;stroke-miterlimit:10;stroke-dasharray:none;stroke-opacity:1;visibility:visible"/><path d="m379.573 726.56 107.52 41.92" style="fill:none;stroke:red;stroke-width:.64;stroke-linecap:round;stroke-linejoin:round;stroke-miterlimit:10;stroke-dasharray:none;stroke-opacity:1;visibility:visible"/><path d="m485.493 772.8.64-1.6M485.013 773.44l.16-.16.16-.16v-.16h.16v-.16M474.613 784.96h.16" style="fill:none;stroke:red;stroke-width:1.44;stroke-linecap:round;stroke-linejoin:round;stroke-miterlimit:10;stroke-dasharray:none;stroke-opacity:1;visibility:visible"/><path d="m367.253 726.56-109.44-42.72M485.493 772.8l-107.36-41.92" style="fill:none;stroke:red;stroke-width:.64;stroke-linecap:round;stroke-linejoin:round;stroke-miterlimit:10;stroke-dasharray:none;stroke-opacity:1;visibility:visible"/><path d="m361.493 740.8-103.84-40.48M430.453 767.68l-58.08-22.56M474.613 784.96l-5.6-2.08M487.093 768.48l-107.52-42.08M369.333 722.4l-109.6-42.88" style="fill:none;stroke:red;stroke-width:1.44;stroke-linecap:round;stroke-linejoin:round;stroke-miterlimit:10;stroke-dasharray:none;stroke-opacity:1;visibility:visible"/><path d="m487.093 768.48-.96 2.72M397.653 656.64l-7.52 17.28" style="fill:none;stroke:red;stroke-width:.64;stroke-linecap:round;stroke-linejoin:round;stroke-miterlimit:10;stroke-dasharray:none;stroke-opacity:1;visibility:visible"/><path d="m405.173 660-1.28 3.36" style="fill:none;stroke:red;stroke-width:1.44;stroke-linecap:round;stroke-linejoin:round;stroke-miterlimit:10;stroke-dasharray:none;stroke-opacity:1;visibility:visible"/><path d="m451.093 543.68-.48-1.28M450.613 544.96v-2.56M379.093 727.68l-2.08-3.04M378.293 723.84l-1.28.8M259.893 575.52l-.48-1.28M259.253 576.96l.16-2.72M562.933 694.72l-.64-.96M562.293 696.32v-2.56" style="fill:none;stroke:red;stroke-width:.64;stroke-linecap:round;stroke-linejoin:round;stroke-miterlimit:10;stroke-dasharray:none;stroke-opacity:1;visibility:visible"/><path d="m493.653 783.52-4.48-17.76M474.133 786.08l-5.92.96" style="fill:none;stroke:red;stroke-width:1.44;stroke-linecap:round;stroke-linejoin:round;stroke-miterlimit:10;stroke-dasharray:none;stroke-opacity:1;visibility:visible"/><path d="m376.533 899.84 4.8 11.36" style="fill:none;stroke:red;stroke-width:.64;stroke-linecap:round;stroke-linejoin:round;stroke-miterlimit:10;stroke-dasharray:none;stroke-opacity:1;visibility:visible"/><path d="m261.653 672.48-1.44 2.88M257.813 684.48v3.2M257.813 700.48l3.52 4.96M317.973 911.68l-14.88 3.2M322.293 889.76l-13.28 10.72M378.933 884.8l2.72 3.52M329.173 888.64l-6.88 1.12M347.733 885.44l-6.88 1.28M322.293 889.76l6.88-1.12M366.293 882.4l-6.88 1.12M340.853 886.72l6.88-1.28M359.413 883.52l6.88-1.12M297.653 878.4l-3.68-6.08M273.173 839.04l3.84 5.92M293.973 872.32l3.68 6.08M277.013 844.96l-3.84-5.92M297.653 878.4l.8 16.48M279.893 831.52l8.32 10.72M312.533 826.08l-5.28 12.96M287.733 821.44l-6.88 1.12M324.533 815.36l-7.04 1.12M280.853 822.56l6.88-1.12M317.493 816.48l7.04-1.12M359.253 861.28l-9.44 8.32M347.413 826.56l3.84 6.08M359.253 861.28l8.8-1.44M351.253 832.64l-3.84-6.08M366.293 882.4l14.4 2.08M283.253 831.04l-3.36.48M316.213 882.88l-10.88-4.96M305.333 877.92l10.88 4.96M324.213 831.68l10.72 5.12M334.933 836.8l-10.72-5.12M329.813 849.6l-10.72-5.12M319.093 844.48l10.72 5.12M368.053 859.84l-8.8 1.44M366.293 872.8l1.76 2.72" style="fill:none;stroke:red;stroke-width:1.44;stroke-linecap:round;stroke-linejoin:round;stroke-miterlimit:10;stroke-dasharray:none;stroke-opacity:1;visibility:visible"/><path d="m212.053 843.36.16-.16.16-.16.16-.16.32-.32.32-.16.32-.32.8-.8 1.6-1.44 1.6-1.28 1.6-1.28 1.76-1.28 1.6-1.28 1.76-1.12 1.76-1.12 1.76-.96 1.76-.96 1.76-.96 1.92-.96 1.76-.8 1.76-.64 1.92-.8M189.653 877.76l.96-2.56.96-2.4 1.12-2.24 1.12-2.4 1.28-2.4 1.28-2.24 1.28-2.24 1.44-2.24 1.44-2.08 1.44-2.08 1.6-2.08 1.6-2.08 1.6-1.92 1.76-1.92 1.76-1.76 1.76-1.76M182.933 898.88l.8-2.72.64-2.72.8-2.56.8-2.72.96-2.56.8-2.72.96-2.56.96-2.56" style="fill:none;stroke:#00ff4a;stroke-width:1.44;stroke-linecap:round;stroke-linejoin:round;stroke-miterlimit:10;stroke-dasharray:none;stroke-opacity:1;visibility:visible"/><path d="M182.933 898.88h1.44l1.44.16 1.44.16 1.44.32 1.44.48 1.6.48 1.44.48 1.44.64 1.6.64 1.6.8 1.44.8 1.44.96 1.44.96 1.44 1.12 1.44 1.12 1.28 1.28 5.92 5.44 5.92 5.76 5.76 5.6 5.92 5.76 2.88 2.72 3.04 2.88 3.04 2.88 3.2 2.88 3.2 2.88 3.04 2.88 3.04 2.88 3.04 2.88.8.64.8.8.8.64.8.48" style="fill:none;stroke:#00ff4a;stroke-width:.64;stroke-linecap:round;stroke-linejoin:round;stroke-miterlimit:10;stroke-dasharray:none;stroke-opacity:1;visibility:visible"/><path d="M424.053 928.64h.16" style="fill:none;stroke:#00ff4a;stroke-width:1.44;stroke-linecap:round;stroke-linejoin:round;stroke-miterlimit:10;stroke-dasharray:none;stroke-opacity:1;visibility:visible"/><path d="m424.053 928.64.8.8.64.64.8.8.64.64.48.64.48.48.48.64.32.48" style="fill:none;stroke:#00ff4a;stroke-width:.64;stroke-linecap:round;stroke-linejoin:round;stroke-miterlimit:10;stroke-dasharray:none;stroke-opacity:1;visibility:visible"/><path d="m311.893 815.84-2.24-.32-2.08-.16-2.08-.16h-2.24l-2.08.16-2.24.16-.96.16h-.96l-.64.16-.32.16h-.32M430.133 933.44l-.48-.64-.64-.64-.64-.64-.64-.64-.8-.8-.8-.96-.96-.8-.8-.96" style="fill:none;stroke:#00ff4a;stroke-width:1.44;stroke-linecap:round;stroke-linejoin:round;stroke-miterlimit:10;stroke-dasharray:none;stroke-opacity:1;visibility:visible"/><path d="m422.293 926.88.32.32.48.16h1.28l-.64-.64" style="fill:none;stroke:#00ff4a;stroke-width:.64;stroke-linecap:round;stroke-linejoin:round;stroke-miterlimit:10;stroke-dasharray:none;stroke-opacity:1;visibility:visible"/><path d="m423.733 926.72-2.72-2.72-2.72-2.72-2.56-2.72-2.72-2.72-2.56-2.72-2.72-2.72-2.72-2.72-2.72-2.72" style="fill:none;stroke:#00ff4a;stroke-width:1.44;stroke-linecap:round;stroke-linejoin:round;stroke-miterlimit:10;stroke-dasharray:none;stroke-opacity:1;visibility:visible"/><path d="M417.333 942.08h.64" style="fill:none;stroke:#00ff4a;stroke-width:.64;stroke-linecap:round;stroke-linejoin:round;stroke-miterlimit:10;stroke-dasharray:none;stroke-opacity:1;visibility:visible"/><path d="m417.973 942.08 1.28-.16 1.28-.16 1.28-.16 1.28-.32 1.12-.16 1.12-.16 1.12-.16 1.12-.16M367.573 942.72h-.16M369.493 944.64l-.16-.48-.32-.48-.16-.32-.32-.16-.16-.16-.32-.16-.32-.16h-.16" style="fill:none;stroke:#00ff4a;stroke-width:1.44;stroke-linecap:round;stroke-linejoin:round;stroke-miterlimit:10;stroke-dasharray:none;stroke-opacity:1;visibility:visible"/><path d="m436.533 936.96-.32.32-.32.32-.48.16-.64.16-.48.32-.8.16-.64.16-.8.16-1.6.32-1.76.32-1.76.32-1.92.16-1.92.16-.96.16-.96.16-2.08.16-2.08.16-2.24.32-2.08.16-2.24.16-2.24.16-4.48.48-4.64.32-4.64.32-4.8.48-4.96.32-2.4.16-2.56.16-5.12.48-5.12.48" style="fill:none;stroke:#00ff4a;stroke-width:.64;stroke-linecap:round;stroke-linejoin:round;stroke-miterlimit:10;stroke-dasharray:none;stroke-opacity:1;visibility:visible"/><path d="M368.693 948.96h.16l.32-.16.16-.32.16-.32.16-.32.16-.48v-1.28l-.16-.64v-.48l-.16-.32" style="fill:none;stroke:#00ff4a;stroke-width:1.44;stroke-linecap:round;stroke-linejoin:round;stroke-miterlimit:10;stroke-dasharray:none;stroke-opacity:1;visibility:visible"/><path d="m175.893 899.84.8-.32.8-.16.8-.16.64-.16.8-.16h1.6l.8-.16.8.16M212.053 843.36l-.64.16-.64.16-.64.16-.64.32-.64.32-.64.32-.64.32-.64.48-.64.48-.64.48-.64.48-.48.48" style="fill:none;stroke:#00ff4a;stroke-width:.64;stroke-linecap:round;stroke-linejoin:round;stroke-miterlimit:10;stroke-dasharray:none;stroke-opacity:1;visibility:visible"/><path d="M204.533 847.52h.16" style="fill:none;stroke:#00ff4a;stroke-width:1.44;stroke-linecap:round;stroke-linejoin:round;stroke-miterlimit:10;stroke-dasharray:none;stroke-opacity:1;visibility:visible"/><path d="M191.893 872.32h.16M184.533 909.76l-1.6.32-1.76.32-1.6.48-1.76.32-1.6.48-1.6.32-1.44.48-1.6.48-1.44.32-1.44.48-1.44.48-1.28.48-1.28.48-1.28.48-1.12.48-1.12.48M186.133 909.44l-1.6.32M158.933 917.6h.16M253.493 955.36l.32-.32.48-.32M182.933 898.88v.48l-.16.64-.32.48-.32.48" style="fill:none;stroke:#00ff4a;stroke-width:.64;stroke-linecap:round;stroke-linejoin:round;stroke-miterlimit:10;stroke-dasharray:none;stroke-opacity:1;visibility:visible"/><path d="m221.493 929.12-4.32-3.84-2.08-2.08-2.24-1.92-2.24-2.08-2.24-2.08-.96-.96-1.12-.8-.96-.96-.96-.96M221.973 929.6l-.48-.48" style="fill:none;stroke:#00ff4a;stroke-width:1.44;stroke-linecap:round;stroke-linejoin:round;stroke-miterlimit:10;stroke-dasharray:none;stroke-opacity:1;visibility:visible"/><path d="m202.773 912 .48-.16.48-.16.48-.32.48-.32.48-.32.48-.48.32-.48.32-.48" style="fill:none;stroke:#00ff4a;stroke-width:.64;stroke-linecap:round;stroke-linejoin:round;stroke-miterlimit:10;stroke-dasharray:none;stroke-opacity:1;visibility:visible"/><path d="m204.373 913.44-.64-.48-.16-.16-.16-.16-.16-.16-.16-.16h-.16v-.16l-.16-.16M202.133 911.52h.16M202.133 911.52l-.16-.16-.32-.16-.48-.48-.96-.8-1.12-.8-1.28-.8-1.12-.64-1.12-.64-1.12-.64-1.28-.64M202.773 912l-.32-.16v-.16l-.32-.16" style="fill:none;stroke:#00ff4a;stroke-width:1.44;stroke-linecap:round;stroke-linejoin:round;stroke-miterlimit:10;stroke-dasharray:none;stroke-opacity:1;visibility:visible"/><path d="m183.253 910.4.48-.16.48-.16.32-.32" style="fill:none;stroke:#00ff4a;stroke-width:.64;stroke-linecap:round;stroke-linejoin:round;stroke-miterlimit:10;stroke-dasharray:none;stroke-opacity:1;visibility:visible"/><path d="M183.253 910.4h.16M145.653 926.88h-.16M146.293 926.72l.64-.16M146.293 926.72l-.32.16h-.32M153.173 922.72l-.96.8-.96.8-.96.64-.96.48-.8.48-.48.16-.32.16-.48.16-.32.16-.32.16h-.32" style="fill:none;stroke:#00ff4a;stroke-width:1.44;stroke-linecap:round;stroke-linejoin:round;stroke-miterlimit:10;stroke-dasharray:none;stroke-opacity:1;visibility:visible"/><path d="m164.373 912 .64-.16.48-.16.48-.32.48-.32.48-.32" style="fill:none;stroke:#00ff4a;stroke-width:.64;stroke-linecap:round;stroke-linejoin:round;stroke-miterlimit:10;stroke-dasharray:none;stroke-opacity:1;visibility:visible"/><path d="m164.373 912-1.28 1.44-1.28 1.28-1.28 1.44-1.28 1.28-1.28 1.28-1.44 1.12-1.28 1.12-1.28 1.12-.32.32-.48.32M303.413 961.12l-2.88.48-3.04.64-2.88.48-3.04.48-3.04.48-2.88.48-3.04.48-3.2.32M173.653 905.92l-1.28.48-1.12.48-.64.32-.64.32-.64.48-.64.32-1.12.8-1.12.96-.96.96-1.12.96" style="fill:none;stroke:#00ff4a;stroke-width:1.44;stroke-linecap:round;stroke-linejoin:round;stroke-miterlimit:10;stroke-dasharray:none;stroke-opacity:1;visibility:visible"/><path d="M138.613 924.96h.16l.16.16h1.12l.32-.16.48-.16.32-.16.48-.32.48-.16.64-.32.48-.32.48-.48.64-.32.48-.48.64-.48.64-.48.64-.64.64-.64.64-.64.64-.64.64-.8.8-.64.64-.8.8-.8.8-.96.8-.96.8-.8.8-1.12.96-.96.8-.96" style="fill:none;stroke:#00ff4a;stroke-width:.64;stroke-linecap:round;stroke-linejoin:round;stroke-miterlimit:10;stroke-dasharray:none;stroke-opacity:1;visibility:visible"/><path d="M156.213 908.64v-.48l.16-.48.16-.32.32-.48M156.213 908.64v.48l.16.32.16.48M164.373 912l-.64.16h-.64l-.64.16h-.8l-.64-.16h-.8l-.48-.16h-.64l-.48-.16-.32-.16-.48-.16-.32-.32-.32-.32-.16-.32-.32-.32-.16-.32" style="fill:none;stroke:#00ff4a;stroke-width:1.44;stroke-linecap:round;stroke-linejoin:round;stroke-miterlimit:10;stroke-dasharray:none;stroke-opacity:1;visibility:visible"/><path d="m156.213 908.64.8-.8.96-.8.96-.8.8-.64.96-.64.96-.48 1.12-.48.96-.48 1.12-.32 1.12-.32 1.12-.16 1.12-.16 1.12-.16h2.4l1.28.16 1.12.16 1.28.32 1.28.32 1.28.32.64.16.64.32 1.44.48 1.28.48 1.44.64 1.44.64 1.44.8 1.28.8 1.44.8 1.28.96 1.28 1.12 1.28.96 1.28 1.28 4.96 4.64 4.96 4.64 4.96 4.64 2.56 2.24 2.56 2.4 2.56 2.4 2.72 2.24 2.72 2.4 2.72 2.24 2.88 2.4 3.04 2.24 5.92 4.64 5.92 4.8 3.04 2.24 1.44 1.12.8.64.8.48.8.48.96.48.8.48.96.32.96.48.96.32.96.32.96.32.96.32 1.12.32.96.16 1.12.16 1.12.32 1.12.16h1.12l1.12.16h1.12l1.28.16h4.8l2.4-.16 2.56-.16 2.56-.32 2.4-.32 2.56-.32 4.96-.64 4.8-.8 4.8-.96 4.8-.96 2.24-.32 2.4-.48 4.48-.96 4.48-.96 4.32-.96 4.32-1.12 4.16-.96 4.32-.96 4-.96 4.16-.96 4-.96 3.84-.96 3.84-.96 3.84-.96 3.84-.96 7.52-1.76" style="fill:none;stroke:#00ff4a;stroke-width:.64;stroke-linecap:round;stroke-linejoin:round;stroke-miterlimit:10;stroke-dasharray:none;stroke-opacity:1;visibility:visible"/><path d="M311.893 815.84h.64l.32.16.64.16h.64l2.24.48M397.333 899.36l3.52 4 1.6 1.92 1.76 2.08 1.76 1.92 1.6 1.92 1.76 1.92 1.6 1.76 1.6 1.76 1.6 1.76 3.36 3.52 3.2 3.36 3.36 3.36M417.333 942.08l-2.72.48-2.88.32-3.04.48-3.04.32-3.04.48-3.2.48-3.2.48-3.2.48-3.36.48-3.36.64-3.36.48-3.52.64-3.52.48-3.68.64-7.2 1.12M424.853 941.12l-1.76.16-1.76.32-1.92.32-2.08.16M374.933 870.88l1.44.64 1.44.8 1.28.8 1.44.96 1.44.96 1.44 1.12 1.28 1.12 1.44 1.12M402.453 893.12l2.88 2.88 2.88 2.72 2.88 2.88 2.72 2.88 2.56 2.88 2.56 2.88 5.28 5.92 4.96 5.76 1.28 1.44 1.28 1.28.64.64.48.64.64.64.48.64.48.48.48.64.32.48.48.48.32.48.32.48.32.48.32.48.16.48.32.48v.32l.16.32v1.76l-.16.48-.16.48-.16.48-.16.32-.32.32-.16.32" style="fill:none;stroke:#00ff4a;stroke-width:1.44;stroke-linecap:round;stroke-linejoin:round;stroke-miterlimit:10;stroke-dasharray:none;stroke-opacity:1;visibility:visible"/><path d="m367.413 942.72 5.12-.8 4.96-.8 4.8-.8 4.96-.8 2.4-.32 2.4-.48 2.24-.32 2.4-.32 4.48-.64 4.48-.64 2.24-.32 2.08-.32 2.24-.32 2.08-.32 2.08-.16 1.92-.32 1.92-.16 1.92-.32 1.92-.16 1.76-.32 1.76-.16 1.6-.32.8-.16.8-.16.64-.16.64-.16h.64l.16-.16h.32l.16-.16h.16M436.533 936.96l-.32.32-.32.32-.32.16-.32.32-.48.32-.64.32-.64.16-.64.16-1.28.32-1.28.32-1.28.32h-.48l-.32.16-.8.16-.8.16h-.48l-.48.16M431.893 939.36l-.64.16-.32.16-.32.16h-.32l-.32.16-.48.16-.96.16-.96.32M267.413 819.68l2.08-.32 2.24-.32 4.48-.64 4.48-.64 4.48-.64M288.533 816.64l1.6-.16 1.76-.32 1.76-.16 1.92-.16 1.76-.32 1.92-.16h1.76l1.92-.16M163.573 901.92l.96-1.12.8-1.12.8-1.12.8-.96 1.6-1.92 1.6-1.92 1.6-1.92.64-.96.96-1.12.8-1.12.48-.64.48-.64.48-.64.48-.64.48-.8.48-.8 1.12-1.44.48-.96.64-.8.48-.96.64-.96 1.28-1.92.64-1.12.32-.48.16-.32.16-.32 1.76-2.72 1.6-2.72 1.92-2.56 1.76-2.56 1.92-2.56 1.92-2.56 2.08-2.56 2.08-2.4 2.08-2.4 2.24-2.24 2.24-2.4M186.773 909.76l-1.76.32-1.76.32-1.6.32-1.6.48-1.76.32-1.44.32-1.6.48-1.44.32-1.6.48-1.44.32-1.44.48-1.28.32-1.44.48-1.28.48-1.12.48-1.28.32-1.12.48-.96.48M145.653 926.88h.16M158.613 917.92h.16M365.013 950.08l-7.2 1.28-3.68.64-3.68.64-3.68.64-3.84.64-3.84.64-3.84.64-3.84.8-3.84.64-4 .64-4 .8-4 .8-4 .64-4.16.8-4.16.8M166.933 910.72l-.8.8-.8.8-.64.8-.8.8-.64.64-.8.8-1.28 1.28-1.28 1.28-1.28 1.12-1.28 1.12-1.28 1.12-1.12.96-1.12.8-1.28.8-1.12.8-.96.64-1.12.48-1.12.48-1.28.32M303.253 961.12l-5.76 1.12-2.88.48-3.04.48M173.653 905.92l-.96.32-.8.48-.64.48-.8.48-.8.64-.48.32-.48.32-.8.8-.96.96M138.613 924.96l-.16-.32v-.32l-.16-.64.16-.48v-.48l.16-.32.16-.48.16-.16.16-.32.32-.48.32-.32.32-.32.48-.32.64-.64.32-.32.32-.32.48-.48.32-.32.48-.48.48-.32.48-.48.64-.48.48-.48.64-.48.64-.48.8-.48.64-.48.8-.48.8-.48.96-.48.8-.48.96-.48.96-.48.96-.48 1.12-.64 1.12-.48" style="fill:none;stroke:#00ff4a;stroke-width:1.44;stroke-linecap:round;stroke-linejoin:round;stroke-miterlimit:10;stroke-dasharray:none;stroke-opacity:1;visibility:visible"/><path d="M145.493 926.88h-.16l-.32.16h-1.28l-.64.16h-1.12l-.16-.16h-.8l-.32-.16-.32-.16-.32-.16-.32-.16-.32-.32-.32-.32-.32-.48-.16-.32M156.853 906.88l.8-.8.96-.8.96-.8.96-.8.96-.64 1.12-.64 1.12-.48.96-.64 1.12-.32 1.28-.48 1.12-.16 1.28-.32 1.12-.16 1.28-.16h2.56l1.28.16 1.44.16 1.28.16 1.28.32 1.44.32 1.44.32 1.44.48 1.44.48 1.6.64 1.44.64 1.44.64 1.44.8 1.44.8 1.44.96 1.44.96 1.44.96 1.28 1.12 1.28 1.12 2.56 2.24 5.28 4.48 5.12 4.48 2.72 2.24 2.72 2.24 2.72 2.24 2.72 2.24 5.6 4.64 5.6 4.48 5.6 4.64 5.6 4.64 2.72 2.4 1.44 1.12 1.28 1.12.64.48.8.48.64.48.8.48.8.48.8.32.8.32.8.32.96.32.8.32.96.16.96.32.96.16.96.16.96.16h1.12l.96.16h1.12l1.12.16h1.12l2.24-.16h2.24l2.24-.32 2.4-.16 2.24-.32 2.4-.32 4.48-.8 4.48-.8 4.48-.8 4.48-.8 4.32-.96 4.32-.8 4.32-.8 4.32-.8 4.16-.8 4.32-.8 4.16-.8 4.16-.64 4.16-.8 4.16-.8 4-.64 4-.64 4-.64 4-.8 7.84-1.28M279.413 964.96l-1.92.16-1.92.16h-1.76l-1.92.16-1.92-.16h-1.92l-1.76-.16-1.92-.16" style="fill:none;stroke:#00ff4a;stroke-width:1.44;stroke-linecap:round;stroke-linejoin:round;stroke-miterlimit:10;stroke-dasharray:none;stroke-opacity:1;visibility:visible"/><path d="m295.093 962.24-2.88.48-2.72.48-2.88.48-2.88.32-2.88.48-2.88.32-2.88.16-2.88.16h-5.6l-1.28-.16-1.28-.16-1.44-.16-1.28-.16-1.28-.16-1.28-.32-1.12-.32-1.28-.32-1.12-.48-1.28-.48-1.12-.48-1.12-.48-1.12-.64-.96-.64-1.12-.64-.96-.64-.96-.64-.96-.8-1.92-1.44-7.2-5.76-7.36-5.76-3.52-2.88-3.52-2.88-3.52-3.04-1.6-1.44-1.76-1.44-3.2-2.88-3.2-2.72-3.2-2.72-3.04-2.72-3.04-2.56-3.04-2.72-1.6-1.28-1.44-1.28-.8-.48-.8-.64-1.76-1.12-1.6-.96-1.76-.96-.8-.32-.96-.48-1.6-.64-1.76-.64-.8-.32-.8-.16-.8-.32-.8-.16-.64-.16-.8-.16-.8-.16h-.64l-1.44-.16-.64-.16h-1.28l-.64.16M204.533 847.68l1.92-1.92 1.92-1.76 1.92-1.76 2.08-1.6 1.92-1.6 2.08-1.6 2.08-1.6 2.24-1.28 2.08-1.44 2.24-1.28 2.24-1.28 2.24-1.12 2.24-.96 2.24-.96 2.4-.96 2.24-.8M260.533 820.96l3.36-.64 3.52-.64M302.933 815.2l-7.2.8" style="fill:none;stroke:#00ff4a;stroke-width:1.44;stroke-linecap:round;stroke-linejoin:round;stroke-miterlimit:10;stroke-dasharray:none;stroke-opacity:1;visibility:visible"/><path d="m423.733 926.72-1.44.16" style="fill:none;stroke:#00ff4a;stroke-width:.64;stroke-linecap:round;stroke-linejoin:round;stroke-miterlimit:10;stroke-dasharray:none;stroke-opacity:1;visibility:visible"/><path d="m367.573 942.72 1.12 6.24" style="fill:none;stroke:#00ff4a;stroke-width:1.44;stroke-linecap:round;stroke-linejoin:round;stroke-miterlimit:10;stroke-dasharray:none;stroke-opacity:1;visibility:visible"/><path d="m173.653 905.92 2.24-6.08" style="fill:none;stroke:#00ff4a;stroke-width:.64;stroke-linecap:round;stroke-linejoin:round;stroke-miterlimit:10;stroke-dasharray:none;stroke-opacity:1;visibility:visible"/><path d="m202.773 912-9.6-6.24M424.053 928.64l9.44 4M425.653 940.64l6.24-1.28M288.533 816.64l-3.36.48M285.173 817.12l3.36-.48M295.733 816l7.2-.8M166.933 910.72l-3.36-8.8M295.093 962.24l-3.52.96M291.573 963.2l3.52-.96M173.653 905.92l-2.08.16" style="fill:none;stroke:#00ff4a;stroke-width:1.44;stroke-linecap:round;stroke-linejoin:round;stroke-miterlimit:10;stroke-dasharray:none;stroke-opacity:1;visibility:visible"/><path d="m329.173 888.64-16.48 2.72M293.973 872.32l8.16 13.44M351.253 832.64l-8.8-14.08M316.213 882.88l-15.52-7.2M305.333 877.92l17.44 8.16M366.293 872.8l4.96 8" style="fill:none;stroke:red;stroke-width:1.44;stroke-linecap:round;stroke-linejoin:round;stroke-miterlimit:10;stroke-dasharray:none;stroke-opacity:1;visibility:visible"/><path d="m298.453 894.88-16.96-.48" style="fill:none;stroke:red;stroke-width:.64;stroke-linecap:round;stroke-linejoin:round;stroke-miterlimit:10;stroke-dasharray:none;stroke-opacity:1;visibility:visible"/><path d="m378.933 884.8 4.16-3.04" style="fill:none;stroke:red;stroke-width:1.44;stroke-linecap:round;stroke-linejoin:round;stroke-miterlimit:10;stroke-dasharray:none;stroke-opacity:1;visibility:visible"/><path d="m383.573 889.92 13.76 9.44M383.573 889.92l18.88 3.2" style="fill:none;stroke:#00ff4a;stroke-width:1.44;stroke-linecap:round;stroke-linejoin:round;stroke-miterlimit:10;stroke-dasharray:none;stroke-opacity:1;visibility:visible"/></svg>