<svg xmlns="http://www.w3.org/2000/svg" baseProfile="full" height="1122.667" preserveAspectRatio="xMinYMin meet" style="width:765px;height:943px" width="793.333" xml:space="preserve"><path d="m434.106 900.248.48-.8.64-.64.64-.8.8-.48.8-.48.96-.48.8-.32.96-.32 1.92-.32 1.76-.32h3.84l.96.16.96.16.96.32.96.16.96.32.8.48.96.32.8.48.8.48.64.64.32.16.32.48.32.32.32.48v.32l.16.16h.16v-.16l.16-.32v-1.92l-.16-.48-.16-.48-.48-.64-.48-.8-.8-.64-.8-.64-.8-.48-.8-.48-.8-.32-.96-.32-1.76-.48-1.92-.32-1.92-.16h-1.92l-1.92.32-.96.16-.8.16-.96.32-.96.32-.8.32-.96.48-.8.48-.64.48-.8.8-.48.8-.48.8-.16.48v1.28l.16.8v.16h.16M371.066 900.248l.64-.8.48-.8.8-.64.8-.64.8-.48.8-.32.96-.32.8-.32 1.92-.48 1.92-.16 1.92-.16 1.92.16.96.16.8.16.96.16.96.32.96.32.96.32.8.48.8.48.8.48.8.48.32.32.32.32.16.48.32.48.16.32v.16h.16v-.16l.16-.16v-.32l.16-.64v-.64l-.16-.64v-.48l-.16-.32-.48-.8-.64-.64-.64-.64-.8-.64-.8-.48-.8-.48-.96-.32-.96-.32-1.76-.48-1.92-.32-1.92-.16h-1.76l-1.92.16-.96.16-.96.32-.96.16-.8.32-.96.48-.8.32-.8.48-.8.64-.64.64-.64.8-.32.96-.16.32-.16.32v1.12l.16.64v.16l.16.16M308.186 900.088l.48-.8.64-.64.64-.64.8-.64.8-.48.96-.32.8-.48.96-.16 1.76-.48 1.92-.32h3.84l.96.16.96.16.96.32.96.16.96.32.8.48.96.32.8.48.8.48.64.64.32.32.32.32.32.32.16.64.16.16.16.16h.16v-.16l.16-.32v-1.92l-.16-.48-.16-.48-.48-.64-.64-.64-.64-.8-.8-.48-.8-.64-.8-.32-.8-.48-.96-.32-1.92-.48-1.76-.32-1.92-.16-1.92.16-1.92.16-.96.16-.96.16-.8.32-.96.32-.8.32-.96.48-.8.48-.8.64-.64.64-.48.8-.48.8-.16.48v.32l-.16.48.16.16v1.12l.16.16v.16l.16-.16M274.266 962.006h11.36M262.586 962.006h6.08" style="fill:none;stroke:red;stroke-width:.479999;stroke-linecap:round;stroke-linejoin:round;stroke-miterlimit:10;stroke-dasharray:none;stroke-opacity:1;visibility:visible" visibility="hidden"/><path d="m381.626 892.088-1.28.16h4.96M445.626 892.088h1.12M445.626 892.088h-1.12 2.24M318.586 892.088h3.84M318.586 892.088h-1.12 4.96M446.426 892.088h-.8.96M383.386 892.088h-1.76 2.24M320.506 891.928l-1.92.16h2.24M317.466 892.088l-.8.16h6.24" style="fill:none;fill-opacity:1;fill-rule:evenodd;stroke:red;stroke-width:1.33333;visibility:visible" visibility="hidden"/><path d="M381.626 892.088h2.24l1.44.16M444.506 892.088l-1.12.16h4.96M317.466 892.088h4.96l.48.16M443.386 892.248l-.8.16h6.24M380.346 892.248h5.44M380.346 892.248h-.64 6.08M444.506 892.088h2.24l1.6.16M316.666 892.248l-.96.16h8.16" style="fill:none;fill-opacity:1;fill-rule:evenodd;stroke:red;stroke-width:1.33333;visibility:visible" visibility="hidden"/><path d="M443.386 892.248h4.96l.48.16M379.706 892.248l-.96.16h8M316.666 892.248h6.24l.96.16M442.586 892.408l-.96.16h8.16M315.706 892.408h8.48M315.706 892.408h-.32 8.8" style="fill:none;fill-opacity:1;fill-rule:evenodd;stroke:red;stroke-width:1.33333;visibility:visible" visibility="hidden"/><path d="M379.706 892.248h6.08l.96.16M378.746 892.408l-.32.16h8.8M442.586 892.408h6.24l.96.16M315.386 892.408l-.64.16h10.08M441.626 892.568h8.64M441.626 892.568h-.32 8.96" style="fill:none;fill-opacity:1;fill-rule:evenodd;stroke:red;stroke-width:1.33333;visibility:visible" visibility="hidden"/><path d="M378.746 892.408h8l.48.16M378.426 892.568l-.64.16h9.92M315.386 892.408h8.8l.64.16M441.306 892.568l-.48.16h9.92" style="fill:none;fill-opacity:1;fill-rule:evenodd;stroke:red;stroke-width:1.33333;visibility:visible" visibility="hidden"/><path d="M378.426 892.568h8.8l.48.16M314.746 892.568l-.8.32h11.84M441.306 892.568h8.96l.48.16M377.786 892.728l-.96.16h12" style="fill:none;fill-opacity:1;fill-rule:evenodd;stroke:red;stroke-width:1.33333;visibility:visible" visibility="hidden"/><path d="M314.746 892.568h10.08l.96.32M440.826 892.728l-.96.32h11.84M313.946 892.888h12.16M313.946 892.888h-.32 12.48M377.786 892.728h9.92l1.12.16M376.826 892.888l-.16.16h12.32" style="fill:none;fill-opacity:1;fill-rule:evenodd;stroke:red;stroke-width:1.33333;visibility:visible" visibility="hidden"/><path d="M440.826 892.728h9.92l.96.32M313.626 892.888l-.64.32h13.76M439.866 893.048h12.16M439.866 893.048h-.32 12.48M376.826 892.888h12l.16.16M376.666 893.048l-.64.16h13.76" style="fill:none;fill-opacity:1;fill-rule:evenodd;stroke:red;stroke-width:1.33333;visibility:visible" visibility="hidden"/><path d="M313.626 892.888h12.48l.64.32M439.546 893.048l-.64.32h13.76M312.986 893.208h14.08M312.986 893.208h-.16 14.24M376.666 893.048h12.32l.8.16M376.026 893.208l-.16.16h14.08" style="fill:none;fill-opacity:1;fill-rule:evenodd;stroke:red;stroke-width:1.33333;visibility:visible" visibility="hidden"/><path d="M439.546 893.048h12.48l.64.32M312.826 893.208l-.64.32h15.52M438.906 893.368h14.08M438.906 893.368h-.16 14.24M376.026 893.208h13.76l.16.16M375.866 893.368l-.8.32h15.68" style="fill:none;fill-opacity:1;fill-rule:evenodd;stroke:red;stroke-width:1.33333;visibility:visible" visibility="hidden"/><path d="M312.826 893.208h14.24l.64.32M312.186 893.528l-.16.16h15.84M375.866 893.368h14.08l.8.32M438.746 893.368l-.64.32h15.52M312.186 893.528h15.52l.16.16M312.026 893.688l-.8.32h17.28M438.106 893.688h15.68M438.106 893.688h-.16 15.84M375.066 893.688h15.84M375.066 893.688h-.16 16" style="fill:none;fill-opacity:1;fill-rule:evenodd;stroke:red;stroke-width:1.33333;visibility:visible" visibility="hidden"/><path d="M438.746 893.368h14.24l.64.32M374.906 893.688l-.64.32h17.28M312.026 893.688h15.84l.64.32M437.946 893.688l-.8.48h17.44M311.226 894.008h17.44M311.226 894.008h-.16 17.6" style="fill:none;fill-opacity:1;fill-rule:evenodd;stroke:red;stroke-width:1.33333;visibility:visible" visibility="hidden"/><path d="M374.906 893.688h16l.64.32M374.266 894.008l-.16.16h17.6M437.946 893.688h15.84l.8.48M311.066 894.008l-.64.48h18.88M437.146 894.168h17.44-17.44M437.146 894.168h17.44-17.44" style="fill:none;fill-opacity:1;fill-rule:evenodd;stroke:red;stroke-width:1.33333;visibility:visible" visibility="hidden"/><path d="M374.266 894.008h17.28l.16.16M374.106 894.168l-.64.32h18.88M311.066 894.008h17.6l.64.48M310.426 894.488l-.16.16h19.2" style="fill:none;fill-opacity:1;fill-rule:evenodd;stroke:red;stroke-width:1.33333;visibility:visible" visibility="hidden"/><path d="M374.106 894.168h17.6l.64.32M437.146 894.168l-.8.48h18.88M310.426 894.488h18.88l.16.16M373.466 894.488l-.16.16h19.2" style="fill:none;fill-opacity:1;fill-rule:evenodd;stroke:red;stroke-width:1.33333;visibility:visible" visibility="hidden"/><path d="M437.146 894.168h17.44l.64.48M310.266 894.648l-.64.48h20.48M436.346 894.648h19.04M436.346 894.648h-.16 19.2M373.466 894.488h18.88l.16.16M373.306 894.648l-.64.48h20.48" style="fill:none;fill-opacity:1;fill-rule:evenodd;stroke:red;stroke-width:1.33333;visibility:visible" visibility="hidden"/><path d="M310.266 894.648h19.2l.64.48M436.186 894.648l-.48.48h20.32M309.626 895.128h20.48-20.48M309.626 895.128h20.48-20.48M373.306 894.648h19.2l.64.48M435.706 895.128l-.16.16h20.64M321.626 895.128h8.64-8.64M321.626 895.128h8.64M309.626 895.128h10.24-1.92M309.626 895.128h8.32-8.32M319.866 895.128h10.4M319.866 895.128h10.4M372.666 895.128h20.48-20.48M372.666 895.128h20.48-20.48" style="fill:none;fill-opacity:1;fill-rule:evenodd;stroke:red;stroke-width:1.33333;visibility:visible" visibility="hidden"/><path d="M436.186 894.648h19.2l.64.48M372.666 895.128l-.16.16h8.48M382.906 895.128h10.24l.16.16M382.906 895.128l1.76.16h8.64M435.546 895.288h10.24-.32M435.546 895.288h9.92-9.92M445.786 895.288h10.4-10.4M445.786 895.288h10.4M435.706 895.128h20.32l.16.16M309.626 895.128l-.32.32h6.72M384.826 895.288h8.48l.16.16" style="fill:none;fill-opacity:1;fill-rule:evenodd;stroke:red;stroke-width:1.33333;visibility:visible" visibility="hidden"/><path d="m384.826 895.288.96.16h7.68M447.546 895.288h8.64-8.64M447.546 895.288h8.64M435.546 895.288h9.92-1.6M435.546 895.288h8.32-8.32M446.266 895.288h9.92-9.92M446.266 895.288h9.92M321.786 895.128h8.48l.16.16M321.786 895.128l.96.16h7.68M384.666 895.288h8.64-8.64M384.666 895.288h8.64M372.666 895.128h10.24l-1.92.16M372.506 895.288l-.16.16h6.72M322.746 895.288h7.68l.16.16M322.746 895.288l.96.16h6.88M447.706 895.288h8.48l.16.16M447.706 895.288l.96.16h7.68M309.626 895.128h8.32l-1.92.32M435.546 895.288l-.32.32h6.88M385.786 895.448h7.68l.16.16M385.786 895.448l.8.16h7.04" style="fill:none;fill-opacity:1;fill-rule:evenodd;stroke:red;stroke-width:1.33333;visibility:visible" visibility="hidden"/><path d="M372.506 895.288h8.48l-1.92.16M309.306 895.448l-.32.32h5.92M323.706 895.448h6.88l.32.32M323.706 895.448l.96.32h6.24M448.666 895.448h7.68l.16.16M448.666 895.448l.96.16h6.88M435.546 895.288h8.32l-1.76.32M372.346 895.448l-.32.32h5.76M386.586 895.608h7.04l.16.16M386.586 895.608l.96.16h6.24" style="fill:none;fill-opacity:1;fill-rule:evenodd;stroke:red;stroke-width:1.33333;visibility:visible" visibility="hidden"/><path d="M309.306 895.448h6.72l-1.12.32M435.226 895.608l-.32.32h5.92M449.626 895.608h6.88l.32.32M449.626 895.608l.96.32h6.24M372.346 895.448h6.72l-1.28.32M308.986 895.768v.16h5.28M324.666 895.768h6.24v.16M324.666 895.768l.48.16h5.76" style="fill:none;fill-opacity:1;fill-rule:evenodd;stroke:red;stroke-width:1.33333;visibility:visible" visibility="hidden"/><path d="M435.226 895.608h6.88l-1.28.32M372.026 895.768l-.16.16h5.28M387.546 895.768h6.24l.16.16M387.546 895.768l.64.16h5.76M308.986 895.768h5.92l-.64.16M308.986 895.928l-.32.16h4.64M451.066 895.928h5.92v.16M451.066 895.928l.48.16h5.44M388.186 895.928h5.76l.16.16M388.186 895.928l.32.16h5.6M434.906 895.928h5.92-.64M434.906 895.928h5.28-5.28M325.146 895.928h5.92M325.146 895.928h5.92M450.586 895.928h6.4M450.586 895.928h6.4M372.026 895.768h5.76l-.64.16M371.866 895.928l-.16.32h4.64" style="fill:none;fill-opacity:1;fill-rule:evenodd;stroke:red;stroke-width:1.33333;visibility:visible" visibility="hidden"/><path d="M308.986 895.928h5.28l-.96.16M434.906 895.928l-.16.32h4.48M371.866 895.928h5.28l-.8.32M308.666 896.088l-.16.48h4M451.546 896.088h5.44l.32.32M451.546 896.088l.96.32h4.8M388.506 896.088h5.6l.16.32M388.506 896.088l.96.32h4.8M325.626 895.928h5.44l.32.32M325.626 895.928l.96.32h4.8" style="fill:none;fill-opacity:1;fill-rule:evenodd;stroke:red;stroke-width:1.33333;visibility:visible" visibility="hidden"/><path d="M434.906 895.928h5.28l-.96.32M371.706 896.248l-.16.32h3.84M326.586 896.248h4.8l.16.32M326.586 896.248l.48.32h4.48M308.506 896.568h4-.16M308.506 896.568h3.84-3.84M308.666 896.088h4.64l-.8.48M434.746 896.248l-.32.32h4M389.466 896.408h4.8l.32.16M389.466 896.408l.64.16h4.48M371.546 896.568h3.84-.16M371.546 896.568h-.16 3.84M371.706 896.248h4.64l-.96.32" style="fill:none;fill-opacity:1;fill-rule:evenodd;stroke:red;stroke-width:1.33333;visibility:visible" visibility="hidden"/><path d="M434.426 896.568v.16h3.84M434.746 896.248h4.48l-.8.32M452.986 896.728l.32.16h4.32M390.106 896.568h4.48v.16M390.106 896.568l.32.16h4.16M327.066 896.568h4.48l.16.16M327.066 896.568l.32.16h4.32M452.506 896.408h4.8l.16.32" style="fill:none;fill-opacity:1;fill-rule:evenodd;stroke:red;stroke-width:1.33333;visibility:visible" visibility="hidden"/><path d="m452.506 896.408.48.32h4.48M434.426 896.568h4l-.16.16M308.506 896.568l-.16.32h3.2" style="fill:none;fill-opacity:1;fill-rule:evenodd;stroke:red;stroke-width:1.33333;visibility:visible" visibility="hidden"/><path d="M452.986 896.728h4.48l.16.16M371.386 896.568l-.16.32h3.36M308.506 896.568h3.84l-.8.32M434.426 896.728l-.16.32h3.2" style="fill:none;fill-opacity:1;fill-rule:evenodd;stroke:red;stroke-width:1.33333;visibility:visible" visibility="hidden"/><path d="M371.386 896.568h3.84l-.64.32M328.346 897.048l.16.16h3.52M453.306 896.888h4.32l.16.32M453.306 896.888l.96.32h3.52M390.426 896.728h4.16l.32.48M390.426 896.728l.8.48h3.68M327.386 896.728h4.32l.16.32M327.386 896.728l.96.32h3.52M434.426 896.728h3.84l-.8.32M308.346 896.888l-.32.48h2.72M391.226 897.208h3.68l.16.16M391.226 897.208l.32.16h3.52" style="fill:none;fill-opacity:1;fill-rule:evenodd;stroke:red;stroke-width:1.33333;visibility:visible" visibility="hidden"/><path d="M328.346 897.048h3.52l.16.16M371.226 896.888l-.16.48h2.72M308.026 897.368h2.72-2.72M308.026 897.368h2.72-2.72M454.266 897.208h3.52l.16.16M454.266 897.208l.32.16h3.36M308.346 896.888h3.2l-.8.48M371.066 897.368v.16h2.56" style="fill:none;fill-opacity:1;fill-rule:evenodd;stroke:red;stroke-width:1.33333;visibility:visible" visibility="hidden"/><path d="M371.226 896.888h3.36l-.8.48M434.266 897.048l-.32.48h2.72M371.066 897.368h2.72l-.16.16M329.146 897.528l.16.16h2.88M391.546 897.368h3.52v.32" style="fill:none;fill-opacity:1;fill-rule:evenodd;stroke:red;stroke-width:1.33333;visibility:visible" visibility="hidden"/><path d="m391.546 897.368.48.32h3.04M328.506 897.208h3.52l.16.32M328.506 897.208l.64.32h3.04M433.946 897.528h2.72-2.72M433.946 897.528h2.72-2.72M434.266 897.048h3.2l-.8.48M308.026 897.368l-.16.48h2.4M392.026 897.688h3.2M392.026 897.688h3.2M454.586 897.368h3.36l.16.32M454.586 897.368l.48.32h3.04M329.146 897.528h3.04v.16M371.066 897.528l-.16.32h2.24" style="fill:none;fill-opacity:1;fill-rule:evenodd;stroke:red;stroke-width:1.33333;visibility:visible" visibility="hidden"/><path d="M455.066 897.688h3.04v.16M455.066 897.688l.16.16h2.88M308.026 897.368h2.72l-.48.48M433.946 897.528l-.16.48h2.4M371.066 897.528h2.56l-.48.32M307.866 897.848v.16h2.08M433.946 897.528h2.72l-.48.48M370.906 897.848v.16h2.08" style="fill:none;fill-opacity:1;fill-rule:evenodd;stroke:red;stroke-width:1.33333;visibility:visible" visibility="hidden"/><path d="M307.866 897.848h2.4l-.32.16M307.866 898.008v.16h1.92M392.346 897.688h2.88v.48M392.346 897.688l.48.48h2.4M433.786 898.008h2.4-.32M433.786 898.008h2.08-2.08M329.306 897.688h2.88l.16.32M329.306 897.688l.64.32h2.4M370.906 897.848h2.24l-.16.16M370.906 898.008l-.16.16h1.92M455.226 897.848h2.88l.16.32M455.226 897.848l.64.32h2.4M329.946 898.008h2.4v.16" style="fill:none;fill-opacity:1;fill-rule:evenodd;stroke:red;stroke-width:1.33333;visibility:visible" visibility="hidden"/><path d="m329.946 898.008.16.16h2.24M307.866 898.008h2.08l-.16.16M433.786 898.008v.32h1.92M392.826 898.168h2.4-2.4M392.826 898.168h2.4M370.906 898.008h2.08l-.32.16M307.866 898.168l-.16.48h1.6M455.866 898.168h2.4v.16" style="fill:none;fill-opacity:1;fill-rule:evenodd;stroke:red;stroke-width:1.33333;visibility:visible" visibility="hidden"/><path d="m455.866 898.168.16.16h2.24M433.786 898.008h2.08l-.16.32M370.746 898.168v.48h1.6M307.706 898.648h1.6-1.6M307.706 898.648h1.6-1.6M330.106 898.168h2.24v.48M330.106 898.168l.48.48h1.76M307.866 898.168h1.92l-.48.48M433.786 898.328v.32h1.44M370.746 898.648h1.6-.16M370.746 898.648h1.44-1.44M392.986 898.168h2.24l.16.48M392.986 898.168l.64.48h1.76" style="fill:none;fill-opacity:1;fill-rule:evenodd;stroke:red;stroke-width:1.33333;visibility:visible" visibility="hidden"/><path d="M370.746 898.168h1.92l-.32.48M307.706 898.648l.16.16h1.28M393.626 898.648h1.76v.16" style="fill:none;fill-opacity:1;fill-rule:evenodd;stroke:red;stroke-width:1.33333;visibility:visible" visibility="hidden"/><path d="m393.626 898.648.16.16h1.6M330.586 898.648h1.76v.16" style="fill:none;fill-opacity:1;fill-rule:evenodd;stroke:red;stroke-width:1.33333;visibility:visible" visibility="hidden"/><path d="m330.586 898.648.16.16h1.6M433.786 898.648h1.44v.16" style="fill:none;fill-opacity:1;fill-rule:evenodd;stroke:red;stroke-width:1.33333;visibility:visible" visibility="hidden"/><path d="M433.786 898.648v.16h1.44M456.026 898.328h2.24v.48M456.026 898.328l.48.48h1.76M433.786 898.328h1.92l-.48.32M370.746 898.648v.32h1.28M330.746 898.808h1.6v.16M330.746 898.808l.16.16h1.44M456.506 898.808h1.76-1.76M456.506 898.808h1.76M307.706 898.648h1.6l-.16.16M433.786 898.808v.16h1.28M393.786 898.808h1.6v.16M393.786 898.808l.16.16h1.44" style="fill:none;fill-opacity:1;fill-rule:evenodd;stroke:red;stroke-width:1.33333;visibility:visible" visibility="hidden"/><path d="M370.746 898.648h1.44l-.16.32M307.866 898.808v.32h.96M456.666 898.808h1.6v.16M456.666 898.808l.16.16h1.44M433.786 898.808h1.44l-.16.16M370.746 898.968v.32h1.12" style="fill:none;fill-opacity:1;fill-rule:evenodd;stroke:red;stroke-width:1.33333;visibility:visible" visibility="hidden"/><path d="M307.866 898.808h1.28l-.32.32M433.786 898.968v.32h.96M330.906 898.968h1.44v.32M330.906 898.968l.32.32h1.12M370.746 898.968h1.28l-.16.32M307.866 899.128v.16h.8M393.946 898.968h1.44v.32M393.946 898.968l.32.32h1.12" style="fill:none;fill-opacity:1;fill-rule:evenodd;stroke:red;stroke-width:1.33333;visibility:visible" visibility="hidden"/><path d="M433.786 898.968h1.28l-.32.32M370.746 899.288v.16h.96M456.826 898.968h1.44v.48M456.826 898.968l.32.48h1.12M307.866 899.128h.96l-.16.16M433.786 899.288v.16h.8M331.226 899.288h1.12v.16M331.226 899.288l.16.16h.96" style="fill:none;fill-opacity:1;fill-rule:evenodd;stroke:red;stroke-width:1.33333;visibility:visible" visibility="hidden"/><path d="M370.746 899.288h1.12l-.16.16M394.266 899.448l.16.32h.8M331.386 899.448h.96v.16" style="fill:none;fill-opacity:1;fill-rule:evenodd;stroke:red;stroke-width:1.33333;visibility:visible" visibility="hidden"/><path d="m331.386 899.448.16.16h.8M457.146 899.448h1.12v.16M457.146 899.448l.16.16h.96M394.266 899.288h1.12v.16" style="fill:none;fill-opacity:1;fill-rule:evenodd;stroke:red;stroke-width:1.33333;visibility:visible" visibility="hidden"/><path d="M394.266 899.288v.16h1.12M433.786 899.288h.96l-.16.16M307.866 899.928l.16.16h.16M433.786 899.448h.8l-.32.64" style="fill:none;fill-opacity:1;fill-rule:evenodd;stroke:red;stroke-width:1.33333;visibility:visible" visibility="hidden"/><path d="m433.786 899.448.16.64h.32M370.746 899.448h.96l-.48.48" style="fill:none;fill-opacity:1;fill-rule:evenodd;stroke:red;stroke-width:1.33333;visibility:visible" visibility="hidden"/><path d="m370.746 899.448.16.48h.32M307.866 899.288h.8l-.32.64" style="fill:none;fill-opacity:1;fill-rule:evenodd;stroke:red;stroke-width:1.33333;visibility:visible" visibility="hidden"/><path d="M307.866 899.288v.64h.48M457.306 899.608h.96v.16" style="fill:none;fill-opacity:1;fill-rule:evenodd;stroke:red;stroke-width:1.33333;visibility:visible" visibility="hidden"/><path d="m457.306 899.608.16.16h.8M394.266 899.448h1.12l-.16.32M331.706 900.088v.16h.48M308.026 900.088h.16-.16M308.026 900.088h.16-.16M394.426 899.768h.8v.32M394.426 899.768l.32.32h.48M308.026 900.088h.16-.16M308.026 900.088h.16-.16M370.906 899.928h.32v.16" style="fill:none;fill-opacity:1;fill-rule:evenodd;stroke:red;stroke-width:1.33333;visibility:visible" visibility="hidden"/><path d="M370.906 899.928v.16h.32M331.546 899.608h.8v.48M331.546 899.608l.16.48h.64M307.866 899.928h.48l-.16.16M394.746 900.248v.16h.48M331.866 900.408h.32-.32M331.866 900.408h.32-.32M331.706 900.248h.48v.16M331.706 900.248l.16.16h.32M433.946 900.248h.16-.16M433.946 900.248h.16-.16M457.626 900.248h.64-.64M457.626 900.248h.64M433.946 900.248h.16-.16M433.946 900.248h.16-.16M433.946 900.248h.16-.16M433.946 900.248h.16-.16M433.946 900.248h.16-.16M394.746 900.088h.48v.16" style="fill:none;fill-opacity:1;fill-rule:evenodd;stroke:red;stroke-width:1.33333;visibility:visible" visibility="hidden"/><path d="M394.746 900.088v.16h.48M457.466 899.768h.8v.48M457.466 899.768l.16.48h.64M370.906 900.088h.32l-.16.16M370.906 900.088l.16.16M308.026 900.088h.16l-.16.16M308.026 900.248v-.16.16M433.946 900.088h.32l-.16.16" style="fill:none;fill-opacity:1;fill-rule:evenodd;stroke:red;stroke-width:1.33333;visibility:visible" visibility="hidden"/><path d="M433.946 900.088v.16h.16M331.706 900.088h.64l-.16.16M394.906 900.568v.16h.16M332.026 900.568h.16-.16M394.906 900.568h.32-.16M394.906 900.568h.16-.16M332.026 900.568h.16-.16M332.026 900.568h.16-.16M331.866 900.408h.32v.16" style="fill:none;fill-opacity:1;fill-rule:evenodd;stroke:red;stroke-width:1.33333;visibility:visible" visibility="hidden"/><path d="m331.866 900.408.16.16h.16M457.786 900.568h.32-.32M457.786 900.568h.32-.32M457.786 900.248h.48l-.16.32" style="fill:none;fill-opacity:1;fill-rule:evenodd;stroke:red;stroke-width:1.33333;visibility:visible" visibility="hidden"/><path d="M457.786 900.248v.32h.32M394.746 900.408h.48v.16M394.746 900.408l.16.16h.32M394.746 900.248h.48v.16M457.946 900.728h.16-.16M457.946 900.728h.16-.16M457.946 900.728h.16-.16M394.906 900.728h.16-.16M394.906 900.728h.16-.16" style="fill:none;fill-opacity:1;fill-rule:evenodd;stroke:red;stroke-width:1.33333;visibility:visible" visibility="hidden"/><path d="M457.786 900.568h.32v.16" style="fill:none;fill-opacity:1;fill-rule:evenodd;stroke:red;stroke-width:1.33333;visibility:visible" visibility="hidden"/><path d="m457.786 900.568.16.16h.16M394.906 900.568h.16v.16" style="fill:none;fill-opacity:1;fill-rule:evenodd;stroke:red;stroke-width:1.33333;visibility:visible" visibility="hidden"/><path d="m334.586 807.288.96-.32-.16 1.28M335.386 808.248l-.8.16M334.746 799.928l.8-.32v1.28M335.546 800.888l-.8.32" style="fill:none;stroke:red;stroke-width:.479999;stroke-linecap:round;stroke-linejoin:round;stroke-miterlimit:10;stroke-dasharray:none;stroke-opacity:1;visibility:visible" visibility="hidden"/><path d="m335.546 806.968-.16-.16-.8.48v1.12M334.906 792.568l.8-.16v1.28M335.706 793.688l-.8.16M335.546 799.608l-.16-.16-.64.48v1.28M335.066 785.368l.8-.32v1.28M335.866 786.328l-.96.16" style="fill:none;stroke:red;stroke-width:.479999;stroke-linecap:round;stroke-linejoin:round;stroke-miterlimit:10;stroke-dasharray:none;stroke-opacity:1;visibility:visible" visibility="hidden"/><path d="m335.706 792.408-.16-.16-.64.32v1.28M335.066 778.008l.96-.32-.16 1.28M335.866 778.968l-.8.32M335.866 785.048l-.16-.16-.64.48-.16 1.12M482.425 841.848l-.32.16v-1.28l.32-.16v1.28M481.625 840.248l.48.48M482.105 842.008l-.48-.48" style="fill:none;stroke:red;stroke-width:.479999;stroke-linecap:round;stroke-linejoin:round;stroke-miterlimit:10;stroke-dasharray:none;stroke-opacity:1;visibility:visible" visibility="hidden"/><path d="m336.026 777.688-.16-.16-.8.48v1.28M482.425 834.648h-.16v-1.28h.32l-.16 1.28M481.785 832.888l.48.48M482.265 834.648l-.48-.48M482.425 840.568l-.8-.32v1.28M482.585 827.288h-.16v-1.12l.16-.16v1.28M481.945 825.688l.48.48M482.425 827.288l-.48-.48" style="fill:none;stroke:red;stroke-width:.479999;stroke-linecap:round;stroke-linejoin:round;stroke-miterlimit:10;stroke-dasharray:none;stroke-opacity:1;visibility:visible" visibility="hidden"/><path d="m482.585 833.368-.8-.48v1.28M482.745 819.928l-.32.16.16-1.28.16-.16v1.28M482.105 818.328l.48.48M482.425 820.088l-.48-.48M482.585 826.008l-.64-.32v1.12M482.585 812.728h.32v-1.28h-.32v1.28M482.105 810.968l.48.48M482.585 812.728l-.48-.48" style="fill:none;stroke:red;stroke-width:.479999;stroke-linecap:round;stroke-linejoin:round;stroke-miterlimit:10;stroke-dasharray:none;stroke-opacity:1;visibility:visible" visibility="hidden"/><path d="m482.745 818.648-.64-.32-.16 1.28M420.986 807.128l.16-.16M421.946 808.568l-.96-.32v-1.12l.96.16M482.905 811.448l-.8-.48v1.28M421.146 799.768l.16-.16M421.946 801.208l-.8-.16v-1.28l.96.32" style="fill:none;stroke:red;stroke-width:.479999;stroke-linecap:round;stroke-linejoin:round;stroke-miterlimit:10;stroke-dasharray:none;stroke-opacity:1;visibility:visible" visibility="hidden"/><path d="M421.946 808.568v-1.28l-.8-.32M421.306 792.408l.16-.159M422.106 794.008l-.8-.32v-1.28l.8.32M421.946 801.208l.16-1.12-.8-.48M421.466 785.208v-.16M422.266 786.648l-.8-.32v-1.12l.8.16" style="fill:none;stroke:red;stroke-width:.479999;stroke-linecap:round;stroke-linejoin:round;stroke-miterlimit:10;stroke-dasharray:none;stroke-opacity:1;visibility:visible" visibility="hidden"/><path d="M422.106 794.008v-1.28l-.64-.48M421.466 777.848l.16-.159M422.426 779.288l-.96-.16v-1.28l.96.32M422.266 786.648v-1.28l-.8-.32M256.506 907.448l254.72.32" style="fill:none;stroke:red;stroke-width:.479999;stroke-linecap:round;stroke-linejoin:round;stroke-miterlimit:10;stroke-dasharray:none;stroke-opacity:1;visibility:visible" visibility="hidden"/><path d="M422.426 779.288v-1.12l-.8-.48" style="fill:none;stroke:red;stroke-width:.479999;stroke-linecap:round;stroke-linejoin:round;stroke-miterlimit:10;stroke-dasharray:none;stroke-opacity:1;visibility:visible" visibility="hidden"/><path d="m263.386 959.606 7.52-.8 7.36-.64 7.36-.48 7.52-.48 7.36-.48 7.36-.32 7.52-.16 7.52-.16 7.36-.16h52.32l29.76.16h29.92l7.36.32 7.52.16 7.36.32 7.36.48 7.52.48 7.36.64 7.36.64 7.36.64" style="fill:none;stroke:red;stroke-width:1.12;stroke-linecap:round;stroke-linejoin:round;stroke-miterlimit:10;stroke-dasharray:none;stroke-opacity:1;visibility:visible" visibility="hidden"/><path d="m513.145 951.126.48-26.079M254.426 890.488l259.36.32.32 8.8M513.145 951.126l-4.96-.48-4.8-.64" style="fill:none;stroke:red;stroke-width:.479999;stroke-linecap:round;stroke-linejoin:round;stroke-miterlimit:10;stroke-dasharray:none;stroke-opacity:1;visibility:visible" visibility="hidden"/><path d="m332.346 898.808-.16-.8-.32-.96-.48-.8-.8-.8-.8-.64-.96-.64-1.28-.64-1.28-.48-1.28-.48-1.44-.32-1.6-.16-1.44-.16-1.6.16h-1.44l-1.6.32-1.28.32-1.44.32-1.12.64-1.12.48-.96.64-.8.8-.64.8-.48.8-.16.8v1.76l.48.8.48.96.64.64.96.8.96.64 1.12.64 1.28.48 1.44.32 1.44.32 1.44.32h3.04l1.6-.16 1.44-.16 1.44-.32 1.28-.48 1.28-.48 1.12-.64.96-.64.8-.64.48-.8.48-.8.32-.96v-.8M395.386 898.808l-.16-.8-.32-.8-.64-.8-.64-.8-.8-.8-1.12-.64-1.12-.64-1.28-.48-1.44-.32-1.44-.32-1.44-.32h-3.04l-1.6.16-1.44.16-1.44.32-1.28.48-1.28.48-1.12.64-.96.64-.64.64-.64.8-.48.96-.32.8v.8l.16.96.32.8.48.8.8.8.8.64 1.12.8 1.12.48 1.28.48 1.28.48 1.44.32 1.6.16 1.44.16h1.6l1.6-.16 1.44-.16 1.44-.48 1.28-.32 1.28-.48.96-.64.96-.64.8-.8.64-.8.48-.8.16-.8.16-.96M458.266 898.968l-.16-.96-.32-.8-.48-.8-.64-.8-.96-.64-.96-.8-1.12-.48-1.28-.48-1.44-.48-1.44-.32-1.44-.16-1.6-.16h-1.6l-1.44.16-1.44.16-1.44.32-1.44.48-1.12.48-1.12.64-.96.64-.8.8-.64.8-.32.8-.32.8v.96l.16.8.32.8.48.8.64.8.96.8.96.64 1.12.64 1.28.48 1.44.32 1.44.32 1.44.16 1.6.16h1.6l1.44-.16 1.44-.16 1.44-.32 1.28-.48 1.28-.48 1.12-.64.96-.64.8-.8.64-.64.32-.96.32-.8v-.8" style="fill:none;stroke:red;stroke-width:.479999;stroke-linecap:round;stroke-linejoin:round;stroke-miterlimit:10;stroke-dasharray:none;stroke-opacity:1;visibility:visible" visibility="hidden"/><path d="m332.026 900.568-.48-.8-.48-.8-.8-.64-.96-.64-.96-.64-1.28-.64-1.12-.32-1.44-.48-1.44-.16-1.44-.32h-3.04l-1.44.16-1.44.16-1.28.32-1.28.48-1.28.48-.96.64-.96.64-.8.64-.64.8-.48.8M394.906 900.728l-.32-.8-.64-.8-.8-.8-.8-.64-1.12-.64-1.12-.48-1.28-.48-1.28-.32-1.44-.32-1.44-.16-1.6-.16-1.44.16h-1.44l-1.44.32-1.44.32-1.28.32-1.12.64-1.12.48-.96.64-.64.8-.64.64-.48.8M457.946 900.728l-.48-.8-.48-.8-.8-.64-.96-.8-.96-.48-1.12-.64-1.28-.48-1.44-.32-1.44-.32-1.44-.16h-3.04l-1.44.16-1.44.16-1.28.32-1.28.48-1.28.48-.96.64-.96.64-.8.64-.64.8-.32.8M501.465 959.766l9.76-51.998-.32-8.16M510.905 899.608h3.2l-.32 18.08" style="fill:none;stroke:red;stroke-width:.479999;stroke-linecap:round;stroke-linejoin:round;stroke-miterlimit:10;stroke-dasharray:none;stroke-opacity:1;visibility:visible" visibility="hidden"/><path d="M324.986 902.008v-.64l-.32-.48-.48-.48-.64-.48-.8-.32-.96-.16-.96-.16-.96-.16-.96.16-.96.16-.8.16-.8.48-.64.32-.32.48-.32.64v1.12l.32.48.48.48.64.48.8.32.96.16.96.16.96.16.96-.16.96-.16.8-.16.8-.48.64-.32.32-.48.32-.64v-.48M388.026 902.008l-.16-.48-.32-.64-.48-.48-.64-.32-.8-.32-.8-.32-.96-.16h-2.08l-.8.16-.96.32-.64.32-.64.48-.48.48-.32.48v.64l.16.48.32.48.48.48.64.48.8.32.8.32.96.16h2.08l.8-.16.96-.32.64-.32.64-.48.48-.48.32-.48v-.64M451.066 902.168l-.16-.64-.32-.48-.48-.48-.64-.48-.8-.32-.96-.32-.96-.16h-1.92l-.96.32-.8.16-.8.32-.64.48-.32.48-.32.48v1.12l.32.64.48.48.8.32.64.48.96.16.96.16h1.92l.96-.16.8-.32.8-.32.64-.48.48-.48.16-.48.16-.48M251.546 866.648v.64l.32.48.48.48.8.48.64.32.96.32.96.16h.96l.96-.16.96-.16.8-.16.8-.32.64-.48.48-.48.16-.64.16-.48-.16-.48-.32-.64-.48-.48-.64-.32-.8-.48-.96-.16-.96-.16h-1.92l-.96.16-.8.32-.8.32-.64.48-.32.48-.32.48v.48M249.146 796.568l.16.48.32.64.48.48.64.32.8.32.96.32.96.16h1.92l.96-.16.8-.32.8-.32.48-.48.48-.48.32-.48v-.48l-.16-.64-.32-.48-.48-.48-.64-.48-.8-.32-.8-.32-.96-.16h-1.92l-.96.16-.96.32-.64.32-.64.48-.48.48-.16.48-.16.64M271.866 890.488h-17.44M237.306 753.368l2.4 76M247.226 753.368h-9.92l-.64 63.2M255.706 908.728l7.68 50.878" style="fill:none;stroke:red;stroke-width:.479999;stroke-linecap:round;stroke-linejoin:round;stroke-miterlimit:10;stroke-dasharray:none;stroke-opacity:1;visibility:visible" visibility="hidden"/><path d="m266.266 795.128-.48-.8-.64-.8-.64-.64-.96-.8-.96-.48-1.28-.64-1.28-.48-1.28-.32-1.44-.32-1.44-.16h-3.04l-1.44.16-1.44.16-1.44.32-1.28.48-1.12.48-1.12.64-.8.64-.8.64-.64.8-.48.8M268.506 865.368l-.48-.8-.48-.8-.8-.8-.8-.64-1.12-.64-1.12-.48-1.28-.48-1.28-.32-1.44-.32-1.44-.16-1.44-.16h-1.44l-1.44.16-1.44.16-1.44.32-1.28.48-1.12.48-1.12.48" style="fill:none;stroke:red;stroke-width:.479999;stroke-linecap:round;stroke-linejoin:round;stroke-miterlimit:10;stroke-dasharray:none;stroke-opacity:1;visibility:visible" visibility="hidden"/><path d="m266.586 793.368-.16-.96-.32-.8-.48-.8-.8-.8-.8-.64-1.12-.8-1.12-.48-1.28-.48-1.28-.48-1.44-.32-1.6-.16-1.44-.16h-1.6l-1.6.16-1.44.16-1.44.32-1.28.48-1.28.48-.96.64-.96.64-.8.8-.64.8-.48.8-.16.8-.16.96.16.8.32.8.64.8.64.8.8.8 1.12.64 1.12.64 1.28.48 1.44.32 1.44.32 1.44.16 1.6.16h1.44l1.6-.16 1.44-.16 1.44-.32 1.28-.48 1.28-.48 1.12-.64.96-.64.64-.8.64-.64.48-.96.32-.8v-.8M328.026 759.928l-.48-.8-.48-.8-.8-.64-.96-.8-.96-.48-1.12-.64-1.28-.48-1.44-.32-1.44-.32-1.44-.16h-3.04l-1.44.16-1.44.16-1.28.32-1.28.48-1.28.48-.96.64-.96.64-.8.64-.64.8-.32.8M247.706 766.488l-.48-13.12M336.506 813.368l83.2.16M509.625 766.648l-261.919-.16M248.986 749.528l258.24.16.16 4M267.866 766.488l4 124M267.866 766.488h-20.16l-.48-13.12M249.306 869.048l1.12.48 1.44.32 1.44.32 1.44.16 1.6.16 1.44-.16h1.44l1.6-.32 1.28-.32 1.28-.32 1.28-.48 1.12-.64.96-.64.64-.8.64-.64.48-.8.32-.96v-1.6l-.32-.8-.48-.96-.64-.64-.8-.8-.96-.64-1.12-.64-1.28-.48-1.28-.48-1.44-.32-1.44-.16-1.6-.16h-2.88l-1.6.16-1.28.32-1.44.32-1.28.48-1.12.64-.96.64M452.666 760.088l-.32-.8-.64-.8-.8-.64-.8-.8-1.12-.64-1.12-.48-1.28-.48-1.44-.32-1.28-.32-1.6-.16h-2.88l-1.44.16-1.44.16-1.44.32-1.28.48-1.12.48-1.12.48-.96.64-.8.8-.48.8-.48.8" style="fill:none;stroke:red;stroke-width:.479999;stroke-linecap:round;stroke-linejoin:round;stroke-miterlimit:10;stroke-dasharray:none;stroke-opacity:1;visibility:visible" visibility="hidden"/><path d="m328.346 758.168-.16-.96-.32-.8-.48-.8-.64-.8-.96-.64-.96-.8-1.12-.48-1.28-.48-1.44-.48-1.44-.32-1.44-.16-1.6-.16h-1.6l-1.44.16-1.44.16-1.44.32-1.44.48-1.12.48-1.12.64-.96.64-.8.8-.64.8-.32.8-.32.8v.96l.16.8.32.8.48.8.64.8.96.8.96.64 1.12.64 1.28.48 1.44.32 1.44.32 1.44.16 1.6.16h1.6l1.44-.16 1.44-.16 1.44-.32 1.44-.48 1.12-.48 1.12-.64.96-.64.8-.64.64-.8.32-.96.32-.8v-.8" style="fill:none;stroke:red;stroke-width:.479999;stroke-linecap:round;stroke-linejoin:round;stroke-miterlimit:10;stroke-dasharray:none;stroke-opacity:1;visibility:visible" visibility="hidden"/><path d="M311.066 761.368v.48l.32.48.48.48.64.48.8.32.8.32.96.16h1.92l.8-.16.96-.16.64-.32.64-.32.64-.48.32-.48.16-.64-.16-.48-.16-.48-.32-.48-.64-.48-.64-.48-.8-.32-.8-.16-.96-.16h-.96l-.96.16-.96.16-.8.32-.64.32-.64.32-.32.48-.32.64v.48M452.986 758.328v-.96l-.48-.8-.48-.8-.64-.8-.96-.8-.96-.64-1.12-.48-1.28-.64-1.44-.32-1.44-.32-1.44-.16-1.6-.16h-1.44l-1.6.16-1.44.16-1.44.32-1.28.48-1.28.48-1.12.64-.96.64-.8.8-.48.8-.48.8-.32.8v.8l.16.96.32.8.48.8.8.8.8.8.96.64 1.28.48 1.28.48 1.28.48 1.44.32 1.6.16 1.44.16h1.6l1.44-.16 1.6-.16 1.28-.32 1.44-.48 1.12-.48 1.12-.64.96-.64.8-.8.64-.8.48-.8.16-.8v-.8M499.865 796.728v.64l.32.48.64.48.64.48.64.32.96.32.96.16h1.92l.96-.16.8-.32.8-.32.64-.48.48-.48.16-.48.16-.64-.16-.48-.32-.64-.48-.48-.64-.32-.8-.32-.96-.32-.96-.16h-1.92l-.96.16-.8.32-.8.32-.64.48-.32.48-.32.48v.48M502.105 866.968l.16.48.32.64.48.48.64.32.8.48.8.16.96.16h2.08l.8-.16.96-.32.64-.32.64-.48.48-.48.32-.48v-.48l-.16-.64-.32-.48-.48-.48-.64-.48-.8-.32-.8-.32-.96-.16h-.96l-1.12.16-.8.16-.96.16-.64.32-.64.48-.48.48-.32.64v.48M509.625 766.648l-.32-12.96M493.625 890.808h20.16l.32 8.8M524.185 899.608l-4.8-145.92M247.226 753.368h1.92l-.16-3.84M507.385 753.688h1.92l.32 12.96" style="fill:none;stroke:red;stroke-width:.479999;stroke-linecap:round;stroke-linejoin:round;stroke-miterlimit:10;stroke-dasharray:none;stroke-opacity:1;visibility:visible" visibility="hidden"/><path d="m435.706 761.528.16.48.32.48.32.48.64.48.8.32.8.32.96.16h1.92l.96-.16.8-.16.8-.32.64-.48.48-.48.32-.48.16-.48v-.48l-.32-.64-.32-.48-.48-.32-.8-.48-.8-.32-.8-.16-.96-.16h-1.92l-.96.32-.8.16-.64.48-.64.32-.32.48-.32.48v.64M519.065 865.528l-.32-.8-.64-.8-.8-.64-.8-.64-1.12-.64-1.12-.64-1.28-.48-1.28-.32-1.44-.32-1.44-.16h-3.04l-1.44.16-1.44.16-1.44.32-1.28.48-1.12.48-1.12.64-.96.64-.64.64-.64.8-.48.8M516.825 795.448l-.48-.8-.48-.8-.8-.8-.96-.64-.96-.64-1.12-.48-1.28-.48-1.44-.32-1.44-.32-1.44-.16-1.44-.16-1.44.16h-1.6l-1.44.32-1.28.32-1.28.32-1.28.48-.96.64-.96.64-.8.8-.64.64-.32.8" style="fill:none;stroke:red;stroke-width:.479999;stroke-linecap:round;stroke-linejoin:round;stroke-miterlimit:10;stroke-dasharray:none;stroke-opacity:1;visibility:visible" visibility="hidden"/><path d="m519.545 863.768-.16-.96-.32-.8-.64-.8-.64-.8-.8-.64-1.12-.64-1.12-.64-1.28-.48-1.44-.48-1.44-.32-1.44-.16-1.6-.16h-1.44l-1.6.16-1.44.16-1.44.48-1.28.32-1.28.48-1.12.64-.96.64-.8.8-.48.8-.48.8-.32.8v.96l.16.8.32.8.48.8.8.8.8.8 1.12.64 1.12.64 1.28.48 1.28.32 1.44.32 1.6.32h3.04l1.44-.16 1.6-.16 1.44-.32 1.28-.48 1.28-.48.96-.64.96-.64.8-.64.64-.8.48-.96.16-.8.16-.8M489.625 770.648l-4.64-2.4M413.146 809.848l.64-41.76M490.905 810.648l-77.12-42.56 71.2.16M488.985 851.768l-75.84-41.92M493.465 890.808v-.96M420.666 890.648l71.52-40.64 1.28 39.84-1.6.96M509.625 766.648h-20.16v4M519.385 753.688h-10.08M513.785 917.688l.32-18.08h10.08l-.96 52.798-10.08-1.28.48-26.079.8-.64.8-.48.64-.64.32-.64.32-.64.16-.8-.16-.64-.16-.64-.48-.64-.64-.64-.64-.48-.8-.48M493.625 890.808l-4.16-124.16M517.145 793.528l-.16-.8-.32-.8-.48-.8-.64-.8-.96-.8-.96-.64-1.12-.64-1.28-.48-1.44-.32-1.44-.32-1.44-.32h-3.2l-1.44.16-1.44.16-1.44.32-1.44.48-1.12.48-1.12.64-.96.64-.8.64-.64.8-.32.8-.32.96v.8l.16.96.32.8.48.8.64.8.96.64.96.64 1.12.64 1.28.48 1.44.48 1.44.32 1.44.16 1.6.16h1.6l1.44-.16 1.44-.32 1.44-.32 1.44-.32 1.12-.48 1.12-.64.96-.64.8-.8.64-.8.32-.8.32-.8v-.96M271.706 850.328l71.2-40.48.64-41.76-71.2-.16M272.346 767.928l-4.32 2.56M269.306 810.328l74.24-42.24M271.866 889.688l1.6.8M344.826 890.648l-74.24-40.96M456.506 812.248l-.16-.96-.16-.96-.48-.96-.48-.96-.48-.96-.8-.8-.64-.8-.8-.64-.8-.32-.8-.32-.8-.16-.64.16-.64.16-.48.48-.48.64-.16.64-.16.8v1.92l.32.96.32.96.64 1.12.48.8.64.96.8.64.8.64.8.32.8.32.64.16.8-.16.64-.16.48-.48.32-.64.32-.64.16-.8v-.96" style="fill:none;stroke:red;stroke-width:.479999;stroke-linecap:round;stroke-linejoin:round;stroke-miterlimit:10;stroke-dasharray:none;stroke-opacity:1;visibility:visible" visibility="hidden"/><path d="m490.265 851.128.64-40.48-1.28-40M276.986 840.088l-.48.48-.16-.16M276.506 841.688h-.16M276.986 841.208l-.48.48v-1.12M310.426 808.088v-.96l-.16-.8-.16-.64-.48-.64-.48-.32-.48-.32-.64-.16-.8.16-.64.32-.8.48-.8.48-.64.8-.8.8-.48.96-.48.96-.48.96-.32.96v.96l-.16.96.16.8.32.8.32.48.48.48.64.16.64.16.64-.16.8-.32.8-.32.64-.64.8-.64.64-.96.64-.8.48-.96.32-1.12.32-.96.16-.96M277.146 832.728l-.48.48-.16-.16M276.666 834.488l-.32-.16M277.146 834.008l-.48.48v-1.28" style="fill:none;stroke:red;stroke-width:.479999;stroke-linecap:round;stroke-linejoin:round;stroke-miterlimit:10;stroke-dasharray:none;stroke-opacity:1;visibility:visible" visibility="hidden"/><path d="M276.986 841.208v-1.12l-.64.32v1.28M277.306 825.368l-.48.48h-.32M276.826 827.128h-.32M277.306 826.648l-.48.48v-1.28M277.146 834.008v-1.28l-.64.32-.16 1.28M277.466 818.168l-.48.48-.32-.16M276.986 819.768h-.32M277.306 819.288l-.32.48v-1.12" style="fill:none;stroke:red;stroke-width:.479999;stroke-linecap:round;stroke-linejoin:round;stroke-miterlimit:10;stroke-dasharray:none;stroke-opacity:1;visibility:visible" visibility="hidden"/><path d="M277.306 826.648v-1.28l-.8.48v1.28M277.466 810.808l-.48.48-.16-.16M276.986 812.568l-.16-.16M277.466 812.088l-.48.48v-1.28M277.306 819.288l.16-1.12-.8.32v1.28" style="fill:none;stroke:red;stroke-width:.479999;stroke-linecap:round;stroke-linejoin:round;stroke-miterlimit:10;stroke-dasharray:none;stroke-opacity:1;visibility:visible" visibility="hidden"/><path d="M277.466 812.088v-1.28l-.64.32v1.28M255.226 909.368l.8-.96.48-.96.48-.96.32-.96.16-.96v-.96l-.16-.8" style="fill:none;stroke:red;stroke-width:.479999;stroke-linecap:round;stroke-linejoin:round;stroke-miterlimit:10;stroke-dasharray:none;stroke-opacity:1;visibility:visible" visibility="hidden"/><path d="m263.706 963.606-.32-4" style="fill:none;stroke:red;stroke-width:1.12;stroke-linecap:round;stroke-linejoin:round;stroke-miterlimit:10;stroke-dasharray:none;stroke-opacity:1;visibility:visible" visibility="hidden"/><path d="m255.226 909.368.48 3.52.64 3.68.64 3.84.64 4 .64 4.16.64 4.32.64 4.48.64 4.478M260.186 941.846l3.52 21.76" style="fill:none;stroke:red;stroke-width:.479999;stroke-linecap:round;stroke-linejoin:round;stroke-miterlimit:10;stroke-dasharray:none;stroke-opacity:1;visibility:visible" visibility="hidden"/><path d="M455.546 890.648v-.16l.16-.16-2.72-1.28v.16h-.16M462.106 893.848l.16-.16v-.16l-2.56-1.28-.16.16v.16" style="fill:none;fill-opacity:1;fill-rule:evenodd;stroke:red;stroke-width:1.33333;visibility:visible" visibility="hidden"/><path d="m314.906 905.848.48.16" style="fill:none;stroke:red;stroke-width:.16;stroke-linecap:round;stroke-linejoin:round;stroke-miterlimit:10;stroke-dasharray:none;stroke-opacity:1;visibility:visible" visibility="hidden"/><path d="M268.666 962.006h5.6M274.266 962.006h-5.6" style="fill:none;stroke:red;stroke-width:.479999;stroke-linecap:round;stroke-linejoin:round;stroke-miterlimit:10;stroke-dasharray:none;stroke-opacity:1;visibility:visible" visibility="hidden"/><path d="M381.626 892.088h1.76M381.626 892.088h2.24M318.586 892.088l1.92-.16M318.586 892.088h2.24M316.026 895.448l1.92-.32M442.106 895.608l1.76-.32" style="fill:none;fill-opacity:1;fill-rule:evenodd;stroke:red;stroke-width:1.33333;visibility:visible" visibility="hidden"/><path d="m335.546 800.888-.96 6.4M335.866 778.968l-.8-.96M510.905 899.608l.32 8.16M513.785 917.688l-.16 7.36M501.465 959.766l1.92-9.76M331.706 900.088l-6.72 1.92M332.186 900.568l-7.2 1.44M370.746 899.448l17.28 2.56M395.066 900.728l-7.04 1.28M457.466 899.768l-6.4 2.4M434.106 900.408l16.96 1.76M247.706 766.488l-10.4-13.12M435.706 761.528l16.96-1.44M311.066 761.368l17.28-3.2M328.346 758.168l-17.28 3.2M435.706 761.528l17.28-3.2M517.145 793.528l-17.28 3.2M519.065 865.528l-16.96 1.44M510.905 899.608h13.28M452.666 760.088l-16.96 1.44M452.986 758.328l-17.28 3.2M502.105 866.968l16.96-1.44M422.426 779.288l-8.64-11.2M437.146 894.168l-16.48-3.52M489.465 770.648v-4M499.865 796.728l17.28-3.2M329.306 897.688l15.52-7.04M276.666 834.488l-6.08 15.2" style="fill:none;stroke:red;stroke-width:.479999;stroke-linecap:round;stroke-linejoin:round;stroke-miterlimit:10;stroke-dasharray:none;stroke-opacity:1;visibility:visible" visibility="hidden"/><path d="m458.266 898.968-2.72-8.32M452.026 893.048l.8-3.84M458.266 898.968l1.28-6.4" style="fill:none;fill-opacity:1;fill-rule:evenodd;stroke:red;stroke-width:1.33333;visibility:visible" visibility="hidden"/><path d="m322.906 892.248-8 13.6M323.706 895.448l-8.32 10.56" style="fill:none;stroke:red;stroke-width:.16;stroke-linecap:round;stroke-linejoin:round;stroke-miterlimit:10;stroke-dasharray:none;stroke-opacity:1;visibility:visible" visibility="hidden"/><path d="m91.546 321.689-.48.48-.16.64v1.28l.48.64.48.64.64.64.96.48.96.48 1.12.32 1.12.32 1.44.32 1.28.16 1.44.16h1.28l1.44-.16 1.28-.16 1.28-.32 1.12-.32.96-.32.96-.48.64-.64.64-.48.32-.64.16-.64v-.64l-.16-.64-.32-.64M112.346 330.329l.96-.48M89.946 318.489l-.16-.16h-.32l-.16.16M112.346 330.329v-.48l-.16-.16-.16-.32v-.16l-.16-.16-.16-.16-.16-.16M90.906 318.009h-.64M113.306 329.849v-.48l-.16-.16-.16-.32v-.16l-.16-.16-.16-.16h-.32M91.386 323.769l-.32.64M110.586 324.889l-.32-.48M215.386 976.246l.32.96.48.96.64.96.8.8.96.8 1.12.64 1.28.64 1.44.48 1.44.32 1.6.32 1.76.16h3.36l1.76-.32 1.76-.16 1.6-.48 1.76-.48 1.6-.64 1.44-.8 1.44-.64 1.28-.96M263.706 963.606l-20.48 15.2-130.88-648.477M112.346 328.41l-.8.32" style="fill:none;stroke:#00ff4a;stroke-width:.479999;stroke-linecap:round;stroke-linejoin:round;stroke-miterlimit:10;stroke-dasharray:none;stroke-opacity:1;visibility:visible" visibility="hidden"/><path d="m112.346 328.409 1.28-.64.96-.64.8-.8.8-.64.48-.8.32-.8.16-.8-.16-.8-.16-.8-.48-.8-.64-.64-.8-.8-.96-.64-1.12-.64-1.28-.48-1.44-.48-1.44-.48M92.506 317.369l-.8.32-.8.32M89.946 318.489l.96-.48M89.946 318.489l-1.28.48-.96.64-.8.8-.64.64-.48.8-.32.8-.16.8v.8l.32.8.48.8.64.8.8.64 1.12.64 1.12.64 1.28.48 1.28.48 1.6.48 1.6.32 1.6.16 1.76.16 1.6.16 1.76-.16h1.76l1.6-.32 1.6-.16 1.6-.48 1.28-.48 1.44-.48M127.546 540.408v-.16h.32l.32.16h.16l.32.16.32.32.48.16.48.32.96.48.48.32.64.48 1.28.8 1.44.8 1.28.96 1.28.96 1.12 1.12 1.12 1.12.32.64.48.64.32.64.16.48.16.64.16.64v1.28l-.16.64-.16.48-.16.64-.32.48-.32.48-.48.48-.32.32-.48.32-.48.32-.64.16-.48.16-.64.16h-1.12l-.48-.16-.64-.32-.48-.16-.48-.32-.48-.48-.48-.48-.48-.48-.48-.64-.32-.64-.32-.64-.64-1.44-.48-1.6-.48-1.6" style="fill:none;stroke:#00ff4a;stroke-width:.479999;stroke-linecap:round;stroke-linejoin:round;stroke-miterlimit:10;stroke-dasharray:none;stroke-opacity:1;visibility:visible" visibility="hidden"/><path d="m84.026 325.529.32.96.48.8.64.8.8.64.96.8 1.12.64 1.28.48 1.44.64 1.44.32 1.6.48 1.76.32 1.76.16h5.28l1.76-.16 1.76-.32 1.6-.32 1.6-.32 1.44-.64 1.28-.48M260.186 941.846 113.306 329.85l1.12-.64.96-.64.96-.64.64-.8.64-.64.32-.8.32-.8v-.8l-.16-.8M159.226 493.849l2.08 9.44M161.306 503.289l10.24 42.72 1.92 7.68M127.546 540.248v.16l.8 4.32.8 4.32" style="fill:none;stroke:#00ff4a;stroke-width:.479999;stroke-linecap:round;stroke-linejoin:round;stroke-miterlimit:10;stroke-dasharray:none;stroke-opacity:1;visibility:visible" visibility="hidden"/><path d="m129.146 549.048.8 1.12.96 1.12.96.96.96.96.96.8.96.64 1.12.64.96.32.96.32.8.16h.8l.64-.16M137.946 549.368l-.32-.8-.32-.8-.48-.8-.64-.8-.64-.64-.8-.64-.64-.48-.8-.48-.64-.16-.64-.16-.48.16-.48.16-.32.32-.16.64v.64l.16.64.16.8.48.8.48.8.64.8.64.64.64.64.8.64.64.32.8.32h1.12l.48-.32.16-.32.32-.48v-.64l-.16-.8M108.026 318.009l-.16-.48-.32-.64-.48-.48-.64-.48-.8-.32-.96-.32-.96-.32-1.12-.16h-1.12l-1.28-.16-1.12.16-.96.16-.96.32-.96.32-.8.32-.48.48-.48.48-.16.48-.16.48.16.64.32.48.48.48.64.48.8.32.96.32.96.32 1.12.16 1.12.16h1.12l1.12-.16 1.12-.16.96-.16.96-.32.64-.48.64-.48.48-.48.16-.48.16-.48M118.106 323.289l41.12 170.56M173.466 553.688l83.84 349.12M84.026 325.529l131.36 650.717M84.026 325.529v-1.6l.16-.48.16-.48.16-.64.32-.48.32-.48.8-.8.96-.8 1.12-.64 1.28-.64M89.306 318.489l.96-.48M91.546 319.929l-.16 4.96" style="fill:none;stroke:#00ff4a;stroke-width:.479999;stroke-linecap:round;stroke-linejoin:round;stroke-miterlimit:10;stroke-dasharray:none;stroke-opacity:1;visibility:visible" visibility="hidden"/><path d="M91.546 319.929v.64l.32.64.48.48.64.64.8.48.96.48.96.48 1.28.32 1.28.16 1.28.16 1.28.16h1.44l1.28-.16 1.28-.16 1.12-.32 1.12-.32.96-.32.8-.48.64-.64.48-.48.32-.64.16-.64" style="fill:none;stroke:#00ff4a;stroke-width:.479999;stroke-linecap:round;stroke-linejoin:round;stroke-miterlimit:10;stroke-dasharray:none;stroke-opacity:1;visibility:visible" visibility="hidden"/><path d="m110.266 325.369.16-4.96v-.8l-.32-.8-.32-.64-.48-.64-.48-.48-.48-.48-.64-.48-.64-.32-.64-.32-.64-.16-1.44-.48-1.6-.32h-3.2l-1.6.16-1.44.32-.64.16-.64.32-.64.32-.64.32-.64.48-.48.48-.48.48-.48.8-.16.8-.16.8M89.306 318.489l2.24 3.2M89.946 318.489l2.56-1.12M129.146 549.048l8.8.32M118.106 323.289l-10.08-5.28M91.546 319.929l18.88.48" style="fill:none;stroke:#00ff4a;stroke-width:.479999;stroke-linecap:round;stroke-linejoin:round;stroke-miterlimit:10;stroke-dasharray:none;stroke-opacity:1;visibility:visible" visibility="hidden"/><path d="m703.225 335.449-.48.64-.16.64v.64l.16.64.32.64.64.48.64.64.96.48.96.48 1.12.32 1.28.32 1.28.16 1.28.16h2.88l1.28-.16 1.28-.16 1.28-.32 1.12-.32.96-.48.96-.48.64-.64.48-.64.48-.48.16-.64v-.64l-.32-.64-.32-.64M702.425 342.329h-.16v.16l-.16.16-.16.16-.16.16v.32l-.16.16v.32M723.705 331.929h-.32l-.16.16M701.465 341.849l-.16.16h-.16v.16l-.16.16-.16.32v.16l-.16.16v.48M722.745 331.609l-.16-.16-.16.16h-.16M703.225 337.689l-.32.48M722.425 338.169l-.32-.48M546.105 992.086l1.28.8 1.44.8 1.44.64 1.6.64 1.6.48 1.6.48 1.76.32 1.6.16 1.76.16h1.6l1.6-.16 1.6-.16 1.44-.32 1.28-.48 1.28-.48 1.12-.64.96-.8.8-.8.64-.8.48-.96.32-.96M700.665 343.449l.96.32M546.105 992.086l-21.12-15.36M721.145 331.129l1.12.48.96.48" style="fill:none;stroke:#9500ff;stroke-width:.479999;stroke-linecap:round;stroke-linejoin:round;stroke-miterlimit:10;stroke-dasharray:none;stroke-opacity:1;visibility:visible"/><path d="m704.985 330.169-1.44.32-1.28.48-1.28.48-1.12.48-.96.64-.96.64-.64.8-.48.64-.32.8-.16.8.16.8.16.8.32.64.64.8.8.64.8.8 1.12.48 1.12.64M702.425 342.33l-.96-.48M702.425 342.329l1.44.48 1.44.48 1.6.32 1.6.32 1.6.16 1.76.16h3.36l1.76-.16 1.6-.16 1.6-.32 1.44-.48 1.44-.48 1.12-.48 1.12-.64.96-.64.8-.8.48-.64.48-.8.16-.8v-.8l-.16-.8-.32-.8-.48-.8-.8-.64-.96-.8-.96-.64-1.28-.48" style="fill:none;stroke:#9500ff;stroke-width:.479999;stroke-linecap:round;stroke-linejoin:round;stroke-miterlimit:10;stroke-dasharray:none;stroke-opacity:1;visibility:visible"/><path d="m546.105 992.086 155.52-648.317 1.28.64 1.44.48 1.6.48 1.6.32 1.76.16 1.6.32h5.28l1.6-.16 1.76-.32 1.44-.32 1.6-.48 1.28-.48 1.28-.48 1.12-.64.96-.64.8-.64.64-.8.48-.8.32-.8" style="fill:none;stroke:#9500ff;stroke-width:.479999;stroke-linecap:round;stroke-linejoin:round;stroke-miterlimit:10;stroke-dasharray:none;stroke-opacity:1;visibility:visible"/><path d="m665.305 560.088 1.44-.8 1.44-.8 1.44-.64 1.44-.8 1.28-.48.64-.32.64-.16 1.12-.48.48-.16h.32l.48-.16h.8l.16.16h.16v.48l.16.32-.16.32v.8l-.32 1.12-.32 1.12-.32 1.44-.32 1.44-.64 1.6-.48 1.6-.64 1.44-.8 1.28-.48.64-.48.64-.48.48-.48.48-.64.48-.48.32-.64.32-.64.16-.64.16h-1.12l-.64-.16-.64-.16-.64-.16-.48-.32-.64-.32-.48-.32-.48-.48-.32-.48-.48-.48" style="fill:none;stroke:#9500ff;stroke-width:.479999;stroke-linecap:round;stroke-linejoin:round;stroke-miterlimit:10;stroke-dasharray:none;stroke-opacity:1;visibility:visible"/><path d="m672.665 560.568.16-.8v-1.12l-.32-.32-.32-.16-.48-.16h-.48l-.64.32-.64.32-.64.48-.64.64-.64.64-.64.8-.64.64-.32.8-.32.8-.32.8v1.12l.16.48.32.32.32.16h.48l.64-.16.64-.16.64-.48.64-.48.8-.64.64-.8.48-.8.48-.8.48-.8.16-.64M524.825 963.926l4.16-21.76v.64l.16.48.16.32.16.16h.16l.16-.32.16-.48.16-.48.32-.8.16-.96.16-1.12.16-1.12.16-1.279.16-1.28.16-1.44.16-1.28v-1.44l.16-1.28v-2.24M533.465 919.928l-.64 2.56-.48 2.88-.64 2.88M532.985 915.448l-.16.96v.96l.16 1.12.32.96.48 1.12.64.96.96.96" style="fill:none;stroke:#9500ff;stroke-width:.479999;stroke-linecap:round;stroke-linejoin:round;stroke-miterlimit:10;stroke-dasharray:none;stroke-opacity:1;visibility:visible"/><path d="M695.225 336.249v1.76l.16.8.48.96.64.8.8.8.96.64 1.12.8 1.28.64-171.52 611.517.96-4.48.8-4.32.8-4.32.8-4.159.64-4 .8-3.84.64-3.84.8-3.52M629.945 569.368l2.88-9.44 12-42.72 3.36-12.96M529.145 954.966l-4.16 21.76-.16-12.8M665.305 560.088l-1.44 4.48-1.44 4.64M663.385 570.328l.48.16h1.44l.8-.32.96-.32.96-.48.96-.64.96-.8.8-.8.96-.96.96-.96.8-1.12.64-1.12.8-1.12.48-1.12.48-1.12.32-.96.16-.96.16-.96v-.8l-.16-.64M719.545 331.289l-.16-.48-.32-.48-.48-.48-.64-.48-.8-.32-.96-.32-.96-.32h-1.12l-1.12-.16h-1.12l-1.12.16-1.12.16-.96.32-.96.32-.64.32-.64.48-.48.48-.16.64-.16.48.16.48.32.48.48.48.64.48.8.48.96.16 1.12.32.96.16h3.52l.96-.32 1.12-.16.8-.32.8-.48.48-.48.48-.48.32-.48v-.64M695.225 336.249l-47.04 168M629.945 569.368l-96.96 346.08" style="fill:none;stroke:#9500ff;stroke-width:.479999;stroke-linecap:round;stroke-linejoin:round;stroke-miterlimit:10;stroke-dasharray:none;stroke-opacity:1;visibility:visible"/><path d="m722.745 331.609.96.32 1.44.8 1.28.64.96.96.48.48.48.32.32.64.32.48.16.48.16.64.16.48v1.76l-156.16 650.397M703.225 333.689v4.96M703.225 333.689v.64l.32.64.48.64.64.48.8.48.96.48 1.12.32 1.12.32 1.28.32h1.28l1.44.16 1.28-.16 1.28-.16 1.28-.16 1.28-.32.96-.32.96-.48.8-.48.64-.64.48-.48.32-.64.16-.64" style="fill:none;stroke:#9500ff;stroke-width:.479999;stroke-linecap:round;stroke-linejoin:round;stroke-miterlimit:10;stroke-dasharray:none;stroke-opacity:1;visibility:visible"/><path d="M722.105 338.649v-4.96l-.16-.8-.16-.8-.48-.64-.48-.64-.48-.48-.48-.48-.64-.32-.64-.32-.64-.32-.8-.32-1.44-.32-1.44-.16-1.6-.16-1.6.16-1.6.16-1.44.32-.64.32-.8.32-.64.32-.48.32-.64.48-.48.48-.48.64-.32.64-.32.8v.8M702.905 338.169l.32-2.72M662.425 569.208l10.24-8.64M532.985 915.448l.48 4.48M524.825 963.926l4.32-8.96M722.105 338.649l-2.56-7.36" style="fill:none;stroke:#9500ff;stroke-width:.479999;stroke-linecap:round;stroke-linejoin:round;stroke-miterlimit:10;stroke-dasharray:none;stroke-opacity:1;visibility:visible"/><path d="M268.666 962.006h16.96M274.266 962.006h-11.68" style="fill:none;stroke:red;stroke-width:.479999;stroke-linecap:round;stroke-linejoin:round;stroke-miterlimit:10;stroke-dasharray:none;stroke-opacity:1;visibility:visible" visibility="hidden"/></svg>