<svg xmlns="http://www.w3.org/2000/svg" baseProfile="full" height="1122.667" preserveAspectRatio="xMinYMin meet" style="width:765px;height:943px" width="793.333" xml:space="preserve"><path d="m486.88 525.12.48-.32M324.8 581.6l.32.16h.16l.16.16h.48l.32.16h.48l.16.16h3.2l.32-.16h.48l.16-.16h.48l.32-.16h.16l.16-.16.16-.16h.32l.16-.16h.16l.16-.16.16-.16v-.16h.16l.16-.16v-.16l.16-.16.16-.16v-.96l-.16-.16-.16-.16v-.16l-.16-.16h-.16v-.16l-.16-.16h-.16l-.16-.16-.16-.16h-.32l-.16-.16H332l-.16-.16h-.32l-.16-.16h-.48l-.32-.16h-.96l-.32-.16h-1.12l-.16.16h-1.12l-.16.16h-.48l-.32.16h-.16l-.32.16h-.16l-.16.16h-.16l-.32.16-.16.16h-.16l-.16.16-.16.16-.16.16-.16.16v.16h-.16v.16l-.16.16v.96h.16v.32l.16.16h.16v.16l.16.16.16.16h.16l.16.16h.16l.16.16M650.72 420.64h-.16l-.32-.16h-.16l-.16-.16h-.32l-.16-.16h-.48l-.32-.16h-3.2l-.16.16h-.48l-.32.16h-.16l-.32.16h-.16l-.16.16h-.32l-.16.16h-.16l-.16.16-.16.16h-.16l-.16.16-.16.16h-.16v.16l-.16.16v.16l-.16.16v.16l-.16.16v.48l.16.16v.16l.16.16.16.16v.16l.16.16h.16l.16.16.16.16h.16l.16.16h.16l.16.16h.16l.32.16h.16l.32.16h.48l.16.16h.8l.32.16h1.6l.16-.16h.8l.32-.16h.48l.16-.16h.32l.16-.16h.16l.32-.16h.16l.16-.16h.16l.16-.16.16-.16.16-.16h.16l.16-.16v-.16l.16-.16.16-.16v-.32h.16v-.48l-.16-.16v-.16l-.16-.16v-.16l-.16-.16-.16-.16-.16-.16h-.16l-.16-.16-.16-.16h-.16l-.16-.16M486.4 542.24l-58.56 28.96M334.56 617.28l-8.32 4M661.6 455.68l-126.72 62.56M657.76 411.36 316 580.16" style="fill:none;stroke:red;stroke-width:.48;stroke-linecap:round;stroke-linejoin:round;stroke-miterlimit:10;stroke-dasharray:none;stroke-opacity:1;visibility:visible" visibility="hidden"/><path d="M318.56 590.24 669.92 416.8l-11.68-5.44-342.08 168.96M334.88 617.44l311.36-1.12M358.4 571.36l263.84-.96M486.4 542.24l.16-.16v-.16h.16v-.16M661.6 455.68h.16v-.16h.16v-.16l.16-.16v-.16M658.24 411.36h-.48" style="fill:none;stroke:red;stroke-width:.48;stroke-linecap:round;stroke-linejoin:round;stroke-miterlimit:10;stroke-dasharray:none;stroke-opacity:1;visibility:visible" visibility="hidden"/><path d="m534.56 518.08 127.52-63.04 8.16-36.96.16-.16v-.48h-.16v-.32l-.16-.16h-.16v-.16M427.04 571.2l59.68-29.44.16-16.64M334.4 616.96l-8.16 4M318.88 591.68l15.84-7.84M359.84 571.36l127.68-63.04M500.16 502.08l170.08-84M491.2 501.44v-.16l-.16-.16-.16-.16v-.16h-.16v-.16l-.16-.16h-.16l-.16-.16h-.16l-.16-.16-.16-.16h-.32l-.16-.16h-.32l-.16-.16h-.64l-.32-.16h-2.08l-.16.16h-.8l-.16.16h-.16l-.16.16h-.16l-.32.16h-.16l-.16.16-.16.16h-.16l-.16.16v.16h-.16v.16l-.16.16v.96h.16v.16l.16.16.16.16.16.16h.16l.16.16h.16l.16.16h.16l.16.16h.16l.16.16h.48l.32.16h1.12l.16.16h.48l.32-.16h1.12l.16-.16h.48l.16-.16h.16l.32-.16h.16l.16-.16h.16v-.16l.16-.16h.16l.16-.16v-.16h.16v-.32h.16v-.48" style="fill:none;stroke:red;stroke-width:.48;stroke-linecap:round;stroke-linejoin:round;stroke-miterlimit:10;stroke-dasharray:none;stroke-opacity:1;visibility:visible" visibility="hidden"/><path d="M358.4 571.36h-.16l-.16.16h-.16l264.8-.96h-.16v-.16h-.32" style="fill:none;stroke:red;stroke-width:.48;stroke-linecap:round;stroke-linejoin:round;stroke-miterlimit:10;stroke-dasharray:none;stroke-opacity:1;visibility:visible" visibility="hidden"/><path d="m357.92 571.52-22.24 11.04 310.4-1.12-23.36-10.88" style="fill:none;stroke:red;stroke-width:.48;stroke-linecap:round;stroke-linejoin:round;stroke-miterlimit:10;stroke-dasharray:none;stroke-opacity:1;visibility:visible" visibility="hidden"/><path d="M335.68 582.56h-.16l-.16.16h-.16v.16h-.16v.16l-.16.16v.16h-.16v.48l312.32-1.12v-.32l-.16-.16v-.16l-.16-.16-.16-.16-.16-.16-.16-.16h-.16M488 503.52h-2.24M488.16 507.36l11.04-5.44M295.84 418.24l178.88 83.04 11.04-5.6" style="fill:none;stroke:red;stroke-width:.48;stroke-linecap:round;stroke-linejoin:round;stroke-miterlimit:10;stroke-dasharray:none;stroke-opacity:1;visibility:visible" visibility="hidden"/><path d="M474.72 501.28h-.16v.16h-.16v.16l-.16.16v.32M664.16 589.12l-176-81.76-.16.16-.16.16v.16h-.16v.16h-.16v.64M499.52 501.92h-.32l167.36 77.76M486.4 496v-.16l-.16-.16h-.48M306.88 412.64l178.88 83.04M655.36 619.84l-8.64-4M549.6 570.72l-62.88-29.28M439.04 519.36l-135.68-63.04M295.36 419.36l178.4 82.88" style="fill:none;stroke:red;stroke-width:.48;stroke-linecap:round;stroke-linejoin:round;stroke-miterlimit:10;stroke-dasharray:none;stroke-opacity:1;visibility:visible" visibility="hidden"/><path d="m620.64 570.4-133.12-61.76-.16 16.48-.32-.16M647.04 582.72l16.64 7.68M306.88 412.64l-11.04 5.6M295.84 418.24h-.16v.16h-.16v.32h-.16v.64M303.36 456.32l-8-36.96M303.36 456.32v.16l.16.16v.16h.16v.16h.16M307.36 412.64h-.48M315.36 421.92h-.16l-.16.16-.16.16h-.16l-.16.16-.16.16-.16.16v.16l-.16.16v.16l-.16.16v.32l.16.16v.32l.16.16.16.16v.16l.16.16h.16l.16.16.16.16.16.16h.16l.16.16h.16l.32.16h.16l.16.16h.32l.16.16h.32l.16.16h.48l.32.16h2.88l.32-.16h.48l.16-.16h.48l.32-.16h.16l.16-.16h.16l.16-.16.16-.16h.16l.16-.16.16-.16h.16v-.16l.16-.16h.16v-.32l.16-.16v-.64l-.16-.16v-.16l-.16-.16-.16-.16v-.16H324l-.16-.16-.16-.16h-.16l-.16-.16-.16-.16h-.16l-.16-.16-.16-.16h-.32l-.16-.16h-.48l-.16-.16h-.32l-.32-.16H320l-.32-.16h-1.6l-.16.16h-.8l-.32.16h-.48l-.16.16H316l-.32.16h-.16l-.16.16M656.64 580.32h.16l.16-.16.16-.16h.16l.16-.16.16-.16.16-.16v-.16l.16-.16.16-.16v-.64l-.16-.16v-.32h-.16l-.16-.16v-.16l-.16-.16h-.16l-.16-.16-.16-.16-.16-.16h-.16l-.16-.16h-.16l-.16-.16h-.32l-.16-.16h-.32l-.16-.16h-.32l-.16-.16h-.48l-.32-.16h-2.88l-.32.16h-.48l-.16.16h-.48l-.16.16h-.32l-.16.16h-.16l-.16.16-.16.16h-.16l-.16.16-.16.16h-.16v.16l-.16.16-.16.16v.32l-.16.16v.32l.16.16v.16l.16.16v.16l.16.16v.16h.16l.16.16.16.16h.16l.16.16.16.16h.16l.16.16.16.16h.32l.16.16h.32l.16.16h.48l.32.16h.8l.16.16h1.92l.32-.16h.64l.32-.16h.48l.16-.16h.16l.32-.16h.16l.16-.16M655.2 620.16l-8.64-4M548.64 570.72l-61.92-28.8M438.56 519.52l-134.72-62.56M666.56 579.52l-167.04-77.6M486.24 495.68l-178.88-83.04M646.24 616.32h.16v-.16h.16V616h.16v-.16M334.4 616.96v.32h.16v.16h.32" style="fill:none;stroke:red;stroke-width:.48;stroke-linecap:round;stroke-linejoin:round;stroke-miterlimit:10;stroke-dasharray:none;stroke-opacity:1;visibility:visible" visibility="hidden"/><path d="m334.72 583.84-.32 33.12 312.32-1.12.32-33.12M296.16 417.92v-.48l11.84-5.92M317.12 584l1.6 7.2M666.4 580.48l-2.72 9.92-8.8 31.2-2.24 7.04M657.76 411.36l-7.04 9.28M357.92 571.52l1.92-.16M486.4 496l4.8 5.44M485.76 495.68l2.24 7.84M474.72 501.28l11.04 2.24M487.52 508.32l.64-.96M485.76 503.52l-11.04-2.24M647.04 582.72l17.12 6.4M622.72 570.56l-2.08-.16M306.88 412.64l8.48 9.28M295.84 418.24l12.16-6.72" style="fill:none;stroke:red;stroke-width:.48;stroke-linecap:round;stroke-linejoin:round;stroke-miterlimit:10;stroke-dasharray:none;stroke-opacity:1;visibility:visible" visibility="hidden"/><path d="m442.24 884.8.48.32" style="fill:none;stroke:#00ff4a;stroke-width:.16;stroke-linecap:round;stroke-linejoin:round;stroke-miterlimit:10;stroke-dasharray:none;stroke-opacity:1;visibility:visible"/><path d="M657.12 546.88V548l.16.16v.32l.16.16.16.16v.16l.16.16.16.16.16.16.16.16.16.16.16.16.16.16.16.16h.32l.16.16.16.16.32.16h.16l.16.16h.32l.16.16h.32l.16.16h.8l.32.16h1.28l.32-.16h.32l.32-.16h.16l.16-.16h.16l.16-.16h.16l.16-.16.16-.16h.16v-.16l.16-.16.16-.16v-.16l.16-.16v-.16M664 531.68h-.32M668.64 533.12l.32.16M658.88 541.12l-1.76 5.76M661.12 533.6l-1.76 5.6M667.84 543.68h.16M667.84 543.84l-1.6 5.6M668.48 541.92l1.6-5.76M663.2 551.36h.32M658.56 549.92l-.16-.16M662.88 532l.48-.16M658.88 541.12l.48-1.92M666.08 547.04h-.32l-.16.16-.16-.16h-.32l-.16-.16h-.16v-.16l-.16-.16-.16-.16v-.16l-.16-.16v-1.6h.16v-.32l.16-.16.16-.16v-.16l.16-.16.16-.16.16-.16.16-.16.16-.16.16-.16.16-.16.32-.16.16-.16.32-.16.16-.16h.16l.16-.16.16-.16h.32v-.16M667.68 541.44h.16l.16-.16h.48v.64M667.84 543.68v.48l-.16.32v.16l-.16.32-.16.16v.32l-.16.16-.16.32v.16l-.16.16-.16.16v.16h-.16v.16h-.16v.16h-.16v.16h-.16M662.88 532l-.16.64M661.92 532.48h-.16l-.16.16-.16.16v.16h-.16v.16l-.16.16v.32l-.16.16v.64l.16.16v.32l.16.32v.16l.16.16.16.16v.16l.16.16.16.16.16.16.16.16h.16l.16.16.32.16.16.16.16.16.32.16h.16l.16.16h.32l.16.16.32.16h.48l.16.16h.8l.16.16h.96l.32-.16h.64l.16-.16M668.32 537.76l-.32 1.12M668 538.88l.16-.16h.16l.32-.16h.16v-.16h.16M668.96 538.4l.32-1.12M669.28 537.28h.16l.16-.16.16-.16v-.16l.16-.16.16-.16v-.32l.16-.16v-.8l-.16-.16v-.16l-.16-.16v-.16l-.16-.16v-.16l-.16-.16-.16-.16-.16-.16v-.16l-.16-.16-.16-.16M663.68 531.68l-.16.16h-.48l-.16.16" style="fill:none;stroke:#00ff4a;stroke-width:.48;stroke-linecap:round;stroke-linejoin:round;stroke-miterlimit:10;stroke-dasharray:none;stroke-opacity:1;visibility:visible"/><path d="m658.56 549.92.16.16.32.16.16.16h.16l.16.16.16.16h.32l.16.16h.16l.32.16h.16l.32.16h.32l.32.16h1.44M669.12 536.64h.16v-.16l.16-.16.16-.16.16-.16v-.48l.16-.16v-.32l-.16-.16v-.48l-.16-.16v-.16l-.16-.16-.16-.16v-.16l-.16-.16-.16-.16-.16-.16h-.16l-.16-.16-.16-.16-.16-.16-.32-.16h-.16l-.16-.16-.16-.16h-.32l-.16-.16h-.32l-.16-.16h-.48l-.16-.16h-2.08l-.16.16h-.16M662.4 532.32l-.16.16h-.16l-.16.16v.16l-.16.16v.16l-.16.16v1.12l.16.16v.16l.16.16v.16l.16.16.16.16.16.16v.16l.16.16.16.16.16.16h.32l.16.16.16.16.16.16h.32l.16.16.16.16h.32l.16.16h.48l.16.16h.96l.32.16h.16l.16-.16h.96l.16-.16M668.96 538.4l-.64-.64-.16-.64" style="fill:none;stroke:#00ff4a;stroke-width:.48;stroke-linecap:round;stroke-linejoin:round;stroke-miterlimit:10;stroke-dasharray:none;stroke-opacity:1;visibility:visible"/><path d="m669.28 537.28-.16-.64-5.76-4.8M314.72 545.6l.16.16v.16l.16.16v.16l.16.16v.16l.16.16h.16l.16.16.16.16h.16l.16.16h.16l.16.16h.32l.16.16h.64l.16.16h1.28l.16-.16h.64l.16-.16h.48l.32-.16h.16l.16-.16.32-.16h.16l.32-.16.16-.16.16-.16.16-.16h.16l.16-.16.16-.16.16-.16.16-.16.16-.16.16-.16v-.16l.16-.16.16-.16v-.32l.16-.16v-1.12M312.96 529.12l-.16.16M317.44 528h.16M311.36 532.48l3.36 13.12M320.48 530.08 324 543.2M322.24 546.4l.16-.16M317.92 547.68l-.32-.16M664.32 544.96v.16h.16v.16h.8l.16-.16.16-.16h.16l.16-.16h.16v-.16l.16-.16.16-.16h.16l.16-.16V544l.16-.16.16-.16v-.16l.16-.16v-.16h.16v-.16l.16-.16v-.48l.16-.16v-.16l-.16-.16v-.16l-.16-.16M661.92 532.48l.48-.16 5.76 4.8M312.32 533.76l.16-.64M315.2 543.36h-.16v-.16h-.16l-.16-.16v-.16h-.16l-.16-.16v-.16l-.16-.16v-.16h-.16v-.16l-.16-.16v-.16l-.16-.16v-.16l-.16-.32v-.32l-.16-.32v-.32l-.16-.32v-.16l-.16-.16v-.48l-.16-.16v-.48h-.16v-.8h.48l.16.16h.32l.16.16.16.16h.32l.16.16.16.16.32.16.32.16.16.16v.16h.16l.16.16h.16v.16l.16.16h.16v.16l.16.16.16.16.16.16v.16l.16.16v.16l.16.16v1.6h-.16v.32h-.16v.16l-.16.16-.16.16h-.16v.16H316l-.16.16h-.32l-.16-.16h-.16M312.32 533.76l.16.96M312.48 534.72l.16.16h.16l.16.16h.16l.32.16h.16M313.6 535.2l-.32-.96M313.28 534.24h.64l.16.16h1.6l.16-.16h.8l.16-.16h.32l.16-.16h.32l.16-.16.32-.16h.16l.16-.16.16-.16.32-.16.16-.16.16-.16h.16l.16-.16.16-.16.16-.16.16-.16V532l.16-.16.16-.32v-.32l.16-.16v-1.12l-.16-.16v-.16l-.16-.16v-.16l-.16-.16h-.16v-.16l-.16-.16-.16-.16M318.72 528.96l-.32-.8M318.4 528.16h-.48l-.32-.16M312.8 529.28l-.16.16-.16.16-.16.16-.16.16-.16.16-.16.16-.16.16v.16l-.16.16v.16l-.16.16v.32l-.16.16v.64l.16.16v.32l.16.16v.16l.16.16v.16h.16l.16.16.16.16.16.16" style="fill:none;stroke:#00ff4a;stroke-width:.48;stroke-linecap:round;stroke-linejoin:round;stroke-miterlimit:10;stroke-dasharray:none;stroke-opacity:1;visibility:visible"/><path d="M317.92 547.68h1.6l.16-.16h.48l.16-.16h.32l.16-.16h.32l.16-.16.16-.16h.16l.32-.16.16-.16.16-.16M318.08 528.16h-.16l-.32-.16h-1.92l-.32.16h-.16l-.32.16h-.48l-.16.16-.16.16h-.32l-.16.16-.16.16h-.16l-.16.16-.16.16-.32.16v.16l-.16.16-.16.16h-.16l-.16.16v.16l-.16.16v.16l-.16.16V532l.16.16v.32l.16.16h.16v.16l.16.16.16.16M313.44 533.6h.64l.32.16h1.12l.16-.16h.8l.16-.16h.16l.32-.16h.16l.32-.16.16-.16h.16l.16-.16.32-.16h.16l.16-.16.16-.16.16-.16.16-.16.16-.16v-.16l.16-.16.16-.16v-.16l.16-.16v-.32l.16-.16v-.64l-.16-.16v-.32h-.16v-.16l-.16-.16v-.16l-.16-.16h-.16l-.16-.16M319.04 528.64h.48M313.28 534.08l-.8.64M318.4 528.16h-.32l-5.6 4.96M313.92 537.92v.16h-.16v1.12l.16.16v.32h.16l.16.16v.16l.16.16v.16l.16.16.16.16h.16v.16l.16.16.16.16h.16l.16.16h.16v.16h.16l.16.16h.96v-.16h.16v-.32" style="fill:none;stroke:#00ff4a;stroke-width:.48;stroke-linecap:round;stroke-linejoin:round;stroke-miterlimit:10;stroke-dasharray:none;stroke-opacity:1;visibility:visible"/><path d="m313.28 534.24.16-.64 5.6-4.96M264.32 244.8v-.16l-.16-.16-.16-.16M249.92 244.16l-.16.16v.16l-.16.16M384.16 762.4l.16.64M385.44 762.24l-.16-.64M384.48 764.8l-.16-1.76h-.8l-.16.16-.16.16-.16.16v.16h-.16M367.52 765.28l.16.8v.96l.16.96.16.8.16.96v.96l.16.96.16.96.16.96.16.96.16.96.16.96.16.96.16.96.16 1.12 4.96 32 .8-.16" style="fill:none;stroke:#00ff4a;stroke-width:.48;stroke-linecap:round;stroke-linejoin:round;stroke-miterlimit:10;stroke-dasharray:none;stroke-opacity:1;visibility:visible"/><path d="m383.2 765.28-.32-1.6-.16-.64M244.32 245.12l49.44 245.44M270.08 244.48l38.24 168.64M320 464.48l23.36 102.24M354.88 617.28l32.16 141.44M270.08 244.48l-.96-1.76-1.44-1.44-1.76-.96-.8-.32M265.92 240.32h-.48M249.92 242.56l-.16.16v.16l-.16.16v.16l-.16.16v.96l.16.16v.16l.16.16v.16l.16.16.16.16v.16l.16.16h.16l.16.16.16.16.32.16.16.16h.16l.32.16.16.16h.32l.16.16.32.16h.16l.32.16h.32l.32.16h.48l.32.16h.64l.32.16h3.2l.32-.16h.48l.32-.16h.64l.32-.16h.16l.32-.16h.32l.16-.16.32-.16h.16l.32-.16.16-.16h.16l.16-.16.32-.16.16-.16.16-.16h.16v-.16l.16-.16.16-.16v-.16l.16-.16v-.16l.16-.16v-1.12l-.16-.16v-.16l-.16-.16-.16-.16" style="fill:none;stroke:#00ff4a;stroke-width:.48;stroke-linecap:round;stroke-linejoin:round;stroke-miterlimit:10;stroke-dasharray:none;stroke-opacity:1;visibility:visible"/><path d="m249.6 248 .32.16.32.16h.32l.32.16.32.16h.32l.32.16.32.16h.32l.32.16h.48l.32.16h.32l.48.16h.32l.48.16h1.44l.48.16h2.4l.32-.16h1.12l.48-.16h.64l.48-.16h.32l.32-.16h.32l.32-.16h.32l.32-.16.32-.16h.32l.32-.16.32-.16.32-.16.16-.16h.32l.16-.16.32-.16.16-.16.32-.16.16-.16.16-.16.16-.16.16-.16.16-.16.16-.16.16-.16.16-.32v-.16l.16-.16v-.16l.16-.16v-1.6l-.16-.16v-.16l-.16-.16v-.16l-.16-.32-.16-.16-.16-.16-.16-.16-.16-.16-.16-.16-.16-.16-.16-.16-.16-.16-.32-.16-.16-.16-.32-.16-.16-.16-.32-.16-.32-.16-.32-.16M319.36 464.32v.48l.16.16v1.6l-.16.16v1.12l-.16.16v.64l-.16.16v.32l-.16.16v.16l-.16.16v.16l-.16.16v.16l-.16.16-.16.16-.16.16-.16.16-.16.16h-.16l-.16.16-.16.16h-.32l-.16.16h-1.76l-.16-.16h-.48l-.16-.16h-.16l-.16-.16h-.32l-.16-.16-.16-.16h-.16l-.16-.16-.16-.16-.16-.16h-.16l-.16-.16-.16-.16-.16-.16-.16-.16-.16-.16h-.32l-.16-.16-.16-.16-.16-.16-.16-.32-.16-.16-.16-.16-.16-.32-.32-.32-.16-.16-.16-.16-.16-.16-.16-.16-.16-.48-.32-.32-.16-.32-.32-.48-.16-.32-.32-.48-.16-.32-.16-.48-.32-.32-.16-.48-.16-.48-.16-.32-.16-.48-.16-.48-.16-.32-.16-.48-.16-.48-.16-.48-.16-.32-.16-.48-.16-.48v-.48M296.16 417.44l-.16-.32v-.32l-.16-.32v-.64l-.16-.32v-.64l-.16-.32v-1.28l-.16-.32v-3.84l.16-.32v-.96l.16-.32v-.64l.16-.32v-.32l.16-.32v-.32l.16-.48v-.32l.16-.32v-.32l.16-.32.16-.32.16-.32.16-.32v-.32l.16-.32.16-.32.16-.32.16-.16.16-.32.16-.32.16-.32.32-.32.16-.16.16-.32.32-.32.16-.16.16-.16.16-.16.16-.16.16-.16h.16l.16-.16.16-.16h.16v-.16h.16l.16-.16h.32l.16-.16h1.44l.16.16h.16v.16h.16l.16.16h.16l.16.16.16.16v.16l.16.16.16.16.16.16v.16l.16.32.16.16.16.16v.32l.16.16.16.32v.16l.16.32v.16l.16.32.16.32v.16l.16.32v.16l.16.32v.32l.16.16v.32l.16.32v.32l.16.16v.32l.16.32.16.64.16.64v.64l.16.64.32 1.12.16.64.16.64.16.64.16.64.32 1.6M384.16 762.4l.32-.16.16-.16.32-.16.16-.16.16-.16.16-.16.32-.16.16-.16.16-.16.16-.16v-.16l.16-.16.16-.16.16-.16V760l.16-.16v-.32l.16-.16v-.64M367.52 765.28h.64l.32.16h4.48l.48-.16h1.12l.48-.16h.8l.32-.16h.48l.32-.16h.48l.32-.16h.32l.48-.16.32-.16h.48l.32-.16.32-.16h.32l.48-.16.32-.16.32-.16h.32l.32-.16.32-.16.32-.16M248.96 249.12l63.68 280.32M316.8 547.36l6.56 29.12M332.8 618.08l36.8 161.44M264.8 240l.64.32M251.04 238.88h-.32l-.32.16-.32.16h-.32l-.32.16-.32.16h-.32l-.32.16-.16.16-.32.16-.16.16-.32.16-.16.16-.32.16-.16.16-.16.16-.32.16-.16.16-.16.16-.16.16v.16l-.16.16-.16.16v.16l-.16.32v.16l-.16.16v1.28l.16.16v.32l.16.16v.16l.16.16.16.16.16.16v.32l.16.16.32.16.16.16.16.16.16.16.32.16.16.16.32.16.16.16.32.16.32.16.16.16M265.12 240v-.16h-.16l-.16.16-.32-.16-.32-.16-.16-.16h-.32l-.32-.16M249.6 248l-.8-.32M248.8 247.68h-.16v.16l-.16.16-.16.16v.16l-.16.16v.32l.8.32" style="fill:none;stroke:#00ff4a;stroke-width:.48;stroke-linecap:round;stroke-linejoin:round;stroke-miterlimit:10;stroke-dasharray:none;stroke-opacity:1;visibility:visible"/><path d="M249.6 248h-.16l-.16.16v.16h-.16v.16l-.16.16v.48l.32.16.32.16.32.16h.32l.32.16.32.16h.32l.32.16.48.16h.32l.32.16h.8l.48.16h.32l.48.16h1.6l.32.16h2.56l.32-.16h1.28l.32-.16h.8l.48-.16h.32l.32-.16h.48l.32-.16h.32l.32-.16.32-.16h.48l.32-.16.16-.16.32-.16.32-.16h.32l.32-.16.16-.16.32-.16.32-.16.16-.16.16-.16.32-.16.16-.16.16-.16.16-.16.16-.16.16-.16.16-.32.16-.16.16-.16v-.16l.16-.16v-.48l.16-.16v-1.12M264 245.28v-.16M249.92 241.28v3.84M264.16 241.44l-.16 3.68M264.16 241.44l-.16-.16v-.8h-.16v-.32l-.16-.16v-.16l-.16-.16-.16-.16v-.16l-.16-.16-.16-.16-.16-.16-.16-.16-.16-.16h-.16l-.16-.16-.16-.16-.32-.16-.16-.16h-.32l-.32-.16-.16-.16h-.32l-.32-.16H260l-.32-.16h-.32l-.32-.16h-1.12l-.32-.16h-1.44l-.32.16h-.8l-.32.16h-.64l-.32.16h-.16l-.32.16h-.16l-.32.16-.32.16-.16.16H252l-.16.16-.32.16v.16h-.16l-.16.16-.16.16-.16.16-.16.16-.16.16v.16l-.16.16-.16.16v.32l-.16.16v.16l-.16.16v.64M373.76 811.52h.8M309.6 554.4l-61.44-305.6" style="fill:none;stroke:#00ff4a;stroke-width:.48;stroke-linecap:round;stroke-linejoin:round;stroke-miterlimit:10;stroke-dasharray:none;stroke-opacity:1;visibility:visible"/><path d="M249.92 241.28v.48l.16.16v.32l.16.16.16.16v.16h.16l.16.16.16.16.16.16.16.16h.16l.16.16.16.16.32.16h.16l.32.16h.16l.32.16.16.16h.64l.16.16h.32l.32.16h.64l.16.16h3.2l.16-.16h.96l.32-.16h.16l.32-.16h.32l.16-.16h.32l.32-.16h.16l.16-.16h.32l.16-.16.16-.16.16-.16h.16l.16-.16.16-.16.16-.16.16-.16.16-.16.16-.16v-.16l.16-.16v-.48l.16-.16M576.64 760.32v.64l-.16.64M696.48 242.56v.32l-.16.16v.32l.16.16v.64l.16.16v.16l.16.32.16.16v.16l.16.16.16.16.16.16.16.32.16.16.32.16.16.16.16.16.32.16.16.16.32.16.32.16.32.16h.16l.32.16.32.16.32.16.32.16h.32l.32.16.48.16h.32l.32.16.32.16h.48l.32.16h.8l.32.16h.8l.48.16h4.96l.32-.16h.8l.48-.16h.32l.48-.16h.32l.32-.16h.48l.32-.16h.32l.32-.16.32-.16h.32l.32-.16.32-.16.32-.16.32-.16M656.8 411.84l.32-1.6M600.48 808.32h.48l.32-.16h.16M718.56 247.04l-68.32 324.8M640.96 616.32l-40.48 192M718.56 247.04l.32-.16.32-.16.16-.16.32-.16.32-.16.16-.16.16-.16.32-.16.16-.16.16-.16.16-.16.16-.16.16-.16.16-.16v-.16l.16-.32v-.16l.16-.16v-.16l.16-.16M579.52 764.64l.32-1.6-.16-.16v-.16h-.16v-.16h-.16v-.16h-.16l-.16-.16h-.48v.16h-.16l-.16 1.6M700.8 238.4l-.64.32-1.6.96-1.28 1.28-.8 1.6M696.48 242.56l-39.84 169.28M644.32 464.16l-22.24 94.56M608.64 616.48l-33.28 141.28M608.48 783.52l35.2-167.2M652.8 572.96l4.96-23.84M660.96 534.08l61.12-290.4" style="fill:none;stroke:#00ff4a;stroke-width:.48;stroke-linecap:round;stroke-linejoin:round;stroke-miterlimit:10;stroke-dasharray:none;stroke-opacity:1;visibility:visible"/><path d="M262.24 239.68v-.16l-.16-.16v-.16l-.16-.16v-.16h-.16v-.16l-.16-.16-.16-.16h-.16l-.16-.16-.16-.16h-.16l-.16-.16h-.16l-.32-.16H260l-.32-.16h-.16l-.16-.16h-.8l-.32-.16h-2.88l-.16.16h-.48l-.32.16h-.16l-.32.16h-.16l-.16.16h-.32l-.16.16h-.16l-.16.16-.16.16h-.16v.16l-.16.16h-.16v.16l-.16.16v.16l-.16.16v.8l.16.16v.16h.16v.16l.16.16.16.16h.16l.16.16.16.16h.16l.16.16.16.16h.16l.16.16h.32l.16.16h.48l.32.16h.48l.16.16h2.72l.32-.16h.48l.16-.16h.48l.16-.16h.32l.16-.16h.16l.16-.16h.16l.32-.16v-.16h.16l.16-.16.16-.16.16-.16.16-.16v-.32h.16v-.48M703.2 237.6h-.32l-.32.16-.16.16h-.32l-.32.16-.16.16-.32.16-.64.32-.32.16-.32.16-.16.16-.32.16-.16.16-.32.16-.16.16-.16.16-.16.16-.16.16-.16.16-.16.16-.16.16-.16.16v.32l-.16.16-.16.16v.32l-.16.16v.96l.16.32v.32l.16.16.16.16v.16l.16.32.16.16.16.16.16.16.16.16.16.16.16.16.16.16.32.16.16.16.32.16.16.16.32.16h.32l.16.16.32.16.32.16.32.16h.32l.32.16.32.16h.32l.32.16h.32l.48.16h.32l.32.16h.8l.32.16h5.12l.48-.16h.64l.48-.16h.32l.32-.16h.48l.32-.16h.32l.32-.16h.32l.32-.16.48-.16.16-.16h.32l.32-.16.32-.16.32-.16.64-.32" style="fill:none;stroke:#00ff4a;stroke-width:.48;stroke-linecap:round;stroke-linejoin:round;stroke-miterlimit:10;stroke-dasharray:none;stroke-opacity:1;visibility:visible"/><path d="m717.92 245.92.32-.16.16-.16.32-.16.16-.16.32-.16.16-.16.32-.16.16-.16.16-.16.16-.16.16-.16.16-.16.16-.16v-.16l.16-.32.16-.16v-.32l.16-.16v-1.28l-.16-.32v-.16l-.16-.16v-.16l-.16-.16-.16-.16v-.16l-.16-.32-.16-.16-.16-.16-.16-.16-.32-.16-.16-.16-.16-.16-.32-.16-.16-.16-.32-.16h-.16l-.32-.16-.32-.16-.32-.16-.16-.16h-.32l-.32-.16-.32-.16h-.32l-.32-.16M600.48 808.32l-11.52 2.24M592.96 778.72l-4.32 26.08M717.92 247.36l.64-.32M657.12 410.24l.16-.64.16-.64.16-.64.16-.64.32-1.28.16-.48.16-.64.16-.64.16-.64v-.32l.16-.32.16-.32v-.16l.16-.32v-.32l.16-.32v-.16l.16-.32v-.16l.16-.32.16-.32v-.16l.16-.32V400l.16-.32.16-.16v-.32l.16-.16.16-.32.16-.16.16-.16v-.32l.16-.16.16-.16.16-.16.16-.16.16-.16.16-.16.16-.16.16-.16h.16v-.16h.16l.16-.16h.48l.16-.16h.64l.16.16h.32l.16.16h.32l.16.16h.16l.16.16.16.16h.16l.16.16.16.16.16.16.16.16.16.16h.16v.16l.32.32.16.16.16.32.32.32.16.16.16.32.16.32.16.32.16.32.16.32.16.32.16.16v.32l.16.32.16.32.16.48v.32l.16.32v.32l.16.32.16.32v.64l.16.32v.64l.16.32v1.44l.16.32v3.04l-.16.32v1.28l-.16.48v.64l-.16.32v.64l-.16.32v.32l-.16.32v.32M660.16 456.48l-.16.32-.16.48-.16.48v.32l-.16.48-.16.48-.16.32-.16.48-.16.48-.16.32-.32.48-.16.48-.16.32-.16.48-.32.32-.16.48-.16.32-.32.48-.16.32-.32.32-.16.48-.32.32-.16.16v.16l-.16.16-.16.16-.32.32-.32.32-.32.48-.16.16-.16.16-.16.16-.16.16-.16.16-.16.16h-.16l-.16.16-.16.16-.16.16-.16.16h-.16l-.16.16-.16.16-.16.16H652l-.16.16-.32.16h-.16l-.16.16h-.16l-.16.16h-.48l-.16.16h-.32l-.16.16h-.96l-.16-.16H648l-.16-.16h-.16l-.16-.16-.16-.16h-.16l-.16-.16-.16-.16-.16-.16v-.16h-.16l-.16-.16v-.16l-.16-.16-.16-.16V468l-.16-.16v-.32l-.16-.16v-.48l-.16-.16v-.64l-.16-.16v-2.24M592.96 778.72l38.24-162.4M642.56 568.32l75.36-320.96M592.96 778.72l.32-1.12.16-.96.16-.96.16-.96.16-1.12.16-.96v-.96l.16-.8.16-.96.16-.96.16-.96.16-.96.16-.8.16-.96v-.8M579.84 763.04l.16-.64h.32l.32.16.32.16.48.16.32.16h.32l.32.16.48.16h.32l.32.16.48.16h.32l.48.16h.32l.32.16h.48l.32.16h.48l.32.16h.8l.48.16h.8l.32.16h4.48l.32-.16h.96M575.36 757.76v.96l.16.16v.16l.16.16.16.16v.16l.16.16.16.16.16.16.16.16.16.16.16.16.32.16.16.16.32.16.16.16.32.16.16.16.32.16-.16.8M718.56 247.04v-.64h-.16v-.16h-.16v-.16l-.16-.16h-.16M717.92 247.36v-.48h-.16v-.16l-.16-.16v-.16h-.16l-.16-.16M700.64 238.72h-.48M701.28 238.4l-.16-.16h-.16l-.16.16" style="fill:none;stroke:#00ff4a;stroke-width:.48;stroke-linecap:round;stroke-linejoin:round;stroke-miterlimit:10;stroke-dasharray:none;stroke-opacity:1;visibility:visible"/><path d="M702.4 240.96h-.16v.16l-.16.16v.16l-.16.16v1.12l.16.16v.16l.16.16v.16l.16.16h.16l.16.16v.16l.16.16.16.16.32.16h.16l.16.16.16.16.32.16h.16l.32.16.16.16h.32l.16.16h.32l.32.16h.32l.16.16h.64l.32.16h1.28l.32.16h1.28l.32-.16h1.28l.32-.16h.48l.32-.16h.32l.32-.16h.16l.32-.16h.16l.32-.16.16-.16h.32l.16-.16.16-.16.32-.16h.16l.16-.16.16-.16.16-.16v-.16l.16-.16h.16l.16-.16v-.32l.16-.16v-1.28l-.16-.16v-.16l-.16-.16v-.16M716.48 243.52h.16M702.4 239.68v3.68M716.64 239.84l-.16 3.68M716.64 239.84v-.32l-.16-.16v-.48l-.16-.16v-.32h-.16v-.16l-.16-.16v-.16l-.16-.16-.16-.16v-.16h-.16v-.16h-.16l-.16-.16v-.16h-.16l-.16-.16-.16-.16h-.16l-.32-.16-.16-.16-.32-.16h-.32l-.16-.16-.32-.16h-.16l-.32-.16h-.32l-.32-.16h-.8l-.32-.16H708l-.32.16h-.48l-.32.16h-.48l-.32.16h-.32l-.16.16-.32.16h-.32l-.16.16-.32.16-.16.16-.16.16H704l-.16.16-.16.16h-.16v.16l-.16.16h-.16v.16l-.16.16-.16.16v.16l-.16.16v.16l-.16.16v.32l-.16.16v.64" style="fill:none;stroke:#00ff4a;stroke-width:.48;stroke-linecap:round;stroke-linejoin:round;stroke-miterlimit:10;stroke-dasharray:none;stroke-opacity:1;visibility:visible"/><path d="M716.8 243.2v-.16l-.16-.16-.16-.16M702.4 242.56l-.16.16v.16l-.16.16M702.4 239.68v.48l.16.16v.16l.16.16.16.16v.16l.16.16.16.16.16.16h.16l.16.16.16.16.16.16h.32l.16.16.16.16h.32l.16.16.32.16h.16l.32.16h.32l.16.16h.64l.32.16h1.12l.32.16h1.6l.32-.16h1.12l.32-.16h.64l.16-.16h.32l.32-.16h.16l.32-.16.16-.16h.16l.32-.16.16-.16h.16l.16-.16.32-.16.16-.16.16-.16.16-.16.16-.16v-.16l.16-.16.16-.16v-.32l.16-.16v-.16M301.28 625.6v-.32l-.16-.16v-.16l-.16-.16v-.32l-.16-.16-.16-.16-.16-.16v-.16l-.16-.16-.16-.16-.16-.32-.16-.16-.16-.16-.16-.16-.16-.16-.16-.16h-.16l-.16-.16-.16-.16-.16-.16-.16-.16h-.16l-.16-.16h-.16l-.16-.16h-.32l-.16-.16h-.96v.16h-.16l-.16.16v.16h-.16v1.28l.16.16v.32l.16.32v.16l.16.16.16.16v.16l.16.16.16.16.16.32.16.16v.16l.16.16.16.16.16.16.16.16.16.16.16.16.32.16h.16l.16.16.16.16h.16l.16.16.16.16h.32l.16.16h.96l.16-.16h.16l.16-.16v-.32h.16v-.96l-.16-.16M294.72 625.12l.16.32.32.16.16.32.16.32.16.16.32.32.16.16.16.32.32.16.16.16.32.32.16.16.32.16.16.32.16.16.32.16.16.16.32.16.16.16.32.16.16.16.32.16h.16l.32.16.16.16h.32l.16.16h.16l.32.16h.8l.16.16.16-.16h.64M293.6 618.72h-.16" style="fill:none;stroke:#00ff4a;stroke-width:.48;stroke-linecap:round;stroke-linejoin:round;stroke-miterlimit:10;stroke-dasharray:none;stroke-opacity:1;visibility:visible"/><path d="m293.44 618.72.16.96.16.96.32.8.16.96.16.96.16.8.16.96M328 628l-1.44-5.6-7.84-31.2M389.92 887.68l.16-.32.16-.16.16-.32.16-.16.16-.32.16-.16.16-.32.16-.16v-.32l.16-.16v-.32l.16-.16v-2.24M282.4 465.12l111.36 446.4M282.4 465.12l.32-.16.32-.16.32-.16.16-.16.32-.16.16-.16.32-.16.16-.16.16-.16.16-.32.16-.16.16-.16.16-.16.16-.16.16-.32.16-.16v-.16l.16-.16v-.32l.16-.16v-.48l.16-.16v-.32l-.16-.32v-.32M389.92 887.68l.16.8.16.8v.96l.16.8.16.96.16.8.16.96.16.8.16.96.16.96.16.96.16.96v.96l.16.96.16.96.16.96.16.96.16.96.16 1.12.16.96.32 1.12.16.96.16 1.12.16.96.16 1.12 2.56 15.84-.16-3.04M260.48 461.92v-1.6l.16-.16v-.32l.16-.32v-.16l.16-.16.16-.16v-.32l.16-.16.16-.16.16-.16.16-.16.16-.16.16-.16.16-.16.16-.16.16-.16.32-.16.16-.16.16-.16.32-.16h.16l.16-.16.32-.16.32-.16.64-.32M260.48 461.76l99.68 475.36M328 628l63.52 254.56M286.08 459.84 317.12 584M714.72 238.08v-.32l-.16-.16v-.16l-.16-.16-.16-.16v-.16h-.16l-.16-.16-.16-.16h-.16l-.16-.16-.16-.16h-.16l-.16-.16h-.32l-.16-.16h-.16l-.32-.16h-.48l-.16-.16h-1.12l-.32-.16h-.96l-.32.16h-.96l-.32.16h-.48l-.16.16h-.32l-.16.16h-.16l-.16.16h-.32l-.16.16-.16.16h-.16l-.16.16v.16h-.16l-.16.16v.16l-.16.16-.16.16v.8l.16.16v.16l.16.16v.16l.16.16h.16l.16.16.16.16h.16l.16.16.16.16h.16l.16.16h.32l.16.16h.16l.32.16h.48l.16.16h1.12l.16.16h1.44l.16-.16h.8l.32-.16h.48l.16-.16h.32l.16-.16h.16l.16-.16h.16l.32-.16.16-.16h.16v-.16l.16-.16h.16l.16-.16v-.16l.16-.16v-.16l.16-.16v-.32M281.12 464.32l.64-.32.32-.16.32-.16.16-.16.32-.16.16-.16.32-.16.16-.16.16-.16.16-.16.32-.16.16-.16.16-.16v-.16l.16-.32.16-.16.16-.16v-.16l.16-.16v-.48l.16-.16v-.96l-.16-.16v-.48l-.16-.16-.16-.16v-.16l-.16-.16-.16-.16-.16-.32-.16-.16-.16-.16-.16-.16-.16-.16-.32-.16-.16-.16-.16-.16-.32-.16-.16-.16-.32-.16-.32-.16h-.32l-.16-.16-.32-.16-.32-.16-.32-.16h-.32l-.32-.16-.32-.16h-.32l-.48-.16h-.32M396.32 927.36l-15.36 11.84M360.16 937.12v.32l.16.32v.16l.16.32.16.16v.16l.16.32.16.16.16.32.16.16.16.16.32.32.16.16.16.16.32.16.16.16.32.16.16.16.32.16.32.16.32.16.32.16.32.16.16.16h.48l.32.16.32.16h.32l.32.16h.32l.48.16h.64l.48.16H372l.32-.16h.8l.48-.16h.32l.48-.16h.32l.48-.16.32-.16h.48l.32-.16.32-.16.48-.16.32-.16.32-.16.48-.16.32-.16.32-.16.32-.16.32-.16.32-.16.32-.32.32-.16.32-.16.16-.32-99.2-473.76" style="fill:none;stroke:#00ff4a;stroke-width:.48;stroke-linecap:round;stroke-linejoin:round;stroke-miterlimit:10;stroke-dasharray:none;stroke-opacity:1;visibility:visible"/><path d="m260.48 461.92.16.16v.16l.16.16v.32l.16.16.16.16v.16l.16.32.16.16.16.16.16.16.32.16.16.16.16.16.32.16.16.32.32.16.16.16h.32l.32.16.32.16.32.16.32.16.32.16.32.16h.32l.32.16.32.16h.32l.48.16.32.16h.8l.32.16h.32l.48.16h1.12l.48.16h3.2l.48-.16h1.28l.32-.16h.48l.32-.16h.32l.48-.16h.32l.32-.16h.48l.32-.16.32-.16.32-.16h.32l.32-.16.32-.16.32-.16.32-.16M293.44 618.72h.32l.16.16h.16v.16h.32l.16.16h.16v.16l.16.16h.16l.32.16h.16l.16.16.16.16.16.16h.32l.16.16.16.16.32.16.16.16.32.16.16.16.32.16.16.16.32.16.48.32.48.32.32.16.16.32.32.16.16.16.32.16.16.16.32.16.16.16.16.32.32.16.16.16.16.32.32.16.16.16.16.32.16.16.16.16.16.32v.16l.16.32.16.16v.32l.16.16v.48l.16.16v.64l-.16.32v.64l-.16.16v.16l-.16.32-.16.16v.16l-.16.16-.16.16-.16.16-.16.16-.16.16-.16.16-.16.16h-.16l-.16.16-.16.16h-.16l-.32.16h-.64v.16h-.64l-.16-.16h-.64l-.16-.16h-.32l-.16-.16-.16-.16h-.16v-.16l-.16-.16h-.32l-.16-.32-.16-.16-.16-.16-.16-.16-.16-.16-.16-.32-.16-.16-.16-.32-.16-.16-.16-.32-.16-.32v-.16l-.16-.32-.16-.32v-.16l-.16-.32-.16-.32v-.32l-.16-.16v-.32l-.16-.32v-.32l-.16-.32" style="fill:none;stroke:#00ff4a;stroke-width:.48;stroke-linecap:round;stroke-linejoin:round;stroke-miterlimit:10;stroke-dasharray:none;stroke-opacity:1;visibility:visible"/><path d="m267.2 455.2-.32.16h-.32l-.32.16-.16.16h-.32l-.16.16-.8.32-.32.16-.16.16-.32.16-.16.16-.32.16-.16.16-.32.16-.16.16-.16.16-.16.16-.16.16-.16.16-.16.32-.16.16v.16l-.16.16-.16.16v.48l-.16.16v1.12l.16.16v.32l.16.16v.16l.16.16.16.16v.32l.16.16.16.16.16.16.16.16.32.16.16.16.16.16.32.16.16.16.32.16.16.16.32.16.32.16.32.16.16.16h.32l.32.16.32.16h.32l.48.16.32.16h.32l.32.16h.48l.32.16h.32l.48.16h1.12l.32.16h3.68l.32-.16h1.12l.48-.16h.32l.32-.16h.48l.32-.16h.32l.32-.16.32-.16h.32l.32-.16.32-.16h.32l.32-.16.32-.16M282.4 465.12v-.48l-.16-.16v-.16l-.16-.16-.16-.16h-.16M265.6 455.84h-.48M281.76 465.44v-.32h-.16v-.32l-.16-.16v-.16h-.16l-.16-.16M264.8 456.16h-.32M281.76 465.44l.64-.32" style="fill:none;stroke:#00ff4a;stroke-width:.48;stroke-linecap:round;stroke-linejoin:round;stroke-miterlimit:10;stroke-dasharray:none;stroke-opacity:1;visibility:visible"/><path d="m266.08 458.72-.16.16v.16l-.16.16v.16l-.16.16v.96l.16.16v.32l.16.16.16.16v.16l.16.16.16.16.16.16.16.16.16.16h.16l.32.16.16.16.16.16h.32l.16.16.32.16h.16l.32.16.32.16h.16l.32.16h.64l.32.16h.64l.32.16h3.68l.32-.16h.64l.32-.16h.16l.32-.16h.32l.16-.16h.32l.16-.16.32-.16h.16l.32-.16.16-.16h.16l.16-.16.16-.16.16-.16.16-.16.16-.16h.16l.16-.16v-.16l.16-.16v-.16l.16-.16v-1.28l-.16-.16v-.16l-.16-.16v-.16M280.16 461.6h.16M266.08 457.6v3.68M280.32 457.92l-.16 3.68M280.32 457.92v-.48l-.16-.16v-.48l-.16-.16v-.16l-.16-.16v-.16l-.16-.16v-.16h-.16v-.16l-.16-.16-.16-.16-.16-.16-.16-.16-.16-.16-.16-.16-.32-.16-.16-.16h-.32l-.16-.16-.32-.16-.32-.16h-.16l-.32-.16h-.32l-.16-.16h-.32l-.32-.16h-.64l-.16-.16h-3.04l-.32.16h-.48l-.32.16h-.32l-.32.16h-.16l-.32.16h-.32l-.16.16-.32.16-.16.16H268l-.16.16-.16.16-.16.16-.16.16-.16.16h-.16v.16l-.16.16-.16.16v.16l-.16.16-.16.16v.32l-.16.16v.32l-.16.16v.48" style="fill:none;stroke:#00ff4a;stroke-width:.48;stroke-linecap:round;stroke-linejoin:round;stroke-miterlimit:10;stroke-dasharray:none;stroke-opacity:1;visibility:visible"/><path d="m280.48 461.12-.16-.16v-.16l-.16-.16M266.08 460.32l-.16.16v.16h-.16v.16M266.08 457.6v.32l.16.16v.16l.16.16v.16l.16.16v.16l.16.16.16.16.16.16h.16l.16.16.16.16.16.16.16.16h.32l.16.16.32.16h.16l.32.16h.16l.32.16h.32l.16.16h.32l.32.16h.48l.32.16h4l.32-.16h.48l.32-.16h.32l.16-.16h.32l.16-.16.32-.16h.16l.32-.16h.16l.16-.16.16-.16.16-.16h.32v-.16l.16-.16.16-.16.16-.16.16-.16v-.16h.16v-.32l.16-.16v-.32M677.6 629.6l.16.16h.32l.16.16h.64l.16-.16h.48l.32-.16h.16l.16-.16.32-.16h.16l.16-.16.32-.16.16-.16.16-.16.32-.16.16-.16.32-.16.16-.16.32-.16.16-.32.16-.16.32-.16.16-.32.32-.16.16-.16.16-.32.32-.16.16-.32.16-.32.16-.16.32-.32.16-.16.16-.32.16-.32.16-.16.16-.32.16-.32.16-.16.16-.32.16-.32v-.16l.16-.32.16-.16v-.32l.16-.16v-.32l.16-.16v-.32l.16-.16v-1.92M679.2 622.4l-.32.8-.32.96-.16.96-.32.96-.32.96-.32.96-.32.96M574.56 923.68l.16 3.04 3.04-15.84M701.28 457.92v.32l-.16.32v.48l.16.32v.32l.16.32v.16l.16.16v.16l.16.32.16.16.16.16.16.16.16.16.16.32.16.16.32.16.16.16.16.16.32.16.16.16.32.16.32.16.32.16.16.16.32.16M577.76 910.88l127.52-447.36M577.76 910.88l.16-1.12.32-.96.16-.96.16-1.12.16-.96.16-.96.32-.96.16-.96.16-.96.16-.96.16-.96.16-.96.16-.96.16-.96.32-.8.16-.96.16-.8.16-.96.16-.8.16-.96.16-.8.16-.8.16-.8.16-.8.16-.8v-.8" style="fill:none;stroke:#00ff4a;stroke-width:.48;stroke-linecap:round;stroke-linejoin:round;stroke-miterlimit:10;stroke-dasharray:none;stroke-opacity:1;visibility:visible"/><path d="M580.48 881.44v.32l-.16.32v.96l.16.32v.48l.16.16v.32l.16.16v.32l.16.16.16.32.16.32.16.16.16.32.16.16.16.32.16.16.16.32M722.56 454.56l-.64-.48M722.56 454.56h.32l.32.16.16.16.32.16.16.16.32.16.16.16.32.16.16.16.16.16.32.16.16.16.16.16.16.16.16.16.16.32.16.16v.16l.16.16.16.32v.16l.16.16v.32l.16.16v1.76M726.88 460.48 611.04 936.8M652.64 628.64l-72.16 252.8M701.28 457.92 666.4 580.48M278.4 456v-.32l-.16-.16v-.16h-.16v-.16l-.16-.16-.16-.16h-.16l-.16-.16-.16-.16h-.16l-.16-.16-.16-.16h-.16l-.16-.16h-.32l-.16-.16h-.32l-.16-.16h-.48l-.32-.16h-.96l-.32-.16h-.8l-.32.16h-.96l-.32.16h-.48l-.16.16h-.16l-.32.16h-.16l-.16.16h-.16l-.16.16h-.16l-.16.16-.16.16h-.16l-.16.16v.16l-.16.16h-.16v.32l-.16.16v.48l.16.16v.32h.16v.16l.16.16v.16h.16l.16.16.16.16.16.16h.16l.16.16h.16l.32.16.16.16h.16l.32.16h.32l.32.16h.48l.32.16h3.04l.32-.16h.48l.16-.16h.32l.16-.16h.16l.32-.16h.16l.16-.16.16-.16h.16l.16-.16.16-.16.16-.16v-.16l.16-.16.16-.16V456M684.8 622.4v-.48l.16-.16v-.48l-.16-.16v-.16l-.16-.16-.16-.16h-.96l-.16.16h-.32l-.16.16-.16.16h-.16l-.16.16-.16.16-.16.16h-.16l-.16.16-.16.16-.16.16-.16.16-.16.16-.16.16v.32l-.16.16-.16.16-.16.16-.16.16v.16l-.16.32-.16.16v.16l-.16.16v.16l-.16.16v.48l-.16.16v.64l.16.16v.16l.16.16v.16h1.12l.16-.16h.16l.16-.16h.16l.16-.16h.16l.16-.16.16-.16.16-.16h.16l.16-.16.16-.16.16-.16.16-.16v-.16l.16-.32.16-.16.16-.16.16-.16.16-.16v-.16l.16-.16.16-.32v-.16l.16-.16.16-.16v-.32l.16-.16M722.24 454.56l-.8-.32-.16-.16-.32-.16h-.32l-.16-.16M590.56 938.56l-15.84-11.84M705.28 463.52l.8.32M706.08 463.84 590.56 938.56l.32.16.32.16.32.32.32.16.32.16.32.16.32.16.32.16.48.16.32.16.32.16.48.16.32.16.32.16.48.16h.32l.48.16h.32l.48.16.32.16h.8l.48.16h.8l.32.16h2.4l.32-.16H604l.32-.16h.48l.32-.16h.32l.32-.16.32-.16h.32l.32-.16.32-.16.32-.16.32-.16h.16l.32-.16.32-.16.16-.16.32-.32.16-.16.32-.16.16-.16.16-.16.16-.32.16-.16.16-.16.16-.32.16-.16.16-.16v-.32l.16-.16v-.32l.16-.16" style="fill:none;stroke:#00ff4a;stroke-width:.48;stroke-linecap:round;stroke-linejoin:round;stroke-miterlimit:10;stroke-dasharray:none;stroke-opacity:1;visibility:visible"/><path d="m706.08 463.84.32.16.32.16.32.16.32.16.32.16h.32l.48.16.32.16h.32l.32.16h.48l.32.16h.48l.32.16h.48l.32.16h1.28l.32.16h2.88l.48-.16h1.28l.32-.16h.8l.32-.16h.48l.32-.16.32-.16h.32l.48-.16h.32l.32-.16.32-.16.32-.16.32-.16h.32l.16-.16.32-.16.32-.16.16-.16.32-.16.16-.16.32-.16.16-.16.16-.16.16-.32.32-.16.16-.16v-.16l.16-.16.16-.32.16-.16v-.16l.16-.16v-.32l.16-.16M679.2 622.4l.32-.16.16-.16.32-.16.32-.16.16-.16.32-.16.48-.32.64-.32.48-.16.64-.32.16-.16.32-.16h.32l.16-.16.32-.16h.16l.32-.16.16-.16h.32l.16-.16h.16l.32-.16.16-.16h.32l.16-.16h.32l.16-.16h.96v.16h.16v.8l-.16.16v.64l-.16.16v.48l-.16.16v.48l-.16.16v.64l-.16.16v.32l-.16.32v.32l-.16.16v.32l-.16.32-.16.32v.32l-.16.32v.16l-.16.32-.16.32-.16.32v.16l-.16.32-.16.32-.16.16-.16.32-.16.32-.16.16-.16.32-.16.16-.16.32-.16.16-.16.16-.16.32-.16.16-.32.16-.16.16-.16.16-.32.16-.16.16h-.16l-.16.16h-.32l-.16.16h-.32l-.16.16h-1.44l-.16-.16h-.32l-.16-.16h-.32l-.16-.16h-.16l-.32-.16-.16-.16-.16-.16h-.16l-.16-.16-.16-.16-.16-.16-.16-.16-.16-.16-.16-.32" style="fill:none;stroke:#00ff4a;stroke-width:.48;stroke-linecap:round;stroke-linejoin:round;stroke-miterlimit:10;stroke-dasharray:none;stroke-opacity:1;visibility:visible"/><path d="m709.12 452.96-.32.16h-.48l-.32.16h-.32l-.32.16h-.32l-.32.16-.32.16-.32.16h-.32l-.32.16-.16.16-.32.16-.16.16-.32.16-.16.16-.32.16-.16.16-.16.16-.32.16-.16.16-.16.16-.16.16-.16.16v.16l-.16.16-.16.16v.32l-.16.16v.32l-.16.16v.96l.16.32v.32l.16.16.16.16v.32l.16.16.16.16.16.16.16.16.16.16.16.16.16.16.32.16.16.16.16.16.32.16.16.16.32.16.32.16.16.16.32.16.8.32.32.16.32.16.32.16h.32l.32.16.32.16h.32l.32.16h.48l.32.16h.32l.48.16h.32l.32.16h1.28l.32.16h3.2l.32-.16h1.28l.32-.16h.32l.48-.16h.32l.32-.16h.32l.48-.16h.32l.32-.16.32-.16h.32l.32-.16.16-.16.32-.16.32-.16.32-.16h.16l.32-.16.16-.16.32-.16.16-.16.16-.16.16-.16.32-.32.16-.16.16-.16v-.16l.16-.16.16-.16.16-.16v-.32l.16-.16v-.48l.16-.32v-.16l-.16-.16v-.64l-.16-.16v-.16l-.16-.16v-.32l-.16-.16-.16-.16-.16-.16-.16-.16-.16-.16-.16-.16-.16-.16-.16-.32-.32-.16-.16-.16-.32-.16-.16-.16-.32-.16h-.32l-.16-.16-.32-.16M721.92 454.08h-.32l-.16.16" style="fill:none;stroke:#00ff4a;stroke-width:.48;stroke-linecap:round;stroke-linejoin:round;stroke-miterlimit:10;stroke-dasharray:none;stroke-opacity:1;visibility:visible"/><path d="m705.92 462.4-.16.16-.16.16v.16h-.16v.32h-.16v.32M722.56 454.56v-.16h-.16l-.16.16M706.72 462.72h-.16v.16h-.16v.16l-.16.16v.16l-.16.16v.32M707.2 457.28l-.16.16v.16l-.16.16v.16l-.16.16v.96l.16.16v.32l.16.16v.16l.16.16h.16l.16.16.16.16.16.16.16.16.16.16h.16l.16.16.32.16.16.16h.16l.32.16.32.16h.16l.32.16h.32l.16.16h.64l.32.16h.64l.16.16H716l.32-.16h.64l.32-.16h.32l.16-.16h.32l.32-.16h.32l.16-.16h.32l.16-.16.32-.16h.16l.16-.16.32-.16.16-.16.16-.16h.16l.16-.16.16-.16.16-.16v-.16l.16-.16.16-.16v-.16l.16-.16v-.64l.16-.16-.16-.16v-.48l-.16-.16-.16-.16v-.16M721.44 459.84v-.16M707.2 456.16v3.68M721.28 456l.16 3.68M721.28 456v-.8l-.16-.16v-.32l-.16-.16v-.16l-.16-.16-.16-.16v-.16h-.16v-.16l-.16-.16h-.16v-.16H720l-.16-.16v-.16h-.16l-.16-.16-.32-.16-.16-.16-.32-.16h-.16l-.32-.16-.32-.16h-.16l-.32-.16h-.48l-.32-.16H716l-.32-.16h-2.88l-.32.16h-.64l-.32.16h-.16l-.32.16h-.32l-.16.16h-.32l-.32.16-.16.16-.32.16h-.16l-.32.16-.16.16-.16.16-.16.16-.16.16-.16.16-.16.16-.16.16-.16.16v.32l-.16.16-.16.16v.32l-.16.16v.8" style="fill:none;stroke:#00ff4a;stroke-width:.48;stroke-linecap:round;stroke-linejoin:round;stroke-miterlimit:10;stroke-dasharray:none;stroke-opacity:1;visibility:visible"/><path d="M721.6 459.36v-.32h-.16v-.16M707.2 458.88l-.16.16v.32h-.16M707.2 456.16v.48l.16.16v.16l.16.16.16.16v.16l.16.16.16.16.16.16h.16l.16.16.16.16.16.16h.32l.16.16.16.16h.32l.16.16.32.16h.16l.32.16h.64l.16.16h.64l.32.16h3.68l.32-.16h.48l.32-.16h.32l.16-.16h.32l.32-.16h.16l.32-.16.16-.16h.32l.16-.16.16-.16h.16l.32-.16.16-.16.16-.16.16-.16.16-.16.16-.16v-.16l.16-.16v-.16l.16-.16V456M559.2 831.68v-.96l.64.32v.96M449.76 784.64l-.64.32M449.12 784l.64-.16M449.12 784.96V784l.48-.32.16.16v.8M449.6 790.08l-.64.16M448.96 789.28l.64-.16M448.96 790.24v-.96l.64-.32v1.12M449.6 795.36l-.64.32M448.96 794.72l.64-.16M448.96 795.68v-.96l.48-.32.16.16v.8M449.44 800.8l-.64.16M448.8 800l.64-.16M448.8 800.96V800l.64-.32v1.12M449.44 806.08l-.64.32M448.8 805.44l.64-.16M448.8 806.4v-.96l.48-.32.16.16v.8" style="fill:none;stroke:#00ff4a;stroke-width:.48;stroke-linecap:round;stroke-linejoin:round;stroke-miterlimit:10;stroke-dasharray:none;stroke-opacity:1;visibility:visible"/><path d="m719.52 454.4-.16-.16v-.48h-.16v-.16l-.16-.16-.16-.16v-.16h-.16l-.16-.16-.16-.16h-.16l-.16-.16h-.16l-.32-.16h-.16l-.16-.16h-.32l-.16-.16h-.48L716 452h-.8l-.16-.16h-1.44l-.16.16h-1.12l-.16.16h-.32l-.16.16h-.48l-.16.16h-.32l-.16.16-.16.16h-.16l-.16.16-.16.16h-.16l-.16.16v.16l-.16.16h-.16v.16l-.16.16v.96l.16.16v.16l.16.16v.16h.16l.16.16v.16h.16l.16.16.16.16h.32l.16.16h.16l.16.16h.32l.16.16h.16l.32.16h.48l.32.16h2.88l.16-.16h.48l.32-.16h.48l.16-.16h.32l.16-.16h.16l.16-.16.16-.16h.16l.16-.16.16-.16h.16l.16-.16v-.16l.16-.16v-.16h.16v-.32l.16-.16v-.16M559.36 826.4v-.96l.48.32v.96M559.52 832.16l-.32-.48M559.2 830.72l.48.48M559.84 831.04l-.16.16-.16.96.32-.16M559.36 820.96V820l.64.32v.96M559.68 826.72l-.32-.32M559.36 825.44l.32.32" style="fill:none;stroke:#00ff4a;stroke-width:.48;stroke-linecap:round;stroke-linejoin:round;stroke-miterlimit:10;stroke-dasharray:none;stroke-opacity:1;visibility:visible"/><path d="M559.84 825.76h-.16v.96h.16M559.52 815.68v-.96l.48.32v.96M559.68 821.28l-.32-.32M559.36 820l.32.48M560 820.32l-.32.16v.8h.32M559.52 810.24v-.96l.64.32v.96M559.84 816l-.32-.32M559.52 814.72l.32.32" style="fill:none;stroke:#00ff4a;stroke-width:.48;stroke-linecap:round;stroke-linejoin:round;stroke-miterlimit:10;stroke-dasharray:none;stroke-opacity:1;visibility:visible"/><path d="M560 815.04h-.16v.96h.16M513.76 804.96l.48.16v.96M559.84 810.56l-.32-.32M559.52 809.28l.32.48M560.16 809.6l-.32.16v.8h.32M513.76 799.52l.64.32v.96M513.6 804.96v.96l.64.16" style="fill:none;stroke:#00ff4a;stroke-width:.48;stroke-linecap:round;stroke-linejoin:round;stroke-miterlimit:10;stroke-dasharray:none;stroke-opacity:1;visibility:visible"/><path d="M513.76 804.96h-.16l.64.16M513.92 794.08l.48.32v.96M513.76 799.68l-.16.8.8.32M513.76 799.52v.16l.64.16M513.92 788.8l.64.32-.16.96" style="fill:none;stroke:#00ff4a;stroke-width:.48;stroke-linecap:round;stroke-linejoin:round;stroke-miterlimit:10;stroke-dasharray:none;stroke-opacity:1;visibility:visible"/><path d="M513.76 794.24v.96l.64.16M513.92 794.08l-.16.16.64.16M514.08 783.36l.48.32v.96M513.76 788.96v.8l.64.32M513.92 788.8l-.16.16.8.16M536.64 881.12v-.48l-.16-.16v-.16h-.16v-.16l-.16-.16-.16-.16h-.16v-.16l-.16-.16h-.16l-.16-.16h-.32l-.16-.16h-.16l-.16-.16h-.48l-.16-.16h-2.08l-.16.16h-.48l-.16.16h-.16l-.32.16h-.16l-.16.16h-.16l-.16.16h-.16v.16l-.16.16-.16.16-.16.16v.16l-.16.16v.8l.16.16v.16l.16.16v.16h.16l.16.16.16.16.16.16.16.16h.16l.32.16h.16l.16.16h.48l.16.16h.64l.16.16h.8l.16-.16h.96l.16-.16h.16l.16-.16h.32l.16-.16h.16l.16-.16h.16l.16-.16v-.16h.16l.16-.16v-.16l.16-.16.16-.16v-.48M489.44 881.28v-.32l-.16-.16v-.32h-.16v-.16l-.16-.16-.16-.16h-.16l-.16-.16-.16-.16h-.16l-.16-.16h-.16l-.16-.16h-.16l-.16-.16h-.64l-.32-.16h-1.76l-.16.16H484l-.16.16h-.32l-.16.16h-.16l-.16.16h-.16l-.16.16-.16.16h-.16v.16l-.16.16-.16.16v.16l-.16.16v.96h.16v.16l.16.16v.16h.16l.16.16v.16l.16.16h.16l.16.16h.16l.16.16h.32l.16.16h.16l.16.16h.96l.16.16h.96l.16-.16h.64l.32-.16h.32l.16-.16h.32l.16-.16.16-.16h.16v-.16l.16-.16h.16l.16-.16v-.16h.16v-.32l.16-.16v-.32M442.24 881.44v-.32l-.16-.16v-.16l-.16-.16-.16-.16v-.16h-.16l-.16-.16-.16-.16h-.16l-.16-.16-.16-.16h-.16l-.16-.16H440l-.16-.16h-.48l-.16-.16h-1.6l-.16.16h-.64l-.16.16h-.32l-.16.16H436l-.16.16h-.16l-.16.16-.16.16h-.16v.16l-.16.16h-.16v.16l-.16.16v1.12l.16.16v.16l.16.16.16.16.16.16.16.16h.16l.16.16h.16l.16.16h.16l.32.16h.16l.16.16h.64l.32.16h1.12l.16-.16h.64l.32-.16h.32l.16-.16h.16l.16-.16h.16l.16-.16.16-.16h.16l.16-.16v-.16l.16-.16h.16v-.32l.16-.16v-.32M574.72 923.68l6.88-37.44M390.24 887.2l5.92 37.12M513.92 783.52v.96l.64.16" style="fill:none;stroke:#00ff4a;stroke-width:.48;stroke-linecap:round;stroke-linejoin:round;stroke-miterlimit:10;stroke-dasharray:none;stroke-opacity:1;visibility:visible"/><path d="m514.08 783.36-.16.16.64.16M541.92 880l-.16-.16v-.16l-.16-.16-.16-.32v-.16l-.16-.16-.16-.16-.16-.16-.16-.16-.32-.16-.16-.32-.16-.16-.32-.16-.16-.16-.32-.16h-.16l-.32-.16-.16-.16-.32-.16-.32-.16h-.32l-.32-.16-.32-.16h-.32l-.32-.16h-.32l-.32-.16h-.32l-.32-.16h-.64l-.32-.16h-2.88l-.32.16h-.64l-.32.16h-.8l-.32.16h-.32l-.16.16-.32.16h-.32l-.32.16-.32.16-.16.16h-.32l-.32.16-.16.16-.32.16-.16.16-.32.16-.16.16-.16.16-.16.16-.16.16-.16.32-.16.16-.16.16-.16.16v.16l-.16.32-.16.16M494.72 880.16l-.16-.16v-.16l-.16-.16-.16-.32-.16-.16v-.16l-.16-.16-.16-.16-.32-.16-.16-.16-.16-.16-.16-.32-.32-.16-.16-.16h-.32l-.16-.16-.32-.16-.32-.16-.16-.16-.32-.16h-.32l-.32-.16-.32-.16h-.32l-.32-.16h-.32l-.32-.16h-.32L488 876h-.96l-.48-.16h-2.08l-.32.16h-.96l-.48.16h-.32l-.32.16h-.32l-.32.16h-.32l-.32.16h-.16l-.32.16-.32.16-.32.16-.16.16h-.32l-.16.16-.32.16-.16.16-.32.16-.16.16-.16.16-.16.16-.16.32-.16.16-.16.16-.16.16-.16.16-.16.16v.32l-.16.16M447.52 880.48l-.16-.32-.16-.16v-.16l-.16-.16-.16-.32-.16-.16-.16-.16-.16-.16-.16-.16-.16-.16-.16-.16-.16-.16-.32-.16-.16-.16-.32-.16-.16-.16-.32-.16-.32-.16-.16-.16-.32-.16h-.32l-.32-.16-.32-.16h-.32l-.32-.16h-.32l-.32-.16h-.32l-.32-.16h-1.12l-.32-.16h-2.08l-.32.16h-1.12l-.32.16h-.32l-.32.16h-.32l-.32.16h-.32l-.32.16-.32.16h-.16l-.32.16-.32.16-.16.16H432l-.32.16-.16.16-.32.16-.16.16-.16.16-.16.16-.32.16-.16.32-.16.16v.16l-.16.16-.16.16-.16.16v.32l-.16.16M384.8 855.68l.32.16.16.16.32.16.32.16h.32l.32.16h.32l.32.16h.32l.32.16h.32l.32.16h1.44l.32.16h1.12l.32-.16h1.44l.32-.16h.32l.32-.16h.32l.32-.16h.32l.32-.16.32-.16h.32l.32-.16.16-.16.32-.16.32-.16h.16l.32-.16.16-.16.32-.16.16-.16.16-.32.16-.16.16-.16.16-.16.16-.16.16-.16.16-.16.16-.32v-.16l.16-.16v-.16l.16-.32v-1.44l-.16-.16v-.48l-.16-.16-.16-.16v-.16l-.16-.32-.16-.16-.16-.16-.16-.16-.16-.16-.16-.16-.32-.16-.16-.16-.16-.16-.32-.16-.16-.16-.32-.16-.32-.16-.16-.16-.32-.16-.32-.16h-.32l-.32-.16-.32-.16h-.32l-.32-.16h-.32l-.32-.16h-.32l-.32-.16h-1.12l-.32-.16h-2.08l-.32.16H388l-.32.16h-.32l-.32.16h-.32l-.32.16h-.32l-.32.16-.32.16-.32.16h-.16l-.32.16-.32.16-.16.16-.32.16-.16.16-.32.16-.16.16-.16.16M383.2 765.28l.32 10.24h15.2M398.72 775.52l3.68 97.28M391.04 886.08l190.08-.64M396.16 924.32l1.28-.16 1.44-.16 2.72-.16 2.88-.32 2.72-.16 2.88-.32 2.72-.16 2.72-.16 2.88-.32 2.72-.16 2.88-.16 2.72-.16h2.72l1.44-.16h2.88l1.28-.16h4.16l1.44-.16h11.2l11.2-.16h22.4l22.4-.16h22.4l1.44.16h5.44l1.44.16h2.88l2.72.16 2.72.16h2.88l2.72.16 2.72.16 2.88.16 2.72.32 2.88.16 2.72.16 2.72.32 2.72.16 1.44.16 1.44.16M388.96 872.8l194.24-.64" style="fill:none;stroke:#00ff4a;stroke-width:.48;stroke-linecap:round;stroke-linejoin:round;stroke-miterlimit:10;stroke-dasharray:none;stroke-opacity:1;visibility:visible"/><path d="M542.08 878.72v-.64l-.16-.16v-.32l-.16-.16v-.16l-.16-.16-.16-.32-.16-.16-.16-.16-.16-.16-.16-.16-.16-.16-.16-.32-.16-.16-.32-.16-.16-.16-.32-.16-.16-.16h-.32l-.32-.16-.16-.16-.32-.16-.32-.16h-.32l-.32-.16-.32-.16h-.32l-.32-.16H536l-.32-.16h-.64l-.48-.16h-3.52l-.32.16h-.64l-.32.16h-.32l-.32.16h-.32l-.32.16h-.32l-.32.16-.32.16h-.32l-.16.16-.32.16-.32.16-.16.16-.32.16-.16.16-.16.16-.32.16-.16.16-.16.16-.16.16-.16.16-.16.32-.16.16-.16.16v.16l-.16.16-.16.32v.32l-.16.16v1.12l.16.16v.48l.16.16v.16l.16.32.16.16.16.16.16.16.16.16.16.32.16.16.16.16.16.16.32.16.16.16.16.16.32.16.32.16.16.16h.32l.32.16.32.16.16.16h.32l.32.16.32.16h.32l.32.16h.32l.48.16h.64l.32.16h3.2l.32-.16h.64l.48-.16h.32l.32-.16h.32l.32-.16h.32l.32-.16.16-.16h.32l.32-.16.32-.16.16-.16.32-.16.16-.16.32-.16.16-.16.32-.16.16-.16.16-.16.16-.16.16-.16.16-.16.16-.16.16-.32v-.16l.16-.16.16-.16V880l.16-.32v-.96M494.88 878.88v-.48l-.16-.16v-.48l-.16-.16-.16-.16v-.16l-.16-.32-.16-.16-.16-.16-.16-.16-.16-.16-.16-.16-.16-.16-.32-.16-.16-.32-.16-.16h-.32l-.32-.16-.16-.16-.32-.16-.32-.16-.16-.16-.32-.16h-.32l-.32-.16-.32-.16h-.32l-.32-.16h-.32l-.32-.16h-.8l-.32-.16h-3.52l-.32.16h-.64l-.32.16h-.32l-.32.16h-.32l-.32.16h-.32l-.32.16-.32.16-.32.16h-.16l-.32.16-.32.16-.16.16-.32.16-.16.16-.32.16-.16.16-.16.16-.16.16-.16.16-.16.16-.16.32-.16.16-.16.16-.16.16v.16l-.16.32v.32l-.16.32v1.12l.16.32v.16l.16.16v.16l.16.32.16.16.16.16v.16l.16.16.16.32.32.16.16.16.16.16.16.16.32.16.16.16.32.16.16.16.32.16.32.16h.32l.16.16.32.16.32.16h.32l.32.16h.32l.32.16h.32l.32.16h.8l.32.16h3.2l.32-.16h.64l.32-.16h.8l.32-.16.32-.16h.16l.32-.16h.32l.32-.16.32-.16.16-.16.32-.16.32-.16h.16l.32-.16.16-.16.16-.16.32-.32.16-.16.16-.16.16-.16.16-.16.16-.16.16-.16v-.32l.16-.16.16-.16v-.48l.16-.16v-.8M447.68 879.04v-.48l-.16-.16v-.32l-.16-.32-.16-.16v-.16l-.16-.16-.16-.32-.16-.16-.16-.16-.16-.16-.16-.16-.16-.16-.32-.16-.16-.16-.32-.16-.16-.16-.32-.16-.16-.16-.32-.16-.32-.16-.32-.16h-.16l-.32-.16-.32-.16h-.32l-.32-.16-.32-.16h-.64l-.48-.16h-.64l-.32-.16h-3.2l-.32.16h-.64l-.32.16h-.48l-.32.16h-.32l-.32.16h-.16l-.32.16-.32.16-.32.16h-.32l-.16.16-.32.16-.16.16-.32.16-.16.16-.32.16-.16.16-.16.16-.16.16-.16.16-.16.16-.16.32-.16.16-.16.16-.16.16v.32l-.16.16v.16l-.16.16v1.44l.16.32v.16l.16.16v.32l.16.16.16.16v.16l.16.16.16.32.16.16.16.16.32.16.16.16.16.16.32.16.16.16.32.16.16.16.32.16.32.16h.16l.32.16.32.16.32.16h.32l.32.16h.32l.32.16h.32l.32.16h.8l.32.16h3.52l.32-.16h.64l.32-.16h.32l.32-.16h.32l.32-.16.32-.16h.32l.32-.16.32-.16.16-.16.32-.16h.32l.16-.16.32-.16.16-.16.16-.16.16-.16.32-.32.16-.16.16-.16.16-.16.16-.16v-.16l.16-.32.16-.16v-.16l.16-.16V880l.16-.16v-.8M397.76 796.64V796l-.16-.32v-.16l-.16-.16v-.16l-.16-.32-.16-.16-.16-.16-.16-.16-.16-.16-.16-.32-.16-.16-.16-.16-.32-.16-.16-.16-.16-.16-.32-.16-.16-.16-.32-.16h-.32l-.32-.16-.16-.16-.32-.16-.32-.16h-.32l-.32-.16h-.32l-.32-.16h-.32l-.32-.16h-.32l-.32-.16h-1.76l-.48-.16-.32.16h-1.76l-.32.16h-.64l-.32.16h-.32l-.32.16h-.32l-.32.16-.32.16h-.32l-.32.16-.16.16-.32.16-.32.16-.16.16-.32.16-.16.16-.32.16-.16.16-.16.16-.16.16-.16.16-.16.16-.16.16-.16.16-.16.32v.16l-.16.16-.16.16v.48l-.16.16v1.12l.16.16v.48l.16.16v.16l.16.16.16.32.16.16.16.16.16.16.16.16.16.16.16.32.16.16.32.16.16.16.16.16.32.16.32.16h.16l.32.16.32.16.16.16.32.16h.32l.32.16h.32l.32.16h.32l.32.16h.48l.32.16h.64l.32.16h2.56l.32-.16h.96l.32-.16h.48l.32-.16h.32l.32-.16h.32l.16-.16.32-.16.32-.16h.32l.32-.16.16-.16.32-.16.16-.16.32-.16.16-.16.16-.16.32-.16.16-.16.16-.16.16-.16.16-.16.16-.32.16-.16v-.16l.16-.16.16-.16v-.48l.16-.16v-.8M399.68 852.96l-.16-.16v-.32l-.16-.16-.16-.16V852l-.16-.16-.16-.32-.16-.16-.16-.16-.32-.16-.16-.16-.16-.16-.32-.16-.16-.16-.32-.16-.16-.16-.32-.16-.32-.16h-.16l-.32-.16-.32-.16-.32-.16h-.32l-.32-.16h-.32l-.32-.16h-.32l-.32-.16h-.64l-.32-.16h-3.84l-.32.16h-.48l-.32.16h-.64l-.32.16-.32.16h-.32l-.16.16-.32.16h-.32l-.32.16-.16.16-.32.16-.16.16-.32.16-.16.16M386.88 854.08v.32l.16.16v.16h.16v.16l.16.16.16.16.16.16.16.16h.16l.16.16h.32l.16.16h.16l.16.16h.48l.16.16h2.08l.16-.16h.48l.16-.16h.48l.16-.16.16-.16h.16l.16-.16h.16v-.16l.16-.16.16-.16.16-.16v-.16l.16-.16v-.8l-.16-.16v-.16l-.16-.16v-.16h-.16l-.16-.16-.16-.16-.16-.16-.16-.16h-.16l-.32-.16h-.16l-.16-.16H392l-.16-.16h-.8l-.32-.16h-.48l-.16.16h-.96l-.16.16h-.16l-.16.16h-.32l-.16.16H388l-.16.16h-.16l-.16.16v.16h-.16l-.16.16v.16l-.16.16-.16.16v.64" style="fill:none;stroke:#00ff4a;stroke-width:.48;stroke-linecap:round;stroke-linejoin:round;stroke-miterlimit:10;stroke-dasharray:none;stroke-opacity:1;visibility:visible"/><path d="m397.6 797.92-.16-.16v-.16l-.16-.32-.16-.16v-.16l-.16-.16-.16-.16-.16-.16-.16-.32-.32-.16-.16-.16-.16-.16-.32-.16-.16-.16-.32-.16-.16-.16-.32-.16h-.32l-.16-.16-.32-.16-.32-.16h-.32l-.32-.16-.32-.16h-.32l-.32-.16h-.32l-.32-.16h-.96l-.32-.16h-3.2l-.32.16h-.64l-.48.16h-.32l-.32.16h-.32l-.32.16h-.16l-.32.16-.32.16-.32.16h-.32l-.16.16-.32.16-.16.16-.32.16-.16.16-.32.16-.16.16-.16.16-.16.16-.16.16-.16.16-.16.16-.16.32-.16.16-.16.16v.16l-.16.32M430.88 771.2l.16.16v.32l.16.16v.16l.16.16h.16v.16l.16.16h.16l.16.16.16.16h.16l.16.16h.16l.32.16h.32l.16.16h.96l.16.16h.48l.32-.16h.8l.16-.16h.32l.16-.16h.16l.16-.16h.16l.16-.16h.16l.16-.16.16-.16h.16v-.16l.16-.16v-.16h.16v-.32l.16-.16v-.32l-.16-.16v-.32l-.16-.16-.16-.16v-.16l-.16-.16h-.16l-.16-.16-.16-.16h-.16l-.16-.16h-.16l-.16-.16h-.16l-.32-.16H436l-.32-.16h-1.92l-.32.16h-.32l-.32.16h-.16l-.16.16h-.16l-.16.16H432l-.16.16h-.16l-.16.16-.16.16v.16h-.16v.16l-.16.16v.32l-.16.16v.16M524.48 770.88v.32l.16.16v.16l.16.16.16.16.16.16v.16h.16l.16.16.16.16h.16l.32.16h.16l.16.16h.48l.16.16h2.4l.32-.16h.32l.16-.16h.32l.16-.16h.16l.16-.16h.16l.16-.16V772h.16l.16-.16v-.16l.16-.16v-.16h.16v-.96l-.16-.16v-.16l-.16-.16-.16-.16-.16-.16h-.16v-.16l-.16-.16h-.16l-.16-.16h-.32l-.16-.16h-.16l-.16-.16h-.48l-.16-.16h-2.24l-.32.16h-.32l-.16.16h-.32l-.16.16h-.16l-.16.16-.16.16h-.16v.16l-.16.16h-.16v.16l-.16.16v.16l-.16.16v.48M580 774.88l-.32-10.24h-1.44M384.48 762.24l.16 3.04h-1.44M375.52 765.28h7.68M377.92 828.48l-2.4-63.2-.16 47.2.32 6.56M402.4 872.8h-13.44" style="fill:none;stroke:#00ff4a;stroke-width:.48;stroke-linecap:round;stroke-linejoin:round;stroke-miterlimit:10;stroke-dasharray:none;stroke-opacity:1;visibility:visible"/><path d="M384.8 799.04v.32l.16.16v.16l.16.16.16.16.16.16v.16h.16l.16.16h.16l.16.16.32.16h.32l.16.16h.16l.32.16h2.4l.32-.16h.32l.16-.16h.32l.16-.16h.16l.16-.16h.16l.16-.16v-.16l.16-.16h.16v-.16l.16-.16v-.16h.16v-.96l-.16-.16v-.16l-.16-.16-.16-.16-.16-.16-.16-.16-.16-.16h-.16l-.32-.16h-.16l-.16-.16h-.16l-.16-.16h-.48l-.16-.16h-2.24l-.32.16h-.32l-.16.16h-.32l-.16.16h-.16l-.16.16-.16.16h-.16v.16l-.16.16h-.16v.16l-.16.16v.16h-.16v.64M537.44 768.48v-.64l-.16-.32v-.16l-.16-.16v-.16l-.16-.32-.16-.16-.16-.16-.16-.16-.16-.16-.16-.16-.16-.32-.16-.16-.32-.16-.16-.16-.16-.16-.32-.16-.16-.16-.32-.16h-.32l-.16-.16-.32-.16-.32-.16h-.32l-.32-.16-.32-.16H532l-.32-.16h-.32l-.32-.16h-.64l-.48-.16h-3.84l-.32.16h-.64l-.32.16h-.32l-.32.16-.32.16h-.32l-.32.16-.32.16h-.32l-.16.16-.32.16-.32.16-.16.16-.32.16-.16.16-.16.16-.32.16-.16.16-.16.16-.16.16-.16.16-.16.16-.16.32-.16.16v.16l-.16.16-.16.16v.48l-.16.16v1.12l.16.16v.48l.16.16v.16l.16.16.16.32.16.16.16.16.16.16.16.16.16.16.16.32.16.16.32.16.16.16.16.16.32.16.32.16h.16l.32.16.32.16.32.16.16.16h.32l.32.16h.32l.32.16.32.16h.8l.32.16h.64l.32.16h2.56l.32-.16h.96l.32-.16h.48l.32-.16h.32l.32-.16h.32l.16-.16.32-.16h.32l.32-.16.32-.16.16-.16.32-.16.16-.16.32-.16.16-.16.16-.16.32-.16.16-.16.16-.16.16-.16.16-.16.16-.16.16-.32v-.16l.16-.16.16-.16v-.32l.16-.16v-.96M444 768.8v-.32l-.16-.16V768l-.16-.32v-.16l-.16-.16-.16-.16v-.32l-.16-.16-.16-.16-.16-.16-.16-.16-.16-.16-.32-.32-.16-.16-.16-.16-.32-.16-.16-.16-.32-.16h-.16l-.32-.16-.32-.16-.32-.16-.32-.16h-.16l-.32-.16-.32-.16h-.32l-.32-.16h-.32l-.48-.16h-.64l-.32-.16h-3.84l-.32.16H432l-.48.16h-.32l-.32.16h-.32l-.32.16h-.32l-.16.16-.32.16h-.32l-.32.16-.16.16-.32.16-.32.16-.16.16-.32.16-.16.16-.16.16-.16.16-.32.16-.16.16-.16.16-.16.16v.32l-.16.16-.16.16v.16l-.16.32v.16l-.16.16v1.44l.16.16v.48l.16.16.16.32v.16l.16.16.16.16.16.16.16.32.16.16.32.16.16.16.16.16.32.16.16.16.32.16.16.16.32.16h.32l.16.16.32.16.32.16h.32l.32.16.32.16h.32l.32.16h.32l.32.16h1.12l.32.16h2.72l.48-.16h.64l.32-.16h.32l.32-.16h.32l.32-.16h.32l.32-.16.32-.16h.32l.16-.16.32-.16.32-.16.16-.16.32-.16.16-.16.32-.16.16-.16.16-.16.32-.16.16-.16.16-.16.16-.16.16-.16v-.32l.16-.16.16-.16v-.16l.16-.32v-.32l.16-.16v-.64" style="fill:none;stroke:#00ff4a;stroke-width:.48;stroke-linecap:round;stroke-linejoin:round;stroke-miterlimit:10;stroke-dasharray:none;stroke-opacity:1;visibility:visible"/><path d="m537.28 769.76-.16-.16v-.16l-.16-.32-.16-.16v-.16l-.16-.16-.16-.16-.16-.16-.16-.32-.32-.16-.16-.16-.16-.16-.32-.16-.16-.16-.32-.16-.16-.16-.32-.16h-.16l-.32-.16-.32-.16-.32-.16h-.32l-.32-.16-.32-.16h-.32l-.32-.16h-.64l-.32-.16h-.64l-.32-.16h-3.2l-.32.16h-.64l-.48.16h-.32l-.32.16H524l-.32.16-.16.16h-.32l-.32.16-.32.16h-.32l-.16.16-.32.16-.16.16-.32.16-.16.16-.32.16-.16.16-.16.16-.16.16-.16.16-.16.16-.16.32-.16.16-.16.16-.16.16v.16l-.16.32M585.76 795.84v-.32l-.16-.32v-.16l-.16-.16v-.16l-.16-.32v-.16l-.16-.16-.16-.16-.16-.32-.16-.16-.16-.16-.16-.16-.32-.16-.16-.16-.16-.16-.32-.16-.16-.16-.32-.16-.16-.16-.32-.16-.32-.16h-.32l-.16-.16-.32-.16-.32-.16h-.32l-.32-.16H580l-.32-.16h-.32l-.48-.16h-.96l-.32-.16h-2.24l-.32.16h-.96l-.32.16h-.32l-.48.16h-.32l-.32.16H572l-.16.16h-.32l-.32.16-.32.16-.32.16-.16.16h-.32l-.32.16-.16.16-.16.16-.32.16-.16.16-.16.16-.16.32-.32.16-.16.16v.16l-.16.16-.16.16-.16.32v.16l-.16.16v.16l-.16.32v1.44l.16.16v.16l.16.32v.16l.16.16.16.16v.16l.16.32.16.16.16.16.16.16.32.16.16.16.16.16.32.16.16.16.32.16.16.16.32.16.32.16.16.16.32.16h.32l.32.16.32.16h.32l.32.16h.32l.32.16h.64l.48.16H576l.48.16h.64l.32-.16h1.44l.32-.16h.32l.32-.16h.32l.32-.16h.32l.32-.16h.32l.32-.16.32-.16.32-.16h.16l.32-.16.16-.16.32-.16.16-.16.32-.16.16-.16.16-.16.32-.16.16-.16.16-.16.16-.32.16-.16v-.16l.16-.16.16-.16v-.32l.16-.16v-.16l.16-.32v-.8M568.64 872.16l-3.84-97.28M565.6 839.84v1.28M587.2 764.64h-7.52M564.8 777.92v-3.04H580M578.24 764.64l-.16-3.04-193.6.64M580 774.88l-196.48.64M450.56 809.76l61.76-.32M383.52 775.52l-.32-10.24M443.68 770.08v-.16l-.16-.16v-.16l-.16-.32-.16-.16-.16-.16-.16-.16-.16-.16-.16-.16-.16-.32-.16-.16-.32-.16-.16-.16-.16-.16-.32-.16h-.32l-.16-.16-.32-.16-.32-.16-.16-.16h-.32l-.32-.16-.32-.16h-.32l-.32-.16h-.32l-.32-.16h-.32l-.32-.16h-.8l-.32-.16h-2.72l-.32.16h-.8l-.32.16h-.64l-.32.16h-.32l-.32.16-.32.16h-.32l-.16.16-.32.16-.32.16h-.32l-.16.16-.32.16-.16.16-.32.16-.16.16-.16.16-.32.16-.16.16-.16.16-.16.32-.16.16v.16l-.16.16-.16.16-.16.32v.16M587.84 850.88v-.48l-.16-.16v-.16l-.16-.16v-.32l-.16-.16v-.16l-.16-.16-.16-.32-.16-.16-.16-.16-.16-.16-.16-.16-.16-.16-.32-.16-.16-.16-.32-.16-.16-.16-.32-.16-.16-.16-.32-.16-.32-.16-.32-.16h-.16l-.32-.16-.32-.16h-.32l-.32-.16h-.32l-.32-.16h-.32l-.48-.16h-.64l-.32-.16h-3.2l-.32.16h-.64l-.32.16h-.48l-.32.16h-.32l-.32.16-.16.16h-.32l-.32.16-.32.16h-.32l-.16.16-.32.16-.16.16-.32.16-.16.16-.32.16-.16.16-.16.16-.16.16-.32.16-.16.32v.16l-.16.16-.16.16-.16.16v.32l-.16.16v.16l-.16.16v1.44l.16.32v.16l.16.16v.32l.16.16.16.16v.16l.16.16.16.32.16.16.16.16.32.16.16.16.16.16.32.16.16.16.32.16.16.16.32.16.32.16h.16l.32.16.32.16.32.16h.32l.32.16h.32l.32.16h.32l.32.16h.8l.32.16h3.52l.32-.16h.64l.32-.16h.32l.32-.16h.32l.32-.16.32-.16h.32l.32-.16.32-.16.16-.16.32-.16h.16l.32-.16.16-.16.32-.16.16-.16.16-.16.32-.32.16-.16.16-.16.16-.16.16-.16v-.16l.16-.32.16-.16v-.16l.16-.16v-.32l.16-.16v-.8" style="fill:none;stroke:#00ff4a;stroke-width:.48;stroke-linecap:round;stroke-linejoin:round;stroke-miterlimit:10;stroke-dasharray:none;stroke-opacity:1;visibility:visible"/><path d="m585.6 797.28-.16-.16-.16-.32v-.16l-.16-.16-.16-.16-.16-.32-.16-.16-.16-.16-.16-.16-.16-.16-.16-.16-.32-.16-.16-.16-.16-.16-.32-.16-.16-.16-.32-.16-.32-.16h-.32l-.16-.16-.32-.16-.32-.16h-.32l-.32-.16h-.32l-.32-.16h-.32l-.32-.16h-.32l-.32-.16h-4.32l-.32.16h-.64l-.32.16h-.32l-.32.16-.32.16h-.32l-.32.16-.16.16h-.32l-.32.16-.32.16-.16.16-.32.16-.16.16-.32.16-.16.16-.16.16-.16.16-.32.16-.16.16-.16.16-.16.16v.16l-.16.32-.16.16v.16l-.16.16" style="fill:none;stroke:#00ff4a;stroke-width:.48;stroke-linecap:round;stroke-linejoin:round;stroke-miterlimit:10;stroke-dasharray:none;stroke-opacity:1;visibility:visible"/><path d="M572.8 798.24v.64l.16.16.16.16.16.16v.16h.16l.16.16.16.16h.16l.16.16h.16l.16.16h.32l.16.16h.64l.16.16h1.92l.16-.16h.48l.16-.16h.16l.16-.16h.16l.16-.16h.16l.16-.16h.16l.16-.16.16-.16v-.16h.16l.16-.16v-.32l.16-.16v-.64l-.16-.16-.16-.16v-.16l-.16-.16-.16-.16-.16-.16h-.16l-.16-.16-.16-.16h-.16l-.16-.16h-.16l-.16-.16h-.48l-.16-.16h-.64l-.32-.16h-.64l-.16.16h-.96l-.16.16h-.32l-.16.16h-.16l-.16.16h-.16l-.16.16h-.16l-.16.16-.16.16-.16.16-.16.16v.16h-.16v.64M587.68 852.32l-.16-.32-.16-.16v-.16l-.16-.16-.16-.32-.16-.16-.16-.16-.16-.16-.16-.16-.16-.16-.16-.16-.32-.16-.16-.16-.16-.16-.32-.16-.16-.16-.32-.16-.32-.16-.32-.16-.16-.16h-.32l-.32-.16-.32-.16h-.32l-.32-.16h-.32l-.32-.16h-.64l-.32-.16h-1.12l-.32-.16h-1.76l-.32.16H576l-.32.16h-.32l-.32.16h-.32l-.32.16h-.32l-.32.16-.32.16h-.16l-.32.16-.32.16-.16.16-.32.16h-.32l-.16.16-.32.16-.16.16-.16.16-.16.16-.32.32-.16.16-.16.16-.16.16v.16l-.16.16-.16.32v.16l-.16.16M426.24 812.8l.16-.16h.32l.16-.16M430.72 805.92l-.16-.16v-.48l-.16-.16M457.12 872.64l-56-31.84M402.24 872l1.44.8M565.76 839.84l-58.08-32.96M508.16 776.16l57.92 33.12M507.68 806.88l.48-30.72 53.44-.16M564.96 777.92 561.6 776M564.96 777.92l1.12 31.36-.32 30.56M533.76 804.8v.16l-.16.16M537.76 812.32h.64M568.48 871.36l-1.12-31.2-53.6 32.16M568.48 872.16v-.8l-1.28.8M590.24 847.2l-3.04-82.56M568.64 872.16h14.56M580 774.88l-.32-10.24" style="fill:none;stroke:#00ff4a;stroke-width:.48;stroke-linecap:round;stroke-linejoin:round;stroke-miterlimit:10;stroke-dasharray:none;stroke-opacity:1;visibility:visible"/><path d="M574.88 853.28v.64h.16v.16l.16.16.16.16.16.16.16.16h.16l.16.16h.16l.16.16h.16l.32.16h.16l.16.16h.64l.32.16h1.28l.32-.16h.32l.32-.16h.32l.16-.16h.16l.16-.16h.16l.16-.16.16-.16h.16l.16-.16v-.16l.16-.16h.16v-.32l.16-.16v-.64l-.16-.16v-.16h-.16v-.16l-.16-.16v-.16h-.16l-.16-.16-.16-.16h-.16l-.16-.16-.16-.16h-.16l-.16-.16h-.48l-.16-.16h-.48l-.16-.16h-1.6l-.16.16h-.64l-.16.16h-.32l-.16.16h-.16l-.16.16h-.16l-.16.16-.16.16h-.16v.16l-.16.16-.16.16-.16.16v.64M400 809.76l55.36-33.28M401.92 776.64l-3.2 1.92M401.92 776.64l53.44-.16-.32 30.56-53.92 32.48" style="fill:none;stroke:#00ff4a;stroke-width:.48;stroke-linecap:round;stroke-linejoin:round;stroke-miterlimit:10;stroke-dasharray:none;stroke-opacity:1;visibility:visible"/><path d="M405.28 832.64v-.96l.48-.32v.96M405.28 827.2v-.96l.64-.32-.16.96M405.76 832.32l-.32.32" style="fill:none;stroke:#00ff4a;stroke-width:.48;stroke-linecap:round;stroke-linejoin:round;stroke-miterlimit:10;stroke-dasharray:none;stroke-opacity:1;visibility:visible"/><path d="M405.28 832.64h.16v-.96M405.28 831.68h.16l.32-.32M405.44 821.92v-.96l.48-.32v.96M405.76 826.88l-.32.48M405.28 827.2l.16.16v-.96M405.28 826.24l.16.16.48-.48M405.44 816.48v-.96l.48-.32v.96M405.92 821.6l-.32.32" style="fill:none;stroke:#00ff4a;stroke-width:.48;stroke-linecap:round;stroke-linejoin:round;stroke-miterlimit:10;stroke-dasharray:none;stroke-opacity:1;visibility:visible"/><path d="M405.44 821.92h.16v-.96" style="fill:none;stroke:#00ff4a;stroke-width:.48;stroke-linecap:round;stroke-linejoin:round;stroke-miterlimit:10;stroke-dasharray:none;stroke-opacity:1;visibility:visible"/><path d="M405.44 820.96h.16l.32-.32M405.6 811.2v-.96l.48-.32v.96M405.92 816.16l-.32.32M405.44 816.48h.16v-.8M405.44 815.52l.16.16.32-.48M436.8 805.6l-.8-.32M429.76 817.92l-.64-.32M437.44 812.16l.16-.32M435.84 815.2l-.32.32M431.04 806.24l-1.28-.8M426.88 812.48l-.8-.48M430.08 806.72l-1.6 1.44-.96 1.76-.64 2.08" style="fill:none;stroke:#00ff4a;stroke-width:.48;stroke-linecap:round;stroke-linejoin:round;stroke-miterlimit:10;stroke-dasharray:none;stroke-opacity:1;visibility:visible"/><path d="m426.88 812 .16.96.32.96M431.36 806.08l-1.28.64M406.08 810.88l-.32.32M405.6 811.2h.16v-.96M405.6 810.24h.16l.32-.32M433.6 814.08l1.44-1.44-1.92-1.12M432.48 813.6l1.12.48-1.12-.64M432.8 811.84l.32-.32M433.12 811.36v.16h-.16" style="fill:none;stroke:#00ff4a;stroke-width:.48;stroke-linecap:round;stroke-linejoin:round;stroke-miterlimit:10;stroke-dasharray:none;stroke-opacity:1;visibility:visible"/><path d="m429.12 817.6-.16-.16h-.16v-.16h-.16l-.16-.16-.16-.16-.16-.16v-.16H428v-.16l-.16-.16v-.16l-.16-.16v-.32l-.16-.16v-.48l-.16-.16v-1.76l.16-.32v-.64l.16-.32v-.32l.16-.16.16-.32v-.32l.16-.32.16-.32.16-.32.16-.32.16-.16.16-.32.16-.32.16-.32.16-.16.16-.32.32-.16.16-.32.16-.16.32-.32.16-.16.16-.16.32-.32.16-.16.32-.16.16-.16.32-.16.16-.16.32-.16h.16l.16-.16h.32v-.16h.64l.16-.16h.96v.16h.48l.16.16h.32v.16M435.04 812.64l.32-1.92-1.12-.48-1.44 1.44-.32 1.92" style="fill:none;stroke:#00ff4a;stroke-width:.48;stroke-linecap:round;stroke-linejoin:round;stroke-miterlimit:10;stroke-dasharray:none;stroke-opacity:1;visibility:visible"/><path d="M437.92 810.08v-1.44l-.16-.32V808l-.16-.16v-.16l-.16-.16h-.16v-.16l-.16-.16-.16-.16h-.16l-.16-.16h-.32l-.16-.16h-.64l-.16.16h-.32l-.16.16h-.32l-.16.16h-.16l-.16.16-.32.16h-.16l-.16.16-.16.16-.16.16-.32.16-.16.32-.16.16-.16.16-.16.16-.16.32-.16.16-.16.16-.16.32-.16.16-.16.32-.16.16-.16.32-.16.32-.16.16v.32l-.16.16-.16.32v.32l-.16.16v.64l-.16.16v.8l-.16.16v.48l.16.16v.96l.16.16v.16l.16.16v.16l.16.16h.16v.16l.16.16h.16l.16.16.16.16h.32l.16.16h.64l.16-.16h.32l.16-.16h.32l.16-.16h.16l.16-.16.16-.16h.32l.16-.16.16-.16.16-.16.32-.16.16-.32.16-.16.16-.16.16-.16.16-.32.16-.16.16-.16.16-.32.16-.16.16-.32.16-.16.16-.32.16-.32.16-.16v-.32l.16-.16v-.32l.16-.32.16-.16v-.64l.16-.16v-.8" style="fill:none;stroke:#00ff4a;stroke-width:.48;stroke-linecap:round;stroke-linejoin:round;stroke-miterlimit:10;stroke-dasharray:none;stroke-opacity:1;visibility:visible"/><path d="m437.6 811.84.16-.32v-.32l.16-.16v-.32l.16-.32v-.48l.16-.32v-1.44l-.16-.32v-.32l-.16-.32v-.32l-.16-.16-.16-.16v-.16l-.16-.16-.16-.16v-.16l-.16-.16h-.16l-.16-.16h-.16l-.16-.16h-.64l-.32-.16-.16.16h-.64l-.16.16h-.16l-.32.16h-.16l-.16.16-.32.16h-.16l-.16.16-.32.16-.16.16-.16.16-.32.16-.16.32-.16.16-.16.16-.32.16-.16.32-.16.16-.16.32-.16.16-.32.32-.16.32-.16.16-.16.32-.16.32-.16.16v.32l-.16.32-.16.32-.16.16-.16.32v.32l-.16.32v.16l-.16.32v.64l-.16.16v2.56l.16.16v.16l.16.16v.32l.16.16v.16l.16.16h.16l.16.16v.16l.16.16h.16l.16.16h.16l.16.16h1.6l.16-.16h.16l.16-.16h.32l.16-.16.16-.16h.32l.16-.16.32-.16.16-.16.16-.16.32-.16.16-.16.16-.32.16-.16.32-.16.16-.32.16-.16M430.88 806.08v-.48l-.16-.16v-.32M426.24 812.96h.16l.16-.16h.16l.16-.16M436.48 797.28l-2.08-1.12M422.4 821.92l-1.92-1.12" style="fill:none;stroke:#00ff4a;stroke-width:.48;stroke-linecap:round;stroke-linejoin:round;stroke-miterlimit:10;stroke-dasharray:none;stroke-opacity:1;visibility:visible"/><path d="m436 805.28-.16-.16h-.16l-.16-.16h-1.44l-.16.16h-.32l-.16.16h-.16l-.32.16-.16.16h-.16l-.32.16-.16.16-.16.16-.32.16-.16.16-.16.16-.16.32-.32.16-.16.16-.16.32-.16.16-.32.16-.16.32-.16.16-.16.32-.16.32-.16.16-.16.32-.16.32-.16.16-.16.32v.32l-.16.32-.16.16-.16.32v.32l-.16.32v.16l-.16.32v.64l-.16.16v2.24l.16.16v.32l.16.16v.16l.16.16v.16l.16.16v.16l.16.16.16.16h.16l.16.16.16.16" style="fill:none;stroke:#00ff4a;stroke-width:.48;stroke-linecap:round;stroke-linejoin:round;stroke-miterlimit:10;stroke-dasharray:none;stroke-opacity:1;visibility:visible"/><path d="M432.16 805.6v-.16l-.16-.16h-.32l-.16-.16h-.96l-.32.16h-.16l-.16.16h-.16l-.16.16h-.16l-.16.16-.16.16-.16.16-.32.16-.16.16-.16.16-.16.16-.16.16-.16.16-.16.32-.16.16-.16.16-.16.32v.16l-.16.16-.16.32-.16.16v.32l-.16.16-.16.32v.16l-.16.32v.48l-.16.16v1.92l.16.16v.32l.16.16v.16h.16v.16l.16.16h.16v.16h.16l.16.16h.16" style="fill:none;stroke:#00ff4a;stroke-width:.48;stroke-linecap:round;stroke-linejoin:round;stroke-miterlimit:10;stroke-dasharray:none;stroke-opacity:1;visibility:visible"/><path d="m434.4 796.16-.16-.16h-.32l-.16-.16h-.16l-.32-.16h-.16l-.32-.16h-1.28l-.32.16h-.64l-.32.16h-.16l-.32.16h-.32l-.32.16-.32.16-.32.16-.32.16-.32.16-.16.16-.32.16-.32.16-.32.32-.32.16-.32.32-.32.16-.32.32-.32.16-.16.32-.32.32-.32.16-.32.32-.32.32-.16.32-.32.32-.32.32-.16.32-.32.32-.32.48-.16.32-.32.32-.16.32-.32.48-.16.32-.32.32-.16.48-.16.32-.32.48-.16.32-.16.48-.16.32-.16.48-.16.32-.16.48-.16.32-.16.48-.16.32-.16.48-.16.32v.48l-.16.32v.48l-.16.32v.32l-.16.48v.8l-.16.32v2.08l.16.32v.64l.16.32v.64l.16.32.16.16v.32l.16.32.16.16.16.32v.16l.16.32.16.16.16.16.32.16.16.16.16.16.16.16.16.16.32.16M533.6 804.8l-.16.16M537.6 812.48h.48l.16.16M542.24 821.44l1.92-1.28M527.68 797.12l1.92-1.12" style="fill:none;stroke:#00ff4a;stroke-width:.48;stroke-linecap:round;stroke-linejoin:round;stroke-miterlimit:10;stroke-dasharray:none;stroke-opacity:1;visibility:visible"/><path d="M438.24 809.44v-.32l.16-.48.16-.48.16-.32v-.32l.16-.48v-.32l.16-.48v-.32l.16-.48v-3.52l-.16-.32v-.64l-.16-.32v-.16l-.16-.32-.16-.32v-.16l-.16-.32-.16-.16-.16-.32-.16-.16-.16-.32-.16-.16-.16-.16-.16-.16-.16-.16-.16-.16-.32-.16-.16-.16h-.16l-.32-.16-.16-.16h-.32l-.16-.16h-.8l-.16-.16h-.32l-.32.16h-1.12l-.32.16h-.16l-.32.16-.32.16h-.32l-.32.16-.32.16-.32.16-.32.16-.32.16-.16.16-.32.32-.32.16-.32.16-.32.32-.32.16-.32.32-.32.16-.32.32-.16.32-.32.32-.32.32-.32.16-.32.32-.16.32-.32.32-.32.48-.16.32-.32.32-.16.32-.32.32-.32.48-.16.32-.16.32-.32.48-.16.32-.32.32-.16.48-.16.32-.16.48-.16.32-.32.48-.16.32-.16.48-.16.32v.48l-.16.32-.16.48-.16.32v.48l-.16.32-.16.48v.32l-.16.48v.8l-.16.32v2.88l.16.32v.64l.16.32v.16l.16.32v.32l.16.32.16.16.16.32v.16l.16.32.16.16.16.16.16.16.16.32.32.16.16.16.16.16h.16l.32.16.16.16.16.16h.32l.16.16h.48l.32.16h1.6l.32-.16h.32l.16-.16h.32l.32-.16h.32l.32-.16.32-.16.32-.16.16-.16.32-.16.32-.16.32-.16.32-.16.32-.32.32-.16.32-.32.32-.16.32-.32.16-.16.32-.32.32-.32.32-.32.32-.32.32-.16.16-.32.32-.32M537.44 813.6v-.16h.16l.16-.16.16-.16.16-.16v-.16l.16-.16v-.16l.16-.16v-.48l.16-.32v-.8l-.16-.16v-.8l-.16-.16v-.32l-.16-.16v-.32l-.16-.16-.16-.16v-.32l-.16-.16-.16-.32-.16-.16-.16-.16-.16-.32-.16-.16-.16-.16-.16-.16-.16-.32-.16-.16-.16-.16-.16-.16-.16-.16h-.16l-.16-.16-.32-.16-.16-.16h-.16l-.16-.16h-.16l-.16-.16h-1.6l-.16.16h-.16v.16" style="fill:none;stroke:#00ff4a;stroke-width:.48;stroke-linecap:round;stroke-linejoin:round;stroke-miterlimit:10;stroke-dasharray:none;stroke-opacity:1;visibility:visible"/><path d="m544.16 820.16.32-.16.16-.16.16-.16.16-.16.32-.16.16-.16.16-.16.16-.32.16-.16.16-.32.16-.16v-.32l.16-.16.16-.32.16-.32v-.32l.16-.32v-.64l.16-.32v-.96l.16-.32v-.8l-.16-.32v-1.12l-.16-.48v-.64l-.16-.48-.16-.32v-.48l-.16-.32-.16-.48v-.32l-.16-.48-.16-.32-.16-.48-.16-.32-.16-.48-.16-.32-.32-.48-.16-.32-.16-.48-.32-.32-.16-.32-.16-.48-.32-.32-.16-.32-.32-.48-.16-.32-.32-.32-.32-.32-.16-.32-.32-.32-.32-.48-.32-.32-.16-.16-.32-.32-.32-.32-.32-.32-.32-.32-.32-.16-.32-.32-.32-.32-.32-.16-.32-.16-.32-.32-.32-.16-.32-.16-.32-.32-.32-.16-.32-.16-.32-.16h-.32l-.16-.16-.32-.16-.32-.16h-.32l-.32-.16h-.32l-.32-.16h-2.24l-.32.16h-.32l-.16.16h-.32l-.16.16-.32.16-.16.16" style="fill:none;stroke:#00ff4a;stroke-width:.48;stroke-linecap:round;stroke-linejoin:round;stroke-miterlimit:10;stroke-dasharray:none;stroke-opacity:1;visibility:visible"/><path d="m528.96 815.36.32.32.16.32.32.48.32.32.32.32.16.32.32.32.32.16.32.32.32.32.32.32.32.16.32.32.16.16.32.32.32.16.32.32.32.16.32.16.32.16.32.16.32.16.32.16.32.16.32.16h.32l.32.16.32.16h.32l.32.16h2.56l.32-.16h.16l.32-.16h.16l.32-.16.16-.16.32-.16.16-.16.16-.16.32-.16.16-.16.16-.16.16-.16.16-.32.16-.16.16-.16.16-.32.16-.32.16-.16v-.32l.16-.32.16-.16v-.32l.16-.32v-.64l.16-.32v-3.36l-.16-.32v-.8l-.16-.32v-.48l-.16-.32-.16-.48-.16-.32v-.48l-.16-.32-.16-.48-.16-.32-.16-.48-.16-.32-.16-.48-.16-.32-.32-.48-.16-.32-.16-.32-.16-.48-.32-.32-.16-.48-.32-.32-.16-.32-.32-.32-.16-.48-.32-.32-.32-.32-.32-.32-.16-.32-.32-.32-.32-.32-.32-.32-.16-.32-.32-.32-.32-.16-.32-.32-.32-.32-.32-.16-.32-.32-.32-.16-.32-.32-.32-.16-.32-.16-.32-.32-.32-.16-.32-.16-.32-.16-.32-.16h-.32l-.32-.16-.32-.16-.32-.16h-.32l-.32-.16h-.48l-.32-.16h-1.44l-.32.16h-.48l-.32.16h-.16l-.32.16-.16.16-.32.16h-.16l-.16.16-.32.16-.16.16-.16.16-.16.32-.16.16-.32.16-.16.32v.16l-.16.32-.16.16-.16.32-.16.32v.16l-.16.32-.16.32v.64l-.16.32v.64l-.16.32v1.44l.16.32v1.28l.16.32v.32l.16.48v.32l.16.48v.32l.16.48.16.32.16.48.16.32.16.48.16.32.16.48.16.32.16.48M534.88 817.6l.8-.48M527.52 805.44l.8-.48M537.76 812l.8-.48M534.24 805.28l.32-.32" style="fill:none;stroke:#00ff4a;stroke-width:.48;stroke-linecap:round;stroke-linejoin:round;stroke-miterlimit:10;stroke-dasharray:none;stroke-opacity:1;visibility:visible"/><path d="m537.76 810.24-.48-1.76-.96-1.44-1.28-1.28M536.48 809.6l-1.12-1.92-1.44-1.44M537.44 813.12l.32-1.44v-1.44M535.04 805.76l-1.28-.64h-1.44M531.04 810.56v.16M532 812l-.96-1.28h.16" style="fill:none;stroke:#00ff4a;stroke-width:.48;stroke-linecap:round;stroke-linejoin:round;stroke-miterlimit:10;stroke-dasharray:none;stroke-opacity:1;visibility:visible"/><path d="M528.32 804.96h.16v-.16h.16l.16-.16h.48l.16-.16h1.28l.16.16h.48l.16.16h.16l.16.16h.32l.16.16.32.16.32.16.16.16.32.16.16.16.32.32.16.16.16.16.32.32.16.16.32.32.16.16.16.32.16.32.16.16.16.32.16.32.16.32.16.32.16.16.16.32.16.32v.32l.16.32.16.32v.32l.16.32v.8l.16.32v.64l-.16.16v.8l-.16.16v.48h-.16v.32l-.16.16v.16l-.16.16-.16.16v.16h-.16v.16h-.16l-.16.16-.16.16h-.16v.16M532 813.44l.16-1.6-1.44-1.76h-1.44v1.76l1.76-1.12M532 813.44l-1.44.16" style="fill:none;stroke:#00ff4a;stroke-width:.48;stroke-linecap:round;stroke-linejoin:round;stroke-miterlimit:10;stroke-dasharray:none;stroke-opacity:1;visibility:visible"/><path d="m529.28 811.84 1.28 1.76 1.44-.96" style="fill:none;stroke:#00ff4a;stroke-width:.48;stroke-linecap:round;stroke-linejoin:round;stroke-miterlimit:10;stroke-dasharray:none;stroke-opacity:1;visibility:visible"/><path d="M534.88 813.76v-.96l-.16-.32v-.16l-.16-.32v-.16l-.16-.32-.16-.32v-.16l-.16-.32-.16-.16-.16-.32-.16-.32-.16-.16-.16-.32-.16-.16-.16-.16-.16-.32-.16-.16-.16-.16-.16-.32-.16-.16-.32-.16-.16-.16-.16-.16-.16-.16-.32-.16-.16-.16h-.16l-.16-.16-.32-.16h-.16l-.16-.16h-.48l-.16-.16h-.96l-.16.16h-.32l-.16.16h-.16l-.16.16v.16l-.16.16h-.16l-.16.16v.16l-.16.16v.16l-.16.16v.48l-.16.16v1.6l.16.32v.48l.16.32v.16l.16.32v.32l.16.16.16.32.16.16v.32l.16.32.16.16.16.32.16.16.16.16.16.32.16.16.16.32.32.16.16.16.16.16.16.16.16.32.32.16h.16l.16.16.16.16.32.16.16.16h.16l.32.16h.16l.16.16h1.44l.16-.16h.32l.16-.16.16-.16h.16l.16-.16v-.16l.16-.16.16-.16v-.16l.16-.16v-.16l.16-.16v-1.6" style="fill:none;stroke:#00ff4a;stroke-width:.48;stroke-linecap:round;stroke-linejoin:round;stroke-miterlimit:10;stroke-dasharray:none;stroke-opacity:1;visibility:visible"/><path d="M536.32 813.92v-.8l-.16-.32v-.64L536 812v-.32l-.16-.32-.16-.32v-.16l-.16-.32-.16-.32-.16-.32-.16-.16-.16-.32-.16-.32-.16-.16-.16-.32-.16-.32-.16-.16-.16-.32-.32-.16-.16-.16-.16-.32-.16-.16-.32-.16-.16-.32-.32-.16-.16-.16-.16-.16-.32-.16-.16-.16h-.16l-.32-.16-.16-.16-.32-.16h-.16l-.16-.16h-.8l-.16-.16h-.64l-.16.16h-.32l-.16.16h-.16l-.16.16h-.16l-.16.16-.16.16h-.16l-.16.16v.16l-.16.16-.16.16v.32l-.16.16v.16l-.16.16v.8l-.16.16v.96l.16.32v.8l.16.32v.32l.16.32v.16l.16.32.16.32.16.32v.16l.16.32.16.32.16.16.16.32.16.32.16.16.16.32.16.32.16.16.32.32.16.16.16.16.32.32.16.16.16.16.32.16.16.32.16.16.32.16h.16l.16.16.32.16.16.16h.32l.16.16.16.16h.48l.32.16h1.12l.16-.16h.16l.16-.16h.16l.16-.16h.16l.16-.16.16-.16.16-.16.16-.16v-.16l.16-.16.16-.16v-.16l.16-.16v-.48l.16-.16v-1.44" style="fill:none;stroke:#00ff4a;stroke-width:.48;stroke-linecap:round;stroke-linejoin:round;stroke-miterlimit:10;stroke-dasharray:none;stroke-opacity:1;visibility:visible"/><path d="m535.68 817.12.16-.16.16-.16h.16v-.16l.16-.16.16-.16v-.16l.16-.16.16-.16v-.16l.16-.32v-.32l.16-.32v-1.76l-.16-.16v-.64l-.16-.32v-.16l-.16-.32v-.32l-.16-.32-.16-.16v-.32l-.16-.32-.16-.32-.16-.16-.16-.32-.16-.32-.16-.16-.16-.32-.16-.16-.16-.32-.16-.32-.16-.16-.32-.16-.16-.32-.16-.16-.16-.16-.32-.32-.16-.16-.16-.16-.32-.16-.16-.16-.32-.16-.16-.16-.16-.16h-.32l-.16-.16h-.32l-.16-.16h-.16l-.32-.16h-1.76l-.16.16h-.16l-.16.16" style="fill:none;stroke:#00ff4a;stroke-width:.48;stroke-linecap:round;stroke-linejoin:round;stroke-miterlimit:10;stroke-dasharray:none;stroke-opacity:1;visibility:visible"/><path d="M714.72 452h.16-.16M715.2 453.44l.16-.16h.16l-.64-1.28h-.32M721.12 467.04v-.16h.16l-1.12-2.72H720l-.16.16M722.08 468.96h.16-.16M723.84 473.92v-.16h.16l-.96-2.72h-.32" style="fill:none;fill-opacity:1;fill-rule:evenodd;stroke:#00ff4a;stroke-width:.16;visibility:visible"/><path d="m457.12 872.64-14.88 12.16" style="fill:none;stroke:#00ff4a;stroke-width:.16;stroke-linecap:round;stroke-linejoin:round;stroke-miterlimit:10;stroke-dasharray:none;stroke-opacity:1;visibility:visible"/><path d="m668.96 538.4 1.12-2.24M312.48 534.72l-1.12-2.24M312.64 529.44l7.84.64M668.48 541.92l-4.16 3.04M317.92 547.68l-2.72-4.32M313.6 535.2l1.6 8.16M384.32 763.04l.96-1.44M383.2 765.28l1.28-.48M249.6 244.64l.32-2.08M264.16 241.44l-.16 1.28M318.72 591.2l4.64-14.72M328 628l4.8-9.92M367.52 765.28l2.08 14.24M265.44 240.32l-14.4-1.44M265.44 240.32l-2.08-.96M316.8 547.36l-7.2 7.04M578.24 764.64l-1.6-4.32M592.96 778.72l15.52 4.8M264.16 241.44l-1.92-1.76M265.12 240l-2.88-.32M700.16 238.72l3.04-1.12M700.16 238.72l2.24 2.24M716.64 239.84v1.12M293.44 618.72l9.6 11.68M317.12 584l1.6 7.2M318.72 591.2l-1.6-7.2M716.64 239.84l-1.92-1.76M716.64 239.84l-1.92-1.76M280.32 461.6l-1.92-6.88M281.12 464.32l-13.92-9.12M280.32 457.92v1.12M684.8 622.4l2.72-3.84M280.32 457.92 278.4 456M280.32 457.92 278.4 456M687.52 618.56l-2.72 3.84M719.52 454.4l.96-.64M715.2 453.44l-8 3.84M721.28 456l.16 1.28M720.48 453.76l-.96.64M721.28 456l-1.76-1.6M542.08 878.72l-5.44 2.4M542.08 878.72l-5.44 2.4M494.88 878.88l-5.44 2.4M494.88 878.88l-5.44 2.4M447.68 879.04l-5.44 2.4M447.68 879.04l-5.44 2.4M402.4 872.8l-11.36 13.28M536.64 881.12l5.44-2.4M536.64 881.12l5.44-2.4M489.44 881.28l5.44-2.4M489.44 881.28l5.44-2.4M442.24 881.44l5.44-2.4M442.24 881.44l5.44-2.4M384.8 799.04l12.96-2.4M384.8 799.04l12.96-2.4M405.44 815.52l-7.84-17.6M444 768.8l-13.12 2.4M537.44 768.48l-12.96 2.4M537.44 768.48l-12.96 2.4M397.76 796.64l-12.96 2.4M397.76 796.64l-12.96 2.4M524.48 770.88l12.96-2.4M524.48 770.88l12.96-2.4M443.68 770.08l.32-1.28M572.8 798.24l12.96-2.4M572.8 798.24l12.96-2.4M564.8 777.92v-3.04M574.88 853.28l-9.28-12.16M528.32 804.96l-16 4.48M444 768.8l-.32 1.28M444 768.8l-18.24 1.12M574.88 853.28l12.96-2.4M590.24 847.2l-2.4 3.68M585.76 795.84l-12.96 2.4M585.76 795.84l-12.96 2.4M442.24 884.8l14.88-12.16M514.4 790.08l-6.24-13.92M587.84 850.88l2.4-3.68M587.84 850.88l-12.96 2.4M587.84 850.88l-12.96 2.4M449.12 784.96l6.24-8.48M435.52 815.52l-1.92-1.44M429.76 805.44l6.72-8.16M429.12 817.6l-6.72 4.32M535.68 817.12l6.56 4.32M528.32 804.96l-.64-7.84M435.52 815.52l-1.76 1.76M538.24 812.64l-9.28 2.72M538.24 812.64l-4.32-6.4M532 812l-2.72-.16M536.32 813.92l-1.44-.16M536.32 813.92l-1.44-.16M534.88 813.76l1.44.16M537.44 813.6l-1.12.32" style="fill:none;stroke:#00ff4a;stroke-width:.48;stroke-linecap:round;stroke-linejoin:round;stroke-miterlimit:10;stroke-dasharray:none;stroke-opacity:1;visibility:visible"/><path d="m707.2 457.28 8-3.84M721.44 459.68l-.32 7.36M726.88 460.48l-7.04 3.84M721.92 454.08l.16 14.88M721.92 454.08l.16 14.88M721.44 459.68l2.4 14.24M721.92 454.08l.8 16.96" style="fill:none;fill-opacity:1;fill-rule:evenodd;stroke:#00ff4a;stroke-width:.16;visibility:visible"/><path d="m647.04 582.72 16.64 7.68" style="fill:none;stroke:red;stroke-width:.48;stroke-linecap:round;stroke-linejoin:round;stroke-miterlimit:10;stroke-dasharray:none;stroke-opacity:1;visibility:visible" visibility="hidden"/><path d="m666.4 580.48-16.16-8.64M666.4 580.48l-13.6-7.52M585.76 795.84l3.2 14.72M707.2 457.28l1.92-4.32M533.92 806.24l2.56 3.36" style="fill:none;stroke:#00ff4a;stroke-width:.48;stroke-linecap:round;stroke-linejoin:round;stroke-miterlimit:10;stroke-dasharray:none;stroke-opacity:1;visibility:visible"/></svg>