<svg xmlns="http://www.w3.org/2000/svg" baseProfile="full" height="1122.667" preserveAspectRatio="xMinYMin meet" style="width:765px;height:943px" width="793.333" xml:space="preserve"><path d="m465.119 970.56.16.16.32.16.32.16.16.32.32.16.32.16.16.16.32.16.32.16.16.16h.32l.16.16.32.16h.16l.32.16h.16l.32.16h.48l.16.16h1.12l.16-.16h.32l.16-.16h.16l.16-.16h.16l.16-.16h.16l.16-.16v-.16l.16-.16.16-.16v-.16l.16-.16v-.16l.16-.16v-.16l.16-.32V968l-.16-.32v-.48l-.16-.32v-.32l-.16-.32-.16-.32v-.32l-.16-.32-.16-.32-.16-.32-.16-.32V964l-.16-.32-.16-.32-.16-.32-.32-.32-.16-.32-.16-.32-.16-.32-.16-.32-.32-.16-.16-.32-.16-.32-.32-.32-.16-.32-.32-.32-.16-.32-.32-.32-.16-.16-.32-.32-.16-.32-.32-.32-.16-.16-.32-.32-.32-.16-.16-.32-.32-.16-.16-.32-.32-.16-.32-.16-.16-.32-.32-.16-.32-.16-.16-.16-.32-.16-.32-.16-.16-.16-.32-.16-.16-.16-.32-.16h-.32l-.16-.16-.32-.16h-.48l-.16-.16h-.48l-.16-.16h-1.12l-.16.16h-.32l-.16.16h-.16l-.16.16h-.16l-.16.16-.16.16h-.16v.16l-.16.16-.16.16v.16l-.16.16v.16l-.16.32v.16l-.16.16v2.56l.16.16v.64l.16.32v.32l.16.32v.16l.16.32.16.32v.32l.16.32M464.479 960.16v.32" style="fill:none;stroke:red;stroke-width:.479999;stroke-linecap:round;stroke-linejoin:round;stroke-miterlimit:10;stroke-dasharray:none;stroke-opacity:1;visibility:visible"/><path d="m467.519 966.88.16-.16h.32l.16-.16v-.16h.16v-.32h.16v-1.28l-.16-.16v-.32l-.16-.16V964l-.16-.32v-.16l-.16-.16-.16-.16v-.16l-.16-.16-.16-.32-.16-.16v-.16l-.16-.16-.16-.16-.16-.16-.16-.16-.16-.16-.16-.16-.16-.16-.16-.16-.16-.16h-.16l-.16-.16-.16-.16h-.16l-.16-.16h-.16l-.16-.16h-.32l-.16-.16h-.32l-.16.16h-.32v.16h-.16v.16h-.16v.32h-.16M474.079 971.36l.16-.16.16-.16.16-.16.16-.16v-.16l.16-.16v-.16l.16-.16v-.16l.16-.32v-.8l.16-.32V968l-.16-.16v-1.12l-.16-.32v-.32l-.16-.32v-.32l-.16-.16v-.32l-.16-.32-.16-.32V964l-.16-.32-.16-.32-.16-.32-.16-.32-.16-.32-.16-.32-.16-.32-.16-.32-.16-.32-.16-.32-.32-.32-.16-.32-.16-.32-.32-.32-.16-.32-.16-.32-.32-.16-.16-.32-.32-.32-.16-.32-.32-.32-.16-.16-.32-.32-.16-.32-.32-.16-.32-.32-.16-.16-.32-.32-.16-.16-.32-.32-.32-.16-.16-.16-.32-.32-.32-.16-.16-.16-.32-.16-.32-.16-.16-.16-.32-.16-.16-.16-.32-.16h-.32l-.16-.16-.32-.16h-.16l-.32-.16h-.48l-.16-.16h-1.6l-.32.16h-.32l-.16.16h-.16v.16M458.879 954.4l1.76-1.28M472.479 972.48l1.6-1.12" style="fill:none;stroke:red;stroke-width:.479999;stroke-linecap:round;stroke-linejoin:round;stroke-miterlimit:10;stroke-dasharray:none;stroke-opacity:1;visibility:visible"/><path d="M468.159 965.44h.16l.16.16M464.319 1019.2h-.16l-.16.16h-.48l-.16.16h-.16l-.16.16-.16.16-.16.16h-.16l-.32.16-.16.16-.16.16-.16.16-.16.16-.16.16-.32.16-.16.16-.16.32-.16.16-.16.16-.16.16M464.479 960.48l-.96-.16M467.359 967.04l.48-.8v-.96M463.519 960.32h-.16l-.16.16h-.16v.32M467.039 965.92v-.64l-.16-.32v-.16l-.16-.16v-.32l-.16-.16-.16-.32v-.16l-.16-.16-.16-.32-.16-.16-.16-.16-.16-.32-.16-.16-.16-.16-.16-.16-.16-.16-.16-.16-.16-.16-.16-.16h-.16v-.16h-.16l-.16-.16h-.16l-.16-.16h-.64M467.839 965.28l-.48-1.92-1.28-1.76-1.6-1.12M462.239 1020.16l.48-.32" style="fill:none;stroke:red;stroke-width:.479999;stroke-linecap:round;stroke-linejoin:round;stroke-miterlimit:10;stroke-dasharray:none;stroke-opacity:1;visibility:visible"/><path d="m462.239 1020.16-.16.16-.16.16h-.16l-.16.16-.16.16-.16.16-.16.16-.16.16-.16.16-.16.16-.16.16-.16.32-.16.16-.16.16M466.719 969.76l.16-.16v-.16h.16v-.32l.16-.16v-1.6l-.16-.32v-.32l-.16-.32v-.16l-.16-.32v-.16l-.16-.16-.16-.32v-.16l-.16-.32-.16-.16-.16-.16-.16-.32-.16-.16-.16-.32-.16-.16-.16-.16-.16-.16-.16-.32-.16-.16-.16-.16-.16-.16-.16-.16-.16-.16-.32-.32h-.16l-.16-.16-.16-.16-.16-.16-.16-.16-.32-.16h-.16l-.16-.16h-.16l-.16-.16h-.16l-.16-.16h-1.44l-.16.16h-.16M466.079 964l-.8-1.28-1.12-.96" style="fill:none;stroke:red;stroke-width:.479999;stroke-linecap:round;stroke-linejoin:round;stroke-miterlimit:10;stroke-dasharray:none;stroke-opacity:1;visibility:visible"/><path d="M463.199 969.92h.32l.16.16h.16l.16.16h.16l.16.16h.48l.16.16h.48l.16-.16h.32l.16-.16.16-.16.16-.16v-.16l.16-.16v-.48l.16-.16v-.48l-.16-.32v-.8l-.16-.16v-.16l-.16-.32v-.16l-.16-.32v-.16l-.16-.16-.16-.32-.16-.16v-.32l-.16-.16-.16-.16-.16-.32-.16-.16-.16-.16-.16-.32-.16-.16-.16-.16-.16-.32-.16-.16-.16-.16-.16-.16-.32-.16-.16-.16-.16-.16-.16-.16-.16-.16-.16-.16-.32-.16h-.16l-.16-.16-.16-.16h-.16l-.16-.16h-.16l-.16-.16h-.48l-.16-.16h-.48l-.16.16h-.32l-.16.16h-.16v.16h-.16v.16l-.16.16v.16l-.16.16v1.6l.16.16v.16" style="fill:none;stroke:red;stroke-width:.479999;stroke-linecap:round;stroke-linejoin:round;stroke-miterlimit:10;stroke-dasharray:none;stroke-opacity:1;visibility:visible"/><path d="M465.439 968.16v-.64l-.16-.16v-.32l-.16-.16v-.16l-.16-.16v-.32l-.16-.16v-.16l-.16-.16-.16-.32-.16-.16v-.16l-.16-.32-.16-.16-.16-.16-.16-.16-.16-.16-.16-.16-.16-.16-.16-.16-.16-.16-.16-.16-.16-.16-.16-.16-.16-.16-.16-.16-.16-.16h-.16l-.32-.16h-.16l-.16-.16h-.16l-.16-.16h-1.28v.16h-.16l-.16.16v.16h-.16v.32l-.16.16v1.28l.16.16v.32l.16.16v.32l.16.16v.16l.16.32.16.16v.16l.16.16.16.32.16.16v.16l.16.16.16.32.16.16.16.16.16.16.16.16.16.16.16.16.16.16.16.16.16.16.16.16.16.16h.16l.16.16.32.16h.16l.16.16h.16l.16.16h.32v.16h.8v-.16h.32v-.16h.16v-.16h.16v-.16h.16v-.64l.16-.16v-.32l-.16-.16" style="fill:none;stroke:red;stroke-width:.479999;stroke-linecap:round;stroke-linejoin:round;stroke-miterlimit:10;stroke-dasharray:none;stroke-opacity:1;visibility:visible"/><path d="m462.239 967.2-1.12-1.44 1.12-.8M463.199 967.36l-.96-.16 1.12-.8M464.639 960.48l.16-.16M467.839 965.6l.64-.48M459.039 964.48l-.16-.64M462.719 969.44l.48.48M459.359 961.12l.48-.48M459.839 960.64h.16l.16-.16h.32v-.16h1.28l.16.16h.32l.32.16h.16l.16.16.16.16h.16l.32.16.16.16.16.16.16.16.16.16.16.16.32.16.16.16.16.16.16.16.16.32.16.16.16.16.16.16.16.32.16.16.16.16v.32l.16.16.16.16.16.32v.16l.16.32.16.16v.16l.16.32v.16l.16.16v.64l.16.32v1.12h-.16v.48l-.16.16v.16h-.16v.16l-.16.16h-.16v.16l-.64.48" style="fill:none;stroke:red;stroke-width:.479999;stroke-linecap:round;stroke-linejoin:round;stroke-miterlimit:10;stroke-dasharray:none;stroke-opacity:1;visibility:visible"/><path d="M461.119 965.76v-1.12l1.12.32 1.12 1.28-.16 1.12M467.199 1042.72v-.16l.16-.32v-.32l.16-.32v-1.28l-.16-.16v-.48l-.16-.16-.16-.16v-.16l-.16-.32-.16-.16-.16-.16v-.16l-.16-.16-.16-.16-.32-.16-.16-.16-.16-.16-.16-.16-.32-.16-.16-.16-.16-.16-.32-.16h-.16l-.32-.16-.32-.16h-.16l-.32-.16h-.32l-.16-.16h-.64l-.32-.16h-2.24l-.32.16h-.48l-.32.16h-.32l-.16.16h-.32l-.16.16-.32.16-.32.16h-.16l-.16.16-.32.16-.16.16-.16.16-.32.16-.16.16-.16.16-.16.16-.16.16-.16.16-.16.32v.16l-.16.16-.16.16v.32l-.16.16v.16l-.16.32v1.44l.16.16v.48l.16.16v.16M467.519 1042.24v-.8M453.919 1041.6v.64" style="fill:none;stroke:red;stroke-width:.479999;stroke-linecap:round;stroke-linejoin:round;stroke-miterlimit:10;stroke-dasharray:none;stroke-opacity:1;visibility:visible"/><path d="m463.199 1041.28-.16-.16v-.16l-.16-.16v-.16h-.16v-.16l-.16-.16h-.16v-.16h-.16l-.16-.16h-.16l-.16-.16h-.48l-.16-.16h-.8l-.16.16h-.32l-.16.16h-.32l-.16.16h-.16l-.16.16-.16.16-.16.16-.16.16v.32h-.16v.16M397.439 955.68l.48-.32v.64M397.919 956l-.48.32M453.919 1041.6v-.48M467.519 1041.44v-.48" style="fill:none;stroke:red;stroke-width:.479999;stroke-linecap:round;stroke-linejoin:round;stroke-miterlimit:10;stroke-dasharray:none;stroke-opacity:1;visibility:visible"/><path d="M463.199 1040.96v-.16l-.16-.16v-.16l-.16-.16v-.16l-.16-.16-.16-.16-.16-.16-.16-.16h-.32l-.16-.16h-.32l-.16-.16h-1.12l-.16.16h-.48l-.16.16h-.16v.16h-.16l-.16.16-.16.16-.16.16v.16h-.16v.32l-.16.16v.64h.16v.32l.16.16.16.16v.16h.16l.16.16h.16l.16.16h.16l.16.16h.16l.32.16h1.12l.16-.16h.32l.16-.16h.32l.16-.16v-.16h.16l.16-.16.16-.16v-.16l.16-.16v-.16l.16-.16v-.32M397.439 952.16l.48-.32v.64M397.919 952.48l-.48.16M397.919 955.36l-.48.32v.64M397.439 948.64l.48-.32v.64M397.919 948.96l-.48.16" style="fill:none;stroke:red;stroke-width:.479999;stroke-linecap:round;stroke-linejoin:round;stroke-miterlimit:10;stroke-dasharray:none;stroke-opacity:1;visibility:visible"/><path d="m397.919 951.84-.48.32v.48M397.439 944.96l.48-.16v.64M397.919 945.44l-.48.16M397.919 948.32h-.16l-.32.32v.48M397.279 941.44l.64-.16v.64M397.919 941.92l-.64.16" style="fill:none;stroke:red;stroke-width:.479999;stroke-linecap:round;stroke-linejoin:round;stroke-miterlimit:10;stroke-dasharray:none;stroke-opacity:1;visibility:visible"/><path d="m397.919 944.8-.16-.16-.32.32v.64M485.119 982.88h.16v-.64h-.16v.64M484.799 981.92l.32.32M485.119 982.88l-.32-.32M397.919 941.28l-.16-.16-.48.32v.64M485.119 979.36h.16v-.64h-.16v.64M484.799 978.4l.32.32M485.119 979.36l-.32-.32" style="fill:none;stroke:red;stroke-width:.479999;stroke-linecap:round;stroke-linejoin:round;stroke-miterlimit:10;stroke-dasharray:none;stroke-opacity:1;visibility:visible"/><path d="m485.279 982.24-.48-.32v.64M485.119 975.84h.16v-.64h-.16v.64M484.799 974.88l.32.32M485.119 975.84l-.32-.48M485.279 978.72l-.48-.32v.64M485.279 972.16l-.16.16v-.64h.16v.48M484.799 971.36l.32.32M485.119 972.32l-.32-.48" style="fill:none;stroke:red;stroke-width:.479999;stroke-linecap:round;stroke-linejoin:round;stroke-miterlimit:10;stroke-dasharray:none;stroke-opacity:1;visibility:visible"/><path d="m485.279 975.2-.48-.32v.48M485.279 968.64l-.16.16v-.64h.16v.48M484.799 967.68l.32.48M485.119 968.8l-.32-.48M485.279 971.68l-.48-.32v.48M449.279 955.52l.16-.16M449.759 956.32l-.48-.32v-.48l.48.16" style="fill:none;stroke:red;stroke-width:.479999;stroke-linecap:round;stroke-linejoin:round;stroke-miterlimit:10;stroke-dasharray:none;stroke-opacity:1;visibility:visible"/><path d="m485.279 968.16-.48-.48v.64M449.279 952l.16-.16M449.759 952.8l-.48-.32V952l.48.16M449.759 956.32v-.64l-.32-.32M449.279 948.32h.16M449.759 949.28l-.48-.32v-.64l.48.32" style="fill:none;stroke:red;stroke-width:.479999;stroke-linecap:round;stroke-linejoin:round;stroke-miterlimit:10;stroke-dasharray:none;stroke-opacity:1;visibility:visible"/><path d="M449.759 952.8v-.64l-.32-.32M449.279 944.8h.16M449.759 945.6l-.48-.16v-.64l.48.32M449.759 949.28v-.64l-.48-.32M449.279 941.28h.16M449.759 942.08l-.48-.16v-.64l.48.32" style="fill:none;stroke:red;stroke-width:.479999;stroke-linecap:round;stroke-linejoin:round;stroke-miterlimit:10;stroke-dasharray:none;stroke-opacity:1;visibility:visible"/><path d="M449.759 945.6v-.48l-.48-.32M430.239 1040v-.96l-.16-.16v-.32l-.16-.16v-.16l-.16-.32-.16-.16-.16-.16v-.16l-.16-.32-.16-.16-.16-.16-.32-.16-.16-.16-.16-.16-.16-.16-.32-.16-.16-.16-.32-.16-.16-.16-.32-.16h-.16l-.32-.16-.32-.16h-.16l-.32-.16h-.32l-.32-.16h-.48l-.32-.16h-2.4l-.32.16h-.64l-.32.16h-.16l-.32.16h-.32l-.16.16-.32.16h-.32l-.16.16-.32.16-.16.16-.32.16-.16.16-.16.16-.32.16-.16.16-.16.16-.16.16-.16.16-.16.32-.16.16-.16.16-.16.16v.32l-.16.16v.16l-.16.32v.48l-.16.16v1.12l.16.16v.48l.16.16v.32l.16.16.16.16.16.32v.16l.16.16.16.16.16.32.16.16.32.16.16.16.16.16.16.16.32.16.16.16.32.16h.16l.32.16.16.16.32.16h.32l.32.16h.16l.32.16h.64l.32.16h2.72l.16-.16h.64l.32-.16h.32l.16-.16h.32l.32-.16.16-.16.32-.16h.16l.32-.16.16-.16.32-.16.16-.16.16-.16.32-.16.16-.16.16-.16.16-.32.16-.16.16-.16.16-.16.16-.32v-.16l.16-.16v-.32l.16-.16v-.16l.16-.32v-.8M467.999 1040v-.96l-.16-.16v-.16l-.16-.32v-.16l-.16-.16-.16-.32v-.16l-.16-.16-.16-.16-.16-.32-.16-.16-.16-.16-.32-.16-.16-.16-.16-.16-.16-.16-.32-.16-.16-.16-.32-.16-.16-.16h-.32l-.32-.16-.16-.16h-.32l-.32-.16h-.32l-.16-.16h-.64l-.32-.16h-2.4l-.32.16h-.64l-.16.16h-.32l-.32.16h-.32l-.16.16-.32.16-.32.16h-.16l-.32.16-.16.16-.32.16-.16.16-.16.16-.16.16-.32.16-.16.16-.16.16-.16.32-.16.16-.16.16-.16.16v.32l-.16.16-.16.16v.32l-.16.16v.64l-.16.32v.64l.16.16v.48l.16.16v.32l.16.16v.16l.16.32.16.16.16.16v.16l.16.32.16.16.32.16.16.16.16.16.16.16.32.16.16.16.16.16.32.16.16.16h.32l.32.16.16.16h.32l.32.16h.32l.16.16h.32l.32.16h1.12l.32.16h.32l.32-.16h1.28l.16-.16h.32l.32-.16h.32l.32-.16h.16l.32-.16.32-.16h.16l.32-.16.16-.16.32-.16.16-.16.16-.16.32-.16.16-.16.16-.16.16-.16.16-.16.16-.32.16-.16.16-.16.16-.16v-.32l.16-.16.16-.16v-.32l.16-.16V1040M501.599 1033.44v1.28M501.599 1033.44l-157.28-.16v2.08M346.24 1040.32h-.16M351.52 1072l2.24-.16 2.24-.16 2.24-.16 2.24-.16 2.24-.16h2.24l2.08-.16 2.24-.16h2.24l2.24-.16 2.24-.16h4.479l2.24-.16h6.72l1.12-.16h14.56l17.92.16h38.08l2.24.16h4.48l2.08.16h2.24l2.24.16 2.24.16h2.24l2.24.16 2.24.16 2.24.16 2.24.16 2.24.16 2.08.16 2.24.16M347.04 1046.88l151.679.16M449.759 942.08v-.48l-.48-.32" style="fill:none;stroke:red;stroke-width:.479999;stroke-linecap:round;stroke-linejoin:round;stroke-miterlimit:10;stroke-dasharray:none;stroke-opacity:1;visibility:visible"/><path d="M430.239 1040.8v-.32l-.16-.16v-.32l-.16-.16v-.16l-.16-.32-.16-.16-.16-.16-.16-.16-.16-.32-.16-.16-.16-.16-.16-.16-.16-.16-.16-.16-.32-.16-.16-.16-.16-.16-.32-.16-.16-.16h-.32l-.32-.16-.16-.16h-.32l-.32-.16-.16-.16h-.64l-.32-.16h-.48l-.32-.16h-1.6l-.32.16h-.8l-.32.16h-.32l-.16.16h-.32l-.32.16h-.32l-.16.16-.32.16-.16.16-.32.16h-.16l-.32.16-.16.16-.16.16-.32.16-.16.16-.16.32-.16.16-.16.16-.16.16-.16.16-.16.32-.16.16v.16l-.16.32v.16l-.16.16v.48M456.799 1036.96l-.32.16h-.16l-.32.16-.16.16-.16.16-.32.16-.16.16-.16.16-.16.16-.16.16-.16.16-.16.16-.16.32-.16.16-.16.16v.16l-.16.32-.16.16v.16l-.16.32v.32M467.999 1040.8v-.32l-.16-.16v-.16l-.16-.32v-.16l-.16-.16-.16-.16v-.32l-.16-.16-.16-.16-.16-.16-.16-.16-.16-.16-.16-.16-.32-.16-.16-.16-.16-.16-.16-.16-.32-.16-.16-.16-.32-.16h-.16M392.479 1039.84v-.64l-.16-.16v-.48l-.16-.16-.16-.32v-.16l-.16-.16-.16-.16-.16-.32-.16-.16-.16-.16-.16-.16-.16-.16-.16-.16-.16-.16-.16-.32h-.32l-.16-.16-.32-.16-.16-.16-.32-.16-.16-.16h-.32l-.32-.16-.16-.16h-.32l-.32-.16h-.64l-.16-.16h-3.04l-.32.16h-.64l-.32.16h-.16l-.32.16-.32.16h-.16l-.32.16-.16.16-.32.16-.16.16-.32.16-.16.16-.32.16-.16.16-.16.16-.16.16-.16.16-.16.16-.16.16-.16.32-.16.16-.16.16v.16l-.16.32-.16.16v.48l-.16.16v1.6l.16.32v.16l.16.16v.32l.16.16.16.16v.32l.16.16.16.16.16.16.16.16.16.32.16.16.32.16.16.16.16.16.32.16.16.16h.32l.16.16.32.16.16.16h.32l.32.16.16.16h.32l.32.16h.64l.16.16h2.72l.32-.16h.32l.32-.16h.48l.32-.16.32-.16h.32l.16-.16.32-.16.16-.16h.32l.16-.16.32-.16.16-.16.16-.16.32-.16.16-.32.16-.16.16-.16.16-.16.16-.16.16-.32v-.16l.16-.16.16-.16v-.32l.16-.16v-.32l.16-.16v-.96" style="fill:none;stroke:red;stroke-width:.479999;stroke-linecap:round;stroke-linejoin:round;stroke-miterlimit:10;stroke-dasharray:none;stroke-opacity:1;visibility:visible"/><path d="M425.919 1041.44v-.48l-.16-.16v-.16l-.16-.16v-.16h-.16l-.16-.16v-.16h-.16l-.16-.16-.16-.16h-.16l-.16-.16h-.32l-.16-.16h-.8l-.16-.16h-.16l-.32.16h-.64l-.32.16h-.16l-.16.16h-.16l-.16.16h-.16v.16l-.16.16h-.16l-.16.16v.16l-.16.16-.16.16v.48l-.16.16v.32h.16v.48l.16.16v.16l.16.16h.16v.16l.16.16h.16l.16.16.16.16h.16l.16.16h.32l.16.16h.48l.32.16h.48l.16-.16h.64l.16-.16h.16l.16-.16h.16l.16-.16h.16l.16-.16h.16v-.16l.16-.16.16-.16v-.16h.16v-.16l.16-.16v-.64M392.479 1040.64l-.16-.16v-.48l-.16-.16-.16-.16v-.32l-.16-.16-.16-.16-.16-.32-.16-.16-.16-.16-.16-.16-.16-.16-.16-.16-.16-.16-.32-.16-.16-.16-.32-.16-.16-.16-.32-.16-.16-.16h-.32l-.16-.16-.32-.16h-.32l-.32-.16h-.16l-.32-.16h-.64l-.32-.16h-2.08l-.32.16h-.48l-.32.16h-.64l-.16.16-.32.16h-.32l-.16.16-.32.16h-.32l-.16.16-.32.16-.16.16-.16.16-.32.16-.16.16-.16.16-.16.16-.16.32-.16.16-.16.16-.16.16-.16.16-.16.32v.16l-.16.16v.32l-.16.16v.16l-.16.32M344.8 1013.44l.16.16v.48l.16.16v.16h.16l.16.16v.16l.16.16h.16l.16.16.16.16h.16l.16.16h.32l.16.16h2.08l.16-.16h.16l.16-.16h.16l.16-.16h.16l.16-.16.16-.16h.16v-.16l.16-.16v-.16h.16v-.16l.16-.16v-1.12l-.16-.16v-.16l-.16-.16v-.16h-.16l-.16-.16v-.16h-.16l-.16-.16-.16-.16h-.16l-.16-.16h-.32l-.16-.16h-.64l-.16-.16h-.64l-.16.16h-.48l-.16.16h-.48l-.16.16-.16.16h-.16v.16h-.16l-.16.16-.16.16v.16h-.16v.16l-.16.16v.48l-.16.16v.16M345.12 957.44l.16.16v.48h.16v.32l.16.16.16.16.16.16.16.16h.16l.16.16h.16l.16.16h.16l.16.16h.32l.16.16h1.28l.16-.16h.48l.16-.16h.16l.16-.16h.16l.16-.16.16-.16h.16l.16-.16v-.16h.16v-.16l.16-.16v-.16l.16-.16v-1.12l-.16-.16v-.16h-.16v-.16l-.16-.16-.16-.16-.16-.16-.16-.16h-.16l-.16-.16h-.16l-.16-.16h-.32l-.16-.16h-1.76l-.16.16h-.32l-.32.16h-.16l-.16.16v.16h-.16l-.16.16-.16.16h-.16v.16l-.16.16v.16l-.16.16v.48l-.16.16M344.32 1035.36v-2.08h12.16M344.96 924h-6.08l-.48 94.24M346.4 1048.16l5.12 23.84M346.24 1040.32v.48M499.679 1040.64v-.16M494.399 1072.16l4.96-23.68M499.679 1040.48h.16" style="fill:none;stroke:red;stroke-width:.479999;stroke-linecap:round;stroke-linejoin:round;stroke-miterlimit:10;stroke-dasharray:none;stroke-opacity:1;visibility:visible"/><path d="M388.159 1041.44v-.48h-.16v-.32l-.16-.16-.16-.16-.16-.16-.16-.16v-.16h-.16l-.16-.16h-.16l-.16-.16h-.16l-.16-.16h-.64l-.16-.16h-.96l-.16.16h-.48l-.16.16h-.32l-.16.16h-.16l-.16.16-.16.16-.16.16-.16.16v.16h-.16v.16l-.16.16v.16l-.16.16v.64l.16.16v.32l.16.16v.16h.16v.16l.16.16.16.16h.16v.16h.16l.16.16h.16l.16.16h.32l.16.16h1.92l.16-.16h.32l.16-.16h.16l.16-.16h.16l.16-.16.16-.16.16-.16.16-.16v-.16l.16-.16v-.16l.16-.16v-.48M355.52 956.64v-.32l-.16-.16V956l-.16-.32v-.16l-.16-.16-.16-.32-.16-.16v-.16l-.16-.16-.16-.16-.16-.32-.32-.16-.16-.16-.16-.16-.16-.16-.32-.16-.16-.16-.32-.16h-.16l-.32-.16-.16-.16-.32-.16h-.32l-.16-.16h-.32l-.32-.16h-.64l-.16-.16h-3.04l-.32.16h-.64l-.16.16h-.32l-.32.16-.16.16h-.32l-.32.16-.16.16-.32.16-.16.16-.32.16-.16.16-.16.16-.32.16-.16.16-.16.16-.16.16-.16.16-.16.16-.16.32-.16.16v.16l-.16.32-.16.16v.16l-.16.32v.32M355.2 1012.48v-.16l-.16-.16v-.32l-.16-.16v-.16l-.16-.32-.16-.16-.16-.16-.16-.16v-.32l-.32-.16-.16-.16-.16-.16-.16-.16-.16-.16-.32-.16-.16-.16-.16-.16-.32-.16-.16-.16h-.32l-.32-.16-.16-.16-.32-.16h-.32l-.16-.16h-.32l-.32-.16h-.8l-.32-.16h-1.92l-.16.16h-.64l-.32.16h-.32l-.16.16h-.32l-.32.16h-.32l-.16.16-.32.16-.16.16h-.32l-.16.16-.32.16-.16.16-.16.16-.32.16-.16.16-.16.16-.16.32-.16.16-.16.16-.16.16-.16.32v.16l-.16.16-.16.16v.32l-.16.16v.48" style="fill:none;stroke:red;stroke-width:.479999;stroke-linecap:round;stroke-linejoin:round;stroke-miterlimit:10;stroke-dasharray:none;stroke-opacity:1;visibility:visible"/><path d="M355.52 955.84v-.96l-.16-.16v-.16l-.16-.32v-.16l-.16-.16-.16-.32v-.16l-.16-.16-.16-.16-.16-.32-.16-.16-.16-.16-.32-.16-.16-.16-.16-.16-.32-.16-.16-.16-.16-.16-.32-.16h-.32l-.16-.16-.32-.16h-.16l-.32-.16-.32-.16h-.32l-.16-.16h-.96l-.32-.16h-1.76l-.32.16h-.96l-.16.16h-.32l-.32.16-.32.16h-.16l-.32.16-.32.16H344l-.32.16-.16.16-.32.16-.16.16-.16.16-.32.16-.16.16-.16.16-.16.16-.16.32-.16.16-.16.16-.16.16v.32l-.16.16-.16.16v.32l-.16.16v.48l-.16.16v.96l.16.16v.48l.16.16v.32l.16.16v.16l.16.32.16.16v.16l.16.16.16.32.16.16.32.16.16.16.16.16.16.16.32.16.16.16.16.16.32.16.16.16h.32l.32.16.16.16h.32l.32.16.16.16h.64l.32.16h.8l.32.16h.96l.32-.16h.96l.16-.16h.64l.32-.16.16-.16h.32l.32-.16.16-.16h.32l.32-.16.16-.16.32-.16.16-.16.16-.16.32-.16.16-.16.16-.16.16-.16.16-.16.16-.32.16-.16.16-.16.16-.16v-.32l.16-.16.16-.16v-.48l.16-.16v-.96M393.439 928.48v-.32l-.16-.32v-.16l-.16-.16-.16-.32v-.16l-.16-.16-.16-.32-.16-.16-.16-.16-.16-.16-.16-.16-.32-.16-.16-.16-.16-.16-.32-.16-.16-.16-.16-.16-.32-.16-.32-.16h-.16l-.32-.16-.16-.16h-.32l-.32-.16h-.32l-.32-.16h-.48l-.32-.16h-2.08l-.32.16h-.64l-.32.16h-.48l-.32.16-.32.16h-.16l-.32.16-.16.16h-.32l-.32.16-.16.16-.16.16-.32.16-.16.16-.16.16-.32.16-.16.16-.16.32-.16.16-.16.16-.16.16v.16l-.16.32-.16.16v.16l-.16.32v.16l-.16.16v.32M400.159 957.12h46.88M502.079 934.56l-157.12-.16M501.119 924.16v-2.72M500.639 920.96h-154.56M356.96 1000.48v-11.36M356.48 1033.28l.48-98.88.16 2.72M356.96 934.4h-12V924M355.2 1011.84v-.96l-.16-.16v-.32l-.16-.16v-.16l-.16-.32-.16-.16v-.16l-.16-.32-.16-.16-.16-.16-.16-.16-.32-.16-.16-.16-.16-.16-.16-.16-.32-.16-.16-.16-.32-.16-.16-.16-.32-.16-.16-.16h-.32l-.32-.16h-.16l-.32-.16h-.32l-.32-.16h-.16l-.32-.16h-3.04l-.32.16h-.32l-.32.16h-.16l-.32.16h-.32l-.16.16h-.32l-.32.16-.16.16-.32.16-.16.16-.32.16-.16.16-.16.16-.32.16-.16.16-.16.16-.16.16-.16.16-.16.16-.16.32-.16.16v.16l-.16.32-.16.16v.16l-.16.32v.32l-.16.32v1.12l.16.16v.48l.16.16v.32l.16.16.16.16.16.32v.16l.16.16.16.16.16.16.16.32.32.16.16.16.16.16.16.16.32.16.16.16.32.16h.16l.32.16.32.16h.16l.32.16.32.16h.16l.32.16h.64l.32.16h2.72l.16-.16h.64l.32-.16h.32l.16-.16.32-.16h.32l.16-.16.32-.16h.32l.16-.16.16-.16.32-.16.16-.16.32-.16.16-.16.16-.16.16-.32.16-.16.16-.16.16-.16.16-.16.16-.32v-.16l.16-.16.16-.32v-.32l.16-.32v-.8M468.319 928.64v-.32l-.16-.16V928l-.16-.32v-.16l-.16-.16-.16-.32-.16-.16-.16-.16v-.16l-.16-.32-.32-.16-.16-.16-.16-.16-.16-.16-.32-.16-.16-.16-.16-.16-.32-.16h-.16l-.32-.16-.16-.16-.32-.16h-.32l-.32-.16h-.16l-.32-.16h-.32l-.32-.16h-1.12l-.32-.16h-.64l-.32.16h-.8l-.32.16h-.64l-.16.16h-.32l-.32.16-.32.16h-.16l-.32.16-.16.16-.32.16-.16.16-.32.16h-.16l-.16.16-.32.32-.16.16-.16.16-.16.16-.16.16-.16.16-.16.32-.16.16v.16l-.16.16-.16.32v.16l-.16.16v.48" style="fill:none;stroke:red;stroke-width:.479999;stroke-linecap:round;stroke-linejoin:round;stroke-miterlimit:10;stroke-dasharray:none;stroke-opacity:1;visibility:visible"/><path d="M393.599 927.68v-.16l-.16-.16v-.8l-.16-.16v-.16l-.16-.32-.16-.16v-.16l-.16-.16-.16-.32-.16-.16-.16-.16-.16-.16-.16-.16-.16-.16-.32-.32-.16-.16h-.16l-.32-.16-.16-.16-.32-.16-.16-.16-.32-.16h-.32l-.16-.16-.32-.16h-.32l-.16-.16h-.64l-.32-.16h-3.04l-.32.16h-.48l-.32.16h-.32l-.16.16-.32.16h-.32l-.16.16-.32.16-.16.16-.32.16-.16.16-.32.16-.16.16-.16.16-.32.16-.16.16-.16.16-.16.16-.16.16-.16.32v.16l-.16.16-.16.16v.32l-.16.16v.32l-.16.16v2.08l.16.16v.16l.16.32v.16l.16.16.16.16.16.32.16.16.16.16.16.16.16.32.16.16.16.16.16.16.32.16.16.16.32.16h.16l.32.16.16.16.32.16h.32l.16.16.32.16h.64l.16.16h.32l.32.16h2.72l.32-.16h.32l.16-.16h.64l.32-.16.16-.16h.32l.32-.16.16-.16.32-.16h.16l.32-.16.16-.16.32-.16.16-.16.16-.16.16-.32.16-.16.16-.16.16-.16.16-.16.16-.32.16-.16.16-.16v-.16l.16-.32v-.16l.16-.32v-.32l.16-.32v-.48" style="fill:none;stroke:red;stroke-width:.479999;stroke-linecap:round;stroke-linejoin:round;stroke-miterlimit:10;stroke-dasharray:none;stroke-opacity:1;visibility:visible"/><path d="M383.199 929.28v.64l.16.16v.16l.16.16.16.16.16.16v.16h.16l.16.16h.16l.16.16h.16l.16.16h.16l.16.16h1.92l.16-.16h.48l.16-.16h.16l.16-.16.16-.16.16-.16h.16l.16-.16v-.16l.16-.16v-.16h.16v-.48l.16-.16v-.16l-.16-.16v-.48l-.16-.16v-.16l-.16-.16h-.16V928l-.16-.16-.16-.16h-.16l-.16-.16h-.16l-.16-.16h-.16l-.16-.16h-.48l-.16-.16h-1.12l-.16.16h-.32l-.16.16h-.32l-.16.16h-.16l-.16.16-.16.16h-.16l-.16.16v.16l-.16.16-.16.16v.16l-.16.16v.48M468.319 927.84v-.96l-.16-.16v-.16l-.16-.32v-.16l-.16-.16-.16-.32v-.16l-.16-.16-.16-.32-.16-.16-.16-.16-.16-.16-.32-.16-.16-.16-.16-.16-.32-.16-.16-.16-.32-.16-.16-.16-.32-.16h-.16l-.32-.16-.32-.16h-.16l-.32-.16h-.32l-.32-.16h-.48l-.32-.16h-2.4l-.32.16h-.64l-.16.16h-.32l-.32.16h-.32l-.16.16-.32.16-.32.16h-.16l-.32.16-.16.16-.32.16-.16.16-.16.16-.32.16-.16.16-.16.16-.16.16-.16.32-.16.16-.16.16-.16.16v.32l-.16.16-.16.16v.32l-.16.16v.48l-.16.16v1.12l.16.32v.32l.16.32v.16l.16.16.16.32.16.16v.16l.16.16.16.32.16.16.16.16.32.16.16.16.16.16.16.16.32.16.16.16.32.16.16.16h.32l.32.16.16.16h.32l.32.16h.16l.32.16h.32l.32.16h3.2l.32-.16h.32l.32-.16h.32l.16-.16h.32l.32-.16.16-.16h.32l.32-.16.16-.16.16-.16.32-.16.16-.16.32-.16.16-.16.16-.16.16-.16.16-.16.16-.32.16-.16.16-.16.16-.16v-.32l.16-.16.16-.16v-.48l.16-.32v-.8M495.679 957.6v.48l.16.16v.32l.16.16h.16v.16l.16.16h.16l.16.16.16.16h.16l.16.16h.16l.16.16h.48l.32.16h.64l.32-.16h.48l.16-.16h.32l.16-.16h.16l.16-.16.16-.16h.16l.16-.16v-.16l.16-.16h.16v-.32l.16-.16v-1.12l-.16-.16v-.16l-.16-.16-.16-.16v-.16l-.16-.16h-.16l-.16-.16h-.16l-.16-.16h-.16l-.16-.16h-.16l-.16-.16h-2.08l-.16.16h-.16l-.16.16h-.16l-.16.16h-.16l-.16.16-.16.16h-.16v.16l-.16.16-.16.16-.16.16v.8M495.199 1013.44l.16.16v.64l.16.16.16.16.16.16v.16h.16l.16.16.16.16h.16l.16.16h.16l.16.16h.32l.16.16h1.76l.16-.16h.32l.16-.16h.16l.16-.16h.16l.16-.16.16-.16h.16v-.16l.16-.16v-.16l.16-.16.16-.16v-1.12l-.16-.16v-.16l-.16-.16v-.16l-.16-.16h-.16v-.16l-.16-.16h-.16l-.16-.16h-.16l-.16-.16h-.16l-.16-.16h-.64l-.16-.16h-.96l-.16.16h-.48l-.32.16h-.16l-.16.16h-.16v.16l-.16.16h-.16l-.16.16-.16.16-.16.16v.16l-.16.16v.48h-.16v.16M502.079 934.56l.16-10.4M489.439 1033.44h12.16v1.28M507.999 1015.36l.32-57.6M507.679 1016.16l.64-91.68M344.96 924h1.12v-3.04M501.119 924.16h1.12l-.16 10.4" style="fill:none;stroke:red;stroke-width:.479999;stroke-linecap:round;stroke-linejoin:round;stroke-miterlimit:10;stroke-dasharray:none;stroke-opacity:1;visibility:visible"/><path d="M457.919 929.44v.16l.16.16v.32l.16.16v.16l.16.16.16.16.16.16.16.16h.16l.16.16h.16l.16.16h.16l.16.16h.48l.16.16h.96l.32-.16h.48l.16-.16h.16l.16-.16h.16l.16-.16.16-.16h.16l.16-.16v-.16l.16-.16.16-.16v-.16l.16-.16v-1.12l-.16-.16v-.16l-.16-.16-.16-.16-.16-.16v-.16h-.16l-.16-.16h-.16l-.16-.16h-.16l-.16-.16h-.16l-.16-.16h-1.92l-.16.16h-.48l-.16.16h-.16l-.16.16-.16.16-.16.16h-.16l-.16.16v.16l-.16.16v.16h-.16v.48l-.16.16v.16M505.599 1012.64v-.16l-.16-.32v-.16l-.16-.16v-.32l-.16-.16-.16-.16-.16-.16v-.32l-.16-.16-.16-.16-.32-.16-.16-.16-.16-.16-.16-.16-.16-.16-.32-.16-.16-.16-.32-.16-.16-.16-.32-.16h-.16l-.32-.16-.32-.16h-.32l-.16-.16h-.32l-.32-.16h-.48l-.32-.16h-2.4l-.32.16h-.64l-.32.16h-.16l-.32.16-.32.16h-.32l-.16.16-.32.16h-.16l-.32.16-.16.16-.32.16-.16.16-.16.16-.32.16-.16.16-.16.16-.16.16-.16.32-.16.16-.16.16-.16.16v.32l-.16.16-.16.16v.32l-.16.16v.48M505.919 956.8v-.32l-.16-.16v-.16l-.16-.32v-.16l-.16-.16-.16-.32v-.16l-.16-.16-.16-.16-.16-.32-.16-.16-.32-.16-.16-.16-.16-.16-.16-.16-.32-.16-.16-.16-.32-.16-.16-.16h-.32l-.16-.16-.32-.16h-.32l-.16-.16h-.32l-.32-.16h-.32l-.32-.16h-.8l-.32-.16h-1.28l-.16.16h-.96l-.32.16h-.32l-.16.16h-.32l-.32.16-.16.16h-.32l-.32.16-.16.16-.32.16h-.16l-.32.16-.16.16-.16.16-.32.16-.16.32-.16.16-.16.16-.16.16-.16.16-.16.16-.16.32v.16l-.16.16-.16.32v.16l-.16.16v.48" style="fill:none;stroke:red;stroke-width:.479999;stroke-linecap:round;stroke-linejoin:round;stroke-miterlimit:10;stroke-dasharray:none;stroke-opacity:1;visibility:visible"/><path d="M505.599 1011.84v-.8l-.16-.32v-.16l-.16-.16v-.32l-.16-.16-.16-.16v-.32l-.16-.16-.16-.16-.16-.16-.16-.16-.16-.16-.32-.32-.16-.16-.16-.16-.32-.16h-.16l-.16-.16-.32-.16-.32-.16-.16-.16h-.32l-.16-.16-.32-.16h-.32l-.32-.16h-.48l-.32-.16h-3.04l-.32.16h-.48l-.32.16h-.32l-.32.16-.16.16h-.32l-.32.16-.16.16-.32.16-.16.16h-.32l-.16.16-.16.16-.32.16-.16.32-.16.16-.16.16-.16.16-.16.16-.16.32-.16.16v.16l-.16.16-.16.32v.16l-.16.16v.48l-.16.32v.8l.16.32v.64l.16.16.16.32v.16l.16.16.16.16v.32l.16.16.16.16.16.16.16.16.32.32.16.16.16.16.16.16.32.16h.16l.32.16.16.16.32.16.32.16h.16l.32.16h.32l.16.16h.32l.32.16h.64l.32.16h2.08l.32-.16h.48l.32-.16h.32l.32-.16h.16l.32-.16h.32l.16-.16.32-.16.32-.16.16-.16h.32l.16-.16.16-.16.32-.16.16-.16.16-.32.16-.16.16-.16.16-.16.16-.16.16-.32.16-.16v-.16l.16-.32.16-.16v-.48l.16-.16v-.96M356.96 937.12l-.16 31.84.16 20.16M356.96 989.12l45.599-33.76-.16-20.16h-42.72M356.8 968.96l45.599-33.76M356.48 1033.28v-1.12M358.08 1033.28l-1.6-1.12.16-31.84M400.799 1033.44l-44.16-33.12M464.639 960.16v.32M468.319 965.28l.16.16M490.079 937.28l-2.72-2.08M444.799 955.36l-.16-20.16M489.919 969.12l-45.28-33.92h42.72M460.159 967.04l-15.36-11.68M489.759 989.12l-24.96-18.72M487.839 1033.44l1.6-1.28M489.599 1000.48l-44.48 32.96M490.079 934.56h12M506.719 924.16h-4.48M508.319 957.76v-33.28M489.439 1033.44l.64-98.88M505.919 956v-.96l-.16-.16v-.32l-.16-.16v-.16l-.16-.32-.16-.16v-.16l-.16-.16-.16-.32-.16-.16-.16-.16-.16-.16-.32-.16-.16-.16-.16-.16-.16-.16-.32-.16-.16-.16-.32-.16-.16-.16h-.32l-.32-.16-.16-.16h-.32l-.32-.16h-.32l-.16-.16h-.64l-.32-.16h-2.4l-.32.16h-.64l-.16.16h-.32l-.32.16h-.32l-.16.16-.32.16h-.32l-.16.16-.32.16-.16.16-.32.16-.16.16-.16.16-.16.16-.32.16-.16.16-.16.16-.16.16-.16.32-.16.16-.16.16v.16l-.16.32-.16.16v.16l-.16.32v.64l-.16.16v.8l.16.16v.48l.16.16v.32l.16.16v.16l.16.32.16.16.16.16v.16l.16.16.16.32.32.16.16.16.16.16.16.16.32.16.16.16.16.16.32.16.16.16h.32l.32.16.16.16h.32l.32.16h.32l.16.16h.32l.32.16h3.36l.16-.16h.32l.32-.16h.32l.32-.16h.16l.32-.16.32-.16.16-.16h.32l.16-.16.32-.16.16-.16.16-.16.32-.16.16-.16.16-.16.16-.16.16-.32.16-.16.16-.16.16-.16.16-.32v-.16l.16-.16.16-.32v-.16l.16-.16V956" style="fill:none;stroke:red;stroke-width:.479999;stroke-linecap:round;stroke-linejoin:round;stroke-miterlimit:10;stroke-dasharray:none;stroke-opacity:1;visibility:visible"/><path d="m362.08 981.76-.32.48-.16-.16M361.76 982.72h-.16M362.08 982.4l-.32.32v-.48M382.399 960.48v-.8h-.16v-.32h-.16v-.16h-.16v-.16h-1.12l-.16.16h-.32l-.16.16h-.16l-.16.16-.16.16-.16.16h-.16l-.16.16-.16.16-.16.16-.16.16v.16l-.16.16-.16.16-.16.16-.16.16-.16.16v.16l-.16.16-.16.32v.16l-.16.16v.16l-.16.16v.32l-.16.32v.48l-.16.16v.32l.16.16v.32l.16.16v.16h.16v.16h.32l.16.16h.32l.16-.16h.48l.16-.16.16-.16h.16l.16-.16.16-.16h.16l.16-.16.16-.16.16-.16.16-.16.16-.16.16-.16.16-.16.16-.16v-.16l.16-.16.16-.16.16-.16v-.16l.16-.16.16-.32v-.16l.16-.16v-.32l.16-.16v-.32l.16-.16v-.32M362.08 978.24l-.32.48-.16-.16M361.76 979.2h-.16M362.08 978.88l-.32.32v-.48" style="fill:none;stroke:red;stroke-width:.479999;stroke-linecap:round;stroke-linejoin:round;stroke-miterlimit:10;stroke-dasharray:none;stroke-opacity:1;visibility:visible"/><path d="M362.08 982.4v-.64l-.48.32v.64M362.08 974.72l-.32.32h-.16M361.76 975.68h-.16M362.08 975.36l-.32.32v-.64M362.08 978.88v-.64l-.48.32v.64M362.08 971.2l-.32.32h-.16M361.76 972.16h-.16M362.08 971.84l-.32.32v-.64" style="fill:none;stroke:red;stroke-width:.479999;stroke-linecap:round;stroke-linejoin:round;stroke-miterlimit:10;stroke-dasharray:none;stroke-opacity:1;visibility:visible"/><path d="M362.08 975.36v-.64l-.48.32v.64M361.92 967.68l-.16.32h-.16M361.76 968.64h-.16M361.92 968.32l-.16.32V968M362.08 971.84v-.64l-.48.32v.64" style="fill:none;stroke:red;stroke-width:.479999;stroke-linecap:round;stroke-linejoin:round;stroke-miterlimit:10;stroke-dasharray:none;stroke-opacity:1;visibility:visible"/><path d="M361.92 968.32v-.64l-.32.32v.64M597.439 537.762h-.48M596.799 538.242v-.16h-.32M610.398 547.362v-.16l-.16-.16v-.16h-.16v-.16l-.16-.16M610.878 547.042v-.48h-.16v-.16l-.16-.16h-.16v-.16M598.078 541.922v.16l-.16.16v.32l-.16.16M609.758 542.562v-.32l-.16-.16v-.16l-.16-.16M508.959 957.12l-.64-.16M610.398 546.082l-.48.48" style="fill:none;stroke:red;stroke-width:.479999;stroke-linecap:round;stroke-linejoin:round;stroke-miterlimit:10;stroke-dasharray:none;stroke-opacity:1;visibility:visible"/><path d="M598.078 540.642v.32l-.16.16v.16l-.16.16v1.28l.16.16v.32l.16.16.16.16v.16l.16.16.16.16.16.16.16.16.16.16.16.16.16.16.16.16h.16l.16.16.32.16h.16l.32.16.16.16h.32l.16.16h.48l.32.16h.48l.32.16h1.6l.32-.16h.8l.16-.16h.32l.32-.16h.16l.32-.16h.16l.32-.16h.16l.16-.16.32-.16.16-.16.16-.16h.16l.16-.16.16-.16.16-.16.16-.16.16-.16v-.16l.16-.16.16-.16v-.16l.16-.16v-.8l.16-.16-.16-.16v-.8l-.16-.16v-.16l-.16-.16M499.839 920.32v.64M499.039 917.12v1.6l.16.16v.16l.16.16v.32l.16.16.16.16v.16l.16.16.16.32.16.16.16.16.16.16.32.16.16.32.16.16.32.16M501.279 922.24l.16-.48M502.559 922.56l-.16.48M502.559 922.56l.32.16.16.16h.32l.32.16.32.16.32.16.32.16h.32l.32.16.32.16h.32l.32.16.32.16h.32l.32.16h.8l.32.16h.96l.32.16h2.08l.32-.16h.96l.32-.16h.64l.32-.16h.16l.32-.16" style="fill:none;stroke:red;stroke-width:.479999;stroke-linecap:round;stroke-linejoin:round;stroke-miterlimit:10;stroke-dasharray:none;stroke-opacity:1;visibility:visible"/><path d="m610.398 547.362-97.28 386.879.16-.8v-.96l.16-.8.16-.8.16-.8.16-.8.16-.8.16-.64v-.8l.16-.8.16-.8v-.64l.16-.8M565.119 699.841v.48l-.16.16v.32l-.16.16v.16l-.16.32v.16l-.16.32v.16l-.16.32v.16l-.16.32-.16.16v.32l-.16.16-.16.32v.16l-.16.16-.16.32-.16.16v.16l-.16.32-.16.16-.16.32-.16.16-.16.16v.16l-.16.32-.16.16-.16.16-.16.16-.16.16-.16.16-.16.32-.16.16-.16.16-.16.16-.32.16-.16.16-.16.16-.16.16-.16.16-.32.16-.16.16h-.16l-.16.16-.32.16h-.16l-.16.16h-.32l-.16.16h-.32l-.16.16h-1.12v-.16h-.48l-.16-.16h-.32v-.16h-.16v-.16h-.16l-.16-.16-.16-.16v-.16h-.16v-.16h-.16v-.32h-.16v-.16l-.16-.16v-.32l-.16-.16v-.16l-.16-.32v-.48l-.16-.32v-3.84l.16-.32v-.96l.16-.64v-.48l.16-.48.16-.64v-.48l.16-.48.16-.64.16-.48v-.48l.16-.48.16-.64v-.48l.16-.16v-.32l.16-.16v-.48l.16-.16M562.719 664.481l.16-.48.16-.48.16-.8.16-.48.16-.48v-.48l.16-.32.16-.48.16-.48v-.32l.16-.16v-.32l.16-.16v-.16l.16-.16v-.32l.16-.16v-.16l.16-.16.16-.32v-.16l.16-.16v-.16l.16-.16v-.16l.16-.16v-.16h.16l.16-.16v-.16h.16v-.16h.16l.16-.16h.16v-.16h.48v-.16h.48l.16.16h.48v.16h.32v.16h.32v.16h.16l.32.16.16.16.16.16.16.16.16.32.16.16.16.16.16.16.16.32.16.16.16.16.16.32.16.16.16.32.16.16.16.32v.16l.16.32.16.16v.32l.16.16.16.32v.16l.16.32v.16l.16.32v.32l.16.16v.48l.16.32v.64l.16.32v4.16l-.16.32v.96l-.16.16v.48l-.16.32v.32M610.398 547.362l.48-.32M519.679 952.96l-10.72 4.16 4.16-22.88M610.398 546.082l.32-.16.16-.16.16-.16.32-.16.16-.16.16-.16.16-.16.16-.32.16-.16.16-.16.16-.32.16-.16v-.16l.16-.16.16-.32v-.48l.16-.16v-1.76l-.16-.16v-.32l-.16-.16v-.16l-.16-.32-.16-.16-.16-.16v-.16l-.16-.16-.16-.32-.16-.16-.32-.16-.16-.16-.16-.16-.16-.16-.32-.16-.16-.16-.32-.16-.16-.16-.32-.16-.32-.16h-.16l-.32-.16-.32-.16h-.32l-.32-.16-.32-.16h-.16l-.32-.16h-.64l-.32-.16h-3.84l-.32.16h-.64l-.32.16h-.32l-.32.16h-.32l-.32.16-.16.16h-.32l-.32.16-.32.16-.32.16-.16.16h-.32l-.32.16-.16.16M596.799 538.242l.64-.48M596.799 538.242l-.16.16-.32.16-.16.16-.16.16-.32.16-.16.32-.16.16-.16.16-.16.16-.16.16-.16.32v.16l-.16.16-.16.32v.16l-.16.16v.32l-.16.16v1.76l.16.32v.16l.16.16v.32l.16.16.16.16.16.16v.32l.16.16.16.16.16.16.32.16.16.16.16.32.16.16.32.16.16.16h.32l.16.16.32.16.32.16.16.16.32.16h.32l.32.16h.32l.32.16h.32l.16.16h.32l.48.16h.96l.32.16h1.6l.48-.16h.96l.32-.16h.64l.32-.16h.32l.32-.16.32-.16h.32l.32-.16.16-.16.32-.16.32-.16h.32l.16-.16.32-.16.32-.16M519.679 952.96l91.2-405.918.32-.16.16-.16.32-.16.16-.16.16-.16.16-.16.32-.16.16-.32.16-.16.16-.16.16-.16v-.32l.16-.16.16-.16v-.16l.16-.32.16-.16v-.48M519.679 952.96l.16-.16.32-.16h.16l.16-.16.16-.16.16-.16h.16l.16-.16.16-.16.16-.16.16-.16.16-.16.16-.16v-.16l.16-.16v-.16l.16-.32v-.32" style="fill:none;stroke:red;stroke-width:.479999;stroke-linecap:round;stroke-linejoin:round;stroke-miterlimit:10;stroke-dasharray:none;stroke-opacity:1;visibility:visible"/><path d="m562.719 664.481 9.76 6.4-7.36 28.96-9.6-6.4 7.2-28.96M593.439 542.082v.16l-.16.32v1.12l.16.16v.48l.16.16v.16l.16.32.16.16v.16l.16.32.16.16.16.16.16.16.16.32.16.16.16.16.32.16.16.16.16.16.32.16.16.16.32.16.32.16.16.16.32.16.32.16.16.16h.32l.32.16.32.16h.32l.32.16h.32l.32.16h.64l.32.16h1.12l.32.16h1.44l.32-.16h1.44l.32-.16h.32l.32-.16h.32l.32-.16h.32l.32-.16.32-.16h.32l.32-.16.16-.16.32-.16.32-.16.32-.16.16-.16.32-.16M607.998 539.202v-.16l-.16-.16v-.48l-.16-.16-.16-.16-.16-.16v-.16l-.16-.16h-.16l-.16-.16-.16-.16h-.16l-.16-.16-.16-.16h-.16l-.16-.16h-.48l-.16-.16h-.48l-.16-.16h-1.6l-.32.16h-.64l-.16.16h-.16l-.16.16h-.16l-.32.16-.16.16h-.16l-.16.16-.16.16-.16.16-.16.16-.16.16v.16h-.16v.16l-.16.16v1.28l.16.16v.16l.16.16.16.16v.16l.16.16h.16l.16.16.16.16h.16l.16.16.16.16h.16l.16.16h.16l.32.16h.32l.32.16h2.24l.16-.16h.48l.16-.16h.16l.16-.16h.16l.16-.16h.32l.16-.16v-.16l.16-.16h.16l.16-.16.16-.16v-.16l.16-.16v-.16h.16v-.32l.16-.16v-.32M522.239 950.08l91.52-406.718M593.439 542.082l-94.4 375.039M596.479 538.082l.48-.32M596.479 538.082l-1.92 1.76-1.12 2.24M502.239 924.16l.16-1.12M502.399 923.04l-.16-.16v-.16h-.16v-.16h-.16v-.16h-.16l-.16-.16h-.32M501.279 922.24l-.16 1.28" style="fill:none;stroke:red;stroke-width:.479999;stroke-linecap:round;stroke-linejoin:round;stroke-miterlimit:10;stroke-dasharray:none;stroke-opacity:1;visibility:visible"/><path d="m565.759 688.481.16-.16v-1.12l-.16-.16v-.48l-.16-.16v-.32l-.16-.16v-.16l-.16-.16v-.16l-.16-.16-.16-.16h-.16v-.16l-.16-.16-.16-.16h-.16l-.16-.16-.16-.16h-.32l-.16-.16h-.64l-.16.16h-.32v.16h-.16l-.16.16v.16h-.16v.16l-.16.16v.16l-.16.16v.48l-.16.16v.96l.16.16v.48l.16.16v.32l.16.16v.16l.16.16v.16l.16.16.16.16.16.16.16.16.16.16h.16l.16.16.16.16h.16l.16.16h.8l.16-.16h.32v-.16h.16l.16-.16.16-.16v-.16l.16-.16v-.16l.16-.16v-.32M598.078 540.322v2.56M598.078 542.882v.48l.16.16v.16M609.438 543.522v-.64M598.078 540.322v.48l.16.16v.32l.16.16v.16l.16.16v.16l.16.16.16.16.16.16.16.16.16.16h.16l.16.16.16.16.16.16h.16l.32.16.16.16h.32l.16.16h.32l.16.16h.32l.16.16h1.12l.16.16h.8l.32-.16h.8l.16-.16h.64l.16-.16h.32l.16-.16h.16l.32-.16.16-.16h.16l.32-.16.16-.16.16-.16.16-.16h.16l.16-.16.16-.16v-.16l.16-.16.16-.16v-.16l.16-.16v-.16l.16-.32v-.64M251.2 783.041l.64-.48M238.08 773.281h-.16l-.16-.16h-.16v.16M251.2 783.041v-.32l-.16-.16v-.16l-.16-.16-.16-.16M238.56 772.961v-.16h-.32M251.84 782.561l-.16-.16v-.32l-.16-.16-.16-.16-.16-.16M238.88 777.281l-.16.16v.16l-.16.16v.32M250.4 778.241v-.32l-.16-.16v-.16l-.16-.16" style="fill:none;stroke:red;stroke-width:.479999;stroke-linecap:round;stroke-linejoin:round;stroke-miterlimit:10;stroke-dasharray:none;stroke-opacity:1;visibility:visible"/><path d="M609.438 542.882v-3.2l-.16-.16v-.32l-.16-.16v-.16l-.16-.16v-.16l-.16-.16v-.16h-.16v-.16h-.16v-.16l-.16-.16-.16-.16-.16-.16-.32-.16-.16-.16-.16-.16h-.16l-.32-.16-.16-.16h-.32l-.16-.16h-.16l-.32-.16h-.48l-.32-.16h-2.4l-.32.16h-.48l-.16.16h-.32l-.16.16-.32.16h-.16l-.16.16-.32.16h-.16l-.16.16-.16.16-.32.16-.16.16v.16h-.16v.16h-.16v.16l-.16.16v.16l-.16.16v.16l-.16.16v.16l-.16.16v.48h-.16v.48M238.88 776.161l-.16.16v.16l-.16.16v.32l-.16.16v.8l.16.16v.32l.16.16v.16l.16.16v.32l.16.16.16.16.16.16.16.16.16.16h.16l.16.16.16.16.16.16.16.16h.32l.16.16.16.16h.32l.16.16.32.16h.48l.32.16h.48l.32.16h2.08l.32-.16h.48l.32-.16h.16l.32-.16h.32l.16-.16h.16l.32-.16.16-.16h.16l.32-.16.16-.16.16-.16.16-.16.16-.16h.16l.16-.16.16-.16v-.16l.16-.32.16-.16v-.16l.16-.16v-.32l.16-.16v-.96l-.16-.16v-.32l-.16-.16v-.16M322.72 1084l.16.16v.32l.16.16.16.32.16.32v.16l.16.16.16.32.16.16.32.32.16.16.16.16.16.16.32.16.16.32.32.16.16.16.32.16.32.16h.16l.32.16.32.16.32.16h.32l.16.16.32.16h.64l.32.16h.8l.32.16h1.6l.48-.16h.64l.32-.16h.64l.32-.16.32-.16h.48l.32-.16.32-.16.32-.16h.32l.32-.16.32-.16.16-.16.32-.16.32-.32.32-.16.16-.16.32-.16.32-.16.16-.32M351.68 1075.04l-12.64 11.04L251.2 783.04M251.2 781.601l-.48.48" style="fill:none;stroke:red;stroke-width:.479999;stroke-linecap:round;stroke-linejoin:round;stroke-miterlimit:10;stroke-dasharray:none;stroke-opacity:1;visibility:visible"/><path d="m251.2 781.601.32-.16.16-.16.32-.16.16-.16.16-.16.32-.16.16-.16.16-.32.16-.16.16-.16.16-.16.16-.32v-.16l.16-.16.16-.32v-.16l.16-.16v-.48l.16-.32v-1.12l-.16-.16v-.48l-.16-.16v-.32l-.16-.16-.16-.16v-.32l-.16-.16-.16-.16-.16-.16-.16-.16-.16-.32-.16-.16-.32-.16-.16-.16-.16-.16-.32-.16-.16-.16-.32-.16-.16-.16-.32-.16-.32-.16h-.16l-.32-.16-.32-.16h-.32l-.32-.16-.32-.16h-.16l-.32-.16h-.64l-.48-.16h-3.68l-.32.16h-.64l-.32.16h-.32l-.32.16h-.32l-.32.16-.32.16h-.32l-.16.16-.32.16-.32.16-.16.16-.32.16-.32.16M238.08 773.281l.48-.32M238.08 773.281l-.32.16-.16.16-.32.16-.16.16-.16.16-.32.32-.16.16-.16.16-.16.16-.16.16-.16.32v.16l-.16.16-.16.32v.16l-.16.16v.32l-.16.16v.64l-.16.32v.16l.16.32v.64l.16.16v.16l.16.32v.16l.16.16.16.32.16.16v.16l.16.32.32.16.16.16.16.16.16.16.16.16.32.16.16.16.32.16.16.16.32.16.16.16.32.16.32.16h.16l.32.16.32.16h.32l.32.16h.32l.32.16h.32l.32.16h.96l.32.16h2.08l.32-.16h.64l.32-.16h.64l.32-.16h.32l.32-.16.32-.16h.32l.32-.16.16-.16.32-.16h.32l.16-.16.32-.16.32-.16M263.52 879.68v.16h.16v.32h.16v.16h.16v.16h.16v.16l.16.16.16.16.16.16.16.16h.16v.16l.16.16.16.16h.16l.16.16.16.16.16.16.32.16.16.16h.16l.16.16.32.32.8.64.48.16.16.16.16.16.16.16.32.16.32.32h.16l.16.16.16.16.16.16.16.16.16.16.16.16.16.16.16.16v.16h.16l.16.16v.16l.16.16v.16l.16.16v.48h.16v.48l-.16.16v.32l-.16.16v.16l-.16.16-.16.16-.16.16-.16.16h-.16l-.16.16h-.32l-.16.16h-.96l-.16-.16h-.32l-.16-.16h-.16l-.16-.16h-.16l-.16-.16-.16-.16h-.16l-.16-.16-.16-.16-.16-.16-.16-.16-.16-.16-.16-.16v-.32l-.16-.16-.16-.16-.16-.16v-.32l-.16-.16-.16-.16v-.32l-.16-.16v-.16l-.16-.32v-.16l-.16-.32v-.16l-.16-.16v-.32l-.16-.48-.16-.48" style="fill:none;stroke:red;stroke-width:.479999;stroke-linecap:round;stroke-linejoin:round;stroke-miterlimit:10;stroke-dasharray:none;stroke-opacity:1;visibility:visible"/><path d="M234.56 779.681v.32l.16.16v.32l.16.16.16.16.16.32.16.16.16.16.16.32.16.16.16.16.16.16.16.16.32.32.16.16.32.16.16.16.32.16.16.16.32.16h.32l.16.16.32.16.32.16h.32l.32.16.32.16h.32l.32.16h.32l.32.16h.64l.32.16h3.2l.32-.16h.64l.48-.16h.32l.32-.16h.32l.32-.16.32-.16h.32l.32-.16.32-.16.16-.16.32-.16h.32l.32-.16.16-.16.32-.16M248.64 774.721v-.48l-.16-.16v-.16l-.16-.16v-.16l-.16-.16-.16-.16-.16-.16-.16-.16-.16-.16h-.16l-.16-.16-.16-.16h-.32l-.16-.16h-.32l-.32-.16h-.32l-.32-.16h-1.76l-.16.16h-.48l-.16.16h-.32l-.16.16h-.16l-.16.16h-.16l-.16.16-.16.16h-.16l-.16.16-.16.16v.16h-.16l-.16.16v.16l-.16.16v.32l-.16.16v.64l.16.16v.32l.16.16.16.16v.16l.16.16.16.16.16.16.16.16.16.16h.16l.16.16h.16l.32.16h.16l.16.16h.16l.32.16h1.12l.16.16h.32l.16-.16h.8l.32-.16h.32l.32-.16h.16l.16-.16h.16l.16-.16.16-.16h.16l.16-.16.16-.16.16-.16v-.16h.16v-.16l.16-.16v-.16l.16-.16v-.64M254.72 776.001l26.4 76.64M292 884.16l55.04 159.04M234.56 779.681l28.96 100M264.96 884.64 322.72 1084" style="fill:none;stroke:red;stroke-width:.479999;stroke-linecap:round;stroke-linejoin:round;stroke-miterlimit:10;stroke-dasharray:none;stroke-opacity:1;visibility:visible"/><path d="M234.56 779.841v-.32l-.16-.16v-2.08l.16-.32v-.16l.16-.16v-.32l.16-.16.16-.16v-.32l.16-.16.16-.16.16-.16.16-.32.16-.16.16-.16.16-.16.16-.16.16-.16.32-.16.16-.16.16-.16.32-.16.16-.16M237.6 773.281l.64-.48M345.92 1049.12v.64l.16.64.16.8.16.64.16.64.16.8.16.64.16.64.16.8.16.8.16.64.16.8.16.8.16.64.16.8.16.8.32.8.16.8.16.8.16.8.16.96M351.68 1072v3.04l-2.4-10.24M349.28 1064.8 251.84 782.56l.16-.16.32-.16.16-.16.32-.16.16-.16.16-.32.16-.16.32-.16.16-.32.16-.16.16-.16v-.32l.16-.16.16-.16.16-.32v-.16l.16-.32v-.16l.16-.32v-2.08l-.16-.16v-.32M345.92 1049.12l.16-.16.16-.32.16-.16.16-.32v-.32l.16-.16.16-.32.16-.32v-.16l.16-.32v-.8l.16-.32v-.96l-.16-.32v-.48l-.16-.32v-.16M281.12 852.641l2.4 7.68M290.24 880l1.76 4.16M290.4 880l-6.88-19.679M263.52 879.84l.32.64.16.8.16.8.32.64.16.8M264.64 883.52l.16.32.16.16.16.16.16.16.16.32.16.16.32.16.16.16.16.16.16.32.16.16.16.16.32.16.16.16.16.16.16.16.16.16.32.16.16.16.16.16.16.16.32.16.16.16.16.16h.16l.16.16h.16l.16.16.16.16h.32l.16.16h.48l.16.16h.48M265.6 881.92h-.16v.8l.16.16v.16l.16.16v.16l.16.16.16.16v.16l.16.16.16.16.16.16.16.16.16.16.16.16.16.16v.16l.16.16h.16l.16.16.16.16h.16l.16.16.16.16.16.16h.32l.16.16h.32l.16.16.16-.16h.16v-.8h-.16v-.32l-.16-.16v-.16h-.16v-.16M238.88 775.841l-.16 2.56M238.72 778.401l.16.16v.48M250.08 779.201v-.64M238.88 775.841v.64l.16.16v.16l.16.16v.16l.16.32v.16h.16l.16.16.16.16.16.16.16.16.16.16.16.16.16.16h.32l.16.16.16.16h.32l.16.16h.32l.16.16h.32l.16.16h.8l.32.16h1.6l.16-.16h.8l.32-.16h.16l.32-.16h.16l.16-.16h.32l.16-.16.16-.16h.32l.16-.16.16-.16.16-.16.16-.16.16-.16.16-.16.16-.16v-.16l.16-.16.16-.16v-.16l.16-.16v-.48l.16-.16v-.16M591.199 782.401l-.16.16-.16.16v.16l-.16.16v.16M604.478 773.601v-.16h-.32v.16h-.16M590.719 781.921l-.16.16-.16.16v.16h-.16v.48h-.16M603.838 773.121h-.32v.16M591.839 777.761l-.16.16v.32l-.16.16v.16M603.518 778.241v-.16l-.16-.16v-.16l-.16-.16v-.16" style="fill:none;stroke:red;stroke-width:.479999;stroke-linecap:round;stroke-linejoin:round;stroke-miterlimit:10;stroke-dasharray:none;stroke-opacity:1;visibility:visible"/><path d="m250.08 778.561.16-2.56v-.32l-.16-.16v-.64l-.16-.16v-.16l-.16-.16v-.16l-.16-.16v-.16l-.16-.16-.16-.16-.16-.16v-.16h-.16v-.16l-.32-.16-.16-.16h-.16l-.16-.16-.32-.16-.16-.16h-.16l-.32-.16-.16-.16h-.32l-.16-.16h-.48l-.32-.16h-2.72l-.16.16h-.48l-.32.16h-.16l-.32.16-.16.16h-.32l-.16.16-.16.16-.16.16-.32.16-.16.16-.16.16-.16.16-.16.16-.16.16v.16h-.16v.32h-.16v.32h-.16v.32h-.16v.96M591.839 776.641l-.16.16v.16l-.16.16v1.6l.16.16v.32l.16.16v.16l.16.16.16.16.16.16.16.16v.16l.32.16h.16l.16.16.16.16.16.16.16.16h.32l.16.16h.32l.16.16.32.16h.48l.16.16h.64l.16.16h1.92l.32-.16h.8l.32-.16h.16l.32-.16h.16l.32-.16h.16l.32-.16.16-.16.16-.16h.32l.16-.16.16-.16.16-.16.16-.16.16-.16.16-.16.16-.16.16-.16v-.16l.16-.16v-.16l.16-.16v-.16l.16-.16v-1.44l-.16-.32v-.16l-.16-.16v-.16M506.879 1086.24l.16.16.32.32.16.16.32.16.32.16.16.16.32.16.32.32h.32l.32.16.32.16.32.16.32.16.32.16h.32l.32.16h.32l.32.16h.32l.48.16h.96l.32.16h1.44l.32-.16h.96l.32-.16h.32l.32-.16h.32l.32-.16.32-.16h.16l.32-.16.32-.16.32-.16.16-.16.32-.16.16-.16.32-.16.16-.16.16-.16.32-.32.16-.16.16-.16.16-.32.16-.16.16-.16.16-.32.16-.16.16-.32.16-.16v-.32l.16-.16v-.32M590.079 782.881l.64.32M506.879 1086.24l-12.48-11.04M603.518 773.281l.48.32" style="fill:none;stroke:red;stroke-width:.479999;stroke-linecap:round;stroke-linejoin:round;stroke-miterlimit:10;stroke-dasharray:none;stroke-opacity:1;visibility:visible"/><path d="m603.518 773.281-.32-.16-.32-.16-.16-.16-.32-.16-.32-.16-.32-.16h-.16l-.32-.16-.32-.16h-.32l-.32-.16h-.32l-.32-.16h-.32l-.32-.16h-1.44l-.32-.16h-.96l-.32.16h-1.44l-.32.16h-.32l-.32.16h-.16l-.32.16h-.32l-.32.16-.32.16h-.32l-.32.16-.16.16-.32.16-.16.16-.32.16-.16.16-.32.16-.16.16-.32.16-.16.16-.16.16-.16.16-.16.32-.16.16-.16.16-.16.16-.16.32v.16l-.16.16-.16.32v.32l-.16.32v1.76l.16.16v.32l.16.16v.16l.16.32.16.16v.16l.16.32.16.16.16.16.16.16.32.32.16.16.16.16.16.16.32.16.16.16.32.16M591.199 782.401l-.48-.48M591.199 782.401l.32.16.32.16h.16l.32.16.32.16.16.16.32.16h.32l.32.16h.32l.32.16h.32l.32.16h.32l.32.16h.96l.32.16h1.44l.32-.16h1.28l.32-.16h.32l.32-.16h.32l.32-.16h.32l.32-.16.16-.16h.32l.32-.16.32-.16.16-.16.32-.16.16-.16.32-.16.16-.16.32-.16.16-.16.16-.16.16-.16.32-.16.16-.32.16-.16.16-.16v-.16l.16-.32.16-.16.16-.16v-.32l.16-.16v-.48l.16-.16v-1.28l-.16-.32v-.48l-.16-.16-.16-.16v-.32l-.16-.16-.16-.16-.16-.32-.16-.16-.16-.16-.16-.16-.16-.16-.16-.32-.16-.16-.32-.16-.16-.16-.16-.16-.32-.16" style="fill:none;stroke:red;stroke-width:.479999;stroke-linecap:round;stroke-linejoin:round;stroke-miterlimit:10;stroke-dasharray:none;stroke-opacity:1;visibility:visible"/><path d="m506.879 1086.24 83.84-303.039.32.16.16.16.32.16.32.16.32.16.32.16.16.16.32.16h.32l.32.16.32.16h.32l.32.16h.8l.32.16h.64l.32.16h2.56l.32-.16h.64l.32-.16h.8l.32-.16.32-.16h.32l.16-.16h.32l.32-.16.32-.16.32-.16.32-.16.16-.16.32-.16.16-.16.32-.16.16-.16.32-.16.16-.16.32-.16.16-.16.16-.32.16-.16.16-.16.16-.32.16-.16.16-.16v-.32l.16-.16.16-.32v-.16l.16-.16" style="fill:none;stroke:red;stroke-width:.479999;stroke-linecap:round;stroke-linejoin:round;stroke-miterlimit:10;stroke-dasharray:none;stroke-opacity:1;visibility:visible"/><path d="m571.999 885.28.32-.32h.32l.16-.16.16-.16h.32l.32-.32.48-.16.48-.32.48-.16.32-.16.32-.16.16-.16.16-.16h.32l.16-.16h.16l.16-.16.16-.16h.16l.16-.16.16-.16h.16l.16-.16h.16l.16-.16h.16l.16-.16.16-.16h.16l.16-.16h.16v-.16h.32v.32l-.16.16v.32l-.16.16v.48l-.16.16v.32l-.16.16v.48l-.16.16v.48l-.16.16v.16l-.16.32-.16.48v.16l-.16.16-.16.32v.16l-.16.16v.32l-.16.16-.16.16-.16.32v.16l-.16.16-.16.32-.16.16-.16.16-.16.16-.16.16-.16.16-.16.32h-.16l-.16.16-.16.16-.16.16-.16.16h-.16l-.32.16-.16.16h-.32l-.16.16h-.64l-.16.16h-.64l-.16-.16h-.48l-.16-.16h-.16l-.16-.16h-.32l-.16-.16-.16-.16h-.16v-.16l-.16-.16" style="fill:none;stroke:red;stroke-width:.479999;stroke-linecap:round;stroke-linejoin:round;stroke-miterlimit:10;stroke-dasharray:none;stroke-opacity:1;visibility:visible"/><path d="m574.399 884-.16.16-.16.16h-.16l-.16.16-.16.16v.16l-.16.16-.16.16-.16.16v.16l-.16.16v.16h-.16l-.16.16v.32l-.16.16v.16l-.16.16v.48h.16v.16h.64l.16-.16h.16l.16-.16h.16l.16-.16h.16l.16-.16v-.16h.16l.16-.16.16-.16.16-.16.16-.16h.16v-.16l.16-.16.16-.16.16-.16.16-.16v-.16l.16-.16.16-.16v-.16h.16v-.16l.16-.16v-.32h.16v-.48l.16-.16-.16-.16v-.16h-.16M498.719 1043.36l-.16.32v.48l-.16.32v1.44l.16.32v.48l.16.32v.16l.16.32.16.32v.16l.16.32.16.16.16.32.16.32.16.16" style="fill:none;stroke:red;stroke-width:.479999;stroke-linecap:round;stroke-linejoin:round;stroke-miterlimit:10;stroke-dasharray:none;stroke-opacity:1;visibility:visible"/><path d="m587.359 776.481-.16.16v.32l-.16.16v1.44l.16.16v.48l.16.32v.16l.16.16v.32l.16.16.16.16.16.32.16.16.16.16.16.32.16.16.16.16.16.16.32.32.16.16.16.16.32.16.16.16-93.44 281.918.16-.8.16-.8.16-.8.16-.8.16-.8.16-.8.16-.8.16-.8.16-.64.16-.8.16-.8.16-.64.16-.8.16-.64.16-.8.16-.64.16-.64v-.8l.16-.64.16-.64.16-.64M551.359 884.64l1.76-4.16 6.4-19.679 2.4-7.68M496.639 1064.8l-2.24 10.4v-3.04M571.999 885.28l-.32.64-.16.64-.32.8-.32.64-.16.8-.32.64M570.399 889.44v.16h.32l.16.16h.32v-.16h.48l.16-.16h.16l.16-.16h.16l.16-.16h.16l.16-.16.16-.16h.32l.16-.16.16-.16.16-.16.16-.16.32-.16.16-.16.16-.16.16-.16.32-.16.16-.16.16-.32.16-.16.16-.16.32-.16.16-.16.16-.32.16-.16.16-.16.16-.16.16-.32.16-.16.16-.16.16-.32.16-.16.16-.16.16-.16v-.32l.16-.16.16-.16v-.16l.16-.16.16-.16v-.32l.16-.16v-.32l.16-.16v-.48M601.598 775.041v-.48l-.16-.16v-.32l-.16-.16-.16-.16-.16-.16-.16-.16-.16-.16-.16-.16-.16-.16h-.16l-.32-.16-.16-.16h-.32l-.16-.16h-.48l-.32-.16h-1.92l-.32.16h-.32l-.16.16h-.32l-.16.16h-.16l-.16.16-.16.16h-.16l-.16.16-.16.16h-.16l-.16.16-.16.16v.16l-.16.16v.16h-.16v.16l-.16.16v.96l.16.16v.32l.16.16.16.16.16.16v.16l.16.16h.16l.16.16.16.16h.16l.16.16.16.16h.48l.16.16h.16l.32.16h2.4l.16-.16h.48l.16-.16h.16l.32-.16h.16l.16-.16.16-.16h.16l.16-.16.16-.16h.16v-.16l.16-.16.16-.16v-.16l.16-.16v-.32h.16v-.48M587.359 776.481l-25.44 76.64M551.359 884.64l-52.64 158.72" style="fill:none;stroke:red;stroke-width:.479999;stroke-linecap:round;stroke-linejoin:round;stroke-miterlimit:10;stroke-dasharray:none;stroke-opacity:1;visibility:visible"/><path d="m603.838 773.121.64.48.16.16h.32l.16.16.16.16.16.32.32.16.16.16.16.16.16.16.16.16.16.16.16.32v.16l.16.16.16.16.16.32v.16l.16.16v.32l.16.16v.64l.16.32v.8l-.16.32v.64L523.198 1084M591.839 776.321v2.56M591.839 778.881v.48l.16.16" style="fill:none;stroke:red;stroke-width:.479999;stroke-linecap:round;stroke-linejoin:round;stroke-miterlimit:10;stroke-dasharray:none;stroke-opacity:1;visibility:visible"/><path d="m603.038 779.361.16-.16v-.64M591.839 776.321v.64l.16.16v.32l.16.16v.16l.16.16.16.16.16.16h.16v.16l.16.16.32.16.16.16.16.16h.16l.16.16.32.16h.16l.16.16h.32l.16.16h.32l.16.16h.8l.32.16h1.6l.32-.16h.48l.16-.16h.48l.32-.16h.16l.32-.16.16-.16h.32l.16-.16.16-.16.16-.16h.16l.32-.16.16-.16.16-.16v-.16l.16-.16.16-.16.16-.16v-.16l.16-.16v-.16l.16-.16v-.32l.16-.16v-.48" style="fill:none;stroke:red;stroke-width:.479999;stroke-linecap:round;stroke-linejoin:round;stroke-miterlimit:10;stroke-dasharray:none;stroke-opacity:1;visibility:visible"/><path d="M603.198 778.561v-2.72l-.16-.16v-.64h-.16v-.32l-.16-.16v-.16h-.16v-.32h-.16v-.16l-.16-.16-.16-.16-.16-.16-.16-.16-.16-.16-.16-.16h-.32l-.16-.16-.16-.16-.32-.16h-.16l-.16-.16h-.32l-.16-.16h-.32l-.16-.16h-1.12l-.16-.16h-.48l-.32.16h-.96l-.32.16h-.48l-.16.16h-.32l-.16.16-.32.16h-.16l-.16.16-.32.16-.16.16-.16.16h-.16l-.16.16-.16.16v.16h-.16v.16h-.16v.16h-.16v.16l-.16.16v.16l-.16.16v.16l-.16.16v.32l-.16.16v.8M462.239 964.96l-3.36-10.56M468.479 965.12l4 7.36M464.639 1036.96l-.32-17.76M484.799 967.68l-18.72-3.68M468.479 965.44l-4.32-3.68M467.839 965.28l-2.4 2.88M463.199 969.92l2.24-1.76M467.839 965.6l-5.6-.64M464.479 960.16l-3.36 5.6M453.919 1041.12l4.32.16M346.24 1040.32l.8 6.56M499.679 1040.48l-.96 6.56M425.919 1041.44l-10.24-.64M464.319 1019.2l.32 17.76M430.239 1040l-4.32 1.44M430.239 1040.8l-4.32.64M355.2 1011.84l-10.4 1.6M355.2 1011.84l-16.8 6.4M349.28 1064.8l-2.88-16.64M392.479 1039.84l-4.32 1.6M392.479 1039.84l-4.32 1.6M355.52 955.84l-14.56.8M355.2 1011.84l-14.56.8M383.199 929.28l-4.32-.64M397.919 948.32l2.24 8.8M449.279 948.32l-2.24 8.8M344.96 924v10.4M359.68 935.2l-2.72-.8M457.919 929.44l-4.16-.8M378.88 928.64l4.319.64M393.599 927.68l-10.4 1.6M491.359 956.8l4.32.8M505.919 956l-10.24 1.6M505.599 1011.84l-10.4 1.6M453.759 928.64l4.16.8M468.319 927.84l-10.4 1.6M505.599 1011.84l-14.56.96M495.679 957.6l-4.32-.8M356.96 934.4l2.72.8M397.439 948.64l4.96-13.44M356.48 1033.28v-1.12M449.759 942.08l-5.12-6.88M464.799 970.4l-4.64-3.36M501.119 924.16h5.6M397.439 956.32l-15.04 4.16M501.119 924.16l-1.28-3.84M565.759 688.481l-10.24 4.96M565.759 688.481l6.72-17.6M502.239 924.16l10.88 10.08M609.438 540.322l-1.44-1.12M609.758 542.562l-1.76-3.36M555.519 693.441l10.24-4.96M572.479 670.881l-6.72 17.6M250.72 782.081l-11.84-4.8M251.84 782.561l-1.76-5.12M250.24 776.001l-1.6-1.28M250.4 778.241l-1.76-3.52M264.64 883.52l.32 1.12M603.038 779.361l-11.2-1.6M603.198 778.561v-1.12M603.038 779.361l4.48.64M571.999 885.28l2.4-1.28M494.399 1072.16l2.24-7.36M603.198 776.001l-1.6-.96M603.518 773.281l-1.92 1.76" style="fill:none;stroke:red;stroke-width:.479999;stroke-linecap:round;stroke-linejoin:round;stroke-miterlimit:10;stroke-dasharray:none;stroke-opacity:1;visibility:visible"/><path d="m265.6 651.842-9.76 6.4M307.36 928.64l-90.72-394.238M311.68 940.96l8.96 3.68M266.88 673.121l-.16-.16v-.32l-.16-.16-.16-.16-.16-.16v-.16h-.16l-.16-.16-.16-.16h-1.28l-.16.16h-.16v.16H264l-.16.16h-.16l-.16.16v.16l-.16.16-.16.16-.16.16v.16l-.16.16v.16l-.16.16v.16l-.16.16v.64l-.16.16v.96l.16.16v.48l.16.16v.16l.16.16.16.16v.16h.16l.16.16.16.16h1.28l.16-.16h.16l.16-.16h.16v-.16h.16l.16-.16.16-.16v-.16l.16-.16.16-.16v-.16l.16-.16.16-.16v-.32l.16-.16v-.48l.16-.16v-1.44" style="fill:none;stroke:#00ff4a;stroke-width:.479999;stroke-linecap:round;stroke-linejoin:round;stroke-miterlimit:10;stroke-dasharray:none;stroke-opacity:1;visibility:visible" visibility="hidden"/><path d="m272.96 680.801-9.76 6.4-7.36-28.96M217.76 533.762v.16h-.16v.16h-.16v.32h-.16v.32M217.28 534.722l.32.16.16.16.32.16.32.16.16.16.32.16h.32l.32.16.32.16h.32l.32.16.32.16h.32l.32.16h.64l.32.16h4.32l.32-.16h.32l.32-.16h.32l.32-.16h.32l.32-.16h.32l.32-.16.32-.16.16-.16h.32l.32-.16.32-.16.16-.16.32-.16.16-.16.32-.16.16-.16.32-.16.16-.16.16-.32.16-.16.16-.16.16-.16.16-.16.16-.32.16-.16.16-.16v-.32l.16-.16v-.16l.16-.32v-.16l.16-.32v-1.28l-.16-.16v-.32M217.28 533.442h-.16v.16h-.16v.16l-.16.16v.32h-.16v.16M216.64 534.402l.64.32M217.76 533.762l-.48-.32M230.72 525.122h-.32M213.92 530.722v.32l.16.16v.16l.16.32.16.16v.32l.16.16.16.16.16.16.16.32.16.16.16.16.16.16.32.16.16.32.16.16.32.16.16.16M230.88 525.602l-.48-.48-.32-.16-.16-.16-.32-.16h-.32l-.16-.16-.32-.16-.32-.16-.32-.16h-.32l-.32-.16h-.32l-.16-.16h-.32l-.48-.16h-.32l-.32-.16h-.96l-.32-.16h-1.76l-.32.16h-.96l-.32.16h-.32l-.32.16H220l-.32.16h-.32l-.16.16-.32.16h-.32l-.32.16-.16.16-.32.16-.32.16-.16.16-.16.16-.32.16-.16.16-.32.16-.16.16-.16.16-.16.16-.16.16-.16.16-.16.32-.16.16-.16.16v.16l-.16.32v.16l-.16.16v.32l-.16.16v1.6l.16.16v.32l.16.16v.16l.16.32v.16l.16.16.16.16.16.32.16.16.16.16.16.16.16.32.16.16.32.16.16.16.16.16.32.16M217.28 534.722l99.2 387.039M328 909.28l.32-.16.16-.32.16-.16.32-.16.16-.16.16-.16.16-.16.16-.16.16-.32v-.16l.16-.16.16-.16v-.16l.16-.32.16-.16v-.48l.16-.32v-.64l-.16-.32v-.16M255.84 658.241l-.16-.16v-.48l-.16-.16v-.48l-.16-.32v-.96l-.16-.16v-4l.16-.32v-.64l.16-.32v-.48l.16-.16v-.32l.16-.16v-.32l.16-.32v-.16l.16-.32.16-.16v-.32l.16-.16.16-.32v-.16l.16-.32.16-.16.16-.32.16-.16.16-.16.16-.32.16-.16.16-.32.16-.16.16-.16.16-.16.16-.16.16-.32.16-.16.32-.16h.16v-.16h.16v-.16h.32l.16-.16h.16l.16-.16h1.28l.16.16h.32v.16h.16l.16.16.16.16v.16l.16.16h.16v.16l.16.16v.16l.16.16v.16l.16.16v.16l.16.16v.16l.16.16v.16l.16.16v.32l.16.16v.32l.16.16v.16l.16.16v.32l.16.32.16.48v.48l.16.32.16.48.16.48.16.96.16.32.16.48M265.6 651.842l7.36 28.96" style="fill:none;stroke:#00ff4a;stroke-width:.479999;stroke-linecap:round;stroke-linejoin:round;stroke-miterlimit:10;stroke-dasharray:none;stroke-opacity:1;visibility:visible" visibility="hidden"/><path d="M272.96 680.801v.16l.16.32v.16l.16.32v.48l.16.48.16.48.16.48v.48l.16.64.16.48v.48l.16.64.16.48v.48l.16.64v.48l.16.48v.64l.16.16v3.68l-.16.32v.48l-.16.32v.16l-.16.32v.32l-.16.16v.16l-.16.16-.16.16v.16l-.16.16-.16.16-.16.16h-.16v.16h-.16l-.16.16h-.16l-.16.16h-.32v.16h-1.6l-.16-.16h-.32l-.16-.16h-.32l-.16-.16-.16-.16h-.32l-.16-.16-.16-.16-.16-.16-.16-.16-.32-.16-.16-.16-.16-.16-.16-.16-.16-.16-.16-.16-.32-.16-.16-.16-.16-.32-.16-.16-.16-.16v-.16l-.16-.16-.16-.16-.16-.32-.16-.16-.16-.16-.16-.32v-.16l-.16-.16-.16-.32-.16-.16-.16-.16v-.32l-.16-.16-.16-.32v-.16l-.16-.32-.16-.16v-.32l-.16-.16-.16-.16v-.32l-.16-.16v-.32l-.16-.16v-.32l-.16-.16v-.48l-.16-.32v-.16M231.36 525.442h-.32l-.16.16M217.76 533.762l.32.16.16.16.32.16.32.16.16.16.32.16.32.16h.32l.32.16.32.16h.32l.32.16h.32l.32.16h.64l.32.16h.96l.32.16h1.12l.32-.16h1.28l.32-.16h.32l.32-.16h.32l.32-.16h.32l.32-.16.32-.16h.16l.32-.16.32-.16.16-.16.32-.16.16-.16.32-.16.16-.16.32-.16.16-.16.16-.16.16-.16.32-.16.16-.16.16-.16v-.32l.16-.16.16-.16.16-.16v-.32l.16-.16v-.16l.16-.32v-1.92l-.16-.32v-.16l-.16-.16v-.32l-.16-.16-.16-.16-.16-.32-.16-.16-.16-.16-.16-.16-.16-.32-.16-.16-.16-.16-.16-.16-.32-.16-.16-.16-.32-.16" style="fill:none;stroke:#00ff4a;stroke-width:.479999;stroke-linecap:round;stroke-linejoin:round;stroke-miterlimit:10;stroke-dasharray:none;stroke-opacity:1;visibility:visible" visibility="hidden"/><path d="m218.24 528.002-.16.16v.32l-.16.32v1.44l.16.16v.16l.16.16v.16l.16.16.16.16.16.16v.16l.16.16.16.16.16.16h.16l.32.16.16.16.16.16.32.16h.16l.16.16h.32l.16.16h.32l.16.16h.32l.32.16h.96l.32.16h.8l.32-.16h.8l.32-.16h.48l.16-.16h.32l.16-.16h.32l.16-.16.32-.16h.16l.16-.16.32-.16.16-.16.16-.16.16-.16h.16l.16-.16.16-.16v-.16l.16-.16.16-.16v-.16l.16-.32v-.16l.16-.16v-1.44l-.16-.16v-.16l-.16-.16v-.16M326.88 910.08l.16.48 1.92 10.24M330.56 929.76l2.24 12-12.16 2.88-4.16-22.88" style="fill:none;stroke:#00ff4a;stroke-width:.479999;stroke-linecap:round;stroke-linejoin:round;stroke-miterlimit:10;stroke-dasharray:none;stroke-opacity:1;visibility:visible" visibility="hidden"/><path d="M328.16 909.76h-.48v.16h-.16l-.16.16v.16h-.16v.16l-.16.16M333.92 940.8l-1.12.96M330.56 912.32l3.84 20.8-.48 7.68-2.24-11.68M330.56 912.32l-.16-.8-.16-.8-.16-.8-.16-.8-.16-.64-.16-.8M328 909.28l.16.48M218.24 529.122v.16l-.16.16v.16l-.16.16v.16M229.92 529.922v-.16l-.16-.16v-.16l-.16-.16v-.16M234.24 529.282l-1.12-2.08-1.76-1.76M230.72 525.122l.64.32M234.24 529.282 330.4 904.48M213.92 530.722 301.6 911.68M228 526.562v-.64l-.16-.16v-.16l-.16-.16-.16-.16v-.16l-.16-.16-.16-.16h-.16l-.16-.16-.16-.16h-.16l-.16-.16h-.16l-.32-.16h-.16l-.16-.16h-.48l-.16-.16h-2.08l-.16.16h-.48l-.16.16h-.16l-.32.16h-.16l-.16.16h-.16l-.16.16-.16.16h-.16l-.16.16v.16l-.16.16h-.16v.16l-.16.16v.16l-.16.16v.48l-.16.16v.16l.16.16v.32l.16.16v.16l.16.16v.16l.16.16h.16l.16.16v.16l.16.16h.16l.16.16h.16l.32.16.16.16h.32l.32.16h.32l.32.16h1.76l.16-.16h.48l.16-.16h.48l.16-.16h.16l.16-.16.16-.16h.16l.16-.16.16-.16.16-.16h.16v-.16l.16-.16.16-.16v-.16l.16-.16v-.64M218.24 527.682v2.56M218.24 530.242v.48l.16.32M229.44 530.882l.16-.16v-.48" style="fill:none;stroke:#00ff4a;stroke-width:.479999;stroke-linecap:round;stroke-linejoin:round;stroke-miterlimit:10;stroke-dasharray:none;stroke-opacity:1;visibility:visible" visibility="hidden"/><path d="M218.24 527.682v.48l.16.32v.32l.16.16.16.16v.16l.16.16.16.16.16.16v.16h.16l.32.16.16.16.16.16.16.16h.16l.32.16.16.16h.16l.32.16h.16l.32.16h.48l.32.16h2.88l.16-.16h.32l.16-.16h.48l.32-.16.16-.16h.32l.16-.16.16-.16h.16l.16-.16.32-.16.16-.16.16-.16v-.16l.16-.16.16-.16.16-.16v-.16l.16-.16.16-.16v-.32l.16-.16v-.48" style="fill:none;stroke:#00ff4a;stroke-width:.479999;stroke-linecap:round;stroke-linejoin:round;stroke-miterlimit:10;stroke-dasharray:none;stroke-opacity:1;visibility:visible" visibility="hidden"/><path d="M229.6 530.242v-3.2l-.16-.16v-.32l-.16-.16v-.32h-.16v-.16l-.16-.16v-.16h-.16v-.16l-.16-.16-.16-.16-.16-.16-.32-.16-.16-.16-.16-.16-.16-.16-.32-.16h-.16l-.16-.16h-.32l-.16-.16h-.32l-.16-.16h-.32l-.16-.16h-3.04l-.32.16h-.16l-.32.16h-.16l-.16.16h-.32l-.16.16-.32.16h-.16l-.16.16-.16.16-.32.16-.16.16-.16.16-.16.16v.16h-.16v.16h-.16v.16l-.16.16v.16l-.16.16v.16l-.16.16v.48h-.16v.64M326.72 916.32h.16M326.72 916.64h.16M326.72 916.48h.16" style="fill:none;stroke:#00ff4a;stroke-width:.479999;stroke-linecap:round;stroke-linejoin:round;stroke-miterlimit:10;stroke-dasharray:none;stroke-opacity:1;visibility:visible" visibility="hidden"/><path d="M326.72 916.48h.16v-.16h-.16v.16" style="fill:none;fill-opacity:1;fill-rule:evenodd;stroke:#00ff4a;stroke-width:1.33333;visibility:visible" visibility="hidden"/><path d="M326.4 916.48h.16M326.72 916.48h.16" style="fill:none;stroke:#00ff4a;stroke-width:.479999;stroke-linecap:round;stroke-linejoin:round;stroke-miterlimit:10;stroke-dasharray:none;stroke-opacity:1;visibility:visible" visibility="hidden"/><path d="M326.4 916.64h.16v-.16h-.16v.16" style="fill:none;fill-opacity:1;fill-rule:evenodd;stroke:#00ff4a;stroke-width:1.33333;visibility:visible" visibility="hidden"/><path d="M326.56 916h.16M326.56 916.32h.16M326.56 916.16h.16M326.56 916.48h.16" style="fill:none;stroke:#00ff4a;stroke-width:.479999;stroke-linecap:round;stroke-linejoin:round;stroke-miterlimit:10;stroke-dasharray:none;stroke-opacity:1;visibility:visible" visibility="hidden"/><path d="M326.56 916.16h.16V916h-.16v.16" style="fill:none;fill-opacity:1;fill-rule:evenodd;stroke:#00ff4a;stroke-width:1.33333;visibility:visible" visibility="hidden"/><path d="M326.24 916.16h.16M326.56 916.16h.16" style="fill:none;stroke:#00ff4a;stroke-width:.479999;stroke-linecap:round;stroke-linejoin:round;stroke-miterlimit:10;stroke-dasharray:none;stroke-opacity:1;visibility:visible" visibility="hidden"/><path d="M326.24 916.32h.16v-.16h-.16v.16" style="fill:none;fill-opacity:1;fill-rule:evenodd;stroke:#00ff4a;stroke-width:1.33333;visibility:visible" visibility="hidden"/><path d="M326.4 915.68h.16M326.4 916h.16M326.4 915.84h.16M326.4 916.16h.16" style="fill:none;stroke:#00ff4a;stroke-width:.479999;stroke-linecap:round;stroke-linejoin:round;stroke-miterlimit:10;stroke-dasharray:none;stroke-opacity:1;visibility:visible" visibility="hidden"/><path d="M326.4 915.84h.16v-.16h-.16v.16" style="fill:none;fill-opacity:1;fill-rule:evenodd;stroke:#00ff4a;stroke-width:1.33333;visibility:visible" visibility="hidden"/><path d="M326.4 915.84h.16" style="fill:none;stroke:#00ff4a;stroke-width:.479999;stroke-linecap:round;stroke-linejoin:round;stroke-miterlimit:10;stroke-dasharray:none;stroke-opacity:1;visibility:visible" visibility="hidden"/><path d="M326.24 915.84v.16h-.16" style="fill:none;fill-opacity:1;fill-rule:evenodd;stroke:#00ff4a;stroke-width:1.33333;visibility:visible" visibility="hidden"/><path d="M326.24 915.84h.16M316.48 921.76l-9.12 6.88M330.56 912.32l-1.6 8.48M328.96 920.8l1.6 8.96M328.96 920.8l2.72 8.32M330.4 904.48l-.8 3.2M218.24 530.242v-1.12M229.6 530.242v-1.12M316.48 921.76l-14.88-10.08M229.6 527.682l-1.6-1.12M229.92 529.922l-1.92-3.36" style="fill:none;stroke:#00ff4a;stroke-width:.479999;stroke-linecap:round;stroke-linejoin:round;stroke-miterlimit:10;stroke-dasharray:none;stroke-opacity:1;visibility:visible" visibility="hidden"/><path d="m468.479 965.12-9.76-3.2" style="fill:none;stroke:red;stroke-width:.479999;stroke-linecap:round;stroke-linejoin:round;stroke-miterlimit:10;stroke-dasharray:none;stroke-opacity:1;visibility:visible"/></svg>