<svg xmlns="http://www.w3.org/2000/svg" baseProfile="full" height="1122.667" preserveAspectRatio="xMinYMin meet" style="width:765px;height:943px" width="793.333" xml:space="preserve"><path d="M516.16 941.44 504 938.4M502.56 929.76l3.68-20.64M604.64 522.08v-.16h-.48M604 522.4l-.16-.16h-.16v.16M617.6 531.68v-.32l-.16-.16v-.16l-.16-.16-.16-.16M618.24 531.2l-.16-.16v-.32h-.16v-.16h-.16v-.16h-.16M605.28 526.08v.16l-.16.16v.32l-.16.16M616.96 526.88v-.32l-.16-.32v-.16l-.16-.16M506.4 915.2l-.8 3.04v.64l-.16.16v1.28l-.16.16v1.92l-.16.32v3.04l-2.08 11.68-.48-7.68M506.24 926.56 504 938.4l-.96-.96M617.6 530.4l-.48.32" style="fill:none;stroke:red;stroke-width:.48;stroke-linecap:round;stroke-linejoin:round;stroke-miterlimit:10;stroke-dasharray:none;stroke-opacity:1;visibility:visible" visibility="hidden"/><path d="M605.28 524.96v.16l-.16.16v.32l-.16.16v.96l.16.16v.48l.16.16v.16l.16.16.16.16.16.16.16.16.16.16.16.16.16.16.16.16.16.16.32.16h.16l.16.16.32.16h.16l.32.16.16.16h.64l.16.16h.64l.32.16H612l.32-.16h.48l.32-.16h.32l.16-.16h.32l.32-.16h.16l.32-.16.16-.16.16-.16h.32l.16-.16.16-.16.16-.16.16-.16.16-.16.16-.16.16-.16.16-.16v-.16l.16-.16v-.32l.16-.16v-.32l.16-.16v-.64l-.16-.16v-.32l-.16-.16v-.32l-.16-.16M506.24 901.28v1.44l.16.16v.48l.16.16.16.16v.32l.16.16.16.16.16.32.16.16.16.16.16.16.32.16.16.32.16.16.32.16M508.48 906.4l.16-.48M509.76 906.72l-.16.48M509.76 906.72l.32.16.32.16.16.16.32.16h.32l.32.16.32.16.32.16.32.16h.32l.48.16h.32l.32.16h.32l.32.16h.48l.32.16h.64l.32.16h3.2l.32-.16h.64l.32-.16h.32l.32-.16h.32l.16-.16" style="fill:none;stroke:red;stroke-width:.48;stroke-linecap:round;stroke-linejoin:round;stroke-miterlimit:10;stroke-dasharray:none;stroke-opacity:1;visibility:visible" visibility="hidden"/><path d="M617.6 531.68 520.32 918.4l.16-.8.16-.8.16-.8v-.96l.16-.8.16-.64.16-.8.16-.8v-.8l.16-.8.16-.64.16-.8v-.8M572.32 684v.48l-.16.16v.32l-.16.16v.32l-.16.48-.16.48-.16.32-.32.48-.16.48-.16.32v.16l-.16.32-.16.16-.16.16v.32l-.16.16-.16.16-.16.32-.16.16v.16l-.16.32-.16.16-.16.16-.16.16-.16.16-.16.16-.16.32-.16.16-.16.16-.16.16-.16.16-.16.16-.32.16-.16.16-.16.16-.16.16-.16.16-.32.16-.16.16h-.16l-.16.16-.32.16h-.16l-.32.16h-.32l-.32.16h-1.28l-.16-.16h-.32v-.16h-.16l-.16-.16h-.16l-.16-.16-.16-.16-.16-.16-.16-.16v-.16h-.16v-.16l-.16-.16v-.16l-.16-.16V692l-.16-.16v-.32l-.16-.32v-.48l-.16-.16v-4l.16-.16v-.64l.16-.48v-.48l.16-.64v-.48l.16-.48v-.64l.16-.48.16-.48.16-.64v-.48l.16-.48.16-.48.16-.48v-.48l.16-.32v-.48l.16-.16M569.92 648.64l.16-.48.16-.32.16-.96.16-.48.16-.48v-.32l.16-.48.16-.48.16-.32.16-.48v-.32l.16-.32v-.16l.16-.16v-.16l.16-.16v-.32l.16-.16.16-.32v-.16l.16-.16v-.16l.16-.16v-.16l.16-.16.16-.16.16-.16v-.16h.16l.16-.16.16-.16h.16l.16-.16h1.28l.16.16h.16l.16.16h.16l.16.16.16.16.32.16h.16l.16.16.16.32.16.16.16.16.16.16.32.16.16.32.16.16.16.32v.16l.16.16.16.32.16.16.16.32.16.16v.32l.16.16.16.32v.16l.16.32v.16l.16.32v.32l.16.16v.32l.16.16v.48l.16.32v.48l.16.16v1.76l.16.32v.64l-.16.32v1.76l-.16.48v.48l-.16.48v.16l-.16.32v.48M617.6 531.68l.64-.48M524 938.24l-7.84 3.2 4.16-23.04M617.6 530.4l.32-.32.16-.16.32-.16.16-.16.16-.16.16-.16.32-.32.16-.16.16-.16.16-.32v-.16l.16-.16.16-.32.16-.16v-.48l.16-.16v-1.92l-.16-.16v-.32l-.16-.16V524l-.16-.16-.16-.16-.16-.32-.16-.16-.16-.16-.16-.16-.16-.32-.16-.16-.32-.16-.16-.16-.32-.16-.16-.16-.32-.16-.16-.16-.32-.16-.32-.16h-.32l-.32-.16-.16-.16-.32-.16h-.32l-.32-.16h-.32l-.32-.16h-.8l-.32-.16h-3.2l-.32.16h-.64l-.32.16h-.32l-.48.16h-.32l-.32.16-.32.16h-.32l-.16.16-.32.16-.32.16-.32.16-.32.16-.16.16-.32.16M604 522.4l.64-.32M604 522.4l-.16.16-.32.16-.16.16-.16.32-.32.16-.16.16-.16.16-.16.32-.16.16-.16.16-.16.32-.16.16v.16l-.16.32-.16.16v.48l-.16.32v1.28l.16.32v.16l.16.32v.16l.16.16v.32l.16.16.16.16.16.32.16.16.16.16.16.16.32.16.16.32.16.16.32.16.16.16.32.16.32.16.16.16h.32l.32.16.32.16.32.16h.32l.32.16h.32l.32.16h.32l.32.16h.64l.32.16h2.56l.32-.16h.64l.48-.16h.64l.32-.16.32-.16h.32l.32-.16.32-.16h.32l.32-.16.32-.16.32-.16.16-.16.32-.16.32-.16M532.16 913.28l86.08-382.08.16-.16.32-.16.16-.16.16-.16.32-.16.16-.16.16-.32.16-.16.16-.16.16-.32.16-.16.16-.16.16-.32v-.16l.16-.16.16-.32v-.48" style="fill:none;stroke:red;stroke-width:.48;stroke-linecap:round;stroke-linejoin:round;stroke-miterlimit:10;stroke-dasharray:none;stroke-opacity:1;visibility:visible" visibility="hidden"/><path d="m569.92 648.64 9.76 6.56-7.36 28.8-9.6-6.4 7.2-28.96M600.64 526.24v.48l-.16.16v.8l.16.16v.48l.16.32v.16l.16.32v.16l.16.16.16.32.16.16.16.16.16.32.16.16.16.16.32.16.16.32.32.16.16.16.32.16.16.16.32.16.32.16.16.16.32.16.32.16h.32l.32.16.32.16h.32l.32.16h.48l.32.16h.32l.32.16h.8l.32.16h2.56l.32-.16h.8l.32-.16h.32l.48-.16h.32l.32-.16h.32l.32-.16.32-.16.32-.16h.32l.32-.16.32-.16.32-.16.16-.16.32-.16M507.2 904.48l-.16.8-.16.64-.16.8-.16.8-.16.8-.16.8M538.56 894.24l82.4-366.72M600.64 526.24l-94.4 375.04M603.68 522.4l.48-.48M603.68 522.4l-1.92 1.6-1.12 2.24M509.6 907.2l-1.92 10.4-.16-.16-.16-.16-.16-.16-.16-.16h-.16l-.16-.16M509.6 907.2l-.16-.16v-.16h-.16v-.16h-.16v-.16h-.16l-.16-.16h-.32M508.48 906.4l-1.76 10.4" style="fill:none;stroke:red;stroke-width:.48;stroke-linecap:round;stroke-linejoin:round;stroke-miterlimit:10;stroke-dasharray:none;stroke-opacity:1;visibility:visible" visibility="hidden"/><path d="m572.96 672.8.16-.32v-1.28l-.16-.16v-.48l-.16-.16v-.16l-.16-.16v-.16l-.16-.16-.16-.16v-.16l-.16-.16-.16-.16-.16-.16h-.16l-.16-.16v-.16h-.16l-.16-.16h-.32l-.16-.16h-.64v.16h-.32l-.16.16h-.16v.16l-.16.16h-.16v.16l-.16.16v.32l-.16.16v.48l-.16.16v.64l.16.16v.64l.16.16v.16l.16.16v.32l.16.16v.16l.16.16.16.16.16.16.16.16.16.16.16.16h.16l.16.16h.16v.16h1.12l.16-.16h.16l.16-.16h.16v-.16l.16-.16v-.16h.16v-.16l.16-.16v-.32M615.2 523.36v-.32l-.16-.16v-.32l-.16-.16-.16-.16-.16-.16v-.16l-.16-.16-.16-.16h-.16l-.16-.16-.16-.16h-.32l-.16-.16h-.16l-.16-.16h-.32l-.16-.16h-.64l-.32-.16h-1.12l-.32.16h-.32l-.32.16h-.48l-.16.16h-.16l-.16.16-.16.16h-.16l-.16.16-.16.16h-.16l-.16.16-.16.16-.16.16v.16l-.16.16v.16l-.16.16v.96l.16.16v.32l.16.16.16.16v.16l.16.16.16.16h.16l.16.16.16.16h.16l.16.16.16.16h.32l.16.16h.48l.16.16h2.56l.16-.16h.32l.16-.16h.16l.32-.16h.16l.16-.16.16-.16h.16l.16-.16.16-.16.16-.16h.16v-.16l.16-.16v-.16l.16-.16v-.32l.16-.16v-.32M605.28 524.64v2.56M605.28 527.2v.16l.16.16v.32M616.64 527.84v-.8" style="fill:none;stroke:red;stroke-width:.48;stroke-linecap:round;stroke-linejoin:round;stroke-miterlimit:10;stroke-dasharray:none;stroke-opacity:1;visibility:visible" visibility="hidden"/><path d="M605.28 524.64v.16l.16.16v.48l.16.16v.16l.16.32.16.16.16.16v.16l.16.16h.16l.16.16.32.16.16.16.16.16.16.16h.32l.16.16.32.16h.16l.32.16h.48l.32.16h.48l.32.16h1.28l.32-.16h.8l.32-.16h.16l.32-.16h.32l.16-.16h.32l.16-.16.16-.16h.32l.16-.16.16-.16.16-.16.16-.16.16-.16.16-.16.16-.16.16-.16.16-.16v-.16l.16-.16v-.16l.16-.16v-.8" style="fill:none;stroke:red;stroke-width:.48;stroke-linecap:round;stroke-linejoin:round;stroke-miterlimit:10;stroke-dasharray:none;stroke-opacity:1;visibility:visible" visibility="hidden"/><path d="M616.64 527.04v-3.36l-.16-.16v-.32l-.16-.16v-.16l-.16-.16-.16-.16-.16-.16v-.16l-.16-.16-.16-.16-.16-.16-.16-.16-.16-.16-.32-.16h-.16l-.16-.16-.32-.16h-.16l-.16-.16-.32-.16h-.48l-.16-.16h-.48l-.32-.16h-2.08l-.16.16h-.48l-.32.16h-.16l-.32.16h-.16l-.32.16h-.16l-.16.16-.32.16-.16.16h-.16l-.16.16-.16.16-.16.16-.32.16v.32h-.16v.16h-.16v.16l-.16.16v.16l-.16.16v.16l-.16.16v.64l-.16.16v.32M605.28 527.2v-1.12M618.24 531.2l-1.6-5.28M506.24 909.12l.16 6.08M502.56 929.76l3.68-3.2M572.96 672.8l6.72-17.6M532.16 913.28l-11.84 5.12M520.32 918.4l11.84-5.12M506.24 901.28l.96 3.2M579.68 655.2l-6.72 17.6M616.64 524.48l-1.44-1.12M616.96 526.88l-1.76-3.52" style="fill:none;stroke:red;stroke-width:.48;stroke-linecap:round;stroke-linejoin:round;stroke-miterlimit:10;stroke-dasharray:none;stroke-opacity:1;visibility:visible" visibility="hidden"/><path d="m456.48 1013.44-.16.16H456l-.16.16h-.16l-.32.16-.16.16h-.16l-.16.16-.16.16-.32.16-.16.16-.16.16-.16.16-.32.16-.16.16-.16.16-.16.32-.16.16-.16.16-.16.32M378.4 1016.64l-.16-.16-.16-.32-.32-.16-.16-.16-.16-.16-.16-.32-.16-.16-.16-.16-.16-.16-.32-.16-.16-.16-.16-.16-.16-.16-.16-.16h-.32l-.16-.16-.16-.16h-.16l-.16-.16h-.16l-.16-.16h-.48M454.56 1014.56l.48-.48" style="fill:none;stroke:#00ff4a;stroke-width:.48;stroke-linecap:round;stroke-linejoin:round;stroke-miterlimit:10;stroke-dasharray:none;stroke-opacity:1;visibility:visible"/><path d="M454.56 1014.56h-.16l-.32.16-.16.16-.16.16-.16.16h-.16l-.16.16-.16.16-.16.32-.16.16-.16.16-.16.16-.16.16-.16.16M389.6 949.92l.64-.16v.64M390.24 950.4l-.64.16M378.72 1016.96l-.16-.32-.16-.16-.16-.16-.16-.16-.16-.32-.16-.16-.16-.16-.16-.16-.16-.16-.16-.16-.16-.16-.32-.16-.16-.16h-.16l-.16-.16-.48-.32M389.6 946.4l.64-.16v.48M390.24 946.72l-.64.32" style="fill:none;stroke:#00ff4a;stroke-width:.48;stroke-linecap:round;stroke-linejoin:round;stroke-miterlimit:10;stroke-dasharray:none;stroke-opacity:1;visibility:visible"/><path d="m390.24 949.76-.16-.16-.48.32v.64M389.6 942.88l.48-.16v.48M390.08 943.2l-.48.32M390.24 946.24l-.16-.16-.48.32v.64M389.6 939.36l.48-.32v.64M390.08 939.68l-.48.32" style="fill:none;stroke:#00ff4a;stroke-width:.48;stroke-linecap:round;stroke-linejoin:round;stroke-miterlimit:10;stroke-dasharray:none;stroke-opacity:1;visibility:visible"/><path d="M390.08 942.72v-.16l-.48.32v.64M389.6 935.84l.48-.32v.64M390.08 936.16l-.48.16M390.08 939.04l-.48.32v.64M477.28 970.08h.16v-.64h-.16v.64M477.12 969.12l.16.32M477.28 970.08l-.16-.32M477.6 972.96l-.48-.32v.64M477.6 973.6h-.16v-.48l.16-.16v.64M477.12 972.64l.32.48M477.44 973.6l-.32-.32M477.6 976.48l-.48-.32v.64M477.6 977.12h-.16v-.48l.16-.16v.64M477.12 976.16l.32.48M477.44 977.12l-.32-.32" style="fill:none;stroke:#00ff4a;stroke-width:.48;stroke-linecap:round;stroke-linejoin:round;stroke-miterlimit:10;stroke-dasharray:none;stroke-opacity:1;visibility:visible"/><path d="m390.08 935.52-.48.32v.48M477.28 966.56h.16v-.64h-.16v.64M477.12 965.6l.16.32M477.28 966.56l-.16-.32M477.44 969.44l-.32-.32v.64M477.28 963.04h.16v-.64h-.16v.64M476.96 962.08l.32.32M477.28 963.04l-.32-.32" style="fill:none;stroke:#00ff4a;stroke-width:.48;stroke-linecap:round;stroke-linejoin:round;stroke-miterlimit:10;stroke-dasharray:none;stroke-opacity:1;visibility:visible"/><path d="m477.44 965.92-.32-.32v.64M441.6 949.76v-.16M442.08 950.56l-.48-.16v-.64l.48.16M477.44 962.4l-.48-.32v.64M441.6 946.24v-.16M442.08 947.04l-.48-.16v-.64l.48.16" style="fill:none;stroke:#00ff4a;stroke-width:.48;stroke-linecap:round;stroke-linejoin:round;stroke-miterlimit:10;stroke-dasharray:none;stroke-opacity:1;visibility:visible"/><path d="M442.08 950.56v-.64l-.48-.32M441.44 942.72l.16-.16M442.08 943.52l-.64-.16v-.64l.64.16M442.08 947.04v-.64l-.48-.32M441.44 939.2l.16-.16M441.92 940l-.48-.16v-.64l.48.16" style="fill:none;stroke:#00ff4a;stroke-width:.48;stroke-linecap:round;stroke-linejoin:round;stroke-miterlimit:10;stroke-dasharray:none;stroke-opacity:1;visibility:visible"/><path d="M442.08 943.52v-.64l-.48-.32M441.44 935.68l.16-.16M441.92 936.48l-.48-.32v-.48l.48.16M441.92 940v-.64l-.32-.32M460.32 1034.24v-.64l-.16-.32v-.16l-.16-.16v-.32l-.16-.16-.16-.32v-.16l-.16-.16-.16-.32-.16-.16-.16-.16-.32-.16-.16-.16-.16-.32-.16-.16-.32-.16-.16-.16-.32-.16h-.16l-.32-.16-.32-.16-.32-.16h-.16l-.32-.16-.32-.16h-.64l-.32-.16h-.8l-.32-.16h-.96l-.32.16h-.96l-.32.16h-.32l-.32.16h-.32l-.32.16-.16.16h-.32l-.32.16-.16.16-.32.16-.16.16-.32.16-.16.16-.32.16-.16.16-.16.16-.16.32-.16.16-.16.16-.16.16-.16.32-.16.16-.16.16v.32l-.16.16v.32l-.16.16v1.6l.16.32v.48l.16.16.16.32v.16l.16.16.16.32.16.16.16.16.16.16.16.32.32.16.16.16.16.16.32.16.16.16.32.16.16.16h.32l.32.16.16.16.32.16h.32l.32.16h.32l.32.16h.48l.32.16h1.92l.32-.16h.64l.32-.16h.32l.32-.16h.32l.16-.16h.32l.32-.16.16-.16.32-.16.32-.16.16-.16.32-.16.16-.16.16-.16.32-.16.16-.16.16-.16.16-.32.16-.16.16-.16.16-.16.16-.32v-.16l.16-.32.16-.16v-.48l.16-.16v-.8M493.76 1027.84v1.28M493.76 1027.84l-157.12-.16v2.08M338.4 1034.72h-.16M343.84 1066.4l2.24-.16 2.24-.16 2.08-.16 2.24-.16 2.24-.16 2.24-.16 2.24-.16h2.24l2.24-.16 2.24-.16h2.24l2.24-.16h4.32l2.24-.16h73.92l2.24.16h4.48l2.24.16h2.24l2.24.16h2.24l2.24.16 2.24.16 2.24.16h2.08l2.24.16 2.24.16 2.24.16 2.24.16 2.24.32M339.36 1041.12l151.52.16" style="fill:none;stroke:#00ff4a;stroke-width:.48;stroke-linecap:round;stroke-linejoin:round;stroke-miterlimit:10;stroke-dasharray:none;stroke-opacity:1;visibility:visible"/><path d="M441.92 936.48v-.64l-.32-.32M460.32 1035.04l-.16-.16v-.32l-.16-.16v-.32l-.16-.16-.16-.16v-.32l-.16-.16-.16-.16-.16-.16-.16-.32-.32-.16-.16-.16-.16-.16-.16-.16-.32-.16-.16-.16-.32-.16-.16-.16-.32-.16-.32-.16h-.16l-.32-.16h-.32l-.32-.16-.32-.16h-.48l-.32-.16h-2.56l-.32.16h-.64l-.32.16h-.32l-.16.16h-.32l-.32.16-.32.16-.16.16h-.32l-.32.16-.16.16-.32.16-.16.16-.16.16-.32.16-.16.32-.16.16-.16.16-.16.16-.16.16-.16.32-.16.16v.32l-.16.16-.16.16v.48l-.16.32M384.8 1034.24v-.32l-.16-.16v-.48l-.16-.16v-.32l-.16-.16v-.32l-.16-.16-.16-.16-.16-.32-.16-.16-.16-.16-.16-.32-.16-.16-.16-.16-.16-.16-.32-.16-.16-.16-.32-.16-.16-.16-.32-.16-.16-.16h-.32l-.32-.16-.32-.16h-.16l-.32-.16h-.32l-.32-.16h-.64l-.32-.16h-2.24l-.32.16h-.64l-.16.16h-.32l-.32.16-.32.16h-.32l-.16.16-.32.16-.32.16-.16.16h-.32l-.16.16-.32.32-.16.16-.16.16-.16.16-.32.16-.16.16-.16.32-.16.16v.16l-.16.32-.16.16-.16.16v.32l-.16.16v.8l-.16.16v.32l.16.16v.64l.16.32v.16l.16.32v.16l.16.16.16.32.16.16.16.16.16.32.16.16.16.16.16.16.16.16.32.16.16.16.32.16.16.16.32.16.32.16.16.16.32.16h.32l.32.16h.16l.32.16h.32l.32.16h3.2l.32-.16h.48l.32-.16h.32l.32-.16.32-.16.16-.16h.32l.32-.16.16-.16.32-.16.16-.16.32-.16.16-.16.16-.16.32-.16.16-.32.16-.16.16-.16.16-.16.16-.32v-.16l.16-.32.16-.16v-.16l.16-.32v-.64l.16-.32v-.16M422.56 1034.24v-.48l-.16-.16v-.48l-.16-.32v-.16l-.16-.16-.16-.32-.16-.16v-.32l-.16-.16-.16-.16-.32-.16-.16-.16-.16-.32-.16-.16-.32-.16-.16-.16-.32-.16-.16-.16-.32-.16h-.16l-.32-.16-.32-.16-.16-.16h-.32l-.32-.16h-.32l-.32-.16h-.64l-.32-.16h-1.92l-.32.16h-.48l-.32.16h-.32l-.32.16h-.32l-.32.16h-.16l-.32.16-.32.16-.16.16-.32.16-.32.16-.16.16-.16.16-.32.16-.16.16-.16.16-.16.16-.16.32-.32.16v.16l-.16.16-.16.32-.16.16v.32l-.16.16v.16l-.16.32v1.92l.16.16v.32l.16.16v.16l.16.32.16.16.16.16.16.32.16.16.16.16.16.16.16.16.32.32.16.16.16.16.32.16.16.16h.32l.32.16.16.16.32.16h.32l.32.16.32.16h.48l.32.16h.64l.32.16h1.28l.32-.16h.96l.32-.16h.32l.32-.16h.16l.32-.16.32-.16h.32l.16-.16.32-.16.16-.16.32-.16.16-.16.32-.16.16-.16.32-.16.16-.16.16-.16.16-.32.16-.16.16-.16.16-.32v-.16l.16-.16.16-.32v-.16l.16-.32v-.48l.16-.16v-.48" style="fill:none;stroke:#00ff4a;stroke-width:.48;stroke-linecap:round;stroke-linejoin:round;stroke-miterlimit:10;stroke-dasharray:none;stroke-opacity:1;visibility:visible"/><path d="M456 1035.84v-.32l-.16-.16v-.32l-.16-.16-.16-.16-.16-.16v-.16h-.16l-.16-.16-.16-.16h-.16l-.16-.16h-.16l-.16-.16h-.48l-.16-.16h-1.44l-.16.16h-.32l-.16.16h-.16l-.16.16h-.16l-.16.16-.16.16-.16.16h-.16v.16l-.16.16v.16l-.16.16v.16h-.16v.96l.16.16v.16l.16.16v.16h.16v.16l.16.16.16.16h.16l.16.16h.16l.16.16h.16l.16.16h.16l.32.16h1.44l.32-.16h.32l.16-.16h.16l.16-.16h.16l.16-.16.16-.16h.16l.16-.16v-.16l.16-.16v-.16h.16v-.16l.16-.16v-.48M384.64 1035.04v-.32l-.16-.16v-.32l-.16-.16v-.16l-.16-.32-.16-.16-.16-.16-.16-.32-.16-.16-.16-.16-.16-.16-.16-.16-.16-.32-.32-.16-.16-.16-.32-.16h-.16l-.32-.16-.16-.16-.32-.16-.32-.16h-.32l-.16-.16H380l-.32-.16h-.32l-.32-.16h-.96l-.32-.16h-.64l-.32.16h-1.12l-.32.16h-.32l-.32.16h-.32l-.32.16-.16.16h-.32l-.32.16-.16.16-.32.16-.16.16-.32.16-.16.16-.32.16-.16.16-.16.16-.16.16-.16.32-.16.16-.16.16-.16.16-.16.32-.16.16v.16l-.16.32v.16l-.16.32v.16M422.4 1035.04v-.48l-.16-.16v-.32l-.16-.16-.16-.32-.16-.16v-.16l-.16-.16-.16-.32-.32-.16-.16-.16-.16-.16-.16-.16-.32-.16-.16-.16-.32-.16-.16-.16-.32-.16-.16-.16-.32-.16h-.32l-.16-.16-.32-.16h-.32l-.32-.16h-.64l-.32-.16h-2.72l-.32.16h-.64l-.32.16-.32.16H412l-.32.16-.32.16h-.32l-.16.16-.32.16-.16.16-.32.16-.16.16-.16.16-.32.16-.16.16-.16.32-.16.16-.16.16-.16.16-.16.32-.16.16-.16.16v.32l-.16.16v.32l-.16.16v.16M337.12 1007.68v.48l.16.16v.16l.16.16.16.16v.16l.16.16h.16l.16.16.16.16h.16l.16.16h.16l.16.16h.32l.32.16h1.12l.16-.16h.48l.16-.16h.32l.16-.16.16-.16h.16l.16-.16.16-.16.16-.16.16-.16v-.16l.16-.16v-.32h.16v-.64l-.16-.16v-.32l-.16-.16v-.16h-.16l-.16-.16v-.16l-.16-.16h-.16l-.16-.16-.16-.16h-.16l-.16-.16h-.48l-.16-.16h-1.76l-.16.16h-.16l-.16.16h-.16l-.32.16h-.16v.16h-.16l-.16.16-.16.16-.16.16v.16h-.16v.32l-.16.16v.48M337.44 951.68v.48l.16.16v.16l.16.16v.16h.16v.16l.16.16.16.16h.16l.16.16.16.16h.16l.16.16h.32l.16.16h1.92l.16-.16h.16l.16-.16h.16l.16-.16h.16l.16-.16.16-.16h.16l.16-.16v-.16l.16-.16.16-.16v-.32l.16-.16v-.64l-.16-.16v-.32h-.16v-.16l-.16-.16-.16-.16v-.16h-.16l-.16-.16-.16-.16h-.16l-.16-.16h-.16l-.16-.16h-.48l-.16-.16H340l-.32.16h-.48l-.16.16h-.16l-.16.16-.16.16h-.16l-.16.16-.16.16h-.16v.16l-.16.16-.16.16v.32l-.16.16v.32M336.64 1029.76v-2.08h12M337.28 918.24h-6.08l-.64 94.24M338.72 1042.56l5.12 23.84M338.4 1034.72v.32M491.84 1034.88v-.16M486.72 1066.56l4.8-23.84M491.84 1034.72h.16" style="fill:none;stroke:#00ff4a;stroke-width:.48;stroke-linecap:round;stroke-linejoin:round;stroke-miterlimit:10;stroke-dasharray:none;stroke-opacity:1;visibility:visible"/><path d="M380.32 1035.84v-.64l-.16-.16v-.16l-.16-.16v-.16h-.16l-.16-.16-.16-.16v-.16h-.16l-.16-.16h-.16l-.16-.16h-.48l-.16-.16h-1.76l-.16.16h-.48l-.16.16h-.16l-.16.16-.16.16h-.16v.16l-.16.16-.16.16-.16.16v.16l-.16.16v1.28h.16v.16l.16.16v.16l.16.16.16.16h.16l.16.16v.16h.16l.32.16h.16l.16.16h.48l.32.16h.96l.16-.16h.32l.32-.16h.16l.16-.16h.16l.16-.16h.16l.16-.16v-.16h.16l.16-.16.16-.16v-.32l.16-.16v-.48M418.24 1035.84v-.16l-.16-.16v-.48l-.16-.16v-.16h-.16l-.16-.16v-.16l-.16-.16h-.16l-.16-.16-.16-.16h-.16l-.16-.16h-.48l-.16-.16h-1.6l-.16.16h-.32l-.16.16h-.32l-.16.16h-.16v.16l-.16.16h-.16l-.16.16-.16.16v.16l-.16.16v.16l-.16.16v.96l.16.16v.32h.16l.16.16v.16l.16.16h.16l.16.16.16.16h.16l.16.16h.16l.16.16h.32l.32.16h1.28l.32-.16h.32l.16-.16h.16l.16-.16h.16l.16-.16.16-.16.16-.16.16-.16.16-.16v-.16l.16-.16v-.16l.16-.16v-.32M347.68 950.88v-.48l-.16-.16v-.32l-.16-.16-.16-.16v-.32l-.16-.16-.16-.16-.16-.16-.16-.32-.32-.16-.16-.16-.16-.16-.16-.16-.32-.16-.16-.16-.32-.16-.32-.16-.16-.16h-.32l-.32-.16-.16-.16h-.32l-.32-.16h-.32l-.32-.16h-.32l-.16-.16h-2.56l-.32.16h-.64l-.32.16h-.32l-.16.16h-.32l-.32.16-.32.16-.16.16h-.32l-.32.16-.16.16-.32.16-.16.16-.16.16-.32.16-.16.32-.16.16-.16.16-.16.16-.16.32-.16.16-.16.16v.32l-.16.16-.16.16v.48l-.16.32M347.36 1006.88v-.48l-.16-.16v-.32l-.16-.16-.16-.32-.16-.16v-.16l-.16-.32-.16-.16-.32-.16-.16-.16-.16-.16-.16-.16-.32-.16-.16-.16-.16-.16-.32-.16-.32-.16-.16-.16-.32-.16-.32-.16h-.16l-.32-.16h-.32l-.32-.16h-.32l-.32-.16h-3.04l-.32.16h-.64l-.32.16h-.32l-.16.16-.32.16h-.32l-.16.16-.32.16-.32.16-.16.16-.32.16-.16.16-.16.16-.32.16-.16.16-.16.16-.16.32-.16.16-.16.16-.16.16-.16.32v.16l-.16.32-.16.16v.16l-.16.32v.16" style="fill:none;stroke:#00ff4a;stroke-width:.48;stroke-linecap:round;stroke-linejoin:round;stroke-miterlimit:10;stroke-dasharray:none;stroke-opacity:1;visibility:visible"/><path d="M347.84 950.08v-.48l-.16-.16v-.48l-.16-.16v-.32l-.16-.16-.16-.32v-.16l-.16-.16-.16-.32-.16-.16-.16-.16-.32-.16-.16-.16-.16-.16-.16-.32-.32-.16-.16-.16h-.32l-.32-.16-.16-.16-.32-.16-.32-.16h-.16l-.32-.16h-.32l-.32-.16h-.32l-.32-.16h-.96l-.32-.16h-.48l-.32.16h-1.28l-.32.16h-.32l-.32.16h-.32l-.32.16-.16.16h-.32l-.32.16-.16.16-.32.16-.16.16-.32.16-.16.16-.32.16-.16.16-.16.16-.16.32-.16.16-.16.16-.16.16-.16.32-.16.16-.16.16v.32l-.16.16v.32l-.16.16v1.6l.16.32v.48l.16.16.16.32v.16l.16.16.16.32.16.16.16.16.16.16.16.32.16.16.32.16.16.16.32.16.16.16.32.16.16.16.32.16h.32l.16.16.32.16h.32l.32.16h.32l.16.16h.64l.32.16h2.24l.32-.16h.64l.32-.16h.32l.16-.16.32-.16h.32l.32-.16.16-.16.32-.16.32-.16.16-.16.32-.16.16-.16.16-.16.32-.16.16-.16.16-.16.16-.16.16-.32.16-.16.16-.16.16-.32V952l.16-.16v-.32l.16-.16v-.32l.16-.16v-.8M385.76 922.88l-.16-.32v-.48l-.16-.16-.16-.16v-.32l-.16-.16-.16-.16-.16-.32-.16-.16-.16-.16-.16-.16-.32-.16-.16-.32-.16-.16-.32-.16-.16-.16h-.32l-.16-.16-.32-.16-.32-.16-.16-.16h-.32l-.32-.16h-.32l-.32-.16h-.16l-.32-.16h-.96l-.32-.16h-.64l-.32.16h-1.28l-.32.16H376l-.16.16h-.32l-.32.16-.32.16h-.16l-.32.16-.32.16-.16.16-.32.16-.16.16-.32.16-.16.16-.16.16-.32.16-.16.16-.16.32-.16.16-.16.16-.16.16v.32l-.16.16-.16.16v.32l-.16.16v.48M337.12 928.64l.16-10.4M392.48 951.36l46.88.16M494.4 928.8l-157.28-.16M338.4 915.2l154.88.16v3.04M349.12 994.72l.16-11.2M348.64 1027.68l.64-99.04v2.72M349.28 928.64h-12.16l.16-10.4M347.52 1006.08v-.48l-.16-.16v-.48l-.16-.32v-.16l-.16-.32-.16-.16-.16-.16v-.32l-.16-.16-.16-.16-.32-.16-.16-.32-.16-.16-.16-.16-.32-.16-.16-.16-.16-.16-.32-.16-.32-.16-.16-.16h-.32l-.32-.16-.16-.16h-.32l-.32-.16h-.32l-.32-.16h-.64l-.32-.16h-1.92l-.32.16h-.8l-.32.16h-.32l-.32.16-.32.16h-.16l-.32.16-.32.16-.16.16-.32.16-.32.16-.16.16-.16.16-.32.16-.16.16-.16.16-.16.16-.16.16-.16.32-.16.16-.16.16-.16.32-.16.16v.32l-.16.16v.16l-.16.32v1.92l.16.16v.16l.16.32.16.16v.32l.16.16.16.16.16.32.16.16.16.16.16.16.16.16.32.16.16.32.16.16.32.16h.32l.16.16.32.16.16.16.32.16h.32l.32.16h.32l.16.16h.32l.32.16h.96l.32.16h.64l.32-.16h1.28l.32-.16h.32l.32-.16h.16l.32-.16.32-.16h.32l.16-.16.32-.16.32-.16.16-.16.16-.16.32-.16.16-.16.32-.16.16-.16.16-.32.16-.16.16-.16.16-.16.16-.32.16-.16v-.16l.16-.32v-.16l.16-.32v-.48l.16-.16v-.48M460.48 922.88v-.48l-.16-.16v-.32l-.16-.16-.16-.16-.16-.32v-.16l-.16-.16-.16-.32-.32-.16-.16-.16-.16-.16-.16-.16-.32-.16-.16-.16-.16-.16-.32-.16-.32-.16-.16-.16-.32-.16h-.32l-.16-.16h-.32l-.32-.16-.32-.16h-.64l-.32-.16h-2.4l-.32.16h-.64l-.32.16h-.32l-.32.16h-.16l-.32.16-.32.16-.16.16h-.32l-.32.16-.16.16-.32.16-.16.16-.16.16-.32.16-.16.32-.16.16-.16.16-.16.16-.16.16-.16.32-.16.16v.16l-.16.32-.16.16v.32l-.16.16v.32" style="fill:none;stroke:#00ff4a;stroke-width:.48;stroke-linecap:round;stroke-linejoin:round;stroke-miterlimit:10;stroke-dasharray:none;stroke-opacity:1;visibility:visible"/><path d="M385.76 922.08v-.8l-.16-.16v-.48l-.16-.16-.16-.32V920l-.16-.16-.16-.32-.16-.16-.16-.16-.16-.32-.16-.16-.32-.16-.16-.16-.16-.16-.32-.16-.16-.16-.32-.16-.16-.16-.32-.16h-.32l-.16-.16-.32-.16h-.32l-.32-.16h-.32l-.32-.16h-.48l-.32-.16h-2.24l-.32.16h-.64l-.32.16h-.32l-.32.16-.16.16h-.32l-.32.16-.16.16-.32.16-.32.16h-.16l-.32.16-.16.32-.16.16-.32.16-.16.16-.16.16-.16.16-.16.32-.16.16-.16.16-.16.32v.16l-.16.16-.16.32v.48l-.16.16v1.44l.16.16v.32l.16.16v.32l.16.16.16.16v.32l.16.16.16.16.16.32.16.16.32.16.16.16.16.16.16.16.32.16.16.16.32.16.16.16.32.16.32.16.32.16h.16l.32.16h.32l.32.16h.32l.32.16h3.04l.32-.16h.64l.32-.16.32-.16h.32l.16-.16.32-.16h.32l.16-.16.32-.16.16-.16.32-.16.16-.16.32-.16.16-.16.16-.16.16-.32.16-.16.16-.16.16-.32.16-.16.16-.16.16-.32v-.16l.16-.16v-.32l.16-.16v-.96" style="fill:none;stroke:#00ff4a;stroke-width:.48;stroke-linecap:round;stroke-linejoin:round;stroke-miterlimit:10;stroke-dasharray:none;stroke-opacity:1;visibility:visible"/><path d="M375.36 923.68v.32l.16.16v.16l.16.16v.16l.16.16.16.16v.16h.16l.16.16.16.16h.16l.16.16h.32l.16.16h.48l.16.16h.96l.32-.16h.32l.16-.16h.16l.16-.16h.16l.16-.16h.16l.16-.16.16-.16h.16v-.16l.16-.16.16-.16v-.32l.16-.16v-.8l-.16-.16v-.16l-.16-.16v-.16l-.16-.16-.16-.16-.16-.16-.16-.16h-.16l-.16-.16H380l-.16-.16h-.32l-.16-.16h-1.92l-.16.16h-.32l-.16.16h-.16l-.16.16-.16.16h-.16l-.16.16-.16.16v.16h-.16v.16l-.16.16v.32l-.16.16v.32M460.64 922.08v-.48l-.16-.16v-.48l-.16-.16v-.32l-.16-.16-.16-.32-.16-.16v-.16l-.16-.32-.16-.16-.16-.16-.32-.16-.16-.16-.16-.32-.32-.16-.16-.16-.16-.16-.32-.16h-.32l-.16-.16-.32-.16-.32-.16h-.16l-.32-.16-.32-.16h-.64l-.32-.16h-.96l-.32-.16h-.96l-.32.16h-.8l-.32.16h-.32l-.32.16h-.32l-.32.16-.16.16h-.32l-.32.16-.16.16-.32.16-.32.16-.16.16-.16.16-.32.16-.16.16-.16.16-.16.16-.16.32-.16.16-.16.16-.16.32-.16.16-.16.16v.32l-.16.16v.32l-.16.16v1.92l.16.16v.32l.16.16.16.32v.16l.16.16.16.32.16.16.16.16.16.16.16.32.16.16.32.16.16.16.32.16.16.16.32.16.16.16h.32l.16.16.32.16.32.16h.32l.32.16h.16l.32.16h.64l.32.16h1.92l.32-.16h.64l.32-.16h.32l.32-.16h.16l.32-.16h.32l.32-.16.16-.16.32-.16.32-.16.16-.16.32-.16.16-.16.16-.16.32-.16.16-.16.16-.16.16-.32.16-.16.16-.16.16-.16.16-.32V924l.16-.32v-.16l.16-.16v-.48l.16-.32v-.48M487.84 951.84v.48l.16.16v.16l.16.16.16.16v.16l.16.16.16.16h.16l.16.16h.16l.16.16h.16l.16.16h.32l.32.16h1.28l.32-.16h.32l.16-.16h.16l.16-.16h.16l.16-.16.16-.16h.16l.16-.16v-.16l.16-.16v-.16l.16-.16.16-.16v-.8l-.16-.16v-.32l-.16-.16-.16-.16-.16-.16v-.16l-.16-.16h-.16l-.16-.16h-.16l-.16-.16h-.16l-.16-.16h-.48l-.16-.16h-1.44l-.16.16h-.32l-.16.16h-.16l-.16.16h-.16l-.16.16-.16.16h-.16l-.16.16v.16l-.16.16v.16l-.16.16-.16.16v.48M487.52 1007.84v.48h.16v.16l.16.16v.16l.16.16v.16h.16l.16.16.16.16h.16l.16.16.16.16h.32l.16.16h.64l.16.16h.64l.16-.16h.64l.16-.16h.16l.16-.16h.16l.16-.16h.16l.16-.16.16-.16.16-.16.16-.16v-.16l.16-.16v-.32l.16-.16v-.48l-.16-.16v-.32l-.16-.16v-.16l-.16-.16h-.16v-.16l-.16-.16-.16-.16h-.16l-.16-.16h-.16l-.16-.16h-.16l-.16-.16h-2.08l-.16.16h-.32l-.16.16h-.16l-.16.16-.16.16h-.16l-.16.16-.16.16v.16h-.16l-.16.16v.32l-.16.16v.48M481.76 1027.68l12 .16v1.28M500.16 1009.76l.48-57.6M500 1010.56l.48-92.16M337.28 918.24h1.12v-3.04M493.28 918.4h1.12v10.4" style="fill:none;stroke:#00ff4a;stroke-width:.48;stroke-linecap:round;stroke-linejoin:round;stroke-miterlimit:10;stroke-dasharray:none;stroke-opacity:1;visibility:visible"/><path d="M450.24 923.68v.48l.16.16v.32l.16.16h.16v.16l.16.16.16.16h.16l.16.16h.16l.16.16h.16l.16.16h.16l.16.16h1.6l.32-.16h.32l.16-.16h.16l.16-.16h.16l.16-.16.16-.16h.16v-.16l.16-.16.16-.16v-.16h.16v-.32l.16-.16v-.64l-.16-.16v-.32l-.16-.16-.16-.16-.16-.16v-.16h-.16l-.16-.16-.16-.16h-.16l-.16-.16h-.16l-.16-.16h-.48l-.16-.16h-1.44l-.16.16H452l-.16.16h-.16l-.32.16-.16.16-.16.16h-.16l-.16.16-.16.16v.16l-.16.16v.32h-.16v.48M497.76 1007.04v-.48l-.16-.32v-.16l-.16-.16-.16-.32-.16-.16v-.16l-.16-.32-.16-.16-.16-.16-.32-.16-.16-.32-.16-.16-.32-.16-.16-.16-.16-.16-.32-.16h-.32l-.16-.16-.32-.16-.32-.16h-.16l-.32-.16-.32-.16h-.64l-.32-.16h-.8l-.32-.16h-.96l-.32.16h-.96l-.32.16h-.32l-.32.16h-.32l-.16.16-.32.16h-.32l-.16.16-.32.16-.32.16-.16.16-.32.16-.16.16-.16.16-.32.16-.16.16-.16.16-.16.16-.16.32-.16.16-.16.16-.16.32v.16l-.16.16-.16.32v.48l-.16.16M498.24 951.04l-.16-.16v-.32l-.16-.16v-.32l-.16-.16-.16-.16v-.32l-.16-.16-.16-.16-.16-.32-.16-.16-.32-.16-.16-.16-.16-.16-.16-.16-.32-.16-.16-.16-.32-.16-.16-.16-.32-.16-.32-.16h-.16l-.32-.16-.32-.16h-.32l-.32-.16h-.48l-.32-.16h-2.88l-.32.16h-.32l-.32.16h-.32l-.16.16h-.32l-.32.16-.32.16h-.16l-.32.16-.32.16-.16.16-.32.16-.16.16-.16.16-.32.16-.16.16-.16.32-.16.16-.16.16-.16.16-.16.32-.16.16v.16l-.16.32-.16.16v.48l-.16.16" style="fill:none;stroke:#00ff4a;stroke-width:.48;stroke-linecap:round;stroke-linejoin:round;stroke-miterlimit:10;stroke-dasharray:none;stroke-opacity:1;visibility:visible"/><path d="M497.92 1006.24v-.48l-.16-.32v-.48l-.16-.16v-.16l-.16-.32-.16-.16v-.16l-.16-.32-.16-.16-.16-.16-.16-.32-.32-.16-.16-.16-.16-.16-.32-.16-.16-.16-.16-.16-.32-.16-.32-.16-.16-.16h-.32l-.32-.16-.16-.16h-.32l-.32-.16h-.32l-.32-.16h-.32l-.32-.16h-2.4l-.32.16h-.64l-.32.16h-.32l-.32.16h-.32l-.16.16-.32.16-.32.16-.16.16h-.32l-.16.16-.32.16-.16.16-.32.32-.16.16-.16.16-.16.16-.16.16-.16.32-.16.16-.16.16-.16.32-.16.16v.16l-.16.32v.16l-.16.32v1.76l.16.32v.16l.16.32.16.16v.16l.16.32.16.16.16.16.16.32.16.16.16.16.16.16.32.16.16.16.32.16.16.16.32.16.16.16.32.16.16.16h.32l.32.16.32.16h.32l.32.16h.16l.32.16h3.2l.32-.16h.64l.32-.16.16-.16h.32l.32-.16.32-.16h.16l.32-.16.32-.16.16-.16.32-.16.16-.16.16-.16.32-.16.16-.32.16-.16.16-.16.16-.16.16-.32.16-.16.16-.16v-.32l.16-.16v-.16l.16-.32v-.16l.16-.32v-.64M349.28 931.36l-.16 31.84v20.32M349.12 983.52l45.76-33.76-.16-20.32H352M352 929.44l-2.72 1.92M349.12 963.2l45.6-33.76M348.64 1027.68v-1.28M350.4 1027.68l-1.76-1.28.32-31.84M393.12 1027.68l-44.16-33.12M462.24 958.24v-.16l-.16-.16v-.48l-.16-.16v-.16l-.16-.32v-.16l-.16-.16-.16-.16v-.16l-.16-.32-.16-.16-.16-.16-.16-.16-.16-.16-.16-.16v-.16l-.16-.16-.16-.16-.16-.16-.16-.16-.16-.16-.16-.16h-.16l-.16-.16-.16-.16h-.16l-.16-.16h-.48l-.16-.16h-.32l-.16.16h-.32v.16h-.16v.16h-.16v1.76l.16.16v.16l.16.16v.16l.16.32v.16l.16.16.16.16.16.32v.16l.16.16.16.16.16.16.16.16.16.16.16.16.16.16.16.16.16.16.16.16.16.16h.16l.16.16h.16l.16.16h.16l.16.16h.48l.16.16.16-.16h.32v-.16h.16l.16-.16v-.32l.16-.16v-.64M482.24 931.52l-2.56-1.92M436.96 949.76l-.16-20.16M482.08 963.36 436.8 929.6h42.88M481.92 983.36l-44.96-33.6M480 1027.68l1.76-1.12M481.92 994.72l-44.64 32.96M482.24 928.8h12.16M500.64 952.16l-.16-33.76h-6.08M481.76 1027.68l.48-98.88M498.24 950.24v-.64l-.16-.32v-.16l-.16-.32v-.16l-.16-.16-.16-.32V948l-.16-.16-.16-.32-.16-.16-.16-.16-.32-.16-.16-.32-.16-.16-.16-.16-.32-.16-.16-.16-.32-.16-.16-.16h-.32l-.32-.16-.32-.16h-.16l-.32-.16-.32-.16h-.32l-.32-.16h-.96l-.16-.16h-1.6l-.32.16h-.64l-.32.16h-.32l-.32.16h-.32l-.32.16-.16.16h-.32l-.32.16-.16.16-.32.16-.16.16-.32.16-.16.16-.32.16-.16.16-.16.16-.16.16-.16.32-.16.16-.16.16-.16.32-.16.16-.16.16v.32l-.16.16v.32l-.16.16v1.6l.16.32v.48l.16.16.16.16v.32l.16.16.16.16.16.32.16.16.16.16.16.16.32.32.16.16.16.16.32.16.16.16.32.16.16.16h.32l.32.16.16.16h.32l.32.16.32.16h.32l.32.16h.8l.32.16h1.6l.32-.16h.64l.32-.16h.32l.32-.16h.32l.16-.16.32-.16h.32l.16-.16.32-.16.32-.16.16-.16.32-.16.16-.16.16-.16.32-.16.16-.16.16-.16.16-.32.16-.16.16-.16.16-.32.16-.16v-.16l.16-.32.16-.16v-.48l.16-.16v-.8" style="fill:none;stroke:#00ff4a;stroke-width:.48;stroke-linecap:round;stroke-linejoin:round;stroke-miterlimit:10;stroke-dasharray:none;stroke-opacity:1;visibility:visible"/><path d="m354.24 976.16-.16.32h-.16M354.08 977.12l-.16-.16M354.24 976.64l-.16.48v-.64M374.56 954.72v-.8l-.16-.16v-.16l-.16-.16h-.16l-.16-.16h-.8l-.16.16h-.32l-.16.16-.16.16h-.16l-.16.16-.16.16h-.16l-.16.16-.16.16-.16.16-.16.16-.16.16-.16.16-.16.16-.16.32v.16l-.16.16-.16.16-.16.16v.16l-.16.32-.16.16v.32l-.16.16v.32l-.16.16v1.12l.16.16v.32h.16v.16h.16l.16.16h.8l.16-.16h.16l.16-.16h.16l.16-.16h.16l.16-.16.16-.16.16-.16h.16l.16-.16.16-.16.16-.16.16-.16.16-.16.16-.32.16-.16.16-.16.16-.16v-.16l.16-.16.16-.32v-.16l.16-.16V956l.16-.16v-.32l.16-.16v-.64M354.24 972.64l-.32.32M353.92 973.6v-.16M354.24 973.12l-.32.48v-.64" style="fill:none;stroke:#00ff4a;stroke-width:.48;stroke-linecap:round;stroke-linejoin:round;stroke-miterlimit:10;stroke-dasharray:none;stroke-opacity:1;visibility:visible"/><path d="M354.24 976.64v-.48l-.32.32v.48M354.24 968.96l-.32.48-.16-.16M353.92 970.08l-.16-.16M354.24 969.6l-.32.48v-.64M354.24 973.12v-.48l-.32.32v.48M354.24 965.44l-.32.48-.16-.16M353.92 966.4h-.16M354.24 966.08l-.32.32v-.48" style="fill:none;stroke:#00ff4a;stroke-width:.48;stroke-linecap:round;stroke-linejoin:round;stroke-miterlimit:10;stroke-dasharray:none;stroke-opacity:1;visibility:visible"/><path d="M354.24 969.6v-.64l-.48.32v.64M354.24 961.92l-.32.48-.16-.16M353.92 962.88h-.16M354.24 962.56l-.32.32v-.48M354.24 966.08v-.64l-.48.32v.64" style="fill:none;stroke:#00ff4a;stroke-width:.48;stroke-linecap:round;stroke-linejoin:round;stroke-miterlimit:10;stroke-dasharray:none;stroke-opacity:1;visibility:visible"/><path d="M354.24 962.56v-.64l-.48.32v.64M243.36 777.28l.64-.32M230.24 767.52h-.32M243.36 777.28v-.48h-.16v-.16l-.16-.16v-.16h-.16M230.88 767.2h-.16v-.16h-.32v.16M244 776.96v-.32l-.16-.16v-.16l-.16-.16-.16-.16M231.04 771.52v.16l-.16.16v.16l-.16.16v.16M242.72 772.48v-.16l-.16-.16V772l-.16-.16v-.16" style="fill:none;stroke:#00ff4a;stroke-width:.48;stroke-linecap:round;stroke-linejoin:round;stroke-miterlimit:10;stroke-dasharray:none;stroke-opacity:1;visibility:visible"/><path d="M231.04 770.4v.16l-.16.16v.16l-.16.32v1.28l.16.16v.32l.16.32.16.16v.16l.16.16.16.16.16.16.16.16.16.16.16.16.32.16h.16l.16.16.32.16.16.16h.32l.16.16.32.16h.16l.32.16h.48l.32.16h2.88l.32-.16h.48l.32-.16h.16l.32-.16.16-.16h.32l.16-.16.32-.16.16-.16h.16l.16-.16.32-.16.16-.16.16-.16v-.16l.16-.16.16-.16.16-.16v-.32l.16-.16v-.16l.16-.16v-1.6l-.16-.16v-.16l-.16-.16M315.04 1078.24v.32l.16.16.16.32v.32l.16.16.16.32.16.16.16.32.16.16.32.32.16.16.16.16.32.16.16.32.32.16.32.16.16.16.32.16.32.16.32.16h.16l.32.16.32.16h.32l.48.16.32.16h.64l.32.16h2.56l.32-.16h.8l.32-.16h.32l.32-.16h.48l.32-.16.32-.16.32-.16.32-.16.32-.16.32-.16.32-.16.32-.16.32-.16.32-.16.32-.16.16-.32.32-.16.32-.16" style="fill:none;stroke:#00ff4a;stroke-width:.48;stroke-linecap:round;stroke-linejoin:round;stroke-miterlimit:10;stroke-dasharray:none;stroke-opacity:1;visibility:visible"/><path d="m343.84 1069.44-12.48 11.04-88-303.2M243.52 776l-.64.32M243.52 776l.16-.16.32-.16.16-.16.32-.32.16-.16.16-.16.32-.16.16-.32.16-.16.16-.16.16-.32.16-.16v-.16l.16-.32.16-.16v-.32l.16-.16v-1.92l-.16-.16v-.48l-.16-.32-.16-.16v-.32l-.16-.16-.16-.16-.16-.32-.16-.16-.16-.16-.32-.16-.16-.16-.16-.32-.32-.16-.16-.16-.32-.16-.16-.16-.32-.16-.32-.16h-.16l-.32-.16-.32-.16-.32-.16h-.32l-.32-.16-.32-.16h-.64l-.32-.16h-.32l-.48-.16h-3.2l-.32.16h-.64l-.32.16h-.32l-.32.16-.48.16h-.32l-.32.16-.16.16h-.32l-.32.16-.32.16-.32.16-.32.16-.16.16M230.24 767.52l.64-.32M230.24 767.52l-.16.16-.32.32-.16.16-.32.16-.16.16-.16.16-.32.32-.16.16-.16.16-.16.16-.16.32v.16l-.16.32-.16.16v.16l-.16.32v.16l-.16.32v1.44l.16.16v.48l.16.16v.32l.16.16.16.16.16.32.16.16.16.16.16.32.16.16.16.16.16.16.32.32.16.16.32.16.16.16.32.16.16.16.32.16h.32l.32.16.32.16.16.16h.32l.32.16.32.16h.8l.32.16h.32l.32.16h3.2l.32-.16h.64l.32-.16h.48l.32-.16h.32l.32-.16.32-.16h.32l.16-.16.32-.16.32-.16.32-.16.32-.16.16-.16M255.84 873.92v.32h.16v.16l.16.16v.16h.16v.16h.16v.16l.16.16h.16v.16l.16.16.16.16h.16l.16.16.16.16.16.16.16.16h.16l.16.16.16.16.16.16.16.16.32.16.32.16.8.64.32.32.32.16.16.16h.16l.16.16.32.32.48.32.16.16h.16l.16.16.16.16.16.16v.16l.16.16.16.16.16.16v.16l.16.16v.16h.16v.16l.16.16v1.12l-.16.16v.32h-.16v.16l-.16.16-.16.16h-.16v.16h-.16l-.16.16h-.16l-.16.16h-1.6l-.16-.16h-.16l-.16-.16h-.16l-.16-.16-.16-.16h-.16l-.16-.16-.16-.16-.16-.16-.16-.16v-.16l-.16-.16-.16-.16-.16-.16-.16-.16v-.32l-.16-.16-.16-.16-.16-.32v-.16l-.16-.16v-.32l-.16-.16v-.32l-.16-.16v-.16l-.16-.32v-.16l-.16-.32-.16-.32v-.48" style="fill:none;stroke:#00ff4a;stroke-width:.48;stroke-linecap:round;stroke-linejoin:round;stroke-miterlimit:10;stroke-dasharray:none;stroke-opacity:1;visibility:visible"/><path d="m226.72 774.08.16.16v.32l.16.16.16.32.16.16v.16l.16.32.16.16.32.32.16.16.16.16.16.16.32.32.16.16.32.16.16.16.32.16.32.16.16.16.32.16.32.16.32.16h.32l.32.16.32.16h.32l.32.16h.32l.48.16h.32l.32.16h4l.32-.16h.48l.32-.16h.32l.32-.16h.32l.32-.16.32-.16h.32l.32-.16.32-.16.32-.16.32-.16.32-.16.32-.16.16-.16M343.84 1066.4v3.04l-2.24-10.4M341.6 1059.04 244 776.96l.32-.16.16-.32.32-.16.16-.16.32-.16.16-.32.16-.16.16-.16.16-.32.16-.16.16-.16.16-.32.16-.16.16-.32.16-.16v-.32l.16-.16v-.48l.16-.32v-1.44l-.16-.16v-.32l-.16-.16M338.08 1043.52l.16-.32.16-.32.16-.16.16-.32.16-.32.16-.16.16-.32v-.32l.16-.32v-.16l.16-.32v-2.24l-.16-.32v-.16l-.16-.32M273.44 847.04l2.24 7.52M275.84 854.56l6.72 19.68 1.76 4.16M255.84 874.08l.16.8.16.64.32.8.16.8.32.8M256.96 877.92l.16.16.16.16.16.32.16.16.16.16.16.32.16.16.32.16.16.16.16.32.16.16.32.16.16.16.16.16.32.32.16.16.16.16.16.16.32.16.16.16h.16l.16.16.32.16.16.16h.16l.16.16.16.16h.16l.16.16h.32l.16.16h.8M257.76 876.16l-.16.16v.48l.16.16v.32h.16v.16l.16.16v.16l.16.16.16.16v.16l.16.16.16.16.16.16.16.16.16.16v.16h.16l.16.16.16.16.16.16.16.16h.16l.16.16.16.16h.16l.16.16.16.16h.32v.16h.64v-.16l.16-.16V880l-.16-.16v-.32h-.16v-.16l-.16-.16v-.16l-.16-.16M240.96 769.12v-.32l-.16-.16v-.32l-.16-.16V768l-.16-.16-.16-.16v-.16h-.16l-.16-.16-.16-.16-.16-.16h-.16l-.32-.16-.16-.16h-.16l-.16-.16h-.48l-.16-.16h-.8l-.16-.16h-.96l-.32.16h-.64l-.16.16h-.32l-.16.16h-.16l-.16.16h-.16l-.16.16-.32.16v.16h-.16l-.16.16-.16.16-.16.16v.16l-.16.16v.16l-.16.16v.96l.16.16v.32l.16.16.16.16v.16l.16.16.16.16.16.16h.16l.16.16.16.16h.16l.16.16h.32l.16.16h.16l.32.16h.32l.32.16h1.6l.32-.16h.32l.32-.16h.16l.16-.16h.32l.16-.16h.16l.16-.16.16-.16h.16l.16-.16.16-.16v-.16l.16-.16.16-.16v-.16h.16v-.32l.16-.16v-.32M246.88 770.4l26.56 76.64M284.32 878.4l54.88 159.04M226.72 774.08l29.12 99.84M257.28 878.88l57.76 199.36M226.72 774.08v-.48l-.16-.16V772l.16-.16v-.48l.16-.32v-.16l.16-.16v-.32l.16-.16.16-.16.16-.32v-.16l.16-.16.16-.16.16-.32.16-.16.16-.16.32-.16.16-.16.16-.16.16-.16.32-.16.16-.16.32-.16M229.92 767.52l.48-.32" style="fill:none;stroke:#00ff4a;stroke-width:.48;stroke-linecap:round;stroke-linejoin:round;stroke-miterlimit:10;stroke-dasharray:none;stroke-opacity:1;visibility:visible"/><path d="m338.08 1043.52.16.64.16.64.16.8.16.64.16.8.16.64.16.8.16.8.16.64.16.8.16.8.16.8.16.8.16.8.32.8.16.96.16.8.16.8.16.96.32.8M231.04 770.08v2.56M231.04 772.64v.48l.16.32M242.24 773.6v-.32l.16-.16v-.32M231.04 770.08v.32l.16.32v.32l.16.16v.16l.16.16v.16l.16.16.16.16.16.16.16.16.16.16.16.16.16.16.32.16.16.16h.16l.32.16.16.16h.32l.16.16h.32l.16.16h.64l.16.16h2.56l.32-.16h.48l.32-.16h.16l.32-.16h.16l.16-.16.32-.16.16-.16h.16l.32-.16.16-.16.16-.16.16-.16.16-.16.16-.16.16-.16v-.16l.16-.16v-.16l.16-.16v-.16l.16-.16v-.64M583.52 776.64h-.16v.16l-.16.16v.16h-.16v.48M596.64 767.84h-.32M582.88 776.32h-.16v.16l-.16.16v.16h-.16v.32M596.16 767.52l-.16-.16h-.16v.16h-.16M584 772v.32l-.16.16v.48M595.68 772.64v-.32l-.16-.16V772l-.16-.16" style="fill:none;stroke:#00ff4a;stroke-width:.48;stroke-linecap:round;stroke-linejoin:round;stroke-miterlimit:10;stroke-dasharray:none;stroke-opacity:1;visibility:visible"/><path d="M242.4 772.8v-3.2l-.16-.16v-.48l-.16-.16v-.16l-.16-.16-.16-.16v-.16l-.16-.16-.16-.16-.16-.16-.16-.16-.16-.16-.16-.16-.16-.16-.32-.16-.16-.16H240l-.32-.16-.16-.16h-.32l-.16-.16h-.32l-.16-.16h-.48l-.32-.16h-2.24l-.16.16h-.48l-.32.16h-.16l-.32.16h-.16l-.32.16-.16.16h-.16l-.32.16-.16.16-.16.16-.16.16-.16.16-.16.16-.16.16-.16.16-.16.16v.16h-.16v.32h-.16v.32h-.16v.64l-.16.16v.32M584 770.88v.16l-.16.16v.48l-.16.16v.96l.16.16v.16l.16.16v.32l.16.16v.16l.16.16.16.16.16.16.16.16.16.16.16.16.16.16.32.16h.16l.16.16.32.16h.16l.32.16.16.16h.32l.32.16h.48l.32.16h2.88l.16-.16h.32l.32-.16h.16l.32-.16h.32l.16-.16.32-.16h.16l.16-.16.32-.16.16-.16.16-.16.16-.16h.32l.16-.16v-.16l.16-.32.16-.16.16-.16.16-.16v-.16l.16-.16v-.48l.16-.16v-.64l-.16-.32v-.32l-.16-.16v-.16l-.16-.16M499.04 1080.48l.32.32.16.16.32.16.32.32.32.16.32.16.16.16.32.16.32.16.32.16.48.16.32.16.32.16h.32l.32.16.32.16h.48l.32.16h.64l.48.16h2.4l.32-.16h.8l.32-.16h.32l.32-.16.32-.16h.32l.32-.16.32-.16.16-.16.32-.16.32-.16.16-.16.32-.16.32-.16.16-.16.16-.16.32-.32.16-.16.16-.32.16-.16.16-.16.16-.32.16-.16.16-.32.16-.32.16-.16v-.32l.16-.32M582.4 777.12l.64.48M499.04 1080.48l-12.48-11.04M595.68 767.52l.64.32" style="fill:none;stroke:#00ff4a;stroke-width:.48;stroke-linecap:round;stroke-linejoin:round;stroke-miterlimit:10;stroke-dasharray:none;stroke-opacity:1;visibility:visible"/><path d="m595.68 767.52-.32-.16-.16-.16-.32-.16-.32-.16-.32-.16h-.32l-.32-.16-.32-.16-.32-.16h-.32l-.32-.16H592l-.32-.16h-.64l-.32-.16h-3.2l-.32.16h-.8l-.32.16h-.32l-.32.16h-.32l-.32.16-.32.16-.32.16h-.32l-.16.16-.32.16-.32.16-.16.16-.32.16-.16.16-.32.16-.16.16-.32.32-.16.16-.16.16-.16.16-.16.32-.16.16-.16.16-.16.32v.16l-.16.16v.32l-.16.16v.32l-.16.16v1.28l.16.16v.48l.16.16v.32l.16.16.16.32.16.16v.16l.16.32.16.16.32.16.16.32.16.16.16.16.32.16.16.16.32.32.16.16M583.52 776.64l-.64-.32M583.52 776.64l.16.16.32.16.32.16.32.16.32.16h.16l.32.16.32.16h.32l.32.16.32.16h.48l.32.16h.64l.32.16h2.88l.32-.16h.64l.32-.16h.32l.32-.16h.48l.16-.16h.32l.32-.16.32-.16.32-.16.32-.16h.32l.16-.16.32-.16.16-.16.32-.16.16-.32.32-.16.16-.16.16-.16.16-.16.32-.32.16-.16v-.16l.16-.32.16-.16.16-.16v-.32l.16-.16v-.32l.16-.16v-1.92l-.16-.16v-.32l-.16-.16v-.16l-.16-.32-.16-.16-.16-.32-.16-.16-.16-.16-.16-.16-.16-.32-.16-.16-.16-.16-.32-.16-.16-.16-.32-.32-.16-.16" style="fill:none;stroke:#00ff4a;stroke-width:.48;stroke-linecap:round;stroke-linejoin:round;stroke-miterlimit:10;stroke-dasharray:none;stroke-opacity:1;visibility:visible"/><path d="m499.04 1080.48 84-302.88.16.16.32.16.32.16.32.16.32.16.32.16h.32l.32.16.32.16.32.16h.32l.32.16h.32l.48.16h.64l.32.16h3.36l.32-.16h.8l.32-.16h.32l.32-.16.32-.16h.48l.32-.16.32-.16.16-.16h.32l.32-.16.32-.16.32-.16.16-.16.32-.32.16-.16.32-.16.16-.16.32-.16.16-.32.16-.16.16-.16.16-.32.16-.16.16-.32.16-.16.16-.32v-.16l.16-.32v-.16" style="fill:none;stroke:#00ff4a;stroke-width:.48;stroke-linecap:round;stroke-linejoin:round;stroke-miterlimit:10;stroke-dasharray:none;stroke-opacity:1;visibility:visible"/><path d="m564.16 879.52.48-.16.16-.16.16-.16h.32l.16-.16.48-.16.8-.48.48-.32.48-.16.16-.16h.16l.32-.16.16-.16h.16l.16-.16.32-.16h.16l.16-.16.16-.16h.16l.16-.16h.16l.16-.16h.16v-.16h.16l.16-.16h.16v-.16h.16l.16-.16h.16v-.16h.16v.64l-.16.16v.32l-.16.16v.48l-.16.16v.48l-.16.16v.16l-.16.32v.32l-.16.32v.16l-.16.48-.32.48v.16l-.16.16v.32l-.16.16-.16.16v.32l-.16.16-.16.16-.16.32-.16.16-.16.16v.16l-.16.32-.16.16-.16.16-.16.16-.16.16-.32.16-.16.16h-.16l-.16.16-.16.16h-.16l-.16.16h-.16l-.32.16h-.32l-.16.16h-1.28l-.16-.16h-.48l-.16-.16h-.16l-.16-.16-.16-.16h-.16l-.16-.16-.16-.16h-.16" style="fill:none;stroke:#00ff4a;stroke-width:.48;stroke-linecap:round;stroke-linejoin:round;stroke-miterlimit:10;stroke-dasharray:none;stroke-opacity:1;visibility:visible"/><path d="m566.56 878.24-.16.16-.16.16-.16.16v.16l-.16.16-.16.16-.16.16-.16.16v.16l-.16.16-.16.16v.16h-.16v.16l-.16.16v.16l-.16.16v.8h.16v.16h.32l.16-.16h.16l.16-.16h.32l.16-.16v-.16h.16l.16-.16.16-.16h.16l.16-.16.16-.16.16-.16.16-.16.16-.16v-.16l.16-.16h.16l.16-.16.16-.16v-.16l.16-.16.16-.16v-.16l.16-.16v-.16l.16-.16v-.16l.16-.16v-.64h-.16v-.16M490.88 1037.76v.16l-.16.32v2.4l.16.32v.32l.16.16v.32l.16.32.16.16v.32l.16.32.16.16.16.32.16.16M579.52 770.72v.32l-.16.16v2.08l.16.16v.32l.16.16v.32l.16.16.16.32.16.16.16.32.16.16.16.16.16.32.16.16.16.16.32.32.16.16.32.16.16.16.32.16-93.6 282.08.16-.96.16-.8.32-.8.16-.96.16-.8.16-.8.16-.8.16-.8.16-.8.16-.8.16-.8.16-.8.16-.64.16-.8.16-.8.16-.64.16-.8.16-.64.16-.64v-.8M543.68 878.88l1.6-4 6.56-19.68 2.24-7.84M488.8 1059.2l-2.24 10.24.16-2.88M564.16 879.52l-.32.8-.32.8-.32.96-.32.8-.32.96" style="fill:none;stroke:#00ff4a;stroke-width:.48;stroke-linecap:round;stroke-linejoin:round;stroke-miterlimit:10;stroke-dasharray:none;stroke-opacity:1;visibility:visible"/><path d="M562.56 883.84h.16l.16.16h.64l.16-.16h.32l.16-.16h.16l.16-.16h.16l.32-.16.16-.16h.16l.16-.16.16-.16.32-.16.16-.16.16-.16.16-.16.32-.16.16-.16.16-.16.32-.16.16-.32.16-.16.16-.16.32-.16.16-.32.16-.16.16-.16.16-.32.16-.16.32-.16.16-.32.16-.16.16-.16.16-.32v-.16l.16-.16.16-.32.16-.16.16-.16v-.16l.16-.32v-.16l.16-.16v-.16l.16-.16V876l.16-.16v-.16M593.92 769.28l-.16-.16v-.48l-.16-.16v-.16l-.16-.16V768h-.16l-.16-.16-.16-.16v-.16l-.16-.16h-.32l-.16-.16h-.16l-.16-.16-.16-.16h-.48l-.16-.16h-.48l-.32-.16h-1.28l-.32.16h-.48l-.16.16h-.48l-.16.16h-.16l-.16.16-.32.16h-.16l-.16.16-.16.16-.16.16v.16h-.16l-.16.16v.16l-.16.16v.16l-.16.16v1.28l.16.16v.16l.16.16v.16h.16l.16.16.16.16.16.16.16.16h.16l.16.16h.16l.16.16.16.16h.48l.16.16h.48l.32.16h1.28l.32-.16h.48l.16-.16h.48l.16-.16h.16l.32-.16.16-.16h.16l.16-.16.16-.16.16-.16.16-.16.16-.16.16-.16v-.16l.16-.16v-.64l.16-.16M579.52 770.72l-25.44 76.64M543.68 878.88l-52.8 158.88" style="fill:none;stroke:#00ff4a;stroke-width:.48;stroke-linecap:round;stroke-linejoin:round;stroke-miterlimit:10;stroke-dasharray:none;stroke-opacity:1;visibility:visible"/><path d="m596.16 767.52.48.32.32.16.16.16.16.16.32.16.16.16.16.16.16.16.16.16.16.16.16.16.16.32.16.16.16.16.16.16v.32l.16.16.16.16v.32l.16.16v.48l.16.16v1.76l-.16.32v.16l-84.16 304M584 770.56l.16 2.56M584.16 773.12v.8M595.36 773.6v-.64" style="fill:none;stroke:#00ff4a;stroke-width:.48;stroke-linecap:round;stroke-linejoin:round;stroke-miterlimit:10;stroke-dasharray:none;stroke-opacity:1;visibility:visible"/><path d="M584 770.56v.48l.16.16v.32l.16.16.16.16v.16l.16.16.16.16.16.16.16.16.16.16.16.16.16.16.16.16.16.16h.32l.16.16.16.16h.32l.16.16h.32l.32.16h.48l.32.16h2.4l.32-.16h.16l.32-.16h.48l.32-.16.16-.16h.32l.16-.16.32-.16.16-.16h.16l.16-.16.16-.16.16-.16.16-.16.16-.16.16-.16.16-.16.16-.16v-.16l.16-.16v-.16l.16-.32v-.64" style="fill:none;stroke:#00ff4a;stroke-width:.48;stroke-linecap:round;stroke-linejoin:round;stroke-miterlimit:10;stroke-dasharray:none;stroke-opacity:1;visibility:visible"/><path d="M595.36 772.96v-3.36l-.16-.16v-.32h-.16v-.32h-.16v-.16l-.16-.16v-.16l-.16-.16-.16-.16-.16-.16-.32-.16-.16-.16-.16-.16-.16-.16-.16-.16-.32-.16h-.16l-.32-.16h-.16l-.16-.16h-.32l-.16-.16h-.48l-.32-.16h-2.24l-.32.16h-.48l-.16.16h-.32l-.16.16h-.32l-.16.16-.16.16h-.32l-.16.16-.16.16-.32.16-.16.16-.16.16-.16.16-.16.16-.16.16v.16h-.16v.16l-.16.16v.16l-.16.16v.16l-.16.16v.64H584v.48M531.04 907.68h.16" style="fill:none;stroke:#00ff4a;stroke-width:.48;stroke-linecap:round;stroke-linejoin:round;stroke-miterlimit:10;stroke-dasharray:none;stroke-opacity:1;visibility:visible"/><path d="m476.32 944.16-.16-.16-2.24 1.76.16.16M499.52 926.88l-.16-.16-2.24 1.76.16.16" style="fill:none;fill-opacity:1;fill-rule:evenodd;stroke:#00ff4a;stroke-width:.16;visibility:visible"/><path d="m454.56 1014.56 1.92-1.12M338.4 1034.72l.96 6.4M491.84 1034.72l-.96 6.56M460.32 1034.24l-4.32 1.6M460.32 1034.24l-4.32 1.6M380.32 1035.84l-10.24-.8M418.24 1035.84l-10.4-.8M332.8 1006.88l4.32.8M347.52 1006.08l-10.4 1.6M347.68 950.88l-10.24.8M347.84 950.08l-10.4 1.6M337.12 1007.68l-6.56 4.8M384.8 1034.24l-4.48 1.6M384.64 1035.04l-4.32.8M422.56 1034.24l-4.32 1.6M422.4 1035.04l-4.16.8M337.12 1007.68l-4.32-.8M375.36 923.68l-4.16-.8M352 929.44l-2.72-.8M450.24 923.68l-4.32-.64M371.2 922.88l4.16.8M385.76 922.08l-10.4 1.6M498.24 950.24l-10.4 1.6M498.24 950.24l-10.4 1.6M497.76 1007.04l-10.24.8M497.92 1006.24l-10.4 1.6M493.28 918.4h7.2M445.92 923.04l4.32.64M460.64 922.08l-10.4 1.6M389.6 935.84l5.12-6.4M348.64 1027.68v-1.28M476.96 962.72l-14.72-4.48M441.92 936.48l-5.12-6.88M494.4 928.8v-10.4M389.6 950.56l-15.04 4.16M231.04 772.64v-1.12M242.4 772.8v-1.12M242.4 770.24l-1.44-1.12M242.72 772.48l-1.76-3.36M255.84 873.92l1.44 4.96M584.16 773.12 584 772M593.92 769.28l1.44 2.56M595.68 772.64l4 1.6M486.72 1066.56l2.08-7.36M595.36 770.72l-1.44-1.44" style="fill:none;stroke:#00ff4a;stroke-width:.48;stroke-linecap:round;stroke-linejoin:round;stroke-miterlimit:10;stroke-dasharray:none;stroke-opacity:1;visibility:visible"/><path d="m476.96 962.08-.64-17.92M476.96 962.08l-2.88-16.16" style="fill:none;fill-opacity:1;fill-rule:evenodd;stroke:#00ff4a;stroke-width:.16;visibility:visible"/><path d="m497.28 928.64 5.76 8.8" style="fill:none;stroke:red;stroke-width:.48;stroke-linecap:round;stroke-linejoin:round;stroke-miterlimit:10;stroke-dasharray:none;stroke-opacity:1;visibility:visible" visibility="hidden"/><path d="m339.36 1041.12-.64 1.44" style="fill:none;stroke:#00ff4a;stroke-width:.48;stroke-linecap:round;stroke-linejoin:round;stroke-miterlimit:10;stroke-dasharray:none;stroke-opacity:1;visibility:visible"/><path d="m503.04 937.44-3.52-10.56M503.04 937.44l-5.76-8.8" style="fill:none;fill-opacity:1;fill-rule:evenodd;stroke:#00ff4a;stroke-width:.16;visibility:visible"/></svg>