<svg xmlns="http://www.w3.org/2000/svg" baseProfile="full" height="1122.52" preserveAspectRatio="xMinYMin meet" style="width:912px;height:1303px" width="793.701" xml:space="preserve"><path d="m485.924 849.21-73.153 33.615M487.497 850.838l-71.494 32.935" style="fill:none;stroke:red;stroke-width:.999997;stroke-linecap:round;stroke-linejoin:round;stroke-miterlimit:500;stroke-dasharray:none;stroke-opacity:1;visibility:visible"/><path d="m634.218 844.97.016.45.117.367.203.25.276.109.323-.036.338-.181.326-.311.286-.41.216-.478.136-.497.034-.476-.068-.415-.164-.31-.239-.182-.305-.039-.334.11-.336.249-.309.364-.256.448-.175.496-.085.492" style="fill:none;stroke:red;stroke-width:.666665;stroke-linecap:round;stroke-linejoin:round;stroke-miterlimit:500;stroke-dasharray:none;stroke-opacity:1;visibility:visible"/><path d="m634.556 886.692 6.555-88.128" style="fill:none;stroke:red;stroke-width:1.73333;stroke-linecap:round;stroke-linejoin:round;stroke-miterlimit:500;stroke-dasharray:none;stroke-opacity:1;visibility:visible"/><path d="m613.697 884.316 15.995 5.256M629.692 889.572l6.276-88.912" style="fill:none;stroke:red;stroke-width:.999997;stroke-linecap:round;stroke-linejoin:round;stroke-miterlimit:500;stroke-dasharray:none;stroke-opacity:1;visibility:visible"/><path d="m619.778 793.092-6.081 90.66" style="fill:none;stroke:red;stroke-width:1.73333;stroke-linecap:round;stroke-linejoin:round;stroke-miterlimit:500;stroke-dasharray:none;stroke-opacity:1;visibility:visible"/><path d="m560.103 881.5-.019-.459-.114-.364-.195-.242-.26-.091-.303.06-.317.213-.303.344-.265.446-.197.505-.118.52-.024.492.066.42.158.303.23.166.281.018.312-.138.316-.284.285-.398.232-.48.164-.518.071-.513" style="fill:none;stroke:red;stroke-width:.666665;stroke-linecap:round;stroke-linejoin:round;stroke-miterlimit:500;stroke-dasharray:none;stroke-opacity:1;visibility:visible"/><path d="m563.92 834.535-4.937 91.448" style="fill:none;stroke:red;stroke-width:1.73333;stroke-linecap:round;stroke-linejoin:round;stroke-miterlimit:500;stroke-dasharray:none;stroke-opacity:1;visibility:visible"/><path d="m559.109 837.135-4.839 91.576" style="fill:none;stroke:red;stroke-width:.999997;stroke-linecap:round;stroke-linejoin:round;stroke-miterlimit:500;stroke-dasharray:none;stroke-opacity:1;visibility:visible"/><path d="m536.621 923.197 4.56-93.44" style="fill:none;stroke:red;stroke-width:1.73333;stroke-linecap:round;stroke-linejoin:round;stroke-miterlimit:500;stroke-dasharray:none;stroke-opacity:1;visibility:visible"/><path d="m554.27 928.523-17.648-4.948M487.538 856.147l-.016.217-.052.199-.083.167-.112.134-.136.094M485.403 849.242v-.003l.164-.052.175-.01.182.034M486.546 849.406l-.623-.195M487.536 855.958l.003.19M487.538 855.958l-.041-5.12M487.538 855.958h-.003M486.546 849.406l.361.197.308.344.206.432.076.459" style="fill:none;stroke:red;stroke-width:.999997;stroke-linecap:round;stroke-linejoin:round;stroke-miterlimit:500;stroke-dasharray:none;stroke-opacity:1;visibility:visible"/><path d="m436.668 864.768.416.096.475.044.497-.012.472-.07.403-.122.3-.157.172-.186.022-.192-.118-.182-.262-.159-.369-.12-.453-.073-.487-.012-.49.044-.44.092-.36.142-.234.172-.101.19.049.19.19.172.318.143M440.859 866.018l.407.09.468.035.474-.029.438-.085.344-.136.221-.17.067-.185-.088-.181-.235-.156-.361-.118-.443-.062-.48-.003-.46.057-.396.112-.287.156-.148.178.01.188.166.17.303.139" style="fill:none;stroke:red;stroke-width:.666665;stroke-linecap:round;stroke-linejoin:round;stroke-miterlimit:500;stroke-dasharray:none;stroke-opacity:1;visibility:visible"/><path d="m474.356 845.316-74.325 33.43" style="fill:none;stroke:red;stroke-width:1.73333;stroke-linecap:round;stroke-linejoin:round;stroke-miterlimit:500;stroke-dasharray:none;stroke-opacity:1;visibility:visible"/><path d="m633.109 897.505-.05.383-.093.396-.125.393-.167.38-.196.357-.221.32-.236.276-.25.222-.253.164-.248.096-.234.029-.216-.041-.19-.106-.16-.173-.121-.23-.084-.283-.039-.328.006-.36.046-.386.091-.393.13-.396.165-.38.196-.356.221-.324.236-.273.253-.222.25-.164.248-.096.234-.032.219.043.19.11.155.171.126.231.078.283.042.329-.003.36" style="fill:none;stroke:red;stroke-width:.666665;stroke-linecap:round;stroke-linejoin:round;stroke-miterlimit:500;stroke-dasharray:none;stroke-opacity:1;visibility:visible"/><path d="m636.54 886.333-1.224 17.133M635.317 903.466l-11.49 6.005M408.174 830.46l.195-11.948M621.049 908.455l2.779 1.016M561.32 886.432l35.473 12.917M484.757 858.572l49.188 17.49M441.869 842.816l21.164 7.764M408.174 830.46l26.55 9.737" style="fill:none;stroke:red;stroke-width:1.73333;stroke-linecap:round;stroke-linejoin:round;stroke-miterlimit:500;stroke-dasharray:none;stroke-opacity:1;visibility:visible"/><path d="m624.015 906.708.995-14.45M623.827 909.47l.185-2.732" style="fill:none;stroke:red;stroke-width:.999997;stroke-linecap:round;stroke-linejoin:round;stroke-miterlimit:500;stroke-dasharray:none;stroke-opacity:1;visibility:visible"/><path d="m634.85 885.78 1.69.552M562.228 862.092l51.815 16.903M449.5 825.023l90.224 29.732M417.124 814.768l14.255 4.648M408.369 818.513l8.755-3.745" style="fill:none;stroke:red;stroke-width:1.73333;stroke-linecap:round;stroke-linejoin:round;stroke-miterlimit:500;stroke-dasharray:none;stroke-opacity:1;visibility:visible"/><path d="m561.788 870.74 63.221 21.52M449.885 832.645l89.464 30.456M408.369 818.513l22.899 7.795M634.747 887.255l1.795-.921M625.01 892.259l9.705-4.988" style="fill:none;stroke:red;stroke-width:.999997;stroke-linecap:round;stroke-linejoin:round;stroke-miterlimit:500;stroke-dasharray:none;stroke-opacity:1;visibility:visible"/><path d="m551.398 947.416 12.347-6.479M563.744 940.937l.964-17.615" style="fill:none;stroke:red;stroke-width:1.73333;stroke-linecap:round;stroke-linejoin:round;stroke-miterlimit:500;stroke-dasharray:none;stroke-opacity:1;visibility:visible"/><path d="m554.762 938.244.003.372.052.333.096.29.138.234.178.172.213.104.232.036.257-.036.266-.106.27-.175.267-.237.255-.287.232-.339.205-.369.172-.396.13-.408.091-.407.044-.396-.005-.37-.047-.335-.096-.29-.138-.234-.175-.175-.21-.104-.237-.036-.256.036-.268.107-.27.172-.266.237-.256.288-.234.338-.203.372-.172.398-.135.406-.089.409-.044.396" style="fill:none;stroke:red;stroke-width:.666665;stroke-linecap:round;stroke-linejoin:round;stroke-miterlimit:500;stroke-dasharray:none;stroke-opacity:1;visibility:visible"/><path d="m308.715 873.637 242.682 73.778" style="fill:none;stroke:red;stroke-width:1.73333;stroke-linecap:round;stroke-linejoin:round;stroke-miterlimit:500;stroke-dasharray:none;stroke-opacity:1;visibility:visible"/><path d="m552.314 929.718-.916 17.697" style="fill:none;stroke:red;stroke-width:.999997;stroke-linecap:round;stroke-linejoin:round;stroke-miterlimit:500;stroke-dasharray:none;stroke-opacity:1;visibility:visible"/><path d="m308.627 861.259.088 12.379" style="fill:none;stroke:red;stroke-width:1.73333;stroke-linecap:round;stroke-linejoin:round;stroke-miterlimit:500;stroke-dasharray:none;stroke-opacity:1;visibility:visible"/><path d="m308.627 861.259 243.687 68.46M554.265 928.71l-1.95 1.008M564.707 923.322l-10.412 5.372" style="fill:none;stroke:red;stroke-width:.999997;stroke-linecap:round;stroke-linejoin:round;stroke-miterlimit:500;stroke-dasharray:none;stroke-opacity:1;visibility:visible"/><path d="m559.192 921.843 5.516 1.479M318.2 857.153l-9.573 4.105M318.2 857.153l218.775 58.727M563.9 938.143l59.737-31.97" style="fill:none;stroke:red;stroke-width:1.73333;stroke-linecap:round;stroke-linejoin:round;stroke-miterlimit:500;stroke-dasharray:none;stroke-opacity:1;visibility:visible"/><path d="M563.9 938.143h-.005M563.9 938.143v-.033M564.306 930.624l59.86-31.05M624.166 899.01l-8.275-3.048" style="fill:none;stroke:red;stroke-width:.999997;stroke-linecap:round;stroke-linejoin:round;stroke-miterlimit:500;stroke-dasharray:none;stroke-opacity:1;visibility:visible"/><path d="m606.97 894.451-47.865 24.67M492.286 903.757l46.208-22.372M538.835 874.169l-56.079 26.997M424.595 885.731l62.544-28.773" style="fill:none;stroke:red;stroke-width:1.73333;stroke-linecap:round;stroke-linejoin:round;stroke-miterlimit:500;stroke-dasharray:none;stroke-opacity:1;visibility:visible"/><path d="m485.78 849.054-11.047-3.924" style="fill:none;stroke:red;stroke-width:.999997;stroke-linecap:round;stroke-linejoin:round;stroke-miterlimit:500;stroke-dasharray:none;stroke-opacity:1;visibility:visible"/><path d="M439.503 853.331a.293.293 0 0 0 .096-.218M436.21 853.07a.31.31 0 0 0 .085.224M439.516 853.317l-.464.503M439.044 853.827l.008-.007M436.735 853.794c.005.003.005.003.008.008M436.743 853.802a.96.96 0 0 0 .36.227" style="fill:none;stroke:red;stroke-width:.666665;stroke-linecap:round;stroke-linejoin:round;stroke-miterlimit:2;stroke-dasharray:none;stroke-opacity:1;visibility:visible"/><path d="m634.177 798.014-.136.196.021.22.18.221.318.207.426.17.504.119.531.062.509-.006.447-.073.34-.131.207-.181.06-.212M623.125 793.417l.021.216.176.224.314.202.426.171.495.119.53.06.506-.006.449-.072.34-.13.212-.178.058-.209M629.63 795.66l-.344.181-.196.231-.036.256.131.269.29.26.425.236.537.197.605.14.635.079.625.008.566-.067.472-.124.348-.185.194-.232.03-.255-.134-.268-.288-.263-.428-.233-.532-.197-.602-.14-.639-.076-.619-.008-.568.061-.472.13" style="fill:none;stroke:red;stroke-width:.666665;stroke-linecap:round;stroke-linejoin:round;stroke-miterlimit:500;stroke-dasharray:none;stroke-opacity:1;visibility:visible"/><path d="m619.742 793.36 2.826-1.066M641.136 798.674l-2.74-1.227M633.49 795.245l-6.265-2.807" style="fill:none;stroke:red;stroke-width:1.73333;stroke-linecap:round;stroke-linejoin:round;stroke-miterlimit:500;stroke-dasharray:none;stroke-opacity:1;visibility:visible"/><path d="m641.136 798.674-5.17 1.987M635.966 800.662l-16.224-7.302" style="fill:none;stroke:red;stroke-width:.999997;stroke-linecap:round;stroke-linejoin:round;stroke-miterlimit:500;stroke-dasharray:none;stroke-opacity:1;visibility:visible"/><path d="m548.568 830.205-.177.205-.321.163-.437.104-.516.033-.549-.033-.528-.107-.467-.16-.36-.208-.221-.232-.064-.237" style="fill:none;stroke:red;stroke-width:.666665;stroke-linecap:round;stroke-linejoin:round;stroke-miterlimit:500;stroke-dasharray:none;stroke-opacity:1;visibility:visible"/><path d="m559.107 837.135 4.836-2.469" style="fill:none;stroke:red;stroke-width:.999997;stroke-linecap:round;stroke-linejoin:round;stroke-miterlimit:500;stroke-dasharray:none;stroke-opacity:1;visibility:visible"/><path d="m544.576 828.305-3.424 1.715M549.256 828.867l7.172 2.831M560.87 833.454l3.075 1.213" style="fill:none;stroke:red;stroke-width:1.73333;stroke-linecap:round;stroke-linejoin:round;stroke-miterlimit:500;stroke-dasharray:none;stroke-opacity:1;visibility:visible"/><path d="m559.107 837.135-17.957-7.114" style="fill:none;stroke:red;stroke-width:.999997;stroke-linecap:round;stroke-linejoin:round;stroke-miterlimit:500;stroke-dasharray:none;stroke-opacity:1;visibility:visible"/><path d="m551.656 831.995.453-.165.563-.1.635-.027.656.05.646.122.581.183.477.237.349.268.187.29.02.282-.149.262-.311.223-.454.167-.562.099-.632.025-.662-.049-.643-.119-.58-.188-.486-.234-.345-.271-.191-.292-.016-.278.152-.263.312-.222M560.39 834.76l-.012.232-.175.208-.318.165-.44.104-.518.034-.547-.033-.533-.105-.467-.167-.364-.208-.227-.235-.068-.24" style="fill:none;stroke:red;stroke-width:.666665;stroke-linecap:round;stroke-linejoin:round;stroke-miterlimit:500;stroke-dasharray:none;stroke-opacity:1;visibility:visible"/><path d="M558.204 828.862a.903.903 0 0 0-.377.198M558.207 830.46l.4 4.528M545.516 825.547a1.244 1.244 0 0 0 .479.35M545.995 825.895a3.46 3.46 0 0 0 2.193.17M548.188 826.065a1.227 1.227 0 0 0 .527-.27M548.333 824.817a.895.895 0 0 0-.343-.25M547.99 824.567a2.496 2.496 0 0 0-1.575-.122M546.417 824.446a.912.912 0 0 0-.38.197M546.42 826.045l.399 4.525M560.612 829.995l-.355 4.628M557.232 829.737l-.35 4.546M560.13 829.245l.418.538M557.819 829.065l-.492.47M560.5 830.211a.296.296 0 0 0 .112-.216.296.296 0 0 0-.065-.21M557.325 829.535a.297.297 0 0 0-.093.202.287.287 0 0 0 .072.226M557.305 829.963a1.235 1.235 0 0 0 .476.35M557.781 830.313a3.45 3.45 0 0 0 2.195.167M559.977 830.48a1.216 1.216 0 0 0 .524-.268M560.123 829.234a.884.884 0 0 0-.344-.25" style="fill:none;stroke:red;stroke-width:.666665;stroke-linecap:round;stroke-linejoin:round;stroke-miterlimit:2;stroke-dasharray:none;stroke-opacity:1;visibility:visible"/><path d="M559.779 828.983a2.493 2.493 0 0 0-.776-.186 2.605 2.605 0 0 0-.8.065M637.226 794.667a1.233 1.233 0 0 0 .524-.27M637.372 793.42a.88.88 0 0 0-.344-.25M637.03 793.17a2.536 2.536 0 0 0-.778-.19 2.605 2.605 0 0 0-.799.068M635.453 793.047a.888.888 0 0 0-.377.198M635.456 794.646l.401 4.527M548.825 825.578l-.357 4.627M545.443 825.32l-.35 4.548M548.341 824.827l.419.54M546.03 824.647l-.494.473M548.713 825.794a.307.307 0 0 0 .047-.427M545.537 825.12a.304.304 0 0 0-.093.2.31.31 0 0 0 .072.228M626.852 788.875l-.355 4.629M623.472 788.617l-.35 4.546M626.37 788.125l.416.539M624.057 787.946l-.492.472M626.74 789.091a.296.296 0 0 0 .112-.216.296.296 0 0 0-.066-.21M623.565 788.417a.29.29 0 0 0-.093.2.287.287 0 0 0 .072.227M623.545 788.843a1.235 1.235 0 0 0 .476.35M624.021 789.193a3.488 3.488 0 0 0 2.195.17M626.216 789.362a1.248 1.248 0 0 0 .524-.27M626.362 788.115a.88.88 0 0 0-.344-.249M626.018 787.865a2.46 2.46 0 0 0-.776-.188 2.605 2.605 0 0 0-.8.065M624.442 787.742a.903.903 0 0 0-.377.198M624.445 789.34l.401 4.528M637.862 794.18l-.354 4.626M634.482 793.922l-.349 4.548M637.38 793.427l.416.54M635.068 793.25l-.492.472M637.75 794.395a.296.296 0 0 0 .112-.215.296.296 0 0 0-.065-.21M634.576 793.72a.292.292 0 0 0-.094.2.283.283 0 0 0 .072.227M634.554 794.147a1.225 1.225 0 0 0 .476.351" style="fill:none;stroke:red;stroke-width:.666665;stroke-linecap:round;stroke-linejoin:round;stroke-miterlimit:2;stroke-dasharray:none;stroke-opacity:1;visibility:visible"/><path d="M635.032 794.498a3.413 3.413 0 0 0 1.085.262c.37.03.748 0 1.11-.093M576.893 919.94a.667.667 0 0 1-.882-.333M577.312 919.615a1.133 1.133 0 0 1-.417.323M577.805 918.298a2.233 2.233 0 0 1-.493 1.317M577.805 918.202v.096M577.805 914.067v4.247M575.91 914.858v4.237M564.485 921.957c.007-.26.216-.524.576-.727l5.366-2.853c.353-.168.7-.223 1.003-.224M572.052 918.225c.228.054.367.118.367.118l.16.047M577.703 913.577a1.112 1.112 0 0 1 .102.473v.016M576.82 913.246a.664.664 0 0 1 .88.33M576.403 913.569a1.107 1.107 0 0 1 .417-.323M575.91 914.885c.017-.48.19-.943.492-1.315M575.91 914.994l-.003-.068.002-.041" style="fill:none;stroke:red;stroke-width:.666665;stroke-linecap:round;stroke-linejoin:round;stroke-miterlimit:2;stroke-dasharray:none;stroke-opacity:1;visibility:visible"/><path d="M576.012 919.609a1.133 1.133 0 0 1-.102-.514M572.923 925.718c-.156.104-.38.132-.693.03l-6.77-2.365c-.63-.203-.935-.489-.979-.783v-.624M572.601 924.6l-5.701-2.002c-1.075-.35-1.028-.97-.348-1.359l4.552-2.417c.09-.044.18-.077.268-.106M580.008 908.171l-.752-.193c-.366-.061-.788.03-1.26.296l-1.903.919c-2.366 1.226-3.413 2.609-3.413 6.527v8.863" style="fill:none;stroke:red;stroke-width:.666665;stroke-linecap:round;stroke-linejoin:round;stroke-miterlimit:2;stroke-dasharray:none;stroke-opacity:1;visibility:visible"/><path d="m580.443 921.774.464-.3c.582-.305.572-1.116.572-1.492v-8.65c0-1.868-.649-2.91-1.503-3.155M598.602 904.866c.008-.26.216-.521.578-.727l5.363-2.852a2.3 2.3 0 0 1 1.005-.224M606.172 901.134c.228.055.366.116.366.116l.16.048M611.82 896.485a1.123 1.123 0 0 1 .102.474v.016M610.938 896.155a.664.664 0 0 1 .882.33M610.521 896.478a1.133 1.133 0 0 1 .417-.323M610.028 897.793c.018-.48.19-.943.492-1.315M610.028 897.902l-.002-.065.002-.044M610.13 902.517a1.137 1.137 0 0 1-.103-.511M611.012 902.847a.68.68 0 0 1-.276.063.668.668 0 0 1-.607-.393M611.43 902.525a1.12 1.12 0 0 1-.417.322M611.924 901.206a2.237 2.237 0 0 1-.494 1.319M611.924 901.111v.095M611.924 896.975v4.248M610.028 897.767v4.24M571.196 920.36c.081-.026.161-.053.241-.072M572.168 920.24c.14.019.281.05.419.096M570.948 921.356a1.016 1.016 0 0 1-.383-.346M572.679 921.42a2.08 2.08 0 0 1-.795.162 2.09 2.09 0 0 1-.936-.226M570.565 920.813a1.064 1.064 0 0 1 .3-.303M570.565 921.009a.177.177 0 0 1-.028-.1c0-.037.01-.07.028-.095" style="fill:none;stroke:red;stroke-width:.666665;stroke-linecap:round;stroke-linejoin:round;stroke-miterlimit:2;stroke-dasharray:none;stroke-opacity:1;visibility:visible"/><path d="m573.008 925.683.985-.525s.287-.243.287-.523v-8.818c-.001-2.94.785-3.977 2.56-4.897l1.524-.76c1.036-.526 2.079.196 2.079 2.242v9.373c-.26.067-.595-.1-.93.012-.5.165-5.083 2.75-5.083 2.75M607.04 908.627c-.156.104-.38.133-.692.03l-6.77-2.362c-.63-.206-.934-.493-.979-.785v-.625M606.72 907.511l-5.702-2.001c-1.073-.353-1.028-.973-.348-1.361l4.552-2.416c.09-.044.18-.08.268-.107M614.126 891.08l-.752-.192c-.364-.062-.788.029-1.26.297l-1.902.917c-2.367 1.227-3.415 2.61-3.415 6.528v8.863" style="fill:none;stroke:red;stroke-width:.666665;stroke-linecap:round;stroke-linejoin:round;stroke-miterlimit:2;stroke-dasharray:none;stroke-opacity:1;visibility:visible"/><path d="m614.561 904.683.464-.3c.583-.303.572-1.116.572-1.492v-8.65c0-1.868-.647-2.907-1.503-3.154M605.314 903.27c.082-.028.162-.055.242-.073M606.286 903.147c.14.02.282.05.42.098M605.066 904.267a1.02 1.02 0 0 1-.382-.35M606.797 904.33a2.08 2.08 0 0 1-.795.16 2.11 2.11 0 0 1-.936-.223M604.684 903.723a1.015 1.015 0 0 1 .3-.302M604.684 903.918a.176.176 0 0 1-.028-.1.16.16 0 0 1 .028-.095" style="fill:none;stroke:red;stroke-width:.666665;stroke-linecap:round;stroke-linejoin:round;stroke-miterlimit:2;stroke-dasharray:none;stroke-opacity:1;visibility:visible"/><path d="m607.126 908.591.986-.521s.285-.245.285-.524v-8.817c0-2.942.787-3.979 2.563-4.9l1.522-.757c1.038-.529 2.08.193 2.08 2.239v9.372c-.261.068-.597-.098-.931.014-.499.166-5.083 2.75-5.083 2.75" style="fill:none;stroke:red;stroke-width:.666665;stroke-linecap:round;stroke-linejoin:round;stroke-miterlimit:2;stroke-dasharray:none;stroke-opacity:1;visibility:visible"/><path d="m621.972 861.529.033-.983.16-.927.257-.798M622.102 873.122l-.254-.656-.272-1.017M626.806 877.691l-.396.749-.502.63-.599.499-.672.356-.737.205-.784.051-.812-.107-.82-.261-.81-.406-.781-.546-.732-.672-.664-.783-.59-.872-.488-.944-.391-.992-.176-.65M617.713 860.691l.11-.213" style="fill:none;stroke:red;stroke-width:.999997;stroke-linecap:round;stroke-linejoin:round;stroke-miterlimit:500;stroke-dasharray:none;stroke-opacity:1;visibility:visible"/><path d="m617.822 860.478.182-.35.5-.638.59-.507.676-.366.74-.214.784-.057.816.101.82.254.815.404.787.542.737.675.672.784.593.875.496.949.39 1.003" style="fill:none;stroke:red;stroke-width:.999997;stroke-linecap:round;stroke-linejoin:round;stroke-miterlimit:500;stroke-dasharray:none;stroke-opacity:1;visibility:visible"/><path d="m625.89 873.589-.36.098-.387.066-.394.034-.404-.004-.385-.041-.37-.077-.335-.107-.287-.14-.24-.164-.18-.184-.115-.2-.043-.204.023-.21.093-.206.16-.193.222-.18.277-.159.323-.128.357-.103.385-.066.4-.031.4.004.39.041.37.075.331.11.292.137.237.165.18.185.114.196.044.208-.023.211-.097.203-.159.197-.224.176-.275.159-.32.132" style="fill:none;stroke:red;stroke-width:.666665;stroke-linecap:round;stroke-linejoin:round;stroke-miterlimit:500;stroke-dasharray:none;stroke-opacity:1;visibility:visible"/><path d="m625.889 876.126-.359.099-.386.064-.395.036-.404-.007-.385-.039-.37-.077-.335-.11-.287-.141-.24-.158-.18-.187-.115-.196-.043-.207v-2.333M625.89 876.126l.32-.132.274-.16.226-.177.158-.194.097-.205.023-.21-.044-.206v-2.332" style="fill:none;stroke:red;stroke-width:.666665;stroke-linecap:round;stroke-linejoin:round;stroke-miterlimit:500;stroke-dasharray:none;stroke-opacity:1;visibility:visible"/><path d="m626.602 878.16-9.038-3.061 4.672-1.641" style="fill:none;stroke:red;stroke-width:.666665;stroke-linecap:round;stroke-linejoin:round;stroke-miterlimit:4;stroke-dasharray:none;stroke-opacity:1;visibility:visible"/><path d="m627.838 805.685-.125.252-.295.825-.182.896M626.78 820.135l.434.907.528.839.603.745.672.644.721.517.752.39M626.646 819.751l-4.706 1.111M632.172 810.793c-.018.217-.023.097-.042.357M632.13 811.15l-.928 11.793M622.777 808.657c-.259 3.317-.972 12.173-.972 12.173" style="fill:none;stroke:red;stroke-width:.999997;stroke-linecap:round;stroke-linejoin:round;stroke-miterlimit:500;stroke-dasharray:none;stroke-opacity:1;visibility:visible"/><path d="m621.925 821.177.217.612.434.908.524.838.605.748.672.647.724.52.75.388.772.243.765.096.744-.058.712-.199.65-.354.584-.488.5-.616.404-.728.184-.504M632.172 810.793l-.454-1.333-.438-.915-.528-.84-.614-.755-.677-.643-.724-.52-.757-.385-.774-.239-.773-.089-.748.063-.707.213-.654.361-.578.493-.498.623-.4.733M622.006 860.546a1322.513 1322.513 0 0 1-.512 10.361M627.421 863.933c-.139 3.325-.615 13.757-.615 13.757M617.713 860.694c-.139 3.325-.861 13.252-.861 13.252" style="fill:none;stroke:red;stroke-width:.999997;stroke-linecap:round;stroke-linejoin:round;stroke-miterlimit:500;stroke-dasharray:none;stroke-opacity:1;visibility:visible"/><path d="M627.278 807.545c-.168-.31-.633 12.205-.633 12.205M622.873 807.425c0 .028-.035.49-.096 1.232" style="fill:none;stroke:red;stroke-width:.999997;stroke-linecap:round;stroke-linejoin:round;stroke-miterlimit:500;stroke-dasharray:none;stroke-opacity:1;visibility:visible"/><path d="m564.708 923.322-5.725 2.66" style="fill:none;stroke:red;stroke-width:1.73333;stroke-linecap:round;stroke-linejoin:round;stroke-miterlimit:500;stroke-dasharray:none;stroke-opacity:1;visibility:visible"/><path d="m635.316 903.466-2.207-5.961M625.01 892.259l8.099 5.246" style="fill:none;stroke:red;stroke-width:.666665;stroke-linecap:round;stroke-linejoin:round;stroke-miterlimit:500;stroke-dasharray:none;stroke-opacity:1;visibility:visible"/><path d="m624.166 899.01-3.117 9.445M579.976 908.177l16.817-8.828M486.546 849.406l-1.789 9.166M434.723 840.197l7.146 2.619M474.733 845.13l-11.7 5.45M441.869 842.816l-7.146-2.619M613.697 884.316l.346-5.321M431.268 826.308l18.232-1.285M449.5 825.023l-18.121-5.607" style="fill:none;stroke:red;stroke-width:1.73333;stroke-linecap:round;stroke-linejoin:round;stroke-miterlimit:500;stroke-dasharray:none;stroke-opacity:1;visibility:visible"/><path d="m434.723 840.197 15.162-7.552M417.124 814.768l14.144 11.54" style="fill:none;stroke:red;stroke-width:.999997;stroke-linecap:round;stroke-linejoin:round;stroke-miterlimit:500;stroke-dasharray:none;stroke-opacity:1;visibility:visible"/><path d="m563.9 938.143-9.138.101M552.314 929.718l2.448 8.526" style="fill:none;stroke:red;stroke-width:.666665;stroke-linecap:round;stroke-linejoin:round;stroke-miterlimit:500;stroke-dasharray:none;stroke-opacity:1;visibility:visible"/><path d="m554.27 928.523 4.922-6.68M536.622 923.575l.353-7.695" style="fill:none;stroke:red;stroke-width:1.73333;stroke-linecap:round;stroke-linejoin:round;stroke-miterlimit:500;stroke-dasharray:none;stroke-opacity:1;visibility:visible"/><path d="m564.707 923.322-.401 7.302M625.01 892.26l-9.119 3.702" style="fill:none;stroke:red;stroke-width:.999997;stroke-linecap:round;stroke-linejoin:round;stroke-miterlimit:500;stroke-dasharray:none;stroke-opacity:1;visibility:visible"/><path d="m610.938 896.155-3.968-1.704M564.707 923.322l-5.602-4.202" style="fill:none;stroke:red;stroke-width:1.73333;stroke-linecap:round;stroke-linejoin:round;stroke-miterlimit:500;stroke-dasharray:none;stroke-opacity:1;visibility:visible"/><path d="m635.453 793.047-5.823 2.613" style="fill:none;stroke:red;stroke-width:.666665;stroke-linecap:round;stroke-linejoin:round;stroke-miterlimit:500;stroke-dasharray:none;stroke-opacity:1;visibility:visible"/><path d="m635.966 800.661-13.398-8.367M635.966 800.662l2.43-3.215M635.032 794.498l-1.542.747M624.021 789.193l3.204 3.245M559.107 837.135l-14.531-8.83M545.995 825.897l3.261 2.97M557.781 830.313l-1.353 1.385M559.107 837.135l1.763-3.681" style="fill:none;stroke:red;stroke-width:1.73333;stroke-linecap:round;stroke-linejoin:round;stroke-miterlimit:500;stroke-dasharray:none;stroke-opacity:1;visibility:visible"/><path d="m548.713 825.794 2.943 6.201" style="fill:none;stroke:red;stroke-width:.666665;stroke-linecap:round;stroke-linejoin:round;stroke-miterlimit:500;stroke-dasharray:none;stroke-opacity:1;visibility:visible"/><path d="m546.42 826.045 12.187 8.943M558.207 830.46l-11.388.11M623.125 793.417l12.732 5.756M623.125 793.417l1.721.451M579.976 908.177l-7.397 10.213M572.923 925.718l7.52-3.944M615.891 895.962l-9.193 5.336M559.192 921.843l13.395-1.507M571.196 920.36l1.483 1.06M572.923 925.718l1.507-1.181M607.04 908.627l7.521-3.944M615.891 895.962l-9.185 7.283M605.314 903.27l1.483 1.06M607.04 908.627l1.508-1.18" style="fill:none;stroke:red;stroke-width:.666665;stroke-linecap:round;stroke-linejoin:round;stroke-miterlimit:2;stroke-dasharray:none;stroke-opacity:1;visibility:visible"/><path d="m622.236 873.458 3.654.131M621.494 870.907l5.45 1.603" style="fill:none;stroke:red;stroke-width:.666665;stroke-linecap:round;stroke-linejoin:round;stroke-miterlimit:500;stroke-dasharray:none;stroke-opacity:1;visibility:visible"/><path d="m622.848 807.56 4.99-1.875" style="fill:none;stroke:red;stroke-width:.999997;stroke-linecap:round;stroke-linejoin:round;stroke-miterlimit:500;stroke-dasharray:none;stroke-opacity:1;visibility:visible"/><path d="m443.103 710.53.344-.085.416-.024.433.036.395.097.297.14.162.167.008.169-.151.15-.29.11-.385.055-.432-.006-.422-.069-.354-.121-.234-.152-.087-.172.076-.162.224-.133" style="fill:none;stroke:#00ff4a;stroke-width:.666665;stroke-linecap:round;stroke-linejoin:round;stroke-miterlimit:500;stroke-dasharray:none;stroke-opacity:1;visibility:visible" visibility="hidden"/><path d="m451.27 711.791-9.315-3.727M438.306 707.387l-4.143 1.57" style="fill:none;stroke:#00ff4a;stroke-width:1.73333;stroke-linecap:round;stroke-linejoin:round;stroke-miterlimit:500;stroke-dasharray:none;stroke-opacity:1;visibility:visible" visibility="hidden"/><path d="m438.51 708.687.393-.104.476-.05.508.011.503.067.45.123.36.161.231.193.09.2-.066.192-.213.17-.341.13-.438.079-.5.021-.513-.04-.481-.096-.41-.142-.297-.18-.161-.199-.012-.2.14-.183.281-.153" style="fill:none;stroke:#00ff4a;stroke-width:.666665;stroke-linecap:round;stroke-linejoin:round;stroke-miterlimit:500;stroke-dasharray:none;stroke-opacity:1;visibility:visible" visibility="hidden"/><path d="m434.163 708.958 11.964 4.801" style="fill:none;stroke:#00ff4a;stroke-width:.999997;stroke-linecap:round;stroke-linejoin:round;stroke-miterlimit:500;stroke-dasharray:none;stroke-opacity:1;visibility:visible" visibility="hidden"/><path d="m434.163 708.958-1.77 124.036M432.392 832.994l11.648 3.607" style="fill:none;stroke:#00ff4a;stroke-width:1.73333;stroke-linecap:round;stroke-linejoin:round;stroke-miterlimit:500;stroke-dasharray:none;stroke-opacity:1;visibility:visible" visibility="hidden"/><path d="m446.127 713.759-2.085 122.842M446.127 713.759l5.143-1.968" style="fill:none;stroke:#00ff4a;stroke-width:.999997;stroke-linecap:round;stroke-linejoin:round;stroke-miterlimit:500;stroke-dasharray:none;stroke-opacity:1;visibility:visible" visibility="hidden"/><path d="m444.04 836.601 5.003-2.205M451.27 711.791l-2.227 122.604M446.127 713.76l-4.172-5.696M446.127 713.759l-7.821-6.372" style="fill:none;stroke:#00ff4a;stroke-width:1.73333;stroke-linecap:round;stroke-linejoin:round;stroke-miterlimit:500;stroke-dasharray:none;stroke-opacity:1;visibility:visible" visibility="hidden"/></svg>