<svg xmlns="http://www.w3.org/2000/svg" baseProfile="full" height="1122.52" preserveAspectRatio="xMinYMin meet" style="width:912px;height:1303px" width="793.701" xml:space="preserve"><path d="m520.586 444.449-4.145 2.72M521.123 435.502l.03-.916.15-.865.244-.748" style="fill:none;stroke:red;stroke-width:.999997;stroke-linecap:round;stroke-linejoin:round;stroke-miterlimit:500;stroke-dasharray:none;stroke-opacity:1;visibility:visible"/><path d="m532.495 421.097.019.45.117.366.203.25.273.111.325-.038.336-.18.328-.31.287-.41.216-.479.133-.499.036-.474-.07-.414-.162-.31-.241-.184-.303-.039-.333.11-.339.249-.309.365-.253.448-.178.495-.085.493" style="fill:none;stroke:red;stroke-width:.666665;stroke-linecap:round;stroke-linejoin:round;stroke-miterlimit:500;stroke-dasharray:none;stroke-opacity:1;visibility:visible"/><path d="m533.026 463.382 6.552-89.07" style="fill:none;stroke:red;stroke-width:1.73333;stroke-linecap:round;stroke-linejoin:round;stroke-miterlimit:500;stroke-dasharray:none;stroke-opacity:1;visibility:visible"/><path d="m511.977 460.82 15.995 5.255M527.972 465.697l6.276-88.912" style="fill:none;stroke:red;stroke-width:.999997;stroke-linecap:round;stroke-linejoin:round;stroke-miterlimit:500;stroke-dasharray:none;stroke-opacity:1;visibility:visible"/><path d="m512.045 459.414-.068 1.028M518.055 369.218l-5.37 80.588" style="fill:none;stroke:red;stroke-width:1.73333;stroke-linecap:round;stroke-linejoin:round;stroke-miterlimit:500;stroke-dasharray:none;stroke-opacity:1;visibility:visible"/><path d="m517.05 434.898.367-.703.464-.597.554-.473.631-.342.692-.2.732-.054.76.093.77.237.76.379.74.51.686.626.625.733.555.819.467.888.533 1.259M517.323 449.525l-.459-.88-.364-.928M525.865 449.973l-.224.635-.372.698-.47.588-.557.467-.629.335-.688.193-.735.045-.754-.1-.768-.244-.759-.378-.727-.512" style="fill:none;stroke:red;stroke-width:.999997;stroke-linecap:round;stroke-linejoin:round;stroke-miterlimit:500;stroke-dasharray:none;stroke-opacity:1;visibility:visible"/><path d="m532.713 373.549-.136.194.023.222.179.222.317.206.427.169.502.123.532.058.508-.005.448-.073.34-.132.207-.18.06-.21M521.66 368.953l.021.217.176.223.314.2.426.173.495.119.53.06.506-.006.449-.072.34-.13.213-.175.057-.212M528.165 371.195l-.344.185-.197.227-.035.258.131.268.29.26.425.237.537.197.605.14.635.078.625.008.566-.064.473-.127.347-.185.194-.231.03-.256-.134-.268-.288-.263-.428-.234-.533-.196-.601-.14-.639-.076-.62-.008-.567.062-.472.128" style="fill:none;stroke:red;stroke-width:.666665;stroke-linecap:round;stroke-linejoin:round;stroke-miterlimit:500;stroke-dasharray:none;stroke-opacity:1;visibility:visible"/><path d="m518.279 368.895 2.821-1.068M539.67 374.211l-2.74-1.226M532.023 370.783l-6.263-2.808" style="fill:none;stroke:red;stroke-width:1.73333;stroke-linecap:round;stroke-linejoin:round;stroke-miterlimit:500;stroke-dasharray:none;stroke-opacity:1;visibility:visible"/><path d="m539.67 374.211-5.168 1.987M534.501 376.198l-16.224-7.303" style="fill:none;stroke:red;stroke-width:.999997;stroke-linecap:round;stroke-linejoin:round;stroke-miterlimit:500;stroke-dasharray:none;stroke-opacity:1;visibility:visible"/><path d="M533.99 368.585a.925.925 0 0 0-.38.195M533.99 370.183l.4 4.527M522.979 363.28a.925.925 0 0 0-.38.198M522.981 364.88l.399 4.525M536.399 369.718l-.359 4.628M533.015 369.458l-.35 4.547M535.913 368.966l.419.54M533.601 368.789l-.491.471M536.285 369.933a.316.316 0 0 0 .112-.215.308.308 0 0 0-.065-.21M533.108 369.26a.303.303 0 0 0-.093.197.312.312 0 0 0 .072.229M533.088 369.686a1.227 1.227 0 0 0 .479.348M533.567 370.034a3.46 3.46 0 0 0 2.193.17M535.759 370.202a1.2 1.2 0 0 0 .526-.27M535.905 368.957a.888.888 0 0 0-.344-.252" style="fill:none;stroke:red;stroke-width:.666665;stroke-linecap:round;stroke-linejoin:round;stroke-miterlimit:2;stroke-dasharray:none;stroke-opacity:1;visibility:visible"/><path d="M535.561 368.705a2.493 2.493 0 0 0-1.573-.12M525.387 364.413l-.358 4.626M522.004 364.153l-.35 4.547M524.903 363.662l.417.54M522.59 363.482l-.49.472M525.275 364.629a.316.316 0 0 0 .112-.215.307.307 0 0 0-.067-.21M522.099 363.954a.303.303 0 0 0-.094.196.313.313 0 0 0 .072.231M522.077 364.382a1.227 1.227 0 0 0 .479.348M522.556 364.729a3.46 3.46 0 0 0 2.193.169M524.75 364.898a1.2 1.2 0 0 0 .525-.27M524.895 363.651a.895.895 0 0 0-.345-.25M524.55 363.402a2.496 2.496 0 0 0-1.572-.122" style="fill:none;stroke:red;stroke-width:.666665;stroke-linecap:round;stroke-linejoin:round;stroke-miterlimit:2;stroke-dasharray:none;stroke-opacity:1;visibility:visible"/><path d="m525.585 380.926-.114.257-.266.837-.148.901M525.061 395.404l.47.891.557.817.63.724.697.618.74.492.765.36M524.915 395.028l-4.663 1.283M520.69 382.847l-.05 1.235M530.105 385.869c-.009.218-.018.1-.028.36M530.077 386.23c-.157 3.882-.157 3.878-.492 11.817M520.639 384.082c-.139 3.324-.522 12.202-.522 12.202" style="fill:none;stroke:red;stroke-width:.999997;stroke-linecap:round;stroke-linejoin:round;stroke-miterlimit:500;stroke-dasharray:none;stroke-opacity:1;visibility:visible"/><path d="m520.252 396.626.237.604.466.89.557.818.63.726.696.62.742.496.765.36.779.212.768.068.743-.084.702-.229.639-.375.565-.51.479-.632.375-.743.164-.51M530.105 385.869l-.502-1.314-.471-.898-.56-.82-.641-.732-.701-.618-.742-.494-.77-.355-.783-.212-.775-.059-.745.088-.698.243-.64.382-.56.517-.477.64-.372.743M526.385 438.474c-.077 1.858-.073 1.46-.521 11.501M521.105 434.868a7165.25 7165.25 0 0 1-.521 9.354M516.968 435.114l-.521 12.456" style="fill:none;stroke:red;stroke-width:.999997;stroke-linecap:round;stroke-linejoin:round;stroke-miterlimit:500;stroke-dasharray:none;stroke-opacity:1;visibility:visible"/><path d="M525.097 382.803c-.182-.302-.182 12.224-.182 12.224" style="fill:none;stroke:red;stroke-width:.999997;stroke-linecap:round;stroke-linejoin:round;stroke-miterlimit:500;stroke-dasharray:none;stroke-opacity:1;visibility:visible"/><path d="m521.123 435.502 11.372-14.405" style="fill:none;stroke:red;stroke-width:.666665;stroke-linecap:round;stroke-linejoin:round;stroke-miterlimit:500;stroke-dasharray:none;stroke-opacity:1;visibility:visible"/><path d="m512.686 449.806-.641 9.608M512.045 459.414l.64-9.608" style="fill:none;stroke:red;stroke-width:1.73333;stroke-linecap:round;stroke-linejoin:round;stroke-miterlimit:500;stroke-dasharray:none;stroke-opacity:1;visibility:visible"/><path d="m533.99 368.585-5.825 2.61" style="fill:none;stroke:red;stroke-width:.666665;stroke-linecap:round;stroke-linejoin:round;stroke-miterlimit:500;stroke-dasharray:none;stroke-opacity:1;visibility:visible"/><path d="m534.502 376.198-13.402-8.371M534.501 376.198l2.429-3.213M533.567 370.034l-1.544.749M522.556 364.73l3.204 3.245" style="fill:none;stroke:red;stroke-width:1.73333;stroke-linecap:round;stroke-linejoin:round;stroke-miterlimit:500;stroke-dasharray:none;stroke-opacity:1;visibility:visible"/><path d="m521.66 368.953 12.73 5.757M521.66 368.953l1.72.452" style="fill:none;stroke:red;stroke-width:.666665;stroke-linecap:round;stroke-linejoin:round;stroke-miterlimit:2;stroke-dasharray:none;stroke-opacity:1;visibility:visible"/><path d="m520.668 382.98 4.917-2.054" style="fill:none;stroke:red;stroke-width:.999997;stroke-linecap:round;stroke-linejoin:round;stroke-miterlimit:500;stroke-dasharray:none;stroke-opacity:1;visibility:visible"/><path d="m458.383 457.627-.021-.459-.115-.366-.195-.242-.257-.092-.303.062-.317.212-.303.345-.265.444-.2.505-.117.52-.024.492.065.42.159.304.232.168.281.016.312-.14.313-.281.286-.397.234-.48.162-.519.073-.512" style="fill:none;stroke:#00ff4a;stroke-width:.666665;stroke-linecap:round;stroke-linejoin:round;stroke-miterlimit:500;stroke-dasharray:none;stroke-opacity:1;visibility:visible"/><path d="m462.198 411.037-4.937 90.694" style="fill:none;stroke:#00ff4a;stroke-width:1.73333;stroke-linecap:round;stroke-linejoin:round;stroke-miterlimit:500;stroke-dasharray:none;stroke-opacity:1;visibility:visible"/><path d="m457.388 413.259-4.839 91.578" style="fill:none;stroke:#00ff4a;stroke-width:.999997;stroke-linecap:round;stroke-linejoin:round;stroke-miterlimit:500;stroke-dasharray:none;stroke-opacity:1;visibility:visible"/><path d="m434.901 499.324 4.56-93.065" style="fill:none;stroke:#00ff4a;stroke-width:1.73333;stroke-linecap:round;stroke-linejoin:round;stroke-miterlimit:500;stroke-dasharray:none;stroke-opacity:1;visibility:visible"/><path d="m452.55 504.837-17.648-4.947" style="fill:none;stroke:#00ff4a;stroke-width:.999997;stroke-linecap:round;stroke-linejoin:round;stroke-miterlimit:500;stroke-dasharray:none;stroke-opacity:1;visibility:visible"/><path d="m446.848 406.332-.177.204-.321.164-.436.104-.516.034-.55-.034-.528-.108-.466-.16-.36-.206-.222-.235-.064-.235" style="fill:none;stroke:#00ff4a;stroke-width:.666665;stroke-linecap:round;stroke-linejoin:round;stroke-miterlimit:500;stroke-dasharray:none;stroke-opacity:1;visibility:visible"/><path d="m457.387 413.26 4.836-2.466" style="fill:none;stroke:#00ff4a;stroke-width:.999997;stroke-linecap:round;stroke-linejoin:round;stroke-miterlimit:500;stroke-dasharray:none;stroke-opacity:1;visibility:visible"/><path d="m442.852 404.428-3.421 1.718M447.536 404.995l7.172 2.83M459.15 409.58l3.075 1.213" style="fill:none;stroke:#00ff4a;stroke-width:1.73333;stroke-linecap:round;stroke-linejoin:round;stroke-miterlimit:500;stroke-dasharray:none;stroke-opacity:1;visibility:visible"/><path d="m457.387 413.26-17.957-7.113" style="fill:none;stroke:#00ff4a;stroke-width:.999997;stroke-linecap:round;stroke-linejoin:round;stroke-miterlimit:500;stroke-dasharray:none;stroke-opacity:1;visibility:visible"/><path d="m449.936 408.122.454-.167.562-.1.635-.027.656.05.647.122.58.183.477.237.35.27.185.288.022.282-.15.263-.311.223-.453.166-.563.1-.632.025-.661-.049-.644-.121-.58-.187-.486-.234-.344-.27-.191-.29-.018-.282.153-.262.312-.22M458.67 410.887l-.011.233-.176.207-.317.164-.44.103-.52.036-.546-.036-.533-.104-.467-.166-.364-.208-.226-.234-.068-.24" style="fill:none;stroke:#00ff4a;stroke-width:.666665;stroke-linecap:round;stroke-linejoin:round;stroke-miterlimit:500;stroke-dasharray:none;stroke-opacity:1;visibility:visible"/><path d="m447.103 401.704-.355 4.63M443.723 401.447l-.35 4.547M446.622 400.954l.416.54M444.31 400.775l-.492.472M446.99 401.92a.296.296 0 0 0 .114-.216.293.293 0 0 0-.066-.209M443.818 401.247a.29.29 0 0 0-.094.199.29.29 0 0 0 .072.228M443.796 401.675a1.219 1.219 0 0 0 .476.348M444.272 402.022c.344.146.71.236 1.086.264a3.493 3.493 0 0 0 1.109-.096M446.468 402.191a1.204 1.204 0 0 0 .524-.27M446.614 400.946a.884.884 0 0 0-.344-.25M446.27 400.695a2.496 2.496 0 0 0-1.576-.121M444.695 400.572a.916.916 0 0 0-.377.196M444.698 402.171l.4 4.527M458.892 406.122l-.357 4.628M455.51 405.863l-.35 4.547M456.096 405.192l-.492.472M458.78 406.336a.319.319 0 0 0 .112-.214.308.308 0 0 0-.065-.21M455.603 405.664a.303.303 0 0 0-.093.2.312.312 0 0 0 .072.226M455.583 406.091a1.227 1.227 0 0 0 .479.349M456.062 406.44a3.46 3.46 0 0 0 2.193.167M458.255 406.608a1.2 1.2 0 0 0 .527-.27M458.4 405.362a.884.884 0 0 0-.344-.25M458.056 405.111a2.496 2.496 0 0 0-1.573-.121M456.484 404.988a.925.925 0 0 0-.38.196M456.486 406.588l.398 4.527" style="fill:none;stroke:#00ff4a;stroke-width:.666665;stroke-linecap:round;stroke-linejoin:round;stroke-miterlimit:2;stroke-dasharray:none;stroke-opacity:1;visibility:visible"/><path d="m457.387 413.26-14.535-8.832M444.272 402.023l3.264 2.972M456.062 406.44l-1.354 1.385M457.387 413.26l1.763-3.68" style="fill:none;stroke:#00ff4a;stroke-width:1.73333;stroke-linecap:round;stroke-linejoin:round;stroke-miterlimit:500;stroke-dasharray:none;stroke-opacity:1;visibility:visible"/><path d="m446.99 401.92 2.946 6.202" style="fill:none;stroke:#00ff4a;stroke-width:.666665;stroke-linecap:round;stroke-linejoin:round;stroke-miterlimit:500;stroke-dasharray:none;stroke-opacity:1;visibility:visible"/><path d="m456.486 406.588-11.388.11M444.698 402.171l12.186 8.944" style="fill:none;stroke:#00ff4a;stroke-width:.666665;stroke-linecap:round;stroke-linejoin:round;stroke-miterlimit:2;stroke-dasharray:none;stroke-opacity:1;visibility:visible"/><path d="m385.776 426.963-71.117 32.557M385.818 432.273l-.019.216-.052.199-.082.168-.112.136-.134.09M383.683 425.367h0l.161-.055.175-.01.185.036M384.826 425.533l-.623-.196M385.813 432.085l.005.188M385.818 432.083l-.041-5.12M385.818 432.083l-.005.003M384.826 425.533l.361.197.306.342.208.433.076.457" style="fill:none;stroke:#9500ff;stroke-width:.999997;stroke-linecap:round;stroke-linejoin:round;stroke-miterlimit:500;stroke-dasharray:none;stroke-opacity:1;visibility:visible"/><path d="m334.946 440.893.416.099.477.042.498-.013.469-.07.403-.12.3-.16.172-.183.025-.192-.121-.184-.259-.159-.37-.12-.453-.072-.486-.013-.49.044-.441.093-.359.141-.237.174-.099.189.047.192.193.172.315.14M339.136 442.143l.41.09.465.037.477-.028.437-.088.344-.136.219-.17.07-.184-.091-.182-.232-.156-.362-.118-.445-.062-.477-.003-.463.059-.396.112-.284.154-.148.179.01.187.163.17.303.139" style="fill:none;stroke:#9500ff;stroke-width:.666665;stroke-linecap:round;stroke-linejoin:round;stroke-miterlimit:500;stroke-dasharray:none;stroke-opacity:1;visibility:visible"/><path d="m310.907 458.46 72.518-33.108M372.633 421.442l11.57 3.895" style="fill:none;stroke:#9500ff;stroke-width:.999997;stroke-linecap:round;stroke-linejoin:round;stroke-miterlimit:500;stroke-dasharray:none;stroke-opacity:1;visibility:visible"/><path d="m298.308 455.25 74.138-33.43" style="fill:none;stroke:#9500ff;stroke-width:1.73333;stroke-linecap:round;stroke-linejoin:round;stroke-miterlimit:500;stroke-dasharray:none;stroke-opacity:1;visibility:visible"/><path d="m531.386 473.63-.047.384-.093.395-.128.393-.164.38-.199.356-.218.321-.236.276-.254.223-.249.163-.248.096-.235.029-.218-.039-.187-.108-.163-.172-.121-.232-.081-.281-.039-.327.003-.362.049-.383.088-.396.133-.395.164-.381.195-.356.221-.324.238-.273.253-.222.25-.162.247-.098.234-.029.22.041.186.108.159.171.123.233.081.283.041.328-.005.36" style="fill:none;stroke:#9500ff;stroke-width:.666665;stroke-linecap:round;stroke-linejoin:round;stroke-miterlimit:500;stroke-dasharray:none;stroke-opacity:1;visibility:visible"/><path d="m534.82 462.458-1.224 17.133M533.597 479.59l-11.492 6.007M306.45 406.587l.197-11.948M519.329 484.58l2.776 1.017M459.597 462.56l35.473 12.913M382.657 434.507l49.719 18.07M306.45 406.587l54.767 19.893" style="fill:none;stroke:#9500ff;stroke-width:1.73333;stroke-linecap:round;stroke-linejoin:round;stroke-miterlimit:500;stroke-dasharray:none;stroke-opacity:1;visibility:visible"/><path d="m522.295 482.833.995-14.445M522.105 485.597l.188-2.73" style="fill:none;stroke:#9500ff;stroke-width:.999997;stroke-linecap:round;stroke-linejoin:round;stroke-miterlimit:500;stroke-dasharray:none;stroke-opacity:1;visibility:visible"/><path d="m533.128 461.906 1.693.552M460.886 438.22l42.461 13.95M315.404 390.893l14.255 4.65 16.609 5.418 91.734 29.919M306.649 394.639l8.755-3.747" style="fill:none;stroke:#9500ff;stroke-width:1.73333;stroke-linecap:round;stroke-linejoin:round;stroke-miterlimit:500;stroke-dasharray:none;stroke-opacity:1;visibility:visible"/><path d="m460.446 446.867 62.844 21.521M306.649 394.639l22.899 7.793 18.617 6.342 89.462 30.452M533.026 463.38l1.795-.921M523.29 468.387l9.705-4.99" style="fill:none;stroke:#9500ff;stroke-width:.999997;stroke-linecap:round;stroke-linejoin:round;stroke-miterlimit:500;stroke-dasharray:none;stroke-opacity:1;visibility:visible"/><path d="m449.677 523.541 12.344-6.476M462.636 505.847l.352-6.397" style="fill:none;stroke:#9500ff;stroke-width:1.73333;stroke-linecap:round;stroke-linejoin:round;stroke-miterlimit:500;stroke-dasharray:none;stroke-opacity:1;visibility:visible"/><path d="m461.82 513.851.437-8.004" style="fill:none;stroke:#9500ff;stroke-width:.999997;stroke-linecap:round;stroke-linejoin:round;stroke-miterlimit:500;stroke-dasharray:none;stroke-opacity:1;visibility:visible"/><path d="m462.021 517.065.177-3.213" style="fill:none;stroke:#9500ff;stroke-width:1.73333;stroke-linecap:round;stroke-linejoin:round;stroke-miterlimit:500;stroke-dasharray:none;stroke-opacity:1;visibility:visible"/><path d="m453.04 514.37.005.372.052.335.094.29.141.235.177.172.211.104.235.033.257-.036.265-.106.271-.176.265-.235.256-.288.23-.337.208-.371.172-.396.13-.408.088-.408.047-.395-.005-.369-.047-.336-.096-.29-.139-.234-.177-.173-.208-.106-.239-.034-.253.034-.268.107-.273.175-.263.236-.256.29-.235.335-.202.372-.172.397-.135.407-.09.41-.046.394" style="fill:none;stroke:#9500ff;stroke-width:.666665;stroke-linecap:round;stroke-linejoin:round;stroke-miterlimit:500;stroke-dasharray:none;stroke-opacity:1;visibility:visible"/><path d="m206.994 449.764 242.683 73.777" style="fill:none;stroke:#9500ff;stroke-width:1.73333;stroke-linecap:round;stroke-linejoin:round;stroke-miterlimit:500;stroke-dasharray:none;stroke-opacity:1;visibility:visible"/><path d="m450.592 505.843-.915 17.697" style="fill:none;stroke:#9500ff;stroke-width:.999997;stroke-linecap:round;stroke-linejoin:round;stroke-miterlimit:500;stroke-dasharray:none;stroke-opacity:1;visibility:visible"/><path d="m206.904 437.387.09 12.376" style="fill:none;stroke:#9500ff;stroke-width:1.73333;stroke-linecap:round;stroke-linejoin:round;stroke-miterlimit:500;stroke-dasharray:none;stroke-opacity:1;visibility:visible"/><path d="m206.904 437.387 243.687 68.456M452.545 504.837l-1.953 1.007M462.987 499.45l-10.412 5.37" style="fill:none;stroke:#9500ff;stroke-width:.999997;stroke-linecap:round;stroke-linejoin:round;stroke-miterlimit:500;stroke-dasharray:none;stroke-opacity:1;visibility:visible"/><path d="m457.472 497.968 5.516 1.481M216.477 433.278l-9.573 4.11M216.477 433.278l218.778 58.727M462.177 514.268l59.74-31.779" style="fill:none;stroke:#9500ff;stroke-width:1.73333;stroke-linecap:round;stroke-linejoin:round;stroke-miterlimit:500;stroke-dasharray:none;stroke-opacity:1;visibility:visible"/><path d="M462.177 514.268h-.003M462.177 514.268v-.033M462.586 506.75l59.86-31.048M522.446 475.513l-7.357-2.65" style="fill:none;stroke:#9500ff;stroke-width:.999997;stroke-linecap:round;stroke-linejoin:round;stroke-miterlimit:500;stroke-dasharray:none;stroke-opacity:1;visibility:visible"/><path d="m473.934 486.571-15.963 8.155M506.308 469.993l-25.087 12.836M390.75 479.88l46.024-22.37M437.115 450.294l-55.516 26.81M323.66 461.513l61.76-28.43" style="fill:none;stroke:#9500ff;stroke-width:1.73333;stroke-linecap:round;stroke-linejoin:round;stroke-miterlimit:500;stroke-dasharray:none;stroke-opacity:1;visibility:visible"/><path d="m519.679 450.247-3.939 1.895M478.27 494.963a1.152 1.152 0 0 1-.419.324M478.764 493.646a2.23 2.23 0 0 1-.493 1.317M478.764 493.55v.097M478.764 489.415v4.247M476.868 490.206v4.238M477.361 488.916a1.13 1.13 0 0 1 .419-.321M476.868 490.232c.019-.477.19-.942.493-1.314M476.868 490.342l-.001-.066.001-.044M476.97 494.955a1.128 1.128 0 0 1-.103-.512" style="fill:none;stroke:#9500ff;stroke-width:.666665;stroke-linecap:round;stroke-linejoin:round;stroke-miterlimit:2;stroke-dasharray:none;stroke-opacity:1;visibility:visible"/><path d="M477.852 495.287a.664.664 0 0 1-.882-.332M465.443 497.304c.007-.26.216-.521.576-.726l5.365-2.852c.353-.17.7-.224 1.004-.224M473.012 493.57c.228.057.368.12.368.12l.159.047M478.66 488.924a1.112 1.112 0 0 1 .103.474v.016M477.779 488.595a.667.667 0 0 1 .881.33M473.88 501.066c-.156.104-.38.133-.692.03l-6.77-2.364c-.63-.205-.934-.49-.979-.784v-.625M473.56 499.948l-5.7-2.002c-1.076-.35-1.03-.97-.35-1.36l4.553-2.416a2 2 0 0 1 .267-.106" style="fill:none;stroke:#9500ff;stroke-width:.666665;stroke-linecap:round;stroke-linejoin:round;stroke-miterlimit:2;stroke-dasharray:none;stroke-opacity:1;visibility:visible"/><path d="m480.967 483.518-.752-.194c-.366-.06-.788.03-1.26.296l-1.903.92c-2.367 1.226-3.415 2.609-3.415 6.527v8.863" style="fill:none;stroke:#9500ff;stroke-width:.666665;stroke-linecap:round;stroke-linejoin:round;stroke-miterlimit:2;stroke-dasharray:none;stroke-opacity:1;visibility:visible"/><path d="m481.401 497.122.464-.3c.583-.303.572-1.115.572-1.49v-8.653c0-1.867-.647-2.905-1.502-3.153M497.823 480.542c.006-.26.216-.523.576-.727l5.365-2.852c.353-.168.7-.224 1.004-.224M505.39 476.81a2 2 0 0 1 .368.118l.159.047M511.04 472.162a1.117 1.117 0 0 1 .103.473v.016M510.159 471.831a.664.664 0 0 1 .881.33M509.741 472.154a1.133 1.133 0 0 1 .419-.324M509.248 473.468c.019-.478.19-.942.493-1.314M509.248 473.579l-.001-.068.001-.043M509.35 478.192a1.124 1.124 0 0 1-.103-.512M510.232 478.523a.68.68 0 0 1-.276.063.668.668 0 0 1-.606-.394M510.65 478.2a1.12 1.12 0 0 1-.416.323M511.144 476.884a2.232 2.232 0 0 1-.493 1.316M511.144 476.787v.097M511.144 472.651v4.248M509.248 473.444v4.238M472.153 495.708c.082-.03.162-.056.242-.074M473.127 495.588c.14.019.281.048.418.095M471.907 496.704a1.012 1.012 0 0 1-.383-.346M473.637 496.768a2.081 2.081 0 0 1-.794.163 2.105 2.105 0 0 1-.936-.227M471.524 496.16a1.08 1.08 0 0 1 .3-.302M471.524 496.358a.183.183 0 0 1-.028-.1c0-.036.01-.071.028-.098" style="fill:none;stroke:#9500ff;stroke-width:.666665;stroke-linecap:round;stroke-linejoin:round;stroke-miterlimit:2;stroke-dasharray:none;stroke-opacity:1;visibility:visible"/><path d="m473.967 501.03.985-.523s.285-.243.285-.523v-8.817c0-2.941.787-3.977 2.563-4.897l1.523-.76c1.037-.53 2.077.193 2.077 2.24v9.373c-.259.067-.593-.099-.928.013-.5.166-5.084 2.75-5.084 2.75M506.261 484.302c-.156.104-.38.133-.691.028l-6.77-2.362c-.632-.205-.936-.492-.98-.784v-.624M505.94 483.188l-5.7-2.002c-1.076-.352-1.03-.971-.35-1.36l4.553-2.416c.09-.044.18-.078.267-.107M513.347 466.755l-.752-.193c-.366-.062-.788.028-1.26.297l-1.903.917c-2.367 1.227-3.415 2.61-3.415 6.528v8.863" style="fill:none;stroke:#9500ff;stroke-width:.666665;stroke-linecap:round;stroke-linejoin:round;stroke-miterlimit:2;stroke-dasharray:none;stroke-opacity:1;visibility:visible"/><path d="m513.781 480.359.464-.3c.583-.305.572-1.116.572-1.492v-8.65c0-1.867-.647-2.907-1.502-3.155M504.535 478.946c.081-.028.161-.056.241-.074M505.507 478.826c.14.017.281.049.418.094M504.287 479.943a1.027 1.027 0 0 1-.383-.348M506.017 480.006a2.08 2.08 0 0 1-.794.16 2.1 2.1 0 0 1-.936-.222M503.904 479.396a1.041 1.041 0 0 1 .3-.301M503.904 479.595a.179.179 0 0 1-.028-.1c0-.037.01-.072.028-.097" style="fill:none;stroke:#9500ff;stroke-width:.666665;stroke-linecap:round;stroke-linejoin:round;stroke-miterlimit:2;stroke-dasharray:none;stroke-opacity:1;visibility:visible"/><path d="m506.347 484.268.985-.525s.285-.244.285-.524v-8.817c0-2.939.787-3.978 2.563-4.896l1.523-.76c1.037-.53 2.077.193 2.077 2.24v9.372c-.259.068-.593-.098-.928.014-.5.164-5.084 2.75-5.084 2.75" style="fill:none;stroke:#9500ff;stroke-width:.666665;stroke-linecap:round;stroke-linejoin:round;stroke-miterlimit:2;stroke-dasharray:none;stroke-opacity:1;visibility:visible"/><path d="m533.596 479.591-2.21-5.961M523.29 468.388l8.096 5.242" style="fill:none;stroke:#9500ff;stroke-width:.666665;stroke-linecap:round;stroke-linejoin:round;stroke-miterlimit:500;stroke-dasharray:none;stroke-opacity:1;visibility:visible"/><path d="m522.446 475.513-3.117 9.067M480.935 483.526l14.135-8.053M384.826 425.533l-2.169 8.974M372.633 421.442l-11.416 5.038M523.29 468.388l9.838-6.482M513.315 466.762l-9.968-14.591" style="fill:none;stroke:#9500ff;stroke-width:1.73333;stroke-linecap:round;stroke-linejoin:round;stroke-miterlimit:500;stroke-dasharray:none;stroke-opacity:1;visibility:visible"/><path d="m461.82 513.851-8.78.519M450.592 505.843l2.448 8.527" style="fill:none;stroke:#9500ff;stroke-width:.666665;stroke-linecap:round;stroke-linejoin:round;stroke-miterlimit:500;stroke-dasharray:none;stroke-opacity:1;visibility:visible"/><path d="m450.591 505.843 6.881-7.875" style="fill:none;stroke:#9500ff;stroke-width:1.73333;stroke-linecap:round;stroke-linejoin:round;stroke-miterlimit:500;stroke-dasharray:none;stroke-opacity:1;visibility:visible"/><path d="m523.29 468.388-8.201 4.476" style="fill:none;stroke:#9500ff;stroke-width:.999997;stroke-linecap:round;stroke-linejoin:round;stroke-miterlimit:500;stroke-dasharray:none;stroke-opacity:1;visibility:visible"/><path d="m477.779 488.595-3.845-2.024M462.987 499.45l-5.016-4.724M510.159 471.831l-3.851-1.838" style="fill:none;stroke:#9500ff;stroke-width:1.73333;stroke-linecap:round;stroke-linejoin:round;stroke-miterlimit:500;stroke-dasharray:none;stroke-opacity:1;visibility:visible"/><path d="m523.29 468.387-3.611-18.14M480.935 483.526l-7.396 10.211M473.88 501.066l7.521-3.944M515.089 472.864l-9.172 4.111M473.012 493.57l.533 2.113M472.153 495.708l1.484 1.06M473.88 501.066l1.508-1.18M521.917 482.49l-8.136-2.131M515.089 472.864l-9.164 6.056M504.535 478.946l1.482 1.06M506.261 484.302l1.507-1.18" style="fill:none;stroke:#9500ff;stroke-width:.666665;stroke-linecap:round;stroke-linejoin:round;stroke-miterlimit:2;stroke-dasharray:none;stroke-opacity:1;visibility:visible"/><path d="m462.988 499.45-5.727 2.281" style="fill:none;stroke:#00ff4a;stroke-width:1.73333;stroke-linecap:round;stroke-linejoin:round;stroke-miterlimit:500;stroke-dasharray:none;stroke-opacity:1;visibility:visible"/><path d="m434.902 499.89.353-7.885" style="fill:none;stroke:#9500ff;stroke-width:1.73333;stroke-linecap:round;stroke-linejoin:round;stroke-miterlimit:500;stroke-dasharray:none;stroke-opacity:1;visibility:visible"/><path d="m523.29 468.388-7.55-16.246" style="fill:none;stroke:#9500ff;stroke-width:.666665;stroke-linecap:round;stroke-linejoin:round;stroke-miterlimit:2;stroke-dasharray:none;stroke-opacity:1;visibility:visible"/></svg>