<svg xmlns="http://www.w3.org/2000/svg" baseProfile="full" height="1122.52" preserveAspectRatio="xMinYMin meet" style="width:912px;height:1303px" width="793.701" xml:space="preserve"><path d="m521.854 301.9 3.945-2.135" style="fill:none;stroke:red;stroke-width:.999997;stroke-linecap:round;stroke-linejoin:round;stroke-miterlimit:500;stroke-dasharray:none;stroke-opacity:1;visibility:visible" visibility="hidden"/><path d="m530.317 300.919-4.519-1.153M591.408 316.518l-37.12-9.48" style="fill:none;stroke:red;stroke-width:1.73333;stroke-linecap:round;stroke-linejoin:round;stroke-miterlimit:500;stroke-dasharray:none;stroke-opacity:1;visibility:visible" visibility="hidden"/><path d="m521.854 301.9 1.024 17.099" style="fill:none;stroke:red;stroke-width:.999997;stroke-linecap:round;stroke-linejoin:round;stroke-miterlimit:500;stroke-dasharray:none;stroke-opacity:1;visibility:visible" visibility="hidden"/><path d="m554.606 327.287 27.544 7.197M522.877 318.998l6.893 1.801" style="fill:none;stroke:red;stroke-width:1.73333;stroke-linecap:round;stroke-linejoin:round;stroke-miterlimit:500;stroke-dasharray:none;stroke-opacity:1;visibility:visible" visibility="hidden"/><path d="m530.364 304.08-8.51-2.181M591.067 319.635l-36.91-9.457" style="fill:none;stroke:red;stroke-width:.999997;stroke-linecap:round;stroke-linejoin:round;stroke-miterlimit:500;stroke-dasharray:none;stroke-opacity:1;visibility:visible" visibility="hidden"/><path d="m530.044 380.415-70.67-19.705" style="fill:none;stroke:red;stroke-width:1.73333;stroke-linecap:round;stroke-linejoin:round;stroke-miterlimit:500;stroke-dasharray:none;stroke-opacity:1;visibility:visible" visibility="hidden"/><path d="m459.375 360.71-2.552-17.01" style="fill:none;stroke:red;stroke-width:.999997;stroke-linecap:round;stroke-linejoin:round;stroke-miterlimit:500;stroke-dasharray:none;stroke-opacity:1;visibility:visible" visibility="hidden"/><path d="m461.101 340.576 69.028 18.823" style="fill:none;stroke:red;stroke-width:1.73333;stroke-linecap:round;stroke-linejoin:round;stroke-miterlimit:500;stroke-dasharray:none;stroke-opacity:1;visibility:visible" visibility="hidden"/><path d="m461.101 340.576-4.279 3.123M456.823 343.699l73.024 20.003M614.229 182.418l.028-.736M614.229 182.418l-.027.212-.064.19-.102.165-.13.129-.086.057M613.786 180.588l.057.055.146.177.122.204.087.213.05.224.01.22M614.085 180.416l1.083-13.97M614.085 180.416l-61.245 35.741M583.734 192.776l-.057.45-.136.454-.2.405-.243.311-.26.185-.25.042-.211-.111-.146-.252-.073-.361.013-.432.096-.463.172-.433.224-.366.256-.252.258-.113.232.039.185.184.11.308.03.405M609.096 164.78l6.073 1.667" style="fill:none;stroke:red;stroke-width:.999997;stroke-linecap:round;stroke-linejoin:round;stroke-miterlimit:500;stroke-dasharray:none;stroke-opacity:1;visibility:visible" visibility="hidden"/><path d="m579.171 181.686 29.924-16.907M552.213 196.915l22.281-12.585" style="fill:none;stroke:red;stroke-width:1.73333;stroke-linecap:round;stroke-linejoin:round;stroke-miterlimit:500;stroke-dasharray:none;stroke-opacity:1;visibility:visible" visibility="hidden"/><path d="m552.562 202.276 62.607-35.83" style="fill:none;stroke:red;stroke-width:.999997;stroke-linecap:round;stroke-linejoin:round;stroke-miterlimit:500;stroke-dasharray:none;stroke-opacity:1;visibility:visible" visibility="hidden"/><path d="m549.947 113.708-11.83-2.359M538.117 111.35l-8.161 4.039M549.947 113.708l5.364 265.322" style="fill:none;stroke:red;stroke-width:1.73333;stroke-linecap:round;stroke-linejoin:round;stroke-miterlimit:500;stroke-dasharray:none;stroke-opacity:1;visibility:visible" visibility="hidden"/><path d="m541.833 117.775 8.115-4.067" style="fill:none;stroke:red;stroke-width:.999997;stroke-linecap:round;stroke-linejoin:round;stroke-miterlimit:500;stroke-dasharray:none;stroke-opacity:1;visibility:visible" visibility="hidden"/><path d="m545.25 386.247 10.063-7.216" style="fill:none;stroke:red;stroke-width:1.73333;stroke-linecap:round;stroke-linejoin:round;stroke-miterlimit:500;stroke-dasharray:none;stroke-opacity:1;visibility:visible" visibility="hidden"/><path d="m541.833 117.775 3.417 268.471M529.955 115.39l11.877 2.385" style="fill:none;stroke:red;stroke-width:.999997;stroke-linecap:round;stroke-linejoin:round;stroke-miterlimit:500;stroke-dasharray:none;stroke-opacity:1;visibility:visible" visibility="hidden"/><path d="m529.955 115.39.495 266.711M530.45 382.101l14.8 4.145M613.236 74.277l7.128-3.507M620.364 70.77l11.325 2.07M612.87 337.837l-9.15 6.539M631.69 72.841l-18.82 264.995" style="fill:none;stroke:red;stroke-width:1.73333;stroke-linecap:round;stroke-linejoin:round;stroke-miterlimit:500;stroke-dasharray:none;stroke-opacity:1;visibility:visible" visibility="hidden"/><path d="m631.69 72.841-7.083 3.53M601.585 254.063l.325-.17.399-.111.421-.024.436.057M603.166 253.816l.43.147.417.224.388.3.35.361.298.417.24.456.169.483.101.496.026.495-.052.472-.124.442-.194.396-.26.339-.316.27-.028.017" style="fill:none;stroke:red;stroke-width:.999997;stroke-linecap:round;stroke-linejoin:round;stroke-miterlimit:500;stroke-dasharray:none;stroke-opacity:1;visibility:visible" visibility="hidden"/><path d="m596.169 264.67-5.81 64.45M602.908 189.513l-6.065 67.626M613.236 74.277l-8.323 92.833M603.718 344.376l-2.295-.604" style="fill:none;stroke:red;stroke-width:1.73333;stroke-linecap:round;stroke-linejoin:round;stroke-miterlimit:500;stroke-dasharray:none;stroke-opacity:1;visibility:visible" visibility="hidden"/><path d="m624.606 76.371-11.37-2.093M624.606 76.371l-20.888 268.005" style="fill:none;stroke:red;stroke-width:.999997;stroke-linecap:round;stroke-linejoin:round;stroke-miterlimit:500;stroke-dasharray:none;stroke-opacity:1;visibility:visible" visibility="hidden"/><path d="m406.297 90.501 8.633-3.716M414.93 86.785l10.976 2.17M406.297 90.501l37.167 267.414M457.505 361.826l-14.041-3.912" style="fill:none;stroke:red;stroke-width:1.73333;stroke-linecap:round;stroke-linejoin:round;stroke-miterlimit:500;stroke-dasharray:none;stroke-opacity:1;visibility:visible" visibility="hidden"/><path d="m417.312 92.695 40.193 269.131M417.312 92.695 406.296 90.5" style="fill:none;stroke:red;stroke-width:.999997;stroke-linecap:round;stroke-linejoin:round;stroke-miterlimit:500;stroke-dasharray:none;stroke-opacity:1;visibility:visible" visibility="hidden"/><path d="m459.362 360.623-1.857 1.203M425.906 88.954l39.88 252.035" style="fill:none;stroke:red;stroke-width:1.73333;stroke-linecap:round;stroke-linejoin:round;stroke-miterlimit:500;stroke-dasharray:none;stroke-opacity:1;visibility:visible" visibility="hidden"/><path d="m425.906 88.954-8.593 3.741" style="fill:none;stroke:red;stroke-width:.999997;stroke-linecap:round;stroke-linejoin:round;stroke-miterlimit:500;stroke-dasharray:none;stroke-opacity:1;visibility:visible" visibility="hidden"/><path d="M486.11 337.36s8.214-5.262 15.698-10.081M509.61 322.229l3.21-2.066M475.59 344.21l2.876-1.808" style="fill:none;stroke:red;stroke-width:1.73333;stroke-linecap:round;stroke-linejoin:round;stroke-miterlimit:500;stroke-dasharray:none;stroke-opacity:1;visibility:visible" visibility="hidden"/><path d="m512.82 320.161-.664-17.165M512.156 302.996l-5.585-1.077M512.156 302.996l-47.237 29.67" style="fill:none;stroke:red;stroke-width:.999997;stroke-linecap:round;stroke-linejoin:round;stroke-miterlimit:500;stroke-dasharray:none;stroke-opacity:1;visibility:visible" visibility="hidden"/><path d="m506.57 301.919-42.175 26.373M601.424 343.774l-45.383 32.403" style="fill:none;stroke:red;stroke-width:1.73333;stroke-linecap:round;stroke-linejoin:round;stroke-miterlimit:500;stroke-dasharray:none;stroke-opacity:1;visibility:visible" visibility="hidden"/><path d="m601.424 343.774 1.323-17.104M596.867 324.789l5.88 1.881" style="fill:none;stroke:red;stroke-width:.999997;stroke-linecap:round;stroke-linejoin:round;stroke-miterlimit:500;stroke-dasharray:none;stroke-opacity:1;visibility:visible" visibility="hidden"/><path d="m555.362 353.483 41.505-28.695" style="fill:none;stroke:red;stroke-width:1.73333;stroke-linecap:round;stroke-linejoin:round;stroke-miterlimit:500;stroke-dasharray:none;stroke-opacity:1;visibility:visible" visibility="hidden"/><path d="m555.71 359.623 47.036-32.953M505.987 143.144l-5.705-.82" style="fill:none;stroke:red;stroke-width:.999997;stroke-linecap:round;stroke-linejoin:round;stroke-miterlimit:500;stroke-dasharray:none;stroke-opacity:1;visibility:visible" visibility="hidden"/><path d="m500.28 142.324-59.953 30.147M499.067 163.933l7.573-3.932M443.508 192.77l31.885-16.547" style="fill:none;stroke:red;stroke-width:1.73333;stroke-linecap:round;stroke-linejoin:round;stroke-miterlimit:500;stroke-dasharray:none;stroke-opacity:1;visibility:visible" visibility="hidden"/><path d="m506.64 160.001-.653-16.857M505.987 143.144l-65.175 32.965" style="fill:none;stroke:red;stroke-width:.999997;stroke-linecap:round;stroke-linejoin:round;stroke-miterlimit:500;stroke-dasharray:none;stroke-opacity:1;visibility:visible" visibility="hidden"/><path d="m502.09 49.265-7.576 3.259M512.65 51.177l-10.56-1.912M520.656 186.599l6.695 113.29M512.65 51.177l6.94 117.404" style="fill:none;stroke:red;stroke-width:1.73333;stroke-linecap:round;stroke-linejoin:round;stroke-miterlimit:500;stroke-dasharray:none;stroke-opacity:1;visibility:visible" visibility="hidden"/><path d="m505.114 54.458 7.536-3.281" style="fill:none;stroke:red;stroke-width:.999997;stroke-linecap:round;stroke-linejoin:round;stroke-miterlimit:500;stroke-dasharray:none;stroke-opacity:1;visibility:visible" visibility="hidden"/><path d="m518.737 322.058 4.645-3.016" style="fill:none;stroke:red;stroke-width:1.73333;stroke-linecap:round;stroke-linejoin:round;stroke-miterlimit:500;stroke-dasharray:none;stroke-opacity:1;visibility:visible" visibility="hidden"/><path d="m511.716 184.147 7.021 137.912M505.114 54.458l5.71 112.198M494.515 52.525l10.599 1.933" style="fill:none;stroke:red;stroke-width:.999997;stroke-linecap:round;stroke-linejoin:round;stroke-miterlimit:500;stroke-dasharray:none;stroke-opacity:1;visibility:visible" visibility="hidden"/><path d="m499.648 181.7 4.828 121.552M494.515 52.525l3.61 90.825M512.442 320.411l6.295 1.647" style="fill:none;stroke:red;stroke-width:1.73333;stroke-linecap:round;stroke-linejoin:round;stroke-miterlimit:500;stroke-dasharray:none;stroke-opacity:1;visibility:visible" visibility="hidden"/><path d="m471.513 175.202-1.24-13.91" style="fill:none;stroke:red;stroke-width:.999997;stroke-linecap:round;stroke-linejoin:round;stroke-miterlimit:500;stroke-dasharray:none;stroke-opacity:1;visibility:visible" visibility="hidden"/><path d="m552.213 193.071 4.721 1.045M471.513 175.202l58.248 12.897" style="fill:none;stroke:red;stroke-width:1.73333;stroke-linecap:round;stroke-linejoin:round;stroke-miterlimit:500;stroke-dasharray:none;stroke-opacity:1;visibility:visible" visibility="hidden"/><path d="m470.273 161.293 4.292-2.172M551.687 179.08l23.279 5.085M470.273 161.293l59.724 13.048M575.156 184.543l4.079-2.316" style="fill:none;stroke:red;stroke-width:.999997;stroke-linecap:round;stroke-linejoin:round;stroke-miterlimit:500;stroke-dasharray:none;stroke-opacity:1;visibility:visible" visibility="hidden"/><path d="m551.492 175.854 27.552 5.995M474.565 159.12l55.235 12.016M601.585 254.063l-47.841 30.435M553.744 291.831l50.867-32.7M552.908 218.854l60.912-35.683" style="fill:none;stroke:red;stroke-width:1.73333;stroke-linecap:round;stroke-linejoin:round;stroke-miterlimit:500;stroke-dasharray:none;stroke-opacity:1;visibility:visible" visibility="hidden"/><path d="m572.74 319.067-.172.747-.06.79.05.82.158.828.267.819.364.788.456.74.533.676.607.595.794.392M575.349 326.299l-3.183 1.805M579.53 330.472l.73.219.723.096.706-.036.666-.159.618-.283.549-.401.472-.508.38-.601.279-.687.174-.747.063-.797-.048-.827-.159-.836-.268-.825-.366-.795-.462-.746-.538-.682-.61-.596-.664-.504-.704-.396-.724-.276-.729-.15-.093-.003" style="fill:none;stroke:red;stroke-width:.999997;stroke-linecap:round;stroke-linejoin:round;stroke-miterlimit:500;stroke-dasharray:none;stroke-opacity:1;visibility:visible" visibility="hidden"/><path d="m572.937 318.299-.7.036-.664.164-.615.287-.545.404-.465.506-.375.603-.276.684-.17.747-.06.794.05.822.161.83.266.822.365.792.455.742.54.676.606.596.656.5.695.392" style="fill:none;stroke:red;stroke-width:.999997;stroke-linecap:round;stroke-linejoin:round;stroke-miterlimit:500;stroke-dasharray:none;stroke-opacity:1;visibility:visible" visibility="hidden"/><path d="M582.057 321.368v8.908" style="fill:none;stroke:red;stroke-width:.666665;stroke-linecap:round;stroke-linejoin:round;stroke-miterlimit:500;stroke-dasharray:none;stroke-opacity:1;visibility:visible" visibility="hidden"/><path d="m507.497 318.025.132 4.28M503.352 317.991l2.01-1.51M502.105 326.226l-.348-4.739M510.677 329.84l-7.977-2.865M517.82 328.325l-1.388 1.056M508.155 317.427l.135 4.343M517.377 325.114l-8.245-2.97M503.03 321.16l.344 4.639M505.946 317.5l-2.02 1.519M503.713 326.173l7.583 2.71M508.406 322.682l7.96 2.86M515.3 328.536l1.3-.99M507.533 316.115l-.625-.21M511.673 326.807l-2.55-.741M513.23 325.802l-2.557-.744M503.453 325.802c-.028.152.08.304.258.373M508.147 322.309c-.028.154.073.305.257.376M508.287 321.773c.005.152.15.304.36.374M502.18 326.229c-.055.304.152.606.517.749M508.317 322.639l-4.241 3.161M506.141 320.525c-.011-.019-.034-.032-.061-.043a.13.13 0 0 0-.076-.004M506.261 320.867a.639.639 0 0 0-.12-.342M505.772 322.015c.14-.138.253-.295.335-.464.105-.216.157-.445.153-.684M504.99 321.946a.632.632 0 0 0 .12.345M505.516 320.762a1.653 1.653 0 0 0-.373.499 1.496 1.496 0 0 0-.155.686M505.919 322.338a1.107 1.107 0 0 0 .317-.132M505.799 322.291a.096.096 0 0 0 .045.04.137.137 0 0 0 .073.006M510.683 325.066a2.885 2.885 0 0 0-1.403-.128M510.768 325.098l-.047-.019a.648.648 0 0 0-.037-.013M505.63 320.654l-.048.043" style="fill:none;stroke:red;stroke-width:.666665;stroke-linecap:round;stroke-linejoin:round;stroke-miterlimit:2;stroke-dasharray:none;stroke-opacity:1;visibility:visible" visibility="hidden"/><path d="M506.005 320.478a.9.9 0 0 0-.373.176M516.252 329.498c.06-.035.121-.075.179-.116M517.819 328.327c.164-.126.3-.273.404-.43a1.46 1.46 0 0 0 .247-.74M506.639 315.891a3.187 3.187 0 0 0-1.312.623M506.912 315.909l-.002-.003a.516.516 0 0 0-.273-.016M503.35 317.994c-.581.416-1.024.92-1.301 1.49a3.33 3.33 0 0 0-.293 2.006M503.385 317.965c-.01.008-.024.017-.033.028M513.621 326.045a1.143 1.143 0 0 0-.38-.238l-.013-.004M513.521 326.758a.513.513 0 0 0 .18-.167c.115-.176.085-.39-.081-.546M513.048 326.927a1.31 1.31 0 0 0 .473-.169M511.647 326.8c.438.154.928.2 1.401.126M511.55 326.762l.059.023.038.014M508.705 325.818a1.133 1.133 0 0 0 .38.239c.01.002.022.009.035.01M508.807 325.106a.519.519 0 0 0-.178.165c-.118.179-.088.391.078.547M509.281 324.938a1.284 1.284 0 0 0-.473.168M507.735 316.262a.413.413 0 0 0-.21-.147M508.156 317.469a2.241 2.241 0 0 0-.42-1.207M505.945 317.503a.264.264 0 0 1-.044.035M506.865 317.069a2.255 2.255 0 0 0-.918.434M507.201 317.183a.279.279 0 0 0-.145-.102.343.343 0 0 0-.192-.014M507.496 318.027a1.555 1.555 0 0 0-.295-.844M507.495 318.077a.593.593 0 0 0 .001-.05M503.925 319.02a2.216 2.216 0 0 0-.773.859 1.85 1.85 0 0 0-.122 1.282M514.555 330.06a4.73 4.73 0 0 0 1.697-.563M510.675 329.842a10.236 10.236 0 0 0 3.878.217M516.764 325.86a2.633 2.633 0 0 0-.4-.316M516.597 327.549a1.31 1.31 0 0 0 .344-.349c.287-.431.219-.953-.177-1.34M514.005 329.015c.432-.061.838-.2 1.182-.405M511.293 328.885a7.16 7.16 0 0 0 2.711.13M518.047 325.647a3.653 3.653 0 0 0-.671-.53" style="fill:none;stroke:red;stroke-width:.666665;stroke-linecap:round;stroke-linejoin:round;stroke-miterlimit:2;stroke-dasharray:none;stroke-opacity:1;visibility:visible" visibility="hidden"/><path d="M518.287 327.54c.402-.606.309-1.344-.24-1.892M484.164 333.692l.132 4.28M480.02 333.658l2.01-1.512M478.772 341.893l-.348-4.739M487.343 345.507l-7.977-2.865M494.487 343.991l-1.388 1.056M484.821 333.093l.135 4.343M494.044 340.78l-8.245-2.97M479.698 336.826l.344 4.64M482.613 333.167l-2.02 1.519M480.38 341.84l7.583 2.71M485.073 338.348l7.96 2.86M491.966 344.204l1.3-.99M484.2 331.782l-.625-.21M488.34 342.473l-2.55-.741M489.897 341.468l-2.557-.744M480.121 341.469c-.028.15.08.301.259.371M484.813 337.975c-.028.155.075.306.258.376M484.955 337.44c.005.152.15.302.36.372M478.848 341.895c-.055.305.152.607.517.75M484.984 338.305l-4.241 3.161M482.184 336.429a1.653 1.653 0 0 0-.373.498 1.496 1.496 0 0 0-.155.687M482.585 338.005a1.072 1.072 0 0 0 .318-.135M482.465 337.958a.103.103 0 0 0 .046.04.137.137 0 0 0 .073.005M482.808 336.19a.133.133 0 0 0-.063-.041.13.13 0 0 0-.074-.004M482.928 336.534a.647.647 0 0 0-.12-.344M482.439 337.682c.14-.139.253-.296.334-.464.107-.216.158-.445.154-.684" style="fill:none;stroke:red;stroke-width:.666665;stroke-linecap:round;stroke-linejoin:round;stroke-miterlimit:2;stroke-dasharray:none;stroke-opacity:1;visibility:visible" visibility="hidden"/><path d="M481.656 337.613a.632.632 0 0 0 .12.345M492.919 345.165c.06-.035.121-.075.178-.116M494.485 343.994c.165-.127.3-.274.405-.43a1.46 1.46 0 0 0 .247-.743M483.305 331.558a3.203 3.203 0 0 0-1.312.621M483.579 331.575l-.003-.002a.516.516 0 0 0-.272-.016M480.017 333.66c-.582.418-1.025.92-1.302 1.49a3.33 3.33 0 0 0-.292 2.007M480.052 333.631c-.01.009-.024.019-.032.029M490.29 341.711a1.143 1.143 0 0 0-.38-.237l-.015-.004M490.188 342.425a.536.536 0 0 0 .179-.166c.117-.177.086-.392-.079-.548M489.715 342.594a1.31 1.31 0 0 0 .473-.17M488.313 342.466c.44.156.928.2 1.402.128M488.217 342.429l.058.021.038.016M485.373 341.485a1.133 1.133 0 0 0 .38.238c.01.003.022.01.035.01" style="fill:none;stroke:red;stroke-width:.666665;stroke-linecap:round;stroke-linejoin:round;stroke-miterlimit:2;stroke-dasharray:none;stroke-opacity:1;visibility:visible" visibility="hidden"/><path d="M485.473 340.773a.519.519 0 0 0-.177.165c-.119.177-.088.39.077.547M485.948 340.605a1.284 1.284 0 0 0-.473.168M487.35 340.733a2.885 2.885 0 0 0-1.401-.128M487.435 340.765l-.047-.019a.648.648 0 0 0-.037-.013M482.297 336.32l-.049.044M482.672 336.145a.9.9 0 0 0-.372.175M484.403 331.929a.407.407 0 0 0-.21-.147M484.823 333.135a2.241 2.241 0 0 0-.42-1.205M482.612 333.17c-.015.012-.028.025-.044.035M483.532 332.735a2.255 2.255 0 0 0-.919.435M483.868 332.85a.279.279 0 0 0-.145-.103.343.343 0 0 0-.193-.013M484.163 333.694a1.551 1.551 0 0 0-.295-.844M484.161 333.743a.593.593 0 0 0 .002-.049M480.592 334.687a2.22 2.22 0 0 0-.772.859 1.847 1.847 0 0 0-.124 1.281M491.221 345.726a4.73 4.73 0 0 0 1.699-.561M487.343 345.509a10.263 10.263 0 0 0 3.877.217M493.43 341.527a2.633 2.633 0 0 0-.4-.317M493.264 343.215a1.31 1.31 0 0 0 .344-.348c.287-.43.217-.953-.177-1.34M490.672 344.682a3.21 3.21 0 0 0 1.181-.405M487.96 344.551a7.16 7.16 0 0 0 2.71.13M494.713 341.315a3.603 3.603 0 0 0-.67-.532M494.953 343.207c.403-.607.31-1.345-.24-1.892" style="fill:none;stroke:red;stroke-width:.666665;stroke-linecap:round;stroke-linejoin:round;stroke-miterlimit:2;stroke-dasharray:none;stroke-opacity:1;visibility:visible" visibility="hidden"/><path d="m580.802 320.26-7.625-1.961M580.558 330.695l-7.625-1.961M581.854 327.834l-6.505-1.672" style="fill:none;stroke:red;stroke-width:.999997;stroke-linecap:round;stroke-linejoin:round;stroke-miterlimit:500;stroke-dasharray:none;stroke-opacity:1;visibility:visible" visibility="hidden"/><path d="m521.853 301.899 8.464-.98M596.867 324.789l-5.459-8.271M579.53 330.472l2.62 4.012M513.228 325.803l16.542-5.004" style="fill:none;stroke:red;stroke-width:1.73333;stroke-linecap:round;stroke-linejoin:round;stroke-miterlimit:500;stroke-dasharray:none;stroke-opacity:1;visibility:visible" visibility="hidden"/><path d="m525.798 299.766 4.566 4.314M596.867 324.789l-5.8-5.154" style="fill:none;stroke:red;stroke-width:.999997;stroke-linecap:round;stroke-linejoin:round;stroke-miterlimit:500;stroke-dasharray:none;stroke-opacity:1;visibility:visible" visibility="hidden"/><path d="m530.45 382.101-.406-1.686" style="fill:none;stroke:red;stroke-width:1.73333;stroke-linecap:round;stroke-linejoin:round;stroke-miterlimit:500;stroke-dasharray:none;stroke-opacity:1;visibility:visible" visibility="hidden"/><path d="m530.45 382.101-.603-18.4" style="fill:none;stroke:red;stroke-width:.999997;stroke-linecap:round;stroke-linejoin:round;stroke-miterlimit:500;stroke-dasharray:none;stroke-opacity:1;visibility:visible" visibility="hidden"/><path d="m596.843 257.14-.674 7.53M602.747 326.67l-12.387 2.45M614.229 182.418l-11.321 7.095M596.169 264.67l.674-7.53M615.168 166.445l-10.255.665M456.823 343.7l8.963-2.71M482.903 337.87l-7.313 6.34" style="fill:none;stroke:red;stroke-width:1.73333;stroke-linecap:round;stroke-linejoin:round;stroke-miterlimit:500;stroke-dasharray:none;stroke-opacity:1;visibility:visible" visibility="hidden"/><path d="m461.101 340.576 3.818-7.91" style="fill:none;stroke:red;stroke-width:.999997;stroke-linecap:round;stroke-linejoin:round;stroke-miterlimit:500;stroke-dasharray:none;stroke-opacity:1;visibility:visible" visibility="hidden"/><path d="m461.101 340.576 3.294-12.284M555.313 379.031l.728-2.854" style="fill:none;stroke:red;stroke-width:1.73333;stroke-linecap:round;stroke-linejoin:round;stroke-miterlimit:500;stroke-dasharray:none;stroke-opacity:1;visibility:visible" visibility="hidden"/><path d="m555.313 379.031.397-19.408" style="fill:none;stroke:red;stroke-width:.999997;stroke-linecap:round;stroke-linejoin:round;stroke-miterlimit:500;stroke-dasharray:none;stroke-opacity:1;visibility:visible" visibility="hidden"/><path d="m470.273 161.293 5.12 14.93M519.59 168.58l1.066 18.019M521.854 301.9l5.497-2.012M511.716 184.147l7.874-15.566" style="fill:none;stroke:red;stroke-width:1.73333;stroke-linecap:round;stroke-linejoin:round;stroke-miterlimit:500;stroke-dasharray:none;stroke-opacity:1;visibility:visible" visibility="hidden"/><path d="m519.59 168.58-7.874 15.567M511.716 184.147l-.891-17.49" style="fill:none;stroke:red;stroke-width:.999997;stroke-linecap:round;stroke-linejoin:round;stroke-miterlimit:500;stroke-dasharray:none;stroke-opacity:1;visibility:visible" visibility="hidden"/><path d="M510.825 166.656 499.648 181.7M512.156 302.996l-7.68.256M505.987 143.144l-7.863.206M551.687 179.08l5.247 15.036" style="fill:none;stroke:red;stroke-width:1.73333;stroke-linecap:round;stroke-linejoin:round;stroke-miterlimit:500;stroke-dasharray:none;stroke-opacity:1;visibility:visible" visibility="hidden"/><path d="m556.934 194.116-5.247-15.036" style="fill:none;stroke:red;stroke-width:.999997;stroke-linecap:round;stroke-linejoin:round;stroke-miterlimit:500;stroke-dasharray:none;stroke-opacity:1;visibility:visible" visibility="hidden"/><path d="m556.934 194.116-5.442-18.262" style="fill:none;stroke:red;stroke-width:1.73333;stroke-linecap:round;stroke-linejoin:round;stroke-miterlimit:500;stroke-dasharray:none;stroke-opacity:1;visibility:visible" visibility="hidden"/><path d="m580.558 330.695-1.028-.223M572.937 318.299l6.588 1.633M575.349 326.162l5.453-5.902M579.53 330.472l1.028.223M579.53 330.472l2.324-2.638" style="fill:none;stroke:red;stroke-width:.999997;stroke-linecap:round;stroke-linejoin:round;stroke-miterlimit:500;stroke-dasharray:none;stroke-opacity:1;visibility:visible" visibility="hidden"/><path d="m567.192 412.89-.057.07v.071l.057.067.11.048.14.024.149-.004.14-.035.109-.053.057-.07v-.074l-.06-.068-.106-.047-.14-.022-.151.004-.141.032-.107.057M520.015 407.653l18.643-13.568" style="fill:none;stroke:#00ff4a;stroke-width:.999997;stroke-linecap:round;stroke-linejoin:round;stroke-miterlimit:500;stroke-dasharray:none;stroke-opacity:1;visibility:visible"/><path d="m549.882 394.476.21.427.077.442-.071.448-.208.444-.341.432-.47.403" style="fill:none;stroke:#00ff4a;stroke-width:1.73333;stroke-linecap:round;stroke-linejoin:round;stroke-miterlimit:500;stroke-dasharray:none;stroke-opacity:1;visibility:visible"/><path d="m538.658 394.085.59-.368.694-.327.776-.281.85-.225.897-.163.93-.101.94-.035.93.032.898.099.847.161.776.221.69.279.589.327.473.368.344.404" style="fill:none;stroke:#00ff4a;stroke-width:.999997;stroke-linecap:round;stroke-linejoin:round;stroke-miterlimit:500;stroke-dasharray:none;stroke-opacity:1;visibility:visible"/><path d="m549.08 397.072-18.552 13.656" style="fill:none;stroke:#00ff4a;stroke-width:1.73333;stroke-linecap:round;stroke-linejoin:round;stroke-miterlimit:500;stroke-dasharray:none;stroke-opacity:1;visibility:visible"/><path d="m518.911 409.887-.057-.459.084-.46.225-.456.363-.441.489-.419" style="fill:none;stroke:#00ff4a;stroke-width:.999997;stroke-linecap:round;stroke-linejoin:round;stroke-miterlimit:500;stroke-dasharray:none;stroke-opacity:1;visibility:visible"/><path d="m530.528 410.729-.601.383-.708.341-.8.292-.867.233-.92.172-.953.106-.96.034-.951-.033-.915-.104-.858-.167-.79-.23-.696-.287-.588-.341-.469-.38-.339-.419-.202-.441" style="fill:none;stroke:#00ff4a;stroke-width:1.73333;stroke-linecap:round;stroke-linejoin:round;stroke-miterlimit:500;stroke-dasharray:none;stroke-opacity:1;visibility:visible"/><path d="m500.474 425.34-.213.216-.082.23.06.226.196.201.312.155.404.1.459.035.47-.035.443-.101.378-.16.273-.2.15-.227.01-.23-.13-.215-.258-.18-.363-.128-.434-.068h-.47l-.46.068-.414.13-.331.183M561.328 380.895l-.193.195-.062.209.072.207.196.181.31.143.388.089.437.032.448-.032.417-.092.348-.143.248-.182.128-.206-.002-.208-.136-.197-.258-.163-.354-.12-.416-.06h-.446l-.437.064-.385.119-.303.164" style="fill:none;stroke:#00ff4a;stroke-width:.999997;stroke-linecap:round;stroke-linejoin:round;stroke-miterlimit:500;stroke-dasharray:none;stroke-opacity:1;visibility:visible"/><path d="m560.337 373.82 60.503 16.875M442.406 415.563l53.917-37.3M440.513 422.226l.047.347.106.349.159.341.21.323.246.285.279.243.3.187.306.125M440.513 422.226l-.101-2.068M544.28 455.511l.323.065.31-.005.283-.077.245-.142.2-.204.147-.26.085-.302.022-.336M544.28 455.511l-102.114-31.084" style="fill:none;stroke:#00ff4a;stroke-width:1.73333;stroke-linecap:round;stroke-linejoin:round;stroke-miterlimit:500;stroke-dasharray:none;stroke-opacity:1;visibility:visible"/><path d="m442.406 415.563 105.388 31.793" style="fill:none;stroke:#00ff4a;stroke-width:.999997;stroke-linecap:round;stroke-linejoin:round;stroke-miterlimit:500;stroke-dasharray:none;stroke-opacity:1;visibility:visible"/><path d="m442.406 415.563-1.995 4.595" style="fill:none;stroke:#00ff4a;stroke-width:1.73333;stroke-linecap:round;stroke-linejoin:round;stroke-miterlimit:500;stroke-dasharray:none;stroke-opacity:1;visibility:visible"/><path d="m440.411 420.158 105.426 31.972M547.794 447.356l-1.956 4.775M545.895 454.25l-.057-2.119" style="fill:none;stroke:#00ff4a;stroke-width:.999997;stroke-linecap:round;stroke-linejoin:round;stroke-miterlimit:500;stroke-dasharray:none;stroke-opacity:1;visibility:visible"/><path d="m622.705 394.335-.024-2.016M620.84 390.692l1.841 1.628" style="fill:none;stroke:#00ff4a;stroke-width:1.73333;stroke-linecap:round;stroke-linejoin:round;stroke-miterlimit:500;stroke-dasharray:none;stroke-opacity:1;visibility:visible"/><path d="m620.84 390.692-73.046 56.664" style="fill:none;stroke:#00ff4a;stroke-width:.999997;stroke-linecap:round;stroke-linejoin:round;stroke-miterlimit:500;stroke-dasharray:none;stroke-opacity:1;visibility:visible"/><path d="m539.718 400.717.175-.117.374-.214.479-.214.57-.202.651-.176.718-.138.757-.094.781-.042.782.005.33.028M524.057 412.163l15.661-11.447M545.474 455.327l76.805-59.961M520.015 407.652l4.042 4.511M545.25 386.246l15.087-12.426" style="fill:none;stroke:#00ff4a;stroke-width:1.73333;stroke-linecap:round;stroke-linejoin:round;stroke-miterlimit:500;stroke-dasharray:none;stroke-opacity:1;visibility:visible"/></svg>