<svg xmlns="http://www.w3.org/2000/svg" baseProfile="full" height="793.701" preserveAspectRatio="xMinYMin meet" style="width:912px;height:1303px" width="559.371" xml:space="preserve"><path d="m266.889 534.71-19.872-3.627M267.087 539.227l-141.82-26.043" style="fill:none;stroke:red;stroke-width:.995997;stroke-linecap:round;stroke-linejoin:round;stroke-miterlimit:500;stroke-dasharray:none;stroke-opacity:1;visibility:visible"/><path d="m131.156 382.145 78.29-36.673" style="fill:none;stroke:red;stroke-width:1.59466;stroke-linecap:round;stroke-linejoin:round;stroke-miterlimit:500;stroke-dasharray:none;stroke-opacity:1;visibility:visible"/><path d="m176.789 366.396 39.34-18.628M130.133 388.49l42.884-20.305M345.106 365.913l-56.215 46.5M285.347 535.466l49.633-49.057M208.736 465.117l-78.39 43.596" style="fill:none;stroke:red;stroke-width:.995997;stroke-linecap:round;stroke-linejoin:round;stroke-miterlimit:500;stroke-dasharray:none;stroke-opacity:1;visibility:visible"/><path d="m268.06 469.357-52.457-8.708" style="fill:none;stroke:red;stroke-width:1.59466;stroke-linecap:round;stroke-linejoin:round;stroke-miterlimit:500;stroke-dasharray:none;stroke-opacity:1;visibility:visible"/><path d="m268.22 473.243-55.985-9.343M325.423 482.94l-37.563-6.316M199.745 458.431l-.219-.044-.185-.059-.147-.066-.101-.075-.056-.073-.005-.039M199.68 463.914l.065-5.483M199.352 492.055l.019-1.577M199.034 458l.005.028.058.055.104.056.148.053.186.048.215.04M213.207 524.704l-2.759-31.296" style="fill:none;stroke:red;stroke-width:.995997;stroke-linecap:round;stroke-linejoin:round;stroke-miterlimit:500;stroke-dasharray:none;stroke-opacity:1;visibility:visible"/><path d="m218.027 485.372.239 3.955.404 5.452.486 5.349M217.56 454.794l-.09 5.944-.003.375M221.615 372.318l-4.056 82.476" style="fill:none;stroke:red;stroke-width:1.59466;stroke-linecap:round;stroke-linejoin:round;stroke-miterlimit:500;stroke-dasharray:none;stroke-opacity:1;visibility:visible"/><path d="m222.112 366.09-.37 6.284" style="fill:none;stroke:red;stroke-width:.995997;stroke-linecap:round;stroke-linejoin:round;stroke-miterlimit:500;stroke-dasharray:none;stroke-opacity:1;visibility:visible"/><path d="m226.194 296.694-3.42 58.156M199.282 458.28l4.819-74.254" style="fill:none;stroke:red;stroke-width:1.59466;stroke-linecap:round;stroke-linejoin:round;stroke-miterlimit:500;stroke-dasharray:none;stroke-opacity:1;visibility:visible"/><path d="m215.249 367.795-.585 19.747M219.948 299.284l-4.092 59.681M210.915 459.848l3.75-72.305M217.691 522.164l.001-.001M217.692 522.163l.139-.052.174.001.068.016M337.818 555.753l.072-2.901M337.818 555.753l.003.001.105.234-.065.074M337.316 550.703l.33.22.263.436.111.74-.127.75-.002.005M337.316 550.703l-.072-.028-.07-.02-.075-.024-.08-.02-.078-.024-.08-.017-.084-.016-.085-.018M247.017 531.08l-.56-.2-.8-.137-1.019-.196-1.002-.15-.359-.001M129.137 509.56l.133-.055h.127l.03.011M155.607 514.394l-.508-.195-.756-.122-.98-.194-.985-.14-.352-.002M125.32 533.898l-.037-14.528" style="fill:none;stroke:red;stroke-width:.995997;stroke-linecap:round;stroke-linejoin:round;stroke-miterlimit:500;stroke-dasharray:none;stroke-opacity:1;visibility:visible"/><path d="m266.555 560.538-141.234-26.64" style="fill:none;stroke:red;stroke-width:1.59466;stroke-linecap:round;stroke-linejoin:round;stroke-miterlimit:500;stroke-dasharray:none;stroke-opacity:1;visibility:visible"/><path d="m125.283 519.372 141.644 26.22M125.283 519.372l.145-.185.135-.226.119-.256.102-.285.082-.297.056-.312.033-.308.008-.306M125.963 517.198l140.968 26.015" style="fill:none;stroke:red;stroke-width:.995997;stroke-linecap:round;stroke-linejoin:round;stroke-miterlimit:500;stroke-dasharray:none;stroke-opacity:1;visibility:visible"/><path d="m125.963 517.198-.01-.296-.034-.27-.056-.237-.085-.206-.102-.162-.082-.084M129.137 509.56l-3.187 1.89" style="fill:none;stroke:red;stroke-width:.995997;stroke-linecap:round;stroke-linejoin:round;stroke-miterlimit:500;stroke-dasharray:none;stroke-opacity:1;visibility:visible"/><path d="m243.277 530.4-87.67-16.007M152.026 513.738l-22.89-4.179" style="fill:none;stroke:red;stroke-width:1.59466;stroke-linecap:round;stroke-linejoin:round;stroke-miterlimit:500;stroke-dasharray:none;stroke-opacity:1;visibility:visible"/><path d="m125.273 515.84-.007-2.652M125.267 513.185l.013-.265.039-.271.063-.268.082-.253.104-.23.12-.189.13-.155.132-.106M130.005 333.407l.113-.063.06-.069.006-.065-.054-.071-.028-.024M112.473 532.559l.023.077.064.087.106.08.142.065.174.059.199.05M111.545 334.185l-.044.055-.005.07.046.07.103.062.152.063.197.05.232.042M125.698 534.025l-.833.568M129.159 332.35l.847 1.056M124.356 335.891l5.65-2.484M128.973 332.186l.077.016.064.015.054.018.033.026.017.02-.001.025-.021.02-.036.025" style="fill:none;stroke:red;stroke-width:.995997;stroke-linecap:round;stroke-linejoin:round;stroke-miterlimit:500;stroke-dasharray:none;stroke-opacity:1;visibility:visible"/><path d="m118.867 330.772 10.105 1.413M118.211 330.816l.056-.017.067-.014.077-.016.09-.008.091-.002h.095l.096.004.083.009M112.517 333.281l5.695-2.464" style="fill:none;stroke:red;stroke-width:1.59466;stroke-linecap:round;stroke-linejoin:round;stroke-miterlimit:500;stroke-dasharray:none;stroke-opacity:1;visibility:visible"/><path d="m112.7 333.444-.077-.013-.066-.016-.05-.023-.034-.021-.02-.02.003-.026.024-.021.036-.023" style="fill:none;stroke:red;stroke-width:.995997;stroke-linecap:round;stroke-linejoin:round;stroke-miterlimit:500;stroke-dasharray:none;stroke-opacity:1;visibility:visible"/><path d="m122.956 534.825-9.773-1.847" style="fill:none;stroke:red;stroke-width:1.59466;stroke-linecap:round;stroke-linejoin:round;stroke-miterlimit:500;stroke-dasharray:none;stroke-opacity:1;visibility:visible"/><path d="m112.226 334.595 10.147 1.43M112.226 334.595l.473-1.15M122.956 534.825l.224.03.237.02.244.005.244-.018.235-.024.219-.044.197-.057.17-.067.14-.08M124.161 534.825l-.51-198.694M122.373 336.026l.26.028.28.017.285.003.28-.013.267-.023.241-.04.206-.05.164-.058M284.896 559.634l-.004.032-.035.108-.097.104M290.596 355.614l.073.072.018.073-.042.075-.092.07M267.418 562.12l-.244-.056-.212-.079-.17-.085-.12-.1-.069-.103-.014-.07M272.55 357.202l-.253-.045-.224-.056-.175-.064-.125-.07-.075-.072-.015-.078.043-.076.023-.016M283.359 549.78l-.053.544-.13.541-.18.482-.222.364-.232.217-.224.035-.192-.143-.13-.307-.062-.438.014-.527.087-.552.156-.517.205-.424.234-.299.232-.123.209.055.161.228.099.38.028.484" style="fill:none;stroke:red;stroke-width:.995997;stroke-linecap:round;stroke-linejoin:round;stroke-miterlimit:500;stroke-dasharray:none;stroke-opacity:1;visibility:visible"/><path d="m284.761 559.877-4.893 3.979M284.761 559.877l5.79-203.973" style="fill:none;stroke:red;stroke-width:1.59466;stroke-linecap:round;stroke-linejoin:round;stroke-miterlimit:500;stroke-dasharray:none;stroke-opacity:1;visibility:visible"/><path d="m290.552 355.903-5.05 2.695M290.552 355.903l-.888-1.101" style="fill:none;stroke:red;stroke-width:.995997;stroke-linecap:round;stroke-linejoin:round;stroke-miterlimit:500;stroke-dasharray:none;stroke-opacity:1;visibility:visible"/><path d="m278.52 353.1-.088-.01-.103-.006h-.094l-.096.004-.09.01-.077.015-.067.016-.048.02M277.855 353.15l-5.095 2.676" style="fill:none;stroke:red;stroke-width:1.59466;stroke-linecap:round;stroke-linejoin:round;stroke-miterlimit:500;stroke-dasharray:none;stroke-opacity:1;visibility:visible"/><path d="m272.76 355.824-.033.024-.015.023.007.028.021.024.045.024.059.021.072.017.084.018M289.665 354.801l.032-.023.015-.024-.006-.026-.025-.023-.044-.025-.06-.019-.072-.02-.085-.017" style="fill:none;stroke:red;stroke-width:.995997;stroke-linecap:round;stroke-linejoin:round;stroke-miterlimit:500;stroke-dasharray:none;stroke-opacity:1;visibility:visible"/><path d="m289.421 354.625-10.901-1.523M267.418 562.12l10.515 1.987" style="fill:none;stroke:red;stroke-width:1.59466;stroke-linecap:round;stroke-linejoin:round;stroke-miterlimit:500;stroke-dasharray:none;stroke-opacity:1;visibility:visible"/><path d="m273 356.002-.45 1.2M283.497 358.748l-10.947-1.545M277.933 564.106l5.564-205.358" style="fill:none;stroke:red;stroke-width:.995997;stroke-linecap:round;stroke-linejoin:round;stroke-miterlimit:500;stroke-dasharray:none;stroke-opacity:1;visibility:visible"/><path d="m279.87 563.856-.15.09-.191.085-.227.061-.256.047-.275.021-.285.001-.284-.014-.268-.043" style="fill:none;stroke:red;stroke-width:1.59466;stroke-linecap:round;stroke-linejoin:round;stroke-miterlimit:500;stroke-dasharray:none;stroke-opacity:1;visibility:visible"/><path d="m285.502 358.598-.15.064-.198.052-.233.04-.268.03-.287.011-.296-.002-.295-.018-.28-.028M176.638 366.415l.144-.043.136.011M173.203 368.04l3.435-1.627M214.664 359.548l.13-.083.16-.142.135-.174.103-.198.072-.22.037-.23M209.446 345.472l-.236-.007-.233.044-.186.083M216.127 347.769l-.825 10.732M215.033 346.257l-5.588-.785M216.127 347.769v-.236l-.036-.235-.068-.222-.108-.211-.136-.183-.161-.161-.182-.127-.193-.089-.21-.048M327.944 483.929l-.216-.02-.212.027-.201.061-.18.099-.16.133-.004.004" style="fill:none;stroke:red;stroke-width:.995997;stroke-linecap:round;stroke-linejoin:round;stroke-miterlimit:500;stroke-dasharray:none;stroke-opacity:1;visibility:visible"/><path d="m284.747 556.764 49.528-50.232" style="fill:none;stroke:red;stroke-width:1.59466;stroke-linecap:round;stroke-linejoin:round;stroke-miterlimit:500;stroke-dasharray:none;stroke-opacity:1;visibility:visible"/><path d="m334.274 506.532.492-14.117M334.767 492.416l-.253-.139-.24-.173-.21-.215-.178-.242-.143-.262-.1-.282-.063-4.12M334.767 492.416l-49.601 49.41M333.583 490.494l.028-.17M333.772 484.908l-5.828-.98M334.979 486.408l-.017-.255-.063-.256-.108-.24-.148-.22-.185-.197-.214-.153-.232-.112-.238-.068M201.375 462.868l.05-.028.202-.083.224-.03.23.01M202.081 462.74l5.493.925M207.574 463.665l.204.05.196.093.19.122.163.154.144.181.115.2.083.216.053.217.013.22M208.736 465.117l-.316 19.61" style="fill:none;stroke:red;stroke-width:.995997;stroke-linecap:round;stroke-linejoin:round;stroke-miterlimit:500;stroke-dasharray:none;stroke-opacity:1;visibility:visible"/><path d="m208.419 484.725-51.539 29.263" style="fill:none;stroke:red;stroke-width:1.59466;stroke-linecap:round;stroke-linejoin:round;stroke-miterlimit:500;stroke-dasharray:none;stroke-opacity:1;visibility:visible"/><path d="m215.602 460.65-2.757 1.641M215.602 460.65l.117-.044.108.007h.003M211.957 483.48l.277-19.58" style="fill:none;stroke:red;stroke-width:.995997;stroke-linecap:round;stroke-linejoin:round;stroke-miterlimit:500;stroke-dasharray:none;stroke-opacity:1;visibility:visible"/><path d="m225.7 485.966-13.743-2.484M266.664 493.373l-22.865-4.133M299.861 499.05l-11.564-1.89" style="fill:none;stroke:red;stroke-width:1.59466;stroke-linecap:round;stroke-linejoin:round;stroke-miterlimit:500;stroke-dasharray:none;stroke-opacity:1;visibility:visible"/><path d="m212.234 463.898.013-.248.036-.257.06-.248.078-.235.089-.208.107-.177.11-.139.116-.092M219.282 499.79l-.03.204-.089.127-.008.009M199.352 492.055l-.213-.048-.187-.067-.145-.08-.1-.09-.056-.103-.006-.044M208.686 493.694l-9.333-1.637M199.745 458.431l9.393 1.576M199.745 458.431v-.077l.003-.015.002-.02v-.037M210.449 493.408l-.136.09-.177.082-.214.064-.234.05-.25.026-.26.013-.252-.013-.24-.025M209.147 459.855v.036l-.005.02v.076l-.003.019" style="fill:none;stroke:red;stroke-width:.995997;stroke-linecap:round;stroke-linejoin:round;stroke-miterlimit:500;stroke-dasharray:none;stroke-opacity:1;visibility:visible"/><path d="m210.915 459.848-.14.07-.179.053-.212.04-.237.032-.25.008h-.26l-.253-.014-.245-.032" style="fill:none;stroke:red;stroke-width:.995997;stroke-linecap:round;stroke-linejoin:round;stroke-miterlimit:500;stroke-dasharray:none;stroke-opacity:1;visibility:visible"/><path d="m215.145 294.43 10.787 1.38M210.381 296.517l4.764-2.085" style="fill:none;stroke:red;stroke-width:1.59466;stroke-linecap:round;stroke-linejoin:round;stroke-miterlimit:500;stroke-dasharray:none;stroke-opacity:1;visibility:visible"/><path d="m210.351 296.533.03-.016M226.28 296.051l-.35-.241M210.327 298.042l-.156-.588-.032-.383.063-.362.15-.176M217.685 454.64l-.025.087-.092.062-.008.003M226.194 296.694l.097-.083.047-.137-.004-.192-.053-.228M209.656 297.202l-.028.039.084.225.195.232.42.345M210.449 493.408l.467-33.56M221.094 299.12l5.1-2.425M210.327 298.042l9.621 1.244M209.147 459.855l.243.032.25.03.262.014.249.005.239-.005.209-.02.176-.028.14-.035M209.147 459.855l-9.396-1.576M221.015 299.139l.08-.02M344.505 522.25l.008-.01.077-.13.004-.165M326.9 514.425l8.25 1.45M335.15 515.873l.224.03.237.014.232-.005.234-.019.217-.039.205-.053.174-.065.149-.074.113-.09" style="fill:none;stroke:red;stroke-width:.995997;stroke-linecap:round;stroke-linejoin:round;stroke-miterlimit:500;stroke-dasharray:none;stroke-opacity:1;visibility:visible"/><path d="m355.93 312.466-11.45-1.467M344.48 310.997l-4.312 2.23" style="fill:none;stroke:red;stroke-width:1.59466;stroke-linecap:round;stroke-linejoin:round;stroke-miterlimit:500;stroke-dasharray:none;stroke-opacity:1;visibility:visible"/><path d="m340.167 313.227-.028.016M355.93 312.466l.35.245M340.14 313.242l-.13.187-.038.373.044.399.165.606M356.28 312.71l.072.243.015.194-.035.146-.083.088" style="fill:none;stroke:red;stroke-width:.995997;stroke-linecap:round;stroke-linejoin:round;stroke-miterlimit:500;stroke-dasharray:none;stroke-opacity:1;visibility:visible"/><path d="m344.303 475.814.01-.003.077-.07.002-.066" style="fill:none;stroke:red;stroke-width:1.59466;stroke-linecap:round;stroke-linejoin:round;stroke-miterlimit:500;stroke-dasharray:none;stroke-opacity:1;visibility:visible"/><path d="m340.183 314.806-.453-.357-.22-.242-.122-.236.028-.048M341.353 493.242l-.05.51-.118.502-.163.437-.194.334-.207.182-.192.024-.163-.146-.11-.302-.05-.416.016-.49.087-.512.144-.48.183-.39.2-.262.202-.106.182.063.14.228.08.36.013.464M356.247 313.38l-3.968 2.087M338.247 481.153l-1.31 34.419M336.935 515.573l1.935 39.728" style="fill:none;stroke:red;stroke-width:.995997;stroke-linecap:round;stroke-linejoin:round;stroke-miterlimit:500;stroke-dasharray:none;stroke-opacity:1;visibility:visible"/><path d="m344.505 522.25-.288-5.47-.215-5.58-.134-5.68-.066-5.777.011-5.864.09-5.945.163-6.021.238-6.098" style="fill:none;stroke:red;stroke-width:1.59466;stroke-linecap:round;stroke-linejoin:round;stroke-miterlimit:500;stroke-dasharray:none;stroke-opacity:1;visibility:visible"/><path d="m350.402 316.124-10.219-1.319M352.277 315.468l-.075.028M352.205 315.494l-.305.09-.474.16-.429.16-.592.222M342.888 423.777l-4.64 57.377M351.575 316.405l-5.05 62.45M337.926 556.002l.095-3.979" style="fill:none;stroke:red;stroke-width:.995997;stroke-linecap:round;stroke-linejoin:round;stroke-miterlimit:500;stroke-dasharray:none;stroke-opacity:1;visibility:visible"/><path d="m266.872 534.607-112.188-20.48M154.683 514.125l-25.256-4.61M130.449 509.87l-.261-176.642" style="fill:none;stroke:red;stroke-width:1.59466;stroke-linecap:round;stroke-linejoin:round;stroke-miterlimit:500;stroke-dasharray:none;stroke-opacity:1;visibility:visible"/><path d="m130.102 333.115-.912-.861" style="fill:none;stroke:red;stroke-width:.995997;stroke-linecap:round;stroke-linejoin:round;stroke-miterlimit:500;stroke-dasharray:none;stroke-opacity:1;visibility:visible"/><path d="m111.49 334.295.984 198.263M112.473 333.309l-.928.876M284.896 559.634l5.79-203.895M290.596 355.614l-.915-.91M271.681 356.845l-5.092 204.78" style="fill:none;stroke:red;stroke-width:1.59466;stroke-linecap:round;stroke-linejoin:round;stroke-miterlimit:500;stroke-dasharray:none;stroke-opacity:1;visibility:visible"/><path d="m272.734 355.84-.985.884" style="fill:none;stroke:red;stroke-width:.995997;stroke-linecap:round;stroke-linejoin:round;stroke-miterlimit:500;stroke-dasharray:none;stroke-opacity:1;visibility:visible"/><path d="m196.006 368.548 18.65-8.996M130.11 400.316l65.896-31.767M288.517 424.471l55.348-46.587M337.072 363.797l-47.413 38.307M326.97 484.232l-40.565 40.004M201.375 462.868l-70.217 38.617M268.044 469.274l-52.213-8.664M325.343 478.934l-36.964-6.21M220.737 522.608l-1.448-22.804M198.645 491.647l2.592 30.093M217.613 461.177l.012-2.363.075-4.177M219.286 499.79l-.204-2.13-.392-4.617-.335-4.692-.164-2.905" style="fill:none;stroke:red;stroke-width:1.59466;stroke-linecap:round;stroke-linejoin:round;stroke-miterlimit:500;stroke-dasharray:none;stroke-opacity:1;visibility:visible"/><path d="m198.65 490.956-.005.667M199.031 458.077l-.077 6.305M210.242 296.631l-.608.56" style="fill:none;stroke:red;stroke-width:.995997;stroke-linecap:round;stroke-linejoin:round;stroke-miterlimit:500;stroke-dasharray:none;stroke-opacity:1;visibility:visible"/><path d="m217.7 454.64 4.043-82.266M205.175 364.786l-1.075 19.24M209.626 297.253l-3.272 49.67M345.555 555.57l-.943-33.615M324.62 516.89l1.69 31.275M344.61 521.944l-.123-2.177-.226-4.727-.171-4.804-.115-4.877-.057-4.95-.003-5.018.051-5.087.107-5.137.165-5.202.176-4.29M325.677 479.243l-.235 6.581" style="fill:none;stroke:red;stroke-width:1.59466;stroke-linecap:round;stroke-linejoin:round;stroke-miterlimit:500;stroke-dasharray:none;stroke-opacity:1;visibility:visible"/><path d="m340.05 313.332-.655.581" style="fill:none;stroke:red;stroke-width:.995997;stroke-linecap:round;stroke-linejoin:round;stroke-miterlimit:500;stroke-dasharray:none;stroke-opacity:1;visibility:visible"/><path d="m351.76 375.754 4.607-62.617M344.412 475.678l3.859-52.479M330.521 420.843l-4.844 58.332M332.473 397.326l-.58 6.95" style="fill:none;stroke:red;stroke-width:1.59466;stroke-linecap:round;stroke-linejoin:round;stroke-miterlimit:500;stroke-dasharray:none;stroke-opacity:1;visibility:visible"/><path d="m333.285 387.543-.13 1.51" style="fill:none;stroke:red;stroke-width:.995997;stroke-linecap:round;stroke-linejoin:round;stroke-miterlimit:500;stroke-dasharray:none;stroke-opacity:1;visibility:visible"/><path d="m339.39 313.956-4.283 51.368" style="fill:none;stroke:red;stroke-width:1.59466;stroke-linecap:round;stroke-linejoin:round;stroke-miterlimit:500;stroke-dasharray:none;stroke-opacity:1;visibility:visible"/><path d="m337.54 364.077 8.13 1.921M344.34 377.38l1.184-10.936" style="fill:none;stroke:red;stroke-width:.995997;stroke-linecap:round;stroke-linejoin:round;stroke-miterlimit:500;stroke-dasharray:none;stroke-opacity:1;visibility:visible"/><path d="M235.255 494.403c.331.077.818-.041 1.076-.259M225.572 492.795l9.685 1.61M236.332 494.142l5.76-4.295M224.627 490.324l-.053.042a.53.53 0 0 0-.077.077c-.023.02-.043.05-.062.077-.015.026-.033.052-.045.082a.623.623 0 0 0-.05.172.257.257 0 0 0 0 .108M224.339 490.876l.056.645M242.071 481.811c-.004-.028-.008-.057-.014-.083-.007-.033-.018-.058-.03-.088a.864.864 0 0 0-.044-.077.344.344 0 0 0-.056-.07c-.02-.031-.042-.048-.066-.068-.026-.025-.052-.041-.081-.061a.77.77 0 0 0-.21-.102.681.681 0 0 0-.126-.039l-.135-.033-.047-.01M224.394 491.524c.036.624.559 1.188 1.177 1.271M242.655 488.593l-.583-6.783M225.304 489.819l-.676.505M229.324 480.6l-2.936 7.595M226.386 488.194l-.044.11a2.313 2.313 0 0 1-.09.2c-.028.07-.059.136-.089.2a3.876 3.876 0 0 1-.098.181l-.103.171-.104.161a4.657 4.657 0 0 1-.105.147l-.108.131a.912.912 0 0 1-.11.115 1.156 1.156 0 0 1-.11.106c-.032.032-.065.056-.102.086l-.02.018M241.263 481.181l-8.039-1.34M233.223 479.843c-.023-.003-1.696-.276-1.72-.277-.048-.008-.093-.012-.143-.018a5.16 5.16 0 0 0-.147-.006c-.05 0-.099 0-.15.002-.048 0-.097.007-.148.01-.048.005-.098.01-.148.018a1.653 1.653 0 0 0-.287.055c-.047.01-.093.021-.138.033l-.132.044c-.043.018-.085.04-.125.056-.042.02-.082.04-.119.06-.036.022-.072.05-.108.07M229.769 479.96l-.056.043c-.03.03-.063.057-.09.09a1.193 1.193 0 0 0-.157.214 1.056 1.056 0 0 0-.068.124 3.736 3.736 0 0 0-.06.132l-.015.035M242.093 489.846c.372-.248.624-.808.562-1.25M229.86 479.89l-.09.072M234.9 492.884c.741.1.994-.337 1.41-.692M234.712 492.9l-9.685-1.608M238.08 490.068l2.937-7.593M236.311 492.191c.44-.337 1.62-1.59 1.77-2.125M233.977 489.058l-1.265.127-.2.044-.192.053-.182.06-.174.064-.16.067-.146.073-.134.08-.119.077-.101.087-.084.081-.068.091-.05.085-.029.09-.013.085.006.084.026.088.044.076.062.08.08.077.098.066.112.065.128.063.144.05.156.048.169.044.179.032.19.028.198.019.205.016.208.003.213-.003.215-.012.216-.021.212-.02.21-.036.206-.04.201-.047.191-.05.184-.06.172-.063.161-.072.146-.07.133-.08.119-.077M235.644 490.408l.103-.083.085-.086.065-.083.05-.09.03-.087.014-.091-.007-.083-.027-.085-.044-.077-.062-.08-.078-.074-.097-.069-.113-.067-.128-.06-.144-.053-.158-.047-.168-.038-.18-.04-.189-.024-.199-.022-.202-.013M241.453 481.83a1.48 1.48 0 0 0-.438.644M241.454 481.829l.09-.068" style="fill:none;stroke:red;stroke-width:.995997;stroke-linecap:round;stroke-linejoin:round;stroke-miterlimit:4;stroke-dasharray:none;stroke-opacity:1;visibility:visible"/><path d="m241.545 481.763.067-.061.048-.062.026-.061.007-.061-.016-.059-.037-.056-.058-.052-.077-.045-.095-.038-.11-.033-.123-.025M225.027 491.292l-.141-.028-.128-.036-.114-.04-.097-.05-.081-.053-.06-.06-.042-.065-.022-.065-.003-.018M234.217 487.487l3.563.575M226.77 490.678l4.792-3.619 2.655.43M230.854 480.427l.708 6.633M299.564 505.94l3.104.517M298.62 503.468l-.055.042a.472.472 0 0 0-.076.077c-.023.02-.043.05-.062.076-.016.027-.033.053-.045.083a.623.623 0 0 0-.05.172.257.257 0 0 0 .001.108M298.33 504.02l.056.645M316.063 494.955a1.03 1.03 0 0 0-.013-.083c-.008-.032-.02-.058-.031-.089-.013-.023-.028-.052-.044-.076a.344.344 0 0 0-.055-.07c-.022-.031-.043-.047-.067-.067-.026-.026-.053-.042-.08-.062a.77.77 0 0 0-.211-.1.596.596 0 0 0-.125-.041l-.137-.034-.046-.009M298.386 504.668c.036.624.56 1.188 1.179 1.272M299.296 502.963l-.676.505M303.315 493.744l-2.936 7.595M300.38 501.338l-.046.11a2.313 2.313 0 0 1-.089.2c-.027.07-.059.136-.089.2a3.876 3.876 0 0 1-.098.182l-.103.17-.104.161a3.196 3.196 0 0 1-.106.147c-.035.046-.071.088-.107.132a.912.912 0 0 1-.11.114 1.156 1.156 0 0 1-.11.106c-.032.032-.065.056-.101.084-.007.01-.014.014-.02.02M315.255 494.326l-8.04-1.34M307.217 492.987c-.027-.004-1.697-.276-1.722-.277-.045-.008-.093-.012-.142-.018a5.256 5.256 0 0 0-.148-.006c-.05 0-.1 0-.148.002-.048 0-.098.007-.148.01-.049.005-.1.01-.15.018a1.55 1.55 0 0 0-.144.024 1.05 1.05 0 0 0-.142.031l-.14.032-.13.045c-.044.018-.085.04-.125.056-.043.02-.083.04-.119.06-.037.022-.073.049-.108.07M303.76 493.106l-.058.044c-.029.03-.06.056-.089.088a1.193 1.193 0 0 0-.155.216 1.056 1.056 0 0 0-.069.122 3.736 3.736 0 0 0-.06.132l-.015.035M303.852 493.036l-.09.07M303.474 505.177l-4.457-.743M306.704 502.327l-.2.045-.192.055-.184.059-.172.062-.161.072-.144.068-.138.08-.116.084-.101.08-.085.087-.067.085-.05.086-.029.092-.013.084.007.088.024.082.044.083.062.075.08.077.096.07M307.97 502.204l-1.265.125M315.445 494.972a1.49 1.49 0 0 0-.438.646M315.446 494.972l.09-.067" style="fill:none;stroke:red;stroke-width:.995997;stroke-linecap:round;stroke-linejoin:round;stroke-miterlimit:4;stroke-dasharray:none;stroke-opacity:1;visibility:visible"/><path d="m315.537 494.907.067-.061.048-.062.026-.061.007-.061-.016-.059-.037-.056-.058-.052-.077-.045-.095-.038-.11-.033-.123-.025M299.018 504.436l-.14-.028-.128-.036-.113-.04-.098-.05-.082-.053-.06-.06-.04-.065-.024-.065-.003-.018M300.762 503.822l4.79-3.619 2.657.43M304.846 493.572l.708 6.633" style="fill:none;stroke:red;stroke-width:.995997;stroke-linecap:round;stroke-linejoin:round;stroke-miterlimit:4;stroke-dasharray:none;stroke-opacity:1;visibility:visible"/><path d="m268.97 539.227-141.82-26.043M268.77 534.71l-19.872-3.627" style="fill:none;stroke:red;stroke-width:.995997;stroke-linecap:round;stroke-linejoin:round;stroke-miterlimit:500;stroke-dasharray:none;stroke-opacity:1;visibility:visible"/><path d="m133.038 382.146 78.29-36.673" style="fill:none;stroke:red;stroke-width:1.59466;stroke-linecap:round;stroke-linejoin:round;stroke-miterlimit:500;stroke-dasharray:none;stroke-opacity:1;visibility:visible"/><path d="m210.618 465.118-78.388 43.596M287.229 535.466l49.633-49.058M346.988 365.915l-56.214 46.5M132.016 388.49l42.884-20.305M178.67 366.397l39.34-18.628" style="fill:none;stroke:red;stroke-width:.995997;stroke-linecap:round;stroke-linejoin:round;stroke-miterlimit:500;stroke-dasharray:none;stroke-opacity:1;visibility:visible"/><path d="m269.942 469.358-52.457-8.708" style="fill:none;stroke:red;stroke-width:1.59466;stroke-linecap:round;stroke-linejoin:round;stroke-miterlimit:500;stroke-dasharray:none;stroke-opacity:1;visibility:visible"/><path d="m215.089 524.704-2.759-31.296M200.916 458l.004.03.058.053.104.057.148.053.187.047.213.04M201.234 492.055l.019-1.577M201.562 463.915l.065-5.482M201.627 458.431l-.217-.044-.186-.057-.147-.068-.101-.075-.056-.073-.007-.039M327.305 482.942l-37.562-6.316M270.102 473.243l-55.985-9.343" style="fill:none;stroke:red;stroke-width:.995997;stroke-linecap:round;stroke-linejoin:round;stroke-miterlimit:500;stroke-dasharray:none;stroke-opacity:1;visibility:visible"/><path d="m223.498 372.318-4.056 82.476M219.442 454.795l-.09 5.945-.002.374M219.91 485.372l.24 3.955.403 5.453.486 5.35" style="fill:none;stroke:red;stroke-width:1.59466;stroke-linecap:round;stroke-linejoin:round;stroke-miterlimit:500;stroke-dasharray:none;stroke-opacity:1;visibility:visible"/><path d="m223.994 366.091-.37 6.284" style="fill:none;stroke:red;stroke-width:.995997;stroke-linecap:round;stroke-linejoin:round;stroke-miterlimit:500;stroke-dasharray:none;stroke-opacity:1;visibility:visible"/><path d="m201.163 458.28 4.82-74.253M228.075 296.694l-3.42 58.156" style="fill:none;stroke:red;stroke-width:1.59466;stroke-linecap:round;stroke-linejoin:round;stroke-miterlimit:500;stroke-dasharray:none;stroke-opacity:1;visibility:visible"/><path d="m339.198 550.704-.07-.028-.074-.02-.074-.024-.078-.02-.079-.024-.079-.017-.084-.016-.085-.017M328.01 545.862l-2.697 2.245M339.198 550.704l.33.22.264.436.111.74-.128.75-.003.005M339.7 555.753l.071-2.899M339.7 555.754h.001l.107.235-.065.074M219.574 522.163l.139-.052.174.001.068.016M219.573 522.164l.001-.001M212.797 459.849l3.75-72.306M221.83 299.285l-4.092 59.681M217.131 367.795l-.585 19.747M127.202 533.899l-.037-14.528M157.489 514.395l-.509-.195-.755-.122-.98-.194-.985-.14-.352-.002M131.018 509.562l.134-.055h.126l.032.01M248.898 531.082l-.56-.2-.8-.138-1.019-.196-1.002-.148-.359-.002" style="fill:none;stroke:red;stroke-width:.995997;stroke-linecap:round;stroke-linejoin:round;stroke-miterlimit:500;stroke-dasharray:none;stroke-opacity:1;visibility:visible"/><path d="m268.437 560.538-141.235-26.64" style="fill:none;stroke:red;stroke-width:1.59466;stroke-linecap:round;stroke-linejoin:round;stroke-miterlimit:500;stroke-dasharray:none;stroke-opacity:1;visibility:visible"/><path d="m131.018 509.562-3.186 1.89M127.845 517.198l140.968 26.014M127.845 517.198l-.01-.296-.035-.27-.055-.237-.085-.207-.102-.161-.082-.084M127.165 519.372l141.644 26.22M127.165 519.372l.145-.185.135-.225.119-.256.102-.286.082-.297.056-.312.033-.308.008-.305" style="fill:none;stroke:red;stroke-width:.995997;stroke-linecap:round;stroke-linejoin:round;stroke-miterlimit:500;stroke-dasharray:none;stroke-opacity:1;visibility:visible"/><path d="m153.908 513.739-22.89-4.179M245.16 530.4l-87.67-16.006" style="fill:none;stroke:red;stroke-width:1.59466;stroke-linecap:round;stroke-linejoin:round;stroke-miterlimit:500;stroke-dasharray:none;stroke-opacity:1;visibility:visible"/><path d="m130.856 332.187.077.016.064.015.053.019.034.025.016.02v.025l-.022.02-.036.026M126.24 335.891l5.649-2.484M131.04 332.351l.846 1.056M127.581 534.026l-.833.568M113.426 334.185l-.044.054-.005.071.047.07.102.061.152.064.198.05.232.041M114.356 532.559l.022.077.064.087.108.08.14.065.175.059.199.05M131.886 333.409l.114-.063.06-.07.005-.064-.053-.071-.028-.024M127.149 513.186l.013-.266.039-.27.063-.268.081-.254.105-.228.12-.191.13-.153.132-.108M127.156 515.839l-.007-2.652" style="fill:none;stroke:red;stroke-width:.995997;stroke-linecap:round;stroke-linejoin:round;stroke-miterlimit:500;stroke-dasharray:none;stroke-opacity:1;visibility:visible"/><path d="m114.4 333.282 5.694-2.464M120.093 330.817l.056-.018.067-.013.077-.016.09-.008.09-.002h.097l.095.003.083.01M120.749 330.773l10.105 1.413" style="fill:none;stroke:red;stroke-width:1.59466;stroke-linecap:round;stroke-linejoin:round;stroke-miterlimit:500;stroke-dasharray:none;stroke-opacity:1;visibility:visible"/><path d="m114.582 333.445-.077-.015-.065-.015-.051-.022-.033-.023-.02-.019.002-.025.024-.021.036-.023" style="fill:none;stroke:red;stroke-width:.995997;stroke-linecap:round;stroke-linejoin:round;stroke-miterlimit:500;stroke-dasharray:none;stroke-opacity:1;visibility:visible"/><path d="m124.838 534.826-9.773-1.847" style="fill:none;stroke:red;stroke-width:1.59466;stroke-linecap:round;stroke-linejoin:round;stroke-miterlimit:500;stroke-dasharray:none;stroke-opacity:1;visibility:visible"/><path d="m285.24 549.782-.055.544-.127.54-.181.483-.223.363-.232.218-.224.034-.19-.142-.132-.307-.062-.439.015-.526.086-.552.158-.518.205-.424.233-.298.231-.123.21.055.163.228.098.38.026.484M274.431 357.203l-.253-.045-.224-.056-.175-.064-.125-.07-.075-.07-.014-.08.042-.076.023-.016M269.3 562.12l-.246-.056-.211-.078-.169-.086-.121-.1-.068-.102-.015-.071M292.478 355.614l.072.072.02.074-.041.074-.094.07M286.777 559.635l-.003.032-.036.108-.096.104M124.256 336.026l.26.028.28.017.284.003.281-.013.267-.023.241-.04.205-.05.164-.058M126.044 534.826l-.51-198.696M124.838 534.826l.224.03.238.02.244.004.244-.017.234-.024.219-.044.197-.057.172-.068.138-.079M114.11 334.595l10.146 1.431M114.109 334.595l.473-1.15" style="fill:none;stroke:red;stroke-width:.995997;stroke-linecap:round;stroke-linejoin:round;stroke-miterlimit:500;stroke-dasharray:none;stroke-opacity:1;visibility:visible"/><path d="m286.643 559.878-4.893 3.978M286.643 559.878l5.79-203.973" style="fill:none;stroke:red;stroke-width:1.59466;stroke-linecap:round;stroke-linejoin:round;stroke-miterlimit:500;stroke-dasharray:none;stroke-opacity:1;visibility:visible"/><path d="m292.434 355.902-5.05 2.696M292.434 355.903l-.888-1.1" style="fill:none;stroke:red;stroke-width:.995997;stroke-linecap:round;stroke-linejoin:round;stroke-miterlimit:500;stroke-dasharray:none;stroke-opacity:1;visibility:visible"/><path d="m279.738 353.15-5.096 2.676M280.4 353.1l-.086-.008-.104-.007h-.093l-.098.004-.088.01-.078.015-.066.016-.049.02" style="fill:none;stroke:red;stroke-width:1.59466;stroke-linecap:round;stroke-linejoin:round;stroke-miterlimit:500;stroke-dasharray:none;stroke-opacity:1;visibility:visible"/><path d="m291.546 354.802.033-.022.015-.025-.005-.025-.027-.024-.044-.025-.06-.019-.072-.02-.084-.017M274.642 355.825l-.033.024-.015.021.007.03.021.023.045.024.059.023.072.016.084.017" style="fill:none;stroke:red;stroke-width:.995997;stroke-linecap:round;stroke-linejoin:round;stroke-miterlimit:500;stroke-dasharray:none;stroke-opacity:1;visibility:visible"/><path d="m269.3 562.12 10.513 1.987M291.303 354.626l-10.901-1.523" style="fill:none;stroke:red;stroke-width:1.59466;stroke-linecap:round;stroke-linejoin:round;stroke-miterlimit:500;stroke-dasharray:none;stroke-opacity:1;visibility:visible"/><path d="m279.815 564.107 5.565-205.358M285.38 358.749l-10.948-1.546M274.88 356.002l-.45 1.2" style="fill:none;stroke:red;stroke-width:.995997;stroke-linecap:round;stroke-linejoin:round;stroke-miterlimit:500;stroke-dasharray:none;stroke-opacity:1;visibility:visible"/><path d="m281.753 563.856-.15.09-.19.086-.227.06-.257.048-.275.02-.284.002-.284-.015-.27-.043" style="fill:none;stroke:red;stroke-width:1.59466;stroke-linecap:round;stroke-linejoin:round;stroke-miterlimit:500;stroke-dasharray:none;stroke-opacity:1;visibility:visible"/><path d="m329.826 483.928-.217-.02-.212.027-.2.061-.182.1-.16.131-.004.005M218.01 347.769v-.236l-.036-.235-.068-.223-.108-.21-.136-.183-.161-.161-.182-.127-.193-.09-.21-.046M216.915 346.258l-5.588-.785M218.01 347.769l-.825 10.731M211.327 345.473l-.236-.007-.233.044-.185.083M216.546 359.549l.13-.083.161-.143.135-.173.102-.199.072-.22.037-.229M175.085 368.04l3.435-1.625M178.52 366.415l.144-.042.136.01M287.385 358.6l-.152.062-.196.053-.235.04-.267.03-.288.012-.296-.003-.293-.017-.28-.028" style="fill:none;stroke:red;stroke-width:.995997;stroke-linecap:round;stroke-linejoin:round;stroke-miterlimit:500;stroke-dasharray:none;stroke-opacity:1;visibility:visible"/><path d="m286.629 556.764 49.527-50.232" style="fill:none;stroke:red;stroke-width:1.59466;stroke-linecap:round;stroke-linejoin:round;stroke-miterlimit:500;stroke-dasharray:none;stroke-opacity:1;visibility:visible"/><path d="m210.618 465.118-.316 19.61M209.457 463.666l.203.05.197.092.19.123.163.154.144.179.116.202.08.217.055.216.013.221M203.963 462.74l5.494.926M203.257 462.868l.05-.028.203-.082.223-.03.23.009M336.86 486.408l-.016-.254-.062-.256-.108-.24-.148-.22-.186-.198-.213-.153-.232-.112-.24-.068M335.654 484.908l-5.828-.98M335.463 490.494l.028-.17M336.647 492.416l-.252-.138-.24-.174-.21-.214-.177-.243-.142-.261-.1-.283-.063-4.12M336.648 492.416l-49.6 49.41M336.155 506.532l.493-14.117" style="fill:none;stroke:red;stroke-width:.995997;stroke-linecap:round;stroke-linejoin:round;stroke-miterlimit:500;stroke-dasharray:none;stroke-opacity:1;visibility:visible"/><path d="m210.3 484.726-51.537 29.262" style="fill:none;stroke:red;stroke-width:1.59466;stroke-linecap:round;stroke-linejoin:round;stroke-miterlimit:500;stroke-dasharray:none;stroke-opacity:1;visibility:visible"/><path d="m213.84 483.482.276-19.58M217.485 460.65l-2.758 1.643M217.485 460.651l.117-.044.108.007h.003" style="fill:none;stroke:red;stroke-width:.995997;stroke-linecap:round;stroke-linejoin:round;stroke-miterlimit:500;stroke-dasharray:none;stroke-opacity:1;visibility:visible"/><path d="m301.743 499.05-11.563-1.89M268.546 493.374l-22.865-4.134M227.58 485.966l-13.741-2.484" style="fill:none;stroke:red;stroke-width:1.59466;stroke-linecap:round;stroke-linejoin:round;stroke-miterlimit:500;stroke-dasharray:none;stroke-opacity:1;visibility:visible"/><path d="M211.03 459.855v.036l-.005.02v.076l-.003.019M212.331 493.408l-.136.09-.177.082-.213.064-.235.051-.25.025-.26.014-.25-.014-.241-.025M201.627 458.432l9.395 1.574M201.627 458.431v-.077l.003-.015.003-.019v-.038M210.569 493.694l-9.333-1.638M201.234 492.055l-.213-.048-.187-.067-.144-.08-.101-.09-.056-.103-.005-.044M221.163 499.79l-.029.204-.09.126-.006.01M214.115 463.9l.015-.25.035-.256.06-.248.077-.236.09-.207.105-.177.111-.139.118-.092" style="fill:none;stroke:red;stroke-width:.995997;stroke-linecap:round;stroke-linejoin:round;stroke-miterlimit:500;stroke-dasharray:none;stroke-opacity:1;visibility:visible"/><path d="m212.797 459.849-.14.069-.179.052-.212.041-.236.032-.251.008h-.261l-.252-.013-.245-.032" style="fill:none;stroke:red;stroke-width:.995997;stroke-linecap:round;stroke-linejoin:round;stroke-miterlimit:500;stroke-dasharray:none;stroke-opacity:1;visibility:visible"/><path d="m212.263 296.518 4.764-2.085M217.026 294.432l10.787 1.38" style="fill:none;stroke:red;stroke-width:1.59466;stroke-linecap:round;stroke-linejoin:round;stroke-miterlimit:500;stroke-dasharray:none;stroke-opacity:1;visibility:visible"/><path d="m337.032 515.874.224.03.236.014.234-.006.233-.018.217-.039.204-.053.174-.066.15-.073.111-.09M328.782 514.424l8.25 1.45M346.387 522.25l.007-.01.078-.13.004-.166M222.897 299.14l.08-.02M211.03 459.855l.243.032.25.03.262.015.25.005.237-.007.211-.019.174-.028.141-.033M211.03 459.855l-9.396-1.575M212.209 298.042l9.621 1.244M222.975 299.12l5.1-2.426M212.331 493.408l.467-33.56M211.538 297.204l-.028.038.084.226.196.232.419.345M228.075 296.694l.098-.082.046-.138-.004-.192-.053-.228M219.567 454.64l-.025.088-.092.062-.008.003M212.209 298.042l-.156-.588-.033-.382.063-.363.151-.176M228.162 296.052l-.35-.242M212.233 296.534l.03-.016" style="fill:none;stroke:red;stroke-width:.995997;stroke-linecap:round;stroke-linejoin:round;stroke-miterlimit:500;stroke-dasharray:none;stroke-opacity:1;visibility:visible"/><path d="m346.36 310.998-4.312 2.23M357.812 312.468 346.36 311" style="fill:none;stroke:red;stroke-width:1.59466;stroke-linecap:round;stroke-linejoin:round;stroke-miterlimit:500;stroke-dasharray:none;stroke-opacity:1;visibility:visible"/><path d="m358.16 312.712.072.242.016.196-.034.144-.084.088M342.022 313.244l-.13.186-.038.374.044.398.165.608M357.812 312.468l.348.245M342.048 313.228l-.026.016" style="fill:none;stroke:red;stroke-width:.995997;stroke-linecap:round;stroke-linejoin:round;stroke-miterlimit:500;stroke-dasharray:none;stroke-opacity:1;visibility:visible"/><path d="m346.184 475.814.01-.004.078-.069.003-.067" style="fill:none;stroke:red;stroke-width:1.59466;stroke-linecap:round;stroke-linejoin:round;stroke-miterlimit:500;stroke-dasharray:none;stroke-opacity:1;visibility:visible"/><path d="m338.816 515.574 1.935 39.728M340.128 481.154l-1.312 34.418M358.128 313.382l-3.968 2.088M343.235 493.243l-.05.51-.119.503-.162.436-.194.334-.207.182-.193.024-.163-.146-.11-.302-.051-.416.018-.49.086-.512.145-.48.181-.39.202-.262.202-.106.182.063.138.229.082.36.013.463M342.063 314.806l-.452-.356-.22-.242-.121-.236.026-.048" style="fill:none;stroke:red;stroke-width:.995997;stroke-linecap:round;stroke-linejoin:round;stroke-miterlimit:500;stroke-dasharray:none;stroke-opacity:1;visibility:visible"/><path d="m346.387 522.25-.287-5.47-.216-5.58-.136-5.681-.065-5.776.01-5.863.091-5.946.163-6.022.237-6.097" style="fill:none;stroke:red;stroke-width:1.59466;stroke-linecap:round;stroke-linejoin:round;stroke-miterlimit:500;stroke-dasharray:none;stroke-opacity:1;visibility:visible"/><path d="m353.458 316.405-5.05 62.449M344.771 423.778l-4.641 57.377M354.086 315.494l-.306.09-.472.161-.43.16-.592.221M354.16 315.469l-.077.028M352.284 316.125l-10.22-1.319M339.808 556.003l.095-3.979" style="fill:none;stroke:red;stroke-width:.995997;stroke-linecap:round;stroke-linejoin:round;stroke-miterlimit:500;stroke-dasharray:none;stroke-opacity:1;visibility:visible"/><path d="m132.33 509.87-.26-176.643M156.566 514.126l-25.256-4.61M268.753 534.607l-112.188-20.48" style="fill:none;stroke:red;stroke-width:1.59466;stroke-linecap:round;stroke-linejoin:round;stroke-miterlimit:500;stroke-dasharray:none;stroke-opacity:1;visibility:visible"/><path d="m131.985 333.115-.912-.86" style="fill:none;stroke:red;stroke-width:.995997;stroke-linecap:round;stroke-linejoin:round;stroke-miterlimit:500;stroke-dasharray:none;stroke-opacity:1;visibility:visible"/><path d="m273.563 356.846-5.092 204.78M292.478 355.614l-.915-.91M286.777 559.635l5.79-203.896M114.356 333.309l-.928.876M113.372 334.295l.984 198.265" style="fill:none;stroke:red;stroke-width:1.59466;stroke-linecap:round;stroke-linejoin:round;stroke-miterlimit:500;stroke-dasharray:none;stroke-opacity:1;visibility:visible"/><path d="m274.615 355.84-.985.886" style="fill:none;stroke:red;stroke-width:.995997;stroke-linecap:round;stroke-linejoin:round;stroke-miterlimit:500;stroke-dasharray:none;stroke-opacity:1;visibility:visible"/><path d="m221.167 499.79-.204-2.13-.392-4.617-.334-4.692-.164-2.905M219.495 461.178l.012-2.363.075-4.177M200.528 491.648l2.591 30.094M222.618 522.608l-1.448-22.804M327.225 478.934l-36.965-6.21M269.926 469.275l-52.213-8.664M203.257 462.868l-70.217 38.618M328.853 484.232l-40.566 40.004M338.954 363.798l-47.412 38.307M290.398 424.471l55.35-46.586M131.992 400.315l65.896-31.765M197.889 368.549l18.65-8.996" style="fill:none;stroke:red;stroke-width:1.59466;stroke-linecap:round;stroke-linejoin:round;stroke-miterlimit:500;stroke-dasharray:none;stroke-opacity:1;visibility:visible"/><path d="m212.125 296.633-.608.56M200.914 458.078l-.077 6.305M200.533 490.955l-.005.667" style="fill:none;stroke:red;stroke-width:.995997;stroke-linecap:round;stroke-linejoin:round;stroke-miterlimit:500;stroke-dasharray:none;stroke-opacity:1;visibility:visible"/><path d="m327.56 479.243-.235 6.581M346.492 521.944l-.122-2.177-.227-4.727-.17-4.804-.116-4.876-.058-4.95-.003-5.02.051-5.086.107-5.137.165-5.201.176-4.29M326.502 516.891l1.69 31.275M347.436 555.57l-.942-33.615M211.507 297.254l-3.272 49.67M207.057 364.786l-1.075 19.24M219.582 454.64l4.043-82.265" style="fill:none;stroke:red;stroke-width:1.59466;stroke-linecap:round;stroke-linejoin:round;stroke-miterlimit:500;stroke-dasharray:none;stroke-opacity:1;visibility:visible"/><path d="m341.932 313.333-.656.581" style="fill:none;stroke:red;stroke-width:.995997;stroke-linecap:round;stroke-linejoin:round;stroke-miterlimit:500;stroke-dasharray:none;stroke-opacity:1;visibility:visible"/><path d="m334.355 397.326-.58 6.95M332.403 420.843l-4.842 58.332M346.292 475.678l3.86-52.479M353.642 375.755l4.606-62.617" style="fill:none;stroke:red;stroke-width:1.59466;stroke-linecap:round;stroke-linejoin:round;stroke-miterlimit:500;stroke-dasharray:none;stroke-opacity:1;visibility:visible"/><path d="m335.167 387.542-.127 1.51" style="fill:none;stroke:red;stroke-width:.995997;stroke-linecap:round;stroke-linejoin:round;stroke-miterlimit:500;stroke-dasharray:none;stroke-opacity:1;visibility:visible"/><path d="m341.27 313.956-4.282 51.367" style="fill:none;stroke:red;stroke-width:1.59466;stroke-linecap:round;stroke-linejoin:round;stroke-miterlimit:500;stroke-dasharray:none;stroke-opacity:1;visibility:visible"/><path d="m346.22 377.38 1.184-10.934M339.422 364.078l8.13 1.922" style="fill:none;stroke:red;stroke-width:.995997;stroke-linecap:round;stroke-linejoin:round;stroke-miterlimit:500;stroke-dasharray:none;stroke-opacity:1;visibility:visible"/><path d="m243.337 481.83.09-.068M243.337 481.83a1.48 1.48 0 0 0-.438.644M237.525 490.408l.102-.082.086-.087.065-.083.05-.09.029-.087.014-.089-.006-.085-.027-.085-.044-.077-.063-.08-.077-.073-.097-.07-.114-.066-.128-.06-.144-.054-.157-.046-.168-.039-.18-.04-.19-.024-.197-.021-.204-.014M235.86 489.06l-1.267.125-.199.045-.192.053-.181.06-.175.064-.16.067-.145.073-.135.08-.119.077-.1.087-.086.081-.067.091-.05.085-.028.09-.014.085.008.084.024.088.044.076.063.08.079.077.098.066.112.065.128.063.144.05.156.048.17.044.177.032.191.028.199.02.205.014.207.004.214-.003.214-.012.216-.021.212-.02.211-.036.206-.04.201-.047.189-.05.185-.061.172-.062.163-.072.144-.07.133-.08.12-.077M238.194 492.191c.439-.337 1.62-1.59 1.77-2.125M239.962 490.068l2.938-7.593M236.594 492.9l-9.684-1.608M236.782 492.884c.743.1.996-.337 1.412-.692M231.743 479.891l-.09.072M235.106 479.843c-.024-.003-1.696-.276-1.72-.277-.048-.008-.095-.012-.144-.018a5.16 5.16 0 0 0-.147-.006c-.049 0-.098 0-.149.002-.048 0-.096.007-.148.01-.048.005-.098.01-.148.018a1.653 1.653 0 0 0-.288.055c-.047.01-.092.021-.137.033l-.132.044c-.043.018-.086.04-.126.056l-.117.06c-.04.022-.073.05-.11.07M231.651 479.96l-.056.043c-.03.03-.06.057-.089.09a1.193 1.193 0 0 0-.156.214 1.056 1.056 0 0 0-.07.124 3.736 3.736 0 0 0-.06.132l-.014.035M243.974 489.846c.372-.248.624-.808.563-1.25M243.145 481.182l-8.039-1.34M228.27 488.194l-.044.11a2.313 2.313 0 0 1-.09.2c-.028.07-.059.136-.089.2a3.876 3.876 0 0 1-.097.181l-.104.171-.104.161a4.657 4.657 0 0 1-.105.147l-.108.131a.912.912 0 0 1-.11.115 1.156 1.156 0 0 1-.109.106c-.033.032-.067.056-.103.086l-.02.018M231.206 480.6l-2.936 7.595M227.186 489.82l-.676.503M244.537 488.592l-.583-6.782M243.954 481.811c-.004-.028-.008-.057-.014-.083-.007-.033-.018-.058-.03-.088a.864.864 0 0 0-.044-.077.344.344 0 0 0-.056-.07c-.02-.031-.043-.048-.067-.068-.025-.025-.052-.041-.08-.061a.77.77 0 0 0-.21-.102.681.681 0 0 0-.126-.039l-.136-.033-.046-.01M226.278 491.524c.036.624.559 1.188 1.177 1.271M226.22 490.876l.058.646M226.51 490.324l-.053.042a.53.53 0 0 0-.078.077.383.383 0 0 0-.059.077.375.375 0 0 0-.048.082.623.623 0 0 0-.049.172.257.257 0 0 0 0 .108M238.214 494.142l5.76-4.295M227.453 492.795l9.685 1.61M237.138 494.403c.33.077.817-.041 1.076-.259M317.327 494.972l.09-.066M317.327 494.972a1.49 1.49 0 0 0-.437.646M309.851 502.204l-1.265.126M308.586 502.328l-.2.046-.192.054-.184.06-.172.062-.161.072-.144.068-.136.08-.118.084-.101.08-.085.086-.067.086-.05.084-.028.093-.014.084.006.088.025.083.044.082.061.075.081.077.096.07M305.357 505.178l-4.458-.743M305.733 493.035l-.091.07M309.098 492.987c-.024-.004-1.696-.276-1.72-.277-.048-.008-.095-.012-.144-.018a5.16 5.16 0 0 0-.147-.006c-.05 0-.097 0-.15.002-.047 0-.095.007-.147.01-.048.005-.1.01-.148.018a1.653 1.653 0 0 0-.288.055l-.137.032-.132.045c-.043.018-.086.04-.126.056-.041.02-.081.04-.118.06-.038.022-.072.049-.107.07M305.643 493.106l-.056.044c-.03.03-.061.056-.09.088a1.193 1.193 0 0 0-.155.216 1.056 1.056 0 0 0-.069.122 3.736 3.736 0 0 0-.06.132l-.015.035M317.135 494.326l-8.038-1.34M302.26 501.338l-.042.11a2.313 2.313 0 0 1-.091.2c-.03.07-.061.136-.09.2a3.876 3.876 0 0 1-.098.182l-.102.17-.104.161a4.657 4.657 0 0 1-.106.147l-.107.132a.912.912 0 0 1-.11.114 1.156 1.156 0 0 1-.11.106c-.033.032-.066.056-.102.084-.008.01-.013.014-.02.02M305.197 493.744l-2.937 7.596M301.177 502.963l-.677.505M317.946 494.955c-.004-.028-.008-.057-.016-.083-.005-.032-.016-.058-.029-.089a.646.646 0 0 0-.042-.076.344.344 0 0 0-.057-.07c-.022-.031-.043-.047-.067-.067-.025-.026-.052-.042-.08-.062a.77.77 0 0 0-.21-.1.596.596 0 0 0-.126-.041l-.136-.034-.046-.009M300.269 504.668c.036.624.558 1.188 1.177 1.272M300.213 504.022l.056.645M300.5 503.468l-.052.042a.53.53 0 0 0-.078.077c-.023.02-.043.05-.061.076-.016.027-.034.053-.046.083a.623.623 0 0 0-.05.172.257.257 0 0 0 .001.108M301.446 505.94l3.104.515M232.737 480.427l.708 6.633M228.653 490.678l4.792-3.619 2.654.431M236.1 487.488l3.561.575" style="fill:none;stroke:red;stroke-width:.995997;stroke-linecap:round;stroke-linejoin:round;stroke-miterlimit:4;stroke-dasharray:none;stroke-opacity:1;visibility:visible"/><path d="m226.91 491.292-.14-.028-.13-.036-.113-.04-.097-.048-.08-.054-.061-.06-.042-.066-.022-.065-.003-.017M243.426 481.763l.067-.061.047-.062.027-.06.007-.063-.016-.058-.037-.056-.058-.052-.077-.045-.095-.038-.11-.033-.123-.025M306.729 493.572l.708 6.634M302.643 503.822l4.792-3.619 2.655.43M300.9 504.436l-.14-.028-.13-.036-.112-.04-.098-.049-.081-.053-.059-.06-.042-.066-.023-.064-.002-.018M317.42 494.907l.065-.061.049-.062.026-.06.007-.063-.016-.058-.037-.056-.057-.052-.078-.045-.094-.038-.111-.032-.124-.026" style="fill:none;stroke:red;stroke-width:.995997;stroke-linecap:round;stroke-linejoin:round;stroke-miterlimit:4;stroke-dasharray:none;stroke-opacity:1;visibility:visible"/><path d="m248.898 531.083 18.189 8.144M131.018 509.562l-.671-.85M287.86 476.624l-19.64-3.381M327.944 483.928l-2.521-.988M270.102 473.243l17.758 3.381M223.624 372.375l-1.512-6.285" style="fill:none;stroke:red;stroke-width:.995997;stroke-linecap:round;stroke-linejoin:round;stroke-miterlimit:500;stroke-dasharray:none;stroke-opacity:1;visibility:visible"/><path d="m218.01 347.769 4.764 7.08" style="fill:none;stroke:red;stroke-width:1.59466;stroke-linecap:round;stroke-linejoin:round;stroke-miterlimit:500;stroke-dasharray:none;stroke-opacity:1;visibility:visible"/><path d="m221.743 372.374-6.494-4.579" style="fill:none;stroke:red;stroke-width:.995997;stroke-linecap:round;stroke-linejoin:round;stroke-miterlimit:500;stroke-dasharray:none;stroke-opacity:1;visibility:visible"/><path d="m267.418 562.12-.863-1.582" style="fill:none;stroke:red;stroke-width:1.59466;stroke-linecap:round;stroke-linejoin:round;stroke-miterlimit:500;stroke-dasharray:none;stroke-opacity:1;visibility:visible"/><path d="m267.418 562.12-.491-16.528M267.418 562.12l-.487-18.907M284.896 559.634l-1.537-9.854M334.979 486.408l-1.399.575M335.491 490.324l-1.908.17M335.463 490.494l-1.852-.17" style="fill:none;stroke:red;stroke-width:.995997;stroke-linecap:round;stroke-linejoin:round;stroke-miterlimit:500;stroke-dasharray:none;stroke-opacity:1;visibility:visible"/><path d="m225.027 491.292.673-5.326M299.017 504.434l.844-5.384M299.018 504.436l-10.721-7.277" style="fill:none;stroke:red;stroke-width:1.59466;stroke-linecap:round;stroke-linejoin:round;stroke-miterlimit:500;stroke-dasharray:none;stroke-opacity:1;visibility:visible"/><path d="m337.032 515.874-10.132-1.449M335.463 490.494l5.89 2.748M336.648 492.415l4.705.827M347.404 366.446l-.88 12.408" style="fill:none;stroke:red;stroke-width:.995997;stroke-linecap:round;stroke-linejoin:round;stroke-miterlimit:500;stroke-dasharray:none;stroke-opacity:1;visibility:visible"/><path d="m131.018 509.562.14-8.077M270.102 473.243l18.277-.518M215.302 358.501l-10.127 6.285M216.127 347.769l-9.773-.847M339.771 552.854l5.784 2.716M327.56 479.243l-2.118 6.581M347.404 366.446l4.356 9.308M331.893 404.275l-1.372 16.568M333.775 404.276l-1.302-6.95M334.355 397.326l-2.462 6.95" style="fill:none;stroke:red;stroke-width:1.59466;stroke-linecap:round;stroke-linejoin:round;stroke-miterlimit:500;stroke-dasharray:none;stroke-opacity:1;visibility:visible"/><path d="m335.04 389.052-1.755-1.509M335.167 387.542l-2.011 1.512" style="fill:none;stroke:red;stroke-width:.995997;stroke-linecap:round;stroke-linejoin:round;stroke-miterlimit:500;stroke-dasharray:none;stroke-opacity:1;visibility:visible"/><path d="m345.524 366.444-10.417-1.12" style="fill:none;stroke:red;stroke-width:1.59466;stroke-linecap:round;stroke-linejoin:round;stroke-miterlimit:500;stroke-dasharray:none;stroke-opacity:1;visibility:visible"/><path d="m236.1 487.488 1.68.574M226.222 490.878l5.34-3.818M301.446 505.94l1.222.517M301.446 505.94l2.028-.763M300.213 504.022l5.341-3.817" style="fill:none;stroke:red;stroke-width:.995997;stroke-linecap:round;stroke-linejoin:round;stroke-miterlimit:4;stroke-dasharray:none;stroke-opacity:1;visibility:visible"/><path d="m131.018 509.562 1.212-.848M327.944 483.928l-.639-.986M270.102 473.243l19.641 3.383M287.86 476.624l-17.758-3.381M221.743 372.374l2.251-6.283" style="fill:none;stroke:red;stroke-width:.995997;stroke-linecap:round;stroke-linejoin:round;stroke-miterlimit:500;stroke-dasharray:none;stroke-opacity:1;visibility:visible"/><path d="m218.01 347.769 6.645 7.081" style="fill:none;stroke:red;stroke-width:1.59466;stroke-linecap:round;stroke-linejoin:round;stroke-miterlimit:500;stroke-dasharray:none;stroke-opacity:1;visibility:visible"/><path d="m221.743 372.374-4.612-4.579" style="fill:none;stroke:red;stroke-width:.995997;stroke-linecap:round;stroke-linejoin:round;stroke-miterlimit:500;stroke-dasharray:none;stroke-opacity:1;visibility:visible"/><path d="m269.3 562.12-.863-1.582" style="fill:none;stroke:red;stroke-width:1.59466;stroke-linecap:round;stroke-linejoin:round;stroke-miterlimit:500;stroke-dasharray:none;stroke-opacity:1;visibility:visible"/><path d="m269.3 562.12-.487-18.908M269.3 562.12l-.491-16.528M284.896 559.634l.344-9.852M333.611 490.323l1.852.171M333.583 490.494l1.908-.17" style="fill:none;stroke:red;stroke-width:.995997;stroke-linecap:round;stroke-linejoin:round;stroke-miterlimit:500;stroke-dasharray:none;stroke-opacity:1;visibility:visible"/><path d="m300.899 504.435.844-5.385M299.861 499.05l-9.681-1.89M239.661 488.063l6.02 1.177M226.91 491.292l.67-5.326" style="fill:none;stroke:red;stroke-width:1.59466;stroke-linecap:round;stroke-linejoin:round;stroke-miterlimit:500;stroke-dasharray:none;stroke-opacity:1;visibility:visible"/><path d="m335.15 515.874-6.368-1.45M339.771 552.854l.98 2.448M335.463 490.494l7.772 2.749M336.648 492.415l6.587.828M347.404 366.446l1.004 12.408" style="fill:none;stroke:red;stroke-width:.995997;stroke-linecap:round;stroke-linejoin:round;stroke-miterlimit:500;stroke-dasharray:none;stroke-opacity:1;visibility:visible"/><path d="m127.149 513.187 5.181-3.317M131.018 509.562l2.022-8.076M333.58 486.983l-6.255-1.159M344.505 522.25l-18.003-5.359M338.02 552.023l-9.828-3.857M339.771 552.854l7.665 2.716M216.127 347.769l-7.892-.845M215.302 358.501l-8.245 6.285M331.893 404.275l2.462-6.949M332.473 397.326l1.302 6.95M331.893 404.275l.51 16.568M347.404 366.446l6.238 9.309" style="fill:none;stroke:red;stroke-width:1.59466;stroke-linecap:round;stroke-linejoin:round;stroke-miterlimit:500;stroke-dasharray:none;stroke-opacity:1;visibility:visible"/><path d="m333.156 389.054 2.011-1.512M333.285 387.543l1.755 1.509" style="fill:none;stroke:red;stroke-width:.995997;stroke-linecap:round;stroke-linejoin:round;stroke-miterlimit:500;stroke-dasharray:none;stroke-opacity:1;visibility:visible"/><path d="m345.524 366.444-8.536-1.121" style="fill:none;stroke:red;stroke-width:1.59466;stroke-linecap:round;stroke-linejoin:round;stroke-miterlimit:500;stroke-dasharray:none;stroke-opacity:1;visibility:visible"/><path d="m306.705 502.33 3.146-.126M301.446 505.94l3.911-.762M300.899 504.435l3.651 2.02M227.186 489.82l1.467.858M243.799 489.24l-4.138-1.177M301.177 502.963l1.466.859M309.097 492.986l.993 7.647" style="fill:none;stroke:red;stroke-width:.995997;stroke-linecap:round;stroke-linejoin:round;stroke-miterlimit:4;stroke-dasharray:none;stroke-opacity:1;visibility:visible"/><path d="m108.42 577.817-.221-.03-.215.017-.196.073-.077.044M326.13 545.86l-2.697 2.245M214.237 524.459l3.455-2.296M108.42 577.817l-.09.067-.054.072-.015.072.023.077.064.068.099.06.126.053.154.042M280.18 612.17l57.136-61.468" style="fill:none;stroke:#00ff4a;stroke-width:.995997;stroke-linecap:round;stroke-linejoin:round;stroke-miterlimit:500;stroke-dasharray:none;stroke-opacity:1;visibility:visible" visibility="hidden"/><path d="m323.43 548.108 13.26 2.428" style="fill:none;stroke:#00ff4a;stroke-width:1.59466;stroke-linecap:round;stroke-linejoin:round;stroke-miterlimit:500;stroke-dasharray:none;stroke-opacity:1;visibility:visible" visibility="hidden"/><path d="m108.728 578.325 170.142 34.05M278.87 612.375l.188.028.195.01.198-.003.19-.018.177-.038.15-.054.12-.061.09-.067M260.924 529.914l-42.85-7.785" style="fill:none;stroke:#00ff4a;stroke-width:.995997;stroke-linecap:round;stroke-linejoin:round;stroke-miterlimit:500;stroke-dasharray:none;stroke-opacity:1;visibility:visible" visibility="hidden"/><path d="m325.472 541.644-20.255-3.683M106.982 582.334l-.001.012.097.459.197.376.275.288.33.225.402.164.237.064M106.907 579.366l.075 2.973" style="fill:none;stroke:#00ff4a;stroke-width:1.59466;stroke-linecap:round;stroke-linejoin:round;stroke-miterlimit:500;stroke-dasharray:none;stroke-opacity:1;visibility:visible" visibility="hidden"/><path d="m107.71 577.922-.33.255-.265.341-.165.407-.043.432" style="fill:none;stroke:#00ff4a;stroke-width:.995997;stroke-linecap:round;stroke-linejoin:round;stroke-miterlimit:500;stroke-dasharray:none;stroke-opacity:1;visibility:visible" visibility="hidden"/><path d="m163.969 543.826-56.259 34.095M281.204 617.526l56.684-61.439M108.52 583.925l169.982 34.247M278.503 618.174l.333.053.591.02.596-.077.592-.203.401-.264.187-.176" style="fill:none;stroke:#00ff4a;stroke-width:1.59466;stroke-linecap:round;stroke-linejoin:round;stroke-miterlimit:500;stroke-dasharray:none;stroke-opacity:1;visibility:visible" visibility="hidden"/><path d="m279.528 613.83-.055 3.847M262.826 530.027l-43.253-7.861M110.302 577.816l-.22-.03-.217.017-.195.073-.077.044M282.06 612.17l57.139-61.469M110.302 577.816l-.09.067-.054.072-.014.072.022.077.064.068.1.06.125.054.154.04M216.12 524.459l3.453-2.296" style="fill:none;stroke:#00ff4a;stroke-width:.995997;stroke-linecap:round;stroke-linejoin:round;stroke-miterlimit:500;stroke-dasharray:none;stroke-opacity:1;visibility:visible" visibility="hidden"/><path d="m325.313 548.108 13.26 2.428" style="fill:none;stroke:#00ff4a;stroke-width:1.59466;stroke-linecap:round;stroke-linejoin:round;stroke-miterlimit:500;stroke-dasharray:none;stroke-opacity:1;visibility:visible" visibility="hidden"/><path d="m280.753 612.375.186.028.196.01.198-.003.19-.018.177-.039.151-.053.12-.06.09-.068M110.61 578.326l170.14 34.049M262.806 529.915l-42.85-7.785" style="fill:none;stroke:#00ff4a;stroke-width:.995997;stroke-linecap:round;stroke-linejoin:round;stroke-miterlimit:500;stroke-dasharray:none;stroke-opacity:1;visibility:visible" visibility="hidden"/><path d="m327.354 541.644-20.256-3.682M108.79 579.367l.075 2.973M108.864 582.334l-.002.012.098.458.197.376.275.288.33.226.402.164.236.064" style="fill:none;stroke:#00ff4a;stroke-width:1.59466;stroke-linecap:round;stroke-linejoin:round;stroke-miterlimit:500;stroke-dasharray:none;stroke-opacity:1;visibility:visible" visibility="hidden"/><path d="m109.593 577.922-.33.254-.264.342-.166.406-.043.432" style="fill:none;stroke:#00ff4a;stroke-width:.995997;stroke-linecap:round;stroke-linejoin:round;stroke-miterlimit:500;stroke-dasharray:none;stroke-opacity:1;visibility:visible" visibility="hidden"/><path d="m280.385 618.175.333.053.592.02.595-.077.592-.203.401-.264.188-.176M110.402 583.926l169.981 34.246M283.086 617.527l56.685-61.439M165.85 543.826l-56.258 34.094" style="fill:none;stroke:#00ff4a;stroke-width:1.59466;stroke-linecap:round;stroke-linejoin:round;stroke-miterlimit:500;stroke-dasharray:none;stroke-opacity:1;visibility:visible" visibility="hidden"/><path d="m281.41 613.83-.055 3.845M219.573 522.163l-5.336 2.296" style="fill:none;stroke:#00ff4a;stroke-width:.995997;stroke-linecap:round;stroke-linejoin:round;stroke-miterlimit:500;stroke-dasharray:none;stroke-opacity:1;visibility:visible" visibility="hidden"/><path d="m325.313 548.108.159-6.464" style="fill:none;stroke:#00ff4a;stroke-width:1.59466;stroke-linecap:round;stroke-linejoin:round;stroke-miterlimit:500;stroke-dasharray:none;stroke-opacity:1;visibility:visible" visibility="hidden"/><path d="m281.355 617.675-1.827-3.845M281.41 613.83l-1.937 3.847M217.692 522.163l-1.572 2.296" style="fill:none;stroke:#00ff4a;stroke-width:.995997;stroke-linecap:round;stroke-linejoin:round;stroke-miterlimit:500;stroke-dasharray:none;stroke-opacity:1;visibility:visible" visibility="hidden"/><path d="m325.472 541.644-.159 6.464M325.313 548.108l2.041-6.464M325.472 541.644l-18.374-3.682" style="fill:none;stroke:#00ff4a;stroke-width:1.59466;stroke-linecap:round;stroke-linejoin:round;stroke-miterlimit:500;stroke-dasharray:none;stroke-opacity:1;visibility:visible" visibility="hidden"/><path d="m279.473 617.677 1.937-3.847" style="fill:none;stroke:#00ff4a;stroke-width:.995997;stroke-linecap:round;stroke-linejoin:round;stroke-miterlimit:500;stroke-dasharray:none;stroke-opacity:1;visibility:visible" visibility="hidden"/><path d="m330.521 420.843 12.367 2.934" style="fill:none;stroke:red;stroke-width:.995997;stroke-linecap:round;stroke-linejoin:round;stroke-miterlimit:500;stroke-dasharray:none;stroke-opacity:1;visibility:visible"/><path d="m330.521 420.843 17.75 2.356" style="fill:none;stroke:red;stroke-width:1.59466;stroke-linecap:round;stroke-linejoin:round;stroke-miterlimit:500;stroke-dasharray:none;stroke-opacity:1;visibility:visible"/><path d="m288.297 497.16 17.068 6.68" style="fill:none;stroke:red;stroke-width:.995997;stroke-linecap:round;stroke-linejoin:round;stroke-miterlimit:4;stroke-dasharray:none;stroke-opacity:1;visibility:visible"/><path d="m323.433 548.105 4.577-2.243M330.521 420.843l14.25 2.935" style="fill:none;stroke:red;stroke-width:.995997;stroke-linecap:round;stroke-linejoin:round;stroke-miterlimit:500;stroke-dasharray:none;stroke-opacity:1;visibility:visible"/><path d="m289.743 476.626.517-3.902M330.521 420.843l19.631 2.356" style="fill:none;stroke:red;stroke-width:1.59466;stroke-linecap:round;stroke-linejoin:round;stroke-miterlimit:500;stroke-dasharray:none;stroke-opacity:1;visibility:visible"/><path d="m325.313 548.107.817-2.247M248.898 531.083l12.026-1.169" style="fill:none;stroke:#00ff4a;stroke-width:.995997;stroke-linecap:round;stroke-linejoin:round;stroke-miterlimit:500;stroke-dasharray:none;stroke-opacity:1;visibility:visible" visibility="hidden"/></svg>