<svg xmlns="http://www.w3.org/2000/svg" baseProfile="full" height="793.701" preserveAspectRatio="xMinYMin meet" style="width:1370px;height:1303px" width="559.371" xml:space="preserve"><path d="m243.931 477.692 1.579 6.314" style="fill:none;stroke:red;stroke-width:.663998;stroke-linecap:round;stroke-linejoin:round;stroke-miterlimit:500;stroke-dasharray:none;stroke-opacity:1;visibility:visible" visibility="hidden"/><path d="m246.914 477.667.187 6.184M243.849 477.758l.184 6.104M246.41 477.036l.424.447M244.315 477.1l-.4.47M246.914 477.667a.267.267 0 0 0-.081-.187M243.915 477.568a.3.3 0 0 0-.068.194.277.277 0 0 0 .093.193M246.402 477.028a.885.885 0 0 0-.332-.194M246.07 476.835a2.25 2.25 0 0 0-1.425.043M244.643 476.88a.79.79 0 0 0-.32.211" style="fill:none;stroke:red;stroke-width:.995997;stroke-linecap:round;stroke-linejoin:round;stroke-miterlimit:2;stroke-dasharray:none;stroke-opacity:1;visibility:visible" visibility="hidden"/><path d="m356.872 402.789 1.58 6.311" style="fill:none;stroke:red;stroke-width:.663998;stroke-linecap:round;stroke-linejoin:round;stroke-miterlimit:500;stroke-dasharray:none;stroke-opacity:1;visibility:visible" visibility="hidden"/><path d="m359.855 402.765.187 6.182M356.79 402.855l.185 6.107M359.352 402.134l.424.444M357.258 402.195l-.402.471M359.855 402.765a.272.272 0 0 0-.08-.188M356.858 402.666a.27.27 0 0 0 .022.383M359.344 402.126a.839.839 0 0 0-.332-.195M359.012 401.935a2.32 2.32 0 0 0-1.426.039M357.584 401.974a.893.893 0 0 0-.32.213" style="fill:none;stroke:red;stroke-width:.995997;stroke-linecap:round;stroke-linejoin:round;stroke-miterlimit:2;stroke-dasharray:none;stroke-opacity:1;visibility:visible" visibility="hidden"/><path d="m368.074 407.726 1.58 6.312" style="fill:none;stroke:red;stroke-width:.663998;stroke-linecap:round;stroke-linejoin:round;stroke-miterlimit:500;stroke-dasharray:none;stroke-opacity:1;visibility:visible" visibility="hidden"/><path d="m371.058 407.7.186 6.187M367.992 407.793l.186 6.104M370.554 407.069l.424.449M368.46 407.131l-.403.471M371.058 407.7a.257.257 0 0 0-.08-.182M368.06 407.603a.272.272 0 0 0 .021.384M370.546 407.062a.888.888 0 0 0-.332-.195M370.212 406.869a2.283 2.283 0 0 0-1.426.041M368.786 406.911a.84.84 0 0 0-.322.212" style="fill:none;stroke:red;stroke-width:.995997;stroke-linecap:round;stroke-linejoin:round;stroke-miterlimit:2;stroke-dasharray:none;stroke-opacity:1;visibility:visible" visibility="hidden"/><path d="m255.249 482.92 1.58 6.314" style="fill:none;stroke:red;stroke-width:.663998;stroke-linecap:round;stroke-linejoin:round;stroke-miterlimit:500;stroke-dasharray:none;stroke-opacity:1;visibility:visible" visibility="hidden"/><path d="m258.231 482.896.189 6.186M255.166 482.988l.183 6.104M257.727 482.264l.426.444M255.633 482.328l-.4.472M258.231 482.896a.287.287 0 0 0-.08-.189M255.234 482.798a.272.272 0 0 0 .021.385M257.72 482.256a.859.859 0 0 0-.334-.193M257.386 482.064a2.283 2.283 0 0 0-1.425.043M255.96 482.108a.821.821 0 0 0-.32.208" style="fill:none;stroke:red;stroke-width:.995997;stroke-linecap:round;stroke-linejoin:round;stroke-miterlimit:2;stroke-dasharray:none;stroke-opacity:1;visibility:visible" visibility="hidden"/><path d="m459.69 598.52-104.707 60.527M367.583 550.184l.49-54.1M368.278 464.032l.098-5.725M369.586 429.115l.028-11.821" style="fill:none;stroke:red;stroke-width:.995997;stroke-linecap:round;stroke-linejoin:round;stroke-miterlimit:500;stroke-dasharray:none;stroke-opacity:1;visibility:visible" visibility="hidden"/><path d="m275.46 608.341 91.737-48.595" style="fill:none;stroke:red;stroke-width:1.59466;stroke-linecap:round;stroke-linejoin:round;stroke-miterlimit:500;stroke-dasharray:none;stroke-opacity:1;visibility:visible" visibility="hidden"/><path d="m63.507 549.844-.067-.032-.12-.101-.09-.143-.068-.184-.029-.212M62.467 539.926l-.19-.083-.142-.105-.105-.116-.057-.132-.01-.062M63.13 549.17l-.186-.081-.144-.111-.104-.111-.057-.131-.01-.065M365.772 553.899l-96.185 50.65" style="fill:none;stroke:red;stroke-width:.995997;stroke-linecap:round;stroke-linejoin:round;stroke-miterlimit:500;stroke-dasharray:none;stroke-opacity:1;visibility:visible" visibility="hidden"/><path d="m138.928 556.952 28.106 9.379M189.162 573.71l52.579 17.539" style="fill:none;stroke:red;stroke-width:1.59466;stroke-linecap:round;stroke-linejoin:round;stroke-miterlimit:500;stroke-dasharray:none;stroke-opacity:1;visibility:visible" visibility="hidden"/><path d="m369.506 550.139 4.204-2.472M374.052 547.206l-.012.084-.062.138-.112.128-.156.112" style="fill:none;stroke:red;stroke-width:.995997;stroke-linecap:round;stroke-linejoin:round;stroke-miterlimit:500;stroke-dasharray:none;stroke-opacity:1;visibility:visible" visibility="hidden"/><path d="m352.288 408.953.843 14.32M354.154 440.68l.118 2.014M352.108 488.278l-.197 26.784M351.772 533.712l-.066 8.959" style="fill:none;stroke:red;stroke-width:1.59466;stroke-linecap:round;stroke-linejoin:round;stroke-miterlimit:500;stroke-dasharray:none;stroke-opacity:1;visibility:visible" visibility="hidden"/><path d="m356.727 408.855.21.246.359.202M363.272 411.48l.404.116.468.041.467-.04.397-.123.28-.179.123-.217-.05-.221-.217-.202-.351-.149-.203-.037M362.858 411.02l-.015.062.14.216.29.181M369.506 550.139l-.199.09-.225.074-.25.047-.262.02-.27-.006-.26-.034-.242-.062-.215-.085M375.075 413.603l.165-.103.112-.123.06-.127.014-.129-.047-.131-.097-.124-.142-.112-.192-.096M370.722 415.92l4.35-2.316M368.492 414.075l.47.146.537.077.561-.008.53-.076.456-.156.34-.21.19-.246M367.862 413.358l.053.264.217.248.36.204" style="fill:none;stroke:red;stroke-width:.995997;stroke-linecap:round;stroke-linejoin:round;stroke-miterlimit:500;stroke-dasharray:none;stroke-opacity:1;visibility:visible" visibility="hidden"/><path d="m357.292 409.302.468.145.535.075.559-.004.526-.077.458-.156.338-.207.19-.247.036-.264" style="fill:none;stroke:red;stroke-width:.995997;stroke-linecap:round;stroke-linejoin:round;stroke-miterlimit:500;stroke-dasharray:none;stroke-opacity:1;visibility:visible" visibility="hidden"/><path d="m352.288 408.953 3.226-1.695M367.086 409.154l-2.239-.908M362.526 407.302l-1.502-.605M371.958 411.907l.31-.024.297-.05.278-.07M375.404 412.875l-2.564-1.113" style="fill:none;stroke:red;stroke-width:1.59466;stroke-linecap:round;stroke-linejoin:round;stroke-miterlimit:500;stroke-dasharray:none;stroke-opacity:1;visibility:visible" visibility="hidden"/><path d="m350.195 544.696-.004.599M351.068 543.003l.638-.399M503.655 627.195l.008.22.037.19.077.152.103.106.128.061.15.008.162-.045.093-.044M512.981 611.601l-.028-.117-.073-.15-.1-.108-.128-.061-.147-.014-.165.042-.172.091M368.73 415.969l.225.081.25.055.272.032.273.005.276-.02.257-.042.237-.07.203-.087M368.73 415.969l-16.44-7.015" style="fill:none;stroke:red;stroke-width:.995997;stroke-linecap:round;stroke-linejoin:round;stroke-miterlimit:500;stroke-dasharray:none;stroke-opacity:1;visibility:visible" visibility="hidden"/><path d="m513.153 612.63-.456 9.49M512.7 622.119l-.012.081-.018.085-.033.085-.037.083-.048.08-.052.068-.056.062-.057.045M512.385 622.708l-7.112 4.653" style="fill:none;stroke:red;stroke-width:1.59466;stroke-linecap:round;stroke-linejoin:round;stroke-miterlimit:500;stroke-dasharray:none;stroke-opacity:1;visibility:visible" visibility="hidden"/><path d="m505.035 615.915-.179.138-.168.175-.161.212-.139.233-.12.255-.092.262-.06.254-.03.246M350.195 543.666l153.893 72.994M351.068 543.003l-.168.13-.165.165-.15.2-.135.222-.104.247-.084.248-.052.248-.015.232M504.088 617.69l-.433 9.504M512.168 611.283l-7.132 4.632M460.6 599.18l-.012-.21-.038-.223-.08-.224-.1-.223-.13-.207-.152-.193-.166-.17-.182-.136-.186-.107M460.415 604.69l.185-5.508M459.554 597.487l-8.666-4.088M460.075 605.37l.135-.11.106-.155.068-.194.03-.222M450.89 593.399l-.192-.073-.18-.029-.174.006-.156.045-.072.034M366.234 552.695l-15.884-7.481M367.198 559.744l-.02.196-.048.169-.075.152-.103.117-.098.066" style="fill:none;stroke:red;stroke-width:.995997;stroke-linecap:round;stroke-linejoin:round;stroke-miterlimit:500;stroke-dasharray:none;stroke-opacity:1;visibility:visible" visibility="hidden"/><path d="m264.834 589.586 85.517-44.374" style="fill:none;stroke:red;stroke-width:1.59466;stroke-linecap:round;stroke-linejoin:round;stroke-miterlimit:500;stroke-dasharray:none;stroke-opacity:1;visibility:visible" visibility="hidden"/><path d="m264.987 605.652-.025.139-.07.149-.13.135-.172.125M366.234 552.695l.176.105.17.132.162.16.141.186.127.204.1.212.076.22.044.215.013.209M367.198 559.744l.044-5.402" style="fill:none;stroke:red;stroke-width:.995997;stroke-linecap:round;stroke-linejoin:round;stroke-miterlimit:500;stroke-dasharray:none;stroke-opacity:1;visibility:visible" visibility="hidden"/><path d="m238.993 483.844 2.91 116.873" style="fill:none;stroke:red;stroke-width:1.59466;stroke-linecap:round;stroke-linejoin:round;stroke-miterlimit:500;stroke-dasharray:none;stroke-opacity:1;visibility:visible" visibility="hidden"/><path d="m259.973 608.9 4.617-2.7M255.514 606.612l.216.128.145.113M250.58 489.306l2.574 117.183M253.153 606.488l.287-.084.303-.056.322-.028.32.003.313.027.3.062.273.09.242.112M241.906 600.719l11.248 5.77" style="fill:none;stroke:red;stroke-width:.995997;stroke-linecap:round;stroke-linejoin:round;stroke-miterlimit:500;stroke-dasharray:none;stroke-opacity:1;visibility:visible" visibility="hidden"/><path d="m253.405 490.635 2.488 117.261" style="fill:none;stroke:red;stroke-width:1.32933;stroke-linecap:round;stroke-linejoin:round;stroke-miterlimit:500;stroke-dasharray:none;stroke-opacity:1;visibility:visible" visibility="hidden"/><path d="m262.377 489.02.18-.119.126-.129.082-.141.022-.145-.036-.144-.086-.136-.145-.124-.185-.11M257.613 491.587l4.765-2.567M255.526 491.638l.227.085.256.064.277.037.288.008.29-.022.276-.048.25-.076.22-.098M255.526 491.638l-2.124-1.003M253.017 489.422l.225.117.181.135.131.156.081.16.025.166-.03.166-.087.16-.138.152M250.58 489.306l.298-.08.315-.054.329-.025.33.003.324.025.307.059.283.084.25.106M255.451 489.54l.479.161.553.085.587-.003.563-.092.489-.168.373-.232.226-.279.053-.292M254.86 488.742l.03.296.207.272.35.23M244.191 484.24l.472.161.552.085.587-.006.56-.089.49-.168.369-.23.229-.276M243.751 483.162l-.141.288.029.29.196.274.356.225M250.235 486.654l.415.13.483.047.489-.047.427-.13.313-.199.147-.243-.032-.246-.207-.224-.355-.164-.293-.056M249.851 486.123l-.025.093.124.24.284.197M256.729 492.028l2.36 116.872M259.973 608.9l-.213.101-.25.082-.263.05-.277.019-.281-.004-.269-.041-.247-.064-.223-.093M255.893 607.895l2.06 1.054" style="fill:none;stroke:red;stroke-width:.995997;stroke-linecap:round;stroke-linejoin:round;stroke-miterlimit:500;stroke-dasharray:none;stroke-opacity:1;visibility:visible" visibility="hidden"/><path d="m238.993 483.844 4.172-2.218M262.665 488.203l-3.502-1.717M254.373 484.24l-1.983-.933M249.43 481.922l-1.675-.784" style="fill:none;stroke:red;stroke-width:1.59466;stroke-linecap:round;stroke-linejoin:round;stroke-miterlimit:500;stroke-dasharray:none;stroke-opacity:1;visibility:visible" visibility="hidden"/><path d="m87.013 543.738-.339.186-.424.118-.466.048-.45-.04-.24-.064M70.09 538.963l14.997 5.023M89.74 541.671l-2.73 2.068M79.696 430.08l3.216-1.806M82.912 428.273l.188-.19.056-.197-.09-.193-.215-.154-.187-.072M89.986 541.163l.024.115-.109.24-.163.154M70.09 538.963l-.313-.15-.187-.208-.02-.105M250.58 489.306l-11.588-5.459M186.36 576.976l-.332.199-.43.127-.474.048-.46-.044-.26-.063M168.658 571.968l15.75 5.278M189.009 574.812l-2.649 2.166M189.233 574.318l.024.084-.097.252-.151.16M168.658 571.968l-.332-.158-.205-.215-.039-.15" style="fill:none;stroke:red;stroke-width:.995997;stroke-linecap:round;stroke-linejoin:round;stroke-miterlimit:500;stroke-dasharray:none;stroke-opacity:1;visibility:visible" visibility="hidden"/><path d="m78.85 431.318-.258 6.772-.158 7.696-.056 7.617.04 7.543.133 7.457.234 7.372.33 7.285.425 7.188.52 7.092.614 6.994.704 6.892.803 6.781.889 6.677.978 6.566 1.072 6.45 1.156 6.331M136.08 560.156l-.335.19-.427.123-.472.047-.454-.042-.25-.064M118.774 555.267l15.366 5.143M138.77 558.039l-2.688 2.119M139.005 557.538l.023.1-.104.248-.155.154M118.774 555.267l-.321-.157-.2-.207-.023-.128M181.06 462.317l-.418 7.145-.321 7.838-.227 7.763-.126 7.679-.036 7.59.06 7.501.154 7.407.247 7.31.337 7.209.43 7.105.522 6.996.614 6.884.7 6.774.789 6.656.877 6.534.963 6.416M217.557 597.095l5.628 1.842 5.533 1.943 5.432 2.036 5.333 2.132 5.222 2.228 5.105 2.324 4.995 2.415 4.873 2.505M62.467 539.926l155.088 57.169" style="fill:none;stroke:red;stroke-width:.995997;stroke-linecap:round;stroke-linejoin:round;stroke-miterlimit:500;stroke-dasharray:none;stroke-opacity:1;visibility:visible" visibility="hidden"/><path d="m134.584 560.41-1.134-6.803-1.033-6.943-.93-7.073-.835-7.201-.729-7.326-.625-7.45-.52-7.566-.414-7.68-.308-7.791-.199-7.897-.095-7.998.019-8.096.128-8.188.233-8.275.35-8.357" style="fill:none;stroke:red;stroke-width:.995997;stroke-linecap:round;stroke-linejoin:round;stroke-miterlimit:500;stroke-dasharray:none;stroke-opacity:1;visibility:visible" visibility="hidden"/><path d="m388.826 692.973-.1.439-.268.312" style="fill:none;stroke:red;stroke-width:1.59466;stroke-linecap:round;stroke-linejoin:round;stroke-miterlimit:500;stroke-dasharray:none;stroke-opacity:1;visibility:visible" visibility="hidden"/><path d="m388.56 682.701.06-.034M388.619 682.664l.264-.19.101-.176-.024-.039" style="fill:none;stroke:red;stroke-width:.995997;stroke-linecap:round;stroke-linejoin:round;stroke-miterlimit:500;stroke-dasharray:none;stroke-opacity:1;visibility:visible" visibility="hidden"/><path d="m388.456 693.724-.058.04M388.399 693.765l-7.801 5.075" style="fill:none;stroke:red;stroke-width:1.59466;stroke-linecap:round;stroke-linejoin:round;stroke-miterlimit:500;stroke-dasharray:none;stroke-opacity:1;visibility:visible" visibility="hidden"/><path d="m259.68 614.52 120.066 73.877M380.732 687.755l7.828-5.055M380.596 698.839l-.426.253M379.627 698.253l.032.235.107.224.17.203.232.18M379.746 688.396l-.122 9.857M386.922 478.4l.334-.066.148.061M387.482 478.426l.013.042" style="fill:none;stroke:red;stroke-width:.995997;stroke-linecap:round;stroke-linejoin:round;stroke-miterlimit:500;stroke-dasharray:none;stroke-opacity:1;visibility:visible" visibility="hidden"/><path d="m512.72 611.19-138.64-65.274M374.052 547.206l.526-48.436M374.816 467.191l.202-12.314M375.234 426.16l.194-12.99" style="fill:none;stroke:red;stroke-width:1.59466;stroke-linecap:round;stroke-linejoin:round;stroke-miterlimit:500;stroke-dasharray:none;stroke-opacity:1;visibility:visible" visibility="hidden"/><path d="m513.145 612.535-.165-.932" style="fill:none;stroke:red;stroke-width:.995997;stroke-linecap:round;stroke-linejoin:round;stroke-miterlimit:500;stroke-dasharray:none;stroke-opacity:1;visibility:visible" visibility="hidden"/><path d="m364.946 561.502 76.47 36.558M458.63 606.25l45.302 21.643" style="fill:none;stroke:red;stroke-width:1.59466;stroke-linecap:round;stroke-linejoin:round;stroke-miterlimit:500;stroke-dasharray:none;stroke-opacity:1;visibility:visible" visibility="hidden"/><path d="m504.415 627.843.833-.467" style="fill:none;stroke:red;stroke-width:.995997;stroke-linecap:round;stroke-linejoin:round;stroke-miterlimit:500;stroke-dasharray:none;stroke-opacity:1;visibility:visible" visibility="hidden"/><path d="m271.523 605.715-6.568-3.347M63.507 549.844l154.663 57.417M62.503 538.252l-.131.108-.11.126-.101.134-.076.156-.061.154-.044.165-.016.167.003.168M61.965 539.428l.665 9.244M68.47 533.811l-5.967 4.443M139.026 557.534l-.426-2.464-.972-6.022-.894-6.128-.81-6.233-.736-6.34-.65-6.437-.573-6.534-.488-6.625-.403-6.723-.321-6.81-.237-6.89-.152-6.981-.066-7.059.019-7.134.107-7.21.194-7.278.282-7.346.2-4.206M111.661 440.353l-.264 3.494-.4 4.05-.484 3.981-.57 3.899-.653 3.837-.74 3.763-.738 3.291M107.825 466.674l-.03.124-.641 3.06-.503 3.1-.359 3.116-.224 3.136-.09 3.171.047 3.145M106.018 485.528l.14 3.672.325 6.91.414 6.826.499 6.731.2 2.408M107.606 512.075l.03.456.352 3.081.481 3.098.615 3.09.744 3.078.87 3.084.872 2.696M111.557 530.655l.244.71 1.223 3.746 1.132 3.675 1.044 3.617.957 3.553.87 3.495.788 3.432.397 1.896M189.253 574.312l-.387-2.472-.878-6.062-.803-6.17-.721-6.281-.64-6.381-.561-6.484-.483-6.583-.4-6.683-.318-6.774-.234-6.867-.152-6.95-.068-7.039.018-7.122.102-7.198.18-7.277.39-7.346.356-7.418.244-3.7M162.96 456.085l-.306 3.533-.446 4.084-.54 4.016-.623 3.938-.715 3.864-.798 3.792-.794 3.315M158.749 482.63l-.03.12-.698 3.086-.549 3.126-.412 3.142-.27 3.16-.128 3.198.003 3.186M156.662 501.647l.09 3.701.246 6.967.327 6.883.412 6.789.17 2.421M157.916 528.408l.026.447.31 3.112.45 3.119.575 3.116.715 3.097.842 3.115.858 2.736M161.677 547.15l.241.717 1.188 3.777 1.098 3.703 1.006 3.643.922 3.58.828 3.514.737 3.458.37 1.908M90.006 541.159l-.466-2.45-1.056-5.985-.984-6.089-.899-6.19-.819-6.29-.734-6.392-.66-6.483-.568-6.576-.488-6.666-.404-6.754-.318-6.834-.232-6.92-.146-6.998-.058-7.071.034-7.141.116-7.213.206-7.277.156-4.16M61.635 425.006l-.232 3.46-.35 4.014-.437 3.946-.512 3.868-.601 3.803-.68 3.736-.679 3.267M58.15 451.107l-.026.127-.591 3.039-.453 3.073-.316 3.092-.184 3.106-.045 3.15.082 3.108M56.613 469.802l.182 3.637.405 6.856.492 6.767.585 6.682.23 2.387M58.517 496.132l.038.464.385 3.058.524 3.074.643 3.066.768 3.048.902 3.061.887 2.655M62.65 514.555l.246.704 1.254 3.716 1.162 3.648 1.078 3.59.996 3.53.914 3.465.833 3.412.419 1.886M264.987 605.652l-2.2-117.154M360.356 663.41l99.719-58.04M450.116 593.381l-104.882 60.148" style="fill:none;stroke:red;stroke-width:1.59466;stroke-linecap:round;stroke-linejoin:round;stroke-miterlimit:500;stroke-dasharray:none;stroke-opacity:1;visibility:visible" visibility="hidden"/><path d="m271.651 605.79-.018-.012-.011-.008-.019-.01-.017-.007-.016-.01-.013-.01-.019-.008-.017-.01" style="fill:none;stroke:red;stroke-width:.995997;stroke-linecap:round;stroke-linejoin:round;stroke-miterlimit:500;stroke-dasharray:none;stroke-opacity:1;visibility:visible" visibility="hidden"/><path d="m388.642 681.657-116.99-75.867M388.831 692.973l.155-10.663M218.183 607.265l2.277.735 4.821 1.624 4.746 1.703 4.675 1.77 4.595 1.84 4.51 1.92 4.433 1.977 4.345 2.054 4.255 2.125 3.37 1.764M117.03 549.348l-27.184-9.065" style="fill:none;stroke:red;stroke-width:1.59466;stroke-linecap:round;stroke-linejoin:round;stroke-miterlimit:500;stroke-dasharray:none;stroke-opacity:1;visibility:visible" visibility="hidden"/><path d="m388.975 682.256-.288-.541" style="fill:none;stroke:red;stroke-width:.995997;stroke-linecap:round;stroke-linejoin:round;stroke-miterlimit:500;stroke-dasharray:none;stroke-opacity:1;visibility:visible" visibility="hidden"/><path d="m260.182 624.755 119.985 74.334" style="fill:none;stroke:red;stroke-width:1.59466;stroke-linecap:round;stroke-linejoin:round;stroke-miterlimit:500;stroke-dasharray:none;stroke-opacity:1;visibility:visible" visibility="hidden"/><path d="m352.114 542.844 15.158 7.18" style="fill:none;stroke:red;stroke-width:.995997;stroke-linecap:round;stroke-linejoin:round;stroke-miterlimit:500;stroke-dasharray:none;stroke-opacity:1;visibility:visible" visibility="hidden"/><path d="m61.51 424.635 3.72-2.59M69.417 423.349l.653.2M73.573 424.642l.719.223M79.35 426.44l1.732.54 1.58.486" style="fill:none;stroke:red;stroke-width:1.59466;stroke-linecap:round;stroke-linejoin:round;stroke-miterlimit:500;stroke-dasharray:none;stroke-opacity:1;visibility:visible" visibility="hidden"/><path d="m77.225 430.642.421.085.475.008.47-.07.426-.145.233-.13M61.747 425.611l15.477 5.03" style="fill:none;stroke:red;stroke-width:.995997;stroke-linecap:round;stroke-linejoin:round;stroke-miterlimit:500;stroke-dasharray:none;stroke-opacity:1;visibility:visible" visibility="hidden"/><path d="m72.373 426.611.059-.077.005-.164-.117-.147-.222-.11" style="fill:none;stroke:red;stroke-width:.663998;stroke-linecap:round;stroke-linejoin:round;stroke-miterlimit:500;stroke-dasharray:none;stroke-opacity:1;visibility:visible" visibility="hidden"/><path d="m70.77 426.318-.077.062-.063.167.058.156.17.138.265.079.321.03.333-.032.303-.088.226-.136.067-.084M173.84 457.447l-.302-.056h-.33l-.323.061-.271.116-.102.083M172.513 457.653l-.077.06-.063.169.057.156.17.137.266.08.32.03.334-.033.302-.087.228-.136.066-.083M174.116 457.943l.058-.077.006-.164-.118-.147-.221-.11M122.549 441.595l-.3-.055h-.33l-.326.062-.267.115-.104.083" style="fill:none;stroke:red;stroke-width:.663998;stroke-linecap:round;stroke-linejoin:round;stroke-miterlimit:500;stroke-dasharray:none;stroke-opacity:1;visibility:visible" visibility="hidden"/><path d="m121.222 441.8-.077.063-.063.166.056.156.17.137.266.08.32.03.336-.033.3-.089.227-.135.067-.082M122.824 442.091l.06-.077.005-.164-.117-.145-.223-.11M72.097 426.114l-.301-.056h-.33l-.325.062-.268.115-.103.085" style="fill:none;stroke:red;stroke-width:.663998;stroke-linecap:round;stroke-linejoin:round;stroke-miterlimit:500;stroke-dasharray:none;stroke-opacity:1;visibility:visible" visibility="hidden"/><path d="m163.22 455.845 3.535-2.445M172.258 455.038l3.842 1.137M181.885 457.895l.813.242 1.67.536M184.709 459.711l.215-.238.054-.255-.114-.248-.267-.196-.23-.099" style="fill:none;stroke:red;stroke-width:1.59466;stroke-linecap:round;stroke-linejoin:round;stroke-miterlimit:500;stroke-dasharray:none;stroke-opacity:1;visibility:visible" visibility="hidden"/><path d="m179.8 462.154.44.09.482.009.482-.071.418-.155.234-.137M163.542 456.871l16.258 5.284M181.857 461.886l2.852-2.176" style="fill:none;stroke:red;stroke-width:.995997;stroke-linecap:round;stroke-linejoin:round;stroke-miterlimit:500;stroke-dasharray:none;stroke-opacity:1;visibility:visible" visibility="hidden"/><path d="m111.817 439.742 3.181-2.427M119.87 438.731l4.231 1.232M129.493 441.533l1.24.36 1.713.546M132.736 443.427l.221-.227.064-.246-.103-.234-.257-.191-.22-.09" style="fill:none;stroke:red;stroke-width:1.59466;stroke-linecap:round;stroke-linejoin:round;stroke-miterlimit:500;stroke-dasharray:none;stroke-opacity:1;visibility:visible" visibility="hidden"/><path d="m127.826 445.755.424.086.478.009.47-.069.419-.145.232-.133M112.09 440.72l15.738 5.035M129.853 445.5l2.884-2.072" style="fill:none;stroke:red;stroke-width:.995997;stroke-linecap:round;stroke-linejoin:round;stroke-miterlimit:500;stroke-dasharray:none;stroke-opacity:1;visibility:visible" visibility="hidden"/><path d="m65.721 419.994 1.245 4.976M65.75 424.6l-.196.16M65.556 424.76l-.14.117-.123.308.104.295.323.243.487.162.598.05.617-.064.562-.161.425-.252.124-.156M68.534 425.302l.11-.14.008-.307-.219-.273-.415-.207" style="fill:none;stroke:red;stroke-width:.663998;stroke-linecap:round;stroke-linejoin:round;stroke-miterlimit:500;stroke-dasharray:none;stroke-opacity:1;visibility:visible" visibility="hidden"/><path d="M67.374 419.331a1.7 1.7 0 0 0-1.102.032M68.03 419.978l.142 4.87M65.66 420.047l.144 4.863M67.637 419.489l.33.346M66.02 419.54l-.308.361M68.03 419.978a.219.219 0 0 0-.063-.143M65.712 419.902a.21.21 0 0 0 .018.297" style="fill:none;stroke:red;stroke-width:.995997;stroke-linecap:round;stroke-linejoin:round;stroke-miterlimit:2;stroke-dasharray:none;stroke-opacity:1;visibility:visible" visibility="hidden"/><path d="m75.465 422.915 1.245 4.978M75.493 427.522l-.195.16M75.298 427.682l-.14.117-.12.311.099.292.325.244.488.161.598.05.617-.063.563-.161.424-.251.124-.156M78.278 428.225l.11-.142.006-.306-.217-.274-.415-.206" style="fill:none;stroke:red;stroke-width:.663998;stroke-linecap:round;stroke-linejoin:round;stroke-miterlimit:500;stroke-dasharray:none;stroke-opacity:1;visibility:visible" visibility="hidden"/><path d="M77.118 422.254a1.71 1.71 0 0 0-1.102.032M77.773 422.902l.144 4.87M75.402 422.969l.144 4.86M77.38 422.411l.33.347M75.764 422.462l-.308.363M77.773 422.902a.227.227 0 0 0-.063-.144M75.454 422.825a.213.213 0 0 0 .02.298" style="fill:none;stroke:red;stroke-width:.995997;stroke-linecap:round;stroke-linejoin:round;stroke-miterlimit:2;stroke-dasharray:none;stroke-opacity:1;visibility:visible" visibility="hidden"/><path d="m115.994 435.062 1.246 4.977M116.022 439.667l-.194.16M115.829 439.827l-.14.118-.121.308.102.296.323.24.487.165.598.049.618-.063.561-.162.425-.252.124-.156M118.808 440.37l.109-.141.008-.306-.219-.273-.414-.208" style="fill:none;stroke:red;stroke-width:.663998;stroke-linecap:round;stroke-linejoin:round;stroke-miterlimit:500;stroke-dasharray:none;stroke-opacity:1;visibility:visible" visibility="hidden"/><path d="M117.648 434.4a1.739 1.739 0 0 0-1.103.032M118.302 435.047l.144 4.87M115.933 435.115l.144 4.862M117.91 434.558l.331.345M116.293 434.609l-.308.36M118.302 435.047a.23.23 0 0 0-.062-.144M115.985 434.971a.21.21 0 0 0 .019.299" style="fill:none;stroke:red;stroke-width:.995997;stroke-linecap:round;stroke-linejoin:round;stroke-miterlimit:2;stroke-dasharray:none;stroke-opacity:1;visibility:visible" visibility="hidden"/><path d="m125.738 437.985 1.246 4.977M125.765 442.59l-.195.16M125.573 442.75l-.14.119-.123.306.103.296.324.243.487.161.598.05.618-.062.56-.163.426-.251.124-.156M128.552 443.293l.108-.14.008-.307-.218-.272-.414-.208" style="fill:none;stroke:red;stroke-width:.663998;stroke-linecap:round;stroke-linejoin:round;stroke-miterlimit:500;stroke-dasharray:none;stroke-opacity:1;visibility:visible" visibility="hidden"/><path d="M127.392 437.323a1.71 1.71 0 0 0-1.103.032M128.045 437.969l.144 4.869M125.676 438.04l.144 4.86M127.653 437.482l.33.345M126.037 437.531l-.308.363M128.045 437.969a.219.219 0 0 0-.064-.143M125.728 437.894a.21.21 0 0 0 .018.296" style="fill:none;stroke:red;stroke-width:.995997;stroke-linecap:round;stroke-linejoin:round;stroke-miterlimit:2;stroke-dasharray:none;stroke-opacity:1;visibility:visible" visibility="hidden"/><path d="m167.898 451.337 1.247 4.977M167.926 455.942l-.194.16M167.733 456.102l-.141.118-.122.307.103.295.321.244.49.161.596.05.618-.062.562-.162.428-.253.12-.156M170.712 456.643l.108-.14.009-.306-.216-.274-.417-.206" style="fill:none;stroke:red;stroke-width:.663998;stroke-linecap:round;stroke-linejoin:round;stroke-miterlimit:500;stroke-dasharray:none;stroke-opacity:1;visibility:visible" visibility="hidden"/><path d="M169.552 450.675a1.696 1.696 0 0 0-1.102.032M170.208 451.32l.142 4.87M167.837 451.389l.145 4.86M169.814 450.831l.33.347M168.197 450.882l-.308.363M170.208 451.32a.228.228 0 0 0-.062-.141M167.888 451.245a.216.216 0 0 0 .018.297" style="fill:none;stroke:red;stroke-width:.995997;stroke-linecap:round;stroke-linejoin:round;stroke-miterlimit:2;stroke-dasharray:none;stroke-opacity:1;visibility:visible" visibility="hidden"/><path d="m177.64 454.258 1.249 4.977M177.67 458.863l-.194.16M177.477 459.023l-.141.119-.122.308.103.293.323.244.488.161.597.052.619-.066.56-.16.428-.25.12-.158M180.454 459.567l.11-.141.008-.307-.218-.273-.416-.207" style="fill:none;stroke:red;stroke-width:.663998;stroke-linecap:round;stroke-linejoin:round;stroke-miterlimit:500;stroke-dasharray:none;stroke-opacity:1;visibility:visible" visibility="hidden"/><path d="M179.294 453.595a1.696 1.696 0 0 0-1.101.032M179.949 454.246l.144 4.868M177.58 454.311l.146 4.862M179.557 453.754l.332.346M177.94 453.805l-.308.362M179.949 454.246a.219.219 0 0 0-.061-.146M177.632 454.169a.219.219 0 0 0-.052.141.22.22 0 0 0 .07.156" style="fill:none;stroke:red;stroke-width:.995997;stroke-linecap:round;stroke-linejoin:round;stroke-miterlimit:2;stroke-dasharray:none;stroke-opacity:1;visibility:visible" visibility="hidden"/><path d="M356.874 521.155a.373.373 0 0 0-.362-.424M356.874 521.155l-.084 8.453M356.416 530.278a.84.84 0 0 0 .37-.671M352.227 527.427l.047-6.45M355.7 520.822c.21.006.425-.016.634-.063M356.34 520.76l.171-.03M348.042 520.678a6.273 6.273 0 0 0-2.039.277M344.786 530.388l11.63-.112M356.32 530.086l-4.094-2.47M352.227 527.616l-7.444 2.774M344.786 530.388l.03-8.473M345.316 521.182a.81.81 0 0 0-.5.734M345.316 521.182l.687-.227M348.042 520.678l7.657.144M348.412 526.39l.484-.244.447-.383.37-.49.272-.561.137-.58.004-.562-.136-.49-.259-.382-.364-.246-.444-.081-.485.08-.49.244-.448.383-.373.49-.267.564-.14.583-.002.563.132.49.264.383.372.241.444.082.482-.084M344.906 530.275v.004M352.98 517.515a1.247 1.247 0 0 0-.988-.09M356.32 531.042l.121-.04M356.44 531c.568-.228.943-.774.951-1.386M355.606 531.144c.241.01.48-.026.71-.101M347.991 531a6.31 6.31 0 0 0-2.13.3M344.936 531.615l.927-.316M343.212 530.258a1.24 1.24 0 0 0 .622 1.084M357.426 525.986c.054-.638.056-1.286.006-1.923M343.834 531.342l.38.218M344.226 531.554a.808.808 0 0 0 .708.062M357.39 529.615l.037-3.684M357.447 524.282l.035-3.682M347.991 531l7.613.144M357.04 519.744l-4.065-2.23M357.483 520.602a.833.833 0 0 0-.459-.846M351.991 517.423l-7.89 2.61M343.24 521.227l-.028 9.03M344.106 520.032a1.259 1.259 0 0 0-.864 1.192M357.91 428.538a.373.373 0 0 0-.362-.424M357.911 428.538l-.085 8.452M357.452 437.66c.224-.146.36-.4.37-.668M353.263 434.809l.048-6.451M356.734 428.206a2.52 2.52 0 0 0 .636-.063M357.375 428.142l.173-.03M349.08 428.062a6.273 6.273 0 0 0-2.04.277M345.822 437.773l11.63-.113M357.355 437.47l-4.09-2.47M353.263 435l-7.443 2.772M345.822 437.773l.03-8.473M346.354 428.566a.81.81 0 0 0-.5.734M346.354 428.566l.686-.227M349.08 428.062l7.655.144M349.45 433.774l.484-.244.446-.383.371-.49.27-.56.139-.58.004-.563-.136-.49-.26-.381-.364-.246-.444-.082-.485.08-.49.245-.448.382-.373.49-.266.566-.14.581-.003.563.133.49.263.384.372.241.444.08.483-.082M345.943 437.66v.002M354.015 424.9a1.244 1.244 0 0 0-.987-.092M357.355 438.425l.125-.04M357.476 438.383c.57-.228.944-.773.952-1.386M356.64 438.529c.243.009.482-.027.712-.102M349.027 438.383a6.307 6.307 0 0 0-2.127.299M345.975 439l.925-.318M344.248 437.64a1.243 1.243 0 0 0 .623 1.086M358.463 433.37c.055-.64.057-1.287.007-1.924M344.872 438.729l.38.217M345.264 438.938a.808.808 0 0 0 .708.062M358.428 437l.036-3.686M358.483 431.665l.035-3.682M349.027 438.383l7.613.144M358.075 427.129l-4.061-2.231M358.522 427.985a.836.836 0 0 0-.46-.846M353.03 424.807l-7.89 2.61M344.276 428.61l-.028 9.03M345.14 427.417a1.259 1.259 0 0 0-.862 1.192" style="fill:none;stroke:red;stroke-width:.995997;stroke-linecap:round;stroke-linejoin:round;stroke-miterlimit:10;stroke-dasharray:none;stroke-opacity:1;visibility:visible" visibility="hidden"/><path d="m245.813 477.692 1.577 6.314" style="fill:none;stroke:red;stroke-width:.663998;stroke-linecap:round;stroke-linejoin:round;stroke-miterlimit:500;stroke-dasharray:none;stroke-opacity:1;visibility:visible" visibility="hidden"/><path d="m248.795 477.667.187 6.184M245.73 477.758l.185 6.104M248.291 477.036l.424.447M246.197 477.1l-.402.47M248.795 477.667a.273.273 0 0 0-.081-.187M245.797 477.568a.31.31 0 0 0-.07.194.28.28 0 0 0 .094.193M248.283 477.028a.885.885 0 0 0-.332-.194M247.951 476.835a2.256 2.256 0 0 0-1.425.043M246.525 476.88a.781.781 0 0 0-.32.211" style="fill:none;stroke:red;stroke-width:.995997;stroke-linecap:round;stroke-linejoin:round;stroke-miterlimit:2;stroke-dasharray:none;stroke-opacity:1;visibility:visible" visibility="hidden"/><path d="m358.754 402.789 1.58 6.311" style="fill:none;stroke:red;stroke-width:.663998;stroke-linecap:round;stroke-linejoin:round;stroke-miterlimit:500;stroke-dasharray:none;stroke-opacity:1;visibility:visible" visibility="hidden"/><path d="m361.736 402.765.186 6.182M358.672 402.855l.186 6.107M361.234 402.134l.424.444M359.14 402.195l-.403.471M361.736 402.765a.272.272 0 0 0-.08-.188M358.74 402.666a.27.27 0 0 0 .021.383M361.226 402.126a.839.839 0 0 0-.332-.195M360.892 401.935a2.32 2.32 0 0 0-1.426.039M359.466 401.974a.881.881 0 0 0-.322.213" style="fill:none;stroke:red;stroke-width:.995997;stroke-linecap:round;stroke-linejoin:round;stroke-miterlimit:2;stroke-dasharray:none;stroke-opacity:1;visibility:visible" visibility="hidden"/><path d="m369.955 407.726 1.58 6.312" style="fill:none;stroke:red;stroke-width:.663998;stroke-linecap:round;stroke-linejoin:round;stroke-miterlimit:500;stroke-dasharray:none;stroke-opacity:1;visibility:visible" visibility="hidden"/><path d="m372.94 407.7.185 6.187M369.874 407.793l.185 6.104M372.435 407.069l.425.449M370.34 407.131l-.4.471M372.94 407.7a.263.263 0 0 0-.08-.182M369.942 407.603a.272.272 0 0 0 .022.384M372.427 407.062a.888.888 0 0 0-.332-.195M372.095 406.869a2.283 2.283 0 0 0-1.427.041M370.668 406.911a.83.83 0 0 0-.32.212" style="fill:none;stroke:red;stroke-width:.995997;stroke-linecap:round;stroke-linejoin:round;stroke-miterlimit:2;stroke-dasharray:none;stroke-opacity:1;visibility:visible" visibility="hidden"/><path d="m257.13 482.92 1.58 6.314" style="fill:none;stroke:red;stroke-width:.663998;stroke-linecap:round;stroke-linejoin:round;stroke-miterlimit:500;stroke-dasharray:none;stroke-opacity:1;visibility:visible" visibility="hidden"/><path d="m260.113 482.896.186 6.186M257.049 482.988l.181 6.104M259.609 482.264l.425.444M257.513 482.328l-.399.472M260.113 482.896a.287.287 0 0 0-.08-.189M257.115 482.798a.272.272 0 0 0 .022.385M259.6 482.256a.84.84 0 0 0-.334-.193M259.267 482.064a2.275 2.275 0 0 0-1.424.043M257.842 482.108a.821.821 0 0 0-.321.208" style="fill:none;stroke:red;stroke-width:.995997;stroke-linecap:round;stroke-linejoin:round;stroke-miterlimit:2;stroke-dasharray:none;stroke-opacity:1;visibility:visible" visibility="hidden"/><path d="m461.572 598.52-104.708 60.527M369.466 550.184l.49-54.1M370.16 464.032l.095-5.725M371.467 429.115l.028-11.821" style="fill:none;stroke:red;stroke-width:.995997;stroke-linecap:round;stroke-linejoin:round;stroke-miterlimit:500;stroke-dasharray:none;stroke-opacity:1;visibility:visible" visibility="hidden"/><path d="m277.342 608.341 91.736-48.595" style="fill:none;stroke:red;stroke-width:1.59466;stroke-linecap:round;stroke-linejoin:round;stroke-miterlimit:500;stroke-dasharray:none;stroke-opacity:1;visibility:visible" visibility="hidden"/><path d="m65.387 549.844-.067-.032-.12-.101-.09-.143-.068-.184-.03-.212M64.35 539.926l-.19-.083-.143-.105-.104-.116-.057-.132-.012-.062M65.01 549.17l-.185-.081-.145-.111-.103-.111-.057-.131-.01-.065M367.652 553.899l-96.185 50.65" style="fill:none;stroke:red;stroke-width:.995997;stroke-linecap:round;stroke-linejoin:round;stroke-miterlimit:500;stroke-dasharray:none;stroke-opacity:1;visibility:visible" visibility="hidden"/><path d="m140.81 556.952 28.107 9.379M191.044 573.71l52.578 17.539" style="fill:none;stroke:red;stroke-width:1.59466;stroke-linecap:round;stroke-linejoin:round;stroke-miterlimit:500;stroke-dasharray:none;stroke-opacity:1;visibility:visible" visibility="hidden"/><path d="m371.388 550.139 4.206-2.472M375.934 547.206l-.012.084-.063.138-.112.128-.155.112" style="fill:none;stroke:red;stroke-width:.995997;stroke-linecap:round;stroke-linejoin:round;stroke-miterlimit:500;stroke-dasharray:none;stroke-opacity:1;visibility:visible" visibility="hidden"/><path d="m354.17 408.953.842 14.32M356.036 440.68l.12 2.014M353.99 488.278l-.198 26.784M353.655 533.712l-.067 8.959" style="fill:none;stroke:red;stroke-width:1.59466;stroke-linecap:round;stroke-linejoin:round;stroke-miterlimit:500;stroke-dasharray:none;stroke-opacity:1;visibility:visible" visibility="hidden"/><path d="m364.74 411.02-.014.062.14.216.29.181M371.388 550.139l-.198.09-.226.074-.25.047-.262.02-.269-.006-.261-.034-.242-.062-.214-.085M376.956 413.603l.164-.103.114-.123.06-.127.013-.129-.047-.131-.098-.124-.14-.112-.192-.096M372.604 415.92l4.351-2.316M370.372 414.075l.471.146.537.077.562-.008.53-.076.454-.156.341-.21.19-.246M369.744 413.358l.051.264.217.248.362.204M359.175 409.302l.468.145.535.075.558-.004.527-.077.459-.156.337-.207.191-.247.033-.264M358.608 408.855l.21.246.358.202" style="fill:none;stroke:red;stroke-width:.995997;stroke-linecap:round;stroke-linejoin:round;stroke-miterlimit:500;stroke-dasharray:none;stroke-opacity:1;visibility:visible" visibility="hidden"/><path d="m365.154 411.48.404.116.468.041.466-.04.398-.123.28-.179.122-.217-.049-.221-.219-.202-.35-.149-.204-.037" style="fill:none;stroke:red;stroke-width:.995997;stroke-linecap:round;stroke-linejoin:round;stroke-miterlimit:500;stroke-dasharray:none;stroke-opacity:1;visibility:visible" visibility="hidden"/><path d="m354.17 408.953 3.225-1.695M368.968 409.154l-2.238-.908M364.408 407.302l-1.5-.605M373.84 411.907l.307-.024.297-.05.28-.07M377.286 412.875l-2.564-1.113" style="fill:none;stroke:red;stroke-width:1.59466;stroke-linecap:round;stroke-linejoin:round;stroke-miterlimit:500;stroke-dasharray:none;stroke-opacity:1;visibility:visible" visibility="hidden"/><path d="m352.076 544.696-.002.599M352.95 543.003l.637-.399M505.536 627.195l.008.22.037.19.079.152.1.106.13.061.15.008.163-.045.092-.044M514.861 611.601l-.028-.117-.072-.15-.1-.108-.128-.061-.146-.014-.167.042-.17.091M370.611 415.969l.225.081.251.055.27.032.275.005.275-.02.257-.042.236-.07.204-.087M370.611 415.969l-16.44-7.015" style="fill:none;stroke:red;stroke-width:.995997;stroke-linecap:round;stroke-linejoin:round;stroke-miterlimit:500;stroke-dasharray:none;stroke-opacity:1;visibility:visible" visibility="hidden"/><path d="m515.035 612.63-.456 9.49M514.581 622.119l-.011.081-.019.085-.034.085-.037.083-.047.08-.052.068-.056.062-.057.045M514.267 622.708l-7.114 4.653" style="fill:none;stroke:red;stroke-width:1.59466;stroke-linecap:round;stroke-linejoin:round;stroke-miterlimit:500;stroke-dasharray:none;stroke-opacity:1;visibility:visible" visibility="hidden"/><path d="m506.917 615.915-.177.138-.17.175-.161.212-.138.233-.121.255-.091.262-.06.254-.03.246M352.076 543.666 505.97 616.66M352.95 543.003l-.168.13-.166.165-.15.2-.134.222-.105.247-.084.248-.052.248-.015.232M505.97 617.69l-.435 9.504M514.05 611.283l-7.134 4.632M462.483 599.18l-.013-.21-.038-.223-.08-.224-.1-.223-.13-.207-.15-.193-.169-.17-.18-.136-.187-.107M462.296 604.69l.187-5.508M461.435 597.487l-8.665-4.088M461.956 605.37l.136-.11.106-.155.068-.194.03-.222M452.772 593.399l-.192-.073-.18-.029-.173.006-.157.045-.071.034M368.115 552.695l-15.883-7.481M369.08 559.744l-.02.196-.05.169-.074.152-.102.117-.099.066" style="fill:none;stroke:red;stroke-width:.995997;stroke-linecap:round;stroke-linejoin:round;stroke-miterlimit:500;stroke-dasharray:none;stroke-opacity:1;visibility:visible" visibility="hidden"/><path d="m266.717 589.586 85.517-44.374" style="fill:none;stroke:red;stroke-width:1.59466;stroke-linecap:round;stroke-linejoin:round;stroke-miterlimit:500;stroke-dasharray:none;stroke-opacity:1;visibility:visible" visibility="hidden"/><path d="m266.87 605.652-.025.139-.072.149-.128.135-.175.125M368.115 552.695l.176.105.17.132.163.16.139.186.128.204.099.212.077.22.044.215.013.209M369.08 559.744l.041-5.402" style="fill:none;stroke:red;stroke-width:.995997;stroke-linecap:round;stroke-linejoin:round;stroke-miterlimit:500;stroke-dasharray:none;stroke-opacity:1;visibility:visible" visibility="hidden"/><path d="m240.874 483.844 2.91 116.873" style="fill:none;stroke:red;stroke-width:1.59466;stroke-linecap:round;stroke-linejoin:round;stroke-miterlimit:500;stroke-dasharray:none;stroke-opacity:1;visibility:visible" visibility="hidden"/><path d="m261.855 608.9 4.618-2.7M257.397 606.612l.217.128.144.113M252.462 489.306l2.572 117.183M255.034 606.488l.288-.084.301-.056.323-.028.32.003.31.027.304.062.273.09.241.112M243.786 600.719l11.25 5.77" style="fill:none;stroke:red;stroke-width:.995997;stroke-linecap:round;stroke-linejoin:round;stroke-miterlimit:500;stroke-dasharray:none;stroke-opacity:1;visibility:visible" visibility="hidden"/><path d="m255.286 490.635 2.487 117.261" style="fill:none;stroke:red;stroke-width:1.32933;stroke-linecap:round;stroke-linejoin:round;stroke-miterlimit:500;stroke-dasharray:none;stroke-opacity:1;visibility:visible" visibility="hidden"/><path d="m264.258 489.02.18-.119.127-.129.08-.141.024-.145-.036-.144-.087-.136-.144-.124-.185-.11M259.493 491.587l4.765-2.567M257.406 491.638l.228.085.256.064.277.037.29.008.289-.022.275-.048.249-.076.221-.098M257.406 491.638l-2.123-1.003M254.898 489.422l.225.117.182.135.13.156.082.16.023.166-.03.166-.085.16-.139.152M252.462 489.306l.296-.08.316-.054.33-.025.329.003.324.025.308.059.282.084.251.106M257.331 489.54l.479.161.555.085.585-.003.564-.092.49-.168.37-.232.228-.279.052-.292M256.742 488.742l.03.296.204.272.354.23M246.073 484.24l.472.161.552.085.588-.006.561-.089.487-.168.372-.23.225-.276M245.634 483.162l-.143.288.031.29.196.274.353.225M252.117 486.654l.413.13.484.047.488-.047.427-.13.313-.199.148-.243-.032-.246-.208-.224-.353-.164-.295-.056M251.733 486.123l-.026.093.123.24.285.197M258.61 492.028l2.36 116.872M261.855 608.9l-.212.101-.249.082-.264.05-.28.019-.279-.004-.268-.041-.249-.064-.22-.093M257.773 607.895l2.061 1.054" style="fill:none;stroke:red;stroke-width:.995997;stroke-linecap:round;stroke-linejoin:round;stroke-miterlimit:500;stroke-dasharray:none;stroke-opacity:1;visibility:visible" visibility="hidden"/><path d="m240.874 483.844 4.173-2.218M264.546 488.203l-3.503-1.717M256.255 484.24l-1.982-.933M251.313 481.922l-1.676-.784" style="fill:none;stroke:red;stroke-width:1.59466;stroke-linecap:round;stroke-linejoin:round;stroke-miterlimit:500;stroke-dasharray:none;stroke-opacity:1;visibility:visible" visibility="hidden"/><path d="m88.893 543.738-.339.186-.424.118-.466.048-.45-.04-.242-.064M71.972 538.963l14.998 5.023M91.621 541.671l-2.73 2.068M81.577 430.08l3.216-1.806M84.793 428.273l.188-.19.055-.197-.09-.193-.214-.154-.187-.072M91.868 541.163l.022.115-.108.24-.162.154M71.972 538.963l-.31-.15-.19-.208-.019-.105M252.462 489.306l-11.59-5.459M188.24 576.976l-.33.199-.43.127-.474.048-.46-.044-.258-.063M170.54 571.968l15.75 5.278M190.892 574.812l-2.648 2.166M191.114 574.318l.024.084-.096.252-.15.16M170.54 571.968l-.33-.158-.206-.215-.04-.15" style="fill:none;stroke:red;stroke-width:.995997;stroke-linecap:round;stroke-linejoin:round;stroke-miterlimit:500;stroke-dasharray:none;stroke-opacity:1;visibility:visible" visibility="hidden"/><path d="m80.73 431.318-.256 6.772-.158 7.696-.056 7.617.038 7.543.135 7.457.235 7.372.328 7.285.426 7.188.52 7.092.612 6.994.706 6.892.802 6.781.888 6.677.98 6.566L87 537.7l1.157 6.331M137.96 560.156l-.335.19-.425.123-.472.047-.456-.042-.248-.064M120.657 555.267l15.365 5.143M140.652 558.039l-2.69 2.119M140.886 557.538l.024.1-.105.248-.155.154M120.657 555.267l-.321-.157-.2-.207-.023-.128M182.94 462.317l-.415 7.145-.323 7.838-.226 7.763-.127 7.679-.036 7.59.06 7.501.153 7.407.248 7.31.338 7.209.428 7.105.524 6.996.613 6.884.7 6.774.79 6.656.876 6.534.963 6.416M219.438 597.095l5.628 1.842 5.534 1.943 5.431 2.036 5.334 2.132 5.221 2.228 5.107 2.324 4.993 2.415 4.872 2.505M64.35 539.926l155.087 57.169" style="fill:none;stroke:red;stroke-width:.995997;stroke-linecap:round;stroke-linejoin:round;stroke-miterlimit:500;stroke-dasharray:none;stroke-opacity:1;visibility:visible" visibility="hidden"/><path d="m136.466 560.41-1.133-6.803-1.032-6.943-.932-7.073-.833-7.201-.73-7.326-.626-7.45-.52-7.566-.414-7.68-.308-7.791-.2-7.897-.094-7.998.02-8.096.128-8.188.233-8.275.35-8.357" style="fill:none;stroke:red;stroke-width:.995997;stroke-linecap:round;stroke-linejoin:round;stroke-miterlimit:500;stroke-dasharray:none;stroke-opacity:1;visibility:visible" visibility="hidden"/><path d="m390.707 692.973-.1.439-.268.312" style="fill:none;stroke:red;stroke-width:1.59466;stroke-linecap:round;stroke-linejoin:round;stroke-miterlimit:500;stroke-dasharray:none;stroke-opacity:1;visibility:visible" visibility="hidden"/><path d="m390.442 682.701.058-.034M390.5 682.664l.264-.19.102-.176-.026-.039" style="fill:none;stroke:red;stroke-width:.995997;stroke-linecap:round;stroke-linejoin:round;stroke-miterlimit:500;stroke-dasharray:none;stroke-opacity:1;visibility:visible" visibility="hidden"/><path d="m390.339 693.724-.061.04M390.279 693.765l-7.801 5.075" style="fill:none;stroke:red;stroke-width:1.59466;stroke-linecap:round;stroke-linejoin:round;stroke-miterlimit:500;stroke-dasharray:none;stroke-opacity:1;visibility:visible" visibility="hidden"/><path d="m261.56 614.52 120.066 73.877M382.615 687.755l7.828-5.055M382.479 698.839l-.427.253M381.508 698.253l.032.235.107.224.17.203.233.18M381.628 688.396l-.12 9.857M388.803 478.4l.335-.066.148.061M389.363 478.426l.015.042" style="fill:none;stroke:red;stroke-width:.995997;stroke-linecap:round;stroke-linejoin:round;stroke-miterlimit:500;stroke-dasharray:none;stroke-opacity:1;visibility:visible" visibility="hidden"/><path d="m514.601 611.19-138.64-65.274M375.934 547.206l.525-48.436M376.698 467.191l.201-12.314M377.115 426.16l.195-12.99" style="fill:none;stroke:red;stroke-width:1.59466;stroke-linecap:round;stroke-linejoin:round;stroke-miterlimit:500;stroke-dasharray:none;stroke-opacity:1;visibility:visible" visibility="hidden"/><path d="m515.028 612.535-.165-.932" style="fill:none;stroke:red;stroke-width:.995997;stroke-linecap:round;stroke-linejoin:round;stroke-miterlimit:500;stroke-dasharray:none;stroke-opacity:1;visibility:visible" visibility="hidden"/><path d="m366.826 561.502 76.47 36.558M460.51 606.25l45.304 21.643" style="fill:none;stroke:red;stroke-width:1.59466;stroke-linecap:round;stroke-linejoin:round;stroke-miterlimit:500;stroke-dasharray:none;stroke-opacity:1;visibility:visible" visibility="hidden"/><path d="m506.296 627.843.834-.467" style="fill:none;stroke:red;stroke-width:.995997;stroke-linecap:round;stroke-linejoin:round;stroke-miterlimit:500;stroke-dasharray:none;stroke-opacity:1;visibility:visible" visibility="hidden"/><path d="m273.405 605.715-6.568-3.347M65.387 549.844l154.663 57.417M64.384 538.252l-.13.108-.112.126-.099.134-.077.156-.061.154-.044.165-.016.167.002.168M63.847 539.428l.663 9.244M70.352 533.811l-5.968 4.443M140.906 557.534l-.425-2.464-.972-6.022-.893-6.128-.811-6.233-.736-6.34-.65-6.437-.574-6.534-.487-6.625-.404-6.723-.32-6.81-.237-6.89-.152-6.981-.065-7.059.02-7.134.105-7.21.195-7.278.28-7.346.2-4.206M113.542 440.353l-.264 3.494-.4 4.05-.484 3.981-.57 3.899-.652 3.837-.743 3.763-.735 3.291M109.706 466.674l-.03.124-.64 3.06-.504 3.1-.359 3.116-.223 3.136-.09 3.171.046 3.145M107.9 485.528l.138 3.672.327 6.91.412 6.826.499 6.731.201 2.408M109.488 512.075l.03.456.349 3.081.483 3.098.615 3.09.745 3.078.867 3.084.875 2.696M113.44 530.655l.244.71 1.222 3.746 1.13 3.675 1.046 3.617.958 3.553.869 3.495.79 3.432.394 1.896M191.136 574.312l-.387-2.472-.879-6.062-.802-6.17-.722-6.281-.638-6.381-.566-6.484-.48-6.583-.4-6.683-.317-6.774-.235-6.867-.152-6.95-.068-7.039.018-7.122.102-7.198.182-7.277.388-7.346.357-7.418.243-3.7M164.84 456.085l-.306 3.533-.448 4.084-.538 4.016-.623 3.938-.715 3.864-.798 3.792-.794 3.315M160.632 482.63l-.032.12-.696 3.086-.55 3.126-.412 3.142-.27 3.16-.127 3.198.003 3.186M158.545 501.647l.09 3.701.245 6.967.328 6.883.412 6.789.169 2.421M159.798 528.408l.026.447.312 3.112.448 3.119.576 3.116.714 3.097.843 3.115.857 2.736M163.56 547.15l.24.717 1.188 3.777 1.098 3.703 1.007 3.643.921 3.58.827 3.514.739 3.458.37 1.908M91.89 541.159l-.469-2.45-1.055-5.985-.984-6.089-.898-6.19-.819-6.29-.735-6.392-.66-6.483-.569-6.576-.487-6.666-.404-6.754-.317-6.834-.232-6.92-.147-6.998-.057-7.071.033-7.141.116-7.213.206-7.277.156-4.16M63.516 425.006l-.232 3.46-.35 4.014-.438 3.946-.511 3.868-.601 3.803-.679 3.736-.682 3.267M60.033 451.107l-.028.127-.59 3.039-.452 3.073-.315 3.092-.184 3.106-.047 3.15.083 3.108M58.495 469.802l.18 3.637.407 6.856.491 6.767.587 6.682.228 2.387M60.399 496.132l.037.464.387 3.058.522 3.074.643 3.066.768 3.048.901 3.061.886 2.655M64.53 514.555l.25.704 1.25 3.716 1.163 3.648 1.079 3.59.996 3.53.912 3.465.834 3.412.42 1.886M266.87 605.652l-2.2-117.154M362.238 663.41l99.717-58.04M451.999 593.381l-104.883 60.148" style="fill:none;stroke:red;stroke-width:1.59466;stroke-linecap:round;stroke-linejoin:round;stroke-miterlimit:500;stroke-dasharray:none;stroke-opacity:1;visibility:visible" visibility="hidden"/><path d="m273.533 605.79-.018-.012-.012-.008-.017-.01-.017-.007-.016-.01-.015-.01-.017-.008-.018-.01" style="fill:none;stroke:red;stroke-width:.995997;stroke-linecap:round;stroke-linejoin:round;stroke-miterlimit:500;stroke-dasharray:none;stroke-opacity:1;visibility:visible" visibility="hidden"/><path d="M390.523 681.657 273.534 605.79M390.712 692.973l.155-10.663M220.065 607.265l2.275.735 4.822 1.624 4.748 1.703 4.672 1.77 4.596 1.84 4.51 1.92 4.432 1.977 4.346 2.054 4.256 2.125 3.37 1.764M118.912 549.348l-27.184-9.065" style="fill:none;stroke:red;stroke-width:1.59466;stroke-linecap:round;stroke-linejoin:round;stroke-miterlimit:500;stroke-dasharray:none;stroke-opacity:1;visibility:visible" visibility="hidden"/><path d="m390.856 682.256-.288-.541" style="fill:none;stroke:red;stroke-width:.995997;stroke-linecap:round;stroke-linejoin:round;stroke-miterlimit:500;stroke-dasharray:none;stroke-opacity:1;visibility:visible" visibility="hidden"/><path d="m262.062 624.755 119.986 74.334" style="fill:none;stroke:red;stroke-width:1.59466;stroke-linecap:round;stroke-linejoin:round;stroke-miterlimit:500;stroke-dasharray:none;stroke-opacity:1;visibility:visible" visibility="hidden"/><path d="m353.995 542.844 15.159 7.18" style="fill:none;stroke:red;stroke-width:.995997;stroke-linecap:round;stroke-linejoin:round;stroke-miterlimit:500;stroke-dasharray:none;stroke-opacity:1;visibility:visible" visibility="hidden"/><path d="m63.392 424.635 3.72-2.59M71.3 423.349l.652.2M75.454 424.642l.72.223M81.232 426.44l1.732.54 1.578.486" style="fill:none;stroke:red;stroke-width:1.59466;stroke-linecap:round;stroke-linejoin:round;stroke-miterlimit:500;stroke-dasharray:none;stroke-opacity:1;visibility:visible" visibility="hidden"/><path d="m79.106 430.642.422.085.474.008.471-.07.424-.145.235-.13M63.627 425.611l15.477 5.03" style="fill:none;stroke:red;stroke-width:.995997;stroke-linecap:round;stroke-linejoin:round;stroke-miterlimit:500;stroke-dasharray:none;stroke-opacity:1;visibility:visible" visibility="hidden"/><path d="m74.253 426.611.06-.077.005-.164-.117-.147-.221-.11" style="fill:none;stroke:red;stroke-width:.663998;stroke-linecap:round;stroke-linejoin:round;stroke-miterlimit:500;stroke-dasharray:none;stroke-opacity:1;visibility:visible" visibility="hidden"/><path d="m72.652 426.318-.078.062-.062.167.056.156.17.138.266.079.321.03.333-.032.303-.088.225-.136.067-.084M175.72 457.447l-.3-.056h-.33l-.325.061-.268.116-.104.083M174.394 457.653l-.077.06-.063.169.056.156.17.137.267.08.321.03.332-.033.304-.087.225-.136.065-.083M175.997 457.943l.059-.077.004-.164-.116-.147-.222-.11M124.43 441.595l-.3-.055h-.33l-.326.062-.269.115-.103.083M123.104 441.8l-.078.063-.062.166.056.156.169.137.265.08.322.03.334-.033.302-.089.226-.135.067-.082M124.706 442.091l.059-.077.007-.164-.119-.145-.221-.11" style="fill:none;stroke:red;stroke-width:.663998;stroke-linecap:round;stroke-linejoin:round;stroke-miterlimit:500;stroke-dasharray:none;stroke-opacity:1;visibility:visible" visibility="hidden"/><path d="m73.978 426.114-.3-.056h-.331l-.325.062-.269.115-.103.085" style="fill:none;stroke:red;stroke-width:.663998;stroke-linecap:round;stroke-linejoin:round;stroke-miterlimit:500;stroke-dasharray:none;stroke-opacity:1;visibility:visible" visibility="hidden"/><path d="m165.102 455.845 3.534-2.445M174.14 455.038l3.84 1.137M183.766 457.895l.814.242 1.669.536M186.59 459.711l.214-.238.054-.255-.113-.248-.267-.196-.23-.099" style="fill:none;stroke:red;stroke-width:1.59466;stroke-linecap:round;stroke-linejoin:round;stroke-miterlimit:500;stroke-dasharray:none;stroke-opacity:1;visibility:visible" visibility="hidden"/><path d="m181.682 462.154.44.09.483.009.481-.071.419-.155.233-.137M165.422 456.871l16.259 5.284M183.738 461.886l2.852-2.176" style="fill:none;stroke:red;stroke-width:.995997;stroke-linecap:round;stroke-linejoin:round;stroke-miterlimit:500;stroke-dasharray:none;stroke-opacity:1;visibility:visible" visibility="hidden"/><path d="m113.7 439.742 3.18-2.427M121.752 438.731l4.228 1.232M131.373 441.533l1.24.36 1.712.546M134.617 443.427l.22-.227.065-.246-.102-.234-.258-.191-.22-.09" style="fill:none;stroke:red;stroke-width:1.59466;stroke-linecap:round;stroke-linejoin:round;stroke-miterlimit:500;stroke-dasharray:none;stroke-opacity:1;visibility:visible" visibility="hidden"/><path d="m129.709 445.755.424.086.477.009.471-.069.419-.145.232-.133M113.973 440.72l15.737 5.035M131.733 445.5l2.884-2.072" style="fill:none;stroke:red;stroke-width:.995997;stroke-linecap:round;stroke-linejoin:round;stroke-miterlimit:500;stroke-dasharray:none;stroke-opacity:1;visibility:visible" visibility="hidden"/><path d="m67.604 419.994 1.245 4.976M67.63 424.6l-.194.16M67.437 424.76l-.14.117-.123.308.104.295.322.243.486.162.6.05.618-.064.561-.161.425-.252.124-.156M70.417 425.302l.11-.14.006-.307-.217-.273-.416-.207" style="fill:none;stroke:red;stroke-width:.663998;stroke-linecap:round;stroke-linejoin:round;stroke-miterlimit:500;stroke-dasharray:none;stroke-opacity:1;visibility:visible" visibility="hidden"/><path d="M69.257 419.331a1.704 1.704 0 0 0-1.103.032M69.91 419.978l.144 4.87M67.541 420.047l.144 4.863M69.52 419.489l.33.346M67.902 419.54l-.308.361M69.91 419.978a.21.21 0 0 0-.064-.143M67.593 419.902a.21.21 0 0 0 .019.297" style="fill:none;stroke:red;stroke-width:.995997;stroke-linecap:round;stroke-linejoin:round;stroke-miterlimit:2;stroke-dasharray:none;stroke-opacity:1;visibility:visible" visibility="hidden"/><path d="m77.346 422.915 1.246 4.978M77.373 427.522l-.195.16M77.181 427.682l-.14.117-.123.311.103.292.324.244.485.161.6.05.618-.063.561-.161.425-.251.124-.156M80.16 428.225l.11-.142.005-.306-.217-.274-.414-.206" style="fill:none;stroke:red;stroke-width:.663998;stroke-linecap:round;stroke-linejoin:round;stroke-miterlimit:500;stroke-dasharray:none;stroke-opacity:1;visibility:visible" visibility="hidden"/><path d="M79 422.254a1.712 1.712 0 0 0-1.103.032M79.653 422.902l.144 4.87M77.284 422.969l.144 4.86M79.262 422.411l.331.347M77.645 422.462l-.308.363M79.653 422.902a.221.221 0 0 0-.063-.144M77.336 422.825a.213.213 0 0 0 .018.298" style="fill:none;stroke:red;stroke-width:.995997;stroke-linecap:round;stroke-linejoin:round;stroke-miterlimit:2;stroke-dasharray:none;stroke-opacity:1;visibility:visible" visibility="hidden"/><path d="m117.877 435.062 1.245 4.977M117.904 439.667l-.195.16M117.71 439.827l-.14.118-.122.308.104.296.322.24.486.165.6.049.617-.063.561-.162.426-.252.124-.156M120.69 440.37l.11-.141.008-.306-.219-.273-.415-.208" style="fill:none;stroke:red;stroke-width:.663998;stroke-linecap:round;stroke-linejoin:round;stroke-miterlimit:500;stroke-dasharray:none;stroke-opacity:1;visibility:visible" visibility="hidden"/><path d="M119.53 434.4a1.707 1.707 0 0 0-1.102.032M120.184 435.047l.144 4.87M117.814 435.115l.144 4.862M119.792 434.558l.33.345M118.176 434.609l-.308.36M120.184 435.047a.224.224 0 0 0-.064-.144M117.866 434.971a.21.21 0 0 0 .019.299" style="fill:none;stroke:red;stroke-width:.995997;stroke-linecap:round;stroke-linejoin:round;stroke-miterlimit:2;stroke-dasharray:none;stroke-opacity:1;visibility:visible" visibility="hidden"/><path d="m127.62 437.985 1.245 4.977M127.648 442.59l-.195.16M127.453 442.75l-.14.119-.123.306.103.296.324.243.485.161.6.05.618-.062.56-.163.426-.251.124-.156M130.433 443.293l.108-.14.008-.307-.217-.272-.415-.208" style="fill:none;stroke:red;stroke-width:.663998;stroke-linecap:round;stroke-linejoin:round;stroke-miterlimit:500;stroke-dasharray:none;stroke-opacity:1;visibility:visible" visibility="hidden"/><path d="M129.273 437.323a1.712 1.712 0 0 0-1.103.032M129.928 437.969l.144 4.869M127.557 438.04l.144 4.86M129.536 437.482l.329.345M127.918 437.531l-.308.363M129.928 437.969a.225.225 0 0 0-.064-.143M127.609 437.894a.21.21 0 0 0 .019.296" style="fill:none;stroke:red;stroke-width:.995997;stroke-linecap:round;stroke-linejoin:round;stroke-miterlimit:2;stroke-dasharray:none;stroke-opacity:1;visibility:visible" visibility="hidden"/><path d="m169.78 451.337 1.246 4.977M169.809 455.942l-.195.16M169.613 456.102l-.14.118-.121.307.102.295.323.244.488.161.595.05.62-.062.56-.162.43-.253.12-.156M172.593 456.643l.11-.14.007-.306-.216-.274-.417-.206" style="fill:none;stroke:red;stroke-width:.663998;stroke-linecap:round;stroke-linejoin:round;stroke-miterlimit:500;stroke-dasharray:none;stroke-opacity:1;visibility:visible" visibility="hidden"/><path d="M171.433 450.675a1.696 1.696 0 0 0-1.101.032M172.089 451.32l.143 4.87M169.72 451.389l.145 4.86M171.697 450.831l.33.347M170.08 450.882l-.308.363M172.089 451.32a.236.236 0 0 0-.061-.141M169.77 451.245a.21.21 0 0 0-.05.144.219.219 0 0 0 .069.153" style="fill:none;stroke:red;stroke-width:.995997;stroke-linecap:round;stroke-linejoin:round;stroke-miterlimit:2;stroke-dasharray:none;stroke-opacity:1;visibility:visible" visibility="hidden"/><path d="m179.524 454.258 1.246 4.977M179.552 458.863l-.195.16M179.358 459.023l-.141.119-.121.308.102.293.323.244.488.161.597.052.618-.066.56-.16.43-.25.12-.158M182.337 459.567l.11-.141.006-.307-.216-.273-.417-.207" style="fill:none;stroke:red;stroke-width:.663998;stroke-linecap:round;stroke-linejoin:round;stroke-miterlimit:500;stroke-dasharray:none;stroke-opacity:1;visibility:visible" visibility="hidden"/><path d="M181.176 453.595a1.696 1.696 0 0 0-1.102.032M181.83 454.246l.144 4.868M179.46 454.311l.149 4.862M181.44 453.754l.332.346M179.822 453.805l-.308.362M181.83 454.246a.232.232 0 0 0-.06-.146M179.513 454.169a.212.212 0 0 0 .019.297" style="fill:none;stroke:red;stroke-width:.995997;stroke-linecap:round;stroke-linejoin:round;stroke-miterlimit:2;stroke-dasharray:none;stroke-opacity:1;visibility:visible" visibility="hidden"/><path d="M358.755 521.155a.373.373 0 0 0-.363-.424M358.755 521.155l-.085 8.453M358.296 530.278a.841.841 0 0 0 .371-.671M354.108 527.427l.047-6.45M357.58 520.822c.211.006.426-.016.635-.063M358.22 520.76l.172-.03M349.924 520.678a6.273 6.273 0 0 0-2.038.277M346.666 530.388l11.63-.112M358.2 530.086l-4.093-2.47M354.108 527.616l-7.444 2.774M346.666 530.388l.03-8.473M347.2 521.182a.81.81 0 0 0-.504.734M347.2 521.182l.683-.227M349.924 520.678l7.656.144M350.295 526.39l.485-.244.446-.383.37-.49.271-.561.137-.58.004-.562-.134-.49-.26-.382-.364-.246-.444-.081-.486.08-.489.244-.45.383-.371.49-.267.564-.141.583-.003.563.135.49.262.383.371.241.444.082.484-.084M346.787 530.275v.004M354.862 517.515a1.25 1.25 0 0 0-.99-.09M358.2 531.042l.121-.04M358.322 531a1.51 1.51 0 0 0 .95-1.386M357.486 531.144c.242.01.481-.026.712-.101M349.874 531a6.31 6.31 0 0 0-2.13.3M346.82 531.615l.925-.316M345.095 530.258a1.24 1.24 0 0 0 .62 1.084M359.307 525.986a11.54 11.54 0 0 0 .005-1.923M345.715 531.342l.38.218M346.108 531.554a.808.808 0 0 0 .708.062M359.271 529.615l.037-3.684M359.327 524.282l.036-3.682M349.874 531l7.613.144M358.922 519.744l-4.063-2.23M359.364 520.602a.833.833 0 0 0-.458-.846M353.872 517.423l-7.889 2.61M345.12 521.227l-.028 9.03M345.986 520.032a1.259 1.259 0 0 0-.863 1.192M359.791 428.538a.373.373 0 0 0-.361-.424M359.791 428.538l-.084 8.452M359.332 437.66a.834.834 0 0 0 .371-.668M355.146 434.809l.048-6.451M358.616 428.206a2.56 2.56 0 0 0 .638-.063M359.255 428.142l.175-.03M350.96 428.062a6.281 6.281 0 0 0-2.04.277M347.703 437.773l11.63-.113M359.236 437.47l-4.092-2.47M355.146 435l-7.443 2.772M347.703 437.773l.03-8.473M348.235 428.566a.807.807 0 0 0-.499.734M348.235 428.566l.685-.227M350.96 428.062l7.658.144M351.332 433.774l.484-.244.447-.383.37-.49.271-.56.138-.58.005-.563-.136-.49-.26-.381-.365-.246-.444-.082-.486.08-.488.245-.448.382-.373.49-.267.566-.14.581-.002.563.132.49.264.384.372.241.444.08.482-.082M347.826 437.66v.002M355.898 424.9a1.244 1.244 0 0 0-.988-.092M359.236 438.425l.124-.04M359.36 438.383c.566-.228.941-.773.95-1.386M358.522 438.529a2.06 2.06 0 0 0 .713-.102M350.908 438.383a6.307 6.307 0 0 0-2.128.299M347.856 439l.926-.318M346.131 437.64a1.245 1.245 0 0 0 .623 1.086M360.346 433.37c.054-.64.056-1.287.006-1.924M346.752 438.729l.38.217M347.146 438.938a.808.808 0 0 0 .708.062M360.31 437l.036-3.686M360.364 431.665l.036-3.682M350.908 438.383l7.614.144M359.956 427.129l-4.06-2.231M360.402 427.985a.835.835 0 0 0-.459-.846M354.911 424.807l-7.89 2.61M346.16 428.61l-.03 9.03M347.022 427.417a1.259 1.259 0 0 0-.863 1.192" style="fill:none;stroke:red;stroke-width:.995997;stroke-linecap:round;stroke-linejoin:round;stroke-miterlimit:10;stroke-dasharray:none;stroke-opacity:1;visibility:visible" visibility="hidden"/><path d="m451.999 593.382 7.691 5.138M370.255 458.307l-1.977 5.725M370.16 464.032l-1.784-5.725M360.4 427.983l9.186 1.132M370.059 413.897l-.445 3.397" style="fill:none;stroke:red;stroke-width:.995997;stroke-linecap:round;stroke-linejoin:round;stroke-miterlimit:500;stroke-dasharray:none;stroke-opacity:1;visibility:visible" visibility="hidden"/><path d="m266.473 606.2 8.987 2.141" style="fill:none;stroke:red;stroke-width:1.59466;stroke-linecap:round;stroke-linejoin:round;stroke-miterlimit:500;stroke-dasharray:none;stroke-opacity:1;visibility:visible" visibility="hidden"/><path d="m369.506 550.139-3.734 3.76M266.473 606.2l3.114-1.651" style="fill:none;stroke:red;stroke-width:.995997;stroke-linecap:round;stroke-linejoin:round;stroke-miterlimit:500;stroke-dasharray:none;stroke-opacity:1;visibility:visible" visibility="hidden"/><path d="m168.658 571.968-1.624-5.637M353.311 428.358l-.18-5.085M356.156 442.694l-2.002-2.014M356.036 440.68l-1.764 2.014M352.274 520.977l-.363-5.915M346.787 530.279l4.985 3.433M354.17 408.953l1.344-1.695M364.408 407.302l.439.944M364.408 407.302l-3.384-.605" style="fill:none;stroke:red;stroke-width:1.59466;stroke-linecap:round;stroke-linejoin:round;stroke-miterlimit:500;stroke-dasharray:none;stroke-opacity:1;visibility:visible" visibility="hidden"/><path d="m346.095 531.56 4.1 12.106" style="fill:none;stroke:red;stroke-width:.995997;stroke-linecap:round;stroke-linejoin:round;stroke-miterlimit:500;stroke-dasharray:none;stroke-opacity:1;visibility:visible" visibility="hidden"/><path d="m264.59 606.2.244-16.614M240.874 483.844l2.291-2.218M256.255 484.24l2.908 2.246M251.313 481.922l1.077 1.385M251.313 481.922l-3.558-.784" style="fill:none;stroke:red;stroke-width:1.59466;stroke-linecap:round;stroke-linejoin:round;stroke-miterlimit:500;stroke-dasharray:none;stroke-opacity:1;visibility:visible" visibility="hidden"/><path d="m388.62 682.667-7.888 5.088" style="fill:none;stroke:red;stroke-width:.995997;stroke-linecap:round;stroke-linejoin:round;stroke-miterlimit:500;stroke-dasharray:none;stroke-opacity:1;visibility:visible" visibility="hidden"/><path d="m369.154 550.024 4.926-4.108M370.255 458.307l4.561 8.884M370.16 464.032l4.858-9.155M371.495 417.294l3.739 8.866M366.234 552.695l-1.288 8.807M450.888 593.399l-9.472 4.661M459.554 597.487l-.924 8.763M259.834 608.949l5.121-6.581M64.384 538.254l4.086-4.443M118.774 555.267l-1.744-5.919M65.554 424.76l-.324-2.715M71.952 423.549l-2.535-.2M71.952 423.549l1.621 1.093M75.454 424.642l-1.162.223M167.732 456.102l-.977-2.702M174.14 455.038l1.96 1.137M115.828 439.827l-.83-2.512M121.752 438.731l2.349 1.232" style="fill:none;stroke:red;stroke-width:1.59466;stroke-linecap:round;stroke-linejoin:round;stroke-miterlimit:500;stroke-dasharray:none;stroke-opacity:1;visibility:visible" visibility="hidden"/><path d="m346.696 521.916 5.578-.939M347.2 521.182l1.212 5.208M356.34 520.76l-7.928 5.63M353.131 423.273l.18 5.085M348.235 428.566l1.215 5.208M357.375 428.142l-7.925 5.633" style="fill:none;stroke:red;stroke-width:.995997;stroke-linecap:round;stroke-linejoin:round;stroke-miterlimit:10;stroke-dasharray:none;stroke-opacity:1;visibility:visible" visibility="hidden"/><path d="m451.999 593.382 9.573 5.138M368.376 458.307l1.784 5.725M368.278 464.032l1.977-5.725M360.4 427.983l11.067 1.132M371.244 413.887l.251 3.407" style="fill:none;stroke:red;stroke-width:.995997;stroke-linecap:round;stroke-linejoin:round;stroke-miterlimit:500;stroke-dasharray:none;stroke-opacity:1;visibility:visible" visibility="hidden"/><path d="m266.473 606.2 10.869 2.141" style="fill:none;stroke:red;stroke-width:1.59466;stroke-linecap:round;stroke-linejoin:round;stroke-miterlimit:500;stroke-dasharray:none;stroke-opacity:1;visibility:visible" visibility="hidden"/><path d="m266.473 606.2 4.994-1.651" style="fill:none;stroke:red;stroke-width:.995997;stroke-linecap:round;stroke-linejoin:round;stroke-miterlimit:500;stroke-dasharray:none;stroke-opacity:1;visibility:visible" visibility="hidden"/><path d="m168.658 571.968.259-5.637M355.194 428.358l-.182-5.085M354.272 442.694l1.764-2.014M354.154 440.68l2.002 2.014M354.155 520.977l-.363-5.915M356.79 529.608l-3.135 4.104M352.288 408.953l5.107-1.695M370.214 406.867l-1.246 2.287M364.847 408.246l-.439-.944M266.473 606.2l.244-16.614M238.993 483.844l6.054-2.218M262.665 488.203l-1.622-1.717M259.163 486.486l-2.908-2.246M252.39 483.307l-1.077-1.385" style="fill:none;stroke:red;stroke-width:1.59466;stroke-linecap:round;stroke-linejoin:round;stroke-miterlimit:500;stroke-dasharray:none;stroke-opacity:1;visibility:visible" visibility="hidden"/><path d="m79.797 427.772.933 3.546M388.56 682.7l-5.945 5.055" style="fill:none;stroke:red;stroke-width:.995997;stroke-linecap:round;stroke-linejoin:round;stroke-miterlimit:500;stroke-dasharray:none;stroke-opacity:1;visibility:visible" visibility="hidden"/><path d="m369.154 550.024 6.807-4.108M370.255 458.307l6.443 8.884M370.16 464.032l6.739-9.155M371.495 417.294l5.62 8.866M366.234 552.695l.592 8.807M450.888 593.399l-7.592 4.661M271.523 605.715l-4.686-3.347M62.503 538.254l7.849-4.443M118.774 555.267l.138-5.919M67.436 424.76l-.324-2.715M70.07 423.549l1.23-.2M73.573 424.642l-1.621-1.093M74.292 424.865l1.162-.223M73.573 424.642l2.601.223M82.662 427.466l-1.43-1.026M167.732 456.102l.904-2.702M176.1 456.175l-1.96-1.137M181.885 457.895l-3.905-1.72M117.709 439.827l-.829-2.512M124.101 439.963l-2.349-1.232M129.493 441.533l-3.513-1.57M132.446 442.439l-1.073-.906" style="fill:none;stroke:red;stroke-width:1.59466;stroke-linecap:round;stroke-linejoin:round;stroke-miterlimit:500;stroke-dasharray:none;stroke-opacity:1;visibility:visible" visibility="hidden"/><path d="m357.447 524.282-3.292-3.305M347.2 521.182l3.095 5.208M356.34 520.76l-6.045 5.63M358.483 431.665l-3.289-3.307M348.235 428.566l3.097 5.208M357.375 428.142l-6.043 5.633" style="fill:none;stroke:red;stroke-width:.995997;stroke-linecap:round;stroke-linejoin:round;stroke-miterlimit:10;stroke-dasharray:none;stroke-opacity:1;visibility:visible" visibility="hidden"/><path d="m263.851 408.817 101.221-65.687M463.552 381.913 352.304 458.29" style="fill:none;stroke:#00ff4a;stroke-width:.995997;stroke-linecap:round;stroke-linejoin:round;stroke-miterlimit:500;stroke-dasharray:none;stroke-opacity:1;visibility:visible"/><path d="m355.475 327.955.179-.069.17-.02.16.039M348.128 331.849l7.346-3.892" style="fill:none;stroke:#00ff4a;stroke-width:1.59466;stroke-linecap:round;stroke-linejoin:round;stroke-miterlimit:500;stroke-dasharray:none;stroke-opacity:1;visibility:visible"/><path d="m348.128 332.731 152.844 60.839M347.196 335.002l.006-1.375" style="fill:none;stroke:#00ff4a;stroke-width:.995997;stroke-linecap:round;stroke-linejoin:round;stroke-miterlimit:500;stroke-dasharray:none;stroke-opacity:1;visibility:visible"/><path d="m347.202 333.626.018-.26.054-.27.086-.266.114-.259.142-.234.16-.202.172-.165.18-.12" style="fill:none;stroke:#00ff4a;stroke-width:1.59466;stroke-linecap:round;stroke-linejoin:round;stroke-miterlimit:500;stroke-dasharray:none;stroke-opacity:1;visibility:visible"/><path d="m347.363 334.893 11.768 4.767M463.03 380.855l.199.102.195.138.179.171.159.2.134.221.112.236.08.244.042.246.012.236M464.142 382.649l-.2 6.18M453.839 377.135l9.193 3.722M463.942 388.83l-.028.223-.058.202-.094.175-.12.14-.07.06M453.026 377.189l.172-.09.197-.041.219.01.222.067" style="fill:none;stroke:#00ff4a;stroke-width:.995997;stroke-linecap:round;stroke-linejoin:round;stroke-miterlimit:500;stroke-dasharray:none;stroke-opacity:1;visibility:visible"/><path d="m347.363 334.893-96.41 61.776" style="fill:none;stroke:#00ff4a;stroke-width:1.59466;stroke-linecap:round;stroke-linejoin:round;stroke-miterlimit:500;stroke-dasharray:none;stroke-opacity:1;visibility:visible"/><path d="m359.134 339.66.08.307.114.299.146.29.181.264.2.24.227.196.233.161.237.113M256.638 405.851l102.496-66.191" style="fill:none;stroke:#00ff4a;stroke-width:.995997;stroke-linecap:round;stroke-linejoin:round;stroke-miterlimit:500;stroke-dasharray:none;stroke-opacity:1;visibility:visible"/><path d="m259.526 407.126 102.472-66.305" style="fill:none;stroke:#00ff4a;stroke-width:1.32933;stroke-linecap:round;stroke-linejoin:round;stroke-miterlimit:500;stroke-dasharray:none;stroke-opacity:1;visibility:visible"/><path d="m251.42 416.56-5.127-2.282-5.255-2.195-5.372-2.113-5.495-2.024-5.61-1.939-5.716-1.854-5.825-1.756-5.92-1.674" style="fill:none;stroke:#00ff4a;stroke-width:.995997;stroke-linecap:round;stroke-linejoin:round;stroke-miterlimit:500;stroke-dasharray:none;stroke-opacity:1;visibility:visible"/><path d="m387.275 491.731.284-.3.107-.43M387.275 491.731l-.536.38M386.93 491.92l-.194.193M386.739 492.111l-.135.076" style="fill:none;stroke:#00ff4a;stroke-width:1.59466;stroke-linecap:round;stroke-linejoin:round;stroke-miterlimit:500;stroke-dasharray:none;stroke-opacity:1;visibility:visible"/><path d="m387.812 479.068.02.018-.106.132-.284.164" style="fill:none;stroke:#00ff4a;stroke-width:.995997;stroke-linecap:round;stroke-linejoin:round;stroke-miterlimit:500;stroke-dasharray:none;stroke-opacity:1;visibility:visible"/><path d="m387.211 491.768-.604.416M386.606 492.186l-7.686 4.358" style="fill:none;stroke:#00ff4a;stroke-width:1.59466;stroke-linecap:round;stroke-linejoin:round;stroke-miterlimit:500;stroke-dasharray:none;stroke-opacity:1;visibility:visible"/><path d="m387.442 479.382-.066.03M378.922 496.544l-.19.104-.132.072-.08.026-.016-.007" style="fill:none;stroke:#00ff4a;stroke-width:.995997;stroke-linecap:round;stroke-linejoin:round;stroke-miterlimit:500;stroke-dasharray:none;stroke-opacity:1;visibility:visible"/><path d="m387.211 491.768.064-.036" style="fill:none;stroke:#00ff4a;stroke-width:1.59466;stroke-linecap:round;stroke-linejoin:round;stroke-miterlimit:500;stroke-dasharray:none;stroke-opacity:1;visibility:visible"/><path d="m70.818 350.887.366.168.216.216.042.243-.144.247-.304.219-.44.17-.529.103-.549.024-.516-.059-.436-.136M378.047 484.051 251.42 416.562M387.378 479.412l-8.286 4.66M378.503 496.74l.45-.283M378.796 484.071l-.138 12.387M51.641 350.475l156.254 50.388" style="fill:none;stroke:#00ff4a;stroke-width:.995997;stroke-linecap:round;stroke-linejoin:round;stroke-miterlimit:500;stroke-dasharray:none;stroke-opacity:1;visibility:visible"/><path d="m68.526 352.082-.298-.192-.126-.236" style="fill:none;stroke:#00ff4a;stroke-width:.995997;stroke-linecap:round;stroke-linejoin:round;stroke-miterlimit:500;stroke-dasharray:none;stroke-opacity:1;visibility:visible"/><path d="m269.589 412.326 95.22-62.048M453.026 377.189 341.919 452.85M363.471 351.19l80.287 32.532M508.277 389.069 365.415 331.66M361.346 330.042l-5.363-2.136M263.883 409.015l-12.87-5.669M246.753 401.469l-11.8-5.196M52.04 361.998l155.8 50.816M50.944 349.226l-.15.115-.138.129.029.581-.098.161-.217-.253-.047.183-.023.188v.19M50.3 350.52l.745 10.21M57.317 345.16l-6.376 4.066M51.045 360.731l.03.212.062.203.096.192.117.179.145.157.162.133.186.113.197.08M58.496 344.986l-.148-.036-.156-.017-.155-.003-.15.015-.147.028-.152.047-.138.062-.134.078" style="fill:none;stroke:#00ff4a;stroke-width:1.59466;stroke-linecap:round;stroke-linejoin:round;stroke-miterlimit:500;stroke-dasharray:none;stroke-opacity:1;visibility:visible"/><path d="m264.013 409.078-.019-.008-.013-.01-.016-.01-.019-.004-.016-.007-.015-.008-.017-.009-.019-.008" style="fill:none;stroke:#00ff4a;stroke-width:.995997;stroke-linecap:round;stroke-linejoin:round;stroke-miterlimit:500;stroke-dasharray:none;stroke-opacity:1;visibility:visible"/><path d="m387.416 478.371-123.402-69.293M387.668 491l.166-11.91M387.354 491.652l.105-.076M207.857 412.818l2.393.664 5.07 1.48 4.996 1.545 4.913 1.61 4.836 1.678 4.745 1.744 4.663 1.811 4.567 1.868 4.479 1.932.791.363M67.862 347.709l-9.367-2.723" style="fill:none;stroke:#00ff4a;stroke-width:1.59466;stroke-linecap:round;stroke-linejoin:round;stroke-miterlimit:500;stroke-dasharray:none;stroke-opacity:1;visibility:visible"/><path d="m387.826 479.066-.319-.599" style="fill:none;stroke:#00ff4a;stroke-width:.995997;stroke-linecap:round;stroke-linejoin:round;stroke-miterlimit:500;stroke-dasharray:none;stroke-opacity:1;visibility:visible"/><path d="m507.848 401.502-7.047 4.54M462.48 391.293l38.057 14.662" style="fill:none;stroke:#00ff4a;stroke-width:1.59466;stroke-linecap:round;stroke-linejoin:round;stroke-miterlimit:500;stroke-dasharray:none;stroke-opacity:1;visibility:visible"/><path d="m508.327 388.591-7.355 4.979M500.679 393.569l-.14 12.386" style="fill:none;stroke:#00ff4a;stroke-width:.995997;stroke-linecap:round;stroke-linejoin:round;stroke-miterlimit:500;stroke-dasharray:none;stroke-opacity:1;visibility:visible"/><path d="m508.112 400.974.165-11.905" style="fill:none;stroke:#00ff4a;stroke-width:1.59466;stroke-linecap:round;stroke-linejoin:round;stroke-miterlimit:500;stroke-dasharray:none;stroke-opacity:1;visibility:visible"/><path d="m265.733 408.817 101.22-65.687M465.435 381.913l-111.25 76.377" style="fill:none;stroke:#00ff4a;stroke-width:.995997;stroke-linecap:round;stroke-linejoin:round;stroke-miterlimit:500;stroke-dasharray:none;stroke-opacity:1;visibility:visible"/><path d="m357.358 327.955.178-.069.171-.02.159.039M350.01 331.849l7.344-3.892" style="fill:none;stroke:#00ff4a;stroke-width:1.59466;stroke-linecap:round;stroke-linejoin:round;stroke-miterlimit:500;stroke-dasharray:none;stroke-opacity:1;visibility:visible"/><path d="m350.01 332.731 152.843 60.839M349.078 335.002l.005-1.375" style="fill:none;stroke:#00ff4a;stroke-width:.995997;stroke-linecap:round;stroke-linejoin:round;stroke-miterlimit:500;stroke-dasharray:none;stroke-opacity:1;visibility:visible"/><path d="m349.082 333.626.02-.26.053-.27.087-.266.114-.259.14-.234.162-.202.17-.165.18-.12" style="fill:none;stroke:#00ff4a;stroke-width:1.59466;stroke-linecap:round;stroke-linejoin:round;stroke-miterlimit:500;stroke-dasharray:none;stroke-opacity:1;visibility:visible"/><path d="m349.246 334.893 11.768 4.767M464.912 380.855l.198.102.195.138.181.171.156.2.136.221.11.236.082.244.041.246.012.236M466.024 382.649l-.2 6.18M455.719 377.135l9.193 3.722M465.824 388.83l-.028.223-.056.202-.097.175-.119.14-.07.06M454.907 377.189l.172-.09.197-.041.218.01.224.067" style="fill:none;stroke:#00ff4a;stroke-width:.995997;stroke-linecap:round;stroke-linejoin:round;stroke-miterlimit:500;stroke-dasharray:none;stroke-opacity:1;visibility:visible"/><path d="m349.246 334.893-96.41 61.776" style="fill:none;stroke:#00ff4a;stroke-width:1.59466;stroke-linecap:round;stroke-linejoin:round;stroke-miterlimit:500;stroke-dasharray:none;stroke-opacity:1;visibility:visible"/><path d="m258.52 405.851 102.494-66.191" style="fill:none;stroke:#00ff4a;stroke-width:.995997;stroke-linecap:round;stroke-linejoin:round;stroke-miterlimit:500;stroke-dasharray:none;stroke-opacity:1;visibility:visible"/><path d="m261.406 407.126 102.473-66.305" style="fill:none;stroke:#00ff4a;stroke-width:1.32933;stroke-linecap:round;stroke-linejoin:round;stroke-miterlimit:500;stroke-dasharray:none;stroke-opacity:1;visibility:visible"/><path d="m253.3 416.56-5.124-2.282-5.256-2.195-5.373-2.113-5.494-2.024-5.61-1.939-5.718-1.854-5.823-1.756-5.92-1.674" style="fill:none;stroke:#00ff4a;stroke-width:.995997;stroke-linecap:round;stroke-linejoin:round;stroke-miterlimit:500;stroke-dasharray:none;stroke-opacity:1;visibility:visible"/><path d="m389.156 491.731.284-.3.107-.43M389.156 491.731l-.536.38M388.81 491.92l-.192.193M388.62 492.111l-.134.076" style="fill:none;stroke:#00ff4a;stroke-width:1.59466;stroke-linecap:round;stroke-linejoin:round;stroke-miterlimit:500;stroke-dasharray:none;stroke-opacity:1;visibility:visible"/><path d="m389.695 479.068.02.018-.107.132-.284.164" style="fill:none;stroke:#00ff4a;stroke-width:.995997;stroke-linecap:round;stroke-linejoin:round;stroke-miterlimit:500;stroke-dasharray:none;stroke-opacity:1;visibility:visible"/><path d="m389.092 491.768-.604.416M388.488 492.186l-7.685 4.358" style="fill:none;stroke:#00ff4a;stroke-width:1.59466;stroke-linecap:round;stroke-linejoin:round;stroke-miterlimit:500;stroke-dasharray:none;stroke-opacity:1;visibility:visible"/><path d="m389.323 479.382-.067.03M380.803 496.544l-.19.104-.13.072-.081.026-.016-.007" style="fill:none;stroke:#00ff4a;stroke-width:.995997;stroke-linecap:round;stroke-linejoin:round;stroke-miterlimit:500;stroke-dasharray:none;stroke-opacity:1;visibility:visible"/><path d="m389.092 491.768.064-.036" style="fill:none;stroke:#00ff4a;stroke-width:1.59466;stroke-linecap:round;stroke-linejoin:round;stroke-miterlimit:500;stroke-dasharray:none;stroke-opacity:1;visibility:visible"/><path d="m72.7 350.887.365.168.216.216.043.243-.144.247-.304.219-.442.17-.526.103-.55.024-.518-.059-.435-.136M379.928 484.051l-126.627-67.489M389.26 479.412l-8.285 4.66M380.386 496.74l.449-.283M380.68 484.071l-.14 12.387M53.523 350.475l156.254 50.388" style="fill:none;stroke:#00ff4a;stroke-width:.995997;stroke-linecap:round;stroke-linejoin:round;stroke-miterlimit:500;stroke-dasharray:none;stroke-opacity:1;visibility:visible"/><path d="m70.408 352.082-.299-.192-.127-.236" style="fill:none;stroke:#00ff4a;stroke-width:.995997;stroke-linecap:round;stroke-linejoin:round;stroke-miterlimit:500;stroke-dasharray:none;stroke-opacity:1;visibility:visible"/><path d="m271.471 412.326 95.221-62.048M360.23 462.168l105.224-72.538M454.907 377.189 343.8 452.85M365.352 351.19l80.288 32.532M510.159 389.069 367.295 331.66M363.228 330.042l-5.362-2.136M265.763 409.015l-12.87-5.669M248.634 401.469l-11.8-5.196M53.92 361.998l155.802 50.816M52.825 349.226l-.15.115-.136.129.028.581-.1.161-.215-.253-.048.183-.021.188v.19M52.181 350.52l.746 10.21M59.2 345.16l-6.376 4.066M52.927 360.731l.029.212.063.203.096.192.115.179.146.157.163.133.185.113.196.08M60.377 344.986l-.147-.036-.157-.017-.153-.003-.152.015-.148.028-.15.047-.139.062-.134.078" style="fill:none;stroke:#00ff4a;stroke-width:1.59466;stroke-linecap:round;stroke-linejoin:round;stroke-miterlimit:500;stroke-dasharray:none;stroke-opacity:1;visibility:visible"/><path d="m265.895 409.078-.018-.008-.014-.01-.016-.01-.02-.004-.014-.007-.015-.008-.019-.009-.017-.008" style="fill:none;stroke:#00ff4a;stroke-width:.995997;stroke-linecap:round;stroke-linejoin:round;stroke-miterlimit:500;stroke-dasharray:none;stroke-opacity:1;visibility:visible"/><path d="m389.298 478.371-123.403-69.293M389.55 491l.164-11.91M389.235 491.652l.107-.076M209.74 412.818l2.392.664 5.071 1.48 4.995 1.545 4.913 1.61 4.836 1.678 4.747 1.744 4.661 1.811 4.568 1.868 4.48 1.932.787.363M251.193 427.513l2.772 1.254M236.775 396.251 74.477 349.083M69.745 347.709l-9.368-2.723" style="fill:none;stroke:#00ff4a;stroke-width:1.59466;stroke-linecap:round;stroke-linejoin:round;stroke-miterlimit:500;stroke-dasharray:none;stroke-opacity:1;visibility:visible"/><path d="m389.706 479.066-.318-.599" style="fill:none;stroke:#00ff4a;stroke-width:.995997;stroke-linecap:round;stroke-linejoin:round;stroke-miterlimit:500;stroke-dasharray:none;stroke-opacity:1;visibility:visible"/><path d="m253.935 428.75 126.45 67.998M509.73 401.502l-7.048 4.54M464.363 391.293l38.057 14.662" style="fill:none;stroke:#00ff4a;stroke-width:1.59466;stroke-linecap:round;stroke-linejoin:round;stroke-miterlimit:500;stroke-dasharray:none;stroke-opacity:1;visibility:visible"/><path d="m510.208 388.591-7.355 4.979M502.559 393.569l-.14 12.386" style="fill:none;stroke:#00ff4a;stroke-width:.995997;stroke-linecap:round;stroke-linejoin:round;stroke-miterlimit:500;stroke-dasharray:none;stroke-opacity:1;visibility:visible"/><path d="m509.993 400.974.167-11.905" style="fill:none;stroke:#00ff4a;stroke-width:1.59466;stroke-linecap:round;stroke-linejoin:round;stroke-miterlimit:500;stroke-dasharray:none;stroke-opacity:1;visibility:visible"/><path d="m363.471 351.19-2.919-9.66" style="fill:none;stroke:#00ff4a;stroke-width:.995997;stroke-linecap:round;stroke-linejoin:round;stroke-miterlimit:500;stroke-dasharray:none;stroke-opacity:1;visibility:visible"/><path d="m350.01 331.849 11.988 8.972" style="fill:none;stroke:#00ff4a;stroke-width:1.32933;stroke-linecap:round;stroke-linejoin:round;stroke-miterlimit:500;stroke-dasharray:none;stroke-opacity:1;visibility:visible"/><path d="m360.552 341.53 2.919 9.66M453.839 377.135l-10.081 6.587M363.228 330.042l2.187 1.618M357.866 327.906l3.48 2.136M248.634 401.469l2.379 1.877M251.013 403.346l-4.26-1.877M248.634 401.469l-13.681-5.196M251.193 427.513h-1.883M68.524 352.082l-.662-4.373M463.032 380.857l-.552 10.436" style="fill:none;stroke:#00ff4a;stroke-width:1.59466;stroke-linecap:round;stroke-linejoin:round;stroke-miterlimit:500;stroke-dasharray:none;stroke-opacity:1;visibility:visible"/><path d="m350.01 331.849 13.869 8.972" style="fill:none;stroke:#00ff4a;stroke-width:1.32933;stroke-linecap:round;stroke-linejoin:round;stroke-miterlimit:500;stroke-dasharray:none;stroke-opacity:1;visibility:visible"/><path d="m58.496 344.986-4.973 5.489" style="fill:none;stroke:#00ff4a;stroke-width:.995997;stroke-linecap:round;stroke-linejoin:round;stroke-miterlimit:500;stroke-dasharray:none;stroke-opacity:1;visibility:visible"/><path d="m360.552 341.53 4.8 9.66M453.839 377.135l-8.199 6.587M363.228 330.042l4.067 1.618M365.415 331.66l-2.187-1.618M248.634 401.469l4.259 1.877M251.013 403.346l-2.379-1.877M69.745 347.709l4.732 1.374M70.405 352.082l-.66-4.373M464.912 380.857l-.549 10.436" style="fill:none;stroke:#00ff4a;stroke-width:1.59466;stroke-linecap:round;stroke-linejoin:round;stroke-miterlimit:500;stroke-dasharray:none;stroke-opacity:1;visibility:visible"/><path d="m378.658 496.458-10.585-.374" style="fill:none;stroke:red;stroke-width:.995997;stroke-linecap:round;stroke-linejoin:round;stroke-miterlimit:500;stroke-dasharray:none;stroke-opacity:1;visibility:visible" visibility="hidden"/><path d="m378.658 496.458-4.08 2.312" style="fill:none;stroke:red;stroke-width:1.59466;stroke-linecap:round;stroke-linejoin:round;stroke-miterlimit:500;stroke-dasharray:none;stroke-opacity:1;visibility:visible" visibility="hidden"/><path d="m378.658 496.458-8.702-.374M364.408 407.302l2.062 3.167M251.313 481.922l2.189 3.6" style="fill:none;stroke:red;stroke-width:.995997;stroke-linecap:round;stroke-linejoin:round;stroke-miterlimit:500;stroke-dasharray:none;stroke-opacity:1;visibility:visible" visibility="hidden"/><path d="m378.658 496.458-2.199 2.312" style="fill:none;stroke:red;stroke-width:1.59466;stroke-linecap:round;stroke-linejoin:round;stroke-miterlimit:500;stroke-dasharray:none;stroke-opacity:1;visibility:visible" visibility="hidden"/></svg>