<svg xmlns="http://www.w3.org/2000/svg" baseProfile="full" height="793.701" preserveAspectRatio="xMinYMin meet" style="width:602px;height:832px" width="559.371" xml:space="preserve"><path d="m62.964 300.276 3.695-2.574.541.17M78.666 301.484l2.847.896 1.767.57M83.528 303.932l.23-.224.072-.248-.093-.23-.241-.188-.216-.092M92.82 416.5l.017.11-.12.25-.164.163M72.838 414.16l-.306-.164-.183-.211-.017-.131" style="fill:none;stroke:red;stroke-width:1.59466;stroke-linecap:round;stroke-linejoin:round;stroke-miterlimit:500;stroke-dasharray:none;stroke-opacity:1;visibility:visible" visibility="hidden"/><path d="m80.586 305.99 2.942-2.06" style="fill:none;stroke:red;stroke-width:.995997;stroke-linecap:round;stroke-linejoin:round;stroke-miterlimit:500;stroke-dasharray:none;stroke-opacity:1;visibility:visible" visibility="hidden"/><path d="m72.838 414.16 14.932 5.296M92.553 417.022l-2.835 2.176" style="fill:none;stroke:red;stroke-width:1.59466;stroke-linecap:round;stroke-linejoin:round;stroke-miterlimit:500;stroke-dasharray:none;stroke-opacity:1;visibility:visible" visibility="hidden"/><path d="m63.196 301.249 15.378 4.996M78.574 306.245l.42.084.47.01.468-.071.422-.142.236-.134M79.448 306.56l-.175 7.213-.073 7.699.03 7.618.132 7.537.231 7.447.332 7.357.435 7.26.528 7.159.632 7.061.724 6.95.824 6.845.917 6.73 1.01 6.621 1.105 6.498 1.193 6.382 1.285 6.258" style="fill:none;stroke:red;stroke-width:.995997;stroke-linecap:round;stroke-linejoin:round;stroke-miterlimit:500;stroke-dasharray:none;stroke-opacity:1;visibility:visible" visibility="hidden"/><path d="m92.84 416.497-.515-2.415-1.175-5.917-1.102-6.027-1.015-6.13-.93-6.238-.852-6.343-.761-6.437-.68-6.541-.589-6.636-.5-6.726-.417-6.813-.326-6.901-.234-6.988-.144-7.065-.055-7.143.037-7.215.131-7.286.12-4.162M62.661 300.689l-.194 3.465-.307 4.018-.387 3.94-.47 3.866-.546 3.794-.631 3.72-.635 3.25M59.503 326.749l-.033.144-.547 3.025-.407 3.06-.27 3.082-.138 3.095-.001 3.136.123 3.074M58.227 345.365l.232 3.625.511 6.828.6 6.736.689 6.644.266 2.375M60.539 371.574l.046.467.439 3.042.568 3.052.695 3.048.822 3.038.946 3.044.925 2.637M64.965 389.9l.262.701 1.316 3.7 1.223 3.626 1.146 3.563 1.062 3.5.98 3.437.902 3.375.456 1.858" style="fill:none;stroke:red;stroke-width:1.59466;stroke-linecap:round;stroke-linejoin:round;stroke-miterlimit:500;stroke-dasharray:none;stroke-opacity:1;visibility:visible" visibility="hidden"/><path d="m73.481 301.746-.297-.056-.328.002-.323.06-.267.114-.104.086M72.162 301.952l-.076.06-.062.167.056.157.17.129.263.085.317.03.332-.033.302-.089.224-.133.065-.085M73.754 302.24l.06-.078.004-.16-.116-.146-.22-.11M69.642 300.716l.088-.116.007-.244-.177-.223-.332-.164M78.578 302.978l-.106-.022M77.002 303.052l-.242.102-.155.128M76.605 303.282l-.113.095-.096.247.082.236.26.196.393.126.475.042.498-.048.45-.134.339-.198.099-.127M78.992 303.717l.085-.115.008-.244-.175-.221-.332-.16M69.23 299.969l-.073-.016M67.714 300.016l-.318.134-.156.13" style="fill:none;stroke:red;stroke-width:.663998;stroke-linecap:round;stroke-linejoin:round;stroke-miterlimit:500;stroke-dasharray:none;stroke-opacity:1;visibility:visible" visibility="hidden"/><path d="m67.24 300.28-.115.093-.095.247.082.24.262.197.392.127.484.044.502-.051.452-.133.34-.2.101-.128" style="fill:none;stroke:red;stroke-width:.663998;stroke-linecap:round;stroke-linejoin:round;stroke-miterlimit:500;stroke-dasharray:none;stroke-opacity:1;visibility:visible" visibility="hidden"/><path d="m74.72 414.159-.308-.163-.181-.212-.018-.13M94.703 416.5l.016.108-.119.252-.164.163M85.411 303.93l.23-.224.071-.247-.092-.229-.242-.19-.215-.09M80.55 301.483l2.845.896 1.767.57M71.773 298.718l6.523 2.055M64.847 300.275l3.695-2.573.542.17" style="fill:none;stroke:red;stroke-width:1.59466;stroke-linecap:round;stroke-linejoin:round;stroke-miterlimit:500;stroke-dasharray:none;stroke-opacity:1;visibility:visible" visibility="hidden"/><path d="m82.47 305.99 2.941-2.06" style="fill:none;stroke:red;stroke-width:.995997;stroke-linecap:round;stroke-linejoin:round;stroke-miterlimit:500;stroke-dasharray:none;stroke-opacity:1;visibility:visible" visibility="hidden"/><path d="m94.436 417.02-2.835 2.176M74.72 414.159l14.93 5.297" style="fill:none;stroke:red;stroke-width:1.59466;stroke-linecap:round;stroke-linejoin:round;stroke-miterlimit:500;stroke-dasharray:none;stroke-opacity:1;visibility:visible" visibility="hidden"/><path d="m65.079 301.248 15.377 4.996" style="fill:none;stroke:red;stroke-width:.995997;stroke-linecap:round;stroke-linejoin:round;stroke-miterlimit:500;stroke-dasharray:none;stroke-opacity:1;visibility:visible" visibility="hidden"/><path d="m91.602 419.194-.348.195-.433.128-.47.048-.449-.042-.248-.068" style="fill:none;stroke:red;stroke-width:1.59466;stroke-linecap:round;stroke-linejoin:round;stroke-miterlimit:500;stroke-dasharray:none;stroke-opacity:1;visibility:visible" visibility="hidden"/><path d="m81.331 306.56-.175 7.21-.073 7.7.03 7.62.133 7.537.23 7.446.332 7.358.435 7.258.528 7.162.632 7.058.724 6.952.823 6.844.918 6.73 1.011 6.62 1.104 6.5 1.193 6.382 1.286 6.257M80.458 306.245l.419.084.47.01.468-.07.423-.143.233-.134" style="fill:none;stroke:red;stroke-width:.995997;stroke-linecap:round;stroke-linejoin:round;stroke-miterlimit:500;stroke-dasharray:none;stroke-opacity:1;visibility:visible" visibility="hidden"/><path d="m66.848 389.899.26.703 1.317 3.698 1.224 3.627 1.146 3.563 1.061 3.5.981 3.437.902 3.375.454 1.858M62.421 371.574l.047.467.438 3.042.568 3.052.695 3.048.821 3.038.947 3.044.927 2.637M60.109 345.364l.232 3.627.51 6.826.603 6.736.687 6.644.265 2.375M61.386 326.748l-.033.144-.548 3.025-.406 3.06-.269 3.082-.137 3.096-.003 3.136.124 3.073M64.544 300.689l-.195 3.465-.305 4.018-.388 3.94-.47 3.866-.547 3.794-.631 3.72-.633 3.249M94.724 416.496l-.515-2.415-1.177-5.917-1.099-6.027-1.016-6.13-.932-6.238-.849-6.342-.763-6.439-.678-6.54-.591-6.636-.5-6.725-.416-6.813-.325-6.902-.236-6.988-.143-7.064-.055-7.144.038-7.214.13-7.287.119-4.161" style="fill:none;stroke:red;stroke-width:1.59466;stroke-linecap:round;stroke-linejoin:round;stroke-miterlimit:500;stroke-dasharray:none;stroke-opacity:1;visibility:visible" visibility="hidden"/><path d="m75.637 302.238.06-.077.004-.16-.116-.147-.22-.11" style="fill:none;stroke:red;stroke-width:.663998;stroke-linecap:round;stroke-linejoin:round;stroke-miterlimit:500;stroke-dasharray:none;stroke-opacity:1;visibility:visible" visibility="hidden"/><path d="m74.046 301.95-.076.061-.064.166.057.157.171.13.263.085.317.03.332-.034.301-.088.224-.134.066-.085" style="fill:none;stroke:red;stroke-width:.663998;stroke-linecap:round;stroke-linejoin:round;stroke-miterlimit:500;stroke-dasharray:none;stroke-opacity:1;visibility:visible" visibility="hidden"/><path d="m75.365 301.745-.299-.057-.326.002-.323.062-.267.112-.104.086M71.526 300.715l.088-.116.005-.244-.176-.223-.332-.164" style="fill:none;stroke:red;stroke-width:.663998;stroke-linecap:round;stroke-linejoin:round;stroke-miterlimit:500;stroke-dasharray:none;stroke-opacity:1;visibility:visible" visibility="hidden"/><path d="m69.123 300.279-.115.093-.096.247.083.24.261.197.394.127.482.044.502-.05.452-.134.341-.2.1-.128M69.598 300.014l-.319.135-.156.129M71.113 299.969l-.073-.016M80.875 303.717l.085-.115.008-.244-.174-.221-.332-.16M78.488 303.282l-.113.095-.095.246.081.236.259.196.395.127.474.041.498-.048.449-.133.34-.199.099-.126M78.885 303.05l-.243.103-.154.128M80.462 302.977l-.107-.023" style="fill:none;stroke:red;stroke-width:.663998;stroke-linecap:round;stroke-linejoin:round;stroke-miterlimit:500;stroke-dasharray:none;stroke-opacity:1;visibility:visible" visibility="hidden"/><path d="m65.079 301.248 2.121-3.376M78.296 300.773l2.254.71M69.084 297.872l2.689.846M71.773 298.718l-2.689-.846" style="fill:none;stroke:red;stroke-width:1.59466;stroke-linecap:round;stroke-linejoin:round;stroke-miterlimit:500;stroke-dasharray:none;stroke-opacity:1;visibility:visible" visibility="hidden"/><path d="m270.88 507.742 99.325-55.584M356.622 566.94l107.246-66.233" style="fill:none;stroke:#00ff4a;stroke-width:.995997;stroke-linecap:round;stroke-linejoin:round;stroke-miterlimit:500;stroke-dasharray:none;stroke-opacity:1;visibility:visible"/><path d="m66.39 447.603-.184-.09-.142-.108-.097-.127-.052-.14-.008-.075" style="fill:none;stroke:#00ff4a;stroke-width:1.59466;stroke-linecap:round;stroke-linejoin:round;stroke-miterlimit:500;stroke-dasharray:none;stroke-opacity:1;visibility:visible"/><path d="m507.167 530.475.01.213.043.183.076.145.104.095.132.053h.156l.164-.053.124-.064" style="fill:none;stroke:#00ff4a;stroke-width:.995997;stroke-linecap:round;stroke-linejoin:round;stroke-miterlimit:500;stroke-dasharray:none;stroke-opacity:1;visibility:visible"/><path d="m368.727 443.062.09.287-.084.288-.246.253-.381.2-.478.117-.522.028-.51-.073-.436-.157" style="fill:none;stroke:#00ff4a;stroke-width:1.32933;stroke-linecap:round;stroke-linejoin:round;stroke-miterlimit:500;stroke-dasharray:none;stroke-opacity:1;visibility:visible"/><path d="m366.16 444.003-.325-.228-.169-.275-.004-.29.168-.276.318-.23.436-.159.506-.072.52.021.478.116.387.197.252.254" style="fill:none;stroke:#00ff4a;stroke-width:.995997;stroke-linecap:round;stroke-linejoin:round;stroke-miterlimit:500;stroke-dasharray:none;stroke-opacity:1;visibility:visible"/><path d="m374.414 445.995-.035.303-.189.28-.336.239-.444.172-.52.09-.539.003-.517-.085-.454-.17" style="fill:none;stroke:#00ff4a;stroke-width:1.32933;stroke-linecap:round;stroke-linejoin:round;stroke-miterlimit:500;stroke-dasharray:none;stroke-opacity:1;visibility:visible"/><path d="m371.38 446.827-.342-.233-.203-.284-.043-.297.115-.296.261-.262.395-.205.485-.135.535-.048.537.043.491.128.399.204.278.258.126.295" style="fill:none;stroke:#00ff4a;stroke-width:.995997;stroke-linecap:round;stroke-linejoin:round;stroke-miterlimit:500;stroke-dasharray:none;stroke-opacity:1;visibility:visible"/><path d="m363.68 440.554-.037.299-.192.28-.336.236-.441.17-.518.092-.536.002-.516-.088-.449-.166" style="fill:none;stroke:#00ff4a;stroke-width:1.32933;stroke-linecap:round;stroke-linejoin:round;stroke-miterlimit:500;stroke-dasharray:none;stroke-opacity:1;visibility:visible"/><path d="m360.652 441.378-.338-.233-.198-.278-.046-.297.117-.292.268-.26.392-.208.483-.13.532-.05.534.045.49.126.396.202.274.258.122.289" style="fill:none;stroke:#00ff4a;stroke-width:.995997;stroke-linecap:round;stroke-linejoin:round;stroke-miterlimit:500;stroke-dasharray:none;stroke-opacity:1;visibility:visible"/><path d="m355.17 441.322 4.305-2.799M516.745 515.736l-.405 9.304M516.339 525.04l-.009.08-.021.083-.029.085-.041.086-.044.08-.055.069-.056.061-.064.047M516.02 525.631l-7.22 4.988" style="fill:none;stroke:#00ff4a;stroke-width:1.59466;stroke-linecap:round;stroke-linejoin:round;stroke-miterlimit:500;stroke-dasharray:none;stroke-opacity:1;visibility:visible"/><path d="m507.548 520.772-.381 9.323M507.444 520.518l8.55-5.648" style="fill:none;stroke:#00ff4a;stroke-width:.995997;stroke-linecap:round;stroke-linejoin:round;stroke-miterlimit:500;stroke-dasharray:none;stroke-opacity:1;visibility:visible"/><path d="m355.17 441.322-.172.136-.166.17-.152.206-.133.228-.11.241-.077.25-.053.242-.016.235" style="fill:none;stroke:#00ff4a;stroke-width:1.59466;stroke-linecap:round;stroke-linejoin:round;stroke-miterlimit:500;stroke-dasharray:none;stroke-opacity:1;visibility:visible"/><path d="m370.204 451.525-15.752-7.987M371.212 458.471l-.017.21-.057.189-.096.144-.124.108-.062.034M464.122 501.088l-.012-.206-.043-.22-.079-.224-.1-.222-.128-.208-.156-.2-.166-.17-.18-.143-.186-.115M463.972 506.491l.15-5.401M463.07 499.378l-8.641-4.383M463.616 507.155l.015-.01.141-.105.103-.148.068-.185.03-.216M454.428 494.998l-.188-.082-.18-.038h-.173l-.155.037-.05.02M354.888 442.593l152.66 77.927" style="fill:none;stroke:#00ff4a;stroke-width:.995997;stroke-linecap:round;stroke-linejoin:round;stroke-miterlimit:500;stroke-dasharray:none;stroke-opacity:1;visibility:visible"/><path d="m254.62 498.498 2.63-1.448M264.2 493.226l90.25-49.688" style="fill:none;stroke:#00ff4a;stroke-width:1.59466;stroke-linecap:round;stroke-linejoin:round;stroke-miterlimit:500;stroke-dasharray:none;stroke-opacity:1;visibility:visible"/><path d="m370.204 451.525.178.105.17.14.159.167.142.183.126.205.103.213.074.219.044.213.018.204M371.212 458.471l.004-5.296" style="fill:none;stroke:#00ff4a;stroke-width:.995997;stroke-linecap:round;stroke-linejoin:round;stroke-miterlimit:500;stroke-dasharray:none;stroke-opacity:1;visibility:visible"/><path d="m389.938 602.227-.099.426-.275.33" style="fill:none;stroke:#00ff4a;stroke-width:1.59466;stroke-linecap:round;stroke-linejoin:round;stroke-miterlimit:500;stroke-dasharray:none;stroke-opacity:1;visibility:visible"/><path d="m389.568 592.17.06-.034M389.628 592.134l.276-.211.11-.207-.016-.032" style="fill:none;stroke:#00ff4a;stroke-width:.995997;stroke-linecap:round;stroke-linejoin:round;stroke-miterlimit:500;stroke-dasharray:none;stroke-opacity:1;visibility:visible"/><path d="m389.563 602.983-.059.044M389.506 603.027l-8.002 5.49" style="fill:none;stroke:#00ff4a;stroke-width:1.59466;stroke-linecap:round;stroke-linejoin:round;stroke-miterlimit:500;stroke-dasharray:none;stroke-opacity:1;visibility:visible"/><path d="m381.546 597.635 8.024-5.463M381.12 597.41l.423.225M381.506 608.519l-.426.248M381.506 608.519l.038-10.88" style="fill:none;stroke:#00ff4a;stroke-width:.995997;stroke-linecap:round;stroke-linejoin:round;stroke-miterlimit:500;stroke-dasharray:none;stroke-opacity:1;visibility:visible"/><path d="m256.962 506.275-.115.316-.277.283-.421.216-.514.134-.55.027-.531-.077-.445-.175" style="fill:none;stroke:#00ff4a;stroke-width:1.32933;stroke-linecap:round;stroke-linejoin:round;stroke-miterlimit:500;stroke-dasharray:none;stroke-opacity:1;visibility:visible"/><path d="m254.106 507-.32-.253-.156-.305.019-.318.201-.304.355-.25.474-.182.538-.076.545.023.496.13.39.218.242.279.071.314" style="fill:none;stroke:#00ff4a;stroke-width:.995997;stroke-linecap:round;stroke-linejoin:round;stroke-miterlimit:500;stroke-dasharray:none;stroke-opacity:1;visibility:visible"/><path d="m262.777 509.644-.227.31-.37.266-.481.186-.556.102-.566.003-.542-.096-.462-.188" style="fill:none;stroke:#00ff4a;stroke-width:1.32933;stroke-linecap:round;stroke-linejoin:round;stroke-miterlimit:500;stroke-dasharray:none;stroke-opacity:1;visibility:visible"/><path d="m259.573 510.228-.343-.256-.188-.312-.025-.333.145-.324.304-.29.43-.23.528-.143.561-.053.562.048.507.143.408.224.267.285.109.327-.061.332" style="fill:none;stroke:#00ff4a;stroke-width:.995997;stroke-linecap:round;stroke-linejoin:round;stroke-miterlimit:500;stroke-dasharray:none;stroke-opacity:1;visibility:visible"/><path d="m251.993 503.302-.064.332-.229.306-.37.263-.48.185-.55.103-.57.001-.537-.097-.459-.18" style="fill:none;stroke:#00ff4a;stroke-width:1.32933;stroke-linecap:round;stroke-linejoin:round;stroke-miterlimit:500;stroke-dasharray:none;stroke-opacity:1;visibility:visible"/><path d="m381.286 597.596-119.292-79.628M261.993 517.968l-4.867-2.71-4.99-2.612-5.106-2.51-5.224-2.408-5.336-2.302-1.168-.474M219.842 499.138l-153.72-61.099M248.733 504.214l-.338-.256-.189-.308-.019-.33.148-.322.306-.288.429-.227.521-.143.563-.05.56.044.503.141.403.223.265.284.105.32" style="fill:none;stroke:#00ff4a;stroke-width:.995997;stroke-linecap:round;stroke-linejoin:round;stroke-miterlimit:500;stroke-dasharray:none;stroke-opacity:1;visibility:visible"/><path d="m273.315 509.102-8.914-4.915M257.377 500.31l-3.58-1.976M66.819 448.255l133.877 53.663M65.67 436.814l-.133.11-.117.122-.1.137-.085.154-.065.158-.041.167-.022.17v.172M65.107 438.002l.8 9.06M65.907 447.062l.028.196.054.19.086.184.105.165.135.146.152.128.17.106.183.076M277.493 511.591l93.365-52.435M361.48 570.568l102.135-63.414M453.683 494.936l-107.001 65.386M507.976 531.043l.808-.415M369.338 460.206l75.768 38.922M462.378 507.992l45.107 23.162M516.733 515.622l-.293-1.144M516.281 514.262 376.438 443.54M369.964 440.269l-3.984-2.015" style="fill:none;stroke:#00ff4a;stroke-width:1.59466;stroke-linecap:round;stroke-linejoin:round;stroke-miterlimit:500;stroke-dasharray:none;stroke-opacity:1;visibility:visible"/><path d="m273.44 509.168-.018-.008-.012-.009-.016-.01-.017-.005-.017-.009-.011-.01-.019-.011-.016-.006" style="fill:none;stroke:#00ff4a;stroke-width:.995997;stroke-linecap:round;stroke-linejoin:round;stroke-miterlimit:500;stroke-dasharray:none;stroke-opacity:1;visibility:visible"/><path d="m389.642 591.055-116.2-81.887M389.948 602.227l.066-10.487M224.029 511.088l3.161 1.15 4.727 1.826 4.65 1.908 4.565 1.98 4.487 2.06 4.404 2.131 4.315 2.208 4.223 2.281 3.348 1.906M245.975 494.038 139.915 455.9M134.868 454.086l-5.015-1.803M124.95 450.52l-36.497-13.124M83.84 435.74l-4.69-1.69M74.65 432.433l-1.579-.568s-.293-.076-.591-.028c-.306.05-.62.229-.62.229l-6.189 4.748" style="fill:none;stroke:#00ff4a;stroke-width:1.59466;stroke-linecap:round;stroke-linejoin:round;stroke-miterlimit:500;stroke-dasharray:none;stroke-opacity:1;visibility:visible"/><path d="m390.007 591.678-.303-.58" style="fill:none;stroke:#00ff4a;stroke-width:.995997;stroke-linecap:round;stroke-linejoin:round;stroke-miterlimit:500;stroke-dasharray:none;stroke-opacity:1;visibility:visible"/><path d="m261.88 528.519 119.2 80.241" style="fill:none;stroke:#00ff4a;stroke-width:1.59466;stroke-linecap:round;stroke-linejoin:round;stroke-miterlimit:500;stroke-dasharray:none;stroke-opacity:1;visibility:visible"/><path d="M250.657 498.348a.239.239 0 0 0 .07-.173M248.09 498.175c0 .068.027.13.072.175M250.666 498.34l-.357.393M248.153 498.34l.357.393M250.305 498.74a.03.03 0 0 0 .005-.009M248.509 498.732c.001.003.001.008.005.008M248.514 498.74a.797.797 0 0 0 .281.175M248.795 498.914a1.932 1.932 0 0 0 1.231 0M250.023 498.914a.713.713 0 0 0 .28-.176" style="fill:none;stroke:#00ff4a;stroke-width:.995997;stroke-linecap:round;stroke-linejoin:round;stroke-miterlimit:2;stroke-dasharray:none;stroke-opacity:1;visibility:visible"/><path d="m135.87 457.965-.118.089-.104.244.076.241.246.203.39.141.478.06.498-.03.449-.115.35-.188.101-.12M138.237 458.488l.09-.111.018-.245-.165-.225-.327-.174" style="fill:none;stroke:#00ff4a;stroke-width:.663998;stroke-linecap:round;stroke-linejoin:round;stroke-miterlimit:500;stroke-dasharray:none;stroke-opacity:1;visibility:visible"/><path d="m358.505 566.94 107.246-66.233M272.762 507.742l99.326-55.584" style="fill:none;stroke:#00ff4a;stroke-width:.995997;stroke-linecap:round;stroke-linejoin:round;stroke-miterlimit:500;stroke-dasharray:none;stroke-opacity:1;visibility:visible"/><path d="m68.273 447.603-.183-.09-.142-.109-.099-.126-.052-.14-.005-.075" style="fill:none;stroke:#00ff4a;stroke-width:1.59466;stroke-linecap:round;stroke-linejoin:round;stroke-miterlimit:500;stroke-dasharray:none;stroke-opacity:1;visibility:visible"/><path d="m509.051 530.474.01.213.042.183.076.145.104.095.133.053h.155l.164-.053.125-.064" style="fill:none;stroke:#00ff4a;stroke-width:.995997;stroke-linecap:round;stroke-linejoin:round;stroke-miterlimit:500;stroke-dasharray:none;stroke-opacity:1;visibility:visible"/><path d="m370.61 443.061.088.287-.081.288-.247.254-.381.198-.478.118-.522.028-.51-.073-.437-.157" style="fill:none;stroke:#00ff4a;stroke-width:1.32933;stroke-linecap:round;stroke-linejoin:round;stroke-miterlimit:500;stroke-dasharray:none;stroke-opacity:1;visibility:visible"/><path d="m368.044 444.003-.323-.228-.17-.276-.004-.29.168-.275.318-.23.436-.161.506-.07.521.02.477.117.387.197.25.253" style="fill:none;stroke:#00ff4a;stroke-width:.995997;stroke-linecap:round;stroke-linejoin:round;stroke-miterlimit:500;stroke-dasharray:none;stroke-opacity:1;visibility:visible"/><path d="m376.298 445.994-.036.303-.19.28-.333.238-.445.172-.519.091-.54.003-.518-.086-.452-.169" style="fill:none;stroke:#00ff4a;stroke-width:1.32933;stroke-linecap:round;stroke-linejoin:round;stroke-miterlimit:500;stroke-dasharray:none;stroke-opacity:1;visibility:visible"/><path d="m373.264 446.826-.343-.233-.202-.283-.044-.299.114-.296.263-.261.395-.207.485-.133.535-.048.536.043.49.128.4.204.278.258.126.295" style="fill:none;stroke:#00ff4a;stroke-width:.995997;stroke-linecap:round;stroke-linejoin:round;stroke-miterlimit:500;stroke-dasharray:none;stroke-opacity:1;visibility:visible"/><path d="m365.563 440.553-.036.299-.192.28-.336.236-.441.17-.518.092-.537.002-.516-.088-.45-.166" style="fill:none;stroke:#00ff4a;stroke-width:1.32933;stroke-linecap:round;stroke-linejoin:round;stroke-miterlimit:500;stroke-dasharray:none;stroke-opacity:1;visibility:visible"/><path d="m362.537 441.378-.339-.233-.198-.278-.047-.297.117-.292.267-.26.395-.208.482-.13.532-.049.535.044.488.126.397.202.274.258.122.29" style="fill:none;stroke:#00ff4a;stroke-width:.995997;stroke-linecap:round;stroke-linejoin:round;stroke-miterlimit:500;stroke-dasharray:none;stroke-opacity:1;visibility:visible"/><path d="m357.053 441.321 4.305-2.799M517.904 525.63l-7.22 4.988M518.223 525.04l-.008.079-.023.084-.028.085-.041.085-.045.08-.055.07-.056.061-.063.047M518.628 515.736l-.405 9.303" style="fill:none;stroke:#00ff4a;stroke-width:1.59466;stroke-linecap:round;stroke-linejoin:round;stroke-miterlimit:500;stroke-dasharray:none;stroke-opacity:1;visibility:visible"/><path d="m509.329 520.518 8.548-5.647M509.433 520.772l-.381 9.323" style="fill:none;stroke:#00ff4a;stroke-width:.995997;stroke-linecap:round;stroke-linejoin:round;stroke-miterlimit:500;stroke-dasharray:none;stroke-opacity:1;visibility:visible"/><path d="m357.053 441.321-.172.136-.165.17-.154.207-.132.227-.109.241-.08.25-.052.242-.015.235" style="fill:none;stroke:#00ff4a;stroke-width:1.59466;stroke-linecap:round;stroke-linejoin:round;stroke-miterlimit:500;stroke-dasharray:none;stroke-opacity:1;visibility:visible"/><path d="m356.773 442.591 152.66 77.928M456.312 494.997l-.188-.081-.183-.039h-.17l-.156.037-.05.02M465.5 507.155l.015-.01.141-.105.103-.148.068-.185.029-.216M464.955 499.378l-8.643-4.383M465.856 506.49l.15-5.401M466.006 501.087l-.012-.207-.043-.22-.08-.224-.098-.221-.13-.208-.154-.2-.167-.17-.18-.143-.187-.116M373.097 458.47l-.017.21-.058.187-.096.147-.124.107-.061.034M372.088 451.524l-15.753-7.987" style="fill:none;stroke:#00ff4a;stroke-width:.995997;stroke-linecap:round;stroke-linejoin:round;stroke-miterlimit:500;stroke-dasharray:none;stroke-opacity:1;visibility:visible"/><path d="m266.082 493.225 90.252-49.688M256.504 498.497l2.63-1.448" style="fill:none;stroke:#00ff4a;stroke-width:1.59466;stroke-linecap:round;stroke-linejoin:round;stroke-miterlimit:500;stroke-dasharray:none;stroke-opacity:1;visibility:visible"/><path d="m373.097 458.47.004-5.296M372.088 451.524l.177.107.17.138.16.167.142.184.126.204.102.213.075.219.044.213.016.204" style="fill:none;stroke:#00ff4a;stroke-width:.995997;stroke-linecap:round;stroke-linejoin:round;stroke-miterlimit:500;stroke-dasharray:none;stroke-opacity:1;visibility:visible"/><path d="m391.821 602.227-.099.427-.274.329" style="fill:none;stroke:#00ff4a;stroke-width:1.59466;stroke-linecap:round;stroke-linejoin:round;stroke-miterlimit:500;stroke-dasharray:none;stroke-opacity:1;visibility:visible"/><path d="m391.513 592.133.276-.21.11-.207-.017-.032M391.453 592.17l.06-.036" style="fill:none;stroke:#00ff4a;stroke-width:.995997;stroke-linecap:round;stroke-linejoin:round;stroke-miterlimit:500;stroke-dasharray:none;stroke-opacity:1;visibility:visible"/><path d="m391.39 603.027-8.001 5.49M391.448 602.983l-.059.044" style="fill:none;stroke:#00ff4a;stroke-width:1.59466;stroke-linecap:round;stroke-linejoin:round;stroke-miterlimit:500;stroke-dasharray:none;stroke-opacity:1;visibility:visible"/><path d="m383.39 608.518-.425.248M383.39 608.518l.039-10.88M383.003 597.41l.425.227M383.43 597.635l8.024-5.463M255.99 506.998l-.32-.25-.157-.307.02-.318.201-.305.355-.25.473-.18.539-.078.545.024.496.13.39.217.243.28.068.314" style="fill:none;stroke:#00ff4a;stroke-width:.995997;stroke-linecap:round;stroke-linejoin:round;stroke-miterlimit:500;stroke-dasharray:none;stroke-opacity:1;visibility:visible"/><path d="m264.66 509.644-.227.31-.369.266-.484.185-.553.103-.568.003-.54-.096-.463-.188" style="fill:none;stroke:#00ff4a;stroke-width:1.32933;stroke-linecap:round;stroke-linejoin:round;stroke-miterlimit:500;stroke-dasharray:none;stroke-opacity:1;visibility:visible"/><path d="m261.456 510.228-.341-.256-.191-.313-.024-.332.144-.324.305-.291.431-.228.525-.145.563-.052.563.048.506.142.408.224.267.286.11.326-.062.332" style="fill:none;stroke:#00ff4a;stroke-width:.995997;stroke-linecap:round;stroke-linejoin:round;stroke-miterlimit:500;stroke-dasharray:none;stroke-opacity:1;visibility:visible"/><path d="m253.876 503.302-.064.332-.228.307-.37.262-.48.186-.551.102-.57.002-.538-.098-.458-.18" style="fill:none;stroke:#00ff4a;stroke-width:1.32933;stroke-linecap:round;stroke-linejoin:round;stroke-miterlimit:500;stroke-dasharray:none;stroke-opacity:1;visibility:visible"/><path d="m250.618 504.213-.337-.256-.19-.308-.018-.33.148-.322.304-.287.43-.228.522-.142.562-.051.56.044.503.141.404.223.264.284.107.32M221.725 499.138l-153.72-61.099M263.876 517.969l-4.867-2.71-4.989-2.613-5.108-2.509-5.224-2.408-5.335-2.303-1.168-.473M383.17 597.596l-119.292-79.628" style="fill:none;stroke:#00ff4a;stroke-width:.995997;stroke-linecap:round;stroke-linejoin:round;stroke-miterlimit:500;stroke-dasharray:none;stroke-opacity:1;visibility:visible"/><path d="m371.848 440.267-3.984-2.015M518.165 514.26l-139.844-70.721M518.618 515.62l-.293-1.144M464.262 507.992l45.108 23.161M371.222 460.205l75.766 38.923M509.861 531.043l.808-.415M455.567 494.936l-107.001 65.385M363.363 570.57 465.5 507.155M279.377 511.59l93.365-52.435M67.79 447.062l.028.196.055.19.085.183.107.166.132.146.153.128.17.106.183.076M66.99 438.001l.801 9.06M67.554 436.813l-.136.11-.113.123-.103.136-.084.154-.064.158-.041.167-.023.17v.173M68.702 448.255l133.877 53.663M259.26 500.31l-3.581-1.976M275.199 509.1l-8.915-4.915" style="fill:none;stroke:#00ff4a;stroke-width:1.59466;stroke-linecap:round;stroke-linejoin:round;stroke-miterlimit:500;stroke-dasharray:none;stroke-opacity:1;visibility:visible"/><path d="m275.323 509.168-.016-.008-.015-.01-.014-.009-.018-.006-.016-.008-.012-.011-.018-.01-.016-.006" style="fill:none;stroke:#00ff4a;stroke-width:.995997;stroke-linecap:round;stroke-linejoin:round;stroke-miterlimit:500;stroke-dasharray:none;stroke-opacity:1;visibility:visible"/><path d="m76.533 432.433-1.577-.568s-.294-.076-.592-.028c-.307.05-.619.229-.619.229l-6.19 4.748M85.724 435.738l-4.69-1.688M126.834 450.52l-36.497-13.123M136.751 454.085l-5.016-1.803M247.859 494.038l-106.061-38.137M225.912 511.087l3.161 1.15 4.727 1.826 4.648 1.908 4.568 1.98 4.487 2.06 4.402 2.13 4.316 2.209 4.223 2.281 3.348 1.905M391.832 602.227l.065-10.485M391.526 591.055l-116.201-81.886" style="fill:none;stroke:#00ff4a;stroke-width:1.59466;stroke-linecap:round;stroke-linejoin:round;stroke-miterlimit:500;stroke-dasharray:none;stroke-opacity:1;visibility:visible"/><path d="m391.891 591.677-.303-.58" style="fill:none;stroke:#00ff4a;stroke-width:.995997;stroke-linecap:round;stroke-linejoin:round;stroke-miterlimit:500;stroke-dasharray:none;stroke-opacity:1;visibility:visible"/><path d="m263.765 528.52 119.2 80.241" style="fill:none;stroke:#00ff4a;stroke-width:1.59466;stroke-linecap:round;stroke-linejoin:round;stroke-miterlimit:500;stroke-dasharray:none;stroke-opacity:1;visibility:visible"/><path d="M252.186 498.74a.03.03 0 0 0 .005-.009M250.391 498.732c.003.003.003.008.006.008M250.397 498.74a.773.773 0 0 0 .281.175M250.678 498.914a1.925 1.925 0 0 0 1.23 0M251.906 498.914a.723.723 0 0 0 .28-.176M250.036 498.339l.356.395M252.549 498.339l-.357.395M252.54 498.348a.239.239 0 0 0 .072-.173M249.973 498.175c0 .068.026.13.07.175" style="fill:none;stroke:#00ff4a;stroke-width:.995997;stroke-linecap:round;stroke-linejoin:round;stroke-miterlimit:2;stroke-dasharray:none;stroke-opacity:1;visibility:visible"/><path d="m140.12 458.488.09-.112.017-.244-.164-.225-.327-.175M137.753 457.964l-.119.09-.104.243.075.242.248.202.39.142.477.06.497-.03.45-.117.35-.187.103-.118" style="fill:none;stroke:#00ff4a;stroke-width:.663998;stroke-linecap:round;stroke-linejoin:round;stroke-miterlimit:500;stroke-dasharray:none;stroke-opacity:1;visibility:visible"/><path d="m259.133 497.049 11.747 10.693" style="fill:none;stroke:#00ff4a;stroke-width:.995997;stroke-linecap:round;stroke-linejoin:round;stroke-miterlimit:500;stroke-dasharray:none;stroke-opacity:1;visibility:visible"/><path d="m357.053 441.321 2.422-2.798M256.504 498.497l.746-1.447M259.133 497.049l5.067-3.823" style="fill:none;stroke:#00ff4a;stroke-width:1.59466;stroke-linecap:round;stroke-linejoin:round;stroke-miterlimit:500;stroke-dasharray:none;stroke-opacity:1;visibility:visible"/><path d="m221.725 499.138 13.577 5.814M224.029 511.088l-4.187-11.95" style="fill:none;stroke:#00ff4a;stroke-width:.995997;stroke-linecap:round;stroke-linejoin:round;stroke-miterlimit:500;stroke-dasharray:none;stroke-opacity:1;visibility:visible"/><path d="m259.26 500.31 5.141 3.877M255.679 498.334l1.698 1.976M370.204 451.525l-.866 8.681M454.429 494.995l-9.323 4.133M463.07 499.378l-.692 8.614M371.848 440.267l4.59 3.273M367.864 438.252l2.1 2.017M371.848 440.267l-5.868-2.013M221.725 499.138l2.304 11.95M248.795 498.914l-2.82-4.876M136.751 454.085l3.164 1.815M131.735 452.282l3.133 1.804M126.834 450.52l3.019 1.763M129.853 452.283l-4.903-1.763M85.724 435.738l2.729 1.658M81.033 434.05l2.807 1.69M76.533 432.433l2.617 1.617M79.15 434.05l-4.5-1.617" style="fill:none;stroke:#00ff4a;stroke-width:1.59466;stroke-linecap:round;stroke-linejoin:round;stroke-miterlimit:500;stroke-dasharray:none;stroke-opacity:1;visibility:visible"/><path d="m259.133 497.049 13.629 10.693" style="fill:none;stroke:#00ff4a;stroke-width:.995997;stroke-linecap:round;stroke-linejoin:round;stroke-miterlimit:500;stroke-dasharray:none;stroke-opacity:1;visibility:visible"/><path d="m355.17 441.322 6.188-2.8M259.133 497.049l6.949-3.824M254.62 498.498l4.513-1.449" style="fill:none;stroke:#00ff4a;stroke-width:1.59466;stroke-linecap:round;stroke-linejoin:round;stroke-miterlimit:500;stroke-dasharray:none;stroke-opacity:1;visibility:visible"/><path d="m261.994 517.968-6.004-10.97M224.029 511.088l-2.304-11.95M74.65 432.433l-6.646 5.606M248.795 498.915l-11.61 6.038" style="fill:none;stroke:#00ff4a;stroke-width:.995997;stroke-linecap:round;stroke-linejoin:round;stroke-miterlimit:500;stroke-dasharray:none;stroke-opacity:1;visibility:visible"/><path d="m376.438 443.54-4.59-3.273M369.964 440.269l-2.1-2.017M371.848 440.267l6.473 3.272M464.955 499.378l-.693 8.614M372.088 451.524l-.866 8.681M454.429 494.995l-7.44 4.133M253.797 498.334l5.463 1.976M259.26 500.31l7.024 3.875M79.15 434.05l-2.617-1.617M88.453 437.396l-2.729-1.658M83.84 435.74l-2.807-1.69M129.853 452.283l-3.019-1.763M85.724 435.738l4.613 1.66M139.915 455.9l-3.164-1.815M134.868 454.086l-3.133-1.804M248.795 498.914l-.936-4.876M136.751 454.085l5.047 1.816M221.725 499.138l4.187 11.949" style="fill:none;stroke:#00ff4a;stroke-width:1.59466;stroke-linecap:round;stroke-linejoin:round;stroke-miterlimit:500;stroke-dasharray:none;stroke-opacity:1;visibility:visible"/><path d="m112.888 316.482 3.197-2.474.953.282M120.061 315.18l6.117 1.809M128.824 317.772l3.058.904 1.72.556M133.893 320.242l.224-.232.064-.253-.1-.237-.259-.196-.221-.092M141.686 433.794l.018.088-.112.261-.162.164M121.34 431.367l-.318-.166-.19-.221-.024-.15" style="fill:none;stroke:#9500ff;stroke-width:1.59466;stroke-linecap:round;stroke-linejoin:round;stroke-miterlimit:500;stroke-dasharray:none;stroke-opacity:1;visibility:visible" visibility="hidden"/><path d="m130.998 322.358 2.898-2.116" style="fill:none;stroke:#9500ff;stroke-width:.995997;stroke-linecap:round;stroke-linejoin:round;stroke-miterlimit:500;stroke-dasharray:none;stroke-opacity:1;visibility:visible" visibility="hidden"/><path d="m121.34 431.367 15.332 5.44M141.428 434.306l-2.792 2.23" style="fill:none;stroke:#9500ff;stroke-width:1.59466;stroke-linecap:round;stroke-linejoin:round;stroke-miterlimit:500;stroke-dasharray:none;stroke-opacity:1;visibility:visible" visibility="hidden"/><path d="m113.162 317.48 15.806 5.135M128.966 322.614l.428.09.48.009.471-.073.42-.148.233-.134M129.733 322.928l-.257 7.287-.159 7.78-.057 7.691.04 7.611.142 7.517.242 7.423.341 7.323.437 7.227.535 7.116.63 7.012.73 6.899.817 6.784.912 6.668 1.006 6.548 1.094 6.424 1.186 6.299" style="fill:none;stroke:#9500ff;stroke-width:.995997;stroke-linecap:round;stroke-linejoin:round;stroke-miterlimit:500;stroke-dasharray:none;stroke-opacity:1;visibility:visible" visibility="hidden"/><path d="m141.706 433.79-.472-2.428-1.088-5.956-1.005-6.067-.921-6.176-.842-6.288-.756-6.389-.672-6.492-.589-6.595-.501-6.688-.418-6.788-.326-6.873-.239-6.967-.15-7.049-.064-7.136.031-7.21.12-7.288.207-7.36.163-4.212M112.6 316.889l-.234 3.508-.354 4.055-.442 3.977-.528 3.901-.61 3.827-.69 3.753-.695 3.271M109.057 343.185l-.032.138-.601 3.052-.46 3.09-.319 3.105-.184 3.123-.048 3.165.087 3.11M107.493 361.966l.19 3.664.419 6.883.517 6.794.599 6.698.24 2.395M109.468 388.402l.04.459.398 3.068.531 3.081.664 3.075.787 3.06.922 3.074.91 2.676M113.706 406.895l.256.71 1.283 3.728 1.195 3.657 1.106 3.591 1.02 3.524.936 3.462.854 3.396.432 1.872" style="fill:none;stroke:#9500ff;stroke-width:1.59466;stroke-linecap:round;stroke-linejoin:round;stroke-miterlimit:500;stroke-dasharray:none;stroke-opacity:1;visibility:visible" visibility="hidden"/><path d="m122.36 318.033-.076.061-.064.166.057.157.17.13.263.084.318.031.332-.034.3-.088.225-.134.065-.085M123.952 318.322l.06-.077.004-.16-.116-.147-.22-.11" style="fill:none;stroke:#9500ff;stroke-width:.663998;stroke-linecap:round;stroke-linejoin:round;stroke-miterlimit:500;stroke-dasharray:none;stroke-opacity:1;visibility:visible" visibility="hidden"/><path d="m123.68 317.829-.298-.057-.328.002-.322.062-.267.112-.104.086M128.497 319.36l-.139-.027M126.721 319.533l-.15.127M126.57 319.66l-.109.09-.093.24.08.23.252.193.382.121.466.042.485-.048.436-.128.332-.195.095-.123M128.896 320.082l.084-.112.008-.237-.171-.215-.321-.158M119.576 317.084l.088-.114.005-.245-.176-.221-.287-.144" style="fill:none;stroke:#9500ff;stroke-width:.663998;stroke-linecap:round;stroke-linejoin:round;stroke-miterlimit:500;stroke-dasharray:none;stroke-opacity:1;visibility:visible" visibility="hidden"/><path d="m123.223 431.366-.317-.167-.191-.22-.025-.15M143.57 433.793l.016.088-.11.261-.162.164M135.777 320.242l.224-.233.064-.252-.101-.238-.259-.196-.22-.092M130.707 317.77l3.06.904 1.719.556M121.945 315.18l6.116 1.81M114.77 316.48l3.197-2.475.954.283" style="fill:none;stroke:#9500ff;stroke-width:1.59466;stroke-linecap:round;stroke-linejoin:round;stroke-miterlimit:500;stroke-dasharray:none;stroke-opacity:1;visibility:visible" visibility="hidden"/><path d="m132.882 322.357 2.897-2.116" style="fill:none;stroke:#9500ff;stroke-width:.995997;stroke-linecap:round;stroke-linejoin:round;stroke-miterlimit:500;stroke-dasharray:none;stroke-opacity:1;visibility:visible" visibility="hidden"/><path d="m143.311 434.306-2.792 2.23M123.223 431.366l15.332 5.44" style="fill:none;stroke:#9500ff;stroke-width:1.59466;stroke-linecap:round;stroke-linejoin:round;stroke-miterlimit:500;stroke-dasharray:none;stroke-opacity:1;visibility:visible" visibility="hidden"/><path d="m115.046 317.48 15.804 5.133" style="fill:none;stroke:#9500ff;stroke-width:.995997;stroke-linecap:round;stroke-linejoin:round;stroke-miterlimit:500;stroke-dasharray:none;stroke-opacity:1;visibility:visible" visibility="hidden"/><path d="m140.52 436.535-.345.201-.436.132-.475.047-.457-.04-.252-.07" style="fill:none;stroke:#9500ff;stroke-width:1.59466;stroke-linecap:round;stroke-linejoin:round;stroke-miterlimit:500;stroke-dasharray:none;stroke-opacity:1;visibility:visible" visibility="hidden"/><path d="m131.615 322.927-.259 7.288-.158 7.779-.058 7.693.042 7.61.142 7.517.242 7.422.341 7.324.437 7.227.535 7.116.63 7.012.727 6.898.82 6.784.91 6.668 1.008 6.548 1.092 6.424 1.188 6.299M130.85 322.614l.428.09.479.009.472-.074.42-.148.233-.133" style="fill:none;stroke:#9500ff;stroke-width:.995997;stroke-linecap:round;stroke-linejoin:round;stroke-miterlimit:500;stroke-dasharray:none;stroke-opacity:1;visibility:visible" visibility="hidden"/><path d="m115.588 406.894.256.71 1.283 3.727 1.194 3.659 1.106 3.59 1.021 3.523.935 3.463.854 3.396.432 1.872M111.351 388.4l.04.459.399 3.068.53 3.082.664 3.074.787 3.06.923 3.074.909 2.676M109.377 361.965l.188 3.663.423 6.884.513 6.794.601 6.698.238 2.396M110.94 343.184l-.033.139-.6 3.052-.459 3.089-.321 3.105-.183 3.123-.047 3.165.086 3.11M114.483 316.887l-.233 3.508-.355 4.055-.441 3.977-.528 3.901-.611 3.827-.692 3.755-.692 3.269M143.589 433.79l-.473-2.428-1.087-5.956-1.007-6.067-.92-6.176-.841-6.288-.756-6.389-.673-6.492-.59-6.595-.501-6.688-.416-6.788-.327-6.874-.238-6.965-.151-7.05-.063-7.136.03-7.21.12-7.288.208-7.362.162-4.209" style="fill:none;stroke:#9500ff;stroke-width:1.59466;stroke-linecap:round;stroke-linejoin:round;stroke-miterlimit:500;stroke-dasharray:none;stroke-opacity:1;visibility:visible" visibility="hidden"/><path d="m125.835 318.32.06-.077.004-.16-.116-.147-.22-.11M124.244 318.033l-.076.061-.064.166.057.157.171.13.263.085.317.03.332-.034.301-.088.224-.134.066-.085M125.563 317.828l-.299-.057-.326.002-.323.062-.267.112-.104.086M121.46 317.083l.088-.113.005-.246-.176-.221-.288-.143M130.78 320.082l.084-.112.007-.237-.171-.215-.32-.159M128.454 319.659l-.11.09-.094.24.081.231.251.191.384.123.464.041.485-.048.438-.128.332-.195.094-.122M128.604 319.532l-.15.128M130.38 319.36l-.139-.027" style="fill:none;stroke:#9500ff;stroke-width:.663998;stroke-linecap:round;stroke-linejoin:round;stroke-miterlimit:500;stroke-dasharray:none;stroke-opacity:1;visibility:visible" visibility="hidden"/><path d="m120.061 315.18-3.023-.89M118.92 314.288l1.141.892M128.824 317.772l-2.646-.783M128.061 316.99l.763.782" style="fill:none;stroke:#9500ff;stroke-width:1.59466;stroke-linecap:round;stroke-linejoin:round;stroke-miterlimit:500;stroke-dasharray:none;stroke-opacity:1;visibility:visible" visibility="hidden"/><path d="m123.95 318.321-4.374-1.237" style="fill:none;stroke:#9500ff;stroke-width:.663998;stroke-linecap:round;stroke-linejoin:round;stroke-miterlimit:500;stroke-dasharray:none;stroke-opacity:1;visibility:visible" visibility="hidden"/><path d="m128.061 316.99 2.646.78M118.92 314.288l3.025.892M128.824 317.772l-.763-.783M120.061 315.18l-1.14-.892" style="fill:none;stroke:#9500ff;stroke-width:1.59466;stroke-linecap:round;stroke-linejoin:round;stroke-miterlimit:500;stroke-dasharray:none;stroke-opacity:1;visibility:visible" visibility="hidden"/><path d="m123.95 318.321-2.49-1.238" style="fill:none;stroke:#9500ff;stroke-width:.663998;stroke-linecap:round;stroke-linejoin:round;stroke-miterlimit:500;stroke-dasharray:none;stroke-opacity:1;visibility:visible" visibility="hidden"/><path d="m164.192 333.135 3.53-2.435 1.424.421M171.993 331.967l6.275 1.863M181.08 334.662l2.573.764 1.664.539M185.658 337.002l.215-.24.055-.257-.114-.243-.268-.202-.226-.094M191.864 451.555l.016.068-.102.263-.162.17M171.142 449.034l-.33-.172-.199-.225-.037-.177" style="fill:none;stroke:#ffdf00;stroke-width:1.59466;stroke-linecap:round;stroke-linejoin:round;stroke-miterlimit:500;stroke-dasharray:none;stroke-opacity:1;visibility:visible" visibility="hidden"/><path d="m182.808 339.174 2.852-2.172M164.192 333.135l-.22.238-.057.256.109.24.26.201.228.092" style="fill:none;stroke:#ffdf00;stroke-width:.995997;stroke-linecap:round;stroke-linejoin:round;stroke-miterlimit:500;stroke-dasharray:none;stroke-opacity:1;visibility:visible" visibility="hidden"/><path d="m171.142 449.034 15.748 5.586M191.617 452.054l-2.744 2.292" style="fill:none;stroke:#ffdf00;stroke-width:1.59466;stroke-linecap:round;stroke-linejoin:round;stroke-miterlimit:500;stroke-dasharray:none;stroke-opacity:1;visibility:visible" visibility="hidden"/><path d="m164.513 334.163 16.245 5.28" style="fill:none;stroke:#ffdf00;stroke-width:.995997;stroke-linecap:round;stroke-linejoin:round;stroke-miterlimit:500;stroke-dasharray:none;stroke-opacity:1;visibility:visible" visibility="hidden"/><path d="m188.872 454.346-.344.203-.438.137-.48.05-.465-.042-.257-.072" style="fill:none;stroke:#ffdf00;stroke-width:1.59466;stroke-linecap:round;stroke-linejoin:round;stroke-miterlimit:500;stroke-dasharray:none;stroke-opacity:1;visibility:visible" visibility="hidden"/><path d="m180.757 339.44.44.09.483.01.478-.075.419-.149.232-.141M181.669 339.934l-.35 7.181-.249 7.855-.148 7.772-.052 7.684.05 7.59.145 7.489.244 7.393.335 7.287.44 7.181.529 7.068.625 6.953.716 6.838.808 6.715.902 6.594.988 6.47 1.08 6.343" style="fill:none;stroke:#ffdf00;stroke-width:.995997;stroke-linecap:round;stroke-linejoin:round;stroke-miterlimit:500;stroke-dasharray:none;stroke-opacity:1;visibility:visible" visibility="hidden"/><path d="m191.88 451.547-.43-2.44-.984-5.994-.908-6.108-.825-6.225-.743-6.334-.662-6.436-.574-6.548-.493-6.648-.411-6.745-.32-6.846-.24-6.938-.144-7.028-.064-7.119.028-7.203.114-7.28.206-7.363.29-7.434.21-4.258M163.92 333.533l-.275 3.55-.412 4.091-.499 4.016-.584 3.94-.673 3.86-.76 3.785-.755 3.291M159.973 360.071l-.035.14-.657 3.073-.515 3.115-.372 3.131-.232 3.152-.094 3.192.046 3.15M158.106 379.022l.139 3.693.332 6.947.425 6.852.508 6.756.203 2.412M159.724 405.683l.033.457.356 3.09.493 3.11.626 3.097.756 3.089.892 3.101.893 2.718M163.758 424.343l.25.72 1.252 3.759 1.157 3.688 1.068 3.616.977 3.552.89 3.485.802 3.42.404 1.882" style="fill:none;stroke:#ffdf00;stroke-width:1.59466;stroke-linecap:round;stroke-linejoin:round;stroke-miterlimit:500;stroke-dasharray:none;stroke-opacity:1;visibility:visible" visibility="hidden"/><path d="m175.349 335.418.06-.077.004-.161-.116-.146-.22-.11" style="fill:none;stroke:#ffdf00;stroke-width:.663998;stroke-linecap:round;stroke-linejoin:round;stroke-miterlimit:500;stroke-dasharray:none;stroke-opacity:1;visibility:visible" visibility="hidden"/><path d="m173.758 335.129-.076.061-.062.165.056.158.17.13.262.082.318.033.332-.035.302-.088.222-.133.068-.085" style="fill:none;stroke:#ffdf00;stroke-width:.663998;stroke-linecap:round;stroke-linejoin:round;stroke-miterlimit:500;stroke-dasharray:none;stroke-opacity:1;visibility:visible" visibility="hidden"/><path d="m175.077 334.925-.297-.058-.328.003-.323.061-.267.112-.104.087M178.806 336.082l-.233.098-.179.146M178.396 336.326l-.131.107-.11.281.096.268.293.228.448.14.545.05.567-.056.513-.151.387-.228.113-.143M181.117 336.822l.1-.13.008-.279-.196-.251-.383-.185M169.536 333.085l-.27.114-.166.138M169.1 333.337l-.124.102-.106.268.09.256.28.215.43.137.518.046.544-.052.486-.147.37-.216.107-.136M171.694 333.809l.096-.123.006-.266-.187-.24-.361-.177" style="fill:none;stroke:#ffdf00;stroke-width:.663998;stroke-linecap:round;stroke-linejoin:round;stroke-miterlimit:500;stroke-dasharray:none;stroke-opacity:1;visibility:visible" visibility="hidden"/><path d="m173.025 449.033-.33-.172-.202-.225-.035-.176M193.747 451.553l.016.068-.101.263-.163.17M187.541 337.001l.215-.24.054-.257-.113-.243-.268-.203-.227-.093M182.963 334.662l2.573.764 1.663.539M173.876 331.966l6.273 1.861M166.076 333.134l3.53-2.436 1.423.421" style="fill:none;stroke:#ffdf00;stroke-width:1.59466;stroke-linecap:round;stroke-linejoin:round;stroke-miterlimit:500;stroke-dasharray:none;stroke-opacity:1;visibility:visible" visibility="hidden"/><path d="m166.076 333.134-.219.237-.058.256.109.24.26.202.228.092M184.691 339.174l2.85-2.172" style="fill:none;stroke:#ffdf00;stroke-width:.995997;stroke-linecap:round;stroke-linejoin:round;stroke-miterlimit:500;stroke-dasharray:none;stroke-opacity:1;visibility:visible" visibility="hidden"/><path d="m193.5 452.053-2.745 2.292M173.025 449.033l15.747 5.587" style="fill:none;stroke:#ffdf00;stroke-width:1.59466;stroke-linecap:round;stroke-linejoin:round;stroke-miterlimit:500;stroke-dasharray:none;stroke-opacity:1;visibility:visible" visibility="hidden"/><path d="m166.396 334.162 16.245 5.279" style="fill:none;stroke:#ffdf00;stroke-width:.995997;stroke-linecap:round;stroke-linejoin:round;stroke-miterlimit:500;stroke-dasharray:none;stroke-opacity:1;visibility:visible" visibility="hidden"/><path d="m190.754 454.345-.344.203-.437.137-.48.05-.466-.043-.257-.071" style="fill:none;stroke:#ffdf00;stroke-width:1.59466;stroke-linecap:round;stroke-linejoin:round;stroke-miterlimit:500;stroke-dasharray:none;stroke-opacity:1;visibility:visible" visibility="hidden"/><path d="m183.552 339.933-.35 7.181-.249 7.855-.148 7.772-.054 7.684.052 7.59.145 7.49.244 7.392.335 7.287.438 7.18.531 7.069.624 6.953.716 6.837.81 6.716.9 6.594.989 6.47 1.08 6.342M182.64 339.44l.44.09.483.009.477-.074.42-.15.232-.14" style="fill:none;stroke:#ffdf00;stroke-width:.995997;stroke-linecap:round;stroke-linejoin:round;stroke-miterlimit:500;stroke-dasharray:none;stroke-opacity:1;visibility:visible" visibility="hidden"/><path d="m165.641 424.343.25.72 1.251 3.759 1.158 3.688 1.069 3.616.976 3.552.89 3.485.802 3.42.404 1.881M161.608 405.683l.033.456.356 3.09.494 3.11.625 3.099.756 3.088.892 3.101.893 2.717M159.99 379.023l.139 3.693.332 6.947.425 6.852.505 6.756.206 2.412M161.857 360.07l-.036.139-.656 3.074-.515 3.115-.373 3.13-.23 3.153-.095 3.192.045 3.149M165.802 333.531l-.275 3.55-.414 4.093-.499 4.014-.583 3.939-.672 3.861-.76 3.786-.754 3.29M193.765 451.547l-.432-2.44-.984-5.995-.907-6.108-.825-6.224-.743-6.334-.662-6.435-.575-6.55-.493-6.647-.41-6.746-.32-6.845-.238-6.939-.148-7.027-.062-7.12.027-7.202.115-7.281.205-7.361.292-7.435.208-4.259" style="fill:none;stroke:#ffdf00;stroke-width:1.59466;stroke-linecap:round;stroke-linejoin:round;stroke-miterlimit:500;stroke-dasharray:none;stroke-opacity:1;visibility:visible" visibility="hidden"/><path d="m177.232 335.417.06-.077.004-.16-.116-.147-.22-.11M175.641 335.129l-.076.061-.064.166.057.157.171.13.263.083.317.032.332-.034.301-.088.223-.134.067-.085M176.96 334.924l-.299-.057-.326.002-.323.062-.267.112-.104.086M173.578 333.809l.093-.123.008-.266-.186-.24-.362-.176M170.982 333.337l-.125.103-.104.268.089.256.279.214.43.138.518.045.544-.052.488-.147.37-.216.106-.137M171.418 333.084l-.27.115-.166.137M183 336.821l.1-.13.008-.28-.197-.249-.382-.186" style="fill:none;stroke:#ffdf00;stroke-width:.663998;stroke-linecap:round;stroke-linejoin:round;stroke-miterlimit:500;stroke-dasharray:none;stroke-opacity:1;visibility:visible" visibility="hidden"/><path d="m180.28 336.325-.13.107-.111.281.096.268.293.227.448.141.544.05.568-.057.513-.15.387-.228.113-.143M180.69 336.081l-.233.097-.179.147" style="fill:none;stroke:#ffdf00;stroke-width:.663998;stroke-linecap:round;stroke-linejoin:round;stroke-miterlimit:500;stroke-dasharray:none;stroke-opacity:1;visibility:visible" visibility="hidden"/><path d="m171.993 331.967-2.847-.846M171.03 331.12l.963.847M181.08 334.662l-2.812-.832M180.15 333.827l.93.835M185.317 335.965l-2.354-1.303M171.03 331.12l2.846.846M181.08 334.662l-.93-.835M171.993 331.967l-.964-.848" style="fill:none;stroke:#ffdf00;stroke-width:1.59466;stroke-linecap:round;stroke-linejoin:round;stroke-miterlimit:500;stroke-dasharray:none;stroke-opacity:1;visibility:visible" visibility="hidden"/><path d="m244.34 479.531 11.222 6.13M240.055 363.003l4.287 116.527M267.573 484.794l-.027.136-.079.156-.132.144-.177.134" style="fill:none;stroke:#00d4ff;stroke-width:1.59466;stroke-linecap:round;stroke-linejoin:round;stroke-miterlimit:500;stroke-dasharray:none;stroke-opacity:1;visibility:visible" visibility="hidden"/><path d="m251.643 368.81 3.92 116.852" style="fill:none;stroke:#00d4ff;stroke-width:.995997;stroke-linecap:round;stroke-linejoin:round;stroke-miterlimit:500;stroke-dasharray:none;stroke-opacity:1;visibility:visible" visibility="hidden"/><path d="m262.405 488.224 4.754-2.86" style="fill:none;stroke:#00d4ff;stroke-width:1.59466;stroke-linecap:round;stroke-linejoin:round;stroke-miterlimit:500;stroke-dasharray:none;stroke-opacity:1;visibility:visible" visibility="hidden"/><path d="m254.47 370.227 3.828 116.927" style="fill:none;stroke:#00d4ff;stroke-width:.995997;stroke-linecap:round;stroke-linejoin:round;stroke-miterlimit:500;stroke-dasharray:none;stroke-opacity:1;visibility:visible" visibility="hidden"/><path d="m262.405 488.224-.218.111-.252.085-.27.052-.285.023-.28-.01-.273-.041-.25-.068-.22-.098M258.298 487.155l2.059 1.125" style="fill:none;stroke:#00d4ff;stroke-width:1.59466;stroke-linecap:round;stroke-linejoin:round;stroke-miterlimit:500;stroke-dasharray:none;stroke-opacity:1;visibility:visible" visibility="hidden"/><path d="m263.637 368.513.186-.124.135-.139.085-.15.027-.154-.03-.153-.09-.144-.136-.132-.19-.117M258.714 371.237l4.924-2.724M256.593 371.29l.226.093.262.067.281.037.292.008.295-.02.277-.054.26-.079.23-.105M256.593 371.29l-2.124-1.063M254.113 368.935l.226.128.182.143.128.161.074.17.023.178-.037.178-.094.172-.144.164M251.643 368.81l.304-.084.324-.056.335-.031.336.003.328.032.308.061.284.088.25.112M256.583 369.06l.479.172.563.091.593-.006.575-.091.504-.18.386-.245.239-.296.064-.312-.113-.304-.279-.27-.425-.209-.171-.043M256.926 367.42l-.203.099M256.722 367.518l-.248.119-.313.273-.152.304.021.313.199.291.354.242M245.32 363.423l.474.174.561.088.593-.005.57-.093.503-.177.386-.243.238-.292.069-.31-.108-.303-.276-.265-.421-.208-.212-.054M245.674 361.8l-.45.215-.314.269-.156.301.019.311.197.288.348.241M251.38 365.993l.413.137.493.051.497-.051.439-.137.323-.21.157-.257-.025-.263-.202-.237-.353-.175-.463-.097h-.501l-.476.097-.387.175-.245.24-.07.261.118.256.281.21M257.829 371.745l3.69 116.48" style="fill:none;stroke:#00d4ff;stroke-width:.995997;stroke-linecap:round;stroke-linejoin:round;stroke-miterlimit:500;stroke-dasharray:none;stroke-opacity:1;visibility:visible" visibility="hidden"/><path d="m240.055 363.003 4.838-2.638M263.626 367.4l-4.037-2.01M256.206 363.702l-8.176-4.072" style="fill:none;stroke:#00d4ff;stroke-width:1.59466;stroke-linecap:round;stroke-linejoin:round;stroke-miterlimit:500;stroke-dasharray:none;stroke-opacity:1;visibility:visible" visibility="hidden"/><path d="m251.643 368.81-11.589-5.807" style="fill:none;stroke:#00d4ff;stroke-width:.995997;stroke-linecap:round;stroke-linejoin:round;stroke-miterlimit:500;stroke-dasharray:none;stroke-opacity:1;visibility:visible" visibility="hidden"/><path d="m267.573 484.794-3.506-116.82M269.457 484.793l-.027.136-.078.156-.132.145-.178.134M241.939 363.002l4.285 116.526M246.224 479.53l11.223 6.13M257.447 485.66l.292-.088.31-.059.326-.03.323.002.318.035.3.063.276.094.242.119" style="fill:none;stroke:#00d4ff;stroke-width:1.59466;stroke-linecap:round;stroke-linejoin:round;stroke-miterlimit:500;stroke-dasharray:none;stroke-opacity:1;visibility:visible" visibility="hidden"/><path d="m253.527 368.81 3.92 116.852M259.834 485.794l.217.135.178.152.008.009" style="fill:none;stroke:#00d4ff;stroke-width:.995997;stroke-linecap:round;stroke-linejoin:round;stroke-miterlimit:500;stroke-dasharray:none;stroke-opacity:1;visibility:visible" visibility="hidden"/><path d="m264.288 488.224 4.755-2.861" style="fill:none;stroke:#00d4ff;stroke-width:1.59466;stroke-linecap:round;stroke-linejoin:round;stroke-miterlimit:500;stroke-dasharray:none;stroke-opacity:1;visibility:visible" visibility="hidden"/><path d="m256.353 370.227 3.828 116.926" style="fill:none;stroke:#00d4ff;stroke-width:.995997;stroke-linecap:round;stroke-linejoin:round;stroke-miterlimit:500;stroke-dasharray:none;stroke-opacity:1;visibility:visible" visibility="hidden"/><path d="m260.182 487.153 2.059 1.125M264.288 488.224l-.217.11-.252.085-.271.053-.284.023-.281-.011-.272-.039-.251-.07-.22-.098" style="fill:none;stroke:#00d4ff;stroke-width:1.59466;stroke-linecap:round;stroke-linejoin:round;stroke-miterlimit:500;stroke-dasharray:none;stroke-opacity:1;visibility:visible" visibility="hidden"/><path d="m259.712 371.744 3.69 116.48M253.262 365.992l.415.139.492.049.497-.05.439-.138.322-.21.158-.255-.026-.264-.201-.238-.353-.174-.463-.098h-.501l-.478.098-.386.174-.244.24-.07.262.116.256.283.209M247.558 361.8l-.45.213-.315.27-.156.302.02.31.197.289.347.24M247.202 363.423l.475.173.56.088.593-.004.57-.093.503-.177.387-.243.237-.292.07-.31-.108-.303-.279-.266-.419-.208-.212-.053M258.606 367.517l-.248.119-.313.273-.152.304.021.313.199.291.354.241M258.81 367.42l-.203.097M258.467 369.059l.479.173.562.09.594-.004.574-.092.504-.18.387-.246.237-.296.064-.312-.113-.304-.279-.269-.424-.21-.17-.042M253.527 368.81l.304-.084.324-.057.333-.03.338.003.326.032.31.061.284.088.248.112M255.997 368.934l.227.128.18.143.129.161.075.17.021.178-.036.177-.093.172-.146.164M258.477 371.29l.227.093.261.067.281.037.292.008.295-.021.277-.052.26-.08.228-.105M258.477 371.29l-2.124-1.063M260.597 371.236l4.924-2.724M265.52 368.513l.185-.124.136-.139.084-.149.027-.156-.03-.152-.089-.144-.136-.132-.189-.116" style="fill:none;stroke:#00d4ff;stroke-width:.995997;stroke-linecap:round;stroke-linejoin:round;stroke-miterlimit:500;stroke-dasharray:none;stroke-opacity:1;visibility:visible" visibility="hidden"/><path d="m258.09 363.702-8.177-4.072M265.509 367.4l-4.037-2.01M241.939 363.002l4.836-2.639" style="fill:none;stroke:#00d4ff;stroke-width:1.59466;stroke-linecap:round;stroke-linejoin:round;stroke-miterlimit:500;stroke-dasharray:none;stroke-opacity:1;visibility:visible" visibility="hidden"/><path d="m253.527 368.81-11.59-5.807" style="fill:none;stroke:#00d4ff;stroke-width:.995997;stroke-linecap:round;stroke-linejoin:round;stroke-miterlimit:500;stroke-dasharray:none;stroke-opacity:1;visibility:visible" visibility="hidden"/><path d="m269.457 484.793-3.505-116.82" style="fill:none;stroke:#00d4ff;stroke-width:1.59466;stroke-linecap:round;stroke-linejoin:round;stroke-miterlimit:500;stroke-dasharray:none;stroke-opacity:1;visibility:visible" visibility="hidden"/><path d="m241.939 363.002 3.735-1.202" style="fill:none;stroke:#00d4ff;stroke-width:.995997;stroke-linecap:round;stroke-linejoin:round;stroke-miterlimit:500;stroke-dasharray:none;stroke-opacity:1;visibility:visible" visibility="hidden"/><path d="m241.939 363.002 2.954-2.637M258.09 363.702l1.499 1.688M259.589 365.39l-3.383-1.688M251.643 368.81l-3.613-9.18" style="fill:none;stroke:#00d4ff;stroke-width:1.59466;stroke-linecap:round;stroke-linejoin:round;stroke-miterlimit:500;stroke-dasharray:none;stroke-opacity:1;visibility:visible" visibility="hidden"/><path d="m263.624 367.4-10.362-1.408" style="fill:none;stroke:#00d4ff;stroke-width:.995997;stroke-linecap:round;stroke-linejoin:round;stroke-miterlimit:500;stroke-dasharray:none;stroke-opacity:1;visibility:visible" visibility="hidden"/><path d="m259.589 365.39-1.499-1.688M256.206 363.702l-6.293-4.072M263.626 367.4l-2.154-2.01M240.055 363.003l6.72-2.64" style="fill:none;stroke:#00d4ff;stroke-width:1.59466;stroke-linecap:round;stroke-linejoin:round;stroke-miterlimit:500;stroke-dasharray:none;stroke-opacity:1;visibility:visible" visibility="hidden"/><path d="m356.62 284.52.084 23.642M356.762 323.626l.23 62.83M357.047 401.595l.059 16.036M357.106 417.634l15.852 7.92M374.896 425.503l4.295-2.593M379.544 422.435l-.012.078-.068.14-.114.137-.158.116" style="fill:none;stroke:#ff008a;stroke-width:1.59466;stroke-linecap:round;stroke-linejoin:round;stroke-miterlimit:500;stroke-dasharray:none;stroke-opacity:1;visibility:visible" visibility="hidden"/><path d="m372.496 288.796-.114.097-.119.275.048.278.213.26.36.218M361.672 284.892l.47.153.536.08.568-.005.536-.084.464-.158.348-.22.201-.26.036-.276-.13-.27-.285-.239-.414-.185M361.463 283.63l-.28.243-.123.27.046.279.212.255.352.215M367.66 287.186l.411.124.47.043.473-.044.404-.125.288-.191.132-.225-.046-.236-.216-.212-.352-.158-.444-.084h-.482l-.443.087-.355.16-.21.212-.047.233.132.227.285.19M375.095 291.868l4.457-2.44" style="fill:none;stroke:#ff008a;stroke-width:.995997;stroke-linecap:round;stroke-linejoin:round;stroke-miterlimit:500;stroke-dasharray:none;stroke-opacity:1;visibility:visible" visibility="hidden"/><path d="m372.883 289.922.47.156.543.078.564-.003.542-.087.464-.16.348-.22.196-.261.037-.28-.133-.272-.288-.241-.419-.187-.395-.092" style="fill:none;stroke:#ff008a;stroke-width:.995997;stroke-linecap:round;stroke-linejoin:round;stroke-miterlimit:500;stroke-dasharray:none;stroke-opacity:1;visibility:visible" visibility="hidden"/><path d="m356.62 284.52 4.415-2.382M372.01 285.109l-7.196-3.217M374.98 287.382l.248.099.28.079.297.05.314.03.323.002.314-.024.3-.05.28-.076M379.45 288.434l-2.114-.944M379.554 289.43l.166-.112.118-.124.07-.134.009-.14-.041-.131-.096-.133-.144-.12-.188-.099" style="fill:none;stroke:#ff008a;stroke-width:1.59466;stroke-linecap:round;stroke-linejoin:round;stroke-miterlimit:500;stroke-dasharray:none;stroke-opacity:1;visibility:visible" visibility="hidden"/><path d="m373.463 425.3-.132-133.132M373.08 291.916l.22.084.255.057.27.036.281.007.275-.02.267-.046.238-.073.21-.093M373.08 291.916l-16.46-7.396" style="fill:none;stroke:#ff008a;stroke-width:.995997;stroke-linecap:round;stroke-linejoin:round;stroke-miterlimit:500;stroke-dasharray:none;stroke-opacity:1;visibility:visible" visibility="hidden"/><path d="m374.896 425.503-.196.099-.234.078-.25.05-.271.02-.266-.007-.259-.04-.249-.061-.216-.09M379.544 422.435l.376-133.447" style="fill:none;stroke:#ff008a;stroke-width:1.59466;stroke-linecap:round;stroke-linejoin:round;stroke-miterlimit:500;stroke-dasharray:none;stroke-opacity:1;visibility:visible" visibility="hidden"/><path d="M360.974 313a.373.373 0 0 0-.362-.423M360.974 313l-.084 8.457M360.516 322.125c.224-.15.362-.4.372-.67M356.327 319.274l.05-6.45M359.8 312.67c.213.006.427-.016.635-.062M360.44 312.609l.171-.03M352.143 312.526a6.245 6.245 0 0 0-2.04.278M348.886 322.237l11.63-.112M360.42 321.934l-4.094-2.47M356.327 319.464l-7.441 2.773M348.886 322.237l.032-8.473M349.418 313.032a.807.807 0 0 0-.5.733M349.418 313.032l.686-.227M352.143 312.526l7.657.144M352.514 318.238l.485-.244.447-.382.37-.492.269-.56.139-.58.004-.562-.136-.49-.258-.383-.367-.245-.444-.082-.483.082-.489.242-.45.383-.371.492-.268.563-.14.584-.003.562.135.49.261.384.37.24.445.083.484-.085M349.007 322.124v.004M357.08 309.362a1.247 1.247 0 0 0-.99-.09M360.42 322.889l.121-.041M360.54 322.849c.57-.229.943-.775.951-1.385M359.706 322.992c.242.008.482-.027.713-.103M352.091 322.849a6.293 6.293 0 0 0-2.127.297M349.038 323.462l.928-.317M347.312 322.105a1.247 1.247 0 0 0 .622 1.085M361.527 317.834a11.733 11.733 0 0 0 .005-1.924M347.935 323.19l.381.22M348.328 323.402a.81.81 0 0 0 .71.062M361.49 321.462l.038-3.684M361.546 316.129l.037-3.681M352.091 322.849l7.613.144M361.14 311.593l-4.06-2.23M361.584 312.449a.832.832 0 0 0-.457-.845M356.092 309.272l-7.889 2.608M347.34 313.074l-.028 9.03M348.204 311.88a1.26 1.26 0 0 0-.862 1.194M361.692 390.682a.373.373 0 0 0-.36-.424M361.692 390.682l-.084 8.455M361.234 399.805a.842.842 0 0 0 .372-.67M357.044 396.955l.05-6.45M360.516 390.351c.215.006.43-.016.638-.061M361.155 390.289l.173-.031M352.86 390.207a6.245 6.245 0 0 0-2.04.278M349.603 399.918l11.63-.112M361.136 399.614l-4.092-2.47M357.044 397.143l-7.442 2.775M349.603 399.918l.032-8.473M350.135 390.71a.807.807 0 0 0-.5.735M350.135 390.711l.687-.226M352.86 390.207l7.658.144M353.232 395.92l.486-.246.446-.381.37-.491.27-.56.14-.581.002-.562-.135-.489-.259-.384-.366-.244-.444-.083-.484.082-.488.242-.45.383-.373.492-.267.563-.14.584-.002.562.134.491.263.383.37.241.445.081.482-.083M349.724 399.805v.004M357.798 387.043a1.247 1.247 0 0 0-.988-.09M361.136 400.569l.124-.04M361.258 400.529c.568-.229.942-.775.95-1.386M360.422 400.673c.242.009.482-.027.713-.103M352.808 400.529a6.307 6.307 0 0 0-2.128.298M349.755 401.145l.928-.318M348.031 399.785a1.245 1.245 0 0 0 .621 1.085M362.244 395.515a11.733 11.733 0 0 0 .006-1.924M348.652 400.871l.382.219M349.046 401.082a.812.812 0 0 0 .71.063M362.208 399.142l.04-3.683M362.264 393.811l.038-3.681M352.808 400.529l7.614.144M361.856 389.274l-4.06-2.23M362.302 390.13a.832.832 0 0 0-.458-.845M356.81 386.953l-7.888 2.609M348.058 390.755l-.028 9.031M348.922 389.562a1.26 1.26 0 0 0-.863 1.192" style="fill:none;stroke:#ff008a;stroke-width:.995997;stroke-linecap:round;stroke-linejoin:round;stroke-miterlimit:10;stroke-dasharray:none;stroke-opacity:1;visibility:visible" visibility="hidden"/><path d="m381.428 422.435-.012.077-.07.142-.113.136-.157.116M376.78 425.503l4.293-2.595M358.99 417.633l15.85 7.92M358.93 401.595l.059 16.036M358.645 323.626l.23 62.83M358.504 284.518l.084 23.643" style="fill:none;stroke:#ff008a;stroke-width:1.59466;stroke-linecap:round;stroke-linejoin:round;stroke-miterlimit:500;stroke-dasharray:none;stroke-opacity:1;visibility:visible" visibility="hidden"/><path d="m369.545 287.185.41.123.47.044.473-.044.404-.126.288-.19.131-.226-.044-.236-.216-.212-.353-.157-.444-.084h-.48l-.444.087-.356.16-.212.212-.044.233.132.227.285.189M363.347 283.63l-.28.243-.123.27.046.278.21.256.355.214M363.556 284.89l.468.153.537.08.567-.004.537-.085.464-.157.348-.22.2-.26.038-.276-.13-.271-.288-.239-.412-.185M374.38 288.794l-.115.097-.118.275.048.279.212.26.36.217M374.767 289.922l.47.156.542.077.565-.002.542-.087.464-.16.348-.22.197-.261.036-.28-.133-.272-.29-.242-.417-.186-.395-.092M376.98 291.867l4.457-2.439" style="fill:none;stroke:#ff008a;stroke-width:.995997;stroke-linecap:round;stroke-linejoin:round;stroke-miterlimit:500;stroke-dasharray:none;stroke-opacity:1;visibility:visible" visibility="hidden"/><path d="m381.438 289.429.167-.112.117-.124.068-.135.012-.138-.041-.134-.096-.132-.144-.118-.188-.102M381.333 288.433l-2.113-.944M376.864 287.38l.247.099.278.08.3.05.312.028.323.003.316-.024.3-.05.279-.077M373.893 285.109l-7.196-3.217M358.504 284.518l4.415-2.381" style="fill:none;stroke:#ff008a;stroke-width:1.59466;stroke-linecap:round;stroke-linejoin:round;stroke-miterlimit:500;stroke-dasharray:none;stroke-opacity:1;visibility:visible" visibility="hidden"/><path d="m374.963 291.915.221.084.256.057.27.036.278.007.276-.02.268-.045.238-.074.21-.093M374.963 291.915l-16.459-7.396M375.347 425.298l-.132-133.13" style="fill:none;stroke:#ff008a;stroke-width:.995997;stroke-linecap:round;stroke-linejoin:round;stroke-miterlimit:500;stroke-dasharray:none;stroke-opacity:1;visibility:visible" visibility="hidden"/><path d="m376.78 425.503-.197.099-.234.078-.25.05-.27.02-.266-.007-.262-.04-.246-.061-.216-.091M381.428 422.435l.375-133.448" style="fill:none;stroke:#ff008a;stroke-width:1.59466;stroke-linecap:round;stroke-linejoin:round;stroke-miterlimit:500;stroke-dasharray:none;stroke-opacity:1;visibility:visible" visibility="hidden"/><path d="M350.804 389.562a1.261 1.261 0 0 0-.864 1.192M349.942 390.754l-.028 9.03M358.693 386.951l-7.89 2.61M364.184 390.13a.835.835 0 0 0-.457-.845M363.74 389.273l-4.06-2.23M354.693 400.527l7.613.144M364.148 393.81l.037-3.681M364.092 399.142l.039-3.683M350.928 401.082a.812.812 0 0 0 .71.063M350.536 400.87l.381.219M349.914 399.785a1.245 1.245 0 0 0 .621 1.085M364.127 395.515a11.733 11.733 0 0 0 .005-1.924M351.64 401.144l.928-.317M363.14 400.529c.568-.229.943-.775.951-1.386M362.306 400.673c.241.009.482-.027.713-.103M354.692 400.529a6.293 6.293 0 0 0-2.126.298M363.02 400.57l.123-.04M359.68 387.043a1.247 1.247 0 0 0-.99-.09M351.608 399.803v.004M355.116 395.919l.485-.244.447-.383.37-.49.269-.56.14-.582.004-.561-.135-.49-.26-.383-.367-.244-.444-.083-.485.081-.487.243-.449.383-.372.492-.268.562-.141.584-.003.563.136.49.263.383.369.242.444.081.484-.084M354.745 390.206l7.656.144M352.02 390.71l.685-.227M352.018 390.711a.807.807 0 0 0-.5.734M351.487 399.918l.03-8.473M358.928 397.143l-7.441 2.775M363.02 399.614l-4.092-2.47M351.487 399.918l11.63-.112M354.743 390.207a6.245 6.245 0 0 0-2.04.278M363.04 390.288l.173-.03M362.4 390.351c.213.006.427-.016.635-.061M358.928 396.954l.05-6.45M363.116 399.805a.84.84 0 0 0 .372-.67M363.575 390.681l-.085 8.455M350.087 311.88a1.261 1.261 0 0 0-.864 1.194M363.575 390.682a.373.373 0 0 0-.363-.424M349.224 313.073l-.028 9.03M357.976 309.27l-7.89 2.61M363.466 312.449a.835.835 0 0 0-.458-.845M363.023 311.592l-4.06-2.23M353.975 322.847l7.613.144M363.43 316.13l.037-3.681M363.374 321.461l.039-3.684M350.211 323.402a.81.81 0 0 0 .71.062M349.818 323.19l.381.219M349.196 322.105a1.247 1.247 0 0 0 .622 1.085M363.41 317.834a11.733 11.733 0 0 0 .005-1.924M350.921 323.462l.928-.317M362.423 322.849c.568-.229.943-.775.95-1.385M361.588 322.992a2.06 2.06 0 0 0 .714-.103M353.974 322.849a6.293 6.293 0 0 0-2.127.297M362.302 322.889l.123-.041M358.963 309.362a1.247 1.247 0 0 0-.988-.09M350.89 322.123v.004M354.398 318.238l.485-.244.447-.383.37-.49.269-.56.14-.582.004-.561-.138-.49-.257-.383-.367-.244-.444-.083-.485.081-.487.243-.45.383-.371.492-.268.562-.141.584-.003.563.136.49.261.383.371.242.444.081.484-.084M354.027 312.525l7.656.144M351.302 313.03l.685-.227M351.3 313.032a.807.807 0 0 0-.5.733M350.77 322.236l.032-8.473M358.21 319.463l-7.441 2.773M362.302 321.934l-4.092-2.47M350.77 322.236l11.63-.112M354.026 312.526a6.245 6.245 0 0 0-2.04.278M362.322 312.607l.173-.03M361.682 312.67c.214.006.43-.016.637-.062M358.21 319.273l.05-6.45M362.4 322.125c.222-.15.36-.4.37-.67M362.858 313l-.085 8.455M362.856 313a.373.373 0 0 0-.362-.422" style="fill:none;stroke:#ff008a;stroke-width:.995997;stroke-linecap:round;stroke-linejoin:round;stroke-miterlimit:10;stroke-dasharray:none;stroke-opacity:1;visibility:visible" visibility="hidden"/><path d="m356.377 312.824.327-4.662M356.327 319.274l.435 4.352M357.044 396.955l.003 4.64M358.504 284.518l2.531-2.38M374.98 287.382l-2.97-2.273M373.893 285.109l-9.079-3.217" style="fill:none;stroke:#ff008a;stroke-width:1.59466;stroke-linecap:round;stroke-linejoin:round;stroke-miterlimit:500;stroke-dasharray:none;stroke-opacity:1;visibility:visible" visibility="hidden"/><path d="m356.704 308.162-.327 4.662M351.3 313.032l1.214 5.206M360.44 312.609l-7.926 5.629M356.992 386.456l.102 4.049M352.018 390.711l1.214 5.209M361.155 390.289l-7.923 5.631" style="fill:none;stroke:#ff008a;stroke-width:.995997;stroke-linecap:round;stroke-linejoin:round;stroke-miterlimit:10;stroke-dasharray:none;stroke-opacity:1;visibility:visible" visibility="hidden"/><path d="m361.608 399.137-2.678 2.458M360.89 321.457l-2.245 2.169M358.26 312.822l.328-4.661" style="fill:none;stroke:#ff008a;stroke-width:1.59466;stroke-linecap:round;stroke-linejoin:round;stroke-miterlimit:500;stroke-dasharray:none;stroke-opacity:1;visibility:visible" visibility="hidden"/><path d="m372.01 285.109-6.125-1.683" style="fill:none;stroke:#ff008a;stroke-width:.995997;stroke-linecap:round;stroke-linejoin:round;stroke-miterlimit:500;stroke-dasharray:none;stroke-opacity:1;visibility:visible" visibility="hidden"/><path d="m374.98 287.382-1.087-2.273M372.01 285.109l-5.313-3.217M356.62 284.52l6.299-2.383" style="fill:none;stroke:#ff008a;stroke-width:1.59466;stroke-linecap:round;stroke-linejoin:round;stroke-miterlimit:500;stroke-dasharray:none;stroke-opacity:1;visibility:visible" visibility="hidden"/><path d="m352.018 390.711 3.098 5.208M361.155 390.289l-6.039 5.63M358.874 386.455l.103 4.048M351.3 313.032l3.098 5.206M360.44 312.609l-6.042 5.629M361.546 316.129l-3.287-3.307" style="fill:none;stroke:#ff008a;stroke-width:.995997;stroke-linecap:round;stroke-linejoin:round;stroke-miterlimit:10;stroke-dasharray:none;stroke-opacity:1;visibility:visible" visibility="hidden"/><path d="m247.859 494.038 10.984 12.237" style="fill:none;stroke:#00ff4a;stroke-width:.995997;stroke-linecap:round;stroke-linejoin:round;stroke-miterlimit:500;stroke-dasharray:none;stroke-opacity:1;visibility:visible"/><path d="m221.725 499.138-19.146 2.78" style="fill:none;stroke:#00ff4a;stroke-width:1.59466;stroke-linecap:round;stroke-linejoin:round;stroke-miterlimit:500;stroke-dasharray:none;stroke-opacity:1;visibility:visible"/><path d="m249.913 359.63 1.466 6.363" style="fill:none;stroke:#00d4ff;stroke-width:.995997;stroke-linecap:round;stroke-linejoin:round;stroke-miterlimit:500;stroke-dasharray:none;stroke-opacity:1;visibility:visible" visibility="hidden"/><path d="m358.504 284.518 13.992 4.278M358.504 284.518l2.959-.888M372.01 285.109l-4.35 2.077M372.01 285.109l-4.35 2.078M372.01 285.109l-2.465 2.076M372.01 285.109l-2.465 2.076" style="fill:none;stroke:#ff008a;stroke-width:.995997;stroke-linecap:round;stroke-linejoin:round;stroke-miterlimit:500;stroke-dasharray:none;stroke-opacity:1;visibility:visible" visibility="hidden"/></svg>