<svg xmlns="http://www.w3.org/2000/svg" baseProfile="full" height="1122.52" preserveAspectRatio="xMinYMin meet" style="width:738px;height:965px" width="793.701" xml:space="preserve"><path d="m333.116 597.18.564.337 3.974 3.151c3.412 2.55 4.388 7.425 3.374 11.588l-1.202 4.668" style="fill:none;stroke:red;stroke-width:1.33333;stroke-linecap:round;stroke-linejoin:round;stroke-miterlimit:10;stroke-dasharray:none;stroke-opacity:1;visibility:visible"/><path d="M330.754 943.606c-.037 0-.112-.038-.15-.038M310.993 644.393c-5.175 21.225-6.526 43.312-4.875 65.1l18.187 223.613c.412 4.124 3 8.89 7.088 9.602M318.191 932.204l-.037-.036M328.617 942.818l-.227-.114M318.417 932.804v.15M318.493 933.443l.037.15M318.605 934.08c.074.263.112.527.188.788M318.942 935.318l.037.15M319.13 935.88l.037.188M319.317 936.443c.188.45.373.861.6 1.275M320.142 938.092c.3.526.713 1.05 1.088 1.538M321.529 939.93l.111.113M321.942 940.304c.15.188.337.302.525.451M318.342 932.168v.112" style="fill:none;stroke:red;stroke-width:.666665;stroke-linecap:round;stroke-linejoin:round;stroke-miterlimit:10;stroke-dasharray:none;stroke-opacity:1;visibility:visible"/><path d="M329.142 944.588c1.237.975 2.888 1.312 4.462 1.312 1.65-.073 3.638-.749 3.826-2.36l.037-.265" style="fill:none;stroke:red;stroke-width:1.33333;stroke-linecap:round;stroke-linejoin:round;stroke-miterlimit:10;stroke-dasharray:none;stroke-opacity:1;visibility:visible"/><path d="M328.617 942.892h0" style="fill:none;stroke:red;stroke-width:.666665;stroke-linecap:round;stroke-linejoin:round;stroke-miterlimit:10;stroke-dasharray:none;stroke-opacity:1;visibility:visible"/><path d="m337.774 624.895-4.695 18.224c-5.286 21-6.674 42.861-4.913 64.461l18.601 220.201c.187 5.024-1.725 10.273-5.887 13.161l-.113.038-9.937 2.4c-.037 0-.113 0-.15-.037l-.79-.112-.41-.113c-2.4-.526-4.763-1.388-7.013-2.363l-.225-.112c-2.475-2.063-3.788-5.25-4.088-8.475l-17.887-222.187c-1.762-23.325-.3-46.95 5.175-69.713l7.724-31.161c1.801-6.902 7.95-12.75 15.039-13.163 1.574 0 3.185.261 4.537 1.012" style="fill:none;stroke:red;stroke-width:1.33333;stroke-linecap:round;stroke-linejoin:round;stroke-miterlimit:10;stroke-dasharray:none;stroke-opacity:1;visibility:visible"/><path d="m318.83 613.081-7.837 31.312M340.504 612.481c.676-2.811.638-5.964-.974-8.401-1.426-2.212-4.088-3.337-6.713-3.375-6.638.339-12.227 5.965-13.987 12.375" style="fill:none;stroke:red;stroke-width:.666665;stroke-linecap:round;stroke-linejoin:round;stroke-miterlimit:10;stroke-dasharray:none;stroke-opacity:1;visibility:visible"/><path d="M332.054 609.37c1.15.787 1.443 2.448.819 4.026M330.795 615.87c-1.188.743-2.577.938-3.51.3M328.166 595.419c-12.84-2.916-17.4 10.761-17.4 10.761a682.488 682.488 0 0 0-7.387 28.275c-.074.225-1.304 5.173 1.447 7.34" style="fill:none;stroke:red;stroke-width:.666665;stroke-linecap:round;stroke-linejoin:round;stroke-miterlimit:10;stroke-dasharray:none;stroke-opacity:1;visibility:visible"/><path d="M327.285 616.17c-1.4-.955-1.248-3.415-.008-5.234 1.24-1.816 3.378-2.519 4.777-1.566" style="fill:none;stroke:red;stroke-width:.999997;stroke-linecap:round;stroke-linejoin:round;stroke-miterlimit:10;stroke-dasharray:none;stroke-opacity:1;visibility:visible"/><path d="M331.343 609.196c.795.541.944 1.787.477 3.095M329.943 614.899c-1.076.856-2.317 1.209-3.065.7" style="fill:none;stroke:red;stroke-width:.666665;stroke-linecap:round;stroke-linejoin:round;stroke-miterlimit:10;stroke-dasharray:none;stroke-opacity:1;visibility:visible"/><path d="M329.991 610.228c.439.299.627.85.556 1.441M328.9 613.703c-.466.169-.944.164-1.293-.075" style="fill:none;stroke:red;stroke-width:.999997;stroke-linecap:round;stroke-linejoin:round;stroke-miterlimit:10;stroke-dasharray:none;stroke-opacity:1;visibility:visible"/><path d="M327.606 613.628c-.699-.476-.624-1.708-.004-2.616.62-.91 1.69-1.26 2.39-.784" style="fill:none;stroke:red;stroke-width:.999997;stroke-linecap:round;stroke-linejoin:round;stroke-miterlimit:10;stroke-dasharray:none;stroke-opacity:1;visibility:visible"/><path d="M324.78 637.987c1.397.953 1.526 3.2.288 5.02-1.239 1.818-3.659 2.732-5.059 1.78" style="fill:none;stroke:red;stroke-width:.666665;stroke-linecap:round;stroke-linejoin:round;stroke-miterlimit:10;stroke-dasharray:none;stroke-opacity:1;visibility:visible"/><path d="M320.01 644.787c-1.4-.955-1.248-3.415-.008-5.234 1.24-1.818 3.378-2.52 4.777-1.566" style="fill:none;stroke:red;stroke-width:.999997;stroke-linecap:round;stroke-linejoin:round;stroke-miterlimit:10;stroke-dasharray:none;stroke-opacity:1;visibility:visible"/><path d="M324.189 637.6c1.126.768 1.034 2.864-.204 4.685-1.24 1.819-3.422 2.895-4.547 2.126" style="fill:none;stroke:red;stroke-width:.666665;stroke-linecap:round;stroke-linejoin:round;stroke-miterlimit:10;stroke-dasharray:none;stroke-opacity:1;visibility:visible"/><path d="M322.717 638.843c.7.477.763 1.6.143 2.51-.62.91-1.83 1.367-2.53.89" style="fill:none;stroke:red;stroke-width:.666665;stroke-linecap:round;stroke-linejoin:round;stroke-miterlimit:10;stroke-dasharray:none;stroke-opacity:1;visibility:visible"/><path d="M320.333 642.243c-.7-.476-.624-1.706-.004-2.616.62-.91 1.689-1.26 2.389-.784" style="fill:none;stroke:red;stroke-width:.999997;stroke-linecap:round;stroke-linejoin:round;stroke-miterlimit:10;stroke-dasharray:none;stroke-opacity:1;visibility:visible"/><path d="M137.18 666.893c-.188 3.488 3.112 5.964 6.037 7.913 2.437 1.687 5.025 3.15 7.65 4.614 2.926 1.686 5.926 3.224 8.926 4.798 3.636 1.914 7.349 3.788 11.024 5.663M383.028 741.705c15.188-5.512 29.363-15.637 36-30.337M170.817 689.881c1.05.525 2.063 1.012 3.075 1.537 41.437 21.376 83.437 43.126 129.113 52.5M191.893 707.017c6.112 3.188 12.262 6.413 18.487 9.488M331.542 747.705c17.25 1.013 34.8-.3 51.15-5.85" style="fill:none;stroke:red;stroke-width:.666665;stroke-linecap:round;stroke-linejoin:round;stroke-miterlimit:10;stroke-dasharray:none;stroke-opacity:1;visibility:visible"/><path d="M332.029 753.256c16.8.749 33.824-.75 49.725-6.263l.336-.113c13.313-4.763 25.651-12.975 33.338-24.824M415.579 721.793a49.747 49.747 0 0 0 3.937-7.688M222.266 642.256c-15.263 3.45-30.525 6.788-45.786 10.237-4.576 1.014-9.188 2.024-13.764 3.037-5.25 1.163-10.536 2.288-15.674 3.976-4.276 1.424-9.338 3.487-10.388 7.912l-.076.6-.186 4.723c-.038.303 0 .641.037.939 1.613 5.738 7.987 8.513 13.125 11.476 6.376 3.712 12.976 7.086 19.538 10.461a77.226 77.226 0 0 1 3 1.539c42.037 21.9 84.862 43.798 131.362 52.686" style="fill:none;stroke:red;stroke-width:1.33333;stroke-linecap:round;stroke-linejoin:round;stroke-miterlimit:10;stroke-dasharray:none;stroke-opacity:1;visibility:visible"/><path d="m120.342 839.393 23.1-134.175c1.463-7.237 6.863-13.725 14.026-15.674M129.717 828.443v-.076M127.13 836.73l.112-.188M129.754 828.367h0M127.242 836.543a35.584 35.584 0 0 0 1.312-3.526M128.666 832.642l.076-.15M128.856 832.117l.037-.15M129.005 831.555l.037-.112M129.154 830.993v-.075M129.305 830.467c.15-.674.3-1.35.412-2.025M120.266 843.93c-.562-1.424-.188-3.037.075-4.537" style="fill:none;stroke:red;stroke-width:.666665;stroke-linecap:round;stroke-linejoin:round;stroke-miterlimit:10;stroke-dasharray:none;stroke-opacity:1;visibility:visible"/><path d="M123.465 843.475c.263-.074 1.319-.149 1.544-.224 1.012-.413 1.987-1.238 1.987-2.325l-.038-2.07M129.754 828.367l22.95-131.737c.956-2.96 2.122-4.793 5.55-6.524M129.717 828.593a38.148 38.148 0 0 1-2.475 8.1l-.037.074-5.437 7.276a1 1 0 0 1-.826.411h-.188l-5.961-1.761c-1.95-.676-1.425-3.638-1.088-5.7l22.837-134.025a29.227 29.227 0 0 1 4.2-10.462 27.353 27.353 0 0 1 2.588-3.264l4.836-4.874" style="fill:none;stroke:red;stroke-width:1.33333;stroke-linecap:round;stroke-linejoin:round;stroke-miterlimit:10;stroke-dasharray:none;stroke-opacity:1;visibility:visible"/><path d="m286.466 756.742-1.763 17.475c-.149 2.139.977 4.237 2.777 5.4" style="fill:none;stroke:red;stroke-width:.666665;stroke-linecap:round;stroke-linejoin:round;stroke-miterlimit:10;stroke-dasharray:none;stroke-opacity:1;visibility:visible"/><path d="M289.917 781.237c.188.823 1.125 1.199 1.95 1.423 1.8.45 4.575.414 4.763-1.423M284.175 755.32l-1.537 15.562c-.075.675-.037 1.2.075 1.875l.601 3.037c.075.3.15.602.261.863.563 1.5 2.142 2.585 3.53 3.336l.037.037h13.012" style="fill:none;stroke:red;stroke-width:1.33333;stroke-linecap:round;stroke-linejoin:round;stroke-miterlimit:10;stroke-dasharray:none;stroke-opacity:1;visibility:visible"/><path d="m283.017 745.193 9.337 8.625c8.55 8.288 12.276 20.74 13.912 32.512M293.517 752.694l10.088-1.124" style="fill:none;stroke:red;stroke-width:.666665;stroke-linecap:round;stroke-linejoin:round;stroke-miterlimit:10;stroke-dasharray:none;stroke-opacity:1;visibility:visible"/><path d="m270.08 741.405 21.11 19.763M291.191 761.169c6.526 6.45 9.075 15.973 9.826 25.087l2.437 30.448c.412 4.314 2.288 8.739 5.925 11.102" style="fill:none;stroke:red;stroke-width:1.33333;stroke-linecap:round;stroke-linejoin:round;stroke-miterlimit:10;stroke-dasharray:none;stroke-opacity:1;visibility:visible"/><path d="M414.87 722.876c5.4 4.161 9.825 9.524 12.974 15.562M439.016 776.582c-1.125-1.5-1.913-3.225-2.474-4.986l-7.95-25.202c-2.812-8.437-8.138-15.974-15.152-21.412" style="fill:none;stroke:red;stroke-width:.666665;stroke-linecap:round;stroke-linejoin:round;stroke-miterlimit:10;stroke-dasharray:none;stroke-opacity:1;visibility:visible"/><path d="M482.404 867.866v1.432c0 1.013-.788 1.875-1.724 2.25-1.127.488-2.401.526-3.6.301l-2.615-1.791M409.916 729.218c6 4.163 10.575 10.352 12.824 17.326l7.914 25.088c1.312 4.048 4.388 8.548 8.624 7.986" style="fill:none;stroke:red;stroke-width:1.33333;stroke-linecap:round;stroke-linejoin:round;stroke-miterlimit:10;stroke-dasharray:none;stroke-opacity:1;visibility:visible"/><path d="m429.219 598.523-3.59 17.782c-3.712 18.975-2.099 37.65 3.601 56.137l56.288 179.363c1.049 3.974 1.162 8.362-.601 12.075l-.077.113-4.948 4.949c-.112.075-.225.15-.375.188-.337.037-.676.112-.676.112 0-.037.3-.075.6-.112l-.6.15-.337.037-1.837.038c-1.763 0-3.527-.113-5.288-.262-.112-.039-.226-.039-.339-.076-2.174-1.012-3.41-3.411-4.16-5.738l-57.19-181.574c-6.074-19.837-7.986-41.062-4.199-61.462l5.513-28.199c1.2-5.813 3.826-11.888 8.963-14.85 1.124-.564 2.475-.79 3.6-.227l5.812 2.401-.487-.188c3.262 1.201 3.036 5.85 2.362 9.263" style="fill:none;stroke:red;stroke-width:1.33333;stroke-linecap:round;stroke-linejoin:round;stroke-miterlimit:10;stroke-dasharray:none;stroke-opacity:1;visibility:visible"/><path d="M404.855 624.03c-5.028-1.193-3.488-7.61-3.413-8.173 1.425-8.627 2.641-17.298 5.062-25.688 1.864-6.457 4.667-10.542 6.072-11.889 1-.957 3.334-2.167 5.042-2.152l2.874.612M417.303 595.044c1.276-6 3.825-12.45 9.15-15.45.451-.227.864-.452 1.351-.488M415.579 680.954c-5.7-18.598-7.425-38.511-3.863-57.637l5.587-28.274M476.928 868.98c-2.098-1.012-3.188-3.373-3.937-5.586l-57.412-182.44" style="fill:none;stroke:red;stroke-width:.666665;stroke-linecap:round;stroke-linejoin:round;stroke-miterlimit:10;stroke-dasharray:none;stroke-opacity:1;visibility:visible"/><path d="m337.774 624.895 2.052-7.971" style="fill:none;stroke:red;stroke-width:1.33333;stroke-linecap:round;stroke-linejoin:round;stroke-miterlimit:10;stroke-dasharray:none;stroke-opacity:1;visibility:visible"/><path d="m329.142 944.588-6.675-3.833" style="fill:none;stroke:red;stroke-width:.666665;stroke-linecap:round;stroke-linejoin:round;stroke-miterlimit:10;stroke-dasharray:none;stroke-opacity:1;visibility:visible"/><path d="m322.467 940.755 6.675 3.833M339.826 616.924l-2.052 7.971" style="fill:none;stroke:red;stroke-width:1.33333;stroke-linecap:round;stroke-linejoin:round;stroke-miterlimit:10;stroke-dasharray:none;stroke-opacity:1;visibility:visible"/><path d="m337.774 624.895 2.73-12.414M319.438 644.411l-14.612-2.616" style="fill:none;stroke:red;stroke-width:.666665;stroke-linecap:round;stroke-linejoin:round;stroke-miterlimit:10;stroke-dasharray:none;stroke-opacity:1;visibility:visible"/><path d="m129.154 830.993-2.196 7.863M306.266 786.33l-16.349-5.093" style="fill:none;stroke:red;stroke-width:1.33333;stroke-linecap:round;stroke-linejoin:round;stroke-miterlimit:10;stroke-dasharray:none;stroke-opacity:1;visibility:visible"/><path d="m291.19 761.168-8.173-15.975M289.917 781.237l16.349 5.093" style="fill:none;stroke:red;stroke-width:.666665;stroke-linecap:round;stroke-linejoin:round;stroke-miterlimit:10;stroke-dasharray:none;stroke-opacity:1;visibility:visible"/><path d="m417.303 595.044 11.916 3.479M417.303 595.043l13.951-6.6" style="fill:none;stroke:red;stroke-width:1.33333;stroke-linecap:round;stroke-linejoin:round;stroke-miterlimit:10;stroke-dasharray:none;stroke-opacity:1;visibility:visible"/><path d="M345.454 517.043a457.095 457.095 0 0 0-55.612 17.776M257.78 682.981c-20.407-13.125-36.986-34.341-39.275-59.091-2.338-25.279 10.701-49.122 29.646-65.089 12.319-10.378 26.851-17.913 41.69-23.981M345.454 517.043c14.414-3.57 29.096-5.719 43.82-7.61M408.944 506.962a661.505 661.505 0 0 0 17.516-2.45c3.686-.574 7.367-1.222 11.084-1.57 1.856-.175 5.599-.252 7.463-.232 1.628.016 3.396-.083 4.937.533" style="fill:none;stroke:#00ff4a;stroke-width:.666665;stroke-linecap:round;stroke-linejoin:round;stroke-miterlimit:10;stroke-dasharray:none;stroke-opacity:1;visibility:visible" visibility="hidden"/><path d="M452.066 532.268c1.084-3.26 2.07-6.552 3.12-9.822 1.039-3.232 2.354-6.556 2.113-10.012-.403-5.684-4.969-9.042-9.845-11.028M424.73 631.081c3.086-8.801 5.564-17.796 7.83-26.851M437.272 584.657c1.995-8.305 4.062-16.593 6.314-24.833 2.536-9.272 5.524-18.412 8.48-27.556M327.866 703.342c12.13-.742 24.074-3.612 35.574-7.446a146.946 146.946 0 0 0 7.111-2.567M380.791 688.706c4.207-2.196 8.23-4.732 11.955-7.708a73.636 73.636 0 0 0 13.234-13.766M299.705 701.054c-13.418-3.052-26.278-8.458-38.178-15.326-10.756-6.208-20.474-14.226-28.08-24.08-4.622-5.99-8.485-12.588-11.293-19.619M222.117 641.881c-7.19-17.576-6.223-38.126 1.572-55.333 7.44-16.421 20.901-29.412 35.78-39.21 16.734-11.024 35.716-18.161 54.648-24.415 20.2-6.673 41.046-12.349 62.138-15.317 3.71-.522 7.425-.998 11.14-1.456" style="fill:none;stroke:#00ff4a;stroke-width:1.33333;stroke-linecap:round;stroke-linejoin:round;stroke-miterlimit:10;stroke-dasharray:none;stroke-opacity:1;visibility:visible" visibility="hidden"/><path d="M406.439 503.816a1222.61 1222.61 0 0 0 18.616-2.582c5.319-.782 10.708-1.68 16.097-1.135a27.62 27.62 0 0 1 3.763.64c.503.123 3.075.82 2.54.667" style="fill:none;stroke:#00ff4a;stroke-width:1.33333;stroke-linecap:round;stroke-linejoin:round;stroke-miterlimit:10;stroke-dasharray:none;stroke-opacity:1;visibility:visible" visibility="hidden"/><path d="m275.55 476.883-3.275-32.767" style="fill:none;stroke:#00ff4a;stroke-width:1.99999;stroke-linecap:round;stroke-linejoin:round;stroke-miterlimit:10;stroke-dasharray:none;stroke-opacity:1;visibility:visible" visibility="hidden"/><path d="m335.863 426.206.217-.646 2.212-1.122c.42-.214.782-.41 1.084-.583.304-.175.552-.36.744-.56a1.91 1.91 0 0 0 .431-.73c.116-.35.1-.648-.047-.895-.146-.25-.384-.43-.716-.54a2.039 2.039 0 0 0-.862-.11 3.784 3.784 0 0 0-.862.203l-.24-.659a3.855 3.855 0 0 1 1.029-.244c.371-.036.757.012 1.157.146.59.197 1.008.501 1.25.913.243.412.278.881.103 1.408a2.28 2.28 0 0 1-.515.86 4.07 4.07 0 0 1-.853.67 13.201 13.201 0 0 1-1.148.611l-1.753.862-.012.036 3.197 1.064-.237.71-4.179-1.394M336.275 422.32a7.925 7.925 0 0 1-.568 1.302 3.767 3.767 0 0 1-.832 1.05 2.435 2.435 0 0 1-1.17.56c-.452.083-.975.028-1.572-.172a4.01 4.01 0 0 1-.403-.158 2.053 2.053 0 0 1-.363-.195l.221-.663c.205.152.45.278.741.374.414.138.776.185 1.091.138.313-.048.59-.16.826-.34a2.51 2.51 0 0 0 .617-.7 5.54 5.54 0 0 0 .45-.936l-.055-.02a1.71 1.71 0 0 1-.734.331c-.293.064-.632.032-1.014-.096-.544-.183-.927-.495-1.148-.939-.223-.445-.232-.97-.03-1.578.148-.444.358-.795.631-1.058.277-.264.592-.43.951-.5.356-.072.74-.04 1.148.096a2.1 2.1 0 0 1 .986.67c.258.31.412.702.464 1.177.052.473-.028 1.025-.237 1.657M331.03 421.074c-.224.678-.489 1.238-.793 1.678-.304.44-.654.74-1.047.895-.395.157-.844.15-1.352-.017-.715-.238-1.145-.702-1.292-1.39-.148-.689-.052-1.544.29-2.564.225-.685.49-1.248.79-1.685.301-.437.648-.733 1.041-.888.393-.155.839-.148 1.34.019.71.236 1.143.697 1.303 1.384.156.684.064 1.541-.28 2.568" style="fill:none;fill-opacity:1;fill-rule:nonzero;stroke:#00ff4a;stroke-width:1.33333;visibility:visible" visibility="hidden"/><path d="M321.537 426.658a89.798 89.798 0 0 1-3.014 7.092" style="fill:none;stroke:#00ff4a;stroke-width:.999997;stroke-linecap:round;stroke-linejoin:round;stroke-miterlimit:10;stroke-dasharray:none;stroke-opacity:1;visibility:visible" visibility="hidden"/><path d="m406.439 503.816-17.165 5.617M389.274 509.433l19.67-2.471M447.454 501.406l2.49 1.837" style="fill:none;stroke:#00ff4a;stroke-width:.666665;stroke-linecap:round;stroke-linejoin:round;stroke-miterlimit:10;stroke-dasharray:none;stroke-opacity:1;visibility:visible" visibility="hidden"/><path d="m406.439 503.816-19.044 2.334M389.274 509.433l17.165-5.617" style="fill:none;stroke:#00ff4a;stroke-width:1.33333;stroke-linecap:round;stroke-linejoin:round;stroke-miterlimit:10;stroke-dasharray:none;stroke-opacity:1;visibility:visible" visibility="hidden"/><path d="m336.275 422.32-.412 3.886M335.863 426.206l.412-3.886M331.03 421.074l5.245 1.246M336.275 422.32l-5.245-1.246M336.275 422.32l-5.245-1.246" style="fill:none;fill-opacity:1;fill-rule:nonzero;stroke:#00ff4a;stroke-width:1.33333;visibility:visible" visibility="hidden"/><path d="m331.03 421.074-9.493 5.584" style="fill:none;stroke:#00ff4a;stroke-width:.999997;stroke-linecap:round;stroke-linejoin:round;stroke-miterlimit:10;stroke-dasharray:none;stroke-opacity:1;visibility:visible" visibility="hidden"/><path d="m417.303 595.044 3.189-18.304" style="fill:none;stroke:red;stroke-width:.666665;stroke-linecap:round;stroke-linejoin:round;stroke-miterlimit:10;stroke-dasharray:none;stroke-opacity:1;visibility:visible"/><path d="m431.254 588.443 1.306 15.787M429.219 598.523l8.053-13.866" style="fill:none;stroke:#00ff4a;stroke-width:1.33333;stroke-linecap:round;stroke-linejoin:round;stroke-miterlimit:10;stroke-dasharray:none;stroke-opacity:1;visibility:visible" visibility="hidden"/></svg>