<svg xmlns="http://www.w3.org/2000/svg" baseProfile="full" height="1122.52" preserveAspectRatio="xMinYMin meet" style="width:738px;height:965px" width="793.701" xml:space="preserve"><path d="M476.423 387.037c-1.867.293-3.69.748-5.47 1.242-.041.002-.081.003-.121.044-3.526 2.334-5.66 6.504-5.752 10.745l-3.76 187.15c-.144 5.466-.696 10.901-1.86 16.228-1.23 5.647-2.546 11.979-6.828 15.642M449.47 620.063l-5.99 3.384M440.103 625.355l-17.564 9.92a1.543 1.543 0 0 0-.663 1.16l-.102 8.558c.016.612.476 1.17 1.093 1.318l30.068 2.448" style="fill:none;stroke:red;stroke-width:1.33333;stroke-linecap:round;stroke-linejoin:round;stroke-miterlimit:10;stroke-dasharray:none;stroke-opacity:1;visibility:visible"/><path d="M452.935 648.759c.039-.042.12-.084.2-.129l27.05-17.617c11.639-9.385 12.602-37.085 12.823-44.223l4.863-187.138c.134-4.242-1.892-8.509-5.299-11.027-1.039-.707-2.69-1.166-3.92-1.46l-.041-.039-1.999-.028" style="fill:none;stroke:red;stroke-width:1.33333;stroke-linecap:round;stroke-linejoin:round;stroke-miterlimit:10;stroke-dasharray:none;stroke-opacity:1;visibility:visible"/><path d="M486.643 387.711c-.023.504-2.303 1.003-5.09 1.113-2.793.111-5.037-.206-5.015-.709M485.313 385.338c.015.352-1.683.704-3.792.785-2.108.082-3.826-.138-3.84-.49M424.2 636.379l26.375 2.471M489.576 389.503l.375-.958M472.576 388.92l15.627.287M490.412 389.988c1.388 1.466 4.168 4.948 4.179 9.372l-4.702 189.227c-.257 7.301-2.022 28.208-9.792 33.332l-25.937 16.244M452.748 639.639l-.121 7.277" style="fill:none;stroke:red;stroke-width:.666665;stroke-linecap:round;stroke-linejoin:round;stroke-miterlimit:10;stroke-dasharray:none;stroke-opacity:1;visibility:visible"/><path d="m486.643 387.711-.008-2.06c-.266-1.78-2.592-1.84-5.165-1.74-2.571.099-4.814.354-5.02 2.123l.089 2.08" style="fill:none;stroke:red;stroke-width:1.33333;stroke-linecap:round;stroke-linejoin:round;stroke-miterlimit:10;stroke-dasharray:none;stroke-opacity:1;visibility:visible"/><path d="M452.252 628.368c1.234.14 2.098.472 2.098.857" style="fill:none;stroke:red;stroke-width:.666665;stroke-linecap:round;stroke-linejoin:round;stroke-miterlimit:10;stroke-dasharray:none;stroke-opacity:1;visibility:visible"/><path d="m454.16 638.163-4.69-18.1M440.103 625.355l3.377-1.908M443.48 623.447l-3.377 1.908" style="fill:none;stroke:red;stroke-width:1.33333;stroke-linecap:round;stroke-linejoin:round;stroke-miterlimit:10;stroke-dasharray:none;stroke-opacity:1;visibility:visible"/><path d="m486.643 387.711-1.33-2.373M476.539 388.114l1.142-2.481M452.252 628.368l-1.677 10.482M486.612 387.098l1.591 2.109M449.47 620.063l4.69 18.1M454.35 629.225l-1.602 10.414M450.575 638.85l1.677-10.482M452.748 639.639l1.602-10.414" style="fill:none;stroke:red;stroke-width:.666665;stroke-linecap:round;stroke-linejoin:round;stroke-miterlimit:10;stroke-dasharray:none;stroke-opacity:1;visibility:visible"/><path d="M336.935 689.381c-13.924 2.496-28.015 4.04-41.873 6.923-5.377 1.118-10.925 2.426-15.859 4.913-3.876 1.955-7.98 5.203-8.249 9.893a114.01 114.01 0 0 0-.176 6.751c.01 4.247 2.13 7.712 4.69 10.955 6.584 8.349 15.813 14.494 24.742 20.072a364.772 364.772 0 0 0 30.491 17.064c21.519 10.73 43.862 19.908 66.427 28.187 20.355 7.471 41.012 14.164 61.938 19.861M486.828 820.913c16.742 3.762 33.66 6.767 50.712 8.64 24.184 2.656 48.376 2.222 72.345-2.126 20.91-3.794 41.787-13.24 56.64-28.69 6.86-7.134 12.47-15.481 16.379-24.579 3.698-8.612 4.989-17.536 4.896-26.842-.1-10.388-2.6-20.292-7.334-29.542-2.28-4.452-5.136-9.256-8.689-12.824-1.527-1.533-3.245-2.916-4.861-4.351-.522-.467-1.046-.932-1.57-1.394M367.978 682.704c21.696-5.362 43.089-11.862 64.752-17.347a550.336 550.336 0 0 1 6.385-1.576M444.912 662.414c1.515-.349 3.03-.692 4.55-1.028M454.604 660.273A563.347 563.347 0 0 1 465.891 658c8.098-1.548 16.218-2.811 24.421-3.641 10.573-1.069 21.141-2.296 31.761-2.782a191.73 191.73 0 0 1 20.717.195M585.49 658.528c.646.16 1.294.322 1.941.486 10.839 2.756 21.453 6.269 31.717 10.716 4.97 2.151 9.83 4.486 14.804 6.612" style="fill:none;stroke:#00ff4a;stroke-width:1.33333;stroke-linecap:round;stroke-linejoin:round;stroke-miterlimit:10;stroke-dasharray:none;stroke-opacity:1;visibility:visible"/><path d="M272.6 707.033c-2.663 6.117 2.213 12.217 6.244 16.361 5.049 5.194 10.941 9.467 16.946 13.476M295.791 736.87c13.847 9.262 28.712 16.878 43.77 23.954 15.497 7.282 31.309 13.874 47.277 20.054 25.98 10.053 52.453 18.867 79.371 26.048M493.841 813.682c29.803 6.628 60.311 11.108 90.876 9.37 28.024-1.596 57.58-8.221 78.76-27.828 10.472-9.692 18.585-22.256 21.928-36.215 3.58-14.957 1.481-30.824-6.321-43.965-2.007-3.379-4.444-6.591-6.936-9.63" style="fill:none;stroke:#00ff4a;stroke-width:.666665;stroke-linecap:round;stroke-linejoin:round;stroke-miterlimit:10;stroke-dasharray:none;stroke-opacity:1;visibility:visible"/><path d="m444.912 662.414-5.797 1.367M439.115 663.781l5.797-1.367M454.604 660.273l-5.142 1.113M449.462 661.386l5.142-1.113" style="fill:none;stroke:#00ff4a;stroke-width:1.33333;stroke-linecap:round;stroke-linejoin:round;stroke-miterlimit:10;stroke-dasharray:none;stroke-opacity:1;visibility:visible"/><path d="m714.953 404.263-1.601.093a1.11 1.11 0 0 1-.366.05c-.446.052-.888.35-1.162.724-2.224 3.806-3.331 8.237-4.114 12.617l-40.092 231.744c-1.92 9.178-7.365 17.591-15.093 22.847-6.97 4.704-15.51 6.884-23.88 6.246l-47.29-4.302M576.581 673.846l-25.301-2.302M546.336 671.094l-13.443-1.222c-.776-.062-1.492.568-1.676 1.348l-1.225 9.282.043.08-.003-.08M552.499 678.14c-.086.896-1.659 1.477-3.514 1.3-1.854-.18-3.288-1.05-3.201-1.944" style="fill:none;stroke:#9500ff;stroke-width:1.33333;stroke-linecap:round;stroke-linejoin:round;stroke-miterlimit:10;stroke-dasharray:none;stroke-opacity:1;visibility:visible"/><path d="m530.001 680.87.047.242 3.055 12.431c.217.567.76 1.041 1.373 1.107l98.768 8.754c10.244.63 20.624-1.394 29.624-6.314 13.058-7.145 22.578-20.272 25.662-34.86l43.116-239.198c1.032-5.812 2.328-12.368-.818-17.38a1.592 1.592 0 0 0-.708-.552l-2.951-.87" style="fill:none;stroke:#9500ff;stroke-width:1.33333;stroke-linecap:round;stroke-linejoin:round;stroke-miterlimit:10;stroke-dasharray:none;stroke-opacity:1;visibility:visible"/><path d="M726.204 404.754c-.018.504-2.291 1.028-5.08 1.17-2.786.143-5.034-.149-5.019-.653M724.849 402.395c.017.353-1.677.723-3.784.83-2.107.105-3.828-.098-3.847-.45M720.242 407.37l8.904-1.432M713.17 405.558l5.62 1.688M535.243 684.628l-1.223 8.11M532.353 671.85l2.667 9.554M536.712 683.161l98.39 8.753c9.518.596 19.361-1.952 26.519-7.262 7.583-5.626 12.797-14.235 14.689-23.528l42.362-239.725c.78-4.663 1.413-8.772.697-13.392" style="fill:none;stroke:#9500ff;stroke-width:.666665;stroke-linecap:round;stroke-linejoin:round;stroke-miterlimit:10;stroke-dasharray:none;stroke-opacity:1;visibility:visible"/><path d="m726.204 404.754-.031-2.06c-.285-1.776-2.613-1.81-5.184-1.682-2.57.13-4.81.408-4.995 2.18l.11 2.08M576.581 673.846l4.774.436M581.355 674.282l-4.774-.436M546.336 671.094l4.944.45M551.28 671.544l-4.944-.45M534.02 692.738l11.764-15.242M718.79 407.246l8.379-3.016" style="fill:none;stroke:#9500ff;stroke-width:1.33333;stroke-linecap:round;stroke-linejoin:round;stroke-miterlimit:10;stroke-dasharray:none;stroke-opacity:1;visibility:visible"/><path d="m726.204 404.754-1.355-2.359M716.104 405.272l1.114-2.497M545.784 677.496l-11.764 15.242M530.001 680.87l5.019.534M546.336 671.094l-9.624 12.067" style="fill:none;stroke:#9500ff;stroke-width:.666665;stroke-linecap:round;stroke-linejoin:round;stroke-miterlimit:10;stroke-dasharray:none;stroke-opacity:1;visibility:visible"/><path d="m476.539 388.114 13.412.431" style="fill:none;stroke:red;stroke-width:.666665;stroke-linecap:round;stroke-linejoin:round;stroke-miterlimit:10;stroke-dasharray:none;stroke-opacity:1;visibility:visible"/><path d="m546.336 671.094-3.546-19.322" style="fill:none;stroke:#00ff4a;stroke-width:1.33333;stroke-linecap:round;stroke-linejoin:round;stroke-miterlimit:10;stroke-dasharray:none;stroke-opacity:1;visibility:visible"/></svg>