<svg xmlns="http://www.w3.org/2000/svg" baseProfile="full" height="1122.52" preserveAspectRatio="xMinYMin meet" style="width:738px;height:965px" width="793.701" xml:space="preserve"><path d="M446.583 514.479c-1.247 10.498-3.556 17.428-3.556 17.428s99.863-17.375 170.205 32.153l4.622-11.337 27.926-144.301-193.777 34.444" style="fill:none;fill-opacity:1;fill-rule:nonzero;stroke:red;stroke-width:1.33333;visibility:visible"/><path d="M334.733 572.359c1.29-.187 2.894 1.128 3.583 2.934.688 1.807.2 3.423-1.09 3.608M328.349 549.34c1.29-.187 2.894 1.128 3.584 2.935.687 1.808.199 3.422-1.092 3.61" style="fill:none;stroke:red;stroke-width:1.33333;stroke-linecap:round;stroke-linejoin:round;stroke-miterlimit:10;stroke-dasharray:none;stroke-opacity:1;visibility:visible"/><path d="M337.226 578.901c-1.29.187-2.896-1.128-3.584-2.934-.69-1.808-.2-3.423 1.09-3.608M330.842 555.884c-1.29.187-2.895-1.128-3.584-2.934-.69-1.807-.2-3.423 1.09-3.61" style="fill:none;stroke:red;stroke-width:.666665;stroke-linecap:round;stroke-linejoin:round;stroke-miterlimit:10;stroke-dasharray:none;stroke-opacity:1;visibility:visible"/><path d="M418.807 532.707c0 1.298-2.69 2.35-6.01 2.35-3.317 0-6.008-1.052-6.008-2.35-.001-1.299 2.691-2.35 6.009-2.35 3.318-.001 6.009 1.05 6.009 2.349v.001M371.32 540.419c-.025.9-2.733 1.561-6.05 1.476-3.318-.086-5.988-.883-5.964-1.783.022-.9 2.73-1.561 6.048-1.476 3.316.084 5.988.884 5.965 1.784l.001-.001" style="fill:none;stroke:red;stroke-width:.999997;stroke-linecap:round;stroke-linejoin:round;stroke-miterlimit:2;stroke-dasharray:none;stroke-opacity:1;visibility:visible"/><path d="M413.631 531.896h-1.664l-.833.619.833.618h1.664l.833-.618-.833-.619" style="fill:none;stroke:red;stroke-width:.999997;stroke-linecap:round;stroke-linejoin:round;stroke-miterlimit:2;stroke-dasharray:none;stroke-opacity:1;visibility:visible"/><path d="m366.16 539.725-1.667-.042-.843.407.822.45 1.664.044.844-.408-.82-.451" style="fill:none;stroke:red;stroke-width:.666665;stroke-linecap:round;stroke-linejoin:round;stroke-miterlimit:2;stroke-dasharray:none;stroke-opacity:1;visibility:visible"/><path d="M511.987 575.213c-.171 1.288-2.975 1.978-6.267 1.542-3.288-.435-5.817-1.832-5.648-3.119.17-1.287 2.978-1.977 6.268-1.541 3.289.434 5.817 1.832 5.647 3.118M438.89 582.23c-.17 1.288-2.973 1.979-6.263 1.543-3.291-.437-5.821-1.833-5.651-3.121.17-1.285 2.978-1.976 6.267-1.541 3.29.436 5.819 1.833 5.647 3.119" style="fill:none;stroke:red;stroke-width:.999997;stroke-linecap:round;stroke-linejoin:round;stroke-miterlimit:2;stroke-dasharray:none;stroke-opacity:1;visibility:visible"/><path d="m506.963 573.73-1.65-.217-.909.503.746.723 1.65.218.907-.504-.744-.723M468.23 576.428c-.17 1.288-2.973 1.977-6.263 1.541-3.291-.434-5.821-1.832-5.651-3.118.17-1.287 2.978-1.978 6.267-1.542 3.29.435 5.817 1.832 5.647 3.119M433.866 580.75l-1.651-.22-.907.506.744.721 1.65.219.908-.505-.744-.721M540.295 578.601c-.171 1.287-2.975 1.976-6.266 1.542-3.289-.436-5.818-1.833-5.649-3.12.17-1.286 2.977-1.976 6.267-1.543 3.289.437 5.818 1.835 5.648 3.121" style="fill:none;stroke:red;stroke-width:.999997;stroke-linecap:round;stroke-linejoin:round;stroke-miterlimit:2;stroke-dasharray:none;stroke-opacity:1;visibility:visible"/><path d="m463.206 574.948-1.651-.219-.907.504.744.723 1.65.219.908-.505-.744-.722M408.048 536.597c0 1.3-2.69 2.351-6.008 2.351-3.32 0-6.011-1.052-6.011-2.35.001-1.301 2.691-2.352 6.011-2.352 3.32 0 6.009 1.053 6.009 2.351h-.001M535.27 577.117l-1.652-.217-.906.504.744.723 1.65.217.908-.504-.744-.723" style="fill:none;stroke:red;stroke-width:.999997;stroke-linecap:round;stroke-linejoin:round;stroke-miterlimit:2;stroke-dasharray:none;stroke-opacity:1;visibility:visible"/><path d="M402.871 535.788h-1.664l-.833.619.833.618h1.664l.833-.618-.833-.619" style="fill:none;stroke:red;stroke-width:.999997;stroke-linecap:round;stroke-linejoin:round;stroke-miterlimit:2;stroke-dasharray:none;stroke-opacity:1;visibility:visible"/><path d="M427.618 260.505c-.418-3.375-.534-6.733-.108-10.913 1.418-13.912.964-22.896-7.484-25.336-8.446-2.442-15.576-1.49-20.711-3.372-5.133-1.884-5.74-2.327-19.781-5.628-14.04-3.302-20.536-2.531-29.45-3.74-8.918-1.208-25.114 3.11-31.281 5.978M377.346 252.489c-4.284-2.265-8.256-7.02-8.73-10.584" style="fill:none;stroke:red;stroke-width:.666665;stroke-linecap:round;stroke-linejoin:round;stroke-miterlimit:10;stroke-dasharray:none;stroke-opacity:1;visibility:visible"/><path d="M381.331 237.018c-8.719 4.012-10.47 6.024-18.015 1.954-7.544-4.07-11.02-5.676-14.308-6.856" style="fill:none;stroke:red;stroke-width:.666665;stroke-linecap:round;stroke-linejoin:round;stroke-miterlimit:10;stroke-dasharray:none;stroke-opacity:1;visibility:visible"/><path d="m489.11 574.761-9.773.771" style="fill:none;stroke:red;stroke-width:1.33333;stroke-linecap:round;stroke-linejoin:round;stroke-miterlimit:10;stroke-dasharray:none;stroke-opacity:1;visibility:visible"/><path d="M416.906 605.53s7.5 4.8 9.726 6.17c4.59 2.833 10.524 5.215 21.188 6.188 4.626.422 11.849.312 21.015-.688l40.444-4.28c14.073-1.824 28.945-4.697 32-5.609 4.01-1.198 6.389-2.667 6.589-4.476" style="fill:none;stroke:red;stroke-width:.666665;stroke-linecap:round;stroke-linejoin:round;stroke-miterlimit:10;stroke-dasharray:none;stroke-opacity:1;visibility:visible"/><path d="m531.557 596.644-82.25 8.093c-6.884.603-12.86-.482-18.441-2.626" style="fill:none;stroke:red;stroke-width:.666665;stroke-linecap:round;stroke-linejoin:round;stroke-miterlimit:10;stroke-dasharray:none;stroke-opacity:1;visibility:visible"/><path d="m422.85 546.499 12.493-5.21c10.66-4.699 12.93-36.991 13.285-43.799l10.184-182.734c-.112-3.445-2.154-7.786-5.356-10.259-.856-.61-2.166-1.047-3.264-1.351M548.67 597.977l-.803 4.858" style="fill:none;stroke:red;stroke-width:1.33333;stroke-linecap:round;stroke-linejoin:round;stroke-miterlimit:10;stroke-dasharray:none;stroke-opacity:1;visibility:visible"/><path d="m386.902 548.768 22.921 2.355c.948.141 2.173.046 2.875-.39l10.152-4.233" style="fill:none;stroke:red;stroke-width:.666665;stroke-linecap:round;stroke-linejoin:round;stroke-miterlimit:10;stroke-dasharray:none;stroke-opacity:1;visibility:visible"/><path d="M435.692 303.065a60.947 60.947 0 0 0-2.864.665c-.04.001-.078.003-.116.041-3.412 2.156-4.99 6.43-5.572 9.819l-9.471 182.499c-.781 16.999-3.891 27.999-9.283 32.501l-26.031 9.18a1.472 1.472 0 0 0-.656 1.093" style="fill:none;stroke:red;stroke-width:1.33333;stroke-linecap:round;stroke-linejoin:round;stroke-miterlimit:10;stroke-dasharray:none;stroke-opacity:1;visibility:visible"/><path d="M449.484 303.613c-.03.48-2.948.862-6.514.854-3.567-.009-6.432-.405-6.402-.884M447.803 301.293c.016.337-2.156.602-4.853.594-2.692-.009-4.89-.289-4.903-.626M383.919 539.083l25.972 2.45M450.579 305.275l.377-.905M434.363 304.906l14.91.59M451.546 304.526c1.846 1.23 5.09 5.563 5.013 9.785l-10.187 184.83c-.392 6.967-2.98 29.671-10.008 33.295l-23.884 9.18M411.724 542.755l-.564 6.722" style="fill:none;stroke:red;stroke-width:.666665;stroke-linecap:round;stroke-linejoin:round;stroke-miterlimit:10;stroke-dasharray:none;stroke-opacity:1;visibility:visible"/><path d="M665.345 324.16c-.472.023.116.043-.355.063a1.023 1.023 0 0 1-.322.039c-.396.04-.788.296-1.035.623-2.012 3.329-3.045 7.221-3.793 11.074l-42.378 217.414c-1.812 8.07-6.726 15.422-13.61 19.955-6.208 4.059-13.77 5.87-21.145 5.197l-90.342-10.685c-.684-.064-1.325.481-1.495 1.167l-1.58 9.985.035.072v-.072M449.484 303.613l.006-1.967c-.328-1.71-3.303-1.863-6.59-1.872-3.286-.012-6.154.14-6.428 1.82l.096 1.99" style="fill:none;stroke:red;stroke-width:1.33333;stroke-linecap:round;stroke-linejoin:round;stroke-miterlimit:10;stroke-dasharray:none;stroke-opacity:1;visibility:visible"/><path d="m529.152 593.845 57.288 6.632c9.028.688 18.21-.961 26.212-5.184 11.61-6.133 20.178-17.586 23.086-30.413l45.146-223.947c.984-5.115 2.212-10.879-.498-15.34a1.407 1.407 0 0 0-.616-.496l-1.046-.675" style="fill:none;stroke:red;stroke-width:1.33333;stroke-linecap:round;stroke-linejoin:round;stroke-miterlimit:10;stroke-dasharray:none;stroke-opacity:1;visibility:visible"/><path d="M678.014 325.03c-.028.467-2.8.817-6.189.785-3.39-.032-6.115-.434-6.085-.9M676.41 322.769c.016.328-2.048.57-4.609.544-2.56-.027-4.648-.314-4.664-.64M671.028 326.97l7.87-1.147M664.814 325.28l4.932 1.561M494.39 579.921l-1.33 8.1M492.057 571.2l2.335 6.688M495.559 578.552l91.408 11.195c8.386.648 17.91-1.682 24.293-6.272 6.76-4.862 12.513-13.187 14.302-21.36l43.898-222.792c.749-4.102 1.36-7.718.789-11.802M489.292 579.315l.038.215 2.91 9.19c.185.501.657.927 1.197.993l35.715 4.132" style="fill:none;stroke:red;stroke-width:.666665;stroke-linecap:round;stroke-linejoin:round;stroke-miterlimit:10;stroke-dasharray:none;stroke-opacity:1;visibility:visible"/><path d="M560.48 598.823c-.132 1.693 1.973 2.465 3.447 3.121 2.633.887 6.64 1.899 7.633-.733l.557-1.899M678.014 325.03v-1.908c-.314-1.66-3.142-1.83-6.266-1.861-3.124-.032-5.85.094-6.104 1.722l.096 1.932" style="fill:none;stroke:red;stroke-width:1.33333;stroke-linecap:round;stroke-linejoin:round;stroke-miterlimit:10;stroke-dasharray:none;stroke-opacity:1;visibility:visible"/><path d="M242.835 558.867c-.415 5.083 17.667 13.393 17.667 13.393 22.167 10.417 69.644 29.095 85.61 35.273 25.98 10.055 87.458 31.278 122.056 39 35.277 8.778 63.19 12.56 91.61 10.89 20.781-1.223 36.652-6.272 50.891-15.255 11.221-7.078 20.547-19.343 23.889-33.301 2.199-9.188-2.001-19.557-4.541-24.564" style="fill:none;stroke:red;stroke-width:.666665;stroke-linecap:round;stroke-linejoin:round;stroke-miterlimit:10;stroke-dasharray:none;stroke-opacity:1;visibility:visible"/><path d="M197.693 501.61c4.027 7.598 8.947 16.472 12.567 22.93M212.37 528.293a1284.82 1284.82 0 0 0 2.965 5.24c4.835 8.388 15.78 23.111 42.655 23.758l57.735-1.871M258.654 557.503s-11 .056-13.895.724c-2.436.562-2.089 2.805-2.257 4.472l-.23 5.01c.564 11.155 109.231 50.322 137.564 60.489 28.334 10.167 87.944 29.001 137.167 35.946 17.189 2.426 49.853 4.03 79.874-7.946 47.347-18.888 40.667-60.539 31.875-75.108M443.026 531.908c49.717-4.88 113.226-5.708 169.814 32.262M385.252 550.92l.282-6.575a2.464 2.464 0 0 0-1.186-2.23l-12.305-4.36a2.771 2.771 0 0 0-1.01-.158l-18.81.603" style="fill:none;stroke:red;stroke-width:1.33333;stroke-linecap:round;stroke-linejoin:round;stroke-miterlimit:10;stroke-dasharray:none;stroke-opacity:1;visibility:visible"/><path d="M311.613 538.867s-60.346 1.212-61.314 1.218c-10.186.06-16.297-2.552-21.457-12.614l-17.857-35.032s-6.762-11.239-10.388-14.304c-.967-.817-1.908-1.737-2.944-1.212l-6.568 3.595c-1.205.6-1.408 3.532-.416 6.626.587 1.834 2.508 5.799 5.037 10.679" style="fill:none;stroke:red;stroke-width:1.33333;stroke-linecap:round;stroke-linejoin:round;stroke-miterlimit:10;stroke-dasharray:none;stroke-opacity:1;visibility:visible"/><path d="m382.502 543.31-27.89.54M313.114 544.421s-54.407 1.075-54.834 1.06c-3.683-.145-19.137.885-27.637-15.335M359.114 553.867s21.286-.36 23.822-.56M382.936 553.307a2.52 2.52 0 0 0 2.318-2.387M361.28 556.921l73.554-4.5c4.334.056 5.334-1.5 5.334-1.5M363.114 567.255l32.622-1.055c14.434-.999 36.439-4.035 39.6-4.445 3.607-.468 5.912-.802 6.11-2.61" style="fill:none;stroke:red;stroke-width:.666665;stroke-linecap:round;stroke-linejoin:round;stroke-miterlimit:10;stroke-dasharray:none;stroke-opacity:1;visibility:visible"/><path d="M258.946 556.597c-31.944-3.444-36.89-21.71-40.667-27.73l-16.189-30.339c-4.064-7.464-8.533-16.44-11.866-16.384" style="fill:none;stroke:red;stroke-width:.666665;stroke-linecap:round;stroke-linejoin:round;stroke-miterlimit:10;stroke-dasharray:none;stroke-opacity:1;visibility:visible"/><path d="m434.11 600.89-50.434 10.344c-7.685.986-13.834-.598-19.104-3.014l-22.486-9.687c-2.746-.969-10.834-7.333-12.67-13.353L316.92 548.7c-2.834-6.584-1.933-13.123.441-14.893l6.697-5.738c3.195-2.535 6.248-2.722 10.321-1.328 6.207 2.126 14.207 7.709 19.645 22.41 0-.001 9.094 32.718 11.316 37.218 2.223 4.502 5.495 14.464 19.324 12.898M441.23 559.779l.328-6.19c.134-1.406.222-2.725-3.052-3.786l-10.226-2.438" style="fill:none;stroke:red;stroke-width:1.33333;stroke-linecap:round;stroke-linejoin:round;stroke-miterlimit:10;stroke-dasharray:none;stroke-opacity:1;visibility:visible"/><path d="M483.308 590.783c-5.424 1.124-27.313 5.617-49.198 10.107" style="fill:none;stroke:red;stroke-width:.666665;stroke-linecap:round;stroke-linejoin:round;stroke-miterlimit:10;stroke-dasharray:none;stroke-opacity:1;visibility:visible"/><path d="m366.92 586.367 91.75-16.967a1.98 1.98 0 0 1 .993.075c3.192 1.09 24.37 9.053 24.37 9.053 1.844.839 2.511 1.464 2.082 3.121l-1.179 7.422a2.075 2.075 0 0 1-1.628 1.712" style="fill:none;stroke:red;stroke-width:1.33333;stroke-linecap:round;stroke-linejoin:round;stroke-miterlimit:10;stroke-dasharray:none;stroke-opacity:1;visibility:visible"/><path d="m482.836 580.284-97.461 18.885M315.086 539.783c.333-6.834 6.167-7.75 11.667-5.25 2.76 1.254 12.166 5.499 18.249 21.667l10.584 35.083c2.25 8.417 10.584 23.333 32.833 18.833M439.378 605.935l-1.154 8.597" style="fill:none;stroke:red;stroke-width:.666665;stroke-linecap:round;stroke-linejoin:round;stroke-miterlimit:10;stroke-dasharray:none;stroke-opacity:1;visibility:visible"/><path d="m411.16 549.477 7.647-16.77M408.048 536.597l10.759-3.89M381.699 538.863l-10.379 1.556M408.048 536.597l5.583-4.701" style="fill:none;stroke:red;stroke-width:.999997;stroke-linecap:round;stroke-linejoin:round;stroke-miterlimit:2;stroke-dasharray:none;stroke-opacity:1;visibility:visible"/><path d="m354.612 543.85 11.548-4.125" style="fill:none;stroke:red;stroke-width:.666665;stroke-linecap:round;stroke-linejoin:round;stroke-miterlimit:2;stroke-dasharray:none;stroke-opacity:1;visibility:visible"/><path d="m494.39 579.921 17.597-4.708M495.559 578.552l11.404-4.822M418.807 532.707l-10.759 3.89M402.871 535.788l5.177.809M529.152 593.845l6.118-16.728M408.048 536.597l-5.177-.809" style="fill:none;stroke:red;stroke-width:.999997;stroke-linecap:round;stroke-linejoin:round;stroke-miterlimit:2;stroke-dasharray:none;stroke-opacity:1;visibility:visible"/><path d="m371.32 540.419 10.379-1.556" style="fill:none;stroke:red;stroke-width:1.33333;stroke-linecap:round;stroke-linejoin:round;stroke-miterlimit:10;stroke-dasharray:none;stroke-opacity:1;visibility:visible"/><path d="m449.484 303.613-1.681-2.32M436.568 303.584l1.479-2.323M366.16 539.725l17.759-.642M422.85 546.5l-10.37-4.884M418.807 532.707l-7.083 10.048M408.048 536.597l3.112 12.88M678.014 325.03l-1.604-2.261M665.74 324.915l1.397-2.242M511.987 575.213l-17.597 4.708M506.963 573.73l-11.404 4.822" style="fill:none;stroke:red;stroke-width:.666665;stroke-linecap:round;stroke-linejoin:round;stroke-miterlimit:10;stroke-dasharray:none;stroke-opacity:1;visibility:visible"/><path d="m547.867 602.835 12.613-4.012M195.706 497.823l1.987 3.787M212.37 528.293l-2.11-3.753M210.26 524.54l2.11 3.753M366.16 539.725l-13.937-1.525M315.725 555.42l-4.112-16.553M197.693 501.61l-1.987-3.787" style="fill:none;stroke:red;stroke-width:1.33333;stroke-linecap:round;stroke-linejoin:round;stroke-miterlimit:10;stroke-dasharray:none;stroke-opacity:1;visibility:visible"/><path d="m382.936 553.307-.434-9.997M366.16 539.725l-11.548 4.125M311.613 538.867l1.501 5.554M366.16 539.725l-7.046 14.142M366.16 539.725l-4.88 17.196M483.308 590.783l-.472-10.499M385.375 599.169l3.044 10.947" style="fill:none;stroke:red;stroke-width:.666665;stroke-linecap:round;stroke-linejoin:round;stroke-miterlimit:10;stroke-dasharray:none;stroke-opacity:1;visibility:visible"/><path d="M94.133 363.055s-1.687-.165-2.228 2.045c-.493 2.01 1.599 6.642 4.477 12.17l24.148 45.706M141.413 462.592l80.797 152.859c7.792 16.039 13.836 39.042 13.125 57.999-.5 13.333-3.054 41.073-3.917 56.582-.416 7.501 2.084 14.001 6.084 15.085l9.325-.54c3.008-.627 4.924-2.627 6.064-8.49 1.486-7.645 3.624-33.799 4.279-52.553 1.08-31.083-10.335-60.417-18.668-76.001L159.01 456.126M137.976 415.842l-27.144-51.76c-.955-1.923-1.344-2.65-3.79-2.319" style="fill:none;stroke:#00ff4a;stroke-width:1.33333;stroke-linecap:round;stroke-linejoin:round;stroke-miterlimit:10;stroke-dasharray:none;stroke-opacity:1;visibility:visible" visibility="hidden"/><path d="M239.918 744.382c2.168-1.349 2.755-2.517 3.75-10.182 1.975-15.167 3.918-43.334 4.001-49.334.418-29.415-9.443-54.778-15.439-66.942l-82.194-156.741M129.21 421.472l-22.124-42.189c-2.916-5.666-7.51-13.29-11-15.777" style="fill:none;stroke:#00ff4a;stroke-width:.666665;stroke-linecap:round;stroke-linejoin:round;stroke-miterlimit:10;stroke-dasharray:none;stroke-opacity:1;visibility:visible" visibility="hidden"/><path d="M106.997 361.525c.028.48-2.821 1.212-6.363 1.633-3.54.421-6.434.372-6.46-.108M105.048 359.425c.056.333-2.068.858-4.744 1.174-2.676.316-4.89.303-4.946-.029" style="fill:none;stroke:#00ff4a;stroke-width:.666665;stroke-linecap:round;stroke-linejoin:round;stroke-miterlimit:10;stroke-dasharray:none;stroke-opacity:1;visibility:visible" visibility="hidden"/><path d="m106.997 361.525-.232-1.955c-.53-1.656-3.503-1.449-6.767-1.063-3.264.386-6.092.88-6.16 2.583l.334 1.96" style="fill:none;stroke:#00ff4a;stroke-width:1.33333;stroke-linecap:round;stroke-linejoin:round;stroke-miterlimit:10;stroke-dasharray:none;stroke-opacity:1;visibility:visible" visibility="hidden"/><path d="m106.997 361.525-1.949-2.1M94.172 363.05l1.186-2.48" style="fill:none;stroke:#00ff4a;stroke-width:.666665;stroke-linecap:round;stroke-linejoin:round;stroke-miterlimit:10;stroke-dasharray:none;stroke-opacity:1;visibility:visible" visibility="hidden"/><path d="m402.871 535.788 7.02 5.745M212.37 528.293l18.273 1.853" style="fill:none;stroke:red;stroke-width:.666665;stroke-linecap:round;stroke-linejoin:round;stroke-miterlimit:10;stroke-dasharray:none;stroke-opacity:1;visibility:visible"/></svg>