<svg xmlns="http://www.w3.org/2000/svg" baseProfile="full" height="1122.52" preserveAspectRatio="xMinYMin meet" style="width:738px;height:965px" width="793.701" xml:space="preserve"><path d="m530.161 733.914-23.246 4.416M502.785 739.114l-28.774 5.466M469.793 745.38l-30.222 5.738c-3.163.614-6.999 1.976-7.283 5.163l-1.153 8.748" style="fill:none;stroke:red;stroke-width:1.33333;stroke-linecap:round;stroke-linejoin:round;stroke-miterlimit:10;stroke-dasharray:none;stroke-opacity:1;visibility:visible"/><path d="M435.879 759.34c-1.12-.783-2.287-1.731-2.605-3.026-.274-1.136.389-2.294 1.306-3.011M579.056 761.236l-92.716 20.426M431.15 765.214s0 2.07 4.62 5.576c4.618 3.503 25.478 19.744 31.053 22.133 5.573 2.388 8.477 3.05 18.307 2.45 2.609-.16 7.478-.908 13.729-2.047l55.864-12.084c15.94-3.857 29.106-7.448 32.332-9.18 6.449-3.464 7.573-5.856 7.897-8.646M464.163 778.206l-28.285-18.864" style="fill:none;stroke:red;stroke-width:.666665;stroke-linecap:round;stroke-linejoin:round;stroke-miterlimit:10;stroke-dasharray:none;stroke-opacity:1;visibility:visible"/><path d="M486.341 781.664c-7.5 1.5-15.714.613-22.178-3.458" style="fill:none;stroke:red;stroke-width:.666665;stroke-linecap:round;stroke-linejoin:round;stroke-miterlimit:10;stroke-dasharray:none;stroke-opacity:1;visibility:visible"/><path d="m485.248 702.005.079-3.165c.043-1.428-1.648-2.2-3.004-2.652l-4.99-1.655M420.718 690.474l-5.55.796M411.306 691.821l-38.607 5.527" style="fill:none;stroke:red;stroke-width:1.33333;stroke-linecap:round;stroke-linejoin:round;stroke-miterlimit:10;stroke-dasharray:none;stroke-opacity:1;visibility:visible"/><path d="M379.064 716.124c.45-.059.896-.122 1.342-.187l85.022-13.345M477.745 700.66l1.975-.31c2.069-.34 5.967-.889 4.94-2.778" style="fill:none;stroke:red;stroke-width:.666665;stroke-linecap:round;stroke-linejoin:round;stroke-miterlimit:10;stroke-dasharray:none;stroke-opacity:1;visibility:visible"/><path d="m477.945 685.813 3.792-2.357c11.838-9.139 13.383-36.813 13.755-43.944l8.81-186.994c.221-4.238-1.716-8.548-5.068-11.138-1.022-.728-2.664-1.22-3.887-1.54l-.042-.04-1.997-.071" style="fill:none;stroke:red;stroke-width:1.33333;stroke-linecap:round;stroke-linejoin:round;stroke-miterlimit:10;stroke-dasharray:none;stroke-opacity:1;visibility:visible"/><path d="m424.112 697.541 28.675 2.944a3.88 3.88 0 0 0 2.456-.567 9342.366 9342.366 0 0 1 10.063-6.245" style="fill:none;stroke:red;stroke-width:.666665;stroke-linecap:round;stroke-linejoin:round;stroke-miterlimit:10;stroke-dasharray:none;stroke-opacity:1;visibility:visible"/><path d="M483.124 439.452c-1.872.254-3.704.671-5.494 1.128-.04 0-.08 0-.12.04-3.578 2.26-5.798 6.386-5.979 10.623l-7.709 187.029c-.255 5.46-.922 10.883-2.199 16.184-1.347 5.621-2.798 11.924-7.155 15.494l-30.451 16.551a1.543 1.543 0 0 0-.687 1.144l-.284 8.556c.004.61.454 1.18 1.066 1.34" style="fill:none;stroke:red;stroke-width:1.33333;stroke-linecap:round;stroke-linejoin:round;stroke-miterlimit:10;stroke-dasharray:none;stroke-opacity:1;visibility:visible"/><path d="M493.328 440.343c-.032.503-2.323.953-5.115 1.005-2.792.052-5.028-.312-4.996-.816M492.05 437.943c.004.353-1.7.668-3.81.705-2.107.038-3.823-.218-3.829-.57M425.655 687.637l26.315 3.028M496.221 442.198l.395-.951M479.237 441.255l15.618.619M497.048 442.699c1.357 1.495 4.062 5.035 3.98 9.459l-8.69 189.082c-.41 7.296-2.618 28.161-10.493 33.121M465.457 684.146l-9.887 5.907M454.127 691.501l-.275 7.272" style="fill:none;stroke:red;stroke-width:.666665;stroke-linecap:round;stroke-linejoin:round;stroke-miterlimit:10;stroke-dasharray:none;stroke-opacity:1;visibility:visible"/><path d="m493.328 440.343.035-2.06c-.228-1.785-2.554-1.893-5.126-1.85-2.574.047-4.82.254-5.062 2.019l.042 2.08M719.972 467.586l-1.603.069a1.112 1.112 0 0 1-.367.045c-.446.046-.892.336-1.172.706-2.28 3.774-3.452 8.188-4.3 12.556l-43.51 231.126c-2.056 9.148-7.626 17.481-15.43 22.622-7.037 4.602-15.609 6.654-23.97 5.892l-95.612-10.124c-.775-.073-1.501.546-1.695 1.323l-1.362 9.263.042.081-.001-.081" style="fill:none;stroke:red;stroke-width:1.33333;stroke-linecap:round;stroke-linejoin:round;stroke-miterlimit:10;stroke-dasharray:none;stroke-opacity:1;visibility:visible"/><path d="m577.708 759.674 56.142 5.814c10.236.78 20.646-1.088 29.718-5.876 13.161-6.954 22.874-19.936 26.172-34.478L736.386 486.6c1.116-5.798 2.51-12.333-.564-17.391a1.59 1.59 0 0 0-.697-.561l-2.94-.916" style="fill:none;stroke:red;stroke-width:1.33333;stroke-linecap:round;stroke-linejoin:round;stroke-miterlimit:10;stroke-dasharray:none;stroke-opacity:1;visibility:visible"/><path d="M731.213 468.243c-.024.504-2.305.995-5.095 1.096-2.79.101-5.034-.224-5.01-.728M729.892 465.866c.012.352-1.688.698-3.796.773-2.108.073-3.827-.152-3.84-.505M725.213 470.771l8.924-1.3M718.17 468.855l5.59 1.77M536.139 745.266l-1.343 8.092M533.439 732.448l2.525 9.592M537.63 743.822l98.25 10.206c9.508.732 19.389-1.668 26.625-6.871 7.664-5.513 13.005-14.044 15.035-23.31l45.897-239.071c.85-4.651 1.543-8.751.895-13.381M530.955 741.432l.042.244 2.873 12.474c.21.568.743 1.05 1.355 1.126l42.483 4.4" style="fill:none;stroke:red;stroke-width:.666665;stroke-linecap:round;stroke-linejoin:round;stroke-miterlimit:10;stroke-dasharray:none;stroke-opacity:1;visibility:visible"/><path d="M510.29 670.945c49.717-4.88 98.193 12.943 108.457 17.388 4.747 2.057 27.69 12.972 45.429 27.599M604.42 763.614c-.148 1.918 2.24 2.794 3.91 3.538 2.983 1.004 7.526 2.152 8.651-.832l.633-2.151M731.213 468.243v-2.06c-.259-1.78-2.587-1.848-5.159-1.759-2.572.091-4.814.338-5.026 2.106l.08 2.08" style="fill:none;stroke:red;stroke-width:1.33333;stroke-linecap:round;stroke-linejoin:round;stroke-miterlimit:10;stroke-dasharray:none;stroke-opacity:1;visibility:visible"/><path d="M332.942 708.608c-12.75 2.146-25.613 3.664-38.28 6.3-5.379 1.118-10.925 2.425-15.859 4.912-3.876 1.956-7.98 5.204-8.25 9.893a115.22 115.22 0 0 0-.175 6.753c.008 4.244 2.13 7.71 4.69 10.954 6.584 8.348 15.813 14.493 24.742 20.07a364.572 364.572 0 0 0 30.491 17.066c21.519 10.729 43.859 19.907 66.425 28.189 20.357 7.47 65.282 21.82 89.702 26.773 16.74 3.761 33.66 6.768 50.712 8.639 24.184 2.653 48.376 2.222 72.345-2.127 20.908-3.793 41.785-13.24 56.64-28.69 6.86-7.133 12.47-15.481 16.377-24.58 3.7-8.61 4.99-17.531 4.899-26.84a65.233 65.233 0 0 0-2.556-17.523" style="fill:none;stroke:red;stroke-width:1.33333;stroke-linecap:round;stroke-linejoin:round;stroke-miterlimit:10;stroke-dasharray:none;stroke-opacity:1;visibility:visible"/><path d="M272.2 725.636c-2.663 6.117 2.213 12.217 6.244 16.362 5.049 5.192 10.941 9.466 16.946 13.475M295.39 755.473c13.847 9.263 28.712 16.877 43.77 23.953 15.497 7.284 31.31 13.875 47.277 20.055 25.979 10.054 72.405 25.082 107.003 32.804 29.803 6.628 60.31 11.109 90.876 9.37 28.024-1.594 57.58-8.218 78.76-27.825 10.472-9.696 18.584-22.259 21.928-36.218 2.198-9.187 2.256-18.72.164-27.75" style="fill:none;stroke:red;stroke-width:.666665;stroke-linecap:round;stroke-linejoin:round;stroke-miterlimit:10;stroke-dasharray:none;stroke-opacity:1;visibility:visible"/><path d="M557.284 741.249c-.17 1.287-2.976 1.976-6.265 1.541-3.291-.436-5.819-1.832-5.65-3.12.171-1.285 2.976-1.976 6.267-1.54 3.288.435 5.819 1.831 5.648 3.119M585.59 744.713c-.17 1.287-2.974 1.976-6.264 1.541-3.291-.436-5.819-1.833-5.651-3.12.171-1.284 2.978-1.976 6.269-1.541 3.286.436 5.816 1.832 5.646 3.12" style="fill:none;stroke:red;stroke-width:.999997;stroke-linecap:round;stroke-linejoin:round;stroke-miterlimit:2;stroke-dasharray:none;stroke-opacity:1;visibility:visible"/><path d="m552.257 739.766-1.65-.218-.907.505.745.721 1.65.219.905-.504-.743-.723M580.565 743.229l-1.65-.219-.907.504.745.723 1.65.219.907-.504-.745-.723" style="fill:none;stroke:red;stroke-width:.999997;stroke-linecap:round;stroke-linejoin:round;stroke-miterlimit:2;stroke-dasharray:none;stroke-opacity:1;visibility:visible"/><path d="m475.188 784.102-1.153 8.598" style="fill:none;stroke:red;stroke-width:.666665;stroke-linecap:round;stroke-linejoin:round;stroke-miterlimit:10;stroke-dasharray:none;stroke-opacity:1;visibility:visible"/><path d="m502.785 739.114 4.13-.784M506.915 738.33l-4.13.784M469.793 745.38l4.218-.8M474.011 744.58l-4.218.8M411.306 691.821l3.862-.551M415.168 691.27l-3.862.551" style="fill:none;stroke:red;stroke-width:1.33333;stroke-linecap:round;stroke-linejoin:round;stroke-miterlimit:10;stroke-dasharray:none;stroke-opacity:1;visibility:visible"/><path d="m477.745 700.66-12.317 1.932M465.428 702.592l12.317-1.932M465.306 693.673l19.354 3.899" style="fill:none;stroke:red;stroke-width:.666665;stroke-linecap:round;stroke-linejoin:round;stroke-miterlimit:10;stroke-dasharray:none;stroke-opacity:1;visibility:visible"/><path d="m465.457 684.146 12.488 1.667" style="fill:none;stroke:red;stroke-width:1.33333;stroke-linecap:round;stroke-linejoin:round;stroke-miterlimit:10;stroke-dasharray:none;stroke-opacity:1;visibility:visible"/><path d="m465.457 684.146-.151 9.527M493.328 440.343l-1.278-2.4M483.217 440.532l1.194-2.454M493.308 439.729l1.547 2.145M465.457 684.146l16.388-9.785M477.945 685.813l-12.488-1.667" style="fill:none;stroke:red;stroke-width:.666665;stroke-linecap:round;stroke-linejoin:round;stroke-miterlimit:10;stroke-dasharray:none;stroke-opacity:1;visibility:visible"/><path d="m723.76 470.625 8.425-2.893" style="fill:none;stroke:red;stroke-width:1.33333;stroke-linecap:round;stroke-linejoin:round;stroke-miterlimit:10;stroke-dasharray:none;stroke-opacity:1;visibility:visible"/><path d="m731.213 468.243-1.321-2.377M721.108 468.61l1.148-2.476M530.955 741.432l5.009.608M552.257 739.766l-14.627 4.056" style="fill:none;stroke:red;stroke-width:.666665;stroke-linecap:round;stroke-linejoin:round;stroke-miterlimit:10;stroke-dasharray:none;stroke-opacity:1;visibility:visible"/><path d="m537.63 743.822 14.627-4.056M577.708 759.674l2.857-16.445" style="fill:none;stroke:red;stroke-width:.999997;stroke-linecap:round;stroke-linejoin:round;stroke-miterlimit:2;stroke-dasharray:none;stroke-opacity:1;visibility:visible"/><path d="M411.508 664.897s-15.336.93-35.704 2.155M370.836 667.35l-22.6 1.356M334.07 669.552c-29.88 1.778-57.255 3.38-58.395 3.346-5.721-.173-17-1.166-21.5-8.333l-19.5-33.5s-8.769-15.097-11.809-17.901c-1.095-1.01-2.245-2.044-3.464-1.425l-8.56 4.826c-1.416.708-2.332 1.626-.556 5.01 1.88 3.583 24.248 41.464 24.248 41.464 5.696 7.649 23.476 32.693 51.757 30.207l39.109-2.664M368.514 687.637c26.492-1.812 49.868-3.42 52.852-3.656a2.964 2.964 0 0 0 2.726-2.808l.33-6.668a2.897 2.897 0 0 0-1.393-2.623l-6.971-4.226" style="fill:none;stroke:#00ff4a;stroke-width:1.33333;stroke-linecap:round;stroke-linejoin:round;stroke-miterlimit:10;stroke-dasharray:none;stroke-opacity:1;visibility:visible" visibility="hidden"/><path d="M422.59 673.981s-29.738 1.932-61.507 3.981M322.95 680.412c-20.88 1.334-36.856 2.338-37.36 2.318-4.332-.166-21.416.918-31.416-18.166" style="fill:none;stroke:#00ff4a;stroke-width:.666665;stroke-linecap:round;stroke-linejoin:round;stroke-miterlimit:10;stroke-dasharray:none;stroke-opacity:1;visibility:visible" visibility="hidden"/><path d="M273.591 692.314c-14.917-3.584-25.916-14.708-30.36-21.792-1.854-2.957-19.234-33.01-19.234-33.01-4.78-8.782-11.49-19.323-14.198-19.572" style="fill:none;stroke:#00ff4a;stroke-width:.999997;stroke-linecap:round;stroke-linejoin:round;stroke-miterlimit:10;stroke-dasharray:none;stroke-opacity:1;visibility:visible" visibility="hidden"/><path d="m370.836 667.35 4.968-.298M375.804 667.052l-4.968.298M334.07 669.552l14.166-.846M348.236 668.706l-14.166.846" style="fill:none;stroke:#00ff4a;stroke-width:1.33333;stroke-linecap:round;stroke-linejoin:round;stroke-miterlimit:10;stroke-dasharray:none;stroke-opacity:1;visibility:visible" visibility="hidden"/><path d="m370.836 667.35-9.753 10.612" style="fill:none;stroke:#00ff4a;stroke-width:.666665;stroke-linecap:round;stroke-linejoin:round;stroke-miterlimit:10;stroke-dasharray:none;stroke-opacity:1;visibility:visible" visibility="hidden"/><path d="m510.701 706.638 13.642 6.01c.665.29 1.081 1.038.957 1.745l-1.456 9.561c-.041.043-.041.084-.041.126 0 .04-.043.084-.043.125.001.041.001.083-.04.124 0 0 0 .041-.043.041 0 .042 0 .083-.041.126 0 0-.041.041-.041.082-.04 0-.04.042-.083.084 0 .042-.041.042-.041.083l-.083.084-.084.081s-.041.042-.083.042c0 .042-.041.042-.084.084-.041 0-.041.041-.082.041-.043.041-.083.041-.125.041 0 .043.082-.082.207-.166l-.373.25-114.821 33.258c-9.104 2.536-18.25 2.245-26.024-3.16l-24.069-12.887c-6.987-3.576-12.267-9.895-15.344-17.085l-14.549-35.503c-1.661-4.075-2.867-9.48.459-12.39l9.104-7.273c2.702-1.996 6.57-1.165 9.602.249 10.02 5.029 17.918 14.174 21.868 24.693l13.593 36.002c.29.706.583 1.412.416 1.08a.44.44 0 0 0-.083-.208c-.125-.29.25.54.499 1.039.208.54.332.75.499 1.039.124.292.332.624.54.957a10.84 10.84 0 0 0 .541.956c.207.332.456.624.623.915.166.249.292.456.624.832l.665.83c-.041-.041-.125-.165-.167-.208-.166-.208.334.416.707.792.333.372.457.539.707.747.208.208.498.456.748.665.248.25.458.415.748.666.333.248.79.581.832.624.041.04-.499-.376-.998-.75M382.084 729.774l86.136-21.87" style="fill:none;stroke:#9500ff;stroke-width:1.33333;stroke-linecap:round;stroke-linejoin:round;stroke-miterlimit:10;stroke-dasharray:none;stroke-opacity:1;visibility:visible" visibility="hidden"/><path d="m474.252 706.373 22.115-5.616a1.936 1.936 0 0 1 1.08.043l4.933 2.172" style="fill:none;stroke:#9500ff;stroke-width:1.33333;stroke-linecap:round;stroke-linejoin:round;stroke-miterlimit:10;stroke-dasharray:none;stroke-opacity:1;visibility:visible" visibility="hidden"/><path d="m358.555 704.968 13.968 36M329.165 677.822c2.162-.706 4.489.416 6.567 1.371 10.394 5.323 18.376 14.967 22.823 25.775M372.523 740.969c2.827 6.817 7.567 13.137 14.219 16.379 6.442 3.118 14.092 3.036 21.076 1.164M522.972 713.94l-113.034 31.468c-5.571 1.412-11.036 1.412-16.15-1.164-5.28-2.664-8.937-7.692-11.141-13.179" style="fill:none;stroke:#9500ff;stroke-width:.666665;stroke-linecap:round;stroke-linejoin:round;stroke-miterlimit:10;stroke-dasharray:none;stroke-opacity:1;visibility:visible" visibility="hidden"/><path d="m502.38 702.972 8.321 3.666M474.252 706.373l-6.032 1.531M468.22 707.904l6.032-1.531M510.701 706.638l-8.321-3.666" style="fill:none;stroke:#9500ff;stroke-width:1.33333;stroke-linecap:round;stroke-linejoin:round;stroke-miterlimit:10;stroke-dasharray:none;stroke-opacity:1;visibility:visible" visibility="hidden"/><path d="m372.523 740.968 10.124-9.903" style="fill:none;stroke:#9500ff;stroke-width:.666665;stroke-linecap:round;stroke-linejoin:round;stroke-miterlimit:10;stroke-dasharray:none;stroke-opacity:1;visibility:visible" visibility="hidden"/><path d="m537.63 743.822-7.469-9.908" style="fill:none;stroke:red;stroke-width:1.33333;stroke-linecap:round;stroke-linejoin:round;stroke-miterlimit:10;stroke-dasharray:none;stroke-opacity:1;visibility:visible"/><path d="m577.708 759.674 17.244 3.742" style="fill:none;stroke:red;stroke-width:.666665;stroke-linecap:round;stroke-linejoin:round;stroke-miterlimit:10;stroke-dasharray:none;stroke-opacity:1;visibility:visible"/><path d="m411.306 691.821 9.412-1.347" style="fill:none;stroke:red;stroke-width:1.33333;stroke-linecap:round;stroke-linejoin:round;stroke-miterlimit:10;stroke-dasharray:none;stroke-opacity:1;visibility:visible"/><path d="m465.306 693.673-13.336-3.008M483.217 440.532l13.399.715M465.306 693.673l-11.179-2.172M465.457 684.146l-11.605 14.627" style="fill:none;stroke:red;stroke-width:.666665;stroke-linecap:round;stroke-linejoin:round;stroke-miterlimit:10;stroke-dasharray:none;stroke-opacity:1;visibility:visible"/><path d="m577.708 759.674 7.882-14.961M580.565 743.229l5.025 1.484" style="fill:none;stroke:red;stroke-width:.999997;stroke-linecap:round;stroke-linejoin:round;stroke-miterlimit:2;stroke-dasharray:none;stroke-opacity:1;visibility:visible"/><path d="m420.718 690.474 1.872-16.493M334.07 669.552l-11.12 10.86" style="fill:none;stroke:#00ff4a;stroke-width:.666665;stroke-linecap:round;stroke-linejoin:round;stroke-miterlimit:10;stroke-dasharray:none;stroke-opacity:1;visibility:visible" visibility="hidden"/></svg>