<svg xmlns="http://www.w3.org/2000/svg" baseProfile="full" height="1122.667" preserveAspectRatio="xMinYMin meet" style="width:738px;height:965px" width="794.08" xml:space="preserve"><path d="m431.762 475.149 17.2 9.84-9.68-36.64M541.762 438.989l-92.8 46M482.962 413.709l-61.44 25.44M439.282 448.349l102.48-44.8M611.122 360.669l17.2 4.96-5.6 33.12-24.16 12" style="fill:none;stroke:red;stroke-width:.719998;stroke-linecap:round;stroke-linejoin:round;stroke-miterlimit:10;stroke-dasharray:none;stroke-opacity:1;visibility:visible"/><path d="m431.762 475.149-10.24-36 17.76 9.2M541.762 403.549v35.44M611.122 360.669l-65.12 26.96M558.242 396.269l-12.64-4.56M523.922 396.749l-40.96 16.96M598.562 410.749l-40.32-14.48 70.08-30.64" style="fill:none;stroke:red;stroke-width:.719998;stroke-linecap:round;stroke-linejoin:round;stroke-miterlimit:10;stroke-dasharray:none;stroke-opacity:1;visibility:visible"/><path d="m432.162 458.029-.24.24-.08.32c-.312 1.958 2.244 5.321 4.24 5.52l.32-.08.24-.16c1.09-1.814-2.044-5.682-3.84-6h-.4l-.24.16M541.762 403.549l4.24-15.92" style="fill:none;stroke:red;stroke-width:.719998;stroke-linecap:round;stroke-linejoin:round;stroke-miterlimit:10;stroke-dasharray:none;stroke-opacity:1;visibility:visible"/><path d="m482.962 413.709-30.88-13.28M662.722 433.869l-10.32 35.76-15.36 10.32" style="fill:none;stroke:#00ff4a;stroke-width:.719998;stroke-linecap:round;stroke-linejoin:round;stroke-miterlimit:10;stroke-dasharray:none;stroke-opacity:1;visibility:visible"/><path d="m662.722 433.869-15.68 9.6-10 36.48M452.082 400.429l-6.24-33.2 16.64-5.44" style="fill:none;stroke:#00ff4a;stroke-width:.719998;stroke-linecap:round;stroke-linejoin:round;stroke-miterlimit:10;stroke-dasharray:none;stroke-opacity:1;visibility:visible"/><path d="m445.842 367.229 78.08 29.52 17.84 6.8M637.042 479.949l-95.28-40.96M662.722 433.869l-64.16-23.12M541.762 403.549l105.28 39.92M535.922 388.269l-73.44-26.48M652.962 454.269l-.24-.08h-.32l-.4.16-.48.24-.48.4-.56.48-.96 1.12-.48.72c-.54.801-1.11 1.901-1.2 2.88l.08.4.08.32.24.16c1.91.209 5.212-4.515 4.96-6.24l-.08-.32-.16-.24M541.762 403.549l-5.84-15.28" style="fill:none;stroke:#00ff4a;stroke-width:.719998;stroke-linecap:round;stroke-linejoin:round;stroke-miterlimit:10;stroke-dasharray:none;stroke-opacity:1;visibility:visible"/><path d="m541.762 403.549 16.48-7.28M535.922 388.269l9.68 3.44" style="fill:none;stroke:red;stroke-width:.719998;stroke-linecap:round;stroke-linejoin:round;stroke-miterlimit:10;stroke-dasharray:none;stroke-opacity:1;visibility:visible"/></svg>