<svg xmlns="http://www.w3.org/2000/svg" baseProfile="full" height="1122.667" preserveAspectRatio="xMinYMin meet" style="width:912px;height:1303px" width="794.08" xml:space="preserve"><path d="m633.202 748.828-5.36-1.36-74-18M485.362 670.828l-3.28-.64M464.322 672.828l73.2 15.36M472.722 746.028l-8.4 1.68M456.962 708.348l96.4-16.88M466.322 700.268l-10.48 1.84M639.762 702.188l-68.4-13.92-15.84-3.2 82.24-14M555.522 685.068l-70.16-14.24M537.522 688.188l15.84 3.28 85.28 17.84M553.842 729.468l-58.88 12-22.24 4.56M571.362 688.268l72.08-12.56M537.522 688.188l-71.2 12.08M553.362 691.468l.48 38M552.162 687.868l.08.16.08.16c.325.399.437.262.96.48h.88l.24-.08.24-.08.32-.16.16-.16v-.08l.08-.16-.08-.16c-.676-.692-2.157-.845-2.88-.08l-.08.16M466.322 700.268l-9.36 8.08M537.522 688.188l18-3.12M553.362 691.468l18-3.2" style="fill:none;stroke:red;stroke-width:.719998;stroke-linecap:round;stroke-linejoin:round;stroke-miterlimit:10;stroke-dasharray:none;stroke-opacity:1;visibility:visible" visibility="hidden"/><path d="m674.322 541.468 21.04 1.44-2.4 17.84M495.122 913.628l46 29.84-37.92 13.759M495.922 912.988l-.96-.4M430.802 567.468l-3.52-25.04M467.922 542.508l-17.36-1.36M450.562 541.148l-23.28 1.28 17.28 1.52M495.922 912.988l2.4-.8M485.362 670.828l-17.44-128.32M511.922 866.108l-16.96-124.64M472.722 746.028l23.2 166.96M467.922 542.508l-23.36 1.44 21.76 156.32M626.642 976.987l-32.96 6.4-36.24 2.64M568.322 927.787l-2.72-.88M431.842 932.987l.72 13.04M548.082 934.987l2.64.88M555.602 926.347l-3.28.48M550.722 935.867l3.2.56 3.44.24 3.6-.16M433.202 962.827l.8 13.76M626.482 1009.227l-32.72 6.72-35.84 2.72M683.122 959.387l-1.12 13.68-10 13.6-18.8 12.4M521.922 1017.067l36 1.6M521.202 984.427l36.24 1.6M439.602 920.508l-7.76 12.48 1.36 29.839M462.562 1001.947l26.72 9.36M461.362 970.107l26.88 8.8M443.842 990.027l18.72 11.92M442.482 958.747l18.88 11.36M559.042 926.187l-3.44.16M489.282 1011.307l32.64 5.76M488.242 978.907l32.96 5.52M571.042 932.827l.64-1.36M567.282 935.147l2.24-1.04M568.322 927.787l1.92 1.04 1.2 1.28M571.682 931.467l-.24-1.36M569.522 934.107l1.52-1.28M565.602 926.907l-3.12-.56M626.482 1009.227l26.72-10.16M626.642 976.987l26.96-9.6M529.202 888.748l-2.72.4M588.482 888.028l-29.6-1.04M676.482 917.548l7.28 12.16-.64 29.679M552.322 926.827l-2.96.72M547.042 928.667l-1.52 1.2M450.802 912.188l-11.2 8.32M549.362 927.547l-2.32 1.12M558.882 886.988l-29.68 1.76M434.002 976.587l9.84 13.44M432.562 946.027l9.92 12.72M662.002 906.828l-5.68-2.4M596.162 889.068l-7.68-1.04M676.482 917.548l-14.48-10.72M638.722 709.308h-.08l-5.44 39.52.08-.08M503.522 958.827l-24.56 8.96M460.242 958.587l18.72 9.2-79.36-404.159M409.522 559.388l-29.92 2M379.602 561.388l20 2.24 30.08-2.16M409.522 559.388l20.16 2.08M625.842 969.227l-21.76-9.44M659.122 561.948l26.56 2.24M709.762 562.028l-24.08 2.16-59.84 405.04 21.76-8.881M627.842 747.468l-15.28 118.32M654.322 542.828l-16.56 128.24M673.202 560.748l2.16-16.48M674.322 541.468l-20 1.36" style="fill:none;stroke:#00ff4a;stroke-width:.719998;stroke-linecap:round;stroke-linejoin:round;stroke-miterlimit:10;stroke-dasharray:none;stroke-opacity:1;visibility:visible"/><path d="m654.322 542.828 21.04 1.44 20-1.36M498.322 912.188l-6.4-46 16.88-5.04M562.482 926.347l-3.44-.16M548.082 934.987l-2-1.12-1.12-1.28-.16-1.36.72-1.36M567.282 935.147l-2.96.88-3.36.48M653.602 967.387l18.96-11.76 10.08-12.96 1.12-12.96M519.042 888.828l1.12.48 1.2.8M516.242 889.228l.72-.48.96-.08M524.242 895.788l-.16.96-.56.72M528.882 925.387l-30.56-13.2M521.362 890.108l.96.96.88 1.12.64 1.28.4 1.2v1.12M517.922 888.668l1.12.16M515.682 889.948l.56-.72" style="fill:none;stroke:#00ff4a;stroke-width:.719998;stroke-linecap:round;stroke-linejoin:round;stroke-miterlimit:10;stroke-dasharray:none;stroke-opacity:1;visibility:visible"/><path d="m491.922 866.188 36.96 59.2 16.8-5.841M596.162 889.068l-21.68 30.8M511.922 866.108l-3.12-4.96M450.802 912.188l9.44 46.4M379.602 561.388l34.72 170.88M416.642 743.788l34.16 168.4M429.682 561.468l1.12 6M604.082 959.787l.24-1.84M709.762 562.028l-16.8-1.28-9.76-.8M683.202 559.948l-10 .8-14.08 1.2M647.602 960.347l62.16-398.319M604.322 957.947l-32.88-14.24M603.842 889.948l1.04-.16.88.16.64.4.4.72.16.96-.16 1.12-.48 1.2-.72 1.2-.88 1.12-1.04 1.04-1.2.72-1.12.48-1.04.24-.88-.16-.64-.48-.48-.72-.08-.88.16-1.12.48-1.2.72-1.28.88-1.12 1.04-.96 1.12-.72 1.2-.56M589.442 925.947l24.16-34.64M601.682 921.548l-12.24 4.399-14.96-6.08" style="fill:none;stroke:#00ff4a;stroke-width:.719998;stroke-linecap:round;stroke-linejoin:round;stroke-miterlimit:10;stroke-dasharray:none;stroke-opacity:1;visibility:visible"/><path d="m523.522 897.468-.8.4c-3.235.908-7.604-3.64-7.28-6.96l.24-.96M639.762 702.188l3.68-26.48.56-4.32M644.002 671.388l15.12-109.44M633.282 748.748l5.44-39.44 1.04-7.12M464.322 747.708l30.64 164.88.16 1.04 8.08 43.6.32 1.599M617.522 862.828l15.76-114.08M456.962 708.348l7.36 39.36M613.602 891.308l3.92-28.48M455.842 702.108l1.12 6.24M610.242 915.148l3.36-23.84M615.202 862.028l-2.64 3.76-16.4 23.28M545.682 919.548l-33.76-53.44M430.802 567.468l25.04 134.64M604.322 957.947l5.92-42.8M571.442 943.707l30.24-22.16 8.56-6.399M426.162 738.508l.24-.24.16-.32.16-.4v-.88l-.16-.56-.16-.48-.32-.56-.24-.48-.4-.48-.4-.4-.4-.32-.4-.24-.8-.16-.32.08-.24.16c-1.474 1.436.69 5.305 2.64 5.36h.32l.32-.08M709.762 562.028l-16.8-1.28M503.522 958.827l-.32-1.6M450.562 541.148l-6 2.8M464.322 747.708l8.4-1.68M455.842 702.108l10.48-1.84M517.922 888.668l8.56.48M683.202 559.948l2.48 4.24M633.282 748.748l-5.44-1.28M617.522 862.828l-4.96 2.96M644.002 671.388l-6.24-.32M659.122 561.948l14.08-1.2M416.642 743.788l-2.32-11.52M414.322 732.268l2.32 11.52" style="fill:none;stroke:#00ff4a;stroke-width:.719998;stroke-linecap:round;stroke-linejoin:round;stroke-miterlimit:10;stroke-dasharray:none;stroke-opacity:1;visibility:visible"/></svg>