<svg xmlns="http://www.w3.org/2000/svg" baseProfile="full" height="1122.667" preserveAspectRatio="xMinYMin meet" style="width:738px;height:965px" width="794.08" xml:space="preserve"><path d="m701.362 970.587-.48 21.84M614.162 960.267l-2.48-.16M604.562 966.347l-1.52-.8-.88-.88-.32-.96.4-.88M618.322 966.267l-2 .64-2.4.32M682.482 987.707l12.64-8.16 6.24-8.96-.16-8.96M664.162 994.427l-22.88 4.64-25.6 2.08M618.402 961.147l-1.92-.56M520.722 965.787l1.92 9.04M604.562 966.347l2 .56M609.202 960.267l-2.32.32M537.282 948.027l-2.48 1.2M606.562 966.907l2.32.32 2.48.16 2.56-.16M521.522 987.387l1.92 9.52M663.842 1017.547l-22.72 4.88-25.28 2.16M700.882 992.427l-6.24 9.44-12.56 8.56M590.082 1023.787l25.76.8M589.762 1000.427l25.92.72M525.042 957.067l-4.32 8.72.8 21.6M546.322 1014.027l19.92 6.08M545.682 991.067l20.08 5.84M531.762 1006.027l14.56 8M531.042 983.467l14.64 7.6M611.682 960.107l-2.48.16M566.242 1020.107l23.84 3.68M565.762 996.907l24 3.52M620.882 964.667l.32-.96M618.322 966.267l1.6-.72M618.402 961.147l1.52.72.96.88M621.202 963.707l-.32-.96M619.922 965.547l.96-.88M616.482 960.587l-2.32-.32M663.842 1017.547l18.24-7.12M664.162 994.427l18.32-6.72M629.522 933.307l-21.44-.48M701.202 961.627l-6-8.4M606.882 960.587l-2.08.56M603.282 961.947l-1.04.88M534.802 949.227l-9.76 7.84M604.802 961.147l-1.52.8M608.082 932.827l-20.88 1.36M523.442 996.907l8.32 9.12M522.642 974.827l8.4 8.64M636.722 934.187l-7.2-.88M695.202 953.227l-11.28-7.28" style="fill:none;stroke:red;stroke-width:.719998;stroke-linecap:round;stroke-linejoin:round;stroke-miterlimit:10;stroke-dasharray:none;stroke-opacity:1;visibility:visible" visibility="hidden"/><path d="m662.962 989.147-16.24-6.24M688.962 700.988l19.44 1.76M724.402 700.988l-16 1.76-45.44 286.4 14.8-6.161M646.722 982.907l.16-1.2M724.402 700.988l-19.04-1.68h-.32M705.042 699.308l-13.36 1.36-2.72.32" style="fill:none;stroke:#00ff4a;stroke-width:.719998;stroke-linecap:round;stroke-linejoin:round;stroke-miterlimit:10;stroke-dasharray:none;stroke-opacity:1;visibility:visible"/><path d="m677.762 982.987 6.08-37.12 40.56-244.879M646.882 981.707l-24.8-9.52M655.042 927.467l1.76-11.52 32.16-214.958M651.522 950.747l3.52-23.28M622.082 972.187l23.2-16.88 6.24-4.56-4.64 30.96" style="fill:none;stroke:#00ff4a;stroke-width:.719998;stroke-linecap:round;stroke-linejoin:round;stroke-miterlimit:10;stroke-dasharray:none;stroke-opacity:1;visibility:visible"/><path d="m600.322 972.187-25.68 9.68M574.802 983.067l-16.72 6.32M543.762 983.227l14.32 6.16-50.72-286.559M512.002 699.388l-20 1.76M492.002 701.148l15.36 1.68 20.08-1.76" style="fill:none;stroke:#9500ff;stroke-width:.719998;stroke-linecap:round;stroke-linejoin:round;stroke-miterlimit:10;stroke-dasharray:none;stroke-opacity:1;visibility:visible" visibility="hidden"/><path d="m492.002 701.148 45.28 246.88 6.48 35.199M512.002 699.388l5.12.56 10.32 1.12 16.4 97.52M569.362 950.747l3.76 2.64 27.2 18.8M543.842 798.588l19.92 118.56.64 4.08" style="fill:none;stroke:#9500ff;stroke-width:.719998;stroke-linecap:round;stroke-linejoin:round;stroke-miterlimit:10;stroke-dasharray:none;stroke-opacity:1;visibility:visible" visibility="hidden"/><path d="m564.402 921.227 4.96 29.52 5.28 31.12.16 1.2M574.802 983.067l-.16-1.2" style="fill:none;stroke:#9500ff;stroke-width:.719998;stroke-linecap:round;stroke-linejoin:round;stroke-miterlimit:10;stroke-dasharray:none;stroke-opacity:1;visibility:visible" visibility="hidden"/><path d="m517.122 699.948-2.08-14.72M544.322 685.228l-13.28-1.12M531.042 684.108l-16 1.12 13.28 1.2M575.842 917.228l-31.52-232M544.322 685.228l-16 1.2 15.52 112.16M581.842 933.787l.8.32.8.56M585.682 938.747l-.08.64-.4.56M589.922 959.787l-16.8-6.4M583.442 934.667l.72.72.64.8.48.88.32.88.08.8M581.042 933.627l.8.16M564.402 921.227l25.52 38.56 11.52-4.16M573.682 914.108l-9.92 3.04M575.842 917.228l-2.16-3.12" style="fill:none;stroke:#ffdf00;stroke-width:.719998;stroke-linecap:round;stroke-linejoin:round;stroke-miterlimit:10;stroke-dasharray:none;stroke-opacity:1;visibility:visible" visibility="hidden"/><path d="m585.202 939.947-.48.32c-2.542.554-5.348-2.672-5.36-5.04l.16-.64M601.442 955.627l-14.24-21.44-11.36-16.96M576.242 919.468v.24" style="fill:none;stroke:#ffdf00;stroke-width:.719998;stroke-linecap:round;stroke-linejoin:round;stroke-miterlimit:10;stroke-dasharray:none;stroke-opacity:1;visibility:visible" visibility="hidden"/><path d="m576.242 919.468.16-.24.64-.48M556.882 641.468v-119.2h-48.16v119.201l48.16-.001M508.722 641.468v-119.2h-48.16v119.201l48.16-.001M531.042 684.108l-2.72 2.32M575.842 917.228l-11.44 3.999" style="fill:none;stroke:#ffdf00;stroke-width:.719998;stroke-linecap:round;stroke-linejoin:round;stroke-miterlimit:10;stroke-dasharray:none;stroke-opacity:1;visibility:visible" visibility="hidden"/><path d="m691.682 684.028 15.6 1.12-1.92 14.16M678.002 685.228l-29.6 231.68M691.682 700.668l1.92-14.32M691.682 684.028l-13.68 1.2" style="fill:none;stroke:#00d4ff;stroke-width:.719998;stroke-linecap:round;stroke-linejoin:round;stroke-miterlimit:10;stroke-dasharray:none;stroke-opacity:1;visibility:visible" visibility="hidden"/><path d="m678.002 685.228 15.6 1.12 13.68-1.2M636.722 934.187l-14.48 21.44M656.802 915.948l-6.4-2M633.442 959.707l21.6-32.24M645.282 955.307l-11.84 4.4-11.2-4.08M650.402 913.948l-13.68 20.24M693.602 686.348l11.76 12.96M705.362 699.308l-11.76-12.96M636.722 934.188l18.32-6.721" style="fill:none;stroke:#00d4ff;stroke-width:.719998;stroke-linecap:round;stroke-linejoin:round;stroke-miterlimit:10;stroke-dasharray:none;stroke-opacity:1;visibility:visible" visibility="hidden"/><path d="m517.122 699.948-9.76 2.88" style="fill:none;stroke:#9500ff;stroke-width:.719998;stroke-linecap:round;stroke-linejoin:round;stroke-miterlimit:10;stroke-dasharray:none;stroke-opacity:1;visibility:visible" visibility="hidden"/><path d="m507.362 702.828 9.76-2.88M575.842 917.228l-12.08-.08" style="fill:none;stroke:#ffdf00;stroke-width:.719998;stroke-linecap:round;stroke-linejoin:round;stroke-miterlimit:10;stroke-dasharray:none;stroke-opacity:1;visibility:visible" visibility="hidden"/><path d="m655.042 927.467-6.64-10.559M688.962 700.989l2.72-.321" style="fill:none;stroke:#00d4ff;stroke-width:.719998;stroke-linecap:round;stroke-linejoin:round;stroke-miterlimit:10;stroke-dasharray:none;stroke-opacity:1;visibility:visible" visibility="hidden"/></svg>