<svg xmlns="http://www.w3.org/2000/svg" baseProfile="full" height="1122.52" preserveAspectRatio="xMinYMin meet" style="width:914px;height:841px" width="793.701" xml:space="preserve"><path d="M529.308 757.304c.401.132 1.035.054 1.39-.175" style="fill:none;stroke:red;stroke-width:.999997;stroke-linecap:round;stroke-linejoin:round;stroke-miterlimit:4;stroke-dasharray:none;stroke-opacity:1;visibility:visible"/><path d="M315.974 700.498c.583-.113 1.168-.228 1.759-.337a141.837 141.837 0 0 1 7.02-1.104 168.142 168.142 0 0 1 11.3-1.093 183.08 183.08 0 0 1 3.899-.207 183.886 183.886 0 0 1 7.906-.175 196.365 196.365 0 0 1 7.917.151 188.766 188.766 0 0 1 7.785.47c1.278.108 2.547.222 3.8.357a152.796 152.796 0 0 1 10.631 1.48l.863.157M378.855 700.197c1.475.276 2.95.55 4.421.828 2.794.532 5.566 1.075 8.322 1.63a758.371 758.371 0 0 1 8.2 1.71 685.19 685.19 0 0 1 16.048 3.637c2.632.632 5.246 1.276 7.837 1.932 2.59.656 5.159 1.326 7.701 2.008a539.295 539.295 0 0 1 22.276 6.458 482.027 482.027 0 0 1 14.095 4.669c.59.207 1.182.412 1.77.623M469.524 723.692c.47.17.947.341 1.412.516a52.123 52.123 0 0 1 4.775 2.065 36.267 36.267 0 0 1 2.024 1.085c.63.362 1.221.735 1.77 1.103.547.37 1.06.741 1.508 1.112.39.319.728.637 1.072.955M479.904 742.71c-.044.83.57 1.652 1.379 1.85M480.128 732.964l-.224 9.746M480.892 731.494c-.437.287-.784.946-.765 1.471M530.699 757.129 648.04 691.94M481.283 744.56l48.026 12.745M648.041 691.942c.272-.156.55-.314.805-.472.514-.32.98-.653 1.4-1a9.74 9.74 0 0 0 1.147-1.094c.292-.33.555-.676.776-1.036a6.31 6.31 0 0 0 .517-1.062 4.27 4.27 0 0 0 .275-1.085c.019-.19.012-.387.012-.577M653.008 685.681l.356-8.93M653.33 676.777c.012-.23.03-.46.015-.687a4.179 4.179 0 0 0-.23-1.132 6.88 6.88 0 0 0-.473-1.086 7.561 7.561 0 0 0-.721-1.067 9.397 9.397 0 0 0-.99-1.06c-.381-.361-.804-.71-1.262-1.048a19.333 19.333 0 0 0-1.531-1.007 25.933 25.933 0 0 0-1.758-.96c-.62-.309-1.27-.609-1.96-.902a41.278 41.278 0 0 0-2.152-.848c-.342-.12-.688-.243-1.03-.362M268.577 686.788c-.022.75.54 1.482 1.268 1.652M268.594 677.716l-.019 9.072M270.022 676.006a1.745 1.745 0 0 0-1.427 1.708M333.493 664.29l-63.471 11.716M269.845 688.441l45.34 12.033" style="fill:none;stroke:red;stroke-width:1.99999;stroke-linecap:round;stroke-linejoin:round;stroke-miterlimit:4;stroke-dasharray:none;stroke-opacity:1;visibility:visible"/><path d="M315.186 700.474c.204.067.576.078.79.024" style="fill:none;stroke:red;stroke-width:1.99999;stroke-linecap:round;stroke-linejoin:round;stroke-miterlimit:4;stroke-dasharray:none;stroke-opacity:1;visibility:visible"/><path d="M490.432 664.29c-.585.06-1.164.12-1.752.174-1.26.116-2.55.21-3.853.298a231.297 231.297 0 0 1-7.947.378c-1.34.038-2.699.066-4.056.08-1.183.01-2.367.005-3.556.002" style="fill:none;stroke:red;stroke-width:.999997;stroke-linecap:round;stroke-linejoin:round;stroke-miterlimit:4;stroke-dasharray:none;stroke-opacity:1;visibility:visible"/><path d="m628.105 688.005 11.85-314.775M468.785 687.145l6.92-316.275M497.644 363.255l-7.393 308.607M641.237 666.617c-.75-.255-1.503-.51-2.263-.759-1.45-.477-2.937-.942-4.442-1.405a168.346 168.346 0 0 0-4.603-1.35c-.289-.079-.583-.163-.876-.241" style="fill:none;stroke:red;stroke-width:1.99999;stroke-linecap:round;stroke-linejoin:round;stroke-miterlimit:4;stroke-dasharray:none;stroke-opacity:1;visibility:visible"/><path d="m513.81 359.53-.03.963M530.117 743.768c-.717.418-1.24 1.428-1.164 2.254M647.625 679.813l1.412-.868 1.117-.91.831-.941.521-.971.22-.985-.076-1.001-.382-1.003-.68-1.002-.972-.99-1.256-.972-1.523-.946-1.785-.918-2.027-.876-2.263-.834M270.326 676.052l45.393 11.832M379.32 687.61c-16.72-3.639-46.911-3.51-63.601.273M530.117 743.768l117.51-63.955M482.025 731.23l48.092 12.536M531.71 745.908l-.28 9.902M528.672 755.929l.281-9.907" style="fill:none;stroke:red;stroke-width:.999997;stroke-linecap:round;stroke-linejoin:round;stroke-miterlimit:4;stroke-dasharray:none;stroke-opacity:1;visibility:visible"/><path d="M531.71 745.908c.056-.968-.652-1.919-1.594-2.14" style="fill:none;stroke:red;stroke-width:.999997;stroke-linecap:round;stroke-linejoin:round;stroke-miterlimit:4;stroke-dasharray:none;stroke-opacity:1;visibility:visible"/><path d="m486.136 721.241.488 1.452.133 1.459-.226 1.454-.591 1.446-.952 1.425-1.308 1.396-1.656 1.359" style="fill:none;stroke:red;stroke-width:1.99999;stroke-linecap:round;stroke-linejoin:round;stroke-miterlimit:4;stroke-dasharray:none;stroke-opacity:1;visibility:visible"/><path d="m316.673 689.988-.064 9.224M316.673 689.988c.1-.748-.326-1.69-.954-2.106M470.368 710.785c-22.717-8.285-67.136-19.59-91.05-23.177M470.37 710.785l3.005 1.124 2.746 1.19 2.46 1.251 2.159 1.3 1.848 1.351 1.522 1.383 1.187 1.416.84 1.44M314.475 699.17l.065-9.223" style="fill:none;stroke:red;stroke-width:.999997;stroke-linecap:round;stroke-linejoin:round;stroke-miterlimit:4;stroke-dasharray:none;stroke-opacity:1;visibility:visible"/><path d="M315.72 687.884c-.732.342-1.259 1.26-1.18 2.064" style="fill:none;stroke:red;stroke-width:.999997;stroke-linecap:round;stroke-linejoin:round;stroke-miterlimit:4;stroke-dasharray:none;stroke-opacity:1;visibility:visible"/><path d="M653.008 685.681v-.047" style="fill:none;stroke:red;stroke-width:1.99999;stroke-linecap:round;stroke-linejoin:round;stroke-miterlimit:4;stroke-dasharray:none;stroke-opacity:1;visibility:visible"/><path d="m497.997 363.118-.177.035-.12.045-.049.047.012.048.081.049.146.047.2.044.25.037M498.341 363.471l7.69 1.007M506.03 364.477c.63.102 1.805.109 2.442.006M508.473 364.483l18.591-3.126M516.641 360.015l10.423 1.342" style="fill:none;stroke:red;stroke-width:.999997;stroke-linecap:round;stroke-linejoin:round;stroke-miterlimit:4;stroke-dasharray:none;stroke-opacity:1;visibility:visible"/><path d="m497.997 362.74 8.024-1.316M510.076 360.81l5.847-1.027" style="fill:none;stroke:red;stroke-width:1.99999;stroke-linecap:round;stroke-linejoin:round;stroke-miterlimit:4;stroke-dasharray:none;stroke-opacity:1;visibility:visible"/><path d="m516.028 361.01-.67.019-.829.064-.609.104-.345.126-.042.147.267.148.544.139.781.113.948.083 1.027.04h1.015l.914-.047.731-.086M355.035 357.075l-.193.035-.139.04-.076.048-.005.047M354.623 357.246l.055.048.122.048.183.041.233.039M465.136 372.309c.655.109 1.864.111 2.524.005M458.503 690.176l6.633-317.867M458.503 690.176c.657.194 1.797.176 2.445-.044M490.92 672.268l-.244-.072-.196-.08-.137-.09-.074-.095-.018-.069M518.865 667.508l-18.133 6.497M527.065 361.358l-8.198 306.15M490.92 672.268l7.44 1.778M498.359 674.046c.638.187 1.746.167 2.373-.04M508.473 364.483l-7.74 309.52M498.359 674.046l7.67-309.568M511.493 363.249l.488-.12.199-.143-.116-.148-.41-.145-.674-.128-.875-.102-.998-.062-.197-.003" style="fill:none;stroke:red;stroke-width:.999997;stroke-linecap:round;stroke-linejoin:round;stroke-miterlimit:4;stroke-dasharray:none;stroke-opacity:1;visibility:visible"/><path d="m507.092 362.406-.836.068-.621.103-.35.128-.045.149.265.15.543.136.785.118.95.082 1.032.04h1.022l.92-.047.736-.084M519.759 361.86l.481-.116.19-.139-.113-.15-.418-.142-.669-.127-.633-.072" style="fill:none;stroke:red;stroke-width:.999997;stroke-linecap:round;stroke-linejoin:round;stroke-miterlimit:4;stroke-dasharray:none;stroke-opacity:1;visibility:visible"/><path d="m365.338 355.295 35.797 4.812M406.558 360.835l16.152 2.17M428.532 363.787l46.472 6.248M365.338 355.342a10.04 10.04 0 0 0-2.426-.008M362.912 355.335l-7.876 1.175" style="fill:none;stroke:red;stroke-width:1.99999;stroke-linecap:round;stroke-linejoin:round;stroke-miterlimit:4;stroke-dasharray:none;stroke-opacity:1;visibility:visible"/><path d="m468.785 687.145-.002.03-.058.101-.12.09-.181.082M468.423 687.448l-7.475 2.685M441.712 397.2l.944.295.878.59.745.842.565 1.044.34 1.167.106 1.214-.151 1.178-.384 1.057-.599.87-.773.621-.89.329-.953.017-.94-.297-.873-.592-.741-.844-.564-1.04-.348-1.165-.1-1.21.149-1.174.383-1.059.597-.87.772-.619.89-.334.948-.02M373.22 643.019l.875.065.832-.234.713-.515.556-.76.351-.956.13-1.087-.101-1.143-.328-1.119-.531-1.017-.697-.85-.814-.626-.882-.353-.88-.06-.829.235-.705.517-.555.764-.355.953-.126 1.087.105 1.136.323 1.114.53 1.019.691.851.817.62.88.36M436.844 658.213l.926.07.866-.233.75-.52.59-.778.371-.971.143-1.11-.096-1.166-.338-1.146-.548-1.044-.73-.875-.851-.64-.92-.368-.923-.068-.87.236-.749.524-.581.776-.373.972-.141 1.11.102 1.161.335 1.144.548 1.043.721.872.848.644.92.367M458.503 690.176l-97.139-24.118M376.375 387.698l.901.282.836.577.718.822.542 1.016.332 1.142.108 1.184-.132 1.151-.365 1.038-.567.85-.733.61-.85.326-.903.02-.898-.291-.836-.573-.712-.822-.54-1.015-.336-1.135-.104-1.185.132-1.148.36-1.037.567-.85.728-.614.845-.326.907-.022M405.952 362.822l.534-.119.248-.141-.064-.15-.364-.148-.644-.129M401.774 361.975l-.872.068-.667.103-.397.133-.098.147.215.15.507.141.757.113.935.084 1.034.043 1.032-.003.95-.045.782-.087M427.808 365.77l.528-.121.239-.143-.075-.153-.378-.15-.266-.053M423.098 364.946l-.426.033-.664.108-.388.134-.085.149.223.153.518.143.77.114.948.087 1.04.043 1.044-.001.952-.049.778-.09M383.932 359.851l.472-.106.188-.126-.12-.133-.412-.124-.661-.105-.833-.07-.927-.03-.91.013-.795.056-.599.092-.337.117-.035.13.267.132.545.116.757.087.894.053.934.007.863-.034.71-.076M449.486 368.695l.458-.113.163-.132-.15-.14-.447-.132-.698-.108-.868-.075-.944-.03-.924.017-.801.056-.59.097-.315.125-.01.138.3.137.582.125.793.091.923.052.946.01.876-.04.706-.077M355.628 357.453l109.508 14.856M475.335 371.02l-7.677 1.295M475.335 371.02l.185-.04.121-.046.062-.047-.013-.052-.078-.052-.144-.05-.207-.046-.256-.041M516.163 359.06l-2.019.332M514.145 359.393l-.172.037-.113.043-.05.046.019.047.078.05.149.044.195.045.254.038M630.302 374.651c.646.11 1.838.112 2.486.009M618.685 690.988l11.617-316.338M618.685 690.988c.645.197 1.768.177 2.408-.044" style="fill:none;stroke:red;stroke-width:.999997;stroke-linecap:round;stroke-linejoin:round;stroke-miterlimit:4;stroke-dasharray:none;stroke-opacity:1;visibility:visible"/><path d="M375.943 641.848c-.021-.008-.036-.018-.057-.028a.697.697 0 0 1-.347-.36 1.179 1.179 0 0 1-.139-.49.937.937 0 0 1 .155-.55.813.813 0 0 1 .352-.307 1.37 1.37 0 0 1 .148-.062M376.055 640.052l.528-.044M439.695 657.056a1.5 1.5 0 0 1-.256-.099.973.973 0 0 1-.375-.375 1.241 1.241 0 0 1-.162-.505.977.977 0 0 1 .13-.569.843.843 0 0 1 .488-.386M439.519 655.122a1.8 1.8 0 0 1 .61-.058c.079.01.177.03.266.052M378.71 395.758a1.066 1.066 0 0 1-.128-.134.533.533 0 0 1-.087-.433.725.725 0 0 1 .63-.628c.108-.015.224-.01.344-.003M444.039 405.566a1.501 1.501 0 0 1-.284-.283.69.69 0 0 1-.12-.447.701.701 0 0 1 .21-.458.867.867 0 0 1 .394-.194 1.253 1.253 0 0 1 .553-.009l.128.03" style="fill:none;stroke:red;stroke-width:.999997;stroke-linecap:round;stroke-linejoin:round;stroke-miterlimit:4;stroke-dasharray:none;stroke-opacity:1;visibility:visible"/><path d="m523.67 357.751 39.28 5.02M567.38 363.337l18.576 2.373M590.207 366.257l48.942 6.253M523.67 357.751a9.856 9.856 0 0 0-2.393-.01M521.276 357.742l-2.121.296" style="fill:none;stroke:red;stroke-width:1.99999;stroke-linecap:round;stroke-linejoin:round;stroke-miterlimit:4;stroke-dasharray:none;stroke-opacity:1;visibility:visible"/><path d="m563.359 364.283-.715.019-.817.068-.604.104-.323.132-.017.148.287.148.57.141.804.118.965.082 1.039.043 1.016-.003.91-.045.716-.09M590.215 368.102l.46-.122.158-.143-.153-.155-.45-.148-.47-.087M586.553 367.218l-.977.024-.821.07-.596.104-.314.138-.01.148.303.153.585.142.813.118.976.085 1.05.043 1.019-.003.915-.049.719-.088M544 362.174l.413-.107.115-.127-.188-.13-.468-.128-.703-.102-.859-.07-.923-.03-.887.012-.756.057-.544.09-.27.119.039.132.329.131.592.116.794.088.904.052.921.009.836-.036.655-.076M613.046 371.033l.39-.114.09-.133-.22-.143-.504-.128-.74-.11-.895-.071-.947-.034-.899.014-.756.06-.532.099-.247.122.066.139.365.136.635.124.826.093.935.054.937.008.843-.039.653-.077M514.504 359.742l1.879.24M519.056 360.329l111.246 14.321M639.661 373.359l-6.873 1.302M639.662 373.36l.163-.044.096-.043.033-.051-.036-.05-.102-.052-.17-.05-.226-.045-.27-.043M627.813 688.268a.383.383 0 0 0 .292-.263M627.813 688.268l-6.721 2.677M605.225 399.4l.992.294.915.588.773.841.577 1.037.351 1.162.087 1.208-.17 1.172-.425 1.053-.644.865-.823.616-.948.328-1.004.016-.986-.298-.91-.59-.778-.838-.579-1.036-.343-1.159-.09-1.205.169-1.168.421-1.054.643-.865.827-.617.94-.33 1.005-.02M529.343 644.021l.932.06.873-.23.761-.514.598-.754.385-.954.155-1.079-.091-1.138-.328-1.113-.547-1.015-.724-.847-.85-.62-.927-.354-.929-.06-.878.234-.756.514-.594.759-.384.949-.151 1.08.092 1.133.328 1.112.54 1.013.724.846.848.62.923.359M596.285 659.17l.98.067.918-.231.797-.518.631-.772.415-.968.166-1.106-.092-1.162-.337-1.14-.567-1.037-.752-.871-.89-.64-.962-.365-.982-.067-.913.233-.801.524-.626.77-.41.968-.164 1.104.09 1.158.334 1.135.565 1.04.747.866.887.642.966.37M618.685 690.988l-99.818-23.482M536.397 389.89l.946.284.877.574.745.816.559 1.014.335 1.136.093 1.18-.157 1.144-.399 1.032-.612.85-.781.604-.903.32-.952.022-.947-.288-.876-.57-.734-.823-.559-1.009-.337-1.133-.092-1.176.157-1.143.395-1.03.605-.848.78-.608.9-.325.957-.023" style="fill:none;stroke:red;stroke-width:.999997;stroke-linecap:round;stroke-linejoin:round;stroke-miterlimit:4;stroke-dasharray:none;stroke-opacity:1;visibility:visible"/><path d="m567.19 365.149.474-.12.164-.141-.14-.151-.436-.147-.699-.128M532.147 642.999c-.163-.049-.328-.096-.467-.171a1.181 1.181 0 0 1-.58-.852.923.923 0 0 1 .088-.547.712.712 0 0 1 .299-.306c.045-.024.089-.04.133-.06M531.623 641.063c.184-.031.364-.06.567-.053a2.747 2.747 0 0 1 .679.13l.048.016M599.225 658.146h-.053a1.176 1.176 0 0 1-.628-.231 1.68 1.68 0 0 1-.421-.375 1.153 1.153 0 0 1-.223-.504.984.984 0 0 1 .063-.566.73.73 0 0 1 .42-.382M598.385 656.088c.175-.034.355-.068.562-.06.2.01.429.062.674.132.143.04.281.087.427.131M538.512 398.128a.806.806 0 0 1-.083-.028.727.727 0 0 1-.362-.324.884.884 0 0 1-.148-.433.605.605 0 0 1 .16-.443.715.715 0 0 1 .351-.185c.149-.035.325-.037.519-.005.171.024.354.076.538.124M607.35 407.86a1.921 1.921 0 0 1-.254-.085.939.939 0 0 1-.395-.333.965.965 0 0 1-.179-.448.6.6 0 0 1 .14-.455.61.61 0 0 1 .333-.195c.145-.036.325-.032.514-.008a3.547 3.547 0 0 1 .621.146l.256.086M469.265 665.296c5.395.124 15.805-.326 21.165-.916M528.672 755.929a1.28 1.28 0 0 0 .637 1.375M530.699 757.129c.434-.235.761-.825.73-1.319" style="fill:none;stroke:red;stroke-width:.999997;stroke-linecap:round;stroke-linejoin:round;stroke-miterlimit:4;stroke-dasharray:none;stroke-opacity:1;visibility:visible"/><path d="M482.025 731.23a1.517 1.517 0 0 0-1.132.263" style="fill:none;stroke:red;stroke-width:1.99999;stroke-linecap:round;stroke-linejoin:round;stroke-miterlimit:4;stroke-dasharray:none;stroke-opacity:1;visibility:visible"/><path d="M314.475 699.17a1.243 1.243 0 0 0 .71 1.303M315.974 700.497c.453-.219.735-.792.635-1.284" style="fill:none;stroke:red;stroke-width:.999997;stroke-linecap:round;stroke-linejoin:round;stroke-miterlimit:4;stroke-dasharray:none;stroke-opacity:1;visibility:visible"/><path d="m270.326 676.052-.177-.048-.129.004" style="fill:none;stroke:red;stroke-width:1.99999;stroke-linecap:round;stroke-linejoin:round;stroke-miterlimit:4;stroke-dasharray:none;stroke-opacity:1;visibility:visible"/><path d="M641.237 666.617a.88.88 0 0 0-.473-.023" style="fill:none;stroke:red;stroke-width:.999997;stroke-linecap:round;stroke-linejoin:round;stroke-miterlimit:4;stroke-dasharray:none;stroke-opacity:1;visibility:visible"/><path d="m334.48 361.658-.99 308.695" style="fill:none;stroke:red;stroke-width:1.99999;stroke-linecap:round;stroke-linejoin:round;stroke-miterlimit:4;stroke-dasharray:none;stroke-opacity:1;visibility:visible"/><path d="m334.83 361.511-.178.039-.117.047-.05.049.015.048.08.046.15.045.196.04.256.034M335.182 361.858l7.706.847M342.888 362.705c.635.09 1.81.07 2.444-.045M345.332 362.66l18.523-3.51M353.406 358.023l10.45 1.127M350.564 357.595l-.006.965" style="fill:none;stroke:red;stroke-width:.999997;stroke-linecap:round;stroke-linejoin:round;stroke-miterlimit:4;stroke-dasharray:none;stroke-opacity:1;visibility:visible"/><path d="m334.822 361.135 7.994-1.481M346.858 358.954l5.822-1.148" style="fill:none;stroke:red;stroke-width:1.99999;stroke-linecap:round;stroke-linejoin:round;stroke-miterlimit:4;stroke-dasharray:none;stroke-opacity:1;visibility:visible"/><path d="m352.812 359.03-.668.032-.829.081-.605.117-.343.135-.039.148.27.142.548.125.782.1.95.063 1.025.017 1.017-.02.914-.065.728-.102M351.262 357.794l1.884.201M352.907 357.077l-2.012.376M350.895 357.453l-.17.037-.115.047-.047.049.02.044.079.05.15.042.194.038.256.034M334.168 670.741l-.245-.063-.199-.077-.137-.09-.077-.089-.019-.069M362.008 665.402l-17.993 6.872M363.856 359.149l-1.848 306.253M334.168 670.741l7.476 1.625M341.643 672.366c.641.175 1.75.131 2.372-.09M345.332 362.66l-1.318 309.615M341.643 672.366l1.245-309.661M348.326 361.363l.484-.13.196-.145-.119-.146-.415-.139-.674-.112-.876-.084-1.002-.042h-.193" style="fill:none;stroke:red;stroke-width:.999997;stroke-linecap:round;stroke-linejoin:round;stroke-miterlimit:4;stroke-dasharray:none;stroke-opacity:1;visibility:visible"/><path d="m343.908 360.613-.833.085-.62.116-.347.136-.042.15.268.142.546.128.787.1.953.064 1.032.02 1.022-.024.918-.067.734-.1M356.56 359.805l.48-.128.185-.143-.117-.145-.418-.136-.672-.113-.636-.06" style="fill:none;stroke:red;stroke-width:.999997;stroke-linecap:round;stroke-linejoin:round;stroke-miterlimit:4;stroke-dasharray:none;stroke-opacity:1;visibility:visible"/><path d="m641.237 666.617-12.184-3.755" style="fill:none;stroke:red;stroke-width:1.99999;stroke-linecap:round;stroke-linejoin:round;stroke-miterlimit:4;stroke-dasharray:none;stroke-opacity:1;visibility:visible"/><path d="m508.473 364.483 5.307-3.99" style="fill:none;stroke:red;stroke-width:.999997;stroke-linecap:round;stroke-linejoin:round;stroke-miterlimit:4;stroke-dasharray:none;stroke-opacity:1;visibility:visible"/><path d="m508.473 364.483-2.452-3.059M511.493 363.249l-1.417-2.439" style="fill:none;stroke:red;stroke-width:1.99999;stroke-linecap:round;stroke-linejoin:round;stroke-miterlimit:4;stroke-dasharray:none;stroke-opacity:1;visibility:visible"/><path d="m508.91 362.398 7.118-1.388M516.028 361.01l-7.118 1.388M508.473 364.483l-1.381-2.077" style="fill:none;stroke:red;stroke-width:.999997;stroke-linecap:round;stroke-linejoin:round;stroke-miterlimit:4;stroke-dasharray:none;stroke-opacity:1;visibility:visible"/><path d="m405.662 362.135-4.527-2.028M401.135 360.107l5.423.728M427.856 365.15l-5.146-2.145M422.71 363.005l5.822.782" style="fill:none;stroke:red;stroke-width:1.99999;stroke-linecap:round;stroke-linejoin:round;stroke-miterlimit:4;stroke-dasharray:none;stroke-opacity:1;visibility:visible"/><path d="m444.92 404.205-3.208-7.005M467.66 372.314l-18.174-3.619M467.658 372.315l-18.172-3.619M441.712 397.2l3.208 7.005" style="fill:none;stroke:red;stroke-width:.999997;stroke-linecap:round;stroke-linejoin:round;stroke-miterlimit:4;stroke-dasharray:none;stroke-opacity:1;visibility:visible"/><path d="m566.553 364.462-3.603-1.691M562.95 362.771l4.43.566M589.76 367.447l-3.804-1.737M585.956 365.71l4.251.547M516.163 359.06l2.992-1.022" style="fill:none;stroke:red;stroke-width:1.99999;stroke-linecap:round;stroke-linejoin:round;stroke-miterlimit:4;stroke-dasharray:none;stroke-opacity:1;visibility:visible"/><path d="m527.064 361.357 16.936.817M608.386 406.568l-3.161-7.168M599.225 658.146l-2.94 1.024M539.487 396.834l-3.09-6.944M596.285 659.17l2.94-1.024M536.397 389.89l2.115 8.238M536.397 389.89l3.09 6.944M605.225 399.4l2.125 8.46M605.225 399.4l3.161 7.168M345.332 362.66l5.226-4.1" style="fill:none;stroke:red;stroke-width:.999997;stroke-linecap:round;stroke-linejoin:round;stroke-miterlimit:4;stroke-dasharray:none;stroke-opacity:1;visibility:visible"/><path d="m345.332 362.66-2.516-3.006M348.326 361.363l-1.468-2.409" style="fill:none;stroke:red;stroke-width:1.99999;stroke-linecap:round;stroke-linejoin:round;stroke-miterlimit:4;stroke-dasharray:none;stroke-opacity:1;visibility:visible"/><path d="m345.727 360.565 7.085-1.535M352.812 359.03l-7.085 1.535M345.332 362.66l-1.424-2.047M355.216 357.422l.166 1.658" style="fill:none;stroke:red;stroke-width:.999997;stroke-linecap:round;stroke-linejoin:round;stroke-miterlimit:4;stroke-dasharray:none;stroke-opacity:1;visibility:visible"/><path d="M541.81 321.42a2 2 0 0 0 .604-.026" style="fill:none;stroke:#00ff4a;stroke-width:.999997;stroke-linecap:round;stroke-linejoin:round;stroke-miterlimit:4;stroke-dasharray:none;stroke-opacity:1;visibility:visible" visibility="hidden"/><path d="M489.813 313.698a1.938 1.938 0 0 0 1.714 1.97M490.057 303.102l-.244 10.596M491.521 301.262c-.82.183-1.469 1-1.464 1.84M542.416 321.394l120.73-23.853M491.528 315.669l50.283 5.749" style="fill:none;stroke:#00ff4a;stroke-width:1.99999;stroke-linecap:round;stroke-linejoin:round;stroke-miterlimit:4;stroke-dasharray:none;stroke-opacity:1;visibility:visible" visibility="hidden"/><path d="M488.064 308.946c.596.141 1.192.277 1.681.419l.168.048" style="fill:none;stroke:#00ff4a;stroke-width:.999997;stroke-linecap:round;stroke-linejoin:round;stroke-miterlimit:4;stroke-dasharray:none;stroke-opacity:1;visibility:visible" visibility="hidden"/><path d="m555.972 273.169-41.347 2.35M448.522 274.917l-27.707-1.81M663.145 297.542c.268-.056.536-.112.793-.17.512-.109.968-.229 1.395-.357.43-.133.83-.271 1.19-.429.336-.144.644-.304.939-.506.187-.126.369-.27.538-.446.144-.154.282-.334.412-.552.121-.2.226-.43.257-.68.013-.12.01-.244.008-.368M668.714 294.031l.386-9.634M669.061 284.386c.016-.13.028-.263.019-.39a1.653 1.653 0 0 0-.218-.696 2.882 2.882 0 0 0-.352-.534 3.177 3.177 0 0 0-.46-.436 4.41 4.41 0 0 0-.648-.42 7.988 7.988 0 0 0-1.037-.477 17.067 17.067 0 0 0-1.221-.416 29.132 29.132 0 0 0-1.55-.419 47.482 47.482 0 0 0-1.73-.383 66.6 66.6 0 0 0-1.935-.365 97.073 97.073 0 0 0-2.128-.348c-.592-.09-1.201-.175-1.813-.262M269.394 288.645a1.81 1.81 0 0 0 1.605 1.8M269.413 278.842l-.019 9.803M271.098 277.074a1.777 1.777 0 0 0-1.687 1.77M357.44 272.52l-86.342 4.555M271 290.446l47.17 5.395M318.171 295.84c.083.012.239.016.316.01" style="fill:none;stroke:#00ff4a;stroke-width:1.99999;stroke-linecap:round;stroke-linejoin:round;stroke-miterlimit:4;stroke-dasharray:none;stroke-opacity:1;visibility:visible" visibility="hidden"/><path d="m496.797 298.386-.097-.339-.533-.557-.897-.56-1.257-.553-1.605-.548-1.945-.539-2.268-.527-2.583-.512-2.872-.493-3.148-.472M663.266 284.318 542.397 306.72M542.397 306.72l-50.362-5.506M541.188 308.84l-.299 10.784M543.76 319.618l.305-10.781M542.397 306.72c-.796.325-1.329 1.268-1.209 2.12M544.065 308.837a1.996 1.996 0 0 0-1.668-2.118" style="fill:none;stroke:#00ff4a;stroke-width:.999997;stroke-linecap:round;stroke-linejoin:round;stroke-miterlimit:4;stroke-dasharray:none;stroke-opacity:1;visibility:visible" visibility="hidden"/><path d="m492.033 301.215 1.711-.49 1.341-.51.967-.525.593-.54.215-.547-.064-.218" style="fill:none;stroke:#00ff4a;stroke-width:1.99999;stroke-linecap:round;stroke-linejoin:round;stroke-miterlimit:4;stroke-dasharray:none;stroke-opacity:1;visibility:visible" visibility="hidden"/><path d="m318.443 282.242-47.233-5.161M384.586 283.122c-16.852-1.63-49.254-2.059-66.143-.881M479.59 293.285c-23.874-3.48-70.931-8.515-95.003-10.165" style="fill:none;stroke:#00ff4a;stroke-width:.999997;stroke-linecap:round;stroke-linejoin:round;stroke-miterlimit:4;stroke-dasharray:none;stroke-opacity:1;visibility:visible" visibility="hidden"/><path d="M655.802 279.231c-14.758-2.1-43.749-4.889-58.64-5.634M597.163 273.598c-10.44-.888-30.594-1.096-41.053-.421M514.76 275.526l41.35-2.35M448.446 274.922c16.87 1.421 49.418 1.718 66.314.605M420.74 273.109l27.706 1.811M420.739 273.109c-16.067-1.315-47.093-1.603-63.175-.58M271.21 277.08l86.354-4.55" style="fill:none;stroke:#00ff4a;stroke-width:1.99999;stroke-linecap:round;stroke-linejoin:round;stroke-miterlimit:4;stroke-dasharray:none;stroke-opacity:1;visibility:visible" visibility="hidden"/><path d="m378.826 275.025.964-.076 1.16-.043 1.28-.01 1.313.022 1.276.062 1.148.084.95.111.703.127.4.136.078.136-.256.13-.57.112-.845.091-1.073.06-1.231.025-1.313-.006-1.312-.041-1.224-.075-1.064-.099-.834-.12-.549-.131-.232-.139.092-.134.42-.122.719-.1M655.802 279.231l2.368.35 2.127.361 1.876.373 1.608.38 1.327.385 1.029.39.733.385.426.385.11.38-.201.365-.523.36-.832.342-1.14.324-1.444.307" style="fill:none;stroke:#00ff4a;stroke-width:.999997;stroke-linecap:round;stroke-linejoin:round;stroke-miterlimit:4;stroke-dasharray:none;stroke-opacity:1;visibility:visible" visibility="hidden"/><path d="m609.193 284.646.887-.081 1.104-.046 1.258-.012 1.335.024 1.325.06 1.234.09 1.064.117.833.135.543.142.221.148-.115.137-.449.12-.75.095-.999.067-1.2.03-1.311-.008-1.348-.042-1.297-.076-1.162-.105-.956-.127-.689-.141-.376-.146-.045-.142.286-.13.607-.109M539.839 277.753l.893-.076 1.1-.047 1.247-.008 1.301.023 1.29.058 1.19.087 1.008.112.779.128.492.136.171.139-.157.13-.473.112-.765.091-1.008.06-1.187.028-1.288-.008-1.312-.04-1.252-.073-1.113-.102-.902-.118-.636-.135-.329-.14v-.133l.323-.124.628-.1M444.644 281.887l.96-.077 1.167-.05 1.296-.01 1.347.026 1.309.058 1.193.09 1.008.118.75.132.449.144.116.147-.217.134-.546.121-.832.092-1.074.065-1.246.032-1.34-.009-1.344-.041-1.268-.077-1.11-.105-.882-.127-.601-.139-.281-.146.057-.142.39-.128.699-.108" style="fill:none;stroke:#00ff4a;stroke-width:.666665;stroke-linecap:round;stroke-linejoin:round;stroke-miterlimit:4;stroke-dasharray:none;stroke-opacity:1;visibility:visible" visibility="hidden"/><path d="M640.332 280.229c-12.66-1.65-37.646-4.07-50.385-4.884" style="fill:none;stroke:#00ff4a;stroke-width:.999997;stroke-linecap:round;stroke-linejoin:round;stroke-miterlimit:4;stroke-dasharray:none;stroke-opacity:1;visibility:visible" visibility="hidden"/><path d="m575.121 275.111-.971.052-1.454.117-1.213.142-.953.168-.66.185-.358.203-.049.213.267.222.574.225.875.222 1.149.21 1.402.203" style="fill:none;stroke:#00ff4a;stroke-width:1.99999;stroke-linecap:round;stroke-linejoin:round;stroke-miterlimit:4;stroke-dasharray:none;stroke-opacity:1;visibility:visible" visibility="hidden"/><path d="m589.945 275.346-1.981-.13-2.07-.103-2.106-.069-2.108-.043-2.063-.007-1.97.023-1.834.058-.693.036" style="fill:none;stroke:#00ff4a;stroke-width:.999997;stroke-linecap:round;stroke-linejoin:round;stroke-miterlimit:4;stroke-dasharray:none;stroke-opacity:1;visibility:visible" visibility="hidden"/><path d="M573.73 277.273c12.726 1.684 37.837 4.15 50.648 4.97" style="fill:none;stroke:#00ff4a;stroke-width:1.99999;stroke-linecap:round;stroke-linejoin:round;stroke-miterlimit:4;stroke-dasharray:none;stroke-opacity:1;visibility:visible" visibility="hidden"/><path d="m644.702 281.777.29-.212-.03-.225-.342-.23-.658-.228-.946-.23-1.219-.216-1.465-.206" style="fill:none;stroke:#00ff4a;stroke-width:.999997;stroke-linecap:round;stroke-linejoin:round;stroke-miterlimit:4;stroke-dasharray:none;stroke-opacity:1;visibility:visible" visibility="hidden"/><path d="M479.279 307.3c-23.85-3.672-70.801-8.927-94.872-10.62M488.456 308.98c-2.305-.554-6.825-1.388-9.176-1.681M624.377 282.242l2.05.138 2.141.106 2.174.076 2.166.041 2.114.007 2.003-.03 1.861-.06 1.668-.095 1.448-.123 1.186-.152.905-.175.61-.197" style="fill:none;stroke:#00ff4a;stroke-width:1.99999;stroke-linecap:round;stroke-linejoin:round;stroke-miterlimit:4;stroke-dasharray:none;stroke-opacity:1;visibility:visible" visibility="hidden"/><path d="m319.373 294.213.066-9.979M319.44 284.234c.146-.764-.298-1.65-.996-1.993" style="fill:none;stroke:#00ff4a;stroke-width:.999997;stroke-linecap:round;stroke-linejoin:round;stroke-miterlimit:4;stroke-dasharray:none;stroke-opacity:1;visibility:visible" visibility="hidden"/><path d="M384.408 296.68c-16.845-1.696-49.168-2.107-66.055-.84" style="fill:none;stroke:#00ff4a;stroke-width:1.99999;stroke-linecap:round;stroke-linejoin:round;stroke-miterlimit:4;stroke-dasharray:none;stroke-opacity:1;visibility:visible" visibility="hidden"/><path d="m448.522 274.917-.076.005M514.76 275.526l-.136-.006M357.44 272.52l.124.01M317.218 284.186l-.068 9.976M318.443 282.242c-.797.252-1.343 1.118-1.225 1.945" style="fill:none;stroke:#00ff4a;stroke-width:.999997;stroke-linecap:round;stroke-linejoin:round;stroke-miterlimit:4;stroke-dasharray:none;stroke-opacity:1;visibility:visible" visibility="hidden"/><path d="m420.814 273.105-.076.004" style="fill:none;stroke:#00ff4a;stroke-width:1.99999;stroke-linecap:round;stroke-linejoin:round;stroke-miterlimit:4;stroke-dasharray:none;stroke-opacity:1;visibility:visible" visibility="hidden"/><path d="m556.11 273.175-.137-.005M540.89 319.622l.008.38.055.36.099.321.133.275.166.217.196.155.213.079.05.009M542.416 321.394c.797-.173 1.39-.964 1.345-1.776" style="fill:none;stroke:#00ff4a;stroke-width:.999997;stroke-linecap:round;stroke-linejoin:round;stroke-miterlimit:4;stroke-dasharray:none;stroke-opacity:1;visibility:visible" visibility="hidden"/><path d="m491.521 301.262.167-.032.347-.015" style="fill:none;stroke:#00ff4a;stroke-width:1.99999;stroke-linecap:round;stroke-linejoin:round;stroke-miterlimit:4;stroke-dasharray:none;stroke-opacity:1;visibility:visible" visibility="hidden"/><path d="m318.171 295.84-.05-.005-.231-.08-.207-.145-.185-.204-.148-.259-.107-.3-.07-.331-.023-.353M318.487 295.849l.063-.007.19-.068.175-.136.152-.197.126-.254.094-.293.06-.33.024-.35" style="fill:none;stroke:#00ff4a;stroke-width:.999997;stroke-linecap:round;stroke-linejoin:round;stroke-miterlimit:4;stroke-dasharray:none;stroke-opacity:1;visibility:visible" visibility="hidden"/><path d="m271.098 277.074.112.007" style="fill:none;stroke:#00ff4a;stroke-width:1.99999;stroke-linecap:round;stroke-linejoin:round;stroke-miterlimit:4;stroke-dasharray:none;stroke-opacity:1;visibility:visible" visibility="hidden"/><path d="m555.972 273.169-16.133 4.584M448.522 274.917l-3.878 6.97" style="fill:none;stroke:#00ff4a;stroke-width:.666665;stroke-linecap:round;stroke-linejoin:round;stroke-miterlimit:4;stroke-dasharray:none;stroke-opacity:1;visibility:visible" visibility="hidden"/></svg>