<svg xmlns="http://www.w3.org/2000/svg" baseProfile="full" height="1122.52" preserveAspectRatio="xMinYMin meet" style="width:914px;height:841px" width="793.701" xml:space="preserve"><path d="M486.567 685.748c-.04.858.601 1.686 1.445 1.858M486.792 675.874l-.225 9.874M487.681 674.328c-.508.276-.906.97-.889 1.546M537.303 698.45l118.963-55.222M488.012 687.606l48.081 10.972M536.092 698.577c.341.1.899.043 1.21-.127M656.266 643.228c.278-.133.555-.265.82-.401.527-.274 1.004-.56 1.444-.86a9.83 9.83 0 0 0 1.207-.961c.31-.291.587-.598.827-.926.216-.3.405-.617.561-.953.143-.314.261-.644.313-.982.034-.224.038-.453.042-.681M661.514 637.495l.35-9.107M661.828 628.42c.012-.155.029-.308.029-.465 0-.348-.085-.698-.199-1.035a5.417 5.417 0 0 0-.432-.967 6.168 6.168 0 0 0-.666-.938 8.86 8.86 0 0 0-.936-.936 12.72 12.72 0 0 0-1.236-.931 18.28 18.28 0 0 0-1.51-.901 26.021 26.021 0 0 0-1.734-.847c-.61-.27-1.256-.535-1.94-.79a43.063 43.063 0 0 0-2.128-.747c-.444-.143-.903-.28-1.362-.42M273.197 637.203a1.723 1.723 0 0 0 1.345 1.687M273.233 627.961l-.036 9.243M274.713 626.244a1.747 1.747 0 0 0-1.48 1.716M358.358 613.179l-83.644 13.065M274.542 638.89l46.021 10.504M320.563 649.393c.179.052.5.06.682.022M321.246 649.415a149.278 149.278 0 0 1 8.828-1.208 188.457 188.457 0 0 1 7.505-.67 208.735 208.735 0 0 1 7.808-.396c1.321-.044 2.648-.077 3.977-.096 1.328-.024 2.664-.033 4-.03 1.311.007 2.629.029 3.942.045M357.306 647.06h.058c1.336.016 2.667.06 3.99.113a540.119 540.119 0 0 1 3.946.184M365.302 647.356h.012c1.316.061 2.616.153 3.906.25a206.529 206.529 0 0 1 7.596.699 178.986 178.986 0 0 1 7.884 1.071M384.699 649.375c1.49.24 2.984.482 4.47.725a866.895 866.895 0 0 1 16.689 2.925 755.59 755.59 0 0 1 16.209 3.178 711.716 711.716 0 0 1 15.687 3.426 759.87 759.87 0 0 1 7.634 1.808 584.472 584.472 0 0 1 14.824 3.797c2.42.654 4.814 1.318 7.182 1.992a452.607 452.607 0 0 1 7.012 2.046c.598.181 1.193.358 1.786.537" style="fill:none;stroke:red;stroke-width:1.99999;stroke-linecap:round;stroke-linejoin:round;stroke-miterlimit:4;stroke-dasharray:none;stroke-opacity:1;visibility:visible" visibility="hidden"/><path d="M476.193 669.81c.48.15.96.297 1.427.45a64.03 64.03 0 0 1 2.521.874 48.317 48.317 0 0 1 2.291.908c.719.306 1.4.618 2.041.934.64.31 1.243.628 1.783.946.441.26.84.52 1.244.78" style="fill:none;stroke:red;stroke-width:1.99999;stroke-linecap:round;stroke-linejoin:round;stroke-miterlimit:4;stroke-dasharray:none;stroke-opacity:1;visibility:visible" visibility="hidden"/><path d="M632.274 625.635c-.002.005-.006.005-.033.02a2.267 2.267 0 0 1-.251.129 4.559 4.559 0 0 1-.489.179 12.123 12.123 0 0 1-.745.196 18.87 18.87 0 0 1-2.196.329 27.45 27.45 0 0 1-1.364.097 35.299 35.299 0 0 1-3.01.016 34.12 34.12 0 0 1-1.54-.09 29.091 29.091 0 0 1-2.239-.243" style="fill:none;stroke:red;stroke-width:.999997;stroke-linecap:round;stroke-linejoin:round;stroke-miterlimit:4;stroke-dasharray:none;stroke-opacity:1;visibility:visible" visibility="hidden"/><path d="M649.714 619.441c-.753-.221-1.509-.44-2.27-.661a271.013 271.013 0 0 0-13.876-3.543c-1.62-.372-3.266-.73-4.934-1.087a380.626 380.626 0 0 0-10.269-2.02 401.57 401.57 0 0 0-10.76-1.817c-1.83-.286-3.677-.561-5.54-.828a421.148 421.148 0 0 0-5.64-.773c-1.237-.16-2.484-.316-3.73-.475M552.087 608.547l-40.547 6.682M447.368 615.87l-26.994-3.308M420.374 612.561a197.918 197.918 0 0 0-5.784-.628c-1.287-.12-2.586-.233-3.898-.333a233.266 233.266 0 0 0-7.966-.487 271.12 271.12 0 0 0-4.044-.15 275.694 275.694 0 0 0-8.122-.107 234.473 234.473 0 0 0-8.064.15c-1.333.044-2.656.099-3.97.168a212.935 212.935 0 0 0-7.747.526 192.43 192.43 0 0 0-7.381.773c-1.195.147-2.37.307-3.519.477-.512.075-1.017.15-1.523.23M511.54 615.228c-.57.09-1.14.182-1.72.27-1.097.171-2.228.327-3.385.479-1.155.147-2.335.287-3.536.419a216.098 216.098 0 0 1-7.476.668c-1.216.083-2.45.159-3.684.23M457.934 616.905a336.22 336.22 0 0 1-3.207-.257c-1.327-.115-2.64-.245-3.93-.385-1.156-.126-2.292-.26-3.43-.394M620.406 626.268a480.19 480.19 0 0 1-9.3-1.438 470.63 470.63 0 0 1-11.671-2.06 429.5 429.5 0 0 1-5.589-1.1 479.795 479.795 0 0 1-5.415-1.141 349.458 349.458 0 0 1-10.264-2.404 322.782 322.782 0 0 1-5.18-1.352" style="fill:none;stroke:red;stroke-width:1.99999;stroke-linecap:round;stroke-linejoin:round;stroke-miterlimit:4;stroke-dasharray:none;stroke-opacity:1;visibility:visible" visibility="hidden"/><path d="M572.985 616.773a22.417 22.417 0 0 1-.49-.142 7.224 7.224 0 0 1-.71-.262 3.67 3.67 0 0 1-.381-.186c-.085-.056-.148-.11-.148-.103 0 0 .008.007.01.013" style="fill:none;stroke:red;stroke-width:.999997;stroke-linecap:round;stroke-linejoin:round;stroke-miterlimit:4;stroke-dasharray:none;stroke-opacity:1;visibility:visible" visibility="hidden"/><path d="m592.696 608.237-1.613-.189a155.38 155.38 0 0 0-6.324-.575 164.818 164.818 0 0 0-9.739-.41 158.164 158.164 0 0 0-12.644.327 130.965 130.965 0 0 0-5.84.535 107.924 107.924 0 0 0-2.737.355c-.579.088-1.147.176-1.712.265" style="fill:none;stroke:red;stroke-width:1.99999;stroke-linecap:round;stroke-linejoin:round;stroke-miterlimit:4;stroke-dasharray:none;stroke-opacity:1;visibility:visible" visibility="hidden"/><path d="m274.98 626.279 46.074 10.311M385.132 636.58c-16.724-3.18-47.352-3.175-64.08.01M536.833 684.897l119.112-54.07M488.692 674.121l48.141 10.777M538.43 687.012l-.274 10.018M535.395 697.121l.273-10.021M538.43 687.012c.066-.97-.646-1.912-1.596-2.115M536.833 684.897c-.73.396-1.249 1.377-1.165 2.203" style="fill:none;stroke:red;stroke-width:.999997;stroke-linecap:round;stroke-linejoin:round;stroke-miterlimit:4;stroke-dasharray:none;stroke-opacity:1;visibility:visible" visibility="hidden"/><path d="M457.834 616.957c8.678.834 25.35 1.023 34.04.386M447.195 615.908l-26.999-3.308M420.195 612.601c-16.027-2.544-45.59-2.25-61.565.607" style="fill:none;stroke:red;stroke-width:1.99999;stroke-linecap:round;stroke-linejoin:round;stroke-miterlimit:4;stroke-dasharray:none;stroke-opacity:1;visibility:visible" visibility="hidden"/><path d="m655.945 630.828 1.445-.738 1.155-.78.856-.805.553-.833.248-.85-.06-.861-.362-.869-.664-.862-.962-.858-1.244-.842-1.52-.822-1.786-.795-2.038-.765-2.268-.724" style="fill:none;stroke:red;stroke-width:.999997;stroke-linecap:round;stroke-linejoin:round;stroke-miterlimit:4;stroke-dasharray:none;stroke-opacity:1;visibility:visible" visibility="hidden"/><path d="m492.817 665.654.49 1.238.133 1.238-.23 1.235-.59 1.223-.955 1.205-1.31 1.181-1.665 1.146" style="fill:none;stroke:red;stroke-width:1.99999;stroke-linecap:round;stroke-linejoin:round;stroke-miterlimit:4;stroke-dasharray:none;stroke-opacity:1;visibility:visible" visibility="hidden"/><path d="M476.97 656.706c-22.998-7.176-67.95-17.026-91.839-20.126M476.97 656.705l3.024.97 2.759 1.021 2.471 1.074 2.172 1.116 1.859 1.152 1.525 1.186 1.192 1.208.845 1.224" style="fill:none;stroke:red;stroke-width:.999997;stroke-linecap:round;stroke-linejoin:round;stroke-miterlimit:4;stroke-dasharray:none;stroke-opacity:1;visibility:visible" visibility="hidden"/><path d="m510.576 623.2.48-.205.199-.24-.107-.248-.401-.237-.657-.205-.857-.152-.978-.088-1.016-.017-.963.056-.823.125-.609.183-.344.224-.051.247.254.247.534.225.764.178.931.123 1.01.054.999-.021.911-.089.724-.161M518.735 620.745l.474-.204.194-.236-.11-.248-.4-.232-.657-.205-.855-.15-.976-.086-1.009-.021-.957.059-.819.122-.604.184-.343.221-.045.246.257.242.535.223.763.176.927.124 1.006.052.997-.019.903-.092.719-.156M609.83 634.568l.39-.195.098-.222-.205-.231-.49-.21-.719-.17-.871-.108-.923-.037-.888.04-.745.11-.525.17-.25.212.051.23.355.224.61.194.805.14.914.073h.92l.827-.076.645-.144M542.537 620.877l.408-.185.119-.215-.177-.22-.458-.201-.686-.163-.843-.102-.904-.038-.873.038-.744.106-.536.163-.27.203.028.217.32.217.579.183.776.136.887.07h.904l.821-.07.65-.139M449.696 633.296l.45-.196.163-.223-.149-.23-.436-.211-.681-.171-.85-.11-.925-.035-.905.037-.784.113-.579.17-.31.212-.007.231.295.224.565.193.776.14.9.077.93-.002.856-.076.691-.143M385.443 619.575l.461-.187.182-.215-.119-.22-.408-.201-.65-.164-.821-.104-.904-.037-.893.04-.781.105-.587.161-.328.204-.032.223.263.21.537.187.745.138.88.07.912-.002.848-.07.695-.138M587.616 630.05l.459-.212.164-.245-.142-.25-.433-.243-.687-.207-.881-.156-.999-.092-1.022-.015-.96.058-.811.127-.59.188-.319.229-.015.25.288.25.568.229.793.184.951.126 1.025.057 1.005-.021.895-.097.71-.161M565.181 625.484l.463-.208.172-.239-.13-.25-.421-.237-.676-.206-.872-.154-.984-.09-1.018-.016-.958.059-.81.127-.592.18-.327.228-.023.246.275.25.553.222.784.181.939.126 1.019.054 1-.021.894-.093.712-.16M428.482 628.765l.522-.21.23-.243-.069-.255-.373-.242-.637-.208-.85-.158-.979-.089-1.035-.017-.983.057-.856.13-.646.186-.386.23-.084.25.226.251.506.231.754.183.926.129 1.019.053 1.023-.023.933-.093.759-.162M407.059 624.192l.525-.208.24-.244-.062-.249-.359-.235-.63-.207-.835-.157-.975-.088-1.023-.017-.98.058-.854.127-.65.184-.392.227-.092.246.211.248.499.227.741.18.917.126 1.011.054 1.016-.024.932-.09.76-.158" style="fill:none;stroke:red;stroke-width:.666665;stroke-linecap:round;stroke-linejoin:round;stroke-miterlimit:4;stroke-dasharray:none;stroke-opacity:1;visibility:visible" visibility="hidden"/><path d="m572.13 613.676 1.265-.25 1.471-.186 1.624-.112 1.72-.035 1.758.044 1.732.123 1.653.193" style="fill:none;stroke:red;stroke-width:.999997;stroke-linecap:round;stroke-linejoin:round;stroke-miterlimit:4;stroke-dasharray:none;stroke-opacity:1;visibility:visible" visibility="hidden"/><path d="M572.598 616.765c11.941 3.365 35.307 8.045 47.625 9.538M572.599 616.765l-1.129-.361-.847-.396-.553-.419-.223-.425.102-.42.424-.395.739-.359 1.016-.313" style="fill:none;stroke:red;stroke-width:1.99999;stroke-linecap:round;stroke-linejoin:round;stroke-miterlimit:4;stroke-dasharray:none;stroke-opacity:1;visibility:visible" visibility="hidden"/><path d="m631.63 626.064-1.262.263-1.482.196-1.64.117-1.754.036-1.794-.044-1.778-.127-1.698-.202" style="fill:none;stroke:red;stroke-width:1.99999;stroke-linecap:round;stroke-linejoin:round;stroke-miterlimit:4;stroke-dasharray:none;stroke-opacity:1;visibility:visible" visibility="hidden"/><path d="m322.023 638.667-.08 9.385M322.022 638.667c.11-.75-.323-1.678-.97-2.077M630.833 622.884c-11.91-3.321-35.208-7.947-47.48-9.43M630.833 622.884l1.17.365.899.407.604.43.274.438-.055.431-.388.409-.705.376-1.002.325M319.795 648.008l.078-9.384" style="fill:none;stroke:red;stroke-width:.999997;stroke-linecap:round;stroke-linejoin:round;stroke-miterlimit:4;stroke-dasharray:none;stroke-opacity:1;visibility:visible" visibility="hidden"/><path d="M321.053 636.59c-.743.327-1.266 1.23-1.183 2.035M535.395 697.121a1.35 1.35 0 0 0 .697 1.456M537.303 698.45c.51-.23.889-.862.852-1.42" style="fill:none;stroke:red;stroke-width:.999997;stroke-linecap:round;stroke-linejoin:round;stroke-miterlimit:4;stroke-dasharray:none;stroke-opacity:1;visibility:visible" visibility="hidden"/><path d="M488.692 674.121a1.51 1.51 0 0 0-1.01.207M447.195 615.908c2.67.345 7.95.865 10.639 1.05" style="fill:none;stroke:red;stroke-width:1.99999;stroke-linecap:round;stroke-linejoin:round;stroke-miterlimit:4;stroke-dasharray:none;stroke-opacity:1;visibility:visible" visibility="hidden"/><path d="m319.795 648.008.02.327.063.3.105.264.147.217.173.161.2.103.062.012M321.247 649.415l.079-.022.17-.09.152-.154.123-.209.092-.263.06-.297.019-.327" style="fill:none;stroke:red;stroke-width:.999997;stroke-linecap:round;stroke-linejoin:round;stroke-miterlimit:4;stroke-dasharray:none;stroke-opacity:1;visibility:visible" visibility="hidden"/><path d="m274.98 626.279-.182-.04-.085.007" style="fill:none;stroke:red;stroke-width:1.99999;stroke-linecap:round;stroke-linejoin:round;stroke-miterlimit:4;stroke-dasharray:none;stroke-opacity:1;visibility:visible" visibility="hidden"/><path d="m511.54 615.228.113-.01.202.039M572.985 616.773l-.153-.025-.232.017M620.41 626.268l-.052-.003-.136.038M649.714 619.441l-.174-.031-.242.013M358.632 613.208l-.184-.035-.09.007" style="fill:none;stroke:red;stroke-width:.999997;stroke-linecap:round;stroke-linejoin:round;stroke-miterlimit:4;stroke-dasharray:none;stroke-opacity:1;visibility:visible" visibility="hidden"/><path d="m447.195 615.908.13-.039h.047" style="fill:none;stroke:red;stroke-width:1.99999;stroke-linecap:round;stroke-linejoin:round;stroke-miterlimit:4;stroke-dasharray:none;stroke-opacity:1;visibility:visible" visibility="hidden"/><path d="m592.696 608.237-.03-.001-.119.039M552.087 608.547l.113-.008.205.036M420.195 612.601l.137-.038h.046" style="fill:none;stroke:red;stroke-width:.999997;stroke-linecap:round;stroke-linejoin:round;stroke-miterlimit:4;stroke-dasharray:none;stroke-opacity:1;visibility:visible" visibility="hidden"/><path d="m359.954 623.303.48-.206.198-.24-.106-.247-.402-.237-.656-.205-.857-.152-.979-.088-1.016-.018-.962.057-.824.125-.609.183-.344.224-.05.246.253.248.535.224.765.179.93.123 1.01.054 1-.021.908-.09.726-.161M368.112 620.848l.475-.204.193-.236-.109-.248-.4-.232-.657-.205-.855-.15-.976-.088-1.01-.018-.956.057-.817.123-.606.183-.344.22-.044.248.257.242.533.22.764.18.928.123 1.006.052.996-.02.904-.09.718-.157M511.54 615.229l-.964 7.97M511.54 615.229l7.195 5.516M620.222 626.303l-10.393 8.265M552.087 608.545l-9.549 12.332M572.13 613.676l-6.949 11.807M420.195 612.601l8.287 16.164M420.195 612.601l-13.136 11.591M358.63 613.208l1.324 10.093M358.63 613.208l9.482 7.64" style="fill:none;stroke:red;stroke-width:.666665;stroke-linecap:round;stroke-linejoin:round;stroke-miterlimit:4;stroke-dasharray:none;stroke-opacity:1;visibility:visible" visibility="hidden"/><path d="m360.88 224.772-3.549 315.127M476.728 558.893l7.085-324.83M466.315 561.164c.655.153 1.828.144 2.481-.021" style="fill:none;stroke:#00ff4a;stroke-width:1.99999;stroke-linecap:round;stroke-linejoin:round;stroke-miterlimit:4;stroke-dasharray:none;stroke-opacity:1;visibility:visible" visibility="hidden"/><path d="m361.3 224.686-.197.019-.139.024-.074.025-.004.03.058.03.127.029.185.027.24.024M473.135 234.814a17.177 17.177 0 0 0 2.553.028M466.315 561.164l6.818-326.351" style="fill:none;stroke:#00ff4a;stroke-width:.999997;stroke-linecap:round;stroke-linejoin:round;stroke-miterlimit:4;stroke-dasharray:none;stroke-opacity:1;visibility:visible" visibility="hidden"/><path d="m371.7 223.478 111.404 9.834M371.7 223.478a17.448 17.448 0 0 0-2.462-.028M369.24 223.45l-7.94.627" style="fill:none;stroke:#00ff4a;stroke-width:1.99999;stroke-linecap:round;stroke-linejoin:round;stroke-miterlimit:4;stroke-dasharray:none;stroke-opacity:1;visibility:visible" visibility="hidden"/><path d="m361.496 224.896 111.639 9.918M483.44 234.149l-7.751.691M483.439 234.149l.188-.021.123-.026.059-.03-.009-.029-.083-.033-.145-.03-.208-.03-.26-.026" style="fill:none;stroke:#00ff4a;stroke-width:.999997;stroke-linecap:round;stroke-linejoin:round;stroke-miterlimit:4;stroke-dasharray:none;stroke-opacity:1;visibility:visible" visibility="hidden"/><path d="m413.076 228.606.539-.066.25-.08-.074-.091-.369-.092-.652-.081-.868-.068-1.01-.048-1.054-.022-1.014.007-.881.03-.67.055-.403.074-.094.086.224.092.516.088.77.076.948.059 1.046.035 1.051.009.96-.019.785-.044M435.274 230.573l.534-.067.24-.084-.078-.092-.388-.09-.662-.084-.877-.071-1.017-.047-1.063-.022-1.021.004-.883.033-.667.056-.392.076-.085.088.23.09.532.094.779.076.959.06 1.057.035 1.055.008.963-.018.784-.045M390.686 226.624l.476-.06.185-.074-.127-.078-.42-.08-.674-.07-.851-.048-.936-.026-.921-.002-.808.024-.602.048-.336.068-.032.079.275.079.552.074.775.06.908.04.942.014.878-.012.716-.036M457.267 232.52l.461-.061.162-.078-.154-.085-.453-.082-.707-.07-.881-.054-.957-.03-.935.005-.81.024-.593.053-.32.07-.006.083.306.085.588.077.804.063.932.04.964.013.886-.013.713-.04" style="fill:none;stroke:#00ff4a;stroke-width:.666665;stroke-linecap:round;stroke-linejoin:round;stroke-miterlimit:4;stroke-dasharray:none;stroke-opacity:1;visibility:visible" visibility="hidden"/><path d="m383.016 254.928.916.247.852.549.728.81.554 1.013.337 1.155.107 1.21-.136 1.188-.372 1.082-.579.903-.745.664-.862.374-.924.064-.912-.25-.853-.55-.724-.807-.55-1.015-.341-1.15-.105-1.21.137-1.183.37-1.081.574-.903.744-.663.86-.377.924-.071" style="fill:none;stroke:#00ff4a;stroke-width:.999997;stroke-linecap:round;stroke-linejoin:round;stroke-miterlimit:4;stroke-dasharray:none;stroke-opacity:1;visibility:visible" visibility="hidden"/><path d="m466.315 561.164-108.385-20.98" style="fill:none;stroke:#00ff4a;stroke-width:1.99999;stroke-linecap:round;stroke-linejoin:round;stroke-miterlimit:4;stroke-dasharray:none;stroke-opacity:1;visibility:visible" visibility="hidden"/><path d="m449.396 261.442.958.253.888.56.754.831.572 1.039.348 1.178.104 1.237-.15 1.213-.392 1.105-.61.919-.785.673-.903.384-.962.064-.958-.261-.882-.559-.751-.828-.572-1.037-.348-1.176-.104-1.234.15-1.21.39-1.104.608-.922.779-.674.904-.386.962-.065M379.552 517.595l.902.015.844-.288.726-.574.566-.814.362-1.006.132-1.126-.101-1.168-.333-1.134-.542-1.02-.708-.834-.833-.598-.897-.314-.902-.011-.84.29-.728.572-.564.818-.358 1.004-.132 1.123.104 1.169.33 1.13.54 1.016.707.837.833.597.892.316M444.33 529.559l.94.021.88-.293.764-.578.598-.829.382-1.025.144-1.148-.102-1.197-.341-1.154-.557-1.045-.736-.855-.867-.613-.936-.323-.94-.017-.881.295-.76.58-.595.834-.381 1.018-.143 1.149.101 1.191.34 1.154.558 1.041.734.855.863.612.935.328" style="fill:none;stroke:#00ff4a;stroke-width:.999997;stroke-linecap:round;stroke-linejoin:round;stroke-miterlimit:4;stroke-dasharray:none;stroke-opacity:1;visibility:visible" visibility="hidden"/><path d="m476.728 558.893-.004.024-.057.074-.122.069-.184.063M476.361 559.123l-7.563 2.021" style="fill:none;stroke:#00ff4a;stroke-width:1.99999;stroke-linecap:round;stroke-linejoin:round;stroke-miterlimit:4;stroke-dasharray:none;stroke-opacity:1;visibility:visible" visibility="hidden"/><path d="m446.983 528.619-.033-.015a1.179 1.179 0 0 1-.38-.334.919.919 0 0 1-.17-.594c.008-.045.012-.09.024-.13a1.197 1.197 0 0 1 .039-.13.717.717 0 0 1 .304-.341c.033-.02.07-.04.105-.056a1.267 1.267 0 0 1 .152-.05M447.026 526.97l.137-.027c.045-.003.095-.007.144-.009.052-.001.105-.001.163.002.054.005.11.008.169.019.057.01.116.018.173.03M385.126 263.069v-.059a.376.376 0 0 1 .024-.104.521.521 0 0 1 .114-.201.696.696 0 0 1 .376-.212c.038-.01.08-.015.12-.023M451.46 270.1l-.017-.02a.432.432 0 0 1-.093-.196.696.696 0 0 1-.027-.205.621.621 0 0 1 .121-.316c.028-.03.058-.063.09-.089a.679.679 0 0 1 .17-.097.933.933 0 0 1 .223-.057.857.857 0 0 1 .257-.007c.022.001.04.001.058.006" style="fill:none;stroke:#00ff4a;stroke-width:.999997;stroke-linecap:round;stroke-linejoin:round;stroke-miterlimit:4;stroke-dasharray:none;stroke-opacity:1;visibility:visible" visibility="hidden"/><path d="m357.932 540.184-.232-.056-.18-.061-.12-.068-.06-.072-.005-.03" style="fill:none;stroke:#00ff4a;stroke-width:1.99999;stroke-linecap:round;stroke-linejoin:round;stroke-miterlimit:4;stroke-dasharray:none;stroke-opacity:1;visibility:visible" visibility="hidden"/><path d="M382.128 516.598a.72.72 0 0 1-.24-.242.904.904 0 0 1-.144-.446.72.72 0 0 1 .031-.256c.012-.044.03-.084.048-.124a.659.659 0 0 1 .072-.118.893.893 0 0 1 .245-.216.917.917 0 0 1 .26-.098M382.399 515.098a1.39 1.39 0 0 1 .288-.034c.05 0 .104 0 .159.003l.024.003" style="fill:none;stroke:#00ff4a;stroke-width:.999997;stroke-linecap:round;stroke-linejoin:round;stroke-miterlimit:4;stroke-dasharray:none;stroke-opacity:1;visibility:visible" visibility="hidden"/><path d="m475.688 234.842-18.421-2.322M475.689 234.84l-18.422-2.32" style="fill:none;stroke:#00ff4a;stroke-width:.666665;stroke-linecap:round;stroke-linejoin:round;stroke-miterlimit:4;stroke-dasharray:none;stroke-opacity:1;visibility:visible" visibility="hidden"/><path d="m452.242 269.119-2.846-7.677M449.396 261.442l2.846 7.677" style="fill:none;stroke:#00ff4a;stroke-width:.999997;stroke-linecap:round;stroke-linejoin:round;stroke-miterlimit:4;stroke-dasharray:none;stroke-opacity:1;visibility:visible" visibility="hidden"/><path d="m522.401 227.697-7.877 313.75M638.368 560.461l11.672-323.397" style="fill:none;stroke:#9500ff;stroke-width:1.99999;stroke-linecap:round;stroke-linejoin:round;stroke-miterlimit:4;stroke-dasharray:none;stroke-opacity:1;visibility:visible"/><path d="m522.744 227.62-.175.02-.114.024-.051.026.016.03.083.029.147.03.205.025.252.026M640.213 237.816a16.68 16.68 0 0 0 2.517.028M628.76 562.704l11.453-324.889M628.76 562.705c.646.156 1.805.146 2.448-.02" style="fill:none;stroke:#9500ff;stroke-width:.999997;stroke-linecap:round;stroke-linejoin:round;stroke-miterlimit:4;stroke-dasharray:none;stroke-opacity:1;visibility:visible"/><path d="m532.422 226.356 116.808 9.9M532.421 226.356a17.178 17.178 0 0 0-2.429-.028M529.992 226.326l-7.25.636" style="fill:none;stroke:#9500ff;stroke-width:1.99999;stroke-linecap:round;stroke-linejoin:round;stroke-miterlimit:4;stroke-dasharray:none;stroke-opacity:1;visibility:visible"/><path d="m523.107 227.83 117.106 9.984M649.74 237.14l-7.011.704M649.741 237.14l.167-.02.101-.026.033-.03-.038-.031-.104-.033-.167-.031-.228-.029-.273-.026" style="fill:none;stroke:#9500ff;stroke-width:.999997;stroke-linecap:round;stroke-linejoin:round;stroke-miterlimit:4;stroke-dasharray:none;stroke-opacity:1;visibility:visible"/><path d="m576.512 231.562.472-.066.176-.082-.14-.09-.44-.092-.704-.084-.903-.068-1.02-.05-1.052-.02-.985.004-.836.032-.612.056-.33.076-.019.09.29.09.575.09.812.077.979.057 1.048.038 1.034.006.923-.018.732-.046M599.79 233.54l.47-.066.167-.085-.153-.092-.454-.093-.714-.084-.914-.07-1.033-.049-1.06-.021-.986.006-.838.032-.606.059-.325.075-.01.088.304.096.589.09.826.079.987.06 1.057.035 1.04.008.924-.018.73-.05M553.025 229.568l.418-.06.12-.076-.186-.08-.478-.078-.712-.07-.871-.049-.936-.029h-.901l-.766.026-.549.048-.276.07.03.078.336.081.601.075.804.06.918.039.936.014.847-.012.665-.037M622.852 235.504l.401-.064.093-.076-.216-.087-.513-.083-.745-.072-.903-.052-.959-.028h-.912l-.768.028-.54.05-.253.074.059.083.368.087.636.076.838.064.944.04.952.016.854-.016.664-.04" style="fill:none;stroke:#9500ff;stroke-width:.666665;stroke-linecap:round;stroke-linejoin:round;stroke-miterlimit:4;stroke-dasharray:none;stroke-opacity:1;visibility:visible"/><path d="m545.313 257.753.962.25.884.542.75.808.571 1.01.34 1.15.095 1.206-.159 1.183-.401 1.075-.623.898-.79.658-.912.374-.97.064-.959-.25-.881-.548-.753-.807-.567-1.008-.337-1.145-.096-1.204.157-1.18.4-1.075.619-.899.792-.66.909-.375.97-.068" style="fill:none;stroke:#9500ff;stroke-width:.999997;stroke-linecap:round;stroke-linejoin:round;stroke-miterlimit:4;stroke-dasharray:none;stroke-opacity:1;visibility:visible"/><path d="m628.76 562.705-113.555-20.948" style="fill:none;stroke:#9500ff;stroke-width:1.99999;stroke-linecap:round;stroke-linejoin:round;stroke-miterlimit:4;stroke-dasharray:none;stroke-opacity:1;visibility:visible"/><path d="m614.936 264.295 1.004.258.922.557.782.827.586 1.033.352 1.173.092 1.234-.172 1.203-.428 1.1-.652.918-.832.67-.954.379-1.01.06-1.001-.257-.925-.56-.776-.82-.586-1.036-.35-1.172-.09-1.228.173-1.204.423-1.097.65-.918.83-.67.95-.385 1.011-.065M538.213 519.276l.947.015.887-.287.773-.57.605-.809.395-1.003.153-1.122-.093-1.165-.335-1.128-.553-1.015-.735-.832-.866-.593-.939-.315-.944-.012-.888.289-.77.571-.606.81-.392 1-.152 1.12.093 1.163.334 1.125.552 1.014.733.832.865.593.936.321M606.085 531.225l.99.02.928-.288.811-.577.633-.825.415-1.023.172-1.142-.092-1.187-.342-1.154-.575-1.037-.761-.852-.902-.611-.977-.323-.987-.019-.928.294-.808.579-.632.826-.416 1.019-.166 1.141.092 1.185.34 1.151.571 1.034.763.854.899.61.972.325" style="fill:none;stroke:#9500ff;stroke-width:.999997;stroke-linecap:round;stroke-linejoin:round;stroke-miterlimit:4;stroke-dasharray:none;stroke-opacity:1;visibility:visible"/><path d="M638.073 560.665a.353.353 0 0 0 .297-.203M638.073 560.664l-6.863 2.021" style="fill:none;stroke:#9500ff;stroke-width:1.99999;stroke-linecap:round;stroke-linejoin:round;stroke-miterlimit:4;stroke-dasharray:none;stroke-opacity:1;visibility:visible"/><path d="m608.745 530.405-.052-.013a2.083 2.083 0 0 1-.301-.122 1.51 1.51 0 0 1-.236-.147 1.45 1.45 0 0 1-.187-.187 1.013 1.013 0 0 1-.143-.223.959.959 0 0 1-.082-.236 1.428 1.428 0 0 1-.012-.133.777.777 0 0 1 .081-.377.613.613 0 0 1 .117-.157.785.785 0 0 1 .08-.066.813.813 0 0 1 .094-.054c.045-.019.09-.034.136-.049M608.242 528.641l.126-.025a1.305 1.305 0 0 1 .286-.006c.05.002.103.006.159.014a5.067 5.067 0 0 1 .692.163l.237.076M547.137 266.307l-.049-.04a.383.383 0 0 1-.072-.084 1.247 1.247 0 0 1-.064-.09c-.016-.035-.033-.064-.047-.098a.77.77 0 0 1-.028-.1.499.499 0 0 1-.009-.101.403.403 0 0 1 .007-.108.377.377 0 0 1 .028-.101.657.657 0 0 1 .052-.096.4.4 0 0 1 .078-.086.587.587 0 0 1 .248-.128.627.627 0 0 1 .107-.022 1.587 1.587 0 0 1 .38.001l.147.026.145.033M618.26 267.237c-.135.718-.004 1.945.273 2.62M616.701 273.093c-.024-.01-.045-.027-.068-.04a.74.74 0 0 1-.172-.163 1.045 1.045 0 0 1-.124-.195.613.613 0 0 1-.03-.422.524.524 0 0 1 .123-.186.462.462 0 0 1 .142-.097.762.762 0 0 1 .201-.06 1.11 1.11 0 0 1 .235-.008c.088.004.185.019.285.038.093.02.195.042.3.073.047.012.092.027.139.042" style="fill:none;stroke:#9500ff;stroke-width:.999997;stroke-linecap:round;stroke-linejoin:round;stroke-miterlimit:4;stroke-dasharray:none;stroke-opacity:1;visibility:visible"/><path d="m515.205 541.756-.245-.053-.2-.063-.139-.069-.083-.071-.015-.054" style="fill:none;stroke:#9500ff;stroke-width:1.99999;stroke-linecap:round;stroke-linejoin:round;stroke-miterlimit:4;stroke-dasharray:none;stroke-opacity:1;visibility:visible"/><path d="M540.783 518.443c-.018-.004-.034-.013-.05-.017a1.307 1.307 0 0 1-.533-.388.992.992 0 0 1-.196-.448.715.715 0 0 1 .004-.255.978.978 0 0 1 .032-.121.861.861 0 0 1 .055-.12.747.747 0 0 1 .125-.147c.028-.024.052-.047.085-.065a.55.55 0 0 1 .096-.052 1.253 1.253 0 0 1 .142-.048" style="fill:none;stroke:#9500ff;stroke-width:.999997;stroke-linecap:round;stroke-linejoin:round;stroke-miterlimit:4;stroke-dasharray:none;stroke-opacity:1;visibility:visible"/><path d="m540.543 516.782.124-.023a.91.91 0 0 1 .137-.01c.047-.001.1-.001.15.001a2.88 2.88 0 0 1 .494.082l.261.072M548.06 265.313l-2.747-7.56M617.732 272.075l-2.796-7.78M545.313 257.753l2.747 7.56M614.936 264.295l2.796 7.78M614.936 264.295l3.597 5.562" style="fill:none;stroke:#9500ff;stroke-width:.999997;stroke-linecap:round;stroke-linejoin:round;stroke-miterlimit:4;stroke-dasharray:none;stroke-opacity:1;visibility:visible"/></svg>