<svg xmlns="http://www.w3.org/2000/svg" baseProfile="full" height="1122.52" preserveAspectRatio="xMinYMin meet" style="width:912px;height:1303px" width="793.701" xml:space="preserve"><path d="m228.693 543.844 32.764 19.707M228.069 543.688l.78 25.282 31.056 13.733 16.542-4.995 1.795-18.312-24.928-23.1-25.245 7.392" style="fill:none;stroke:red;stroke-width:.999997;stroke-linecap:round;stroke-linejoin:round;stroke-miterlimit:4;stroke-dasharray:none;stroke-opacity:1;visibility:visible" visibility="hidden"/><path d="m278.242 559.396-16.285 4.32-2.02 18.51" style="fill:none;stroke:red;stroke-width:.999997;stroke-linecap:round;stroke-linejoin:round;stroke-miterlimit:4;stroke-dasharray:none;stroke-opacity:1;visibility:visible" visibility="hidden"/><path d="M271.14 572.403c-1.05 1.396-2.632 1.972-3.528 1.294-.901-.685-.778-2.357.275-3.754 1.05-1.393 2.634-1.963 3.53-1.286.9.683.776 2.359-.277 3.746" style="fill:none;stroke:red;stroke-width:.999997;stroke-linecap:round;stroke-linejoin:round;stroke-miterlimit:4;stroke-dasharray:none;stroke-opacity:1;visibility:visible" visibility="hidden"/><path d="M402.764 510.968c-.406.304-.82.415-1.142.258-.639-.314-.675-1.542-.084-2.75.588-1.208 1.581-1.932 2.216-1.622a.813.813 0 0 1 .364.39M410.843 500.69c-.463.497-.979.735-1.423.594-.837-.271-1.105-1.771-.598-3.364.502-1.586 1.593-2.656 2.432-2.392.414.135.689.576.796 1.184M359.336 470.279c6.612.995 25.815 5.013 37.234 19.15" style="fill:none;stroke:#00ff4a;stroke-width:.999997;stroke-linecap:round;stroke-linejoin:round;stroke-miterlimit:4;stroke-dasharray:none;stroke-opacity:1;visibility:visible"/><path d="M137.977 644.985c-1.599-2.865-4.356-10.161-5.86-20.533-8.597-59.239-24.555-149.31-24.555-149.31s.004-3.328 6.32-4.823c6.313-1.496 20.106-4.323 28.083-2.993 7.979 1.33 27.425 8.646 39.223 15.456 11.798 6.814 33.071 22.105 38.057 22.437M219.245 505.219c2.39.16 5.701-.793 8.832-1.915.942-.34 117.14-31.158 128.94-33.318.001 0 .85.072 2.321.293" style="fill:none;stroke:#00ff4a;stroke-width:1.99999;stroke-linecap:round;stroke-linejoin:round;stroke-miterlimit:4;stroke-dasharray:none;stroke-opacity:1;visibility:visible"/><path d="M128.837 602.94s-19.208 4.344-24.432 11.467c-3.655 4.986 1 16.618 4.157 19.776 0 0 115.835 86.42 120.985 89.58 4.211 2.579 6.868 3.937 10.51 3.168M268.493 709.492l88.526-47.222" style="fill:none;stroke:#00ff4a;stroke-width:1.99999;stroke-linecap:round;stroke-linejoin:round;stroke-miterlimit:4;stroke-dasharray:none;stroke-opacity:1;visibility:visible"/><path d="M359.676 468.987s-8.088-5.599-17.694-11.52M328.286 449.304c-9.68-5.753-20.172-12.234-20.297-14.22M228.72 541.78c-1.499.5-3.824.5-6.98-.996-3.16-1.496-91.737-54.344-98.387-57.836a1717.55 1717.55 0 0 0-13.793-7.145" style="fill:none;stroke:#00ff4a;stroke-width:.999997;stroke-linecap:round;stroke-linejoin:round;stroke-miterlimit:4;stroke-dasharray:none;stroke-opacity:1;visibility:visible"/><path d="M185.674 485.607s-.664-3.49 1.663-5.983c2.325-2.492 7.976-5.65 14.125-7.644 6.15-1.994 89.879-24.391 119.49-23.1 19.11.83 23.266 12.795 23.431 15.123.169 2.327.169 8.64.169 8.64" style="fill:none;stroke:#00ff4a;stroke-width:1.99999;stroke-linecap:round;stroke-linejoin:round;stroke-miterlimit:4;stroke-dasharray:none;stroke-opacity:1;visibility:visible"/><path d="M342.226 458.85s-2.496-3.324-9.306-3.324c-6.815 0-99.385 20.109-113.177 28.086-3.929 2.272-5.525 4.172-7.145 5.983-2.825 3.16-2.328 8.39-2.328 10.968" style="fill:none;stroke:#00ff4a;stroke-width:.999997;stroke-linecap:round;stroke-linejoin:round;stroke-miterlimit:4;stroke-dasharray:none;stroke-opacity:1;visibility:visible"/><path d="M301.84 450.044s1.33-10.14 4.985-14.792c3.655-4.652 13.793-4.157 17.118-3.325 3.323.83 95.728 49.857 96.559 50.688.83.833 1.161 2.163.664 2.992l-3.499 11.283M415.474 503.958l-1.564 5.036M411.195 518.599l-35.067 120.736" style="fill:none;stroke:#00ff4a;stroke-width:1.99999;stroke-linecap:round;stroke-linejoin:round;stroke-miterlimit:4;stroke-dasharray:none;stroke-opacity:1;visibility:visible"/><path d="M224.729 549.093c-.167.995 12.133 174 12.133 174M233.205 539.953c.5-.168 184.794-55.283 184.794-55.283M262.289 531.141s-3.159-6.146-15.79-13.626c-12.629-7.479-25.428-11.963-25.428-11.963" style="fill:none;stroke:#00ff4a;stroke-width:.999997;stroke-linecap:round;stroke-linejoin:round;stroke-miterlimit:4;stroke-dasharray:none;stroke-opacity:1;visibility:visible"/><path d="m414.746 495.635 1.552-4.95-159.181 48.368M266.038 707.153l90.625-47.896M231.76 570.51l9.39 133.827" style="fill:none;stroke:#00ff4a;stroke-width:.999997;stroke-linecap:round;stroke-linejoin:round;stroke-miterlimit:4;stroke-dasharray:7.99998;stroke-dashoffset:0;stroke-opacity:1;visibility:visible"/><path d="m410.974 507.646 1.621-5.156" style="fill:none;stroke:#00ff4a;stroke-width:.999997;stroke-linecap:round;stroke-linejoin:round;stroke-miterlimit:4;stroke-dasharray:none;stroke-opacity:1;visibility:visible"/><path d="m373.486 637.672 34.77-120.874" style="fill:none;stroke:#00ff4a;stroke-width:.999997;stroke-linecap:round;stroke-linejoin:round;stroke-miterlimit:4;stroke-dasharray:7.99998;stroke-dashoffset:0;stroke-opacity:1;visibility:visible"/><path d="m192.333 482.668 14.666 7.667M130.666 630.001l-19.333-10.333s-6.667-3.668-8 .332M328.286 449.304l13.696 8.163M341.982 457.467l-13.696-8.163M233.205 539.953l-4.485 1.827" style="fill:none;stroke:#00ff4a;stroke-width:.999997;stroke-linecap:round;stroke-linejoin:round;stroke-miterlimit:4;stroke-dasharray:none;stroke-opacity:1;visibility:visible"/><path d="m415.474 503.958 2.193-7.068M410.974 507.646l4.5-3.688M412.595 502.49l1.315 6.504M413.91 508.994l-2.715 9.605" style="fill:none;stroke:#00ff4a;stroke-width:1.99999;stroke-linecap:round;stroke-linejoin:round;stroke-miterlimit:4;stroke-dasharray:none;stroke-opacity:1;visibility:visible"/><path d="m241.15 704.337-4.288 18.756M228.72 541.78l4.485-1.827" style="fill:none;stroke:#00ff4a;stroke-width:.999997;stroke-linecap:round;stroke-linejoin:round;stroke-miterlimit:4;stroke-dasharray:none;stroke-opacity:1;visibility:visible"/><path d="m412.595 502.49 2.151-6.855" style="fill:none;stroke:#00ff4a;stroke-width:.999997;stroke-linecap:round;stroke-linejoin:round;stroke-miterlimit:4;stroke-dasharray:7.99998;stroke-dashoffset:0;stroke-opacity:1;visibility:visible"/><path d="m415.474 503.958-4.5 3.688M413.91 508.994l-1.315-6.504" style="fill:none;stroke:#00ff4a;stroke-width:.999997;stroke-linecap:round;stroke-linejoin:round;stroke-miterlimit:4;stroke-dasharray:none;stroke-opacity:1;visibility:visible"/><path d="m410.974 507.646-2.718 9.152" style="fill:none;stroke:#00ff4a;stroke-width:.999997;stroke-linecap:round;stroke-linejoin:round;stroke-miterlimit:4;stroke-dasharray:7.99998;stroke-dashoffset:0;stroke-opacity:1;visibility:visible"/><path d="m447.559 509.319 31.968 13.315M462.25 504.564l-14.956 4.322s-5.132 20.97-4.654 21.106c5.555 1.56 33.237 8.141 33.237 8.141l10.803-3.156 4.155-15.786-28.25-14.627h-.335" style="fill:none;stroke:#9500ff;stroke-width:.999997;stroke-linecap:round;stroke-linejoin:round;stroke-miterlimit:4;stroke-dasharray:none;stroke-opacity:1;visibility:visible" visibility="hidden"/><path d="m490.835 519.19-11.13 3.487-3.83 15.456" style="fill:none;stroke:#9500ff;stroke-width:.999997;stroke-linecap:round;stroke-linejoin:round;stroke-miterlimit:4;stroke-dasharray:none;stroke-opacity:1;visibility:visible" visibility="hidden"/><path d="M484.936 528.884c-.844 1.304-2.081 2.003-2.768 1.557-.688-.445-.558-1.86.284-3.165.841-1.306 2.081-2.001 2.765-1.56.691.445.564 1.864-.28 3.168h-.001" style="fill:none;stroke:#9500ff;stroke-width:.999997;stroke-linecap:round;stroke-linejoin:round;stroke-miterlimit:4;stroke-dasharray:none;stroke-opacity:1;visibility:visible" visibility="hidden"/><path d="m239.022 725.254 24.595 19.776 13.793-7.976.667-13.128-20.788-27.392-18.26 9.688-.007 19.032M264.447 732.234l-.832 12.798" style="fill:none;stroke:#ffdf00;stroke-width:.999997;stroke-linecap:round;stroke-linejoin:round;stroke-miterlimit:4;stroke-dasharray:none;stroke-opacity:1;visibility:visible" visibility="hidden"/><path d="m278.075 723.928-13.628 8.306-25.085-25.564M272.475 736.028c-1.008 1.109-2.297 1.572-2.881 1.044-.583-.532-.236-1.859.773-2.966 1.007-1.109 2.298-1.573 2.879-1.045.584.535.239 1.86-.77 2.967h-.001" style="fill:none;stroke:#ffdf00;stroke-width:.999997;stroke-linecap:round;stroke-linejoin:round;stroke-miterlimit:4;stroke-dasharray:none;stroke-opacity:1;visibility:visible" visibility="hidden"/><path d="m357.018 662.27 26.09 12.795 10.304-4.488 2.492-12.13-22.266-20.774-14.626 6.814-2.16 17.613" style="fill:none;stroke:#00d4ff;stroke-width:.999997;stroke-linecap:round;stroke-linejoin:round;stroke-miterlimit:4;stroke-dasharray:none;stroke-opacity:1;visibility:visible" visibility="hidden"/><path d="m395.904 658.448-10.137 4.65-2.659 11.967M359.18 644.985l26.253 18.285" style="fill:none;stroke:#00d4ff;stroke-width:.999997;stroke-linecap:round;stroke-linejoin:round;stroke-miterlimit:4;stroke-dasharray:none;stroke-opacity:1;visibility:visible" visibility="hidden"/><path d="M391.259 667.901c-.721 1.055-1.753 1.604-2.315 1.224-.554-.38-.422-1.544.303-2.599.723-1.056 1.757-1.604 2.312-1.224.556.38.421 1.542-.3 2.6v-.001" style="fill:none;stroke:#00d4ff;stroke-width:.999997;stroke-linecap:round;stroke-linejoin:round;stroke-miterlimit:4;stroke-dasharray:none;stroke-opacity:1;visibility:visible" visibility="hidden"/><path d="m410.974 507.646-8.21 3.322M412.595 502.49l-.545-5.778" style="fill:none;stroke:#00ff4a;stroke-width:.999997;stroke-linecap:round;stroke-linejoin:round;stroke-miterlimit:4;stroke-dasharray:none;stroke-opacity:1;visibility:visible"/><path d="m278.075 723.928-9.582-14.436" style="fill:none;stroke:#00ff4a;stroke-width:1.99999;stroke-linecap:round;stroke-linejoin:round;stroke-miterlimit:4;stroke-dasharray:none;stroke-opacity:1;visibility:visible"/><path d="m268.493 709.492 9.582 14.436" style="fill:none;stroke:#ffdf00;stroke-width:.999997;stroke-linecap:round;stroke-linejoin:round;stroke-miterlimit:4;stroke-dasharray:none;stroke-opacity:1;visibility:visible" visibility="hidden"/></svg>