<svg xmlns="http://www.w3.org/2000/svg" baseProfile="full" height="1122.52" preserveAspectRatio="xMinYMin meet" style="width:599px;height:832px" width="793.701" xml:space="preserve"><path d="m625.178 659.376-94.656 50.483M626.052 660.69l-.873-1.315M625.165 668.714l.887-8.024" style="fill:none;stroke:red;stroke-width:.999997;stroke-linecap:round;stroke-linejoin:round;stroke-miterlimit:4;stroke-dasharray:none;stroke-opacity:1;visibility:visible" visibility="hidden"/><path d="m517.678 705.15 94.746-49.779" style="fill:none;stroke:red;stroke-width:1.6;stroke-linecap:round;stroke-linejoin:round;stroke-miterlimit:4;stroke-dasharray:none;stroke-opacity:1;visibility:visible" visibility="hidden"/><path d="m625.178 659.376-12.753-4.005" style="fill:none;stroke:red;stroke-width:.999997;stroke-linecap:round;stroke-linejoin:round;stroke-miterlimit:4;stroke-dasharray:none;stroke-opacity:1;visibility:visible" visibility="hidden"/><path d="m541.648 713.953 83.517-45.239" style="fill:none;stroke:red;stroke-width:1.6;stroke-linecap:round;stroke-linejoin:round;stroke-miterlimit:4;stroke-dasharray:none;stroke-opacity:1;visibility:visible" visibility="hidden"/><path d="m683.753 675.968-1.447 12.619M683.753 675.968l.77-1.741M475.164 612.144l208.587 63.824" style="fill:none;stroke:red;stroke-width:.999997;stroke-linecap:round;stroke-linejoin:round;stroke-miterlimit:4;stroke-dasharray:none;stroke-opacity:1;visibility:visible" visibility="hidden"/><path d="m475.94 610.494-.776 1.65" style="fill:none;stroke:red;stroke-width:1.6;stroke-linecap:round;stroke-linejoin:round;stroke-miterlimit:4;stroke-dasharray:none;stroke-opacity:1;visibility:visible" visibility="hidden"/><path d="m690.732 669.451-6.21 4.776" style="fill:none;stroke:red;stroke-width:.999997;stroke-linecap:round;stroke-linejoin:round;stroke-miterlimit:4;stroke-dasharray:none;stroke-opacity:1;visibility:visible" visibility="hidden"/><path d="m690.732 669.451 1.117 1.648M475.012 614.178l.152-2.033M691.849 671.1l-1.46 12.563M690.39 683.662l-6.203 4.824M475.94 610.494l6.835-4.28M482.775 606.214l207.957 63.237" style="fill:none;stroke:red;stroke-width:1.6;stroke-linecap:round;stroke-linejoin:round;stroke-miterlimit:4;stroke-dasharray:none;stroke-opacity:1;visibility:visible" visibility="hidden"/><path d="m485.348 610.175-.404.176-.528.108-.612.043-.639-.048-.608-.112-.524-.186-.392-.233-.228-.253-.041-.266.15-.242.325-.206.473-.145.581-.079.631.003.628.083.573.15.462.21.316.245.132.265-.051.256-.244.231M500.158 614.688l-.404.175-.53.118-.618.035-.64-.041-.61-.122-.525-.186-.397-.234-.233-.262-.043-.266.143-.244.326-.202.474-.146.58-.078.632.002.63.087.58.148.462.208.32.253.137.268-.05.255-.234.232M492.743 612.424l-.405.183-.531.11-.615.034-.64-.042-.609-.12-.528-.176-.393-.237-.224-.259-.04-.266.141-.244.323-.203.478-.145.578-.083.63.004.628.085.578.15.469.21.313.252.136.259-.053.265-.236.223" style="fill:none;stroke:red;stroke-width:.999997;stroke-linecap:round;stroke-linejoin:round;stroke-miterlimit:4;stroke-dasharray:none;stroke-opacity:1;visibility:visible" visibility="hidden"/><path d="m682.788 689.354-.481-.767" style="fill:none;stroke:red;stroke-width:.666665;stroke-linecap:round;stroke-linejoin:round;stroke-miterlimit:4;stroke-dasharray:none;stroke-opacity:1;visibility:visible" visibility="hidden"/><path d="m684.186 688.486-1.399.867M494.302 631.126l103.44 31.963M621.934 670.553l60.855 18.801" style="fill:none;stroke:red;stroke-width:1.6;stroke-linecap:round;stroke-linejoin:round;stroke-miterlimit:4;stroke-dasharray:none;stroke-opacity:1;visibility:visible" visibility="hidden"/><path d="m497.298 620.134-88.602 45.021M498.155 621.404l-.616 7.872M498.155 621.404l-.857-1.27" style="fill:none;stroke:red;stroke-width:.999997;stroke-linecap:round;stroke-linejoin:round;stroke-miterlimit:4;stroke-dasharray:none;stroke-opacity:1;visibility:visible" visibility="hidden"/><path d="m386.575 657.993 89.414-44.299" style="fill:none;stroke:red;stroke-width:1.6;stroke-linecap:round;stroke-linejoin:round;stroke-miterlimit:4;stroke-dasharray:none;stroke-opacity:1;visibility:visible" visibility="hidden"/><path d="m475.99 613.695 21.308 6.439" style="fill:none;stroke:red;stroke-width:.999997;stroke-linecap:round;stroke-linejoin:round;stroke-miterlimit:4;stroke-dasharray:none;stroke-opacity:1;visibility:visible" visibility="hidden"/><path d="m420.11 669.342 76.42-39.361M496.53 629.98l1.01-.703" style="fill:none;stroke:red;stroke-width:1.6;stroke-linecap:round;stroke-linejoin:round;stroke-miterlimit:4;stroke-dasharray:none;stroke-opacity:1;visibility:visible" visibility="hidden"/><path d="m330.87 656.303 40.945 9.59M128.008 608.791l169.609 39.723" style="fill:none;stroke:red;stroke-width:.999997;stroke-linecap:round;stroke-linejoin:round;stroke-miterlimit:4;stroke-dasharray:none;stroke-opacity:1;visibility:visible" visibility="hidden"/><path d="m128.527 607.376-.52 1.416" style="fill:none;stroke:red;stroke-width:1.6;stroke-linecap:round;stroke-linejoin:round;stroke-miterlimit:4;stroke-dasharray:none;stroke-opacity:1;visibility:visible" visibility="hidden"/><path d="m371.816 665.894-.74 13.501M371.816 665.894l-.525-1.72" style="fill:none;stroke:red;stroke-width:.666665;stroke-linecap:round;stroke-linejoin:round;stroke-miterlimit:4;stroke-dasharray:none;stroke-opacity:1;visibility:visible" visibility="hidden"/><path d="m127.904 621.94.104-13.15M342.502 647.295l17.676 3.85M135.119 602.123l176.574 38.461" style="fill:none;stroke:red;stroke-width:1.6;stroke-linecap:round;stroke-linejoin:round;stroke-miterlimit:4;stroke-dasharray:none;stroke-opacity:1;visibility:visible" visibility="hidden"/><path d="m371.292 664.174-11.113-13.028" style="fill:none;stroke:red;stroke-width:.666665;stroke-linecap:round;stroke-linejoin:round;stroke-miterlimit:4;stroke-dasharray:none;stroke-opacity:1;visibility:visible" visibility="hidden"/><path d="m128.527 607.376 6.59-5.252" style="fill:none;stroke:red;stroke-width:1.6;stroke-linecap:round;stroke-linejoin:round;stroke-miterlimit:4;stroke-dasharray:none;stroke-opacity:1;visibility:visible" visibility="hidden"/><path d="m138.92 605.532.461.2.296.245.11.266-.092.273-.278.241-.444.202-.574.136-.646.06-.666-.022-.626-.104-.529-.165-.379-.228-.206-.268-.012-.265.188-.264.369-.228.515-.164.614-.099.663-.023.652.068.584.139M155.112 608.8l.461.2.302.255.112.266-.082.274-.278.25-.442.2-.57.139-.648.059-.668-.023-.626-.104-.53-.175-.39-.226-.205-.262-.012-.272.179-.264.366-.229.51-.164.62-.107.661-.014.655.058.585.139M297.324 639.825l.499.21.337.263.15.287-.051.28-.247.261-.425.212-.562.143-.644.061-.682-.022-.646-.106-.557-.182-.421-.236-.25-.271-.049-.292.152-.272.341-.241.499-.182.608-.098.672-.022.667.068.609.139M146.833 607.25l.44.2.265.243.054.265-.155.255-.348.22-.507.156-.609.086-.637-.01-.615-.087-.513-.164-.352-.228-.162-.257.048-.264.258-.24.432-.186.565-.126.636-.043.632.05.568.13" style="fill:none;stroke:red;stroke-width:.999997;stroke-linecap:round;stroke-linejoin:round;stroke-miterlimit:4;stroke-dasharray:none;stroke-opacity:1;visibility:visible" visibility="hidden"/><path d="m320.393 667.917 50.045 11.83M128.405 622.537l152.597 36.07M127.904 621.94l.501.596" style="fill:none;stroke:red;stroke-width:1.6;stroke-linecap:round;stroke-linejoin:round;stroke-miterlimit:4;stroke-dasharray:none;stroke-opacity:1;visibility:visible" visibility="hidden"/><path d="m370.439 679.748.639-.353" style="fill:none;stroke:red;stroke-width:.666665;stroke-linecap:round;stroke-linejoin:round;stroke-miterlimit:4;stroke-dasharray:none;stroke-opacity:1;visibility:visible" visibility="hidden"/><path d="m134.116 602.917 1.003-.795" style="fill:none;stroke:red;stroke-width:1.6;stroke-linecap:round;stroke-linejoin:round;stroke-miterlimit:4;stroke-dasharray:none;stroke-opacity:1;visibility:visible" visibility="hidden"/><path d="m579.814 738.177-1.343 14.003M579.814 738.177l.653-1.532M371.816 665.894l207.997 72.282M587.99 730.954l-7.524 5.69" style="fill:none;stroke:red;stroke-width:.999997;stroke-linecap:round;stroke-linejoin:round;stroke-miterlimit:4;stroke-dasharray:none;stroke-opacity:1;visibility:visible" visibility="hidden"/><path d="m587.99 730.954.872 1.488" style="fill:none;stroke:red;stroke-width:1.6;stroke-linecap:round;stroke-linejoin:round;stroke-miterlimit:4;stroke-dasharray:none;stroke-opacity:1;visibility:visible" visibility="hidden"/><path d="m371.816 665.894-.74 13.501" style="fill:none;stroke:red;stroke-width:.666665;stroke-linecap:round;stroke-linejoin:round;stroke-miterlimit:4;stroke-dasharray:none;stroke-opacity:1;visibility:visible" visibility="hidden"/><path d="m587.505 746.387-7.45 5.703M588.863 732.442l-1.359 13.945" style="fill:none;stroke:red;stroke-width:1.6;stroke-linecap:round;stroke-linejoin:round;stroke-miterlimit:4;stroke-dasharray:none;stroke-opacity:1;visibility:visible" visibility="hidden"/><path d="m371.13 663.99-10.952-12.844" style="fill:none;stroke:red;stroke-width:.666665;stroke-linecap:round;stroke-linejoin:round;stroke-miterlimit:4;stroke-dasharray:none;stroke-opacity:1;visibility:visible" visibility="hidden"/><path d="m360.178 651.145 15.852 3.444M376.03 654.59l32.273 10.419M408.303 665.009l179.688 65.945" style="fill:none;stroke:red;stroke-width:1.6;stroke-linecap:round;stroke-linejoin:round;stroke-miterlimit:4;stroke-dasharray:none;stroke-opacity:1;visibility:visible" visibility="hidden"/><path d="m384.18 659.865.516.223.36.261.165.297-.029.292-.236.27-.415.208-.552.154-.65.06-.686-.021-.664-.113-.569-.186-.444-.245-.27-.288-.069-.295.134-.278.33-.251.494-.181.606-.108.674-.015.681.068.624.148M399.69 664.876l.52.223.367.272.17.294-.029.302-.232.258-.408.222-.557.153-.651.06-.685-.023-.667-.114-.58-.183-.443-.245-.274-.29-.07-.301.132-.281.324-.251.488-.181.607-.11.679-.021.682.067.627.149M391.768 662.464l.488.22.325.261.114.284-.102.283-.31.23-.484.175-.606.088-.661-.002-.641-.096-.56-.186-.418-.244-.216-.277-.009-.285.216-.26.396-.212.552-.124.645-.046.662.051.609.14" style="fill:none;stroke:red;stroke-width:.999997;stroke-linecap:round;stroke-linejoin:round;stroke-miterlimit:4;stroke-dasharray:none;stroke-opacity:1;visibility:visible" visibility="hidden"/><path d="m578.911 752.801-.44-.623" style="fill:none;stroke:red;stroke-width:.666665;stroke-linecap:round;stroke-linejoin:round;stroke-miterlimit:4;stroke-dasharray:none;stroke-opacity:1;visibility:visible" visibility="hidden"/><path d="m580.056 752.09-1.144.71M370.587 679.658 578.91 752.8M588.462 731.593l.401.85" style="fill:none;stroke:red;stroke-width:1.6;stroke-linecap:round;stroke-linejoin:round;stroke-miterlimit:4;stroke-dasharray:none;stroke-opacity:1;visibility:visible" visibility="hidden"/><path d="m587.99 730.954.472.639" style="fill:none;stroke:red;stroke-width:.666665;stroke-linecap:round;stroke-linejoin:round;stroke-miterlimit:4;stroke-dasharray:none;stroke-opacity:1;visibility:visible" visibility="hidden"/><path d="m497.298 620.134-2.996 10.992M612.425 655.37l-14.683 7.719M625.178 659.376l-3.244 11.177" style="fill:none;stroke:red;stroke-width:1.6;stroke-linecap:round;stroke-linejoin:round;stroke-miterlimit:4;stroke-dasharray:none;stroke-opacity:1;visibility:visible" visibility="hidden"/><path d="m135.119 602.123 3.801 3.409M135.119 602.123l11.714 5.127" style="fill:none;stroke:red;stroke-width:.999997;stroke-linecap:round;stroke-linejoin:round;stroke-miterlimit:4;stroke-dasharray:none;stroke-opacity:1;visibility:visible" visibility="hidden"/><path d="m135.118 602.124-1.002.793" style="fill:none;stroke:red;stroke-width:1.6;stroke-linecap:round;stroke-linejoin:round;stroke-miterlimit:4;stroke-dasharray:none;stroke-opacity:1;visibility:visible" visibility="hidden"/><path d="m376.03 654.59 8.15 5.275M376.03 654.59l15.738 7.874" style="fill:none;stroke:red;stroke-width:.999997;stroke-linecap:round;stroke-linejoin:round;stroke-miterlimit:4;stroke-dasharray:none;stroke-opacity:1;visibility:visible" visibility="hidden"/><path d="m291.497 509.885-133.068-24.776M157.294 498.695l133.67 25.124M292.643 479.798 158.81 455.395M157.7 469.109l134.408 24.75M290.37 539.427l-132.314-25.145M156.898 527.748l132.941 25.495" style="fill:none;stroke:#00ff4a;stroke-width:1.6;stroke-linecap:round;stroke-linejoin:round;stroke-miterlimit:4;stroke-dasharray:none;stroke-opacity:1;visibility:visible" visibility="hidden"/><path d="M157.969 419.16c-3.576 36.42-4.49 106.403-1.87 142.9M157.969 419.158l1.55-.167" style="fill:none;stroke:#00ff4a;stroke-width:.999997;stroke-linecap:round;stroke-linejoin:round;stroke-miterlimit:4;stroke-dasharray:none;stroke-opacity:1;visibility:visible" visibility="hidden"/><path d="m157.603 561.86-1.504.197M132.557 557.438l23.541 4.62" style="fill:none;stroke:#00ff4a;stroke-width:1.6;stroke-linecap:round;stroke-linejoin:round;stroke-miterlimit:4;stroke-dasharray:none;stroke-opacity:1;visibility:visible" visibility="hidden"/><path d="m133.79 414.859 24.179 4.3" style="fill:none;stroke:#00ff4a;stroke-width:.999997;stroke-linecap:round;stroke-linejoin:round;stroke-miterlimit:4;stroke-dasharray:none;stroke-opacity:1;visibility:visible" visibility="hidden"/><path d="M159.257 499.063c-.035 3.875-.021 11.579.021 15.455M159.494 528.247c.136 7.808.743 23.22 1.224 31.013M159.422 485.294l.203-8.972.201-6.824M162.71 416.708c-.794 9.78-1.97 29.164-2.354 38.967M160.719 559.26l-3.116 2.6" style="fill:none;stroke:#00ff4a;stroke-width:1.6;stroke-linecap:round;stroke-linejoin:round;stroke-miterlimit:4;stroke-dasharray:none;stroke-opacity:1;visibility:visible" visibility="hidden"/><path d="m159.518 418.992 3.193-2.285M147.128 416.113l-.476-.124-.319-.175-.122-.2.094-.19.296-.168.458-.114.558-.049.587.025.528.092.407.152.226.187.014.201-.202.183-.381.144-.517.081-.58.016-.571-.061M140.703 413.514l.508.17.353.209.16.228-.049.236-.243.214-.429.174-.563.126-.66.055-.694-.008-.656-.077M138.43 414.84l-.579-.143-.434-.186-.255-.224-.061-.235.15-.227.343-.197.496-.152" style="fill:none;stroke:#00ff4a;stroke-width:.999997;stroke-linecap:round;stroke-linejoin:round;stroke-miterlimit:4;stroke-dasharray:none;stroke-opacity:1;visibility:visible" visibility="hidden"/><path d="m138.04 411.897-1.543.16M141.042 412.43l13.84 2.45M158.292 415.484l3.854.683M162.71 416.706l-.565-.543" style="fill:none;stroke:#00ff4a;stroke-width:1.6;stroke-linecap:round;stroke-linejoin:round;stroke-miterlimit:4;stroke-dasharray:none;stroke-opacity:1;visibility:visible" visibility="hidden"/><path d="m133.247 414.328.543.53" style="fill:none;stroke:#00ff4a;stroke-width:.666665;stroke-linecap:round;stroke-linejoin:round;stroke-miterlimit:4;stroke-dasharray:none;stroke-opacity:1;visibility:visible" visibility="hidden"/><path d="m133.247 414.328 3.25-2.272" style="fill:none;stroke:#00ff4a;stroke-width:1.6;stroke-linecap:round;stroke-linejoin:round;stroke-miterlimit:4;stroke-dasharray:none;stroke-opacity:1;visibility:visible" visibility="hidden"/><path d="m158 416.659.357.212.162.228-.043.237-.241.214-.42.178-.564.123-.66.06-.694-.008-.665-.083M155.232 417.82l-.573-.14-.44-.192-.266-.223-.057-.23.145-.23.336-.198.498-.15" style="fill:none;stroke:#00ff4a;stroke-width:.999997;stroke-linecap:round;stroke-linejoin:round;stroke-miterlimit:4;stroke-dasharray:none;stroke-opacity:1;visibility:visible" visibility="hidden"/><path d="M133.248 414.33c-3.484 36.35-4.083 106.105-1.228 142.513M132.557 557.438l-.536-.596" style="fill:none;stroke:#00ff4a;stroke-width:1.6;stroke-linecap:round;stroke-linejoin:round;stroke-miterlimit:4;stroke-dasharray:none;stroke-opacity:1;visibility:visible" visibility="hidden"/><path d="m156.71 488.85.06-.783.153-.802.235-.744.292-.634.333-.469.344-.268.302-.04M156.61 496.826l.101-7.977M157.294 498.695l-.013-.01-.284-.18-.216-.395-.132-.57-.04-.714M157.102 459.137l.061-.799.152-.805.235-.747.296-.63.33-.467.345-.252.289-.041M156.997 467.195l.104-8.057M157.7 469.109l-.027-.01-.288-.187-.216-.407-.136-.587-.036-.724M156.33 518.04l.063-.784.145-.792.23-.744.295-.635.33-.48.344-.266.317-.058M156.232 525.927l.099-7.887M156.898 527.748h0l-.279-.17-.221-.389-.13-.558-.037-.704" style="fill:none;stroke:#00ff4a;stroke-width:.999997;stroke-linecap:round;stroke-linejoin:round;stroke-miterlimit:4;stroke-dasharray:none;stroke-opacity:1;visibility:visible" visibility="hidden"/><path d="m304.426 593.373-1.495.21" style="fill:none;stroke:#00ff4a;stroke-width:1.6;stroke-linecap:round;stroke-linejoin:round;stroke-miterlimit:4;stroke-dasharray:none;stroke-opacity:1;visibility:visible" visibility="hidden"/><path d="m302.93 593.583 5.945-145.201M308.876 448.382l1.533-.172M305.26 444.648l.517.187.342.226.16.247-.06.245-.26.214-.443.177-.577.117-.678.047-.701-.033-.665-.095-.582-.167-.434-.21-.254-.236-.049-.248.16-.23M301.736 444.889l.352-.203.517-.145" style="fill:none;stroke:#00ff4a;stroke-width:.999997;stroke-linecap:round;stroke-linejoin:round;stroke-miterlimit:4;stroke-dasharray:none;stroke-opacity:1;visibility:visible" visibility="hidden"/><path d="m299.001 442.184-1.53.172M305.841 443.397l7.367 1.305M299.001 442.184l3.72.661M313.872 445.262l-.664-.561" style="fill:none;stroke:#00ff4a;stroke-width:1.6;stroke-linecap:round;stroke-linejoin:round;stroke-miterlimit:4;stroke-dasharray:none;stroke-opacity:1;visibility:visible" visibility="hidden"/><path d="m313.872 445.262-3.463 2.947M294.615 445.846l14.261 2.536" style="fill:none;stroke:#00ff4a;stroke-width:.999997;stroke-linecap:round;stroke-linejoin:round;stroke-miterlimit:4;stroke-dasharray:none;stroke-opacity:1;visibility:visible" visibility="hidden"/><path d="m293.96 445.285.655.56" style="fill:none;stroke:#00ff4a;stroke-width:.666665;stroke-linecap:round;stroke-linejoin:round;stroke-miterlimit:4;stroke-dasharray:none;stroke-opacity:1;visibility:visible" visibility="hidden"/><path d="m297.471 442.356-3.512 2.93M302.93 593.583l-13.867-2.72M307.814 590.032l-3.388 3.341M307.814 590.032l6.059-144.769M288.425 590.236l5.535-144.95M289.064 590.863l-.639-.627M156.61 496.826l2.647 2.237M156.33 518.04l2.948-3.522M156.232 525.927l3.262 2.32M156.711 488.849l2.711-3.555M156.997 467.195l2.829 2.303M157.101 459.138l3.255-3.463" style="fill:none;stroke:#00ff4a;stroke-width:1.6;stroke-linecap:round;stroke-linejoin:round;stroke-miterlimit:4;stroke-dasharray:none;stroke-opacity:1;visibility:visible" visibility="hidden"/><path d="m140.703 413.514 6.425 2.599M154.882 414.88l-7.754 1.233M138.43 414.84l2.273-1.326" style="fill:none;stroke:#00ff4a;stroke-width:.999997;stroke-linecap:round;stroke-linejoin:round;stroke-miterlimit:4;stroke-dasharray:none;stroke-opacity:1;visibility:visible" visibility="hidden"/><path d="m138.43 414.84 2.612-2.41M155.232 417.82l-.35-2.94M154.882 414.88l3.41.604M302.721 442.845l3.12.552M305.841 443.397l-3.12-.552" style="fill:none;stroke:#00ff4a;stroke-width:1.6;stroke-linecap:round;stroke-linejoin:round;stroke-miterlimit:4;stroke-dasharray:none;stroke-opacity:1;visibility:visible" visibility="hidden"/><path d="m501.794 386.634.413.2.239.216.048.22-.15.197-.338.167-.484.119-.605.052-.659-.014-.656-.07-.6-.138-.485-.172-.331-.213-.143-.221.051-.215.247-.181M498.341 386.58l.417-.143" style="fill:none;stroke:#9500ff;stroke-width:.999997;stroke-linecap:round;stroke-linejoin:round;stroke-miterlimit:4;stroke-dasharray:none;stroke-opacity:1;visibility:visible" visibility="hidden"/><path d="m493.675 387.08.401.524" style="fill:none;stroke:#9500ff;stroke-width:.666665;stroke-linecap:round;stroke-linejoin:round;stroke-miterlimit:4;stroke-dasharray:none;stroke-opacity:1;visibility:visible" visibility="hidden"/><path d="m498.186 384.865-4.512 2.215M517.344 389.294l4.59 1.163M502.035 385.418l12.173 3.083" style="fill:none;stroke:#9500ff;stroke-width:1.6;stroke-linecap:round;stroke-linejoin:round;stroke-miterlimit:4;stroke-dasharray:none;stroke-opacity:1;visibility:visible" visibility="hidden"/><path d="m522.346 390.986-.413-.53" style="fill:none;stroke:#9500ff;stroke-width:.666665;stroke-linecap:round;stroke-linejoin:round;stroke-miterlimit:4;stroke-dasharray:none;stroke-opacity:1;visibility:visible" visibility="hidden"/><path d="m522.346 390.986-4.46 2.241M516.355 393.262l1.53-.035M494.075 387.603l22.28 5.659M509.325 389.367l.19-.161-.02-.187-.218-.183-.393-.158-.512-.111-.56-.052-.54.027-.439.082-.288.14-.084.183.113.184.318.17.458.138.547.083.561.012.499-.056.368-.111M517.267 390.555l.417.201.246.22.056.22-.151.203-.33.168-.494.117-.6.054-.663-.01-.661-.076-.599-.137-.49-.179-.334-.21-.153-.222.05-.214.242-.188M513.803 390.502l.42-.143.552-.089" style="fill:none;stroke:#9500ff;stroke-width:.999997;stroke-linecap:round;stroke-linejoin:round;stroke-miterlimit:4;stroke-dasharray:none;stroke-opacity:1;visibility:visible" visibility="hidden"/><path d="m504.092 568.67-1.485.063" style="fill:none;stroke:#9500ff;stroke-width:1.6;stroke-linecap:round;stroke-linejoin:round;stroke-miterlimit:4;stroke-dasharray:none;stroke-opacity:1;visibility:visible" visibility="hidden"/><path d="m502.607 568.733 13.75-175.47" style="fill:none;stroke:#9500ff;stroke-width:.999997;stroke-linecap:round;stroke-linejoin:round;stroke-miterlimit:4;stroke-dasharray:none;stroke-opacity:1;visibility:visible" visibility="hidden"/><path d="m502.607 568.733-21.504-6.324M508.45 566.006l-4.359 2.664M508.45 566.006l13.896-175.02M480.727 561.798l12.948-174.718M481.103 562.408l-.376-.61" style="fill:none;stroke:#9500ff;stroke-width:1.6;stroke-linecap:round;stroke-linejoin:round;stroke-miterlimit:4;stroke-dasharray:none;stroke-opacity:1;visibility:visible" visibility="hidden"/><path d="m497.676 423.815-.052-.45-.18-.435-.3-.364-.376-.242-.404-.104-.39.058-.321.202-.226.335-.098.416.052.456.18.433.3.362.376.25.406.095.39-.052.321-.21.225-.329.097-.421M489.904 524.135l-.044-.433-.181-.427-.294-.355-.365-.246-.399-.114-.381.047-.323.19-.217.312-.09.401.042.437.181.421.294.359.366.248.398.105.382-.037.324-.196.218-.31.09-.403" style="fill:none;stroke:#9500ff;stroke-width:.999997;stroke-linecap:round;stroke-linejoin:round;stroke-miterlimit:4;stroke-dasharray:none;stroke-opacity:1;visibility:visible" visibility="hidden"/><path d="m514.208 388.5 3.136.794M516.355 393.262l-14.32-7.844M517.344 389.294l-3.136-.793" style="fill:none;stroke:#9500ff;stroke-width:1.6;stroke-linecap:round;stroke-linejoin:round;stroke-miterlimit:4;stroke-dasharray:none;stroke-opacity:1;visibility:visible" visibility="hidden"/><path d="m513.803 390.502-4.478-1.135M513.803 390.502l-4.478-1.135" style="fill:none;stroke:#9500ff;stroke-width:.999997;stroke-linecap:round;stroke-linejoin:round;stroke-miterlimit:4;stroke-dasharray:none;stroke-opacity:1;visibility:visible" visibility="hidden"/><path d="m400.811 465.252.415-.135.538-.066.604.01.572.095.484.156.311.197.105.222-.118.202-.324.168-.486.106-.58.025-.602-.053-.536-.124-.406-.183-.208-.213.011-.215.22-.192M395.268 462.712l.57.18.418.224.235.25.016.258-.187.232-.385.195-.539.14-.656.065-.71-.005-.697-.088-.629-.148-.496-.207-.33-.237-.122-.26.083-.246.29-.218M392.13 462.846l.467-.168.604-.103M410.64 470.52l1.656-.05M387.402 464.057l23.239 6.464" style="fill:none;stroke:#ffdf00;stroke-width:.999997;stroke-linecap:round;stroke-linejoin:round;stroke-miterlimit:4;stroke-dasharray:none;stroke-opacity:1;visibility:visible"/><path d="m387.042 463.456.361.601" style="fill:none;stroke:#ffdf00;stroke-width:.666665;stroke-linecap:round;stroke-linejoin:round;stroke-miterlimit:4;stroke-dasharray:none;stroke-opacity:1;visibility:visible"/><path d="m392.187 460.85-5.145 2.605M412.339 465.928l4.673 1.295M396.073 461.422l12.865 3.564M417.392 467.833l-.38-.61" style="fill:none;stroke:#ffdf00;stroke-width:1.6;stroke-linecap:round;stroke-linejoin:round;stroke-miterlimit:4;stroke-dasharray:none;stroke-opacity:1;visibility:visible"/><path d="m417.392 467.833-5.095 2.637M411.983 467.366l.419.228.238.257.022.256-.183.234-.38.198-.544.14-.65.066-.711-.011-.703-.081-.63-.155-.507-.205-.332-.246-.127-.257.081-.25.288-.22" style="fill:none;stroke:#ffdf00;stroke-width:.999997;stroke-linecap:round;stroke-linejoin:round;stroke-miterlimit:4;stroke-dasharray:none;stroke-opacity:1;visibility:visible"/><path d="m408.264 467.321.461-.17.604-.102" style="fill:none;stroke:#ffdf00;stroke-width:.999997;stroke-linecap:round;stroke-linejoin:round;stroke-miterlimit:4;stroke-dasharray:none;stroke-opacity:1;visibility:visible"/><path d="m403.443 617.483-1.61.07" style="fill:none;stroke:#ffdf00;stroke-width:1.6;stroke-linecap:round;stroke-linejoin:round;stroke-miterlimit:4;stroke-dasharray:none;stroke-opacity:1;visibility:visible"/><path d="m401.832 617.553 8.808-147.032" style="fill:none;stroke:#ffdf00;stroke-width:.999997;stroke-linecap:round;stroke-linejoin:round;stroke-miterlimit:4;stroke-dasharray:none;stroke-opacity:1;visibility:visible"/><path d="m401.832 617.553-22.568-7.05M408.426 614.472l-4.983 3.01M408.426 614.472l8.967-146.638M378.923 609.821l8.119-146.365M379.264 610.503l-.341-.683" style="fill:none;stroke:#ffdf00;stroke-width:1.6;stroke-linecap:round;stroke-linejoin:round;stroke-miterlimit:4;stroke-dasharray:none;stroke-opacity:1;visibility:visible"/><path d="m408.938 464.986-13.67-2.274" style="fill:none;stroke:#ffdf00;stroke-width:.999997;stroke-linecap:round;stroke-linejoin:round;stroke-miterlimit:4;stroke-dasharray:none;stroke-opacity:1;visibility:visible"/><path d="m408.938 464.986 3.401.942M410.64 470.521l-14.567-9.099M412.339 465.928l-3.4-.942" style="fill:none;stroke:#ffdf00;stroke-width:1.6;stroke-linecap:round;stroke-linejoin:round;stroke-miterlimit:4;stroke-dasharray:none;stroke-opacity:1;visibility:visible"/><path d="m146.833 607.25 8.279 1.55M391.768 662.464l7.922 2.412" style="fill:none;stroke:red;stroke-width:.999997;stroke-linecap:round;stroke-linejoin:round;stroke-miterlimit:4;stroke-dasharray:none;stroke-opacity:1;visibility:visible" visibility="hidden"/><path d="m147.128 416.113-9.088-4.216" style="fill:none;stroke:#00ff4a;stroke-width:1.6;stroke-linecap:round;stroke-linejoin:round;stroke-miterlimit:4;stroke-dasharray:none;stroke-opacity:1;visibility:visible" visibility="hidden"/><path d="m516.355 393.262-14.561-6.628M516.355 393.262l.912-2.707" style="fill:none;stroke:#9500ff;stroke-width:.999997;stroke-linecap:round;stroke-linejoin:round;stroke-miterlimit:4;stroke-dasharray:none;stroke-opacity:1;visibility:visible" visibility="hidden"/><path d="m410.64 470.521 1.343-3.155" style="fill:none;stroke:#ffdf00;stroke-width:.999997;stroke-linecap:round;stroke-linejoin:round;stroke-miterlimit:4;stroke-dasharray:none;stroke-opacity:1;visibility:visible"/></svg>