<svg xmlns="http://www.w3.org/2000/svg" baseProfile="full" height="1122.52" preserveAspectRatio="xMinYMin meet" style="width:599px;height:832px" width="793.701" xml:space="preserve"><path d="m170.96 687.296 107.975 22.078M279.285 698.268 171.924 676.51M170.836 710.134l107.38 22.362M278.551 721.481 171.82 699.442M171.086 664.037l108.59 21.793M280.025 674.624 172.04 653.148" style="fill:none;stroke:red;stroke-width:1.6;stroke-linecap:round;stroke-linejoin:round;stroke-miterlimit:4;stroke-dasharray:none;stroke-opacity:1;visibility:visible" visibility="hidden"/><path d="m461.368 599.197 1.24-.046M459.856 619.735l1.514-20.536M451.202 737.201l7.062-95.897M452.402 737.137l-1.2.063" style="fill:none;stroke:red;stroke-width:.999997;stroke-linecap:round;stroke-linejoin:round;stroke-miterlimit:4;stroke-dasharray:none;stroke-opacity:1;visibility:visible" visibility="hidden"/><path d="m443.079 593.593.315.495" style="fill:none;stroke:red;stroke-width:.566665;stroke-linecap:round;stroke-linejoin:round;stroke-miterlimit:4;stroke-dasharray:none;stroke-opacity:1;visibility:visible" visibility="hidden"/><path d="m451.063 592.264 1.503.425M456.73 593.87l1.674.475M463.622 595.825l2.294.651M445.906 591.94l-2.828 1.653" style="fill:none;stroke:red;stroke-width:1.6;stroke-linecap:round;stroke-linejoin:round;stroke-miterlimit:4;stroke-dasharray:none;stroke-opacity:1;visibility:visible" visibility="hidden"/><path d="m466.245 596.968-.329-.492" style="fill:none;stroke:red;stroke-width:.566665;stroke-linecap:round;stroke-linejoin:round;stroke-miterlimit:4;stroke-dasharray:none;stroke-opacity:1;visibility:visible" visibility="hidden"/><path d="m443.394 594.088 17.974 5.11M466.245 596.968l-3.637 2.183" style="fill:none;stroke:red;stroke-width:.999997;stroke-linecap:round;stroke-linejoin:round;stroke-miterlimit:4;stroke-dasharray:none;stroke-opacity:1;visibility:visible" visibility="hidden"/><path d="m451.202 737.201-17.338-5.623M455.723 595.588l.152-.156-.007-.177-.174-.17M453.71 594.908l-.228.14-.078.167.096.18.25.158.37.128.447.066.453.008.4-.059.303-.108" style="fill:none;stroke:red;stroke-width:.566665;stroke-linecap:round;stroke-linejoin:round;stroke-miterlimit:4;stroke-dasharray:none;stroke-opacity:1;visibility:visible" visibility="hidden"/><path d="m464.432 621.236 1.813-24.268M455.958 734.634l6.872-91.894" style="fill:none;stroke:red;stroke-width:1.6;stroke-linecap:round;stroke-linejoin:round;stroke-miterlimit:4;stroke-dasharray:none;stroke-opacity:1;visibility:visible" visibility="hidden"/><path d="m455.958 734.634-3.556 2.503" style="fill:none;stroke:red;stroke-width:.999997;stroke-linecap:round;stroke-linejoin:round;stroke-miterlimit:4;stroke-dasharray:none;stroke-opacity:1;visibility:visible" visibility="hidden"/><path d="m441.682 613.76 1.397-20.167M433.564 731.022l6.607-95.432" style="fill:none;stroke:red;stroke-width:1.6;stroke-linecap:round;stroke-linejoin:round;stroke-miterlimit:4;stroke-dasharray:none;stroke-opacity:1;visibility:visible" visibility="hidden"/><path d="m433.866 731.577-.302-.555" style="fill:none;stroke:red;stroke-width:.566665;stroke-linecap:round;stroke-linejoin:round;stroke-miterlimit:4;stroke-dasharray:none;stroke-opacity:1;visibility:visible" visibility="hidden"/><path d="m554.923 774.98-.72-1.071M554.204 773.908l-77.948 47.8" style="fill:none;stroke:red;stroke-width:.999997;stroke-linecap:round;stroke-linejoin:round;stroke-miterlimit:4;stroke-dasharray:none;stroke-opacity:1;visibility:visible" visibility="hidden"/><path d="m554.228 781.4-70.016 43.436" style="fill:none;stroke:red;stroke-width:1.6;stroke-linecap:round;stroke-linejoin:round;stroke-miterlimit:4;stroke-dasharray:none;stroke-opacity:1;visibility:visible" visibility="hidden"/><path d="m554.44 779.424.483-4.444" style="fill:none;stroke:red;stroke-width:.999997;stroke-linecap:round;stroke-linejoin:round;stroke-miterlimit:4;stroke-dasharray:none;stroke-opacity:1;visibility:visible" visibility="hidden"/><path d="m465.77 817.583 78.025-47.138" style="fill:none;stroke:red;stroke-width:1.6;stroke-linecap:round;stroke-linejoin:round;stroke-miterlimit:4;stroke-dasharray:none;stroke-opacity:1;visibility:visible" visibility="hidden"/><path d="M602.632 786.948 432.548 731.72M602.008 788.388l-1.128 10.094M602.008 788.388l.624-1.441M554.204 773.908l-2.744-.915-6.899-2.199" style="fill:none;stroke:red;stroke-width:.999997;stroke-linecap:round;stroke-linejoin:round;stroke-miterlimit:4;stroke-dasharray:none;stroke-opacity:1;visibility:visible" visibility="hidden"/><path d="m432.548 731.721-.628 1.367" style="fill:none;stroke:red;stroke-width:1.6;stroke-linecap:round;stroke-linejoin:round;stroke-miterlimit:4;stroke-dasharray:none;stroke-opacity:1;visibility:visible" visibility="hidden"/><path d="m607.71 782.634-5.08 4.312" style="fill:none;stroke:red;stroke-width:.999997;stroke-linecap:round;stroke-linejoin:round;stroke-miterlimit:4;stroke-dasharray:none;stroke-opacity:1;visibility:visible" visibility="hidden"/><path d="m607.486 794.037-5.069 4.345M608.628 783.974l-1.14 10.064M431.804 734.796l.116-1.708M607.71 782.634l.918 1.339" style="fill:none;stroke:red;stroke-width:1.6;stroke-linecap:round;stroke-linejoin:round;stroke-miterlimit:4;stroke-dasharray:none;stroke-opacity:1;visibility:visible" visibility="hidden"/><path d="m432.548 731.721 1.016-.697" style="fill:none;stroke:red;stroke-width:.566665;stroke-linecap:round;stroke-linejoin:round;stroke-miterlimit:4;stroke-dasharray:none;stroke-opacity:1;visibility:visible" visibility="hidden"/><path d="m456.026 733.633 151.686 49.001" style="fill:none;stroke:red;stroke-width:1.6;stroke-linecap:round;stroke-linejoin:round;stroke-miterlimit:4;stroke-dasharray:none;stroke-opacity:1;visibility:visible" visibility="hidden"/><path d="m602.418 798.382-1.14.672M601.277 799.054l-.397-.572" style="fill:none;stroke:red;stroke-width:.566665;stroke-linecap:round;stroke-linejoin:round;stroke-miterlimit:4;stroke-dasharray:none;stroke-opacity:1;visibility:visible" visibility="hidden"/><path d="m551.89 782.846 49.388 16.207M447.835 748.705l85.501 28.057" style="fill:none;stroke:red;stroke-width:1.6;stroke-linecap:round;stroke-linejoin:round;stroke-miterlimit:4;stroke-dasharray:none;stroke-opacity:1;visibility:visible" visibility="hidden"/><path d="m450.655 740.954-.7-1.033M449.955 739.921l-73.2 42.645" style="fill:none;stroke:red;stroke-width:.999997;stroke-linecap:round;stroke-linejoin:round;stroke-miterlimit:4;stroke-dasharray:none;stroke-opacity:1;visibility:visible" visibility="hidden"/><path d="m450.19 747.26-65.313 38.504" style="fill:none;stroke:red;stroke-width:1.6;stroke-linecap:round;stroke-linejoin:round;stroke-miterlimit:4;stroke-dasharray:none;stroke-opacity:1;visibility:visible" visibility="hidden"/><path d="m450.655 740.954-.465 6.306" style="fill:none;stroke:red;stroke-width:.999997;stroke-linecap:round;stroke-linejoin:round;stroke-miterlimit:4;stroke-dasharray:none;stroke-opacity:1;visibility:visible" visibility="hidden"/><path d="m375.135 766.994 57.472-32.65" style="fill:none;stroke:red;stroke-width:1.6;stroke-linecap:round;stroke-linejoin:round;stroke-miterlimit:4;stroke-dasharray:none;stroke-opacity:1;visibility:visible" visibility="hidden"/><path d="m432.606 734.342 17.349 5.579" style="fill:none;stroke:red;stroke-width:.999997;stroke-linecap:round;stroke-linejoin:round;stroke-miterlimit:4;stroke-dasharray:none;stroke-opacity:1;visibility:visible" visibility="hidden"/><path d="m449.379 747.8.81-.54" style="fill:none;stroke:red;stroke-width:.566665;stroke-linecap:round;stroke-linejoin:round;stroke-miterlimit:4;stroke-dasharray:none;stroke-opacity:1;visibility:visible" visibility="hidden"/><path d="m346.422 782.077-197.874-48.892" style="fill:none;stroke:red;stroke-width:.999997;stroke-linecap:round;stroke-linejoin:round;stroke-miterlimit:4;stroke-dasharray:none;stroke-opacity:1;visibility:visible" visibility="hidden"/><path d="m346.851 783.518-.523 10.804M346.851 783.518l-.428-1.441" style="fill:none;stroke:red;stroke-width:.566665;stroke-linecap:round;stroke-linejoin:round;stroke-miterlimit:4;stroke-dasharray:none;stroke-opacity:1;visibility:visible" visibility="hidden"/><path d="m293.04 760.325 44.406 10.181M174.192 733.074l103.26 23.676" style="fill:none;stroke:red;stroke-width:1.6;stroke-linecap:round;stroke-linejoin:round;stroke-miterlimit:4;stroke-dasharray:none;stroke-opacity:1;visibility:visible" visibility="hidden"/><path d="m346.422 782.077-8.976-11.572" style="fill:none;stroke:red;stroke-width:.566665;stroke-linecap:round;stroke-linejoin:round;stroke-miterlimit:4;stroke-dasharray:none;stroke-opacity:1;visibility:visible" visibility="hidden"/><path d="m148.133 744.88.419.439M148.552 745.32l197.27 49.22M148.548 733.185l2.424-2.1" style="fill:none;stroke:red;stroke-width:1.6;stroke-linecap:round;stroke-linejoin:round;stroke-miterlimit:4;stroke-dasharray:none;stroke-opacity:1;visibility:visible" visibility="hidden"/><path d="m147.768 733.786.78-.6M345.822 794.54l.506-.217" style="fill:none;stroke:red;stroke-width:.566665;stroke-linecap:round;stroke-linejoin:round;stroke-miterlimit:4;stroke-dasharray:none;stroke-opacity:1;visibility:visible" visibility="hidden"/><path d="m150.968 731.009-3.199 2.776M147.768 733.786l.006 10.519M148.133 744.88l-.359-.577" style="fill:none;stroke:red;stroke-width:1.6;stroke-linecap:round;stroke-linejoin:round;stroke-miterlimit:4;stroke-dasharray:none;stroke-opacity:1;visibility:visible" visibility="hidden"/><path d="m523.412 840.251-6.181 5.176M517.23 845.427 346.3 781.916M516.7 846.7l-1.04 11.213M516.699 846.7l.53-1.274" style="fill:none;stroke:red;stroke-width:.999997;stroke-linecap:round;stroke-linejoin:round;stroke-miterlimit:4;stroke-dasharray:none;stroke-opacity:1;visibility:visible" visibility="hidden"/><path d="m346.851 783.518-.523 10.804M523.412 840.251l.725 1.23" style="fill:none;stroke:red;stroke-width:.566665;stroke-linecap:round;stroke-linejoin:round;stroke-miterlimit:4;stroke-dasharray:none;stroke-opacity:1;visibility:visible" visibility="hidden"/><path d="m524.136 841.48-1.055 11.16M523.083 852.64l-6.116 5.18" style="fill:none;stroke:red;stroke-width:1.6;stroke-linecap:round;stroke-linejoin:round;stroke-miterlimit:4;stroke-dasharray:none;stroke-opacity:1;visibility:visible" visibility="hidden"/><path d="m346.3 781.916-8.855-11.411" style="fill:none;stroke:red;stroke-width:.566665;stroke-linecap:round;stroke-linejoin:round;stroke-miterlimit:4;stroke-dasharray:none;stroke-opacity:1;visibility:visible" visibility="hidden"/><path d="m337.446 770.506 12.933 2.964" style="fill:none;stroke:red;stroke-width:1.6;stroke-linecap:round;stroke-linejoin:round;stroke-miterlimit:4;stroke-dasharray:none;stroke-opacity:1;visibility:visible" visibility="hidden"/><path d="m350.38 773.468.267.092" style="fill:none;stroke:red;stroke-width:.566665;stroke-linecap:round;stroke-linejoin:round;stroke-miterlimit:4;stroke-dasharray:none;stroke-opacity:1;visibility:visible" visibility="hidden"/><path d="m374.312 781.72 2.386.82" style="fill:none;stroke:red;stroke-width:.999997;stroke-linecap:round;stroke-linejoin:round;stroke-miterlimit:4;stroke-dasharray:none;stroke-opacity:1;visibility:visible" visibility="hidden"/><path d="m376.698 782.54 146.712 57.712" style="fill:none;stroke:red;stroke-width:1.6;stroke-linecap:round;stroke-linejoin:round;stroke-miterlimit:4;stroke-dasharray:none;stroke-opacity:1;visibility:visible" visibility="hidden"/><path d="m516.03 858.353-.37-.44" style="fill:none;stroke:red;stroke-width:.566665;stroke-linecap:round;stroke-linejoin:round;stroke-miterlimit:4;stroke-dasharray:none;stroke-opacity:1;visibility:visible" visibility="hidden"/><path d="m345.966 794.478 170.064 63.875M516.967 857.818l-.937.535" style="fill:none;stroke:red;stroke-width:1.6;stroke-linecap:round;stroke-linejoin:round;stroke-miterlimit:4;stroke-dasharray:none;stroke-opacity:1;visibility:visible" visibility="hidden"/><path d="m523.808 840.727.328.754" style="fill:none;stroke:red;stroke-width:.566665;stroke-linecap:round;stroke-linejoin:round;stroke-miterlimit:4;stroke-dasharray:none;stroke-opacity:1;visibility:visible" visibility="hidden"/><path d="m523.412 840.251.397.475" style="fill:none;stroke:red;stroke-width:1.6;stroke-linecap:round;stroke-linejoin:round;stroke-miterlimit:4;stroke-dasharray:none;stroke-opacity:1;visibility:visible" visibility="hidden"/><path d="m151.526 620.87 19.527 3.793M151.497 732.954l18.999 4.038M171.72 736.793l-1.224.197M171.053 624.664l1.255-.175M170.496 736.992l-.47-7.303-.39-7.43-.313-7.561-.238-7.677-.163-7.795-.078-7.898-.002-8.01.074-8.117.153-8.209.237-8.3.318-8.39.394-8.472.474-8.543.56-8.623" style="fill:none;stroke:red;stroke-width:.999997;stroke-linecap:round;stroke-linejoin:round;stroke-miterlimit:4;stroke-dasharray:none;stroke-opacity:1;visibility:visible" visibility="hidden"/><path d="M172.65 687.638c-.002 3.01.06 9 .128 12.006M173.06 710.596c.17 5.982.77 17.786 1.217 23.754" style="fill:none;stroke:red;stroke-width:1.6;stroke-linecap:round;stroke-linejoin:round;stroke-miterlimit:4;stroke-dasharray:none;stroke-opacity:1;visibility:visible" visibility="hidden"/><path d="m172.688 676.664.105-7.204.117-5.055" style="fill:none;stroke:red;stroke-width:.999997;stroke-linecap:round;stroke-linejoin:round;stroke-miterlimit:4;stroke-dasharray:none;stroke-opacity:1;visibility:visible" visibility="hidden"/><path d="M174.936 622.295c-.596 7.808-1.431 23.273-1.687 31.095" style="fill:none;stroke:red;stroke-width:1.6;stroke-linecap:round;stroke-linejoin:round;stroke-miterlimit:4;stroke-dasharray:none;stroke-opacity:1;visibility:visible" visibility="hidden"/><path d="m172.308 624.49 2.628-2.196M174.276 734.35l-2.556 2.443" style="fill:none;stroke:red;stroke-width:.999997;stroke-linecap:round;stroke-linejoin:round;stroke-miterlimit:4;stroke-dasharray:none;stroke-opacity:1;visibility:visible" visibility="hidden"/><path d="m162.32 621.905-.388-.112-.252-.158-.096-.191.078-.181.242-.158.192-.057M163.63 621.036l.33.14.176.176.013.187-.169.177-.31.137-.42.087-.473.013-.456-.048" style="fill:none;stroke:red;stroke-width:.566665;stroke-linecap:round;stroke-linejoin:round;stroke-miterlimit:4;stroke-dasharray:none;stroke-opacity:1;visibility:visible" visibility="hidden"/><path d="m159.04 618.801 2.28.442M164.489 619.855l2.557.494M172.329 621.37l2.157.419" style="fill:none;stroke:red;stroke-width:1.6;stroke-linecap:round;stroke-linejoin:round;stroke-miterlimit:4;stroke-dasharray:none;stroke-opacity:1;visibility:visible" visibility="hidden"/><path d="m151.101 620.375.425.494M174.936 622.295l-.45-.506" style="fill:none;stroke:red;stroke-width:.566665;stroke-linecap:round;stroke-linejoin:round;stroke-miterlimit:4;stroke-dasharray:none;stroke-opacity:1;visibility:visible" visibility="hidden"/><path d="m151.073 732.405-.507-7.29-.44-7.412-.361-7.543-.277-7.654-.2-7.776-.124-7.88-.039-7.99.037-8.095.112-8.187.21-8.282.278-8.363.366-8.446.442-8.524.531-8.588M151.101 620.375l2.201-1.802" style="fill:none;stroke:red;stroke-width:1.6;stroke-linecap:round;stroke-linejoin:round;stroke-miterlimit:4;stroke-dasharray:none;stroke-opacity:1;visibility:visible" visibility="hidden"/><path d="m151.497 732.954-.424-.548" style="fill:none;stroke:red;stroke-width:.566665;stroke-linecap:round;stroke-linejoin:round;stroke-miterlimit:4;stroke-dasharray:none;stroke-opacity:1;visibility:visible" visibility="hidden"/><path d="m292.905 650.62 1.248-.183M289.005 764.72l3.9-114.1M290.214 764.508l-1.21.212M170.96 687.296l-.187-.099-.181-.285-.114-.43-.044-.559M170.436 685.924l.03-6.264M170.466 679.66l.048-.63.116-.642.189-.618.239-.534.269-.41.29-.249.263-.072.044.005M170.836 710.134l-.18-.093-.176-.273-.111-.428-.045-.54M170.324 708.801l.03-6.204M170.356 702.597l.044-.619.117-.642.19-.618.241-.533.267-.412.281-.256.264-.081.06.006M171.086 664.037l-.198-.112-.183-.288-.113-.443-.036-.56M170.554 662.634l.03-6.336M170.586 656.298l.04-.638.124-.65.19-.615.24-.531.269-.407.288-.244.272-.07.03.005" style="fill:none;stroke:red;stroke-width:.999997;stroke-linecap:round;stroke-linejoin:round;stroke-miterlimit:4;stroke-dasharray:none;stroke-opacity:1;visibility:visible" visibility="hidden"/><path d="m297.006 647.613-.53-.521M284.995 644.864l1.08.21M291.609 646.148l4.865.944M284.995 644.864l-1.245.176" style="fill:none;stroke:red;stroke-width:1.6;stroke-linecap:round;stroke-linejoin:round;stroke-miterlimit:4;stroke-dasharray:none;stroke-opacity:1;visibility:visible" visibility="hidden"/><path d="m281.382 648.38 11.523 2.24M297.006 647.613l-2.856 2.824" style="fill:none;stroke:red;stroke-width:.999997;stroke-linecap:round;stroke-linejoin:round;stroke-miterlimit:4;stroke-dasharray:none;stroke-opacity:1;visibility:visible" visibility="hidden"/><path d="m280.858 647.855.525.525" style="fill:none;stroke:red;stroke-width:.566665;stroke-linecap:round;stroke-linejoin:round;stroke-miterlimit:4;stroke-dasharray:none;stroke-opacity:1;visibility:visible" visibility="hidden"/><path d="m283.75 645.041-2.892 2.812" style="fill:none;stroke:red;stroke-width:1.6;stroke-linecap:round;stroke-linejoin:round;stroke-miterlimit:4;stroke-dasharray:none;stroke-opacity:1;visibility:visible" visibility="hidden"/><path d="m289.005 764.72-11.206-2.387" style="fill:none;stroke:red;stroke-width:.999997;stroke-linecap:round;stroke-linejoin:round;stroke-miterlimit:4;stroke-dasharray:none;stroke-opacity:1;visibility:visible" visibility="hidden"/><path d="m293.006 761.374 4-113.762" style="fill:none;stroke:red;stroke-width:1.6;stroke-linecap:round;stroke-linejoin:round;stroke-miterlimit:4;stroke-dasharray:none;stroke-opacity:1;visibility:visible" visibility="hidden"/><path d="m293.006 761.374-2.792 3.132" style="fill:none;stroke:red;stroke-width:.999997;stroke-linecap:round;stroke-linejoin:round;stroke-miterlimit:4;stroke-dasharray:none;stroke-opacity:1;visibility:visible" visibility="hidden"/><path d="m277.298 761.757 3.56-113.904" style="fill:none;stroke:red;stroke-width:1.6;stroke-linecap:round;stroke-linejoin:round;stroke-miterlimit:4;stroke-dasharray:none;stroke-opacity:1;visibility:visible" visibility="hidden"/><path d="m277.8 762.332-.503-.575" style="fill:none;stroke:red;stroke-width:.566665;stroke-linecap:round;stroke-linejoin:round;stroke-miterlimit:4;stroke-dasharray:none;stroke-opacity:1;visibility:visible" visibility="hidden"/><path d="m375.124 670.441 1.342-.063M368.863 785.938l6.26-115.496M370.168 785.86l-1.305.079" style="fill:none;stroke:red;stroke-width:.999997;stroke-linecap:round;stroke-linejoin:round;stroke-miterlimit:4;stroke-dasharray:none;stroke-opacity:1;visibility:visible" visibility="hidden"/><path d="m367.218 665.566.332-.138M369.332 665.588l.251.188.085.204-.098.197-.266.16-.389.104-.475.03-.486-.041-.44-.116-.32-.164-.167-.198.008-.212.183-.174" style="fill:none;stroke:red;stroke-width:.566665;stroke-linecap:round;stroke-linejoin:round;stroke-miterlimit:4;stroke-dasharray:none;stroke-opacity:1;visibility:visible" visibility="hidden"/><path d="m356.36 664.58 18.763 5.86" style="fill:none;stroke:red;stroke-width:.999997;stroke-linecap:round;stroke-linejoin:round;stroke-miterlimit:4;stroke-dasharray:none;stroke-opacity:1;visibility:visible" visibility="hidden"/><path d="m356.074 664.012.285.568" style="fill:none;stroke:red;stroke-width:.566665;stroke-linecap:round;stroke-linejoin:round;stroke-miterlimit:4;stroke-dasharray:none;stroke-opacity:1;visibility:visible" visibility="hidden"/><path d="m364.344 662.276 2.642.822M370.194 664.094l1.914.596M377.455 666.35l2.876.894M359.406 662.014l-3.332 1.998" style="fill:none;stroke:red;stroke-width:1.6;stroke-linecap:round;stroke-linejoin:round;stroke-miterlimit:4;stroke-dasharray:none;stroke-opacity:1;visibility:visible" visibility="hidden"/><path d="m380.628 667.82-.297-.576" style="fill:none;stroke:red;stroke-width:.566665;stroke-linecap:round;stroke-linejoin:round;stroke-miterlimit:4;stroke-dasharray:none;stroke-opacity:1;visibility:visible" visibility="hidden"/><path d="m368.863 785.938-18.205-6.31M380.628 667.82l-4.162 2.56" style="fill:none;stroke:red;stroke-width:.999997;stroke-linecap:round;stroke-linejoin:round;stroke-miterlimit:4;stroke-dasharray:none;stroke-opacity:1;visibility:visible" visibility="hidden"/><path d="m374.246 783.017 6.381-115.197" style="fill:none;stroke:red;stroke-width:1.6;stroke-linecap:round;stroke-linejoin:round;stroke-miterlimit:4;stroke-dasharray:none;stroke-opacity:1;visibility:visible" visibility="hidden"/><path d="m374.246 783.017-4.079 2.843" style="fill:none;stroke:red;stroke-width:.999997;stroke-linecap:round;stroke-linejoin:round;stroke-miterlimit:4;stroke-dasharray:none;stroke-opacity:1;visibility:visible" visibility="hidden"/><path d="m350.383 779.008 5.69-114.995" style="fill:none;stroke:red;stroke-width:1.6;stroke-linecap:round;stroke-linejoin:round;stroke-miterlimit:4;stroke-dasharray:none;stroke-opacity:1;visibility:visible" visibility="hidden"/><path d="m350.658 779.628-.275-.622" style="fill:none;stroke:red;stroke-width:.566665;stroke-linecap:round;stroke-linejoin:round;stroke-miterlimit:4;stroke-dasharray:none;stroke-opacity:1;visibility:visible" visibility="hidden"/><path d="m168.377 617.461 1.28 5.11M168.405 622.188l-.197.165M168.206 622.352l-.144.12-.126.316.106.302.33.249.505.165.613.053.635-.065.575-.168.438-.255.126-.161M171.264 622.908l.112-.145.008-.314-.222-.281-.426-.212" style="fill:none;stroke:red;stroke-width:.666665;stroke-linecap:round;stroke-linejoin:round;stroke-miterlimit:500;stroke-dasharray:none;stroke-opacity:1;visibility:visible" visibility="hidden"/><path d="M170.074 616.781a1.808 1.808 0 0 0-1.132.034M170.746 617.445l.148 4.998M168.313 617.516l.15 4.99M170.344 616.944l.34.353M168.684 616.995l-.318.372M170.746 617.445a.237.237 0 0 0-.062-.148M168.365 617.367a.221.221 0 0 0 .019.305" style="fill:none;stroke:red;stroke-width:.999997;stroke-linecap:round;stroke-linejoin:round;stroke-miterlimit:2;stroke-dasharray:none;stroke-opacity:1;visibility:visible" visibility="hidden"/><path d="m157.706 620.295.112-.146.008-.313-.221-.281-.427-.212M154.818 614.847l1.28 5.109M154.846 619.572l-.196.165" style="fill:none;stroke:red;stroke-width:.666665;stroke-linecap:round;stroke-linejoin:round;stroke-miterlimit:500;stroke-dasharray:none;stroke-opacity:1;visibility:visible" visibility="hidden"/><path d="m154.648 619.737-.144.12-.127.316.107.303.33.248.503.165.615.054.634-.066.575-.167.439-.255.125-.162" style="fill:none;stroke:red;stroke-width:.666665;stroke-linecap:round;stroke-linejoin:round;stroke-miterlimit:500;stroke-dasharray:none;stroke-opacity:1;visibility:visible" visibility="hidden"/><path d="M156.516 614.167a1.808 1.808 0 0 0-1.132.033M157.186 614.83l.148 4.999M154.754 614.903l.151 4.989M156.785 614.33l.34.352M155.125 614.38l-.317.372M157.186 614.83a.237.237 0 0 0-.062-.146M154.808 614.752a.221.221 0 0 0 .018.305" style="fill:none;stroke:red;stroke-width:.999997;stroke-linecap:round;stroke-linejoin:round;stroke-miterlimit:2;stroke-dasharray:none;stroke-opacity:1;visibility:visible" visibility="hidden"/><path d="m287.72 642.341 1.16 5.139M287.635 647.067l-.201.16M287.433 647.227l-.147.116-.133.313.097.304.327.257.498.178.615.068.636-.051.577-.155.444-.244.128-.158" style="fill:none;stroke:red;stroke-width:.666665;stroke-linecap:round;stroke-linejoin:round;stroke-miterlimit:500;stroke-dasharray:none;stroke-opacity:1;visibility:visible" visibility="hidden"/><path d="m290.475 647.855.116-.143.016-.313-.216-.286-.42-.222" style="fill:none;stroke:red;stroke-width:.666665;stroke-linecap:round;stroke-linejoin:round;stroke-miterlimit:500;stroke-dasharray:none;stroke-opacity:1;visibility:visible" visibility="hidden"/><path d="M289.433 641.7a1.747 1.747 0 0 0-.567-.087 1.779 1.779 0 0 0-.567.095M290.086 642.381l.03 4.999M287.654 642.395l.033 4.99M289.697 641.87l.33.36M288.037 641.881l-.327.364M290.086 642.381a.233.233 0 0 0-.059-.15M287.71 642.245a.224.224 0 0 0-.056.148.23.23 0 0 0 .066.159" style="fill:none;stroke:red;stroke-width:.999997;stroke-linecap:round;stroke-linejoin:round;stroke-miterlimit:2;stroke-dasharray:none;stroke-opacity:1;visibility:visible" visibility="hidden"/><path d="m373.792 662.646 1.07 5.158M373.626 667.37l-.204.155M373.42 667.526l-.149.114-.14.31.095.307.321.261.495.187.612.077.636-.038.58-.144.451-.236.129-.156M376.452 668.208l.12-.142.019-.312-.21-.29-.417-.23" style="fill:none;stroke:red;stroke-width:.666665;stroke-linecap:round;stroke-linejoin:round;stroke-miterlimit:500;stroke-dasharray:none;stroke-opacity:1;visibility:visible" visibility="hidden"/><path d="M375.515 662.036a1.77 1.77 0 0 0-.564-.096 1.71 1.71 0 0 0-.568.084M376.16 662.728l-.059 4.998M373.726 662.698l-.056 4.992M375.778 662.21l.324.366M374.116 662.193l-.332.359M376.16 662.728a.235.235 0 0 0-.059-.15M373.784 662.552a.225.225 0 0 0-.058.146.23.23 0 0 0 .064.16" style="fill:none;stroke:red;stroke-width:.999997;stroke-linecap:round;stroke-linejoin:round;stroke-miterlimit:2;stroke-dasharray:none;stroke-opacity:1;visibility:visible" visibility="hidden"/><path d="m363.412 664.112.12-.139.021-.313-.206-.294-.413-.23M360.591 663.246l-.205.155" style="fill:none;stroke:red;stroke-width:.666665;stroke-linecap:round;stroke-linejoin:round;stroke-miterlimit:500;stroke-dasharray:none;stroke-opacity:1;visibility:visible" visibility="hidden"/><path d="m360.386 663.401-.15.113-.145.31.095.306.317.266.492.19.612.084.639-.033.582-.139.452-.233.132-.155M462.479 597.437l.123-.137.033-.31-.195-.3-.408-.245M460.058 591.77l.849 5.196M459.69 596.48l-.21.147" style="fill:none;stroke:red;stroke-width:.666665;stroke-linecap:round;stroke-linejoin:round;stroke-miterlimit:500;stroke-dasharray:none;stroke-opacity:1;visibility:visible" visibility="hidden"/><path d="m459.479 596.628-.155.108-.15.305.078.31.31.276.488.205.606.105.64-.012.587-.118.457-.218.14-.152" style="fill:none;stroke:red;stroke-width:.666665;stroke-linecap:round;stroke-linejoin:round;stroke-miterlimit:500;stroke-dasharray:none;stroke-opacity:1;visibility:visible" visibility="hidden"/><path d="M461.804 591.232a1.787 1.787 0 0 0-1.13-.061M462.419 591.95l-.27 4.994M459.99 591.817l-.267 4.986M462.06 591.416l.308.38M460.402 591.328l-.35.345M462.419 591.95a.244.244 0 0 0-.05-.152M460.052 591.673a.232.232 0 0 0-.062.144.219.219 0 0 0 .056.163" style="fill:none;stroke:red;stroke-width:.999997;stroke-linecap:round;stroke-linejoin:round;stroke-miterlimit:2;stroke-dasharray:none;stroke-opacity:1;visibility:visible" visibility="hidden"/><path d="m450.059 593.833.123-.138.026-.312-.202-.296-.411-.238M447.532 588.21l.946 5.181M447.252 592.927l-.206.152" style="fill:none;stroke:red;stroke-width:.666665;stroke-linecap:round;stroke-linejoin:round;stroke-miterlimit:500;stroke-dasharray:none;stroke-opacity:1;visibility:visible" visibility="hidden"/><path d="m447.044 593.079-.152.109-.146.308.086.308.314.27.49.199.61.091.641-.023.583-.13.453-.226.136-.153" style="fill:none;stroke:red;stroke-width:.666665;stroke-linecap:round;stroke-linejoin:round;stroke-miterlimit:500;stroke-dasharray:none;stroke-opacity:1;visibility:visible" visibility="hidden"/><path d="M449.27 587.641a1.785 1.785 0 0 0-1.132-.04M449.898 588.345l-.178 4.998M447.466 588.26l-.176 4.99M449.528 587.82l.316.375M447.867 587.763l-.343.352M449.898 588.345a.24.24 0 0 0-.054-.15M447.524 588.115a.237.237 0 0 0-.06.145.236.236 0 0 0 .06.161" style="fill:none;stroke:red;stroke-width:.999997;stroke-linecap:round;stroke-linejoin:round;stroke-miterlimit:2;stroke-dasharray:none;stroke-opacity:1;visibility:visible" visibility="hidden"/><path d="m439.386 711.194-.046-.433-.18-.425-.293-.356-.365-.247-.4-.113-.382.046-.32.191-.218.31-.092.403.045.436.18.422.293.358.367.248.397.106.383-.038.324-.196.217-.31.09-.402" style="fill:none;stroke:red;stroke-width:.999997;stroke-linecap:round;stroke-linejoin:round;stroke-miterlimit:4;stroke-dasharray:none;stroke-opacity:1;visibility:visible" visibility="hidden"/><path d="m449.27 587.641 1.793 4.623M456.73 593.87l-4.164-1.181M452.566 592.689l4.164 1.181M463.622 595.825l-5.218-1.48M461.368 599.198l2.254-3.373M459.48 596.627l-13.574-4.687" style="fill:none;stroke:red;stroke-width:1.6;stroke-linecap:round;stroke-linejoin:round;stroke-miterlimit:4;stroke-dasharray:none;stroke-opacity:1;visibility:visible" visibility="hidden"/><path d="m459.48 596.627-5.77-1.719" style="fill:none;stroke:red;stroke-width:.566665;stroke-linecap:round;stroke-linejoin:round;stroke-miterlimit:4;stroke-dasharray:none;stroke-opacity:1;visibility:visible" visibility="hidden"/><path d="m451.202 737.201 4.824-3.568M554.204 773.908l-2.314 8.938M449.955 739.921l-2.12 8.784M544.561 770.794l-11.225 5.968M374.246 783.017l10.631 2.747M289.005 764.72l4.035-4.395M170.496 736.992l3.696-3.918M277.799 762.333l-.347-5.583" style="fill:none;stroke:red;stroke-width:1.6;stroke-linecap:round;stroke-linejoin:round;stroke-miterlimit:4;stroke-dasharray:none;stroke-opacity:1;visibility:visible" visibility="hidden"/><path d="m368.863 785.938 5.449-4.218" style="fill:none;stroke:red;stroke-width:.999997;stroke-linecap:round;stroke-linejoin:round;stroke-miterlimit:4;stroke-dasharray:none;stroke-opacity:1;visibility:visible" visibility="hidden"/><path d="m170.436 685.924 2.214 1.714M170.324 708.801l2.736 1.795" style="fill:none;stroke:red;stroke-width:1.6;stroke-linecap:round;stroke-linejoin:round;stroke-miterlimit:4;stroke-dasharray:none;stroke-opacity:1;visibility:visible" visibility="hidden"/><path d="m170.554 662.634 2.356 1.771" style="fill:none;stroke:red;stroke-width:.999997;stroke-linecap:round;stroke-linejoin:round;stroke-miterlimit:4;stroke-dasharray:none;stroke-opacity:1;visibility:visible" visibility="hidden"/><path d="m170.584 656.298 2.665-2.908M167.046 620.349l-8.006-1.548M162.321 621.905l-1.001-2.662M161.32 619.243l3.169.612M162.321 621.905l4.725-1.556M171.053 624.663l1.276-3.293M154.65 619.737l-1.348-1.164M291.609 646.148l-5.534-1.074M292.905 650.62l-1.296-4.472M372.108 664.69l-7.764-2.414M370.194 664.094l-3.208-.996M366.986 663.098l3.208.996M377.455 666.35l-5.347-1.66M375.123 670.44l2.332-4.09M376.466 670.38l-17.06-8.366" style="fill:none;stroke:red;stroke-width:1.6;stroke-linecap:round;stroke-linejoin:round;stroke-miterlimit:4;stroke-dasharray:none;stroke-opacity:1;visibility:visible" visibility="hidden"/><path d="m154.818 614.847 14.839 7.724M168.377 617.461l-12.279 2.495M447.532 588.21l13.375 8.756M460.058 591.77l-11.58 1.621" style="fill:none;stroke:red;stroke-width:.666665;stroke-linecap:round;stroke-linejoin:round;stroke-miterlimit:500;stroke-dasharray:none;stroke-opacity:1;visibility:visible" visibility="hidden"/><path d="m160.557 493.32.904 1.201M161.506 499.772a.99.99 0 0 0 .39.242M161.437 499.604a.217.217 0 0 0 .07.168M161.897 500.014a2.701 2.701 0 0 0 1.695-.01M161.413 494.459l.024 5.144M161.257 492.374a1.717 1.717 0 0 0-.664.413M164.162 492.362a4.637 4.637 0 0 0-1.454-.232 4.65 4.65 0 0 0-1.451.244M164.83 492.768a1.695 1.695 0 0 0-.668-.408M161.46 494.524a.387.387 0 0 0 .025.026M161.262 493.776l.004.002" style="fill:none;stroke:#00ff4a;stroke-width:.999997;stroke-linecap:round;stroke-linejoin:round;stroke-miterlimit:2;stroke-dasharray:none;stroke-opacity:1;visibility:visible"/><path d="M160.593 492.786a.416.416 0 0 0-.116.292.408.408 0 0 0 .119.292M161.262 493.776c.224.074.452.13.686.168M160.596 493.37c.189.185.414.325.666.408M161.873 494.787a2.647 2.647 0 0 0 1.693-.008M161.482 494.548a1.016 1.016 0 0 0 .39.239M463.738 469.792l-.913 1.193M459.425 469.737l.885 1.216M462.342 476.472a.973.973 0 0 0 .393-.234M460.263 476.206a.983.983 0 0 0 .387.244M460.195 476.035a.239.239 0 0 0 .068.17M462.735 476.236a.232.232 0 0 0 .07-.166M460.65 476.45a2.663 2.663 0 0 0 1.692.023M462.872 470.921l-.067 5.147M460.262 470.888l-.065 5.145M460.112 496.486a1.03 1.03 0 0 0 .439.122M460.012 496.162a.243.243 0 0 0-.028.108c0 .09.048.173.127.216M460.319 495.822a.997.997 0 0 0-.305.34M460.426 495.75a1.45 1.45 0 0 0-.106.073M462.383 495.462a1.021 1.021 0 0 0-.303-.106M462.479 495.788a.25.25 0 0 0 .028-.113.237.237 0 0 0-.124-.213M461.966 470.447a4.64 4.64 0 0 0 1.062-.205M460.124 470.204c.223.078.45.139.683.18M459.464 469.784c.183.191.412.334.66.42M462.408 471.248a.996.996 0 0 0 .392-.236M460.715 471.227a2.716 2.716 0 0 0 1.693.021M460.33 470.98a1.016 1.016 0 0 0 .385.247M460.308 470.955l.022.025M462.799 471.012a.227.227 0 0 0 .025-.025M463.028 470.242a1.733 1.733 0 0 0 .67-.403M460.124 470.204l.004.002M459.47 469.203a.413.413 0 0 0-.007.581" style="fill:none;stroke:#00ff4a;stroke-width:.999997;stroke-linecap:round;stroke-linejoin:round;stroke-miterlimit:2;stroke-dasharray:none;stroke-opacity:1;visibility:visible"/><path d="M460.14 468.802a1.697 1.697 0 0 0-.67.401M463.044 468.838a4.64 4.64 0 0 0-1.45-.254 4.544 4.544 0 0 0-1.454.219M463.706 469.258a1.698 1.698 0 0 0-.662-.42M463.696 469.839a.41.41 0 0 0 .01-.581M460.168 491.85a1.036 1.036 0 0 0 .443.12M460.074 491.527a.196.196 0 0 0-.028.11.24.24 0 0 0 .122.215M460.378 491.186a1.003 1.003 0 0 0-.306.34M460.483 491.119a2.339 2.339 0 0 0-.105.068M462.442 490.826a.95.95 0 0 0-.302-.104M462.538 491.152a.239.239 0 0 0-.096-.325M462.206 493.81a1.004 1.004 0 0 0 .302-.342M460.579 494.288l.06.002a2.688 2.688 0 0 0 1.567-.48M460.14 494.168a.964.964 0 0 0 .44.119M460.044 493.843a.22.22 0 0 0-.028.11.233.233 0 0 0 .124.216M460.35 493.504a.967.967 0 0 0-.306.339M460.455 493.434l-.105.07M462.412 493.146a1.033 1.033 0 0 0-.301-.108M462.508 493.468a.239.239 0 0 0-.094-.322M462.175 496.127a1.03 1.03 0 0 0 .305-.339M460.55 496.608h.059a2.685 2.685 0 0 0 1.566-.481M460.199 489.536a1.053 1.053 0 0 0 .443.119M460.103 489.21a.248.248 0 0 0 .095.326M460.408 488.868a.997.997 0 0 0-.305.34M460.514 488.799c-.036.024-.074.047-.106.07M462.474 488.508a.94.94 0 0 0-.304-.105M462.568 488.835a.224.224 0 0 0 .028-.113.24.24 0 0 0-.122-.212M462.235 491.492a1.008 1.008 0 0 0 .304-.341" style="fill:none;stroke:#00ff4a;stroke-width:.999997;stroke-linecap:round;stroke-linejoin:round;stroke-miterlimit:2;stroke-dasharray:none;stroke-opacity:1;visibility:visible"/><path d="M460.61 491.97a2.683 2.683 0 0 0 1.626-.477M462.383 479.904a1 1 0 0 0 .303-.34M460.759 480.386h.059a2.683 2.683 0 0 0 1.566-.48M460.319 480.264a1.01 1.01 0 0 0 .44.122M460.222 479.938a.225.225 0 0 0-.028.112.235.235 0 0 0 .124.213M460.527 479.599a.979.979 0 0 0-.305.339M460.63 479.53c-.034.022-.071.045-.103.069M462.59 479.239a.99.99 0 0 0-.302-.105M462.686 479.564a.243.243 0 0 0-.096-.324M462.352 482.222a.984.984 0 0 0 .306-.34M460.728 482.702h.058a2.65 2.65 0 0 0 1.566-.479M460.29 482.582a.973.973 0 0 0 .438.12M460.19 482.258a.227.227 0 0 0-.025.11.24.24 0 0 0 .125.214M460.496 481.916a1.023 1.023 0 0 0-.305.34M460.599 481.847c-.035.023-.07.045-.103.07M462.559 481.556a1.033 1.033 0 0 0-.303-.105M462.658 481.882a.232.232 0 0 0 .026-.112.237.237 0 0 0-.124-.214M462.322 484.54a.99.99 0 0 0 .305-.338M460.699 485.019h.057a2.678 2.678 0 0 0 1.566-.479M460.259 484.899a.992.992 0 0 0 .44.12M460.163 484.575a.223.223 0 0 0-.03.11.25.25 0 0 0 .125.215M460.466 484.234a.996.996 0 0 0-.304.34M460.57 484.164c-.031.023-.07.046-.102.07M462.532 483.874a1.09 1.09 0 0 0-.305-.106M462.626 484.202a.21.21 0 0 0 .029-.112.24.24 0 0 0-.125-.215M462.292 486.858a1.003 1.003 0 0 0 .304-.34M460.67 487.338h.057a2.684 2.684 0 0 0 1.567-.48M460.228 487.215a1.008 1.008 0 0 0 .442.121M460.132 486.89a.243.243 0 0 0 .096.327M460.436 486.55a1.052 1.052 0 0 0-.305.34M460.543 486.482a1.63 1.63 0 0 0-.107.068M462.502 486.19a1.01 1.01 0 0 0-.303-.105M462.596 486.516a.197.197 0 0 0 .03-.113.24.24 0 0 0-.124-.213M462.262 489.174a.953.953 0 0 0 .305-.34M460.64 489.655h.056a2.66 2.66 0 0 0 1.566-.481" style="fill:none;stroke:#00ff4a;stroke-width:.999997;stroke-linecap:round;stroke-linejoin:round;stroke-miterlimit:2;stroke-dasharray:none;stroke-opacity:1;visibility:visible"/><path d="m500.788 633.188 74.503-61.912" style="fill:none;stroke:#00ff4a;stroke-width:1.6;stroke-linecap:round;stroke-linejoin:round;stroke-miterlimit:4;stroke-dasharray:none;stroke-opacity:1;visibility:visible"/><path d="m493.107 630.663 82.073-67.639M575.745 563.023l-.455 8.252" style="fill:none;stroke:#00ff4a;stroke-width:.999997;stroke-linecap:round;stroke-linejoin:round;stroke-miterlimit:4;stroke-dasharray:none;stroke-opacity:1;visibility:visible"/><path d="m564.152 560.181-82.083 66.85" style="fill:none;stroke:#00ff4a;stroke-width:1.6;stroke-linecap:round;stroke-linejoin:round;stroke-miterlimit:4;stroke-dasharray:none;stroke-opacity:1;visibility:visible"/><path d="m446.73 526.313 179.78 47.603M624.608 586.576l1.252-11.184M626.51 573.916l-.649 1.476" style="fill:none;stroke:#00ff4a;stroke-width:.999997;stroke-linecap:round;stroke-linejoin:round;stroke-miterlimit:4;stroke-dasharray:none;stroke-opacity:1;visibility:visible"/><path d="m446.072 527.708.658-1.393" style="fill:none;stroke:#00ff4a;stroke-width:1.6;stroke-linecap:round;stroke-linejoin:round;stroke-miterlimit:4;stroke-dasharray:none;stroke-opacity:1;visibility:visible"/><path d="m626.51 573.916 5.231-3.488" style="fill:none;stroke:#00ff4a;stroke-width:.999997;stroke-linecap:round;stroke-linejoin:round;stroke-miterlimit:4;stroke-dasharray:none;stroke-opacity:1;visibility:visible"/><path d="m631.742 570.428-169.958-44.776M457.354 524.486l-4.811-1.27M446.73 526.313l5.812-3.097M626.218 586.513l5.224-3.54M631.442 582.975l1.26-11.14M446.072 527.708l-.137 1.87M631.742 570.428l.96 1.405" style="fill:none;stroke:#00ff4a;stroke-width:1.6;stroke-linecap:round;stroke-linejoin:round;stroke-miterlimit:4;stroke-dasharray:none;stroke-opacity:1;visibility:visible"/><path d="m461.924 528.008-.421.167-.541.117-.638.058-.681-.003-.69-.063-.648-.12-.575-.17-.463-.208-.317-.231-.152-.246.012-.242.194-.219.347-.184.484-.144" style="fill:none;stroke:#00ff4a;stroke-width:.566665;stroke-linecap:round;stroke-linejoin:round;stroke-miterlimit:4;stroke-dasharray:none;stroke-opacity:1;visibility:visible"/><path d="m461.066 526.668.528.192.389.22.245.243.064.244-.1.236-.268.205" style="fill:none;stroke:#00ff4a;stroke-width:.566665;stroke-linecap:round;stroke-linejoin:round;stroke-miterlimit:4;stroke-dasharray:none;stroke-opacity:1;visibility:visible"/><path d="m626.218 586.513-1.208.827" style="fill:none;stroke:#00ff4a;stroke-width:1.6;stroke-linecap:round;stroke-linejoin:round;stroke-miterlimit:4;stroke-dasharray:none;stroke-opacity:1;visibility:visible"/><path d="m624.608 586.576.401.763" style="fill:none;stroke:#00ff4a;stroke-width:.566665;stroke-linecap:round;stroke-linejoin:round;stroke-miterlimit:4;stroke-dasharray:none;stroke-opacity:1;visibility:visible"/><path d="m625.01 587.34-52.19-14.019" style="fill:none;stroke:#00ff4a;stroke-width:1.6;stroke-linecap:round;stroke-linejoin:round;stroke-miterlimit:4;stroke-dasharray:none;stroke-opacity:1;visibility:visible"/><path d="m554.092 568.296-91.172-24.483" style="fill:none;stroke:#00ff4a;stroke-width:.999997;stroke-linecap:round;stroke-linejoin:round;stroke-miterlimit:4;stroke-dasharray:none;stroke-opacity:1;visibility:visible"/><path d="m461.286 528.23-.096-.124-.271-.179M458.447 527.645l-.397.106-.282.145-.07.072" style="fill:none;stroke:#00ff4a;stroke-width:.566665;stroke-linecap:round;stroke-linejoin:round;stroke-miterlimit:4;stroke-dasharray:none;stroke-opacity:1;visibility:visible"/><path d="m394.966 598.403 70.342-56.507" style="fill:none;stroke:#00ff4a;stroke-width:1.6;stroke-linecap:round;stroke-linejoin:round;stroke-miterlimit:4;stroke-dasharray:none;stroke-opacity:1;visibility:visible"/><path d="m465.087 533.859.733 1.084M387.239 595.859l77.848-62M465.307 541.896l.513-6.955" style="fill:none;stroke:#00ff4a;stroke-width:.999997;stroke-linecap:round;stroke-linejoin:round;stroke-miterlimit:4;stroke-dasharray:none;stroke-opacity:1;visibility:visible"/><path d="m446.794 528.925-72.512 56.608M370.31 588.632l-2.172 1.695" style="fill:none;stroke:#00ff4a;stroke-width:1.6;stroke-linecap:round;stroke-linejoin:round;stroke-miterlimit:4;stroke-dasharray:none;stroke-opacity:1;visibility:visible"/><path d="m446.794 528.925 18.294 4.935" style="fill:none;stroke:#00ff4a;stroke-width:.999997;stroke-linecap:round;stroke-linejoin:round;stroke-miterlimit:4;stroke-dasharray:none;stroke-opacity:1;visibility:visible"/><path d="m445.935 529.577.859-.652" style="fill:none;stroke:#00ff4a;stroke-width:.566665;stroke-linecap:round;stroke-linejoin:round;stroke-miterlimit:4;stroke-dasharray:none;stroke-opacity:1;visibility:visible"/><path d="M355.958 596.547 148.037 552.68" style="fill:none;stroke:#00ff4a;stroke-width:.999997;stroke-linecap:round;stroke-linejoin:round;stroke-miterlimit:4;stroke-dasharray:none;stroke-opacity:1;visibility:visible"/><path d="m355.382 608.37.576-11.822M355.5 595.112l.458 1.435" style="fill:none;stroke:#00ff4a;stroke-width:.566665;stroke-linecap:round;stroke-linejoin:round;stroke-miterlimit:4;stroke-dasharray:none;stroke-opacity:1;visibility:visible"/><path d="m346.01 585.181-180.92-35.497M161.31 548.943l-7.13-1.399M154.18 547.544l-5.697 3.944" style="fill:none;stroke:#00ff4a;stroke-width:1.6;stroke-linecap:round;stroke-linejoin:round;stroke-miterlimit:4;stroke-dasharray:none;stroke-opacity:1;visibility:visible"/><path d="m164.698 551.177.476.184.342.214.169.244-.005.25-.176.241-.347.21-.49.165-.593.12-.669.056-.681-.008-.667-.073-.59-.13-.477-.182-.34-.22-.168-.241.003-.247.184-.243.347-.206.49-.174.595-.117M164.352 551.099l.346.078M355.5 595.112l-9.49-9.93" style="fill:none;stroke:#00ff4a;stroke-width:.566665;stroke-linecap:round;stroke-linejoin:round;stroke-miterlimit:4;stroke-dasharray:none;stroke-opacity:1;visibility:visible"/><path d="m148.484 564.721-.442-.568M354.844 608.75l-206.36-44.03" style="fill:none;stroke:#00ff4a;stroke-width:1.6;stroke-linecap:round;stroke-linejoin:round;stroke-miterlimit:4;stroke-dasharray:none;stroke-opacity:1;visibility:visible"/><path d="m148.036 552.679-.376-.494M164.697 552.657l-.223-.176-.37-.156M162.057 552.308l-.377.145-.22.178v.005M355.382 608.37l-.538.38" style="fill:none;stroke:#00ff4a;stroke-width:.566665;stroke-linecap:round;stroke-linejoin:round;stroke-miterlimit:4;stroke-dasharray:none;stroke-opacity:1;visibility:visible"/><path d="m147.668 563.653.374.502M147.668 563.653l-.008-11.468M148.481 551.488l-.82.697" style="fill:none;stroke:#00ff4a;stroke-width:1.6;stroke-linecap:round;stroke-linejoin:round;stroke-miterlimit:4;stroke-dasharray:none;stroke-opacity:1;visibility:visible"/><path d="m535.175 650.947 6.384-4.357M534.62 652.239l-178.662-55.694M533.481 664.572l1.139-12.333M535.175 650.947l-.555 1.293" style="fill:none;stroke:#00ff4a;stroke-width:.999997;stroke-linecap:round;stroke-linejoin:round;stroke-miterlimit:4;stroke-dasharray:none;stroke-opacity:1;visibility:visible"/><path d="m542.32 647.856-.761-1.266" style="fill:none;stroke:#00ff4a;stroke-width:1.6;stroke-linecap:round;stroke-linejoin:round;stroke-miterlimit:4;stroke-dasharray:none;stroke-opacity:1;visibility:visible"/><path d="m355.382 608.37.576-11.822" style="fill:none;stroke:#00ff4a;stroke-width:.566665;stroke-linecap:round;stroke-linejoin:round;stroke-miterlimit:4;stroke-dasharray:none;stroke-opacity:1;visibility:visible"/><path d="m541.559 646.59-154.395-50.754M387.164 595.835l-13.578-3.931M370.548 591.024l-10.99-3.181M359.558 587.843l-13.548-2.663M541.167 660.13l1.153-12.274M534.848 664.508l6.319-4.376" style="fill:none;stroke:#00ff4a;stroke-width:1.6;stroke-linecap:round;stroke-linejoin:round;stroke-miterlimit:4;stroke-dasharray:none;stroke-opacity:1;visibility:visible"/><path d="m373.551 593.57.536.194.41.244.236.257.062.279-.124.264-.296.232-.46.185-.58.131-.66.061-.71-.007-.697-.079-.642-.146-.538-.2-.408-.242-.234-.263-.064-.273.13-.262.296-.235.46-.183.582-.131M355.368 594.97l-9.36-9.79" style="fill:none;stroke:#00ff4a;stroke-width:.566665;stroke-linecap:round;stroke-linejoin:round;stroke-miterlimit:4;stroke-dasharray:none;stroke-opacity:1;visibility:visible"/><path d="m533.861 665.168.986-.66" style="fill:none;stroke:#00ff4a;stroke-width:1.6;stroke-linecap:round;stroke-linejoin:round;stroke-miterlimit:4;stroke-dasharray:none;stroke-opacity:1;visibility:visible"/><path d="m533.481 664.572.38.594" style="fill:none;stroke:#00ff4a;stroke-width:.566665;stroke-linecap:round;stroke-linejoin:round;stroke-miterlimit:4;stroke-dasharray:none;stroke-opacity:1;visibility:visible"/><path d="m533.861 665.168-178.92-56.483" style="fill:none;stroke:#00ff4a;stroke-width:1.6;stroke-linecap:round;stroke-linejoin:round;stroke-miterlimit:4;stroke-dasharray:none;stroke-opacity:1;visibility:visible"/><path d="m541.963 647.207-.404-.617" style="fill:none;stroke:#00ff4a;stroke-width:.566665;stroke-linecap:round;stroke-linejoin:round;stroke-miterlimit:4;stroke-dasharray:none;stroke-opacity:1;visibility:visible"/><path d="m542.32 647.856-.359-.65" style="fill:none;stroke:#00ff4a;stroke-width:1.6;stroke-linecap:round;stroke-linejoin:round;stroke-miterlimit:4;stroke-dasharray:none;stroke-opacity:1;visibility:visible"/><path d="M373.75 595.265a1.143 1.143 0 0 0-.78-.5M371.154 594.687l-.29.058-.349.16-.167.178" style="fill:none;stroke:#00ff4a;stroke-width:.566665;stroke-linecap:round;stroke-linejoin:round;stroke-miterlimit:4;stroke-dasharray:none;stroke-opacity:1;visibility:visible"/><path d="m161.257 492.374 2.335 7.63M161.257 492.374l2.309 2.405" style="fill:none;stroke:#00ff4a;stroke-width:.999997;stroke-linecap:round;stroke-linejoin:round;stroke-miterlimit:2;stroke-dasharray:none;stroke-opacity:1;visibility:visible"/><path d="m457.354 524.486 4.43 1.166M461.784 525.652l-4.43-1.166" style="fill:none;stroke:#00ff4a;stroke-width:1.6;stroke-linecap:round;stroke-linejoin:round;stroke-miterlimit:4;stroke-dasharray:none;stroke-opacity:1;visibility:visible"/><path d="m465.088 533.86-4.022-7.192" style="fill:none;stroke:#00ff4a;stroke-width:.566665;stroke-linecap:round;stroke-linejoin:round;stroke-miterlimit:4;stroke-dasharray:none;stroke-opacity:1;visibility:visible"/><path d="m554.092 568.296 18.728 5.025" style="fill:none;stroke:#00ff4a;stroke-width:1.6;stroke-linecap:round;stroke-linejoin:round;stroke-miterlimit:4;stroke-dasharray:none;stroke-opacity:1;visibility:visible"/><path d="m572.82 573.321-18.728-5.025M465.088 533.86l-2.168 9.953" style="fill:none;stroke:#00ff4a;stroke-width:.999997;stroke-linecap:round;stroke-linejoin:round;stroke-miterlimit:4;stroke-dasharray:none;stroke-opacity:1;visibility:visible"/><path d="m370.31 588.632 3.972-3.099M374.282 585.533l-3.972 3.099M164.698 551.177l.392-1.493M164.352 551.099l-3.042-2.156" style="fill:none;stroke:#00ff4a;stroke-width:1.6;stroke-linecap:round;stroke-linejoin:round;stroke-miterlimit:4;stroke-dasharray:none;stroke-opacity:1;visibility:visible"/><path d="m147.66 552.185 13.8.451" style="fill:none;stroke:#00ff4a;stroke-width:.566665;stroke-linecap:round;stroke-linejoin:round;stroke-miterlimit:4;stroke-dasharray:none;stroke-opacity:1;visibility:visible"/><path d="m370.548 591.024 3.038.88M373.586 591.904l-3.038-.88" style="fill:none;stroke:#00ff4a;stroke-width:1.6;stroke-linecap:round;stroke-linejoin:round;stroke-miterlimit:4;stroke-dasharray:none;stroke-opacity:1;visibility:visible"/><path d="m370.548 591.024 3.003 2.546M359.558 587.843l13.412 6.922" style="fill:none;stroke:#00ff4a;stroke-width:.566665;stroke-linecap:round;stroke-linejoin:round;stroke-miterlimit:4;stroke-dasharray:none;stroke-opacity:1;visibility:visible"/><path d="m169.657 622.571-6.027-1.535" style="fill:none;stroke:red;stroke-width:.566665;stroke-linecap:round;stroke-linejoin:round;stroke-miterlimit:4;stroke-dasharray:none;stroke-opacity:1;visibility:visible" visibility="hidden"/><path d="m291.609 646.148-2.729 1.332M376.466 670.38l-13.532-7.244" style="fill:none;stroke:red;stroke-width:.666665;stroke-linecap:round;stroke-linejoin:round;stroke-miterlimit:500;stroke-dasharray:none;stroke-opacity:1;visibility:visible" visibility="hidden"/><path d="m374.282 585.533-6.144 4.794" style="fill:none;stroke:#00ff4a;stroke-width:1.6;stroke-linecap:round;stroke-linejoin:round;stroke-miterlimit:4;stroke-dasharray:none;stroke-opacity:1;visibility:visible"/><path d="m161.31 548.943 3.387 3.714" style="fill:none;stroke:#00ff4a;stroke-width:.566665;stroke-linecap:round;stroke-linejoin:round;stroke-miterlimit:4;stroke-dasharray:none;stroke-opacity:1;visibility:visible"/></svg>