<svg xmlns="http://www.w3.org/2000/svg" baseProfile="full" height="793.701" preserveAspectRatio="xMinYMin meet" style="width:792px;height:931px" width="559.371" xml:space="preserve"><path d="m70.477 120.196-.49.248-.463.375-.218.334-.08.376.02.099M80.035 120.893l-.047-.299-.204-.321-.305-.256-.467-.239-.67-.204-.298-.053M80.187 122.761l-.132-1.876M69.227 121.605l.139 1.884M284.462 146.03l-.524-.039-1.001-.01-.955.053-.885.119-.788.188-.676.262-.552.37-.3.368-.148.417M290.01 148.756l.02-.24-.135-.435-.265-.376-.433-.368-.634-.361-.776-.315-.878-.257-.951-.197-1.001-.14-.494-.038M289.867 150.69l.167-1.947M278.621 147.837l-.156 1.947M272.128 361.227l17.732-210.42M276.112 178.77l-14.735 181.505M278.456 149.898l-2.344 28.872M94.68 327.924 80.196 122.873M69.372 123.597l15.02 205.115M243.695 380.949l1.205.232 2.127.276 2.123.108 2.102-.064 2.068-.23 2.02-.405 1.96-.564 1.883-.732 1.793-.882 1.695-1.036 1.581-1.178 1.462-1.31 1.33-1.435 1.19-1.55 1.048-1.653.894-1.75.738-1.836.577-1.906.41-1.966.226-1.84M261.378 360.276l-.07.659-.265 1.382-.412 1.316-.56 1.242-.713 1.161-.855 1.065-.997.954-1.123.828-1.234.685-1.322.54-1.4.392-1.464.241-1.51.091-1.547-.063-1.565-.213-.475-.092M240.67 380.302l3.027.647M195.432 370.609l28.47 6.099M245.862 370.46l-48.235-10.203M197.628 360.257l-1.675-.21-1.426.022-1.194.128-1.356.232-.852.17-.57.113-.612.084-.659-.008-.443-.064-.426-.067-.704-.101-1.075-.16-1.448-.254-1.85-.377-2.251-.503-2.636-.584" style="fill:none;stroke:red;stroke-width:1.99999;stroke-linecap:round;stroke-linejoin:round;stroke-miterlimit:500;stroke-dasharray:none;stroke-opacity:1;visibility:visible" visibility="hidden"/><path d="m181.315 367.552.907.055.729.013.476-.017.192-.023.028-.01.024-.005.01-.008.006-.012-.003-.004" style="fill:none;stroke:red;stroke-width:.999997;stroke-linecap:round;stroke-linejoin:round;stroke-miterlimit:500;stroke-dasharray:none;stroke-opacity:1;visibility:visible" visibility="hidden"/><path d="m173.62 365.966 2.539.604 2.128.508 1.721.319 1.307.154M167.266 364.958c-3.701-.62-7.405-1.218-11.112-1.803M195.453 370.614c-4.813-1.064-9.63-2.099-14.457-3.1" style="fill:none;stroke:red;stroke-width:1.99999;stroke-linecap:round;stroke-linejoin:round;stroke-miterlimit:500;stroke-dasharray:none;stroke-opacity:1;visibility:visible" visibility="hidden"/><path d="m167.266 364.958.828.207 2.592.404 3.065.42" style="fill:none;stroke:red;stroke-width:1.99999;stroke-linecap:round;stroke-linejoin:round;stroke-miterlimit:500;stroke-dasharray:none;stroke-opacity:1;visibility:visible" visibility="hidden"/><path d="m162.552 363.108-.003.004.007.016.015.027.046.069.428.28 1.166.505 1.785.634 1.27.316" style="fill:none;stroke:red;stroke-width:.999997;stroke-linecap:round;stroke-linejoin:round;stroke-miterlimit:500;stroke-dasharray:none;stroke-opacity:1;visibility:visible" visibility="hidden"/><path d="m175.4 358.216-2.633-.417-2.226-.422-1.81-.409-1.503-.37-1.263-.342-.802-.26-.915-.35-.735-.329M178.45 358.68l-1.321-.2M151.937 351.875l-9.628-1.545M130.973 348.511l-20.423-3.277M127.546 358.487l3.897.639M143.143 361.035l.277.044M108.862 355.44l2.776.452M77.933 119.516a14.299 14.299 0 0 0-7.228.613M94.68 327.925a19.644 19.644 0 0 0 15.87 17.31M84.392 328.714a30.004 30.004 0 0 0 24.47 26.727" style="fill:none;stroke:red;stroke-width:1.99999;stroke-linecap:round;stroke-linejoin:round;stroke-miterlimit:500;stroke-dasharray:none;stroke-opacity:1;visibility:visible" visibility="hidden"/><path d="m289.566 151.33-.46.304-.65.252-.815.197-.954.13-1.046.056-1.11-.019-1.121-.092-1.093-.16-1.02-.225-.912-.28-.763-.323-.588-.356-.39-.373-.18-.375-.009-.168" style="fill:none;stroke:red;stroke-width:.999997;stroke-linecap:round;stroke-linejoin:round;stroke-miterlimit:500;stroke-dasharray:none;stroke-opacity:1;visibility:visible" visibility="hidden"/><path d="m289.86 150.805-.043.181-.25.344" style="fill:none;stroke:red;stroke-width:1.99999;stroke-linecap:round;stroke-linejoin:round;stroke-miterlimit:500;stroke-dasharray:none;stroke-opacity:1;visibility:visible" visibility="hidden"/><path d="m69.372 123.597.043.155.237.268.435.24.616.198.774.152.903.1.995.043 1.049-.019 1.064-.073 1.037-.13.97-.182.864-.223.725-.257.559-.283.372-.294.17-.298.011-.121M234.396 368.7l.088-.187-.063-.168-.216-.142-.342-.124-.428-.1-.45-.063-.442-.021-.395.048-.293.126-.151.199-.001.244.144.256.286.237.396.155.448.055.452-.043.428-.125.348-.18.191-.167" style="fill:none;stroke:red;stroke-width:.999997;stroke-linecap:round;stroke-linejoin:round;stroke-miterlimit:500;stroke-dasharray:none;stroke-opacity:1;visibility:visible" visibility="hidden"/><path d="m223.906 376.703.045.013.384.008.535-.042.557-.059.63-.056.705-.044.753-.023.974.01 1.013.072 1.063.138 1.089.207.857.208.864.255.99.337.992.385 1.001.427.999.453.888.404.874.383.636.247.623.204.293.061" style="fill:none;stroke:red;stroke-width:1.99999;stroke-linecap:round;stroke-linejoin:round;stroke-miterlimit:500;stroke-dasharray:none;stroke-opacity:1;visibility:visible" visibility="hidden"/><path d="m177.123 362.308.348-.37 1.133-1.222M178.604 360.716l-.839-.213-.78-.18M175.338 361.875l.45.099 1.335.334M175.617 360.125l-.577-.076M175.04 360.049l-.348.377-1.14 1.214M173.553 361.64l.839.096.946.139" style="fill:none;stroke:red;stroke-width:.999997;stroke-linecap:round;stroke-linejoin:round;stroke-miterlimit:500;stroke-dasharray:none;stroke-opacity:1;visibility:visible" visibility="hidden"/><path d="m127.55 358.468-.22-.021-.81-.218-.871-.305-1.571-.623-1.648-.648-2.036-.669-2.073-.452-1.588-.165-1.736.01-1.582.184-1.13.23-.554.1-.093-.007" style="fill:none;stroke:red;stroke-width:1.99999;stroke-linecap:round;stroke-linejoin:round;stroke-miterlimit:500;stroke-dasharray:none;stroke-opacity:1;visibility:visible" visibility="hidden"/><path d="m119.482 347.263.25-.148.36-.084.431-.02.463.028.425.06.339.083.23.104.098.133-.055.167-.198.182-.311.182-.399.149-.456.09-.448-.005-.38-.098-.282-.178-.163-.228-.015-.24.111-.177M79.159 121.78l-.67.264-.82.236-.937.196-1.017.147-1.061.096-1.06.037-1.02-.021-.94-.08-.822-.132-.674-.184-.502-.224-.308-.258-.098-.241" style="fill:none;stroke:red;stroke-width:.999997;stroke-linecap:round;stroke-linejoin:round;stroke-miterlimit:500;stroke-dasharray:none;stroke-opacity:1;visibility:visible" visibility="hidden"/><path d="M80.056 120.885v.017l-.099.292-.304.298-.494.288" style="fill:none;stroke:red;stroke-width:1.99999;stroke-linecap:round;stroke-linejoin:round;stroke-miterlimit:500;stroke-dasharray:none;stroke-opacity:1;visibility:visible" visibility="hidden"/><path d="m289.738 149.266-.459.304-.649.253-.817.195-.951.13-1.05.054-1.109-.019-1.121-.09-1.095-.163-1.021-.221-.91-.28-.765-.324-.589-.355-.392-.37-.177-.375-.012-.168" style="fill:none;stroke:red;stroke-width:.999997;stroke-linecap:round;stroke-linejoin:round;stroke-miterlimit:500;stroke-dasharray:none;stroke-opacity:1;visibility:visible" visibility="hidden"/><path d="m290.031 148.75-.04.176-.253.34" style="fill:none;stroke:red;stroke-width:1.99999;stroke-linecap:round;stroke-linejoin:round;stroke-miterlimit:500;stroke-dasharray:none;stroke-opacity:1;visibility:visible" visibility="hidden"/><path d="m272.128 361.227-.045.244-.248.455M308.143 267.785a93.93 93.93 0 0 1 11.279-25.733" style="fill:none;stroke:red;stroke-width:.999997;stroke-linecap:round;stroke-linejoin:round;stroke-miterlimit:500;stroke-dasharray:none;stroke-opacity:1;visibility:visible" visibility="hidden"/><path d="M304.422 289.925c.448.083.673.137.673.137" style="fill:none;stroke:red;stroke-width:.999997;stroke-linecap:round;stroke-linejoin:round;stroke-miterlimit:4;stroke-dasharray:none;stroke-opacity:1;visibility:visible" visibility="hidden"/><path d="m151.937 351.875 4.217 11.28M177.129 358.48l-1.729-.264M175.4 358.216l1.729.264M156.154 363.155l-4.217-11.28M143.42 361.079l-1.111-10.75M127.546 358.487l3.427-9.976M143.143 361.035l-11.7-1.91M131.443 359.126l11.7 1.909M142.309 350.33l1.111 10.749" style="fill:none;stroke:red;stroke-width:1.99999;stroke-linecap:round;stroke-linejoin:round;stroke-miterlimit:500;stroke-dasharray:none;stroke-opacity:1;visibility:visible" visibility="hidden"/><path d="m177.123 362.308-.138-1.985" style="fill:none;stroke:red;stroke-width:.999997;stroke-linecap:round;stroke-linejoin:round;stroke-miterlimit:500;stroke-dasharray:none;stroke-opacity:1;visibility:visible" visibility="hidden"/><path d="M213.423 74.26a.995.995 0 0 0-.786.916M223.096 75.451l-.019-.25-.158-.283-.24-.224-.388-.222-.468-.172M223.057 77.339l.063-1.859M212.62 75.167l-.055 1.857M129.607 132.872l-.365.01-1.058.09-1.008.163-.929.229-.824.29-.703.36-.562.45-.31.437-.14.466.022.241M135.687 135.238l.01-.17-.153-.474-.301-.401-.459-.363-.656-.332-.825-.272-.93-.196-1.005-.121-1.057-.05-.705.014M135.77 137.226l-.063-2.035M123.7 135.555l.07 2.035M142.473 355.653l-6.699-218.307M123.772 137.708l7.461 218.347M143.982 363.136l.001.001-.057-.078-.139-.234-.189-.404-.219-.584-.228-.765-.213-.944-.19-1.115-.149-1.28-.1-1.424-.026-.656M131.233 356.055l.05 1.084.163 2.033.262 1.96.368 1.891.484 1.817.622 1.734.686 1.461.768 1.281.837 1.102.91.936.977.781 1.041.632 1.224.521 1.25.32 1.253.128 1.238-.054 1.211-.22 1.177-.379 1.152-.537 1.131-.696 1.124-.872 1.124-1.067.365-.388M163.586 339.286l-20.368 22.01M158.284 361.093l13.199-14.579M150.647 369.523l2.35-2.593M158.28 361.091a50.257 50.257 0 0 0-5.162 5.7M171.46 346.541l1.533-1.939 1.288-1.678 1.099-1.274.927-1.002.732-.784.349-.372.412-.434.545-.582.666-.711 1.01-1.096 1.119-1.232 1.201-1.336M169.984 330.347l-1.11 1.123-1.046 1.056-.83 1.012-.6.969-.433.864-.842 2.053-.168.432" style="fill:none;stroke:#00ff4a;stroke-width:1.99999;stroke-linecap:round;stroke-linejoin:round;stroke-miterlimit:500;stroke-dasharray:none;stroke-opacity:1;visibility:visible"/><path d="M165.304 337.526c.756-.79 1.508-1.588 2.249-2.395" style="fill:none;stroke:#00ff4a;stroke-width:.999997;stroke-linecap:round;stroke-linejoin:round;stroke-miterlimit:500;stroke-dasharray:none;stroke-opacity:1;visibility:visible"/><path d="M163.6 339.274c.573-.579 1.14-1.16 1.705-1.748M220.55 153.485l2.507-76.037M216.344 281.182l4.205-127.697M210.042 159.221l-3.733 121.633M212.561 77.131l-2.52 82.09M180.973 321.548l-1.361 1.347-1.08 1.088-.93.908-.445.408M175.443 326.274l-.45.157-.707.284-.506.247-.468.268-.574.405-.75.662-.91.936-1.031 1.053M185.98 330.523a5.552 5.552 0 0 0 2.234-1.462M182.302 334.143a71.112 71.112 0 0 0 3.943-3.952M204.96 312.635l.443-.433M188.195 329.078l11.908-11.676M199.779 303.53l-18.804 18.017M200.234 317.265l.352-.36.579-.632.676-.764.598-.687.53-.57.47-.454.495-.417.377-.281.312-.207.135-.092.156-.12.047-.05M206.309 280.855l-.032.837-.104 1.626-.163 1.666-.213 1.695-.268 1.704-.317 1.69-.368 1.663-.406 1.618-.445 1.552-.479 1.473-.497 1.373-.516 1.262-.521 1.132-.511.989-.49.833-.45.672-.39.503-.282.315-.077.073M212.398 301.38l.636-1.768.583-1.825.529-1.875.48-1.917.42-1.947.37-1.97.313-1.977.25-1.98.192-1.965.131-1.947.041-1.026M221.71 74.276a15.18 15.18 0 0 0-8.13-.05" style="fill:none;stroke:#00ff4a;stroke-width:1.99999;stroke-linecap:round;stroke-linejoin:round;stroke-miterlimit:500;stroke-dasharray:none;stroke-opacity:1;visibility:visible"/><path d="m127.306 139.51-1.024-.181-.887-.248-.72-.31-.518-.356-.306-.392-.078-.316" style="fill:none;stroke:#00ff4a;stroke-width:.999997;stroke-linecap:round;stroke-linejoin:round;stroke-miterlimit:500;stroke-dasharray:none;stroke-opacity:1;visibility:visible"/><path d="M135.773 137.345v.077l-.148.415-.37.401-.582.375-.772.332-.933.28-1.056.21-1.139.14-1.177.062-1.172-.025-1.119-.102M151.165 355.822l.461.065.471.02.443-.041.357-.119.22-.193.07-.245-.087-.266-.239-.246-.37-.178-.44-.073-.466.03-.455.12-.398.191-.287.211-.133.197.017.172.172.15.315.124.349.081M174.493 328.682l-.033.039-.103.182.048.183.232.148.417.13.534.105.57.077.576.035.534-.036.417-.144.148-.12M212.561 77.131l.001.035.123.228.323.225.505.212.675.19.812.165.922.129.992.087 1.028.046h1.027l.976-.044.899-.086.778-.127.631-.16.457-.19.27-.211.076-.183M175.272 328.238l-.295.121-.388.242-.096.081M177.834 329.28l.03-.032.106-.265-.079-.312-.264-.312-.441-.244M199.385 306.356l.377.112.282.183.156.22.01.218-.134.174-.262.101-.358.044-.435-.015-.453-.05-.408-.072-.323-.087-.217-.101-.076-.126.076-.15.21-.162.32-.149.407-.117.457-.051.371.028M221.659 76.225l-.784.124-.899.084-.981.043-1.025-.002-1.03-.048-.992-.09-.92-.13-.809-.164-.667-.189-.5-.212-.312-.224-.117-.228-.003-.021" style="fill:none;stroke:#00ff4a;stroke-width:.999997;stroke-linecap:round;stroke-linejoin:round;stroke-miterlimit:500;stroke-dasharray:none;stroke-opacity:1;visibility:visible"/><path d="m223.12 75.469-.08.199-.277.209-.466.187-.638.161" style="fill:none;stroke:#00ff4a;stroke-width:1.99999;stroke-linecap:round;stroke-linejoin:round;stroke-miterlimit:500;stroke-dasharray:none;stroke-opacity:1;visibility:visible"/><path d="m134.326 136.59-.839.312-.988.253-1.092.184-1.161.108-1.183.03-1.154-.056-1.088-.132-.976-.208-.824-.274-.646-.328-.437-.369-.217-.401-.019-.123" style="fill:none;stroke:#00ff4a;stroke-width:.999997;stroke-linecap:round;stroke-linejoin:round;stroke-miterlimit:500;stroke-dasharray:none;stroke-opacity:1;visibility:visible"/><path d="M134.326 136.592a1.83 1.83 0 0 0 1.384-1.372M158.267 361.078l-.021.037-.371.262-.705.581-.899.925-.813.976-.964 1.243-1.144 1.427-.243.248M200.224 317.25l.568-.577.935-1.092.964-1.15.861-.913.607-.516.518-.324.304-.104-.041.037M150.65 369.523l-7.432-8.226" style="fill:none;stroke:#00ff4a;stroke-width:1.99999;stroke-linecap:round;stroke-linejoin:round;stroke-miterlimit:500;stroke-dasharray:none;stroke-opacity:1;visibility:visible"/><path d="m170.047 330.286-2.494 4.845" style="fill:none;stroke:#00ff4a;stroke-width:.999997;stroke-linecap:round;stroke-linejoin:round;stroke-miterlimit:500;stroke-dasharray:none;stroke-opacity:1;visibility:visible"/><path d="m177.833 329.28-.676-3.981M185.98 330.523l-10.537-4.249" style="fill:none;stroke:#00ff4a;stroke-width:1.99999;stroke-linecap:round;stroke-linejoin:round;stroke-miterlimit:500;stroke-dasharray:none;stroke-opacity:1;visibility:visible"/><path d="m153.118 366.791 9.434-3.683" style="fill:none;stroke:red;stroke-width:.999997;stroke-linecap:round;stroke-linejoin:round;stroke-miterlimit:500;stroke-dasharray:none;stroke-opacity:1;visibility:visible" visibility="hidden"/><path d="m150.65 369.523-6.668-6.387" style="fill:none;stroke:#00ff4a;stroke-width:1.99999;stroke-linecap:round;stroke-linejoin:round;stroke-miterlimit:500;stroke-dasharray:none;stroke-opacity:1;visibility:visible"/><path d="m151.937 351.875-.772 3.947M156.154 363.155l-4.989-7.333" style="fill:none;stroke:#00ff4a;stroke-width:.999997;stroke-linecap:round;stroke-linejoin:round;stroke-miterlimit:500;stroke-dasharray:none;stroke-opacity:1;visibility:visible"/></svg>