<svg xmlns="http://www.w3.org/2000/svg" baseProfile="full" height="793.701" preserveAspectRatio="xMinYMin meet" style="width:792px;height:931px" width="559.371" xml:space="preserve"><path d="m419.527 635.907-.005.038.068.172.172.103.134-.008M427.195 637.276l.265.11.336.07.295-.036.259-.157.186-.263.12-.356.058-.479v-.034M428.716 636.11l.107-5.024M419.618 630.899l-.096 5.008M428.807 631.03l-.03-.268-.174-.329-.283-.298-.43-.28-.578-.255-.674-.204-.348-.07M421.65 629.355l-.4.098-.586.22-.492.284-.321.31-.181.332-.048.311M378.295 675.355v.084l.115.158.16.054.144-.023M385.547 676.624l.136.053.71.251.477.1.365-.016.315-.137.257-.276.17-.364.097-.48.025-.548M388.106 675.248l-.056-5.113M378.212 670.259l.071 5.096M388.028 670.073l-.038-.306-.202-.407-.33-.363-.476-.334-.628-.293-.732-.227M381.35 668.03l-.795.186M380.555 668.215l-.713.245-.618.312-.502.385-.314.394-.165.414-.013.28" style="fill:none;stroke:red;stroke-width:.999997;stroke-linecap:round;stroke-linejoin:round;stroke-miterlimit:500;stroke-dasharray:none;stroke-opacity:1;visibility:visible" visibility="hidden"/><path d="m369.986 473.03.01-.143-.133-.399-.252-.325-.39-.293-.572-.276-.721-.224-.815-.163-.883-.104-.927-.045-.747.008M364.555 471.067l-.197.003-.936.07-.894.121-.825.178-.733.227-.627.282-.51.358-.293.354-.144.383.004.235" style="fill:none;stroke:red;stroke-width:1.99999;stroke-linecap:round;stroke-linejoin:round;stroke-miterlimit:500;stroke-dasharray:none;stroke-opacity:1;visibility:visible" visibility="hidden"/><path d="m370.05 474.82-.047-1.83" style="fill:none;stroke:red;stroke-width:.999997;stroke-linecap:round;stroke-linejoin:round;stroke-miterlimit:500;stroke-dasharray:none;stroke-opacity:1;visibility:visible" visibility="hidden"/><path d="m382.071 686.06 1.924-1.964M388.896 679.099l11.456-11.684M393.542 660.696l-7.139 7.003M378.571 675.65l-1.457 1.458M377.114 677.107l-1.168 1.166M365.132 672.67l.04.976.135 1.831.216 1.773.303 1.706.397 1.641.51 1.574.637 1.493.666 1.215.735 1.046.789.896.851.754.907.617.962.481 1.107.37 1.119.194 1.113.027 1.091-.125 1.058-.275 1.03-.41 1.006-.548.99-.698.984-.859.292-.289M376.628 679.828l-.002-.008-.099-.143-.159-.29-.193-.444-.212-.606-.212-.764-.196-.923-.172-1.07-.132-1.21-.087-1.33-.022-.656c.104-2.261 0-6.105 0-6.105l-5.026-193.39M359.435 475.192l5.697 197.478M497.203 457.918l-.143 1.782M507.276 460.469l.148-1.784M507.404 458.704l.021-.151-.097-.361-.208-.295-.336-.281-.528-.289-.266-.103M498.885 456.675l-.595.167-.525.25-.32.272-.19.316-.035.242M437.159 425.289l-.055 1.677M446.508 427.25l.058-1.685M446.547 425.558l.003-.155-.118-.26-.18-.183-.27-.17-.48-.187-.062-.017M437.792 424.547a.77.77 0 0 0-.617.754M308.711 438.147l.119 1.726M318.56 439.293l-.114-1.72M318.43 437.582a1.004 1.004 0 0 0-.795-.865M309.773 437.04a1.256 1.256 0 0 0-1.047 1.07M359.378 473.256l.054 1.828" style="fill:none;stroke:red;stroke-width:1.99999;stroke-linecap:round;stroke-linejoin:round;stroke-miterlimit:500;stroke-dasharray:none;stroke-opacity:1;visibility:visible" visibility="hidden"/><path d="m384.18 683.901.094-.097.602-.676.57-.665.617-.723.593-.672.527-.548.473-.433.514-.415.45-.342.126-.095.142-.128.012-.01" style="fill:none;stroke:red;stroke-width:.999997;stroke-linecap:round;stroke-linejoin:round;stroke-miterlimit:500;stroke-dasharray:none;stroke-opacity:1;visibility:visible" visibility="hidden"/><path d="m399.036 653.613-.984.917-.925.858-.733.835-.534.812-.384.729-.721 1.687-.047.116M400.331 667.437l1.55-1.87 1.342-1.679 1.22-1.312.948-.959.43-.433.424-.432.698-.701.907-.916 1.046-1.066 1.164-1.186" style="fill:none;stroke:red;stroke-width:1.99999;stroke-linecap:round;stroke-linejoin:round;stroke-miterlimit:500;stroke-dasharray:none;stroke-opacity:1;visibility:visible" visibility="hidden"/><path d="m410.012 656.928.888-.795.847-.756.661-.589.476-.417.331-.283.207-.173-.012-.006M401.036 651.75l-.458.403-.659.634-.82.769M437.102 427.065l-1.78 55.734M435.323 482.8 431.2 611.964M439.919 616.477l4.611-131M444.532 485.476l1.972-58.129M397.306 657.03h0l-.027.028-.179.185-.322.325-.688.679-.758.728-.87.825-.918.895M431.555 638.625l.527-.5.868-.973.837-1.119.801-1.27.74-1.359.683-1.439.628-1.504.575-1.566.529-1.62.481-1.67.432-1.708.384-1.742.332-1.765.282-1.78.232-1.782.033-.35M431.2 611.965l-.03.766-.098 1.484-.145 1.512-.193 1.53-.242 1.53-.284 1.513-.328 1.48-.094.37M429.636 622.728l-.246.788-.323.879-.317.733-.3.579-.253.421-.197.264-.042.05M429.536 640.263c.184-.064.352-.163.5-.287M420.404 636.587l-11.508 9.732M415.06 653.344l10.396-9.276M430.039 639.977l1.516-1.353" style="fill:none;stroke:red;stroke-width:1.99999;stroke-linecap:round;stroke-linejoin:round;stroke-miterlimit:500;stroke-dasharray:none;stroke-opacity:1;visibility:visible" visibility="hidden"/><path d="M412.591 654.63a4.796 4.796 0 0 0 2.481-1.299M461.03 671.692c.693.28 1.403.505 2.127.675M467.464 663.405l-6.172-1.04M450.626 660.364l-27.602-5.244M422.15 664.563l25.507 4.853M463.162 672.365l2.536.483M481.565 653.353l-.065.624-.244 1.31-.379 1.252-.512 1.184-.645 1.109-.777 1.023-.899.924-1.014.81-1.115.686-1.202.552-1.27.416-1.328.273-1.372.132-1.404-.012-1.416-.152-.456-.079M465.697 672.848l1.096.184 1.916.197 1.907.046 1.888-.108 1.86-.264 1.812-.416 1.759-.564 1.685-.71 1.611-.849 1.521-.984 1.419-1.11 1.313-1.23 1.192-1.341 1.074-1.446.94-1.54.805-1.621.661-1.696.517-1.76.368-1.815.203-1.666M308.834 439.974l9.476 140.696M319.837 603.325l1.702 25.29M330.831 627.995l-1.473-22.662M327.883 582.667l-9.316-143.274M497.052 459.805l-10.815 134.838M486.237 594.643l-4.672 58.71M491.245 654.156l5.063-61.177M496.307 592.979l10.961-132.41" style="fill:none;stroke:red;stroke-width:1.99999;stroke-linecap:round;stroke-linejoin:round;stroke-miterlimit:500;stroke-dasharray:none;stroke-opacity:1;visibility:visible" visibility="hidden"/><path d="M453.132 669.56a19.627 19.627 0 0 0-4.466-.076M455.93 670.021l.836.187 1.538.47M447.672 669.405c.2.048.408.067.61.056" style="fill:none;stroke:red;stroke-width:.999997;stroke-linecap:round;stroke-linejoin:round;stroke-miterlimit:500;stroke-dasharray:none;stroke-opacity:1;visibility:visible" visibility="hidden"/><path d="m423.024 655.121-.328-.037-1.09.01-1.816.246-1.347.313-.897.237-.538.137-.416.085-.322.025-.164-.025-.019-.013v-.003l-.019-.004-.072-.01-.13-.016-.446-.038-.846-.08-1.29-.156-1.692-.276" style="fill:none;stroke:red;stroke-width:1.99999;stroke-linecap:round;stroke-linejoin:round;stroke-miterlimit:500;stroke-dasharray:none;stroke-opacity:1;visibility:visible" visibility="hidden"/><path d="m405.727 661.279.695.15 1.51.259 1.168.124.818.044.629.003.287-.019.27-.057.23-.083.054-.013.014-.008.008-.004" style="fill:none;stroke:red;stroke-width:.999997;stroke-linecap:round;stroke-linejoin:round;stroke-miterlimit:500;stroke-dasharray:none;stroke-opacity:1;visibility:visible" visibility="hidden"/><path d="m390.159 659.173 1.513.204 1.018.14.985.135.82.117M422.15 664.563a1714.4 1714.4 0 0 0-14.454-2.746" style="fill:none;stroke:red;stroke-width:1.99999;stroke-linecap:round;stroke-linejoin:round;stroke-miterlimit:500;stroke-dasharray:none;stroke-opacity:1;visibility:visible" visibility="hidden"/><path d="M392.607 658.495a8.103 8.103 0 0 0 2.203.829" style="fill:none;stroke:red;stroke-width:.999997;stroke-linecap:round;stroke-linejoin:round;stroke-miterlimit:500;stroke-dasharray:none;stroke-opacity:1;visibility:visible" visibility="hidden"/><path d="M358.812 654.604a11.157 11.157 0 0 0 1.858.496M343.775 652.781l2.343.322M375.135 657.11l14.315 2.114M360.91 655.145l3.734.516M364.37 646.181l-4.412-.704M349.292 644.143l-4.244-.583M386.839 649.227l-2.7-.367M384.138 648.859l-9.234-1.251M405.672 661.333c.639.174 1.279.327 1.924.46M399.183 653.476l-1.243-.255-1.356-.317-1.161-.324-.975-.341-.994-.424-1.091-.526-.567-.279-.576-.283-.691-.324-.949-.41-1.224-.433-1.516-.335" style="fill:none;stroke:red;stroke-width:1.99999;stroke-linecap:round;stroke-linejoin:round;stroke-miterlimit:500;stroke-dasharray:none;stroke-opacity:1;visibility:visible" visibility="hidden"/><path d="M346.118 653.107a1.693 1.693 0 0 0 .478.008" style="fill:none;stroke:red;stroke-width:.999997;stroke-linecap:round;stroke-linejoin:round;stroke-miterlimit:500;stroke-dasharray:none;stroke-opacity:1;visibility:visible" visibility="hidden"/><path d="M330.831 627.995a17.223 17.223 0 0 0 14.217 15.568M321.54 628.615a26.579 26.579 0 0 0 22.234 24.165" style="fill:none;stroke:red;stroke-width:1.99999;stroke-linecap:round;stroke-linejoin:round;stroke-miterlimit:500;stroke-dasharray:none;stroke-opacity:1;visibility:visible" visibility="hidden"/><path d="m359.432 475.084.024.147.204.321.396.296.578.263.738.217.868.166.964.105 1.026.041 1.044-.024 1.022-.089.964-.147.866-.206.733-.25.576-.291.393-.314.2-.329.022-.17M427.012 637.127l-.625-.28-.717-.331-1.29-.51-1.007-.297-1.025-.196-.898-.052-.427.03-.704.189-.265.181-.107.17.03.029.059.06.18-.099.284-.27.138-.155M422.519 629.699l-.53.16-.392.204-.223.232-.046.248.136.246.31.232.466.202.59.156.68.104.726.044.723-.019.68-.08.588-.137.463-.183.308-.22.136-.244-.05-.25-.226-.241-.394-.215M385.5 676.525l-.792-.293-.762-.257M383.946 675.976l-.644-.217-.82-.223M382.482 675.535l-.268-.075-1.09-.207-.934-.086-.438.003-.697.115-.245.123-.016.024M381.364 668.687l-.58.218M380.784 668.905l-.432.27-.262.305-.068.319.124.314.313.291.481.248.618.187.718.12.771.04.776-.04.732-.12.644-.19.51-.248.348-.289.165-.316-.032-.317-.223-.306-.401-.27M351.97 652.968c-1.69-.192-3.4-.14-5.076.15" style="fill:none;stroke:red;stroke-width:.999997;stroke-linecap:round;stroke-linejoin:round;stroke-miterlimit:500;stroke-dasharray:none;stroke-opacity:1;visibility:visible" visibility="hidden"/><path d="M317.405 436.663a13.936 13.936 0 0 0-7.515.35" style="fill:none;stroke:red;stroke-width:1.99999;stroke-linecap:round;stroke-linejoin:round;stroke-miterlimit:500;stroke-dasharray:none;stroke-opacity:1;visibility:visible" visibility="hidden"/><path d="m308.829 439.873.104.204.286.19.462.163.614.132.747.092.85.052.918.008.953-.036.952-.078.912-.117.836-.15.728-.183.596-.201.435-.219.26-.22.078-.22" style="fill:none;stroke:red;stroke-width:.999997;stroke-linecap:round;stroke-linejoin:round;stroke-miterlimit:500;stroke-dasharray:none;stroke-opacity:1;visibility:visible" visibility="hidden"/><path d="M505.867 457.195a13.687 13.687 0 0 0-6.828-.53M445.346 424.569a15.425 15.425 0 0 0-7.336-.082" style="fill:none;stroke:red;stroke-width:1.99999;stroke-linecap:round;stroke-linejoin:round;stroke-miterlimit:500;stroke-dasharray:none;stroke-opacity:1;visibility:visible" visibility="hidden"/><path d="m437.102 427.065.002.029.116.18.29.176.456.168.608.15.728.132.828.103.893.072.923.039.916.004.876-.03.798-.067.696-.096.563-.126.408-.148.24-.164.06-.137M384.162 683.884l-.188.19M370.052 474.926v.041l-.12.33-.317.323-.508.3-.676.268-.819.224-.928.171-1.004.113-1.042.05-1.036-.016-.992-.08M362.61 476.65l-.912-.143-.79-.199-.646-.245-.467-.285-.28-.314-.08-.273M497.06 459.702l.01.121.163.287.351.284.528.273.685.25.815.218.915.178.978.129 1.006.079.989.024.94-.035.851-.09.733-.14.58-.185.41-.228.222-.255.041-.143M308.834 439.974l.046.133.225.198.402.173.564.142.703.107.816.067.9.024.945-.02.958-.064.927-.104.869-.14.77-.172.643-.196.492-.213.324-.222.142-.221.007-.073M507.268 460.571l-.038.143-.225.256" style="fill:none;stroke:red;stroke-width:.999997;stroke-linecap:round;stroke-linejoin:round;stroke-miterlimit:500;stroke-dasharray:none;stroke-opacity:1;visibility:visible" visibility="hidden"/><path d="m346.76 653.09.131-.006.411-.054 1.022-.135 1.371-.098 1.51.015 2.396.301.289.068M353.888 653.181l2.194.532M356.082 653.715l1.37.432 1.366.443M460.976 671.661l-.133-.049-.25-.092-.249-.095-.514-.194-.835-.311-.839-.295-.841-.269-.893-.256-.358-.084M456.066 670.015l-.9-.212-.643-.114M454.522 669.688l-.6-.104-1.219-.139-.651-.042-.632-.023-.62-.004-.59.01-.558.024-.54.027-.317.013-.145.005-.134.002-.068-.004" style="fill:none;stroke:red;stroke-width:1.99999;stroke-linecap:round;stroke-linejoin:round;stroke-miterlimit:500;stroke-dasharray:none;stroke-opacity:1;visibility:visible" visibility="hidden"/><path d="m451.266 661.232-.003.01.027.551.14.632.268.703.398.753.558.772.516.519.497.347.523.208.604.066.565-.082.6-.198.676-.329.792-.475.825-.565.668-.497.567-.45.472-.397.197-.177M460.156 662.621c.35-.194.61-.517.73-.898M460.89 661.721l.153-3.24M451.404 658.035l-.142 3.252M461.024 658.497l.016-.165-.11-.413-.233-.369-.373-.35-.53-.328-.654-.283-.462-.137M454.203 656.177l-.75.155-.67.219-.567.289-.414.333-.263.367-.125.39.008.17M388.05 670.136v.021l-.102.396-.286.382-.46.353-.619.313-.75.259-.858.193-.928.123-.961.045-.963-.033-.923-.11M381.2 672.079l-.846-.183-.74-.248-.607-.303-.444-.35-.27-.378-.081-.367M352.86 653.02c-.297-.03-.59-.059-.888-.083M354.575 653.332l-.097-.019-.316-.065M453.394 657.259l-.178.281.016.299.206.294.38.274.534.233.656.183.73.113.765.041.747-.03.685-.107.575-.172.436-.227.264-.269.077-.295-.112-.297-.297-.287-.463-.253M454.255 656.81l-.51.2-.352.248" style="fill:none;stroke:red;stroke-width:.999997;stroke-linecap:round;stroke-linejoin:round;stroke-miterlimit:500;stroke-dasharray:none;stroke-opacity:1;visibility:visible" visibility="hidden"/><path d="m451.266 661.287.004.337.045.295.035.156.044.172.114.349.146.357.18.371.104.195.109.181.237.361.266.351.306.343.172.165.326.263.365.222.216.095.47.116.725-.027.592-.162.39-.159.198-.09.237-.121.467-.253.454-.277.462-.3.234-.158.216-.149.42-.304.409-.305.196-.155.467-.376.348-.296.196-.18.092-.087.206-.213.096-.12.034-.05.047-.108-.003-.006M460.748 659.085l-.414.315-.57.27-.706.22-.818.156-.896.084-.94.013-.944-.06-.917-.131-.853-.196-.751-.253-.625-.303-.475-.337-.307-.363-.125-.369-.003-.055M507.421 458.694l-.036.133-.224.255M507.161 459.083l-.409.224-.582.188-.73.139-.855.09-.94.032-.989-.023-1.005-.076-.979-.131-.915-.178-.817-.218-.685-.25-.528-.272-.352-.283-.162-.285-.01-.121M446.566 425.566l-.071.148-.245.161-.411.147-.57.124M445.268 426.145l-.697.094-.805.064-.878.03-.92-.003-.921-.043-.89-.072-.827-.104-.726-.13-.598-.151-.454-.168-.284-.176-.11-.179v-.017M317.673 438.221a.987.987 0 0 0 .776-.648M317.673 438.22l-.594.204-.729.179-.835.152-.913.116-.953.079-.952.036-.92-.01-.85-.049-.746-.094-.618-.13-.46-.162-.288-.188-.104-.21v-.008M370.003 473.012l-.023.148-.198.328-.394.316-.576.287M368.812 474.09l-.737.25-.864.206-.964.148-1.023.09-1.048.021-1.022-.041-.967-.104-.867-.164-.74-.216-.577-.264-.399-.294-.2-.32-.024-.135M419.522 635.907v-.007l.005-.028.019-.041.064-.087.105-.092.155-.095.097-.045.101-.04.24-.072.29-.057.164-.02.478-.028.47.012.345.03.185.021.55.087.388.08.2.047.557.148.373.112.187.063.545.193.348.135.35.142.172.075.2.087.385.172.36.161.35.157.168.071.294.107.276.061h.193l.178-.06.142-.123.118-.193.093-.307.045-.362.003-.101M428.823 631.085l-.07.263-.246.293-.409.269-.559.233-.687.187-.789.137-.863.081-.898.019-.9-.042-.874-.1M422.528 632.424l-.805-.154-.708-.207-.583-.246-.44-.277-.272-.301-.104-.309v-.027" style="fill:none;stroke:red;stroke-width:.999997;stroke-linecap:round;stroke-linejoin:round;stroke-miterlimit:500;stroke-dasharray:none;stroke-opacity:1;visibility:visible" visibility="hidden"/><path d="m461.042 658.492-.058.247-.237.346" style="fill:none;stroke:red;stroke-width:.999997;stroke-linecap:round;stroke-linejoin:round;stroke-miterlimit:500;stroke-dasharray:none;stroke-opacity:1;visibility:visible" visibility="hidden"/><path d="m425.452 644.064.918-.904.833-.937.856-.97.765-.753.538-.4.457-.224.267-.019-.066.103M388.883 679.084l-.025.008-.316.152-.615.428-.787.735-.713.803-.85 1.046-1.008 1.22-.407.408" style="fill:none;stroke:red;stroke-width:1.99999;stroke-linecap:round;stroke-linejoin:round;stroke-miterlimit:500;stroke-dasharray:none;stroke-opacity:1;visibility:visible" visibility="hidden"/><path d="m384.532 683.517-.036.386-.346.654M382.106 686.025a4.857 4.857 0 0 0 2.044-1.468M361.946 645.044a57.28 57.28 0 0 0-7.258 3.396M357.186 641.267l.213-.263.032-.268-.155-.259-.33-.23-.484-.188" style="fill:none;stroke:red;stroke-width:.999997;stroke-linecap:round;stroke-linejoin:round;stroke-miterlimit:500;stroke-dasharray:none;stroke-opacity:1;visibility:visible" visibility="hidden"/><path d="m351.946 640.432-.306.252-.124.27.058.264.241.247.41.215.55.163.661.105.722.04.746-.028.718-.093.644-.154.534-.203.386-.243M349.935 645.005l.008.159.14.605.27.671.414.715.499.632.492.452.488.296.498.161.552.019.54-.116.558-.231.64-.357.758-.515.78-.581.634-.502.314-.252M359.295 644.543l-.11-3.33M349.798 641.541l.12 3.335M350.346 640.488a1.187 1.187 0 0 0-.527 1.09M359.178 641.21l.002-.052-.109-.386-.227-.325-.352-.294-.502-.268-.638-.221-.444-.099M352.56 639.581l-.734.184-.363.131M351.464 639.897l-.289.104-.555.29-.273.197" style="fill:none;stroke:red;stroke-width:.999997;stroke-linecap:round;stroke-linejoin:round;stroke-miterlimit:500;stroke-dasharray:none;stroke-opacity:1;visibility:visible" visibility="hidden"/><path d="m359.186 641.213-.003.067-.112.332-.29.324-.454.304-.604.27-.728.228-.825.173-.89.114-.92.052-.917-.014-.875-.08-.8-.143-.694-.197-.564-.247-.409-.287-.237-.313-.064-.232" style="fill:none;stroke:red;stroke-width:.999997;stroke-linecap:round;stroke-linejoin:round;stroke-miterlimit:500;stroke-dasharray:none;stroke-opacity:1;visibility:visible" visibility="hidden"/><path d="M454.716 655.939a.63.63 0 0 0-.182.441M455.274 655.593a1.437 1.437 0 0 0-.558.347M454.628 657.412a1.327 1.327 0 0 0 .523.325M454.534 657.184c0 .085.034.17.094.228M454.534 656.381v.803M457.307 655.593a3.239 3.239 0 0 0-2.033 0M457.867 655.939a1.437 1.437 0 0 0-.56-.346M458.05 656.382a.63.63 0 0 0-.183-.444M457.432 657.737c.199-.066.378-.177.524-.325" style="fill:none;stroke:red;stroke-width:.866664;stroke-linecap:round;stroke-linejoin:round;stroke-miterlimit:2;stroke-dasharray:none;stroke-opacity:1;visibility:visible" visibility="hidden"/><path d="M455.15 657.737c.37.12.755.184 1.143.184.387 0 .769-.064 1.139-.184M457.956 657.412a.32.32 0 0 0 .094-.228M458.05 656.381v.803M422.39 629.123h0M422.575 628.68a.63.63 0 0 0-.185.443M423.13 628.335a1.427 1.427 0 0 0-.555.345M422.487 630.153a1.317 1.317 0 0 0 .52.327M422.39 629.925c0 .086.034.17.097.228M422.39 629.123v.802M425.166 628.335a3.256 3.256 0 0 0-2.036 0M425.723 628.68a1.447 1.447 0 0 0-.557-.345M425.906 629.123a.627.627 0 0 0-.183-.443M425.29 630.479c.197-.067.376-.179.522-.326" style="fill:none;stroke:red;stroke-width:.866664;stroke-linecap:round;stroke-linejoin:round;stroke-miterlimit:2;stroke-dasharray:none;stroke-opacity:1;visibility:visible" visibility="hidden"/><path d="M423.006 630.48c.373.119.754.183 1.143.183a3.7 3.7 0 0 0 1.142-.184M425.812 630.153a.32.32 0 0 0 .094-.228M425.906 629.123v.802M381.62 667.932a.627.627 0 0 0-.182.443M382.178 667.587a1.427 1.427 0 0 0-.558.345M381.532 669.405a1.332 1.332 0 0 0 .522.326M381.438 669.177c0 .086.032.17.094.228M381.438 668.375v.802M384.211 667.587a3.24 3.24 0 0 0-2.033 0M384.77 667.932a1.423 1.423 0 0 0-.56-.345M384.954 668.375a.628.628 0 0 0-.184-.443M384.336 669.73c.199-.066.378-.177.524-.325M382.054 669.731a3.693 3.693 0 0 0 1.142.184c.388 0 .771-.065 1.14-.185M384.86 669.405a.32.32 0 0 0 .094-.228M384.954 668.375v.802M352.556 638.717a.63.63 0 0 0-.182.443M353.114 638.372a1.427 1.427 0 0 0-.558.345M352.468 640.19a1.332 1.332 0 0 0 .522.326M352.374 639.963c0 .085.033.17.094.227M352.374 639.581v.382M352.374 639.16v.421M355.147 638.372a3.239 3.239 0 0 0-2.033 0M355.706 638.717a1.423 1.423 0 0 0-.559-.345M355.89 639.16a.63.63 0 0 0-.184-.443M355.272 640.516c.2-.067.378-.177.524-.325M352.99 640.516a3.693 3.693 0 0 0 1.142.184c.388 0 .771-.064 1.14-.184M355.796 640.19a.32.32 0 0 0 .094-.227M355.89 639.404v.559M355.89 639.16v.244" style="fill:none;stroke:red;stroke-width:.866664;stroke-linecap:round;stroke-linejoin:round;stroke-miterlimit:2;stroke-dasharray:none;stroke-opacity:1;visibility:visible" visibility="hidden"/><path d="M402.128 650.468a.453.453 0 0 0 .134.32M406.927 650.788a.448.448 0 0 0 .133-.32M401.935 650.541a.49.49 0 0 0-.117.324M407.372 650.865a.504.504 0 0 0-.117-.324M407.06 650.307l.195.236M402.128 650.307l-.193.236M407.372 652.968l-1.142.924M406.23 653.892h-3.268M402.962 653.892l-1.143-.924M402.962 651.79a2.123 2.123 0 0 0-1.143-.922M407.372 650.865a2.112 2.112 0 0 0-1.142.925M406.23 651.79a8.516 8.516 0 0 0-3.268 0M401.818 652.968v-2.101M407.372 652.968v-2.101M402.962 653.892v-2.101M406.23 653.892v-2.101M402.26 649.295a.453.453 0 0 0-.133.318M406.927 649.295a1.875 1.875 0 0 0-.732-.455M407.06 649.613a.441.441 0 0 0-.133-.318M407.06 649.613v.855M402.128 649.613v.855M403.451 650.515a5.067 5.067 0 0 0 2.745-.13M406.172 649.83a.307.307 0 0 0 .088-.218.304.304 0 0 0-.088-.215M406.172 649.397a1.273 1.273 0 0 0-.494-.305c-.334-.11-.495-.12-.636-.143-.182.024-.643-.026-.643-.026a3.335 3.335 0 0 0-.885.169M403.514 649.09a1.25 1.25 0 0 0-.495.307M403.019 649.397a.308.308 0 0 0-.09.216.307.307 0 0 0 .089.217M403.019 649.83a1.23 1.23 0 0 0 .495.304M403.514 650.136a3.39 3.39 0 0 0 2.164 0M405.678 650.136a1.273 1.273 0 0 0 .494-.305" style="fill:none;stroke:red;stroke-width:.666665;stroke-linecap:round;stroke-linejoin:round;stroke-miterlimit:2;stroke-dasharray:none;stroke-opacity:1;visibility:visible" visibility="hidden"/><path d="M496.063 592.062c.277-.026.557-.048.83-.072" style="fill:none;stroke:red;stroke-width:.999997;stroke-linecap:round;stroke-linejoin:round;stroke-miterlimit:500;stroke-dasharray:none;stroke-opacity:1;visibility:visible" visibility="hidden"/><path d="m378.571 675.65-2.625 2.623M378.212 670.25l-1.584 9.578M403.019 649.397l-1.983 2.353M425.812 630.153l2.146-3.711M406.172 649.831l2.724-3.512M447.672 669.405l2.954-9.041" style="fill:none;stroke:red;stroke-width:1.99999;stroke-linecap:round;stroke-linejoin:round;stroke-miterlimit:500;stroke-dasharray:none;stroke-opacity:1;visibility:visible" visibility="hidden"/><path d="m454.523 669.689-1.391-.129M456.064 670.016l2.24.662" style="fill:none;stroke:red;stroke-width:.999997;stroke-linecap:round;stroke-linejoin:round;stroke-miterlimit:500;stroke-dasharray:none;stroke-opacity:1;visibility:visible" visibility="hidden"/><path d="m406.23 651.79 5.362 3.726M364.644 655.661l10.491 1.449M375.135 657.11l-10.491-1.449M360.91 655.145l3.46-8.964M356.082 653.713l3.876-8.236M364.37 646.181l10.534 1.427" style="fill:none;stroke:red;stroke-width:1.99999;stroke-linecap:round;stroke-linejoin:round;stroke-miterlimit:500;stroke-dasharray:none;stroke-opacity:1;visibility:visible" visibility="hidden"/><path d="m355.272 640.516 6.674 4.528M357.186 641.267l-2.498 7.173M350.347 640.488l7.173 5.673M359.186 641.213l.109 3.33" style="fill:none;stroke:red;stroke-width:.999997;stroke-linecap:round;stroke-linejoin:round;stroke-miterlimit:500;stroke-dasharray:none;stroke-opacity:1;visibility:visible" visibility="hidden"/><path d="m408.888 646.328-1.018.91-.78.719-.452.409M454.766 687.381l.497-.181 2.617-1.06 2.495-1.108 2.367-1.157 2.234-1.202 2.099-1.248 1.958-1.285 1.814-1.33 1.666-1.361 1.512-1.396 1.363-1.426.765-.927M326.08 654.807l-.18.333-.633 1.48-.481 1.492-.323 1.5-.166 1.505-.011 1.51.144 1.509.3 1.505.457 1.503.615 1.497.773 1.489.932 1.48 1.095 1.462 1.252 1.444 1.412 1.423 1.564 1.396 1.717 1.362 1.864 1.331 2.009 1.29 2.146 1.254 2.281 1.207 2.413 1.16 2.534 1.117 2.656 1.059 1.013.369M425.383 644.125l.281-.245.534-.528.51-.533.587-.631.523-.561.452-.451.397-.345.396-.294.27-.172.157-.081.046-.02" style="fill:none;stroke:#00ff4a;stroke-width:1.99999;stroke-linecap:round;stroke-linejoin:round;stroke-miterlimit:500;stroke-dasharray:none;stroke-opacity:1;visibility:visible"/><path d="m412.082 678.58-.079-.473-.252-.587-.388-.553-.539-.527-.69-.496-.828-.448-.94-.388-1.032-.321-1.104-.258-1.16-.189-1.199-.123-1.221-.053-1.224.017-1.208.086-1.175.156-1.121.22-1.054.286-.97.352-.874.419-.764.48-.64.56-.436.55-.289.574-.141.568M392.748 678.47l-.052.424M412.143 678.999l-.047-.429M405.987 695.59l.305-.006 2.654-.069M395.484 695.448l2.616.092M477.767 654.08l-.207-.33M364.271 673.453l-.183-.373-.04-.34M377.138 674.435l-.708.328M426.746 674.025l.01-.005.544-.3.66-.27.79-.25.9-.205.98-.155 1.054-.096 1.089-.033 1.114.032 1.093.094 1.072.16 1.008.215.934.267.836.308.702.33.416.251M442.042 671.395l-.332-.288-.718-.492-.846-.436-.951-.379-1.036-.312-1.107-.25-1.158-.186-1.196-.116-1.211-.05-1.213.021-1.194.086-1.156.155-1.101.22-1.03.285-.944.352-.849.416-.737.483-.61.559-.399.544-.26.565-.075.377M443.074 673.333a3.056 3.056 0 0 0-1.031-1.938M378.107 669.875l-.94-.37-1.027-.305M363.195 670.724l-.625.557-.424.549-.279.566-.127.556M423.89 673.035l-.025.202" style="fill:none;stroke:#00ff4a;stroke-width:.999997;stroke-linecap:round;stroke-linejoin:round;stroke-miterlimit:500;stroke-dasharray:none;stroke-opacity:1;visibility:visible"/><path d="M395.112 677.996a1.279 1.279 0 0 0 .526 1.375M409.29 679.365a1.29 1.29 0 0 0 .322-1.593M395.722 679.479l.312-.2.633-.315.773-.296.88-.256.967-.205 1.041-.15 1.092-.087 1.114-.022 1.114.048 1.082.112 1.036.175.964.229.864.28.756.317.604.331.145.104M353.14 661.276l.32-.17.72-.299.817-.273.925-.237 1-.194 1.052-.14 1.085-.084 1.091-.024 1.075.034 1.031.094.971.147M448.602 656.545l-.6-.093-1.165-.125-1.186-.062-1.191.006-1.172.069-1.14.136-1.088.199-1.02.261-.941.323M450.258 656.91l-1.074-.254-.582-.109M362.426 656.141l-.626-.09-1.168-.101-1.186-.03-1.19.03-1.174.1-1.136.161-1.09.225-1.016.287-.942.344-.843.405-.735.47-.617.543-.416.527-.275.55-.132.562v.019M440.579 673.705a1.059 1.059 0 0 0 .19-.77M426.367 672.292a1.128 1.128 0 0 0 .073 1.301M426.284 648.879l.232-.095.704-.219.815-.192.919-.15.984-.103 1.04-.055 1.067.002 1.075.056.303.025.544.057 1.023.15.969.198.875.235.786.27.524.232M428.719 644.279l-.56.101-1.019.244-.94.299-.85.361-.754.424-.636.493-.451.496-.309.523-.17.54-.005.153M441.448 648.185l-.024-.28-.19-.55-.319-.519-.458-.495-.605-.47-.748-.436-.858-.382-.954-.322-1.026-.266-1.088-.202-1.131-.143-1.159-.081-1.166-.019-1.16.048-1.129.108-.713.103M423.01 647.896l-.026.225M441.528 648.8l-.065-.641" style="fill:none;stroke:#00ff4a;stroke-width:.999997;stroke-linecap:round;stroke-linejoin:round;stroke-miterlimit:500;stroke-dasharray:none;stroke-opacity:1;visibility:visible"/><path d="m355.883 662.32-.047-.008-.889-.228-.79-.276-.679-.316-.543-.348-.404-.364-.26-.37-.12-.366.016-.379.041-.105M408.255 644.093a17.312 17.312 0 0 0-11.87-.045M394.076 641.252a2.523 2.523 0 0 0-.496.576M393.579 641.828a2.507 2.507 0 0 0-.368 1.076M411.487 642.896l-.15-.544-.283-.517-.416-.491-.56-.468-.703-.435-.825-.384-.923-.329-1-.267-1.064-.21-1.11-.151-1.143-.088-1.156-.025-1.154.038-1.133.098-1.093.16-1.038.217-.968.277-.885.334-.793.396-.684.457-.331.29M393.191 642.892l-.05.43M411.546 643.415l-.044-.428M438.164 649.279l-.513.274-.039.017" style="fill:none;stroke:#00ff4a;stroke-width:.999997;stroke-linecap:round;stroke-linejoin:round;stroke-miterlimit:500;stroke-dasharray:none;stroke-opacity:1;visibility:visible"/><path d="m454.664 687.415-.56.208-2.89 1.012-3.014.95-3.126.89-3.238.827-3.336.758-3.43.689-3.51.619-3.586.548-3.651.47-3.708.401-3.756.318-3.793.244-3.819.163-3.837.087-3.847.006-3.844-.073-3.83-.153-3.811-.229-3.778-.31-3.736-.384-3.686-.459-3.626-.536-3.557-.61M351.547 687.515a121.897 121.897 0 0 0 20.148 5.337" style="fill:none;stroke:#00ff4a;stroke-width:1.99999;stroke-linecap:round;stroke-linejoin:round;stroke-miterlimit:500;stroke-dasharray:none;stroke-opacity:1;visibility:visible"/><path d="m478.679 655.564-.263-.51-.65-.974" style="fill:none;stroke:#00ff4a;stroke-width:.999997;stroke-linecap:round;stroke-linejoin:round;stroke-miterlimit:500;stroke-dasharray:none;stroke-opacity:1;visibility:visible"/><path d="m327.03 653.133-.352.57-.553 1.004" style="fill:none;stroke:#00ff4a;stroke-width:1.99999;stroke-linecap:round;stroke-linejoin:round;stroke-miterlimit:500;stroke-dasharray:none;stroke-opacity:1;visibility:visible"/><path d="m408.995 643.599-.49.393-.632.357-.766.316-.877.263-.97.207-1.038.145-1.084.075-1.102.01-1.093-.057-1.06-.124-1.005-.188-.919-.248-.816-.3-.695-.345-.552-.384-.402-.412-.242-.432-.072-.439.094-.44.26-.425.42-.406.565-.372.705-.333.822-.285.921-.235 1-.17 1.055-.11 1.085-.044 1.093.024 1.071.09 1.03.155.956.215.869.268.757.322.63.362.486.396.329.422.167.434v.44l-.167.436-.333.419M435.18 650.288l-1.046.137-1.094.071-1.11.003-1.104-.07-1.067-.132-1.01-.201-.931-.257-.823-.312-.697-.357-.558-.395-.406-.419-.242-.441-.072-.448.092-.444.262-.431.424-.408.57-.373.708-.335.83-.284.929-.228 1.007-.168 1.065-.101 1.093-.036 1.1.033 1.08.097 1.036.164.967.227.875.281.765.332.633.374.49.405.333.43.17.444-.004.446-.166.441-.336.424-.493.394-.64.361-.77.313-.885.262-.975.201M363.346 662.128l-.99.235-1.065.166-1.111.101-1.133.027-1.125-.041-1.096-.116-.986-.17M426.375 672.223a1.473 1.473 0 0 0-.167.506M440.774 673.608l-.034.056-.39.45-.55.421-.7.376-.831.326-.947.267-1.038.2-1.101.133-1.144.058-1.156-.018-1.14-.09-1.103-.163-1.03-.23-.94-.298-.826-.348-.693-.396-.541-.436M395.112 677.972l-.018.081-.012.087M409.766 678.216l-.022-.133-.134-.383M409.495 679.261l-.281.271-.596.424-.743.376-.87.325-.976.263-1.065.196-1.124.124-1.16.05-1.164-.025-1.144-.102-1.096-.175-1.018-.245-.92-.307-.802-.361-.661-.408-.399-.338M325.623 665.512l.567 1.376.783 1.501.957 1.487 1.136 1.47 1.304 1.451 1.475 1.424 1.642 1.399 1.81 1.368 1.97 1.335 2.127 1.296 2.278 1.254 2.43 1.21 2.573 1.162 2.71 1.11 2.845 1.061 2.968.999 3.085.94 3.199.878 3.3.814 3.396.746 3.484.679M371.662 690.472l3.56.607 3.633.533 3.69.46 3.742.385 3.784.307 3.817.23 3.836.152 3.852.074 3.851-.008 3.844-.085 3.825-.164 3.8-.243 3.76-.32 3.714-.396 3.656-.47 3.592-.547 3.517-.617 3.433-.69 3.342-.756 3.24-.824 3.135-.888 3.017-.95 2.896-1.008 2.766-1.066 2.63-1.118 2.489-1.167 2.344-1.216 2.193-1.26 2.036-1.299 1.875-1.339 1.714-1.372 1.196-1.086" style="fill:none;stroke:#00ff4a;stroke-width:.999997;stroke-linecap:round;stroke-linejoin:round;stroke-miterlimit:500;stroke-dasharray:none;stroke-opacity:1;visibility:visible"/><path d="m478.675 655.599-.448-.952-.972-1.268-1.022-1.439-1.18-1.413-1.333-1.387-1.52-1.32-1.556-1.212-1.772-1.29-1.908-1.256-2.044-1.215-2.17-1.174-1.91-.876-2.293-.987" style="fill:none;stroke:#00ff4a;stroke-width:1.99999;stroke-linecap:round;stroke-linejoin:round;stroke-miterlimit:500;stroke-dasharray:none;stroke-opacity:1;visibility:visible"/><path d="m326.949 653.376-.766 1.464-.598 1.479-.435 1.493-.259 1.505-.09 1.514.082 1.516.26 1.518.437 1.515.043.132" style="fill:none;stroke:#00ff4a;stroke-width:.999997;stroke-linecap:round;stroke-linejoin:round;stroke-miterlimit:500;stroke-dasharray:none;stroke-opacity:1;visibility:visible"/><path d="m360.87 633.955-2.235.59-2.861.835-1.584.507M351.912 636.653l-1.578.558-2.567.993-2.46 1.043-2.343 1.09-.802.411M330.897 648.459l-.687.666-1.243 1.392-1.09 1.419-.927 1.44" style="fill:none;stroke:#00ff4a;stroke-width:1.99999;stroke-linecap:round;stroke-linejoin:round;stroke-miterlimit:500;stroke-dasharray:none;stroke-opacity:1;visibility:visible"/><path d="M420.474 636.959a156.991 156.991 0 0 0-22.815-1.075M433.119 639.101l2.267.519 2.802.713 2.719.772 2.628.827 2.53.88 2.428.932 2.318.983 1.768.826M454.159 646.35l.935.483 1.953 1.116 1.82 1.159 1.685 1.197 1.539 1.231 1.393 1.265 1.24 1.292 1.086 1.319.928 1.343.762 1.362.596 1.379.43 1.392.168.921M463.782 674.219l-.5.505-1.472 1.292-1.635 1.26-1.795 1.225-1.953 1.187-2.104 1.142-2.253 1.097-2.392 1.048-2.53.994-2.656.942-2.776.878-2.89.822-2.998.753-3.093.69-3.183.617-3.262.551-3.334.474-3.393.404-3.443.327-3.484.249-3.516.173-3.533.095-3.545.016-3.544-.06-3.531-.141-3.51-.216-3.481-.296-3.433-.37-3.384-.446M366.927 686.559l-1.56-.415-2.87-.856-2.757-.916-2.633-.972-2.503-1.027-2.368-1.077-2.226-1.127-2.075-1.168-1.925-1.21-1.768-1.248-1.604-1.283-1.44-1.308-1.274-1.336-1.1-1.359-.931-1.376-.755-1.391-.58-1.402-.404-1.408-.232-1.412-.055-1.41.117-1.404.292-1.398.458-1.388.63-1.368.796-1.355.954-1.328.498-.585M360.934 641.672l.753-.25M424.246 672.021a3.055 3.055 0 0 0-.956.982M441.432 648.013l.01.008.41.414.304.445.162.432.04.432-.089.45-.211.413-.154.208-.18.195-.48.4-.564.354-.33.167-.341.158-.811.304-.86.252-.935.21-1.053.177-1.054.119-1.09.072-1.176.024-1.12-.028-1.114-.071-1.153-.128M429.643 653.02l-.021-.004-1.07-.17-1.026-.21-1.016-.269-.894-.292-.812-.327-.752-.375-.614-.381-.506-.401-.41-.441-.263-.427-.144-.433-.019-.454.11-.423.1-.21.133-.204.371-.415.369-.296M407.282 647.523l-.019.005-1.528.252-1.672.159-1.675.048-1.724-.06-1.63-.163-1.578-.27-1.396-.356M416.224 639.613a139.124 139.124 0 0 0-25.213-1.108M429.506 641.439l2.702.63 2.626.688 2.536.746 2.442.8 2.344.852 2.238.905 2.12.95 2.002 1 1.875 1.04 1.745 1.084.435.302M454.194 651.61l1.013.8 1.317 1.186.596.625" style="fill:none;stroke:#00ff4a;stroke-width:.999997;stroke-linecap:round;stroke-linejoin:round;stroke-miterlimit:500;stroke-dasharray:none;stroke-opacity:1;visibility:visible"/><path d="m457.678 671.663-1.2 1.241-1.368 1.212-1.531 1.183-1.69 1.145-1.846 1.107-1.991 1.065-2.137 1.019-2.276.965-2.404.916-2.53.857-2.651.799-2.754.738-2.854.67-2.946.607-3.028.536-3.1.464-3.161.392-3.213.318-3.255.24-3.284.166-3.305.09-3.315.012-3.312-.065-3.303-.141-3.276-.222-3.242-.292-3.198-.37-.862-.122M365.212 681.784l-2.492-.9-2.365-.95-2.23-1.006-2.095-1.048-1.946-1.097-1.793-1.136-1.641-1.171-1.476-1.207-1.316-1.234-1.148-1.258-.976-1.28-.808-1.297-.632-1.31-.459-1.316-.287-1.324-.108-1.326.062-1.323.234-1.314.404-1.307.572-1.287.74-1.272.9-1.251.483-.563" style="fill:none;stroke:#00ff4a;stroke-width:.999997;stroke-linecap:round;stroke-linejoin:round;stroke-miterlimit:500;stroke-dasharray:none;stroke-opacity:1;visibility:visible"/><path d="m363 665.255-1.658.26-1.768.148-1.728.022-1.734-.101-1.592-.215-1.5-.339-1.282-.43-1.098-.537-.994-.763-.484-.66-.206-.72.088-.708.386-.727.368-.382M364.186 677.924l-1.19-.543-.985-.646-.689-.696-.422-.767-.117-.77.184-.799.468-.756.392-.382M411.855 677.763l.361.313.548.764.263.82-.036.804-.347.812-.624.75-.92.71-1.14.615-1.394.532-1.956.49-1.687.248-1.808.119-1.776-.021-1.796-.164-1.667-.29-1.578-.424-1.362-.524-1.182-.637-.907-.7-.65-.777-.347-.791-.051-.827.25-.793.549-.783.4-.349M442.995 672.915l.335.324.49.781.19.775-.11.794-.547.931-.749.676-1.033.621-1.235.513-1.472.415-1.582.29-1.743.164-1.752.028-1.813-.107-1.72-.232-1.67-.365-1.488-.47-1.344-.582-1.085-.648-.863-.734-.561-.756-.287-.796.018-.766.316-.771M410.844 644.517a1.83 1.83 0 0 0 .656-1.529M410.844 644.517l-.544.451-.696.415-.833.376-.953.321-1.058.27-1.14.207-1.202.144-1.243.074-1.257.005-1.251-.063-1.216-.132-1.164-.197-1.085-.259-.992-.314-.871-.368-.743-.41-.596-.445-.437-.473-.275-.494-.105-.501.008-.232M441.464 648.157l-.004.359-.157.504-.325.492-.49.465-.644.433-.79.391-.911.343-1.031.288-1.12.225" style="fill:none;stroke:#00ff4a;stroke-width:.999997;stroke-linecap:round;stroke-linejoin:round;stroke-miterlimit:500;stroke-dasharray:none;stroke-opacity:1;visibility:visible"/><path d="m435.992 651.657-1.19.163-1.24.093-1.263.024-1.269-.046-1.24-.118-1.196-.183-1.128-.247-1.04-.308-.926-.36-.8-.406-.658-.446-.506-.474-.344-.497-.172-.507-.01-.449M365.194 682.439l.002-.029M447.979 657.488l-1.076-.144-1.107-.075-1.114-.001-1.1.07-1.047.137-.981.206M363.148 657.359l-.984-.212-1.054-.144-1.1-.075-1.115-.001-1.108.069-1.07.139-1.01.205-.919.268-.813.324-.681.37-.534.411-.374.436-.207.456-.033.183M363.195 663.75l-.18.04-1.22.187-1.267.115-1.292.041-1.289-.029-1.265-.104-1.216-.172-1.142-.241-1.048-.307-.936-.36-.804-.41-.658-.455-.5-.486-.334-.512-.16-.524-.007-.39M440.774 672.95a1.813 1.813 0 0 0-.636-1.138M440.138 671.813l-.548-.426-.695-.391-.83-.339-.941-.284-1.026-.217-1.094-.15-1.126-.081h-1.142l-1.12.071-1.072.145-1.002.215-.91.279-.79.335-.649.387-.498.427-.32.439M376.93 670.752l-.798-.341M443.082 673.324l.008.115-.071.55-.25.539-.424.519-.589.486-.745.448-.888.399-1.01.343-1.121.277-1.202.212-1.268.137-1.304.064-1.32-.01-1.308-.091-1.271-.163-1.213-.234-1.128-.299-1.028-.363-.9-.413-.763-.463-.607-.497M423.89 673.035a2.173 2.173 0 0 0 .79 1.844M363.28 675.368l-.643-.48-.477-.515-.304-.536-.13-.549.004-.308M409.61 677.701l-.058-.101-.364-.465-.532-.435-.685-.396-.82-.345-.932-.289-1.028-.221-1.095-.153-1.134-.077-1.15-.004-1.132.073-1.092.15-1.02.214-.93.285-.812.343-.676.393-.519.432-.357.463-.162.403M412.096 678.57l.006.075-.052.559-.235.552-.41.533-.573.504-.738.467-.88.417-1.008.363-1.118.3-1.205.233-1.27.16-1.315.084-1.329.006-1.321-.07-1.29-.148-1.229-.22-1.146-.288-1.047-.352-.924-.41-.782-.46-.628-.497-.464-.528-.292-.55-.111-.56.012-.27" style="fill:none;stroke:#00ff4a;stroke-width:.999997;stroke-linecap:round;stroke-linejoin:round;stroke-miterlimit:500;stroke-dasharray:none;stroke-opacity:1;visibility:visible"/><path d="M402.995 648.841a1.88 1.88 0 0 0-.735.454M406.195 648.841a5.03 5.03 0 0 0-1.364-.254c-.18-.023-.433-.002-.433-.002a4.98 4.98 0 0 0-1.403.256" style="fill:none;stroke:#00ff4a;stroke-width:.666665;stroke-linecap:round;stroke-linejoin:round;stroke-miterlimit:2;stroke-dasharray:none;stroke-opacity:1;visibility:visible"/><path d="m386.696 628.919 2.342-.175 3.416-.163 3.496-.08 3.566.004 3.627.088 3.677.175 3.72.255 3.754.34 3.778.424.806.106M436.959 633.11l3.711.89 3.666.965 3.612 1.031 3.548 1.097 3.478 1.235 3.396 1.373" style="fill:none;stroke:#00ff4a;stroke-width:1.99999;stroke-linecap:round;stroke-linejoin:round;stroke-miterlimit:500;stroke-dasharray:none;stroke-opacity:1;visibility:visible"/><path d="m385.692 646.992-.032.056-.391.45-.551.421M385.496 647.09a1.059 1.059 0 0 0 .191-.772M375.548 646.225l1.052-.095 1.091-.035 1.112.033 1.095.095 1.072.157 1.008.216.932.268.836.308.704.33.416.252M386.959 644.779l-.33-.289-.721-.491-.844-.436-.951-.378-1.038-.313-1.105-.25-1.16-.186-1.195-.116-1.21-.05-1.215.02-1.192.087M387.991 646.717a3.056 3.056 0 0 0-1.03-1.937M375.784 637.896l2.28-.453 2.851-.49 1.061-.155M391.026 635.899l.689-.039 2.516-.048 3.43.072" style="fill:none;stroke:#00ff4a;stroke-width:.999997;stroke-linecap:round;stroke-linejoin:round;stroke-miterlimit:500;stroke-dasharray:none;stroke-opacity:1;visibility:visible"/><path d="M385.692 646.333a1.813 1.813 0 0 0-.636-1.136M385.056 645.197l-.546-.426-.696-.391-.831-.339-.94-.284-1.025-.217-1.095-.15-1.127-.08-1.14-.001-1.121.071-1.073.145M387.999 646.708l.008.115-.07.55-.251.539-.424.519M387.912 646.3l.336.324.49.781.19.775" style="fill:none;stroke:#00ff4a;stroke-width:.999997;stroke-linecap:round;stroke-linejoin:round;stroke-miterlimit:500;stroke-dasharray:none;stroke-opacity:1;visibility:visible"/><path d="m410.844 644.517-1.956 1.811M423.179 647.288l2.204-3.163M426.284 648.879l3.252-8.615" style="fill:none;stroke:#00ff4a;stroke-width:1.99999;stroke-linecap:round;stroke-linejoin:round;stroke-miterlimit:500;stroke-dasharray:none;stroke-opacity:1;visibility:visible"/><path d="m398.1 695.54 7.887.05M395.484 695.448l13.462.067M408.946 695.515l-13.462-.067M405.987 695.59l-7.887-.05M376.132 670.411l1.975-.536M365.212 681.784 376.14 669.2M355.84 662.33l7.387-2.2M429.536 640.264l9.563 16.995M355.84 662.33l6.586-6.189M429.536 640.264l-3.252 8.615M402.995 648.841l-6.61-4.793M435.992 651.657l-.812-1.369M435.992 651.657l-.812-1.369" style="fill:none;stroke:#00ff4a;stroke-width:.999997;stroke-linecap:round;stroke-linejoin:round;stroke-miterlimit:500;stroke-dasharray:none;stroke-opacity:1;visibility:visible"/><path d="m360.934 641.672-.064-7.717M351.912 636.653l2.278-.766M354.19 635.887l-2.278.766" style="fill:none;stroke:#00ff4a;stroke-width:1.99999;stroke-linecap:round;stroke-linejoin:round;stroke-miterlimit:500;stroke-dasharray:none;stroke-opacity:1;visibility:visible"/><path d="m429.643 653.02-9.169-16.061M429.643 653.02l3.476-13.919M454.159 646.35l-1.58-.797M452.579 645.553l1.58.797M371.662 690.472l9.497-1.041M351.547 687.515l15.38-.956M360.87 633.955l.064 7.717M354.19 635.887l7.497 5.535M402.995 648.841l4.287-1.318M406.195 648.841l-10.135-1.703M429.643 653.02l-13.419-13.407M397.661 635.884l-6.65 2.621M429.643 653.02l-.137-11.581M454.194 651.61l-1.623-1.174M452.571 650.436l1.623 1.174M371.662 690.472l12.984-4.279M376.132 670.411l-11.946 7.513M448.602 656.547l-.623.941M435.992 651.657l5.562 6.024M355.84 662.33l7.308-4.971M378.107 669.875l-1.975.536" style="fill:none;stroke:#00ff4a;stroke-width:.999997;stroke-linecap:round;stroke-linejoin:round;stroke-miterlimit:500;stroke-dasharray:none;stroke-opacity:1;visibility:visible"/><path d="m381.976 636.798 4.72-7.879" style="fill:none;stroke:#00ff4a;stroke-width:1.99999;stroke-linecap:round;stroke-linejoin:round;stroke-miterlimit:500;stroke-dasharray:none;stroke-opacity:1;visibility:visible"/><path d="m381.976 636.798-6.428 9.427M381.976 636.798l-5.978 5.579M360.87 633.955l14.914 3.941M375.998 642.377l5.978-5.579M381.976 636.798l-6.514 6.727" style="fill:none;stroke:#00ff4a;stroke-width:.999997;stroke-linecap:round;stroke-linejoin:round;stroke-miterlimit:500;stroke-dasharray:none;stroke-opacity:1;visibility:visible"/><path d="m407.282 647.523 5.309 7.107" style="fill:none;stroke:red;stroke-width:1.99999;stroke-linecap:round;stroke-linejoin:round;stroke-miterlimit:500;stroke-dasharray:none;stroke-opacity:1;visibility:visible" visibility="hidden"/><path d="m426.284 648.879-14.874 12.796M384.866 647.754l7.741 10.741" style="fill:none;stroke:red;stroke-width:.999997;stroke-linecap:round;stroke-linejoin:round;stroke-miterlimit:500;stroke-dasharray:none;stroke-opacity:1;visibility:visible" visibility="hidden"/><path d="m380.784 668.905-3.646 5.53M381.364 668.687l-4.934 6.076M355.84 662.33l7.355 8.394M455.15 657.737l-4.892-.827M355.84 662.33l7.506-.202M457.956 657.412l5.826 16.807M457.867 655.938l-.747-1.717M457.956 657.412l-.278 14.251M357.186 641.267l-10.351 13.34M380.555 668.216 363 665.255M355.84 662.33l7.355 1.42" style="fill:none;stroke:#00ff4a;stroke-width:.999997;stroke-linecap:round;stroke-linejoin:round;stroke-miterlimit:500;stroke-dasharray:none;stroke-opacity:1;visibility:visible"/><path d="m422.528 632.425-3.65-2.532M425.166 628.335l11.793 4.775" style="fill:none;stroke:#00ff4a;stroke-width:1.99999;stroke-linecap:round;stroke-linejoin:round;stroke-miterlimit:500;stroke-dasharray:none;stroke-opacity:1;visibility:visible"/></svg>