<svg xmlns="http://www.w3.org/2000/svg" baseProfile="full" height="793.701" preserveAspectRatio="xMinYMin meet" style="width:912px;height:1303px" width="559.371" xml:space="preserve"><path d="m390.934 686.57 1.472.123 1.472.108 1.479.088 1.48.061 1.478.041 1.474.026h1.478l1.467-.02 1.465-.047 1.452-.061 1.446-.082 1.437-.109 1.42-.123 1.41-.148 1.4-.17 1.375-.183 1.364-.21 1.346-.231 1.322-.251 1.303-.264 1.275-.285 1.262-.314 1.228-.325 1.202-.34 1.18-.365 1.148-.38 1.118-.394 1.086-.414 1.052-.434 1.025-.442.99-.467.95-.475.923-.496.876-.509.846-.515.802-.536.768-.55.726-.556.686-.57M244.35 639.646l.148.692.197.685.246.692.292.686.338.685.387.679.427.678.482.672.522.666.562.657.612.659.658.644.7.638.738.631.782.617.82.611.862.597.903.591.936.57.977.57 1.011.55 1.052.535 1.079.523 1.113.51M260.194 654.683l2.55 1.112 2.586 1.1 2.612 1.087 2.641 1.064 2.672 1.057 2.702 1.032 2.734 1.025 2.755 1.004 2.781.984 2.816.971 2.838.956 2.862.937 2.89.918 2.913.901 2.937.881 2.96.863 2.984.85 3 .826 3.027.808 3.047.793 3.073.774 3.088.752 3.1.733 3.13.713 3.14.699 3.162.672 3.176.657 3.19.639 3.208.61 3.224.598 3.236.576 3.251.557 3.264.536 3.27.51 3.293.496 3.297.473 3.304.448 3.317.435 3.327.408 3.33.393 3.347.365 3.344.347 3.36.327M402.835 679.511l-.101-.095-.075-.128-.041-.15-.007-.17" style="fill:none;stroke:red;stroke-width:.999997;stroke-linecap:round;stroke-linejoin:round;stroke-miterlimit:4;stroke-dasharray:none;stroke-opacity:1;visibility:visible" visibility="hidden"/><path d="m443.013 682.293-.264.557-.299.543-.32.543-.352.529-.38.53-.408.515-.433.508-.467.503-.49.495-.516.489-.536.481-.57.47-.59.46-.618.448-.638.448-.666.428-.69.428-.712.413-.734.407-.761.393-.773.387-.8.373-.822.36-.841.359-.861.34-.883.333-.901.319-.918.312-.936.298-.957.284-.97.272-.985.266-1.004.25-1.016.238-1.032.224-1.046.217-1.059.196-1.072.19-1.079.178-1.092.161-1.106.151-1.119.135-1.12.124-1.133.108-1.14.101-1.147.08-1.16.075-1.161.054-1.16.042-1.175.034-1.172.012-1.175.007-1.18-.007-1.18-.026-1.182-.035-1.18-.053-1.182-.062-1.18-.074-1.18-.095-1.174-.103M242.768 647.74l.448-8.781M315.848 601.088l.932-.236 2.245-.556 2.259-.543 2.273-.53 2.288-.522 2.3-.502 2.314-.496 2.334-.482 2.34-.466 2.355-.456 2.376-.448 2.381-.435 2.396-.413 2.408-.408 2.423-.394 2.43-.386 2.443-.366 2.456-.353 2.463-.347 2.477-.332 2.483-.312 2.497-.306 2.504-.291M259.413 621.874l.155-.081 1.69-.862 1.71-.862 1.738-.848 1.751-.842 1.777-.826 1.798-.815 1.818-.815 1.847-.793 1.857-.795 1.882-.773 1.898-.767 1.928-.76 1.942-.745 1.96-.735 1.98-.725 2.002-.719 2.016-.7.47-.158M369.226 591.508l1.125-.121 1.134-.108 1.14-.096 1.154-.082 1.154-.068 1.16-.054.677-.024M413.164 596.537l.807.317.929.375.903.393.889.394.868.408.848.42.828.428.808.433.787.443.76.453.746.456.719.467.692.474.679.483.645.496.624.495.604.502.57.508.55.516.521.53.503.522M446.942 669.835l-.007.048-.189.963-.212.964-.223.964-.252.962-.264.958-.285.964-.299.95-.318.956-.34.95-.36.95-.379.943-.393.944-.408.943M390.315 697.907l-2.627-.25-2.625-.265-2.619-.28-2.62-.29-2.605-.306-2.605-.318-2.607-.334-2.592-.345-2.592-.353-2.579-.367-2.577-.387-2.573-.393-2.566-.408-2.549-.421-2.547-.426-2.544-.448-2.53-.454-2.518-.475-2.517-.483-2.504-.489-2.49-.508-2.485-.515-2.476-.537-2.462-.543-2.456-.549-2.443-.57-2.43-.577-2.416-.59-2.408-.604-2.396-.611-2.382-.624-2.368-.639-2.354-.644-2.342-.658-2.334-.671-2.314-.679-2.3-.692-2.286-.706-2.267-.712-2.26-.727-2.24-.739-2.225-.746-2.211-.755-2.193-.765-2.18-.782-2.156-.786-2.144-.8-2.124-.808-2.111-.815-2.088-.827-2.077-.842-2.05-.848-2.036-.855-2.021-.868-1.996-.876M259.298 665.947l-.89-.401-.867-.414-.848-.421-.822-.428-.808-.44-.786-.441-.759-.462-.74-.461-.713-.468-.699-.481-.665-.49-.646-.488-.624-.502-.589-.508-.57-.516-.55-.523-.515-.523-.489-.536-.47-.536-.433-.544-.414-.548-.38-.557-.352-.556-.327-.57-.297-.563-.266-.576-.237-.578-.204-.577-.155-.508-.129-.51-.11-.514-.087-.51-.055-.517-.04-.514-.008-.51.015-.516" style="fill:none;stroke:red;stroke-width:1.99999;stroke-linecap:round;stroke-linejoin:round;stroke-miterlimit:4;stroke-dasharray:none;stroke-opacity:1;visibility:visible" visibility="hidden"/><path d="m277.768 628.388-.068-.223-.108-.218-.156-.21-.204-.21-.244-.196-.277-.191-.327-.176-.353-.163-.387-.144-.405-.128-.436-.114-.454-.09-.469-.068-.475-.054-.482-.027-.475-.007-.475.014-.461.041-.455.055-.428.081-.406.101-.38.116-.346.136-.318.156-.272.17-.238.182-.197.191-.15.203-.1.21-.055.21-.007.224.041.218.088.216.136.218.176.21.223.204.265.196.299.184.339.17.374.149.4.141.422.116.44.103.461.081.475.062.474.04.483.014h.476l.467-.029.462-.047.44-.066.415-.096.393-.108.367-.13.333-.142.298-.163.257-.17.212-.189.17-.198.127-.21.082-.209.028-.219-.015-.217" style="fill:none;stroke:red;stroke-width:.999997;stroke-linecap:round;stroke-linejoin:round;stroke-miterlimit:4;stroke-dasharray:none;stroke-opacity:1;visibility:visible" visibility="hidden"/><path d="m271.273 628.267 1.005.788h1.531l.744-.832" style="fill:none;stroke:red;stroke-width:.999997;stroke-linecap:round;stroke-linejoin:round;stroke-miterlimit:4;stroke-dasharray:none;stroke-opacity:1;visibility:visible" visibility="hidden"/><path d="m340.631 633.667-.008-.033-.007-.027M340.617 633.607v-.013" style="fill:none;stroke:#00ff4a;stroke-width:.999997;stroke-linecap:round;stroke-linejoin:round;stroke-miterlimit:4;stroke-dasharray:none;stroke-opacity:1;visibility:visible" visibility="hidden"/><path d="M223.04 598.43v.02" style="fill:none;stroke:#00ff4a;stroke-width:1.99999;stroke-linecap:round;stroke-linejoin:round;stroke-miterlimit:4;stroke-dasharray:none;stroke-opacity:1;visibility:visible" visibility="hidden"/><path d="m214.79 413.629-.299.047-.284.081-.25.11-.239.135-.204.15-.176.169-.156.184-.13.196-.107.23-.075.238-.047.265v.271M226.082 610.081l.007.007v.013M224.976 414.335h0" style="fill:none;stroke:#00ff4a;stroke-width:.999997;stroke-linecap:round;stroke-linejoin:round;stroke-miterlimit:4;stroke-dasharray:none;stroke-opacity:1;visibility:visible" visibility="hidden"/><path d="m223.04 598.443.083 1.01.114.998.138 1.005.168.991M223.04 598.443h0" style="fill:none;stroke:#00ff4a;stroke-width:1.99999;stroke-linecap:round;stroke-linejoin:round;stroke-miterlimit:4;stroke-dasharray:none;stroke-opacity:1;visibility:visible" visibility="hidden"/><path d="m341.885 645.555-2.748-10.177-70.494-.135M268.642 635.243l-1.23-.028-1.22-.061-1.215-.108-1.215-.143-1.2-.19-1.188-.225-1.18-.27-1.161-.306-1.154-.345-1.126-.388-1.112-.42-1.094-.463-1.072-.501-1.045-.536-1.024-.57-.99-.605-.971-.637-.936-.67-.91-.707-.874-.732-.842-.768-.808-.794-.773-.821-.733-.848-.7-.876-.664-.904-.619-.92-.583-.944-.534-.964-.504-.984-.454-.997-.408-1.018-.366-1.032-.326-1.045-.277-1.05-.239-1.074-.182-1.07-.143-1.087-.101-1.086M226.09 610.1l.108 1.27.156 1.269.197 1.261.251 1.25.292 1.24.339 1.235.386 1.215.428 1.208.475 1.19.523 1.171.564 1.16.604 1.14.644 1.12.685 1.094.733 1.077.767 1.052.807 1.032.848.997.884.978.921.95.95.915.991.896 1.024.856 1.06.828 1.086.8 1.112.76.758.48M237.468 609.035v-.007l-13.219-193.683" style="fill:none;stroke:#00ff4a;stroke-width:.999997;stroke-linecap:round;stroke-linejoin:round;stroke-miterlimit:4;stroke-dasharray:none;stroke-opacity:1;visibility:visible" visibility="hidden"/><path d="m224.25 415.346-.033-.244-.07-.245-.1-.21-.124-.196-.142-.17-.162-.15-.176-.134-.19-.116-.218-.095-.237-.076-.272-.053-.277-.015-7.242-.025M215.007 413.616l-.108.005-.11.008M212.823 415.705l13.259 194.36v.016M341.811 646.045l.015-.021.018-.067.016-.103.012-.134.014-.164M339.138 635.377l.007-.19v-.407l-.007-.191-.007-.176-.013-.141-.015-.118M237.468 609.056v-.021M213.813 406.062l1.161 6.36" style="fill:none;stroke:#00ff4a;stroke-width:.999997;stroke-linecap:round;stroke-linejoin:round;stroke-miterlimit:4;stroke-dasharray:none;stroke-opacity:1;visibility:visible" visibility="hidden"/><path d="m225.077 414.89-.013.088-.055.081-.101.082-.13.076-.156.06-.176.04-.197.028" style="fill:none;stroke:#00ff4a;stroke-width:.999997;stroke-linecap:round;stroke-linejoin:round;stroke-miterlimit:4;stroke-dasharray:none;stroke-opacity:1;visibility:visible" visibility="hidden"/><path d="M223.04 598.443v.007M210.672 408.967v.013l.007.008" style="fill:none;stroke:#00ff4a;stroke-width:1.99999;stroke-linecap:round;stroke-linejoin:round;stroke-miterlimit:4;stroke-dasharray:none;stroke-opacity:1;visibility:visible" visibility="hidden"/><path d="m337.035 623.303 2.07 11.312M342.687 644.919l.007.033.006.027M342.687 644.919l-.005.101-.05.102-.086.102-.131.103-.156.093-.183.076-.19.06M342.687 644.919l-2.07-11.312" style="fill:none;stroke:#00ff4a;stroke-width:.999997;stroke-linecap:round;stroke-linejoin:round;stroke-miterlimit:4;stroke-dasharray:none;stroke-opacity:1;visibility:visible" visibility="hidden"/><path d="m337.868 623.428-.061-.163-.102-.142-.136-.115-.162-.088-.182-.055-.19-.02M337.868 623.415v.012" style="fill:none;stroke:#00ff4a;stroke-width:1.99999;stroke-linecap:round;stroke-linejoin:round;stroke-miterlimit:4;stroke-dasharray:none;stroke-opacity:1;visibility:visible" visibility="hidden"/><path d="m337.034 622.845-.013-.055-.014-.034-.013-.014M225.044 414.6l.007.06M225.044 414.6h0M340.617 633.593h0v.021h.007v.026h.008v.028" style="fill:none;stroke:#00ff4a;stroke-width:.999997;stroke-linecap:round;stroke-linejoin:round;stroke-miterlimit:4;stroke-dasharray:none;stroke-opacity:1;visibility:visible" visibility="hidden"/><path d="m223.544 602.447 2.063 11.317" style="fill:none;stroke:#00ff4a;stroke-width:1.99999;stroke-linecap:round;stroke-linejoin:round;stroke-miterlimit:4;stroke-dasharray:none;stroke-opacity:1;visibility:visible" visibility="hidden"/><path d="m268.045 645.902 73.766.143M244.092 639.49l.921.53.93.509.957.488.964.468.979.441.989.421 1.004.4 1.012.382 1.03.35 1.033.327 1.05.305 1.052.286 1.067.257 1.07.237 1.08.211 1.086.183 1.092.162 1.099.138 1.1.114 1.105.088 1.107.062 1.113.04 1.112.013" style="fill:none;stroke:#00ff4a;stroke-width:.999997;stroke-linecap:round;stroke-linejoin:round;stroke-miterlimit:4;stroke-dasharray:none;stroke-opacity:1;visibility:visible" visibility="hidden"/><path d="m225.607 613.765.196.977.217.971.252.97.271.957.307.956.324.944.36.937.381.93.407.914.433.904.456.896.488.888.51.868.529.861.557.843.583.833.602.823.631.801.652.787.673.773.691.76.719.74.741.719.76.705.772.692.801.666.815.65.835.632.854.61.876.6.89.569.902.548M223.87 408.18l1.175 6.419M225.051 414.66l.013.056.006.06.008.053v.062l12.98 190.21M223.04 598.43l-12.37-189.464M210.672 408.967v-.217l.013-.211.028-.216.047-.21.068-.211.088-.203.101-.204.122-.19.137-.183.156-.178.17-.162.177-.15.196-.141.21-.123.216-.109.224-.095.238-.073.245-.063.244-.04.25-.02.171-.006 7.234.006" style="fill:none;stroke:#00ff4a;stroke-width:1.99999;stroke-linecap:round;stroke-linejoin:round;stroke-miterlimit:4;stroke-dasharray:none;stroke-opacity:1;visibility:visible" visibility="hidden"/><path d="m221.006 405.968.244.007.244.026.244.048.232.067.23.081.223.104.211.115.204.135.183.149.169.163.156.177.137.19.115.189.101.204.082.212.061.216.013.048" style="fill:none;stroke:#00ff4a;stroke-width:1.99999;stroke-linecap:round;stroke-linejoin:round;stroke-miterlimit:4;stroke-dasharray:none;stroke-opacity:1;visibility:visible" visibility="hidden"/><path d="M342.7 644.98v.013l.007.014v.048l.006.021v.121l-.006.02v.048l-.007.014v.033l-.007.015v.014l-.006.012v.02l-.007.015-.008.012v.015l-.007.018-.006.015-.007.013-.007.015v.013l-.006.02-.007.014-.007.013-.008.013-.005.015-.013.013-.008.014-.007.013-.005.015-.008.012-.012.016-.008.012-.007.013-.013.013-.007.015-.015.007-.006.013-.014.013-.006.012-.014.01-.006.012-.015.014-.013.006-.006.013-.014.015-.014.006-.013.015-.008.007-.012.013-.015.005-.013.008-.013.014-.014.006-.014.007-.012.015-.015.005-.013.008-.014.005-.013.007-.013.008-.014.007-.014.006-.014.007-.013.007-.013.006-.022.008-.012.006-.014.006h-.014l-.013.008-.021.007h-.014l-.012.007-.014.006h-.02l-.015.007h-.032l-.016.007h-.047l-.013.006h-.061" style="fill:none;stroke:#00ff4a;stroke-width:.999997;stroke-linecap:round;stroke-linejoin:round;stroke-miterlimit:4;stroke-dasharray:none;stroke-opacity:1;visibility:visible" visibility="hidden"/><path d="m337.868 623.415 2.75 10.177M336.995 622.743h.06l.015.007h.046l.007.006h.041l.007.008h.013l.014.007h.02l.014.005h.006l.013.007h.015l.006.008h.015l.012.007h.007l.013.006.008.007h.013l.014.007.006.006h.014l.006.006.015.008.012.008.008.006h.013l.007.006.015.006.006.008.012.007.007.007.015.006.006.007.007.008.015.007.005.005.013.007.007.008.007.005.014.008.007.005.013.008.007.007.007.007.008.013.013.007.007.006.006.007.006.008.014.013.007.007.007.007.006.006.007.014.008.006.005.008.015.012.007.007.005.015.008.006.007.006.008.016.004.005.008.015.006.005.008.015v.006l.006.014.006.006.007.014.008.008.005.012v.006l.007.015.008.007.007.013v.013l.008.007.005.013v.007l.008.015v.013l.005.007.008.013v.015l.007.005v.015l.005.013M266.503 622.607l70.49.136M238.058 605.1l.284.652.36.78.388.765.421.754.44.74.468.726.49.719.524.699.534.685.571.665.59.659.61.632.637.617.652.603.678.584.7.564.718.543.74.522.755.503.773.48.794.455.808.441.826.415.835.386.856.374.87.34.88.325.889.29.902.273.916.252.924.214.93.199.936.175.942.144.958.114.956.096.957.067.964.041.97.014M223.04 598.43l.063.807.081.808.101.806.122.802.136.794" style="fill:none;stroke:#00ff4a;stroke-width:1.99999;stroke-linecap:round;stroke-linejoin:round;stroke-miterlimit:4;stroke-dasharray:none;stroke-opacity:1;visibility:visible" visibility="hidden"/><path d="m335.47 628.406-.068-.223-.108-.218-.156-.21-.204-.21-.244-.196-.277-.191-.327-.176-.353-.163-.387-.144-.405-.128-.436-.114-.454-.09-.469-.068-.475-.054-.482-.027-.475-.007-.475.014-.461.041-.455.055-.428.081-.406.101-.38.116-.346.136-.318.156-.272.17-.238.182-.197.191-.15.203-.1.21-.055.21-.007.224.041.218.088.216.136.218.176.21.223.204.265.196.299.184.339.17.374.149.4.141.422.116.44.103.461.081.475.062.474.04.483.014h.476l.467-.029.462-.047.44-.066.415-.096.393-.108.367-.13.333-.142.298-.163.257-.17.212-.189.17-.198.127-.21.082-.209.028-.219-.015-.217" style="fill:none;stroke:#00ff4a;stroke-width:.999997;stroke-linecap:round;stroke-linejoin:round;stroke-miterlimit:4;stroke-dasharray:none;stroke-opacity:1;visibility:visible" visibility="hidden"/><path d="m328.975 628.286 1.005.788h1.531l.744-.832M244.092 639.49l-.409-.946M224.25 415.346l-10.437-9.284M223.87 408.18l-8.896 4.242M337.868 623.415l-2.398 4.991M337.868 623.427l-2.398 4.979" style="fill:none;stroke:#00ff4a;stroke-width:.999997;stroke-linecap:round;stroke-linejoin:round;stroke-miterlimit:4;stroke-dasharray:none;stroke-opacity:1;visibility:visible" visibility="hidden"/><path d="m378.338 635.147.035-.11.013-.113M443.013 682.293l.041-.121.014-.128M392.283 650.415l.292-.075.312-.048.332-.034.34-.006.345.014.34.033.332.061.312.075.292.096.266.107.229.13.19.136.157.148.102.156.06.156.014.158-.04.154-.082.15-.129.142-.17.13-.21.114-.252.096-.277.082-.306.061-.318.041-.34.02h-.347l-.337-.026-.339-.05-.327-.066-.298-.083-.279-.108-.25-.115-.211-.136-.17-.142-.128-.15-.089-.156-.035-.156.015-.156.06-.156.103-.142.156-.136.19-.123.231-.108.264-.088M470.216 473.75l.15-.061.115-.082.074-.093.036-.11M403.9 667.78l.712.461.72.414.71.373.72.333.713.284.706.244.712.198.699.15.692.107.693.068.678.023.665-.03.665-.073.646-.116.638-.163M362.338 639.958l41.563 27.821M431.498 661.251v.007M431.498 661.258l-.17 1.201-.19 1.182-.223 1.16-.245 1.125-.272 1.107-.299 1.072-.318 1.045-.346 1.017-.373.984-.395.951-.42.923-.441.881-.468.848-.488.815-.51.781-.535.733-.551.706-.568.657-.599.624-.61.577-.631.543-.645.495-.664.456-.686.413-.692.373-.713.327-.725.284-.747.237M470.216 473.75l-11.31 3.29-27.409 184.21" style="fill:none;stroke:#9500ff;stroke-width:.999997;stroke-linecap:round;stroke-linejoin:round;stroke-miterlimit:4;stroke-dasharray:none;stroke-opacity:1;visibility:visible" visibility="hidden"/><path d="m382.77 634.19-.101-.047-.116-.028" style="fill:none;stroke:#9500ff;stroke-width:1.99999;stroke-linecap:round;stroke-linejoin:round;stroke-miterlimit:4;stroke-dasharray:none;stroke-opacity:1;visibility:visible" visibility="hidden"/><path d="m453.062 470.045 4.276 2.85M457.338 472.895l.136.101.136.108.128.13.121.136.116.144.108.148.103.162.101.17.088.164.083.169.075.17.066.175.068.184.055.183.055.183.038.184.043.202.035.198.026.204.012.196.015.217-.007.21-.013.211-.02.196M452.071 469.835l.17-.035h.163l.15.02.156.048.162.068.19.11" style="fill:none;stroke:#9500ff;stroke-width:.999997;stroke-linecap:round;stroke-linejoin:round;stroke-miterlimit:4;stroke-dasharray:none;stroke-opacity:1;visibility:visible" visibility="hidden"/><path d="m464.312 466.767.13-.027h.122l.116.027.095.055M464.312 466.767l-.183-.11-.17-.073-.147-.041-.15-.027h-.15l-.17.034" style="fill:none;stroke:#9500ff;stroke-width:1.99999;stroke-linecap:round;stroke-linejoin:round;stroke-miterlimit:4;stroke-dasharray:none;stroke-opacity:1;visibility:visible" visibility="hidden"/><path d="m431.498 661.258-.007.007M382.207 634.088l-.101-.02-.095.008" style="fill:none;stroke:#9500ff;stroke-width:.999997;stroke-linecap:round;stroke-linejoin:round;stroke-miterlimit:4;stroke-dasharray:none;stroke-opacity:1;visibility:visible" visibility="hidden"/><path d="m362.046 639.89.095-.007.094.022.103.054" style="fill:none;stroke:#9500ff;stroke-width:1.99999;stroke-linecap:round;stroke-linejoin:round;stroke-miterlimit:4;stroke-dasharray:none;stroke-opacity:1;visibility:visible" visibility="hidden"/><path d="m452.051 469.84.02-.005" style="fill:none;stroke:#9500ff;stroke-width:.999997;stroke-linecap:round;stroke-linejoin:round;stroke-miterlimit:4;stroke-dasharray:none;stroke-opacity:1;visibility:visible" visibility="hidden"/><path d="m422.27 660.64-.143.441-.23.651-.251.637-.259.612-.278.591-.291.57-.299.542-.312.523-.326.494-.339.475-.353.45-.36.426-.366.4-.38.375-.393.345-.393.327-.408.297-.42.272-.422.25-.434.218-.44.196-.45.177-.453.143" style="fill:none;stroke:#9500ff;stroke-width:1.99999;stroke-linecap:round;stroke-linejoin:round;stroke-miterlimit:4;stroke-dasharray:none;stroke-opacity:1;visibility:visible" visibility="hidden"/><path d="M451.834 655.103h0M452.071 469.835h0M451.841 655.097h0M359.351 650.394l-.005-.007-.015-.006-.007-.007-.006-.007-.014-.006-.008-.008-.005-.007-.013-.005-.008-.007-.007-.008-.007-.007-.014-.006-.006-.006-.006-.016-.007-.005-.007-.008-.013-.007-.007-.006-.008-.012-.005-.007-.007-.008-.008-.007-.006-.013-.007-.007-.007-.006-.006-.007-.006-.013-.008-.008-.006-.007-.008-.015-.007-.005-.005-.013-.008-.007-.007-.008-.007-.012-.006-.008-.007-.013v-.007l-.007-.013-.008-.007-.006-.013v-.008l-.006-.012-.008-.007-.005-.015v-.006l-.01-.014v-.006l-.005-.014-.006-.008v-.012l-.007-.008v-.013l-.007-.013v-.006l-.006-.014v-.007l-.007-.015v-.013l-.007-.007v-.02l-.006-.014v-.034l-.008-.013v-.041l-.007-.012v-.143l.007-.015v-.046l.008-.008v-.034l.006-.013v-.02l.007-.015v-.005l.007-.015" style="fill:none;stroke:#9500ff;stroke-width:.999997;stroke-linecap:round;stroke-linejoin:round;stroke-miterlimit:4;stroke-dasharray:none;stroke-opacity:1;visibility:visible" visibility="hidden"/><path d="m469.234 469.835.17.155.155.17.156.184.135.196.13.216.12.218.11.237.095.239.081.23.068.238.061.244.04.237.036.239.012.229.007.23-.013.226-.006.08" style="fill:none;stroke:#9500ff;stroke-width:1.99999;stroke-linecap:round;stroke-linejoin:round;stroke-miterlimit:4;stroke-dasharray:none;stroke-opacity:1;visibility:visible" visibility="hidden"/><path d="M451.834 655.103h0v.02M417.974 682.775l19.97-5.815" style="fill:none;stroke:#9500ff;stroke-width:.999997;stroke-linecap:round;stroke-linejoin:round;stroke-miterlimit:4;stroke-dasharray:none;stroke-opacity:1;visibility:visible" visibility="hidden"/><path d="m451.834 655.124-.13.963-.149.952-.162.929-.183.921-.205.903-.21.89-.238.867-.243.85-.264.834-.285.814-.299.794-.312.78-.327.754-.345.74-.367.712-.373.692-.393.672-.407.644-.423.624-.433.605-.455.576-.461.55-.481.529-.496.502-.51.483-.522.447-.528.421-.55.4-.556.367-.57.345-.584.313-.591.284-.604.259-.61.223-.625.197M382.77 634.19l39.507 26.45M452.071 469.835l11.27-3.285" style="fill:none;stroke:#9500ff;stroke-width:1.99999;stroke-linecap:round;stroke-linejoin:round;stroke-miterlimit:4;stroke-dasharray:none;stroke-opacity:1;visibility:visible" visibility="hidden"/><path d="m451.841 655.097-.007.007" style="fill:none;stroke:#9500ff;stroke-width:.999997;stroke-linecap:round;stroke-linejoin:round;stroke-miterlimit:4;stroke-dasharray:none;stroke-opacity:1;visibility:visible" visibility="hidden"/><path d="m470.59 473.403-18.75 181.694" style="fill:none;stroke:#9500ff;stroke-width:1.99999;stroke-linecap:round;stroke-linejoin:round;stroke-miterlimit:4;stroke-dasharray:none;stroke-opacity:1;visibility:visible" visibility="hidden"/><path d="m469.028 469.678.043.033.04.028.041.027.04.033.041.036" style="fill:none;stroke:#9500ff;stroke-width:.999997;stroke-linecap:round;stroke-linejoin:round;stroke-miterlimit:4;stroke-dasharray:none;stroke-opacity:1;visibility:visible" visibility="hidden"/><path d="m464.775 466.821 4.253 2.857M463.37 466.543l.163-.033.19-.023.19.008.197.035.183.046.184.076.156.075.142.093M450.769 471.579l.041-.224.06-.217.068-.211.096-.196.108-.19.128-.17.151-.163.161-.136.158-.094.162-.082.15-.054M423.457 655.15l27.31-183.572" style="fill:none;stroke:#9500ff;stroke-width:1.99999;stroke-linecap:round;stroke-linejoin:round;stroke-miterlimit:4;stroke-dasharray:none;stroke-opacity:1;visibility:visible" visibility="hidden"/><path d="m423.45 655.157.008-.007" style="fill:none;stroke:#9500ff;stroke-width:.999997;stroke-linecap:round;stroke-linejoin:round;stroke-miterlimit:4;stroke-dasharray:none;stroke-opacity:1;visibility:visible" visibility="hidden"/><path d="M382.01 634.075h.02l.007-.007h.014l.007-.008h.027l.005-.006h.03l.005-.007h.048l.013-.007h.163l.006.007h.048l.008.007h.034l.005.006h.021l.007.008h.021l.006.007h.014l.007.007h.013l.007.005h.02l.007.007h.006l.008.008h.012l.008.006h.007l.007.007h.006l.007.007h.015l.006.008h.007l.007.005h.006l.006.008h.008l.006.007h.007l.007.005.008.007h.006l.006.008h.006l.008.006.007.007h.005l.007.007h.008M362.046 639.89l19.964-5.813M361.43 640.52v-.013l.005-.007v-.013l.007-.014v-.008l.008-.005v-.015l.005-.006v-.007l.008-.007v-.013l.006-.007v-.006l.006-.007v-.013l.008-.008v-.007l.007-.005.007-.007v-.015l.008-.008.006-.005v-.008l.006-.005.008-.014v-.008l.005-.006.008-.007v-.007l.007-.008.006-.005.007-.013v-.007l.007-.008.008-.005.006-.008.006-.007.008-.007v-.006l.006-.007.007-.007.005-.008.008-.005.007-.008.007-.005.006-.008.007-.007v-.007l.007-.005.006-.008.008-.008.007-.007.007-.005.006-.007.007-.008.005-.006.008-.007.007-.007.007-.006h.008l.013-.007.007-.007.006-.006.007-.007.005-.008h.008l.007-.005.007-.007.006-.008h.007l.015-.007.005-.006.008-.007h.005l.008-.007.006-.006h.014l.007-.007.007-.007h.008l.006-.008h.014l.005-.006.008-.006h.007l.006-.006h.014l.006-.008h.007l.007-.007h.013l.008-.007h.005l.015-.005h.007l.006-.008h.02l.007-.008M361.43 640.52l-2.444 8.883M423.45 655.178l-.108.793-.13.782-.14.766-.158.752-.17.727-.189.712-.205.699-.08.232" style="fill:none;stroke:#9500ff;stroke-width:1.99999;stroke-linecap:round;stroke-linejoin:round;stroke-miterlimit:4;stroke-dasharray:none;stroke-opacity:1;visibility:visible" visibility="hidden"/><path d="M423.45 655.178v-.021M417.974 682.775l-.563.156-.569.123-.579.109-.582.073-.591.063-.59.025-.597.007-.604-.012-.604-.041-.604-.06-.612-.088-.616-.118-.612-.134-.616-.158-.618-.182-.618-.204-.617-.224-.624-.251-.619-.27-.617-.293-.623-.312-.618-.338-.616-.362-.612-.372-.618-.401M359.351 650.394l43.483 29.117M381.576 640.037l-.068-.223-.108-.218-.156-.21-.204-.21-.244-.196-.277-.191-.327-.176-.353-.163-.387-.144-.405-.128-.436-.114-.454-.09-.469-.068-.475-.054-.482-.027-.475-.007-.475.014-.461.041-.455.055-.428.081-.406.101-.38.116-.346.136-.318.156-.272.17-.238.182-.197.191-.15.203-.1.21-.055.21-.007.224.041.218.088.216.136.218.176.21.223.204.265.196.299.184.339.17.374.149.4.141.422.116.44.103.461.081.475.062.474.04.483.014h.476l.467-.029.462-.047.44-.066.415-.096.393-.108.367-.13.333-.142.298-.163.257-.17.212-.189.17-.198.127-.21.082-.209.028-.219-.015-.217" style="fill:none;stroke:#9500ff;stroke-width:.999997;stroke-linecap:round;stroke-linejoin:round;stroke-miterlimit:4;stroke-dasharray:none;stroke-opacity:1;visibility:visible" visibility="hidden"/><path d="m375.08 639.917 1.005.788h1.531l.744-.832M415.544 662.637l-.068-.223-.108-.218-.156-.21-.204-.21-.244-.196-.277-.191-.327-.176-.353-.163-.387-.144-.405-.128-.436-.114-.454-.09-.469-.068-.475-.054-.482-.027-.475-.007-.475.014-.461.041-.455.055-.428.081-.406.101-.38.116-.346.136-.318.156-.272.17-.238.182-.197.191-.15.203-.1.21-.055.21-.007.224.041.218.088.216.136.218.176.21.223.204.265.196.299.184.339.17.374.149.4.141.422.116.44.103.461.081.475.062.474.04.483.014h.476l.467-.029.462-.047.44-.066.415-.096.393-.108.367-.13.333-.142.298-.163.257-.17.212-.189.17-.198.127-.21.082-.209.028-.219-.015-.217" style="fill:none;stroke:#9500ff;stroke-width:.999997;stroke-linecap:round;stroke-linejoin:round;stroke-miterlimit:4;stroke-dasharray:none;stroke-opacity:1;visibility:visible" visibility="hidden"/><path d="m409.05 662.517 1.005.788h1.531l.744-.832M361.43 640.52l16.908-5.373M382.01 634.077l10.273 16.338M450.768 471.578l8.138 5.462M423.45 655.178l-7.906 7.459M403.9 667.78l5.15-5.263M431.491 661.265l-19.161 1.208" style="fill:none;stroke:#9500ff;stroke-width:.999997;stroke-linecap:round;stroke-linejoin:round;stroke-miterlimit:4;stroke-dasharray:none;stroke-opacity:1;visibility:visible" visibility="hidden"/><path d="m381.216 606.01-.312-.081-.279-.103-.25-.121-.218-.13-.184-.142-.134-.148-.09-.158-.041-.156.008-.156.047-.156.102-.144.143-.134.19-.128.225-.11.257-.094.29-.074.314-.054.325-.028.339-.014.347.007.338.035.334.054.318.074.298.094.266.11.236.121.198.136.156.15.116.149.066.156.014.162-.026.158-.076.148-.121.142-.17.13-.203.114-.244.103-.274.088-.304.06-.318.05-.334.02h-.345l-.345-.02-.334-.05-.325-.06M426.008 551.846v.02M426.076 551.757l-.02.055-.048.054" style="fill:none;stroke:#ffdf00;stroke-width:.999997;stroke-linecap:round;stroke-linejoin:round;stroke-miterlimit:4;stroke-dasharray:none;stroke-opacity:1;visibility:visible"/><path d="m426.008 551.846.055-.055.02-.056M434.063 353.997l-12.907-3M406.858 593.754l.484-.517.481-.563.475-.603.48-.638.484-.686.481-.712.475-.76.475-.788.469-.82.468-.861.461-.89.455-.915.448-.95.44-.977.435-1.005.428-1.032.413-1.051.408-1.072.4-1.092.387-1.113.373-1.127.365-1.147.354-1.153.338-1.173.327-1.176.305-1.187.299-1.193.285-1.202.263-1.2.253-1.202.236-1.2.219-1.203.203-1.193.184-1.195.169-1.181.15-1.174.129-1.16.114-1.146v-.007M356.652 617.131l22.732 5.293 27.473-28.67M380.178 623.421l-1.792 11.503M439.653 349.64l.007-.15v-.142l-.007-.264-.02-.224-.04-.197-.048-.15-.061-.122-.075-.088-.073-.055-.096-.027-.102.014-.062.026-.059.035-.063.053-.061.056-2.801 2.951M434.205 353.838l-13.59 201.485M436.091 351.356l-.11.13-.1.155-.102.178-.088.196-.081.197-.075.203-.07.218-.06.223-.054.245-.047.251-.041.27-.021.273" style="fill:none;stroke:#ffdf00;stroke-width:.999997;stroke-linecap:round;stroke-linejoin:round;stroke-miterlimit:4;stroke-dasharray:none;stroke-opacity:1;visibility:visible"/><path d="m355.959 617.308.11-.09.129-.067.141-.034.156-.005.157.02" style="fill:none;stroke:#ffdf00;stroke-width:1.99999;stroke-linecap:round;stroke-linejoin:round;stroke-miterlimit:4;stroke-dasharray:none;stroke-opacity:1;visibility:visible"/><path d="m421.156 350.997-.163-.055-.142-.053-.108-.068-.083-.068-.047-.075-.013-.068" style="fill:none;stroke:#ffdf00;stroke-width:.999997;stroke-linecap:round;stroke-linejoin:round;stroke-miterlimit:4;stroke-dasharray:none;stroke-opacity:1;visibility:visible"/><path d="m439.653 349.64.05-.056.02-.06" style="fill:none;stroke:#ffdf00;stroke-width:1.99999;stroke-linecap:round;stroke-linejoin:round;stroke-miterlimit:4;stroke-dasharray:none;stroke-opacity:1;visibility:visible"/><path d="m435.243 353.895-.101.055-.13.046-.169.035-.183.012h-.202l-.198-.012-.197-.035M379.383 622.424l.184.06.176.103.15.136.127.156.09.176.053.182.015.184M438.65 347.177h.013M426.076 551.757h0" style="fill:none;stroke:#ffdf00;stroke-width:.999997;stroke-linecap:round;stroke-linejoin:round;stroke-miterlimit:4;stroke-dasharray:none;stroke-opacity:1;visibility:visible"/><path d="M425.865 344.197h0" style="fill:none;stroke:#ffdf00;stroke-width:1.99999;stroke-linecap:round;stroke-linejoin:round;stroke-miterlimit:4;stroke-dasharray:none;stroke-opacity:1;visibility:visible"/><path d="M397.182 549.817h0M426.082 551.736h0-.005v.021" style="fill:none;stroke:#ffdf00;stroke-width:.999997;stroke-linecap:round;stroke-linejoin:round;stroke-miterlimit:4;stroke-dasharray:none;stroke-opacity:1;visibility:visible"/><path d="m424.793 344.476.143-.103.157-.081.143-.061.148-.04.156-.02h.164l.162.026M355.959 617.308l21.003-21.916M397.182 549.844l-.088.883-.096.894-.108.903-.123.91-.128.91-.136.921-.148.924-.164.923-.162.93-.184.929-.183.936-.203.93-.204.93-.217.929-.224.924-.232.923-.243.921-.245.916-.257.91-.271.902-.272.896-.279.883-.284.882-.3.868-.297.855-.305.848-.314.836-.316.82-.326.815-.328.793-.084.197M425.865 344.197l12.784 2.98M424.63 344.631l.033-.033.035-.027.027-.035.034-.026.034-.034M421.795 347.57l2.836-2.939M420.6 350.61l-23.417 199.2v.006M420.6 350.61l.028-.217.04-.224.047-.224.048-.224.06-.211.061-.217.07-.21.074-.196.08-.198.081-.19.088-.176.09-.17.134-.21.138-.197.156-.177" style="fill:none;stroke:#ffdf00;stroke-width:1.99999;stroke-linecap:round;stroke-linejoin:round;stroke-miterlimit:4;stroke-dasharray:none;stroke-opacity:1;visibility:visible"/><path d="M397.182 549.844v-.027" style="fill:none;stroke:#ffdf00;stroke-width:.999997;stroke-linecap:round;stroke-linejoin:round;stroke-miterlimit:4;stroke-dasharray:none;stroke-opacity:1;visibility:visible"/><path d="m426.082 551.736 13.64-202.213M438.663 347.177l.13.041.127.055.116.073.116.087.1.097.09.102.088.128.068.137.061.141.068.204.047.218.034.229.022.265v.279l-.008.29M353.924 629.297l1.79-11.501M355.715 617.795v-.013h.007v-.034l.008-.006v-.022l.005-.006v-.02l.008-.007v-.013l.007-.007v-.013l.006-.007v-.015l.007-.006v-.014l.007-.008v-.012l.006-.006v-.007l.007-.008v-.005l.007-.008v-.007l.006-.007v-.014h.007v-.012l.008-.007.005-.007v-.008l.008-.006v-.007h.007v-.015l.005-.005.008-.007v-.006h.007v-.015h.007v-.005l.006-.008.007-.007v-.007h.007v-.006l.008-.007.005-.007v-.008h.008v-.005l.007-.007.006-.006.007-.008v-.006h.007v-.008l.006-.006.007-.007.007-.005v-.007h.008l.005-.008" style="fill:none;stroke:#ffdf00;stroke-width:1.99999;stroke-linecap:round;stroke-linejoin:round;stroke-miterlimit:4;stroke-dasharray:none;stroke-opacity:1;visibility:visible"/><path d="M354.616 630.316h-.013l-.015-.007h-.012l-.015-.008h-.013l-.013-.006-.015-.007h-.013l-.012-.007-.008-.006-.012-.007h-.014l-.014-.005-.015-.008-.013-.007-.006-.007-.014-.006-.014-.007h-.014l-.006-.007-.014-.014-.012-.006-.008-.006-.015-.008-.012-.007-.007-.007-.014-.008-.014-.005-.006-.013-.012-.007-.008-.008-.015-.007-.005-.013-.015-.007-.005-.008-.014-.012-.008-.006-.013-.007-.007-.015-.006-.006-.014-.012-.005-.007-.008-.015-.007-.006-.014-.015-.007-.013-.007-.006-.006-.014-.006-.007-.014-.013-.007-.015-.007-.005-.006-.015-.008-.012-.006-.008-.008-.013-.005-.014-.008-.013-.007-.007v-.014l-.006-.012-.007-.015-.008-.013-.005-.015v-.007l-.007-.013-.007-.013v-.012l-.008-.016-.006-.012v-.014l-.007-.013v-.015l-.008-.013v-.007l-.005-.014v-.027l-.007-.012v-.03l-.007-.013v-.202l.007-.014v-.028M377.016 635.533l-22.4-5.217M413.38 596.13l-.415.753-.418.732-.422.72-.421.698-.428.68-.427.658-.428.636-.428.626-.434.597-.434.577-.434.548-.434.536-.433.51-.436.488-.433.47" style="fill:none;stroke:#ffdf00;stroke-width:.999997;stroke-linecap:round;stroke-linejoin:round;stroke-miterlimit:4;stroke-dasharray:none;stroke-opacity:1;visibility:visible"/><path d="m426.076 551.757-.096 1.01-.108 1.026-.123 1.024-.129 1.039-.136 1.04-.148 1.042-.156 1.054-.17 1.05-.177 1.059-.182 1.059-.198 1.065-.204 1.059-.216 1.065-.225 1.065-.23 1.059-.237 1.065-.25 1.059-.259 1.059-.264 1.052-.272 1.05-.277 1.052-.294 1.039-.298 1.039-.298 1.03-.312 1.018-.32 1.018-.325 1.012-.332.996-.34.99-.339.986-.353.97-.352.957-.367.95-.368.937-.372.929-.374.91-.387.895-.387.888-.392.87-.394.854-.4.834-.402.829-.406.807-.414.786-.413.775" style="fill:none;stroke:#ffdf00;stroke-width:1.99999;stroke-linecap:round;stroke-linejoin:round;stroke-miterlimit:4;stroke-dasharray:none;stroke-opacity:1;visibility:visible"/><path d="m391.92 621.045 1.747-1.824 6.25-6.521 7.036-7.34M378.434 635.12l7.303-7.621M375.757 616.76l-.068-.223-.108-.218-.156-.21-.204-.21-.244-.196-.277-.191-.327-.176-.353-.163-.387-.144-.405-.128-.436-.114-.454-.09-.469-.068-.475-.054-.482-.027-.475-.007-.475.014-.461.041-.455.055-.428.081-.406.101-.38.116-.346.136-.318.156-.272.17-.238.182-.197.191-.15.203-.1.21-.055.21-.007.224.041.218.088.216.136.218.176.21.223.204.265.196.299.184.339.17.374.149.4.141.422.116.44.103.461.081.475.062.474.04.483.014h.476l.467-.029.462-.047.44-.066.415-.096.393-.108.367-.13.333-.142.298-.163.257-.17.212-.189.17-.198.127-.21.082-.209.028-.219-.015-.217" style="fill:none;stroke:#ffdf00;stroke-width:.999997;stroke-linecap:round;stroke-linejoin:round;stroke-miterlimit:4;stroke-dasharray:none;stroke-opacity:1;visibility:visible"/><path d="m369.262 616.64 1.005.788h1.531l.744-.832M398.468 593.175l-.068-.223-.108-.218-.156-.21-.204-.21-.244-.196-.277-.191-.327-.176-.353-.163-.387-.144-.405-.128-.436-.114-.454-.09-.469-.068-.475-.054-.482-.027-.475-.007-.475.014-.461.041-.455.055-.428.081-.406.101-.38.116-.346.136-.318.156-.272.17-.238.182-.197.191-.15.203-.1.21-.055.21-.007.224.041.218.088.216.136.218.176.21.223.204.265.196.299.184.339.17.374.149.4.141.422.116.44.103.461.081.475.062.474.04.483.014h.476l.467-.029.462-.047.44-.066.415-.096.393-.108.367-.13.333-.142.298-.163.257-.17.212-.189.17-.198.127-.21.082-.209.028-.219-.015-.217" style="fill:none;stroke:#ffdf00;stroke-width:.999997;stroke-linecap:round;stroke-linejoin:round;stroke-miterlimit:4;stroke-dasharray:none;stroke-opacity:1;visibility:visible"/><path d="m391.974 593.054 1.005.788h1.531l.744-.832M379.383 622.424l1.833-16.414M377.016 635.533l2.367-13.109M379.383 622.424l-2.367 13.109M385.737 627.499l6.183-6.454M391.92 621.045l-6.183 6.454M380.178 623.421l-4.421-6.661M355.959 617.308l16.583-.712M406.858 593.754l-11.604-.744" style="fill:none;stroke:#ffdf00;stroke-width:.999997;stroke-linecap:round;stroke-linejoin:round;stroke-miterlimit:4;stroke-dasharray:none;stroke-opacity:1;visibility:visible"/><path d="m451.84 655.097-4.898 14.738" style="fill:none;stroke:red;stroke-width:1.99999;stroke-linecap:round;stroke-linejoin:round;stroke-miterlimit:4;stroke-dasharray:none;stroke-opacity:1;visibility:visible" visibility="hidden"/><path d="m380.178 623.421 1.398 16.616M378.434 635.12l-.074 4.753" style="fill:none;stroke:#9500ff;stroke-width:.999997;stroke-linecap:round;stroke-linejoin:round;stroke-miterlimit:4;stroke-dasharray:none;stroke-opacity:1;visibility:visible" visibility="hidden"/></svg>