<svg xmlns="http://www.w3.org/2000/svg" baseProfile="full" height="1122.52" preserveAspectRatio="xMinYMin meet" style="width:765px;height:943px" width="793.701" xml:space="preserve"><path d="m412.12 685.705-.013.213-.054.214-.093.213-.133.207-.18.2-.214.193-.26.193-.293.18-.327.174-.366.16-.394.153-.426.14-.454.127-.48.118-.5.102-.526.086-.54.074-.56.06-.567.04M415.473 894.885l-9.733-206.333M380.78 684.506l24.96 4.047M325.58 696.545l.02-.26.053-.24.087-.233.12-.207.153-.18.18-.153.207-.12.227-.087.24-.053.246-.014.26.026.254.061.246.1.24.133.227.16.207.194.18.213.153.233.127.247.086.26.054.26.02.267-.02.253-.054.247-.086.226-.12.207-.154.187-.186.146-.2.127-.227.08-.24.053-.247.012-.26-.025-.253-.06-.247-.1-.24-.127-.226-.166-.207-.188-.18-.219-.153-.233-.12-.247-.094-.26-.053-.26-.02-.26M325.553 682.899l.02-.26.053-.247.087-.226.127-.214.153-.186.18-.154.207-.12.226-.093.24-.047.247-.02.26.026.253.061.254.1.24.127.226.166.207.187.18.22.16.233.12.247.093.267.054.26.02.266-.02.26-.054.247-.093.227-.12.213-.153.18-.187.16-.2.12-.227.087-.24.053-.253.013-.253-.02-.26-.06-.247-.1-.247-.133-.22-.16-.206-.193-.187-.214-.153-.233-.12-.253-.094-.26-.053-.26-.02-.267M367.093 680.439l-.213-.073-.187-.094-.147-.093-.113-.1-.073-.107-.034-.106.007-.114.053-.106.087-.1.133-.1.16-.088.2-.079.227-.067.253-.053.267-.047.287-.026.293-.014h.3l.293.02.287.034.273.046.254.054.226.073.2.08.174.093.133.1.093.107.054.107.013.106-.033.107-.067.107-.107.1-.153.093-.18.087-.213.073-.24.06-.26.053-.28.034-.294.02-.293.006-.3-.006-.293-.027-.28-.04-.26-.053-.247-.067M218.22 652.319l-.18-.067-.147-.08-.12-.08-.073-.094-.047-.092v-.1l.04-.094.074-.093.113-.095.147-.085.18-.081.206-.072.234-.06.246-.047.267-.04.273-.027.28-.013.28.007.274.013.26.027.24.04.226.053.194.067.166.073.134.08.1.087.06.093.02.093-.02.099-.054.095-.093.093-.127.093-.166.079-.194.075-.22.065-.24.061-.26.04-.273.034-.28.02-.28.006-.273-.006-.267-.027-.253-.033-.234-.047-.213-.06M199.887 648.745l.8 20.033M380.78 684.506l-.433 28.713M380.78 684.506l5.033-4.5M232.573 659.125l1.247.399 1.273.388 1.307.373 1.333.367 1.36.353 1.387.347 1.413.333 1.44.32 1.46.307 1.487.3 1.513.28 1.527.273 1.553.26" style="fill:none;stroke:red;stroke-width:.999997;stroke-linecap:round;stroke-linejoin:round;stroke-miterlimit:4;stroke-dasharray:none;stroke-opacity:1;visibility:visible" visibility="hidden"/><path d="m283.287 682.672-7.373-1.233" style="fill:none;stroke:red;stroke-width:1.99999;stroke-linecap:round;stroke-linejoin:round;stroke-miterlimit:4;stroke-dasharray:none;stroke-opacity:1;visibility:visible" visibility="hidden"/><path d="m250.873 663.425 129.906 21.08M275.913 681.439l.233 13.867M199.873 648.452l32.7 10.673M179.907 497.066l-.06-.267-.093-.246-.114-.227-.14-.207-.153-.18-.18-.14-.187-.113-.2-.073-.2-.027-.2.007-.2.046-.186.087-.174.127-.16.16-.133.186-.113.22-.087.24-.06.254-.027.266v.267l.034.273.06.26.086.247.114.227.14.206.16.18.173.147.193.107.194.072.206.026.2-.005.194-.047.193-.093.173-.12.154-.16.14-.193.113-.215.087-.239.053-.253.033-.267-.006-.268-.027-.265M174.234 464.393l-.06-.267-.087-.253-.12-.233-.14-.207-.16-.187-.173-.146-.193-.114-.2-.08-.2-.04-.207.007-.2.047-.187.078-.18.128-.16.154-.133.186-.113.22-.094.234-.053.26-.033.266v.274l.033.266.06.267.093.253.114.234.14.213.166.18.174.153.193.114.2.073.2.04.207-.007.2-.046.186-.08.174-.127.16-.153.14-.187.113-.221.087-.232.06-.26.026-.267v-.268l-.033-.272M201.727 676.479l1.16-.447M208.633 645.312l-.053-.267-.06-.233-.06-.207-.067-.173-.06-.14-.067-.101-.06-.072-.06-.027h-.066M201.027 675.392l.053.24.067.213.067.187.073.159.087.128.086.093.087.06.087.02.093-.013M167.1 455.26l8.007-1.74M169.227 454.792l-.273.06-.274.06-.273.053-.28.067-.28.06-.28.06-.28.06-.28.06-.26.053-.26.06-.253.054-.254.053-.246.053-.247.054-.247.053-.246.053-.427.094-.413.093-.394.08-.373.087-.347.073-.32.067-.286.066-.267.054-.133.033-.12.027-.114.02-.106.026-.094.02-.086.02-.074.014-.066.013-.06.013-.054.014-.033.005-.027.008h-.013.013l.027-.008 5.873-1.265M175.107 453.519l-5.88 1.273M160.06 807.138l40.853-132.746M200.013 651.952l-34.16-195.346-5.353 1.153M160.5 457.76v-.013l-.007-.014v-.041l-.006-.012M160.487 457.68h-.087v-.007M175.107 453.519h0" style="fill:none;stroke:red;stroke-width:.999997;stroke-linecap:round;stroke-linejoin:round;stroke-miterlimit:4;stroke-dasharray:none;stroke-opacity:1;visibility:visible" visibility="hidden"/><path d="m161.227 456.525-.12.041-.12.054-.107.06-.093.08-.073.086-.074.087-.053.1-.047.105-.033.122-.027.126-.006.147.013.147M165.853 456.605l.087-.187.1-.186.113-.18.133-.174.134-.153.14-.14.14-.12.14-.1.133-.067.127-.04" style="fill:none;stroke:red;stroke-width:.999997;stroke-linecap:round;stroke-linejoin:round;stroke-miterlimit:4;stroke-dasharray:none;stroke-opacity:1;visibility:visible" visibility="hidden"/><path d="m421.46 891.598-.007.267-.046.266-.094.26-.12.254-.166.246-.2.234-.24.226-.274.214-.306.2-.34.193-.374.167-.4.16-.426.14-.454.12-.473.106-.493.087-.507.067-.527.052-.54.028M410.606 683.985l.3.173.267.18.24.186.206.188.174.193.133.2.1.2.067.2.026.2M415.473 894.885l-9.047-2.373M385.813 680.006l24.793 3.98M405.76 892.024l.033.095.067.093.1.092.133.081.154.067.18.06" style="fill:none;stroke:red;stroke-width:1.99999;stroke-linecap:round;stroke-linejoin:round;stroke-miterlimit:4;stroke-dasharray:none;stroke-opacity:1;visibility:visible" visibility="hidden"/><path d="m380.58 712.965-.02-.193-.027-.227-.02-.253-.02-.28-.013-.314-.013-.341-.014-.365-.013-.38-.007-.407-.006-.427v-.433l-.007-.453.007-.46v-.474l.006-.473" style="fill:none;stroke:red;stroke-width:.999997;stroke-linecap:round;stroke-linejoin:round;stroke-miterlimit:4;stroke-dasharray:none;stroke-opacity:1;visibility:visible" visibility="hidden"/><path d="m421.46 891.598-9.34-205.893M380.58 712.965l25.18 179.058M288.293 697.392l92.053 15.827.24-.22" style="fill:none;stroke:red;stroke-width:1.99999;stroke-linecap:round;stroke-linejoin:round;stroke-miterlimit:4;stroke-dasharray:none;stroke-opacity:1;visibility:visible" visibility="hidden"/><path d="m199.873 648.452.013.293M200.687 668.778l.267 6.587M208.847 645.232l-8.973 3.22" style="fill:none;stroke:red;stroke-width:.999997;stroke-linecap:round;stroke-linejoin:round;stroke-miterlimit:4;stroke-dasharray:none;stroke-opacity:1;visibility:visible" visibility="hidden"/><path d="m233.4 686.559 1.24.42 1.267.407 1.293.393 1.32.387 1.353.366 1.374.36 1.4.354 1.426.333 1.454.327 1.473.313 1.5.3 1.52.287 1.54.273M288.106 683.472l.187 13.92M288.106 683.472l-4.82-.8M251.56 691.079l24.587 4.227M283.287 682.672l.127 8.519M385.813 680.006l-129.08-20.707M256.733 659.299l-1.387-.233-1.373-.247-1.353-.253-1.334-.267-1.306-.28-1.28-.287-1.26-.3-1.234-.313-1.206-.327-1.187-.333-1.153-.34-1.12-.353-32.694-10.534M200.953 675.366l32.447 11.193M276.147 695.305l7.267-4.113M161.394 807.165l7.087-3.247M168.754 803.665l-.033.067-.06.073-.08.06-.1.053M161.394 807.165l-.133.053-.14.034-.154.026-.166.007h-.16l-.16-.02-.154-.027-.14-.046-.126-.054-6.3-3.26M153.76 803.878l-.053-.167-.04-.153-.02-.14-.007-.14.007-.153.02-.174M175.107 453.519l.107-.007.086.012.08.035.06.06.047.08.027.1" style="fill:none;stroke:red;stroke-width:1.99999;stroke-linecap:round;stroke-linejoin:round;stroke-miterlimit:4;stroke-dasharray:none;stroke-opacity:1;visibility:visible" visibility="hidden"/><path d="m153.667 802.952.667-3.48.8-4.2.966-5.067 1.167-6.113 1.407-7.393 1.706-8.947 2.074-10.847 2.513-13.186 3.067-16.067 3.74-19.64 4.6-24.1 5.666-29.721.867-4.532.127-.673.12-.66.106-.662.094-.678.086-.68.074-.694.066-.706.06-.707.047-.833.04-.847.02-.86.007-.86-.007-.88-.027-.88-.033-.893-.053-.894-.067-.9-.08-.9-.1-.913-.113-.907-.114-.926-.12-.92-.12-.92-.12-.927-.12-.92-.126-.927-.12-.928-.12-.925-.12-.927-.12-.92-1.974-15.213-2.393-18.393-2.9-22.288-3.513-27.045-4.28-32.9-5.22-40.14-1.394-10.733M208.633 645.312l-33.12-191.513M175.107 453.519l-5.88 1.273M160.4 457.673l-.013-.107.006-.113.014-.113.026-.114.04-.1.054-.106.06-.094.073-.086.08-.074.087-.074.093-.059.1-.047.067-.02.026-.006.014-.007.02-.007h.013l.007-.006h.013l.04-.015.047-.005.073-.022.093-.018.114-.02.133-.034.153-.033.167-.035.193-.038.207-.047.207-.047.226-.046.24-.054.247-.053.267-.06.273-.06.287-.06.293-.067.307-.066.306-.068.32-.066.327-.073.327-.067.34-.073.333-.073.347-.074.34-.074.34-.079.38-.08.38-.08.373-.08.367-.08M168.754 803.665l39.34-125.833" style="fill:none;stroke:red;stroke-width:1.99999;stroke-linecap:round;stroke-linejoin:round;stroke-miterlimit:4;stroke-dasharray:none;stroke-opacity:1;visibility:visible" visibility="hidden"/><path d="m282.707 667.243-.18-.067-.147-.08-.12-.08-.073-.094-.047-.092v-.1l.04-.094.074-.093.113-.095.147-.085.18-.081.206-.072.234-.06.246-.047.267-.04.273-.027.28-.013.28.007.274.013.26.027.24.04.226.053.194.067.166.073.134.08.1.087.06.093.02.093-.02.099-.054.095-.093.093-.127.093-.166.079-.194.075-.22.065-.24.061-.26.04-.273.034-.28.02-.28.006-.273-.006-.267-.027-.253-.033-.234-.047-.213-.06M208.846 645.232l9.374 7.087M232.573 659.125l-14.353-6.806M175.513 453.8l-1.279 10.593M160.487 457.68l13.747 6.713M380.347 713.22l.086-5.735" style="fill:none;stroke:red;stroke-width:.999997;stroke-linecap:round;stroke-linejoin:round;stroke-miterlimit:4;stroke-dasharray:none;stroke-opacity:1;visibility:visible" visibility="hidden"/><path d="m209.9 970.818 1.74-209.913M211.64 760.905l-.56.093-.567.08-.58.06-.58.04-.586.027-.587.007-.58-.007-.573-.027-.567-.046-.553-.06-.54-.08-.52-.094-.5-.106-.474-.127-.453-.141-.42-.152-.393-.167-.367-.181-.327-.192-.293-.2-.26-.207-.22-.22-.18-.227-.14-.233-.1-.24-.06-.24-.02-.241M227.853 751.272l-16.213 9.633M261.107 752.365l.007-.267.026-.266.054-.274.073-.266.087-.268.113-.246.12-.233.14-.207.147-.18.16-.153.158-.113.162-.08.153-.047h.153l.14.033.134.074.113.113.107.147.08.173.06.207.04.226.013.247-.007.26-.026.267-.054.273-.068.267-.092.266-.106.247-.127.233-.14.207-.148.18-.152.153-.16.114-.16.08-.153.046h-.154l-.146-.033-.128-.073-.119-.115-.101-.139-.079-.18-.06-.2-.04-.226-.02-.247M260.813 738.992v-.267l.033-.266.047-.28.073-.267.094-.267.106-.246.127-.234.14-.206.147-.18.16-.147.16-.12.16-.073.16-.04h.146l.147.033.133.08.114.113.1.147.086.18.06.207.04.226.014.254-.007.26-.027.273-.053.273-.067.267-.093.267-.113.246-.12.234-.14.206-.147.18-.16.147-.153.113-.167.08-.153.04h-.154l-.146-.034-.134-.079-.113-.113-.1-.147-.087-.173-.06-.207-.04-.233-.013-.247M234.02 744.339l-.12.113-.153.114-.194.1-.22.086-.246.08-.267.06-.28.047-.3.033-.3.014h-.293l-.294-.02-.28-.04-.266-.054-.234-.066-.213-.08-.18-.094-.147-.108-.106-.105-.067-.12-.02-.12.013-.127.06-.12.1-.12.134-.113.173-.107.207-.093.233-.087.253-.066.28-.054.287-.04.3-.026.3-.007.293.013.287.027.273.047.247.06.227.073.193.085.167.102.126.106.087.12.047.12.006.12-.04.127-.073.12M227.853 751.272l58.287-34.64" style="fill:none;stroke:#00ff4a;stroke-width:.999997;stroke-linecap:round;stroke-linejoin:round;stroke-miterlimit:4;stroke-dasharray:none;stroke-opacity:1;visibility:visible"/><path d="m282.153 715.925 3.987.707" style="fill:none;stroke:#00ff4a;stroke-width:1.99999;stroke-linecap:round;stroke-linejoin:round;stroke-miterlimit:4;stroke-dasharray:none;stroke-opacity:1;visibility:visible"/><path d="m216.96 748.259 10.893 3.013.934 28.44M286.334 730.252l7.42-4.52" style="fill:none;stroke:#00ff4a;stroke-width:.999997;stroke-linecap:round;stroke-linejoin:round;stroke-miterlimit:4;stroke-dasharray:none;stroke-opacity:1;visibility:visible"/><path d="m286.334 730.252-.195-13.62" style="fill:none;stroke:#00ff4a;stroke-width:1.99999;stroke-linecap:round;stroke-linejoin:round;stroke-miterlimit:4;stroke-dasharray:none;stroke-opacity:1;visibility:visible"/><path d="m293.593 712.205 11.839-7.035M293.753 725.732l-.16-13.527M293.593 712.205l-11.527-2.04M293.753 725.732l-7.507-1.36M332.66 533.652l-.007-.26-.046-.253-.074-.247-.113-.228-.147-.212-.173-.187-.193-.16-.22-.126-.234-.087-.24-.053-.246-.02-.247.02-.24.06-.227.098-.213.135-.193.16-.16.193-.134.214-.106.233-.067.247-.027.253.007.253.04.254.08.246.113.234.14.206.174.187.2.16.213.127.233.092.24.054.247.014.247-.02.24-.06.233-.094.207-.133.193-.16.16-.193.14-.214.1-.233.067-.247.033-.253M333.873 500.92l-.167-.193-.193-.167-.22-.133-.233-.1-.247-.06-.247-.02-.253.02-.24.06-.233.093-.22.127-.194.166-.166.194-.14.213-.107.239-.073.248-.034.26v.26l.04.26.08.246.114.24.146.214.174.186.2.16.22.127.233.093.247.054.246.013.254-.02.24-.067.233-.1.213-.14.187-.166.167-.194.133-.22.1-.24M345.613 821.165l-16.155-110.041M329.398 664.57l8.663-172.224" style="fill:none;stroke:#00ff4a;stroke-width:.999997;stroke-linecap:round;stroke-linejoin:round;stroke-miterlimit:4;stroke-dasharray:none;stroke-opacity:1;visibility:visible"/><path d="m209.9 970.818-.533.12-.534.093-.546.074-.554.046-.553.027h-.553l-.547-.02-.547-.047-.533-.073-.52-.093-.507-.114-.493-.141-.473-.159-.447-.18-.427-.2-.4-.22-.373-.241-.34-.252-.313-.267-.274-.28-.246-.293-.207-.307-.167-.313-.133-.327-.093-.326-.06-.334-.02-.333M200.64 758.024v-.112l.02-.12M215.467 966.105l.313-.273M215.994 965.458l-.02.1-.04.093-.067.094-.086.086M216.96 748.259l-16.3 9.533M209.9 970.818l5.567-4.713" style="fill:none;stroke:#00ff4a;stroke-width:1.99999;stroke-linecap:round;stroke-linejoin:round;stroke-miterlimit:4;stroke-dasharray:none;stroke-opacity:1;visibility:visible"/><path d="m228.6 774.032.013.473.007.467v.913l-.007.447-.013.42-.02.413-.02.387" style="fill:none;stroke:#00ff4a;stroke-width:.999997;stroke-linecap:round;stroke-linejoin:round;stroke-miterlimit:4;stroke-dasharray:none;stroke-opacity:1;visibility:visible"/><path d="m199.507 966.658 1.133-208.634M215.994 965.458l12.567-187.906M274.553 714.565l-57.593 33.693M274.553 714.565l7.6 1.36M228.42 779.605l.367.107M294.655 702.8l-12.588 7.365M228.787 779.712l79.926-49.78M308.713 729.932l.913-.58.874-.587.84-.593.8-.6.766-.607.734-.613.7-.613.653-.627.627-.62.58-.635.546-.632.514-.633.473-.64 8.08-11.424" style="fill:none;stroke:#00ff4a;stroke-width:1.99999;stroke-linecap:round;stroke-linejoin:round;stroke-miterlimit:4;stroke-dasharray:none;stroke-opacity:1;visibility:visible"/><path d="m333.873 500.92-.06.24-.033.247.006.246.04.247.074.24.1.227.133.206M334.227 502.086v-.255l-.04-.245-.073-.233-.107-.227-.133-.207M334.133 502.572l.067-.241.026-.246" style="fill:none;stroke:#00ff4a;stroke-width:.999997;stroke-linecap:round;stroke-linejoin:round;stroke-miterlimit:4;stroke-dasharray:none;stroke-opacity:1;visibility:visible"/><path d="m336.8 820.032 8.813 1.133M328.067 491.772l9.993.573M346.686 820.819l-.053.073-.074.074-.1.066-.12.054-.126.04-.147.033-.147.013-.153.007-.153-.013M346.686 820.819l2.233-4.407M336.8 820.032l-.14-.027-.127-.04-.12-.046-.093-.062-.073-.072-.054-.073-.02-.08M348.92 816.412l-6.213-65.913-3.347-35.427-.388-4.112M335.433 665.786l.013-1.027.027-1.033.013-.52.02-.52.02-.647.02-.646.047-1.294.087-2.586.173-5.182.347-10.392.7-20.926 1.426-42.4 2.847-84.833M341.173 493.7v.08M338.06 492.346l.047.007.053.005M340.334 492.732l.12.033.12.04.1.052.1.068.08.067.073.073.067.087.06.087.047.1.038.113.028.12.007.127M327.3 492.492l.02-.161.047-.14.073-.126.093-.113.114-.08.126-.06.147-.033.147-.007M338.16 492.358l2.173.375M327.3 492.492l-8.293 170.592M320.493 718.052l15.68 101.58" style="fill:none;stroke:#00ff4a;stroke-width:1.99999;stroke-linecap:round;stroke-linejoin:round;stroke-miterlimit:4;stroke-dasharray:none;stroke-opacity:1;visibility:visible"/><path d="m260.813 738.992.294 13.373M260.813 738.992l.294 13.373M261.107 752.365l-.294-13.373M261.107 752.365l-.294-13.373M286.14 716.632l.106 7.74M228.787 779.712l-.187-5.68" style="fill:none;stroke:#00ff4a;stroke-width:.999997;stroke-linecap:round;stroke-linejoin:round;stroke-miterlimit:4;stroke-dasharray:none;stroke-opacity:1;visibility:visible"/><path d="m293.593 712.205 1.062-9.405" style="fill:none;stroke:#00ff4a;stroke-width:1.99999;stroke-linecap:round;stroke-linejoin:round;stroke-miterlimit:4;stroke-dasharray:none;stroke-opacity:1;visibility:visible"/></svg>