<svg xmlns="http://www.w3.org/2000/svg" baseProfile="full" height="1122.52" preserveAspectRatio="xMinYMin meet" style="width:765px;height:943px" width="793.701" xml:space="preserve"><path d="m383.388 254.251 28.2 82.394.415 1.153.439 1.147.466 1.14.5 1.133.527 1.127.553 1.12.587 1.113.613 1.107.648 1.093.652 1.067.695 1.06.713 1.053.746 1.047.773 1.033.8 1.027.827 1.013.86 1.012.888.995.912.985.94.981.966.967.994.952 1.026.955 1.055.933 1.079.927 1.106.913 1.135.907 1.167.893 1.185.88 1.22.867 1.247.86s12.826 8.475 34.577 15.48" style="fill:none;stroke:red;stroke-width:1.99999;stroke-linecap:round;stroke-linejoin:round;stroke-miterlimit:4;stroke-dasharray:none;stroke-opacity:1;visibility:visible" visibility="hidden"/><path d="m390.568 232.772-.213.846-.187.847-.166.84-.147.84-.113.78-.1.773-.074.774-.06.773-.04.713-.02.7v.707l.007.707.027.686.046.694.054.686.072.694.101.74.113.733.134.74.152.733.194.82.22.82.24.82.26.82M532.955 381.505h.005M482.628 305.366l-1.673-.24-1.667-.253-1.653-.26-1.642-.267-1.625-.273-1.613-.28-1.6-.287-1.593-.3-1.574-.3-1.567-.307-1.553-.319-1.541-.32-1.525-.334-1.514-.333-1.5-.34-1.486-.354-1.48-.353-1.46-.366-1.454-.367-1.44-.38-1.426-.38-1.414-.387-1.4-.393-1.386-.4-1.38-.414-1.362-.413-1.352-.42-1.333-.42-1.327-.433-1.314-.44-1.3-.44-1.285-.454-1.274-.453-1.26-.466-1.253-.467-1.234-.474-1.22-.479-1.213-.487-1.193-.487-1.187-.5-1.173-.506-1.154-.507-1.141-.514-1.12-.513-1.107-.52-1.092-.526-1.074-.534-1.054-.533-1.045-.534-1.02-.539-1.013-.547-.987-.547-.98-.553-.961-.56-.946-.56-.926-.56-.914-.567-.9-.573-.88-.574-.866-.579-.847-.58-.833-.587-.82-.587-.807-.593-.787-.594-.773-.599-.755-.607-.738-.607-.727-.606-.713-.614-.694-.62-.681-.613-.659-.627-.653-.626-.635-.634-.613-.633-.607-.634-.585-.639-.567-.647-.56-.647-.54-.646-.521-.654-.507-.653-.485-.654-.473-.653-.454-.653-.44-.66-.421-.66-.405-.66-.394-.66-.374-.667-.359-.666-.34-.667-.327-.667-.313-.666-.293-.674-.494-1.206-.44-1.214M525.387 334.813l-.08-.54-.107-.54-.113-.534-.139-.539-.153-.534-.175-.533-.193-.54-.207-.534-.227-.533-.24-.533-.26-.527-.273-.52-.287-.52-.298-.513-.322-.507-.326-.5-.319-.467-.333-.459-.342-.454-.353-.453-.367-.447-.378-.447-.78-.873-.82-.853-.847-.827-.873-.8-.9-.78-.848-.7-.872-.68-.887-.667-.915-.646-.925-.627-.927-.613-.946-.587-.947-.567-.94-.546-.953-.527-.962-.507-.96-.493-.972-.48-.974-.46-.987-.447-.985-.433-1.068-.447-1.08-.433-1.079-.42-1.088-.393-1.072-.38-1.081-.36-1.072-.34-1.075-.32-1.193-.34-1.192-.32-1.188-.287-1.18-.273-1.179-.247-1.173-.22-1.167-.2-1.16-.18M531.561 378.231l-1.106-7.673-1.035-7.193-.945-6.655-.942-6.612-1.005-7.18-1.141-8.108M513.635 390.71l.625.041.627.027.621.012h.613l.614-.019.605-.033.6-.048.601-.066.547-.073.547-.087.533-.093.533-.113.519-.12.521-.14.507-.148.507-.165.46-.161.445-.166.447-.188.441-.192.427-.208.42-.212.413-.228.4-.232.387-.248.38-.252.365-.26.355-.28.345-.288.341-.299.32-.307.314-.32.325-.359.308-.373.287-.387.265-.395.248-.405.233-.42.206-.427.181-.448.187-.512.145-.528.121-.532.08-.548.047-.559.007-.56-.027-.58-.067-.58M513.635 390.711l.06.167.078.14.088.106.1.067.107.027" style="fill:none;stroke:red;stroke-width:.999997;stroke-linecap:round;stroke-linejoin:round;stroke-miterlimit:4;stroke-dasharray:none;stroke-opacity:1;visibility:visible" visibility="hidden"/><path d="m391.068 251.06.319.893.348.893.38.894.407.886.44.887.466.886.5.881.534.88.56.88.593.873.62.873.66.867.687.86.713.86.752.86.78.853.815.847.845.846.881.841.906.84.94.833.974.826 1.007.821 1.033.813 1.067.813 1.1.8 1.113.787 1.146.78 1.181.78 1.105.706M399.228 275.211h0M528.688 329.92h0M404.468 242.685h0M404.588 242.893v-.08M404.408 242.48l-.146-.494-.147-.486-.153-.48-.16-.474-.16-.466-.16-.454-.167-.453-.173-.44-.174-.433-.18-.427-.181-.413-.179-.4-.18-.394-.186-.38-.187-.373-.353-.66-.362-.633-.358-.594-.374-.56-.366-.533-.374-.487-.373-.453-.367-.42-.341-.353-.333-.327-.339-.3-.333-.28-.328-.247-.334-.22-.318-.2-.314-.166-.314-.147-.299-.12-.293-.093-.295-.08-.28-.047-.28-.033-.273-.007-.266.007-.28.04-.273.06-.267.086-.253.114-.247.133-.233.16-.227.18-.22.2-.226.253-.214.287-.2.307-.186.34-.18.373-.16.393-.14.427-.134.46" style="fill:none;stroke:red;stroke-width:.999997;stroke-linecap:round;stroke-linejoin:round;stroke-miterlimit:4;stroke-dasharray:none;stroke-opacity:1;visibility:visible" visibility="hidden"/><path d="m486.335 299.7 1.052.16 1.068.185 1.078.201 1.082.227 1.092.246 1.093.267 1.101.294 1.107.306 1.099.334 1.106.353 1.107.366 1.107.394 1.101.406 1.1.427 1.1.447 1.092.473 1.1.487 1.088.513 1.085.527 1.082.553 1.065.573 1.061.587 1.047.613 1.025.634 1.022.646 1 .674.833.58.819.593.808.613.792.627.773.64.761.653.739.667.701.667.68.68.667.693.639.707.613.72.593.733.535.7.513.713.487.727.459.733.433.747.407.753.373.761.347.766.313.773.281.774.246.773.193.7.168.7.139.7.113.693M413.942 276.42l.1.06 1.241.765 1.265.755 1.302.746 1.326.74 1.359.74 1.387.72 1.42.72 1.441.707 1.48.7 1.499.693 1.528.68 1.56.674 1.585.666 1.613.654 1.647.646 1.667.634 1.7.626 1.728.614 1.745.606 1.78.594 1.801.586 1.826.567 1.86.566 1.888.547 1.912.54 1.933.527 1.96.52 1.987.5 2.013.493 2.033.474 2.053.466 2.08.454 2.101.44 2.119.42 2.142.413 2.005.366 2.027.361 2.045.34 2.061.333 2.075.32 2.1.306M528.82 330.178l1.26 8.86 1.261 8.76 1.252 8.672 1.255 8.581 1.239 8.487M392.435 228.006l.34-.046.348-.02.345.006.36.04.355.06.359.087.354.107.359.133.353.16.36.18.354.207.393.253.387.28.393.307.387.34.386.373.394.4.38.427.386.46.38.493.375.52.372.553.295.467.292.487.293.513.287.527.281.553.272.567.26.56.255.586.252.6.241.62.239.634.226.646.22.667.22.673.208.687.192.7M535.088 373.54l.067.545.04.554.013.547-.02.54-.053.533-.075.527-.099.52-.133.52-.153.507-.187.493-.2.487-.233.473M404.588 242.813l2.374 8.567 2.36 8.5 2.353 8.432 2.267 8.107M532.241 383.333l-.266.486-.287.467-.313.46-.328.44-.352.42-.368.413-.387.394-.405.373-.482.413-.5.393-.518.374-.535.353-.552.333-.568.308-.579.292-.588.274-.685.286-.701.26-.712.234-.735.206-.739.188-.746.16-.76.14-.775.112-.772.08-.74.06-.747.04-.753.014-.753-.007-.768-.027-.759-.052M383.368 254.206l-.313-.953-.28-.96-.253-.967-.22-.96-.2-.973-.16-.967-.14-.973-.107-.973-.073-.974-.054-.98-.02-.98.007-.973.04-.98.06-.967.093-.973.114-.967.146-.966.167-.974.2-.966.22-.974.247-.966M382.842 233.84l.145-.507.167-.487.188-.466.205-.44.22-.42.248-.387.267-.367.28-.346.306-.307.327-.287.34-.246.367-.22.38-.18.318-.127.334-.093.34-.074M534.053 379.785l-.36.705-.358.708-.367.712-.368.708-.352.692M387.275 228.885l1.028-.173 1.033-.18 1.032-.174 1.035-.18 1.019-.173M496.707 389.198l2.108.312 2.125.301 2.141.28 2.167.26 2.18.247 2.193.226 2.214.207 2.233.187M392.428 228.006h.007" style="fill:none;stroke:red;stroke-width:1.99999;stroke-linecap:round;stroke-linejoin:round;stroke-miterlimit:4;stroke-dasharray:none;stroke-opacity:1;visibility:visible" visibility="hidden"/><path d="m555.638 447.42-.153.133-.187.114-.213.106-.24.094-.26.073-.28.053-.287.034-.293.02-.294-.007-.286-.02-.28-.047-.26-.06-.234-.08-.213-.093-.173-.107-.147-.126-.107-.127-.066-.14-.027-.14.013-.147.054-.14.093-.14.133-.133.167-.12.2-.113.227-.1.253-.08.267-.067.286-.047.294-.026.293-.007.287.013.286.034.267.053.247.073.22.087.2.1.16.113.126.127.087.14.047.14.013.14-.033.147-.08.14-.107.133M594.34 436.473l-.153.133-.187.114-.213.106-.24.094-.26.073-.28.053-.287.034-.293.02-.294-.007-.286-.02-.28-.047-.26-.06-.234-.08-.213-.093-.173-.107-.147-.126-.107-.127-.066-.14-.027-.14.013-.147.054-.14.093-.14.133-.133.167-.12.2-.113.227-.1.253-.08.267-.067.286-.047.294-.026.293-.007.287.013.286.034.267.053.247.073.22.087.2.1.16.113.126.127.087.14.047.14.013.14-.033.147-.08.14-.107.133M568.89 423.036l32.713 26.061M569.842 444.838l-.773-21.553" style="fill:none;stroke:#00ff4a;stroke-width:.999997;stroke-linecap:round;stroke-linejoin:round;stroke-miterlimit:4;stroke-dasharray:none;stroke-opacity:1;visibility:visible"/><path d="m620.22 451.771-48.233-37.913" style="fill:none;stroke:#00ff4a;stroke-width:1.99999;stroke-linecap:round;stroke-linejoin:round;stroke-miterlimit:4;stroke-dasharray:none;stroke-opacity:1;visibility:visible"/><path d="m696.542 465.011-.007.321-.04.314-.086.313-.127.307-.167.306-.206.294-.247.286-.287.28-.32.267-.353.253-.387.24-.42.22-.446.207-.48.193-.5.174-.527.153-.54.133-.56.114M702.808 664.892l-11.967-195.506M662.822 465.479l28.02 3.907M468.641 439.626l.307.007.294.026.279.046.26.068.24.086.201.107.172.12.135.133.093.147.052.153.014.159-.039.155-.073.16-.115.153-.159.147-.188.133-.225.127-.248.106-.272.087-.293.073-.3.047-.307.033-.307.007-.3-.02-.294-.033-.274-.06-.245-.08-.22-.1-.188-.114-.152-.128-.113-.138-.074-.147-.026-.16.013-.153.052-.16.095-.154.14-.153.172-.14.208-.128.24-.119.26-.093.278-.08.302-.06.3-.04.305-.02M647.79 458.279h.319l.32.033.3.047.293.073.268.095.232.112.207.127.173.148.135.152.086.16.046.166.006.167-.046.167-.087.161-.127.15-.172.149-.201.126-.239.114-.266.101-.288.072-.307.053-.313.026-.32.008-.32-.014-.314-.04-.293-.066-.28-.08-.252-.107-.227-.12-.188-.133-.153-.154-.107-.153-.066-.167-.027-.166.027-.167.06-.167.113-.16.147-.146.186-.142.227-.118.248-.1.28-.087.292-.06.313-.047.315-.013" style="fill:none;stroke:#00ff4a;stroke-width:.999997;stroke-linecap:round;stroke-linejoin:round;stroke-miterlimit:4;stroke-dasharray:none;stroke-opacity:1;visibility:visible"/><path d="m559.483 451.073 103.34 14.407 3.532-7.34M443.662 444.853l1.893 20.26M443.696 444.686l-.033.167M662.822 465.479l-.173 27.98M443.662 444.853l38.021-.807M506.923 444.038l1.673.135 1.667.146 1.652.174 1.647.193 1.634.213M560.049 464.913l-.32-7.76M559.722 464.866l.327.048M545.502 449.678l-.028-.552M515.196 444.9l30.279 4.227" style="fill:none;stroke:#00ff4a;stroke-width:.999997;stroke-linecap:round;stroke-linejoin:round;stroke-miterlimit:4;stroke-dasharray:none;stroke-opacity:1;visibility:visible"/><path d="m369.743 257.727.047.173.06.187.06.187.065.2.14.373.155.393.153.374.159.38.161.386.152.394.16.433.081.213.074.214.08.24.073.24.067.232.06.234" style="fill:none;stroke:#00ff4a;stroke-width:1.99999;stroke-linecap:round;stroke-linejoin:round;stroke-miterlimit:4;stroke-dasharray:none;stroke-opacity:1;visibility:visible"/><path d="m444.716 436.9-.015-.04h-.013l-.004.027M446.216 472.026l.032.221.028.192.032.16.028.127.019.093.028.06.02.02.012-.02M443.996 448.393l-63.372-197.16-9.141 2.714" style="fill:none;stroke:#00ff4a;stroke-width:.999997;stroke-linecap:round;stroke-linejoin:round;stroke-miterlimit:4;stroke-dasharray:none;stroke-opacity:1;visibility:visible"/><path d="m374.436 622.992 14.14-56.887 13.881-55.853 13.412-53.993.854-3.427.213-.933.188-.947.159-.946.14-.954.106-.953.087-.96.053-.967.034-.973v-.967l-.027-.973-.047-.98-.08-.973-.106-.98-.127-.974-.16-.98-.187-.973-.206-.973-.122-.487-.052-.235-.06-.225-.44-1.78-1.781-7.18-7.245-29.193-16.255-65.493-19.325-77.887M371.483 253.946l-.008-.02v-.012l-.005-.015v-.012l-.008-.014-.006-.012M371.457 253.86l-.401-.007-.372-.014-.348-.039-.319-.047-.295-.074-.273-.079-.233-.1-.207-.12-.173-.128-.139-.145-.107-.162-.073-.165-.021-.067M373.248 247.345l-.013-.019-.007-.013-.007-.013v-.007l-.005-.007M380.623 251.233l.125-.227.122-.24.118-.233.12-.233.107-.22.093-.2.087-.18.067-.154.054-.126.032-.094M583.016 481.853l.327 4.893 1.921 28.506 2.784 41.32M578.942 391.973l4.12-12.295M579.602 413.006l.483 7.24M579.602 413.006l-.66-21.033M578.942 391.973l-12.887-.693M571.769 399.653l-.153.133-.187.114-.213.106-.242.094-.258.073-.28.053-.287.034-.295.02-.292-.007-.286-.02-.28-.047-.26-.06-.234-.08-.212-.093-.174-.107-.147-.126-.107-.127-.066-.14-.027-.14.013-.147.054-.14.093-.14.133-.133.167-.12.2-.113.227-.1.253-.08.267-.067.286-.047.294-.026.293-.007.287.013.288.034.265.053.247.073.218.087.202.1.16.113.126.127.087.14.045.14.015.14-.032.147-.081.14-.107.133M527.656 493.612l-.173.16-.214.147-.248.133-.273.115-.299.085-.313.067-.328.046-.325.02-.327-.006-.32-.035-.307-.052-.286-.08-.254-.1-.233-.127-.187-.133-.154-.153-.112-.167-.067-.173-.02-.18.027-.18.065-.18.115-.174.158-.166.195-.154.227-.14.26-.12.286-.1.306-.078.321-.054.327-.034.326-.007.327.02.305.048.302.065.273.086.24.114.213.134.174.14.132.16.088.173.046.173v.18l-.046.18-.092.18-.135.167M519.696 508l1.733 28.56M519.402 507.926l.295.073M545.47 480.412l.9-.993.859-.994.814-1 .766-1.013.728-1.013.68-1.02.638-1.02.594-1.027.548-1.033.505-1.034.46-1.033.415-1.04.372-1.033M560.009 463.993l-.325.993M553.748 467.16l25.195-75.186M559.683 464.986l.227 5.513M519.696 508l25.773-27.587M482.716 321.426l-5.127 7.033M484.876 752.86l7.081-75.586 6.806-72.647 6.446-68.793.4-4.313.1-1.175.086-1.159.074-1.153.06-1.147.046-1.133.028-1.12.013-1.113.005-1.1-.012-1.094-.034-1.08-.04-1.06-.052-1.053-.075-1.041-.085-1.02-.1-1.007-.114-.992-.126-.981-.075-.48-.032-.232-.033-.22-.26-1.762-1.074-7.093-4.36-28.979-9.921-65.893-12.039-79.972M477.59 328.46l-.008-.013v-.034l-.005-.006-.008-.02v-.015M477.569 328.372l-.552.275-.575.246-.578.227-.595.207-.613.186-.619.16-.621.134-.62.113-.627.087-.62.06-.625.033-.615.007-.6-.02-.585-.048-.575-.066-.56-.1-.54-.12-.513-.146-.494-.174-.466-.193-.439-.213-.413-.24-.375-.26-.347-.28-.312-.294-.273-.313-.248-.333-.199-.34-.134-.288-.112-.292-.087-.3-.061-.307M482.716 321.426l.053-.3.022-.3-.015-.293-.032-.274M474.363 329.593h0" style="fill:none;stroke:#00ff4a;stroke-width:.999997;stroke-linecap:round;stroke-linejoin:round;stroke-miterlimit:4;stroke-dasharray:none;stroke-opacity:1;visibility:visible"/><path d="M707.989 660.385v.347l-.032.34-.081.34-.114.326-.146.32-.187.312-.227.302-.253.293-.293.273-.32.26-.354.24-.386.227-.408.207-.432.186-.462.167-.478.14-.494.127-.514.1M694.155 461.966l.42.26.381.267.346.286.306.294.267.306.22.32.18.32.133.326.087.333.047.333M702.808 664.892l-9.852-2.073M666.355 458.14l27.801 3.827M692.123 662.186l.039.113.066.114.1.106.128.1.146.08.173.067.181.053" style="fill:none;stroke:#00ff4a;stroke-width:1.99999;stroke-linecap:round;stroke-linejoin:round;stroke-miterlimit:4;stroke-dasharray:none;stroke-opacity:1;visibility:visible"/><path d="m662.835 493.246-.02-.133-.02-.16-.013-.202-.02-.232-.014-.26-.013-.288-.013-.318-.007-.348-.013-.366-.006-.386-.008-.414-.005-.426v-1.822" style="fill:none;stroke:#00ff4a;stroke-width:.999997;stroke-linecap:round;stroke-linejoin:round;stroke-miterlimit:4;stroke-dasharray:none;stroke-opacity:1;visibility:visible"/><path d="m707.989 660.385-11.447-195.374M662.835 493.246l29.288 168.94M666.355 458.14l-104.432-14.367" style="fill:none;stroke:#00ff4a;stroke-width:1.99999;stroke-linecap:round;stroke-linejoin:round;stroke-miterlimit:4;stroke-dasharray:none;stroke-opacity:1;visibility:visible"/><path d="m445.556 465.113.647 6.913M444.91 437.74l-1.213 6.947" style="fill:none;stroke:#00ff4a;stroke-width:.999997;stroke-linecap:round;stroke-linejoin:round;stroke-miterlimit:4;stroke-dasharray:none;stroke-opacity:1;visibility:visible"/><path d="m662.65 493.46.167-.353M446.203 472.026l39.78-.8M512.316 471.633l1.52.173 1.519.187 1.5.213" style="fill:none;stroke:#00ff4a;stroke-width:1.99999;stroke-linecap:round;stroke-linejoin:round;stroke-miterlimit:4;stroke-dasharray:none;stroke-opacity:1;visibility:visible"/><path d="m559.729 457.153-.247-6.08" style="fill:none;stroke:#00ff4a;stroke-width:.999997;stroke-linecap:round;stroke-linejoin:round;stroke-miterlimit:4;stroke-dasharray:none;stroke-opacity:1;visibility:visible"/><path d="m516.855 472.206 17.893 2.607M560.243 478.526l25.976 3.788M586.109 482.297l76.54 11.163M548.028 441.868l-5.219-.718-21.845-3.164s-12.79-1.404-14.617-1.264M548.055 442.413l-.027-.547M480.562 436.973l-35.652.767M380.116 297.233l.053.227.047.218.04.215.035.2.025.187.02.18.028.333.012.28v.247l-.007.22-.005.186-.013.174-.015.126-.007.054-.006.046v.047M378.396 292.44l.047.18.06.18.06.193.066.194.14.373.155.393.145.367.16.38.154.38.153.387.161.42.079.213.075.207.073.233.072.233.067.234.053.226M371.49 262.58l.053.232.047.227.047.221.033.213.027.192.02.188.032.346.014.294v.494l-.014.2-.006.185-.013.141v.174M446.43 472.826l.133-.807M444.882 437.906l-.032-.22-.028-.193-.02-.174-.027-.146-.02-.12-.02-.094-.02-.06M446.415 472.88l.008-.027.007-.026M386.082 622.745l-.06.107-.099.106-.128.1-.145.08-.175.06-.185.047-.193.028-.202.005-10.458-.286M374.436 622.992l-.273-.127-.26-.133-.247-.14-.241-.153-.206-.147-.2-.153-.186-.154-.174-.166-.146-.154-.14-.16-.127-.16-.12-.166-.099-.167-.094-.173-.08-.174-.074-.173-.06-.193-.046-.194-.034-.193-.02-.2-.006-.22.006-.22.032-.227.047-.22M368.496 252.713h0M371.689 618.826l.948-3.84 1.139-4.633 1.381-5.58 1.66-6.74 2.007-8.154 2.433-9.866 2.953-11.975 3.594-14.558 4.372-17.747 5.354-21.707 6.574-26.654 8.113-32.912 1.24-5.02.12-.507.127-.507.113-.473.099-.467.1-.474.088-.472.132-.794.106-.806.088-.807.066-.813.04-.814.02-.82v-.82l-.026-.913-.054-.92-.087-.913-.107-.927-.14-.92-.166-.92-.194-.927-.185-.78-.208-.833-.205-.827-.208-.826-.206-.827-.208-.833-.206-.834-.206-.833-.213-.833-.208-.834-.207-.84-.205-.833-.213-.84-.208-.833-.207-.84-3.312-13.28-4.027-16.147-4.901-19.68-6.007-24.08-7.365-29.56-4.753-19.06M378.396 292.44l-6.667-26.753M369.743 257.727l-1.248-5.007M444.716 436.9l-28.377-88.841M380.246 245.192l-7.03 2.095M368.496 252.713l-.039-.2-.021-.207v-.2l.013-.2.034-.186.066-.26.092-.24.115-.24.127-.234.186-.28.214-.273.24-.273.26-.267.286-.267.26-.226.287-.234.299-.226.314-.22.327-.227.347-.22.353-.213.313-.18.32-.18.327-.174M446.415 472.88l-60.333 149.866M570.376 379.02l.38-.193.413-.18.434-.167.453-.153.48-.134.485-.12.508-.106.52-.094.532-.066.535-.054.54-.04.54-.013h.54l.54.013.532.04.521.054.514.073.493.087.48.106.467.127.44.133.418.154.395.166.367.187.34.193.306.207.274.213.24.226M590.34 551.139l-2.93-67.57M584.988 423.912l-1.925-44.233M578.269 556.113l9.78.46M577.97 556.065l-.135-.047-.113-.06-.099-.072-.068-.08-.046-.08-.026-.094M590.516 551.14l-1.388 4.945M566.055 391.28l4.32-12.26M577.97 556.065l.145.027.155.021M588.049 556.572h.187l.178-.02.175-.047.159-.06.141-.074.113-.086.079-.1.048-.1M577.482 555.632l-5.613-75.406" style="fill:none;stroke:#00ff4a;stroke-width:1.99999;stroke-linecap:round;stroke-linejoin:round;stroke-miterlimit:4;stroke-dasharray:none;stroke-opacity:1;visibility:visible"/><path d="m579.265 419.788.497-1.541" style="fill:none;stroke:#00ff4a;stroke-width:.999997;stroke-linecap:round;stroke-linejoin:round;stroke-miterlimit:4;stroke-dasharray:none;stroke-opacity:1;visibility:visible"/><path d="m521.335 536.532.093.027" style="fill:none;stroke:#00ff4a;stroke-width:1.99999;stroke-linecap:round;stroke-linejoin:round;stroke-miterlimit:4;stroke-dasharray:none;stroke-opacity:1;visibility:visible"/><path d="m578.942 391.973-1.267-.073" style="fill:none;stroke:#00ff4a;stroke-width:.999997;stroke-linecap:round;stroke-linejoin:round;stroke-miterlimit:4;stroke-dasharray:none;stroke-opacity:1;visibility:visible"/><path d="m546.816 508.486.887-1.007.846-1.013.8-1.027.76-1.026.714-1.034.673-1.04.627-1.04.586-1.046.539-1.047.495-1.053.453-1.06.407-1.055.366-1.059 5.274-16.326" style="fill:none;stroke:#00ff4a;stroke-width:1.99999;stroke-linecap:round;stroke-linejoin:round;stroke-miterlimit:4;stroke-dasharray:none;stroke-opacity:1;visibility:visible"/><path d="m559.91 470.5.333 8.153" style="fill:none;stroke:#00ff4a;stroke-width:.999997;stroke-linecap:round;stroke-linejoin:round;stroke-miterlimit:4;stroke-dasharray:none;stroke-opacity:1;visibility:visible"/><path d="m545.816 448.786-6.147 17.467" style="fill:none;stroke:#00ff4a;stroke-width:1.99999;stroke-linecap:round;stroke-linejoin:round;stroke-miterlimit:4;stroke-dasharray:none;stroke-opacity:1;visibility:visible"/><path d="m548.227 441.931-2.412 6.855" style="fill:none;stroke:#00ff4a;stroke-width:.999997;stroke-linecap:round;stroke-linejoin:round;stroke-miterlimit:4;stroke-dasharray:none;stroke-opacity:1;visibility:visible"/><path d="m566.055 391.28-17.828 50.652M539.669 466.252l-.353.933-.394.934-.44.926-.48.927-.528.927-.564.92-.606.92-.655.913-.692.901-.741.906-.78.893-.812.88-15.948 16.747M521.43 536.559l25.387-28.073M519.549 508.673l.067.353.06.36.053.372.047.382.046.393.04.393.034.4.026.4 1.447 23.807M521.37 535.532l.007.275v.265l-.022.253-.025.24M481.957 319.24l-12.26-2.38M490.942 745.325l-.028.12-.052.12-.08.107-5.907 7.186M484.876 752.86l-.347.133-.36.126-.361.121-.372.107-.373.093-.38.08-.388.073-.386.06-.366.047-.367.032-.36.021-.367.014h-.368l-.365-.008-.361-.019-.359-.035-.327-.04-.326-.045-.322-.053-.312-.067-.306-.075-.307-.078-.301-.095-.292-.092-.28-.107-.274-.113-.266-.12-.26-.133-.247-.134-.24-.14-.233-.153-.22-.153-.235-.174-.212-.18-.207-.194-.193-.192-.175-.2-.166-.2-.154-.215-.138-.212-.134-.247-.126-.254-.102-.254-.085-.253-.067-.259-.053-.266-.027-.267-.013-.267M472.395 748.473l9.687-106.92 5.073-55.986 2.588-28.54 1.305-14.407.66-7.24.327-3.626.287-3.18.041-.455.06-.645.052-.647.087-1.28.074-1.273.06-1.262.032-1.253.02-1.232.008-1.227-.021-1.214-.02-.967-.04-.959-.052-.946-.061-.934M469.696 316.86l-.18-.013-.187.033-.188.073-.18.12-.18.16-.158.2M463.069 324.92l-.052.08-.033.073-.027.08-.021.074-.006.086v.094M482.743 320.26l-.075-.26-.092-.233-.128-.2-.145-.154-.167-.106-.18-.067M492.562 514.279l-.08-1-.093-.98-.107-.96-.12-.94-.132-.92-.148-.952-.16-.975-.153-.972-.154-.973-.153-.975-.153-.98-.152-.974-2.342-14.786-2.858-18.085-3.514-22.221-4.341-27.427-5.393-34.08-3.334-21.086-3.413-21.58-2.787-17.634M468.623 317.433l-5.555 7.487M462.975 325.78l-.013-.075-.006-.072-.013-.074-.007-.08-.006-.072M482.743 320.26l36.805 188.413M521.329 536.566l-30.387 208.76" style="fill:none;stroke:#00ff4a;stroke-width:1.99999;stroke-linecap:round;stroke-linejoin:round;stroke-miterlimit:4;stroke-dasharray:none;stroke-opacity:1;visibility:visible"/><path d="m599.646 464.132.021.34.06.333.107.327.145.32.188.307.22.28.252.26.28.226.308.2.32.16.34.127.352.087.354.046h.354l.339-.033.34-.08.315-.113.298-.16.268-.187.239-.227.207-.246.173-.28.127-.3.093-.314.041-.333.007-.333-.041-.334-.087-.333-.127-.327-.166-.313-.199-.293-.241-.274-.267-.24-.293-.22-.32-.18-.334-.14-.34-.106-.353-.067-.352-.027-.355.014-.34.06-.326.1-.306.133-.288.18-.253.207-.227.24-.186.26-.147.293-.113.307-.066.32-.021.333" style="fill:none;stroke:#00ff4a;stroke-width:.999997;stroke-linecap:round;stroke-linejoin:round;stroke-miterlimit:4;stroke-dasharray:none;stroke-opacity:1;visibility:visible"/><path d="m601.722 463.167 1.104-.479 1.084.75.061 1.084-1 .541-1.166-.604-.083-1.292M599.947 477.49l.021.34.06.333.107.327.145.32.188.307.22.28.252.26.28.226.308.2.32.16.34.127.352.085.354.048h.354l.339-.033.34-.08.315-.113.298-.16.268-.187.239-.227.207-.248.173-.278.127-.3.093-.314.041-.333.007-.333-.041-.334-.087-.333-.127-.327-.166-.313-.199-.293-.241-.274-.267-.24-.293-.22-.32-.18-.334-.14-.34-.106-.353-.067-.352-.027-.355.014-.34.06-.326.1-.306.133-.288.18-.253.207-.227.24-.186.26-.147.293-.113.307-.066.32-.021.333" style="fill:none;stroke:#00ff4a;stroke-width:.999997;stroke-linecap:round;stroke-linejoin:round;stroke-miterlimit:4;stroke-dasharray:none;stroke-opacity:1;visibility:visible"/><path d="m602.023 476.525 1.104-.479 1.084.75.061 1.084-1 .541-1.166-.604-.083-1.292M442.22 289.866h0M559.482 451.073l10.36-6.235M480.562 436.973l-11.921 2.653M468.641 439.626l13.042 4.42M444.715 436.9l-.719 11.493M516.676 493.979l10.98-.367M662.649 493.459l.034-5.568" style="fill:none;stroke:#00ff4a;stroke-width:.999997;stroke-linecap:round;stroke-linejoin:round;stroke-miterlimit:4;stroke-dasharray:none;stroke-opacity:1;visibility:visible"/><path d="m548.028 441.868 13.895 1.905M468.641 439.626l11.921-2.653M371.483 253.947l8.763-8.755M579.602 413.006l5.386 10.906M560.243 478.653l11.626 1.573" style="fill:none;stroke:#00ff4a;stroke-width:1.99999;stroke-linecap:round;stroke-linejoin:round;stroke-miterlimit:4;stroke-dasharray:none;stroke-opacity:1;visibility:visible"/><path d="m578.942 391.973-1.267-.073" style="fill:none;stroke:#00ff4a;stroke-width:.999997;stroke-linecap:round;stroke-linejoin:round;stroke-miterlimit:4;stroke-dasharray:none;stroke-opacity:1;visibility:visible"/><path d="m527.656 493.612-10.98.367" style="fill:none;stroke:#00ff4a;stroke-width:1.99999;stroke-linecap:round;stroke-linejoin:round;stroke-miterlimit:4;stroke-dasharray:none;stroke-opacity:1;visibility:visible"/><path d="m382.842 233.84-1.294 15.486" style="fill:none;stroke:#00ff4a;stroke-width:.999997;stroke-linecap:round;stroke-linejoin:round;stroke-miterlimit:4;stroke-dasharray:none;stroke-opacity:1;visibility:visible"/></svg>