<svg xmlns="http://www.w3.org/2000/svg" baseProfile="full" height="1122.52" preserveAspectRatio="xMinYMin meet" style="width:765px;height:943px" width="793.701" xml:space="preserve"><path d="m628.333 388.727-.153.133-.187.114-.213.106-.24.094-.26.073-.28.053-.287.034-.293.02-.294-.007-.286-.02-.28-.047-.26-.06-.234-.08-.213-.093-.173-.107-.147-.126-.107-.127-.066-.14-.027-.14.013-.147.054-.14.093-.14.133-.133.167-.12.2-.113.227-.1.253-.08.267-.067.286-.047.294-.026.293-.007.287.013.286.034.267.053.247.073.22.087.2.1.16.113.126.127.087.14.047.14.013.14-.033.147-.08.14-.107.133M602.883 375.29l32.713 26.061M603.835 397.093l-.773-21.553" style="fill:none;stroke:red;stroke-width:.999997;stroke-linecap:round;stroke-linejoin:round;stroke-miterlimit:4;stroke-dasharray:none;stroke-opacity:1;visibility:visible" visibility="hidden"/><path d="m654.213 404.026-48.233-37.913" style="fill:none;stroke:red;stroke-width:1.99999;stroke-linecap:round;stroke-linejoin:round;stroke-miterlimit:4;stroke-dasharray:none;stroke-opacity:1;visibility:visible" visibility="hidden"/><path d="m730.475 417.265-.007.32-.04.315-.086.312-.127.306-.167.307-.206.293-.247.287-.287.28-.32.268-.353.253-.387.24-.42.219-.446.208-.48.192-.5.173-.527.155-.54.133-.56.112M736.741 617.145l-11.967-195.506M696.755 417.732l28.02 3.907M639.068 415.966l-.007-.127-.013-.126" style="fill:none;stroke:#00ff4a;stroke-width:.999997;stroke-linecap:round;stroke-linejoin:round;stroke-miterlimit:4;stroke-dasharray:none;stroke-opacity:1;visibility:visible"/><path d="m633.713 415.843.02-.15.073-.285.12-.274.167-.254.193-.228.234-.192.26-.168.293-.125.313-.093.327-.062.34-.018.353.018.354.062.346.1.34.133.327.167.313.193.28.233.26.247.227.273.187.294.153.306.113.307.074.313.026.314s.124 1.118-.465 1.604M502.575 391.88l.307.007.293.026.28.047.26.067.24.086.2.107.173.12.134.133.093.147.053.153.014.16-.04.154-.074.16-.113.153-.16.147-.187.133-.226.127-.247.106-.273.087-.294.073-.3.047-.306.033-.307.007-.3-.02-.293-.033-.274-.06-.246-.08-.22-.1-.187-.114-.153-.126-.114-.14-.073-.147-.027-.16.014-.153.053-.16.093-.154.14-.153.174-.14.206-.127.24-.12.26-.093.28-.08.3-.06.3-.04.307-.02M681.722 410.532h.32l.32.033.3.047.293.073.267.095.233.112.207.127.173.148.134.152.086.16.047.166.007.167-.047.167-.087.161-.126.152-.174.147-.2.126-.24.114-.266.101-.287.072-.307.053-.313.027-.32.007-.32-.014-.313-.04-.294-.066-.28-.08-.253-.107-.227-.12-.186-.133-.154-.154-.106-.153-.067-.167-.027-.166.027-.167.06-.167.113-.16.147-.146.187-.14.226-.12.247-.1.28-.087.293-.06.314-.047.313-.013" style="fill:none;stroke:#00ff4a;stroke-width:.999997;stroke-linecap:round;stroke-linejoin:round;stroke-miterlimit:4;stroke-dasharray:none;stroke-opacity:1;visibility:visible"/><path d="m593.415 403.326 103.34 14.407 3.533-7.34M477.595 397.106l1.893 20.26M477.628 396.94l-.033.167M696.755 417.732l-.173 27.98M477.595 397.106l38.02-.807M540.855 396.292l1.673.133 1.667.147 1.653.173 1.647.194 1.633.214M593.982 417.167l-.32-7.76M593.655 417.12l.327.048M579.435 401.932l-.027-.553M549.128 397.153l30.28 4.227" style="fill:none;stroke:#00ff4a;stroke-width:.999997;stroke-linecap:round;stroke-linejoin:round;stroke-miterlimit:4;stroke-dasharray:none;stroke-opacity:1;visibility:visible"/><path d="m430.962 243.253-.093-.267-.094-.24-.093-.206-.093-.174-.094-.14-.086-.085-.08-.055h-.074l-.06.04-.053.087-.033.133-.027.167-.007.207.007.233.013.26.034.288.046.292.06.307.067.3.08.3.087.286.086.26.094.24.1.214.093.173.093.133.087.087.08.053h.073l.06-.046.047-.087.04-.125.02-.175.013-.2-.006-.24-.02-.26-.034-.28-.046-.293-.054-.307-.073-.299-.073-.301-.087-.28" style="fill:none;stroke:#00ff4a;stroke-width:.666665;stroke-linecap:round;stroke-linejoin:round;stroke-miterlimit:4;stroke-dasharray:none;stroke-opacity:1;visibility:visible"/><path d="m403.675 209.98.047.173.06.187.06.187.066.2.14.373.154.393.153.374.16.38.16.386.153.394.16.433.08.213.074.214.08.24.073.24.067.232.06.234" style="fill:none;stroke:#00ff4a;stroke-width:1.99999;stroke-linecap:round;stroke-linejoin:round;stroke-miterlimit:4;stroke-dasharray:none;stroke-opacity:1;visibility:visible"/><path d="m420.048 209.14-.093-.273-.094-.247-.1-.22-.1-.179-.093-.148-.093-.1-.08-.06-.08-.006-.06.033-.054.08-.04.127-.026.166-.014.2.007.234.013.266.034.28.046.3.06.307.067.313.08.3.087.294.093.273.1.247.1.22.1.186.093.14.094.1.08.06.073.007.067-.033.053-.087.04-.12.027-.167.013-.2-.007-.238-.02-.262-.033-.286-.04-.294-.06-.306-.073-.314-.08-.3-.087-.293" style="fill:none;stroke:#00ff4a;stroke-width:.666665;stroke-linecap:round;stroke-linejoin:round;stroke-miterlimit:4;stroke-dasharray:none;stroke-opacity:1;visibility:visible"/><path d="m478.649 389.153-.013-.04h-.014l-.006.027M480.149 424.28l.033.221.027.192.033.16.027.127.02.093.027.06.02.02.013-.02M415.482 201.58l1.633-4.933M477.929 400.646l-63.373-197.16-9.14 2.714" style="fill:none;stroke:#00ff4a;stroke-width:.999997;stroke-linecap:round;stroke-linejoin:round;stroke-miterlimit:4;stroke-dasharray:none;stroke-opacity:1;visibility:visible"/><path d="m408.369 575.246 14.14-56.887 13.88-55.853 13.413-53.993.854-3.427.213-.933.187-.947.16-.946.14-.954.106-.953.087-.96.053-.967.034-.973v-.967l-.027-.973-.047-.98-.08-.973-.106-.98-.127-.974-.16-.98-.187-.973-.206-.973-.12-.487-.054-.233-.06-.227-.44-1.78-1.78-7.18-7.246-29.193-16.254-65.493-19.326-77.887M405.416 206.2l-.007-.02v-.012l-.006-.015v-.012l-.007-.014-.007-.012M405.389 206.114l-.4-.007-.373-.014-.347-.039-.32-.047-.293-.074-.274-.079-.233-.1-.207-.12-.173-.128-.14-.145-.107-.162-.073-.165-.02-.067M417.116 196.647l.013-.048.007-.025M407.182 199.6l-.013-.02-.007-.012-.007-.013v-.008l-.006-.006M414.556 203.487l.127-.227.12-.24.12-.233.12-.233.106-.22.094-.2.086-.18.067-.154.053-.126.034-.094M621.923 508.319l-4.975-74.212M612.875 344.226l-12.887-.693M612.875 344.226l4.12-12.293M605.702 351.906l-.153.133-.187.114-.213.106-.24.094-.26.073-.28.053-.287.034-.293.02-.294-.007-.286-.02-.28-.047-.26-.06-.234-.08-.213-.093-.173-.107-.147-.126-.107-.127-.066-.14-.027-.14.013-.147.054-.14.093-.14.133-.133.167-.12.2-.113.227-.1.253-.08.267-.067.286-.047.294-.026.293-.007.287.013.286.034.267.053.247.073.22.087.2.1.16.113.126.127.087.14.047.14.013.14-.033.147-.08.14-.107.133M561.589 445.866l-.173.16-.214.147-.246.133-.274.115-.3.085-.313.067-.327.046-.326.02-.327-.006-.32-.034-.307-.053-.286-.08-.254-.1-.233-.127-.187-.133-.153-.153-.113-.167-.067-.173-.02-.18.027-.18.066-.18.114-.174.16-.166.193-.154.227-.14.26-.12.286-.1.307-.078.32-.054.327-.034.326-.007.327.02.307.048.3.065.273.087.24.113.213.134.174.14.133.16.087.173.046.173v.18l-.046.18-.094.18-.133.167M553.628 460.252l1.733 28.56M553.335 460.18l.293.073M579.402 432.666l.9-.993.86-.994.813-1 .767-1.013.727-1.013.68-1.02.64-1.02.593-1.027.547-1.033.506-1.034.46-1.033.414-1.04.373-1.033M593.942 416.246l-.327.993M587.682 419.413l25.193-75.186M593.615 417.24l.227 5.513M553.628 460.252l25.773-27.587M514.289 327.24l.033.32v.32l-.033.327-.06.313-.093.313-.12.307-.14.293-.167.287-.193.273-.207.254-.233.24-.247.226-.26.2-.28.187-.293.16-.3.133-.294.1-.3.074-.3.053-.306.02h-.307l-.313-.033-.307-.06-.307-.08-.3-.114-.286-.14-.287-.16-.273-.186-.267-.207-.253-.227-.24-.24-.227-.26-.2-.253-.193-.26-.18-.273-.167-.28-.16-.287-.147-.293-.14-.3-.126-.3-.12-.3-.114-.307-.1-.307-.093-.3-.08-.293-.067-.293-.06-.287-.053-.273-.04-.267-.027-.253-.013-.234-.007-.226.007-.214.02-.193.027-.18.046-.167.054-.153.066-.14.087-.12.093-.113.107-.094.12-.086.14-.074.147-.06.18-.046.193-.04.207-.027.22-.007h.24l.253.014.267.026.28.04.286.054.3.066.307.074.32.086.32.094.32.106.327.114.326.126.36.154.354.166.346.174.34.186.327.2.313.207.3.22.287.233.26.24.24.26.213.267.194.28.16.293.133.3.1.314.06.313" style="fill:none;stroke:#00ff4a;stroke-width:.999997;stroke-linecap:round;stroke-linejoin:round;stroke-miterlimit:4;stroke-dasharray:none;stroke-opacity:1;visibility:visible"/><path d="m505.455 324.86-.06-.36-.02-.347.013-.341.047-.319.08-.3.12-.28M513.835 329.506l-.28.195-.32.16-.34.118-.373.082-.394.038h-.42l-.426-.038-.447-.088-.447-.12-.453-.152-.453-.2-.447-.228-.44-.26-.42-.294-.407-.32-.386-.338-.36-.368-.327-.38-.3-.4-.267-.407-.226-.413-.194-.414-.146-.413-.107-.405" style="fill:none;stroke:#00ff4a;stroke-width:.999997;stroke-linecap:round;stroke-linejoin:round;stroke-miterlimit:4;stroke-dasharray:none;stroke-opacity:1;visibility:visible"/><path d="m508.029 325.406-.033-.26.013-.253.053-.234.1-.2.147-.173.18-.14.213-.1.247-.06.273-.02.287.027.3.06.307.106.3.14.293.18.28.207.26.233.233.254.2.266.16.274.12.28.08.28.034.266-.014.247-.06.233-.1.2-.146.174-.18.133-.214.1-.246.06-.274.02-.286-.02-.3-.067-.307-.106-.3-.14-.293-.174-.28-.206-.26-.234-.227-.253-.2-.267-.16-.273-.12-.28-.08-.28M508.822 291.48l.033.333.007.334-.033.333-.067.333-.093.327-.12.313-.14.307-.174.301-.193.279-.213.267-.234.254-.246.232-.274.214-.28.186-.293.167-.313.147-.294.106-.306.08-.307.054-.313.033h-.314l-.313-.027-.313-.06-.314-.08-.3-.106-.3-.14-.286-.16-.28-.187-.274-.205-.253-.235-.247-.247-.233-.26-.207-.253-.193-.267-.18-.28-.173-.286-.16-.294-.154-.3-.14-.298-.133-.307-.12-.315-.113-.313-.107-.307-.093-.313-.08-.307-.074-.3-.06-.3-.053-.286-.04-.274-.033-.258-.014-.248-.006-.24.006-.22.014-.207.033-.192.04-.173.06-.168.067-.147.08-.133.1-.12.106-.107.12-.093.14-.087.154-.067.173-.06.2-.045.207-.035.226-.013.247-.005.253.005.274.027.28.033.3.047.306.06.307.073.327.088.32.092.333.107.333.12.327.126.367.154.366.174.354.179.346.187.334.206.32.22.306.227.287.24.273.253.247.267.22.28.193.293.167.3.133.314.1.326.067.327" style="fill:none;stroke:#00ff4a;stroke-width:.999997;stroke-linecap:round;stroke-linejoin:round;stroke-miterlimit:4;stroke-dasharray:none;stroke-opacity:1;visibility:visible"/><path d="m499.842 289.173-.06-.392-.027-.381.02-.366.054-.348.093-.333.133-.3" style="fill:none;stroke:#00ff4a;stroke-width:.999997;stroke-linecap:round;stroke-linejoin:round;stroke-miterlimit:4;stroke-dasharray:none;stroke-opacity:1;visibility:visible"/><path d="m508.302 293.946-.287.195-.326.158-.354.12-.38.082-.4.032h-.42l-.44-.04-.446-.087-.454-.12-.453-.16-.453-.2-.454-.233-.433-.267-.427-.3-.406-.327-.387-.346-.36-.374-.333-.386-.3-.407-.267-.42-.227-.42-.193-.427-.153-.426-.107-.42" style="fill:none;stroke:#00ff4a;stroke-width:.999997;stroke-linecap:round;stroke-linejoin:round;stroke-miterlimit:4;stroke-dasharray:none;stroke-opacity:1;visibility:visible"/><path d="m502.462 289.706-.033-.28.006-.267.06-.24.1-.213.147-.179.18-.154.22-.107.253-.067.274-.026.293.021.307.059.306.106.307.142.307.178.28.208.266.239.234.26.206.28.16.288.127.285.08.288.033.28-.006.259-.06.248-.1.213-.147.179-.187.147-.22.106-.246.067-.274.027-.293-.019-.307-.061-.313-.1-.307-.146-.3-.181-.28-.205-.266-.242-.234-.26-.2-.272-.166-.288-.127-.286-.08-.287M524.715 697.926l30.587-210.14M516.649 273.68l-5.127 7.033M518.809 705.113l7.08-75.586 6.807-72.647 6.446-68.793.4-4.313.1-1.175.087-1.159.073-1.153.06-1.147.047-1.133.027-1.12.013-1.113.007-1.1-.014-1.094-.033-1.08-.04-1.06-.053-1.053-.074-1.041-.086-1.02-.1-1.007-.114-.992-.126-.981-.074-.48-.033-.232-.033-.22-.26-1.762-1.074-7.093-4.36-28.979-9.92-65.893-12.04-79.972M511.521 280.713l-.007-.013v-.034l-.006-.006-.007-.02v-.014" style="fill:none;stroke:#00ff4a;stroke-width:.999997;stroke-linecap:round;stroke-linejoin:round;stroke-miterlimit:4;stroke-dasharray:none;stroke-opacity:1;visibility:visible"/><path d="m511.502 280.626-.553.275-.574.245-.58.227-.593.206-.613.187-.62.161-.62.134-.62.112-.627.088-.62.058-.627.034-.613.006-.6-.02-.587-.046-.573-.067-.56-.1-.54-.119-.513-.146-.494-.175-.466-.193-.44-.214-.414-.24-.373-.258-.347-.28-.313-.294-.273-.314-.247-.334-.2-.338-.133-.288-.114-.294-.086-.3-.06-.305M516.649 273.68l.053-.3.02-.3-.013-.293-.033-.274M508.295 281.847h0" style="fill:none;stroke:#00ff4a;stroke-width:.999997;stroke-linecap:round;stroke-linejoin:round;stroke-miterlimit:4;stroke-dasharray:none;stroke-opacity:1;visibility:visible"/><path d="M741.922 612.639v.347l-.033.34-.08.34-.114.326-.146.32-.187.314-.227.3-.253.293-.293.273-.32.26-.354.24-.386.227-.407.207-.433.186-.46.167-.48.14-.494.127-.513.1M728.088 414.22l.42.26.38.267.347.286.306.294.267.306.22.32.18.32.133.327.087.333.047.334M736.741 617.145l-9.853-2.073M700.288 410.393l27.8 3.827M726.055 614.44l.04.113.067.114.1.106.126.1.147.08.173.067.18.053" style="fill:none;stroke:#00ff4a;stroke-width:1.99999;stroke-linecap:round;stroke-linejoin:round;stroke-miterlimit:4;stroke-dasharray:none;stroke-opacity:1;visibility:visible"/><path d="m696.768 445.5-.02-.133-.02-.16-.013-.202-.02-.232-.014-.26-.013-.288-.013-.318-.007-.348-.013-.366-.007-.386-.007-.414-.006-.426v-1.822" style="fill:none;stroke:#00ff4a;stroke-width:.999997;stroke-linecap:round;stroke-linejoin:round;stroke-miterlimit:4;stroke-dasharray:none;stroke-opacity:1;visibility:visible"/><path d="m741.922 612.639-11.447-195.373M696.768 445.5l29.287 168.94" style="fill:none;stroke:#00ff4a;stroke-width:1.99999;stroke-linecap:round;stroke-linejoin:round;stroke-miterlimit:4;stroke-dasharray:none;stroke-opacity:1;visibility:visible"/><path d="m582.513 380.8.04.113.04.087.047.053.046.02M582.9 377.433l-.053.013-.06.06-.06.1-.054.14-.053.174-.047.206-.046.227-.034.253-.033.267-.02.28-.02.273v.54l.013.247.02.227.027.193.033.167M582.5 381.133v.007h-.007M582.72 377.34v.005M582.433 376.713l-.06-.093-.06-.067-.06-.02M581.94 381.893l.067-.02.066-.053.067-.087M581.427 381.466l.04.147.047.106.053.087.053.047.06.02M581.993 376.52l-.073.013-.067.06-.067.094-.066.133-.067.173-.067.207-.06.233-.053.267-.047.28-.046.307-.034.32-.033.326-.02.327-.013.333v.634l.013.3.02.273.033.253.034.227.046.187M582.687 381.073l-.08.007-.06.02-.033.026-.014.007M582.72 377.346l.007.007.02.02.046.033.054.015.053.012M582.9 377.433l2.893.168M582.687 381.073l2.041.12M582.5 381.133l-.36.6M582.72 377.346l-.287-.633M581.993 376.52l.26.013M581.68 381.873l.26.02M578.592 391.6l.04.113.04.087.047.053.046.02M578.978 388.233l-.053.013-.06.06-.06.1-.054.14-.053.174-.047.206-.046.227-.034.253-.033.267-.02.28-.02.273v.54l.013.247.02.227.027.193.033.167M578.578 391.932v.007h-.007M578.798 388.14v.005M578.511 387.513l-.06-.093-.06-.067-.06-.02M578.018 392.692l.067-.02.066-.053.067-.087M577.505 392.266l.04.147.047.106.053.087.053.047.06.02M578.071 387.32l-.073.013-.067.06-.067.094-.066.133-.067.173-.067.207-.06.233-.053.267-.047.28-.046.307-.034.32-.033.326-.02.327-.013.333v.634l.013.3.02.273.033.253.034.227.046.187M578.765 391.873l-.08.007-.06.02-.033.026-.014.007M578.798 388.145l.007.007.02.02.046.033.054.015.053.012M578.978 388.233l2.893.168M578.765 391.873l2.041.12M578.578 391.932l-.36.6M578.798 388.145l-.287-.633M578.071 387.32l.26.013M577.758 392.673l.26.02" style="fill:none;stroke:#00ff4a;stroke-width:.666665;stroke-linecap:round;stroke-linejoin:round;stroke-miterlimit:4;stroke-dasharray:none;stroke-opacity:1;visibility:visible"/><path d="m700.288 410.393-104.433-14.367" style="fill:none;stroke:#00ff4a;stroke-width:1.99999;stroke-linecap:round;stroke-linejoin:round;stroke-miterlimit:4;stroke-dasharray:none;stroke-opacity:1;visibility:visible"/><path d="m479.489 417.366.647 6.913M478.842 389.993l-1.213 6.947" style="fill:none;stroke:#00ff4a;stroke-width:.999997;stroke-linecap:round;stroke-linejoin:round;stroke-miterlimit:4;stroke-dasharray:none;stroke-opacity:1;visibility:visible"/><path d="m696.582 445.713.167-.353M480.136 424.28l39.78-.8M546.249 423.886l1.52.173 1.52.187 1.5.213" style="fill:none;stroke:#00ff4a;stroke-width:1.99999;stroke-linecap:round;stroke-linejoin:round;stroke-miterlimit:4;stroke-dasharray:none;stroke-opacity:1;visibility:visible"/><path d="m593.662 409.406-.247-6.08" style="fill:none;stroke:#00ff4a;stroke-width:.999997;stroke-linecap:round;stroke-linejoin:round;stroke-miterlimit:4;stroke-dasharray:none;stroke-opacity:1;visibility:visible"/><path d="m550.789 424.46 17.893 2.607M594.175 430.78l25.977 3.788M620.152 434.568l76.43 11.144M581.961 394.12l-42.007-5.237M581.988 394.666l-.027-.547M514.495 389.226l-35.653.767M414.048 249.487l.053.227.047.218.04.215.033.2.027.187.02.18.027.333.013.28v.247l-.007.22-.006.186-.014.174-.013.126-.007.054-.006.046v.047M412.329 244.693l.047.18.06.18.06.193.066.194.14.373.154.393.146.367.16.38.154.38.153.387.16.42.08.213.073.207.074.233.073.233.067.234.053.226M405.422 214.834l.053.232.047.227.047.221.033.213.027.192.02.188.033.346.013.294v.494l-.013.2-.007.185-.013.141v.174M480.362 425.08l.133-.807M478.815 390.16l-.033-.22-.027-.193-.02-.174-.027-.146-.02-.12-.02-.094-.02-.06M480.349 425.133l.007-.027.006-.026M420.015 574.999l-.06.107-.1.106-.127.1-.146.08-.174.06-.186.047-.194.028-.2.005-10.46-.286" style="fill:none;stroke:#00ff4a;stroke-width:1.99999;stroke-linecap:round;stroke-linejoin:round;stroke-miterlimit:4;stroke-dasharray:none;stroke-opacity:1;visibility:visible"/><path d="m408.369 575.246-.273-.127-.26-.133-.247-.14-.24-.153-.207-.147-.2-.153-.186-.154-.174-.166-.146-.154-.14-.16-.127-.16-.12-.166-.1-.167-.093-.173-.08-.174-.074-.173-.06-.193-.046-.194-.034-.193-.02-.2-.006-.22.006-.22.034-.227.046-.22M402.429 204.966h0M417.136 196.573l-.007-.007" style="fill:none;stroke:#00ff4a;stroke-width:1.99999;stroke-linecap:round;stroke-linejoin:round;stroke-miterlimit:4;stroke-dasharray:none;stroke-opacity:1;visibility:visible"/><path d="m405.622 571.08.947-3.84 1.14-4.633 1.38-5.58 1.66-6.74 2.006-8.154 2.434-9.866 2.953-11.974 3.593-14.56 4.374-17.746 5.353-21.707 6.573-26.653 8.114-32.913 1.24-5.02.12-.507.126-.507.114-.473.1-.467.1-.473.086-.473.134-.794.106-.806.087-.807.067-.813.04-.814.02-.82v-.82l-.027-.913-.053-.92-.087-.913-.107-.927-.14-.92-.166-.92-.194-.927-.186-.78-.207-.833-.207-.827-.206-.826-.207-.827-.207-.833-.206-.834-.207-.833-.213-.833-.207-.834-.207-.84-.206-.833-.214-.84-.206-.833-.207-.84-3.313-13.28-4.027-16.147-4.9-19.68-6.007-24.08-7.366-29.56-4.754-19.06M412.329 244.693l-6.667-26.753M403.675 209.98l-1.247-5.007M478.649 389.153l-61.513-192.58M417.128 196.567l-9.98 2.973M402.429 204.966l-.04-.2-.02-.207v-.2l.013-.2.034-.186.066-.26.094-.24.113-.24.127-.234.186-.28.214-.273.24-.273.26-.267.286-.267.26-.226.287-.234.3-.226.313-.22.327-.227.347-.22.353-.213.313-.18.32-.18.327-.174M480.349 425.133l-60.333 149.866M604.308 331.273l.38-.193.413-.18.434-.167.453-.153.48-.134.487-.12.506-.106.52-.094.534-.066.533-.054.54-.04.54-.013h.54l.54.013.533.04.52.054.514.073.493.087.48.106.467.127.44.133.42.154.393.166.367.187.34.193.306.207.274.213.24.227M624.344 503.393l-2.96-68.224M612.202 508.366l9.78.46M611.902 508.319l-.133-.047-.114-.06-.1-.072-.066-.08-.047-.08-.027-.094M624.449 503.393l-1.387 4.945M599.988 343.533l4.32-12.26M611.902 508.319l.147.027.153.021M621.982 508.826h.187l.18-.02.173-.047.16-.06.14-.073.113-.087.08-.1.047-.1M611.415 507.886l-5.613-75.406M555.268 488.786l.093.027" style="fill:none;stroke:#00ff4a;stroke-width:1.99999;stroke-linecap:round;stroke-linejoin:round;stroke-miterlimit:4;stroke-dasharray:none;stroke-opacity:1;visibility:visible"/><path d="m612.875 344.226-1.267-.073" style="fill:none;stroke:#00ff4a;stroke-width:.999997;stroke-linecap:round;stroke-linejoin:round;stroke-miterlimit:4;stroke-dasharray:none;stroke-opacity:1;visibility:visible"/><path d="m580.749 460.74.887-1.007.846-1.013.8-1.027.76-1.026.714-1.034.673-1.04.627-1.04.586-1.046.54-1.047.494-1.053.453-1.06.407-1.054.366-1.06 5.274-16.326" style="fill:none;stroke:#00ff4a;stroke-width:1.99999;stroke-linecap:round;stroke-linejoin:round;stroke-miterlimit:4;stroke-dasharray:none;stroke-opacity:1;visibility:visible"/><path d="m593.842 422.753.333 8.153" style="fill:none;stroke:#00ff4a;stroke-width:.999997;stroke-linecap:round;stroke-linejoin:round;stroke-miterlimit:4;stroke-dasharray:none;stroke-opacity:1;visibility:visible"/><path d="m579.749 401.04-6.147 17.467" style="fill:none;stroke:#00ff4a;stroke-width:1.99999;stroke-linecap:round;stroke-linejoin:round;stroke-miterlimit:4;stroke-dasharray:none;stroke-opacity:1;visibility:visible"/><path d="m582.16 394.185-2.412 6.855" style="fill:none;stroke:#00ff4a;stroke-width:.999997;stroke-linecap:round;stroke-linejoin:round;stroke-miterlimit:4;stroke-dasharray:none;stroke-opacity:1;visibility:visible"/><path d="m599.988 343.533-17.828 50.652M573.601 418.506l-.353.933-.394.934-.44.926-.48.927-.526.927-.567.92-.607.92-.653.913-.693.901-.74.906-.78.893-.814.88-15.946 16.747M555.362 488.812l25.387-28.073M553.482 460.926l.067.353.06.36.053.372.047.382.046.393.04.393.034.4.026.4 1.447 23.807M555.302 487.786l.007.275v.265l-.02.253-.027.24M515.889 271.493l-12.26-2.38M524.875 697.579l-.027.12-.053.12-.08.107-5.907 7.186M518.809 705.113l-.347.133-.36.126-.36.121-.373.107-.373.093-.38.08-.387.073-.387.06-.366.047-.367.032-.36.021-.367.014h-.366l-.367-.008-.36-.019-.36-.035-.327-.04-.326-.045-.32-.053-.314-.067-.306-.075-.307-.078-.3-.095-.293-.092-.28-.107-.274-.113-.266-.12-.26-.133-.247-.134-.24-.14-.233-.153-.22-.153-.234-.174-.213-.18-.207-.194-.193-.192-.173-.2-.167-.2-.153-.215-.14-.212-.134-.247-.126-.254-.1-.254-.087-.253-.067-.259-.053-.266-.027-.267-.013-.267M506.328 700.726l9.687-106.92 5.073-55.986 2.587-28.54 1.306-14.407.66-7.24.327-3.626.287-3.18.04-.455.06-.645.053-.647.087-1.28.073-1.273.06-1.262.033-1.253.02-1.232.007-1.227-.02-1.214-.02-.967-.04-.959-.053-.946-.06-.935M503.628 269.113l-.18-.013-.187.033-.186.073-.18.12-.18.16-.16.2M497.002 277.173l-.053.08-.034.073-.026.08-.02.074-.007.086v.094M516.675 272.513l-.073-.26-.094-.233-.126-.2-.147-.154-.167-.106-.18-.067M526.495 466.532l-.08-1-.093-.98-.107-.96-.12-.94-.133-.92-.147-.952-.16-.975-.153-.972-.154-.973-.153-.975-.153-.98-.154-.973-2.34-14.787-2.86-18.085-3.513-22.221-4.34-27.427-5.393-34.08-3.334-21.086-3.413-21.58-2.787-17.634M502.555 269.686l-5.553 7.487M496.908 278.033l-.013-.075-.007-.072-.013-.074-.007-.08-.007-.072M516.675 272.513l36.807 188.413M555.262 488.82l-30.387 208.76" style="fill:none;stroke:#00ff4a;stroke-width:1.99999;stroke-linecap:round;stroke-linejoin:round;stroke-miterlimit:4;stroke-dasharray:none;stroke-opacity:1;visibility:visible"/><path d="m634.533 416.282.333-.02.34.013.347.047.347.093.34.12.326.16.307.187.287.22.26.24.233.26.193.28.16.293M632.906 417.315l.147-.227.18-.2.213-.18.24-.153.26-.12.287-.093.3-.06M638.006 418.176l.12.285.08.288.04.294v.28l-.033.272-.074.268-.113.246M637.94 420.262l-.153.248-.2.212-.227.193-.267.154-.286.12-.314.086-.326.047-.34.007-.354-.034-.346-.065-.347-.107-.34-.141-.32-.18-.3-.207-.28-.233-.247-.253-.213-.274-.18-.293-.14-.3-.1-.313-.053-.307-.014-.307.034-.294.073-.279.12-.267M634.533 416.282l.836-1.528M638.006 418.176l1.043-1.919M632.819 417.475l.087-.16M637.94 420.262l.087-.153" style="fill:none;stroke:#00ff4a;stroke-width:.666665;stroke-linecap:round;stroke-linejoin:round;stroke-miterlimit:4;stroke-dasharray:none;stroke-opacity:1;visibility:visible"/><path d="m635.483 417.823 1.021.896-.105 1.063-1.104.145-1.061-.875.166-1.062 1.083-.167" style="fill:none;stroke:#00ff4a;stroke-width:.666665;stroke-linecap:round;stroke-linejoin:round;stroke-miterlimit:4;stroke-dasharray:none;stroke-opacity:1;visibility:visible"/><path d="m589.41 399.467-.153.133-.187.114-.213.106-.24.094-.26.073-.28.053-.287.034-.293.02-.294-.007-.286-.02-.28-.047-.26-.06-.234-.08-.213-.093-.173-.107-.147-.126-.107-.127-.066-.14-.027-.14.013-.147.054-.14.093-.14.133-.133.167-.12.2-.113.227-.1.253-.08.267-.067.286-.047.294-.026.293-.007.287.013.286.034.267.053.247.073.22.087.2.1.16.113.126.127.087.14.047.14.013.14-.033.147-.08.14-.107.133M613.595 365.26l.483 7.24M613.595 365.26l-.66-21.033" style="fill:none;stroke:#00ff4a;stroke-width:.999997;stroke-linecap:round;stroke-linejoin:round;stroke-miterlimit:4;stroke-dasharray:none;stroke-opacity:1;visibility:visible"/><path d="m618.98 376.166-1.925-44.233" style="fill:none;stroke:#00ff4a;stroke-width:1.99999;stroke-linecap:round;stroke-linejoin:round;stroke-miterlimit:4;stroke-dasharray:none;stroke-opacity:1;visibility:visible"/><path d="m613.258 372.042.497-1.541M639.317 429.344l-.007-.127-.013-.126" style="fill:none;stroke:#00ff4a;stroke-width:.999997;stroke-linecap:round;stroke-linejoin:round;stroke-miterlimit:4;stroke-dasharray:none;stroke-opacity:1;visibility:visible"/><path d="m633.962 429.222.02-.15.074-.286.12-.274.166-.252.194-.229.233-.191.261-.169.292-.125.314-.094.326-.06.34-.021.354.021.353.059.347.101.34.134.326.166.314.194.28.233.26.247.226.273.188.293.152.308.114.306.073.313.027.313s.122 1.12-.466 1.604" style="fill:none;stroke:#00ff4a;stroke-width:.999997;stroke-linecap:round;stroke-linejoin:round;stroke-miterlimit:4;stroke-dasharray:none;stroke-opacity:1;visibility:visible"/><path d="m634.782 429.66.333-.02.34.013.347.047.347.093.34.12.326.16.307.187.287.22.26.24.233.26.193.28.16.293M633.155 430.693l.147-.227.18-.2.213-.18.24-.153.26-.12.287-.093.3-.06M638.255 431.554l.12.285.08.288.04.294v.28l-.033.272-.074.268-.113.246M638.188 433.64l-.153.248-.2.212-.227.193-.267.154-.286.12-.314.086-.326.047-.34.007-.354-.034-.346-.065-.347-.107-.34-.141-.32-.18-.3-.207-.28-.233-.247-.253-.213-.274-.18-.293-.14-.3-.1-.313-.053-.307-.014-.307.034-.294.073-.279.12-.267M634.782 429.66l.836-1.528M638.255 431.554l1.043-1.919M633.068 430.853l.087-.16M638.188 433.64l.087-.153" style="fill:none;stroke:#00ff4a;stroke-width:.666665;stroke-linecap:round;stroke-linejoin:round;stroke-miterlimit:4;stroke-dasharray:none;stroke-opacity:1;visibility:visible"/><path d="m635.732 431.201 1.021.896-.105 1.063-1.104.145-1.061-.875.166-1.062 1.083-.167" style="fill:none;stroke:#00ff4a;stroke-width:.666665;stroke-linecap:round;stroke-linejoin:round;stroke-miterlimit:4;stroke-dasharray:none;stroke-opacity:1;visibility:visible"/><path d="m514.495 389.226-11.92 2.654M502.575 391.88l13.04 4.42" style="fill:none;stroke:#00ff4a;stroke-width:.999997;stroke-linecap:round;stroke-linejoin:round;stroke-miterlimit:4;stroke-dasharray:none;stroke-opacity:1;visibility:visible"/><path d="m412.329 244.693 18.633-1.44M414.049 249.486l16.913-6.233M417.136 196.573l2.912 12.567M405.416 206.2l14.632 2.94" style="fill:none;stroke:#00ff4a;stroke-width:.666665;stroke-linecap:round;stroke-linejoin:round;stroke-miterlimit:4;stroke-dasharray:none;stroke-opacity:1;visibility:visible"/><path d="m478.648 389.153-.719 11.493M550.608 446.233l10.981-.367M508.029 325.406l6.26 1.834M505.455 324.86l8.834 2.38M514.289 327.24l-6.26-1.834M502.462 289.706l6.36 1.774M502.462 289.706l6.36 1.774M508.822 291.48l-6.36-1.774M508.822 291.48l-6.36-1.774M696.582 445.712l.033-5.567" style="fill:none;stroke:#00ff4a;stroke-width:.999997;stroke-linecap:round;stroke-linejoin:round;stroke-miterlimit:4;stroke-dasharray:none;stroke-opacity:1;visibility:visible"/><path d="m581.993 376.52 3.8 1.081M582.493 381.14l2.235.053M578.071 387.32l3.8 1.081M578.571 391.939l2.235.054" style="fill:none;stroke:#00ff4a;stroke-width:.666665;stroke-linecap:round;stroke-linejoin:round;stroke-miterlimit:4;stroke-dasharray:none;stroke-opacity:1;visibility:visible"/><path d="m581.961 394.12 13.894 1.906M549.128 397.153l-9.174-8.27M502.575 391.88l11.92-2.654M639.317 429.344l-17.933 5.825M594.175 430.906l11.627 1.574" style="fill:none;stroke:#00ff4a;stroke-width:1.99999;stroke-linecap:round;stroke-linejoin:round;stroke-miterlimit:4;stroke-dasharray:none;stroke-opacity:1;visibility:visible"/><path d="m612.875 344.226-1.267-.073" style="fill:none;stroke:#00ff4a;stroke-width:.999997;stroke-linecap:round;stroke-linejoin:round;stroke-miterlimit:4;stroke-dasharray:none;stroke-opacity:1;visibility:visible"/><path d="m561.589 445.866-10.981.367" style="fill:none;stroke:#00ff4a;stroke-width:1.99999;stroke-linecap:round;stroke-linejoin:round;stroke-miterlimit:4;stroke-dasharray:none;stroke-opacity:1;visibility:visible"/><path d="m632.906 417.315 2.463-2.561" style="fill:none;stroke:#00ff4a;stroke-width:.666665;stroke-linecap:round;stroke-linejoin:round;stroke-miterlimit:4;stroke-dasharray:none;stroke-opacity:1;visibility:visible"/><path d="m578.218 392.532 11.192 6.935" style="fill:none;stroke:#00ff4a;stroke-width:.999997;stroke-linecap:round;stroke-linejoin:round;stroke-miterlimit:4;stroke-dasharray:none;stroke-opacity:1;visibility:visible"/><path d="m613.595 365.26 5.385 10.906" style="fill:none;stroke:#00ff4a;stroke-width:1.99999;stroke-linecap:round;stroke-linejoin:round;stroke-miterlimit:4;stroke-dasharray:none;stroke-opacity:1;visibility:visible"/><path d="m633.155 430.693 2.463-2.561" style="fill:none;stroke:#00ff4a;stroke-width:.666665;stroke-linecap:round;stroke-linejoin:round;stroke-miterlimit:4;stroke-dasharray:none;stroke-opacity:1;visibility:visible"/><path d="m635.483 417.823.113-16.472M593.415 403.326l10.42-6.233" style="fill:none;stroke:red;stroke-width:.999997;stroke-linecap:round;stroke-linejoin:round;stroke-miterlimit:4;stroke-dasharray:none;stroke-opacity:1;visibility:visible" visibility="hidden"/><path d="m635.596 401.351-.113 16.472" style="fill:none;stroke:#00ff4a;stroke-width:.666665;stroke-linecap:round;stroke-linejoin:round;stroke-miterlimit:4;stroke-dasharray:none;stroke-opacity:1;visibility:visible"/></svg>