<svg xmlns="http://www.w3.org/2000/svg" baseProfile="full" height="1122.52" preserveAspectRatio="xMinYMin meet" style="width:765px;height:943px" width="793.701" xml:space="preserve"><path d="m489.971 686.324-.344.081-3.907.599-4.289.25-4.327-.178-3.765-.559-2.905-.848-1.276-.872M494.982 686.682l.055 2.701" style="fill:none;stroke:red;stroke-width:.999997;stroke-linecap:round;stroke-linejoin:round;stroke-miterlimit:11.339;stroke-dasharray:none;stroke-opacity:1;visibility:visible"/><path d="m208.913 814.057.048.359.036.353.015.347.001.34-.015.293-.033.287-.04.261-.063.248-.069.203-.067.188-.085.161-.081.15-.086.12-.09.103-.086.082-.085.062-.079.048-.08.022-.073-.006-.053-.025-.056-.059-.034-.085-.024-.12.004-.147M207.215 843.21l.048.359.041.36.022.345.008.34-.014.301-.026.28-.042.268-.054.248-.06.202-.078.188-.076.168-.084.142-.09.122-.084.102-.086.082-.085.056-.085.041-.08.016-.066-.005-.061-.032-.056-.066-.035-.093-.017-.125-.003-.154M144.315 453.493l-1.352 2.99M243.966 669.965l-1.664-24.75M244.244 673.76l.019.247.025.218.017.187.011.153.016.127.015.092.008.053.008.027.005-.013M242.675 637.846l-.013-.007-.007.034M207.63 852.976h0M141.583 456.883l.221-.025.218-.031.206-.039.194-.044.165-.05.144-.05.112-.056.08-.056.04-.046M141.583 456.883l-12.112 1.107M144.315 453.493l.007-.027-.008-.026M126.129 456.99l.035.072.049.067.055.065.074.064.162.11.204.102.214.096.255.08.276.075.301.066.363.059.388.057.227.022.24.028.5.036M242.302 645.217 141.584 456.883" style="fill:none;stroke:red;stroke-width:.999997;stroke-linecap:round;stroke-linejoin:round;stroke-miterlimit:4;stroke-dasharray:none;stroke-opacity:1;visibility:visible"/><path d="m129.472 457.989 44.415 107.388 21.318 51.533 10.403 25.145 5.133 12.427 2.553 6.172 1.276 3.078 1.115 2.688.155.384.228.548.21.55.406 1.104.372 1.118.345 1.12.305 1.126.28 1.134.246 1.142.212 1.141.178 1.144.146 1.15.113 1.151.085 1.146.047 1.152.019 1.146-.022 1.147-.02.575-.025.573-.047.701-.036.708-.082 1.41-.17 2.817-.328 5.616-.648 11.177-1.289 22.115-2.519 43.301-4.724 81.04M218.276 856.144l-.087-.025-.094-.051-.11-.077-.121-.104-.125-.124-.128-.138M209.12 854.376l-.03-.033-.011-.046-.002-.06.004-.08.012-.101M325.26 687.52l-.099-.01M326.575 719.238l-1.315-31.719M359.662 659.639l-.33 1.061M372.342 603.213l-17.135 54.027M359.332 660.7l.279 9.036M355.208 657.238l-.263.753-.304.754-.35.748-.395.756-.444.749-.49.759-.531.745-.575.753-.625.74-.662.75-.71.736-.756.744-.799.73M348.304 666.956l-23.043 20.564M369.893 403.764l-11.21.532M371.142 403.316l-.884.42M371.142 403.316l-.057.141M370.258 403.736l.18-.024.165-.03.147-.037.125-.042.099-.05.072-.048.039-.048M372.19 400.978l-1.048 2.337M371.085 403.457l1.404 205.433.33 12.85M370.258 403.736l-.18.017-.185.011M358.682 404.296l-.195.004-.178-.003-.16-.016-.142-.024-.114-.024-.087-.037-.055-.039-.013-.046M301.046 891.783l.007-.3.026-.288.04-.28.055-.255.068-.242.081-.228.096-.21.114-.196.124-.176.142-.156.151-.144.17-.124.185-.11.198-.091.212-.079.232-.058.226-.038.233-.018.247-.007.26.008.266.028.274.04.282.06.29.073.281.088.29.1.295.12.283.127.284.14.276.155.27.166.258.175.23.168.223.175.219.189.204.188.192.203.176.209.167.21.158.223.139.23.117.23.112.238.087.252.072.252.053.252.032.26.011.265-.005.261-.035.26-.048.255-.067.255-.094.249-.11.25-.12.235-.142.23-.154.224-.17.21-.18.198-.196.19-.21.179-.217.159-.223.15-.237.139-.257.127-.271.112-.27.093-.28.067-.286.052-.279.026-.288.007-.278-.013-.282-.042-.276-.06-.268-.08-.261-.101-.256-.121-.25-.14-.231-.17-.224-.174-.239-.222-.225-.241-.206-.256-.193-.27-.18-.289-.16-.296-.141-.31-.132-.323-.115-.324-.093-.332-.083-.339-.067-.338-.054-.332-.034-.332-.021-.327v-.32M300.71 934.288h0M272.93 507.892l.085-.068.059-.075.025-.068-.001-.066M272.93 507.892l-6.46 4.533M251.255 510.981l.043.145.064.146.082.138.111.144.123.131.149.137.164.13.183.122.189.11.208.108.223.108.236.094.256.095.268.095.282.086.295.08.281.067.295.067.31.06.314.053.32.052.335.047.342.038.347.039.353.025.363.026.359.018.366.019.375.01.38.006.38-.001.387-.01.413-.009.42-.016.42-.03.419-.022.425-.036.413-.043.419-.05.412-.048.465-.064.452-.071.452-.077.439-.083.437-.09.427-.097.41-.096.41-.109" style="fill:none;stroke:red;stroke-width:.999997;stroke-linecap:round;stroke-linejoin:round;stroke-miterlimit:4;stroke-dasharray:none;stroke-opacity:1;visibility:visible"/><path d="m299.856 722.24.213 1.13.194 1.149.177 1.169.167 1.19.141 1.21.13 1.23.113 1.245.094 1.265.076 1.279.063 1.292.043 1.306.022 1.32.011 1.334-.005.673v.333l-.006.314-.017 2.474-.19 19.71-.34 36.129-.307 32.616-.299 31.674-.312 33.576-.35 36.93" style="fill:none;stroke:red;stroke-width:1.99999;stroke-linecap:round;stroke-linejoin:round;stroke-miterlimit:4;stroke-dasharray:none;stroke-opacity:1;visibility:visible"/><path d="m266.471 512.426 24.667 111.086 11.34 51.058 5.416 24.41 2.656 11.944 1.306 5.905.655 2.932.57 2.562.082.365.11.524.113.53.204 1.07.198 1.096.179 1.116.16 1.137.152 1.15.127 1.17.118 1.184.102 1.206.088 1.225.068 1.232.053 1.245.035 1.267.029 1.273.004 1.287v.647l-.007.646-.014.807-.007.801-.019 1.607-.04 3.21-.082 6.402-.16 12.747-.318 25.274-.624 49.674-1.165 93.634M312.455 935.93l.008-.013v-.014l-.001-.013v-.027l.006-.013M316.587 933.41l-.008-.087M312.11 936.552l.092-.076.077-.088.059-.088.05-.101.038-.12.03-.148M463.77 653.194l-104.53-7.596M463.89 652.945l-.121.25M463.683 683.684l.087-30.49M359.691 660.638l-.164-5.517M359.364 660.612l.327.027M345.038 645.151l-.013-.42-10.716-.779M334.309 643.952l-20.075-1.623M314.234 642.33l-1.087-.076-1.09-.068M281.538 642.526l-39.307 1.599M399.3 643.082l-33.641-16.873M513.003 443.22l-21.37 242.662M513.003 443.22l.585-.08.559-.079.53-.092.513-.092.477-.097.444-.11.41-.11.373-.115.337-.114.297-.12.251-.126.217-.125.164-.123.124-.122.083-.13.03-.12M502.027 443.246l-1.664-.156M502.027 443.246l-.613.013M500.363 443.09l.063.045.092.038.136.037.152.024.189.015.199.009.22.001M513.003 443.22l-10.976.027M500.363 443.09l-.013-.027-.008-.02M207.861 814.1l.028-.193.03-.215.026-.221.036-.227.03-.221.026-.2.024-.188.023-.16.016-.134.013-.094.01-.06v-.014M207.78 814.67l.007-.013.005-.054.012-.08.017-.114.016-.14.023-.167M224.1 816.796v-.027l-.001-.04-.002-.06-.001-.066.004-.094.004-.113M224.223 816.706l.016-.16.016-.181.01-.134.011-.14.01-.146.017-.155.01-.153.009-.16.016-.154.01-.146.011-.128.01-.12.011-.12.004-.114.004-.113.011-.1.005-.1.004-.088M224.106 816.803l-.007-.007M206.21 843.299l.023-.2.034-.208.028-.228.028-.227.03-.221.028-.207.029-.188.023-.16.017-.133.012-.095.005-.053-.001-.02M206.13 843.84l.007-.013.005-.047.013-.08.01-.108.025-.133.021-.16M220.053 844.708h0v.013M220.041 844.815l.005-.047.008-.04.006-.033.005-.04.005-.041.006-.047M220.013 844.982l.007-.027.005-.033.007-.02-.002-.027.007-.033.004-.028M236.138 780.516l-.107.576-.088.575M321.157 854.632l-.97-.336M332.159 858.275l-2.432-.772-2.41-.787-2.4-.798-2.377-.807-1.384-.479M300.284 846.656l-2.343-1.001-2.318-1.002-2.282-1.014-2.25-1.031-2.219-1.03-2.184-1.038-2.15-1.045-2.11-1.052-2.079-1.06-2.038-1.068-2.003-1.068-1.965-1.083-1.932-1.077-1.89-1.091-1.853-1.092-1.812-1.093-1.78-1.1-1.73-1.102-1.691-1.102-1.662-1.11-1.612-1.11-1.57-1.112-1.532-1.112-1.487-1.114-1.444-1.114-1.405-1.115-1.366-1.117-1.318-1.118-1.279-1.117-1.24-1.112-1.192-1.113-1.144-1.115-1.113-1.11-1.058-1.109-1.018-1.104-.979-1.105-.933-1.099-.89-1.1-.846-1.094-.806-1.09-.755-1.089-.72-1.079-.67-1.077-.63-1.073-.584-1.067-.546-1.061-.496-1.056-.458-1.05-.416-1.045-.37-1.039-.332-1.032-.281-1.02-.244-1.022-.203-1.01-.161-1.002-.117-.99-.076-.993-.034-.973M315.155 939.744l1.012.197 1.012.171 1.01.144 1.009.117 1.014.084 1.015.058.941.025.94.005.947-.021.939-.048.945-.075.945-.094.931-.122.932-.146.841-.16.836-.186.83-.198.828-.226.814-.245.81-.264.805-.292.795-.317.772-.332.765-.364.757-.376.739-.411.723-.423.71-.456.684-.469.676-.501.694-.563.68-.596.652-.621.626-.662.599-.68.556-.712.524-.738.25-.38.234-.386.255-.432.244-.452.222-.452.216-.465.203-.477.184-.479.17-.484.155-.483.143-.497.12-.496.11-.503.094-.509.077-.508.06-.521.042-.522.029-.526M348.27 921.675l.315-7.87.304-7.327.281-6.735.281-6.668.314-7.196.352-8.07" style="fill:none;stroke:red;stroke-width:.999997;stroke-linecap:round;stroke-linejoin:round;stroke-miterlimit:4;stroke-dasharray:none;stroke-opacity:1;visibility:visible"/><path d="m350.117 877.809.01-.42-.009-.427-.024-.433-.037-.425-.056-.426-.07-.418-.08-.426-.105-.417-.108-.419-.13-.417-.136-.416-.156-.417-.163-.41-.175-.402-.189-.403-.203-.396-.21-.395-.214-.382-.464-.763-.497-.743-.536-.728-.563-.706-.589-.682-.608-.66-.635-.632-.648-.612-.665-.592-.688-.572-.705-.55-.72-.531-.736-.51-.752-.49-.759-.463-.768-.442-.77-.416-.782-.39-.79-.369-.794-.348-.808-.316-.805-.295-.822-.276M341.564 934.475h0M234.73 898.61l-.021-.02M236.309 789.575l.07-.561.066-.528.064-.476.056-.475.06-.508.075-.568M236.7 786.458l.063-.488.049-.475.05-.454.043-.442.031-.42.037-.401.023-.388.02-.373.017-.334.007-.314.015-.3v-.28l.001-.267-.001-.253-.006-.24-.009-.22-.005-.194-.011-.18-.016-.165-.019-.16-.016-.14-.016-.133-.022-.119-.018-.107-.02-.1-.022-.078-.03-.074-.02-.065-.029-.053-.027-.047-.028-.025-.025-.027-.036-.012h-.025l-.034.015-.032.02-.032.041-.041.041-.03.06-.033.075-.038.087-.036.108-.044.121-.038.135-.037.146-.044.162-.035.181-.041.193M349.664 921.663h0M346.803 927.856l-.007.013M313.333 939.96l-.068-.039-.055-.072M353.001 875.283h0M353.03 875.402l-.012.053-.025.048M350.978 919.026l-.005.053-.024.048M236.716 786.325h0" style="fill:none;stroke:red;stroke-width:.999997;stroke-linecap:round;stroke-linejoin:round;stroke-miterlimit:4;stroke-dasharray:none;stroke-opacity:1;visibility:visible"/><path d="m236.717 786.39-.005.033-.014.034M235.944 781.667l-.09.703-.065.714-.037.715-.017.72.009.733.037.734.063.738.084.744.117.752.136.756.136.624M218.254 856.37v.027M230.989 777.15h.007" style="fill:none;stroke:red;stroke-width:.999997;stroke-linecap:round;stroke-linejoin:round;stroke-miterlimit:4;stroke-dasharray:none;stroke-opacity:1;visibility:visible"/><path d="m208.233 809.891-.004.127.003.133.01.147.01.153.017.147.017.152.047.326.06.319.068.332.068.337.073.352.076.379.083.392.037.212.046.219.038.22.03.218M207.817 817.243l.017-.153.023-.162.036-.16.05-.174.062-.202.083-.242M206.564 839.143l-.004.127.003.133.004.14.009.153.035.299.046.32.054.312.06.319.068.332.074.338.076.371.074.372.084.425.037.212.032.214M206.153 846.354l.016-.153.03-.168.035-.16.043-.175.063-.195.076-.242M244.37 674.85v-.007M244.477 673.749l-.11 1.096M242.802 639.037l-.019-.247-.018-.225-.016-.2-.026-.167-.017-.14-.008-.105-.016-.073-.007-.034M144.314 453.44l-.041-.039-.074-.038-.108-.024-.14-.024-.16-.01-.18-.002-.2.01-.206.012-11.992 1.096M131.213 454.422l-.43.096-.427.104-.403.108-.39.11-.353.1-.338.109-.323.106-.304.114-.26.1-.25.105-.237.105-.217.106-.199.104-.177.104-.164.104-.145.102-.138.111-.118.116-.09.101-.072.108-.056.122-.024.114.003.114.028.105M218.434 856.033l-.02.06-.03.035-.047.021-.06-.005M209.134 854.376h-.013M205.937 850.107l.217-3.752M208.233 809.891l.263-4.607.321-5.556.384-6.684.459-8.065.554-9.735.675-11.765.813-14.241.986-17.26 1.194-20.972 1.459-25.54.044-.72.037-.728.043-.721.037-.722.044-.721.034-.893.013-.908-.015-.9-.033-.906-.06-.906-.08-.904-.11-.946-.134-.944-.153-.942-.188-.936-.208-.943-.235-.935-.255-.934-.286-.927-.308-.92-.335-.92-.353-.912-.423-1.017-.424-1.024-.424-1.031-.43-1.024-.422-1.03-.43-1.031-.423-1.031-.431-1.03-.43-1.031-.425-1.038-.428-1.03-.43-1.038-6.628-15.98-8.039-19.398-9.78-23.599-11.937-28.798-14.618-35.254-17.966-43.353-12.623-30.45M206.564 839.143l1.255-21.9" style="fill:none;stroke:red;stroke-width:1.99999;stroke-linecap:round;stroke-linejoin:round;stroke-miterlimit:4;stroke-dasharray:none;stroke-opacity:1;visibility:visible"/><path d="m228.26 787.39-9.825 68.643" style="fill:none;stroke:red;stroke-width:.999997;stroke-linecap:round;stroke-linejoin:round;stroke-miterlimit:4;stroke-dasharray:none;stroke-opacity:1;visibility:visible"/><path d="m244.37 674.85-16.11 112.54M218.276 856.144l-9.143-1.768M209.12 854.376l-.337-.199-.326-.2-.312-.213-.292-.22-.277-.233-.259-.235-.238-.241-.22-.255-.206-.263-.18-.269-.154-.276-.131-.277-.1-.271-.073-.272-.054-.279-.025-.286v-.28M242.675 637.846 144.313 453.44M321.971 676.438l13.1-11.417M347.201 638.831l2.99-8.73.455-1.326 8.822-25.747" style="fill:none;stroke:red;stroke-width:1.99999;stroke-linecap:round;stroke-linejoin:round;stroke-miterlimit:4;stroke-dasharray:none;stroke-opacity:1;visibility:visible"/><path d="m345.31 644.35 1.892-5.519" style="fill:none;stroke:red;stroke-width:.999997;stroke-linecap:round;stroke-linejoin:round;stroke-miterlimit:4;stroke-dasharray:none;stroke-opacity:1;visibility:visible"/><path d="m335.07 665.02.725-.656.692-.663.646-.668.605-.668.559-.672.517-.672.472-.677.425-.676.391-.676.339-.675.297-.68.252-.678 4.319-12.61M359.789 675.6l-3.616 12.084" style="fill:none;stroke:red;stroke-width:1.99999;stroke-linecap:round;stroke-linejoin:round;stroke-miterlimit:4;stroke-dasharray:none;stroke-opacity:1;visibility:visible"/><path d="m359.61 669.736.179 5.864" style="fill:none;stroke:red;stroke-width:.999997;stroke-linecap:round;stroke-linejoin:round;stroke-miterlimit:4;stroke-dasharray:none;stroke-opacity:1;visibility:visible"/><path d="m356.173 687.685-.263.787-.302.786-.343.782-.395.789-.436.783-.476.784-.529.785-.57.78-.61.775-.661.781-.703.77-.744.77-.788.764-22.779 21.419M372.19 400.978l3.61 221.114M372.19 400.978l-.276-.093-.308-.094-.341-.078-.376-.072-.395-.071-.428-.05-.455-.051-.474-.036-.487-.028-.515-.016-.526-.008-.54-.002-.547.014-.553.018-.559.032-.567.04-.558.052-.552.06-.552.066-.546.078-.525.086-.517.092-.499.097-.477.104-.458.11-.43.117-.411.122-.377.13M358.94 401.596l-1.196 2.481M375.51 623.073l.29-.98M357.737 404.111v-.02l.005-.013M360.156 599.485l-2.5-195.372M259.675 506.077l12.704 1.235M325.058 687.085l.073.299.067.312.055.325.033.332.021.34M273.1 507.616l-.041-.072-.075-.065-.108-.058-.143-.044-.168-.042-.185-.023M259.675 506.077l-.213-.015-.234.006-.241.012-.239.032-.232.038-.218.058-.194.065-.165.07-.137.077-6.56 4.494M251.24 510.915v.013l.007.014.001.006v.02l.007.014M299.475 932.789v.027l.001.013v.04M316.484 933.593l.052-.048.03-.06.02-.075M311.851 936.651l.047-.008.046-.015.042-.006.037-.022.04-.021.045-.027M299.517 933.148l-.016-.047-.008-.046-.007-.046-.006-.04-.002-.046-.001-.054M270.068 592.72l-4.724-20.513-6.925-30.092-7.164-31.133M299.856 722.24l-.283-1.353-.317-1.38-.327-1.414-.325-1.413-.324-1.413-.327-1.419-.332-1.42-.324-1.427-5.566-24.18-6.904-29.986-8.619-37.441-5.359-23.279-.78-3.396" style="fill:none;stroke:red;stroke-width:1.99999;stroke-linecap:round;stroke-linejoin:round;stroke-miterlimit:4;stroke-dasharray:none;stroke-opacity:1;visibility:visible"/><path d="m320.139 855.367-3.55 78.044" style="fill:none;stroke:red;stroke-width:.999997;stroke-linecap:round;stroke-linejoin:round;stroke-miterlimit:4;stroke-dasharray:none;stroke-opacity:1;visibility:visible"/><path d="m326.41 717.515-6.27 137.852M316.484 933.593l-4.375 2.959M311.851 936.651l-.412.056-.419.05-.433.035-.439.024-.453.016-.453.011-.447-.003-.448-.017-.453-.023-.455-.029-.453-.044-.448-.05-.436-.057-.428-.07-.422-.071-.409-.084-.408-.09-.39-.098-.389-.105-.376-.111-.362-.125-.342-.127-.336-.132-.318-.147-.318-.152-.296-.166-.277-.168-.263-.18-.246-.188-.224-.202-.204-.222-.187-.23-.164-.249-.135-.27-.09-.285M273.1 507.616l51.959 179.469M360.908 640.332l103.833 7.439" style="fill:none;stroke:red;stroke-width:1.99999;stroke-linecap:round;stroke-linejoin:round;stroke-miterlimit:4;stroke-dasharray:none;stroke-opacity:1;visibility:visible"/><path d="m242.23 644.125.579-5.121M244.218 673.76l-.435-6.499M242.32 645.476l-.09-1.352" style="fill:none;stroke:red;stroke-width:.999997;stroke-linecap:round;stroke-linejoin:round;stroke-miterlimit:4;stroke-dasharray:none;stroke-opacity:1;visibility:visible"/><path d="m310.518 636.872 1.032.04 1.03.043 1.029.053 1.02.063 1.017.07 19.484 1.399M333.537 638.373l13.279.95M346.835 639.902l-.02-.58" style="fill:none;stroke:red;stroke-width:1.99999;stroke-linecap:round;stroke-linejoin:round;stroke-miterlimit:4;stroke-dasharray:none;stroke-opacity:1;visibility:visible"/><path d="m359.527 655.12-.288-9.523" style="fill:none;stroke:red;stroke-width:.999997;stroke-linecap:round;stroke-linejoin:round;stroke-miterlimit:4;stroke-dasharray:none;stroke-opacity:1;visibility:visible"/><path d="m463.683 683.684-103.897-8.177M288.308 671.961l-44.09 1.8M242.808 639.004l37.561-1.525" style="fill:none;stroke:red;stroke-width:1.99999;stroke-linecap:round;stroke-linejoin:round;stroke-miterlimit:4;stroke-dasharray:none;stroke-opacity:1;visibility:visible"/><path d="m365.658 626.209-.004-.167.003-.173.01-.18.008-.187.016-.181.024-.173.022-.162.025-.146.03-.128.025-.107M365.658 626.209l.408 14.495" style="fill:none;stroke:red;stroke-width:.999997;stroke-linecap:round;stroke-linejoin:round;stroke-miterlimit:4;stroke-dasharray:none;stroke-opacity:1;visibility:visible"/><path d="m389.654 630.05-21.527-10.621M418.916 644.488l-25.659-12.659M518.399 441.464l-.01-.127-.063-.125-.108-.124-.15-.116-.204-.116-.241-.108-.283-.107-.329-.1-.37-.09-.407-.086-.443-.082-.475-.07M491.633 685.882l.537-.099.526-.118.497-.124.476-.144.444-.158.417-.162.388-.183.356-.188.316-.2.282-.207.241-.218.21-.219.167-.23.122-.23.081-.235.041-.234M500.36 443.01l1.999-2.519M515.316 440.213l-11.53.04M463.683 683.684l27.95 2.199M500.342 443.045l.007-.02.012-.013M463.75 659.376l.001-.52.004-.513.007-.514.001-.508.01-.5.009-.48.01-.473.007-.455.012-.426.011-.414.01-.38.02-.354.013-.327.013-.293.015-.262.013-.226.017-.187.016-.155.018-.113M502.36 440.492l.065-.041.106-.05.145-.042.18-.031.212-.032.232-.025.241-.012.246-.006M518.399 441.464l-21.664 241.469M500.342 443.045l-36.385 209.231M208.124 812.174l-.007.02-.005.053-.012.094-.016.128-.023.153-.024.175-.028.2-.029.208-.028.213-.028.221-.03.207-.029.195-.022.18-.023.154-.017.127-.011.093-.005.054-.007.02" style="fill:none;stroke:red;stroke-width:1.99999;stroke-linecap:round;stroke-linejoin:round;stroke-miterlimit:4;stroke-dasharray:none;stroke-opacity:1;visibility:visible"/><path d="m224.046 816.798.06.005" style="fill:none;stroke:red;stroke-width:.999997;stroke-linecap:round;stroke-linejoin:round;stroke-miterlimit:4;stroke-dasharray:none;stroke-opacity:1;visibility:visible"/><path d="m208.124 812.174.107-.29.12-.289.057-.114M208.616 817.151l-.013-.013-.167-.263-.145-.27-.134-.277-.113-.285-.101-.337-.08-.339-.055-.345-.028-.352" style="fill:none;stroke:red;stroke-width:1.99999;stroke-linecap:round;stroke-linejoin:round;stroke-miterlimit:4;stroke-dasharray:none;stroke-opacity:1;visibility:visible"/><path d="m224.147 816.915-.015-.04-.013-.04-.013-.032M224.443 814.041l.015.047.02.052" style="fill:none;stroke:red;stroke-width:.999997;stroke-linecap:round;stroke-linejoin:round;stroke-miterlimit:4;stroke-dasharray:none;stroke-opacity:1;visibility:visible"/><path d="m206.467 841.359.107-.29.121-.282.03-.067M206.467 841.359v.027l-.012.06-.016.108-.017.14-.024.166-.028.195-.028.207-.03.221-.028.227-.033.228-.03.208-.022.193-.024.167-.016.141-.019.1-.005.067-.005.026M206.958 846.31l-.013-.027-.167-.256-.144-.264-.128-.277-.112-.284-.101-.33-.08-.34-.055-.345-.03-.345M218.255 856.398l-.019.087-.004.073-.01.075-.014.066-.005.08-.01.08M347.338 929.424h0M348.544 927.343h0M235.833 777.942h0M218.186 856.866h0l.007-.007M236.317 789.601l.03.14.189.761.218.776.238.768.264.775.297.787.317.786.346.786.372.798.398.798.43.804.453.81.477.816.507.815.53.816.56.82.578.815.605.82.631.818.659.826.685.825.712.824.741.83.759.837.792.829.817.841.842.835.864.841.9.834.912.838.94.84.972.83.992.846 1.018.838 1.04.836 1.074.842 1.092.843 1.125.835 1.139.84 1.173.836 1.193.84 1.219.832 1.245.832 1.266.838 1.293.83 1.31.832 1.346.83 1.367.823 1.386.83 1.41.82 1.433.822 1.459.815 1.48.813 1.497.813 1.525.806 1.547.805 1.565.799 1.59.804 1.613.79 1.639.79 1.649.79 1.679.776 1.697.782 1.713.768 1.738.768.462.202M320.378 850.05l1.728.615 1.963.689 1.976.683 1.986.668 2.004.669 1.672.541 1.68.543 1.691.536M218.29 856.15l-.035.221M348.544 927.343l-.237.412-.244.419-.238.412-.244.42-.242.418M230.995 777.15l.964.159.97.157.965.159.969.158.97.158M347.338 929.424l-.373.621-.402.603-.42.59-.446.57-.46.557-.488.538-.502.525-.516.499-.536.485-.614.52-.631.501-.648.475-.664.455-.683.436-.692.409-.705.396-.717.37-.726.349-.838.372-.86.346-.866.327-.873.293-.887.274-.894.246-.903.22-.91.194-.91.168-.916.146-.959.128-.962.096-.966.075-.973.048-.965.023-.982-.006-.973-.03-.976-.059-.968-.084-.976-.105-.97-.132-.965-.158-.822-.162-.83-.175-.82-.195-.82-.214" style="fill:none;stroke:red;stroke-width:1.99999;stroke-linecap:round;stroke-linejoin:round;stroke-miterlimit:4;stroke-dasharray:none;stroke-opacity:1;visibility:visible"/><path d="m313.333 939.96-2.04-.561-2.025-.575-2.007-.588-2.003-.595-1.972-.609-1.968-.623-1.948-.629-1.928-.644-1.917-.656-1.895-.659-1.874-.677-1.856-.685-1.838-.692-1.836-.712-1.81-.72-1.79-.727-1.778-.747-1.75-.746-1.732-.762-1.709-.769-1.69-.781-1.674-.79-1.644-.802-1.625-.804-1.6-.818-1.579-.832-1.545-.832-1.532-.838-1.5-.847-1.486-.86-1.46-.868-1.434-.875-1.415-.88-1.387-.897-1.36-.896-1.34-.903-1.308-.918-1.286-.918-1.27-.925-1.227-.932-1.215-.933-1.181-.947-1.155-.948-1.135-.961-1.11-.962-1.082-.962-1.054-.978-1.03-.976-1.008-.985-.977-.99-.948-.993-.923-.993-.896-1-.87-1.008-.848-1.007-.818-1.009-.79-1.016-.763-1.016-.743-1.024-.71-1.024-.683-1.032-.656-1.032-.636-1.025-.605-1.034-.578-1.04-.548-1.034-.524-1.036-.497-1.043-.47-1.036-.443-1.044-.423-1.044-.39-1.037-.365-1.046-.338-1.046-.315-1.04-.285-1.04-.255-1.042-.239-1.034-.201-1.023-.177-1.016-.156-1.017-.13-1.017-.104-1.011-.082-1.012-.048-1.012-.03-1.007-.01-1 .018-1.001.044-1 .07-.99.093-.989.11-.99M229.6 778.016l.09-.176.206-.284.107-.103.129-.102.157-.098.1-.041.107-.036.119-.023.118-.016.127.004.13.01M335.08 854.995l.772.256.773.276.77.31.758.329.763.35.748.376.743.398.736.416.716.437.712.464.697.479.684.497.679.525.66.539.645.559.627.585.606.6.595.62.568.635.543.648.465.609.453.617.428.631.402.644.381.659.293.566.282.567.257.581.233.582.215.594.193.616.168.631.14.63.11.638.08.637.054.64.014.634-.012.633M353.03 875.402l-.43 8.785-.415 8.759-.411 8.724-.404 8.692-.392 8.664M235.833 777.942l.136.03.132.043.115.066.101.064.09.07.08.072.062.072.055.072.062.099.05.092.042.092.035.087.072.218.052.226.044.238.041.267.024.245.019.267.013.287.015.306.008.334v.353l-.005.327-.012.346-.012.36-.019.388-.023.394-.025.394-.032.4-.037.422-.044.434-.043.448-.056.462-.055.474M350.978 919.026l-.044.721-.076.722-.105.716-.13.71-.157.703-.185.699-.212.677-.238.672-.264.66-.236.525-.241.512-.27.507-.275.493M236.717 786.39l-.4 3.21" style="fill:none;stroke:red;stroke-width:1.99999;stroke-linecap:round;stroke-linejoin:round;stroke-miterlimit:4;stroke-dasharray:none;stroke-opacity:1;visibility:visible"/><path d="m220.013 844.982-.007.053-.005.054-.005.053-.012.048-.006.047-.005.06M224.223 816.706l-.012.073-.019.062-.012.033-.013.027-.005.02-.016-.007M224.478 814.14l.008.027.001.06.003.08-.007.093-.004.08-.005.093-.004.094-.01.1-.015.208-.023.213-.02.228-.03.227-.027.248-.027.24-.025.128-.016.126-.024.154-.012.08-.018.088M303.511 892.48l.924-.604 1.097.58.238 1.285-.862.604-1.222-.536-.175-1.329M300.58 925.838l.007-.3.026-.288.04-.28.055-.255.068-.242.081-.228.096-.21.114-.197.124-.175.142-.156.151-.144.17-.124.186-.11.197-.091.212-.079.232-.058.226-.038.233-.018.247-.007.26.008.266.028.274.04.282.06.29.073.281.088.29.1.295.12.283.127.284.14.276.155.27.166.258.175.23.168.223.175.219.189.204.188.192.203.176.209.167.21.158.223.139.23.117.23.112.238.087.252.072.252.053.252.032.26.011.264-.005.262-.035.26-.048.255-.067.255-.094.249-.11.25-.12.235-.142.23-.154.224-.17.21-.18.198-.196.19-.21.179-.217.159-.223.15-.237.139-.257.127-.271.112-.27.093-.28.067-.286.052-.279.025-.288.007-.278-.012-.282-.042-.276-.06-.268-.08-.261-.101-.256-.121-.25-.14-.231-.17-.224-.174-.239-.222-.225-.241-.206-.256-.193-.27-.18-.289-.16-.296-.141-.31-.132-.323-.115-.324-.093-.332-.083-.339-.067-.338-.054-.332-.034-.332-.021-.327v-.32" style="fill:none;stroke:red;stroke-width:.999997;stroke-linecap:round;stroke-linejoin:round;stroke-miterlimit:4;stroke-dasharray:none;stroke-opacity:1;visibility:visible"/><path d="m303.046 926.534.924-.604 1.097.58.238 1.285-.862.604-1.222-.536-.175-1.329M400.287 670.96l.03.34.066.332.115.324.152.316.194.303.227.274.257.255.286.22.312.193.324.152.342.12.355.079.353.039.355-.008.339-.042.337-.088.312-.12.295-.166.264-.194.233-.232.201-.25.167-.284.12-.303.087-.315.033-.334v-.334l-.05-.332-.093-.332-.134-.324-.174-.309-.205-.288-.248-.268-.272-.235-.297-.213-.324-.172-.338-.133-.341-.099-.355-.059-.353-.018-.355.021-.337.068-.325.107-.302.14-.284.186-.249.214-.221.244-.18.264-.14.297-.107.31-.059.32-.013.334" style="fill:none;stroke:red;stroke-width:.999997;stroke-linecap:round;stroke-linejoin:round;stroke-miterlimit:4;stroke-dasharray:none;stroke-opacity:1;visibility:visible"/><path d="m402.34 669.95 1.093-.504 1.1.725.086 1.083-.987.564-1.18-.579-.112-1.289M400.329 656.165l.03.34.066.332.115.324.152.316.194.303.227.274.257.255.286.22.312.193.324.152.342.12.355.079.353.039.355-.008.339-.042.337-.088.312-.12.295-.166.264-.194.233-.232.201-.25.167-.284.12-.303.087-.315.033-.334v-.334l-.05-.332-.093-.332-.134-.324-.174-.309-.205-.288-.248-.268-.272-.235-.297-.213-.324-.172-.338-.133-.341-.099-.355-.059-.353-.018-.355.021-.337.068-.325.107-.302.14-.284.185-.249.215-.221.244-.18.264-.14.296-.107.31-.059.322-.013.333" style="fill:none;stroke:red;stroke-width:.999997;stroke-linecap:round;stroke-linejoin:round;stroke-miterlimit:4;stroke-dasharray:none;stroke-opacity:1;visibility:visible"/><path d="m402.382 655.153 1.093-.504 1.1.725.086 1.083-.987.564-1.18-.579-.112-1.289" style="fill:none;stroke:red;stroke-width:.999997;stroke-linecap:round;stroke-linejoin:round;stroke-miterlimit:4;stroke-dasharray:none;stroke-opacity:1;visibility:visible"/><path d="m243.946 686.27-.168-.3-.081-.346-.55-.734M246.358 674.512l-.344.081-.303.21-.217.256-.175.341-.046.342-.38-.518-.29-.904M491.633 685.882l-1.662.442" style="fill:none;stroke:red;stroke-width:.999997;stroke-linecap:round;stroke-linejoin:round;stroke-miterlimit:11.339;stroke-dasharray:none;stroke-opacity:1;visibility:visible"/><path d="m243.783 667.261.183 2.704M365.658 626.209l7.16-4.47M393.257 631.83l6.043 11.252M332.159 858.275l-11.973-3.979M313.333 939.96l1.822-.216M347.339 929.424l-.536-1.568M347.338 929.424l-.542-1.555" style="fill:none;stroke:red;stroke-width:.999997;stroke-linecap:round;stroke-linejoin:round;stroke-miterlimit:4;stroke-dasharray:none;stroke-opacity:1;visibility:visible"/><path d="m207.78 814.669.308 1.48M206.467 841.359l-.051 3.902M365.817 624.605l9.693-1.532M325.26 687.52l.047 1.173M326.575 719.238l-.165-1.723M346.816 639.324l14.092 1.008" style="fill:none;stroke:red;stroke-width:1.99999;stroke-linecap:round;stroke-linejoin:round;stroke-miterlimit:4;stroke-dasharray:none;stroke-opacity:1;visibility:visible"/><path d="m243.966 669.965-.183-2.704" style="fill:none;stroke:red;stroke-width:.999997;stroke-linecap:round;stroke-linejoin:round;stroke-miterlimit:4;stroke-dasharray:none;stroke-opacity:1;visibility:visible"/><path d="m314.234 642.33-3.716-5.458M333.537 638.373l1.593.167M335.13 638.54l-1.593-.167" style="fill:none;stroke:red;stroke-width:1.99999;stroke-linecap:round;stroke-linejoin:round;stroke-miterlimit:4;stroke-dasharray:none;stroke-opacity:1;visibility:visible"/><path d="m375.51 623.073-9.693 1.532M359.239 645.597l6.827-4.893" style="fill:none;stroke:red;stroke-width:.999997;stroke-linecap:round;stroke-linejoin:round;stroke-miterlimit:4;stroke-dasharray:none;stroke-opacity:1;visibility:visible"/><path d="m393.257 631.83-3.603-1.78M389.654 630.05l3.603 1.78M463.77 653.195l-.02 6.181M321.157 854.632l-.779-4.582" style="fill:none;stroke:red;stroke-width:1.99999;stroke-linecap:round;stroke-linejoin:round;stroke-miterlimit:4;stroke-dasharray:none;stroke-opacity:1;visibility:visible"/><path d="m299.475 932.789 1.105-6.951M299.475 932.787l1.105-6.949M312.108 936.552l-9.062-10.018M316.587 933.41l-13.541-6.876" style="fill:none;stroke:red;stroke-width:.999997;stroke-linecap:round;stroke-linejoin:round;stroke-miterlimit:4;stroke-dasharray:none;stroke-opacity:1;visibility:visible"/><path d="M441.816 645.981c-18.886-8.197-38.24-15.884-50.636-18.91-2.689-.654-11.002-2.199-12.954-2.655M351.755 624.27c-9.667 1.734-23.968 5.278-40.25 10.452" style="fill:none;stroke:#00ff4a;stroke-width:1.99999;stroke-linecap:round;stroke-linejoin:round;stroke-miterlimit:4;stroke-dasharray:none;stroke-opacity:1;visibility:visible" visibility="hidden"/><path d="m244.602 674.32-.27 3.59 2.146 3.74 2.976 2.797 2.932 2.135 3.275 2.18 3.661 2.186 3.96 2.232 4.347 2.236 4.688 2.24 4.263 1.934 5.375 2.292 5.675 2.294 5.973 2.298 2.647.974M519.124 685.548l-.341-.176-.343-.047M503.595 697.926l2.918-.394 2.707-.484 2.45-.614 2.28-.702 1.98-.792 1.64-.882 1.468-1.01.997-.975.654-.979.356-1.11.012-1.07-.33-1.078-.759-1.079-1.06-1.041-7.61-5.446-5.57-3.62M362.403 721.326l24.892-2.798 116.3-20.602M327.166 718.09l3.074.936 2.693.716 2.907.635 3.08.507 3.595.469 3.34.296 3.385.168 3.856.044 3.387-.047 3.345-.218 2.575-.27" style="fill:none;stroke:#00ff4a;stroke-width:.999997;stroke-linecap:round;stroke-linejoin:round;stroke-miterlimit:11.339;stroke-dasharray:none;stroke-opacity:1;visibility:visible" visibility="hidden"/><path d="m505.71 676.637 6.166 4.015 7.674 5.2 1.314 1.301.759 1.08.167.301.33 1.12.083.299.113 5.017-.316 1.454-.745 1.405-.999 1.061-.26.254-1.297.97-1.596.926-1.983.876-2.452.829-2.408.659-2.707.568-3.82.513-116.085 20.604-25.064 2.84-3.304.348-3.388.175-3.816.041-3.47-.083-3.426-.21-3.725-.343-3.252-.467-3.08-.549-3.207-.724-1.88-.492-3.329-1.025M297.369 714.489l-5.335-1.99-5.888-2.298-5.588-2.291-5.245-2.291-4.223-1.933-4.687-2.284-4.303-2.236-3.96-2.232-3.575-2.226-3.232-2.18-2.847-2.134-2.76-2.346-1.779-1.778-.717-1.037-.2-1.117 1.572-9.754.048-.257M505.725 676.65l-7.073-4.326" style="fill:none;stroke:#00ff4a;stroke-width:1.99999;stroke-linecap:round;stroke-linejoin:round;stroke-miterlimit:11.339;stroke-dasharray:none;stroke-opacity:1;visibility:visible" visibility="hidden"/><path d="m365.817 624.605-14.062-.335" style="fill:none;stroke:#00ff4a;stroke-width:1.99999;stroke-linecap:round;stroke-linejoin:round;stroke-miterlimit:4;stroke-dasharray:none;stroke-opacity:1;visibility:visible" visibility="hidden"/></svg>