<svg xmlns="http://www.w3.org/2000/svg" baseProfile="full" height="1122.52" preserveAspectRatio="xMinYMin meet" style="width:602px;height:832px" width="793.701" xml:space="preserve"><path d="M410.827 416.072c.319.088.533.416.613.858M410.75 419.286c-.29.302-.623.45-.924.364" style="fill:none;stroke:red;stroke-width:.666665;stroke-linecap:round;stroke-linejoin:round;stroke-miterlimit:4;stroke-dasharray:none;stroke-opacity:1;visibility:visible" visibility="hidden"/><path d="M409.826 419.651c-.572-.16-.81-1.09-.534-2.079.276-.988.964-1.66 1.535-1.5" style="fill:none;stroke:red;stroke-width:.999997;stroke-linecap:round;stroke-linejoin:round;stroke-miterlimit:4;stroke-dasharray:none;stroke-opacity:1;visibility:visible" visibility="hidden"/><path d="M411.156 217.616c.482.094.818.614.924 1.313M411.423 221.594c-.341.439-.764.676-1.17.596" style="fill:none;stroke:red;stroke-width:.666665;stroke-linecap:round;stroke-linejoin:round;stroke-miterlimit:4;stroke-dasharray:none;stroke-opacity:1;visibility:visible" visibility="hidden"/><path d="M410.254 222.277c-.739-.144-1.138-1.288-.887-2.55.248-1.261 1.05-2.169 1.79-2.024" style="fill:none;stroke:red;stroke-width:.999997;stroke-linecap:round;stroke-linejoin:round;stroke-miterlimit:4;stroke-dasharray:none;stroke-opacity:1;visibility:visible" visibility="hidden"/><path d="m416.392 218.392.091-9.564-2.9-.696s-18.152 3.374-32.91 4.717c-14.756 1.341-49.065 1.724-68.807 2.108-19.741.383-49.067 1.725-70.917 3.45-29.847 2.354-62.675 6.514-87.4 10.733-18.235 3.11-40.93 7.457-40.93 7.457l3.364 25.37 6.325.905s13.416-2.874 25.874-5.558c12.459-2.683 42.168-9.006 62.484-11.5 20.316-2.492 61.334-6.132 76.667-6.516 15.333-.382 51.377-1.653 75.9-2.49 22.422-.768 44.739-4.906 44.739-4.906l.291-20.096-2.268-.618" style="fill:none;stroke:red;stroke-width:1.33333;stroke-linecap:round;stroke-linejoin:round;stroke-miterlimit:4;stroke-dasharray:none;stroke-opacity:1;visibility:visible" visibility="hidden"/><path d="m408.166 230.685 8.124-1.548.05-5.295" style="fill:none;stroke:red;stroke-width:1.33333;stroke-linecap:round;stroke-linejoin:round;stroke-miterlimit:4;stroke-dasharray:none;stroke-opacity:1;visibility:visible" visibility="hidden"/><path d="m112.62 236.598 6.238 1.55 3.45 24.727M308.063 215.846c.017.318-1.385.642-3.13.724-1.746.083-3.173-.105-3.186-.422" style="fill:none;stroke:red;stroke-width:.666665;stroke-linecap:round;stroke-linejoin:round;stroke-miterlimit:4;stroke-dasharray:none;stroke-opacity:1;visibility:visible" visibility="hidden"/><path d="M118.858 238.149c12.075-1.916 49.642-9.009 68.616-11.5 18.976-2.492 52.708-5.941 64.208-6.517 11.5-.574 46.576-2.683 60.184-2.875 13.608-.192 59.033-1.15 69.19-2.108 6.526-.616 17.251-1.55 27.207-3.343" style="fill:none;stroke:red;stroke-width:.666665;stroke-linecap:round;stroke-linejoin:round;stroke-miterlimit:4;stroke-dasharray:none;stroke-opacity:1;visibility:visible" visibility="hidden"/><path d="m152.04 476.916-7.066 3.486 2.639 19.408 5.95 2.348s11.854-6.4 22.217-11.958 16.298-9.42 35.517-17.806c19.218-8.384 52.842-18.62 83.893-22.838 31.05-4.216 55.912-6.341 72.642-8.433 16.866-2.108 31.718-6.957 40.25-11.901l.156-16.278-3.09-1.284" style="fill:none;stroke:red;stroke-width:1.33333;stroke-linecap:round;stroke-linejoin:round;stroke-miterlimit:4;stroke-dasharray:none;stroke-opacity:1;visibility:visible" visibility="hidden"/><path d="m405.148 411.658 10.492-4.764" style="fill:none;stroke:red;stroke-width:.666665;stroke-linecap:round;stroke-linejoin:round;stroke-miterlimit:4;stroke-dasharray:none;stroke-opacity:1;visibility:visible" visibility="hidden"/><path d="m408.239 427.234 7.208-3.606.02-1.616M415.523 417.122l.117-10.227-2.312-.897-12.813 5.918" style="fill:none;stroke:red;stroke-width:1.33333;stroke-linecap:round;stroke-linejoin:round;stroke-miterlimit:4;stroke-dasharray:none;stroke-opacity:1;visibility:visible" visibility="hidden"/><path d="M151.01 482.687c15.972-8.177 42.726-22.525 63.808-30.703 19.777-7.67 53.157-16.44 76.284-19.38 23.128-2.941 52.87-6.07 64.656-7.199 21.338-2.042 35.905-5.109 52.481-12.461M144.974 480.402l6.036 2.285 2.55 19.47" style="fill:none;stroke:red;stroke-width:.666665;stroke-linecap:round;stroke-linejoin:round;stroke-miterlimit:4;stroke-dasharray:none;stroke-opacity:1;visibility:visible" visibility="hidden"/><path d="M172.397 466.194c13.105-7.411 27.885-13.424 43.637-19.272M237.891 439.679c14.167-4.137 30.35-7.532 45.032-9.481 3.194-.424 6.258-.824 9.198-1.203M315.902 426.091c18.541-2.136 29.845-3.108 37.301-3.879 8.652-.896 20.401-1.792 30.307-4.312" style="fill:none;stroke:red;stroke-width:1.33333;stroke-linecap:round;stroke-linejoin:round;stroke-miterlimit:4;stroke-dasharray:none;stroke-opacity:1;visibility:visible" visibility="hidden"/><path d="M168.24 480.712c-.398 1.18-1.447 1.89-2.34 1.588-.894-.3-1.298-1.501-.9-2.68.398-1.177 1.445-1.89 2.34-1.588.894.302 1.297 1.5.9 2.68M231.246 451.871c-.652 1.061-1.833 1.516-2.636 1.019-.803-.492-.927-1.752-.273-2.814.653-1.056 1.833-1.513 2.637-1.016.804.492.926 1.751.272 2.811" style="fill:none;stroke:red;stroke-width:.666665;stroke-linecap:round;stroke-linejoin:round;stroke-miterlimit:4;stroke-dasharray:none;stroke-opacity:1;visibility:visible" visibility="hidden"/><path d="m166.453 480.928-.356-.573.288-.783.643-.206M305.037 436.966c-1.184.386-2.38-.03-2.668-.928-.295-.895.426-1.934 1.61-2.322 1.183-.385 2.379.031 2.671.93.294.896-.427 1.936-1.612 2.32h-.001M229.46 451.678l-.218-.639.458-.697.671-.059M396.256 423.486c-.626.958-1.721 1.346-2.446.868-.723-.472-.804-1.63-.18-2.588.628-.956 1.724-1.348 2.448-.87.726.471.808 1.632.178 2.59" style="fill:none;stroke:red;stroke-width:.666665;stroke-linecap:round;stroke-linejoin:round;stroke-miterlimit:4;stroke-dasharray:none;stroke-opacity:1;visibility:visible" visibility="hidden"/><path d="m303.8 435.663.248-.628.798-.235.55.39M140.01 254.005c-.397 1.18-1.446 1.89-2.34 1.587-.893-.301-1.296-1.501-.9-2.681.4-1.176 1.447-1.886 2.34-1.585.895.3 1.298 1.499.9 2.679M394.622 423.266l-.183-.594.436-.629.619-.035M212.303 240.904c-.403 1.176-1.457 1.88-2.349 1.57-.89-.304-1.287-1.506-.88-2.686.406-1.175 1.457-1.878 2.35-1.571.892.308 1.288 1.508.879 2.687" style="fill:none;stroke:red;stroke-width:.666665;stroke-linecap:round;stroke-linejoin:round;stroke-miterlimit:4;stroke-dasharray:none;stroke-opacity:1;visibility:visible" visibility="hidden"/><path d="m138.225 254.22-.356-.575.288-.782.643-.208M294.863 235.278c-.98.532-2.083.272-2.47-.58-.383-.848.099-1.968 1.077-2.502.979-.53 2.087-.271 2.472.58.384.849-.099 1.972-1.079 2.502M210.52 241.106l-.354-.578.295-.78.642-.202M395.346 229.366c-.362 1.086-1.326 1.739-2.147 1.46-.821-.274-1.19-1.376-.828-2.458.363-1.084 1.325-1.742 2.147-1.463.821.273 1.192 1.377.828 2.461" style="fill:none;stroke:red;stroke-width:.666665;stroke-linecap:round;stroke-linejoin:round;stroke-miterlimit:4;stroke-dasharray:none;stroke-opacity:1;visibility:visible" visibility="hidden"/><path d="m293.593 234.148.127-.652.666-.336.537.316M172.753 469.81l-17.193 8.893-3.202-.83M393.708 229.565l-.326-.528.261-.719.59-.19" style="fill:none;stroke:red;stroke-width:.666665;stroke-linecap:round;stroke-linejoin:round;stroke-miterlimit:4;stroke-dasharray:none;stroke-opacity:1;visibility:visible" visibility="hidden"/><path d="M124.494 262.393c-.27 83.664 13.02 155.985 27.863 215.48M147.494 257.793c-.462 85.964 12.25 155.217 25.258 212.017" style="fill:none;stroke:red;stroke-width:1.33333;stroke-linecap:round;stroke-linejoin:round;stroke-miterlimit:4;stroke-dasharray:none;stroke-opacity:1;visibility:visible" visibility="hidden"/><path d="m237.653 442.294-18.53 6.03-2.285-.573M127.306 261.882c-.27 83.663 13.41 157.326 28.254 216.82" style="fill:none;stroke:red;stroke-width:.666665;stroke-linecap:round;stroke-linejoin:round;stroke-miterlimit:4;stroke-dasharray:none;stroke-opacity:1;visibility:visible" visibility="hidden"/><path d="M197.677 247.805c2.123 94.398 13.258 161.209 19.162 199.945M220.677 244.652c2.122 94.398 11.073 158.906 16.976 197.642" style="fill:none;stroke:red;stroke-width:1.33333;stroke-linecap:round;stroke-linejoin:round;stroke-miterlimit:4;stroke-dasharray:none;stroke-opacity:1;visibility:visible" visibility="hidden"/><path d="M199.675 247.805c2.123 94.398 13.544 161.782 19.448 200.52" style="fill:none;stroke:red;stroke-width:.666665;stroke-linecap:round;stroke-linejoin:round;stroke-miterlimit:4;stroke-dasharray:none;stroke-opacity:1;visibility:visible" visibility="hidden"/><path d="M214.838 253.076c2.19 82.529 11.567 144.672 17.468 182.896l-8.876 2.816c-5.89-38.14-15.472-100.775-17.76-184.35l9.168-1.362" style="fill:none;fill-opacity:1;fill-rule:nonzero;stroke:red;stroke-width:1.33333;visibility:visible" visibility="hidden"/><path d="M214.838 253.076c2.19 82.529 11.567 144.672 17.468 182.896l-8.876 2.816c-5.89-38.14-15.472-100.775-17.76-184.35l9.168-1.362" style="fill:none;stroke:red;stroke-width:.666665;stroke-linecap:round;stroke-linejoin:round;stroke-miterlimit:4;stroke-dasharray:none;stroke-opacity:1;visibility:visible" visibility="hidden"/><path d="m224.247 424.872.496-1.892M222.457 409.563l-.337 2.097M228.191 415.336l-.873.796M228.126 418.46l-.621-1.325M225.389 411.862l-.895-.887M226.43 415.287l-.105 2.028M223.52 417.26l.49 1.34M221.998 420.392l.964.318M225.77 420.896l-.453-.948M223.32 413.794l-.546-1.639M226.557 414.307l-.142-1.755M228.317 426.428l.81-1.792M229.649 421.44l-1.255-.807M227.182 436.16l.495-1.89M225.022 427.307l1.245-.203M229.723 426.844l-.105 2.028M226.063 431.374l.964.316M227.38 424.775l-.541-1.64M228.893 433.556l-.455-.948M224.1 434.5l1.005-1.554M223.374 406.452l-.873.796M223.165 425.944l-.103 2.776M231.129 434.735l-.62-1.323M225.21 429.346l-1.14 1.904M228.763 435.842l1.008-1.556M227.19 429.394l-.14-1.754M223.938 437.882l.81-1.792M228.9 429.956l-.87.796M226.137 411.602l1.243-.203M226.406 419.426l.964.317M226.635 410.332l-.453-.946M224.746 408.215l1.672-1.273M224.742 406.636l1.108-1.41M224.443 416.192l1.007-1.554M225.262 397.886l-.144-1.414M220.629 389.498l-.896-.885M222.7 394.716l1.67-1.276M220.394 391.794l1.107-1.412M221.373 410.692l-.874.796M220.978 407.795l-.895-.887M222.191 412.96l-1.14 1.904M222.575 417.664l-.968-.233M220.613 405.694l.494-1.89M218.453 395.108l1.244-.202M222.845 387.474l-.338 2.099M222.883 392.375l-.893-.887M223.927 395.802l-.107 2.028M220.053 398.162l.492 1.338M219.493 400.907l.965.317M223.266 401.411l-.453-.948M220.813 394.308l-.544-1.638M219.485 403.932l1.008-1.556M224.726 392.508l-.141-1.753M224.842 403.832l.81-1.79M225.497 400.615l-1.255-.805M218.803 392.202l.497-1.89M216.645 383.353l1.244-.204M217.469 379.38l-.336 2.1M221.278 380.143l-.873.797M223.773 384.717l-.619-1.322M221.077 378.883l-.897-.885M222.118 382.311l-.105 2.029M219.207 384.285l.493 1.34M217.686 387.415l.964.319M221.46 387.92l-.456-.946M219.003 380.818l-.54-1.64M218.107 385.938l-.453-.948M219.003 383.043l1.671-1.273M223.35 379.617l-1.14 1.905M222.726 378.825l-.14-1.755M223.331 391.526l.811-1.792M222.671 386.151l-.966-.233M224.66 387.403l-1.254-.805M219.14 392.932l-.873.798M222.12 402.036l-.62-1.322M220.055 395.971l-1.138 1.907M222.765 405.266l.81-1.79M222.271 396.435l-.968-.233M222.687 397.543l-.874.797M214.955 359.985l-.145-1.412M215.678 350.55l-.336 2.097M219.766 348.802l-.895-.888M216.375 355.89l-.105 2.028M219.826 356.225l.49 1.34M218.303 359.357l.964.317M221.015 360.438l-.453-.948M219.623 352.758l-.543-1.639M214.222 356.237l1.67-1.275M216.342 362.485l1.008-1.555M219.02 370.965l-.144-1.415M222.04 375.798l.496-1.89M220.074 367.91l1.246-.203M218.873 360.76l-.335 2.1M221.5 369.951l.964.319M221.18 364.895l-.541-1.641M216.937 366.735l1.67-1.273M220.405 373.466l1.008-1.556M216.2 378.391l.496-1.891M219.54 366.717l-.875.796M217.411 372.157l-.62-1.323M215.098 364.975l-.895-.885M216.14 368.402l-.105 2.028M217.086 374.617l.49 1.34M215.48 374.011l-.455-.946M217.52 364.82l-.144-1.756M220.245 376.846l.81-1.79M219.586 372.533l-.968-.234M219.358 374.554l-1.255-.805M218.831 344.571l-.334 2.099M217.474 348.126l-.543-1.637M216.893 350.45l1.672-1.273M218.253 343.48l1.106-1.41M216.602 329.698l1.108-1.41M214.489 353.845l-.62-1.323M215.258 349.071l-.893-.886M217.245 352.022l-1.14 1.904M213.247 348.53l-.14-1.753M215.973 360.557l.81-1.792M218.302 356.245l-.97-.235M220.549 354.173l-.872.796M212.45 340.5l-.144-1.416M216.918 344.657l.495-1.891M213.173 331.063l-.336 2.099M218.113 333.415l-.108 2.028M217.32 336.74l.494 1.34M215.8 339.871l.962.319M218.897 340.665l-.454-.948M217.118 333.271l-.543-1.638M214.89 347.162l.81-1.79M210.642 327.007l-.144-1.413M215.11 331.166l.496-1.89M212.951 322.317l1.243-.204M211.365 317.574l-.336 2.099M212.753 324.74l-.619-1.32M217.38 317.847l-.894-.885M217.17 322.142l-.105 2.028M215.514 323.249l.49 1.341M213.991 326.38l.963.319M217.763 326.883l-.453-.948M215.309 319.782l-.542-1.64M209.911 323.26l1.671-1.273M212.52 320.335l1.106-1.409M212.029 329.509l1.008-1.555M216.72 320.873l-.14-1.755M213.326 334.306l-.875.796M212.546 337.723l-.619-1.323M215.3 335.9l-1.137 1.904M211.306 332.409l-.141-1.754M214.03 344.434l.81-1.79M213.143 342.145l-1.253-.807M218.993 336.509l-.875.796M211.26 298.949l-.146-1.414M215.727 303.109l.496-1.89M212.51 295.413l1.243-.203M214.818 289.5l-.895-.886M214.589 295.67l.49 1.34M214.609 298.322l.964.318M213.946 311.16l-.453-.946M214.482 287l-.544-1.64M209.538 297.422l-.455-.947M210.529 295.2l1.67-1.273M208.315 294.687l1.11-1.412M212.646 301.449l1.007-1.555M216.455 311.277l-.142-1.415M214.973 316.594l.496-1.89M214.591 306.18l1.671-1.273M210.58 317.26l.493-1.894M209.863 307.058l1.244-.204M215.065 309.098l-.619-1.323M211.405 303.94l-.896-.885M212.447 307.366l-.107 2.03M209.534 309.34l.492 1.34M211.785 312.975l-.455-.948M209.333 305.873l-.544-1.639M209.713 313.77l1.007-1.557M213.826 303.783l-.143-1.753M212.791 316.485l.81-1.79M215.663 313.52l-1.253-.807M211.72 285.467l-.456-.947M211.573 289.391l-.874.796M210.794 292.81l-.62-1.323M209.155 284.085l-.894-.887M208.56 289.246l-.107 2.028M209.442 300.443l-.455-.946M213.55 290.985l-1.14 1.904M209.553 287.495l-.143-1.754M212.278 299.52l.81-1.79M215.282 294.534l-.968-.234M214.654 291.846l.676 1.155M208.754 279.463l-.143-1.413M213.222 283.622l.495-1.892M209.48 270.027l-.338 2.1M214.047 269.05l-.894-.887M212.78 286.162l-.108 2.028M213.626 275.705l.492 1.34M214.623 280.785l-.453-.948M213.422 272.235l-.542-1.638M206.946 265.973l-.143-1.415M211.414 270.13l.496-1.89M209.255 261.28l1.243-.204M207.67 256.538l-.336 2.099M213.687 256.813l-.896-.887M213.38 259.082l-.107 2.028M211.818 262.213l.49 1.34M210.297 265.345l.962.317M214.07 265.847l-.455-.947M211.613 258.746l-.543-1.64M206.987 261.069l1.671-1.275M208.334 268.474l1.007-1.556M209.458 257.234l-.14-1.753M209.631 273.269l-.874.796M208.851 276.687l-.62-1.324M211.606 274.863l-1.14 1.907M207.611 271.373l-.141-1.753M210.337 283.398l.81-1.79M213.34 278.411l-.97-.233M209.449 281.109l-1.255-.806M214.72 272.966l-.876.797" style="fill:none;stroke:red;stroke-width:.333333;stroke-linecap:round;stroke-linejoin:round;stroke-miterlimit:4;stroke-dasharray:none;stroke-opacity:1;visibility:visible" visibility="hidden"/><path d="m314.505 426.688.144 1.963-20.774 2.144" style="fill:none;stroke:red;stroke-width:.666665;stroke-linecap:round;stroke-linejoin:round;stroke-miterlimit:4;stroke-dasharray:none;stroke-opacity:1;visibility:visible" visibility="hidden"/><path d="M283.102 239.745c1.533 35.265 8 164.578 10.773 191.05M305.157 238.98c1.008 52.33 6.968 162.127 9.348 187.708" style="fill:none;stroke:red;stroke-width:1.33333;stroke-linecap:round;stroke-linejoin:round;stroke-miterlimit:4;stroke-dasharray:none;stroke-opacity:1;visibility:visible" visibility="hidden"/><path d="m400.558 414.836-13.928 4.454-2.54-.623" style="fill:none;stroke:red;stroke-width:.666665;stroke-linecap:round;stroke-linejoin:round;stroke-miterlimit:4;stroke-dasharray:none;stroke-opacity:1;visibility:visible" visibility="hidden"/><path d="M381.746 235.594c-4.074 46.084-5.038 110.51 2.344 183.073M399.972 233.78c-4.072 46.083-6.797 108.493.586 181.056" style="fill:none;stroke:red;stroke-width:1.33333;stroke-linecap:round;stroke-linejoin:round;stroke-miterlimit:4;stroke-dasharray:none;stroke-opacity:1;visibility:visible" visibility="hidden"/><path d="M384.046 235.594c-4.076 46.084-5.039 110.51 2.344 183.073" style="fill:none;stroke:red;stroke-width:.666665;stroke-linecap:round;stroke-linejoin:round;stroke-miterlimit:4;stroke-dasharray:none;stroke-opacity:1;visibility:visible" visibility="hidden"/><path d="m416.34 223.842.052-5.45M411.157 217.703l-5.162-6.515M408.263 211.806l-.097 18.879M416.392 218.392l-.052 5.45" style="fill:none;stroke:red;stroke-width:1.33333;stroke-linecap:round;stroke-linejoin:round;stroke-miterlimit:4;stroke-dasharray:none;stroke-opacity:1;visibility:visible" visibility="hidden"/><path d="m408.166 230.685.097-18.879" style="fill:none;stroke:red;stroke-width:.666665;stroke-linecap:round;stroke-linejoin:round;stroke-miterlimit:4;stroke-dasharray:none;stroke-opacity:1;visibility:visible" visibility="hidden"/><path d="m151.01 482.687 1.03-5.771" style="fill:none;stroke:red;stroke-width:1.33333;stroke-linecap:round;stroke-linejoin:round;stroke-miterlimit:4;stroke-dasharray:none;stroke-opacity:1;visibility:visible" visibility="hidden"/><path d="m400.515 411.916 15.125-5.022" style="fill:none;stroke:red;stroke-width:.666665;stroke-linecap:round;stroke-linejoin:round;stroke-miterlimit:4;stroke-dasharray:none;stroke-opacity:1;visibility:visible" visibility="hidden"/><path d="M408.239 412.944v14.29M415.523 417.122l-.056 4.89M415.467 422.012l.056-4.89M408.239 412.944l-7.724-1.028" style="fill:none;stroke:red;stroke-width:1.33333;stroke-linecap:round;stroke-linejoin:round;stroke-miterlimit:4;stroke-dasharray:none;stroke-opacity:1;visibility:visible" visibility="hidden"/><path d="m152.04 476.916-1.03 5.771M405.148 411.658l3.091 1.286" style="fill:none;stroke:red;stroke-width:.666665;stroke-linecap:round;stroke-linejoin:round;stroke-miterlimit:4;stroke-dasharray:none;stroke-opacity:1;visibility:visible" visibility="hidden"/><path d="m172.753 469.81-.356-3.616M237.653 442.294l.238-2.615M293.875 430.795l-1.754-1.8" style="fill:none;stroke:red;stroke-width:1.33333;stroke-linecap:round;stroke-linejoin:round;stroke-miterlimit:4;stroke-dasharray:none;stroke-opacity:1;visibility:visible" visibility="hidden"/><path d="m228.763 435.842 2.483 16.029M229.771 434.286l1.475 17.585" style="fill:none;stroke:red;stroke-width:.666665;stroke-linecap:round;stroke-linejoin:round;stroke-miterlimit:4;stroke-dasharray:none;stroke-opacity:1;visibility:visible" visibility="hidden"/><path d="m209.458 257.234-11.781-9.429M209.458 257.234l11.219-12.582" style="fill:none;stroke:red;stroke-width:1.33333;stroke-linecap:round;stroke-linejoin:round;stroke-miterlimit:4;stroke-dasharray:none;stroke-opacity:1;visibility:visible" visibility="hidden"/><path d="m209.458 257.234-9.783-9.429" style="fill:none;stroke:red;stroke-width:.666665;stroke-linecap:round;stroke-linejoin:round;stroke-miterlimit:4;stroke-dasharray:none;stroke-opacity:1;visibility:visible" visibility="hidden"/><path d="m227.677 434.27-3.43-9.398M227.182 436.16l-2.439-13.18M222.507 389.573l-.05 19.99M220.499 411.488l7.692 3.848M221.373 410.692l5.945 5.44M225.317 419.948l2.809-1.488M225.77 420.896l1.735-3.761M220.978 407.795l3.516 3.18M223.165 425.944l3.16-8.629M223.32 413.794l.2 3.466M226.839 423.135l-2.829-4.535M222.575 417.664l-.577 2.728M221.607 417.431l1.355 3.279M227.505 417.135l-1.735 3.761M228.126 418.46l-2.809 1.488M223.52 417.26l-.2-3.466M224.748 436.09l3.569-9.662M223.938 437.882l5.189-13.246M224.743 422.98l2.439 13.18M224.247 424.872l3.43 9.398M227.38 411.399l-2.358 15.908M223.062 428.72l6.661-1.876M223.165 425.944l6.453 2.928M222.962 420.71l3.101 10.664M226.406 419.426l.621 12.264M223.52 417.26l3.86 7.515M224.01 418.6l2.829 4.535M230.509 433.412l-1.616.144M231.129 434.735l-2.691-2.127M225.21 429.346l-1.11 5.154M224.07 431.25l1.035 1.696M220.499 411.488l2.875-5.036M221.373 410.692l1.128-3.444M229.618 428.872l-6.453-2.928M229.723 426.844l-6.661 1.876M228.438 432.608l2.691 2.127M228.893 433.556l1.616-.144M224.1 434.5l1.11-5.154M225.105 432.946l-1.035-1.696M225.105 432.946l3.658 2.896M224.1 434.5l5.671-.214M226.415 412.552l.775 16.842M229.127 424.636l-5.189 13.246M228.317 426.428l-3.569 9.662M227.318 416.132l1.582 13.824M228.191 415.336l-.161 15.416M225.022 427.307l2.358-15.908M222.962 420.71l3.444-1.284M221.998 420.392l5.372-.649M227.505 417.135l-.87-6.803M222.12 402.036l4.062 7.35M224.37 393.44l.376 14.775M222.7 394.716l3.718 12.226M221.501 390.382l3.241 16.254M220.394 391.794l5.456 13.432M222.191 412.96l2.252 3.232M221.051 414.864l4.399-.226M224.585 390.755l.677 7.131M224.726 392.508l.392 3.964M221.99 391.488l-1.361-1.99M222.883 392.375l-3.15-3.762M222.687 397.543l.013-2.827M224.742 406.636l-3.241-16.254M222.501 407.248l-1.128 3.444M223.374 406.452l-2.875 5.036M224.494 410.975l-3.516-3.18M225.389 411.862l-5.306-4.954M225.45 414.638l-4.399.226M221.998 420.392l.577-2.728M222.962 420.71l-1.355-3.279M219.3 390.312l1.313 15.382M218.803 392.202l2.304 11.602M217.889 383.149l.564 11.959M216.645 383.353l3.052 11.553M217.133 381.48l5.712 5.994M217.469 379.38l5.038 10.193M220.629 389.498l1.361 1.99M222.013 384.34l1.914 11.462M222.118 382.311l1.702 15.519M220.813 394.308l-.76 3.854M221.5 400.714l-.955-1.214M222.271 396.435l-2.778 4.472M221.303 396.202l-.845 5.022M221.5 400.714l1.766.697M222.12 402.036l.693-1.573M220.053 398.162l.76-3.854M220.055 395.971l-.57 7.961M218.917 397.878l1.576 4.498M225.262 397.886l-.677-7.131M223.575 403.476l1.267.356M222.765 405.266l2.887-3.224M223.406 386.598l2.091 14.017M224.66 387.403l-.418 12.407M216.2 378.391l3.1 11.921M219.697 394.906l-3.052-11.553M218.453 395.108l-.564-11.959M222.507 389.573l-5.038-10.193M222.845 387.474l-5.712-5.994M218.665 367.513l2.613 12.63M221.004 386.974l2.769-2.257M219.7 385.625l3.454-2.23M219.733 388.613l1.344-9.73M220.629 389.498l-.449-11.5M223.927 395.802l-1.914-11.462M219.003 380.818l.204 3.467M223.154 383.395l-3.454 2.23M222.671 386.151l-4.985 1.264M221.705 385.918l-3.055 1.816M217.654 384.99l3.806 2.93M218.107 385.938l2.897 1.036M219.207 384.285l-.204-3.467M217.576 375.957l.887 3.221M221.004 386.974l-2.897-1.036M221.46 387.92l-3.806-2.93M224.37 393.44l-5.367-10.397M220.405 373.466l2.945 6.151M218.876 369.55l3.85 9.275M219.02 370.965l3.566 6.105M220.245 376.846l3.897 12.888M218.65 387.734l3.055-1.816M224.242 399.81l.418-12.407M222.687 397.543l-4.42-3.813M222.813 400.463l-.693 1.573M220.545 399.5l.955 1.214M219.485 403.932l.57-7.961M220.493 402.376l-1.576-4.498M225.652 402.042l-2.887 3.224M224.842 403.832l-1.267-.356M219.493 400.907l2.778-4.472M220.458 401.224l.845-5.022M222.7 394.716l-.013 2.827M224.37 393.44l-2.557 4.9M217.376 363.064l-2.421-3.079M217.52 364.82l-2.71-6.247M218.497 346.67l-2.819 3.88M218.831 344.571l-3.489 8.076M214.365 348.185l5.401.617M215.258 349.071l3.613-1.157M219.623 352.758l.203 3.467M220.639 363.254l-.323-5.689M218.302 356.245l.001 3.112M217.332 356.01l1.935 3.664M213.869 352.522l7.146 7.916M214.489 353.845l6.073 5.645M219.826 356.225l-.203-3.467M217.474 348.126l1.606 2.993M218.565 349.177l-4.343 7.06M216.893 350.45l-1.001 4.512M217.245 352.022l-.903 10.463M216.105 353.926l1.245 7.004M222.586 377.07l-3.566-6.105M217.52 364.82l1.356 4.73M216.696 376.5l5.344-.702M216.2 378.391l6.336-4.483M217.889 383.149l2.185-15.239M216.645 383.353l4.675-15.646M215.342 352.647l3.531 8.113M215.678 350.55l2.86 12.31M219.586 372.533l1.914-2.582M218.618 372.299l3.846-2.029M219.826 356.225l1.354 8.67M220.316 357.565l.323 5.689M219.54 366.717l-2.603.018M218.665 367.513l-.058-2.051M223.35 379.617l-2.945-6.151M222.21 381.522l-.797-9.612M222.536 373.908l-6.336 4.483M222.04 375.798l-5.344.702M216.937 366.735l2.603-.018M218.607 365.462l.058 2.051M215.025 373.065l2.386-.908M220.18 377.998l-5.082-13.023M215.258 349.071l-1.055 15.019M216.27 357.918l-.13 10.484M219.003 380.818l-1.917-6.201M218.463 379.178l-.887-3.221M216.791 370.834l-1.311 3.177M217.411 372.157l-2.386.908M218.876 369.55l-1.356-4.73M214.955 359.985l2.421 3.079M224.142 389.734l-3.897-12.888M215.973 360.557l5.082 14.499M221.5 369.951l-1.914 2.582M222.464 370.27l-3.846 2.029M223.406 386.598l-4.048-12.044M224.66 387.403l-6.557-13.654M215.342 352.647l3.489-8.076M215.678 350.55l2.819-3.88M219.08 351.119l-1.606-2.993M219.623 352.758l-2.692-6.269M215.892 354.962l1.001-4.512M214.222 356.237l4.343-7.06M217.71 328.288l.543 15.192M216.602 329.698l2.757 12.372M213.626 318.926l2.976 10.772M212.52 320.335l5.19 7.953M220.562 359.49l-6.073-5.645M221.015 360.438l-7.146-7.916M218.871 347.914l-3.613 1.157M219.766 348.802l-5.401-.617M216.342 362.485l.903-10.463M217.35 360.93l-1.245-7.004M212.306 339.084l.941 9.446M212.45 340.5l.657 6.277M215.7 345.372l.273 15.185M218.303 359.357l-.001-3.112M218.665 367.513l1.884-13.34M219.54 366.717l.137-11.748M213.107 346.777l-.657-6.277M211.306 332.409l1 6.675M215.606 329.276l1.312 15.381M215.11 331.166l2.303 11.6M211.029 319.673l2.144 11.39M218.831 344.571l-5.994-11.409M217.065 324.17l1.048 9.245M217.17 322.142l.835 13.301M214.954 326.699l.846 13.172M213.991 326.38l2.771 13.81M211.927 336.4l6.97 4.265M212.546 337.723l5.897 1.994M217.32 336.74l-.202-3.469M217.814 338.08l-1.239-6.447M214.84 342.644l.05 4.518M214.03 344.434l1.67.938M211.165 330.655l-.523-3.648M211.306 332.409l-.808-6.815M217.413 342.766l-2.303-11.6M214.973 316.594l.633 12.682M211.107 306.854l1.844 15.463M209.863 307.058l4.331 15.055M213.173 331.063l-2.144-11.39M217.31 325.935l-4.557-1.195M217.763 326.883l-5.629-3.463M210.509 303.055l6.871 14.792M211.405 303.94l5.081 13.022M218.005 335.443l-.835-13.301M218.113 333.415l-1.048-9.245M215.309 319.782l.205 3.467M214.767 318.142l1.237 6.448M216.762 340.19l-2.771-13.81M215.8 339.871l-.846-13.172M212.134 323.42l5.629 3.463M212.753 324.74l4.557 1.195M215.514 323.249l-.205-3.467M216.004 324.59l-1.237-6.448M213.326 334.306l-3.415-11.046M212.451 335.102l-.869-13.115M217.71 328.288l-5.19-7.953M216.602 329.698l-2.976-10.772M215.3 335.9l-3.271-6.391M214.163 337.804l-1.126-9.85M210.498 325.594l6.222-4.721M216.455 311.277l.125 7.841M218.118 337.305l-4.792-2.999M218.993 336.509l-6.542-1.407M217.32 336.74l-4.774.983M217.814 338.08l-5.887-1.68M212.029 329.509l3.271 6.391M213.037 327.954l1.126 9.85M212.306 339.084l-1-6.675M210.642 327.007l.523 3.648M215.7 345.372l-1.67-.938M214.89 347.162l-.05-4.518M212.451 335.102l6.542 1.407M213.683 302.03l-2.423-3.081M213.826 303.783l-2.712-6.248M215.469 314.704l.258-11.595M214.973 316.594l1.25-15.375M211.107 306.854l1.403-11.441M208.261 283.198l6.557 6.302M209.155 284.085l4.768 4.529M208.789 304.234l6.29-7.224M215.282 294.534l-.673 3.788M214.314 294.3l1.259 4.34M211.33 312.027l2.616-.867M215.065 309.098l-1.572 1.116M214.589 295.67l-.107-8.67M214.118 277.045l-.18 8.315M208.987 299.497l.551-2.075M209.442 300.443l-.359-3.968M216.262 304.907l-5.733-9.707M214.591 306.18l-2.392-12.253M213.55 290.985l-.904 10.464M212.41 292.889l1.243 7.005M216.58 319.118l-.125-7.841M213.826 303.783l2.487 6.079M211.073 315.366l3.9 1.228M210.58 317.26l4.889-2.556M212.199 293.927l2.392 12.253M210.529 295.2l5.733 9.707M214.973 316.594l-3.9-1.228M213.753 295.21l-3.89 11.848M212.51 295.413l-1.403 11.441M213.493 310.214l1.572-1.116M213.946 311.16l.5-3.385M216.486 316.962l-5.081-13.022M214.818 289.5l-4.309 13.555M208.453 291.274l3.994 16.092M217.17 322.142l-4.83-12.746M209.333 305.873l.201 3.467M214.446 307.775l-4.42 2.905M213.493 310.214l-1.708 2.761M209.534 309.34l-.201-3.467M210.026 310.68l-1.237-6.446M213.653 299.894l-3.94 13.876M216.313 309.862l-2.487-6.079M211.26 298.949l2.423 3.081M213.088 297.73l-.297 18.755M212.278 299.52l1.323 15.175M214.17 279.837l-2.45 5.63M214.623 280.785l-3.359 3.735M208.757 274.065l2.816 15.326M209.631 273.269l1.068 16.918M209.083 296.475l1.711-3.665M209.538 297.422l.636-5.935M213.923 288.614l-4.768-4.529M214.818 289.5l-6.557-6.302M212.672 288.19l-4.112 1.056M212.78 286.162l-4.327 5.112M209.083 296.475l.359 3.968M209.538 297.422l-.551 2.075M212.646 301.449l.904-10.464M213.653 299.894l-1.243-7.005M208.611 278.05l.942 9.445M208.754 279.463l.656 6.278M213.601 314.695l-1.323-15.175M210.337 283.398l2.751 14.332M214.609 298.322l.673-3.788M215.573 298.64l-1.259-4.34M211.72 285.467l2.934 6.379M209.083 296.475l6.247-3.474M209.41 285.741l-.656-6.278M207.611 271.373l1 6.677M211.91 268.24l1.312 15.382M211.414 270.13l2.303 11.6M207.334 258.637l2.146 11.39M207.67 256.538l1.472 15.589M212.791 255.926l1.256 13.124M213.687 256.813l-.534 11.35M208.453 291.274l4.327-5.112M208.56 289.246l4.112-1.056M213.422 272.235l.204 3.47M208.231 275.363l5.887 1.682M211.264 284.52l3.359-3.735M211.72 285.467l2.45-5.63M213.626 275.705l-.204-3.47M214.118 277.045l-1.238-6.448M207.47 269.62l-.524-3.647M207.611 271.373l-.808-6.815M213.717 281.73l-2.303-11.6M213.222 283.622l-1.312-15.382M214.838 253.076l-5.583 8.204M209.142 272.127l-1.472-15.589M209.48 270.027l-2.146-11.39M213.153 268.163l.534-11.35M214.047 269.05l-1.256-13.124M214.838 253.076l-1.565 8.034M211.613 258.746l.205 3.467M211.07 257.106l1.238 6.447M213.34 278.411l-3.043-13.066M212.37 278.178l-1.111-12.516M208.231 275.363l5.839-9.516M208.851 276.687l4.764-11.787M211.818 262.213l-.205-3.467M212.308 263.553l-1.238-6.447M209.631 273.269l-2.644-12.2M208.757 274.065l-.099-14.271M211.606 274.863l-3.272-6.389M210.466 276.77l-1.125-9.852M214.838 253.076l-5.38 4.158M206.946 265.973l2.372-10.492M213.844 273.763l-4.213-.494M214.72 272.966l-5.963 1.099M213.626 275.705l-4.775.982M214.118 277.045l-5.887-1.682M208.334 268.474l3.272 6.389M209.341 266.918l1.125 9.852M208.611 278.05l-1-6.677M206.946 265.973l.524 3.647M213.088 297.73l-2.751-14.332M212.278 299.52l-1.131-17.912M210.297 265.345l3.043 13.066M211.259 265.662l1.111 12.516M208.757 274.065l5.963-1.099M209.631 273.269l4.213.494" style="fill:none;stroke:red;stroke-width:.333333;stroke-linecap:round;stroke-linejoin:round;stroke-miterlimit:4;stroke-dasharray:none;stroke-opacity:1;visibility:visible" visibility="hidden"/><path d="M475.716 231.065c7.83 77.149-3.795 171.918-5.608 179.631l11.772 4.655.185 5.072 123.625 49.259.692-5.515 16.14 5.475 3.194-1.64s6.377-37.18 11.384-73.127c2.953-21.205 4.977-41.984 6.156-54.441 3.176-33.575 5.133-77.992 5.133-77.992l-9.012-1.997-12.172-1.392.255-6.185-138.56-24.162-.425 4.515-12.759-2.156" style="fill:none;fill-opacity:1;fill-rule:nonzero;stroke:#00ff4a;stroke-width:1.33333;visibility:visible"/><path d="M605.18 461.312c12.522-64.912 19.166-164.578 19.933-200.866" style="fill:none;stroke:#00ff4a;stroke-width:.666665;stroke-linecap:round;stroke-linejoin:round;stroke-miterlimit:4;stroke-dasharray:13.3333,3.99999;stroke-dashoffset:0;stroke-opacity:1;visibility:visible"/><path d="M626.445 466.916c1.072.338 8.99 2.887 8.99 2.887l-2.31 18.256-3.348 3.2c-3.637-1.139-31.543-11.089-38.285-14.165-6.85-3.128-108.543-44.52-122.39-50.178-9.129-3.73-19.421-3.06-26.356-1.656M434.644 427.855c-3.804 1.979-11.848 6.157-11.848 6.157l-2.978-.844v-16.774l10.274-5.114" style="fill:none;stroke:#00ff4a;stroke-width:1.33333;stroke-linecap:round;stroke-linejoin:round;stroke-miterlimit:4;stroke-dasharray:none;stroke-opacity:1;visibility:visible"/><path d="m430.092 411.282-2.832-.744" style="fill:none;stroke:#00ff4a;stroke-width:.666665;stroke-linecap:round;stroke-linejoin:round;stroke-miterlimit:4;stroke-dasharray:none;stroke-opacity:1;visibility:visible"/><path d="M427.26 412.598v-2.06c14.146-8.04 33.502-5.658 38.416-4.468a58.015 58.015 0 0 1 4.558 1.332" style="fill:none;stroke:#00ff4a;stroke-width:1.33333;stroke-linecap:round;stroke-linejoin:round;stroke-miterlimit:4;stroke-dasharray:none;stroke-opacity:1;visibility:visible"/><path d="M620.966 469.162a1762.009 1762.009 0 0 0 10.215 3.394M422.708 433.772l.122-16.384-3.012-.994M629.876 491.012l2.017-18.305 3.543-2.904" style="fill:none;stroke:#00ff4a;stroke-width:.666665;stroke-linecap:round;stroke-linejoin:round;stroke-miterlimit:4;stroke-dasharray:none;stroke-opacity:1;visibility:visible"/><path d="M470.039 410.723c1.997.737 6.104 2.452 12.45 4.928M605.73 463.988c5.123 1.768 15.692 6.872 19.987 4.015" style="fill:none;stroke:#00ff4a;stroke-width:1.33333;stroke-linecap:round;stroke-linejoin:round;stroke-miterlimit:4;stroke-dasharray:none;stroke-opacity:1;visibility:visible"/><path d="m471.439 411.37-.302 10.366 10.294 4.208.449-10.593M423.072 417.26s7.412-3.558 11.396-5.398c8.306-3.834 23.352-5.526 35.043-1.214" style="fill:none;stroke:#00ff4a;stroke-width:.666665;stroke-linecap:round;stroke-linejoin:round;stroke-miterlimit:4;stroke-dasharray:none;stroke-opacity:1;visibility:visible"/><path d="M625.718 468.002c15.236-76.703 22.396-179.913 22.396-205.768M470.205 410.355c4.216-23.767 11.76-114.744 5.5-178.76l1.059-.812" style="fill:none;stroke:#00ff4a;stroke-width:1.33333;stroke-linecap:round;stroke-linejoin:round;stroke-miterlimit:4;stroke-dasharray:none;stroke-opacity:1;visibility:visible"/><path d="M428.57 421.068c.345.095.587.422.7.872M428.538 424.844c-.36.407-.784.61-1.166.504M484.501 225.665c.206.955-.27 1.875-1.073 2.045-.801.175-1.617-.465-1.821-1.424-.207-.96.276-1.874 1.077-2.046.799-.172 1.616.465 1.817 1.425M637.784 251.82c.5 1.082.173 2.302-.734 2.718-.905.419-2.044-.125-2.54-1.21-.5-1.086-.174-2.3.733-2.72.906-.415 2.045.126 2.541 1.212M614.09 472.026c.654.813.726 1.846.153 2.306-.569.463-1.566.175-2.219-.638-.659-.815-.727-1.847-.155-2.307.572-.463 1.567-.175 2.221.639M477.65 417.99c.402.893.222 1.85-.407 2.133-.626.284-1.463-.212-1.867-1.105-.404-.895-.224-1.85.405-2.135.629-.283 1.463.212 1.869 1.107M622.526 466.826c14.602-73.883 21.866-173.256 22.25-202.803" style="fill:none;stroke:#00ff4a;stroke-width:.666665;stroke-linecap:round;stroke-linejoin:round;stroke-miterlimit:4;stroke-dasharray:none;stroke-opacity:1;visibility:visible"/><path d="M427.372 425.348c-.685-.193-.97-1.305-.638-2.486.33-1.183 1.153-1.986 1.836-1.795" style="fill:none;stroke:#00ff4a;stroke-width:.999997;stroke-linecap:round;stroke-linejoin:round;stroke-miterlimit:4;stroke-dasharray:none;stroke-opacity:1;visibility:visible"/><path d="m431.612 210.92-10.945 1.854-.087 20.736 3.324.738s9.352-2.286 12.787-2.784a165.7 165.7 0 0 1 10.257-1.167M460.452 229.797c5.35.063 10.524.463 15.263 1.268" style="fill:none;stroke:#00ff4a;stroke-width:1.33333;stroke-linecap:round;stroke-linejoin:round;stroke-miterlimit:4;stroke-dasharray:none;stroke-opacity:1;visibility:visible"/><path d="m423.906 234.248.33-20.314-3.568-1.16" style="fill:none;stroke:#00ff4a;stroke-width:.666665;stroke-linecap:round;stroke-linejoin:round;stroke-miterlimit:4;stroke-dasharray:none;stroke-opacity:1;visibility:visible"/><path d="M429.155 211.317v-.873s3.57-.714 7.93-1.27c4.365-.554 22.767-2.537 44.263.794 21.495 3.33 180.692 28.117 180.692 28.117l-2.556 23-3.324 1.917-11.603-1.54" style="fill:none;stroke:#00ff4a;stroke-width:1.33333;stroke-linecap:round;stroke-linejoin:round;stroke-miterlimit:4;stroke-dasharray:none;stroke-opacity:1;visibility:visible"/><path d="m662.04 238.085-3.451 1.79M655.905 262.489l2.684-22.616s-170.709-26.59-180.422-28.11c-14.695-2.303-29.59-1.501-39.612-.386-5.75.64-14.32 2.556-14.32 2.556M482.065 420.423l123.625 49.259M620.928 469.272l-1.184 12.328-14.63-5.293 1.179-11.768M625.844 233.362c-.026.443-1.356.73-2.972.636-1.619-.092-2.907-.526-2.883-.97.025-.443 1.356-.73 2.973-.638 1.618.094 2.908.528 2.882.972" style="fill:none;stroke:#00ff4a;stroke-width:.666665;stroke-linecap:round;stroke-linejoin:round;stroke-miterlimit:4;stroke-dasharray:none;stroke-opacity:1;visibility:visible"/><path d="m643.768 261.998 1.149-15.992-16.227-2.554-1.534 15.077" style="fill:none;stroke:#00ff4a;stroke-width:.666665;stroke-linecap:round;stroke-linejoin:round;stroke-miterlimit:4;stroke-dasharray:none;stroke-opacity:1;visibility:visible"/><path d="m482.256 418.698 123.625 49.258" style="fill:none;stroke:#00ff4a;stroke-width:.666665;stroke-linecap:round;stroke-linejoin:round;stroke-miterlimit:4;stroke-dasharray:3.99999;stroke-dashoffset:0;stroke-opacity:1;visibility:visible"/><path d="M491.712 234.634c3.579 41.401-.255 149.501-7.156 179.146" style="fill:none;stroke:#00ff4a;stroke-width:.666665;stroke-linecap:round;stroke-linejoin:round;stroke-miterlimit:4;stroke-dasharray:13.3333,3.99999;stroke-dashoffset:0;stroke-opacity:1;visibility:visible"/><path d="m488.901 228.708 138.092 24.114" style="fill:none;stroke:#00ff4a;stroke-width:.666665;stroke-linecap:round;stroke-linejoin:round;stroke-miterlimit:4;stroke-dasharray:none;stroke-opacity:1;visibility:visible"/><path d="m488.901 230.445 137.944 24.088" style="fill:none;stroke:#00ff4a;stroke-width:.666665;stroke-linecap:round;stroke-linejoin:round;stroke-miterlimit:4;stroke-dasharray:3.99999;stroke-dashoffset:0;stroke-opacity:1;visibility:visible"/><path d="m488.475 232.994.433-12.676-11.438-1.952-.434 12.904" style="fill:none;stroke:#00ff4a;stroke-width:.666665;stroke-linecap:round;stroke-linejoin:round;stroke-miterlimit:4;stroke-dasharray:none;stroke-opacity:1;visibility:visible"/><path d="M476.115 231.65c4.424 5.332 14.092 2.458 14.092 2.458" style="fill:none;stroke:#00ff4a;stroke-width:1.33333;stroke-linecap:round;stroke-linejoin:round;stroke-miterlimit:4;stroke-dasharray:none;stroke-opacity:1;visibility:visible"/><path d="M430.372 220.798c.554.11.934.728 1.03 1.55M430.866 224.884c-.4.662-.956 1.046-1.484.942" style="fill:none;stroke:#00ff4a;stroke-width:.666665;stroke-linecap:round;stroke-linejoin:round;stroke-miterlimit:4;stroke-dasharray:none;stroke-opacity:1;visibility:visible"/><path d="M429.382 225.828c-.812-.16-1.25-1.416-.975-2.804.272-1.388 1.153-2.386 1.965-2.224" style="fill:none;stroke:#00ff4a;stroke-width:.999997;stroke-linecap:round;stroke-linejoin:round;stroke-miterlimit:4;stroke-dasharray:none;stroke-opacity:1;visibility:visible"/><path d="M644.557 261.462s-12.16 3.044-18.181-2.51" style="fill:none;stroke:#00ff4a;stroke-width:1.33333;stroke-linecap:round;stroke-linejoin:round;stroke-miterlimit:4;stroke-dasharray:none;stroke-opacity:1;visibility:visible"/><path d="M476.753 231.252s10.6 1.04 13.454 2.517M627.205 259.053s13.639.993 15.259 2.441M473.379 420.943l-2.243.793M473.443 412.598l-.267 8.03M473.593 421.026l7.642 3.004M608.04 475.295l-2.927 1.013M609.074 465.343l-1.033 9.952M608.04 475.295l11.946 4.155M631.268 243.798l-1.395 15.392M479.236 218.642l-.336 12.759" style="fill:none;stroke:#00ff4a;stroke-width:.666665;stroke-linecap:round;stroke-linejoin:round;stroke-miterlimit:4;stroke-dasharray:none;stroke-opacity:1;visibility:visible"/><path d="m609.074 465.343-3.894-4.031M627.156 258.529l-2.043 1.917" style="fill:none;stroke:#00ff4a;stroke-width:.666665;stroke-linecap:round;stroke-linejoin:round;stroke-miterlimit:4;stroke-dasharray:13.3333,3.99999;stroke-dashoffset:0;stroke-opacity:1;visibility:visible"/><path d="m631.181 472.556-4.736-5.64" style="fill:none;stroke:#00ff4a;stroke-width:1.33333;stroke-linecap:round;stroke-linejoin:round;stroke-miterlimit:4;stroke-dasharray:none;stroke-opacity:1;visibility:visible"/><path d="m423.072 417.26 4.188-6.722" style="fill:none;stroke:#00ff4a;stroke-width:.666665;stroke-linecap:round;stroke-linejoin:round;stroke-miterlimit:4;stroke-dasharray:none;stroke-opacity:1;visibility:visible"/><path d="m470.039 410.723.195-3.321" style="fill:none;stroke:#00ff4a;stroke-width:1.33333;stroke-linecap:round;stroke-linejoin:round;stroke-miterlimit:4;stroke-dasharray:none;stroke-opacity:1;visibility:visible"/><path d="m626.445 466.916 4.736 5.64M423.072 417.26l-3.254-.866M473.176 420.628l-1.737-9.258M430.092 411.28l-7.02 5.98" style="fill:none;stroke:#00ff4a;stroke-width:.666665;stroke-linecap:round;stroke-linejoin:round;stroke-miterlimit:4;stroke-dasharray:none;stroke-opacity:1;visibility:visible"/><path d="m643.768 261.998 4.346.236" style="fill:none;stroke:#00ff4a;stroke-width:1.33333;stroke-linecap:round;stroke-linejoin:round;stroke-miterlimit:4;stroke-dasharray:none;stroke-opacity:1;visibility:visible"/><path d="m643.768 261.998 1.008 2.025" style="fill:none;stroke:#00ff4a;stroke-width:.666665;stroke-linecap:round;stroke-linejoin:round;stroke-miterlimit:4;stroke-dasharray:none;stroke-opacity:1;visibility:visible"/><path d="m476.753 231.252-16.301-1.455M424.235 213.933l4.92-2.616" style="fill:none;stroke:#00ff4a;stroke-width:1.33333;stroke-linecap:round;stroke-linejoin:round;stroke-miterlimit:4;stroke-dasharray:none;stroke-opacity:1;visibility:visible"/><path d="m431.612 210.92-7.377 3.013M481.235 424.03l.83-3.607M605.73 463.988l-.04 5.694M631.268 243.798l-5.424-10.436" style="fill:none;stroke:#00ff4a;stroke-width:.666665;stroke-linecap:round;stroke-linejoin:round;stroke-miterlimit:4;stroke-dasharray:none;stroke-opacity:1;visibility:visible"/><path d="m482.489 415.651-.233 3.047M605.73 463.988l.151 3.968" style="fill:none;stroke:#00ff4a;stroke-width:.666665;stroke-linecap:round;stroke-linejoin:round;stroke-miterlimit:4;stroke-dasharray:3.99999;stroke-dashoffset:0;stroke-opacity:1;visibility:visible"/><path d="m490.207 234.108-1.306-5.4M644.557 261.462l-17.564-8.64" style="fill:none;stroke:#00ff4a;stroke-width:.666665;stroke-linecap:round;stroke-linejoin:round;stroke-miterlimit:4;stroke-dasharray:none;stroke-opacity:1;visibility:visible"/><path d="m490.207 234.108-1.306-3.663M644.557 261.462l-17.712-6.929" style="fill:none;stroke:#00ff4a;stroke-width:.666665;stroke-linecap:round;stroke-linejoin:round;stroke-miterlimit:4;stroke-dasharray:3.99999;stroke-dashoffset:0;stroke-opacity:1;visibility:visible"/><path d="m479.236 218.642 9.239 14.352M626.376 258.952l16.088 2.542M482.065 420.423l-.83 3.607M605.18 461.312l3.894 4.031M620.966 469.162l-.98 10.288M625.844 233.362l5.424 10.436M627.205 259.053l2.668.137M477.036 231.27l2.2-12.628" style="fill:none;stroke:#00ff4a;stroke-width:.666665;stroke-linecap:round;stroke-linejoin:round;stroke-miterlimit:4;stroke-dasharray:none;stroke-opacity:1;visibility:visible"/><path d="m223.062 428.72-7.028 18.202" style="fill:none;stroke:red;stroke-width:1.33333;stroke-linecap:round;stroke-linejoin:round;stroke-miterlimit:4;stroke-dasharray:none;stroke-opacity:1;visibility:visible" visibility="hidden"/><path d="m228.893 433.556 1.478 16.727M228.763 435.842l-9.64 12.483" style="fill:none;stroke:red;stroke-width:.666665;stroke-linecap:round;stroke-linejoin:round;stroke-miterlimit:4;stroke-dasharray:none;stroke-opacity:1;visibility:visible" visibility="hidden"/><path d="m214.03 344.434-.887-2.289M215.7 345.372l-3.81-4.034M215.079 297.01l-6.764-2.323M208.453 291.274l.972 2.001M212.134 323.42l3.529-9.9M217.763 326.883l-3.353-14.17M208.757 274.065l1.741-12.989M213.153 268.163l.227-9.081" style="fill:none;stroke:red;stroke-width:.333333;stroke-linecap:round;stroke-linejoin:round;stroke-miterlimit:4;stroke-dasharray:none;stroke-opacity:1;visibility:visible" visibility="hidden"/><path d="m408.166 230.685-8.194 3.095" style="fill:none;stroke:red;stroke-width:1.33333;stroke-linecap:round;stroke-linejoin:round;stroke-miterlimit:4;stroke-dasharray:none;stroke-opacity:1;visibility:visible" visibility="hidden"/><path d="m415.523 417.122 11.737-4.524" style="fill:none;stroke:#00ff4a;stroke-width:1.33333;stroke-linecap:round;stroke-linejoin:round;stroke-miterlimit:4;stroke-dasharray:none;stroke-opacity:1;visibility:visible"/><path d="m415.467 422.012 7.241 11.76M490.207 234.108l-5.706-8.443M488.901 228.708l-4.4-3.043M631.268 243.798l6.516 8.022M643.768 261.998l-5.984-10.178M631.181 472.556l-17.091-.53M626.445 466.916l-12.355 5.11M416.34 223.842l7.566 10.406" style="fill:none;stroke:#00ff4a;stroke-width:.666665;stroke-linecap:round;stroke-linejoin:round;stroke-miterlimit:4;stroke-dasharray:none;stroke-opacity:1;visibility:visible"/><path d="m482.065 420.423 2.491-6.643" style="fill:none;stroke:#00ff4a;stroke-width:.666665;stroke-linecap:round;stroke-linejoin:round;stroke-miterlimit:4;stroke-dasharray:13.3333,3.99999;stroke-dashoffset:0;stroke-opacity:1;visibility:visible"/><path d="m470.039 410.723 3.404 1.875" style="fill:none;stroke:#00ff4a;stroke-width:.666665;stroke-linecap:round;stroke-linejoin:round;stroke-miterlimit:4;stroke-dasharray:none;stroke-opacity:1;visibility:visible"/></svg>