<svg xmlns="http://www.w3.org/2000/svg" baseProfile="full" height="1122.52" preserveAspectRatio="xMinYMin meet" style="width:602px;height:832px" width="793.701" xml:space="preserve"><path d="M76.692 725.41c.213 1.812.32 3.52 1.172 4.907 1.174 1.919 3.841 2.877 6.508 3.839 69.333 24.213 138.238 49.924 206.825 76.483 4.48 1.281 11.093.961 11.948-3.519M240.949 664.37a102.605 102.605 0 0 0-24.843 3.974c-40.428 14.293-80.213 30.613-119.256 48.533-3.306 1.599-8.41 3.203-10.225 6.404M455.572 695.118l33.279-3.84M455.572 695.118c-15.148 1.386-30.401.962-45.44-1.494l-149.726-27.876" style="fill:none;stroke:red;stroke-width:.666665;stroke-linecap:round;stroke-linejoin:round;stroke-miterlimit:4;stroke-dasharray:none;stroke-opacity:1;visibility:visible"/><path d="m81.278 752.342 1.175 5.228c.107.212.21.426.32.639 1.599 2.24 4.587 3.091 6.825 4.48 68.694 25.708 136.748 53.014 204.373 81.174 4.482 1.495 10.239-.318 11.094-4.906l-1.92-30.932c-.427-1.495-1.388-2.56-2.775-3.202-68.477-26.025-137.384-51.095-206.717-74.669-.908-.552-10.599-2.369-6.416-7.79M465.786 689.932l-13.308 1.505c-12.692 1.175-25.492.855-38.08-1.172L262.29 662.424" style="fill:none;stroke:red;stroke-width:1.33333;stroke-linecap:round;stroke-linejoin:round;stroke-miterlimit:4;stroke-dasharray:none;stroke-opacity:1;visibility:visible"/><path d="M241.289 661.465a130.154 130.154 0 0 0-30.944 4.907c-41.068 14.29-81.495 30.505-121.175 48.53-5.013 2.88-12.798 5.548-12.478 11.415l1.812 12.585M115.197 737.517c33.388-16.64 67.841-31.252 102.614-44.585a94.914 94.914 0 0 1 7.714-2.079M244.6 688.564a93.6 93.6 0 0 1 15.022.953l151.149 30.505c14.505 2.454 29.333 2.88 44.052 1.495l32.747-4.055c1.706-.212 3.415-1.174 3.733-2.772l.853-24.105c-.32-2.667-4.052-2.988-6.719-2.881l-14.502 1.644" style="fill:none;stroke:red;stroke-width:1.33333;stroke-linecap:round;stroke-linejoin:round;stroke-miterlimit:4;stroke-dasharray:none;stroke-opacity:1;visibility:visible"/><path d="M166.932 685.366c.213-.106.533-.213.533-.424 0-.216-.213-.324-.32-.324-.427-.104-.747-.104-1.175-.104-.426 0-.85.104-1.172.212-.213.107-.533.216-.64.427 0 .213.214.32.427.427.32 0 .745.106 1.068 0 .424 0 .852-.107 1.279-.214" style="fill:none;stroke:red;stroke-width:.666665;stroke-linecap:round;stroke-linejoin:round;stroke-miterlimit:4;stroke-dasharray:none;stroke-opacity:1;visibility:visible"/><path d="m71.158 741.269.862 4.491c.088.522.433 1.04.866 1.3l3.628 1.38.434.086c.257 0 .344-.345.344-.69l-.778-4.579c-.173-.431-.344-.863-.692-1.124l-.518-.17-3.542-1.386c-.432-.084-.604.26-.604.693" style="fill:none;stroke:red;stroke-width:.999997;stroke-linecap:round;stroke-linejoin:round;stroke-miterlimit:4;stroke-dasharray:none;stroke-opacity:1;visibility:visible"/><path d="M78.504 738.796c-.32-.64-.64-1.388-.64-1.388 0 .109.32.854.64 1.388.456.609.081.297.854 1.064v.214-.106h-.106s.106 0 .106.106c.107.11.107.11.107.214l1.919 10.88v.428a1.285 1.285 0 0 1-.534.533c-.213 0-.32.107-.532.107-.213 0-.533 0-.746-.107-2.667-1.069-5.334-2.029-8-3.093-.32-.214-.642-.428-.748-.852l-1.812-10.244v-.212c-.107-.638.317-1.066.852-1.386 1.708-.64 3.52-1.492 5.225-2.241.961-.319 2.031-.319 2.667.323" style="fill:none;stroke:red;stroke-width:1.33333;stroke-linecap:round;stroke-linejoin:round;stroke-miterlimit:4;stroke-dasharray:none;stroke-opacity:1;visibility:visible"/><path d="m77.626 740.973 1.447 9.15M69.997 737.616l7.321 2.44M469.972 690.864c.533.166.872.418.872.702 0 .506-1.06.912-2.366.912-1.308 0-2.368-.406-2.368-.912 0-.218.2-.418.537-.574M78.504 738.902l-1.812-13.492M470.935 689.348l17.916 1.93" style="fill:none;stroke:red;stroke-width:.666665;stroke-linecap:round;stroke-linejoin:round;stroke-miterlimit:4;stroke-dasharray:none;stroke-opacity:1;visibility:visible"/><path d="m79.073 750.123 2.205 2.219M470.935 689.348l-5.149.584M465.786 689.932l5.149-.584" style="fill:none;stroke:red;stroke-width:1.33333;stroke-linecap:round;stroke-linejoin:round;stroke-miterlimit:4;stroke-dasharray:none;stroke-opacity:1;visibility:visible"/><path d="m78.504 738.902-7.346 2.367" style="fill:none;stroke:red;stroke-width:.999997;stroke-linecap:round;stroke-linejoin:round;stroke-miterlimit:4;stroke-dasharray:none;stroke-opacity:1;visibility:visible"/><path d="m81.278 752.342-2.205-2.219" style="fill:none;stroke:red;stroke-width:.666665;stroke-linecap:round;stroke-linejoin:round;stroke-miterlimit:4;stroke-dasharray:none;stroke-opacity:1;visibility:visible"/><path d="M185.562 800.337c0 .193 7.404 2.398 20.321 7.581 31.002 12.44 85.752 34.856 88.238 35.945 3.524 1.542 7.589.018 9.216-1.362 0-.001.229 43.809.888 56.359.66 12.553 11.514 74.596 12.395 78.119l-2.81.83-11.627-8.536-.958-3.734-84.575-62.132-2.359 1.014-9.921-6.082s-8.917-31.846-12.44-54.302a2234.815 2234.815 0 0 1-6.369-43.7M184.957 740.261c6.328 2.448 21.228 10.347 29.8 14.839 8.572 4.489 84.958 44 87 45.223 2.04 1.224 4.333 1.78 4.333 1.78l-1.667 18.774s-.778-10.267-1.188-12.103c-.41-1.836-.764-3.388-4.03-4.407-3.265-1.02-114.247-42.254-114.247-42.254l-.001-21.852" style="fill:none;fill-opacity:1;fill-rule:nonzero;stroke:#00ff4a;stroke-width:1.33333;visibility:visible" visibility="hidden"/><path d="m583.403 701.306-1.326 16.128-15.253 15.468c-22.29 18.668-51.624 25.708-80.214 30.402" style="fill:none;stroke:#00ff4a;stroke-width:1.33333;stroke-linecap:round;stroke-linejoin:round;stroke-miterlimit:4;stroke-dasharray:none;stroke-opacity:1;visibility:visible" visibility="hidden"/><path d="m415.466 755.142 71.68-9.601c28.69-4.481 58.13-11.093 80.852-29.227" style="fill:none;stroke:#00ff4a;stroke-width:.666665;stroke-linecap:round;stroke-linejoin:round;stroke-miterlimit:4;stroke-dasharray:none;stroke-opacity:1;visibility:visible" visibility="hidden"/><path d="m366.371 766.214 3.093-1.708c13.762-6.721 29.04-10.486 44.079-12.833l50.772-6.693M583.403 701.306l-6.233-1.256-15.573 14.718c-14.932 11.626-32.506 19.054-51.413 22.934l-.552.12-38.672 6.102M465.882 744.725l-1.68.263M360.32 795.418l15.89-9.065c12.268-6.295 25.709-10.135 39.362-12.268" style="fill:none;stroke:#00ff4a;stroke-width:1.33333;stroke-linecap:round;stroke-linejoin:round;stroke-miterlimit:4;stroke-dasharray:none;stroke-opacity:1;visibility:visible" visibility="hidden"/><path d="M583.252 701.381 568 716.313M375.892 767.09l-16.106 8.748" style="fill:none;stroke:#00ff4a;stroke-width:.666665;stroke-linecap:round;stroke-linejoin:round;stroke-miterlimit:4;stroke-dasharray:none;stroke-opacity:1;visibility:visible" visibility="hidden"/><path d="m486.61 763.304-71.037 10.78" style="fill:none;stroke:#00ff4a;stroke-width:1.33333;stroke-linecap:round;stroke-linejoin:round;stroke-miterlimit:4;stroke-dasharray:none;stroke-opacity:1;visibility:visible" visibility="hidden"/><path d="M197.013 898.074c5.546 2.666 10.88 5.76 15.786 9.281l98.774 73.492c15.68 9.601 36.8 7.787 51.627-3.093l2.3-1.858M356.266 774.233l12.904-7.088M415.466 755.142c-13.654 2.134-27.202 5.76-39.574 11.948" style="fill:none;stroke:#00ff4a;stroke-width:.666665;stroke-linecap:round;stroke-linejoin:round;stroke-miterlimit:4;stroke-dasharray:none;stroke-opacity:1;visibility:visible" visibility="hidden"/><path d="m367.191 990.483-3.781 3.216c-14.4 10.88-35.304 12.696-50.56 3.093l-98.132-74.77c-4.907-3.627-10.24-6.722-15.68-9.495l-.213-.106c-.215-.107-.321-.321-.428-.534v-.213l-1.705-13.12c.106-.428.213-.855.533-1.065l3.732-2.56c.32-.214.748-.214 1.173-.107l1.387.637" style="fill:none;stroke:#00ff4a;stroke-width:1.33333;stroke-linecap:round;stroke-linejoin:round;stroke-miterlimit:4;stroke-dasharray:none;stroke-opacity:1;visibility:visible" visibility="hidden"/><path d="m362.986 973.432 2.026 1.282c.531.316.958.958 1.064 1.598l.38 14.508" style="fill:none;stroke:#00ff4a;stroke-width:.666665;stroke-linecap:round;stroke-linejoin:round;stroke-miterlimit:4;stroke-dasharray:none;stroke-opacity:1;visibility:visible" visibility="hidden"/><path d="M371.41 962.872 357.118 974.5c-11.735 7.466-27.765 8.891-40.139 2.6" style="fill:none;stroke:#00ff4a;stroke-width:1.33333;stroke-linecap:round;stroke-linejoin:round;stroke-miterlimit:4;stroke-dasharray:none;stroke-opacity:1;visibility:visible" visibility="hidden"/><path d="m416 947.61 64.744-13.01M415.999 947.61c-12.8 2.88-25.068 8.11-35.628 16.11l-14.295 11.837M569.277 873.478v.544M480.744 934.6c27.946-6.614 55.573-18.242 74.028-40.322l14.505-20.044M301.226 965.54l-84.481-61.975" style="fill:none;stroke:#00ff4a;stroke-width:.666665;stroke-linecap:round;stroke-linejoin:round;stroke-miterlimit:4;stroke-dasharray:none;stroke-opacity:1;visibility:visible" visibility="hidden"/><path d="m367.191 990.483 13.287-11.29c10.346-7.999 22.612-13.333 35.414-16.425l64.213-13.121c27.946-6.825 55.785-18.667 73.599-41.172l14.401-21.23.105-.315.106-.215.961-12.693c0-.533-.32-.96-.745-1.175l-1.815-.533M371.41 962.872l2.986-2.452 4.694-3.308" style="fill:none;stroke:#00ff4a;stroke-width:1.33333;stroke-linecap:round;stroke-linejoin:round;stroke-miterlimit:4;stroke-dasharray:none;stroke-opacity:1;visibility:visible" visibility="hidden"/><path d="m557.65 878.927-9.707 13.65-5.974 6.617M525.499 912.222c-12.467 8.681-27.535 12.8-42.41 16.518M463.09 933.02l-49.12 9.801c-5.575 1.174-11.06 2.706-16.375 4.679" style="fill:none;stroke:#00ff4a;stroke-width:1.33333;stroke-linecap:round;stroke-linejoin:round;stroke-miterlimit:4;stroke-dasharray:none;stroke-opacity:1;visibility:visible" visibility="hidden"/><path d="m362.986 973.432 10.796-9.254-2.372-1.306" style="fill:none;stroke:#00ff4a;stroke-width:.666665;stroke-linecap:round;stroke-linejoin:round;stroke-miterlimit:4;stroke-dasharray:none;stroke-opacity:1;visibility:visible" visibility="hidden"/><path d="m204.371 898.34 9.92 6.08c-8.113-28.944-14.934-63.462-17.411-93.973M195.73 745.274l-.064 15.827" style="fill:none;stroke:#00ff4a;stroke-width:.666665;stroke-linecap:round;stroke-linejoin:round;stroke-miterlimit:4;stroke-dasharray:13.3333,3.99999;stroke-dashoffset:0;stroke-opacity:1;visibility:visible" visibility="hidden"/><path d="M185.96 805.03c2.746 29.808 10.34 65.213 18.413 93.31" style="fill:none;stroke:#00ff4a;stroke-width:1.33333;stroke-linecap:round;stroke-linejoin:round;stroke-miterlimit:4;stroke-dasharray:none;stroke-opacity:1;visibility:visible" visibility="hidden"/><path d="m217.17 903.142-2.88 1.278" style="fill:none;stroke:#00ff4a;stroke-width:.666665;stroke-linecap:round;stroke-linejoin:round;stroke-miterlimit:4;stroke-dasharray:none;stroke-opacity:1;visibility:visible" visibility="hidden"/><path d="M184.957 740.261v16.19" style="fill:none;stroke:#00ff4a;stroke-width:1.33333;stroke-linecap:round;stroke-linejoin:round;stroke-miterlimit:4;stroke-dasharray:none;stroke-opacity:1;visibility:visible" visibility="hidden"/><path d="m302.183 969.274 11.628 8.533c-9.131-40.228-13.076-86.694-13.74-128.342M302.61 800.743l-.13 2.223" style="fill:none;stroke:#00ff4a;stroke-width:.666665;stroke-linecap:round;stroke-linejoin:round;stroke-miterlimit:4;stroke-dasharray:none;stroke-opacity:1;visibility:visible" visibility="hidden"/><path d="m289.762 798.04.156-3.59M287.882 846.885c.912 39.708 5.399 84.005 14.303 122.389" style="fill:none;stroke:#00ff4a;stroke-width:.666665;stroke-linecap:round;stroke-linejoin:round;stroke-miterlimit:4;stroke-dasharray:13.3333,3.99999;stroke-dashoffset:0;stroke-opacity:1;visibility:visible" visibility="hidden"/><path d="M316.62 976.98c-8.9-39.986-12.646-87.293-13.222-128.81M305.314 809.926l.385-7.143" style="fill:none;stroke:#00ff4a;stroke-width:1.33333;stroke-linecap:round;stroke-linejoin:round;stroke-miterlimit:4;stroke-dasharray:none;stroke-opacity:1;visibility:visible" visibility="hidden"/><path d="m539.099 907.033-10.027 7.234c12.29-53.576 14.71-109.152 10.765-164.193M313.811 977.808l2.81-.828" style="fill:none;stroke:#00ff4a;stroke-width:.666665;stroke-linecap:round;stroke-linejoin:round;stroke-miterlimit:4;stroke-dasharray:none;stroke-opacity:1;visibility:visible" visibility="hidden"/><path d="M525.857 913.315c11.626-53.12 14.5-107.56 10.659-161.747" style="fill:none;stroke:#00ff4a;stroke-width:1.33333;stroke-linecap:round;stroke-linejoin:round;stroke-miterlimit:4;stroke-dasharray:none;stroke-opacity:1;visibility:visible" visibility="hidden"/><path d="m529.416 914.553-3.559-1.238" style="fill:none;stroke:#00ff4a;stroke-width:.666665;stroke-linecap:round;stroke-linejoin:round;stroke-miterlimit:4;stroke-dasharray:none;stroke-opacity:1;visibility:visible" visibility="hidden"/><path d="M539.427 906.998c12.158-53.118 15.022-107.855 11.503-162.258" style="fill:none;stroke:#00ff4a;stroke-width:1.33333;stroke-linecap:round;stroke-linejoin:round;stroke-miterlimit:4;stroke-dasharray:none;stroke-opacity:1;visibility:visible" visibility="hidden"/><path d="m565.97 875.087-5.335 7.68c6.295-23.997 11.308-48.425 13.334-73.169 2.136-27.414.962-54.937-1.172-82.456" style="fill:none;stroke:#00ff4a;stroke-width:.666665;stroke-linecap:round;stroke-linejoin:round;stroke-miterlimit:4;stroke-dasharray:none;stroke-opacity:1;visibility:visible" visibility="hidden"/><path d="M557.639 882.126c6.078-23.89 11.09-48.101 13.01-72.639 2.135-26.342 1.068-52.907-1.065-79.251" style="fill:none;stroke:#00ff4a;stroke-width:1.33333;stroke-linecap:round;stroke-linejoin:round;stroke-miterlimit:4;stroke-dasharray:none;stroke-opacity:1;visibility:visible" visibility="hidden"/><path d="m560.636 882.766-2.997-.64" style="fill:none;stroke:#00ff4a;stroke-width:.666665;stroke-linecap:round;stroke-linejoin:round;stroke-miterlimit:4;stroke-dasharray:none;stroke-opacity:1;visibility:visible" visibility="hidden"/><path d="M566.1 874.793c6.177-23.76 11.287-47.733 13.31-72.238 2.24-26.88 1.173-53.975-.96-80.853" style="fill:none;stroke:#00ff4a;stroke-width:1.33333;stroke-linecap:round;stroke-linejoin:round;stroke-miterlimit:4;stroke-dasharray:none;stroke-opacity:1;visibility:visible" visibility="hidden"/><path d="M470.504 766.29c1.816 56.533 1.281 113.17-4.372 169.382l15.893-3.092" style="fill:none;stroke:#00ff4a;stroke-width:.666665;stroke-linecap:round;stroke-linejoin:round;stroke-miterlimit:4;stroke-dasharray:none;stroke-opacity:1;visibility:visible" visibility="hidden"/><path d="M468.052 766.717c1.815 55.573 1.281 111.357-4.159 166.715" style="fill:none;stroke:#00ff4a;stroke-width:1.33333;stroke-linecap:round;stroke-linejoin:round;stroke-miterlimit:4;stroke-dasharray:none;stroke-opacity:1;visibility:visible" visibility="hidden"/><path d="m463.892 933.432 2.24 2.24" style="fill:none;stroke:#00ff4a;stroke-width:.666665;stroke-linecap:round;stroke-linejoin:round;stroke-miterlimit:4;stroke-dasharray:none;stroke-opacity:1;visibility:visible" visibility="hidden"/><path d="M482.772 932.154v-.32c6.399-55.894 7.468-112.21 5.972-168.425" style="fill:none;stroke:#00ff4a;stroke-width:1.33333;stroke-linecap:round;stroke-linejoin:round;stroke-miterlimit:4;stroke-dasharray:none;stroke-opacity:1;visibility:visible" visibility="hidden"/><path d="m395.836 951.672-13.653 7.788c5.973-58.027 3.307-116.478-3.732-174.29" style="fill:none;stroke:#00ff4a;stroke-width:.666665;stroke-linecap:round;stroke-linejoin:round;stroke-miterlimit:4;stroke-dasharray:none;stroke-opacity:1;visibility:visible" visibility="hidden"/><path d="M375.251 786.877c6.932 56.533 9.492 113.702 3.839 170.45" style="fill:none;stroke:#00ff4a;stroke-width:1.33333;stroke-linecap:round;stroke-linejoin:round;stroke-miterlimit:4;stroke-dasharray:none;stroke-opacity:1;visibility:visible" visibility="hidden"/><path d="M379.09 957.326c0 .213 3.093 2.133 3.093 2.133" style="fill:none;stroke:#00ff4a;stroke-width:.666665;stroke-linecap:round;stroke-linejoin:round;stroke-miterlimit:4;stroke-dasharray:none;stroke-opacity:1;visibility:visible" visibility="hidden"/><path d="M396.264 951.46v-.319c6.462-56.864 4.3-114.252-2.202-171.124" style="fill:none;stroke:#00ff4a;stroke-width:1.33333;stroke-linecap:round;stroke-linejoin:round;stroke-miterlimit:4;stroke-dasharray:none;stroke-opacity:1;visibility:visible" visibility="hidden"/><path d="m359.892 795.623.214-.32c.104-.213.104-.428.213-.64l-.639-17.921c-.108-.638-.428-1.278-1.069-1.596l-2.345-.806M174.932 720.306c5.76 1.812 11.414 3.946 16.854 6.612M191.786 726.918l106.987 53.336c18.346 7.47 39.89 6.188 57.706-2.453M356.478 777.8l2.152-1.146" style="fill:none;stroke:#00ff4a;stroke-width:.666665;stroke-linecap:round;stroke-linejoin:round;stroke-miterlimit:4;stroke-dasharray:none;stroke-opacity:1;visibility:visible" visibility="hidden"/><path d="M195.052 723.009a135.446 135.446 0 0 0-14.787-5.47c-.213.001-.427.001-.64.11l-4.267 1.811c-.426.32-.746.746-.746 1.28l1.918 15.788c.107.426.322.746.748.957 5.76 1.923 11.414 4.163 16.855 6.936l106.237 55.361c17.708 8.108 39.041 6.401 56.43-2.452l3.092-1.707" style="fill:none;stroke:#00ff4a;stroke-width:1.33333;stroke-linecap:round;stroke-linejoin:round;stroke-miterlimit:4;stroke-dasharray:none;stroke-opacity:1;visibility:visible" visibility="hidden"/><path d="m365.866 766.504-14.896 8.046-.894.38c-14.08 5.866-30.183 6.826-44.691 1.92l.32.214-105.635-51.716" style="fill:none;stroke:#00ff4a;stroke-width:1.33333;stroke-linecap:round;stroke-linejoin:round;stroke-miterlimit:4;stroke-dasharray:none;stroke-opacity:1;visibility:visible" visibility="hidden"/><path d="m295.366 843.118-1.863-30.997M492.159 689.678c-.534 1.172-2.027 1.386-3.307 1.6M367.74 782.5c-.354 1.083-1.15 1.797-1.784 1.59-.63-.206-.854-1.253-.502-2.337.354-1.083 1.153-1.793 1.784-1.588.632.205.857 1.253.502 2.335M293.383 789.747c.378 1.014.235 2-.321 2.208-.557.208-1.315-.445-1.692-1.458-.377-1.01-.235-1.999.323-2.208.554-.209 1.313.445 1.69 1.458M187.677 735.634c.377 1.014.235 2.003-.321 2.211-.558.208-1.316-.445-1.692-1.459-.378-1.012-.235-2 .322-2.208.555-.208 1.314.446 1.69 1.456h.001M199.262 726.178c.422.194.683.462.683.758 0 .592-1.043 1.073-2.328 1.073s-2.328-.481-2.328-1.073c0-.296.26-.564.681-.758M207.88 907.72c.428.846.466 1.687.082 1.88-.381.198-1.039-.33-1.468-1.173-.43-.845-.467-1.688-.087-1.881.384-.196 1.043.33 1.473 1.174M306.113 980.766c.506.932.557 1.88.117 2.12-.437.24-1.205-.318-1.713-1.248-.507-.932-.56-1.88-.12-2.12.441-.242 1.209.318 1.717 1.248h-.001M373.022 979.131c-.435 1.003-1.222 1.63-1.755 1.399-.535-.232-.615-1.232-.18-2.238.436-1.002 1.221-1.63 1.755-1.398.534.229.614 1.232.18 2.236v.001M470.007 745.566c.513.167.838.415.838.694 0 .504-1.06.91-2.365.91-1.31 0-2.37-.406-2.37-.91 0-.251.266-.48.694-.644M368.85 767.145h.106l-2.24-.748M284.906 803.454c-.533.213-.961.427-1.601.427-.532.106-1.066.106-1.599-.107-.321-.107-.641-.32-.748-.747 0-.32.32-.64.641-.745.427-.322.961-.427 1.492-.532.64-.001 1.175-.001 1.709.209.32.107.64.323.64.641.105.321-.214.641-.534.854" style="fill:none;stroke:#00ff4a;stroke-width:.666665;stroke-linecap:round;stroke-linejoin:round;stroke-miterlimit:4;stroke-dasharray:none;stroke-opacity:1;visibility:visible" visibility="hidden"/><path d="m465.882 744.725 5.078-.801M470.96 743.924l-5.078.801" style="fill:none;stroke:#00ff4a;stroke-width:1.33333;stroke-linecap:round;stroke-linejoin:round;stroke-miterlimit:4;stroke-dasharray:none;stroke-opacity:1;visibility:visible" visibility="hidden"/><path d="m358.63 776.654 1.156-.816M203.517 895.459l-6.504 2.615" style="fill:none;stroke:#00ff4a;stroke-width:.666665;stroke-linecap:round;stroke-linejoin:round;stroke-miterlimit:4;stroke-dasharray:none;stroke-opacity:1;visibility:visible" visibility="hidden"/><path d="m197.013 898.074 6.504-2.615" style="fill:none;stroke:#00ff4a;stroke-width:1.33333;stroke-linecap:round;stroke-linejoin:round;stroke-miterlimit:4;stroke-dasharray:none;stroke-opacity:1;visibility:visible" visibility="hidden"/><path d="m302.183 969.274-.957-3.734" style="fill:none;stroke:#00ff4a;stroke-width:.666665;stroke-linecap:round;stroke-linejoin:round;stroke-miterlimit:4;stroke-dasharray:none;stroke-opacity:1;visibility:visible" visibility="hidden"/><path d="m560.636 882.766 6.081-10.452M482.025 932.58l1.064-3.84" style="fill:none;stroke:#00ff4a;stroke-width:1.33333;stroke-linecap:round;stroke-linejoin:round;stroke-miterlimit:4;stroke-dasharray:none;stroke-opacity:1;visibility:visible" visibility="hidden"/><path d="m184.957 756.451 10.773-11.177" style="fill:none;stroke:#00ff4a;stroke-width:.666665;stroke-linecap:round;stroke-linejoin:round;stroke-miterlimit:4;stroke-dasharray:13.3333,3.99999;stroke-dashoffset:0;stroke-opacity:1;visibility:visible" visibility="hidden"/><path d="m195.73 745.274-10.773 11.177" style="fill:none;stroke:#00ff4a;stroke-width:1.33333;stroke-linecap:round;stroke-linejoin:round;stroke-miterlimit:4;stroke-dasharray:none;stroke-opacity:1;visibility:visible" visibility="hidden"/><path d="m295.366 843.118 4.705 6.347M305.314 809.926l-2.704-9.183M305.699 802.783l-3.219.183" style="fill:none;stroke:#00ff4a;stroke-width:.666665;stroke-linecap:round;stroke-linejoin:round;stroke-miterlimit:4;stroke-dasharray:none;stroke-opacity:1;visibility:visible" visibility="hidden"/><path d="m302.61 800.743-12.848-2.703M302.48 802.966l-12.562-8.516M295.366 843.118l-7.484 3.767" style="fill:none;stroke:#00ff4a;stroke-width:.666665;stroke-linecap:round;stroke-linejoin:round;stroke-miterlimit:4;stroke-dasharray:13.3333,3.99999;stroke-dashoffset:0;stroke-opacity:1;visibility:visible" visibility="hidden"/><path d="m295.366 843.118 8.032 5.052M302.61 800.743l2.704 9.183M302.48 802.966l3.219-.183" style="fill:none;stroke:#00ff4a;stroke-width:1.33333;stroke-linecap:round;stroke-linejoin:round;stroke-miterlimit:4;stroke-dasharray:none;stroke-opacity:1;visibility:visible" visibility="hidden"/><path d="m566.717 872.314-6.081 10.452M359.786 775.838l-1.156.816" style="fill:none;stroke:#00ff4a;stroke-width:.666665;stroke-linecap:round;stroke-linejoin:round;stroke-miterlimit:4;stroke-dasharray:none;stroke-opacity:1;visibility:visible" visibility="hidden"/><path d="m191.786 726.918 3.266-3.909M195.052 723.009l5.018 2.339" style="fill:none;stroke:#00ff4a;stroke-width:1.33333;stroke-linecap:round;stroke-linejoin:round;stroke-miterlimit:4;stroke-dasharray:none;stroke-opacity:1;visibility:visible" visibility="hidden"/><path d="m300.071 849.465-4.705-6.347M195.052 723.009l4.21 3.169" style="fill:none;stroke:#00ff4a;stroke-width:.666665;stroke-linecap:round;stroke-linejoin:round;stroke-miterlimit:4;stroke-dasharray:none;stroke-opacity:1;visibility:visible" visibility="hidden"/><path d="m79.073 750.123-1.317-15.699" style="fill:none;stroke:red;stroke-width:1.33333;stroke-linecap:round;stroke-linejoin:round;stroke-miterlimit:4;stroke-dasharray:none;stroke-opacity:1;visibility:visible"/><path d="m203.517 895.459 10.773 8.961M302.61 800.743l-9.227-10.996" style="fill:none;stroke:#00ff4a;stroke-width:.666665;stroke-linecap:round;stroke-linejoin:round;stroke-miterlimit:4;stroke-dasharray:none;stroke-opacity:1;visibility:visible" visibility="hidden"/></svg>