<svg xmlns="http://www.w3.org/2000/svg" baseProfile="full" height="1122.52" preserveAspectRatio="xMinYMin meet" style="width:602px;height:832px" width="793.701" xml:space="preserve"><path d="M661.172 399.082c-.572-.16-.81-1.09-.534-2.079.276-.988.966-1.66 1.536-1.5" style="fill:none;stroke:red;stroke-width:.999997;stroke-linecap:round;stroke-linejoin:round;stroke-miterlimit:4;stroke-dasharray:none;stroke-opacity:1;visibility:visible" visibility="hidden"/><path d="M662.244 395.555c.57.16.809 1.09.533 2.079-.276.988-.965 1.66-1.536 1.5" style="fill:none;stroke:red;stroke-width:.666665;stroke-linecap:round;stroke-linejoin:round;stroke-miterlimit:10;stroke-dasharray:none;stroke-opacity:1;visibility:visible" visibility="hidden"/><path d="m396.324 459.832 2.639 19.408 5.948 2.347s11.857-6.397 22.219-11.957c10.364-5.558 16.298-9.42 35.517-17.806 19.218-8.384 52.841-18.62 83.89-22.837 31.05-4.217 55.913-6.343 72.644-8.433 16.864-2.108 31.716-6.959 40.25-11.902l.154-16.277-3.089-1.287" style="fill:none;stroke:red;stroke-width:1.33333;stroke-linecap:round;stroke-linejoin:round;stroke-miterlimit:4;stroke-dasharray:none;stroke-opacity:1;visibility:visible" visibility="hidden"/><path d="m656.497 391.088 10.492-4.764" style="fill:none;stroke:red;stroke-width:.666665;stroke-linecap:round;stroke-linejoin:round;stroke-miterlimit:4;stroke-dasharray:none;stroke-opacity:1;visibility:visible" visibility="hidden"/><path d="m659.586 406.664 7.208-3.604.019-1.617.057-4.892.118-10.226-2.314-.898-12.812 5.919" style="fill:none;stroke:red;stroke-width:1.33333;stroke-linecap:round;stroke-linejoin:round;stroke-miterlimit:4;stroke-dasharray:none;stroke-opacity:1;visibility:visible" visibility="hidden"/><path d="m396.325 459.83 6.035 2.285 2.552 19.47" style="fill:none;stroke:red;stroke-width:.666665;stroke-linecap:round;stroke-linejoin:round;stroke-miterlimit:4;stroke-dasharray:none;stroke-opacity:1;visibility:visible" visibility="hidden"/><path d="M402.359 462.118c15.972-8.178 42.725-22.526 63.808-30.703 19.776-7.67 53.157-16.441 76.281-19.381 23.128-2.94 52.87-6.068 64.657-7.198 21.337-2.042 35.905-5.11 52.481-12.46" style="fill:none;stroke:red;stroke-width:.666665;stroke-linecap:round;stroke-linejoin:round;stroke-miterlimit:4;stroke-dasharray:none;stroke-opacity:1;visibility:visible" visibility="hidden"/><path d="M396.307 459.47c4.49-2.3 10.341-5.351 16.17-8.351M416.65 449.076c13.86-7.072 29.926-15.056 43.466-20.309a272.977 272.977 0 0 1 16.73-5.836M481.119 421.776c17.931-5.329 39.254-10.354 55.278-12.39 5.784-.736 12.36-1.67 18.583-2.396M559.283 406.598a2555.036 2555.036 0 0 1 41.78-4.408c16.983-1.626 29.081-3.867 41.439-7.703M646.318 393.374c1.694-.578 3.79-1.378 5.544-2.028" style="fill:none;stroke:red;stroke-width:1.33333;stroke-linecap:round;stroke-linejoin:round;stroke-miterlimit:4;stroke-dasharray:none;stroke-opacity:1;visibility:visible" visibility="hidden"/><path d="M482.321 428.488c.806.494.927 1.752.274 2.812-.655 1.062-1.835 1.516-2.635 1.02M418.69 457.464c.894.302 1.297 1.5.9 2.68-.398 1.18-1.447 1.89-2.34 1.587M557.999 414.076c.291.896-.43 1.936-1.615 2.32-1.184.387-2.377-.029-2.667-.928M647.425 400.327c.727.473.807 1.633.18 2.59-.628.957-1.721 1.345-2.448.868" style="fill:none;stroke:red;stroke-width:.666665;stroke-linecap:round;stroke-linejoin:round;stroke-miterlimit:4;stroke-dasharray:none;stroke-opacity:1;visibility:visible" visibility="hidden"/><path d="M645.158 403.786c-.72-.472-.805-1.632-.177-2.588.625-.956 1.721-1.348 2.445-.87M553.719 415.468c-.295-.894.426-1.933 1.609-2.32 1.182-.385 2.38.03 2.672.928M479.959 432.32c-.806-.494-.927-1.753-.274-2.814.655-1.056 1.835-1.514 2.635-1.018M417.25 461.731c-.894-.3-1.298-1.5-.9-2.68.398-1.177 1.445-1.89 2.34-1.587M471.219 425.957l1.677 1.179 14.755-4.774" style="fill:none;stroke:red;stroke-width:.999997;stroke-linecap:round;stroke-linejoin:round;stroke-miterlimit:4;stroke-dasharray:none;stroke-opacity:1;visibility:visible" visibility="hidden"/><path d="m487.651 422.589-1.128-1.281M547.72 409.834l.79-1.24" style="fill:none;stroke:red;stroke-width:.666665;stroke-linecap:round;stroke-linejoin:round;stroke-miterlimit:10;stroke-dasharray:none;stroke-opacity:1;visibility:visible" visibility="hidden"/><path d="m563.788 406.9-.77 1.262-15.298 1.671" style="fill:none;stroke:red;stroke-width:.999997;stroke-linecap:round;stroke-linejoin:round;stroke-miterlimit:4;stroke-dasharray:none;stroke-opacity:1;visibility:visible" visibility="hidden"/><path d="m650.634 394.258-2.317-.819" style="fill:none;stroke:red;stroke-width:.666665;stroke-linecap:round;stroke-linejoin:round;stroke-miterlimit:10;stroke-dasharray:none;stroke-opacity:1;visibility:visible" visibility="hidden"/><path d="m638.296 396.918 1.762.81 10.576-3.47M423.1 449.822l-14.02 7.114-2.564-1.041" style="fill:none;stroke:red;stroke-width:.999997;stroke-linecap:round;stroke-linejoin:round;stroke-miterlimit:4;stroke-dasharray:none;stroke-opacity:1;visibility:visible" visibility="hidden"/><path d="m406.518 456.179 6.349-3.245M416.483 451.186l3.732-1.998 2.885.918" style="fill:none;stroke:red;stroke-width:.666665;stroke-linecap:round;stroke-linejoin:round;stroke-miterlimit:10;stroke-dasharray:none;stroke-opacity:1;visibility:visible" visibility="hidden"/><path d="m651.862 391.346 15.127-5.022" style="fill:none;stroke:red;stroke-width:.666665;stroke-linecap:round;stroke-linejoin:round;stroke-miterlimit:4;stroke-dasharray:none;stroke-opacity:1;visibility:visible" visibility="hidden"/><path d="M659.586 392.376v14.288" style="fill:none;stroke:red;stroke-width:1.33333;stroke-linecap:round;stroke-linejoin:round;stroke-miterlimit:4;stroke-dasharray:none;stroke-opacity:1;visibility:visible" visibility="hidden"/><path d="m412.867 452.934-10.508 9.184M656.497 391.088l3.089 1.288" style="fill:none;stroke:red;stroke-width:.666665;stroke-linecap:round;stroke-linejoin:round;stroke-miterlimit:4;stroke-dasharray:none;stroke-opacity:1;visibility:visible" visibility="hidden"/><path d="m416.483 451.186-4.006-.067M412.477 451.119l4.173-2.043M481.119 421.776l-4.273 1.155M476.846 422.931l4.273-1.155M559.283 406.598l-4.303.392M554.98 406.99l4.303-.392M646.318 393.374l-3.816 1.113M642.502 394.487l3.816-1.113" style="fill:none;stroke:red;stroke-width:1.33333;stroke-linecap:round;stroke-linejoin:round;stroke-miterlimit:4;stroke-dasharray:none;stroke-opacity:1;visibility:visible" visibility="hidden"/><path d="m479.959 432.32-8.74-6.363M547.72 409.834l16.068-2.934" style="fill:none;stroke:red;stroke-width:.999997;stroke-linecap:round;stroke-linejoin:round;stroke-miterlimit:4;stroke-dasharray:none;stroke-opacity:1;visibility:visible" visibility="hidden"/><path d="m662.174 395.503-13.857-2.064M416.483 451.186l-3.616 1.748M412.477 451.119l4.006.067" style="fill:none;stroke:red;stroke-width:.666665;stroke-linecap:round;stroke-linejoin:round;stroke-miterlimit:10;stroke-dasharray:none;stroke-opacity:1;visibility:visible" visibility="hidden"/><path d="m417.672 413.055-17.193 8.893-3.2-.829M416.477 414.487l3.317 10.937-13.641 7.494-2.561-.663-3.112-10.307" style="fill:none;stroke:#00ff4a;stroke-width:1.33333;stroke-linecap:round;stroke-linejoin:round;stroke-miterlimit:4;stroke-dasharray:none;stroke-opacity:1;visibility:visible" visibility="hidden"/><path d="m405.86 432.254-3.11-10.305" style="fill:none;stroke:#00ff4a;stroke-width:.666665;stroke-linecap:round;stroke-linejoin:round;stroke-miterlimit:10;stroke-dasharray:none;stroke-opacity:1;visibility:visible" visibility="hidden"/><path d="M417.671 413.056c-13.005-56.798-25.72-126.053-25.257-212.016l-2.88-1M371.738 201.794l-2.68.706c-.27 83.663 13.376 159.126 28.22 218.62" style="fill:none;stroke:#00ff4a;stroke-width:1.33333;stroke-linecap:round;stroke-linejoin:round;stroke-miterlimit:4;stroke-dasharray:none;stroke-opacity:1;visibility:visible" visibility="hidden"/><path d="M400.479 421.95c-14.844-59.493-28.524-133.801-28.253-217.464l-3.167-1.23M411.934 421.594c.805.27 1.168 1.35.809 2.412-.356 1.061-1.301 1.7-2.105 1.428" style="fill:none;stroke:#00ff4a;stroke-width:.666665;stroke-linecap:round;stroke-linejoin:round;stroke-miterlimit:4;stroke-dasharray:none;stroke-opacity:1;visibility:visible" visibility="hidden"/><path d="M410.639 425.434c-.804-.27-1.168-1.35-.81-2.412.359-1.06 1.301-1.7 2.107-1.428" style="fill:none;stroke:#00ff4a;stroke-width:.999997;stroke-linecap:round;stroke-linejoin:round;stroke-miterlimit:4;stroke-dasharray:none;stroke-opacity:1;visibility:visible" visibility="hidden"/><path d="m372.226 204.486 17.33-2.721" style="fill:none;stroke:#00ff4a;stroke-width:.666665;stroke-linecap:round;stroke-linejoin:round;stroke-miterlimit:4;stroke-dasharray:none;stroke-opacity:1;visibility:visible" visibility="hidden"/><path d="m388.556 190.81-3.445-1.197-13.176 2.236.037 10.497" style="fill:none;stroke:#00ff4a;stroke-width:1.33333;stroke-linecap:round;stroke-linejoin:round;stroke-miterlimit:4;stroke-dasharray:none;stroke-opacity:1;visibility:visible" visibility="hidden"/><path d="m388.556 190.81-14.368 2.452.16 10.372-2.09-.924M374.19 193.262l-2.254-.876" style="fill:none;stroke:#00ff4a;stroke-width:.666665;stroke-linecap:round;stroke-linejoin:round;stroke-miterlimit:4;stroke-dasharray:none;stroke-opacity:1;visibility:visible" visibility="hidden"/><path d="m388.446 200.982.11-10.172" style="fill:none;stroke:#00ff4a;stroke-width:1.33333;stroke-linecap:round;stroke-linejoin:round;stroke-miterlimit:4;stroke-dasharray:none;stroke-opacity:1;visibility:visible" visibility="hidden"/><path d="M382.159 195.064c.805.27 1.167 1.35.81 2.412-.359 1.061-1.303 1.7-2.107 1.428" style="fill:none;stroke:#00ff4a;stroke-width:.666665;stroke-linecap:round;stroke-linejoin:round;stroke-miterlimit:4;stroke-dasharray:none;stroke-opacity:1;visibility:visible" visibility="hidden"/><path d="M380.863 198.904c-.803-.27-1.167-1.351-.81-2.412.361-1.06 1.301-1.7 2.107-1.428" style="fill:none;stroke:#00ff4a;stroke-width:.999997;stroke-linecap:round;stroke-linejoin:round;stroke-miterlimit:4;stroke-dasharray:none;stroke-opacity:1;visibility:visible" visibility="hidden"/><path d="m417.671 413.056-1.194 1.431" style="fill:none;stroke:#00ff4a;stroke-width:1.33333;stroke-linecap:round;stroke-linejoin:round;stroke-miterlimit:4;stroke-dasharray:none;stroke-opacity:1;visibility:visible" visibility="hidden"/><path d="m400.48 421.948 5.38 10.306M400.479 421.95l2.272-.001" style="fill:none;stroke:#00ff4a;stroke-width:.666665;stroke-linecap:round;stroke-linejoin:round;stroke-miterlimit:10;stroke-dasharray:none;stroke-opacity:1;visibility:visible" visibility="hidden"/><path d="m380.863 198.904 8.671 1.136" style="fill:none;stroke:#00ff4a;stroke-width:1.33333;stroke-linecap:round;stroke-linejoin:round;stroke-miterlimit:4;stroke-dasharray:none;stroke-opacity:1;visibility:visible" visibility="hidden"/><path d="m374.19 193.262-5.131 9.994M382.159 195.064l-7.969-1.802M382.16 195.064l-10.224-2.678" style="fill:none;stroke:#00ff4a;stroke-width:.666665;stroke-linecap:round;stroke-linejoin:round;stroke-miterlimit:4;stroke-dasharray:none;stroke-opacity:1;visibility:visible" visibility="hidden"/><path d="M476.075 393.248c.724.444.833 1.578.245 2.532-.59.955-1.652 1.363-2.373.916" style="fill:none;stroke:#9500ff;stroke-width:.666665;stroke-linecap:round;stroke-linejoin:round;stroke-miterlimit:4;stroke-dasharray:none;stroke-opacity:1;visibility:visible" visibility="hidden"/><path d="M473.945 396.696c-.724-.444-.833-1.576-.245-2.53.587-.952 1.652-1.364 2.373-.918" style="fill:none;stroke:#9500ff;stroke-width:.999997;stroke-linecap:round;stroke-linejoin:round;stroke-miterlimit:4;stroke-dasharray:none;stroke-opacity:1;visibility:visible" visibility="hidden"/><path d="m482.95 387.053-18.53 6.03-2.282-.573M481.138 388l2.027 10.699-13.243 4.433-1.677-.423-1.839-9.556" style="fill:none;stroke:#9500ff;stroke-width:1.33333;stroke-linecap:round;stroke-linejoin:round;stroke-miterlimit:4;stroke-dasharray:none;stroke-opacity:1;visibility:visible" visibility="hidden"/><path d="m470.135 402.71-1.837-10.312" style="fill:none;stroke:#9500ff;stroke-width:.666665;stroke-linecap:round;stroke-linejoin:round;stroke-miterlimit:10;stroke-dasharray:none;stroke-opacity:1;visibility:visible" visibility="hidden"/><path d="M482.95 387.055c-5.906-38.737-14.855-103.245-16.976-197.642l-3.475-.627M444.763 190.813l-1.79.24c2.124 94.398 13.261 162.722 19.164 201.458" style="fill:none;stroke:#9500ff;stroke-width:1.33333;stroke-linecap:round;stroke-linejoin:round;stroke-miterlimit:4;stroke-dasharray:none;stroke-opacity:1;visibility:visible" visibility="hidden"/><path d="M464.419 393.086c-5.904-38.739-17.324-106.123-19.447-200.521l18.303-2.41" style="fill:none;stroke:#9500ff;stroke-width:.666665;stroke-linecap:round;stroke-linejoin:round;stroke-miterlimit:4;stroke-dasharray:none;stroke-opacity:1;visibility:visible" visibility="hidden"/><path d="M460.136 197.836c2.19 82.529 11.567 144.673 17.468 182.897l-8.876 2.816c-5.89-38.142-15.472-100.776-17.76-184.35l9.168-1.363" style="fill:none;fill-opacity:1;fill-rule:nonzero;stroke:#9500ff;stroke-width:1.33333;visibility:visible" visibility="hidden"/><path d="M460.136 197.836c2.19 82.529 11.567 144.673 17.468 182.897l-8.876 2.816c-5.89-38.142-15.472-100.776-17.76-184.35l9.168-1.363" style="fill:none;stroke:#9500ff;stroke-width:.666665;stroke-linecap:round;stroke-linejoin:round;stroke-miterlimit:4;stroke-dasharray:none;stroke-opacity:1;visibility:visible" visibility="hidden"/><path d="m469.545 369.633.495-1.893M466.256 361.089l1.244-.202M467.753 354.323l-.335 2.098M473.488 360.098l-.872.796M473.423 363.22l-.623-1.324M470.687 356.622l-.897-.887M471.728 360.047l-.107 2.028M468.817 362.022l.491 1.34M467.296 365.153l.964.317M471.065 365.657l-.453-.948M468.616 358.554l-.544-1.639M472.245 359.62l1.107-1.41M471.852 359.069l-.14-1.755M473.612 371.189l.81-1.792M474.945 366.2l-1.254-.804M472.479 380.92l.494-1.89M470.319 372.069l1.245-.203M468.732 367.327l-.335 2.1M474.75 367.602l-.895-.885M475.02 371.605l-.104 2.028M472.881 373.002l.49 1.34M471.361 376.134l.964.316M475.132 376.638l-.452-.948M472.679 369.535l-.544-1.64M474.19 378.318l-.454-.948M468.532 374.46l1.67-1.276M469.397 379.26l1.006-1.553M466.714 354.151l-.967-.233M468.672 351.213l-.872.796M468.463 370.706l-.103 2.776M476.425 379.495l-.62-1.322M470.259 366.34l-.896-.885M470.505 374.106l-1.14 1.904M474.061 380.602l1.009-1.556M472.485 371.773l-.14-1.754M469.236 382.642l.81-1.79M472.241 377.653l-.969-.233M474.196 374.717l-.872.796M472.496 353.827l-.143-1.414M471.433 356.362l1.247-.203M468.98 353.066l-.336 2.099M471.701 364.186l.964.317M471.932 355.094l-.452-.947M470.043 352.975l1.672-1.273M470.039 351.397l1.106-1.411M469.741 360.953l1.006-1.555M470.559 342.647l-.143-1.413M465.925 334.26l-.895-.887M468.837 341.122l-.453-.948M467.998 339.478l1.67-1.276M465.692 336.554l1.108-1.412M466.67 355.453l-.872.796M466.276 352.555l-.894-.885M467.49 357.722l-1.142 1.904M467.872 362.426l-.968-.233M469.925 358.427l-.87.798M465.91 350.455l.497-1.89M463.752 339.869l1.244-.203M468.142 332.234l-.339 2.099M468.182 337.135l-.895-.885M469.225 340.562l-.108 2.028M465.35 342.922l.49 1.338M464.79 345.669l.967.317M468.563 346.171l-.453-.948M466.11 339.069l-.542-1.639M464.783 348.694l1.007-1.556M470.023 337.269l-.14-1.754M470.14 348.594l.81-1.79M470.793 345.375l-1.253-.805M464.102 336.962l.496-1.89M461.943 328.113l1.244-.204M462.767 324.14l-.337 2.1M466.576 324.903l-.873.797M469.07 329.478l-.617-1.321M466.373 323.645l-.895-.886M467.416 327.071l-.105 2.029M464.506 329.046l.492 1.34M462.983 332.177l.962.318M466.756 332.68l-.454-.946M464.302 325.578l-.54-1.64M463.406 330.7l-.454-.95M464.302 327.805l1.67-1.275M468.647 324.377l-1.142 1.905M468.024 323.586l-.14-1.755M468.63 336.286l.809-1.792M467.97 330.913l-.968-.234M469.957 332.163l-1.254-.805M464.439 337.693l-.875.797M467.416 346.797l-.62-1.323M465.353 340.731l-1.137 1.907M468.063 350.026l.81-1.79M467.57 341.197l-.97-.234M467.986 342.305l-.876.797M460.252 304.745l-.145-1.412M464.72 308.905l.496-1.891M462.563 300.053l1.243-.203M460.975 295.311l-.336 2.099M465.064 293.562l-.894-.888M461.674 300.651l-.106 2.029M465.124 300.985l.49 1.34M463.602 304.117l.964.317M466.312 305.2l-.452-.95M464.92 297.518l-.544-1.638M459.519 300.997l1.67-1.275M461.639 307.246l1.007-1.555M464.316 315.725l-.142-1.415M467.339 320.558l.495-1.89M465.372 312.67l1.245-.203M464.17 305.52l-.333 2.1M466.798 314.713l.964.317M466.479 309.655l-.543-1.641M462.594 314.198l-.455-.948M462.235 311.495l1.67-1.273M460.7 310.498l1.106-1.41M465.702 318.226l1.007-1.556M461.499 323.151l.495-1.891M464.837 311.478l-.873.796M462.708 316.918l-.62-1.323M460.396 309.737l-.894-.887M461.439 313.162l-.107 2.028M462.383 319.377l.49 1.34M460.778 318.771l-.454-.946M466.813 313.07l-1.14 1.907M462.818 309.58l-.143-1.753M465.541 321.606l.81-1.79M464.883 317.293l-.968-.234M464.655 319.315l-1.255-.805M464.13 289.331l-.335 2.1M462.772 292.886l-.542-1.636M462.19 295.21l1.674-1.273M463.55 288.24l1.106-1.41M461.9 274.458l1.107-1.41M460.567 295.187l-.873.798M459.786 298.605l-.62-1.323M460.556 293.831l-.893-.886M462.542 296.782l-1.14 1.904M458.546 293.29l-.142-1.753M461.27 305.318l.81-1.792M463.6 301.005l-.97-.235M460.383 303.026l-1.253-.805M465.847 298.933l-.872.796M457.748 285.26l-.144-1.413M462.215 289.418l.495-1.89M460.056 280.566l1.246-.203M458.47 275.823l-.334 2.1M463.426 276.871l-.896-.886M463.41 278.177l-.106 2.028M462.619 281.5l.491 1.34M461.096 284.631l.964.319M464.195 285.426l-.453-.948M462.416 278.033l-.542-1.639M457.016 281.511l1.672-1.274M459.135 287.76l1.007-1.553M460.188 291.922l.81-1.79M455.94 271.767l-.144-1.413M460.408 275.927l.496-1.889M458.25 267.077l1.242-.204M456.663 262.335l-.336 2.1M458.052 269.5l-.618-1.32M462.679 262.607l-.896-.885M462.468 266.902l-.105 2.028M460.812 268.009l.49 1.341M459.29 271.142l.962.318M463.062 271.645l-.455-.948M460.607 264.542l-.541-1.64M455.208 268.02l1.67-1.273M457.816 265.095l1.108-1.409M457.326 274.269l1.008-1.555M462.016 265.633l-.14-1.755M458.624 279.066l-.874.796M457.843 282.485l-.619-1.325M460.599 280.66l-1.139 1.907M456.603 277.169l-.141-1.754M459.328 289.195l.81-1.79M462.332 284.207l-.968-.232M458.442 286.905l-1.255-.807M464.29 281.269l-.873.796M456.558 243.709l-.144-1.413M461.026 247.869l.496-1.89M457.807 240.173l1.243-.201M457.279 234.276l-.336 2.097M460.116 234.26l-.894-.886M459.887 240.432l.49 1.34M459.906 243.082l.964.318M459.246 255.92l-.454-.946M459.78 231.76l-.544-1.637M454.836 242.182l-.454-.946M455.826 239.96l1.67-1.273M453.612 239.448l1.11-1.412M457.944 246.209l1.007-1.555M461.752 256.038l-.142-1.414M460.27 261.354l.496-1.89M460.476 244.869l-.334 2.099M458.9 253.162l-.454-.948M459.89 250.94l1.67-1.273M457.006 249.462l1.104-1.41M455.876 262.02l.495-1.894M455.162 251.818l1.244-.204M461.624 251.02l-.873.796M460.362 253.858l-.62-1.322M456.702 248.702l-.896-.886M457.746 252.126l-.108 2.03M454.832 254.1l.492 1.34M457.083 257.737l-.453-.948M454.63 250.633l-.542-1.639M455.01 258.531l1.01-1.557M459.123 248.544l-.143-1.754M458.088 261.245l.81-1.79M460.962 258.28l-1.255-.807M457.016 230.229l-.454-.949M458.108 214.098l1.107-1.412M456.87 234.152l-.871.796M456.092 237.57l-.62-1.322M454.452 228.845l-.894-.887M453.858 234.006l-.106 2.028M454.74 245.205l-.454-.947M458.848 235.746l-1.141 1.904M454.85 232.256l-.14-1.756M457.576 244.282l.81-1.792M460.579 239.294l-.969-.234M456.69 241.989l-1.255-.805M459.952 236.606l.675 1.155M454.052 224.224l-.142-1.414M458.519 228.382l.495-1.892M456.362 219.532l1.244-.203M454.776 214.789l-.336 2.1M459.346 213.812l-.896-.887M458.078 230.922l-.108 2.028M458.923 220.465l.492 1.34M457.402 223.597l.964.317M459.92 225.546l-.453-.948M458.72 216.996l-.542-1.64M453.32 220.476l1.672-1.276M455.439 226.725l1.008-1.556M452.246 210.733l-.143-1.415M456.712 214.89l.496-1.89M454.554 206.041l1.242-.203M452.968 201.298l-.336 2.099M458.986 201.573l-.896-.887M458.678 203.842l-.106 2.028M457.116 206.974l.49 1.34M455.594 210.105l.962.317M459.367 210.608l-.455-.948M456.912 203.506l-.541-1.64M452.286 205.829l1.67-1.275M453.632 213.234l1.008-1.556M454.755 201.994l-.14-1.753M454.928 218.029l-.874.796M454.148 221.448l-.62-1.324M456.904 219.624l-1.14 1.905M452.91 216.133l-.143-1.753M455.635 228.158l.81-1.79M458.636 223.172l-.968-.234M454.746 225.869l-1.256-.805M460.018 217.726l-.875.798" style="fill:none;stroke:#9500ff;stroke-width:.333333;stroke-linecap:round;stroke-linejoin:round;stroke-miterlimit:4;stroke-dasharray:none;stroke-opacity:1;visibility:visible" visibility="hidden"/><path d="m444.972 192.565-1.998-1.513" style="fill:none;stroke:#9500ff;stroke-width:.666665;stroke-linecap:round;stroke-linejoin:round;stroke-miterlimit:4;stroke-dasharray:none;stroke-opacity:1;visibility:visible" visibility="hidden"/><path d="m462.004 179.264-3.444-.819-13.178 1.479.038 10.876" style="fill:none;stroke:#9500ff;stroke-width:1.33333;stroke-linecap:round;stroke-linejoin:round;stroke-miterlimit:4;stroke-dasharray:none;stroke-opacity:1;visibility:visible" visibility="hidden"/><path d="m447.636 180.96.159 11.128-2.09-.924" style="fill:none;stroke:#9500ff;stroke-width:.666665;stroke-linecap:round;stroke-linejoin:round;stroke-miterlimit:4;stroke-dasharray:none;stroke-opacity:1;visibility:visible" visibility="hidden"/><path d="m461.892 189.436.11-10.172" style="fill:none;stroke:#9500ff;stroke-width:1.33333;stroke-linecap:round;stroke-linejoin:round;stroke-miterlimit:4;stroke-dasharray:none;stroke-opacity:1;visibility:visible" visibility="hidden"/><path d="M455.606 183.517c.804.27 1.168 1.35.809 2.412-.356 1.061-1.301 1.7-2.105 1.428" style="fill:none;stroke:#9500ff;stroke-width:.666665;stroke-linecap:round;stroke-linejoin:round;stroke-miterlimit:4;stroke-dasharray:none;stroke-opacity:1;visibility:visible" visibility="hidden"/><path d="M454.31 187.357c-.804-.27-1.168-1.35-.81-2.412.358-1.06 1.3-1.7 2.106-1.428" style="fill:none;stroke:#9500ff;stroke-width:.999997;stroke-linecap:round;stroke-linejoin:round;stroke-miterlimit:4;stroke-dasharray:none;stroke-opacity:1;visibility:visible" visibility="hidden"/><path d="m482.95 387.055-1.812.945M464.419 393.086l1.987.067" style="fill:none;stroke:#9500ff;stroke-width:1.33333;stroke-linecap:round;stroke-linejoin:round;stroke-miterlimit:4;stroke-dasharray:none;stroke-opacity:1;visibility:visible" visibility="hidden"/><path d="m466.406 393.153 3.729 9.557M464.419 393.086l3.879-.688" style="fill:none;stroke:#9500ff;stroke-width:.666665;stroke-linecap:round;stroke-linejoin:round;stroke-miterlimit:10;stroke-dasharray:none;stroke-opacity:1;visibility:visible" visibility="hidden"/><path d="m466.406 393.153-1.987-.067M454.554 206.041l8.721-15.886" style="fill:none;stroke:#9500ff;stroke-width:.666665;stroke-linecap:round;stroke-linejoin:round;stroke-miterlimit:4;stroke-dasharray:none;stroke-opacity:1;visibility:visible" visibility="hidden"/><path d="m472.973 379.03-3.428-9.397M472.479 380.92l-2.439-13.18M472.68 356.159l-6.424 4.93M471.433 356.362l-3.933 4.525M468.644 355.165l-.891-.842M469.055 359.225l4.433.873M469.925 358.427l2.691 2.467M470.612 364.709l2.811-1.489M471.065 365.657l1.735-3.761M466.276 352.555l3.514 3.18M468.463 370.706l3.158-8.631M468.616 358.554l.201 3.468M472.135 367.895l-2.827-4.533M467.872 362.426l-.576 2.727M466.904 362.193l1.356 3.277M472.8 361.896l-1.735 3.761M473.423 363.22l-2.811 1.489M470.039 351.397l3.313 6.813M470.046 380.852l3.566-9.663M469.236 382.642l5.186-13.245M470.04 367.74l2.439 13.18M469.545 369.633l3.428 9.397M467.5 360.887l2.819 11.182M467.418 356.421l1.314 10.906M467.753 354.323l.644 15.104M469.363 365.455l5.387 2.147M470.259 366.34l3.596.377M468.36 373.482l6.66-1.877M468.463 370.706l6.453 2.927M472.679 369.535l.202 3.467M472.241 377.653l-.88-1.519M471.272 377.42l1.053-.97M473.736 377.37l1.396-.732M474.19 378.318l.49-2.628M469.308 363.362l2.827 4.533M475.805 378.173l-1.615.145M475.132 376.638l-1.396.732M470.505 374.106l-1.108 5.154M466.904 362.193l-.19-8.042M465.757 345.986l-.01 7.932M465.798 356.249l2.874-5.036M466.67 355.453l1.13-3.444M474.916 373.633l-6.453-2.927M473.736 377.37l2.689 2.125M474.19 378.318l1.615-.145M473.855 366.717l-3.596-.377M474.75 367.602l-5.387-2.147M470.403 377.707l-1.038-1.697M470.403 377.707l3.658 2.895M469.397 379.26l5.673-.214M474.422 369.397l-5.186 13.245M473.612 371.189l-3.566 9.663M471.361 376.134l.88 1.519M473.488 360.098l-.164 15.415M471.712 357.314l.784-3.487M466.256 361.089l6.424-4.93M467.418 356.421l1.562-3.355M467.753 354.323l.891.842M468.26 365.47l3.441-1.284M467.296 365.153l5.369-.65M472.8 361.896l-.868-6.802M467.416 346.797l4.064 7.35M469.668 338.202l.375 14.773M473.352 358.21l-3.313-6.813M472.245 359.62l-1.1-9.634M467.49 357.722l2.251 3.231M466.348 359.626l4.399-.228M469.883 335.515l.676 7.132M470.023 337.269l.393 3.965M467.287 336.25l-1.362-1.99M468.182 337.135l-3.152-3.762M470.039 351.397l-3.239-16.255M467.8 352.009l-1.13 3.444M469.925 358.427l-4.127-2.178M469.79 355.735l-3.514-3.18M470.687 356.622l-5.305-4.952M470.747 359.398l-4.399.228M467.296 365.153l.576-2.727M468.26 365.47l-1.356-3.277M472.616 360.894l-2.691-2.467M464.598 335.072l1.312 15.383M464.102 336.962l2.305 11.603M463.187 327.909l.565 11.96M461.943 328.113l3.053 11.553M462.43 326.24l5.712 5.994M462.767 324.14l5.036 10.193M465.925 334.26l1.362 1.99M467.416 327.071l1.701 15.519M466.11 339.069l-.76 3.853M466.796 345.474l-.956-1.214M467.57 341.197l-2.78 4.472M466.6 340.963l-.843 5.023M466.796 345.474l1.767.697M467.416 346.797l.694-1.574M465.35 342.922l.76-3.853M465.353 340.731l-.57 7.963M464.216 342.638l1.574 4.5M470.559 342.647l-.676-7.132M468.873 348.236l1.267.358M468.063 350.026l2.887-3.222M468.703 331.358l2.09 14.017M469.957 332.163l-.417 12.407M461.499 323.151l3.099 11.921M464.996 339.666l-3.053-11.553M463.752 339.869l-.565-11.96M467.803 334.333l-5.036-10.193M468.142 332.234l-5.712-5.994M463.964 312.274l2.612 12.629M466.302 331.734l2.768-2.256M464.998 330.386l3.455-2.229M465.03 333.373l1.343-9.728M465.925 334.26l-.447-11.501M469.225 340.562l-1.914-11.462M464.302 325.578l.204 3.468M468.453 328.157l-3.455 2.229M467.97 330.913l-4.987 1.264M467.002 330.679l-3.057 1.816M462.952 329.75l3.804 2.93M463.406 330.7l2.896 1.034M464.506 329.046l-.204-3.468M462.873 320.717l.889 3.221M466.302 331.734l-2.896-1.034M466.756 332.68l-3.804-2.93M464.439 337.693l-.137-9.888M465.702 318.226l2.945 6.151M464.174 314.31l3.85 9.276M464.316 315.725l3.568 6.106M465.541 321.606l3.898 12.888M463.945 332.495l3.057-1.816M469.54 344.57l.417-12.407M467.986 342.305l-4.422-3.815M468.11 345.223l-.694 1.574M465.84 344.26l.956 1.214M464.783 348.694l.57-7.963M465.79 347.138l-1.574-4.5M470.95 346.804l-2.887 3.222M470.14 348.594l-1.267-.358M464.79 345.669l2.78-4.472M465.757 345.986l.843-5.023M467.998 339.478l-.012 2.827M469.668 338.202l-2.558 4.9M462.675 307.827l-2.423-3.082M467.834 318.668l-3.114-9.763M467.339 320.558l-2.123-13.544M465.372 312.67l-1.566-12.82M464.13 289.331l-3.491 8.079M459.663 292.945l5.401.617M460.556 293.831l3.614-1.157M464.92 297.518l.204 3.467M465.936 308.014l-.322-5.689M463.6 301.005l.002 3.112M462.63 300.77l1.936 3.664M462.139 313.25l4.173-8.05M459.786 298.605l6.074 5.645M465.124 300.985l-.204-3.467M462.772 292.886l1.604 2.994M463.864 293.937l-4.345 7.06M462.19 295.21l-1.001 4.512M466.813 313.07l-5.174-5.824M461.402 298.686l1.244 7.005M467.884 321.831l-3.568-6.106M462.818 309.58l1.356 4.73M461.994 321.26l5.345-.702M461.499 323.151l6.335-4.483M463.806 299.85l1.566 12.82M460.639 297.41l3.531 8.11M460.975 295.311l2.862 12.309M464.883 317.293l1.915-2.58M463.915 317.059l3.847-2.029M465.124 300.985l1.355 8.67M465.614 302.325l.322 5.689M462.088 315.595l.506-1.397M461.189 299.722l1.046 11.773M459.519 300.997l4.386 9.225M466.813 313.07l-1.111 5.156M465.673 314.977l1.036 1.693M467.834 318.668l-6.335 4.483M467.339 320.558l-5.345.702M464.975 299.729l-.138 11.749M461.189 299.722l2.775 12.552M460.324 317.825l2.384-.907M460.556 293.831l-1.054 15.019M464.302 325.578l-1.919-6.201M463.762 323.938l-.889-3.221M462.088 315.595l-1.31 3.176M462.708 316.918l-2.384.907M466.709 316.67l-1.036-1.693M464.174 314.31l-1.356-4.73M460.252 304.745l2.423 3.082M469.439 334.494l-3.898-12.888M461.27 305.318l5.081 14.498M466.798 314.713l-1.915 2.58M467.762 315.03l-3.847 2.029M468.703 331.358l-4.048-12.043M469.957 332.163 463.4 318.51M460.639 297.41l3.491-8.079M460.975 295.311l2.82-3.88M464.376 295.88l-1.604-2.994M464.92 297.518l-2.69-6.268M461.189 299.722l1.001-4.512M459.519 300.997l4.345-7.06M463.007 273.048l.543 15.192M461.9 274.458l2.756 12.372M458.924 263.686l2.976 10.772M457.816 265.095l5.191 7.953M465.847 298.933l-6.153-2.948M465.86 304.25l-6.074-5.645M466.312 305.2l-7.146-7.918M464.17 292.674l-3.614 1.157M465.064 293.562l-5.401-.617M459.135 287.76l3.407 9.022M462.646 305.691l-1.244-7.005M457.604 283.847l.942 9.443M457.748 285.26l.656 6.277M460.998 290.132l.272 15.186M463.602 304.117l-.002-3.112M458.442 286.905l.688 15.316M459.694 295.985l6.153 2.948M460.567 295.187l4.408 4.542M458.404 291.537l-.656-6.277M456.603 277.169l1.001 6.678M460.904 274.038l1.311 15.38M460.408 275.927l2.302 11.601M456.327 264.435l2.143 11.388M464.13 289.331l-5.994-11.408M461.783 261.722l1.643 15.149M462.363 268.93l1.047 9.247M462.468 266.902l.836 13.303M457.224 281.16l6.971 4.266M457.843 282.485l5.899 1.993M462.619 281.5l-.203-3.467M455.208 268.02l3.48 12.217M460.599 280.66l-1.464 7.1M459.46 282.567l.682 3.64M460.138 287.405l.05 4.517M459.328 289.195l1.67.937M456.462 275.415l-.522-3.648M456.603 277.169l-.807-6.815M462.71 287.528l-2.302-11.601M460.27 261.354l.634 12.684M461.302 280.363l-3.052-13.286M460.056 280.566l-.564-13.693M458.47 275.823l-2.143-11.388M462.607 270.697l-4.555-1.197M463.062 271.645l-5.628-3.465M462.53 275.985l.149-13.378M456.702 248.702l5.081 13.02M463.304 280.205l-.836-13.303M463.41 278.177l-1.047-9.247M460.607 264.542l.205 3.467M460.066 262.902l1.236 6.448M462.332 284.207l-3.042-13.065M461.364 283.975l-1.112-12.515M457.434 268.18l5.628 3.465M458.052 269.5l4.555 1.197M460.812 268.009l-.205-3.467M461.302 269.35l-1.236-6.448M458.688 280.237l-3.48-12.217M457.016 281.511l-.138-14.764M463.007 273.048l-5.191-7.953M461.9 274.458l-2.976-10.772M460.599 280.66l-3.273-6.391M459.46 282.567l-1.126-9.853M455.796 270.354l6.22-4.721M461.752 256.038l.124 7.84M463.417 282.065l-4.793-2.999M464.29 281.269l-6.54-1.407M462.619 281.5l-4.776.985M460.142 286.207l-.682-3.64M457.604 283.847l-1.001-6.678M455.94 271.767l.522 3.648M460.998 290.132l-1.67-.937M460.188 291.922l-.05-4.517M459.13 302.221l-.688-15.316M460.383 303.026l-3.196-16.928M457.75 279.862l6.54 1.407M458.98 246.79l-2.422-3.081M460.766 259.464l.26-11.595M460.27 261.354l1.252-15.375M456.406 251.614l1.401-11.441M460.476 244.869l-3.533-8.496M453.558 227.958l6.558 6.302M454.452 228.845l4.77 4.529M454.088 248.994l6.289-7.222M460.579 239.294l-.673 3.788M459.61 239.06l1.26 4.34M456.63 256.789l2.616-.869M458.9 253.162l-.108 1.812M459.887 240.432l-.107-8.672M459.415 221.805l-.179 8.318M454.286 244.258l.55-2.076M454.74 245.205l-.358-3.969M461.56 249.667l-5.734-9.707M459.89 250.94l-2.394-12.253M458.11 248.052l-4.498-8.604M457.006 249.462l-2.284-11.426M458.848 235.746l-.904 10.463M457.707 237.65l1.244 7.004M461.876 263.878l-.124-7.84M459.123 248.544l2.487 6.08M456.371 260.126l3.899 1.228M455.876 262.02l4.89-2.556M456.943 236.373l3.533 8.496M457.279 234.276l2.863 12.692M459.742 252.536l-.842.626M457.496 238.687l2.394 12.253M455.826 239.96l5.734 9.707M453.612 239.448l4.498 8.604M460.27 261.354l-3.899-1.228M459.05 239.972l-3.888 11.846M457.807 240.173l-1.401 11.441M455.999 234.948l5.625 16.072M456.87 234.152l3.881 17.664M458.792 254.974l1.57-1.116M458.9 253.162l.842-.626M460.116 234.26l-4.31 13.556M462.468 266.902l-4.83-12.746M454.63 250.633l.202 3.467M459.742 252.536l-4.418 2.904M458.792 254.974l-1.709 2.763M454.832 254.1l-.202-3.467M455.324 255.44l-1.236-6.446M458.951 244.654l-3.941 13.877M461.61 254.624l-2.487-6.08M456.558 243.709l2.422 3.081M458.386 242.49l-.298 18.755M457.576 244.282l1.322 15.173M455.435 241.184l5.527 17.096M456.69 241.989l3.017 15.484M459.467 224.598l-2.451 5.631M459.92 225.546l-3.358 3.734M454.928 218.029l1.071 16.919M454.382 241.236l1.71-3.666M454.836 242.182l.636-5.934M459.222 233.374l-4.77-4.529M460.116 234.26l-6.558-6.302M457.97 232.95l-4.112 1.056M458.078 230.922l-4.326 5.112M454.382 241.236l.358 3.969M454.836 242.182l-.55 2.076M455.439 226.725l3.409 9.021M458.951 244.654l-1.244-7.004M453.91 222.81l.94 9.446M454.052 224.224l.658 6.276M458.898 259.455l-1.322-15.173M455.635 228.158l2.751 14.332M459.906 243.082l.673-3.788M460.87 243.4l-1.26-4.34M454.746 225.869l.689 15.315M457.016 230.229l2.936 6.377M454.382 241.236l6.245-3.475M454.71 230.5l-.658-6.276M452.91 216.133l1 6.677M457.208 213l1.311 15.382M456.712 214.89l2.302 11.6M452.632 203.397l2.144 11.392M452.968 201.298l1.472 15.591M458.09 200.686l1.256 13.126M453.752 236.034l4.326-5.112M453.858 234.006l4.112-1.056M458.72 216.996l.203 3.469M453.528 220.124l5.887 1.681M456.562 229.28l3.358-3.734M457.016 230.229l2.451-5.631M458.923 220.465l-.203-3.469M459.415 221.805l-1.237-6.449M454.054 218.825l.938.375M456.904 219.624l-1.465 7.101M455.764 221.529l.683 3.64M452.767 214.38l-.521-3.647M452.91 216.133l-.807-6.815M459.014 226.49l-2.302-11.6M458.519 228.382 457.208 213M460.136 197.836l-5.582 8.205M456.362 219.532l-.566-13.694M454.44 216.889l-1.472-15.591M454.776 214.789l-2.144-11.392M458.45 212.925l.536-11.352M459.346 213.812l-1.256-13.126M461.892 189.436l-3.214 14.406M460.136 197.836l-1.564 8.034M456.912 203.506l.204 3.468M456.371 201.866l1.235 6.448M458.636 223.172l-3.042-13.067M457.668 222.938l-1.112-12.516M453.528 220.124l5.839-9.516M454.148 221.448l4.764-11.788M457.116 206.974l-.204-3.468M457.606 208.314l-1.235-6.448M454.928 218.029l-2.642-12.2M454.054 218.825l-.098-14.271M456.904 219.624l-3.272-6.39M455.764 221.529l-1.124-9.851M460.136 197.836l-5.381 4.158M452.246 210.733l2.369-10.492M453.32 220.476l1.608-2.447M454.992 219.2l-.938-.375M458.923 220.465l-4.775.983M456.447 225.169l-.683-3.64M453.91 222.81l-1-6.677M452.246 210.733l.521 3.647M458.386 242.49l-2.751-14.332M457.576 244.282l-1.131-17.914M455.435 241.184l-.689-15.315M456.69 241.989l-3.2-16.925M454.054 218.825l5.964-1.099M454.928 218.029l4.215.495" style="fill:none;stroke:#9500ff;stroke-width:.333333;stroke-linecap:round;stroke-linejoin:round;stroke-miterlimit:4;stroke-dasharray:none;stroke-opacity:1;visibility:visible" visibility="hidden"/><path d="m445.42 190.8 2.216-9.84" style="fill:none;stroke:#9500ff;stroke-width:.666665;stroke-linecap:round;stroke-linejoin:round;stroke-miterlimit:4;stroke-dasharray:none;stroke-opacity:1;visibility:visible" visibility="hidden"/><path d="M557.405 377.57c.266.807-.385 1.743-1.45 2.088-1.066.35-2.14-.028-2.402-.835" style="fill:none;stroke:#ffdf00;stroke-width:.666665;stroke-linecap:round;stroke-linejoin:round;stroke-miterlimit:4;stroke-dasharray:none;stroke-opacity:1;visibility:visible" visibility="hidden"/><path d="M553.553 378.823c-.265-.805.383-1.74 1.448-2.088 1.066-.348 2.14.027 2.404.835" style="fill:none;stroke:#ffdf00;stroke-width:.999997;stroke-linecap:round;stroke-linejoin:round;stroke-miterlimit:4;stroke-dasharray:none;stroke-opacity:1;visibility:visible" visibility="hidden"/><path d="m547.47 374.495.788 9.572 15.069-1.104 1-1.528-.672-8.981M565.852 369.935l-1.555 1.906-19.076 2.199" style="fill:none;stroke:#ffdf00;stroke-width:1.33333;stroke-linecap:round;stroke-linejoin:round;stroke-miterlimit:4;stroke-dasharray:none;stroke-opacity:1;visibility:visible" visibility="hidden"/><path d="m562.587 382.191-.672-8.981" style="fill:none;stroke:#ffdf00;stroke-width:.666665;stroke-linecap:round;stroke-linejoin:round;stroke-miterlimit:10;stroke-dasharray:none;stroke-opacity:1;visibility:visible" visibility="hidden"/><path d="M556.77 181.092c1.006 52.332 6.701 163.262 9.081 188.843" style="fill:none;stroke:#ffdf00;stroke-width:1.33333;stroke-linecap:round;stroke-linejoin:round;stroke-miterlimit:4;stroke-dasharray:none;stroke-opacity:1;visibility:visible" visibility="hidden"/><path d="M554.679 182.869c1.008 52.332 6.48 162.814 8.86 188.397" style="fill:none;stroke:#ffdf00;stroke-width:.666665;stroke-linecap:round;stroke-linejoin:round;stroke-miterlimit:4;stroke-dasharray:none;stroke-opacity:1;visibility:visible" visibility="hidden"/><path d="M545.223 374.042c-2.774-26.472-9.24-155.784-10.774-191.05" style="fill:none;stroke:#ffdf00;stroke-width:1.33333;stroke-linecap:round;stroke-linejoin:round;stroke-miterlimit:4;stroke-dasharray:none;stroke-opacity:1;visibility:visible" visibility="hidden"/><path d="m537.113 182.925 17.29-.145 2.413-1.927" style="fill:none;stroke:#ffdf00;stroke-width:.666665;stroke-linecap:round;stroke-linejoin:round;stroke-miterlimit:10;stroke-dasharray:none;stroke-opacity:1;visibility:visible" visibility="hidden"/><path d="m537.679 182.585-.462-10.543 2.71-1.262 13.333-.104.395 10.217M556.77 181.092l-2.61.02M537.007 181.8l-2.558 1.192" style="fill:none;stroke:#ffdf00;stroke-width:1.33333;stroke-linecap:round;stroke-linejoin:round;stroke-miterlimit:10;stroke-dasharray:none;stroke-opacity:1;visibility:visible" visibility="hidden"/><path d="m551.559 171.89.361 10.762" style="fill:none;stroke:#ffdf00;stroke-width:.666665;stroke-linecap:round;stroke-linejoin:round;stroke-miterlimit:10;stroke-dasharray:none;stroke-opacity:1;visibility:visible" visibility="hidden"/><path d="M546.46 176.71c.263.807-.385 1.743-1.453 2.088-1.067.35-2.14-.026-2.402-.834" style="fill:none;stroke:#ffdf00;stroke-width:.666665;stroke-linecap:round;stroke-linejoin:round;stroke-miterlimit:4;stroke-dasharray:none;stroke-opacity:1;visibility:visible" visibility="hidden"/><path d="M542.605 177.964c-.265-.806.386-1.74 1.451-2.088 1.063-.348 2.14.026 2.404.834" style="fill:none;stroke:#ffdf00;stroke-width:.999997;stroke-linecap:round;stroke-linejoin:round;stroke-miterlimit:4;stroke-dasharray:none;stroke-opacity:1;visibility:visible" visibility="hidden"/><path d="m545.223 374.042 2.247.453M563.539 371.266l.116 1.188" style="fill:none;stroke:#ffdf00;stroke-width:1.33333;stroke-linecap:round;stroke-linejoin:round;stroke-miterlimit:4;stroke-dasharray:none;stroke-opacity:1;visibility:visible" visibility="hidden"/><path d="m563.655 372.454-1.068 9.737M563.539 371.266l-1.624 1.944" style="fill:none;stroke:#ffdf00;stroke-width:.666665;stroke-linecap:round;stroke-linejoin:round;stroke-miterlimit:10;stroke-dasharray:none;stroke-opacity:1;visibility:visible" visibility="hidden"/><path d="m553.655 180.893 1.024 1.976M563.655 372.454l-.116-1.188" style="fill:none;stroke:#ffdf00;stroke-width:.666665;stroke-linecap:round;stroke-linejoin:round;stroke-miterlimit:4;stroke-dasharray:none;stroke-opacity:1;visibility:visible" visibility="hidden"/><path d="m553.655 180.893-2.096-9.003M554.679 182.869l-2.759-.217" style="fill:none;stroke:#ffdf00;stroke-width:.666665;stroke-linecap:round;stroke-linejoin:round;stroke-miterlimit:10;stroke-dasharray:none;stroke-opacity:1;visibility:visible" visibility="hidden"/><path d="M645.832 363.023c.653.424.726 1.47.161 2.332-.565.862-1.55 1.21-2.203.78" style="fill:none;stroke:#00d4ff;stroke-width:.666665;stroke-linecap:round;stroke-linejoin:round;stroke-miterlimit:4;stroke-dasharray:none;stroke-opacity:1;visibility:visible" visibility="hidden"/><path d="M643.79 366.135c-.648-.425-.724-1.468-.158-2.33.562-.859 1.55-1.211 2.2-.781" style="fill:none;stroke:#00d4ff;stroke-width:.999997;stroke-linecap:round;stroke-linejoin:round;stroke-miterlimit:4;stroke-dasharray:none;stroke-opacity:1;visibility:visible" visibility="hidden"/><path d="m649.54 359.066.942 9.08-9.669 3.092-1.763-.432-.885-8.268M651.905 358.085l-13.927 4.453-2.54-.623" style="fill:none;stroke:#00d4ff;stroke-width:1.33333;stroke-linecap:round;stroke-linejoin:round;stroke-miterlimit:4;stroke-dasharray:none;stroke-opacity:1;visibility:visible" visibility="hidden"/><path d="m640.938 370.805-.885-8.268" style="fill:none;stroke:#00d4ff;stroke-width:.666665;stroke-linecap:round;stroke-linejoin:round;stroke-miterlimit:10;stroke-dasharray:none;stroke-opacity:1;visibility:visible" visibility="hidden"/><path d="M651.905 358.085c-7.383-72.565-4.659-134.972-.585-181.057l-1.936-.959M634.92 176.797l-1.828.153c-4.074 46.084-5.036 112.401 2.346 184.964" style="fill:none;stroke:#00d4ff;stroke-width:1.33333;stroke-linecap:round;stroke-linejoin:round;stroke-miterlimit:4;stroke-dasharray:none;stroke-opacity:1;visibility:visible" visibility="hidden"/><path d="m633.092 176.952 2.302 1.89M649.265 177.646l-13.87 1.196c-4.075 46.084-5.039 110.51 2.344 183.073" style="fill:none;stroke:#00d4ff;stroke-width:.666665;stroke-linecap:round;stroke-linejoin:round;stroke-miterlimit:4;stroke-dasharray:none;stroke-opacity:1;visibility:visible" visibility="hidden"/><path d="M648.696 177.306c.264-3.48.544-6.096.833-9.36l-2.024-1.004-11.337.948c-.262 2.952-.543 5.64-.768 8.814" style="fill:none;stroke:#00d4ff;stroke-width:1.33333;stroke-linecap:round;stroke-linejoin:round;stroke-miterlimit:4;stroke-dasharray:none;stroke-opacity:1;visibility:visible" visibility="hidden"/><path d="M637.856 169.277c-.252 2.845-.59 6.35-.81 9.381M643.75 171.69c.651.424.725 1.471.16 2.332-.565.862-1.549 1.211-2.202.78" style="fill:none;stroke:#00d4ff;stroke-width:.666665;stroke-linecap:round;stroke-linejoin:round;stroke-miterlimit:4;stroke-dasharray:none;stroke-opacity:1;visibility:visible" visibility="hidden"/><path d="M641.706 174.802c-.648-.425-.724-1.468-.158-2.329.562-.86 1.55-1.213 2.2-.783" style="fill:none;stroke:#00d4ff;stroke-width:.999997;stroke-linecap:round;stroke-linejoin:round;stroke-miterlimit:4;stroke-dasharray:none;stroke-opacity:1;visibility:visible" visibility="hidden"/><path d="m651.905 358.085-2.365.981" style="fill:none;stroke:#00d4ff;stroke-width:1.33333;stroke-linecap:round;stroke-linejoin:round;stroke-miterlimit:4;stroke-dasharray:none;stroke-opacity:1;visibility:visible" visibility="hidden"/><path d="m638.165 362.538 2.773 8.267M637.739 361.915l2.314.622" style="fill:none;stroke:#00d4ff;stroke-width:.666665;stroke-linecap:round;stroke-linejoin:round;stroke-miterlimit:10;stroke-dasharray:none;stroke-opacity:1;visibility:visible" visibility="hidden"/><path d="m635.4 176.704 2.456-7.427" style="fill:none;stroke:#00d4ff;stroke-width:.666665;stroke-linecap:round;stroke-linejoin:round;stroke-miterlimit:4;stroke-dasharray:none;stroke-opacity:1;visibility:visible" visibility="hidden"/><path d="m465.798 356.249 9.147 9.951M469.925 358.427l3.766 6.969M464.883 317.293l-3.077-8.205M454.928 218.029l3.18-3.931" style="fill:none;stroke:#9500ff;stroke-width:.333333;stroke-linecap:round;stroke-linejoin:round;stroke-miterlimit:4;stroke-dasharray:none;stroke-opacity:1;visibility:visible" visibility="hidden"/></svg>