<svg xmlns="http://www.w3.org/2000/svg" baseProfile="full" height="1122.52" preserveAspectRatio="xMinYMin meet" style="width:912px;height:1303px" width="793.701" xml:space="preserve"><path d="M542.95 725.044s-2.02-1.436-1.086-9.362c.308-2.632 1.425-13.104.74-13.954-.29-.366-4.721 2.918-8.812 5.106-3.792 2.026-7.273 2.938-7.205 3.356 1.609 10.003 3.35 30.472 3.762 34.188.123 1.112 2.883 38.44 1.055 73.61-1.323 25.49-5 53.165-7.584 62.916 0 .001 3.795 1.661 3.855 1.545l14.232-11.626 3.08-112.247 4.203-1.974.102-5.42s1-1.236 2.413-1.088c1.415.146 2.306.323 2.376 1.27.07.95.02 2.709.02 2.709l8.407-4.004s-.093-2.841.052-4.305c.145-1.464.375-1.73 2.227-1.924 1.853-.194 2.636.405 2.636 1.52 0 1.709.1 4.204.1 4.204s1.306.124 2.33.76c1.022.633 1.166 1.552 1.215 2.478.047.928-3.535 95.295-3.535 95.295l43.503-36.51 7.286-6.139c3.852-9.111 3.36-36.186 4.172-49.32 1.402-22.64 3.266-51.446 4.2-62.35-.001-.001-67.121 29.546-72.621 31.879-5.5 2.335-9.066 1.22-11.123-.613" style="fill:none;fill-opacity:1;fill-rule:nonzero;stroke:red;stroke-width:1.33333;visibility:visible"/><path d="m643.241 689.621-12.113 153.646M651.658 645.175c-.466 1.865-3.262 1.4-5.133 1.165l-15.867-4.897" style="fill:none;stroke:red;stroke-width:.666665;stroke-linecap:round;stroke-linejoin:round;stroke-miterlimit:4;stroke-dasharray:none;stroke-opacity:1;visibility:visible"/><path d="m635.794 841.635 12.328-154.117M651.545 646.657l.113-1.482c0-.232-.232-.467-.466-.467l-.672-.208M644.458 642.617l-6.8-2.11" style="fill:none;stroke:red;stroke-width:1.33333;stroke-linecap:round;stroke-linejoin:round;stroke-miterlimit:4;stroke-dasharray:none;stroke-opacity:1;visibility:visible"/><path d="M631.128 843.267c2.486.673 4.666-.934 4.666-1.633" style="fill:none;stroke:red;stroke-width:.666665;stroke-linecap:round;stroke-linejoin:round;stroke-miterlimit:4;stroke-dasharray:none;stroke-opacity:1;visibility:visible"/><path d="M631.814 639.659c-.789.12-1.484.4-1.622 1.081l-1.022 14.121M626.17 697.216l-9.274 137.653v.231" style="fill:none;stroke:red;stroke-width:1.33333;stroke-linecap:round;stroke-linejoin:round;stroke-miterlimit:4;stroke-dasharray:none;stroke-opacity:1;visibility:visible"/><path d="M617.128 835.8h0l14 7.468" style="fill:none;stroke:red;stroke-width:.666665;stroke-linecap:round;stroke-linejoin:round;stroke-miterlimit:4;stroke-dasharray:none;stroke-opacity:1;visibility:visible"/><path d="m637.314 635.133-.494 6.044c-.047.579-.995.973-2.12.88-1.123-.09-1.995-.634-1.948-1.216l.492-6.041M649.945 638.975l-.495 6.044c-.046.578-.997.974-2.12.881-1.122-.092-1.997-.633-1.948-1.215l.492-6.041M636.093 636.399l-2.543 5.046" style="fill:none;stroke:red;stroke-width:.666665;stroke-linecap:round;stroke-linejoin:round;stroke-miterlimit:2;stroke-dasharray:none;stroke-opacity:1;visibility:visible"/><path d="M636.737 634.316c.377.224.601.516.579.817-.048.579-.996.975-2.12.883-1.126-.09-1.998-.637-1.95-1.216.031-.396.482-.703 1.124-.833M648.724 640.241l-2.547 5.047M649.328 638.139c.401.226.64.526.617.836-.05.58-.995.975-2.123.882-1.122-.09-1.994-.636-1.948-1.213.032-.396.487-.705 1.128-.834M627.03 829.991c.68 1.37.514 2.84-.38 3.284-.89.443-2.164-.308-2.846-1.682-.684-1.367-.51-2.836.38-3.279.89-.444 2.164.306 2.846 1.677M642.768 643.42c-.048.459-.935.745-1.984.64-1.052-.104-1.866-.56-1.822-1.017.048-.46.936-.746 1.986-.643 1.05.105 1.864.561 1.82 1.02" style="fill:none;stroke:red;stroke-width:.666665;stroke-linecap:round;stroke-linejoin:round;stroke-miterlimit:2;stroke-dasharray:none;stroke-opacity:1;visibility:visible"/><path d="m570.692 753.078-9.565 238M544.563 759.614c.697 2.798 4.897 2.798 7.929 2.334M545.26 1002.744l7.232-240.796 18.2-8.87v-.694" style="fill:none;stroke:red;stroke-width:.666665;stroke-linecap:round;stroke-linejoin:round;stroke-miterlimit:4;stroke-dasharray:none;stroke-opacity:1;visibility:visible"/><path d="m561.648 750.468-7.041 3.432M548.232 757.008l-3.437 1.672c-.232.232-.232.468-.232.702l-6.071 240.565M561.128 991.078c0-.232.232-.464.232-.695l9.333-238c.167-1.339-1.346-2.079-2.906-2.389" style="fill:none;stroke:red;stroke-width:1.33333;stroke-linecap:round;stroke-linejoin:round;stroke-miterlimit:4;stroke-dasharray:none;stroke-opacity:1;visibility:visible"/><path d="m567.193 745.316.003 7.302c0 .698-1.099 1.266-2.456 1.268-1.36 0-2.461-.568-2.46-1.268l-.004-7.3M553.86 751.649l.003 7.303c0 .697-1.1 1.265-2.456 1.268-1.359 0-2.462-.568-2.459-1.268l-.005-7.3M565.852 746.956l-2.557 6.306" style="fill:none;stroke:red;stroke-width:.666665;stroke-linecap:round;stroke-linejoin:round;stroke-miterlimit:2;stroke-dasharray:none;stroke-opacity:1;visibility:visible"/><path d="M566.083 744.258c.666.227 1.109.618 1.109 1.058 0 .7-1.099 1.27-2.459 1.268-1.356.002-2.457-.566-2.457-1.266 0-.328.239-.625.637-.852M552.519 753.289l-2.559 6.307M553.096 750.734c.47.23.763.556.763.916 0 .699-1.1 1.269-2.459 1.267-1.356.003-2.457-.565-2.457-1.267 0-.348.273-.666.717-.894M555.803 756.01c-.024-.63 1.122-1.182 2.562-1.24 1.435-.054 2.623.41 2.648 1.038" style="fill:none;stroke:red;stroke-width:.666665;stroke-linecap:round;stroke-linejoin:round;stroke-miterlimit:2;stroke-dasharray:none;stroke-opacity:1;visibility:visible"/><path d="M561.012 755.808c.024.628-1.123 1.182-2.56 1.237-1.44.055-2.625-.41-2.65-1.035" style="fill:none;stroke:red;stroke-width:.999997;stroke-linecap:round;stroke-linejoin:round;stroke-miterlimit:2;stroke-dasharray:none;stroke-opacity:1;visibility:visible"/><path d="M590.927 844.606s60.587 28.333 88.231 49.528M609.598 828.707a741.22 741.22 0 0 1 6.258 3.136" style="fill:none;stroke:red;stroke-width:1.33333;stroke-linecap:round;stroke-linejoin:round;stroke-miterlimit:4;stroke-dasharray:none;stroke-opacity:1;visibility:visible"/><path d="M636.081 842.382c13.581 7.27 30.269 16.604 45.38 26.183 0 0 9.417 5.405 13.383 11.514 0 .001 1.318 1.798 1.036 6.224l-1.747 18.66s-.461 5.99-7.833 11.518l-140.984 110.114c-8.985 5.068-9.907-3.227-9.907-3.227l.462-19.12s-.688-2.572 1.492-4.164" style="fill:none;stroke:red;stroke-width:1.33333;stroke-linecap:round;stroke-linejoin:round;stroke-miterlimit:4;stroke-dasharray:none;stroke-opacity:1;visibility:visible"/><path d="M695.994 886.591c-.661 2.847-2.661 6.915-8.312 10.769l-140.526 106.2s-7.83 5.99-11.519-1.384" style="fill:none;stroke:red;stroke-width:.666665;stroke-linecap:round;stroke-linejoin:round;stroke-miterlimit:4;stroke-dasharray:none;stroke-opacity:1;visibility:visible"/><path d="M686.88 880.595c1.494 2.85 1.784 6.388-2.424 9.623L562.36 980.29" style="fill:none;stroke:red;stroke-width:1.33333;stroke-linecap:round;stroke-linejoin:round;stroke-miterlimit:4;stroke-dasharray:none;stroke-opacity:1;visibility:visible"/><path d="M543.47 1007.014v19.12M560.519 991.58l-15.259 11.164s-5.705 1.97-6.165-2.18M604.978 832.166s47.456 22.115 76.943 42.85c0-.001 3.257 2.342 4.959 5.579" style="fill:none;stroke:red;stroke-width:.666665;stroke-linecap:round;stroke-linejoin:round;stroke-miterlimit:4;stroke-dasharray:none;stroke-opacity:1;visibility:visible"/><path d="m526.64 852.755-51.073 22.635M529.085 827.422l-67.473 28.818" style="fill:none;stroke:red;stroke-width:1.33333;stroke-linecap:round;stroke-linejoin:round;stroke-miterlimit:4;stroke-dasharray:none;stroke-opacity:1;visibility:visible"/><path d="m528.419 833.643-66.11 28.047" style="fill:none;stroke:red;stroke-width:.666665;stroke-linecap:round;stroke-linejoin:round;stroke-miterlimit:4;stroke-dasharray:none;stroke-opacity:1;visibility:visible"/><path d="m363.476 876.917 1.204 16.84s0 4.213 4.512 4.213l29.472 2.103s23.162.002 36.998-7.518l15.038-6.405" style="fill:none;stroke:red;stroke-width:1.33333;stroke-linecap:round;stroke-linejoin:round;stroke-miterlimit:4;stroke-dasharray:none;stroke-opacity:1;visibility:visible"/><path d="m363.916 879.095 29.47 2.107s12.33 0 15.34-1.203" style="fill:none;stroke:red;stroke-width:.666665;stroke-linecap:round;stroke-linejoin:round;stroke-miterlimit:4;stroke-dasharray:none;stroke-opacity:1;visibility:visible"/><path d="M358.875 670.788c-27.307-.32-54.36-5.17-54.36-5.17-19.665-3.333-40-13.333-40-13.333l-19.665-11.333-7.001 1 2 17.333 17.666 10.667s22.335 17 66 19.666c0 0 49.333 3.334 65 4l38.665 2s24.334 1.334 48 12c0 0 33 13 56.333.667l7.334-4.333" style="fill:none;stroke:red;stroke-width:1.33333;stroke-linecap:round;stroke-linejoin:round;stroke-miterlimit:4;stroke-dasharray:none;stroke-opacity:1;visibility:visible"/><path d="m612.513 639.95-88 46.668c-17.333 8.999-40.333.332-40.333.332l-16.333-5.333c-18.333-7-44.667-8.667-44.667-8.667l-52.664-2.333a187.68 187.68 0 0 1-3.6.123" style="fill:none;stroke:red;stroke-width:1.33333;stroke-linecap:round;stroke-linejoin:round;stroke-miterlimit:4;stroke-dasharray:none;stroke-opacity:1;visibility:visible"/><path d="m237.85 641.95 20 12.699s26.667 13.301 52.333 15.635c0 0 34.667 3.333 50 3.333l63.997 3s22.667 1.667 40 8.333l15.667 5.334s28 11 53.333-2.334l89.333-48.333 9.237-4.36" style="fill:none;stroke:red;stroke-width:.666665;stroke-linecap:round;stroke-linejoin:round;stroke-miterlimit:4;stroke-dasharray:none;stroke-opacity:1;visibility:visible"/><path d="m620.901 635.879 9.945-4.262 2.31.607" style="fill:none;stroke:red;stroke-width:1.33333;stroke-linecap:round;stroke-linejoin:round;stroke-miterlimit:4;stroke-dasharray:none;stroke-opacity:1;visibility:visible"/><path d="m467.01 681.445-2.531 1.15 13.474 4.494-2.765 1.383.159 19.236" style="fill:none;stroke:red;stroke-width:.666665;stroke-linecap:round;stroke-linejoin:round;stroke-miterlimit:4;stroke-dasharray:none;stroke-opacity:1;visibility:visible"/><path d="M276.98 823.397c-25.402-73.943-23.11-153.165-23.11-153.165l-.033-2.14M244.058 662.822s-.763 91.444 23.956 156.91" style="fill:none;stroke:red;stroke-width:1.33333;stroke-linecap:round;stroke-linejoin:round;stroke-miterlimit:4;stroke-dasharray:none;stroke-opacity:1;visibility:visible"/><path d="m273.869 825.16 3.138-1.381M250.22 666.04l-.048 4.32s-2.322 80.142 23.547 154.433" style="fill:none;stroke:red;stroke-width:.666665;stroke-linecap:round;stroke-linejoin:round;stroke-miterlimit:4;stroke-dasharray:none;stroke-opacity:1;visibility:visible"/><path d="M295.847 686.458s-3.677 83.73 18.664 161.685M280.113 681.524s-3.148 79.778 20.06 163.526" style="fill:none;stroke:red;stroke-width:1.33333;stroke-linecap:round;stroke-linejoin:round;stroke-miterlimit:4;stroke-dasharray:none;stroke-opacity:1;visibility:visible"/><path d="m291.698 684.898-.033 1.664s-3.743 85.255 19.278 163.798l3.482-1.993" style="fill:none;stroke:red;stroke-width:.666665;stroke-linecap:round;stroke-linejoin:round;stroke-miterlimit:4;stroke-dasharray:none;stroke-opacity:1;visibility:visible"/><path d="m266.11 817.007-2.405 1 1.505 14.198 17.37 16.204s19.376 18.038 51.95 24.388c0 0 8.518 2.338 28.23 3.673l64.47 4.177s22.617 2.303 34.284 9.136l17 9.334s18.832 12.833 42.832 3.5c.001 0 7.834-3.334 10.834-6.5l8.5-7.834" style="fill:none;stroke:red;stroke-width:1.33333;stroke-linecap:round;stroke-linejoin:round;stroke-miterlimit:4;stroke-dasharray:none;stroke-opacity:1;visibility:visible"/><path d="M314.653 847.574s16.533 6.513 31.903 8.183l14.698 1.672M276.566 822.351s12.861 12.862 21.55 17.539" style="fill:none;stroke:red;stroke-width:1.33333;stroke-linecap:round;stroke-linejoin:round;stroke-miterlimit:4;stroke-dasharray:none;stroke-opacity:1;visibility:visible"/><path d="m263.873 818.677 17.705 16.37s15.365 12.861 34.91 18.541c-.001.001 15.032 5.512 44.597 8.185l59.298 4.007s18.796.337 34.463 5.837c0 0 8.166 3.333 15.333 7.5l10.833 6s17.168 10 37 3.5c0 0 5.5-1.5 10.281-4.604l13-11M273.655 824.995l-5.518-5.028M310.943 850.36l-10.49-4.958" style="fill:none;stroke:red;stroke-width:.666665;stroke-linecap:round;stroke-linejoin:round;stroke-miterlimit:4;stroke-dasharray:none;stroke-opacity:1;visibility:visible"/><path d="M380.732 858.791c-3.65-26.625-13.606-105.19-12.972-165.821M347.546 691.718c.252 8.815 3.073 98.745 14.688 168.31" style="fill:none;stroke:red;stroke-width:1.33333;stroke-linecap:round;stroke-linejoin:round;stroke-miterlimit:4;stroke-dasharray:none;stroke-opacity:1;visibility:visible"/><path d="M364.546 692.997c-.654 62.373 9.901 143.726 13.27 167.986" style="fill:none;stroke:red;stroke-width:.666665;stroke-linecap:round;stroke-linejoin:round;stroke-miterlimit:4;stroke-dasharray:none;stroke-opacity:1;visibility:visible"/><path d="m362.646 860.325 15.177 1.024 2.697-2.264" style="fill:none;stroke:red;stroke-width:.666665;stroke-linecap:round;stroke-linejoin:round;stroke-miterlimit:4;stroke-dasharray:none;stroke-opacity:1;visibility:visible"/><path d="m464.514 870.117 18 9.666s13.166 8.5 24.832 6.5c.001 0 9.667-1.166 15.834-5.166M381.183 858.729l44.443 2.778s15.224 1.223 20.666 2.888" style="fill:none;stroke:red;stroke-width:1.33333;stroke-linecap:round;stroke-linejoin:round;stroke-miterlimit:4;stroke-dasharray:none;stroke-opacity:1;visibility:visible"/><path d="M478.427 883.787v15.536M478.47 883.658l2.71-1.541-12.167-6.834 2.167-1.01" style="fill:none;stroke:red;stroke-width:.666665;stroke-linecap:round;stroke-linejoin:round;stroke-miterlimit:4;stroke-dasharray:none;stroke-opacity:1;visibility:visible"/><path d="M459.243 702.321c-1.853 28.82-6.59 120.762 4.615 168.352M440.646 698.098c-1.891 25.312-5.646 97.948 6.472 169.232" style="fill:none;stroke:red;stroke-width:1.33333;stroke-linecap:round;stroke-linejoin:round;stroke-miterlimit:4;stroke-dasharray:none;stroke-opacity:1;visibility:visible"/><path d="M460.092 871.718c-11.7-47.95-6.588-143.112-4.79-170.658" style="fill:none;stroke:red;stroke-width:.666665;stroke-linecap:round;stroke-linejoin:round;stroke-miterlimit:4;stroke-dasharray:none;stroke-opacity:1;visibility:visible"/><path d="m447.566 867.63 12.44 4.472 3.497-1.339" style="fill:none;stroke:red;stroke-width:.666665;stroke-linecap:round;stroke-linejoin:round;stroke-miterlimit:4;stroke-dasharray:none;stroke-opacity:1;visibility:visible"/><path d="M525.847 710.95s15.333 85-2 169.333M612.99 661.37l6.414-3.64s4.064-2.266 7.033-3.597" style="fill:none;stroke:red;stroke-width:1.33333;stroke-linecap:round;stroke-linejoin:round;stroke-miterlimit:4;stroke-dasharray:none;stroke-opacity:1;visibility:visible"/><path d="M533.897 709.252s15.334 85-2 169.333l-.416 1.578" style="fill:none;stroke:red;stroke-width:.666665;stroke-linecap:round;stroke-linejoin:round;stroke-miterlimit:4;stroke-dasharray:13.3333,3.99999;stroke-dashoffset:0;stroke-opacity:1;visibility:visible"/><path d="m610.513 811.617 8.05-6.274" style="fill:none;stroke:red;stroke-width:.666665;stroke-linecap:round;stroke-linejoin:round;stroke-miterlimit:4;stroke-dasharray:none;stroke-opacity:1;visibility:visible"/><path d="M621.373 698.76c.041 11.804-.397 71.72-13.067 113.213" style="fill:none;stroke:red;stroke-width:.666665;stroke-linecap:round;stroke-linejoin:round;stroke-miterlimit:4;stroke-dasharray:13.3333,3.99999;stroke-dashoffset:0;stroke-opacity:1;visibility:visible"/><path d="M567.07 850.789s36.444-31.606 51.777-43.16M566.847 848.926l44.19-37.341M523.959 880.84l3.716 1.608 13.508-11.586" style="fill:none;stroke:red;stroke-width:.666665;stroke-linecap:round;stroke-linejoin:round;stroke-miterlimit:4;stroke-dasharray:none;stroke-opacity:1;visibility:visible"/><path d="m566.18 865.95 40.89-36s7.776-7.33 10.667-8.443" style="fill:none;stroke:red;stroke-width:1.33333;stroke-linecap:round;stroke-linejoin:round;stroke-miterlimit:4;stroke-dasharray:none;stroke-opacity:1;visibility:visible"/><path d="M617.961 639.287c.47.197.763.476.735.753-.047.46-.936.747-1.984.643-1.054-.104-1.866-.56-1.822-1.02.03-.259.331-.463.782-.573" style="fill:none;stroke:red;stroke-width:.666665;stroke-linecap:round;stroke-linejoin:round;stroke-miterlimit:2;stroke-dasharray:none;stroke-opacity:1;visibility:visible"/><path d="m696.224 885.409 6.486 4.396-1.052 11.562-7.013 2.854" style="fill:none;stroke:red;stroke-width:1.33333;stroke-linecap:round;stroke-linejoin:round;stroke-miterlimit:4;stroke-dasharray:none;stroke-opacity:1;visibility:visible"/><path d="M561.959 771.64c.773.309.909 1.805.297 3.34-.61 1.536-1.737 2.53-2.513 2.224M552.012 987.051c-.77-.31-.904-1.803-.292-3.341.612-1.536 1.735-2.531 2.508-2.224M554.23 981.487c.772.307.908 1.805.296 3.341-.609 1.536-1.737 2.532-2.513 2.224M697.038 892.307l-1.49-.546M702.71 889.805l-5.672 2.502-.956 11.07" style="fill:none;stroke:red;stroke-width:.666665;stroke-linecap:round;stroke-linejoin:round;stroke-miterlimit:4;stroke-dasharray:none;stroke-opacity:1;visibility:visible"/><path d="M559.743 777.204c-.771-.307-.904-1.804-.293-3.34.613-1.534 1.735-2.531 2.509-2.222M628.112 646.375c-.352 2.355-1.77 4.094-3.164 3.885-1.399-.209-2.248-2.284-1.899-4.64.355-2.357 1.771-4.095 3.172-3.885 1.399.205 2.243 2.284 1.89 4.64h.001M540.237 695.888c-.434 2.922-2.197 5.081-3.926 4.822-1.735-.26-2.787-2.836-2.355-5.758.437-2.924 2.197-5.079 3.935-4.82 1.734.256 2.781 2.834 2.346 5.756M615.737 817.837c-.317 2.13-1.601 3.702-2.861 3.516-1.264-.19-2.032-2.068-1.718-4.199.322-2.13 1.603-3.7 2.868-3.512 1.266.188 2.028 2.065 1.711 4.195M537.737 884.947c-.317 2.13-1.601 3.703-2.861 3.516-1.264-.19-2.032-2.068-1.717-4.198.321-2.13 1.601-3.7 2.868-3.512 1.265.186 2.028 2.065 1.71 4.194M473.985 886.574c.858 1.976.6 3.99-.57 4.496-1.175.511-2.818-.679-3.675-2.653-.856-1.977-.599-3.988.573-4.5 1.172-.507 2.815.685 3.672 2.658v-.001M469.143 695.04c.677 2.046.24 4.028-.973 4.43-1.213.4-2.743-.93-3.42-2.977-.678-2.041-.24-4.025.974-4.427 1.21-.4 2.742.932 3.419 2.974" style="fill:none;stroke:red;stroke-width:.999997;stroke-linecap:round;stroke-linejoin:round;stroke-miterlimit:4;stroke-dasharray:none;stroke-opacity:1;visibility:visible"/><path d="m633.156 632.224-2.498 9.219" style="fill:none;stroke:red;stroke-width:.666665;stroke-linecap:round;stroke-linejoin:round;stroke-miterlimit:4;stroke-dasharray:none;stroke-opacity:1;visibility:visible"/><path d="m649.945 638.975 1.6 7.682M644.458 642.617l6.062 1.883M650.52 644.5l-6.062-1.883M633.156 632.224l4.502 8.283M628.112 646.375l1.058 8.486" style="fill:none;stroke:red;stroke-width:1.33333;stroke-linecap:round;stroke-linejoin:round;stroke-miterlimit:4;stroke-dasharray:none;stroke-opacity:1;visibility:visible"/><path d="m642.768 643.42-5.454-8.287M642.768 643.42l-9.524-8.62M651.545 646.657l-1.6-7.682M642.768 643.42l3.106-4.776M646.177 645.288l-10.084-8.889M648.724 640.241l-15.174 1.204M633.55 641.445l15.174-1.204M636.093 636.399l10.084 8.889M651.545 646.657l-8.777-3.237M645.874 638.644l-3.106 4.776" style="fill:none;stroke:red;stroke-width:.666665;stroke-linecap:round;stroke-linejoin:round;stroke-miterlimit:2;stroke-dasharray:none;stroke-opacity:1;visibility:visible"/><path d="m543.47 1007.014 1.79-4.27" style="fill:none;stroke:red;stroke-width:.666665;stroke-linecap:round;stroke-linejoin:round;stroke-miterlimit:4;stroke-dasharray:none;stroke-opacity:1;visibility:visible"/><path d="m549.66 750.756 4.947 3.144M554.607 753.9l-6.375 3.108" style="fill:none;stroke:red;stroke-width:1.33333;stroke-linecap:round;stroke-linejoin:round;stroke-miterlimit:4;stroke-dasharray:none;stroke-opacity:1;visibility:visible"/><path d="m561.013 755.808 6.18-10.492M561.013 755.808l1.263-10.49M555.803 756.01l-1.943-4.361M555.803 756.01l-6.86-4.358M552.519 753.289l10.776-.027M554.607 753.9l8.306-9.434M563.295 753.262l-10.776.027M554.607 753.9l-4.947-3.144" style="fill:none;stroke:red;stroke-width:.666665;stroke-linecap:round;stroke-linejoin:round;stroke-miterlimit:2;stroke-dasharray:none;stroke-opacity:1;visibility:visible"/><path d="m696.224 885.409-17.066 8.725M560.519 991.58l1.841-11.29" style="fill:none;stroke:red;stroke-width:1.33333;stroke-linecap:round;stroke-linejoin:round;stroke-miterlimit:4;stroke-dasharray:none;stroke-opacity:1;visibility:visible"/><path d="m545.26 1002.744-1.79 4.27M615.856 831.843l-10.878.323" style="fill:none;stroke:red;stroke-width:.666665;stroke-linecap:round;stroke-linejoin:round;stroke-miterlimit:4;stroke-dasharray:none;stroke-opacity:1;visibility:visible"/><path d="m471.18 874.273 4.387 1.117M463.503 870.763l-1.891-14.523" style="fill:none;stroke:red;stroke-width:1.33333;stroke-linecap:round;stroke-linejoin:round;stroke-miterlimit:4;stroke-dasharray:none;stroke-opacity:1;visibility:visible"/><path d="m463.503 870.763-1.194-9.073" style="fill:none;stroke:red;stroke-width:.666665;stroke-linecap:round;stroke-linejoin:round;stroke-miterlimit:4;stroke-dasharray:none;stroke-opacity:1;visibility:visible"/><path d="m366.916 670.74-8.041.048M620.901 635.879l-8.388 4.071M358.875 670.788l8.041-.048" style="fill:none;stroke:red;stroke-width:1.33333;stroke-linecap:round;stroke-linejoin:round;stroke-miterlimit:4;stroke-dasharray:none;stroke-opacity:1;visibility:visible"/><path d="m620.901 635.879 10.849-.622" style="fill:none;stroke:red;stroke-width:.666665;stroke-linecap:round;stroke-linejoin:round;stroke-miterlimit:4;stroke-dasharray:none;stroke-opacity:1;visibility:visible"/><path d="m612.513 639.95 8.388-4.071M637.658 640.507l-4.502-8.283" style="fill:none;stroke:red;stroke-width:1.33333;stroke-linecap:round;stroke-linejoin:round;stroke-miterlimit:4;stroke-dasharray:none;stroke-opacity:1;visibility:visible"/><path d="m459.243 702.321 16.104 5.387" style="fill:none;stroke:red;stroke-width:.666665;stroke-linecap:round;stroke-linejoin:round;stroke-miterlimit:4;stroke-dasharray:none;stroke-opacity:1;visibility:visible"/><path d="m250.22 666.04-6.162-3.218M291.698 684.898l4.149 1.56M291.698 684.898l-11.585-3.374M273.869 825.16l-7.759-8.153M362.646 860.325l-1.392-2.896M273.655 824.995l2.911-2.644M300.453 845.402l-2.337-5.512" style="fill:none;stroke:red;stroke-width:1.33333;stroke-linecap:round;stroke-linejoin:round;stroke-miterlimit:4;stroke-dasharray:none;stroke-opacity:1;visibility:visible"/><path d="m273.655 824.995-9.782-6.318" style="fill:none;stroke:red;stroke-width:.666665;stroke-linecap:round;stroke-linejoin:round;stroke-miterlimit:4;stroke-dasharray:none;stroke-opacity:1;visibility:visible"/><path d="m447.566 867.63-1.274-3.235" style="fill:none;stroke:red;stroke-width:1.33333;stroke-linecap:round;stroke-linejoin:round;stroke-miterlimit:4;stroke-dasharray:none;stroke-opacity:1;visibility:visible"/><path d="m473.985 886.574 4.442 12.749M475.567 875.39l-4.387-1.117" style="fill:none;stroke:red;stroke-width:.666665;stroke-linecap:round;stroke-linejoin:round;stroke-miterlimit:4;stroke-dasharray:none;stroke-opacity:1;visibility:visible"/><path d="m475.347 707.708-16.104-5.387M620.901 635.879l5.536 18.254" style="fill:none;stroke:red;stroke-width:1.33333;stroke-linecap:round;stroke-linejoin:round;stroke-miterlimit:4;stroke-dasharray:none;stroke-opacity:1;visibility:visible"/><path d="m610.513 811.617 8.334-3.988M567.07 850.789l-.223-1.863" style="fill:none;stroke:red;stroke-width:.666665;stroke-linecap:round;stroke-linejoin:round;stroke-miterlimit:4;stroke-dasharray:none;stroke-opacity:1;visibility:visible"/><path d="m567.07 850.789-.89 15.161M679.158 894.134l17.066-8.725M702.71 889.805l-8.065 14.416" style="fill:none;stroke:red;stroke-width:1.33333;stroke-linecap:round;stroke-linejoin:round;stroke-miterlimit:4;stroke-dasharray:none;stroke-opacity:1;visibility:visible"/><path d="m694.645 904.221 8.065-14.416" style="fill:none;stroke:red;stroke-width:.666665;stroke-linecap:round;stroke-linejoin:round;stroke-miterlimit:4;stroke-dasharray:none;stroke-opacity:1;visibility:visible"/><path d="m629.17 654.861-1.058-8.486M523.847 880.283l13.89 4.664M478.427 899.323l-4.442-12.749" style="fill:none;stroke:red;stroke-width:.999997;stroke-linecap:round;stroke-linejoin:round;stroke-miterlimit:4;stroke-dasharray:none;stroke-opacity:1;visibility:visible"/><path d="m355.315 612.728-8.473-.273s-9.322-1.482-9.535 2.754l2.24 23.306s.516 3.814 3.904 3.814l35.383.847s20.973 1.27 43.012-3.812l130.089-30.721s7.175-1.548 16.278-2.403M584.427 605.855c2.786.182 5.488.528 7.976 1.092 0 0 77.545 19.492 94.07 26.906" style="fill:none;stroke:#00ff4a;stroke-width:1.33333;stroke-linecap:round;stroke-linejoin:round;stroke-miterlimit:4;stroke-dasharray:none;stroke-opacity:1;visibility:visible" visibility="hidden"/><path d="M719.524 619.023c0 2.544-2.542 3.814-2.542 3.814l-171.19 66.95s-2.965.848-2.965 5.299l-1.272 27.751s1.482 5.933 10.169 3.816l169.709-74.488c4.236-1.817 4.236-6.658 4.236-6.658l2.753-22.67c.424-1.905-1.482-4.661-1.482-4.661-1.906-3.18-14.62-7.627-14.62-7.627-19.84-6.562-65.957-17.854-90.2-23.654M622.118 586.895c-6.58-1.566-15.524-3.678-15.524-3.678-14.587-3.314-28.284-3.665-38.973-3.037M548.412 582.623a58.484 58.484 0 0 0-2.621.594l-131.784 27.12c-13.14 2.967-34.325 3.178-34.325 3.178l-19.388-.626" style="fill:none;stroke:#00ff4a;stroke-width:1.33333;stroke-linecap:round;stroke-linejoin:round;stroke-miterlimit:4;stroke-dasharray:none;stroke-opacity:1;visibility:visible" visibility="hidden"/><path d="M728.212 620.932s.21 2.33-3.392 4.448l-169.915 68.857s-9.537 3.39-12.078-1.06M718.04 622.624c6.359-4.448-7.414-8.474-7.414-8.474-27.757-10.381-113.563-29.662-113.563-29.662-9.294-2.064-20.327-1.955-28.49-1.42M550.86 585.55l-131.768 28.177c-12.926 2.966-36.232 3.602-36.232 3.602l-41.418-1.112s-4.008-.217-4.134-1.007" style="fill:none;stroke:#00ff4a;stroke-width:.666665;stroke-linecap:round;stroke-linejoin:round;stroke-miterlimit:4;stroke-dasharray:none;stroke-opacity:1;visibility:visible" visibility="hidden"/><path d="m729.04 624.924 6.324 4.628-1.469 11.515-7.111 2.6" style="fill:none;stroke:#00ff4a;stroke-width:1.33333;stroke-linecap:round;stroke-linejoin:round;stroke-miterlimit:4;stroke-dasharray:none;stroke-opacity:1;visibility:visible" visibility="hidden"/><path d="m729.606 631.845-1.47-.601M735.363 629.55l-5.757 2.296-1.354 11.027" style="fill:none;stroke:#00ff4a;stroke-width:.666665;stroke-linecap:round;stroke-linejoin:round;stroke-miterlimit:4;stroke-dasharray:none;stroke-opacity:1;visibility:visible" visibility="hidden"/><path d="M555.803 689.061c-.024-.63 1.122-1.183 2.562-1.24 1.435-.055 2.623.41 2.648 1.037" style="fill:none;stroke:#00ff4a;stroke-width:.666665;stroke-linecap:round;stroke-linejoin:round;stroke-miterlimit:2;stroke-dasharray:none;stroke-opacity:1;visibility:visible" visibility="hidden"/><path d="M561.012 688.858c.024.628-1.123 1.183-2.56 1.238-1.44.054-2.625-.41-2.65-1.036" style="fill:none;stroke:#00ff4a;stroke-width:.999997;stroke-linecap:round;stroke-linejoin:round;stroke-miterlimit:2;stroke-dasharray:none;stroke-opacity:1;visibility:visible" visibility="hidden"/><path d="M359.18 613.988c.344.117.563.29.574.495.02.404-.798.776-1.828.827-1.032.055-1.884-.234-1.904-.64-.01-.203.19-.4.52-.55M550.156 696.37l-1.2 29.271" style="fill:none;stroke:#00ff4a;stroke-width:.666665;stroke-linecap:round;stroke-linejoin:round;stroke-miterlimit:4;stroke-dasharray:none;stroke-opacity:1;visibility:visible" visibility="hidden"/><path d="M643.01 594.077c.063-.636 1.298-1.033 2.763-.893 1.461.148 2.592.784 2.53 1.42" style="fill:none;stroke:#00ff4a;stroke-width:.666665;stroke-linecap:round;stroke-linejoin:round;stroke-miterlimit:2;stroke-dasharray:none;stroke-opacity:1;visibility:visible" visibility="hidden"/><path d="M648.302 594.603c-.06.636-1.3 1.036-2.76.893-1.46-.145-2.597-.779-2.532-1.42" style="fill:none;stroke:#00ff4a;stroke-width:.999997;stroke-linecap:round;stroke-linejoin:round;stroke-miterlimit:2;stroke-dasharray:none;stroke-opacity:1;visibility:visible" visibility="hidden"/><path d="m360.294 612.889-4.979-.161M355.315 612.728l4.979.161M735.363 629.55l-8.579 14.117" style="fill:none;stroke:#00ff4a;stroke-width:1.33333;stroke-linecap:round;stroke-linejoin:round;stroke-miterlimit:4;stroke-dasharray:none;stroke-opacity:1;visibility:visible" visibility="hidden"/><path d="m726.784 643.667 8.579-14.117M555.803 689.061l-5.647 7.309" style="fill:none;stroke:#00ff4a;stroke-width:.666665;stroke-linecap:round;stroke-linejoin:round;stroke-miterlimit:4;stroke-dasharray:none;stroke-opacity:1;visibility:visible" visibility="hidden"/><path d="m633.55 641.445-1.736-1.786M548.232 757.008l13.416-6.54M610.513 811.617l7.224 9.89" style="fill:none;stroke:red;stroke-width:1.33333;stroke-linecap:round;stroke-linejoin:round;stroke-miterlimit:4;stroke-dasharray:none;stroke-opacity:1;visibility:visible"/></svg>