<svg xmlns="http://www.w3.org/2000/svg" baseProfile="full" height="1122.52" preserveAspectRatio="xMinYMin meet" style="width:602px;height:832px" width="793.701" xml:space="preserve"><path d="M301.309 967.798C288.303 911 275.59 841.746 276.05 755.782l-2.88-1.002M255.374 756.534l-2.68.706c-.27 83.663 13.377 159.127 28.221 218.622" style="fill:none;stroke:red;stroke-width:1.33333;stroke-linecap:round;stroke-linejoin:round;stroke-miterlimit:4;stroke-dasharray:none;stroke-opacity:1;visibility:visible"/><path d="M284.117 976.691c-14.844-59.492-28.524-133.8-28.252-217.463l-3.17-1.231" style="fill:none;stroke:red;stroke-width:.666665;stroke-linecap:round;stroke-linejoin:round;stroke-miterlimit:4;stroke-dasharray:none;stroke-opacity:1;visibility:visible"/><path d="M365.832 940.284c-5.904-38.737-14.854-103.244-16.976-197.642l-3.474-.625M327.645 744.044l-1.79.24c2.123 94.398 13.261 162.723 19.165 201.46" style="fill:none;stroke:red;stroke-width:1.33333;stroke-linecap:round;stroke-linejoin:round;stroke-miterlimit:4;stroke-dasharray:none;stroke-opacity:1;visibility:visible"/><path d="M347.302 946.315c-5.904-38.737-17.323-106.122-19.445-200.52l18.809-2.015" style="fill:none;stroke:red;stroke-width:.666665;stroke-linecap:round;stroke-linejoin:round;stroke-miterlimit:4;stroke-dasharray:none;stroke-opacity:1;visibility:visible"/><path d="M343.018 751.066c2.19 82.53 11.568 144.675 17.47 182.898l-8.878 2.816c-5.889-38.14-15.472-100.777-17.759-184.35l9.167-1.364" style="fill:none;fill-opacity:1;fill-rule:nonzero;stroke:red;stroke-width:1.33333;visibility:visible"/><path d="M343.018 751.066c2.19 82.53 11.568 144.675 17.47 182.898l-8.878 2.816c-5.889-38.14-15.472-100.777-17.759-184.35l9.167-1.364" style="fill:none;stroke:red;stroke-width:.666665;stroke-linecap:round;stroke-linejoin:round;stroke-miterlimit:4;stroke-dasharray:none;stroke-opacity:1;visibility:visible"/><path d="m352.428 922.863.495-1.89M349.14 914.32l1.243-.2M350.636 907.555l-.336 2.096M356.372 913.329l-.872.794M356.306 916.451l-.623-1.321M353.57 909.853l-.896-.886M354.611 913.28l-.107 2.03M351.7 915.254l.49 1.339M350.18 918.383l.962.318M353.95 918.889l-.454-.949M351.5 911.785l-.546-1.64M355.13 912.853l1.106-1.413M354.736 912.298l-.14-1.755M356.496 924.42l.81-1.79M357.83 919.431l-1.255-.805M355.362 934.152l.494-1.89M353.202 925.298l1.245-.203M351.616 920.558l-.336 2.099M357.632 920.831l-.892-.885M357.903 924.836l-.103 2.028M355.764 926.232l.49 1.342M354.244 929.366l.964.317M358.015 929.867l-.453-.947M355.562 922.766l-.544-1.64M357.075 931.547l-.455-.947M351.416 927.691l1.67-1.276M352.28 932.494l1.003-1.555M349.595 907.38l-.967-.23M351.554 904.443l-.872.798M351.346 923.935l-.104 2.776M359.308 932.727l-.62-1.323M353.142 919.571l-.896-.885M353.39 927.336l-1.14 1.907M356.944 933.834l1.008-1.558M355.368 925.003l-.14-1.752M352.12 935.872l.807-1.789M355.124 930.883l-.969-.232M357.08 927.948l-.874.795M355.38 907.058l-.145-1.415M354.316 909.593l1.246-.203M351.863 906.298l-.336 2.099M354.586 917.418l.964.317M354.814 908.323l-.454-.945M352.926 906.206l1.672-1.273M352.92 904.627l1.107-1.412M352.624 914.183l1.006-1.553M353.442 895.878l-.143-1.415M348.808 887.49l-.896-.885M351.72 894.353l-.453-.948M350.88 892.71l1.67-1.276M348.575 889.785l1.107-1.412M349.554 908.683l-.875.798M349.16 905.787l-.895-.887M350.372 910.951l-1.14 1.904M350.754 915.657l-.967-.235M352.808 911.657l-.872.797M348.794 903.686l.494-1.89M346.635 893.1l1.243-.204M351.026 885.465l-.339 2.098M351.064 890.369l-.896-.889M352.108 893.793 352 895.82M348.231 896.154l.492 1.339M347.674 898.9l.964.316M351.444 899.402l-.453-.948M348.994 892.3l-.544-1.64M347.666 901.926l1.008-1.557M352.906 890.498l-.14-1.752M353.023 901.823l.81-1.79M353.676 898.607l-1.254-.805M346.983 890.194l.497-1.89M344.826 881.345l1.244-.206M345.65 877.37l-.336 2.1M349.458 878.134l-.872.796M351.952 882.71l-.617-1.323M349.256 876.877l-.896-.887M350.3 880.303l-.109 2.027M347.387 882.277l.493 1.338M345.866 885.407l.961.32M349.64 885.913l-.458-.948M347.184 878.809l-.54-1.64M346.288 883.931l-.453-.948M347.184 881.035l1.67-1.273M351.53 877.607l-1.143 1.907M350.906 876.815l-.14-1.754M351.512 889.517l.81-1.792M350.851 884.145l-.967-.235M352.84 885.394l-1.257-.805M347.322 890.923l-.875.798M350.3 900.027l-.62-1.322M348.236 893.96l-1.14 1.908M350.944 903.257l.81-1.79M350.452 894.427l-.969-.234M350.866 895.534l-.876.796M343.135 857.974l-.145-1.412M347.603 862.137l.495-1.891M345.444 853.285l1.243-.203M343.858 848.543l-.336 2.097M347.946 846.793l-.896-.888M344.556 853.88l-.106 2.03M348.007 854.217l.49 1.338M346.483 857.347l.964.318M349.195 858.431l-.453-.948M347.803 850.747l-.543-1.637M342.403 854.227l1.67-1.273M344.523 860.478l1.005-1.555M347.2 868.957l-.145-1.415M350.22 873.79l.495-1.89M348.254 865.902l1.245-.203M347.054 858.751l-.336 2.099M349.68 867.943l.965.318M349.362 862.886l-.544-1.64M345.475 867.427l-.453-.947M345.116 864.725l1.672-1.275M343.583 863.73l1.107-1.41M348.586 871.457l1.008-1.555M344.382 876.383l.494-1.893M347.72 864.71l-.874.795M345.59 870.149l-.62-1.323M343.278 862.967l-.894-.885M344.322 866.394l-.107 2.028M345.266 872.607l.492 1.343M343.66 872.003l-.453-.948M349.696 866.3l-1.142 1.908M345.7 862.811l-.145-1.754M348.423 874.837l.81-1.79M347.764 870.525l-.966-.235M347.538 872.545l-1.255-.806M347.012 842.563l-.336 2.099M345.655 846.118l-.544-1.639M345.075 848.44l1.672-1.272M346.431 841.473l1.107-1.413M344.783 827.689l1.107-1.41M343.45 848.418l-.875.797M342.668 851.837l-.62-1.323M343.44 847.063l-.895-.888M345.423 850.014l-1.14 1.904M341.428 846.52l-.142-1.753M344.152 858.547l.81-1.792M346.483 854.235l-.97-.234M343.266 856.257l-1.252-.807M348.728 852.165l-.872.794M340.63 838.49l-.143-1.415M345.098 842.649l.494-1.891M342.94 833.798l1.243-.203M341.354 829.055l-.336 2.1M346.308 830.102l-.896-.888M346.292 831.407l-.109 2.028M345.502 834.733l.492 1.337M343.978 837.863l.964.318M347.078 838.657l-.454-.948M345.3 831.265l-.546-1.64M339.898 834.743l1.672-1.276M342.018 840.99l1.005-1.555M343.07 845.153l.812-1.79M338.822 824.998l-.143-1.412M343.291 829.157l.495-1.888M341.132 820.307l1.243-.205M339.546 815.566l-.336 2.099M340.934 822.733l-.62-1.323M345.562 815.84l-.896-.884M345.351 820.134l-.107 2.028M343.695 821.24l.49 1.343M342.171 824.374l.964.317M345.944 824.877l-.456-.948M343.488 817.774l-.54-1.64M338.09 821.251l1.672-1.273M340.7 818.326l1.105-1.41M340.207 827.5l1.008-1.553M344.898 818.863l-.14-1.753M341.506 832.298l-.876.795M340.726 835.714l-.62-1.323M343.48 833.891l-1.14 1.904M339.486 830.4l-.143-1.754M342.21 842.426l.81-1.79M345.215 837.438l-.97-.232M341.324 840.137l-1.254-.807M347.172 834.5l-.874.796M339.44 796.94l-.145-1.413M343.908 801.1l.495-1.892M340.69 793.405l1.242-.203M340.163 787.508l-.336 2.098M343 787.494l-.898-.888M342.77 793.662l.49 1.339M342.788 796.314l.964.317M342.127 809.153l-.453-.948M342.663 784.99l-.543-1.638M337.72 795.413l-.455-.946M338.707 793.191l1.673-1.273M336.496 792.678l1.11-1.412M340.827 799.44l1.005-1.553M344.635 809.269l-.143-1.415M343.152 814.585l.495-1.89M343.36 798.1l-.335 2.097M341.783 806.391l-.456-.948M342.772 804.174l1.67-1.276M339.887 802.694l1.107-1.41M338.76 815.251l.493-1.893M338.043 805.05l1.245-.205M344.506 804.251l-.876.795M343.244 807.09l-.617-1.323M339.586 801.934l-.896-.888M340.626 805.358l-.107 2.028M337.715 807.331l.492 1.342M339.966 810.967l-.454-.947M337.512 803.863l-.544-1.638M337.892 811.76l1.008-1.556M342.004 801.774l-.142-1.752M340.97 814.475l.81-1.789M343.843 811.511l-1.255-.806M339.898 783.46l-.454-.948M340.991 767.329l1.107-1.412M339.754 787.384l-.875.794M338.972 790.8l-.62-1.321M337.335 782.077l-.893-.888M336.74 787.238l-.106 2.028M337.622 798.435l-.454-.948M341.731 788.978l-1.143 1.904M337.732 785.486l-.142-1.754M340.458 797.511l.81-1.791M343.463 792.525l-.97-.235M339.572 795.22l-1.254-.807M342.835 789.837l.675 1.156M336.934 777.454l-.144-1.412M341.403 781.614l.495-1.89M339.244 772.76l1.246-.201M337.658 768.02l-.336 2.098M342.228 767.044l-.896-.888M340.96 784.153l-.109 2.027M341.807 773.697l.493 1.339M340.283 776.828l.964.317M342.803 778.777l-.453-.948M341.603 770.228l-.543-1.64M336.202 773.708l1.672-1.276M338.322 779.957l1.008-1.557M335.127 763.965l-.143-1.415M339.595 768.12l.495-1.886M337.436 759.272l1.244-.203M335.851 754.53l-.336 2.1M341.866 754.804l-.896-.886M341.56 757.074l-.106 2.028M340 760.204l.487 1.34M338.475 763.337l.965.317M342.25 763.84l-.454-.946M339.794 756.738l-.542-1.64M335.168 759.058l1.671-1.273M336.515 766.465l1.005-1.555M337.636 755.225l-.14-1.752M337.812 771.26l-.874.797M337.03 774.678l-.62-1.322M339.786 772.854l-1.14 1.904M335.791 769.364l-.143-1.752M338.518 781.389l.81-1.79M341.52 776.402l-.97-.232M337.63 779.1l-1.255-.807M342.9 770.957l-.874.797" style="fill:none;stroke:red;stroke-width:.333333;stroke-linecap:round;stroke-linejoin:round;stroke-miterlimit:4;stroke-dasharray:none;stroke-opacity:1;visibility:visible"/><path d="M433.99 735.832c1.01 52.333 6.705 163.09 9.085 188.674" style="fill:none;stroke:red;stroke-width:1.33333;stroke-linecap:round;stroke-linejoin:round;stroke-miterlimit:4;stroke-dasharray:none;stroke-opacity:1;visibility:visible"/><path d="M431.9 737.61c1.008 52.333 6.367 163.383 8.748 188.966" style="fill:none;stroke:red;stroke-width:.666665;stroke-linecap:round;stroke-linejoin:round;stroke-miterlimit:4;stroke-dasharray:none;stroke-opacity:1;visibility:visible"/><path d="M529.504 912.449c-7.383-72.566-4.659-134.973-.585-181.057l-1.936-.962M512.519 731.161l-1.829.153c-4.073 46.084-5.035 112.401 2.347 184.967M422.444 928.39c-2.773-26.473-9.24-155.39-10.773-190.657" style="fill:none;stroke:red;stroke-width:1.33333;stroke-linecap:round;stroke-linejoin:round;stroke-miterlimit:4;stroke-dasharray:none;stroke-opacity:1;visibility:visible"/><path d="m255.863 759.228 17.47-3.004" style="fill:none;stroke:red;stroke-width:.666665;stroke-linecap:round;stroke-linejoin:round;stroke-miterlimit:4;stroke-dasharray:none;stroke-opacity:1;visibility:visible"/><path d="m272.195 745.55-3.445-1.197-3.228.547M262.373 745.434l-6.8 1.156.04 10.496" style="fill:none;stroke:red;stroke-width:1.33333;stroke-linecap:round;stroke-linejoin:round;stroke-miterlimit:4;stroke-dasharray:none;stroke-opacity:1;visibility:visible"/><path d="m272.195 745.55-14.365 2.454.157 10.372-2.092-.924M257.827 748.004l-2.254-.875" style="fill:none;stroke:red;stroke-width:.666665;stroke-linecap:round;stroke-linejoin:round;stroke-miterlimit:4;stroke-dasharray:none;stroke-opacity:1;visibility:visible"/><path d="m272.086 755.722.11-10.172" style="fill:none;stroke:red;stroke-width:1.33333;stroke-linecap:round;stroke-linejoin:round;stroke-miterlimit:4;stroke-dasharray:none;stroke-opacity:1;visibility:visible"/><path d="M265.797 749.804c.805.27 1.169 1.352.809 2.412-.356 1.06-1.301 1.7-2.104 1.429" style="fill:none;stroke:red;stroke-width:.666665;stroke-linecap:round;stroke-linejoin:round;stroke-miterlimit:4;stroke-dasharray:none;stroke-opacity:1;visibility:visible"/><path d="M264.502 753.645c-.805-.268-1.17-1.35-.81-2.412.358-1.06 1.301-1.7 2.106-1.43" style="fill:none;stroke:red;stroke-width:.999997;stroke-linecap:round;stroke-linejoin:round;stroke-miterlimit:4;stroke-dasharray:none;stroke-opacity:1;visibility:visible"/><path d="m327.857 745.796-2-1.514" style="fill:none;stroke:red;stroke-width:.666665;stroke-linecap:round;stroke-linejoin:round;stroke-miterlimit:4;stroke-dasharray:none;stroke-opacity:1;visibility:visible"/><path d="m344.887 732.494-3.445-.817-2.306.259M335.93 732.294l-7.665.862.04 10.874" style="fill:none;stroke:red;stroke-width:1.33333;stroke-linecap:round;stroke-linejoin:round;stroke-miterlimit:4;stroke-dasharray:none;stroke-opacity:1;visibility:visible"/><path d="m330.52 734.192.157 11.128" style="fill:none;stroke:red;stroke-width:.666665;stroke-linecap:round;stroke-linejoin:round;stroke-miterlimit:4;stroke-dasharray:none;stroke-opacity:1;visibility:visible"/><path d="m344.775 742.668.112-10.175" style="fill:none;stroke:red;stroke-width:1.33333;stroke-linecap:round;stroke-linejoin:round;stroke-miterlimit:4;stroke-dasharray:none;stroke-opacity:1;visibility:visible"/><path d="M338.488 736.748c.806.27 1.167 1.349.81 2.412-.356 1.06-1.302 1.7-2.108 1.426" style="fill:none;stroke:red;stroke-width:.666665;stroke-linecap:round;stroke-linejoin:round;stroke-miterlimit:4;stroke-dasharray:none;stroke-opacity:1;visibility:visible"/><path d="M337.191 740.588c-.801-.268-1.166-1.35-.81-2.412.361-1.06 1.303-1.7 2.108-1.427" style="fill:none;stroke:red;stroke-width:.999997;stroke-linecap:round;stroke-linejoin:round;stroke-miterlimit:4;stroke-dasharray:none;stroke-opacity:1;visibility:visible"/><path d="m414.666 738.002 16.958-.48 2.414-1.928" style="fill:none;stroke:red;stroke-width:.666665;stroke-linecap:round;stroke-linejoin:round;stroke-miterlimit:10;stroke-dasharray:none;stroke-opacity:1;visibility:visible"/><path d="m414.9 737.326-.46-10.544 2.709-1.262 2.681-.02M423.79 725.47l6.693-.052.391 10.216M433.99 735.832l-2.607.021M414.228 736.54l-2.557 1.193" style="fill:none;stroke:red;stroke-width:1.33333;stroke-linecap:round;stroke-linejoin:round;stroke-miterlimit:10;stroke-dasharray:none;stroke-opacity:1;visibility:visible"/><path d="m510.692 731.314 2.303 1.894M527.11 732.224l-14.116.982c-4.077 46.084-5.039 110.508 2.343 183.074" style="fill:none;stroke:red;stroke-width:.666665;stroke-linecap:round;stroke-linejoin:round;stroke-miterlimit:4;stroke-dasharray:none;stroke-opacity:1;visibility:visible"/><path d="M526.296 731.67c.265-3.48.544-6.098.833-9.36l-2.024-1.004-3.537.295M518.352 721.87l-4.584.383c-.261 2.953-.543 5.641-.767 8.812" style="fill:none;stroke:red;stroke-width:1.33333;stroke-linecap:round;stroke-linejoin:round;stroke-miterlimit:4;stroke-dasharray:none;stroke-opacity:1;visibility:visible"/><path d="M423.682 731.452c.262.806-.388 1.742-1.454 2.088-1.065.349-2.14-.026-2.401-.836M515.455 723.64c-.252 2.846-.591 6.352-.81 9.382" style="fill:none;stroke:red;stroke-width:.666665;stroke-linecap:round;stroke-linejoin:round;stroke-miterlimit:4;stroke-dasharray:none;stroke-opacity:1;visibility:visible"/><path d="M419.827 732.704c-.265-.806.385-1.74 1.45-2.088 1.063-.347 2.141.028 2.406.836" style="fill:none;stroke:red;stroke-width:.999997;stroke-linecap:round;stroke-linejoin:round;stroke-miterlimit:4;stroke-dasharray:none;stroke-opacity:1;visibility:visible"/><path d="M521.348 726.054c.653.424.727 1.472.161 2.334-.565.861-1.549 1.21-2.202.781" style="fill:none;stroke:red;stroke-width:.666665;stroke-linecap:round;stroke-linejoin:round;stroke-miterlimit:4;stroke-dasharray:none;stroke-opacity:1;visibility:visible"/><path d="M538.59 918.025c-.572-.162-.81-1.091-.535-2.08.277-.987.966-1.659 1.537-1.499M519.305 729.168c-.648-.428-.724-1.47-.158-2.331.562-.86 1.549-1.213 2.2-.784" style="fill:none;stroke:red;stroke-width:.999997;stroke-linecap:round;stroke-linejoin:round;stroke-miterlimit:4;stroke-dasharray:none;stroke-opacity:1;visibility:visible"/><path d="M539.621 914.46c.574.16.81 1.09.534 2.077-.276.991-.963 1.662-1.535 1.501" style="fill:none;stroke:red;stroke-width:.666665;stroke-linecap:round;stroke-linejoin:round;stroke-miterlimit:10;stroke-dasharray:none;stroke-opacity:1;visibility:visible"/><path d="m280.803 975.29-7.065 3.484 2.639 19.409 5.95 2.347s11.856-6.4 22.219-11.956c10.361-5.56 16.296-9.424 35.514-17.808 19.22-8.383 52.844-18.619 83.894-22.836 31.049-4.22 55.911-6.343 72.643-8.435 16.864-2.107 31.716-6.957 40.25-11.9l.156-16.277-3.091-1.285" style="fill:none;stroke:red;stroke-width:1.33333;stroke-linecap:round;stroke-linejoin:round;stroke-miterlimit:4;stroke-dasharray:none;stroke-opacity:1;visibility:visible"/><path d="m533.912 910.033 10.492-4.766" style="fill:none;stroke:red;stroke-width:.666665;stroke-linecap:round;stroke-linejoin:round;stroke-miterlimit:4;stroke-dasharray:none;stroke-opacity:1;visibility:visible"/><path d="m537.004 925.607 7.208-3.606.019-1.616.057-4.892.117-10.227-2.313-.896-12.812 5.917" style="fill:none;stroke:red;stroke-width:1.33333;stroke-linecap:round;stroke-linejoin:round;stroke-miterlimit:4;stroke-dasharray:none;stroke-opacity:1;visibility:visible"/><path d="M279.775 981.06c15.972-8.177 42.725-22.526 63.807-30.702 19.778-7.672 53.157-16.443 76.284-19.383 23.128-2.939 52.87-6.068 64.657-7.195 21.337-2.045 35.905-5.113 52.481-12.462M273.74 978.774l6.034 2.286 2.553 19.468" style="fill:none;stroke:red;stroke-width:.666665;stroke-linecap:round;stroke-linejoin:round;stroke-miterlimit:4;stroke-dasharray:none;stroke-opacity:1;visibility:visible"/><path d="M301.16 964.566c13.108-7.41 27.887-13.424 43.64-19.27M366.655 938.054c14.167-4.139 30.35-7.534 45.033-9.482 3.194-.425 6.256-.824 9.196-1.204M444.099 924.465c18.541-2.136 30.413-3.11 37.868-3.88 8.652-.896 20.401-1.792 30.308-4.315" style="fill:none;stroke:red;stroke-width:1.33333;stroke-linecap:round;stroke-linejoin:round;stroke-miterlimit:4;stroke-dasharray:none;stroke-opacity:1;visibility:visible"/><path d="M524.843 919.269c.726.471.806 1.633.18 2.59-.628.959-1.723 1.347-2.448.868M435.416 933.02c.292.894-.43 1.933-1.614 2.32-1.183.383-2.378-.033-2.667-.93M359.74 947.431c.803.495.922 1.752.27 2.812-.65 1.063-1.834 1.517-2.635 1.019M296.103 976.407c.897.3 1.298 1.5.902 2.68-.4 1.18-1.448 1.888-2.342 1.585" style="fill:none;stroke:red;stroke-width:.666665;stroke-linecap:round;stroke-linejoin:round;stroke-miterlimit:4;stroke-dasharray:none;stroke-opacity:1;visibility:visible"/><path d="M522.575 922.727c-.722-.472-.806-1.63-.178-2.587.626-.957 1.723-1.347 2.446-.87M431.135 934.41c-.295-.894.427-1.932 1.61-2.32 1.181-.386 2.379.03 2.67.93M357.374 951.26c-.804-.492-.927-1.749-.274-2.812.654-1.057 1.836-1.513 2.638-1.018M294.663 980.672c-.893-.3-1.297-1.5-.898-2.68.398-1.177 1.445-1.888 2.338-1.585" style="fill:none;stroke:red;stroke-width:.999997;stroke-linecap:round;stroke-linejoin:round;stroke-miterlimit:4;stroke-dasharray:none;stroke-opacity:1;visibility:visible"/><path d="m529.321 913.21-13.926 4.453-2.54-.622M443.27 924.888l-2.123 2.136-18.508 1.748M366.42 940.667l-18.533 6.03-2.283-.573M301.518 968.183l-17.193 8.893-3.203-.83" style="fill:none;stroke:red;stroke-width:.666665;stroke-linecap:round;stroke-linejoin:round;stroke-miterlimit:4;stroke-dasharray:none;stroke-opacity:1;visibility:visible"/><path d="m264.502 753.645 8.668 1.135" style="fill:none;stroke:red;stroke-width:1.33333;stroke-linecap:round;stroke-linejoin:round;stroke-miterlimit:4;stroke-dasharray:none;stroke-opacity:1;visibility:visible"/><path d="m257.827 748.004-5.132 9.993M339.136 731.936l7.53 11.844" style="fill:none;stroke:red;stroke-width:.666665;stroke-linecap:round;stroke-linejoin:round;stroke-miterlimit:4;stroke-dasharray:none;stroke-opacity:1;visibility:visible"/><path d="m355.856 932.262-3.428-9.399M355.362 934.152l-2.439-13.179M355.562 909.39l-6.422 4.93M354.316 909.593l-3.933 4.527M351.527 908.397l-.891-.842M351.936 912.454l4.436.875M352.808 911.657l2.692 2.466M353.496 917.94l2.81-1.489M353.95 918.889l1.733-3.759M349.16 905.787l3.514 3.18M351.346 923.935l3.158-8.625M351.5 911.785l.2 3.469M355.018 921.126l-2.828-4.533M350.754 915.657l-.574 2.726M349.787 915.422l1.355 3.279M355.683 915.13l-1.733 3.759M356.306 916.451l-2.81 1.489M352.92 904.627l3.316 6.813M352.927 934.083l3.569-9.663M352.12 935.872l5.186-13.242M352.923 920.973l2.439 13.179M352.428 922.863l3.428 9.399M350.383 914.12l2.819 11.178M350.3 909.651l1.316 10.907M350.636 907.555l.644 15.102M352.246 918.686l5.386 2.145M353.142 919.571l3.598.375M351.242 926.711l6.661-1.875M351.346 923.935l6.454 2.929M355.562 922.766l.202 3.466M355.124 930.883l-.88-1.517M354.155 930.651l1.053-.968M356.62 930.6l1.395-.733M357.075 931.547l.487-2.627M352.19 916.593l2.828 4.533M358.688 931.404l-1.613.143M358.015 929.867l-1.395.733M353.39 927.336l-1.11 5.158M349.787 915.422l-.192-8.042M348.638 899.216l-.01 7.934M348.679 909.481l2.875-5.038M349.554 908.683l1.128-3.442M357.8 926.864l-6.454-2.929M356.62 930.6l2.688 2.127M357.075 931.547l1.613-.143M356.74 919.946l-3.598-.375M357.632 920.831l-5.386-2.145M353.283 930.939l-1.033-1.696M353.283 930.939l3.661 2.895M352.28 932.494l5.672-.218M357.306 922.63l-5.186 13.242M356.496 924.42l-3.569 9.663M354.244 929.366l.88 1.517M353.086 926.415l3.12 2.328M354.596 910.543l.784-3.485M349.14 914.32l6.422-4.93M350.3 909.651l1.563-3.353M350.636 907.555l.891.842M351.142 918.701l3.444-1.283M350.18 918.383l5.37-.648M355.683 915.13l-.869-6.807M350.3 900.027l4.06 7.351M350.866 895.534l2.06 10.672M356.236 911.44l-3.316-6.813M355.13 912.853l-1.103-9.638M350.372 910.951l2.252 3.232M349.232 912.855l4.398-.225M352.766 888.746l.676 7.132M352.906 890.498l.393 3.965M350.168 889.48l-1.36-1.99M351.064 890.369l-3.152-3.764M349.99 896.33l2.56-4.896M352.92 904.627l-3.238-16.254M350.682 905.241l-1.128 3.442M352.808 911.657l-4.129-2.176M352.674 908.967l-3.514-3.18M353.57 909.853l-5.305-4.953M353.63 912.63l-4.398.225M350.18 918.383l.574-2.726M351.142 918.701l-1.355-3.279M355.5 914.123l-2.692-2.466M347.48 888.304l1.314 15.382M346.983 890.194l2.305 11.602M346.07 881.139l.565 11.961M344.826 881.345l3.052 11.551M345.314 879.47l5.712 5.995M345.65 877.37l5.037 10.193M348.808 887.49l1.36 1.99M350.3 880.303l1.7 15.517M348.994 892.3l-.763 3.854M349.68 898.705l-.957-1.212M350.452 894.427l-2.778 4.473M349.483 894.193l-.845 5.023M349.68 898.705l1.764.697M350.3 900.027l.691-1.573M348.231 896.154l.763-3.854M348.236 893.96l-.57 7.966M347.096 895.868l1.578 4.501M353.299 894.463l-.393-3.965M353.442 895.878l-.676-7.132M351.754 901.467l1.269.356M350.944 903.257l2.889-3.224M351.583 884.589l2.093 14.018M352.84 885.394l-.418 12.408M344.382 876.383l3.098 11.921M347.878 892.896l-3.052-11.551M346.635 893.1l-.565-11.961M350.687 887.563l-5.037-10.193M351.026 885.465l-5.712-5.995M346.846 865.505l2.612 12.629M349.182 884.965l2.77-2.255M347.88 883.615l3.455-2.228M347.912 886.605l1.344-9.728M348.808 887.49l-.448-11.5M352.108 893.793l-1.917-11.463M347.184 878.809l.203 3.468M351.335 881.387l-3.455 2.228M350.851 884.145l-4.985 1.262M349.884 883.91l-3.057 1.817M345.835 882.983l3.805 2.93M346.288 883.931l2.894 1.034M347.387 882.277l-.203-3.468M345.758 873.95l.886 3.219M349.182 884.965l-2.894-1.034M349.64 885.913l-3.805-2.93M352.55 891.434l-5.366-10.399M348.586 871.457l2.944 6.15M347.055 867.542l3.851 9.273M347.2 868.957l3.566 6.104M348.423 874.837l3.899 12.888M346.827 885.727l3.057-1.817M352.422 897.802l.418-12.408M350.866 895.534l-4.419-3.813M350.991 898.454l-.691 1.573M348.723 897.493l.957 1.212M347.666 901.926l.57-7.966M348.674 900.369l-1.578-4.501M353.833 900.033l-2.889 3.224M353.023 901.823l-1.269-.356M347.674 898.9l2.778-4.473M348.638 899.216l.845-5.023M350.88 892.71l-.014 2.824M352.55 891.434l-2.56 4.896M345.555 861.057l-2.42-3.083M350.715 871.9l-3.112-9.763M350.22 873.79l-2.122-13.544M348.254 865.902l-1.567-12.82M347.012 842.563l-3.49 8.077M342.545 846.175l5.401.618M343.44 847.063l3.61-1.158M347.803 850.747l.204 3.47M348.818 861.246l-.321-5.691M346.483 854.235v3.112M345.513 854.001l1.934 3.664M345.022 866.48l4.173-8.049M342.668 851.837l6.074 5.646M348.007 854.217l-.204-3.47M345.655 846.118l1.605 2.992M346.747 847.168l-4.344 7.059M345.075 848.44l-1.002 4.514M349.696 866.3l-5.173-5.822M344.283 851.918l1.245 7.005M350.766 875.061l-3.566-6.104M345.7 862.811l1.355 4.731M344.876 874.49l5.344-.7M344.382 876.383l6.333-4.483M346.687 853.082l1.567 12.82M343.522 850.64l3.532 8.111M343.858 848.543l2.86 12.307M347.764 870.525l1.916-2.582M346.798 870.29l3.847-2.029M348.007 854.217l1.355 8.669M348.497 855.555l.321 5.691M344.97 868.826l.505-1.399M347.72 864.71l-2.604.015M346.846 865.505l-.058-2.055M349.696 866.3l-1.11 5.157M348.554 868.208l1.04 1.694M350.715 871.9l-6.333 4.483M350.22 873.79l-5.344.7M345.116 864.725l2.604-.015M346.788 863.45l.058 2.055M345.266 872.607l.324-2.458M343.44 847.063l-1.056 15.019M345.59 870.149l-.324 2.458M346.644 877.169l-.886-3.219M344.97 868.826l-1.31 3.177M345.59 870.149l-2.383.906M349.594 869.902l-1.04-1.694M347.055 867.542l-1.355-4.731M343.135 857.974l2.42 3.083M352.322 887.725l-3.899-12.888M344.152 858.547l5.081 14.5M349.68 867.943l-1.916 2.582M350.645 868.261l-3.847 2.029M351.583 884.589l-4.045-12.044M352.84 885.394l-6.557-13.655M343.522 850.64l3.49-8.077M343.858 848.543l2.818-3.881M347.26 849.11l-1.605-2.992M347.803 850.747l-2.692-6.268M344.073 852.954l1.002-4.514M342.403 854.227l4.344-7.059M345.89 826.279l.541 15.194M344.783 827.689l2.755 12.371M341.805 816.916l2.978 10.773M340.7 818.326l5.19 7.953M348.728 852.165l-6.153-2.95M348.007 854.217l-5.339-2.38M348.497 855.555l-6.449-5.041M347.05 845.905l-3.61 1.158M347.946 846.793l-5.401-.618M342.018 840.99l3.405 9.024M345.528 858.923l-1.245-7.005M340.487 837.075l.941 9.445M340.63 838.49l.656 6.277M343.882 843.363l.27 15.184M346.483 857.347v-3.112M341.324 840.137l.69 15.313M342.575 849.215l6.153 2.95M343.45 848.418l4.406 4.541M341.286 844.767l-.656-6.277M339.486 830.4l1.001 6.675M343.786 827.269l1.312 15.38M343.291 829.157l2.301 11.601M339.21 817.665l2.144 11.39M347.012 842.563l-5.994-11.408M344.666 814.956l1.642 15.146M345.244 822.162l1.048 9.245M345.351 820.134l.832 13.301M340.106 834.391l6.972 4.266M340.726 835.714l5.898 1.995M345.502 834.733l-.202-3.468M340.63 833.093l.94.374M343.48 833.891l-1.462 7.099M342.34 835.795l.683 3.64M343.02 840.636l.05 4.517M342.21 842.426l1.672.937M339.343 828.646l-.521-3.648M339.486 830.4l-.807-6.814M345.592 840.758l-2.301-11.601M343.152 814.585l.634 12.684M344.183 833.595l-3.051-13.288M342.94 833.798l-.565-13.696M341.354 829.055l-2.144-11.39M345.488 823.929l-4.554-1.196M345.944 824.877l-5.63-3.467M345.412 829.214l.15-13.374M339.586 801.934l5.08 13.022M346.183 833.435l-.832-13.301M346.292 831.407l-1.048-9.245M343.488 817.774l.207 3.466M342.948 816.134l1.237 6.449M345.215 837.438l-3.044-13.064M344.245 837.206l-1.11-12.515M340.314 821.41l5.63 3.467M340.934 822.733l4.554 1.196M343.695 821.24l-.207-3.466M344.185 822.583l-1.237-6.449M341.506 832.298l-3.416-11.047M340.63 833.093l-.868-13.115M345.89 826.279l-5.19-7.953M344.783 827.689l-2.978-10.773M343.48 833.891l-3.273-6.391M342.34 835.795l-1.125-9.848M338.679 823.586l6.219-4.723M344.635 809.269l.123 7.841M339.898 834.743l1.608-2.445M341.57 833.467l-.94-.374M345.502 834.733l-4.776.981M343.023 839.435l-.683-3.64M340.487 837.075l-1.001-6.675M338.822 824.998l.521 3.648M343.882 843.363l-1.672-.937M343.07 845.153l-.05-4.517M342.014 855.45l-.69-15.313M343.266 856.257l-3.196-16.927M340.63 833.093l6.542 1.407M341.862 800.022l-2.422-3.082M343.647 812.695l.261-11.595M343.152 814.585l1.251-15.377M339.288 804.845l1.402-11.44M343.36 798.1l-3.533-8.494M336.442 781.189l6.558 6.305M337.335 782.077l4.767 4.529M336.968 802.225l6.292-7.224M343.463 792.525l-.675 3.789M342.493 792.29l1.259 4.341M339.512 810.02l2.615-.867M341.783 806.391l-.109 1.814M342.77 793.662l-.107-8.672M342.3 775.036l-.18 8.316M337.168 797.487l.552-2.074M337.622 798.435l-.357-3.968M339.754 787.384l-1.047 5.807M338.879 788.178l1.501 3.74M340.994 801.284l-4.498-8.606M339.887 802.694l-2.281-11.428M341.731 788.978l-.904 10.462M340.588 790.882l1.244 7.005M344.758 817.11l-.123-7.841M342.004 801.774l2.488 6.08M339.253 813.358l3.899 1.227M338.76 815.251l4.887-2.556M339.827 789.606l3.533 8.494M340.163 787.508l2.862 12.689M342.627 805.767l-.844.624M344.506 804.251l-1.734-.077M343.63 805.046l.812-2.148M336.496 792.678l4.498 8.606M343.152 814.585l-3.899-1.227M341.932 793.202l-3.889 11.848M340.69 793.405l-1.402 11.44M342.772 804.174l1.734.077M344.442 802.898l-.812 2.148M341.674 808.205l1.57-1.115M341.783 806.391l.844-.624M343 787.494l-4.31 13.552M345.351 820.134l-4.832-12.748M337.512 803.863l.203 3.468M342.627 805.767l-4.42 2.906M341.674 808.205l-1.708 2.762M337.715 807.331l-.203-3.468M338.207 808.673l-1.239-6.448M341.832 797.887l-3.94 13.873M344.492 807.854l-2.488-6.08M339.44 796.94l2.422 3.082M341.268 795.72l-.298 18.755M340.458 797.511l1.322 15.175M338.318 794.413l5.525 17.098M339.572 795.22l3.016 15.485M342.35 777.829l-2.452 5.631M342.803 778.777l-3.359 3.735M340.38 791.918l-1.501-3.74M337.265 794.467l1.707-3.667M337.72 795.413l.632-5.934M342.102 786.606l-4.767-4.529M343 787.494l-6.558-6.305M340.851 786.18l-4.111 1.058M340.96 784.153l-4.326 5.113M337.265 794.467l.357 3.968M337.72 795.413l-.552 2.074M338.322 779.957l3.409 9.021M341.832 797.887l-1.244-7.005M336.79 776.042l.942 9.444M336.934 777.454l.656 6.278M341.78 812.686l-1.322-15.175M338.518 781.389l2.75 14.331M342.788 796.314l.675-3.789M343.752 796.631l-1.259-4.341M337.63 779.1l.688 15.313M339.898 783.46l2.937 6.377M337.265 794.467l6.245-3.474M337.59 783.732l-.656-6.278M335.791 769.364l.999 6.678M340.09 766.234l1.313 15.38M339.595 768.12l2.303 11.604M335.515 756.63l2.143 11.39M335.851 754.53l1.471 15.588M340.97 753.918l1.258 13.126M336.634 789.266l4.326-5.113M336.74 787.238l4.111-1.058M341.603 770.228l.204 3.469M336.41 773.356l5.89 1.68M339.444 782.512l3.359-3.735M339.898 783.46l2.452-5.631M341.807 773.697l-.204-3.469M342.3 775.036l-1.24-6.448M335.168 759.058l2.706 13.374M339.786 772.854l-1.464 7.103M338.646 774.758l.684 3.642M335.648 767.612l-.521-3.647M335.791 769.364l-.807-6.814M341.898 779.724l-2.303-11.604M341.403 781.614l-1.313-15.38M343.018 751.066l-5.582 8.206M339.244 772.76l-.564-13.691M337.322 770.118l-1.471-15.588M337.658 768.02l-2.143-11.39M341.332 766.156l.534-11.352M342.228 767.044l-1.258-13.126M344.775 742.668l-3.215 14.406M343.018 751.066l-1.564 8.036M339.794 756.738l.206 3.466M339.252 755.098l1.235 6.446M341.52 776.402l-3.045-13.065M340.55 776.17l-1.11-12.516M336.41 773.356l5.84-9.516M337.03 774.678l4.766-11.784M340 760.204l-.206-3.466M340.487 761.544l-1.235-6.446M337.874 772.432l-2.706-13.374M336.202 773.708l.637-15.923M339.786 772.854l-3.271-6.389M338.646 774.758l-1.126-9.848M343.018 751.066l-5.382 4.159M330.677 745.32l6.819 8.153M342.026 771.754l-4.214-.494M342.9 770.957l-5.962 1.1M341.807 773.697l-4.777.981M339.33 778.4l-.684-3.642M336.79 776.042l-.999-6.678M335.127 763.965l.521 3.647M341.268 795.72l-2.75-14.331M340.458 797.511l-1.13-17.912M338.318 794.413l-.688-15.313M339.572 795.22l-3.197-16.927M336.938 772.057l5.962-1.1M337.812 771.26l4.214.494" style="fill:none;stroke:red;stroke-width:.333333;stroke-linecap:round;stroke-linejoin:round;stroke-miterlimit:4;stroke-dasharray:none;stroke-opacity:1;visibility:visible"/><path d="m430.874 735.634 1.026 1.976M262.373 745.434l-6.51 13.794M265.522 744.9l7.811 11.324" style="fill:none;stroke:red;stroke-width:.666665;stroke-linecap:round;stroke-linejoin:round;stroke-miterlimit:4;stroke-dasharray:none;stroke-opacity:1;visibility:visible"/><path d="m262.373 745.434 3.149-.534M265.522 744.9l-3.149.534" style="fill:none;stroke:red;stroke-width:1.33333;stroke-linecap:round;stroke-linejoin:round;stroke-miterlimit:4;stroke-dasharray:none;stroke-opacity:1;visibility:visible"/><path d="m265.797 749.804-7.97-1.8M265.798 749.803l-10.225-2.674" style="fill:none;stroke:red;stroke-width:.666665;stroke-linecap:round;stroke-linejoin:round;stroke-miterlimit:4;stroke-dasharray:none;stroke-opacity:1;visibility:visible"/><path d="m335.93 732.294 3.206-.358M339.136 731.936l-3.206.358" style="fill:none;stroke:red;stroke-width:1.33333;stroke-linecap:round;stroke-linejoin:round;stroke-miterlimit:4;stroke-dasharray:none;stroke-opacity:1;visibility:visible"/><path d="m328.305 744.03 2.215-9.838M337.496 753.473l-6.819-8.153" style="fill:none;stroke:red;stroke-width:.666665;stroke-linecap:round;stroke-linejoin:round;stroke-miterlimit:4;stroke-dasharray:none;stroke-opacity:1;visibility:visible"/><path d="m423.79 725.47-3.96.03M419.83 725.5l3.96-.03" style="fill:none;stroke:red;stroke-width:1.33333;stroke-linecap:round;stroke-linejoin:round;stroke-miterlimit:10;stroke-dasharray:none;stroke-opacity:1;visibility:visible"/><path d="m518.352 721.87 3.216-.269M521.568 721.601l-3.216.269" style="fill:none;stroke:red;stroke-width:1.33333;stroke-linecap:round;stroke-linejoin:round;stroke-miterlimit:4;stroke-dasharray:none;stroke-opacity:1;visibility:visible"/><path d="m513.001 731.065 2.454-7.425M529.28 910.287l15.124-5.02" style="fill:none;stroke:red;stroke-width:.666665;stroke-linecap:round;stroke-linejoin:round;stroke-miterlimit:4;stroke-dasharray:none;stroke-opacity:1;visibility:visible"/><path d="M537.004 911.318v14.289M537.004 911.318l-7.724-1.031" style="fill:none;stroke:red;stroke-width:1.33333;stroke-linecap:round;stroke-linejoin:round;stroke-miterlimit:4;stroke-dasharray:none;stroke-opacity:1;visibility:visible"/><path d="m280.803 975.29-1.028 5.77M533.912 910.033l3.092 1.285" style="fill:none;stroke:red;stroke-width:.666665;stroke-linecap:round;stroke-linejoin:round;stroke-miterlimit:4;stroke-dasharray:none;stroke-opacity:1;visibility:visible"/><path d="m301.518 968.183-.358-3.617M366.42 940.667l.235-2.613M422.639 928.772l-1.755-1.404" style="fill:none;stroke:red;stroke-width:1.33333;stroke-linecap:round;stroke-linejoin:round;stroke-miterlimit:4;stroke-dasharray:none;stroke-opacity:1;visibility:visible"/><path d="M534.399 677.616c-.74-.146-1.139-1.29-.889-2.55.249-1.262 1.05-2.172 1.79-2.026" style="fill:none;stroke:#00ff4a;stroke-width:.999997;stroke-linecap:round;stroke-linejoin:round;stroke-miterlimit:4;stroke-dasharray:none;stroke-opacity:1;visibility:visible"/><path d="M535.244 673.025c.74.145 1.139 1.29.888 2.55-.248 1.261-1.05 2.17-1.79 2.025" style="fill:none;stroke:#00ff4a;stroke-width:.666665;stroke-linecap:round;stroke-linejoin:round;stroke-miterlimit:10;stroke-dasharray:none;stroke-opacity:1;visibility:visible"/><path d="m532.31 686.022 8.124-1.546.051-5.296.052-5.449.091-9.567-2.901-.694s-18.151 3.375-32.908 4.716c-14.759 1.342-49.069 1.724-68.81 2.11-19.741.382-49.066 1.724-70.918 3.448-29.845 2.356-62.673 6.518-87.397 10.734-18.235 3.11-40.93 7.46-40.93 7.46l3.363 25.365 6.324.91s13.419-2.876 25.876-5.56c12.458-2.683 42.167-9.008 62.484-11.5 20.315-2.492 61.333-6.133 76.667-6.516 15.332-.383 51.377-1.653 75.898-2.492 22.424-.765 44.741-4.904 44.741-4.904l.29-20.096-2.268-.62" style="fill:none;stroke:#00ff4a;stroke-width:1.33333;stroke-linecap:round;stroke-linejoin:round;stroke-miterlimit:4;stroke-dasharray:none;stroke-opacity:1;visibility:visible"/><path d="m236.766 691.935 6.237 1.55 3.451 24.726M432.207 671.188c.016.317-1.385.642-3.13.724-1.746.082-3.174-.104-3.186-.422" style="fill:none;stroke:#00ff4a;stroke-width:.666665;stroke-linecap:round;stroke-linejoin:round;stroke-miterlimit:4;stroke-dasharray:none;stroke-opacity:1;visibility:visible"/><path d="M243.002 693.486c12.076-1.916 49.643-9.008 68.618-11.5 18.973-2.492 52.707-5.94 64.207-6.516 11.5-.574 46.576-2.684 60.183-2.874 13.609-.194 59.033-1.15 69.19-2.11 6.525-.614 17.252-1.549 27.208-3.34M518.663 682.244c.822.273 1.194 1.374.827 2.461-.361 1.085-1.325 1.736-2.145 1.457M420.087 688.113c.383.85-.099 1.972-1.079 2.503-.981.533-2.085.273-2.468-.579M335.57 693.556c.893.306 1.29 1.508.88 2.684-.404 1.177-1.46 1.881-2.35 1.571M263.254 706.662c.896.303 1.297 1.5.901 2.68-.398 1.18-1.448 1.891-2.341 1.588" style="fill:none;stroke:#00ff4a;stroke-width:.666665;stroke-linecap:round;stroke-linejoin:round;stroke-miterlimit:4;stroke-dasharray:none;stroke-opacity:1;visibility:visible"/><path d="M517.345 686.162c-.82-.272-1.19-1.374-.828-2.458.363-1.084 1.326-1.739 2.146-1.46M416.54 690.037c-.385-.85.096-1.97 1.076-2.503.979-.53 2.086-.27 2.471.58M334.1 697.812c-.89-.306-1.285-1.506-.88-2.686.405-1.174 1.457-1.876 2.35-1.569M261.814 710.932c-.893-.303-1.295-1.5-.899-2.68.399-1.18 1.446-1.892 2.339-1.588" style="fill:none;stroke:#00ff4a;stroke-width:.999997;stroke-linecap:round;stroke-linejoin:round;stroke-miterlimit:4;stroke-dasharray:none;stroke-opacity:1;visibility:visible"/><path d="m532.408 667.146-.098 18.876M535.3 673.04l-5.161-6.515" style="fill:none;stroke:#00ff4a;stroke-width:1.33333;stroke-linecap:round;stroke-linejoin:round;stroke-miterlimit:4;stroke-dasharray:none;stroke-opacity:1;visibility:visible"/><path d="m532.31 686.022.098-18.876" style="fill:none;stroke:#00ff4a;stroke-width:.666665;stroke-linecap:round;stroke-linejoin:round;stroke-miterlimit:4;stroke-dasharray:none;stroke-opacity:1;visibility:visible"/><path d="m353.086 926.415 4.744-6.984M352.808 911.657l3.767 6.969M347.764 870.525l-3.074-8.205M342.803 778.777l-1.812-11.448" style="fill:none;stroke:red;stroke-width:.333333;stroke-linecap:round;stroke-linejoin:round;stroke-miterlimit:4;stroke-dasharray:none;stroke-opacity:1;visibility:visible"/></svg>