<svg xmlns="http://www.w3.org/2000/svg" baseProfile="full" height="1122.52" preserveAspectRatio="xMinYMin meet" style="width:912px;height:1303px" width="793.701" xml:space="preserve"><path d="m410.248 518.664.259.173.261.151.281.108.28.108.302.065.322.043.326.021h.345l.345-.021.348-.043.364-.086.371-.087.343-.108.326-.13.343-.151.347-.172M410.16 518.621l.087.043" style="fill:none;stroke:red;stroke-width:1.99999;stroke-linecap:round;stroke-linejoin:round;stroke-miterlimit:4;stroke-dasharray:none;stroke-opacity:1;visibility:visible" visibility="hidden"/><path d="m318.033 675.697.108.043.087.065M314.836 662.63l.345-.15.367-.131.37-.066.407-.02.411.043.432.065.432.128.432.154.453.214.455.259.453.304.432.323.431.368.435.41.408.454.413.474.365.498.37.518.322.539.323.54.281.584.259.583.216.584.195.582.15.584.131.562.085.582.066.542.024.538-.024.518-.066.498-.085.452-.13.434-.151.409-.195.368-.235.324-.261.301-.281.239-.302.216M341.382 659.476l-.195.108-.17.13-.154.151-.172.172-.152.174-.129.193-.13.216-.129.239-.108.214-.085.239-.088.259-.084.238-.065.259-.088.26-.043.259-.065.258-.02.238-.043.238-.024.238-.021.237-.022.216v.604l.022.195.021.173.024.15.02.151.043.131.045.13.041.107.067.087.127.13.13.086.174.044.108.02.108-.02.108-.023.106-.021.132-.044.128-.043.154-.065.149-.064.15-.087.154-.086.15-.086.173-.088.15-.128.175-.108.172-.13.173-.13.174-.129.17-.152.172-.15.174-.151.304-.303.281-.324.257-.367.131-.196.128-.193.088-.195.107-.216.065-.193.067-.216.042-.217.042-.194v-.389l-.023-.195-.019-.194-.042-.172-.067-.174-.087-.173-.085-.172-.13-.173-.129-.151-.153-.15-.15-.131-.174-.108-.172-.086-.173-.088-.192-.064-.216-.044-.198-.042h-.216l-.214.022-.196.02-.216.066-.192.065-.175.108M479.213 588.304l-.173.108-.15.064-.174.065-.131.066-.15.042-.13.022-.108.022h-.108l-.108-.022-.085-.043-.066-.044-.086-.064-.044-.087-.066-.086-.042-.108-.043-.13-.041-.129-.024-.15-.019-.174v-.152l-.023-.193v-.174l.023-.194v-.216l.019-.216.024-.216.02-.238.045-.237.019-.239.042-.237.066-.237.044-.238.129-.41.132-.41.172-.389.085-.173.108-.195.107-.172.108-.15.13-.153.133-.152.126-.129.131-.108.15-.085.154-.087.127-.087.173-.042.15-.066.154-.021.173-.021h.171l.153.021.174.021.149.022.15.065.303.13.259.173.239.214.128.131.108.15.086.153.087.15.064.174.065.193.043.173.023.195v.367l-.023.194-.043.216-.041.195-.067.195-.084.216-.088.193-.13.216-.128.239-.151.193-.153.216-.172.195-.174.173-.172.195-.194.172-.192.194-.198.151-.214.173-.196.152-.192.13-.198.129-.193.13-.172.086" style="fill:none;stroke:red;stroke-width:.999997;stroke-linecap:round;stroke-linejoin:round;stroke-miterlimit:4;stroke-dasharray:none;stroke-opacity:1;visibility:visible" visibility="hidden"/><path d="m318.207 667.705.257.173.262.194.236.238.217.28.216.282.173.324.15.324.129.324.087.324.042.324.023.324-.023.281-.042.259-.087.237-.13.196-.149.15-.173.109-.216.064-.217.021-.236-.043-.24-.065-.258-.13-.261-.151-.235-.215-.238-.239-.239-.258-.193-.302-.196-.304-.151-.322-.107-.347-.088-.324-.062-.323-.024-.304.024-.28.042-.258.108-.239.107-.193.15-.152.175-.108.215-.066.216-.021.239.021.257.087.24.108M486.923 569.015l.453.259.456.302.454.347.432.388.429.41.412.433.388.474.367.498.346.54.323.54.304.54.259.582.238.584.192.562.174.582.13.584.11.583.041.561.023.54v.54l-.046.498-.108.496-.108.454-.172.431-.173.39-.235.346-.262.323M483.899 568.432l.39-.043.431-.021.412.043.454.086.432.13.453.172.455.216M322.98 660.447l.455.26.453.323.432.346.453.388.41.432.41.455.39.475.388.518.348.519.345.561.3.562.281.562.238.583.216.604.194.584.154.583.108.584.084.561.042.561.023.54-.023.498-.062.496-.108.476-.131.432-.15.388-.195.366-.239.347-.259.281-.281.259-.321.195M319.049 660.08l.323-.15.346-.109.367-.064.39-.044.387.022.411.065.412.085.432.152.43.174.433.236M318.292 660.708l.843-.475M326.025 674.51l.82-.475" style="fill:none;stroke:red;stroke-width:.999997;stroke-linecap:round;stroke-linejoin:round;stroke-miterlimit:4;stroke-dasharray:none;stroke-opacity:1;visibility:visible" visibility="hidden"/><path d="m492.172 567.697.412.324.388.345.39.368.365.388.366.432.326.454.325.476.281.496.258.497.238.519.215.518.175.54.149.518.13.541.086.496.043.519M490.942 566.92l-.43-.216-.414-.15-.43-.131-.413-.086-.388-.044-.389-.021-.388.043-.368.086-.345.108-.323.152M494.504 580.031l.305-.195.278-.237.261-.26.237-.324.194-.323.173-.389.15-.39.109-.431.088-.454.041-.474.024-.476-.024-.519M491.826 567.46l-.453-.303-.431-.237M313.108 666.885l.023.519.062.54.088.561.131.561.15.563.193.561.238.583.259.54.281.561.324.519.326.519.365.497.39.452.389.453.41.39.432.368.431.324.432.301M318.702 676.087l-.108-.065-.108-.066M313.108 666.344l.023-.519.062-.474.088-.476.131-.432.172-.388.193-.367.216-.324.259-.281.281-.26.304-.194M322.57 676.454l-.323.15-.348.109-.345.065-.39.021h-.387l-.39-.065-.408-.108-.412-.13-.432-.193-.43-.216M491.35 581.802l-.237.237-.258.216-.281.174M482.948 568.777l.304-.15.323-.109.325-.086M326.933 674.185l-.281.15-.302.109-.325.065M318.292 660.708l.239-.239.258-.216.259-.173M496.32 575.127l.023.432M492.172 567.697l-.347-.237M313.108 666.885v-.54M318.033 675.697l.453.259M314.836 662.63l3.457-1.921M322.57 676.454l3.456-1.944M494.504 580.031l-3.153 1.77M487.054 566.66l-3.153 1.77M490.575 582.428l-163.64 91.757M482.948 568.777l-163.9 91.302" style="fill:none;stroke:red;stroke-width:1.99999;stroke-linecap:round;stroke-linejoin:round;stroke-miterlimit:4;stroke-dasharray:none;stroke-opacity:1;visibility:visible" visibility="hidden"/><path d="m490.574 582.429-11.361 5.875M490.575 582.428l-11.362 5.876M318.032 675.697l.175-7.992M318.033 675.697l.174-7.992" style="fill:none;stroke:red;stroke-width:.999997;stroke-linecap:round;stroke-linejoin:round;stroke-miterlimit:4;stroke-dasharray:none;stroke-opacity:1;visibility:visible" visibility="hidden"/><path d="m301.875 886.534-.172.108-.173.13-.151.151-.15.174-.153.193-.129.195-.13.216-.13.216-.084.216-.11.237-.087.239-.062.236-.089.238-.043.259-.065.237-.041.26-.043.238-.045.237-.022.216v.216l-.021.216v.541l.021.172v.172l.043.131.024.15.043.109.041.108.044.086.064.087.132.107.127.065.173.023.088-.023h.107l.109-.043.13-.042.127-.043.131-.044.132-.065.15-.087.129-.085.152-.087.149-.087.173-.108.151-.108.173-.108.151-.129.173-.13.172-.129.174-.152.15-.15.174-.151.302-.304.259-.301.26-.326.108-.193.13-.195.087-.172.086-.194.088-.195.042-.195.042-.194.042-.195v-.367l-.018-.172-.024-.173-.042-.173-.066-.172-.086-.152-.086-.152-.108-.151-.151-.15-.13-.13-.151-.108-.172-.108-.175-.065-.172-.086-.192-.044-.197-.044-.192-.02h-.219l-.193.02-.196.044-.194.064-.194.087-.195.108M414.111 824.889l-.175.108-.173.087-.15.064-.13.065-.15.065-.131.043-.108.021h-.215l-.085-.021-.066-.043-.088-.044-.062-.064-.046-.065-.064-.108-.044-.108-.021-.108-.021-.15-.02-.131-.022-.151-.024-.172v-.368l.024-.172v-.217l.022-.216.02-.216.042-.216.044-.238.044-.216.042-.237.044-.237.13-.39.13-.388.152-.389.106-.195.086-.173.108-.172.108-.172.13-.152.131-.13.128-.129.13-.13.131-.086.15-.088.15-.085.154-.065.15-.043.15-.043.173-.022.15-.02h.174l.152.02.15.022.175.043.28.13.259.151.239.172.108.13.106.129.11.152.084.152.065.15.043.173.044.173.021.173.023.174v.17l-.023.174-.041.194-.044.195-.064.195-.067.193-.107.173-.109.216-.13.216-.127.195-.154.193-.173.196-.15.172-.174.174-.193.193-.195.173-.192.151-.197.152-.192.15-.196.153-.195.129-.172.108-.172.108M421.692 805.75l.453.281.432.302.454.368.41.389.434.41.388.453.388.476.346.497.344.519.304.54.302.538.261.563.213.561.195.562.173.562.107.562.108.54.047.538.018.52-.018.496-.047.475-.085.432-.13.41-.173.39-.195.345-.213.324M418.581 805.06l.345-.064h.367l.39.021.387.066.39.108.412.15.408.194.412.217" style="fill:none;stroke:#00ff4a;stroke-width:.999997;stroke-linecap:round;stroke-linejoin:round;stroke-miterlimit:4;stroke-dasharray:none;stroke-opacity:1;visibility:visible"/><path d="m426.098 803.786.412.259.408.28.412.346.388.346.367.389.369.432.343.43.326.477.3.474.282.498.258.496.219.52.192.518.175.518.129.496.108.518.063.498.045.476M425.644 803.527l-.43-.239-.431-.193-.412-.15-.431-.09-.412-.063-.39-.021-.365.043-.369.065-.344.13-.304.151M429.38 815.903l.283-.216.257-.237.237-.282.216-.324.174-.366.13-.388.108-.412.086-.454.022-.474v-.498M425.688 803.527h-.043M426.207 817.804l-.216.216-.24.216-.237.15M417.717 805.383l.259-.15.302-.109.303-.065M430.892 811.756v.496M426.098 803.786l-.41-.259M429.38 815.903l-3.175 1.901M421.756 803.16l-3.175 1.9M425.515 818.387 321.511 880.81M306.283 889.947l-10.607 6.372M417.717 805.383l-97.416 58.104M305.03 872.603l-22.508 13.435" style="fill:none;stroke:#00ff4a;stroke-width:1.99999;stroke-linecap:round;stroke-linejoin:round;stroke-miterlimit:4;stroke-dasharray:none;stroke-opacity:1;visibility:visible"/><path d="m414.374 757.52-.324.475-.323.497-.304.497-.281.519-.28.517-.26.519-.237.54-.238.54-.194.54-.195.519-.17.54-.154.54-.15.54-.109.54-.086.518-.087.519-.041.517-.043.498-.024.496v.476l.044.474.043.454.065.433.087.43.085.411.13.39.151.366.151.368.196.323.193.304.216.301.238.26.238.238.259.216.28.194.281.172M228.657 673.842l-.193-.108-.195-.13-.216-.151-.239-.151-.214-.173-.239-.194-.216-.194-.236-.195-.217-.216-.216-.237-.194-.216-.196-.238-.192-.238-.174-.259-.172-.259-.151-.281-.13-.259-.109-.26-.085-.258-.088-.26-.065-.259-.043-.237-.02-.238-.023-.26.023-.237.02-.237.043-.216.044-.238.086-.194.086-.216.109-.174.13-.172.107-.152.131-.129.13-.13.151-.086.15-.108.15-.087.174-.064.173-.044.172-.021.173-.021h.194l.173.021.173.021.174.066.172.065.15.064.174.108.15.108.154.13.149.151.15.151.133.173.129.194.128.194.108.216.13.195.086.237.108.216.087.238.086.238.088.238.084.237.066.281.086.282.064.28.066.28.042.281.046.26.044.259.041.258.023.26.02.238.022.216.02.237v.605l-.02.172-.022.174-.043.173-.041.13-.067.129-.065.108-.066.065-.084.064-.109.065-.107.022-.132.021-.129-.021-.15-.022-.174-.044-.173-.064-.172-.086-.195-.087" style="fill:none;stroke:#00ff4a;stroke-width:.999997;stroke-linecap:round;stroke-linejoin:round;stroke-miterlimit:4;stroke-dasharray:none;stroke-opacity:1;visibility:visible"/><path d="m230.384 673.064-.28-.15-.301-.217-.28-.238-.304-.28-.282-.324-.257-.347-.261-.367-.236-.388-.216-.41-.196-.432-.172-.432-.151-.411-.11-.432-.086-.432-.063-.41-.022-.39v-.367l.042-.345.066-.324.108-.281M230.17 671.445l.065.021.086.043M419.32 752.876l-.303.173-.41.259-.411.281-.408.324-.412.324-.412.346-.388.366-.39.39-.366.41-.388.41-.347.454-.366.454-.346.453M425.024 752.293l-.303-.15-.325-.13-.324-.087-.345-.065-.344-.043-.37-.022h-.366l-.388.044-.388.064-.391.086-.41.108-.409.152-.326.13-.343.15-.348.174-.321.172M422.581 769.94h0M427.248 761.387v.021M144.46 789.704l-.496.237-.476.282M144.46 789.704l.583-.237.608-.216.604-.152.605-.108.604-.043h.603l.584.043.582.086.564.13.56.194M143.489 790.223l-.563.345-.518.39-.516.432-.496.474-.478.498-.454.54-.408.561-.391.584-.367.604-.324.627-.301.648-.261.669-.235.69-.197.671-.151.691-.107.713-.088.691-.018.692v.69l.041.67.065.67.128.647.154.648.193.606.239.582.281.562.3.541.327.496.365.476.388.43.432.411.453.347.476.323.499.26.516.237" style="fill:none;stroke:#00ff4a;stroke-width:.999997;stroke-linecap:round;stroke-linejoin:round;stroke-miterlimit:4;stroke-dasharray:none;stroke-opacity:1;visibility:visible"/><path d="m124.826 786.054-.281.043-.28.044-.303.042-.303.022h-.604l-.304-.022-.3-.021-.238-.021-.215-.044-.197-.043-.17-.065-.13-.064-.11-.066-.064-.064-.022-.086.022-.066.023-.064.085-.065.107-.087.13-.065.151-.064.196-.044.194-.043.216-.065.238-.021.258-.043.261-.021.257-.022h.756l.262.022.258.021.215.043.195.044.172.064.153.044.107.064.085.086.044.066v.086l-.044.086-.085.086-.131.087-.172.065-.216.086-.216.065M136.188 790.05l-.257.043-.282.042-.304.023-.324.021-.302.022h-.302l-.304-.022-.28-.021-.26-.044-.213-.043-.197-.042-.17-.044-.13-.064-.11-.087-.065-.065-.021-.064v-.087l.045-.065.084-.064.087-.066.152-.065.15-.064.196-.044.192-.064.216-.044.24-.021.258-.043.261-.021.257-.023h.756l.262.023.258.042.215.022.216.065.15.043.154.065.127.064.065.065.043.087v.087l-.019.064-.09.086-.15.087-.173.087-.192.064-.239.065" style="fill:none;stroke:#00ff4a;stroke-width:.666665;stroke-linecap:round;stroke-linejoin:round;stroke-miterlimit:4;stroke-dasharray:none;stroke-opacity:1;visibility:visible"/><path d="M273.693 904.183v-.756l-.023-.28-.018-.281-.044-.282-.046-.301-.064-.303-.062-.302-.066-.282-.088-.28-.084-.281-.088-.281-.109-.28-.128-.28-.13-.26-.13-.238-.152-.216-.15-.216-.15-.194-.173-.174-.172-.172-.175-.129-.173-.13-.194-.109-.194-.085-.194-.087-.217-.044-.195-.042-.194-.02-.216.02-.194.021-.172.021-.15.066-.154.044-.15.085-.15.087-.132.108-.129.108-.13.129-.106.15-.088.153-.087.174-.064.15-.042.194-.043.172-.023.195-.022.195v.194l.022.195.043.193.043.216.045.218.084.216.088.214.085.216.108.216.132.216.107.216.15.195.131.216.15.195.15.194.154.194.193.216.195.194.172.195.194.195.195.194.196.172.192.174.173.15.172.132.174.128.173.13.15.109.154.107.15.086.151.086.131.065.15.044.131.043.127.021.108-.021h.11l.087-.043.084-.065.088-.066.066-.108.062-.108.046-.15.064-.151.02-.173.042-.195.023-.216v-.216" style="fill:none;stroke:#00ff4a;stroke-width:.999997;stroke-linecap:round;stroke-linejoin:round;stroke-miterlimit:4;stroke-dasharray:none;stroke-opacity:1;visibility:visible"/><path d="m270.215 897.877-.085.281-.088.324-.022.346v.366l.046.39.064.389.109.432.127.41.173.41.196.41.236.411.237.388.282.368.281.346.304.324.324.281.3.259.324.216.327.173.322.13M112.427 786.054l-.15-.065-.173-.064-.26-.108-.193-.108-.15-.13-.131-.13-.067-.064-.043-.087M111.26 785.298l-.021-.065v-.064l-.02-.066.02-.064v-.065l.045-.065M257.774 882.887h0v.021h.024M262.85 883.383l.521-.13.539-.173.539-.172.561-.194.52-.195.497-.216.495-.216.497-.216.432-.216.412-.195.408-.216.368-.216.367-.194.324-.194.325-.216.302-.194.281-.216.281-.216.215-.195.216-.195.173-.216.151-.194.087-.194.066-.194M308.23 917.1l-.195.519-.126.54-.11.54-.088.54-.018.54v.54l.018.561.066.54.088.519.108.518.149.475.195.475.196.454.238.432.28.39.28.345.302.301.324.239.324.216.369.15.388.109.388.086.39.043h.43l.413-.021.431-.066.43-.064.433-.108.433-.108.433-.15.43-.131.456-.173.473-.194.496-.194.497-.238.496-.216.478-.26.496-.237.474-.259.478-.26.494-.28.475-.302.455-.282.43-.28.218-.152.193-.129.197-.15.17-.13.346-.281.303-.282M426.297 1003.63l-.39.259-.41.281-.39.303-.387.324-.39.345-.388.345-.366.367-.366.39-.369.41-.367.41-.346.433-.346.453-.324.453-.322.454-.304.476-.282.474-.28.498-.278.474-.239.498-.239.518-.216.496-.214.498-.175.496-.172.497-.15.496-.131.497-.13.475-.086.497-.084.475-.067.455-.023.453-.018.432v.432l.018.41.023.411.067.388.084.368.086.346.11.345.128.324.152.281.172.28.173.238.172.217.216.193.195.195M432.41 1003.005l-.237-.173-.282-.13-.258-.129-.303-.108-.3-.065-.324-.043-.325-.021h-.326l-.342.021-.37.043-.365.065-.37.108-.366.108-.39.15-.387.174-.39.195-.389.216-.388.216M257.774 882.887l-3.713-2.83-3.696-2.807-3.65-2.787-3.629-2.765M243.086 871.698l-.195-.172-.194-.173-.194-.195-.172-.216-.132-.216-.149-.216-.13-.237-.107-.26-.196-.454-.152-.497-.107-.496-.065-.497-.043-.562v-.54l.043-.582.044-.303.044-.303M142.581 788.97l.24-.087.235-.086.194-.086.195-.065.217-.065.236-.086M141.134 789.618l.259-.13.237-.107.24-.108.213-.087.24-.108.258-.108M134.98 793.57l-2.03-.67-2.074-.669-3.823-1.274-3.5-1.167-3.434-1.145-1.836-.627-1.816-.604-2.028-.692-2.01-.67M134.98 793.57l.43-.345.454-.347.412-.303.453-.322.39-.282.432-.281.408-.28.216-.13.237-.151.281-.172.282-.174.304-.173.3-.193.369-.195.39-.195.387-.216.41-.194" style="fill:none;stroke:#00ff4a;stroke-width:.999997;stroke-linecap:round;stroke-linejoin:round;stroke-miterlimit:4;stroke-dasharray:none;stroke-opacity:1;visibility:visible"/><path d="m241.358 868.544.085-.345.154-.346M434.008 1008.47v.021M142.474 809.338h0M310.521 925.504l-.365-.281-.348-.302-.303-.325-.257-.324-.216-.345-.172-.346M311.796 926.173l-.455-.216-.432-.216-.388-.237M243.258 816.078l.043.367.089.41.128.411.153.432.17.432.196.41.238.41.236.41.262.369.28.366.301.324.304.303.3.259.303.216.304.173.278.152.282.085M243.347 814.868l-.067.259-.042.281v.324l.022.345" style="fill:none;stroke:#00ff4a;stroke-width:.999997;stroke-linecap:round;stroke-linejoin:round;stroke-miterlimit:4;stroke-dasharray:none;stroke-opacity:1;visibility:visible"/><path d="m241.769 816.898.043.39.088.41.106.41.151.431.175.411.214.432.216.41.259.39.261.388.282.345.28.324.3.303.305.26.3.237.304.172.281.131.282.108.278.043h.239l.236-.043.216-.087.173-.13.151-.194.13-.216.107-.258.066-.282.024-.324v-.366l-.046-.368-.062-.411-.108-.41-.131-.41-.15-.432-.197-.41-.216-.411-.238-.411-.259-.388-.257-.368-.304-.345-.282-.324-.3-.282-.304-.237-.302-.193-.3-.174-.282-.108-.282-.065-.258-.043-.238.022-.216.086-.215.108-.153.151-.151.195-.108.258-.085.26-.046.324v.346l.023.345M238.313 680.062l19.547 202.91" style="fill:none;stroke:#00ff4a;stroke-width:.999997;stroke-linecap:round;stroke-linejoin:round;stroke-miterlimit:4;stroke-dasharray:none;stroke-opacity:1;visibility:visible"/><path d="m419.299 772.597.304-.172.41-.26.41-.281.388-.323.41-.325.346-.302.345-.302.324-.346.346-.346M424.461 767.737l-.303.39-.28.366-.302.368-.323.367-.196.216M413.532 773.202l.023.021.324.131.322.13.324.085.346.065.366.043.37.022.365-.022.39-.022.389-.064.388-.108.412-.108.389-.13.344-.151.325-.15.344-.153.346-.194M295.53 710.475l-.257-.15-.239-.109-.195-.108-.193-.108-.196-.108-.216-.108M229.003 649.37l-.257-.108-.262-.13-.258-.086-.282-.087-.281-.086-.301-.064-.303-.044-.303-.043-.302-.021-.323-.023h-.304l-.324.023-.323.021-.346.043-.323.065-.325.065-.603.151-.607.195-.605.237-.581.281-.604.324-.606.367-.605.39-.584.453-.519.432-.516.453-.477.497-.475.496-.454.519-.411.54-.39.54-.366.561-.345.563-.3.604-.304.583-.26.626-.238.627-.216.627-.173.626-.13.604-.107.671-.087.647-.021.648v.605l.042.583.066.584.129.582.152.562.108.302.107.282.13.301.151.281.152.26.15.259.175.237.192.238.196.238.194.216.216.194.216.194.237.174.239.15.238.152.236.15M427.248 761.387l.108-.432.088-.453.084-.432.067-.432.041-.498.043-.518.022-.496v-.476l-.022-.454-.043-.474-.064-.432-.087-.432-.106-.411-.131-.39-.13-.366-.173-.345-.17-.347-.196-.301-.216-.303-.239-.259-.236-.26-.26-.216-.281-.193-.3-.173h-.024M427.097 762.057l-.13.432-.127.453-.155.454-.15.453-.193.455-.196.453-.193.432-.217.432-.238.453-.238.411-.259.432-.279.41-.261.41" style="fill:none;stroke:#00ff4a;stroke-width:1.99999;stroke-linecap:round;stroke-linejoin:round;stroke-miterlimit:4;stroke-dasharray:none;stroke-opacity:1;visibility:visible"/><path d="m423.058 769.443-.108.108-.087.108-.086.087-.108.108-.086.086M229.003 649.37l196.02 102.924M216.93 668.701l77.305 41.083M295.53 710.475l118.001 62.727M427.248 761.408l-.023.13-.042.129-.02.13-.046.13-.02.129M434.008 1008.47l.024-.087.019-.453.022-.432v-.843l-.041-.41-.065-.388-.067-.368-.087-.346-.128-.345-.13-.324-.151-.281-.15-.28-.173-.26-.197-.216-.215-.194-.216-.194M433.835 1009.894l-.043.345-.041.368-.088.367-.085.367-.108.412-.108.409-.154.432-.15.41-.151.433-.195.41-.193.432-.196.411-.216.41-.237.41-.236.41-.262.39-.258.388-.258.39-.282.366-.279.368-.304.367-.301.324-.304.345-.302.303-.325.302-.324.28-.324.282-.324.258-.321.218-.324.236-.327.194-.324.174-.216.129M419.73 1022.034l.259.173.261.151.281.108.28.108.302.065.322.043.326.021h.345l.345-.021.348-.043.364-.086.371-.087.343-.108.326-.13.343-.151.347-.172M150.357 789.402h0M287.776 890.144l-.303-.237-.301-.216-.304-.239-.3-.216-.281-.215-.282-.194-.26-.195-.26-.195-.237-.152-.216-.172-.216-.172-.193-.152-.195-.15-.193-.152-.172-.13-.152-.15-.172-.131-.154-.15-.15-.13-.151-.108-.13-.13-.13-.109-.128-.106-.11-.087M111.283 784.909l.043-.085.065-.11.087-.085.109-.087.108-.086.127-.087.154-.087.15-.064.324-.15.345-.152.39-.13.409-.129.477-.13.495-.13.582-.15.608-.153M419.644 1021.99l.087.043M128 782.663l1.407.519 1.424.54 2.656.972 2.441.885 2.44.885 2.613.972 2.918 1.059M143.899 788.495l.432-.108.412-.108.365-.064.346-.065.305-.022.3-.022h.52l.257.022.238.043.24.065.216.064M115.754 783.094l.843-.172.43-.087.455-.086.412-.087.432-.087.432-.064.43-.065.411-.064.474-.065.497-.043.543-.065.28-.022.28-.021.301-.021.305-.023.604-.021h1.232l.323.021h.301l.303.023.301.021.282.021.28.043.304.044.301.043.281.044.262.042.257.064.239.066.236.064.217.065M434.008 1008.49l-.023.259-.042.302-.043.282-.021.28-.044.281M426.275 1021.235l-.28.13-.281.129-.258.152-.281.129-.281.13M150.357 789.402l1.404.561 1.425.584 1.406.627 1.424.647 1.426.67 1.426.691 1.425.735 1.447.734 1.448.778 1.446.821 1.447.82 1.448.864 1.468.864 1.448.908 1.447.928 1.47.95 1.446.973 1.469.993 1.468 1.016 1.448 1.036 1.49 1.08 1.471 1.103 1.467 1.101 1.47 1.144M171.741 827.05l-1.297-1.015-1.294-.972-1.274-.972-1.274-.929-1.276-.93-1.276-.885-1.252-.864-1.274-.864-1.231-.82-1.25-.8-1.233-.756-1.209-.756-1.212-.734-1.144-.647-1.101-.627-1.124-.626-1.1-.583-1.082-.563-1.1-.54-1.06-.54-1.058-.496-1.059-.476-1.035-.453-1.036-.453-1.016-.411" style="fill:none;stroke:#00ff4a;stroke-width:1.99999;stroke-linecap:round;stroke-linejoin:round;stroke-miterlimit:4;stroke-dasharray:none;stroke-opacity:1;visibility:visible"/><path d="M116.425 798.992h0l-.497-.195-.454-.237-.454-.259-.455-.281-.408-.303-.412-.324-.39-.345-.365-.367-.346-.41-.346-.411-.301-.41-.28-.454-.261-.475-.236-.474-.216-.498-.196-.497-.15-.519-.132-.517-.128-.563-.064-.54-.065-.561-.024-.561v-.583l.044-.563.065-.561.088-.583.127-.562.132-.518.172-.518.195-.498.217-.497M185.091 810.03l55.015 42.941M271.403 877.379l11.384 8.877M287.776 890.144l19.612 15.315M324.107 918.505l108.346 84.543M171.741 827.05l247.902 194.94M147.529 788.3l2.828 1.101M116.425 798.992l26.05 10.347M308.858 923.581l-.108-.324-.085-.324-.046-.324M308.922 924.553l-.064-.972M308.62 922.61l-15.336-213.32M324.172 919.434l-13.89-201.117M232.352 817.676l.041.367.066.346.065.302.085.324.174.54.196.518.257.519.15.28.174.281M217.037 668.766l3.91 37.908 3.843 37.454 3.826 37 3.734 36.548M238.16 833.25l3.63 36.763M238.16 833.25l-.043-.39-.042-.387-.064-.39-.088-.432-.084-.432-.09-.432-.126-.453-.108-.475-.154-.497-.15-.475-.174-.518-.173-.498-.173-.496-.215-.518-.217-.562-.259-.562-.259-.562-.26-.561-.28-.583-.301-.54-.28-.562-.347-.604-.368-.584-.345-.583M271.468 878.243l-17.841-190.037M260.82 764.713l.324.237.28.282.26.322.237.368.196.39.15.409.132.455.084.474.044.498v.517l-.02.54-.066.54-.109.561-.15.563-.173.561-.216.562-.237.561M324.172 919.434v.15l-.023.153-.042.129-.042.15-.088.13-.086.13-.108.13-.13.15-.15.153-.174.15-.216.195-.257.172M241.79 870.013h0" style="fill:none;stroke:#00ff4a;stroke-width:1.99999;stroke-linecap:round;stroke-linejoin:round;stroke-miterlimit:4;stroke-dasharray:none;stroke-opacity:1;visibility:visible"/><path d="m262.85 883.383-.473.13-.499.107-.475.066-.453.042-.41.022h-.411l-.388-.043-.367-.065-.388-.086-.37-.152-.191-.085-.198-.108-.192-.13-.174-.109" style="fill:none;stroke:#00ff4a;stroke-width:.999997;stroke-linecap:round;stroke-linejoin:round;stroke-miterlimit:4;stroke-dasharray:none;stroke-opacity:1;visibility:visible"/><path d="m271.468 878.243.024.064v.065l-.024.043v.065l-.021.066-.022.064" style="fill:none;stroke:#00ff4a;stroke-width:1.99999;stroke-linecap:round;stroke-linejoin:round;stroke-miterlimit:4;stroke-dasharray:none;stroke-opacity:1;visibility:visible"/><path d="m257.86 882.973-.064-.065" style="fill:none;stroke:#00ff4a;stroke-width:.999997;stroke-linecap:round;stroke-linejoin:round;stroke-miterlimit:4;stroke-dasharray:none;stroke-opacity:1;visibility:visible"/><path d="m293.163 683.638-1.164.65" style="fill:none;stroke:#00ff4a;stroke-width:.666665;stroke-linecap:round;stroke-linejoin:round;stroke-miterlimit:4;stroke-dasharray:none;stroke-opacity:1;visibility:visible"/><path d="m295.676 896.319 6.199-9.785M306.283 889.947l-4.408-3.413M425.514 818.387l-11.403 6.502M425.515 818.387l-11.404 6.502" style="fill:none;stroke:#00ff4a;stroke-width:.999997;stroke-linecap:round;stroke-linejoin:round;stroke-miterlimit:4;stroke-dasharray:none;stroke-opacity:1;visibility:visible"/><path d="m306.283 889.947 15.228-9.137M301.875 886.534l4.408 3.413M301.875 886.534l-6.199 9.785M305.03 872.603l15.271-9.116M301.875 886.534l3.155-13.931" style="fill:none;stroke:#00ff4a;stroke-width:1.99999;stroke-linecap:round;stroke-linejoin:round;stroke-miterlimit:4;stroke-dasharray:none;stroke-opacity:1;visibility:visible"/><path d="m216.93 668.701 11.727 5.141M230.384 673.064l-1.727.778M228.657 673.842l1.727-.778M228.657 673.842l1.664-2.333" style="fill:none;stroke:#00ff4a;stroke-width:.999997;stroke-linecap:round;stroke-linejoin:round;stroke-miterlimit:4;stroke-dasharray:none;stroke-opacity:1;visibility:visible"/><path d="m115.754 783.094 9.072 2.96M115.756 783.094l9.07 2.96M143.899 788.495l-7.711 1.555M143.898 788.495l-7.71 1.555" style="fill:none;stroke:#00ff4a;stroke-width:.666665;stroke-linecap:round;stroke-linejoin:round;stroke-miterlimit:4;stroke-dasharray:none;stroke-opacity:1;visibility:visible"/><path d="m271.425 878.61-1.21 19.267M243.26 816.077l-1.491.821M243.258 816.078l-1.489.82" style="fill:none;stroke:#00ff4a;stroke-width:.999997;stroke-linecap:round;stroke-linejoin:round;stroke-miterlimit:4;stroke-dasharray:none;stroke-opacity:1;visibility:visible"/><path d="m243.086 871.698-2.98-18.727M301.875 886.534l5.513 18.925" style="fill:none;stroke:#00ff4a;stroke-width:1.99999;stroke-linecap:round;stroke-linejoin:round;stroke-miterlimit:4;stroke-dasharray:none;stroke-opacity:1;visibility:visible"/></svg>