<svg xmlns="http://www.w3.org/2000/svg" baseProfile="full" height="1122.52" preserveAspectRatio="xMinYMin meet" style="width:912px;height:1303px" width="793.701" xml:space="preserve"><path d="m404.89 254.15-.324.475-.323.497-.304.497-.281.519-.28.517-.26.519-.237.54-.238.54-.194.54-.195.519-.17.54-.154.54-.15.54-.109.54-.086.518-.087.519-.041.517-.043.498-.024.496v.476l.044.474.043.455.065.432.087.43.085.411.13.39.151.366.151.368.196.324.193.303.216.301.238.26.238.238.259.216.28.194.281.172M263.086 188.897l-.021-.39v-.345l.045-.324.063-.324.108-.281.129-.237M266.931 194.21l-.323-.108-.324-.15-.325-.195-.345-.238-.303-.281-.324-.303-.303-.345-.28-.367-.26-.389-.237-.388-.216-.432-.195-.432-.149-.432-.13-.433-.087-.41-.044-.41" style="fill:none;stroke:red;stroke-width:.999997;stroke-linecap:round;stroke-linejoin:round;stroke-miterlimit:4;stroke-dasharray:none;stroke-opacity:1;visibility:visible"/><path d="m261.273 189.89.043.28.042.26.09.281.084.28.129.282.132.281.15.28.174.28.173.26.192.237.196.238.194.237.214.217.216.238.239.193.237.216.216.173.196.152.216.151.216.15.194.13.196.108.172.087.173.086.17.066.174.064.153.044.127.021.13.021.131-.021.108-.021.108-.022.086-.044.065-.065.065-.064.066-.087.041-.108.043-.108.042-.129.046-.15.02-.153.024-.173v-.777l-.024-.216-.02-.216-.022-.238-.024-.237-.042-.237-.043-.26-.041-.259-.066-.259-.065-.26-.065-.258-.066-.259-.085-.26-.065-.26-.086-.237-.088-.238-.108-.237-.108-.216-.108-.237-.106-.238-.151-.216-.13-.217-.151-.193-.154-.174-.17-.172-.152-.152-.174-.129-.173-.13-.193-.086-.174-.087-.193-.042-.195-.044-.193-.022h-.173l-.196.022-.216.044-.215.064-.196.086-.17.108-.173.13-.174.152-.152.15-.13.195-.129.195-.108.237-.085.216-.066.259-.041.26-.024.258-.023.26.023.259M219.173 170.472l-.195-.108-.193-.13-.216-.151-.239-.151-.214-.173-.239-.194-.216-.194-.237-.195-.216-.216-.216-.237-.194-.216-.196-.238-.192-.238-.174-.259-.172-.259-.151-.281-.13-.259-.109-.26-.085-.258-.088-.26-.065-.259-.043-.237-.021-.238-.022-.26.022-.237.021-.237.043-.216.044-.238.086-.194.086-.216.108-.174.13-.172.108-.152.131-.129.128-.13.153-.086.15-.108.15-.087.174-.064.173-.044.172-.021.173-.021h.194l.173.021.173.021.174.066.172.065.15.064.174.108.15.108.154.13.149.151.15.151.133.173.129.194.128.194.108.216.13.195.086.237.108.216.087.238.086.238.088.238.084.237.066.281.086.282.064.28.066.28.042.281.046.26.044.259.041.258.023.26.02.238.022.216.02.237v.605l-.02.172-.022.174-.043.173-.041.13-.067.129-.065.108-.066.065-.084.064-.109.065-.107.022-.132.021-.129-.021-.15-.022-.174-.044-.173-.064-.172-.086-.195-.087" style="fill:none;stroke:red;stroke-width:.999997;stroke-linecap:round;stroke-linejoin:round;stroke-miterlimit:4;stroke-dasharray:none;stroke-opacity:1;visibility:visible"/><path d="m220.901 169.695-.28-.15-.303-.217-.278-.238-.304-.28-.282-.324-.257-.347-.261-.367-.236-.388-.216-.41-.196-.432-.172-.432-.151-.411-.11-.432-.086-.432-.063-.41-.022-.39v-.367l.042-.345.066-.324.108-.281M220.687 168.075l.065.021.086.043M409.838 249.506l-.303.173-.41.259-.411.281-.408.324-.412.324-.412.346-.388.366-.39.39-.366.41-.388.41-.347.454-.366.454-.346.453M415.54 248.923l-.304-.15-.324-.13-.324-.087-.345-.065-.344-.043-.37-.022h-.366l-.388.044-.388.064-.391.086-.41.108-.409.152-.326.13-.343.15-.348.174-.321.172M413.098 266.57h0M417.765 258.017v.021M134.977 286.335l-.496.237-.476.282M134.977 286.335l.583-.237.608-.216.604-.152.605-.108.604-.043h.603l.584.043.582.086.564.13.56.194" style="fill:none;stroke:red;stroke-width:.999997;stroke-linecap:round;stroke-linejoin:round;stroke-miterlimit:4;stroke-dasharray:none;stroke-opacity:1;visibility:visible"/><path d="m134.006 286.853-.563.345-.518.39-.516.432-.496.474-.478.498-.454.54-.408.561-.391.584-.367.604-.324.627-.301.648-.261.669-.235.69-.197.671-.151.691-.107.713-.088.691-.018.692v.69l.041.67.065.67.128.647.154.648.193.606.239.582.281.562.3.541.327.496.365.476.388.43.432.411.453.347.476.323.498.26.517.237" style="fill:none;stroke:red;stroke-width:.999997;stroke-linecap:round;stroke-linejoin:round;stroke-miterlimit:4;stroke-dasharray:none;stroke-opacity:1;visibility:visible"/><path d="m115.343 282.684-.281.043-.28.044-.303.042-.303.022h-.604l-.304-.022-.3-.021-.238-.021-.215-.044-.197-.043-.17-.065-.13-.064-.11-.066-.064-.064-.022-.086.022-.066.023-.064.085-.065.107-.087.13-.065.151-.064.196-.044.194-.043.216-.065.238-.021.258-.043.261-.021.257-.022h.756l.262.022.258.021.215.043.195.044.172.064.153.044.107.064.085.086.044.066v.086l-.044.086-.085.086-.131.087-.172.065-.216.086-.216.065M126.705 286.68l-.257.043-.282.042-.304.023-.324.021-.302.022h-.302l-.304-.022-.28-.021-.26-.044-.213-.043-.197-.042-.17-.044-.13-.064-.11-.087-.065-.065-.021-.064v-.087l.045-.065.084-.064.087-.066.152-.065.15-.064.196-.044.192-.064.216-.044.24-.021.258-.043.261-.021.257-.023h.756l.262.023.258.042.215.022.216.065.15.043.154.065.127.064.065.065.043.087v.087l-.019.064-.09.086-.15.087-.173.087-.192.064-.239.065" style="fill:none;stroke:red;stroke-width:.666665;stroke-linecap:round;stroke-linejoin:round;stroke-miterlimit:4;stroke-dasharray:none;stroke-opacity:1;visibility:visible"/><path d="m102.944 282.684-.15-.065-.173-.064-.26-.108-.193-.108-.15-.13-.131-.13-.067-.064-.043-.087M101.778 281.928l-.021-.065v-.064l-.02-.066.02-.064v-.065l.045-.065M248.29 379.517h0v.021h.024M253.366 380.014l.521-.13.539-.173.539-.172.561-.194.52-.195.497-.216.495-.216.497-.216.432-.216.412-.195.408-.216.368-.216.367-.194.324-.194.327-.216.3-.194.281-.216.281-.216.215-.195.216-.195.173-.216.151-.194.087-.194.066-.194M298.748 413.731l-.195.519-.126.54-.11.54-.088.54-.018.54v.54l.018.561.066.54.088.519.108.518.149.475.195.475.196.454.238.432.28.39.28.345.302.301.324.239.324.216.369.15.388.109.388.086.39.043h.43l.413-.021.431-.066.43-.064.433-.108.433-.108.433-.15.43-.131.456-.173.473-.194.496-.194.497-.238.496-.216.478-.26.496-.237.474-.259.478-.26.494-.28.475-.302.455-.282.43-.28.218-.152.193-.129.197-.15.17-.13.346-.281.303-.282M416.814 500.26l-.39.259-.41.281-.39.303-.387.324-.39.345-.388.345-.366.367-.366.39-.369.41-.367.41-.346.433-.346.453-.324.453-.322.454-.304.476-.282.474-.28.498-.278.474-.239.498-.239.518-.216.496-.214.498-.175.496-.172.497-.15.496-.131.497-.128.475-.088.497-.084.475-.067.455-.023.453-.018.432v.432l.018.41.023.411.067.388.084.368.088.346.109.345.127.324.152.281.172.28.173.238.172.217.216.193.195.195M422.926 499.635l-.237-.173-.282-.13-.258-.129-.303-.108-.3-.065-.324-.043-.325-.021h-.326l-.342.021-.37.043-.365.065-.37.108-.366.108-.39.15-.387.174-.39.195-.389.216-.388.216M248.29 379.517l-3.713-2.83-3.696-2.807-3.65-2.787-3.629-2.765M233.603 368.328l-.195-.172-.194-.173-.194-.195-.172-.216-.132-.216-.149-.216-.13-.237-.107-.26-.196-.454-.152-.497-.107-.496-.065-.497-.043-.562v-.54l.043-.582.044-.303.044-.303M133.098 285.6l.24-.087.235-.086.194-.086.195-.065.217-.065.236-.086M131.651 286.248l.259-.13.237-.107.24-.108.213-.087.24-.108.258-.108M125.496 290.201l-2.03-.67-2.074-.669-3.823-1.274-3.5-1.167-3.434-1.145-1.836-.627-1.816-.604-2.028-.692-2.01-.67M125.496 290.201l.43-.345.454-.347.412-.303.452-.322.39-.282.433-.281.408-.28.216-.13.237-.151.281-.172.282-.174.304-.173.3-.193.369-.195.39-.195.387-.216.41-.194" style="fill:none;stroke:red;stroke-width:.999997;stroke-linecap:round;stroke-linejoin:round;stroke-miterlimit:4;stroke-dasharray:none;stroke-opacity:1;visibility:visible"/><path d="m231.875 365.174.085-.345.154-.346M424.525 505.1v.021M132.991 305.969h0M301.038 422.134l-.365-.281-.348-.302-.303-.325-.257-.324-.216-.345-.172-.346M302.313 422.803l-.455-.216-.432-.216-.388-.237M233.775 312.708l.043.367.089.41.128.411.153.432.17.432.196.41.238.41.236.41.262.369.28.366.301.324.304.303.3.259.303.216.304.173.278.152.282.085M233.864 311.499l-.067.259-.042.281v.324l.022.345" style="fill:none;stroke:red;stroke-width:.999997;stroke-linecap:round;stroke-linejoin:round;stroke-miterlimit:4;stroke-dasharray:none;stroke-opacity:1;visibility:visible"/><path d="m232.285 313.529.043.39.088.41.106.41.151.431.175.411.214.432.216.41.259.39.261.388.282.345.28.324.3.303.305.26.3.237.304.172.281.131.282.108.278.043h.238l.237-.043.216-.087.173-.13.151-.194.13-.216.107-.258.066-.282.024-.324v-.366l-.046-.368-.062-.411-.108-.41-.131-.41-.15-.432-.197-.41-.216-.411-.238-.411-.259-.388-.257-.368-.304-.345-.282-.324-.3-.282-.304-.237-.302-.193-.3-.174-.282-.108-.282-.065-.258-.043-.238.022-.216.086-.215.108-.153.151-.151.195-.108.258-.085.26-.046.324v.346l.023.345M228.83 176.693l19.547 202.91" style="fill:none;stroke:red;stroke-width:.999997;stroke-linecap:round;stroke-linejoin:round;stroke-miterlimit:4;stroke-dasharray:none;stroke-opacity:1;visibility:visible"/><path d="m409.815 269.227.304-.172.41-.26.41-.281.388-.323.41-.325.346-.302.345-.302.324-.346.346-.346M414.978 264.367l-.303.39-.28.366-.302.368-.323.367-.196.216M404.049 269.832l.023.021.324.131.322.13.324.085.346.065.366.043.37.022.365-.022.39-.022.389-.064.388-.108.412-.108.389-.13.344-.151.325-.15.344-.153.346-.194M286.047 207.105l-.257-.15-.239-.109-.195-.108-.193-.108-.196-.108-.216-.108M219.52 146l-.257-.108-.262-.13-.258-.086-.282-.087-.281-.086-.3-.064-.304-.044-.303-.043-.302-.021-.323-.023h-.304l-.324.023-.323.021-.346.043-.323.065-.325.065-.603.151-.607.195-.605.237-.581.281-.604.324-.606.367-.605.39-.584.453-.519.432-.516.453-.477.497-.475.496-.454.519-.411.54-.39.54-.366.561-.345.563-.3.604-.304.583-.26.626-.238.627-.216.627-.173.626-.13.604-.107.671-.087.647-.021.648v.605l.042.583.066.584.129.582.152.562.108.302.107.282.13.301.151.281.152.26.15.259.175.237.192.238.196.238.194.216.216.194.216.194.237.174.239.15.238.152.236.15M417.765 258.017l.108-.432.087-.453.085-.432.067-.432.041-.498.043-.518.022-.496v-.476l-.022-.454-.043-.474-.064-.432-.087-.432-.106-.411-.131-.39-.13-.366-.174-.345-.17-.347-.195-.301-.216-.303-.239-.259-.237-.26-.259-.216-.281-.193-.3-.173h-.024M417.614 258.687l-.13.432-.127.453-.155.454-.15.453-.193.455-.196.453-.193.432-.217.432-.238.453-.238.411-.259.432-.279.41-.261.41" style="fill:none;stroke:red;stroke-width:1.99999;stroke-linecap:round;stroke-linejoin:round;stroke-miterlimit:4;stroke-dasharray:none;stroke-opacity:1;visibility:visible"/><path d="m413.575 266.073-.108.108-.087.108-.086.087-.108.108-.086.086M219.52 146l196.02 102.924M207.447 165.331l77.305 41.083M286.047 207.105l118.001 62.727M417.765 258.038l-.023.13-.042.129-.022.13-.044.13-.02.129M424.525 505.1l.024-.087.019-.453.022-.432v-.843l-.041-.41-.065-.388-.067-.368-.087-.346-.128-.345-.13-.324-.151-.281-.15-.28-.173-.26-.197-.216-.215-.194-.216-.194M424.352 506.525l-.043.345-.041.368-.088.367-.085.367-.108.412-.108.409-.154.432-.15.41-.151.433-.195.41-.193.432-.196.411-.216.41-.237.41-.236.41-.262.39-.258.388-.258.39-.282.366-.279.368-.304.367-.301.324-.304.345-.302.303-.325.302-.324.28-.324.282-.324.258-.321.218-.326.236-.325.194-.324.174-.216.129M140.874 286.032h0M278.293 386.775l-.303-.237-.301-.216-.304-.239-.3-.216-.281-.215-.282-.194-.258-.195-.262-.195-.236-.152-.217-.172-.216-.172-.193-.152-.195-.15-.193-.152-.172-.13-.152-.15-.172-.131-.154-.15-.15-.13-.151-.108-.13-.13-.129-.109-.129-.106-.11-.087M101.8 281.539l.043-.085.065-.11.087-.085.108-.087.109-.086.127-.087.154-.087.15-.064.324-.15.345-.152.39-.13.409-.129.477-.13.495-.13.582-.15.607-.153M118.517 279.293l1.407.519 1.424.54 2.656.972 2.441.885 2.44.885 2.613.972 2.918 1.059" style="fill:none;stroke:red;stroke-width:1.99999;stroke-linecap:round;stroke-linejoin:round;stroke-miterlimit:4;stroke-dasharray:none;stroke-opacity:1;visibility:visible"/><path d="m134.416 285.125.432-.108.412-.108.365-.064.346-.065.305-.022.3-.022h.52l.257.022.238.043.24.065.216.064M106.271 279.725l.843-.172.43-.087.455-.086.41-.087.434-.087.432-.064.43-.065.411-.064.474-.065.497-.043.541-.065.282-.022.278-.021.303-.021.304-.023.605-.021h1.231l.324.021h.301l.303.023.301.021.282.021.28.043.304.044.301.043.281.044.262.042.257.064.239.066.236.064.217.065M424.525 505.121l-.023.259-.042.302-.043.282-.021.28-.044.281M416.792 517.865l-.28.13-.281.129-.258.152-.281.129-.281.13M140.874 286.032l1.404.561 1.425.584 1.406.627 1.424.647 1.426.67 1.426.691 1.425.735 1.447.734 1.448.778 1.446.821 1.447.82 1.448.864 1.468.864 1.448.908 1.447.928 1.47.95 1.446.973 1.47.993 1.467 1.016 1.448 1.036 1.49 1.08 1.471 1.103 1.467 1.1 1.47 1.145M162.258 323.681l-1.297-1.015-1.294-.972-1.274-.972-1.274-.929-1.276-.93-1.276-.885-1.252-.864-1.274-.864-1.231-.82-1.25-.8-1.233-.756-1.209-.756-1.212-.734-1.144-.647-1.101-.627-1.124-.626-1.1-.583-1.082-.563-1.1-.54-1.06-.54-1.058-.496-1.059-.476-1.035-.453-1.036-.453-1.016-.411M106.942 295.622h0l-.497-.195-.454-.237-.454-.259-.455-.281-.408-.303-.412-.324-.39-.345-.365-.367-.346-.41-.346-.411-.301-.41-.28-.454-.261-.475-.236-.474-.216-.498-.196-.497-.15-.519-.132-.517-.129-.563-.063-.54-.065-.561-.024-.561v-.583l.044-.563.065-.561.088-.583.127-.562.132-.518.172-.518.193-.498.219-.497M175.608 306.66l55.015 42.941M261.92 374.01l11.384 8.877M278.293 386.775l19.612 15.315M314.624 415.135l108.346 84.542M162.258 323.681l247.902 194.94M138.046 284.93l2.828 1.101M106.942 295.622l26.05 10.347M299.375 420.211l-.108-.324-.087-.324-.044-.324M299.44 421.183l-.064-.972M299.137 419.24l-15.336-213.32M314.69 416.064 300.8 214.947M222.869 314.307l.041.367.066.346.065.302.085.324.174.54.196.518.257.519.15.28.174.281M207.554 165.396l3.91 37.908 3.843 37.454 3.826 37 3.734 36.548M228.677 329.88l3.63 36.763M228.677 329.88l-.043-.39-.041-.387-.065-.39-.088-.432-.084-.432-.09-.432-.126-.453-.108-.475-.154-.497-.15-.475-.174-.518-.173-.498-.173-.496-.215-.518-.217-.562-.259-.562-.257-.562-.262-.561-.28-.583-.301-.54-.28-.562-.347-.604-.366-.584-.347-.583M261.985 374.873l-17.841-190.037M251.336 261.344l.324.237.28.282.26.322.237.368.196.39.15.409.132.455.084.474.044.498v.517l-.02.54-.066.54-.109.561-.15.563-.173.561-.217.562-.236.561M314.69 416.064v.15l-.023.153-.042.129-.042.15-.088.13-.086.13-.108.13-.13.15-.15.153-.174.15-.216.195-.257.172M232.306 366.643h0" style="fill:none;stroke:red;stroke-width:1.99999;stroke-linecap:round;stroke-linejoin:round;stroke-miterlimit:4;stroke-dasharray:none;stroke-opacity:1;visibility:visible"/><path d="m253.366 380.014-.473.13-.499.107-.475.066-.453.042-.41.022h-.411l-.388-.043-.367-.065-.388-.086-.37-.152-.191-.085-.198-.108-.192-.13-.174-.109" style="fill:none;stroke:red;stroke-width:.999997;stroke-linecap:round;stroke-linejoin:round;stroke-miterlimit:4;stroke-dasharray:none;stroke-opacity:1;visibility:visible"/><path d="m261.985 374.873.024.064v.065l-.024.043v.065l-.021.066-.022.064" style="fill:none;stroke:red;stroke-width:1.99999;stroke-linecap:round;stroke-linejoin:round;stroke-miterlimit:4;stroke-dasharray:none;stroke-opacity:1;visibility:visible"/><path d="m248.377 379.603-.064-.065M263.086 188.897l-1.813.993M207.447 165.331l11.726 5.141M220.901 169.695l-1.728.777M219.173 170.472l1.728-.777M219.173 170.472l1.665-2.333" style="fill:none;stroke:red;stroke-width:.999997;stroke-linecap:round;stroke-linejoin:round;stroke-miterlimit:4;stroke-dasharray:none;stroke-opacity:1;visibility:visible"/><path d="m106.271 279.725 9.072 2.959M106.272 279.724l9.071 2.96M134.416 285.125l-7.711 1.555M134.415 285.125l-7.71 1.555" style="fill:none;stroke:red;stroke-width:.666665;stroke-linecap:round;stroke-linejoin:round;stroke-miterlimit:4;stroke-dasharray:none;stroke-opacity:1;visibility:visible"/><path d="m233.777 312.708-1.492.821M233.775 312.708l-1.49.821" style="fill:none;stroke:red;stroke-width:.999997;stroke-linecap:round;stroke-linejoin:round;stroke-miterlimit:4;stroke-dasharray:none;stroke-opacity:1;visibility:visible"/><path d="m233.602 368.328-2.98-18.727M261.273 189.89l-17.13-5.054" style="fill:none;stroke:red;stroke-width:1.99999;stroke-linecap:round;stroke-linejoin:round;stroke-miterlimit:4;stroke-dasharray:none;stroke-opacity:1;visibility:visible"/><path d="m475.611 276.182-.044-.519-.088-.517-.108-.519-.15-.54-.174-.518-.192-.54-.239-.54-.26-.519-.302-.496-.303-.497-.344-.475-.345-.476-.388-.432-.391-.388-.388-.39-.412-.345-.432-.324-.41-.26M323.913 352.495l.323-.15.324-.109.345-.065.39-.021h.389l.388.065.412.108.432.15.43.194.432.239.411.281.432.301.432.346.41.389.413.41.388.433.366.453.346.497.346.496.302.54.304.519.257.561.239.54.193.562.172.54.132.54.107.541.066.517.043.519v.475l-.024.476-.061.453-.111.41-.13.389-.171.345-.196.304-.235.28-.263.237-.278.216M349.4 349.017l-.172.108-.173.15-.15.131-.15.172-.155.195-.127.195-.132.194-.108.216-.106.238-.088.216-.086.237-.065.237-.084.239-.065.259-.043.237-.045.259-.044.217-.043.237-.021.216-.02.216v.216l-.024.195v.172l.024.173v.172l.02.174.021.129.024.152.041.108.043.108.043.108.045.064.128.108.13.065.151.022h.107l.09-.022.107-.022.127-.043.108-.043.13-.044.13-.064.15-.086.133-.064.149-.087.15-.108.154-.087.152-.108.172-.13.172-.108.15-.13.175-.15.172-.13.151-.152.15-.129.303-.303.283-.301.235-.347.13-.172.108-.194.108-.195.088-.193.064-.174.063-.194.047-.195.018-.193.023-.174v-.194l-.023-.174-.018-.172-.047-.173-.063-.15-.088-.174-.084-.13-.108-.173-.132-.129-.129-.13-.15-.129-.174-.086-.15-.087-.173-.064-.196-.065-.192-.043h-.39l-.195.021-.216.022-.173.065-.192.087-.175.085M459.128 288.818l-.15.087-.153.086-.15.086-.15.065-.132.043-.128.044-.109.021h-.195l-.085-.021-.087-.044-.065-.043-.065-.065-.043-.086-.041-.086-.044-.13-.023-.108-.043-.129v-.152l-.022-.15v-.714l.022-.195.024-.216.019-.216.023-.216.044-.237.041-.216.043-.237.065-.216.108-.411.13-.388.173-.368.086-.195.088-.172.107-.173.11-.15.129-.153.106-.129.13-.13.129-.13.152-.085.13-.087.15-.087.15-.064.153-.042.15-.044.152-.022h.323l.155.022.149.021.15.044.282.108.26.15.236.195.108.13.108.129.088.13.085.151.064.172.044.152.046.172.018.174v.345l-.018.195-.023.172-.067.194-.064.195-.065.195-.085.173-.131.215-.128.217-.13.195-.15.193-.153.173-.171.194-.173.173-.175.173-.195.172-.193.152-.195.172-.193.13-.196.152-.173.129-.194.108-.173.108" style="fill:none;stroke:#00ff4a;stroke-width:.999997;stroke-linecap:round;stroke-linejoin:round;stroke-miterlimit:4;stroke-dasharray:none;stroke-opacity:1;visibility:visible"/><path d="m327.347 357.334.239.15.236.217.218.216.216.26.192.28.174.302.15.303.13.324.066.303.066.302.02.28-.02.282-.066.237-.088.195-.108.172-.15.129-.174.108-.192.044h-.216l-.218-.044-.236-.064-.262-.13-.234-.173-.239-.193-.216-.239-.216-.26-.196-.28-.172-.302-.15-.303-.109-.301-.085-.324-.067-.303v-.54l.067-.237.085-.216.108-.174.151-.129.172-.087.196-.064h.216l.216.043.239.087.257.129M466.559 269.94l.432.259.453.324.432.346.432.367.411.432.388.432.39.476.346.496.347.519.3.517.281.541.26.562.217.54.192.561.151.561.13.563.089.539.041.52.021.517-.021.497-.065.475-.087.432-.13.41-.171.39-.196.345-.235.323M463.426 269.27l.347-.044.366-.021.39.021.388.065.41.108.41.13.412.194.412.216M331.883 350.357l.432.281.43.324.435.346.431.388.412.433.388.43.39.477.365.496.324.52.324.538.281.542.28.56.216.562.216.562.173.54.131.561.107.54.085.54.023.519v.497l-.023.475-.061.453-.108.41-.154.39-.15.367-.216.324-.239.281-.259.237-.278.216M327.93 349.924l.304-.15.344-.13.37-.065.387-.022.388.022.41.065.434.108.43.15.456.217.432.237M327.239 350.53l.756-.453" style="fill:none;stroke:#00ff4a;stroke-width:.999997;stroke-linecap:round;stroke-linejoin:round;stroke-miterlimit:4;stroke-dasharray:none;stroke-opacity:1;visibility:visible"/><path d="m471.03 268.126.412.259.408.302.39.347.387.388.37.39.365.431.348.454.3.474.303.476.258.496.239.519.216.519.172.518.152.518.107.497.089.519.041.474M470.425 267.758l-.43-.237-.431-.174-.435-.15-.432-.087-.388-.065h-.412l-.367.021-.366.087-.344.108-.326.173M474.054 280.027l.281-.195.259-.237.216-.26.216-.301.172-.324.155-.368.106-.388.087-.411.041-.432.024-.453v-.476M470.64 267.888l-.108-.064-.107-.065M322.444 356.362l.023.453.042.498.086.496.13.497.131.519.192.517.196.519.236.497.261.519.28.496.303.476.344.453.348.453.345.411.388.39.39.366.389.324.408.303.388.258M322.444 355.822l.023-.453.042-.432.086-.411.106-.39.131-.343.175-.326.172-.302.237-.259.236-.216.261-.195M331.668 365.477l-.281.13-.324.129-.324.065-.346.021h-.366l-.37-.042-.389-.087-.408-.13-.388-.173-.412-.194M470.965 281.885l-.216.216-.216.216-.26.173M462.563 269.594l.259-.13.302-.107.302-.087M327.239 350.53l.216-.237.216-.195.261-.173M475.588 275.707l.024.475M471.03 268.126l-.39-.237M322.444 356.362v-.54M327.585 364.937l.473.259M323.913 352.495l3.325-1.965M331.668 365.477l3.325-1.988M474.054 280.027l-3.087 1.857M466.494 267.435l-3.068 1.836M470.275 282.49l-134.437 80.676M462.563 269.594l-134.633 80.33" style="fill:none;stroke:#00ff4a;stroke-width:1.99999;stroke-linecap:round;stroke-linejoin:round;stroke-miterlimit:4;stroke-dasharray:none;stroke-opacity:1;visibility:visible"/><path d="m335.838 363.166 13.562-14.149M470.273 282.49l-11.145 6.328M470.275 282.49l-11.147 6.328M327.324 364.807l.023-7.473M327.585 364.937l-.238-7.603" style="fill:none;stroke:#00ff4a;stroke-width:.999997;stroke-linecap:round;stroke-linejoin:round;stroke-miterlimit:4;stroke-dasharray:none;stroke-opacity:1;visibility:visible"/></svg>