<svg xmlns="http://www.w3.org/2000/svg" baseProfile="full" height="1122.52" preserveAspectRatio="xMinYMin meet" style="width:912px;height:1303px" width="793.701" xml:space="preserve"><path d="m515.084 651.476-.207-.01-.2.039-.19.089-.174.137-.153.177-.133.217-.102.248-.07.277-.045.297-.01.304.027.311.054.308.086.294.118.273.143.25.163.213.184.177.194.135.201.085.21.04.203-.014.197-.063M511.851 657.143l.699-5.551" style="fill:none;stroke:red;stroke-width:.999997;stroke-linecap:round;stroke-linejoin:round;stroke-miterlimit:4;stroke-dasharray:none;stroke-opacity:1;visibility:visible"/><path d="m512.55 651.592.094-.41.126-.389.157-.36.18-.33.213-.287.232-.252.248-.205.275-.163.281-.11.294-.062.303-.011.302.042.304.092.298.143.29.19.28.239.262.28.243.32.219.358.198.387.168.413.136.436.104.45.075.459.039.466.004.461-.032.453-.067.441" style="fill:none;stroke:red;stroke-width:.999997;stroke-linecap:round;stroke-linejoin:round;stroke-miterlimit:4;stroke-dasharray:none;stroke-opacity:1;visibility:visible"/><path d="m515.421 651.6-.164-.08-.172-.044M515.58 655.26l.18-.104.157-.147.143-.187.116-.22.09-.249.062-.272.037-.288.003-.3-.032-.3-.056-.293-.088-.285-.115-.266-.137-.238-.16-.208-.172-.171-.187-.132M512.168 647.556l.264-.426.295-.386.316-.345.336-.306.353-.26.37-.213.387-.171.398-.117.408-.068M510.4 657.104l1.768-9.548M515.777 645.212l.406-.016.409.03.408.081.41.128.407.177.395.221.388.27.381.314.36.355.35.395.325.433.305.47.284.501.259.531.233.552.2.579.175.594.139.609.109.62.077.624M521.516 655.31l.281-2.63M515.295 645.264l.482-.052" style="fill:none;stroke:red;stroke-width:.999997;stroke-linecap:round;stroke-linejoin:round;stroke-miterlimit:4;stroke-dasharray:none;stroke-opacity:1;visibility:visible"/><path d="M569.319 862.06c-.806.23-1.476.584-1.955 1.05M570.464 862.07a2.32 2.32 0 0 0-1.144-.01M566.359 871.138c.23.235.578.424.976.525M571.355 862.297l-.891-.227M568.225 871.89l-.888-.228M430.932 898.462c-.238-.25-.602-.45-1.028-.562M432.03 900.385c-.131-.652-.514-1.308-1.097-1.922M429.87 907.014c.954-.916 1.63-1.957 1.994-3.084.367-1.125.422-2.32.167-3.545M427.78 908.13c.864-.247 1.583-.628 2.088-1.116M426.57 908.12c.424.104.857.108 1.21.008M426.932 903.603l.612-1.772M427.546 901.831l1.252-.526M427.684 904.713l-.75-1.11M423.486 905.394c.14.65.517 1.31 1.097 1.921M425.654 898.765c-.96.915-1.63 1.955-1.992 3.084-.372 1.12-.424 2.32-.178 3.544M427.736 897.649c-.86.246-1.576.62-2.082 1.116M428.955 897.66a2.484 2.484 0 0 0-1.219-.012M424.583 907.317c.247.249.615.452 1.041.558M429.904 897.9l-.95-.24M426.57 908.12l-.946-.246M364.442 692.613a1.301 1.301 0 0 1 .7-.51M363.755 694.47a4.157 4.157 0 0 1 .69-1.858M365.588 701.152a9.373 9.373 0 0 1-1.552-3.15 9.67 9.67 0 0 1-.28-3.532M367.115 702.357a3.925 3.925 0 0 1-1.528-1.204M367.97 702.401a1.24 1.24 0 0 1-.855-.045M367.506 697.902l-.516-1.786M366.99 696.116l-.91-.582M367.026 698.97l.478-1.069M370.023 699.838a4.255 4.255 0 0 1-.687 1.86M368.184 693.158a9.203 9.203 0 0 1 1.55 3.152 9.623 9.623 0 0 1 .29 3.528M366.662 691.954a3.93 3.93 0 0 1 1.524 1.204M365.8 691.908a1.28 1.28 0 0 1 .86.045M369.336 701.697a1.303 1.303 0 0 1-.708.508M365.143 692.104l.657-.195M367.97 702.401l.657-.195M263.137 572.861c.14-.211.36-.374.628-.456M262.522 574.524c.057-.573.27-1.141.615-1.663" style="fill:none;stroke:red;stroke-width:.999997;stroke-linecap:round;stroke-linejoin:round;stroke-miterlimit:2;stroke-dasharray:none;stroke-opacity:1;visibility:visible"/><path d="M264.16 580.497a8.427 8.427 0 0 1-1.386-2.82 8.592 8.592 0 0 1-.252-3.153M265.527 581.572a3.455 3.455 0 0 1-1.362-1.075M266.29 581.613a1.09 1.09 0 0 1-.763-.041M265.875 577.59l-.46-1.599M265.415 575.993l-.81-.518M265.446 578.544l.428-.955M268.126 579.321a3.77 3.77 0 0 1-.613 1.663M266.483 573.348a8.29 8.29 0 0 1 1.387 2.819 8.589 8.589 0 0 1 .256 3.153M265.12 572.272a3.453 3.453 0 0 1 1.363 1.077M264.35 572.232a1.143 1.143 0 0 1 .77.04M267.513 580.983a1.147 1.147 0 0 1-.636.453M263.763 572.405l.587-.173M266.29 581.613l.587-.176M568.225 871.89c.399.1.806.104 1.139.01M568.565 867.649l.575-1.663M569.139 865.987l1.177-.493M569.27 868.693l-.702-1.043M565.327 869.33c.137.612.483 1.23 1.03 1.807M567.365 863.107c-.902.86-1.528 1.836-1.868 2.895-.352 1.055-.401 2.179-.167 3.328M410.595 697.925a9.399 9.399 0 0 1-1.552-3.153 9.661 9.661 0 0 1-.281-3.53M412.122 699.13a3.933 3.933 0 0 1-1.528-1.205M412.976 699.173a1.232 1.232 0 0 1-.854-.045M412.511 694.674l-.515-1.786M411.996 692.888l-.909-.58M412.032 695.741l.479-1.065M415.03 696.61a4.227 4.227 0 0 1-.687 1.86M413.191 689.93a9.18 9.18 0 0 1 1.55 3.152 9.644 9.644 0 0 1 .289 3.528M411.668 688.726a3.921 3.921 0 0 1 1.524 1.204M410.807 688.681a1.293 1.293 0 0 1 .863.044M414.343 698.468a1.296 1.296 0 0 1-.708.506M410.15 688.876l.657-.196M412.976 699.173l.658-.196M434.266 917.851c-.24-.251-.603-.45-1.028-.56M435.364 919.774c-.133-.652-.516-1.308-1.098-1.924M433.203 926.403c.955-.916 1.63-1.959 1.995-3.083.366-1.126.42-2.322.166-3.546M431.114 927.518c.864-.248 1.582-.628 2.088-1.115M429.903 927.507c.424.107.857.11 1.21.01M430.266 922.991l.612-1.77M430.879 921.22l1.251-.528M431.018 924.1l-.75-1.11M426.819 924.782c.141.65.517 1.31 1.097 1.921M428.987 918.153c-.96.916-1.63 1.957-1.992 3.083-.37 1.124-.425 2.321-.177 3.544M431.07 917.037c-.86.246-1.576.62-2.083 1.116M432.288 917.049a2.5 2.5 0 0 0-1.218-.012M427.916 926.704c.248.25.615.454 1.042.56M433.238 917.29l-.95-.241M429.903 927.507l-.945-.244M571.51 882.34c-.227-.234-.57-.421-.968-.526M572.541 884.147c-.126-.612-.481-1.23-1.03-1.805M570.51 890.37c.897-.861 1.526-1.837 1.872-2.893.346-1.06.397-2.184.158-3.331M568.55 891.418c.81-.23 1.486-.588 1.96-1.048M567.412 891.407c.398.1.804.104 1.137.01M567.755 887.166l.574-1.663M568.327 885.503l1.177-.493M568.46 888.209l-.704-1.043M564.516 888.849c.137.61.484 1.23 1.03 1.805M566.553 882.625c-.902.86-1.528 1.835-1.868 2.894-.352 1.055-.401 2.179-.168 3.328M568.508 881.577c-.805.23-1.478.583-1.955 1.048M569.652 881.587c-.4-.1-.807-.1-1.143-.01M565.547 890.654c.23.236.58.425.977.526M570.544 881.814l-.89-.225M567.412 891.407l-.888-.227M572.32 862.822c-.225-.235-.568-.421-.968-.527M573.352 864.63c-.127-.612-.483-1.23-1.03-1.805M571.32 870.854c.899-.861 1.53-1.839 1.873-2.895.347-1.057.397-2.181.157-3.329" style="fill:none;stroke:red;stroke-width:.999997;stroke-linecap:round;stroke-linejoin:round;stroke-miterlimit:2;stroke-dasharray:none;stroke-opacity:1;visibility:visible"/><path d="M569.361 871.9c.812-.23 1.489-.586 1.96-1.045M268.28 635.916a1.157 1.157 0 0 1 .625-.457M267.663 637.579a3.7 3.7 0 0 1 .615-1.662M269.303 643.552a8.408 8.408 0 0 1-1.388-2.819 8.597 8.597 0 0 1-.252-3.153M270.669 644.628a3.43 3.43 0 0 1-1.364-1.078M271.433 644.668a1.085 1.085 0 0 1-.763-.041M271.017 640.644l-.46-1.597M270.557 639.048l-.811-.52M270.589 641.599l.428-.955M273.269 642.376a3.77 3.77 0 0 1-.614 1.661M271.626 636.404a8.296 8.296 0 0 1 1.385 2.816 8.599 8.599 0 0 1 .259 3.156M270.263 635.327a3.443 3.443 0 0 1 1.362 1.077M269.493 635.287a1.15 1.15 0 0 1 .77.038M272.655 644.037a1.15 1.15 0 0 1-.633.454M268.905 635.461l.588-.174M271.433 644.668l.587-.176M409.448 689.385a1.301 1.301 0 0 1 .7-.51M408.762 691.244c.064-.639.305-1.276.688-1.859" style="fill:none;stroke:red;stroke-width:.999997;stroke-linecap:round;stroke-linejoin:round;stroke-miterlimit:2;stroke-dasharray:none;stroke-opacity:1;visibility:visible"/><path d="m449.099 635.144-.361-2.275 2.069-.809 13.5-1.956 3.043-1.209 8.497 5.749-1.415 1.416-3 .75-11.581 2.086h-4.252l-6.5-3.752" style="fill:none;fill-opacity:1;fill-rule:nonzero;stroke:red;stroke-width:1.33333;visibility:visible"/><path d="m470.419 622.81-.206-.01-.202.04-.191.088-.171.136-.154.179-.135.217-.099.25-.075.273-.04.296-.01.308.028.309.053.307.086.294.117.276.142.248.165.214.181.177.197.136.2.084.206.037.209-.009.193-.063M463.139 633.355l.127-.095.076-.1.03-.117-.025-.126-.068-.127-.12-.13-.164-.128-.208-.125-.237-.115-.27-.103-.289-.086-.304-.078-.31-.053-.312-.036-.301-.013-.284.002-.257.026M466.62 629.709l1.267-6.782M471.78 632.883l1.332-6.907" style="fill:none;stroke:red;stroke-width:.999997;stroke-linecap:round;stroke-linejoin:round;stroke-miterlimit:4;stroke-dasharray:none;stroke-opacity:1;visibility:visible"/><path d="m467.887 622.927.09-.41.131-.39.152-.358.184-.329.211-.29.232-.253.25-.205.269-.162.284-.11.294-.063.303-.01.302.041.304.094.3.143.287.19.281.237.262.28.245.324.217.353.196.388.169.415.14.435.101.449.079.464.035.46.005.463-.034.454-.064.439M466.326 630.036l.094-.036.09-.076.069-.1.041-.115M466.326 630.036l5.15 3.183M471.477 633.219l.096-.042.097-.073.067-.108.043-.113M452.716 631.995l-.361.064-.323.081-.282.105-.242.122-.194.137-.148.155-.096.161-.044.177.008.186.064.193.11.196.166.197.212.199.26.195.307.185.342.177.379.17.406.155.44.143.45.122.468.104.478.085.476.065.468.041.463.021.445-.004.418-.027.393-.045M471.478 633.219l-13.701 2.136M460.223 631.951l-5.415.796" style="fill:none;stroke:red;stroke-width:.999997;stroke-linecap:round;stroke-linejoin:round;stroke-miterlimit:4;stroke-dasharray:none;stroke-opacity:1;visibility:visible"/><path d="m454.808 632.747-.233.046-.199.067-.156.083-.111.1-.069.112-.014.118.034.127.084.133M470.756 622.935l-.165-.078-.172-.047M470.913 626.595l.18-.103.158-.152.142-.183.117-.217.093-.252.06-.272.036-.288.001-.299-.03-.301-.057-.296-.088-.284-.114-.264-.139-.24-.157-.207-.175-.173-.184-.13M462.642 633.505l.193-.035.165-.053.14-.062M450.694 631.997l-.374.063-.362.076-.336.087M467.502 618.89l.268-.424.29-.386.317-.35.337-.301.351-.262.373-.217.387-.167.395-.118.408-.065M465.734 628.44l1.768-9.55M471.112 616.547l.404-.017.41.029.406.084.412.127.406.175.397.222.39.27.377.315.361.356.35.392.323.435.312.469.279.503.258.53.235.553.199.575.174.598.14.607.108.619.078.626M475.192 633.855l1.939-9.84M464.266 630.057l.21-.052.215-.093.209-.133.2-.17.18-.198.158-.226.13-.242.102-.25.064-.253M473.084 636.22l.248-.063.248-.102.247-.14.241-.18.23-.21.209-.24.196-.258.166-.282.138-.294.108-.298.077-.298M464.266 630.057l-13.572 1.94M457.214 634.335l5.429-.83M454.146 633.533l.126.13.17.124.214.12.236.112.27.098.293.087.301.07.31.052.309.031.297.013.282-.007.26-.028M448.455 633.47l.055-.21.093-.2.133-.188.168-.182.206-.166.24-.159.272-.142M473.084 636.22l-13.713 2.28M458.103 638.635l.442-.03.422-.048.403-.056M448.354 634.08l-.014.245.038.256.086.259.139.267.192.265.241.268.287.267.332.262.377.261.422.251.458.246.495.233.53.22.556.21.581.191.602.179.619.153.635.14.636.12.644.097.636.077.636.053.62.035M470.629 616.598l.483-.051M448.354 634.08l.1-.61M409.292 848.102l-.802.125-.803.147M424.93 844.938l-1.378.324-1.378.307-1.302.285-1.301.275-2.391.496-2.389.465-1.279.256-1.301.241-1.461.259-1.458.256M398.45 842.086h0M422.14 837.755l-1.3.303-1.298.29-1.219.256-1.221.258-2.262.463-2.226.435-1.219.238-1.219.21-1.369.258-1.36.224M407.447 840.691l-.77.127-.756.128M405.922 840.946l-.079.017" style="fill:none;stroke:red;stroke-width:.999997;stroke-linecap:round;stroke-linejoin:round;stroke-miterlimit:4;stroke-dasharray:none;stroke-opacity:1;visibility:visible"/><path d="m424.916 848.74-1.878.437-1.908.417-1.911.416-1.937.4-1.926.385-1.956.37-1.977.352-1.955.353M409.45 851.87h-.046l-.064.017-.064.016h-.068l-.046.015" style="fill:none;stroke:red;stroke-width:1.99999;stroke-linecap:round;stroke-linejoin:round;stroke-miterlimit:4;stroke-dasharray:none;stroke-opacity:1;visibility:visible"/><path d="m398.516 859.143 31-6.666-.333-21.334-29.667 5.334-1 22.666" style="fill:none;fill-opacity:1;fill-rule:nonzero;stroke:red;stroke-width:1.33333;visibility:visible"/><path d="m380.247 950.594-1.076-.784-1.044-.835-1.007-.867-.977-.9-.95-.926-.898-.966-.881-.996-.834-1.025-.786-1.06-.754-1.072-.72-1.105-.66-1.14-.627-1.14-.591-1.17-.53-1.206-.499-1.202-.447-1.217-.386-1.237-.354-1.25-.304-1.255-.259-1.263-.19-1.27-.157-1.28-.098-1.268-.066-1.285v-1.284l.048-1.265.096-1.284.146-1.267.19-1.253.244-1.247.287-1.237.337-1.219.398-1.202.437-1.188.48-1.169.528-1.161.581-1.116.624-1.11.66-1.075.722-1.063.734-1.02.802-.997.817-.961.885-.931.896-.881.948-.87M380.602 950.851l-.178-.128-.177-.128M418.651 954.431l-2.005.317-2.006.322-2.02.305-2.04.29-2.052.269-2.057.274-2.052.246M404.419 956.452l-.204.012-.197.018-.386.05-.77.061-.782.051-.77.031-.771.013h-.77l-.786-.012-.768-.052-.772-.048-.772-.062-.77-.082-.767-.094-.769-.13-.772-.128-.755-.144-.768-.176-.771-.174-.753-.21-.756-.226-.736-.224-.736-.256-.74-.274-.738-.272-.724-.306-.721-.319-.708-.337-.703-.336-.69-.372-.688-.384-.674-.384-.674-.42-.339-.206-.159-.094-.157-.116M575.897 846.04h0M566.077 914.84l-2.64 1.075-2.682 1.071-2.727 1.076-2.776 1.057-2.822 1.061-2.855 1.057-2.907 1.044-2.935 1.043-2.981 1.046-3.019 1.024-3.062 1.026-3.096 1.01-3.142 1.012-3.178 1.012-3.222.993-3.256.977-3.289.978-3.336.98-3.37.962-3.399.946-3.433.945-3.465.95-3.517.912-3.541.934-3.563.896-3.61.897-3.639.898-3.675.885-3.688.864-3.737.849-3.755.852-3.784.836-3.816.816-3.834.818-3.871.801-3.896.788-3.93.787-3.929.77-3.977.75-3.979.738-4.01.722-4.042.724-4.04.708M576.616 846.218h0M378.851 952.792l-.05.051-.031.03h-.015M430.132 884.073l3.966-.72 3.949-.704 3.923-.74 3.884-.739 3.882-.753 3.834-.755 3.814-.768 3.79-.787 3.768-.786 3.724-.803 3.704-.803 3.677-.815 3.637-.818 3.61-.835 3.579-.853 3.54-.85 3.517-.848 3.465-.881 3.445-.865 3.404-.885 3.367-.882 3.336-.898 3.305-.912 3.255-.9 3.223-.93 3.195-.918 3.145-.927 3.111-.932 3.063-.945 3.03-.946 2.988-.945 2.951-.964 2.903-.965 2.872-.958 2.821-.978 2.776-.982M582.168 897.002v-.097l-.016-.112M478.304 516.868h-.43l-.436.03-.465.05-.48.094-.48.11-.501.148-.482.158-.494.194-.45.19-.45.228-.416.22-.416.246-.384.269-.387.275-.366.29-.374.32-.302.32-.291.32-.27.339-.243.367-.224.367-.19.387-.147.386-.126.416-.084.4-.046.419-.017.417.017.416.046.417.084.432.112.418.143.418.178.435.207.428.224.418.256.401.273.402.274.37.303.337.32.337.374.353.384.337.415.303.432.275.448.256.45.21.464.174.47.145M463.242 597.825l-.128-.415-.162-.42-.188-.417-.213-.4-.208-.352-.224-.354-.24-.337-.241-.337-.228-.273-.236-.288-.242-.272-.24-.257-.256-.259-.26-.24-.254-.24-.26-.225-.272-.223-.271-.225-.273-.191-.258-.179-.27-.177-.271-.159-.261-.113-.222-.112M477.679 362.858l-.099.081-.095.078-.08.097-.062.08-.05.099-.046.094-.017.099v.174l.033.097.03.093.05.083.062.096.066.097.093.096.099.081.212.177.252.174.293.163.333.16.352.16.402.161.432.144.47.144.251.064.26.079.27.064.292.084.287.06.291.065.285.048.306.064.353.064.356.05.349.066.355.044.37.05.364.034.371.045.371.034M485.38 368.071l-.367-.031-.357-.05-.352-.031-.352-.049-.372-.046-.333-.047-.354-.051-.353-.047-.627-.114-.609-.111-.593-.112-.579-.144-.495-.128-.484-.128-.448-.13-.45-.142-.383-.144-.37-.146-.353-.143-.159-.083-.14-.08-.309-.159-.14-.078-.133-.084-.128-.093-.096-.081-.099-.081-.078-.081-.097-.097-.081-.095-.058-.098-.055-.077-.032-.101-.016-.044v-.035l-.012-.015v-.175M584.91 656.245l-.204.035-.211.013h-.222l-.242-.013-.243-.02-.255-.044-.242-.067-.258-.061-.24-.068-.24-.095-.238-.081-.227-.094-.243-.094-.221-.116-.241-.112-.223-.112-.195-.096-.192-.112-.193-.098-.175-.097-.164-.093-.14-.1-.146-.077-.128-.08-.111-.08-.097-.08-.096-.063-.083-.067-.048-.061-.047-.05-.033-.065-.016-.031.016-.081.068-.065.115-.048.074-.033.083-.015.095-.03.133-.018.11-.032.141-.032.146-.03.163-.035.159-.017.158-.03.18-.033.19-.048.192-.03.193-.034.205-.032.215-.044.224-.035.204-.034.225-.033.208-.032.435-.028.417-.034.405-.018.223.018.207.016.209.018.206.028.195.048.178.05.172.063.164.067.143.079.133.078.11.099.11.095.095.115.082.111.063.129.047.126.053.145.012.16v.146l-.012.157-.053.147-.047.144-.063.144-.097.145-.097.128-.128.13-.146.109-.157.112-.159.1-.181.063-.19.065-.212.045M440.35 680.133l-.206.03-.209.051-.193.029-.178.034-.174.029-.143.049-.13.033-.13.032-.095.033-.078.03-.067.051-.032.044-.033.034-.016.065.016.045.033.066.032.064.067.081.065.065.095.08.093.094.128.081.13.097.126.098.16.097.179.11.176.095.192.112.192.115.209.113.224.112.227.094.4.176.418.161.434.144.226.065.224.048.22.05.226.031.226.031.208.014h.21l.205-.015.197-.011.188-.036.178-.049.177-.048.179-.064.157-.08.143-.096.148-.096.125-.095.128-.114.099-.13.096-.11.144-.256.114-.256.047-.272v-.274l-.03-.144-.05-.148-.051-.125-.076-.13-.082-.11-.112-.113-.116-.095-.124-.083-.146-.076-.145-.085-.175-.048-.18-.063-.188-.049-.212-.032-.222-.015-.258-.016h-.497l-.256.016-.257.015-.258.032-.272.032-.271.033-.272.047-.277.033-.254.05-.274.048-.242.046-.235.048-.245.051M448.326 542.099l.208-.032.193-.034.383-.046.369-.018.373-.014h.318l.322.032.288.046.256.083.207.095.179.094.146.128.112.147.094.16.049.176.016.177-.032.177-.05.19-.097.18-.111.176-.176.172-.097.083-.128.096-.112.065-.142.064-.147.064-.143.05-.164.045-.158.017M450.28 544.472l-.158.033h-.532l-.19-.018-.196-.03-.19-.031-.194-.049-.346-.097-.358-.113-.338-.128-.32-.129-.306-.145-.286-.142-.274-.128-.24-.147-.241-.11-.192-.128-.163-.097-.161-.097-.112-.096-.093-.08-.05-.063-.016-.052v-.028l.034-.017.062-.03.112-.036.079-.015.085-.015M409.778 687.332l-12.204 2.31M570.49 914.694h-.018M573.044 912.66l-.019.016M582.104 897.32l.016-.093-.032-.113M404.163 959.431l.017-.015v-.046M404.292 959.416l.018-.016.012-.048M570.41 914.745l.116-.08.081-.082M570.51 914.68l.03-.016.032-.014.018-.035.029-.015.033-.017.032-.03M376.992 890.33h0M376.56 890.265l.015-.018.015-.03M576.668 908.97l-.292.29-.29.274-.302.253-.304.256-.352.258-.356.239-.352.242-.37.213M399.124 888.822l1.862-.207 1.844-.228 1.846-.237 1.831-.244 1.825-.256M574.052 910.993l-1.008.574-1.06.563-1.11.547-1.132.543-1.172.546-1.219.541-1.271.535M376.332 897.805l.851-.675.881-.657.916-.608.915-.61.88-.532.899-.508.913-.498.935-.467.862-.417.868-.4.895-.37.899-.353.884-.337.897-.304.899-.306.913-.273.98-.27.995-.263.994-.22.995-.227 1.123-.207 1.124-.193 1.138-.161 1.138-.126" style="fill:none;stroke:red;stroke-width:.999997;stroke-linecap:round;stroke-linejoin:round;stroke-miterlimit:4;stroke-dasharray:none;stroke-opacity:1;visibility:visible"/><path d="m376.012 898.078.162-.145.158-.128M462.135 540.172l.29.13.319.176.338.193.334.239.37.257.354.292.37.301.369.34.34.333.333.338.324.354.3.352.29.388.289.4.293.415.235.435.226.4.191.417.164.416.128.435.093.432.067.434.013.434-.013.432-.05.415-.079.418-.111.402-.163.402-.174.383-.21.37-.241.366-.24.354-.307.355-.302.336-.323.321-.32.288-.339.275-.336.239-.351.241-.351.208-.401.21-.402.175-.416.143-.384.099-.385.064-.372.03h-.176l-.176-.016-.161-.029-.162-.034M481.047 517.943l-.159-.177-.193-.144-.176-.144-.21-.13-.189-.097-.211-.097-.224-.06-.224-.084-.256-.047-.275-.05-.3-.029-.327-.014M495.965 366.454l-.015.061-.013.066-.017.045-.02.052-.016.032-.047.063-.066.097-.048.047-.014.016-.033.033-.112.096-.127.08-.13.081-.128.08-.142.064-.177.083-.18.06-.176.063-.188.066-.212.048-.21.064-.254.049-.256.065-.273.045-.274.05-.337.047-.34.033-.347.05-.372.032M491.441 368.122l-.5.03-.51.032-.482.017-.497.016h-1.396l-.481-.017-.515-.017-.512-.03-.593-.031-.576-.05M474.47 593.83l-.13-.16-.125-.16-.16-.145-.162-.128-.173-.129-.197-.11-.208-.113-.206-.08-.224-.068-.225-.06-.24-.052-.244-.029-.236-.03h-.805l-.256.029-.26.031-.27.034-.275.047-.274.065-.285.063-.275.081-.288.096-.27.096-.29.113-.272.112-.29.111-.273.127-.274.146-.257.146-.25.145-.276.159-.276.177-.253.179-.243.174-.255.191-.242.21-.227.208-.234.226-.244.256-.226.255-.225.273-.205.29-.18.288-.176.305-.144.305-.13.321" style="fill:none;stroke:red;stroke-width:.999997;stroke-linecap:round;stroke-linejoin:round;stroke-miterlimit:4;stroke-dasharray:none;stroke-opacity:1;visibility:visible"/><path d="m460.608 540.272.083-.099.097-.063.094-.066.112-.03.098-.032h.372l.142.033.158.03.178.063.194.065M440.639 475.754l.191.176.165.176.112.158.11.164.064.159.049.179.03.158v.16l-.03.147-.05.159-.063.16-.097.145-.125.144-.145.144-.18.143-.19.13-.21.13-.242.129-.251.128-.295.11-.289.096-.316.114-.339.095-.368.08-.37.078-.4.084-.398.064-.42.063-.435.05-.448.045-.464.033-.465.032-.483.033h-.481l-.498.018h-.497l-.495-.018-.5-.016-.513-.033-.513-.033-.495-.048-.516-.047-.497-.065-.498-.063-.478-.065-.5-.096M437.496 481.866l.514-.08.48-.097.467-.095.449-.1.433-.122.401-.117.386-.13.352-.141.336-.145.32-.144.274-.161.255-.176.241-.16.194-.178.174-.176.146-.19.128-.178.082-.193.063-.21.029-.223M384.111 720.41l-.063-.032-.078-.048-.05-.016h-.013v-.018M275.646 631.495l133.088 80.203M407.884 731.765l-26.032-16.027M381.851 715.74l-.563-.335-.56-.273-.562-.24-.544-.192-.547-.128-.547-.099-.528-.045-.51-.018-.515.048-.499.096-.482.146-.464.176-.447.238-.433.274-.42.322-.4.368-.37.402-.352.449-.338.499-.32.528-.287.561M384.271 720.505l-.383-.272-.352-.305-.338-.352-.288-.384-.275-.403-.224-.45-.192-.477-.143-.5-.11-.529-.083-.545-.028-.55M495.612 365.711h0M475.976 364.06l.024-.016M485.539 366.5l.37.034.367.015.369.031.37.015.372.018h.35l.37.013h.351l.322-.013h.321l.32-.018.307-.014.303-.015.306-.017.288-.034.275-.03.499-.065.46-.082.433-.078.4-.095.355-.115.317-.112.292-.128.244-.128.11-.063.094-.081.099-.081.08-.08.062-.08.05-.08.05-.079.013-.096.015-.097v-.096l-.013-.099-.036-.096-.047-.11-.062-.099-.08-.096-.1-.111M472.835 592.82l-.099-.083-.096-.057M268.474 389.293l.227-.127.205-.128.18-.132.143-.126.128-.143.113-.147.081-.14.046-.146.017-.129v-.13M277.89 658.828l-2.245-27.303M287.387 624.341l-.164-.174-.158-.18-.175-.143-.21-.128-.206-.127-.244-.099-.257-.079-.255-.064-.273-.05-.275-.032-.285-.013-.303.013-.31.018-.319.049-.32.063-.336.064-.306.08-.305.096-.323.114-.317.112-.339.142-.32.146-.337.159-.321.177-.322.178-.32.192-.32.188-.305.214-.307.223-.285.208-.288.241-.276.224-.27.258-.259.257-.272.272-.24.27-.239.29-.224.307-.212.302-.192.323-.193.37-.175.368-.145.383-.112.387-.08.399-.048.387-.015.399.015.403M281.08 546.252l-.255-.257-.129-.112-.159-.113-.162-.094-.158-.083-.175-.078-.197-.083-.206-.045-.209-.067-.21-.03-.224-.03-.242-.017h-.479l-.258.017-.24.016-.258.03-.239.048-.258.051-.253.061-.26.066-.259.079-.269.081-.272.096-.274.095-.272.112-.288.13-.273.112-.272.144-.275.146-.273.143-.497.289-.482.321-.463.317-.449.356-.398.352-.403.371-.37.384-.355.417-.318.418-.29.448-.24.464-.211.465-.175.499-.061.257-.053.237-.03.262-.033.253v.513l.016.274.03.273.052.273.063.29.063.27.097.272.098.275.114.256.27.53.303.514.355.495.383.465.468.501.48.446.51.4.521.37.28.18.274.157.309.159.29.148.3.129.305.11.307.113.321.08M247.507 387.371l.031.142.052.141.076.151.099.14.128.147.157.143.181.142.206.146.242.147.258.124.27.15.306.126.322.128.336.13.37.11.385.113.401.11.433.115.434.097.452.096.46.096.484.079.495.084.5.078.51.064.53.063.53.048.53.046.544.035.546.032.545.032.545.017h1.618l.532-.017.528-.016.53-.016.416-.032.417-.035.403-.03.398-.047M266.982 387.787l-.207.096-.241.095-.253.099-.261.096-.287.079-.324.082-.319.078-.337.066-.353.064-.37.047-.384.065-.385.046-.402.034-.414.032-.435.028-.416.02-.45.014-.45.018h-.897l-.464-.019-.453-.012-.463-.021-.463-.028-.45-.05-.464-.033-.45-.047-.45-.047-.431-.065-.439-.064-.428-.083-.404-.06-.417-.082-.386-.095-.385-.08-.37-.1-.348-.092-.355-.113-.32-.1-.307-.11-.29-.113-.27-.112-.259-.129-.234-.11-.21-.127-.214-.131-.175-.128-.143-.128-.144-.127-.098-.13-.094-.127-.065-.128-.047-.128-.016-.127v-.13l.016-.128.047-.113.065-.129.094-.127.112-.113.084-.065M263.709 390.447l.356-.03.464-.066.448-.064.432-.077.417-.084.403-.082.385-.093.368-.097.336-.095.323-.112.306-.112.27-.113.257-.13M419.755 475.643l.017-.017M436.999 923.07v-.016M429.187 878.638h0M442.275 477.166l.017.016" style="fill:none;stroke:red;stroke-width:.999997;stroke-linecap:round;stroke-linejoin:round;stroke-miterlimit:4;stroke-dasharray:none;stroke-opacity:1;visibility:visible"/><path d="m427.807 479.154-.464-.082-.465-.094-.464-.098-.451-.11-.433-.114-.416-.111-.4-.13-.384-.127-.386-.128-.356-.145-.336-.145-.32-.143-.292-.144-.286-.163-.258-.158-.221-.146-.227-.158-.174-.175-.18-.161-.144-.163-.114-.16-.092-.16-.066-.161-.046-.178-.032-.157.015-.16.017-.145.062-.16.08-.163.098-.145.128-.143.143-.144.273-.207M418.698 477.166v.16l.017.161.063.208.078.193.112.208.13.208.178.194.192.208.238.193.24.21.289.191.307.192.32.19.368.178.373.18.4.17.433.18.448.16.464.16.482.145.5.144.51.144.53.13.546.11.56.111.56.116M416.16 928.107h0M427.036 481.61l.584.096.589.08.592.081.597.077.609.05.592.05.61.046.608.033.593.016h1.782l.594-.032.56-.037.562-.027.547-.048.53-.065.513-.064M303.045 633.612l.093-.162.081-.142.064-.16.048-.148.03-.173.018-.191M301.054 631.96v.48M303.378 632.635l-.016-.29-.047-.273-.065-.24-.112-.242-.128-.255-.192-.256M559.532 685.73l-.028-.02-.05-.028-.032-.016-.015-.016M557.225 658.042l-94.158-58.855M585.476 675.704l-8.696-5.439M557.37 679.988l23.802 15.252M547.585 682.104l.432-.53.435-.481.464-.433.468-.4.477-.355.5-.32.514-.257.514-.208.524-.16.55-.128.53-.067.547-.015.559.032.544.083.546.128.561.173.543.227.547.272.53.321M557.37 679.988l-.048.561-.015.545.016.546.064.513.093.513.147.484.177.462.205.432.243.416.29.373.319.35.335.304.371.258M268.94 386.953v.014M267.335 385.734l.132.096.123.128.128.127.083.13.081.13.047.125.016.13v.13l-.016.124-.031.129-.068.128-.093.116-.112.11-.128.131-.144.109-.179.099-.193.111M285.766 623.348l.096.08.098.06M452.83 609.037l-.03.367-.062.388-.1.368-.123.355-.163.35-.21.322-.227.305-.257.273-.271.24-.29.206-.301.165-.321.141-.323.08-.32.05h-.322l-.306-.049-.286-.094-.288-.128-.26-.166-.236-.205-.211-.255-.177-.274-.146-.303-.112-.325-.062-.35-.031-.355v-.367l.03-.372.081-.384.109-.352.163-.352.178-.336.224-.325.238-.285.258-.257.29-.225.286-.193.323-.142.32-.116.323-.061.32-.033.32.033.305.061.29.116.257.142.257.193.223.225.19.272.164.29.126.305.08.336.064.352.016.37M305.545 635.105l.095-.321.066-.324.033-.32.014-.301" style="fill:none;stroke:red;stroke-width:.999997;stroke-linecap:round;stroke-linejoin:round;stroke-miterlimit:4;stroke-dasharray:none;stroke-opacity:1;visibility:visible"/><path d="m305.753 633.839-.028-.37-.067-.369-.096-.337-.148-.323-.175-.287-.188-.272-.244-.241-.273-.192-.27-.16-.323-.13-.322-.064-.319-.051-.353.017-.337.051-.335.097-.338.14-.323.18-.304.208-.287.241-.257.288M573.46 889.766h0M574.725 844.951h0M658.009 450.506v.016M637.478 447.522v.194l.047.207.099.21.144.224.19.211.242.206.273.21.339.207.333.192.37.195.416.192.433.173.484.179.494.161.53.159.546.145.514.144.528.115.562.109.548.112.575.097.577.08.58.079.591.083.577.048.58.046.563.034.573.033.56.013h1.094l.526-.013.55-.033.53-.051.508-.047.487-.081.461-.061.438-.098.398-.096.37-.112.368-.128.338-.16.287-.146.241-.176.191-.175.145-.177.099-.194.045-.208M658.425 451.724l-.028.114-.05.128-.063.128-.102.11-.092.116-.113.095-.112.095-.144.112-.288.161-.339.161-.364.16-.402.13-.244.062-.24.064-.258.066-.273.061-.316.05-.323.063-.334.049-.358.034M653.984 453.682l-.464.048-.498.048-.512.032h-.258l-.258.014-.529.02h-.547l-.3-.02h-.273l-.53-.014-.531-.018-.576-.048h-.148l-.095-.013-.208-.016-.243-.017-.257-.016-.27-.032-.307-.034-.335-.03-.353-.048-.336-.051-.29-.028-.24-.032-.208-.035-.273-.048-.257-.048-.464-.081-.112-.015-.142-.03-.26-.048-.509-.099-.47-.095-.446-.112-.211-.05-.097-.031-.127-.015-.468-.128-.432-.132-.417-.112-.399-.126-.194-.067-.208-.06-.386-.147-.385-.144-.333-.128-.339-.144-.355-.16-.336-.161-.32-.161-.27-.158-.276-.177-.254-.161-.224-.178-.213-.16-.205-.19-.162-.194-.142-.178-.11-.194-.102-.172-.047-.193-.019-.176v-.159M592.13 667.281l.272.032h.271l.292-.015.29-.017.29-.048.271-.047.287-.065.286-.08.291-.081.272-.112.547-.224.526-.276.55-.316.478-.339.45-.385.434-.403.4-.447.178-.244.158-.238.159-.24.15-.259.127-.252.109-.26.099-.272.082-.273.044-.255.049-.26.033-.253.019-.259v-.272l-.019-.273-.033-.256-.032-.274-.128-.526-.162-.547-.223-.532-.237-.526-.275-.499-.288-.498-.307-.465-.32-.465-.355-.45-.352-.446-.366-.45-.387-.418-.413-.449-.212-.21-.212-.207-.206-.21-.21-.188-.207-.177-.195-.18-.19-.175-.192-.144-.194-.16-.169-.132-.201-.125-.157-.13-.178-.109-.159-.095-.195-.116-.159-.097-.175-.077-.164-.067-.143-.048-.139-.047-.15-.016-.126-.017h-.129l-.114.017-.091.016-.1.047-.096.048-.081.067-.08.06-.063.083M638.28 446.559l-.24.161-.176.16-.147.146-.11.144-.079.158-.05.192M656.822 449.623v-.163l-.028-.14-.034-.129-.066-.147-.093-.144-.13-.162" style="fill:none;stroke:red;stroke-width:.999997;stroke-linecap:round;stroke-linejoin:round;stroke-miterlimit:4;stroke-dasharray:none;stroke-opacity:1;visibility:visible"/><path d="M635.454 448.76v-.034l.022-.016v-.032M368.554 615.183l-75.459 12.54M413.146 607.772l-19.552 3.253M463.052 599.477l-25.94 4.314M449.69 606.505l.112.127.093.16.081.141.078.167.084.172.046.16.05.18.033.176.013.161v.159l-.013.147-.017.158-.047.143-.048.16-.065.144-.067.128-.159.244-.19.207-.211.177-.21.144-.223.11-.242.1-.237.044-.211.019h-.113l-.111-.018-.098-.016-.078-.044-.064-.035-.064-.064-.065-.064-.047-.083-.032-.093-.036-.11-.016-.118-.013-.111v-.561" style="fill:none;stroke:red;stroke-width:.999997;stroke-linecap:round;stroke-linejoin:round;stroke-miterlimit:4;stroke-dasharray:none;stroke-opacity:1;visibility:visible"/><path d="m376.591 890.218.817-.563.834-.561.852-.545.864-.514.898-.512.899-.48.916-.45.912-.451.945-.415.946-.401.968-.387.974-.352.964-.337.995-.305.995-.307 1.01-.272 1.012-.239 1.008-.24 1.027-.207 1.01-.18 1.03-.174 1.023-.144 1.028-.128M428.947 877.337l.64-.13 3.101-.545 3.06-.563 3.046-.559 3.049-.577 3.021-.578 2.996-.578 2.998-.593 2.969-.594 2.95-.61 2.936-.61 2.901-.61 2.908-.609 2.887-.622 2.852-.642 2.855-.628 2.825-.64 2.79-.662 2.793-.64 2.759-.654 2.744-.678 2.725-.654 2.695-.675 2.677-.673 2.664-.674 2.632-.689 2.612-.692 2.601-.687 2.567-.706 2.533-.705 2.534-.71 2.485-.703 2.49-.722 2.438-.71 2.439-.722 2.385-.719 2.39-.736 2.346-.724 2.324-.739 2.31-.735 2.277-.755 2.246-.736 2.23-.74 2.197-.755 2.183-.75 2.15-.758 2.118-.753 1.589-.576.621-.227M398.518 882.054l1.557-.179 1.552-.193 1.557-.19 1.539-.211 1.544-.209.863-.126M574.79 842.737l.416.482.771.848.77.866.753.854.736.833M576.668 908.97l-.724.737-.737.736-.724.74-.735.739-.705.738M378.755 952.872l-.883-.625-.865-.643-.847-.673-.84-.704-.802-.707-.8-.737-.768-.772-.755-.771-.721-.785-.708-.819-.69-.832-.658-.836-.64-.848-.594-.849-.593-.884-.563-.883-.525-.912-.516-.916-.496-.93-.451-.93-.449-.946-.401-.968-.386-.958-.368-.98-.32-.977-.304-.995-.289-.992-.24-.996-.223-1.01-.212-1.027-.16-1.01-.147-1.027-.111-1.028-.08-1.008-.064-1.028-.03-1.027v-1.009l.029-1.029.053-1.011.092-1.025.112-1.011.13-1.012.175-1.008.195-.999.224-.992.241-.978.287-.976.305-.964.321-.963.37-.962.383-.931.417-.949.433-.911.481-.919.323-.609M579.09 847.76l.243.43.236.453.224.479.227.497.22.531.213.544.212.577.188.594.21.625.177.627.189.657.182.675.176.718.16.736.173.774.167.772.14.8.142.817.148.833.126.867.112.867.13.881.095.885.097.881.095.883.081.898.08.897.063.917.067.928.064.93.048.947.029.945.035.965.033.945.017.948.014.963v1.907l-.014.964-.017.962-.022.959-.03.967-.032.962-.048.946-.049.946-.061.947-.066.928-.077.933-.084.926-.08.917-.094.913-.097.9-.115.899-.112.883-.112.865-.121.85-.116.77-.13.736-.126.759-.128.718M582.104 897.34v-.02M578.96 847.547l.017.019v.015M404.163 959.431h0M570.49 914.694h.022v-.017M378.755 952.872h0M269.614 387.946l-.032-.159-.063-.161-.085-.143-.112-.145-.124-.148-.165-.14-.094-.083M270.174 657.273l.03.272.086.256.108.257.145.242.178.222.192.211.209.19.255.195.242.159.258.161.302.16.304.146.339.125.352.131.37.11.399.116.435.095.465.095.467.064.479.065.561.063.563.032.56.033h.577M284.16 569.721l.023.274.011.254v1.123l-.012.307-.022.304-.027.577-.019.305-.016.307-.016.304-.012.303-.02.305v.304l-.02.273v.836l.02.27.02.276.012.256.016.256.016.255.03.242.039.24.043.24.08.45.079.435.114.449.112.399.096.383.11.339.098.353.066.304.062.275.017.111.017.113M288.38 622.384l.019.43.011.404v.769l-.012.433-.018.513M247.99 386.44l-.08.064-.128.145-.115.125-.077.147-.051.144-.029.145v.16M249.709 384.995l.111-.095.143-.095.162-.1.161-.079M419.771 475.626l.357-.242.383-.257.367-.239.369-.256.372-.256M436.999 923.07l.063.432.048.45.018.448-.017.448-.031.452-.05.45-.08.448-.11.432-.114.435-.158.419-.161.416-.195.4-.224.4-.238.383-.26.388-.271.35-.291.354-.302.319-.338.324-.352.32-.368.29-.385.272-.385.255-.403.241-.48.26-.485.237-.496.209-.511.193-.51.193M415.362 926.97l-7.94-44.436M436.999 923.054l-7.81-44.417M432.99 688.278l10.232-209.428M425.947 832.486l6.56-134.342M403.648 831.477l5.692-133.93M409.738 688.098l8.961-210.932M429.91 933.287l-.467.127-.464.146-.481.112-.48.094-.402.082-.306.05-.318.046-.47.048-.462.05-.466.028-.464.018-.547-.018-.56-.012-.544-.048-.544-.082-.55-.096-.527-.112-.515-.144-.497-.176-.498-.193-.478-.241-.47-.258-.46-.286-.438-.306-.398-.324-.37-.35-.37-.386-.336-.384-.305-.417-.285-.433-.224-.4-.212-.418-.175-.414-.163-.438-.144-.448-.096-.433-.062-.303" style="fill:none;stroke:red;stroke-width:1.99999;stroke-linecap:round;stroke-linejoin:round;stroke-miterlimit:4;stroke-dasharray:none;stroke-opacity:1;visibility:visible"/><path d="m425.947 832.486-.063 1.78-.068 1.815-.046 1.812-.016 1.827v3.69l.032 1.859.062 1.878.07 1.895.077 1.888.111 1.913.128 1.907.129 1.928.177 1.953.178 1.96.192 1.986.226 1.976.238 2.005.26 1.99.273 2.004.287 2.018.302 2.023.339 2.021.353 2.023M407.422 882.534l-.386-2.167-.354-2.162-.352-2.166-.323-2.149-.301-2.168-.274-2.152-.272-2.13-.24-2.15-.228-2.133-.205-2.118-.196-2.117-.175-2.115-.145-2.102-.128-2.15-.112-2.152-.099-2.148-.062-2.133-.066-2.117-.013-2.116-.017-2.103.016-2.105.031-2.082.049-2.068.078-2.053M440.639 475.754l.339.289.32.29.332.269.324.291.322.272M421.616 474.376l.274-.165.286-.157.258-.111.289-.115.304-.112.321-.094.336-.098.354-.08.385-.08.39-.08.397-.062.417-.068.432-.046.448-.05.47-.031.459-.035.469-.014.479-.015h.982l.494.015.5.014.51.035.5.03.496.052.5.045.499.049.495.081.478.064.484.08M419.755 475.643l-.207.157-.208.16-.177.18-.148.176-.125.192-.096.192-.066.224-.03.242M415.362 926.97h0M432.507 698.144v-.352l-.03-.227-.017-.255-.032-.273-.033-.29-.03-.319-.016-.368-.017-.338-.016-.37.016-.402v-.4l.034-.434.029-.434.05-.46.045-.486.066-.509.064-.529.083-.531.061-.545.082-.594.062-.596.05-.576.03-.578M407.422 882.534h0M434.323 473.428l.479.082.466.096.448.096.45.11.434.116.419.112.397.127.386.125.372.132.349.143.339.128.32.16.303.144.273.145.27.16.227.163.21.143.175.145M443.22 478.85l-.016-.176-.03-.191-.046-.195-.097-.208-.112-.209-.147-.192-.224-.257-.256-.24M409.378 696.637l-123.675-73.305M384.27 720.505l23.473 14.503M384.271 720.505l-.128-.079-.03-.016M278.037 660.673l22.408 13.76 23.128 14.215 23.903 14.677 24.69 15.19M372.163 718.516l.401.222.45.228.464.21.51.173.482.163.5.142.53.146.526.129.498.093.514.099.512.081.498.063.516.064.496.048.48.05.484.033.508.028.488.017.48.016h1.007l.547-.033.528-.028.528-.05M494.135 364.238l.305.305.291.29.289.289.303.305.288.284M482.412 518.744l13.552-152.29M475.659 594.553l5.341-59.96M460.387 540.303l15.126-175.584M455.992 591.25l3.13-36.399M475.996 364.043l.317-.222.355-.241.336-.241.339-.239.337-.242M494.135 364.238l-.143-.128-.172-.144-.2-.127-.219-.129-.243-.128-.242-.115-.27-.127-.291-.113-.272-.096-.303-.114-.307-.095-.318-.096-.34-.077-.336-.1-.355-.077-.35-.085-.397-.077-.422-.081-.416-.063-.419-.063-.479-.081-.483-.05-.494-.061-.499-.053M495.612 365.711l.13.147.096.13.062.094.035.129.034.099v.144M486.165 361.96l-.497-.034-.5-.031-.497-.03-.495-.015h-1.33l-.43.016-.388.014-.37.015-.371.032-.354.033-.336.051-.337.044-.305.05-.303.049-.302.063-.294.065-.253.078-.258.08-.257.099-.224.094-.21.116-.174.109M475.512 364.72l.018-.08.013-.068.016-.062.036-.049.015-.028.034-.066.076-.094.05-.051.03-.015.032-.034.145-.113M592.21 651.432l-158.883 30.014M595.45 666.641l-162.944 31.597M412.554 621.932l-133.06-76.593M411.752 640.573l-140.471-82.577M415.728 546.927 309.62 562.68M445.695 542.484l-5.63.833M461.879 540.077l-13.555 2.023M305.769 578.272l-20.679 3.161M415.104 561.57l-84.887 12.963M463.723 554.144l-24.365 3.721M445.695 542.484l.159-.016.158-.035.196-.012.19-.033.196-.032.205-.016.21-.035.211-.029.254-.048.256-.05.304-.044.293-.034M410.26 675.881l-27.336 5.084M544.601 650.872l-110.794 20.612M532.345 682.665l-5.725.655-5.757.708-5.794.754-5.806.803-5.834.848-5.876.899-5.888.945-5.918.996-5.934 1.043-5.97 1.088-5.978 1.14M467.864 692.544l-5.857 1.172-5.872 1.204-5.901 1.251-5.92 1.301-5.935 1.333-5.969 1.393M546.668 681.512l-2.855.16-2.838.19-2.872.228-2.87.271-2.888.304M582.104 897.34l-.159.77-.177.739-.192.75-.193.722-.224.709-.224.688-.24.676-.275.655-.272.644-.288.626-.287.607-.323.579-.32.545-.339.544-.351.515-.368.496-.385.484-.402.446-.415.435M582.168 897.002l-.016.065v.063l-.013.065-.02.065-.016.061M578.992 847.597l.018.013.013.035.016.048.036.029.015.037M578.272 846.65l.143.16.144.177.145.193.128.174.13.193M404.163 959.431l-1.06.1-1.044.063-1.055.032h-1.06l-1.057-.016-1.06-.05-1.057-.096-1.06-.112-1.044-.128-1.04-.177-1.044-.204-1.026-.23-.996-.254-1.009-.273-.977-.322-.995-.337-.965-.35-.962-.401-.965-.418-.928-.449-.93-.465-.913-.497-.896-.516-.886-.528-.69-.467-.69-.464M404.292 959.416h-.046l-.032.015h-.05M417.526 957.526l-1.428.238-1.458.24-1.46.226-1.46.222-1.476.212-1.474.191-1.494.193-1.493.192-1.492.176M562.87 918.385l-2.07.853-2.1.832-2.117.848-2.13.835-2.185.834-2.196.833-2.216.837-2.243.815-2.278.822-2.312.816-2.323.816-2.344.804-2.375.817-2.39.787-2.421.804-2.44.785-2.467.784-2.503.787-2.503.786-2.552.774-2.549.765-2.581.756-2.618.756-2.627.75-2.649.754-2.66.739-2.697.736-2.711.724-2.726.736-2.763.708-2.773.722-2.787.704-2.828.706-2.823.69-2.853.69-2.87.674-2.89.674-2.919.672-2.921.657-2.935.657-2.966.647-2.969.639-3 .64-3 .625-3.03.61-3.049.628-3.045.59-3.066.61-3.096.581-3.096.59-3.112.564-3.112.578-2.484.433-2.471.432-2.504.433M570.41 914.745l-.74.415-.764.418-.799.401-.827.418-.833.402-.864.402-.883.398-.915.399-.915.385M570.473 914.694v.015h-.016l-.012.02h-.018l-.017.014M573.025 912.677l-.382.365-.42.372-.416.35-.418.326-.432.299-.447.29M365.826 902.585l.497-.898.513-.88.547-.885.579-.852.593-.848.625-.819.64-.802.672-.783.694-.772.704-.756.74-.735.753-.708.77-.686.807-.661.798-.66.832-.62M553.517 844.26h0M658.009 450.522l.159.194.13.19.08.161.047.177.035.162v.193M656.47 448.738l-.16-.156-.194-.178-.208-.161-.239-.16-.272-.177-.307-.162-.305-.158-.352-.144-.336-.146-.356-.142-.368-.128-.403-.127-.4-.133-.416-.112-.434-.127-.444-.095-.42-.098-.414-.096-.438-.08-.432-.08-.448-.079-.451-.067-.447-.062-.448-.066-.45-.044-.468-.036-.429-.046-.454-.034-.447-.014-.45-.015-.432-.017-.43-.018-.448.018h-.452l-.452.017-.416.03-.417.013-.417.051-.386.051-.366.044-.402.066-.385.08-.367.081-.337.095-.31.097-.286.11-.257.116-.24.111M635.473 448.678l.063-.21.114-.176.128-.16.143-.161.209-.16.275-.175M355.72 607.643l-67.64 11.05M413.546 598.179l-32.916 5.389M456.583 591.152l-19.008 3.112M455.302 626.697l-2.967.083-2.968.112-2.981.157-2.986.211-3.002.242M440.399 627.5l-2.227.21-2.232.206M325.018 646.637l5.97-1.412 5.93-1.362 5.938-1.314 5.92-1.269 5.884-1.221 5.875-1.166 5.852-1.126 5.839-1.072 1.074-.191 15.491-2.619 4.24-.658 4.957-.74M460.979 626.619l-2.839.029-2.838.05M604.194 590.704l-124.687-73.677M600.648 606.793l-128.918-77.8M573.732 654.914l-101.17-62.253M559.567 685.745l20.757 13.381M559.567 685.745l-.032-.015M547.585 682.104l-.948-.61M460.979 626.619l2.841 1.816 12.425 7.948 8.38 5.362 7.626 4.886 11.609 7.433 5.31 3.401M552.382 684.252l-.482-.159-.483-.177-.45-.178-.432-.158-.402-.176-.385-.162-.367-.16-.354-.178-.37-.194-.354-.174-.364-.21-.355-.223M552.381 684.252l.359.113.332.112.35.113.338.096.645.191.622.179.578.142.545.13.543.112.55.094.284.051.292.047.289.034.288.031.303.03.289.018h.292l.252-.017M267.335 385.734l.32.239.32.26.326.237.316.258.322.224M282.333 546.976l-12.719-159.03M284.16 569.721l-.35-4.361M288.38 622.384l-3.304-41.24M270.174 657.273l-1.045-12.46M268.28 634.716l-4.454-53.056M262.938 571.108l-15.43-183.738M247.99 386.44l.336-.29.357-.29.335-.286.336-.289.355-.29M250.283 384.626l.227-.096.221-.097.259-.095.269-.1.291-.079.308-.077.319-.067.356-.078.346-.048.355-.067.385-.047.402-.048.401-.032.4-.03.433-.035.416-.013.454-.02.432-.013h.898l.467.014.444.019.45.013.466.036.448.03.452.046.448.051.452.046.43.066.434.062.419.064.413.08.401.083.403.079.368.097.37.08.353.11.351.099.323.098.303.109.29.112.27.116.26.126.24.112.175.096.158.101.148.092.144.113M566.416 897.357l-.53.077-.542.081-.548.05-.56.033-.416.012h-.709l-.303-.012-.468-.018-.461-.03-.466-.035-.45-.045-.478-.065-.485-.083-.467-.077-.448-.115-.464-.11-.51-.16-.499-.194-.514-.207-.495-.241-.484-.29-.464-.302-.355-.276-.337-.29-.32-.3M553.359 850.597l.158-6.338M573.46 889.766l1.265-44.816M580.372 798.305l78.054-346.58M590.768 651.705l44.705-203.027M559.517 793.605l27.61-125.347M573.46 889.766l-.016.417-.05.402-.064.418-.097.402-.112.4-.128.402-.161.384-.175.384-.194.352-.203.373-.245.337-.252.333-.275.308-.276.304-.302.287-.321.271-.322.24-.337.247-.371.209-.35.204-.372.177-.385.16-.385.143-.387.13-.416.113-.416.097-.432.095M553.517 844.26l.083-2.18.08-2.152.095-2.163.112-2.148.13-2.154.143-2.148.16-2.134.18-2.132.189-2.119.211-2.115.206-2.104.242-2.1.257-2.086.275-2.135.285-2.132.308-2.115.337-2.105.337-2.1.349-2.085.372-2.087.384-2.05.416-2.056.417-2.037.432-2.018M580.372 798.305l-.402 1.812-.385 1.812-.365 1.844-.372 1.845-.338 1.862-.333 1.861-.305 1.893-.304 1.892-.29 1.907-.274 1.912-.257 1.921-.24 1.944-.219 1.94-.228 1.975-.193 1.99-.192 2.003-.176 2.003-.149 2.006-.142 2.023-.128 2.035-.115 2.021-.095 2.055-.078 2.037-.063 2.053M656.47 448.738l.306.357.304.352.322.353.304.37.304.336M636.405 447.636l.365-.209.384-.21.371-.222.385-.212.37-.224M554.643 894.76l-.271-.292-.259-.337-.21-.34-.206-.364-.157-.357-.132-.364-.128-.386-.096-.417-.081-.45-.064-.446-.032-.529-.014-.548M552.992 889.929l.063-3.223.064-3.257.116-6.099.112-5.615.112-5.53.113-5.97.06-3.317.065-3.307M553.632 853.32l.017.052v.048l.016.047.016.048v.051l.016.044" style="fill:none;stroke:red;stroke-width:1.99999;stroke-linecap:round;stroke-linejoin:round;stroke-miterlimit:4;stroke-dasharray:none;stroke-opacity:1;visibility:visible"/><path d="M658.46 451.598v.029l-.02.017v.05l-.011.03" style="fill:none;stroke:red;stroke-width:1.99999;stroke-linecap:round;stroke-linejoin:round;stroke-miterlimit:4;stroke-dasharray:none;stroke-opacity:1;visibility:visible"/><path d="m463.195 597.665-.03.272-.019.256-.031.239-.016.228-.016.256-.016.273" style="fill:none;stroke:red;stroke-width:.999997;stroke-linecap:round;stroke-linejoin:round;stroke-miterlimit:4;stroke-dasharray:none;stroke-opacity:1;visibility:visible"/><path d="M463.067 599.188v.144l-.017.145-2.07 27.143M456.583 591.152l.145-.015.144.015.148.03.16.034.174.064.21.08M547.392 675.96l-.753 5.533M544.601 650.872l.29-.032.304.015.302.033.307.095.29.127.306.163M546.399 651.273l.321.227.32.272.288.32.307.352.269.401.257.432.243.467.224.495.208.515.177.546.162.579.129.577.095.593.08.607.065.61.016.61v.611" style="fill:none;stroke:red;stroke-width:.999997;stroke-linecap:round;stroke-linejoin:round;stroke-miterlimit:4;stroke-dasharray:none;stroke-opacity:1;visibility:visible"/><path d="m553.585 853.083.018.05v.03l.013.032v.05l.016.033v.044M553.585 853.083l-.082-.466-.063-.418-.032-.384-.033-.368-.016-.4v-.449" style="fill:none;stroke:red;stroke-width:1.99999;stroke-linecap:round;stroke-linejoin:round;stroke-miterlimit:4;stroke-dasharray:none;stroke-opacity:1;visibility:visible"/><path d="m512.168 647.556-.317 9.587M521.797 652.68l-4.021 1.963M512.55 651.592l-2.15 5.512M512.55 651.592l8.966 3.718" style="fill:none;stroke:red;stroke-width:.999997;stroke-linecap:round;stroke-linejoin:round;stroke-miterlimit:4;stroke-dasharray:none;stroke-opacity:1;visibility:visible"/><path d="m430.268 922.99-2.584-18.277M567.756 887.166l1.514-18.473M409.378 696.637l1.709-4.329M429.913 933.288l2.217-12.596M569.139 865.987l.365 19.023" style="fill:none;stroke:red;stroke-width:.999997;stroke-linecap:round;stroke-linejoin:round;stroke-miterlimit:2;stroke-dasharray:none;stroke-opacity:1;visibility:visible"/><path d="m450.694 631.997 2.022-.002M405.922 840.946l1.765 7.428M409.468 851.87l15.462-6.932M409.292 848.102l12.848-10.347" style="fill:none;stroke:red;stroke-width:.999997;stroke-linecap:round;stroke-linejoin:round;stroke-miterlimit:4;stroke-dasharray:none;stroke-opacity:1;visibility:visible"/><path d="m409.292 848.102 15.624.638" style="fill:none;stroke:red;stroke-width:1.99999;stroke-linecap:round;stroke-linejoin:round;stroke-miterlimit:4;stroke-dasharray:none;stroke-opacity:1;visibility:visible"/><path d="m409.292 848.102-10.776 11.041" style="fill:none;fill-opacity:1;fill-rule:nonzero;stroke:red;stroke-width:1.33333;visibility:visible"/><path d="m592.21 651.432-7.3 4.813M433.327 681.446l7.023-1.313M410.26 675.881l-12.686 13.761M398.518 882.054l9.814 5.596M411.087 692.308l-2.353 19.39M270.174 657.273l7.716 1.555M546.399 651.273l10.826 6.769M573.732 654.914l3.048 15.351M463.067 599.189l-10.237 9.848M447.603 608.716l5.227.322M380.63 603.568l-12.076 11.615M452.83 609.038l-5.227-.322" style="fill:none;stroke:red;stroke-width:.999997;stroke-linecap:round;stroke-linejoin:round;stroke-miterlimit:4;stroke-dasharray:none;stroke-opacity:1;visibility:visible"/><path d="m399.124 888.822 8.006-7.876M301.054 631.96l-12.674-7.027M481 534.593l1.412-15.849M463.195 597.665l12.464-3.112M482.412 518.744 481 534.593M460.387 540.303l-1.265 14.548M584.91 656.245l7.3-4.813M440.35 680.133l-7.023 1.313M584.91 656.245l10.54 10.396M265.415 575.993l5.866-17.997M305.769 578.272l3.851-15.592M445.696 542.484l-5.631.833M309.62 562.68l-3.851 15.592M450.282 544.472l13.441 9.672M445.695 542.484l-6.337 15.381M397.574 689.642l12.686-13.761M440.35 680.133l-6.543-8.649M413.634 698.977l18.776 1.221M368.554 615.183l12.076-11.615M450.694 631.997l-14.754-4.081M576.78 670.265l-3.048-15.351M515.421 651.6l-6.251 5.865M283.81 565.36l-1.477-18.384M285.077 581.143l-1.267-15.783M268.28 634.716l.849 10.097M262.938 571.108l.888 10.552M263.826 581.66l-.888-10.552M590.768 651.705l-3.641 16.553" style="fill:none;stroke:red;stroke-width:1.99999;stroke-linecap:round;stroke-linejoin:round;stroke-miterlimit:4;stroke-dasharray:none;stroke-opacity:1;visibility:visible"/><path d="M280.183 756.81s-4.873 2.67-5.166 3c-2.095 2.366-4.98 3.644-10.834 10.667-6.666 8-.166 18.833-.166 18.833l14.666 14 57.225 45.39 26.223 8.886 28.889-.443 24.444-3.556 63.11-14.666s82.886-17.611 101.11-22.944c19.109-10.223 2.165-23.167 2.165-23.167l-29.499-27.5-37.167-30.166-26.987-9.179-28.18-3.655-34.833 1.834-55.333 8-46.167 10.166-35.833 10.334-7.667 4.166" style="fill:none;fill-opacity:1;fill-rule:nonzero;stroke:#00ff4a;stroke-width:1.33333;visibility:visible" visibility="hidden"/><path d="m386.432 851.246-1.072.077-1.074.098-1.06.079-1.076.083M382.151 851.584l-1.123.062-1.124.064-1.108.047-1.104.05-1.109.031-1.09.033-1.091.014-1.089.018h-.999l-.991-.018-.997-.015-.979-.032-.975-.03-.977-.036-.981-.063-.962-.049-.866-.077-.883-.065-.85-.083-.848-.08-.851-.093-.816-.115-.84-.11-.803-.112-.781-.128-.788-.13-.77-.144-.754-.143-.755-.145-.737-.161-.738-.177-.72-.177-.772-.206-.754-.21-.736-.206-.74-.228-.7-.24-.712-.241-.688-.255-.658-.259-.736-.304-.706-.305-.692-.321-.675-.338-.656-.336-.625-.336-.623-.365-.599-.373M407.687 848.374l-1.895.303-1.906.306-1.764.288-1.779.259-1.637.239-1.636.221-1.623.225-1.621.211-1.748.21-1.748.206-1.938.211-1.96.193M490.65 830.729l-3.994.817-4.01.819-4.026.817-4.029.852-4.058.847-4.073.853-4.091.88-4.089.881-4.12.885-4.14.914-4.14.915-4.172.93-4.17.931-4.186.947-4.202.961-4.22.96M552.18 819.307l-5.355.915-5.421.945-5.057.883-5.084.915-4.696.865-4.732.867-4.667.863-4.716.902-5.105.978-5.114.995-5.776 1.14-5.806 1.153M564.843 816.757l-1.078.257-1.092.24-1.025.239-1.044.21-.961.21-.963.19-1.943.387-1.057.191-1.076.193-1.201.226-1.223.207M588.547 804.63l-.083.355-.092.35-.128.338-.164.352-.16.305-.176.321-.208.306-.224.32-.224.27-.241.275-.26.275-.269.27-.291.258-.301.254-.305.261-.338.253-.37.257-.385.257-.418.274-.415.239-.5.289-.511.271-.527.29-.565.257M266.526 790.001l-.464-.418-.465-.431-.432-.452-.402-.447-.401-.45-.37-.448-.337-.465-.317-.466-.307-.484-.289-.478-.237-.498-.245-.496-.21-.5-.175-.513-.158-.479-.131-.483M262.373 774.586h0M341.58 845.197l-2.71-1.734-2.69-1.712-2.667-1.734-2.629-1.734-2.616-1.732-2.598-1.731-2.569-1.718-2.547-1.732-2.521-1.733-2.483-1.715-2.472-1.732-2.452-1.733-2.423-1.718-2.406-1.733-2.375-1.732-2.357-1.716-2.327-1.732-2.308-1.716-2.28-1.73-2.26-1.72-2.247-1.73-2.216-1.717-2.18-1.734-2.166-1.716-2.148-1.717-2.134-1.732-2.101-1.716-2.068-1.718-2.059-1.714-2.034-1.73-2.023-1.721-1.988-1.713M382.938 851.518h0M266.674 774.426h0M549.122 812.44l-5.409.915-5.421.931-5.488.964-5.513.977-5.539.995-5.599 1.028-5.613 1.041-5.663 1.076-5.697 1.091-5.72 1.122-5.76 1.137M487.7 823.716l-5.796 1.158-5.819 1.186-5.869 1.205-5.888 1.233-5.936 1.253-5.965 1.283-6 1.299-6.017 1.332-6.063 1.33-6.095 1.379-6.112 1.381M405.843 840.963l-1.765.288-1.748.272-1.635.243-1.656.237-1.505.21-1.508.21-1.492.191-1.495.193-1.62.178-1.604.192-1.808.176-1.799.176M386.208 843.529l-.69.048-.659.065-.59.05-.596.028-.623.049-.707.05M382.343 843.819l-.13.014h-.108M382.104 843.832l-1.366.083-1.346.063-1.35.048-1.33.048-1.332.016h-2.63l-1.298-.033-1.284-.048-1.265-.064-1.27-.065-1.233-.095-1.22-.112-1.188-.128-1.188-.143-1.153-.161-1.139-.195-1.122-.192-1.098-.224-1.086-.224-1.06-.255-1.022-.273-.998-.304-.962-.308-.928-.32-.9-.336-.881-.352-.854-.372-.802-.4-.785-.4-.77-.417-.352-.226-.372-.225M346.52 838.218l-3.91-2.467-3.868-2.473-3.799-2.47-3.766-2.484-3.451-2.294-3.406-2.295-3.365-2.295-3.322-2.294-2.998-2.1-2.965-2.101-2.936-2.105-2.905-2.098-2.822-2.085-2.793-2.068-2.759-2.07-2.725-2.071-2.89-2.229-2.855-2.229-2.823-2.216-2.776-2.23-3.045-2.485-3.018-2.486-2.966-2.485-2.919-2.486" style="fill:none;stroke:#00ff4a;stroke-width:.999997;stroke-linecap:round;stroke-linejoin:round;stroke-miterlimit:4;stroke-dasharray:none;stroke-opacity:1;visibility:visible" visibility="hidden"/><path d="m271.438 783.602-.581-.514-.544-.531-.495-.528-.483-.545-.432-.56-.389-.562-.368-.582-.317-.574-.272-.562-.228-.56-.191-.58-.179-.575-.112-.596-.094-.593-.05-.594-.029-.608.013-.548.051-.56.077-.56.096-.578.149-.563.157-.576.193-.577.223-.58.26-.576.269-.58.323-.574.32-.577.372-.563.385-.58.415-.573.432-.564.496-.609.533-.61.56-.609.573-.593.63-.608.645-.595.668-.61.692-.578.804-.656.833-.643.847-.641.899-.625.918-.608.946-.611.957-.61 1.015-.596M303.614 747.318h0M285.761 753.78h0M287.443 752.964h0M287.41 752.978h0" style="fill:none;stroke:#00ff4a;stroke-width:.999997;stroke-linecap:round;stroke-linejoin:round;stroke-miterlimit:4;stroke-dasharray:none;stroke-opacity:1;visibility:visible" visibility="hidden"/><path d="M262.23 785.14h0M520.599 739.392l4.188 3.35M525.685 743.436l-.898-.694M282.425 755.61h0M303.55 747.318h0M303.102 747.445h0M298.853 748.649h0M287.414 752.98h0M285.747 753.796v.001M387.09 854.886h0M588.547 804.629l-.112.58-.096.577-.11.594-.114.577-.096.592M262.23 785.14l-.128-.527-.128-.53-.13-.531-.126-.529-.129-.528M279.201 757.486l.644-.368.637-.385.644-.37.64-.366.563-.321M525.685 743.436l2.679 2.149 2.664 2.163 2.664 2.168 2.641 2.164 2.635 2.185 2.615 2.195 2.612 2.214 2.6 2.214 2.58 2.23 2.584 2.23 2.614 2.308 2.599 2.31 2.598 2.31 2.566 2.343 2.568 2.339 2.55 2.362 2.53 2.372 2.541 2.39 2.503 2.39 2.502 2.407 2.483 2.421 2.47 2.437 2.437 2.456" style="fill:none;stroke:#00ff4a;stroke-width:1.99999;stroke-linecap:round;stroke-linejoin:round;stroke-miterlimit:4;stroke-dasharray:none;stroke-opacity:1;visibility:visible" visibility="hidden"/><path d="m261.589 782.496-.13-.627-.094-.63-.08-.637-.035-.657v-.645l.035-.658.062-.656.096-.656.128-.657.162-.675.192-.657.224-.661.256-.656.273-.656.323-.66.336-.654.385-.658.401-.646.415-.653.468-.644.477-.641.515-.642.53-.64.564-.642.591-.628.61-.626.686-.654.711-.66.735-.656.773-.66.784-.639.82-.628.847-.641.868-.626.897-.61.915-.608.929-.595.961-.592.982-.579M468.016 722.776l1.297.126 1.288.128 1.282.146 1.3.16 1.285.16 1.295.177 1.3.19 1.286.21 1.282.211 1.285.208 1.264.24 1.268.237 1.265.261 1.157.24 1.171.239 1.156.255 1.14.273 1.139.276 1.135.288 1.124.29 1.105.286 1.111.32 1.086.307 1.078.32 1.077.322 1.04.335 1.044.337.979.336.961.339.961.337.946.351.932.355.915.352.895.37.867.367.868.37.849.368.815.385.804.372.788.384.77.384.786.401.755.417.737.419.721.399.708.416.672.417.659.435.623.417.612.416.59.435.566.414.544.418M453.45 722.454l1.204-.05 1.216-.048 1.222-.014h2.488l1.232.032 1.254.03 1.264.05 1.258.082 1.264.077M449.266 722.692l.833-.044.851-.068.834-.044.834-.036.832-.046M376.438 731.149l4.442-.741 4.446-.704 4.442-.674 4.443-.64 4.43-.628 4.444-.578 4.425-.559 4.444-.547 4.426-.497 4.412-.481 4.428-.448 4.41-.418 4.428-.401 3.692-.304 3.685-.292 3.69-.272 3.692-.237M303.55 747.318l4.57-1.238 4.576-1.218 4.569-1.186 4.589-1.156 4.571-1.123 4.57-1.09 4.57-1.059 4.579-1.023 4.567-.996 4.555-.964 4.57-.947 4.574-.898 4.554-.866 4.492-.834 4.492-.804 4.49-.767M303.135 747.445h0l.076-.033.082-.015.097-.033.081-.016.079-.03M303.102 747.445h.033M298.853 748.649l.847-.241.85-.242.852-.24.85-.241.851-.24M287.414 752.98l1.073-.498 1.074-.48 1.109-.466 1.123-.466 1.137-.434 1.159-.432 1.169-.402 1.188-.398 1.203-.388 1.204-.367M285.747 753.797l.336-.161.322-.176.333-.163.339-.157.337-.16M285.635 753.846h.03l.015-.016.018-.016h.032l.017-.017M282.425 755.61l.625-.353.643-.369.641-.351.643-.339.658-.352M490.265 834.563l-4.894.994-4.907 1.01-4.939 1.027-4.96 1.043-4.985 1.057-5.004 1.076-5.024 1.09-5.052 1.106-5.084 1.125-5.088 1.14-5.114 1.154-5.134 1.17-5.164 1.186M551.464 823.125l-4.543.772-4.588.8-4.583.817-4.64.833-4.654.836-4.683.87-4.716.877-4.729.901-4.765.91-4.783.934-4.809.947-4.846.96-4.86.981M563.987 820.573l-1.315.307-1.33.303-1.364.307-1.379.29-1.396.287-1.411.273-1.427.273-1.444.256-1.457.256M409.162 851.918l-1.684.273-1.668.29-1.684.256-1.7.257-1.699.257-1.701.24-1.703.242-1.713.207-1.7.225-1.718.19-1.702.195-1.698.177-1.702.159M578.235 816.23l-.852.335-.864.337-.902.321-.914.32-.96.303-.964.324-.992.303-1.031.305-1.04.29-1.06.304-1.09.288-1.088.289-1.126.288-1.139.276M387.09 854.886l-.16.016-.143.016h-.161l-.147.017-.159.018M386.32 854.953l-1.538.125-1.558.113-1.541.096-1.537.083-1.542.06-1.52.05-1.527.015-1.509.019-1.491-.019-1.491-.032-1.459-.048-1.461-.064-1.43-.081-1.248-.095-1.236-.112-1.218-.128-1.204-.142-1.187-.164-1.188-.175-1.14-.193-1.135-.208-1.124-.224-1.093-.259-1.057-.255-1.042-.273-1.028-.29-.993-.319-.93-.308-.897-.319-.904-.35-.845-.355-.853-.369-.804-.386-.8-.4-.754-.417-.738-.415-.706-.436M588.019 807.549l-.099.434-.129.418-.143.433-.172.416-.216.4-.232.403-.26.382-.273.387-.306.368-.333.355-.356.353-.37.337-.446.4-.501.382-.514.371-.544.371-.562.352-.59.35-.63.336-.639.323-.674.322-.691.321-.702.304M342.592 848.678l-3.668-2.359-3.629-2.357-3.575-2.359-3.53-2.338-3.496-2.362-3.451-2.356-3.401-2.342-3.352-2.358-3.32-2.344-3.273-2.356-3.387-2.456-3.335-2.468-3.285-2.453-3.244-2.456-3.208-2.47-3.143-2.456-3.109-2.451-3.065-2.457-3.001-2.455-2.982-2.455-2.921-2.45-2.87-2.457-2.841-2.453M267.506 793.209l-.592-.546-.577-.543-.547-.578-.513-.58-.482-.61-.448-.606-.417-.626-.37-.627-.337-.656-.301-.658-.276-.674-.224-.673-.192-.692" style="fill:none;stroke:#00ff4a;stroke-width:1.99999;stroke-linecap:round;stroke-linejoin:round;stroke-miterlimit:4;stroke-dasharray:none;stroke-opacity:1;visibility:visible" visibility="hidden"/><path d="m279.201 757.486.982-.676M279.201 757.486l.982-.676" style="fill:none;fill-opacity:1;fill-rule:nonzero;stroke:#00ff4a;stroke-width:1.33333;visibility:visible" visibility="hidden"/><path d="m424.916 848.741-17.229-.367M409.162 851.918l15.768-6.98M564.213 820.513l.63-3.756M578.235 816.23l3.157-4.703M552.18 819.307l-3.058-6.867M405.843 840.963l16.297-3.208M422.14 837.755l-16.297 3.208" style="fill:none;stroke:#00ff4a;stroke-width:.999997;stroke-linecap:round;stroke-linejoin:round;stroke-miterlimit:4;stroke-dasharray:none;stroke-opacity:1;visibility:visible" visibility="hidden"/><path d="m465.852 722.613 2.164.163M468.016 722.776l-2.164-.163M409.162 851.918l15.754-3.177M424.916 848.741l-15.754 3.177" style="fill:none;stroke:#00ff4a;stroke-width:1.99999;stroke-linecap:round;stroke-linejoin:round;stroke-miterlimit:4;stroke-dasharray:none;stroke-opacity:1;visibility:visible" visibility="hidden"/><path d="m411.087 692.308.945 3.433" style="fill:none;stroke:red;stroke-width:.999997;stroke-linecap:round;stroke-linejoin:round;stroke-miterlimit:2;stroke-dasharray:none;stroke-opacity:1;visibility:visible"/></svg>