<svg xmlns="http://www.w3.org/2000/svg" baseProfile="full" height="1122.52" preserveAspectRatio="xMinYMin meet" style="width:912px;height:1303px" width="793.701" xml:space="preserve"><path d="m329.343 790.298-9.03.03-8.967.011" style="fill:none;stroke:red;stroke-width:1.33333;stroke-linecap:round;stroke-linejoin:round;stroke-miterlimit:4;stroke-dasharray:none;stroke-opacity:1;visibility:visible"/><path d="m301.223 740.793 16.07 77.99M324.603 798.142l-7.343-.013-4.326-.022" style="fill:none;stroke:red;stroke-width:2.66666;stroke-linecap:round;stroke-linejoin:round;stroke-miterlimit:4;stroke-dasharray:none;stroke-opacity:1;visibility:visible"/><path d="m423.476 577.72.239.061.248.056.252.022.244-.007.249-.025.259-.055.25-.075.248-.097.224-.12.206-.13.209-.149.18-.164.175-.172.16-.193.153-.204.14-.23.107-.214.097-.227.076-.237.064-.24.044-.248.024-.236.01-.25-.01-.237-.024-.238-.055-.247-.053-.237-.084-.25-.1-.237-.107-.228-.129-.224-.14-.23-.164-.225-.172-.216-.183-.205-.194-.184-.196-.184-.216-.172-.226-.163-.225-.152-.273-.161-.27-.13-.26-.118-.269-.088-.259-.073-.249-.056-.248-.02-.236-.012" style="fill:none;stroke:red;stroke-width:.999997;stroke-linecap:round;stroke-linejoin:round;stroke-miterlimit:4;stroke-dasharray:none;stroke-opacity:1;visibility:visible"/><path d="m423.476 577.72-.195-.076-.193-.096-.195-.11-.182-.126-.174-.144-.162-.16-.162-.164-.152-.183-.129-.173-.119-.173-.108-.194-.106-.193-.096-.205-.102-.22-.085-.215-.073-.225-.067-.215-.055-.217-.053-.208-.044-.215-.03-.216-.033-.204-.021-.207-.012-.204-.01-.194v-.388l.01-.195.02-.185.024-.182.032-.173.044-.173.053-.172.055-.175.064-.15.073-.142.091-.139.084-.118.096-.12.108-.096.13-.11.142-.096.15-.086.162-.066.173-.053.184-.033.183-.032h.196M424.687 596.023l.24.077.233.04.25.026h.25l.246-.026.258-.052.25-.073.249-.1.217-.107.216-.129.194-.15.184-.154.173-.17.163-.197.148-.204.144-.226.108-.206.094-.226.078-.226.062-.241.035-.247.03-.237v-.237l-.011-.239-.019-.237-.041-.239-.067-.248-.077-.235-.098-.241-.108-.224-.13-.227-.138-.217-.161-.228-.173-.215-.186-.208-.184-.181-.204-.184-.217-.173-.213-.16-.23-.152-.269-.151-.261-.13-.27-.12-.27-.095-.255-.066-.252-.054-.236-.032-.236-.011M424.687 596.023l-.203-.073-.198-.098-.182-.108-.185-.129-.173-.141-.16-.162-.162-.161-.152-.185-.117-.172-.117-.172-.123-.186-.105-.204-.098-.208-.088-.202-.085-.228-.079-.226-.064-.205-.064-.219-.044-.202-.042-.216-.043-.218-.023-.202-.02-.207-.021-.196-.013-.193v-.195l.013-.193.012-.184.019-.183.021-.185.033-.172.046-.163.044-.172.062-.164.064-.15.076-.14.078-.14.094-.12.087-.107.11-.096.126-.11.144-.097.15-.075.16-.064.173-.054.185-.032.181-.023h.199M424.816 571.54l.259.045.249.098.248.14.237.172.216.216.184.248.163.272.13.281.095.301.067.302.02.313-.02.292-.055.292-.097.259-.13.237-.15.207-.195.161-.204.128-.238.088-.25.044-.249-.015-.256-.053-.261-.095-.236-.13-.239-.184-.215-.203-.185-.25-.163-.27-.129-.281-.096-.302-.065-.313-.02-.304.02-.29.054-.293.096-.257.119-.24.163-.204.184-.163.214-.129.228-.087.25-.042.257.009" style="fill:none;stroke:red;stroke-width:.999997;stroke-linecap:round;stroke-linejoin:round;stroke-miterlimit:4;stroke-dasharray:none;stroke-opacity:1;visibility:visible"/><path d="m426.027 589.88.259.055.248.096.246.141.228.172.215.216.196.252.161.257.134.29.094.292.054.302.022.303-.022.301-.054.283-.086.257-.131.226-.16.208-.185.162-.215.13-.228.074-.248.043-.248-.01-.257-.054-.251-.099-.245-.14-.228-.17-.215-.218-.199-.238-.16-.27-.132-.278-.084-.306-.064-.301-.024-.303.024-.29.052-.283.088-.257.13-.238.158-.194.186-.174.217-.12.225-.084.251-.033h.248M423.174 790.48l-.173.024-.174.03-.172.042-.194.043-.194.056-.194.062-.204.078-.219.086-.215.086-.216.109-.444.217-.44.248-.444.28-.412.27-.396.289-.389.305-.381.312-.376.346-.367.357-.347.377-.336.402-.29.377-.26.39-.235.409-.208.41-.161.423-.142.43-.084.443-.056.443-.021.43.033.445.066.444.108.43.14.423.173.419.203.401.228.39.27.398.28.379.303.344.301.328.327.309.336.281.343.27.368.24.4.236.409.194.196.09.203.073.196.063.193.044.196.042.183.032.184.014.185.01h.17l.165-.024.161-.02.161-.032" style="fill:none;stroke:red;stroke-width:.999997;stroke-linecap:round;stroke-linejoin:round;stroke-miterlimit:4;stroke-dasharray:none;stroke-opacity:1;visibility:visible"/><path d="m424.472 790.793-.173-.132-.184-.085-.196-.064-.204-.032-.25-.012-.292.012M430.8 559.014l-.163-.03-.162-.034-.184-.023-.184-.021-.194-.01-.194-.014-.204-.01h-.595l-.195.01-.193.013-.196.011-.195.021-.194.023-.182.02-.334.055-.315.064-.29.077-.26.073-.238.087-.195.096-.15.101-.119.095-.055.055-.032.054-.02.052-.012.056v.054l.012.054.02.052.046.044.052.066.074.045.09.052.094.055.108.041.132.045.138.042.15.033M431.845 558.82l-.344.03-.345.065-.358.098" style="fill:none;stroke:red;stroke-width:.999997;stroke-linecap:round;stroke-linejoin:round;stroke-miterlimit:4;stroke-dasharray:none;stroke-opacity:1;visibility:visible"/><path d="m426.662 560.417.153.032.17.033.173.02.199.024.181.008.207.012.202.011.204.013h.199l.192-.013h.196l.192-.01.205-.02.196-.025.187-.02.19-.021.334-.056.315-.064.29-.075.262-.076.236-.086.196-.099.15-.096.119-.096.041-.056.044-.052.022-.055.01-.054v-.055l-.021-.05-.02-.057-.045-.053-.054-.056-.073-.052-.088-.044-.097-.053-.122-.043-.117-.044-.139-.043-.15-.033M401.09 987.58h0M421.813 608.996h0M699.331 826l-.325-.01-.314.01-.281.024-.27.03-.234.054-.23.055-.213.076-.209.073-.204.108-.195.12-.194.141-.183.151" style="fill:none;stroke:red;stroke-width:.999997;stroke-linecap:round;stroke-linejoin:round;stroke-miterlimit:4;stroke-dasharray:none;stroke-opacity:1;visibility:visible"/><path d="m701.38 838.928.423-.067.434-.117.431-.14.42-.173.423-.204.398-.239.39-.259.366-.281.312-.279.306-.293.29-.313.28-.335.259-.357.24-.379.204-.387.184-.402.137-.364.111-.38.088-.39.053-.378.008-.387-.008-.379-.046-.365-.074-.37-.106-.354-.132-.357-.148-.348-.188-.322-.204-.324-.214-.312-.25-.305-.247-.29-.304-.302-.303-.281-.314-.271-.324-.259-.332-.237-.358-.228-.368-.225-.374-.206-.443-.226-.444-.195-.455-.172-.453-.15-.444-.12-.441-.098-.423-.067-.41-.041M695 769.656l.42-.01.436-.045.43-.084.43-.132.412-.148.4-.176.39-.204.377-.237.336-.237.321-.25.303-.257.29-.283.271-.292.263-.301.246-.324.236-.332.228-.381.206-.399.172-.4.138-.423.066-.225.065-.237.043-.238.034-.238.02-.236.011-.23v-.234l-.01-.23M706.166 734.415l-.01.056-.043.043-.076.054-.119.064-.13.055-.15.052-.172.064-.208.065-.205.056-.215.067-.248.05-.27.069-.28.072-.315.066-.31.066-.348.073-.377.077-.401.075-.422.075-.42.065-.482.088-.5.085-.508.076-.507.075M699.589 737.712l1.944 25.161M706.826 966.325l-.195-.119-.17-.13" style="fill:none;stroke:red;stroke-width:.999997;stroke-linecap:round;stroke-linejoin:round;stroke-miterlimit:4;stroke-dasharray:none;stroke-opacity:1;visibility:visible"/><path d="m698.024 768.793-.248.065-.261.044M694.09 735.074l.143-.01M694.146 735.086l.087-.021M699.709 735.94l-3.673.257-3.651.239-3.65.215M699.45 736.004l.259-.064M536.521 746.414l.108.304.14.279.14.284.163.257.173.237.17.227.187.217.182.206.184.173.173.16.185.15.182.145.196.141M533.722 806.02l-.303-.399-.334-.389-.342-.355-.372-.334-.366-.304-.387-.294-.412-.28-.42-.26-.39-.225-.4-.192-.398-.184-.4-.15-.39-.129-.375-.101-.367-.076-.357-.053-.182-.023-.198-.008h-.356l-.162.008-.172.023-.164.03-.15.035-.163.043-.16.053-.15.07-.143.071-.139.076-.119.086-.121.097-.117.096M539.771 793.146l-.152.032-.16.024-.161.01-.176.011-.171-.012-.187-.033-.184-.032-.18-.043-.185-.053-.192-.064-.185-.088-.195-.087-.193-.094-.184-.111-.184-.108-.182-.13-.325-.247-.313-.268-.302-.315-.293-.336-.27-.365-.129-.186-.12-.205-.108-.205-.097-.204-.087-.206-.074-.226-.054-.196-.054-.203-.032-.205-.034-.207-.022-.205v-.419l.022-.21.024-.214.042-.205.041-.204.067-.218.14-.41.172-.396.206-.4.238-.38.248-.376.269-.368.28-.347.296-.333.299-.315.29-.303.348-.322.344-.315.347-.292.357-.28.172-.128.163-.132.17-.119.163-.108.175-.106.15-.096.151-.088.15-.086.165-.086.15-.078.15-.064.143-.056.126-.052.132-.029.118-.027.106-.018.099-.012.096.012.087.009.076.023.065.032.064.045.053.052.046.064M530.679 750.844l.323-.01.334-.034.336-.053.334-.074.313-.101.303-.108.306-.127.298-.142.26-.139.258-.163.247-.16.24-.174.228-.184.224-.195.219-.203.214-.208.215-.245.217-.25.195-.273.173-.268.194-.32.162-.326.139-.326.11-.346M526.961 718.768l-.076-.108-.063-.087-.045-.086-.03-.075-.023-.088-.01-.096M526.961 718.768h0" style="fill:none;stroke:red;stroke-width:.999997;stroke-linecap:round;stroke-linejoin:round;stroke-miterlimit:4;stroke-dasharray:none;stroke-opacity:1;visibility:visible"/><path d="m533.032 750.161.204-.028.196-.057M543.67 720.064l-.13-.03M526.961 718.768l.248-.067M527.21 718.703l3.36.917 3.359.908 3.378.874M543.431 720.053l.11-.021M527.21 718.703h0M521.325 929.971h0M543.54 720.033v.052M455.045 742.572l-.347.012h-1.381l-.347-.012-.334-.012-.334-.008-.313-.023-.303-.013-.289-.02-.307-.024-.298-.03-.292-.034-.304-.03-.303-.046-.26-.043-.259-.052-.248-.057-.246-.05-.228-.069-.204-.062-.196-.066-.172-.076-.163-.064-.14-.077-.13-.075-.107-.076-.098-.062-.086-.067-.142-.13-.128-.14-.108-.151-.073-.151-.067-.152-.033-.17v-.173l.033-.174.074-.174M459.43 742.074l-.336.755-.347.746-.366.723-.387.692-.399.67-.412.635-.432.607-.433.583-.453.54-.463.506-.465.476-.476.432-.487.399-.484.368-.499.315-.494.281-.498.235-.494.194-.499.162" style="fill:none;stroke:red;stroke-width:.999997;stroke-linecap:round;stroke-linejoin:round;stroke-miterlimit:4;stroke-dasharray:none;stroke-opacity:1;visibility:visible"/><path d="m455.045 742.572.443-.012.442-.02.402-.033.401-.022.364-.033.345-.044.348-.03.322-.046.346-.053.326-.066.333-.064.313-.074M451.006 751.393l-22.01 5.832M472.628 738.605l33.512-8.81 31.017-8.167M459.43 742.074l.885-.239M467.671 739.914l4.959-1.308M443.726 743.793h-.01M555.421 574.76l-.27-.012-.26.023-.249.033-.238.052-.226.088-.228.097-.193.13-.184.14-.152.152-.139.158-.118.176-.099.194-.097.196-.063.213-.065.228-.046.239-.029.237-.023.239v.248l.01.261.013.244.03.26.045.261.053.259.055.259.074.257.076.261.098.259.096.248.118.261.12.236.132.238.139.236.159.226.164.219.172.181.174.186.195.173.193.15.216.142.236.128.25.096.262.08.258.05.26.023h.258l.258-.034.26-.051" style="fill:none;stroke:red;stroke-width:.999997;stroke-linecap:round;stroke-linejoin:round;stroke-miterlimit:4;stroke-dasharray:none;stroke-opacity:1;visibility:visible"/><path d="m557.115 582.699.217-.067.215-.086.217-.107.207-.119.192-.129.196-.15.181-.174.163-.172.153-.175.127-.184.132-.193.117-.195.108-.214.087-.228.088-.227.065-.236.054-.219.03-.226.023-.227.01-.225v-.227l-.02-.216-.034-.228-.043-.213-.056-.208-.064-.215-.073-.205-.097-.207-.11-.204-.109-.207-.128-.193-.141-.181-.151-.196-.172-.183-.173-.175-.183-.161-.183-.152-.196-.139-.196-.132-.194-.128-.235-.12-.25-.117-.24-.099-.246-.085-.248-.076-.248-.053-.25-.046-.237-.021M559.63 594.448l-.27-.01-.258.01-.248.032-.239.056-.237.075-.216.097-.193.12-.183.137-.153.154-.139.161-.117.172-.1.184-.099.195-.064.205-.063.225-.045.239-.03.225-.022.24v.495l.021.25.031.258.045.26.043.248.065.26.064.259.09.249.081.257.11.26.107.25.119.238.132.238.148.237.152.224.164.219.17.194.175.171.195.173.192.151.208.141.247.13.25.108.258.085.26.056.258.02h.259l.259-.03.261-.046" style="fill:none;stroke:red;stroke-width:.999997;stroke-linecap:round;stroke-linejoin:round;stroke-miterlimit:4;stroke-dasharray:none;stroke-opacity:1;visibility:visible"/><path d="m561.317 602.32.215-.064.217-.085.207-.099.202-.117.207-.142.184-.138.184-.175.17-.172.142-.175.14-.17.117-.195.12-.193.11-.219.096-.216.077-.225.064-.24.053-.212.032-.219.022-.227.014-.226v-.226l-.025-.213-.02-.219-.043-.217-.056-.205-.065-.215-.087-.205-.084-.208-.109-.204-.116-.192-.119-.196-.142-.184-.152-.195-.174-.183-.173-.173-.181-.161-.186-.151-.184-.141-.19-.13-.208-.118-.235-.132-.239-.115-.25-.1-.248-.087-.25-.076-.245-.053-.239-.044-.24-.02M556.748 576.056l-.27.044-.247.075-.238.13-.205.171-.18.216-.156.248-.107.272-.073.303-.024.312.012.324.041.322.096.327.132.3.162.292.196.261.225.236.237.195.27.153.27.107.272.064.282.012.269-.033.247-.086.237-.13.216-.172.173-.206.15-.249.11-.28.074-.293.033-.314-.008-.322-.056-.335-.088-.315-.13-.312-.17-.29-.195-.262-.229-.225-.237-.205-.258-.152-.282-.107-.27-.055-.281-.021" style="fill:none;stroke:red;stroke-width:.999997;stroke-linecap:round;stroke-linejoin:round;stroke-miterlimit:4;stroke-dasharray:none;stroke-opacity:1;visibility:visible"/><path d="m560.96 595.69-.257.03-.262.087-.226.12-.216.172-.182.206-.141.249-.108.27-.076.291-.033.312.012.324.053.324.085.315.131.303.161.292.196.258.226.239.238.193.27.151.269.108.273.064.282.024.257-.03.259-.09.236-.119.205-.174.184-.204.15-.25.109-.27.076-.29.024-.313v-.325l-.056-.323-.098-.312-.128-.315-.164-.282-.194-.258-.215-.237-.25-.195-.258-.15-.27-.108-.282-.067-.28-.02M560.28 562.663l.195-.097.206-.075.203-.043M560.28 562.663l.205-.021.184-.022.184-.012.175-.008.161-.012h.407l.108.012.1.008.073.024.076.02.055.024.043.02.034.035.01.032v.063l-.056.076-.095.088-.13.085-.173.096-.217.1-.248.105-.281.099-.16.053-.162.055-.185.052-.173.055-.192.053-.186.044-.196.056-.193.041-.227.055-.216.043-.226.054-.216.034-.228.041-.215.033-.204.032-.217.032" style="fill:none;stroke:red;stroke-width:.999997;stroke-linecap:round;stroke-linejoin:round;stroke-miterlimit:4;stroke-dasharray:none;stroke-opacity:1;visibility:visible"/><path d="m557.7 564.208-.193.02-.196.023-.174.012-.172.009-.164.01h-.408l-.109-.01-.096-.01-.075-.022-.077-.02-.053-.023-.043-.021-.023-.033-.021-.032.01-.064.045-.076.096-.087.141-.099.172-.085.215-.108.249-.096.283-.097.161-.055.161-.055.175-.053.181-.055.184-.053.196-.044.192-.053.196-.043.218-.053.213-.044.228-.056.225-.031.219-.041.215-.032.204-.035.208-.033M559.655 617.83h0M550.042 573.107v-.01M609.506 769.385l.508-.16.499-.205.496-.25.486-.278.484-.336.475-.368.465-.41.452-.454.443-.486.436-.52.408-.561.4-.593.388-.626.379-.658.345-.682.345-.724.314-.733.304-.767.278-.788.26-.81.24-.834" style="fill:none;stroke:red;stroke-width:.999997;stroke-linecap:round;stroke-linejoin:round;stroke-miterlimit:4;stroke-dasharray:none;stroke-opacity:1;visibility:visible"/><path d="m617.91 758.145-.304.075-.324.086-.344.075-.367.088-.389.076-.401.084-.407.088-.424.075-.4.077-.41.076-.422.073-.42.066-.42.077-.423.064-.417.073-.425.067-.378.053-.365.055-.37.055-.353.053-.358.043-.336.053-.69.088-.348.044-.333.044-.345.03-.336.043-.324.031-.324.037-.314.019-.313.021-.312.024-.292.019-.27.012h-.603l-.108-.012h-.108l-.11-.01-.108-.009-.097-.024-.097-.01-.096-.023-.143-.044-.116-.043-.075-.042-.057-.054-.032-.065v-.064l.023-.065M586.102 775.78l23.405-6.395M699.46 736.004l-18.997 5.164-19.883 5.4-20.82 5.659-21.85 5.917M601.59 762.086l-.044.024M545.106 739.115v-.312l.043-.315.065-.301.107-.281.132-.27.149-.24.199-.204.201-.182.228-.152.247-.108.261-.076.27-.031h.28l.282.03.281.087.268.108.27.154.248.18.238.217.216.236.195.272.161.281.14.302.108.312.078.324.053.328.01.321-.022.313-.052.314-.088.292-.119.268-.14.249-.172.228-.205.195-.217.161-.236.13-.26.098-.258.05-.282.025-.279-.024-.284-.062-.27-.1-.269-.128-.258-.164-.239-.205-.225-.225-.207-.247-.181-.281-.155-.29-.127-.305-.088-.324-.065-.325-.032-.323" style="fill:none;stroke:red;stroke-width:.999997;stroke-linecap:round;stroke-linejoin:round;stroke-miterlimit:4;stroke-dasharray:none;stroke-opacity:1;visibility:visible"/><path d="m549.07 739.708-.117.033-.142.01-.153-.022-.159-.032-.152-.054-.15-.074-.142-.089-.129-.107-.117-.097-.108-.119-.108-.129-.088-.14-.074-.152-.065-.163-.044-.161-.024-.173-.01-.174.01-.182.044-.192.053-.188.079-.204.105-.192.13-.186.129-.174M549.457 738.232v.373l-.01.167-.011.148-.01.13-.01.13-.035.108-.032.107-.04.098-.053.086-.091.074-.095.055M536.767 721.523l2.692.71 2.687.703M688.237 736.793h0M682.19 737.107l3.027-.152 3.021-.161M667.676 737.288l2.895.045h2.892l2.906-.045 2.906-.075 2.917-.106M610.132 733.78l5.12.505 5.14.476 5.163.434 5.196.388 5.204.366 5.226.314 5.262.281 5.27.25 5.302.203 5.313.162 5.347.129M555.226 725.832l4.837.893 4.852.855M586.07 730.874l4.773.65 4.798.6 4.805.585 4.84.553 4.847.519M542.146 722.936l2.603.648 2.602.613 2.626.574 2.624.55 2.625.511M553.563 823.583l-.152.008-.107.012-.077.021-.043.01-.033.013.01.01M427.722 805.318h-.023l-.009-.01.01-.02.022-.013.03-.01.055-.011.055-.012.075-.01.097-.009.117-.01h.143l.163.01M678.356 811.517l-.064.01-.044.014-.041.007-.022.014h-.024l-.008.01M548.778 794.346l-.023-.01v-.013l.014-.01.021-.011.032-.01.043-.011.052-.014.066-.008.076-.01.098-.012.106-.012h.132M606.536 758.478l7.756-2.061M606.536 758.49v-.012M460.24 741.803l2.559.681 2.56.647 2.572.617 2.578.584 2.594.542M592.01 758.51l2.907.067 2.896.03 2.902-.01 2.906-.043 2.916-.076M530.948 754.116l4.796.54 4.804.507 4.839.476 4.861.445 4.881.407 4.894.378 4.922.346M586.09 758.316l2.963.11 2.957.085M473.102 744.872l5.132 1.036 5.15.985 5.175.958 5.203.918 5.24.875 5.259.841 5.28.811 5.314.757 5.335.735 5.37.68 5.39.65M605.112 516.126l.03-.021.045-.01" style="fill:none;stroke:red;stroke-width:.999997;stroke-linecap:round;stroke-linejoin:round;stroke-miterlimit:4;stroke-dasharray:none;stroke-opacity:1;visibility:visible"/><path d="M383.32 985.7v.11M441.859 607.895h0M430.53 558.603l.239.023.214.021.204.03.198.034.214.053.247.056M402.049 987.063l.228-.188.175-.161.125-.163.1-.148.065-.175.046-.182M383.32 985.81l.024.173.043.148.066.144.086.139.117.15.163.171M441.502 602.17l-.021-.216-.055-.205-.075-.208-.096-.214-.118-.249-.172-.28M438.65 567.233l.204 3.023.21 3.034.395 5.662.358 5.204.358 5.118.376 5.476.204 3.036.207 3.012" style="fill:none;stroke:red;stroke-width:1.99999;stroke-linecap:round;stroke-linejoin:round;stroke-miterlimit:4;stroke-dasharray:none;stroke-opacity:1;visibility:visible"/><path d="m431.845 558.82.639.172.325.108.335.117.3.131.305.143.3.149.301.173.282.174.302.214.326.248.334.292.172.162.172.172.174.185.173.204.347.412.16.225.15.228.163.248.163.259.152.27.14.27.142.281.127.292.117.28.108.303.12.323.108.346.09.335.084.345.066.335.051.345.044.336.033.336M400.57 988.13l-.184.119-.215.13-.228.108-.246.118-.271.108-.28.112-.313.093-.326.1-.31.084-.338.076-.336.076-.354.067-.355.061-.38.065-.379.044-.398.055-.358.03-.366.033-.38.034-.376.019-.378.012-.376.012-.381.01h-.379l-.377-.01-.377-.012-.367-.012-.367-.019-.354-.022-.37-.031-.353-.035-.348-.041-.368-.056-.356-.053-.347-.051-.336-.067-.321-.077-.313-.075-.304-.078-.279-.082-.303-.1-.29-.106-.263-.111-.248-.108-.213-.115-.207-.121-.17-.13-.155-.13M420.646 655.121l.204-1.943.21-1.944.182-1.934.172-1.954.15-1.944.14-1.944.133-1.93.118-1.948.099-1.942.084-1.934.063-1.935.054-1.93.043-1.922.036-1.925.008-1.922v-1.91l-.02-1.923-.024-1.901-.053-1.91-.054-1.892-.074-1.9-.09-1.89-.096-1.879-.118-1.87M441.859 607.895l.108 2.01.096 2.007.09 2.02.065 2.019.053 2.028.03 2.032.031 2.032v4.083l-.017 2.041-.044 2.052-.045 2.041-.063 2.05-.09 2.108-.095 2.096-.107 2.104-.132 2.106-.137 2.107-.163 2.104-.173 2.108-.195 2.105-.193 2.107-.228 2.107-.226 2.106M419.016 567.188l-.021-.41.01-.398.022-.41.056-.402.073-.399.087-.4.12-.386.138-.38.155-.379.181-.365.194-.347.218-.347.224-.333.25-.315.269-.302.281-.29.302-.27.304-.258.324-.25.344-.227.346-.215.358-.196.354-.173.368-.161.518-.206.542-.173.539-.15.55-.12.56-.106.414-.065.408-.056.424-.043.407-.03.27-.022.283-.012.41-.01h.82l.411.022M440.422 657.467l-15.283 133.41M423.551 804.713l-20.767 181.333M420.646 655.121l-37.325 330.58M419.016 567.188l2.799 41.808M441.502 602.17l.359 5.724M402.049 987.063l-.292.201-.299.218-.293.217-.304.216-.29.215M385.277 988.055l-.292-.26-.29-.27-.291-.26-.294-.269-.28-.258M419.945 836.206l69.313-21.89M521.098 804.26l6.305-1.999M418.237 851.089l98.733-32.724M708.023 967.2l.187.11.202.095.218.099.226.097.25.095.258.088.279.096.284.087.301.077.302.073.326.075.322.077.345.064.35.066.343.054.356.054.368.054.367.042.376.034.368.043.38.024.375.02.378.021.379.011.377.01h.735l.368-.01.356-.01.344-.022.348-.02.336-.035.333-.032.312-.034.306-.042.301-.054.279-.054.27-.054.263-.066.233-.064.228-.077.215-.075.207-.073.173-.088.139-.061.12-.079.106-.063.11-.077M723.878 965.708v.141l-.03.14-.046.13-.072.117-.09.132-.12.117-.16.143" style="fill:none;stroke:red;stroke-width:1.99999;stroke-linecap:round;stroke-linejoin:round;stroke-miterlimit:4;stroke-dasharray:none;stroke-opacity:1;visibility:visible"/><path d="m693.769 813.323-.01-.219.01-.248.023-.292.02-.15.009-.171.044-.336.035-.367.018-.194.012-.194.012-.208.011-.214.012-.206.008-.206v-.203l-.008-.217v-.218l-.012-.214-.01-.227-.025-.217-.018-.226-.023-.226-.065-.454-.075-.453-.076-.455-.097-.497-.098-.484-.098-.475-.096-.465-.096-.51-.088-.483-.054-.455-.054-.441" style="fill:none;stroke:red;stroke-width:.999997;stroke-linecap:round;stroke-linejoin:round;stroke-miterlimit:4;stroke-dasharray:none;stroke-opacity:1;visibility:visible"/><path d="M694.09 735.096v-.023M694.09 735.074l.36-.052.377-.044.378-.053.388-.043.388-.057.404-.042.384-.044.404-.044.376-.041.366-.035.37-.03.365-.043.357-.032.355-.03.345-.033.35-.024.309-.032.304-.022.29-.022.282-.022.29-.008.28-.024.27-.022.27-.012.27-.008.263-.022.248-.011h.234l.242-.01.228-.013h.428l.206-.009h.206l.192.01h.174l.163.011h.15l.142.011.119.01.117.023.11.008.097.023.074.023.066.02.041.034.032.02.013.032M706.459 966.075l-.173-.13-.14-.13-.119-.127-.097-.13-.076-.13-.055-.13-.032-.104-.01-.102M707.7 966.995l.15.108.171.096M723.361 966.628l-.27.205-.269.215-.27.205-.272.216-.259.207M712.13 812.286l11.75 153.421M707.795 755.689l3.895 50.861M706.166 734.415l1.147 14.972M690.431 771.04l2.548 32.356M693.769 813.323l1.11 14.048M695.94 840.828l9.816 124.264M707.7 966.995l-.248-.183-.25-.182-.249-.187-.248-.183-.237-.172M535.97 929.907l.055-.032.041-.033.076-.076.076-.063.065-.068.054-.063.053-.065.048-.076.03-.063.03-.066.024-.078.023-.138M534.79 930.738l-.139.087-.153.086-.172.087-.193.075-.184.076-.206.064-.226.064-.226.065-.229.055-.225.054-.247.043-.252.053-.256.035-.263.043-.269.032-.28.032-.3.03-.317.024-.322.023-.325.02-.365.01-.37.013h-.753M526.715 718.228l.023-.13.062-.129.11-.13.137-.107.173-.11.206-.098.249-.085.27-.075.269-.065.305-.055.333-.05.355-.035.39-.032.411-.023.42-.021h.876l.442.009.442.024.443.02.453.036.454.04.454.044.476.052.463.056.477.064.474.064.476.088.476.075.473.089.465.095.454.097.476.108.464.107.432.108.421.118.41.119.389.13.377.12.372.129.375.153.358.15.311.154.293.147.246.152.217.152.173.14.131.14M543.67 720.116v-.053M520.017 928.655v.087l.01.052.014.045.01.033.01.031.01.03.011.035v.01l.012.01.02.031.035.077.041.054.046.066.062.067.066.072.085.076.088.079" style="fill:none;stroke:red;stroke-width:1.99999;stroke-linecap:round;stroke-linejoin:round;stroke-miterlimit:4;stroke-dasharray:none;stroke-opacity:1;visibility:visible"/><path d="m528.519 931.809-.401-.013-.407-.011-.401-.019-.4-.024-.358-.028-.368-.044-.356-.036-.344-.042-.316-.052-.301-.044-.29-.052-.282-.058-.279-.062-.261-.068-.25-.063-.246-.064-.237-.077-.24-.076-.216-.087-.194-.087-.205-.096-.195-.097-.16-.097-.141-.107M535.97 929.907l-.237.172-.236.163-.239.161-.239.173-.228.162M541.898 776.535l-.172 4.721M541.305 793.342l-.475 13.67M540.312 821.777l-3.77 107.308M526.715 718.228l-.013.604M524.933 774.398l-.93 28.944M523.497 819.315l-3.477 109.34M521.671 930.404l-.228-.184-.228-.172-.225-.183-.228-.184-.227-.172M446.912 740.02l.067-.105.086-.108.088-.098.108-.086.118-.086.126-.088.143-.086.15-.075.186-.076.203-.075.252-.088.256-.074M526.961 718.755l-18.25 4.73-19.086 4.938-19.979 5.15-20.951 5.4M443.715 743.793l-13.575 3.465M443.715 743.793h.01l.045-.025.065-.019.065-.044.084-.043.098-.074.12-.079.129-.096.14-.119.14-.13.163-.152.173-.172.193-.206.195-.225.196-.236.207-.27.201-.283.195-.28.194-.314.196-.314.194-.343.193-.35M426.25 781.19l46.076-13.39M529.727 751.124l3.824-1.112M565.938 1030.002l-.15-.132-.151-.163-.127-.157-.11-.177-.075-.162-.066-.214-.018-.214M567.527 1031.385l.259.193.281.196.228.13.248.126.259.123.28.128.296.108.309.12.325.107.332.097.348.096.367.099.379.085.389.076.388.075.4.064.408.068.423.053.42.04.433.044.43.033.435.032.432.026.43.009h.864l.434-.01.422-.013.42-.032.421-.021M580.508 613.36h0" style="fill:none;stroke:red;stroke-width:1.99999;stroke-linecap:round;stroke-linejoin:round;stroke-miterlimit:4;stroke-dasharray:none;stroke-opacity:1;visibility:visible"/><path d="m565 813.341.01.423.02.453.034.476.053.497.044.475.054.487.044.496.044.505.032.48.032.473.02.463v.94l-.01.455-.02.442-.033.446-.045.461-.054.444-.04.419-.056.401-.044.42-.044.4-.018.367-.014.328" style="fill:none;stroke:red;stroke-width:.999997;stroke-linecap:round;stroke-linejoin:round;stroke-miterlimit:4;stroke-dasharray:none;stroke-opacity:1;visibility:visible"/><path d="m586.232 1029.365-.01.184-.043.16-.063.163-.087.162-.121.15-.172.184-.196.186M578.586 1033.437l.399-.043.402-.042.388-.055.375-.055.38-.064.356-.074.336-.078.336-.086.31-.086.305-.098.289-.098.261-.105.259-.11.228-.12.213-.12.196-.118.235-.173M567.527 1031.385l-.31-.281-.327-.271-.314-.28-.322-.27-.314-.269M580.508 613.36l.443 2.16.42 2.159.412 2.169.378 2.172.378 2.181.345 2.192.335 2.192.314 2.192.29 2.204.281 2.204.261 2.203.236 2.205.227 2.214.196 2.092.173 2.108.162 2.105.14 2.107.128 2.108.108 2.105.085 2.116.077 2.107.064 2.114.044 2.107.024 2.117.008 2.107M564.848 667.133l-.01-2.084-.03-2.084-.047-2.084-.061-2.1-.09-2.081-.095-2.086-.132-2.084-.126-2.084-.164-2.073-.172-2.085-.196-2.07-.204-2.074-.228-2.066-.249-2.042-.259-2.04-.281-2.04-.29-2.042-.314-2.02-.335-2.029-.345-2.024-.368-2.007-.387-2.006-.402-2-.408-1.998M560.885 562.449l.42-.044.424-.044.41-.032.41-.01.41-.009.41.008.477.032.474.044.486.086.498.108.474.132.486.17.386.164.38.182.382.205.365.228.357.248.334.268.313.272.292.304.29.3.26.325.247.346.239.345.215.39.205.397.172.413.163.42.132.435.096.429M586.122 824.104l.11 205.26M586.038 667.1l.083 150.798M564.848 667.133 565 813.341M565.01 824.091l.228 204.692M550.042 573.107l9.613 44.723M571.092 568.56l9.417 44.799M550.042 573.096l-.077-.41-.055-.41-.03-.421-.011-.422.012-.42.029-.422.067-.423.077-.408.107-.412.12-.41.149-.39.161-.385.198-.38.201-.367.23-.357.247-.334.26-.337.283-.312.28-.292.3-.27.324-.258.315-.248.334-.228.336-.204.388-.217.39-.206.397-.182.41-.172.414-.154.483-.17.51-.163.527-.152.432-.119.441-.106.446-.11.27-.053.258-.053.413-.078.407-.076.401-.064.399-.052M585.53 1030.563l-.336.259-.333.272-.336.278-.335.272-.335.268M603.524 759.624h0l.01-.01v-.011l.013-.012M603.545 759.591l.065-.064.075-.075.099-.065.118-.064.13-.067.14-.065.161-.067.184-.073.204-.064.23-.073.282-.088.288-.075M698.12 768.716h.023l.022-.01M619.495 755.034l35.49-9.461 32.832-8.759M605.521 758.751l.94-.25M614.292 756.417l5.203-1.383M601.547 762.108l-15.456 4.06M601.547 762.108l.023-.023.064-.032.064-.054.097-.064.11-.086.115-.12.122-.116.128-.141.141-.164.152-.183.15-.193.162-.23.15-.235.162-.262.173-.28.163-.301M586.115 802.424l112.005-33.708" style="fill:none;stroke:red;stroke-width:1.99999;stroke-linecap:round;stroke-linejoin:round;stroke-miterlimit:4;stroke-dasharray:none;stroke-opacity:1;visibility:visible"/><path d="M536.767 721.531v-.01" style="fill:none;stroke:red;stroke-width:.999997;stroke-linecap:round;stroke-linejoin:round;stroke-miterlimit:4;stroke-dasharray:none;stroke-opacity:1;visibility:visible"/><path d="M694.2 735.086h0M548.769 721.447l-2.713-.701-2.688-.714M561.78 724.318l-2.613-.504-2.614-.54-2.602-.576-2.591-.616-2.592-.636M616.429 732.16l-5.119-.54-5.085-.575-5.076-.616-5.044-.645-5.023-.693-5.013-.723M564.913 724.893l-1.565-.293-1.567-.283M673.68 735.604l-5.312-.117-5.293-.163-5.271-.207-5.248-.236-5.228-.268-5.207-.314-5.173-.356-5.161-.39-5.14-.432-5.119-.456-5.099-.505M688.12 735.409l-2.895.11-2.884.075-2.893.043h-2.883l-2.885-.033M694.2 735.086l-3.033.172-3.047.15" style="fill:none;stroke:red;stroke-width:1.99999;stroke-linecap:round;stroke-linejoin:round;stroke-miterlimit:4;stroke-dasharray:none;stroke-opacity:1;visibility:visible"/><path d="m536.767 721.523 6.6-1.49" style="fill:none;stroke:red;stroke-width:.999997;stroke-linecap:round;stroke-linejoin:round;stroke-miterlimit:4;stroke-dasharray:none;stroke-opacity:1;visibility:visible"/><path d="m539.176 749.344 25.759 3.303M558.195 824.39l-.215-.032-.228-.043-.214-.056-.227-.042-.217-.052-.214-.054-.229-.056-.225-.053-.204-.055-.208-.053-.204-.044-.203-.055-.197-.03-.194-.046-.185-.03-.184-.034-.183-.03-.172-.023-.173-.012-.161-.007-.172-.012h-.306l-.118.012" style="fill:none;stroke:red;stroke-width:1.99999;stroke-linecap:round;stroke-linejoin:round;stroke-miterlimit:4;stroke-dasharray:none;stroke-opacity:1;visibility:visible"/><path d="M553.162 823.656h.025l.042-.01.053-.013.076-.009.087-.023.118-.018M428.95 805.275l.25.033.28.051.273.07.278.062.259.065.259.067.269.064.25.064.27.064.27.053.302.055.29.052M428.456 805.223h.077l.084.01.075.01h.075l.088.01.096.022M428.456 805.223l-.195.043-.152.021-.125.023-.112.008-.087.01-.064-.01M422.752 790.544l142.249 19.84M419.598 804.133l8.125 1.185M432.202 805.975l120.961 17.681M558.195 824.39l6.827.995M586.146 863.508l112.87-37.519M586.157 879.126l117.505-40.987M682.903 812.198l-.203-.03-.217-.037-.216-.042-.227-.052-.206-.054-.216-.054-.227-.055-.227-.065-.217-.042-.203-.056-.213-.04-.21-.045-.203-.043-.184-.021-.182-.035-.185-.022-.184-.008-.181-.014-.163-.008h-.163l-.152.008-.138.014-.131.008-.099.012M550.053 794.268l.24.044.268.044.247.056.261.061.247.055.24.065.237.055.227.053.236.064.237.043.259.055.262.044M549.395 794.225h.215l.097.012.099.012.117.01.128.009M549.395 794.225l-.173.043-.132.034-.107.022-.085.012-.067.01h-.052M540.593 781.105l24.385 3.11M622.295 791.538l70.457 8.996M537.773 792.876l11.005 1.47M553.012 794.907l11.977 1.588M593.284 800.264l84.866 11.307M682.903 812.198l10.887 1.459M480.912 743.068l-2.69-.572-2.677-.595-2.668-.637-2.666-.67-2.651-.711M538.474 752.182l-5.364-.639-5.339-.678-5.314-.714-5.28-.756-5.26-.786-5.238-.834-5.206-.864-5.183-.906-5.152-.942-5.13-.981-5.097-1.013M599.235 756.49l-4.395-.139-4.384-.165-4.362-.19M564.945 754.698l-5.344-.42-5.325-.465-5.292-.507-5.271-.54-5.239-.584M614.292 756.417l.012.01M614.292 756.417l-3.015.095-3.02.056-3.017.01-3.003-.022-3.001-.063" style="fill:none;stroke:red;stroke-width:1.99999;stroke-linecap:round;stroke-linejoin:round;stroke-miterlimit:4;stroke-dasharray:none;stroke-opacity:1;visibility:visible"/><path d="m467.56 739.883-7.32 1.921v.02" style="fill:none;stroke:red;stroke-width:.999997;stroke-linecap:round;stroke-linejoin:round;stroke-miterlimit:4;stroke-dasharray:none;stroke-opacity:1;visibility:visible"/><path d="m461.816 766.48 103.152 12.953M526.961 718.768h0M526.961 718.768l.248-.067" style="fill:none;stroke:red;stroke-width:1.99999;stroke-linecap:round;stroke-linejoin:round;stroke-miterlimit:4;stroke-dasharray:none;stroke-opacity:1;visibility:visible"/><path d="m536.487 721.195.413.099.407.108M461.816 766.48l-.27-.05-.257-.098-.261-.13-.239-.187-.221-.204-.22-.258-.195-.282-.173-.323-.161-.345-.14-.378-.119-.412-.099-.43-.073-.455-.053-.476-.034-.485-.012-.508.023-.507M460.316 741.836l-.076-.013M459.312 760.952l1.004-19.116" style="fill:none;stroke:red;stroke-width:.999997;stroke-linecap:round;stroke-linejoin:round;stroke-miterlimit:4;stroke-dasharray:none;stroke-opacity:1;visibility:visible"/><path d="m606.536 758.49-.073.01" style="fill:none;stroke:red;stroke-width:1.99999;stroke-linecap:round;stroke-linejoin:round;stroke-miterlimit:4;stroke-dasharray:none;stroke-opacity:1;visibility:visible"/><path d="m536.563 746.523.01-.215.014-.206.007-.184.012-.195v-.45M537.145 721.629l-.377-.097M536.606 745.022l.539-23.393" style="fill:none;stroke:red;stroke-width:.999997;stroke-linecap:round;stroke-linejoin:round;stroke-miterlimit:4;stroke-dasharray:none;stroke-opacity:1;visibility:visible"/><path d="m672.716 739.746-7.232-1.058s-8.332.244-6.864 3.478l4.562.67M629.065 751.446l-7.232-1.058s-8.332.244-6.861 3.478l4.56.668" style="fill:none;stroke:red;stroke-width:.999997;stroke-linecap:round;stroke-linejoin:round;stroke-miterlimit:10;stroke-dasharray:none;stroke-opacity:1;visibility:visible"/><path d="m665.584 741.561-2.164-.316c-.875-.925 2.052-1.041 2.052-1.041l2.165.316s.284 1.02-2.053 1.04v.001M621.934 753.26l-2.164-.314c-.874-.926 2.052-1.044 2.052-1.044l2.166.319s.284 1.019-2.054 1.039" style="fill:none;stroke:red;stroke-width:.999997;stroke-linecap:round;stroke-linejoin:round;stroke-miterlimit:10;stroke-dasharray:none;stroke-opacity:1;visibility:visible"/><path d="M294.478 709.278a78.982 78.982 0 0 0-41.465-11.69c-19.76 0-37.834 7.22-51.724 19.166" style="fill:none;stroke:red;stroke-width:.999997;stroke-linecap:round;stroke-linejoin:round;stroke-miterlimit:4;stroke-dasharray:none;stroke-opacity:1;visibility:visible"/><path d="m589.994 823.793-7.544-1.11M590.605 819.448l-7.685-1.128M590.826 825.526l-.83-1.736M591.928 818.033l-1.299 1.433M592.42 826.83l-.527-.08M593.83 817.24l-.527-.077M590.633 824.85c.102.56.332 1.092.674 1.555M591.55 818.627a10.016 10.016 0 0 0-.964 3.035 10.03 10.03 0 0 0 .047 3.188M592.639 817.327a3.659 3.659 0 0 0-1.089 1.3M593.303 817.163a.907.907 0 0 0-.664.167M591.305 826.405a.9.9 0 0 0 .587.35M592.89 823.633l-.453-.88M592.7 821.086l.661-.65M592.437 822.751l.261-1.665M594.17 825.369a10.053 10.053 0 0 0 .962-3.039 10.005 10.005 0 0 0-.049-3.184M593.076 826.665a3.676 3.676 0 0 0 1.093-1.298M592.419 826.831a.879.879 0 0 0 .657-.168M594.41 817.589a.88.88 0 0 0-.583-.35" style="fill:none;stroke:red;stroke-width:.999997;stroke-linecap:round;stroke-linejoin:round;stroke-miterlimit:2;stroke-dasharray:none;stroke-opacity:1;visibility:visible"/><path d="M595.083 819.147a3.663 3.663 0 0 0-.674-1.557M629.103 777.197l-7.252-.14M629.158 773.02l-7.39-.14M630.097 778.733l-.99-1.54M630.237 771.526l-1.053 1.51M631.76 779.772l-.507-.01M631.94 770.55l-.507-.01M629.833 778.117c.163.517.444.992.823 1.388" style="fill:none;stroke:red;stroke-width:.999997;stroke-linecap:round;stroke-linejoin:round;stroke-miterlimit:2;stroke-dasharray:none;stroke-opacity:1;visibility:visible"/><path d="M629.952 772.133a9.379 9.379 0 0 0-.543 2.981 9.468 9.468 0 0 0 .424 3.003M630.825 770.776a3.517 3.517 0 0 0-.872 1.357M631.43 770.54a.87.87 0 0 0-.605.236M630.656 779.505a.839.839 0 0 0 .594.257M631.818 776.698l-.53-.777M631.333 774.316l.547-.695M631.284 775.92l.048-1.604M633.35 772.198a3.511 3.511 0 0 0-.823-1.39M633.234 778.184c.34-.962.527-1.968.543-2.984a9.437 9.437 0 0 0-.427-3.002M632.358 779.537c.394-.38.696-.844.876-1.355M631.758 779.774a.843.843 0 0 0 .6-.236" style="fill:none;stroke:red;stroke-width:.999997;stroke-linecap:round;stroke-linejoin:round;stroke-miterlimit:2;stroke-dasharray:none;stroke-opacity:1;visibility:visible"/><path d="M632.528 770.809a.853.853 0 0 0-.588-.26M711.82 754.646l-6.681-.13M711.872 750.8l-6.804-.13M712.736 756.06l-.913-1.417M712.865 749.423l-.97 1.39M714.266 757.017l-.465-.01M714.431 748.523l-.468-.01M712.493 755.494c.15.476.41.914.757 1.278M712.6 749.98a8.73 8.73 0 0 0-.106 5.514M713.406 748.733a3.221 3.221 0 0 0-.804 1.25M713.964 748.516a.813.813 0 0 0-.558.217M713.25 756.77a.787.787 0 0 0 .55.24M714.322 754.186l-.492-.716M713.874 751.992l.503-.639M713.83 753.47l.044-1.477M714.974 748.762a.78.78 0 0 0-.544-.238M715.732 750.042a3.239 3.239 0 0 0-.755-1.28M715.625 755.553a8.696 8.696 0 0 0 .105-5.51M714.818 756.8a3.19 3.19 0 0 0 .808-1.246M714.265 757.018a.776.776 0 0 0 .553-.217M715.889 811.852l-6.643-.695M716.265 808.023l-6.768-.704M716.681 813.34l-.79-1.492M717.37 806.736l-1.083 1.305M718.124 814.422l-.463-.05M719.008 805.973l-.465-.048M716.488 812.753c.109.486.33.944.646 1.337M717.062 807.271a8.655 8.655 0 0 0-.732 2.694 8.787 8.787 0 0 0 .156 2.788M717.969 806.094a3.219 3.219 0 0 0-.907 1.177M718.542 805.925a.783.783 0 0 0-.572.17M717.134 814.089a.776.776 0 0 0 .528.284M718.42 811.605l-.428-.755M718.16 809.383l.555-.595M717.991 810.85l.168-1.468M718.122 814.422a.78.78 0 0 0 .572-.17M719.528 806.257a.783.783 0 0 0-.522-.284M720.174 807.595a3.248 3.248 0 0 0-.644-1.338M719.602 813.08a8.739 8.739 0 0 0 .572-5.484" style="fill:none;stroke:red;stroke-width:.999997;stroke-linecap:round;stroke-linejoin:round;stroke-miterlimit:2;stroke-dasharray:none;stroke-opacity:1;visibility:visible"/><path d="M718.692 814.254c.388-.317.704-.721.912-1.174" style="fill:none;stroke:red;stroke-width:.999997;stroke-linecap:round;stroke-linejoin:round;stroke-miterlimit:2;stroke-dasharray:none;stroke-opacity:1;visibility:visible"/><path d="m708.94 808.375-.095.39-.052.367-.045.343-.01.336v.345l.02.368M707.528 754.548l-.023.161-.022.162-.031.162-.044.163-.041.15-.055.142-.053.13-.076.107-.075.108-.077.087-.086.075-.098.057-.098.039-.106.034-.107.02h-.121l-.13-.012-.129-.032-.13-.042-.138-.064-.153-.075-.142-.11-.137-.107-.143-.128-.128-.143-.13-.15-.118-.174-.121-.193-.105-.206-.1-.205-.086-.227-.064-.224-.056-.241-.044-.247-.029-.237M704.33 753.328l-.01-.25.01-.246.01-.25.035-.26.042-.247.065-.25.064-.248.088-.237.085-.228.096-.225.11-.203.106-.199.119-.192.12-.181.132-.176.117-.15.13-.142.118-.119.107-.109.121-.096.107-.075.108-.065.107-.044.098-.043.098-.012.085-.009.088.01.073.033.076.042.078.056.062.076.055.084.047.088.041.111.043.105.032.12.044.126.032.144.022.149.031.163.025.172.019.184M711.641 806.917l-.04-.228-.055-.203-.054-.174-.066-.14-.077-.119-.084-.085-.088-.068-.097-.031-.108-.01-.108.01-.12.044-.118.055-.126.074-.132.098-.14.12-.142.138-.15.174-.159.196-.155.213-.141.228-.159.27-.142.28-.127.3-.11.318M708.758 810.525l.044.215.052.216.077.208.078.204.085.194.107.172.097.174.12.149.108.141.107.119.108.108.12.097.118.098.118.076.133.077.115.052.118.032.108.03.11.013h.108l.109-.012.096-.019.085-.023.088-.044.087-.049.076-.07.075-.075.064-.086.064-.097.056-.108.052-.119.054-.129.043-.14.036-.152M582.095 819.232l-.096.343-.076.313-.055.301-.03.292-.035.303-.008.345M585.952 818.828l-.023-.204-.021-.184-.023-.184-.018-.183-.035-.162-.041-.163-.034-.15-.054-.153-.043-.129-.065-.127-.063-.117-.077-.101-.076-.096-.087-.076-.087-.064-.097-.055-.108-.044-.107-.021-.118-.011-.12.01-.119.013-.128.03-.152.056-.152.063-.163.087-.16.108-.162.121-.163.128-.161.15-.163.162-.15.173-.153.184-.137.195-.132.204-.13.215-.127.24-.107.237-.101.252M581.795 821.129l.023.263.029.257.056.26.063.259.077.248.096.238.11.235.107.216.118.207.13.194.13.182.142.174.148.15.151.141.152.141.163.108.15.096.152.076.14.066.152.053.142.033.138.011h.131l.13-.024.117-.02.12-.053.12-.066.106-.076.096-.096.098-.108.088-.12.085-.138.065-.132.066-.15.053-.153.053-.16.087-.336M624.925 772.613l-.081-.193-.154-.291-.173-.257-.195-.218-.201-.172-.205-.142-.228-.086-.228-.042-.226.009-.226.044-.226.108-.228.141-.214.184-.198.227-.192.27-.172.3-.154.337-.139.356-.11.388-.095.4-.064.422-.044.422-.023.432.012.421M621.16 775.673l.03.42.067.412.076.387.107.366.133.336.15.315.161.27.185.238.192.19.204.165.228.108.216.065.239.01.228-.031.224-.076.23-.116.214-.176.204-.203.195-.25.185-.283.161-.323.026-.068M525.206 731.631v.227l.012.206.041.194.055.162.077.139.096.097.098.079.116.021.118-.013.122-.053.12-.086.117-.13.11-.152.094-.184.076-.204.064-.216.045-.228.02-.226.011-.228-.02-.204-.044-.194-.053-.163-.078-.141-.085-.108-.107-.066-.121-.018-.12.012-.116.05-.12.088-.116.116-.108.167-.09.183-.083.202-.068.218-.039.225-.024.228" style="fill:none;stroke:red;stroke-width:.999997;stroke-linecap:round;stroke-linejoin:round;stroke-miterlimit:4;stroke-dasharray:none;stroke-opacity:1;visibility:visible"/><path d="M521.876 726.289v9.299s3.419 5.718 7.308-2.068v-4.289M521.876 726.289l6.913 2.384s8.231 1.307 7.388-2.145l-6.912-2.382" style="fill:none;stroke:red;stroke-width:.999997;stroke-linecap:round;stroke-linejoin:round;stroke-miterlimit:10;stroke-dasharray:none;stroke-opacity:1;visibility:visible"/><path d="M523.635 727.884v5.252s1.929 3.229 4.129-1.168v-2.423M529.221 725.829l2.069.715c.687 1.069-2.21.641-2.21.641l-2.071-.713s-.088-1.056 2.212-.643" style="fill:none;stroke:red;stroke-width:.999997;stroke-linecap:round;stroke-linejoin:round;stroke-miterlimit:10;stroke-dasharray:none;stroke-opacity:1;visibility:visible"/><path d="m481.64 743.544.064-.216.044-.228.021-.227.01-.228-.022-.202-.042-.195-.052-.163-.079-.14-.084-.108-.108-.066-.12-.02-.12.013-.119.05-.12.089-.117.116-.108.166-.084.182-.09.205-.063.217-.044.227-.018.225" style="fill:none;stroke:red;stroke-width:.999997;stroke-linecap:round;stroke-linejoin:round;stroke-miterlimit:4;stroke-dasharray:none;stroke-opacity:1;visibility:visible"/><path d="M484.366 743.133v-2.295M477.058 737.898l.02 3.885M482.945 743.577v-2.423M478.816 739.493l.017 2.83M477.056 737.9l6.912 2.384s8.23 1.306 7.39-2.146l-6.915-2.382" style="fill:none;stroke:red;stroke-width:.999997;stroke-linecap:round;stroke-linejoin:round;stroke-miterlimit:10;stroke-dasharray:none;stroke-opacity:1;visibility:visible"/><path d="m484.401 737.441 2.069.715c.69 1.068-2.21.641-2.21.641l-2.07-.715s-.09-1.054 2.21-.641h.001" style="fill:none;stroke:red;stroke-width:.999997;stroke-linecap:round;stroke-linejoin:round;stroke-miterlimit:10;stroke-dasharray:none;stroke-opacity:1;visibility:visible"/><path d="m656.874 729.1 2.637-1.019 1.676.42.542.867-.1 2.03-.627 4.56-1 .526-2.228.068-.77-.37-.182-.36-.248-5.009.3-1.713" style="fill:none;fill-opacity:1;fill-rule:nonzero;stroke:red;stroke-width:1.33333;visibility:visible"/><path d="M657.9 730.58a3.239 3.239 0 0 1 2.042-.006M659.942 730.574a1.163 1.163 0 0 1 .47.292M660.412 730.865c.002 0 .006.004.01.008M657.424 730.878a.028.028 0 0 1 .01-.012" style="fill:none;stroke:red;stroke-width:.999997;stroke-linecap:round;stroke-linejoin:round;stroke-miterlimit:2;stroke-dasharray:none;stroke-opacity:1;visibility:visible"/><path d="M657.434 730.865a1.176 1.176 0 0 1 .47-.287M656.834 731.534l.59-.656M661.015 731.526l-.59-.652M660.345 731.11a1.627 1.627 0 0 1 .653.403M660.998 731.513a.393.393 0 0 1 .12.288M656.729 731.804a.4.4 0 0 1 .116-.284M656.845 731.521c.187-.184.41-.324.652-.407" style="fill:none;stroke:red;stroke-width:.999997;stroke-linecap:round;stroke-linejoin:round;stroke-miterlimit:2;stroke-dasharray:none;stroke-opacity:1;visibility:visible"/><path d="M657.497 731.114a4.507 4.507 0 0 1 2.85-.004M656.734 731.716l.014 4.134s1.42 1.227 4.342.108l.031-4.246" style="fill:none;stroke:red;stroke-width:.999997;stroke-linecap:round;stroke-linejoin:round;stroke-miterlimit:2;stroke-dasharray:none;stroke-opacity:1;visibility:visible"/><path d="m658.148 735.779.01-4.273M659.69 735.884l.016-4.384" style="fill:none;stroke:red;stroke-width:.999997;stroke-linecap:round;stroke-linejoin:round;stroke-miterlimit:4;stroke-dasharray:none;stroke-opacity:1;visibility:visible"/><path d="m558.594 718.3 2.637-1.02 1.676.42.542.868-.1 2.03-.628 4.56-1 .525-2.227.069-.77-.37-.182-.36-.248-5.009.3-1.713" style="fill:none;fill-opacity:1;fill-rule:nonzero;stroke:red;stroke-width:1.33333;visibility:visible"/><path d="m559.143 720.078.012-.012M559.155 720.066a1.179 1.179 0 0 1 .469-.288M559.62 719.778a3.168 3.168 0 0 1 1.023-.168c.345-.002.69.055 1.02.163M561.663 719.774a1.207 1.207 0 0 1 .47.292" style="fill:none;stroke:red;stroke-width:.999997;stroke-linecap:round;stroke-linejoin:round;stroke-miterlimit:2;stroke-dasharray:none;stroke-opacity:1;visibility:visible"/><path d="M562.132 720.065a.03.03 0 0 1 .01.01M558.554 720.734l.59-.657M562.735 720.727l-.59-.653M562.065 720.31a1.627 1.627 0 0 1 .655.403" style="fill:none;stroke:red;stroke-width:.999997;stroke-linecap:round;stroke-linejoin:round;stroke-miterlimit:2;stroke-dasharray:none;stroke-opacity:1;visibility:visible"/><path d="M562.719 720.712a.395.395 0 0 1 .12.288M558.448 721.005a.4.4 0 0 1 .117-.284M558.565 720.721c.187-.184.41-.324.652-.407M559.217 720.313a4.544 4.544 0 0 1 2.85-.003" style="fill:none;stroke:red;stroke-width:.999997;stroke-linecap:round;stroke-linejoin:round;stroke-miterlimit:2;stroke-dasharray:none;stroke-opacity:1;visibility:visible"/><path d="m558.455 720.916.012 4.133s1.42 1.228 4.343.108l.03-4.245" style="fill:none;stroke:red;stroke-width:.999997;stroke-linecap:round;stroke-linejoin:round;stroke-miterlimit:2;stroke-dasharray:none;stroke-opacity:1;visibility:visible"/><path d="m559.868 724.978.01-4.273M561.41 725.085l.016-4.385" style="fill:none;stroke:red;stroke-width:.999997;stroke-linecap:round;stroke-linejoin:round;stroke-miterlimit:4;stroke-dasharray:none;stroke-opacity:1;visibility:visible"/><path d="m312.934 798.107 16.409-7.809M324.603 798.142l-13.257-7.803" style="fill:none;stroke:red;stroke-width:1.33333;stroke-linecap:round;stroke-linejoin:round;stroke-miterlimit:4;stroke-dasharray:none;stroke-opacity:1;visibility:visible"/><path d="m311.346 790.34 13.257 7.802M329.343 790.298l-16.41 7.81" style="fill:none;stroke:red;stroke-width:2.66666;stroke-linecap:round;stroke-linejoin:round;stroke-miterlimit:4;stroke-dasharray:none;stroke-opacity:1;visibility:visible"/><path d="m426.661 560.418-1.845 11.122M422.992 570.299l1.824 1.241M424.203 588.691l1.824 1.189M694.09 735.096l5.499 2.616M443.715 743.793l-14.72 13.432M557.699 564.208l-.951 11.848M555.421 574.76l1.327 1.296M559.63 594.448l1.33 1.242M549.457 738.232l-4.351.883M545.106 739.115l4.351-.883M561.781 724.317l3.134 3.263M599.235 756.49l-13.145 1.826" style="fill:none;stroke:red;stroke-width:.999997;stroke-linecap:round;stroke-linejoin:round;stroke-miterlimit:4;stroke-dasharray:none;stroke-opacity:1;visibility:visible"/><path d="m425.14 790.877-1.589 13.836M516.97 818.365l4.128-14.105M521.098 804.26l-4.128 14.105M704.33 753.328l3.465 2.361M704.332 753.328l2.98-3.941M701.533 762.873l-11.102 8.167M695.94 840.828l-1.06-13.457M694.88 827.371l1.06 13.457M541.726 781.256l-.421 12.086M540.312 821.777l.518-14.764M540.83 807.013l-.518 14.764M541.726 781.256l-16.793-6.858M523.497 819.315l.505-15.973M524.002 803.342l-.505 15.973M581.795 821.13l4.327 2.974M555.226 725.832l9.687-.939M558.195 824.39l6.806-14.006M428.457 805.223l-8.859-1.09M582.45 822.684l-17.428 2.7M548.778 794.347l-8.185-13.242M553.012 794.907l11.966-10.693M682.903 812.198l9.85-11.664M550.051 794.268l-12.278-1.392M550.053 794.268l14.936 2.227M593.303 817.163l-.019-16.899M592.01 758.51l-5.916-2.515M553.012 794.907l11.956-15.474" style="fill:none;stroke:red;stroke-width:1.99999;stroke-linecap:round;stroke-linejoin:round;stroke-miterlimit:4;stroke-dasharray:none;stroke-opacity:1;visibility:visible"/><path d="m661.121 731.712 4.463 9.849M614.292 756.417l7.642-3.157" style="fill:none;stroke:red;stroke-width:.999997;stroke-linecap:round;stroke-linejoin:round;stroke-miterlimit:10;stroke-dasharray:none;stroke-opacity:1;visibility:visible"/><path d="m590.605 819.448-8.155 3.236M589.994 823.793l-7.074-5.473M629.158 773.02l-7.307 4.037M629.103 777.197l-7.334-4.317M711.872 750.8l-6.733 3.715M711.82 754.646l-6.752-3.977M715.889 811.852l-6.392-4.533" style="fill:none;stroke:red;stroke-width:.999997;stroke-linecap:round;stroke-linejoin:round;stroke-miterlimit:2;stroke-dasharray:none;stroke-opacity:1;visibility:visible"/><path d="m704.332 753.328 3.034-2.593M629.953 772.133l-5.138 5.296M526.702 718.832l-1.496 12.799M526.715 718.228l-1.509 13.403" style="fill:none;stroke:red;stroke-width:.999997;stroke-linecap:round;stroke-linejoin:round;stroke-miterlimit:4;stroke-dasharray:none;stroke-opacity:1;visibility:visible"/><path d="m526.702 718.832 2.482 10.399M537.145 721.629l-7.88 2.517M526.702 718.832l-3.067 9.052M526.702 718.832l1.062 10.713M537.145 721.629l-7.924 4.2M536.487 721.195l-7.266 4.634M482.945 741.154l1.421 1.979M482.945 743.577l1.421-2.739M478.816 739.493l-1.738 2.29M484.366 740.838l-1.421 2.739M484.366 743.133l-1.421-1.979M477.078 741.783l1.738-2.29M482.945 741.154l-4.112 1.17" style="fill:none;stroke:red;stroke-width:.999997;stroke-linecap:round;stroke-linejoin:round;stroke-miterlimit:10;stroke-dasharray:none;stroke-opacity:1;visibility:visible"/><path d="m657.904 730.578-1.03-1.478" style="fill:none;fill-opacity:1;fill-rule:nonzero;stroke:red;stroke-width:1.33333;visibility:visible"/><path d="m656.734 731.716 1.414 4.063M661.121 731.712l-1.431 4.172" style="fill:none;stroke:red;stroke-width:.999997;stroke-linecap:round;stroke-linejoin:round;stroke-miterlimit:4;stroke-dasharray:none;stroke-opacity:1;visibility:visible"/><path d="m559.624 719.778-1.03-1.478" style="fill:none;fill-opacity:1;fill-rule:nonzero;stroke:red;stroke-width:1.33333;visibility:visible"/><path d="m558.455 720.916 1.413 4.062" style="fill:none;stroke:red;stroke-width:.999997;stroke-linecap:round;stroke-linejoin:round;stroke-miterlimit:4;stroke-dasharray:none;stroke-opacity:1;visibility:visible"/><path d="m610.523 586.835-3.64.128-3.61.108-3.595.11-3.572.087-3.563.074-3.535.064-3.509.066-3.5.043M549.666 587.364l-3.424-.076-3.39-.097-3.362-.098-3.324-.118-3.287-.132-3.26-.138-3.218-.15-3.186-.163-3.153-.173-3.112-.184-3.079-.195-3.033-.215-3.001-.213-2.96-.241-2.914-.238-2.885-.258-2.852-.26-2.797-.28-2.766-.28-2.72-.292-2.68-.311-2.645-.316-2.59-.336-2.56-.333-2.504-.347-2.476-.359M450.023 523.136h0M451.016 521.635h0M463.943 520.781l2.475.248 2.517.227 2.547.228 2.594.214 2.643.207 2.681.195 2.71.181 2.765.187 2.808.16 2.84.161 2.884.152 2.915.141 2.96.118 3 .12 3.037.108 3.079.108 3.112.085 3.152.076 3.186.065 3.219.054 3.26.053 3.295.032 3.326.023 3.357.022h3.392l3.436-.012 3.452-.01 3.492-.032 3.52-.032 3.552-.054 3.575-.065 3.607-.065 3.64-.086 3.673-.098 3.681-.099 3.726-.117 3.737-.131 3.77-.139 3.791-.152 3.812-.152 3.834-.172 3.857-.182 3.876-.196M455.033 515.392h0M457.928 514.367h0M456.945 514.874h0M617.325 521.202l.185-.01.182-.022.37-.019.743-.056.735-.032.746-.022.734-.012.736.012.733.01.747.032.732.032.733.055.735.076.736.076.734.096.734.099.724.129.733.128.724.152.724.163.723.173.713.183.705.204.7.217.702.227.69.249.692.248.668.27.67.28.67.302.65.303.648.324.636.334.325.172.15.088.163.087M603.728 522.152l1.915-.108 1.918-.108 1.934-.128 1.945-.13 1.955-.153 1.954-.149 1.975-.175M640.05 525.75l.172.108.164.108M640.386 525.966l1.027.668.993.703.97.745.929.777.905.822.868.854.839.884.801.918.753.952.724.97.692 1.006.638 1.038.608 1.056.558 1.091.53 1.103.474 1.122.434 1.144.389 1.168.344 1.166.293 1.198.259 1.199.205 1.21.15 1.231.12 1.22.064 1.243.021 1.232-.021 1.239-.075 1.245-.12 1.23-.163 1.231-.216 1.23-.257 1.22-.303 1.212-.345 1.198-.39 1.19-.433 1.174-.485 1.158-.517 1.144-.563 1.122-.595 1.102-.644 1.08-.685 1.058-.71 1.038-.757 1.006-.8.979-.817.952-.868.919M645.211 576.413l-.139.15-.142.138M644.93 576.702l-.79.736-.807.703-.831.668-.844.65-.81.584-.82.548-.845.532-.85.508-.79.44-.801.422-.819.401-.832.365-.82.358-.832.322-.832.303-.832.281-.906.268-.916.25-.922.228-.929.206-1.033.194-1.05.16-1.06.13-1.057.108M456.502 519.712l.952.184.983.175 1.026.16 1.068.152 1.103.138 1.133.14 1.176.12M623.901 586.067l-1.943.141-1.933.14-1.923.118-1.91.12-1.9.097-1.89.085-1.88.066M450.53 521.56l.055-.099.149-.216.163-.194.162-.195.172-.172.186-.173.194-.152.204-.139.206-.132.225-.107.228-.108.227-.086.249-.075.248-.064.259-.055.27-.044.272-.032.29-.012.29-.01.292.01.314.012.314.032.324.044.336.055.343.064M472.487 581.562l-1.168-.181-1.135-.184-1.09-.206-1.056-.214-1.027-.218-.973-.236-.95-.238M465.09 580.085l-.087-.023-.074-.02-.175-.056-.335-.117-.333-.119-.335-.141-.313-.15-.324-.175-.315-.171-.312-.195-.388-.26M638.666 519.216l-.01-.01h-.013M616.83 515.306l.01-.021h.02M458.706 514.163h.01M469.171 583.063v-.008" style="fill:none;stroke:#00ff4a;stroke-width:.999997;stroke-linecap:round;stroke-linejoin:round;stroke-miterlimit:4;stroke-dasharray:none;stroke-opacity:1;visibility:visible" visibility="hidden"/><path d="M457.086 514.453h0M458.717 514.163h0M450.53 521.56h0M469.15 583.055h.023M624.713 589.146h0M449.568 523.892v.023M456.093 569.9l-.259-.688-.261-.705-.259-.734-.248-.734-.246-.756-.251-.768-.248-.788-.236-.79-.24-.797-.235-.823-.225-.82-.23-.808-.214-.822-.205-.832-.219-.831-.204-.84-.192-.855-.195-.853-.196-.865-.184-.864-.185-.864-.173-.864-.16-.863-.162-.865-.162-.866-.151-.864-.14-.864-.14-.86-.13-.866-.131-.854-.116-.852-.12-.842-.108-.843-.1-.83-.098-.834-.082-.819-.078-.81-.076-.81-.062-.8-.055-.788-.052-.78-.047-.765-.042-.747-.02-.745-.024-.721-.022-.724-.01-.704.01-.69v-.669l.022-.659.024-.649.03-.627.032-.605.047-.592.052-.575.063-.58.076-.56.078-.542.096-.518.096-.508M647.372 525.402l.71.693.683.714.668.722.648.746.628.777.604.779.584.797.56.823.543.832.508.852.485.852.463.877.432.873.401.875.388.896.356.908.335.917.313.93.282.94.261.937.235.952.208.963.181.958.152.963.14.97.096.983.077.974.052.993.035.984v.993l-.035.982-.052.993-.077.984-.096.983-.128.982-.164.983-.181.972-.208.973-.224.96-.263.963-.28.959-.313.95-.332.94-.359.94-.379.928-.408.91-.424.904-.454.888-.462.873-.485.864-.517.843-.534.842-.56.822-.572.809-.604.8-.614.777-.639.768-.65.744-.68.735-.68.703M457.107 514.453l1.599-.29M647.372 525.402l-.379-.355M450.53 521.56l.561-.908.566-.908.569-.907.56-.909.561-.905M466.136 581.542l-.808-.573-.799-.583-.809-.572-.812-.584-.79-.56M638.645 519.205l.908.464.897.497.884.528.864.552.842.571.83.605.81.628.79.635.779.67.745.694M616.861 515.285l.972-.073.995-.056.981-.034.993-.009.994.01.994.045.992.052.986.086.992.098.972.13.985.15.957.173.952.195.952.214.927.239.93.259.917.281.921.301.895.336.897.347.875.367.862.389.843.42M605.185 516.094l1.425-.077 1.447-.086 1.448-.097 1.459-.096 1.47-.11 1.467-.106 1.48-.12 1.48-.117M458.717 514.163l.388-.056.412-.044.408-.01h.433l.434.023.444.043.452.064.452.075M468.555 515.132l1.915.173 1.93.172 1.966.175 1.989.161 2.017.152 2.043.151 2.061.15 2.098.143 2.117.127 2.136.13 2.172.13 2.183.117 2.213.11 2.235.108 2.268.097 2.278.087 2.31.097 2.336.077 2.353.074 2.385.066 2.4.063 2.43.053 2.44.055 2.474.043 2.483.042 2.519.026 2.524.032 2.56.018 2.57.012h5.217l2.634-.012 2.66-.009 2.676-.023 2.701-.018 2.71-.035 2.731-.044 2.755-.043 2.764-.053 2.787-.065 2.812-.064 2.814-.066 2.84-.088 2.854-.082 2.872-.088 2.882-.108 2.907-.099 2.916-.119 2.925-.117 2.94-.13 2.958-.131 2.97-.139 2.291-.108 2.299-.12 2.312-.117M462.14 514.258l.724.13.735.118.768.12.79.108.818.108.832.108.864.087.885.096M469.15 583.055l-.292-.099-.28-.096-.283-.109-.441-.193-.443-.219-.432-.247-.432-.258-.412-.291M469.236 583.076h-.021l-.008-.013h-.036M453.348 517.023l.217-.323.239-.314.257-.303.27-.27.294-.26.311-.225.325-.206.344-.184.346-.163.368-.13.381-.105.388-.088M476.235 584.49l-.863-.127-.83-.142-.824-.152-.796-.151-.779-.152-.757-.163-.743-.17-.712-.174-.695-.184M612.174 589.869l-2.97.099-2.96.085-2.947.088-2.935.075-2.92.074-2.912.055-2.897.053-2.882.042-2.864.045-2.852.032-2.837.021M550.14 590.271l-2.615-.07-2.613-.073-2.58-.085-2.559-.087-2.55-.109-2.518-.096-2.502-.12-2.484-.119-2.463-.13-2.444-.128-2.417-.143-2.396-.148-2.367-.153-2.353-.159-2.334-.176-2.3-.173-2.29-.183-2.259-.196-2.235-.193-2.213-.204-2.193-.206-2.16-.216-2.136-.217-2.13-.237-2.084-.23-2.074-.244-2.04-.25-2.02-.248-1.999-.259-1.965-.27-1.556-.215-1.532-.218-1.524-.226M624.593 589.156l-1.39.11-1.395.094-1.394.099-1.393.085-1.381.077-1.371.075-1.37.068-1.365.05-1.36.055M624.713 589.146h-.064l-.032.01h-.024M647.025 578.648l-.724.712-.735.683-.754.656-.779.649-.788.627-.821.592-.82.573-.84.563-.856.517-.862.508-.885.476-.867.443-.885.409-.897.399-.906.369-.92.344-.914.315-.931.29-.941.267-.95.252-.95.204-.948.195-.962.162-.79.12-.79.087-.796.085M462.098 578.658l-.42-.323-.424-.346-.41-.367-.389-.4-.388-.41-.378-.431-.367-.466-.347-.474-.345-.498-.335-.52-.322-.54-.326-.558-.3-.595-.305-.617-.29-.626-.282-.649-.281-.657M456.19 570.169l-.021-.053-.023-.054-.01-.053-.022-.055-.019-.054M449.527 524.109l.012-.032.01-.045v-.043l.009-.032.01-.032M449.568 523.892l.12-.421.139-.42.154-.402.163-.377.181-.367.207-.345" style="fill:none;stroke:#00ff4a;stroke-width:1.99999;stroke-linecap:round;stroke-linejoin:round;stroke-miterlimit:4;stroke-dasharray:none;stroke-opacity:1;visibility:visible" visibility="hidden"/><path d="m541.305 793.342.593-16.807M590.605 819.448l-4.49-17.024" style="fill:none;stroke:red;stroke-width:1.99999;stroke-linecap:round;stroke-linejoin:round;stroke-miterlimit:4;stroke-dasharray:none;stroke-opacity:1;visibility:visible"/><path d="m559.63 594.448-9.964-7.084" style="fill:none;stroke:#00ff4a;stroke-width:.999997;stroke-linecap:round;stroke-linejoin:round;stroke-miterlimit:4;stroke-dasharray:none;stroke-opacity:1;visibility:visible" visibility="hidden"/><path d="m559.63 594.448-9.49-4.177" style="fill:none;stroke:#00ff4a;stroke-width:1.99999;stroke-linecap:round;stroke-linejoin:round;stroke-miterlimit:4;stroke-dasharray:none;stroke-opacity:1;visibility:visible" visibility="hidden"/></svg>