<svg xmlns="http://www.w3.org/2000/svg" baseProfile="full" height="1122.52" preserveAspectRatio="xMinYMin meet" style="width:912px;height:1303px" width="793.701" xml:space="preserve"><path d="m734.952 105.577-.065-.54-.067-.561-.127-.562-.13-.561-.194-.563-.218-.561-.235-.561-.26-.54-.303-.54-.322-.519-.347-.496-.37-.476-.389-.453-.408-.432-.41-.388-.432-.347-.431-.324M578.374 196.319l.172-.13.173-.107.195-.152.172-.13.172-.15.175-.152.15-.151.324-.303.28-.345.26-.347.13-.193.108-.195.108-.216.086-.194.087-.216.063-.216.044-.194.021-.194.024-.218v-.193l-.024-.173-.041-.194-.042-.194-.066-.174-.087-.173-.087-.172-.13-.173-.13-.151-.149-.152-.152-.13-.173-.107-.175-.087-.192-.085-.195-.066-.217-.042-.193-.022-.216-.022-.216.022-.216.043-.194.043-.216.086-.173.087M577.832 190.489l-.196.108-.17.15-.175.153-.149.15-.154.195-.148.216-.132.216-.128.216-.11.237-.086.238-.084.237-.088.239-.065.258-.087.259-.043.281-.064.26-.022.238-.043.237-.023.237-.02.238-.022.216v.605l.022.195.02.172.023.173.042.13s.174.732 1.063 1.01M717.607 118.3l-.173.087-.174.085-.149.065-.152.066-.152.042-.128.022h-.324l-.11-.043-.063-.044-.088-.064-.042-.087-.065-.086-.043-.107-.042-.13-.044-.13-.022-.15-.024-.153-.018-.173v-.777l.018-.216.024-.216.022-.238.044-.237.02-.237.042-.238.064-.237.046-.239.129-.432.13-.388.173-.41.085-.174.107-.193.109-.173.13-.152.109-.172.129-.131.15-.13.131-.106.151-.108.15-.087.131-.065.172-.065.152-.043.172-.043.152-.022h.172l.174.022.173.022.15.021.151.065.303.13.281.173.238.215.129.129.108.152.087.15.084.153.066.173.066.193.042.174.023.194v.388l-.023.195-.02.195-.065.194-.065.216-.086.195-.088.215-.129.216-.13.216-.151.217-.151.193-.15.216-.174.174-.195.194-.194.172-.194.195-.194.15-.216.174-.196.15-.194.131-.194.13-.194.129-.173.108M725.426 98.838l.455.259.453.302.453.347.432.388.432.41.412.454.388.476.367.496.367.54.326.54.279.561.28.584.237.562.196.582.172.606.13.582.108.562.065.561.021.563-.021.517-.044.52-.087.496-.108.453-.15.432-.192.39-.219.345-.259.324M722.403 98.233l.388-.064h.432l.41.043.455.086.431.13.455.194.452.216" style="fill:none;stroke:red;stroke-width:.999997;stroke-linecap:round;stroke-linejoin:round;stroke-miterlimit:4;stroke-dasharray:none;stroke-opacity:1;visibility:visible"/><path d="m730.611 97.412.43.303.413.366.408.39.388.41.369.432.347.475.324.497.301.518.281.518.26.54.215.54.173.563.151.539.13.541.063.539.046.541M729.487 96.7l-.412-.216-.43-.152-.41-.128-.41-.087-.414-.065h-.388l-.365.043-.367.065-.347.13-.324.15M733.116 109.897l.324-.216.303-.259.258-.281.238-.345.216-.368.173-.41.13-.432.106-.476.065-.496.023-.497v-.54M730.244 97.153l-.367-.237-.389-.216M729.92 111.69l-.239.237-.258.216-.282.174M721.474 98.557l.28-.13.324-.129.323-.065M734.91 105.124l.043.453M730.611 97.412l-.367-.259M733.116 109.897l-3.196 1.793M725.62 96.44l-3.217 1.793M729.141 112.316 574.703 198.91M721.474 98.557 557.53 189.903" style="fill:none;stroke:red;stroke-width:1.99999;stroke-linecap:round;stroke-linejoin:round;stroke-miterlimit:4;stroke-dasharray:none;stroke-opacity:1;visibility:visible"/><path d="m574.158 397.482-.172.108-.173.13-.151.151-.15.174-.153.193-.129.195-.13.216-.13.216-.084.216-.11.237-.087.239-.062.236-.089.238-.043.259-.065.237-.041.26-.043.238-.045.237-.022.216v.216l-.021.216v.541l.021.172v.172l.043.131.024.15.043.109.041.108.044.086.064.087.132.107.127.065.173.023.088-.023h.107l.109-.043.13-.042.127-.043.131-.044.132-.065.15-.087.129-.085.152-.087.149-.087.173-.108.151-.108.173-.108.151-.129.173-.13.172-.129.174-.152.15-.15.174-.151.302-.304.259-.301.261-.326.108-.193.128-.195.088-.172.086-.194.088-.195.042-.195.042-.194.042-.195v-.367l-.018-.172-.024-.173-.042-.173-.066-.172-.086-.152-.086-.152-.108-.151-.151-.15-.13-.13-.151-.108-.172-.108-.175-.065-.172-.086-.192-.044-.197-.044-.192-.02h-.219l-.193.02-.196.044-.194.064-.193.087-.196.108M686.394 335.836l-.175.108-.173.087-.15.064-.13.065-.15.065-.131.043-.108.021h-.215l-.085-.021-.066-.043-.088-.044-.062-.064-.046-.065-.062-.108-.046-.108-.021-.108-.021-.15-.02-.131-.022-.151-.024-.172v-.368l.024-.172v-.217l.022-.216.02-.216.042-.216.046-.238.042-.216.042-.237.044-.237.13-.39.131-.388.15-.389.107-.195.086-.173.108-.172.108-.172.13-.152.131-.13.128-.129.13-.13.131-.086.15-.088.15-.085.154-.065.15-.043.15-.043.173-.022.15-.02h.174l.153.02.15.022.174.043.28.13.259.151.239.172.108.13.106.129.11.152.084.152.065.15.043.173.045.173.02.173.023.174v.17l-.023.174-.041.194-.044.195-.064.195-.067.193-.107.173-.109.216-.13.216-.127.195-.154.193-.173.196-.15.172-.174.174-.193.193-.195.173-.192.151-.197.152-.192.15-.196.153-.195.129-.172.108-.172.108M693.974 316.698l.453.281.432.302.454.368.41.389.434.41.388.453.388.476.346.497.344.519.304.54.302.538.261.563.213.561.195.562.173.562.107.562.108.54.045.538.02.52-.02.496-.045.475-.085.432-.13.41-.173.39-.195.345-.213.324M690.864 316.006l.345-.064h.367l.39.021.387.066.39.108.412.15.408.194.412.217" style="fill:none;stroke:red;stroke-width:.999997;stroke-linecap:round;stroke-linejoin:round;stroke-miterlimit:4;stroke-dasharray:none;stroke-opacity:1;visibility:visible"/><path d="m698.38 314.733.412.259.408.28.412.346.388.346.367.389.369.432.343.43.325.477.301.474.282.498.258.496.219.52.192.518.175.518.129.496.108.518.063.498.045.476M697.926 314.474l-.43-.239-.431-.193-.412-.15-.431-.089-.412-.064-.39-.021-.365.043-.369.065-.344.13-.304.151M701.663 326.85l.283-.216.257-.237.237-.282.216-.324.174-.366.13-.388.108-.412.086-.454.022-.474v-.498M697.97 314.474h-.043M698.49 328.751l-.216.216-.24.216-.236.15M689.999 316.33l.259-.15.302-.109.303-.065M703.175 322.703v.496M698.38 314.733l-.41-.259M701.663 326.85l-3.175 1.901M694.038 314.107l-3.175 1.9M697.797 329.335l-104.004 62.423M578.565 400.894l-10.607 6.372M689.999 316.33l-97.416 58.104M577.313 383.55l-22.508 13.435" style="fill:none;stroke:red;stroke-width:1.99999;stroke-linecap:round;stroke-linejoin:round;stroke-miterlimit:4;stroke-dasharray:none;stroke-opacity:1;visibility:visible"/><path d="m686.657 268.467-.324.475-.323.497-.304.497-.281.519-.28.517-.26.519-.237.54-.238.54-.194.54-.195.519-.17.54-.154.54-.15.54-.109.54-.086.518-.087.519-.041.517-.043.498-.024.496v.476l.044.474.043.455.065.432.087.43.085.411.13.39.151.366.151.368.196.324.193.303.216.301.238.26.238.238.259.216.28.194.281.172M544.852 203.214l-.021-.39v-.345l.045-.324.063-.324.108-.281.129-.237M548.697 208.527l-.323-.108-.324-.15-.324-.195-.346-.238-.303-.281-.324-.303-.303-.345-.28-.367-.26-.389-.237-.388-.216-.432-.195-.432-.149-.432-.13-.433-.087-.41-.044-.41" style="fill:none;stroke:red;stroke-width:.999997;stroke-linecap:round;stroke-linejoin:round;stroke-miterlimit:4;stroke-dasharray:none;stroke-opacity:1;visibility:visible"/><path d="m543.038 204.208.043.28.044.26.088.281.084.28.129.282.132.281.15.28.174.28.173.26.192.237.196.238.194.237.214.217.218.238.237.193.237.216.216.173.196.152.216.151.216.15.194.13.196.108.172.087.173.086.17.066.174.064.153.044.127.021.13.021.131-.021.108-.021.108-.022.086-.044.065-.065.065-.064.066-.087.041-.108.043-.108.042-.129.047-.15.019-.153.024-.173v-.777l-.024-.216-.019-.216-.023-.238-.024-.237-.042-.237-.043-.26-.041-.259-.066-.259-.065-.26-.065-.258-.066-.259-.085-.26-.065-.26-.086-.237-.088-.238-.108-.237-.108-.216-.108-.237-.106-.238-.151-.216-.13-.217-.151-.193-.154-.174-.169-.172-.153-.152-.174-.129-.172-.13-.194-.086-.174-.087-.192-.042-.196-.044-.193-.022h-.173l-.196.022-.216.044-.215.064-.195.086-.172.108-.172.13-.174.152-.152.15-.13.195-.129.195-.108.237-.085.216-.066.259-.041.26-.024.258-.023.26.023.259M500.94 184.789l-.195-.108-.193-.13-.216-.151-.239-.151-.214-.173-.239-.194-.216-.194-.236-.195-.217-.216-.216-.237-.194-.216-.196-.238-.192-.238-.174-.259-.172-.259-.151-.281-.13-.259-.109-.26-.085-.258-.088-.26-.065-.259-.043-.237-.021-.238-.022-.26.022-.237.021-.237.043-.216.044-.238.086-.194.086-.216.108-.174.13-.172.108-.152.131-.129.13-.13.151-.086.15-.108.15-.087.174-.064.173-.044.172-.021.173-.021h.194l.173.021.173.021.174.066.172.065.15.064.174.108.15.108.154.13.149.151.15.151.133.173.129.194.128.194.108.216.13.195.086.237.108.216.087.238.086.238.088.238.084.237.066.281.086.282.064.28.066.28.042.281.046.26.044.259.041.258.023.26.02.238.022.216.02.237v.605l-.02.172-.022.174-.043.173-.041.13-.067.129-.065.108-.066.065-.084.064-.109.065-.107.022-.132.021-.129-.021-.15-.022-.174-.044-.173-.064-.172-.086-.195-.087" style="fill:none;stroke:red;stroke-width:.999997;stroke-linecap:round;stroke-linejoin:round;stroke-miterlimit:4;stroke-dasharray:none;stroke-opacity:1;visibility:visible"/><path d="m502.667 184.012-.28-.15-.301-.217-.282-.238-.302-.28-.282-.324-.257-.347-.261-.367-.236-.388-.218-.41-.194-.432-.172-.432-.151-.411-.11-.432-.086-.432-.064-.41-.021-.39v-.367l.042-.345.066-.324.108-.281M502.452 182.392l.065.021.086.043M691.603 263.823l-.303.173-.41.259-.411.281-.41.324-.41.324-.412.346-.388.366-.39.39-.366.41-.388.41-.347.454-.366.454-.346.453M697.306 263.24l-.303-.15-.325-.13-.324-.087-.345-.065-.344-.043-.37-.022h-.366l-.388.044-.388.064-.391.086-.41.108-.41.152-.325.13-.343.15-.348.174-.321.172M694.864 280.887h0M699.53 272.334v.021M416.743 300.652l-.496.237-.476.282M416.743 300.652l.583-.237.608-.216.604-.152.605-.108.604-.043h.603l.585.043.581.086.564.13.56.194M415.771 301.17l-.563.345-.517.39-.517.432-.496.474-.478.498-.453.54-.41.561-.39.584-.365.604-.326.627-.301.648-.261.669-.235.69-.197.671-.151.691-.107.713-.088.691-.018.692v.69l.041.67.065.67.13.647.152.648.193.606.239.582.281.562.301.541.326.496.365.476.388.43.432.411.453.347.478.323.497.26.516.237" style="fill:none;stroke:red;stroke-width:.999997;stroke-linecap:round;stroke-linejoin:round;stroke-miterlimit:4;stroke-dasharray:none;stroke-opacity:1;visibility:visible"/><path d="m397.109 297.001-.281.043-.28.044-.302.042-.304.022h-.604l-.304-.022-.3-.021-.238-.021-.215-.044-.197-.043-.17-.065-.13-.064-.11-.066-.064-.064-.022-.086.022-.066.023-.064.085-.065.107-.087.13-.065.151-.064.198-.044.192-.043.216-.065.238-.021.258-.043.261-.021.257-.022h.756l.262.022.258.021.215.043.196.044.17.064.154.044.107.064.085.086.044.066v.086l-.044.086-.085.086-.131.087-.172.065-.216.086-.216.065M408.47 300.997l-.257.043-.282.042-.304.023-.324.021-.302.022h-.302l-.304-.022-.28-.021-.26-.044-.213-.043-.196-.042-.17-.044-.131-.064-.11-.087-.065-.065-.021-.064v-.087l.045-.065.084-.064.087-.066.152-.065.15-.064.196-.044.192-.064.216-.044.24-.021.258-.043.261-.021.257-.023h.756l.262.023.258.042.215.022.216.065.152.043.152.065.127.064.065.065.043.087v.087l-.019.064-.09.086-.15.087-.173.087-.192.064-.239.065" style="fill:none;stroke:red;stroke-width:.666665;stroke-linecap:round;stroke-linejoin:round;stroke-miterlimit:4;stroke-dasharray:none;stroke-opacity:1;visibility:visible"/><path d="M545.976 415.13v-.756l-.023-.28-.018-.281-.044-.282-.046-.301-.064-.303-.062-.302-.066-.282-.088-.28-.084-.281-.088-.281-.109-.28-.128-.282-.13-.258-.13-.238-.152-.216-.15-.216-.151-.194-.172-.174-.172-.172-.175-.129-.173-.13-.194-.109-.194-.085-.194-.087-.217-.044-.195-.042-.194-.02-.216.02-.194.021-.172.021-.15.066-.154.042-.15.087-.15.087-.132.108-.129.108-.13.129-.106.15-.088.153-.087.174-.064.15-.042.194-.044.172-.022.195-.022.195v.194l.022.195.043.193.043.216.045.216.084.218.09.214.083.216.108.216.132.216.107.216.15.195.131.216.15.195.15.194.155.194.192.216.195.194.172.195.194.195.195.194.196.172.192.174.173.15.172.131.174.13.173.129.15.108.154.108.15.085.151.087.131.065.15.043.131.044.127.021.108-.021h.11l.087-.044.084-.064.088-.066.066-.108.062-.108.046-.15.064-.151.02-.173.042-.195.023-.216v-.216" style="fill:none;stroke:red;stroke-width:.999997;stroke-linecap:round;stroke-linejoin:round;stroke-miterlimit:4;stroke-dasharray:none;stroke-opacity:1;visibility:visible"/><path d="m542.498 408.824-.085.281-.088.324-.022.346v.366l.046.39.064.389.108.432.128.41.173.41.196.41.236.411.237.388.282.368.281.346.304.324.324.281.3.259.324.216.325.173.324.13M384.71 297.001l-.15-.065-.173-.064-.258-.108-.195-.108-.15-.13-.131-.13-.067-.064-.043-.087M383.543 296.245l-.021-.065v-.064l-.02-.066.02-.064v-.065l.045-.065M530.056 393.834h0v.021h.024M535.132 394.33l.521-.13.539-.173.539-.172.561-.194.52-.195.497-.216.495-.216.497-.216.432-.216.412-.195.408-.216.368-.216.367-.194.324-.194.325-.216.302-.194.281-.216.281-.216.215-.195.216-.195.173-.216.151-.194.087-.194.066-.194M580.513 428.048l-.195.519-.126.54-.11.54-.088.54-.018.54v.54l.018.561.066.54.088.519.108.518.149.475.195.475.196.454.238.432.28.39.28.345.302.301.324.239.324.216.369.15.388.109.388.086.39.043h.43l.413-.021.431-.066.43-.064.433-.108.434-.108.432-.15.43-.131.456-.173.473-.194.496-.194.497-.238.496-.216.478-.26.496-.237.474-.259.478-.26.494-.28.475-.302.455-.282.43-.28.218-.152.193-.129.197-.15.17-.13.346-.281.303-.282M698.58 514.578l-.39.259-.41.281-.39.303-.387.324-.39.345-.388.345-.366.367-.366.39-.369.41-.367.41-.346.433-.346.453-.324.453-.322.454-.304.476-.282.474-.28.498-.278.474-.239.498-.239.518-.216.496-.214.498-.175.496-.172.497-.15.496-.131.497-.13.475-.086.497-.084.475-.067.455-.023.453-.018.432v.432l.018.41.023.411.067.388.084.368.086.346.111.345.127.324.152.281.172.28.173.238.172.217.216.193.195.195M704.692 513.952l-.237-.173-.282-.13-.258-.129-.303-.108-.3-.065-.324-.043-.325-.021h-.326l-.342.021-.37.043-.365.065-.37.108-.366.108-.39.15-.387.174-.39.195-.389.216-.388.216M530.056 393.834l-3.713-2.83-3.696-2.807-3.65-2.787-3.629-2.765M515.369 382.645l-.195-.172-.194-.173-.192-.195-.174-.216-.132-.216-.149-.216-.13-.237-.107-.26-.196-.454-.152-.497-.107-.496-.065-.497-.043-.562v-.54l.043-.582.045-.303.043-.303M414.864 299.917l.24-.087.235-.086.194-.086.194-.065.218-.065.236-.086M413.417 300.565l.259-.13.237-.107.24-.108.213-.087.24-.108.258-.108M407.262 304.518l-2.03-.67-2.074-.669-3.823-1.274-3.5-1.167-3.434-1.145-1.836-.627-1.816-.604-2.028-.692-2.01-.67M407.262 304.518l.43-.345.454-.347.412-.303.453-.322.39-.282.432-.281.408-.28.217-.13.236-.151.281-.172.282-.174.304-.173.3-.193.369-.195.39-.195.387-.216.41-.194" style="fill:none;stroke:red;stroke-width:.999997;stroke-linecap:round;stroke-linejoin:round;stroke-miterlimit:4;stroke-dasharray:none;stroke-opacity:1;visibility:visible"/><path d="m513.641 379.491.085-.345.154-.346M706.29 519.417v.021M414.757 320.286h0M582.804 436.451l-.365-.281-.348-.302-.303-.325-.257-.324-.216-.345-.172-.346M584.079 437.12l-.455-.216-.432-.216-.388-.237M515.54 327.025l.043.367.089.41.128.411.153.432.17.432.196.41.238.41.236.41.262.369.28.366.301.324.304.303.3.259.303.216.302.173.28.152.282.085M515.63 325.816l-.067.259-.042.281v.324l.022.345" style="fill:none;stroke:red;stroke-width:.999997;stroke-linecap:round;stroke-linejoin:round;stroke-miterlimit:4;stroke-dasharray:none;stroke-opacity:1;visibility:visible"/><path d="m514.051 327.846.043.39.088.41.106.41.151.431.175.411.214.432.216.41.259.39.261.388.282.345.28.324.3.303.305.26.3.237.304.172.281.131.282.108.278.043h.239l.236-.043.216-.087.173-.13.151-.194.13-.216.107-.258.066-.282.024-.324v-.366l-.046-.368-.062-.411-.108-.41-.131-.41-.15-.432-.197-.41-.216-.411-.238-.411-.259-.388-.257-.368-.304-.345-.282-.324-.3-.282-.304-.237-.302-.193-.3-.174-.282-.108-.282-.065-.258-.043-.238.022-.216.086-.215.108-.153.151-.151.195-.108.258-.085.26-.046.324v.346l.023.345M510.595 191.01l19.547 202.91" style="fill:none;stroke:red;stroke-width:.999997;stroke-linecap:round;stroke-linejoin:round;stroke-miterlimit:4;stroke-dasharray:none;stroke-opacity:1;visibility:visible"/><path d="m691.581 283.544.303-.172.41-.26.411-.281.388-.323.41-.325.346-.302.345-.302.324-.346.346-.346M696.744 278.684l-.303.39-.28.366-.302.368-.323.367-.196.216M685.814 284.15l.023.021.324.131.322.13.324.085.346.065.366.043.37.022.365-.022.39-.022.389-.064.388-.108.412-.108.389-.13.343-.151.326-.15.344-.153.346-.194M567.813 221.422l-.257-.15-.239-.109-.196-.108-.192-.108-.196-.108-.216-.108M501.286 160.316l-.257-.108-.262-.13-.258-.086-.282-.087-.281-.086-.3-.064-.304-.044-.303-.043-.302-.021-.323-.023h-.304l-.324.023-.323.021-.346.043-.323.065-.325.065-.603.151-.607.195-.605.237-.581.281-.604.324-.606.367-.605.39-.584.453-.519.432-.516.453-.477.497-.475.496-.454.519-.411.54-.39.54-.366.561-.345.563-.3.604-.304.583-.26.626-.238.627-.216.627-.173.626-.13.604-.107.671-.087.647-.021.648v.605l.042.583.066.584.129.582.152.562.108.302.107.282.13.301.151.281.153.26.15.259.174.237.192.238.196.238.194.216.216.194.216.194.237.174.239.15.238.152.236.15M699.53 272.334l.108-.432.087-.453.085-.432.067-.432.041-.498.043-.518.022-.496v-.476l-.022-.454-.043-.474-.064-.432-.087-.432-.106-.411-.131-.39-.13-.366-.174-.345-.17-.347-.195-.301-.216-.303-.239-.259-.237-.26-.259-.216-.281-.193-.3-.173h-.024M699.38 273.004l-.13.432-.127.453-.155.454-.15.453-.193.455-.196.453-.193.432-.217.432-.238.453-.238.411-.259.432-.279.41-.261.41M695.34 280.39l-.108.108-.087.108-.086.087-.108.108-.087.086M501.286 160.316l196.02 102.924M489.213 179.648l77.304 41.083M567.813 221.422l118.001 62.727M699.53 272.355l-.023.13-.042.129-.022.13-.044.13-.02.129M706.29 519.417l.024-.087.019-.453.022-.432v-.843l-.041-.41-.065-.388-.067-.368-.085-.346-.13-.345-.13-.324-.151-.281-.15-.28-.173-.26-.197-.216-.215-.194-.216-.194M706.117 520.842l-.043.345-.041.368-.088.367-.085.367-.108.412-.108.409-.154.432-.15.41-.151.433-.195.41-.193.432-.196.411-.216.41-.237.41-.236.41-.262.39-.258.388-.258.39-.282.366-.279.368-.304.367-.301.324-.304.345-.302.303-.325.302-.324.28-.324.282-.324.258-.321.218-.326.236-.325.194-.324.174-.216.129M692.013 532.981l.259.173.261.151.281.108.279.108.303.065.322.043.324.021h.347l.345-.021.348-.043.364-.086.37-.087.344-.108.325-.13.344-.151.347-.172M422.64 300.349h0M560.06 401.092l-.303-.237-.301-.216-.304-.239-.3-.216-.281-.215-.282-.194-.258-.195-.262-.195-.237-.152-.216-.172-.216-.172-.193-.152-.195-.15-.193-.152-.172-.13-.154-.15-.17-.131-.154-.15-.15-.13-.151-.108-.13-.13-.13-.109-.128-.106-.11-.087M383.565 295.856l.043-.085.065-.11.088-.085.108-.087.108-.086.127-.087.154-.087.15-.064.324-.15.345-.152.39-.13.409-.129.477-.13.495-.13.582-.15.607-.153M691.926 532.938l.088.043M400.283 293.61l1.407.519 1.424.54 2.656.972 2.441.885 2.44.884 2.613.973 2.918 1.059" style="fill:none;stroke:red;stroke-width:1.99999;stroke-linecap:round;stroke-linejoin:round;stroke-miterlimit:4;stroke-dasharray:none;stroke-opacity:1;visibility:visible"/><path d="m416.181 299.442.432-.108.412-.108.365-.064.346-.065.305-.022.3-.022h.52l.257.022.238.043.24.065.216.064M388.037 294.042l.843-.172.43-.087.455-.086.41-.087.434-.087.432-.064.43-.065.411-.064.474-.065.497-.043.541-.065.28-.022.28-.021.303-.021.304-.023.605-.021h1.232l.323.021h.301l.303.023.301.021.282.021.28.043.304.044.301.043.281.044.262.042.257.064.239.066.236.064.216.065M706.29 519.438l-.023.259-.042.302-.043.282-.021.28-.044.281M698.558 532.182l-.28.13-.281.129-.258.152-.281.129-.281.13M422.64 300.349l1.404.561 1.425.584 1.406.627 1.424.647 1.426.67 1.426.691 1.425.735 1.447.734 1.448.778 1.446.821 1.447.82 1.448.864 1.468.864 1.447.908 1.448.928 1.47.95 1.446.973 1.469.993 1.468 1.016 1.448 1.036 1.49 1.08 1.471 1.103 1.467 1.1 1.47 1.145M444.024 337.998l-1.297-1.015-1.294-.972-1.274-.972-1.275-.929-1.276-.93-1.275-.885-1.252-.864-1.274-.864-1.231-.82-1.25-.8-1.233-.756-1.209-.756-1.212-.734-1.144-.647-1.101-.627-1.124-.626-1.1-.583-1.082-.563-1.1-.54-1.06-.54-1.058-.496-1.059-.476-1.035-.453-1.037-.453-1.015-.411M388.707 309.94h0l-.497-.195-.454-.237-.454-.259-.455-.281-.408-.303-.412-.324-.39-.345-.365-.367-.346-.41-.346-.411-.301-.41-.28-.454-.261-.475-.236-.474-.216-.498-.196-.497-.15-.519-.132-.517-.129-.563-.063-.54-.065-.561-.024-.561v-.583l.044-.563.065-.561.088-.583.127-.562.132-.518.172-.518.193-.498.219-.497M457.374 320.977l55.015 42.941M543.685 388.326l11.384 8.877M560.06 401.092l19.612 15.315M596.39 429.452l108.346 84.542M444.024 337.998l247.902 194.94M419.812 299.247l2.828 1.101M388.707 309.94l26.05 10.347M581.141 434.529l-.108-.324-.087-.324-.044-.324M581.205 435.5l-.064-.972M580.903 433.557l-15.336-213.32M596.455 430.381l-13.89-201.117M504.635 328.624l.041.367.066.346.065.302.085.324.174.54.196.518.257.519.15.28.174.281M489.32 179.713l3.91 37.908 3.843 37.454 3.826 37 3.734 36.548M510.443 344.197l3.63 36.763M510.443 344.197l-.043-.39-.041-.387-.065-.39-.088-.432-.084-.432-.09-.432-.126-.453-.108-.475-.154-.497-.15-.475-.174-.518-.173-.498-.173-.496-.215-.518-.217-.562-.259-.562-.257-.562-.262-.561-.28-.583-.301-.54-.28-.562-.347-.604-.366-.584-.347-.583M543.75 389.19l-17.841-190.037M533.102 275.66l.324.237.28.282.26.322.237.368.196.39.15.409.132.455.084.474.044.498v.517l-.02.54-.066.54-.109.561-.15.563-.173.561-.217.562-.236.561M596.455 430.381v.15l-.023.153-.042.129-.042.15-.086.13-.088.13-.108.13-.13.15-.15.153-.174.15-.216.195-.257.172M514.072 380.96h0" style="fill:none;stroke:red;stroke-width:1.99999;stroke-linecap:round;stroke-linejoin:round;stroke-miterlimit:4;stroke-dasharray:none;stroke-opacity:1;visibility:visible"/><path d="m535.132 394.33-.473.13-.499.107-.475.066-.453.042-.41.022h-.411l-.388-.043-.366-.065-.389-.086-.37-.152-.191-.085-.198-.108-.192-.13-.174-.109" style="fill:none;stroke:red;stroke-width:.999997;stroke-linecap:round;stroke-linejoin:round;stroke-miterlimit:4;stroke-dasharray:none;stroke-opacity:1;visibility:visible"/><path d="m543.75 389.19.024.064v.065l-.024.043v.065l-.021.066-.022.064" style="fill:none;stroke:red;stroke-width:1.99999;stroke-linecap:round;stroke-linejoin:round;stroke-miterlimit:4;stroke-dasharray:none;stroke-opacity:1;visibility:visible"/><path d="m530.142 393.92-.064-.065M729.92 111.69l-12.313 6.61M729.141 112.316l-11.534 5.984" style="fill:none;stroke:red;stroke-width:.999997;stroke-linecap:round;stroke-linejoin:round;stroke-miterlimit:4;stroke-dasharray:none;stroke-opacity:1;visibility:visible"/><path d="m577.832 190.489-3.13 8.421" style="fill:none;stroke:red;stroke-width:1.99999;stroke-linecap:round;stroke-linejoin:round;stroke-miterlimit:4;stroke-dasharray:none;stroke-opacity:1;visibility:visible"/><path d="m567.958 407.266 6.2-9.784M578.565 400.894l-4.407-3.412M697.798 329.334l-11.404 6.502M697.797 329.335l-11.403 6.501" style="fill:none;stroke:red;stroke-width:.999997;stroke-linecap:round;stroke-linejoin:round;stroke-miterlimit:4;stroke-dasharray:none;stroke-opacity:1;visibility:visible"/><path d="m578.565 400.894 15.228-9.136M574.158 397.482l4.407 3.412M574.158 397.482l-6.2 9.784M577.313 383.55l15.27-9.116M574.158 397.482l3.155-13.932" style="fill:none;stroke:red;stroke-width:1.99999;stroke-linecap:round;stroke-linejoin:round;stroke-miterlimit:4;stroke-dasharray:none;stroke-opacity:1;visibility:visible"/><path d="m544.852 203.214-1.814.994M489.213 179.648l11.727 5.141M502.667 184.012l-1.727.777M500.94 184.789l1.727-.777M500.94 184.789l1.663-2.333" style="fill:none;stroke:red;stroke-width:.999997;stroke-linecap:round;stroke-linejoin:round;stroke-miterlimit:4;stroke-dasharray:none;stroke-opacity:1;visibility:visible"/><path d="m388.037 294.042 9.072 2.959M388.037 294.041l9.072 2.96M416.181 299.442l-7.711 1.555M416.181 299.442l-7.711 1.555" style="fill:none;stroke:red;stroke-width:.666665;stroke-linecap:round;stroke-linejoin:round;stroke-miterlimit:4;stroke-dasharray:none;stroke-opacity:1;visibility:visible"/><path d="m543.707 389.557-1.209 19.267M515.543 327.025l-1.492.821M515.54 327.025l-1.489.821" style="fill:none;stroke:red;stroke-width:.999997;stroke-linecap:round;stroke-linejoin:round;stroke-miterlimit:4;stroke-dasharray:none;stroke-opacity:1;visibility:visible"/><path d="m515.368 382.645-2.98-18.727M543.038 204.208l-17.13-5.055" style="fill:none;stroke:red;stroke-width:1.99999;stroke-linecap:round;stroke-linejoin:round;stroke-miterlimit:4;stroke-dasharray:none;stroke-opacity:1;visibility:visible"/><path d="m550.3 148.689.021.345v.347l-.045.301-.084.26-.108.238-.13.216-.174.15-.193.108M546.735 144.671l.195-.065.217-.043.236.021.239.066.258.085.26.152.259.195.237.216.259.258.239.282.216.324.216.345.193.345.152.368.15.367.109.367.086.368.044.366M556.65 151.821v.605l-.043.259-.089.216-.107.195-.128.172M556.11 153.376l-.195.064h-.216l-.216-.021-.236-.087-.238-.13-.239-.171-.216-.195-.237-.26-.216-.28-.194-.303-.172-.324-.153-.324-.128-.345-.108-.347-.065-.345-.043-.323v-.304l.043-.28.065-.237.085-.216.13-.173.152-.13.172-.086.197-.043h.213l.238.064.237.108.239.152.238.195.215.214.237.26.195.303.193.324.174.323.13.346.131.346.064.324.064.345M560.991 147.328l155.93-85.58M560.991 147.328l.41.237.433.26.408.324.412.346.412.389.388.43.39.455.387.496.344.519.347.54.324.561.281.584.28.583.239.605.216.604.172.606.173.582.108.604.084.584.067.562.022.54-.022.518-.043.498-.085.474-.108.432-.152.39-.174.366-.216.324-.236.282-.261.237-.28.195M560.991 147.328l-19.419-9.525M544.315 149.445l-.172-.303-.193-.28-.196-.281-.216-.237-.216-.195-.215-.173-.216-.13-.239-.086-.193-.043h-.195l-.196.043-.15.086-.151.13-.108.173M543.711 152.426l.216.021.196-.021.15-.087.15-.108.13-.172.109-.194.065-.239.02-.259v-.302l-.02-.303-.065-.324-.09-.323-.126-.346-.131-.324M545.18 148.56l.065-.087.02-.108.023-.085.023-.087-.023-.086-.043-.087-.065-.043-.065-.044-.086-.042h-.194l-.108.021M545.18 148.56h.108l.108.021.087.022.086.044.064.064.044.065.022.087.021.086-.021.086-.046.086-.041.087-.065.087M544.727 147.91l.043-.108.021-.087.023-.085v-.087l-.023-.086-.043-.066-.064-.042-.088-.022-.085-.021h-.088l-.108.021-.085.043" style="fill:none;stroke:#00ff4a;stroke-width:.999997;stroke-linecap:round;stroke-linejoin:round;stroke-miterlimit:4;stroke-dasharray:none;stroke-opacity:1;visibility:visible"/><path d="m544.23 147.371.023-.087.02-.108v-.15l-.043-.066-.043-.042-.065-.044h-.15l-.087.022-.087.043-.087.043M543.711 146.982l.021-.087v-.15l-.021-.066-.024-.042-.041-.022-.066-.022-.065.022-.085.022-.086.042-.086.044-.066.064" style="fill:none;stroke:#00ff4a;stroke-width:.999997;stroke-linecap:round;stroke-linejoin:round;stroke-miterlimit:4;stroke-dasharray:none;stroke-opacity:1;visibility:visible"/><path d="m543.193 146.788.021-.064v-.13l-.021-.043-.023-.022-.042-.021-.066.021-.064.022-.064.042-.065.066-.065.065-.086.085" style="fill:none;stroke:#00ff4a;stroke-width:.999997;stroke-linecap:round;stroke-linejoin:round;stroke-miterlimit:4;stroke-dasharray:none;stroke-opacity:1;visibility:visible"/><path d="m542.718 146.81.023-.064v-.13h-.066M542.459 146.853l-.024.021-.019.022-.022.021-.022.044-.021.021v.022" style="fill:none;stroke:#00ff4a;stroke-width:.999997;stroke-linecap:round;stroke-linejoin:round;stroke-miterlimit:4;stroke-dasharray:none;stroke-opacity:1;visibility:visible"/><path d="M542.35 147.004v-.064l.023-.023v-.021h-.023M545.202 152.663v-.023h-.023l-.021-.021h-.021l-.043-.021M545.094 152.598h.237M545.59 152.577l.043-.043v-.022l-.02-.022-.023-.042-.043-.022-.065-.022M545.482 152.404l.108-.021.088-.022h.085l.086-.042.065-.023.041-.043v-.086l-.018-.043-.044-.044-.064-.043-.066-.022M545.763 152.015l.085-.021.111-.043.061-.044.088-.043.043-.044.023-.064v-.065l-.023-.043-.021-.065-.064-.043-.087-.044-.065-.021M545.915 151.475l.085-.044.088-.064.064-.043.066-.065.042-.064v-.152l-.042-.065-.046-.043-.062-.065-.087-.043-.108-.021M545.915 150.805l.085-.064.088-.065.064-.066.044-.085.022-.087-.022-.065-.024-.087-.041-.064-.065-.044-.066-.042-.109-.044-.084-.022M545.806 150.071l.065-.085.066-.087.042-.065.043-.087v-.087l-.021-.086-.022-.086-.065-.065-.085-.043-.088-.044-.086-.021-.108-.021M550.3 148.71l-4.385 2.095M550.17 147.976l-4.363 2.095M549.91 147.199l-4.363 2.095M549.543 146.464l-4.363 2.095M549.111 145.816l-4.384 2.095M548.615 145.276l-4.385 2.095M545.957 151.432l4.363-2.073M543.776 146.94l4.341-2.073M543.042 146.529l4.104-1.965M543.41 146.637l4.212-2.008M546 151.929l4.212-2.01M545.871 152.318l4.104-1.965M723.272 67.926l-.023.043v.065l-.02.043v.044l-.022.042-.022.066M720.227 63.606l.085.023.087.021.108.021.087.022.106.021.11.021M722.97 68.12l.28-.172M720.399 63.995l.412-.26M720.075 63.671l.087-.065" style="fill:none;stroke:#00ff4a;stroke-width:.999997;stroke-linecap:round;stroke-linejoin:round;stroke-miterlimit:4;stroke-dasharray:none;stroke-opacity:1;visibility:visible"/><path d="m623.394 97.324 5.14-2.83 5.076-2.809 5.035-2.85 4.989-2.83 4.947-2.85 4.9-2.852 4.862-2.872 4.816-2.852 4.752-2.872 4.71-2.895 4.665-2.873M564.015 127.715l5.616-2.7 5.573-2.743 5.53-2.722 5.486-2.743 5.442-2.764 5.4-2.765 5.358-2.764 5.314-2.787 5.27-2.808 5.206-2.787 5.184-2.808M542.22 151.28l.067.044M545.007 152.663l10.801 5.357M558.53 159.36l3.91 1.921M541.573 137.802l.473 9.635M542.22 151.216v.064M565.312 161.454l-.304.13-.323.086-.345.064h-.368l-.367-.043-.368-.086-.409-.13-.39-.194M689.36 58.012l2.42-1.684 2.376-1.685M677.286 65.94l2.505-1.577 2.442-1.576 2.418-1.578 2.378-1.598 2.332-1.599M548.356 134.886l3.196-1.404 3.155-1.425 3.13-1.426 3.111-1.446 3.067-1.47M541.573 137.802l3.39-1.47 3.393-1.446M694.155 54.643l22.767 7.107M716.922 61.749l.473.172.499.217.475.259.474.303.476.345.454.368.454.41.431.454.39.453.389.496.366.519.324.54.279.561.283.563.214.561.196.583.174.584.108.561.085.562.043.561v.54l-.043.519-.085.497-.108.475-.154.453-.193.41-.216.367-.26.346-.301.324-.324.26-.346.216-156.167 86.226M541.66 148.15l-.085.195-.066.258-.022.282v.301l.044.303.064.345.108.324.13.347.151.324.173.301.215.281.196.282.236.214.217.195.238.152.237.108.216.065M542.675 146.615l-.044.021-.021.043-.043.023-.043.042-.022.043-.043.065M542.35 146.896v.021l-.043.023-.022.043-.02.042-.047.066-.041.064M544.662 152.62l.13.021h.107l.087.023h.088l.084.021.044-.021M545.331 152.598h.195l.045-.021h.019M541.66 148.15l.519-.995M543.711 152.426l.95.195M542.675 146.615l4.125-1.965M542.35 146.896l.108-.043M545.59 152.577l4.061-1.944M545.202 152.663l.13-.065M723.034 65.248l-.173-.28-.215-.281-.216-.239-.239-.193-.258-.174-.26-.15-.259-.108-.259-.066M723.444 67.365l.044-.28.021-.281-.021-.303-.067-.324-.085-.324-.13-.303-.173-.301M723.185 68.228l-.021.065v.066l-.022.042-.021.043-.021.044v.021M719.989 63.585h.065l.019.021h.09M720.184 63.606h.043M723.444 67.365l-.259.864M721.155 63.758l-.928-.152M720.162 63.606h.024" style="fill:none;stroke:#00ff4a;stroke-width:1.99999;stroke-linecap:round;stroke-linejoin:round;stroke-miterlimit:4;stroke-dasharray:none;stroke-opacity:1;visibility:visible"/><path d="M557.73 128.298v-.021h-.021v-.087l-.022-.043-.022-.065-.022-.13-.044-.129-.042-.152M564.765 127.11l-5.443-3.001M562.448 128.64l-4.91-2.707M557.362 127.413l-.087-.237-.044-.282v-.281l.023-.323.065-.324.108-.325.13-.323.152-.324.193-.302.195-.282.236-.258.238-.216.239-.195.259-.152.237-.107.259-.065M558.313 129.098l-.024-.021-.041-.044-.043-.043-.043-.043-.022-.044-.043-.064M557.989 128.773l-.043-.043-.042-.065-.044-.064-.044-.087-.043-.108-.043-.108M557.709 128.277h0l.021.021M560.624 123.244h.023M560.646 123.244h.13l.085-.021h.258l.046.021M561.336 123.33h.044l.041.023h.046l.042.021h.043l.041.021M559.565 123.417l1.059-.172M557.362 127.413l.347.864M558.313 129.098l1.296.713M557.73 128.298h0M557.989 128.773l.108.065M561.595 123.395l5.293 2.937M561.165 123.244l.172.085M560.646 123.244h0M661.237 72.376v-.021h-.021v-.087l-.022-.043-.022-.065-.02-.13-.046-.129-.042-.152M668.273 71.187l-5.443-3.001M665.956 72.718l-4.91-2.707M660.87 71.49l-.087-.237-.044-.282v-.281l.023-.323.065-.324.108-.325.13-.323.152-.324.193-.302.195-.282.236-.258.238-.216.239-.195.259-.152.237-.107.259-.065M661.82 73.176l-.024-.021-.041-.044-.043-.043-.043-.043-.022-.044-.043-.064M661.497 72.851l-.043-.043-.042-.065-.044-.064-.044-.087-.043-.108-.043-.108M661.217 72.355h0l.021.021M664.132 67.322h.023M664.154 67.322h.13l.085-.021h.258l.046.021M664.844 67.408h.044l.041.023h.046l.042.021h.043l.041.021M663.073 67.495l1.059-.172M660.87 71.49l.347.864M661.82 73.176l1.296.713M661.237 72.376h0M661.497 72.851l.108.065M665.103 67.473l5.293 2.937M664.672 67.322l.172.085M664.154 67.322h0" style="fill:none;stroke:#00ff4a;stroke-width:.999997;stroke-linecap:round;stroke-linejoin:round;stroke-miterlimit:4;stroke-dasharray:none;stroke-opacity:1;visibility:visible"/><path d="M564.304 152.858c1.35 2.483.984 5.287-.812 6.264l-3.665 1.992c-1.8.978-4.348-.244-5.698-2.728-1.349-2.48-.986-5.285.811-6.262l3.668-1.992c1.796-.976 4.347.244 5.696 2.726" style="fill:none;fill-opacity:1;fill-rule:nonzero;stroke:#00ff4a;stroke-width:1.33333;visibility:visible"/><path d="M563.863 155.365v.69l-.043.304-.087.281-.108.237-.13.195-.17.15-.175.108M558.197 159.336l.243.038.245-.014.222-.098.197-.125.172-.207.121-.237.095-.295.067-.32.02-.378-.007-.38-.062-.407-.086-.437-.141-.412-.143-.412M559.14 155.652l-.197-.39-.224-.389-.23-.336-.256-.31-.256-.281-.287-.233-.263-.173-.267-.123-.268-.067-.244-.012-.245.04-.194.102-.197.15-.147.21M555.979 153.53l-.022.02-.021.022-.021.021-.023.044v.021l-.022.022" style="fill:none;stroke:#00ff4a;stroke-width:.999997;stroke-linecap:round;stroke-linejoin:round;stroke-miterlimit:4;stroke-dasharray:none;stroke-opacity:1;visibility:visible"/><path d="M556.26 153.486v-.064l.024-.065-.024-.021v-.044h-.065M560.256 151.35l.216-.089.216-.019h.216l.26.062.259.109.257.152.261.173.259.238.237.258.236.282.239.324.196.324.192.366.175.368.129.367.108.39.087.365.064.346M555.87 153.573v.021l-.041.022-.022.044-.022.064-.044.065-.041.064" style="fill:none;stroke:#00ff4a;stroke-width:.999997;stroke-linecap:round;stroke-linejoin:round;stroke-miterlimit:4;stroke-dasharray:none;stroke-opacity:1;visibility:visible"/><path d="m556.195 153.292-.022.021-.043.043-.043.022-.022.043-.042.043-.044.065M555.18 154.825l-.087.216-.063.26-.023.259v.302l.041.324.067.324.108.346.129.344.152.325.195.303.193.28.216.281.216.216.236.196.24.15.216.106.237.067M556.561 153.205l4.104-1.965M563.532 154.765l-3.975 1.93M559.132 159.274l.044-.042v-.023l-.02-.021-.024-.043-.064-.021-.044-.024M558.636 159.296h.216M558.721 159.362h.024l-.024-.02-.021-.025h-.021l-.043-.019M555.87 153.681v-.043l.024-.022v-.043h-.023M562.75 152.825l-3.974 1.93M558.721 159.362l.132-.065M559.132 159.274l4.061-1.964M555.87 153.573l.11-.043M557.252 159.124l.95.194M555.18 154.825l.519-.972M558.852 159.296h.193l.045-.022h.042" style="fill:none;stroke:#00ff4a;stroke-width:.999997;stroke-linecap:round;stroke-linejoin:round;stroke-miterlimit:4;stroke-dasharray:none;stroke-opacity:1;visibility:visible"/><path d="M558.204 159.318h.13l.11.023.084.021h.195" style="fill:none;stroke:#00ff4a;stroke-width:.999997;stroke-linecap:round;stroke-linejoin:round;stroke-miterlimit:4;stroke-dasharray:none;stroke-opacity:1;visibility:visible"/><path d="M551.081 146.414c1.35 2.483.984 5.287-.811 6.264l-3.666 1.992c-1.799.978-4.348-.244-5.697-2.728-1.348-2.48-.987-5.285.81-6.262l3.667-1.992c1.797-.976 4.348.244 5.697 2.726" style="fill:none;fill-opacity:1;fill-rule:nonzero;stroke:#00ff4a;stroke-width:1.33333;visibility:visible"/><path d="m545.917 149.208-.197-.39-.224-.388-.23-.336-.254-.31-.257-.284-.288-.23-.263-.174-.265-.123-.27-.067-.244-.012-.245.04-.193.102-.198.15-.146.21M542.756 147.085l-.021.021-.022.022-.021.021-.023.044v.021l-.021.022" style="fill:none;stroke:#00ff4a;stroke-width:.999997;stroke-linecap:round;stroke-linejoin:round;stroke-miterlimit:4;stroke-dasharray:none;stroke-opacity:1;visibility:visible"/><path d="M543.037 147.042v-.064l.024-.065-.024-.021v-.044h-.065M547.033 144.904l.217-.087.215-.021h.216l.26.064.259.108.259.152.26.173.258.237.238.26.237.28.237.324.196.324.195.367.172.368.13.367.106.39.088.365.064.345M550.639 148.922v.691l-.043.303-.087.281-.108.237-.13.196-.171.15-.173.109M544.975 152.89l.242.04.246-.017.221-.096.197-.125.172-.207.12-.237.097-.295.066-.32.02-.379-.007-.378-.061-.408-.087-.438-.141-.412-.143-.412M542.648 147.13v.02l-.043.022-.021.044-.021.064-.044.065-.043.065M542.972 146.848l-.021.021-.044.043-.043.022-.021.043-.043.043-.044.065M541.959 148.381l-.089.216-.062.26-.023.259v.302l.042.324.066.324.108.346.13.345.152.324.194.303.194.28.216.281.216.216.237.196.239.15.216.106.237.067M543.339 146.762l4.104-1.965M550.31 148.322l-3.973 1.93" style="fill:none;stroke:#00ff4a;stroke-width:.999997;stroke-linecap:round;stroke-linejoin:round;stroke-miterlimit:4;stroke-dasharray:none;stroke-opacity:1;visibility:visible"/><path d="m545.91 152.83.042-.042v-.023l-.019-.021-.023-.044-.065-.02-.044-.023M545.412 152.853h.216M545.499 152.918h.024l-.024-.02-.023-.025h-.02l-.043-.019M542.648 147.237v-.043l.023-.022v-.043h-.023M549.528 146.381l-3.976 1.93M545.499 152.918l.131-.065M545.91 152.83l4.06-1.965M542.648 147.13l.108-.045M544.03 152.68l.952.194M541.959 148.381l.518-.971M545.63 152.853h.193l.044-.021h.042" style="fill:none;stroke:#00ff4a;stroke-width:.999997;stroke-linecap:round;stroke-linejoin:round;stroke-miterlimit:4;stroke-dasharray:none;stroke-opacity:1;visibility:visible"/><path d="M544.981 152.874h.131l.108.023.085.021h.195" style="fill:none;stroke:#00ff4a;stroke-width:.999997;stroke-linecap:round;stroke-linejoin:round;stroke-miterlimit:4;stroke-dasharray:none;stroke-opacity:1;visibility:visible"/><path d="m558.53 159.36-2.722-1.34" style="fill:none;stroke:#00ff4a;stroke-width:1.99999;stroke-linecap:round;stroke-linejoin:round;stroke-miterlimit:4;stroke-dasharray:none;stroke-opacity:1;visibility:visible"/><path d="m558.313 129.098 4.135-.458M558.097 128.838l-.558-2.905M557.989 128.773l1.62 1.038M561.165 123.244l5.723 3.088M665.103 67.473l3.17 3.714M661.82 73.176l4.136-.458M661.605 72.916l-.558-2.905M661.497 72.851l1.619 1.038M664.672 67.322l5.724 3.088" style="fill:none;stroke:#00ff4a;stroke-width:.999997;stroke-linecap:round;stroke-linejoin:round;stroke-miterlimit:4;stroke-dasharray:none;stroke-opacity:1;visibility:visible"/><path d="m559.14 155.652 5.164-2.794M551.081 146.414l13.223 6.444" style="fill:none;fill-opacity:1;fill-rule:nonzero;stroke:#00ff4a;stroke-width:1.33333;visibility:visible"/><path d="m558.853 159.297.704-2.602M560.256 151.35l2.494 1.475" style="fill:none;stroke:#00ff4a;stroke-width:.999997;stroke-linecap:round;stroke-linejoin:round;stroke-miterlimit:4;stroke-dasharray:none;stroke-opacity:1;visibility:visible"/><path d="m545.917 149.208 5.164-2.794M564.304 152.858l-13.223-6.444" style="fill:none;fill-opacity:1;fill-rule:nonzero;stroke:#00ff4a;stroke-width:1.33333;visibility:visible"/><path d="m544.852 203.214 12.678-13.31M574.158 397.482l5.514 18.925" style="fill:none;stroke:red;stroke-width:1.99999;stroke-linecap:round;stroke-linejoin:round;stroke-miterlimit:4;stroke-dasharray:none;stroke-opacity:1;visibility:visible"/></svg>