<svg xmlns="http://www.w3.org/2000/svg" baseProfile="full" height="1122.52" preserveAspectRatio="xMinYMin meet" style="width:912px;height:1303px" width="793.701" xml:space="preserve"><path d="m337.875 794.268 1.163-.652" style="fill:none;stroke:red;stroke-width:.666665;stroke-linecap:round;stroke-linejoin:round;stroke-miterlimit:4;stroke-dasharray:none;stroke-opacity:1;visibility:visible"/><path d="m454.895 584.113.021-.021M451.827 579.21l.196-.106M454.766 583.724l.366-.237M455.132 583.465v.065l-.021.065-.021.042-.023.066v.042l-.02.066M289.96 664.486l158.714-87.22" style="fill:none;stroke:red;stroke-width:.999997;stroke-linecap:round;stroke-linejoin:round;stroke-miterlimit:4;stroke-dasharray:none;stroke-opacity:1;visibility:visible"/><path d="m454.916 584.092.024-.021M452.022 579.103h0M452.994 579.253l-.951-.15M455.306 582.904l-.26.908M452.022 579.103h.022M451.676 579.081h.174l.042.022h.13M454.916 584.092v.021h-.021v.022M455.047 583.81l-.024.087-.019.064-.022.044-.02.043v.021h-.023M455.306 582.904l.064-.259.02-.302-.02-.303-.064-.324-.108-.324-.131-.324-.15-.324M454.916 580.744l-.196-.28-.216-.26-.214-.237-.26-.217-.257-.194-.261-.13-.258-.106-.26-.067M448.674 577.267l.473.172.499.217.476.259.496.324.454.345.474.368.433.43.431.435.409.474.39.497.37.539.323.541.3.561.261.562.237.561.195.583.172.584.108.581.087.563.045.562.02.54-.044.519-.064.496-.13.476-.15.452-.175.412-.236.388-.261.345-.281.303-.323.281-.347.216-147.891 81.735M425.864 569.965l22.81 7.302M271.014 654.53l3.197-1.384 3.174-1.382M277.386 651.764l3.261-1.425 3.219-1.447 3.174-1.448 3.153-1.49 3.134-1.468M408.65 581.5l2.549-1.599 2.505-1.62 2.463-1.62 2.419-1.62 2.374-1.62M420.962 573.421l2.462-1.728 2.44-1.728M293.327 644.485l5.703-2.785 5.679-2.767 5.618-2.786 5.592-2.807 5.531-2.81 5.488-2.805 5.464-2.831 5.398-2.85 5.358-2.831 5.312-2.872 5.272-2.851M353.742 613.49l5.228-2.875 5.184-2.872 5.14-2.894 5.076-2.894 5.033-2.916 4.99-2.895 4.945-2.916 4.904-2.937 4.861-2.916 4.795-2.938 4.752-2.937" style="fill:none;stroke:red;stroke-width:1.99999;stroke-linecap:round;stroke-linejoin:round;stroke-miterlimit:4;stroke-dasharray:none;stroke-opacity:1;visibility:visible"/><path d="m491.605 592.185.388-.064h.432l.411.043.455.087.429.129.456.195.454.215M494.63 592.79l.453.257.454.304.454.346.432.388.432.411.412.453.388.476.365.496.368.54.325.54.28.562.279.584.239.561.196.583.172.605.13.583.106.561.066.561.022.563-.023.517-.043.52-.087.496-.107.454-.15.432-.193.389-.22.345-.257.324M486.81 612.25l-.172.088-.174.085-.15.065-.15.065-.154.043-.127.021h-.324l-.11-.042-.064-.045-.088-.063-.04-.087-.067-.087-.042-.106-.043-.131-.044-.13-.02-.149-.026-.153-.018-.174v-.777l.02-.216.023-.216.021-.237.044-.237.02-.238.045-.237.062-.237.045-.239.13-.432.13-.388.171-.41.087-.175.105-.192.111-.174.129-.15.11-.175.13-.129.149-.131.131-.105.15-.108.152-.087.13-.065.172-.066.152-.042.172-.043.152-.023h.172l.173.023.175.021.149.022.151.065.303.13.281.172.237.215.13.131.106.15.088.153.085.15.066.174.065.193.043.173.023.195v.388l-.023.194-.02.195-.064.195-.067.216-.085.195-.088.214-.13.216-.128.216-.152.218-.15.193-.151.216-.175.173-.195.195-.194.172-.193.195-.195.15-.216.174-.196.15-.193.13-.195.131-.193.129-.173.107M347.038 684.438l-.195.108-.172.151-.173.153-.15.15-.154.195-.149.215-.132.216-.127.216-.11.238-.085.237-.087.237-.086.24-.066.257-.085.259-.044.282-.063.26-.024.237-.042.237-.024.238-.019.236-.023.217v.605l.023.195.02.173.023.172.042.13s.174.733 1.064 1.012M347.578 690.27l.172-.129.173-.108.195-.152.172-.13.172-.149.174-.152.151-.15.324-.305.28-.345.26-.346.13-.194.106-.194.111-.216.085-.195.087-.215.062-.217.044-.193.022-.195.024-.217v-.194l-.024-.173-.042-.193-.04-.195-.069-.173-.085-.174-.087-.172-.13-.173-.13-.15-.149-.154-.152-.127-.174-.109-.174-.087-.192-.084-.195-.066-.217-.044-.192-.02-.218-.023-.216.023-.216.042-.193.043-.216.087-.173.086M504.156 599.528l-.065-.54-.067-.561-.127-.562-.13-.561-.194-.563-.218-.561-.235-.561-.26-.54-.303-.54-.322-.519-.347-.496-.368-.476-.39-.453-.41-.432-.409-.388-.432-.347-.43-.324" style="fill:none;stroke:red;stroke-width:.999997;stroke-linecap:round;stroke-linejoin:round;stroke-miterlimit:4;stroke-dasharray:none;stroke-opacity:1;visibility:visible"/><path d="m490.679 592.508-163.944 91.346M498.345 606.268l-154.438 86.594M494.823 590.392l-3.218 1.793M502.319 603.85l-3.196 1.792M499.815 591.364l-.367-.259M504.112 599.076l.043.453M490.679 592.508l.28-.13.324-.128.322-.066M499.123 605.641l-.239.239-.259.215-.28.173M499.447 591.105l-.367-.237-.39-.216M502.319 603.85l.324-.218.302-.257.26-.282.235-.345.217-.368.174-.41.129-.43.108-.477.064-.496.023-.498v-.539M498.69 590.652l-.41-.216-.431-.152-.411-.128-.409-.087-.415-.065h-.387l-.367.043-.365.065-.347.13-.324.149M499.815 591.364l.43.303.412.366.41.39.386.41.37.432.346.475.324.497.302.518.281.518.26.54.215.54.173.563.15.539.132.541.062.539.045.541" style="fill:none;stroke:red;stroke-width:1.99999;stroke-linecap:round;stroke-linejoin:round;stroke-miterlimit:4;stroke-dasharray:none;stroke-opacity:1;visibility:visible"/><path d="m460.067 809.958.345-.064h.368l.389.021.386.066.391.108.412.15.408.194.412.217M463.178 810.649l.452.281.433.301.453.369.41.39.434.409.388.451.388.477.348.498.343.518.303.54.302.54.261.561.214.562.195.561.172.563.108.561.108.54.046.54.019.519-.019.495-.046.476-.086.432-.13.41-.172.39-.195.345-.214.324M455.598 829.787l-.175.108-.173.087-.15.064-.13.065-.151.066-.13.042-.109.022h-.214l-.086-.022-.065-.042-.088-.044-.063-.064-.044-.066-.064-.108-.045-.108-.021-.107-.022-.15-.02-.131-.021-.153-.024-.171v-.368l.024-.172v-.217l.021-.216.02-.216.043-.216.045-.237.044-.216.04-.238.044-.237.13-.39.133-.386.149-.391.107-.194.085-.174.108-.172.108-.172.13-.152.133-.129.127-.13.129-.129.132-.086.15-.088.149-.086.154-.065.15-.043.151-.042.173-.023.15-.02h.174l.153.02.15.023.173.042.281.131.259.15.238.174.108.129.107.127.11.154.082.151.067.151.042.172.046.173.02.174.022.173v.17l-.022.175-.042.194-.044.194-.064.195-.066.193-.107.175-.11.215-.129.215-.128.195-.152.195-.174.195-.151.172-.173.173-.194.193-.194.174-.192.15-.198.153-.192.15-.196.152-.194.13-.172.106-.172.109M343.362 891.433l-.172.107-.174.13-.15.151-.15.175-.153.194-.13.193-.128.217-.131.215-.084.216-.11.239-.088.237-.06.236-.091.239-.042.258-.065.238-.042.26-.042.237-.046.238-.02.216v.216l-.023.215v.54l.022.175v.171l.043.13.024.152.042.107.042.108.044.087.064.087.132.106.126.067.174.02.088-.02h.106l.11-.044.13-.043.127-.042.13-.044.134-.067.149-.085.127-.086.153-.086.15-.087.172-.108.151-.108.175-.108.149-.13.175-.129.171-.129.173-.152.151-.15.173-.152.303-.303.259-.302.26-.325.108-.193.13-.195.086-.172.086-.195.087-.194.044-.195.041-.196.043-.193v-.367l-.019-.172-.024-.173-.04-.175-.069-.17-.083-.153-.088-.152-.108-.15-.15-.151-.13-.13-.153-.106-.171-.109-.174-.066-.172-.085-.192-.044-.198-.044-.192-.02h-.218l-.194.02-.196.044-.193.064-.195.087-.194.108" style="fill:none;stroke:red;stroke-width:.999997;stroke-linecap:round;stroke-linejoin:round;stroke-miterlimit:4;stroke-dasharray:none;stroke-opacity:1;visibility:visible"/><path d="m346.516 877.502-22.506 13.435M459.203 810.28l-97.416 58.106M347.768 894.846l-10.606 6.372M467 823.286 362.996 885.71M463.242 808.058l-3.175 1.9M470.865 820.8l-3.174 1.903M467.584 808.685l-.41-.259M472.377 816.654v.496M459.203 810.28l.259-.15.302-.108.303-.065M467.692 822.702l-.216.216-.24.216-.236.15M467.173 808.425h-.041M470.865 820.8l.283-.214.257-.239.238-.28.216-.326.173-.366.13-.388.11-.412.084-.453.024-.475v-.497M467.13 808.425l-.431-.239-.43-.193-.414-.15-.429-.09-.412-.063-.39-.02-.364.04-.371.067-.342.13-.305.15M467.584 808.685l.412.258.408.28.412.347.388.345.367.39.369.432.342.43.326.476.302.475.281.497.258.496.221.52.19.52.175.515.13.497.106.52.065.495.044.477" style="fill:none;stroke:red;stroke-width:1.99999;stroke-linecap:round;stroke-linejoin:round;stroke-miterlimit:4;stroke-dasharray:none;stroke-opacity:1;visibility:visible"/><path d="m317.9 702.478-.321-.108-.325-.15-.325-.195-.346-.237-.302-.282-.324-.302-.303-.346-.28-.366-.26-.39-.237-.388-.217-.432-.194-.432-.15-.432-.128-.433-.088-.41-.045-.409M314.055 697.165l-.021-.39v-.345l.045-.324.063-.324.108-.28.13-.239M455.86 762.418l-.324.475-.322.497-.304.498-.282.518-.28.518-.26.518-.237.54-.237.54-.195.54-.195.519-.17.539-.154.54-.15.54-.108.54-.087.52-.087.518-.041.518-.043.497-.024.496v.476l.044.475.043.454.065.432.088.43.084.413.13.388.153.367.149.368.196.324.194.302.216.302.237.26.239.237.258.216.28.195.282.172M270.143 678.741l-.193-.108-.195-.13-.215-.15-.239-.151-.215-.175-.239-.193-.216-.194-.237-.195-.216-.215-.216-.238-.193-.216-.196-.238-.193-.238-.174-.26-.172-.258-.15-.28-.132-.261-.107-.259-.086-.258-.088-.26-.065-.259-.043-.237-.021-.238-.021-.26.021-.237.021-.237.043-.216.044-.238.087-.194.085-.216.108-.174.13-.172.11-.152.129-.129.128-.13.154-.085.149-.109.15-.087.175-.064.172-.044.173-.02.173-.023h.193l.173.022.174.021.173.066.172.065.15.064.175.109.149.107.155.13.149.15.149.153.133.172.13.194.126.194.109.216.131.195.085.237.108.216.087.238.087.238.088.238.084.237.065.281.087.282.064.28.065.28.043.281.045.261.044.258.041.258.023.26.02.238.023.216.02.237v.605l-.02.172-.023.174-.043.172-.041.131-.067.129-.065.108-.065.065-.084.064-.11.065-.105.022-.133.021-.13-.021-.15-.022-.174-.044-.173-.064-.172-.086-.195-.088" style="fill:none;stroke:red;stroke-width:.999997;stroke-linecap:round;stroke-linejoin:round;stroke-miterlimit:4;stroke-dasharray:none;stroke-opacity:1;visibility:visible"/><path d="m312.242 698.16.043.28.042.26.09.28.083.281.13.281.132.282.15.28.173.28.174.26.192.236.196.238.194.238.214.217.218.237.237.194.237.216.216.173.197.152.215.15.216.152.194.129.195.108.173.086.173.087.17.065.174.064.153.044.127.022.13.021.132-.021.108-.022.107-.02.086-.046.065-.064.065-.064.067-.087.039-.108.045-.108.041-.13.047-.149.018-.153.025-.173v-.778l-.025-.216-.02-.216-.02-.237-.025-.237-.042-.238-.043-.26-.041-.258-.066-.259-.065-.259-.065-.26-.066-.258-.085-.26-.065-.26-.087-.238-.087-.237-.108-.237-.108-.216-.107-.238-.107-.236-.151-.217-.13-.217-.152-.194-.151-.172-.172-.173-.152-.152-.175-.13-.17-.128-.195-.087-.175-.087-.19-.043-.197-.044-.193-.02h-.173l-.197.019-.215.045-.215.064-.196.087-.17.109-.174.13-.173.15-.152.151-.13.195-.13.194-.106.238-.086.216-.066.258-.041.26-.024.26-.023.259.023.259M185.946 794.603l-.496.238-.476.281M185.946 794.603l.584-.237.606-.216.604-.152.606-.108.604-.043h.603l.584.043.583.087.564.13.56.193M468.733 766.285v.021M464.067 774.838h0M466.51 757.192l-.306-.152-.322-.13-.325-.084-.345-.066-.344-.043-.37-.023h-.365l-.389.044-.388.064-.39.088-.411.107-.408.152-.327.13-.342.149-.348.174-.322.172M460.807 757.774l-.303.174-.41.258-.411.282-.408.324-.412.324-.413.344-.387.368-.39.389-.365.41-.389.411-.347.454-.366.453-.346.453M271.657 676.344l.065.021.085.043M271.871 677.964l-.28-.15-.301-.218-.28-.238-.304-.28-.281-.324-.258-.346-.261-.368-.236-.387-.216-.41-.196-.433-.172-.432-.15-.41-.111-.432-.086-.432-.062-.41-.023-.391v-.366l.043-.345.065-.324.108-.282" style="fill:none;stroke:red;stroke-width:.999997;stroke-linecap:round;stroke-linejoin:round;stroke-miterlimit:4;stroke-dasharray:none;stroke-opacity:1;visibility:visible"/><path d="m184.976 795.12-.563.347-.519.389-.516.43-.496.476-.477.498-.455.54-.408.561-.39.584-.367.604-.325.626-.3.648-.262.67-.234.69-.198.671-.15.69-.107.715-.089.689-.018.694v.688l.042.671.065.669.128.647.153.649.194.605.238.583.282.561.3.542.326.496.366.476.388.43.432.411.453.347.476.322.497.261.518.237" style="fill:none;stroke:red;stroke-width:.999997;stroke-linecap:round;stroke-linejoin:round;stroke-miterlimit:4;stroke-dasharray:none;stroke-opacity:1;visibility:visible"/><path d="m177.674 794.947-.257.043-.281.043-.304.022-.324.022-.303.021h-.301l-.304-.021-.28-.022-.26-.044-.214-.041-.196-.044-.171-.044-.129-.064-.111-.087-.064-.065-.022-.064v-.087l.045-.065.084-.064.088-.065.15-.066.15-.064.199-.044.191-.064.216-.043.24-.02.257-.046.261-.019.258-.025h.756l.26.024.261.043.213.021.216.065.15.043.155.065.127.064.064.066.043.086v.087l-.019.064-.09.087-.149.085-.174.088-.192.064-.239.065M166.313 790.953l-.281.043-.28.042-.303.044-.303.022h-.604l-.304-.022-.3-.021-.238-.022-.215-.043-.197-.044-.17-.064-.13-.066-.11-.064-.064-.064-.022-.087.022-.065.023-.064.085-.065.108-.087.129-.065.151-.064.196-.044.194-.043.216-.065.238-.021.258-.044.26-.02.258-.022h.756l.262.022.258.02.215.044.195.043.172.064.152.045.108.063.085.088.044.064v.087l-.044.086-.085.086-.131.087-.172.065-.216.086-.216.065" style="fill:none;stroke:red;stroke-width:.666665;stroke-linecap:round;stroke-linejoin:round;stroke-miterlimit:4;stroke-dasharray:none;stroke-opacity:1;visibility:visible"/><path d="M315.18 909.082v-.756l-.024-.28-.019-.281-.041-.282-.046-.301-.064-.303-.064-.302-.065-.282-.088-.28-.084-.281-.088-.281-.11-.28-.127-.283-.13-.257-.131-.238-.152-.215-.15-.217-.15-.193-.173-.175-.172-.172-.175-.13-.173-.127-.192-.111-.196-.085-.193-.087-.218-.043-.194-.043-.195-.02-.216.02-.193.02-.172.023-.151.065-.154.042-.15.087-.15.086-.13.109-.131.108-.129.129-.106.15-.089.154-.085.173-.065.15-.043.194-.043.173-.022.194-.023.195v.194l.023.195.042.192.043.217.045.216.084.218.09.214.084.216.108.216.132.216.105.217.151.194.133.216.148.195.15.194.156.194.192.216.195.194.17.195.197.195.193.194.196.173.192.173.174.15.172.132.173.128.173.13.15.107.155.109.15.085.152.086.128.066.151.043.132.044.126.02.108-.019h.11l.088-.045.084-.064.088-.066.065-.108.064-.108.044-.15.065-.151.019-.173.043-.195.022-.216v-.216M299.26 887.785l-3.712-2.83-3.697-2.808-3.649-2.786-3.63-2.766M473.895 1007.903l-.238-.173-.28-.13-.261-.129-.301-.108-.3-.065-.325-.043-.325-.021h-.325l-.343.021-.369.043-.365.065-.37.108-.365.108-.391.15-.387.175-.39.194-.39.216-.386.216M467.783 1008.528l-.39.259-.41.281-.39.303-.387.324-.39.345-.388.346-.366.366-.366.39-.37.41-.366.411-.346.432-.346.453-.324.454-.322.453-.304.476-.282.475-.28.497-.278.475-.24.497-.238.519-.216.496-.214.497-.175.496-.172.497-.15.496-.132.498-.127.474-.088.498-.084.474-.067.455-.023.453-.018.432v.432l.018.41.023.413.067.387.084.368.088.345.109.345.127.324.152.282.172.28.173.237.172.217.216.194.195.194M349.716 922l-.193.517-.128.541-.11.54-.086.54-.02.54v.538l.019.564.065.54.088.518.109.518.15.475.192.475.198.454.238.432.28.39.281.345.301.301.323.24.324.214.37.151.386.11.389.085.391.043h.43l.412-.021.431-.066.431-.064.433-.108.434-.108.432-.15.43-.13.454-.174.474-.194.496-.194.498-.238.497-.216.476-.26.496-.237.475-.259.477-.26.495-.28.474-.302.455-.282.43-.28.221-.152.189-.129.199-.15.17-.131.345-.28.303-.282M304.335 888.28l.522-.128.538-.174.539-.172.561-.196.52-.193.498-.217.494-.215.498-.216.432-.216.412-.195.408-.216.368-.216.365-.196.325-.192.327-.216.3-.195.281-.216.282-.216.214-.194.216-.195.175-.216.149-.195.087-.193.067-.195M299.26 887.785v.02h.026M152.746 790.197l-.021-.067v-.062l-.02-.067.02-.063v-.065l.045-.066M153.914 790.953l-.149-.065-.173-.066-.26-.106-.194-.11-.15-.128-.131-.13-.067-.064-.042-.087" style="fill:none;stroke:red;stroke-width:.999997;stroke-linecap:round;stroke-linejoin:round;stroke-miterlimit:4;stroke-dasharray:none;stroke-opacity:1;visibility:visible"/><path d="m311.702 902.775-.084.282-.09.323-.019.346v.367l.045.389.064.39.108.43.127.411.173.41.196.41.236.413.237.387.282.367.28.346.306.324.323.28.3.26.324.216.327.173.322.131M176.466 798.47l-2.03-.67-2.074-.668-3.822-1.275-3.5-1.167-3.435-1.145-1.836-.627-1.816-.604-2.028-.692-2.01-.67M176.466 798.47l.43-.345.454-.347.412-.303.454-.322.389-.283.432-.279.408-.281.215-.13.238-.151.282-.172.28-.174.306-.173.299-.193.37-.195.388-.195.389-.216.408-.194M182.62 794.517l.26-.13.237-.107.24-.109.213-.086.24-.108.258-.108M184.068 793.867l.24-.086.234-.087.195-.084.193-.067.22-.065.235-.085M284.573 876.597l-.195-.172-.195-.175-.193-.193-.172-.217-.132-.215-.15-.216-.129-.239-.108-.259-.196-.453-.152-.498-.106-.495-.066-.498-.042-.561v-.54l.042-.583.044-.302.044-.303M353.282 931.071l-.455-.216-.432-.215-.388-.238M352.007 930.402l-.365-.282-.348-.3-.304-.327-.256-.323-.216-.346-.172-.344M183.96 814.237h0M475.493 1013.367v.021" style="fill:none;stroke:red;stroke-width:.999997;stroke-linecap:round;stroke-linejoin:round;stroke-miterlimit:4;stroke-dasharray:none;stroke-opacity:1;visibility:visible"/><path d="m282.845 873.442.085-.345.153-.347M279.8 684.961l19.545 202.91" style="fill:none;stroke:red;stroke-width:.999997;stroke-linecap:round;stroke-linejoin:round;stroke-miterlimit:4;stroke-dasharray:none;stroke-opacity:1;visibility:visible"/><path d="m185.386 793.393.432-.108.412-.108.366-.064.344-.066.306-.02.3-.025h.52l.258.024.236.044.24.064.217.064M169.486 787.56l1.407.52 1.424.54 2.656.97 2.441.887 2.44.885 2.614.972 2.917 1.059M461.13 1026.888l.086.043M152.77 789.808l.043-.087.065-.109.087-.083.108-.089.107-.086.129-.087.155-.085.149-.065.324-.15.345-.154.39-.129.41-.127.476-.132.495-.13.583-.15.606-.152M329.263 895.043l-.302-.237-.302-.216-.304-.24-.3-.215-.281-.214-.281-.195-.26-.196-.259-.193-.237-.152-.218-.172-.216-.173-.193-.151-.195-.151-.193-.152-.172-.13-.152-.149-.172-.131-.153-.152-.151-.129-.15-.108-.132-.13-.127-.107-.13-.108-.11-.087M191.844 794.3h0M461.216 1026.932l.259.173.261.151.282.108.28.108.3.065.325.043.324.022h.345l.346-.022.348-.043.363-.086.371-.087.343-.108.327-.13.341-.15.349-.173M475.32 1014.792l-.043.346-.042.368-.087.366-.085.368-.108.411-.108.41-.154.43-.15.412-.15.432-.197.41-.192.434-.196.409-.216.41-.237.41-.236.412-.262.389-.257.386-.26.391-.28.366-.28.368-.304.367-.301.323-.305.346-.3.304-.327.302-.323.28-.324.28-.324.261-.321.216-.326.236-.325.195-.324.173-.216.13M475.493 1013.367l.024-.087.02-.453.021-.432v-.843l-.041-.41-.065-.388-.067-.368-.085-.346-.13-.345-.13-.325-.152-.28-.148-.28-.173-.26-.198-.216-.214-.194-.216-.194M468.733 766.308l-.022.129-.043.13-.021.129-.044.131-.02.128M337.016 715.374l118.002 62.727M258.417 673.601l77.305 41.083M270.49 654.268l196.02 102.924M464.544 774.342l-.108.108-.086.108-.087.087-.108.108-.085.087M468.583 766.956l-.13.432-.128.452-.155.454-.15.454-.193.454-.195.454-.192.432-.22.432-.236.453-.238.41-.26.434-.277.409-.262.41M468.733 766.285l.108-.432.087-.453.085-.432.067-.432.041-.498.043-.518.023-.496v-.476l-.023-.454-.043-.474-.064-.432-.086-.432-.107-.411-.13-.39-.132-.365-.173-.346-.169-.347-.196-.301-.216-.303-.238-.259-.238-.26-.259-.216-.28-.193-.301-.173h-.025M270.49 654.268l-.257-.108-.263-.13-.257-.085-.283-.088-.28-.086-.3-.064-.304-.044-.303-.043-.302-.021-.323-.023h-.304l-.324.023-.323.02-.346.045-.323.064-.325.065-.603.15-.607.197-.605.236-.581.281-.604.324-.606.367-.605.39-.584.452-.519.433-.516.453-.477.497-.475.497-.454.518-.411.54-.39.54-.366.561-.345.563-.3.604-.305.582-.26.627-.237.627-.216.626-.173.627-.13.605-.106.67-.088.647-.021.647v.606l.041.582.067.584.129.584.152.56.108.303.107.281.13.302.151.281.152.26.15.259.176.237.191.237.197.24.193.214.216.194.216.195.237.173.239.151.238.153.236.15M337.016 715.374l-.256-.15-.24-.108-.196-.108-.192-.108-.196-.108-.216-.108M455.018 778.1l.022.023.324.129.323.131.323.085.346.065.367.043.37.022.364-.022.39-.022.39-.064.386-.108.413-.108.39-.13.344-.151.325-.15.344-.153.345-.194M465.947 772.636l-.303.389-.278.367-.304.368-.323.366-.196.216M460.786 777.496l.304-.172.409-.26.41-.282.39-.322.408-.326.346-.301.347-.303.323-.345.345-.347M283.275 874.911h0M365.658 924.332v.151l-.023.152-.043.13-.04.149-.09.131-.086.128-.108.131-.128.151-.15.152-.176.15-.214.197-.258.171M302.306 769.612l.324.237.28.281.26.323.237.367.196.39.15.41.132.454.084.476.044.496v.518l-.02.54-.066.54-.11.56-.149.565-.173.559-.217.562-.236.562M312.954 883.14l-17.841-190.035M279.647 838.147l3.631 36.763M279.647 838.147l-.042-.389-.042-.388-.065-.39-.088-.43-.084-.433-.09-.432-.126-.455-.108-.473-.153-.498-.151-.474-.173-.519-.175-.496-.172-.497-.215-.519-.217-.561-.259-.563-.257-.56-.261-.563-.28-.582-.302-.54-.28-.563-.346-.604-.367-.584-.347-.583M258.523 673.665l3.911 37.908 3.843 37.455 3.825 37 3.735 36.547M273.84 822.574l.04.367.067.346.064.303.086.323.173.54.196.517.257.521.151.279.173.28M365.658 924.332l-13.89-201.116M350.106 927.507l-15.336-213.32M350.408 929.451l-.064-.971M350.346 928.48l-.108-.324-.086-.324-.045-.324M157.912 803.89l26.048 10.347M189.016 793.198l2.828 1.102M213.227 831.949l247.903 194.94M365.594 923.403l108.346 84.543M329.263 895.043l19.612 15.315M312.889 882.277l11.384 8.877M226.578 814.929l55.015 42.941" style="fill:none;stroke:red;stroke-width:1.99999;stroke-linecap:round;stroke-linejoin:round;stroke-miterlimit:4;stroke-dasharray:none;stroke-opacity:1;visibility:visible"/><path d="M157.912 803.89h0l-.498-.195-.453-.237-.455-.258-.454-.28-.408-.306-.412-.323-.39-.345-.365-.366-.347-.41-.345-.411-.301-.413-.28-.452-.262-.474-.236-.475-.216-.498-.196-.497-.149-.519-.132-.517-.13-.563-.061-.54-.066-.56-.024-.563v-.582l.044-.563.064-.56.089-.585.127-.561.132-.518.172-.518.193-.498.219-.496M213.227 831.949l-1.297-1.015-1.293-.972-1.275-.972-1.272-.93-1.277-.928-1.276-.886-1.252-.864-1.275-.864-1.23-.82-1.251-.8-1.232-.756-1.21-.756-1.21-.735-1.145-.646-1.102-.627-1.124-.627-1.1-.581-1.081-.564-1.101-.54-1.06-.54-1.057-.496-1.059-.476-1.035-.453-1.036-.454-1.017-.41M191.844 794.3l1.404.563 1.425.583 1.405.627 1.424.646 1.428.671 1.424.69 1.426.736 1.447.734 1.447.777 1.447.823 1.446.819 1.448.864 1.468.864 1.447.908 1.448.928 1.47.95 1.447.972 1.469.995 1.466 1.015 1.45 1.035 1.49 1.08 1.47 1.103 1.468 1.102 1.47 1.144M467.762 1026.134l-.28.129-.282.13-.257.15-.281.131-.282.129M475.493 1013.388l-.022.259-.043.303-.043.28-.02.281-.045.281M157.24 787.993l.845-.173.429-.086.456-.086.409-.088.435-.086.431-.064.43-.065.41-.065.475-.064.497-.043.541-.065.282-.022.278-.021.303-.021.304-.024.605-.02h1.23l.326.02h.3l.304.025.3.019.282.023.28.043.304.043.3.043.283.044.261.042.257.064.239.066.236.064.217.064" style="fill:none;stroke:red;stroke-width:1.99999;stroke-linecap:round;stroke-linejoin:round;stroke-miterlimit:4;stroke-dasharray:none;stroke-opacity:1;visibility:visible"/><path d="m304.335 888.28-.473.13-.499.108-.473.065-.455.043-.41.021h-.41l-.389-.042-.367-.066-.388-.085-.37-.152-.191-.085-.197-.108-.193-.131-.174-.108" style="fill:none;stroke:red;stroke-width:.999997;stroke-linecap:round;stroke-linejoin:round;stroke-miterlimit:4;stroke-dasharray:none;stroke-opacity:1;visibility:visible"/><path d="m312.954 883.14.024.066v.064l-.024.043v.065l-.021.065-.023.064" style="fill:none;stroke:red;stroke-width:1.99999;stroke-linecap:round;stroke-linejoin:round;stroke-miterlimit:4;stroke-dasharray:none;stroke-opacity:1;visibility:visible"/><path d="M392.959 581.623h0M393.476 581.623l.172.085M393.907 581.773l7.25 4.024M390.3 587.152l.108.065M390.042 586.676h0M390.626 587.476l2.986 1.65M389.674 585.79l.346.866M391.878 581.795l1.058-.172M393.648 581.708h.044l.043.023h.044l.043.021h.042l.042.021M392.959 581.623h.13l.084-.023h.259l.046.023M392.935 581.623h.023M390.02 586.655h0l.022.021M390.3 587.152l-.042-.043-.042-.065-.045-.064-.044-.087-.043-.108-.042-.108M390.626 587.476l-.024-.021-.042-.045-.042-.042-.043-.043-.023-.044-.042-.064M389.674 585.79l-.086-.236-.045-.282v-.281l.023-.323.064-.324.109-.325.13-.323.151-.324.194-.303.194-.281.238-.259.237-.216.239-.193.258-.153.238-.107.258-.065M396.167 587.795l-6.316-3.483M398.83 586.455l-7.198-3.968M390.042 586.676v-.021h-.022v-.087l-.02-.043-.024-.065-.021-.13-.044-.128-.043-.152M287.73 638.539h0M288.249 638.539l.171.085M288.68 638.69l7.248 4.026M285.073 644.068l.107.065M284.813 643.593h0M285.397 644.392l2.986 1.65M284.446 642.708l.347.864M286.65 638.712l1.059-.172M288.42 638.625h.046l.039.023h.047l.042.021h.043l.04.022M287.73 638.539h.13l.084-.022h.259l.047.023M287.709 638.539h.021M284.793 643.572h0l.02.021M285.073 644.068l-.043-.043-.043-.065-.044-.064-.043-.087-.043-.108-.043-.108M285.397 644.392l-.024-.022-.043-.043-.04-.043-.044-.044-.023-.043-.042-.064M284.446 642.708l-.087-.238-.044-.281v-.281l.023-.323.065-.324.108-.325.13-.323.152-.323.193-.303.195-.282.237-.258.237-.217.239-.194.259-.152.237-.107.259-.065M290.94 644.71l-6.318-3.481M293.602 643.37l-7.196-3.966M284.813 643.593v-.021h-.023v-.087l-.02-.042-.023-.066-.02-.13-.045-.127-.043-.153M299.346 887.871l-.064-.065M498.345 606.268l-11.535 5.982M498.345 606.268l-11.534 5.982" style="fill:none;stroke:red;stroke-width:.999997;stroke-linecap:round;stroke-linejoin:round;stroke-miterlimit:4;stroke-dasharray:none;stroke-opacity:1;visibility:visible"/><path d="m347.038 684.438-3.131 8.424" style="fill:none;stroke:red;stroke-width:1.99999;stroke-linecap:round;stroke-linejoin:round;stroke-miterlimit:4;stroke-dasharray:none;stroke-opacity:1;visibility:visible"/><path d="m467 823.284-11.402 6.503M467 823.286l-11.402 6.501M337.162 901.218l6.2-9.785M347.768 894.846l-4.406-3.413" style="fill:none;stroke:red;stroke-width:.999997;stroke-linecap:round;stroke-linejoin:round;stroke-miterlimit:4;stroke-dasharray:none;stroke-opacity:1;visibility:visible"/><path d="m343.362 891.433 3.154-13.931M346.516 877.502l15.271-9.116M343.362 891.433l4.406 3.413M343.362 891.433l-6.2 9.785M347.768 894.846l15.228-9.136" style="fill:none;stroke:red;stroke-width:1.99999;stroke-linecap:round;stroke-linejoin:round;stroke-miterlimit:4;stroke-dasharray:none;stroke-opacity:1;visibility:visible"/><path d="m258.417 673.601 11.726 5.14M271.871 677.964l-1.728.776M314.055 697.166l-1.813.994M270.143 678.74l1.664-2.332M270.143 678.74l1.728-.776" style="fill:none;stroke:red;stroke-width:.999997;stroke-linecap:round;stroke-linejoin:round;stroke-miterlimit:4;stroke-dasharray:none;stroke-opacity:1;visibility:visible"/><path d="m185.386 793.393-7.712 1.554M185.385 793.393l-7.711 1.554M157.24 787.993l9.073 2.96M157.242 787.993l9.071 2.96" style="fill:none;stroke:red;stroke-width:.666665;stroke-linecap:round;stroke-linejoin:round;stroke-miterlimit:4;stroke-dasharray:none;stroke-opacity:1;visibility:visible"/><path d="m312.91 883.507-1.208 19.268" style="fill:none;stroke:red;stroke-width:.999997;stroke-linecap:round;stroke-linejoin:round;stroke-miterlimit:4;stroke-dasharray:none;stroke-opacity:1;visibility:visible"/><path d="m312.242 698.16-17.129-5.055M284.572 876.595l-2.979-18.725" style="fill:none;stroke:red;stroke-width:1.99999;stroke-linecap:round;stroke-linejoin:round;stroke-miterlimit:4;stroke-dasharray:none;stroke-opacity:1;visibility:visible"/><path d="m393.476 581.623 7.681 4.174M390.3 587.152l3.312 1.974M390.626 587.476l5.541.319M390.408 587.217l-.557-2.905M393.907 581.773l4.923 4.682M288.249 638.539l7.679 4.177M285.073 644.068l3.31 1.974M285.397 644.392l5.543.318M285.18 644.133l-.558-2.904M288.68 638.69l4.922 4.68" style="fill:none;stroke:red;stroke-width:.999997;stroke-linecap:round;stroke-linejoin:round;stroke-miterlimit:4;stroke-dasharray:none;stroke-opacity:1;visibility:visible"/><path d="M503.399 695.637h-.432l-.41-.021-.389-.043-.389-.065-.388-.108-.324-.13-.324-.129-.281-.173-.238-.174-.194-.193-.152-.195-.11-.216-.064-.238v-.215l.046-.216.085-.216.15-.216.174-.216.237-.173.26-.195.303-.15.345-.131.367-.108.367-.108.41-.064.412-.022.408-.022.412.022.411.043.39.065.387.086.346.108.324.152.281.152.259.172.194.194.172.195.108.216.066.216.022.237" style="fill:none;stroke:#00ff4a;stroke-width:.999997;stroke-linecap:round;stroke-linejoin:round;stroke-miterlimit:4;stroke-dasharray:none;stroke-opacity:1;visibility:visible"/><path d="m503.399 695.637.216-.021.239-.022.237-.021.216-.044.216-.021.193-.066.195-.042.195-.066.302-.128.282-.13.258-.174.216-.172.108-.108.087-.129.085-.108.066-.11.042-.127.043-.151.045-.13v-.109M395.572 758.061v-.216l-.065-.237-.108-.216-.172-.216-.195-.195-.261-.195-.279-.172-.324-.13-.345-.13-.391-.086-.388-.086-.41-.042h-.842l-.432.042-.41.066-.39.106-.388.108-.347.152-.301.151-.28.195-.239.193-.216.216-.15.217-.087.236-.065.216v.239l.044.237.108.216.15.216.195.216.237.195.26.15.324.153.346.129.366.108.411.065.41.066.411.02h.432" style="fill:none;stroke:#00ff4a;stroke-width:.999997;stroke-linecap:round;stroke-linejoin:round;stroke-miterlimit:4;stroke-dasharray:none;stroke-opacity:1;visibility:visible"/><path d="m392.181 760.048.237-.021.216-.022.238-.022.237-.043.216-.043.217-.044.194-.064.194-.065.324-.13.302-.15.26-.173.236-.195.109-.108.087-.108.086-.13.064-.107.066-.152.065-.128.02-.131.023-.15M365.094 757.975l14.883 9.115 12.202-7.042M395.572 758.061l3.812-2.207M436.353 734.452l67.045-38.815M506.64 693.758l11.599-6.717M384.34 780.137l.259-.173.237-.216.195-.28.172-.282.153-.346.108-.367.085-.41.042-.433.024-.453v-.497l-.044-.496-.087-.54-.108-.519-.15-.561-.174-.563-.193-.56-.238-.561-.238-.542-.282-.561-.301-.54-.324-.517-.345-.519-.368-.497-.367-.454-.39-.453-.387-.41-.414-.369-.408-.345-.41-.301-.411-.282M512.407 683.454h.065l.043.023.043.02.065.022.13.043.127.043.131.044M513.01 683.65h-.021l.021.021v.022l.023.021.042.044.066.043.064.044.062.042.09.043.065.043.061.022.067.043M513.551 684.038v.065l.023.043.02.043.042.065.066.043.044.065.064.065.065.043.043.043.065.022.043.043" style="fill:none;stroke:#00ff4a;stroke-width:.999997;stroke-linecap:round;stroke-linejoin:round;stroke-miterlimit:4;stroke-dasharray:none;stroke-opacity:1;visibility:visible"/><path d="M514.026 684.578v.043l.023.042v.066l.018.065.046.087.021.064.043.065.044.064.042.044.044.043.043.021.043.023M514.394 685.204v.173M513.551 684.038l-.97.583M513.01 683.65l-1.123.67M514.026 684.578l-.648.367M514.394 685.204l-.173.108M511.348 684.08l1.059-.627M510.98 683.93l.777-.475" style="fill:none;stroke:#00ff4a;stroke-width:.999997;stroke-linecap:round;stroke-linejoin:round;stroke-miterlimit:4;stroke-dasharray:none;stroke-opacity:1;visibility:visible"/><path d="m518.239 687.04.475.216.453.259.455.302.453.324.432.39.41.388.409.432.39.476.346.474.324.498.302.518.282.539.237.541.216.56.175.563.149.561.108.542.065.56.02.518v.54l-.042.496-.086.476-.108.475-.152.433-.194.41-.215.368-.263.345-.278.303-.324.258-.324.238M518.239 687.04l-17.13-7.344M489.684 687.775l2.355-1.599 2.31-1.597 2.29-1.62 2.244-1.62 2.226-1.643M379.934 750.977l4.773-2.397M424.918 727.38l1.876-1.052 4.516-2.615 6.167-3.624 4.988-2.872 4.925-2.894 4.883-2.918 4.816-2.914 4.796-2.918 4.75-2.957 4.688-2.939 4.666-2.958 4.6-2.98 4.557-2.983 4.537-2.98M365.094 757.975l3.027-1.361 3.001-1.383 2.98-1.403 2.937-1.426 2.895-1.426M365.937 767.608l-.843-9.633M381.013 779.682l.39.216.365.173.369.151.345.108.346.065.345.022h.324l.303-.064.281-.088.259-.128M381.013 779.682l-12.441-7.668M521.954 700.043l-71.69 41.71M411.655 764.24l-27.315 15.896M514.718 685.529l-.065-.281-.108-.259-.108-.26-.174-.236-.172-.239-.194-.194-.214-.172-.217-.152-.217-.108-.238-.066M511.758 683.454l-.065.023h-.13l-.064.02h-.044l-.042.022M511.866 683.411l.023-.023h.193l.108.023.108.023.108.02M513.01 683.562l-.604-.108M512.407 683.454h0M511.758 683.454l.108-.043M510.83 683.865l.581-.345" style="fill:none;stroke:#00ff4a;stroke-width:1.99999;stroke-linecap:round;stroke-linejoin:round;stroke-miterlimit:4;stroke-dasharray:none;stroke-opacity:1;visibility:visible"/><path d="m381.013 779.682-1.037-12.592" style="fill:none;stroke:#00ff4a;stroke-width:.999997;stroke-linecap:round;stroke-linejoin:round;stroke-miterlimit:4;stroke-dasharray:none;stroke-opacity:1;visibility:visible"/><path d="m395.572 758.061-10.865-9.481M395.572 758.061l16.083 6.179" style="fill:none;stroke:#00ff4a;stroke-width:1.99999;stroke-linecap:round;stroke-linejoin:round;stroke-miterlimit:4;stroke-dasharray:none;stroke-opacity:1;visibility:visible"/><path d="m314.055 697.166 12.68-13.312M343.362 891.433l5.513 18.925" style="fill:none;stroke:red;stroke-width:1.99999;stroke-linecap:round;stroke-linejoin:round;stroke-miterlimit:4;stroke-dasharray:none;stroke-opacity:1;visibility:visible"/><path d="m379.976 767.09-14.039.518M460.807 757.774l-10.543-16.022" style="fill:none;stroke:#00ff4a;stroke-width:1.99999;stroke-linecap:round;stroke-linejoin:round;stroke-miterlimit:4;stroke-dasharray:none;stroke-opacity:1;visibility:visible"/></svg>