<svg xmlns="http://www.w3.org/2000/svg" baseProfile="full" height="1122.52" preserveAspectRatio="xMinYMin meet" style="width:912px;height:1303px" width="793.701" xml:space="preserve"><path d="m182.057 672.437-.037.193-.02.191v.173l.02.172.037.154.039.153.057.155.057.134.096.135.099.133.133.135.154.096" style="fill:none;stroke:red;stroke-width:.999997;stroke-linecap:round;stroke-linejoin:round;stroke-miterlimit:4;stroke-dasharray:none;stroke-opacity:1;visibility:visible" visibility="hidden"/><path d="m182 675.99-.21.116-.253.057-.248.038-.268-.018-.289-.058-.287-.115-.306-.135-.29-.173-.289-.21-.288-.251-.267-.268-.25-.307-.23-.327-.213-.326-.173-.346-.154-.365-.114-.345-.095-.346-.059-.346v-.326l.02-.308.039-.286.095-.271.114-.21.154-.211.194-.154.21-.116.23-.077.251-.037h.268l.29.057.285.096.288.115.309.173.288.21.287.231.268.27.25.308.248.305.214.327" style="fill:none;stroke:red;stroke-width:.999997;stroke-linecap:round;stroke-linejoin:round;stroke-miterlimit:4;stroke-dasharray:none;stroke-opacity:1;visibility:visible" visibility="hidden"/><path d="m182 675.99.115-.077.094-.096.096-.095.099-.116.057-.135.076-.116.039-.152.057-.134.059-.288v-.596l-.059-.307-.04-.173-.056-.191-.06-.173-.073-.192-.079-.192-.096-.192-.114-.211-.096-.193M181.52 788.026l-.21-.327-.23-.308-.252-.286-.248-.271-.29-.23-.287-.211-.288-.172-.286-.135-.289-.096-.267-.057h-.27l-.25.018-.21.058-.211.116-.175.134-.154.191-.114.213-.097.248-.036.27-.021.288v.308l.057.326.079.344.132.346.134.346.174.327.21.325.232.308.23.307.269.268.268.25.288.211.29.174.289.134.285.115.288.057.252.039.268-.019.23-.058.21-.095M181.52 791.482l.096-.077.097-.076.096-.096.095-.115.057-.116.079-.115.037-.136.058-.133.038-.27.019-.269-.019-.288-.038-.306-.036-.172-.059-.174-.059-.173-.077-.173-.077-.191-.096-.193-.094-.191-.117-.192M181.462 803.712l.057-12.23M181.52 788.026l.021-2.996M181.635 760.665l.135-32.544M181.846 710.342l.153-34.353M182.02 672.36l.02-4.992M234.819 770.4l-14.148 10.77M201.603 795.686l-76.281 58.041M110.768 864.806l-22.483 17.088" style="fill:none;stroke:red;stroke-width:.999997;stroke-linecap:round;stroke-linejoin:round;stroke-miterlimit:4;stroke-dasharray:none;stroke-opacity:1;visibility:visible" visibility="hidden"/><path d="m121.272 905.644.019.173.017.172.04.174.076.153.077.153.076.154.115.116.115.134.137.096.133.096.134.056.153.078.156.038.17.039h.327l.172-.017.156-.04.154-.039.152-.076.153-.077.156-.096.132-.096.136-.115.115-.135.133-.153.116-.172.115-.175.096-.172.097-.192.096-.192.076-.212.117-.384.094-.382.076-.403.041-.195.017-.21.019-.191.021-.21.018-.193.021-.174v-.192l.019-.172v-.462l-.019-.134v-.134l-.021-.114-.018-.116-.021-.096-.019-.096-.017-.076-.041-.059-.038-.057-.076-.078-.097-.037h-.133l-.076.019-.096.038-.098.038-.094.058-.118.058-.114.077-.116.076-.132.097-.115.095-.137.096-.152.115-.134.136-.156.114-.153.154-.153.133-.154.155-.172.172-.172.173-.153.193-.175.172-.134.191-.152.173-.136.192-.116.192-.134.212-.096.192-.096.192-.076.211-.057.192-.04.192-.036.193v.191" style="fill:none;stroke:red;stroke-width:.666665;stroke-linecap:round;stroke-linejoin:round;stroke-miterlimit:4;stroke-dasharray:none;stroke-opacity:1;visibility:visible" visibility="hidden"/><path d="m124.439 761.487-.02.193v.442l-.019.229-.02.23-.018.25-.039.25-.037.23-.04.25-.056.249-.056.23-.059.231-.079.23-.077.213-.095.229-.096.212-.114.172-.096.192-.134.155-.117.153-.133.133-.135.135-.135.096-.154.097-.151.076-.153.058-.175.057-.152.039-.173.018h-.156l-.171-.018-.155-.039-.289-.076-.248-.135-.23-.173-.095-.115-.115-.116-.079-.114-.077-.134-.076-.136-.059-.153-.037-.153-.04-.155-.017-.153v-.172l.017-.154.02-.173.02-.173.057-.172.058-.174.057-.172.077-.172.098-.173.096-.173.114-.174.23-.325.249-.327.27-.308.154-.153.152-.173.153-.154.175-.152.152-.136.153-.133.156-.135.154-.116.132-.114.136-.096.136-.096.132-.096.136-.076.114-.059.115-.057.096-.039.096-.039.115-.018h.153l.079.018.057.039.037.057.058.078.037.077.04.115.019.116.018.133.02.153.019.155v.192l.02.172M119.715 731.712l-.21.115-.23.116-.232.114-.268.116-.25.115-.269.116-.289.095-.285.096-.27.077-.288.076-.269.057-.288.058-.27.04-.287.018-.268.019h-.519l-.25-.037-.23-.04-.23-.058-.213-.057-.192-.076-.192-.097-.173-.114-.17-.116-.155-.134-.135-.154-.115-.153-.114-.173-.079-.172-.075-.174-.04-.192-.037-.173-.02-.172v-.173l.02-.172.02-.174.037-.173.059-.172.076-.173.076-.174.115-.153.116-.153.136-.154.132-.134.153-.115.155-.135.174-.096.171-.096.192-.077.21-.076.213-.077.212-.058.23-.038.23-.038.23-.02h.25l.232-.02.248.02.23.02.25.019.229.039.23.037.253.039.248.077.268.057.252.076.229.078.25.077.21.096.212.096.21.095.193.077.172.096.153.097.155.095.153.116.117.096.115.095.095.097.096.115.057.114.039.116.038.115v.116l-.02.095-.018.134-.058.116-.076.115-.096.116-.114.133-.136.135-.154.116-.173.135-.19.113-.194.136" style="fill:none;stroke:red;stroke-width:.999997;stroke-linecap:round;stroke-linejoin:round;stroke-miterlimit:4;stroke-dasharray:none;stroke-opacity:1;visibility:visible" visibility="hidden"/><path d="m115.24 731.309.27-.115.267-.116.31-.076.325-.057.328-.04h.324l.327.04.326.037.288.096.288.096.252.135.211.153.19.154.135.192.095.193M114.705 732.863l-.096-.172-.057-.192-.022-.192.038-.173.058-.191.098-.173.152-.155.174-.153.19-.154" style="fill:none;stroke:red;stroke-width:.999997;stroke-linecap:round;stroke-linejoin:round;stroke-miterlimit:4;stroke-dasharray:none;stroke-opacity:1;visibility:visible" visibility="hidden"/><path d="M254.48 820.013h-.02" style="fill:none;stroke:red;stroke-width:1.99999;stroke-linecap:round;stroke-linejoin:round;stroke-miterlimit:4;stroke-dasharray:none;stroke-opacity:1;visibility:visible" visibility="hidden"/><path d="m258.935 766.253.02.173.017.172.04.154.039.173.076.153.076.135.096.135.115.114.116.115.136.096.114.077.152.058.138.038.15.039.154.019h.308l.153-.038.135-.038.154-.058.134-.077.134-.077.115-.096.135-.115.114-.116.116-.133.115-.154.096-.173.096-.172.096-.173.079-.192.074-.192.116-.366.078-.364.076-.384.038-.193.019-.19.039-.194.018-.19.02-.193v-.192l.022-.173v-.172l.016-.153v-.558l-.016-.134v-.096l-.022-.115-.02-.097-.018-.076-.019-.058-.02-.058-.076-.095-.077-.04-.116-.019-.058.019-.074.02-.098.02-.096.057-.096.038-.097.077-.113.059-.115.094-.115.076-.136.098-.116.116-.133.114-.155.115-.132.135-.156.134-.153.134-.153.173-.152.173-.175.172-.153.174-.135.173-.133.172-.134.192-.137.192-.115.192-.096.192-.094.192-.079.192-.057.21-.036.194-.039.172-.02.192" style="fill:none;stroke:red;stroke-width:.666665;stroke-linecap:round;stroke-linejoin:round;stroke-miterlimit:4;stroke-dasharray:none;stroke-opacity:1;visibility:visible" visibility="hidden"/><path d="M265.29 645.868v.195l-.02.189v.23l-.019.211-.018.231-.039.23-.02.231-.037.25-.04.23-.056.231-.04.21-.075.233-.057.209-.079.21-.096.213-.077.192-.095.173-.115.172-.117.153-.115.135-.114.135-.116.114-.134.096-.133.078-.153.077-.138.057-.152.04-.153.036h-.308l-.135-.018-.154-.039-.247-.096-.232-.135-.21-.172-.097-.097-.097-.115-.075-.133-.078-.116-.058-.153-.036-.135-.037-.153-.023-.154-.02-.154v-.154l.02-.153.023-.173.037-.152.036-.174.058-.172.078-.174.075-.172.097-.152.096-.175.095-.173.23-.307.233-.308.268-.288.136-.153.153-.152.152-.155.153-.135.135-.153.153-.115.136-.136.154-.094.114-.116.135-.076.113-.096.116-.076.115-.059.116-.057.095-.058.097-.037.096-.02.079-.02h.074l.058.02.057.037.059.04.037.056.04.078.017.077.04.115.019.117v.132l.02.153v.519M425.59 854.746l-.172-.077-.19-.059-.214-.037-.21-.02h-.23l-.25.02-.231.057-.268.057-.251.096-.268.115-.267.136-.269.153-.29.172-.267.192-.29.231-.288.23-.288.25-.286.27-.288.287-.29.307-.288.327-.269.345-.288.345-.265.366-.292.384-.248.384-.27.402-.249.404-.25.422-.25.441M85.04 680.314l-.059.21-.094.193-.115.173-.115.133-.153.096-.136.058-.173.02-.154-.02-.152-.058-.154-.076-.155-.114-.133-.136-.135-.172-.133-.212-.099-.211-.095-.23-.077-.211-.057-.231-.039-.25-.02-.229v-.461l.04-.212.037-.21.059-.174.079-.172.073-.153.099-.116.113-.115.115-.057.136-.059.136-.019.132.019.153.039.155.077.153.096.135.115.133.153.117.192.115.212.115.23.094.269.059.269.057.268.022.288v.288l-.022.25-.057.25M261.718 775.526l-.27.23-.307.231-.326.25-.346.23-.364.25-.383.249-.405.23-.42.231-.386.211-.404.193-.402.171-.406.173-.382.155-.4.153-.426.134-.421.116-.383.096-.385.058-.404.056-.383.039h-.385l-.365-.019-.384-.038-.346-.078-.345-.096-.344-.134-.31-.154-.306-.172-.288-.212-.288-.23-.248-.248-.25-.27-.25-.308-.23-.325-.21-.347-.175-.364-.173-.365-.135-.364-.132-.384-.096-.365-.098-.423-.058-.403-.037-.422-.02-.423.02-.403.037-.422.078-.384.096-.384M262.756 773.183l.095.153.077.174.019.153v.173l-.039.172-.076.174-.076.192-.136.192-.17.21-.194.231-.116.135-.133.116-.134.133-.153.135M237.642 781.9l.136-.059.132-.094.116-.116.115-.154.077-.172.076-.193.079-.21.036-.25.038-.248.039-.27.02-.269.019-.308v-.306l-.019-.327-.02-.345-.019-.366-.038-.402-.056-.404-.059-.422-.077-.424-.096-.46-.095-.46-.115-.461-.136-.461M296.988 812.314l.153.057.136.038.134.02.114.02.099-.02.096-.038.093-.058.079-.076.075-.096.058-.116.058-.135.038-.133.058-.174.018-.192.04-.192.019-.23.019-.25v-.557l-.019-.307-.019-.365-.02-.384-.057-.403-.057-.402M415.3 868.762l-.021.384v.365l.021.344.019.327.038.328.058.287.057.288.095.268.096.25.098.231.115.21.132.193.155.154.154.154.174.134.189.096" style="fill:none;stroke:red;stroke-width:.999997;stroke-linecap:round;stroke-linejoin:round;stroke-miterlimit:4;stroke-dasharray:none;stroke-opacity:1;visibility:visible" visibility="hidden"/><path d="m417.813 860.947-.23.423-.229.441-.213.441-.21.462-.191.441-.174.461-.193.462-.152.441-.155.46-.133.441-.136.443-.096.441-.115.423-.076.441-.076.404-.058.422-.038.384-.038.384M211.126 764.314l.193-.27.191-.249.23-.249.249-.23.23-.211.27-.194.252-.172.286-.173.248-.133.27-.116.288-.115.288-.116.289-.096.29-.076.305-.059.309-.057.343-.019.329-.018h.343l.326.037.367.057.344.078.345.116.346.153M218.518 762.432l-.461-.23M82.985 669.484l1.748 1.844 1.63 1.747 1.518 1.594 1.477 1.574 1.614 1.728 1.805 1.92" style="fill:none;stroke:red;stroke-width:.999997;stroke-linecap:round;stroke-linejoin:round;stroke-miterlimit:4;stroke-dasharray:none;stroke-opacity:1;visibility:visible" visibility="hidden"/><path d="m79.415 668.87.133-.095.154-.097.134-.096.155-.076.287-.097.156-.018.153-.04h.267l.288.02.289.078.29.096.153.076.153.077.15.095.155.116.172.114.156.154.172.154.154.154M213.084 762.835l.057-.19.079-.174M91.356 668.832l.02.02M245.053 1025.837l.152.135M88.4 885.772l-.02-.057-.037-.076" style="fill:none;stroke:red;stroke-width:.999997;stroke-linecap:round;stroke-linejoin:round;stroke-miterlimit:4;stroke-dasharray:none;stroke-opacity:1;visibility:visible" visibility="hidden"/><path d="m86.057 887.807.27-.153.23-.152.23-.155.23-.153.192-.154.173-.136.172-.133.154-.155.137-.114.115-.115.114-.135.095-.114.077-.116.076-.115.058-.096.037-.116.04-.115.019-.114.02-.096v-.115l-.02-.116-.019-.116-.057-.133-.058-.115M111.248 910.637l-.059.288-.057.288-.037.288-.02.288-.02.556.02.577.077.576.115.575.076.29.077.287.096.288.115.268.117.25.115.25.133.231.135.23.153.211.155.211.17.192.174.172.192.173.192.154.212.134.21.135.211.116.232.096.232.095.247.058.23.058.231.037.461.059.5.018.5-.037.498-.059.5-.076.5-.116.497-.133.5-.155.5-.153.497-.192.519-.212.499-.21.482-.211.478-.251.481-.23.23-.134.251-.115.21-.136.23-.133.211-.115.21-.136.194-.133.19-.115.174-.136.172-.114.173-.134.154-.116.156-.134.153-.115.115-.116.133-.133.115-.116.116-.135.094-.133.078-.115.078-.116.058-.115.038-.116.019-.114.019-.096.02-.116v-.095l-.02-.116-.038-.096-.038-.115-.058-.114-.057-.098M67.567 883.219l-10.33-7.66M243.958 1022.227v.653l.02.366.039.344.057.328.057.306.095.288.096.27.116.249.136.23.132.211.173.192.174.174M255.978 1007.75l-.153-.096-.152-.077-.156-.076-.174-.058-.229-.077-.248-.037h-.521l-.268.037-.288.039-.287.077-.29.115-.307.116-.307.133-.325.173-.308.192-.327.192-.324.23-.328.25-.325.27-.326.288-.329.306-.327.326-.305.326-.325.366-.308.364-.328.384-.307.384-.287.404-.289.421-.29.424-.287.441-.267.442-.25.461-.251.46-.248.461-.23.462-.21.46-.195.48-.19.461-.194.48-.153.461-.154.459-.133.461-.116.462-.116.441-.075.441-.078.423-.058.345-.038.347-.019.327-.02.305" style="fill:none;stroke:red;stroke-width:.999997;stroke-linecap:round;stroke-linejoin:round;stroke-miterlimit:4;stroke-dasharray:none;stroke-opacity:1;visibility:visible" visibility="hidden"/><path d="m248.547 1025.894-.02.02" style="fill:none;stroke:red;stroke-width:1.99999;stroke-linecap:round;stroke-linejoin:round;stroke-miterlimit:4;stroke-dasharray:none;stroke-opacity:1;visibility:visible" visibility="hidden"/><path d="M59.12 849.023h-.021v-.037h-.018" style="fill:none;stroke:red;stroke-width:.999997;stroke-linecap:round;stroke-linejoin:round;stroke-miterlimit:4;stroke-dasharray:none;stroke-opacity:1;visibility:visible" visibility="hidden"/><path d="m59.082 848.986.019.037.018.02h.02l-.02-.02v-.057l-.018-.037-.019-.078-.039-.076-.02-.077-.037-.096-.04-.077M58.946 848.525l.039.02h.04v-.04l.017-.037v-.039l-.017-.077v-.076l-.019-.078-.021-.077-.018-.095-.021-.077" style="fill:none;stroke:red;stroke-width:.999997;stroke-linecap:round;stroke-linejoin:round;stroke-miterlimit:4;stroke-dasharray:none;stroke-opacity:1;visibility:visible" visibility="hidden"/><path d="M58.946 847.95h.021l.039-.02.019-.019.038-.038.019-.039v-.077l.017-.056v-.174l-.017-.077v-.077l-.019-.076M59.062 847.295l.037-.02.022-.017.037-.02.039-.039.038-.039.019-.076M59.254 847.392l-.192-.096M59.235 848.083l-.29-.133M58.985 848.544l.232.115M59.12 849.043l.076.039M152.72 798.316v-.02l.057-.19.058-.211.06-.194.074-.19.098-.194.094-.192.096-.172.115-.192.116-.173.115-.153.136-.154v-.02" style="fill:none;stroke:red;stroke-width:.999997;stroke-linecap:round;stroke-linejoin:round;stroke-miterlimit:4;stroke-dasharray:none;stroke-opacity:1;visibility:visible" visibility="hidden"/><path d="M75.9 889.728 73 727.43" style="fill:none;stroke:red;stroke-width:1.99999;stroke-linecap:round;stroke-linejoin:round;stroke-miterlimit:4;stroke-dasharray:none;stroke-opacity:1;visibility:visible" visibility="hidden"/><path d="m152.644 799.335.036.095.079.077M157.212 803.059l5.03 3.13M151.319 806.687l5.03 3.13M161.475 806.208l.268.21.23.251.195.23.154.269.114.268.058.27.038.287-.021.268-.075.27-.097.268-.155.27-.19.23-.23.23-.268.211-.289.192-.325.153-.347.135-.365.116-.386.076-.4.057-.404.02-.405-.02-.403-.037-.402-.059-.383-.114-.367-.116-.346-.154-.326-.172M156.252 801.888l.096.21.115.194.116.172.153.192.155.153.153.135.172.115M156.022 802.617l-4.916 3.705M151.106 806.323l.02.096.039.097.076.095.076.076M156.215 795.743l.115-4.703M156.33 791.04v-.29l-.039-.267-.076-.231-.096-.21-.114-.154-.154-.135-.193-.096-.19-.038-.214-.019-.247.037-.252.078-.269.116-.268.153-.268.192-.29.23-.267.25-.268.288-.268.307-.232.325-.23.347-.21.365-.195.364-.172.364-.133.385-.115.346-.099.365-.037.327-.039.326M151.106 806.323l.288-11.559M154.946 795.398l.079-2.727" style="fill:none;stroke:red;stroke-width:.999997;stroke-linecap:round;stroke-linejoin:round;stroke-miterlimit:4;stroke-dasharray:none;stroke-opacity:1;visibility:visible" visibility="hidden"/><path d="M155.023 792.672v-.173l-.037-.154-.058-.134-.077-.096-.095-.078-.117-.037-.115-.02M156.252 802.233l.096-3.763" style="fill:none;stroke:red;stroke-width:.999997;stroke-linecap:round;stroke-linejoin:round;stroke-miterlimit:4;stroke-dasharray:none;stroke-opacity:1;visibility:visible" visibility="hidden"/><path d="m259.03 766.848.176.039.17-.019.191-.057.212-.078M260.433 763.526l-.06 2.747M261.777 762.604l-.021-.115-.038-.116M121.347 906.125l.152.037.156.02.19-.02.194-.057.19-.076M122.923 902.707l.019 2.784M124.4 901.862l-.036-.19-.06-.155" style="fill:none;stroke:red;stroke-width:.666665;stroke-linecap:round;stroke-linejoin:round;stroke-miterlimit:4;stroke-dasharray:none;stroke-opacity:1;visibility:visible" visibility="hidden"/><path d="m181.25 790.31.25.077.229.039h.23l.212-.039M180.54 789.926l.021-3.09M179.08 785.971l-.115.192-.057.21-.057.231-.02.25.02.288M88.189 855.206l5.05 3.207M88.189 855.206l-.077.039-.058.021M93.238 858.413l.347.25.305.269.288.286.232.288.19.327.157.328.116.325.073.346v.345l-.019.347-.074.345-.118.327-.172.325-.21.308-.251.307-.288.269-.308.25-.364.249-.383.21-.424.174-.441.173-.461.115-.46.096-.498.077-.482.037h-.499l-.5-.037-.477-.057-.482-.096M87.939 852.786l-.093.077M87.881 854.975l.153.116.154.115M87.978 861.043h0" style="fill:none;stroke:red;stroke-width:.999997;stroke-linecap:round;stroke-linejoin:round;stroke-miterlimit:4;stroke-dasharray:none;stroke-opacity:1;visibility:visible" visibility="hidden"/><path d="m90.84 861.561-.039.02-.193.057-.21.058-.193.038-.212.02-.23.018h-.42l-.214-.018-.21-.04-.212-.057-.19-.057-.194-.059-.076-.037M160.246 808.992h-.02l-.19.057-.193.058-.212.038-.21.019h-.635l-.21-.019-.21-.038-.193-.058-.192-.057-.192-.077-.076-.019M152.644 795.82h.036" style="fill:none;stroke:red;stroke-width:.999997;stroke-linecap:round;stroke-linejoin:round;stroke-miterlimit:4;stroke-dasharray:none;stroke-opacity:1;visibility:visible" visibility="hidden"/><path d="m169.5 718.253-.039-4.896-.077-4.953-.095-4.955-.136-4.992-.153-5.01-.19-5.031-.214-5.068-.247-5.068-.27-5.11M167.428 781.344l.135-1.824.114-1.843M168.944 754.003l.175-4.435.114-4.474.115-4.472.076-4.514M166.063 794.15l.347-2.515.289-2.534.268-2.574.248-2.572.21-2.61M194.02 657.447l-.29 45.253M193.616 720.441l-.305 46.368M193.155 791.194l-.057 9.157M159.631 798.97l-2.647 1.996M148.113 807.61l-23.023 17.26M110.462 835.833l-22.524 16.876M166.084 794.131l-6.453 4.839M201.873 771.302l12.153-9.177M238.084 781.574l-6.779 5.165M212.22 801.312l-86.802 66.337M110.923 878.727 96.1 890.055M124.574 754.81l1.19 158.688M109.52 746.822l1.767 167.366M110.557 747.379l.305.153.29.154.308.154.306.174.366.19.21.116.211.115M265.54 639.091l-.364 17.701M264.81 674.362l-2.076 100.03M251.33 634.292l-.576 31.756M250.449 683.673l-1.615 90.7M298.217 811.295 151.241 930.643M288.08 801.504 139.167 921.772M426.895 856.876l-.037-.115-.058-.288-.078-.269-.094-.25-.117-.23-.115-.21-.134-.193-.134-.173-.172-.153-.174-.135-.194-.115M427.205 858.68l.035.212.021.23.02.23.019.23v.307l-.019.327-.02.327-.037.326-.042.346-.057.345-.075.365-.078.366-.096.364-.095.365-.115.384-.114.364-.138.384-.15.385-.155.384-.153.364-.172.384-.195.366-.172.364-.19.364M79.069 683.135l-.153-.153-.136-.172-.268-.327-.211-.345-.21-.347-.213-.403-.096-.249-.116-.23M77.668 680.909l-.136-.347-.113-.364-.115-.365-.099-.384-.076-.345-.076-.364-.058-.347-.038-.364-.038-.327-.019-.325-.02-.328v-.633l.02-.326.019-.308.018-.306.038-.308.04-.327.057-.325.057-.307.06-.347.075-.345.172-.653M416.68 872.775l.193.095.191.058.21.039.213.019h.23l.25-.039.232-.037.268-.078.248-.096.269-.114.155-.078M82.063 686.227l-.557-.576-.499-.517-.461-.462-.442-.48-.498-.498-.538-.558M77.436 672.863l.117-.421.115-.404.115-.366.133-.364.116-.326.136-.308.132-.287.155-.288.076-.135.098-.153.094-.153.117-.155.115-.172.153-.155.152-.153.153-.153M425.225 866.764l-.21.364-.211.347-.212.345-.212.327-.231.326-.23.326-.23.308-.23.288-.25.288-.23.269-.249.25-.252.249-.228.212-.25.21-.25.211-.23.173-.192.135-.191.115-.172.116-.195.096M426.895 856.876l.057.364.059.367.057.345.076.364.056.365M134.797 708.096l.624.384 1.364.828 1.381.804 1.382.807 1.422.768 1.42.788 1.44.748 1.46.75M136.574 731.27l-1.65-.864-1.653-.865-1.632-.883-1.612-.903-1.593-.902-1.576-.94-1.555-.942-1.534-.958-1.518-.98-1.497-.999-1.481-.999-1.459-1.016-1.44-1.038-1.381-1.016-1.364-1.019-1.326-1.056-1.322-1.037-1.287-1.075-1.287-1.075-1.248-1.094-1.038-.903M145.29 713.971l17.357 8.716M193.5 738.182l55.47 27.86M262.774 772.973l162.814 81.773M136.574 731.27l7.103 3.59M159.229 742.713l9.945 5.01M193.366 759.954l14.093 7.124M237.317 782.15l45.964 23.233M296.988 812.314l119.693 60.461M91.376 668.851l7.43 7.47M79.415 668.87l.421-.325.423-.308.443-.287.461-.25.479-.25.478-.212.426-.173.44-.134.46-.134.441-.116.461-.076.463-.058.461-.02.44-.018.443.018.44.039.421.057.443.078.423.116.421.114.423.174.424.172.421.212.384.23.383.268.368.27.324.288.326.288M420.772 871.719l-.325.153-.328.172-.326.174-.326.153-.328.173M257.225 1011.36v-.479l-.02-.365-.037-.347-.058-.326-.057-.306-.076-.289-.116-.268-.097-.25-.132-.25-.155-.21-.155-.193-.173-.173M257.207 1012.819l-.019.288-.018.288-.042.307-.037.308-.056.364-.06.365-.093.384-.096.384-.098.384-.133.403-.135.385-.133.403-.156.402-.172.384-.172.404-.172.403-.195.384-.21.384-.21.384-.212.384-.229.384-.23.364-.253.347-.248.345-.252.345-.246.327-.252.307-.267.308-.27.288-.267.269-.27.268-.269.23-.268.231-.27.211-.269.21-.249.174-.344.21-.347.174M245.207 1025.971l.153.096.154.096.172.076.174.057.23.059.25.037.25.02.268-.02.289-.018.268-.058.287-.077.309-.115.248-.096.268-.114M139.337 921.888l.117.096.132.115.155.134.175.154.17.153.172.153.212.174.211.192.213.173.21.19.252.174.246.193.27.191.27.193.286.211.308.192.328.21.344.231.348.231.342.212.384.268.384.25.386.269.364.269M88.324 884.448l.364.23.328.211.305.211.308.212.307.212.347.248M57.238 875.559l-.096-.057M57.142 875.501l-.325.536-.326.557-.309.578-.288.556-.25.537-.23.519-.208.518-.196.518-.133.441-.135.443-.095.422-.078.422-.058.366-.057.383-.017.345v.346l.017.365.057.327.058.326.097.288.133.288.154.25.194.23.21.191" style="fill:none;stroke:red;stroke-width:1.99999;stroke-linecap:round;stroke-linejoin:round;stroke-miterlimit:4;stroke-dasharray:none;stroke-opacity:1;visibility:visible" visibility="hidden"/><path d="m256.15 1007.904-.172-.153" style="fill:none;stroke:red;stroke-width:.999997;stroke-linecap:round;stroke-linejoin:round;stroke-miterlimit:4;stroke-dasharray:none;stroke-opacity:1;visibility:visible" visibility="hidden"/><path d="m57.295 875.52-.057.039M257.225 1011.36v.577l-.02.287v.596M249.988 1025.203l-.29.135-.287.153-.306.133-.289.136-.268.135M90.282 885.772l20.87 15.361M125.743 911.884l13.593 10.004M145.616 926.516l110.361 81.235M55.356 885.254l189.85 140.717" style="fill:none;stroke:red;stroke-width:1.99999;stroke-linecap:round;stroke-linejoin:round;stroke-miterlimit:4;stroke-dasharray:none;stroke-opacity:1;visibility:visible" visibility="hidden"/><path d="m58.699 848.217-.06-.173-.057-.211-.019-.23.019-.25.038-.27.058-.267.078-.29.116-.286.134-.268.133-.271.175-.268M59.196 849.177l-.02-.019-.016-.038v-.02l-.021-.018-.02-.02v-.038M58.699 848.217l.42.807M56.433 741.33l.115.21M56.433 741.33l-.079-.192-.037-.23-.037-.25.016-.268.041-.288.075-.307M152.586 798.182l.059.077.076.058M156.022 795.61l-.268-.153M156.022 795.61l.136.096.132.097.096.114.097.134.076.135.058.153.041.192.036.192.021.211-.021.25-.02.25-.057.268-.058.193-.057.211-.076.192-.097.212-.096.19-.094.174-.117.173-.115.172-.173.211-.173.212-.188.172-.196.155-.21.153-.21.096-.154.077-.174.058-.172.038h-.326l-.156-.038-.133-.039-.136-.057-.288-.154M153.218 800.103l-.115-.096-.116-.097-.093-.114-.079-.154-.058-.154-.058-.173-.018-.192-.019-.23.019-.211.018-.192.02-.174M153.738 796.262l.135-.135.133-.133.136-.135.132-.116.153-.094.155-.078.133-.076.158-.058.152-.058.133-.02h.31l.131.04.155.058" style="fill:none;stroke:red;stroke-width:.999997;stroke-linecap:round;stroke-linejoin:round;stroke-miterlimit:4;stroke-dasharray:none;stroke-opacity:1;visibility:visible" visibility="hidden"/><path d="m59.523 800.083-.136-5.376-.152-5.415-.192-5.433-.23-5.472-.25-5.51-.288-5.53-.327-5.568-.345-5.607-.387-5.625-.42-5.664-.441-5.684M58.872 857.05l.21-5.012.193-5.03.132-5.089.136-5.106.096-5.146.057-5.184.02-5.202v-5.26l-.039-5.28-.057-5.3-.096-5.358M54.722 723.533l-.403-3.11-.402-3.11M56.355 739.2l-.268-3.09-.29-3.11-.325-3.15-.366-3.149-.384-3.168M57.89 870.22l.248-2.572.233-2.612.192-2.63.172-2.669.134-2.688M57.295 875.52l.307-2.65.288-2.65M86.039 734.362l2.324 151.486" style="fill:none;stroke:red;stroke-width:1.99999;stroke-linecap:round;stroke-linejoin:round;stroke-miterlimit:4;stroke-dasharray:none;stroke-opacity:1;visibility:visible" visibility="hidden"/><path d="M152.701 799.335h-.057M152.566 798.93v.153l.037.135.042.116M157.272 789.14v-.307l-.021-.308-.039-.268M165.162 806.88l.21.325.173.367.114.344.096.365.058.364v.367M158.039 802.444l7.124 4.436M165.813 809.433l-.036.384-.079.384-.134.384-.171.365-.213.364-.25.346-.308.326-.325.308-.364.287-.404.27-.443.249-.46.212-.5.192-.516.173-.518.133-.558.115-.557.059-.557.057h-.576l-.558-.02-.573-.057-.559-.076-.557-.116M149.475 809.337l7.123 4.435M156.963 800.698l.021.192.038.21.076.231.113.211.136.23.152.193.156.192.19.153.194.135M147.978 806.88l.019.23.038.231.058.248.117.251.115.25.153.249.173.249.19.21.194.214.21.172.23.153M156.963 800.698l.307-11.559M152.68 794.42l-.115 4.512M154.524 791.98l-.152.02-.173.076-.172.077-.195.134-.172.154-.172.191-.155.193-.153.231-.153.23-.116.23-.095.25-.057.23-.058.212-.021.21M156.56 787.469l.193.135.17.192.156.21.132.251M147.978 806.88l.29-11.559M148.38 794.303l-.057.347-.038.345-.02.327" style="fill:none;stroke:red;stroke-width:.999997;stroke-linecap:round;stroke-linejoin:round;stroke-miterlimit:4;stroke-dasharray:none;stroke-opacity:1;visibility:visible" visibility="hidden"/><path d="m156.118 787.2-.25-.135-.269-.076-.286-.038h-.288l-.326.038-.346.096-.347.115-.364.173-.367.211-.362.23-.386.29-.382.305-.367.347-.363.364-.366.404-.344.423-.347.441-.308.46-.307.481-.286.479-.268.5-.252.499-.211.5-.19.498-.157.499M165.813 809.012v.421M156.118 787.2l.441.27" style="fill:none;stroke:red;stroke-width:.999997;stroke-linecap:round;stroke-linejoin:round;stroke-miterlimit:4;stroke-dasharray:none;stroke-opacity:1;visibility:visible" visibility="hidden"/><path d="M261.738 762.374v.02l.019.039M260.24 766.349l-.325-.173M259.914 766.176l-.02.02-.017.019v.018l-.022.02h-.018l-.018.019M259.606 766.81l-.173.095-.192.04-.155.037M259.78 766.733l.019-.02h.018M259.817 766.272v.441M260.373 766.272l.212-.23.192-.231.192-.27.172-.288.173-.306.135-.308.117-.326.094-.306.074-.308.06-.307.019-.27v-.267l-.036-.251M260.24 766.349l.133-.077M259.78 766.733l-.173.077M261.777 762.604l-.021-.172M124.342 901.497l.021.096.016.096M122.806 905.568l-.345-.173M122.462 905.394l-.021.02-.018.019-.018.038-.039.019-.021.02-.019.02M122.057 906.105l-.23.096-.211.057-.211.02M122.23 906.029l.037-.02.059-.037M122.327 905.53v.441M122.94 905.491l.23-.23.213-.269.21-.306.174-.308.172-.327.153-.327.116-.345.096-.327.076-.325.039-.308v-.288l-.019-.27M122.806 905.568l.136-.077M122.23 906.029l-.173.077M124.4 901.862l-.02-.173" style="fill:none;stroke:red;stroke-width:.666665;stroke-linecap:round;stroke-linejoin:round;stroke-miterlimit:4;stroke-dasharray:none;stroke-opacity:1;visibility:visible" visibility="hidden"/><path d="m180.944 789.792-.288.193M180.944 789.792l.057.039.039.038.057.039.04.019.056.038.058.038M178.832 786.988v-.556l.057-.25.079-.23M182.155 790.483l-.193.02-.192-.02-.194-.039-.21-.076M181.25 790.31l.115.059M181.25 790.31v-.307M178.851 787.142l-.02-.153M178.851 787.142l.059.288.076.307.114.308.135.306.172.308.193.307.211.268.232.25.247.231.25.211.118.059M88.056 841.19v-.307l-.039-.308-.04-.268M96.175 859.122l.193.327.171.346.116.346.099.345.036.345.021.366M89.035 854.553l7.14 4.57M96.81 861.618l-.039.404-.078.403-.115.386-.172.383-.212.383-.248.365-.31.347-.323.325-.386.31-.404.266-.441.27-.461.229-.499.212-.517.172-.539.153-.557.117-.574.095-.578.04-.575.017h-.576l-.577-.057-.574-.076M87.939 852.786l.117-11.596M87.939 852.786l.021.193.036.211.079.23.113.23.135.212.153.21.175.193.192.154.19.134M87.65 839.827l.173.23.154.25M96.81 861.197v.421M87.919 857.971h.02l.228-.135.252-.096.268-.096.21-.037.214-.04.21-.019.233-.018.21.018.21.019.21.02.212.037.212.059.191.077.195.076.189.096.173.096.154.115.156.135.132.134.116.154.114.154.078.154.076.173.058.19.019.174.02.192v.27M92.28 859.872l-.021.21-.058.193-.057.192-.113.192-.115.173-.156.153-.173.174-.192.134-.23.134-.173.077-.152.057M88.246 861.504l-.115-.037-.153-.079M156.446 806.957l-.021.268M156.446 806.957l.019-.193.038-.211.076-.173.076-.191.115-.173.135-.154.174-.153.172-.155.211-.114.232-.116.25-.115.249-.076.212-.037.21-.02.21-.02.23-.019.211.019.21.02.213.02.213.056.19.057.193.057.192.098.173.097.172.093.152.116.155.135.134.133.115.135.096.153.077.154.078.173.038.173.038.192v.46M161.707 807.379l-.021.193-.058.191-.074.192-.096.173-.115.172-.155.155-.174.133-.19.135-.232.135-.172.076-.174.058M157.712 808.896l-.116-.057-.172-.096-.152-.096-.153-.115-.138-.116-.133-.115-.096-.134-.096-.154-.077-.136-.075-.153-.041-.152-.016-.172-.022-.175M288.08 801.504l.25-.192.269-.172.288-.173.288-.155.288-.153.308-.134.328-.116.325-.096.305-.096.327-.076.33-.057.325-.04.325-.017h.652l.327.037.308.057.288.058.269.077.268.096.268.116.27.133.251.154.228.173.23.192.213.192.212.212.19.23.193.249.172.25.174.268.154.27.152.306.134.308.135.326.115.306.116.328.094.327.098.325.096.307.076.384.096.365.06.384.074.384.058.384.04.364.038.366.019.365M218.539 762.432l4.088 2.016 4.09 1.996 4.053 1.977 4.049 1.979M218.518 762.432h.021M234.819 770.4l.193.116.191.115.192.116.192.152.327.289.306.307.25.325.23.347.231.365.193.384.191.403.153.444.174.477.153.48M191.35 803.462l-.363.268-.424.25-.421.233-.463.19-.498.174-.5.133-.519.116-.537.096-.538.057-.537.019h-.557l-.558-.039-.537-.057-.535-.076-.54-.135-.517-.134-.481-.174-.48-.192-.462-.23-.421-.248M193.097 800.351l-.02.384-.076.384-.115.365-.153.364-.193.367-.231.325-.288.327-.307.307-.365.288M181.462 803.712l-15.377-9.581" style="fill:none;stroke:red;stroke-width:.999997;stroke-linecap:round;stroke-linejoin:round;stroke-miterlimit:4;stroke-dasharray:none;stroke-opacity:1;visibility:visible" visibility="hidden"/><path d="m73 727.43.175.116.189.096.173.077.174.095.193.096.21.135" style="fill:none;stroke:red;stroke-width:1.99999;stroke-linecap:round;stroke-linejoin:round;stroke-miterlimit:4;stroke-dasharray:none;stroke-opacity:1;visibility:visible" visibility="hidden"/><path d="m86.057 887.807-.384.25-.423.23-.441.25-.459.231-.442.232-.44.21-.462.19-.462.194-.442.173-.421.133-.405.135-.42.133-.404.098-.404.096-.422.077-.404.057-.442.038h-.422l-.422-.019-.422-.076-.21-.04-.232-.057-.211-.076-.21-.098-.194-.096-.192-.094-.19-.136-.173-.115M75.9 889.728l-2.055-1.613-2.074-1.632-2.092-1.631-2.112-1.633M61.596 878.784l-4.301-3.264M155.82 797.7l-.672.359.18.782M158.346 806.33l.647.492.65-.627M88.966 858.865l.688.562.687-.77M178.832 786.988l2.71-1.958M169.5 718.253l12.27 9.868M193.616 720.441l-11.77-10.099M238.084 781.574l-17.413-.403M191.349 803.462l10.254-7.776M110.768 864.806l14.554-11.079M125.418 867.65l-14.65-2.844M86.057 887.807l2.228-5.913M265.176 656.792l.114-10.924M265.54 639.091l-.25 6.777M77.436 672.863l7.604 7.451M77.436 672.864l7.604 7.45M91.376 668.851l1.401 11.04" style="fill:none;stroke:red;stroke-width:.999997;stroke-linecap:round;stroke-linejoin:round;stroke-miterlimit:4;stroke-dasharray:none;stroke-opacity:1;visibility:visible" visibility="hidden"/><path d="m258.935 766.253 1.498-2.727M122.327 905.971l.596-3.264" style="fill:none;stroke:red;stroke-width:.666665;stroke-linecap:round;stroke-linejoin:round;stroke-miterlimit:4;stroke-dasharray:none;stroke-opacity:1;visibility:visible" visibility="hidden"/><path d="m181.52 788.026-.959-1.19M152.701 799.335l-.057-3.515M152.644 799.335l.036-3.515" style="fill:none;stroke:red;stroke-width:.999997;stroke-linecap:round;stroke-linejoin:round;stroke-miterlimit:4;stroke-dasharray:none;stroke-opacity:1;visibility:visible" visibility="hidden"/><path d="m181.77 728.121-12.27-9.868M182.02 672.36l-13.941.81M178.832 786.988l-11.155-9.31M169.5 718.253l-.076 17.855M182.02 672.36l12-14.913M193.616 720.441l.115-17.74M181.846 710.342l11.77 10.099M181.25 790.31l11.905.884M110.462 835.833l14.628-10.963M125.09 824.87l-14.628 10.963M234.819 770.4l-3.514 16.34M110.768 864.806l14.65 2.843M125.418 867.65l-14.495 11.077M86.057 887.807l10.043 2.248M122.327 905.53l3.438 7.968M122.327 905.53l-11.04 8.658M265.29 645.868l.25-6.777M265.29 645.868l-.114 10.924M250.754 666.048l14.056 8.314M259.817 766.272l2.917 8.12M265.29 645.868l-13.96-11.576M264.81 674.362l-14.056-8.314M250.754 666.048l-.305 17.625M259.817 766.272l-10.983 8.1M288.08 801.504l10.137 9.791M82.985 669.484l-.922 16.743M259.915 766.176l-10.944-.134M159.229 742.713l-15.552-7.854M143.677 734.86l15.552 7.853M218.057 762.201l-10.598 4.877M296.988 812.314l-13.707-6.93M91.356 668.832l7.45 7.488M125.743 911.884l-14.592-10.75" style="fill:none;stroke:red;stroke-width:1.99999;stroke-linecap:round;stroke-linejoin:round;stroke-miterlimit:4;stroke-dasharray:none;stroke-opacity:1;visibility:visible" visibility="hidden"/><path d="m57.238 875.559 4.358 3.225M151.106 806.323l4.222-7.482M157.212 803.059l1.134 3.271M153.738 796.262l5.905 9.933M88.188 855.206l.778 3.659" style="fill:none;stroke:red;stroke-width:.999997;stroke-linecap:round;stroke-linejoin:round;stroke-miterlimit:4;stroke-dasharray:none;stroke-opacity:1;visibility:visible" visibility="hidden"/><path d="m249.545 821.126-.077-.039-.076-.057-.172-.115-.154-.116-.156-.134-.114-.134-.115-.116-.057-.077-.058-.076-.114-.172-.194-.308-.153-.347-.077-.17-.058-.194-.116-.384-.114-.461-.039-.23-.017-.23-.04-.288-.018-.288-.018-.288v-.307M247.606 816.595v-.327l.02-.364.017-.345.04-.365.058-.366.018-.192.039-.192.057-.382.076-.384.096-.386.099-.384.057-.192.058-.192.114-.402.134-.403.134-.384.134-.403.154-.385M248.912 810.547l.172-.404.175-.401.172-.386.19-.384.192-.384.214-.384.209-.384.21-.364.214-.345.212-.327.21-.326.231-.327.211-.307.23-.306.247-.308.231-.288.441-.5.231-.248.212-.231.25-.23.21-.211.232-.212.23-.192.231-.192.228-.192.231-.174.23-.153.211-.153.231-.135.23-.135.233-.114.248-.135.213-.096.228-.077.23-.095.231-.059.251-.057.115-.037.116-.02.212-.02.248-.019.057-.019h.252l.132.019.136.019.132.02.136.02.115.018.094.039.078.019.038.018.058.02.117.039.19.095M180.215 641.183l.136-.153.153-.152.19-.156.193-.134M83.6 709.21l31.028-18.683M118.39 688.262l118.35-71.25M299.484 637.113l-.461-.173-.442-.115-.441-.076-.42-.04h-.425l-.4.04-.404.076M300.886 637.881l-.347-.23-.345-.191-.364-.194-.347-.153M426.743 693.542l-.175-.076-.172-.077-.153-.096-.153-.134-.135-.116-.133-.134-.115-.154-.117-.153-.095-.153-.097-.174-.095-.172-.079-.193-.132-.384-.117-.441-.037-.231-.04-.25-.038-.267-.02-.268-.016-.308-.021-.174v-.48l.021-.325M424.824 688.781l.019-.443.038-.461.058-.441.077-.46.075-.48.057-.25.02-.134.037-.116.096-.442.135-.478.137-.482.075-.249.037-.135.04-.096.075-.23.079-.211.172-.479.077-.173.077-.212.095-.25.136-.287.115-.288.114-.25.096-.21.079-.174.21-.404.19-.402.097-.174.134-.21.23-.423.212-.365.231-.364.21-.327.251-.365.248-.344.252-.328.23-.307.133-.135.115-.153.269-.307.25-.268.25-.27.25-.23.287-.25.271-.248.287-.212.268-.192.269-.192.268-.154.268-.153.27-.116.287-.115.288-.077.27-.076.27-.04h.516l.252.04.23.076M80.97 558.163l.079.212.093.25.133.249.136.249.135.23.153.231.175.231.172.212.153.19.174.154.132.116.156.115.132.077.116.039.114.018h.096l.078-.038.038-.058.04-.096.018-.116v-.114l-.018-.154-.021-.173-.057-.172-.058-.192-.096-.192-.097-.212-.095-.21-.116-.211-.132-.192-.136-.194-.134-.19-.155-.194-.172-.192-.153-.153-.134-.133-.154-.116-.134-.075-.113-.06-.119-.039h-.114l-.078.039-.076.06-.038.093-.019.155.019.153.018.192.059.211M91.011 565.286l.076.21.119.25.112.25.136.25.152.23.154.25.172.21.172.231.156.174.172.153.134.135.153.096.136.076.133.057.096.02.096-.02.079-.037.036-.059.039-.076.021-.116v-.268l-.037-.173-.059-.174-.06-.192-.096-.19-.096-.212-.095-.211-.136-.212-.114-.192-.135-.192-.155-.19-.153-.193-.15-.192-.154-.154-.155-.134-.134-.116-.154-.077-.114-.076-.118-.02-.114-.019-.078.039-.076.076-.038.096-.019.135.019.153.02.192.057.212M75.478 549.676l-.135.02-.096.037-.094.039-.078.057-.076.078-.076.096" style="fill:none;stroke:#00ff4a;stroke-width:.999997;stroke-linecap:round;stroke-linejoin:round;stroke-miterlimit:4;stroke-dasharray:none;stroke-opacity:1;visibility:visible"/><path d="m76.88 550.272-.152-.096-.153-.095-.252-.154-.231-.116-.21-.076-.211-.039-.096-.02h-.098M240.06 629.568l.153-.135.136-.17.132-.194.115-.23.079-.231.078-.288.056-.307.056-.326.039-.327.019-.344v-.73l-.019-.385-.019-.404-.038-.421-.058-.423-.057-.48-.096-.48-.076-.481-.116-.479-.135-.518-.134-.519-.174-.499-.172-.481M236.662 616.973h0-.02M302.884 646.674l.019-.421v-.462l-.019-.478-.02-.482-.037-.5-.059-.498-.059-.499-.074-.519-.076-.46-.08-.461-.095-.441-.116-.423-.115-.423-.114-.404-.155-.421-.153-.384-.152-.364-.174-.347-.193-.325-.19-.308-.231-.288-.23-.27-.27-.249-.268-.212-.287-.19-.31-.154-.326-.134-.345-.096-.363-.058-.365-.038h-.386l-.364.018-.421.039-.424.076-.423.116-.401.115-.424.153-.404.173-.383.192-.365.192-.403.25-.384.269-.385.288-.343.307-.346.326-.326.366-.289.364-.268.384" style="fill:none;stroke:#00ff4a;stroke-width:.999997;stroke-linecap:round;stroke-linejoin:round;stroke-miterlimit:4;stroke-dasharray:none;stroke-opacity:1;visibility:visible"/><path d="m302.595 648.786.079-.325.074-.327.04-.327.039-.326.037-.364.02-.443M426.78 693.561h0-.019v-.02h-.017M213.488 613.075l.21-.23.231-.213.231-.21.248-.192.461-.327.231-.153.25-.154.5-.23.5-.211.517-.155.252-.076.246-.038.29-.059.268-.017.289-.02.267.02.29.017.306.04.27.076.286.077M236.644 616.973l-4.303-1.496-4.262-1.499-4.24-1.477-4.208-1.48M96.463 564.614l-1.764-1.305-1.787-1.306-3.304-2.438-3.052-2.228-2.974-2.188-1.615-1.152-1.575-1.171-1.765-1.287-1.75-1.266" style="fill:none;stroke:#00ff4a;stroke-width:.999997;stroke-linecap:round;stroke-linejoin:round;stroke-miterlimit:4;stroke-dasharray:none;stroke-opacity:1;visibility:visible"/><path d="m96.463 564.614-.037.519-.019.518-.021.499v2.13l.021.251v.288l.019.307.018.327.019.326.02.384.039.403.037.404.039.421M96.597 571.392l.039.25.04.25.017.23.04.211.019.23.057.249M96.81 572.812l.057.365.076.327.058.307.058.269.075.288.096.307" style="fill:none;stroke:#00ff4a;stroke-width:1.99999;stroke-linecap:round;stroke-linejoin:round;stroke-miterlimit:4;stroke-dasharray:none;stroke-opacity:1;visibility:visible"/><path d="m96.386 566.746-20.91-17.07M215.523 611.52l-.23.27-.193.325M112.035 562.195v.019" style="fill:none;stroke:#00ff4a;stroke-width:.999997;stroke-linecap:round;stroke-linejoin:round;stroke-miterlimit:4;stroke-dasharray:none;stroke-opacity:1;visibility:visible"/><path d="M88.092 546.452h.021M436.707 676.742l.021.02M254.462 820.013l-.25.193-.231.152-.23.154-.252.153-.229.116-.23.135-.114.037-.115.059-.194.076-.21.076-.193.077-.212.059-.19.057-.115.02h-.04l-.056.017-.172.02-.194.019-.19.02h-.33l-.114-.02-.115-.019-.113-.02-.099-.017-.115-.02-.074-.02-.175-.057-.192-.076-.173-.076M255.44 819.302l.25-.21.249-.194.25-.23.25-.229.232-.23.229-.251.23-.25.229-.249.193-.249.21-.25.195-.269.19-.269.384-.537.366-.576.172-.308.191-.327.173-.325.174-.327.173-.364.172-.384.175-.385.153-.364M61.962 697.842l-.21-.095-.211-.097-.212-.076-.23-.077-.23-.058-.252-.038-.231-.038-.247-.02h-.5l-.266.039-.254.019-.266.058-.252.058-.268.076-.248.077-.5.192-.462.23-.461.27-.46.307-.44.345-.461.384-.443.421-.443.462-.382.461-.367.48-.363.499-.328.518-.324.538-.288.557-.27.556-.25.557-.23.558-.192.594-.192.596-.174.595-.132.615-.117.614-.095.614-.057.614-.059.654v.633l.019.613.04.576.075.578.096.537.114.537.174.519.098.288.112.268.116.27.115.25.135.248.154.25.152.211.155.211.172.212.173.192.174.173.192.172.192.154.193.134.19.135.215.115M261.449 806.112v.21M259.49 801.542l.153.096.174.116.172.115.137.134.132.135.115.135.038.057.078.076.116.173.19.326.156.328.075.172.057.192.115.404.116.46.039.23.018.25.039.289.019.287.02.288v.308M260.28 812.525l.192-.48.172-.48.133-.423.136-.441.096-.404.095-.383.077-.384.076-.384.058-.404.057-.384.02-.441.021-.404M255.44 819.302l-.195.135-.189.153-.192.133-.19.155-.195.135M61.962 697.842 259.49 801.54M53.65 717.177l14.187 7.528M74.116 728.044l36.441 19.335M112.553 748.435l136.992 72.692M261.449 806.323l-.02.23v.711l-.016.25M178.62 630.068l-.268.019-.29.018-.267.039-.251.039-.499.134-.48.154-.268.116-.268.114-.289.134-.308.173M62.191 697.958l52.13-30.816M119.696 663.974l28.052-16.588 27.685-16.379M189.636 627.337l27.348-16.355M178.62 630.068l.595-.02.614-.019.615-.057M239.925 629.644 96.984 716.236" style="fill:none;stroke:#00ff4a;stroke-width:1.99999;stroke-linecap:round;stroke-linejoin:round;stroke-miterlimit:4;stroke-dasharray:none;stroke-opacity:1;visibility:visible"/><path d="m296.49 636.825-.307.115-.309.134-.288.155M297.199 636.384l-.708.441" style="fill:none;stroke:#00ff4a;stroke-width:.999997;stroke-linecap:round;stroke-linejoin:round;stroke-miterlimit:4;stroke-dasharray:none;stroke-opacity:1;visibility:visible"/><path d="m301.77 650.439-147.84 95.693M295.587 637.23l-156.94 100.876" style="fill:none;stroke:#00ff4a;stroke-width:1.99999;stroke-linecap:round;stroke-linejoin:round;stroke-miterlimit:4;stroke-dasharray:none;stroke-opacity:1;visibility:visible"/><path d="M434.902 674.266h.037l.02.02h.022M101.168 578.707h0" style="fill:none;stroke:#00ff4a;stroke-width:.999997;stroke-linecap:round;stroke-linejoin:round;stroke-miterlimit:4;stroke-dasharray:none;stroke-opacity:1;visibility:visible"/><path d="m257.8 636.48-.345-.115-.327-.114-.325-.116-.326-.134-.309-.097-.285-.115-.288-.113-.29-.099-.266-.093-.254-.097-.246-.078-.231-.096-.232-.057-.21-.077-.23-.076-.193-.058-.212-.057-.21-.059-.193-.057-.192-.057-.192-.058-.19-.058-.154-.038-.175-.057M88.092 546.452h0M74.923 550.003l-.039.096-.04.115-.038.116-.02.114-.038.27v.288l.022.306.036.307.06.347.076.345.097.384.113.403.134.48.156.48M430.006 692.736l-.325.21-.326.194-.289.153-.29.115-.249.096-.249.077-.248.058-.252.018-.248.02h-.23l-.27-.058-.25-.058M434.98 674.285l.23.095.21.136.175.133.173.155.152.172.153.192.115.192.115.212.117.248.115.272.096.306.076.344M97.233 574.675l.095.327.098.288.094.249.117.23.093.193.096.172.098.173.096.135.094.134.116.115.115.115.117.096M81.334 563.712l1.401.96 1.42.98 2.67 1.843 2.438 1.688 2.438 1.672 2.612 1.804 2.92 2.017M75.44 554.054l.25.73.114.365.156.384.115.364.153.346.133.366.172.384.156.344.172.365.192.423.23.441.117.23.132.231.136.23.132.25.29.48.154.231.153.23.172.249.154.25.174.231.172.23.191.23.173.212.174.21.173.213.21.229.194.212.19.192.211.192.192.172.194.153.17.155.194.133M431.33 691.814l.212-.153.23-.172.231-.194.23-.21.232-.211.229-.23.21-.25.233-.25.21-.249.191-.25.212-.268.193-.27.191-.268.192-.288.193-.308.19-.289.154-.287.154-.269.174-.287.132-.308.154-.288.154-.288.135-.308.136-.305.23-.597.229-.595.192-.615.193-.594.076-.326.077-.308.075-.326.059-.307.038-.308.058-.307.038-.288.022-.288.016-.326.02-.308v-.595l-.02-.288-.038-.268-.038-.27-.039-.249M137.207 595.737l-1.73-.576-1.687-.595-1.67-.614-1.67-.615-1.634-.633-1.632-.634-1.594-.653-1.592-.672-1.555-.652-1.555-.69-1.516-.693-1.52-.692-1.478-.709-1.498-.73-1.458-.749-1.459-.749-1.42-.768-1.403-.768-1.382-.787-1.362-.786-1.344-.807-1.308-.807-1.304-.825-1.266-.825M112.035 562.214l1.02.653 1.055.652 1.073.654 1.097.652 1.114.653 1.13.633 1.172.634 1.192.634 1.21.614 1.228.634 1.248.615 1.266.595 1.286.594 1.269.576 1.284.576 1.307.558 1.325.556 1.344.538 1.361.538 1.366.537 1.4.519 1.424.518 1.417.518 1.44.5 1.461.498M74.923 550.003l.23-.345.231-.327.247-.345.25-.308.269-.307.328-.365.346-.327.363-.325.384-.308.403-.288.405-.268.401-.231.426-.23.418-.193.443-.172.441-.173.442-.135.461-.096.463-.096.44-.057.442-.039.44-.018h.442l.462.018.44.058.444.057.478.116.461.135.461.153.46.192.442.21.442.231.364.231M143.523 576.864l38.092 12.73M187.511 591.57l247.39 82.694M137.207 595.737l45.41 15.341M186.263 612.307l18.2 6.163M239.08 630.163l12.845 4.34M257.8 636.48l25.536 8.621M300.868 651.034l125.912 42.528M88.113 546.452l23.921 15.744M98.462 576.902l2.705 1.805M436.728 676.762l.057.325.076.347.076.327.078.345.076.345M431.33 691.814l-.267.193-.27.191-.268.173-.27.192-.249.172" style="fill:none;stroke:#00ff4a;stroke-width:1.99999;stroke-linecap:round;stroke-linejoin:round;stroke-miterlimit:4;stroke-dasharray:none;stroke-opacity:1;visibility:visible"/><path d="m124.517 709.513.036.02.04.017M302.595 648.786l-.036.212-.059.21-.038.193-.058.153-.057.153-.057.135-.156.23-.075.117-.079.076-.094.097-.115.076M216.984 610.982l.037-.019.039-.018M236.662 616.973l.079.039M240.06 629.568h-.039l-.02.02-.018.019-.019.018h-.02l-.02.02M236.74 617.012l.401.152.192.097.172.115.327.23.31.25.267.27.248.306.215.308.21.325.21.364.193.386.172.442.172.459M240.08 629.53h0v.019h-.019v.018" style="fill:none;stroke:#00ff4a;stroke-width:.999997;stroke-linecap:round;stroke-linejoin:round;stroke-miterlimit:4;stroke-dasharray:none;stroke-opacity:1;visibility:visible"/><path d="m67.837 724.704 2.59 1.363 2.574 1.362M450.578 723.66l35.063 11.15 63.409 20.171" style="fill:none;stroke:#00ff4a;stroke-width:1.99999;stroke-linecap:round;stroke-linejoin:round;stroke-miterlimit:4;stroke-dasharray:none;stroke-opacity:1;visibility:visible"/><path d="M449.79 707.365a75.333 75.333 0 0 1 27.759-5.264c33.921 0 62.612 22.333 72.201 53.105a75.482 75.482 0 0 1 3.398 22.494 76.72 76.72 0 0 1-.23 5.936M189.636 627.337l-8.749 13.251M118.39 688.262l-3.762 2.265M114.628 690.527l3.762-2.265M75.442 554.054l5.528 4.109M75.44 554.054l5.53 4.109M97.23 574.675l-6.219-9.389M97.233 574.675l-6.222-9.389M215.523 611.52l-2.035 1.555M81.334 563.712l15.052 3.034M213.488 613.075l2.035-1.555" style="fill:none;stroke:#00ff4a;stroke-width:.999997;stroke-linecap:round;stroke-linejoin:round;stroke-miterlimit:4;stroke-dasharray:none;stroke-opacity:1;visibility:visible"/><path d="m73.001 727.43 1.115.614M112.553 748.435l-1.996-1.056M110.557 747.379l1.996 1.056M119.696 663.974l-5.374 3.168M114.322 667.142l5.374-3.168M175.433 631.007l14.203-3.67M187.511 591.57l-5.896-1.977M181.615 589.593l5.896 1.977M186.263 612.307l-3.647-1.229M182.616 611.078l3.647 1.229M219.63 611.021l-15.167 7.449M300.868 651.034l-17.532-5.933M299.484 637.113l1.384 13.921M74.116 728.044l-1.115-.615" style="fill:none;stroke:#00ff4a;stroke-width:1.99999;stroke-linecap:round;stroke-linejoin:round;stroke-miterlimit:4;stroke-dasharray:none;stroke-opacity:1;visibility:visible"/><path d="m122.327 905.971-11.079 4.666" style="fill:none;stroke:red;stroke-width:.999997;stroke-linecap:round;stroke-linejoin:round;stroke-miterlimit:4;stroke-dasharray:none;stroke-opacity:1;visibility:visible" visibility="hidden"/><path d="m119.715 731.712 18.932 6.394" style="fill:none;stroke:#00ff4a;stroke-width:1.99999;stroke-linecap:round;stroke-linejoin:round;stroke-miterlimit:4;stroke-dasharray:none;stroke-opacity:1;visibility:visible"/></svg>