<svg xmlns="http://www.w3.org/2000/svg" baseProfile="full" height="1122.52" preserveAspectRatio="xMinYMin meet" style="width:912px;height:1303px" width="793.701" xml:space="preserve"><path d="m101.721 283.634-.107.288-.13.29-.128.276-.143.266-.155.241-.153.235-.179.209-.189.185-.187.166-.205.143-.213.117-.226.085-.225.052-.228.04-.239.005-.24-.029-.24-.04-.277-.083-.276-.117-.279-.142-.265-.178-.255-.197-.258-.224-.232-.255-.223-.257-.203-.295-.189-.3-.167-.329-.146-.348-.124-.363-.1-.385-.055-.387-.032-.386" style="fill:none;stroke:red;stroke-width:1.33333;stroke-linecap:round;stroke-linejoin:round;stroke-miterlimit:4;stroke-dasharray:none;stroke-opacity:1;visibility:visible"/><path d="M95.453 281.918v-.397l.05-.391.079-.388.108-.38.138-.38.185-.37.207-.357.233-.348.252-.337.277-.327.29-.316.313-.28.313-.282.323-.246.325-.236.326-.225.314-.19.304-.181.314-.155.316-.155.305-.122.295-.109.293-.099.284-.062.261-.055.25-.037.228-.008.217.008.195.027.172.055.162.075.14.089.113.099.095.112.084.135.06.145.04.161.037.157.015.182.004.183-.005.194-.019.218-.028.228-.028.227-.05.255-.05.263-.062.273-.063.276-.073.3-.084.295" style="fill:none;stroke:red;stroke-width:1.33333;stroke-linecap:round;stroke-linejoin:round;stroke-miterlimit:4;stroke-dasharray:none;stroke-opacity:1;visibility:visible"/><path d="m59.439 370.991-.02.17.019.186.059.189.108.206.155.211.188.212.222.22.267.223.303.233.348.229.38.231.405.229.439.23.473.23.508.225.519.227.552.216.564.201.588.203.597.192.608.188.619.17.622.166.63.155.632.136.62.131.616.11.618.1.595.075.584.078.57.042.551.044.523.02.492.014.477-.013.446-.024.41-.044.384-.055.342-.077.304-.087.273-.097.224-.11.192-.128.155-.142.112-.15.064-.161M114.609 173.541l-.461-.183-.426-.196-.404-.17-.368-.186-.336-.174-.3-.164-.268-.166-.232-.152-.184-.156-.15-.144-.122-.122-.068-.124-.038-.124.01-.104M129.9 176.256l-.043.093-.09.092-.135.073-.169.062-.204.04-.249.038-.298.02-.32.018-.363-.015-.4-.01-.421-.027-.458-.044-.492-.056-.504-.067-.538-.08-.562-.087-.572-.102-.596-.11-.594-.122-.62-.134-.622-.144-.628-.157-.632-.153-.62-.17-.63-.166-.62-.18-.609-.176-.597-.192-.576-.19-.564-.193-.552-.192-.518-.192-.495-.193M127.589 161.022l-.773-.916M127.589 161.022l.759 11.466M166.377 132.764l-.263-.028-.273-.018-.284-.004-.287.02-.296.016-.282.032-.275.042-.248.05-.239.062-.202.074-.17.072-.136.074-.1.08-.068.084-.008.077.012.081.072.08.104.062.138.068.185.052.203.04.23.04.268.028.271.005.285.003.296-.007.286-.017.284-.043.27-.039.262-.053.226-.061.214-.064.17-.07.136-.086.1-.082.055-.08.021-.08-.024-.081-.06-.066-.117-.077-.135-.054-.173-.054-.207-.05-.241-.028M199.529 120.185l-.264-.017-.261-.016-.288-.005-.282.016-.284.021-.275.03-.272.039-.24.052-.225.052-.193.073-.17.06-.135.085-.09.069-.054.083-.01.079.024.07.07.076.106.067.149.053.171.053.208.052.23.028.259.027.265.005.286.006.286-.007.282-.03.275-.031.272-.04.248-.051.217-.05.204-.074.157-.063.136-.081.089-.072.055-.08.01-.082-.026-.066-.069-.079-.107-.066-.149-.052-.17-.055-.206-.039-.23-.04M143.952 147.416l-.263-.03-.284-.002-.287-.004-.298.005-.306.021-.284.04-.284.039-.261.055-.25.062-.203.074-.182.073-.145.083-.112.082-.055.094-.033.081.025.088.06.081.103.066.15.064.173.064.218.041.24.037.263.03.275.016.297.004.296-.008.307-.03.285-.03.284-.04.26-.063.25-.064.204-.073.179-.074.146-.084.1-.08.066-.084.022-.09-.012-.08-.074-.078-.102-.077-.138-.064-.185-.053-.205-.052-.24-.04M126.89 160.37l98.343-48.529M112.552 155.072l-.188.22-.144.222-.109.22-.061.217-.018.215.028.216.073.218.119.202.154.211.198.201.244.188.29.186.325.177.355.173.403.16.448.15.47.146.508.136.549.126.574.11.595.1.63.087M117.996 158.953l8.82 1.153M193.39 312.446l.018.25.052.264.086.258.13.26.167.248.211.245.236.244.278.235.312.229.35.211.37.205.414.207.426.185.46.171.483.157.507.136.529.139.535.109.552.103.572.076.57.065.582.044.583.03.584.008.578-.002.583-.026.57-.048.556-.059.546-.07.533-.094.522-.113.485-.127.477-.136.443-.159.417-.17.395-.182.36-.192.328-.212.289-.212.256-.223.223-.234.185-.245.147-.242.105-.254.075-.252.027-.253M215.593 131.766l-.363.158-.407.136-.429.136-.453.113-.475.113-.5.094-.523.081-.546.07-.557.057-.567.048-.584.026-.58.014-.592.004-.594-.008-.605-.03M217.351 129.992l-.028.194-.053.194-.099.196-.13.186-.158.186-.2.177-.225.165-.257.166-.281.164-.327.146" style="fill:none;stroke:red;stroke-width:.999997;stroke-linecap:round;stroke-linejoin:round;stroke-miterlimit:4;stroke-dasharray:none;stroke-opacity:1;visibility:visible"/><path d="m210.498 313.022-.027.365-.046.379-.07.368-.094.364-.118.359-.128.333-.152.333-.173.327-.185.31-.21.302-.22.28M211.191 294.445l4.439-118.503M215.837 170.302l1.513-40.31M193.39 312.446l.087-2.479M194.114 290.738l2.732-81.95M197.222 197.146l2.003-60.03M209.073 316.74l-.11.14-.147.116-.157.117-.189.12-.204.13-.248.11-.26.12-.27.109-.259.085-.262.087-.283.076-.295.075-.316.075-.33.066-.342.065-.351.067-.318.041-.329.042-.319.044-.341.029-.34.019-.357.032-.363.02-.362.009-.367.01-.353-.004-.341-.002-.343-.016-.353-.012-.344-.015-.352-.037-.356-.024-.364-.05-.358-.048-.332-.05-.318-.047-.323-.073-.31-.07-.297-.076-.288-.082-.286-.097-.264-.098-.242-.096-.22-.106-.196-.111-.186-.12-.163-.124-.14-.12M206.594 201.226l.017.239.007.24-.007.228-.028.24-.04.217-.041.208-.064.207-.087.207-.073.196-.1.185-.208.359-.253.348-.278.325-.166.164-.168.155-.166.138-.179.14-.204.132-.202.131-.214.119-.214.108M199.229 196.229l.147-.05.148-.046.148-.039.168-.028.17-.026.175-.003.18-.005.193.018.174.018.169.018.185.042.184.029.183.053.185.052.183.066.195.061.357.152.37.172.368.197.359.208.36.243.349.243.335.265.303.277.316.311.293.325.284.346.247.369.121.216.107.203.105.212.087.214.073.214.064.228.05.228.03.214M111.262 171.376l.054-.139.077-.127.088-.116.1-.082.112-.072.181-.095.18-.063.204-.05M129.392 175.118l.13.122.116.12.094.114.082.136.06.147.039.113.013.124.004.127-.031.136M112.258 170.632h.023l.047-.012.057-.014.076-.025.103-.037.113-.05.125-.068.155-.085.17-.117.19-.144M128.538 172.778l.003.092-.007.238.031.24.027.238.05.215.05.181.061.171.073.157.072.147.072.133.082.127.072.099.069.09.072.09.059.053.046.047.023.021M62.26 378.12l-.312-.235-.316-.252-.29-.266-.293-.29-.269-.302-.25-.325-.222-.325-.216-.348-.19-.372-.171-.371-.144-.375-.127-.394-.087-.396-.066-.4-.044-.407-.023-.412.013-.421.035-.422.059-.413.092-.401M77.774 375.597l-.074.25-.086.254-.094.253-.108.252-.12.244M77.774 375.597l23.884-91.343M102.996 279.146l26.904-102.89M59.439 370.991l51.823-199.615M77.293 376.85l-.088.15-.11.152-.142.162-.169.152-.188.164-.227.155-.236.142-.259.144-.233.12-.263.107-.28.121-.306.111-.316.11-.328.099-.352.099-.354.09-.328.074-.34.079-.34.065-.354.054-.372.055-.388.055-.386.044-.386.043-.399.033-.376.02-.375.02-.388.01-.388-.001h-.4l-.398-.016-.39-.012-.408-.021-.4-.041-.381-.034-.373-.048-.382-.06-.364-.07-.355-.072-.344-.082-.334-.085-.31-.095-.3-.105-.3-.119-.263-.117-.253-.13-.21-.119-.196-.136M113.656 170.35l.253.183.292.179.321.172.358.164.402.149.426.15.461.134.483.127.526.125.538.101.573.1.595.086M225.158 111.576l-8.36-.947-.627-.064-.641-.052-.664-.042-.672-.031-.694-.013-.698-.02-.707.007-.718.018-.707.017-.717.039-.716.041-.707.063-.704.063-.695.073-.693.085-.67.107-.65.097-.632.116-.626.132-.59.128-.567.139-.543.15-.52.163-.488.158-.463.173-.416.167-.396.18M199.877 112.525l-85.597 41.387-.372.192-.328.19-.3.191-.283.187-.233.202-.212.198M199.229 196.229l-84.565 38.319M203.926 205.512l-92.904 42.934M216.525 128.38l.082.078.176.18.151.179.13.187.098.158.068.16.052.158.039.17.026.17.004.171" style="fill:none;stroke:red;stroke-width:1.99999;stroke-linecap:round;stroke-linejoin:round;stroke-miterlimit:4;stroke-dasharray:none;stroke-opacity:1;visibility:visible"/><path d="m195.226 317.066-.246-.265-.224-.282-.224-.289-.176-.271-.167-.292-.157-.292-.144-.305-.12-.305-.1-.318-.099-.327-.066-.329-.053-.33-.041-.342-.01-.342-.006-.331M112.793 169.662l.861.688M111.794 155.865l.756-.793M112.034 168.472l-.79-11.384M225.74 123.741l.641-.688M225.158 111.576l.716.837M111.794 155.865l-.177.197-.141.208-.112.21-.075.208-.039.205-.006.195M112.034 168.472l.028.205.072.204.108.2.144.204.186.188.221.19M226.383 123.053l-.509-10.638M225.74 123.741l-98.048 49.47-8.809-1.191" style="fill:none;stroke:red;stroke-width:1.99999;stroke-linecap:round;stroke-linejoin:round;stroke-miterlimit:4;stroke-dasharray:none;stroke-opacity:1;visibility:visible"/><path d="m207.818 132.778-8.289-12.593M199.529 120.185l8.289 12.593" style="fill:none;stroke:red;stroke-width:.999997;stroke-linecap:round;stroke-linejoin:round;stroke-miterlimit:4;stroke-dasharray:none;stroke-opacity:1;visibility:visible"/><path d="m210.497 313.02.694-18.575M215.837 170.302l-.207 5.64M215.63 175.942l.207-5.64M194.114 290.738l-.637 19.229M193.477 309.967l.637-19.229M197.222 197.146l-.376 11.642M196.846 208.788l.376-11.642M217.351 129.991l-18.126 7.125" style="fill:none;stroke:red;stroke-width:1.99999;stroke-linecap:round;stroke-linejoin:round;stroke-miterlimit:4;stroke-dasharray:none;stroke-opacity:1;visibility:visible"/><path d="m256.751 314.742-.141.188-.159.141-.157.107-.157.059-.148.013-.15-.028-.137-.076-.117-.125-.096-.156-.086-.203-.05-.227-.028-.249.005-.261.025-.278.052-.272.074-.268.097-.25.119-.222.132-.205.144-.167.157-.117.157-.083.159-.038.15.008.136.053.128.1.119.145.083.169.061.214.052.24.007.261-.004.265-.04.273-.072.274-.085.254-.108.242-.123.219M254.462 309.6l-.244.404-.239.416-.208.449-.191.474-.173.483-.157.505-.124.504-.101.516-.08.529-.056.513-.02.513.001.501.021.491.056.465.083.455.1.42.136.395.145.374.179.327.19.29.212.258.233.211.254.176.254.118.276.086M257.471 307.791l-.261-.038-.273.006-.287.052-.28.087-.296.132-.281.179-.279.201-.281.245-.263.292-.255.316-.253.335" style="fill:none;stroke:#00ff4a;stroke-width:.999997;stroke-linecap:round;stroke-linejoin:round;stroke-miterlimit:4;stroke-dasharray:none;stroke-opacity:1;visibility:visible" visibility="hidden"/><path d="m257.471 307.791-126.125-26.396M255.009 319.473l-126.06-26.936M128.193 283.069l-.255.37-.228.393-.217.428-.195.45-.182.46-.147.483-.127.482-.089.492-.08.503-.045.49-.022.496.011.477.047.466.056.454.091.432.124.405.145.387.169.35.179.323.212.283.233.257.245.21.266.162.278.131.288.085M131.346 281.397l-.288-.039-.294-.004-.299.041-.293.087-.294.11-.302.165-.294.191-.28.236-.278.257-.278.304-.253.324M255.009 319.473l.274.037.297-.005.283-.055.294-.096.305-.144.293-.18.288-.236.28-.257.278-.303.266-.337.254-.372.241-.395.219-.427.204-.448.184-.472.169-.481.136-.496.125-.504.091-.516.076-.515.045-.504.022-.501-.013-.501-.033-.478-.057-.454-.08-.443-.1-.421-.135-.384-.158-.348-.167-.328-.2-.292-.21-.244-.223-.214-.256-.164-.252-.118-.279-.087" style="fill:none;stroke:#00ff4a;stroke-width:1.99999;stroke-linecap:round;stroke-linejoin:round;stroke-miterlimit:4;stroke-dasharray:none;stroke-opacity:1;visibility:visible" visibility="hidden"/><path d="m254.462 309.598 2.289 5.144M254.462 309.6l2.288 5.142" style="fill:none;stroke:#00ff4a;stroke-width:.999997;stroke-linecap:round;stroke-linejoin:round;stroke-miterlimit:4;stroke-dasharray:none;stroke-opacity:1;visibility:visible" visibility="hidden"/><path d="m361.246 197.285-.016.252-.04.264-.049.239-.088.242-.086.219-.107.197-.122.15-.135.129-.136.083-.133.05-.127.003-.127-.043-.105-.089-.104-.124-.084-.153-.063-.195-.038-.216-.019-.24.005-.25.02-.253.048-.264.076-.238.084-.232.098-.206.12-.176.122-.138.136-.107.135-.059.125-.026.126.02.126.065.108.097.08.148.076.183.06.203.028.228.006.237M357.578 198.768v.452l.03.436.046.432.066.398.08.384.11.362.124.34.142.305.156.27.178.245.174.213.211.165.21.143.217.087.231.064" style="fill:none;stroke:#9500ff;stroke-width:.999997;stroke-linecap:round;stroke-linejoin:round;stroke-miterlimit:4;stroke-dasharray:none;stroke-opacity:1;visibility:visible" visibility="hidden"/><path d="m361.348 192.152-.248-.018-.25.018-.25.074-.262.107-.255.157-.25.19-.243.233-.244.267-.232.302-.222.336-.205.372-.199.389-.18.418-.163.437-.138.46-.125.458-.112.48-.08.482-.055.491-.047.483-.01.48" style="fill:none;stroke:#9500ff;stroke-width:.999997;stroke-linecap:round;stroke-linejoin:round;stroke-miterlimit:4;stroke-dasharray:none;stroke-opacity:1;visibility:visible" visibility="hidden"/><path d="m361.348 192.152-121.946-19.635M359.554 203.065 237.707 182.97M235.52 178.816l.02.433.035.423.055.406.08.387.099.375.121.349.132.317.156.306.18.257.188.244.199.201.208.167.232.13.23.098.255.061M239.4 172.517l-.262-.027-.263.016-.272.064-.27.111-.258.13-.269.189-.256.212-.247.257-.242.29-.235.316-.206.346-.207.381-.174.392-.173.427-.136.424-.127.448-.1.459-.083.468-.058.471-.032.456-.012.467M359.554 203.065l.236.016.253-.017.25-.075.247-.097.246-.155.246-.176.248-.223.243-.268.221-.293.222-.323.208-.348.194-.378.186-.406.158-.426.148-.448.128-.462.102-.456.092-.48.066-.471.048-.481.02-.48.011-.453-.021-.457-.044-.444-.058-.422-.088-.408-.098-.372-.126-.35-.145-.316-.155-.296-.177-.254-.187-.214-.21-.178-.21-.142-.23-.108-.23-.051" style="fill:none;stroke:#9500ff;stroke-width:1.99999;stroke-linecap:round;stroke-linejoin:round;stroke-miterlimit:4;stroke-dasharray:none;stroke-opacity:1;visibility:visible" visibility="hidden"/><path d="m357.578 198.768 3.668-1.483M357.578 198.768l3.668-1.483" style="fill:none;stroke:#9500ff;stroke-width:.999997;stroke-linecap:round;stroke-linejoin:round;stroke-miterlimit:4;stroke-dasharray:none;stroke-opacity:1;visibility:visible" visibility="hidden"/></svg>