<svg xmlns="http://www.w3.org/2000/svg" baseProfile="full" height="1122.52" preserveAspectRatio="xMinYMin meet" style="width:912px;height:1303px" width="793.701" xml:space="preserve"><path d="m302.893 790.64.234-.193.213-.206.194-.223.165-.224M295.651 791.534l.37.039.349.03.37.019.379.02.319.009h.332l.331-.008.349-.013.313-.008.308-.03.303-.029.29-.029.284-.039.292-.04.29-.057.283-.058.3-.066.284-.07.26-.079.252-.078.273-.096.255-.098.222-.108.234-.105" style="fill:none;stroke:red;stroke-width:.999997;stroke-linecap:round;stroke-linejoin:round;stroke-miterlimit:4;stroke-dasharray:none;stroke-opacity:1;visibility:visible" visibility="hidden"/><path d="m302.893 790.64.26-.154.247-.157.202-.165.164-.175.136-.175.11-.186M290.963 789.037v.185l.03.176.071.184.106.175.137.173.164.168.204.165.232.164.264.146.3.147.32.145.342.125.38.12.387.105.418.1.43.083.446.069.457.068M314.594 793.558l-.104.036M380.818 768.928l.008.136-.028.145-.059.147-.108.136-.133.134-.175.136-.216.118-.243.125-.27.11-.304.095-.329.098-.35.077-.371.07-.397.065-.399.04-.418.038-.427.022-.437.018-.428-.01-.44-.008-.424-.031-.42-.039-.406-.058-.39-.058-.379-.078-.35-.086-.331-.097-.303-.108-.28-.108-.243-.127-.213-.125-.175-.136-.146-.137-.11-.136-.064-.146-.032-.145v-.147l.05-.136.078-.145.127-.135.155-.137.185-.127.223-.116.264-.116.28-.106.311-.1.339-.086.362-.08.38-.064.388-.051.408-.049.428-.028.416-.01.437-.012.431.01.427.024.426.026.41.048.397.058.39.07.358.078.35.087.32.096.292.108M293.007 802.733l-.417-.048-.42-.05-.397-.069-.38-.085-.36-.091-.329-.104-.311-.116-.275-.125-.25-.139-.206-.136-.182-.147-.138-.153-.108-.156-.067-.167-.029-.154.01-.166.049-.166.086-.154.128-.156.154-.154.194-.147.235-.137.263-.136.289-.127.323-.115.338-.098.37-.098.381-.077.409-.067.416-.058.427-.04.437-.028.439-.022h.437l.447.023.425.027.43.04.409.058.399.067.377.078.352.087.34.108.3.116.281.126.247.128.212.145.184.147.144.145.11.153.067.166.028.156-.01.166-.04.164-.082.156-.121.157-.164.155-.195.146-.223.145-.262.139-.293.124-.32.105-.34.11-.369.096-.389.078-.407.068-.419.059-.428.048-.438.027-.445.01h-.44l-.447-.009-.436-.028M220.963 786.938l-1.642-.117-1.634-.128-1.625-.135-1.612-.156-1.596-.164-1.584-.185-1.572-.185-1.547-.204-1.537-.224-1.514-.223-1.497-.245-1.478-.252-1.459-.271-1.439-.27-1.417-.295-1.391-.291-1.369-.31-1.341-.321-1.324-.331-1.292-.349-1.264-.35-1.244-.359-1.205-.381-1.186-.379-1.156-.387-1.128-.4-1.098-.408-1.06-.417-1.039-.428-1-.439-.973-.437-.934-.457-.905-.458-.875-.454-.836-.478-.806-.476-.767-.484-.73-.488-.699-.494-.669-.496-.626-.506-.59-.516-.556-.513-.515-.517-.487-.526-.447-.522-.406-.538-.372-.533-.338-.535-.292-.534-.262-.543-.224-.536-.186-.545-.145-.544-.116-.552-.067-.546-.04-.545M274.471 802.577l-.671-.563-.699-.564-.748-.556-.77-.552-.805-.536-.845-.535-.868-.525-.903-.515-.941-.505-.963-.496-1.003-.484-1.029-.485-1.05-.468-1.088-.459-1.118-.454-1.137-.439-1.167-.428-1.196-.418-1.215-.408-1.253-.4-1.263-.387-1.294-.37-1.323-.37-1.34-.345-1.361-.343-1.381-.331-1.4-.32-1.426-.302-1.439-.292-1.46-.28-1.477-.274-1.496-.252-1.516-.255-1.526-.223-1.547-.223-1.555-.203-1.573-.195-1.576-.174-1.604-.175-1.603-.147-1.612-.145-1.633-.128-1.634-.115M281.43 808.691l-6.959-6.114M284.794 809.178l-.292.037-.301.02-.314.02-.307-.009-.313-.01-.29-.032-.292-.038-.275-.056-.249-.071-.226-.066-.204-.088-.166-.098-.135-.096M395.99 765.418l-.756.883-.788.877-.827.874-.875.876-.904.862-.942.88-.983.862-1.019.865-1.06.867-1.098.854-1.138.855-1.176.855-1.214.845-1.254.847-1.284.836-1.33.836-1.363.836-1.399.825-1.437.825-1.479.819-1.517.805-1.556.808-1.583.806-1.622.797-1.662.787-1.693.778-1.731.778-1.769.769-1.797.765-1.838.76-1.865.749-1.905.737-1.944.731-1.974.727-2.002.719-2.042.702-2.07.698-2.11.7-2.128.681-2.168.67-2.195.659-2.227.662-2.263.645-2.286.629-2.311.632-2.356.612-2.37.603-2.4.594-2.43.582-2.45.573-2.49.566-2.496.544-2.539.533-2.554.536-2.576.504-2.607.507-2.621.494-2.647.478-2.672.466-2.692.447-2.71.448" style="fill:none;stroke:red;stroke-width:.999997;stroke-linecap:round;stroke-linejoin:round;stroke-miterlimit:4;stroke-dasharray:none;stroke-opacity:1;visibility:visible" visibility="hidden"/><path d="m314.594 793.558 44.216-17.294" style="fill:none;stroke:red;stroke-width:1.99999;stroke-linecap:round;stroke-linejoin:round;stroke-miterlimit:4;stroke-dasharray:none;stroke-opacity:1;visibility:visible" visibility="hidden"/><path d="m298.48 801.886-8.76-.079M294.62 824h-.468l-.465-.01-.466-.02-.476-.03-.467-.026-.468-.031-.453-.049-.448-.037-.43-.059-.417-.05-.399-.066M299.52 823.174l-.03.086-.056.08-.108.075-.136.08-.173.067-.217.069-.243.069-.28.057-.312.05-.331.046-.368.041-.399.039-.407.027-.438.019-.459.011-.465.01h-.478M294.806 802.753l-.448-.01-.458-.021-.447-.028-.435-.03-.439-.037-.417-.051-.41-.048-.376-.047M376.386 770.628l.213-.884M380.807 768.897l.019.079v.066M376.122 767.906l-.65 2.712M270.498 988.014l.657 9.312.663 9.302.65 9.302M272.467 1015.93l.05.489.068.475.069.428.097.426.095.379.107.39.127.386.146.383.164.397.188.407.212.422.233.406M268.542 984.915l1.956 3.099 2.767-.602 2.769-.622 2.753-.63 2.743-.644 2.72-.65 2.721-.671 2.694-.67 2.68-.692 2.674-.69 2.654-.708 2.634-.72 2.615-.73 2.604-.736 2.576-.749 2.568-.749 2.535-.768 2.529-.776 2.499-.779 2.467-.797 2.459-.799 2.431-.808 2.41-.814 2.38-.826 2.354-.826 2.332-.836 2.302-.846 2.286-.854 2.254-.858 2.218-.864 2.196-.864 2.168-.876 2.137-.885 2.117-.883 2.074-.896 2.05-.893 2.019-.895 1.996-.904 1.953-.913 1.924-.911 1.886-.917 1.868-.91 1.816-.928 1.797-.922 1.759-.923 1.722-.933 1.692-.935 1.66-.932 1.624-.932 1.584-.936 1.558-.94 1.514-.934 1.478-.943 1.44-.932 1.408-.943 1.372-.944 1.341-.933 1.29-.943 1.266-.933 1.223-.943 1.194-.933 1.148-.933 1.12-.932 1.068-.934 1.042-.934 1-.922.96-.924.933-.922.885-.924.847-.916.817-.912.776-.914.738-.904.702-.902.659-.906.623-.894.582-.895.556-.883.504-.885.478-.875.437-.874.399-.866.366-.863.323-.858.292-.854.253-.846M250.657 748.329l-7.85 2.723M235.755 753.498l-22.237 7.71M250.56 741.934l.094 6.396M342.666 782.582l-34.039-12.674M291.986 763.717l-8.14-3.03M276.138 757.816l-25.481-9.487M309.433 763.59l42.147 15.503M250.493 736.804l.067 5.13M251.58 741.633l-1.02.301M281.43 808.691l.117 15.243M302.357 797.97l-.691.068-.69.057-.697.042-.711.028-.711.018h-.719l-.708-.009-.7-.03-.701-.048-.7-.046-.679-.08-.66-.079-.662-.096-.631-.117-.624-.117-.591-.135-.573-.146M290.909 797.28 180.03 767.053l-.493-.147-.459-.146-.434-.166-.41-.174-.38-.175-.338-.185-.312-.195-.271-.205-.235-.202-.205-.205-.164-.213-.125-.226-.1-.222-.047-.223-.02-.224.02-.225.068-.222.095-.224.137-.224.163-.224M250.493 736.804l-6.027 2.042M234.674 742.17l-25.01 8.484M206.015 751.894l-11.9 4.036M251.318 736.558l-.825.246M369.194 771.853l.094-.224.07-.224.03-.223v-.225l-.052-.232M358.811 776.265l.164-.048M251.794 731.632l-.515.786M251.366 741.428l23.913 8.806M283.63 753.312l9.203 3.388M290.963 789.037l.139-1.05" style="fill:none;stroke:red;stroke-width:.999997;stroke-linecap:round;stroke-linejoin:round;stroke-miterlimit:4;stroke-dasharray:none;stroke-opacity:1;visibility:visible" visibility="hidden"/><path d="m284.9 824.427-.29.04-.303.03-.31.01h-.312l-.311-.011-.29-.029-.294-.049-.269-.05-.246-.066-.234-.079-.192-.086-.167-.098-.136-.105M395.719 779.736l-.748.893-.788.896-.836.893-.865.896-.904.894-.935.882-.981.885-1.019.886-1.06.883-1.099.874-1.126.875-1.178.876-1.205.864-1.243.865-1.294.856-1.32.856-1.363.844-1.39.846-1.437.847-1.468.836-1.52.827-1.53.824-1.587.819-1.623.814-1.652.807-1.69.797-1.722.789-1.758.787-1.8.776-1.828.78-1.866.755-1.906.759-1.923.75-1.975.747-1.992.73-2.03.717-2.07.72-2.09.712-2.127.69-2.159.689-2.198.681-2.216.67-2.255.65-2.276.654-2.312.64-2.33.621-2.375.622-2.389.603-2.422.594-2.439.583-2.478.573-2.499.564-2.516.555-2.55.535-2.571.523-2.588.515-2.624.496-2.634.489-2.663.474-2.672.467-2.703.446M281.546 823.934l-6.94-6.243-.67-.581-.701-.575-.738-.565-.767-.563-.808-.554-.836-.534-.873-.544-.895-.525-.933-.513-.963-.508-1.004-.504-1.017-.486-1.051-.477-1.088-.476-1.11-.456-1.133-.448-1.169-.445-1.185-.428-1.215-.419-1.245-.399-1.263-.4-1.295-.388-1.309-.37-1.333-.358-1.362-.35-1.378-.33-1.39-.333-1.421-.311-1.439-.3-1.455-.281-1.48-.284-1.487-.261-1.507-.245-1.524-.241-1.537-.224-1.545-.205-1.574-.204-1.576-.183-1.584-.166-1.604-.157-1.612-.145-1.624-.135-1.633-.118M221.274 801.702l-1.633-.117-1.632-.126-1.614-.145-1.613-.156-1.585-.175-1.584-.182-1.556-.198-1.547-.203-1.535-.225-1.505-.232-1.5-.252-1.464-.253-1.459-.273-1.429-.279-1.41-.304-1.389-.3-1.362-.322-1.34-.32-1.321-.34-1.284-.35-1.264-.359-1.234-.381-1.216-.379-1.174-.388-1.156-.397-1.12-.41-1.098-.416-1.06-.43-1.03-.437-1.003-.447-.961-.448-.943-.456-.895-.466-.874-.476-.836-.488-.796-.485-.772-.495-.724-.496-.702-.506-.66-.516-.622-.514-.592-.524-.555-.524-.516-.526-.484-.534-.448-.547-.41-.532-.368-.553-.331-.547-.299-.543-.253-.556-.224-.553-.186-.555-.156-.561-.106-.555-.078-.562-.04-.558M377.804 762.628l16.506 1.769M330.857 746.91l.466.495.498.487.532.488.563.474.606.486.632.478.67.466.696.465.743.468.644.388M341.332 753.878l.964.427.982.42 1.01.408 1.052.407 1.068.39 1.1.387 1.126.391 1.157.368 1.184.37 1.207.359 1.224.352 1.254.339M370.786 761.733l1.38.196 1.39.195 1.409.174 1.409.164 1.43.166M219.231 736.306l1.207-.32 1.215-.312 1.242-.301 1.255-.29 1.264-.283 1.292-.272 1.304-.263 1.32-.253 1.33-.252 1.355-.234 1.359-.224 1.372-.222 1.39-.204 1.397-.196 1.411-.192 1.419-.176 1.429-.164 1.436-.168 1.441-.146 1.458-.134 1.459-.127 1.476-.117 1.468-.107 1.477-.097 1.487-.088M281.447 731.476l1.393.117 1.378.125 1.383.136 1.359.147 1.36.147 1.353.164 1.332.176 1.33.174M312.846 737.142l1.079.35 1.049.361 1.02.359 1.003.378.982.38.951.389.925.386.903.411.875.408.846.406.824.43.788.428.769.437.738.437.701.448.681.456.64.456.622.466.583.469.552.465.526.486.498.478.455.484M193.018 744.512l1.915-.683 1.925-.679 1.944-.662 1.972-.662 1.984-.648.682-.22M212.009 738.334l.921-.268 2.084-.602 2.11-.586 2.106-.572M165.85 764.56v-.551l.04-.555.067-.554.116-.555.145-.541.196-.558.222-.542.254-.555.3-.544.33-.535.373-.544.405-.536.439-.533.476-.524.504-.536.547-.515.572-.524.612-.506.64-.515.682-.507.71-.496.738-.493.77-.485.804-.48.828-.474.865-.478M314.47 788.56l-.147-.38-.458-.485M410.608 915.845l4.152-.527M268.542 984.915l2.663-.584 2.654-.593 2.634-.611 2.625-.613 2.615-.631M290.286 979.732l2.448-.64 2.43-.662 2.419-.662 2.404-.668 2.389-.681 2.362-.69 2.353-.701 2.334-.698 2.313-.722 2.292-.718 2.284-.729 2.256-.737 2.227-.74 2.216-.749 2.194-.757M332.938 966.387l1.981-.747 1.964-.758 1.937-.758 1.912-.758 1.896-.768 1.867-.768 1.847-.778 1.828-.778 1.786-.787 1.78-.787M359.168 955.23l1.724-.847 1.691-.847 1.661-.853 1.632-.857 1.595-.854 1.575-.857 1.534-.864 1.518-.855 1.466-.864M380.631 943.098l1.304-.883 1.263-.884 1.244-.876 1.197-.885 1.165-.884 1.138-.883 1.1-.876 1.058-.873M396.614 929.898l.746-.835.73-.827.68-.826.66-.826.624-.817.59-.816.556-.815.524-.809.496-.805.455-.798.43-.796.39-.797M272.49 1018.33l-.245-.426-.225-.437-.182-.39-.165-.407-.147-.38-.127-.387-.117-.401-.107-.397-.097-.438-.087-.448-.068-.487-.049-.485M270.874 1013.248l-2.332-28.333M396.076 765.214l-.272 14.306M165.85 764.56l.475 14.27" style="fill:none;stroke:red;stroke-width:1.99999;stroke-linecap:round;stroke-linejoin:round;stroke-miterlimit:4;stroke-dasharray:none;stroke-opacity:1;visibility:visible" visibility="hidden"/><path d="m397.778 935.982.01.08-.021.086-.025.086-.05.09-.068.097-.078.089-.099.085-.115.088-.108.077-.136.08-.136.085-.156.078-.164.079-.177.077-.184.068-.195.077-.193.06-.185.066-.196.05-.192.06-.206.045-.201.051-.216.047-.213.041-.224.039-.224.038-.223.027-.224.02-.212.032-.224.018-.204.01-.215.007h-.418l-.204-.008-.204-.01-.184-.017-.184-.02-.176-.03-.166-.029-.154-.049-.146-.049-.128-.049-.117-.058-.087-.056-.076-.06-.071-.069-.048-.077M281.722 983.467l-.008-.03-.012-.031-.008-.027v-.087M290.149 982.027l-.01.097-.039.098-.058.097-.079.097-.096.098-.106.106-.128.098-.146.097-.144.087-.156.088-.174.088-.186.086-.192.088-.205.078-.213.077-.224.079-.216.068-.212.066-.223.06-.217.058-.222.049-.233.047-.233.05-.232.05-.255.036-.244.04-.243.031-.241.026-.243.02-.245.021-.221.01-.234.009h-.457l-.223-.01-.213-.019-.213-.02-.196-.02-.194-.038-.176-.037-.176-.041-.154-.058-.137-.058-.127-.059-.096-.068-.078-.079-.068-.066-.049-.087M404.059 922.044l-.06-.038-.039-.05-.029-.038-.028-.048-.021-.05-.018-.047M411.502 920.451v.165l-.027.078-.041.086-.058.088-.068.078-.088.098-.106.087-.096.077-.126.08-.128.077-.134.085-.156.081-.158.066-.164.077-.174.071-.168.058-.163.067-.184.058-.188.058-.192.048-.207.06-.2.05-.205.046-.215.05-.213.037-.224.04-.213.031-.214.027-.205.03-.204.019-.203.009-.224.019-.216.012h-.64l-.196-.022-.193-.01-.173-.028-.186-.019-.166-.038-.154-.037-.149-.041-.124-.05-.107-.047-.108-.059-.084-.068M333.103 969.167v.087l-.03.098-.039.088-.067.096-.078.098-.096.098-.13.096-.133.098-.148.088-.155.086-.164.088-.177.087-.183.079-.196.076-.202.078-.216.068-.192.07-.214.057-.223.057-.225.06-.232.047-.233.05-.233.048-.235.038-.244.039-.232.032-.233.028-.224.018-.223.011-.226.019h-.66l-.223-.01-.215-.02-.202-.018-.195-.028-.176-.032-.166-.039-.145-.037-.145-.059-.126-.047-.11-.07-.093-.067-.081-.077-.046-.079-.04-.077-.019-.088M359.56 958.594l.01.086-.022.087-.036.097-.06.09-.08.096-.094.097-.118.107-.134.096-.139.09-.144.076-.156.087-.167.077-.173.08-.193.077-.195.078-.215.068-.204.068-.214.057-.214.07-.224.048-.224.058-.222.048-.234.04-.224.038-.224.04-.232.028-.225.03-.223.02-.232.017-.224.011-.222.01h-.448l-.224-.01-.207-.018-.203-.022-.184-.018-.174-.028-.155-.04-.147-.039-.154-.048-.128-.059-.118-.068-.096-.069-.076-.067-.068-.077-.04-.079-.018-.086M373.916 948.902l-.049-.05-.039-.037-.018-.04-.03-.037-.02-.05-.01-.05M381.332 947.387v.077l-.01.076-.028.09-.051.085-.056.088-.088.09-.089.087-.114.087-.108.077-.117.078-.125.078-.138.066-.154.078-.156.071-.175.076-.176.07-.175.065-.185.06-.184.06-.193.057-.198.048-.201.049-.196.05-.205.047-.195.039-.201.04-.216.027-.214.031-.202.03-.214.017-.214.021-.216.017-.222.011-.213.01h-.417l-.196-.01-.184-.02-.176-.009-.164-.019-.176-.03-.176-.04-.144-.037-.146-.05-.128-.046-.106-.059-.096-.06-.078-.057" style="fill:none;stroke:red;stroke-width:.999997;stroke-linecap:round;stroke-linejoin:round;stroke-miterlimit:4;stroke-dasharray:none;stroke-opacity:1;visibility:visible" visibility="hidden"/><path d="m390.362 937.334-.012-.019v-.01l-.007-.019v-.009l-.01-.021v-.018" style="fill:none;stroke:red;stroke-width:.999997;stroke-linecap:round;stroke-linejoin:round;stroke-miterlimit:4;stroke-dasharray:none;stroke-opacity:1;visibility:visible" visibility="hidden"/><path d="m286.562 1026.02 2.703-.652 2.693-.67 2.681-.689 2.666-.691 2.653-.712 2.632-.707 2.625-.73 2.596-.738 2.584-.748 2.566-.757 2.546-.78 2.528-.777 2.508-.787 2.488-.798 2.47-.806 2.439-.816 2.422-.827 2.4-.836 2.37-.844 2.352-.855 2.323-.858 2.305-.863 2.275-.875 2.245-.884 2.216-.886 2.195-.894 2.168-.904 2.14-.904 2.11-.912 2.077-.926 2.052-.924 2.025-.922 1.991-.942 1.95-.934 1.935-.942 1.897-.955 1.867-.95 1.836-.954 1.799-.961 1.768-.964 1.741-.96 1.701-.972 1.672-.974 1.634-.972 1.592-.97 1.577-.983 1.524-.981 1.496-.982 1.47-.972 1.416-.991 1.401-.983 1.352-.982 1.322-.981 1.282-.981 1.244-.983 1.213-.981 1.18-.98 1.136-.984 1.099-.982 1.07-.981 1.028-.972.992-.981.954-.974.914-.97.883-.964.845-.969.808-.966.766-.96.74-.955.689-.95.663-.954.618-.942.587-.942.552-.944.516-.933.468-.923.445-.922.399-.926.361-.913M274.023 1020.918l-.31-.516-.31-.524-.302-.518-.312-.513-.299-.515M420.01 954.811l.057-.164.057-.177.05-.183.038-.204.038-.215.04-.232.037-.244.032-.262.017-.243.022-.253.018-.252.01-.272.008-.283.01-.292v-.883l-.01-.292-.008-.3-.01-.315-.008-.309-.01-.32-.022-.32-.016-.333-.022-.329-.028-.34-.03-.35-.03-.35-.027-.35-.028-.35-.043-.349-.028-.359-.046-.392-.042-.398-.048-.388-.05-.398-.045-.388-.061-.399-.049-.39-.057-.397-.058-.418-.068-.419-.06-.407-.066-.418-.071-.399-.065-.407-.068-.39-.08-.388M414.759 915.32l1.476 8 1.488 7.987 1.465 7.984" style="fill:none;stroke:red;stroke-width:1.99999;stroke-linecap:round;stroke-linejoin:round;stroke-miterlimit:4;stroke-dasharray:none;stroke-opacity:1;visibility:visible" visibility="hidden"/><path d="m274.023 1020.918.352.552.378.536.416.504.438.478.419.407.437.39.467.359.476.34.456.291.476.265.488.242.507.222.513.196.527.174.544.146.542.127.601.096.614.067.612.04.623.01.661-.029.67-.067.66-.098.663-.146" style="fill:none;stroke:red;stroke-width:1.99999;stroke-linecap:round;stroke-linejoin:round;stroke-miterlimit:4;stroke-dasharray:none;stroke-opacity:1;visibility:visible" visibility="hidden"/><path d="m371.788 769.84.164-.175.203-.175.225-.177.252-.164.282-.164.301-.156.313-.156.34-.136.349-.135.371-.128.377-.106.378-.096.39-.09.39-.076M376.6 769.744l.465-1.954.391-.03.377-.01h.371l.359.02.33.04.321.047.292.068.261.079.244.096.213.098.184.127.147.125.117.147.086.143.05.157" style="fill:none;stroke:red;stroke-width:.999997;stroke-linecap:round;stroke-linejoin:round;stroke-miterlimit:4;stroke-dasharray:none;stroke-opacity:1;visibility:visible" visibility="hidden"/><path d="m376.122 767.906.234.924.242.914" style="fill:none;stroke:red;stroke-width:.999997;stroke-linecap:round;stroke-linejoin:round;stroke-miterlimit:4;stroke-dasharray:none;stroke-opacity:1;visibility:visible" visibility="hidden"/><path d="m375.567 795.967 28.296 125.806M386.143 788.891l25.359 131.56" style="fill:none;stroke:red;stroke-width:1.99999;stroke-linecap:round;stroke-linejoin:round;stroke-miterlimit:4;stroke-dasharray:none;stroke-opacity:1;visibility:visible" visibility="hidden"/><path d="m289.342 801.47.155-.06.185-.047.224-.049.252-.05.292-.039.31-.038.343-.029.357-.021.39-.019.399-.01.417-.006h.428l.436.007.44.01.436.017.437.031.438.03.426.038.419.048.4.048.38.051.357.059.34.057.314.06.28.065.243.068.223.08M299.237 822.833l.126.086.087.091.05.084.017.08M380.818 768.928l-.011-.03" style="fill:none;stroke:red;stroke-width:.999997;stroke-linecap:round;stroke-linejoin:round;stroke-miterlimit:4;stroke-dasharray:none;stroke-opacity:1;visibility:visible" visibility="hidden"/><path d="m286.843 824.107-5.15 159.187M299.52 823.174l-9.37 158.853" style="fill:none;stroke:red;stroke-width:1.99999;stroke-linecap:round;stroke-linejoin:round;stroke-miterlimit:4;stroke-dasharray:none;stroke-opacity:1;visibility:visible" visibility="hidden"/><path d="m298.546 821.987.07.136.085.147.089.133.097.118.087.099.076.077.07.048.05.04.037.028.03.02" style="fill:none;stroke:red;stroke-width:.999997;stroke-linecap:round;stroke-linejoin:round;stroke-miterlimit:4;stroke-dasharray:none;stroke-opacity:1;visibility:visible" visibility="hidden"/><path d="m316.042 818.157 9.235 152.245M323.946 816.147l9.157 153.021M334.52 813.113l17.343 146.723M342.22 810.645l17.34 147.949M381.332 947.387l-23.249-142.75M373.75 948.64l-23.134-141.01M397.778 935.982 371.31 798.346M390.332 937.24l-26.225-135.287" style="fill:none;stroke:red;stroke-width:1.99999;stroke-linecap:round;stroke-linejoin:round;stroke-miterlimit:4;stroke-dasharray:none;stroke-opacity:1;visibility:visible" visibility="hidden"/><path d="m261.174 731.952.057-.972M261.231 730.981v-.204l-.01-.204-.027-.185-.041-.186-.047-.177-.07-.163-.053-.136-.071-.116-.071-.108-.066-.097-.068-.076-.057-.07-.05-.056-.05-.039-.037-.04-.039-.03h-.008" style="fill:none;stroke:red;stroke-width:.999997;stroke-linecap:round;stroke-linejoin:round;stroke-miterlimit:4;stroke-dasharray:none;stroke-opacity:1;visibility:visible" visibility="hidden"/><path d="m251.357 732.118.437-.486" style="fill:none;stroke:red;stroke-width:1.99999;stroke-linecap:round;stroke-linejoin:round;stroke-miterlimit:4;stroke-dasharray:none;stroke-opacity:1;visibility:visible" visibility="hidden"/><path d="m314.49 793.72-5.581 2.639-.419.182-.445.184-.476.165-.507.164-.515.157-.544.136-.573.136-.583.12-.602.102-.612.098-.633.088-.643.08M359.248 776.216h-.273M365.692 774.137l-6.444 2.08M369.194 771.853l-.119.213-.155.214-.186.213-.214.205-.242.204-.28.196-.312.182-.35.188-.37.182-.399.167-.427.163-.448.157" style="fill:none;stroke:red;stroke-width:.999997;stroke-linecap:round;stroke-linejoin:round;stroke-miterlimit:4;stroke-dasharray:none;stroke-opacity:1;visibility:visible" visibility="hidden"/><path d="m499.77 976.04 1.367-199.327" style="fill:none;stroke:red;stroke-width:.666665;stroke-linecap:round;stroke-linejoin:round;stroke-miterlimit:10;stroke-dasharray:none;stroke-opacity:1;visibility:visible" visibility="hidden"/><path d="m291.376 802.481 1.631.252M294.806 802.753l-1.799-.02M293.007 802.733l1.799.02M293.007 802.733l-1.631-.252M235.755 753.498l7.052-2.446M242.807 751.052l-7.052 2.446M206.015 751.894l7.503 9.314M291.986 763.717l16.641 6.191M283.63 753.312l8.356 10.405M276.138 757.816l7.708 2.871M283.846 760.687l-7.708-2.871M291.986 763.717l17.447-.127M251.318 736.558l-6.852 2.288M244.466 738.846l-9.792 3.324M206.015 751.894l3.649-1.24M209.664 750.654l-3.649 1.24M203.44 740.958l-9.325 14.972M376.598 769.744l-7.262.981M283.63 753.312l-8.351-3.078M276.138 757.816l7.492-4.504M283.846 760.687l8.987-3.987" style="fill:none;stroke:red;stroke-width:.999997;stroke-linecap:round;stroke-linejoin:round;stroke-miterlimit:4;stroke-dasharray:none;stroke-opacity:1;visibility:visible" visibility="hidden"/><path d="m260.466 729.094-6.972 2.07M206.015 751.894l-12.997-7.382M212.009 738.334l-8.569 2.624M203.44 740.958l8.569-2.624M290.286 979.732l-8.553 2.151M281.733 981.883l8.553-2.151M332.938 966.387l-7.731 2.791M325.207 969.178l7.731-2.791M359.168 955.23l-7.432 3.47M351.736 958.7l7.432-3.47M380.631 943.098l-7.067 4.434M373.564 947.532l7.067-4.434M281.547 823.934l5.296.173" style="fill:none;stroke:red;stroke-width:1.99999;stroke-linecap:round;stroke-linejoin:round;stroke-miterlimit:4;stroke-dasharray:none;stroke-opacity:1;visibility:visible" visibility="hidden"/><path d="m253.494 731.164 6.972-2.07" style="fill:none;stroke:red;stroke-width:.999997;stroke-linecap:round;stroke-linejoin:round;stroke-miterlimit:4;stroke-dasharray:none;stroke-opacity:1;visibility:visible" visibility="hidden"/><path d="m161.302 577.19-.294-.02-.3-.017-.29-.021-.293-.028-.292-.03-.27-.037-.273-.033-.253-.037-.235-.039-.232-.04-.234-.037-.224-.041-.224-.047-.222-.047-.204-.05-.196-.061-.338-.095-.332-.098-.302-.116-.29-.115-.254-.128-.105-.057-.108-.059-.097-.067-.087-.059-.165-.138-.08-.076-.065-.067-.058-.08-.04-.077-.059-.137-.021-.077-.008-.069.008-.078.013-.085.028-.079.039-.077.048-.079.057-.068.08-.068.079-.077" style="fill:none;stroke:#00ff4a;stroke-width:.999997;stroke-linecap:round;stroke-linejoin:round;stroke-miterlimit:4;stroke-dasharray:none;stroke-opacity:1;visibility:visible"/><path d="m168.893 575.05.057.08.04.076.029.079.009.087.011.077-.011.088-.018.079-.04.085-.05.07-.047.077-.061.067-.066.069-.077.07-.089.056-.104.07-.11.065-.233.118-.261.117-.292.107-.322.098-.33.087-.184.037-.195.048-.409.079-.427.068-.241.039-.246.032-.252.028-.242.017-.243.02-.263.02-.262.019-.282.021-.3.01-.301.01h-.907l-.29-.011-.282-.008-.3-.011M155.217 581.215l.399.08.428.058.456.048.474.036.498.031.516.008h.534l.544-.008.555-.02.563-.039.573-.048.573-.06.575-.066.573-.09.572-.085.566-.107.552-.117.537-.128.523-.125.506-.146.496-.145.466-.157.44-.155.417-.165.387-.175.36-.175.32-.173.293-.185.263-.187.224-.175.184-.182.156-.186.105-.174.077-.178.04-.173-.01-.165M153.04 579.913l.037.157.07.143.105.137.148.137.164.123.205.129.231.106.265.107.292.097.321.088.339.078M177.4 720.413l-.022-.193-.028-.184-.038-.196-.06-.184-.076-.194-.08-.194-.096-.186-.116-.185-.118-.184-.126-.164-.126-.164-.136-.157-.145-.148-.145-.143-.156-.139-.158-.125-.144-.107-.146-.098-.147-.095-.145-.08-.147-.076-.135-.059-.136-.05-.126-.048-.126-.03-.117-.018-.116-.018h-.109l-.106.01-.097.018-.088.03-.089.038-.067.047-.068.06-.057.057-.05.07-.077.165-.037.087-.03.097-.02.107-.02.117-.01.125-.007.128v.282l.008.145.01.145.008.156.031.156.019.156.03.166.027.164.042.174.037.178.05.174.045.164.061.175.057.165.068.166.06.164.076.145.068.148.078.145.088.147.096.144.11.137.104.126.118.117.116.097.116.098.128.078.126.068.127.056.125.04.126.028.137.022.136.009.135-.01.126-.019.146-.042.146-.055.138-.069.124-.077.118-.099.116-.106.107-.116.089-.127.094-.136.081-.156.067-.155.048-.174.04-.176.029-.186.01-.181v-.188" style="fill:none;stroke:#00ff4a;stroke-width:.999997;stroke-linecap:round;stroke-linejoin:round;stroke-miterlimit:4;stroke-dasharray:none;stroke-opacity:1;visibility:visible"/><path d="m182.404 759.304.448.049.473.03.477.019.496.008.507-.008.503-.02.514-.04.528-.057.515-.06.515-.085.514-.088.507-.11.495-.114.484-.126.48-.148.456-.144.448-.164.416-.166" style="fill:none;stroke:#00ff4a;stroke-width:1.99999;stroke-linecap:round;stroke-linejoin:round;stroke-miterlimit:4;stroke-dasharray:none;stroke-opacity:1;visibility:visible"/><path d="m180.636 759.488.018.078.019.078" style="fill:none;stroke:#00ff4a;stroke-width:.999997;stroke-linecap:round;stroke-linejoin:round;stroke-miterlimit:4;stroke-dasharray:none;stroke-opacity:1;visibility:visible"/><path d="m192.99 757.09-.245.164-.281.176-.29.174-.322.164-.332.156-.34.156M182.404 759.304l-.271-.04-.265-.039-.254-.046-.35-.078-.319-.079-.308-.097-.247-.077M306.507 786.276l-.057.34-.096.331-.128.329-.164.313-.196.311-.232.3-.255.285-.288.268-.324.265-.337.242-.381.225" style="fill:none;stroke:#00ff4a;stroke-width:1.99999;stroke-linecap:round;stroke-linejoin:round;stroke-miterlimit:4;stroke-dasharray:none;stroke-opacity:1;visibility:visible"/><path d="m304.05 789.484-.416.213-.448.203-.47.176-.493.157-.506.135-.527.105-.544.08-.553.07-.564.025-.563.011-.583-.009-.576-.04-.572-.068-.573-.087-.563-.115-.554-.138-.545-.154-.533-.187-.516-.201-.497-.227-.476-.243-.448-.252-.425-.281-.4-.292-.369-.31-.341-.321-.31-.331-.271-.339-.244-.349-.205-.361-.166-.36-.125-.37-.097-.367-.048-.371-.022-.36.03-.37" style="fill:none;stroke:#00ff4a;stroke-width:1.99999;stroke-linecap:round;stroke-linejoin:round;stroke-miterlimit:4;stroke-dasharray:none;stroke-opacity:1;visibility:visible"/><path d="m308.53 625.973-.02.343.02.35.067.359.108.349.144.35.197.35.223.354.273.327.31.332.341.329.377.31.41.294.444.292.479.27.495.254.525.233.554.222.565.196.583.183.6.158.614.135.611.106.633.098.623.056.63.052.623.017.621-.008.615-.03.592-.059.583-.075.575-.101.542-.123.526-.147.505-.166.467-.194.448-.205.417-.232.379-.243.34-.262.313-.282.261-.293.234-.302.19-.321.15-.318.105-.341.07-.341" style="fill:none;stroke:#00ff4a;stroke-width:.999997;stroke-linecap:round;stroke-linejoin:round;stroke-miterlimit:4;stroke-dasharray:none;stroke-opacity:1;visibility:visible"/><path d="m318.2 626.103-.34-.011-.33-.01-.341-.021-.31-.018-.322-.027-.33-.031-.332-.038-.33-.031-.289-.039-.293-.04-.282-.044-.262-.042-.264-.047-.262-.05-.263-.046-.27-.061-.468-.115-.447-.127-.215-.06-.193-.058-.187-.067-.18-.069-.196-.067-.175-.079-.341-.145-.153-.076-.15-.09-.134-.074-.127-.081-.117-.086-.117-.078-.097-.088-.097-.098-.077-.088-.08-.096-.055-.09-.048-.095-.032-.096-.019-.107-.01-.087v-.1l.021-.087.039-.096.038-.1.059-.083M325.763 623.71l.06.098.038.097.029.088.02.097v.087l-.008.087-.022.088-.03.087-.097.165-.135.156-.079.077-.096.068-.097.079-.108.066-.213.118-.262.127-.292.108-.321.114-.35.099-.358.088-.392.076-.425.077-.498.07-.242.028-.243.03-.243.03-.253.02-.544.037-.292.01-.301.019-.3.011h-1.187l-.322-.009" style="fill:none;stroke:#00ff4a;stroke-width:1.33333;stroke-linecap:round;stroke-linejoin:round;stroke-miterlimit:4;stroke-dasharray:none;stroke-opacity:1;visibility:visible"/><path d="m206.42 761.606-.348.059-.331.079-.311.076-.293.097-.26.097M283.326 782.848l-.252.105-.29.097-.314.087-.339.079-.349.066-.37.059-.391.039-.389.02-.396.02h-.399l-.388-.02-.391-.03-.368-.038-.36-.06-.34-.067-.312-.077-.3-.098-.263-.097-.234-.116-.194-.117-.165-.126-.136-.128-.088-.134-.048-.138-.008-.134.019-.146.068-.137.104-.137.147-.127.175-.124.215-.127.241-.108.272-.106.304-.096.32-.08.35-.066.358-.06M281.529 780.689l.36.047.348.06.33.078.303.076.281.098.252.108.214.116.185.116.145.126.118.136.068.135.036.139-.006.145-.049.136-.077.135-.128.136-.156.128-.196.125-.231.119M291.685 791.653l.554.135.584.125.602.117.62.107.635.09.65.074.66.06.682.046.679.04.683.02.69.01.689-.01.689-.029.681-.03.68-.058.672-.058.65-.077.643-.097.629-.108.613-.115.585-.138.572-.135.546-.154.513-.168.496-.175.456-.183.437-.196M313.865 788.072l-5.588 2.673M177.786 757.873l-.204.203-.174.213-.128.216-.098.213-.066.214-.02.222.008.216.049.214.079.204.126.212.158.206.182.194.223.196.264.194.292.183.33.175.35.165.387.167.42.144.436.146.47.136M291.685 791.653 180.87 761.908M240.582 772.706l.15.012.363.048.338.059.31.077.302.079.262.096.244.099.204.117.175.115.135.128.098.126.067.126.02.136-.01.136-.06.134-.082.138-.14.125-.164.128-.194.128-.235.104M204.877 762.014l-.234.11-.205.116-.175.118-.136.124-.097.126-.059.137-.028.127.02.134.047.128.09.116.125.129.165.104.193.107.235.107.25.088.284.079.313.066.328.058.352.05.36.028.375.03h.762l.388-.02.37-.031.377-.047.351-.048.35-.068.323-.078.298-.087.272-.097.252-.106.215-.118.195-.12.145-.122.117-.129.078-.125.04-.136.01-.127-.04-.125-.069-.128-.117-.124-.147-.118-.172-.106-.213-.1-.245-.094-.271-.088-.292-.07-.32-.066M183.9 761.152l.439.057.455.048.467.03.476.019.483.01h.489l.487-.02.486-.028.476-.048.475-.05.459-.066.448-.08.437-.095.405-.099.402-.106.358-.127.34-.127.312-.134.282-.138.252-.156.212-.144.186-.164.147-.158.105-.166.079-.164.03-.166v-.155M180.644 759.508l.01.068.019.069" style="fill:none;stroke:#00ff4a;stroke-width:.999997;stroke-linecap:round;stroke-linejoin:round;stroke-miterlimit:4;stroke-dasharray:none;stroke-opacity:1;visibility:visible"/><path d="m242.365 774.816-.26.106-.292.096-.32.09-.334.077-.359.057-.369.059-.377.041-.392.018-.385.01h-.39l-.39-.01-.369-.028-.37-.04-.348-.058-.333-.068-.308-.076-.284-.09-.252-.098-.215-.105-.195-.117-.153-.116-.117-.136-.079-.128-.037-.136-.012-.135.038-.135.082-.138.105-.126.155-.125.185-.127.213-.116.252-.108.275-.097.3-.099.33-.076.34-.07M281.682 782.088l.341.057.331.06.31.077.292.088.254.087.243.107.202.106M313.865 787.694l.605.867M180.673 759.645l.039.088.048.087.05.086.078.088.066.078.087.078.097.078.11.068.212.136.117.06.116.057.127.057.136.059.3.107.186.058.186.058.192.049.196.05.213.046.213.041.224.038.235.04M285.105 549.179l-.011-.05-.017-.038-.03-.041-.017-.038-.032-.039-.037-.048" style="fill:none;stroke:#00ff4a;stroke-width:.999997;stroke-linecap:round;stroke-linejoin:round;stroke-miterlimit:4;stroke-dasharray:none;stroke-opacity:1;visibility:visible"/><path d="m271.995 548.33-.049.059-.052.069-.037.059-.03.063-.009.072-.01.068.009.068.011.068.028.068.038.057.041.07.06.068.067.068.076.066.099.07.097.066.203.121.223.113.246.111.279.102.312.108.34.097.361.099.37.085.348.071.369.067.398.067.418.058.418.06.428.037.418.042.418.037.438.02.445.019.448.01.448.007.427-.008.41-.01.407-.017.41-.033.434-.037.42-.038.204-.029.195-.028.184-.032.174-.027.167-.038.175-.03.164-.041.156-.039.3-.088.274-.085.135-.06.116-.048.117-.05.1-.056.086-.058.085-.06.081-.057.067-.059.06-.068.037-.057.039-.07.03-.069.008-.057v-.124l-.019-.068M286.271 552.744l-.02.06-.057.057-.097.049-.127.047-.175.05-.193.04-.235.038-.273.028-.292.04-.33.02-.358.02-.379.019-.417.008-.43.01h-.921l-.497-.01-.496-.008-.515-.01-.536-.019-.523-.031-.545-.029-.534-.027-.544-.041-.534-.048-.533-.039-.528-.05-.516-.046-.496-.06-.484-.057-.477-.06-.449-.058-.426-.067-.399-.07-.38-.067-.349-.057-.33-.07-.294-.077-.26-.068-.225-.068-.192-.068-.155-.058-.127-.07-.089-.067-.048-.058-.02-.057M250.56 741.934l24.706 9.086M283.695 754.118l9.05 3.328" style="fill:none;stroke:#00ff4a;stroke-width:.999997;stroke-linecap:round;stroke-linejoin:round;stroke-miterlimit:4;stroke-dasharray:none;stroke-opacity:1;visibility:visible"/><path d="m273.946 729.96-.244.085-.272.079-.3.068-.321.068-.35.06-.379.048-.399.048-.419.038-.436.031-.457.019-.466.02h-.973l-.496-.012-.508-.008-.512-.031-.505-.027-.506-.038-.505-.05-.497-.06-.484-.057-.478-.068-.465-.07-.448-.084-.43-.081-.404-.096-.393-.085-.368-.11-.34-.094-.321-.109-.284-.107-.259-.117-.225-.116" style="fill:none;stroke:#00ff4a;stroke-width:1.99999;stroke-linecap:round;stroke-linejoin:round;stroke-miterlimit:4;stroke-dasharray:none;stroke-opacity:1;visibility:visible"/><path d="m273.977 729.938-.03.022M260.502 729.104l-.036-.02" style="fill:none;stroke:#00ff4a;stroke-width:.999997;stroke-linecap:round;stroke-linejoin:round;stroke-miterlimit:4;stroke-dasharray:none;stroke-opacity:1;visibility:visible"/><path d="m368.335 764.697.321-.067.294-.086.262-.107.222-.125.196-.14.165-.153.125-.166.098-.184M354.758 757.64l-.058.197-.018.212.006.225.052.242.087.242.116.252.157.264.183.27.224.275.25.281.286.284.319.28.34.282.368.28.398.284.422.27.436.266.458.269.464.254.496.243.496.234.516.224.515.212.523.203.536.185.524.167.526.155.523.136.505.125.507.1.496.085.477.068.455.039.447.03.42.011.408-.011.37-.029.347-.051" style="fill:none;stroke:#00ff4a;stroke-width:1.99999;stroke-linecap:round;stroke-linejoin:round;stroke-miterlimit:4;stroke-dasharray:none;stroke-opacity:1;visibility:visible"/><path d="m435.492 599.216-.078.136-.107.125-.157.107-.182.09-.216.073-.252.058-.29.043-.321.02-.339.008-.38-.008-.4-.039-.425-.039-.459-.07-.464-.076-.49-.11-.502-.105-.526-.136-.524-.146-.546-.157-.544-.173-.546-.185-.552-.196-.546-.21-.542-.218-.546-.223-.524-.242-.524-.233-.496-.253-.495-.254-.47-.251-.444-.261-.427-.255-.4-.263-.369-.252-.349-.251-.313-.253-.29-.244-.244-.233-.223-.233-.175-.227-.156-.212-.107-.204-.068-.195-.038-.173v-.165l.038-.156M368.463 765.108l.107.212.078.204.047.216.01.214-.028.204-.059.212-.098.206-.136.204-.164.202-.205.196-.232.194-.263.194-.302.184-.33.178-.36.165-.388.165-.417.155-.448.145M276.406 738.609l.292-.068.299-.07.33-.045.175-.026M275.782 738.842l.184-.085.215-.079.225-.068M434.314 593.11l-.036-.084-.04-.081-.04-.068-.048-.069-.058-.067-.078-.077" style="fill:none;stroke:#00ff4a;stroke-width:.999997;stroke-linecap:round;stroke-linejoin:round;stroke-miterlimit:4;stroke-dasharray:none;stroke-opacity:1;visibility:visible"/><path d="m419.959 592.023-.041.077-.028.08-.02.077-.01.076v.07l.01.086.02.078.028.088.049.075.06.09.068.077.077.09.09.077.085.088.107.076.106.079.235.133.263.148.3.135.33.137.352.136.367.117.38.115.417.107.419.1.437.095.448.089.456.078.438.058.456.058.478.059.492.037.498.039.494.03.478.011.466.007h.466l.469-.017.465-.022.438-.026.234-.031.21-.02.217-.03.204-.026.203-.032.204-.037.205-.03.185-.049.184-.039.175-.049.167-.047.156-.04.144-.049.137-.059.136-.048.124-.057.128-.07.117-.065.108-.071.092-.065.16-.137.068-.068.056-.079.04-.077.039-.076.03-.08.021-.079v-.145l-.013-.087-.019-.078M251.794 731.896l42.213 15.25M310.805 753.21l48.025 17.352 6.446-2.004M276.406 737.308l.28-.068.31-.068M280.5 737.142l.31.06.3.068.273.067.243.088.224.095.192.098.156.098.128.117.087.107.057.117.012.115-.01.116-.061.117-.084.107-.129.108-.165.105-.183.1-.224.096-.253.088-.271.077-.304.07-.31.057-.341.048-.338.04-.362.019-.365.017h-.363l-.369-.007-.36-.018-.35-.032-.34-.038-.328-.048-.305-.069-.289-.068-.253-.088-.245-.085-.202-.099-.164-.096-.15-.11-.104-.105-.069-.116-.04-.117.011-.117.03-.118.076-.114.106-.108.148-.108.173-.096.215-.098.233-.088.264-.086M341.87 760.82l.27-.087.235-.099.203-.106.165-.106.137-.12.096-.124.068-.117.02-.125-.009-.128-.057-.126-.088-.126-.127-.116-.156-.118-.195-.106-.222-.108-.252-.096-.283-.076-.31-.082-.321-.064-.351-.06" style="fill:none;stroke:#00ff4a;stroke-width:.999997;stroke-linecap:round;stroke-linejoin:round;stroke-miterlimit:4;stroke-dasharray:none;stroke-opacity:1;visibility:visible"/><path d="m337.535 758.74-.137.02-.32.066-.301.068-.282.09-.255.086-.211.108-.186.107-.156.105-.125.118-.077.126-.05.128v.124l.03.128.067.116.106.127.139.116.173.117.214.107.243.097.263.096.29.08.322.076.34.058.352.048.356.04.381.03.377.02h.38l.38-.01.38-.022.358-.036.35-.05.33-.059.321-.066.283-.078M342.463 760.588l-.205-.096-.243-.1-.263-.087-.28-.079-.305-.065-.329-.061-.339-.046M309.531 762.842l43.06 15.852M358.754 776.257l.086-5.347M367.248 765.457l-.078.116-.098.107-.114.106-.128.098-.138.089-.144.085-.156.079-.166.088-.214.087-.212.077-.244.079-.262.077M365.294 766.545l-.37.095-.396.09-.412.077-.436.067-.446.062-.467.037-.476.039-.476.018-.495.01h-.498l-.495-.02-.485-.02-.496-.04-.476-.047-.467-.059-.457-.066-.448-.076-.428-.088-.396-.1-.38-.105-.362-.119-.329-.124-.301-.127-.27-.137-.247-.135-.213-.147-.164-.156-.145-.144-.108-.156-.059-.157-.04-.153.011-.158.039-.153" style="fill:none;stroke:#00ff4a;stroke-width:.999997;stroke-linecap:round;stroke-linejoin:round;stroke-miterlimit:4;stroke-dasharray:none;stroke-opacity:1;visibility:visible"/><path d="m189.653 720.181 30.172-9.565M236.64 705.29l28.82-9.128M188.324 710.537l15.434-4.801M220.613 700.497l42.816-13.296M316.6 708.09l75.315-25.262M318.075 696.618l71.539-23.473" style="fill:none;stroke:#00ff4a;stroke-width:1.99999;stroke-linecap:round;stroke-linejoin:round;stroke-miterlimit:4;stroke-dasharray:none;stroke-opacity:1;visibility:visible"/><path d="m184.522 689.717-.165-.039-.175-.008-.188.008-.192.04-.21.059-.216.076-.224.099-.232.117-.215.116-.225.145-.223.156-.232.175-.233.187-.235.202-.233.203-.222.224-.206.224-.192.213-.186.232-.174.226-.167.232-.167.244-.144.262-.136.262-.136.272-.106.273-.098.281-.077.282-.057.282-.031.292-.019.283.008.27.03.303.061.291.075.283.108.28.124.282.146.264.178.254.184.241.224.243.232.224.244.194.25.184.255.155.272.148.27.117.295.095" style="fill:none;stroke:#00ff4a;stroke-width:.999997;stroke-linecap:round;stroke-linejoin:round;stroke-miterlimit:4;stroke-dasharray:none;stroke-opacity:1;visibility:visible"/><path d="m153.04 579.912-.04-.321-.017-.321v-.33l.018-.321.039-.32.049-.32.068-.322.096-.322.107-.319.128-.3.145-.304.156-.292.203-.31.214-.292.224-.29.25-.264.254-.25.275-.236M153.04 579.913l25.3 176.99M169.952 577.687 185.484 690M186.95 700.624l7.467 54.033M155.209 574.479l.144-.106.175-.108.197-.097.201-.099.224-.085.262-.088.28-.09.305-.076.279-.058.294-.059.29-.056.313-.05.327-.05.35-.037.352-.03.362-.03.338-.029.32-.008.339-.011.349-.01.365-.008.357.009h.36l.361.02.359.017.338.021.34.022.343.036.347.029.35.05.342.048.33.049.342.058.328.058.3.068.315.066.298.079.293.088.272.087.254.088.244.097.22.097.207.109.193.106.165.105.147.119.125.117.09.115" style="fill:none;stroke:#00ff4a;stroke-width:1.99999;stroke-linecap:round;stroke-linejoin:round;stroke-miterlimit:4;stroke-dasharray:none;stroke-opacity:1;visibility:visible"/><path d="m168.893 575.05.185.264.164.271.146.283.165.35.137.35.107.368.096.37.059.379" style="fill:none;stroke:#00ff4a;stroke-width:1.99999;stroke-linecap:round;stroke-linejoin:round;stroke-miterlimit:4;stroke-dasharray:none;stroke-opacity:1;visibility:visible"/><path d="m193.086 758.925-.156-1.147M180.644 759.508l-.008-.02M192.99 757.09l-.012.027-.03.11-.028.113-.008.137v.147l.018.154M180.636 759.488l-.031-.154-.05-.156-.046-.137-.051-.079-.036-.077-.032-.037" style="fill:none;stroke:#00ff4a;stroke-width:.999997;stroke-linecap:round;stroke-linejoin:round;stroke-miterlimit:4;stroke-dasharray:none;stroke-opacity:1;visibility:visible"/><path d="m325.763 623.41.128.193.115.204.176.33.164.35.137.353.127.357.107.37.085.37.07.379.048.388.02.39.01.386-.021.391-.037.379M308.53 625.973l.048-.386.079-.37.096-.377.127-.381.154-.39.166-.369.186-.36.213-.348.224-.332M308.53 625.973l-18.993 158.185M326.89 628.25l-20.383 158.026M309.823 622.66l.127-.145.157-.136.183-.136.204-.127.233-.117.263-.107.29-.117.334-.096.308-.089.33-.075.341-.08.343-.056.359-.062.367-.047.41-.049.407-.038.399-.03.41-.02.396-.02.396-.008h.8l.417.008.42.02.433.02.441.03.427.037.417.04.4.039.39.058.395.058.41.057.43.09.416.076.407.099.38.096.36.098.339.106.33.107.323.116.32.14.292.135.273.144.223.136.203.148.177.144.144.145.116.157M194.417 754.657l.021.203-.01.214-.04.216-.058.203-.088.203-.098.196-.136.202-.164.206-.175.205-.203.193-.214.184-.244.188-.018.019M180.39 758.848l-.057-.022-.284-.114-.25-.116-.246-.126-.212-.15-.203-.143-.186-.155-.166-.177-.106-.136-.107-.156-.079-.153-.068-.156-.058-.175-.03-.167M182.162 699.165l113.43 34.487M184.522 689.717l112.324 33.555" style="fill:none;stroke:#00ff4a;stroke-width:1.99999;stroke-linecap:round;stroke-linejoin:round;stroke-miterlimit:4;stroke-dasharray:none;stroke-opacity:1;visibility:visible"/><path d="m178.36 757.04-.204.144-.196.156-.174.157" style="fill:none;stroke:#00ff4a;stroke-width:.999997;stroke-linecap:round;stroke-linejoin:round;stroke-miterlimit:4;stroke-dasharray:none;stroke-opacity:1;visibility:visible"/><path d="m177.136 758.098.65-.601M176.404 759.566l.206 5.812M177.136 758.098l-.196.206-.174.213-.136.203-.11.217-.063.203-.053.213v.215M314.47 788.56l.02 5.16M194.029 756.066l11.658 3.078M210.482 760.408l26.128 6.896M241.133 768.496l36.872 9.732M282.623 779.446l7.244 1.912M306.575 785.772l7.29 1.92" style="fill:none;stroke:#00ff4a;stroke-width:1.99999;stroke-linecap:round;stroke-linejoin:round;stroke-miterlimit:4;stroke-dasharray:none;stroke-opacity:1;visibility:visible"/><path d="m272.11 667.178-.021-.204v-.204l.021-.206.019-.204.038-.203.05-.205.057-.203.068-.196.07-.175.087-.173.184-.34.214-.323.241-.309.235-.263.253-.253.252-.224.273-.215.282-.202.302-.196.3-.166.312-.153.331-.145.156-.058.164-.06.153-.048.167-.04.147-.038.145-.02.156-.018.155-.02h.281l.137.009.135.019.127.03.126.03M275.114 671.037l-.196-.079-.197-.086-.202-.107-.184-.107-.177-.117-.164-.115-.156-.128-.156-.137-.27-.261-.264-.282-.242-.322-.224-.348-.107-.195-.097-.203-.088-.216-.087-.213-.068-.233-.058-.235-.05-.243-.017-.232M263.43 687.201l.185-.05.203-.028h.213l.226.019.232.048.233.058.244.08.263.105.23.107.235.126.244.147.243.153.233.176.232.176.224.192.213.207.187.195.183.204.174.213.167.224.155.232.145.245.136.252.11.26.105.263.078.273.058.272.039.282.007.273v.272l-.017.273-.05.262-.066.292-.097.29-.107.281-.136.273-.156.265-.167.25-.185.246-.193.22-.223.233-.223.208-.234.192-.243.175-.264.156-.26.145-.272.118-.275.106" style="fill:none;stroke:#00ff4a;stroke-width:.999997;stroke-linecap:round;stroke-linejoin:round;stroke-miterlimit:4;stroke-dasharray:none;stroke-opacity:1;visibility:visible"/><path d="m284.96 548.925.162.205.165.203.147.224.175.283.156.29.128.302.117.321.096.311.076.33.06.339.028.338.01.334-.01.34M270.466 551.713l.02-.222.03-.215.056-.33.078-.321.1-.321.124-.311.136-.302.164-.291.177-.293.196-.269.223-.264.224-.244M270.466 551.713l-8.379 135.897M261.485 697.417l-.923 15.017M259.92 722.804l-.32 5.153M286.271 552.744l-7.046 109.964M278.613 672.221l-1.286 20.072M275.949 713.774l-.204 3.198M275.073 727.424l-.098 1.505M284.96 548.925l-.11-.105-.135-.11-.145-.097-.167-.096-.202-.097-.224-.097-.243-.099-.263-.087-.233-.077-.261-.079-.274-.068-.3-.068-.302-.065-.312-.07-.31-.05-.313-.056-.31-.04-.329-.05-.331-.037-.331-.029-.329-.04-.314-.018-.329-.02-.339-.02-.35-.019-.351-.011h-.98l-.331.011-.332.009-.33.02-.34.02-.33.028-.312.03-.3.037-.301.051-.295.046-.281.049-.251.06-.253.065-.234.071-.222.08-.196.074-.186.089-.153.087-.128.097-.104.088" style="fill:none;stroke:#00ff4a;stroke-width:1.99999;stroke-linecap:round;stroke-linejoin:round;stroke-miterlimit:4;stroke-dasharray:none;stroke-opacity:1;visibility:visible"/><path d="m272.974 731.941.01-.224M273.977 729.938v.012l-.03.018-.05.029-.059.04-.077.057-.087.079-.077.087-.098.106-.088.127-.086.127-.08.146-.075.175-.07.184-.057.193-.038.204-.022.195" style="fill:none;stroke:#00ff4a;stroke-width:.999997;stroke-linecap:round;stroke-linejoin:round;stroke-miterlimit:4;stroke-dasharray:none;stroke-opacity:1;visibility:visible"/><path d="m274.975 728.928-.009.117-.039.108-.037.105-.06.099-.089.105-.106.108-.105.087-.128.087-.147.076-.153.071-.125.048M260.466 729.085l-.148-.079-.164-.116-.128-.089-.107-.107-.096-.104-.08-.109-.056-.096-.037-.099-.031-.105-.018-.117v-.107" style="fill:none;stroke:#00ff4a;stroke-width:1.99999;stroke-linecap:round;stroke-linejoin:round;stroke-miterlimit:4;stroke-dasharray:none;stroke-opacity:1;visibility:visible"/><path d="m389.614 673.145.134-.037.139-.03.144-.018h.29l.158.01.156.027.164.029.301.088.303.116.299.156.302.176.282.183.284.205.292.234.28.261.272.283.273.301.26.312.235.319.234.37.214.36.182.39.159.388.065.224.067.224.052.213.037.232.028.224.022.225v.222l-.01.224" style="fill:none;stroke:#00ff4a;stroke-width:.999997;stroke-linecap:round;stroke-linejoin:round;stroke-miterlimit:4;stroke-dasharray:none;stroke-opacity:1;visibility:visible"/><path d="m395.232 679.054-.029.236-.04.242-.06.224-.077.224-.066.193-.089.195-.096.185-.117.185-.224.34-.264.307-.299.296-.323.27-.368.275-.4.231-.21.107-.216.096-.212.09-.226.076" style="fill:none;stroke:#00ff4a;stroke-width:.999997;stroke-linecap:round;stroke-linejoin:round;stroke-miterlimit:4;stroke-dasharray:none;stroke-opacity:1;visibility:visible"/><path d="m434.015 592.664.252.263.243.29.234.293.214.32.185.311.175.329.145.342.135.348.108.355.088.355.06.37.038.37.019.378-.011.37-.029.381-.059.378-.086.369-.107.369-.129.361M419.483 592.975l.079-.195.096-.193.088-.195.106-.185.108-.187M419.483 592.975l-31.755 80.791M382.984 685.83l-28.226 71.81M435.492 599.216 370.02 763.668M434.015 592.664l-.136-.127-.176-.134-.193-.128-.214-.118-.226-.116-.26-.117-.284-.125-.308-.107-.291-.097-.303-.098-.302-.077-.332-.088-.35-.079-.358-.073-.369-.081-.379-.059-.349-.057-.353-.05-.348-.048-.368-.037-.372-.03-.377-.041-.39-.02-.37-.018-.379-.007-.358-.012h-.71l-.358.01-.363.01-.349.019-.34.029-.36.03-.342.037-.31.051-.308.046-.303.06-.281.068-.282.067-.252.069-.252.087-.225.087-.192.098-.188.096-.156.099-.136.116-.117.108-.086.116" style="fill:none;stroke:#00ff4a;stroke-width:1.99999;stroke-linecap:round;stroke-linejoin:round;stroke-miterlimit:4;stroke-dasharray:none;stroke-opacity:1;visibility:visible"/><path d="m354.106 764.553 1.36-3.461M367.656 764.99l-.056.04-.089.076-.088.098-.105.148-.07.105M355.466 761.093l.05-.128.039-.155.027-.154.011-.146v-.137l-.009-.087-.009-.066" style="fill:none;stroke:#00ff4a;stroke-width:.999997;stroke-linecap:round;stroke-linejoin:round;stroke-miterlimit:4;stroke-dasharray:none;stroke-opacity:1;visibility:visible"/><path d="m258.159 729.892.478-.128.493-.118.517-.106.543-.096.556-.079M258.16 729.892l-6.367 1.74M354.875 759.186l-13.107-4.652M336.772 752.76l-24.802-8.803M295.08 737.96l-14.155-5.031M276.395 731.321l-2.848-1.012M275.114 671.037l26.904 9.147M319.426 686.102l15.084 5.123M350.588 696.69l24.806 8.433M277.726 662.201l25.427 8.492M320.662 676.548l29.042 9.692M365.751 691.605l13.23 4.413" style="fill:none;stroke:#00ff4a;stroke-width:1.99999;stroke-linecap:round;stroke-linejoin:round;stroke-miterlimit:4;stroke-dasharray:none;stroke-opacity:1;visibility:visible"/><path d="m272.974 731.941-.028.145-.057.147-.1.136-.124.137-.167.135-.195.127-.223.126-.253.118-.272.116-.31.108-.331.094-.359.088-.37.088-.399.068-.408.07-.417.046-.438.051-.438.028-.458.019-.445.01h-.457l-.446-.01-.448-.019-.438-.028-.427-.05-.417-.048-.4-.069-.39-.068-.359-.078-.35-.098-.31-.094-.3-.108-.267-.108-.229-.126-.216-.117-.175-.136-.147-.135-.105-.136-.079-.137-.048-.137v-.144" style="fill:none;stroke:#00ff4a;stroke-width:.999997;stroke-linecap:round;stroke-linejoin:round;stroke-miterlimit:4;stroke-dasharray:none;stroke-opacity:1;visibility:visible"/><path d="m368.668 764.913.195.203.173.204.138.205.106.204.08.205.046.214.011.202M251.28 732.418l.084 9.01M369.415 766.35l-.087 5.182" style="fill:none;stroke:#00ff4a;stroke-width:1.99999;stroke-linecap:round;stroke-linejoin:round;stroke-miterlimit:4;stroke-dasharray:none;stroke-opacity:1;visibility:visible"/><path d="m175.502 719.088.502 1.057M174.722 718.836l.78.25M174.426 719.601l.296-.764M174.928 720.656l-.5-1.056M175.709 720.91l-.781-.253M176.004 720.145l-.296.765" style="fill:none;stroke:#00ff4a;stroke-width:.666665;stroke-linecap:round;stroke-linejoin:round;stroke-miterlimit:2;stroke-dasharray:none;stroke-opacity:1;visibility:visible"/><path d="m205.687 759.144 4.05 2.474M283.695 754.118l-8.429-3.098M275.266 751.02l8.429 3.098M309.531 762.842l-16.786-5.396M283.695 754.118l10.312-6.972M294.007 747.146l16.798 6.064M292.745 757.446l16.786 5.396M369.415 766.35l-10.661 9.907M369.328 771.532l-10.488-.622" style="fill:none;stroke:#00ff4a;stroke-width:.999997;stroke-linecap:round;stroke-linejoin:round;stroke-miterlimit:4;stroke-dasharray:none;stroke-opacity:1;visibility:visible"/><path d="m220.613 700.497-.788 10.119M219.825 710.616l16.815-5.326M220.613 700.497l-16.855 5.239M219.825 710.616l.788-10.119M186.95 700.624 185.484 690M185.484 690l1.466 10.624M280.925 732.929l14.667.723M280.925 732.929l15.921-9.657M193.087 758.925l-16.477 6.453M180.87 761.906l13.159-5.84M209.737 761.618l-4.05-2.474M205.687 759.144l4.795 1.264M241.133 768.496l-4.523-1.192M236.61 767.304l4.523 1.192M282.623 779.446l-4.618-1.218M278.005 778.228l4.618 1.218M291.685 791.653l-1.818-10.295M261.485 697.417l.602-9.807M262.087 687.61l-.602 9.807M259.92 722.804l.642-10.37M260.562 712.434l-.642 10.37M278.613 672.221l.612-9.513M279.225 662.708l-.612 9.513M261.485 697.417l15.842-5.124M274.975 728.929l.974-15.155M275.073 727.424l.672-10.452M272.983 731.717l2.09-4.293M382.984 685.83l4.744-12.064M387.728 673.766l-4.744 12.064M336.772 752.76l4.996 1.774M341.768 754.534l-4.996-1.774M295.08 737.96l16.89 5.997M311.97 743.957l-16.89-5.997M276.395 731.321l4.53 1.608M280.925 732.929l-4.53-1.608M319.426 686.102l-17.408-5.918M302.018 680.184l17.408 5.918M350.588 696.69l-16.078-5.465M349.704 686.24l.884 10.45M365.751 691.605l9.643 13.518M320.662 676.548l-17.509-5.855M303.153 670.693l17.509 5.855M350.588 696.69l-.884-10.45M375.394 705.123l-9.643-13.518" style="fill:none;stroke:#00ff4a;stroke-width:1.99999;stroke-linecap:round;stroke-linejoin:round;stroke-miterlimit:4;stroke-dasharray:none;stroke-opacity:1;visibility:visible"/><path d="m259.6 727.957 1.574 3.995" style="fill:none;stroke:#00ff4a;stroke-width:.999997;stroke-linecap:round;stroke-linejoin:round;stroke-miterlimit:4;stroke-dasharray:none;stroke-opacity:1;visibility:visible"/><path d="m358.84 770.91 10.488.622" style="fill:none;stroke:#00ff4a;stroke-width:1.99999;stroke-linecap:round;stroke-linejoin:round;stroke-miterlimit:4;stroke-dasharray:none;stroke-opacity:1;visibility:visible"/><path d="m194.115 755.93-17.595 7.096M289.537 784.158l1.565 3.829" style="fill:none;stroke:red;stroke-width:.999997;stroke-linecap:round;stroke-linejoin:round;stroke-miterlimit:4;stroke-dasharray:none;stroke-opacity:1;visibility:visible" visibility="hidden"/><path d="m369.328 771.532 1.458-9.799M295.592 733.652l-14.145-2.176M280.925 732.929l11.41-.267M311.97 743.957l.876-6.815M180.87 761.906l-3.385-10.982" style="fill:none;stroke:red;stroke-width:1.99999;stroke-linecap:round;stroke-linejoin:round;stroke-miterlimit:4;stroke-dasharray:none;stroke-opacity:1;visibility:visible" visibility="hidden"/><path d="m369.415 766.35 2.373 3.49" style="fill:none;stroke:red;stroke-width:.999997;stroke-linecap:round;stroke-linejoin:round;stroke-miterlimit:4;stroke-dasharray:none;stroke-opacity:1;visibility:visible" visibility="hidden"/><path d="m295.651 791.535-14.122-10.846M295.651 791.535l-13.969-9.447M292.335 732.662l-11.835 4.48" style="fill:none;stroke:#00ff4a;stroke-width:.999997;stroke-linecap:round;stroke-linejoin:round;stroke-miterlimit:4;stroke-dasharray:none;stroke-opacity:1;visibility:visible"/></svg>