<svg xmlns="http://www.w3.org/2000/svg" baseProfile="full" height="1122.52" preserveAspectRatio="xMinYMin meet" style="width:912px;height:1303px" width="793.701" xml:space="preserve"><path d="m315.117 552.007 7.892 1.763" style="fill:none;stroke:red;stroke-width:.666665;stroke-linecap:round;stroke-linejoin:round;stroke-miterlimit:4;stroke-dasharray:2.31066,2.31066;stroke-dashoffset:0;stroke-opacity:1;visibility:visible"/><path d="m324.137 554.024 1.3.292" style="fill:none;stroke:red;stroke-width:.666665;stroke-linecap:round;stroke-linejoin:round;stroke-miterlimit:4;stroke-dasharray:none;stroke-opacity:1;visibility:visible"/><path d="m448.42 582.823.024.245.047.221.057.232.083.22.081.212.104.208.128.199.127.197.141.175.15.15.163.154.163.124.164.117.175.093.185.095.175.068.173.047.166.037.173.023h.161l.166-.012.164-.024.15-.047.14-.057.136-.071.13-.079.129-.094.127-.119.104-.125.106-.13.104-.149.082-.164.07-.164.07-.161.057-.176.047-.163" style="fill:none;stroke:red;stroke-width:1.33333;stroke-linecap:round;stroke-linejoin:round;stroke-miterlimit:4;stroke-dasharray:none;stroke-opacity:1;visibility:visible"/><path d="m452.83 580.73-.047-.188-.044-.185-.049-.174-.055-.175-.07-.164-.059-.15-.072-.141-.08-.125-.082-.131-.081-.104-.083-.093-.081-.081-.104-.082-.117-.069-.116-.056-.115-.039-.128-.02-.141-.013h-.127l-.152.023-.14.037-.139.047-.14.056-.15.081-.142.081-.15.105-.151.117-.152.128-.161.152-.152.162-.152.174-.14.186-.139.198-.116.197-.116.201-.104.219-.093.232-.095.233-.057.232-.058.246-.036.256-.024.245-.012.243.012.232" style="fill:none;stroke:red;stroke-width:1.33333;stroke-linecap:round;stroke-linejoin:round;stroke-miterlimit:4;stroke-dasharray:none;stroke-opacity:1;visibility:visible"/><path d="m285.777 560.32-.618 1.092M305.133 575.865l-1.083-12.145M375.056 536.63l.198.059.152.069.117.081.08.081.024.095-.01.09-.059.096-.106.104-.15.095-.186.079-.21.081-.256.084-.268.068-.302.048-.302.045-.315.036-.313.011-.315.01-.303-.009-.28-.025-.257-.035-.219-.048-.196-.057-.164-.068-.116-.083-.07-.094-.024-.08.011-.104.059-.095.104-.093.15-.094.189-.093.22-.079.245-.07.268-.07.302-.061.302-.044.312-.023.316-.024H374l.29.011.278.024.271.033.217.05M411.163 521.352l.197.058.163.068.116.071.07.081.036.093v.083l-.058.091-.095.095-.137.094-.175.08-.21.081-.246.071-.264.07-.28.047-.302.047-.318.035-.3.007-.314.014-.292-.014-.279-.019-.257-.038-.219-.044-.2-.058-.163-.059-.113-.082-.07-.08-.039-.084.014-.092.047-.092.104-.093.128-.095.185-.081.211-.083.232-.067.268-.057.292-.06.29-.047.313-.022.304-.023h.606l.279.023.255.033.221.048M327.175 549.79l.188.058.163.081.103.081.069.082.024.093-.024.105-.07.106-.114.09-.151.096-.2.091-.22.094-.256.07-.29.069-.291.058-.316.048-.325.032-.315.016-.315.009-.3-.011-.281-.023-.255-.038-.234-.057-.185-.059-.153-.08-.114-.081-.058-.082-.024-.093.024-.105.068-.092.117-.103.151-.093.187-.096.232-.092.256-.07.279-.072.304-.055.314-.048.327-.034.312-.013.315-.012.302.012.279.024.257.047.22.047M313.073 561.228l-.651.21-.676.196-.708.199-.723.187-.755.161-.782.166-.79.138-.802.14-.816.115-.825.108-.827.09-.839.082-.825.057-.825.048-.826.023-.816.023h-.814l-.79-.011-.77-.036-.755-.047-.733-.057-.71-.08-.675-.081-.65-.104-.617-.13-.583-.13-.56-.135M441.696 517.316l-128.623 43.912M445.127 513.09l.223.197.176.2.137.197.095.21.046.22.014.211-.038.221-.07.22-.116.222-.162.219-.198.221-.246.234-.277.208-.327.22-.361.224-.396.208-.43.213-.465.195-.502.198-.532.187M292.931 562.357l-7.154-2.037M443.895 530.392l.01.012h.015M449.19 584.697l.245-.176.23-.221.211-.243.209-.28.187-.313M450.892 580.733l-.006-.178-.047-.362-.07-.325-.103-.313-.129-.28-.141-.256M477.939 741.628l-.43.232-.453.222-.49.208-.509.211-.537.199-.557.184-.583.188-.605.162-.605.15-.627.14-.63.13-.639.114-.641.096-.65.09-.63.059-.639.059-.617.033-.604.013h-.606l-.57-.013-.559-.033-.535-.047-.5-.057-.477-.082-.452-.093-.41-.116-.384-.119-.348-.137-.301-.152-.271-.164-.231-.172-.186-.187-.141-.2-.104-.21-.058-.206M480.059 739.07l.01.222-.019.221-.075.232-.114.232-.161.233-.188.232-.245.246-.279.244-.315.232-.349.232-.384.233M427.499 535.792l.35.07.394.058.42.047.467.045.486.025.514.01h.536l.57-.01.594-.037.59-.033.628-.047.63-.07.641-.072.653-.089.648-.095.653-.115.649-.119.657-.128.625-.14.628-.139.618-.15.593-.163.57-.16.547-.177.536-.176.5-.187.464-.184.443-.186.407-.187.374-.184.326-.187.289-.19.257-.182.21-.176.173-.188.128-.173.083-.163.048-.164-.014-.15" style="fill:none;stroke:red;stroke-width:.999997;stroke-linecap:round;stroke-linejoin:round;stroke-miterlimit:4;stroke-dasharray:none;stroke-opacity:1;visibility:visible"/><path d="m310.7 702.977.057.253.082.258.106.244.105.232.115.234.14.208.14.211.152.185.149.162.176.164.175.15.185.142.187.114.197.107.184.08.201.059.174.036.164.022h.161l.164-.012.15-.036.152-.046.151-.056.14-.083.14-.095.127-.104.116-.128.117-.126.106-.152.092-.162.092-.164.002-.002M315.633 701.206l-.024-.22-.023-.21-.024-.209-.047-.211-.033-.196-.057-.186-.047-.177-.07-.161-.072-.164-.069-.138-.081-.14-.081-.129-.106-.113-.104-.106-.105-.106-.116-.082-.139-.082-.14-.058-.152-.046-.161-.035-.153-.012h-.163l-.161.012-.176.023-.175.05-.185.054-.175.082-.188.094-.184.106-.175.115-.174.129-.163.15-.176.162-.161.176-.151.186-.15.21-.132.222-.127.23-.104.234-.094.254-.082.26-.058.253-.034.255-.023.272v.252l.012.258.023.256.046.257" style="fill:none;stroke:red;stroke-width:1.33333;stroke-linecap:round;stroke-linejoin:round;stroke-miterlimit:4;stroke-dasharray:none;stroke-opacity:1;visibility:visible"/><path d="m311.61 704.948.279-.176.277-.21.257-.245.244-.279.233-.302.21-.336M313.771 701.084v-.395l-.021-.385-.061-.36-.091-.336-.116-.318-.152-.289-.175-.256-.208-.221M315.76 808.885l-.024.081-.069.08-.116.084-.174.067-.21.082-.256.072-.304.067-.347.07-.385.071-.418.061-.467.054-.499.06-.524.047-.57.045-.583.047-.616.036-.639.033-.653.025-.676.023-.684.01-.7.013h-2.106l-.7-.013-.694-.02-.688-.026-.675-.023-.652-.036-.64-.034-.605-.044-.592-.048-.559-.047-.535-.059-.5-.058-.454-.07-.43-.058-.386-.07-.337-.069-.303-.083-.256-.065-.208-.084-.176-.083-.116-.08-.07-.083-.024-.082M299.75 579.82h1.676l.616.012h1.967l.686.012h1.41l.708.01h1.417l.713.012h.687l.675.013h.662l.65.011.619.013h.594l.57.01h.534l.511.012.469.012h.429l.383.011h.35l.314.012.255.013h.222l.163.01h.116l.08.012h.024M296.597 579.855h.023l.07-.011h.279l.198-.012h1.244l.41-.01h.929" style="fill:none;stroke:red;stroke-width:.999997;stroke-linecap:round;stroke-linejoin:round;stroke-miterlimit:4;stroke-dasharray:none;stroke-opacity:1;visibility:visible"/><path d="m446.862 527.83-.768.807M445.999 513.788l-.872-.698M447.468 526.508l-.734-11.544M287.08 574.119l-.78-.616M285.275 561.02l-.115.392M285.275 561.019l.502-.699M445.999 513.788l.21.187.176.184.141.201.104.198.069.198.035.208M447.468 526.508v.207l-.046.222-.082.223-.126.217-.155.234-.197.219M286.3 573.503l-1.14-12.09M314.318 575.11l-.64.206-.685.209-.7.2-.729.175-.749.175-.778.162-.78.153-.802.126-.814.117-.828.115-.826.081-.825.083-.839.059-.826.048-.827.033-.813.013h-.803l-.779-.025-.78-.021-.745-.06-.733-.059-.71-.08-.676-.095-.65-.102-.616-.131-.582-.128-.56-.15M287.08 574.119l7.142 2.094M446.092 528.636l-.242.221-.282.22-.325.234-.359.221-.398.208-.43.21-.464.21-.502.197-.534.198M314.318 575.11l128.238-44.556M442.01 511.81l.513.128.476.14.453.152.41.15.372.163.336.175.3.188.258.184M434.679 510.112l7.33 1.698M285.777 560.32l148.902-50.206M439.996 607.97l-123.211 44.11M444.267 618.521l-127.577 46.44M443.895 530.392l.197.072.27.09.197.095.175.091.164.117.148.128.094.106.08.114.084.131.047.139.033.15M443.546 530.183l.046.024.094.07.068.045.07.035.047.023.024.012M462.746 745.19l-.246-.325-.233-.35-.21-.357-.162-.318-.139-.336-.13-.34-.118-.334-.08-.35-.068-.35M480.06 739.07l.056.42.025.419v.43l-.025.429-.056.421-.071.395-.106.384-.116.384-.15.373-.166.372-.195.348-.244.395-.279.384-.292.36-.325.35-.339.314-.357.304M480.059 739.07 454.46 585.915M453.508 580.221l-8.124-48.596M461.362 742.13l-20.795-122.257M438.624 608.457l-12.286-72.269M471.379 747.18l.36-.012.361-.035.35-.033.346-.035.315-.047.292-.048.281-.046.277-.047.256-.047.258-.057.255-.06.245-.067.242-.07.235-.071.219-.07.224-.081.208-.083.21-.081.208-.093.2-.104.195-.105.187-.115.164-.117.15-.104M462.746 745.19l.16.164.177.162.219.174.257.163.244.141.279.127.292.129.3.127.294.091.314.109.336.089.36.095.385.083.382.068.397.07.384.06.431.048.451.043.477.035.48.022.511.026h.512l.49-.012.501-.024M444.267 618.521l.312-.125.305-.153.292-.187.276-.22.27-.23.257-.259.231-.279.22-.292.187-.288.163-.304.15-.314.13-.325.103-.338.07-.35.061-.35.01-.359v-.326l-.034-.327-.047-.312-.081-.315-.094-.313-.128-.315-.14-.315-.174-.302-.188-.293-.208-.287-.222-.283-.245-.267-.244-.256-.256-.244-.255-.22-.268-.221-.302-.222-.315-.21-.313-.196-.326-.187-.324-.174-.326-.164-.326-.127-.314-.115-.34-.107-.311-.08-.293-.058-.28-.036-.267-.01-.244.009-.235.037-.208.057M316.463 700.814l.788-120.82M295.142 808.778l1.455-228.923M305.673 815.609l.534-.01.524-.038.5-.034.5-.046.467-.058.452-.069.456-.07.43-.083.372-.069.371-.093.384-.093.374-.105.36-.115.349-.116.327-.13.3-.117.305-.15.301-.15.291-.166.258-.16.254-.187.223-.187.185-.186.163-.187M297.19 813.678l.187.175.22.165.233.15.268.148.256.142.29.128.304.116.314.118.29.091.302.094.327.081.348.081.361.083.373.067.372.06.36.048.419.057.432.033.453.047.454.024.477.024.465.012h.49l.488-.012M296.597 579.855v-.035l.023-.09.023-.097.047-.081.047-.067.048-.06.045-.045.048-.025.057-.035M316.925 579.46l.07.035.068.057.059.081.058.083.037.081.022.106.012.092M314.854 574.924l-.014 1.045M296.935 579.321l.208-.117.21-.128.245-.184.232-.21.221-.222.199-.244.187-.256.149-.27.141-.277.116-.291.047-.15M314.84 575.97l.015.302.032.304.059.303.081.301.106.303.126.277.154.27.16.257.199.242.199.222.22.199.232.186.247.175.253.149M297.19 813.678l-.255-.256-.245-.279-.221-.278-.246-.362-.22-.373-.198-.384-.175-.395-.15-.396-.114-.432-.108-.429-.07-.43-.033-.444-.013-.442" style="fill:none;stroke:red;stroke-width:1.99999;stroke-linecap:round;stroke-linejoin:round;stroke-miterlimit:4;stroke-dasharray:none;stroke-opacity:1;visibility:visible"/><path d="m315.76 808.885-.01.441-.048.444-.082.429-.094.431-.139.42-.152.417-.184.396-.21.395-.234.372-.256.361M315.76 808.885l.67-103.252" style="fill:none;stroke:red;stroke-width:1.99999;stroke-linecap:round;stroke-linejoin:round;stroke-miterlimit:4;stroke-dasharray:none;stroke-opacity:1;visibility:visible"/><path d="m325.437 554.316-10.32-2.309M324.137 554.024l-1.128-.254" style="fill:none;stroke:red;stroke-width:.666665;stroke-linecap:round;stroke-linejoin:round;stroke-miterlimit:4;stroke-dasharray:2.31066,2.31066;stroke-dashoffset:0;stroke-opacity:1;visibility:visible"/><path d="m323.009 553.77 1.128.254M327.175 549.79l-1.738 4.526" style="fill:none;stroke:red;stroke-width:.666665;stroke-linecap:round;stroke-linejoin:round;stroke-miterlimit:4;stroke-dasharray:none;stroke-opacity:1;visibility:visible"/><path d="m314.84 575.97-9.707-.105M325.437 554.316l1.738-4.526M324.137 554.024l3.038-4.234M448.42 582.823l2.472-2.09M316.43 705.633l-2.659-4.549" style="fill:none;stroke:red;stroke-width:.999997;stroke-linecap:round;stroke-linejoin:round;stroke-miterlimit:4;stroke-dasharray:none;stroke-opacity:1;visibility:visible"/><path d="m452.83 580.73 1.63 5.185M438.624 608.457l1.943 11.416M440.567 619.873l-1.943-11.416M445.384 531.625l-19.046 4.563M316.463 700.814l-.033 4.819" style="fill:none;stroke:red;stroke-width:1.99999;stroke-linecap:round;stroke-linejoin:round;stroke-miterlimit:4;stroke-dasharray:none;stroke-opacity:1;visibility:visible"/><path d="M139.14 652.164c.038.328.172.65.384.945M139.524 653.11a.692.692 0 0 0 .384.26M142.466 649.365l6.17 1.776M141.506 652.953l6.107 1.758M141.404 648.17l.264.076M139.908 653.37l.264.078M142.053 648.51a.732.732 0 0 0-.385-.264M140.173 653.445a.697.697 0 0 0 .47-.017M141.404 648.17a.736.736 0 0 0-.468.019M140.937 648.188a2.077 2.077 0 0 0-.825.599" style="fill:none;stroke:#00ff4a;stroke-width:.999997;stroke-linecap:round;stroke-linejoin:round;stroke-miterlimit:2;stroke-dasharray:none;stroke-opacity:1;visibility:visible"/><path d="M140.112 648.788a4.517 4.517 0 0 0-.832 1.588 4.505 4.505 0 0 0-.14 1.79M147.521 654.005c.007.219.065.435.17.625" style="fill:none;stroke:#00ff4a;stroke-width:.999997;stroke-linecap:round;stroke-linejoin:round;stroke-miterlimit:2;stroke-dasharray:none;stroke-opacity:1;visibility:visible"/><path d="m229.574 548.17 1.13 11.734M282.029 517.21l-.246-.035-.265-.012-.292-.013h-.29l-.304.025-.302.035-.29.033-.28.057-.266.058-.235.082-.208.074-.176.09-.141.082-.103.093-.058.091-.023.094.035.083.069.08.105.07.151.072.188.055.208.036.245.036.267.024.292.01.29-.011.303-.012.302-.035.29-.048.279-.046.268-.068.232-.071.21-.08.188-.083.138-.094.093-.092.06-.094.022-.078-.035-.095-.07-.07-.106-.083-.149-.056-.187-.06-.21-.044M321.591 503.628l-.233-.021-.268-.025h-.57l-.3.025-.293.021-.292.047-.265.048-.257.07-.233.07-.2.069-.173.083-.126.08-.095.093-.057.08v.095l.024.08.08.081.105.072.151.056.186.048.222.046.243.036.269.012.278.012h.29l.293-.024.303-.036.277-.036.28-.058.256-.056.223-.072.208-.081.162-.08.141-.083.091-.08.047-.094.012-.083-.033-.08-.071-.081-.116-.068-.152-.06-.188-.059-.219-.046M252.253 533.29l-.246-.038-.266-.021-.291-.012-.301.011-.315.013-.304.034-.304.047-.288.057-.268.059-.244.08-.223.084-.183.092-.154.095-.104.089-.059.097-.022.091.022.093.059.084.117.08.141.07.183.057.223.048.244.035.279.022.277.013.304-.013.315-.022.304-.025.301-.046.29-.057.28-.07.246-.07.219-.082.175-.093.153-.092.104-.093.068-.092.024-.096-.024-.09-.068-.085-.104-.079-.153-.073-.186-.056-.221-.046M229.055 547.659l122.97-52.861M216.909 542.228l-.199.245-.163.242-.105.245-.068.232-.036.232.023.233.058.234.106.221.14.221.197.21.232.21.268.185.315.198.361.174.395.173.43.152.464.15.503.14.535.12.57.113M220.935 546.157l8.122 1.503" style="fill:none;stroke:#00ff4a;stroke-width:.999997;stroke-linecap:round;stroke-linejoin:round;stroke-miterlimit:4;stroke-dasharray:none;stroke-opacity:1;visibility:visible"/><path d="m351.8 494.346.706.882" style="fill:none;stroke:#00ff4a;stroke-width:1.99999;stroke-linecap:round;stroke-linejoin:round;stroke-miterlimit:4;stroke-dasharray:none;stroke-opacity:1;visibility:visible"/><path d="m325.767 700.578.026.28.067.277.094.281.153.28.174.268.233.253.255.257.291.244.338.246.36.221.396.221.43.2.454.184.489.163.499.161.537.14.534.118.57.104.57.081.595.07.593.048.603.022.608.012.604-.012.606-.023.592-.046.592-.071.571-.093.572-.104.535-.118.534-.138.5-.164.49-.162.451-.2.421-.196.407-.208.361-.234.326-.231.304-.245.256-.258.221-.266.184-.268.139-.28.106-.278.058-.28.024-.28M341.092 515.314l-.442.162-.467.15-.5.143-.51.126-.538.115-.559.106-.568.08-.596.07-.592.061-.604.033-.616.036-.619.012-.616-.012-.605-.024-.605-.034-.605-.048-.594-.07M343.687 512.88l-.024.222-.057.22-.094.223-.128.219-.173.222-.199.209-.244.197-.266.199-.304.197-.339.186-.369.176-.397.164M217.474 557.119h0M234.346 561.343l.012.012M233.123 559.295l.22-.058.188-.08.139-.095M165.602 760.48l-.036.222.024.23.047.235.103.243.14.244.188.258.23.254.27.256.3.268.339.268.385.256.42.268.44.255.478.245.51.258.538.229.544.235.582.222.594.219.618.195.617.2.627.177.64.163.652.149.64.128.638.117.642.107.628.079.606.072.604.044.582.036.568.01h.537l.523-.022.489-.047.453-.045.43-.083.398-.09.362-.107.325-.128.279-.14.242-.152.2-.174.162-.174.117-.196.081-.211M218.382 560.425l-.408-.209-.372-.21-.337-.208-.303-.211-.257-.199-.232-.184-.187-.199-.152-.174-.103-.176-.069-.162-.024-.15.013-.153M235.194 563.019l-.059.14-.104.128-.14.113-.185.108-.232.093-.268.069-.303.07-.349.047-.373.037-.419.02h-.441l-.478-.01-.51-.021-.536-.037-.56-.06-.57-.07-.605-.079-.604-.094-.63-.103-.639-.119-.639-.139-.653-.14-.638-.15-.652-.166-.64-.171-.641-.188-.628-.185-.617-.2-.594-.207-.58-.21-.561-.21-.533-.21-.5-.219-.479-.221-.452-.21" style="fill:none;stroke:#00ff4a;stroke-width:.999997;stroke-linecap:round;stroke-linejoin:round;stroke-miterlimit:4;stroke-dasharray:none;stroke-opacity:1;visibility:visible"/><path d="m326.909 704.218-.189-.288-.173-.305-.15-.313-.14-.326-.128-.326-.104-.336-.095-.338-.069-.35-.046-.347-.035-.363-.013-.348M343.488 700.555l-.01.359-.036.36-.047.364-.068.359-.093.35-.118.348-.138.361-.164.36-.175.338-.209.336-.222.316-.232.302M343.488 700.554l.047-45.369M343.548 642.504l.082-77.577M343.652 540.797l.034-27.917M325.767 700.578l-.126-38.874M325.594 648.927l-.197-55.515M325.349 581.812l-.035-10.53M325.233 547.007 325.127 519M341.975 704.708l-.127.152-.164.14-.174.137-.2.128-.207.13-.243.128-.269.127-.29.118-.281.104-.29.093-.29.093-.302.079-.304.084-.338.07-.336.069-.36.069-.35.057M333.925 586.675l.034.254.012.246v.254l-.021.259-.037.221-.046.222-.059.221-.08.221-.081.197-.107.197-.102.186-.118.187-.127.187-.13.173-.301.327-.163.161-.174.15-.189.155-.185.127-.197.128-.221.127-.223.105-.22.107M326.757 581.25l.129-.042.127-.038.127-.01.15-.024h.155l.162.012.163.012.176.023.15.037.161.03.163.048.175.059.175.059.176.072.173.068.187.08.348.164.35.199.361.208.349.233.359.256.337.268.34.265.3.292.328.315.301.35.291.359.258.373.127.209.116.221.104.21.106.219.081.225.071.221.057.23.035.222M326.757 581.25l-9.54 3.772M296.515 593.19l-76.518 30.21M331.19 591.087l-14.057 5.642M296.435 605.037l-79.88 32.08M217.391 557.05l.909.674M215.926 542.599l.756-.826M216.473 555.688l-1.153-11.645M352.706 506.922l.593-.686M215.926 542.599l-.196.241-.164.245-.116.246-.083.244-.046.232v.233M216.473 555.688l.046.245.092.231.129.236.174.23.221.21.256.21M353.3 506.236l-.794-11.008M352.706 506.922l-122.583 53.7-8.112-1.548M218.3 557.725l.266.187.316.175.348.172.384.161.419.156.454.137.476.128.514.13.533.102M351.8 494.346l-7.95-1.222-.592-.082-.628-.072-.64-.07-.664-.045-.688-.035-.698-.024-.708-.01h-.734l-.732.022-.736.024-.742.034-.746.058-.732.059-.744.083-.736.08-.72.093-.708.115-.7.118-.685.128-.663.14-.654.15-.617.163-.603.162-.57.175-.547.189-.513.185-.477.198M325.873 494.962 219.59 539.956l-.488.21-.442.219-.419.22-.384.237-.347.23-.317.235-.279.232-.232.234M295.898 690.548l-88.258-26.04M295.818 703.134l-92.806-27.972M432.468 572.236l-17.694-4.173M371.776 558.713l-6.596-1.28M434.518 584.313l-21.815-4.952M368.322 569.492l-22.774-5.24" style="fill:none;stroke:#00ff4a;stroke-width:1.99999;stroke-linecap:round;stroke-linejoin:round;stroke-miterlimit:4;stroke-dasharray:none;stroke-opacity:1;visibility:visible"/><path d="m342.862 511.228.15.152.175.196.15.199.107.175.082.176.068.184.046.188.034.185.013.199M215.95 558.19l.044-.15.072-.14.092-.128.093-.105.152-.127.163-.105.174-.095.174-.068.197-.07.222-.061.141-.032M234.346 561.343l.164.141.185.186.14.15.115.161.105.167.082.163.046.137.024.14.011.142v.15l-.023.139M233.8 559.004l-.015.059-.022.254-.01.246v.245l.021.233.048.22.048.174.045.175.071.15.056.143.059.102.058.105.056.083.048.058.037.046.033.034.012.012M168.66 767.985l-.335-.255-.339-.266-.325-.292-.304-.315-.29-.325-.267-.328-.244-.348-.234-.371-.196-.372-.188-.399-.15-.394-.128-.408-.104-.407-.083-.43-.047-.421-.022-.358v-.364l.022-.372.036-.36.058-.358.082-.362M184.36 765.052l-.075.256-.079.256-.093.242-.093.246-.104.234M184.358 765.052l22.342-88.768M209.514 665.065l25.68-102.045M165.602 760.48l50.35-202.29M183.916 766.286l-.104.174-.118.173-.14.164-.15.163-.198.164-.208.162-.246.164-.254.16-.258.143-.267.137-.28.13-.29.117-.303.113-.315.12-.348.102-.36.106-.339.094-.35.09-.36.084-.361.068-.349.06-.36.07-.372.048-.384.056-.408.034-.396.036-.406.035-.408.021-.384.016-.383.009h-.373l-.384-.009-.42-.025-.427-.023-.408-.037-.397-.047-.384-.046-.36-.056-.35-.06-.337-.081-.373-.093-.338-.092-.325-.117-.292-.105-.265-.116-.258-.128-.242-.14-.224-.139M199.775 670.894v-.264l.012-.269.023-.27.048-.254.058-.257.068-.243.095-.256.105-.245.103-.222.118-.209.255-.43.304-.395.336-.383.326-.339.361-.314.36-.3.373-.268.382-.259.398-.232.42-.221.416-.21.234-.092.233-.094.22-.094.232-.07.222-.07.221-.057.222-.044.21-.048.209-.035.221-.025.2-.01h.182l.189.011.184.012.163.035.163.037M203.01 675.164l-.22-.068-.223-.094-.209-.105-.22-.116-.186-.117-.189-.128-.173-.138-.173-.153-.304-.29-.267-.325-.256-.35-.233-.384-.117-.222-.105-.232-.092-.234-.081-.244-.072-.256-.057-.279-.035-.268-.024-.268" style="fill:none;stroke:#00ff4a;stroke-width:1.99999;stroke-linecap:round;stroke-linejoin:round;stroke-miterlimit:4;stroke-dasharray:none;stroke-opacity:1;visibility:visible"/><path d="m141.506 652.953 7.13-1.812" style="fill:none;stroke:#00ff4a;stroke-width:.999997;stroke-linecap:round;stroke-linejoin:round;stroke-miterlimit:2;stroke-dasharray:none;stroke-opacity:1;visibility:visible"/><path d="m331.456 516.22-9.865-12.592M321.591 503.628l9.865 12.592" style="fill:none;stroke:#00ff4a;stroke-width:.999997;stroke-linecap:round;stroke-linejoin:round;stroke-miterlimit:4;stroke-dasharray:none;stroke-opacity:1;visibility:visible"/><path d="m343.548 642.504-.013 12.681M343.535 655.185l.013-12.681M325.594 648.927l.047 12.777M325.641 661.704l-.047-12.777M325.349 581.812l.048 11.6M325.397 593.412l-.048-11.6M343.687 512.882 325.127 519M331.19 591.087l-13.973-6.065M326.757 581.25l-9.624 15.479M368.322 569.492l-3.142-12.059M365.18 557.433l3.142 12.059M209.514 665.065l-2.814 11.219M206.7 676.284l2.814-11.219" style="fill:none;stroke:#00ff4a;stroke-width:1.99999;stroke-linecap:round;stroke-linejoin:round;stroke-miterlimit:4;stroke-dasharray:none;stroke-opacity:1;visibility:visible"/><path d="m450.892 580.733-1.702 3.964" style="fill:none;stroke:red;stroke-width:.999997;stroke-linecap:round;stroke-linejoin:round;stroke-miterlimit:4;stroke-dasharray:none;stroke-opacity:1;visibility:visible"/><path d="m313.771 701.084 13.138 3.134M314.84 575.969l10.474-4.687" style="fill:none;stroke:#00ff4a;stroke-width:1.99999;stroke-linecap:round;stroke-linejoin:round;stroke-miterlimit:4;stroke-dasharray:none;stroke-opacity:1;visibility:visible"/></svg>