<svg xmlns="http://www.w3.org/2000/svg" baseProfile="full" height="1122.52" preserveAspectRatio="xMinYMin meet" style="width:738px;height:965px" width="793.701" xml:space="preserve"><path d="m227.616 765.481 12.25 3.805-21.417 3.028 7.452-6.617 1.715-.216" style="fill:none;stroke:red;stroke-width:.999997;stroke-linecap:round;stroke-linejoin:round;stroke-miterlimit:4;stroke-dasharray:none;stroke-opacity:1;visibility:visible"/><path d="M207.489 784.42v-.907l2.67-2.408 1.981-.961.634-.438.3-.276 2.26-2s.384-.218.713-.28l28.466-4.091s.412-.064.68.039l3.427 1.071 1.713.389 2.805.31 4.397 1.357.023.924M257.626 788.945c.577.144 1.163.55 1.6 1.153.81 1.112.807 2.485-.008 3.073-.43.31-1.004.336-1.565.123M257.565 777.352c.577.144 1.161.548 1.601 1.153.807 1.112.804 2.485-.01 3.073-.431.31-1.004.334-1.566.123M207.593 789.028c-.263.246-.533.362-.774.297-.599-.167-.779-1.407-.399-2.768.245-.881.662-1.597 1.09-1.948M207.83 800.622c-.255.248-.52.361-.75.298-.582-.16-.75-1.38-.376-2.725.242-.872.654-1.575 1.07-1.925" style="fill:none;stroke:red;stroke-width:.666665;stroke-linecap:round;stroke-linejoin:round;stroke-miterlimit:4;stroke-dasharray:none;stroke-opacity:1;visibility:visible"/><path d="m236.99 793.263 7.728-1.148 5.945.535 6.542 2.095.454-.41v-1.111l1.076-.989-.024-.695c-1.484-.719-1.465-1.79-1.465-1.79.185.104.373-.082.373-.082l.515-.492M258.073 777.56l-.516.515s-.183.226-.372.062c0 0 .022 1.255 1.468 1.83l.017.699-1.092 1.049.04 7.028M207.076 800.286l.8.235.04 1.13.744.268 4.024-3.701 4.768-2.055 15.119-2.244M207.77 796.184l-.143-7.216-.925-.292M212.835 795.52c-.244.734-.71 1.236-1.048 1.127-.333-.113-.406-.793-.162-1.527.242-.73.712-1.237 1.045-1.125.335.11.41.795.165 1.526v-.001M212.563 783.94c-.245.73-.713 1.237-1.048 1.125-.334-.111-.408-.793-.164-1.525.243-.734.712-1.238 1.047-1.127.335.11.41.796.165 1.527" style="fill:none;stroke:red;stroke-width:.666665;stroke-linecap:round;stroke-linejoin:round;stroke-miterlimit:4;stroke-dasharray:none;stroke-opacity:1;visibility:visible"/><path d="M208.447 796.838c.454.205.444 1.19-.022 2.196-.275.601-.65 1.072-1.002 1.316M208.2 785.245c.43.195.41 1.174-.059 2.185-.275.596-.64 1.068-.984 1.317M212.292 781.382l1.156-1.047 3.673-1.585 27.414-3.948 3.589.33 2.375.742" style="fill:none;stroke:red;stroke-width:.666665;stroke-linecap:round;stroke-linejoin:round;stroke-miterlimit:4;stroke-dasharray:none;stroke-opacity:1;visibility:visible"/><path d="m235.589 788.95 9.07-1.317.554.041 1.549.45c.185.106.473.043.473.043l3.51-.597s1.67.721 3.094-.56c.366-.33.911-1.268.767-2.398-.49-3.842-3.943-4.812-3.943-4.812l-3.49-2.795c-.166-.205-.536-.29-.536-.29l-1.467-.469-.452-.064-28.547 4.112-.537.206-.968.84c-.165.147-.27.393-.27.393l-2.106 3.637s-2.23 2.18-2.288 6.044c-.03 1.736.865 2.27 1.09 2.29a1.82 1.82 0 0 0 1.408-.504l2.143-.283c.147 0 .291-.127.291-.127l.907-.8.145-.185 14.115-2.055" style="fill:none;stroke:red;stroke-width:.666665;stroke-linecap:round;stroke-linejoin:round;stroke-miterlimit:4;stroke-dasharray:none;stroke-opacity:1;visibility:visible"/><path d="m234.766 787.597 9.89-1.421.848.244 3.754-.596s1.445.576 1.445-.82c0-1.172-1.465-1.584-1.465-1.584l-3.796-3.023-.93-.268-27.144 3.945-.246.106-.392.349-2.292 3.928s-.824.739-.887 1.91c-.064 1.173.824.803.927.493l2.315-.227.556-.534 12.005-1.725M217.121 784.179l.127 6.003M244.74 780.21l.063 6.003M212.684 798.218l-.04-1.252 3.3-3.003.268-.144 14.388-2.106M258.04 792.625c-.43-.026-.928-.27-1.324-.708-.633-.7-.762-1.602-.295-2.024.212-.19.513-.247.836-.193M257.969 781.057c-.431-.025-.929-.273-1.324-.708-.632-.699-.763-1.601-.296-2.024.213-.192.516-.25.836-.192M251.853 777.329c.54.541.653 1.305.25 1.705-.402.399-1.17.279-1.712-.264-.544-.545-.656-1.311-.248-1.706.404-.402 1.17-.282 1.71.265M251.951 788.917c.54.543.659 1.302.264 1.693-.394.39-1.155.263-1.693-.28-.543-.551-.661-1.304-.265-1.694.392-.391 1.153-.266 1.693.279l.001.002" style="fill:none;stroke:red;stroke-width:.666665;stroke-linecap:round;stroke-linejoin:round;stroke-miterlimit:4;stroke-dasharray:none;stroke-opacity:1;visibility:visible"/><path d="m441.13 839.515.55-7.247M451.414 835.348l-8.721-2.656 7.88 12.617-.132 1.594" style="fill:none;stroke:red;stroke-width:.999997;stroke-linecap:round;stroke-linejoin:round;stroke-miterlimit:4;stroke-dasharray:none;stroke-opacity:1;visibility:visible"/><path d="M422.108 833.537a3.587 3.587 0 0 1-1.06-.717c-1.09-1.057-1.325-2.56-.525-3.358.43-.428 1.072-.564 1.744-.432M422.515 844.554a3.583 3.583 0 0 1-1.057-.713c-.8-.771-1.138-1.782-.954-2.582" style="fill:none;stroke:red;stroke-width:.666665;stroke-linecap:round;stroke-linejoin:round;stroke-miterlimit:4;stroke-dasharray:none;stroke-opacity:1;visibility:visible"/><path d="M423.158 832.463a3.483 3.483 0 0 1-1.058-.713c-.798-.77-1.137-1.78-.953-2.579M421.466 845.669a3.527 3.527 0 0 1-1.06-.714c-1.091-1.057-1.326-2.56-.526-3.357.43-.43 1.072-.567 1.744-.435M438.075 860.895l-3.705-6.213" style="fill:none;stroke:red;stroke-width:.666665;stroke-linecap:round;stroke-linejoin:round;stroke-miterlimit:4;stroke-dasharray:none;stroke-opacity:1;visibility:visible"/><path d="m447.207 850.742-10.419-17.312s-.43-.38-1.03-.716l-3.815-1.136s-1.801-.59-2.788-1.221l-1.587-.887-4.801-1.475-.385.425-.087 1.515s1.759.716 1.844 1.98l-.557-.171-1.072 1.096s-.516.886-.472 1.263l-.43 7.92s1.758.802 1.888 1.938l-.601-.127-1.03 1.137s-.515.76-.469 1.18l-.134 1.222M437.263 854.346l2.781 4.415" style="fill:none;stroke:red;stroke-width:.666665;stroke-linecap:round;stroke-linejoin:round;stroke-miterlimit:4;stroke-dasharray:none;stroke-opacity:1;visibility:visible"/><path d="m429.758 830.775-.044 1.265 1.801.59 2.66 1.726 9.946 16.64-.47 3.623M438.146 854.028l2.245 3.75M442.835 854.955l-8.919-14.953-.214-.13-.774-.249-4.372.589s-1.416-.591-1.756.589c-.345 1.181 1.452 1.938 1.584 1.897l4.159 3.241.987.379 1.777 2.968M102.832 891.217a.595.595 0 0 1 .257.016c.671.185.899 1.473.511 2.88-.2.737-.534 1.354-.903 1.757M102.316 878.617a.61.61 0 0 1 .26.016c.67.182.897 1.473.51 2.877-.205.737-.538 1.357-.906 1.757M428.958 845.217c.648.518.854 1.322.464 1.797-.394.473-1.24.443-1.886-.076-.652-.516-.854-1.323-.464-1.799.394-.472 1.24-.438 1.886.078M429.63 833.1c.638.51.844 1.306.453 1.782-.396.478-1.237.449-1.875-.064-.644-.508-.841-1.312-.45-1.784.392-.476 1.232-.448 1.872.066" style="fill:none;stroke:red;stroke-width:.666665;stroke-linecap:round;stroke-linejoin:round;stroke-miterlimit:4;stroke-dasharray:none;stroke-opacity:1;visibility:visible"/><path d="m435.116 835.958-1.114-.38s-.516-.125-.69-.041l-3.898.59s-3.216-1.013-4.418 1.433c-1.2 2.442 1.202 5.813 3.86 6.781l3.859 2.988s.385.17.597.254l.862.295M96.698 904.747l-4.378-14.68-.15-2.064c.022-1.153.768-1.761.768-1.761l2.54-2.172c1.092-.75 2.074-2.315 2.074-2.315.225-.508.712-1.142.712-1.142l3.198-2.783.832.3-.009 1.543s-1.115.749-1.377 2.992l.77.277s.849.47.835 1.133l.324 8.07s-1.317 1.239-1.377 3.059l.75.317s.762.359.811 1.089l.087 1.16-3.112 2.72" style="fill:none;stroke:red;stroke-width:.666665;stroke-linecap:round;stroke-linejoin:round;stroke-miterlimit:4;stroke-dasharray:none;stroke-opacity:1;visibility:visible"/><path d="m104.935 907.934-1.248-1.08-2.367-1.983-5.652-18.505 1.882-4.612" style="fill:none;stroke:red;stroke-width:.666665;stroke-linecap:round;stroke-linejoin:round;stroke-miterlimit:4;stroke-dasharray:none;stroke-opacity:1;visibility:visible"/><path d="m97.478 892.22 2.052-.32s.727-.82 1.1-.082c.371.739-.527 2.519-.983 2.681l-.978 1.584M95.026 899.263l-.4.615-.962.815s-.966.836-.814 1.764l.062 1.178M101.46 895.203s.014.43.052.602c0 0 .536.054.697-.285M100.908 882.667s.032.43.12.539c0 0 .425.139.65-.263M98.824 896.685a.363.363 0 0 1 .214.02c.328.131.412.718.228 1.393M98.616 885.862c-.324.817-.902 1.355-1.287 1.198-.385-.151-.429-.935-.104-1.753.325-.814.903-1.356 1.285-1.2.384.15.431.938.106 1.755" style="fill:none;stroke:red;stroke-width:.666665;stroke-linecap:round;stroke-linejoin:round;stroke-miterlimit:4;stroke-dasharray:none;stroke-opacity:1;visibility:visible"/><path d="m96.23 888.16 1.424-.225s1.1-1.006 2.208-.488c1.108.519.931 2.7.931 2.7l.137.603s.34 1.296-.164 2.612c-.5 1.323-1.109 1.67-1.109 1.67l-.912 1.438" style="fill:none;stroke:red;stroke-width:.666665;stroke-linecap:round;stroke-linejoin:round;stroke-miterlimit:4;stroke-dasharray:none;stroke-opacity:1;visibility:visible"/><path d="m211.225 771.145-1.03.803L90.546 877.259" style="fill:none;stroke:red;stroke-width:1.99999;stroke-linecap:round;stroke-linejoin:round;stroke-miterlimit:4;stroke-dasharray:none;stroke-opacity:1;visibility:visible"/><path d="m217.735 773.635-.75-.979-5.48-1.729-.28.219" style="fill:none;stroke:red;stroke-width:.999997;stroke-linecap:round;stroke-linejoin:round;stroke-miterlimit:4;stroke-dasharray:none;stroke-opacity:1;visibility:visible"/><path d="M448.414 886.121 333.01 1028.238l-.98.437L68.3 928.113M466.495 857.655l.459.73-.5 5.52-11.488 14.146" style="fill:none;stroke:red;stroke-width:1.99999;stroke-linecap:round;stroke-linejoin:round;stroke-miterlimit:4;stroke-dasharray:none;stroke-opacity:1;visibility:visible"/><path d="m92.88 903.385-4.27 3.833" style="fill:none;stroke:red;stroke-width:.999997;stroke-linecap:round;stroke-linejoin:round;stroke-miterlimit:4;stroke-dasharray:none;stroke-opacity:1;visibility:visible"/><path d="m307.426 982.814-214.543-79.43M244.672 766.218l129.096 40.125 21.514 6.686 46.672 14.506" style="fill:none;stroke:red;stroke-width:1.99999;stroke-linecap:round;stroke-linejoin:round;stroke-miterlimit:4;stroke-dasharray:none;stroke-opacity:1;visibility:visible"/><path d="m240.901 769.614 3.77-3.396M450.974 846.572l7.07 2.188" style="fill:none;stroke:red;stroke-width:.999997;stroke-linecap:round;stroke-linejoin:round;stroke-miterlimit:4;stroke-dasharray:none;stroke-opacity:1;visibility:visible"/><path d="m427.12 874.395 22.957-27.364M347.905 968.817l74.71-89.05M135.955 895.973l97.468-90.39M117.978 912.648l6.195-5.75M146.2 923.093l117.556-112.612M174.86 933.718l115.874-114.625M204.11 944.551l113.941-116.645M233.88 955.551l111.964-118.689M323.525 901.57l50.528-55.56M264.224 966.77l43.528-47.859M350.462 914.983l46.472-53.03M295.076 978.181l11.813-13.479M424.042 873.092l8.01-9.507M348.02 963.309l71.82-85.23" style="fill:none;stroke:red;stroke-width:1.99999;stroke-linecap:round;stroke-linejoin:round;stroke-miterlimit:4;stroke-dasharray:none;stroke-opacity:1;visibility:visible"/><path d="m91.256 885.905 126.084-112.73M240.901 769.614l132.409 41.464 20.748 6.5 47.528 14.883M429.664 882.603l-82.232 98.182M457.536 849.322l-23.437 27.985M449.575 878.41l16.917-20.755M332.447 1022.093l111.541-136.829M68.244 921.179l264.202 100.914-.167 6.458M100.088 900.997l108.932-98.292M246.88 792.385l134.674 42.94 17.474 5.573 30.734 9.799M118.595 904.322l-6.617 6.104M232.478 799.314l-102.214 94.25M258.901 808.89 141.035 921.092M285.714 817.53 169.589 931.76M313.01 826.28 198.696 942.572M340.676 835.218 228.38 953.51M307.902 910.848l-49.333 53.865M368.842 844.301l-50.097 54.708M307.077 955.994l-17.715 20.073M393.234 858.348l-42.34 47.987M416.363 875.003l-67.981 80.225M307.204 988.593 88.611 907.219M456.036 870.593l-.563 6.875M242.832 802.437l158.298 51.127M221.811 795.648l9.29 3M258.922 808.87l.112 4.333 1.388.446M285.714 817.489l.041 4.333 1.648.542M313.01 826.301l-.083 4.333 1.834.584M340.676 835.218l-.104 4.375 2.021.666M368.821 844.364l-.144 4.333 2.228.73" style="fill:none;stroke:red;stroke-width:.999997;stroke-linecap:round;stroke-linejoin:round;stroke-miterlimit:4;stroke-dasharray:none;stroke-opacity:1;visibility:visible"/><path d="M287.466 780.7c-.003.86-1.29 1.554-2.873 1.549-1.588-.007-2.87-.707-2.867-1.567.001-.861 1.29-1.554 2.877-1.55 1.584.007 2.864.708 2.863 1.57v-.002M400.511 815.987c-.039.915-1.395 1.603-3.032 1.533-1.639-.066-2.935-.86-2.897-1.777.037-.913 1.393-1.6 3.032-1.532 1.638.069 2.932.86 2.896 1.776h.001M262.417 967.731c.017 1.201-1.48 2.195-3.347 2.219-1.857.024-3.381-.932-3.397-2.136-.014-1.206 1.485-2.2 3.345-2.224 1.864-.02 3.383.936 3.399 2.141M138.965 921.875c.06 1.076-1.308 2.027-3.061 2.125-1.75.096-3.218-.696-3.278-1.77-.06-1.076 1.311-2.027 3.06-2.123 1.751-.097 3.219.69 3.279 1.768M191.273 794.597c.021.865-1.253 1.598-2.847 1.636-1.593.036-2.9-.636-2.918-1.503-.02-.868 1.252-1.6 2.848-1.636 1.592-.036 2.897.636 2.917 1.503M118.632 858.671c.082.979-1.219 1.886-2.904 2.024-1.683.14-3.116-.54-3.196-1.518-.083-.979 1.218-1.887 2.905-2.024 1.683-.14 3.113.54 3.195 1.517v.001" style="fill:none;stroke:red;stroke-width:.666665;stroke-linecap:round;stroke-linejoin:round;stroke-miterlimit:4;stroke-dasharray:none;stroke-opacity:1;visibility:visible"/><path d="m346.368 1005.35-.232 6.75" style="fill:none;stroke:red;stroke-width:.999997;stroke-linecap:round;stroke-linejoin:round;stroke-miterlimit:4;stroke-dasharray:none;stroke-opacity:1;visibility:visible"/><path d="M439.428 851.322c.232 1.385.076 2.563-.352 2.633-.424.072-.954-.994-1.184-2.38-.23-1.381-.072-2.558.354-2.628.424-.073.953.995 1.182 2.375M372.932 948.934c-.072 1.148-1.602 1.981-3.417 1.865-1.815-.115-3.221-1.133-3.148-2.283.073-1.145 1.599-1.976 3.416-1.86 1.81.114 3.221 1.131 3.15 2.277l-.001.001M435.264 874.154c-.064 1.008-1.513 1.732-3.237 1.623-1.728-.11-3.068-1.011-3.007-2.019.064-1.005 1.515-1.727 3.24-1.617 1.723.109 3.067 1.009 3.004 2.013" style="fill:none;stroke:red;stroke-width:.666665;stroke-linecap:round;stroke-linejoin:round;stroke-miterlimit:4;stroke-dasharray:none;stroke-opacity:1;visibility:visible"/><path d="M434.504 853.56a4.573 4.573 0 0 0-.041-.905 4.456 4.456 0 0 0-.708-1.846M433.756 850.807a1.632 1.632 0 0 0-.56-.527" style="fill:none;stroke:red;stroke-width:.666665;stroke-linecap:round;stroke-linejoin:round;stroke-miterlimit:2;stroke-dasharray:none;stroke-opacity:1;visibility:visible"/><path d="M433.196 850.28a.403.403 0 0 0-.26-.05.424.424 0 0 0-.292.195M433.619 854.37c.035.027.076.052.115.076M434.283 854.294a1.66 1.66 0 0 0 .221-.735M436.45 854.053a.487.487 0 0 0 .262.046.416.416 0 0 0 .292-.199" style="fill:none;stroke:red;stroke-width:.666665;stroke-linecap:round;stroke-linejoin:round;stroke-miterlimit:2;stroke-dasharray:none;stroke-opacity:1;visibility:visible"/><path d="M436.338 853.977c.036.023.078.049.112.076M437.004 853.898c.128-.221.203-.476.219-.735M437.223 853.163a4.537 4.537 0 0 0-.75-2.752M436.472 850.411a1.627 1.627 0 0 0-.557-.528M435.915 849.886a.41.41 0 0 0-.552.148M435.363 850.034c-.003.008-.008.013-.013.024M433.732 854.445a.407.407 0 0 0 .258.045.387.387 0 0 0 .292-.196M103.192 900.169a.435.435 0 0 0-.259-.052.408.408 0 0 0-.296.197M103.306 900.245a1.46 1.46 0 0 0-.116-.078M102.637 900.315a1.701 1.701 0 0 0-.221.735" style="fill:none;stroke:red;stroke-width:.666665;stroke-linecap:round;stroke-linejoin:round;stroke-miterlimit:2;stroke-dasharray:none;stroke-opacity:1;visibility:visible"/><path d="M102.416 901.05a4.563 4.563 0 0 0 .736 2.76M103.15 903.81c.141.216.334.396.56.527M103.71 904.335a.372.372 0 0 0 .258.05.401.401 0 0 0 .292-.195M104.262 904.19c.003-.008.01-.016.015-.025M106.586 903.627a.33.33 0 0 0 .252.066.33.33 0 0 0 .222-.131M107.061 903.562a1.4 1.4 0 0 0 .265-.607M106.982 900.507a1.49 1.49 0 0 0-.42-.51M106.56 899.997a.325.325 0 0 0-.25-.063.33.33 0 0 0-.222.13M106.086 900.065a1.373 1.373 0 0 0-.265.605M105.82 900.671a3.893 3.893 0 0 0 .346 2.449M106.164 903.12c.102.198.248.376.422.51" style="fill:none;stroke:red;stroke-width:.666665;stroke-linecap:round;stroke-linejoin:round;stroke-miterlimit:2;stroke-dasharray:none;stroke-opacity:1;visibility:visible"/><path d="M366.91 970.928c-.4 1.192-1.055 2.047-1.46 1.912-.403-.138-.409-1.216-.012-2.404.401-1.193 1.056-2.049 1.462-1.912.406.136.411 1.21.01 2.404M442.592 878.8c-.366 1.092-.942 1.89-1.278 1.777-.336-.114-.312-1.092.052-2.191.368-1.096.942-1.892 1.28-1.779.338.113.313 1.094-.053 2.193h-.001M406.274 923.062c-.379 1.13-.996 1.942-1.374 1.817-.377-.127-.378-1.145 0-2.276.379-1.13.995-1.942 1.374-1.813.376.123.376 1.14 0 2.272M272.106 986.275c.924.883 1.197 2.092.615 2.701-.584.61-1.804.386-2.731-.496-.919-.882-1.195-2.093-.613-2.702.585-.61 1.806-.388 2.729.497M195.296 957.442c.902.872 1.176 2.057.609 2.638-.568.583-1.756.346-2.66-.526-.903-.878-1.173-2.064-.605-2.644.566-.583 1.754-.346 2.656.531v.001M121.988 929.996c.825.88 1.029 2.032.458 2.571-.576.533-1.708.253-2.536-.627-.826-.884-1.029-2.034-.454-2.573.57-.535 1.704-.253 2.532.63v-.001M232.57 793.92l4.42-.657M236.99 793.263l-4.42.656M212.563 783.94l.272 11.58M212.684 798.218l.151-2.698M212.835 795.52l-.272-11.58M207.51 784.609l4.782-3.227M257.565 777.352l-7.066-1.478M230.6 791.713l4.989-2.763M234.766 787.597l-4.665 2.153M230.101 789.75l4.665-2.153M235.589 788.95l-6.235-.576M207.489 784.42l9.632-.241M212.835 795.52l4.413-5.338M257.558 777.149l-12.818 3.061M212.835 795.52l-.151 2.698M235.589 788.95l-4.989 2.763M251.951 788.917l-.098-11.588M251.853 777.329l.098 11.588" style="fill:none;stroke:red;stroke-width:.666665;stroke-linecap:round;stroke-linejoin:round;stroke-miterlimit:4;stroke-dasharray:none;stroke-opacity:1;visibility:visible"/><path d="m437.223 853.163 3.907-13.648M450.974 846.572l.44-11.224" style="fill:none;stroke:red;stroke-width:.999997;stroke-linecap:round;stroke-linejoin:round;stroke-miterlimit:4;stroke-dasharray:none;stroke-opacity:1;visibility:visible"/><path d="m433.732 854.445-11.217-9.891M436.45 854.053l-14.984-8.384M437.263 854.346l.812 6.549M438.146 854.028l9.061-3.286M434.504 853.559l-13.242-6.186M438.146 854.028l1.898 4.733M441.13 839.515l-11.372-8.74M437.263 854.346l3.128 3.433M436.45 854.053l-7.492-8.836M433.619 854.37l-4.661-9.153M428.958 845.217l.672-12.117M428.958 845.217l.672-12.117M450.974 846.572l-15.858-10.614M450.974 846.572l-16.8 1.306M106.586 903.627l-1.651 4.307M98.616 885.862l-1.066-4.108M98.745 896.47l-3.719 2.793M92.912 903.635l8.548-8.432M105.82 900.671l-6.554-2.573M104.262 904.19l-5.646-18.328M97.55 881.754l1.066 4.108" style="fill:none;stroke:red;stroke-width:.666665;stroke-linecap:round;stroke-linejoin:round;stroke-miterlimit:4;stroke-dasharray:none;stroke-opacity:1;visibility:visible"/><path d="m449.575 878.41-1.161 7.711M422.614 879.767l4.506-5.372M424.042 873.092l-1.428 6.675M124.173 906.899l11.782-10.926M118.595 904.322l-.617 8.326M111.978 910.426l12.195-3.527M307.902 910.848l15.623-9.278M419.84 878.079l4.202-4.987M427.12 874.395l4.933-10.81M424.042 873.092l-4.202 4.987" style="fill:none;stroke:red;stroke-width:1.99999;stroke-linecap:round;stroke-linejoin:round;stroke-miterlimit:4;stroke-dasharray:none;stroke-opacity:1;visibility:visible"/><path d="m92.88 903.385-1.624-17.48M434.099 877.307l-4.435 5.296M429.664 882.603l4.435-5.296M448.414 886.121l1.161-7.711M449.575 878.41l-5.587 6.854M250.499 775.874l-3.619 16.511M117.978 912.648l.617-8.326M124.173 906.899l-12.195 3.527M124.173 906.899l6.09-13.335M318.745 899.009l-10.843 11.839M307.902 910.848l10.843-11.84M424.042 873.092l-7.679 1.911M231.102 798.648l11.73 3.789M242.832 802.437l-11.73-3.789" style="fill:none;stroke:red;stroke-width:.999997;stroke-linecap:round;stroke-linejoin:round;stroke-miterlimit:4;stroke-dasharray:none;stroke-opacity:1;visibility:visible"/><path d="m121.988 929.996 16.977-8.121M207.77 796.184l-16.497-1.587M138.965 921.875l-16.977 8.121" style="fill:none;stroke:red;stroke-width:.666665;stroke-linecap:round;stroke-linejoin:round;stroke-miterlimit:4;stroke-dasharray:none;stroke-opacity:1;visibility:visible"/><path d="m73.922 817.343-3.75-1.292M92.662 903.463l-6.863-82.08-3.21-1.081M68.718 809.096l-11.044 8.915 9.817 102.833.755.336-.67.418.503 5.779.22.737M82.5 820.267l-1.244-13.841-4.733-1.623" style="fill:none;stroke:#00ff4a;stroke-width:1.99999;stroke-linecap:round;stroke-linejoin:round;stroke-miterlimit:4;stroke-dasharray:none;stroke-opacity:1;visibility:visible"/><path d="m78.13 824.35 2.917 1.013 4.751-3.981M58.61 817.551l13.75 4.8M81.047 825.364l9.228 103.354M69.901 815.78l11.356-9.356M81.19 819.305l.004.05c.094 1.371-1.728 2.615-4.07 2.775-2.344.16-4.462-.797-4.555-2.17" style="fill:none;stroke:#00ff4a;stroke-width:.999997;stroke-linecap:round;stroke-linejoin:round;stroke-miterlimit:4;stroke-dasharray:none;stroke-opacity:1;visibility:visible"/><path d="M72.57 819.96c-.095-1.373 1.87-2.644 4.214-2.804 2.316-.161 4.269.799 4.408 2.149M81.36 821.025l-.207-2.036" style="fill:none;stroke:#00ff4a;stroke-width:1.99999;stroke-linecap:round;stroke-linejoin:round;stroke-miterlimit:4;stroke-dasharray:none;stroke-opacity:1;visibility:visible"/><path d="M72.713 821.635c.028.388.28.8.5 1.167.272.45.46.695 1.208 1 1.421.579 1.71.032 1.903.003.306-.05.63.021.956-.003 2.348-.159 4.174-1.401 4.078-2.776" style="fill:none;stroke:#00ff4a;stroke-width:.999997;stroke-linecap:round;stroke-linejoin:round;stroke-miterlimit:4;stroke-dasharray:none;stroke-opacity:1;visibility:visible"/><path d="m72.567 819.893.147 1.743" style="fill:none;stroke:#00ff4a;stroke-width:1.99999;stroke-linecap:round;stroke-linejoin:round;stroke-miterlimit:4;stroke-dasharray:none;stroke-opacity:1;visibility:visible"/><path d="M77.446 806.797c.094 1.352-1.716 2.573-4.036 2.73-2.326.157-4.285-.811-4.378-2.157" style="fill:none;stroke:#00ff4a;stroke-width:.999997;stroke-linecap:round;stroke-linejoin:round;stroke-miterlimit:4;stroke-dasharray:none;stroke-opacity:1;visibility:visible"/><path d="M69.033 807.37c-.09-1.353 1.717-2.575 4.041-2.73 2.324-.157 4.282.81 4.376 2.156M77.611 808.44l-.164-1.643" style="fill:none;stroke:#00ff4a;stroke-width:1.99999;stroke-linecap:round;stroke-linejoin:round;stroke-miterlimit:4;stroke-dasharray:none;stroke-opacity:1;visibility:visible"/><path d="M69.174 809.015c.092 1.352 2.054 2.315 4.384 2.156 2.33-.156 4.144-1.38 4.052-2.733" style="fill:none;stroke:#00ff4a;stroke-width:.999997;stroke-linecap:round;stroke-linejoin:round;stroke-miterlimit:4;stroke-dasharray:none;stroke-opacity:1;visibility:visible"/><path d="m69.027 807.28.148 1.735M78.13 824.35l-4.208-7.007M73.922 817.343l2.6-12.54" style="fill:none;stroke:#00ff4a;stroke-width:1.99999;stroke-linecap:round;stroke-linejoin:round;stroke-miterlimit:4;stroke-dasharray:none;stroke-opacity:1;visibility:visible"/><path d="m72.36 822.351 5.77 1.999M69.901 815.78l15.897 5.602M73.922 817.343l-15.312.208M81.36 821.025l-.313 4.339" style="fill:none;stroke:#00ff4a;stroke-width:.999997;stroke-linecap:round;stroke-linejoin:round;stroke-miterlimit:4;stroke-dasharray:none;stroke-opacity:1;visibility:visible"/><path d="m307.279 987.744 1.384-83.125 3.92-4.359.761-.544.967.339" style="fill:none;stroke:#9500ff;stroke-width:1.99999;stroke-linecap:round;stroke-linejoin:round;stroke-miterlimit:4;stroke-dasharray:none;stroke-opacity:1;visibility:visible"/><path d="m306.884 1011.51.395-23.765M347.445 979.744l-.895 24.972" style="fill:none;stroke:#9500ff;stroke-width:.999997;stroke-linecap:round;stroke-linejoin:round;stroke-miterlimit:4;stroke-dasharray:none;stroke-opacity:1;visibility:visible"/><path d="m341.366 895.53.687-.437 7.617 2.604.368.172.299 1.281-2.89 80.593M323.634 903.322l8.208 2.81 5.376-6" style="fill:none;stroke:#9500ff;stroke-width:1.99999;stroke-linecap:round;stroke-linejoin:round;stroke-miterlimit:4;stroke-dasharray:none;stroke-opacity:1;visibility:visible"/><path d="m314.728 907.051-6.04-2.112M345.814 903.184l-10.013 11.24-18.648-6.527M350.087 898.387l-2.467 2.77M335.8 914.424l-3.084 106.497" style="fill:none;stroke:#9500ff;stroke-width:.999997;stroke-linecap:round;stroke-linejoin:round;stroke-miterlimit:4;stroke-dasharray:none;stroke-opacity:1;visibility:visible"/><path d="m313.668 902.739.012 2.18M322.89 905.168l.017-2.208" style="fill:none;stroke:#9500ff;stroke-width:1.99999;stroke-linecap:round;stroke-linejoin:round;stroke-miterlimit:4;stroke-dasharray:none;stroke-opacity:1;visibility:visible"/><path d="M322.905 902.774c-.032 1.508-2.126 2.676-4.667 2.615-2.545-.06-4.576-1.331-4.54-2.836" style="fill:none;stroke:#9500ff;stroke-width:.999997;stroke-linecap:round;stroke-linejoin:round;stroke-miterlimit:4;stroke-dasharray:none;stroke-opacity:1;visibility:visible"/><path d="M313.697 902.551c.036-1.508 2.129-2.674 4.672-2.614 2.544.06 4.577 1.33 4.536 2.836" style="fill:none;stroke:#9500ff;stroke-width:1.99999;stroke-linecap:round;stroke-linejoin:round;stroke-miterlimit:4;stroke-dasharray:none;stroke-opacity:1;visibility:visible"/><path d="M313.678 904.947c-.013.547.35 1.014.861 1.484.282.259.539.923 1.491 1.17 1.329.344 2.039-.083 2.192-.078 2.167.052 4.112-.783 4.667-2.353" style="fill:none;stroke:#9500ff;stroke-width:.999997;stroke-linecap:round;stroke-linejoin:round;stroke-miterlimit:4;stroke-dasharray:none;stroke-opacity:1;visibility:visible"/><path d="m337.712 898.778-.005 2.172M346.866 901.278l.036-2.2" style="fill:none;stroke:#9500ff;stroke-width:1.99999;stroke-linecap:round;stroke-linejoin:round;stroke-miterlimit:4;stroke-dasharray:none;stroke-opacity:1;visibility:visible"/><path d="M346.906 898.89c-.048 1.503-2.139 2.65-4.672 2.568-2.53-.084-4.544-1.37-4.492-2.872" style="fill:none;stroke:#9500ff;stroke-width:.999997;stroke-linecap:round;stroke-linejoin:round;stroke-miterlimit:4;stroke-dasharray:none;stroke-opacity:1;visibility:visible"/><path d="M337.743 898.587c.047-1.5 2.14-2.647 4.67-2.562 2.529.08 4.542 1.365 4.493 2.865" style="fill:none;stroke:#9500ff;stroke-width:1.99999;stroke-linecap:round;stroke-linejoin:round;stroke-miterlimit:4;stroke-dasharray:none;stroke-opacity:1;visibility:visible"/><path d="M337.703 900.977c-.043 1.36 1.972 2.523 4.497 2.609 1.023.03 1.927-.27 2.74-.393.345-.05.853-.173 1.155-.396.505-.375.751-1.012.769-1.518" style="fill:none;stroke:#9500ff;stroke-width:.999997;stroke-linecap:round;stroke-linejoin:round;stroke-miterlimit:4;stroke-dasharray:none;stroke-opacity:1;visibility:visible"/><path d="m298.09 932.452 1.205 2.647" style="fill:none;stroke:#9500ff;stroke-width:.666665;stroke-linecap:round;stroke-linejoin:round;stroke-miterlimit:4;stroke-dasharray:none;stroke-opacity:1;visibility:visible"/><path d="m308.688 904.939 5.623-4.884" style="fill:none;stroke:#9500ff;stroke-width:1.99999;stroke-linecap:round;stroke-linejoin:round;stroke-miterlimit:4;stroke-dasharray:none;stroke-opacity:1;visibility:visible"/><path d="m317.153 907.897-2.425-.846M314.311 900.055l-5.623 4.884M347.62 901.158l-1.806 2.026M314.728 907.051l2.425.846M337.707 900.95l-1.907 13.474" style="fill:none;stroke:#9500ff;stroke-width:.999997;stroke-linecap:round;stroke-linejoin:round;stroke-miterlimit:4;stroke-dasharray:none;stroke-opacity:1;visibility:visible"/><path d="m232.211 686.895-9.512-2.776-5.284 4.137M244.681 766.177l-.924-75.973-3.696-1.055M211.85 692.729l-2.679 2.17 2.056 76.247" style="fill:none;stroke:#ffdf00;stroke-width:1.99999;stroke-linecap:round;stroke-linejoin:round;stroke-miterlimit:4;stroke-dasharray:none;stroke-opacity:1;visibility:visible"/><path d="m209.214 695.046 6.737 1.99 9.082-7.526 14.64 4.25 4.082-3.558M216.443 696.578l1.868 80.265M239.089 693.62l1.167 80.057M226.589 765.593l-1.556-76.084M219.84 690.973l-.001-.137" style="fill:none;stroke:#ffdf00;stroke-width:.999997;stroke-linecap:round;stroke-linejoin:round;stroke-miterlimit:4;stroke-dasharray:none;stroke-opacity:1;visibility:visible"/><path d="m212.203 691 .052 1.573M219.87 692.567l-.028-1.593" style="fill:none;stroke:#ffdf00;stroke-width:1.99999;stroke-linecap:round;stroke-linejoin:round;stroke-miterlimit:4;stroke-dasharray:none;stroke-opacity:1;visibility:visible"/><path d="M219.838 690.84c0 1.084-1.675 1.97-3.74 1.97-2.065 0-3.875-.859-3.875-1.945" style="fill:none;stroke:#ffdf00;stroke-width:.999997;stroke-linecap:round;stroke-linejoin:round;stroke-miterlimit:4;stroke-dasharray:none;stroke-opacity:1;visibility:visible"/><path d="M212.223 690.865c0-1.088 1.81-1.995 3.875-1.995s3.74.88 3.74 1.967" style="fill:none;stroke:#ffdf00;stroke-width:1.99999;stroke-linecap:round;stroke-linejoin:round;stroke-miterlimit:4;stroke-dasharray:none;stroke-opacity:1;visibility:visible"/><path d="M212.254 692.594c0 .982 1.81 1.751 3.876 1.751s3.739-.795 3.739-1.779" style="fill:none;stroke:#ffdf00;stroke-width:.999997;stroke-linecap:round;stroke-linejoin:round;stroke-miterlimit:4;stroke-dasharray:none;stroke-opacity:1;visibility:visible"/><path d="m232.12 688.351.052 1.555M239.728 689.898l-.028-1.577" style="fill:none;stroke:#ffdf00;stroke-width:1.99999;stroke-linecap:round;stroke-linejoin:round;stroke-miterlimit:4;stroke-dasharray:none;stroke-opacity:1;visibility:visible"/><path d="M239.697 688.188c0 1.076-1.6 1.992-3.667 1.992-2.065 0-3.89-.888-3.89-1.964" style="fill:none;stroke:#ffdf00;stroke-width:.999997;stroke-linecap:round;stroke-linejoin:round;stroke-miterlimit:4;stroke-dasharray:none;stroke-opacity:1;visibility:visible"/><path d="M232.14 688.217c0-1.077 1.826-1.93 3.89-1.93 2.067.001 3.667.827 3.667 1.903" style="fill:none;stroke:#ffdf00;stroke-width:1.99999;stroke-linecap:round;stroke-linejoin:round;stroke-miterlimit:4;stroke-dasharray:none;stroke-opacity:1;visibility:visible"/><path d="M232.171 689.928c0 .972 1.824 1.776 3.89 1.776s3.666-.834 3.666-1.804" style="fill:none;stroke:#ffdf00;stroke-width:.999997;stroke-linecap:round;stroke-linejoin:round;stroke-miterlimit:4;stroke-dasharray:none;stroke-opacity:1;visibility:visible"/><path d="m240.061 689.15-7.85-2.255M211.85 692.729l5.565-4.473" style="fill:none;stroke:#ffdf00;stroke-width:1.99999;stroke-linecap:round;stroke-linejoin:round;stroke-miterlimit:4;stroke-dasharray:none;stroke-opacity:1;visibility:visible"/><path d="m219.87 692.567-3.427 4.011M239.728 689.898l-.639 3.722M219.838 690.837l5.195-1.328" style="fill:none;stroke:#ffdf00;stroke-width:.999997;stroke-linecap:round;stroke-linejoin:round;stroke-miterlimit:4;stroke-dasharray:none;stroke-opacity:1;visibility:visible"/><path d="m441.68 832.27 5.972-78.866 3.276-3.544.984.218M461.08 752.768l13.552 3.896.688.459.479.686-8.714 99.01-.59.837M459.302 764.208l-2.44 2.685-6.29 78.416M464.002 759.033l-.541.596" style="fill:none;stroke:#00d4ff;stroke-width:1.99999;stroke-linecap:round;stroke-linejoin:round;stroke-miterlimit:4;stroke-dasharray:none;stroke-opacity:1;visibility:visible"/><path d="m466.719 766.913-2.252 2.563-7.584-2.208M475.32 757.122l-6.49 7.388M464.466 769.476l-7.65 99.917M447.734 753.966l16.503 4.76" style="fill:none;stroke:#00d4ff;stroke-width:.999997;stroke-linecap:round;stroke-linejoin:round;stroke-miterlimit:4;stroke-dasharray:none;stroke-opacity:1;visibility:visible"/><path d="m452.224 751.492-.076 1.727M460.135 753.846l.101-1.75" style="fill:none;stroke:#00d4ff;stroke-width:1.99999;stroke-linecap:round;stroke-linejoin:round;stroke-miterlimit:4;stroke-dasharray:none;stroke-opacity:1;visibility:visible"/><path d="M460.246 751.95c-.091 1.194-1.954 2.022-4.16 1.855-2.203-.17-3.919-1.27-3.829-2.461" style="fill:none;stroke:#00d4ff;stroke-width:.999997;stroke-linecap:round;stroke-linejoin:round;stroke-miterlimit:4;stroke-dasharray:none;stroke-opacity:1;visibility:visible"/><path d="M452.256 751.344c.09-1.192 1.954-2.024 4.156-1.852 2.208.166 3.926 1.266 3.834 2.458" style="fill:none;stroke:#00d4ff;stroke-width:1.99999;stroke-linecap:round;stroke-linejoin:round;stroke-miterlimit:4;stroke-dasharray:none;stroke-opacity:1;visibility:visible"/><path d="M452.146 753.24c-.083 1.08 1.638 2.086 3.849 2.255 2.205.166 4.06-.569 4.14-1.647" style="fill:none;stroke:#00d4ff;stroke-width:.999997;stroke-linecap:round;stroke-linejoin:round;stroke-miterlimit:4;stroke-dasharray:none;stroke-opacity:1;visibility:visible"/><path d="m459.888 762.68-.077 1.763M467.885 765.077l.104-1.784" style="fill:none;stroke:#00d4ff;stroke-width:1.99999;stroke-linecap:round;stroke-linejoin:round;stroke-miterlimit:4;stroke-dasharray:none;stroke-opacity:1;visibility:visible"/><path d="M467.999 763.144c-.094 1.216-1.976 2.062-4.205 1.893-2.23-.17-3.962-1.292-3.871-2.508" style="fill:none;stroke:#00d4ff;stroke-width:.999997;stroke-linecap:round;stroke-linejoin:round;stroke-miterlimit:4;stroke-dasharray:none;stroke-opacity:1;visibility:visible"/><path d="M459.923 762.529c.09-1.216 1.972-2.063 4.203-1.893 2.229.169 3.964 1.292 3.873 2.508" style="fill:none;stroke:#00d4ff;stroke-width:1.99999;stroke-linecap:round;stroke-linejoin:round;stroke-miterlimit:4;stroke-dasharray:none;stroke-opacity:1;visibility:visible"/><path d="M459.808 764.464c-.084 1.1 1.656 2.128 3.888 2.296.954.073 1.841-.023 2.552-.242.358-.112.654 0 1.05-.292.405-.298.553-.754.585-1.148" style="fill:none;stroke:#00d4ff;stroke-width:.999997;stroke-linecap:round;stroke-linejoin:round;stroke-miterlimit:4;stroke-dasharray:none;stroke-opacity:1;visibility:visible"/><path d="m447.734 753.966 4.178-3.888M464.237 758.726l-3.157-5.958M459.302 764.208l4.159-4.579" style="fill:none;stroke:#00d4ff;stroke-width:1.99999;stroke-linecap:round;stroke-linejoin:round;stroke-miterlimit:4;stroke-dasharray:none;stroke-opacity:1;visibility:visible"/><path d="m468.83 764.51-2.111 2.403M464.237 758.726l-7.354 8.542M463.46 759.629l11.86-2.507M466.719 766.913l2.112-2.403M467.885 765.077l-3.419 4.399M451.912 750.078l-4.178 3.888" style="fill:none;stroke:#00d4ff;stroke-width:.999997;stroke-linecap:round;stroke-linejoin:round;stroke-miterlimit:4;stroke-dasharray:none;stroke-opacity:1;visibility:visible"/><path d="m251.853 777.329-7.05 8.884M421.262 847.373l.846-13.836M421.262 847.373l1.896-14.91M98.616 885.862l-1.918 18.885" style="fill:none;stroke:red;stroke-width:.666665;stroke-linecap:round;stroke-linejoin:round;stroke-miterlimit:4;stroke-dasharray:none;stroke-opacity:1;visibility:visible"/><path d="m307.902 910.848-.15 8.063M345.814 903.184l4.648 11.799" style="fill:none;stroke:red;stroke-width:1.99999;stroke-linecap:round;stroke-linejoin:round;stroke-miterlimit:4;stroke-dasharray:none;stroke-opacity:1;visibility:visible"/><path d="m345.814 903.184 5.08 3.15M456.815 869.393l-.779 1.2" style="fill:none;stroke:red;stroke-width:.999997;stroke-linecap:round;stroke-linejoin:round;stroke-miterlimit:4;stroke-dasharray:none;stroke-opacity:1;visibility:visible"/><path d="m438.075 860.895 1.353-9.573M437.263 854.346l2.165-3.024M448.414 886.121l-13.15-11.967M449.575 878.41l-14.311-4.256" style="fill:none;stroke:red;stroke-width:.666665;stroke-linecap:round;stroke-linejoin:round;stroke-miterlimit:4;stroke-dasharray:none;stroke-opacity:1;visibility:visible"/><path d="m323.525 901.57 17.841-6.04" style="fill:none;stroke:#9500ff;stroke-width:1.99999;stroke-linecap:round;stroke-linejoin:round;stroke-miterlimit:4;stroke-dasharray:none;stroke-opacity:1;visibility:visible"/><path d="m345.814 903.184 4.273-4.797" style="fill:none;stroke:#9500ff;stroke-width:.999997;stroke-linecap:round;stroke-linejoin:round;stroke-miterlimit:4;stroke-dasharray:none;stroke-opacity:1;visibility:visible"/><path d="m217.121 784.179 1.19-7.336M244.74 780.21l-4.484-6.533" style="fill:none;stroke:#ffdf00;stroke-width:.999997;stroke-linecap:round;stroke-linejoin:round;stroke-miterlimit:4;stroke-dasharray:none;stroke-opacity:1;visibility:visible"/><path d="m451.414 835.348-.841 9.961" style="fill:none;stroke:#00d4ff;stroke-width:1.99999;stroke-linecap:round;stroke-linejoin:round;stroke-miterlimit:4;stroke-dasharray:none;stroke-opacity:1;visibility:visible"/><path d="m456.036 870.593.78-1.2" style="fill:none;stroke:#00d4ff;stroke-width:.999997;stroke-linecap:round;stroke-linejoin:round;stroke-miterlimit:4;stroke-dasharray:none;stroke-opacity:1;visibility:visible"/></svg>