<svg xmlns="http://www.w3.org/2000/svg" baseProfile="full" height="1122.52" preserveAspectRatio="xMinYMin meet" style="width:765px;height:943px" width="793.701" xml:space="preserve"><path d="m300.508 965.24-.064-6.479 10.041-3.937M401.608 901.461l-.123 37.59-84.04 33.543-10.847-4.552M401.836 831.24l-.195 60.445M402.068 760.128l-.197 60.888M402.141 737.016l-.039 12.667M136.122 671.868l-.47-12.003.149-.749.477-.625 86.46-21.918 179.562 52.03-.061 18.634" style="fill:none;stroke:red;stroke-width:1.99999;stroke-linecap:round;stroke-linejoin:round;stroke-miterlimit:500;stroke-dasharray:none;stroke-opacity:1;visibility:visible"/><path d="m204.088 666.712-63.29 16.361-4.291-1.374-.039-1" style="fill:none;stroke:red;stroke-width:1.99999;stroke-linecap:round;stroke-linejoin:round;stroke-miterlimit:500;stroke-dasharray:none;stroke-opacity:1;visibility:visible"/><path d="m147.453 669.746 3.139.995 64.375-16.708 134.063 40M140.592 667.574l1.939.612" style="fill:none;stroke:red;stroke-width:1.99999;stroke-linecap:round;stroke-linejoin:round;stroke-miterlimit:500;stroke-dasharray:none;stroke-opacity:1;visibility:visible"/><path d="m317.886 690.076 22.037 6.623" style="fill:none;stroke:red;stroke-width:.999997;stroke-linecap:round;stroke-linejoin:round;stroke-miterlimit:500;stroke-dasharray:none;stroke-opacity:1;visibility:visible"/><path d="m313.385 688.722 4.501 1.355" style="fill:none;stroke:red;stroke-width:1.99999;stroke-linecap:round;stroke-linejoin:round;stroke-miterlimit:500;stroke-dasharray:none;stroke-opacity:1;visibility:visible"/><path d="m297.519 683.957 15.864 4.765" style="fill:none;stroke:red;stroke-width:.999997;stroke-linecap:round;stroke-linejoin:round;stroke-miterlimit:500;stroke-dasharray:none;stroke-opacity:1;visibility:visible"/><path d="m293.455 682.735 4.064 1.221" style="fill:none;stroke:red;stroke-width:1.99999;stroke-linecap:round;stroke-linejoin:round;stroke-miterlimit:500;stroke-dasharray:none;stroke-opacity:1;visibility:visible"/><path d="m277.852 678.048 15.603 4.688" style="fill:none;stroke:red;stroke-width:.999997;stroke-linecap:round;stroke-linejoin:round;stroke-miterlimit:500;stroke-dasharray:none;stroke-opacity:1;visibility:visible"/><path d="m273.508 676.743 4.344 1.305" style="fill:none;stroke:red;stroke-width:1.99999;stroke-linecap:round;stroke-linejoin:round;stroke-miterlimit:500;stroke-dasharray:none;stroke-opacity:1;visibility:visible"/><path d="m257.801 672.024 15.705 4.719" style="fill:none;stroke:red;stroke-width:.999997;stroke-linecap:round;stroke-linejoin:round;stroke-miterlimit:500;stroke-dasharray:none;stroke-opacity:1;visibility:visible"/><path d="m253.908 670.855 3.893 1.17" style="fill:none;stroke:red;stroke-width:1.99999;stroke-linecap:round;stroke-linejoin:round;stroke-miterlimit:500;stroke-dasharray:none;stroke-opacity:1;visibility:visible"/><path d="m238.391 666.19 15.519 4.664" style="fill:none;stroke:red;stroke-width:.999997;stroke-linecap:round;stroke-linejoin:round;stroke-miterlimit:500;stroke-dasharray:none;stroke-opacity:1;visibility:visible"/><path d="m233.699 664.782 4.695 1.41" style="fill:none;stroke:red;stroke-width:1.99999;stroke-linecap:round;stroke-linejoin:round;stroke-miterlimit:500;stroke-dasharray:none;stroke-opacity:1;visibility:visible"/><path d="m227.736 662.99 5.964 1.792" style="fill:none;stroke:red;stroke-width:.999997;stroke-linecap:round;stroke-linejoin:round;stroke-miterlimit:500;stroke-dasharray:none;stroke-opacity:1;visibility:visible"/><path d="m309.28 735.818.02 1.547 5.29 1.688 33.043-10.042M302.632 718.657l6.46 2.041.084 6.956M359.491 691.014l-62.505 18.164.145 7.521.688.438" style="fill:none;stroke:red;stroke-width:1.99999;stroke-linecap:round;stroke-linejoin:round;stroke-miterlimit:500;stroke-dasharray:none;stroke-opacity:1;visibility:visible"/><path d="m379.215 685.282-19.725 5.732" style="fill:none;stroke:red;stroke-width:.999997;stroke-linecap:round;stroke-linejoin:round;stroke-miterlimit:500;stroke-dasharray:none;stroke-opacity:1;visibility:visible"/><path d="m156.571 904.862 2.917 1.232 61.812-21.648.873.523 124.042 49.688M144.56 889.948l.385 10 6.104 2.579M200.44 668.618l5.403 189.33-61.708 20.875.112 2.958M311.916 959.211l.044 3.688" style="fill:none;stroke:red;stroke-width:1.99999;stroke-linecap:round;stroke-linejoin:round;stroke-miterlimit:500;stroke-dasharray:none;stroke-opacity:1;visibility:visible"/><path d="m373.965 744.928.208 178.874-62.396 24.25.044 3.389M242.403 858.532l-4.355-192.416M257.403 671.949l3.77 193.854M280.28 873.157l-3.179-195.284M297.52 717.78l2.176 162.814M297.068 683.902l.321 24.235M317.986 738.928l1.46 149.25M317.508 690.009l.12 12.221M339.53 895.97l-1.23-164.125M359.215 749.594l.77 154.25" style="fill:none;stroke:red;stroke-width:1.99999;stroke-linecap:round;stroke-linejoin:round;stroke-miterlimit:500;stroke-dasharray:none;stroke-opacity:1;visibility:visible"/><path d="m396.049 899.24-.083 41.959M396.19 829.461l-.12 59.779M396.33 758.574l-.121 60.667M396.369 738.574l-.02 9.997M217.132 638.095l179.333 52.208-.036 18.721M314.53 734.03l.063 5.024M296.986 709.178l17.301 5.172.203 16.492M314.286 714.35 402.3 688.6M147.201 662.5l3.39 1.052.249 7.104M135.946 659.011l8.972 2.781M150.592 663.553l81.77-20.959M140.446 667.428l.625 15.541M204.613 656.72l5.667 202.958-4.438-1.73M144.132 878.823l4.397 1.916.563 14.521 10.167 4.27.229 6.564M213.842 858.56l-65.312 22.18M219.965 877.657l-9.667-16.855.271 12.063.856 1.396 8.54 3.396M159.259 899.532l65.188-22.708" style="fill:none;stroke:red;stroke-width:.999997;stroke-linecap:round;stroke-linejoin:round;stroke-miterlimit:500;stroke-dasharray:none;stroke-opacity:1;visibility:visible"/><path d="m214.925 653.949-.19-6.333 145.006 42.909M204.882 665.261l9.064-10.959M222.842 670.449l4.417 176.625M242.342 856.136l-4.145 1.396-4.506-192.72M261.113 863.323l-3.312 1.145-3.892-193.603M280.258 870.573l-3.417 1.208-3.342-195.012M299.653 877.99l-3.477 1.27-2.735-196.483M313.886 703.316l-.155-14.41M319.382 885.553l-3.521 1.27-1.582-146.964M339.425 893.22l-3.564 1.31-1.207-161.539M359.965 900.99l-3.73 1.396-.625-151.666M354.675 931.386l-133.437-53.125.063 6.188M366.715 922.51l-123.144-48.27M211.113 873.803l-61.979 21.396M147.312 888.858c1.082-.361 1.476-2.104.882-3.893-.589-1.79-1.95-2.951-3.03-2.591" style="fill:none;stroke:red;stroke-width:.999997;stroke-linecap:round;stroke-linejoin:round;stroke-miterlimit:500;stroke-dasharray:none;stroke-opacity:1;visibility:visible"/><path d="m145.164 882.374-1.288.448c-1.08.357-1.476 2.098-.884 3.888s1.952 2.95 3.033 2.593l.048-.013 1.237-.432" style="fill:none;stroke:red;stroke-width:1.99999;stroke-linecap:round;stroke-linejoin:round;stroke-miterlimit:500;stroke-dasharray:none;stroke-opacity:1;visibility:visible"/><path d="M156.152 904.52c1.08-.363 1.473-2.11.878-3.912-.594-1.794-1.957-2.961-3.037-2.602M143.77 882.874c1.083-.361 2.44.803 3.032 2.586.588 1.769.211 3.48-.837 3.88" style="fill:none;stroke:red;stroke-width:.999997;stroke-linecap:round;stroke-linejoin:round;stroke-miterlimit:500;stroke-dasharray:none;stroke-opacity:1;visibility:visible"/><path d="m153.992 898.006-1.287.444c-1.079.36-1.473 2.108-.879 3.908.595 1.796 1.958 2.962 3.038 2.61.016-.007.033-.012.046-.021l1.24-.427" style="fill:none;stroke:red;stroke-width:1.99999;stroke-linecap:round;stroke-linejoin:round;stroke-miterlimit:500;stroke-dasharray:none;stroke-opacity:1;visibility:visible"/><path d="M147.225 669.286c1.172-.296 1.735-2.085 1.255-4.008-.218-.877-.616-1.632-1.098-2.16-.244-.273-.166-.481-.769-.773-.367-.175-.756-.103-1.119-.015M152.598 898.503c1.083-.361 2.444.808 3.039 2.607.59 1.773.213 3.495-.833 3.89" style="fill:none;stroke:red;stroke-width:.999997;stroke-linecap:round;stroke-linejoin:round;stroke-miterlimit:500;stroke-dasharray:none;stroke-opacity:1;visibility:visible"/><path d="m145.496 662.33-1.398.367c-1.168.293-1.734 2.087-1.254 4.005.474 1.918 1.812 3.238 2.985 2.951l.05-.015 1.347-.352" style="fill:none;stroke:red;stroke-width:1.99999;stroke-linecap:round;stroke-linejoin:round;stroke-miterlimit:500;stroke-dasharray:none;stroke-opacity:1;visibility:visible"/><path d="M139.153 679.541c1.15-.323 1.661-2.11 1.139-3.995-.52-1.88-1.882-3.15-3.035-2.828M143.982 662.744c1.175-.292 2.512 1.03 2.988 2.948.471 1.893-.071 3.658-1.206 3.992" style="fill:none;stroke:red;stroke-width:.999997;stroke-linecap:round;stroke-linejoin:round;stroke-miterlimit:500;stroke-dasharray:none;stroke-opacity:1;visibility:visible"/><path d="m137.258 672.718-1.372.402c-1.153.317-1.661 2.104-1.14 3.99.526 1.88 1.882 3.15 3.036 2.831l.05-.015 1.322-.385" style="fill:none;stroke:red;stroke-width:1.99999;stroke-linecap:round;stroke-linejoin:round;stroke-miterlimit:500;stroke-dasharray:none;stroke-opacity:1;visibility:visible"/><path d="M135.773 673.166c1.15-.32 2.512.948 3.032 2.831.516 1.857.03 3.617-1.088 3.977M317.214 957.149l.232 15.445M311.78 948.052l5.333 2.188.068 4.612M317.113 950.24l84.436-32.916M378.591 743.449l.063 182.082-4.48-1.728M300.446 958.76l11.521 4.81" style="fill:none;stroke:red;stroke-width:.999997;stroke-linecap:round;stroke-linejoin:round;stroke-miterlimit:500;stroke-dasharray:none;stroke-opacity:1;visibility:visible"/><path d="M315.734 958.66c.383-.15.683-.453.884-.858.257-.507.596-.416.619-1.502.023-1.248-.42-1.31-.587-1.652-.043-.082-.06-.178-.097-.265-.735-1.896-2.296-3.063-3.486-2.599" style="fill:none;stroke:red;stroke-width:.999997;stroke-linecap:round;stroke-linejoin:round;stroke-miterlimit:500;stroke-dasharray:none;stroke-opacity:1;visibility:visible"/><path d="m313.067 951.784-1.416.571c-1.188.457-1.556 2.372-.82 4.27.736 1.898 2.299 3.064 3.487 2.605a.444.444 0 0 0 .052-.022l1.364-.548" style="fill:none;stroke:red;stroke-width:1.99999;stroke-linecap:round;stroke-linejoin:round;stroke-miterlimit:500;stroke-dasharray:none;stroke-opacity:1;visibility:visible"/><path d="M306.17 967.527c1.187-.447 1.57-2.341.86-4.23-.709-1.884-2.245-3.057-3.43-2.61M311.535 952.418c1.192-.462 2.752.702 3.49 2.601.724 1.871.377 3.753-.771 4.253" style="fill:none;stroke:red;stroke-width:.999997;stroke-linecap:round;stroke-linejoin:round;stroke-miterlimit:500;stroke-dasharray:none;stroke-opacity:1;visibility:visible"/><path d="m303.602 960.686-1.41.552c-1.181.442-1.567 2.336-.856 4.224.707 1.885 2.243 3.06 3.427 2.617l.052-.021 1.358-.53" style="fill:none;stroke:red;stroke-width:1.99999;stroke-linecap:round;stroke-linejoin:round;stroke-miterlimit:500;stroke-dasharray:none;stroke-opacity:1;visibility:visible"/><path d="M313.003 735.189c.528-.161.928-.583 1.18-1.161.162-.372.744-.688.53-2.328-.059-.456-.539-1.04-.569-1.12-.658-1.875-2.123-3.071-3.361-2.696M302.075 961.3c1.187-.445 2.723.724 3.43 2.612.705 1.86.338 3.722-.803 4.206" style="fill:none;stroke:red;stroke-width:.999997;stroke-linecap:round;stroke-linejoin:round;stroke-miterlimit:500;stroke-dasharray:none;stroke-opacity:1;visibility:visible"/><path d="m310.783 727.885-1.53.49c-1.287.389-1.834 2.342-1.223 4.359.615 2.011 2.156 3.33 3.444 2.942l.056-.018 1.473-.468" style="fill:none;stroke:red;stroke-width:1.99999;stroke-linecap:round;stroke-linejoin:round;stroke-miterlimit:500;stroke-dasharray:none;stroke-opacity:1;visibility:visible"/><path d="M302.769 718.148c1.291-.364 1.88-2.3 1.313-4.326-.564-2.021-2.068-3.372-3.362-3.01M309.123 728.432c1.29-.394 2.83.922 3.443 2.94.604 1.986.084 3.908-1.164 4.344" style="fill:none;stroke:red;stroke-width:.999997;stroke-linecap:round;stroke-linejoin:round;stroke-miterlimit:500;stroke-dasharray:none;stroke-opacity:1;visibility:visible"/><path d="m300.72 710.812-1.539.453c-1.294.355-1.882 2.295-1.318 4.317.567 2.024 2.074 3.374 3.367 3.019.017-.008.035-.01.055-.019l1.482-.434" style="fill:none;stroke:red;stroke-width:1.99999;stroke-linecap:round;stroke-linejoin:round;stroke-miterlimit:500;stroke-dasharray:none;stroke-opacity:1;visibility:visible"/><path d="M299.053 711.32c1.294-.362 2.8.986 3.364 3.01.558 1.995-.004 3.902-1.262 4.307M231.397 854.917l142.778 55.073" style="fill:none;stroke:red;stroke-width:.999997;stroke-linecap:round;stroke-linejoin:round;stroke-miterlimit:500;stroke-dasharray:none;stroke-opacity:1;visibility:visible"/><path d="M351.735 921.751c0 .844-1.761 1.53-3.935 1.53-2.177-.001-3.938-.687-3.938-1.531 0-.845 1.761-1.529 3.937-1.529 2.175-.001 3.936.684 3.936 1.529v.001M387.296 893.282c-.645-.235-.88-1.23-.522-2.224.366-.992 1.182-1.604 1.83-1.368M387.454 823.249c-.66-.216-.928-1.21-.599-2.219.335-1.013 1.137-1.653 1.799-1.435M388.096 751.598a.91.91 0 0 1-.506.006c-.68-.2-.988-1.198-.688-2.227.3-1.03 1.098-1.705 1.777-1.508M329.607 683.637c.418 1.477-.041 2.913-1.022 3.188-.982.279-2.12-.693-2.547-2.172-.415-1.487.041-2.912 1.025-3.19.978-.281 2.118.689 2.544 2.173v.001M246.793 659.14c.407 1.43-.006 2.802-.91 3.057-.907.257-1.977-.692-2.389-2.12-.399-1.434.007-2.804.917-3.063.904-.256 1.969.692 2.382 2.126M378.052 880.391c.55 1.416.24 2.863-.688 3.222-.926.362-2.126-.498-2.68-1.92-.548-1.423-.237-2.863.691-3.225.927-.361 2.123.499 2.677 1.923M378.063 764.228c.484 1.472.077 2.932-.901 3.25-.978.323-2.17-.612-2.656-2.081-.478-1.479-.078-2.932.908-3.255.972-.321 2.16.608 2.649 2.086M331.557 924.462c.507 1.393.195 2.79-.687 3.11-.885.321-2.015-.546-2.527-1.939-.505-1.401-.2-2.791.688-3.114.883-.322 2.01.544 2.526 1.943M251.783 892.7c.464 1.36.16 2.694-.666 2.973-.831.286-1.883-.586-2.351-1.946-.459-1.366-.163-2.697.67-2.981.826-.281 1.874.59 2.346 1.953l.001.001M208.082 817.23c.458 1.333.168 2.641-.635 2.915-.802.275-1.829-.585-2.285-1.918-.452-1.34-.17-2.645.636-2.917.804-.275 1.823.58 2.284 1.92M205.102 708.308c.393 1.382.01 2.705-.845 2.948-.855.244-1.874-.68-2.27-2.06-.393-1.388-.015-2.708.847-2.954.853-.241 1.868.68 2.268 2.066" style="fill:none;stroke:red;stroke-width:.666665;stroke-linecap:round;stroke-linejoin:round;stroke-miterlimit:4;stroke-dasharray:none;stroke-opacity:1;visibility:visible"/><path d="M344.112 921.99c.548-.588 2-1.01 3.706-1.01 1.63 0 3.03.384 3.628.933M301.862 902.055c.01.808-1.703 1.49-3.825 1.519-2.124.028-3.857-.607-3.867-1.415-.009-.809 1.705-1.489 3.828-1.519 2.12-.027 3.852.606 3.864 1.415" style="fill:none;stroke:red;stroke-width:.666665;stroke-linecap:round;stroke-linejoin:round;stroke-miterlimit:4;stroke-dasharray:none;stroke-opacity:1;visibility:visible"/><path d="M349.69 922.511c0 .39-.846.709-1.883.709-1.039 0-1.883-.318-1.883-.709 0-.39.844-.708 1.883-.708 1.037 0 1.883.317 1.883.708M294.423 902.387c.527-.57 1.938-.994 3.604-1.02 1.59-.017 2.964.33 3.553.85M254.049 883.191c.014.795-1.66 1.472-3.74 1.509-2.076.038-3.776-.579-3.789-1.373-.011-.797 1.66-1.474 3.737-1.513 2.08-.039 3.776.58 3.792 1.376v.001" style="fill:none;stroke:red;stroke-width:.666665;stroke-linecap:round;stroke-linejoin:round;stroke-miterlimit:4;stroke-dasharray:none;stroke-opacity:1;visibility:visible"/><path d="M299.874 902.811c.005.375-.815.69-1.83.703-1.016.013-1.844-.28-1.849-.654-.005-.371.815-.69 1.829-.702 1.019-.013 1.844.281 1.851.652l-.001.001M246.767 883.547c.514-.565 1.895-.986 3.526-1.02 1.557-.026 2.9.315 3.481.823" style="fill:none;stroke:red;stroke-width:.666665;stroke-linecap:round;stroke-linejoin:round;stroke-miterlimit:4;stroke-dasharray:none;stroke-opacity:1;visibility:visible"/><path d="M252.103 883.94c.01.368-.793.684-1.786.698-.995.019-1.804-.265-1.811-.632-.007-.37.792-.683 1.79-.703.99-.013 1.801.27 1.806.638l.001-.001" style="fill:none;stroke:red;stroke-width:.666665;stroke-linecap:round;stroke-linejoin:round;stroke-miterlimit:4;stroke-dasharray:none;stroke-opacity:1;visibility:visible"/><path d="m354.632 929.97 4.708-.541 13.5-12.482 1.333-4.04" style="fill:none;stroke:red;stroke-width:.999997;stroke-linecap:round;stroke-linejoin:round;stroke-miterlimit:500;stroke-dasharray:none;stroke-opacity:1;visibility:visible"/><path d="M350.563 927.734a.452.452 0 0 1-.016-.118c0-.598 1.176-1.082 2.625-1.082.412 0 .802.038 1.146.106M360.063 924.087a.452.452 0 0 1-.016-.117c0-.6 1.176-1.083 2.625-1.083.412 0 .802.039 1.146.107" style="fill:none;stroke:red;stroke-width:.666665;stroke-linecap:round;stroke-linejoin:round;stroke-miterlimit:4;stroke-dasharray:none;stroke-opacity:1;visibility:visible"/><path d="m366.652 922.636-1.416-.582-.876.333s-.644.29-.604 1.06l-.02.377" style="fill:none;stroke:red;stroke-width:.666665;stroke-linecap:round;stroke-linejoin:round;stroke-miterlimit:4;stroke-dasharray:none;stroke-opacity:1;visibility:visible"/><path d="M364.28 923.615s-1.377.855-3.314.105l-6.124 2.354s-.563.292-.604 1v.396" style="fill:none;stroke:red;stroke-width:.666665;stroke-linecap:round;stroke-linejoin:round;stroke-miterlimit:4;stroke-dasharray:none;stroke-opacity:1;visibility:visible"/><path d="M364.528 924.636s-2.104-.978-4.04.542l-.545.458s-1.373.451-1.497 1.311c-.107.71 1.164 1.23 1.164 1.23l.458.543M359.047 928.627c0 .305-.605.553-1.355.553-.745 0-1.352-.248-1.352-.553 0-.305.607-.552 1.352-.552.75 0 1.355.247 1.355.552M354.778 927.323s-1.146.77-3.294.104l-1.144.375.04.792 3.46 1.354s1.938.083 2.978.542M211.863 842.491a2.964 2.964 0 0 1 .214-1.138c.473-1.19 1.572-1.867 2.452-1.515.55.221.886.79.948 1.473" style="fill:none;stroke:red;stroke-width:.666665;stroke-linecap:round;stroke-linejoin:round;stroke-miterlimit:4;stroke-dasharray:none;stroke-opacity:1;visibility:visible"/><path d="M364.32 924.782s-1.335-.5-2.209-.19c-.876.316-.584.754.041.878l.628.77M221.385 839.325a2.964 2.964 0 0 1 .213-1.139c.473-1.19 1.572-1.866 2.45-1.515.554.222.89.79.951 1.474M213.913 839.855c.161.306.246.675.241 1.075M224.733 845.243c-.263.659-.855 1.039-1.323.855-.47-.19-.64-.873-.376-1.53.26-.658.85-1.038 1.32-.852.47.189.639.871.379 1.527M215.202 848.44c-.259.654-.852 1.037-1.321.85-.471-.187-.641-.869-.378-1.528.26-.656.852-1.036 1.323-.85.467.188.637.868.376 1.526v.002M225.453 838.098a2.808 2.808 0 0 1-.16 1.61c-.475 1.189-1.573 1.866-2.453 1.517-.693-.275-1.045-1.103-.935-2.023M215.931 841.265a2.808 2.808 0 0 1-.16 1.609c-.474 1.19-1.571 1.868-2.451 1.519-.694-.276-1.046-1.104-.937-2.024" style="fill:none;stroke:red;stroke-width:.666665;stroke-linecap:round;stroke-linejoin:round;stroke-miterlimit:4;stroke-dasharray:none;stroke-opacity:1;visibility:visible"/><path d="M223.435 836.689c.16.305.246.674.24 1.073M235.111 882.011s.103-1-.604-.856M211.735 842.637l-.769.249.104 4.355.625 2.373.186 1.793.062 3.271s.063.603.19.71l12.853 22.352s.354.54.814.73l2.353.937s1.02.374 1.227.626l1.126.957 3.085 1.21.749-.253M221.258 839.491l-5.73 1.916-1.375-.477-.583.144s.06 1.125-.876 1.75M238.07 880.615l5.979-2.063M246.986 878.74l-.063-1.186s.042-.729.604-.981M244.631 878.74l-.061-.6c-.08-.21-.245-.384-.583-.338" style="fill:none;stroke:red;stroke-width:.666665;stroke-linecap:round;stroke-linejoin:round;stroke-miterlimit:4;stroke-dasharray:none;stroke-opacity:1;visibility:visible"/><path d="m247.653 877.262.73-.23v-.748l-4.626-1.834-3.438-3.167-12.354-21.396-1.438-5.27-.185-6.48-.481-.187-.875.27-1.31-.457-.606.187s.061 1.041-.853 1.708" style="fill:none;stroke:red;stroke-width:.666665;stroke-linecap:round;stroke-linejoin:round;stroke-miterlimit:4;stroke-dasharray:none;stroke-opacity:1;visibility:visible"/><path d="m226.53 844.615-1.041.355.144 5.353.104.27 12.96 22.543.166.187 3.896 1.521 1-.396" style="fill:none;stroke:red;stroke-width:.666665;stroke-linecap:round;stroke-linejoin:round;stroke-miterlimit:4;stroke-dasharray:none;stroke-opacity:1;visibility:visible"/><path d="m236.778 873.303-12.645-22-.167-.416-.063-1.562-.103-.459-1.459-2.979s.004-1.589-1.042-2.396c-.389-.301-1.056-.617-1.772-.5-2.666.439-3.686 3.875-3.624 5.042l-1.292 3.896-.104.478.04 1.523.104.436 12.896 22.437.315.375 1.123.417.481.083 3.834.542s1.395.52 3.581.375c.934-.062 1.925-.122 2.937-.688 1.982-1.104-.167-1.96-.167-1.96l-1.04-1.414s-.208-.208-.77-.396l-.708-.563s-.253-.23-.355-.27v-.001" style="fill:none;stroke:red;stroke-width:.666665;stroke-linecap:round;stroke-linejoin:round;stroke-miterlimit:4;stroke-dasharray:none;stroke-opacity:1;visibility:visible"/><path d="m235.32 872.886.165.144.565.23 1.103 1.543s.897.271.312.646c-.582.374-1.73.291-2.248.02l-4.148-.5-.5-.187-.186-.188-12.23-21.25-.063-.314-.02-.685 1.376-4.23s-.099-.742.352-1.252c.157-.172.333-.5.667-.54 1.098-.137.958 1.147.958 1.147l1.587 3.208.017.685.086.294 12.207 21.229M234.994 881.334c-.644-.167-1.07-.445-1.07-.76-.001-.508 1.088-.917 2.428-.917 1.151 0 2.115.302 2.363.706M242.84 875.503c.007.263-.57.49-1.281.507-.713.015-1.298-.19-1.301-.452-.005-.265.567-.49 1.279-.505.716-.018 1.297.187 1.303.45M233.34 878.86c.007.264-.568.49-1.281.507-.711.015-1.297-.189-1.301-.451-.005-.266.568-.494 1.279-.51.716-.016 1.297.189 1.303.455v-.001M238.058 880.627c.457.164.742.394.742.644 0 .5-1.115.909-2.49.909-.677 0-1.291-.099-1.74-.26" style="fill:none;stroke:red;stroke-width:.666665;stroke-linecap:round;stroke-linejoin:round;stroke-miterlimit:4;stroke-dasharray:none;stroke-opacity:1;visibility:visible"/><path d="M227.333 862.467c.457.44.55 1.083.212 1.433-.339.351-.982.278-1.439-.162-.456-.443-.552-1.083-.21-1.432.337-.352.979-.279 1.436.161h.001M244.447 878.022c-.642-.167-1.07-.445-1.07-.76 0-.508 1.09-.917 2.429-.917 1.152 0 2.114.302 2.364.705M247.513 877.314c.457.164.741.393.741.645 0 .501-1.116.907-2.49.907-.676 0-1.291-.099-1.739-.26M234.778 881.115c.33-.26.956-.437 1.67-.437a3.867 3.867 0 0 1 .942.11" style="fill:none;stroke:red;stroke-width:.666665;stroke-linecap:round;stroke-linejoin:round;stroke-miterlimit:4;stroke-dasharray:none;stroke-opacity:1;visibility:visible"/><path d="M244.234 877.803c.328-.26.953-.437 1.67-.437.339 0 .659.039.937.11M211.715 849.553l1.023-.333.041 2.062.915 3.355 12.396 21.604 2.752 2.561 1.144.459-1.02.355M228.643 864.498l-2.17.97-1.922-1.397.245-2.365 2.171-.968 1.925 1.399-.249 2.361M211.169 682.49a3.937 3.937 0 0 1-.094.527c-.355 1.381-1.41 2.301-2.36 2.056-.594-.152-1.007-.723-1.145-1.463M220.39 674.308c-.18.708-.736 1.177-1.24 1.05-.504-.134-.767-.808-.583-1.521.18-.705.738-1.173 1.24-1.044.503.132.766.807.583 1.515M210.618 676.921c-.183.709-.737 1.18-1.241 1.05-.504-.134-.767-.808-.583-1.519.181-.706.737-1.174 1.24-1.044.503.13.766.805.584 1.512v.001" style="fill:none;stroke:red;stroke-width:.666665;stroke-linecap:round;stroke-linejoin:round;stroke-miterlimit:4;stroke-dasharray:none;stroke-opacity:1;visibility:visible"/><path d="M209.863 682.244a2.91 2.91 0 0 1-.068.33c-.26 1.031-.917 1.806-1.629 2.03M220.946 679.88a3.737 3.737 0 0 1-.093.53c-.355 1.38-1.41 2.297-2.36 2.053-.593-.154-1.007-.723-1.144-1.466" style="fill:none;stroke:red;stroke-width:.666665;stroke-linecap:round;stroke-linejoin:round;stroke-miterlimit:4;stroke-dasharray:none;stroke-opacity:1;visibility:visible"/><path d="M208.07 683.441a2.85 2.85 0 0 1 .196-1.3c.467-1.173 1.568-1.837 2.459-1.481.634.253.992.945.984 1.745M219.642 679.634a3.835 3.835 0 0 1-.068.331c-.263 1.03-.919 1.805-1.63 2.03" style="fill:none;stroke:red;stroke-width:.666665;stroke-linecap:round;stroke-linejoin:round;stroke-miterlimit:4;stroke-dasharray:none;stroke-opacity:1;visibility:visible"/><path d="M217.847 680.83a2.838 2.838 0 0 1 .198-1.297c.465-1.176 1.568-1.84 2.458-1.481.635.25.992.945.983 1.745" style="fill:none;stroke:red;stroke-width:.666665;stroke-linecap:round;stroke-linejoin:round;stroke-miterlimit:4;stroke-dasharray:none;stroke-opacity:1;visibility:visible"/><path d="m219.425 655.408-12.139 14.61s-.473.777-.39 1.194l.141 3.556s-.057 2.14-.278 2.722c-.001 0-.306 1.082-.306 1.64l.137 4.36.501.194 1.25-.36s-.111-1.086.805-1.944l.112.61 1.333.418s.667.192 1.306-.028l6.222-1.75s-.028-1.14.751-1.835c0 .001.167.389.167.555l1.303.418s.779.194 1.306-.028l.724-.223-.167-6.776 1.222-4.611 7.694-9.25" style="fill:none;stroke:red;stroke-width:.666665;stroke-linecap:round;stroke-linejoin:round;stroke-miterlimit:4;stroke-dasharray:none;stroke-opacity:1;visibility:visible"/><path d="m206.953 676.824 1.055-.307-.055-1.442.777-3.058 11.807-14.277 3.555-.916M224.338 662.537l3.525-4.235" style="fill:none;stroke:red;stroke-width:.666665;stroke-linecap:round;stroke-linejoin:round;stroke-miterlimit:4;stroke-dasharray:none;stroke-opacity:1;visibility:visible"/><path d="m209.591 671.074.04.96s-.018.351.127.477l1.522 3.251s.173 2.175 1.622 3c1.585.895 4.752-.354 5-4.729l1.315-4.041s.185-.396.103-.543l-.022-.853 2.576-3.096" style="fill:none;stroke:red;stroke-width:.666665;stroke-linecap:round;stroke-linejoin:round;stroke-miterlimit:4;stroke-dasharray:none;stroke-opacity:1;visibility:visible"/><path d="m224.466 657.304-11.144 13.374s-.125.314-.062 1.022l1.643 3.5s-.18 1.138.771 1.27c.919.126 1.316-1.145 1.27-1.792l1.421-4.333v-.79l.078-.211.636-.778" style="fill:none;stroke:red;stroke-width:.666665;stroke-linecap:round;stroke-linejoin:round;stroke-miterlimit:4;stroke-dasharray:none;stroke-opacity:1;visibility:visible"/><path d="M220.34 664.954a.404.404 0 0 0 .223.164M224.102 662.781a.407.407 0 0 0-.065-.268M220.92 665.227l-.359-.11M224.062 663.15l.039-.37M219.68 663.91l.355-1.117M220.035 662.793l2.175-1.437M222.208 661.355l1.167.112M220.34 664.954c.25-.32.375-.716.358-1.117M222.869 662.401a1.69 1.69 0 0 0 1.168.112" style="fill:none;stroke:red;stroke-width:.666665;stroke-linecap:round;stroke-linejoin:round;stroke-miterlimit:2;stroke-dasharray:none;stroke-opacity:1;visibility:visible"/><path d="M220.697 663.838a6.597 6.597 0 0 0 1.153-.614 6.752 6.752 0 0 0 1.02-.824M223.374 661.467l.663 1.044M219.68 663.91l.66 1.044M222.208 661.355l.661 1.044M220.035 662.793l.661 1.044M224.006 662.924c.25.38-.292 1.17-1.199 1.76-.909.592-1.847.764-2.097.381" style="fill:none;stroke:red;stroke-width:.666665;stroke-linecap:round;stroke-linejoin:round;stroke-miterlimit:2;stroke-dasharray:none;stroke-opacity:1;visibility:visible"/><path d="m311.916 959.211-11.408 6.029M311.535 952.418l-1.05 2.406M401.641 891.685l-.033 9.776M401.87 821.016l-.034 10.224M396.049 899.24l5.592-7.555M402.102 749.683l-.034 10.445M396.19 829.461l5.68-8.445M396.349 748.571l5.792-11.555M402.068 760.128l.034-10.445M140.446 667.428l-4.324 4.44M206.953 676.824l-2.865-10.112M141.071 682.97l-4.603-2.271M147.453 669.746l-4.922-1.56" style="fill:none;stroke:red;stroke-width:1.99999;stroke-linecap:round;stroke-linejoin:round;stroke-miterlimit:500;stroke-dasharray:none;stroke-opacity:1;visibility:visible"/><path d="m220.92 665.227 6.816-2.237" style="fill:none;stroke:red;stroke-width:.999997;stroke-linecap:round;stroke-linejoin:round;stroke-miterlimit:500;stroke-dasharray:none;stroke-opacity:1;visibility:visible"/><path d="m314.593 739.054-5.313-3.236M144.247 881.781l.313 8.167M156.571 904.862l-5.522-2.335M210.618 676.921l-10.178-8.303M144.56 889.948l-.313-8.167M317.181 954.852l-5.265 4.359M311.916 959.211l-.095-7.77M236.778 873.303l5.625-14.771M254.049 883.191l7.125-17.388M297.52 717.78l-.13-9.643M314.593 739.054l3.393-.126M313.731 688.907l3.897 13.323M351.735 921.751l8.25-17.907" style="fill:none;stroke:red;stroke-width:1.99999;stroke-linecap:round;stroke-linejoin:round;stroke-miterlimit:500;stroke-dasharray:none;stroke-opacity:1;visibility:visible"/><path d="m401.641 891.685-5.592 7.555M401.87 821.016l-5.68 8.445M396.049 899.24l.021-10M396.349 748.571l-.019 10.003M396.19 829.461l.019-10.22M402.102 749.683l-5.733-11.109M396.33 758.574l.019-10.003M314.49 730.842l.04 3.188M314.53 734.03l-.04-3.188M302.767 718.148l11.519-3.798M144.918 661.792l2.283.708M140.446 667.428l10.394 3.228M142.53 668.186l-6.584-9.175M145.496 662.33l5.096 1.223M136.468 680.699l4.603 2.27M214.925 653.949l-10.312 2.771M211.715 849.553l2.127 9.007M145.164 882.374l3.366-1.634M234.57 881.92l-14.605-4.263M153.992 898.006l5.267 1.526M228.966 879.616l-4.52-2.792M204.613 656.72l10.312-2.771M219.079 668.566l-14.197-3.305M220.34 664.954l-6.394-10.652M221.486 679.797l1.356-9.348M247.653 877.262l13.46-13.939M317.508 690.009l-3.622 13.307M233.34 878.86l-12.04 5.589M228.966 879.616l-17.853-5.813M153.992 898.006l-4.858-2.807M145.164 882.374l-1.394.5M147.31 888.858l-1.345.482M153.992 898.006l-1.394.497M156.15 904.52l-1.346.48M145.496 662.33l-1.514.414M147.226 669.286l-1.462.398M137.258 672.718l-1.485.448M139.154 679.541l-1.437.433M317.181 954.852l.033 2.297M311.916 959.211l5.53 13.383M311.967 963.57l-.187-15.518M317.214 957.149l-.033-2.297M313.067 951.784l4.046-1.544M396.349 748.571l-17.758-5.122M366.715 922.51l7.459 1.293M313.067 951.784l-1.532.634M315.734 958.66l-1.48.612M303.602 960.686l-1.527.614M306.173 967.528l-1.471.59M313.003 735.19l-1.601.526M300.72 710.812l-1.667.508M302.767 718.148l-1.612.489M374.174 923.803l.001-13.813" style="fill:none;stroke:red;stroke-width:.999997;stroke-linecap:round;stroke-linejoin:round;stroke-miterlimit:500;stroke-dasharray:none;stroke-opacity:1;visibility:visible"/><path d="m317.508 690.009 12.099-6.372M350.563 927.734l-19.006-3.272M351.735 921.751l-2.045.76M351.735 921.751l-2.045.76M301.862 902.055l-1.988.756M252.103 883.94l-5.336-.393M254.049 883.191l-1.946.749M246.767 883.547l5.336.393M331.557 924.462l19.006 3.272M354.238 927.47l4.809 1.157M351.735 921.751l7.312 6.876M374.174 923.803l-17.356 6.687M215.202 848.44l9.531-3.197M224.733 845.243l-9.531 3.197M242.84 875.503l4.146 3.237M211.715 849.553l14.815-4.938M242.84 875.503l-6.062-2.2M244.631 878.74l-1.791-3.237M236.778 873.303l6.062 2.2M242.84 875.503l-9.5 3.357M242.84 875.503l-9.5 3.357M211.735 842.637l-.02 6.916M224.447 876.824l4.519 2.792M228.966 879.616l-.323-15.118M219.68 663.91l.71 10.398M210.618 676.921l9.772-2.613M220.39 674.308l-9.772 2.613M209.591 671.074l1.027 5.847M204.088 666.712l4.078 17.892M224.062 663.15l-4.42 16.484M224.338 662.537l-4.913-7.129M224.338 662.537l6.781-3.657M204.088 666.712l2.865 10.112M220.34 664.954l7.523-6.652M210.618 676.921l-1.027-5.847M220.34 664.954l-1.261 3.612" style="fill:none;stroke:red;stroke-width:.666665;stroke-linecap:round;stroke-linejoin:round;stroke-miterlimit:4;stroke-dasharray:none;stroke-opacity:1;visibility:visible"/><path d="m347.685 743.462.03 6.05.647.437 4.748 1.541 64.667-20.333M348.956 980.871l.028 5.265.648.396 4.563 1.918 72.915-30.044s70.73-32.167 179.398-39.167l9.352-245.309-2.603-2.542s-44.507 1.961-98.252 10.185a710.67 710.67 0 0 0-35.169 6.32M457.57 692.81a730.074 730.074 0 0 0-34.73 9.097l-75.249 23.022.044 8.755" style="fill:none;stroke:#00ff4a;stroke-width:1.99999;stroke-linecap:round;stroke-linejoin:round;stroke-miterlimit:500;stroke-dasharray:none;stroke-opacity:1;visibility:visible"/><path d="m412.341 732.907-1 204.666.584.541-63.063 25.292.048 8.724M433.436 914.573l-.157 18.645M434.008 846.795l-.45 53.112M434.632 772.784l-.475 56.45M435.029 725.74l-.265 31.5M458.696 924.303l1.97-153.065M483.341 713.574l-3.293 204.229M502.425 912.51l4.04-203.145M530.425 705.407l-4.793 202.31M549.632 903.553l5.541-201.562M580.553 700.574l-6.297 199.792M558.152 900.386l5.77-199.356M538.675 704.115l-5.041 199.792M514.091 707.99l-4.23 200.354M490.382 712.157l-3.54 201.688M464.736 919.823l2.159-155.473M436.224 915.685l-.113 12.159M436.843 847.907l-.505 55.333M437.524 773.461l-.517 56.445M437.965 724.907l-.303 33.221" style="fill:none;stroke:#00ff4a;stroke-width:1.99999;stroke-linecap:round;stroke-linejoin:round;stroke-miterlimit:500;stroke-dasharray:none;stroke-opacity:1;visibility:visible"/><path d="m417.78 731.157-1.19 208.77-4.666-1.812" style="fill:none;stroke:#00ff4a;stroke-width:.999997;stroke-linecap:round;stroke-linejoin:round;stroke-miterlimit:500;stroke-dasharray:none;stroke-opacity:1;visibility:visible"/><path d="M433.284 929.74s1.028-.416 3.01-1.153M459.695 920.806c1.573-.473 3.21-.959 4.912-1.453M480.808 914.918a562.26 562.26 0 0 1 5.443-1.378M503.367 909.569c1.85-.402 3.728-.8 5.633-1.195M527.033 904.915a791.96 791.96 0 0 1 6.167-1.073M550.45 901.113c2.57-.378 5.123-.74 7.65-1.086M575.83 897.822a655.51 655.51 0 0 1 7.155-.75l6.54-197.832" style="fill:none;stroke:#00ff4a;stroke-width:1.99999;stroke-linecap:round;stroke-linejoin:round;stroke-miterlimit:500;stroke-dasharray:none;stroke-opacity:1;visibility:visible"/><path d="m442.681 759.24.348-35.75M441.989 831.019l.541-56.003M441.288 903.461l.523-54M436.798 928.427l4.23 1.875.131-13.284M464.736 919.823l3.208 1.73 2.187-160.536M486.902 913.886l2.793 1.644 3.604-203.914M509.862 908.636l2.625 1.833 4.23-202.978M533.652 904.157l2.333 1.855 5.146-202.188M558.152 900.386l2.041 1.937 5.982-201.415M582.986 897.073l1.897 2.27 6.686-200.915M347.591 724.928l5.707 1.75.166 24.727M353.674 727.241l76.333-23s10.199-3.361 27.383-7.685M477.6 691.822a650.124 650.124 0 0 1 51.573-9.082c32.13-4.308 64.834-7.5 86.333-8.667M348.863 963.407l5.477 2.27.167 22.667" style="fill:none;stroke:#00ff4a;stroke-width:.999997;stroke-linecap:round;stroke-linejoin:round;stroke-miterlimit:500;stroke-dasharray:none;stroke-opacity:1;visibility:visible"/><path d="M351.562 741.908c1.322-.414 1.886-2.402 1.258-4.454-.628-2.046-2.213-3.38-3.538-2.973M354.34 965.678l73.584-29.042c28.083-10.895 56.396-19.991 99.956-28.1 26.21-4.881 52.85-7.854 79.148-10.088" style="fill:none;stroke:#00ff4a;stroke-width:.999997;stroke-linecap:round;stroke-linejoin:round;stroke-miterlimit:500;stroke-dasharray:none;stroke-opacity:1;visibility:visible"/><path d="m349.282 734.481-1.578.508c-1.324.404-1.888 2.396-1.258 4.445.63 2.05 2.213 3.383 3.537 2.979.02-.005.04-.01.057-.017l1.52-.488" style="fill:none;stroke:#00ff4a;stroke-width:1.99999;stroke-linecap:round;stroke-linejoin:round;stroke-miterlimit:500;stroke-dasharray:none;stroke-opacity:1;visibility:visible"/><path d="M352.975 979.414c1.203-.506 1.53-2.466.733-4.378-.798-1.909-2.42-3.054-3.624-2.549M347.574 735.049c1.325-.41 2.913.923 3.538 2.972.62 2.02.083 3.981-1.2 4.435" style="fill:none;stroke:#00ff4a;stroke-width:.999997;stroke-linecap:round;stroke-linejoin:round;stroke-miterlimit:500;stroke-dasharray:none;stroke-opacity:1;visibility:visible"/><path d="m350.086 972.487-1.43.617c-1.205.5-1.533 2.462-.732 4.372.8 1.912 2.42 3.058 3.626 2.555l.05-.02 1.376-.597" style="fill:none;stroke:#00ff4a;stroke-width:1.99999;stroke-linecap:round;stroke-linejoin:round;stroke-miterlimit:500;stroke-dasharray:none;stroke-opacity:1;visibility:visible"/><path d="M589.69 698.517c8.668-.747 17.199-1.385 25.483-1.943M348.54 973.174c1.2-.504 2.823.641 3.622 2.552.79 1.888.48 3.81-.679 4.354" style="fill:none;stroke:#00ff4a;stroke-width:.999997;stroke-linecap:round;stroke-linejoin:round;stroke-miterlimit:500;stroke-dasharray:none;stroke-opacity:1;visibility:visible"/><path d="M580.679 699.325c3.018-.281 6.024-.552 9.013-.807" style="fill:none;stroke:#00ff4a;stroke-width:1.99999;stroke-linecap:round;stroke-linejoin:round;stroke-miterlimit:500;stroke-dasharray:none;stroke-opacity:1;visibility:visible"/><path d="M563.919 701.02c5.606-.612 11.201-1.178 16.757-1.695" style="fill:none;stroke:#00ff4a;stroke-width:.999997;stroke-linecap:round;stroke-linejoin:round;stroke-miterlimit:500;stroke-dasharray:none;stroke-opacity:1;visibility:visible"/><path d="M555.179 702.014c2.914-.346 5.829-.677 8.741-.994" style="fill:none;stroke:#00ff4a;stroke-width:1.99999;stroke-linecap:round;stroke-linejoin:round;stroke-miterlimit:500;stroke-dasharray:none;stroke-opacity:1;visibility:visible"/><path d="M538.675 704.126a836.069 836.069 0 0 1 16.504-2.112" style="fill:none;stroke:#00ff4a;stroke-width:.999997;stroke-linecap:round;stroke-linejoin:round;stroke-miterlimit:500;stroke-dasharray:none;stroke-opacity:1;visibility:visible"/><path d="M530.401 705.314a718 718 0 0 1 8.274-1.188" style="fill:none;stroke:#00ff4a;stroke-width:1.99999;stroke-linecap:round;stroke-linejoin:round;stroke-miterlimit:500;stroke-dasharray:none;stroke-opacity:1;visibility:visible"/><path d="M514.079 707.918a927.73 927.73 0 0 1 11.345-1.844 555.95 555.95 0 0 1 4.977-.76" style="fill:none;stroke:#00ff4a;stroke-width:.999997;stroke-linecap:round;stroke-linejoin:round;stroke-miterlimit:500;stroke-dasharray:none;stroke-opacity:1;visibility:visible"/><path d="M506.119 709.301c2.585-.461 5.241-.921 7.96-1.383" style="fill:none;stroke:#00ff4a;stroke-width:1.99999;stroke-linecap:round;stroke-linejoin:round;stroke-miterlimit:500;stroke-dasharray:none;stroke-opacity:1;visibility:visible"/><path d="M490.968 712.158c4.784-.95 9.83-1.904 15.152-2.858" style="fill:none;stroke:#00ff4a;stroke-width:.999997;stroke-linecap:round;stroke-linejoin:round;stroke-miterlimit:500;stroke-dasharray:none;stroke-opacity:1;visibility:visible"/><path d="M482.884 713.812c2.606-.55 5.3-1.102 8.083-1.654" style="fill:none;stroke:#00ff4a;stroke-width:1.99999;stroke-linecap:round;stroke-linejoin:round;stroke-miterlimit:500;stroke-dasharray:none;stroke-opacity:1;visibility:visible"/><path d="M443.039 723.522a579.237 579.237 0 0 1 13.104-3.508M473.812 715.784c2.901-.651 5.92-1.31 9.073-1.972" style="fill:none;stroke:#00ff4a;stroke-width:.999997;stroke-linecap:round;stroke-linejoin:round;stroke-miterlimit:500;stroke-dasharray:none;stroke-opacity:1;visibility:visible"/><path d="M435.052 725.817a631.778 631.778 0 0 1 7.988-2.295" style="fill:none;stroke:#00ff4a;stroke-width:1.99999;stroke-linecap:round;stroke-linejoin:round;stroke-miterlimit:500;stroke-dasharray:none;stroke-opacity:1;visibility:visible"/><path d="m417.778 731.158 11.102-3.5c1.888-.568 3.94-1.185 6.172-1.841" style="fill:none;stroke:#00ff4a;stroke-width:.999997;stroke-linecap:round;stroke-linejoin:round;stroke-miterlimit:500;stroke-dasharray:none;stroke-opacity:1;visibility:visible"/><path d="M368.156 972.566c-.42.989-1.294 1.57-1.933 1.297-.648-.276-.83-1.303-.412-2.295.429-.992 1.293-1.576 1.939-1.3.645.274.825 1.299.406 2.297v.001M367.73 735.517c-.314 1.081-1.16 1.787-1.88 1.579-.72-.214-1.054-1.262-.743-2.342.319-1.084 1.161-1.792 1.885-1.581.72.21 1.051 1.256.738 2.344" style="fill:none;stroke:#00ff4a;stroke-width:.666665;stroke-linecap:round;stroke-linejoin:round;stroke-miterlimit:4;stroke-dasharray:none;stroke-opacity:1;visibility:visible"/><path d="m528.653 905.883.415-.093.533-.05.602-.004.634.044.591.09.507.125.369.15.207.163.021.158-.163.144-.337.115-.477.07-.575.028-.624-.021-.617-.065-.559-.11-.44-.137-.291-.161-.116-.162.071-.151.25-.134M532.839 680.412l.414-.094.534-.05.601-.003.635.045.59.09.507.123.37.151.205.16.022.16-.162.146-.338.113-.477.07-.573.03-.627-.023-.616-.065-.557-.11-.443-.137-.29-.16-.114-.164.069-.15.251-.132" style="fill:none;stroke:#00ff4a;stroke-width:.999997;stroke-linecap:round;stroke-linejoin:round;stroke-miterlimit:4;stroke-dasharray:none;stroke-opacity:1;visibility:visible"/><path d="m347.635 733.684.05 9.778M348.91 972.13l.046 8.741M347.685 743.462l-.05-9.778M348.956 980.871l-.046-8.74M436.338 903.24l-2.902 11.333M436.224 915.685l-2.945 17.533M437.007 829.906l-2.999 16.889M433.436 914.573l.123-14.666M437.662 758.128l-3.03 14.656M434.008 846.795l.15-17.56M434.632 772.784l.132-15.544M441.16 917.018l17.536 7.285M436.338 903.24l-.114 12.445M441.989 831.019l-5.146 16.888M433.436 914.573l2.902-11.333M442.681 759.24l-5.157 14.221M434.008 846.795l2.999-16.889M434.632 772.784l3.03-14.656M464.607 919.353l16.201-4.435M486.251 913.54l17.116-3.971M509 908.374l18.033-3.459M533.2 903.842l17.25-2.729M558.1 900.027l17.73-2.205" style="fill:none;stroke:#00ff4a;stroke-width:1.99999;stroke-linecap:round;stroke-linejoin:round;stroke-miterlimit:500;stroke-dasharray:none;stroke-opacity:1;visibility:visible"/><path d="m437.524 773.461 5.157-14.221M436.843 847.907l5.146-16.888M442.681 759.24l-.15 15.776M436.224 915.685l5.064-12.224M441.989 831.019l-.178 18.442M436.11 927.844l5.05-10.826M347.685 743.462l5.78 7.943M349.282 734.481l4.392-7.24M348.956 980.871l5.551 7.473M350.086 972.487l4.254-6.809M349.282 734.481l-1.708.568M351.56 741.908l-1.648.548M350.086 972.487l-1.546.687M352.976 979.414l-1.493.666M473.812 715.784l-17.669 4.23M490.967 712.158l-17.155 3.626" style="fill:none;stroke:#00ff4a;stroke-width:.999997;stroke-linecap:round;stroke-linejoin:round;stroke-miterlimit:500;stroke-dasharray:none;stroke-opacity:1;visibility:visible"/><path d="m533.2 903.842-4.547 2.041" style="fill:none;stroke:#00ff4a;stroke-width:.999997;stroke-linecap:round;stroke-linejoin:round;stroke-miterlimit:4;stroke-dasharray:none;stroke-opacity:1;visibility:visible"/><path d="m349.282 734.481-1.649-5.47M347.635 733.684l-9.336-1.839M353.464 751.405l5.751-1.811" style="fill:none;stroke:red;stroke-width:1.99999;stroke-linecap:round;stroke-linejoin:round;stroke-miterlimit:500;stroke-dasharray:none;stroke-opacity:1;visibility:visible"/><path d="m211.735 842.637 15.524 4.437M347.635 733.684l-12.98-.693M353.464 751.405l2.146-.685" style="fill:none;stroke:red;stroke-width:.999997;stroke-linecap:round;stroke-linejoin:round;stroke-miterlimit:500;stroke-dasharray:none;stroke-opacity:1;visibility:visible"/><path d="m378.591 743.449 10.088 4.42M211.735 842.637l2.419-1.707M211.735 842.637l11.94-4.875M246.986 878.74l-11.666-5.854M242.84 875.503l-7.52-2.617M221.486 679.797l-11.623 2.447M220.39 674.308l-2.446 7.687" style="fill:none;stroke:red;stroke-width:.666665;stroke-linecap:round;stroke-linejoin:round;stroke-miterlimit:4;stroke-dasharray:none;stroke-opacity:1;visibility:visible"/><path d="m402.102 749.683 10.239-16.776M442.53 775.016l18.135-3.778" style="fill:none;stroke:#00ff4a;stroke-width:1.99999;stroke-linecap:round;stroke-linejoin:round;stroke-miterlimit:500;stroke-dasharray:none;stroke-opacity:1;visibility:visible"/><path d="m348.91 972.13 19.246.436" style="fill:none;stroke:#00ff4a;stroke-width:.666665;stroke-linecap:round;stroke-linejoin:round;stroke-miterlimit:4;stroke-dasharray:none;stroke-opacity:1;visibility:visible"/></svg>