<svg xmlns="http://www.w3.org/2000/svg" baseProfile="full" height="1122.52" preserveAspectRatio="xMinYMin meet" style="width:765px;height:943px" width="793.701" xml:space="preserve"><path d="M271.975 1012.94c-.418.99-1.293 1.571-1.932 1.3-.648-.276-.83-1.305-.413-2.297.43-.992 1.293-1.573 1.94-1.3.645.276.825 1.3.405 2.297" style="fill:none;stroke:red;stroke-width:.666665;stroke-linecap:round;stroke-linejoin:round;stroke-miterlimit:4;stroke-dasharray:none;stroke-opacity:1;visibility:visible"/><path d="m219.38 1000.407.041 3.645M109.304 707.893l5.556 185.822-60.88 21.948.115 2.923M54.404 926.656l.401 9.566 6.23 2.852M66.055 941.368l3.02 1.334 60.675-22.875.863.514 124.802 53.597M204.554 745.473l.172 15.453.68.432M210.16 762.864l6.386 2.016.131 7.234M216.777 780.188l.02 1.528 5.23 1.666 29.554-9.61M50.17 709.108l1.914.606M56.36 711.214l3.363 1.112 64.026-17.5M113.404 706.686 50.139 724.19l-4.252-1.446-.038-.99M45.499 713.244l-.523-11.89.147-.746.352-.468M309.189 750.525l.114-18.385-.626-.646-.437-.146M309.027 778.214l-.04 12.041M308.946 800.451l-.328 60.366M308.537 870.894l-.327 62.825M308.169 943.303l-.199 34.357-83.124 35.974-11-5.044M208.015 1005.768l-.064-6.404 9.959-4.164" style="fill:none;stroke:red;stroke-width:1.99999;stroke-linecap:round;stroke-linejoin:round;stroke-miterlimit:500;stroke-dasharray:none;stroke-opacity:1;visibility:visible"/><path d="m281.137 787.624-.067 175.783-61.827 25.97.04 3.349" style="fill:none;stroke:red;stroke-width:1.99999;stroke-linecap:round;stroke-linejoin:round;stroke-miterlimit:500;stroke-dasharray:none;stroke-opacity:1;visibility:visible"/><path d="m45.267 700.51 14.458 4.711.246 7.023M204.554 745.473l17.584 5.75-.25 7.417 86.79-27.146M221.926 775.268l-.039-16.628-7.09-2.348M208.958 754.356l-4.301-1.424M221.966 778.418l.06 4.964M303.538 733.101l-.104 19.253M303.337 780.14l-.032 9.018M303.278 798.915l-.252 60.148M302.955 869.14l-.252 62.162M302.674 941.104l-.036 38.556M120.217 909.374 58.92 931.846M274.246 961.016l-117.558-49.325M263.08 970.716l-133.554-57.111.222 6.22M146.929 903.222l-4.93-201.51M131.525 710.522l4.53 172.495M243.303 732.828l-119.79-37.25M123.516 695.58l-.99-.307-8.68 10.413M123.748 694.828l-.444-6.112 131.333 41M68.784 936.347l63.965-23.744M128.858 913.16l-9.444-16.444.266 11.731.845 1.38 8.333 3.333M122.192 894.714l-63.867 22.841M53.98 915.662l4.345 1.893.555 14.352 9.904 4.44.29 6.353M113.525 697.828l5.83 197.578-4.496-1.69M49.776 708.94l.63 15.144" style="fill:none;stroke:red;stroke-width:.999997;stroke-linecap:round;stroke-linejoin:round;stroke-miterlimit:500;stroke-dasharray:none;stroke-opacity:1;visibility:visible"/><path d="m44.388 692.577 15.084 5 .252 7.644 63.644-17.24M57.123 925.58c1.067-.363 1.46-2.08.872-3.85-.583-1.765-1.927-2.913-3-2.56" style="fill:none;stroke:red;stroke-width:.999997;stroke-linecap:round;stroke-linejoin:round;stroke-miterlimit:500;stroke-dasharray:none;stroke-opacity:1;visibility:visible"/><path d="m54.997 919.17-1.27.443c-1.068.351-1.463 2.075-.874 3.843.587 1.766 1.928 2.913 2.998 2.564a.867.867 0 0 1 .045-.017l1.227-.423" style="fill:none;stroke:red;stroke-width:1.99999;stroke-linecap:round;stroke-linejoin:round;stroke-miterlimit:500;stroke-dasharray:none;stroke-opacity:1;visibility:visible"/><path d="M65.86 941.058c1.068-.359 1.458-2.086.868-3.862-.588-1.776-1.935-2.93-3.004-2.576M53.623 919.665c1.069-.36 2.412.792 2.997 2.557.579 1.745.204 3.44-.828 3.833" style="fill:none;stroke:red;stroke-width:.999997;stroke-linecap:round;stroke-linejoin:round;stroke-miterlimit:500;stroke-dasharray:none;stroke-opacity:1;visibility:visible"/><path d="m63.725 934.62-1.272.443c-1.068.352-1.458 2.081-.868 3.86.588 1.777 1.935 2.93 3.002 2.577l.046-.017 1.227-.425" style="fill:none;stroke:red;stroke-width:1.99999;stroke-linecap:round;stroke-linejoin:round;stroke-miterlimit:500;stroke-dasharray:none;stroke-opacity:1;visibility:visible"/><path d="M56.375 710.812c1.155-.292 1.713-2.063 1.242-3.962-.216-.866-.61-1.612-1.087-2.137-.24-.265-.163-.475-.759-.763-.366-.172-.751-.102-1.106-.01M62.35 935.112c1.068-.354 2.413.8 3.001 2.576.582 1.752.211 3.454-.822 3.844" style="fill:none;stroke:red;stroke-width:.999997;stroke-linecap:round;stroke-linejoin:round;stroke-miterlimit:500;stroke-dasharray:none;stroke-opacity:1;visibility:visible"/><path d="m54.667 703.94-1.38.36c-1.154.288-1.711 2.06-1.242 3.96.472 1.893 1.792 3.2 2.951 2.914.019-.002.032-.008.05-.013l1.33-.35" style="fill:none;stroke:red;stroke-width:1.99999;stroke-linecap:round;stroke-linejoin:round;stroke-miterlimit:500;stroke-dasharray:none;stroke-opacity:1;visibility:visible"/><path d="M48.437 720.798c1.139-.32 1.643-2.085 1.126-3.948-.516-1.858-1.863-3.112-2.998-2.798M53.172 704.345c1.157-.29 2.48 1.019 2.952 2.915.465 1.869-.07 3.614-1.196 3.946" style="fill:none;stroke:red;stroke-width:.999997;stroke-linecap:round;stroke-linejoin:round;stroke-miterlimit:500;stroke-dasharray:none;stroke-opacity:1;visibility:visible"/><path d="m46.565 714.054-1.358.399c-1.137.315-1.642 2.079-1.124 3.943.514 1.857 1.857 3.114 2.997 2.8a.233.233 0 0 0 .051-.016l1.305-.38" style="fill:none;stroke:red;stroke-width:1.99999;stroke-linecap:round;stroke-linejoin:round;stroke-miterlimit:500;stroke-dasharray:none;stroke-opacity:1;visibility:visible"/><path d="m207.953 999.366 11.474 5.352M285.767 786.085l-.23 179-4.464-1.821M224.515 991.539l77.79-32.88M219.245 989.378l5.27 2.161.067 4.557M224.618 998.371l.228 15.263M45.096 714.5c1.139-.318 2.48.937 2.999 2.797.509 1.836.028 3.575-1.08 3.932" style="fill:none;stroke:red;stroke-width:.999997;stroke-linecap:round;stroke-linejoin:round;stroke-miterlimit:500;stroke-dasharray:none;stroke-opacity:1;visibility:visible"/><path d="M223.154 999.863c.377-.148.676-.448.873-.844.258-.508.593-.416.611-1.487.025-1.237-.41-1.297-.576-1.637-.044-.079-.062-.172-.099-.261-.726-1.872-2.272-3.026-3.448-2.568" style="fill:none;stroke:red;stroke-width:.999997;stroke-linecap:round;stroke-linejoin:round;stroke-miterlimit:500;stroke-dasharray:none;stroke-opacity:1;visibility:visible"/><path d="m220.517 993.067-1.399.565c-1.176.454-1.536 2.344-.81 4.222.728 1.872 2.272 3.024 3.448 2.573a.52.52 0 0 0 .05-.021l1.348-.542" style="fill:none;stroke:red;stroke-width:1.99999;stroke-linecap:round;stroke-linejoin:round;stroke-miterlimit:500;stroke-dasharray:none;stroke-opacity:1;visibility:visible"/><path d="M213.666 1008.274c1.17-.444 1.55-2.312.85-4.18-.704-1.864-2.221-3.024-3.391-2.584M219.006 993.694c1.176-.459 2.72.694 3.45 2.57.714 1.847.369 3.708-.764 4.203" style="fill:none;stroke:red;stroke-width:.999997;stroke-linecap:round;stroke-linejoin:round;stroke-miterlimit:500;stroke-dasharray:none;stroke-opacity:1;visibility:visible"/><path d="m211.126 1001.511-1.392.547c-1.17.437-1.55 2.31-.85 4.177.704 1.86 2.219 3.021 3.391 2.581.016-.005.035-.01.049-.018l1.341-.524" style="fill:none;stroke:red;stroke-width:1.99999;stroke-linecap:round;stroke-linejoin:round;stroke-miterlimit:500;stroke-dasharray:none;stroke-opacity:1;visibility:visible"/><path d="M220.46 779.564c.52-.162.918-.576 1.166-1.148.156-.368.736-.678.524-2.303-.059-.45-.537-1.025-.563-1.104-.652-1.855-2.1-3.036-3.322-2.664M209.62 1002.12c1.17-.44 2.69.714 3.39 2.582.693 1.836.333 3.674-.799 4.156" style="fill:none;stroke:red;stroke-width:.999997;stroke-linecap:round;stroke-linejoin:round;stroke-miterlimit:500;stroke-dasharray:none;stroke-opacity:1;visibility:visible"/><path d="m218.263 772.345-1.516.481c-1.269.384-1.81 2.319-1.204 4.31.607 1.991 2.13 3.293 3.402 2.909l.055-.017 1.458-.464" style="fill:none;stroke:red;stroke-width:1.99999;stroke-linecap:round;stroke-linejoin:round;stroke-miterlimit:500;stroke-dasharray:none;stroke-opacity:1;visibility:visible"/><path d="M210.295 762.358c1.278-.361 1.862-2.27 1.302-4.273-.558-2-2.05-3.333-3.328-2.976M216.625 772.885c1.273-.388 2.797.915 3.402 2.907.598 1.962.08 3.86-1.153 4.292" style="fill:none;stroke:red;stroke-width:.999997;stroke-linecap:round;stroke-linejoin:round;stroke-miterlimit:500;stroke-dasharray:none;stroke-opacity:1;visibility:visible"/><path d="m208.27 755.108-1.523.448c-1.276.354-1.857 2.268-1.297 4.268.557 2 2.047 3.333 3.323 2.98a.239.239 0 0 0 .056-.016l1.466-.431" style="fill:none;stroke:red;stroke-width:1.99999;stroke-linecap:round;stroke-linejoin:round;stroke-miterlimit:500;stroke-dasharray:none;stroke-opacity:1;visibility:visible"/><path d="M206.625 755.609c1.277-.357 2.764.979 3.325 2.976.55 1.975-.01 3.857-1.247 4.259" style="fill:none;stroke:red;stroke-width:.999997;stroke-linecap:round;stroke-linejoin:round;stroke-miterlimit:500;stroke-dasharray:none;stroke-opacity:1;visibility:visible"/><path d="M294.103 933.224c-.64-.232-.872-1.213-.517-2.197.361-.98 1.168-1.587 1.81-1.352M294.346 864.449c-.653-.214-.919-1.199-.593-2.195.33-1 1.125-1.633 1.78-1.417M295.095 793.9a.91.91 0 0 1-.5.004c-.67-.199-.975-1.182-.684-2.199.302-1.022 1.089-1.688 1.76-1.495M236.94 726.201c.414 1.461-.04 2.875-1.01 3.148-.968.276-2.095-.684-2.517-2.145-.41-1.47.041-2.878 1.012-3.154.968-.276 2.093.68 2.514 2.151h.001M154.988 700.364c.402 1.414-.006 2.77-.902 3.024s-1.953-.683-2.356-2.095c-.398-1.419.004-2.773.9-3.028.895-.255 1.948.683 2.358 2.099M284.974 920.747c.541 1.404.233 2.834-.681 3.186-.915.355-2.104-.493-2.65-1.896-.54-1.41-.237-2.834.684-3.191.913-.353 2.098.494 2.647 1.901M285.157 806.547c.476 1.456.073 2.9-.89 3.214-.97.318-2.145-.602-2.629-2.058-.472-1.46-.073-2.9.896-3.216.965-.317 2.137.603 2.623 2.06M238.669 962.36c.501 1.378.194 2.756-.679 3.076-.873.318-1.992-.54-2.5-1.916-.499-1.386-.193-2.76.684-3.078.87-.319 1.986.538 2.496 1.918h-.001M159.904 928.876c.46 1.344.16 2.667-.656 2.944-.822.278-1.864-.582-2.323-1.928-.456-1.349-.161-2.666.661-2.945.818-.279 1.852.58 2.318 1.93v-.001M117.08 854c.45 1.32.165 2.616-.628 2.884-.794.27-1.807-.578-2.26-1.897-.448-1.325-.167-2.614.63-2.885.791-.27 1.8.576 2.258 1.899V854M113.956 747.722c.388 1.366.01 2.675-.836 2.915-.849.239-1.855-.672-2.247-2.037-.385-1.372-.01-2.675.839-2.916.844-.244 1.846.669 2.244 2.038" style="fill:none;stroke:red;stroke-width:.666665;stroke-linecap:round;stroke-linejoin:round;stroke-miterlimit:4;stroke-dasharray:none;stroke-opacity:1;visibility:visible"/><path d="m261.489 968.319 4.876-.305 13.2-11.52 1.508-4.352" style="fill:none;stroke:red;stroke-width:.999997;stroke-linecap:round;stroke-linejoin:round;stroke-miterlimit:500;stroke-dasharray:none;stroke-opacity:1;visibility:visible"/><path d="M257.467 966.107a.452.452 0 0 1-.016-.117c0-.588 1.163-1.07 2.599-1.07.4 0 .785.04 1.127.103M266.794 962.264a.373.373 0 0 1-.017-.114c0-.59 1.162-1.072 2.597-1.072.403 0 .787.041 1.13.106" style="fill:none;stroke:red;stroke-width:.666665;stroke-linecap:round;stroke-linejoin:round;stroke-miterlimit:4;stroke-dasharray:none;stroke-opacity:1;visibility:visible"/><path d="m274.133 961.187-2.25-.893-.881.322s-.61.322-.567 1.082l.055.544" style="fill:none;stroke:red;stroke-width:.666665;stroke-linecap:round;stroke-linejoin:round;stroke-miterlimit:4;stroke-dasharray:none;stroke-opacity:1;visibility:visible"/><path d="M271.022 962.038s-1.361.844-3.273.104l-6.055 2.325s-.555.29-.596.988v.39" style="fill:none;stroke:red;stroke-width:.666665;stroke-linecap:round;stroke-linejoin:round;stroke-miterlimit:4;stroke-dasharray:none;stroke-opacity:1;visibility:visible"/><path d="M271.27 963.047s-2.081-.97-3.995.533l-.534.454s-1.359.448-1.486 1.296c-.1.701 1.155 1.217 1.155 1.217l.452.533M265.854 966.99c0 .302-.6.544-1.339.544-.74 0-1.34-.242-1.34-.544 0-.304.6-.547 1.34-.547.739 0 1.339.243 1.339.547M261.731 965.738s-1.294.86-3.416.198l-1.052.4.031.822 3.328 1.37 3.27-.09s-.174.657.481.996c.658.342 1.111.486 1.111.486M120.733 878.52c-.01-.363.061-.748.21-1.127.47-1.178 1.552-1.844 2.426-1.496.544.218.877.778.935 1.456" style="fill:none;stroke:red;stroke-width:.666665;stroke-linecap:round;stroke-linejoin:round;stroke-miterlimit:4;stroke-dasharray:none;stroke-opacity:1;visibility:visible"/><path d="M271.065 963.191s-1.318-.495-2.185-.185c-.862.308-.574.742.045.864l.614.764M130.142 875.389a2.938 2.938 0 0 1 .212-1.126c.468-1.178 1.551-1.845 2.424-1.497.546.219.878.779.938 1.456M122.76 875.915c.158.3.242.665.237 1.06M133.453 881.24c-.257.652-.843 1.028-1.305.846-.466-.189-.632-.864-.376-1.516.26-.647.845-1.024 1.308-.837.462.185.631.857.373 1.507M124.033 884.397c-.257.65-.843 1.028-1.305.843-.466-.187-.632-.862-.376-1.51.26-.65.845-1.028 1.308-.841.462.185.631.86.373 1.508M134.164 874.178a2.759 2.759 0 0 1-.159 1.59c-.468 1.176-1.55 1.848-2.424 1.501-.683-.273-1.032-1.093-.925-2.003M124.754 877.307a2.776 2.776 0 0 1-.158 1.59c-.47 1.176-1.552 1.848-2.424 1.5-.684-.277-1.036-1.092-.927-2.003" style="fill:none;stroke:red;stroke-width:.666665;stroke-linecap:round;stroke-linejoin:round;stroke-miterlimit:4;stroke-dasharray:none;stroke-opacity:1;visibility:visible"/><path d="M132.17 872.785c.16.3.244.665.238 1.06M155.449 914.347l-.063-1.174s.04-.72.596-.966M153.122 914.347l-.064-.593c-.076-.208-.241-.379-.574-.334M146.636 916.2l5.91-2.037M143.712 917.58s.101-.988-.598-.846M120.609 878.662l-.763.248.104 4.304.618 2.346.182 1.77.063 3.233s.061.599.187.7l12.704 22.094s.35.537.804.72l2.326.93s1.01.369 1.214.616l1.112.948 3.046 1.195.744-.247M130.018 875.553l-5.661 1.896-1.361-.476-.576.145s.062 1.112-.866 1.73" style="fill:none;stroke:red;stroke-width:.666665;stroke-linecap:round;stroke-linejoin:round;stroke-miterlimit:4;stroke-dasharray:none;stroke-opacity:1;visibility:visible"/><path d="m156.108 912.886.72-.227v-.744l-4.572-1.81-3.398-3.132-12.21-21.144-1.419-5.211-.187-6.404-.472-.187-.866.271-1.296-.453-.6.182s.062 1.03-.842 1.69" style="fill:none;stroke:red;stroke-width:.666665;stroke-linecap:round;stroke-linejoin:round;stroke-miterlimit:4;stroke-dasharray:none;stroke-opacity:1;visibility:visible"/><path d="m135.229 880.618-1.03.352.146 5.29.1.27 12.81 22.279.165.184 3.848 1.502.989-.39" style="fill:none;stroke:red;stroke-width:.666665;stroke-linecap:round;stroke-linejoin:round;stroke-miterlimit:4;stroke-dasharray:none;stroke-opacity:1;visibility:visible"/><path d="m145.36 908.973-12.5-21.747-.164-.41-.062-1.542-.102-.455-1.442-2.942s.004-1.571-1.032-2.372c-.385-.295-1.044-.608-1.748-.491-2.637.43-3.645 3.828-3.585 4.983l-1.276 3.85-.103.473.042 1.505.105.432 12.743 22.177.312.37 1.112.41.472.084 3.788.535s1.378.514 3.541.372c.925-.063 1.904-.123 2.905-.68 1.958-1.091-.165-1.938-.165-1.938l-1.03-1.397s-.207-.207-.764-.392l-.697-.558s-.249-.226-.35-.267" style="fill:none;stroke:red;stroke-width:.666665;stroke-linecap:round;stroke-linejoin:round;stroke-miterlimit:4;stroke-dasharray:none;stroke-opacity:1;visibility:visible"/><path d="m143.918 908.56.166.143.554.227 1.092 1.527s.884.265.309.636c-.577.372-1.706.287-2.222.022l-4.099-.494-.494-.186-.186-.185-12.088-21.004-.06-.308-.02-.681 1.356-4.178s-.098-.734.352-1.237c.152-.172.327-.495.658-.533 1.084-.136.946 1.131.946 1.131l1.568 3.17.02.68.08.29 12.068 20.98M143.596 916.91c-.639-.161-1.058-.437-1.058-.75 0-.5 1.075-.905 2.399-.905 1.136-.001 2.09.295 2.339.699M151.352 911.15c.005.26-.563.484-1.266.5-.706.016-1.281-.185-1.288-.445-.005-.263.563-.487 1.266-.503.705-.013 1.282.188 1.288.448M141.964 914.465c.005.26-.564.484-1.268.5-.704.015-1.28-.187-1.287-.446-.005-.262.563-.484 1.265-.499.707-.017 1.283.185 1.29.445M146.625 916.211c.452.162.732.389.732.639 0 .492-1.101.893-2.461.893-.668 0-1.276-.097-1.719-.256" style="fill:none;stroke:red;stroke-width:.666665;stroke-linecap:round;stroke-linejoin:round;stroke-miterlimit:4;stroke-dasharray:none;stroke-opacity:1;visibility:visible"/><path d="M136.025 898.265c.45.434.541 1.07.208 1.415-.336.347-.97.275-1.421-.162-.452-.436-.544-1.068-.21-1.415.335-.346.971-.273 1.423.162M152.94 913.637c-.64-.164-1.058-.438-1.058-.75 0-.502 1.076-.906 2.399-.906 1.137-.001 2.089.297 2.339.699M155.97 912.94c.451.16.73.386.73.634 0 .496-1.102.896-2.462.896-.668-.001-1.274-.096-1.717-.255M143.382 916.697c.326-.258.944-.435 1.65-.435.338 0 .656.041.932.11M119.969 722.288a3.975 3.975 0 0 1-.093.526c-.35 1.362-1.392 2.271-2.331 2.031-.588-.153-.995-.716-1.133-1.45" style="fill:none;stroke:red;stroke-width:.666665;stroke-linecap:round;stroke-linejoin:round;stroke-miterlimit:4;stroke-dasharray:none;stroke-opacity:1;visibility:visible"/><path d="m137.317 900.273-2.144.957-1.9-1.38.243-2.337 2.144-.956 1.902 1.38-.245 2.336M120.588 885.498l1.008-.328.04 2.039.908 3.316 12.25 21.35 2.718 2.535 1.133.45-1.01.352M152.728 913.423c.325-.26.944-.433 1.648-.433.338-.001.657.037.933.108M129.084 714.201c-.182.7-.727 1.164-1.226 1.036-.498-.13-.756-.799-.578-1.5.177-.7.726-1.161 1.224-1.033.498.128.76.796.58 1.496v.001M119.424 716.785c-.182.7-.728 1.164-1.227 1.036-.497-.127-.756-.796-.577-1.497.177-.7.726-1.164 1.224-1.034.498.128.76.795.58 1.495M118.68 722.046c-.02.11-.04.219-.07.328-.258 1.019-.906 1.784-1.612 2.006M129.634 719.708a3.907 3.907 0 0 1-.094.526c-.35 1.362-1.391 2.271-2.331 2.031-.588-.153-.995-.716-1.133-1.45" style="fill:none;stroke:red;stroke-width:.666665;stroke-linecap:round;stroke-linejoin:round;stroke-miterlimit:4;stroke-dasharray:none;stroke-opacity:1;visibility:visible"/><path d="M116.906 723.23a2.791 2.791 0 0 1 .195-1.284c.459-1.164 1.55-1.816 2.43-1.466.627.25.981.936.969 1.726M128.344 719.465c-.02.11-.039.219-.07.328-.258 1.019-.906 1.784-1.612 2.005" style="fill:none;stroke:red;stroke-width:.666665;stroke-linecap:round;stroke-linejoin:round;stroke-miterlimit:4;stroke-dasharray:none;stroke-opacity:1;visibility:visible"/><path d="M126.57 720.65a2.791 2.791 0 0 1 .195-1.284c.459-1.161 1.55-1.814 2.43-1.466.627.25.981.936.97 1.725" style="fill:none;stroke:red;stroke-width:.666665;stroke-linecap:round;stroke-linejoin:round;stroke-miterlimit:4;stroke-dasharray:none;stroke-opacity:1;visibility:visible"/><path d="m126.989 697.38-10.752 12.805s-.693.695-.43 1.333l.076 3.14s-.055 2.115-.275 2.692c0-.001-.303 1.069-.303 1.616l.137 4.312.495.192 1.236-.356s-.11-1.07.793-1.922l.11.604 1.321.412s.657.192 1.288-.028l6.152-1.73s-.03-1.125.739-1.81c0 0 .164.38.164.545l1.291.416s.769.19 1.292-.028l.713-.221-.164-6.699 1.206-4.557 6.332-7.367M132.984 702.569l2.28-2.667" style="fill:none;stroke:red;stroke-width:.666665;stroke-linecap:round;stroke-linejoin:round;stroke-miterlimit:4;stroke-dasharray:none;stroke-opacity:1;visibility:visible"/><path d="m115.8 716.689 1.04-.304-.054-1.425.768-3.022 11.456-13.853" style="fill:none;stroke:red;stroke-width:.666665;stroke-linecap:round;stroke-linejoin:round;stroke-miterlimit:4;stroke-dasharray:none;stroke-opacity:1;visibility:visible"/><path d="m118.409 711.006.04.946s-.019.352.124.472l1.503 3.216s.172 2.15 1.606 2.962c1.566.886 4.696-.348 4.943-4.676l1.297-3.993s.183-.39.103-.533l-.023-.844 2.546-3.06" style="fill:none;stroke:red;stroke-width:.666665;stroke-linecap:round;stroke-linejoin:round;stroke-miterlimit:4;stroke-dasharray:none;stroke-opacity:1;visibility:visible"/><path d="m131.958 698.838-9.864 11.776s-.122.308-.061 1.011l1.624 3.459s-.176 1.126.765 1.256c.904.124 1.295-1.134 1.255-1.769l1.401-4.286v-.783l.079-.205.63-.768" style="fill:none;stroke:red;stroke-width:.666665;stroke-linecap:round;stroke-linejoin:round;stroke-miterlimit:4;stroke-dasharray:none;stroke-opacity:1;visibility:visible"/><path d="M129.033 704.957c.245-.315.368-.705.352-1.104M131.533 702.434c.361.172.768.211 1.153.11M130.877 701.401l1.152.112M128.729 702.822l2.147-1.42M128.378 703.926l.352-1.104M132.71 703.174l.038-.364M129.605 705.228l-.355-.108M129.033 704.957a.403.403 0 0 0 .219.164M132.75 702.81a.401.401 0 0 0-.064-.267M132.656 702.95c.244.378-.288 1.156-1.187 1.743-.896.583-1.825.752-2.07.377M128.729 702.822l.655 1.03M130.877 701.401l.653 1.032M128.378 703.926l.654 1.03M132.03 701.512l.655 1.03" style="fill:none;stroke:red;stroke-width:.666665;stroke-linecap:round;stroke-linejoin:round;stroke-miterlimit:2;stroke-dasharray:none;stroke-opacity:1;visibility:visible"/><path d="M129.385 703.854a6.536 6.536 0 0 0 1.14-.606 6.576 6.576 0 0 0 1.005-.812" style="fill:none;stroke:red;stroke-width:.666665;stroke-linecap:round;stroke-linejoin:round;stroke-miterlimit:2;stroke-dasharray:none;stroke-opacity:1;visibility:visible"/><path d="m276.634 964.686.456.368M274.103 966.307l6.939-6.003" style="fill:none;stroke:red;stroke-width:.666665;stroke-linecap:round;stroke-linejoin:round;stroke-miterlimit:4;stroke-dasharray:none;stroke-opacity:1;visibility:visible"/><path d="m229.08 737.716-85.775-27.556 3.332-1.332 86.221 27.332" style="fill:none;stroke:red;stroke-width:.999997;stroke-linecap:round;stroke-linejoin:round;stroke-miterlimit:500;stroke-dasharray:none;stroke-opacity:1;visibility:visible"/><path d="m143.97 732.161 60.444 20" style="fill:none;stroke:red;stroke-width:1.99999;stroke-linecap:round;stroke-linejoin:round;stroke-miterlimit:500;stroke-dasharray:none;stroke-opacity:1;visibility:visible"/><path d="m204.858 757.273-60.666-20.667 3.333-1.112 56.445 19.112" style="fill:none;stroke:red;stroke-width:.999997;stroke-linecap:round;stroke-linejoin:round;stroke-miterlimit:500;stroke-dasharray:none;stroke-opacity:1;visibility:visible"/><path d="m144.414 758.382 136.223 47.333" style="fill:none;stroke:red;stroke-width:1.99999;stroke-linecap:round;stroke-linejoin:round;stroke-miterlimit:500;stroke-dasharray:none;stroke-opacity:1;visibility:visible"/><path d="m280.858 810.827-136.221-47.333 3.555-1.112 132.666 46.224" style="fill:none;stroke:red;stroke-width:.999997;stroke-linecap:round;stroke-linejoin:round;stroke-miterlimit:500;stroke-dasharray:none;stroke-opacity:1;visibility:visible"/><path d="m144.637 784.828 136.221 48.887" style="fill:none;stroke:red;stroke-width:1.99999;stroke-linecap:round;stroke-linejoin:round;stroke-miterlimit:500;stroke-dasharray:none;stroke-opacity:1;visibility:visible"/><path d="M281.08 838.827 145.749 789.94l2.888-1.112 132.444 47.332" style="fill:none;stroke:red;stroke-width:.999997;stroke-linecap:round;stroke-linejoin:round;stroke-miterlimit:500;stroke-dasharray:none;stroke-opacity:1;visibility:visible"/><path d="m145.97 811.273 135.11 50.221" style="fill:none;stroke:red;stroke-width:1.99999;stroke-linecap:round;stroke-linejoin:round;stroke-miterlimit:500;stroke-dasharray:none;stroke-opacity:1;visibility:visible"/><path d="M280.858 866.383 145.97 816.16l3.111-1.334 132.222 49.334" style="fill:none;stroke:red;stroke-width:.999997;stroke-linecap:round;stroke-linejoin:round;stroke-miterlimit:500;stroke-dasharray:none;stroke-opacity:1;visibility:visible"/><path d="m146.414 837.273 134.444 51.333" style="fill:none;stroke:red;stroke-width:1.99999;stroke-linecap:round;stroke-linejoin:round;stroke-miterlimit:500;stroke-dasharray:none;stroke-opacity:1;visibility:visible"/><path d="m280.637 893.714-134-51.776 3.333-1.333 130.888 50.665" style="fill:none;stroke:red;stroke-width:.999997;stroke-linecap:round;stroke-linejoin:round;stroke-miterlimit:500;stroke-dasharray:none;stroke-opacity:1;visibility:visible"/><path d="m146.637 862.827 134.221 53.113" style="fill:none;stroke:red;stroke-width:1.99999;stroke-linecap:round;stroke-linejoin:round;stroke-miterlimit:500;stroke-dasharray:none;stroke-opacity:1;visibility:visible"/><path d="m280.637 921.714-133.719-54.195 3.274-1.138 130.666 51.778" style="fill:none;stroke:red;stroke-width:.999997;stroke-linecap:round;stroke-linejoin:round;stroke-miterlimit:500;stroke-dasharray:none;stroke-opacity:1;visibility:visible"/><path d="m147.513 888.347 133.569 54.477" style="fill:none;stroke:red;stroke-width:1.99999;stroke-linecap:round;stroke-linejoin:round;stroke-miterlimit:500;stroke-dasharray:none;stroke-opacity:1;visibility:visible"/><path d="m279.97 948.827-133.189-55.5 4.315-1.604 129.762 53.55" style="fill:none;stroke:red;stroke-width:.999997;stroke-linecap:round;stroke-linejoin:round;stroke-miterlimit:500;stroke-dasharray:none;stroke-opacity:1;visibility:visible"/><path d="m142.5 705 93.47 30.494" style="fill:none;stroke:red;stroke-width:1.99999;stroke-linecap:round;stroke-linejoin:round;stroke-miterlimit:500;stroke-dasharray:none;stroke-opacity:1;visibility:visible"/><path d="m267.303 725.494-143.555-44.666-.444 7.888" style="fill:none;stroke:red;stroke-width:.999997;stroke-linecap:round;stroke-linejoin:round;stroke-miterlimit:500;stroke-dasharray:none;stroke-opacity:1;visibility:visible"/><path d="m268.453 725.841-63.9 19.633" style="fill:none;stroke:red;stroke-width:1.99999;stroke-linecap:round;stroke-linejoin:round;stroke-miterlimit:500;stroke-dasharray:none;stroke-opacity:1;visibility:visible"/><path d="M286.975 720.273c-3.87 1.232-6.005 1.721-6.005 1.721l-12.52 3.847" style="fill:none;stroke:red;stroke-width:.999997;stroke-linecap:round;stroke-linejoin:round;stroke-miterlimit:500;stroke-dasharray:none;stroke-opacity:1;visibility:visible"/><path d="M294.409 717.7a167.789 167.789 0 0 1-7.434 2.573" style="fill:none;stroke:red;stroke-width:1.99999;stroke-linecap:round;stroke-linejoin:round;stroke-miterlimit:500;stroke-dasharray:none;stroke-opacity:1;visibility:visible"/><path d="M310.375 710.978a215.033 215.033 0 0 1-15.968 6.722" style="fill:none;stroke:red;stroke-width:.999997;stroke-linecap:round;stroke-linejoin:round;stroke-miterlimit:500;stroke-dasharray:none;stroke-opacity:1;visibility:visible"/><path d="M318.493 707.001a239.35 239.35 0 0 1-8.12 3.975" style="fill:none;stroke:red;stroke-width:1.99999;stroke-linecap:round;stroke-linejoin:round;stroke-miterlimit:500;stroke-dasharray:none;stroke-opacity:1;visibility:visible"/><path d="M329.317 701.126a261.109 261.109 0 0 1-10.824 5.875" style="fill:none;stroke:red;stroke-width:.999997;stroke-linecap:round;stroke-linejoin:round;stroke-miterlimit:500;stroke-dasharray:none;stroke-opacity:1;visibility:visible"/><path d="M337.79 696.068a283.733 283.733 0 0 1-8.472 5.06" style="fill:none;stroke:red;stroke-width:1.99999;stroke-linecap:round;stroke-linejoin:round;stroke-miterlimit:500;stroke-dasharray:none;stroke-opacity:1;visibility:visible"/><path d="M347.574 689.708a290.098 290.098 0 0 1-9.786 6.36" style="fill:none;stroke:red;stroke-width:.999997;stroke-linecap:round;stroke-linejoin:round;stroke-miterlimit:500;stroke-dasharray:none;stroke-opacity:1;visibility:visible"/><path d="M355.626 684.038a312.277 312.277 0 0 1-8.052 5.67" style="fill:none;stroke:red;stroke-width:1.99999;stroke-linecap:round;stroke-linejoin:round;stroke-miterlimit:500;stroke-dasharray:none;stroke-opacity:1;visibility:visible"/><path d="M365.132 676.82a304.494 304.494 0 0 1-9.508 7.218" style="fill:none;stroke:red;stroke-width:.999997;stroke-linecap:round;stroke-linejoin:round;stroke-miterlimit:500;stroke-dasharray:none;stroke-opacity:1;visibility:visible"/><path d="M372.92 670.457a316.215 316.215 0 0 1-7.789 6.361" style="fill:none;stroke:red;stroke-width:1.99999;stroke-linecap:round;stroke-linejoin:round;stroke-miterlimit:500;stroke-dasharray:none;stroke-opacity:1;visibility:visible"/><path d="M382.059 662.44a328.746 328.746 0 0 1-9.139 8.018" style="fill:none;stroke:red;stroke-width:.999997;stroke-linecap:round;stroke-linejoin:round;stroke-miterlimit:500;stroke-dasharray:none;stroke-opacity:1;visibility:visible"/><path d="M390.044 654.91a323.795 323.795 0 0 1-7.986 7.528" style="fill:none;stroke:red;stroke-width:1.99999;stroke-linecap:round;stroke-linejoin:round;stroke-miterlimit:500;stroke-dasharray:none;stroke-opacity:1;visibility:visible"/><path d="M398.546 646.32a339.546 339.546 0 0 1-8.502 8.59" style="fill:none;stroke:red;stroke-width:.999997;stroke-linecap:round;stroke-linejoin:round;stroke-miterlimit:500;stroke-dasharray:none;stroke-opacity:1;visibility:visible"/><path d="M405.303 639.033a349.386 349.386 0 0 1-6.757 7.287" style="fill:none;stroke:red;stroke-width:1.99999;stroke-linecap:round;stroke-linejoin:round;stroke-miterlimit:500;stroke-dasharray:none;stroke-opacity:1;visibility:visible"/><path d="M270.637 586.828c-50 67.112-128.667 88.888-128.667 88.888l-82.5 21.862M222.137 751.222l77.166-23.729s72-17.5 136.97-100.268M418.799 622.995a297.04 297.04 0 0 1-13.495 16.038" style="fill:none;stroke:red;stroke-width:.999997;stroke-linecap:round;stroke-linejoin:round;stroke-miterlimit:500;stroke-dasharray:none;stroke-opacity:1;visibility:visible"/><path d="m285.47 719.994-26.855-8.284M247.78 708.364l-39.641-12.232M196.282 692.473 159.06 680.99M148.525 677.738l-5.61-1.732" style="fill:none;stroke:red;stroke-width:1.99999;stroke-linecap:round;stroke-linejoin:round;stroke-miterlimit:500;stroke-dasharray:none;stroke-opacity:1;visibility:visible"/><path d="m148.76 678.348-.312-4.19M149.382 673.796l144.088 43.862" style="fill:none;stroke:red;stroke-width:.999997;stroke-linecap:round;stroke-linejoin:round;stroke-miterlimit:500;stroke-dasharray:none;stroke-opacity:1;visibility:visible"/><path d="m165.97 667.494 143.833 43" style="fill:none;stroke:red;stroke-width:1.99999;stroke-linecap:round;stroke-linejoin:round;stroke-miterlimit:500;stroke-dasharray:none;stroke-opacity:1;visibility:visible"/><path d="m173.97 668.994-1-5.166 145.5 42.666" style="fill:none;stroke:red;stroke-width:.999997;stroke-linecap:round;stroke-linejoin:round;stroke-miterlimit:500;stroke-dasharray:none;stroke-opacity:1;visibility:visible"/><path d="m183.97 659.328 144.5 41.832" style="fill:none;stroke:red;stroke-width:1.99999;stroke-linecap:round;stroke-linejoin:round;stroke-miterlimit:500;stroke-dasharray:none;stroke-opacity:1;visibility:visible"/><path d="m192.97 659.328-1.218-4.721M192.377 654.375l145.091 41.785" style="fill:none;stroke:red;stroke-width:.999997;stroke-linecap:round;stroke-linejoin:round;stroke-miterlimit:500;stroke-dasharray:none;stroke-opacity:1;visibility:visible"/><path d="M402.188 642.161 260.865 606.08a473.759 473.759 0 0 1-3.482 3.55M244.838 621.716a341.202 341.202 0 0 1-3.363 3.057M229.026 635.428a315.6 315.6 0 0 1-3.221 2.582M211.903 648.287c-2.189 1.483-3.377 2.208-3.377 2.208M201.846 648.981l145.292 41.013" style="fill:none;stroke:red;stroke-width:1.99999;stroke-linecap:round;stroke-linejoin:round;stroke-miterlimit:500;stroke-dasharray:none;stroke-opacity:1;visibility:visible"/><path d="m260.866 606.077-2.167-4.166 146.491 37.028" style="fill:none;stroke:red;stroke-width:.999997;stroke-linecap:round;stroke-linejoin:round;stroke-miterlimit:500;stroke-dasharray:none;stroke-opacity:1;visibility:visible"/><path d="m252.543 608.975 145.588 37.354" style="fill:none;stroke:red;stroke-width:1.99999;stroke-linecap:round;stroke-linejoin:round;stroke-miterlimit:500;stroke-dasharray:none;stroke-opacity:1;visibility:visible"/><path d="m193.137 659.328 138.5 40M210.303 647.661l140.667 39.667M210.303 647.661l-.673-3.5M210.309 643.56l145.16 40.268M244.97 620.995l141 37.165M244.637 621.495l-1.063-3.711M244.218 617.065l145.25 37.763" style="fill:none;stroke:red;stroke-width:.999997;stroke-linecap:round;stroke-linejoin:round;stroke-miterlimit:500;stroke-dasharray:none;stroke-opacity:1;visibility:visible"/><path d="m219.97 636.828 144 40" style="fill:none;stroke:red;stroke-width:1.99999;stroke-linecap:round;stroke-linejoin:round;stroke-miterlimit:500;stroke-dasharray:none;stroke-opacity:1;visibility:visible"/><path d="m227.97 634.995 140.5 38.333M227.97 634.995l-.904-3.352M227.646 630.89l144.322 39.272" style="fill:none;stroke:red;stroke-width:.999997;stroke-linecap:round;stroke-linejoin:round;stroke-miterlimit:500;stroke-dasharray:none;stroke-opacity:1;visibility:visible"/><path d="m44.721 699.661-.333-7.083 75.621-19.813c82.296-20.937 136.252-89.541 136.252-89.541l180.011 44.003 2.4 4.8c-62.869 78.8-130.43 99.322-130.43 99.322M146.858 706.828l.046 1.997M147.473 733.658l.04 1.836M148.085 760.328l.028 1.325M148.677 786.156l.048 2.169M149.296 813.16l.036 1.66M149.89 839.153l.032 1.45M150.474 864.66l.028 1.335M151.06 890.16l.034 1.564M236.47 623.661l145.333 38.667" style="fill:none;stroke:red;stroke-width:1.99999;stroke-linecap:round;stroke-linejoin:round;stroke-miterlimit:500;stroke-dasharray:none;stroke-opacity:1;visibility:visible"/><path d="M52.707 702.068c1.138-.318 1.64-2.083 1.128-3.946-.518-1.86-1.863-3.114-3-2.797" style="fill:none;stroke:red;stroke-width:.999997;stroke-linecap:round;stroke-linejoin:round;stroke-miterlimit:500;stroke-dasharray:none;stroke-opacity:1;visibility:visible"/><path d="m50.833 695.325-1.358.396c-1.136.315-1.64 2.079-1.123 3.943.515 1.856 1.857 3.114 2.997 2.8a.82.82 0 0 0 .051-.014l1.305-.382" style="fill:none;stroke:red;stroke-width:1.99999;stroke-linecap:round;stroke-linejoin:round;stroke-miterlimit:500;stroke-dasharray:none;stroke-opacity:1;visibility:visible"/><path d="M214.24 755.83c1.293-.364 1.884-2.304 1.317-4.338-.562-2.032-2.067-3.392-3.362-3.028M49.367 695.77c1.138-.317 2.48.935 2.998 2.795.51 1.836.027 3.573-1.08 3.932" style="fill:none;stroke:red;stroke-width:.999997;stroke-linecap:round;stroke-linejoin:round;stroke-miterlimit:500;stroke-dasharray:none;stroke-opacity:1;visibility:visible"/><path d="m212.194 748.462-1.541.448c-1.293.358-1.883 2.3-1.32 4.334.562 2.03 2.07 3.393 3.366 3.036.021-.01.036-.012.056-.018l1.482-.432" style="fill:none;stroke:red;stroke-width:1.99999;stroke-linecap:round;stroke-linejoin:round;stroke-miterlimit:500;stroke-dasharray:none;stroke-opacity:1;visibility:visible"/><path d="M210.526 748.965c1.294-.361 2.804 1 3.364 3.03.557 2.005-.008 3.917-1.265 4.321" style="fill:none;stroke:red;stroke-width:.999997;stroke-linecap:round;stroke-linejoin:round;stroke-miterlimit:500;stroke-dasharray:none;stroke-opacity:1;visibility:visible"/><path d="M228.293 744.12c0 .374-.966.677-2.15.677-1.193-.001-2.157-.304-2.157-.677.001-.37.965-.671 2.156-.671 1.185 0 2.15.303 2.15.671h.001M66.388 691.577c0 .273-.812.497-1.812.497-1.001 0-1.816-.224-1.816-.497s.815-.497 1.816-.497c1 0 1.812.224 1.812.497" style="fill:none;stroke:red;stroke-width:.666665;stroke-linecap:round;stroke-linejoin:round;stroke-miterlimit:500;stroke-dasharray:none;stroke-opacity:1;visibility:visible"/><path d="M191.765 660.668c.623-.37 1.172-.716 1.628-1.026" style="fill:none;stroke:red;stroke-width:1.99999;stroke-linecap:round;stroke-linejoin:round;stroke-miterlimit:500;stroke-dasharray:none;stroke-opacity:1;visibility:visible"/><path d="M156.506 678.514a2.557 2.557 0 0 0-.989-.609M156.509 679.385a.587.587 0 0 0 .179-.435.601.601 0 0 0-.18-.434M149.817 678.95a.672.672 0 0 0-.17.454M157.052 679.385a.68.68 0 0 0-.172-.448M156.537 678.544l.343.393M150.16 678.557l-.342.393M155.754 681.104a2.867 2.867 0 0 0 1.1-.684M149.849 680.432c.31.305.688.541 1.099.677M149.648 679.953c0 .177.072.352.198.479M156.857 680.421a.707.707 0 0 0 .195-.487M153.82 679.314l-.944.003M152.876 679.317l-.512-.359M154.338 678.953l-.52.361M149.648 679.402v.55M157.052 679.385v.55M150.949 681.108a7.647 7.647 0 0 0 2.405.388c.816 0 1.626-.139 2.4-.394M152.482 685.356c.143.024.296.03.443.03a2.982 2.982 0 0 0 1.45-.373M154.376 685.014a1.039 1.039 0 0 0 .38-.34M154.757 684.674a.284.284 0 0 0 .05-.158.27.27 0 0 0-.119-.219M152.002 685.166a1.061 1.061 0 0 0 .479.191M151.933 684.788a.292.292 0 0 0-.047.156.267.267 0 0 0 .118.221M152.018 684.684a.907.907 0 0 0-.085.104M152.477 683.382c.143.028.295.035.443.035a3.088 3.088 0 0 0 1.449-.37M154.369 683.046a1.116 1.116 0 0 0 .383-.349M154.752 682.697a.25.25 0 0 0 .052-.156.259.259 0 0 0-.12-.219M151.996 683.192a1.104 1.104 0 0 0 .48.19M151.929 682.814a.255.255 0 0 0-.05.16.267.267 0 0 0 .118.217M152.01 682.71l-.082.104M254.7 713.676a.253.253 0 0 0 .054-.154.27.27 0 0 0-.121-.221M251.945 714.174a1.097 1.097 0 0 0 .48.191M251.877 713.793a.268.268 0 0 0-.048.159.259.259 0 0 0 .116.221M251.958 713.689a1.773 1.773 0 0 1-.083.104M202.093 695.502h.125c.736 0 1.468-.122 2.17-.354M204.386 695.148c.368-.128.71-.339.985-.618M200.049 695.153c.081.028.164.055.246.079M199.053 694.544a2.533 2.533 0 0 0 .993.61M199.053 693.676a.603.603 0 0 0 0 .864M200.048 693.062a2.52 2.52 0 0 0-.994.615M204.383 693.052a6.953 6.953 0 0 0-2.173-.352 6.844 6.844 0 0 0-2.162.362M205.373 693.661a2.568 2.568 0 0 0-.99-.61M205.374 694.53a.597.597 0 0 0 .179-.434.607.607 0 0 0-.18-.436M198.684 694.094a.68.68 0 0 0-.171.454M205.917 694.53a.7.7 0 0 0-.17-.448M205.403 693.69l.344.391M199.024 693.702l-.343.394M204.62 696.25a2.847 2.847 0 0 0 1.1-.685M198.713 695.577c.31.305.687.541 1.1.677M198.514 695.098a.68.68 0 0 0 .197.478M205.72 695.566a.7.7 0 0 0 .193-.486M202.683 694.46l-.942.002M201.74 694.462l-.51-.358M203.202 694.098l-.52.362M198.513 694.548l.001.55M205.917 694.53l-.002.55M199.814 696.254a7.67 7.67 0 0 0 2.404.388c.816 0 1.625-.138 2.402-.392M201.349 700.502a2.693 2.693 0 0 0 .443.03c.507 0 1.002-.123 1.45-.37M203.24 700.161a1.076 1.076 0 0 0 .383-.341" style="fill:none;stroke:red;stroke-width:.666665;stroke-linecap:round;stroke-linejoin:round;stroke-miterlimit:2;stroke-dasharray:none;stroke-opacity:1;visibility:visible"/><path d="M203.623 699.82a.295.295 0 0 0 .051-.16.28.28 0 0 0-.121-.218M200.868 700.312a1.061 1.061 0 0 0 .478.19M200.796 699.934a.292.292 0 0 0-.047.156c0 .09.044.172.119.222M200.882 699.83a1.261 1.261 0 0 0-.085.104M201.344 698.528a2.44 2.44 0 0 0 .442.036 3.11 3.11 0 0 0 1.45-.372M203.235 698.192a1.13 1.13 0 0 0 .383-.35M203.618 697.842a.261.261 0 0 0-.068-.374M200.86 698.338a1.097 1.097 0 0 0 .48.192M200.794 697.961a.263.263 0 0 0-.048.159.257.257 0 0 0 .116.218M200.874 697.856l-.083.104M153.226 680.356h.126a6.89 6.89 0 0 0 2.17-.356M155.522 680.001c.37-.128.71-.339.986-.617M151.184 680.008a6.56 6.56 0 0 0 .246.078M150.19 679.398c.282.276.62.49.994.61M150.189 678.53a.593.593 0 0 0-.18.435.597.597 0 0 0 .181.432M151.182 677.916a2.53 2.53 0 0 0-.992.614M155.518 677.905a6.943 6.943 0 0 0-2.172-.352 6.853 6.853 0 0 0-2.164.363M253.175 711.334a6.925 6.925 0 0 0 2.296-.354M255.47 710.981c.368-.128.71-.336.985-.617M251.133 710.988c.081.026.164.054.246.076M250.137 710.377c.281.276.62.49.993.612M250.137 709.509a.603.603 0 0 0 0 .865M251.13 708.897a2.513 2.513 0 0 0-.993.612M255.466 708.888a6.765 6.765 0 0 0-4.336.01M256.457 709.494a2.56 2.56 0 0 0-.99-.606M256.458 710.364a.597.597 0 0 0 .179-.435.612.612 0 0 0-.18-.435M249.766 709.929a.685.685 0 0 0-.17.456M257 710.366a.707.707 0 0 0-.172-.45M256.486 709.525l.344.39M250.106 709.534l-.341.394M255.702 712.082a2.847 2.847 0 0 0 1.1-.682M249.795 711.41c.311.308.688.542 1.1.678M249.597 710.932a.672.672 0 0 0 .197.477M256.803 711.401a.697.697 0 0 0 .195-.487M253.767 710.296h-.942M252.825 710.296l-.512-.359M254.286 709.934l-.52.362M249.595 710.385l.002.547M257 710.366l-.003.547M250.898 712.088a7.636 7.636 0 0 0 2.404.39 7.787 7.787 0 0 0 2.401-.396M252.431 716.334a3.025 3.025 0 0 0 1.894-.341M254.325 715.994a1.076 1.076 0 0 0 .381-.341M254.706 715.653a.293.293 0 0 0 .05-.156.28.28 0 0 0-.119-.221M251.951 716.148a1.028 1.028 0 0 0 .479.188M251.88 715.77a.285.285 0 0 0-.048.156.267.267 0 0 0 .118.222M251.966 715.664a.965.965 0 0 0-.085.106M252.426 714.364a3.063 3.063 0 0 0 1.892-.339M254.32 714.025a1.103 1.103 0 0 0 .381-.35" style="fill:none;stroke:red;stroke-width:.666665;stroke-linecap:round;stroke-linejoin:round;stroke-miterlimit:2;stroke-dasharray:none;stroke-opacity:1;visibility:visible"/><path d="m223.92 638.11.314-.234.301-.346.249-.406.198-.455.103-.446.012-.408-.087-.325-.17-.22-.243-.09-.292.036-.319.177-.306.295-.283.376-.227.436-.147.453-.062.435.038.368.127.277.212.16.27.024.31-.106M387.25 682.245l.317-.235.297-.345.252-.407.196-.454.103-.447.012-.407-.085-.325-.172-.219-.242-.093-.293.037-.319.178-.305.294-.283.376-.228.436-.146.454-.062.434.039.37.127.276.212.16.269.024.31-.107" style="fill:none;stroke:red;stroke-width:.999997;stroke-linecap:round;stroke-linejoin:round;stroke-miterlimit:4;stroke-dasharray:none;stroke-opacity:1;visibility:visible"/><path d="m224.582 996.096-5.202 4.311M116.906 723.23l-7.602-15.337M54.404 926.656l-.309-8.07M54.095 918.586l.309 8.07M66.055 941.368l-5.02-2.294M222.026 783.382l-5.249-3.194M56.36 711.214l-4.276-1.5M115.8 716.689l-2.396-10.003M50.406 724.084l-4.557-2.33M49.776 708.94l-4.277 4.304M303.538 733.101l5.651 17.424M303.305 789.158l5.722-10.944M308.946 800.451l.041-10.196M308.987 790.255l-.041 10.196M302.955 869.14l5.663-8.323M308.618 860.817l-.081 10.077M302.674 941.104l5.536-7.385M308.21 933.719l-.041 9.584M219.38 1000.407l-11.365 5.361M219.006 993.694l-1.096 1.506M219.38 1000.407l-.097-7.681" style="fill:none;stroke:red;stroke-width:1.99999;stroke-linecap:round;stroke-linejoin:round;stroke-miterlimit:500;stroke-dasharray:none;stroke-opacity:1;visibility:visible"/><path d="m49.776 708.94 10.195 3.304M221.966 778.418l-.04-3.15M214.797 756.292l-5.839-1.936M221.926 775.268l.04 3.15M216.777 780.188l5.249 3.194M309.189 750.525l-5.651-17.424M308.987 790.255l-5.65-10.115M303.278 798.915l.027-9.757M303.305 789.158l-.027 9.757M302.955 869.14l.071-10.077M308.618 860.817l-5.663 8.323M302.674 941.104l.029-9.802M308.21 933.719l-5.536 7.385M137.635 915.212l-17.418-5.838M63.725 934.62l-4.805-2.774M281.073 963.264l-17.993 7.452M141.964 914.465l-12.216 5.36M151.352 911.15l-4.423-7.928M146.904 708.825l-4.905-7.113M129.084 714.201l2.441-3.679M151.06 890.16l-15.005-7.143M127.787 708.529l-13.941-2.843M250.898 712.088l3.739 17.628M63.725 934.62l5.059 1.727M137.635 915.212l-4.886-2.609M143.177 917.487l-14.319-4.327M120.588 885.498l1.604 9.216M54.997 919.17l3.328-1.615M123.748 694.828l-10.223 3M45.849 721.754l4.557 2.33M52.084 709.714l-7.696-17.137M54.997 919.17l-1.374.495M57.123 925.58l-1.331.475M63.725 934.62l-1.375.492M65.86 941.058l-1.331.474M54.667 703.94l-1.495.405M56.376 710.811l-1.448.395M303.305 789.158l-17.538-3.073M274.246 961.016l6.827 2.248M220.517 993.067l3.998-1.528M219.427 1004.718l-.182-15.34M224.618 998.371l-.036-2.275M224.582 996.096l.036 2.275M219.38 1000.407l5.466 13.227M46.565 714.054l-1.469.446M48.436 720.8l-1.421.429M220.517 993.067l-1.511.627M223.154 999.864l-1.462.603M211.126 1001.511l-1.506.609M213.665 1008.274l-1.454.584M220.458 779.564l-1.584.52M208.27 755.108l-1.645.501M210.295 762.357l-1.592.487" style="fill:none;stroke:red;stroke-width:.999997;stroke-linecap:round;stroke-linejoin:round;stroke-miterlimit:500;stroke-dasharray:none;stroke-opacity:1;visibility:visible"/><path d="m257.467 966.107-18.798-3.747M155.449 914.347l4.455 14.529M238.669 962.36l18.798 3.747M261.098 965.845l4.756 1.145M274.133 961.187l-8.649 8.733M124.033 884.397l9.42-3.157M124.033 884.397l9.42-3.157M133.453 881.24l-9.42 3.157M133.453 881.24l-9.42 3.157M151.352 911.15l4.097 3.197M120.588 885.498l14.641-4.88M156.108 912.886l-3.851-2.781M128.858 913.16l16.502-4.187M136.025 898.265l7.893 10.295M155.449 914.347l-4.097-3.197M141.964 914.465l9.388-3.315M151.352 911.15l-9.388 3.315M151.352 911.15l-9.388 3.315M143.918 908.56l-7.893-10.295M137.635 915.212l-.318-14.939M120.609 878.662l-.021 6.836M132.749 912.603l4.886 2.609M119.424 716.785l9.66-2.584M131.525 710.522l-2.441 3.679M128.378 703.926l-8.954 12.859M118.68 722.046l.744-5.261M119.424 716.785l-.744 5.261M113.404 706.686l3.594 17.694M119.424 716.785l8.92 2.68M129.033 704.957l-2.044-7.577M132.984 702.569l5.426-1.84M129.033 704.957l6.231-5.055M113.404 706.686l2.396 10.003M132.984 702.569l-3.974-4.484M129.084 714.201l-10.675-3.195M132.984 702.569l-1.026-3.731M129.033 704.957l-1.246 3.572" style="fill:none;stroke:red;stroke-width:.666665;stroke-linecap:round;stroke-linejoin:round;stroke-miterlimit:4;stroke-dasharray:none;stroke-opacity:1;visibility:visible"/><path d="m204.657 752.932.201 4.341M204.657 752.932l-.687 1.674M281.073 963.264l-1.103-14.437M281.073 963.264l-.215-17.991" style="fill:none;stroke:red;stroke-width:.999997;stroke-linecap:round;stroke-linejoin:round;stroke-miterlimit:500;stroke-dasharray:none;stroke-opacity:1;visibility:visible"/><path d="M129.605 705.228 142.5 705" style="fill:none;stroke:red;stroke-width:1.99999;stroke-linecap:round;stroke-linejoin:round;stroke-miterlimit:500;stroke-dasharray:none;stroke-opacity:1;visibility:visible"/><path d="m258.615 711.71 8.688 13.784M54.667 703.94l4.803-6.362M214.237 755.83l7.9-4.608" style="fill:none;stroke:red;stroke-width:.999997;stroke-linecap:round;stroke-linejoin:round;stroke-miterlimit:500;stroke-dasharray:none;stroke-opacity:1;visibility:visible"/><path d="m255.466 708.888 3.149 2.822M251.133 710.988l-3.353-2.624M204.383 693.052l3.756 3.08M200.049 695.153l-3.767-2.68M155.518 677.905l3.542 3.085M151.184 680.008l-8.269-4.002" style="fill:none;stroke:red;stroke-width:1.99999;stroke-linecap:round;stroke-linejoin:round;stroke-miterlimit:500;stroke-dasharray:none;stroke-opacity:1;visibility:visible"/><path d="m149.647 679.404-1.199-5.246M148.525 677.738l.857-3.942" style="fill:none;stroke:red;stroke-width:.999997;stroke-linecap:round;stroke-linejoin:round;stroke-miterlimit:500;stroke-dasharray:none;stroke-opacity:1;visibility:visible"/><path d="m155.518 677.905 10.452-10.411M244.838 621.716l12.545-12.086M229.026 635.428l12.449-10.655M223.92 638.11l5.106-2.682M211.903 648.287l13.902-10.277M223.92 638.11l-12.017 10.177M193.393 659.642l15.133-9.147M129.084 714.201l17.774-7.373M141.999 701.712l4.905 7.113M133.716 874.222l16.758-9.562M146.929 903.222l4.131-13.062M151.352 911.15l-.258-19.426" style="fill:none;stroke:red;stroke-width:1.99999;stroke-linecap:round;stroke-linejoin:round;stroke-miterlimit:500;stroke-dasharray:none;stroke-opacity:1;visibility:visible"/><path d="m50.833 695.325-1.466.445M52.705 702.068l-1.42.429M212.194 748.462l-1.668.503M214.237 755.83l-1.612.486" style="fill:none;stroke:red;stroke-width:.999997;stroke-linecap:round;stroke-linejoin:round;stroke-miterlimit:500;stroke-dasharray:none;stroke-opacity:1;visibility:visible"/><path d="m202.683 694.46-.59 1.042M153.82 679.314l-.594 1.042M253.767 710.296l-.592 1.038" style="fill:none;stroke:red;stroke-width:.666665;stroke-linecap:round;stroke-linejoin:round;stroke-miterlimit:2;stroke-dasharray:none;stroke-opacity:1;visibility:visible"/><path d="m229.026 635.428-5.106 2.682M372.92 670.457l14.33 11.788" style="fill:none;stroke:red;stroke-width:.999997;stroke-linecap:round;stroke-linejoin:round;stroke-miterlimit:4;stroke-dasharray:none;stroke-opacity:1;visibility:visible"/><path d="M336.302 968.16s1.033-.453 3.066-1.265M362.136 958.827c1.434-.459 2.924-.927 4.472-1.407M383.322 952.558a583.69 583.69 0 0 1 5.148-1.386M405.142 947.03a663.7 663.7 0 0 1 6.416-1.464M427.516 942.214c2.27-.448 4.584-.89 6.93-1.328M451.479 937.927c2.416-.39 4.861-.77 7.341-1.145M475.61 934.454c2.606-.33 5.246-.65 7.912-.962" style="fill:none;stroke:#00ff4a;stroke-width:1.99999;stroke-linecap:round;stroke-linejoin:round;stroke-miterlimit:500;stroke-dasharray:none;stroke-opacity:1;visibility:visible"/><path d="m251.693 777.952-.044-8.755 78.821-25.537c18.501-6 51.693-14.351 77.164-18.834 51.166-9 106.749-12.353 106.749-12.353l2.604 2.541L506.8 955.326c-108.666 7-176.007 41.313-176.007 41.313l-72.69 32.596-4.562-1.919-.648-.393-.03-5.224M341.414 767.382l-.384 32.773M340.858 814.827l-.674 57.334M340.007 887.494l-.643 55M339.2 956.486l-.12 10.12M367.204 957.764l3.382-198.567M393.051 754.09l-4.048 197.27M416.506 749.66l-4.943 195.933M440.73 745.508l-5.675 195.44M465.685 742.106l-6.538 195.117M481.688 740.494l-6.701 196.333M457.076 743.298l-6.308 196.872M432.63 746.773l-5.415 197.22M409.019 750.94l-4.708 198.387M386.246 755.382l-3.931 199.778M361.316 961.654l3.19-201.008M338.414 768.16l-.324 31.335M337.935 814.494l-.583 56.333M337.19 886.494l-.57 55M336.48 955.16l-.169 16.334" style="fill:none;stroke:#00ff4a;stroke-width:1.99999;stroke-linecap:round;stroke-linejoin:round;stroke-miterlimit:500;stroke-dasharray:none;stroke-opacity:1;visibility:visible"/><path d="m316.08 775.94-1.421 200.762.58.542-62.473 26.992.048 8.724" style="fill:none;stroke:#00ff4a;stroke-width:1.99999;stroke-linecap:round;stroke-linejoin:round;stroke-miterlimit:500;stroke-dasharray:none;stroke-opacity:1;visibility:visible"/><path d="m321.47 774.494-1.583 204.688-4.647-1.939" style="fill:none;stroke:#00ff4a;stroke-width:.999997;stroke-linecap:round;stroke-linejoin:round;stroke-miterlimit:500;stroke-dasharray:none;stroke-opacity:1;visibility:visible"/><path d="m490.855 739.548-7.342 194.228" style="fill:none;stroke:#00ff4a;stroke-width:1.99999;stroke-linecap:round;stroke-linejoin:round;stroke-miterlimit:500;stroke-dasharray:none;stroke-opacity:1;visibility:visible"/><path d="m252.766 1004.235 5.477 2.27.17 22.627M516.63 715.161c-21.5 1.167-71.47 7.005-94.831 10.833-48.831 8-88.497 21-88.497 21L257.73 771.51M251.647 769.197l5.707 1.75.192 24.574M492.964 739.382l-7.554 196.666-1.897-2.27M467.852 741.994l-6.664 197.166-2.041-1.937M443.188 745.214 437.41 943.05l-2.334-1.856M419.132 749.16l-4.942 198.559-2.626-1.835M395.966 753.548l-4.111 199.5-2.79-1.647M367.204 957.764l3.207 1.73 3.472-201.122M339.08 966.604l4.89 2.112M343.97 968.716l.125-10.89M344.256 943.827l.612-53.333M345.064 873.494l.656-57M345.892 801.494l.412-35.778" style="fill:none;stroke:#00ff4a;stroke-width:.999997;stroke-linecap:round;stroke-linejoin:round;stroke-miterlimit:500;stroke-dasharray:none;stroke-opacity:1;visibility:visible"/><path d="M255.62 786.176c1.324-.414 1.886-2.402 1.257-4.454-.627-2.046-2.212-3.38-3.536-2.972M258.245 1006.507l72.225-31.95c25.61-10.619 56.716-22.067 100.274-30.176 26.207-4.876 52-8.109 76.576-9.846" style="fill:none;stroke:#00ff4a;stroke-width:.999997;stroke-linecap:round;stroke-linejoin:round;stroke-miterlimit:500;stroke-dasharray:none;stroke-opacity:1;visibility:visible"/><path d="m253.34 778.749-1.576.508c-1.326.403-1.889 2.396-1.259 4.445.628 2.05 2.212 3.383 3.537 2.979l.057-.017 1.521-.488" style="fill:none;stroke:#00ff4a;stroke-width:1.99999;stroke-linecap:round;stroke-linejoin:round;stroke-miterlimit:500;stroke-dasharray:none;stroke-opacity:1;visibility:visible"/><path d="M256.88 1020.246c1.2-.508 1.528-2.464.73-4.38-.797-1.91-2.42-3.056-3.62-2.55M251.633 779.317c1.324-.41 2.912.923 3.537 2.972.62 2.02.083 3.981-1.199 4.435" style="fill:none;stroke:#00ff4a;stroke-width:.999997;stroke-linecap:round;stroke-linejoin:round;stroke-miterlimit:500;stroke-dasharray:none;stroke-opacity:1;visibility:visible"/><path d="m253.99 1013.316-1.43.618c-1.204.502-1.532 2.461-.73 4.372.799 1.912 2.417 3.057 3.624 2.557.013-.008.033-.015.05-.023l1.378-.594" style="fill:none;stroke:#00ff4a;stroke-width:1.99999;stroke-linecap:round;stroke-linejoin:round;stroke-miterlimit:500;stroke-dasharray:none;stroke-opacity:1;visibility:visible"/><path d="M252.445 1014.003c1.2-.503 2.822.639 3.621 2.552.79 1.885.48 3.81-.677 4.352" style="fill:none;stroke:#00ff4a;stroke-width:.999997;stroke-linecap:round;stroke-linejoin:round;stroke-miterlimit:500;stroke-dasharray:none;stroke-opacity:1;visibility:visible"/><path d="m321.3 773.984-64.108 21.622-4.778-1.625-.645-.438-.029-5.811" style="fill:none;stroke:#00ff4a;stroke-width:1.99999;stroke-linecap:round;stroke-linejoin:round;stroke-miterlimit:500;stroke-dasharray:none;stroke-opacity:1;visibility:visible"/><path d="M338.418 768.176a136.133 136.133 0 0 0-5.781 1.984l-11.337 3.82" style="fill:none;stroke:#00ff4a;stroke-width:.999997;stroke-linecap:round;stroke-linejoin:round;stroke-miterlimit:500;stroke-dasharray:none;stroke-opacity:1;visibility:visible"/><path d="M346.308 765.736a356.884 356.884 0 0 0-7.89 2.44" style="fill:none;stroke:#00ff4a;stroke-width:1.99999;stroke-linecap:round;stroke-linejoin:round;stroke-miterlimit:500;stroke-dasharray:none;stroke-opacity:1;visibility:visible"/><path d="M364.504 760.64a625.612 625.612 0 0 0-18.194 5.096" style="fill:none;stroke:#00ff4a;stroke-width:.999997;stroke-linecap:round;stroke-linejoin:round;stroke-miterlimit:500;stroke-dasharray:none;stroke-opacity:1;visibility:visible"/><path d="M373.844 758.228a757.203 757.203 0 0 0-9.342 2.412" style="fill:none;stroke:#00ff4a;stroke-width:1.99999;stroke-linecap:round;stroke-linejoin:round;stroke-miterlimit:500;stroke-dasharray:none;stroke-opacity:1;visibility:visible"/><path d="M386.22 755.265a462.578 462.578 0 0 0-8.16 1.917 816.89 816.89 0 0 0-4.215 1.048" style="fill:none;stroke:#00ff4a;stroke-width:.999997;stroke-linecap:round;stroke-linejoin:round;stroke-miterlimit:500;stroke-dasharray:none;stroke-opacity:1;visibility:visible"/><path d="M395.879 753.18a584.27 584.27 0 0 0-9.661 2.085" style="fill:none;stroke:#00ff4a;stroke-width:1.99999;stroke-linecap:round;stroke-linejoin:round;stroke-miterlimit:500;stroke-dasharray:none;stroke-opacity:1;visibility:visible"/><path d="M408.954 750.618a692.854 692.854 0 0 0-13.075 2.563" style="fill:none;stroke:#00ff4a;stroke-width:.999997;stroke-linecap:round;stroke-linejoin:round;stroke-miterlimit:500;stroke-dasharray:none;stroke-opacity:1;visibility:visible"/><path d="M419.07 748.8a817.438 817.438 0 0 0-10.115 1.819" style="fill:none;stroke:#00ff4a;stroke-width:1.99999;stroke-linecap:round;stroke-linejoin:round;stroke-miterlimit:500;stroke-dasharray:none;stroke-opacity:1;visibility:visible"/><path d="M432.603 746.582a566.812 566.812 0 0 0-7.805 1.246c-1.92.32-3.831.642-5.724.972" style="fill:none;stroke:#00ff4a;stroke-width:.999997;stroke-linecap:round;stroke-linejoin:round;stroke-miterlimit:500;stroke-dasharray:none;stroke-opacity:1;visibility:visible"/><path d="M443.168 745.044c-3.51.486-7.05 1-10.565 1.538" style="fill:none;stroke:#00ff4a;stroke-width:1.99999;stroke-linecap:round;stroke-linejoin:round;stroke-miterlimit:500;stroke-dasharray:none;stroke-opacity:1;visibility:visible"/><path d="M457.07 743.222a1003.59 1003.59 0 0 0-13.902 1.82" style="fill:none;stroke:#00ff4a;stroke-width:.999997;stroke-linecap:round;stroke-linejoin:round;stroke-miterlimit:500;stroke-dasharray:none;stroke-opacity:1;visibility:visible"/><path d="M467.841 741.945a1169.792 1169.792 0 0 0-10.769 1.279" style="fill:none;stroke:#00ff4a;stroke-width:1.99999;stroke-linecap:round;stroke-linejoin:round;stroke-miterlimit:500;stroke-dasharray:none;stroke-opacity:1;visibility:visible"/><path d="M481.683 740.441a1216.201 1216.201 0 0 0-13.841 1.503" style="fill:none;stroke:#00ff4a;stroke-width:.999997;stroke-linecap:round;stroke-linejoin:round;stroke-miterlimit:500;stroke-dasharray:none;stroke-opacity:1;visibility:visible"/><path d="M493.132 739.328s-4.399.388-11.448 1.114" style="fill:none;stroke:#00ff4a;stroke-width:1.99999;stroke-linecap:round;stroke-linejoin:round;stroke-miterlimit:500;stroke-dasharray:none;stroke-opacity:1;visibility:visible"/><path d="M515.799 737.828c-8.284.557-13.834.832-22.667 1.5" style="fill:none;stroke:#00ff4a;stroke-width:.999997;stroke-linecap:round;stroke-linejoin:round;stroke-miterlimit:500;stroke-dasharray:none;stroke-opacity:1;visibility:visible"/><path d="M271.8 779.522c-.313 1.082-1.16 1.788-1.88 1.579-.72-.213-1.053-1.261-.742-2.341.317-1.084 1.16-1.792 1.884-1.582.719.21 1.05 1.256.739 2.344h-.001" style="fill:none;stroke:#00ff4a;stroke-width:.666665;stroke-linecap:round;stroke-linejoin:round;stroke-miterlimit:4;stroke-dasharray:none;stroke-opacity:1;visibility:visible"/><path d="m430.244 942.762.416-.094.532-.048.603-.004.633.044.592.088.506.126.37.15.207.162.021.158-.162.147-.338.112-.478.07-.572.03-.626-.021-.617-.066-.559-.109-.441-.139-.291-.158-.117-.164.071-.15.251-.135M435.752 721.604l.416-.094.532-.049.603-.003.633.044.592.088.506.126.37.15.206.16.022.16-.162.147-.338.112-.478.07-.572.03-.626-.021-.616-.066-.56-.108-.44-.14-.291-.158-.118-.164.071-.151.251-.133" style="fill:none;stroke:#00ff4a;stroke-width:.999997;stroke-linecap:round;stroke-linejoin:round;stroke-miterlimit:4;stroke-dasharray:none;stroke-opacity:1;visibility:visible"/><path d="m366.608 957.42 16.714-4.862M388.47 951.172l16.672-4.142M411.558 945.566l15.958-3.352M434.446 940.886l17.033-2.959M458.82 936.782l16.79-2.328M251.74 787.732l-.047-9.78M252.814 1012.96l.049 8.739M337.935 814.494l3.095-14.339M345.892 801.494l-5.034 13.333M337.19 886.494l2.994-14.333M345.064 873.494l-5.057 14M336.48 955.16l2.884-12.666M343.97 968.716l-4.77-12.23M344.095 957.826l17.221 3.828M337.935 814.494l.155-14.999M341.03 800.155l-3.095 14.339M337.19 886.494l.162-15.667M340.184 872.161l-2.994 14.333M336.48 955.16l.14-13.666M339.08 966.606l-2.6-11.446M339.2 956.486l-2.889 15.008M252.863 1021.699l-.049-8.739" style="fill:none;stroke:#00ff4a;stroke-width:1.99999;stroke-linecap:round;stroke-linejoin:round;stroke-miterlimit:500;stroke-dasharray:none;stroke-opacity:1;visibility:visible"/><path d="m252.863 1021.699 5.55 7.433M253.34 778.749l4.39-7.239M251.74 787.732l5.806 7.789M339.08 966.606l5.015-8.78M339.2 956.486l5.056-12.659M345.064 873.494l-.196 17M340.007 887.494l5.057-14M345.892 801.494l-.172 15M340.858 814.827l5.034-13.333M253.99 1013.316l4.255-6.809M253.34 778.749l-1.707.568M255.62 786.176l-1.649.548M253.99 1013.316l-1.545.687M256.882 1020.246l-1.493.661" style="fill:none;stroke:#00ff4a;stroke-width:.999997;stroke-linecap:round;stroke-linejoin:round;stroke-miterlimit:500;stroke-dasharray:none;stroke-opacity:1;visibility:visible"/><path d="m257.546 795.521-5.806-7.789" style="fill:none;stroke:#00ff4a;stroke-width:1.99999;stroke-linecap:round;stroke-linejoin:round;stroke-miterlimit:500;stroke-dasharray:none;stroke-opacity:1;visibility:visible"/><path d="m434.446 940.886-4.202 1.876" style="fill:none;stroke:#00ff4a;stroke-width:.999997;stroke-linecap:round;stroke-linejoin:round;stroke-miterlimit:4;stroke-dasharray:none;stroke-opacity:1;visibility:visible"/><path d="m253.341 778.75-1.76-4.978" style="fill:none;stroke:red;stroke-width:1.99999;stroke-linecap:round;stroke-linejoin:round;stroke-miterlimit:500;stroke-dasharray:none;stroke-opacity:1;visibility:visible"/><path d="m254.637 729.716-17.697-3.515M120.609 878.662l2.388-1.687M120.609 878.662l11.799-4.817M129.084 714.201l-2.422 7.597M274.133 961.187l-.03 5.12M265.484 969.92l15.558-9.616" style="fill:none;stroke:red;stroke-width:.666665;stroke-linecap:round;stroke-linejoin:round;stroke-miterlimit:4;stroke-dasharray:none;stroke-opacity:1;visibility:visible"/><path d="m151.06 890.16-3.547-1.813M274.246 961.016l6.836-18.192M208.526 650.495l-16.761 10.173" style="fill:none;stroke:red;stroke-width:1.99999;stroke-linecap:round;stroke-linejoin:round;stroke-miterlimit:500;stroke-dasharray:none;stroke-opacity:1;visibility:visible"/><path d="m308.987 790.255 7.093-14.315" style="fill:none;stroke:#00ff4a;stroke-width:1.99999;stroke-linecap:round;stroke-linejoin:round;stroke-miterlimit:500;stroke-dasharray:none;stroke-opacity:1;visibility:visible"/></svg>