<svg xmlns="http://www.w3.org/2000/svg" baseProfile="full" height="1122.52" preserveAspectRatio="xMinYMin meet" style="width:792px;height:931px" width="793.701" xml:space="preserve"><path d="M433.738 248.696c-.268.224-2.362 2.074-2.651 2.26M418.47 219.876a7.445 7.445 0 0 1 2.054-2.828c4.386-3.698 12.347-1.468 17.782 4.976 4.484 5.322 5.849 11.853 3.718 16.052M419.648 257.025c0 1.017-1.554 1.842-3.476 1.842s-3.48-.825-3.48-1.842" style="fill:none;stroke:red;stroke-width:.666665;stroke-linecap:round;stroke-linejoin:round;stroke-miterlimit:4;stroke-dasharray:none;stroke-opacity:1;visibility:visible" visibility="hidden"/><path d="M436.922 241.736c.252-4.36-1.588-9.576-5.36-14.047-6.216-7.372-15.32-9.92-20.335-5.69a8.16 8.16 0 0 0-.597.554l-1.995 1.351" style="fill:none;stroke:red;stroke-width:.999997;stroke-linecap:round;stroke-linejoin:round;stroke-miterlimit:4;stroke-dasharray:none;stroke-opacity:1;visibility:visible" visibility="hidden"/><path d="M425.143 232.802c5.195 6.166 5.981 14.055 1.75 17.623-4.23 3.564-11.873 1.46-17.071-4.705-5.198-6.163-5.982-14.054-1.752-17.622 4.232-3.566 11.876-1.458 17.073 4.704M416.656 219.869c.476-1.625 1.326-3.04 2.564-4.124" style="fill:none;stroke:red;stroke-width:.666665;stroke-linecap:round;stroke-linejoin:round;stroke-miterlimit:4;stroke-dasharray:none;stroke-opacity:1;visibility:visible" visibility="hidden"/><path d="M431.086 250.956c-5.643 4.756-15.284 2.604-21.534-4.808-6.25-7.412-6.742-17.28-1.102-22.038M408.628 224.097a8.63 8.63 0 0 1 .258-.225c5.016-4.23 14.12-1.682 20.336 5.69 6.216 7.372 7.19 16.776 2.172 21.008a8.277 8.277 0 0 1-.372.298" style="fill:none;stroke:red;stroke-width:.666665;stroke-linecap:round;stroke-linejoin:round;stroke-miterlimit:4;stroke-dasharray:none;stroke-opacity:1;visibility:visible" visibility="hidden"/><path d="M425.924 211.65c5.222-1.484 12.107 1.136 17.006 6.945 3.953 4.686 5.637 10.298 4.909 14.863M425.924 211.652c-1.39.288-3.18 1.058-4.257 1.968l-2.328 2.02" style="fill:none;stroke:red;stroke-width:.999997;stroke-linecap:round;stroke-linejoin:round;stroke-miterlimit:4;stroke-dasharray:none;stroke-opacity:1;visibility:visible" visibility="hidden"/><path d="M426.339 222.14s-3.64-4.223-4.883-4.884M424.667 221.872s-2.943-3.414-3.948-3.948" style="fill:none;stroke:red;stroke-width:.666665;stroke-linecap:round;stroke-linejoin:round;stroke-miterlimit:4;stroke-dasharray:none;stroke-opacity:1;visibility:visible" visibility="hidden"/><path d="M420.855 217.656s.87-1.203 2.743-.2a246.132 246.132 0 0 1 3.546 1.94M430.419 225.885s.533.335.937 0l1.07-.805M431.224 216.786s.198 4.616-1.14 8.896M426.74 215.584s2.276 4.146 2.878 9.698" style="fill:none;stroke:red;stroke-width:.666665;stroke-linecap:round;stroke-linejoin:round;stroke-miterlimit:4;stroke-dasharray:none;stroke-opacity:1;visibility:visible" visibility="hidden"/><path d="M425.47 215.584s2.008 2.744 3.01 8.696M431.558 226.62l.536.47s.266.064.802-.202l4.282-3.41.669-1.674M436.107 220.065s-2.61 3.812-4.617 6.288M428.479 215.917l2.341 2.61M432.226 217.322s.068 3.882-1.206 8.43M433.63 229.096s3.549-.403 8.833.936M433.63 230.166s3.549-.401 8.833.938M433.162 227.489s4.08-1.939 6.822-2.809M433.096 228.56l-.268-.6s-.268-.47.268-.936M440.452 225.618s-5.416 1.94-7.024 3.008" style="fill:none;stroke:red;stroke-width:.666665;stroke-linecap:round;stroke-linejoin:round;stroke-miterlimit:4;stroke-dasharray:none;stroke-opacity:1;visibility:visible" visibility="hidden"/><path d="M436.91 220.936s-1.54 2.073-4.482 6.02M435.57 234.38s2.546 2.542 3.213 4.35M436.508 236.922s.67.602.938 1.339M433.967 230.768s5.483 1.94 8.495 5.084M434.703 231.973s5.953 2.744 7.625 4.885M433.362 229.898v-.802s.068-.267.668-.602M436.976 238.194l3.276 1.339" style="fill:none;stroke:red;stroke-width:.666665;stroke-linecap:round;stroke-linejoin:round;stroke-miterlimit:4;stroke-dasharray:none;stroke-opacity:1;visibility:visible" visibility="hidden"/><path d="M439.05 234.649s1.338 3.545.934 4.48" style="fill:none;stroke:red;stroke-width:.666665;stroke-linecap:round;stroke-linejoin:round;stroke-miterlimit:4;stroke-dasharray:none;stroke-opacity:1;visibility:visible" visibility="hidden"/><path d="M430.41 253.752c2.752-2.112 3.812-5.892 4.024-7.598.27-2.14 1.336-2.942 1.336-2.942l12.778-10.168c.335-.267.804-.2.804-.2l.67.268c.668.266.668.734.668.734-.067 5.888-5.286 9.434-5.286 9.434l-13.644 10.902s-3.08 2.61-7.025 2.408c-3.948-.2-4.75-.6-4.75-.6l-11.305-4.417s-4.549-1.739-4.549-5.016V228.56s.412-4.692 7.028-6.694" style="fill:none;stroke:red;stroke-width:.999997;stroke-linecap:round;stroke-linejoin:round;stroke-miterlimit:4;stroke-dasharray:none;stroke-opacity:1;visibility:visible" visibility="hidden"/><path d="M412.76 253.378v2.008s.334 1.939 3.344 1.939c3.011 0 3.479-1.337 3.479-1.337M404.866 237.458c.802 8.028 6.021 12.912 10.101 15.186 4.081 2.273 8.363 3.611 12.98 2.34a7.156 7.156 0 0 0 2.463-1.234" style="fill:none;stroke:red;stroke-width:.666665;stroke-linecap:round;stroke-linejoin:round;stroke-miterlimit:4;stroke-dasharray:none;stroke-opacity:1;visibility:visible" visibility="hidden"/><path d="M419.49 256.473a1.067 1.067 0 0 1 .158.552v2.375c0 1.017-1.554 1.838-3.476 1.838s-3.48-.821-3.48-1.837v-2.376c0-.252.098-.495.274-.716" style="fill:none;stroke:red;stroke-width:.999997;stroke-linecap:round;stroke-linejoin:round;stroke-miterlimit:4;stroke-dasharray:none;stroke-opacity:1;visibility:visible" visibility="hidden"/><path d="M418.639 256.96c0 .718-1.104 1.303-2.467 1.303-1.364.001-2.468-.585-2.468-1.304M431.022 250.868l2.716-2.172M433.63 229.096l-15.16-9.22M433.63 229.096l8.394 8.98M430.82 218.527l-5.677 14.275M428.479 215.917l-3.336 16.885M431.224 216.786l-14.568 3.083M430.82 218.527l-4.481 3.613M425.47 215.584l-.803 6.288M421.456 217.256l5.688 2.14M433.428 228.626l-1.002-3.546M429.618 225.282l1.606-8.496M433.096 228.56l-6.356-12.976M425.143 232.802l.327-17.218M430.084 225.682l7.763-3.878M426.74 215.584l1.739.333M425.143 232.802l5.677-14.275M420.855 217.656l11.371-.334M425.924 211.65l14.06 13.03M439.984 224.68l.468.938M442.462 235.852l-6.892-1.472M442.462 235.852l-5.954 1.07M431.558 226.62l10.904 9.232M440.252 239.533l-5.549-7.56M425.143 232.802l17.185 4.056M437.446 238.261l1.604-3.612" style="fill:none;stroke:red;stroke-width:.666665;stroke-linecap:round;stroke-linejoin:round;stroke-miterlimit:4;stroke-dasharray:none;stroke-opacity:1;visibility:visible" visibility="hidden"/><path d="m425.924 211.65-14.765 10.216" style="fill:none;stroke:red;stroke-width:.999997;stroke-linecap:round;stroke-linejoin:round;stroke-miterlimit:4;stroke-dasharray:none;stroke-opacity:1;visibility:visible" visibility="hidden"/><path d="m263.457 327.8 159.5-32.668 3.165 5.002s.501.667.834 3.832l.334 15.167s.333 2.833-1 3.166l-147.333 30.502" style="fill:none;stroke:#00ff4a;stroke-width:1.99999;stroke-linecap:round;stroke-linejoin:round;stroke-miterlimit:10;stroke-dasharray:none;stroke-opacity:1;visibility:visible"/><path d="m263.79 328.466 3 5.001s.833 1.334.833 4.499l.167 6.5M268.79 336.631l154.636-31.937" style="fill:none;stroke:#00ff4a;stroke-width:.999997;stroke-linecap:round;stroke-linejoin:round;stroke-miterlimit:10;stroke-dasharray:none;stroke-opacity:1;visibility:visible"/><path d="m362.092 415.7.14 13.45s-.277 4.15-3.61 6.484c-3.332 2.333-5.54 1.529-7.04.529l-98.125-69.862s-1.334-1.334-1.334-3.667l.167-16s.333-2 2.5-2.834l7.333-2.5s.334-.333 1 0l67.704 48.328" style="fill:none;stroke:#00ff4a;stroke-width:1.99999;stroke-linecap:round;stroke-linejoin:round;stroke-miterlimit:10;stroke-dasharray:none;stroke-opacity:1;visibility:visible"/><path d="m253.624 348.133 75.997 54.228" style="fill:none;stroke:#00ff4a;stroke-width:.999997;stroke-linecap:round;stroke-linejoin:round;stroke-miterlimit:10;stroke-dasharray:none;stroke-opacity:1;visibility:visible"/><path d="m350.426 417.868.153 15.712s.003 1.582 1.003 2.582M254.572 230.995l-.781 90.97M239.124 322.133l.943-92.545" style="fill:none;stroke:#00ff4a;stroke-width:1.99999;stroke-linecap:round;stroke-linejoin:round;stroke-miterlimit:10;stroke-dasharray:none;stroke-opacity:1;visibility:visible"/><path d="M260.967 327.771c.839 1.08 1.303 2.274 1.303 3.529 0 4.87-7.019 8.815-15.677 8.815-8.659 0-15.68-3.945-15.68-8.815 0-1.55.707-3.005 1.956-4.27M207.123 323.633c0 .782-1.418 1.417-3.166 1.417-1.75 0-3.167-.635-3.167-1.417s1.416-1.416 3.167-1.416c1.748 0 3.166.633 3.166 1.416M223.29 351.633c0 .782-1.419 1.417-3.167 1.417-1.75 0-3.166-.635-3.166-1.417s1.416-1.416 3.166-1.416c1.748 0 3.167.633 3.167 1.416M275.79 352.383c0 .784-1.419 1.417-3.167 1.417-1.75 0-3.166-.633-3.166-1.417 0-.78 1.416-1.417 3.166-1.417 1.748 0 3.167.637 3.167 1.417M291.957 325.383c0 .783-1.42 1.418-3.167 1.418-1.75-.001-3.167-.635-3.167-1.418 0-.782 1.417-1.417 3.167-1.417 1.748 0 3.167.635 3.167 1.417M250.29 307.717c0 .783-1.38 1.416-3.084 1.416-1.703 0-3.083-.633-3.083-1.416 0-.78 1.38-1.418 3.083-1.418 1.704.001 3.084.638 3.084 1.418" style="fill:none;stroke:#00ff4a;stroke-width:.999997;stroke-linecap:round;stroke-linejoin:round;stroke-miterlimit:10;stroke-dasharray:none;stroke-opacity:1;visibility:visible"/><path d="M232.867 327.029c2.673-2.714 7.818-4.551 13.724-4.551 6.43 0 11.959 2.177 14.375 5.293" style="fill:none;stroke:#00ff4a;stroke-width:1.99999;stroke-linecap:round;stroke-linejoin:round;stroke-miterlimit:10;stroke-dasharray:none;stroke-opacity:1;visibility:visible"/><path d="M258.969 330.873c0 3.897-5.542 7.053-12.379 7.053s-12.376-3.156-12.376-7.053c0-3.898 5.541-7.058 12.377-7.058s12.379 3.16 12.379 7.058h-.001" style="fill:none;stroke:#00ff4a;stroke-width:.999997;stroke-linecap:round;stroke-linejoin:round;stroke-miterlimit:10;stroke-dasharray:none;stroke-opacity:1;visibility:visible"/><path d="M258.457 330.409c0 3.638-5.312 6.589-11.864 6.589-6.555 0-11.866-2.95-11.866-6.59 0-3.639 5.311-6.592 11.866-6.592 6.552-.001 11.864 2.951 11.864 6.594v-.001" style="fill:none;stroke:#00ff4a;stroke-width:.999997;stroke-linecap:round;stroke-linejoin:round;stroke-miterlimit:10;stroke-dasharray:none;stroke-opacity:1;visibility:visible"/><path d="M261.017 327.738s1.098.532 2.27.493" style="fill:none;stroke:#00ff4a;stroke-width:1.99999;stroke-linecap:round;stroke-linejoin:round;stroke-miterlimit:10;stroke-dasharray:none;stroke-opacity:1;visibility:visible"/><path d="M225.893 334.855s5.526 1.59 4.125 5.83M252.35 345.453s-6.473-2.498-11.885.074M266.657 334.855s-5.263 1.855-3.977 5.755" style="fill:none;stroke:#00ff4a;stroke-width:.999997;stroke-linecap:round;stroke-linejoin:round;stroke-miterlimit:10;stroke-dasharray:none;stroke-opacity:1;visibility:visible"/><path d="M235.922 367.706s4.768 1.859 9.878 1.859c5.111 0 9.463-1.291 9.463-1.291M229.563 327.171s1.743.643 3.255-.189" style="fill:none;stroke:#00ff4a;stroke-width:1.99999;stroke-linecap:round;stroke-linejoin:round;stroke-miterlimit:10;stroke-dasharray:none;stroke-opacity:1;visibility:visible"/><path d="m224.703 343.994.827-8.184s.165-2.23 1.157-3.884l2.644-4.627" style="fill:none;stroke:#00ff4a;stroke-width:.999997;stroke-linecap:round;stroke-linejoin:round;stroke-miterlimit:10;stroke-dasharray:none;stroke-opacity:1;visibility:visible"/><path d="M67.186 294.898a16.46 16.46 0 0 0-.272 1.9l-1.239 14.877s-.495 2.976.745 3.225l147.043 36.367M229.564 327.17 89.538 292.38" style="fill:none;stroke:#00ff4a;stroke-width:1.99999;stroke-linecap:round;stroke-linejoin:round;stroke-miterlimit:10;stroke-dasharray:none;stroke-opacity:1;visibility:visible"/><path d="m70.824 297.56 154.13 38.248" style="fill:none;stroke:#00ff4a;stroke-width:.999997;stroke-linecap:round;stroke-linejoin:round;stroke-miterlimit:10;stroke-dasharray:none;stroke-opacity:1;visibility:visible"/><path d="m154.928 391.095 74.595-50.077s.748-.605 1.784-.285l7.096 2.997s2.391.64 2.284 3.353l-1 15.907s0 2.033-2.353 3.567l-97.797 65.769s-1.817 1.246-4.705-.036c-2.892-1.283-5.279-5.136-5.139-7.99l.847-13.598" style="fill:none;stroke:#00ff4a;stroke-width:1.99999;stroke-linecap:round;stroke-linejoin:round;stroke-miterlimit:10;stroke-dasharray:none;stroke-opacity:1;visibility:visible"/><path d="M141.413 410.782c.508.548.953 1.384.877 2.601l-.916 15.667s-.253 2.048-1.836 3.274" style="fill:none;stroke:#00ff4a;stroke-width:1.99999;stroke-linecap:round;stroke-linejoin:round;stroke-miterlimit:10;stroke-dasharray:none;stroke-opacity:1;visibility:visible"/><path d="M409.131 298.695s-.855.94-.416 2.231c.437 1.29 2.52 2.979 5.5 2.376l8.02-1.98" style="fill:none;stroke:#00ff4a;stroke-width:.999997;stroke-linecap:round;stroke-linejoin:round;stroke-miterlimit:10;stroke-dasharray:none;stroke-opacity:1;visibility:visible"/><path d="M419.194 299.8c0 1.21-1.792 2.188-4 2.188s-4-.978-4-2.189c0-1.205 1.792-2.186 4-2.186s4 .981 4 2.186v.001M154.163 404.811l85.404-57.3" style="fill:none;stroke:#00ff4a;stroke-width:.999997;stroke-linecap:round;stroke-linejoin:round;stroke-miterlimit:10;stroke-dasharray:none;stroke-opacity:1;visibility:visible"/><path d="M293.91 324.673c0 1.472-2.188 2.665-4.885 2.665-2.698 0-4.883-1.193-4.883-2.665 0-1.471 2.185-2.666 4.883-2.666 2.697 0 4.885 1.195 4.885 2.666" style="fill:none;fill-opacity:1;fill-rule:nonzero;stroke:#00ff4a;stroke-width:1.33333;visibility:visible"/><path d="m293.629 325.122-.009.108-.03.144-.057.143-.083.141-.103.139-.13.132-.154.131-.177.126-.196.119-.215.112-.237.106-.252.099-.272.087-.284.081-.299.072-.31.063-.317.052-.329.041-.335.033-.342.02-.341.012h-.34l-.344-.012-.339-.02-.336-.033-.328-.041-.32-.052-.31-.063-.298-.072-.285-.081-.268-.087-.256-.099-.235-.106-.216-.112-.197-.119-.175-.125-.153-.132-.131-.132-.104-.139-.084-.141-.057-.143-.031-.144-.008-.108M284.487 325.609l.027.041M288.986 322.257l-.306.003c-.131.01-.262.018-.391.029-.134.014-.267.033-.4.05a7.75 7.75 0 0 0-.759.163 5.433 5.433 0 0 0-.35.108 6.013 6.013 0 0 0-1.291.593 6.532 6.532 0 0 0-.295.192c-.094.062-.181.13-.274.198l-.577.946v.582M288.986 322.257h.088a6.787 6.787 0 0 1 .368.013c.125.012.25.019.375.033a8.356 8.356 0 0 1 .726.124c.118.027.232.054.35.09a4.893 4.893 0 0 1 .336.103c.111.039.22.079.328.12.106.045.21.089.317.138.104.048.205.099.305.155.102.054.201.107.296.166.099.058.195.123.29.184.093.063.188.127.273.2.008.004.01.008.019.011l.572.945v.582" style="fill:none;stroke:#00ff4a;stroke-width:.999997;stroke-linecap:round;stroke-linejoin:round;stroke-miterlimit:4;stroke-dasharray:none;stroke-opacity:1;visibility:visible"/><path d="m289.957 323.98 1.04-.762M287.873 323.98h2.082M286.831 323.218l1.042.764" style="fill:none;stroke:#00ff4a;stroke-width:.999997;stroke-linecap:round;stroke-linejoin:round;stroke-miterlimit:10;stroke-dasharray:none;stroke-opacity:1;visibility:visible"/><path d="M251.88 307.558c0 1.47-2.187 2.664-4.884 2.664-2.698 0-4.886-1.193-4.886-2.664.001-1.472 2.188-2.664 4.887-2.664 2.697 0 4.882 1.192 4.882 2.664" style="fill:none;fill-opacity:1;fill-rule:nonzero;stroke:#00ff4a;stroke-width:1.33333;visibility:visible"/><path d="m242.46 308.493.022.041M246.957 305.141l-.307.006a6.333 6.333 0 0 0-.79.079 8.677 8.677 0 0 0-.405.073c-.118.027-.238.058-.358.087a7.381 7.381 0 0 0-.687.23 6.915 6.915 0 0 0-.647.301 5.741 5.741 0 0 0-.598.364c-.095.061-.185.129-.276.197l-.575.948v.58M246.957 305.14h.088c.122.006.245.008.368.016a11.013 11.013 0 0 1 .372.034c.125.012.248.032.37.05.118.02.238.047.355.074a6.065 6.065 0 0 1 1.64.604c.101.052.2.108.296.164.096.061.193.121.287.188.093.06.187.125.276.196l.016.015.574.945v.58M251.6 308.006l-.01.11-.029.141-.058.142-.081.144-.107.139-.13.13-.151.132-.177.127-.195.119-.216.109-.237.107-.252.097-.272.09-.283.082-.3.071-.31.063-.319.053-.331.039-.335.033-.337.021-.343.011h-.342l-.342-.01-.341-.023-.333-.032-.329-.039-.32-.053-.31-.063-.299-.07-.284-.084-.27-.089-.254-.097-.237-.107-.216-.109-.195-.12-.174-.127-.154-.13-.13-.131-.107-.139-.08-.143-.06-.142-.029-.143-.008-.109" style="fill:none;stroke:#00ff4a;stroke-width:.999997;stroke-linecap:round;stroke-linejoin:round;stroke-miterlimit:4;stroke-dasharray:none;stroke-opacity:1;visibility:visible"/><path d="m247.927 306.865 1.043-.76M245.845 306.865h2.082M244.802 306.105l1.041.76" style="fill:none;stroke:#00ff4a;stroke-width:.999997;stroke-linecap:round;stroke-linejoin:round;stroke-miterlimit:10;stroke-dasharray:none;stroke-opacity:1;visibility:visible"/><path d="M208.9 323.1c0 1.474-2.19 2.666-4.887 2.666-2.697 0-4.882-1.193-4.882-2.666 0-1.47 2.186-2.663 4.883-2.663s4.886 1.193 4.886 2.663" style="fill:none;fill-opacity:1;fill-rule:nonzero;stroke:#00ff4a;stroke-width:1.33333;visibility:visible"/><path d="m199.477 324.035.026.042M203.974 320.685c-.101.001-.203.001-.304.005a18.11 18.11 0 0 0-.393.027l-.399.05a8.003 8.003 0 0 0-.761.163 8.064 8.064 0 0 0-.687.23 7.345 7.345 0 0 0-.328.14 7.876 7.876 0 0 0-.319.157c-.103.057-.205.116-.306.174a6.532 6.532 0 0 0-.295.192c-.092.062-.181.132-.272.198l-.578.946v.583M203.974 320.685h.088a7.11 7.11 0 0 1 .743.048c.122.016.245.032.365.052a5.593 5.593 0 0 1 .711.16 7.276 7.276 0 0 1 .664.224c.105.044.21.088.317.137.104.048.205.099.305.155.103.053.2.108.296.165.1.059.194.124.29.185.093.063.187.127.273.199.008.005.01.01.019.013l.572.947v.579" style="fill:none;stroke:#00ff4a;stroke-width:.999997;stroke-linecap:round;stroke-linejoin:round;stroke-miterlimit:4;stroke-dasharray:none;stroke-opacity:1;visibility:visible"/><path d="m208.618 323.549-.008.109-.03.143-.059.142-.08.142-.104.138-.13.132-.155.131-.177.127-.194.117-.216.113-.238.107-.252.099-.272.088-.282.08-.301.07-.31.064-.317.051-.328.043-.336.033-.342.02-.34.012h-.341l-.345-.012-.337-.02-.337-.033-.327-.043-.32-.05-.31-.066-.297-.069-.287-.08-.268-.088-.256-.099-.234-.107-.216-.112-.199-.118-.173-.127-.154-.13-.13-.134-.104-.137-.084-.142-.058-.142-.03-.143-.008-.11" style="fill:none;stroke:#00ff4a;stroke-width:.999997;stroke-linecap:round;stroke-linejoin:round;stroke-miterlimit:4;stroke-dasharray:none;stroke-opacity:1;visibility:visible"/><path d="m204.946 322.409 1.041-.764M202.863 322.409h2.083M201.82 321.645l1.043.764" style="fill:none;stroke:#00ff4a;stroke-width:.999997;stroke-linecap:round;stroke-linejoin:round;stroke-miterlimit:10;stroke-dasharray:none;stroke-opacity:1;visibility:visible"/><path d="M224.883 351.16c0 1.474-2.188 2.668-4.885 2.668-2.697-.001-4.883-1.195-4.883-2.667 0-1.471 2.186-2.663 4.883-2.663s4.885 1.192 4.885 2.662" style="fill:none;fill-opacity:1;fill-rule:nonzero;stroke:#00ff4a;stroke-width:1.33333;visibility:visible"/><path d="m224.602 351.609-.008.11-.03.143-.059.143-.08.14-.105.138-.13.132-.154.135-.177.123-.194.117-.216.113-.239.107-.25.097-.273.088-.282.083-.3.07-.31.064-.318.054-.328.039-.336.033-.343.022-.339.01h-.341l-.345-.01-.338-.021-.336-.034-.328-.04-.32-.053-.31-.062-.296-.072-.287-.083-.268-.088-.256-.097-.235-.107-.216-.112-.197-.118-.175-.124-.153-.134-.13-.132-.106-.138-.083-.14-.057-.143-.03-.143-.01-.109M215.462 352.095l.028.042M219.96 348.743l-.306.007a6.301 6.301 0 0 0-.392.028c-.132.012-.267.032-.399.05a6.35 6.35 0 0 0-1.109.265 9.295 9.295 0 0 0-.339.126 5.156 5.156 0 0 0-.328.141c-.109.05-.213.105-.317.158a5.813 5.813 0 0 0-.308.172c-.099.064-.197.124-.295.191-.093.066-.18.135-.273.201l-.577.947v.578M219.96 348.743h.086a6.792 6.792 0 0 1 .744.05 5.741 5.741 0 0 1 .727.125 4.173 4.173 0 0 1 .35.085l.334.103c.113.039.222.081.329.123a5.43 5.43 0 0 1 .623.29c.101.054.2.111.296.168.098.058.193.12.29.183a3.787 3.787 0 0 1 .271.2l.021.012.57.947v.578" style="fill:none;stroke:#00ff4a;stroke-width:.999997;stroke-linecap:round;stroke-linejoin:round;stroke-miterlimit:4;stroke-dasharray:none;stroke-opacity:1;visibility:visible"/><path d="m220.93 350.466 1.041-.763M218.847 350.466h2.083M217.806 349.703l1.041.763" style="fill:none;stroke:#00ff4a;stroke-width:.999997;stroke-linecap:round;stroke-linejoin:round;stroke-miterlimit:10;stroke-dasharray:none;stroke-opacity:1;visibility:visible"/><path d="M277.629 351.87c0 1.47-2.186 2.665-4.883 2.665-2.699 0-4.885-1.194-4.885-2.665-.001-1.472 2.186-2.664 4.885-2.664 2.697 0 4.883 1.192 4.883 2.664" style="fill:none;fill-opacity:1;fill-rule:nonzero;stroke:#00ff4a;stroke-width:1.33333;visibility:visible"/><path d="m268.209 352.806.024.041M272.706 349.453a12.025 12.025 0 0 0-.307.006 12.519 12.519 0 0 0-.389.028c-.137.016-.268.03-.4.05a8.739 8.739 0 0 0-.764.162 7.352 7.352 0 0 0-.687.231 7.837 7.837 0 0 0-.646.297 11.223 11.223 0 0 0-.304.174 4.47 4.47 0 0 0-.295.192c-.093.062-.184.132-.276.197l-.575.947v.58M272.706 349.453h.088c.123.002.245.006.368.014.125.01.25.02.372.036a5.47 5.47 0 0 1 .727.122c.117.025.234.054.349.09a5.827 5.827 0 0 1 1.29.516 5.28 5.28 0 0 1 .294.166c.097.057.196.123.288.185.093.061.188.125.276.2.005.003.01.005.016.01l.575.947v.579" style="fill:none;stroke:#00ff4a;stroke-width:.999997;stroke-linecap:round;stroke-linejoin:round;stroke-miterlimit:4;stroke-dasharray:none;stroke-opacity:1;visibility:visible"/><path d="m277.35 352.318-.008.11-.03.142-.059.144-.08.141-.107.139-.13.132-.152.13-.177.128-.194.119-.216.112-.238.103-.252.097-.272.09-.282.082-.3.073-.31.061-.321.052-.328.042-.336.032-.339.023-.341.012h-.343l-.341-.012-.341-.023-.334-.032-.328-.042-.32-.053-.31-.061-.299-.072-.284-.082-.27-.09-.255-.097-.236-.103-.217-.112-.194-.12-.175-.126-.153-.131-.13-.132-.108-.139-.081-.141-.057-.144-.03-.143-.01-.11" style="fill:none;stroke:#00ff4a;stroke-width:.999997;stroke-linecap:round;stroke-linejoin:round;stroke-miterlimit:4;stroke-dasharray:none;stroke-opacity:1;visibility:visible"/><path d="m273.678 351.177 1.041-.762M271.594 351.177h2.083M270.553 350.415l1.041.762M67.824 312.134s-.496 2.976.744 3.224M348.344 417.742v14.533s.003 1.585 1.003 2.585M144.108 411.32c.052.29.074.61.052.96l-.916 15.667s-.254 2.047-1.834 3.273M69.064 297.255l-1.24 14.877M425.068 319.862s.334 2.833-1 3.168M424.736 304.694l.333 15.167M423.902 300.862s.5.668.833 3.833M420.736 295.86l3.167 5M268.062 352.317l-.272-7.851M424.068 323.03l-.642-18.336M271.594 351.177l-17.97-3.044" style="fill:none;stroke:#00ff4a;stroke-width:.999997;stroke-linecap:round;stroke-linejoin:round;stroke-miterlimit:10;stroke-dasharray:none;stroke-opacity:1;visibility:visible"/><path d="m258.457 330.409-4.666-8.445M242.313 308.006l-3.189 14.127" style="fill:none;stroke:#00ff4a;stroke-width:1.99999;stroke-linecap:round;stroke-linejoin:round;stroke-miterlimit:10;stroke-dasharray:none;stroke-opacity:1;visibility:visible"/><path d="m208.617 323.549-1.494.084M208.618 323.549l-1.495.084M224.601 351.607l-1.311.026M224.602 351.609l-1.312.024M277.349 352.318l-1.559.065M277.35 352.318l-1.56.065M293.629 325.121l-1.672.262M293.629 325.122l-1.672.261M251.599 308.006l-1.309-.289M251.88 307.558l-1.59.159M224.954 335.808l.939-.953M224.602 351.609l.101-7.615M68.568 315.358l2.256-17.798M424.736 304.694l-5.542-4.894M220.93 350.466l18.637-2.955M70.824 297.56l-2.256 17.798M423.426 304.694l.642 18.336" style="fill:none;stroke:#00ff4a;stroke-width:.999997;stroke-linecap:round;stroke-linejoin:round;stroke-miterlimit:10;stroke-dasharray:none;stroke-opacity:1;visibility:visible"/><path d="M70.981 256.74c1.573.246 2.256 4.779 1.907 11.099" style="fill:none;stroke:#9500ff;stroke-width:.999997;stroke-linecap:round;stroke-linejoin:round;stroke-miterlimit:4;stroke-dasharray:none;stroke-opacity:1;visibility:visible" visibility="hidden"/><path d="M87.25 292.062c-1.72-.267-2.125-6.861-.9-14.732 1.226-7.87 3.616-14.031 5.338-13.767M64.003 283.711c.032-2.686.309-5.916.846-9.361 1.394-8.943 4.004-15.961 5.832-15.677 1.276.2 1.835 3.906 1.579 9.17" style="fill:none;stroke:#9500ff;stroke-width:.666665;stroke-linecap:round;stroke-linejoin:round;stroke-miterlimit:4;stroke-dasharray:none;stroke-opacity:1;visibility:visible" visibility="hidden"/><path d="M76.437 286.062c-.077-2.917.16-6.45.748-10.224 1.481-9.517 4.628-16.93 7.028-16.555l4.947.63" style="fill:none;stroke:#9500ff;stroke-width:.999997;stroke-linecap:round;stroke-linejoin:round;stroke-miterlimit:4;stroke-dasharray:none;stroke-opacity:1;visibility:visible" visibility="hidden"/><path d="M80.766 285.877c-.014-2.743.231-5.955.76-9.36 1.484-9.518 4.63-16.93 7.03-16.558" style="fill:none;stroke:#9500ff;stroke-width:.666665;stroke-linecap:round;stroke-linejoin:round;stroke-miterlimit:4;stroke-dasharray:none;stroke-opacity:1;visibility:visible" visibility="hidden"/><path d="M88.917 259.909c3.779.588 5.65 8.781 4.163 18.296-1.482 9.518-5.748 16.754-9.527 16.165" style="fill:none;stroke:#9500ff;stroke-width:.999997;stroke-linecap:round;stroke-linejoin:round;stroke-miterlimit:4;stroke-dasharray:none;stroke-opacity:1;visibility:visible" visibility="hidden"/><path d="M59.064 282.771c.081-2.729.372-5.869.89-9.188 1.559-10.006 4.569-17.849 6.726-17.513" style="fill:none;stroke:#9500ff;stroke-width:.666665;stroke-linecap:round;stroke-linejoin:round;stroke-miterlimit:4;stroke-dasharray:none;stroke-opacity:1;visibility:visible" visibility="hidden"/><path d="M73.093 262.198s3.63-1.143 7.73-.067M55.816 284.72s-.807-4.1.672-12.706c1.479-8.603 4.502-16.402 9.545-15.999l4.572.671" style="fill:none;stroke:#9500ff;stroke-width:.999997;stroke-linecap:round;stroke-linejoin:round;stroke-miterlimit:4;stroke-dasharray:none;stroke-opacity:1;visibility:visible" visibility="hidden"/><path d="M73.43 268.047s1.95-1.009 4.973-.404M73.226 264.146s1.076-2.416 7.26-1.344" style="fill:none;stroke:#9500ff;stroke-width:.666665;stroke-linecap:round;stroke-linejoin:round;stroke-miterlimit:4;stroke-dasharray:none;stroke-opacity:1;visibility:visible" visibility="hidden"/><path d="m78.202 269.055-5.942-1.212-3.067 5.583-.268 9.948" style="fill:none;stroke:#9500ff;stroke-width:.999997;stroke-linecap:round;stroke-linejoin:round;stroke-miterlimit:4;stroke-dasharray:none;stroke-opacity:1;visibility:visible" visibility="hidden"/><path d="m66.775 277.257 2.083.47M68.118 270.4l2.084.47M66.17 275.711s-1.01.404-1.48 1.075M66.237 274.03l-1.01-.068M65.632 271.007s.404.74 1.277 1.01M66.17 268.72s.268.941 1.141 2.014M67.782 270.266s-.805-2.824.808-4.505l.134-1.076-1.412.201M66.505 277.391s-1.68 2.689-2.082 4.302M70.07 283.643l-3.9-.806-.74 1.076M73.497 285.326l.135-8.336-.942-.271-1.144 4.908-1.88 3.093M69.193 273.426l7.597 1.48" style="fill:none;stroke:#9500ff;stroke-width:.666665;stroke-linecap:round;stroke-linejoin:round;stroke-miterlimit:4;stroke-dasharray:none;stroke-opacity:1;visibility:visible" visibility="hidden"/><path d="M87.546 292.65s-1.746 4.976-3.898 4.91l-25.075-4.572s-1.681-.001-2.22-3.227c-.537-3.227-.47-5.781.203-6.454.672-.673 1.276-.74 1.881-.537l21.781 3.964s1.815.204 1.883 2.086c0 0-.2 6.991 1.681 7.527.706.203 1.29-.153 1.742-.674" style="fill:none;stroke:#9500ff;stroke-width:.999997;stroke-linecap:round;stroke-linejoin:round;stroke-miterlimit:4;stroke-dasharray:none;stroke-opacity:1;visibility:visible" visibility="hidden"/><path d="M69.213 296.025a18.06 18.06 0 0 0-.148 1.232" style="fill:none;stroke:#9500ff;stroke-width:.999997;stroke-linecap:round;stroke-linejoin:round;stroke-miterlimit:10;stroke-dasharray:none;stroke-opacity:1;visibility:visible" visibility="hidden"/><path d="m88.917 259.909 2.771 3.654" style="fill:none;stroke:#9500ff;stroke-width:.666665;stroke-linecap:round;stroke-linejoin:round;stroke-miterlimit:4;stroke-dasharray:none;stroke-opacity:1;visibility:visible" visibility="hidden"/><path d="m87.25 292.062-3.697 2.308" style="fill:none;stroke:#9500ff;stroke-width:.999997;stroke-linecap:round;stroke-linejoin:round;stroke-miterlimit:4;stroke-dasharray:none;stroke-opacity:1;visibility:visible" visibility="hidden"/><path d="m70.981 256.74-4.301-.67M68.118 270.4l10.285-2.757" style="fill:none;stroke:#9500ff;stroke-width:.666665;stroke-linecap:round;stroke-linejoin:round;stroke-miterlimit:4;stroke-dasharray:none;stroke-opacity:1;visibility:visible" visibility="hidden"/><path d="m69.193 273.426 9.009-4.371" style="fill:none;stroke:#9500ff;stroke-width:.999997;stroke-linecap:round;stroke-linejoin:round;stroke-miterlimit:4;stroke-dasharray:none;stroke-opacity:1;visibility:visible" visibility="hidden"/><path d="m69.193 273.426-.335 4.301M69.193 273.426l1.009-2.556M70.605 256.686l-5.378 17.276M66.505 277.391l-.873-6.384M68.118 270.4l-1.209 1.617M73.226 264.146l-8.803 17.547M66.775 277.257l3.295 6.386M70.202 270.87l-1.009 2.556M68.118 270.4l8.672 4.506" style="fill:none;stroke:#9500ff;stroke-width:.666665;stroke-linecap:round;stroke-linejoin:round;stroke-miterlimit:4;stroke-dasharray:none;stroke-opacity:1;visibility:visible" visibility="hidden"/><path d="m87.546 292.65-18.481 4.607" style="fill:none;stroke:#9500ff;stroke-width:.999997;stroke-linecap:round;stroke-linejoin:round;stroke-miterlimit:10;stroke-dasharray:none;stroke-opacity:1;visibility:visible" visibility="hidden"/><path d="M273.91 216.393c-4.787 6.425-12.085 9.092-16.3 5.955-4.21-3.14-3.744-10.895 1.045-17.322 4.788-6.426 12.086-9.093 16.299-5.953 4.208 3.139 3.745 10.892-1.044 17.32" style="fill:none;stroke:#ffdf00;stroke-width:.666665;stroke-linecap:round;stroke-linejoin:round;stroke-miterlimit:4;stroke-dasharray:none;stroke-opacity:1;visibility:visible" visibility="hidden"/><path d="M253.537 223.114c-5.084-4.07-4.634-13.432 1.078-21.096 5.796-7.78 14.818-10.87 20.146-6.901" style="fill:none;stroke:#ffdf00;stroke-width:.666665;stroke-linecap:round;stroke-linejoin:round;stroke-miterlimit:4;stroke-dasharray:none;stroke-opacity:1;visibility:visible" visibility="hidden"/><path d="M235.577 206.974c-1.154-4.702.177-10.661 3.976-15.761 5.797-7.781 15.146-10.625 20.884-6.35l2.301 1.793M262.73 186.669c.128.083.255.17.377.263 1.334.993 2.279 2.374 2.843 4.006M274.76 195.118c5.324 3.968 4.944 13.494-.85 21.275-5.792 7.779-14.816 10.867-20.144 6.899l-.23-.176" style="fill:none;stroke:#ffdf00;stroke-width:.999997;stroke-linecap:round;stroke-linejoin:round;stroke-miterlimit:4;stroke-dasharray:none;stroke-opacity:1;visibility:visible" visibility="hidden"/><path d="M241.089 210.636c-1.819-4.071-.63-10.308 3.374-15.684 5.128-6.883 12.932-9.746 17.431-6.39a6.948 6.948 0 0 1 2.001 2.363" style="fill:none;stroke:#ffdf00;stroke-width:.999997;stroke-linecap:round;stroke-linejoin:round;stroke-miterlimit:4;stroke-dasharray:none;stroke-opacity:1;visibility:visible" visibility="hidden"/><path d="M251.146 221.245c-5.325-3.97-4.948-13.496.85-21.273 5.794-7.78 14.816-10.872 20.144-6.9l2.386 1.772" style="fill:none;stroke:#ffdf00;stroke-width:.999997;stroke-linecap:round;stroke-linejoin:round;stroke-miterlimit:4;stroke-dasharray:none;stroke-opacity:1;visibility:visible" visibility="hidden"/><path d="M235.48 207.285s6.22 4.584 8.676 5.81c2.457 1.231 2.703 2.459 4.831 6.798 2.128 4.337 7.036 8.675 14.733 5.237" style="fill:none;stroke:#ffdf00;stroke-width:.999997;stroke-linecap:round;stroke-linejoin:round;stroke-miterlimit:4;stroke-dasharray:none;stroke-opacity:1;visibility:visible" visibility="hidden"/><path d="m278.537 200.653 1.473.981s1.472.902 1.147 3.766c-.328 2.866-3.358 15.225-16.867 21.284l-9.084 3.685s-4.584 2.128-11.05.49c-6.468-1.638-8.924-5.321-8.924-7.941V207.94" style="fill:none;stroke:#ffdf00;stroke-width:.999997;stroke-linecap:round;stroke-linejoin:round;stroke-miterlimit:4;stroke-dasharray:none;stroke-opacity:1;visibility:visible" visibility="hidden"/><path d="M242.763 211.785v-3.847s.082-3.11 5.404-2.538" style="fill:none;stroke:#ffdf00;stroke-width:.999997;stroke-linecap:round;stroke-linejoin:round;stroke-miterlimit:4;stroke-dasharray:none;stroke-opacity:1;visibility:visible" visibility="hidden"/><path d="M243.255 208.922s1.803 1.8 3.438 2.29" style="fill:none;stroke:#ffdf00;stroke-width:.666665;stroke-linecap:round;stroke-linejoin:round;stroke-miterlimit:4;stroke-dasharray:none;stroke-opacity:1;visibility:visible" visibility="hidden"/><path d="M260.118 188.212s-3.601 4.008-4.828 7.528M254.798 187.965s-1.639 7.041-1.39 9.005M250.214 190.093s1.221 5.596 2.083 7.013M246.203 193.533s2.7 3.03 4.5 4.584M242.6 198.772s5.077.736 6.632 1.636M240.717 203.926s5.076-1.962 8.268-1.962M253.536 223.116l-2.39-1.871M274.761 195.117l3.776 5.536M235.232 207.94l7.531 3.845" style="fill:none;stroke:#ffdf00;stroke-width:.999997;stroke-linecap:round;stroke-linejoin:round;stroke-miterlimit:4;stroke-dasharray:none;stroke-opacity:1;visibility:visible" visibility="hidden"/><path d="m250.703 198.117-7.448 10.805" style="fill:none;stroke:#ffdf00;stroke-width:.666665;stroke-linecap:round;stroke-linejoin:round;stroke-miterlimit:4;stroke-dasharray:none;stroke-opacity:1;visibility:visible" visibility="hidden"/><path d="m260.118 188.212-13.915 5.321M248.167 205.4l-5.567-6.628M262.73 186.669l-13.498 13.739" style="fill:none;stroke:#ffdf00;stroke-width:.999997;stroke-linecap:round;stroke-linejoin:round;stroke-miterlimit:4;stroke-dasharray:none;stroke-opacity:1;visibility:visible" visibility="hidden"/><path d="M115.782 395.155c4.788 6.425 12.086 9.09 16.3 5.953 4.211-3.138 3.744-10.893-1.045-17.32-4.788-6.424-12.085-9.091-16.299-5.955-4.208 3.14-3.745 10.894 1.044 17.322" style="fill:none;stroke:#00d4ff;stroke-width:.666665;stroke-linecap:round;stroke-linejoin:round;stroke-miterlimit:4;stroke-dasharray:none;stroke-opacity:1;visibility:visible" visibility="hidden"/><path d="M136.154 401.876c5.084-4.07 4.634-13.43-1.078-21.096-5.796-7.779-14.818-10.869-20.146-6.899" style="fill:none;stroke:#00d4ff;stroke-width:.666665;stroke-linecap:round;stroke-linejoin:round;stroke-miterlimit:4;stroke-dasharray:none;stroke-opacity:1;visibility:visible" visibility="hidden"/><path d="M154.116 385.735c1.153-4.701-.178-10.658-3.976-15.761-5.798-7.779-15.147-10.624-20.884-6.35l-2.302 1.794M126.962 365.43a8.325 8.325 0 0 0-.377.265c-1.333.995-2.279 2.372-2.841 4.008M114.93 373.882c-5.322 3.97-4.944 13.492.852 21.274 5.791 7.778 14.815 10.867 20.143 6.898.079-.058.153-.115.23-.176" style="fill:none;stroke:#00d4ff;stroke-width:.999997;stroke-linecap:round;stroke-linejoin:round;stroke-miterlimit:4;stroke-dasharray:none;stroke-opacity:1;visibility:visible" visibility="hidden"/><path d="M148.602 389.398c1.818-4.07.631-10.308-3.374-15.683-5.128-6.882-12.932-9.745-17.431-6.393a6.957 6.957 0 0 0-2.001 2.365" style="fill:none;stroke:#00d4ff;stroke-width:.999997;stroke-linecap:round;stroke-linejoin:round;stroke-miterlimit:4;stroke-dasharray:none;stroke-opacity:1;visibility:visible" visibility="hidden"/><path d="M138.546 400.007c5.326-3.97 4.948-13.496-.849-21.274-5.796-7.78-14.817-10.868-20.145-6.9l-2.386 1.771" style="fill:none;stroke:#00d4ff;stroke-width:.999997;stroke-linecap:round;stroke-linejoin:round;stroke-miterlimit:4;stroke-dasharray:none;stroke-opacity:1;visibility:visible" visibility="hidden"/><path d="M154.213 386.046s-6.221 4.584-8.677 5.812c-2.456 1.23-2.703 2.457-4.831 6.797-2.128 4.336-7.036 8.675-14.732 5.237" style="fill:none;stroke:#00d4ff;stroke-width:.999997;stroke-linecap:round;stroke-linejoin:round;stroke-miterlimit:4;stroke-dasharray:none;stroke-opacity:1;visibility:visible" visibility="hidden"/><path d="m111.154 379.415-1.473.982s-1.473.9-1.147 3.766c.327 2.864 3.358 15.225 16.866 21.284l9.085 3.685s4.584 2.128 11.05.49c6.468-1.639 8.925-5.322 8.925-7.942V386.7" style="fill:none;stroke:#00d4ff;stroke-width:.999997;stroke-linecap:round;stroke-linejoin:round;stroke-miterlimit:4;stroke-dasharray:none;stroke-opacity:1;visibility:visible" visibility="hidden"/><path d="M146.928 390.548v-3.846s-.082-3.112-5.404-2.539" style="fill:none;stroke:#00d4ff;stroke-width:.999997;stroke-linecap:round;stroke-linejoin:round;stroke-miterlimit:4;stroke-dasharray:none;stroke-opacity:1;visibility:visible" visibility="hidden"/><path d="M146.436 387.683s-1.803 1.8-3.438 2.293" style="fill:none;stroke:#00d4ff;stroke-width:.666665;stroke-linecap:round;stroke-linejoin:round;stroke-miterlimit:4;stroke-dasharray:none;stroke-opacity:1;visibility:visible" visibility="hidden"/><path d="M129.573 366.974s3.601 4.01 4.828 7.53M134.893 366.727s1.639 7.039 1.39 9.004M139.477 368.855s-1.221 5.596-2.083 7.015M143.488 372.295s-2.7 3.03-4.5 4.585M147.093 377.534s-5.079.736-6.633 1.639M148.974 382.69s-5.076-1.964-8.268-1.964M136.155 401.878l2.391-1.871M114.93 373.881l-3.776 5.534M154.46 386.7l-7.532 3.848M154.213 386.046l-13.753-6.873M134.893 366.727l5.813 13.999" style="fill:none;stroke:#00d4ff;stroke-width:.999997;stroke-linecap:round;stroke-linejoin:round;stroke-miterlimit:4;stroke-dasharray:none;stroke-opacity:1;visibility:visible" visibility="hidden"/><path d="M345.656 377.53c1.574.245 2.258 4.777 1.907 11.097" style="fill:none;stroke:#ff008a;stroke-width:.999997;stroke-linecap:round;stroke-linejoin:round;stroke-miterlimit:4;stroke-dasharray:none;stroke-opacity:1;visibility:visible" visibility="hidden"/><path d="M361.924 412.851c-1.72-.268-2.124-6.863-.898-14.733 1.224-7.868 3.614-14.032 5.336-13.764M338.678 404.5c.032-2.686.31-5.917.846-9.365 1.394-8.939 4.006-15.957 5.834-15.673 1.276.2 1.832 3.908 1.577 9.172" style="fill:none;stroke:#ff008a;stroke-width:.666665;stroke-linecap:round;stroke-linejoin:round;stroke-miterlimit:4;stroke-dasharray:none;stroke-opacity:1;visibility:visible" visibility="hidden"/><path d="M351.112 406.851c-.076-2.917.162-6.455.748-10.224 1.482-9.517 4.63-16.93 7.028-16.557l4.948.63" style="fill:none;stroke:#ff008a;stroke-width:.999997;stroke-linecap:round;stroke-linejoin:round;stroke-miterlimit:4;stroke-dasharray:none;stroke-opacity:1;visibility:visible" visibility="hidden"/><path d="M355.443 406.664c-.016-2.74.23-5.953.76-9.36 1.483-9.516 4.628-16.931 7.03-16.558" style="fill:none;stroke:#ff008a;stroke-width:.666665;stroke-linecap:round;stroke-linejoin:round;stroke-miterlimit:4;stroke-dasharray:none;stroke-opacity:1;visibility:visible" visibility="hidden"/><path d="M363.591 380.698c3.779.585 5.65 8.78 4.164 18.296-1.481 9.516-5.75 16.752-9.528 16.162" style="fill:none;stroke:#ff008a;stroke-width:.999997;stroke-linecap:round;stroke-linejoin:round;stroke-miterlimit:4;stroke-dasharray:none;stroke-opacity:1;visibility:visible" visibility="hidden"/><path d="M333.74 403.558c.082-2.728.373-5.868.888-9.188 1.56-10.004 4.572-17.849 6.727-17.512" style="fill:none;stroke:#ff008a;stroke-width:.666665;stroke-linecap:round;stroke-linejoin:round;stroke-miterlimit:4;stroke-dasharray:none;stroke-opacity:1;visibility:visible" visibility="hidden"/><path d="M347.768 382.986s3.632-1.143 7.732-.066M330.493 405.508s-.807-4.1.672-12.705c1.478-8.605 4.502-16.405 9.543-16.001l4.574.676" style="fill:none;stroke:#ff008a;stroke-width:.999997;stroke-linecap:round;stroke-linejoin:round;stroke-miterlimit:4;stroke-dasharray:none;stroke-opacity:1;visibility:visible" visibility="hidden"/><path d="M348.106 388.837s1.95-1.01 4.976-.407M347.904 384.937s1.076-2.42 7.26-1.347" style="fill:none;stroke:#ff008a;stroke-width:.666665;stroke-linecap:round;stroke-linejoin:round;stroke-miterlimit:4;stroke-dasharray:none;stroke-opacity:1;visibility:visible" visibility="hidden"/><path d="m352.88 389.842-5.945-1.21-3.064 5.58-.268 9.95" style="fill:none;stroke:#ff008a;stroke-width:.999997;stroke-linecap:round;stroke-linejoin:round;stroke-miterlimit:4;stroke-dasharray:none;stroke-opacity:1;visibility:visible" visibility="hidden"/><path d="m341.451 398.046 2.083.47M342.795 391.188l2.083.47M340.844 396.498s-1.008.402-1.478 1.078M340.912 394.82l-1.008-.07M340.307 391.794s.404.74 1.276 1.008M340.844 389.509s.271.94 1.143 2.015M342.46 391.053s-.809-2.823.805-4.503l.134-1.073-1.412.198M341.18 398.18s-1.68 2.69-2.082 4.3M344.746 404.431l-3.902-.807-.738 1.076M348.172 406.112l.136-8.336-.942-.268-1.144 4.908-1.88 3.092M343.87 394.212l7.596 1.48" style="fill:none;stroke:#ff008a;stroke-width:.666665;stroke-linecap:round;stroke-linejoin:round;stroke-miterlimit:4;stroke-dasharray:none;stroke-opacity:1;visibility:visible" visibility="hidden"/><path d="M362.222 413.44s-1.746 4.974-3.899 4.906l-25.075-4.571s-1.68-.001-2.22-3.227c-.535-3.226-.466-5.78.205-6.454.672-.672 1.276-.738 1.88-.538l21.781 3.967s1.814.203 1.882 2.084c0 0-.2 6.993 1.684 7.53.704.201 1.29-.156 1.74-.679" style="fill:none;stroke:#ff008a;stroke-width:.999997;stroke-linecap:round;stroke-linejoin:round;stroke-miterlimit:4;stroke-dasharray:none;stroke-opacity:1;visibility:visible" visibility="hidden"/><path d="m363.591 380.698 2.771 3.656" style="fill:none;stroke:#ff008a;stroke-width:.666665;stroke-linecap:round;stroke-linejoin:round;stroke-miterlimit:4;stroke-dasharray:none;stroke-opacity:1;visibility:visible" visibility="hidden"/><path d="m361.924 412.851-3.697 2.305" style="fill:none;stroke:#ff008a;stroke-width:.999997;stroke-linecap:round;stroke-linejoin:round;stroke-miterlimit:4;stroke-dasharray:none;stroke-opacity:1;visibility:visible" visibility="hidden"/><path d="m345.656 377.53-4.301-.672" style="fill:none;stroke:#ff008a;stroke-width:.666665;stroke-linecap:round;stroke-linejoin:round;stroke-miterlimit:4;stroke-dasharray:none;stroke-opacity:1;visibility:visible" visibility="hidden"/><path d="m340.844 396.498 6.924-13.512" style="fill:none;stroke:#ff008a;stroke-width:.999997;stroke-linecap:round;stroke-linejoin:round;stroke-miterlimit:4;stroke-dasharray:none;stroke-opacity:1;visibility:visible" visibility="hidden"/><path d="m342.795 391.188 10.287-2.758" style="fill:none;stroke:#ff008a;stroke-width:.666665;stroke-linecap:round;stroke-linejoin:round;stroke-miterlimit:4;stroke-dasharray:none;stroke-opacity:1;visibility:visible" visibility="hidden"/><path d="m343.87 394.212 9.01-4.37" style="fill:none;stroke:#ff008a;stroke-width:.999997;stroke-linecap:round;stroke-linejoin:round;stroke-miterlimit:4;stroke-dasharray:none;stroke-opacity:1;visibility:visible" visibility="hidden"/><path d="m343.87 394.212-.336 4.304M343.87 394.212l1.008-2.554M340.307 391.794l.537 4.704M345.656 377.53l-4.744 17.29M341.355 376.858l-1.451 17.892M342.795 391.188l-1.212 1.614M341.18 398.18l-.336-8.671M341.451 398.046l3.295 6.385M344.878 391.658l-1.008 2.554M342.795 391.188l8.671 4.504" style="fill:none;stroke:#ff008a;stroke-width:.666665;stroke-linecap:round;stroke-linejoin:round;stroke-miterlimit:4;stroke-dasharray:none;stroke-opacity:1;visibility:visible" visibility="hidden"/><path d="m435.57 234.38 6.893-4.348M435.57 234.38l6.893-3.276M432.426 225.08l6.357 13.65" style="fill:none;stroke:red;stroke-width:.666665;stroke-linecap:round;stroke-linejoin:round;stroke-miterlimit:4;stroke-dasharray:none;stroke-opacity:1;visibility:visible" visibility="hidden"/><path d="m355.443 406.664 6.649 9.036M351.112 406.851l-.686 11.017M242.763 211.785l-2.696 17.803M64.423 281.693l2.763 13.205M154.213 386.046l.715 5.049" style="fill:none;stroke:#00ff4a;stroke-width:1.99999;stroke-linecap:round;stroke-linejoin:round;stroke-miterlimit:10;stroke-dasharray:none;stroke-opacity:1;visibility:visible"/><path d="m138.546 400.007 15.617 4.804M351.112 406.851l-2.768 10.891" style="fill:none;stroke:#00ff4a;stroke-width:.999997;stroke-linecap:round;stroke-linejoin:round;stroke-miterlimit:10;stroke-dasharray:none;stroke-opacity:1;visibility:visible"/><path d="m69.193 273.426-5.19 10.285M69.193 273.426l11.573 12.451M69.193 273.426l-10.129 9.345" style="fill:none;stroke:#9500ff;stroke-width:.666665;stroke-linecap:round;stroke-linejoin:round;stroke-miterlimit:4;stroke-dasharray:none;stroke-opacity:1;visibility:visible" visibility="hidden"/><path d="m78.403 267.643-5.31-5.445M66.505 277.391l-10.689 7.329M69.193 273.426l-.268 9.948" style="fill:none;stroke:#9500ff;stroke-width:.999997;stroke-linecap:round;stroke-linejoin:round;stroke-miterlimit:4;stroke-dasharray:none;stroke-opacity:1;visibility:visible" visibility="hidden"/><path d="m78.202 269.055-12.032 6.656M68.118 270.4l-3.428 6.386M68.118 270.4l-2.688 13.513M69.193 273.426l4.304 11.9" style="fill:none;stroke:#9500ff;stroke-width:.666665;stroke-linecap:round;stroke-linejoin:round;stroke-miterlimit:4;stroke-dasharray:none;stroke-opacity:1;visibility:visible" visibility="hidden"/><path d="m67.824 312.132 1.389-16.107" style="fill:none;stroke:#9500ff;stroke-width:.999997;stroke-linecap:round;stroke-linejoin:round;stroke-miterlimit:10;stroke-dasharray:none;stroke-opacity:1;visibility:visible" visibility="hidden"/><path d="m134.893 366.727-.492 7.777" style="fill:none;stroke:#00d4ff;stroke-width:.999997;stroke-linecap:round;stroke-linejoin:round;stroke-miterlimit:4;stroke-dasharray:none;stroke-opacity:1;visibility:visible" visibility="hidden"/><path d="m343.87 394.212-5.192 10.288" style="fill:none;stroke:#ff008a;stroke-width:.666665;stroke-linecap:round;stroke-linejoin:round;stroke-miterlimit:4;stroke-dasharray:none;stroke-opacity:1;visibility:visible" visibility="hidden"/><path d="m350.426 417.868.686-11.017" style="fill:none;stroke:#ff008a;stroke-width:.999997;stroke-linecap:round;stroke-linejoin:round;stroke-miterlimit:4;stroke-dasharray:none;stroke-opacity:1;visibility:visible" visibility="hidden"/><path d="m362.092 415.7-6.649-9.036M343.87 394.212l-10.13 9.346" style="fill:none;stroke:#ff008a;stroke-width:.666665;stroke-linecap:round;stroke-linejoin:round;stroke-miterlimit:4;stroke-dasharray:none;stroke-opacity:1;visibility:visible" visibility="hidden"/><path d="m340.844 396.498-10.351 9.01" style="fill:none;stroke:#ff008a;stroke-width:.999997;stroke-linecap:round;stroke-linejoin:round;stroke-miterlimit:4;stroke-dasharray:none;stroke-opacity:1;visibility:visible" visibility="hidden"/><path d="m347.768 382.986.136 1.951" style="fill:none;stroke:#ff008a;stroke-width:.666665;stroke-linecap:round;stroke-linejoin:round;stroke-miterlimit:4;stroke-dasharray:none;stroke-opacity:1;visibility:visible" visibility="hidden"/><path d="m343.87 394.212-.267 9.95" style="fill:none;stroke:#ff008a;stroke-width:.999997;stroke-linecap:round;stroke-linejoin:round;stroke-miterlimit:4;stroke-dasharray:none;stroke-opacity:1;visibility:visible" visibility="hidden"/><path d="m342.795 391.188-3.429 6.388M342.795 391.188l-2.689 13.512M348.344 417.742l-.172-11.63" style="fill:none;stroke:#ff008a;stroke-width:.666665;stroke-linecap:round;stroke-linejoin:round;stroke-miterlimit:4;stroke-dasharray:none;stroke-opacity:1;visibility:visible" visibility="hidden"/></svg>